<svg 
 xmlns="http://www.w3.org/2000/svg"
 xmlns:xlink="http://www.w3.org/1999/xlink"
 width="60px" height="62px">
<path fill-rule="evenodd"  fill="rgb(255, 255, 255)"
 d="M24.000,5.000 L30.000,0.000 L36.000,5.000 L42.000,3.000 L46.000,10.000 L54.000,12.000 L54.000,20.000 L60.000,24.000 L56.000,32.000 L60.000,38.000 L54.000,42.000 L54.000,50.000 L46.000,52.000 L43.000,59.000 L35.000,58.000 L30.000,62.000 L25.000,58.000 L16.000,59.000 L13.000,52.000 L6.000,51.000 L6.000,42.000 L0.000,38.000 L3.000,31.000 L0.000,24.000 L6.000,20.000 L6.000,12.000 L13.000,11.000 L17.000,4.000 L24.000,5.000 Z"/>
</svg>