<svg 
 xmlns="http://www.w3.org/2000/svg"
 xmlns:xlink="http://www.w3.org/1999/xlink"
 width="58px" height="60px">
<path fill-rule="evenodd"  fill="rgb(255, 255, 255)"
 d="M57.626,21.633 C56.651,18.264 53.933,15.880 50.743,15.184 C51.286,11.952 50.093,8.530 47.340,6.369 C44.384,4.047 40.457,3.832 37.347,5.500 C35.919,2.261 32.694,0.001 28.941,0.001 C25.447,0.001 22.410,1.959 20.854,4.841 C17.916,3.416 14.311,3.611 11.477,5.663 C8.643,7.715 7.317,11.086 7.733,14.337 C4.519,14.908 1.709,17.182 0.604,20.511 C-0.502,23.840 0.385,27.354 2.615,29.747 C0.339,32.097 -0.616,35.593 0.424,38.942 C1.464,42.292 4.229,44.622 7.432,45.255 C6.953,48.497 8.212,51.894 11.006,54.001 C13.800,56.108 17.398,56.375 20.365,55.008 C21.864,57.919 24.863,59.937 28.356,60.005 C31.848,60.074 34.924,58.177 36.535,55.325 C39.446,56.808 43.053,56.683 45.926,54.689 C48.800,52.693 50.191,49.348 49.838,46.089 C53.063,45.583 55.917,43.364 57.087,40.057 C58.257,36.751 57.439,33.221 55.256,30.783 C57.577,28.479 58.601,25.002 57.626,21.633 "/>
</svg>