<svg 
 xmlns="http://www.w3.org/2000/svg"
 xmlns:xlink="http://www.w3.org/1999/xlink"
 width="60px" height="60px">
<path fill-rule="evenodd"  fill="rgb(255, 255, 255)"
 d="M60.009,29.993 C60.009,26.680 57.323,23.751 54.007,23.985 C52.766,24.072 49.092,24.936 44.979,25.982 C49.064,24.833 52.678,23.745 53.797,23.201 C56.786,21.746 57.646,17.867 55.989,14.998 C54.331,12.130 50.539,10.934 47.784,12.794 C46.754,13.490 44.003,16.073 40.965,19.035 C43.928,15.999 46.514,13.250 47.210,12.220 C49.072,9.467 47.875,5.678 45.005,4.021 C42.133,2.365 38.253,3.224 36.797,6.212 C36.253,7.329 35.164,10.939 34.015,15.020 C35.061,10.912 35.926,7.241 36.013,6.002 C36.247,2.687 33.314,0.004 30.000,0.004 C26.685,0.004 23.753,2.687 23.988,6.002 C24.075,7.241 24.938,10.912 25.985,15.020 C24.836,10.939 23.748,7.329 23.202,6.211 C21.748,3.224 17.865,2.365 14.995,4.022 C12.125,5.678 10.928,9.467 12.788,12.220 C13.485,13.250 16.068,15.997 19.032,19.032 C15.995,16.072 13.246,13.489 12.215,12.794 C9.460,10.934 5.668,12.130 4.010,14.998 C2.354,17.867 3.213,21.746 6.202,23.201 C7.322,23.745 10.934,24.833 15.018,25.981 C10.906,24.935 7.233,24.072 5.992,23.984 C2.675,23.751 -0.009,26.681 -0.009,29.993 C-0.009,33.306 2.675,36.236 5.992,36.002 C7.233,35.914 10.905,35.051 15.016,34.005 C10.933,35.153 7.320,36.241 6.202,36.785 C3.213,38.239 2.354,42.118 4.010,44.988 C5.668,47.856 9.460,49.051 12.215,47.192 C13.246,46.496 15.995,43.913 19.033,40.952 C16.070,43.988 13.485,46.736 12.788,47.766 C10.928,50.519 12.125,54.308 14.995,55.964 C17.865,57.620 21.748,56.761 23.202,53.774 C23.748,52.657 24.836,49.046 25.986,44.965 C24.938,49.074 24.075,52.744 23.988,53.984 C23.753,57.299 26.685,59.983 30.000,59.983 C33.314,59.981 36.247,57.299 36.013,53.984 C35.925,52.744 35.061,49.072 34.013,44.963 C35.163,49.045 36.252,52.657 36.797,53.774 C38.253,56.761 42.135,57.621 45.005,55.964 C47.875,54.308 49.072,50.519 47.210,47.766 C46.514,46.735 43.928,43.987 40.965,40.950 C44.003,43.912 46.754,46.496 47.785,47.192 C50.539,49.051 54.332,47.856 55.989,44.988 C57.646,42.118 56.786,38.239 53.797,36.785 C52.678,36.241 49.065,35.152 44.979,34.004 C49.092,35.050 52.766,35.913 54.007,36.001 C57.323,36.236 60.009,33.306 60.009,29.993 Z"/>
</svg>