<?xml version="1.0" standalone="no"?>
<!DOCTYPE svg PUBLIC "-//W3C//DTD SVG 1.1//EN" "http://www.w3.org/Graphics/SVG/1.1/DTD/svg11.dtd" >
<svg xmlns="http://www.w3.org/2000/svg" xmlns:xlink="http://www.w3.org/1999/xlink" version="1.1">
<metadata>
Created by FontForge 20170731 at Sun Jan 22 06:50:04 2017
 By Aleksey,,,
Copyright (c) khurasan : 2017
</metadata>
<defs>
<font id="Aldine-Regular" horiz-adv-x="225" >
  <font-face 
    font-family="Aldine"
    font-weight="400"
    font-stretch="normal"
    units-per-em="1000"
    panose-1="0 0 5 0 0 0 0 0 0 0"
    ascent="800"
    descent="-200"
    x-height="250.5"
    cap-height="580.5"
    bbox="-145 -300 554.909 800"
    underline-thickness="50"
    underline-position="-150"
    unicode-range="U+0020-2260"
  />
<missing-glyph horiz-adv-x="550" 
d="M451 -300h-349v1100h349v-1100zM185 726v-36h71v-41h-72v-36h182v36h-72v41h72v36h-181zM184 584v-114h182v37h-72v77h-110zM256 507h-36v40h36v-40zM184 440v-36h72v-41h-72v-36h110v77h72v36h-182zM330 374v-72h-146v-38h182v110h-36zM256 240v-61h38v25h36v-52h-110
v88h-36v-124h182v124h-110zM184 50v-124h182v124h-182zM330 -38h-110v52h110v-52zM184 -100v-36h77l-77 -52v-36h182v36h-112l77 52h35v36h-182z" />
    <glyph glyph-name=".notdef" horiz-adv-x="550" 
d="M451 -300h-349v1100h349v-1100zM185 726v-36h71v-41h-72v-36h182v36h-72v41h72v36h-181zM184 584v-114h182v37h-72v77h-110zM256 507h-36v40h36v-40zM184 440v-36h72v-41h-72v-36h110v77h72v36h-182zM330 374v-72h-146v-38h182v110h-36zM256 240v-61h38v25h36v-52h-110
v88h-36v-124h182v124h-110zM184 50v-124h182v124h-182zM330 -38h-110v52h110v-52zM184 -100v-36h77l-77 -52v-36h182v36h-112l77 52h35v36h-182z" />
    <glyph glyph-name=".null" horiz-adv-x="0" 
 />
    <glyph glyph-name="nonmarkingreturn" horiz-adv-x="230" 
 />
    <glyph glyph-name="space" unicode=" " horiz-adv-x="230" 
 />
    <glyph glyph-name="exclam" unicode="!" horiz-adv-x="217" 
d="M33 123q3 28 9 65t13 76t14.5 77.5t14 69t11 50.5t5.5 22q2 7 7 11.5t17 2.5q7 -1 17 -5.5t20 -10t17.5 -10.5t9.5 -6q2 -2 2 -4t1 -4q0 -3 1 -5q-24 -93 -43 -168q-8 -32 -16.5 -63t-15 -56t-11.5 -41t-6 -19q-5 -9 -11 -11q-3 -1 -4 -1q-10 2 -19 5q-8 2 -15 4.5
t-10 5.5q-4 2 -5 5t-2 5q-1 3 -1 5zM58 53q11 0 19 -8t8 -20t-8 -20t-19 -8q-13 0 -21 8t-8 20t8 20t21 8z" />
    <glyph glyph-name="percent" unicode="%" horiz-adv-x="442" 
d="M304 497q3 2 11.5 5t18 3.5t18 -1.5t10.5 -9q0 -2 -14.5 -34t-37 -79t-49 -102t-50.5 -102.5t-41.5 -80.5t-21.5 -37q-12 -14 -28.5 -22t-28.5 -6q-8 0 -12 3q-4 2 -5 7t4 15q3 6 19.5 40t40 82t51 102.5t51.5 101.5t41.5 79t22.5 35zM356 73q14 20 24 44.5t9 49.5
q-1 27 -8.5 29.5t-17.5 -11t-22 -37.5t-21 -49.5t-14 -46.5t-2.5 -29t14.5 2t38 48zM351 219q32 1 45.5 -13t15.5 -37q2 -26 -9.5 -56t-26.5 -53q-25 -36 -47.5 -48t-41 -6.5t-31.5 24.5t-19 44t-3.5 52t16 49t38 35t63.5 9zM155 358q14 21 24.5 46t8.5 49q-2 27 -10 29
t-18.5 -11.5t-22 -37.5t-20.5 -49.5t-13.5 -47t-1.5 -29.5t15.5 2.5t37.5 48.5zM150 503q32 2 45.5 -12t15.5 -37q1 -13 -2 -27.5t-8.5 -28.5t-12 -27.5t-13.5 -25.5q-33 -49 -61.5 -54.5t-48.5 13.5t-28.5 54.5t-0.5 69.5t35.5 57t78.5 18z" />
    <glyph glyph-name="ampersand" unicode="&#x26;" horiz-adv-x="413" 
d="M179 478q16 8 36 11t39 -0.5t35 -13.5t24 -28q9 -21 2 -36t-19 -25q-14 -11 -35 -19q-10 -4 -15 6q-3 5 -0.5 9t7.5 5q14 5 25 13q9 7 14 16.5t0 21.5q-10 22 -25 26.5t-30 -3.5t-27.5 -25.5t-16.5 -40.5t2.5 -49t29.5 -49q7 -8 12.5 -18t3.5 -15q-3 -5 -17 -11.5
t-33 -18t-38.5 -27.5t-32 -39.5t-14.5 -54.5t14 -72q6 -14 20.5 -15.5t32 7.5t36 25.5t31 38.5t17.5 46t-3 48q-5 14 -17 11t-24 -14q-14 -12 -30 -32q-5 -10 -16 -4q-9 6 -4 16q17 27 37 44q8 7 18 12t20.5 6t22 -3t23.5 -15q16 -16 27.5 -29.5t19.5 -11.5q8 1 13.5 8.5
t12.5 20.5q2 5 6 6.5t9 -0.5t6.5 -6.5t-0.5 -8.5q-9 -18 -19.5 -29t-25.5 -13q-22 -4 -54 22q2 -38 -12 -72t-43 -60q-26 -23 -63 -28.5t-70 2.5q-9 3 -24 14.5t-26 31.5t-13.5 48t12.5 64q16 35 36 56t39 32q21 13 44 18q-23 21 -33.5 50.5t-8.5 58.5t17.5 54t44.5 38z" />
    <glyph glyph-name="asterisk" unicode="*" horiz-adv-x="319" 
d="M51 617q-5 5 -3.5 15t8.5 16q16 15 28 3l57 -57l21 80q2 6 11.5 9.5t18.5 0.5q19 -8 16 -23l-21 -73l74 25q7 2 13 -3t8 -13q6 -19 -8 -24l-80 -30l62 -60q5 -5 3.5 -12.5t-8.5 -13.5q-14 -14 -25 -3l-61 56l-23 -81q-2 -7 -9.5 -9t-15.5 1q-19 6 -15 21l19 74l-72 -26
q-6 -2 -14.5 4t-10.5 15q-6 21 9 26l77 26z" />
    <glyph glyph-name="zero" unicode="0" horiz-adv-x="358" 
d="M156 479q12 1 30 0.5t37 -3.5t36.5 -8.5t27.5 -14.5q25 -20 34 -56t6.5 -80t-14.5 -91.5t-29 -89t-37.5 -74t-40.5 -45.5q-24 -16 -49 -16t-47.5 11t-40.5 30t-27 42q-12 28 -13.5 68t4 83t17.5 86t28.5 77.5t36.5 56.5t41 24zM192 36q12 7 29 34.5t34 65.5t30.5 83
t18.5 87t-1.5 77t-29.5 53q-23 19 -44.5 7.5t-40 -42.5t-33 -75.5t-23 -92t-10.5 -91.5t4.5 -74.5t22.5 -41t43 9.5z" />
    <glyph glyph-name="colon" unicode=":" horiz-adv-x="139" 
d="M84 250q-11 1 -19.5 9.5t-7.5 17.5q2 11 9.5 18t17.5 6q11 -1 18.5 -8.5t6.5 -16.5q-1 -11 -8.5 -19t-16.5 -7zM57 100q-11 1 -19.5 9.5t-7.5 17.5q2 11 9.5 18t17.5 6q11 -1 18.5 -8.5t6.5 -16.5q-1 -11 -8.5 -19t-16.5 -7z" />
    <glyph glyph-name="semicolon" unicode=";" horiz-adv-x="137" 
d="M82 250q-11 1 -19.5 9.5t-7.5 17.5q2 11 9.5 18t17.5 6q11 -1 18.5 -8.5t6.5 -16.5q-1 -11 -8.5 -19t-16.5 -7zM38 58q-4 0 -7.5 2t-5 6t0 10t8.5 15q8 9 8.5 18t-9.5 19q-8 5 -0.5 14.5t22.5 8.5q19 -1 23.5 -15.5t-0.5 -32t-16.5 -31.5t-23.5 -14z" />
    <glyph glyph-name="less" unicode="&#x3c;" horiz-adv-x="204" 
d="M106 56q-9 -3 -15 1.5t-10 11.5q-17 32 -30 65t-20 68q-1 6 1 11.5t5 10.5q37 61 90 111q5 5 10 9t13 2q15 -2 15 -12t-9 -24t-23 -31t-27 -33t-21.5 -29t-5.5 -19q5 -12 10.5 -26.5t10.5 -30.5t9.5 -31t9.5 -27q-1 -9 -2.5 -16.5t-10.5 -10.5z" />
    <glyph glyph-name="equal" unicode="=" 
d="M42 212q-4 0 -7.5 5t-3.5 10q0 13 10 13l144 3q9 0 9 -13q0 -12 -9 -12zM42 158q-4 0 -7.5 5t-3.5 10q0 13 10 13l144 3q9 0 9 -13q0 -12 -9 -12z" />
    <glyph glyph-name="greater" unicode="&#x3e;" horiz-adv-x="203" 
d="M100 344q9 3 15 -1.5t10 -11.5q17 -32 30 -65t20 -68q1 -6 -1 -11.5t-5 -10.5q-38 -62 -90 -111q-5 -5 -10 -9t-13 -2q-15 2 -15 12t9 24t23 31t27 33t21.5 28.5t5.5 19.5q-5 12 -10.5 26.5t-10.5 30.5t-10 31l-9 27q1 9 2.5 16.5t10.5 10.5z" />
    <glyph glyph-name="question" unicode="?" horiz-adv-x="277" 
d="M249 414q1 -27 -15 -58t-37 -60t-41 -53.5t-29 -38.5t-12.5 -25.5t-4 -21.5t0.5 -19t1 -18q-1 -2 -2 -3q-3 -3 -8 -3q-3 0 -13.5 2t-22 5.5t-20.5 9t-10 12.5q-6 29 6.5 63t33 69t44.5 69t41 61t21.5 46t-12.5 25q-23 7 -43 -2t-36 -27t-26 -41t-12 -43q-1 -5 -4 -8
t-8 -2q-10 0 -10 13q4 42 22 70.5t41.5 43.5t50.5 18t49.5 -6t38 -28.5t16.5 -49.5zM68 63q14 0 23 -9.5t9 -23.5q0 -13 -9 -22.5t-23 -9.5q-13 0 -22.5 9.5t-9.5 22.5q0 14 9.5 23.5t22.5 9.5z" />
    <glyph glyph-name="at" unicode="@" horiz-adv-x="455" 
d="M295 132q-4 -19 4.5 -18t22.5 15.5t31 40t30 55.5t19.5 62t0 60t-29.5 49t-68 29q-83 15 -135.5 -28.5t-74.5 -126.5q-19 -71 -8.5 -128.5t42.5 -88.5t82 -29t109 50q3 3 7.5 2.5t7.5 -3.5q4 -4 3.5 -9t-4.5 -7q-65 -53 -125.5 -55.5t-103 32t-60 98t3.5 142.5
q12 46 36 82t57.5 59.5t75.5 32.5t91 0q43 -8 68.5 -31.5t36 -55.5t8 -69.5t-13.5 -72.5t-29 -64.5t-39 -46.5t-43.5 -18.5t-41.5 20.5q-10 12 -13 29.5t-1 39.5q-15 -11 -30 -19t-28 -12q-17 -5 -30.5 1.5t-20.5 31.5q-5 21 -1 41.5t15 38.5q14 23 33 38.5t36 20.5
q19 7 34.5 2t25.5 -12l3 12q1 3 6.5 3.5t12.5 -0.5t13 -3t8 -3t8 -3.5t11.5 -5.5t9.5 -7t3 -7q-16 -41 -28.5 -83t-26.5 -81zM243 202q5 25 12 49t13 42q-4 3 -9.5 6.5t-13.5 5.5q-11 1 -24.5 -20.5t-22.5 -47t-9 -45.5t15 -16q10 5 20 12t19 14z" />
    <glyph glyph-name="A" unicode="A" horiz-adv-x="352" 
d="M305 30q-2 -11 -6.5 -18t-18.5 -7q-22 0 -35 20.5t-20 48t-9.5 55.5t-3.5 43q-25 -2 -58.5 -6t-64.5 -7q-28 -59 -56.5 -99t-59.5 -43q-5 -2 -8.5 1.5t-3.5 7.5q-2 5 1.5 8.5t8.5 3.5q22 3 46 36t47 83q-8 -2 -13.5 -2t-11.5 -2q-6 0 -9 3.5t-3 8.5q-2 4 1.5 7.5t8.5 3.5
q8 2 17.5 2t21.5 2q8 20 19 55.5t23.5 78t27.5 87.5t31 83t34.5 65t37.5 34q7 1 24 2t35 -1.5t32 -8t14 -16.5q-8 -48 -12.5 -97.5t-9 -111t-11 -139t-16.5 -181.5zM210 194v103q2 65 12.5 127.5t18.5 125.5q-26 -26 -45 -72.5t-35 -100t-30 -106t-30 -89.5q28 3 57.5 6.5
t51.5 5.5z" />
    <glyph glyph-name="B" unicode="B" horiz-adv-x="376" 
d="M26 27q-15 1 -20.5 23t-4 58t9 82t17.5 95t21 96.5t20.5 86t16 64.5t7.5 32t9.5 10t19.5 6.5t21.5 3t14.5 0.5q10 0 19.5 -2t17.5 -6t12.5 -12t4.5 -20q-3 -13 -10 -36.5t-16 -51.5t-18 -55t-15 -46t-7.5 -26.5t5.5 5.5q20 37 44.5 76.5t50.5 68.5t53.5 42.5t54.5 -1.5
q22 -12 23.5 -33.5t-9.5 -46t-29 -49t-35 -43.5q-15 -17 -33 -33t-38 -29q33 -8 52 -25t27 -40q9 -28 4 -57q-1 -15 -5 -29.5t-10 -28.5q-10 -25 -32 -51.5t-48 -41.5t-53 -11.5t-47 37.5q-8 16 -10.5 31t-2.5 28v2q2 11 11 9q5 0 8.5 -3t3.5 -8v-1q-2 -22 9 -47
q15 -25 28 -25t24 15t20 40.5t15 51.5t9.5 48t3.5 31q0 20 -11 31.5t-22.5 19t-17 13t5.5 14.5q2 1 3.5 1.5t5.5 2.5q5 3 11 6t11 8q16 14 33 37t31 46t24 43.5t13 30.5q16 59 -35 33q-20 -10 -41.5 -37.5t-42 -60t-37.5 -64t-28 -48.5q-8 -12 -16 -36t-17 -52.5
t-18.5 -58.5t-20 -55t-22 -41t-23.5 -17z" />
    <glyph glyph-name="C" unicode="C" horiz-adv-x="330" 
d="M307 398q-2 -5 -6 -6.5t-8 0.5q-5 1 -4 5.5t3 8.5q24 67 24 97.5t-16 30t-43 -28t-56 -77t-55 -118t-40 -149.5q-11 -62 4.5 -90t43 -27t61.5 27.5t61 73.5q4 6 8 7t6 -1t3 -6t0 -7q-15 -26 -34 -49q-17 -20 -39.5 -40t-51.5 -32q-21 -9 -46.5 -10t-49.5 9.5t-43 34
t-27 64.5q-8 73 6.5 138t43 118.5t65.5 93.5t74 64t69.5 30t51.5 -8.5t20 -52t-25 -100.5z" />
    <glyph glyph-name="D" unicode="D" horiz-adv-x="384" 
d="M100 548q4 1 15.5 4t23.5 5t21 1.5t9 -6.5q0 -13 -1.5 -28t-4 -29t-4.5 -26.5t-2 -19.5q9 18 20.5 37.5t25.5 35t32 23.5t41 3q29 -7 50 -37.5t32.5 -75.5t14.5 -99t-3.5 -107t-22.5 -100.5t-42.5 -79t-63 -41.5t-84.5 10q-3 1 -10 5.5t-14.5 10t-14.5 12t-8 11.5l7 12
q28 -33 53 -25t46.5 42.5t37.5 88t25.5 110t11.5 109.5t-6.5 86.5t-27 41t-49.5 -27.5q-3 -4 -11 -15t-16.5 -27.5t-16.5 -37.5t-11 -43q-14 -91 -27.5 -178.5t-36.5 -172.5q-4 -13 -19 -13t-31.5 7t-29 16.5t-10.5 15.5q10 36 22 88t24.5 116.5t26.5 140t28 157.5z" />
    <glyph glyph-name="E" unicode="E" horiz-adv-x="325" 
d="M100 93q1 -37 11.5 -49t25.5 -6.5t33.5 25t37 46t34 56t25.5 54.5q1 5 5 6.5t8 -0.5t6.5 -5.5t0.5 -7.5q-12 -31 -31.5 -68.5t-45.5 -69.5t-59 -53.5t-71 -19.5q-19 1 -33 9.5t-23 22t-14 30t-6 33.5q-2 49 12 95.5t28 94.5q-7 -2 -11.5 -2.5t-8.5 -1.5l-8 -2
q-9 -2 -13 8q-2 10 9 13q5 0 11 2q5 1 12 2.5t17 3.5q14 39 32.5 77t42.5 70.5t54 56t67 33.5q30 8 48 -2.5t25 -31.5t3.5 -47.5t-15.5 -50.5q-2 -3 -5.5 -4.5t-8.5 0.5q-9 5 -5 14q17 34 16.5 59.5t-8.5 28.5q-15 5 -31 -7t-31 -33.5t-28.5 -48t-23.5 -49.5t-16 -38.5
l-6 -15.5h38t38 -2q5 0 8 -3.5t2 -8.5q0 -5 -3.5 -7.5t-7.5 -2.5q-21 2 -42.5 2.5t-41.5 -0.5q-10 -23 -20 -49t-17.5 -53t-11.5 -53t-4 -50z" />
    <glyph glyph-name="F" unicode="F" horiz-adv-x="295" 
d="M111 508q-14 -4 -26.5 -6.5t-20.5 -4.5q-11 -3 -18 -5q-4 -1 -7.5 1.5t-5.5 5.5q-3 12 8 14q68 17 132 29q55 11 113.5 17t98.5 1q5 0 8 -3.5t2 -7.5q-1 -5 -4 -8t-8 -2q-20 3 -44.5 2t-52.5 -4t-56.5 -7.5t-55.5 -9.5q8 -12 6 -31t-3 -36q-3 -31 -7 -64t-9 -68l93 9
q5 1 8 -2t3 -8q2 -5 -1 -8t-8 -4l-99 -9q-11 -68 -28 -136t-38 -127q-7 -19 -24 -29.5t-37 -2.5q-18 8 -25.5 26t-1.5 36q40 115 62 226l-48 -3q-5 -2 -8 1t-3 8q-1 5 2 8t8 3l54 5z" />
    <glyph glyph-name="G" unicode="G" horiz-adv-x="331" 
d="M330 488q3 -11 -6 -14.5t-14 6.5q-14 38 -32.5 44t-39.5 -10.5t-42 -50t-40 -75t-33.5 -86t-22 -82t-6 -64.5t15 -32.5t40.5 14t70 74.5q2 12 3.5 23.5t3.5 22.5q78 15 76 -9q-12 -102 -37 -166t-54.5 -99t-59.5 -45.5t-53 -4.5t-35.5 24t-6.5 39.5t34.5 42.5t87.5 32
q8 23 14 46t14 46q-66 -71 -109 -94.5t-66.5 -13t-30.5 48t0 89.5t25.5 111.5t44.5 113t58 94.5t66.5 56t69 -1.5t65.5 -79.5zM172 54q-52 -15 -75 -34.5t-26.5 -35.5t8 -25.5t28.5 -4.5t35.5 28.5t29.5 71.5z" />
    <glyph glyph-name="H" unicode="H" horiz-adv-x="441" 
d="M315 47q-8 -20 -16 -32t-22 -12q-10 0 -17.5 14t-12.5 34.5t-6.5 44.5t1.5 44q-15 -1 -24.5 -1.5t-18.5 -1t-20 -1t-29 -1.5q-2 -8 -10.5 -28t-20 -40.5t-25.5 -36t-27 -15.5q-9 0 -13 10.5t-5 27t0.5 36t3.5 37.5q-10 -1 -17.5 -1.5t-12.5 -0.5q-6 -1 -12 -1
q-11 0 -12 10q0 10 10 12q1 0 14 0.5t33 2.5q18 95 43 191t50 191q1 4 17.5 3.5t35 -4.5t34 -10t15.5 -12q-13 -44 -23 -87l-20 -86t-21.5 -85.5t-26.5 -84.5l-2 -6q17 1 27 1.5t18.5 1t17.5 0.5t24 1q21 94 45 198t49 201q1 5 18 4t36 -6t34 -12t14 -14q-12 -46 -24 -94.5
t-26 -106.5t-32.5 -127.5t-43.5 -157.5z" />
    <glyph glyph-name="I" unicode="I" horiz-adv-x="204" 
d="M120 35q5 1 10.5 3t13.5 4q9 3 15 -6q2 -3 -5.5 -7t-12.5 -6q-39 -16 -63 -13.5t-36.5 17t-16 38t-1.5 49.5t8 52.5t12 46.5q1 5 9.5 33.5t18 68t19 83t14 78.5t1 55t-18.5 13q-16 -8 -28.5 -15t-22.5 -12q-11 -6 -20 -11q-11 -4 -15 4q-3 4 -2 8t5 6l18 11.5t44 23.5
t54.5 20t50 1.5t30 -32.5t-4.5 -82q-3 -10 -11.5 -45.5t-19.5 -83t-22.5 -101t-19 -98t-9.5 -74t6 -29.5z" />
    <glyph glyph-name="J" unicode="J" horiz-adv-x="321" 
d="M153 258q-24 -23 -48.5 -49.5t-44.5 -56t-33.5 -61.5t-15.5 -66q0 -20 4.5 -36t18.5 -30q15 -11 29 4t26.5 45.5t22.5 69.5t18.5 76t14 65.5t8.5 38.5zM164 297q10 49 20 95.5t16 82t5.5 55t-11.5 16.5q-34 -11 -56 -25q-12 -8 -23 -16q-3 -2 -8 -1t-7 4q-2 4 -1.5 8.5
t4.5 6.5l19.5 11.5t47 24t58.5 20.5t54 1.5t33 -33t-4 -83.5q-5 -20 -14 -68.5t-22 -109t-30.5 -126t-39.5 -119t-49.5 -87.5t-59.5 -33q-51 0 -80 26.5t-27 78.5q1 39 20 78.5t46 76t56.5 66.5t52.5 50z" />
    <glyph glyph-name="K" unicode="K" horiz-adv-x="342" 
d="M106 573q24 10 43 17q17 6 32 9.5t19 -0.5q2 -2 -1 -25.5t-9 -59.5t-14.5 -81t-17.5 -91q19 22 47.5 54.5t56.5 64t50.5 55t30.5 27.5q4 2 8 0.5t6 -4.5q3 -5 1.5 -9t-4.5 -6q-7 -4 -26 -24t-43.5 -47t-50.5 -56.5t-46 -52.5q19 9 40.5 15t38.5 3.5t27.5 -18t6.5 -49.5
q-5 -34 -12.5 -69.5t-15.5 -68.5q-10 -48 -16.5 -83.5t1.5 -42.5q5 -5 13 -0.5t15 12.5q8 9 17 21q5 8 14 3q4 -2 4.5 -6.5t-1.5 -8.5q-11 -16 -22 -27q-10 -10 -22 -16t-24 -1q-39 6 -57.5 24t-23.5 43.5t0.5 56t15 62t19.5 61.5t14 54q3 14 -7 15t-23.5 -4t-26.5 -12
t-16 -10q-6 -30 -13.5 -63.5t-15.5 -65t-15.5 -58.5t-12.5 -42q-5 -16 -12.5 -22.5t-17.5 -8t-21.5 1.5t-22.5 7q-5 0 -9 4q-3 3 -5 9.5t0 19.5q1 9 6.5 35t12.5 62t16 79.5t18 87.5t18 85.5t16 73t11.5 51t5.5 19.5z" />
    <glyph glyph-name="L" unicode="L" horiz-adv-x="285" 
d="M146 480q11 29 30 52t41 37t43.5 17.5t37 -6.5t21 -35t-3.5 -68q-2 -4 -6 -7t-7 -3q-5 1 -7.5 6t-0.5 10q6 30 3.5 48.5t-10 23.5t-17.5 -5t-18 -37q-18 -87 -33 -160q-6 -31 -13 -62.5t-13 -59t-10.5 -48t-6.5 -30.5q-3 -17 -9.5 -36t-14.5 -36q19 -20 41 -40t46 -33
t49 -15.5t48 12.5q4 2 8.5 0.5t6.5 -6.5q2 -4 1 -9t-4 -7q-28 -18 -56 -16t-55 16t-51.5 35.5t-44.5 41.5q-12 -19 -25 -32.5t-28 -18.5q-19 -7 -34.5 -2.5t-27 16t-18 28t-6.5 34.5q0 24 15.5 40.5t38.5 16.5h8t8 -2q3 15 8.5 43t12.5 62t14.5 70.5t14.5 69.5t13.5 58
t10.5 37zM67 118q-4 1 -11 1q-16 0 -24 -10.5t-9.5 -23.5t2 -23.5t10 -10.5t15 14.5t17.5 52.5z" />
    <glyph glyph-name="M" unicode="M" horiz-adv-x="545" 
d="M274 181q-33 12 -41 41.5t-3.5 65t15.5 72.5t17 64q-19 -13 -38.5 -32.5t-36.5 -39.5t-31 -39t-22 -31q-8 -18 -15.5 -36.5t-16.5 -42t-20 -54.5t-26 -74q-4 -11 -8 -17t-8 -5q-27 5 -34 34.5t-1 72t21 93t32 99t33 90t24 64.5q8 22 30 32.5t45 2.5q22 -10 32 -32t1 -46
q-14 -29 -24.5 -51t-20.5 -39q12 14 32.5 35t44 37.5t47.5 23.5t44 -6q27 -17 27 -50l25.5 25.5t27.5 24.5t29 18.5t29 7.5q24 2 42.5 -14.5t19.5 -42.5q-3 -9 -12.5 -35.5t-23 -63.5t-28 -81t-27 -87.5t-20 -83t-7.5 -67.5t10.5 -41.5t35.5 -4.5q7 4 13 -7q1 -4 -1 -7.5
t-7 -4.5q-17 -6 -31.5 -3.5t-27 11t-22 21t-14.5 25.5q-23 51 -21 106t15 111t29 110.5t21 104.5q-41 -38 -63 -77.5t-35.5 -75t-25 -62.5t-30.5 -39z" />
    <glyph glyph-name="N" unicode="N" horiz-adv-x="428" 
d="M46 77q-4 -10 -6.5 -12.5t-9.5 -8.5q-20 21 -23.5 56t2.5 77t20 88t29.5 88.5t29.5 79t22 58.5q9 22 34.5 32.5t48.5 2.5q25 -8 35.5 -31t2.5 -46q-12 -22 -22 -39.5t-19.5 -34.5t-19 -34.5t-20.5 -38.5q16 20 39.5 49.5t51 56.5t57.5 47t59 21q26 1 45.5 -16t21.5 -42
q-3 -12 -20 -53.5t-37.5 -96.5t-40 -114t-27 -106.5t1 -73.5t44.5 -15q11 4 15 -7q3 -9 -8 -14q-18 -6 -34.5 -3t-30 11.5t-23.5 21t-15 25.5q-18 34 -22 71t0.5 74.5t14.5 75.5t21 76q6 16 14.5 41.5t16 48.5t11 38.5t-1.5 11.5q-51 -43 -89.5 -85t-68.5 -85.5t-54 -91.5
t-45 -103z" />
    <glyph glyph-name="O" unicode="O" horiz-adv-x="368" 
d="M157 594q19 -2 35 -8q13 -5 24 -16.5t12 -31.5q0 -20 -15 -45t-35 -58t-38.5 -77t-25.5 -102q-10 -85 -3 -132.5t24 -64.5t42 -7t51 39t50.5 73.5t41.5 97t23 110t-4 112.5q-4 22 -16.5 34t-26.5 13.5t-28 -8.5t-21 -33q-5 -15 -7.5 -31.5t-0.5 -32.5q2 -12 -9 -15
q-10 0 -13 11q-6 40 8 77q11 31 31.5 44t42 10.5t39.5 -19.5t24 -46q5 -28 3 -73.5t-12.5 -97.5t-28.5 -104.5t-43.5 -94.5t-58.5 -68t-74 -24q-51 1 -82.5 24t-47.5 61t-17.5 87t6.5 100t24.5 101.5t37 91.5t43.5 68.5t45 34.5z" />
    <glyph glyph-name="P" unicode="P" horiz-adv-x="391" 
d="M90 547q19 7 37.5 14t33 7t22.5 -11.5t7 -40.5q0 -6 -3 -22t-7.5 -39t-10.5 -52.5t-13 -60.5q10 19 28 50t40 61.5t47 55.5t49 32q19 7 40.5 8t27.5 -15q4 -9 3 -31.5t-5.5 -52.5t-12.5 -63.5t-18.5 -64.5t-22 -56t-22.5 -38q-18 -20 -42 -29.5t-46.5 -7t-40 17.5
t-22.5 43q-2 10 8 15q5 0 9 -3t4 -8q2 -8 6 -14q3 -6 8 -11.5t13 -10.5q10 -1 28 27t34.5 71.5t27 95.5t6.5 99q-21 -14 -45 -46.5t-46.5 -70t-41.5 -74t-31 -59.5q-8 -40 -17 -81t-16.5 -76t-13.5 -59.5t-7 -31.5q-2 -14 -14 -14t-26 6t-26.5 15t-16.5 13t-0.5 38t11 83.5
t18.5 108.5t21 111.5t18.5 92.5t11.5 53l2 12q1 5 2.5 8.5t3.5 4.5z" />
    <glyph glyph-name="Q" unicode="Q" horiz-adv-x="368" 
d="M159 590q19 -2 35 -8q14 -5 25 -16.5t12 -31.5q0 -20 -15.5 -44.5t-35.5 -57.5t-38.5 -76.5t-25.5 -101.5q-10 -86 -3 -133.5t24.5 -64.5t42.5 -6.5t51 39.5q-23 61 -29.5 125.5t-4.5 120.5q3 25 5.5 56.5t10 62t21 55t38.5 36.5q20 9 36 6.5t27 -12t18.5 -24.5t11.5 -32
q6 -30 2.5 -80.5t-16.5 -107.5t-34.5 -112.5t-51.5 -94.5q19 -76 90 -120q4 -2 4.5 -7t-1.5 -9q-2 -3 -7 -4t-9 1q-35 23 -59 52t-41 63q-41 -43 -92 -40q-51 1 -82.5 24t-47 61t-17.5 86.5t6 99.5t24.5 101t37 91t43.5 68.5t45 34.5zM257 452q0 -12 -4 -46.5t-6.5 -81
t-1 -100t10.5 -102.5q22 32 41.5 74t32 89t16 97t-5.5 98q-6 32 -19.5 42.5t-27 4.5t-24 -26t-12.5 -49z" />
    <glyph glyph-name="R" unicode="R" horiz-adv-x="373" 
d="M84 580q19 7 36.5 13.5t31.5 6.5t22 -11t7 -39q0 -5 -3 -20t-8 -37t-11 -49.5t-12 -57.5q10 18 28 48.5t40 61.5t46.5 54.5t46.5 26.5q32 9 47.5 -13.5t17 -61.5t-9.5 -86.5t-32 -88t-51.5 -65.5t-66.5 -19q11 -4 21 -10.5t15 -21.5q3 -10 3 -28.5t0.5 -41t2.5 -46
t8.5 -43t19.5 -33t35 -15.5q13 -4 13 -12q-3 -11 -14 -11q-49 8 -76 22.5t-39 33t-13.5 40t0.5 45t3 48t-6 48.5q-11 20 -37 20q-7 1 -9 6t-0.5 10.5t7 9.5t14.5 3q29 5 53.5 31.5t42.5 61.5t28.5 72t11.5 63t-8 34.5t-30 -13t-54.5 -80t-81.5 -166.5q-17 -75 -28 -119
t-13 -63q-1 -10 -11.5 -10.5t-24 4t-26 11t-16.5 10.5q-5 3 -2 34.5t10 78t16.5 101t19 103.5t17 86.5t10.5 50.5q1 6 3 11q4 11 6 12z" />
    <glyph glyph-name="S" unicode="S" horiz-adv-x="288" 
d="M179 589q26 2 48.5 -4.5t37.5 -24.5q13 -18 17.5 -40t2.5 -44t-10 -43t-20 -37q-6 -8 -16 -3q-3 2 -4 7t1 8q10 13 17.5 31.5t9.5 38t-2.5 38.5t-17.5 33q-21 18 -40 11t-32 -28t-16 -50t9 -55q13 -28 29.5 -73t29 -95.5t16 -100.5t-10 -87.5t-48 -57t-99.5 -8.5
q-10 3 -22.5 9.5t-24 17.5t-20 27t-11.5 38q-4 29 10.5 53t32.5 41q21 19 50 35q5 3 9 1t7 -6q5 -9 -4 -15q-53 -27 -70.5 -57t-14 -54.5t21.5 -38.5t38.5 -9t36 34t12.5 91q-2 31 -13.5 72.5t-23.5 86t-20 88.5t-2 80t30 60.5t76 29.5z" />
    <glyph glyph-name="T" unicode="T" horiz-adv-x="242" 
d="M206 539q37 5 74.5 10.5t71.5 9.5t63 6t49 2q11 -4 11 -12q0 -10 -11 -10q-20 0 -47.5 -2t-60 -5.5t-68 -8.5t-71.5 -11q-2 -21 -10 -64.5t-19 -98.5t-24 -113.5t-24.5 -108.5t-20.5 -85.5t-12 -42.5q0 -2 -3 -3q-2 -1 -6 -2t-10 1q-3 0 -14.5 7t-23.5 19.5t-21.5 30.5
t-8.5 41q0 14 6 46t14.5 73t19 86t20 85t17 70.5t10.5 41.5q-49 -9 -79.5 -15t-32.5 -6q-5 -1 -8.5 1.5t-3.5 7.5q-2 11 8 13q1 0 59 10.5t156 26.5z" />
    <glyph glyph-name="U" unicode="U" horiz-adv-x="420" 
d="M91 561q5 4 16 2.5t23 -5.5t22.5 -8t14.5 -5q3 -2 5 -5q4 -5 2 -16q-1 -3 -4.5 -20t-8.5 -43.5t-11.5 -59t-13.5 -66.5q-16 -79 -36 -178q-9 -46 -7 -63.5t11 -15.5t23.5 20.5t31.5 45t34.5 58t32 59t25 48.5t12.5 26q5 9 12.5 27.5t15.5 40t15.5 44t14 41t11 31
t5.5 12.5q4 2 9 3.5t10 -0.5q3 -2 13 -5t21 -6l28 -8q2 -1 4 -4q3 -5 3 -16q-1 -3 -4.5 -20.5t-9.5 -43.5t-13 -58.5t-14 -66.5q-17 -79 -38 -178q-3 -20 -9 -46.5t-5 -45t13.5 -21t44.5 24.5q3 4 8 3t7 -4q3 -4 3 -8.5t-5 -7.5q-12 -10 -29 -18t-35.5 -11.5t-36.5 -0.5
t-30 15q-17 16 -24 44.5t-7 65.5t6 79t15 84q-16 -30 -34 -61.5t-35 -59.5t-32 -50t-25 -32q-9 -9 -22.5 -17t-28.5 -11t-29.5 -1t-25.5 13q-17 17 -23.5 47.5t-5.5 68t7.5 80.5t16 85.5t20.5 81t21 68.5t17 48.5t8 19.5z" />
    <glyph glyph-name="V" unicode="V" horiz-adv-x="348" 
d="M39 549q22 2 41 -1q16 -2 31 -9t20 -23q4 -17 4.5 -42.5t-1.5 -53t-5 -52.5t-4 -40q-1 -8 -3 -28.5t-5 -47.5t-6 -58t-5.5 -59t-4 -51.5t-0.5 -35.5q0 -3 1 -8.5t3 -10t6.5 -6t10.5 4.5q15 13 32 44t34.5 72.5t35 89t34.5 94.5q15 42 29 80t26.5 68t24 49.5t21.5 24.5
t16 -4q4 -10 -6 -15q-7 -3 -16.5 -21.5t-21 -47.5t-25 -65.5t-27.5 -75.5q-17 -48 -35 -97t-36 -91.5t-36 -74.5t-35 -46q-20 -17 -40.5 -12t-38 21t-31 38t-18.5 40t-6.5 47.5t-0.5 64.5t4.5 73.5t7.5 76.5q10 88 25 188z" />
    <glyph glyph-name="W" unicode="W" horiz-adv-x="491" 
d="M40 554q23 2 42 -2q17 -3 32 -10.5t20 -23.5q4 -16 4.5 -43t-1 -55.5t-4.5 -53.5t-4 -38q-1 -10 -3.5 -31t-6 -48.5t-6.5 -58t-5.5 -59t-3.5 -52t0 -36.5q0 -3 0.5 -8.5t3 -10t6.5 -5.5t11 4q15 13 31 44.5t33 73t34.5 89t34.5 94.5q1 4 9 3.5t16 -5.5t13.5 -15.5
t2.5 -25.5q-11 -58 -19 -117.5t-5 -120.5q1 -3 2 -8.5t3.5 -10t6.5 -5.5t10 4q15 14 32 45.5t35 73.5t36 91t35 97q15 42 29.5 80t27.5 69t24.5 51t21.5 26q4 2 8.5 0.5t5.5 -6.5q4 -4 2.5 -9t-5.5 -7q-7 -3 -17 -22t-21.5 -48t-25 -66t-28.5 -77q-18 -48 -36.5 -97.5
t-37 -92.5t-36.5 -76t-36 -48q-19 -17 -40.5 -12t-38 23t-24 46t0.5 58q-17 -40 -35 -70.5t-34 -44.5q-20 -17 -40.5 -12t-38.5 21.5t-31 39t-18 40.5q-6 19 -7.5 48.5t-0.5 65t4 75t7 77.5q10 90 25 192z" />
    <glyph glyph-name="X" unicode="X" horiz-adv-x="343" 
d="M198 528q2 -17 8 -62.5t15 -105.5q35 55 62 97.5t36 62.5q1 5 5.5 7t7.5 0q5 -2 6.5 -7t-0.5 -10q-5 -11 -15.5 -29t-25.5 -42t-33.5 -52t-39.5 -57q7 -48 14 -96.5t12.5 -87.5t9.5 -65t6 -29q3 -12 10 -16t15.5 -3.5t18 4t18.5 7.5q4 3 8 1t6 -7q2 -3 0.5 -7.5
t-6.5 -6.5q-38 -18 -70 -11.5t-56.5 30t-41 58t-24.5 72.5q-2 7 -3.5 14.5t-3.5 15.5q-26 -38 -49.5 -71t-40.5 -58q-20 -29 -38 -54q-4 -3 -8.5 -4t-7.5 1q-8 6 -2 17q20 27 43 59q20 27 44.5 63t52.5 76q-11 56 -19 107.5t-14 91.5q-7 47 -13 88q-3 14 -10.5 11.5t-16 -13
t-15 -23t-8.5 -18.5q-2 -5 -6 -7t-7 -1q-5 2 -7 6.5t-1 8.5q7 24 23 41t36 27.5t41.5 14.5t39.5 1t30 -13t14 -26z" />
    <glyph glyph-name="Y" unicode="Y" horiz-adv-x="329" 
d="M60 569q25 5 45 8q17 2 33 0.5t21 -10.5q4 -7 0 -30t-11 -53t-15 -61t-11 -53.5t0 -32.5t18 4q13 11 29 30t32.5 40.5t31 43t25.5 37.5l3 13q2 10 5 19q2 8 5.5 14t8.5 8q22 10 40 16q16 5 31.5 7.5t22.5 -2.5q6 -5 8 -13.5t1 -18t-3 -19.5t-3 -19q-5 -24 -16.5 -75
t-29.5 -112.5t-41.5 -124t-53 -109t-65 -68t-75.5 -0.5q-22 12 -32 27t-11 32t5.5 36t18.5 37q13 20 31 41t37 39.5t36 34.5t28 26q10 41 19.5 80.5t16.5 71.5q-12 -17 -36.5 -47.5t-53.5 -58.5t-60 -45t-57 -6q-9 4 -17 12.5t-14 20t-8.5 25.5t0.5 30q2 16 9 48t16 64.5
t18.5 59.5t17.5 33zM202 243q-26 -23 -56 -54t-50 -62q-9 -14 -15 -27.5t-6 -26.5t7.5 -24.5t24.5 -20.5q14 -8 26 3t22 33t18 50t14 54.5t9.5 47t5.5 27.5z" />
    <glyph glyph-name="Z" unicode="Z" horiz-adv-x="398" 
d="M393 487q-10 -25 -45 -69.5t-77 -96.5l34 3q4 0 7.5 -3t3.5 -8q2 -5 -1.5 -8.5t-8.5 -3.5l-55 -5q-40 -49 -76 -96.5t-54 -84t-10 -57t56 -15.5q20 2 42 7.5t40 18.5q9 4 16 -3q3 -5 2 -10t-6 -7q-18 -12 -48 -20.5t-63 -12t-65.5 -1t-56 14t-34 33t0.5 54.5
q13 36 37.5 79.5t54.5 85.5l-44 -2q-9 0 -12 11q0 4 3 7.5t8 3.5l61 6q22 31 44.5 59.5t43 51.5t36.5 39t25 24q16 14 13 24.5t-18.5 15.5t-40 5.5t-51.5 -4t-52 -14.5t-42 -25q-3 -4 -8.5 -4t-7.5 4q-9 9 0 16q16 14 50.5 26t76 19t85 8t76.5 -5t51 -21t9 -40z" />
    <glyph glyph-name="bracketleft" unicode="[" horiz-adv-x="310" 
d="M157 9q-1 -4 -5 -6.5t-16.5 -3.5t-34.5 0.5t-59 5.5q-9 1 -11 11t-1 18q10 109 38 217.5t58 214.5q8 25 34 27q22 2 43.5 3t43.5 2q9 0 11 -4t-1.5 -9t-12 -9.5t-20.5 -4.5q-11 -1 -17.5 -1.5t-10.5 -3.5t-6.5 -8.5t-4.5 -15.5q-9 -54 -21.5 -107t-25 -105.5
t-24.5 -105.5t-21 -107q9 0 20 0.5t20.5 0t16 -2t7.5 -6.5z" />
    <glyph glyph-name="backslash" unicode="\" horiz-adv-x="218" 
d="M176 17q-11 -4 -20 -6t-13 12q-30 111 -57.5 223t-59.5 221q-2 12 2 16t12 8t13.5 2.5t9.5 -7t6 -12t4 -11.5q35 -102 62 -209.5t50 -211.5q2 -7 1.5 -14t-10.5 -11z" />
    <glyph glyph-name="bracketright" unicode="]" horiz-adv-x="310" 
d="M152 484q1 4 5 6.5t16.5 3.5t34.5 -0.5t59 -5.5q9 -1 11 -11t1 -18q-10 -109 -38 -217.5t-58 -214.5q-8 -25 -34 -27q-22 -2 -43.5 -3t-43.5 -2q-9 0 -11 4t1.5 9t12 9.5t20.5 4.5q21 1 28 5t11 24q9 54 21.5 107t25 105.5t24.5 105.5t21 107q-9 0 -20 -0.5t-20.5 0
t-16 2t-7.5 6.5z" />
    <glyph glyph-name="asciicircum" unicode="^" horiz-adv-x="269" 
d="M47 493q-2 12 0.5 21.5t6.5 16.5q20 30 40 55.5t43 42.5q4 2 7.5 -0.5t7.5 -5.5q21 -22 41 -50t38 -63q3 -5 6 -12.5t2 -20.5q0 -22 -6.5 -23.5t-16.5 9t-21.5 28.5t-23 34.5t-20.5 26.5t-13 5q-14 -20 -35.5 -40.5t-36.5 -39.5q-6 0 -11 1.5t-8 14.5z" />
    <glyph glyph-name="underscore" unicode="_" 
d="M40 -28q-4 0 -7.5 5t-3.5 10q0 13 10 13l144 3q9 0 9 -13q0 -12 -9 -12z" />
    <glyph glyph-name="a" unicode="a" horiz-adv-x="307" 
d="M202 41q-2 -2 -1.5 -6t4.5 -6q8 -7 19.5 1.5t25 25t27.5 39t25.5 44t20 38t11.5 22.5q4 8 14 6q11 -5 6 -16q-20 -41 -40 -76q-17 -30 -37.5 -59.5t-40.5 -42.5q-18 -13 -42.5 -14.5t-41.5 15.5q-13 15 -16 37.5t-1 48.5q-18 -13 -36 -23t-35 -15q-22 -6 -38.5 2.5
t-24.5 37.5q-7 26 -1.5 51t18.5 46q17 29 41 48.5t44 27.5q23 7 43 1t31 -14l5 13q1 4 8 5t15 -0.5t15 -4t9 -3.5q3 -1 10 -4t14.5 -7t12 -9t3.5 -10q-20 -50 -35 -100.5t-32 -98.5zM138 126q5 30 14 60t17 53l-12.5 7.5t-16.5 6.5q-9 1 -19.5 -11.5t-20 -31t-17.5 -40
t-10.5 -39.5t1 -28.5t15.5 -7.5q12 6 24 14.5t25 16.5z" />
    <glyph glyph-name="b" unicode="b" horiz-adv-x="346" 
d="M118 265q5 5 12 10t12 10q26 27 48 56t36 58q15 23 19.5 42t-2.5 29v2q-17 15 -32.5 8t-28.5 -28t-23.5 -50t-18.5 -57.5t-13.5 -50.5t-8.5 -29zM109 224q-3 -8 -5 -15t-6 -13q31 29 61.5 28t54.5 -41q11 -18 15.5 -42t2.5 -49q37 17 73 42t65 67q3 4 7.5 4.5t7.5 -1.5
q5 -2 6 -6.5t-1 -7.5q-34 -49 -77 -77.5t-85 -46.5q-4 -16 -13 -33t-22.5 -31t-30.5 -23t-35 -9q-25 -2 -34 4t-7.5 15.5t12.5 21.5t26 24t32 22t31 15q3 10 6 32t0.5 44.5t-12 39t-30.5 14.5q-26 -3 -42 -27.5t-24 -56t-10.5 -63.5t-2.5 -49q0 -16 -11.5 -28.5t-28.5 -12.5
q-16 0 -31.5 13t-15.5 30q4 136 32.5 231.5t67 154.5t79 84.5t68.5 22.5t35 -32.5t-21 -80.5q-15 -29 -38 -59.5t-51 -57.5q-11 -13 -23.5 -24.5t-24.5 -22.5zM185 52q-26 -9 -41.5 -17t-23.5 -14.5t-11 -12t-4 -9.5q-2 -7 6.5 -8.5t21.5 4t27 19.5t25 38z" />
    <glyph glyph-name="c" unicode="c" horiz-adv-x="221" 
d="M114 64q18 13 38 32.5t37.5 39.5t31 37.5t18.5 25.5q4 11 15 5q3 -2 4.5 -6t-0.5 -8q-6 -12 -24.5 -35.5t-42.5 -49t-50.5 -47.5t-49.5 -30q-41 -16 -62.5 5t-25.5 61q-2 31 1.5 67.5t16 67.5t36.5 51.5t62 18.5q22 -1 36.5 -15.5t18 -35t-5 -44.5t-32.5 -43
q-4 -3 -8.5 -2t-6.5 6t7 15.5t17.5 23.5t12.5 26.5t-6 24.5q-16 14 -30 2t-24.5 -37.5t-16.5 -57.5t-4.5 -58t10 -39t27.5 -1z" />
    <glyph glyph-name="d" unicode="d" horiz-adv-x="338" 
d="M74 92q26 12 42.5 34.5t30.5 45.5q5 30 11.5 60t13.5 60q-30 0 -50.5 -15.5t-34 -38.5t-20 -49t-7.5 -48.5t3 -36.5t11 -12zM231 30q18 14 39.5 41.5t39.5 56.5q21 33 42 71q7 9 14.5 4t4.5 -15l-7 -12.5t-18.5 -31.5t-26.5 -41.5t-31.5 -43t-32.5 -36t-30 -20.5
q-29 -11 -46.5 -0.5t-26.5 31t-11 46.5t0 47q-30 -37 -58.5 -51t-48.5 -6t-29.5 37t-1.5 78q6 34 19 61t34 44t51 23.5t70 -1.5q6 27 16.5 70t28.5 83t46 65t69 16q16 -3 24.5 -12.5t11.5 -22t2 -26.5t-4 -26q-5 -20 -16 -40.5t-27 -39.5t-35 -35t-38 -26
q-3 -11 -11.5 -40.5t-17.5 -66t-16.5 -75t-9 -66.5t5 -41t25.5 1zM265 349q15 11 35 32t35 45.5t20 48.5t-9 41q-20 12 -32 -3t-20 -42.5t-14.5 -61.5t-14.5 -60z" />
    <glyph glyph-name="e" unicode="e" horiz-adv-x="233" 
d="M178 234q-3 -15 -12.5 -26t-22.5 -19t-28 -12t-29 -4q-5 -8 -9.5 -20t-7 -25.5t-3.5 -26.5t0 -23q4 -18 16 -19.5t28.5 7.5t35.5 25.5t36.5 35t32 35.5t22.5 27q4 4 7 8.5t7 8.5t8 5t10 -2q6 -8 0 -15q-9 -11 -23 -30t-32 -40.5t-39.5 -41.5t-44.5 -32t-47 -13t-48 16
t-31 45t-1.5 59t22 59t39.5 46t50 20t53 -20q11 -8 11 -28zM158 248q-9 3 -18.5 -2.5t-17.5 -14.5t-14.5 -19t-10.5 -17q9 0 23 3.5t25.5 10t16.5 16.5t-4 23z" />
    <glyph glyph-name="f" unicode="f" horiz-adv-x="227" 
d="M95 217q14 11 27.5 25t26.5 29q13 16 27 39t23 47t11 46.5t-8 37.5q-15 0 -28 -14.5t-24 -37t-20 -50t-16 -52t-11.5 -44t-7.5 -26.5zM-1 180q2 16 10 46.5t21 65.5t31 70t41 60.5t50.5 37.5t59.5 1q18 -11 18.5 -37.5t-9 -57.5t-25.5 -61t-30 -48q-37 -47 -79 -72v-4
q8 -7 21 -15t31 -10.5t41 3t52 26.5q4 3 9 2.5t7 -4.5q3 -4 2 -8.5t-4 -6.5q-30 -22 -55 -29.5t-45.5 -6t-36.5 9t-27 15.5q-9 -41 -22.5 -88t-32 -89t-43.5 -73t-57 -41q-33 -8 -52.5 11t-19.5 52q0 5 1.5 13t4.5 16.5t7.5 16.5t10.5 12q5 2 7 0q3 -1 5 -5q1 -3 -2 -8
q-16 -24 -14 -48q1 -25 12.5 -31t25 0t26 21t17.5 32z" />
    <glyph glyph-name="g" unicode="g" horiz-adv-x="347" 
d="M14 -100q12 23 48.5 66.5t89.5 90.5l5 14q6 26 11.5 51t11.5 50q-14 -16 -32.5 -34.5t-37.5 -30.5q-11 -6 -22.5 -11t-24.5 -4q-27 2 -41.5 20t-14.5 44q-1 27 7 51t23.5 42t38.5 27.5t52 5.5q8 -1 16 -4.5t14 -9.5t8 -14t-1 -18q-2 -5 -5.5 -10.5t-9.5 -1.5q-3 3 0 10
q5 5 6.5 13.5t-7.5 10.5q-17 4 -35 -17t-30 -48.5t-15.5 -51.5t7.5 -25q5 1 10 3.5t12 6.5q20 13 35 26t26.5 27t21 30t19.5 35q1 4 4.5 16t8 23.5t10.5 19.5t12 6q17 -5 28.5 -24t11.5 -36q-4 -30 -10.5 -58.5t-14.5 -56.5q29 20 61 37t64 31q5 2 9 0t5 -6q2 -5 0.5 -9
t-6.5 -6q-38 -15 -74 -36t-69 -44q-10 -35 -20.5 -71.5t-25 -71.5t-33.5 -67.5t-45 -58.5q-17 -17 -33.5 -30t-38.5 -13q-20 -1 -30 11.5t-12.5 30t1.5 36.5t11 33zM30 -181q19 15 35.5 38t29.5 50t23.5 55t18.5 52q-21 -20 -46.5 -46t-45 -52.5t-27 -51t8.5 -42.5z" />
    <glyph glyph-name="h" unicode="h" horiz-adv-x="313" 
d="M117 64q5 34 14 66.5t19 64.5q-11 -4 -23.5 -14t-24.5 -23t-22 -26.5t-16 -23.5q-6 -34 -12.5 -69t-10.5 -69q-2 -13 -7.5 -18.5t-16.5 2.5t-16.5 24t-7.5 30q-5 60 2.5 127.5t21.5 126.5q14 58 35 117.5t60 105.5q15 18 34.5 34.5t41.5 16.5q18 0 28 -11.5t14 -28
t2 -34.5t-6 -32q-6 -18 -22 -44.5t-35.5 -54t-40 -53t-36.5 -42.5l-1 -2q-5 -19 -9 -38.5t-9 -38.5q14 16 28.5 29.5t24.5 21.5q17 11 35 10.5t32 -17.5q8 -10 12.5 -23.5t4.5 -26.5q-2 -21 -9.5 -51t-12.5 -53q-2 -12 5 -12.5t22 12.5q17 14 37.5 42t38 55.5t29.5 49
l12 21.5q2 3 6.5 4.5t7.5 -0.5q4 -2 5 -6.5t-2 -9.5q-21 -38 -43 -71q-19 -29 -40.5 -57.5t-38.5 -43.5q-18 -15 -38 -24.5t-36.5 -8t-27 16t-8.5 49.5zM104 282q13 15 29 36.5t31 44t26.5 43t15.5 32.5q8 23 6 37.5t-4 21.5q-8 6 -18 -5.5t-21 -33.5t-22 -49.5t-20 -53.5
t-15 -46.5t-8 -26.5z" />
    <glyph glyph-name="i" unicode="i" horiz-adv-x="174" 
d="M12 227q16 5 30 9q12 3 23 3.5t16 -3.5q4 -4 2.5 -16.5t-5 -27t-8.5 -28t-7 -19.5q-3 -9 -9.5 -29t-9 -37t2.5 -24.5t25 8.5q16 13 36.5 34t40.5 42q22 24 46 51q3 4 7.5 4.5t7.5 -3.5q4 -2 4.5 -6.5t-3.5 -9.5q-24 -26 -47 -51q-20 -21 -41 -43t-38 -35
q-9 -8 -25.5 -17.5t-30.5 -7.5q-15 0 -27 7t-19.5 18t-10.5 25t0 28q4 27 10.5 50.5t13.5 40.5q8 20 16 37zM71 326q10 0 18.5 -8t8.5 -19t-8.5 -18.5t-18.5 -7.5q-11 0 -19 7.5t-8 18.5t8 19t19 8z" />
    <glyph glyph-name="j" unicode="j" horiz-adv-x="167" 
d="M6 216q18 8 33 13q13 5 25 6.5t17 -4.5q-2 -21 -5 -44q-2 -20 -5.5 -45t-6.5 -51q15 13 27.5 24t26 22.5t30 24t38.5 29.5q3 3 7.5 2t7.5 -5q3 -3 2 -7.5t-5 -7.5q-25 -19 -44 -34t-34.5 -28.5t-30 -26t-30.5 -27.5q-3 -19 -7 -46t-10.5 -57.5t-16 -61t-25 -55t-36.5 -40
t-50 -16.5q-18 1 -26 20t-9 42t23.5 68.5t78.5 99.5q8 54 13.5 107t11.5 98zM67 328q11 0 19 -8t8 -20t-8 -19.5t-19 -7.5q-12 0 -20.5 7.5t-8.5 19.5t8.5 20t20.5 8zM-85 -193q21 33 35 75t24 89q-44 -49 -59 -80t-14 -48t5 -25t9 -11z" />
    <glyph glyph-name="k" unicode="k" horiz-adv-x="248" 
d="M165 229q-3 -2 -13 -12.5t-21 -22.5t-18.5 -20.5t-4.5 -5.5q18 18 32.5 17.5t23 -12.5t10 -30.5t-4.5 -35.5q-2 -5 -6 -18t-7 -27.5t-3.5 -27t5.5 -15.5q5 2 13 8t22 23q13 17 26.5 37t24 36.5t17 27.5l6.5 11q4 11 15 5q4 -2 5 -6.5t-1 -8.5l-24 -40q-11 -17 -25 -38
t-28 -38q-12 -15 -20 -22.5t-13 -10.5t-9.5 -3.5t-8.5 -1.5q-33 0 -45 20.5t-11.5 48t8.5 56t14 45.5q-15 -8 -28.5 -22t-25.5 -30t-21 -31.5t-15 -27.5l-3 -6q-2 -6 -4 -15t-2 -15q-3 -10 -8.5 -14t-13.5 2q-11 6 -14 18.5t-5 25.5q0 38 6 78t14 78q14 65 39.5 126.5
t70.5 109.5q9 9 20.5 19t24 16t25 6.5t24.5 -9.5q15 -17 13 -43.5t-15 -57t-34 -63t-42.5 -62t-40.5 -52.5t-29 -34l-20 -74q21 40 52 83t68 70q4 3 11 6t14 4t12 -0.5t5 -8.5q0 -8 -4 -10.5t-10 -2.5h-12.5t-10.5 -3zM83 241q-4 -11 -7 -22.5t-8 -22.5q7 8 22 27t33.5 44
t36.5 53.5t30 54.5t15.5 47.5t-7.5 32.5q-5 4 -12.5 -2t-15 -16.5t-14 -22.5t-10.5 -20q-16 -32 -33.5 -73.5t-29.5 -79.5z" />
    <glyph glyph-name="l" unicode="l" horiz-adv-x="233" 
d="M102 186q-8 -39 -14 -80t-3 -81q13 3 32 18t39 35.5t40 44t36 43.5t26 33t10 14q6 8 16 3q4 -2 5 -6.5t-2 -8.5l-13.5 -16.5t-33 -40t-42.5 -49t-41 -43.5q-20 -20 -46 -35.5t-49 -19t-40 9.5t-19 51q-2 29 2 70t12.5 87t21.5 94.5t30 91.5t38 78t45 55q11 9 27.5 15.5
t32.5 6t29 -8.5t16 -27q5 -20 -9.5 -68.5t-45.5 -110.5q-20 -37 -44.5 -76.5t-55.5 -78.5zM232 526q-7 4 -17.5 -13t-23 -45.5t-25 -64t-23 -68.5t-18.5 -59.5t-10 -35.5q20 29 36 57t30 55q5 9 16.5 33.5t22 52t15.5 52.5t-3 36z" />
    <glyph glyph-name="m" unicode="m" horiz-adv-x="407" 
d="M224 -47q-17 3 -23.5 11.5t-7.5 25.5q0 23 5 43.5t12 41.5q11 32 24.5 63.5t29.5 68.5q-11 -9 -21.5 -20.5t-20.5 -23.5t-18.5 -23t-13.5 -19q-4 -5 -6 -10t-5 -9t-8 -5.5t-15 0.5q-21 4 -25.5 20.5t-1 37t11 41.5t10.5 33l5 17q-13 -12 -27.5 -29t-27.5 -35t-23 -33
t-14 -22q-14 -50 -28.5 -65t-43.5 0q-8 5 -10.5 14.5t-1.5 20t3.5 20.5t4.5 17q5 18 9 33.5t7.5 29.5t7 29t7.5 33q3 9 4.5 14t5.5 6q6 2 18 7t24.5 9t21.5 4t9 -7l-25 -108q11 16 24.5 33t27.5 31t27.5 23.5t24.5 10.5q2 0 10.5 1t18.5 1.5t17.5 -0.5t6.5 -6l-30 -102
q18 20 34.5 38t33.5 29q4 2 12.5 4t18 4t19 3t15.5 1q5 0 3.5 -13.5t-5.5 -29.5t-8.5 -29.5t-4.5 -14.5q-3 -8 -9 -26t-13 -40t-13 -44.5t-9.5 -39.5t-2.5 -25t9 0q15 14 39 42.5t47 57.5q27 33 57 71q3 5 7.5 5t7.5 -4q9 -8 2 -15l-17.5 -21.5t-40.5 -50t-47.5 -57
t-39.5 -43.5q-19 -19 -35 -24.5t-40 -0.5z" />
    <glyph glyph-name="n" unicode="n" horiz-adv-x="361" 
d="M48 21q-3 -12 -15.5 -17t-26 -2t-24.5 14t-10 31q2 46 13 98t37 97q7 12 18 10.5t22.5 -10.5t21 -22.5t12.5 -26.5q13 11 27.5 22.5t28.5 22.5t27.5 19.5t23.5 13.5q14 7 27 3.5t22.5 -14t14.5 -25t4 -27.5q0 -6 -4.5 -20t-11 -32t-13.5 -38.5t-12 -38.5q0 -1 -1 -6.5
t0.5 -10.5t7.5 -5.5t20 9.5q21 20 43 43.5t40 44.5q21 25 41 49q8 8 15 2t2 -15l-9.5 -11.5t-24.5 -29t-34 -38.5t-39 -41t-39 -36t-33 -24q-23 -12 -38 -9t-23.5 14.5t-12 28.5t-3.5 34q0 22 5 44.5t13 44t18.5 43t19.5 42.5q-8 -6 -22 -16t-29 -22t-29 -24.5t-24 -22.5
q-5 -14 -12 -34.5t-14 -41.5t-12.5 -40t-7.5 -30z" />
    <glyph glyph-name="o" unicode="o" horiz-adv-x="260" 
d="M131 103q-27 11 -35 35.5t-6 50.5q1 12 4 26t9.5 25.5t16.5 19.5t25 10q26 1 34.5 -17t6.5 -43.5t-10 -52t-15 -41.5q25 -2 46.5 4.5t37 15.5t25.5 18t13 12h1q3 3 8 3t7 -3q9 -7 0 -14v-2q-3 -3 -14.5 -13.5t-30.5 -21t-44 -17.5t-56 -4l-2 1q-13 -23 -28 -44
q-16 -20 -36 -30.5t-39.5 -10.5t-37 12.5t-27.5 38.5q-5 12 -3 37.5t8.5 52.5t16 49.5t20.5 30.5q13 9 29.5 7.5t29.5 -5.5q3 -2 3.5 -10.5t-1 -20.5t-4 -25t-5.5 -23q-2 -9 -6.5 -25.5t-7.5 -34.5t-4 -33.5t3 -22.5t14 -2t29 29q7 8 12.5 17t11.5 19zM141 123q4 10 11 31
t11 42t1.5 36.5t-17.5 14.5q-11 -1 -17.5 -7.5t-10 -15.5t-5.5 -19t-2 -18q-2 -19 3.5 -37.5t25.5 -26.5z" />
    <glyph glyph-name="p" unicode="p" horiz-adv-x="345" 
d="M236 199q2 -29 -2.5 -63t-14.5 -62q21 8 39 16t35.5 19t34.5 26.5t35 39.5q2 4 7 4.5t9 -2.5q4 -2 4 -7t-2 -8q-21 -29 -42 -47t-42.5 -30.5t-43 -21t-44.5 -17.5q-4 -8 -14 -23t-23.5 -30.5t-29.5 -29t-30.5 -21t-26.5 -5.5t-19 19q-6 14 -1.5 27t14 24.5t23 20
t26.5 13.5l30 109q11 38 14 66t-8 30q-10 2 -20.5 -9t-21 -28.5t-20.5 -39t-18 -41.5q-10 -49 -20.5 -95.5t-18.5 -83.5q-5 -20 -11.5 -46.5t-18 -50.5t-28 -40.5t-40.5 -16.5q-2 0 -3.5 3.5t-1.5 6.5q2 28 7 70t12.5 90.5t16.5 99.5t18 96.5t18 81t16 54.5q5 14 16.5 11
t22.5 -15t19.5 -29.5t7.5 -31.5q0 -11 -1 -22.5t-3 -24.5q18 37 38.5 63.5t45.5 25.5q23 -2 40.5 -21.5t19.5 -53.5zM119 12q-17 -10 -22 -18q-12 -14 -13 -23t4 -8.5t14 12t17 37.5z" />
    <glyph glyph-name="q" unicode="q" horiz-adv-x="316" 
d="M262 231q-2 -11 -7.5 -24.5t-11.5 -27.5t-11.5 -27.5t-9.5 -23.5q-11 -24 -21.5 -47.5t-19.5 -49.5q11 4 27.5 13.5t36 26t42 41t45.5 60.5q6 8 17 4q6 -6 3 -14q-27 -42 -53.5 -70t-49.5 -46t-41.5 -27t-29.5 -12q17 -34 22.5 -74t-7.5 -76q-12 -30 -30.5 -46.5t-37 -18
t-34 13t-22.5 46.5q-6 33 -3 67.5t12 65.5q12 38 28 82t31 83q-17 -26 -40 -42t-44 -18.5t-36 12.5t-15 53q-1 31 12 53.5t31.5 36.5t40.5 19t40.5 1.5t29.5 -15.5t8 -32l-24 4q4 19 -6.5 18.5t-24.5 -14.5t-28 -38.5t-18 -52.5q0 -16 9 -17q13 -2 28.5 12.5t29.5 34
t25.5 39.5t16.5 29q7 11 15 24.5t18 22.5q10 10 19 8q16 -3 27.5 -22t10.5 -35zM124 -165q-2 -18 4 -17.5t15 9t18 20.5t11 18q8 20 8 49t-16 68q-12 -37 -25 -77.5t-15 -69.5z" />
    <glyph glyph-name="r" unicode="r" horiz-adv-x="291" 
d="M124 246q9 6 18 11q7 5 14 8.5t10 5.5q4 0 16.5 2t26 2.5t24 -0.5t10.5 -6q0 -4 -7 -20.5t-18 -39.5t-24.5 -49.5t-25.5 -50t-20.5 -41t-10.5 -23.5q-2 -5 -4.5 -15t-2.5 -18t4 -10.5t15 7.5q16 14 43 43.5t53 58.5t45 51.5l19 22.5q3 4 8 4t8 -3q8 -9 1 -16l-9.5 -10.5
t-24 -26.5t-32 -36t-35.5 -39.5t-34 -36.5t-26 -28q-24 -24 -49.5 -30t-45.5 2t-30 27.5t-3 46.5q5 18 15 42t21.5 48t23 46.5t19.5 39.5q-11 -7 -20.5 -16t-18.5 -17.5t-17 -15t-14 -7.5q-8 -2 -16 4t-14.5 15.5t-10.5 22t-3 23.5q2 18 12 39.5t29 60.5q18 4 33 7
q13 2 23 3t12 -3q2 -6 -3.5 -19.5t-13 -29t-14.5 -30t-7 -23.5q0 -6 1 -8.5t6.5 -1t15.5 8t28 18.5z" />
    <glyph glyph-name="s" unicode="s" horiz-adv-x="223" 
d="M128 24q-11 -26 -30 -46t-41 -34q-20 -12 -43.5 -18t-42.5 -1.5t-28.5 20.5t-1.5 48q6 20 36 40.5t72 44.5q-5 20 -15 38t-20.5 35t-17.5 35.5t-5 40.5q2 35 22 63.5t55 40.5q14 6 30 5t28 -7.5t19 -18.5t3 -28q-6 -17 -21.5 -30t-31.5 -22q-9 -3 -10.5 6t6.5 14t21.5 14
t15.5 18q2 3 -0.5 6t-6.5 5q-17 5 -28.5 -6.5t-16.5 -25.5q-2 -20 4 -37.5t15 -34l18 -33t15 -32.5q32 21 62 45t50 50q2 5 7 5t9 -2q8 -8 2 -16q-23 -30 -55.5 -55.5t-68.5 -47.5q5 -20 4 -41t-10 -38zM10 -40q20 15 31 42.5t11 52.5q-35 -20 -60 -37.5t-28 -29.5
q-5 -18 -2 -28t10 -13.5t17.5 0t20.5 13.5z" />
    <glyph glyph-name="t" unicode="t" horiz-adv-x="235" 
d="M83 492q5 6 18 10.5t28 8.5t27.5 5.5t16.5 1.5q8 -2 8 -8q0 -4 -1 -7l-8 -32q-4 -15 -8.5 -36t-10.5 -45l170 26q5 2 9 -1.5t4 -8.5q2 -10 -10 -12l-178 -27q-12 -49 -25 -103.5t-24 -101t-18.5 -79t-8.5 -36.5q-1 -12 2.5 -17.5t9.5 -6.5t13.5 2.5t14.5 9.5q14 10 37 36
t45 52t38.5 46.5l16.5 20.5q6 6 15 1q3 -2 3.5 -7t-2.5 -9q-29 -36 -55 -68q-23 -27 -46.5 -53.5t-38.5 -37.5q-23 -17 -47 -18t-43.5 12t-31.5 38.5t-11 60.5q1 14 5.5 40.5t12 59.5t16.5 70t18 72l-99 -15q-10 -2 -14 9q0 11 10 13l109 17q7 24 12.5 45.5t10.5 37.5
q5 18 10 34z" />
    <glyph glyph-name="u" unicode="u" horiz-adv-x="332" 
d="M170 275q3 7 14.5 11.5t25 6t26 1t15.5 -1.5q4 -1 6 -2.5t4 -3.5q2 -3 2 -5q-10 -53 -18 -97q-3 -19 -6.5 -37.5t-6.5 -34.5t-5 -27.5t-2 -15.5q0 -20 9.5 -18.5t23.5 16t31 37.5t31.5 44.5t24.5 37.5t10 17q6 9 16 6q3 -4 4.5 -8t-0.5 -9q-9 -18 -31 -51.5t-50.5 -66.5
t-60.5 -55.5t-63 -17.5q-15 2 -23 15.5t-10.5 34.5t-0.5 47t7 52q-5 -6 -14.5 -21t-21.5 -30.5t-24 -27t-21 -10.5q-11 1 -23 5.5t-22 13t-15.5 20.5t-3.5 27t5.5 38t6.5 44q4 25 7 51q19 5 36 9q14 3 27 4.5t16 -0.5q6 -3 5.5 -7.5t-1.5 -9.5q-2 -3 -5 -22.5t-6 -42.5
q-4 -26 -8 -58q2 -16 12.5 -8t23 25t23.5 35.5t14 23.5q5 23 9.5 40.5t6.5 25.5z" />
    <glyph glyph-name="v" unicode="v" horiz-adv-x="269" 
d="M78 2q-19 1 -32.5 10t-22.5 23t-14 30.5t-6 31.5q-1 12 -0.5 32t1 41t2 40t3.5 30q6 11 16.5 20t23.5 16t26 11.5t25 6.5q8 1 10.5 -2t2.5 -9t-1.5 -13.5t-2.5 -14.5q-4 -20 -8 -48t-7 -56t-6 -53t-4 -39q-2 -18 1 -23t8 -2t11 11.5t12 18.5t14 30t16.5 44t15.5 50t12 48
q4 20 7 33.5t5 20.5q1 1 4 2.5t7 2t7 0t3 -2.5q-1 -3 -4.5 -19.5t-7.5 -39t-6 -46.5t1 -40.5t12.5 -22.5t29.5 8q13 8 26.5 21.5t27.5 28.5q6 8 15 2q7 -9 0 -16q-28 -34 -57 -54q-26 -17 -45.5 -13.5t-25.5 34.5q-6 -28 -20 -53.5t-22 -37.5q-8 -14 -21.5 -28.5
t-31.5 -13.5z" />
    <glyph glyph-name="w" unicode="w" horiz-adv-x="389" 
d="M144 195q1 1 9.5 5.5t19 8.5t20 6t13.5 -1q9 -6 11 -16.5t0 -42.5q-5 -76 -3 -109t8 -35t15 20t18 56.5t18 74.5t15 73q4 30 8 53t5 23q9 9 17.5 10t12 -9.5t0 -34.5t-18.5 -67q-5 -14 -7 -26t0.5 -20t11.5 -10t26 6l13 6q6 3 17.5 10.5t34.5 32.5q8 8 16 1q8 -8 1 -16
q-24 -30 -42 -39l-28 -14q-3 -1 -11.5 -4.5t-19 -5.5t-20 -0.5t-13.5 9.5q-5 -18 -9.5 -36.5t-9.5 -37.5q-6 -19 -16 -42t-24.5 -40.5t-33.5 -23.5t-44 9q-19 11 -25.5 29.5t-6 40t4.5 43t7 39.5q-5 -9 -9.5 -16.5t-9.5 -14.5q-13 -23 -27 -34q-12 -11 -28 -11t-30 7
t-23.5 19t-8.5 25q1 10 2.5 33.5t3.5 49.5q2 29 3 64q21 11 39 19q15 7 30 12t20 3q1 0 2 -1q3 -3 3 -4q-1 -6 -4.5 -25t-7.5 -44t-7.5 -50t-3.5 -42t4.5 -21.5t15.5 12.5q2 4 9.5 18.5t15.5 31t14.5 30z" />
    <glyph glyph-name="x" unicode="x" horiz-adv-x="220" 
d="M34 226q14 12 27 18q11 5 22 6.5t16 -8.5q5 -7 8 -26.5t8 -43.5q13 20 20.5 36.5t15.5 24.5q6 8 15 1q4 -2 5 -6t-2 -8q-9 -9 -20 -31.5t-27 -48.5q4 -23 8 -46.5t10 -38t14.5 -15.5t22.5 21q9 17 20.5 39.5t21.5 43.5q11 25 23 50q4 9 15 7q4 -2 5.5 -6t-0.5 -9
q-12 -25 -23 -50q-10 -21 -21.5 -45t-20.5 -41q-13 -23 -33 -35t-40.5 -11.5t-37.5 13t-23 37.5q-25 -32 -49 -50t-41 -7q-10 7 -3 16q6 9 15 3q10 -6 29.5 14t42.5 51q-5 20 -9 42t-7 42t-5.5 35t-2.5 21v4q0 1 1 1z" />
    <glyph glyph-name="y" unicode="y" horiz-adv-x="368" 
d="M23 277q0 1 1 2q3 3 6 5q7 2 19 5t23.5 5.5t20.5 3.5t11 0q3 -4 0 -23t-8 -44t-10.5 -52t-7.5 -47.5t1.5 -30t15.5 0.5t35.5 43.5t61.5 99.5q1 5 2 13t5 11q2 1 13.5 4.5t25 7t24.5 6t13 2.5q7 0 6 -11q-1 -2 -4.5 -21t-9.5 -47.5t-13.5 -63t-15.5 -68.5q48 31 89 63.5
t64 59.5q2 4 6 4.5t7.5 -2t5 -6.5t-1.5 -8q-26 -32 -75 -70t-102 -72q-7 -32 -16 -70.5t-26.5 -75t-47 -66t-77.5 -41.5q-6 -2 -15 -3t-19 1.5t-18.5 10t-12.5 22.5q-8 26 3.5 53t31.5 51t45 44t45 33l15 9q11 42 20.5 84t17.5 78q-17 -26 -35 -51t-31 -36
q-28 -23 -52.5 -15t-45.5 34q-4 6 -7 13q-2 6 -3.5 14t0.5 19q2 9 4.5 29.5t6.5 40.5q4 24 9 52zM53 -187q9 2 19 19t20.5 41.5t20.5 53.5t18 56q-16 -10 -37 -26.5t-39 -36.5t-29 -43t-6 -47q3 -14 13.5 -16t19.5 -1z" />
    <glyph glyph-name="z" unicode="z" horiz-adv-x="215" 
d="M67 217q20 7 40.5 19.5t40 24t37.5 17.5t34 1q4 -2 0.5 -13t-8.5 -25q-6 -16 -15 -35q-15 -32 -29 -64q-13 -27 -27 -56.5t-25 -51.5h17h40t61 3q11 0 11 -11q1 -5 -2 -8t-7 -4q-13 -1 -33 -0.5t-41 0.5t-39 -2.5t-27 -9.5q-5 -5 -15.5 -3t-21 8.5t-18 16t-7.5 18.5
q0 7 7.5 26.5t18.5 44t23.5 50.5t23.5 46q-3 -2 -16.5 -7t-30.5 -10t-32 -8.5t-21 -0.5q-6 2 -7 13.5t0.5 25.5t5 26t5.5 16q19 9 35 16q14 6 25.5 9.5t14.5 0.5t1.5 -11t-4.5 -19t-7.5 -22.5t-7.5 -20.5z" />
    <glyph glyph-name="braceleft" unicode="{" horiz-adv-x="214" 
d="M189 500q-15 -2 -24.5 -27.5t-15.5 -58t-9 -63t-4 -42.5q-3 -13 -8 -22.5t-10 -16.5q-6 -8 -12 -15q4 -7 7 -15q5 -16 1 -38q-2 -8 -6.5 -25.5t-9.5 -38.5t-9.5 -43t-6 -40.5t1.5 -30.5t13 -13q-17 -3 -30 1q-11 3 -21 14t-11 36q1 9 3 22q2 11 4.5 27.5t7.5 38.5
q8 44 14 71t-8 38q9 6 14 14.5t8 20.5t5.5 28.5t6.5 38.5q6 41 12 65q3 12 6 22q11 25 24.5 36t26.5 15q15 4 30 1z" />
    <glyph glyph-name="bar" unicode="|" horiz-adv-x="112" 
d="M59 3q-11 -4 -21 -6t-10 12q0 55 1.5 115.5t3 121.5t2 121t0.5 114q2 12 6.5 17t14.5 7q19 3 22 -7.5t3 -20.5q1 -52 1 -109t-0.5 -115.5t-2 -115.5t-4.5 -109q1 -7 -2 -14t-14 -11z" />
    <glyph glyph-name="braceright" unicode="}" horiz-adv-x="214" 
d="M23 11q15 2 24.5 27.5t15.5 58t8.5 63t4.5 42.5t7.5 22t10.5 17q6 8 12 15q-4 6 -7 14q-2 7 -3 17t2 22q2 13 10.5 43.5t15 63t6.5 57.5t-15 27q17 3 30 -1q11 -4 20.5 -14.5t11.5 -35.5q-1 -9 -3 -22q-3 -23 -12 -66q-8 -44 -14 -71t8 -38q-9 -6 -14 -14.5t-8 -20.5
t-5.5 -28.5t-6.5 -38.5q-3 -22 -6.5 -38t-5.5 -27q-4 -13 -6 -22q-11 -26 -24.5 -36.5t-26.5 -14.5q-15 -4 -30 -1z" />
    <glyph glyph-name="asciitilde" unicode="~" horiz-adv-x="286" 
d="M205 151q-12 7 -12.5 19t1.5 23t2 17.5t-11 0.5q-7 -4 -19.5 -13.5t-28 -19t-32 -18t-31 -9t-25 8t-13.5 31.5q-1 12 4.5 24t14 20.5t20 10.5t22.5 -5q6 -4 1.5 -11.5t-9.5 -15t-6 -14t11 -8.5q6 -1 16.5 4.5t22.5 13t23.5 15.5t19.5 12q12 6 27 5.5t26 -7t17 -19.5
t0 -32q-5 -17 -14.5 -29t-26.5 -4z" />
    <glyph glyph-name="exclamdown" unicode="&#xa1;" horiz-adv-x="217" 
d="M181 170q0 2 -1 5q-2 4 -7 10q-8 6 -24 11q-9 3 -19 5q-2 1 -5 0q-6 -2 -11 -11q-2 -3 -7 -19t-12 -41t-16 -56l-18 -62q-21 -75 -47 -167q-1 -2 0 -5q0 -4 4 -8q1 -1 8.5 -6t17.5 -11t20 -11t17 -6q12 -2 17 2.5t7 11.5q1 2 6 21.5t12.5 50t16 68.5t16.5 77t14.5 76
t10.5 65zM158 241q-11 0 -19 8t-8 20q1 12 9 20t19 8q13 -1 21 -9t7 -20q0 -12 -8 -20t-21 -7z" />
    <glyph glyph-name="cent" unicode="&#xa2;" horiz-adv-x="272" 
d="M83 306q14 19 37.5 31t48.5 13q1 8 2.5 18t3.5 10q2 2 9.5 1t9.5 -3q1 -2 -0.5 -11t-2.5 -16q21 -5 35.5 -22t12.5 -49q0 -8 -7 -8q-8 0 -8 8q2 31 -10 41.5t-26 11.5q-16 -5 -28.5 -28.5t-21 -55.5t-13 -67t-4 -63.5t5.5 -45t15 -10.5q11 7 21.5 19.5t14.5 25.5q1 3 4 5
t6 0q5 -2 5 -9q-5 -17 -19 -34.5t-32 -23.5q0 -3 -1 -8l-2 -10l-2 -12q-5 -2 -9 -2t-7.5 0.5t-4.5 5.5q0 4 1 8l3 15q-18 0 -31.5 5t-21.5 11q-10 7 -16 17q-11 21 -13.5 52t2.5 63.5t16 63.5t27 53z" />
    <glyph glyph-name="sterling" unicode="&#xa3;" horiz-adv-x="369" 
d="M79 1q-26 0 -37.5 9t-0.5 28q2 5 12 6t11 7q9 36 15.5 64t11.5 51.5t9.5 45t10.5 45.5q-28 -2 -47 -3t-20 -1q-5 0 -8.5 4t-3.5 9q0 14 12 14q10 0 21 1q18 1 52 3q7 29 15 57t19 53.5t26 48t37 42.5q23 20 51.5 18.5t52.5 -27.5q12 -13 15.5 -33t0.5 -37t-11 -25.5
t-18 1.5q-2 2 -0.5 10t4.5 18.5t5 22t0 20.5q-2 7 -8 14t-14 9q-17 4 -30.5 -17t-24 -52.5t-17.5 -65t-11 -53.5q29 2 51 2.5t27 0.5t8.5 -4.5t3.5 -9.5q-2 -13 -13 -13q-6 0 -29 -1t-54 -2q-12 -59 -24 -116.5t-26 -101.5q17 2 31.5 3.5t27.5 3.5q10 1 22 -2t15 -9t-7 -13
t-43 -12q-30 -5 -60 -9t-60 -4z" />
    <glyph glyph-name="yen" unicode="&#xa5;" horiz-adv-x="333" 
d="M195 242q-1 -7 -4 -21t-6 -33h54q7 0 11 -4t4 -9q0 -16 -15 -16h-61q-2 -8 -3.5 -15t-2.5 -15h62q5 0 9.5 -4.5t4.5 -9.5q0 -6 -4.5 -10.5t-9.5 -4.5h-69q-8 -35 -17 -62.5t-17 -33.5q-3 -2 -11.5 0t-18.5 6t-18.5 8.5t-10.5 7.5q-5 5 -5 12q0 3 1 6l13 56h-53
q-6 0 -10 4.5t-4 10.5q0 5 4 9.5t10 4.5h58l6 30h-59q-5 0 -9.5 4.5t-4.5 11.5q0 5 4.5 9t9.5 4h64q5 14 6 25t3 16q2 8 1 15.5t-1 12.5v1v2h-1v1v1q-3 12 -11.5 40.5t-16 59t-11 55t3.5 27.5q10 5 17.5 0.5t13.5 -13t10.5 -18.5t6.5 -16q5 -18 10.5 -37t12.5 -40
q23 31 43.5 59.5t42.5 54.5l9 12q9 11 14.5 16.5t11.5 6t13.5 -3.5t18.5 -12q14 -15 10 -33q-3 -13 -8 -23.5t-11 -21.5q-7 -11 -13.5 -21t-12.5 -21z" />
    <glyph glyph-name="guillemotleft" unicode="&#xab;" horiz-adv-x="283" 
d="M184 56q-9 -3 -15 1.5t-10 11.5q-17 32 -30 65t-20 68q-1 6 1 11.5t5 10.5q37 61 90 111q5 5 10 9t13 2q15 -2 15 -12t-9 -24t-23 -31t-27 -33t-21.5 -29t-5.5 -19q5 -12 10.5 -26.5t10.5 -30.5t9.5 -31t9.5 -27q-1 -9 -2.5 -16.5t-10.5 -10.5zM108 56q-9 -3 -15 1.5
t-10 11.5q-17 32 -30 65t-20 68q-1 6 1 11.5t5 10.5q37 61 90 111q5 5 10 9t13 2q15 -2 15 -12t-9 -24t-23 -31t-27 -33t-21.5 -29t-5.5 -19q5 -12 10.5 -26.5t10.5 -30.5t9.5 -31t9.5 -27q-1 -9 -2.5 -16.5t-10.5 -10.5z" />
    <glyph glyph-name="degree" unicode="&#xb0;" horiz-adv-x="247" 
d="M160 507q14 20 24 44.5t9 49.5q-1 27 -8.5 29.5t-17.5 -11t-22 -37.5t-21 -49.5t-14 -46.5t-2.5 -29t14.5 2t38 48zM155 653q32 1 45.5 -13t15.5 -37q2 -26 -9.5 -56t-26.5 -53q-25 -36 -47.5 -48t-41 -6.5t-31.5 24.5t-19 44t-3.5 52t16 49t38 35t63.5 9z" />
    <glyph glyph-name="periodcentered" unicode="&#xb7;" horiz-adv-x="112" 
d="M57 175q-11 1 -19.5 9.5t-7.5 17.5q2 11 9.5 18t17.5 6q11 -1 18.5 -8.5t6.5 -16.5q-1 -11 -8.5 -19t-16.5 -7z" />
    <glyph glyph-name="guillemotright" unicode="&#xbb;" horiz-adv-x="283" 
d="M100 344q9 3 15 -1.5t10 -11.5q17 -32 30 -65t20 -68q1 -6 -1 -11.5t-5 -10.5q-38 -62 -90 -111q-5 -5 -10 -9t-13 -2q-15 2 -15 12t9 24t23 31t27 33t21.5 28.5t5.5 19.5q-5 12 -10.5 26.5t-10.5 30.5t-10 31l-9 27q1 9 2.5 16.5t10.5 10.5zM176 344q9 3 15 -1.5
t10 -11.5q17 -32 30 -65t20 -68q1 -6 -1 -11.5t-5 -10.5q-38 -62 -90 -111q-5 -5 -10 -9t-13 -2q-15 2 -15 12t9 24t23 31t27 33t21.5 28.5t5.5 19.5q-5 12 -10.5 26.5t-10.5 30.5t-10 31l-9 27q1 9 2.5 16.5t10.5 10.5z" />
    <glyph glyph-name="questiondown" unicode="&#xbf;" horiz-adv-x="276" 
d="M28 -110q-1 27 15 57.5t37 60t41 54t29 38.5t12.5 25.5t4 21.5t-0.5 19t-1 18q0 1 2 3q3 3 8 3q3 0 13.5 -2t21.5 -5.5t20.5 -9t10.5 -12.5q6 -29 -6.5 -63t-33 -69t-44.5 -69t-41 -61t-21.5 -46t12.5 -25q22 -8 42.5 1.5t36.5 27.5t26 41t12 43q1 5 4 8t8 2q10 0 10 -13
q-5 -42 -22.5 -70.5t-41 -43.5t-50.5 -18t-49.5 6t-38 28.5t-16.5 49.5zM209 241q-14 0 -23 9.5t-9 23.5q0 13 9 22.5t23 9.5q13 0 22.5 -9.5t9.5 -22.5q0 -14 -9.5 -23.5t-22.5 -9.5z" />
    <glyph glyph-name="multiply" unicode="&#xd7;" horiz-adv-x="258" 
d="M190 136q-7 -5 -11.5 -3.5t-8.5 6.5q-14 23 -33 23.5t-39 -11.5q-4 -2 -8.5 -3.5t-9.5 -3.5q-17 -3 -24.5 -0.5t-16.5 17.5q-10 14 -9 19.5t15 14.5q7 5 14.5 8t15.5 7q8 5 11.5 10t-4.5 15q-5 4 -6 12q-2 6 1 10.5t8 9.5q9 6 18 -2q5 -2 8 -6t6 -7q13 -16 29 -6
q11 5 22 9.5t21 8.5q9 4 16.5 3.5t12.5 -11.5t9 -21.5t-5 -21.5q-4 -4 -8 -6.5t-7 -6.5q-7 -5 -16 -7t-11 -12q-2 -8 4.5 -13t9.5 -11q4 -7 2 -11.5t-6 -9.5z" />
    <glyph glyph-name="divide" unicode="&#xf7;" 
d="M129 249q-11 1 -19.5 9.5t-7.5 17.5q2 11 9.5 18t17.5 6q11 -1 18.5 -8.5t6.5 -16.5q-1 -11 -8.5 -19t-16.5 -7zM102 99q-11 1 -19.5 9.5t-7.5 17.5q2 11 9.5 18t17.5 6q11 -1 18.5 -8.5t6.5 -16.5q-1 -11 -8.5 -19t-16.5 -7zM42 183q-4 0 -7.5 5t-3.5 10q0 13 10 13
l144 3q9 0 9 -13q0 -12 -9 -12z" />
    <glyph glyph-name="endash" unicode="&#x2013;" 
d="M48 181q-16 0 -18 18q0 19 18 19q32 0 64.5 -0.5t64.5 -1.5q19 0 18 -19q0 -10 -6.5 -12t-14.5 -2t-16.5 -0.5t-22 -0.5h-34.5t-53 -1z" />
    <glyph glyph-name="emdash" unicode="&#x2014;" 
d="M48 181q-16 0 -18 18q0 19 18 19q32 0 64.5 -0.5t64.5 -1.5q19 0 18 -19q0 -10 -6.5 -12t-14.5 -2t-16.5 -0.5t-22 -0.5h-34.5t-53 -1z" />
    <glyph glyph-name="quoteleft" unicode="&#x2018;" horiz-adv-x="119" 
d="M42 487q-10 2 -11 6t1 9q1 3 4 15.5t6.5 26.5t6.5 25t4 13q3 11 21 11t15 -12q-6 -21 -12.5 -41.5t-12.5 -41.5q-3 -11 -22 -11z" />
    <glyph glyph-name="quoteright" unicode="&#x2019;" horiz-adv-x="119" 
d="M42 487q-10 2 -11 6t1 9q1 3 4 15.5t6.5 26.5t6.5 25t4 13q3 11 21 11t15 -12q-6 -21 -12.5 -41.5t-12.5 -41.5q-3 -11 -22 -11z" />
    <glyph glyph-name="quotesinglbase" unicode="&#x201a;" horiz-adv-x="113" 
d="M40 -56q-8 0 -12 8.5t6 23.5q7 10 8 18.5t-10 18.5q-7 7 -0.5 17t23.5 6q19 -5 26 -21t-4 -33q-3 -5 -8.5 -11.5t-11 -12.5t-10 -10t-7.5 -4z" />
    <glyph glyph-name="quotedblleft" unicode="&#x201c;" horiz-adv-x="164" 
d="M42 487q-10 2 -11 6t1 9q1 3 4 15.5t6.5 26.5t6.5 25t4 13q3 11 21 11t15 -12q-6 -21 -12.5 -41.5t-12.5 -41.5q-3 -11 -22 -11zM87 487q-10 2 -11 6t1 9q1 3 4 15.5t6.5 26.5t6.5 25t4 13q3 11 21 11t15 -12q-6 -21 -12.5 -41.5t-12.5 -41.5q-3 -11 -22 -11z" />
    <glyph glyph-name="quotedblright" unicode="&#x201d;" horiz-adv-x="164" 
d="M42 487q-10 2 -11 6t1 9q1 3 4 15.5t6.5 26.5t6.5 25t4 13q3 11 21 11t15 -12q-6 -21 -12.5 -41.5t-12.5 -41.5q-3 -11 -22 -11zM87 487q-10 2 -11 6t1 9q1 3 4 15.5t6.5 26.5t6.5 25t4 13q3 11 21 11t15 -12q-6 -21 -12.5 -41.5t-12.5 -41.5q-3 -11 -22 -11z" />
    <glyph glyph-name="quotedblbase" unicode="&#x201e;" horiz-adv-x="113" 
d="M55 36q19 -5 26 -21t-4 -33q-3 -5 -9 -11.5t-12 -12t-11 -9t-8 -3.5q-8 0 -11 7.5t8 22.5q7 10 8 18.5t-10 18.5q-6 6 2 15q9 9 21 8z" />
    <glyph glyph-name="bullet" unicode="&#x2022;" horiz-adv-x="112" 
d="M57 175q-11 1 -19.5 9.5t-7.5 17.5q2 11 9.5 18t17.5 6q11 -1 18.5 -8.5t6.5 -16.5q-1 -11 -8.5 -19t-16.5 -7z" />
    <glyph glyph-name="ellipsis" unicode="&#x2026;" horiz-adv-x="232" 
d="M57 1q-11 1 -19.5 9.5t-7.5 17.5q2 11 9.5 18t17.5 6q11 -1 18.5 -8.5t6.5 -16.5q-1 -11 -8.5 -19t-16.5 -7zM117 1q-11 1 -19.5 9.5t-7.5 17.5q2 11 9.5 18t17.5 6q11 -1 18.5 -8.5t6.5 -16.5q-1 -11 -8.5 -19t-16.5 -7zM177 1q-11 1 -19.5 9.5t-7.5 17.5q2 11 9.5 18
t17.5 6q11 -1 18.5 -8.5t6.5 -16.5q-1 -11 -8.5 -19t-16.5 -7z" />
    <glyph glyph-name="guilsinglleft" unicode="&#x2039;" horiz-adv-x="204" 
d="M106 56q-9 -3 -15 1.5t-10 11.5q-17 32 -30 65t-20 68q-1 6 1 11.5t5 10.5q37 61 90 111q5 5 10 9t13 2q15 -2 15 -12t-9 -24t-23 -31t-27 -33t-21.5 -29t-5.5 -19q5 -12 10.5 -26.5t10.5 -30.5t9.5 -31t9.5 -27q-1 -9 -2.5 -16.5t-10.5 -10.5z" />
    <glyph glyph-name="guilsinglright" unicode="&#x203a;" horiz-adv-x="203" 
d="M100 344q9 3 15 -1.5t10 -11.5q17 -32 30 -65t20 -68q1 -6 -1 -11.5t-5 -10.5q-38 -62 -90 -111q-5 -5 -10 -9t-13 -2q-15 2 -15 12t9 24t23 31t27 33t21.5 28.5t5.5 19.5q-5 12 -10.5 26.5t-10.5 30.5t-10 31l-9 27q1 9 2.5 16.5t10.5 10.5z" />
    <glyph glyph-name="fraction" unicode="&#x2044;" horiz-adv-x="299" 
d="M39 11q-10 4 -9.5 11t3.5 14q42 103 87.5 209.5t98.5 206.5q2 5 5.5 11.5t8 12t10.5 7t14 -2.5t11.5 -8t-0.5 -16q-51 -108 -97.5 -219t-96.5 -220q-6 -14 -15.5 -12t-19.5 6z" />
    <glyph glyph-name="Euro" unicode="&#x20ac;" horiz-adv-x="285" 
d="M91 306q15 20 41.5 32t52.5 11t45 -17.5t18 -53.5q0 -6 -7 -6t-7 7q1 30 -11.5 40t-26.5 12q-17 -5 -30.5 -33t-21.5 -65h50q8 0 8 -7t-8 -7h-54q-2 -10 -2 -14h47q8 0 8 -8q0 -7 -8 -7h-50q-3 -26 -4 -49.5t0.5 -41t6.5 -26.5t13 -5q11 7 22 20t14 24q3 7 9 5
q3 -1 5 -3.5t0 -4.5q-5 -14 -17 -29.5t-26 -23.5q-12 -6 -24 -6q-31 1 -50 14t-28 32.5t-10.5 44t2.5 49.5h-20q-8 0 -8 7q0 8 8 8h22q1 4 3 14h-16q-8 0 -8 7t8 7h20q6 21 14.5 40t19.5 33z" />
    <glyph glyph-name="trademark" unicode="&#x2122;" horiz-adv-x="384" 
d="M120 638q11 1 29 4t39.5 6.5t44 7t42 6.5t34.5 5t21 2q5 -2 5 -5q0 -4 -5 -4q-9 0 -36 -4t-59 -9.5t-63 -10.5t-47 -7q-1 -9 -4.5 -27t-8.5 -41t-10.5 -47.5t-10.5 -45.5t-9.5 -35.5t-5.5 -17.5q-1 0 -2 -1q-2 -2 -7 -1q-1 0 -6 3t-10.5 8t-9.5 12.5t-4 17.5
q0 9 5.5 33.5t12.5 52t13 51t8 31.5q-22 -4 -35.5 -6.5t-14.5 -2.5q-6 -2 -6 4q0 4 4 6q1 0 26.5 4t69.5 11zM247 489q-14 5 -17 17t-1.5 27t6 30t7.5 26q-17 -11 -31 -29.5t-21 -29.5q-8 -15 -14 -32.5t-20 -52.5q-1 -5 -2.5 -7.5t-2.5 -1.5q-17 3 -16 27t10 55t20.5 61
t16.5 44q2 9 11.5 13.5t18.5 0.5t13.5 -13t0.5 -19q-6 -12 -10.5 -20.5t-7.5 -16.5q4 6 12.5 14.5t18 15.5t20 10t18.5 -3q11 -6 11 -20q11 9 22.5 20t23.5 11q11 1 18 -5.5t7 -17.5q-2 -5 -8.5 -22.5t-14 -40.5t-15 -48t-10 -45t0.5 -31t17 -6q4 3 6 -3q1 -1 0 -3t-3 -2
q-14 -5 -24.5 3.5t-14.5 19.5q-10 21 -9 43.5t6 46t12 46t9 43.5q-17 -16 -26 -32.5t-15 -31t-10.5 -25.5t-12.5 -16z" />
    <glyph glyph-name="minus" unicode="&#x2212;" 
d="M48 181q-16 0 -18 18q0 19 18 19q32 0 64.5 -0.5t64.5 -1.5q19 0 18 -19q0 -10 -6.5 -12t-14.5 -2t-16.5 -0.5t-22 -0.5h-34.5t-53 -1z" />
    <glyph glyph-name="notequal" unicode="&#x2260;" 
d="M177 191q19 0 18 -19q0 -10 -6.5 -12t-14.5 -2q-15 -1 -32.5 -0.5t-48.5 -1.5l-9 -13q-11 -16 -18 -10q-4 2 -1 8.5t8 12.5q0 1 0.5 1t0.5 1h-26q-16 0 -18 18q0 19 18 19h49q2 3 4 6.5t5 8.5h-58q-16 0 -18 18q0 19 18 19h40.5t40.5 -1l11 17q8 13 16 10q5 -3 1.5 -11.5
t-8.5 -15.5q8 -1 14.5 -1h13.5q19 0 18 -19q0 -10 -6.5 -12t-14.5 -2q-11 -1 -23 -0.5t-23 0.5l-12 -18q16 0 31 -0.5t30 -0.5z" />
    <glyph glyph-name="t_t" horiz-adv-x="470" 
d="M319 492q5 6 18 10.5t28 8.5t27.5 5.5t16.5 1.5q8 -2 8 -8q0 -4 -1 -7q-1 -5 -4 -15q-2 -8 -5.5 -23t-8.5 -37l91 14q5 2 9 -1.5t4 -8.5q2 -10 -10 -12l-99 -16l-85 -357q-1 -12 2.5 -17.5t9.5 -6.5t13.5 2.5t14.5 9.5q14 10 37 36t45 52t38.5 46.5l16.5 20.5q6 6 15 1
q3 -2 3.5 -7t-2.5 -9q-29 -36 -55 -68q-23 -27 -46.5 -53.5t-38.5 -37.5q-23 -17 -47 -18t-43.5 12t-31.5 38.5t-11 60.5q0 5 0.5 10t1.5 13q-12 -15 -26.5 -32.5t-29 -33.5t-27.5 -29.5t-22 -20.5q-23 -17 -47 -18t-43.5 12t-31.5 38.5t-11 60.5q1 14 5.5 40.5t12 59.5
t16.5 70t18 72l-99 -15q-10 -2 -14 9q0 11 10 13l109 17q7 24 12.5 45.5t10.5 37.5q5 18 10 34q5 6 18 10.5t28 8.5t27.5 5.5t16.5 1.5q8 -2 8 -8q0 -4 -1 -7l-8 -32q-4 -15 -8.5 -36t-10.5 -45l144 22zM112 35q11 9 29 28t36.5 40.5t35.5 42t26 32.5q8 35 20.5 87t31.5 124
l-143 -22q-12 -49 -25 -103.5t-24 -101t-18.5 -79t-8.5 -36.5q-1 -12 2.5 -17.5t9.5 -6.5t13.5 2.5t14.5 9.5z" />
    <glyph glyph-name="NULL" horiz-adv-x="0" 
 />
    </font>
</defs>
</svg>
