<?xml version="1.0" standalone="no"?>
<!DOCTYPE svg PUBLIC "-//W3C//DTD SVG 1.1//EN" "http://www.w3.org/Graphics/SVG/1.1/DTD/svg11.dtd" >
<svg xmlns="http://www.w3.org/2000/svg" xmlns:xlink="http://www.w3.org/1999/xlink" version="1.1">
<metadata>
Created by FontForge 20170731 at Tue Dec 20 20:51:19 2016
 By Aleksey,,,
Copyright (c) 2016 by ALit Design. All rights reserved.
</metadata>
<defs>
<font id="Altoysjustpersonalonly-Italic" horiz-adv-x="500" >
  <font-face 
    font-family="Altoys just personal only"
    font-weight="400"
    font-style="italic"
    font-stretch="normal"
    units-per-em="1000"
    panose-1="0 0 0 0 0 0 0 0 0 0"
    ascent="750"
    descent="-250"
    x-height="474"
    cap-height="748"
    bbox="-173.818 -276 1193.09 828.829"
    underline-thickness="50"
    underline-position="-150"
    slope="-12"
    unicode-range="U+000D-E037"
  />
<missing-glyph 
 />
    <glyph glyph-name="b_x" unicode="bx" horiz-adv-x="867" 
d="M936 168q-12 -38 -27.5 -65.5t-32.5 -46.5t-34.5 -30t-34.5 -17q-14 -5 -27.5 -7t-24.5 -2h-3q-20 0 -40.5 9.5t-38 25t-31.5 35t-22 39.5l-4 10t-4 11q-32 -32 -55.5 -64.5t-31.5 -65.5h-50q7 41 43.5 86.5t83.5 89.5l-31 130q-26 -32 -63.5 -51.5t-79.5 -19.5h-11
q-11 -59 -36 -103.5t-58.5 -73.5t-71.5 -43.5t-75 -14.5q-41 0 -72 8.5t-50.5 28t-26.5 50.5t1 77l83 466q4 26 -12 26q1 -2 0.5 -3t-0.5 -3q-2 -8 -8 -13.5t-14 -5.5t-13 5.5t-3 13.5q2 13 12.5 22.5t25 15.5t31.5 8.5t32 2.5t31 -3.5t27.5 -14t16.5 -30t-1 -52.5l-24 -139
q17 8 34.5 12t31.5 4q30 0 55.5 -13t45 -36.5t31 -55.5t13.5 -70q12 -8 28 -10t32 1t30 9.5t23 16.5q11 12 14 24.5t4 22.5q0 11 -2 23q-3 17 -9 28t-12 17t-11.5 8.5t-8.5 4.5q14 17 39 25t60 3q15 -2 26.5 -8.5t21 -19.5t17 -34.5t13.5 -54.5l21 -85q9 8 18 15.5t17 15.5
q20 19 34 39.5t22 37.5t8.5 27.5t-6.5 9.5q-9 0 -14 2q-17 5 -23.5 20.5t1.5 33.5t25.5 28t34.5 5q21 -6 31 -25t7 -46.5t-20.5 -62t-52.5 -72.5q-17 -19 -35 -37t-37 -35l20 -87q12 -55 40 -68q15 -7 28.5 -4t21.5 6q27 9 46 36.5t27 56.5h34zM216 89q26 12 43 51.5
t27 97.5q6 31 6.5 67t-7.5 64.5t-27.5 43t-53.5 2.5l-42 -237q-6 -35 -2.5 -55t12.5 -29t21 -9.5t23 4.5z" />
    <glyph glyph-name="o_x" unicode="ox" horiz-adv-x="850" 
d="M917 168q-12 -38 -27.5 -65.5t-32.5 -46.5t-35 -30t-35 -17q-14 -5 -27 -7t-24 -2h-4q-20 0 -40 9.5t-37.5 25t-31.5 35t-22 39.5q-6 11 -8 21q-32 -32 -56 -64.5t-32 -65.5h-50q7 41 43.5 86.5t84.5 89.5l-32 130q-26 -32 -63.5 -51.5t-79.5 -19.5h-10q0 -1 -0.5 -2
t-0.5 -3h-1q-10 -48 -32.5 -90t-53 -73t-67.5 -49t-75 -18q-39 0 -70 18.5t-51 51t-27.5 75.5t0.5 93q8 45 27 85t46 71.5t60 52t68 26.5h1q13 3 29 3q37 0 72 -20q19 -4 32 -16t21.5 -28t13.5 -34.5t8 -36.5q2 -8 2.5 -16.5t1.5 -17.5h1q-1 -2 -0.5 -3t0.5 -3
q12 -8 28.5 -10t32.5 1t30 9.5t23 16.5q10 12 13.5 24.5t4.5 22.5q1 11 -2 23q-4 17 -10 28t-12 17t-11 8.5t-8 4.5q14 17 39 25t60 3q15 -2 26.5 -8.5t21 -19.5t17 -34.5t13.5 -54.5l20 -85q10 8 18.5 15.5t16.5 15.5q20 19 34.5 39.5t22 37.5t8 27.5t-6.5 9.5h-6.5t-6.5 2
q-17 5 -24 20.5t1 33.5t26 28t35 5q21 -6 31 -25t6.5 -46.5t-21 -62t-52.5 -72.5q-17 -19 -34.5 -37t-36.5 -35l20 -87q5 -29 15.5 -45.5t23.5 -22.5q16 -7 29.5 -4t20.5 6q27 9 46.5 36.5t27.5 56.5h34zM206 78q17 0 34.5 12.5t32.5 34.5t26.5 51t17.5 62q2 8 2 13
q-36 19 -53.5 56.5t-9.5 85.5q0 2 1 4q-19 -3 -38 -19q-23 -21 -41.5 -58t-26.5 -82q-6 -33 -4.5 -62t9 -51t20.5 -34.5t30 -12.5z" />
    <glyph glyph-name="r_x" unicode="rx" horiz-adv-x="834" 
d="M904 168q-12 -38 -27.5 -65.5t-32.5 -46.5t-35 -30t-35 -17q-14 -5 -27 -7t-24 -2h-3q-20 0 -40.5 9.5t-38 25t-31.5 35t-22 39.5q-6 11 -8 21q-32 -32 -56 -64.5t-32 -65.5h-50q7 41 43.5 86.5t84.5 89.5l-40 171q-20 -46 -52 -72.5t-86 -30.5q-50 -3 -78 12t-39 39
t-7.5 51.5t16.5 48.5q7 10 -5 14.5t-29.5 1t-35 -17.5t-21.5 -39q-3 -16 -7.5 -42t-9.5 -54.5t-10.5 -57.5t-9.5 -52.5t-6.5 -38.5l-2.5 -15q-5 -25 -5 -38.5t2 -21.5q2 -9 6 -12q-21 -14 -47 -20t-47.5 1t-34 28.5t-5.5 62.5l2.5 14t6.5 36t9 50.5t10 57.5q12 69 27 155
q5 26 -11 26v-6q-2 -8 -8.5 -13.5t-14.5 -5.5q-18 0 -15 19q2 13 12.5 22.5t25 15.5t31 8.5t31.5 2.5q12 0 24 -2t22.5 -7t18.5 -15t11 -26q20 20 52.5 35t64.5 15q40 0 61.5 -10t31 -24.5t10 -29.5t-2.5 -24q-5 -14 -11.5 -24t-12.5 -19t-9.5 -17.5t-1.5 -18.5
q1 -8 10.5 -12.5t23.5 -5t30.5 4.5t31.5 16q11 9 19 22.5t13.5 27.5t7 26t-0.5 17q-11 23 -21 31t-15 10q14 17 39 25t60 3q15 -2 26.5 -8.5t21 -19.5t17 -34.5t13.5 -54.5l20 -85q10 8 18.5 15.5t16.5 15.5q20 19 34.5 39.5t22 37.5t8 27.5t-6.5 9.5h-6.5t-6.5 2
q-17 5 -24 20.5t1 33.5t26 28t35 5q21 -6 31 -25t6.5 -46.5t-21 -62t-52.5 -72.5q-17 -19 -34.5 -37t-36.5 -35l20 -87q5 -29 15.5 -45.5t23.5 -22.5q16 -7 29.5 -4t20.5 6q27 9 46.5 36.5t27.5 56.5h34z" />
    <glyph glyph-name="v_x" unicode="vx" horiz-adv-x="864" 
d="M933 168q-12 -38 -27.5 -65.5t-32.5 -46.5t-34.5 -30t-34.5 -17q-14 -5 -27.5 -7t-24.5 -2h-3q-20 0 -40.5 9.5t-38 25t-31.5 35t-22 39.5q-2 5 -3.5 10t-3.5 11q-32 -32 -56 -64.5t-32 -65.5h-50q7 41 43.5 86.5t83.5 89.5l-49 208q-21 -29 -53 -45t-70 -16q-14 0 -27 3
q-17 -54 -45.5 -112t-65 -105.5t-78.5 -78t-85 -30.5q-42 0 -71 25.5t-31 83.5q0 12 1 26t3 29q10 59 19 107q4 20 7.5 39.5t6 34.5t4.5 25t2 11q7 41 27 62.5t44 28.5t48 1.5t41 -19.5q-5 -3 -10 -12q-5 -8 -10 -22t-9 -39q0 -2 -3.5 -19.5t-8 -43.5t-9.5 -56t-10 -56
t-8.5 -44.5t-3.5 -20.5q-3 -20 -1 -31.5t8 -18.5t14.5 -9t18.5 -2q21 0 45 26.5t47 66.5t43 85.5t32 83.5q-28 18 -41 50t-6 70l1 7q5 17 20 28t32 10q35 -1 45 -35t2 -85q15 -13 36 -13q22 0 39 5t31 14q16 11 14.5 22.5t-4.5 14.5q-7 8 -13 11l-10 5q14 17 39 25t60 3
q15 -2 26.5 -8.5t21.5 -19.5t17 -34.5t13 -54.5l21 -85q9 8 18 15.5t17 15.5q20 19 34 39.5t22 37.5t8.5 27.5t-6.5 9.5q-9 0 -14 2q-17 5 -23.5 20.5t1.5 33.5t25.5 28t34.5 5q21 -6 31 -25t7 -46.5t-20.5 -62t-52.5 -72.5q-17 -19 -35 -37t-37 -35l20 -87q12 -55 40 -68
q15 -7 28.5 -4t21.5 6q27 9 46 36.5t27 56.5h34z" />
    <glyph glyph-name="w_x" unicode="wx" horiz-adv-x="1102" 
d="M1170 168q-12 -38 -27.5 -65.5t-32.5 -46.5t-35 -30t-35 -17q-14 -5 -27 -7t-24 -2h-3q-20 0 -40.5 9.5t-38 25t-31.5 35t-22 39.5l-4 10t-4 11q-32 -32 -55.5 -64.5t-31.5 -65.5h-50q7 41 43 86.5t84 89.5l-49 207q-21 -29 -53 -44.5t-70 -15.5q-14 0 -27 3
q-17 -54 -45.5 -112t-65 -105.5t-78.5 -78t-85 -30.5q-35 0 -61 18t-36 58q-18 -24 -37 -39t-37.5 -23.5t-36 -11t-30.5 -2.5q-41 0 -70 25.5t-31 83.5q-1 12 0 26t3 29q10 59 19 107q4 20 7.5 39.5t6 34.5t4.5 25t2 11q7 41 27 62.5t44 28.5t48.5 1.5t40.5 -19.5
q-5 -3 -10 -12q-5 -8 -10 -22t-9 -39q0 -2 -3.5 -19.5t-8 -43.5t-9.5 -56t-10 -56t-8.5 -44.5t-3.5 -20.5q-3 -20 -1 -31.5t8 -18.5t15 -9t18 -2q20 0 38 15t30 38q1 8 1 15.5t2 15.5q10 59 19 107q4 20 7.5 39.5t6 34.5t4.5 25t2 11q7 41 27 62.5t44 28.5t48 1.5t41 -19.5
q-5 -3 -10 -12q-5 -8 -10 -22t-9 -39q0 -2 -3.5 -19.5t-8 -43.5t-9.5 -56t-10 -56t-8.5 -44.5t-3.5 -20.5q-3 -20 -1 -31.5t8 -18.5t14.5 -9t18.5 -2q21 0 45 26.5t47 66.5t43 85.5t32 83.5q-28 18 -41 50t-6 70l1 7q5 17 20 28t32 10q35 -1 45 -35t2 -85q9 -8 22 -11
t27.5 -2t29 6t27.5 13q12 8 14 19t-4 18q-7 8 -13 11l-10 5q14 17 39 25t60 3q15 -2 26.5 -8.5t21 -19.5t17 -34.5t13.5 -54.5l20 -85q10 8 19 15.5t17 15.5q20 19 34 39.5t21.5 37.5t8 27.5t-6.5 9.5q-8 0 -13 2q-17 5 -24 20.5t1 33.5t26 28t35 5q21 -6 31 -25t7 -46.5
t-21 -62t-52 -72.5q-17 -19 -35 -37t-37 -35l20 -87q12 -55 40 -68q15 -7 28.5 -4t21.5 6q27 9 46 36.5t27 56.5h34z" />
    <glyph glyph-name="C_x" unicode="Cx" horiz-adv-x="935" 
d="M1006 168q-12 -38 -27.5 -65.5t-32.5 -46.5t-34.5 -30t-34.5 -17q-14 -5 -27.5 -7t-24.5 -2h-3q-20 0 -40.5 9.5t-38 25t-31.5 35t-22 39.5q-2 5 -3.5 10t-3.5 11q-17 -13 -37 -37t-43.5 -52t-50.5 -57t-59 -53t-69 -39t-79 -15q-61 0 -115.5 32.5t-88.5 94.5t-41 153.5
t28 210.5q34 112 85 185.5t106.5 116.5t109.5 60.5t93 17.5q42 0 68.5 -9t41 -23t18.5 -31t2 -32q-3 -20 -20 -33.5t-37 -13.5t-31 13.5t-7 33.5q2 12 7 20q-31 13 -68.5 -0.5t-73.5 -44.5t-67 -75t-49 -93q-20 -54 -32.5 -112.5t-16 -115t1.5 -107t20.5 -89t41.5 -62
t64 -24.5q43 -2 77.5 19.5t67 55t66.5 74.5t76 77l-50 212q-3 17 -9 28t-12 17t-11.5 8.5t-8.5 4.5q14 17 39 25t61 3q15 -2 26.5 -8.5t21 -19.5t17 -34.5t13.5 -54.5l20 -85q10 8 18.5 15.5t16.5 15.5q20 19 34 39.5t22 37.5t8.5 27.5t-6.5 9.5q-9 0 -14 2
q-17 5 -23.5 20.5t1.5 33.5t25.5 28t34.5 5q21 -6 31 -25t7 -46.5t-20.5 -62t-52.5 -72.5q-17 -19 -35 -37t-36 -35l20 -87q5 -29 15.5 -45.5t23.5 -22.5q15 -7 28.5 -4t21.5 6q27 9 46 36.5t27 56.5h34z" />
    <glyph glyph-name="b_s" unicode="bs" horiz-adv-x="761" 
d="M710 381q-3 -21 2.5 -46t9.5 -57t1.5 -71.5t-20.5 -87.5q-22 -57 -65.5 -86.5t-94.5 -32.5q-22 -1 -47 4t-45 18.5t-31 37.5t-5 61q4 22 12 36.5t17.5 23t20 12.5t19.5 4q17 0 28 -14t8 -32q-3 -16 -15 -27.5t-27 -14.5q0 -8 4 -13.5t10 -9t13.5 -5t14.5 -1.5q14 1 35 17
t28 54q4 26 4 47t-2 39.5t-5.5 36t-4.5 37.5q-27 -34 -66 -55t-81 -21h-11q-11 -59 -36 -103.5t-58.5 -73.5t-71.5 -43.5t-75 -14.5q-41 0 -72 8.5t-50.5 28t-26.5 50.5t1 77l83 466q4 26 -12 26v-6q-2 -8 -8 -13.5t-14 -5.5t-13.5 5.5t-3.5 13.5q2 13 12.5 22.5t25.5 15.5
t32 8.5t32 2.5t30.5 -3.5t27 -14t16.5 -30t-1 -52.5l-24 -139q17 8 35 12t31 4q30 0 55.5 -13t45 -36.5t31 -55.5t13.5 -70q7 -4 15 -6.5t17 -1.5q24 1 46 10t38.5 22t27.5 28t13 28q7 40 27 62t44 29t48 1.5t41 -19.5q-7 -3 -12 -12q-5 -8 -9.5 -22t-7.5 -39zM216 89
q25 12 42.5 51.5t27.5 97.5q6 31 6.5 67t-7.5 64.5t-27.5 43t-54.5 2.5q-16 -89 -24 -137t-12 -70q-4 -26 -6 -30q-6 -35 -2 -55t13 -29t21 -9.5t23 4.5z" />
    <glyph glyph-name="o_s" unicode="os" horiz-adv-x="719" 
d="M691 381q-3 -21 2.5 -46t9.5 -57t1.5 -71.5t-21.5 -87.5q-21 -57 -64.5 -86.5t-94.5 -32.5q-22 -1 -47 4t-45 19t-31 38t-5 61q4 22 12 36t17.5 22.5t20 12.5t19.5 4q17 1 28 -13.5t8 -32.5q-2 -15 -14.5 -27t-27.5 -14q-1 -17 13.5 -23.5t28.5 -6.5q14 1 35 17t28 54
q4 26 4 47t-2 39.5t-5.5 36t-4.5 37.5q-27 -34 -66 -55t-82 -21q-6 0 -10 1q-9 -49 -31.5 -92t-53.5 -75t-68 -50.5t-76 -18.5t-70 19t-51 51t-27.5 75.5t0.5 92.5q8 45 27 85t46 71.5t60 52t68 26.5h1q13 3 29 3q37 0 72 -19q19 -5 32 -17t21.5 -28t13.5 -34.5t8 -36.5
q2 -10 3 -20t1 -21q8 -3 15.5 -5.5t16.5 -1.5q24 1 46 10t38.5 22t27.5 28t13 28q7 40 27 62t44 29t48 1.5t41 -19.5q-7 -3 -12 -12q-5 -8 -9.5 -22t-7.5 -39zM207 78q17 0 34.5 12.5t32.5 34.5t26.5 51t17.5 62q1 3 1.5 6.5t1.5 6.5q-37 19 -54.5 56.5t-9.5 85.5q0 3 1 4
q-21 -3 -38 -19q-23 -20 -41.5 -57.5t-26.5 -82.5q-6 -33 -4.5 -62t9 -51t20.5 -34.5t30 -12.5z" />
    <glyph glyph-name="r_s" unicode="rs" horiz-adv-x="696" 
d="M627 381q-3 -21 2.5 -46t9.5 -57t1.5 -71.5t-20.5 -87.5q-22 -57 -65 -86.5t-94 -32.5q-22 -1 -47.5 4t-45.5 19t-31 38t-5 61q4 22 12 36t17.5 22.5t20 12.5t19.5 4q18 1 28.5 -13.5t7.5 -32.5q-2 -15 -14.5 -27t-27.5 -14q-1 -17 13.5 -23.5t28.5 -6.5q7 0 16.5 4
t18.5 12.5t17 22t11 32.5q4 25 4.5 45t-1.5 37.5t-5 34t-5 34.5q-17 -21 -42.5 -38.5t-58.5 -19.5q-50 -3 -78 12.5t-39 39t-7.5 51t16.5 48.5q7 11 -5 15.5t-29.5 0.5t-35 -18t-21.5 -39l-7.5 -42.5t-9.5 -54t-10.5 -57.5t-9.5 -52t-6.5 -38l-2.5 -15q-5 -25 -5 -39t2 -22
q2 -9 5 -12q-21 -14 -46.5 -20t-47 1t-34 29t-5.5 63l2.5 14t6.5 36t9 50t10 57q12 69 27 155q5 26 -11 26v-6q-2 -8 -8.5 -13.5t-14.5 -5.5t-12.5 5.5t-2.5 13.5q2 13 12.5 22.5t25 15.5t31 8.5t31.5 2.5q12 0 24 -2t22.5 -7t18.5 -15t11 -26q20 20 52.5 35t64.5 15
q40 0 61.5 -10t31 -24.5t9.5 -29t-3 -23.5q-5 -14 -11 -24.5t-12 -19.5t-9.5 -17.5t-1.5 -18.5q2 -15 11.5 -20.5t23 -4t28.5 9t29 18.5q6 6 10.5 15t7 19t4 19.5t2.5 15.5q7 40 27 62t44 29t48.5 1.5t40.5 -19.5q-7 -3 -12 -12q-5 -8 -9.5 -22t-7.5 -39z" />
    <glyph glyph-name="v_s" unicode="vs" horiz-adv-x="710" 
d="M660 381q-3 -21 2.5 -46t9.5 -57t1.5 -71.5t-20.5 -87.5q-22 -57 -65 -86.5t-95 -32.5q-22 -1 -47 4t-45 19t-31 38t-5 61q4 22 12 36t17.5 22.5t20 12.5t19.5 4q17 1 28 -13.5t8 -32.5q-2 -15 -14.5 -27t-27.5 -14q-1 -17 13.5 -23.5t28.5 -6.5q7 0 16.5 4t18.5 12.5
t17 22t11 32.5q6 33 4.5 58t-5 48t-6.5 46.5t0 54.5q-40 -34 -98 -34q-15 0 -28 3q-17 -55 -45.5 -113t-65 -105.5t-78.5 -78t-85 -30.5q-42 0 -71 26t-31 83q0 12 1 26t3 29q10 59 19 107q4 20 7.5 39.5t6 34.5t4.5 25t2 11q7 41 27 63t44 29t48 1t41 -20q-5 -3 -10 -12
q-5 -8 -10 -22t-9 -39q0 -2 -3.5 -19.5t-8 -43.5t-9.5 -55.5t-10 -56t-8.5 -45t-3.5 -20.5q-3 -20 -1 -31.5t8 -18.5t14.5 -9t18.5 -2q21 0 45 26.5t47 66.5t43 86t32 84q-28 18 -41 49.5t-6 69.5l1 7q5 17 20 28t32 10q35 -1 45 -35t2 -85q15 -13 36 -13q29 0 50 8t36 27
q11 30 30.5 46t41.5 20t43.5 -2t36.5 -19q-7 -3 -12 -12q-5 -8 -9.5 -22t-7.5 -39z" />
    <glyph glyph-name="w_s" unicode="ws" horiz-adv-x="943" 
d="M898 381q-3 -21 2.5 -46t9 -57t1 -71.5t-20.5 -87.5q-21 -57 -64.5 -86.5t-94.5 -32.5q-22 -1 -47 4t-45.5 19t-31.5 38t-5 61q4 22 12 36t18 22.5t20.5 12.5t19.5 4q17 1 27.5 -13.5t7.5 -32.5q-2 -15 -14.5 -27t-26.5 -14q-1 -17 13.5 -23.5t28.5 -6.5q14 1 35 17
t28 54q6 33 4.5 58t-5.5 48t-7 46.5t0 53.5q-41 -33 -97 -33q-15 0 -28 3q-17 -55 -45.5 -113t-65.5 -105.5t-79 -78t-85 -30.5q-34 0 -60.5 18t-36.5 58q-18 -24 -37 -39t-37.5 -23.5t-35.5 -11t-30 -2.5q-42 0 -71 26t-31 83q0 12 1 26t3 29q10 59 19 107q4 20 7.5 39.5
t6 34.5t4.5 25t2 11q7 41 27 63t44 29t48 1t41 -20q-5 -3 -10 -12q-5 -8 -10 -22t-9 -39q0 -2 -3.5 -19.5t-8 -43.5t-9.5 -55.5t-10 -56t-8.5 -45t-3.5 -20.5q-3 -20 -1 -31.5t8 -18.5t14.5 -9t18.5 -2q20 0 37.5 15t29.5 38q1 8 2 15.5t2 15.5q10 59 19 107q4 20 7.5 39.5
t6 34.5t4.5 25t2 11q7 41 26.5 63t43.5 29t48.5 1t40.5 -20q-5 -3 -10 -12q-5 -8 -10 -22t-9 -39q0 -2 -3.5 -19.5t-8 -43.5t-9.5 -55.5t-10 -56t-8.5 -45t-3.5 -20.5q-3 -20 -1 -31.5t8 -18.5t15 -9t18 -2q21 0 45.5 26.5t47.5 66.5t43 86t32 84q-28 18 -41.5 49.5
t-6.5 69.5q3 16 18 31t35 14q35 -1 45 -35t2 -85q15 -13 36 -13q29 0 50 8t36 27q11 30 31 46t42 20t43.5 -2t36.5 -19q-7 -3 -12 -12q-5 -8 -9.5 -22t-7.5 -39z" />
    <glyph glyph-name=".notdef" 
 />
    <glyph glyph-name=".null" horiz-adv-x="0" 
 />
    <glyph glyph-name="nonmarkingreturn" unicode="&#xd;" 
 />
    <glyph glyph-name="NULL" horiz-adv-x="0" 
 />
    <glyph glyph-name="NULL" horiz-adv-x="0" 
 />
    <glyph glyph-name="space" unicode=" " 
 />
    <glyph glyph-name="zero" unicode="0" horiz-adv-x="508" 
d="M379 748q47 0 83 -29.5t57.5 -80t27.5 -118.5t-8 -146q-14 -77 -43.5 -145t-69 -119t-85.5 -80.5t-93 -29.5t-83 29.5t-58 80.5t-28 119t8 145q14 78 43.5 146t69.5 118.5t86 80t93 29.5zM256 49q20 0 42 25.5t42.5 70t38 103.5t29.5 126t15 126.5t-2 103.5t-17.5 69.5
t-32.5 25.5t-42 -25.5t-42.5 -69.5t-38.5 -103.5t-30 -126.5t-15 -126t2.5 -103.5t18 -70t32.5 -25.5z" />
    <glyph glyph-name="one" unicode="1" horiz-adv-x="325" 
d="M286 95q-5 -25 -5 -39t2 -22q2 -9 6 -12q-21 -14 -47 -19.5t-47.5 1.5t-33.5 28.5t-5 62.5l6 33.5t15.5 85t20.5 114.5t21.5 123t19 110t13.5 76q-14 -17 -32 -25.5t-35.5 -9t-32.5 6t-21 19.5q-6 11 -2 27.5t17 25.5q8 6 18 8.5t18 0.5t12.5 -8t2.5 -15
q-3 -20 11.5 -13.5t33.5 26.5q10 10 21.5 22t24 22t26.5 17t29 7q23 0 39 -9.5t11 -39.5q0 -1 -5 -27t-12.5 -68.5t-17 -97t-19.5 -111t-19.5 -110t-17 -96t-12 -68.5z" />
    <glyph glyph-name="two" unicode="2" horiz-adv-x="488" 
d="M120 76q33 9 62.5 10.5t57 1t54 -1t53.5 5.5t55.5 21t60.5 44q3 -14 -2.5 -43t-24.5 -57t-54.5 -48.5t-92.5 -18.5q-35 1 -59.5 4t-43.5 6.5t-35.5 6t-34.5 3t-41 -1.5t-55 -8q10 60 37 106.5t62 85t76 72.5t80 69.5t72.5 76t54.5 92.5q8 21 14 46t7 49t-3 44.5t-16 33.5
q-14 15 -36.5 19.5t-45.5 -1.5t-44 -22.5t-31 -43.5q-7 -18 -5.5 -28.5t6 -18t8.5 -14t3 -17.5q-3 -20 -18.5 -35.5t-35.5 -15.5t-34.5 14t-18.5 32q-5 29 8.5 64.5t41 66.5t68.5 52t92 21q56 0 96.5 -16t65.5 -43.5t34 -63.5t2 -76q-10 -58 -39 -106.5t-69 -90.5t-87 -78.5
t-92.5 -69.5t-85.5 -64.5t-67 -63.5z" />
    <glyph glyph-name="three" unicode="3" horiz-adv-x="481" 
d="M375 413q57 -22 84.5 -61.5t30 -85.5t-17 -93.5t-57 -85.5t-90 -62.5t-114.5 -24.5q-36 0 -69 14.5t-56 37t-34 50t-3 54.5q6 20 21 34t35 14t32 -14t8 -34q-2 -11 -7.5 -21t-8.5 -18.5t-1 -15.5t15 -13q34 -14 65.5 -8.5t57 23.5t45 46t29.5 59.5t10 63.5t-12.5 57
t-39 41t-69.5 16l8 49q17 0 42.5 8t50.5 24t45 41t26 59q9 52 -11.5 82.5t-52 39.5t-64 -4t-47.5 -47q-7 -17 -5.5 -26.5t5.5 -16.5t8 -13t3 -16q-3 -18 -17.5 -32.5t-32.5 -14.5t-31 13t-16 30q-5 27 8.5 59t42.5 60.5t71.5 47.5t96.5 19q42 0 75.5 -13t54.5 -37
t29.5 -57.5t1.5 -73.5q-10 -59 -50.5 -96.5t-94.5 -57.5z" />
    <glyph glyph-name="four" unicode="4" horiz-adv-x="535" 
d="M539 292q13 -13 15.5 -28t-2 -30t-15 -27.5t-24.5 -19.5q-13 -7 -29.5 -6t-22.5 12q-8 11 -4 25t17 23q5 3 10 5q0 5 -7.5 7.5t-19.5 3.5q-6 -35 -11.5 -64t-9.5 -51q-4 -26 -8 -47q-5 -25 -5 -39t2 -22q2 -9 6 -12q-21 -14 -47 -19.5t-48 1.5t-34 28.5t-5 62.5
q4 20 8 46q4 22 9 51t11 63h-261q34 58 64.5 123.5t50.5 131t27.5 126.5t-4.5 109q38 7 67 0.5t46.5 -24t22 -44.5t-6.5 -61q-11 -35 -25 -74.5t-32 -79t-38.5 -77.5t-42.5 -71h143q10 59 21 119.5t19.5 109t14 80l5.5 31.5q7 40 27 62t44 29t48 1t41 -20q-5 -3 -10 -12
q-5 -8 -10 -22t-9 -38l-5.5 -31.5t-14 -80t-19.5 -109t-21 -119.5q27 -1 43 -4.5t29 -17.5z" />
    <glyph glyph-name="five" unicode="5" horiz-adv-x="506" 
d="M231 469q24 12 57.5 16.5t68 -1t68 -20t58 -39t36.5 -59t6 -80.5q-10 -71 -38.5 -124t-70 -89t-94 -54.5t-110.5 -18.5q-36 0 -69 14t-56.5 37t-34 50.5t-2.5 54.5q6 20 21 34t35 14t32 -14t8 -34q-2 -11 -7.5 -21t-8.5 -19t-1 -16t15 -12q36 -14 75 -8t73.5 27.5
t61 57.5t39.5 81q13 46 -0.5 86.5t-49.5 62.5t-92.5 18.5t-130.5 -45.5q0 -1 10 27l25 70t31.5 91.5t31 92.5t24 71t8.5 28q35 0 68 -8.5t71 -14.5t85 -3t110 26q-1 -64 -34.5 -94.5t-87.5 -37.5q-29 -4 -51.5 0t-41 11.5t-35 17.5t-34.5 19q0 1 -5 -13.5t-12.5 -36
t-16.5 -47t-16.5 -47.5t-13 -36.5z" />
    <glyph glyph-name="six" unicode="6" horiz-adv-x="461" 
d="M321 470q42 6 75.5 -12t55.5 -51t30 -78t-1 -94t-32 -91.5t-56 -74.5t-72.5 -50.5t-81.5 -18.5q-56 0 -91.5 32t-52.5 84.5t-17 120t14.5 137.5t42 137.5t65.5 120t85 84.5t100 32q51 0 84.5 -21t50.5 -52t17.5 -66.5t-15.5 -64.5q-9 -18 -28.5 -32t-39.5 -14t-29.5 15.5
t-6.5 35.5q2 11 8.5 17.5l14 14t13 18t4.5 28.5q-1 27 -15 41.5t-34.5 18t-44 -4t-41.5 -24.5q-20 -18 -38 -51t-32 -69t-22 -69.5t-7 -52.5q19 22 44 36t53 18zM249 58q15 0 30 14t28.5 38t25 56t17.5 69t6.5 69t-5 56t-15.5 38t-25 14q-14 0 -29 -14t-28.5 -38t-25 -56
t-17.5 -69t-6.5 -69t5 -56t15.5 -38t24 -14z" />
    <glyph glyph-name="seven" unicode="7" horiz-adv-x="448" 
d="M561 748q-1 -2 -16.5 -26.5t-39.5 -64.5t-53.5 -92.5t-59.5 -111.5t-57.5 -121t-47 -121t-28 -112t-1.5 -94q-41 -9 -72.5 0.5t-51.5 31t-26 52t5 64.5q20 62 56.5 133.5t80 142t88 135t81.5 112.5q-19 -8 -41 -19.5t-46.5 -21.5t-50 -16t-50.5 -3q-26 3 -45 12.5
t-29.5 25t-11 39t10.5 55.5q35 -15 64.5 -20.5t56.5 -5.5t55 4t61 9t74 9t94 4z" />
    <glyph glyph-name="eight" unicode="8" horiz-adv-x="488" 
d="M411 454q52 -28 78 -86t13 -131q-9 -49 -33.5 -92t-59.5 -75.5t-78 -51t-88 -18.5t-81.5 18.5t-60.5 51t-33.5 75.5t-0.5 92q6 36 21.5 69.5t37.5 61.5t50 50t59 36q-30 22 -44.5 57t-6.5 77q6 33 24 62.5t43.5 51t57.5 34t65 12.5q34 0 61.5 -12.5t46 -34t26 -51
t1.5 -62.5q-8 -42 -34 -77t-64 -57zM366 699q-25 0 -48.5 -32t-31.5 -79q-8 -46 4 -78.5t37 -32.5q12 0 24.5 9t23 24t19 35t12.5 43q8 47 -3.5 79t-36.5 32zM251 46q18 0 36.5 15t35 41t29 61t19.5 74q7 40 6.5 74.5t-8 60.5t-20.5 41t-31 15t-36.5 -15t-34.5 -41
t-29 -60.5t-20 -74.5q-7 -39 -6 -74t8 -61t20 -41t31 -15z" />
    <glyph glyph-name="nine" unicode="9" horiz-adv-x="461" 
d="M272 278q-42 -6 -75.5 12t-55.5 51t-30 78t1 94t32 91.5t56 74.5t72.5 50.5t81.5 18.5q56 0 91.5 -32t52.5 -84.5t17 -120t-14.5 -137.5t-42 -137.5t-65.5 -120t-85 -84.5t-100 -32q-51 0 -84.5 21t-50.5 52t-17.5 66.5t14.5 64.5q10 18 29.5 32t39.5 14t29.5 -15.5
t6.5 -35.5q-2 -11 -9 -17.5t-14 -14t-12.5 -18t-4.5 -28.5q1 -27 15 -41.5t34.5 -18t44 4t41.5 24.5q19 18 37.5 51t32.5 69t22 69.5t7 52.5q-19 -22 -44.5 -36t-52.5 -18zM344 690q-15 0 -30 -14t-28.5 -38t-25 -56t-17.5 -69t-6.5 -69t5 -56t15.5 -38t25 -14q14 0 29 14
t28.5 38t25 56t17.5 69t6.5 69t-5 56t-15.5 38t-24 14z" />
    <glyph glyph-name="A" unicode="A" horiz-adv-x="715" 
d="M644 95q-5 -25 -5 -39t2 -22q2 -9 5 -12q-17 -12 -40.5 -18t-44.5 -3q-32 3 -53 18t-36 38t-27 51.5t-26 59.5t-33.5 62t-48.5 58q-19 -65 -32 -132t-17.5 -130t1.5 -119.5t26 -101.5q-44 -17 -81.5 -8.5t-63 36t-37 69.5t-2.5 92q19 105 45.5 192t58.5 162
q-32 9 -51.5 0t-18.5 -24q-2 -8 -4 -13q-7 -17 -25 -26.5t-36 -4.5q-17 5 -23 20.5t2 33.5q11 24 30.5 41.5t44.5 27t53.5 11t56.5 -5.5q29 54 69 112.5t90 108t110 83t129 38.5h6q15 0 31 -3.5t27 -14t16.5 -30t-0.5 -52.5q-28 -156 -49 -277q-9 -52 -18 -102t-15.5 -89
t-11 -63zM357 351q40 -36 64 -73.5t39.5 -72t26.5 -64t26 -50.5v4l4.5 25.5t12 66.5t16.5 93.5t19 107.5q23 128 51 291q4 23 -8 25q-29 0 -61.5 -28t-65.5 -76t-65 -112t-59 -137z" />
    <glyph glyph-name="B" unicode="B" horiz-adv-x="733" 
d="M604 448q28 -12 51.5 -32.5t39.5 -47.5t22 -60t-1 -70q-11 -60 -36.5 -104.5t-61 -74.5t-79.5 -44.5t-90 -14.5q-50 0 -88 8.5t-62 28t-33.5 50.5t-1.5 77l80 449q4 26 -12 26v-6q-2 -8 -8 -13.5t-14 -5.5t-13.5 5.5t-3.5 13.5q2 13 12.5 22.5t25.5 15.5t32 8.5t32 2.5
t30.5 -3.5t27 -14t16.5 -30t-1 -52.5l-21 -122h1v2q42 1 67 8t39.5 20.5t21.5 33.5t12 49q2 16 0.5 39t-16 44.5t-47 36.5t-92.5 15q-66 0 -112.5 -19t-76 -44t-43 -48.5t-14.5 -33.5q-1 -5 2 -8t7 -6t8.5 -6t7.5 -7q1 -2 2 -5l2 -6q4 -16 -5 -31.5t-26 -22.5t-32.5 -1
t-19.5 23q-5 30 11.5 74t55 84.5t99 69t142.5 28.5q64 0 114.5 -12.5t84 -35t48 -55t7.5 -73.5q-8 -46 -31.5 -77t-59.5 -48zM463 85q27 0 48 13t35.5 34.5t24 49t14.5 56.5q6 31 1.5 63t-21.5 57t-48 41t-78 16l-42 -237h1q-6 -35 -1 -53.5t16 -27.5t25 -10.5t25 -1.5z" />
    <glyph glyph-name="C" unicode="C" horiz-adv-x="557" 
d="M385 -50q36 -7 68 4t56.5 29t41 36.5t20.5 26.5l12 -28q-9 -14 -27.5 -39.5t-47.5 -49t-69.5 -40t-93.5 -12.5q-61 4 -116.5 38t-90.5 96.5t-41.5 152t31.5 204.5q37 112 89.5 185t108.5 116.5t110 61.5t93 19q48 1 74.5 -16t37 -42t9.5 -52t-8 -46q-7 -20 -25 -34
t-38 -14t-30.5 13.5t-8.5 33.5q2 19 13 29t14 15q16 20 11 36.5t-24 23t-49 -0.5t-63.5 -34.5t-68.5 -79t-63 -133.5q-16 -45 -29 -97.5t-20 -105t-5.5 -102.5t15 -90t41 -68t73.5 -36z" />
    <glyph glyph-name="D" unicode="D" horiz-adv-x="748" 
d="M441 749q94 0 157.5 -32t99 -87t44.5 -129.5t-6 -159.5q-6 -32 -17 -69.5t-28.5 -75.5t-41 -73.5t-54 -62.5t-68.5 -43.5t-83 -16.5q-50 0 -87.5 8.5t-60.5 28t-31.5 50.5t-0.5 77l80 449q4 26 -12 26v-6q-2 -8 -8 -13.5t-14 -5.5t-13.5 5.5t-3.5 13.5q2 13 12.5 22.5
t25.5 15.5t32 8.5t32 2.5t30.5 -3.5t27 -14t16.5 -30t-1 -52.5l-71 -404h1q-6 -35 0 -56t19.5 -30t33 -7t39.5 13q28 16 49 56.5t35.5 87t23 88t10.5 59.5q8 58 2 115.5t-27.5 102.5t-58.5 73t-91 28q-66 0 -112.5 -19t-76 -44t-43 -48.5t-14.5 -33.5q-1 -5 2 -8t7 -6
t8.5 -6t7.5 -7q1 -2 2 -5l2 -6q4 -16 -5 -31.5t-26 -22.5t-32.5 -1t-19.5 23q-5 30 11.5 74t55 84.5t99 69t142.5 28.5z" />
    <glyph glyph-name="E" unicode="E" 
d="M498 594q-20 0 -31.5 13.5t-7.5 33.5q2 11 5 19.5t3 15t-4.5 13t-16.5 12.5q-2 1 -17 1.5t-37 -5.5t-46 -22t-44 -49q-18 -29 -21.5 -57t6 -50.5t30.5 -36.5t52 -15h7l-9 -49q-27 0 -53 -14.5t-47.5 -39.5t-37.5 -58.5t-23 -71.5t-3 -72t19 -59.5t43 -40.5t69 -15
q51 0 88 14.5t61 34.5t36.5 41t14.5 34h34q-6 -35 -28 -66.5t-54.5 -54.5t-74 -36.5t-86.5 -13.5q-71 0 -122 18.5t-82.5 50t-43 74.5t-2.5 91q11 66 58 120t112 84q-45 19 -64 55t-10 90q7 39 28.5 70t52.5 52t69.5 32t80.5 11q36 0 65.5 -8t50 -22.5t30.5 -34t6 -42.5
q-4 -20 -20 -33.5t-36 -13.5z" />
    <glyph glyph-name="F" unicode="F" horiz-adv-x="514" 
d="M740 748q-3 -52 -30 -78t-66 -28q-25 -2 -48.5 2.5t-46 11.5t-44.5 15.5t-44 15.5q-8 -42 -18 -99.5t-21 -120.5h105l-9 -49h-105q-11 -62 -21 -120t-18 -103q-10 -53 -18 -100q-5 -25 -5 -39t2 -22q2 -9 5 -12q-21 -14 -47 -20t-47.5 1t-33.5 29t-5 63l5 27.5t13 72.5
t18 103t21 120h-53l9 49h53q12 67 22.5 128t18.5 106q-40 -4 -64.5 -17.5t-38 -29.5t-18.5 -31.5t-6 -23.5q0 -5 2.5 -8.5t6.5 -6t8 -5.5t7 -7q3 -3 5 -11q5 -16 -5 -31.5t-27 -22.5t-31 0t-19 22q-11 28 -2 66t40 72t86 58t137 24q61 0 104 -10t78 -13q45 -5 83.5 0
t61.5 22z" />
    <glyph glyph-name="G" unicode="G" horiz-adv-x="714" 
d="M785 172q-14 -57 -39 -103q-11 -20 -24.5 -38.5t-31 -33.5t-39 -25t-46.5 -11l-13 -72q-4 -16 -7.5 -29.5t-8.5 -26.5q-11 -29 -30 -49.5t-42 -33.5t-47 -19.5t-45 -6.5t-41.5 7.5t-35.5 20.5t-23 31t-5 40q5 29 19.5 56.5t37 49.5t51.5 37.5t63 21.5q7 42 15 86
q7 38 15 83t16 88q-15 -36 -36 -79t-50.5 -79.5t-68 -61.5t-88.5 -25q-72 0 -116.5 28t-62.5 77.5t-9.5 118t41.5 150.5q41 99 100 170t126 116.5t136 66.5t131 21q47 0 78 -15.5t48 -38t21.5 -49.5t-2 -49.5t-23 -38t-41.5 -15.5q-20 0 -31.5 14t-7.5 34q2 14 11.5 25
t21.5 17q9 14 3.5 26t-18 20.5t-29.5 13t-31 4.5q-47 0 -98 -21.5t-97.5 -58.5t-86 -87.5t-63.5 -109.5q-36 -89 -42.5 -152.5t5 -104t35 -59.5t47.5 -18q46 2 81.5 38.5t62.5 87.5t47.5 105.5t36.5 92.5q11 30 30.5 46t41.5 20t43.5 -2t36.5 -19q-5 -3 -10 -12
q-5 -8 -9.5 -22t-8.5 -39q-1 -3 -4 -21t-8 -45.5t-11 -61.5t-12 -69q-14 -82 -32 -184q39 1 64 24.5t40.5 53t23 57.5t11.5 37h34zM470 -57q-30 -5 -53.5 -26t-35 -45.5t-10 -45.5t21.5 -27q17 -5 37 11.5t27 54.5z" />
    <glyph glyph-name="H" unicode="H" horiz-adv-x="795" 
d="M744 80q13 0 26 7.5t24 19.5t19 28t12 33h35q-18 -56 -42 -89t-49.5 -50.5t-50.5 -23t-43 -5.5q-41 0 -70 26t-31 83q-1 12 0.5 26t3.5 29h-1l33 185h-156q-9 -48 -17 -94t-14 -81t-10 -57l-4 -22q-5 -25 -5 -39t2 -22q2 -9 6 -12q-21 -14 -47 -20t-48 1t-34 29t-5 63
l4.5 24.5t11.5 64.5t16 91t18 104q22 124 50 283q3 19 -9 28t-32 9t-44.5 -9t-44.5 -26t-33 -42t-10 -57q0 -5 4 -7t9 -3.5t10 -4t7 -6.5q2 -2 3 -4.5t3 -5.5q4 -17 -5.5 -32.5t-27.5 -22.5q-17 -7 -29.5 0.5t-20.5 21.5q-10 16 -10 41t9.5 52.5t29 55t49 49.5t69.5 35.5
t91 13.5q28 0 51 -6t37.5 -19.5t20 -36t-0.5 -55.5t-13 -71q-6 -32 -13 -74t-15 -88h156l49 281q5 26 -10 26q-1 -2 -0.5 -3t0.5 -3q-2 -8 -9 -13.5t-15 -5.5t-12.5 5.5t-2.5 13.5q2 13 12.5 22.5t25 15.5t31.5 8.5t32 2.5t30.5 -3.5t27 -14t17 -30t-0.5 -52.5l-90 -507
q-3 -20 -1 -31.5t8 -18.5t15 -9t18 -2z" />
    <glyph glyph-name="I" unicode="I" horiz-adv-x="475" 
d="M393 95q-5 -25 -5 -39t2 -22q2 -9 6 -12q-21 -14 -47 -20t-48 1t-34 29t-5 63l4.5 24.5t11.5 64.5t16 91t18 104q22 124 50 283q4 19 -8.5 28t-32.5 9t-44.5 -9t-44.5 -26t-33 -42t-10 -57q0 -5 4 -7t9 -3.5t10 -4t7 -6.5q2 -2 3 -4.5t3 -5.5q4 -17 -5.5 -32.5
t-27.5 -22.5q-17 -7 -29.5 0.5t-20.5 21.5q-10 16 -10 41t9.5 52.5t29 55t49 49.5t69.5 35.5t91 13.5q28 0 51 -6t37.5 -19.5t20 -36t-0.5 -55.5l-48 -268q-9 -51 -17.5 -98.5t-15.5 -85.5q-8 -44 -14 -84z" />
    <glyph glyph-name="J" unicode="J" horiz-adv-x="495" 
d="M570 172q-14 -57 -39 -103q-11 -20 -24.5 -38.5t-31 -33.5t-39 -25t-46.5 -11l-13 -72q-6 -29 -15 -56q-11 -29 -30.5 -49.5t-42.5 -33.5t-47 -19.5t-45 -6.5t-41.5 7.5t-35.5 20.5t-23 31t-5 40q5 29 19.5 56.5t37 49.5t52 37.5t62.5 21.5l119 674q3 19 -9 28t-32 9
t-44.5 -9t-44.5 -26t-33 -42t-10 -57q0 -5 4 -7t9 -3.5t10 -4t7 -6.5q2 -2 3 -4.5t3 -5.5q4 -17 -5.5 -32.5t-27.5 -22.5q-17 -7 -29.5 0.5t-20.5 21.5q-10 16 -10 41t9.5 52.5t29 55t49 49.5t69.5 35.5t91 13.5q28 0 51 -6t37.5 -19.5t20 -36t-0.5 -55.5l-111 -631
q39 1 64 24.5t40.5 53t23 57.5t11.5 37h34zM255 -57q-30 -5 -53.5 -26t-35 -45.5t-10 -45.5t21.5 -27q18 -5 37.5 11.5t26.5 54.5z" />
    <glyph glyph-name="K" unicode="K" horiz-adv-x="737" 
d="M801 168q-17 -56 -41 -89t-49.5 -50.5t-50.5 -23t-43 -5.5q-41 0 -71 26t-30 83q0 25 4.5 57t9.5 65t9 64t3.5 55.5t-8 39.5t-25.5 15q-11 0 -25.5 -5t-26.5 -15q-9 -53 -18 -104.5t-16 -92.5t-12 -66.5l-5 -25.5q-5 -25 -5 -38.5t2 -21.5q2 -9 6 -12q-21 -14 -47 -20
t-48 1t-34 28.5t-5 62.5l4.5 25t11.5 65t16.5 91t18.5 104q22 125 50 283q3 19 -9.5 28t-32.5 9t-44.5 -9t-45 -26.5t-33.5 -42t-10 -56.5q1 -5 5 -7.5t9 -4t10 -3.5t8 -6l2.5 -5t1.5 -6q4 -16 -5.5 -32t-26.5 -23t-30 1t-21 22q-9 16 -9 41t9.5 52.5t29.5 55t49.5 49.5
t69.5 35.5t91 13.5q57 0 87.5 -26t19.5 -91l-30 -172q18 14 37.5 29.5t38.5 32t36 32t31 29.5q24 25 38 47.5t20 39t3.5 25t-11.5 4.5q-4 -2 -9 -2q-15 -1 -23.5 9t-6.5 24q2 15 14 25t26 10q24 1 37 -12.5t14.5 -36.5t-8.5 -52t-33 -59q-25 -33 -60.5 -67t-70.5 -64
q5 1 9 1h9q78 0 100 -59.5t1 -178.5l-16 -96l-1 -1q-3 -19 -1 -31t8 -18.5t15 -9t18 -2.5q13 0 26 7.5t23.5 19.5t18.5 28t13 33h34z" />
    <glyph glyph-name="L" unicode="L" horiz-adv-x="520" 
d="M916 -56q3 -14 -1 -42t-22 -56t-54.5 -48.5t-97.5 -20.5q-35 0 -64 16t-56.5 40.5t-55.5 53t-60.5 53t-72 40.5t-90.5 16q-27 0 -43 9.5t-23 24t-8 32t2 33.5l4.5 24.5t11.5 64.5t16 91t18 104q22 124 50 283q3 19 -9 28t-32 9t-44.5 -9t-44.5 -26t-33 -42t-10 -57
q0 -5 4 -7t9 -3.5t10 -4t7 -6.5q2 -2 3 -4.5t3 -5.5q4 -17 -5.5 -32.5t-27.5 -22.5q-17 -7 -29.5 0.5t-20.5 21.5q-9 17 -9.5 41.5t9 52t29 55t49 49.5t69.5 35.5t91 13.5q28 0 51 -6t37.5 -19.5t20 -36t-0.5 -55.5l-104 -588q42 0 82 -15t77.5 -35t71.5 -40.5t63 -31.5
q24 -9 55 -13t63.5 -2t62 11t49.5 27z" />
    <glyph glyph-name="M" unicode="M" horiz-adv-x="1010" 
d="M958 80q13 0 26 7.5t24 19.5t19 28t13 33h34q-18 -56 -42 -89t-49.5 -50.5t-50 -23t-43.5 -5.5q-41 0 -70 26t-31 83q-1 23 5 56l49 281l-156 -254q-12 -19 -19 -37q-6 -16 -8.5 -34t5.5 -33q13 -26 27.5 -41.5t31.5 -17.5q14 -3 15 -12.5t-25 -9.5q-51 0 -86 9.5
t-59 29.5t-39.5 52t-26.5 76q-15 56 -32.5 124.5t-33.5 134.5q-7 -39 -14 -79.5t-13.5 -77.5t-12 -67t-8.5 -49q-10 -58 -40 -93.5t-64.5 -52t-65 -14t-41.5 20.5q-7 11 -2.5 25.5t16.5 23.5q13 9 26.5 7t21.5 -13q1 -2 2 -4.5t1 -4.5q1 -9 10.5 -14t24 7t30 47.5
t28.5 107.5q0 3 4 22.5t9.5 50t12 68.5t13.5 77l36 207q6 32 -7.5 49t-37 21t-52 -4.5t-53 -26.5t-40.5 -44t-13 -58q1 -5 5 -7t9 -3.5t10 -4t7 -6.5q2 -2 2.5 -4.5t2.5 -5.5q4 -17 -5.5 -32.5t-26.5 -22.5t-30 0.5t-21 21.5q-15 27 -8.5 69.5t35.5 83t81 68.5t127 27
q16 0 33.5 -3.5t33 -14t28.5 -30t21 -52.5l105 -412q3 -14 6 -26.5t6 -25.5q22 36 51.5 84.5t62 101.5t64.5 105.5t58.5 96t44.5 73t22 36.5q15 26 39 45t55 21l-107 -607q-3 -19 -1 -31t8 -18.5t15 -9t18 -2.5z" />
    <glyph glyph-name="N" unicode="N" horiz-adv-x="804" 
d="M912 -50q10 9 17.5 11t10.5 -0.5t-0.5 -9.5t-15.5 -16q-4 -3 -14 -9.5t-22.5 -14t-27.5 -14.5t-30 -11q-18 -6 -38 -9.5t-40 -4.5t-38 1t-32 8q-42 16 -71 39t-50 57t-37 82t-33 114q-15 57 -32.5 125t-33.5 134q-7 -39 -14 -79t-13.5 -77t-12 -67.5t-8.5 -49.5
q-10 -57 -40 -93t-64.5 -52t-65 -13.5t-41.5 20.5q-7 11 -2.5 25.5t16.5 23.5q13 8 26.5 6.5t21.5 -12.5q1 -2 2 -4.5t1 -4.5q1 -9 10.5 -14t24 7t30 47.5t28.5 107.5q0 3 4 22.5t9.5 49.5t12 68t13.5 77l36 207q6 32 -7.5 49t-37 21t-52 -4t-53 -26t-40.5 -44t-13 -58
q1 -5 5 -7t9 -3.5t10 -4t7 -6.5q2 -2 2.5 -4.5t2.5 -5.5q4 -17 -5.5 -32.5t-26.5 -22.5t-30 0.5t-21 21.5q-9 17 -9.5 41.5t9 52t28 55t46.5 49.5t66.5 35.5t86.5 13.5h4h2q15 0 32.5 -3.5t33.5 -14t29.5 -30t22.5 -52.5q22 -90 44 -177q9 -37 19.5 -77.5t20.5 -80.5
t20.5 -78t19.5 -70q5 -16 9.5 -30.5t9.5 -28.5q15 82 30 168.5t28.5 163.5t24.5 138t16 93q10 58 40.5 93.5t64.5 52t64.5 14t41.5 -20.5q6 -11 2 -25.5t-17 -23.5q-13 -8 -26 -6.5t-21 12.5q-1 2 -2 4.5t-1 4.5q-1 9 -11 14t-24 -7t-30 -47.5t-29 -107.5q-6 -36 -18 -104
t-27 -151.5t-31 -175t-31 -173.5q48 -66 106.5 -82t118.5 10z" />
    <glyph glyph-name="O" unicode="O" horiz-adv-x="676" 
d="M575 704q29 -24 50.5 -58t33.5 -77t14 -92t-8 -103q-14 -77 -48 -145t-81 -119t-104 -80.5t-115 -29.5q-59 0 -105 29.5t-75.5 80.5t-40 119t3.5 145q14 78 48 146t81.5 118.5t103.5 80t115 29.5q36 0 68 -11.5t58 -31.5v-1h1zM325 49q31 0 63.5 25.5t61 70t50.5 103.5
t34 126q14 81 9.5 148t-24.5 112q-12 29 -31.5 35t-37.5 -3t-30.5 -28t-10.5 -40q1 -5 6 -7t11.5 -5.5t12 -9.5t7.5 -18q2 -16 -10 -30.5t-29 -21.5t-30 0.5t-21 21.5q-9 16 -9 38t8 44.5t22 44t34 38.5q-28 -11 -56 -39.5t-52 -71t-43 -95.5t-29 -113q-12 -67 -10.5 -126
t14.5 -103.5t36 -70t54 -25.5z" />
    <glyph glyph-name="P" unicode="P" horiz-adv-x="698" 
d="M437 749q64 0 119 -17.5t93.5 -50.5t56 -81t6.5 -111q-6 -36 -30 -74t-63 -69.5t-92 -52t-118 -21.5q-6 -36 -11.5 -68.5t-10.5 -56.5q-5 -28 -9 -52q-5 -25 -5 -39t2 -22q2 -9 6 -12q-21 -14 -47 -20t-47.5 1t-33.5 29t-5 63l4 22.5t10.5 59.5t14.5 83.5t17 94.5l46 258
q4 26 -12 26v-6q-2 -8 -8 -13.5t-14 -5.5t-13.5 5.5t-3.5 13.5q2 13 12.5 22.5t25.5 15.5t32 8.5t32 2.5t30.5 -3.5t27 -14t16.5 -30t-1 -52.5q-7 -41 -15 -86q-7 -38 -15.5 -86t-16.5 -97q44 0 77 17t55.5 42.5t35.5 56.5t19 60q7 34 2.5 72.5t-24 71t-56.5 54t-97 21.5
q-66 0 -112.5 -19t-76 -44t-43 -48.5t-14.5 -33.5q-1 -5 2 -8.5t7 -6t8.5 -5.5t7.5 -7q1 -2 2 -5l2 -6q4 -16 -5 -31.5t-26 -22.5t-32.5 -1t-19.5 23q-5 30 11.5 74t55 84.5t99 69t142.5 28.5z" />
    <glyph glyph-name="Q" unicode="Q" horiz-adv-x="683" 
d="M747 -96q6 17 11.5 14.5t2.5 -16.5q-2 -12 -7.5 -25t-10.5 -24q-18 -37 -52.5 -60.5t-74.5 -23.5q-26 0 -50.5 9t-46.5 20q-36 17 -70.5 36.5t-70.5 38.5q-34 18 -69.5 37.5t-78.5 19.5q-11 0 -23 -5q5 -4 5.5 -10t-2.5 -12t-8.5 -10t-12.5 -4q-12 0 -15.5 7t-2 16t6 19
t8.5 16q12 17 36 34t49 23q-50 9 -88.5 41.5t-62.5 82t-31.5 112.5t4.5 134q14 78 48 146t81.5 118.5t103.5 80t115 29.5q36 0 68 -11.5t58 -31.5v-1h1q29 -24 50.5 -58t33.5 -77t14 -92t-8 -103q-13 -74 -44.5 -139.5t-75.5 -115.5t-97.5 -81t-108.5 -37q2 0 4 -0.5t4 -0.5
h-1q14 -4 26.5 -9t26.5 -10q11 -5 21 -10t21 -10q37 -17 73 -35.5t73 -35.5q14 -6 28.5 -12t30.5 -10t32 -4.5t33 4.5q14 5 25.5 13.5t17.5 22.5zM224 374q-12 -67 -10.5 -126t14.5 -103.5t36 -70t54 -25.5t63.5 25.5t61 70t50.5 103.5t34 126q14 81 9.5 148t-24.5 112
q-12 29 -31.5 35t-37.5 -3t-30.5 -28t-10.5 -40q1 -5 6 -7t11.5 -5.5t12 -9.5t7.5 -18q2 -16 -10 -30.5t-29 -21.5q-18 -7 -30.5 0.5t-20.5 21.5q-9 16 -9 38t8 44.5t22 44t34 38.5q-28 -11 -56 -39.5t-52 -71t-43 -95.5t-29 -113z" />
    <glyph glyph-name="R" unicode="R" horiz-adv-x="707" 
d="M857 -50q10 9 17.5 11t10.5 -0.5t0 -9.5t-15 -16q-5 -3 -14.5 -9.5t-22.5 -14t-28 -14.5t-30 -11q-18 -6 -38 -9.5t-39.5 -4.5t-37.5 1t-32 8q-42 16 -71 39t-50 57t-37.5 82t-33.5 114q-5 23 -11.5 47t-13.5 50q-7 -36 -12 -67.5t-10 -55.5q-5 -28 -9 -52q-5 -25 -5 -39
t2 -22q2 -9 6 -12q-21 -14 -47 -20t-47.5 1t-33.5 29t-5 63l4 22.5t10.5 59.5t14.5 83.5t17 94.5l46 258q4 26 -12 26v-6q-2 -8 -8 -13.5t-14 -5.5t-13.5 5.5t-3.5 13.5q2 13 12.5 22.5t25.5 15.5t32 8.5t32 2.5t30.5 -3.5t27 -14t16.5 -30t-1 -52.5q-7 -41 -15 -86
q-7 -38 -15.5 -86t-16.5 -97q44 0 77 17t55.5 42.5t35.5 56.5t19 60q7 34 2.5 72.5t-24 71t-56.5 54t-97 21.5q-66 0 -112.5 -19t-76 -44t-43 -48.5t-14.5 -33.5q-1 -5 2 -8.5t7 -6t8.5 -5.5t7.5 -7q1 -2 2 -5l2 -6q4 -16 -5 -31.5t-26 -22.5t-32.5 -1t-19.5 23
q-5 30 11.5 74t55 84.5t99 69t142.5 28.5q64 0 119 -17.5t93.5 -50.5t56 -81t6.5 -111q-5 -27 -19 -55t-37 -54t-54 -48t-69 -37q8 -35 17 -68t18 -62q22 -78 54 -128t70 -75.5t79.5 -27.5t83.5 16z" />
    <glyph glyph-name="S" unicode="S" horiz-adv-x="567" 
d="M286 571q-6 -31 7 -56.5t37.5 -48t55.5 -44t60 -46.5t52.5 -54.5t32.5 -66.5q7 -30 3 -64t-19 -67.5t-40 -64t-60.5 -53.5t-80 -35.5t-98.5 -10.5q-59 -1 -102 23.5t-65.5 62t-22 82t28.5 83.5q12 17 27.5 27.5t35.5 10.5t31 -16t7 -36q-3 -14 -11.5 -20t-18 -10.5
t-17.5 -10.5t-8 -19q-7 -36 10.5 -60t48 -34.5t68 -7t69.5 22t53 52.5t19 85q-2 28 -23.5 53t-51.5 49.5t-63.5 50.5t-59 57.5t-37 70t1.5 88.5q12 44 35 78.5t55 58.5t70.5 36.5t80.5 12.5q74 0 111.5 -30.5t30.5 -76.5q-3 -20 -18.5 -33.5t-35.5 -13.5t-32.5 13.5
t-8.5 33.5q1 11 3.5 19.5t2.5 15t-4.5 13t-16.5 12.5q-4 3 -22.5 3t-41.5 -12t-45.5 -40.5t-33.5 -82.5z" />
    <glyph glyph-name="T" unicode="T" horiz-adv-x="517" 
d="M594 726q45 -5 83.5 0t61.5 22q-3 -53 -30 -78.5t-66 -27.5q-25 -2 -48.5 2.5t-46 11.5t-44.5 15.5t-44 15.5q-8 -43 -18.5 -103.5t-22.5 -126t-23.5 -130.5t-20.5 -116.5t-14.5 -83.5l-5.5 -32q-5 -25 -5 -39t2 -22q2 -9 5 -12q-21 -14 -47 -20t-47.5 1t-33.5 29t-5 63
l6 33t15 85.5t21 118.5t23.5 133t22.5 129t19 106q-40 -4 -64.5 -17t-38 -29t-18.5 -31.5t-6 -23.5q0 -5 2.5 -8.5t6.5 -6t8 -5.5t7 -7q3 -3 5 -11q5 -16 -5 -32t-27 -23t-31 0t-19 23q-11 28 -2 66t40 72t86 57.5t136 23.5q61 0 104.5 -9.5t78.5 -12.5z" />
    <glyph glyph-name="U" unicode="U" horiz-adv-x="786" 
d="M736 80q13 0 25.5 7.5t23.5 19.5t19 28t13 33h34q-17 -56 -41 -89t-49.5 -50.5t-50.5 -23t-43 -5.5q-36 0 -64 20t-36 64q-29 -38 -75.5 -61t-105.5 -23q-42 0 -71 26t-31 83q0 12 1 26t3 29l88 498q3 19 -9 28t-32 9t-44.5 -9t-44.5 -26t-33 -42t-10 -57q0 -5 4 -7
t9 -3.5t10 -4t7 -6.5q2 -2 3 -4.5t3 -5.5q4 -17 -5.5 -32.5t-27.5 -22.5q-17 -7 -29.5 0.5t-20.5 21.5q-9 17 -9.5 41.5t9 52t29 55t49 49.5t69.5 35.5t91 13.5q28 0 51 -6t37.5 -19.5t20 -36t-0.5 -55.5l-87 -490q-3 -20 0 -31.5t9.5 -18.5t16 -9t19.5 -2q47 0 74 27t36 61
q2 11 9 51t16.5 93.5t20 113.5t19.5 110t15 83.5t6 34.5q7 40 27 62t44 29t48 1t41 -20q-5 -3 -10 -12q-5 -8 -10 -22t-9 -38q0 -1 -4 -23.5t-10.5 -58t-14.5 -81t-16.5 -93t-16.5 -93t-14 -81.5t-10.5 -58.5t-4.5 -24.5q-3 -20 -1 -31.5t8 -18.5t14.5 -9t18.5 -2z" />
    <glyph glyph-name="V" unicode="V" horiz-adv-x="820" 
d="M812 769q26 -1 40 -20.5t14 -53.5q1 -35 -9.5 -78t-28.5 -91q-13 -35 -31.5 -76t-39.5 -84.5t-43.5 -87.5t-44.5 -84q-51 -95 -108 -194h-75q-23 0 -36 10t-20 23q-8 14 -11 33l-53 596q-3 19 -18 27.5t-35.5 8.5t-42.5 -9t-40 -25.5t-29 -41.5t-8 -57q0 -5 4 -7t9 -3.5
t10 -4t7 -6.5q2 -2 3 -5t2 -5q4 -17 -5 -32.5t-27 -22.5q-17 -7 -29.5 0.5t-20.5 21.5q-10 16 -10.5 41t8 52.5t27 55t47 49.5t68 35.5t90.5 13.5q57 0 90 -26.5t38 -86.5l50 -557q6 12 21.5 40.5t36 67.5t44 85.5t46 93t42.5 90t34 78.5q12 31 20 58.5t11.5 48t3.5 32
t-3 10.5q-4 -2 -7.5 -2h-6.5q-19 0 -29.5 13t-7.5 32q4 18 19 31.5t34 12.5z" />
    <glyph glyph-name="W" unicode="W" horiz-adv-x="1165" 
d="M1193 695q1 -35 -9.5 -78t-28.5 -91q-13 -35 -31.5 -76t-39.5 -84.5t-43.5 -87.5t-44.5 -84q-51 -95 -108 -194h-75q-23 0 -36 10t-20 23q-8 14 -11 33l-20 222q-29 -57 -57 -108.5t-50 -91.5q-26 -47 -49 -88h-75q-23 0 -36.5 10t-20.5 23q-8 14 -11 33l-53 596
q-3 19 -18 27.5t-35 8.5t-42.5 -9t-40.5 -25.5t-29 -41.5t-8 -57q0 -5 4 -7t9.5 -3.5t10 -4t6.5 -6.5q2 -2 3 -5t3 -5q4 -17 -5.5 -32.5t-26.5 -22.5t-30 0.5t-21 21.5q-9 16 -10 41t8 52.5t27.5 55t47 49.5t68 35.5t90.5 13.5q57 0 90 -26.5t38 -86.5l49 -557q3 5 14 26
t26 50.5t33 63.5t34.5 66t30 58t19.5 39l-26 281q-3 14 -10 24t-24 10q2 11 10 20.5t18 16.5t20.5 11t17.5 4q28 0 47.5 -6.5t31.5 -20t18.5 -35t8.5 -51.5l50 -557q6 12 21.5 40.5t36 67.5t44 85.5t46 93t42.5 90t34 78.5q12 31 20 58.5t11.5 48t3.5 32t-3 10.5
q-5 -2 -14 -2q-19 0 -29.5 13t-7.5 32q4 18 19 31.5t34 12.5q26 -1 40 -20.5t14 -53.5z" />
    <glyph glyph-name="X" unicode="X" horiz-adv-x="813" 
d="M928 -50q10 9 17.5 11t10.5 -0.5t-0.5 -9.5t-15.5 -16q-4 -3 -14 -9.5t-22.5 -14t-27.5 -14.5t-30 -11q-18 -6 -38 -9.5t-39.5 -4.5t-38 1t-32.5 8q-42 16 -69.5 39t-48 57t-37 82t-36.5 114q-2 5 -10.5 34.5t-20.5 72.5q-20 -31 -38.5 -58t-31.5 -46
q-60 -84 -109.5 -123.5t-86 -49t-57.5 3t-23 31.5q-2 11 4.5 28.5t23.5 26.5q8 4 17 5t17 -1.5t13.5 -6.5t6.5 -10q0 -5 -1 -8q-4 -9 3.5 -14.5t27.5 6.5t52.5 47.5t79.5 107.5q14 22 36 55t46 71q-14 50 -29 102t-28 95q-15 50 -29 97q-7 22 -23.5 34.5t-37.5 15
t-42.5 -4.5t-37 -23t-22 -40t2.5 -56q1 -5 6.5 -6.5t12.5 -2.5t13.5 -3t11.5 -7q11 -18 2.5 -39t-25.5 -28q-16 -7 -33.5 -3t-30.5 23q-20 29 -20 71.5t23 82t71 67.5t124 28q57 0 96 -28t57 -88q5 -18 11 -38q5 -18 12 -41.5t15 -51.5l26 39t22 32q60 85 109.5 124t86 48.5
t58 -3t23.5 -30.5q1 -11 -5.5 -29t-23.5 -27t-34 -3.5t-19 16.5q0 2 -0.5 4.5t1.5 4.5q3 9 -4.5 14t-27 -7t-52.5 -47.5t-80 -107.5q-23 -36 -62 -93q13 -45 26.5 -90.5t25 -84t20 -65.5t11.5 -35q25 -79 54.5 -128.5t64 -74t72.5 -25.5t80 17z" />
    <glyph glyph-name="Y" unicode="Y" horiz-adv-x="772" 
d="M838 172q-14 -57 -39 -103q-11 -20 -24.5 -38.5t-31 -33.5t-39 -25t-46.5 -11l-13 -72q-6 -29 -15 -56q-11 -29 -30.5 -49.5t-42.5 -33.5t-47 -19.5t-44 -6.5q-21 0 -41.5 7.5t-36 20.5t-23.5 31t-5 40q5 29 19.5 56.5t37 49.5t52 37.5t62.5 21.5q1 9 4 21q2 10 4.5 24.5
t5.5 32.5q-29 -31 -71.5 -48.5t-94.5 -17.5q-42 0 -71 26t-31 83q0 12 1 26t3 29l88 498q3 19 -9 28t-32 9t-44.5 -9t-44.5 -26t-33 -42t-10 -57q0 -5 4 -7t9 -3.5t10 -4t7 -6.5q2 -2 3 -4.5t3 -5.5q4 -17 -5.5 -32.5t-27.5 -22.5q-17 -7 -29.5 0.5t-20.5 21.5
q-9 17 -9.5 41.5t9 52t29 55t49 49.5t69.5 35.5t91 13.5q28 0 51 -6t37.5 -19.5t20 -36t-0.5 -55.5l-87 -490q-3 -20 0 -31.5t9.5 -18.5t16 -9t19.5 -2q47 0 74 27t36 61l86 486q7 40 27 62t44 29t48 1t41 -20q-5 -3 -10 -12q-5 -8 -10 -22t-9 -38q-1 -3 -6.5 -33t-13.5 -77
t-18.5 -105.5t-20.5 -118.5q-25 -142 -56 -320q39 1 64 24.5t40.5 53t23 57.5t11.5 37h34zM523 -57q-30 -5 -53.5 -26t-35 -45.5t-10 -45.5t21.5 -27q18 -5 37.5 11.5t26.5 54.5z" />
    <glyph glyph-name="Z" unicode="Z" horiz-adv-x="605" 
d="M598 -52q4 -14 0.5 -42t-21.5 -56t-54.5 -48.5t-97.5 -20.5q-36 0 -65 16t-56.5 40.5t-55.5 53t-60.5 53t-72 40.5t-90.5 16h-1h-6l454 635q5 7 9.5 13t9.5 12q-35 -8 -68.5 -17t-65 -16t-60 -9.5t-53.5 1.5q-32 5 -47.5 17t-20.5 27t-1 30.5t12 27.5q7 11 22.5 20.5
t34.5 6.5q17 -4 23 -21t-1 -28l-3.5 -3.5l-3.5 -3.5q-5 -3 -3 -11.5t20 -10.5q31 -3 70.5 8.5t84.5 27t93.5 29t98.5 13.5q32 0 47 -8t21 -18q7 -11 5 -26q-17 0 -30.5 -10t-24.5 -24l-459 -640q26 -11 51.5 -24.5t49 -27t45 -26t41.5 -19.5q24 -9 55.5 -13.5t63.5 -2.5
t61.5 11.5t48.5 27.5z" />
    <glyph glyph-name="a" unicode="a" horiz-adv-x="481" 
d="M551 168q-17 -56 -41 -89t-49.5 -50.5t-50.5 -23t-43 -5.5q-34 0 -60 17t-36 54q-21 -30 -54.5 -50.5t-70.5 -20.5q-39 0 -65.5 19t-40 51.5t-14.5 75.5t11 92t35 92.5t53.5 75.5t66.5 51t75 19q23 0 37.5 -12.5t22.5 -30.5q13 21 32 31t39 11.5t38.5 -4.5t31.5 -17
q-5 -3 -10 -12q-5 -8 -10 -22t-9 -39q0 -2 -3.5 -19.5t-8 -43.5t-9.5 -55.5t-10 -56t-8.5 -45t-3.5 -20.5q-3 -20 -1 -31.5t8 -18.5t14.5 -9t18.5 -2q13 0 25.5 7.5t23.5 19.5t19 28t13 33h34zM196 78q18 0 31.5 11t22.5 27t14.5 33.5t7.5 28.5q2 13 6 35.5t8.5 48t9 50
t7.5 42.5q5 26 0.5 38.5t-21.5 12.5q-18 0 -35 -13.5t-31 -37t-26.5 -53.5t-21.5 -63t-12.5 -62t-0.5 -50.5t13 -34.5t28 -13z" />
    <glyph glyph-name="b" unicode="b" horiz-adv-x="469" 
d="M604 364q-8 -26 -25 -49t-40.5 -41t-52 -28.5t-58.5 -10.5q-7 0 -10 1q-11 -59 -36 -103.5t-58.5 -74t-72 -44t-75.5 -14.5q-41 0 -72 8.5t-50.5 28t-26.5 50.5t1 77l83 466q4 26 -12 26q1 -2 0.5 -3t-0.5 -3q-2 -8 -8 -13.5t-14 -5.5t-13 5.5t-3 13.5q2 13 12.5 22.5
t25 15.5t31.5 8.5t32 2.5t31 -3.5t27.5 -14t16.5 -30t-1 -52.5l-24 -139q17 9 35 12.5t31 3.5q30 0 55.5 -13t45 -36.5t31 -55.5t13.5 -70q14 -8 32 -8q42 0 76 22t51 61zM216 90q26 12 43.5 51t27.5 97q6 31 6.5 67t-8 64.5t-28 43t-53.5 2.5l-42 -237q-6 -35 -2.5 -55
t12.5 -29t21 -9t23 5z" />
    <glyph glyph-name="c" unicode="c" horiz-adv-x="354" 
d="M419 170q-10 -30 -32.5 -62.5t-55 -58.5t-72 -40t-84.5 -8q-38 5 -69.5 24.5t-52 50t-26.5 72t6 90.5t35 92.5t54 76t67.5 51.5t75.5 19q18 0 37 -4.5t34 -15t23.5 -26.5t6.5 -38q0 -1 -1 -2q-3 -20 -19.5 -34t-36.5 -14t-31 14t-8 34q2 5 3.5 9.5t4.5 9.5
q-18 6 -39.5 -15t-39.5 -56t-30 -78.5t-10.5 -83.5t19 -69.5t58.5 -36.5q29 -5 54.5 4t45 24.5t32.5 35t17 35.5h34z" />
    <glyph glyph-name="d" unicode="d" horiz-adv-x="481" 
d="M547 168q-17 -56 -41 -89t-49.5 -50.5t-50.5 -23t-43 -5.5q-34 0 -60 17t-36 54q-21 -30 -54.5 -50.5t-70.5 -20.5q-39 0 -65.5 19t-40 51.5t-14.5 75.5t11 92t35 92.5t53.5 75.5t66.5 51t75 19q18 0 31 -8t21 -21l33 183q4 26 -12 26q1 -2 0.5 -3t-0.5 -3
q-2 -8 -8 -13.5t-14 -5.5t-13 5.5t-3 13.5q2 13 12.5 22.5t25 15.5t31.5 8.5t32 2.5t31 -3.5t27.5 -14t16.5 -30t-1 -52.5l-81 -458q-3 -20 -1 -31.5t8 -18.5t14.5 -9t18.5 -2q13 0 25.5 7.5t23.5 19.5t19 28t13 33h34zM192 78q18 0 31.5 11t22.5 27t14.5 33.5t7.5 28.5
l31 178q5 25 0.5 37t-21.5 12q-18 0 -35 -13.5t-31 -37t-26.5 -53.5t-21.5 -63t-12.5 -62t-0.5 -50.5t13 -34.5t28 -13z" />
    <glyph glyph-name="e" unicode="e" horiz-adv-x="390" 
d="M458 168q-11 -42 -38.5 -76.5t-65.5 -57t-84 -31.5t-93 0q-37 7 -69 26t-52.5 49t-27.5 70t5 89t35 93t53.5 76t66.5 51t75 19h4q29 0 52 -12t36.5 -32.5t17 -47t-6.5 -54.5t-24.5 -49t-31 -36.5t-34.5 -26t-35 -17.5q-40 -17 -86 -19q-3 -41 12 -67.5t40.5 -39.5t58 -13
t63 12t56.5 35.5t39 58.5h34zM301 322q7 16 6.5 32t-5.5 28.5t-14 20.5t-19 9q-13 0 -30 -13.5t-33.5 -39t-28.5 -60t-14 -76.5q54 9 88 34.5t50 64.5z" />
    <glyph glyph-name="f" unicode="f" horiz-adv-x="239" 
d="M304 172q-14 -57 -39 -103q-11 -20 -24.5 -38.5t-31 -33.5t-39 -25t-46.5 -11l-13 -72q-4 -16 -7.5 -29.5t-8.5 -26.5q-11 -29 -30 -49.5t-41.5 -33.5t-46.5 -19.5t-45 -6.5t-41.5 7.5t-35.5 20.5t-23 31t-5 40q5 29 19.5 56.5t37 49.5t51.5 37.5t63 21.5q5 33 16 95
q9 53 24.5 140t39.5 221h-30l5 32h30l12 63q14 79 61 119.5t122 40.5q25 0 44 -10.5t31 -28t15.5 -39t-2.5 -42.5q-6 -19 -21 -32.5t-35 -13.5q-19 0 -30 13t-7 33q3 17 15.5 29.5t29.5 16.5q-12 10 -28 10q-20 0 -36.5 -14t-21.5 -46l-18 -99h49l-5 -32h-49l-78 -444
q39 1 64 24.5t40.5 53t23 57.5t11.5 37h34zM-10 -57q-30 -5 -53.5 -26t-35 -45.5t-10 -45.5t21.5 -27q18 -5 37.5 11.5t26.5 54.5z" />
    <glyph glyph-name="g" unicode="g" horiz-adv-x="472" 
d="M539 172q-14 -57 -39 -103q-11 -20 -24.5 -38.5t-31 -33.5t-39 -25t-46.5 -11l-13 -72q-4 -16 -7.5 -29.5t-8.5 -26.5q-11 -29 -30 -49.5t-42 -33.5t-47 -19.5t-45 -6.5t-41.5 7.5t-35.5 20.5t-23 31t-5 40q5 29 19.5 56.5t37 49.5t51.5 37.5t63 21.5l3 15q2 8 3.5 18
t3.5 24q-20 -20 -46.5 -32.5t-55.5 -12.5q-39 0 -65.5 19t-40 51.5t-14.5 75.5t11 92t35 92.5t53.5 75.5t66.5 51t75 19q21 0 35.5 -12t24.5 -30q14 21 33 30.5t38.5 11t38 -4.5t31.5 -17q-5 -3 -10 -12q-5 -8 -10 -22t-9 -39q-1 -4 -4 -22t-8 -45.5t-11 -61.5t-12 -69
q-14 -82 -32 -183q39 1 64 24.5t40.5 53t23 57.5t11.5 37h34zM224 -57q-30 -5 -53.5 -26t-35 -45.5t-10 -45.5t21.5 -27q18 -5 37.5 11.5t26.5 54.5zM190 78q16 0 29 10t22 24.5t15 30.5t9 29l33 190q2 22 -2.5 32.5t-19.5 10.5q-18 0 -35 -13.5t-31 -37t-26.5 -53.5
t-21.5 -63t-12.5 -62t-0.5 -50.5t13 -34.5t28 -13z" />
    <glyph glyph-name="h" unicode="h" horiz-adv-x="488" 
d="M555 168q-17 -56 -41 -89t-49.5 -50.5t-50.5 -23t-43 -5.5q-42 0 -71.5 25.5t-30.5 83.5q0 25 4.5 57t9.5 65t9.5 64t3.5 55.5t-8 39.5t-25 15q-9 0 -20 -3t-21.5 -9.5t-18.5 -16t-10 -22.5q-9 -48 -17 -94.5t-14.5 -83t-10.5 -59l-4 -22.5q-5 -25 -5 -39t2 -22
q2 -9 6 -12q-21 -14 -47 -20t-47.5 1t-34 29t-5.5 63l4 23.5t11 61t15.5 85.5t17.5 98q21 117 47 267q4 26 -12 26q1 -2 0.5 -3t-0.5 -3q-2 -8 -8 -13.5t-14 -5.5t-13 5.5t-3 13.5q2 13 12.5 22.5t25 15.5t31.5 8.5t32 2.5t31 -3.5t27.5 -14t16.5 -30t-1 -52.5
q-5 -22 -9 -48q-4 -23 -9 -53t-11 -64q21 17 50 29.5t58 12.5q78 0 100.5 -59.5t1.5 -178.5q-8 -48 -11.5 -68.5t-4.5 -27.5l-1 -1q-3 -20 -1 -31.5t8 -18.5t14.5 -9t18.5 -2q13 0 25.5 7.5t23.5 19.5t19 28t13 33h34z" />
    <glyph glyph-name="i" unicode="i" horiz-adv-x="243" 
d="M232 584q-5 -27 -27 -46t-49 -19t-43 19t-11 46t27.5 46t49.5 19t42.5 -19t10.5 -46zM276 168q-5 -17 -13 -33t-19 -28t-23.5 -19.5t-25.5 -7.5q-10 0 -18.5 2t-14.5 9t-8 18.5t1 31.5q0 2 3.5 20.5t8.5 45t10 56t9.5 55.5t8 43.5t3.5 19.5q4 25 9 39t10 22q5 9 10 12
q-17 14 -41 20t-48 -1t-44 -29t-27 -63q0 -1 -2 -11t-4.5 -25t-6 -34.5t-7.5 -39.5q-9 -48 -19 -107q-2 -15 -3 -29t-1 -26q2 -57 31 -83t71 -26q18 0 43 5.5t50.5 23t49.5 50.5t41 89h-34z" />
    <glyph glyph-name="j" unicode="j" horiz-adv-x="226" 
d="M231 584q-5 -27 -27 -46t-49 -19t-43 19t-11 46t27.5 46t49.5 19t42.5 -19t10.5 -46zM304 172h-34q-4 -9 -11.5 -37t-23 -57.5t-40.5 -53t-64 -24.5q18 101 32 183q6 35 12 69t11 61.5t8 45.5t4 22q4 25 9 39t10 22q5 9 10 12q-17 14 -41 20t-48 -1t-44 -29t-27 -63
q-1 -3 -4 -21.5t-8 -47t-11.5 -63.5t-12.5 -71q-15 -84 -33 -190q-34 -6 -63 -21.5t-51.5 -37.5t-37 -49.5t-19.5 -56.5q-3 -22 5 -40t23 -31t35.5 -20.5t41.5 -7.5t45 6.5t46.5 19.5t41.5 33.5t30 49.5q5 13 8.5 26.5t7.5 29.5l13 72q25 1 46.5 11t39 25t31 33.5t24.5 38.5
q25 46 39 103zM-87 -201q-20 6 -21.5 27t10 45.5t35 45.5t53.5 26l-13 -78q-7 -38 -26.5 -54.5t-37.5 -11.5z" />
    <glyph glyph-name="k" unicode="k" horiz-adv-x="437" 
d="M147 95q-4 -23 -4.5 -37t1 -22t3.5 -11l2 -3q-21 -14 -47 -20t-47.5 1t-33.5 29t-5 63l95 535q4 26 -12 26q1 -2 0.5 -3t-0.5 -3q-2 -8 -8 -13.5t-14 -5.5t-13 5.5t-3 13.5q2 13 12.5 22.5t25 15.5t31.5 8.5t32 2.5t31 -3.5t27.5 -14t16.5 -30t-1 -52.5l-41 -233
q30 45 59 68.5t52.5 33t40.5 9.5t24 -1q26 -3 41.5 -14.5t22 -29t5 -39t-10.5 -42.5q-17 -42 -48 -68t-69 -44q0 -1 -0.5 -13t1 -30t4.5 -38.5t11.5 -37.5t22 -28.5t34.5 -11.5q13 0 25.5 7.5t23.5 19.5t19 28t13 33h34q-17 -56 -41 -89t-49.5 -50.5t-50.5 -23t-43 -5.5
q-35 0 -58 14t-37.5 36.5t-21.5 49.5t-9.5 53.5t-1.5 49t3 35.5q38 28 74 58.5t55 73.5q4 10 8 25.5t-7 23.5q-1 0 -8.5 2t-23.5 -6.5t-42 -33.5t-63 -79l-37 -207v0z" />
    <glyph glyph-name="l" unicode="l" horiz-adv-x="243" 
d="M310 168q-17 -56 -41 -89t-49.5 -50.5t-50.5 -23t-43 -5.5q-42 0 -71 26t-31 83q0 12 1 26t3 29l83 466q4 26 -12 26q1 -2 0.5 -3t-0.5 -3q-2 -8 -8 -13.5t-14 -5.5t-13 5.5t-3 13.5q2 13 12.5 22.5t25 15.5t31.5 8.5t32 2.5t31 -3.5t27.5 -14t16.5 -30t-1 -52.5
l-81 -458q-3 -20 -1 -31.5t8 -18.5t15 -9t18 -2q13 0 25.5 7.5t23.5 19.5t19 28t13 33h34z" />
    <glyph glyph-name="m" unicode="m" horiz-adv-x="723" 
d="M790 168q-17 -56 -41 -89t-49.5 -50.5t-50.5 -23t-43 -5.5q-42 0 -71.5 25.5t-30.5 83.5q0 25 4.5 57t9.5 65t9 64t3.5 55.5t-7.5 39.5t-25 15q-9 0 -20 -3t-21.5 -9.5t-18.5 -16t-10 -22.5q2 -49 -10 -113l-0.5 -3t-3 -16.5t-7.5 -43t-15 -83.5q-5 -25 -5 -39t2 -22
q2 -9 6 -12q-21 -14 -47 -20t-48 1t-34 29t-5 63q0 1 3 17.5t7 39t8 46.5t7 40q5 32 8.5 62t2.5 53.5t-9 37.5t-25 14q-9 0 -20 -3t-21.5 -9.5t-18.5 -16t-10 -22.5q-5 -25 -12.5 -68t-15 -85.5t-13 -73.5t-5.5 -32q-5 -25 -5 -39t2 -22q2 -9 6 -12q-21 -14 -47 -20t-47.5 1
t-34 29t-5.5 63q4 23 8 49q4 22 9 50t10 57l28 156q5 26 -11 26v-6q-2 -8 -8.5 -13.5t-14.5 -5.5t-12.5 5.5t-2.5 13.5q2 13 12.5 22.5t25 15.5t31 8.5t31.5 2.5q12 0 24.5 -2t23 -7t18.5 -15t11 -26q20 20 52 35t64 15q83 0 104 -67q9 13 23 25t31.5 21.5t37 15t39.5 5.5
q78 0 100.5 -59.5t1.5 -178.5q-8 -48 -11.5 -68.5t-4.5 -27.5l-1 -1q-3 -20 -1 -31.5t8 -18.5t14.5 -9t18.5 -2q15 0 28.5 8.5t24 22t18 28.5t10.5 29h34z" />
    <glyph glyph-name="n" unicode="n" horiz-adv-x="488" 
d="M555 168q-17 -56 -41 -89t-49.5 -50.5t-50.5 -23t-43 -5.5q-42 0 -71.5 25.5t-30.5 83.5q0 25 4.5 57t9.5 65t9.5 64t3.5 55.5t-8 39.5t-25 15q-9 0 -20 -3t-21.5 -9.5t-18.5 -16t-10 -22.5q-5 -25 -12.5 -68t-15 -85.5t-13 -73.5t-5.5 -32q-5 -25 -5 -39t2 -22
q2 -9 6 -12q-21 -14 -47 -20t-47.5 1t-34 29t-5.5 63q4 23 8 49q4 22 9 50t10 57l28 156q5 26 -11 26v-6q-2 -8 -8.5 -13.5t-14.5 -5.5t-12.5 5.5t-2.5 13.5q2 13 12.5 22.5t25 15.5t31 8.5t31.5 2.5q12 0 24.5 -2t23 -7t18.5 -15t11 -26q20 20 52 35t64 15
q78 0 100.5 -59.5t1.5 -178.5q-8 -48 -11.5 -68.5t-4.5 -27.5l-1 -1q-3 -20 -1 -31.5t8 -18.5t14.5 -9t18.5 -2q13 0 25.5 7.5t23.5 19.5t19 28t13 33h34z" />
    <glyph glyph-name="o" unicode="o" horiz-adv-x="433" 
d="M566 376q-8 -28 -24.5 -52.5t-39 -43.5t-49.5 -30.5t-55 -13.5q-9 -49 -31.5 -92t-53.5 -75t-68.5 -50.5t-76.5 -18.5t-70 19t-51 51t-27 75.5t1 92.5q8 45 27 85t46 71.5t60 52t68 26.5q15 3 29 3q39 0 72 -19q19 -4 32 -16t21.5 -28.5t13.5 -35.5t8 -36q5 -25 5 -48h9
q42 0 76 22t51 61h27zM207 78q17 0 34 12.5t32 34.5t26.5 51t17.5 62q1 3 1.5 6.5t1.5 6.5q-36 19 -54 56.5t-10 85.5q0 3 1 4q-20 -3 -37 -19q-23 -20 -41.5 -57.5t-26.5 -82.5q-6 -33 -4.5 -62t9 -51t20.5 -34.5t30 -12.5z" />
    <glyph glyph-name="p" unicode="p" horiz-adv-x="489" 
d="M555 168q-17 -56 -41 -89t-49.5 -50.5t-50.5 -23t-43 -5.5q-42 0 -71.5 25.5t-30.5 83.5q0 13 2.5 34.5t5 42.5t5 36.5l2.5 15.5q6 33 9 63t0 53.5t-12.5 37t-27.5 13.5q-21 0 -37 -14.5t-23 -36.5q-5 -26 -13.5 -76t-19 -109t-21.5 -120.5t-20 -112.5t-14.5 -83.5
l-5.5 -32.5q-5 -25 -5 -39t2 -22q2 -9 6 -12q-21 -14 -47.5 -19.5t-47.5 1.5t-33 28.5t-5 62.5l4.5 25.5t11.5 66.5t16 94t19 108q22 128 51 293q5 26 -11 26v-6q-2 -8 -8.5 -13.5t-14.5 -5.5t-12.5 5.5t-2.5 13.5q2 13 12.5 22.5t25 15.5t31 8.5t31.5 2.5q12 0 24.5 -2
t23.5 -8t18.5 -16.5t10.5 -27.5q16 24 43.5 39t57.5 15q39 0 66.5 -19t42.5 -51t17.5 -75.5t-9.5 -92.5l-2.5 -14t-5.5 -31.5t-5.5 -32.5t-2.5 -18l-1 -1q-3 -20 -1 -31.5t8 -18.5t14.5 -9t18.5 -2q13 0 25.5 7.5t23.5 19.5t19 28t13 33h34z" />
    <glyph glyph-name="q" unicode="q" horiz-adv-x="506" 
d="M570 172q-10 -43 -35 -76q-21 -29 -60.5 -52t-103.5 -23q-2 -8 -2.5 -13.5t-1.5 -10.5t-2 -9q28 -6 48.5 -20.5t33 -35.5t16.5 -47t-1 -55q-4 -22 -16 -41.5t-29 -33.5t-37.5 -22.5t-41.5 -8.5q-20 0 -42 6.5t-40 19.5t-30.5 33.5t-13.5 49.5q0 13 1 26.5t4 29.5
q5 27 9 54q4 23 8.5 50t9.5 52q-21 -20 -47 -32.5t-55 -12.5q-39 0 -65.5 19t-40 51.5t-14.5 75.5t11 92t35 92.5t53.5 75.5t66.5 51t75 19q23 0 37.5 -12.5t22.5 -30.5q13 21 32 31t38.5 11.5t38 -4.5t31.5 -17q-5 -3 -10 -12q-5 -8 -9.5 -22t-8.5 -39q-1 -5 -6.5 -36
t-13.5 -77t-18 -100.5t-19 -106.5q50 0 80 14.5t46.5 33.5t22.5 37.5t9 26.5h34v-1zM192 78q16 0 29 9.5t22 24t14.5 30.5t8.5 28q5 29 10.5 58t10 54.5t8 46.5t6.5 34q2 22 -3 32t-20 10q-18 0 -35 -13.5t-31 -37t-26.5 -53.5t-21.5 -63t-12.5 -62t-0.5 -50.5t13 -34.5
t28 -13zM383 -201q19 8 25.5 31t2 47.5t-18.5 44t-35 21.5l-13 -78q-7 -38 6.5 -56t32.5 -10z" />
    <glyph glyph-name="r" unicode="r" horiz-adv-x="429" 
d="M520 347q-4 -12 -14.5 -29t-27 -32.5t-38 -27.5t-47.5 -14q-51 -3 -79 12.5t-39 39t-7.5 51t16.5 48.5q7 11 -4.5 15.5t-29 0.5t-35 -18t-22.5 -39l-7.5 -42.5t-9.5 -54t-10.5 -57.5t-9.5 -52t-6.5 -38l-2.5 -15q-5 -25 -5 -39t2 -22q2 -9 6 -12q-21 -14 -47 -20t-47.5 1
t-34 29t-5.5 63l2.5 14t6.5 36t9 50t10 57q12 69 27 155q5 26 -11 26v-6q-2 -8 -8.5 -13.5t-14.5 -5.5t-12.5 5.5t-2.5 13.5q2 13 12.5 22.5t25 15.5t31 8.5t31.5 2.5q12 0 24.5 -2t23 -7t18.5 -15t11 -26q20 20 52 35t64 15q40 0 62 -10t31.5 -24.5t9.5 -29t-3 -23.5
q-5 -14 -11.5 -24.5t-12 -19.5t-9 -17.5t-2.5 -18.5q3 -20 19 -23.5t35.5 3.5t37.5 23t26 35h22z" />
    <glyph glyph-name="s" unicode="s" horiz-adv-x="318" 
d="M383 169q-15 -45 -38 -75t-50 -48.5t-56 -28t-55 -13.5t-47.5 -4h-33.5q-22 -1 -47 4t-44.5 19.5t-30 38.5t-4.5 60q7 38 24.5 54t34.5 20q21 32 41 70.5t36 70.5l36 76q12 28 31.5 43t41.5 18.5t43 -2t35 -18.5q-7 -3 -12 -12q-5 -8 -9.5 -22t-7.5 -39q-3 -21 2.5 -46
t9.5 -57t1.5 -71.5t-20.5 -87.5q-12 -33 -34 -58q24 4 44.5 14.5t35.5 25.5t25 32.5t14 35.5h34zM81 80q7 0 16.5 4t18.5 12.5t17 22t11 32.5q4 26 4 47t-2 39.5t-5.5 35.5t-4.5 37q-19 -40 -35.5 -71t-28.5 -54q12 -12 9 -34q-3 -16 -15 -27.5t-27 -13.5q-1 -17 13.5 -23.5
t28.5 -6.5z" />
    <glyph glyph-name="t" unicode="t" horiz-adv-x="243" 
d="M310 168q-17 -56 -41 -89t-49.5 -50.5t-50.5 -23t-43 -5.5q-42 0 -71 26t-31 83q0 12 1 26t3 29l50 280h-35l5 32h35l12 65q4 26 -12 26q1 -3 0 -6q-1 -8 -7.5 -13.5t-14.5 -5.5t-12.5 5.5t-3.5 13.5q3 13 13.5 22.5t25 15.5t31 8.5t31.5 2.5t31 -3.5t27.5 -14t16.5 -30
t-1 -52.5l-6 -34h44l-5 -32h-44l-54 -303q-3 -20 -1 -31.5t8 -18.5t15 -9t18 -2q13 0 25.5 7.5t23.5 19.5t19 28t13 33h34z" />
    <glyph glyph-name="u" unicode="u" horiz-adv-x="484" 
d="M548 168q-18 -56 -42 -89t-49.5 -50.5t-50 -23t-43.5 -5.5q-34 0 -60.5 18t-36.5 58q-18 -24 -37 -39t-37.5 -23.5t-35.5 -11t-30 -2.5q-42 0 -71 26t-31 83q0 12 1 26t3 29q10 59 19 107q4 20 7.5 39.5t6 34.5t4.5 25t2 11q7 41 27 63t44 29t48 1t41 -20q-5 -3 -10 -12
q-5 -8 -10 -22t-9 -39q0 -2 -3.5 -19.5t-8 -43.5t-9.5 -55.5t-10 -56t-8.5 -45t-3.5 -20.5q-3 -20 -1 -31.5t8 -18.5t14.5 -9t18.5 -2q20 0 37.5 15t29.5 38q1 8 2 15.5t2 15.5q10 59 19 107q4 20 7.5 39.5t6 34.5t4.5 25t2 11q7 41 26.5 63t43.5 29t48.5 1t40.5 -20
q-5 -3 -10 -12q-5 -8 -10 -22t-9 -39q0 -2 -3.5 -19.5t-8 -43.5t-9.5 -55.5t-10 -56t-8.5 -45t-3.5 -20.5q-3 -20 -1 -31.5t8 -18.5t15 -9t18 -2q13 0 26 7.5t24 19.5t19 28t13 33h34z" />
    <glyph glyph-name="v" unicode="v" horiz-adv-x="428" 
d="M563 389q-6 -30 -25 -49t-43 -26.5t-49.5 -4t-45.5 17.5q-17 -55 -45.5 -113t-65 -105.5t-78.5 -78t-85 -30.5q-42 0 -71 26t-31 83q0 12 1 26t3 29q10 59 19 107q4 20 7.5 39.5t6 34.5t4.5 25t2 11q7 41 27 63t44 29t48 1t41 -20q-5 -3 -10 -12q-5 -8 -10 -22t-9 -39
q0 -2 -3.5 -19.5t-8 -43.5t-9.5 -55.5t-10 -56t-8.5 -45t-3.5 -20.5q-3 -20 -1 -31.5t8 -18.5t14.5 -9t18.5 -2q21 0 45 27.5t47.5 68t43.5 87t32 84.5q-20 15 -30.5 42.5t-10.5 54t11 45.5t35 18q35 -2 45 -35.5t2 -84.5q8 -22 27 -32t40 -8t39 15.5t24 38.5z" />
    <glyph glyph-name="w" unicode="w" horiz-adv-x="686" 
d="M800 388q-6 -30 -26 -48.5t-44.5 -25.5t-49.5 -4t-42 17q-17 -55 -45.5 -113t-65.5 -105.5t-79 -78t-85 -30.5q-34 0 -60.5 18t-36.5 58q-18 -24 -37 -39t-37.5 -23.5t-35.5 -11t-30 -2.5q-42 0 -71 26t-31 83q0 12 1 26t3 29q10 59 19 107q4 20 7.5 39.5t6 34.5t4.5 25
t2 11q7 41 27 63t44 29t48 1t41 -20q-5 -3 -10 -12q-5 -8 -10 -22t-9 -39q0 -2 -3.5 -19.5t-8 -43.5t-9.5 -55.5t-10 -56t-8.5 -45t-3.5 -20.5q-3 -20 -1 -31.5t8 -18.5t14.5 -9t18.5 -2q20 0 37.5 15t29.5 38q1 8 2 15.5t2 15.5q10 59 19 107q4 20 7.5 39.5t6 34.5t4.5 25
t2 11q7 41 26.5 63t43.5 29t48.5 1t40.5 -20q-5 -3 -10 -12q-5 -8 -10 -22t-9 -39q0 -2 -3.5 -19.5t-8 -43.5t-9.5 -55.5t-10 -56t-8.5 -45t-3.5 -20.5q-3 -20 -1 -31.5t8 -18.5t15 -9t18 -2q21 0 45.5 26.5t47.5 66.5t43 86t32 84q-19 9 -30.5 35.5t-12.5 55.5t10 51t38 22
q35 -1 45 -35t2 -85q8 -24 27 -34t39.5 -7.5t38.5 16.5t25 39z" />
    <glyph glyph-name="x" unicode="x" horiz-adv-x="476" 
d="M544 168q-12 -38 -27.5 -65.5t-32.5 -46.5t-35 -30t-35 -17q-14 -5 -27 -7t-24 -2h-3q-20 0 -40.5 9.5t-38 25t-31.5 35t-22 39.5q-4 8 -6.5 16.5t-4.5 17.5q-43 -35 -75.5 -70.5t-41.5 -72.5h-50q4 22 18.5 45t36 47t48 47.5t54.5 46.5l-47 202q-1 5 -4 10t-6.5 6t-8 -4
t-8.5 -18q-10 -27 -20.5 -64t-20.5 -70l-22 -80h-34q1 4 8.5 30t18.5 61t23 73.5t21 68.5q3 11 10 25.5t19.5 26.5t32.5 18.5t49 2.5q15 -2 26.5 -8.5t21 -19.5t17.5 -34t14 -54l20 -85q10 8 18 15.5t16 14.5q20 19 34.5 39.5t22 37.5t8 27.5t-6.5 9.5q-5 0 -13 2
q-17 5 -24 20.5t1 33.5t26 28t35 5q21 -6 31 -25t6.5 -46.5t-21 -62t-52.5 -72.5q-16 -18 -34 -35t-38 -34l21 -90q5 -29 15.5 -45.5t23.5 -22.5q16 -7 29.5 -3.5t20.5 5.5q27 9 46.5 36.5t27.5 56.5h34z" />
    <glyph glyph-name="y" unicode="y" horiz-adv-x="461" 
d="M532 172q-17 -59 -42 -105q-11 -20 -24 -39t-29.5 -33.5t-35.5 -24t-41 -9.5l-13 -72q-6 -29 -15 -56q-11 -29 -30.5 -49.5t-42.5 -33.5t-47 -19.5t-44 -6.5q-21 0 -41.5 7.5t-36 20.5t-23.5 31t-5 40q5 29 19.5 56.5t37 49.5t52 37.5t62.5 21.5q1 7 3 17q2 8 4 19.5
t4 25.5q-31 -32 -63 -41t-55 -9q-42 0 -71 26t-31 83q0 12 1 26t3 29q10 59 19 107q4 20 7.5 39.5t6 34.5t4.5 25t2 11q7 41 27 63t44 29t48 1t41 -20q-5 -3 -10 -12q-5 -8 -10 -22t-9 -39q0 -2 -3.5 -19.5t-8 -43.5t-9.5 -55.5t-10 -56t-8.5 -45t-3.5 -20.5
q-3 -20 -1 -31.5t8 -18.5t14.5 -9t18.5 -2q18 0 34.5 13t28.5 33q7 41 14.5 84.5t14 80.5t11 62t5.5 28q7 41 27 63t44 29t48 1t41 -20q-5 -3 -10 -12q-5 -8 -10 -22t-9 -39q-1 -4 -4 -22t-8 -45.5t-11 -61.5t-12 -69q-14 -82 -32 -183q31 4 53.5 25.5t38 48.5t25.5 54.5
t15 43.5h33zM225 -57q-30 -5 -53.5 -26t-35 -45.5t-10 -45.5t21.5 -27q18 -5 37.5 11.5t26.5 54.5z" />
    <glyph glyph-name="z" unicode="z" horiz-adv-x="453" 
d="M530 175q-10 -44 -28 -79q-15 -31 -39.5 -58t-61.5 -35q-7 -51 -32.5 -101t-68 -89t-102.5 -63.5t-136 -24.5q-41 0 -69.5 18t-41 45.5t-8 61t30.5 64.5q37 45 89.5 65.5t129.5 20.5q22 0 41.5 1.5t37.5 3.5q1 31 -9.5 59t-34.5 50t-63 35t-94 13l151 196q20 27 37 46
q-29 -5 -59 -6t-58 8q-18 6 -32 18t-21.5 27.5t-5 34t17.5 36.5q13 16 31.5 20.5t32.5 -4.5q14 -10 15.5 -28t-10.5 -34q-2 -3 -5 -5.5t-5 -4.5q-8 -6 -1 -11t22 -8t34.5 -2.5t38.5 5.5q32 10 70 19t67 7q25 0 38.5 -8t17.5 -22q-7 -3 -25.5 -13.5t-46.5 -44.5
q-31 -36 -59 -74t-57 -76q36 -10 63 -29t45 -44.5t27.5 -56.5t9.5 -64q16 3 31.5 17t27.5 33.5t21 41t12 39.5h34zM92 -201q32 1 61 15.5t52 38t39.5 53.5t23.5 62q-20 -3 -42 -4.5t-47 -2.5q-43 -1 -74 -13.5t-50 -31t-26 -39.5t-2.5 -38.5t21 -29t44.5 -10.5z" />
    <glyph glyph-name="x.alt" unicode="&#xe01f;" horiz-adv-x="421" 
d="M488 168q-12 -38 -27 -65.5t-32 -46.5t-35 -30t-35 -17q-14 -5 -27.5 -7t-24.5 -2h-3q-28 0 -51.5 13t-41.5 33.5t-30.5 46t-18.5 50.5q-44 -35 -76 -70.5t-41 -72.5h-50q4 22 18.5 45t35.5 47t47.5 47.5t54.5 46.5l-46 202q-4 17 -10 28t-12 17t-11.5 8.5t-8.5 4.5
q14 17 39 25.5t61 2.5q15 -2 26.5 -8.5t21 -19.5t17.5 -34t14 -54l19 -85q11 8 19 15.5t16 14.5q20 19 34.5 39.5t22 37.5t8 27.5t-6.5 9.5q-4 0 -7 0.5t-7 1.5q-17 5 -23.5 20.5t1.5 33.5t25.5 28t34.5 5q21 -6 31 -25t7 -46.5t-20.5 -62t-52.5 -72.5q-16 -18 -34.5 -35
t-38.5 -34q7 -44 15 -73t16 -47t16 -26.5t14 -11.5q15 -7 29 -3.5t21 5.5q27 9 46 36.5t27 56.5h34z" />
    </font>
</defs>
</svg>
