<?xml version="1.0" standalone="no"?>
<!DOCTYPE svg PUBLIC "-//W3C//DTD SVG 1.1//EN" "http://www.w3.org/Graphics/SVG/1.1/DTD/svg11.dtd" >
<svg xmlns="http://www.w3.org/2000/svg" xmlns:xlink="http://www.w3.org/1999/xlink" version="1.1">
<metadata>
Created by FontForge 20170731 at Tue Jan  9 14:18:03 2018
 By Aleksey,,,
Amsterdam (c) Lettersiro 2017. All Rights Reserved
</metadata>
<defs>
<font id="Amsterdam-Four" horiz-adv-x="3170" >
  <font-face 
    font-family="Amsterdam Four"
    font-weight="400"
    font-stretch="normal"
    units-per-em="2048"
    panose-1="2 0 5 0 0 0 0 0 0 0"
    ascent="1638"
    descent="-410"
    x-height="666"
    cap-height="3279"
    bbox="-1610.71 -1712 7392 4054.13"
    underline-thickness="150"
    underline-position="-442"
    unicode-range="U+001D-E242"
  />
<missing-glyph horiz-adv-x="2253" 
d="M220 -300v3155h1813v-3155h-1813zM330 -190h1593v2935h-1593v-2935zM715 2226q68 61 128 94q116 66 246 66q202 0 325.5 -104.5t123.5 -280.5q0 -108 -50.5 -216.5t-191.5 -284.5q-139 -176 -218 -290.5t-79 -218.5q0 -83 53 -292h-71q-77 213 -77 325q0 168 179.5 480
t179.5 477q0 126 -72.5 198.5t-200.5 72.5q-84 0 -152 -37q-57 -33 -123 -88v99zM856 435l125 127q24 22 44 22q22 0 49 -24l123 -132q20 -24 20 -44q0 -24 -22 -48l-124 -137q-30 -30 -46 -30q-24 0 -44 22l-134 156q-15 20 -15 39q0 22 24 49z" />
    <glyph glyph-name="ah" unicode="ah" horiz-adv-x="1896" 
d="M1938 516v0q24 -6 23 -21.5t-16 -31.5q-18 -15 -40 -28q-64 -40 -115.5 -63t-122.5 -47q-101 -31 -131.5 15t-11.5 123q29 115 34.5 167.5t-34 36t-145.5 -108.5q-145 -125 -248 -286q-14 -22 -32.5 -36.5t-47.5 -14.5q-26 0 -38 15.5t-1 37.5q61 130 121 260
q105 220 209 440l154 330q28 66 59 132q-83 -77 -195.5 -222.5t-235.5 -312.5q-156 -215 -296 -389t-223 -216q-93 -42 -159 -22t-90 119q-24 -18 -59 -46q-40 -31 -71 -49q-85 -52 -187 -48q-74 4 -101.5 46t2.5 112q51 113 141 201q104 96 233 156q69 33 143 26
q77 -6 91 -86q6 -24 -11 -44q-27 -22 -58 -11q-4 3 -6 4t-5 3q-33 44 -66 37.5t-70 -30.5q-169 -99 -253 -275q-4 -9 -5.5 -19t7.5 -14q18 -9 43 2t49.5 28.5t39.5 30.5q2 0 5 2q79 66 156 137q35 37 86 42q74 2 59 -66q-7 -25 -13 -47q-11 -41 -22 -83q-2 -24 14.5 -37.5
t40.5 -6.5q79 31 223 202.5t311 391.5q165 215 310.5 390t231.5 219q8 11 23.5 19t32 9t27.5 -4q13 -8 13 -17t-4 -22q-2 -2 -2 -7q-18 -57 -42 -114q-128 -306 -277 -603q-9 -20 -27 -48q-22 -40 -40.5 -78.5t-11 -51.5t58.5 22q15 9 31 20q39 28 81 55q35 22 82 24
q103 6 116 -95q5 -42 -3 -81.5t-19 -78.5q-2 -11 -4 -20q-18 -68 9.5 -79t77 11t100.5 50q35 20 61.5 32t39.5 12z" />
    <glyph glyph-name="eh" unicode="eh" horiz-adv-x="1748" 
d="M1792 518v0q24 -6 22 -21.5t-17 -30.5q-16 -16 -38 -29q-64 -40 -115.5 -63t-121.5 -47q-104 -31 -133.5 15.5t-9.5 123.5q28 114 32.5 167t-35 36.5t-143.5 -109.5q-145 -125 -248 -286q-13 -22 -32 -36t-47 -14q-27 0 -39 15t-1 37q62 130 121 260q106 220 209 440
q77 165 152 330q31 66 61 132q-52 -55 -116 -143t-139 -196q-92 -136 -197.5 -279t-217 -274t-222.5 -206t-226.5 -84.5t-217.5 51t-80 200.5q26 121 129.5 186t222.5 61v0q30 -2 59 -9q48 -18 62.5 -55t-7.5 -81q-59 -97 -172 -104q-72 -6 -145 11q-15 2 -23 -5.5
t-10 -22.5q-11 -86 66 -117q95 -33 192 -4q90 26 226.5 151.5t276.5 303.5q117 150 225 299q101 143 190 256.5t157.5 173t107.5 37.5q13 -9 14.5 -18t-3.5 -22q-2 -2 -2 -7q-20 -57 -42 -114q-127 -306 -277 -603q-11 -20 -26 -48q-22 -40 -41 -78.5t-12.5 -51.5t59.5 22
q16 9 29 20q42 28 83 55q36 22 80 24q105 7 118 -95q5 -41 -3 -81t-19 -79q-2 -11 -4 -20q-18 -68 9.5 -79t77 11t100.5 50q35 20 61.5 32t39.5 12zM182 620v0q-9 -7 -9 -17t9 -16q37 -20 79 -17t69.5 28.5t18.5 62.5q-4 14 -15 18t-25 2q-74 -11 -127 -61z" />
    <glyph glyph-name="ih" unicode="ih" horiz-adv-x="1522" 
d="M1564 516v0q26 -6 24 -21.5t-17 -31.5q-18 -15 -38 -28q-64 -40 -116.5 -63t-123.5 -47q-101 -31 -130.5 15t-9.5 123q28 115 32.5 167.5t-35 36t-145.5 -108.5q-143 -125 -248 -286q-14 -22 -31.5 -36.5t-45.5 -14.5q-27 0 -39 15.5t-3 37.5q61 130 123 260
q103 220 207 440q79 167 154 332q31 66 61 130q-70 -66 -158 -174t-187 -238q-134 -173 -272.5 -340.5t-267.5 -290.5t-219 -122t-106.5 63.5t7.5 142.5q40 121 114 228q18 25 49 31q24 7 41.5 -6.5t11.5 -32.5q-16 -38 -36 -75q-6 -13 -11 -27q-6 -11 -13 -22
q-37 -68 -50 -140q-7 -62 29.5 -56.5t88 44t93.5 78t48 46.5q207 226 471 539q246 295 374 433q15 13 38.5 34t48.5 33t47 1q13 -8 13 -17t-4 -22q0 -2 -2 -7q-18 -57 -42 -114q-128 -306 -275 -603q-11 -20 -26 -48q-25 -40 -42.5 -78.5t-11 -51.5t57.5 22q15 9 31 20
q39 28 81 55q38 22 82 24q105 6 116 -95q5 -42 -2 -81.5t-18 -78.5q-4 -11 -6 -20q-16 -68 10.5 -79t76 11t102.5 50q33 20 60.5 32t38.5 12zM273 862v0q-5 -5 -21.5 -11.5t-35 -7.5t-28.5 6.5t-1 31.5q15 47 35 80t48 70q18 20 39 21t36.5 -12t10.5 -35q-24 -84 -83 -143z
" />
    <glyph glyph-name="oh" unicode="oh" horiz-adv-x="1419" 
d="M1461 518v0q24 -6 22 -21.5t-18 -30.5q-15 -16 -37 -29q-64 -40 -115.5 -63t-122.5 -47q-103 -31 -132.5 15.5t-10.5 123.5q29 114 33.5 167t-35 36.5t-143.5 -109.5q-145 -125 -248 -286q-14 -22 -32.5 -36t-47.5 -14q-26 0 -38 15t-1 37q59 130 121 260
q105 220 209 440q77 165 152 332q30 64 61 130q-57 -57 -200 -249q-106 -138 -227 -290t-233 -268q38 -40 29 -102q-7 -33 -22 -61q-117 -220 -274 -224.5t-191.5 69t14.5 168.5q35 75 97 130q19 17 41 29.5t47 12.5q17 0 37 -7q7 -2 13 -4q16 2 31 11q4 2 9 2q33 13 66 11
q13 2 28 0q11 -2 20 -5v0q121 130 247.5 282t238.5 290q110 137 187 227t102 103q6 11 22.5 19t33 9t25.5 -3q13 -9 14 -18t-3 -22q-2 -2 -2 -7q-20 -57 -42 -114q-128 -306 -277 -603q-11 -20 -27 -48q-22 -40 -40.5 -78.5t-12 -51.5t59.5 22q15 9 29 20q41 28 83 55
q35 22 79 24q106 7 119 -95q5 -41 -3 -81t-19 -79q-2 -11 -4 -20q-18 -68 9.5 -79t77 11t100.5 50q35 20 61.5 32t39.5 12zM295 602v0q-66 2 -119 -35q16 -11 44.5 -9t78.5 42q-2 2 -4 2zM141 336v0q84 28 142 97.5t58 124.5q-77 -66 -131 -78t-76 52q-44 -47 -63.5 -97.5
t-4 -81t74.5 -17.5z" />
    <glyph glyph-name="uh" unicode="uh" horiz-adv-x="1930" 
d="M1975 518v0q25 -6 23.5 -21.5t-16.5 -30.5q-18 -16 -40 -29q-63 -40 -115 -63t-122 -47q-101 -31 -132 15.5t-11 123.5q28 114 33.5 167t-34 36.5t-144.5 -109.5q-146 -125 -249 -286q-13 -22 -32 -36t-45 -14q-29 0 -41 15t-1 37q62 130 121 258q106 222 209 442
q77 165 154 332q29 64 60 130q-110 -128 -245 -334q-103 -152 -222 -311.5t-255 -296t-293 -220.5q-52 -28 -116 -28q-49 0 -68.5 18.5t-26.5 67.5v35v33q-33 -29 -61 -53q-64 -55 -121 -101q-60 -49 -135 -60q-59 -8 -92 22.5t-26 90.5q4 48 19 96q58 161 116 245.5
t84.5 56t8.5 -67.5l-8 -22q-14 -38 -29 -75q-33 -82 -66 -165q-24 -71 -8.5 -82t49.5 10t65 50q123 110 228 240q25 30 51 59q11 11 22 24q26 27 66 27q26 -3 39.5 -17t6.5 -38q-9 -33 -20 -69l-8 -26l-14 -44q-15 -46 -30 -95q-31 -114 68 -55q114 69 241.5 202t254 293.5
t239.5 314.5q92 125 168 222t126 145q14 14 39 31.5t51.5 26t44.5 0.5q13 -9 13 -18t-5 -22q-2 -2 -2 -7q-17 -57 -42 -114q-127 -306 -277 -603q-9 -20 -24 -48q-24 -40 -41.5 -78.5t-11 -51.5t56.5 22q16 9 31 20q40 28 82 55q35 22 81 24q103 7 117 -95q4 -41 -3.5 -81
t-18.5 -79q-3 -11 -5 -20q-17 -68 10.5 -79t77 11t99.5 50q35 20 61.5 32t39.5 12z" />
    <glyph glyph-name="gg" unicode="gg" horiz-adv-x="1598" 
d="M172 45v0q31 82 26.5 107t-38.5 13t-89 -43q-35 -22 -77 -44q-253 -127 -493 -275q-106 -57 -189 -140q-88 -88 6 -157q55 -41 122.5 -57.5t148.5 -16.5q95 -7 176 32.5t150 118.5q41 51 79 108q110 170 178 354zM106 378v0q26 -11 75.5 17.5t101.5 78t82.5 101
t15.5 86.5q-4 11 -13 20q-16 18 -35.5 18t-41.5 -9q-73 -26 -129 -93.5t-74.5 -132t18.5 -86.5zM949 -18v0q30 88 26 115.5t-38.5 14t-89.5 -48.5q-35 -22 -77 -44q-253 -136 -492 -293q-106 -61 -190 -149q-88 -95 7 -167q55 -44 122 -62t149 -18q94 -6 175.5 35.5
t149.5 125.5q42 55 79 114q110 181 179 377zM883 336v0q26 -11 75.5 18.5t101 82.5t82.5 108t16 92q-5 11 -14 20q-15 20 -35 19t-42 -8q-72 -29 -128 -99t-75 -139.5t19 -93.5zM775 512q13 33 37 66q57 83 148.5 130.5t197.5 36.5q11 0 22 -2q28 -5 58 -5t60 14
q33 13 49.5 -8t5.5 -54q-28 -62 -57 -125q-20 -40 -37 -82q-20 -44 -40 -90q-26 -59 -7.5 -62.5t64.5 20.5l14 5q83 39 169 79q59 26 119 55q39 17 81 28q9 3 19 0.5t14 -8.5q7 -11 0.5 -22t-20.5 -18q-90 -44 -180 -90l-216 -110q-15 -7 -30 -16q-25 -13 -49 -24
q-55 -26 -72 -83q-49 -137 -102 -271q-68 -178 -169 -341q-57 -92 -139 -165q-96 -90 -222 -114q-207 -42 -398 26q-79 29 -136 90q-36 38 -40 79q-90 -70 -202 -92q-207 -37 -399 26q-79 27 -136 86q-77 77 -7 167q31 38 69 71q85 72 184 130q355 215 729 393h2
q39 20 77 40q6 4 17 19.5t16.5 31t-3 22t-41.5 -6.5q-13 -4 -24 -9q-29 -15 -58 -22q-171 -42 -171 121q4 99 62.5 178.5t149.5 123.5t197 35l22 -5q29 -4 58.5 -3t60.5 12q33 11 49.5 -7.5t5.5 -49.5l-57 -119q-20 -37 -38 -77q-20 -39 -39 -86q-27 -55 -8 -57t65 20l13 4
q84 36 169 73zM753 437q-18 -9 -38 -18q-107 -50 -215 -103q-16 -7 -31 -15l-48 -22q-55 -25 -73 -80q-48 -127 -101 -255q-49 -116 -112 -226q35 24 70 46q354 226 728 418h2q40 20 77 42q7 4 18 20.5t16.5 33t-3.5 24t-42 -7.5q-13 -4 -24 -11q-28 -13 -57 -24
q-172 -42 -172 132q0 24 5 46z" />
    <glyph glyph-name="ll" unicode="ll" horiz-adv-x="724" 
d="M436 351q-36 -31 -73 -57q-110 -77 -225.5 -89t-139.5 126q-18 137 166 558t291 690q9 24 27 42q24 24 57 11q11 -5 22 -16t7 -39q-473 -1122 -458 -1220t126.5 -48.5t227.5 225.5l5 9q44 158 145 387q182 420 290 688q9 25 27 42q24 24 57 11q11 -4 22 -15t6 -40
q-453 -1045 -461.5 -1238.5t24.5 -266t-53 -21t-90 234.5q-3 13 0 26z" />
    <glyph glyph-name="oo" unicode="oo" horiz-adv-x="1405" 
d="M666 413q-88 -38 -161 -18q-33 9 -60.5 0t-66.5 -57q-104 -123 -247 -139q-105 -8 -139 41.5t-23 126.5q8 77 52 146t115 129q53 44 108 35q28 0 37 -20q4 -13 -4.5 -23t-21.5 -19q-110 -88 -143 -207q-18 -57 0 -103q15 -37 63 -11q49 31 96 86t69 112t3 101
q-16 16 -29 24q-7 5 -12.5 9.5t-2.5 10.5q8 40 44.5 57.5t81.5 17.5t78 -17.5t33 -52.5q-2 -44 -22 -88q-13 -38 13 -58q58 -52 183 18l11 11q35 48 86 90q46 40 99 33q22 0 31 -20q2 -11 -6 -20.5t-16 -16.5h-3q-92 -73 -127 -185q-16 -48 0 -90q13 -35 55 -11q46 29 88 76
t61.5 99t-0.5 91q-11 16 -24 22q-6 2 -10.5 6.5t-2.5 11.5q9 33 41 49.5t72.5 16.5t68 -15.5t29.5 -46.5q-2 -39 -20 -79q-8 -33 14 -51q48 -46 132 -33q33 5 63.5 17t57.5 23q37 15 68 24q26 5 30.5 -0.5t-2.5 -21.5q-11 -24 -30.5 -41.5t-74.5 -43t-122 -33t-144 18.5
q-27 9 -52 1.5t-61 -51.5q-90 -108 -220 -124q-92 -8 -123 36t-24 116q4 20 11 40z" />
    <glyph glyph-name="tt" unicode="tt" horiz-adv-x="864" 
d="M389 279q-17 -16 -35 -29q-64 -51 -135.5 -81.5t-132.5 -26.5q-86 11 -113.5 72.5t-17.5 146.5t38 166q64 203 163 409l46 102q9 17 51 103q4 7 9 15h-128q-39 -2 -68 9q-15 7 -20.5 14.5t0.5 20.5q7 14 23.5 20.5t31.5 6.5q66 2 130 2h66q7 13 11 20l84 165l55 110l2 2
q4 11 11 22q33 48 81 44q42 -2 27 -48q-14 -31 -27 -60l-11 -26h-2l-31 -66q-39 -77 -77 -156l-4 -7h97q129 -2 198 0l8 18q47 92 60 118q44 91 88 179q31 61 61 121l3 4q4 11 11 24q33 51 83 46q40 -2 22 -52q-11 -33 -26 -64l-13 -29h-3q-17 -37 -33 -75q-44 -83 -83 -169
q-22 -46 -57 -117l-5 -4l152 -2h178h18q22 0 51.5 -2.5t-5.5 -35.5t-77 -28h-18l-264 -2q-35 -3 -68 -3l-2 -4q-68 -143 -129.5 -286t-108.5 -284q-35 -112 -39 -215q-5 -58 11.5 -89.5t58.5 -27.5q77 15 136.5 59t107.5 95q49 51 95 84q20 11 25.5 7.5t3 -15.5t-8.5 -23
q-11 -24 -26.5 -44t-19.5 -27h-3q-44 -57 -111 -112t-138.5 -89t-135.5 -30q-85 11 -110 80q-6 19 -11 44zM378 1154q-4 -11 -11 -24q-33 -64 -39 -77q-62 -130 -118 -259.5t-96 -261.5q-33 -102 -33 -196q-2 -53 17 -81.5t58 -26.5q77 13 134 53q53 37 95 79q2 15 4 33
q14 92 44 183q73 224 181 448l50 110l11 22h-138q-106 -2 -159 -2z" />
    <glyph glyph-name="ee" unicode="ee" horiz-adv-x="1100" 
d="M147 560v0q-6 -6 -8.5 -15t8.5 -16q35 -22 78 -15t73 32t25 65q-2 13 -13 16.5t-24 0.5q-77 -13 -139 -68zM713 534v0q-7 -7 -8 -14.5t8 -14.5q30 -17 68.5 -13t65 27.5t24.5 60.5q-2 11 -12 13t-23 2q-68 -13 -123 -61zM528 336q-35 -27 -75 -46q-81 -44 -136 -56.5
t-113 -14.5q-90 -4 -169 24q-125 53 -88 198q37 124 149.5 194t231.5 68q30 2 59 -6q48 -14 59 -52.5t-17 -84.5q-68 -101 -183 -112q-77 -9 -147 7q-16 2 -24.5 -7t-10.5 -22q-22 -90 55 -119q92 -31 195 2q117 38 223 139q2 0 4 2q37 95 128 152q99 62 204 59h2
q27 0 53 -4q42 -13 52 -48.5t-14 -76.5q-62 -91 -165 -99q-69 -7 -132 6q-14 2 -21.5 -6.5t-9.5 -19.5q-20 -82 48 -106q84 -28 176 2q106 33 200.5 123.5t109 85t7.5 -36.5q-13 -46 -67 -99t-126.5 -91.5t-121 -49.5t-101.5 -13q-81 -4 -152 22q-68 29 -83 86z" />
    <glyph glyph-name="st" unicode="st" horiz-adv-x="972" 
d="M519 547q-79 -108 -169 -179.5t-152 -119.5q-44 -33 -77 -75q-37 -55 -95 -97q-30 -26 -61 -31.5t-60 3.5q-13 4 -15 16t7 28q15 22 37 44q29 26 59 50q3 2 7 7q108 90 84 182q-7 22 -20 42q-2 7 -7 13q-4 14 -11 27q-15 24 -26 53q-27 88 77 167q90 72 193 101
q64 15 106 -11q40 -26 13 -86q-22 -37 -57 -46q-48 -7 -51 26v25q3 11 0.5 16.5t-12.5 3t-36 -13.5q-40 -20 -75 -50q-57 -47 -44 -97q5 -18 11 -31q9 -18 16 -33q17 -29 30.5 -57.5t17.5 -61.5q13 -2 84.5 48.5t192.5 193.5q49 62 88.5 154.5t107.5 241.5l42 95l13 33
q13 31 -15 31q-31 0 -62 2h-77q-24 -5 -42 6q-6 5 -9.5 12.5t0.5 18.5q7 11 17 17.5t21 6.5q39 3 81 3h49q30 0 63 2q20 2 31 20q13 24 24 48l73 152q26 53 51 103l2 5q4 11 9 19q28 44 77 42q39 -2 26 -46q-9 -26 -22 -57l-11 -22v0l-29 -64q-35 -73 -68 -145
q-20 -40 -13 -50t48 -7q77 -3 154 -3q55 0 110 -2h11q16 2 28 0t21 -9q2 -4 4 -8.5t0 -10.5q-2 -7 -8.5 -11.5t-11.5 -6.5q-30 -13 -57 -11h-9l-167 -2h-92h-7q-20 0 -42 -2q-24 -3 -37 -25q-9 -13 -13 -26q-55 -121 -104.5 -244t-82.5 -244q-29 -97 -27 -185
q3 -49 21.5 -76.5t58.5 -22.5q72 11 126 48.5t98 81.5q42 44 84 72q19 11 24.5 6.5t4.5 -14t-5 -18.5q-9 -20 -23.5 -37.5t-18.5 -22.5l-2 -2q-40 -48 -99.5 -95.5t-126.5 -77t-128 -25.5q-84 11 -112.5 68.5t-22.5 136.5z" />
    <glyph glyph-name=".notdef" horiz-adv-x="2253" 
d="M220 -300v3155h1813v-3155h-1813zM330 -190h1593v2935h-1593v-2935zM715 2226q68 61 128 94q116 66 246 66q202 0 325.5 -104.5t123.5 -280.5q0 -108 -50.5 -216.5t-191.5 -284.5q-139 -176 -218 -290.5t-79 -218.5q0 -83 53 -292h-71q-77 213 -77 325q0 168 179.5 480
t179.5 477q0 126 -72.5 198.5t-200.5 72.5q-84 0 -152 -37q-57 -33 -123 -88v99zM856 435l125 127q24 22 44 22q22 0 49 -24l123 -132q20 -24 20 -44q0 -24 -22 -48l-124 -137q-30 -30 -46 -30q-24 0 -44 22l-134 156q-15 20 -15 39q0 22 24 49z" />
    <glyph glyph-name=".null" horiz-adv-x="0" 
 />
    <glyph glyph-name=".null" horiz-adv-x="0" 
 />
    <glyph glyph-name="nonmarkingreturn" horiz-adv-x="508" 
 />
    <glyph glyph-name="space" unicode=" " horiz-adv-x="365" 
 />
    <glyph glyph-name="space" unicode="&#xa0;" horiz-adv-x="365" 
 />
    <glyph glyph-name="exclam" unicode="!" horiz-adv-x="427" 
d="M374 356v0q-73 -5 -55 66q84 356 186 721t210 731q59 200 117 398q24 83 55 165q28 64 99 64q70 -3 61 -64q-6 -27 -13 -53q-2 -4 -4 -11q-20 -70 -40 -143q-108 -389 -242 -832.5t-323 -986.5q-5 -9 -7 -16q-7 -17 -15.5 -27t-28.5 -12zM359 127v0q37 -13 11 -86
q-11 -22 -27 -46q-35 -64 -79 -134q-15 -25 -36 -28t-43 -1h-5q-44 0 -41 42q11 94 59 189q29 46 74 63.5t87 0.5z" />
    <glyph glyph-name="quotedbl" unicode="&#x22;" horiz-adv-x="513" 
d="M253 2109v0q53 11 53 -40q4 -46 -9 -92q-13 -42 -36 -74t-54 -58q-16 -15 -32.5 -16.5t-29.5 7.5q-17 11 13 38q60 81 37 126t0 73.5t58 35.5zM403 2113v0q50 11 52 -39q5 -46 -8 -93q-14 -41 -38 -73t-53 -59q-17 -15 -32.5 -16t-28.5 8q-18 11 13 37q59 81 36 126.5
t0 74t59 34.5z" />
    <glyph glyph-name="numbersign" unicode="#" horiz-adv-x="1483" 
d="M1654 945v0q7 -9 1.5 -27.5t-18.5 -27.5q-49 -26 -90 -13q-73 13 -152 0q-49 -4 -84 -46q-66 -79 -132 -156q-53 -62 -103 -124q-38 -46 17 -46q124 5 247 13q6 0 15 3q22 2 43 1t36 -12q11 -11 14 -29q2 -11 -7 -18.5t-18 -12.5q-39 -15 -79 -22q-158 -26 -310 -20
q-97 7 -165 -83q-68 -84 -141 -165q-31 -33 -59 -68q-38 -42 -86 -40q-40 2 -48.5 24t17.5 60q49 63 99 125q38 44 73 90q35 49 -18 49h-57q-37 2 -74.5 -0.5t-72.5 -13.5q-36 -15 -62 -43.5t-51 -61.5q-22 -33 -48 -60q-40 -44 -77 -90q-29 -33 -57 -64q-44 -46 -99 -41
q-66 6 -27 66q38 50 75 99q20 24 40 50l70 88q13 20 27 38q-16 15 -35.5 18.5t-41.5 0.5h-29q-2 3 -4 3q-38 -3 -62 19q-4 3 -5.5 9.5t1.5 12.5q2 5 6.5 11.5t10.5 8.5q60 22 119 24h24q29 3 49 5q33 2 49.5 5.5t30.5 17.5t38 47q11 13 27 31q13 15 26 33q62 73 121 147
q40 49 34.5 62t-67.5 13q-75 -2 -152 2q-24 3 -44 14q-6 2 -8.5 10.5t0.5 17.5q0 5 6.5 10.5t12.5 9.5q16 11 32.5 13t31.5 2h13q110 7 220 11q62 3 108 58q86 103 172 204q22 27 44 51q28 35 57 66q64 68 134 46q33 -9 20 -46q-18 -44 -51 -79q-6 -7 -13 -16
q-44 -53 -86 -103q-46 -55 -90 -110q-39 -51 11 -51q104 -6 160 2.5t102 50.5t117 134q28 40 55 82q17 24 35 48q26 35 67 45t69 -12q27 -29 2 -68q-30 -51 -66 -99q-19 -27 -37 -55q-9 -13 -20 -24q-13 -18 -24 -35.5t-11 -39.5q31 -2 62 -5q41 -2 85 -4q33 0 55 -20z
M1100 789v0v2q11 13 21 28.5t10 37.5q-101 5 -211 -11q-16 -2 -29 -2q-11 -2 -25.5 -10t-22.5 -16q-121 -146 -238 -293q-11 -13 -7.5 -24t18.5 -11h81h86q62 0 106 57q64 73 125 145q44 49 86 97z" />
    <glyph glyph-name="dollar" unicode="$" horiz-adv-x="1070" 
d="M1098 908v0q86 -90 56 -209t-164 -218q-44 -33 -93.5 -55t-97.5 -40q-33 -11 -66 -17q-69 -9 -91 -77q-33 -97 -74 -194q-7 -17 -14 -35q-24 -57 -85 -59q-64 -5 -51 57q7 26 15 53q5 11 9 22q7 22 13 41q16 44 29 86q13 40 14 57.5t-13 24t-52 15.5q-83 15 -149 62
q-95 77 -90 211q2 57 50 75q35 11 61.5 4t31.5 -31q4 -17 6 -39q0 -22 5 -42q30 -112 147 -141q46 -13 64 33q68 213 132 429q4 7 6 15q11 42 -22 60q-2 2 -4 2q-35 18 -66 35q-9 7 -18 11q-41 24 -77 51q-105 90 -99.5 220t124.5 270q151 183 367 247q62 15 75 72
q15 58 35 115q35 101 117 94q68 0 41 -101q-13 -57 -30 -114q-18 -51 30 -64q25 -7 47 -18q4 -2 6 -4q93 -48 109.5 -124t-16.5 -171q-31 -86 -84 -171l-2 -3q-49 -88 -134 -70q-42 7 -25 55q14 31 29 64q26 55 48 112q40 92 11 169q-13 25 -37 40q-9 7 -19 1.5t-14 -14.5
q-15 -31 -24 -64q-29 -97 -57 -196q-11 -35 -20 -70v0q-11 -40 -24 -82q-27 -99 -58 -200q-17 -57 31 -77q46 -22 90 -48q38 -24 71 -55zM761 1159v0q29 96 55 191q11 40 22 77h-2l22 70q26 99 55 196q2 13 -9 20t-24 0q-119 -62 -200 -167q-101 -128 -95.5 -240t115.5 -176
q19 -9 35.5 -2.5t25.5 31.5zM979 675v0q24 66 4.5 114t-63.5 81q-9 7 -18 11q0 3 -2 3q-18 8 -35.5 1.5t-26.5 -30.5q-20 -62 -37 -125q-7 -25 -13 -51h-11q-7 -24 -16 -48q-15 -60 -33 -117q-4 -20 4.5 -28.5t26.5 -4.5q75 29 132 75t88 119z" />
    <glyph glyph-name="percent" unicode="%" horiz-adv-x="1423" 
d="M1553 1449v0q-22 -26 -48 -53q-236 -231 -461.5 -467.5t-449.5 -476.5l-216 -228q-63 -69 -129 -139q-44 -46 -99 -42q-18 0 -31 4.5t-20 17.5q-7 16 2 29t20 24l4 4q44 49 88 97q124 137 249 269q359 378 719 752q73 73 150 145q35 33 73 68q24 25 54.5 37t74.5 7
q-2 3 -3 3t0 0t3.5 -1.5t6.5 -1.5q15 -2 19.5 -17.5t-6.5 -30.5zM425 908v0q-55 -7 -91.5 23t-36.5 87t51 132q50 70 118 125q60 49 118 68.5t113 -11.5q27 -8 55 -8q16 -3 29 -5q68 -13 84.5 -59t-20.5 -115q-24 -44 -62 -79q-77 -77 -165 -117.5t-193 -40.5zM517 1152v0
q-33 -37 -51 -88q0 -4 -2 -9q-2 -11 0 -24q2 -26 31 -22q66 15 126.5 69t78.5 111q0 5 -2.5 11.5t-4.5 8.5q-44 18 -92.5 1.5t-83.5 -58.5zM1327 655v0q85 -18 100.5 -80.5t-41.5 -148.5q-51 -75 -135.5 -121t-174.5 -48q-90 0 -134 44t-29 118q44 163 200 269q35 22 68 24
t53 -20q16 -17 35.5 -24t41.5 -11q9 0 16 -2zM1245 472v0q46 86 -39 95q-42 6 -71 -33q-37 -44 -53 -104q-2 -2 -2 -4q-2 -11 -2 -26q-2 -29 19 -36.5t49 7.5q66 37 99 101z" />
    <glyph glyph-name="ampersand" unicode="&#x26;" horiz-adv-x="2090" 
d="M2119 813v0q11 -26 13 -55q6 -119 -22.5 -264t-97.5 -286t-181.5 -241t-270.5 -124q-225 -33 -385 75q-97 68 -156 169q-22 35 -44 73q-11 17 -25 37q-55 -26 -99 -68q-15 -13 -30 -24q-3 -2 -7 -7q-121 -99 -255 -182q-143 -84 -286 -75q-123 9 -174 88t-11 204
q24 77 69 145.5t100 132.5q82 94 173 179t188 166q84 70 172 136q64 47 68 115q22 220 95 444q48 154 143 299q162 245 422 231q130 -2 220 -72q161 -137 22 -368q-64 -94 -152 -176q-83 -79 -173.5 -149.5t-182.5 -136.5q-11 -8 -22 -15q-84 -62 -165 -123q-35 -22 -38 -55
q-2 -29 -2 -57q-2 -88 3.5 -173t31.5 -162q3 -2 7 -4l2 -2q51 26 90 63q14 11 27 25q281 226 576 431q42 28 86 55q44 28 90 22q27 -2 35 -22q5 -16 -4 -25.5t-20 -18.5q-26 -22 -53 -44q-26 -18 -50 -40q-55 -42 -108 -86q-290 -233 -579 -468q-44 -35 -50.5 -55t9.5 -55
q48 -117 125 -209q62 -73 154 -110q128 -44 231 0t178 145t120 227.5t56 246.5t-15 201q0 11 -2 20q-5 13 -5 27q0 15 10 25t25 14q95 27 124 -44zM1217 1658v0q-42 -75 -69.5 -151t-49.5 -153q-7 -28 -13 -59q-18 -77 -31 -156q-5 -18 8.5 -23.5t30.5 5.5q106 73 207 151
t194 170q68 69 112 148q99 207 -73 284q-83 35 -173 -38q-47 -37 -81 -82t-62 -96zM862 307v0q44 38 29 82q-40 156 -46 327q0 9 -5 22q-4 9 -6 22q-134 -101 -247.5 -207.5t-210.5 -225.5q-90 -110 -121 -233q-15 -66 16 -115q35 -61 121 -19q46 19 88 48q165 114 319 246
q30 27 63 53z" />
    <glyph glyph-name="quotesingle" unicode="'" horiz-adv-x="365" 
d="M253 2109v0q53 11 53 -40q4 -46 -9 -92q-13 -42 -36 -74t-54 -58q-16 -15 -32.5 -16.5t-29.5 7.5q-17 11 13 38q60 81 37 126t0 73.5t58 35.5z" />
    <glyph glyph-name="parenleft" unicode="(" horiz-adv-x="701" 
d="M1375 2857v0q59 -2 24 -64q-20 -33 -42 -66l-4 -4q-198 -286 -371 -632.5t-299.5 -713t-179 -714t-8.5 -637.5q2 -5 2 -11q7 -16 4.5 -33.5t-24.5 -32.5q-31 -22 -57 -18t-37 29q-7 22 -11 44q-3 4 -3 11q-52 275 -12.5 591.5t147 650t257.5 655.5t319 606
q86 143 189 277q46 64 106 62z" />
    <glyph glyph-name="parenright" unicode=")" horiz-adv-x="701" 
d="M167 -69v0q-59 2 -24 64q20 33 42 66l4 4q196 286 369.5 632.5t299 713t179.5 714t10 635.5q-2 7 -4 13q-5 16 -2.5 33.5t24.5 32.5q30 20 56.5 17t37.5 -28q7 -22 11 -46q0 -4 2 -9q53 -275 13.5 -592.5t-147.5 -650t-257.5 -654.5t-318.5 -606q-88 -145 -192 -277
q-44 -64 -103 -62z" />
    <glyph glyph-name="asterisk" unicode="*" horiz-adv-x="563" 
d="M469 2034v0q13 2 24 -2t13 -18q0 -13 -10 -20.5t-23 -14.5h-2q-7 -2 -11 -4q-22 -7 -42 -27q4 -13 9 -26q11 -33 20 -66q4 -11 -7 -22t-24 -15q-33 -7 -55 11q-5 6 -9 13q-4 6 -7 11q-8 11 -13.5 14t-14.5 0t-29 -14q-6 -5 -13 -9q-13 -9 -26 -15q-22 -9 -44 -5
q-18 5 -20 19t15 32q7 6 16 15q6 5 13 11q26 27 25 38t-30 22q-13 4 -24 6q-13 5 -26 11q-5 2 -8 7.5t-3 10.5q2 11 9.5 16.5t16.5 7.5q35 2 68 2h3q17 0 26 2.5t14.5 10t16.5 25.5q31 57 79 41q29 -8 18 -44q-11 -39 28 -26q13 4 27 2z" />
    <glyph glyph-name="plus" unicode="+" horiz-adv-x="1115" 
d="M722 435q-53 -167 -130 -365q0 -3 -5 -5q-2 -9 -6.5 -13t-19.5 -4q-44 -3 -37 26q28 147 72 301l18 62q-167 4 -359 20q-6 0 -6 4q-9 0 -11.5 3.5t-2.5 14.5q11 46 42 48q152 16 306 18l62 2q19 66 39 132q24 84 51 165q6 35 22 70q15 27 61 27q44 -2 42 -27l-24 -88
q-35 -129 -81 -279h299q35 0 66 -4q26 -5 13 -51t-42 -51q-11 -2 -22 -2h-64q-134 -4 -283 -4z" />
    <glyph glyph-name="comma" unicode="," horiz-adv-x="398" 
d="M242 254v0q53 11 53 -39q4 -46 -9 -93q-13 -41 -36 -73t-54 -59q-16 -15 -32.5 -16t-29.5 8q-17 11 13 37q60 81 37 126.5t0 74t58 34.5z" />
    <glyph glyph-name="hyphen" unicode="-" horiz-adv-x="893" 
d="M486 435l-81 2q-123 4 -269 20q-2 0 -4 4q-4 0 -6.5 3.5t-0.5 14.5q11 46 33 48q117 16 231 18l47 2h83h225q26 0 50 -4q18 -5 5 -51q-14 -46 -33 -51q-9 -2 -18 -2h-48q-102 -4 -214 -4z" />
    <glyph glyph-name="hyphen" unicode="&#xad;" horiz-adv-x="893" 
d="M486 435l-81 2q-123 4 -269 20q-2 0 -4 4q-4 0 -6.5 3.5t-0.5 14.5q11 46 33 48q117 16 231 18l47 2h83h225q26 0 50 -4q18 -5 5 -51q-14 -46 -33 -51q-9 -2 -18 -2h-48q-102 -4 -214 -4z" />
    <glyph glyph-name="period" unicode="." horiz-adv-x="383" 
d="M191 237v0q82 0 58 -79q-11 -31 -25 -58q-13 -24 -37 -31.5t-51 3.5q-22 9 -24 31q-2 35 2 72q7 66 77 62z" />
    <glyph glyph-name="slash" unicode="/" horiz-adv-x="1234" 
d="M2006 2562v0q0 -11 -4 -31q-2 -6 -2 -13l-5 -11q-8 -13 -15 -26q-22 -38 -44 -75q-132 -216 -277 -420q-35 -53 -71 -106q-479 -706 -979 -1395q-167 -233 -330 -470q-44 -62 -85 -124q-27 -41 -55 -46q-42 -4 -45.5 24.5t29.5 79.5q20 30 42 59q176 260 356 517
q7 11 16 22q306 433 608.5 870t599.5 879q6 11 15 22q75 110 141 227q22 39 55 44q39 8 50 -27z" />
    <glyph glyph-name="zero" unicode="0" horiz-adv-x="1201" 
d="M1520 1500v0q-22 -86 -48 -174q-13 -40 -24 -82q-86 -319 -229 -633q-49 -108 -119 -209q-103 -152 -262 -251q-156 -97 -298 -88t-228 119q-48 68 -68 154q-61 257 5 548q50 226 146 445t228 435q112 189 261 358q97 112 218 93q82 -11 159 -33t143 -62q99 -62 123 -180
q46 -207 -7 -440zM1230 1112v0q72 238 110 434q15 81 14 157t-8 151q-8 110 -73 168t-171 78q-28 7 -48 -1t-44 -41q-75 -90 -139 -184q-200 -302 -328 -619q-74 -182 -114 -362.5t-29 -356.5q5 -123 44 -229q29 -77 91 -125q44 -33 107 -5q93 42 170 113q77 74 131 156.5
t95 170.5q47 95 82 188.5t66 181.5q22 66 44 125z" />
    <glyph glyph-name="one" unicode="1" horiz-adv-x="647" 
d="M455 136v0q11 -3 22 -5q53 -4 88 -33q3 -4 5 -10.5t0 -11.5q-5 -9 -12.5 -17.5t-14.5 -13.5q-35 -11 -63 -8q-88 13 -180.5 16t-187.5 3q-11 -2 -22 -2q-33 0 -59 11q-7 2 -11.5 11t-4.5 16q3 8 10.5 18t16.5 15q46 17 92 26q46 4 61.5 18.5t26.5 65.5q18 68 35 134
q25 99 53 198q134 486 302 970q28 81 50 165l22 84q-31 -25 -61.5 -37t-63.5 -7q-49 11 -33 61q6 13 13 27q110 195 240 385q37 59 103 72q128 22 101 -97q-4 -17 -6 -33q-60 -239 -137 -477q-198 -581 -358 -1162q-7 -19 -11 -37q-35 -128 -68 -257q-16 -49 -7 -64.5
t59 -23.5z" />
    <glyph glyph-name="two" unicode="2" horiz-adv-x="1377" 
d="M1107 353v0q66 -63 107.5 -142.5t76.5 -162.5q3 -5 5 -9q4 -16 -10 -33.5t-36 -21.5q-55 -7 -93 20q-88 61 -141 154q-26 50 -60 95t-87 81q-24 -20 -46 -38q-46 -37 -88 -70q-86 -64 -178.5 -111.5t-191.5 -71.5q-101 -22 -191 -9q-93 16 -107 75.5t52 147.5
q72 94 174 156q242 152 477 116q70 -11 117 51q279 332 479 697q101 185 172 377q66 169 53 327q-9 117 -108 174q-75 40 -172 2q-86 -30 -150.5 -86.5t-115.5 -128.5q-128 -189 -150 -390q-2 -26 -4 -55q-2 -35 -9 -70q0 -9 -7.5 -17.5t-16.5 -15.5q-31 -15 -65 -9.5
t-45 27.5q-11 26 -11 57q-4 233 132 464q106 172 245.5 253t278 90t239.5 -44q82 -42 119.5 -114.5t39.5 -169.5q-2 -110 -34 -221t-81 -221q-228 -515 -616 -970q-6 -9 -13 -18q-13 -13 -24 -26q-29 -33 -4 -55zM697 386v0q3 5 5 9q0 2 2 5q4 8 -9 19t-31 11
q-101 -2 -211 -68t-176 -163q-20 -26 -11 -48q7 -11 19 -12t25 3q110 35 206 99t181 145z" />
    <glyph glyph-name="three" unicode="3" horiz-adv-x="1166" 
d="M1133 1326v0q130 -66 181.5 -184t51.5 -267q7 -225 -105 -456q-102 -198 -272.5 -323t-381.5 -156q-125 -18 -242 -2q-103 17 -159 75.5t-54 166.5q9 312 259 587q58 59 124 46q22 -4 27.5 -19.5t-10.5 -33.5q-92 -114 -152 -239q-77 -170 -66 -328q16 -198 238 -154
q345 70 508 400q77 156 92.5 303.5t-17.5 288.5q-15 68 -55 123q-35 49 -85.5 76.5t-127.5 18.5q-53 -13 -97 6q-9 5 -14.5 11.5t-5.5 15.5q2 26 31 44q2 0 4 2q24 13 49 18q55 11 105.5 38.5t98.5 60.5q218 140 372 347q55 75 99 156q44 84 26 161q-15 66 -70 89t-132 -3
q-150 -53 -264 -174q-92 -95 -150.5 -199.5t-62.5 -222.5q-5 -82 -91 -71q-61 5 -68 64q-6 86 33 176q115 264 374 429q218 132 425 97q123 -24 165 -117.5t-11 -223.5q-33 -77 -82 -148q-165 -233 -404 -400q-42 -29 -82 -59q-2 0 -3 -2.5t-3 -4.5q0 -2 -3 -4q3 -3 3 -5z
" />
    <glyph glyph-name="four" unicode="4" horiz-adv-x="1300" 
d="M1786 2316v0q73 -2 57 -68q-41 -148 -96 -293q-229 -609 -429 -1223q-91 -273 -150 -548q-4 -18 -9 -37q-13 -53 -30.5 -73t-52.5 -20q-42 -4 -56.5 13.5t-5.5 70.5q20 145 48 290q49 222 124 445q6 19 13 41q28 82 16 98.5t-93 14.5h-148q-123 0 -248 -3q-88 -2 -178 -8
q-27 -3 -55 -5q-40 -2 -77.5 -1t-70.5 14q-57 31 -6 95q41 46 90 90l2 2q178 165 352 334.5t341 345.5q150 161 288 330q64 79 143 57q18 -4 24.5 -20.5t-2.5 -36.5q-35 -70 -90 -132l-9 -9q-220 -264 -468 -503l-264 -256q-71 -66 -139 -132q-15 -13 -37 -35
q-11 -13 -31 -33h191q205 2 396 0h11q62 -4 91.5 2.5t46 36t40.5 98.5q51 132 99 264q84 231 170 462q50 132 105 266q29 68 97 66z" />
    <glyph glyph-name="five" unicode="5" horiz-adv-x="1160" 
d="M1012 1387v0q222 -6 249 -206q26 -212 -47 -438q-46 -154 -138 -302q-101 -156 -253 -248.5t-310.5 -105.5t-281.5 68q-110 75 -132 214v6q-4 18 -2 39t26 38q31 18 64 12.5t46 -29.5q7 -20 11 -40q5 -13 9 -26q22 -73 79 -121q141 -112 346 6q140 88 222 229
q132 229 160 467q11 94 9 184q-2 49 -22 91q-42 92 -169 46q-148 -57 -271 -167q-17 -16 -33 -33q-15 -16 -28 -29q-82 -70 -159 -35q-28 15 -13 53q18 37 37 74q11 18 20 38q231 433 427 875q2 7 7 14q13 30 22 61q15 55 33.5 75t67.5 20q200 6 400 9h139q11 0 20 -3h4
q13 -4 22 -10.5t7 -19.5q-5 -20 -19 -30t-32 -14q-101 -25 -196 -22q-110 -3 -218 -5q-35 0 -49 -10t-25 -38q-146 -348 -324 -691q-6 -13 -13 -35q-4 -13 -9 -31q172 73 317 70z" />
    <glyph glyph-name="six" unicode="6" horiz-adv-x="1169" 
d="M984 1258v0q239 -7 292 -214q51 -213 -12 -427.5t-245 -423.5q-137 -154 -287.5 -201.5t-311.5 -7.5q-79 22 -126 73.5t-72 126.5q-26 79 -30.5 166t4.5 179q11 157 57 317q44 161 126 315q228 449 611 814q128 123 280 213q94 55 178 33q9 -2 14.5 -9.5t5.5 -14.5
q0 -9 -7 -19t-13 -14q-205 -112 -362 -274t-294 -342q-105 -136 -189 -286q-35 -66 29 -44q92 31 179 36.5t173 3.5zM860 228v0q159 178 220 387q47 161 31 313q-4 83 -48 149q-46 73 -143 82q-214 17 -403 -154q-57 -49 -79 -113q-66 -211 -75 -415q-2 -75 5.5 -145.5
t36.5 -132.5q33 -85 119 -125q50 -20 112 0q132 46 224 154z" />
    <glyph glyph-name="seven" unicode="7" horiz-adv-x="1155" 
d="M1659 2208v0q15 0 35 2q33 5 59.5 0.5t32.5 -35.5q5 -24 -11.5 -45t-38.5 -41q-22 -17 -38 -37q-13 -13 -24 -29q-9 -6 -15 -15q-207 -244 -394 -497q-79 -104 -158 -207q2 -5 2 -7q0 -6 2 -9q7 -8 20 -13q9 -6 16.5 -14t3.5 -21q-9 -24 -28 -32t-38 -8q-7 -2 -16 -2
q-37 -6 -62.5 -29.5t-47.5 -53.5q-130 -165 -247.5 -338t-229.5 -347q-141 -224 -308 -433q-22 -29 -47.5 -46.5t-56.5 -17.5h-2h-13q-22 5 -33 21.5t-2 40.5q22 50 50 99q146 244 301 484t329 473q24 35 46 70q4 7 9 13q2 0 2 2.5v4.5v4q-7 9 -17 11.5t-21 2.5h-4
q-15 0 -31 2q-42 0 -83 2h-9q-22 0 -42 6.5t-22 33.5q0 39 101 48h7q68 7 134 4q90 -4 152 82q174 231 354 460q68 85 141 171q44 55 90 110q11 13 7.5 24t-16.5 11q-44 7 -90 3q-136 -11 -269.5 -8t-265.5 10q-44 4 -88 6h-8q-27 0 -51 5.5t-40 25.5q-4 9 0.5 23.5
t15.5 20.5q42 22 79 18q136 -13 276 -14.5t283 3.5q160 4 319 2z" />
    <glyph glyph-name="eight" unicode="8" horiz-adv-x="1273" 
d="M1591 1557v0q-64 -95 -142 -182t-173 -159q-13 -11 -33 -27q-9 -6 -22 -17q15 -27 33 -51q33 -48 62 -97q90 -147 67 -314t-149 -350q-110 -161 -273 -282q-145 -107 -296.5 -132.5t-275 26t-180.5 177.5q-57 127 -44 267t81 289q110 240 326 421q75 63 133 97.5
t151 67.5q6 17 2 27t-13 19q-7 6 -11 13q-11 20 -24 40q-27 41 -49 85q-50 102 18 229q26 49 61 95q154 202 379 317q110 57 222 61q150 -2 225.5 -92t51.5 -240q-31 -150 -127 -288zM1118 470v0q154 273 33 488q-40 73 -93 135.5t-108 122.5q-6 4 -11 11q-8 -5 -15 -7
q-15 -4 -29 -9q-222 -129 -375 -343.5t-175 -434.5q-11 -106 14.5 -193t98.5 -146q72 -64 139 -62t166 60q31 19 60 41q187 141 295 337zM1135 1277v0q51 40 95 86t83 95q7 9 16 20q116 134 176 290q59 147 -9 257q-46 82 -152 25q-222 -110 -361 -313q-92 -130 -35 -240
q71 -127 187 -220z" />
    <glyph glyph-name="nine" unicode="9" horiz-adv-x="1298" 
d="M1573 2006v0q101 -209 40 -471q-91 -372 -309.5 -686.5t-559.5 -572.5q-117 -88 -240 -134t-251 -70q-40 -11 -70 9q-7 4 -8 11.5t2 17.5t10 15q26 15 51 24q136 46 257 124t233 177q370 321 568 737q2 9 6 16q16 30 28 61t12 62q-18 4 -33 -1.5t-31 -14.5
q-13 -6 -26 -11q-335 -110 -590 22q-77 40 -125 108q-62 90 -47.5 201.5t100.5 223.5q85 108 206 185q209 136 427 149q251 13 350 -182zM1397 1484v0q2 7 4 16q3 4 5 8q53 209 0 390q-18 72 -68 125q-29 33 -67.5 50.5t-91.5 9.5q-130 -25 -241 -92t-199 -181
q-70 -95 -76.5 -188.5t54.5 -157.5q110 -105 234.5 -118.5t282.5 59.5q7 4 16 7q48 28 101 30q20 0 31 12.5t15 29.5z" />
    <glyph glyph-name="colon" unicode=":" horiz-adv-x="382" 
d="M453 950v0q79 0 33 -80q-20 -30 -42 -57q-17 -24 -43.5 -31.5t-50.5 3.5q-20 8 -16 30q9 36 22 73q27 66 97 62zM242 213v0q79 0 31 -80q-18 -30 -40 -57q-17 -24 -43.5 -31.5t-50.5 3.5q-20 8 -16 30q9 36 22 73q27 66 97 62z" />
    <glyph glyph-name="semicolon" unicode=";" horiz-adv-x="398" 
d="M242 254v0q53 11 53 -39q4 -46 -9 -93q-13 -41 -36 -73t-54 -59q-16 -15 -32.5 -16t-29.5 8q-17 11 13 37q60 81 37 126.5t0 74t58 34.5zM484 941v0q81 0 33 -79q-18 -31 -40 -58q-17 -24 -44.5 -31.5t-51.5 3.5q-18 9 -14 31q7 35 22 72q25 66 95 62z" />
    <glyph glyph-name="semicolon" unicode="&#x37e;" horiz-adv-x="398" 
d="M242 254v0q53 11 53 -39q4 -46 -9 -93q-13 -41 -36 -73t-54 -59q-16 -15 -32.5 -16t-29.5 8q-17 11 13 37q60 81 37 126.5t0 74t58 34.5zM484 941v0q81 0 33 -79q-18 -31 -40 -58q-17 -24 -44.5 -31.5t-51.5 3.5q-18 9 -14 31q7 35 22 72q25 66 95 62z" />
    <glyph glyph-name="less" unicode="&#x3c;" horiz-adv-x="1031" 
d="M217 551q-2 27 18 36q112 55 231 101l46 20l86 30l233 86q26 11 55 16q20 4 24 -40q7 -42 -15 -55q-5 -4 -16 -9l-48 -17q-106 -42 -220 -84l-86 -29q-90 -30 -196 -61q86 -29 157 -60l70 -28q90 -42 172 -84l37 -20q9 -2 11 -6q15 -13 -15 -55q-31 -44 -49 -40
q-24 5 -46 13l-183 86l-68 33l-35 18q-92 46 -174 103q-15 9 11 46z" />
    <glyph glyph-name="equal" unicode="=" horiz-adv-x="893" 
d="M473 327l-88 2q-136 5 -295 20q-4 0 -4 4q-7 0 -9 3.5t0 14.5q11 46 35 48q126 16 253 18l51 2h92h244q29 0 55 -4q20 -5 7 -51t-35 -50q-9 -3 -20 -3h-51q-112 -4 -235 -4zM546 536l-88 2q-137 5 -295 20q-5 0 -5 4q-6 0 -8.5 3.5t0.5 14.5q11 46 35 48q127 16 253 18
l50 2h93h246q27 0 53 -4q22 -5 9 -51t-38 -50q-8 -3 -17 -3h-53q-112 -4 -235 -4z" />
    <glyph glyph-name="greater" unicode="&#x3e;" horiz-adv-x="1032" 
d="M845 551q4 -37 -15 -46q-115 -57 -234 -103l-46 -18l-86 -33l-231 -86q-28 -8 -55 -13q-22 -4 -26 40q-7 42 15 55q7 4 16 6l50 20q104 42 218 84l86 28q90 31 194 60q-91 31 -163 61l-68 29q-93 42 -172 84l-40 17q-8 5 -11 9q-13 13 16 55q31 44 48 40q27 -5 46 -16
l183 -86l68 -30l38 -20q92 -46 171 -101q13 -9 -2 -36z" />
    <glyph glyph-name="question" unicode="?" horiz-adv-x="1971" 
d="M942 1174v0q6 -7 10.5 -14.5t4.5 -16.5q0 -11 -7.5 -17.5t-18.5 -8.5q-115 -33 -198 35q-117 92 -128 226.5t58.5 287.5t199 300t297.5 271q165 118 371.5 192t409.5 67q180 -9 316.5 -97t182.5 -238.5t-44 -346.5q-62 -123 -211.5 -278t-342.5 -338q-172 -160 -346 -335
t-320 -356.5t-236 -366.5q-5 -9 -11 -18q-16 -22 -32.5 -42.5t-32 -29.5t-28.5 6q0 163 123.5 353.5t313.5 390.5t393 394q200 191 359.5 360.5t220.5 299.5q88 207 54 326.5t-152.5 165t-282.5 29t-331.5 -81.5t-301.5 -164q-147 -115 -259.5 -256.5t-159.5 -291.5t-5 -286
q11 -42 34 -70.5t69 -35.5q18 -4 31 -15zM871 -45v0q33 -9 22 -46q-6 -11 -13 -24q-9 -20 -21 -35.5t-38 -21.5q-57 -16 -88 19q-11 16 -13.5 33.5t8.5 37.5q27 39 71 42q37 2 72 -5z" />
    <glyph glyph-name="at" unicode="@" horiz-adv-x="1228" 
d="M1360 378v0q15 -5 20.5 -16t-3.5 -26q-90 -165 -218.5 -291.5t-304.5 -201.5q-245 -99 -418 24q-119 86 -181 218q-108 229 35 508q141 273 405 449q161 106 316 139t300 -16q143 -48 178.5 -164.5t-37.5 -279.5q-57 -128 -154 -240q-101 -123 -220 -90q-35 11 -62.5 2
t-58.5 -35q-57 -49 -128 -68q-94 -27 -143.5 9.5t-34.5 126.5q35 187 205 321q81 62 166 61t126 -63q11 -13 11 -28.5t-13 -35.5q-15 -15 -32.5 -20.5t-35.5 -3.5q-22 0 -35 12t-24 28q-3 4 -5 6q-20 24 -50 -2q-73 -64 -118 -136.5t-54 -156.5q0 -15 12 -19.5t30 4.5
q68 44 121 106q15 15 28 33q18 17 36 37q94 90 160 13q2 -2 2 -9q3 -6 5 -8q4 -5 11 -7q2 -2 6 -2q88 103 126 222q44 132 -1 219t-169 109q-50 9 -100.5 -3.5t-103.5 -34.5q-139 -57 -249 -152.5t-196 -216.5q-88 -123 -124 -244t-10 -242q22 -97 77 -168.5t132 -126.5
q46 -33 102.5 -28.5t119.5 37.5q198 105 341 279q31 37 60 79q15 24 33 49q50 68 119 44z" />
    <glyph glyph-name="A" unicode="A" 
d="M5405 914v0q-191 22 -385 22q-85 3 -173 5q-801 33 -1606 17h-66q-44 3 -64 -0.5t-32 -22t-28 -60.5q-11 -24 -26 -60q-134 -292 -246 -594q-73 -195 -113 -400q-15 -64 -10.5 -124.5t54.5 -108.5q7 -5 5 -12.5t-9 -14t-15 -8.5q-119 -18 -143 85q-14 58 -5 119v7
q9 105 37.5 208.5t63.5 207.5q113 312 249 616q7 13 11 26q7 15 15 31q11 22 20 44t7 46q-11 9 -22 11t-22 0h-5q-94 0 -189 -2h-55q-35 -2 -59 -22t-46 -49l-58 -74q-123 -157 -248 -311q-185 -224 -386.5 -432t-427.5 -390q-284 -234 -603 -412q-488 -262 -1023 -248
q-504 11 -909 272q-114 73 -202 176q-59 73 -93.5 157.5t-34.5 183.5q5 119 54.5 220.5t137.5 184.5q121 117 266 198q141 82 290.5 143.5t301.5 109.5q246 79 497 133t504 92q600 83 1203 110q308 19 614 19q84 -2 130 71q81 114 163 229q127 176 250 358
q572 854 1096 1736q44 75 86 152q20 39 42 79q26 51 83 57q31 0 45.5 -17.5t3.5 -46.5q-11 -24 -25 -46q-85 -152 -151 -308q-25 -55 -49 -108q-231 -501 -464 -1003q-178 -387 -359 -776q-52 -115 -103 -229q-11 -24 -22 -46q-2 -5 -4 -11q-7 -16 -11.5 -31.5t2.5 -30.5
q15 -11 35 -12t37 -1q14 2 25 2q83 -2 167 0q114 0 229 -2q624 -11 1249 -27q205 -4 407 -17q18 -2 38 -2h24q26 0 50.5 -4.5t46.5 -17.5q4 -3 6 -9.5t0 -10.5q0 -7 -5.5 -12.5t-9.5 -7.5q-18 -7 -38 -7zM2424 903v0q7 14 1.5 25t-18.5 11q-20 2 -42 0h-22
q-755 -9 -1511 -104q-289 -35 -575 -92t-567 -143q-150 -46 -296 -105.5t-285 -141.5q-145 -81 -264 -198q-139 -143 -156.5 -304.5t86.5 -311.5q77 -105 184 -180q390 -277 929 -282q138 0 317 36q178 37 344 108.5t322 168.5q385 237 713 552q227 213 428 448.5t390 479.5
q11 18 22 33zM3036 1110v0q145 330 299 658q7 18 46.5 103.5t91 199t94.5 214.5t60.5 151.5t-10.5 9.5q-7 -9 -11 -18q-24 -35 -46 -70q-183 -284 -368 -567t-383 -558q-19 -26 -39 -55q-38 -52 -75 -105q-15 -22 -8.5 -36.5t30.5 -14.5q40 0 79 2q62 5 123 5q47 -2 73 20
t44 61z" />
    <glyph glyph-name="B" unicode="B" horiz-adv-x="3969" 
d="M7137 -665v0q4 -2 5.5 -9t1.5 -11q-3 -7 -7 -11t-9 -7q-20 -8 -39 -6q-20 0 -38 2q-9 2 -15 2q-93 9 -185 20q-216 22 -429 42q-414 37 -829 68q-581 40 -1164 62q-418 15 -836 22q-46 2 -93 2q-48 0 -94 2q-284 7 -568 7h-4q-167 0 -332 -7q-62 -2 -121 -2
q-75 -2 -152 -29q-577 -202 -1166 -297q-170 -28 -339 -47t-339 -19q-55 0 -110 2q-83 0 -160 22q-31 7 -58 20q-24 9 -40.5 25.5t-14.5 45.5q5 28 24.5 48t44.5 33q77 44 162 59q42 11 86 20q143 33 288 55q581 86 1158 112q35 3 68 5q178 9 356 15q64 2 128 24
q220 82 433.5 183t417.5 229q170 103 313 244q81 77 132 174q68 141 -25 244q-66 68 -156 106q-119 55 -247.5 88t-260.5 57q-374 61 -763 75h-27h-31q-33 -5 -50 -40q-9 -15 -16 -29q-17 -33 -35 -66q-138 -279 -275 -556q-114 -236 -231 -469q-2 -9 -6 -15
q-14 -29 -31 -55q-20 -22 -46 -18q-16 -2 -31 2q-27 14 -18 42q24 62 53 121q174 370 348 737q57 117 112 233q4 11 9 20q13 27 24 53q15 40 -24 42q-20 2 -40 2q-26 2 -51 4h-11q-30 3 -56.5 10.5t-31.5 40.5q0 37 25.5 55t56.5 29q11 4 20 6q83 35 169 62q9 4 20 6
q66 20 99 84q147 279 295 557q50 96 103 195q7 14 13 27q13 28 31 55q22 33 57 26q16 2 31 -2q33 -15 20 -51q0 -2 -2 -2q-25 -75 -60 -145q-86 -169 -176 -339q-28 -57 -59 -114q-16 -29 -31 -57q-26 -49 -51 -99l-2 -3q-4 -8 -6.5 -17t8.5 -13q7 -3 14 -5l4 2q13 3 29 7
l8 4q482 152 963 315t956 350q11 4 20 6q145 60 289 120.5t285 130.5q105 51 198 121q198 161 17 288q-85 58 -185.5 88.5t-205.5 43.5q-251 38 -508 38h-3q-248 -2 -501 -24q-561 -49 -1120 -190q-515 -127 -1010 -347q-130 -57 -253 -130q-35 -22 -70 -40q-20 -8 -38 -4
q-24 -4 -39 13q-11 16 -1 29t25 22q106 75 220 125q2 0 4 2q467 220 955 352q704 194 1415 242q220 16 438 16q237 2 470 -24q220 -22 418 -102q93 -35 161 -105q57 -62 50.5 -136.5t-72.5 -147.5q-84 -84 -187 -139q-125 -70 -255 -127t-262 -110q-4 -2 -11 -5
q-460 -189 -927.5 -350.5t-938.5 -311.5q-79 -26 -158 -53q-110 -37 -220 -72q-48 -11 -77 -53q-24 -40 -21 -62t50 -24q125 -4 250 -13h16q237 -15 468 -50.5t451 -103.5q95 -31 183 -70q59 -27 112 -66q227 -176 33 -443q-64 -88 -147 -160q-205 -176 -440 -304
q-203 -112 -412 -207q-24 -8 -50 -22q-13 -6 -29 -13q13 -20 24 -24t25 -2h2q37 -2 72 -2v0h3v0q24 0 48 2h220q653 -2 1300 -29q704 -24 1402 -86q222 -19 444 -39q268 -22 535 -46q156 -16 310 -38q37 -4 77 -9q28 -4 57 -17zM1965 1093v0q4 2 8.5 8.5t6.5 10.5q0 5 -2 7
l-7 7l-2 2q-24 -5 -44 -24q-4 -5 -3 -10.5t8 -5.5q17 0 35 5zM1855 -549v0q4 3 9 3q8 2 17 7.5t13 16.5q-4 9 -8 11h-5q-532 -24 -1067 -90q-264 -31 -526 -99q-6 -3 -13 -5q-46 -9 -83 -37q-9 -7 -11.5 -15.5t8.5 -15.5q22 -9 47 -15q85 -16 173 -16q75 0 150 7
q651 55 1296 248z" />
    <glyph glyph-name="C" unicode="C" horiz-adv-x="2849" 
d="M3729 1557v0q-11 -2 -24 0t-24 11q-13 13 -11 24t9 20q105 169 182 354q49 114 86 235q24 75 4 161q-19 92 -110 130q-70 26 -143 28h-26q-154 -6 -299 -44q-251 -61 -485.5 -151.5t-458.5 -197.5q-983 -478 -1760 -1208q-196 -176 -343 -394q-51 -77 -90 -163
q-22 -48 -31 -103q-33 -178 154 -266q158 -73 321 -82q128 -11 249 -11q57 0 110 5q770 8 1454 200q11 4 22 6q46 16 97 25q13 2 43.5 4t58 -3.5t34.5 -25.5q2 -11 -3.5 -16.5t-16.5 -7.5q-42 -11 -83 -22q-124 -33 -247 -64q-693 -178 -1439 -173q-154 0 -308 6
q-173 7 -347 73q-346 134 -242 442q42 123 119 227q107 154 237 286t271 255q629 554 1384 952q231 121 470.5 225.5t494.5 184.5q214 68 440 103q91 13 181 13q59 0 119 -4q70 -7 140 -29q190 -68 194 -251q0 -81 -22 -156q-46 -145 -113 -279t-144 -262q-22 -44 -71 -57
q-15 -2 -28 0h-5z" />
    <glyph glyph-name="D" unicode="D" horiz-adv-x="4411" 
d="M6904 1350v0q-75 -7 -152 -13q-70 -7 -141 -13q-510 -53 -1016 -137q-581 -92 -1160 -220q-101 -22 -187 -81q-690 -460 -1424 -827.5t-1506 -657.5q-337 -132 -686 -222q-161 -42 -328 -53q-22 -2 -44 -2q-75 -3 -143 24q-106 46 -64 154q33 77 97 136q125 123 277 211
q374 220 774 388q396 171 803 314q11 2 20 7q13 6 29 11q59 17 79 79q35 92 73 183q6 15 13 33q83 206 169 415q161 394 321 790q106 249 170 513q4 24 15 48q20 29 53 20q13 4 29 0q13 -2 21.5 -11t8.5 -22q3 -40 -4 -77q-48 -233 -143 -453q-163 -396 -328 -794
q-66 -163 -134 -326l-26 -62q-40 -99 -82 -200q-2 -4 -2 -6q-7 -11 -8 -21t10 -19q2 -2 7 -4q4 2 11 4h4q104 33 205 66q180 59 358 117q634 195 1279 341q77 17 140 61q183 130 360 266.5t340 288.5q178 160 323 354q86 112 130 248q60 209 -77 368q-50 59 -113 101
t-133 73q-240 103 -500 132q-226 28 -453 28q-207 0 -413 -17q-531 -42 -1050 -161q-354 -77 -694 -191.5t-661 -288.5q-119 -61 -230 -133.5t-212 -158.5q-77 -71 -143 -150q-49 -53 -71 -123q-35 -108 47 -185q50 -48 116 -72q112 -47 233 -55q64 -5 130 -7q88 -4 176 -9
q71 -4 139 -13q9 -2 15.5 -8.5t10.5 -15.5q2 -18 -9 -23.5t-22 -3.5h-13h-13q-64 3 -125 3h-40h-64h-2q-90 0 -178 4t-176 22q-99 22 -192 66q-50 24 -94 59q-132 110 -66 275q46 108 132 190q112 116 246 209q365 250 777 404q332 128 674 215t692 144q539 95 1085 97h35
q207 0 412.5 -21t405.5 -78q165 -46 313 -132q77 -46 138 -110q203 -211 97 -493q-48 -125 -132 -233q-154 -203 -343 -372q-231 -209 -482 -394q-7 -6 -18 -11q-13 -9 -26 -20t-18 -30q9 -7 16 -7l22 4q11 5 22 7q649 132 1302 218q315 39 627 72q108 11 214 22q37 5 77 5
q37 2 74 -7q5 -2 9.5 -7.5t4.5 -9.5q2 -14 -4.5 -20.5t-15.5 -8.5zM1912 -256v0h2q16 7 30 18t19 30h-7q-44 -2 -56 11.5t-1 50.5q6 24 17 48q3 7 5 11q17 44 33 86q39 95 75 192q2 4 6 11q7 15 9 29.5t-7 29.5h-4q-11 -2 -20 -7q-6 -2 -11 -4q-279 -101 -552 -213.5
t-539 -244.5q-216 -103 -418 -231q-117 -70 -213 -167q-53 -48 -80 -116q-8 -22 1.5 -42t34.5 -27q28 -8 59 -8q33 0 66 6q213 38 422 106q454 145 894 330q118 48 235 101zM3947 815v0q2 5 7 7q8 4 12.5 11t-1.5 20q-11 -2 -25 -7q-74 -20 -147 -37q-200 -53 -398 -108
q-550 -154 -1091 -341q-47 -15 -78.5 -41.5t-45.5 -75.5q-8 -24 -19 -48q-7 -11 -11 -22q-14 -33 -44 -92q-31 -60 -62 -126t-43 -113t10 -54q31 7 57 24q13 7 27 13q596 262 1166 581q226 130 448 264q97 60 194 117q2 2 4 2q22 11 40 26z" />
    <glyph glyph-name="E" unicode="E" horiz-adv-x="3980" 
d="M1184 1434v0q-55 -88 -66 -192q-13 -158 110 -257q86 -66 189 -101q200 -71 409 -95q165 -22 332 -33l106 -4q180 0 359 59q200 68 411 84h2q31 2 62 2q20 0 37 -2q29 -3 48.5 -17t19.5 -30q0 -22 -13 -35t-31 -20q-48 -24 -96 -35q-126 -28 -251 -48q-95 -18 -189 -22
q-82 0 -159 -20t-152 -46q-378 -130 -743 -289.5t-711 -364.5q-130 -74 -253 -159t-235 -184q-49 -44 -90 -90q-31 -33 -53 -73q-46 -79 -24 -135t110 -76q74 -15 151 -17q18 0 38 2q169 13 335 46t329 77q456 128 898 290q72 29 134 75q466 315 986 535q217 90 446 152
q97 30 198 30q16 3 29 0q37 0 75 -13q26 -11 13 -39q-20 -33 -57 -49q-335 -165 -675 -321t-687 -293q-46 -17 -93 -37q-101 -40 -204 -77q-66 -24 -123 -66q-183 -130 -355.5 -270.5t-331.5 -301.5q-2 -2 -6 -7q-11 -13 -24.5 -21.5t-30.5 -6.5h-9q-9 -2 -18 0
q-9 0 -18.5 3t-14.5 8q-4 6 -4 17t2 18q18 29 40 51q215 209 455 391q9 7 22 9q4 2 9 2q-18 11 -33 13q-22 -2 -44 -11q-2 0 -7 -2q-39 -11 -77 -24q-163 -53 -325 -99q-88 -24 -243.5 -60.5t-337 -65t-344 -28.5t-266.5 48q-145 80 -88 236q29 70 84 127q92 106 207 190
q169 129 353 239t375 207q466 240 959 416q42 13 82 31l2 2q2 0 4 7q2 4 5 8q-47 14 -93 14q-20 0 -42 2q-39 4 -81 9q-29 4 -57 6q-255 27 -500 101q-123 36 -228 108q-231 167 -139 438q48 134 143 240q119 136 260 246q495 392 1050.5 659t1175.5 399q299 62 605 62h42
q169 -2 328.5 -43t311.5 -111q77 -33 136 -92q36 -31 44 -77q3 -16 -8 -28t-27 -12h-17h-9q-35 -2 -57 22q-62 75 -143.5 115.5t-169.5 71.5q-6 2 -13 4q-222 80 -449 77q-121 0 -242 -17q-460 -62 -886.5 -217t-827.5 -379q-226 -126 -438.5 -272t-405.5 -322
q-121 -106 -207 -242zM3624 334v0v0l6 -3v0zM2711 -76v0q-51 -26 5 -6t171.5 67t248.5 103t236.5 100t132.5 60q42 20 81 42q5 2 9 4q9 4 11 12t2 14q-15 -6 -31 -11q-8 0 -15 -2q-295 -97 -572 -235q-106 -53 -209 -110q-35 -20 -70 -38zM1822 -560v0h2v0h-2v0v0z
M1822 -555v0v0q4 -2 5 -2t1 1t-1 2t-2 0t-3 -1z" />
    <glyph glyph-name="F" unicode="F" horiz-adv-x="2482" 
d="M5113 2811v0q37 -22 47 -58.5t-12 -73.5q-33 -53 -81 -97q-97 -90 -214 -163q-589 -385 -1269 -585q-31 -9 -62 -20q-46 -15 -94 -28q-13 -5 -24 3t-14 23q0 7 5.5 16.5t12.5 12.5q57 24 119 44q682 226 1278 629q73 53 141 110q9 9 20 15q35 29 50 73q9 26 -15 44
q-27 17 -60 20q-6 0 -13 2q-130 22 -260.5 22t-260.5 -11q-295 -29 -587.5 -79.5t-583.5 -112.5q-862 -182 -1696 -462q-297 -99 -588.5 -211t-575.5 -246q-77 -38 -154 -75q-41 -22 -85 -44q-7 -2 -11 -7q-29 -15 -60 -24q-15 -6 -31.5 -5t-25.5 14q-9 18 0 31t24 22
q2 2 7 4q72 42 149 82q247 125 503 230.5t518 198.5q1054 376 2150 596q264 53 528 97t532 66q77 4 156 8q35 3 73 5q165 0 330 -24q70 -9 134 -42zM2394 763v0q15 -3 28.5 -10.5t20 -16.5t1.5 -17q-11 -14 -25 -16t-27 -2h-5q-235 0 -473 -22q-125 -11 -253 -18
q-42 -2 -57 -44q-13 -33 -29 -66q-8 -19 -15 -39q-31 -71 -59 -139q-242 -589 -504 -1170q-75 -161 -159 -317q0 -2 -2 -4q-26 -51 -66 -97q-35 -42 -92 -29q-16 5 -27 16t-11 28q3 38 14 75q8 26 17 55q44 143 93 286q220 631 512 1232q27 57 64 112q9 13 25.5 15.5
t31.5 -2.5q27 -8 20 -41t-27.5 -76t-40.5 -76q-16 -27 -22 -40q-302 -649 -337 -757q-13 -37 -13 -50t9 -11t20 12t20.5 21t12.5 15q13 33 28 68q49 113 97 225q15 33 29 66q103 244 204 488q5 9 13 27q18 35 38 82t25.5 84.5t-19.5 39.5h-101h-66h-59q-97 0 -194 3
q-26 2 -48 13q-2 2 -3.5 7.5t-3.5 12.5v4t2.5 4.5l4.5 4.5q13 9 26 11t27 2h8l110 4q143 9 286 11q49 0 76.5 21t42.5 65q71 183 143 365q77 194 152 388q57 149 108 299q28 79 57 160q0 3 2 5q11 35 29 64q11 15 26.5 16t32.5 -3q13 -7 21 -17t6 -23q-7 -50 -20 -99
q-73 -240 -165 -471q-5 -6 -7 -13q-83 -218 -171 -433l-80 -198v-2q-11 -29 -22 -60q-11 -28 -1 -40.5t43 -12.5q44 0 88 5h40q4 0 6 2q253 9 504 18q20 2 40 0z" />
    <glyph glyph-name="G" unicode="G" horiz-adv-x="2572" 
d="M4002 2602v0q97 -273 -42 -546q-13 -26 -31.5 -47t-51.5 -28q-22 -4 -38.5 10.5t-12.5 33.5q13 38 26 73q7 18 16 35q68 189 24 374q-48 211 -253 277q-119 36 -240 39t-246 -19q-381 -70 -744 -222q-559 -227 -1065 -565q-435 -291 -783 -685q-121 -136 -219 -289
t-157 -327q-57 -173 -55 -349q7 -190 96 -324t239.5 -195.5t339.5 -30.5q242 41 458 173q128 75 239 169.5t214 200.5q249 260 445 561q114 178 189 376q4 7 6 16q18 46 40 90q35 61 110 53q46 -5 51 -53q0 -71 -27 -139q-167 -477 -363 -944q-4 -11 -9 -22q-11 -22 -19 -44
q-3 -6 -5 -13q-11 -26 -13 -55q0 -11 7.5 -16.5t18.5 -9.5q14 -5 22 -13q3 0 5 -3q6 -6 10.5 -12.5t-4.5 -17.5q-6 -11 -19 -18q-14 -7 -29 -7q-42 5 -66 -18t-40 -59q-59 -125 -121 -248q-127 -260 -286 -506q-99 -154 -222 -291q-127 -145 -301 -226q-95 -44 -194 -49
q-114 -8 -185.5 54.5t-80.5 176.5q-7 97 26 194q69 187 203 334q341 390 814 581q79 31 158 55q9 5 20 7q59 17 86 72q24 58 50 115q73 152 124 312q2 5 0 9q-3 2 -3 4q-24 -4 -38 -19.5t-28 -32.5q-6 -11 -15 -22q-169 -203 -365 -381q-238 -216 -528 -334
q-165 -66 -332.5 -87t-334.5 12q-193 39 -325 185.5t-159 368.5q-15 139 10 274t83 267q66 148 155 280t197 255q380 431 864 741q346 225 712 400t756 291q171 53 347 80.5t352 20.5q185 -6 346 -85q140 -71 191 -218zM1844 -32v0q4 16 -4.5 26t-24.5 5q-35 -11 -68 -24
q-405 -178 -713 -502q-112 -116 -191 -257q-60 -99 -73 -233v-9q-2 -18 0 -46q11 -101 69.5 -135.5t155.5 5.5q140 64 246 180q132 139 233 300q101 156 188 320t166 331q9 20 16 37v2z" />
    <glyph glyph-name="H" unicode="H" horiz-adv-x="3168" 
d="M5023 -38v0q4 -2 8.5 -7.5t4.5 -12.5q0 -11 -6.5 -17.5t-15.5 -6.5l-20 2q-4 -2 -6 -2q-555 31 -1094 37.5t-1087 4.5h-178q-55 0 -89 -21t-58 -74q-141 -321 -288 -640q-80 -174 -159 -348q-57 -127 -112 -257q-29 -64 -55 -128q-2 -6 -7 -13q-4 -18 -15 -33
q-18 -15 -46.5 -17.5t-49.5 11t-12 46.5q20 55 44 107q211 482 425 964q50 112 101 227q7 17 15 37q18 40 36 79q17 44 -22 49q-280 -7 -557 -25q-145 -8 -293 -15q-83 -2 -116 -79q-145 -313 -302 -621q-92 -182 -187 -365l-70 -132q-20 -42 -44 -79q-24 -33 -65 -40.5
t-71.5 4.5t-28.5 38q11 51 31 97q158 405 345 796l132 278q18 44 -24 49.5t-123 -3.5h-7q-141 -13 -289.5 -39.5t-194.5 -39.5q-46 -11 -94 -11q-3 -3 -7 -3t-9 3l-17 -3q-9 0 -18 7t-9 18q2 6 7.5 15t12.5 13q176 62 359 86q209 31 418 53q70 2 99 64q61 125 127 250
q79 148 161 295q28 55 57 110q4 5 7 11q8 18 19 33q55 64 92.5 139t68.5 154q15 33 29 66q266 600 525 1203q119 264 183 544q26 101 13 202q-13 59 -77 61.5t-155 -33t-189 -86t-177 -99t-117 -72.5q-11 -6 -15 -9q-1032 -642 -1848 -1542q-90 -99 -172.5 -204.5
t-151.5 -222.5q-52 -88 -83 -184q-38 -148 21.5 -226t178.5 -104.5t258.5 -18.5t263 28.5t191.5 40.5q81 20 163 38q70 13 39 -9t-134 -60.5t-247.5 -75t-298.5 -52t-289 6.5t-220 100.5t-87 232.5v8q5 97 46 185q69 159 176 295q113 147 236 284q792 869 1784 1500
q117 75 272 164t319 149.5t307 54.5q158 -9 173 -165q7 -58 -0.5 -113t-21.5 -110q-2 -8 -4 -17q-29 -132 -75 -257.5t-99 -248.5q-451 -1072 -944 -2123q-15 -31 -28 -64q-22 -51 4.5 -70.5t89 -19.5t146.5 6q13 0 26 3q55 2 112 6q253 20 502 27q44 0 61 37q20 40 38 81
q325 715 676 1417t712 1399q4 9 9 18q13 33 39 55q20 11 46.5 11t45 -12t7.5 -43q-2 -7 -6 -15q-29 -75 -64 -148q-178 -358 -359 -715q-63 -127 -127 -255q-420 -838 -823 -1685q-7 -16 -15 -31q-9 -18 -16 -35q-24 -53 -3 -68.5t67 -10.5q482 26 982.5 11.5t993.5 -40.5
q151 -7 301 -15h11q20 0 39.5 -3.5t35.5 -16.5z" />
    <glyph glyph-name="I" unicode="I" horiz-adv-x="2070" 
d="M2805 2976v0q-72 -192 -154 -379q-856 -1938 -1469 -3326q-143 -26 -58 169q159 423 558 1346t813 1840q84 187 154 378q2 9 7 18q15 35 25 76t3 89q-64 -11 -116 -37q-14 -5 -25 -9q-488 -203 -1019.5 -528.5t-924.5 -679.5q-84 -77 -163 -160.5t-148 -178.5
q-77 -101 -114 -224q-68 -229 136 -348q143 -81 285 -108.5t267.5 -25.5t217.5 13q38 2 66 5q18 2 36.5 -1.5t32.5 -20.5q22 -31 -57.5 -47.5t-217 -16.5t-291.5 17q-273 38 -424 117q-93 46 -154 128q-71 99 -55 217q15 124 77 229q103 172 244 310q246 253 571.5 489.5
t674.5 438t666 351.5q145 66 294 123q71 28 148 39q22 3 39 0q143 7 119 -145q-15 -81 -44 -158z" />
    <glyph glyph-name="J" unicode="J" horiz-adv-x="3289" 
d="M6794 -104v0h13q15 0 30.5 -3.5t28.5 -16.5q3 -4 6 -9.5t3 -12.5q-2 -4 -5.5 -9.5t-7.5 -8.5q-18 -4 -37 -2h-20q-110 7 -220 16q-203 15 -405 28q-834 53 -1647 57.5t-1649 -22.5q-88 -2 -176 -11q-83 -6 -167 -8q-81 -3 -127 -71q-207 -275 -449 -521
q-170 -174 -354.5 -312.5t-388 -220t-424.5 -80.5t-461 109q-112 48 -198 139q-139 158 -31 341q77 118 198 195q183 121 427 205t515.5 136.5t533.5 83.5t478 46q88 7 136 77q178 258 379.5 604.5t387.5 729t320 744.5t180 652q13 88 -6 176q-36 141 -176 161q-20 2 -38 2
q-42 0 -83 -11q-181 -37 -447 -164.5t-558.5 -317t-560 -415t-452.5 -458.5t-235 -451q-40 -187 132 -273q138 -61 294.5 -53.5t299.5 36.5q88 19 176 19q37 0 72 -4q9 0 17 -5.5t5 -18.5q-4 -22 -24 -24q-121 -11 -244 -31q-150 -27 -300.5 -35.5t-297.5 30.5
q-75 20 -139 62q-154 103 -125 286q44 233 237.5 484t476 488.5t596 435.5t597.5 326.5t480 159.5q48 9 96 7q84 2 163 -22q145 -46 183 -196q33 -161 -39.5 -439t-213.5 -619t-313.5 -685.5t-336.5 -633.5t-283 -465q-33 -47 -64 -95q-6 -13 0.5 -24t21.5 -11h2v0
q40 0 80 2q116 4 233 11q246 11 493 18q1709 50 3412 -108zM2154 -296v0q11 14 24 29q22 26 45 57t41 73h-37h-14v0h-19q-71 -9 -143 -18q-93 -11 -185 -22q-214 -20 -495.5 -71.5t-552 -140.5t-444.5 -223q-59 -47 -108 -106q-145 -183 29 -337q200 -162 412.5 -177.5
t422.5 74.5t401.5 241t351 317t271.5 304z" />
    <glyph glyph-name="K" unicode="K" horiz-adv-x="2462" 
d="M2783 -247v0q18 -16 16 -34.5t-11 -33.5v-3q-64 -151 -192.5 -228t-309.5 -64q-174 17 -273 121.5t-114 280.5q-7 86 6.5 171t33.5 170l26 106q24 88 42 178q26 141 -30 196t-158.5 58.5t-207.5 -10.5q-60 -6 -110 -8q-20 0 -31 -11t-20 -25q-53 -94 -103 -191
q-467 -880 -1012 -1714q-84 -127 -174 -251q-20 -30 -45 -53.5t-61 -34.5q-66 -19 -104.5 8.5t-35.5 97.5q4 81 24 163q119 497 307 851t454 640t614 577q55 44 88 108l92 176q170 327 335 656t312 666q145 336 149.5 502.5t-154 176t-499.5 -126.5q-334 -134 -654 -299
t-631 -352q-116 -68 -286.5 -180.5t-336.5 -242t-274 -253.5q-79 -94 -39.5 -128t158.5 -39q57 -2 194.5 -1t306.5 14q95 7 185 14q136 13 233 17.5t115 -11.5q6 -17 -134.5 -38t-346.5 -38.5t-399.5 -21t-292.5 14.5q-174 37 -158.5 135t167.5 236.5t387 294.5t504.5 311.5
t521.5 288.5t434.5 221t246.5 114q262 106 461 143.5t311.5 -20t113.5 -233.5t-133 -497q-108 -255 -230 -505t-248 -498q-48 -95 -99 -196q-28 -55 -61 -117q37 9 60 23.5t41 29.5q9 7 20 13q440 322 961 648.5t1095.5 609t1175 469.5t1199 231t1168.5 -105q6 -2 12.5 -11
t6.5 -18q0 -13 -9.5 -20.5t-25.5 -7.5q-11 -3 -24 2q-475 123 -984.5 94.5t-1033 -171.5t-1037 -367.5t-994.5 -495t-904.5 -554.5t-766.5 -546l-2 -2q-27 -17 -51 -39t-22 -37.5t55 -13.5h31q97 9 203.5 5.5t194.5 -36.5q128 -53 128 -189q-2 -64 -16 -125
q-22 -102 -46 -203q-24 -110 -48 -222q-29 -132 9 -264q37 -114 116 -177t180.5 -66t202.5 63q75 50 121 129l18 36q6 17 15 33q18 28 41 38t40 -3zM1162 369v0q2 4 7 11q8 15 20.5 37t19 42t1 24.5t-32.5 -17.5q-448 -352 -704.5 -791t-384.5 -1007q-11 -50 -2 -55.5t29 15
t38.5 48t27.5 38.5q262 405 508 817.5t473 837.5z" />
    <glyph glyph-name="L" unicode="L" horiz-adv-x="1851" 
d="M3960 -397v0h7q15 -2 29.5 -6.5t25.5 -17.5q4 -4 6.5 -11t-0.5 -13q-2 -7 -7.5 -12.5t-9.5 -5.5q-27 -4 -55 0q-671 139 -1487.5 179.5t-1506.5 -29.5q-31 -2 -60 -7q-26 -2 -50 -4q-77 -11 -132 -68q-124 -135 -273 -238q-117 -79 -258 -88q-57 -4 -110 18
q-50 22 -64.5 66t12.5 94q44 71 145 121.5t215.5 82.5t193.5 47q106 20 172 103q319 388 613.5 878.5t543 1009.5t427.5 994q6 25 20.5 43.5t42.5 25.5q27 4 46.5 -10.5t15.5 -40.5q-9 -62 -31 -121q-171 -451 -405.5 -939.5t-510.5 -952.5t-569 -840q-61 -77 -37 -89.5
t94 1.5q16 2 31 4q550 62 1141 37.5t1165 -103.5q202 -29 396 -66q114 -22 224 -42zM244 -623v0q168 68 278 215q-181 -13 -322 -112q-44 -33 -51.5 -64t18 -45t77.5 6z" />
    <glyph glyph-name="M" unicode="M" horiz-adv-x="3769" 
d="M4389 2413v0l-14 -36q-70 -182 -151 -358q-418 -869 -898 -1681q-156 -262 -319 -515t-328 -504q-39 -59 -79 -118q-2 -5 -4 -7q-9 -18 -21 -30t-32 -12q-9 0 -19 4.5t-16 11.5q-5 6 -7 19.5t2 21.5q27 58 60 110q74 121 149 242q141 225 277 451q302 504 577 1029
t537 1061q105 207 173 443q14 41 21.5 85t7.5 91q-7 101 -86 88q-70 -14 -132 -44q-147 -71 -290 -157q-768 -466 -1399 -1157q-9 -11 -20 -22q-218 -237 -432.5 -478t-416.5 -496q-42 -53 -88 -99q-49 -51 -117 -40q-29 4 -47.5 28.5t-14.5 57.5q14 90 40 174
q81 266 172 525q13 40 24 77q24 97 68 179q0 2 -2 2q-11 6 -22 9.5t-22 -7.5q-40 -44 -77 -92q-304 -412 -602 -831t-582 -852q-24 -42 -53.5 -68.5t-78.5 -17.5q-22 6 -34 27t-5 41q26 59 57 112q88 152 174 304q173 301 343 605q264 466 471 981q81 198 132 416
q28 116 24 242q-13 202 -134 289t-318 82.5t-437 -80.5t-492 -201t-486 -276t-416.5 -306t-284.5 -291q-107 -150 -182 -330q-38 -86 -44 -187q-2 -20 -20 -30t-40 -6q-35 11 -44 55q-6 58 9 106q33 121 88 229q101 189 307 386t480 377.5t572 322t583 220t513.5 70.5
t360.5 -125.5t128 -370.5q-7 -163 -51 -310q-64 -216 -147.5 -417.5t-177.5 -394.5q-29 -60 -12.5 -58.5t49.5 45.5q119 158 238 312q81 103 165 202q11 14 22 27q48 59 116 79q51 11 86 -23t24 -102l-4 -14q-18 -88 -42 -171q-64 -203 -132 -403q-33 -103 -66 -209
q-7 -15 -20 -55q-13 -35 -25 -69t-19 -52q9 7 163 183q209 240 495 562t449 492q301 303 634.5 551.5t691.5 449.5q88 46 181 83q20 7 39 16q88 35 187 26q190 -18 174 -240q-11 -138 -61 -259zM1559 1365v0q5 -4 7 -6v-2q2 0 2 2v0q-4 2 -9 6z" />
    <glyph glyph-name="N" unicode="N" horiz-adv-x="1450" 
d="M5582 2617v0q-26 -6 -47 1.5t-39 18.5q-9 4 -15 9q-255 138 -541 207q-744 178 -1516 -148q-282 -119 -540.5 -286t-504.5 -365q-396 -321 -729.5 -703t-614.5 -815q-102 -154 -196 -312q-2 -5 -5 -9q-72 -112 -118 -238q-22 -59 -55 -112q-40 -70 -110 -53q-40 9 -33 51
q4 31 19 59q75 148 132.5 299.5t107.5 305.5q13 40 27 77q301 882 558 1776q5 19 7 39q0 9 2 20q-24 -2 -37 -15.5t-22 -30.5q-2 -7 -7 -13q-15 -22 -28 -47q-146 -228 -291 -459q-226 -370 -453 -740q-328 -534 -660 -1071q-73 -119 -154 -231q-20 -29 -37 -55
q-31 -51 -86 -62q-16 -2 -29 1.5t-17 16.5q-5 9 -0.5 21t11.5 21q792 1296 1588 2589q73 115 154 225q18 24 33 48q46 68 121 88q46 9 72.5 -13t24.5 -71q-13 -143 -57 -283q-218 -753 -467 -1496q-2 -9 -6 -16q-9 -22 -12.5 -44t9.5 -48q18 24 36 46q37 46 70 92
q392 555 893 1006q288 259 597.5 478t650.5 375q704 315 1414 234q449 -55 836 -260q9 -4 20 -9q20 -9 37.5 -20t28.5 -33q2 -4 2 -11.5t-2 -14.5q-4 -7 -9.5 -12.5t-12.5 -7.5z" />
    <glyph glyph-name="O" unicode="O" horiz-adv-x="3162" 
d="M2191 3477v0q407 51 668 -52.5t390.5 -326.5t148.5 -530t-58 -662.5t-231 -721.5t-366.5 -709.5t-467.5 -626t-535 -469.5q-132 -88 -273.5 -160.5t-295.5 -116.5q-185 -58 -374 -58q-102 -2 -203 20q-268 60 -420 291q-134 213 -154 466q-20 235 13 464t106 453
q171 531 453 1010q64 104 55 229q-15 301 118 558.5t365 455.5t510.5 323.5t550.5 162.5zM1523 -637v0q301 183 567 461.5t483 616t371 699.5t233 711.5t71.5 652t-115.5 524t-328 323.5t-565 49q-299 -46 -583 -188t-499.5 -367.5t-310.5 -522.5q-2 -4 -2 -8
q-15 -47 -26 -97.5t-9 -105.5q28 20 42 44q4 7 8 16l88 118q69 95 141 190q238 310 539 561q64 50 132 99q40 28 88 26q20 2 42 -4q13 -5 20 -16q6 -9 3 -17.5t-12 -13.5q-112 -68 -209 -156t-187 -182q-172 -174 -319 -366.5t-279 -395.5q-27 -39 -51 -79q-9 -15 -20 -28
q-24 -40 -11 -86q55 -220 235.5 -361t407.5 -150q59 0 118 14q383 88 531 453q22 55 35 114q6 29 15 55q18 53 60 44q13 5 28 0q22 -9 27.5 -25.5t1.5 -35.5q0 -5 -2 -7v-7q-58 -277 -246 -454t-467 -210q-66 -7 -128 -7q-224 -2 -402.5 96t-303.5 303q-4 4 -7 8
q-6 18 -22 29q-2 -4 -6 -9q-11 -17 -22 -37q-24 -44 -46 -88q-66 -119 -124 -240q-110 -235 -195.5 -478.5t-129.5 -500.5q-22 -139 -28.5 -278.5t15.5 -280.5q19 -112 56.5 -215.5t103.5 -195.5q159 -214 420 -238q31 -2 62 -2q66 0 134 13q154 31 297 91.5t280 141.5z" />
    <glyph glyph-name="P" unicode="P" horiz-adv-x="2804" 
d="M4862 1260v0q24 -5 38 -20t6 -29q-9 -13 -20 -16t-24 -1q-16 0 -33 2q-238 7 -630.5 -27.5t-632.5 -67.5q-185 -24 -370 -52q-4 0 -11 -3q-77 -11 -141 -57q-235 -160 -486 -290t-512 -242q-423 -187 -865 -326q-90 -24 -132 -110q-196 -391 -409 -765
q-189 -333 -363 -674q0 -2 -2 -4q-7 -18 -18 -29q-18 -15 -42 -11q-13 -4 -26 0q-27 11 -27 40q3 48 31 90q2 2 2 5q176 316 346.5 632t329.5 641q13 27 26 55q5 14 11 29q-15 4 -28 7q-25 -5 -49 -14q-9 -2 -17 -6q-308 -88 -623 -150q-218 -39 -438 -55q-11 -2 -20 -2
q-22 -2 -44 -2q-85 0 -165 26q-61 22 -73 69.5t29 102.5q55 64 130 105q170 106 357 174q499 189 1012 332q28 9 59 16q66 13 123 38.5t86 88.5q108 249 208 498.5t186 507.5q0 2 2 6q13 47 35 88q9 14 23.5 19.5t29.5 2.5q11 3 24 0q33 -8 38 -44q0 -68 -25 -132
q0 -2 -2 -6q-108 -330 -242 -649q-35 -88 -72 -174q-14 -31 -27 -64q-17 -39 -14 -53.5t20.5 -13.5t42.5 10q8 2 17 4q97 25 194 49q176 44 354 88q436 103 878 176q79 13 138 61q126 95 249 223.5t203.5 277t72.5 305t-144 310.5q-88 92 -200 154q-236 127 -567 186.5
t-709.5 63t-758 -38.5t-710.5 -116.5t-568 -169.5q-205 -81 -390 -200q-75 -46 -141 -101t-118 -126q-20 -31 -53 -33h-16h-4q-13 0 -25 3.5t-19 14.5q-4 9 -4 18.5t2 16.5q17 40 46 70.5t59 59.5q80 68 166.5 123t177.5 103q233 124 596 223t797.5 159.5t875.5 66
t826 -58.5t656 -214q121 -66 217 -169q135 -152 153.5 -300.5t-41 -288t-164 -266t-214.5 -236.5q-13 -11 -26 -27.5t-11 -27.5t33 -7q369 60 736.5 90.5t739.5 41.5h20h2q31 0 62 -4zM990 193v0q8 20 30 57q31 59 65 130.5t49.5 125.5t-15.5 59q-19 -3 -37 -9q-4 0 -11 -2
q-70 -22 -141 -42q-169 -49 -339 -104q-8 -2 -17 -6q-304 -93 -599 -214q-149 -61 -283 -149q-51 -29 -84 -77q-13 -20 -7.5 -36.5t27.5 -25.5q46 -15 94 -15q42 0 84 4h2q218 22 429 71q335 74 662 173q5 3 7 3q26 6 48 18t36 39zM1177 232v0q198 51 539 190.5t655.5 295
t428.5 256.5h-26v0h-7q-691 -137 -1368 -326q-60 -17 -82 -72q-41 -88 -81 -174q-31 -64 -62 -130q-4 -9 -5 -20t8 -20z" />
    <glyph glyph-name="Q" unicode="Q" horiz-adv-x="2731" 
d="M4854 -1103v0q9 -7 11 -15.5t-7 -15.5q-396 -275 -818.5 -426.5t-860 -151.5t-879.5 187q-597 259 -1008 754q-7 9 -11 16q-7 6 -13 15q-18 22 -31 34t-24 14q-20 -4 -64 -24q-130 -61 -285 -101t-310 -38.5t-286 64t-217 207.5q-68 121 -99 253t-33 271q-9 391 121 768
q5 15 11 30q9 22 16 42q11 35 -20 55q-9 5 -18 11q-28 16 -57 35q-295 201 -273 564q18 239 165.5 479t386 455.5t530 384t598.5 265t590.5 100t507 -111t346.5 -367.5q121 -268 117 -567q-2 -40 -2 -80q-3 -17 -3 -35q-8 -273 -75.5 -532.5t-179.5 -510.5
q-209 -466 -527 -842t-747 -656q-6 -4 -11 -6q-17 -11 -33 -22q-28 -27 -4 -55q4 -7 7 -11q4 -5 8 -9q350 -436 795.5 -681t950.5 -275t1037 184q269 114 506 286q53 35 110 66q18 8 38 8q22 0 44 -15zM1283 -540v0q11 0 24 9q20 13 42 26q66 44 130 91q763 576 1124 1458
q93 220 146.5 457.5t69.5 512.5q4 99 -20 269q-29 218 -134 405q-123 206 -329 291t-460 67.5t-528 -114.5t-532.5 -254.5t-472 -354t-348.5 -413.5t-162 -430q-39 -350 245 -546q19 -15 33 -17q15 4 30 30q18 27 33 51q25 42 51 79q22 35 66 38h4h5q15 0 27 -12.5t6 -27.5
q-18 -35 -38 -70q-26 -44 -48 -88q-35 -62 29 -77q200 -62 390 -24.5t347.5 154t255.5 290.5t111 387q13 200 -64 383q-4 9 -3 18.5t5 16.5q16 18 38 15q9 3 17 0q40 -11 53 -50q46 -112 57 -231q29 -240 -59 -456.5t-263 -372t-412 -212.5q-253 -57 -502 2q-26 7 -44 7
q-15 0 -25 -13t-19 -40q-66 -193 -99 -391t-24 -401q6 -220 94 -418q73 -160 189.5 -228.5t255 -69.5t281.5 45t273 117q33 17 13 53q-24 35 -46 68q-55 81 -108 163q-96 154 -160 325q-16 42 -27 85t-11 89q3 31 11 62q7 19 24.5 29t39.5 10q9 0 20 -2q18 -4 22 -18.5
t2 -29.5q-2 -93 33 -174q55 -150 135.5 -285t172.5 -261q16 -20 33 -22z" />
    <glyph glyph-name="R" unicode="R" horiz-adv-x="2211" 
d="M176 -93q-15 -29 -31 -60q-4 -8 -6 -17q-31 -60 -60 -121q-182 -368 -347 -739q0 -5 -3 -9q-2 -9 -8 -18q-22 -31 -55 -26q-9 -2 -18 0q-18 4 -27.5 15t-3.5 31q24 73 57 145q115 244 229 491q68 147 137 295q30 59 185.5 374.5t181.5 370.5q205 418 431 828
q145 268 286 539q16 33 40 59q20 20 48 24q9 5 18 2q22 3 34 -11.5t5 -34.5q-6 -15 -13 -31q-39 -94 -88 -187q-163 -314 -330 -627q-86 -160 -169 -321q-42 -77 -82 -156q-15 -29 -30 -59q-3 -5 -5 -9q-6 -11 -9.5 -22t0.5 -20q7 -9 18 -11l22 4q4 3 9 5l242 70
q339 99 674.5 209t665.5 244q206 84 407.5 177.5t395.5 207.5q162 95 305 223q71 63 124 143q107 160 13 299q-57 83 -145 136q-132 86 -286 134q-377 115 -784 146q-239 17 -484 19q-132 0 -266 -6q-200 -9 -401.5 -35.5t-401.5 -90.5q-127 -41 -248 -105
q-93 -44 -165 -117q-20 -22 -47 -33q-13 -6 -24 -4q-22 -2 -37 13q-20 22 0 48q31 42 71.5 73t84.5 55q202 117 420 172q266 68 533 83q259 20 519 22h4h99q249 -4 493 -25t482 -74q123 -28 242 -66.5t229 -96.5q121 -59 211 -154q198 -217 -20 -481q-101 -117 -227 -205
q-158 -114 -325 -205.5t-341 -168.5q-359 -165 -726.5 -296t-738.5 -241q-291 -88 -581 -169q-46 -11 -81.5 -36.5t-57.5 -73.5q-231 -469 -244 -495zM2651 -142q-847 258 -1709 487q-240 61 -482 118q-97 25 -194 47q-33 8 -66 13q-6 0 -13 2q-22 0 6.5 58.5t70.5 36.5
q55 -29 259.5 -86t528.5 -145q613 -161 1465 -410q1179 -325 1274.5 -407.5t-1140.5 286.5z" />
    <glyph glyph-name="S" unicode="S" horiz-adv-x="1474" 
d="M5166 2886v0q26 -22 47 -49.5t27 -65.5q7 -42 -30 -64q-22 -11 -43 -3t-30 32q-24 66 -72.5 104.5t-105.5 67.5q-126 66 -260 107.5t-270 72.5q-227 48 -604.5 62.5t-840.5 -11t-948 -99t-928.5 -202t-779 -320t-500.5 -451.5q-138 -226 -55 -477q60 -172 172 -313
q167 -211 370 -387q171 -156 345 -312q169 -150 339 -304q189 -174 372 -352q17 -17 35 -33q99 -92 174 -204q77 -128 29.5 -198.5t-180.5 -95.5t-309 -15.5t-354.5 44t-317 82.5t-195.5 99q-114 106 -15 224q107 121 261 176q223 86 451 14q44 -16 84 -42q4 -2 7 -5
q11 -6 15 -18t-4 -26q-18 -22 -44 -13q-25 9 -47 22q-158 79 -325 33t-282 -182q-50 -66 -5 -115.5t137.5 -84t186 -54t139.5 -26.5q9 0 13 -2q9 0 22 -2q59 -13 161.5 -27.5t211.5 -20t187 14.5t88 77t-87 169q-103 119 -218 231q-286 277 -587 537l-216 194
q-180 162 -354 332q-161 156 -284 343q-88 136 -123 293q-53 257 95 475q162 244 470 432t714 321t865 215.5t927.5 117t898.5 23.5t778.5 -65t571.5 -149q118 -46 220 -127z" />
    <glyph glyph-name="T" unicode="T" horiz-adv-x="733" 
d="M920 2424v0q20 0 35.5 -13.5t17.5 -30.5q2 -33 -2 -64q-2 -33 -9 -62q-2 -13 -2 -24q-79 -359 -198 -702q-11 -39 -11 -79q4 -48 -18 -90q-50 -75 -81 -156q-203 -579 -436 -1144q-196 -484 -444 -946q-68 -121 -145 -240q-38 -51 -84 -95q-42 -35 -97 -20q-57 14 -55 73
q7 70 31 136q143 396 317 779q319 726 741 1395q77 128 119 266q75 225 141 451.5t114 457.5q7 37 18 75q13 33 48 33zM-400 -962v0q205 374 373 762t309 791q-2 -2 -4 -7q-7 -4 -13 -11q-16 -28 -31 -55q-185 -343 -342.5 -699.5t-300.5 -716.5q-2 -5 -2 -7
q-6 -11 -6 -25.5t17 -31.5zM5309 2479v0q0 -9 -8.5 -18t-19.5 -13.5t-20 0.5q-57 35 -121 47t-128 19q-48 2 -94 11q-172 26 -344 44q-565 46 -1133 50q-547 7 -1095 -24q-618 -31 -1234 -92q-566 -51 -1129 -123q-35 -5 -73 -9q-215 -29 -429.5 -62t-428.5 -81
q-17 -5 -35 -9q-83 -20 -167 -44t-161 -64q-11 -6 -24 -9q-17 -2 -32.5 1.5t-24.5 18.5q-9 16 -2.5 30t22.5 23q50 26 105 46q137 46 276.5 78t280.5 56q407 69 814 120.5t818 91.5q577 59 1155 94q504 33 1008 38q370 4 739.5 -7t738.5 -44q337 -35 669 -103q31 -7 57 -22
q22 -16 20 -44z" />
    <glyph glyph-name="U" unicode="U" horiz-adv-x="3614" 
d="M3786 1656v0q123 17 79 -101q-39 -91 -83 -181q-187 -389 -349 -786t-311 -798q-33 -92 -71 -185q-17 -35 -53 -28q-39 6 -35 44q20 94 46 189q106 348 242.5 687.5t288.5 674.5l48 110q0 2 -2 6q-2 5 -5 9q-46 -31 -79 -75q-11 -13 -20 -26q-213 -242 -523 -574
t-659 -672t-679 -609.5t-581 -386.5q-72 -33 -151 -33q-161 -2 -194 150q-18 99 -2 202q15 110 45 217t65 212q94 284 259 648t355 762q182 379 350.5 747.5t283 684t138.5 537.5q9 64 -2 126q-22 116 -146 90q-90 -22 -173.5 -62.5t-164.5 -89.5q-198 -119 -450 -309
t-516 -427.5t-496 -498.5t-387.5 -519.5t-190.5 -491.5q-9 -64 -9 -128q-2 -231 187 -349q86 -51 180.5 -79.5t193.5 -44.5q183 -28 372 -33q93 -2 183 -8q86 -5 66 -31q-13 -20 -31 -24.5t-35 -2.5h-5q-195 -2 -386.5 12.5t-378.5 58.5q-97 26 -185 66q-319 156 -275 528
q31 248 185 517.5t385 536t495 507.5t517 433.5t451 315.5q143 90 295 156q105 46 215 55q247 13 255 -231q-2 -189 -122 -527t-305.5 -754.5t-388.5 -843.5q-191 -412 -351.5 -771.5t-242.5 -605.5q-61 -181 -92 -366q-18 -96 -5 -191q22 -128 148 -70q248 112 601.5 413.5
t739.5 690.5t730 764.5t571 632.5q46 48 95 97q30 26 70 33z" />
    <glyph glyph-name="V" unicode="V" horiz-adv-x="1564" 
d="M4187 3497v0q275 35 473 -50.5t283.5 -279t28.5 -484.5q-31 -156 -86 -303q-11 -33 -31.5 -59.5t-58.5 -35.5q-13 -4 -26 -3t-22 14q-5 9 -6 20t1 20q64 167 95 341q46 237 -16.5 411t-220 257.5t-399.5 48.5q-334 -57 -675 -257.5t-673.5 -499.5t-640.5 -652t-575 -715
t-476 -686.5t-346 -568.5q-92 -165 -171 -335.5t-152 -344.5q-11 -24 -20 -49q-22 -50 -44 -101q-22 -44 -46 -86q-46 -70 -130 -55q-39 5 -60 30t-28 63v4q-20 93 -28 185q-18 405 -27 792q-9 409 -28.5 818.5t-74.5 838.5q-7 39 -7 81q2 40 42 44q37 2 55 -31q7 -17 9 -35
v-7q75 -497 103.5 -942.5t43.5 -898.5q11 -290 27 -601v-11q0 -17 4 -36t24 -36q20 17 31 38t18 43q4 9 6 18q130 325 298.5 631t355.5 601q136 213 335 492.5t449 587.5t537 607t596 550t626 418t627 209z" />
    <glyph glyph-name="W" unicode="W" horiz-adv-x="1908" 
d="M7276 3062v0q-126 156 -274.5 279t-317.5 220q-427 240 -880 257.5t-913 -143t-907.5 -458.5t-862.5 -690t-778 -836t-656.5 -898.5t-498.5 -876.5q-90 -212 -174 -425q-39 -97 -79 -194q-6 -17 -13 -33q-13 -37 -31 -72q-15 -29 -42.5 -40t-58.5 0q-26 9 -29 40
q0 42 7 83q26 150 40.5 299.5t23.5 299.5q4 44 6 90q3 20 5 42q20 259 33 519q6 123 4 244v93v4q2 33 -4 64q-5 22 -7 46q-4 35 -13 69t-35 61q-42 -5 -67.5 -32.5t-42.5 -62.5q-11 -17 -22 -33q-119 -176 -211 -367q-69 -137 -137 -273q-97 -194 -193 -389
q-33 -64 -69 -126q-17 -31 -41 -55q-49 -42 -97.5 -25.5t-54.5 80.5q-7 97 4 196q13 183 35 365q16 119 31 238q93 728 172 1461q6 61 22 123q11 44 55 59q20 5 37.5 -4t17.5 -31q0 -48 -5 -99q-22 -330 -62.5 -674.5t-88.5 -689.5q-40 -297 -75 -585q-2 -22 -5 -44
q-8 -62 -15 -123q0 -7 4.5 -12.5t8.5 -7.5q5 0 12.5 3t9.5 8q31 55 60 112l110 220q110 220 222 440q75 145 169 277q44 66 104 115q85 61 158 40t110 -120q29 -90 33 -187q9 -118 4.5 -237t-13.5 -238q-2 -22 -2 -44q-13 -209 -31 -424q-6 -95 -13 -192q26 18 38.5 35.5
t16.5 32.5q2 7 7 14q184 437 468 901.5t643.5 916.5t774.5 854.5t866 716t915 499.5t921.5 207t889 -164t814.5 -612q4 -6 8 -13q38 -33 55 -83q5 -18 -6 -32.5t-29 -16.5q-20 0 -34 10t-27 28z" />
    <glyph glyph-name="X" unicode="X" horiz-adv-x="1251" 
d="M809 908v0q-6 -9 -15 -18q-15 -17 -31 -33q-35 -42 -49.5 -66t-7.5 -50.5t29 -76.5q270 -641 596 -1243q9 -18 17 -36q44 -70 69 -149q4 -16 3 -30t-14 -25q-14 -13 -29 -11t-29 11q-11 9 -17 24q-108 216 -225 425q-138 246 -261 503q-110 234 -220 465q-27 57 -60 11
q-204 -273 -378 -572.5t-304 -633.5q-11 -33 -20 -66q-6 -24 -15 -48q-18 -53 -73 -44q-22 4 -34 21.5t-7 41.5q17 73 44 143q79 218 182.5 419.5t219.5 390.5q141 238 308 447q64 68 24 158q-151 381 -299 761q-35 88 -70 178q-18 47 -31 97q-7 35 18 55q30 20 59 -2
q20 -20 31 -46l22 -44q44 -90 81 -185q73 -176 143 -354q57 -145 117 -291q4 -13 9 -24q15 -50 50 -92q51 31 86 79q13 13 24 26q478 533 1030 949q455 338 944 607q475 264 948 420t960 224.5t1004 63.5q62 -2 124 -13q19 -2 41 -4q33 -5 51 -40q4 -9 4 -21t-2 -21
q-4 -9 -13 -14.5t-18 -7.5q-6 -2 -12.5 -2t-11.5 4q-35 33 -74.5 40t-79.5 7h-31q-1009 22 -1975 -335q-401 -149 -779 -356t-741 -458q-713 -488 -1312 -1159z" />
    <glyph glyph-name="Y" unicode="Y" horiz-adv-x="4174" 
d="M4545 2188v0q51 7 78.5 -20.5t16.5 -76.5q-22 -85 -60 -167q-134 -310 -290 -609q-330 -627 -691 -1239q-17 -26 -33 -55q-6 -11 -13 -22q-13 -13 -19.5 -27.5t-0.5 -27.5q11 -17 27.5 -17t34.5 6q15 7 31 7q13 2 28 2q24 4 48.5 3t46.5 -16q9 -5 14.5 -11.5t0.5 -19.5
q-2 -9 -8.5 -16.5t-15.5 -5.5q-90 7 -178 -7q-104 -15 -159 -110q-294 -473 -675 -880q-108 -118 -224.5 -226t-252.5 -196q-117 -77 -251 -123q-79 -24 -161 -24h-2q-26 0 -51 2q-96 9 -147 68t-44 154q11 117 70 218q108 189 267 341q266 262 577 450t670 293
q145 38 222 170q218 372 429 747t405 760q62 121 121 246q11 27 24 53q31 64 30 80.5t-22 2t-49.5 -43t-52.5 -54.5q-18 -18 -27 -29q-576 -590 -1236 -1087q-134 -103 -277 -192t-300 -160q-88 -37 -180 -59t-191 -20q-236 11 -247 249q-4 136 40 264q103 323 259 622
q148 280 297 555q55 99 108 200q156 277 282 572q35 81 59 167q18 68 18 139q0 101 -101 129q-58 18 -114 18t-115 -9q-273 -39 -528 -143q-827 -317 -1474 -917q-152 -141 -273 -305t-202 -353q-55 -125 -86 -254t-27 -267q5 -115 41 -219.5t113 -177t203 -92.5
q9 -2 14.5 -9.5t0.5 -18.5q-2 -7 -6.5 -11.5t-8.5 -6.5q-82 -22 -161 13q-136 60 -211 170t-97 246t-2 275q29 194 103.5 367.5t186.5 334.5q121 169 267.5 315.5t311.5 273.5q268 207 559.5 377.5t608.5 298.5q154 61 312.5 108.5t323.5 69.5q79 11 159.5 12t157.5 -19
q218 -55 182 -275q-26 -145 -88 -279q-123 -282 -270 -550q-68 -125 -137 -251q-138 -255 -275 -512q-154 -295 -253 -614q-17 -57 -30.5 -116.5t-8.5 -121.5q4 -44 17 -86q29 -81 115 -85q64 -5 125 15q119 33 225.5 88t210.5 123q207 132 399.5 284t379.5 312
q490 421 926 896q48 53 101 99q33 31 79 37zM3210 -293v0q4 4 9 8q8 11 12.5 22t-4.5 22q-11 11 -24 9t-26 -9q-5 -2 -11 -2q-31 -13 -62 -24q-4 -2 -9 -4q-316 -121 -587 -307t-506 -428q-95 -95 -167 -209q-57 -86 -88 -183q-22 -61 -7 -125q22 -84 121 -86q90 15 183 66
q101 53 189 120t169 144q271 255 495 550q124 163 240 332q38 51 73 104z" />
    <glyph glyph-name="Z" unicode="Z" horiz-adv-x="1197" 
d="M5676 -806v0q7 -7 7 -20v-6v-9q-5 -13 -16 -18.5t-24 -5.5q-6 0 -13 1t-11 3q-48 42 -105.5 57.5t-114.5 21.5q-35 5 -68 11q-753 148 -1514 229q-387 37 -776 64q-300 20 -601 26q-198 2 -394 11q-145 5 -292 0q-47 -2 -91 -2l-268 -4q-365 -5 -728 -18
q-313 -11 -624 -37.5t-619 -81.5q-209 -33 -409 -103q-7 -2 -16 -7q-22 -9 -45 -14.5t-49 -0.5q-29 4 -36 31q-2 8 1.5 18t9.5 17q40 33 82 61q380 269 743 561q638 502 1221 1065q363 350 735 687q238 215 473 435q115 108 227 220q15 16 28 29q7 4 11 9q11 11 21 23t10 29
q-22 18 -46 22.5t-51 4.5h-24q-277 20 -554 26.5t-557 -6.5q-235 -9 -470.5 -29t-468.5 -62l-22 -4q-42 -7 -81.5 -19t-74.5 -38q6 -44 32.5 -71.5t61.5 -49.5q18 -13 35 -27q99 -79 216 -132q4 -2 7.5 -8.5t5.5 -10.5q0 -14 -7.5 -18t-16.5 -7q-53 -11 -99 11
q-90 44 -172.5 98t-153.5 125q-114 114 36 173q81 33 169 51q128 29 257.5 44t259.5 29q13 0 26 2q335 31 670.5 33t669.5 -7q185 -6 370 -26q46 -5 88 4t77 44q9 11 25.5 16.5l31.5 10.5q7 2 11 4q20 4 34 -7t10 -35q-2 -24 3.5 -37t29.5 -16q11 -2 22 -2q46 -4 92 -15
q27 -7 25 -38q-3 -11 -10.5 -17.5t-16.5 -6.5q-50 -4 -101 -6h-88q-40 2 -60.5 -1.5t-37 -16.5t-45.5 -44l-57 -57q-280 -273 -570 -537q-97 -90 -194 -178q-424 -396 -847 -797q-550 -517 -1144 -979q-134 -105 -270 -209q-82 -63 -165 -125q-5 -4 -11 -9q-13 -9 -24 -20
t-11 -30q46 6 92 13q110 17 222 35q352 53 711 75q451 26 904 36t906 8q691 -5 1378 -66q1025 -93 2028 -315l18 -4q61 -11 118 -29q31 -11 53 -35z" />
    <glyph glyph-name="bracketleft" unicode="[" horiz-adv-x="592" 
d="M1177 2762v0q-31 0 -44 -37q-460 -1316 -803 -2633q-11 -42 -13 -62t11 -30t46 -21h2q51 -19 97 -41q4 -3 6.5 -12.5t0.5 -18.5q-5 -7 -12.5 -14.5t-14.5 -12.5q-24 -11 -44 -8q-99 22 -196 46q-61 13 -44 97q5 17 9 37q9 37 18 77q169 634 365 1262t403 1257q4 11 6 22
q5 15 9 31q29 79 70.5 115.5t107.5 38.5q38 2 74 1t69 -14q13 -5 20 -15t0 -29q-7 -18 -20 -27t-28 -9q-27 -2 -55 0h-40z" />
    <glyph glyph-name="backslash" unicode="\" horiz-adv-x="1234" 
d="M1234 -128q-31 -33 -64 -27q-30 5 -30 46q2 117 -11 225q-3 11 -3 24q-41 442 -95 877.5t-109 869.5q-2 11 -5 24q-33 255 -59 517q-4 29 -7 57q-4 53 17 81.5t58 24.5q27 -7 29 -46q6 -62 13 -126q29 -237 62 -468q105 -689 178 -1395q6 -53 11 -106q26 -207 35 -420
v-75q0 -13 2 -26l-2 -13q-2 -7 -4 -11q-7 -20 -16 -33v0z" />
    <glyph glyph-name="bracketright" unicode="]" horiz-adv-x="591" 
d="M272 -36v0q31 2 46 37q458 1316 803 2636q11 42 12 61.5t-12 28.5t-44 20q-2 2 -4 2q-49 18 -95 42q-6 2 -7.5 12t1.5 17q2 8 9.5 16t16.5 12q22 9 42 7q99 -20 196 -44q61 -16 44 -97q-5 -20 -9 -37q-7 -40 -18 -77q-169 -634 -364 -1262t-404 -1260q-2 -8 -4 -19
q-4 -16 -11 -31q-29 -82 -69.5 -118t-106.5 -38q-37 -3 -74.5 -0.5t-68.5 13.5q-13 4 -19.5 15t-0.5 29q7 17 20 26t26 11h55q20 -2 40 -2z" />
    <glyph glyph-name="asciicircum" unicode="^" horiz-adv-x="658" 
d="M521 2707v0q18 -85 31 -171q5 -27 11 -53q0 -11 -2 -20v-6q-11 -38 -42 -42q-55 -13 -81 26q-9 18 -10 42t1 51q2 37 -4 66q-5 22 -22.5 27.5t-37.5 -12.5q-15 -15 -39.5 -40.5t-46.5 -47.5q-19 -20 -30 -33q-60 -59 -89.5 -60.5t-27.5 29.5t35 68q24 25 49 51
q63 68 132 136q52 49 105 45.5t68 -56.5z" />
    <glyph glyph-name="underscore" unicode="_" horiz-adv-x="1250" 
d="M647 -142l-141 3q-218 2 -477 15q-5 0 -9 2q-9 0 -14.5 3.5t-7.5 12.5q-2 35 35 37q194 11 392 13l81 2h143h389q44 0 88 -4q36 -2 36 -40q0 -35 -36 -39q-13 -2 -28 -2h-82q-176 -3 -369 -3z" />
    <glyph glyph-name="grave" unicode="`" horiz-adv-x="495" 
d="M348 2809v0q6 -14 11 -29q19 -48 32.5 -97.5t11.5 -107.5q0 -19 -7 -37t-29 -31q-22 -24 -41.5 8t-43.5 87q-25 66 -58 116q-13 18 -23 40t1 42t60 31q9 0 17 2h7q22 2 38.5 -2.5t23.5 -21.5z" />
    <glyph glyph-name="a" unicode="a" horiz-adv-x="663" 
d="M729 444q-29 -38 -62 -71t-72 -59q-3 0 -3 -2q-26 -18 -55 -31q-239 -86 -244 101q-97 -84 -130 -103q-79 -47 -171 -42q-68 4 -92.5 41.5t4.5 101.5q44 101 125 180q95 88 211 141q62 31 130 24q68 -4 82 -77q6 -22 -11 -39q-22 -20 -51 -9q-2 0 -5.5 1t-5.5 3
q-29 40 -58.5 33.5t-62.5 -26.5q-154 -90 -229 -251q-4 -7 -5 -15.5t5 -13.5q18 -6 40 2.5t44 25t37 27.5l2 3q73 61 143 125q31 33 77 37q66 0 55 -59q-6 -22 -13 -44q-26 -95 -2 -111.5t73.5 0t99 63t83.5 85t57.5 25t3.5 -65.5z" />
    <glyph glyph-name="b" unicode="b" horiz-adv-x="554" 
d="M512 1588v0q5 8 21.5 13.5t34 8t30.5 -1t11 -12.5q-11 -46 -33 -90q-2 -6 -7 -15q-83 -192 -169 -381q-13 -28 -24 -55q-31 -64 -77 -156q-51 -97 -88 -178q35 42 88 61.5t81 19.5q106 -2 117 -105q17 -117 -42 -238t-156 -198q-82 -46 -155.5 -40.5t-130.5 71.5
q-7 0 -14.5 -6.5t-16.5 -15.5q-11 -13 -24 -20q-9 -4 -19 -2t-16 6q-22 18 -14 44q84 220 197.5 458t227.5 464q48 101 95 196q19 37 37 77q22 46 46 95zM261 681v0q-77 -55 -133 -134t-40 -167q8 -51 41 -72t77 15q44 41 88 103t71 132q22 62 26.5 108t-24.5 56t-106 -41z
" />
    <glyph glyph-name="c" unicode="c" horiz-adv-x="667" 
d="M721 521v0q5 0 11.5 -2.5t10.5 -6.5q14 -13 3 -31q-14 -15 -27 -26q-77 -71 -171 -119q-148 -75 -326 -77q-66 -2 -136 22q-128 50 -104 185q29 125 141 207.5t240 71.5q24 -4 48 -11q22 -9 33 -26.5t2 -28.5q-24 -26 -55 -13q-46 20 -84.5 11t-77.5 -42q-38 -29 -82 -84
t-56 -111t50 -91q70 -31 143 -15q182 37 338 138q14 7 25 16q17 13 34.5 21.5t39.5 11.5z" />
    <glyph glyph-name="d" unicode="d" horiz-adv-x="836" 
d="M910 511l1 -10q-24 -42 -55 -77q-71 -79 -165 -126q-46 -26 -104 -28q-134 -2 -123 130q5 28 13 55q5 13 7 26q13 48 7.5 53.5t-31.5 -27.5q-7 -6 -13 -13q-40 -48 -82 -94q-77 -88 -176 -148q-59 -35 -125 -37q-108 -5 -121 99q-5 42 4 83q44 170 176 259t302 63
q48 -14 70 26q9 15 18 31q46 79 90 158q83 152 167 306q68 121 136 244q20 38 44 73q11 17 27.5 20.5t34.5 3.5h9q20 0 32 -10t5 -27q-13 -42 -31 -80q-92 -184 -173.5 -372.5t-160.5 -379.5q-26 -66 -53 -132q-33 -77 -55 -158q-6 -18 -6 -35.5t17 -30.5q11 -7 23 -2.5
t26 10.5q2 3 6 5q95 55 174 132q13 13 27.5 22t35.5 3.5t22 -15.5zM394 591v0q11 18 6.5 34.5t-22.5 24.5q-37 20 -79 5q-103 -31 -172.5 -118t-75.5 -192q2 -5 2 -7v-18q9 -48 59.5 -18.5t113 95.5t112 125.5t56.5 68.5z" />
    <glyph glyph-name="e" unicode="e" horiz-adv-x="582" 
d="M435 286.5q-77 -40.5 -129 -53t-107 -14.5q-88 -4 -162 24q-121 49 -84 187q35 119 142 186t221 65h2q29 2 55 -4q44 -16 56 -52t-16 -80q-64 -97 -174 -108q-73 -7 -141 7q-13 2 -23 -7t-12 -22q-20 -86 53 -110q90 -31 187 0q112 35 213 132t116.5 90.5t9.5 -37.5
q-14 -49 -72 -106t-135 -97.5zM144 545v0q-6 -7 -8.5 -15.5t6.5 -15.5q35 -20 76 -14.5t69.5 31t24.5 62.5q-3 13 -14 16.5t-22 1.5q-74 -13 -132 -66z" />
    <glyph glyph-name="f" unicode="f" horiz-adv-x="387" 
d="M136 450v0q-39 -99 -83 -198q-68 -158 -156 -308q-62 -105 -151 -149t-199 -42q-95 2 -159 68q-8 9 -11.5 20t3.5 22q8 11 21.5 12t24.5 -3q15 -5 31 -14q11 -6 22 -11q77 -33 148.5 -11t123.5 99q53 77 93 159q2 4 4 6q88 172 154 350q11 29 3.5 41t-36.5 16
q-13 3 -26 3q-11 2 -22 2q-13 2 -22 8.5t-5 22.5q3 13 14 19.5t24 8.5h6q33 7 66 9q31 0 46.5 15.5t26.5 43.5q62 172 130 344q72 189 171 369q42 82 108 145q35 31 75 48.5t86 11.5q9 0 16.5 -5.5t11.5 -12.5q7 -15 -3 -23t-21 -12q-53 -22 -84.5 -60.5t-56.5 -84.5
q-99 -185 -174.5 -375.5t-141.5 -385.5q44 -25 90 -25q20 -2 42 -6q4 -2 11 -2q11 -3 22 -7q4 -2 8.5 -6.5t2.5 -8.5q0 -7 -4.5 -12.5t-9.5 -7.5q-52 -16 -105 -13h-29q-64 2 -86 -60z" />
    <glyph glyph-name="g" unicode="g" horiz-adv-x="854" 
d="M883 536v0q8 2 18 0t15 -9q6 -11 -0.5 -22t-19.5 -17q-90 -44 -181 -91q-107 -55 -215 -110q-16 -6 -31 -15q-24 -13 -48 -24q-55 -27 -73 -84q-48 -136 -101 -270q-68 -179 -170 -341q-57 -93 -138 -165q-97 -91 -222 -115q-207 -42 -399 27q-79 28 -136 90
q-77 83 -7 178q31 40 69 75q85 77 184 138q355 227 729 418h2q39 20 77 42q6 5 17 21.5t16.5 33t-3 24t-41.5 -7.5q-13 -5 -24 -11q-29 -14 -58 -25q-171 -41 -171 132q4 104 62.5 187.5t149.5 131t197 36.5q11 0 22 -3q29 -4 58.5 -4t60.5 13q33 13 49.5 -7.5t5.5 -53.5
q-29 -62 -57 -126q-20 -39 -38 -81q-20 -44 -39 -90q-27 -60 -8 -63t65 21q6 2 13 4q84 40 169 79q60 27 119 55q40 18 82 29zM172 -1v0q31 88 26.5 115.5t-38.5 14.5t-89 -48q-35 -22 -77 -44q-253 -137 -493 -293q-106 -62 -189 -150q-88 -94 6 -167q55 -44 122.5 -61.5
t148.5 -17.5q95 -7 176 35t150 126q41 55 79 114q110 180 178 376zM106 353v0q26 -11 75.5 19t101.5 82.5t82.5 107.5t15.5 93q-4 11 -13 20q-16 19 -35.5 18t-41.5 -7q-73 -29 -129 -99.5t-74.5 -139.5t18.5 -94z" />
    <glyph glyph-name="h" unicode="h" horiz-adv-x="763" 
d="M812 466v0q-18 -16 -38 -29q-64 -40 -115.5 -63t-121.5 -47q-104 -31 -133.5 14t-9.5 125q28 114 32.5 167t-35 36.5t-143.5 -109.5q-145 -125 -248 -286q-13 -22 -32 -36t-47 -14q-27 0 -39 14t-1 38q59 130 121 258q106 222 209 442q77 165 152 330q46 97 90 194
q4 8 9 17q4 11 9.5 22t12.5 24q6 11 22.5 18t33 9t25.5 -2q13 -9 14.5 -19t-3.5 -21q-2 -2 -2 -7q-20 -59 -42 -114q-127 -306 -277 -603q-11 -20 -26 -48q-22 -40 -41 -78.5t-12.5 -51.5t59.5 20q16 11 29 22q42 28 83 53q36 24 80 26q105 7 118 -95q5 -41 -3 -81t-19 -79
l-4 -22q-18 -68 9.5 -78t77 11t100.5 51q35 18 61.5 31t39.5 11q24 -4 22 -19.5t-17 -30.5z" />
    <glyph glyph-name="i" unicode="i" horiz-adv-x="390" 
d="M271 305q-73 -53 -165 -71.5t-143 13.5t-20 142q40 114 110 217q16 22 46 31q22 5 38.5 -7.5t12.5 -31.5q-15 -36 -33 -72t-24 -47q-35 -64 -49 -134q0 -40 107 -5t208 128.5t96.5 55t-58 -102t-126.5 -116.5zM223 756v0q-5 -4 -20.5 -9.5t-33 -8t-27.5 5.5t-1 32
q16 42 33.5 73.5t45.5 69.5q18 17 39 18.5t35 -11t8 -34.5q-22 -79 -79 -136z" />
    <glyph glyph-name="j" unicode="j" horiz-adv-x="407" 
d="M218 848v0q-33 -33 -58.5 -31.5t-14.5 56.5q16 81 73 147q11 11 26.5 13t30.5 -4q7 -5 13.5 -12.5t6.5 -14.5q-13 -90 -77 -154zM464 516v0q7 0 12.5 -3t7.5 -8q0 -4 -2 -10.5t-7 -11.5q-24 -20 -53 -37q-50 -29 -99 -60q-129 -81 -261 -151q-102 -55 -141 -159
q-88 -207 -185 -409q-42 -95 -92.5 -185t-116.5 -174q-128 -165 -326 -191q-162 -20 -314 20q-121 33 -225 97q-39 26 -72 57q-152 138 35 288q62 48 130 86q108 61 218 114q140 68 279 134q231 108 458 218q44 22 72 35q40 18 57.5 30t28.5 29.5t26 55.5q11 31 36 81
q37 84 70 167q24 60 48 117q16 37 40 66q24 26 57 9q24 -13 18 -40q-9 -26 -33 -90q-20 -55 -41 -114.5t-33 -102.5t-8 -51q5 -7 28 3t76 38h2q84 47 165 93q31 17 62 37h2q20 11 39.5 19t41.5 3zM-218 23v0q13 25 0 47q-26 2 -48 -14q-5 -2 -11 -4q-93 -44 -185 -88
q-242 -114 -482 -229q-132 -66 -264 -141q-55 -33 -103 -77q-93 -83 -22 -160q15 -20 33 -33q90 -68 193.5 -105.5t222.5 -39.5q173 0 292 140q82 95 137 205q85 176 167 354q35 73 70 145z" />
    <glyph glyph-name="k" unicode="k" horiz-adv-x="704" 
d="M775 510v0q8 -11 4 -22t-15 -20q-69 -62 -154 -99q-146 -68 -306 -84q-126 -13 -240 38q-42 19 -62 -20q-28 -55 -59 -110q-15 -31 -33 -64q-2 -4 -4 -9q-7 -11 -13.5 -21t-22.5 -14q-8 -2 -17 -2t-16 4q-6 5 -10.5 13.5t-4.5 17.5q7 29 20 57q28 64 55 126
q68 158 143 312q207 425 394 858q15 42 41 75q20 24 55 13q36 -15 22 -51q-24 -74 -52 -149q-139 -343 -304 -673q-35 -71 -25 -89.5t47 -3t86 41.5q35 20 70 35q7 5 13 7q42 24 91 26q19 0 28 -17q5 -11 0.5 -19t-11.5 -12q-75 -44 -152 -84q-37 -17 -77 -37
q-39 -18 -77 -38q-26 -15 -48 -35q-51 -53 11 -88q51 -22 102.5 -23t102.5 12q158 35 297 115q11 6 22 11q26 17 55 30q11 5 24 4t20 -12z" />
    <glyph glyph-name="l" unicode="l" horiz-adv-x="499" 
d="M484 477v0q33 33 55 37t28.5 -7t-8.5 -30q-88 -106 -197 -183t-224.5 -89t-139.5 126q-18 137 166 558t291 690q9 24 27 42q24 24 57 11q11 -5 22 -16t7 -39q-473 -1122 -458 -1220t126.5 -48.5t172 101t75.5 67.5z" />
    <glyph glyph-name="m" unicode="m" horiz-adv-x="1058" 
d="M1045 501v0q35 22 55 11t-15 -62q-44 -59 -157.5 -126t-200.5 -58.5t-50.5 128.5t39.5 134.5t-5.5 16.5t-39.5 -20q-90 -62 -176 -130q-37 -28 -73 -59q-22 -20 -46 -40l-2 -2q-26 -26 -64 -35q-17 -5 -36 -3.5t-32 14.5q-15 15 -11 31.5t25 49.5t46.5 72.5t28.5 48.5
t-3 18q-7 9 -15.5 5.5t-63.5 -43t-150 -110.5q-44 -33 -86 -68q-11 -11 -24 -20q-31 -26 -68 -28q-27 -2 -40 12t-4 38q6 18 15 33q5 7 7 14q79 160 156 321q2 4 4 11q9 17 18 33q24 26 57 17q38 -11 29 -44q-18 -50 -35 -99l-18 -44q-15 -39 -9.5 -50t49.5 15q30 20 59 40
q35 24 68 44q51 31 104 53q26 11 53.5 16.5t51.5 -12.5q18 -15 15.5 -34t-10.5 -36q-14 -33 -11.5 -42t15.5 -3.5t46 25.5t71 44q48 31 101 59q44 29 94 35q69 5 56.5 -55.5t-48.5 -144t-7.5 -102.5t126.5 51.5t111 79.5z" />
    <glyph glyph-name="n" unicode="n" horiz-adv-x="733" 
d="M752 426q-56 -53 -119 -89t-146 -72q-55 -24 -117 -16t-62 75t31 133q31 68 13.5 70t-72.5 -33q-143 -94 -266 -215q-33 -40 -84 -44q-26 0 -40.5 16.5t-3.5 35.5q88 163 178 322q20 33 60 41q17 3 31.5 -10.5t14.5 -30.5q-2 -16 -13 -38q-5 -13 -9.5 -25t-3 -20t12.5 -5
q15 8 30 17q38 22 73 42q31 18 65 32t71 19q60 4 85 -27t6 -86q-20 -50 -42 -99q-27 -46 -9 -70t167 55l75 44q106 68 114 51q16 -20 -40 -73z" />
    <glyph glyph-name="o" unicode="o" horiz-adv-x="531" 
d="M159 237v0h-3q-145 2 -191 64.5t4 166.5q42 79 106 138q22 20 45 32t52 12q17 3 39 -6q7 -2 14 -5q17 3 33 11q4 3 11 5q33 13 70 11h31q59 -9 89 -49.5t21 -98.5q-5 -35 -22 -66q-115 -206 -293 -215h-6zM317 595v0q-79 3 -140.5 -45.5t-91.5 -111.5t-16.5 -103.5
t83.5 -22.5q79 24 139.5 90t74 125.5t-48.5 67.5z" />
    <glyph glyph-name="p" unicode="p" horiz-adv-x="737" 
d="M796 525v0q-22 -9 -46 -15q-6 -3 -11 -5q-24 -9 -48 -17q-68 -22 -139 -47q-53 -15 -83 -66q-49 -79 -122.5 -123t-149.5 -62.5t-134.5 -23t-75.5 -2.5h-5q-24 -15 -48 -59t-42 -79q-4 -9 -6 -16q-99 -198 -196 -396l-110 -220q-18 -39 -42 -75q-22 -28 -55 -11
q-22 16 -11 44q11 29 24 58q172 407 365 805q60 123 113 251q24 59 50 121q2 6 7 13q13 33 31 64q8 11 30 14t38 -6q20 -13 20 -39q0 -13 -5 -27q-4 -11 -5 -22t7 -22q16 -2 28 4.5t23 15.5t26 13q9 5 18 9q48 22 95 38q61 19 121 -9q26 -16 39 -39t20 -49q7 -20 36.5 -21
t66 7.5t66.5 17.5q25 7 36 9q30 7 61 4q9 0 16.5 -3t7.5 -16q0 -5 -3 -10.5t-8 -7.5zM376 459v0q20 13 24.5 43t-6.5 58q-5 9 -13.5 12.5t-17.5 3.5q-18 -3 -35 -11q-185 -93 -299 -264q-22 -40 5.5 -35.5t82.5 34t114 68t101 65.5q38 24 44 26z" />
    <glyph glyph-name="q" unicode="q" horiz-adv-x="563" 
d="M438 668v0h6q18 0 35.5 -2t26.5 -18q11 -17 5.5 -33.5t-16.5 -32.5q-2 -6 -7 -11q-48 -83 -99 -165q-79 -127 -154 -257q-147 -255 -292 -513l-88 -158q-16 -27 -7 -38t28.5 -11t41.5 5h18q53 4 106 11q92 6 187 15q22 0 41 -11h5q2 -2 3 -6.5t1 -9t-2 -6.5
q-13 -11 -31 -15q-229 -35 -460 -68q-28 -5 -59 -3q-33 3 -44 21.5t2 44.5q211 370 425 742q20 35 28 48q9 11 8 13.5t-8 -2.5q-13 -9 -47 -16.5t-93 -0.5q-86 13 -97 96q0 38 9 73q19 77 70 139q103 138 273 187q2 2 4 2q40 13 79.5 15t79.5 -28q4 -5 10.5 -6t11.5 -1z
M365 576v0q0 2 2 6q9 13 15.5 28.5t1 24.5t-31.5 4q-115 -24 -214 -107.5t-123 -200.5v0q-2 -15 -2 -29.5t13 -27.5q13 -11 27.5 -6.5t27.5 13.5q178 112 284 295z" />
    <glyph glyph-name="r" unicode="r" horiz-adv-x="500" 
d="M415 524q-56 -21 -36.5 55t-68.5 38.5t-145 -94.5q-88 -90 -156 -194q-7 -9 -11 -15q-20 -29 -40 -55q-13 -18 -30.5 -22.5t-35.5 -1.5q-17 2 -26 13t-2 26q11 27 26 55q90 167 183 335q2 2 2 4q13 26 31 48q20 22 46 18t35 -31q11 -35 19 -39.5t36 6.5q60 22 117 31
t93.5 -4.5t27.5 -82.5t-65 -90z" />
    <glyph glyph-name="s" unicode="s" horiz-adv-x="443" 
d="M484 507q-158 -59 -228 -96q-51 -25 -58.5 -41.5t11.5 -60.5q0 -2 3 -6q22 -53 26 -110q7 -115 -195.5 -161t-271 -3t-42 109t137.5 134t148.5 98t22.5 67q-5 13 -11 26q-13 31 -27 64q-26 60 -22.5 118t43 97.5t122.5 42.5q47 2 84 -12.5t59 -53.5q18 -27 -11 -49
q-19 -15 -41 -4q-14 6 -27 17v3q-6 4 -11 8q-6 9 -13 14q-26 19 -52.5 11.5t-39.5 -40.5q-9 -26 -9 -53q2 -33 15 -64q9 -19 16 -35q17 -44 28 -60.5t26.5 -14t283.5 101.5q58 19 33 -47zM51 125v0q70 24 59 94q0 5 -2 11q-4 38 -16 58.5t-54 -1.5q-104 -59 -192 -138
q-6 -7 -11 -13l-2 -3q-6 -8 -2 -18t18 -10q103 -16 202 20z" />
    <glyph glyph-name="t" unicode="t" horiz-adv-x="568" 
d="M625 483q-134 -158 -262.5 -233t-275 -49.5t-120.5 196.5q18 86 49 168q77 191 156 380q26 68 55 137q7 15 13 30q11 25 22 51q16 44 -35 46h-57h-29q-15 -2 -31 -4q-26 -2 -51.5 -2t-47.5 13q-6 2 -9.5 7.5t-3.5 12.5q2 4 6.5 9.5t11.5 7.5q22 9 46 13q62 3 123 5h42
q40 0 59.5 3t31.5 21t28 55q9 20 22 44q33 70 66 143q15 33 31 64q13 31 41 48q27 13 47 -2q6 -4 9.5 -13t3.5 -16q0 -39 -20 -77q-4 -8 -9 -19q-13 -36 -28 -73q-29 -68 -55 -139q-7 -13 -0.5 -23t19.5 -10q71 -2 139 -2h70q110 -2 88 -31q-15 -17 -32.5 -19.5t-35.5 0.5
h-22q-112 -7 -222 -9q-51 0 -68 -46q-18 -44 -35 -88q-25 -58 -47 -113q-22 -52 -44 -105q-57 -134 -110 -269q-33 -88 -52 -180q-42 -167 129 -128q168 40 352 242q80 51 42 -46z" />
    <glyph glyph-name="u" unicode="u" horiz-adv-x="822" 
d="M25 177q-95 0 -95 99q0 121 157 427q6 13 22 13q63 0 63 -50q0 -18 -11 -44q-4 -7 -105 -264q-16 -42 -16 -62q0 -22 20 -22q73 0 383 363q40 49 79 49q57 0 57 -42q0 -16 -35 -121q-48 -143 -48 -165q0 -33 22 -33q55 0 321 196q15 13 26 13q25 0 25 -42q0 -11 -7 -18
q-141 -121 -240 -184q-90 -58 -160 -58h-14q-103 22 -103 161q-110 -97 -182.5 -156.5t-158.5 -59.5z" />
    <glyph glyph-name="v" unicode="v" horiz-adv-x="532" 
d="M638 842v0q-9 -22 -22 -42q-163 -264 -370 -491q-28 -33 -61 -59q-31 -22 -66 -31q-99 -17 -115 79q-4 60 0 119v53h3v35v88q0 24 2 49q11 55 55 57q48 -2 53 -68q0 -18 -3 -33q-2 -16 -2 -29q-4 -97 -6 -196q0 -22 19 -26q7 0 12.5 3t9.5 8q58 68 113 136q22 27 44 53
q24 31 48 59q95 119 191 236q11 15 25.5 26t36.5 11q18 -2 31 -13q4 -4 4 -11t-2 -13z" />
    <glyph glyph-name="w" unicode="w" horiz-adv-x="813" 
d="M910 866v0q11 0 21 -10t6 -21q-7 -17 -16 -33q-143 -244 -330 -457q-48 -55 -105 -104q-27 -24 -62 -37q-64 -27 -99 -0.5t-31 94.5q3 11 5 22q2 16 3 34.5t-5 40.5q-27 -24 -51 -46q-51 -48 -99 -92q-53 -49 -125 -38q-49 9 -58 55q-4 38 0 75q22 165 82 319
q11 24 28 40q22 24 55 13q33 -13 27 -49q-7 -30 -16 -61l-4 -22q-26 -95 -36 -146.5t-9 -70.5t10 -12q37 18 64.5 47.5t51.5 60.5q20 28 44 55q25 26 47 53q19 26 41 50q20 22 47 38q35 17 70 -5q15 -11 17.5 -25t-2.5 -30q-13 -59 -26 -119q-7 -30 -15 -59q-5 -24 -9 -48
q-2 -9 0 -18t11 -11q6 -2 11.5 0t10.5 7q28 24 50 52q47 60 93 119q35 49 72 95q77 103 159 202q26 38 72 42z" />
    <glyph glyph-name="x" unicode="x" horiz-adv-x="634" 
d="M134 301v0q-11 11 -24 19q-6 5 -11 9q-35 -13 -59 -39q-13 -16 -31 -27q-26 -20 -57 -17q-18 2 -29 17q-2 2 -2 10t2 12l9 9q26 35 57 64q33 31 42 64t-13 77q-27 63 -42 134q-4 20 -9 42q-9 30 18 52q20 14 43 8.5t32 -25.5q13 -40 26 -79q13 -36 24 -73q18 -44 57 -9
q40 38 82 77l88 84q35 33 75 59q24 16 46 -2q11 -13 8.5 -23t-10.5 -19q-93 -101 -183 -200l-44 -44q-42 -35 -46.5 -61.5t48.5 -79.5q29 -26 90.5 -5t132 63.5t127.5 82.5q40 29 64 42q59 31 69 6.5t-32 -59.5q-22 -15 -42 -31q-90 -64 -180 -127q-46 -31 -99 -51
q-62 -24 -119 -16.5t-108 56.5z" />
    <glyph glyph-name="y" unicode="y" horiz-adv-x="728" 
d="M742 443.5q-56 -52.5 -197 -127.5q-53 -22 -77 -35t-35 -33t-24 -62q-11 -31 -29 -83q-24 -64 -48 -132q-44 -139 -104.5 -274.5t-156.5 -236.5t-247 -134q-152 -29 -294 -9t-278 79q-55 25 -99 66q-73 75 -11 168q33 46 77 83q88 71 184 130q179 108 366 198t378 174
q13 6 29 13q52 24 107 48q38 14 51 51q4 13 2 24q-2 7 -7.5 8t-12.5 -3q-19 -11 -39 -25q-11 -6 -24 -15q-69 -40 -143 -35q-117 0 -119 105q-2 86 29.5 163t89.5 145q6 7 17 11.5t22 6.5q2 0 5 2q22 2 34 -11t5 -33q-13 -28 -26 -57l-22 -44q-44 -86 -40 -180
q2 -20 17.5 -29t35.5 0q59 24 103 68q119 108 196 249q11 20 25.5 34t38.5 16q31 3 47.5 -13.5t9.5 -43.5q-28 -90 -59 -178q-2 -7 -5 -13q-8 -20 -15 -42t-7 -38.5t14 -16.5q55 11 160.5 88t118.5 51.5t-43 -78zM261 120v0q0 5 3 9q6 11 7 24t-7 27h-11q-14 -3 -25 -7
q-22 -9 -44 -20q-176 -81 -352 -167t-345 -183q-103 -59 -194 -138q-74 -66 -71 -115.5t87 -89.5q191 -99 411 -81q150 15 243.5 113t153 234.5t103.5 272.5q19 64 41 121z" />
    <glyph glyph-name="z" unicode="z" horiz-adv-x="499" 
d="M149 400v0q-37 -27 -37 -38t24 -13t53 -2q9 2 15 2q95 -2 183 -26q26 -9 51 -25l2 -2q4 -2 6.5 -8.5t-0.5 -11.5q0 -4 -5.5 -7.5t-9.5 -5.5q-18 -4 -35 -2q-185 22 -370 20h-72q-11 0 -25 -2q-26 -3 -48 1.5t-29 33.5q-4 22 11.5 32t37.5 16q15 5 28 13q157 88 302 194
q59 42 103 97q13 17 5.5 31.5t-29.5 16.5q-68 7 -132 -11h-2q-46 -13 -95 -24q-24 -4 -42 15q-6 11 0.5 23.5t26.5 20.5q143 60 299 42q37 -6 70 -22q64 -33 31 -94q-37 -66 -103 -113q-86 -63 -176 -125q-20 -13 -38 -26z" />
    <glyph glyph-name="braceleft" unicode="{" horiz-adv-x="853" 
d="M739 15v0q13 -5 18.5 -19t-5.5 -34q-15 -29 -46 -35h-4q-5 -3 -9 -3q-38 9 -75 16q-46 6 -91 18.5t-85 36.5q-75 53 -70.5 202.5t53 337.5t106.5 353t94 249q30 77 50 151q11 47 -31 55q-17 5 -37 3q-29 0 -49.5 7.5t-18.5 40.5q2 26 22 45t44 36q20 11 35 25
q147 127 235 299q117 233 218 482q64 156 132 308q27 52 60 103q103 154 235 95q7 -3 10 -11.5t3 -17.5q0 -11 -7.5 -20t-18.5 -13q-49 -18 -88.5 -55t-56.5 -79q-60 -132 -121 -297q-58 -156 -126 -317t-151.5 -299.5t-189.5 -226.5q7 -9 13 -15q11 -13 25 -22
q55 -44 26 -126q-31 -90 -86 -231q-57 -145 -116.5 -312t-95.5 -320t-25 -258.5t96 -129.5q20 -5 51 -7q46 -4 77 -15z" />
    <glyph glyph-name="bar" unicode="|" horiz-adv-x="313" 
d="M1085 2872v0q-33 -127 -71 -255l-264 -924q-48 -169 -97 -339v0q-46 -156 -90 -312q-154 -532 -306 -1067q-19 -68 -44 -139q-19 -52 -59 -52q-37 0 -26 55q13 50 26 101q394 1373 788 2745q26 95 57 190q20 55 59 52q40 0 27 -55z" />
    <glyph glyph-name="braceright" unicode="}" horiz-adv-x="853" 
d="M944 2712v0q-16 6 -20 20.5t4 34.5q18 26 47 33q2 0 4 2q7 2 9 0q37 -7 75 -13q48 -9 93 -20t83 -35q74 -53 70 -203.5t-51.5 -337.5t-107 -353.5t-94.5 -249.5q-29 -75 -48 -152q-14 -46 30 -55q16 -2 36 -2q28 2 49 -5.5t21 -40.5q-2 -29 -22 -47.5t-46 -34.5
q-18 -13 -33 -26q-150 -128 -238 -299q-116 -234 -215 -480q-66 -156 -135 -308q-24 -55 -59 -106q-103 -151 -233 -94q-7 4 -10 13t-3 18q0 11 7.5 19.5t16.5 13.5q50 17 88.5 54.5t58.5 77.5q57 132 119 297q59 156 127.5 317.5t152 299t189.5 227.5q-9 7 -16 16
q-11 13 -22 22q-55 42 -26 125q31 90 86 229q57 147 116.5 313.5t95.5 319t24 258.5t-96 130q-19 4 -50 9q-49 4 -77 13z" />
    <glyph glyph-name="asciitilde" unicode="~" horiz-adv-x="1445" 
d="M1056 1874v0q44 -7 48 -44q7 -88 -81 -137q-68 -35 -145 -28q-130 -3 -214 79q-52 55 -77.5 54t-80.5 -59l-11 -11q-22 -22 -48.5 -24t-54.5 5q-20 6 -29 21.5t0 30.5q46 69 136.5 103t178.5 16q50 -15 83 -48q11 -11 22 -24q22 -22 44 -40q66 -53 115 15q6 14 13 27
q4 11 11 22q28 53 90 42z" />
    <glyph glyph-name="exclamdown" unicode="&#xa1;" horiz-adv-x="426" 
d="M823 1975v0q72 4 55 -64q-84 -356 -187.5 -722.5t-210.5 -729.5q-60 -202 -117 -398q-24 -84 -55 -167q-26 -64 -99 -62q-70 2 -59 64q4 26 13 50q0 7 2 14q20 70 42 143q108 387 241 831.5t322 987.5q4 9 7 15q6 18 15 28t31 10zM836 2204v0q-37 15 -11 88q13 22 26 46
q36 64 80 132q15 24 36 28.5t43 2.5h4q46 -3 42 -44q-9 -95 -59 -187q-27 -47 -73 -64.5t-88 -1.5z" />
    <glyph glyph-name="sterling" unicode="&#xa3;" horiz-adv-x="1501" 
d="M1403 177v0q14 -6 15 -22.5t-12 -29.5q-66 -53 -141 -64q-121 -24 -222 11q-104 42 -181 114q-11 11 -22 24q-24 31 -61 44q-27 -17 -51 -37q-53 -42 -103 -79q-168 -115 -335 -86q-103 22 -114 102.5t79 174.5q64 62 133 91.5t144 34.5q55 2 106 -5q15 -2 33 -4
q37 -5 54.5 5t39.5 52q40 75 62 152t35 152q5 19 -5 28t-28 9q-26 2 -53 2q-17 0 -35 2h-15q-31 0 -60 5q-17 2 -26 11t-4 26q4 16 16 23.5t28 9.5q39 7 77 7q94 -5 118.5 16t39.5 107q0 7 2 15q27 128 60 256q22 81 61 165q53 116 176 160q101 31 188 24.5t158 -59.5
q35 -29 41 -77q3 -22 -13.5 -43t-41.5 -30q-33 -8 -58 -1.5t-32 32.5q-17 68 -81 86q-79 20 -145 -57q-51 -62 -71 -134q-61 -205 -90 -407q-7 -29 2 -40t42 -11q55 0 112 -2q64 0 128 -2h9q19 0 37 -5.5t20 -30.5q-2 -35 -90 -41q-64 -3 -128 -5q-57 0 -117 -2
q-48 -2 -57 -51q-33 -184 -136 -365q-24 -39 2 -66q33 -31 66 -64q44 -39 88 -79q33 -28 75 -50q35 -22 75.5 -26.5t91.5 19.5q59 31 114 15zM629 305v0q13 15 11 29.5t-18 18.5q-26 5 -48 9q-9 0 -15 2q-71 -4 -130.5 -47t-81.5 -104q-13 -42 10 -61t65 -1q119 53 207 154z
" />
    <glyph glyph-name="dieresis" unicode="&#xa8;" horiz-adv-x="662" 
d="M572 2723v0q9 -7 13 -16q9 -26 -5.5 -63.5t-43 -68t-56.5 -39.5q-47 -9 -67.5 12t-3.5 69q2 7 5 11q4 16 11 29q22 50 62.5 69t84.5 -3zM251 2721v0q37 0 56 -16.5t12 -43.5q-42 -105 -132 -105q-68 8 -42 90q31 75 106 75z" />
    <glyph glyph-name="copyright" unicode="&#xa9;" horiz-adv-x="1094" 
d="M1322 613v0q-13 -44 -20 -68q-2 -7 -2 -9q-57 -211 -158 -372q-60 -103 -148 -187q-178 -165 -391 -171q-73 -5 -139 5t-121 41q-130 72 -170.5 193t-9.5 280q31 152 113.5 288t205.5 260q39 39 83 66.5t97 29.5q18 3 40 9q4 2 9 5q184 57 323 20.5t240 -146.5
q88 -92 48 -244zM1151 527v0q2 11 6 24q7 22 13 47q38 158 -70 244q-73 61 -164 83t-214 -22q-14 -4 -25 -8q-26 -7 -51.5 -19t-49.5 -36q-116 -121 -196.5 -256.5t-102.5 -282.5q-20 -130 15.5 -229t142.5 -156q203 -95 414 101q92 90 152 198q42 77 72.5 156t57.5 156z
M889 558v0q9 -9 3.5 -25.5t-21.5 -22.5q-37 -18 -70 -11q-13 4 -27 6q-19 5 -37 9q-29 4 -59 -13q-53 -33 -83 -86t-21 -101q5 -40 25.5 -51t69.5 2q44 11 81 7q27 -2 29 -26q0 -14 -9 -22.5t-22 -15.5q-77 -37 -154 -33h-15q-16 2 -31 2q-101 18 -125.5 98.5t43.5 179.5
q102 143 260 149q97 5 163 -46z" />
    <glyph glyph-name="registered" unicode="&#xae;" horiz-adv-x="1120" 
d="M794 1002v0q130 11 238 -16.5t174 -123.5q125 -179 13 -427q-44 -99 -108 -192q-106 -156 -243.5 -226.5t-346.5 -65.5q-74 4 -158 51.5t-143 146.5q-108 196 37 438q115 191 313 305q75 42 152 80q17 8 35 17q20 11 37 13zM922 199v0q123 150 182 333q51 202 -81 332
q-99 97 -266 20q-183 -88 -310 -249q-95 -121 -112.5 -242t37.5 -214.5t178 -133.5q154 -50 306 88q2 3 6 5q33 28 60 61zM836 389v0q42 -38 64 -91q9 -24 -6.5 -42.5t-46.5 -23.5q-51 -6 -75 31q-57 77 -147 121q-22 -17 -35.5 -37t-21.5 -42q-9 -22 -22 -44
q-36 -46 -86 -44q-57 2 -40 59q49 115 99 231q31 69 64 137q7 17 15 35q20 44 66 62q73 22 138 19.5t120 -35.5q22 -13 37 -33q24 -35 12 -78t-58 -76q-48 -33 -101 -59q-24 -13 -51 -29q13 -11 27 -22q24 -20 48 -39zM693 543v0q29 -5 55 8.5t51 32.5q15 14 20.5 32.5
t-5.5 29.5q-18 18 -42 29q-13 4 -28.5 -5t-19.5 -24q-7 -13 -11 -29q-20 -37 -20 -74z" />
    <glyph glyph-name="acute" unicode="&#xb4;" horiz-adv-x="495" 
d="M240 2809q11 17 29.5 21.5t38.5 2.5h7q8 -2 17 -2q46 -11 51.5 -31t-11 -42t-35.5 -40q-47 -50 -91 -116q-39 -55 -69 -87t-45 -8q-18 13 -19 31t6 37q13 58 40.5 107.5t60.5 97.5q9 15 20 29v0z" />
    <glyph glyph-name="periodcentered" unicode="&#xb7;" horiz-adv-x="382" 
d="M198 547v0q81 0 57 -79q-11 -31 -24 -57q-13 -25 -37.5 -32.5t-50.5 3.5q-22 9 -24 31q-2 35 2 72q7 66 77 62z" />
    <glyph glyph-name="periodcentered" unicode="&#x2219;" horiz-adv-x="382" 
d="M198 547v0q81 0 57 -79q-11 -31 -24 -57q-13 -25 -37.5 -32.5t-50.5 3.5q-22 9 -24 31q-2 35 2 72q7 66 77 62z" />
    <glyph glyph-name="cedilla" unicode="&#xb8;" horiz-adv-x="1445" 
d="M304 63h26q18 0 18 -26l-44 -60q85 -2 96 -72q9 -113 -171 -91q-119 27 -119 64q13 35 26 35h27q165 -85 167 -8q-97 22 -97 52q35 73 71 106z" />
    <glyph glyph-name="questiondown" unicode="&#xbf;" horiz-adv-x="1971" 
d="M1784 1145v0q-4 7 -8.5 14.5t-6.5 16.5q0 11 9 17.5t17 9.5q115 33 201 -36q114 -92 126 -226t-58.5 -287t-199 -300.5t-295.5 -270.5q-167 -119 -374 -192.5t-409 -67.5q-179 9 -315 97t-182.5 238.5t41.5 348.5q62 121 212.5 276.5t344.5 337.5q171 161 345 336
t320.5 357.5t234.5 364.5q6 9 13 18q15 22 31.5 43t32 29.5t28.5 -6.5q0 -163 -123 -353t-313.5 -390.5t-392.5 -393.5q-203 -192 -361 -361.5t-220 -298.5q-90 -207 -55 -327t154 -165t281.5 -28.5t331 81.5t300.5 166q150 112 261 254t159.5 291.5t6.5 285.5
q-13 42 -36.5 70.5t-67.5 35.5q-19 4 -33 15zM1855 2364v0q-31 9 -20 46q7 11 13 25q7 19 20 34.5t40 22.5q57 17 88 -20q8 -15 11.5 -31.5t-7.5 -38.5q-26 -40 -70 -42q-38 -2 -75 4z" />
    <glyph glyph-name="Agrave" unicode="&#xc0;" 
d="M5405 914v0q-191 22 -385 22q-85 3 -173 5q-801 33 -1606 17h-66q-44 3 -64 -0.5t-32 -22t-28 -60.5q-11 -24 -26 -60q-134 -292 -246 -594q-73 -195 -113 -400q-15 -64 -10.5 -124.5t54.5 -108.5q7 -5 5 -12.5t-9 -14t-15 -8.5q-119 -18 -143 85q-14 58 -5 119v7
q9 105 37.5 208.5t63.5 207.5q113 312 249 616q7 13 11 26q7 15 15 31q11 22 20 44t7 46q-11 9 -22 11t-22 0h-5q-94 0 -189 -2h-55q-35 -2 -59 -22t-46 -49l-58 -74q-123 -157 -248 -311q-185 -224 -386.5 -432t-427.5 -390q-284 -234 -603 -412q-488 -262 -1023 -248
q-504 11 -909 272q-114 73 -202 176q-59 73 -93.5 157.5t-34.5 183.5q5 119 54.5 220.5t137.5 184.5q121 117 266 198q141 82 290.5 143.5t301.5 109.5q246 79 497 133t504 92q600 83 1203 110q308 19 614 19q84 -2 130 71q81 114 163 229q127 176 250 358
q572 854 1096 1736q44 75 86 152q20 39 42 79q26 51 83 57q31 0 45.5 -17.5t3.5 -46.5q-11 -24 -25 -46q-85 -152 -151 -308q-25 -55 -49 -108q-231 -501 -464 -1003q-178 -387 -359 -776q-52 -115 -103 -229q-11 -24 -22 -46q-2 -5 -4 -11q-7 -16 -11.5 -31.5t2.5 -30.5
q15 -11 35 -12t37 -1q14 2 25 2q83 -2 167 0q114 0 229 -2q624 -11 1249 -27q205 -4 407 -17q18 -2 38 -2h24q26 0 50.5 -4.5t46.5 -17.5q4 -3 6 -9.5t0 -10.5q0 -7 -5.5 -12.5t-9.5 -7.5q-18 -7 -38 -7zM2424 903v0q7 14 1.5 25t-18.5 11q-20 2 -42 0h-22
q-755 -9 -1511 -104q-289 -35 -575 -92t-567 -143q-150 -46 -296 -105.5t-285 -141.5q-145 -81 -264 -198q-139 -143 -156.5 -304.5t86.5 -311.5q77 -105 184 -180q390 -277 929 -282q138 0 317 36q178 37 344 108.5t322 168.5q385 237 713 552q227 213 428 448.5t390 479.5
q11 18 22 33zM3036 1110v0q145 330 299 658q7 18 46.5 103.5t91 199t94.5 214.5t60.5 151.5t-10.5 9.5q-7 -9 -11 -18q-24 -35 -46 -70q-183 -284 -368 -567t-383 -558q-19 -26 -39 -55q-38 -52 -75 -105q-15 -22 -8.5 -36.5t30.5 -14.5q40 0 79 2q62 5 123 5q47 -2 73 20
t44 61zM4299 4016v0q6 -13 15 -24q24 -37 46 -76.5t36 -86.5q2 -15 2 -29.5t-16 -25.5q-11 -17 -35 8t-55 69q-35 51 -72 93q-16 13 -28 30.5t-7.5 33t39.5 24.5q7 2 13 2h7q15 2 30.5 -2.5t24.5 -15.5z" />
    <glyph glyph-name="Aacute" unicode="&#xc1;" 
d="M5405 914v0q-191 22 -385 22q-85 3 -173 5q-801 33 -1606 17h-66q-44 3 -64 -0.5t-32 -22t-28 -60.5q-11 -24 -26 -60q-134 -292 -246 -594q-73 -195 -113 -400q-15 -64 -10.5 -124.5t54.5 -108.5q7 -5 5 -12.5t-9 -14t-15 -8.5q-119 -18 -143 85q-14 58 -5 119v7
q9 105 37.5 208.5t63.5 207.5q113 312 249 616q7 13 11 26q7 15 15 31q11 22 20 44t7 46q-11 9 -22 11t-22 0h-5q-94 0 -189 -2h-55q-35 -2 -59 -22t-46 -49l-58 -74q-123 -157 -248 -311q-185 -224 -386.5 -432t-427.5 -390q-284 -234 -603 -412q-488 -262 -1023 -248
q-504 11 -909 272q-114 73 -202 176q-59 73 -93.5 157.5t-34.5 183.5q5 119 54.5 220.5t137.5 184.5q121 117 266 198q141 82 290.5 143.5t301.5 109.5q246 79 497 133t504 92q600 83 1203 110q308 19 614 19q84 -2 130 71q81 114 163 229q127 176 250 358
q572 854 1096 1736q44 75 86 152q20 39 42 79q26 51 83 57q31 0 45.5 -17.5t3.5 -46.5q-11 -24 -25 -46q-85 -152 -151 -308q-25 -55 -49 -108q-231 -501 -464 -1003q-178 -387 -359 -776q-52 -115 -103 -229q-11 -24 -22 -46q-2 -5 -4 -11q-7 -16 -11.5 -31.5t2.5 -30.5
q15 -11 35 -12t37 -1q14 2 25 2q83 -2 167 0q114 0 229 -2q624 -11 1249 -27q205 -4 407 -17q18 -2 38 -2h24q26 0 50.5 -4.5t46.5 -17.5q4 -3 6 -9.5t0 -10.5q0 -7 -5.5 -12.5t-9.5 -7.5q-18 -7 -38 -7zM2424 903v0q7 14 1.5 25t-18.5 11q-20 2 -42 0h-22
q-755 -9 -1511 -104q-289 -35 -575 -92t-567 -143q-150 -46 -296 -105.5t-285 -141.5q-145 -81 -264 -198q-139 -143 -156.5 -304.5t86.5 -311.5q77 -105 184 -180q390 -277 929 -282q138 0 317 36q178 37 344 108.5t322 168.5q385 237 713 552q227 213 428 448.5t390 479.5
q11 18 22 33zM3036 1110v0q145 330 299 658q7 18 46.5 103.5t91 199t94.5 214.5t60.5 151.5t-10.5 9.5q-7 -9 -11 -18q-24 -35 -46 -70q-183 -284 -368 -567t-383 -558q-19 -26 -39 -55q-38 -52 -75 -105q-15 -22 -8.5 -36.5t30.5 -14.5q40 0 79 2q62 5 123 5q47 -2 73 20
t44 61zM4345 4030q9 13 24.5 17.5t30.5 1.5h4q9 -2 16 -2q35 -9 39.5 -24t-9 -33t-28.5 -33q-37 -40 -73 -90q-28 -44 -52.5 -69.5t-35.5 -7.5q-15 11 -16 25t3 30q11 44 33 84.5t49 78.5q8 11 15 22v0z" />
    <glyph glyph-name="Acircumflex" unicode="&#xc2;" 
d="M5405 914v0q-191 22 -385 22q-85 3 -173 5q-801 33 -1606 17h-66q-44 3 -64 -0.5t-32 -22t-28 -60.5q-11 -24 -26 -60q-134 -292 -246 -594q-73 -195 -113 -400q-15 -64 -10.5 -124.5t54.5 -108.5q7 -5 5 -12.5t-9 -14t-15 -8.5q-119 -18 -143 85q-14 58 -5 119v7
q9 105 37.5 208.5t63.5 207.5q113 312 249 616q7 13 11 26q7 15 15 31q11 22 20 44t7 46q-11 9 -22 11t-22 0h-5q-94 0 -189 -2h-55q-35 -2 -59 -22t-46 -49l-58 -74q-123 -157 -248 -311q-185 -224 -386.5 -432t-427.5 -390q-284 -234 -603 -412q-488 -262 -1023 -248
q-504 11 -909 272q-114 73 -202 176q-59 73 -93.5 157.5t-34.5 183.5q5 119 54.5 220.5t137.5 184.5q121 117 266 198q141 82 290.5 143.5t301.5 109.5q246 79 497 133t504 92q600 83 1203 110q308 19 614 19q84 -2 130 71q81 114 163 229q127 176 250 358
q572 854 1096 1736q44 75 86 152q20 39 42 79q26 51 83 57q31 0 45.5 -17.5t3.5 -46.5q-11 -24 -25 -46q-85 -152 -151 -308q-25 -55 -49 -108q-231 -501 -464 -1003q-178 -387 -359 -776q-52 -115 -103 -229q-11 -24 -22 -46q-2 -5 -4 -11q-7 -16 -11.5 -31.5t2.5 -30.5
q15 -11 35 -12t37 -1q14 2 25 2q83 -2 167 0q114 0 229 -2q624 -11 1249 -27q205 -4 407 -17q18 -2 38 -2h24q26 0 50.5 -4.5t46.5 -17.5q4 -3 6 -9.5t0 -10.5q0 -7 -5.5 -12.5t-9.5 -7.5q-18 -7 -38 -7zM2424 903v0q7 14 1.5 25t-18.5 11q-20 2 -42 0h-22
q-755 -9 -1511 -104q-289 -35 -575 -92t-567 -143q-150 -46 -296 -105.5t-285 -141.5q-145 -81 -264 -198q-139 -143 -156.5 -304.5t86.5 -311.5q77 -105 184 -180q390 -277 929 -282q138 0 317 36q178 37 344 108.5t322 168.5q385 237 713 552q227 213 428 448.5t390 479.5
q11 18 22 33zM3036 1110v0q145 330 299 658q7 18 46.5 103.5t91 199t94.5 214.5t60.5 151.5t-10.5 9.5q-7 -9 -11 -18q-24 -35 -46 -70q-183 -284 -368 -567t-383 -558q-19 -26 -39 -55q-38 -52 -75 -105q-15 -22 -8.5 -36.5t30.5 -14.5q40 0 79 2q62 5 123 5q47 -2 73 20
t44 61zM4411 3977v0q33 -66 64 -134q9 -22 20 -42l4 -18v-4q0 -29 -24 -33q-40 -11 -68 20q-14 13 -20.5 32.5t-10.5 41.5q-7 29 -18 53q-9 18 -24 21t-26 -10q-9 -11 -22.5 -30.5t-26.5 -39.5q-11 -16 -17 -24q-33 -49 -56.5 -50t-29 23t12.5 55l26 40q36 55 75 108
q31 39 74 36t67 -45z" />
    <glyph glyph-name="Atilde" unicode="&#xc3;" 
d="M5405 914v0q-191 22 -385 22q-85 3 -173 5q-801 33 -1606 17h-66q-44 3 -64 -0.5t-32 -22t-28 -60.5q-11 -24 -26 -60q-134 -292 -246 -594q-73 -195 -113 -400q-15 -64 -10.5 -124.5t54.5 -108.5q7 -5 5 -12.5t-9 -14t-15 -8.5q-119 -18 -143 85q-14 58 -5 119v7
q9 105 37.5 208.5t63.5 207.5q113 312 249 616q7 13 11 26q7 15 15 31q11 22 20 44t7 46q-11 9 -22 11t-22 0h-5q-94 0 -189 -2h-55q-35 -2 -59 -22t-46 -49l-58 -74q-123 -157 -248 -311q-185 -224 -386.5 -432t-427.5 -390q-284 -234 -603 -412q-488 -262 -1023 -248
q-504 11 -909 272q-114 73 -202 176q-59 73 -93.5 157.5t-34.5 183.5q5 119 54.5 220.5t137.5 184.5q121 117 266 198q141 82 290.5 143.5t301.5 109.5q246 79 497 133t504 92q600 83 1203 110q308 19 614 19q84 -2 130 71q81 114 163 229q127 176 250 358
q572 854 1096 1736q44 75 86 152q20 39 42 79q26 51 83 57q31 0 45.5 -17.5t3.5 -46.5q-11 -24 -25 -46q-85 -152 -151 -308q-25 -55 -49 -108q-231 -501 -464 -1003q-178 -387 -359 -776q-52 -115 -103 -229q-11 -24 -22 -46q-2 -5 -4 -11q-7 -16 -11.5 -31.5t2.5 -30.5
q15 -11 35 -12t37 -1q14 2 25 2q83 -2 167 0q114 0 229 -2q624 -11 1249 -27q205 -4 407 -17q18 -2 38 -2h24q26 0 50.5 -4.5t46.5 -17.5q4 -3 6 -9.5t0 -10.5q0 -7 -5.5 -12.5t-9.5 -7.5q-18 -7 -38 -7zM2424 903v0q7 14 1.5 25t-18.5 11q-20 2 -42 0h-22
q-755 -9 -1511 -104q-289 -35 -575 -92t-567 -143q-150 -46 -296 -105.5t-285 -141.5q-145 -81 -264 -198q-139 -143 -156.5 -304.5t86.5 -311.5q77 -105 184 -180q390 -277 929 -282q138 0 317 36q178 37 344 108.5t322 168.5q385 237 713 552q227 213 428 448.5t390 479.5
q11 18 22 33zM3036 1110v0q145 330 299 658q7 18 46.5 103.5t91 199t94.5 214.5t60.5 151.5t-10.5 9.5q-7 -9 -11 -18q-24 -35 -46 -70q-183 -284 -368 -567t-383 -558q-19 -26 -39 -55q-38 -52 -75 -105q-15 -22 -8.5 -36.5t30.5 -14.5q40 0 79 2q62 5 123 5q47 -2 73 20
t44 61zM4631 3942v0q33 -7 37 -36q5 -70 -63 -107q-55 -29 -117 -25q-101 -2 -169 64q-40 44 -61 43t-63 -45q-4 -4 -11 -9q-17 -17 -38 -19.5t-43 4.5q-18 4 -23.5 16t1.5 23q35 55 106.5 82.5t142.5 12.5q39 -11 66 -37q8 -9 19 -20q16 -16 33 -31q53 -42 91 11
q6 11 11 22l8 18q25 41 73 33z" />
    <glyph glyph-name="Adieresis" unicode="&#xc4;" 
d="M5405 914v0q-191 22 -385 22q-85 3 -173 5q-801 33 -1606 17h-66q-44 3 -64 -0.5t-32 -22t-28 -60.5q-11 -24 -26 -60q-134 -292 -246 -594q-73 -195 -113 -400q-15 -64 -10.5 -124.5t54.5 -108.5q7 -5 5 -12.5t-9 -14t-15 -8.5q-119 -18 -143 85q-14 58 -5 119v7
q9 105 37.5 208.5t63.5 207.5q113 312 249 616q7 13 11 26q7 15 15 31q11 22 20 44t7 46q-11 9 -22 11t-22 0h-5q-94 0 -189 -2h-55q-35 -2 -59 -22t-46 -49l-58 -74q-123 -157 -248 -311q-185 -224 -386.5 -432t-427.5 -390q-284 -234 -603 -412q-488 -262 -1023 -248
q-504 11 -909 272q-114 73 -202 176q-59 73 -93.5 157.5t-34.5 183.5q5 119 54.5 220.5t137.5 184.5q121 117 266 198q141 82 290.5 143.5t301.5 109.5q246 79 497 133t504 92q600 83 1203 110q308 19 614 19q84 -2 130 71q81 114 163 229q127 176 250 358
q572 854 1096 1736q44 75 86 152q20 39 42 79q26 51 83 57q31 0 45.5 -17.5t3.5 -46.5q-11 -24 -25 -46q-85 -152 -151 -308q-25 -55 -49 -108q-231 -501 -464 -1003q-178 -387 -359 -776q-52 -115 -103 -229q-11 -24 -22 -46q-2 -5 -4 -11q-7 -16 -11.5 -31.5t2.5 -30.5
q15 -11 35 -12t37 -1q14 2 25 2q83 -2 167 0q114 0 229 -2q624 -11 1249 -27q205 -4 407 -17q18 -2 38 -2h24q26 0 50.5 -4.5t46.5 -17.5q4 -3 6 -9.5t0 -10.5q0 -7 -5.5 -12.5t-9.5 -7.5q-18 -7 -38 -7zM2424 903v0q7 14 1.5 25t-18.5 11q-20 2 -42 0h-22
q-755 -9 -1511 -104q-289 -35 -575 -92t-567 -143q-150 -46 -296 -105.5t-285 -141.5q-145 -81 -264 -198q-139 -143 -156.5 -304.5t86.5 -311.5q77 -105 184 -180q390 -277 929 -282q138 0 317 36q178 37 344 108.5t322 168.5q385 237 713 552q227 213 428 448.5t390 479.5
q11 18 22 33zM3036 1110v0q145 330 299 658q7 18 46.5 103.5t91 199t94.5 214.5t60.5 151.5t-10.5 9.5q-7 -9 -11 -18q-24 -35 -46 -70q-183 -284 -368 -567t-383 -558q-19 -26 -39 -55q-38 -52 -75 -105q-15 -22 -8.5 -36.5t30.5 -14.5q40 0 79 2q62 5 123 5q47 -2 73 20
t44 61zM4464 3904v0q9 -4 15 -13q13 -20 10 -49.5t-18.5 -55t-37.5 -29.5q-33 -9 -55 7.5t-18 56.5v8q0 11 3 22q6 40 34.5 55.5t66.5 -2.5zM4211 3902v0q28 0 47 -13t19 -33q-7 -84 -79 -84q-58 7 -53 71q6 59 66 59z" />
    <glyph glyph-name="Aring" unicode="&#xc5;" 
d="M5405 914v0q-191 22 -385 22q-85 3 -173 5q-801 33 -1606 17h-66q-44 3 -64 -0.5t-32 -22t-28 -60.5q-11 -24 -26 -60q-134 -292 -246 -594q-73 -195 -113 -400q-15 -64 -10.5 -124.5t54.5 -108.5q7 -5 5 -12.5t-9 -14t-15 -8.5q-119 -18 -143 85q-14 58 -5 119v7
q9 105 37.5 208.5t63.5 207.5q113 312 249 616q7 13 11 26q7 15 15 31q11 22 20 44t7 46q-11 9 -22 11t-22 0h-5q-94 0 -189 -2h-55q-35 -2 -59 -22t-46 -49l-58 -74q-123 -157 -248 -311q-185 -224 -386.5 -432t-427.5 -390q-284 -234 -603 -412q-488 -262 -1023 -248
q-504 11 -909 272q-114 73 -202 176q-59 73 -93.5 157.5t-34.5 183.5q5 119 54.5 220.5t137.5 184.5q121 117 266 198q141 82 290.5 143.5t301.5 109.5q246 79 497 133t504 92q600 83 1203 110q308 19 614 19q84 -2 130 71q81 114 163 229q127 176 250 358
q572 854 1096 1736q44 75 86 152q20 39 42 79q26 51 83 57q31 0 45.5 -17.5t3.5 -46.5q-11 -24 -25 -46q-85 -152 -151 -308q-25 -55 -49 -108q-231 -501 -464 -1003q-178 -387 -359 -776q-52 -115 -103 -229q-11 -24 -22 -46q-2 -5 -4 -11q-7 -16 -11.5 -31.5t2.5 -30.5
q15 -11 35 -12t37 -1q14 2 25 2q83 -2 167 0q114 0 229 -2q624 -11 1249 -27q205 -4 407 -17q18 -2 38 -2h24q26 0 50.5 -4.5t46.5 -17.5q4 -3 6 -9.5t0 -10.5q0 -7 -5.5 -12.5t-9.5 -7.5q-18 -7 -38 -7zM2424 903v0q7 14 1.5 25t-18.5 11q-20 2 -42 0h-22
q-755 -9 -1511 -104q-289 -35 -575 -92t-567 -143q-150 -46 -296 -105.5t-285 -141.5q-145 -81 -264 -198q-139 -143 -156.5 -304.5t86.5 -311.5q77 -105 184 -180q390 -277 929 -282q138 0 317 36q178 37 344 108.5t322 168.5q385 237 713 552q227 213 428 448.5t390 479.5
q11 18 22 33zM3036 1110v0q145 330 299 658q7 18 46.5 103.5t91 199t94.5 214.5t60.5 151.5t-10.5 9.5q-7 -9 -11 -18q-24 -35 -46 -70q-183 -284 -368 -567t-383 -558q-19 -26 -39 -55q-38 -52 -75 -105q-15 -22 -8.5 -36.5t30.5 -14.5q40 0 79 2q62 5 123 5q47 -2 73 20
t44 61zM4508 4043v0q81 -22 64 -119q-22 -147 -154 -136q-42 2 -80 15q-81 33 -68 132q22 123 132 119q9 -2 18 -2q4 -3 9 -3v0v3q11 -3 24 -3q26 0 55 -6zM4444 3880v0q18 31 18 66q2 29 -22 37q-22 9 -40 -8q-9 -14 -12 -27l-6 -26v-9v-13q3 -13 8.5 -23t16.5 -12
q24 -7 37 15z" />
    <glyph glyph-name="AE" unicode="&#xc6;" 
d="M5405 914v0q-191 22 -385 22q-85 3 -173 5q-801 33 -1606 17h-66q-44 3 -64 -0.5t-32 -22t-28 -60.5q-11 -24 -26 -60q-134 -292 -246 -594q-73 -195 -113 -400q-15 -64 -10.5 -124.5t54.5 -108.5q7 -5 5 -12.5t-9 -14t-15 -8.5q-119 -18 -143 85q-14 58 -5 119v7
q9 105 37.5 208.5t63.5 207.5q113 312 249 616q7 13 11 26q7 15 15 31q11 22 20 44t7 46q-11 9 -22 11t-22 0h-5q-94 0 -189 -2h-55q-35 -2 -59 -22t-46 -49l-58 -74q-123 -157 -248 -311q-185 -224 -386.5 -432t-427.5 -390q-284 -234 -603 -412q-488 -262 -1023 -248
q-504 11 -909 272q-114 73 -202 176q-59 73 -93.5 157.5t-34.5 183.5q5 119 54.5 220.5t137.5 184.5q121 117 266 198q141 82 290.5 143.5t301.5 109.5q246 79 497 133t504 92q600 83 1203 110q308 19 614 19q84 -2 130 71q81 114 163 229q127 176 250 358
q572 854 1096 1736q44 75 86 152q20 39 42 79q26 51 83 57q31 0 45.5 -17.5t3.5 -46.5q-11 -24 -25 -46q-85 -152 -151 -308q-25 -55 -49 -108q-231 -501 -464 -1003q-178 -387 -359 -776q-52 -115 -103 -229q-11 -24 -22 -46q-2 -5 -4 -11q-7 -16 -11.5 -31.5t2.5 -30.5
q15 -11 35 -12t37 -1q14 2 25 2q83 -2 167 0q114 0 229 -2q624 -11 1249 -27q205 -4 407 -17q18 -2 38 -2h24q26 0 50.5 -4.5t46.5 -17.5q4 -3 6 -9.5t0 -10.5q0 -7 -5.5 -12.5t-9.5 -7.5q-18 -7 -38 -7zM2424 903v0q7 14 1.5 25t-18.5 11q-20 2 -42 0h-22
q-755 -9 -1511 -104q-289 -35 -575 -92t-567 -143q-150 -46 -296 -105.5t-285 -141.5q-145 -81 -264 -198q-139 -143 -156.5 -304.5t86.5 -311.5q77 -105 184 -180q390 -277 929 -282q138 0 317 36q178 37 344 108.5t322 168.5q385 237 713 552q227 213 428 448.5t390 479.5
q11 18 22 33zM3036 1110v0q145 330 299 658q7 18 46.5 103.5t91 199t94.5 214.5t60.5 151.5t-10.5 9.5q-7 -9 -11 -18q-24 -35 -46 -70q-183 -284 -368 -567t-383 -558q-19 -26 -39 -55q-38 -52 -75 -105q-15 -22 -8.5 -36.5t30.5 -14.5q40 0 79 2q62 5 123 5q47 -2 73 20
t44 61z" />
    <glyph glyph-name="Ccedilla" unicode="&#xc7;" horiz-adv-x="2849" 
d="M665 -166h-14q-173 7 -347 73q-346 134 -242 442q42 123 119 227q107 154 237 286t271 255q629 554 1384 952q231 121 470.5 225.5t494.5 184.5q214 68 440 103q91 13 181 13q59 0 119 -4q70 -7 140 -29q190 -68 194 -251q0 -81 -22 -156q-46 -145 -113 -279t-144 -262
q-22 -44 -71 -57q-15 -2 -28 0h-5q-11 -2 -24 0t-24 11q-13 13 -11 24t9 20q105 169 182 354q49 114 86 235q24 75 4 161q-19 92 -110 130q-70 26 -143 28h-26q-154 -6 -299 -44q-251 -61 -485.5 -151.5t-458.5 -197.5q-983 -478 -1760 -1208q-196 -176 -343 -394
q-51 -77 -90 -163q-22 -48 -31 -103q-33 -178 154 -266q158 -73 321 -82q128 -11 249 -11q57 0 110 5q770 8 1454 200q11 4 22 6q46 16 97 25q13 2 43.5 4t58 -3.5t34.5 -25.5q2 -11 -3.5 -16.5t-16.5 -7.5l-83 -22q-124 -33 -247 -64q-693 -178 -1439 -173q-105 0 -211 2
q18 -13 18 -51v-6q0 -55 -86 -55h-35q-13 0 -13 13v17q0 18 85 25v19q-55 5 -55 31q3 5 3 11z" />
    <glyph glyph-name="Egrave" unicode="&#xc8;" horiz-adv-x="3980" 
d="M1184 1434v0q-55 -88 -66 -192q-13 -158 110 -257q86 -66 189 -101q200 -71 409 -95q165 -22 332 -33l106 -4q180 0 359 59q200 68 411 84h2q31 2 62 2q20 0 37 -2q29 -3 48.5 -17t19.5 -30q0 -22 -13 -35t-31 -20q-48 -24 -96 -35q-126 -28 -251 -48q-95 -18 -189 -22
q-82 0 -159 -20t-152 -46q-378 -130 -743 -289.5t-711 -364.5q-130 -74 -253 -159t-235 -184q-49 -44 -90 -90q-31 -33 -53 -73q-46 -79 -24 -135t110 -76q74 -15 151 -17q18 0 38 2q169 13 335 46t329 77q456 128 898 290q72 29 134 75q466 315 986 535q217 90 446 152
q97 30 198 30q16 3 29 0q37 0 75 -13q26 -11 13 -39q-20 -33 -57 -49q-335 -165 -675 -321t-687 -293q-46 -17 -93 -37q-101 -40 -204 -77q-66 -24 -123 -66q-183 -130 -355.5 -270.5t-331.5 -301.5q-2 -2 -6 -7q-11 -13 -24.5 -21.5t-30.5 -6.5h-9q-9 -2 -18 0
q-9 0 -18.5 3t-14.5 8q-4 6 -4 17t2 18q18 29 40 51q215 209 455 391q9 7 22 9q4 2 9 2q-18 11 -33 13q-22 -2 -44 -11q-2 0 -7 -2q-39 -11 -77 -24q-163 -53 -325 -99q-88 -24 -243.5 -60.5t-337 -65t-344 -28.5t-266.5 48q-145 80 -88 236q29 70 84 127q92 106 207 190
q169 129 353 239t375 207q466 240 959 416q42 13 82 31l2 2q2 0 4 7q2 4 5 8q-47 14 -93 14q-20 0 -42 2q-39 4 -81 9q-29 4 -57 6q-255 27 -500 101q-123 36 -228 108q-231 167 -139 438q48 134 143 240q119 136 260 246q495 392 1050.5 659t1175.5 399q299 62 605 62h42
q169 -2 328.5 -43t311.5 -111q77 -33 136 -92q36 -31 44 -77q3 -16 -8 -28t-27 -12h-17h-9q-35 -2 -57 22q-62 75 -143.5 115.5t-169.5 71.5q-6 2 -13 4q-222 80 -449 77q-121 0 -242 -17q-460 -62 -886.5 -217t-827.5 -379q-226 -126 -438.5 -272t-405.5 -322
q-121 -106 -207 -242zM3624 334v0v0l6 -3v0zM2711 -76v0q-51 -26 5 -6t171.5 67t248.5 103t236.5 100t132.5 60q42 20 81 42q5 2 9 4q9 4 11 12t2 14q-15 -6 -31 -11q-8 0 -15 -2q-295 -97 -572 -235q-106 -53 -209 -110q-35 -20 -70 -38zM1822 -560v0h2v0h-2v0v0z
M1822 -555v0v0q4 -2 5 -2t1 1t-1 2t-2 0t-3 -1zM3839 3392v0q7 -14 16 -25q24 -37 46 -76.5t35 -85.5q2 -16 2 -30t-15 -25q-11 -18 -35.5 7.5t-54.5 69.5q-36 50 -73 92q-15 13 -27.5 30.5t-8 33t39.5 24.5q7 2 14 2h6q16 2 31 -2t24 -15z" />
    <glyph glyph-name="Eacute" unicode="&#xc9;" horiz-adv-x="3980" 
d="M1184 1434v0q-55 -88 -66 -192q-13 -158 110 -257q86 -66 189 -101q200 -71 409 -95q165 -22 332 -33l106 -4q180 0 359 59q200 68 411 84h2q31 2 62 2q20 0 37 -2q29 -3 48.5 -17t19.5 -30q0 -22 -13 -35t-31 -20q-48 -24 -96 -35q-126 -28 -251 -48q-95 -18 -189 -22
q-82 0 -159 -20t-152 -46q-378 -130 -743 -289.5t-711 -364.5q-130 -74 -253 -159t-235 -184q-49 -44 -90 -90q-31 -33 -53 -73q-46 -79 -24 -135t110 -76q74 -15 151 -17q18 0 38 2q169 13 335 46t329 77q456 128 898 290q72 29 134 75q466 315 986 535q217 90 446 152
q97 30 198 30q16 3 29 0q37 0 75 -13q26 -11 13 -39q-20 -33 -57 -49q-335 -165 -675 -321t-687 -293q-46 -17 -93 -37q-101 -40 -204 -77q-66 -24 -123 -66q-183 -130 -355.5 -270.5t-331.5 -301.5q-2 -2 -6 -7q-11 -13 -24.5 -21.5t-30.5 -6.5h-9q-9 -2 -18 0
q-9 0 -18.5 3t-14.5 8q-4 6 -4 17t2 18q18 29 40 51q215 209 455 391q9 7 22 9q4 2 9 2q-18 11 -33 13q-22 -2 -44 -11q-2 0 -7 -2q-39 -11 -77 -24q-163 -53 -325 -99q-88 -24 -243.5 -60.5t-337 -65t-344 -28.5t-266.5 48q-145 80 -88 236q29 70 84 127q92 106 207 190
q169 129 353 239t375 207q466 240 959 416q42 13 82 31l2 2q2 0 4 7q2 4 5 8q-47 14 -93 14q-20 0 -42 2q-39 4 -81 9q-29 4 -57 6q-255 27 -500 101q-123 36 -228 108q-231 167 -139 438q48 134 143 240q119 136 260 246q495 392 1050.5 659t1175.5 399q299 62 605 62h42
q169 -2 328.5 -43t311.5 -111q77 -33 136 -92q36 -31 44 -77q3 -16 -8 -28t-27 -12h-17h-9q-35 -2 -57 22q-62 75 -143.5 115.5t-169.5 71.5q-6 2 -13 4q-222 80 -449 77q-121 0 -242 -17q-460 -62 -886.5 -217t-827.5 -379q-226 -126 -438.5 -272t-405.5 -322
q-121 -106 -207 -242zM3624 334v0v0l6 -3v0zM2711 -76v0q-51 -26 5 -6t171.5 67t248.5 103t236.5 100t132.5 60q42 20 81 42q5 2 9 4q9 4 11 12t2 14q-15 -6 -31 -11q-8 0 -15 -2q-295 -97 -572 -235q-106 -53 -209 -110q-35 -20 -70 -38zM1822 -560v0h2v0h-2v0v0z
M1822 -555v0v0q4 -2 5 -2t1 1t-1 2t-2 0t-3 -1zM3993 3359q9 13 24.5 17.5t30.5 1.5h5q8 -2 15 -2q35 -9 39.5 -24t-8.5 -33t-29 -33q-37 -40 -72 -90q-29 -44 -53 -69.5t-35 -7.5q-16 11 -17 25t3 30q11 44 33 84.5t49 78.5q9 11 15 22v0z" />
    <glyph glyph-name="Ecircumflex" unicode="&#xca;" horiz-adv-x="3980" 
d="M1184 1434v0q-55 -88 -66 -192q-13 -158 110 -257q86 -66 189 -101q200 -71 409 -95q165 -22 332 -33l106 -4q180 0 359 59q200 68 411 84h2q31 2 62 2q20 0 37 -2q29 -3 48.5 -17t19.5 -30q0 -22 -13 -35t-31 -20q-48 -24 -96 -35q-126 -28 -251 -48q-95 -18 -189 -22
q-82 0 -159 -20t-152 -46q-378 -130 -743 -289.5t-711 -364.5q-130 -74 -253 -159t-235 -184q-49 -44 -90 -90q-31 -33 -53 -73q-46 -79 -24 -135t110 -76q74 -15 151 -17q18 0 38 2q169 13 335 46t329 77q456 128 898 290q72 29 134 75q466 315 986 535q217 90 446 152
q97 30 198 30q16 3 29 0q37 0 75 -13q26 -11 13 -39q-20 -33 -57 -49q-335 -165 -675 -321t-687 -293q-46 -17 -93 -37q-101 -40 -204 -77q-66 -24 -123 -66q-183 -130 -355.5 -270.5t-331.5 -301.5q-2 -2 -6 -7q-11 -13 -24.5 -21.5t-30.5 -6.5h-9q-9 -2 -18 0
q-9 0 -18.5 3t-14.5 8q-4 6 -4 17t2 18q18 29 40 51q215 209 455 391q9 7 22 9q4 2 9 2q-18 11 -33 13q-22 -2 -44 -11q-2 0 -7 -2q-39 -11 -77 -24q-163 -53 -325 -99q-88 -24 -243.5 -60.5t-337 -65t-344 -28.5t-266.5 48q-145 80 -88 236q29 70 84 127q92 106 207 190
q169 129 353 239t375 207q466 240 959 416q42 13 82 31l2 2q2 0 4 7q2 4 5 8q-47 14 -93 14q-20 0 -42 2q-39 4 -81 9q-29 4 -57 6q-255 27 -500 101q-123 36 -228 108q-231 167 -139 438q48 134 143 240q119 136 260 246q495 392 1050.5 659t1175.5 399q299 62 605 62h42
q169 -2 328.5 -43t311.5 -111q77 -33 136 -92q36 -31 44 -77q3 -16 -8 -28t-27 -12h-17h-9q-35 -2 -57 22q-62 75 -143.5 115.5t-169.5 71.5q-6 2 -13 4q-222 80 -449 77q-121 0 -242 -17q-460 -62 -886.5 -217t-827.5 -379q-226 -126 -438.5 -272t-405.5 -322
q-121 -106 -207 -242zM3624 334v0v0l6 -3v0zM2711 -76v0q-51 -26 5 -6t171.5 67t248.5 103t236.5 100t132.5 60q42 20 81 42q5 2 9 4q9 4 11 12t2 14q-15 -6 -31 -11q-8 0 -15 -2q-295 -97 -572 -235q-106 -53 -209 -110q-35 -20 -70 -38zM1822 -560v0h2v0h-2v0v0z
M1822 -555v0v0q4 -2 5 -2t1 1t-1 2t-2 0t-3 -1zM4031 3282v0q33 -66 63 -135q9 -22 20 -41q2 -9 5 -18v-4q0 -29 -25 -33q-39 -11 -68 19q-13 14 -19.5 33.5t-11.5 41.5q-6 29 -17 53q-9 18 -24.5 21t-26.5 -10q-9 -11 -22 -31t-26 -39q-11 -16 -18 -25q-33 -48 -56 -49
t-28.5 23t12.5 55l26 40q35 55 75 107q31 40 73.5 36.5t67.5 -44.5z" />
    <glyph glyph-name="Edieresis" unicode="&#xcb;" horiz-adv-x="3980" 
d="M1184 1434v0q-55 -88 -66 -192q-13 -158 110 -257q86 -66 189 -101q200 -71 409 -95q165 -22 332 -33l106 -4q180 0 359 59q200 68 411 84h2q31 2 62 2q20 0 37 -2q29 -3 48.5 -17t19.5 -30q0 -22 -13 -35t-31 -20q-48 -24 -96 -35q-126 -28 -251 -48q-95 -18 -189 -22
q-82 0 -159 -20t-152 -46q-378 -130 -743 -289.5t-711 -364.5q-130 -74 -253 -159t-235 -184q-49 -44 -90 -90q-31 -33 -53 -73q-46 -79 -24 -135t110 -76q74 -15 151 -17q18 0 38 2q169 13 335 46t329 77q456 128 898 290q72 29 134 75q466 315 986 535q217 90 446 152
q97 30 198 30q16 3 29 0q37 0 75 -13q26 -11 13 -39q-20 -33 -57 -49q-335 -165 -675 -321t-687 -293q-46 -17 -93 -37q-101 -40 -204 -77q-66 -24 -123 -66q-183 -130 -355.5 -270.5t-331.5 -301.5q-2 -2 -6 -7q-11 -13 -24.5 -21.5t-30.5 -6.5h-9q-9 -2 -18 0
q-9 0 -18.5 3t-14.5 8q-4 6 -4 17t2 18q18 29 40 51q215 209 455 391q9 7 22 9q4 2 9 2q-18 11 -33 13q-22 -2 -44 -11q-2 0 -7 -2q-39 -11 -77 -24q-163 -53 -325 -99q-88 -24 -243.5 -60.5t-337 -65t-344 -28.5t-266.5 48q-145 80 -88 236q29 70 84 127q92 106 207 190
q169 129 353 239t375 207q466 240 959 416q42 13 82 31l2 2q2 0 4 7q2 4 5 8q-47 14 -93 14q-20 0 -42 2q-39 4 -81 9q-29 4 -57 6q-255 27 -500 101q-123 36 -228 108q-231 167 -139 438q48 134 143 240q119 136 260 246q495 392 1050.5 659t1175.5 399q299 62 605 62h42
q169 -2 328.5 -43t311.5 -111q77 -33 136 -92q36 -31 44 -77q3 -16 -8 -28t-27 -12h-17h-9q-35 -2 -57 22q-62 75 -143.5 115.5t-169.5 71.5q-6 2 -13 4q-222 80 -449 77q-121 0 -242 -17q-460 -62 -886.5 -217t-827.5 -379q-226 -126 -438.5 -272t-405.5 -322
q-121 -106 -207 -242zM3624 334v0v0l6 -3v0zM2711 -76v0q-51 -26 5 -6t171.5 67t248.5 103t236.5 100t132.5 60q42 20 81 42q5 2 9 4q9 4 11 12t2 14q-15 -6 -31 -11q-8 0 -15 -2q-295 -97 -572 -235q-106 -53 -209 -110q-35 -20 -70 -38zM1822 -560v0h2v0h-2v0v0z
M1822 -555v0v0q4 -2 5 -2t1 1t-1 2t-2 0t-3 -1zM4233 3216v0q9 -5 15 -14q14 -19 10.5 -49t-19 -55t-37.5 -30q-33 -9 -55 7.5t-17 56.5v9q0 11 2 22q6 39 35 54.5t66 -1.5zM3980 3213v0q29 0 47.5 -13t18.5 -33q-7 -83 -79 -83q-57 6 -53 70q7 59 66 59z" />
    <glyph glyph-name="Igrave" unicode="&#xcc;" horiz-adv-x="2070" 
d="M2805 2976v0q-72 -192 -154 -379q-856 -1938 -1469 -3326q-143 -26 -58 169q159 423 558 1346t813 1840q84 187 154 378q2 9 7 18q15 35 25 76t3 89q-64 -11 -116 -37q-14 -5 -25 -9q-488 -203 -1019.5 -528.5t-924.5 -679.5q-84 -77 -163 -160.5t-148 -178.5
q-77 -101 -114 -224q-68 -229 136 -348q143 -81 285 -108.5t267.5 -25.5t217.5 13q38 2 66 5q18 2 36.5 -1.5t32.5 -20.5q22 -31 -57.5 -47.5t-217 -16.5t-291.5 17q-273 38 -424 117q-93 46 -154 128q-71 99 -55 217q15 124 77 229q103 172 244 310q246 253 571.5 489.5
t674.5 438t666 351.5q145 66 294 123q71 28 148 39q22 3 39 0q143 7 119 -145q-15 -81 -44 -158zM2785 3596v0q7 -13 16 -24q24 -37 46 -77t35 -86q2 -15 2 -29.5t-15 -25.5q-11 -17 -35 8t-55 69q-35 51 -73 93q-15 13 -27 30.5t-8 33t40 24.5q6 2 13 2h6q16 2 31.5 -2.5
t23.5 -15.5z" />
    <glyph glyph-name="Iacute" unicode="&#xcd;" horiz-adv-x="2070" 
d="M2805 2976v0q-72 -192 -154 -379q-856 -1938 -1469 -3326q-143 -26 -58 169q159 423 558 1346t813 1840q84 187 154 378q2 9 7 18q15 35 25 76t3 89q-64 -11 -116 -37q-14 -5 -25 -9q-488 -203 -1019.5 -528.5t-924.5 -679.5q-84 -77 -163 -160.5t-148 -178.5
q-77 -101 -114 -224q-68 -229 136 -348q143 -81 285 -108.5t267.5 -25.5t217.5 13q38 2 66 5q18 2 36.5 -1.5t32.5 -20.5q22 -31 -57.5 -47.5t-217 -16.5t-291.5 17q-273 38 -424 117q-93 46 -154 128q-71 99 -55 217q15 124 77 229q103 172 244 310q246 253 571.5 489.5
t674.5 438t666 351.5q145 66 294 123q71 28 148 39q22 3 39 0q143 7 119 -145q-15 -81 -44 -158zM2818 3625q9 13 24.5 17.5t30.5 2.5h5q9 -3 15 -3q35 -8 39.5 -23.5t-8.5 -33t-29 -33.5q-37 -39 -72 -90q-29 -44 -53 -69.5t-35 -7.5q-16 11 -17 25.5t4 29.5q11 44 33 84.5
t48 78.5q9 11 15 22v0z" />
    <glyph glyph-name="Icircumflex" unicode="&#xce;" horiz-adv-x="2070" 
d="M2805 2976v0q-72 -192 -154 -379q-856 -1938 -1469 -3326q-143 -26 -58 169q159 423 558 1346t813 1840q84 187 154 378q2 9 7 18q15 35 25 76t3 89q-64 -11 -116 -37q-14 -5 -25 -9q-488 -203 -1019.5 -528.5t-924.5 -679.5q-84 -77 -163 -160.5t-148 -178.5
q-77 -101 -114 -224q-68 -229 136 -348q143 -81 285 -108.5t267.5 -25.5t217.5 13q38 2 66 5q18 2 36.5 -1.5t32.5 -20.5q22 -31 -57.5 -47.5t-217 -16.5t-291.5 17q-273 38 -424 117q-93 46 -154 128q-71 99 -55 217q15 124 77 229q103 172 244 310q246 253 571.5 489.5
t674.5 438t666 351.5q145 66 294 123q71 28 148 39q22 3 39 0q143 7 119 -145q-15 -81 -44 -158zM2895 3576v0q33 -66 64 -134q9 -22 20 -42q2 -8 4 -17v-5q0 -28 -24 -33q-39 -11 -68 20q-13 13 -19.5 33t-11.5 42q-6 29 -17 53q-9 17 -24.5 20.5t-26.5 -9.5
q-9 -11 -22 -31l-26 -40q-11 -15 -18 -24q-33 -48 -56 -49t-28.5 23t11.5 55q14 20 27 39q35 55 75 108q30 40 73 36.5t67 -45.5z" />
    <glyph glyph-name="Idieresis" unicode="&#xcf;" horiz-adv-x="2071" 
d="M2805 2976v0q-72 -192 -154 -379q-856 -1938 -1469 -3326q-143 -26 -58 169q159 423 558 1346t813 1840q84 187 154 378q2 9 7 18q15 35 25 76t3 89q-64 -11 -116 -37q-14 -5 -25 -9q-488 -203 -1019.5 -528.5t-924.5 -679.5q-84 -77 -163 -160.5t-148 -178.5
q-77 -101 -114 -224q-68 -229 136 -348q143 -81 285 -108.5t267.5 -25.5t217.5 13q38 2 66 5q18 2 36.5 -1.5t32.5 -20.5q22 -31 -57.5 -47.5t-217 -16.5t-291.5 17q-273 38 -424 117q-93 46 -154 128q-71 99 -55 217q15 124 77 229q103 172 244 310q246 253 571.5 489.5
t674.5 438t666 351.5q145 66 294 123q71 28 148 39q22 3 39 0q143 7 119 -145q-15 -81 -44 -158zM2926 3477v0q9 -4 16 -13q13 -20 9.5 -49.5t-19 -55t-37.5 -29.5q-33 -9 -55 7.5t-17 56.5v9q0 11 2 22q7 39 35.5 54.5t65.5 -2.5zM2673 3475v0q29 0 47.5 -13t18.5 -33
q-6 -84 -79 -84q-57 7 -53 71q7 59 66 59z" />
    <glyph glyph-name="Eth" unicode="&#xd0;" horiz-adv-x="4411" 
d="M1912 -256v0h2q16 7 30 18t19 30h-7q-44 -2 -56 11.5t-1 50.5q6 24 17 48q3 7 5 11q17 44 33 86q39 95 75 192q2 4 6 11q7 15 9 29.5t-7 29.5h-4q-11 -2 -20 -7q-6 -2 -11 -4q-279 -101 -552 -213.5t-539 -244.5q-216 -103 -418 -231q-117 -70 -213 -167
q-53 -48 -80 -116q-8 -22 1.5 -42t34.5 -27q28 -8 59 -8q33 0 66 6q213 38 422 106q454 145 894 330q118 48 235 101zM3947 815v0q2 5 7 7q8 4 12.5 11t-1.5 20q-11 -2 -25 -7q-74 -20 -147 -37q-200 -53 -398 -108q-550 -154 -1091 -341q-47 -15 -78.5 -41.5t-45.5 -75.5
q-8 -24 -19 -48q-7 -11 -11 -22q-14 -33 -44 -92q-31 -60 -62 -126t-43 -113t10 -54q31 7 57 24q13 7 27 13q596 262 1166 581q226 130 448 264q97 60 194 117q2 2 4 2q22 11 40 26zM2517 1060q-59 -146 -121 -293l-26 -62q-40 -99 -82 -200q-2 -4 -2 -6q-7 -11 -8 -21
t10 -19q2 -2 7 -4q4 2 11 4h4q104 33 205 66q180 59 358 117q634 195 1279 341q77 17 140 61q183 130 360 266.5t340 288.5q178 160 323 354q86 112 130 248q60 209 -77 368q-50 59 -113 101t-133 73q-240 103 -500 132q-226 28 -453 28q-207 0 -413 -17
q-531 -42 -1050 -161q-354 -77 -694 -191.5t-661 -288.5q-119 -61 -230 -133.5t-212 -158.5q-77 -71 -143 -150q-49 -53 -71 -123q-35 -108 47 -185q50 -48 116 -72q112 -47 233 -55q64 -5 130 -7l176 -9q71 -4 139 -13q9 -2 15.5 -8.5t10.5 -15.5q2 -18 -9 -23.5t-22 -3.5
h-26q-64 3 -125 3h-106q-90 0 -178 4t-176 22q-99 22 -192 66q-50 24 -94 59q-132 110 -66 275q46 108 132 190q112 116 246 209q365 250 777 404q332 128 674 215t692 144q539 95 1085 97h35q207 0 412.5 -21t405.5 -78q165 -46 313 -132q77 -46 138 -110q203 -211 97 -493
q-48 -125 -132 -233q-154 -203 -343 -372q-231 -209 -482 -394q-7 -6 -18 -11q-13 -9 -26 -20t-18 -30q9 -7 16 -7l22 4q11 5 22 7q649 132 1302 218q315 39 627 72q108 11 214 22q37 5 77 5q37 2 74 -7q5 -2 9.5 -7.5t4.5 -9.5q2 -14 -4.5 -20.5t-15.5 -8.5
q-75 -7 -152 -13l-141 -13q-510 -53 -1016 -137q-581 -92 -1160 -220q-101 -22 -187 -81q-690 -460 -1424 -827.5t-1506 -657.5q-337 -132 -686 -222q-161 -42 -328 -53q-22 -2 -44 -2q-75 -3 -143 24q-106 46 -64 154q33 77 97 136q125 123 277 211q374 220 774 388
q396 171 803 314q11 2 20 7q13 6 29 11q59 17 79 79q35 92 73 183q6 15 13 33q77 193 158 387q-15 0 -31 -2q-48 -7 -99.5 -8t-78 10t-0.5 46l18 18q20 15 45 26t63 11q33 0 66 2h59q145 357 290 715q106 249 170 513q4 24 15 48q20 29 53 20q13 4 29 0q13 -2 21.5 -11
t8.5 -22q3 -40 -4 -77q-48 -233 -143 -453q-150 -365 -301 -731h17q108 -2 214 -15q37 -4 65.5 -13t30.5 -27q22 -19 -58 -26t-206 -11q-52 -2 -103 -4z" />
    <glyph glyph-name="Ntilde" unicode="&#xd1;" horiz-adv-x="1444" 
d="M5582 2617v0q-26 -6 -47 1.5t-39 18.5q-9 4 -15 9q-255 138 -541 207q-744 178 -1516 -148q-282 -119 -540.5 -286t-504.5 -365q-396 -321 -729.5 -703t-614.5 -815q-102 -154 -196 -312q-2 -5 -5 -9q-72 -112 -118 -238q-22 -59 -55 -112q-40 -70 -110 -53q-40 9 -33 51
q4 31 19 59q75 148 132.5 299.5t107.5 305.5q13 40 27 77q301 882 558 1776q5 19 7 39q0 9 2 20q-24 -2 -37 -15.5t-22 -30.5q-2 -7 -7 -13q-15 -22 -28 -47q-146 -228 -291 -459q-226 -370 -453 -740q-328 -534 -660 -1071q-73 -119 -154 -231q-20 -29 -37 -55
q-31 -51 -86 -62q-16 -2 -29 1.5t-17 16.5q-5 9 -0.5 21t11.5 21q792 1296 1588 2589q73 115 154 225q18 24 33 48q46 68 121 88q46 9 72.5 -13t24.5 -71q-13 -143 -57 -283q-218 -753 -467 -1496q-2 -9 -6 -16q-9 -22 -12.5 -44t9.5 -48q18 24 36 46q37 46 70 92
q392 555 893 1006q288 259 597.5 478t650.5 375q704 315 1414 234q449 -55 836 -260q9 -4 20 -9q20 -9 37.5 -20t28.5 -33q2 -4 2 -11.5t-2 -14.5q-4 -7 -9.5 -12.5t-12.5 -7.5zM2473 2747v0q33 -7 38 -35q4 -71 -64 -108q-55 -29 -117 -24q-101 -2 -169 64
q-40 44 -60.5 42.5t-62.5 -45.5q-5 -4 -11 -8q-18 -18 -39 -20t-43 4q-17 5 -22.5 17t0.5 23q36 55 107.5 82.5t141.5 11.5q40 -11 66 -37l20 -20q15 -15 33 -31q53 -41 90 11q7 11 11 22q4 9 9 18q24 42 72 33z" />
    <glyph glyph-name="Ograve" unicode="&#xd2;" horiz-adv-x="3162" 
d="M2191 3477v0q407 51 668 -52.5t390.5 -326.5t148.5 -530t-58 -662.5t-231 -721.5t-366.5 -709.5t-467.5 -626t-535 -469.5q-132 -88 -273.5 -160.5t-295.5 -116.5q-185 -58 -374 -58q-102 -2 -203 20q-268 60 -420 291q-134 213 -154 466q-20 235 13 464t106 453
q171 531 453 1010q64 104 55 229q-15 301 118 558.5t365 455.5t510.5 323.5t550.5 162.5zM1523 -637v0q301 183 567 461.5t483 616t371 699.5t233 711.5t71.5 652t-115.5 524t-328 323.5t-565 49q-299 -46 -583 -188t-499.5 -367.5t-310.5 -522.5q-2 -4 -2 -8
q-15 -47 -26 -97.5t-9 -105.5q28 20 42 44q4 7 8 16l88 118q69 95 141 190q238 310 539 561q64 50 132 99q40 28 88 26q20 2 42 -4q13 -5 20 -16q6 -9 3 -17.5t-12 -13.5q-112 -68 -209 -156t-187 -182q-172 -174 -319 -366.5t-279 -395.5q-27 -39 -51 -79q-9 -15 -20 -28
q-24 -40 -11 -86q55 -220 235.5 -361t407.5 -150q59 0 118 14q383 88 531 453q22 55 35 114q6 29 15 55q18 53 60 44q13 5 28 0q22 -9 27.5 -25.5t1.5 -35.5q0 -5 -2 -7v-7q-58 -277 -246 -454t-467 -210q-66 -7 -128 -7q-224 -2 -402.5 96t-303.5 303q-4 4 -7 8
q-6 18 -22 29q-2 -4 -6 -9q-11 -17 -22 -37q-24 -44 -46 -88q-66 -119 -124 -240q-110 -235 -195.5 -478.5t-129.5 -500.5q-22 -139 -28.5 -278.5t15.5 -280.5q19 -112 56.5 -215.5t103.5 -195.5q159 -214 420 -238q31 -2 62 -2q66 0 134 13q154 31 297 91.5t280 141.5z
M2559 3867v0q6 -13 15 -24q24 -38 46 -77.5t36 -85.5q2 -16 2 -30t-16 -25q-11 -18 -35 7.5t-55 69.5q-35 50 -72 92q-16 13 -28 31t-7.5 33t39.5 24q7 2 13 2h7q15 3 30.5 -1.5t24.5 -15.5z" />
    <glyph glyph-name="Oacute" unicode="&#xd3;" horiz-adv-x="3162" 
d="M2191 3477v0q407 51 668 -52.5t390.5 -326.5t148.5 -530t-58 -662.5t-231 -721.5t-366.5 -709.5t-467.5 -626t-535 -469.5q-132 -88 -273.5 -160.5t-295.5 -116.5q-185 -58 -374 -58q-102 -2 -203 20q-268 60 -420 291q-134 213 -154 466q-20 235 13 464t106 453
q171 531 453 1010q64 104 55 229q-15 301 118 558.5t365 455.5t510.5 323.5t550.5 162.5zM1523 -637v0q301 183 567 461.5t483 616t371 699.5t233 711.5t71.5 652t-115.5 524t-328 323.5t-565 49q-299 -46 -583 -188t-499.5 -367.5t-310.5 -522.5q-2 -4 -2 -8
q-15 -47 -26 -97.5t-9 -105.5q28 20 42 44q4 7 8 16l88 118q69 95 141 190q238 310 539 561q64 50 132 99q40 28 88 26q20 2 42 -4q13 -5 20 -16q6 -9 3 -17.5t-12 -13.5q-112 -68 -209 -156t-187 -182q-172 -174 -319 -366.5t-279 -395.5q-27 -39 -51 -79q-9 -15 -20 -28
q-24 -40 -11 -86q55 -220 235.5 -361t407.5 -150q59 0 118 14q383 88 531 453q22 55 35 114q6 29 15 55q18 53 60 44q13 5 28 0q22 -9 27.5 -25.5t1.5 -35.5q0 -5 -2 -7v-7q-58 -277 -246 -454t-467 -210q-66 -7 -128 -7q-224 -2 -402.5 96t-303.5 303q-4 4 -7 8
q-6 18 -22 29q-2 -4 -6 -9q-11 -17 -22 -37q-24 -44 -46 -88q-66 -119 -124 -240q-110 -235 -195.5 -478.5t-129.5 -500.5q-22 -139 -28.5 -278.5t15.5 -280.5q19 -112 56.5 -215.5t103.5 -195.5q159 -214 420 -238q31 -2 62 -2q66 0 134 13q154 31 297 91.5t280 141.5z
M2697 3851q9 14 24.5 18t30.5 2h5q9 -2 15 -2q35 -9 39.5 -24.5t-8.5 -33t-29 -32.5q-37 -40 -72 -90q-29 -44 -53 -69.5t-35 -7.5q-16 11 -17 25t4 30q11 44 33 84.5t48 77.5q9 11 15 22v0z" />
    <glyph glyph-name="Ocircumflex" unicode="&#xd4;" horiz-adv-x="3162" 
d="M2191 3477v0q407 51 668 -52.5t390.5 -326.5t148.5 -530t-58 -662.5t-231 -721.5t-366.5 -709.5t-467.5 -626t-535 -469.5q-132 -88 -273.5 -160.5t-295.5 -116.5q-185 -58 -374 -58q-102 -2 -203 20q-268 60 -420 291q-134 213 -154 466q-20 235 13 464t106 453
q171 531 453 1010q64 104 55 229q-15 301 118 558.5t365 455.5t510.5 323.5t550.5 162.5zM1523 -637v0q301 183 567 461.5t483 616t371 699.5t233 711.5t71.5 652t-115.5 524t-328 323.5t-565 49q-299 -46 -583 -188t-499.5 -367.5t-310.5 -522.5q-2 -4 -2 -8
q-15 -47 -26 -97.5t-9 -105.5q28 20 42 44q4 7 8 16l88 118q69 95 141 190q238 310 539 561q64 50 132 99q40 28 88 26q20 2 42 -4q13 -5 20 -16q6 -9 3 -17.5t-12 -13.5q-112 -68 -209 -156t-187 -182q-172 -174 -319 -366.5t-279 -395.5q-27 -39 -51 -79q-9 -15 -20 -28
q-24 -40 -11 -86q55 -220 235.5 -361t407.5 -150q59 0 118 14q383 88 531 453q22 55 35 114q6 29 15 55q18 53 60 44q13 5 28 0q22 -9 27.5 -25.5t1.5 -35.5q0 -5 -2 -7v-7q-58 -277 -246 -454t-467 -210q-66 -7 -128 -7q-224 -2 -402.5 96t-303.5 303q-4 4 -7 8
q-6 18 -22 29q-2 -4 -6 -9q-11 -17 -22 -37q-24 -44 -46 -88q-66 -119 -124 -240q-110 -235 -195.5 -478.5t-129.5 -500.5q-22 -139 -28.5 -278.5t15.5 -280.5q19 -112 56.5 -215.5t103.5 -195.5q159 -214 420 -238q31 -2 62 -2q66 0 134 13q154 31 297 91.5t280 141.5z
M2792 3816v0q33 -66 64 -134q9 -22 20 -42q2 -9 4 -17v-5q0 -28 -24 -33q-40 -11 -68 20q-14 13 -20.5 33t-10.5 42q-7 28 -18 53q-9 17 -24 20.5t-26 -9.5q-9 -11 -22.5 -31t-26.5 -40q-11 -15 -17 -24q-33 -48 -56.5 -49.5t-29 23t12.5 55.5q13 19 26 39q36 55 75 108
q31 40 74 36.5t67 -45.5z" />
    <glyph glyph-name="Otilde" unicode="&#xd5;" horiz-adv-x="3162" 
d="M2191 3477v0q407 51 668 -52.5t390.5 -326.5t148.5 -530t-58 -662.5t-231 -721.5t-366.5 -709.5t-467.5 -626t-535 -469.5q-132 -88 -273.5 -160.5t-295.5 -116.5q-185 -58 -374 -58q-102 -2 -203 20q-268 60 -420 291q-134 213 -154 466q-20 235 13 464t106 453
q171 531 453 1010q64 104 55 229q-15 301 118 558.5t365 455.5t510.5 323.5t550.5 162.5zM1523 -637v0q301 183 567 461.5t483 616t371 699.5t233 711.5t71.5 652t-115.5 524t-328 323.5t-565 49q-299 -46 -583 -188t-499.5 -367.5t-310.5 -522.5q-2 -4 -2 -8
q-15 -47 -26 -97.5t-9 -105.5q28 20 42 44q4 7 8 16l88 118q69 95 141 190q238 310 539 561q64 50 132 99q40 28 88 26q20 2 42 -4q13 -5 20 -16q6 -9 3 -17.5t-12 -13.5q-112 -68 -209 -156t-187 -182q-172 -174 -319 -366.5t-279 -395.5q-27 -39 -51 -79q-9 -15 -20 -28
q-24 -40 -11 -86q55 -220 235.5 -361t407.5 -150q59 0 118 14q383 88 531 453q22 55 35 114q6 29 15 55q18 53 60 44q13 5 28 0q22 -9 27.5 -25.5t1.5 -35.5q0 -5 -2 -7v-7q-58 -277 -246 -454t-467 -210q-66 -7 -128 -7q-224 -2 -402.5 96t-303.5 303q-4 4 -7 8
q-6 18 -22 29q-2 -4 -6 -9q-11 -17 -22 -37q-24 -44 -46 -88q-66 -119 -124 -240q-110 -235 -195.5 -478.5t-129.5 -500.5q-22 -139 -28.5 -278.5t15.5 -280.5q19 -112 56.5 -215.5t103.5 -195.5q159 -214 420 -238q31 -2 62 -2q66 0 134 13q154 31 297 91.5t280 141.5z
M2843 3715v0q33 -7 37 -35q4 -71 -64 -108q-55 -29 -116 -24q-102 -2 -170 64q-39 44 -60 42.5t-63 -45.5q-4 -4 -11 -8q-18 -18 -38.5 -20t-42.5 4q-18 5 -23.5 17t1.5 23q35 55 106.5 82.5t141.5 11.5q40 -11 66 -37l20 -20q15 -15 33 -31q53 -41 90 11q7 11 11 22
q5 9 9 18q24 42 73 33z" />
    <glyph glyph-name="Odieresis" unicode="&#xd6;" horiz-adv-x="3162" 
d="M2191 3477v0q407 51 668 -52.5t390.5 -326.5t148.5 -530t-58 -662.5t-231 -721.5t-366.5 -709.5t-467.5 -626t-535 -469.5q-132 -88 -273.5 -160.5t-295.5 -116.5q-185 -58 -374 -58q-102 -2 -203 20q-268 60 -420 291q-134 213 -154 466q-20 235 13 464t106 453
q171 531 453 1010q64 104 55 229q-15 301 118 558.5t365 455.5t510.5 323.5t550.5 162.5zM1523 -637v0q301 183 567 461.5t483 616t371 699.5t233 711.5t71.5 652t-115.5 524t-328 323.5t-565 49q-299 -46 -583 -188t-499.5 -367.5t-310.5 -522.5q-2 -4 -2 -8
q-15 -47 -26 -97.5t-9 -105.5q28 20 42 44q4 7 8 16l88 118q69 95 141 190q238 310 539 561q64 50 132 99q40 28 88 26q20 2 42 -4q13 -5 20 -16q6 -9 3 -17.5t-12 -13.5q-112 -68 -209 -156t-187 -182q-172 -174 -319 -366.5t-279 -395.5q-27 -39 -51 -79q-9 -15 -20 -28
q-24 -40 -11 -86q55 -220 235.5 -361t407.5 -150q59 0 118 14q383 88 531 453q22 55 35 114q6 29 15 55q18 53 60 44q13 5 28 0q22 -9 27.5 -25.5t1.5 -35.5q0 -5 -2 -7v-7q-58 -277 -246 -454t-467 -210q-66 -7 -128 -7q-224 -2 -402.5 96t-303.5 303q-4 4 -7 8
q-6 18 -22 29q-2 -4 -6 -9q-11 -17 -22 -37q-24 -44 -46 -88q-66 -119 -124 -240q-110 -235 -195.5 -478.5t-129.5 -500.5q-22 -139 -28.5 -278.5t15.5 -280.5q19 -112 56.5 -215.5t103.5 -195.5q159 -214 420 -238q31 -2 62 -2q66 0 134 13q154 31 297 91.5t280 141.5z
M2695 3711v0q9 -5 16 -14q13 -19 9.5 -49t-19 -55t-37.5 -30q-33 -9 -55 7.5t-17 56.5v9q0 11 2 22q7 39 35.5 54.5t65.5 -1.5zM2442 3708v0q29 0 47.5 -13t18.5 -33q-6 -83 -79 -83q-57 6 -53 70q7 59 66 59z" />
    <glyph glyph-name="multiply" unicode="&#xd7;" horiz-adv-x="711" 
d="M453 571l174 163q22 20 46 35q20 13 49 -15q26 -29 15 -46q-9 -9 -15 -16l-40 -37q-83 -82 -178 -170l-4 -2q41 -81 77 -158l19 -38q3 -6 5 -15q0 -18 -42 -46q-44 -29 -57 -16q-16 16 -27 36l-74 149q-95 -83 -212 -174q-4 -2 -6 -2q-5 -4 -10.5 -4t-11.5 6
q-29 27 -13 47q85 96 182 187l29 28l-2 5l-18 37q-46 90 -75 187q-4 20 40 46q11 7 16.5 7t5.5 -5q2 0 6 -2q71 -97 121 -187z" />
    <glyph glyph-name="Oslash" unicode="&#xd8;" horiz-adv-x="3162" 
d="M651 -863q49 -13 99 -18q31 -2 62 -2q66 0 134 13q154 31 297 91.5t280 141.5q301 183 567 461.5t483 616t371 699.5t233 711.5t71.5 652t-115.5 525.5q-44 92 -110 162q-167 -303 -339 -596q-55 -99 -112 -196q-147 -257 -297 -514q-62 -256 -238 -423q-11 -9 -19 -17
q-484 -828 -973 -1642q-196 -332 -394 -666zM2152 1887v4q6 29 15 55q16 44 44 46q341 586 680 1180q13 22 24 44q16 24 29 50q-62 49 -139 86q-220 101 -565 48q-299 -46 -583 -188t-499.5 -367.5t-310.5 -522.5q-2 -4 -2 -8q-15 -47 -26 -97.5t-9 -105.5q28 20 42 44l8 16
l88 118q69 95 141 190q238 310 539 561q64 50 132 99q40 28 88 26q20 2 42 -4q13 -5 20 -16q6 -9 3 -17.5t-12 -13.5q-112 -68 -209 -156t-187 -182q-172 -174 -319 -366.5t-279 -395.5q-27 -39 -51 -79q-9 -15 -20 -28q-24 -40 -11 -86q55 -220 235.5 -361t407.5 -150
q59 0 118 14q196 46 330 162l31 53q101 174 205 348zM1817 1317q-114 -51 -248 -66q-66 -7 -128 -7q-224 -2 -402.5 96t-303.5 303q-4 4 -7 8q-6 18 -22 29q-2 -4 -6 -9q-11 -17 -22 -37q-24 -44 -46 -88q-66 -119 -124 -240q-110 -235 -195.5 -478.5t-129.5 -500.5
q-22 -139 -28.5 -278.5t15.5 -280.5q19 -112 56.5 -215.5t103.5 -195.5q97 -130 229 -189q207 356 414 708q13 22 24 42q409 699 820 1399zM2997 3356q74 137 149 280q38 75 73 83q42 16 39 -50q-4 -22 -17 -57q-2 -14 -7 -25l-11 -22q-11 -24 -24 -48l-75 -141l-44 -79
q104 -84 170 -198q129 -224 148 -531t-58 -662.5t-231 -721.5t-366.5 -709.5t-467.5 -626t-535 -469.5q-132 -88 -273.5 -160.5t-295.5 -116.5q-185 -58 -374 -58q-95 -2 -190 18q-37 -68 -77 -134q-66 -117 -134 -233q-42 -73 -72 -84q-42 -9 -35.5 45t61.5 149
q31 55 64 110q48 85 99 171q-211 75 -339 269q-134 213 -154 466q-20 235 13 464t106 453q171 531 453 1010q64 104 55 229q-15 301 118 558.5t365 455.5t510.5 323.5t550.5 162.5q407 51 669 -52q73 -29 137 -69z" />
    <glyph glyph-name="Ugrave" unicode="&#xd9;" horiz-adv-x="3614" 
d="M3786 1656v0q123 17 79 -101q-39 -91 -83 -181q-187 -389 -349 -786t-311 -798q-33 -92 -71 -185q-17 -35 -53 -28q-39 6 -35 44q20 94 46 189q106 348 242.5 687.5t288.5 674.5l48 110q0 2 -2 6q-2 5 -5 9q-46 -31 -79 -75q-11 -13 -20 -26q-213 -242 -523 -574
t-659 -672t-679 -609.5t-581 -386.5q-72 -33 -151 -33q-161 -2 -194 150q-18 99 -2 202q15 110 45 217t65 212q94 284 259 648t355 762q182 379 350.5 747.5t283 684t138.5 537.5q9 64 -2 126q-22 116 -146 90q-90 -22 -173.5 -62.5t-164.5 -89.5q-198 -119 -450 -309
t-516 -427.5t-496 -498.5t-387.5 -519.5t-190.5 -491.5q-9 -64 -9 -128q-2 -231 187 -349q86 -51 180.5 -79.5t193.5 -44.5q183 -28 372 -33q93 -2 183 -8q86 -5 66 -31q-13 -20 -31 -24.5t-35 -2.5h-5q-195 -2 -386.5 12.5t-378.5 58.5q-97 26 -185 66q-319 156 -275 528
q31 248 185 517.5t385 536t495 507.5t517 433.5t451 315.5q143 90 295 156q105 46 215 55q247 13 255 -231q-2 -189 -122 -527t-305.5 -754.5t-388.5 -843.5q-191 -412 -351.5 -771.5t-242.5 -605.5q-61 -181 -92 -366q-18 -96 -5 -191q22 -128 148 -70q248 112 601.5 413.5
t739.5 690.5t730 764.5t571 632.5q46 48 95 97q30 26 70 33zM2822 2149v0q7 -14 16 -25q24 -37 46 -76.5t35 -85.5q2 -16 2 -30t-15 -25q-11 -18 -35 7.5t-55 69.5q-35 50 -73 92q-15 13 -27 30.5t-8 33t40 24.5q6 2 13 2h6q16 2 31.5 -2t23.5 -15z" />
    <glyph glyph-name="Uacute" unicode="&#xda;" horiz-adv-x="3614" 
d="M3786 1656v0q123 17 79 -101q-39 -91 -83 -181q-187 -389 -349 -786t-311 -798q-33 -92 -71 -185q-17 -35 -53 -28q-39 6 -35 44q20 94 46 189q106 348 242.5 687.5t288.5 674.5l48 110q0 2 -2 6q-2 5 -5 9q-46 -31 -79 -75q-11 -13 -20 -26q-213 -242 -523 -574
t-659 -672t-679 -609.5t-581 -386.5q-72 -33 -151 -33q-161 -2 -194 150q-18 99 -2 202q15 110 45 217t65 212q94 284 259 648t355 762q182 379 350.5 747.5t283 684t138.5 537.5q9 64 -2 126q-22 116 -146 90q-90 -22 -173.5 -62.5t-164.5 -89.5q-198 -119 -450 -309
t-516 -427.5t-496 -498.5t-387.5 -519.5t-190.5 -491.5q-9 -64 -9 -128q-2 -231 187 -349q86 -51 180.5 -79.5t193.5 -44.5q183 -28 372 -33q93 -2 183 -8q86 -5 66 -31q-13 -20 -31 -24.5t-35 -2.5h-5q-195 -2 -386.5 12.5t-378.5 58.5q-97 26 -185 66q-319 156 -275 528
q31 248 185 517.5t385 536t495 507.5t517 433.5t451 315.5q143 90 295 156q105 46 215 55q247 13 255 -231q-2 -189 -122 -527t-305.5 -754.5t-388.5 -843.5q-191 -412 -351.5 -771.5t-242.5 -605.5q-61 -181 -92 -366q-18 -96 -5 -191q22 -128 148 -70q248 112 601.5 413.5
t739.5 690.5t730 764.5t571 632.5q46 48 95 97q30 26 70 33zM3036 2157q9 14 24 18t31 2h4q9 -2 16 -2q35 -9 39.5 -24.5t-9 -33t-28.5 -32.5q-38 -40 -73 -90q-28 -44 -52.5 -69.5t-35.5 -7.5q-15 11 -16 25t3 30q11 44 33 84.5t48 77.5q9 11 16 22v0z" />
    <glyph glyph-name="Ucircumflex" unicode="&#xdb;" horiz-adv-x="3614" 
d="M3786 1656v0q123 17 79 -101q-39 -91 -83 -181q-187 -389 -349 -786t-311 -798q-33 -92 -71 -185q-17 -35 -53 -28q-39 6 -35 44q20 94 46 189q106 348 242.5 687.5t288.5 674.5l48 110q0 2 -2 6q-2 5 -5 9q-46 -31 -79 -75q-11 -13 -20 -26q-213 -242 -523 -574
t-659 -672t-679 -609.5t-581 -386.5q-72 -33 -151 -33q-161 -2 -194 150q-18 99 -2 202q15 110 45 217t65 212q94 284 259 648t355 762q182 379 350.5 747.5t283 684t138.5 537.5q9 64 -2 126q-22 116 -146 90q-90 -22 -173.5 -62.5t-164.5 -89.5q-198 -119 -450 -309
t-516 -427.5t-496 -498.5t-387.5 -519.5t-190.5 -491.5q-9 -64 -9 -128q-2 -231 187 -349q86 -51 180.5 -79.5t193.5 -44.5q183 -28 372 -33q93 -2 183 -8q86 -5 66 -31q-13 -20 -31 -24.5t-35 -2.5h-5q-195 -2 -386.5 12.5t-378.5 58.5q-97 26 -185 66q-319 156 -275 528
q31 248 185 517.5t385 536t495 507.5t517 433.5t451 315.5q143 90 295 156q105 46 215 55q247 13 255 -231q-2 -189 -122 -527t-305.5 -754.5t-388.5 -843.5q-191 -412 -351.5 -771.5t-242.5 -605.5q-61 -181 -92 -366q-18 -96 -5 -191q22 -128 148 -70q248 112 601.5 413.5
t739.5 690.5t730 764.5t571 632.5q46 48 95 97q30 26 70 33zM3014 2116v0q33 -66 64 -135q8 -22 19 -41q3 -9 5 -18v-4q0 -29 -24 -33q-40 -11 -69 19q-13 14 -19.5 33.5t-10.5 41.5q-7 29 -18 53q-9 18 -24.5 21t-26.5 -10q-8 -11 -21.5 -31t-26.5 -39q-11 -16 -18 -25
q-33 -48 -56 -49t-28.5 23t12.5 55l26 40q35 55 75 107q31 40 74 36.5t67 -44.5z" />
    <glyph glyph-name="Udieresis" unicode="&#xdc;" horiz-adv-x="3614" 
d="M3786 1656v0q123 17 79 -101q-39 -91 -83 -181q-187 -389 -349 -786t-311 -798q-33 -92 -71 -185q-17 -35 -53 -28q-39 6 -35 44q20 94 46 189q106 348 242.5 687.5t288.5 674.5l48 110q0 2 -2 6q-2 5 -5 9q-46 -31 -79 -75q-11 -13 -20 -26q-213 -242 -523 -574
t-659 -672t-679 -609.5t-581 -386.5q-72 -33 -151 -33q-161 -2 -194 150q-18 99 -2 202q15 110 45 217t65 212q94 284 259 648t355 762q182 379 350.5 747.5t283 684t138.5 537.5q9 64 -2 126q-22 116 -146 90q-90 -22 -173.5 -62.5t-164.5 -89.5q-198 -119 -450 -309
t-516 -427.5t-496 -498.5t-387.5 -519.5t-190.5 -491.5q-9 -64 -9 -128q-2 -231 187 -349q86 -51 180.5 -79.5t193.5 -44.5q183 -28 372 -33q93 -2 183 -8q86 -5 66 -31q-13 -20 -31 -24.5t-35 -2.5h-5q-195 -2 -386.5 12.5t-378.5 58.5q-97 26 -185 66q-319 156 -275 528
q31 248 185 517.5t385 536t495 507.5t517 433.5t451 315.5q143 90 295 156q105 46 215 55q247 13 255 -231q-2 -189 -122 -527t-305.5 -754.5t-388.5 -843.5q-191 -412 -351.5 -771.5t-242.5 -605.5q-61 -181 -92 -366q-18 -96 -5 -191q22 -128 148 -70q248 112 601.5 413.5
t739.5 690.5t730 764.5t571 632.5q46 48 95 97q30 26 70 33zM3122 1997v0q8 -5 15 -13q13 -20 10 -50t-18.5 -55t-37.5 -30q-33 -8 -55 8.5t-18 55.5v9q0 11 2 22q7 40 35.5 55t66.5 -2zM2869 1995v0q28 0 47 -13.5t19 -33.5q-7 -83 -80 -83q-57 6 -52 70q6 60 66 60z" />
    <glyph glyph-name="Yacute" unicode="&#xdd;" horiz-adv-x="4174" 
d="M4545 2188v0q51 7 78.5 -20.5t16.5 -76.5q-22 -85 -60 -167q-134 -310 -290 -609q-330 -627 -691 -1239q-17 -26 -33 -55q-6 -11 -13 -22q-13 -13 -19.5 -27.5t-0.5 -27.5q11 -17 27.5 -17t34.5 6q15 7 31 7q13 2 28 2q24 4 48.5 3t46.5 -16q9 -5 14.5 -11.5t0.5 -19.5
q-2 -9 -8.5 -16.5t-15.5 -5.5q-90 7 -178 -7q-104 -15 -159 -110q-294 -473 -675 -880q-108 -118 -224.5 -226t-252.5 -196q-117 -77 -251 -123q-79 -24 -161 -24h-2q-26 0 -51 2q-96 9 -147 68t-44 154q11 117 70 218q108 189 267 341q266 262 577 450t670 293
q145 38 222 170q218 372 429 747t405 760q62 121 121 246q11 27 24 53q31 64 30 80.5t-22 2t-49.5 -43t-52.5 -54.5q-18 -18 -27 -29q-576 -590 -1236 -1087q-134 -103 -277 -192t-300 -160q-88 -37 -180 -59t-191 -20q-236 11 -247 249q-4 136 40 264q103 323 259 622
q148 280 297 555q55 99 108 200q156 277 282 572q35 81 59 167q18 68 18 139q0 101 -101 129q-58 18 -114 18t-115 -9q-273 -39 -528 -143q-827 -317 -1474 -917q-152 -141 -273 -305t-202 -353q-55 -125 -86 -254t-27 -267q5 -115 41 -219.5t113 -177t203 -92.5
q9 -2 14.5 -9.5t0.5 -18.5q-2 -7 -6.5 -11.5t-8.5 -6.5q-82 -22 -161 13q-136 60 -211 170t-97 246t-2 275q29 194 103.5 367.5t186.5 334.5q121 169 267.5 315.5t311.5 273.5q268 207 559.5 377.5t608.5 298.5q154 61 312.5 108.5t323.5 69.5q79 11 159.5 12t157.5 -19
q218 -55 182 -275q-26 -145 -88 -279q-123 -282 -270 -550q-68 -125 -137 -251q-138 -255 -275 -512q-154 -295 -253 -614q-17 -57 -30.5 -116.5t-8.5 -121.5q4 -44 17 -86q29 -81 115 -85q64 -5 125 15q119 33 225.5 88t210.5 123q207 132 399.5 284t379.5 312
q490 421 926 896q48 53 101 99q33 31 79 37zM3210 -293v0q4 4 9 8q8 11 12.5 22t-4.5 22q-11 11 -24 9t-26 -9q-5 -2 -11 -2q-31 -13 -62 -24q-4 -2 -9 -4q-316 -121 -587 -307t-506 -428q-95 -95 -167 -209q-57 -86 -88 -183q-22 -61 -7 -125q22 -84 121 -86q90 15 183 66
q101 53 189 120t169 144q271 255 495 550q124 163 240 332q38 51 73 104zM3747 2516q8 13 23.5 17.5t31.5 2.5h4q9 -2 15 -2q36 -9 40 -24.5t-9 -33t-28 -33.5q-38 -39 -73 -90q-29 -44 -53 -69t-35 -8q-15 11 -16.5 25.5t3.5 29.5q11 44 33 85t48 78q9 11 16 22v0z" />
    <glyph glyph-name="Thorn" unicode="&#xde;" horiz-adv-x="981" 
d="M955 1442v0q171 -35 262.5 -171.5t62.5 -320.5q-19 -141 -99 -278q-94 -154 -227 -244t-296 -134q-71 -18 -143 -24h-2q-47 -7 -60 -51q-17 -66 -37 -132q-13 -42 -24 -86q-5 -15 -9 -30q-11 -42 -27 -84q-17 -53 -72 -55q-71 -4 -68 44q8 62 26 125q114 473 264 944
q44 141 81 280q11 39 22 77q9 41 -30 33q-14 -5 -29 -9q-31 -11 -64 -11q-17 0 -29.5 5.5t-14.5 22.5q-2 18 10 31t28 20q59 24 118 46h3q26 9 38 15.5t18.5 18.5t13.5 37q11 39 22 79q13 50 29 101q17 57 68 59q81 11 75 -48q-9 -59 -22 -119q-7 -31 -11 -59q-3 -18 -5 -33
q-2 -9 -2 -18q44 -20 92 -24q20 -2 38 -7zM1034 716v0q90 165 83.5 302.5t-94.5 250.5q-66 79 -178 94q-55 11 -71 -46l-96 -334q-18 -62 -36 -126h-4q-9 -31 -18 -64l-52 -176l-18 -66q-22 -70 -40 -138q-11 -40 -2 -51t46 -2q313 68 480 356z" />
    <glyph glyph-name="germandbls" unicode="&#xdf;" horiz-adv-x="1164" 
d="M1234 866v0q99 -35 129 -117.5t-19 -197.5q-127 -290 -427 -429q-143 -61 -270 -33q-57 9 -87 43t-25 94q11 119 127 191q119 77 229 42q7 -2 11 -10t2 -16q-2 -9 -9.5 -18t-16.5 -13q-16 -5 -29 -7t-24 -6q-117 -40 -125 -150q-3 -35 19 -51.5t60 -7.5q90 26 184.5 105
t160.5 178t75 183q9 110 -88 143q-75 24 -163 7q-68 -11 -138 -27q-5 -2 -7 -2q-48 -11 -88 0q-64 24 -18 88q40 51 86 99q115 123 225 249.5t213 258.5q59 73 99 154q9 22 0 36.5t-29 16.5h-4q-11 0 -22 -2q-233 -40 -462 -143q-103 -51 -152 -150q-44 -81 -72 -163
q-11 -33 -25 -66q-61 -178 -117 -355t-96 -355q-48 -205 -110 -409q-11 -38 -22 -77q-18 -51 -55 -71t-79 -2q-24 9 -22 35q2 27 9 51q110 497 264 994q44 141 99 282q13 31 24 61q13 36 33 71q9 15 15 31q62 121 185 178q167 81 334.5 129.5t332.5 46.5q235 -2 94 -222
q-61 -95 -138 -185q-113 -132 -227 -264q-48 -55 -97 -110q-6 -9 -13 -16q-15 -13 -27.5 -30.5t-16.5 -41.5h64q77 0 152 -2q50 -3 94 -18z" />
    <glyph glyph-name="agrave" unicode="&#xe0;" horiz-adv-x="663" 
d="M729 444q-29 -38 -62 -71t-72 -59q-3 0 -3 -2q-26 -18 -55 -31q-239 -86 -244 101q-97 -84 -130 -103q-79 -47 -171 -42q-68 4 -92.5 41.5t4.5 101.5q44 101 125 180q95 88 211 141q62 31 130 24q68 -4 82 -77q6 -22 -11 -39q-22 -20 -51 -9q-2 0 -5.5 1t-5.5 3
q-29 40 -58.5 33.5t-62.5 -26.5q-154 -90 -229 -251q-4 -7 -5 -15.5t5 -13.5q18 -6 40 2.5t44 25t37 27.5l2 3q73 61 143 125q31 33 77 37q66 0 55 -59q-6 -22 -13 -44q-26 -95 -2 -111.5t73.5 0t99 63t83.5 85t57.5 25t3.5 -65.5zM346 998v0q7 -11 13 -20q22 -33 42 -68
t29 -75q4 -13 3 -25t-14 -21q-11 -15 -31 5.5t-46 60.5q-31 44 -64 79q-13 13 -24 28.5t-8 29t36 19.5q5 2 11 2h5q15 3 27 -0.5t21 -14.5z" />
    <glyph glyph-name="aacute" unicode="&#xe1;" horiz-adv-x="663" 
d="M729 444q-29 -38 -62 -71t-72 -59q-3 0 -3 -2q-26 -18 -55 -31q-239 -86 -244 101q-97 -84 -130 -103q-79 -47 -171 -42q-68 4 -92.5 41.5t4.5 101.5q44 101 125 180q95 88 211 141q62 31 130 24q68 -4 82 -77q6 -22 -11 -39q-22 -20 -51 -9q-2 0 -5.5 1t-5.5 3
q-29 40 -58.5 33.5t-62.5 -26.5q-154 -90 -229 -251q-4 -7 -5 -15.5t5 -13.5q18 -6 40 2.5t44 25t37 27.5l2 3q73 61 143 125q31 33 77 37q66 0 55 -59q-6 -22 -13 -44q-26 -95 -2 -111.5t73.5 0t99 63t83.5 85t57.5 25t3.5 -65.5zM390 1000q7 11 20 14.5t26 3.5q5 -2 7 -2
q4 0 11 -3q33 -6 36 -19.5t-8 -28.5t-24 -29q-33 -35 -64 -79q-26 -37 -47 -59t-32 -7q-11 9 -12 21t3 25q9 40 29 75t42 68q6 9 13 20v0z" />
    <glyph glyph-name="acircumflex" unicode="&#xe2;" horiz-adv-x="663" 
d="M729 444q-29 -38 -62 -71t-72 -59q-3 0 -3 -2q-26 -18 -55 -31q-239 -86 -244 101q-97 -84 -130 -103q-79 -47 -171 -42q-68 4 -92.5 41.5t4.5 101.5q44 101 125 180q95 88 211 141q62 31 130 24q68 -4 82 -77q6 -22 -11 -39q-22 -20 -51 -9q-2 0 -5.5 1t-5.5 3
q-29 40 -58.5 33.5t-62.5 -26.5q-154 -90 -229 -251q-4 -7 -5 -15.5t5 -13.5q18 -6 40 2.5t44 25t37 27.5l2 3q73 61 143 125q31 33 77 37q66 0 55 -59q-6 -22 -13 -44q-26 -95 -2 -111.5t73.5 0t99 63t83.5 85t57.5 25t3.5 -65.5zM421 958v0q28 -59 57 -118q7 -18 15 -36
q5 -8 5 -15v-4q0 -25 -20 -29q-35 -9 -62 18q-8 13 -15 29.5t-11 36.5q-4 26 -13 46q-9 13 -22 16.5t-22 -7.5t-21 -27.5t-23 -34.5q-9 -13 -13 -22q-31 -42 -51 -42t-24.5 21t11.5 47q11 18 24 36q29 48 64 92q26 35 62.5 33t58.5 -40z" />
    <glyph glyph-name="atilde" unicode="&#xe3;" horiz-adv-x="663" 
d="M729 444q-29 -38 -62 -71t-72 -59q-3 0 -3 -2q-26 -18 -55 -31q-239 -86 -244 101q-97 -84 -130 -103q-79 -47 -171 -42q-68 4 -92.5 41.5t4.5 101.5q44 101 125 180q95 88 211 141q62 31 130 24q68 -4 82 -77q6 -22 -11 -39q-22 -20 -51 -9q-2 0 -5.5 1t-5.5 3
q-29 40 -58.5 33.5t-62.5 -26.5q-154 -90 -229 -251q-4 -7 -5 -15.5t5 -13.5q18 -6 40 2.5t44 25t37 27.5l2 3q73 61 143 125q31 33 77 37q66 0 55 -59q-6 -22 -13 -44q-26 -95 -2 -111.5t73.5 0t99 63t83.5 85t57.5 25t3.5 -65.5zM478 903v0q26 -4 29 -28q4 -62 -51 -95
q-42 -24 -90 -20q-79 -2 -130 55q-33 38 -48.5 37t-48.5 -41q-4 -2 -9 -7q-13 -15 -29.5 -16t-33.5 3q-14 5 -18 14.5t0 20.5q29 49 84 72t110 10q30 -9 52 -33q7 -7 14 -16q13 -15 26 -28q42 -35 70 11q5 9 9 20q2 6 7 13q17 37 57 28z" />
    <glyph glyph-name="adieresis" unicode="&#xe4;" horiz-adv-x="663" 
d="M729 444q-29 -38 -62 -71t-72 -59q-3 0 -3 -2q-26 -18 -55 -31q-239 -86 -244 101q-97 -84 -130 -103q-79 -47 -171 -42q-68 4 -92.5 41.5t4.5 101.5q44 101 125 180q95 88 211 141q62 31 130 24q68 -4 82 -77q6 -22 -11 -39q-22 -20 -51 -9q-2 0 -5.5 1t-5.5 3
q-29 40 -58.5 33.5t-62.5 -26.5q-154 -90 -229 -251q-4 -7 -5 -15.5t5 -13.5q18 -6 40 2.5t44 25t37 27.5l2 3q73 61 143 125q31 33 77 37q66 0 55 -59q-6 -22 -13 -44q-26 -95 -2 -111.5t73.5 0t99 63t83.5 85t57.5 25t3.5 -65.5zM469 886v0q9 -5 13 -11q11 -18 9 -43
t-15 -47t-33 -27q-31 -6 -49.5 8t-14.5 47v9q0 9 2 18q5 35 30 48t58 -2zM249 886v0q24 0 40.5 -12t16.5 -30q-6 -73 -68 -73q-50 7 -46 62q4 51 57 53z" />
    <glyph glyph-name="aring" unicode="&#xe5;" horiz-adv-x="663" 
d="M729 444q-29 -38 -62 -71t-72 -59q-3 0 -3 -2q-26 -18 -55 -31q-239 -86 -244 101q-97 -84 -130 -103q-79 -47 -171 -42q-68 4 -92.5 41.5t4.5 101.5q44 101 125 180q95 88 211 141q62 31 130 24q68 -4 82 -77q6 -22 -11 -39q-22 -20 -51 -9q-2 0 -5.5 1t-5.5 3
q-29 40 -58.5 33.5t-62.5 -26.5q-154 -90 -229 -251q-4 -7 -5 -15.5t5 -13.5q18 -6 40 2.5t44 25t37 27.5l2 3q73 61 143 125q31 33 77 37q66 0 55 -59q-6 -22 -13 -44q-26 -95 -2 -111.5t73.5 0t99 63t83.5 85t57.5 25t3.5 -65.5zM412 991v0q70 -19 57 -103
q-22 -130 -136 -119q-35 0 -68 11q-73 31 -60 117q20 105 115 103q6 -2 15 -2q4 -2 7 -2v2v0q11 -2 22 -2q24 0 48 -5zM357 848v0q13 27 15 58q0 24 -19 33q-20 6 -36 -9q-6 -9 -9.5 -21t-5.5 -23v-9v-11q2 -11 6.5 -20t15.5 -11q20 -6 33 13z" />
    <glyph glyph-name="ae" unicode="&#xe6;" horiz-adv-x="920" 
d="M500 584v0q-7 -6 -9 -15t7 -15q35 -20 75.5 -14.5t69.5 30.5t24 63q-2 13 -13 16.5t-22 0.5q-75 -13 -132 -66zM392 283l-24 -24q-70 -64 -75 123q-97 -84 -130 -103q-79 -47 -171 -42q-68 4 -92.5 41.5t4.5 101.5q44 101 125 180q95 88 211 141q62 31 130 24
q64 -4 79 -70l3 2q105 66 220 64h2q28 2 55 -5q44 -15 56 -51.5t-17 -80.5q-63 -96 -173 -107q-73 -7 -141 6q-13 2 -23 -6.5t-12 -21.5q-20 -86 52 -110q91 -31 187 0q113 35 214 131.5t116.5 90t8.5 -37.5q-13 -48 -71.5 -105t-135.5 -98t-128.5 -53t-106.5 -14
q-88 -5 -163 24zM383 602q-2 0 -4 2q-29 40 -58.5 33.5t-62.5 -26.5q-154 -90 -229 -251q-4 -7 -5 -15.5t5 -13.5q18 -6 40 2.5t44 25t37 27.5l2 3q73 61 187 156q20 31 44 57z" />
    <glyph glyph-name="ccedilla" unicode="&#xe7;" horiz-adv-x="667" 
d="M132 268q-22 4 -46 13q-128 50 -104 185q29 125 141 207.5t240 71.5q24 -4 48 -11q22 -9 33 -26.5t2 -28.5q-24 -26 -55 -13q-46 20 -84.5 11t-77.5 -42q-38 -29 -82 -84t-56 -111t50 -91q70 -31 143 -15q182 37 338 138q14 7 25 16q17 13 34.5 21.5t39.5 11.5
q5 0 11.5 -2.5t10.5 -6.5q14 -13 3 -31q-14 -15 -27 -26q-77 -71 -171 -119q-148 -75 -326 -77q-24 0 -51 2v-4q22 0 22 -31v-9q0 -42 -59 -42h-4q-42 0 -42 31v11q2 9 9 9h13q15 -16 24 -16l22 7v9q-31 0 -31 17q5 14 7 25z" />
    <glyph glyph-name="egrave" unicode="&#xe8;" horiz-adv-x="582" 
d="M435 286.5q-77 -40.5 -129 -53t-107 -14.5q-88 -4 -162 24q-121 49 -84 187q35 119 142 186t221 65h2q29 2 55 -4q44 -16 56 -52t-16 -80q-64 -97 -174 -108q-73 -7 -141 7q-13 2 -23 -7t-12 -22q-20 -86 53 -110q90 -31 187 0q112 35 213 132t116.5 90.5t9.5 -37.5
q-14 -49 -72 -106t-135 -97.5zM144 545v0q-6 -7 -8.5 -15.5t6.5 -15.5q35 -20 76 -14.5t69.5 31t24.5 62.5q-3 13 -14 16.5t-22 1.5q-74 -13 -132 -66zM235 921v0q6 -11 13 -20q22 -33 41.5 -68t28.5 -75q5 -13 3.5 -25t-14.5 -21q-11 -15 -30.5 5.5t-46.5 60.5
q-31 44 -64 79q-13 13 -24 28.5t-7.5 29t36.5 19.5q4 2 11 2h4q16 3 28 -0.5t21 -14.5z" />
    <glyph glyph-name="eacute" unicode="&#xe9;" horiz-adv-x="582" 
d="M435 286.5q-77 -40.5 -129 -53t-107 -14.5q-88 -4 -162 24q-121 49 -84 187q35 119 142 186t221 65h2q29 2 55 -4q44 -16 56 -52t-16 -80q-64 -97 -174 -108q-73 -7 -141 7q-13 2 -23 -7t-12 -22q-20 -86 53 -110q90 -31 187 0q112 35 213 132t116.5 90.5t9.5 -37.5
q-14 -49 -72 -106t-135 -97.5zM144 545v0q-6 -7 -8.5 -15.5t6.5 -15.5q35 -20 76 -14.5t69.5 31t24.5 62.5q-3 13 -14 16.5t-22 1.5q-74 -13 -132 -66zM356 921q6 11 19.5 14.5t26.5 3.5q4 -3 6 -3q5 0 11 -2q33 -6 36.5 -19.5t-7.5 -29t-24 -28.5q-33 -35 -64 -79
q-26 -37 -47 -59t-32 -7q-11 9 -12 21t3 25q9 40 28.5 75t41.5 68q7 9 14 20v0z" />
    <glyph glyph-name="ecircumflex" unicode="&#xea;" horiz-adv-x="582" 
d="M435 286.5q-77 -40.5 -129 -53t-107 -14.5q-88 -4 -162 24q-121 49 -84 187q35 119 142 186t221 65h2q29 2 55 -4q44 -16 56 -52t-16 -80q-64 -97 -174 -108q-73 -7 -141 7q-13 2 -23 -7t-12 -22q-20 -86 53 -110q90 -31 187 0q112 35 213 132t116.5 90.5t9.5 -37.5
q-14 -49 -72 -106t-135 -97.5zM144 545v0q-6 -7 -8.5 -15.5t6.5 -15.5q35 -20 76 -14.5t69.5 31t24.5 62.5q-3 13 -14 16.5t-22 1.5q-74 -13 -132 -66zM373 910v0q29 -59 57 -119q7 -17 16 -35q4 -9 4 -15v-5q0 -24 -20 -28q-35 -9 -61 17q-9 13 -15.5 29.5t-11.5 36.5
q-4 27 -13 46q-9 14 -22 17t-22 -8t-21 -27.5t-23 -33.5q-9 -14 -13 -22q-31 -42 -50.5 -42t-24 21t10.5 47q11 18 24 35q29 49 64 93q27 35 63 32.5t58 -39.5z" />
    <glyph glyph-name="edieresis" unicode="&#xeb;" horiz-adv-x="582" 
d="M435 286.5q-77 -40.5 -129 -53t-107 -14.5q-88 -4 -162 24q-121 49 -84 187q35 119 142 186t221 65h2q29 2 55 -4q44 -16 56 -52t-16 -80q-64 -97 -174 -108q-73 -7 -141 7q-13 2 -23 -7t-12 -22q-20 -86 53 -110q90 -31 187 0q112 35 213 132t116.5 90.5t9.5 -37.5
q-14 -49 -72 -106t-135 -97.5zM144 545v0q-6 -7 -8.5 -15.5t6.5 -15.5q35 -20 76 -14.5t69.5 31t24.5 62.5q-3 13 -14 16.5t-22 1.5q-74 -13 -132 -66zM446 842v0q9 -5 13 -11q11 -18 9 -43t-15.5 -47t-33.5 -27q-30 -6 -49 8t-14 47v9q0 9 2 18q4 35 29.5 48t58.5 -2z
M226 842v0q24 0 40.5 -12t16.5 -30q-7 -73 -68 -73q-51 7 -46 62q4 51 57 53z" />
    <glyph glyph-name="igrave" unicode="&#xec;" horiz-adv-x="390" 
d="M271 305q-73 -53 -165 -71.5t-143 13.5t-20 142q40 114 110 217q16 22 46 31q22 5 38.5 -7.5t12.5 -31.5q-15 -36 -33 -72t-24 -47q-35 -64 -49 -134q0 -40 107 -5t208 128.5t96.5 55t-58 -102t-126.5 -116.5zM117 914v0q7 -11 13 -19q22 -33 42 -68.5t29 -74.5
q4 -14 3 -26t-14 -21q-11 -15 -31 6t-46 60q-31 44 -64 80q-13 13 -24 28.5t-8 28.5t36 20q5 2 11 2h5q15 2 27 -1.5t21 -14.5z" />
    <glyph glyph-name="iacute" unicode="&#xed;" horiz-adv-x="390" 
d="M271 305q-73 -53 -165 -71.5t-143 13.5t-20 142q40 114 110 217q16 22 46 31q22 5 38.5 -7.5t12.5 -31.5q-15 -36 -33 -72t-24 -47q-35 -64 -49 -134q0 -40 107 -5t208 128.5t96.5 55t-58 -102t-126.5 -116.5zM203 910q6 11 19.5 14.5t26.5 3.5q4 -3 7 -3q4 0 11 -2
q33 -6 36 -19.5t-8 -29t-24 -28.5q-33 -35 -64 -79q-26 -37 -47 -59t-32 -7q-11 9 -12 21t3 25q9 40 29 75t42 68q6 9 13 20v0z" />
    <glyph glyph-name="icircumflex" unicode="&#xee;" horiz-adv-x="390" 
d="M271 305q-73 -53 -165 -71.5t-143 13.5t-20 142q40 114 110 217q16 22 46 31q22 5 38.5 -7.5t12.5 -31.5q-15 -36 -33 -72t-24 -47q-35 -64 -49 -134q0 -40 107 -5t208 128.5t96.5 55t-58 -102t-126.5 -116.5zM225 886v0q28 -60 57 -119q7 -18 15 -35q5 -9 5 -16v-4
q0 -24 -20 -29q-35 -8 -62 18q-8 13 -15 29.5t-11 36.5q-4 26 -13 46q-9 13 -22 16.5t-22 -7.5t-21 -27.5t-23 -34.5q-9 -13 -13 -22q-31 -41 -51 -41t-24.5 20.5t11.5 47.5q11 17 24 35q29 48 64 92q26 36 62.5 33.5t58.5 -39.5z" />
    <glyph glyph-name="idieresis" unicode="&#xef;" horiz-adv-x="390" 
d="M271 305q-73 -53 -165 -71.5t-143 13.5t-20 142q40 114 110 217q16 22 46 31q22 5 38.5 -7.5t12.5 -31.5q-15 -36 -33 -72t-24 -47q-35 -64 -49 -134q0 -40 107 -5t208 128.5t96.5 55t-58 -102t-126.5 -116.5zM278 807v0q8 -5 13 -11q11 -18 8.5 -43.5t-15.5 -47.5
t-33 -26q-31 -7 -49.5 7.5t-14.5 47.5v9q0 9 3 17q4 36 29.5 49t58.5 -2zM58 807v0q24 0 40.5 -12.5t16.5 -29.5q-7 -73 -68 -73q-51 7 -47 62q5 50 58 53z" />
    <glyph glyph-name="eth" unicode="&#xf0;" horiz-adv-x="713" 
d="M647 602v0q50 -103 39 -231q-11 -110 -88 -211q-66 -84 -151.5 -120t-162.5 -30.5t-121 42.5q-77 68 -42 185q51 156 200 255q51 33 104 33q15 2 29.5 -2.5t20.5 -19.5q5 -18 -6 -31t-29 -22q-92 -66 -143 -160q-48 -86 -15 -159q28 -50 96 -13q60 35 93 84.5t46 104.5
q24 86 10 159.5t-58 135.5q-20 24 -55 2l-36 -22q-33 -22 -63 -39q-33 -20 -64 -29q-24 -4 -45 -2t-34 20q-16 22 55 72q4 2 8 7q9 4 16 9q17 15 42 26q22 11 39.5 25.5t19.5 38.5q0 17 -14.5 26t-31.5 16q-20 4 -33 13q-7 4 -12.5 10.5t-0.5 17.5q4 16 15 22.5t24 10.5
q49 16 88 -2q44 -17 84 -39q35 -22 83 2q40 15 80 24q41 11 70 -9q11 -11 7.5 -28.5t-18.5 -26.5q-29 -15 -64 -31q-17 -6 -37 -15q13 -20 22 -37q20 -33 33 -62z" />
    <glyph glyph-name="ntilde" unicode="&#xf1;" horiz-adv-x="733" 
d="M752 426q-56 -53 -119 -89t-146 -72q-55 -24 -117 -16t-62 75t31 133q31 68 13.5 70t-72.5 -33q-143 -94 -266 -215q-33 -40 -84 -44q-26 0 -40.5 16.5t-3.5 35.5q88 163 178 322q20 33 60 41q17 3 31.5 -10.5t14.5 -30.5q-2 -16 -13 -38q-5 -13 -9.5 -25t-3 -20t12.5 -5
q15 8 30 17q38 22 73 42q31 18 65 32t71 19q60 4 85 -27t6 -86q-20 -50 -42 -99q-27 -46 -9 -70t167 55l75 44q106 68 114 51q16 -20 -40 -73zM561 840v0q29 -5 33 -29q5 -62 -55 -95q-48 -24 -101 -19q-90 -3 -147 55q-38 37 -55.5 36t-54.5 -41q-2 -2 -7 -6
q-15 -16 -34 -17t-38 3q-14 5 -19.5 15t1.5 21q31 48 92.5 71t123.5 10q35 -9 57 -33q9 -7 15 -15q16 -16 31 -29q46 -35 79 11q5 9 9 20q4 6 7 13q22 37 63 29z" />
    <glyph glyph-name="ograve" unicode="&#xf2;" horiz-adv-x="531" 
d="M159 237v0h-3q-145 2 -191 64.5t4 166.5q42 79 106 138q22 20 45 32t52 12q17 3 39 -6q7 -2 14 -5q17 3 33 11q4 3 11 5q33 13 70 11h31q59 -9 89 -49.5t21 -98.5q-5 -35 -22 -66q-115 -206 -293 -215h-6zM317 595v0q-79 3 -140.5 -45.5t-91.5 -111.5t-16.5 -103.5
t83.5 -22.5q79 24 139.5 90t74 125.5t-48.5 67.5zM260 910v0q6 -11 13 -20q22 -33 42 -68t28 -75q5 -13 4 -25t-15 -21q-11 -15 -30.5 5.5t-46.5 60.5q-30 44 -63 79q-14 13 -25 28.5t-7.5 29t36.5 19.5q4 2 11 2h4q16 3 28 -0.5t21 -14.5z" />
    <glyph glyph-name="oacute" unicode="&#xf3;" horiz-adv-x="531" 
d="M159 237v0h-3q-145 2 -191 64.5t4 166.5q42 79 106 138q22 20 45 32t52 12q17 3 39 -6q7 -2 14 -5q17 3 33 11q4 3 11 5q33 13 70 11h31q59 -9 89 -49.5t21 -98.5q-5 -35 -22 -66q-115 -206 -293 -215h-6zM317 595v0q-79 3 -140.5 -45.5t-91.5 -111.5t-16.5 -103.5
t83.5 -22.5q79 24 139.5 90t74 125.5t-48.5 67.5zM348 914q6 11 19.5 14.5t26.5 3.5q4 -2 7 -2q4 0 11 -2q33 -7 36 -20t-8 -28.5t-24 -28.5q-33 -36 -64 -80q-26 -37 -47 -59t-32 -7q-11 9 -12 21t3 26q9 39 29 74.5t42 68.5q6 8 13 19v0z" />
    <glyph glyph-name="ocircumflex" unicode="&#xf4;" horiz-adv-x="530" 
d="M159 237v0h-3q-145 2 -191 64.5t4 166.5q42 79 106 138q22 20 45 32t52 12q17 3 39 -6q7 -2 14 -5q17 3 33 11q4 3 11 5q33 13 70 11h31q59 -9 89 -49.5t21 -98.5q-5 -35 -22 -66q-115 -206 -293 -215h-6zM317 595v0q-79 3 -140.5 -45.5t-91.5 -111.5t-16.5 -103.5
t83.5 -22.5q79 24 139.5 90t74 125.5t-48.5 67.5zM460 906v0q29 -60 57 -119q7 -18 16 -35q4 -9 4 -16v-4q0 -24 -20 -29q-35 -9 -61 18q-9 13 -15.5 29.5t-11.5 36.5q-4 26 -13 46q-9 13 -22 16.5t-22 -7.5t-21 -27.5t-23 -34.5q-9 -13 -13 -22q-31 -42 -51 -42t-24 21
t11 48q11 17 24 35q29 48 64 92q26 35 62.5 33t58.5 -39z" />
    <glyph glyph-name="otilde" unicode="&#xf5;" horiz-adv-x="530" 
d="M159 237v0h-3q-145 2 -191 64.5t4 166.5q42 79 106 138q22 20 45 32t52 12q17 3 39 -6q7 -2 14 -5q17 3 33 11q4 3 11 5q33 13 70 11h31q59 -9 89 -49.5t21 -98.5q-5 -35 -22 -66q-115 -206 -293 -215h-6zM317 595v0q-79 3 -140.5 -45.5t-91.5 -111.5t-16.5 -103.5
t83.5 -22.5q79 24 139.5 90t74 125.5t-48.5 67.5zM579 842v0q28 -5 33 -29q4 -61 -55 -94q-49 -25 -101 -20q-91 -2 -148 55q-37 37 -54.5 36t-55.5 -41l-6 -6q-16 -16 -34.5 -17t-38.5 4q-13 4 -18.5 14t0.5 21q31 48 92.5 71t123.5 10q35 -9 57 -33q9 -6 16 -15
q15 -16 30 -29q47 -35 80 11q4 9 8 20q5 7 7 13q22 38 64 29z" />
    <glyph glyph-name="odieresis" unicode="&#xf6;" horiz-adv-x="530" 
d="M159 237v0h-3q-145 2 -191 64.5t4 166.5q42 79 106 138q22 20 45 32t52 12q17 3 39 -6q7 -2 14 -5q17 3 33 11q4 3 11 5q33 13 70 11h31q59 -9 89 -49.5t21 -98.5q-5 -35 -22 -66q-115 -206 -293 -215h-6zM317 595v0q-79 3 -140.5 -45.5t-91.5 -111.5t-16.5 -103.5
t83.5 -22.5q79 24 139.5 90t74 125.5t-48.5 67.5zM484 842v0q9 -5 13 -11q11 -18 9 -43t-15 -47t-33 -27q-31 -6 -49.5 8t-14.5 47v9q0 9 2 18q5 35 30 48t58 -2zM264 842v0q24 0 40.5 -12t16.5 -30q-6 -73 -68 -73q-50 7 -46 62q4 51 57 53z" />
    <glyph glyph-name="divide" unicode="&#xf7;" horiz-adv-x="961" 
d="M750 950v0q79 0 33 -80q-20 -30 -42 -57q-17 -24 -43.5 -31.5t-50.5 3.5q-20 8 -16 30q9 36 22 73q27 66 97 62zM539 213v0q79 0 31 -80q-18 -30 -40 -57q-17 -24 -43.5 -31.5t-50.5 3.5q-20 8 -16 30q9 36 22 73q27 66 97 62zM636 428l-90 2q-137 5 -295 20q-5 0 -7 5
q-6 0 -7.5 3t-1.5 14q11 46 38 49q125 15 253 17l50 2h93h248q27 0 53 -4q22 -4 9 -51q-13 -46 -37 -50q-9 -2 -18 -2h-53q-112 -5 -235 -5z" />
    <glyph glyph-name="oslash" unicode="&#xf8;" horiz-adv-x="741" 
d="M592 694q11 -13 15 -28q38 -209 -81 -392q-82 -158 -260 -178q-75 -7 -127 9l-80 -106q-41 -53 -81 -108q-24 -33 -53 -33q-37 7 -42.5 38t27.5 75q20 26 37 50q53 73 106 143q-51 60 -66 145q-20 102 8.5 191t94.5 166q51 55 126 46q35 0 55 -26q11 -18 4 -31t-20 -24
q-108 -113 -101 -267q0 -28 7 -55q61 80 121 159q6 11 15 20q44 59 81 110q0 2 -2 4q-24 22 -46 31q-11 6 -20 11.5t-9 14.5q-2 51 37.5 74t97.5 23q33 0 63 -7q152 181 225 205q81 26 -132 -260zM218 210q28 -17 66 7q50 40 90 110q35 68 42 139q-22 -31 -49 -62z" />
    <glyph glyph-name="ugrave" unicode="&#xf9;" horiz-adv-x="822" 
d="M25 177q-95 0 -95 99q0 121 157 427q6 13 22 13q63 0 63 -50q0 -18 -11 -44q-4 -7 -105 -264q-16 -42 -16 -62q0 -22 20 -22q73 0 383 363q40 49 79 49q57 0 57 -42q0 -16 -35 -121q-48 -143 -48 -165q0 -33 22 -33q55 0 321 196q15 13 26 13q25 0 25 -42q0 -11 -7 -18
q-141 -121 -240 -184q-90 -58 -160 -58h-14q-103 22 -103 161q-110 -97 -182.5 -156.5t-158.5 -59.5zM333 947v0q7 -11 13 -19q22 -33 42 -68.5t29 -74.5q4 -14 3 -26t-14 -21q-11 -15 -31 6t-46 60q-31 44 -64 80q-13 13 -24 28.5t-8 28.5t36 20q5 2 11 2h5q15 2 27 -1.5
t21 -14.5z" />
    <glyph glyph-name="uacute" unicode="&#xfa;" horiz-adv-x="822" 
d="M25 177q-95 0 -95 99q0 121 157 427q6 13 22 13q63 0 63 -50q0 -18 -11 -44q-4 -7 -105 -264q-16 -42 -16 -62q0 -22 20 -22q73 0 383 363q40 49 79 49q57 0 57 -42q0 -16 -35 -121q-48 -143 -48 -165q0 -33 22 -33q55 0 321 196q15 13 26 13q25 0 25 -42q0 -11 -7 -18
q-141 -121 -240 -184q-90 -58 -160 -58h-14q-103 22 -103 161q-110 -97 -182.5 -156.5t-158.5 -59.5zM406 936q6 11 19.5 14.5t26.5 3.5q4 -2 6 -2q5 0 11 -2q33 -7 36.5 -20t-7.5 -28.5t-24 -28.5q-33 -36 -64 -80q-26 -37 -47 -59t-32 -7q-11 9 -12 21t3 26
q9 39 28.5 74.5t41.5 68.5q7 8 14 19v0z" />
    <glyph glyph-name="ucircumflex" unicode="&#xfb;" horiz-adv-x="822" 
d="M25 177q-95 0 -95 99q0 121 157 427q6 13 22 13q63 0 63 -50q0 -18 -11 -44q-4 -7 -105 -264q-16 -42 -16 -62q0 -22 20 -22q73 0 383 363q40 49 79 49q57 0 57 -42q0 -16 -35 -121q-48 -143 -48 -165q0 -33 22 -33q55 0 321 196q15 13 26 13q25 0 25 -42q0 -11 -7 -18
q-141 -121 -240 -184q-90 -58 -160 -58h-14q-103 22 -103 161q-110 -97 -182.5 -156.5t-158.5 -59.5zM476 925v0q29 -59 57 -118q7 -18 16 -36q4 -8 4 -15v-4q0 -25 -20 -29q-35 -9 -61 18q-9 13 -15.5 29.5t-11.5 36.5q-4 26 -13 46q-9 13 -22 16.5t-22 -7.5t-21 -27.5
t-23 -34.5q-9 -13 -13 -22q-31 -42 -51 -42t-24 21t11 47q11 18 24 36q29 48 64 92q26 35 62.5 33t58.5 -40z" />
    <glyph glyph-name="udieresis" unicode="&#xfc;" horiz-adv-x="822" 
d="M25 177q-95 0 -95 99q0 121 157 427q6 13 22 13q63 0 63 -50q0 -18 -11 -44q-4 -7 -105 -264q-16 -42 -16 -62q0 -22 20 -22q73 0 383 363q40 49 79 49q57 0 57 -42q0 -16 -35 -121q-48 -143 -48 -165q0 -33 22 -33q55 0 321 196q15 13 26 13q25 0 25 -42q0 -11 -7 -18
q-141 -121 -240 -184q-90 -58 -160 -58h-14q-103 22 -103 161q-110 -97 -182.5 -156.5t-158.5 -59.5zM553 877v0q9 -4 13 -11q11 -18 9 -43t-15.5 -47t-32.5 -27q-31 -6 -50 8t-14 47v9q0 9 2 18q4 35 29.5 48t58.5 -2zM333 877v0q24 0 40.5 -12t16.5 -30q-6 -72 -68 -72
q-51 6 -46 61q4 51 57 53z" />
    <glyph glyph-name="yacute" unicode="&#xfd;" horiz-adv-x="728" 
d="M742 443.5q-56 -52.5 -197 -127.5q-53 -22 -77 -35t-35 -33t-24 -62q-11 -31 -29 -83q-24 -64 -48 -132q-44 -139 -104.5 -274.5t-156.5 -236.5t-247 -134q-152 -29 -294 -9t-278 79q-55 25 -99 66q-73 75 -11 168q33 46 77 83q88 71 184 130q179 108 366 198t378 174
q13 6 29 13q52 24 107 48q38 14 51 51q4 13 2 24q-2 7 -7.5 8t-12.5 -3q-19 -11 -39 -25q-11 -6 -24 -15q-69 -40 -143 -35q-117 0 -119 105q-2 86 29.5 163t89.5 145q6 7 17 11.5t22 6.5q2 0 5 2q22 2 34 -11t5 -33q-13 -28 -26 -57l-22 -44q-44 -86 -40 -180
q2 -20 17.5 -29t35.5 0q59 24 103 68q119 108 196 249q11 20 25.5 34t38.5 16q31 3 47.5 -13.5t9.5 -43.5q-28 -90 -59 -178q-2 -7 -5 -13q-8 -20 -15 -42t-7 -38.5t14 -16.5q55 11 160.5 88t118.5 51.5t-43 -78zM261 120v0q0 5 3 9q6 11 7 24t-7 27h-11q-14 -3 -25 -7
q-22 -9 -44 -20q-176 -81 -352 -167t-345 -183q-103 -59 -194 -138q-74 -66 -71 -115.5t87 -89.5q191 -99 411 -81q150 15 243.5 113t153 234.5t103.5 272.5q19 64 41 121zM453 958q6 11 19.5 14.5t26.5 3.5q4 -2 7 -2q4 0 11 -2q33 -7 36 -20t-8 -28.5t-24 -28.5
q-33 -36 -64 -80q-26 -37 -47 -59t-32 -7q-11 9 -12 21t3 26q9 39 29 74.5t42 68.5q6 8 13 19v0z" />
    <glyph glyph-name="thorn" unicode="&#xfe;" horiz-adv-x="871" 
d="M1074 1143v0q171 -132 -5 -350q-130 -154 -308 -242q-70 -35 -143 -61q-64 -22 -86 -86q-72 -216 -151 -431q-38 -104 -80 -205q-30 -68 -96 -57q-53 4 -36 73q11 30 22 63q5 14 9 25l44 132q55 156 108 314q9 29 18 60l8 30q-35 7 -66 0q-17 -2 -32.5 -2t-26.5 9
q-7 4 -11 11t-4 15q2 9 8.5 18t13.5 15q17 11 33.5 16.5t34.5 8.5q11 2 24 4q59 11 79 70q35 124 71 247q44 149 85 301q9 31 1.5 42t-36.5 15q-17 5 -39 5q-38 -2 -66 15q-7 5 -10.5 13.5t-0.5 15.5v0q2 9 12 17.5t16 10.5q44 7 88 7q7 0 16 2q37 0 51.5 11t22.5 49
q42 165 82 330q6 26 13 52q7 27 11 51q7 33 15 64q20 70 88 75h9h2q60 0 53 -62q-13 -101 -36 -202.5t-52 -204.5q-17 -70 -33 -139q-11 -44 31 -52q53 -11 103 -27q82 -22 146 -66zM950 875v0q73 116 -6 189q-60 51 -143 70q-44 9 -60 -41q-19 -73 -44 -157
q-11 -35 -22 -74q-2 -3 -4 -8.5t-4 -13.5q-3 -9 -7 -20q-26 -90 -51 -183q-4 -13 1.5 -23t23.5 -3q96 44 176.5 109t139.5 155zM675 862v0v-3v3z" />
    <glyph glyph-name="ydieresis" unicode="&#xff;" horiz-adv-x="728" 
d="M742 443.5q-56 -52.5 -197 -127.5q-53 -22 -77 -35t-35 -33t-24 -62q-11 -31 -29 -83q-24 -64 -48 -132q-44 -139 -104.5 -274.5t-156.5 -236.5t-247 -134q-152 -29 -294 -9t-278 79q-55 25 -99 66q-73 75 -11 168q33 46 77 83q88 71 184 130q179 108 366 198t378 174
q13 6 29 13q52 24 107 48q38 14 51 51q4 13 2 24q-2 7 -7.5 8t-12.5 -3q-19 -11 -39 -25q-11 -6 -24 -15q-69 -40 -143 -35q-117 0 -119 105q-2 86 29.5 163t89.5 145q6 7 17 11.5t22 6.5q2 0 5 2q22 2 34 -11t5 -33q-13 -28 -26 -57l-22 -44q-44 -86 -40 -180
q2 -20 17.5 -29t35.5 0q59 24 103 68q119 108 196 249q11 20 25.5 34t38.5 16q31 3 47.5 -13.5t9.5 -43.5q-28 -90 -59 -178q-2 -7 -5 -13q-8 -20 -15 -42t-7 -38.5t14 -16.5q55 11 160.5 88t118.5 51.5t-43 -78zM261 120v0q0 5 3 9q6 11 7 24t-7 27h-11q-14 -3 -25 -7
q-22 -9 -44 -20q-176 -81 -352 -167t-345 -183q-103 -59 -194 -138q-74 -66 -71 -115.5t87 -89.5q191 -99 411 -81q150 15 243.5 113t153 234.5t103.5 272.5q19 64 41 121zM541 870v0q9 -4 13 -11q11 -17 9 -42.5t-15.5 -47.5t-33.5 -26q-30 -7 -49 7.5t-14 47.5v9q0 8 2 17
q4 35 29.5 48.5t58.5 -2.5zM321 870v0q24 0 40.5 -12t16.5 -29q-7 -73 -68 -73q-51 7 -46 62q4 50 57 52z" />
    <glyph glyph-name="Lslash" unicode="&#x141;" horiz-adv-x="1851" 
d="M244 -623v0q168 68 278 215q-181 -13 -322 -112q-44 -33 -51.5 -64t18 -45t77.5 6zM1582 815l-66 -114q-277 -464 -570 -840q-61 -77 -37 -89.5t94 1.5l31 4q550 62 1141 37.5t1165 -103.5q202 -29 396 -66q114 -22 224 -42h7q15 -2 29.5 -6.5t25.5 -17.5q4 -4 6.5 -11
t-0.5 -13q-2 -7 -7.5 -12.5t-9.5 -5.5q-27 -4 -55 0q-671 139 -1487.5 179.5t-1506.5 -29.5q-31 -2 -60 -7q-26 -2 -50 -4q-77 -11 -132 -68q-124 -135 -273 -238q-117 -79 -258 -88q-57 -4 -110 18q-50 22 -64.5 66t12.5 94q44 71 145 121.5t215.5 82.5t193.5 47
q106 20 172 103q319 388 613 878q16 27 31 51q-90 -33 -185 -64q-66 -22 -128.5 -36.5t-108.5 -7.5q-13 40 62.5 76t265.5 122q105 46 195 84q220 385 412 785q248 519 427 994q6 25 20.5 43.5t42.5 25.5q27 4 46.5 -10.5t15.5 -40.5q-9 -62 -31 -121q-171 -451 -405 -939
q-162 -337 -343 -660q381 154 407 125q5 -7 11 -15l5 -5q2 -20 -13.5 -43t-70.5 -49l-101 -44q-163 -75 -335 -145q-2 -3 -4 -3z" />
    <glyph glyph-name="lslash" unicode="&#x142;" horiz-adv-x="499" 
d="M246 787q-145 -376 -136 -429q15 -99 126.5 -49.5t172 101t75.5 67.5q33 33 55 37t28.5 -7t-8.5 -30q-88 -106 -197 -183t-224.5 -89t-139.5 126q-13 108 99 396q-71 -26 -145 -50q-47 -16 -89.5 -25.5t-73.5 -5.5q-11 26 41.5 51.5t182.5 84.5q68 29 128 55l24 53
q183 420 290 689q9 24 27 42q24 24 57 11q11 -5 22 -16t7 -39q-172 -407 -280 -680q247 99 264 81q5 -4 9 -11q0 -2 2 -4q2 -13 -7.5 -28.5t-49.5 -33.5q-33 -15 -68 -31q-95 -41 -192 -83z" />
    <glyph glyph-name="Nacute" unicode="&#x143;" horiz-adv-x="1450" 
d="M5582 2617v0q-26 -6 -47 1.5t-39 18.5q-9 4 -15 9q-255 138 -541 207q-744 178 -1516 -148q-282 -119 -540.5 -286t-504.5 -365q-396 -321 -729.5 -703t-614.5 -815q-102 -154 -196 -312q-2 -5 -5 -9q-72 -112 -118 -238q-22 -59 -55 -112q-40 -70 -110 -53q-40 9 -33 51
q4 31 19 59q75 148 132.5 299.5t107.5 305.5q13 40 27 77q301 882 558 1776q5 19 7 39q0 9 2 20q-24 -2 -37 -15.5t-22 -30.5q-2 -7 -7 -13q-15 -22 -28 -47q-146 -228 -291 -459q-226 -370 -453 -740q-328 -534 -660 -1071q-73 -119 -154 -231q-20 -29 -37 -55
q-31 -51 -86 -62q-16 -2 -29 1.5t-17 16.5q-5 9 -0.5 21t11.5 21q792 1296 1588 2589q73 115 154 225q18 24 33 48q46 68 121 88q46 9 72.5 -13t24.5 -71q-13 -143 -57 -283q-218 -753 -467 -1496q-2 -9 -6 -16q-9 -22 -12.5 -44t9.5 -48q18 24 36 46q37 46 70 92
q392 555 893 1006q288 259 597.5 478t650.5 375q704 315 1414 234q449 -55 836 -260q9 -4 20 -9q20 -9 37.5 -20t28.5 -33q2 -4 2 -11.5t-2 -14.5q-4 -7 -9.5 -12.5t-12.5 -7.5zM2216 2866q11 17 29.5 21.5t40.5 2.5h7q9 -2 18 -2q46 -11 50.5 -31t-11 -42t-35.5 -39
q-46 -51 -92 -117q-38 -55 -67.5 -87t-45.5 -8q-17 14 -18 31.5t3 37.5q15 57 42.5 106.5t60.5 97.5q9 16 18 29v0z" />
    <glyph glyph-name="nacute" unicode="&#x144;" horiz-adv-x="733" 
d="M752 426q-56 -53 -119 -89t-146 -72q-55 -24 -117 -16t-62 75t31 133q31 68 13.5 70t-72.5 -33q-143 -94 -266 -215q-33 -40 -84 -44q-26 0 -40.5 16.5t-3.5 35.5q88 163 178 322q20 33 60 41q17 3 31.5 -10.5t14.5 -30.5q-2 -16 -13 -38q-5 -13 -9.5 -25t-3 -20t12.5 -5
q15 8 30 17q38 22 73 42q31 18 65 32t71 19q60 4 85 -27t6 -86q-20 -50 -42 -99q-27 -46 -9 -70t167 55l75 44q106 68 114 51q16 -20 -40 -73zM359 1005q11 17 29.5 21.5t40.5 2.5h7q9 -2 18 -2q46 -11 50.5 -31t-11 -42t-35.5 -40q-46 -50 -92 -116q-38 -55 -67.5 -87
t-45.5 -8q-17 13 -18 31t3 37q15 58 42.5 107.5t60.5 97.5q9 15 18 29v0z" />
    <glyph glyph-name="Ohungarumlaut" unicode="&#x150;" horiz-adv-x="3162" 
d="M2191 3477v0q407 51 668 -52.5t390.5 -326.5t148.5 -530t-58 -662.5t-231 -721.5t-366.5 -709.5t-467.5 -626t-535 -469.5q-132 -88 -273.5 -160.5t-295.5 -116.5q-185 -58 -374 -58q-102 -2 -203 20q-268 60 -420 291q-134 213 -154 466q-20 235 13 464t106 453
q171 531 453 1010q64 104 55 229q-15 301 118 558.5t365 455.5t510.5 323.5t550.5 162.5zM1523 -637v0q301 183 567 461.5t483 616t371 699.5t233 711.5t71.5 652t-115.5 524t-328 323.5t-565 49q-299 -46 -583 -188t-499.5 -367.5t-310.5 -522.5q-2 -4 -2 -8
q-15 -47 -26 -97.5t-9 -105.5q28 20 42 44q4 7 8 16l88 118q69 95 141 190q238 310 539 561q64 50 132 99q40 28 88 26q20 2 42 -4q13 -5 20 -16q6 -9 3 -17.5t-12 -13.5q-112 -68 -209 -156t-187 -182q-172 -174 -319 -366.5t-279 -395.5q-27 -39 -51 -79q-9 -15 -20 -28
q-24 -40 -11 -86q55 -220 235.5 -361t407.5 -150q59 0 118 14q383 88 531 453q22 55 35 114q6 29 15 55q18 53 60 44q13 5 28 0q22 -9 27.5 -25.5t1.5 -35.5q0 -5 -2 -7v-7q-58 -277 -246 -454t-467 -210q-66 -7 -128 -7q-224 -2 -402.5 96t-303.5 303q-4 4 -7 8
q-6 18 -22 29q-2 -4 -6 -9q-11 -17 -22 -37q-24 -44 -46 -88q-66 -119 -124 -240q-110 -235 -195.5 -478.5t-129.5 -500.5q-22 -139 -28.5 -278.5t15.5 -280.5q19 -112 56.5 -215.5t103.5 -195.5q159 -214 420 -238q31 -2 62 -2q66 0 134 13q154 31 297 91.5t280 141.5z
M2601 3942q35 57 85.5 40.5t58 -35.5t-6.5 -43t-32 -44q-42 -55 -81 -123q-90 -143 -123 -133t-33 65q39 88 63.5 139.5t50.5 102.5q9 15 18 31v0zM2770 3902q42 55 90.5 33t54 -42t-11 -42t-36.5 -39q-46 -51 -90 -117q-106 -134 -137 -121t-26 68q48 84 75.5 133.5
t60.5 97.5q9 16 20 29v0z" />
    <glyph glyph-name="ohungarumlaut" unicode="&#x151;" horiz-adv-x="530" 
d="M159 237v0h-3q-145 2 -191 64.5t4 166.5q42 79 106 138q22 20 45 32t52 12q17 3 39 -6q7 -2 14 -5q17 3 33 11q4 3 11 5q33 13 70 11h31q59 -9 89 -49.5t21 -98.5q-5 -35 -22 -66q-115 -206 -293 -215h-6zM317 595v0q-79 3 -140.5 -45.5t-91.5 -111.5t-16.5 -103.5
t83.5 -22.5q79 24 139.5 90t74 125.5t-48.5 67.5zM291 1009q26 42 62.5 30t40.5 -26.5t-5.5 -31t-20.5 -31.5q-31 -40 -60 -88q-66 -104 -89 -96t-23 47q29 62 45.5 100.5t38.5 73.5q4 11 11 22v0zM412 980q30 40 65.5 24.5t38.5 -29.5t-8 -30.5t-26 -30.5q-33 -35 -64 -81
q-75 -97 -98 -88t-21 48q36 60 55.5 96t43.5 72q7 8 14 19v0z" />
    <glyph glyph-name="OE" unicode="&#x152;" horiz-adv-x="6206" 
d="M1523 -637v0q301 183 567 461.5t483 616t371 699.5t233 711.5t71.5 652t-115.5 524t-328 323.5t-565 49q-299 -46 -583 -188t-499.5 -367.5t-310.5 -522.5q-2 -4 -2 -8q-15 -47 -26 -97.5t-9 -105.5q28 20 42 44q4 7 8 16l88 118q69 95 141 190q238 310 539 561
q64 50 132 99q40 28 88 26q20 2 42 -4q13 -5 20 -16q6 -9 3 -17.5t-12 -13.5q-112 -68 -209 -156t-187 -182q-172 -174 -319 -366.5t-279 -395.5q-27 -39 -51 -79q-9 -15 -20 -28q-24 -40 -11 -86q55 -220 235.5 -361t407.5 -150q59 0 118 14q383 88 531 453q22 55 35 114
q6 29 15 55q18 53 60 44q13 5 28 0q22 -9 27.5 -25.5t1.5 -35.5q0 -5 -2 -7v-7q-58 -277 -246 -454t-467 -210q-66 -7 -128 -7q-224 -2 -402.5 96t-303.5 303q-4 4 -7 8q-6 18 -22 29q-2 -4 -6 -9q-11 -17 -22 -37q-24 -44 -46 -88q-66 -119 -124 -240
q-110 -235 -195.5 -478.5t-129.5 -500.5q-22 -139 -28.5 -278.5t15.5 -280.5q19 -112 56.5 -215.5t103.5 -195.5q159 -214 420 -238q31 -2 62 -2q66 0 134 13q154 31 297 91.5t280 141.5zM5711 609v0v0l7 -3v0zM4798 199v0q-50 -26 6 -6t171.5 67t248.5 103t236.5 100
t132.5 60q41 20 81 42q4 2 9 4q9 4 11 12t2 14q-15 -6 -31 -11q-9 0 -15 -2q-295 -97 -572 -235q-106 -53 -209 -110q-35 -20 -71 -38zM3910 -285v0h2v0h-2v0v0zM3910 -280v0v0q4 -2 5 -2t1 1t-1 2t-2 0t-3 -1zM2141 -291q-194 -192 -401 -330q-132 -88 -273.5 -160.5
t-295.5 -116.5q-185 -58 -374 -58q-102 -2 -203 20q-268 60 -420 291q-134 213 -154 466q-20 235 13 464t106 453q171 531 453 1010q64 104 55 229q-15 301 118 558.5t365 455.5t510.5 323.5t550.5 162.5q407 51 668 -52.5t390.5 -326.5t149.5 -529q16 -262 -37 -557
q55 51 116 99q495 392 1050.5 659t1176.5 399q299 62 605 62h42q169 -2 328.5 -43t311.5 -111q77 -33 136 -92q35 -31 44 -77q2 -16 -9 -28t-26 -12h-26q-36 -2 -58 22q-61 75 -142.5 115.5t-169.5 71.5l-13 4q-222 80 -449 77q-121 0 -242 -17q-460 -62 -886.5 -217
t-827.5 -379q-226 -126 -438.5 -272t-406.5 -322q-99 -86 -173 -192q-42 -158 -97 -319q15 -105 108 -180q85 -66 189 -101q200 -71 409 -95q165 -22 332 -33l106 -4q180 0 358 59q201 68 412 84h2q31 2 62 2q19 0 37 -2q29 -3 48.5 -17t19.5 -30q0 -22 -13 -35t-31 -20
q-48 -24 -97 -35q-125 -28 -250 -48q-95 -18 -190 -22q-81 0 -158 -20t-152 -46q-378 -130 -743.5 -289.5t-710.5 -364.5q-130 -74 -253 -159t-235 -184q-49 -44 -91 -90q-30 -33 -52 -73q-47 -79 -25 -135t110 -76q75 -15 152 -17q18 0 38 2q169 13 335 46t329 77
q455 128 898 290q72 29 134 75q466 315 985 535q218 90 447 152q97 30 198 30q15 3 29 0q37 0 74 -13q27 -11 14 -39q-20 -33 -58 -49q-334 -165 -674 -321t-687 -293q-47 -17 -93 -37q-101 -40 -204 -77q-66 -24 -124 -66q-182 -130 -355 -270.5t-331 -301.5l-7 -7
q-11 -13 -24 -21.5t-31 -6.5h-8q-9 -2 -18 0q-9 0 -19 3t-14 8q-4 6 -4 17t2 18q17 29 39 51q216 209 456 391q9 7 22 9q4 2 9 2q-18 11 -33 13q-22 -2 -44 -11q-3 0 -7 -2q-40 -11 -77 -24q-163 -53 -326 -99q-88 -24 -243 -60.5t-336.5 -65t-344 -28.5t-266.5 48
q-141 77 -92 225zM3137 1255q-13 -35 -28 -70q-154 -367 -365 -711q-146 -233 -311 -440l3 3q169 129 352.5 239t375.5 207q466 240 959 416q42 13 81 31l3 2q2 0 4 7l4 8q-46 14 -92 14q-20 0 -42 2q-39 4 -81 9q-29 4 -57 6q-256 27 -500 101q-123 36 -229 108
q-44 33 -77 68z" />
    <glyph glyph-name="oe" unicode="&#x153;" horiz-adv-x="966" 
d="M317 595v0q-79 3 -140.5 -45.5t-91.5 -111.5t-16.5 -103.5t83.5 -22.5q79 24 139.5 90t74 125.5t-48.5 67.5zM548 554q-7 -7 -9 -16t7 -15q35 -20 75.5 -14.5t69.5 31t24 62.5q-2 13 -13 16.5t-22 1.5q-75 -14 -132 -66zM359 323q-84 -82 -194 -86h-9q-145 2 -191 64.5
t4 166.5q42 79 106 138q22 20 45 32t52 12q17 3 39 -6l14 -5q17 3 33 11l11 5q33 13 70 11h31q59 -9 90 -49q4 -6 7 -13q15 11 33 22q105 66 220 64h2q28 2 55 -4q44 -16 56 -52t-17 -80q-63 -97 -173 -108q-73 -7 -141 6q-13 3 -23 -6t-12 -22q-20 -86 52 -110
q91 -31 187 0q113 35 214 132t116.5 90t8.5 -37q-13 -49 -71.5 -106t-135.5 -98t-128.5 -53t-106.5 -14q-88 -4 -163 24q-59 24 -81 71z" />
    <glyph glyph-name="Sacute" unicode="&#x15a;" horiz-adv-x="1474" 
d="M5166 2886v0q26 -22 47 -49.5t27 -65.5q7 -42 -30 -64q-22 -11 -43 -3t-30 32q-24 66 -72.5 104.5t-105.5 67.5q-126 66 -260 107.5t-270 72.5q-227 48 -604.5 62.5t-840.5 -11t-948 -99t-928.5 -202t-779 -320t-500.5 -451.5q-138 -226 -55 -477q60 -172 172 -313
q167 -211 370 -387q171 -156 345 -312q169 -150 339 -304q189 -174 372 -352q17 -17 35 -33q99 -92 174 -204q77 -128 29.5 -198.5t-180.5 -95.5t-309 -15.5t-354.5 44t-317 82.5t-195.5 99q-114 106 -15 224q107 121 261 176q223 86 451 14q44 -16 84 -42q4 -2 7 -5
q11 -6 15 -18t-4 -26q-18 -22 -44 -13q-25 9 -47 22q-158 79 -325 33t-282 -182q-50 -66 -5 -115.5t137.5 -84t186 -54t139.5 -26.5q9 0 13 -2q9 0 22 -2q59 -13 161.5 -27.5t211.5 -20t187 14.5t88 77t-87 169q-103 119 -218 231q-286 277 -587 537l-216 194
q-180 162 -354 332q-161 156 -284 343q-88 136 -123 293q-53 257 95 475q162 244 470 432t714 321t865 215.5t927.5 117t898.5 23.5t778.5 -65t571.5 -149q118 -46 220 -127zM2163 3612q11 17 29.5 21.5t40.5 2.5h7q8 -2 17 -2q46 -11 50.5 -31t-11 -42t-34.5 -40
q-47 -50 -93 -116q-37 -55 -67 -87t-45 -8q-18 13 -19 31t4 37q15 58 42.5 107.5t60.5 97.5q9 15 18 29v0z" />
    <glyph glyph-name="sacute" unicode="&#x15b;" horiz-adv-x="443" 
d="M484 507q-158 -59 -228 -96q-51 -25 -58.5 -41.5t11.5 -60.5q0 -2 3 -6q22 -53 26 -110q7 -115 -195.5 -161t-271 -3t-42 109t137.5 134t148.5 98t22.5 67q-5 13 -11 26q-13 31 -27 64q-26 60 -22.5 118t43 97.5t122.5 42.5q47 2 84 -12.5t59 -53.5q18 -27 -11 -49
q-19 -15 -41 -4q-14 6 -27 17v3q-6 4 -11 8q-6 9 -13 14q-26 19 -52.5 11.5t-39.5 -40.5q-9 -26 -9 -53q2 -33 15 -64q9 -19 16 -35q17 -44 28 -60.5t26.5 -14t283.5 101.5q58 19 33 -47zM51 125v0q70 24 59 94q0 5 -2 11q-4 38 -16 58.5t-54 -1.5q-104 -59 -192 -138
q-6 -7 -11 -13l-2 -3q-6 -8 -2 -18t18 -10q103 -16 202 20zM249 1198q11 18 29.5 22.5t40.5 1.5h7q9 -2 18 -2q46 -11 50.5 -30.5t-11 -41.5t-35.5 -40q-46 -51 -92 -117q-38 -55 -67.5 -86.5t-45.5 -7.5q-17 13 -18 30.5t3 37.5q15 57 42.5 106.5t60.5 98.5q9 15 18 28v0z
" />
    <glyph glyph-name="Scaron" unicode="&#x160;" horiz-adv-x="1474" 
d="M5166 2886v0q26 -22 47 -49.5t27 -65.5q7 -42 -30 -64q-22 -11 -43 -3t-30 32q-24 66 -72.5 104.5t-105.5 67.5q-126 66 -260 107.5t-270 72.5q-227 48 -604.5 62.5t-840.5 -11t-948 -99t-928.5 -202t-779 -320t-500.5 -451.5q-138 -226 -55 -477q60 -172 172 -313
q167 -211 370 -387q171 -156 345 -312q169 -150 339 -304q189 -174 372 -352q17 -17 35 -33q99 -92 174 -204q77 -128 29.5 -198.5t-180.5 -95.5t-309 -15.5t-354.5 44t-317 82.5t-195.5 99q-114 106 -15 224q107 121 261 176q223 86 451 14q44 -16 84 -42q4 -2 7 -5
q11 -6 15 -18t-4 -26q-18 -22 -44 -13q-25 9 -47 22q-158 79 -325 33t-282 -182q-50 -66 -5 -115.5t137.5 -84t186 -54t139.5 -26.5q9 0 13 -2q9 0 22 -2q59 -13 161.5 -27.5t211.5 -20t187 14.5t88 77t-87 169q-103 119 -218 231q-286 277 -587 537l-216 194
q-180 162 -354 332q-161 156 -284 343q-88 136 -123 293q-53 257 95 475q162 244 470 432t714 321t865 215.5t927.5 117t898.5 23.5t778.5 -65t571.5 -149q118 -46 220 -127zM2563 3405v0q-44 86 -81 171q-14 27 -25 53q-4 11 -6 20q0 4 -2 7q2 37 33 41q50 14 85 -26
q16 -18 23.5 -42t14.5 -50q9 -38 22 -66q11 -22 30.5 -27.5t33.5 11.5q11 16 27.5 41t33.5 47q13 20 20 33q44 60 72.5 61t35 -30t-15.5 -68q-17 -24 -33 -51q-44 -70 -92 -136q-40 -49 -93.5 -45.5t-82.5 56.5z" />
    <glyph glyph-name="scaron" unicode="&#x161;" horiz-adv-x="443" 
d="M484 507q-158 -59 -228 -96q-51 -25 -58.5 -41.5t11.5 -60.5q0 -2 3 -6q22 -53 26 -110q7 -115 -195.5 -161t-271 -3t-42 109t137.5 134t148.5 98t22.5 67q-5 13 -11 26q-13 31 -27 64q-26 60 -22.5 118t43 97.5t122.5 42.5q47 2 84 -12.5t59 -53.5q18 -27 -11 -49
q-19 -15 -41 -4q-14 6 -27 17v3q-6 4 -11 8q-6 9 -13 14q-26 19 -52.5 11.5t-39.5 -40.5q-9 -26 -9 -53q2 -33 15 -64q9 -19 16 -35q17 -44 28 -60.5t26.5 -14t283.5 101.5q58 19 33 -47zM51 125v0q70 24 59 94q0 5 -2 11q-4 38 -16 58.5t-54 -1.5q-104 -59 -192 -138
q-6 -7 -11 -13l-2 -3q-6 -8 -2 -18t18 -10q103 -16 202 20zM130 892v0q-44 86 -81 172q-13 26 -24 53q-5 11 -7 20q0 4 -2 6q2 38 33 42q50 13 86 -26q15 -18 22.5 -42t14.5 -51q9 -37 22 -66q11 -22 31 -27.5t33 12.5q11 15 27.5 40.5t33.5 47.5q14 20 20 33q44 59 72.5 60
t35.5 -29.5t-15 -68.5q-18 -24 -33 -50q-44 -71 -93 -137q-39 -48 -93 -44.5t-83 55.5z" />
    <glyph glyph-name="Uhungarumlaut" unicode="&#x170;" horiz-adv-x="3614" 
d="M3786 1656v0q123 17 79 -101q-39 -91 -83 -181q-187 -389 -349 -786t-311 -798q-33 -92 -71 -185q-17 -35 -53 -28q-39 6 -35 44q20 94 46 189q106 348 242.5 687.5t288.5 674.5l48 110q0 2 -2 6q-2 5 -5 9q-46 -31 -79 -75q-11 -13 -20 -26q-213 -242 -523 -574
t-659 -672t-679 -609.5t-581 -386.5q-72 -33 -151 -33q-161 -2 -194 150q-18 99 -2 202q15 110 45 217t65 212q94 284 259 648t355 762q182 379 350.5 747.5t283 684t138.5 537.5q9 64 -2 126q-22 116 -146 90q-90 -22 -173.5 -62.5t-164.5 -89.5q-198 -119 -450 -309
t-516 -427.5t-496 -498.5t-387.5 -519.5t-190.5 -491.5q-9 -64 -9 -128q-2 -231 187 -349q86 -51 180.5 -79.5t193.5 -44.5q183 -28 372 -33q93 -2 183 -8q86 -5 66 -31q-13 -20 -31 -24.5t-35 -2.5h-5q-195 -2 -386.5 12.5t-378.5 58.5q-97 26 -185 66q-319 156 -275 528
q31 248 185 517.5t385 536t495 507.5t517 433.5t451 315.5q143 90 295 156q105 46 215 55q247 13 255 -231q-2 -189 -122 -527t-305.5 -754.5t-388.5 -843.5q-191 -412 -351.5 -771.5t-242.5 -605.5q-61 -181 -92 -366q-18 -96 -5 -191q22 -128 148 -70q248 112 601.5 413.5
t739.5 690.5t730 764.5t571 632.5q46 48 95 97q30 26 70 33zM2770 1962q35 57 85.5 40.5t58 -35.5t-6.5 -43t-32 -44q-42 -55 -81 -123q-90 -143 -123 -133t-33 65q39 88 63.5 139.5t50.5 102.5q9 15 18 31v0zM2939 1922q42 55 90.5 33t54 -42t-11 -42t-36.5 -39
q-46 -51 -90 -117q-106 -134 -137 -121t-26 68q48 84 75.5 133.5t60.5 97.5q9 16 20 29v0z" />
    <glyph glyph-name="uhungarumlaut" unicode="&#x171;" horiz-adv-x="822" 
d="M25 177q-95 0 -95 99q0 121 157 427q6 13 22 13q63 0 63 -50q0 -18 -11 -44q-4 -7 -105 -264q-16 -42 -16 -62q0 -22 20 -22q73 0 383 363q40 49 79 49q57 0 57 -42q0 -16 -35 -121q-48 -143 -48 -165q0 -33 22 -33q55 0 321 196q15 13 26 13q25 0 25 -42q0 -11 -7 -18
q-141 -121 -240 -184q-90 -58 -160 -58h-14q-103 22 -103 161q-110 -97 -182.5 -156.5t-158.5 -59.5zM388 1057q31 47 71.5 33.5t46 -29t-5.5 -35t-26 -35.5q-33 -44 -64 -99q-75 -116 -101.5 -108.5t-26.5 51.5q33 73 52 114.5t41 83.5q6 11 13 24v0zM524 1024
q36 44 75.5 27.5t42.5 -33t-10 -34t-28 -32.5q-38 -42 -73 -93q-84 -110 -109 -99t-23 55q40 66 63 107t47 80q9 11 15 22v0z" />
    <glyph glyph-name="Ydieresis" unicode="&#x178;" horiz-adv-x="4174" 
d="M4545 2188v0q51 7 78.5 -20.5t16.5 -76.5q-22 -85 -60 -167q-134 -310 -290 -609q-330 -627 -691 -1239q-17 -26 -33 -55q-6 -11 -13 -22q-13 -13 -19.5 -27.5t-0.5 -27.5q11 -17 27.5 -17t34.5 6q15 7 31 7q13 2 28 2q24 4 48.5 3t46.5 -16q9 -5 14.5 -11.5t0.5 -19.5
q-2 -9 -8.5 -16.5t-15.5 -5.5q-90 7 -178 -7q-104 -15 -159 -110q-294 -473 -675 -880q-108 -118 -224.5 -226t-252.5 -196q-117 -77 -251 -123q-79 -24 -161 -24h-2q-26 0 -51 2q-96 9 -147 68t-44 154q11 117 70 218q108 189 267 341q266 262 577 450t670 293
q145 38 222 170q218 372 429 747t405 760q62 121 121 246q11 27 24 53q31 64 30 80.5t-22 2t-49.5 -43t-52.5 -54.5q-18 -18 -27 -29q-576 -590 -1236 -1087q-134 -103 -277 -192t-300 -160q-88 -37 -180 -59t-191 -20q-236 11 -247 249q-4 136 40 264q103 323 259 622
q148 280 297 555q55 99 108 200q156 277 282 572q35 81 59 167q18 68 18 139q0 101 -101 129q-58 18 -114 18t-115 -9q-273 -39 -528 -143q-827 -317 -1474 -917q-152 -141 -273 -305t-202 -353q-55 -125 -86 -254t-27 -267q5 -115 41 -219.5t113 -177t203 -92.5
q9 -2 14.5 -9.5t0.5 -18.5q-2 -7 -6.5 -11.5t-8.5 -6.5q-82 -22 -161 13q-136 60 -211 170t-97 246t-2 275q29 194 103.5 367.5t186.5 334.5q121 169 267.5 315.5t311.5 273.5q268 207 559.5 377.5t608.5 298.5q154 61 312.5 108.5t323.5 69.5q79 11 159.5 12t157.5 -19
q218 -55 182 -275q-26 -145 -88 -279q-123 -282 -270 -550q-68 -125 -137 -251q-138 -255 -275 -512q-154 -295 -253 -614q-17 -57 -30.5 -116.5t-8.5 -121.5q4 -44 17 -86q29 -81 115 -85q64 -5 125 15q119 33 225.5 88t210.5 123q207 132 399.5 284t379.5 312
q490 421 926 896q48 53 101 99q33 31 79 37zM3210 -293v0q4 4 9 8q8 11 12.5 22t-4.5 22q-11 11 -24 9t-26 -9q-5 -2 -11 -2q-31 -13 -62 -24q-4 -2 -9 -4q-316 -121 -587 -307t-506 -428q-95 -95 -167 -209q-57 -86 -88 -183q-22 -61 -7 -125q22 -84 121 -86q90 15 183 66
q101 53 189 120t169 144q271 255 495 550q124 163 240 332q38 51 73 104zM3784 2318v0q9 -4 15 -13q14 -20 10.5 -49.5t-19 -55t-37.5 -29.5q-33 -9 -55 7.5t-17 55.5v9q0 11 2 22q6 40 35 55.5t66 -2.5zM3531 2316v0q29 0 47.5 -13.5t18.5 -32.5q-7 -84 -79 -84
q-57 7 -53 70q7 60 66 60z" />
    <glyph glyph-name="Zacute" unicode="&#x179;" horiz-adv-x="1197" 
d="M5676 -806v0q7 -7 7 -20v-6v-9q-5 -13 -16 -18.5t-24 -5.5q-6 0 -13 1t-11 3q-48 42 -105.5 57.5t-114.5 21.5q-35 5 -68 11q-753 148 -1514 229q-387 37 -776 64q-300 20 -601 26q-198 2 -394 11q-145 5 -292 0q-47 -2 -91 -2l-268 -4q-365 -5 -728 -18
q-313 -11 -624 -37.5t-619 -81.5q-209 -33 -409 -103q-7 -2 -16 -7q-22 -9 -45 -14.5t-49 -0.5q-29 4 -36 31q-2 8 1.5 18t9.5 17q40 33 82 61q380 269 743 561q638 502 1221 1065q363 350 735 687q238 215 473 435q115 108 227 220q15 16 28 29q7 4 11 9q11 11 21 23t10 29
q-22 18 -46 22.5t-51 4.5h-24q-277 20 -554 26.5t-557 -6.5q-235 -9 -470.5 -29t-468.5 -62l-22 -4q-42 -7 -81.5 -19t-74.5 -38q6 -44 32.5 -71.5t61.5 -49.5q18 -13 35 -27q99 -79 216 -132q4 -2 7.5 -8.5t5.5 -10.5q0 -14 -7.5 -18t-16.5 -7q-53 -11 -99 11
q-90 44 -172.5 98t-153.5 125q-114 114 36 173q81 33 169 51q128 29 257.5 44t259.5 29q13 0 26 2q335 31 670.5 33t669.5 -7q185 -6 370 -26q46 -5 88 4t77 44q9 11 25.5 16.5l31.5 10.5q7 2 11 4q20 4 34 -7t10 -35q-2 -24 3.5 -37t29.5 -16q11 -2 22 -2q46 -4 92 -15
q27 -7 25 -38q-3 -11 -10.5 -17.5t-16.5 -6.5q-50 -4 -101 -6h-88q-40 2 -60.5 -1.5t-37 -16.5t-45.5 -44l-57 -57q-280 -273 -570 -537q-97 -90 -194 -178q-424 -396 -847 -797q-550 -517 -1144 -979q-134 -105 -270 -209q-82 -63 -165 -125q-5 -4 -11 -9q-13 -9 -24 -20
t-11 -30q46 6 92 13q110 17 222 35q352 53 711 75q451 26 904 36t906 8q691 -5 1378 -66q1025 -93 2028 -315l18 -4q61 -11 118 -29q31 -11 53 -35zM1600 3000q11 18 29.5 22t40.5 2h7q8 -2 17 -2q46 -11 50.5 -31t-11 -42t-34.5 -39q-47 -51 -93 -117q-37 -55 -67 -87
t-45 -7q-18 13 -19 30.5t4 37.5q15 57 42.5 106.5t60.5 97.5q9 16 18 29v0z" />
    <glyph glyph-name="zacute" unicode="&#x17a;" horiz-adv-x="500" 
d="M149 400v0q-37 -27 -37 -38t24 -13t53 -2q9 2 15 2q95 -2 183 -26q26 -9 51 -25l2 -2q4 -2 6.5 -8.5t-0.5 -11.5q0 -4 -5.5 -7.5t-9.5 -5.5q-18 -4 -35 -2q-185 22 -370 20h-72q-11 0 -25 -2q-26 -3 -48 1.5t-29 33.5q-4 22 11.5 32t37.5 16q15 5 28 13q157 88 302 194
q59 42 103 97q13 17 5.5 31.5t-29.5 16.5q-68 7 -132 -11h-2q-46 -13 -95 -24q-24 -4 -42 15q-6 11 0.5 23.5t26.5 20.5q143 60 299 42q37 -6 70 -22q64 -33 31 -94q-37 -66 -103 -113q-86 -63 -176 -125q-20 -13 -38 -26zM431 1101q11 14 26.5 18t32.5 2h7q7 -2 15 -2
q38 -9 42.5 -25.5t-9 -36t-30.5 -35.5q-40 -42 -77 -99q-33 -46 -58.5 -73.5t-38.5 -7.5q-16 11 -17 26.5t4 32.5q11 49 35 91.5t53 82.5q6 13 15 26v0z" />
    <glyph glyph-name="Zdotaccent" unicode="&#x17b;" horiz-adv-x="1197" 
d="M5676 -806v0q7 -7 7 -20v-6v-9q-5 -13 -16 -18.5t-24 -5.5q-6 0 -13 1t-11 3q-48 42 -105.5 57.5t-114.5 21.5q-35 5 -68 11q-753 148 -1514 229q-387 37 -776 64q-300 20 -601 26q-198 2 -394 11q-145 5 -292 0q-47 -2 -91 -2l-268 -4q-365 -5 -728 -18
q-313 -11 -624 -37.5t-619 -81.5q-209 -33 -409 -103q-7 -2 -16 -7q-22 -9 -45 -14.5t-49 -0.5q-29 4 -36 31q-2 8 1.5 18t9.5 17q40 33 82 61q380 269 743 561q638 502 1221 1065q363 350 735 687q238 215 473 435q115 108 227 220q15 16 28 29q7 4 11 9q11 11 21 23t10 29
q-22 18 -46 22.5t-51 4.5h-24q-277 20 -554 26.5t-557 -6.5q-235 -9 -470.5 -29t-468.5 -62l-22 -4q-42 -7 -81.5 -19t-74.5 -38q6 -44 32.5 -71.5t61.5 -49.5q18 -13 35 -27q99 -79 216 -132q4 -2 7.5 -8.5t5.5 -10.5q0 -14 -7.5 -18t-16.5 -7q-53 -11 -99 11
q-90 44 -172.5 98t-153.5 125q-114 114 36 173q81 33 169 51q128 29 257.5 44t259.5 29q13 0 26 2q335 31 670.5 33t669.5 -7q185 -6 370 -26q46 -5 88 4t77 44q9 11 25.5 16.5l31.5 10.5q7 2 11 4q20 4 34 -7t10 -35q-2 -24 3.5 -37t29.5 -16q11 -2 22 -2q46 -4 92 -15
q27 -7 25 -38q-3 -11 -10.5 -17.5t-16.5 -6.5q-50 -4 -101 -6h-88q-40 2 -60.5 -1.5t-37 -16.5t-45.5 -44l-57 -57q-280 -273 -570 -537q-97 -90 -194 -178q-424 -396 -847 -797q-550 -517 -1144 -979q-134 -105 -270 -209q-82 -63 -165 -125q-5 -4 -11 -9q-13 -9 -24 -20
t-11 -30q46 6 92 13q110 17 222 35q352 53 711 75q451 26 904 36t906 8q691 -5 1378 -66q1025 -93 2028 -315l18 -4q61 -11 118 -29q31 -11 53 -35zM1604 2899v0q35 0 59.5 -16.5t24.5 -43.5q-11 -105 -102 -105q-70 9 -66 90q7 75 84 75z" />
    <glyph glyph-name="zdotaccent" unicode="&#x17c;" horiz-adv-x="499" 
d="M149 400v0q-37 -27 -37 -38t24 -13t53 -2q9 2 15 2q95 -2 183 -26q26 -9 51 -25l2 -2q4 -2 6.5 -8.5t-0.5 -11.5q0 -4 -5.5 -7.5t-9.5 -5.5q-18 -4 -35 -2q-185 22 -370 20h-72q-11 0 -25 -2q-26 -3 -48 1.5t-29 33.5q-4 22 11.5 32t37.5 16q15 5 28 13q157 88 302 194
q59 42 103 97q13 17 5.5 31.5t-29.5 16.5q-68 7 -132 -11h-2q-46 -13 -95 -24q-24 -4 -42 15q-6 11 0.5 23.5t26.5 20.5q143 60 299 42q37 -6 70 -22q64 -33 31 -94q-37 -66 -103 -113q-86 -63 -176 -125q-20 -13 -38 -26zM354 1027v0q35 0 59.5 -16.5t24.5 -43.5
q-11 -105 -102 -105q-70 8 -66 90q7 75 84 75z" />
    <glyph glyph-name="Zcaron" unicode="&#x17d;" horiz-adv-x="1197" 
d="M5676 -806v0q7 -7 7 -20v-6v-9q-5 -13 -16 -18.5t-24 -5.5q-6 0 -13 1t-11 3q-48 42 -105.5 57.5t-114.5 21.5q-35 5 -68 11q-753 148 -1514 229q-387 37 -776 64q-300 20 -601 26q-198 2 -394 11q-145 5 -292 0q-47 -2 -91 -2l-268 -4q-365 -5 -728 -18
q-313 -11 -624 -37.5t-619 -81.5q-209 -33 -409 -103q-7 -2 -16 -7q-22 -9 -45 -14.5t-49 -0.5q-29 4 -36 31q-2 8 1.5 18t9.5 17q40 33 82 61q380 269 743 561q638 502 1221 1065q363 350 735 687q238 215 473 435q115 108 227 220q15 16 28 29q7 4 11 9q11 11 21 23t10 29
q-22 18 -46 22.5t-51 4.5h-24q-277 20 -554 26.5t-557 -6.5q-235 -9 -470.5 -29t-468.5 -62l-22 -4q-42 -7 -81.5 -19t-74.5 -38q6 -44 32.5 -71.5t61.5 -49.5q18 -13 35 -27q99 -79 216 -132q4 -2 7.5 -8.5t5.5 -10.5q0 -14 -7.5 -18t-16.5 -7q-53 -11 -99 11
q-90 44 -172.5 98t-153.5 125q-114 114 36 173q81 33 169 51q128 29 257.5 44t259.5 29q13 0 26 2q335 31 670.5 33t669.5 -7q185 -6 370 -26q46 -5 88 4t77 44q9 11 25.5 16.5l31.5 10.5q7 2 11 4q20 4 34 -7t10 -35q-2 -24 3.5 -37t29.5 -16q11 -2 22 -2q46 -4 92 -15
q27 -7 25 -38q-3 -11 -10.5 -17.5t-16.5 -6.5q-50 -4 -101 -6h-88q-40 2 -60.5 -1.5t-37 -16.5t-45.5 -44l-57 -57q-280 -273 -570 -537q-97 -90 -194 -178q-424 -396 -847 -797q-550 -517 -1144 -979q-134 -105 -270 -209q-82 -63 -165 -125q-5 -4 -11 -9q-13 -9 -24 -20
t-11 -30q46 6 92 13q110 17 222 35q352 53 711 75q451 26 904 36t906 8q691 -5 1378 -66q1025 -93 2028 -315l18 -4q61 -11 118 -29q31 -11 53 -35zM1417 2778v0q-44 86 -81 171q-14 27 -25 53q-4 11 -6 20q0 4 -2 7q2 37 33 41q50 14 85 -26q16 -18 23.5 -42t14.5 -50
q9 -38 22 -66q11 -22 30.5 -27.5t33.5 11.5q11 16 27.5 41t33.5 47q13 20 20 33q44 60 72.5 61t35 -30t-15.5 -68q-17 -24 -33 -51q-44 -70 -92 -136q-40 -49 -93.5 -45.5t-82.5 56.5z" />
    <glyph glyph-name="zcaron" unicode="&#x17e;" horiz-adv-x="499" 
d="M149 400v0q-37 -27 -37 -38t24 -13t53 -2q9 2 15 2q95 -2 183 -26q26 -9 51 -25l2 -2q4 -2 6.5 -8.5t-0.5 -11.5q0 -4 -5.5 -7.5t-9.5 -5.5q-18 -4 -35 -2q-185 22 -370 20h-72q-11 0 -25 -2q-26 -3 -48 1.5t-29 33.5q-4 22 11.5 32t37.5 16q15 5 28 13q157 88 302 194
q59 42 103 97q13 17 5.5 31.5t-29.5 16.5q-68 7 -132 -11h-2q-46 -13 -95 -24q-24 -4 -42 15q-6 11 0.5 23.5t26.5 20.5q143 60 299 42q37 -6 70 -22q64 -33 31 -94q-37 -66 -103 -113q-86 -63 -176 -125q-20 -13 -38 -26zM244 906v0q-35 68 -66 138q-11 22 -20 44
q-4 7 -4 16q0 4 -2 6q2 29 26 33q42 11 70 -20q11 -15 19 -36t12 -41q7 -30 18 -55q9 -17 25.5 -21.5t27.5 10.5q8 11 22.5 32t27.5 41q9 15 18 24q35 51 58 52t28.5 -24.5t-14.5 -55.5q-13 -20 -26 -42q-35 -57 -75 -112q-33 -40 -77 -36.5t-68 47.5z" />
    <glyph glyph-name="circumflex" unicode="&#x2c6;" horiz-adv-x="658" 
d="M436 2707v0q44 -85 81 -171q13 -27 24 -53q5 -11 7 -20v-6q0 -38 -31 -42q-51 -13 -86 26q-15 18 -24 42t-13 51q-9 37 -22 66q-11 22 -31 27.5t-33 -12.5q-11 -15 -28.5 -40.5t-33.5 -47.5q-13 -20 -22 -33q-41 -59 -70 -60.5t-36.5 29.5t16.5 68q16 25 33 51
q44 68 93 136q39 49 92 45.5t84 -56.5z" />
    <glyph glyph-name="caron" unicode="&#x2c7;" horiz-adv-x="658" 
d="M229 2468v0q-44 85 -82 171q-13 27 -26 53q-2 11 -4 20q0 4 -3 6q3 38 31 42q51 13 88 -26q16 -18 23.5 -42t14.5 -51q8 -37 22 -66q11 -22 30.5 -27.5t32.5 12.5q11 15 27.5 40.5t34.5 47.5q13 20 20 33q44 59 72.5 60.5t35 -29.5t-15.5 -68q-17 -25 -33 -51
q-44 -70 -92 -136q-40 -49 -94 -45.5t-82 56.5z" />
    <glyph glyph-name="uni02C9" unicode="&#x2c9;" horiz-adv-x="893" 
d="M460 2490l-82 2q-125 4 -275 20q-2 0 -4 4q-7 0 -9 3.5t-4 14.5q-2 46 20 48q112 15 226 18l46 2h84h224q25 0 51 -5q20 -4 20 -50t-20 -51q-7 -2 -18 -2h-46q-101 -4 -213 -4z" />
    <glyph glyph-name="breve" unicode="&#x2d8;" horiz-adv-x="1331" 
d="M1191.5 2568q-25.5 -67 -135.5 -140q-143 -95 -381 -95q-235 0 -380 96t-163 202.5t-22 124.5q73 105 180 4q16 -94 78.5 -167t298.5 -92q235 8 334 123.5t143 168.5t77 -28q0 -20 -2 -75t-27.5 -122z" />
    <glyph glyph-name="dotaccent" unicode="&#x2d9;" horiz-adv-x="2253" 
d="M1195 2674v0q13 -6 24 -19q22 -33 16.5 -81.5t-31 -90.5t-62.5 -51q-55 -13 -91.5 14.5t-29.5 91.5q2 9 2 15q0 18 2 36q11 66 58.5 90t111.5 -5z" />
    <glyph glyph-name="ring" unicode="&#x2da;" horiz-adv-x="2253" 
d="M904 2465q0 -92 64 -156t156 -64q93 0 156.5 64t63.5 156q0 88 -65 153t-155 65t-155 -65t-65 -153zM737 2465q0 165 112 277.5t275 112.5q167 0 280.5 -113.5t113.5 -276.5q0 -165 -113.5 -278t-280.5 -113q-163 0 -275 113t-112 278z" />
    <glyph glyph-name="ogonek" unicode="&#x2db;" horiz-adv-x="2252" 
d="M1408 -300q-156 -136 -243 -262.5t-87 -247.5q0 -104 59.5 -165.5t160.5 -61.5q88 0 153 34t109 107l61 -35q-79 -139 -199 -214t-263 -75q-154 0 -250.5 78.5t-96.5 199.5q0 167 133 344t355 298h108z" />
    <glyph glyph-name="tilde" unicode="&#x2dc;" horiz-adv-x="977" 
d="M812 2241v0q44 -7 48 -44q7 -88 -81 -136q-68 -36 -145 -29q-130 -2 -214 79q-53 55 -78 54t-80 -58l-11 -11q-22 -22 -48.5 -24.5t-55.5 4.5q-19 7 -28 22t0 31q46 68 136 102t178 17q51 -16 84 -49q11 -11 22 -24q22 -22 44 -40q66 -52 114 16l14 26q4 11 11 22
q28 53 90 42z" />
    <glyph glyph-name="hungarumlaut" unicode="&#x2dd;" horiz-adv-x="671" 
d="M242 2822q35 57 85.5 40.5t58.5 -35t-6.5 -43t-31.5 -44.5q-42 -55 -82 -123q-90 -143 -123 -133t-33 65q40 88 64 139.5t50 102.5q9 15 18 31v0zM411 2782q42 55 90.5 33t54 -41.5t-11 -41.5t-36.5 -40q-46 -51 -90 -117q-106 -134 -136.5 -120.5t-26.5 68.5
q49 83 76.5 132.5t60.5 98.5q8 15 19 28v0z" />
    <glyph glyph-name="endash" unicode="&#x2013;" horiz-adv-x="1249" 
d="M675 400l-140 2q-218 2 -478 15q-4 0 -9 2q-8 0 -13.5 3.5t-8.5 12.5q-2 35 36 37q193 11 391 13l82 3h143h389q44 0 88 -5q35 -2 35 -39q0 -36 -35 -40q-13 -2 -29 -2h-81q-176 -2 -370 -2z" />
    <glyph glyph-name="emdash" unicode="&#x2014;" horiz-adv-x="1736" 
d="M675 400l-140 2q-218 2 -478 15q-4 0 -9 2q-8 0 -13.5 3.5t-8.5 12.5q-2 35 36 37q193 11 391 13l82 3l1045 -3q44 0 88 -4q35 -2 35 -40q0 -35 -35 -39q-14 -2 -29 -2h-81q-176 -3 -883 0z" />
    <glyph glyph-name="quoteleft" unicode="&#x2018;" horiz-adv-x="363" 
d="M202 1830v0q-48 -11 -63 41q-18 47 -18 91q0 41 15.5 73t37.5 59q11 17 27.5 17t31.5 -9q20 -11 -4 -37q-35 -81 1 -126.5t20.5 -74t-48.5 -34.5z" />
    <glyph glyph-name="quoteright" unicode="&#x2019;" horiz-adv-x="363" 
d="M174 2109v0q48 11 64 -40q17 -46 17 -92q0 -42 -15.5 -74t-37.5 -58q-13 -15 -28.5 -16.5t-30.5 7.5q-22 11 2 38q38 81 1.5 126t-22 73.5t49.5 35.5z" />
    <glyph glyph-name="quotesinglbase" unicode="&#x201a;" horiz-adv-x="398" 
d="M163 254v0q48 11 64 -39q17 -46 17 -93q0 -41 -15.5 -73t-37.5 -59q-13 -15 -28.5 -16t-30.5 8q-22 11 2 37q38 81 1.5 126.5t-22 74t49.5 34.5z" />
    <glyph glyph-name="quotedblleft" unicode="&#x201c;" horiz-adv-x="513" 
d="M350 1834v0q-49 -11 -64 42q-18 46 -18 90q0 42 15.5 74t37.5 58q11 18 27.5 18t32.5 -9q19 -11 -5 -38q-35 -81 1.5 -126t21 -73.5t-48.5 -35.5zM202 1830v0q-48 -11 -63 41q-18 47 -18 91q0 41 15.5 73t37.5 59q11 17 27.5 17t31.5 -9q20 -11 -4 -37q-35 -81 1 -126.5
t20.5 -74t-48.5 -34.5z" />
    <glyph glyph-name="quotedblright" unicode="&#x201d;" horiz-adv-x="513" 
d="M174 2109v0q48 11 64 -40q17 -46 17 -92q0 -42 -15.5 -74t-37.5 -58q-13 -15 -28.5 -16.5t-30.5 7.5q-22 11 2 38q38 81 1.5 126t-22 73.5t49.5 35.5zM321 2113v0q49 11 64 -39q18 -46 18 -93q0 -41 -15.5 -73t-37.5 -59q-13 -15 -28.5 -16t-31.5 8q-22 11 3 37
q37 81 0.5 126.5t-22 74t49.5 34.5z" />
    <glyph glyph-name="quotedblbase" unicode="&#x201e;" horiz-adv-x="495" 
d="M163 254v0q48 11 64 -39q17 -46 17 -93q0 -41 -15.5 -73t-37.5 -59q-13 -15 -28.5 -16t-30.5 8q-22 11 2 37q38 81 1.5 126.5t-22 74t49.5 34.5zM326 259v0q48 11 63 -40q18 -46 18 -92q0 -42 -15.5 -74t-37.5 -58q-13 -16 -28.5 -17t-30.5 8q-22 11 2 37q37 82 1 127
t-22 73.5t50 35.5z" />
    <glyph glyph-name="bullet" unicode="&#x2022;" horiz-adv-x="2253" 
d="M647 1240q0 198 139.5 335.5t335.5 137.5t334.5 -138.5t138.5 -334.5t-139.5 -335.5t-335.5 -139.5q-198 0 -335.5 139.5t-137.5 335.5z" />
    <glyph glyph-name="ellipsis" unicode="&#x2026;" horiz-adv-x="1201" 
d="M191 237v0q82 0 58 -79q-11 -31 -25 -58q-13 -24 -37 -31.5t-51 3.5q-22 9 -24 31q-2 35 2 72q7 66 77 62zM579 237v0q81 0 57 -79q-11 -31 -24 -58q-14 -24 -38 -31.5t-50 3.5q-22 9 -25 31q-2 35 3 72q6 66 77 62zM972 239v0q82 0 58 -79q-11 -31 -25 -57
q-13 -25 -37 -32.5t-51 3.5q-22 9 -24 31q-2 35 2 72q7 66 77 62z" />
    <glyph glyph-name="guilsinglleft" unicode="&#x2039;" horiz-adv-x="1388" 
d="M383 754l752 666h31v-81l-451 -585l451 -585v-82h-31z" />
    <glyph glyph-name="guilsinglright" unicode="&#x203a;" horiz-adv-x="1388" 
d="M253 87h-31v82l451 585l-451 585v81h31l752 -666z" />
    <glyph glyph-name="fraction" unicode="&#x2044;" horiz-adv-x="752" 
d="M-752 -364l2068 3214h184l-2063 -3214h-189z" />
    <glyph glyph-name="fraction" unicode="&#x2215;" horiz-adv-x="752" 
d="M-752 -364l2068 3214h184l-2063 -3214h-189z" />
    <glyph glyph-name="franc" unicode="&#x20a3;" horiz-adv-x="984" 
d="M1267 1706v0q2 -4 3.5 -9.5t1.5 -12.5q-5 -19 -25 -30q-30 -14 -56.5 -12.5t-50.5 5.5h-7q-18 4 -33 7q-62 11 -125 17q-62 0 -128 -9q-55 -8 -77 -59q-44 -108 -55 -216q0 -28 26 -30h108h29q37 -3 70 0q62 2 108 -11q13 -3 21 -10.5t5 -22.5q-4 -18 -18.5 -29
t-29.5 -15q-26 -9 -53 -9h-75h-15h-51h-88q-39 0 -54.5 -10t-24.5 -45q-31 -110 -57 -218q-7 -29 2 -40t40 -15l48 -4q31 -3 62 -7q42 -9 77 -24q6 -5 8.5 -13.5t0.5 -17.5q-3 -9 -12.5 -15.5t-18.5 -10.5q-42 -16 -79 -5q-11 2 -22 2h-5q-97 16 -123 -1.5t-48 -110.5
q-3 -11 -7 -24q-9 -33 -20 -66q-35 -139 -90 -277q-29 -71 -95 -73q-112 -9 -68 97q38 81 62 163.5t46 164.5q2 9 4 15q9 33 18 68q0 5 2 9q11 44 -33 51h-6q-20 2 -39 6.5t-30 17.5q-6 9 -1.5 23t17.5 21q4 2 6 4q9 5 18 9q15 2 33 5q15 2 30.5 5t26.5 12q20 16 27.5 38
t10.5 44q2 15 4 28q53 211 99 420q29 141 89.5 197t207.5 74q103 13 198 2t183 -35q17 -4 28 -18z" />
    <glyph glyph-name="lira" unicode="&#x20a4;" horiz-adv-x="1611" 
d="M1817 1735v0q95 -62 86 -189q-9 -55 -57 -75q-33 -11 -58.5 -3.5t-33.5 32.5q-3 13 -3 26q-2 11 -2 20q-2 2 -2 4q-4 29 -13 53q-49 95 -137 87t-176 -116q-59 -83 -102 -170t-74 -177q-17 -49 31 -49h139q46 -2 90 -2h15q51 5 95 -13q11 -4 18.5 -12t3.5 -23
q-4 -20 -19.5 -29t-31.5 -11q-52 -9 -103 -9q-79 0 -156 -2h-86q-37 0 -55 -35q-2 -4 -2 -9q-18 -39 -33 -81q-13 -44 35 -46q59 -3 117 -3q44 3 88 0h13q46 5 81 -15q5 -4 9 -13t2 -16q-2 -8 -11 -17t-17 -13q-44 -18 -86 -16q-9 2 -18 0h-90h-114q-47 -2 -64 -46
q-53 -128 -101 -255q-14 -33 13 -53q46 -37 94 -75q58 -46 115 -90q57 -48 147 -37q27 4 52 4t45 -13q4 -5 4 -13.5t-3 -17.5t-10 -13q-2 -2 -6 -5q-16 -8 -31 -13q-90 -26 -169.5 -21.5t-145.5 45.5q-50 33 -99 73q-26 20 -53 42q-17 13 -32.5 11t-33.5 -24
q-11 -11 -22 -25q-2 -4 -6 -8q-77 -95 -169.5 -135.5t-195.5 -38.5q-91 2 -168 31q-61 22 -96 72q-60 90 37 196q103 108 233 132q64 15 125.5 20.5t121.5 -2.5q28 -7 61 -9q29 0 44 28q20 47 38 91q6 17 13 37v0v0q2 7 4 11q5 13 11 26q16 47 6 62t-54 18q-22 2 -44 0
q-44 -5 -79 11q-7 4 -10.5 13t-0.5 15q2 9 10.5 18t15.5 11q33 13 66 15q26 2 53 2q24 0 50 3q38 2 53 39q13 38 24 77q9 31 1.5 43t-36.5 12h-46q-29 -2 -57 0q-29 5 -53 18q-9 4 -8 16t8 23t15 16q40 13 80 20q28 4 57 4q15 0 33 2q35 2 48 11t24 40q33 68 62 138
q46 115 121 220q119 168 306 194q152 24 259 -44zM682 292v0q7 6 13 15q27 27 48 55.5t18 56.5q-6 29 -31.5 36.5t-56.5 7.5q-15 0 -28 3q-64 -3 -122.5 -23.5t-108.5 -71.5q-62 -62 -24 -114q48 -64 131.5 -54t160.5 89z" />
    </font>
</defs>
</svg>
