<?xml version="1.0" standalone="no"?>
<!DOCTYPE svg PUBLIC "-//W3C//DTD SVG 1.1//EN" "http://www.w3.org/Graphics/SVG/1.1/DTD/svg11.dtd" >
<svg xmlns="http://www.w3.org/2000/svg" xmlns:xlink="http://www.w3.org/1999/xlink" version="1.1">
<metadata>
Created by FontForge 20170731 at Tue Jan  9 14:13:44 2018
 By Aleksey,,,
Amsterdam (c) Lettersiro 2017. All Rights Reserved
</metadata>
<defs>
<font id="Amsterdam-Three" horiz-adv-x="1995" >
  <font-face 
    font-family="Amsterdam Three"
    font-weight="400"
    font-stretch="normal"
    units-per-em="2048"
    panose-1="2 0 5 0 0 0 0 0 0 0"
    ascent="1638"
    descent="-410"
    x-height="628"
    cap-height="2661"
    bbox="-2024.31 -1985 4501.44 3453.67"
    underline-thickness="150"
    underline-position="-442"
    unicode-range="U+001D-E242"
  />
<missing-glyph horiz-adv-x="2253" 
d="M220 -300v3155h1813v-3155h-1813zM330 -190h1593v2935h-1593v-2935zM715 2226q68 61 128 94q116 66 246 66q202 0 325.5 -104.5t123.5 -280.5q0 -108 -50.5 -216.5t-191.5 -284.5q-139 -176 -218 -290.5t-79 -218.5q0 -83 53 -292h-71q-77 213 -77 325q0 168 179.5 480
t179.5 477q0 126 -72.5 198.5t-200.5 72.5q-84 0 -152 -37q-57 -33 -123 -88v99zM856 435l125 127q24 22 44 22q22 0 49 -24l123 -132q20 -24 20 -44q0 -24 -22 -48l-124 -137q-30 -30 -46 -30q-24 0 -44 22l-134 156q-15 20 -15 39q0 22 24 49z" />
    <glyph glyph-name="gg" unicode="gg" horiz-adv-x="1883" 
d="M130 -1200v0q50 132 115 375t74 380q-35 -57 -53 -79q-9 -11 -15 -20q-97 -152 -174 -313q-55 -114 -83.5 -222t-26.5 -235q0 -51 11 -74t37 3q75 82 115 185zM955 -1409v0q50 143 115 406t74 410q-35 -63 -53 -88q-9 -11 -15 -22q-97 -160 -174 -334
q-55 -125 -83.5 -242t-26.5 -253q0 -55 11 -80.5t37 3.5q75 90 115 200zM1032 323q24 -7 62.5 24t73.5 70.5t51 59.5q48 70 132 68q94 -2 94 -101q-2 -66 -13 -146q-13 -94 -13 -169q7 -68 64 -28.5t158 138.5q57 55 106.5 103.5t120 120t96 33t-3 -74t-42.5 -54.5
q-13 -18 -36 -42t-45 -46q-18 -18 -29 -31q-204 -218 -389 -456q-24 -28 -39.5 -60t-19.5 -72q-16 -171 -59 -423t-114.5 -494t-167.5 -381q-71 -99 -187 -105q-181 -7 -207 189q-18 187 49 399.5t177 407t220 330.5q53 80 98 268t56 326q5 73 -8.5 80.5t-48.5 -16.5
q-31 -20 -75 -37.5t-105 -12.5q-66 4 -106 44q-149 -157 -288 -322q-24 -26 -39.5 -55.5t-19.5 -67.5q-16 -158 -59 -391.5t-114.5 -457.5t-167.5 -354q-71 -90 -187 -99q-181 -5 -207 176q-18 176 49 371.5t177 377t220 307.5q53 72 98 247t56 305q5 66 -8.5 72.5
t-48.5 -15.5q-31 -17 -75 -33.5t-105 -14.5q-84 9 -122.5 64t-39.5 128.5t23 135.5q29 61 76 114t102 95q91 66 194 26q15 -7 25 -19t8 -29q-2 -16 -12 -23.5t-23 -9.5q-88 -33 -142 -112.5t-67 -154t22 -92.5q24 -4 62.5 23.5t73.5 64.5t51 55q48 66 132 64q94 -2 94 -93
q-2 -63 -13 -136q-13 -88 -13 -156q7 -64 64 -27.5t114 95.5t53 92v11q0 80 24 146q29 68 76 124t102 100q91 73 194 29q15 -7 25 -19t8 -32q-2 -18 -12 -25.5t-23 -11.5q-88 -36 -142 -120.5t-67 -163.5q-7 -18 -1.5 -54t23.5 -47z" />
    <glyph glyph-name="ll" unicode="ll" horiz-adv-x="1650" 
d="M156 1011v0q26 73 55 234.5t52 359.5t36 377.5t10 287t-30 90.5q-35 -152 -46 -282q-4 -68 -20 -202q-24 -233 -47 -496t-10 -369zM968 965v0q26 66 54.5 212.5t52 325.5t36.5 342t9.5 261t-29.5 82q-35 -136 -46 -255q-5 -62 -20 -185q-24 -211 -47 -449.5t-10 -333.5z
M853 285q-48 -70 -107 -134q-108 -117 -245 -172q-59 -19 -119.5 -19t-119.5 15q-58 13 -96.5 49.5t-66.5 84.5q-84 159 -107 457t-4.5 651t58.5 676.5t81 534.5q20 88 60 167q44 82 136 75q86 0 119 -81q35 -104 40 -212q17 -255 -14 -508q-30 -244 -76.5 -456.5
t-96.5 -416.5q-64 -249 -121 -522q2 -28 6 -50q7 -77 21 -133t61 -138q44 -77 111 -81.5t137.5 37.5t129.5 100.5t92 106.5q9 13 33.5 48.5t34 83.5t5.5 112q-24 271 -5.5 591t58 613.5t81.5 485.5q20 79 60 152q44 72 136 68q86 0 119 -73q35 -94 39 -193q18 -231 -13 -462
q-31 -220 -77 -412.5t-97 -377.5q-63 -227 -90.5 -363.5t-23.5 -158.5q7 -68 21 -119.5t60 -124.5q44 -70 111.5 -73.5t137.5 34t129.5 90.5t92.5 97q9 11 33 42.5t48.5 63.5t35.5 43q44 38 73.5 14.5t-1.5 -86.5q-68 -121 -175.5 -227t-244.5 -156q-59 -18 -119.5 -18
t-120.5 13q-57 14 -95.5 45.5t-66.5 78.5q-33 59 -58 138z" />
    <glyph glyph-name="oo" unicode="oo" horiz-adv-x="1815" 
d="M867 369q-95 -46 -198 -22q-46 13 -78 1t-65 -74q-82 -158 -260 -178q-134 -13 -198 50.5t-81 162.5q-20 102 8.5 191t94.5 166q51 55 126 46q35 0 55 -26q11 -18 4 -31t-20 -24q-108 -113 -101 -267q2 -72 42 -132q35 -50 88 -15q50 40 88.5 110t44 144t-40.5 131
q-24 22 -46 31q-11 6 -20 11.5t-9 14.5q-2 51 37.5 74t97 23t107 -23t64.5 -67q16 -57 9 -115q-2 -48 40 -74q94 -66 226 24l13 13q27 62 73 117q44 50 112 41q29 0 49 -24q8 -15 1.5 -27t-15.5 -21h-2q-90 -93 -90 -238q2 -64 37 -116q31 -47 77 -16q47 38 82 99.5
t39.5 127.5t-37.5 116q-20 20 -40 29q-11 4 -18.5 9.5t-7.5 14.5q-2 42 33 64t87 22t94.5 -21t58.5 -60q13 -51 6 -102q0 -44 36 -66q83 -59 184 -41q40 6 75 20.5t66 29.5q42 20 77 31q33 7 41 -1t5 -28q-4 -30 -21.5 -53.5t-79 -55t-145.5 -41.5t-191 23q-40 11 -68.5 1
t-57.5 -65q-72 -141 -233 -161q-117 -11 -174 46.5t-77 149.5q-2 27 -4 51z" />
    <glyph glyph-name="tt" unicode="tt" horiz-adv-x="1373" 
d="M755 232q-18 -19 -35 -37q-64 -70 -152 -114t-187 -38q-139 16 -221.5 101.5t-124 204.5t-55.5 233q-37 284 -22 572l5 141q0 26 9 145v22h-194q-57 -4 -112 13q-24 7 -39.5 19t-13.5 30q2 17 22 27t46 10q99 2 198 2h101q0 18 3 29l17 229l13 154v4q0 16 3 31
q17 66 94 62q66 -5 73 -69q2 -41 0 -83v-38h-2l-5 -92q-9 -108 -13 -218l-2 -9h147q198 -2 304 0q0 11 2 25q9 129 11 167q9 125 18 248q6 86 13 170v4q0 18 2 35q18 71 95 66q66 -4 72 -74q2 -47 0 -91v-39h-2q-2 -53 -4 -104q-9 -118 -14 -237q-4 -64 -11 -161l-2 -11h233
q137 0 273 -2h29q33 2 80 -1t15.5 -49.5t-97.5 -41.5h-27l-405 -3q-52 0 -105 -2v-6q-9 -201 -8 -400t25 -397q20 -156 82 -301q33 -79 80 -124.5t107 -38.5q110 20 170.5 81.5t102.5 134.5q39 70 88 116q22 16 33 10.5t15 -22t4 -32.5q-2 -33 -12 -60.5t-14 -36.5l-2 -2
q-31 -79 -96 -156t-153 -124.5t-187 -40.5q-138 15 -222 110q-26 29 -46 59zM154 1460q-2 -18 -2 -35q-7 -90 -7 -108q-8 -183 -7 -364.5t25 -363.5q20 -143 81 -275q33 -73 80.5 -113.5t106.5 -36.5q110 18 170 75q55 51 92 110q-9 22 -15 46q-42 130 -55 255
q-38 313 -22 627l4 154v31h-211q-163 -2 -240 -2z" />
    <glyph glyph-name="ee" unicode="ee" horiz-adv-x="1703" 
d="M211 391v0h-2v0h2zM209 567v0q-13 -13 -19.5 -28.5t-6.5 -26.5t2 -13q4 -5 26 -7t47.5 -1t42 12t9.5 35q-9 33 -40.5 41t-60.5 -12zM992 389v0h-2v0h2zM990 538v0q-13 -11 -19.5 -23t-6.5 -22t2 -12q4 -2 26 -4.5t47.5 -1t42 10t9.5 28.5q-9 29 -40.5 34.5t-60.5 -10.5z
M794 294q-92 -48 -189 -88q-123 -51 -205 -68q-94 -18 -191 -9q-119 18 -177 109t-47 206q17 127 106 202t204 55q70 -9 127 -55q62 -57 55.5 -127.5t-77.5 -110.5q-37 -19 -82 -23.5t-105 -0.5h-2l-2 2h-22q-18 -2 -23.5 -13t-0.5 -26q33 -90 129.5 -94.5t219 39.5t183 80
t71.5 65q17 106 106 166.5t204 44.5q70 -6 127 -44q62 -48 55.5 -105.5t-77.5 -92.5q-37 -15 -82 -18.5t-105 1.5h-26q-18 0 -23.5 -10t-0.5 -21q22 -88 246.5 -49.5t334.5 88t169 82.5q11 6 35 15t46 10t31 -14q7 -13 3.5 -23t-12.5 -19q-55 -55 -170.5 -111t-239.5 -98
t-206 -55q-94 -15 -191 -7q-119 14 -178 91q-11 13 -18 26z" />
    <glyph glyph-name="st" unicode="st" horiz-adv-x="1536" 
d="M796 512q-55 -172 -151.5 -286.5t-162.5 -191.5q-49 -52 -73 -118q-26 -86 -88 -154q-35 -40 -80 -49t-94 5q-24 6 -36 25t-5 43q8 37 28 70q29 42 62 82q2 4 6 8q115 143 14 293q-25 33 -55 64q-9 11 -20 22q-18 22 -38 42q-37 39 -72 83q-99 139 13 266q97 115 242 159
q90 26 174 -16q81 -44 75 -136q-9 -62 -62 -73q-68 -13 -97 42q-9 22 -13 38q-4 17 -11 26t-22 5.5t-48 -23.5q-51 -30 -88 -79q-60 -72 -7 -154q18 -26 40 -48q24 -27 46 -53q44 -44 83.5 -90t68.5 -99q24 -2 104 78t179 309q38 97 41 243t14 384l5 150v52q0 49 -46 49
q-49 0 -97 2h-123q-38 -4 -71 13q-15 7 -25 19t-10 30q2 17 14 27t30 10q64 2 128 2h77q50 0 101 5q28 2 35 33q4 37 7 74l17 242q7 84 13 165v5q0 17 3 33q17 70 94 66q66 -5 73 -73q2 -44 0 -90v-37h-2l-5 -102q-9 -114 -13 -231q-4 -61 11 -76.5t81 -13.5q124 -2 247 -2
q88 0 176 -2h17q22 2 42 -1.5t40 -14.5q6 -6 11.5 -12.5t8.5 -17.5q0 -11 -7 -18t-13 -11q-40 -22 -84 -18h-15l-262 -2q-73 -2 -147 -2h-9q-33 0 -68 -2q-36 -5 -42 -40q-5 -20 -5 -39q-8 -194 -7 -388.5t25 -386.5q20 -154 81 -295q33 -77 80.5 -121t106.5 -37
q110 18 170.5 78.5t102.5 130.5q40 68 88 112q22 18 33 12.5t15.5 -22t4.5 -32.5q-2 -30 -12 -57.5t-14 -36.5l-3 -2q-30 -77 -95 -152t-153 -121t-187 -40q-139 16 -221.5 107t-124.5 219z" />
    <glyph glyph-name=".notdef" horiz-adv-x="2253" 
d="M220 -300v3155h1813v-3155h-1813zM330 -190h1593v2935h-1593v-2935zM715 2226q68 61 128 94q116 66 246 66q202 0 325.5 -104.5t123.5 -280.5q0 -108 -50.5 -216.5t-191.5 -284.5q-139 -176 -218 -290.5t-79 -218.5q0 -83 53 -292h-71q-77 213 -77 325q0 168 179.5 480
t179.5 477q0 126 -72.5 198.5t-200.5 72.5q-84 0 -152 -37q-57 -33 -123 -88v99zM856 435l125 127q24 22 44 22q22 0 49 -24l123 -132q20 -24 20 -44q0 -24 -22 -48l-124 -137q-30 -30 -46 -30q-24 0 -44 22l-134 156q-15 20 -15 39q0 22 24 49z" />
    <glyph glyph-name=".null" horiz-adv-x="0" 
 />
    <glyph glyph-name=".null" horiz-adv-x="0" 
 />
    <glyph glyph-name="nonmarkingreturn" horiz-adv-x="508" 
 />
    <glyph glyph-name="space" unicode=" " horiz-adv-x="365" 
 />
    <glyph glyph-name="space" unicode="&#xa0;" horiz-adv-x="365" 
 />
    <glyph glyph-name="exclam" unicode="!" horiz-adv-x="427" 
d="M222 356v0q-70 -5 -72 66q-20 356 -21 721t1 731q2 200 2 398q0 83 7 165q11 64 81 64q73 -3 79 -64q2 -27 2 -53v-11v-143q3 -389 -2.5 -832.5t-38.5 -986.5q-3 -9 -3 -16q-2 -17 -7.5 -27t-27.5 -12zM275 127v0q42 -13 35 -86q-6 -22 -13 -46q-18 -64 -42 -134
q-9 -25 -28.5 -28t-41.5 -1h-5q-44 0 -55 42q-15 94 7 189q13 46 54 63.5t89 0.5z" />
    <glyph glyph-name="quotedbl" unicode="&#x22;" horiz-adv-x="513" 
d="M174 2109v0q48 11 64 -40q17 -46 17 -92q0 -42 -15.5 -74t-37.5 -58q-13 -15 -28.5 -16.5t-30.5 7.5q-22 11 2 38q38 81 1.5 126t-22 73.5t49.5 35.5zM321 2113v0q49 11 64 -39q18 -46 18 -93q0 -41 -15.5 -73t-37.5 -59q-13 -15 -28.5 -16t-31.5 8q-22 11 3 37
q37 81 0.5 126.5t-22 74t49.5 34.5z" />
    <glyph glyph-name="numbersign" unicode="#" horiz-adv-x="1482" 
d="M1390 945v0q11 -9 10 -27.5t-12 -27.5q-39 -26 -86 -13q-74 13 -151 0q-47 -4 -71 -46q-44 -79 -88 -156q-35 -62 -68 -124q-22 -46 31 -46q121 5 242 13q9 0 15 3q22 2 43 1t41 -12q15 -11 22 -29q4 -11 -2.5 -18.5t-13.5 -12.5q-35 -15 -72 -22q-152 -26 -306 -20
q-99 7 -141 -83q-44 -84 -94 -165q-20 -33 -40 -68q-24 -42 -75 -40q-39 2 -54.5 24t1.5 60q29 63 62 125q24 44 46 90q24 49 -31 49h-57q-37 2 -73.5 -0.5t-69.5 -13.5q-31 -15 -49.5 -43.5t-31.5 -61.5t-31 -60q-29 -44 -53 -90q-17 -33 -37 -64q-31 -46 -88 -41
q-68 6 -46 66q24 50 48 99q13 24 24 50l44 88q9 20 18 38q-22 15 -43 18.5t-41 0.5h-31q-2 3 -4 3q-37 -3 -66 19q-4 3 -7.5 9.5t-3.5 12.5q2 5 4.5 11.5t6.5 8.5q55 22 112 24h24q29 3 49 5q31 2 46 5.5t26 17.5t27 47q6 13 17 31q9 15 18 33q40 73 77 147q26 49 16.5 62
t-69.5 13q-77 -2 -152 2q-26 3 -48 14q-9 2 -13.5 10.5t-6.5 17.5q0 5 5.5 10.5t10.5 9.5q13 11 28.5 13t30.5 2h13q108 7 216 11q64 3 92 58q57 103 115 204q13 27 28 51q20 35 40 66q44 68 121 46q35 -9 31 -46q-5 -44 -29 -79q-4 -7 -9 -16q-26 -53 -55 -103
q-28 -55 -59 -110q-24 -51 26 -51q106 -6 160 2.5t88 50.5t76 134q19 40 35 82q9 24 20 48q15 35 53.5 45t73.5 -12q33 -29 20 -68q-18 -51 -37 -99q-11 -27 -22 -55q-5 -13 -11 -24q-11 -18 -16.5 -35.5t2.5 -39.5q29 -2 62 -5q42 -2 88 -4q31 0 59 -20zM880 789v0v2
q9 13 13.5 28.5t-2.5 37.5q-103 5 -207 -11q-13 -2 -26 -2q-13 -2 -24 -10t-18 -16q-79 -146 -154 -293q-7 -13 -1.5 -24t23.5 -11h79h86q64 0 90 57q42 73 84 145q28 49 57 97z" />
    <glyph glyph-name="dollar" unicode="$" horiz-adv-x="1069" 
d="M838 908v0q112 -90 116.5 -209t-100.5 -218q-36 -33 -78.5 -55t-86.5 -40q-31 -11 -62 -17q-64 -9 -66 -77q-7 -97 -20 -194q-2 -17 -4 -35q-7 -57 -68 -59q-64 -5 -69 57q0 26 3 53q0 11 2 22v41q4 44 4 86q2 40 -1 57.5t-20.5 24t-55.5 15.5q-90 15 -167 62
q-119 77 -152 211q-13 57 29 75q33 11 60.5 4t40.5 -31q9 -17 15 -39q9 -22 20 -42q62 -112 185 -141q53 -13 57 33q5 213 9 429v15q0 42 -40 60q-2 2 -4 2q-40 18 -77 35q-9 7 -20 11q-46 24 -90 51q-132 90 -163 220t44 270q99 183 297 247q60 15 57 72q-2 58 3 115
q4 101 88 94q68 0 70 -101q2 -57 2 -114q-2 -51 49 -64q26 -7 52 -18q5 -2 7 -4q108 -48 145.5 -124t32.5 -171q-6 -86 -35 -171v-3q-24 -88 -117 -70q-44 7 -39 55q4 31 11 64q11 55 17 112q11 92 -39 169q-20 25 -49 40q-11 7 -18.5 1.5t-9.5 -14.5q-7 -31 -7 -64
q-2 -97 0 -196v-70v0v-82v-200q-2 -57 51 -77q55 -22 105 -48q44 -24 86 -55zM429 1159v0q2 96 0 191v77v0v70v196q-2 13 -14 20t-26 0q-101 -62 -151 -167q-66 -128 -27.5 -240t165.5 -176q22 -9 37.5 -2.5t15.5 31.5zM788 675v0q4 66 -30 114t-87 81q-11 7 -20 11l-2 3
q-22 8 -38.5 1.5t-16.5 -30.5q-2 -62 -2 -125q2 -25 2 -51h-11v-48v-117q0 -20 11 -28.5t29 -4.5q66 29 110 75t55 119z" />
    <glyph glyph-name="percent" unicode="%" horiz-adv-x="1423" 
d="M1151 1449v0q-16 -26 -36 -53q-167 -231 -325.5 -467.5t-312.5 -476.5q-74 -114 -149 -228q-46 -69 -93 -139q-30 -46 -85 -42q-18 0 -32.5 4.5t-25.5 17.5q-11 16 -6.5 29t13.5 24q2 2 2 4q31 49 62 97q83 137 171 269q251 378 504 752q51 73 108 145q26 33 53 68
q17 25 44.5 37t74.5 7q-5 3 -6 3t0 0t4.5 -1.5t5.5 -1.5q15 -2 25 -17.5t4 -30.5zM176 908v0q-53 -7 -98 23t-61.5 87t12.5 132q30 70 85 125q44 49 97 68.5t117 -11.5q28 -8 57 -8q15 -3 31 -5q70 -13 101 -59t11 -115q-11 -44 -37 -79q-55 -77 -132 -117.5t-183 -40.5z
M198 1152v0q-22 -37 -24 -88v-9q2 -11 6 -24q11 -26 40 -22q59 15 104.5 69t45.5 111q0 5 -3.5 11.5t-7.5 8.5q-49 18 -93 1.5t-68 -58.5zM1153 655v0q88 -18 122 -80.5t1 -148.5q-29 -75 -100.5 -121t-161.5 -48q-90 0 -147 44t-62 118q-2 163 126 269q26 22 59 24t57 -20
q22 -17 44 -24t44 -11q9 0 18 -2zM1122 472v0q22 86 -68 95q-42 6 -60 -33q-24 -44 -24 -104v-4q2 -11 5 -26q8 -29 30 -36.5t47 7.5q55 37 70 101z" />
    <glyph glyph-name="ampersand" unicode="&#x26;" horiz-adv-x="2090" 
d="M1837 813v0q18 -26 29 -55q41 -119 54.5 -264t-15 -286t-112.5 -241t-235 -124q-216 -33 -405 75q-117 68 -207 169q-31 35 -64 73q-17 17 -35 37q-48 -26 -81 -68q-11 -13 -22 -24q-3 -2 -5 -7q-94 -99 -202 -182q-121 -84 -264 -75q-128 9 -200.5 88t-70.5 204
q2 77 27.5 145.5t62.5 132.5q55 94 121 179t141 166q64 70 132 136q51 47 35 115q-39 220 -30 444q2 154 55 299q92 245 356 231q132 -2 240 -72q202 -137 127 -368q-35 -94 -99 -176q-61 -79 -131.5 -149.5t-143.5 -136.5q-8 -8 -17 -15q-66 -62 -130 -123q-29 -22 -22 -55
q7 -29 15 -57q22 -88 52 -173t78 -162q2 -2 7 -4q2 -2 4 -2q42 26 73 63q9 11 20 25q215 226 451 431q33 28 70 55q37 28 84 22q26 -2 44 -22q6 -16 0.5 -25.5t-14.5 -18.5q-19 -22 -41 -44q-20 -18 -40 -40q-40 -42 -81 -86q-223 -233 -445 -468q-33 -35 -35 -55t26 -55
q80 -117 185 -209q84 -73 185 -110q141 -44 231 0t136.5 145t54 227.5t-15.5 246.5t-72 201q-4 11 -8 20q-7 13 -11 27q-5 15 3 25t21 14q88 27 134 -44zM695 1658v0q-22 -75 -27.5 -151t-5.5 -153q2 -28 5 -59q4 -77 13 -156q2 -18 16.5 -23.5t29.5 5.5q84 73 163 151
t143 170q50 69 70 148q40 207 -152 284q-94 35 -165 -38q-35 -37 -56 -82t-34 -96zM726 307v0q33 38 7 82q-86 156 -141 327q-2 9 -11 22q-7 9 -13 22q-104 -101 -187.5 -207.5t-145.5 -225.5q-59 -110 -55 -233q5 -66 51 -115q53 -61 125 -19q40 19 73 48q134 114 249 246
q24 27 48 53z" />
    <glyph glyph-name="quotesingle" unicode="'" horiz-adv-x="365" 
d="M174 2109v0q48 11 64 -40q17 -46 17 -92q0 -42 -15.5 -74t-37.5 -58q-13 -15 -28.5 -16.5t-30.5 7.5q-22 11 2 38q38 81 1.5 126t-22 73.5t49.5 35.5z" />
    <glyph glyph-name="parenleft" unicode="(" horiz-adv-x="702" 
d="M532 2857v0q60 -2 44 -64q-11 -33 -24 -66q0 -2 -2 -4q-114 -286 -189 -632.5t-95 -713t26.5 -714t173.5 -637.5q3 -5 5 -11q11 -16 14 -33.5t-14 -32.5q-24 -22 -53 -18t-46 29q-13 22 -24 44q-3 4 -5 11q-132 275 -182.5 591.5t-39.5 650t69.5 655.5t146.5 606
q44 143 110 277q28 64 85 62z" />
    <glyph glyph-name="parenright" unicode=")" horiz-adv-x="702" 
d="M167 -69v0q-59 2 -44 64q11 33 24 66q2 2 2 4q117 286 190.5 632.5t94.5 713t-26 714t-173 635.5q-2 7 -6 13q-9 16 -12.5 33.5t14.5 32.5q24 20 51.5 17t45.5 -28q15 -22 24 -46q2 -4 4 -9q132 -275 184 -592.5t39.5 -650t-70.5 -654.5t-144 -606q-46 -145 -112 -277
q-27 -64 -86 -62z" />
    <glyph glyph-name="asterisk" unicode="*" horiz-adv-x="563" 
d="M407 2034v0q13 2 25 -2t17 -18q4 -13 -3.5 -20.5t-18.5 -14.5h-5q-2 -2 -6 -4q-20 -7 -35 -27q8 -13 17 -26q20 -33 38 -66q6 -11 -0.5 -22t-21.5 -15q-31 -7 -55 11q-9 6 -14 13l-11 11q-13 11 -19.5 14t-14 0t-21.5 -14q-6 -5 -11 -9q-13 -9 -24 -15q-20 -9 -42 -5
q-19 5 -24.5 19t5.5 32q4 6 11 15q4 5 8 11q20 27 17 38t-36 22q-14 4 -27 6q-15 5 -31 11q-4 2 -8.5 7.5t-4.5 10.5q-2 11 4.5 16.5t15.5 7.5q33 2 66 2h2q18 0 26.5 2.5t12 10t7.5 25.5q16 57 66 41q33 -8 31 -44q0 -39 38 -26q13 4 26 2z" />
    <glyph glyph-name="plus" unicode="+" horiz-adv-x="1115" 
d="M609 435q-4 -167 -24 -365q0 -3 -2 -5q0 -9 -3.5 -13t-18.5 -4q-44 -3 -46 26q-11 147 -13 301v62q-168 4 -366 20q-4 0 -6 4q-9 0 -12.5 3.5t-5.5 14.5q-2 46 27 48q147 16 301 18l62 2q0 66 2 132q0 84 2 165q-2 35 2 70q7 27 53 27q46 -2 51 -27v-88q2 -129 0 -279
h299q33 0 68 -4q26 -5 26 -51t-26 -51q-11 -2 -22 -2h-64q-134 -4 -284 -4z" />
    <glyph glyph-name="comma" unicode="," horiz-adv-x="398" 
d="M163 254v0q48 11 64 -39q17 -46 17 -93q0 -41 -15.5 -73t-37.5 -59q-13 -15 -28.5 -16t-30.5 8q-22 11 2 37q38 81 1.5 126.5t-22 74t49.5 34.5z" />
    <glyph glyph-name="hyphen" unicode="-" horiz-adv-x="893" 
d="M486 435l-81 2q-126 4 -275 20q-2 0 -5 4q-6 0 -8.5 3.5t-4.5 14.5q-2 46 20 48q112 16 227 18l46 2h83h225q24 0 50 -4q20 -5 20 -51t-20 -51q-6 -2 -17 -2h-46q-102 -4 -214 -4z" />
    <glyph glyph-name="hyphen" unicode="&#xad;" horiz-adv-x="893" 
d="M486 435l-81 2q-126 4 -275 20q-2 0 -5 4q-6 0 -8.5 3.5t-4.5 14.5q-2 46 20 48q112 16 227 18l46 2h83h225q24 0 50 -4q20 -5 20 -51t-20 -51q-6 -2 -17 -2h-46q-102 -4 -214 -4z" />
    <glyph glyph-name="period" unicode="." horiz-adv-x="383" 
d="M191 237v0q82 0 58 -79q-11 -31 -25 -58q-13 -24 -37 -31.5t-51 3.5q-22 9 -24 31q-2 35 2 72q7 66 77 62z" />
    <glyph glyph-name="slash" unicode="/" horiz-adv-x="1234" 
d="M1225 2562v0q7 -11 7 -31v-13v-11q-4 -13 -9 -26q-11 -38 -22 -75q-70 -216 -156 -420l-40 -106q-277 -706 -578 -1395q-101 -233 -196 -470q-26 -62 -51 -124q-13 -41 -41 -46q-40 -4 -52 24.5t8 79.5q11 30 22 59q103 260 209 517l8 22q181 433 359 870t348 879
q4 11 11 22q44 110 74 227q11 39 42 44q38 8 57 -27z" />
    <glyph glyph-name="zero" unicode="0" horiz-adv-x="1201" 
d="M1107 1500v0q4 -86 2 -174v-82q4 -319 -46 -633q-20 -108 -60 -209q-61 -152 -189 -251q-130 -97 -274 -88t-261 119q-70 68 -114 154q-134 257 -152 548q-13 226 19 445t102 435q57 189 161 358q64 112 189 93q86 -11 168.5 -33t161.5 -62q117 -62 174 -180
q105 -207 119 -440zM928 1112v0q5 238 -13 434q-9 81 -31 157t-50 151q-42 110 -123.5 168t-191.5 78q-33 7 -49.5 -1t-31.5 -41q-49 -90 -86 -184q-112 -302 -152 -619q-20 -182 -9 -362.5t73 -356.5q40 -123 110 -229q51 -77 128 -125q52 -33 107 -5q82 42 137 113
q55 74 85.5 156.5t48.5 170.5q18 95 26.5 188.5t13.5 181.5q4 66 8 125z" />
    <glyph glyph-name="one" unicode="1" horiz-adv-x="647" 
d="M427 136v0q11 -3 24 -5q53 -4 97 -33q4 -4 7.5 -10.5t3.5 -11.5q-2 -9 -6.5 -17.5t-11.5 -13.5q-31 -11 -61 -8q-93 13 -186.5 16t-185.5 3q-11 -2 -24 -2q-31 0 -62 11q-7 2 -14.5 11t-7.5 16q0 8 4.5 18t10.5 15q42 17 86 26q44 4 55 18.5t9 65.5q0 68 -2 134
q-5 99 -5 198q-4 486 25 970q4 81 0 165v84q-25 -25 -52.5 -37t-60.5 -7q-52 11 -50 61q2 13 4 27q55 195 130 385q22 59 84 72q121 22 129 -97v-33q11 -239 3 -477q-31 -581 -27 -1162v-37q2 -128 5 -257q0 -49 13 -64.5t66 -23.5z" />
    <glyph glyph-name="two" unicode="2" horiz-adv-x="1377" 
d="M1001 353v0q84 -63 148.5 -142.5t124.5 -162.5q2 -5 4 -9q11 -16 2.5 -33.5t-30.5 -21.5q-53 -7 -97 20q-108 61 -187 154q-40 50 -87 95t-111 81q-20 -20 -35 -38q-36 -37 -69 -70q-68 -64 -146 -111.5t-170 -71.5q-95 -22 -190 -9q-94 16 -126 75.5t8 147.5
q46 94 129 156q198 152 445 116q72 -11 101 51q185 332 279 697q49 185 64 377q18 169 -39 327q-44 117 -159 174q-86 40 -174 2q-74 -30 -123.5 -86.5t-78.5 -128.5q-73 -189 -37 -390q4 -26 8 -55q9 -35 14 -70q0 -9 -4.5 -17.5t-11.5 -15.5q-24 -15 -61.5 -9.5
t-54.5 27.5q-18 26 -27 57q-70 233 -2 464q59 172 174.5 253t252 90t253.5 -44q94 -42 152.5 -114.5t84.5 -169.5q31 -110 31 -221t-17 -221q-80 -515 -337 -970q-4 -9 -9 -18q-9 -13 -15 -26q-20 -33 9 -55zM581 386v0q2 5 2 9q0 2 2 5q0 8 -15.5 19t-32.5 11
q-101 -2 -192.5 -68t-131.5 -163q-11 -26 5 -48q11 -11 23 -12t23 3q99 35 177 99t140 145z" />
    <glyph glyph-name="three" unicode="3" horiz-adv-x="1166" 
d="M733 1326v0q149 -66 234 -184t129 -267q70 -225 24 -456q-44 -198 -178.5 -323t-336.5 -156q-121 -18 -242 -2q-108 17 -180.5 75.5t-103.5 166.5q-79 312 93 587q39 59 110 46q22 -4 33 -19.5t0 -33.5q-60 -114 -84 -239q-29 -170 29 -328q72 -198 281 -154
q326 70 394 400q31 156 3.5 303.5t-98.5 288.5q-35 68 -92 123q-48 49 -106.5 76.5t-133.5 18.5q-50 -13 -99 6q-9 5 -16.5 11.5t-9.5 15.5q-7 26 20 44l2 2q20 13 42 18q52 11 95 38.5t81 60.5q180 140 275 347q33 75 52 156q20 84 -19 161q-36 66 -96.5 89t-130.5 -3
q-134 -53 -216 -174q-63 -95 -92 -199.5t0 -222.5q20 -82 -68 -71q-64 5 -86 64q-33 86 -20 176q40 264 251 429q180 132 398 97q130 -24 198 -117.5t53 -223.5q-11 -77 -40 -148q-96 -233 -288 -400q-33 -29 -66 -59q-2 0 -2 -2.5v-4.5q-2 -2 -2 -4q2 -3 2 -5q4 -2 7 -4z
" />
    <glyph glyph-name="four" unicode="4" horiz-adv-x="1300" 
d="M1135 2316v0q75 -2 77 -68q0 -148 -13 -293q-53 -609 -77 -1223q-13 -273 7 -548q2 -18 2 -37q2 -53 -10 -73t-47 -20q-40 -4 -60 13.5t-26 70.5q-22 145 -35 290q-16 222 -5 445q2 19 2 41q7 82 -10.5 98.5t-99.5 14.5h-145q-125 0 -251 -3q-88 -2 -173 -8
q-29 -3 -55 -5q-40 -2 -77.5 -1t-74.5 14q-64 31 -33 95q28 46 66 90v2q130 165 256.5 334.5t242.5 345.5q104 161 192 330q41 79 127 57q20 -4 31 -20.5t9 -36.5q-16 -70 -53 -132q-4 -4 -7 -9q-143 -264 -323 -503l-194 -256q-50 -66 -101 -132q-9 -13 -24 -35
q-9 -13 -22 -33h189q205 2 396 0h13q62 -4 90.5 2.5t36.5 36t12 98.5l22 264l40 462q11 132 28 266q9 68 77 66z" />
    <glyph glyph-name="five" unicode="5" horiz-adv-x="1159" 
d="M640 1387v0q222 -6 308 -206q86 -212 77 -438q-2 -154 -50 -302q-58 -156 -182 -248.5t-279 -105.5t-303 68q-132 75 -193 214q-3 4 -3 6q-11 18 -13 39t16 38q26 18 60 12.5t54 -29.5q13 -20 24 -40q7 -13 16 -26q44 -73 114 -121q172 -112 343 6q117 88 156 229
q66 229 29 467q-18 94 -46 184q-18 49 -49 91q-68 92 -180 46q-132 -57 -222 -167q-13 -16 -24 -33q-11 -16 -22 -29q-62 -70 -148 -35q-33 15 -28 53q6 37 17 74q5 18 9 38q106 433 174 875q0 7 2 14q7 30 7 61q-3 55 11.5 75t60.5 20q200 6 398 9h139q11 0 22 -3h4
q14 -4 23.5 -10.5t12.5 -19.5q2 -20 -9 -30t-29 -14q-92 -25 -189 -22q-108 -3 -218 -5q-33 0 -45 -10t-14 -38q-46 -348 -126 -691q-2 -13 -2 -35q0 -13 -2 -31q152 73 299 70z" />
    <glyph glyph-name="six" unicode="6" horiz-adv-x="1168" 
d="M614 1258v0q242 -7 354 -214q112 -213 111 -427.5t-122 -423.5q-92 -154 -229.5 -201.5t-311.5 -7.5q-84 22 -146.5 73.5t-106.5 126.5q-51 79 -80.5 166t-47.5 179q-33 157 -33 317q-2 161 35 315q102 449 379 814q92 123 220 213q77 55 167 33q9 -2 16.5 -9.5
t9.5 -14.5q3 -9 -0.5 -19t-10.5 -14q-171 -112 -281 -274t-196 -342q-68 -136 -108 -286q-15 -66 42 -44q84 31 168.5 36.5t170.5 3.5zM788 228v0q105 178 107 387q0 161 -57 313q-31 83 -92 149q-66 73 -167 82q-218 17 -357 -154q-44 -49 -46 -113q-9 -211 44 -415
q18 -75 45.5 -145.5t73.5 -132.5q59 -85 156 -125q57 -20 112 0q117 46 181 154z" />
    <glyph glyph-name="seven" unicode="7" horiz-adv-x="1155" 
d="M1005 2208v0q18 0 36 2q30 5 59 0.5t44 -35.5q11 -24 0 -45t-26 -41q-18 -17 -27 -37q-9 -13 -17 -29q-5 -6 -9 -15q-139 -244 -253 -497q-49 -104 -99 -207q2 -5 4 -7q2 -6 5 -9q11 -8 24 -13q11 -6 19.5 -14t8.5 -21q0 -24 -16.5 -32t-35.5 -8q-7 -2 -14 -2
q-37 -6 -55.5 -29.5t-32.5 -53.5q-83 -165 -151.5 -338t-129.5 -347q-75 -224 -183 -433q-15 -29 -35 -46.5t-51 -17.5h-2h-13q-24 5 -39.5 21.5t-13.5 40.5q9 50 22 99q77 244 163 484t191 473q16 35 29 70q2 7 4 13v2.5v4.5q-2 2 -2 4q-9 9 -20 11.5t-22 2.5h-4
q-15 0 -31 2q-42 0 -83 2h-9q-24 0 -45 6.5t-32 33.5q-11 39 88 48h6q69 7 135 4q90 -4 127 82q108 231 222 460q44 85 91 171q30 55 59 110q7 13 1.5 24t-21.5 11q-44 7 -88 3q-134 -11 -268 -8t-269 10q-44 4 -88 6h-11q-26 0 -51.5 5.5t-44.5 25.5q-9 9 -8 23.5t10 20.5
q33 22 72 18q141 -13 281 -14.5t280 3.5q161 4 319 2z" />
    <glyph glyph-name="eight" unicode="8" horiz-adv-x="1274" 
d="M1126 1557v0q-37 -95 -90 -182t-127 -159q-11 -11 -25 -27l-17 -17q24 -27 46 -51q48 -48 90 -97q132 -147 157.5 -314t-47.5 -350q-66 -161 -191 -282q-115 -107 -259 -132.5t-282.5 26t-233.5 177.5q-92 127 -119.5 267t-1.5 289q42 240 205 421q55 63 104.5 97.5
t133.5 67.5q0 17 -8 27t-19 19l-13 13q-18 20 -35 40q-40 41 -75 85q-79 102 -46 229q13 49 33 95q97 202 288 317q95 57 205 61q151 -2 252.5 -92t118.5 -240q14 -150 -44 -288zM966 470v0q75 273 -108 488q-62 73 -132 135.5t-143 122.5q-7 4 -13 11q-9 -5 -16 -7
q-13 -4 -24 -9q-187 -129 -278 -343.5t-50 -434.5q20 -106 70.5 -193t141.5 -146q90 -64 157 -62t146 60q27 19 51 41q145 141 198 337zM750 1277v0q40 40 70.5 86t55.5 95q6 9 13 20q77 134 92 290q16 147 -83 257q-71 82 -161 25q-189 -110 -268 -313q-58 -130 33 -240
q105 -127 248 -220z" />
    <glyph glyph-name="nine" unicode="9" horiz-adv-x="1298" 
d="M1016 2006v0q163 -209 174 -471q20 -372 -110 -686.5t-396 -572.5q-90 -88 -200 -134t-231 -70q-37 -11 -75 9q-6 4 -9.5 11.5t-3.5 17.5t7 15q19 15 44 24q121 46 220 124t182 177q280 321 357 737q0 9 2 16q6 30 9.5 61t-5.5 62q-17 4 -31.5 -1.5t-27.5 -14.5
q-13 -6 -24 -11q-302 -110 -594 22q-88 40 -159 108q-86 90 -104.5 201.5t36.5 223.5q57 108 154 185q169 136 385 149q246 13 400 -182zM992 1484v0v16v8q-6 209 -110 390q-39 72 -105 125q-38 33 -81 50.5t-95 9.5q-124 -25 -215 -92t-146 -181q-44 -95 -23 -188.5
t100 -157.5q141 -105 268.5 -118.5t263.5 59.5q7 4 13 7q42 28 95 30q18 0 26.5 12.5t8.5 29.5z" />
    <glyph glyph-name="colon" unicode=":" horiz-adv-x="383" 
d="M191 950v0q82 0 58 -80q-11 -30 -25 -57q-13 -24 -37 -31.5t-51 3.5q-22 8 -24 30q-2 36 2 73q7 66 77 62zM191 213v0q82 0 58 -80q-11 -30 -25 -57q-13 -24 -37 -31.5t-51 3.5q-22 8 -24 30q-2 36 2 73q7 66 77 62z" />
    <glyph glyph-name="semicolon" unicode=";" horiz-adv-x="398" 
d="M163 254v0q48 11 64 -39q17 -46 17 -93q0 -41 -15.5 -73t-37.5 -59q-13 -15 -28.5 -16t-30.5 8q-22 11 2 37q38 81 1.5 126.5t-22 74t49.5 34.5zM207 941v0q81 0 57 -79q-11 -31 -24 -58q-13 -24 -37.5 -31.5t-50.5 3.5q-22 9 -24 31q-3 35 2 72q6 66 77 62z" />
    <glyph glyph-name="semicolon" unicode="&#x37e;" horiz-adv-x="398" 
d="M163 254v0q48 11 64 -39q17 -46 17 -93q0 -41 -15.5 -73t-37.5 -59q-13 -15 -28.5 -16t-30.5 8q-22 11 2 37q38 81 1.5 126.5t-22 74t49.5 34.5zM207 941v0q81 0 57 -79q-11 -31 -24 -58q-13 -24 -37.5 -31.5t-50.5 3.5q-22 9 -24 31q-3 35 2 72q6 66 77 62z" />
    <glyph glyph-name="less" unicode="&#x3c;" horiz-adv-x="1033" 
d="M132 551q-8 27 7 36q97 55 202 101l42 20l77 30l207 86q24 11 51 16q19 4 37 -40q18 -42 0 -55q-4 -4 -13 -9l-44 -17q-93 -42 -196 -84l-77 -29q-84 -30 -180 -61q94 -29 176 -60l77 -28q103 -42 195 -84l44 -20q9 -2 14 -6q17 -13 0 -55q-18 -44 -38 -40q-26 5 -50 13
l-207 86l-77 33l-42 18q-106 46 -202 103q-18 9 -3 46z" />
    <glyph glyph-name="equal" unicode="=" horiz-adv-x="893" 
d="M473 327l-88 2q-139 5 -301 20q-5 0 -7 4q-4 0 -7.5 3.5t-5.5 14.5q-2 46 22 48q121 16 248 18l51 2h90h247q26 0 55 -4q22 -5 22 -51t-22 -50q-9 -3 -18 -3h-53q-110 -4 -233 -4zM486 536l-88 2q-138 5 -301 20q-5 0 -7 4q-4 0 -7.5 3.5t-5.5 14.5q-2 46 22 48
q121 16 249 18l50 2h90h247q26 0 55 -4q22 -5 22 -51t-22 -50q-9 -3 -18 -3h-53q-110 -4 -233 -4z" />
    <glyph glyph-name="greater" unicode="&#x3e;" horiz-adv-x="1033" 
d="M757 551q16 -37 -2 -46q-97 -57 -202 -103l-42 -18l-77 -33l-207 -86q-24 -8 -51 -13q-19 -4 -37 40q-18 42 0 55q4 4 13 6l44 20q93 42 196 84l77 28q79 31 174 60q-97 31 -178 61l-77 29q-104 42 -196 84l-44 17q-9 5 -13 9q-18 13 0 55q17 44 37 40q26 -5 51 -16
l206 -86l77 -30l42 -20q106 -46 203 -101q15 -9 6 -36z" />
    <glyph glyph-name="question" unicode="?" horiz-adv-x="1971" 
d="M557 1174v0q8 -7 15 -14.5t9 -16.5q4 -11 -2.5 -17.5t-15.5 -8.5q-105 -33 -209 35q-143 92 -193.5 226.5t-24 287.5t113.5 300t219 271q132 118 317.5 192t390.5 67q183 -9 343.5 -97t250.5 -238.5t57 -346.5q-26 -123 -131.5 -278t-248.5 -338q-124 -160 -248 -335
t-218.5 -356.5t-130.5 -366.5q-4 -9 -6 -18q-9 -22 -20 -42.5t-24 -29.5t-31 6q-46 163 22 353.5t201 390.5t281 394q147 191 257 360.5t134 299.5q31 207 -38 326.5t-201 165t-290.5 29t-308 -81.5t-253.5 -164q-116 -115 -186.5 -256.5t-76 -291.5t75.5 -286
q24 -42 55 -70.5t79 -35.5q20 -4 36 -15zM836 -45v0q35 -9 35 -46q-4 -11 -6 -24q-3 -20 -11.5 -35.5t-30.5 -21.5q-55 -16 -95 19q-15 16 -23 33.5t-1 37.5q13 39 57 42q38 2 75 -5z" />
    <glyph glyph-name="at" unicode="@" horiz-adv-x="1228" 
d="M1192 378v0q18 -5 27 -16t4 -26q-44 -165 -135 -291.5t-248 -201.5q-215 -99 -424 24q-143 86 -244 218q-172 229 -110 508q63 273 277 449q130 106 276 139t305 -16q156 -48 225 -164.5t43 -279.5q-22 -128 -86 -240q-66 -123 -193 -90q-38 11 -63 2t-50 -35
q-44 -49 -107 -68q-86 -27 -146.5 9.5t-71.5 126.5q-18 187 112 321q64 62 149.5 61t145.5 -63q13 -13 18.5 -28.5t-3.5 -35.5q-11 -15 -26.5 -20.5t-34.5 -3.5q-22 0 -38.5 12t-32.5 28q-2 4 -6 6q-27 24 -51 -2q-55 -64 -78 -136.5t-8 -156.5q2 -15 16.5 -19.5t27.5 4.5
q55 44 93 106q11 15 19 33q11 17 22 37q71 90 159 13q2 -2 4 -9q5 -6 7 -8q6 -5 13 -7q4 -2 7 -2q59 103 63 222q7 132 -64.5 219t-201.5 109q-50 9 -98.5 -3.5t-92.5 -34.5q-123 -57 -205.5 -152.5t-133.5 -216.5q-53 -123 -55 -244t59 -242q51 -97 126 -168.5t167 -126.5
q57 -33 112 -28.5t108 37.5q167 105 262 279q20 37 35 79q11 24 22 49q29 68 103 44z" />
    <glyph glyph-name="A" unicode="A" horiz-adv-x="3613" 
d="M3518 505v0q7 -4 11 -14t4 -19q3 -22 -24.5 -30.5t-69.5 -11t-84 -2.5q-53 0 -79 -4q-26 -5 -30.5 -23.5t-0.5 -62.5q2 -24 5 -57q28 -478 116 -948q2 -9 5 -16q4 -17 4 -35q-4 -31 -37 -44t-69.5 1t-47.5 67q-13 71 -26 141q-22 97 -38 196q-57 334 -81 671
q-2 53 -17.5 66t-70.5 6q-128 -11 -253 -26q-348 -48 -698 -77h-4h-9q-116 2 -156 -117q-119 -325 -286 -627q-187 -343 -455 -629q-187 -191 -426 -312t-492 -169.5t-484 -25.5t-402.5 119t-248.5 264t-20 410q57 220 209 376.5t356.5 263t424.5 176t416 117.5
q288 73 611.5 132t618.5 84q77 2 103 77q18 50 40 99q9 22 17 41q42 102 84 205q143 365 308 736t372 712t475 618q68 66 143 127q35 29 98 44.5t107 -5.5t24 -105q-46 -173 -79 -351.5t-60 -356.5q0 -9 -2 -18q-62 -404 -76 -761.5t-12 -764.5q0 -44 4 -88q3 -31 31 -33
q49 -3 95 0q55 2 110 0q24 -3 46 -16zM1692 169v0q18 48 3.5 59t-62.5 4q-234 -30 -467 -67.5t-462 -92.5q-33 -9 -68 -16q-191 -46 -410 -108.5t-426 -159.5t-358.5 -242t-211.5 -350q-61 -255 29 -413.5t283.5 -227.5t436.5 -51.5t485 115.5t434 271q268 258 455 579
q101 167 182.5 343t156.5 357zM3208 2496v0q0 5 2 13q7 36 19 99.5t16 114.5q7 44 -3 52.5t-47 -35.5l-44 -52q-84 -93 -163 -192q-178 -229 -332 -516t-286 -595t-249 -600q-55 -135 -108 -260q-46 -108 -35 -129t101 -5q13 0 31 2q271 26 539 59q117 14 233 27q24 4 46 6
q40 5 82 9q26 2 38 15.5t12 44.5v41v22q-2 498 23.5 935.5t124.5 943.5z" />
    <glyph glyph-name="B" unicode="B" horiz-adv-x="2730" 
d="M2789.5 448q-15.5 -33 -122 -80.5t-243.5 -84.5q-24 -4 -50 -9q-51 -6 -55 -57q-13 -108 -35 -213q-82 -377 -333 -669q-277 -319 -654 -506t-797.5 -221t-822.5 98q-203 66 -374 189q-97 68 -165 160q-135 192 -18 396q75 128 218 225t321 167t360.5 119.5t339.5 87.5
q48 13 94 24q49 13 51 64q0 11 2 22v28l4 84q16 409 27 819.5t0 819.5q-2 79 -11 158q-5 42 -9 84q-7 68 44 81q88 20 112 -55q16 -61 20 -125q24 -260 22 -521q0 -22 2 -44v-16q13 -9 23 -6.5t17 8.5q152 152 292.5 311.5t261.5 340.5q101 147 156 319q20 74 20 151
q-4 141 -97.5 201.5t-237.5 64t-302.5 -29.5t-293 -80.5t-206.5 -86.5q-93 -49 -167 -119q-3 -2 -5 -5q-24 -19 -37 -43.5t4 -59.5q5 -13 -5 -23t-21 -14q-31 -11 -64 -11q-55 -5 -88 41q-15 25 -7.5 48t22.5 43q0 2 3 2q33 53 78 92.5t98 72.5q231 152 520 218t564 44
q117 -11 220 -62q218 -112 189 -356q-22 -141 -85 -267q-110 -217 -267 -404q-195 -238 -413 -454q-79 -79 -75 -94.5t81 -6.5q16 0 36 2q171 11 351.5 11t350 -35t311.5 -126.5t238 -264.5q104 -194 130 -412q2 -13 2 -26q7 -62 78.5 -57.5t168.5 35.5t156 58.5t73.5 7.5
t-1 -53zM2138 204v0q3 15 -6 24t-24 9l-168 -18l-22 -4q-400 -51 -781 -126q-215 -39 -437 -74q-62 -11 -58 -71q-2 -26 -6 -50q-9 -33 -44 -42q-38 -13 -75 2q-18 9 -22 22t-7 29q0 6 -2 13q-4 26 -14 34t-34 3q-84 -13 -224.5 -49.5t-304.5 -93.5t-315 -134t-250 -172.5
t-112 -207t97 -238.5q95 -106 222 -170q370 -187 770.5 -185.5t771 164t649.5 459.5q278 293 368 689q17 83 26 171q0 9 2 16zM2081 342v0q40 5 53 19t9 54q-13 185 -84 359q-83 195 -220.5 295.5t-309.5 132t-357.5 24t-364.5 -27.5q-26 -2 -52 -6q-38 -5 -48 -30t-7 -58
v-7q-7 -370 -38 -777v-13v-75q-6 -83 11.5 -97.5t98.5 5.5q90 15 178 33q280 53 564 92q283 38 567 77z" />
    <glyph glyph-name="C" unicode="C" horiz-adv-x="2738" 
d="M2787 435v0q-24 -31 -53 -60q-15 -17 -33 -35q-261 -297 -550 -567q-261 -247 -561 -443q-158 -101 -328.5 -170t-355.5 -100t-369 -11q-273 37 -420.5 183.5t-198 362t-31 458.5t81.5 472t139 403q156 356 369.5 675t490.5 596q39 40 32.5 52t-43.5 21q-18 2 -38 9
q-92 28 -180 59q-150 51 -298.5 95t-299.5 72q-135 24 -269 13q-97 -4 -180 -55q-57 -33 -97 -79t-46 -119q-7 -68 -95 -52q-57 8 -57 70q0 44 17.5 80.5t46.5 69.5q105 125 268 160q200 44 405 16q150 -22 294 -62t287 -86q13 -4 24 -6q44 -16 88 -29q110 -31 216 -70
q41 -16 74 -8t66 34q135 110 291 185q200 103 427 119q70 6 139.5 -4t132.5 -40q104 -53 120.5 -142t-60.5 -175q-71 -75 -170 -110q-118 -49 -246 -57q-128 -9 -255.5 -6t-252.5 28l-18 4q-46 11 -83.5 10t-76.5 -39q-330 -325 -577.5 -729t-395.5 -841
q-55 -154 -87 -342.5t-23 -377.5t80.5 -353t225.5 -274q130 -88 286 -94q233 -5 451 74q235 88 440 231q180 124 343 265.5t321 293.5q60 55 202 187t260 233q20 18 38 36q37 33 65.5 52.5t55.5 15.5q50 -5 -29 -99zM1894 2586v0q-165 -24 -310 -98.5t-284 -184.5
q123 -42 259.5 -53t250.5 6q102 16 194 62q59 29 99 79q33 51 21 97t-67 70q-79 33 -163 22z" />
    <glyph glyph-name="D" unicode="D" horiz-adv-x="2410" 
d="M2484 459v0q-4 -9 -10.5 -16.5t-15.5 -9.5q-31 -5 -62 -5h-15q-73 0 -148 -2q-28 0 -55 -2q-70 2 -96 -66q-88 -192 -201 -370q-154 -246 -346.5 -457.5t-429.5 -380.5q-288 -200 -650 -318t-740.5 -127.5t-712.5 119.5q-99 38 -188.5 93t-163.5 132q-64 64 -104 143
q-68 143 0 284q66 132 193.5 229.5t286 170.5t320.5 124.5t296 88.5q13 5 24 9q462 130 935 211q-2 146 -2 293q-9 594 -20 1190q-2 242 -33 482q-9 79 35 103q31 18 59.5 10.5t44.5 -40.5q19 -47 26 -99q18 -124 24 -249q13 -242 20 -484t0 -486q0 -220 -9 -438
q-4 -128 -6 -257l136 22q75 11 211 30q222 31 468.5 68.5t361.5 63.5q61 14 81 80q64 176 106 356q72 306 63 620q-4 159 -39 309.5t-112 291.5q-256 458 -770 554q-203 36 -402 23.5t-395 -60.5q-363 -86 -688 -266q-71 -38 -138 -82t-126 -99q-47 -48 -113 -46
q-28 2 -44 24q-6 14 -4 26t9 23q24 33 55 60.5t66 51.5q187 134 398 224q519 236 1089 247q231 4 455 -51q368 -94 611 -362.5t302 -642.5q42 -288 9 -567.5t-123 -552.5q-7 -22 -11 -40q-33 -83 -18.5 -102t106.5 -14h33h22q33 2 65 -1.5t63 -20.5q11 -7 16.5 -18t0.5 -24z
M1888 345v0q20 50 -33 46q-9 0 -18 -2q-132 -14 -261 -33l-88 -14q-377 -55 -751 -118v-69q0 -48 -3 -92t-19.5 -70.5t-51.5 -26.5q-53 7 -58 82q-2 35 0 72q0 18 -2 35v44q-255 -46 -508 -105q-18 -5 -35 -9q-150 -33 -345.5 -86t-392.5 -126.5t-357.5 -173.5t-242.5 -232
q-70 -128 -4 -255q55 -97 143 -163q132 -104 290 -154q227 -77 480 -82.5t500.5 46t462.5 148.5q322 147 577 372.5t455 514.5q152 213 262 451z" />
    <glyph glyph-name="E" unicode="E" horiz-adv-x="3421" 
d="M3496 437v0q-31 -35 -67.5 -71.5t-53.5 -51.5q-55 -49 -110 -95q-132 -116 -271 -226q-310 -245 -647 -456q-534 -332 -1159 -402q-240 -31 -482 8q-312 62 -475 228t-197 394t43 470t244 455q209 260 517 447t673 290q82 22 101.5 38.5t-3.5 31t-69 29.5q-46 18 -97 42
q-68 33 -130 79q-162 121 -187.5 271.5t86.5 318.5l22 30q11 16 22 31q9 13 4.5 24t-15.5 18q-35 20 -70 35q-18 9 -33 18q-163 77 -302 191q-28 24 -54.5 51.5t-44.5 63.5q-11 22 -1 42.5t32 27.5q31 11 58.5 6.5t47.5 -28.5q39 -53 135 -127.5t200.5 -135t168.5 -65.5
q35 -2 74 16q130 61 298.5 94t339 26.5t306.5 -63.5q73 -29 121 -93q62 -92 -22 -169q-66 -51 -149 -66q-108 -24 -216 -24t-216 11q-217 22 -422 92q-48 18 -70 11.5t-49 -46.5q-33 -46 -57 -99q-88 -200 73 -348q77 -70 194.5 -128.5t245 -86t233.5 -7.5q57 16 112 -6
q26 -11 26 -40q0 -31 -26 -37q-55 -14 -112 -22q-249 -31 -521.5 -117t-528 -225.5t-450 -334.5t-287 -444.5t-37.5 -553.5q46 -226 175 -345t307 -157.5t372.5 -24t370.5 58.5q220 55 422.5 146t391.5 212q234 150 456 317t440 341q9 7 34 31t60 55q176 141 216 123
q24 -6 30.5 -26t-21.5 -53zM1718 2417v0q-9 -2 -37.5 -12t-57 -24.5t-38.5 -28.5t21 -25q297 -106 609 -84q137 16 155.5 60t-44 86.5t-168.5 58.5q-90 9 -210 3.5t-230 -34.5z" />
    <glyph glyph-name="F" unicode="F" horiz-adv-x="1916" 
d="M1817 470v0q13 -11 21 -23t3 -30q-11 -26 -39 -28q-31 -3 -64 2q-150 11 -301 2q-66 -4 -132 -7q-42 3 -54 -10.5t-17 -57.5q-11 -88 -20 -182q-28 -253 -71 -522.5t-127.5 -518.5t-234.5 -440q-97 -123 -233 -196q-139 -75 -295 -42q-174 44 -216 214q-37 171 95 288
q68 62 154 26q20 -11 23 -30.5t-14 -30.5q-79 -44 -99 -115.5t4 -140t81.5 -100t136.5 1.5q92 46 161 123q160 180 249 432t134.5 526t71.5 527q9 81 18 156q2 4 2 11q4 20 2 38.5t-18 34.5q-8 4 -15 8q-13 9 -22 18t-4 29q2 13 13 19.5t24 13.5q4 2 9 4q13 7 18.5 18
t7.5 24q7 44 9 90q13 286 17.5 573t-13.5 575v33q-4 84 -14 120.5t-49.5 42t-129.5 0.5q-154 -4 -304 27q-77 13 -138 61q-84 75 -25 172q49 77 147 117.5t212 41.5t216.5 -40.5t161.5 -129.5q9 -18 18 -35q7 -11 11 -22q15 -27 24 -38t23.5 -12t40.5 6q143 26 286 55
q33 6 66 13q79 17 163 35q240 55 487.5 89t482.5 -8q70 -8 132 -44q11 -6 18.5 -17t3.5 -24q-7 -11 -16.5 -20t-20.5 -11q-33 -11 -64 -5q-163 49 -381 35.5t-450 -58.5t-441 -93q-127 -31 -233 -53q-9 -2 -15 -4q-5 -3 -9 -3q-46 -8 -42 -55q42 -248 39.5 -546t-17.5 -582
q-7 -123 -9 -233q-4 -51 8 -64t58 -11h209q95 0 187 -2h9q24 2 46 -1.5t44 -16.5zM990 2054v0q46 4 26 53q-61 127 -183 151.5t-230 -68.5q-31 -33 -25.5 -62.5t47.5 -47.5q57 -19 121 -26t145 -7h13q33 3 86 7z" />
    <glyph glyph-name="G" unicode="G" horiz-adv-x="3756" 
d="M3857 525v0q28 -7 37 -31q7 -26 -18 -44q-52 -35 -105 -70q-128 -86 -253 -174q-86 -62 -172 -125q-59 -44 -116 -86q-49 -33 -58 -95q-39 -244 -116 -482q-203 -594 -680 -1001q-88 -77 -188 -129.5t-219 -72.5q-108 -20 -213 13q-170 64 -168 244q7 97 53 183
q40 81 91.5 152.5t111.5 140.5q132 151 276 291t293 274q247 224 513 420q97 68 99 183q4 88 13 176q7 50 11 103q0 22 -2 49v30q-24 -13 -37.5 -30.5t-19.5 -35.5q-7 -8 -11 -19q-185 -304 -473 -511q-123 -88 -258.5 -137.5t-287.5 -53.5q-187 -5 -343 63.5t-284 202.5
q-138 143 -211 315.5t-92 370.5q-7 73 -7 146q-2 28 -2 59q-2 44 -46 48q-29 5 -60 9q-110 16 -218 35q-180 36 -347 104t-328 158q-11 7 -16.5 18t1.5 26q2 7 9.5 13.5t16.5 10.5q64 18 123 -13q51 -28 101 -53q328 -167 693 -204q49 -7 64.5 3t23.5 56l14 66q13 68 33 132
q79 275 226.5 505t369.5 410q341 275 776 291q372 4 519.5 -119t94.5 -332t-284 -460q-123 -134 -269 -234t-311 -177q-407 -192 -856 -234q-51 -4 -101 -11q-33 -4 -45.5 -15t-12.5 -40q-4 -250 69.5 -470t260.5 -396q38 -36 80 -64q277 -198 591 -64q141 66 259 163
t217 215q160 190 246 408.5t106 465.5q0 2 2 4q2 62 13 121q15 95 103 88q80 -2 88 -90q16 -145 18 -293q2 -332 -33 -662q-2 -31 -4 -64q0 -8 2 -17t11 -13h13t11 4q31 18 59 37q14 9 27 18q35 24 68 46l326 216q28 20 61 31t71 4zM1217 1088v0q-7 -31 -5 -64q2 -30 33 -30
q75 8 152 19q249 38 482 120.5t446 216.5q135 84 248 189.5t197 241.5q196 319 92.5 467.5t-471.5 104.5q-184 -24 -341.5 -101t-293.5 -200q-216 -196 -349 -438t-190 -526zM2229 -1532v0q596 513 739 1302q-33 -4 -55 -18.5t-40 -31.5q-6 -7 -15 -11q-372 -302 -706 -645
q-165 -163 -295 -352q-57 -86 -88 -185q-16 -48 -10.5 -93t41.5 -85q37 -37 83 -40.5t95 14.5q141 48 251 145z" />
    <glyph glyph-name="H" unicode="H" horiz-adv-x="4213" 
d="M4294 514v0q18 -2 32.5 -13t12 -44t-35.5 -95q-13 -33 -31 -64q0 -2 -2 -4q-226 -429 -422 -873q-99 -223 -240 -421q-42 -57 -88 -110q-46 -48 -110 -61q-165 -42 -213 123q-16 62 -18 125q-7 187 13 372q53 577 137 1153q2 4 2 9q15 70 4 138q-17 7 -28 2.5t-22 -13.5
q-80 -66 -161 -132q-207 -167 -416 -332q-68 -53 -72 -141q-22 -215 -62 -476t-114.5 -509.5t-202.5 -428.5q-66 -95 -163 -161q-59 -39 -127 -57q-137 -31 -234.5 28.5t-133.5 195.5q-44 198 12.5 395t175 382t262.5 343.5t279 276.5q19 18 41 36q25 19 48 41t36 49
q15 33 19.5 72.5t6.5 79.5q0 17 3 35q6 132 12.5 352t-5.5 481.5t-57 518t-140.5 463.5t-255 315.5t-401.5 73.5q-649 -99 -1129 -552q-180 -167 -277 -394q-44 -103 -58.5 -208.5t25.5 -213.5q57 -156 156 -276t253 -193q15 -6 33 -17q11 -9 10 -26.5t-17 -26.5
q-2 -2 -4 -5q-13 -6 -29 -11q-72 -15 -136 22q-156 95 -267 225t-169 306q-26 85 -22.5 174.5t27.5 177.5q37 129 105.5 239t156.5 209q160 183 367 315q183 114 377.5 199t405.5 131q220 51 445 20q242 -40 393.5 -195t235 -382.5t118 -483t38.5 -496.5t-2 -425
q0 -51 -2 -102q-3 -83 -5 -167v-4q0 -11 2.5 -22t17.5 -13q9 -3 17.5 1.5t15.5 11.5q235 185 469 374q44 35 85 72q25 22 51 42q57 46 64 121q35 427 79 852q35 343 75 684q9 70 33 136q48 121 155 146.5t208 -56.5q42 -39 72 -88q124 -198 146 -431q35 -385 -143 -728
q-139 -268 -346 -488l-2 -3q-42 -46 -86 -90q-37 -37 -42 -90q-24 -194 -48 -385q-42 -308 -77 -616q-24 -220 -44 -440q-9 -103 -18 -207q-17 -141 14 -279q4 -13 17 -15.5t22 6.5q27 29 49 62q129 180 222 385q108 231 213 464q90 185 196 363q33 59 68 119q13 24 36.5 60
t52 62.5t56.5 24.5zM3582 1350v0q0 -7 -3 -15q-2 -18 -3 -41t1 -39.5t13 -16.5t33 26q176 214 282 469q64 160 83.5 324t-13.5 336q-35 185 -140 339v2q-11 15 -24.5 27t-35.5 10q-13 -4 -22 -17.5t-13 -28.5v-2q-37 -110 -46 -225q-11 -99 -20 -195q-26 -238 -51 -476
q-19 -202 -35 -407q-4 -35 -6 -70zM2438 -38v0v6q2 11 1 21t-12 17q-14 4 -23.5 -2.5t-16.5 -13.5l-4 -4q-80 -77 -184.5 -196t-205.5 -263t-171.5 -298t-81.5 -301.5t64 -272.5q55 -97 147 -37q130 83 216 250.5t140 371t84.5 397t46.5 325.5z" />
    <glyph glyph-name="I" unicode="I" horiz-adv-x="1427" 
d="M1474 518v0q55 -6 57 -29t-22 -48.5t-53 -40.5q-94 -62 -179 -134.5t-166 -149.5q-70 -64 -81 -165q-16 -130 -50 -319t-89 -390.5t-132 -368.5t-178 -258q-49 -39 -104 -48t-112 7q-57 15 -84.5 55.5t-34.5 95.5q-17 150 39 336t144 362t169 297q95 152 214 284
q61 68 68 160q15 154 30.5 468.5t15.5 681t-30.5 680t-107.5 465.5q-22 37 -53 70q-40 44 -93 20q-59 -26 -107 -66q-137 -114 -228 -256t-127 -318q-26 -134 3 -266q19 -88 68.5 -150t135.5 -90q5 -2 7 -2q17 -5 31.5 -13.5t16.5 -30.5q-2 -36 -70 -40q-79 -4 -145 35
q-104 62 -154.5 153t-59.5 206q-13 174 44 339q112 308 368 512q110 93 257 99q185 2 268 -160q73 -143 107 -429t40.5 -623t-3 -631.5t-23.5 -455.5q-8 -64 5 -72.5t64 28.5q48 35 99 73q37 28 77 55q28 24 74.5 49.5t83.5 22.5zM810 -348v0q15 103 -5 91t-61 -83
q-49 -70 -118 -214t-127 -311q-39 -124 -63.5 -230.5t-26.5 -171.5t25.5 -59.5t89.5 106.5q110 183 180 423t106 449z" />
    <glyph glyph-name="J" unicode="J" horiz-adv-x="2466" 
d="M2530 523v0q16 -5 28 -13.5t14 -28.5q0 -20 -12 -30t-28 -12q-169 -35 -334 -97q-64 -24 -128 -44q-74 -24 -147 -52q-53 -20 -106 -38q-50 -20 -59 -75q-35 -173 -77 -347q-64 -255 -207 -510.5t-351 -462t-465 -314.5t-550 -66q-163 24 -284 134q-156 152 -94 363
q59 189 239.5 370.5t418 340t470.5 279.5t401 191q136 60 272 113q66 22 73 90q26 182 41.5 448.5t4.5 557t-67 544.5t-173 410q-178 231 -462 183q-198 -40 -385 -149t-331 -267.5t-214.5 -346.5t-36 -387t205.5 -388q73 -84 156.5 -150t193.5 -94q13 -3 23 -12.5t10 -23.5
q2 -17 -10 -28t-27 -16q-25 -8 -51 -8q-24 0 -48 6h-5q-35 9 -68 27q-304 171 -433.5 391t-116.5 456.5t143 453.5t347.5 379.5t492.5 235.5q181 48 368 24q312 -44 466 -319q93 -165 141 -402.5t62.5 -502.5t3.5 -511.5t-37 -427.5q-7 -41 5 -53.5t36.5 -7t50.5 16.5
q20 9 37 14q245 72 489 147q57 22 114 9zM1556 41v0q11 73 -58 44q-173 -70 -408.5 -185.5t-476.5 -265.5t-430 -323.5t-271 -360.5q-53 -126 -12 -229t166 -161q187 -81 363 -43.5t333.5 158.5t290.5 296t236.5 370.5t170.5 378t96 321.5z" />
    <glyph glyph-name="K" unicode="K" horiz-adv-x="2811" 
d="M3441 2782v0q13 -2 25 -6.5t19 -17.5q6 -13 2 -24t-13 -22q-18 -18 -40 -35q-9 -7 -15 -16q-583 -517 -1142 -1060q-260 -255 -499 -528q-38 -42 -41 -56.5t15.5 -11t49.5 12.5q15 4 33 9q6 0 11 2q57 13 113 24t116 9q250 -13 330 -253q24 -71 32.5 -143.5t11.5 -144.5
q4 -170 -3 -418q-4 -236 -2 -489t31 -469.5t101 -342.5q29 -48 77 -83q68 -49 143 -5q62 38 95 102q42 59 112 39q20 -4 30 -21.5t3 -35.5q-24 -68 -75 -117q-68 -63 -167 -82t-194.5 8.5t-157.5 100.5q-95 127 -133.5 347t-42.5 483t0 518q4 174 3 323.5t-12 262.5
q-9 103 -50 195q-71 148 -231 113q-102 -22 -194 -63t-180 -94q-60 -30 -66 -99q-49 -374 -126 -743q-44 -218 -114.5 -464.5t-169.5 -480.5t-231 -419q-68 -93 -156 -167q-121 -108 -281 -97q-157 9 -216 152q-55 140 -22 334t116.5 401.5t178 388t163.5 292.5
q134 218 285.5 422.5t314.5 402.5q9 11 20 25q18 22 35 44q44 50 49 116q17 163 33.5 397.5t17.5 488.5t-29.5 480.5t-112.5 373.5q-55 104 -169 84q-75 -15 -147 -40q-71 -22 -222.5 -100t-351 -195.5t-407 -264t-388 -307t-298.5 -323.5t-135.5 -312.5t101.5 -274.5
q64 -64 147 -99q275 -123 572 -66l22 4q27 7 52 9t52 -4q13 -5 22 -13.5t9 -22.5q0 -8 -5.5 -17t-14.5 -13q-40 -20 -82 -31q-360 -71 -704 61q-125 51 -220 150q-134 143 -117.5 312.5t142 348.5t323.5 355t429 335.5t454.5 286t402.5 208t274 103.5q75 16 152 13
q215 0 301 -195q75 -174 103.5 -407.5t27.5 -470t-19 -420.5q0 -16 -2 -29q-7 -68 -7 -134q0 -38 10 -50t41 23q341 383 715 730.5t759 682.5q24 20 46 42q84 70 165 143q51 46 117 39zM1316 430v0q0 7 2 16q4 11 4 22t-15 17q-11 5 -17.5 -1.5t-13.5 -15.5q-2 -5 -7 -9
q-13 -18 -26 -33q-2 -4 -7 -7q-121 -156 -272.5 -382.5t-290 -487t-220 -515t-59.5 -460.5q2 -27 13 -51q51 -152 172 -53q48 40 90 88q125 143 225 351t175 443.5t128 461t83 403.5q20 106 36 213z" />
    <glyph glyph-name="L" unicode="L" horiz-adv-x="1943" 
d="M3245 -821v0q18 -5 29 -17t8 -30q0 -15 -13 -24t-33 -11q-24 -2 -50 2q-172 27 -344.5 37t-344.5 14h-24q-121 4 -242 7q-134 4 -269 8q-187 5 -375 -1.5t-377 -20.5q-13 0 -29 -2q-11 -2 -22 -2q-74 -2 -114 -68q-26 -42 -62 -77q-6 -7 -11 -11q-99 -108 -222 -145.5
t-264 -17.5q-50 7 -97 33q-77 44 -81 99t66 110q86 57 187 79q123 33 249 57q11 0 19 3q60 8 87.5 17t43 31t34.5 70q7 16 16 38q64 141 103.5 288t70.5 297q162 783 195 1582q9 204 -1 407.5t-47 406.5q-13 83 -48 158q-33 68 -78.5 88t-119.5 -4q-148 -46 -273 -137
q-240 -171 -397.5 -400t-225.5 -519q-31 -126 -13 -253q15 -101 62.5 -178t146.5 -119q15 -7 26 -18q5 -2 7 -4q9 -7 6.5 -20t-13.5 -22q-33 -24 -72 -20q-93 9 -161 71q-101 90 -139.5 203t-29.5 245q13 172 77 335q105 275 284.5 488.5t436.5 360.5q84 48 174 78t187 30
q117 0 191.5 -49.5t114.5 -155.5q35 -103 53 -211q33 -220 39 -444q5 -339 -21.5 -675.5t-79.5 -671.5q-31 -209 -68 -415.5t-90 -411.5q-51 -185 -126 -363q-26 -57 40 -53q59 2 117 7q83 6 165 9q151 2 305 0h128q614 -3 1223 -69q44 -6 86 -19zM792 -980v0q2 2 10 12
t14.5 21t4 19t-17.5 5q-145 -15 -275 -81q-22 -11 -26.5 -22t4.5 -22q35 -42 91 -34t110 38.5t85 63.5z" />
    <glyph glyph-name="M" unicode="M" horiz-adv-x="4400" 
d="M4424 492v0q42 35 64 18.5t8 -60.5q-26 -75 -110.5 -205.5t-192.5 -260.5t-209 -203q-73 -50 -159 -57q-156 -11 -193 141q-18 90 -22 183q0 103 24 358q13 150 24 314t13.5 312.5t-14 247.5t-58.5 121q-31 13 -55 -3.5t-44 -40.5l-20 -20q-158 -159 -290 -343
q-220 -306 -418 -627q-53 -84 -115 -163q-57 -73 -149 -64q-86 9 -93 95q-2 59 7 118q55 370 80 789t-12 793q-18 196 -70.5 219t-184.5 -104q-93 -86 -170 -185t-145 -207q-130 -209 -234.5 -429t-194.5 -449q-123 -317 -226.5 -641.5t-197.5 -649.5q-3 -9 -5 -16
q-35 -112 -66 -224q-35 -117 -68 -233q-13 -35 -26 -73q-11 -31 -20 -64q-24 -72 -99 -74q-62 -5 -87 20.5t-17 89.5q18 136 40 272l26 172q91 603 143 1208q25 290 38 606t-7 628t-94 596q-27 104 -75 198q-79 150 -249 139q-88 -11 -167 -40q-176 -59 -374 -188
t-381.5 -307t-312.5 -383.5t-167.5 -420t54.5 -417.5q96 -193 272 -317q317 -224 702 -253h20q20 0 36.5 -3t31.5 -14q7 -7 11.5 -15.5t4.5 -17.5q2 -5 -3.5 -11.5t-10.5 -10.5q-15 -11 -31.5 -14.5t-34.5 -3.5h-8q-148 -6 -289 29q-316 66 -576 257q-2 0 -4 2
q-14 11 -27 20q-246 198 -305.5 438t22 490.5t260.5 481.5t411.5 415t476.5 288.5t453 99.5q147 -2 244 -68t152 -204q88 -223 124.5 -496.5t36.5 -570.5t-21 -591t-45 -553q-9 -99 -16 -192q-2 -20 -2 -46q2 -13 2 -31q20 24 31 48.5t18 48.5l4 18q86 259 182.5 516.5
t213.5 506.5q79 171 171.5 335t206.5 316q137 189 322 330q101 81 231 86q143 2 200 -124q44 -99 57 -204q40 -335 20 -720t-62 -717q-2 -4 0 -9q2 -2 2 -4q20 -4 30 5.5t17 25.5q4 6 6 11q183 295 392 567q94 117 196 229q8 11 19 22q66 75 154 123q75 44 163 44
q117 -4 176 -101q57 -99 71.5 -265t3.5 -363t-29 -390q-26 -262 -26 -436q2 -79 25 -96.5t60.5 4.5t79.5 63q66 64 127.5 140t118.5 153q53 73 103.5 135.5t99.5 106.5z" />
    <glyph glyph-name="N" unicode="N" horiz-adv-x="2612" 
d="M788 461q48 128 108.5 327t118.5 388q70 238 103 335q44 129 100 254.5t135 240.5q40 57 97 123t125.5 115.5t143.5 53.5q88 7 144 -24t91 -110q86 -189 100 -432t-10 -504t-59 -498q-35 -245 -48.5 -425t29.5 -254t175 3t387 348q18 20 33 37q40 44 69.5 66t62.5 13
q20 -6 16.5 -21.5t-14.5 -33.5q-4 -8 -8 -15q-25 -51 -60 -95q-116 -143 -237 -281q-84 -88 -190 -152q-94 -59 -204 -66q-161 -9 -214 145q-24 71 -19.5 206t22 297t37.5 311q22 165 31 266q15 190 20.5 384.5t-4.5 361.5t-43 268.5t-93.5 103.5t-156 -133t-231.5 -441
q-154 -405 -275 -823q-165 -579 -326 -1157q-68 -238 -134 -475q-7 -22 -13 -47q-11 -44 -25 -88q-13 -39 -40.5 -56.5t-66.5 -20.5q-86 -2 -91 84q3 101 14 202q19 137 48 330q44 286 94.5 647t89 746t47.5 740.5t-27.5 628t-137.5 411.5q-77 103 -202 70
q-172 -44 -311 -147q-336 -251 -503.5 -520.5t-196 -516t50.5 -431.5q86 -184 252 -266.5t351 -60.5q49 24 97 -5q13 -11 15.5 -27.5t-6.5 -29.5q-42 -46 -101 -46q-319 -7 -504 97.5t-256.5 284t-48.5 399.5t125.5 447.5t262 426.5t359.5 338q88 62 183.5 103.5t201.5 59.5
q57 9 114 9q203 0 308 -172q95 -152 131.5 -400.5t34 -530t-23.5 -537t-40 -417.5q-11 -99 -22 -196q-14 -97 -25 -196q0 -9 -2 -18q-4 -35 -6.5 -62.5t1 -35t14.5 13.5t33 82v0v0z" />
    <glyph glyph-name="O" unicode="O" 
d="M1250 2685q-119 80 -250 109.5t-272 -5.5q-176 -46 -324.5 -170.5t-235.5 -304t-78 -392.5q13 -255 150 -469q59 -90 127 -173q27 -38 44.5 -40t59.5 20q26 15 53.5 20.5t56.5 -3.5q22 -8 29.5 -24.5t-5.5 -32.5q-11 -13 -22 -24l-22 -22q-20 -24 -16.5 -39.5t29.5 -30.5
q121 -75 255 -117q5 -2 9 -2q27 -9 51 -20q6 -4 10.5 -13t4.5 -18t-5.5 -16.5t-11.5 -14.5q-27 -15 -55.5 -15t-57.5 9q-116 28 -224 83q-77 42 -104.5 35.5t-73.5 -81.5q-288 -442 -324 -968q-19 -244 66 -477q42 -121 135 -214q151 -145 354 -83q99 31 185 81
q209 130 363 319q198 247 316 537q82 194 148 462t95.5 570.5t1 596.5t-138.5 536t-323 391v0v0zM1573 -51q-88 -181 -205.5 -338t-271.5 -287q-137 -117 -302 -189q-167 -73 -347 -64q-291 15 -443 262q-94 162 -118 347q-25 161 -12.5 319.5t53.5 312.5q97 376 322 690
q15 22 33 44q13 20 28 38q20 31 -4 57q-16 18 -31 33q-24 24 -48 51q-117 132 -194 282.5t-101 328.5q-51 374 174 673q110 146 253 242.5t321 134.5q246 48 460.5 -12.5t392.5 -240.5q181 -192 269 -456t101 -567.5t-28.5 -609.5t-122 -577.5t-179.5 -473.5v0v0z" />
    <glyph glyph-name="P" unicode="P" horiz-adv-x="1674" 
d="M216 -637q4 29 8 55q9 62 11 121q14 344 25 689l4 128q2 30 -2 61q-2 16 -17.5 23.5t-31.5 0.5q-41 -15 -41 -57q-5 -103 -5 -204q-4 -205 2.5 -408.5t46.5 -408.5v0v0zM7 226q11 363 33 688.5t50 637.5v3q2 24 7 48q13 35 55 47t72 -10q7 -6 12.5 -15t5.5 -18
q0 -48 -4 -96v-18q-9 -152 -20 -306q-16 -266 -31 -534q-2 -31 0 -64q2 -13 7.5 -23t21.5 -12q39 -3 48 33q7 37 4 77q0 83 3 169q2 343 2 686v47q0 125 -4.5 250.5t-24.5 248.5q-11 73 44 79q82 16 106 -48q24 -77 31 -161q15 -176 18.5 -351t0.5 -351q-2 -281 -2 -563
q-2 -61 55 -42q38 11 73 27q345 136 640 365q183 143 321.5 322.5t205.5 369.5t38.5 366t-179.5 311.5t-450 207.5q-108 22 -215.5 29t-217.5 2q-282 -6 -549 -72t-516 -201q-163 -90 -293 -224q-83 -81 -129 -187q-55 -141 -9 -269.5t178 -199.5q11 -6 22 -11
q24 -11 44 -24q7 -6 10 -16t1 -19t-8.5 -15.5t-15.5 -10.5q-51 -16 -101 2q-119 33 -198.5 122t-105.5 208t13 240q57 145 170 253q123 123 270.5 211t309.5 147q416 154 861 172q138 6 274.5 -0.5t272.5 -34.5q326 -71 502 -209.5t225.5 -319t-2 -379.5t-178 -393.5
t-305 -361t-380.5 -278.5q-253 -138 -528 -224q-24 -9 -46 -13q-9 -3 -16 -5q-55 -13 -55 -72q-2 -71 -4 -139q0 -66 -2 -130q-3 -493 -55 -981q-9 -128 -47 -251q-28 -72 -107 -72q-66 -3 -95 52q-22 47 -33 97q-31 143 -47.5 289.5t-25.5 293.5q-24 361 -8 623v0v0z" />
    <glyph glyph-name="Q" unicode="Q" horiz-adv-x="1927" 
d="M929 -348q33 35 0 66q-110 134 -247 237q-72 55 -158 82q-152 52 -297 -9q-156 -73 -223 -178.5t-57.5 -212t86.5 -186t209 -100.5t306 47.5t381 253.5v0v0zM1072 -186q48 33 77 82q6 11 15 22q130 178 253 437.5t207 557.5t100.5 597.5t-65 559t-290.5 437.5
q-33 31 -71 55q-220 148 -475 75q-290 -84 -477 -321q-104 -137 -166.5 -288.5t-91.5 -316.5q-52 -302 4 -584.5t210 -544.5q42 -72 93.5 -136t124.5 -110q11 -7 16.5 -19t-1.5 -25q-4 -7 -12 -13.5t-17 -10.5q-79 -27 -145 26q-97 73 -165 174q-178 262 -251 570
q-66 290 -38.5 570.5t159.5 548.5q108 220 281 367.5t412 209.5q528 134 880 -282q148 -178 210.5 -405.5t57 -480.5t-60.5 -506t-140.5 -483t-187.5 -413q-125 -229 -292 -431q-27 -29 -34.5 -44t-1 -30.5t30.5 -42.5q154 -187 309.5 -315.5t361.5 -256.5q69 -44 73 -69
t-27.5 -36t-73.5 -11t-68 6q-212 119 -367 244.5t-309 312.5q-20 24 -42 46q-22 20 -46 5q-46 -36 -92 -69q-141 -101 -302 -167q-132 -55 -283.5 -67t-289 37.5t-227.5 177.5q-84 125 -67.5 247t103.5 222t210 164t255 75q293 22 522 -165q44 -35 85 -75q22 -22 47 -44
q13 -11 22 -22q22 -28 57 -42v0v0z" />
    <glyph glyph-name="R" unicode="R" horiz-adv-x="2028" 
d="M235 402q-8 9 -13.5 -55t-5.5 -166.5t3 -208t12 -176t22 -70.5q9 16 10 109.5t-2.5 214.5t-10 222t-15.5 130v0v0zM429 279q-4 -91 -9 -183q-6 -156 -15 -312q-11 -185 -29 -370q-6 -51 -22 -99q-22 -81 -99 -81q-81 -3 -103 77q-18 81 -27 165q-46 501 -52 1005
q-3 167 0 332q2 79 83 73q62 -2 64 -64q2 -68 2 -139q0 -50 2 -103q0 -18 7 -37q2 -7 2 -11q0 -3 2.5 -3h4.5h4t5.5 1.5t5.5 3.5q0 6 2 11q7 20 9 37q5 128 5 255q0 95 2 190q2 275 0 552q-2 176 -11 354q-5 77 -7 156q0 16 -2 31q-2 29 -2 57q4 99 97 84q50 -9 59 -60
q2 -24 7 -48q8 -64 13 -130q9 -273 9 -548q0 -268 -3 -536q0 -121 -2 -242v-18v-84q2 -35 15.5 -47t48.5 -8q471 36 895 240q238 115 429 297q143 139 212.5 281t81.5 272.5t-14 243.5q-46 193 -205.5 334t-397.5 219t-518.5 81.5t-566.5 -76.5q-215 -59 -413 -165
q-112 -59 -207 -147q-44 -40 -75 -86t-28 -110q0 -22 -15.5 -33t-37.5 -13q-24 -2 -51 2q-48 11 -55 62q-2 50 22 99q38 75 99 132q71 70 153.5 123t172.5 95q367 171 772 211q172 17 372 5t399 -61.5t369.5 -144t283 -244t138.5 -358.5q13 -134 -17.5 -259.5t-94.5 -244.5
q-121 -213 -315 -365q-182 -145 -388 -243t-430 -160q-209 -57 -425 -79v0q-13 0 -26 -2q-2 -2 -7 -2q-9 0 -14.5 -3.5t-7.5 -12.5q-4 -20 18 -26q20 -9 39 -16q16 -6 33 -13q344 -130 670.5 -297t638.5 -358q40 -22 73 -53q7 -5 9 -14.5t2 -18.5q-2 -16 -11 -23.5
t-22 -11.5q-53 -14 -97 17q-127 68 -257 134q-141 77 -284 152q-209 112 -424.5 208t-435.5 184q-7 2 -13 6q-20 9 -41 15.5t-36.5 0t-17.5 -34.5v0v0z" />
    <glyph glyph-name="S" unicode="S" horiz-adv-x="1291" 
d="M930 -615q51 -2 101.5 3.5t96.5 25.5q139 66 95 209q-24 73 -75 134q-59 75 -129.5 139t-145.5 123q-42 31 -79 -2q-115 -86 -207 -192q-40 -48 -68 -105q-60 -141 59 -238q57 -44 126 -64q110 -33 226 -33v0v0zM976 144q5 -19 17 -31.5t25 -20.5l18 -14q35 -30 70 -63
q66 -58 128 -115q90 -83 145 -193t28.5 -213.5t-162.5 -165.5q-57 -26 -121 -35q-123 -15 -247.5 -12t-245.5 36q-59 16 -114 42t-99 68q-157 143 -66 335q37 74 94 136q93 97 198 180q53 42 52 61t-61 54q-107 72 -217 143q-58 37 -115 75q-35 24 -70 46q-88 55 -174 116
q-97 69 -181.5 150t-148.5 183q-132 213 -98 435t193.5 428t401.5 371t525 267t563.5 117.5t515.5 -79t387 -325.5q27 -42 45.5 -89t18.5 -100t-48 -66q-33 -9 -60.5 1t-41.5 32q-2 6 -4 15q-2 5 -2 9q-101 279 -299 398t-448 111.5t-510.5 -109t-489.5 -258.5t-384 -337.5
t-192 -350.5q-38 -211 72 -391q88 -152 225 -260q105 -83 215 -158q99 -64 196 -126q134 -85 264 -173q37 -27 69 -24.5t67 26.5q174 105 343.5 193t188 48.5t-53.5 -92.5q-170 -90 -326 -202q-9 -4 -17 -11q-42 -22 -69 -62v0v0z" />
    <glyph glyph-name="T" unicode="T" horiz-adv-x="715" 
d="M255 899v-64v-125q2 -625 17.5 -978t36.5 -482t39.5 -82.5t28.5 220t4.5 426.5t-35 537t-91.5 548v0v0zM101 1359v59q2 22 2 44q0 31 12.5 54t45.5 34q24 7 30.5 22.5t4.5 34.5q-35 227 -73 454q-4 35 -19.5 43.5t-52.5 4.5q-214 -29 -447 -75q-152 -28 -298 -52.5
t-276 -30.5q-20 -3 -36.5 2.5t-27.5 27.5q-11 36 51 62q132 53 344 87t415 56q127 15 220 29q6 2 13 2q17 2 35 6q18 5 27.5 16t5.5 31v8q-4 16 -4 29q0 64 52 75q33 9 60.5 -2t34.5 -38q13 -64 51.5 -76t89.5 -3q801 90 1601 150q51 8 99 -14q14 -6 20.5 -17t1.5 -24
q-2 -7 -8.5 -14.5t-15.5 -10.5q-35 -8 -75 -11q-283 -15 -573.5 -47t-578.5 -69q-194 -24 -381 -46q-57 -7 -114 -16q-38 -4 -46.5 -16t-0.5 -52q51 -273 86 -548t66 -550q35 -323 61.5 -697t24.5 -747t-53 -694q-9 -68 -33 -134q-15 -38 -45 -53.5t-69 -12.5q-71 0 -101 61
q-47 115 -55 236q-53 589 -64 1137t-7 1124v161v0v0z" />
    <glyph glyph-name="U" unicode="U" horiz-adv-x="3551" 
d="M2673 919q-88 -207 -222 -471t-303.5 -532.5t-365.5 -487.5t-409 -333q-101 -55 -218 -64q-209 -9 -297 181q-75 162 -84.5 407.5t20 525t79 546.5t93.5 479q18 92 33 169q42 209 77 419t53 426q4 64 4 126.5t-15 126.5q-9 44 -27 83q-46 99 -151 95q-58 -4 -115 -20
q-116 -35 -220 -99q-136 -83 -305.5 -222t-333.5 -316t-281.5 -374t-153 -397t50.5 -387q88 -183 282 -242q24 -7 48 -11q27 -7 51 -15q26 -9 24 -40q0 -13 -10 -21t-23 -10q-64 -13 -128 2q-272 60 -398 311q-90 191 -62.5 394.5t136.5 402.5t263 378.5t318 322.5t302 235
q170 115 363 181q132 41 266 28q223 -20 278 -240q19 -83 20.5 -169t-7.5 -172q-18 -213 -53 -422t-79 -416q-9 -53 -20 -108q-9 -44 -20 -101q-39 -185 -86.5 -452t-76 -551t-12 -521.5t106.5 -367.5q29 -44 60.5 -51.5t80.5 14.5q187 79 366 266t344 435.5t304 515
t242 505t161 403.5q77 224 125 455q9 44 22 86q24 88 112 82q84 -3 88 -86q5 -97 0 -192q-13 -195 -28 -389q-16 -207 -31 -414q0 -17 -7 -59q-9 -79 -18.5 -197t-2 -229t49.5 -170.5t134 -21.5q70 33 262.5 188t239 177t55 1t-4.5 -43q-79 -108 -168 -207t-206 -171
q-134 -82 -292 -73q-108 9 -164 71.5t-75 156t-16.5 191.5t10.5 177q20 165 36 333q0 11 2 22q4 59 -1.5 71t-16.5 -4.5t-24 -45t-24 -54.5q-5 -14 -7 -20v0v0z" />
    <glyph glyph-name="V" unicode="V" horiz-adv-x="2944" 
d="M2369 -60q27 48 39 94.5t19 90.5l8 52q117 550 272 1089t364 1063q7 13 13 29q9 26 22 52q27 58 91 60q81 0 57 -82q-392 -1047 -625 -2140q-84 -405 -154 -812q-31 -172 -64 -343q-15 -90 -31 -183q-11 -59 -22 -119q-4 -24 -11 -48q-17 -48 -64.5 -62.5t-91.5 14.5
q-28 19 -31 55q-2 50 0 101q31 728 31 1456v163q2 227 -1 487.5t-24 525.5t-71.5 505t-143.5 420q-44 86 -105 159q-126 140 -317 125t-409 -147t-427 -345.5t-369.5 -471t-236.5 -522.5t-30 -501.5t253 -408.5q130 -108 279.5 -175t321.5 -76q33 -2 61 -17q7 -5 12.5 -13.5
t5.5 -15.5q0 -9 -5.5 -17.5t-12.5 -13.5q-22 -13 -48 -15q-95 -11 -191 9q-258 57 -476 209q-242 171 -326.5 405.5t-42.5 499.5t179.5 529t336.5 498.5t431 406t462 250.5t429 35t333 -244q97 -149 152 -321q86 -275 121 -605t40.5 -674.5t-0.5 -667.5q-3 -180 -3 -343v0v0
z" />
    <glyph glyph-name="W" unicode="W" horiz-adv-x="4150" 
d="M3226 1163q-5 -2 -9 -2q-7 -2 -7 -5q-66 -270 -121 -547q-31 -159 -64 -315q-101 -462 -281 -900q-42 -101 -95 -193q-35 -62 -86 -113q-90 -81 -191 -64.5t-163 122.5q-42 85 -55 182q-24 172 -24 343.5t15 345.5q44 526 106 1049q13 123 26 244q49 407 75 814
q9 187 -17 370q-36 220 -175.5 302.5t-347.5 51.5t-446.5 -148.5t-470.5 -295.5t-419 -392.5t-295 -437t-97 -429.5q13 -193 145 -332q126 -132 276.5 -203.5t335.5 -69.5v0q24 3 44 -2.5t31 -30.5q6 -19 -13.5 -38t-52.5 -23q-51 -7 -102 -2q-378 30 -646 299
q-119 119 -162 263t-21 309q37 248 195.5 494.5t395 464.5t510.5 382t543.5 247.5t493.5 61.5q341 -38 440 -368q42 -154 40 -314q2 -141 -8 -280.5t-23 -278.5q-2 -7 -2 -15q-33 -328 -73 -658q-48 -414 -85 -827q-20 -212 -29 -425t15 -427q9 -97 51 -185q24 -44 57 -2
q66 86 108 187q194 453 297 935q95 434 185 865q46 231 94 460q3 4 3 6q8 53 28 104q24 50 71.5 67.5t100.5 -4.5q48 -26 53 -81l4 -48q11 -97 15 -194q7 -196 11 -396q5 -244 13.5 -488.5t37.5 -479.5v-4q4 -69 33 -137q26 18 37 43t18 52q4 13 9 24q92 286 159 609.5
t122 644.5q38 224 77 431q55 275 108 550q2 2 2 7q3 15 7 31q15 41 55 55.5t79 -7.5q13 -9 16.5 -24.5t-0.5 -32.5q-16 -101 -31 -205q-27 -189 -60 -374q-33 -178 -68 -372q-59 -352 -133 -709.5t-179 -662.5q-29 -93 -82 -174q-33 -57 -96 -79q-146 -42 -203 101
q-22 61 -33 124t-17 127q-22 182 -30 372.5t-12 379.5q-2 101 -5 202q-2 25 -4 49q-2 13 -4 24v0v0z" />
    <glyph glyph-name="X" unicode="X" horiz-adv-x="2937" 
d="M2304 844q31 22 48.5 46t32.5 51q7 11 13 20q174 272 346 547q138 216 275 434q57 88 112 174q62 96 123 191q44 68 121 48q20 -4 31 -20.5t2 -34.5l-26 -48q-7 -9 -11 -20q-434 -743 -911 -1463q-2 -6 -7 -13q-8 -15 -19 -29q-36 -39 -38 -78.5t20 -86.5
q180 -409 385 -805q161 -319 359 -618q15 -20 28 -42q13 -20 20 -40.5t-11 -42.5q-20 -20 -56 -20t-61 20q-13 13 -22 28q-4 7 -8 13q-416 592 -709 1252q-4 11 -9 20q-8 20 -17 40q-7 11 -11 24q-5 15 -12.5 28.5t-25.5 17.5q-19 2 -30 -10t-20 -30q-5 -8 -9 -17
q-92 -137 -185 -271q-90 -134 -182 -268q-115 -167 -247 -324q-55 -66 -136 -55v0q-13 3 -24 7q-11 9 -16.5 20t-1.5 24q13 29 33 55q145 185 278 379.5t263 390.5q71 108 143 216l42 63q18 29 4 62v0q-6 11 -11 22q-50 132 -101 262q-116 303 -235 607q-95 244 -242 462
q-104 156 -251 271q-88 68 -191 101q-110 37 -227 9q-207 -49 -387 -159q-145 -88 -310 -239.5t-307 -344t-220 -401.5t-53 -410.5t195 -373.5q114 -110 249.5 -184.5t293.5 -105.5q33 -4 62 -15q8 -5 13.5 -12.5t5.5 -16.5t-5.5 -16.5t-11.5 -12.5q-22 -13 -46 -15
q-91 -9 -179 15q-305 93 -532 315q-172 174 -212.5 369.5t19 399t187 397.5t294.5 362t341 292.5t326 190.5q112 46 233 68q361 66 642 -169q172 -148 286 -341q73 -115 129 -236t105 -246q74 -192 147 -381q40 -101 77 -202q11 -27 24 -60q9 -15 18 -37v0v0z" />
    <glyph glyph-name="Y" unicode="Y" horiz-adv-x="3470" 
d="M2647 -302q-15 -5 -26 -7q-7 -2 -11.5 -3t-6.5 -3q-20 -20 -124.5 -119t-248.5 -248.5t-283.5 -313.5t-230 -311.5t-87 -245.5t146.5 -111q50 -4 101 7q73 19 143 55q222 114 340 294.5t173 397t88 443.5q13 83 26 165v0v0zM2748 697q-11 -25 -24 -49q-29 -59 -57 -121
q-172 -361 -442 -651q-84 -90 -179 -165q-176 -139 -404 -130q-152 9 -243.5 87t-134.5 198t-51 254q-11 161 -2.5 348t24.5 385q24 290 28.5 558.5t-46.5 466.5q-42 150 -131 205t-243 24q-119 -24 -231 -73q-132 -59 -296 -169t-313.5 -254t-243 -308t-89 -333.5
t151.5 -325.5q134 -143 300.5 -222.5t366.5 -79.5h13q26 3 49.5 -1.5t38.5 -33.5q9 -20 -18.5 -37.5t-76.5 -21.5q-134 -13 -266 20q-284 74 -501 270q-172 163 -210.5 335.5t25.5 343t198 328t305.5 288.5t348.5 224.5t327 135.5q163 44 330 24q249 -24 334 -258
q47 -134 59 -318.5t1 -396t-27 -422.5q-13 -163 -20.5 -310.5t-5.5 -265.5q2 -77 17.5 -181.5t54 -199.5t110 -143t185.5 -13q64 22 119 60.5t104 84.5q244 238 411 535q99 178 179.5 366t150.5 379q13 38 29 75q22 64 46 130q31 81 116 79q86 -2 93 -86q4 -171 -16 -343
q-28 -277 -57 -554q-13 -130 -28 -258q0 -11 2 -19.5t13 -10.5q7 -3 16.5 0.5t16.5 7.5q158 110 317 218q57 40 174.5 101.5t161.5 24.5q9 -27 -11 -47q-70 -68 -151 -121q-16 -11 -29 -22q-73 -48 -143 -99q-134 -92 -266 -187q-66 -46 -96 -74.5t-42 -67t-21 -113.5
q-2 -6 -2 -11q-4 -24 -9 -50q-30 -231 -81 -467.5t-146.5 -444.5t-264 -354.5t-440.5 -199.5q-141 -26 -278 16q-156 53 -166 175t82.5 287t244.5 344t318 346.5t303.5 291.5t203.5 182q37 33 60.5 70t27.5 90q20 196 44 394q11 95 22 189q2 22 0 44v20q-9 4 -20 7v0v0z" />
    <glyph glyph-name="Z" unicode="Z" horiz-adv-x="2327" 
d="M-44 -606q-31 -66 33 -108q59 -33 158 -12t204.5 74t189.5 112.5t114 105.5q-70 59 -214 51.5t-285 -68t-200 -155.5v0v0zM2741 2525h2q35 6 68 10.5t69 -4.5q37 -8 50 -34.5t-4 -61.5q-60 -113 -128 -220q-266 -436 -537 -869q-74 -119 -149 -240q-154 -253 -318 -505
t-349 -485t-400 -434q-16 -11 -27 -26q-8 -15 -4 -25t18 -17q99 -31 195 -66q135 -48 270 -90t278 -68q396 -66 700 193q28 29 61 44.5t75 8.5q13 -2 24 -6.5t18 -17.5t2.5 -24t-13.5 -22q-132 -134 -290.5 -211t-351.5 -84q-311 -7 -603 90q-225 73 -449 152
q-70 29 -128 -22q-118 -101 -264.5 -188t-307 -127.5t-319.5 -1.5q-134 38 -162.5 113.5t30 163.5t190.5 158.5t319 97t413 -17.5q88 -18 150 44q266 244 523.5 588.5t498.5 728.5t454 744q156 264 295 489q6 11 15 22q16 15 24.5 32.5t-0.5 33.5q-13 22 -35 21t-46 -8
q-11 -2 -24 -4q-222 -33 -456.5 -40t-469.5 -2q-289 4 -568 -7t-539 -72q-284 -73 -419 -208.5t-147.5 -296t73.5 -312t246.5 -257.5t371.5 -128q71 -6 141 -2q31 2 64 2h35q40 3 79 0q29 0 36 -28q2 -16 -3.5 -27t-18.5 -15q-5 0 -7 -2q-46 -18 -92 -24q-102 -7 -203 -6
t-202 23q-262 64 -429 207t-229 324.5t-3.5 363t251 320t533.5 195.5q246 38 490.5 45.5t488.5 7.5q284 -4 569 9t575 75v0v0z" />
    <glyph glyph-name="bracketleft" unicode="[" horiz-adv-x="592" 
d="M348 2762v0q-31 0 -33 -37q-82 -1316 -49 -2633q2 -42 5.5 -62t20 -30t51.5 -21h2q55 -19 108 -41q7 -3 11.5 -12.5t4.5 -18.5q0 -7 -5.5 -14.5t-12.5 -12.5q-20 -11 -42 -8q-103 22 -209 46q-66 13 -70 97q-2 17 -2 37q-5 37 -5 77q-13 634 2.5 1262t41.5 1257v22
q0 15 2 31q5 79 35.5 115.5t96.5 38.5q38 2 74 1t74 -14q13 -5 23 -15t8 -29q0 -18 -11 -27t-27 -9q-26 -2 -53 0h-41z" />
    <glyph glyph-name="backslash" unicode="\" horiz-adv-x="1234" 
d="M1225 -128q-19 -33 -57 -27q-31 5 -42 46q-30 117 -74 225q-7 11 -11 24q-170 442 -348 877.5t-359 869.5q-4 11 -8 24q-106 255 -209 517q-11 29 -22 57q-20 53 -8 81.5t52 24.5q28 -7 41 -46q25 -62 51 -126q95 -237 196 -468q301 -689 578 -1395l40 -106
q86 -207 156 -420q11 -37 22 -75q5 -13 9 -26v-13v-11q0 -20 -7 -33v0z" />
    <glyph glyph-name="bracketright" unicode="]" horiz-adv-x="592" 
d="M249 -36v0q30 2 35 37q81 1316 46 2636q0 42 -4.5 61.5t-20 28.5t-50.5 20q-2 2 -4 2q-55 18 -108 42q-7 2 -11 12t-4 17q2 8 7.5 16t11.5 12q20 9 40 7q106 -20 209 -44q66 -16 73 -97q0 -20 2 -37q2 -40 2 -77q13 -634 -1 -1262t-43 -1260v-19v-31q-7 -82 -37.5 -118
t-96.5 -38q-35 -3 -72.5 -0.5t-72.5 13.5q-16 4 -26 15t-7 29q2 17 13 26t24 11h55q20 -2 40 -2z" />
    <glyph glyph-name="asciicircum" unicode="^" horiz-adv-x="658" 
d="M436 2707v0q44 -85 81 -171q13 -27 24 -53q5 -11 7 -20v-6q0 -38 -31 -42q-51 -13 -86 26q-15 18 -24 42t-13 51q-9 37 -22 66q-11 22 -31 27.5t-33 -12.5q-11 -15 -28.5 -40.5t-33.5 -47.5q-13 -20 -22 -33q-41 -59 -70 -60.5t-36.5 29.5t16.5 68q16 25 33 51
q44 68 93 136q39 49 92 45.5t84 -56.5z" />
    <glyph glyph-name="underscore" unicode="_" horiz-adv-x="1250" 
d="M647 -142l-141 3q-218 2 -477 15q-5 0 -9 2q-9 0 -14.5 3.5t-7.5 12.5q-2 35 35 37q194 11 392 13l81 2h143h389q44 0 88 -4q36 -2 36 -40q0 -35 -36 -39q-13 -2 -28 -2h-82q-176 -3 -369 -3z" />
    <glyph glyph-name="grave" unicode="`" horiz-adv-x="495" 
d="M260 2809v0q8 -14 17 -29q33 -48 60.5 -97.5t43.5 -107.5q4 -19 3 -37t-19 -31q-15 -24 -45 8t-67 87q-46 66 -92 116q-20 18 -35.5 40t-11 42t50.5 31q9 0 18 2h8q20 2 39 -2.5t30 -21.5z" />
    <glyph glyph-name="a" unicode="a" horiz-adv-x="847" 
d="M916 503v0q11 -2 15 -6.5t9 -17.5q4 -13 -9 -31t-24 -29q-82 -77 -192 -92q-63 -9 -126 -4.5t-124 30.5q-44 22 -82 -13q-79 -72 -165 -138q-44 -33 -92.5 -55t-105.5 -25q-167 3 -132 163q2 7 5 11q48 130 127 234.5t200 174.5q80 47 172 36q24 -5 46 -18q27 -13 22 -42
q-2 -9 -8.5 -15.5t-13.5 -12.5q-4 -5 -10.5 -7t-13.5 -2q-66 -2 -113.5 -38.5t-86.5 -82.5q-44 -49 -81.5 -108t-61.5 -141q88 51 138 101q11 11 22 20q9 9 18 16q44 41 92 72q55 31 109 31t105 -44q70 -62 136 -48.5t123 46.5q58 35 102 35z" />
    <glyph glyph-name="b" unicode="b" horiz-adv-x="1148" 
d="M1210 499v0q46 -25 2 -67.5t-132 -91t-177 -88t-131 -57.5q-15 -7 -17 -9q-117 -57 -225 -121t-231 -125q-57 -31 -123 -9q-15 7 -20.5 24.5t5.5 28.5l6 6q44 38 93 66q63 40 99.5 111.5t56.5 146.5q15 61 20 123q4 26 -2.5 51.5t-30.5 40.5q-33 18 -71.5 -15t-74 -91.5
t-59.5 -115.5t-31 -88q-13 -55 -70 -59q-71 -9 -82 61q-19 161 -17 479t28.5 680t81.5 653.5t138 401.5q55 66 143 63q110 -2 150 -105q44 -119 42 -283t-29.5 -326.5t-58.5 -277.5q-55 -207 -124.5 -407t-163.5 -389q-5 -7 -7 -13q-13 -20 -19.5 -45.5t10.5 -60.5
q13 7 24 13q25 11 47 22q70 29 149 27q203 -18 205 -220q-2 -49 -11 -97q-11 -66 24 -68.5t103 33.5q5 2 14 6q50 24 151.5 72.5t195 86t119.5 33.5zM218 1548v0q-5 -55 -13 -150q-9 -114 -20 -236t-16 -193q33 44 70.5 183t71.5 306t56 293.5t25 146.5q2 17 7.5 81
t7.5 137.5t-5.5 127.5t-31.5 56q-7 -2 -13.5 -9.5t-11.5 -16.5q-13 -35 -22 -73q-2 -4 -2 -11q-44 -156 -67 -317.5t-36 -324.5z" />
    <glyph glyph-name="c" unicode="c" horiz-adv-x="792" 
d="M741 459v0q5 2 7 4q24 14 54 29t54 14t28 -32q-2 -46 -98.5 -97.5t-237.5 -98t-272 -74t-197 -24.5q-75 8 -110 54.5t-26 123.5q13 83 75.5 169t165 135.5t227.5 27.5q20 -2 33 -15q7 -5 12.5 -13.5t3.5 -17.5q-2 -27 -33 -34.5t-60 -7.5q-6 0 -13 -2q-79 -11 -155 -91.5
t-85 -174.5q0 -40 78.5 -38t189.5 32t211 66t148 65z" />
    <glyph glyph-name="d" unicode="d" horiz-adv-x="1439" 
d="M1520 503v0q33 -7 31 -38.5t-22 -62.5q-53 -79 -135.5 -139.5t-170.5 -85t-164 8.5t-117 141q-38 97 -44 200q-3 35 -4 175t-3 294t-2 231v37q-57 -207 -134 -429t-110 -297q-64 -138 -143 -270q-55 -86 -132 -154q-62 -55 -148 -66t-160.5 22t-98.5 114
q-25 95 -11.5 184t74.5 168q69 86 158 112.5t194 1.5q33 -8 66 -22q16 -6 33 -13q53 66 116 261t115.5 399.5t72.5 296.5q62 277 103 550q29 176 62 354q13 58 66 75.5t99 -17.5q22 -18 22 -44q-7 -322 -29 -647q-6 -132 -13 -258q-13 -248 -18.5 -496.5t5.5 -497.5v-20
q0 -50 9 -119.5t36.5 -118t88.5 -32.5q46 15 93.5 50t91.5 73q40 35 71.5 58t51.5 21zM257 217v0q55 62 96 132t80 156q-50 24 -97.5 37.5t-91.5 -4t-83 -83.5q-73 -130 -22 -271q13 -31 36 -27.5t46 24.5t36 36z" />
    <glyph glyph-name="e" unicode="e" horiz-adv-x="924" 
d="M213 391v0h-4h2h2zM913 492v0q11 7 35 16.5t46 11t31 -16.5q7 -13 3.5 -25t-12.5 -21q-55 -60 -170.5 -121.5t-239.5 -108.5t-206 -61q-94 -17 -191 -8q-119 15 -177 98.5t-47 187.5q17 116 106 184.5t204 50.5q70 -9 127 -51q62 -50 55.5 -115t-77.5 -100
q-37 -18 -82 -22.5t-105 0.5h-3h-9.5h-13.5q-18 0 -23.5 -10t-0.5 -25q33 -82 129.5 -86.5t219 36.5t232.5 95t169 91zM211 556v0q-15 -11 -20.5 -25.5t-6.5 -24.5t3 -12t25 -5.5t46.5 -1t42 11t11.5 30.5q-11 31 -42.5 39t-58.5 -12z" />
    <glyph glyph-name="f" unicode="f" horiz-adv-x="862" 
d="M858 472v0q59 46 84.5 28.5t-9.5 -85.5q-66 -101 -191.5 -129.5t-226.5 30.5q-35 22 -48.5 20t-14.5 -21t3 -45q0 -5 3 -11q11 -101 17.5 -230t-5.5 -255.5t-52 -220.5q-31 -66 -92.5 -88t-122 -2.5t-95.5 79.5q-31 57 -49 118q-33 126 -48 255.5t-20 261.5
q-9 289 26.5 677t109 770t179.5 650q33 73 112 59q55 -8 53 -59q-31 -130 -66 -268q-75 -286 -141 -602t-88 -655q-15 -220 -14 -440t32 -437q2 -36 9.5 -89.5t19.5 -102t24.5 -69.5t24.5 7.5t21 129.5q4 132 3 266.5t-19 268.5q-6 59 -13 121q-7 59 -15 119q-5 31 0.5 56
t36.5 43q75 31 130 -20q13 -11 22 -26q0 -3 2 -5q95 -136 192.5 -169t225.5 70z" />
    <glyph glyph-name="g" unicode="g" horiz-adv-x="977" 
d="M1082 512v0q20 -7 22.5 -28t-11.5 -38q-13 -16 -36 -39l-45 -45q-18 -15 -29 -26q-204 -203 -389 -423q-24 -26 -39.5 -55.5t-19.5 -67.5q-16 -158 -59 -391.5t-114.5 -457.5t-167.5 -354q-71 -90 -187 -99q-181 -5 -207 176q-18 176 49 371.5t177 377t220 307.5
q53 72 98 247t56 305q5 66 -8.5 72.5t-48.5 -15.5q-31 -17 -75 -33.5t-105 -14.5q-84 9 -122.5 64t-39.5 128.5t23 135.5q29 61 76 114t102 95q91 66 194 26q15 -7 25 -19t8 -29q-2 -16 -12 -23.5t-23 -9.5q-88 -33 -142 -112.5t-67 -154t22 -92.5q24 -4 62.5 23.5
t73.5 64.5t51 55q48 66 132 64q94 -2 94 -93q-2 -63 -13 -136q-13 -88 -13 -156q7 -64 64 -27.5t158 128.5q57 51 106.5 96t86 71.5t73.5 17.5zM132 -1200v0q48 132 113 375t76 380q-35 -57 -55 -79q-9 -11 -13 -20q-97 -152 -176 -313q-55 -114 -83.5 -222t-26.5 -235
q0 -51 11 -74t37 3q75 82 117 185z" />
    <glyph glyph-name="h" unicode="h" horiz-adv-x="1126" 
d="M1217 496v0q15 -4 20.5 -20.5t-9.5 -38.5q-44 -59 -131 -122t-189.5 -104.5t-197 -34t-153.5 88.5q-14 20 -27 40q-24 48 -64 88q-48 44 -88 0q-77 -84 -123 -187q-22 -51 -44 -101q-15 -38 -31 -73q-39 -99 -138 -68q-49 18 -55 66q-2 18 0 37v14q6 189 13 378
q13 447 31 893q4 97 6 194q7 191 18 380.5t33 378.5q11 75 35 147q24 60 81.5 84t120 9.5t104.5 -69.5q64 -92 73 -204q35 -350 -6 -668t-142 -652q-59 -198 -112 -346q-18 -48 -31 -85q-22 -66 -22 -82.5t18 0.5q108 115 223.5 110.5t222.5 -136.5q9 -13 18 -27
q26 -35 49.5 -57t51.5 -26q73 -11 155.5 36t163.5 111q84 66 126 46zM319 2307v0q-7 46 -14.5 51.5t-15 -12t-13 -46t-9 -53t-5.5 -30.5q-11 -148 -23 -376.5t-23 -453.5q-9 -182 -15.5 -309.5t-11.5 -154.5q71 194 106 465.5t39.5 524.5t-15.5 394z" />
    <glyph glyph-name="i" unicode="i" horiz-adv-x="613" 
d="M728 501v0q13 -7 12 -23.5t-10 -29.5q-68 -101 -146 -179t-171.5 -116.5t-214.5 -21.5q-81 13 -122 55t-61 119q-33 121 -15 249q15 74 92 77q69 0 75 -62q2 -51 0 -101v-13q-4 -137 44.5 -187.5t126.5 -26.5t166 110q11 11 27.5 30t36.5 38q28 29 46 49q55 55 114 33z
M79 778v0q-61 4 -70 66q-7 48 15 92q20 38 65 52t85 -8q15 -8 21.5 -22.5t4.5 -23.5q-2 -158 -121 -156z" />
    <glyph glyph-name="j" unicode="j" horiz-adv-x="713" 
d="M770 494v0q48 0 52.5 -30.5t-30.5 -68.5q-310 -312 -605 -640q-37 -40 -35 -95q0 -180 -32 -423t-87 -478.5t-128 -391.5q-19 -44 -42.5 -86t-58.5 -75q-112 -101 -204.5 -81t-151.5 114q-71 119 -68.5 268.5t57.5 313.5t138.5 321.5t173.5 291.5t163 222q44 59 66 181.5
t27.5 267.5t0 273.5t-12.5 201.5q-4 73 62 81q90 11 106 -63q19 -113 21.5 -234t0.5 -242q-3 -72 -3 -140q165 162 346 316q24 20 48 42q16 13 38 33q41 42 87.5 80.5t70.5 40.5zM-260 -1589v0q64 138 103.5 313t65 355.5t43.5 341.5q2 28 4 55q-59 -51 -134 -190.5
t-142 -320t-99 -349t-6 -278.5q27 -81 57.5 -74.5t60.5 56t47 91.5zM-26 914v0q-3 3 -3 5q-22 70 -33 143q-6 48 26 68t84 2q69 -22 84 -81q18 -75 9 -152q-11 -73 -99 -53q-53 13 -68 68z" />
    <glyph glyph-name="k" unicode="k" horiz-adv-x="1140" 
d="M1258 496v0q18 -8 12.5 -31.5t-21 -46.5t-26.5 -34q-99 -99 -214.5 -168t-253.5 -102q-69 -18 -136 -18t-116.5 38.5t-71.5 137.5q-66 -70 -117.5 -147t-93.5 -150q-4 -11 -11 -22q-11 -24 -26 -44q-25 -33 -58 -38.5t-68 3.5q-59 11 -61 86q-3 211 2 422q0 70 2 139
q2 165 9 327q0 36 2 71q9 347 26.5 682.5t57.5 685.5q6 66 26 142t63 133t117 64q102 4 146 -86q22 -46 33 -94q50 -258 28 -522q-28 -336 -130.5 -733.5t-208.5 -731.5v-26q-2 -82 -4 -163q2 -49 28.5 -38t63.5 51q44 44 80 84q41 46 85 91t110 93q33 29 80 38
q37 4 64.5 -4.5t36.5 -28.5q6 -24 -1.5 -40.5t-22.5 -32.5q-3 -4 -5 -6q-31 -38 -55 -93t-22 -105q9 -53 44 -62t79 5.5t75 29.5q154 71 282 176q4 5 11 9q24 24 63.5 46t96.5 13zM176 1009v0q-2 -42 14.5 22t40.5 199t48.5 309t38.5 352t12 330q0 22 -3.5 55t-9 65
t-13 48.5t-15 1t-16.5 -76.5q-33 -271 -61.5 -651.5t-35.5 -653.5z" />
    <glyph glyph-name="l" unicode="l" horiz-adv-x="835" 
d="M849 481v0q44 42 73.5 16.5t-0.5 -95.5q-69 -134 -176.5 -251t-244.5 -172q-59 -19 -119.5 -19t-119.5 15q-58 13 -96.5 49.5t-66.5 84.5q-84 159 -107 457t-4.5 651t58.5 676.5t81 534.5q20 88 60 167q44 82 136 75q86 0 119 -81q35 -104 40 -212q17 -255 -14 -508
q-30 -244 -76.5 -456.5t-96.5 -416.5q-64 -249 -121 -522q2 -28 6 -50q7 -77 21 -133t61 -138q44 -77 111 -81.5t137.5 37.5t129.5 100.5t92 106.5q9 13 33.5 48.5t48.5 69.5t35 47zM154 1011v0q28 73 57 234.5t52 359.5t35 377.5t8.5 287t-27.5 90.5q-35 -152 -46 -282
q-7 -68 -20 -202q-26 -233 -48 -496t-11 -369z" />
    <glyph glyph-name="m" unicode="m" horiz-adv-x="1320" 
d="M1386 505v0q20 2 32 -5.5t12 -29.5q4 -11 -8 -32t-27.5 -40.5t-23.5 -28.5q-73 -77 -161 -101.5t-189 -6.5q-49 9 -85 39.5t-63 74.5q-2 3 -4 5q-31 50 -68 99q-18 24 -34.5 24t-38.5 -22q-66 -62 -114 -139q-46 -68 -132 -61q-64 4 -84 66q-4 15 -4 31q-5 79 -34.5 46
t-58.5 -90q-11 -22 -26 -44q-15 -27 -31 -53q-15 -29 -33 -57q-31 -44 -86 -49q-101 -9 -114 88q-4 84 -7 167q-2 38 -4 77q-2 33 -2 69q-5 61 -7 121q-2 79 73 85q81 7 94 -66q9 -66 14 -132q0 -44 9.5 -53.5t18.5 -4t18 16.5v2q9 11 17 22q22 31 47 57q66 57 154 48
q77 -6 110 -74q11 -25 35 -7t64.5 42t89.5 33q116 24 198 -60q37 -41 72 -90q3 -4 7 -9q9 -13 18 -28q6 -13 15 -27q37 -48 78 -49t81.5 25.5t78.5 59.5q30 26 55.5 43.5t47.5 17.5z" />
    <glyph glyph-name="n" unicode="n" horiz-adv-x="1234" 
d="M1320 470v0h2q11 -2 22 -7.5t14 -21.5q6 -28 -16 -44q-90 -63 -193 -99q-93 -30 -187.5 -38t-191.5 1q-125 13 -202 119q-24 33 -49 66q-24 33 -50 68q-22 29 -55 7q-40 -29 -72 -65.5t-60 -75.5q-2 -5 -5 -9q-11 -13 -22 -29q-13 -24 -30 -44q-29 -33 -75 -42.5t-88 7.5
q-31 16 -40 46q-28 113 -35 227q0 62 57 73q66 15 95 -42q4 -9 6 -22q3 -13 8.5 -25.5t20.5 -20.5q18 15 33 28q35 31 68 60q40 33 84 47t94 14q117 0 185 -92q13 -20 27 -38q30 -46 63 -88q53 -68 141 -70q90 -4 172.5 16.5t159.5 62.5q3 2 7 5q26 15 53.5 24t58.5 2z" />
    <glyph glyph-name="o" unicode="o" horiz-adv-x="1054" 
d="M1107 523v0q37 6 46 -2.5t4 -28.5q-2 -35 -28.5 -61.5t-68.5 -46.5q-99 -46 -193.5 -53.5t-197.5 16.5q-46 13 -78 1t-65 -74q-82 -158 -260 -178q-134 -13 -198 50.5t-81 162.5q-20 102 8.5 191t94.5 166q51 55 126 46q35 0 55 -26q11 -18 4 -31t-20 -24v0
q-108 -113 -101 -267q2 -72 42 -132q35 -50 88 -15q50 40 88.5 110t44 144t-40.5 131q-24 22 -46 31q-11 6 -20 11.5t-9 14.5q-2 51 37.5 74t97 23t107 -23t64.5 -67q16 -57 9 -115q-2 -48 40 -74q94 -66 206 -47q47 9 85.5 24.5t73.5 33.5q46 24 86 35z" />
    <glyph glyph-name="p" unicode="p" horiz-adv-x="1377" 
d="M1401 510v0q64 6 84 -27t-102 -78t-242 -83.5t-257 -93.5q-70 -26 -135 -59t-120 -84q-64 -59 -152 -53q-19 2 -37 10t-26 25q-9 22 -0.5 38.5t24.5 27.5q26 29 59 49q86 50 141 127t95 165q26 66 -10.5 108t-97 40t-106.5 -66q-83 -137 -123 -293q-51 -178 -81.5 -360.5
t-54.5 -367.5l-22 -150q-22 -149 -27.5 -300t-5.5 -302v-20q0 -73 2 -145q0 -113 -2.5 -227t-13.5 -229q-2 -13 -2 -24q0 -13 -2 -26q-9 -97 -90 -97h-5q-11 0 -24 2q-57 7 -70 62q-11 44 -13 88q-20 325 11 651q2 13 4 28q13 157 24 315t7 319q-11 352 -20 704
q-7 233 -13 469q-2 44 -7 85q-4 33 -6 66q-3 64 48 80q77 17 108 -42q26 -66 28 -139q3 -37 5 -75q15 -151 13 -305q0 -16 2 -38q2 -11 13 -8.5t20 20t13 34.5q3 9 5 18q42 128 110 242q64 114 191 136q150 20 286 -46q128 -61 90 -200q-11 -42 -22 -66q-8 -24 -8 -34
t18.5 -9t66.5 14q80 22 159 51q66 24 133 44t137 29z" />
    <glyph glyph-name="q" unicode="q" horiz-adv-x="873" 
d="M986 494v0q13 -9 14 -26.5t-10 -37.5q-9 -17 -24.5 -33.5t-28.5 -29.5l-26 -22q-117 -110 -240 -216q-35 -31 -49.5 -48.5t-12 -37.5t17.5 -57q0 -2 2 -7q128 -347 189 -712q49 -291 40 -586q-4 -96 -33 -187q-15 -41 -41.5 -70t-72.5 -35q-53 -7 -96 6.5t-74 57.5
q-28 41 -48 88q-49 110 -74 224t-43 233q-57 352 -59 711q0 134 4 268q5 62 5 126q4 92 -12.5 101t-60.5 -29q-22 -15 -55 -35q-99 -64 -218 -57q-134 9 -116 145q4 44 22 86q94 215 292 345q77 49 170 51q46 4 83 -24q22 -22 11 -43t-39 -28q-146 -37 -226 -136t-133 -229
q-20 -44 2 -39.5t67 39.5t97 82.5t91.5 87l52.5 52.5q31 33 79 38q132 15 113 -119v-2q-11 -75 -20 -150q0 -22 13 -21t29.5 13t25.5 19l2 2q53 40 106 79q37 31 77 64q35 29 70 57q29 25 66.5 40t70.5 2zM678 -1165v0q-18 460 -137 905q-15 50 -30.5 61t-13.5 -46
q2 -79 5 -161q2 -187 26 -371q9 -60 18 -119q22 -181 63 -359q18 -68 31 -88t21 -5.5t12.5 48.5t5.5 71.5t-1 63.5z" />
    <glyph glyph-name="r" unicode="r" horiz-adv-x="863" 
d="M889 472v0q37 38 65.5 30t35.5 -42t-20 -76q-55 -81 -155 -174.5t-215.5 -163t-218.5 -75.5q-209 -11 -196 200q2 28 11 75q9 46 14.5 89t-5.5 58q-14 13 -31.5 13t-37.5 -4q-22 -5 -41 -2q-102 11 -106 105q-2 130 48 249q16 37 60 49t81 -10q24 -15 22 -41
q-4 -36 -13 -71q-4 -15 -7 -31q-19 -92 0.5 -95.5t85.5 49.5q49 35 108 29q79 -7 64 -88q-13 -55 -27 -112q-30 -117 -46 -236q-6 -81 29 -94.5t93.5 16.5t123 80.5t114 99t67.5 70.5q9 11 27.5 30.5t38.5 39.5q22 22 31 33z" />
    <glyph glyph-name="s" unicode="s" horiz-adv-x="789" 
d="M882 501v0q38 -7 42 -41t-35 -69q-38 -33 -73 -62q-88 -72 -189 -154q-79 -64 -145 -141q-49 -52 -73 -118q-26 -86 -88 -154q-35 -40 -80 -49t-94 5q-24 6 -36 25t-5 43q8 37 28 70q29 42 62 82q2 4 6 8q115 143 14 293q-25 33 -55 64q-9 11 -20 22q-18 22 -38 42
q-37 39 -72 83q-99 139 13 266q97 115 242 159q90 26 174 -16q81 -44 75 -136q-9 -62 -62 -73q-68 -13 -97 42q-9 22 -13 38q-4 17 -11 26t-22 5.5t-48 -23.5q-51 -30 -88 -79q-60 -72 -7 -154q18 -26 40 -48q24 -27 46 -53q44 -44 83.5 -90t68.5 -99q22 4 77 41.5t119.5 87
t117.5 89.5q44 35 62 48q15 11 37 16.5t44 3.5z" />
    <glyph glyph-name="t" unicode="t" horiz-adv-x="731" 
d="M792 494v0q22 18 33 12.5t15.5 -22t4.5 -32.5q-2 -30 -12 -57.5t-14 -36.5l-3 -2q-30 -77 -95 -152t-153 -121t-187 -40q-139 16 -221.5 107t-124 217.5t-55.5 249.5q-37 304 -22 612q3 75 5 150v52q0 49 -46 49q-49 0 -97 2h-108h-15q-38 -4 -71 13q-15 7 -25 19t-10 30
q2 17 14 27t30 10q64 2 128 2h77q50 0 101 5q28 2 35 33q4 37 7 74q8 121 17 242q7 84 13 165v5q0 17 3 33q17 70 94 66q66 -5 73 -73q2 -44 0 -90v-37v0h-2q-3 -51 -5 -102q-9 -114 -13 -231q-4 -61 11 -76.5t81 -13.5q124 -2 247 -2q88 0 176 -2h17q22 2 42 -1.5t40 -14.5
q6 -6 11.5 -12.5t8.5 -17.5q0 -11 -7 -18t-13 -11q-40 -22 -84 -18h-15q-132 0 -262 -2q-73 -2 -147 -2h-9q-33 0 -68 -2q-36 -5 -42 -40q-5 -20 -5 -39q-8 -194 -7 -388.5t25 -386.5q20 -154 81 -295q33 -77 80.5 -121t106.5 -37q110 18 170.5 78.5t102.5 130.5
q40 68 88 112z" />
    <glyph glyph-name="u" unicode="u" horiz-adv-x="1141" 
d="M1254 505v0q13 -2 18.5 -8.5t7.5 -19.5q0 -33 -60.5 -76t-132 -79.5t-101.5 -45.5q-102 -39 -199.5 -27t-170.5 102q-46 64 -69 58.5t-56 -56.5q-36 -57 -117 -136q-92 -68 -172.5 -63.5t-135.5 62.5t-71.5 149.5t18.5 194.5q29 82 121 68q24 -4 38.5 -20.5t7.5 -40.5
q-19 -82 -15 -163q-2 -53 20 -99q22 -40 60.5 -13.5t77 77t60.5 83.5q4 9 9 16q8 11 17 24q27 42 57 79q53 62 135 53q70 -4 99 -70q57 -146 168 -160t241 69q33 25 68 38t77 4z" />
    <glyph glyph-name="v" unicode="v" horiz-adv-x="599" 
d="M530 677v0q18 -5 28 -16t7 -30q-8 -44 -22 -86q-26 -88 -66.5 -170.5t-104.5 -153.5v0q-20 -22 -41 -40.5t-49 -27.5q-66 -20 -125.5 -4.5t-97.5 94.5q-68 152 -83 319q-5 60 39 71q38 11 70 2t43 -35q17 -46 26 -95q4 -13 7 -26q4 -22 8 -42q14 -57 28 -94.5t40.5 -30
t70.5 84.5q64 110 108 231q33 75 114 49z" />
    <glyph glyph-name="w" unicode="w" horiz-adv-x="961" 
d="M862 804v0q73 3 73 -68q-7 -108 -32 -212.5t-83 -200.5q-72 -128 -222 -119q-88 6 -141 72q-33 38 -47 34.5t-27 -29.5q-9 -13 -20 -29q-35 -48 -86 -77q-68 -37 -129.5 -20.5t-99.5 82.5q-44 81 -56 169t1 178q9 51 54 72t94 -3q30 -20 22 -58q-14 -59 -8.5 -119.5
t21.5 -117.5q13 -46 30.5 -39.5t35 36t28.5 53.5q3 5 5 9q9 18 15 38q7 15 16 33q22 50 53.5 66.5t86.5 10.5q55 -7 77 -58q3 -4 5 -11q28 -63 61 -125q25 -44 53.5 -17.5t53.5 84.5t43 114.5t20 73.5l4 22q9 44 20 90q15 66 79 66z" />
    <glyph glyph-name="x" unicode="x" horiz-adv-x="777" 
d="M825 499v0q44 22 52 5.5t-4 -49.5t-28 -58q-66 -107 -144 -177.5t-206 -86.5q-140 -15 -244 82q-17 17 -35 39q-20 25 -44 47q-7 6 -20 -8t-26 -34q-9 -13 -16 -20q-24 -29 -52.5 -35.5t-61.5 0.5q-31 4 -43 25t6 47q26 42 61 80q38 41 52 61t9.5 37.5t-21.5 46.5
q-9 15 -22 39q-27 51 -49 104q-11 28 2.5 48t41.5 24q36 7 63.5 -3t44.5 -43q18 -33 40 -66t50 -9q22 22 47 44q26 29 55 55q22 22 50 36q35 15 75 4q24 -7 32 -27.5t-6 -42.5q-33 -42 -70 -84q-4 -7 -11 -13l-40 -44q-6 -7 -11 -13q-8 -9 -15 -18q-33 -33 -44 -53t2 -42
t49 -66q4 -4 8 -11q66 -81 136.5 -75.5t137.5 60.5t125 121l11 11q28 37 63 62z" />
    <glyph glyph-name="y" unicode="y" horiz-adv-x="970" 
d="M1069 507v0q20 -4 27.5 -24t-5.5 -35q-90 -95 -196 -183q-99 -85 -196 -180q-57 -62 -66 -145q-2 -13 -2 -27q-24 -215 -64.5 -467t-120 -486.5t-215.5 -396.5q-44 -51 -99 -77.5t-126 -21.5q-151 15 -197.5 113t-15.5 249.5t109 325.5t175 339t182.5 289.5t134.5 179.5
q77 83 81 191q4 44 7 88q8 79 11 176q-31 -22 -55 -37q-40 -29 -73 -49q-97 -57 -209 -33q-84 24 -120 95.5t-35 159.5t32 157q20 44 65 56t87 -12q6 -5 11.5 -15t3.5 -18q-2 -22 -11 -44q-4 -14 -7 -29q-24 -101 14 -200q24 -62 79 -20q92 79 156 183q20 30 35 61
q9 13 16 27q44 66 121 57q85 -5 85 -88q-2 -115 -8 -227q-3 -53 -5 -105q-4 -44 8 -53t49 22q25 20 49 39q86 69 169 137q55 44 119 28zM90 -1363v0q86 106 159.5 309.5t121 421.5t51.5 365q-35 -7 -82.5 -80.5t-100 -187t-103.5 -236.5q-9 -22 -37.5 -112t-58 -203.5
t-44 -206t4.5 -121t89 50.5z" />
    <glyph glyph-name="z" unicode="z" horiz-adv-x="926" 
d="M1054 477v0q4 -7 4 -14q-2 -19 -17 -30q-18 -16 -36 -29q-17 -13 -35 -26q-68 -60 -136 -119q-110 -95 -220 -189q-29 -25 -36.5 -50t9.5 -60q36 -71 43.5 -147t0.5 -153q-22 -195 -150.5 -330.5t-324.5 -164.5q-77 -11 -149 16q-126 44 -108 178q15 95 66 178
q68 123 158 231q13 13 24 29q82 92 161 185q33 46 -22 63q-70 18 -139 -4q-48 -18 -101 -11q-20 2 -35 12t-20 32q-4 18 6 30t23 21q90 63 165 141.5t141 163.5q13 18 38 62t44 95.5t11 88t-60 38.5q-73 -4 -132.5 -52.5t-79.5 -121.5q-24 -103 -114 -68q-62 24 -53 90
q11 64 55 113q90 94 199 125t232 4q71 -13 100.5 -58t25.5 -120q-5 -90 -55 -167q-64 -101 -148 -191q-74 -86 -54.5 -116t83.5 -15.5t123 60.5q11 9 20 18q163 134 334 255q29 18 57.5 30t61.5 5q29 -4 40 -28zM99 -711v0q42 -29 109 8.5t128.5 123t90 201t-6.5 245.5
q-20 -20 -86 -97t-137.5 -176t-106.5 -184.5t9 -120.5z" />
    <glyph glyph-name="braceleft" unicode="{" horiz-adv-x="854" 
d="M711 15v0q15 -5 24 -19t4 -34q-6 -29 -35 -35h-4q-5 -3 -9 -3q-40 9 -79 16q-49 6 -97.5 18.5t-94.5 36.5q-90 53 -128.5 202.5t-44 337.5t5.5 353t22 249q9 77 7 151q-3 47 -47 55q-17 5 -37 3q-29 0 -52 7.5t-32 40.5q-4 26 10.5 45t33.5 36q16 11 29 25
q110 127 150 299q48 233 79 482q20 156 44 308q9 52 31 103q59 154 204 95q9 -3 14.5 -11.5t9.5 -17.5q3 -11 -2.5 -20t-14.5 -13q-44 -18 -72.5 -55t-35.5 -79q-20 -132 -35 -297q-13 -156 -35 -317t-66 -299.5t-124 -226.5q11 -9 18 -15q15 -13 29 -22q68 -44 63 -126
q-4 -90 -19 -231q-16 -145 -28 -312t-4.5 -320t49.5 -258.5t134 -129.5q20 -5 53 -7q49 -4 82 -15z" />
    <glyph glyph-name="bar" unicode="|" horiz-adv-x="312" 
d="M198 2872v0q4 -127 4 -255v-924v-339v0v-312v-1067q0 -68 -4 -139q-4 -52 -44 -52q-37 0 -42 55q-2 50 -2 101v2745q0 95 2 190q5 55 44 52q40 0 42 -55z" />
    <glyph glyph-name="braceright" unicode="}" horiz-adv-x="854" 
d="M143 2712v0q-15 6 -24 20.5t-5 34.5q9 26 38 33l2 2q4 2 9 0q39 -7 79 -13q48 -9 96.5 -20t94.5 -35q91 -53 129.5 -203.5t44 -337.5t-5.5 -353.5t-22 -249.5q-7 -75 -7 -152q2 -46 48 -55q18 -2 38 -2q26 2 49 -5.5t32 -40.5q7 -29 -8.5 -47.5t-35.5 -34.5
q-15 -13 -26 -26q-112 -128 -152 -299q-48 -234 -79 -480q-20 -156 -44 -308q-9 -55 -29 -106q-59 -151 -207 -94q-8 4 -13.5 13t-8.5 18q-4 11 1.5 19.5t14.5 13.5q44 17 72.5 54.5t35.5 77.5q19 132 35 297q13 156 35 317.5t66 299t123 227.5q-9 7 -17 16q-16 13 -29 22
q-68 42 -64 125q5 90 20 229q15 147 27.5 313.5t4.5 319t-49.5 258.5t-134.5 130q-20 4 -53 9q-48 4 -81 13z" />
    <glyph glyph-name="asciitilde" unicode="~" horiz-adv-x="1445" 
d="M1056 1874v0q44 -7 48 -44q7 -88 -81 -137q-68 -35 -145 -28q-130 -3 -214 79q-52 55 -77.5 54t-80.5 -59l-11 -11q-22 -22 -48.5 -24t-54.5 5q-20 6 -29 21.5t0 30.5q46 69 136.5 103t178.5 16q50 -15 83 -48q11 -11 22 -24q22 -22 44 -40q66 -53 115 15q6 14 13 27
q4 11 11 22q28 53 90 42z" />
    <glyph glyph-name="exclamdown" unicode="&#xa1;" horiz-adv-x="427" 
d="M207 1975v0q72 4 75 -64q17 -356 19.5 -722.5t-2.5 -729.5q0 -202 -2 -398q2 -84 -7 -167q-8 -64 -81 -62q-70 2 -79 64q-2 26 0 50v14q-2 70 -2 143q-3 387 4 831.5t40 987.5q2 9 2 15q0 18 6.5 28t26.5 10zM156 2204v0q-42 15 -35 88q4 22 13 46q16 64 40 132
q9 24 28.5 28.5t41.5 2.5h5q46 -3 55 -44q17 -95 -5 -187q-15 -47 -56 -64.5t-87 -1.5z" />
    <glyph glyph-name="sterling" unicode="&#xa3;" horiz-adv-x="1500" 
d="M1364 177v0q15 -6 20.5 -22.5t-2.5 -29.5q-53 -53 -124 -64q-112 -24 -226 11q-115 42 -211 114q-16 11 -29 24q-33 31 -75 44q-20 -17 -39 -37q-40 -42 -82 -79q-134 -115 -310 -86q-110 22 -143 102.5t31 174.5q44 62 105.5 91.5t134.5 34.5q52 2 105 -5q18 -2 33 -4
q42 -5 56.5 5t22.5 52q20 75 20 152t-9 152q-2 19 -14 28t-30 9q-26 2 -52 2q-18 0 -38 2h-15q-31 0 -60 5q-17 2 -29 11t-12 26q0 16 9.5 23.5t23.5 9.5q39 7 77 7q94 -5 113 16t8 107v15q-11 128 -14 256q-2 81 14 165q19 116 129 160q93 31 182 24.5t173 -59.5
q46 -29 66 -77q6 -22 -4 -43t-32 -30q-30 -8 -56.5 -1.5t-42.5 32.5q-35 68 -105 86q-86 20 -130 -57q-31 -62 -31 -134q-4 -205 27 -407q2 -29 14 -40t43 -11q57 0 114 -2q64 0 130 -2h7q19 0 38 -5.5t28 -30.5q8 -35 -75 -41q-66 -3 -130 -5q-57 0 -112 -2q-51 -2 -46 -51
q22 -184 -29 -365q-15 -39 20 -66q42 -31 83 -64q55 -39 113 -79q41 -28 88 -50q41 -22 83 -26.5t86 19.5q51 31 110 15zM554 305v0q7 15 0.5 29.5t-22.5 18.5q-28 5 -50 9q-9 0 -18 2q-68 -4 -115.5 -47t-51.5 -104q0 -42 27.5 -61t64.5 -1q106 53 165 154z" />
    <glyph glyph-name="dieresis" unicode="&#xa8;" horiz-adv-x="662" 
d="M517 2723v0q11 -7 20 -16q15 -26 10.5 -63.5t-23 -68t-47.5 -39.5q-41 -9 -68.5 12t-23.5 69q0 7 2 11q0 16 2 29q7 50 43.5 69t84.5 -3zM198 2721v0q37 0 60.5 -16.5t23.5 -43.5q-9 -105 -102 -105q-70 8 -66 90q9 75 84 75z" />
    <glyph glyph-name="copyright" unicode="&#xa9;" horiz-adv-x="1093" 
d="M1089 613v0v-68v-9q4 -211 -48 -372q-31 -103 -97 -187q-130 -165 -343 -171q-71 -5 -139 5t-134 41q-148 72 -223.5 193t-91.5 280q-13 152 31 288t132 260q26 39 62.5 66.5t89.5 29.5q17 3 35 9q4 2 9 5q169 57 317.5 20.5t282.5 -146.5q115 -92 117 -244zM942 527v0
v24q2 22 0 47q-7 158 -139 244q-92 61 -189 83t-207 -22l-22 -8q-26 -7 -47 -19t-39 -36q-81 -121 -123 -256.5t-22 -282.5q18 -130 81.5 -229t189.5 -156q228 -95 382 101q66 90 95 198q20 77 28.5 156t11.5 156zM673 558v0q11 -9 10 -25.5t-14 -22.5q-33 -18 -68 -11
q-14 4 -29 6q-20 5 -40 9q-28 4 -55 -13q-41 -33 -55.5 -86t5.5 -101q17 -40 40.5 -51t69.5 2q39 11 79 7q26 -2 35 -26q5 -14 -2 -22.5t-18 -15.5q-66 -37 -145 -33h-13q-18 2 -33 2q-106 18 -152 98.5t-9 179.5q60 143 216 149q97 5 178 -46z" />
    <glyph glyph-name="registered" unicode="&#xae;" horiz-adv-x="1120" 
d="M493 1002v0q127 11 242.5 -16.5t210.5 -123.5q174 -179 134 -427q-15 -99 -53 -192q-61 -156 -179 -226.5t-327 -65.5q-74 4 -172 51.5t-186 146.5q-163 196 -88 438q61 191 226 305q62 42 128 80q15 8 31 17q15 11 33 13zM851 199v0q80 150 88 333q-8 202 -178 332
q-127 97 -273 20q-156 -88 -239 -249q-60 -121 -42.5 -242t100 -214.5t214.5 -133.5q170 -50 282 88q2 3 4 5q25 28 44 61zM711 389v0q52 -38 90 -91q15 -24 5 -42.5t-38 -23.5q-51 -6 -86 31q-79 77 -180 121q-20 -17 -26.5 -37t-9.5 -42q-2 -22 -11 -44q-19 -46 -72 -44
q-60 2 -55 59q13 115 31 231q11 69 24 137q4 17 6 35q7 44 49 62q68 22 133 19.5t129 -35.5q26 -13 46 -33q35 -35 35 -78t-37 -76q-38 -33 -84 -59q-20 -13 -42 -29q18 -11 33 -22q31 -20 60 -39zM524 543v0q30 -5 51 8.5t41 32.5q13 14 13 32.5t-13 29.5q-24 18 -51 29
q-15 4 -27 -5t-14 -24q0 -13 -3 -29q-8 -37 3 -74z" />
    <glyph glyph-name="acute" unicode="&#xb4;" horiz-adv-x="495" 
d="M240 2809q11 17 29.5 21.5t38.5 2.5h7q8 -2 17 -2q46 -11 51.5 -31t-11 -42t-35.5 -40q-47 -50 -91 -116q-39 -55 -69 -87t-45 -8q-18 13 -19 31t6 37q13 58 40.5 107.5t60.5 97.5q9 15 20 29v0z" />
    <glyph glyph-name="periodcentered" unicode="&#xb7;" horiz-adv-x="382" 
d="M198 547v0q81 0 57 -79q-11 -31 -24 -57q-13 -25 -37.5 -32.5t-50.5 3.5q-22 9 -24 31q-2 35 2 72q7 66 77 62z" />
    <glyph glyph-name="periodcentered" unicode="&#x2219;" horiz-adv-x="382" 
d="M198 547v0q81 0 57 -79q-11 -31 -24 -57q-13 -25 -37.5 -32.5t-50.5 3.5q-22 9 -24 31q-2 35 2 72q7 66 77 62z" />
    <glyph glyph-name="cedilla" unicode="&#xb8;" horiz-adv-x="1445" 
d="M304 63h26q18 0 18 -26l-44 -60q85 -2 96 -72q9 -113 -171 -91q-119 27 -119 64q13 35 26 35h27q165 -85 167 -8q-97 22 -97 52q35 73 71 106z" />
    <glyph glyph-name="questiondown" unicode="&#xbf;" horiz-adv-x="1972" 
d="M1408 1145v0q-9 7 -15.5 14.5t-8.5 16.5q-2 11 3.5 17.5t13.5 9.5q106 33 209 -36q143 -92 194 -226t24.5 -287t-113.5 -300.5t-219 -270.5q-132 -119 -318 -192.5t-390 -67.5q-183 9 -343.5 97t-251 238.5t-57.5 348.5q27 121 132.5 276.5t248.5 337.5
q125 161 248.5 336t218 357.5t129.5 364.5q5 9 7 18q9 22 20 43t24 29.5t31 -6.5q46 -163 -22.5 -353t-201.5 -390.5t-280 -393.5q-148 -192 -258 -361.5t-134 -298.5q-31 -207 38.5 -327t201.5 -165t290.5 -28.5t308 81.5t252.5 166q117 112 188.5 254t76 291.5
t-77.5 285.5q-24 42 -54.5 70.5t-79.5 35.5q-17 4 -35 15zM1129 2364v0q-36 9 -33 46q2 11 4 25q4 19 12 34.5t32 22.5q53 17 92 -20q16 -15 23.5 -31.5t3.5 -38.5q-16 -40 -60 -42q-37 -2 -74 4z" />
    <glyph glyph-name="Agrave" unicode="&#xc0;" horiz-adv-x="3613" 
d="M3518 505v0q7 -4 11 -14t4 -19q3 -22 -24.5 -30.5t-69.5 -11t-84 -2.5q-53 0 -79 -4q-26 -5 -30.5 -23.5t-0.5 -62.5q2 -24 5 -57q28 -478 116 -948q2 -9 5 -16q4 -17 4 -35q-4 -31 -37 -44t-69.5 1t-47.5 67q-13 71 -26 141q-22 97 -38 196q-57 334 -81 671
q-2 53 -17.5 66t-70.5 6q-128 -11 -253 -26q-348 -48 -698 -77h-4h-9q-116 2 -156 -117q-119 -325 -286 -627q-187 -343 -455 -629q-187 -191 -426 -312t-492 -169.5t-484 -25.5t-402.5 119t-248.5 264t-20 410q57 220 209 376.5t356.5 263t424.5 176t416 117.5
q288 73 611.5 132t618.5 84q77 2 103 77q18 50 40 99q9 22 17 41q42 102 84 205q143 365 308 736t372 712t475 618q68 66 143 127q35 29 98 44.5t107 -5.5t24 -105q-46 -173 -79 -351.5t-60 -356.5q0 -9 -2 -18q-62 -404 -76 -761.5t-12 -764.5q0 -44 4 -88q3 -31 31 -33
q49 -3 95 0q55 2 110 0q24 -3 46 -16zM1692 169v0q18 48 3.5 59t-62.5 4q-234 -30 -467 -67.5t-462 -92.5q-33 -9 -68 -16q-191 -46 -410 -108.5t-426 -159.5t-358.5 -242t-211.5 -350q-61 -255 29 -413.5t283.5 -227.5t436.5 -51.5t485 115.5t434 271q268 258 455 579
q101 167 182.5 343t156.5 357zM3208 2496v0q0 5 2 13q7 36 19 99.5t16 114.5q7 44 -3 52.5t-47 -35.5l-44 -52q-84 -93 -163 -192q-178 -229 -332 -516t-286 -595t-249 -600q-55 -135 -108 -260q-46 -108 -35 -129t101 -5q13 0 31 2q271 26 539 59q117 14 233 27q24 4 46 6
q40 5 82 9q26 2 38 15.5t12 44.5v41v22q-2 498 23.5 935.5t124.5 943.5zM3316 3429v0q8 -13 17 -29q33 -48 60.5 -97.5t43.5 -106.5q4 -20 3 -37.5t-19 -30.5q-15 -25 -45 7t-67 87q-46 66 -92 117q-20 17 -35.5 39t-11 42t50.5 31q9 0 18 2h8q20 2 39 -2t30 -22z" />
    <glyph glyph-name="Aacute" unicode="&#xc1;" horiz-adv-x="3613" 
d="M3518 505v0q7 -4 11 -14t4 -19q3 -22 -24.5 -30.5t-69.5 -11t-84 -2.5q-53 0 -79 -4q-26 -5 -30.5 -23.5t-0.5 -62.5q2 -24 5 -57q28 -478 116 -948q2 -9 5 -16q4 -17 4 -35q-4 -31 -37 -44t-69.5 1t-47.5 67q-13 71 -26 141q-22 97 -38 196q-57 334 -81 671
q-2 53 -17.5 66t-70.5 6q-128 -11 -253 -26q-348 -48 -698 -77h-4h-9q-116 2 -156 -117q-119 -325 -286 -627q-187 -343 -455 -629q-187 -191 -426 -312t-492 -169.5t-484 -25.5t-402.5 119t-248.5 264t-20 410q57 220 209 376.5t356.5 263t424.5 176t416 117.5
q288 73 611.5 132t618.5 84q77 2 103 77q18 50 40 99q9 22 17 41q42 102 84 205q143 365 308 736t372 712t475 618q68 66 143 127q35 29 98 44.5t107 -5.5t24 -105q-46 -173 -79 -351.5t-60 -356.5q0 -9 -2 -18q-62 -404 -76 -761.5t-12 -764.5q0 -44 4 -88q3 -31 31 -33
q49 -3 95 0q55 2 110 0q24 -3 46 -16zM1692 169v0q18 48 3.5 59t-62.5 4q-234 -30 -467 -67.5t-462 -92.5q-33 -9 -68 -16q-191 -46 -410 -108.5t-426 -159.5t-358.5 -242t-211.5 -350q-61 -255 29 -413.5t283.5 -227.5t436.5 -51.5t485 115.5t434 271q268 258 455 579
q101 167 182.5 343t156.5 357zM3208 2496v0q0 5 2 13q7 36 19 99.5t16 114.5q7 44 -3 52.5t-47 -35.5l-44 -52q-84 -93 -163 -192q-178 -229 -332 -516t-286 -595t-249 -600q-55 -135 -108 -260q-46 -108 -35 -129t101 -5q13 0 31 2q271 26 539 59q117 14 233 27q24 4 46 6
q40 5 82 9q26 2 38 15.5t12 44.5v41v22q-2 498 23.5 935.5t124.5 943.5zM3401 3420q11 18 30 22.5t39 1.5h6q9 -2 18 -2q46 -11 51.5 -30.5t-11 -41.5t-36.5 -40q-46 -51 -90 -117q-40 -55 -69.5 -86.5t-44.5 -7.5q-18 13 -19 30.5t5 37.5q14 57 41.5 106.5t60.5 98.5
q8 15 19 28v0z" />
    <glyph glyph-name="Acircumflex" unicode="&#xc2;" horiz-adv-x="3613" 
d="M3518 505v0q7 -4 11 -14t4 -19q3 -22 -24.5 -30.5t-69.5 -11t-84 -2.5q-53 0 -79 -4q-26 -5 -30.5 -23.5t-0.5 -62.5q2 -24 5 -57q28 -478 116 -948q2 -9 5 -16q4 -17 4 -35q-4 -31 -37 -44t-69.5 1t-47.5 67q-13 71 -26 141q-22 97 -38 196q-57 334 -81 671
q-2 53 -17.5 66t-70.5 6q-128 -11 -253 -26q-348 -48 -698 -77h-4h-9q-116 2 -156 -117q-119 -325 -286 -627q-187 -343 -455 -629q-187 -191 -426 -312t-492 -169.5t-484 -25.5t-402.5 119t-248.5 264t-20 410q57 220 209 376.5t356.5 263t424.5 176t416 117.5
q288 73 611.5 132t618.5 84q77 2 103 77q18 50 40 99q9 22 17 41q42 102 84 205q143 365 308 736t372 712t475 618q68 66 143 127q35 29 98 44.5t107 -5.5t24 -105q-46 -173 -79 -351.5t-60 -356.5q0 -9 -2 -18q-62 -404 -76 -761.5t-12 -764.5q0 -44 4 -88q3 -31 31 -33
q49 -3 95 0q55 2 110 0q24 -3 46 -16zM1692 169v0q18 48 3.5 59t-62.5 4q-234 -30 -467 -67.5t-462 -92.5q-33 -9 -68 -16q-191 -46 -410 -108.5t-426 -159.5t-358.5 -242t-211.5 -350q-61 -255 29 -413.5t283.5 -227.5t436.5 -51.5t485 115.5t434 271q268 258 455 579
q101 167 182.5 343t156.5 357zM3208 2496v0q0 5 2 13q7 36 19 99.5t16 114.5q7 44 -3 52.5t-47 -35.5l-44 -52q-84 -93 -163 -192q-178 -229 -332 -516t-286 -595t-249 -600q-55 -135 -108 -260q-46 -108 -35 -129t101 -5q13 0 31 2q271 26 539 59q117 14 233 27q24 4 46 6
q40 5 82 9q26 2 38 15.5t12 44.5v41v22q-2 498 23.5 935.5t124.5 943.5zM3514 3387v0q44 -86 81 -171q13 -27 24 -53q5 -11 7 -20v-7q0 -37 -31 -41q-51 -14 -86 26q-15 18 -24 42t-13 50q-9 38 -22 66q-11 22 -31 27.5t-33 -11.5q-11 -16 -28.5 -41t-33.5 -47
q-13 -20 -22 -33q-41 -60 -70 -61t-36.5 30t16.5 68q16 24 33 51q44 68 93 136q39 49 92 45.5t84 -56.5z" />
    <glyph glyph-name="Atilde" unicode="&#xc3;" horiz-adv-x="3612" 
d="M3518 505v0q7 -4 11 -14t4 -19q3 -22 -24.5 -30.5t-69.5 -11t-84 -2.5q-53 0 -79 -4q-26 -5 -30.5 -23.5t-0.5 -62.5q2 -24 5 -57q28 -478 116 -948q2 -9 5 -16q4 -17 4 -35q-4 -31 -37 -44t-69.5 1t-47.5 67q-13 71 -26 141q-22 97 -38 196q-57 334 -81 671
q-2 53 -17.5 66t-70.5 6q-128 -11 -253 -26q-348 -48 -698 -77h-4h-9q-116 2 -156 -117q-119 -325 -286 -627q-187 -343 -455 -629q-187 -191 -426 -312t-492 -169.5t-484 -25.5t-402.5 119t-248.5 264t-20 410q57 220 209 376.5t356.5 263t424.5 176t416 117.5
q288 73 611.5 132t618.5 84q77 2 103 77q18 50 40 99q9 22 17 41q42 102 84 205q143 365 308 736t372 712t475 618q68 66 143 127q35 29 98 44.5t107 -5.5t24 -105q-46 -173 -79 -351.5t-60 -356.5q0 -9 -2 -18q-62 -404 -76 -761.5t-12 -764.5q0 -44 4 -88q3 -31 31 -33
q49 -3 95 0q55 2 110 0q24 -3 46 -16zM1692 169v0q18 48 3.5 59t-62.5 4q-234 -30 -467 -67.5t-462 -92.5q-33 -9 -68 -16q-191 -46 -410 -108.5t-426 -159.5t-358.5 -242t-211.5 -350q-61 -255 29 -413.5t283.5 -227.5t436.5 -51.5t485 115.5t434 271q268 258 455 579
q101 167 182.5 343t156.5 357zM3208 2496v0q0 5 2 13q7 36 19 99.5t16 114.5q7 44 -3 52.5t-47 -35.5l-44 -52q-84 -93 -163 -192q-178 -229 -332 -516t-286 -595t-249 -600q-55 -135 -108 -260q-46 -108 -35 -129t101 -5q13 0 31 2q271 26 539 59q117 14 233 27q24 4 46 6
q40 5 82 9q26 2 38 15.5t12 44.5v41v22q-2 498 23.5 935.5t124.5 943.5zM3663 3288v0q44 -6 49 -44q6 -88 -82 -136q-68 -35 -145 -29q-130 -2 -213 79q-53 55 -78.5 54t-80.5 -58l-11 -11q-22 -22 -48.5 -24t-54.5 4q-20 7 -29 22.5t0 30.5q46 68 136.5 102t178.5 17
q50 -16 83 -49q11 -11 22 -24q22 -22 44 -39q66 -53 115 15q6 13 13 26q4 11 11 22q29 53 90 42z" />
    <glyph glyph-name="Adieresis" unicode="&#xc4;" horiz-adv-x="3613" 
d="M3518 505v0q7 -4 11 -14t4 -19q3 -22 -24.5 -30.5t-69.5 -11t-84 -2.5q-53 0 -79 -4q-26 -5 -30.5 -23.5t-0.5 -62.5q2 -24 5 -57q28 -478 116 -948q2 -9 5 -16q4 -17 4 -35q-4 -31 -37 -44t-69.5 1t-47.5 67q-13 71 -26 141q-22 97 -38 196q-57 334 -81 671
q-2 53 -17.5 66t-70.5 6q-128 -11 -253 -26q-348 -48 -698 -77h-4h-9q-116 2 -156 -117q-119 -325 -286 -627q-187 -343 -455 -629q-187 -191 -426 -312t-492 -169.5t-484 -25.5t-402.5 119t-248.5 264t-20 410q57 220 209 376.5t356.5 263t424.5 176t416 117.5
q288 73 611.5 132t618.5 84q77 2 103 77q18 50 40 99q9 22 17 41q42 102 84 205q143 365 308 736t372 712t475 618q68 66 143 127q35 29 98 44.5t107 -5.5t24 -105q-46 -173 -79 -351.5t-60 -356.5q0 -9 -2 -18q-62 -404 -76 -761.5t-12 -764.5q0 -44 4 -88q3 -31 31 -33
q49 -3 95 0q55 2 110 0q24 -3 46 -16zM1692 169v0q18 48 3.5 59t-62.5 4q-234 -30 -467 -67.5t-462 -92.5q-33 -9 -68 -16q-191 -46 -410 -108.5t-426 -159.5t-358.5 -242t-211.5 -350q-61 -255 29 -413.5t283.5 -227.5t436.5 -51.5t485 115.5t434 271q268 258 455 579
q101 167 182.5 343t156.5 357zM3208 2496v0q0 5 2 13q7 36 19 99.5t16 114.5q7 44 -3 52.5t-47 -35.5l-44 -52q-84 -93 -163 -192q-178 -229 -332 -516t-286 -595t-249 -600q-55 -135 -108 -260q-46 -108 -35 -129t101 -5q13 0 31 2q271 26 539 59q117 14 233 27q24 4 46 6
q40 5 82 9q26 2 38 15.5t12 44.5v41v22q-2 498 23.5 935.5t124.5 943.5zM3604 3282v0q11 -7 20 -16q15 -26 10.5 -63.5t-23 -68.5t-47.5 -39q-42 -9 -69.5 12t-22.5 69q0 7 2 11q0 15 2 29q7 50 43 69t85 -3zM3285 3279v0q37 0 60 -16.5t23 -42.5q-8 -106 -101 -106
q-70 9 -66 91q9 74 84 74z" />
    <glyph glyph-name="Aring" unicode="&#xc5;" horiz-adv-x="3612" 
d="M3518 505v0q7 -4 11 -14t4 -19q3 -22 -24.5 -30.5t-69.5 -11t-84 -2.5q-53 0 -79 -4q-26 -5 -30.5 -23.5t-0.5 -62.5q2 -24 5 -57q28 -478 116 -948q2 -9 5 -16q4 -17 4 -35q-4 -31 -37 -44t-69.5 1t-47.5 67q-13 71 -26 141q-22 97 -38 196q-57 334 -81 671
q-2 53 -17.5 66t-70.5 6q-128 -11 -253 -26q-348 -48 -698 -77h-4h-9q-116 2 -156 -117q-119 -325 -286 -627q-187 -343 -455 -629q-187 -191 -426 -312t-492 -169.5t-484 -25.5t-402.5 119t-248.5 264t-20 410q57 220 209 376.5t356.5 263t424.5 176t416 117.5
q288 73 611.5 132t618.5 84q77 2 103 77q18 50 40 99q9 22 17 41q42 102 84 205q143 365 308 736t372 712t475 618q68 66 143 127q35 29 98 44.5t107 -5.5t24 -105q-46 -173 -79 -351.5t-60 -356.5q0 -9 -2 -18q-62 -404 -76 -761.5t-12 -764.5q0 -44 4 -88q3 -31 31 -33
q49 -3 95 0q55 2 110 0q24 -3 46 -16zM1692 169v0q18 48 3.5 59t-62.5 4q-234 -30 -467 -67.5t-462 -92.5q-33 -9 -68 -16q-191 -46 -410 -108.5t-426 -159.5t-358.5 -242t-211.5 -350q-61 -255 29 -413.5t283.5 -227.5t436.5 -51.5t485 115.5t434 271q268 258 455 579
q101 167 182.5 343t156.5 357zM3208 2496v0q0 5 2 13q7 36 19 99.5t16 114.5q7 44 -3 52.5t-47 -35.5l-44 -52q-84 -93 -163 -192q-178 -229 -332 -516t-286 -595t-249 -600q-55 -135 -108 -260q-46 -108 -35 -129t101 -5q13 0 31 2q271 26 539 59q117 14 233 27q24 4 46 6
q40 5 82 9q26 2 38 15.5t12 44.5v41v22q-2 498 23.5 935.5t124.5 943.5zM3538 3383v0q105 -27 83 -150q-28 -185 -198 -171q-48 2 -96 17q-104 44 -86 170q28 154 165 147q11 0 22 -2q6 -2 11 -2v0v2q15 -2 31 -2q35 -3 68 -9zM3459 3178v0q22 38 22 84q2 35 -27 46
q-28 11 -50 -13q-11 -13 -15.5 -31t-6.5 -33v-11v-18q2 -15 8.5 -28t21.5 -18q29 -6 47 22z" />
    <glyph glyph-name="AE" unicode="&#xc6;" horiz-adv-x="3613" 
d="M3518 505v0q7 -4 11 -14t4 -19q3 -22 -24.5 -30.5t-69.5 -11t-84 -2.5q-53 0 -79 -4q-26 -5 -30.5 -23.5t-0.5 -62.5q2 -24 5 -57q28 -478 116 -948q2 -9 5 -16q4 -17 4 -35q-4 -31 -37 -44t-69.5 1t-47.5 67q-13 71 -26 141q-22 97 -38 196q-57 334 -81 671
q-2 53 -17.5 66t-70.5 6q-128 -11 -253 -26q-348 -48 -698 -77h-4h-9q-116 2 -156 -117q-119 -325 -286 -627q-187 -343 -455 -629q-187 -191 -426 -312t-492 -169.5t-484 -25.5t-402.5 119t-248.5 264t-20 410q57 220 209 376.5t356.5 263t424.5 176t416 117.5
q288 73 611.5 132t618.5 84q77 2 103 77q18 50 40 99q9 22 17 41q42 102 84 205q143 365 308 736t372 712t475 618q68 66 143 127q35 29 98 44.5t107 -5.5t24 -105q-46 -173 -79 -351.5t-60 -356.5q0 -9 -2 -18q-62 -404 -76 -761.5t-12 -764.5q0 -44 4 -88q3 -31 31 -33
q49 -3 95 0q55 2 110 0q24 -3 46 -16zM1692 169v0q18 48 3.5 59t-62.5 4q-234 -30 -467 -67.5t-462 -92.5q-33 -9 -68 -16q-191 -46 -410 -108.5t-426 -159.5t-358.5 -242t-211.5 -350q-61 -255 29 -413.5t283.5 -227.5t436.5 -51.5t485 115.5t434 271q268 258 455 579
q101 167 182.5 343t156.5 357zM3208 2496v0q0 5 2 13q7 36 19 99.5t16 114.5q7 44 -3 52.5t-47 -35.5l-44 -52q-84 -93 -163 -192q-178 -229 -332 -516t-286 -595t-249 -600q-55 -135 -108 -260q-46 -108 -35 -129t101 -5q13 0 31 2q271 26 539 59q117 14 233 27q24 4 46 6
q40 5 82 9q26 2 38 15.5t12 44.5v41v22q-2 498 23.5 935.5t124.5 943.5z" />
    <glyph glyph-name="Ccedilla" unicode="&#xc7;" horiz-adv-x="2738" 
d="M1894 2586v0q-165 -24 -310 -98.5t-284 -184.5q123 -42 259.5 -53t250.5 6q102 16 194 62q59 29 99 79q33 51 21 97t-67 70q-79 33 -163 22zM515 -947q-258 40 -399 181q-147 145 -197.5 360.5t-31 458.5t81.5 472t139 403q156 356 369.5 675t490.5 596q39 40 32.5 52
t-43.5 21q-18 2 -38 9q-92 28 -180 59q-150 51 -298.5 95t-299.5 72q-135 24 -269 13q-97 -4 -180 -55q-57 -33 -97 -79t-46 -119q-7 -68 -95 -52q-57 8 -57 70q0 44 17.5 80.5t46.5 69.5q105 125 268 160q200 44 405 16q150 -22 294 -62t287 -86q13 -4 24 -6q44 -16 88 -29
q110 -31 216 -70q41 -16 74 -8t66 34q135 110 291 185q200 103 427 119q70 6 139.5 -4t132.5 -40q104 -53 120.5 -142t-60.5 -175q-71 -75 -170 -110q-118 -49 -246 -57q-128 -9 -255.5 -6t-252.5 28l-18 4q-46 11 -83.5 10t-76.5 -39q-330 -325 -577.5 -729t-395.5 -841
q-55 -154 -87 -342.5t-23 -377.5t80.5 -353t225.5 -274q130 -88 286 -94q233 -5 451 74q235 88 440 231q180 124 343 265.5t321 293.5q60 55 202 187t260 233q20 18 38 36q37 33 65.5 52.5t55.5 15.5q50 -5 -29 -99q-24 -31 -53 -60q-15 -17 -33 -35q-261 -297 -550 -567
q-261 -247 -561 -443q-158 -101 -328.5 -170t-355.5 -100q-160 -27 -321 -16l-13 -17q99 -2 112 -84q9 -132 -202 -105q-137 30 -137 74q16 40 31 40h31q191 -99 196 -9q-115 27 -115 62q13 26 27 48z" />
    <glyph glyph-name="Egrave" unicode="&#xc8;" horiz-adv-x="3421" 
d="M3496 437v0q-31 -35 -67.5 -71.5t-53.5 -51.5q-55 -49 -110 -95q-132 -116 -271 -226q-310 -245 -647 -456q-534 -332 -1159 -402q-240 -31 -482 8q-312 62 -475 228t-197 394t43 470t244 455q209 260 517 447t673 290q82 22 101.5 38.5t-3.5 31t-69 29.5q-46 18 -97 42
q-68 33 -130 79q-162 121 -187.5 271.5t86.5 318.5l22 30q11 16 22 31q9 13 4.5 24t-15.5 18q-35 20 -70 35q-18 9 -33 18q-163 77 -302 191q-28 24 -54.5 51.5t-44.5 63.5q-11 22 -1 42.5t32 27.5q31 11 58.5 6.5t47.5 -28.5q39 -53 135 -127.5t200.5 -135t168.5 -65.5
q35 -2 74 16q130 61 298.5 94t339 26.5t306.5 -63.5q73 -29 121 -93q62 -92 -22 -169q-66 -51 -149 -66q-108 -24 -216 -24t-216 11q-217 22 -422 92q-48 18 -70 11.5t-49 -46.5q-33 -46 -57 -99q-88 -200 73 -348q77 -70 194.5 -128.5t245 -86t233.5 -7.5q57 16 112 -6
q26 -11 26 -40q0 -31 -26 -37q-55 -14 -112 -22q-249 -31 -521.5 -117t-528 -225.5t-450 -334.5t-287 -444.5t-37.5 -553.5q46 -226 175 -345t307 -157.5t372.5 -24t370.5 58.5q220 55 422.5 146t391.5 212q234 150 456 317t440 341q9 7 34 31t60 55q176 141 216 123
q24 -6 30.5 -26t-21.5 -53zM1718 2417v0q-9 -2 -37.5 -12t-57 -24.5t-38.5 -28.5t21 -25q297 -106 609 -84q137 16 155.5 60t-44 86.5t-168.5 58.5q-90 9 -210 3.5t-230 -34.5zM1949 2974v0q9 -14 18 -29q33 -48 60.5 -97.5t42.5 -107.5q5 -19 3.5 -37t-18.5 -31
q-16 -24 -45.5 8t-66.5 87q-47 66 -93 116q-20 18 -35 40t-11 42t51 31q8 0 17 2h9q20 2 38.5 -2.5t29.5 -21.5z" />
    <glyph glyph-name="Eacute" unicode="&#xc9;" horiz-adv-x="3421" 
d="M3496 437v0q-31 -35 -67.5 -71.5t-53.5 -51.5q-55 -49 -110 -95q-132 -116 -271 -226q-310 -245 -647 -456q-534 -332 -1159 -402q-240 -31 -482 8q-312 62 -475 228t-197 394t43 470t244 455q209 260 517 447t673 290q82 22 101.5 38.5t-3.5 31t-69 29.5q-46 18 -97 42
q-68 33 -130 79q-162 121 -187.5 271.5t86.5 318.5l22 30q11 16 22 31q9 13 4.5 24t-15.5 18q-35 20 -70 35q-18 9 -33 18q-163 77 -302 191q-28 24 -54.5 51.5t-44.5 63.5q-11 22 -1 42.5t32 27.5q31 11 58.5 6.5t47.5 -28.5q39 -53 135 -127.5t200.5 -135t168.5 -65.5
q35 -2 74 16q130 61 298.5 94t339 26.5t306.5 -63.5q73 -29 121 -93q62 -92 -22 -169q-66 -51 -149 -66q-108 -24 -216 -24t-216 11q-217 22 -422 92q-48 18 -70 11.5t-49 -46.5q-33 -46 -57 -99q-88 -200 73 -348q77 -70 194.5 -128.5t245 -86t233.5 -7.5q57 16 112 -6
q26 -11 26 -40q0 -31 -26 -37q-55 -14 -112 -22q-249 -31 -521.5 -117t-528 -225.5t-450 -334.5t-287 -444.5t-37.5 -553.5q46 -226 175 -345t307 -157.5t372.5 -24t370.5 58.5q220 55 422.5 146t391.5 212q234 150 456 317t440 341q9 7 34 31t60 55q176 141 216 123
q24 -6 30.5 -26t-21.5 -53zM1718 2417v0q-9 -2 -37.5 -12t-57 -24.5t-38.5 -28.5t21 -25q297 -106 609 -84q137 16 155.5 60t-44 86.5t-168.5 58.5q-90 9 -210 3.5t-230 -34.5zM2147 2974q11 17 30 21.5t38 2.5h7q9 -2 18 -2q46 -11 51.5 -31t-11 -42t-36.5 -40
q-46 -50 -90 -116q-40 -55 -69.5 -87t-45.5 -8q-17 13 -18 31t5 37q13 58 40.5 107.5t60.5 97.5q9 15 20 29v0z" />
    <glyph glyph-name="Ecircumflex" unicode="&#xca;" horiz-adv-x="3421" 
d="M3496 437v0q-31 -35 -67.5 -71.5t-53.5 -51.5q-55 -49 -110 -95q-132 -116 -271 -226q-310 -245 -647 -456q-534 -332 -1159 -402q-240 -31 -482 8q-312 62 -475 228t-197 394t43 470t244 455q209 260 517 447t673 290q82 22 101.5 38.5t-3.5 31t-69 29.5q-46 18 -97 42
q-68 33 -130 79q-162 121 -187.5 271.5t86.5 318.5l22 30q11 16 22 31q9 13 4.5 24t-15.5 18q-35 20 -70 35q-18 9 -33 18q-163 77 -302 191q-28 24 -54.5 51.5t-44.5 63.5q-11 22 -1 42.5t32 27.5q31 11 58.5 6.5t47.5 -28.5q39 -53 135 -127.5t200.5 -135t168.5 -65.5
q35 -2 74 16q130 61 298.5 94t339 26.5t306.5 -63.5q73 -29 121 -93q62 -92 -22 -169q-66 -51 -149 -66q-108 -24 -216 -24t-216 11q-217 22 -422 92q-48 18 -70 11.5t-49 -46.5q-33 -46 -57 -99q-88 -200 73 -348q77 -70 194.5 -128.5t245 -86t233.5 -7.5q57 16 112 -6
q26 -11 26 -40q0 -31 -26 -37q-55 -14 -112 -22q-249 -31 -521.5 -117t-528 -225.5t-450 -334.5t-287 -444.5t-37.5 -553.5q46 -226 175 -345t307 -157.5t372.5 -24t370.5 58.5q220 55 422.5 146t391.5 212q234 150 456 317t440 341q9 7 34 31t60 55q176 141 216 123
q24 -6 30.5 -26t-21.5 -53zM1718 2417v0q-9 -2 -37.5 -12t-57 -24.5t-38.5 -28.5t21 -25q297 -106 609 -84q137 16 155.5 60t-44 86.5t-168.5 58.5q-90 9 -210 3.5t-230 -34.5zM2174 2919v0q44 -86 81 -172q13 -26 24 -53q5 -11 7 -20v-6q0 -38 -31 -42q-51 -13 -86 26
q-15 18 -24 42t-13 51q-9 37 -22 66q-11 22 -31 27.5t-33 -12.5q-11 -15 -28.5 -40.5t-33.5 -47.5q-13 -20 -22 -33q-41 -59 -70 -60t-36.5 29.5t16.5 68.5q16 24 33 50q44 68 93 137q39 48 92 44.5t84 -55.5z" />
    <glyph glyph-name="Edieresis" unicode="&#xcb;" horiz-adv-x="3421" 
d="M3496 437v0q-31 -35 -67.5 -71.5t-53.5 -51.5q-55 -49 -110 -95q-132 -116 -271 -226q-310 -245 -647 -456q-534 -332 -1159 -402q-240 -31 -482 8q-312 62 -475 228t-197 394t43 470t244 455q209 260 517 447t673 290q82 22 101.5 38.5t-3.5 31t-69 29.5q-46 18 -97 42
q-68 33 -130 79q-162 121 -187.5 271.5t86.5 318.5l22 30q11 16 22 31q9 13 4.5 24t-15.5 18q-35 20 -70 35q-18 9 -33 18q-163 77 -302 191q-28 24 -54.5 51.5t-44.5 63.5q-11 22 -1 42.5t32 27.5q31 11 58.5 6.5t47.5 -28.5q39 -53 135 -127.5t200.5 -135t168.5 -65.5
q35 -2 74 16q130 61 298.5 94t339 26.5t306.5 -63.5q73 -29 121 -93q62 -92 -22 -169q-66 -51 -149 -66q-108 -24 -216 -24t-216 11q-217 22 -422 92q-48 18 -70 11.5t-49 -46.5q-33 -46 -57 -99q-88 -200 73 -348q77 -70 194.5 -128.5t245 -86t233.5 -7.5q57 16 112 -6
q26 -11 26 -40q0 -31 -26 -37q-55 -14 -112 -22q-249 -31 -521.5 -117t-528 -225.5t-450 -334.5t-287 -444.5t-37.5 -553.5q46 -226 175 -345t307 -157.5t372.5 -24t370.5 58.5q220 55 422.5 146t391.5 212q234 150 456 317t440 341q9 7 34 31t60 55q176 141 216 123
q24 -6 30.5 -26t-21.5 -53zM1718 2417v0q-9 -2 -37.5 -12t-57 -24.5t-38.5 -28.5t21 -25q297 -106 609 -84q137 16 155.5 60t-44 86.5t-168.5 58.5q-90 9 -210 3.5t-230 -34.5zM1958 2811v0q37 0 60.5 -16.5t23.5 -43.5q-9 -105 -102 -105q-70 9 -66 90q9 75 84 75z
M2180 2806v0q38 0 61 -16.5t23 -42.5q-9 -106 -101 -106q-71 9 -66 91q8 74 83 74z" />
    <glyph glyph-name="Igrave" unicode="&#xcc;" horiz-adv-x="1427" 
d="M1474 518v0q55 -6 57 -29t-22 -48.5t-53 -40.5q-94 -62 -179 -134.5t-166 -149.5q-70 -64 -81 -165q-16 -130 -50 -319t-89 -390.5t-132 -368.5t-178 -258q-49 -39 -104 -48t-112 7q-57 15 -84.5 55.5t-34.5 95.5q-17 150 39 336t144 362t169 297q95 152 214 284
q61 68 68 160q15 154 30.5 468.5t15.5 681t-30.5 680t-107.5 465.5q-22 37 -53 70q-40 44 -93 20q-59 -26 -107 -66q-137 -114 -228 -256t-127 -318q-26 -134 3 -266q19 -88 68.5 -150t135.5 -90q5 -2 7 -2q17 -5 31.5 -13.5t16.5 -30.5q-2 -36 -70 -40q-79 -4 -145 35
q-104 62 -154.5 153t-59.5 206q-13 174 44 339q112 308 368 512q110 93 257 99q185 2 268 -160q73 -143 107 -429t40.5 -623t-3 -631.5t-23.5 -455.5q-8 -64 5 -72.5t64 28.5q48 35 99 73q37 28 77 55q28 24 74.5 49.5t83.5 22.5zM810 -348v0q15 103 -5 91t-61 -83
q-49 -70 -118 -214t-127 -311q-39 -124 -63.5 -230.5t-26.5 -171.5t25.5 -59.5t89.5 106.5q110 183 180 423t106 449zM664 3066v0q9 -13 18 -29q33 -48 60.5 -97.5t42.5 -106.5q5 -20 4 -37.5t-19 -30.5q-15 -25 -45 7t-67 87q-46 66 -93 117q-19 17 -34.5 39t-11 42
t50.5 31q9 0 17 2h9q20 2 38.5 -2t29.5 -22z" />
    <glyph glyph-name="Iacute" unicode="&#xcd;" horiz-adv-x="1427" 
d="M1474 518v0q55 -6 57 -29t-22 -48.5t-53 -40.5q-94 -62 -179 -134.5t-166 -149.5q-70 -64 -81 -165q-16 -130 -50 -319t-89 -390.5t-132 -368.5t-178 -258q-49 -39 -104 -48t-112 7q-57 15 -84.5 55.5t-34.5 95.5q-17 150 39 336t144 362t169 297q95 152 214 284
q61 68 68 160q15 154 30.5 468.5t15.5 681t-30.5 680t-107.5 465.5q-22 37 -53 70q-40 44 -93 20q-59 -26 -107 -66q-137 -114 -228 -256t-127 -318q-26 -134 3 -266q19 -88 68.5 -150t135.5 -90q5 -2 7 -2q17 -5 31.5 -13.5t16.5 -30.5q-2 -36 -70 -40q-79 -4 -145 35
q-104 62 -154.5 153t-59.5 206q-13 174 44 339q112 308 368 512q110 93 257 99q185 2 268 -160q73 -143 107 -429t40.5 -623t-3 -631.5t-23.5 -455.5q-8 -64 5 -72.5t64 28.5q48 35 99 73q37 28 77 55q28 24 74.5 49.5t83.5 22.5zM810 -348v0q15 103 -5 91t-61 -83
q-49 -70 -118 -214t-127 -311q-39 -124 -63.5 -230.5t-26.5 -171.5t25.5 -59.5t89.5 106.5q110 183 180 423t106 449zM783 3057q11 18 30 22.5t38 1.5h7q9 -2 18 -2q46 -11 51.5 -30.5t-11 -41.5t-36.5 -40q-46 -51 -90 -117q-40 -55 -69.5 -86.5t-45.5 -7.5
q-17 13 -18 30.5t5 37.5q13 57 40.5 106.5t60.5 98.5q9 15 20 28v0z" />
    <glyph glyph-name="Icircumflex" unicode="&#xce;" horiz-adv-x="1427" 
d="M1474 518v0q55 -6 57 -29t-22 -48.5t-53 -40.5q-94 -62 -179 -134.5t-166 -149.5q-70 -64 -81 -165q-16 -130 -50 -319t-89 -390.5t-132 -368.5t-178 -258q-49 -39 -104 -48t-112 7q-57 15 -84.5 55.5t-34.5 95.5q-17 150 39 336t144 362t169 297q95 152 214 284
q61 68 68 160q15 154 30.5 468.5t15.5 681t-30.5 680t-107.5 465.5q-22 37 -53 70q-40 44 -93 20q-59 -26 -107 -66q-137 -114 -228 -256t-127 -318q-26 -134 3 -266q19 -88 68.5 -150t135.5 -90q5 -2 7 -2q17 -5 31.5 -13.5t16.5 -30.5q-2 -36 -70 -40q-79 -4 -145 35
q-104 62 -154.5 153t-59.5 206q-13 174 44 339q112 308 368 512q110 93 257 99q185 2 268 -160q73 -143 107 -429t40.5 -623t-3 -631.5t-23.5 -455.5q-8 -64 5 -72.5t64 28.5q48 35 99 73q37 28 77 55q28 24 74.5 49.5t83.5 22.5zM810 -348v0q15 103 -5 91t-61 -83
q-49 -70 -118 -214t-127 -311q-39 -124 -63.5 -230.5t-26.5 -171.5t25.5 -59.5t89.5 106.5q110 183 180 423t106 449zM810 3011v0q44 -86 81 -172q13 -26 24 -52q5 -11 7 -20v-7q0 -37 -31 -42q-51 -13 -86 27q-15 17 -24 41.5t-13 50.5q-9 38 -22 66q-11 22 -31 27.5
t-33 -11.5q-11 -16 -28.5 -41t-33.5 -47q-13 -20 -22 -33q-41 -60 -70 -61t-36.5 30t16.5 68q16 24 33 51q44 68 93 136q39 48 92 45t84 -56z" />
    <glyph glyph-name="Idieresis" unicode="&#xcf;" horiz-adv-x="1427" 
d="M1474 518v0q55 -6 57 -29t-22 -48.5t-53 -40.5q-94 -62 -179 -134.5t-166 -149.5q-70 -64 -81 -165q-16 -130 -50 -319t-89 -390.5t-132 -368.5t-178 -258q-49 -39 -104 -48t-112 7q-57 15 -84.5 55.5t-34.5 95.5q-17 150 39 336t144 362t169 297q95 152 214 284
q61 68 68 160q15 154 30.5 468.5t15.5 681t-30.5 680t-107.5 465.5q-22 37 -53 70q-40 44 -93 20q-59 -26 -107 -66q-137 -114 -228 -256t-127 -318q-26 -134 3 -266q19 -88 68.5 -150t135.5 -90q5 -2 7 -2q17 -5 31.5 -13.5t16.5 -30.5q-2 -36 -70 -40q-79 -4 -145 35
q-104 62 -154.5 153t-59.5 206q-13 174 44 339q112 308 368 512q110 93 257 99q185 2 268 -160q73 -143 107 -429t40.5 -623t-3 -631.5t-23.5 -455.5q-8 -64 5 -72.5t64 28.5q48 35 99 73q37 28 77 55q28 24 74.5 49.5t83.5 22.5zM810 -348v0q15 103 -5 91t-61 -83
q-49 -70 -118 -214t-127 -311q-39 -124 -63.5 -230.5t-26.5 -171.5t25.5 -59.5t89.5 106.5q110 183 180 423t106 449zM924 2954v0q11 -7 20 -16q15 -26 10.5 -63.5t-23 -68t-47.5 -39.5q-41 -9 -68.5 12t-23.5 69q0 7 2 11q0 16 2 29q7 50 43.5 69t84.5 -3zM605 2952v0
q37 0 60.5 -16.5t23.5 -43.5q-9 -105 -102 -105q-70 8 -66 90q9 75 84 75z" />
    <glyph glyph-name="Eth" unicode="&#xd0;" horiz-adv-x="2410" 
d="M1888 345v0q20 50 -33 46q-9 0 -18 -2q-132 -14 -261 -33l-88 -14q-377 -55 -751 -118v-69q0 -48 -3 -92t-19.5 -70.5t-51.5 -26.5q-53 7 -58 82q-2 35 0 72q0 18 -2 35v44q-255 -46 -508 -105q-18 -5 -35 -9q-150 -33 -345.5 -86t-392.5 -126.5t-357.5 -173.5
t-242.5 -232q-70 -128 -4 -255q55 -97 143 -163q132 -104 290 -154q227 -77 480 -82.5t500.5 46t462.5 148.5q322 147 577 372.5t455 514.5q152 213 262 451zM755 917q-2 -163 -9 -326q-4 -128 -6 -257l136 22q75 11 211 30q222 31 468.5 68.5t361.5 63.5q61 14 81 80
q64 176 106 356q72 306 63 620q-4 159 -39 309.5t-112 291.5q-256 458 -770 554q-203 36 -402 23.5t-395 -60.5q-363 -86 -688 -266q-71 -38 -138 -82t-126 -99q-47 -48 -113 -46q-28 2 -44 24q-6 14 -4 26t9 23q24 33 55 60.5t66 51.5q187 134 398 224q519 236 1089 247
q231 4 455 -51q368 -94 611 -362.5t302 -642.5q42 -288 9 -567.5t-123 -552.5q-7 -22 -11 -40q-33 -83 -18.5 -102t106.5 -14h55q33 2 65 -1.5t63 -20.5q11 -7 16.5 -18t0.5 -24q-4 -9 -10.5 -16.5t-15.5 -9.5q-31 -5 -62 -5h-15q-73 0 -148 -2q-28 0 -55 -2q-70 2 -96 -66
q-88 -192 -201 -370q-154 -246 -346.5 -457.5t-429.5 -380.5q-288 -200 -650 -318t-740.5 -127.5t-712.5 119.5q-99 38 -188.5 93t-163.5 132q-64 64 -104 143q-68 143 0 284q66 132 193.5 229.5t286 170.5t320.5 124.5t296 88.5q13 5 24 9q462 130 935 211q-2 146 -2 293
l-5 317q-140 4 -305 20q-5 0 -7 4q-7 0 -10 3.5t-5 14.5q-3 46 24 48q130 15 264 18l37 2l-13 763q-2 242 -33 482q-9 79 35 103q31 18 59.5 10.5t44.5 -40.5q19 -47 26 -99q18 -124 24 -249q13 -242 20 -484t0 -486h211q31 0 60 -5q24 -4 24 -50t-24 -51q-9 -2 -18 -2h-57
q-93 -4 -196 -4z" />
    <glyph glyph-name="Ntilde" unicode="&#xd1;" horiz-adv-x="2612" 
d="M788 461q48 128 108.5 327t118.5 388q70 238 103 335q44 129 100 254.5t135 240.5q40 57 97 123t125.5 115.5t143.5 53.5q88 7 144 -24t91 -110q86 -189 100 -432t-10 -504t-59 -498q-35 -245 -48.5 -425t29.5 -254t175 3t387 348q18 20 33 37q40 44 69.5 66t62.5 13
q20 -6 16.5 -21.5t-14.5 -33.5q-4 -8 -8 -15q-25 -51 -60 -95q-116 -143 -237 -281q-84 -88 -190 -152q-94 -59 -204 -66q-161 -9 -214 145q-24 71 -19.5 206t22 297t37.5 311q22 165 31 266q15 190 20.5 384.5t-4.5 361.5t-43 268.5t-93.5 103.5t-156 -133t-231.5 -441
q-154 -405 -275 -823q-165 -579 -326 -1157q-68 -238 -134 -475q-7 -22 -13 -47q-11 -44 -25 -88q-13 -39 -40.5 -56.5t-66.5 -20.5q-86 -2 -91 84q3 101 14 202q19 137 48 330q44 286 94.5 647t89 746t47.5 740.5t-27.5 628t-137.5 411.5q-77 103 -202 70
q-172 -44 -311 -147q-336 -251 -503.5 -520.5t-196 -516t50.5 -431.5q86 -184 252 -266.5t351 -60.5q49 24 97 -5q13 -11 15.5 -27.5t-6.5 -29.5q-42 -46 -101 -46q-319 -7 -504 97.5t-256.5 284t-48.5 399.5t125.5 447.5t262 426.5t359.5 338q88 62 183.5 103.5t201.5 59.5
q57 9 114 9q203 0 308 -172q95 -152 131.5 -400.5t34 -530t-23.5 -537t-40 -417.5q-11 -99 -22 -196q-14 -97 -25 -196q0 -9 -2 -18q-4 -35 -6.5 -62.5t1 -35t14.5 13.5t33 82v0v0zM1923 2663v0q44 -6 49 -44q6 -88 -82 -136q-68 -35 -145 -29q-130 -2 -213 80
q-53 55 -78.5 53.5t-80.5 -58.5l-11 -11q-22 -22 -48.5 -24t-54.5 4q-20 7 -29 22.5t0 30.5q46 68 136.5 102.5t178.5 16.5q50 -15 83 -48q11 -11 22 -25q22 -22 44 -39q66 -53 115 15q6 13 13 27q4 11 11 22q29 52 90 41z" />
    <glyph glyph-name="Ograve" unicode="&#xd2;" 
d="M1250 2685q-119 80 -250 109.5t-272 -5.5q-176 -46 -324.5 -170.5t-235.5 -304t-78 -392.5q13 -255 150 -469q59 -90 127 -173q27 -38 44.5 -40t59.5 20q26 15 53.5 20.5t56.5 -3.5q22 -8 29.5 -24.5t-5.5 -32.5q-11 -13 -22 -24l-22 -22q-20 -24 -16.5 -39.5t29.5 -30.5
q121 -75 255 -117q5 -2 9 -2q27 -9 51 -20q6 -4 10.5 -13t4.5 -18t-5.5 -16.5t-11.5 -14.5q-27 -15 -55.5 -15t-57.5 9q-116 28 -224 83q-77 42 -104.5 35.5t-73.5 -81.5q-288 -442 -324 -968q-19 -244 66 -477q42 -121 135 -214q151 -145 354 -83q99 31 185 81
q209 130 363 319q198 247 316 537q82 194 148 462t95.5 570.5t1 596.5t-138.5 536t-323 391v0v0zM1573 -51q-88 -181 -205.5 -338t-271.5 -287q-137 -117 -302 -189q-167 -73 -347 -64q-291 15 -443 262q-94 162 -118 347q-25 161 -12.5 319.5t53.5 312.5q97 376 322 690
q15 22 33 44q13 20 28 38q20 31 -4 57q-16 18 -31 33q-24 24 -48 51q-117 132 -194 282.5t-101 328.5q-51 374 174 673q110 146 253 242.5t321 134.5q246 48 460.5 -12.5t392.5 -240.5q181 -192 269 -456t101 -567.5t-28.5 -609.5t-122 -577.5t-179.5 -473.5v0v0zM933 3337
v0q9 -14 17 -29q33 -48 60.5 -97.5t43.5 -107.5q4 -19 3 -37t-19 -31q-15 -24 -44.5 8t-67.5 87q-46 66 -92 116q-20 18 -35.5 40t-11 42t50.5 31q9 0 18 2h9q19 2 38 -2.5t30 -21.5z" />
    <glyph glyph-name="Oacute" unicode="&#xd3;" 
d="M1250 2685q-119 80 -250 109.5t-272 -5.5q-176 -46 -324.5 -170.5t-235.5 -304t-78 -392.5q13 -255 150 -469q59 -90 127 -173q27 -38 44.5 -40t59.5 20q26 15 53.5 20.5t56.5 -3.5q22 -8 29.5 -24.5t-5.5 -32.5q-11 -13 -22 -24l-22 -22q-20 -24 -16.5 -39.5t29.5 -30.5
q121 -75 255 -117q5 -2 9 -2q27 -9 51 -20q6 -4 10.5 -13t4.5 -18t-5.5 -16.5t-11.5 -14.5q-27 -15 -55.5 -15t-57.5 9q-116 28 -224 83q-77 42 -104.5 35.5t-73.5 -81.5q-288 -442 -324 -968q-19 -244 66 -477q42 -121 135 -214q151 -145 354 -83q99 31 185 81
q209 130 363 319q198 247 316 537q82 194 148 462t95.5 570.5t1 596.5t-138.5 536t-323 391v0v0zM1573 -51q-88 -181 -205.5 -338t-271.5 -287q-137 -117 -302 -189q-167 -73 -347 -64q-291 15 -443 262q-94 162 -118 347q-25 161 -12.5 319.5t53.5 312.5q97 376 322 690
q15 22 33 44q13 20 28 38q20 31 -4 57q-16 18 -31 33q-24 24 -48 51q-117 132 -194 282.5t-101 328.5q-51 374 174 673q110 146 253 242.5t321 134.5q246 48 460.5 -12.5t392.5 -240.5q181 -192 269 -456t101 -567.5t-28.5 -609.5t-122 -577.5t-179.5 -473.5v0v0zM1109 3312
q11 18 29.5 22.5t38.5 2.5h7q8 -3 17 -3q46 -11 51.5 -30.5t-11 -41.5t-35.5 -40q-47 -50 -91 -116q-39 -55 -69 -87t-45 -8q-18 13 -19 30.5t6 37.5q13 57 40.5 106.5t60.5 98.5q9 15 20 28v0z" />
    <glyph glyph-name="Ocircumflex" unicode="&#xd4;" 
d="M1250 2685q-119 80 -250 109.5t-272 -5.5q-176 -46 -324.5 -170.5t-235.5 -304t-78 -392.5q13 -255 150 -469q59 -90 127 -173q27 -38 44.5 -40t59.5 20q26 15 53.5 20.5t56.5 -3.5q22 -8 29.5 -24.5t-5.5 -32.5q-11 -13 -22 -24l-22 -22q-20 -24 -16.5 -39.5t29.5 -30.5
q121 -75 255 -117q5 -2 9 -2q27 -9 51 -20q6 -4 10.5 -13t4.5 -18t-5.5 -16.5t-11.5 -14.5q-27 -15 -55.5 -15t-57.5 9q-116 28 -224 83q-77 42 -104.5 35.5t-73.5 -81.5q-288 -442 -324 -968q-19 -244 66 -477q42 -121 135 -214q151 -145 354 -83q99 31 185 81
q209 130 363 319q198 247 316 537q82 194 148 462t95.5 570.5t1 596.5t-138.5 536t-323 391v0v0zM1573 -51q-88 -181 -205.5 -338t-271.5 -287q-137 -117 -302 -189q-167 -73 -347 -64q-291 15 -443 262q-94 162 -118 347q-25 161 -12.5 319.5t53.5 312.5q97 376 322 690
q15 22 33 44q13 20 28 38q20 31 -4 57q-16 18 -31 33q-24 24 -48 51q-117 132 -194 282.5t-101 328.5q-51 374 174 673q110 146 253 242.5t321 134.5q246 48 460.5 -12.5t392.5 -240.5q181 -192 269 -456t101 -567.5t-28.5 -609.5t-122 -577.5t-179.5 -473.5v0v0zM1067 3255
v0q44 -86 81 -171q14 -27 25 -53q4 -11 6 -20v-7q0 -37 -31 -41q-50 -14 -85 26q-16 18 -24.5 42t-13.5 50q-9 38 -22 66q-11 22 -30.5 27.5t-33.5 -11.5q-11 -16 -28.5 -41t-32.5 -47q-13 -20 -22 -33q-42 -60 -70.5 -61t-36.5 30t17 68q15 24 33 51q44 68 92 136
q40 49 92.5 45.5t83.5 -56.5z" />
    <glyph glyph-name="Otilde" unicode="&#xd5;" 
d="M1250 2685q-119 80 -250 109.5t-272 -5.5q-176 -46 -324.5 -170.5t-235.5 -304t-78 -392.5q13 -255 150 -469q59 -90 127 -173q27 -38 44.5 -40t59.5 20q26 15 53.5 20.5t56.5 -3.5q22 -8 29.5 -24.5t-5.5 -32.5q-11 -13 -22 -24l-22 -22q-20 -24 -16.5 -39.5t29.5 -30.5
q121 -75 255 -117q5 -2 9 -2q27 -9 51 -20q6 -4 10.5 -13t4.5 -18t-5.5 -16.5t-11.5 -14.5q-27 -15 -55.5 -15t-57.5 9q-116 28 -224 83q-77 42 -104.5 35.5t-73.5 -81.5q-288 -442 -324 -968q-19 -244 66 -477q42 -121 135 -214q151 -145 354 -83q99 31 185 81
q209 130 363 319q198 247 316 537q82 194 148 462t95.5 570.5t1 596.5t-138.5 536t-323 391v0v0zM1573 -51q-88 -181 -205.5 -338t-271.5 -287q-137 -117 -302 -189q-167 -73 -347 -64q-291 15 -443 262q-94 162 -118 347q-25 161 -12.5 319.5t53.5 312.5q97 376 322 690
q15 22 33 44q13 20 28 38q20 31 -4 57q-16 18 -31 33q-24 24 -48 51q-117 132 -194 282.5t-101 328.5q-51 374 174 673q110 146 253 242.5t321 134.5q246 48 460.5 -12.5t392.5 -240.5q181 -192 269 -456t101 -567.5t-28.5 -609.5t-122 -577.5t-179.5 -473.5v0v0zM1252 3211
v0q44 -6 48 -44q7 -88 -81 -136q-68 -35 -145 -29q-130 -2 -214 79q-53 55 -78 54t-80 -58q-5 -4 -11 -11q-22 -22 -48.5 -24t-55.5 4q-19 7 -28 22.5t0 30.5q46 68 136 102t178 17q51 -16 84 -49q11 -11 22 -24q22 -22 44 -39q66 -53 114 15l14 26q4 11 11 22q28 53 90 42z
" />
    <glyph glyph-name="Odieresis" unicode="&#xd6;" 
d="M1250 2685q-119 80 -250 109.5t-272 -5.5q-176 -46 -324.5 -170.5t-235.5 -304t-78 -392.5q13 -255 150 -469q59 -90 127 -173q27 -38 44.5 -40t59.5 20q26 15 53.5 20.5t56.5 -3.5q22 -8 29.5 -24.5t-5.5 -32.5q-11 -13 -22 -24l-22 -22q-20 -24 -16.5 -39.5t29.5 -30.5
q121 -75 255 -117q5 -2 9 -2q27 -9 51 -20q6 -4 10.5 -13t4.5 -18t-5.5 -16.5t-11.5 -14.5q-27 -15 -55.5 -15t-57.5 9q-116 28 -224 83q-77 42 -104.5 35.5t-73.5 -81.5q-288 -442 -324 -968q-19 -244 66 -477q42 -121 135 -214q151 -145 354 -83q99 31 185 81
q209 130 363 319q198 247 316 537q82 194 148 462t95.5 570.5t1 596.5t-138.5 536t-323 391v0v0zM1573 -51q-88 -181 -205.5 -338t-271.5 -287q-137 -117 -302 -189q-167 -73 -347 -64q-291 15 -443 262q-94 162 -118 347q-25 161 -12.5 319.5t53.5 312.5q97 376 322 690
q15 22 33 44q13 20 28 38q20 31 -4 57q-16 18 -31 33q-24 24 -48 51q-117 132 -194 282.5t-101 328.5q-51 374 174 673q110 146 253 242.5t321 134.5q246 48 460.5 -12.5t392.5 -240.5q181 -192 269 -456t101 -567.5t-28.5 -609.5t-122 -577.5t-179.5 -473.5v0v0zM1122 3220
v0q11 -7 20 -15q15 -27 10.5 -64.5t-23 -68t-47.5 -39.5q-41 -9 -68.5 12t-23.5 69q0 7 2 11q0 16 2 29q7 51 43.5 69.5t84.5 -3.5zM803 3218v0q37 0 60.5 -16.5t23.5 -43.5q-9 -105 -102 -105q-70 9 -66 90q9 75 84 75z" />
    <glyph glyph-name="multiply" unicode="&#xd7;" horiz-adv-x="711" 
d="M350 571l127 163q16 20 36 35q17 13 52 -15q36 -29 29 -46q-4 -9 -9 -16l-31 -37q-59 -82 -129 -170l-3 -2q66 -81 121 -158l31 -38q5 -6 9 -15q7 -18 -29 -46q-35 -29 -52 -16q-20 16 -36 36l-116 149q-73 -83 -163 -174q-4 -2 -7 -2q-2 -4 -7.5 -4t-14.5 6
q-37 27 -26 47q57 96 128 187l22 28l-5 5l-28 37q-71 90 -128 187q-11 20 26 46q9 7 14.5 7t7.5 -5q3 0 7 -2q97 -97 174 -187z" />
    <glyph glyph-name="Oslash" unicode="&#xd8;" 
d="M774 1005l119 290q258 629 504 1265q-66 68 -147 125q-119 80 -250 109.5t-272 -5.5q-176 -46 -324.5 -170.5t-235.5 -304t-78 -392.5q13 -255 150 -469q59 -90 127 -173q27 -38 44.5 -40t59.5 20q26 15 53.5 20.5t56.5 -3.5q22 -8 29.5 -24.5t-5.5 -32.5
q-11 -13 -22 -24l-22 -22q-20 -24 -16.5 -39.5t29.5 -30.5q97 -60 200 -99zM1525 2388l-84 -211l-66 -165q-427 -1098 -898 -2165q-121 -279 -237 -563l9 -9q151 -145 354 -83q99 31 185 81q209 130 363 319q198 247 316 537q82 194 148 462t95.5 570.5t1 596.5t-138.5 536
q-22 48 -48 94zM132 -555q95 231 189 464q7 18 16 35q200 480 398 964q-95 26 -185 72q-77 42 -104.5 35.5t-73.5 -81.5q-288 -442 -324 -968q-19 -244 66 -477zM185 -852l-11 -31l-79 -194q-20 -61 -64 -70q-62 -9 -80.5 36t12.5 127q17 44 35 90q28 77 59 152
q-28 35 -53 75q-94 162 -118 347q-25 161 -12.5 319.5t53.5 312.5q97 376 322 690q15 22 33 44q13 20 28 38q20 31 -4 57q-16 18 -31 33q-24 24 -48 51q-117 132 -194 282.5t-101 328.5q-51 374 174 673q110 146 253 242.5t321 134.5q246 48 462 -11q165 -49 310 -168
q66 163 114 337q18 64 66 70q55 14 88 -41q9 -18 9 -49v-20l-2 -17q-4 -20 -11 -42q-18 -57 -35 -117q-44 -132 -90 -259q138 -172 211 -392q88 -264 101 -567.5t-28.5 -609.5t-122 -577.5t-179.5 -473.5q-88 -181 -205.5 -338t-271.5 -287q-137 -117 -302 -189
q-167 -73 -347 -64q-150 9 -262 77z" />
    <glyph glyph-name="Ugrave" unicode="&#xd9;" horiz-adv-x="3551" 
d="M2673 919q-88 -207 -222 -471t-303.5 -532.5t-365.5 -487.5t-409 -333q-101 -55 -218 -64q-209 -9 -297 181q-75 162 -84.5 407.5t20 525t79 546.5t93.5 479q18 92 33 169q42 209 77 419t53 426q4 64 4 126.5t-15 126.5q-9 44 -27 83q-46 99 -151 95q-58 -4 -115 -20
q-116 -35 -220 -99q-136 -83 -305.5 -222t-333.5 -316t-281.5 -374t-153 -397t50.5 -387q88 -183 282 -242q24 -7 48 -11q27 -7 51 -15q26 -9 24 -40q0 -13 -10 -21t-23 -10q-64 -13 -128 2q-272 60 -398 311q-90 191 -62.5 394.5t136.5 402.5t263 378.5t318 322.5t302 235
q170 115 363 181q132 41 266 28q223 -20 278 -240q19 -83 20.5 -169t-7.5 -172q-18 -213 -53 -422t-79 -416q-9 -53 -20 -108q-9 -44 -20 -101q-39 -185 -86.5 -452t-76 -551t-12 -521.5t106.5 -367.5q29 -44 60.5 -51.5t80.5 14.5q187 79 366 266t344 435.5t304 515
t242 505t161 403.5q77 224 125 455q9 44 22 86q24 88 112 82q84 -3 88 -86q5 -97 0 -192q-13 -195 -28 -389q-16 -207 -31 -414q0 -17 -7 -59q-9 -79 -18.5 -197t-2 -229t49.5 -170.5t134 -21.5q70 33 262.5 188t239 177t55 1t-4.5 -43q-79 -108 -168 -207t-206 -171
q-134 -82 -292 -73q-108 9 -164 71.5t-75 156t-16.5 191.5t10.5 177q20 165 36 333q0 11 2 22q4 59 -1.5 71t-16.5 -4.5t-24 -45t-24 -54.5q-5 -14 -7 -20v0v0zM2081 2393v0q9 -13 18 -29q33 -48 60.5 -97.5t42.5 -106.5q5 -20 4 -37.5t-19 -31.5q-15 -24 -45 8t-67 87
q-46 66 -93 117q-19 17 -34.5 39t-11 42t50.5 31q9 0 17 2h9q20 2 38.5 -2.5t29.5 -21.5z" />
    <glyph glyph-name="Uacute" unicode="&#xda;" horiz-adv-x="3551" 
d="M2673 919q-88 -207 -222 -471t-303.5 -532.5t-365.5 -487.5t-409 -333q-101 -55 -218 -64q-209 -9 -297 181q-75 162 -84.5 407.5t20 525t79 546.5t93.5 479q18 92 33 169q42 209 77 419t53 426q4 64 4 126.5t-15 126.5q-9 44 -27 83q-46 99 -151 95q-58 -4 -115 -20
q-116 -35 -220 -99q-136 -83 -305.5 -222t-333.5 -316t-281.5 -374t-153 -397t50.5 -387q88 -183 282 -242q24 -7 48 -11q27 -7 51 -15q26 -9 24 -40q0 -13 -10 -21t-23 -10q-64 -13 -128 2q-272 60 -398 311q-90 191 -62.5 394.5t136.5 402.5t263 378.5t318 322.5t302 235
q170 115 363 181q132 41 266 28q223 -20 278 -240q19 -83 20.5 -169t-7.5 -172q-18 -213 -53 -422t-79 -416q-9 -53 -20 -108q-9 -44 -20 -101q-39 -185 -86.5 -452t-76 -551t-12 -521.5t106.5 -367.5q29 -44 60.5 -51.5t80.5 14.5q187 79 366 266t344 435.5t304 515
t242 505t161 403.5q77 224 125 455q9 44 22 86q24 88 112 82q84 -3 88 -86q5 -97 0 -192q-13 -195 -28 -389q-16 -207 -31 -414q0 -17 -7 -59q-9 -79 -18.5 -197t-2 -229t49.5 -170.5t134 -21.5q70 33 262.5 188t239 177t55 1t-4.5 -43q-79 -108 -168 -207t-206 -171
q-134 -82 -292 -73q-108 9 -164 71.5t-75 156t-16.5 191.5t10.5 177q20 165 36 333q0 11 2 22q4 59 -1.5 71t-16.5 -4.5t-24 -45t-24 -54.5q-5 -14 -7 -20v0v0zM2240 2395q11 18 29.5 22t38.5 2h7q8 -2 17 -2q46 -11 51.5 -31t-11 -42t-35.5 -39q-47 -51 -91 -117
q-39 -55 -69 -87t-45 -7q-18 13 -19 30.5t6 37.5q13 57 40.5 106.5t60.5 97.5q9 16 20 29v0z" />
    <glyph glyph-name="Ucircumflex" unicode="&#xdb;" horiz-adv-x="3551" 
d="M2673 919q-88 -207 -222 -471t-303.5 -532.5t-365.5 -487.5t-409 -333q-101 -55 -218 -64q-209 -9 -297 181q-75 162 -84.5 407.5t20 525t79 546.5t93.5 479q18 92 33 169q42 209 77 419t53 426q4 64 4 126.5t-15 126.5q-9 44 -27 83q-46 99 -151 95q-58 -4 -115 -20
q-116 -35 -220 -99q-136 -83 -305.5 -222t-333.5 -316t-281.5 -374t-153 -397t50.5 -387q88 -183 282 -242q24 -7 48 -11q27 -7 51 -15q26 -9 24 -40q0 -13 -10 -21t-23 -10q-64 -13 -128 2q-272 60 -398 311q-90 191 -62.5 394.5t136.5 402.5t263 378.5t318 322.5t302 235
q170 115 363 181q132 41 266 28q223 -20 278 -240q19 -83 20.5 -169t-7.5 -172q-18 -213 -53 -422t-79 -416q-9 -53 -20 -108q-9 -44 -20 -101q-39 -185 -86.5 -452t-76 -551t-12 -521.5t106.5 -367.5q29 -44 60.5 -51.5t80.5 14.5q187 79 366 266t344 435.5t304 515
t242 505t161 403.5q77 224 125 455q9 44 22 86q24 88 112 82q84 -3 88 -86q5 -97 0 -192q-13 -195 -28 -389q-16 -207 -31 -414q0 -17 -7 -59q-9 -79 -18.5 -197t-2 -229t49.5 -170.5t134 -21.5q70 33 262.5 188t239 177t55 1t-4.5 -43q-79 -108 -168 -207t-206 -171
q-134 -82 -292 -73q-108 9 -164 71.5t-75 156t-16.5 191.5t10.5 177q20 165 36 333q0 11 2 22q4 59 -1.5 71t-16.5 -4.5t-24 -45t-24 -54.5q-5 -14 -7 -20v0v0zM2266 2333v0q44 -85 82 -171q13 -27 24 -53q4 -11 6 -20v-6q0 -38 -30 -42q-51 -13 -86 26q-16 18 -24.5 42
t-13.5 51q-8 37 -22 66q-11 22 -30.5 27.5t-32.5 -12.5q-11 -15 -29 -40.5t-33 -47.5q-13 -20 -22 -33q-42 -59 -70.5 -60.5t-36 29.5t16.5 68q15 25 33 51q44 68 92 136q40 49 92.5 45.5t83.5 -56.5z" />
    <glyph glyph-name="Udieresis" unicode="&#xdc;" horiz-adv-x="3551" 
d="M2673 919q-88 -207 -222 -471t-303.5 -532.5t-365.5 -487.5t-409 -333q-101 -55 -218 -64q-209 -9 -297 181q-75 162 -84.5 407.5t20 525t79 546.5t93.5 479q18 92 33 169q42 209 77 419t53 426q4 64 4 126.5t-15 126.5q-9 44 -27 83q-46 99 -151 95q-58 -4 -115 -20
q-116 -35 -220 -99q-136 -83 -305.5 -222t-333.5 -316t-281.5 -374t-153 -397t50.5 -387q88 -183 282 -242q24 -7 48 -11q27 -7 51 -15q26 -9 24 -40q0 -13 -10 -21t-23 -10q-64 -13 -128 2q-272 60 -398 311q-90 191 -62.5 394.5t136.5 402.5t263 378.5t318 322.5t302 235
q170 115 363 181q132 41 266 28q223 -20 278 -240q19 -83 20.5 -169t-7.5 -172q-18 -213 -53 -422t-79 -416q-9 -53 -20 -108q-9 -44 -20 -101q-39 -185 -86.5 -452t-76 -551t-12 -521.5t106.5 -367.5q29 -44 60.5 -51.5t80.5 14.5q187 79 366 266t344 435.5t304 515
t242 505t161 403.5q77 224 125 455q9 44 22 86q24 88 112 82q84 -3 88 -86q5 -97 0 -192q-13 -195 -28 -389q-16 -207 -31 -414q0 -17 -7 -59q-9 -79 -18.5 -197t-2 -229t49.5 -170.5t134 -21.5q70 33 262.5 188t239 177t55 1t-4.5 -43q-79 -108 -168 -207t-206 -171
q-134 -82 -292 -73q-108 9 -164 71.5t-75 156t-16.5 191.5t10.5 177q20 165 36 333q0 11 2 22q4 59 -1.5 71t-16.5 -4.5t-24 -45t-24 -54.5q-5 -14 -7 -20v0v0zM2290 2193v0q11 -7 20 -16q16 -26 11.5 -63.5t-23.5 -68.5t-47 -39q-42 -9 -69.5 12t-23.5 69q0 7 3 11
q0 15 2 29q6 50 42.5 69t84.5 -3zM1971 2190v0q38 0 61 -16.5t23 -42.5q-9 -106 -101 -106q-71 9 -66 91q9 74 83 74z" />
    <glyph glyph-name="Yacute" unicode="&#xdd;" horiz-adv-x="3470" 
d="M2647 -302q-15 -5 -26 -7q-7 -2 -11.5 -3t-6.5 -3q-20 -20 -124.5 -119t-248.5 -248.5t-283.5 -313.5t-230 -311.5t-87 -245.5t146.5 -111q50 -4 101 7q73 19 143 55q222 114 340 294.5t173 397t88 443.5q13 83 26 165v0v0zM2748 697q-11 -25 -24 -49q-29 -59 -57 -121
q-172 -361 -442 -651q-84 -90 -179 -165q-176 -139 -404 -130q-152 9 -243.5 87t-134.5 198t-51 254q-11 161 -2.5 348t24.5 385q24 290 28.5 558.5t-46.5 466.5q-42 150 -131 205t-243 24q-119 -24 -231 -73q-132 -59 -296 -169t-313.5 -254t-243 -308t-89 -333.5
t151.5 -325.5q134 -143 300.5 -222.5t366.5 -79.5h13q26 3 49.5 -1.5t38.5 -33.5q9 -20 -18.5 -37.5t-76.5 -21.5q-134 -13 -266 20q-284 74 -501 270q-172 163 -210.5 335.5t25.5 343t198 328t305.5 288.5t348.5 224.5t327 135.5q163 44 330 24q249 -24 334 -258
q47 -134 59 -318.5t1 -396t-27 -422.5q-13 -163 -20.5 -310.5t-5.5 -265.5q2 -77 17.5 -181.5t54 -199.5t110 -143t185.5 -13q64 22 119 60.5t104 84.5q244 238 411 535q99 178 179.5 366t150.5 379q13 38 29 75q22 64 46 130q31 81 116 79q86 -2 93 -86q4 -171 -16 -343
q-28 -277 -57 -554q-13 -130 -28 -258q0 -11 2 -19.5t13 -10.5q7 -3 16.5 0.5t16.5 7.5q158 110 317 218q57 40 174.5 101.5t161.5 24.5q9 -27 -11 -47q-70 -68 -151 -121q-16 -11 -29 -22q-73 -48 -143 -99q-134 -92 -266 -187q-66 -46 -96 -74.5t-42 -67t-21 -113.5
q-2 -6 -2 -11q-4 -24 -9 -50q-30 -231 -81 -467.5t-146.5 -444.5t-264 -354.5t-440.5 -199.5q-141 -26 -278 16q-156 53 -166 175t82.5 287t244.5 344t318 346.5t303.5 291.5t203.5 182q37 33 60.5 70t27.5 90q20 196 44 394q11 95 22 189q2 22 0 44v20q-9 4 -20 7v0v0z
M2227 1843q11 17 29.5 21.5t38.5 2.5h7q8 -2 17 -2q46 -11 51.5 -31t-11 -42t-35.5 -39q-47 -51 -91 -117q-39 -55 -69 -87t-45 -8q-18 14 -19 31.5t6 37.5q13 57 40.5 106.5t60.5 97.5q9 16 20 29v0z" />
    <glyph glyph-name="Thorn" unicode="&#xde;" horiz-adv-x="981" 
d="M491 1442v0q184 -35 314 -171.5t156 -320.5q20 -141 -19 -278q-51 -154 -159 -244t-257 -134q-66 -18 -137 -24h-2q-46 -7 -44 -51v-132v-86v-30q0 -42 -2 -84q-4 -53 -55 -55q-70 -4 -84 44q-8 62 -8 125q-20 473 -7 944q2 141 0 280v77q-2 41 -40 33q-13 -5 -24 -9
q-31 -11 -61 -11q-18 0 -32.5 5.5t-20.5 22.5q-9 18 0 31t24 20q51 24 103 46h3q24 9 35 15.5t13 18.5t2 37v79q-2 50 0 101q2 57 51 59q77 11 88 -48q9 -59 13 -119q2 -31 4 -59q3 -18 7 -33q0 -9 2 -18q49 -20 101 -24q18 -2 36 -7zM779 716v0q44 165 -2.5 302.5
t-167.5 250.5q-85 79 -204 94q-57 11 -57 -46v-334v-126h-5v-64v-176v-66v-138q0 -40 12 -51t48 -2q294 68 376 356z" />
    <glyph glyph-name="germandbls" unicode="&#xdf;" horiz-adv-x="1164" 
d="M948 866v0q110 -35 163 -117.5t37 -197.5q-44 -290 -305 -429q-124 -61 -260 -33q-59 9 -99 43t-53 94q-22 119 75 191q95 77 216 42q6 -2 12.5 -10t9.5 -16q0 -9 -7 -18t-13 -13q-13 -5 -27 -7q-11 -2 -22 -6q-103 -40 -81 -150q9 -35 35.5 -51.5t59.5 -7.5
q83 26 154.5 105t110 178t23.5 183q-22 110 -130 143q-84 24 -165 7q-66 -11 -130 -27q-4 -2 -6 -2q-44 -11 -88 0q-71 24 -44 88q26 51 57 99q79 123 154 249.5t138 258.5q40 73 55 154q3 22 -10.5 36.5t-33.5 16.5h-4q-11 0 -22 -2q-220 -40 -420 -143q-88 -51 -108 -150
q-20 -81 -26 -163q-3 -33 -5 -66q-11 -178 -16.5 -355t5.5 -355q11 -205 7 -409v-77q-2 -51 -34 -71t-78 -2q-27 9 -33 35q-5 27 -7 51q-33 497 -20 994q5 141 20 282q2 31 4 61q5 36 14 71q4 15 8 31q25 121 132 178q143 81 296 129.5t320 46.5q238 -2 159 -222
q-35 -95 -86 -185q-73 -132 -152 -264q-33 -55 -64 -110q-4 -9 -8 -16q-11 -13 -19 -30.5t-6 -41.5h64q77 0 154 -2q51 -3 99 -18z" />
    <glyph glyph-name="agrave" unicode="&#xe0;" horiz-adv-x="847" 
d="M916 503v0q11 -2 15 -6.5t9 -17.5q4 -13 -9 -31t-24 -29q-82 -77 -192 -92q-63 -9 -126 -4.5t-124 30.5q-44 22 -82 -13q-79 -72 -165 -138q-44 -33 -92.5 -55t-105.5 -25q-167 3 -132 163q2 7 5 11q48 130 127 234.5t200 174.5q80 47 172 36q24 -5 46 -18q27 -13 22 -42
q-2 -9 -8.5 -15.5t-13.5 -12.5q-4 -5 -10.5 -7t-13.5 -2q-66 -2 -113.5 -38.5t-86.5 -82.5q-44 -49 -81.5 -108t-61.5 -141q88 51 138 101q11 11 22 20q9 9 18 16q44 41 92 72q55 31 109 31t105 -44q70 -62 136 -48.5t123 46.5q58 35 102 35zM311 1150v0q8 -13 17 -29
q33 -48 60.5 -97.5t43.5 -106.5q4 -20 3 -37.5t-19 -31.5q-15 -24 -45 8t-67 87q-46 66 -92 117q-20 17 -35.5 39t-11 42t50.5 31q9 0 18 2h8q20 2 39 -2.5t30 -21.5z" />
    <glyph glyph-name="aacute" unicode="&#xe1;" horiz-adv-x="847" 
d="M916 503v0q11 -2 15 -6.5t9 -17.5q4 -13 -9 -31t-24 -29q-82 -77 -192 -92q-63 -9 -126 -4.5t-124 30.5q-44 22 -82 -13q-79 -72 -165 -138q-44 -33 -92.5 -55t-105.5 -25q-167 3 -132 163q2 7 5 11q48 130 127 234.5t200 174.5q80 47 172 36q24 -5 46 -18q27 -13 22 -42
q-2 -9 -8.5 -15.5t-13.5 -12.5q-4 -5 -10.5 -7t-13.5 -2q-66 -2 -113.5 -38.5t-86.5 -82.5q-44 -49 -81.5 -108t-61.5 -141q88 51 138 101q11 11 22 20q9 9 18 16q44 41 92 72q55 31 109 31t105 -44q70 -62 136 -48.5t123 46.5q58 35 102 35zM443 1137q11 17 29.5 21.5
t38.5 2.5h6q9 -2 18 -2q46 -11 51.5 -31t-11 -42t-36.5 -40q-46 -50 -90 -116q-39 -55 -69 -87t-45 -8q-18 13 -19 31t6 37q13 58 40.5 107.5t60.5 97.5q9 15 20 29v0z" />
    <glyph glyph-name="acircumflex" unicode="&#xe2;" horiz-adv-x="847" 
d="M916 503v0q11 -2 15 -6.5t9 -17.5q4 -13 -9 -31t-24 -29q-82 -77 -192 -92q-63 -9 -126 -4.5t-124 30.5q-44 22 -82 -13q-79 -72 -165 -138q-44 -33 -92.5 -55t-105.5 -25q-167 3 -132 163q2 7 5 11q48 130 127 234.5t200 174.5q80 47 172 36q24 -5 46 -18q27 -13 22 -42
q-2 -9 -8.5 -15.5t-13.5 -12.5q-4 -5 -10.5 -7t-13.5 -2q-66 -2 -113.5 -38.5t-86.5 -82.5q-44 -49 -81.5 -108t-61.5 -141q88 51 138 101q11 11 22 20q9 9 18 16q44 41 92 72q55 31 109 31t105 -44q70 -62 136 -48.5t123 46.5q58 35 102 35zM537 1095v0q44 -86 82 -172
q13 -26 24 -53q4 -11 6 -19v-7q0 -37 -30 -42q-51 -13 -86 27q-16 17 -24.5 41.5t-13.5 50.5q-8 37 -22 66q-11 22 -30.5 27.5t-32.5 -12.5q-11 -15 -29 -40.5t-33 -47.5q-13 -19 -22 -33q-42 -59 -70.5 -60t-36 29.5t16.5 68.5q15 24 33 50q44 69 92 137q40 48 92.5 45
t83.5 -56z" />
    <glyph glyph-name="atilde" unicode="&#xe3;" horiz-adv-x="847" 
d="M916 503v0q11 -2 15 -6.5t9 -17.5q4 -13 -9 -31t-24 -29q-82 -77 -192 -92q-63 -9 -126 -4.5t-124 30.5q-44 22 -82 -13q-79 -72 -165 -138q-44 -33 -92.5 -55t-105.5 -25q-167 3 -132 163q2 7 5 11q48 130 127 234.5t200 174.5q80 47 172 36q24 -5 46 -18q27 -13 22 -42
q-2 -9 -8.5 -15.5t-13.5 -12.5q-4 -5 -10.5 -7t-13.5 -2q-66 -2 -113.5 -38.5t-86.5 -82.5q-44 -49 -81.5 -108t-61.5 -141q88 51 138 101q11 11 22 20q9 9 18 16q44 41 92 72q55 31 109 31t105 -44q70 -62 136 -48.5t123 46.5q58 35 102 35zM658 1024v0q38 -6 42 -44
q7 -88 -70 -136q-62 -35 -130 -29q-115 -2 -187 80q-46 55 -69.5 53.5t-69.5 -58.5q-6 -4 -11 -11q-20 -22 -44 -24t-48 4q-18 7 -24.5 22.5t0.5 30.5q39 68 118.5 102.5t158.5 16.5q44 -15 72 -48q11 -11 22 -25q18 -22 38 -39q57 -53 99 15q9 13 13 27q4 11 9 22
q26 52 81 41z" />
    <glyph glyph-name="adieresis" unicode="&#xe4;" horiz-adv-x="847" 
d="M916 503v0q11 -2 15 -6.5t9 -17.5q4 -13 -9 -31t-24 -29q-82 -77 -192 -92q-63 -9 -126 -4.5t-124 30.5q-44 22 -82 -13q-79 -72 -165 -138q-44 -33 -92.5 -55t-105.5 -25q-167 3 -132 163q2 7 5 11q48 130 127 234.5t200 174.5q80 47 172 36q24 -5 46 -18q27 -13 22 -42
q-2 -9 -8.5 -15.5t-13.5 -12.5q-4 -5 -10.5 -7t-13.5 -2q-66 -2 -113.5 -38.5t-86.5 -82.5q-44 -49 -81.5 -108t-61.5 -141q88 51 138 101q11 11 22 20q9 9 18 16q44 41 92 72q55 31 109 31t105 -44q70 -62 136 -48.5t123 46.5q58 35 102 35zM588 969v0q11 -6 20 -15
q15 -26 10.5 -63.5t-23 -68.5t-47.5 -40q-42 -8 -69.5 12.5t-22.5 69.5q0 6 2 11q0 15 2 28q7 51 43 69.5t85 -3.5zM269 967v0q37 0 60 -16.5t23 -42.5q-8 -106 -101 -106q-70 9 -66 90q9 75 84 75z" />
    <glyph glyph-name="aring" unicode="&#xe5;" horiz-adv-x="847" 
d="M916 503v0q11 -2 15 -6.5t9 -17.5q4 -13 -9 -31t-24 -29q-82 -77 -192 -92q-63 -9 -126 -4.5t-124 30.5q-44 22 -82 -13q-79 -72 -165 -138q-44 -33 -92.5 -55t-105.5 -25q-167 3 -132 163q2 7 5 11q48 130 127 234.5t200 174.5q80 47 172 36q24 -5 46 -18q27 -13 22 -42
q-2 -9 -8.5 -15.5t-13.5 -12.5q-4 -5 -10.5 -7t-13.5 -2q-66 -2 -113.5 -38.5t-86.5 -82.5q-44 -49 -81.5 -108t-61.5 -141q88 51 138 101q11 11 22 20q9 9 18 16q44 41 92 72q55 31 109 31t105 -44q70 -62 136 -48.5t123 46.5q58 35 102 35zM484 1093v0q93 -25 75 -135
q-26 -165 -176 -154q-46 3 -88 16q-94 39 -77 152q24 136 148 132q8 0 19 -3q5 -2 9 -2v2v0q16 -2 29 -2q31 0 61 -6zM414 910v0q18 33 20 73q2 30 -24 41q-27 9 -47 -11q-11 -13 -14 -28.5t-5 -28.5v-11v-15q2 -13 8.5 -24t19.5 -16q27 -6 42 20z" />
    <glyph glyph-name="ae" unicode="&#xe6;" horiz-adv-x="632" 
d="M465 353q-44 22 -82 -13q-79 -72 -165 -138q-44 -33 -92.5 -55t-105.5 -25q-167 3 -132 163q2 7 5 11q48 130 127 234.5t200 174.5q80 47 172 36q24 -5 46 -18q27 -13 22 -42q-2 -9 -8.5 -15.5t-13.5 -12.5q-4 -5 -10.5 -7t-13.5 -2q-66 -2 -113.5 -38.5t-86.5 -82.5
q-44 -49 -81.5 -108t-61.5 -141q88 51 138 101q11 11 22 20q9 9 18 16q44 41 92 72q55 31 109 31t105 -44q70 -62 20.5 -102.5t-110.5 -14.5z" />
    <glyph glyph-name="ccedilla" unicode="&#xe7;" horiz-adv-x="792" 
d="M741 459v0q5 2 7 4q24 14 54 29t54 14t28 -32q-2 -46 -98.5 -97.5t-237.5 -98t-272 -74t-197 -24.5q-75 8 -110 54.5t-26 123.5q13 83 75.5 169t165 135.5t227.5 27.5q20 -2 33 -15q7 -5 12.5 -13.5t3.5 -17.5q-2 -27 -33 -34.5t-60 -7.5q-6 0 -13 -2q-79 -11 -155 -91.5
t-85 -174.5q0 -40 78.5 -38t189.5 32t211 66t148 65z" />
    <glyph glyph-name="egrave" unicode="&#xe8;" horiz-adv-x="924" 
d="M213 391v0h-4h2h2zM913 492v0q11 7 35 16.5t46 11t31 -16.5q7 -13 3.5 -25t-12.5 -21q-55 -60 -170.5 -121.5t-239.5 -108.5t-206 -61q-94 -17 -191 -8q-119 15 -177 98.5t-47 187.5q17 116 106 184.5t204 50.5q70 -9 127 -51q62 -50 55.5 -115t-77.5 -100
q-37 -18 -82 -22.5t-105 0.5h-3h-9.5h-13.5q-18 0 -23.5 -10t-0.5 -25q33 -82 129.5 -86.5t219 36.5t232.5 95t169 91zM211 556v0q-15 -11 -20.5 -25.5t-6.5 -24.5t3 -12t25 -5.5t46.5 -1t42 11t11.5 30.5q-11 31 -42.5 39t-58.5 -12zM251 947v0q6 -11 13 -22
q24 -35 45 -72.5t32 -78.5q4 -16 3 -29t-14 -22q-11 -18 -34 6.5t-50 63.5q-33 49 -68 86q-15 13 -27 31t-8 32t37 21q7 2 14 2q2 0 6 2q13 0 27.5 -3t23.5 -17z" />
    <glyph glyph-name="eacute" unicode="&#xe9;" horiz-adv-x="924" 
d="M213 391v0h-4h2h2zM913 492v0q11 7 35 16.5t46 11t31 -16.5q7 -13 3.5 -25t-12.5 -21q-55 -60 -170.5 -121.5t-239.5 -108.5t-206 -61q-94 -17 -191 -8q-119 15 -177 98.5t-47 187.5q17 116 106 184.5t204 50.5q70 -9 127 -51q62 -50 55.5 -115t-77.5 -100
q-37 -18 -82 -22.5t-105 0.5h-3h-9.5h-13.5q-18 0 -23.5 -10t-0.5 -25q33 -82 129.5 -86.5t219 36.5t232.5 95t169 91zM211 556v0q-15 -11 -20.5 -25.5t-6.5 -24.5t3 -12t25 -5.5t46.5 -1t42 11t11.5 30.5q-11 31 -42.5 39t-58.5 -12zM345 950q9 13 23.5 16t29.5 3
q2 -2 5 -2q6 0 13 -2q33 -7 37.5 -21t-8 -30.5t-25.5 -32.5q-35 -37 -68 -85q-29 -40 -51 -64t-35 -7q-13 9 -14 22t3 29q11 42 32 79t45 73q7 11 13 22v0z" />
    <glyph glyph-name="ecircumflex" unicode="&#xea;" horiz-adv-x="924" 
d="M213 391v0h-4h2h2zM913 492v0q11 7 35 16.5t46 11t31 -16.5q7 -13 3.5 -25t-12.5 -21q-55 -60 -170.5 -121.5t-239.5 -108.5t-206 -61q-94 -17 -191 -8q-119 15 -177 98.5t-47 187.5q17 116 106 184.5t204 50.5q70 -9 127 -51q62 -50 55.5 -115t-77.5 -100
q-37 -18 -82 -22.5t-105 0.5h-3h-9.5h-13.5q-18 0 -23.5 -10t-0.5 -25q33 -82 129.5 -86.5t219 36.5t232.5 95t169 91zM211 556v0q-15 -11 -20.5 -25.5t-6.5 -24.5t3 -12t25 -5.5t46.5 -1t42 11t11.5 30.5q-11 31 -42.5 39t-58.5 -12zM403 950v0q30 -64 59 -128l18 -40
q4 -6 4 -15q0 -2 2 -4q-2 -27 -24 -31q-37 -11 -64 20q-11 13 -17.5 30.5t-10.5 37.5q-7 28 -16 50q-9 16 -23 19t-25 -8q-9 -11 -21 -29.5t-25 -38.5q-9 -13 -16 -22q-31 -46 -53 -46t-26 23t11 50q13 19 26 37q33 53 69 101q28 38 67.5 35.5t64.5 -41.5z" />
    <glyph glyph-name="edieresis" unicode="&#xeb;" horiz-adv-x="924" 
d="M213 391v0h-4h2h2zM913 492v0q11 7 35 16.5t46 11t31 -16.5q7 -13 3.5 -25t-12.5 -21q-55 -60 -170.5 -121.5t-239.5 -108.5t-206 -61q-94 -17 -191 -8q-119 15 -177 98.5t-47 187.5q17 116 106 184.5t204 50.5q70 -9 127 -51q62 -50 55.5 -115t-77.5 -100
q-37 -18 -82 -22.5t-105 0.5h-3h-9.5h-13.5q-18 0 -23.5 -10t-0.5 -25q33 -82 129.5 -86.5t219 36.5t232.5 95t169 91zM211 556v0q-15 -11 -20.5 -25.5t-6.5 -24.5t3 -12t25 -5.5t46.5 -1t42 11t11.5 30.5q-11 31 -42.5 39t-58.5 -12zM449 855v0q9 -4 15 -11q11 -20 9 -47.5
t-16.5 -50.5t-36.5 -30q-31 -6 -51.5 9.5t-16.5 52.5v7q0 11 2 19q5 40 32.5 53t62.5 -2zM211 855v0q29 -2 46.5 -14t17.5 -30q-7 -79 -75 -79q-53 6 -50 66q6 55 61 57z" />
    <glyph glyph-name="igrave" unicode="&#xec;" horiz-adv-x="613" 
d="M728 501v0q13 -7 12 -23.5t-10 -29.5q-68 -101 -146 -179t-171.5 -116.5t-214.5 -21.5q-81 13 -122 55t-61 119q-33 121 -15 249q15 74 92 77q69 0 75 -62q2 -51 0 -101v-13q-4 -137 44.5 -187.5t126.5 -26.5t166 110q11 11 27.5 30t36.5 38q28 29 46 49q55 55 114 33z
M97 919v0q6 -11 13 -22q24 -35 45 -72.5t32 -79.5q4 -15 3 -28.5t-14 -22.5q-11 -17 -34 7t-50 64q-33 48 -68 86q-15 13 -27 30.5t-8 32t37 20.5q7 2 14 2q2 0 6 3q13 0 27.5 -3.5t23.5 -16.5z" />
    <glyph glyph-name="iacute" unicode="&#xed;" horiz-adv-x="613" 
d="M728 501v0q13 -7 12 -23.5t-10 -29.5q-68 -101 -146 -179t-171.5 -116.5t-214.5 -21.5q-81 13 -122 55t-61 119q-33 121 -15 249q15 74 92 77q69 0 75 -62q2 -51 0 -101v-13q-4 -137 44.5 -187.5t126.5 -26.5t166 110q11 11 27.5 30t36.5 38q28 29 46 49q55 55 114 33z
M156 923q9 13 23.5 16.5t29.5 3.5q2 -2 4 -2q7 0 14 -2q33 -7 37 -21.5t-8 -31t-25 -31.5q-35 -37 -68 -86q-29 -39 -51 -63.5t-35 -6.5q-13 9 -14 22t3 28q11 42 32 79.5t45 72.5q7 11 13 22v0z" />
    <glyph glyph-name="icircumflex" unicode="&#xee;" horiz-adv-x="613" 
d="M728 501v0q13 -7 12 -23.5t-10 -29.5q-68 -101 -146 -179t-171.5 -116.5t-214.5 -21.5q-81 13 -122 55t-61 119q-33 121 -15 249q15 74 92 77q69 0 75 -62q2 -51 0 -101v-13q-4 -137 44.5 -187.5t126.5 -26.5t166 110q11 11 27.5 30t36.5 38q28 29 46 49q55 55 114 33z
M216 890v0q30 -64 59 -127l18 -40q4 -7 4 -15q0 -3 2 -5q-2 -26 -24 -31q-37 -11 -64 20q-11 13 -17.5 31t-10.5 37q-7 29 -16 51q-9 15 -23 18.5t-25 -7.5q-9 -11 -21 -29.5t-25 -38.5q-9 -13 -16 -22q-31 -46 -53 -46t-26 23t11 49q13 20 26 38q33 52 69 101
q28 37 67.5 35t64.5 -42z" />
    <glyph glyph-name="idieresis" unicode="&#xef;" horiz-adv-x="613" 
d="M728 501v0q13 -7 12 -23.5t-10 -29.5q-68 -101 -146 -179t-171.5 -116.5t-214.5 -21.5q-81 13 -122 55t-61 119q-33 121 -15 249q15 74 92 77q69 0 75 -62q2 -51 0 -101v-13q-4 -137 44.5 -187.5t126.5 -26.5t166 110q11 11 27.5 30t36.5 38q28 29 46 49q55 55 114 33z
M238 813v0q8 -4 15 -11q11 -20 9 -47.5t-16.5 -50.5t-36.5 -29q-31 -7 -52 8.5t-16 52.5v7q0 11 2 20q4 39 31.5 52.5t63.5 -2.5zM0 813v0q29 -2 46.5 -14t17.5 -30q-7 -79 -75 -79q-53 7 -51 66q7 55 62 57z" />
    <glyph glyph-name="eth" unicode="&#xf0;" horiz-adv-x="713" 
d="M477 602v0q80 -103 106 -231q20 -110 -29 -211q-41 -84 -116 -120t-154 -30.5t-134 42.5q-97 68 -93 185q5 156 126 255q41 33 94 33q16 2 31 -2.5t24 -19.5q11 -18 3.5 -31t-20.5 -22q-75 -66 -97 -160q-24 -86 28 -159q44 -50 102 -13q48 35 66.5 84.5t18.5 104.5
q-2 86 -37 159.5t-97 135.5q-26 24 -57 2q-13 -11 -29 -22q-26 -22 -52 -39q-25 -20 -55 -29q-22 -4 -44 -2t-40 20q-22 22 33 72q4 2 9 7q6 4 11 9q15 15 35 26t33 25.5t9 38.5q-5 17 -22.5 26t-37.5 16q-19 4 -37 13q-9 4 -14.5 10.5t-7.5 17.5q0 16 10 22.5t23 10.5
q44 16 86 -2q48 -17 94 -39q44 -22 86 2q33 15 71 24q39 11 74 -9q11 -11 13.5 -28.5t-8.5 -26.5q-24 -15 -57 -31q-14 -6 -31 -15q17 -20 33 -37q28 -33 50 -62z" />
    <glyph glyph-name="ntilde" unicode="&#xf1;" horiz-adv-x="1234" 
d="M1320 448v0h2q11 -2 22 -7.5t14 -21.5q6 -28 -16 -44q-90 -63 -193 -99q-93 -30 -187.5 -38t-191.5 1q-125 13 -202 119q-24 33 -49 66q-24 33 -50 68q-22 29 -55 7q-40 -29 -72 -65.5t-60 -75.5q-2 -5 -5 -9q-11 -13 -22 -29q-13 -24 -30 -44q-29 -33 -75 -42.5t-88 7.5
q-31 16 -40 46q-28 113 -35 227q0 62 57 73q66 15 95 -42q4 -9 6 -22q3 -13 8.5 -25.5t20.5 -20.5q18 15 33 28q35 31 68 60q40 33 84 47t94 14q117 0 185 -92q13 -20 27 -38q30 -46 63 -88q53 -68 141 -70q90 -4 172.5 16.5t159.5 62.5q3 2 7 5q26 15 53.5 24t58.5 2z
M596 831v0q33 -7 36 -33q6 -66 -60 -104q-50 -24 -108 -19q-96 -3 -160 59q-38 42 -56.5 41t-60.5 -45q-4 -3 -9 -7q-15 -15 -35 -17.5t-42 2.5q-15 4 -20.5 15t1.5 24q33 51 100 76t133 12q37 -11 61 -35l18 -18q15 -17 33 -30q48 -38 84 11q6 11 11 19q2 9 6 18
q22 37 68 31z" />
    <glyph glyph-name="ograve" unicode="&#xf2;" horiz-adv-x="1054" 
d="M1107 523v0q37 6 46 -2.5t4 -28.5q-2 -35 -28.5 -61.5t-68.5 -46.5q-99 -46 -193.5 -53.5t-197.5 16.5q-46 13 -78 1t-65 -74q-82 -158 -260 -178q-134 -13 -198 50.5t-81 162.5q-20 102 8.5 191t94.5 166q51 55 126 46q35 0 55 -26q11 -18 4 -31t-20 -24v0
q-108 -113 -101 -267q2 -72 42 -132q35 -50 88 -15q50 40 88.5 110t44 144t-40.5 131q-24 22 -46 31q-11 6 -20 11.5t-9 14.5q-2 51 37.5 74t97 23t107 -23t64.5 -67q16 -57 9 -115q-2 -48 40 -74q94 -66 206 -47q47 9 85.5 24.5t73.5 33.5q46 24 86 35zM304 1057v0
q6 -11 13 -22q24 -35 45 -72.5t32 -78.5q4 -16 3 -29t-14 -22q-11 -18 -34 6.5t-50 63.5q-33 49 -68 86q-15 13 -27.5 31t-8 32t37.5 21q7 2 13 2q3 0 7 2q13 0 27.5 -3t23.5 -17z" />
    <glyph glyph-name="oacute" unicode="&#xf3;" horiz-adv-x="1054" 
d="M1107 523v0q37 6 46 -2.5t4 -28.5q-2 -35 -28.5 -61.5t-68.5 -46.5q-99 -46 -193.5 -53.5t-197.5 16.5q-46 13 -78 1t-65 -74q-82 -158 -260 -178q-134 -13 -198 50.5t-81 162.5q-20 102 8.5 191t94.5 166q51 55 126 46q35 0 55 -26q11 -18 4 -31t-20 -24v0
q-108 -113 -101 -267q2 -72 42 -132q35 -50 88 -15q50 40 88.5 110t44 144t-40.5 131q-24 22 -46 31q-11 6 -20 11.5t-9 14.5q-2 51 37.5 74t97 23t107 -23t64.5 -67q16 -57 9 -115q-2 -48 40 -74q94 -66 206 -47q47 9 85.5 24.5t73.5 33.5q46 24 86 35zM385 1029
q9 13 23 16.5t30 3.5q2 -3 4 -3q7 0 13 -2q33 -6 37.5 -20.5t-7.5 -31t-25 -31.5q-35 -38 -68 -86q-29 -40 -51 -64t-35 -7q-13 9 -14.5 22.5t3.5 28.5q11 42 32 79.5t45 72.5q6 11 13 22v0z" />
    <glyph glyph-name="ocircumflex" unicode="&#xf4;" horiz-adv-x="1054" 
d="M1107 523v0q37 6 46 -2.5t4 -28.5q-2 -35 -28.5 -61.5t-68.5 -46.5q-99 -46 -193.5 -53.5t-197.5 16.5q-46 13 -78 1t-65 -74q-82 -158 -260 -178q-134 -13 -198 50.5t-81 162.5q-20 102 8.5 191t94.5 166q51 55 126 46q35 0 55 -26q11 -18 4 -31t-20 -24v0
q-108 -113 -101 -267q2 -72 42 -132q35 -50 88 -15q50 40 88.5 110t44 144t-40.5 131q-24 22 -46 31q-11 6 -20 11.5t-9 14.5q-2 51 37.5 74t97 23t107 -23t64.5 -67q16 -57 9 -115q-2 -48 40 -74q94 -66 206 -47q47 9 85.5 24.5t73.5 33.5q46 24 86 35zM449 998v0
q31 -64 59 -128q9 -19 18 -39q4 -7 4 -16q0 -2 2 -4q-2 -26 -24 -31q-37 -11 -64 20q-11 13 -17.5 30.5t-10.5 37.5q-7 29 -16 51q-8 15 -22.5 18.5t-25.5 -7.5q-9 -11 -21 -30t-25 -38q-9 -14 -16 -22q-30 -47 -52 -47t-26.5 23.5t10.5 49.5q13 20 27 37q33 53 68 102
q28 37 68 35t64 -42z" />
    <glyph glyph-name="otilde" unicode="&#xf5;" horiz-adv-x="1054" 
d="M1107 523v0q37 6 46 -2.5t4 -28.5q-2 -35 -28.5 -61.5t-68.5 -46.5q-99 -46 -193.5 -53.5t-197.5 16.5q-46 13 -78 1t-65 -74q-82 -158 -260 -178q-134 -13 -198 50.5t-81 162.5q-20 102 8.5 191t94.5 166q51 55 126 46q35 0 55 -26q11 -18 4 -31t-20 -24v0
q-108 -113 -101 -267q2 -72 42 -132q35 -50 88 -15q50 40 88.5 110t44 144t-40.5 131q-24 22 -46 31q-11 6 -20 11.5t-9 14.5q-2 51 37.5 74t97 23t107 -23t64.5 -67q16 -57 9 -115q-2 -48 40 -74q94 -66 206 -47q47 9 85.5 24.5t73.5 33.5q46 24 86 35zM618 934v0
q33 -6 35 -33q7 -66 -59 -103q-51 -24 -108 -20q-97 -2 -160 59q-38 42 -56.5 41t-60.5 -45q-4 -2 -9 -7q-15 -15 -35 -17t-42 2q-15 4 -20.5 15t0.5 25q33 50 100.5 75.5t133.5 12.5q37 -11 61 -36q9 -8 18 -17q15 -18 33 -31q48 -37 83 11q7 11 11 20q3 9 7 17
q22 38 68 31z" />
    <glyph glyph-name="odieresis" unicode="&#xf6;" horiz-adv-x="1054" 
d="M1107 523v0q37 6 46 -2.5t4 -28.5q-2 -35 -28.5 -61.5t-68.5 -46.5q-99 -46 -193.5 -53.5t-197.5 16.5q-46 13 -78 1t-65 -74q-82 -158 -260 -178q-134 -13 -198 50.5t-81 162.5q-20 102 8.5 191t94.5 166q51 55 126 46q35 0 55 -26q11 -18 4 -31t-20 -24v0
q-108 -113 -101 -267q2 -72 42 -132q35 -50 88 -15q50 40 88.5 110t44 144t-40.5 131q-24 22 -46 31q-11 6 -20 11.5t-9 14.5q-2 51 37.5 74t97 23t107 -23t64.5 -67q16 -57 9 -115q-2 -48 40 -74q94 -66 206 -47q47 9 85.5 24.5t73.5 33.5q46 24 86 35zM466 945v0
q9 -4 16 -11q11 -20 8.5 -47.5t-16.5 -50.5t-36 -29q-31 -7 -52 8.5t-16 52.5v7q0 11 2 20q4 39 31.5 52.5t62.5 -2.5zM229 945v0q28 -2 46 -14t18 -30q-7 -79 -75 -79q-53 7 -51 66q7 55 62 57z" />
    <glyph glyph-name="divide" unicode="&#xf7;" horiz-adv-x="961" 
d="M488 950v0q82 0 58 -80q-11 -30 -25 -57q-13 -24 -37 -31.5t-51 3.5q-22 8 -24 30q-2 36 2 73q7 66 77 62zM488 213v0q82 0 58 -80q-11 -30 -25 -57q-13 -24 -37 -31.5t-51 3.5q-22 8 -24 30q-2 36 2 73q7 66 77 62zM524 428l-91 2q-136 5 -301 20q-4 0 -7 5q-4 0 -7.5 3
t-5.5 14q-2 46 22 49q123 15 249 17l50 2h93h246q29 0 57 -4q22 -4 22 -51q0 -46 -22 -50q-8 -2 -17 -2h-53q-112 -5 -235 -5z" />
    <glyph glyph-name="oslash" unicode="&#xf8;" horiz-adv-x="741" 
d="M592 694q11 -13 15 -28q38 -209 -81 -392q-82 -158 -260 -178q-75 -7 -127 9l-80 -106q-41 -53 -81 -108q-24 -33 -53 -33q-37 7 -42.5 38t27.5 75q20 26 37 50q53 73 106 143q-51 60 -66 145q-20 102 8.5 191t94.5 166q51 55 126 46q35 0 55 -26q11 -18 4 -31t-20 -24
q-108 -113 -101 -267q0 -28 7 -55q61 80 121 159q6 11 15 20q44 59 81 110q0 2 -2 4q-24 22 -46 31q-11 6 -20 11.5t-9 14.5q-2 51 37.5 74t97.5 23q33 0 63 -7q152 181 225 205q81 26 -132 -260zM218 210q28 -17 66 7q50 40 90 110q35 68 42 139q-22 -31 -49 -62z" />
    <glyph glyph-name="ugrave" unicode="&#xf9;" horiz-adv-x="1141" 
d="M1254 505v0q13 -2 18.5 -8.5t7.5 -19.5q0 -33 -60.5 -76t-132 -79.5t-101.5 -45.5q-102 -39 -199.5 -27t-170.5 102q-46 64 -69 58.5t-56 -56.5q-36 -57 -117 -136q-92 -68 -172.5 -63.5t-135.5 62.5t-71.5 149.5t18.5 194.5q29 82 121 68q24 -4 38.5 -20.5t7.5 -40.5
q-19 -82 -15 -163q-2 -53 20 -99q22 -40 60.5 -13.5t77 77t60.5 83.5q4 9 9 16q8 11 17 24q27 42 57 79q53 62 135 53q70 -4 99 -70q57 -146 168 -160t241 69q33 25 68 38t77 4zM251 947v0q6 -11 13 -22q24 -35 45 -72.5t32 -78.5q4 -16 3 -29t-14 -22q-11 -18 -34 6.5
t-50 63.5q-33 49 -68 86q-15 13 -27 31t-8 32t37 21q7 2 14 2q2 0 6 2q13 0 27.5 -3t23.5 -17z" />
    <glyph glyph-name="uacute" unicode="&#xfa;" horiz-adv-x="1141" 
d="M1254 505v0q13 -2 18.5 -8.5t7.5 -19.5q0 -33 -60.5 -76t-132 -79.5t-101.5 -45.5q-102 -39 -199.5 -27t-170.5 102q-46 64 -69 58.5t-56 -56.5q-36 -57 -117 -136q-92 -68 -172.5 -63.5t-135.5 62.5t-71.5 149.5t18.5 194.5q29 82 121 68q24 -4 38.5 -20.5t7.5 -40.5
q-19 -82 -15 -163q-2 -53 20 -99q22 -40 60.5 -13.5t77 77t60.5 83.5q4 9 9 16q8 11 17 24q27 42 57 79q53 62 135 53q70 -4 99 -70q57 -146 168 -160t241 69q33 25 68 38t77 4zM361 941q9 13 23 16.5t30 3.5q2 -3 4 -3q7 0 13 -2q33 -6 37.5 -20.5t-7.5 -31t-25 -31.5
q-36 -38 -69 -86q-28 -40 -50 -64t-35 -7q-14 9 -15 22.5t4 28.5q11 42 31.5 79.5t45.5 72.5q6 11 13 22v0z" />
    <glyph glyph-name="ucircumflex" unicode="&#xfb;" horiz-adv-x="1141" 
d="M1254 505v0q13 -2 18.5 -8.5t7.5 -19.5q0 -33 -60.5 -76t-132 -79.5t-101.5 -45.5q-102 -39 -199.5 -27t-170.5 102q-46 64 -69 58.5t-56 -56.5q-36 -57 -117 -136q-92 -68 -172.5 -63.5t-135.5 62.5t-71.5 149.5t18.5 194.5q29 82 121 68q24 -4 38.5 -20.5t7.5 -40.5
q-19 -82 -15 -163q-2 -53 20 -99q22 -40 60.5 -13.5t77 77t60.5 83.5q4 9 9 16q8 11 17 24q27 42 57 79q53 62 135 53q70 -4 99 -70q57 -146 168 -160t241 69q33 25 68 38t77 4zM425 923v0q30 -64 59 -127l18 -40q4 -7 4 -15q0 -3 2 -5q-2 -26 -24 -31q-37 -11 -64 20
q-11 13 -17.5 31t-10.5 37q-7 29 -16 51q-9 15 -23 18.5t-25 -7.5q-9 -11 -21 -29.5t-25 -38.5q-9 -13 -16 -22q-31 -46 -53 -46t-26 23t11 49q13 20 26 38q33 52 69 101q28 37 67.5 35t64.5 -42z" />
    <glyph glyph-name="udieresis" unicode="&#xfc;" horiz-adv-x="1141" 
d="M1254 505v0q13 -2 18.5 -8.5t7.5 -19.5q0 -33 -60.5 -76t-132 -79.5t-101.5 -45.5q-102 -39 -199.5 -27t-170.5 102q-46 64 -69 58.5t-56 -56.5q-36 -57 -117 -136q-92 -68 -172.5 -63.5t-135.5 62.5t-71.5 149.5t18.5 194.5q29 82 121 68q24 -4 38.5 -20.5t7.5 -40.5
q-19 -82 -15 -163q-2 -53 20 -99q22 -40 60.5 -13.5t77 77t60.5 83.5q4 9 9 16q8 11 17 24q27 42 57 79q53 62 135 53q70 -4 99 -70q57 -146 168 -160t241 69q33 25 68 38t77 4zM541 853v0q9 -5 16 -11q11 -20 8.5 -47.5t-16.5 -50.5t-36 -30q-31 -6 -52 9t-17 53v6
q0 11 3 20q4 40 31.5 53t62.5 -2zM304 853v0q28 -2 45.5 -14.5t17.5 -29.5q-6 -79 -74 -79q-53 6 -51 66q7 55 62 57z" />
    <glyph glyph-name="yacute" unicode="&#xfd;" horiz-adv-x="970" 
d="M1069 507v0q20 -4 27.5 -24t-5.5 -35q-90 -95 -196 -183q-99 -85 -196 -180q-57 -62 -66 -145q-2 -13 -2 -27q-24 -215 -64.5 -467t-120 -486.5t-215.5 -396.5q-44 -51 -99 -77.5t-126 -21.5q-151 15 -197.5 113t-15.5 249.5t109 325.5t175 339t182.5 289.5t134.5 179.5
q77 83 81 191q4 44 7 88q8 79 11 176q-31 -22 -55 -37q-40 -29 -73 -49q-97 -57 -209 -33q-84 24 -120 95.5t-35 159.5t32 157q20 44 65 56t87 -12q6 -5 11.5 -15t3.5 -18q-2 -22 -11 -44q-4 -14 -7 -29q-24 -101 14 -200q24 -62 79 -20q92 79 156 183q20 30 35 61
q9 13 16 27q44 66 121 57q85 -5 85 -88q-2 -115 -8 -227q-3 -53 -5 -105q-4 -44 8 -53t49 22q25 20 49 39q86 69 169 137q55 44 119 28zM90 -1363v0q86 106 159.5 309.5t121 421.5t51.5 365q-35 -7 -82.5 -80.5t-100 -187t-103.5 -236.5q-9 -22 -37.5 -112t-58 -203.5
t-44 -206t4.5 -121t89 50.5zM486 1068q9 14 23 17t30 3q2 -2 4 -2q7 0 13 -2q33 -7 37.5 -21t-7.5 -30.5t-25 -32.5q-35 -37 -68 -86q-29 -39 -51 -63.5t-35 -6.5q-13 9 -14.5 22t3.5 29q11 41 32 78.5t45 72.5q6 11 13 22v0z" />
    <glyph glyph-name="thorn" unicode="&#xfe;" horiz-adv-x="871" 
d="M662 1143v0q209 -132 97 -350q-86 -154 -240 -242q-59 -35 -125 -61q-57 -22 -60 -86q-11 -216 -28 -431q-9 -104 -22 -205q-11 -68 -79 -57q-55 4 -55 73q0 30 2 63q0 14 2 25q2 66 7 132q8 156 17 314v60v30q-37 7 -66 0q-17 -2 -31.5 -2t-29.5 9q-7 4 -14.5 11
t-7.5 15q-3 9 1.5 18t11.5 15q11 11 27.5 16.5t31.5 8.5l22 4q57 11 60 70v247q2 149 0 301q0 31 -11 42t-40 15q-20 5 -42 5q-37 -2 -70 15q-9 5 -14.5 13.5t-5.5 15.5v0q0 9 6.5 17.5t15.5 10.5q42 7 84 7q8 0 15 2q37 0 48 11t9 49q-4 165 -11 330q-2 26 -2 52
q-2 27 -4 51q-3 33 -5 64q0 70 68 75h9h2q60 0 71 -62q17 -101 21.5 -202.5t6.5 -204.5q3 -70 7 -139q2 -44 46 -52q55 -11 110 -27q88 -22 165 -66zM616 875v0q40 116 -59 189q-75 51 -163 70q-49 9 -49 -41v-157v-74q0 -3 -1 -8.5t-1 -13.5v-20q-2 -90 0 -183q0 -13 8 -23
t23 -3q86 44 147.5 109t94.5 155zM345 862v0v-3v3z" />
    <glyph glyph-name="ydieresis" unicode="&#xff;" horiz-adv-x="970" 
d="M1069 507v0q20 -4 27.5 -24t-5.5 -35q-90 -95 -196 -183q-99 -85 -196 -180q-57 -62 -66 -145q-2 -13 -2 -27q-24 -215 -64.5 -467t-120 -486.5t-215.5 -396.5q-44 -51 -99 -77.5t-126 -21.5q-151 15 -197.5 113t-15.5 249.5t109 325.5t175 339t182.5 289.5t134.5 179.5
q77 83 81 191q4 44 7 88q8 79 11 176q-31 -22 -55 -37q-40 -29 -73 -49q-97 -57 -209 -33q-84 24 -120 95.5t-35 159.5t32 157q20 44 65 56t87 -12q6 -5 11.5 -15t3.5 -18q-2 -22 -11 -44q-4 -14 -7 -29q-24 -101 14 -200q24 -62 79 -20q92 79 156 183q20 30 35 61
q9 13 16 27q44 66 121 57q85 -5 85 -88q-2 -115 -8 -227q-3 -53 -5 -105q-4 -44 8 -53t49 22q25 20 49 39q86 69 169 137q55 44 119 28zM90 -1363v0q86 106 159.5 309.5t121 421.5t51.5 365q-35 -7 -82.5 -80.5t-100 -187t-103.5 -236.5q-9 -22 -37.5 -112t-58 -203.5
t-44 -206t4.5 -121t89 50.5zM561 939v0q9 -5 15 -11q11 -20 9 -47.5t-16.5 -50.5t-36.5 -30q-31 -7 -51.5 8.5t-16.5 53.5v6q0 11 2 20q5 40 32.5 53t62.5 -2zM323 939v0q29 -3 46.5 -15t17.5 -29q-7 -80 -75 -80q-53 7 -50 66q6 55 61 58z" />
    <glyph glyph-name="Lslash" unicode="&#x141;" horiz-adv-x="1943" 
d="M792 -980v0q2 2 10 12t14.5 21t4 19t-17.5 5q-145 -15 -275 -81q-22 -11 -26.5 -22t4.5 -22q35 -42 91 -34t110 38.5t85 63.5zM1445 364q-22 -143 -48 -286q-37 -206 -90 -411q-51 -185 -126 -363q-26 -57 40 -53q59 2 117 7q83 6 165 9q151 2 305 0h128q614 -3 1223 -69
q44 -6 86 -19q18 -5 29 -17t8 -30q0 -15 -13 -24t-33 -11q-24 -2 -50 2q-172 27 -344.5 37t-344.5 14h-24q-121 4 -242 7l-269 8q-187 5 -375 -1.5t-377 -20.5q-13 0 -29 -2q-11 -2 -22 -2q-74 -2 -114 -68q-26 -42 -62 -77l-11 -11q-99 -108 -222 -145.5t-264 -17.5
q-50 7 -97 33q-77 44 -81 99t66 110q86 57 187 79q123 33 249 57q11 0 19 3q60 8 87.5 17t43 31t34.5 70q7 16 16 38q64 141 103.5 288t70.5 297q24 117 46 235q-71 -61 -145 -129q-203 -183 -257 -170t6 79q176 190 352 357q39 39 79 77q90 563 114 1133q9 204 -1 407.5
t-47 406.5q-13 83 -48 158q-33 68 -78.5 88t-119.5 -4q-148 -46 -273 -137q-240 -171 -397.5 -400t-225.5 -519q-31 -126 -13 -253q15 -101 62.5 -178t146.5 -119q15 -7 26 -18q5 -2 7 -4q9 -7 6.5 -20t-13.5 -22q-33 -24 -72 -20q-93 9 -161 71q-101 90 -139.5 203
t-29.5 245q13 172 77 335q105 275 284.5 488.5t436.5 360.5q84 48 174 78t187 30q117 0 191.5 -49.5t114.5 -155.5q35 -103 53 -211q33 -220 39 -444q5 -339 -22 -676q-22 -288 -63 -574l158 145q59 53 97.5 69.5t63.5 12.5l8 -5q7 -4 16 -9q35 -33 -11 -97.5t-130 -139.5
t-158 -137z" />
    <glyph glyph-name="lslash" unicode="&#x142;" horiz-adv-x="835" 
d="M154 1011v0q28 73 57 234.5t52 359.5t35 377.5t8.5 287t-27.5 90.5q-35 -152 -46 -282q-7 -68 -20 -202q-26 -233 -48 -496t-11 -369zM176 444q2 -11 4 -20q7 -77 21 -133t61 -138q44 -77 111 -81.5t137.5 37.5t129.5 100.5t92 106.5q9 13 33.5 48.5t48.5 69.5t35 47
q44 42 73.5 16.5t-0.5 -95.5q-69 -134 -176.5 -251t-244.5 -172q-59 -19 -119.5 -19t-119.5 15q-58 13 -96.5 49.5t-66.5 84.5q-35 66 -60 156l-26 -35q-119 -156 -159.5 -154t-5.5 57q81 132 165 253q-13 82 -20 181q-24 297 -5.5 650t58.5 676.5t81 534.5q20 88 60 167
q44 82 136 75q86 0 119 -81q35 -104 40 -212q17 -255 -14 -508q-30 -244 -76.5 -456.5t-96.5 -416.5q-42 -163 -82 -335q20 25 38 49l61 83q35 47 60.5 63.5t43.5 16.5q2 0 4 -3l13 -4q29 -18 6 -70.5t-72.5 -116.5t-93.5 -117q-47 -57 -97 -118z" />
    <glyph glyph-name="Nacute" unicode="&#x143;" horiz-adv-x="2612" 
d="M788 461q48 128 108.5 327t118.5 388q70 238 103 335q44 129 100 254.5t135 240.5q40 57 97 123t125.5 115.5t143.5 53.5q88 7 144 -24t91 -110q86 -189 100 -432t-10 -504t-59 -498q-35 -245 -48.5 -425t29.5 -254t175 3t387 348q18 20 33 37q40 44 69.5 66t62.5 13
q20 -6 16.5 -21.5t-14.5 -33.5q-4 -8 -8 -15q-25 -51 -60 -95q-116 -143 -237 -281q-84 -88 -190 -152q-94 -59 -204 -66q-161 -9 -214 145q-24 71 -19.5 206t22 297t37.5 311q22 165 31 266q15 190 20.5 384.5t-4.5 361.5t-43 268.5t-93.5 103.5t-156 -133t-231.5 -441
q-154 -405 -275 -823q-165 -579 -326 -1157q-68 -238 -134 -475q-7 -22 -13 -47q-11 -44 -25 -88q-13 -39 -40.5 -56.5t-66.5 -20.5q-86 -2 -91 84q3 101 14 202q19 137 48 330q44 286 94.5 647t89 746t47.5 740.5t-27.5 628t-137.5 411.5q-77 103 -202 70
q-172 -44 -311 -147q-336 -251 -503.5 -520.5t-196 -516t50.5 -431.5q86 -184 252 -266.5t351 -60.5q49 24 97 -5q13 -11 15.5 -27.5t-6.5 -29.5q-42 -46 -101 -46q-319 -7 -504 97.5t-256.5 284t-48.5 399.5t125.5 447.5t262 426.5t359.5 338q88 62 183.5 103.5t201.5 59.5
q57 9 114 9q203 0 308 -172q95 -152 131.5 -400.5t34 -530t-23.5 -537t-40 -417.5q-11 -99 -22 -196q-14 -97 -25 -196q0 -9 -2 -18q-4 -35 -6.5 -62.5t1 -35t14.5 13.5t33 82v0v0zM1406 2883q11 18 30 22.5t38 2.5h7q9 -3 18 -3q46 -11 51.5 -30.5t-11 -41.5t-36.5 -40
q-46 -50 -90 -116q-40 -55 -69.5 -87t-45.5 -8q-17 13 -18 30.5t5 37.5q13 57 40.5 106.5t60.5 98.5q9 15 20 28v0z" />
    <glyph glyph-name="nacute" unicode="&#x144;" horiz-adv-x="1234" 
d="M1320 514v0h2q11 -2 22 -7.5t14 -21.5q6 -28 -16 -44q-90 -63 -193 -99q-93 -30 -187.5 -38t-191.5 1q-125 13 -202 119q-24 33 -49 66q-24 33 -50 68q-22 29 -55 7q-40 -29 -72 -65.5t-60 -75.5q-2 -5 -5 -9q-11 -13 -22 -29q-13 -24 -30 -44q-29 -33 -75 -42.5t-88 7.5
q-31 16 -40 46q-28 113 -35 227q0 62 57 73q66 15 95 -42q4 -9 6 -22q3 -13 8.5 -25.5t20.5 -20.5q18 15 33 28q35 31 68 60q40 33 84 47t94 14q117 0 185 -92q13 -20 27 -38q30 -46 63 -88q53 -68 141 -70q90 -4 172.5 16.5t159.5 62.5q3 2 7 5q26 15 53.5 24t58.5 2z
M363 1088q11 18 30 22.5t38 1.5h7q9 -2 18 -2q46 -11 51.5 -30.5t-11 -41.5t-36.5 -40q-46 -51 -90 -117q-40 -55 -69.5 -86.5t-45.5 -7.5q-17 13 -18 30.5t5 37.5q13 57 40.5 106.5t60.5 98.5q9 15 20 28v0z" />
    <glyph glyph-name="Ohungarumlaut" unicode="&#x150;" 
d="M1250 2685q-119 80 -250 109.5t-272 -5.5q-176 -46 -324.5 -170.5t-235.5 -304t-78 -392.5q13 -255 150 -469q59 -90 127 -173q27 -38 44.5 -40t59.5 20q26 15 53.5 20.5t56.5 -3.5q22 -8 29.5 -24.5t-5.5 -32.5q-11 -13 -22 -24l-22 -22q-20 -24 -16.5 -39.5t29.5 -30.5
q121 -75 255 -117q5 -2 9 -2q27 -9 51 -20q6 -4 10.5 -13t4.5 -18t-5.5 -16.5t-11.5 -14.5q-27 -15 -55.5 -15t-57.5 9q-116 28 -224 83q-77 42 -104.5 35.5t-73.5 -81.5q-288 -442 -324 -968q-19 -244 66 -477q42 -121 135 -214q151 -145 354 -83q99 31 185 81
q209 130 363 319q198 247 316 537q82 194 148 462t95.5 570.5t1 596.5t-138.5 536t-323 391v0v0zM1573 -51q-88 -181 -205.5 -338t-271.5 -287q-137 -117 -302 -189q-167 -73 -347 -64q-291 15 -443 262q-94 162 -118 347q-25 161 -12.5 319.5t53.5 312.5q97 376 322 690
q15 22 33 44q13 20 28 38q20 31 -4 57q-16 18 -31 33q-24 24 -48 51q-117 132 -194 282.5t-101 328.5q-51 374 174 673q110 146 253 242.5t321 134.5q246 48 460.5 -12.5t392.5 -240.5q181 -192 269 -456t101 -567.5t-28.5 -609.5t-122 -577.5t-179.5 -473.5v0v0zM829 3328
q9 17 26.5 25t37.5 10h9q9 0 18 -2q46 -2 53.5 -21t-4.5 -43t-30 -46q-37 -55 -72 -128q-29 -59 -54 -94.5t-45 -15.5q-18 9 -22.5 26.5t-1.5 37.5q6 59 26 113t44 105q9 17 15 33v0zM1014 3304q11 17 30 21.5t38 2.5h7q9 -2 18 -2q46 -11 51.5 -31t-11 -42t-36.5 -40
q-46 -50 -90 -116q-40 -55 -69.5 -87t-45.5 -8q-17 13 -18 31t5 37q13 58 40.5 107.5t60.5 97.5q9 15 20 29v0z" />
    <glyph glyph-name="ohungarumlaut" unicode="&#x151;" horiz-adv-x="1054" 
d="M1107 523v0q37 6 46 -2.5t4 -28.5q-2 -35 -28.5 -61.5t-68.5 -46.5q-99 -46 -193.5 -53.5t-197.5 16.5q-46 13 -78 1t-65 -74q-82 -158 -260 -178q-134 -13 -198 50.5t-81 162.5q-20 102 8.5 191t94.5 166q51 55 126 46q35 0 55 -26q11 -18 4 -31t-20 -24v0
q-108 -113 -101 -267q2 -72 42 -132q35 -50 88 -15q50 40 88.5 110t44 144t-40.5 131q-24 22 -46 31q-11 6 -20 11.5t-9 14.5q-2 51 37.5 74t97 23t107 -23t64.5 -67q16 -57 9 -115q-2 -48 40 -74q94 -66 206 -47q47 9 85.5 24.5t73.5 33.5q46 24 86 35zM251 1119
q9 18 26.5 25.5t37.5 9.5h8q9 0 18 -2q46 -2 54 -21t-4.5 -43t-29.5 -46q-38 -55 -73 -128q-28 -59 -53.5 -94t-45.5 -16q-17 9 -21.5 26.5t-2.5 37.5q7 60 26.5 113.5t43.5 104.5q9 18 16 33v0zM436 1095q11 17 29.5 21.5t38.5 2.5h6q9 -2 18 -2q46 -11 51.5 -31t-11 -42
t-36.5 -39q-46 -51 -90 -117q-39 -55 -69 -87t-45 -8q-18 14 -19 31.5t6 37.5q13 57 40.5 106.5t60.5 97.5q9 16 20 29v0z" />
    <glyph glyph-name="OE" unicode="&#x152;" 
d="M1250 2685v0v0q213 -149 323 -391t138.5 -536t-1 -596.5t-95.5 -570.5t-148 -462q-118 -290 -316 -537q-154 -189 -363 -319q-86 -50 -185 -81q-203 -62 -354 83q-93 93 -135 214q-85 233 -66 477q36 526 324 968q46 75 73.5 81.5t104.5 -35.5q108 -55 224 -83
q29 -9 57.5 -9t55.5 15q6 7 11.5 14.5t5.5 16.5t-4.5 18t-10.5 13q-24 11 -51 20q-4 0 -9 2q-134 42 -255 117q-26 15 -29.5 30.5t16.5 39.5l22 22t22 24q13 16 5.5 32.5t-29.5 24.5q-29 9 -56.5 3.5t-53.5 -20.5q-42 -22 -59.5 -20t-44.5 40q-68 83 -127 173
q-137 214 -150 469q-9 213 78 392.5t235.5 304t324.5 170.5q141 35 272 5.5t250 -109.5zM1573 -51v0v0q99 202 179.5 473.5t122 577.5t28.5 609.5t-101 567.5t-269 456q-178 180 -392.5 240.5t-460.5 12.5q-178 -38 -321 -134.5t-253 -242.5q-225 -299 -174 -673
q24 -178 101 -328.5t194 -282.5q24 -27 48 -51q15 -15 31 -33q24 -26 4 -57q-15 -18 -28 -38q-18 -22 -33 -44q-225 -314 -322 -690q-41 -154 -53.5 -312.5t12.5 -319.5q24 -185 118 -347q152 -247 443 -262q180 -9 347 64q165 72 302 189q154 130 271.5 287t205.5 338z" />
    <glyph glyph-name="oe" unicode="&#x153;" horiz-adv-x="693" 
d="M526 274q-82 -158 -260 -178q-134 -13 -198 50.5t-81 162.5q-20 102 8.5 191t94.5 166q51 55 126 46q35 0 55 -26q11 -18 4 -31t-20 -24v0q-108 -113 -101 -267q2 -72 42 -132q35 -50 88 -15q50 40 88.5 110t44 144t-40.5 131q-24 22 -46 31q-11 6 -20 11.5t-9 14.5
q-2 51 37.5 74t97 23t107 -23t64.5 -67q16 -57 -5 -170.5t-76 -221.5z" />
    <glyph glyph-name="Sacute" unicode="&#x15a;" horiz-adv-x="1291" 
d="M930 -615q51 -2 101.5 3.5t96.5 25.5q139 66 95 209q-24 73 -75 134q-59 75 -129.5 139t-145.5 123q-42 31 -79 -2q-115 -86 -207 -192q-40 -48 -68 -105q-60 -141 59 -238q57 -44 126 -64q110 -33 226 -33v0v0zM976 144q5 -19 17 -31.5t25 -20.5l18 -14q35 -30 70 -63
q66 -58 128 -115q90 -83 145 -193t28.5 -213.5t-162.5 -165.5q-57 -26 -121 -35q-123 -15 -247.5 -12t-245.5 36q-59 16 -114 42t-99 68q-157 143 -66 335q37 74 94 136q93 97 198 180q53 42 52 61t-61 54q-107 72 -217 143q-58 37 -115 75q-35 24 -70 46q-88 55 -174 116
q-97 69 -181.5 150t-148.5 183q-132 213 -98 435t193.5 428t401.5 371t525 267t563.5 117.5t515.5 -79t387 -325.5q27 -42 45.5 -89t18.5 -100t-48 -66q-33 -9 -60.5 1t-41.5 32q-2 6 -4 15q-2 5 -2 9q-101 279 -299 398t-448 111.5t-510.5 -109t-489.5 -258.5t-384 -337.5
t-192 -350.5q-38 -211 72 -391q88 -152 225 -260q105 -83 215 -158q99 -64 196 -126q134 -85 264 -173q37 -27 69 -24.5t67 26.5q174 105 343.5 193t188 48.5t-53.5 -92.5q-170 -90 -326 -202q-9 -4 -17 -11q-42 -22 -69 -62v0v0zM1359 2883q11 18 30 22.5t38 2.5h7
q9 -3 18 -3q46 -11 51.5 -30.5t-11 -41.5t-36.5 -40q-46 -50 -90 -116q-40 -55 -69.5 -87t-45.5 -8q-17 13 -18 30.5t5 37.5q13 57 40.5 106.5t60.5 98.5q9 15 20 28v0z" />
    <glyph glyph-name="sacute" unicode="&#x15b;" horiz-adv-x="789" 
d="M882 501v0q38 -7 42 -41t-35 -69q-38 -33 -73 -62q-88 -72 -189 -154q-79 -64 -145 -141q-49 -52 -73 -118q-26 -86 -88 -154q-35 -40 -80 -49t-94 5q-24 6 -36 25t-5 43q8 37 28 70q29 42 62 82q2 4 6 8q115 143 14 293q-25 33 -55 64q-9 11 -20 22q-18 22 -38 42
q-37 39 -72 83q-99 139 13 266q97 115 242 159q90 26 174 -16q81 -44 75 -136q-9 -62 -62 -73q-68 -13 -97 42q-9 22 -13 38q-4 17 -11 26t-22 5.5t-48 -23.5q-51 -30 -88 -79q-60 -72 -7 -154q18 -26 40 -48q24 -27 46 -53q44 -44 83.5 -90t68.5 -99q22 4 77 41.5t119.5 87
t117.5 89.5q44 35 62 48q15 11 37 16.5t44 3.5zM411 1297q11 18 30 22.5t39 1.5h6q9 -2 18 -2q46 -11 51.5 -30.5t-11 -41.5t-36.5 -40q-46 -51 -90 -117q-40 -55 -69.5 -86.5t-44.5 -7.5q-18 13 -19 30.5t5 37.5q14 57 41.5 106.5t60.5 98.5q8 15 19 28v0z" />
    <glyph glyph-name="Scaron" unicode="&#x160;" horiz-adv-x="1291" 
d="M930 -615q51 -2 101.5 3.5t96.5 25.5q139 66 95 209q-24 73 -75 134q-59 75 -129.5 139t-145.5 123q-42 31 -79 -2q-115 -86 -207 -192q-40 -48 -68 -105q-60 -141 59 -238q57 -44 126 -64q110 -33 226 -33v0v0zM976 144q5 -19 17 -31.5t25 -20.5l18 -14q35 -30 70 -63
q66 -58 128 -115q90 -83 145 -193t28.5 -213.5t-162.5 -165.5q-57 -26 -121 -35q-123 -15 -247.5 -12t-245.5 36q-59 16 -114 42t-99 68q-157 143 -66 335q37 74 94 136q93 97 198 180q53 42 52 61t-61 54q-107 72 -217 143q-58 37 -115 75q-35 24 -70 46q-88 55 -174 116
q-97 69 -181.5 150t-148.5 183q-132 213 -98 435t193.5 428t401.5 371t525 267t563.5 117.5t515.5 -79t387 -325.5q27 -42 45.5 -89t18.5 -100t-48 -66q-33 -9 -60.5 1t-41.5 32q-2 6 -4 15q-2 5 -2 9q-101 279 -299 398t-448 111.5t-510.5 -109t-489.5 -258.5t-384 -337.5
t-192 -350.5q-38 -211 72 -391q88 -152 225 -260q105 -83 215 -158q99 -64 196 -126q134 -85 264 -173q37 -27 69 -24.5t67 26.5q174 105 343.5 193t188 48.5t-53.5 -92.5q-170 -90 -326 -202q-9 -4 -17 -11q-42 -22 -69 -62v0v0zM1130 2615v0q-33 62 -61 128q-9 17 -18 37
q-2 9 -4 15v7q0 26 22 31q37 9 66 -20q11 -13 16.5 -32t11.5 -38q5 -27 16 -49q9 -17 23 -20.5t25 9.5q7 11 20 30t24 36q11 16 16 24q33 44 53.5 45.5t26 -22t-11.5 -51.5q-11 -18 -24 -38q-33 -50 -69 -101q-30 -35 -70 -33t-62 42z" />
    <glyph glyph-name="scaron" unicode="&#x161;" horiz-adv-x="789" 
d="M882 501v0q38 -7 42 -41t-35 -69q-38 -33 -73 -62q-88 -72 -189 -154q-79 -64 -145 -141q-49 -52 -73 -118q-26 -86 -88 -154q-35 -40 -80 -49t-94 5q-24 6 -36 25t-5 43q8 37 28 70q29 42 62 82q2 4 6 8q115 143 14 293q-25 33 -55 64q-9 11 -20 22q-18 22 -38 42
q-37 39 -72 83q-99 139 13 266q97 115 242 159q90 26 174 -16q81 -44 75 -136q-9 -62 -62 -73q-68 -13 -97 42q-9 22 -13 38q-4 17 -11 26t-22 5.5t-48 -23.5q-51 -30 -88 -79q-60 -72 -7 -154q18 -26 40 -48q24 -27 46 -53q44 -44 83.5 -90t68.5 -99q22 4 77 41.5t119.5 87
t117.5 89.5q44 35 62 48q15 11 37 16.5t44 3.5zM293 985v0q-33 61 -62 127q-9 18 -18 38q-2 9 -4 15v7q0 26 22 31q37 8 66 -20q11 -13 16.5 -32t12.5 -39q4 -26 15 -48q9 -18 23 -21t25 10q7 11 20 29.5t24 36.5q11 15 16 24q33 44 54 45t26.5 -22t-12.5 -51
q-11 -18 -24 -38q-33 -50 -68 -101q-31 -35 -70.5 -33t-61.5 42z" />
    <glyph glyph-name="Uhungarumlaut" unicode="&#x170;" horiz-adv-x="3115" 
d="M3067 3238v0q44 -11 46 -55q2 -40 0 -77q-11 -170 -22 -339q-18 -255 -35 -511q-20 -325 -38 -649q-22 -407 -39 -814q-9 -215 -11 -431q-5 -222 -11 -442q-13 -352 -9 -706q4 -95 -77 -84q-53 7 -62 57q-4 25 -4 51q-2 161 -4 321q-11 383 -11 764q4 312 19 624
q5 121 11 242q5 132 11 264q5 84 7 168v4q9 66 -11 130q-18 -60 -33 -117q-95 -339 -211 -671q-106 -295 -232.5 -578.5t-284.5 -552.5q-108 -182 -234.5 -348t-278.5 -314q-138 -138 -303 -240q-165 -101 -359 -110q-183 -8 -324.5 67.5t-247.5 225.5q-125 183 -189 396
q-71 222 -99.5 450t-28.5 459q-2 622 156 1218q42 152 95 300.5t125 289.5q49 95 119 176q73 81 183 62q9 -3 17.5 -7t10.5 -15q3 -11 1.5 -20t-7.5 -13q-79 -60 -127.5 -140t-83.5 -166q-99 -225 -163 -459t-104 -474q-92 -561 -37 -1131q26 -321 145 -622
q66 -179 187 -324q60 -72 137 -121q151 -92 319 -42q121 42 222 117q141 101 260.5 225.5t223.5 262.5q156 209 282.5 436t234.5 466q211 480 359.5 981.5t247.5 1018.5q44 229 84 456q17 103 35 206l4 22q2 14 5 27q19 119 134 86zM2825 2069v0h-2v-1t1 -2t3 -1l-2 2v2z
M2829 2069v0v5v-2v-3v0v0zM1595 2822q35 57 85.5 40.5t58.5 -35t-6.5 -43t-31.5 -44.5q-42 -55 -82 -123q-90 -143 -123 -133t-33 65q40 88 64 139.5t50 102.5q9 15 18 31v0zM1764 2782q42 55 90.5 33t54 -41.5t-11 -41.5t-36.5 -40q-46 -51 -90 -117
q-106 -134 -136.5 -120.5t-26.5 68.5q49 83 76.5 132.5t60.5 98.5q8 15 19 28v0z" />
    <glyph glyph-name="uhungarumlaut" unicode="&#x171;" horiz-adv-x="975" 
d="M1034 503v0q22 -2 -7.5 -60.5t-97 -134.5t-151 -131t-166.5 -50q-62 6 -91.5 37t-40.5 68.5t-14 65.5q-2 20 -5 30t-12 1q-64 -147 -222 -147q-88 0 -143 78t-69.5 195.5t22.5 238.5q9 40 49 55q28 11 58 -2t32 -39q0 -27 -4 -53q-5 -20 -7 -38q-4 -72 2.5 -158
t45.5 -147q38 -49 84 -12.5t81 113.5q27 61 42.5 121.5t19.5 93.5q4 14 4 18q7 26 14 51q11 37 22 72q19 68 96 57q47 -4 51 -46q4 -57 2 -114q-2 -60 -6 -117q-5 -83 -7 -165q-2 -119 47.5 -138.5t121 25.5t137.5 122q6 7 15 18q13 17 32 38t36.5 36.5t28.5 17.5zM365 1249
q35 57 86 40.5t58.5 -35t-7 -43t-31.5 -44.5q-42 -55 -82 -123q-90 -143 -123 -133t-33 65q40 88 64 139.5t51 102.5q8 15 17 31v0zM535 1209q41 55 89.5 33t54 -41.5t-11 -41.5t-36.5 -40q-46 -51 -90 -117q-105 -134 -136 -120.5t-27 68.5q49 83 76.5 132.5t60.5 98.5
q9 15 20 28v0z" />
    <glyph glyph-name="Ydieresis" unicode="&#x178;" horiz-adv-x="3470" 
d="M2647 -302q-15 -5 -26 -7q-7 -2 -11.5 -3t-6.5 -3q-20 -20 -124.5 -119t-248.5 -248.5t-283.5 -313.5t-230 -311.5t-87 -245.5t146.5 -111q50 -4 101 7q73 19 143 55q222 114 340 294.5t173 397t88 443.5q13 83 26 165v0v0zM2748 697q-11 -25 -24 -49q-29 -59 -57 -121
q-172 -361 -442 -651q-84 -90 -179 -165q-176 -139 -404 -130q-152 9 -243.5 87t-134.5 198t-51 254q-11 161 -2.5 348t24.5 385q24 290 28.5 558.5t-46.5 466.5q-42 150 -131 205t-243 24q-119 -24 -231 -73q-132 -59 -296 -169t-313.5 -254t-243 -308t-89 -333.5
t151.5 -325.5q134 -143 300.5 -222.5t366.5 -79.5h13q26 3 49.5 -1.5t38.5 -33.5q9 -20 -18.5 -37.5t-76.5 -21.5q-134 -13 -266 20q-284 74 -501 270q-172 163 -210.5 335.5t25.5 343t198 328t305.5 288.5t348.5 224.5t327 135.5q163 44 330 24q249 -24 334 -258
q47 -134 59 -318.5t1 -396t-27 -422.5q-13 -163 -20.5 -310.5t-5.5 -265.5q2 -77 17.5 -181.5t54 -199.5t110 -143t185.5 -13q64 22 119 60.5t104 84.5q244 238 411 535q99 178 179.5 366t150.5 379q13 38 29 75q22 64 46 130q31 81 116 79q86 -2 93 -86q4 -171 -16 -343
q-28 -277 -57 -554q-13 -130 -28 -258q0 -11 2 -19.5t13 -10.5q7 -3 16.5 0.5t16.5 7.5q158 110 317 218q57 40 174.5 101.5t161.5 24.5q9 -27 -11 -47q-70 -68 -151 -121q-16 -11 -29 -22q-73 -48 -143 -99q-134 -92 -266 -187q-66 -46 -96 -74.5t-42 -67t-21 -113.5
q-2 -6 -2 -11q-4 -24 -9 -50q-30 -231 -81 -467.5t-146.5 -444.5t-264 -354.5t-440.5 -199.5q-141 -26 -278 16q-156 53 -166 175t82.5 287t244.5 344t318 346.5t303.5 291.5t203.5 182q37 33 60.5 70t27.5 90q20 196 44 394q11 95 22 189q2 22 0 44v20q-9 4 -20 7v0v0z
M2095 1649v0q37 0 60 -16.5t23 -42.5q-8 -106 -101 -106q-70 9 -66 90q9 75 84 75zM2326 1667v0q37 0 60 -16.5t23 -43.5q-8 -105 -101 -105q-70 9 -66 90q9 75 84 75z" />
    <glyph glyph-name="Zacute" unicode="&#x179;" horiz-adv-x="2327" 
d="M-44 -606q-31 -66 33 -108q59 -33 158 -12t204.5 74t189.5 112.5t114 105.5q-70 59 -214 51.5t-285 -68t-200 -155.5v0v0zM2741 2525h2q35 6 68 10.5t69 -4.5q37 -8 50 -34.5t-4 -61.5q-60 -113 -128 -220q-266 -436 -537 -869q-74 -119 -149 -240q-154 -253 -318 -505
t-349 -485t-400 -434q-16 -11 -27 -26q-8 -15 -4 -25t18 -17q99 -31 195 -66q135 -48 270 -90t278 -68q396 -66 700 193q28 29 61 44.5t75 8.5q13 -2 24 -6.5t18 -17.5t2.5 -24t-13.5 -22q-132 -134 -290.5 -211t-351.5 -84q-311 -7 -603 90q-225 73 -449 152
q-70 29 -128 -22q-118 -101 -264.5 -188t-307 -127.5t-319.5 -1.5q-134 38 -162.5 113.5t30 163.5t190.5 158.5t319 97t413 -17.5q88 -18 150 44q266 244 523.5 588.5t498.5 728.5t454 744q156 264 295 489q6 11 15 22q16 15 24.5 32.5t-0.5 33.5q-13 22 -35 21t-46 -8
q-11 -2 -24 -4q-222 -33 -456.5 -40t-469.5 -2q-289 4 -568 -7t-539 -72q-284 -73 -419 -208.5t-147.5 -296t73.5 -312t246.5 -257.5t371.5 -128q71 -6 141 -2q31 2 64 2h35q40 3 79 0q29 0 36 -28q2 -16 -3.5 -27t-18.5 -15q-5 0 -7 -2q-46 -18 -92 -24q-102 -7 -203 -6
t-202 23q-262 64 -429 207t-229 324.5t-3.5 363t251 320t533.5 195.5q246 38 490.5 45.5t488.5 7.5q284 -4 569 9t575 75v0v0zM1500 2883q11 18 30 22.5t38 2.5h7q9 -3 18 -3q46 -11 51.5 -30.5t-11 -41.5t-36.5 -40q-46 -50 -90 -116q-40 -55 -69.5 -87t-45.5 -8
q-17 13 -18 30.5t5 37.5q13 57 40.5 106.5t60.5 98.5q9 15 20 28v0z" />
    <glyph glyph-name="zacute" unicode="&#x17a;" horiz-adv-x="926" 
d="M1054 477v0q4 -7 4 -14q-2 -19 -17 -30q-18 -16 -36 -29q-17 -13 -35 -26q-68 -60 -136 -119q-110 -95 -220 -189q-29 -25 -36.5 -50t9.5 -60q36 -71 43.5 -147t0.5 -153q-22 -195 -150.5 -330.5t-324.5 -164.5q-77 -11 -149 16q-126 44 -108 178q15 95 66 178
q68 123 158 231q13 13 24 29q82 92 161 185q33 46 -22 63q-70 18 -139 -4q-48 -18 -101 -11q-20 2 -35 12t-20 32q-4 18 6 30t23 21q90 63 165 141.5t141 163.5q13 18 38 62t44 95.5t11 88t-60 38.5q-73 -4 -132.5 -52.5t-79.5 -121.5q-24 -103 -114 -68q-62 24 -53 90
q11 64 55 113q90 94 199 125t232 4q71 -13 100.5 -58t25.5 -120q-5 -90 -55 -167q-64 -101 -148 -191q-74 -86 -54.5 -116t83.5 -15.5t123 60.5q11 9 20 18q163 134 334 255q29 18 57.5 30t61.5 5q29 -4 40 -28zM99 -711v0q42 -29 109 8.5t128.5 123t90 201t-6.5 245.5
q-20 -20 -86 -97t-137.5 -176t-106.5 -184.5t9 -120.5zM365 1174q11 18 30 22t38 2h7q9 -2 18 -2q46 -11 51.5 -31t-11 -42t-36.5 -39q-46 -51 -90 -117q-40 -55 -69.5 -87t-45.5 -7q-17 13 -18 30.5t5 37.5q13 57 40.5 106.5t60.5 97.5q9 16 20 29v0z" />
    <glyph glyph-name="Zdotaccent" unicode="&#x17b;" horiz-adv-x="2327" 
d="M-44 -606q-31 -66 33 -108q59 -33 158 -12t204.5 74t189.5 112.5t114 105.5q-70 59 -214 51.5t-285 -68t-200 -155.5v0v0zM2741 2525h2q35 6 68 10.5t69 -4.5q37 -8 50 -34.5t-4 -61.5q-60 -113 -128 -220q-266 -436 -537 -869q-74 -119 -149 -240q-154 -253 -318 -505
t-349 -485t-400 -434q-16 -11 -27 -26q-8 -15 -4 -25t18 -17q99 -31 195 -66q135 -48 270 -90t278 -68q396 -66 700 193q28 29 61 44.5t75 8.5q13 -2 24 -6.5t18 -17.5t2.5 -24t-13.5 -22q-132 -134 -290.5 -211t-351.5 -84q-311 -7 -603 90q-225 73 -449 152
q-70 29 -128 -22q-118 -101 -264.5 -188t-307 -127.5t-319.5 -1.5q-134 38 -162.5 113.5t30 163.5t190.5 158.5t319 97t413 -17.5q88 -18 150 44q266 244 523.5 588.5t498.5 728.5t454 744q156 264 295 489q6 11 15 22q16 15 24.5 32.5t-0.5 33.5q-13 22 -35 21t-46 -8
q-11 -2 -24 -4q-222 -33 -456.5 -40t-469.5 -2q-289 4 -568 -7t-539 -72q-284 -73 -419 -208.5t-147.5 -296t73.5 -312t246.5 -257.5t371.5 -128q71 -6 141 -2q31 2 64 2h35q40 3 79 0q29 0 36 -28q2 -16 -3.5 -27t-18.5 -15q-5 0 -7 -2q-46 -18 -92 -24q-102 -7 -203 -6
t-202 23q-262 64 -429 207t-229 324.5t-3.5 363t251 320t533.5 195.5q246 38 490.5 45.5t488.5 7.5q284 -4 569 9t575 75v0v0zM1522 2699v0q-6 -16 -26 -28t-40 -12q-20 2 -32 13t-23 27q-2 4 -4 11q-7 15 -11 35q-9 53 66 77q26 9 49 1t30 -25q13 -51 -9 -99z" />
    <glyph glyph-name="zdotaccent" unicode="&#x17c;" horiz-adv-x="926" 
d="M1054 477v0q4 -7 4 -14q-2 -19 -17 -30q-18 -16 -36 -29q-17 -13 -35 -26q-68 -60 -136 -119q-110 -95 -220 -189q-29 -25 -36.5 -50t9.5 -60q36 -71 43.5 -147t0.5 -153q-22 -195 -150.5 -330.5t-324.5 -164.5q-77 -11 -149 16q-126 44 -108 178q15 95 66 178
q68 123 158 231q13 13 24 29q82 92 161 185q33 46 -22 63q-70 18 -139 -4q-48 -18 -101 -11q-20 2 -35 12t-20 32q-4 18 6 30t23 21q90 63 165 141.5t141 163.5q13 18 38 62t44 95.5t11 88t-60 38.5q-73 -4 -132.5 -52.5t-79.5 -121.5q-24 -103 -114 -68q-62 24 -53 90
q11 64 55 113q90 94 199 125t232 4q71 -13 100.5 -58t25.5 -120q-5 -90 -55 -167q-64 -101 -148 -191q-74 -86 -54.5 -116t83.5 -15.5t123 60.5q11 9 20 18q163 134 334 255q29 18 57.5 30t61.5 5q29 -4 40 -28zM99 -711v0q42 -29 109 8.5t128.5 123t90 201t-6.5 245.5
q-20 -20 -86 -97t-137.5 -176t-106.5 -184.5t9 -120.5zM383 939v0q-7 -16 -26.5 -28t-39.5 -12q-20 2 -32 13t-23 27q-2 4 -5 11q-6 15 -11 35q-8 53 66 77q27 9 50 1t30 -25q13 -51 -9 -99z" />
    <glyph glyph-name="Zcaron" unicode="&#x17d;" horiz-adv-x="2327" 
d="M-44 -606q-31 -66 33 -108q59 -33 158 -12t204.5 74t189.5 112.5t114 105.5q-70 59 -214 51.5t-285 -68t-200 -155.5v0v0zM2741 2525h2q35 6 68 10.5t69 -4.5q37 -8 50 -34.5t-4 -61.5q-60 -113 -128 -220q-266 -436 -537 -869q-74 -119 -149 -240q-154 -253 -318 -505
t-349 -485t-400 -434q-16 -11 -27 -26q-8 -15 -4 -25t18 -17q99 -31 195 -66q135 -48 270 -90t278 -68q396 -66 700 193q28 29 61 44.5t75 8.5q13 -2 24 -6.5t18 -17.5t2.5 -24t-13.5 -22q-132 -134 -290.5 -211t-351.5 -84q-311 -7 -603 90q-225 73 -449 152
q-70 29 -128 -22q-118 -101 -264.5 -188t-307 -127.5t-319.5 -1.5q-134 38 -162.5 113.5t30 163.5t190.5 158.5t319 97t413 -17.5q88 -18 150 44q266 244 523.5 588.5t498.5 728.5t454 744q156 264 295 489q6 11 15 22q16 15 24.5 32.5t-0.5 33.5q-13 22 -35 21t-46 -8
q-11 -2 -24 -4q-222 -33 -456.5 -40t-469.5 -2q-289 4 -568 -7t-539 -72q-284 -73 -419 -208.5t-147.5 -296t73.5 -312t246.5 -257.5t371.5 -128q71 -6 141 -2q31 2 64 2h35q40 3 79 0q29 0 36 -28q2 -16 -3.5 -27t-18.5 -15q-5 0 -7 -2q-46 -18 -92 -24q-102 -7 -203 -6
t-202 23q-262 64 -429 207t-229 324.5t-3.5 363t251 320t533.5 195.5q246 38 490.5 45.5t488.5 7.5q284 -4 569 9t575 75v0v0zM1271 2615v0q-33 62 -61 128q-9 17 -18 37q-2 9 -4 15v7q0 26 22 31q37 9 66 -20q11 -13 16.5 -32t11.5 -38q5 -27 16 -49q9 -17 23 -20.5t25 9.5
q7 11 20 30t24 36q11 16 16 24q33 44 53.5 45.5t26 -22t-11.5 -51.5q-11 -18 -24 -38q-33 -50 -69 -101q-30 -35 -70 -33t-62 42z" />
    <glyph glyph-name="zcaron" unicode="&#x17e;" horiz-adv-x="926" 
d="M1054 477v0q4 -7 4 -14q-2 -19 -17 -30q-18 -16 -36 -29q-17 -13 -35 -26q-68 -60 -136 -119q-110 -95 -220 -189q-29 -25 -36.5 -50t9.5 -60q36 -71 43.5 -147t0.5 -153q-22 -195 -150.5 -330.5t-324.5 -164.5q-77 -11 -149 16q-126 44 -108 178q15 95 66 178
q68 123 158 231q13 13 24 29q82 92 161 185q33 46 -22 63q-70 18 -139 -4q-48 -18 -101 -11q-20 2 -35 12t-20 32q-4 18 6 30t23 21q90 63 165 141.5t141 163.5q13 18 38 62t44 95.5t11 88t-60 38.5q-73 -4 -132.5 -52.5t-79.5 -121.5q-24 -103 -114 -68q-62 24 -53 90
q11 64 55 113q90 94 199 125t232 4q71 -13 100.5 -58t25.5 -120q-5 -90 -55 -167q-64 -101 -148 -191q-74 -86 -54.5 -116t83.5 -15.5t123 60.5q11 9 20 18q163 134 334 255q29 18 57.5 30t61.5 5q29 -4 40 -28zM99 -711v0q42 -29 109 8.5t128.5 123t90 201t-6.5 245.5
q-20 -20 -86 -97t-137.5 -176t-106.5 -184.5t9 -120.5zM282 961v0q-33 61 -62 127q-9 18 -18 38q-2 8 -4 15v7q0 26 22 30q37 9 66 -19q11 -14 16.5 -32.5t12.5 -38.5q4 -26 15 -48q9 -18 23 -21t25 10q7 11 20 29.5t24 36.5q11 15 16 24q33 44 54 45t26.5 -22t-12.5 -52
q-11 -17 -24 -37q-33 -51 -68 -101q-31 -35 -70.5 -33t-61.5 42z" />
    <glyph glyph-name="circumflex" unicode="&#x2c6;" horiz-adv-x="658" 
d="M436 2707v0q44 -85 81 -171q13 -27 24 -53q5 -11 7 -20v-6q0 -38 -31 -42q-51 -13 -86 26q-15 18 -24 42t-13 51q-9 37 -22 66q-11 22 -31 27.5t-33 -12.5q-11 -15 -28.5 -40.5t-33.5 -47.5q-13 -20 -22 -33q-41 -59 -70 -60.5t-36.5 29.5t16.5 68q16 25 33 51
q44 68 93 136q39 49 92 45.5t84 -56.5z" />
    <glyph glyph-name="caron" unicode="&#x2c7;" horiz-adv-x="658" 
d="M229 2468v0q-44 85 -82 171q-13 27 -26 53q-2 11 -4 20q0 4 -3 6q3 38 31 42q51 13 88 -26q16 -18 23.5 -42t14.5 -51q8 -37 22 -66q11 -22 30.5 -27.5t32.5 12.5q11 15 27.5 40.5t34.5 47.5q13 20 20 33q44 59 72.5 60.5t35 -29.5t-15.5 -68q-17 -25 -33 -51
q-44 -70 -92 -136q-40 -49 -94 -45.5t-82 56.5z" />
    <glyph glyph-name="uni02C9" unicode="&#x2c9;" horiz-adv-x="893" 
d="M460 2490l-82 2q-125 4 -275 20q-2 0 -4 4q-7 0 -9 3.5t-4 14.5q-2 46 20 48q112 15 226 18l46 2h84h224q25 0 51 -5q20 -4 20 -50t-20 -51q-7 -2 -18 -2h-46q-101 -4 -213 -4z" />
    <glyph glyph-name="breve" unicode="&#x2d8;" horiz-adv-x="1331" 
d="M1191.5 2568q-25.5 -67 -135.5 -140q-143 -95 -381 -95q-235 0 -380 96t-163 202.5t-22 124.5q73 105 180 4q16 -94 78.5 -167t298.5 -92q235 8 334 123.5t143 168.5t77 -28q0 -20 -2 -75t-27.5 -122z" />
    <glyph glyph-name="dotaccent" unicode="&#x2d9;" horiz-adv-x="2253" 
d="M1195 2674v0q13 -6 24 -19q22 -33 16.5 -81.5t-31 -90.5t-62.5 -51q-55 -13 -91.5 14.5t-29.5 91.5q2 9 2 15q0 18 2 36q11 66 58.5 90t111.5 -5z" />
    <glyph glyph-name="ring" unicode="&#x2da;" horiz-adv-x="2253" 
d="M904 2465q0 -92 64 -156t156 -64q93 0 156.5 64t63.5 156q0 88 -65 153t-155 65t-155 -65t-65 -153zM737 2465q0 165 112 277.5t275 112.5q167 0 280.5 -113.5t113.5 -276.5q0 -165 -113.5 -278t-280.5 -113q-163 0 -275 113t-112 278z" />
    <glyph glyph-name="ogonek" unicode="&#x2db;" horiz-adv-x="2252" 
d="M1408 -300q-156 -136 -243 -262.5t-87 -247.5q0 -104 59.5 -165.5t160.5 -61.5q88 0 153 34t109 107l61 -35q-79 -139 -199 -214t-263 -75q-154 0 -250.5 78.5t-96.5 199.5q0 167 133 344t355 298h108z" />
    <glyph glyph-name="tilde" unicode="&#x2dc;" horiz-adv-x="977" 
d="M812 2241v0q44 -7 48 -44q7 -88 -81 -136q-68 -36 -145 -29q-130 -2 -214 79q-53 55 -78 54t-80 -58l-11 -11q-22 -22 -48.5 -24.5t-55.5 4.5q-19 7 -28 22t0 31q46 68 136 102t178 17q51 -16 84 -49q11 -11 22 -24q22 -22 44 -40q66 -52 114 16l14 26q4 11 11 22
q28 53 90 42z" />
    <glyph glyph-name="hungarumlaut" unicode="&#x2dd;" horiz-adv-x="671" 
d="M242 2822q35 57 85.5 40.5t58.5 -35t-6.5 -43t-31.5 -44.5q-42 -55 -82 -123q-90 -143 -123 -133t-33 65q40 88 64 139.5t50 102.5q9 15 18 31v0zM411 2782q42 55 90.5 33t54 -41.5t-11 -41.5t-36.5 -40q-46 -51 -90 -117q-106 -134 -136.5 -120.5t-26.5 68.5
q49 83 76.5 132.5t60.5 98.5q8 15 19 28v0z" />
    <glyph glyph-name="endash" unicode="&#x2013;" horiz-adv-x="1249" 
d="M675 400l-140 2q-218 2 -478 15q-4 0 -9 2q-8 0 -13.5 3.5t-8.5 12.5q-2 35 36 37q193 11 391 13l82 3h143h389q44 0 88 -5q35 -2 35 -39q0 -36 -35 -40q-13 -2 -29 -2h-81q-176 -2 -370 -2z" />
    <glyph glyph-name="emdash" unicode="&#x2014;" horiz-adv-x="1736" 
d="M675 400l-140 2q-218 2 -478 15q-4 0 -9 2q-8 0 -13.5 3.5t-8.5 12.5q-2 35 36 37q193 11 391 13l82 3l1045 -3q44 0 88 -4q35 -2 35 -40q0 -35 -35 -39q-14 -2 -29 -2h-81q-176 -3 -883 0z" />
    <glyph glyph-name="quoteleft" unicode="&#x2018;" horiz-adv-x="363" 
d="M202 1830v0q-48 -11 -63 41q-18 47 -18 91q0 41 15.5 73t37.5 59q11 17 27.5 17t31.5 -9q20 -11 -4 -37q-35 -81 1 -126.5t20.5 -74t-48.5 -34.5z" />
    <glyph glyph-name="quoteright" unicode="&#x2019;" horiz-adv-x="363" 
d="M174 2109v0q48 11 64 -40q17 -46 17 -92q0 -42 -15.5 -74t-37.5 -58q-13 -15 -28.5 -16.5t-30.5 7.5q-22 11 2 38q38 81 1.5 126t-22 73.5t49.5 35.5z" />
    <glyph glyph-name="quotesinglbase" unicode="&#x201a;" horiz-adv-x="398" 
d="M163 254v0q48 11 64 -39q17 -46 17 -93q0 -41 -15.5 -73t-37.5 -59q-13 -15 -28.5 -16t-30.5 8q-22 11 2 37q38 81 1.5 126.5t-22 74t49.5 34.5z" />
    <glyph glyph-name="quotedblleft" unicode="&#x201c;" horiz-adv-x="513" 
d="M350 1834v0q-49 -11 -64 42q-18 46 -18 90q0 42 15.5 74t37.5 58q11 18 27.5 18t32.5 -9q19 -11 -5 -38q-35 -81 1.5 -126t21 -73.5t-48.5 -35.5zM202 1830v0q-48 -11 -63 41q-18 47 -18 91q0 41 15.5 73t37.5 59q11 17 27.5 17t31.5 -9q20 -11 -4 -37q-35 -81 1 -126.5
t20.5 -74t-48.5 -34.5z" />
    <glyph glyph-name="quotedblright" unicode="&#x201d;" horiz-adv-x="513" 
d="M174 2109v0q48 11 64 -40q17 -46 17 -92q0 -42 -15.5 -74t-37.5 -58q-13 -15 -28.5 -16.5t-30.5 7.5q-22 11 2 38q38 81 1.5 126t-22 73.5t49.5 35.5zM321 2113v0q49 11 64 -39q18 -46 18 -93q0 -41 -15.5 -73t-37.5 -59q-13 -15 -28.5 -16t-31.5 8q-22 11 3 37
q37 81 0.5 126.5t-22 74t49.5 34.5z" />
    <glyph glyph-name="quotedblbase" unicode="&#x201e;" horiz-adv-x="495" 
d="M163 254v0q48 11 64 -39q17 -46 17 -93q0 -41 -15.5 -73t-37.5 -59q-13 -15 -28.5 -16t-30.5 8q-22 11 2 37q38 81 1.5 126.5t-22 74t49.5 34.5zM326 259v0q48 11 63 -40q18 -46 18 -92q0 -42 -15.5 -74t-37.5 -58q-13 -16 -28.5 -17t-30.5 8q-22 11 2 37q37 82 1 127
t-22 73.5t50 35.5z" />
    <glyph glyph-name="bullet" unicode="&#x2022;" horiz-adv-x="2253" 
d="M647 1240q0 198 139.5 335.5t335.5 137.5t334.5 -138.5t138.5 -334.5t-139.5 -335.5t-335.5 -139.5q-198 0 -335.5 139.5t-137.5 335.5z" />
    <glyph glyph-name="ellipsis" unicode="&#x2026;" horiz-adv-x="1201" 
d="M191 237v0q82 0 58 -79q-11 -31 -25 -58q-13 -24 -37 -31.5t-51 3.5q-22 9 -24 31q-2 35 2 72q7 66 77 62zM579 237v0q81 0 57 -79q-11 -31 -24 -58q-14 -24 -38 -31.5t-50 3.5q-22 9 -25 31q-2 35 3 72q6 66 77 62zM972 239v0q82 0 58 -79q-11 -31 -25 -57
q-13 -25 -37 -32.5t-51 3.5q-22 9 -24 31q-2 35 2 72q7 66 77 62z" />
    <glyph glyph-name="guilsinglleft" unicode="&#x2039;" horiz-adv-x="1388" 
d="M383 754l752 666h31v-81l-451 -585l451 -585v-82h-31z" />
    <glyph glyph-name="guilsinglright" unicode="&#x203a;" horiz-adv-x="1388" 
d="M253 87h-31v82l451 585l-451 585v81h31l752 -666z" />
    <glyph glyph-name="fraction" unicode="&#x2044;" horiz-adv-x="752" 
d="M-752 -364l2068 3214h184l-2063 -3214h-189z" />
    <glyph glyph-name="fraction" unicode="&#x2215;" horiz-adv-x="752" 
d="M-752 -364l2068 3214h184l-2063 -3214h-189z" />
    <glyph glyph-name="franc" unicode="&#x20a3;" horiz-adv-x="983" 
d="M858 1706v0q4 -4 7.5 -9.5t3.5 -12.5q4 -19 -15 -30q-27 -14 -53.5 -12.5t-52.5 5.5h-7q-17 4 -35 7q-64 11 -127 17q-64 0 -128 -9q-51 -8 -59 -59q-14 -108 6 -216q9 -28 38 -30h105h31q37 -3 70 0q60 2 110 -11q14 -3 23.5 -10.5t12.5 -22.5q2 -18 -9 -29t-29 -15
q-24 -9 -48 -9h-75h-15h-51h-90q-40 0 -51 -10t-11 -45q2 -110 7 -218q0 -29 12 -40t43 -15q24 -2 50 -4q31 -3 64 -7q44 -9 86 -24q7 -5 11 -13.5t4 -17.5t-6.5 -15.5t-15.5 -10.5q-37 -16 -77 -5q-13 2 -24 2h-4q-101 16 -123 -1.5t-16 -110.5v-24v-66q5 -139 -11 -277
q-9 -71 -75 -73q-110 -9 -96 97q13 81 15 163.5t0 164.5v15q-2 33 -4 68v9q0 44 -47 51h-6q-20 2 -40 6.5t-37 17.5q-9 9 -8 23t12 21q2 2 7 4q6 5 15 9q13 2 29 5q17 2 31.5 5t23.5 12q15 16 16 38t-3 44q-2 15 -4 28q-9 211 -20 420q-13 141 31 197t187 74q99 13 196.5 2
t194.5 -35q18 -4 31 -18z" />
    <glyph glyph-name="lira" unicode="&#x20a4;" horiz-adv-x="1610" 
d="M1353 1735v0q112 -62 139 -189q8 -55 -36 -75q-30 -11 -57.5 -3.5t-43.5 32.5q-4 13 -9 26q-4 11 -8 20q-3 2 -3 4q-13 29 -30 53q-75 95 -161 87t-141 -116q-37 -83 -54.5 -170t-22.5 -177q-4 -49 44 -49h139q46 -2 90 -2h15q51 5 99 -13q11 -4 21 -12t12 -23
q0 -20 -12 -29t-27 -11q-51 -9 -101 -9q-80 0 -157 -2h-85q-38 0 -44 -35v-9q-7 -39 -9 -81q0 -44 48 -46q57 -3 117 -3q44 3 86 0h15q44 5 84 -15q8 -4 13.5 -13t8.5 -16q-3 -8 -8.5 -17t-11.5 -13q-40 -18 -84 -16q-6 2 -15 0h-90h-115q-46 -2 -53 -46q-13 -128 -26 -255
q-2 -33 26 -53q60 -37 117 -75q70 -46 141 -90q72 -48 158 -37q24 4 49.5 4t49.5 -13q7 -5 10 -13.5t2 -17.5t-5 -13q-5 -2 -7 -5q-13 -8 -26 -13q-84 -26 -165.5 -21.5t-158.5 45.5q-61 33 -118 73q-33 20 -64 42q-24 13 -37.5 11t-26.5 -24q-7 -11 -13 -25q-2 -4 -5 -8
q-50 -95 -130.5 -135.5t-185.5 -38.5q-91 2 -176 31q-66 22 -117 72q-88 90 -20 196q73 108 196 132q59 15 119.5 20.5t120.5 -2.5q33 -7 64 -9q30 0 37 28q7 47 11 91q2 17 4 37h-2v0q0 7 2 11q0 13 3 26q4 47 -10.5 62t-60.5 18q-22 2 -44 0q-42 -5 -81 11q-9 4 -14.5 13
t-5.5 15q0 9 5.5 18t14.5 11q28 13 59 15q27 2 53 2q24 0 51 3q35 2 39 39q5 38 2 77q0 31 -11 43t-39 12h-44q-29 -2 -57 0q-31 5 -60 18q-9 4 -12 16t0 23t12 16q35 13 73 20q28 4 55 4q17 0 35 2q33 2 44 11t13 40q11 68 20 138q15 115 59 220q71 168 251 194
q143 24 273 -44zM629 292v0q5 6 11 15q18 27 31 55.5t2 56.5q-13 29 -41.5 36.5t-59.5 7.5q-15 0 -29 3q-63 -3 -115 -23.5t-89 -71.5q-44 -62 9 -114q68 -64 148 -54t133 89z" />
    <glyph glyph-name="peseta" unicode="&#x20a7;" horiz-adv-x="1446" 
d="M2004 2327v0q106 -27 84 -150q-29 -185 -198 -171q-49 2 -97 17q-103 44 -86 170q29 154 165 147q11 0 22 -2q7 -2 11 -2v0v2q16 -2 31 -2q35 -3 68 -9zM1925 2122v0q22 38 22 84q2 35 -26 46q-29 11 -51 -13q-11 -13 -15.5 -31t-6.5 -33v-11v-18q2 -15 8.5 -28t22.5 -18
q28 -6 46 22zM1430 2221v0q11 -6 20 -15q15 -27 10.5 -64t-23 -68t-47.5 -40q-41 -9 -68.5 12t-23.5 70q0 6 2 11q0 15 2 28q7 51 43.5 69.5t84.5 -3.5zM1111 2219v0q37 0 60.5 -16.5t23.5 -42.5q-9 -106 -102 -106q-70 9 -66 90q9 75 84 75zM849 2241v0q44 -7 49 -44
q6 -88 -82 -136q-68 -36 -145 -29q-130 -2 -213 79q-53 55 -78.5 54t-80.5 -58q-4 -5 -11 -11q-22 -22 -48.5 -24.5t-54.5 4.5q-20 7 -29 22t0 31q46 68 136.5 102t178.5 17q50 -16 83 -49q11 -11 22 -24q22 -22 44 -40q66 -52 115 16q6 13 13 26q4 11 11 22q29 53 90 42z
M-119 2300v0q44 -85 82 -171q13 -27 24 -53q4 -11 6 -20v-6q0 -38 -30 -42q-51 -13 -86 26q-16 18 -24.5 42t-13.5 51q-8 37 -22 66q-11 22 -30.5 27.5t-32.5 -12.5q-11 -15 -29 -40.5t-33 -47.5q-13 -20 -22 -33q-42 -59 -70.5 -60.5t-36 29.5t16.5 68q15 25 33 51
q44 68 92 136q40 49 92.5 45.5t83.5 -56.5zM-618 2325q11 17 29.5 21.5t38.5 2.5h7q8 -2 17 -2q46 -11 51.5 -31t-11 -42t-35.5 -40q-47 -50 -91 -116q-39 -55 -69 -87t-45 -8q-18 13 -19 31t6 37q13 58 40.5 107.5t60.5 97.5q9 15 20 29v0zM-1010 2333v0q9 -13 18 -28
q33 -49 60.5 -98.5t42.5 -106.5q5 -20 3.5 -37.5t-18.5 -30.5q-16 -24 -45.5 8t-66.5 87q-47 66 -93 116q-20 18 -35 40t-11 41.5t51 30.5q8 0 17 3h9q20 2 38.5 -2.5t29.5 -22.5z" />
    <glyph glyph-name="Euro" unicode="&#x20ac;" horiz-adv-x="1190" 
d="M1065 217v0q6 -4 10.5 -13t3.5 -18t-8 -13q-6 -4 -13 -9q-35 -24 -72 -44q-192 -88 -371 -25t-274 252q-59 121 -73 257q-2 35 -6.5 51.5t-21 25.5t-53.5 18h-4q-11 2 -20 9q-7 6 -13.5 14t-6.5 14q0 7 2 13.5t6.5 12t6.5 5.5q77 7 93.5 51t14.5 103v9v26q-2 35 -39 42
q-11 0 -22 2q-33 2 -66 9q-14 2 -21.5 12t-3.5 25q3 9 9.5 17t15.5 10q37 6 77 11q11 2 22 2q37 4 46 37q4 20 9 40q2 11 4 24q29 132 97 249q123 198 358 209q66 4 132 -6t128 -43q11 -6 17.5 -16t2.5 -25q-5 -11 -12.5 -15.5t-16.5 -4.5q-66 -13 -125 11q-95 31 -166.5 0
t-126.5 -101q-53 -71 -82.5 -151t-42.5 -166q-2 -20 9 -30t28 -10q38 -2 75 -2q20 0 40 -2h41q95 -2 190 -7q24 -2 46 -13q4 -2 7.5 -8.5t5.5 -13.5q0 -4 -3.5 -11t-7.5 -11q-15 -11 -31.5 -14.5t-34.5 -3.5h-7q-61 0 -123 -2q-97 0 -196 -2q-30 0 -43.5 -11t-17.5 -37
q-5 -27 -7 -51v-22q-4 -57 13.5 -78t96.5 -17q93 5 187 3h82q46 2 85 -18q7 -4 11.5 -13t4.5 -18t-5.5 -17.5t-12.5 -10.5q-37 -11 -75 -11q-52 -3 -107 0h-44v-3h-58h-134q-39 -4 -35 -41q2 -192 106 -350q140 -205 365 -106q11 5 20 11q24 11 48 19t51 3q15 -4 30 -11
q3 -2 5 -2z" />
    <glyph glyph-name="uni2116" unicode="&#x2116;" horiz-adv-x="3316" 
d="M788 461q48 128 108.5 327t118.5 388q70 238 103 335q44 129 100 254.5t135 240.5q40 57 97 123t125.5 115.5t143.5 53.5q88 7 144 -24t91 -110q86 -189 100 -432t-10 -504t-59 -498q-35 -245 -48.5 -425t29.5 -254t175 3t387 348q18 20 33 37q40 44 69.5 66t62.5 13
q20 -6 16.5 -21.5t-14.5 -33.5q-4 -8 -8 -15q-25 -51 -60 -95q-116 -143 -237 -281q-84 -88 -190 -152q-94 -59 -204 -66q-161 -9 -214 145q-24 71 -19.5 206t22 297t37.5 311q22 165 31 266q15 190 20.5 384.5t-4.5 361.5t-43 268.5t-93.5 103.5t-156 -133t-231.5 -441
q-154 -405 -275 -823q-165 -579 -326 -1157q-68 -238 -134 -475q-7 -22 -13 -47q-11 -44 -25 -88q-13 -39 -40.5 -56.5t-66.5 -20.5q-86 -2 -91 84q3 101 14 202q19 137 48 330q44 286 94.5 647t89 746t47.5 740.5t-27.5 628t-137.5 411.5q-77 103 -202 70
q-172 -44 -311 -147q-336 -251 -503.5 -520.5t-196 -516t50.5 -431.5q86 -184 252 -266.5t351 -60.5q49 24 97 -5q13 -11 15.5 -27.5t-6.5 -29.5q-42 -46 -101 -46q-319 -7 -504 97.5t-256.5 284t-48.5 399.5t125.5 447.5t262 426.5t359.5 338q88 62 183.5 103.5t201.5 59.5
q57 9 114 9q203 0 308 -172q95 -152 131.5 -400.5t34 -530t-23.5 -537t-40 -417.5q-11 -99 -22 -196q-14 -97 -25 -196q0 -9 -2 -18q-4 -35 -6.5 -62.5t1 -35t14.5 13.5t33 82v0v0zM3151 290q-82 -159 -260 -179q-134 -13 -198 51t-81 163q-20 101 8.5 190t94.5 166
q51 55 126 46q35 0 55 -26q11 -18 4 -31t-20 -24v0q-108 -112 -101 -266q2 -73 42 -132q35 -51 88 -16q50 40 88.5 110.5t44 144t-40.5 130.5q-24 22 -46 31q-11 7 -20 12.5t-9 14.5q-2 50 37.5 73t97 23t107 -23t64.5 -67q16 -57 -5 -170.5t-76 -220.5z" />
    <glyph glyph-name="trademark" unicode="&#x2122;" horiz-adv-x="2964" 
d="M926 899v-64q-2 -61 0 -125q2 -625 17.5 -978t36.5 -482t39.5 -82.5t28.5 220t4.5 426.5t-35 537t-91.5 548v0v0zM772 1359v59q2 22 2 44q0 31 12.5 54t45.5 34q24 7 30.5 22.5t2.5 34.5q-33 227 -71 454q-4 35 -19.5 43.5t-52.5 4.5q-216 -29 -449 -75
q-150 -28 -296 -52.5t-276 -30.5q-20 -3 -37.5 2.5t-26.5 27.5q-11 36 51 62q132 53 344 87t415 56q125 15 217 29q9 2 16 2q17 2 35 6q18 5 27.5 16t5.5 31v8q-4 16 -4 29q0 64 50 75q33 9 61.5 -2t35.5 -38q13 -64 51.5 -76t89.5 -3q798 90 1601 150q51 8 99 -14
q14 -6 20.5 -17t1.5 -24q-2 -7 -8.5 -14.5t-15.5 -10.5q-35 -8 -75 -11q-283 -15 -573.5 -47t-578.5 -69q-194 -24 -381 -46q-57 -7 -114 -16q-38 -4 -46.5 -16t-0.5 -52q51 -273 86 -548t64 -550q37 -323 63.5 -697t24.5 -747t-53 -694q-11 -68 -33 -134q-15 -38 -45 -53.5
t-69 -12.5q-71 0 -101 61q-47 115 -55 236q-53 589 -64 1137t-9 1124q0 79 2 161v0v0zM2779 490v0q19 2 30 -5.5t14 -29.5q2 -11 -9 -32t-26.5 -41t-24.5 -29q-72 -77 -160 -101t-190 -6q-48 8 -84.5 39t-62.5 75l-4 4q-31 51 -69 99q-17 25 -33.5 25t-38.5 -22
q-66 -62 -115 -139q-46 -68 -132 -62q-63 5 -83 66q-5 16 -5 31q-4 79 -35 46t-57 -90q-11 -22 -26 -44q-16 -26 -31 -53q-16 -28 -33 -57q-31 -44 -86 -48q-101 -9 -114 88q-5 83 -9 167q0 37 -2 77q-3 33 -5 68q-2 62 -4 121q-2 79 72 86q82 7 95 -66q9 -66 11 -132
q2 -44 12 -54t19 -4.5t17 16.5v2l18 22q22 31 46 58q66 57 154 48q77 -7 110 -75q9 -24 34.5 -6.5t66 42t88.5 32.5q117 25 198 -59q38 -42 73 -90q2 -5 7 -9q8 -13 17 -29q7 -13 16 -26q37 -48 77.5 -49.5t81.5 25t78 59.5q31 27 56.5 44.5t47.5 17.5z" />
    <glyph glyph-name="minus" unicode="&#x2212;" horiz-adv-x="893" 
d="M486 435l-81 2q-126 4 -275 20q-2 0 -5 4q-6 0 -8.5 3.5t-4.5 14.5q-2 46 20 48q112 16 227 18l46 2h83h225q24 0 50 -4q20 -5 20 -51t-20 -51q-6 -2 -17 -2h-46q-102 -4 -214 -4z" />
    <glyph glyph-name="lessequal" unicode="&#x2264;" horiz-adv-x="1033" 
d="M55 551q-8 27 7 36q97 55 202 101l42 20l77 30l207 86q24 11 51 16q19 4 37 -40q18 -42 0 -55q-4 -4 -13 -9l-44 -17q-93 -42 -196 -84l-77 -29q-81 -30 -178 -61q94 -29 174 -60l77 -28q103 -42 195 -84l44 -20q9 -2 14 -6q17 -13 0 -55q-18 -44 -38 -40q-26 5 -50 13
l-207 86l-77 33l-42 18q-106 46 -202 103q-18 9 -3 46zM363 39q-121 0 -231 2h-50q-11 0 -18 2q-22 5 -22 40q0 37 22 39q27 5 55 5h244h91l48 -2q125 -3 246 -14q25 -2 22 -37q-2 -9 -5 -12t-8 -3q-2 -3 -6 -3q-163 -13 -297 -15z" />
    <glyph glyph-name="greaterequal" unicode="&#x2265;" horiz-adv-x="1033" 
d="M757 551q16 -37 -2 -46q-97 -57 -202 -103l-42 -18l-77 -33l-207 -86q-24 -8 -51 -13q-19 -4 -37 40q-18 42 0 55q4 4 13 6l44 20q93 42 196 84l77 28q79 31 174 60q-97 31 -178 61l-77 29q-104 42 -196 84l-44 17q-9 5 -13 9q-18 13 0 55q17 44 37 40q26 -5 51 -16
l206 -86l77 -30l42 -20q106 -46 203 -101q15 -9 6 -36zM447 39l-88 2q-134 2 -297 15q-4 0 -7 3q-4 0 -7.5 3t-5.5 12q-2 35 22 37q121 11 244 14l51 2h90h244q29 0 55 -5q22 -2 22 -39q0 -35 -22 -40q-6 -2 -17 -2h-51q-110 -2 -233 -2z" />
    <glyph glyph-name="a.salt" unicode="&#xe026;" horiz-adv-x="632" 
d="M465 353q-44 22 -82 -13q-79 -72 -165 -138q-44 -33 -92.5 -55t-105.5 -25q-167 3 -132 163q2 7 5 11q48 130 127 234.5t200 174.5q80 47 172 36q24 -5 46 -18q27 -13 22 -42q-2 -9 -8.5 -15.5t-13.5 -12.5q-4 -5 -10.5 -7t-13.5 -2q-66 -2 -113.5 -38.5t-86.5 -82.5
q-44 -49 -81.5 -108t-61.5 -141q88 51 138 101q11 11 22 20q9 9 18 16q44 41 92 72q55 31 109 31t105 -44q70 -62 20.5 -102.5t-110.5 -14.5z" />
    <glyph glyph-name="b.salt" unicode="&#xe027;" horiz-adv-x="709" 
d="M299 -60q-57 -31 -123 -9q-15 7 -20.5 24.5t5.5 28.5l6 6q44 38 93 66q63 40 99.5 111.5t56.5 146.5q15 61 20 123q4 26 -2.5 51.5t-30.5 40.5q-33 18 -71.5 -15t-74 -91.5t-59.5 -115.5t-31 -88q-13 -55 -70 -59q-71 -9 -82 61q-19 161 -17 479t28.5 680t81.5 653.5
t138 401.5q55 66 143 63q110 -2 150 -105q44 -119 42 -283t-29.5 -326.5t-58.5 -277.5q-55 -207 -124.5 -407t-163.5 -389q-5 -7 -7 -13q-13 -20 -19.5 -45.5t10.5 -60.5q13 7 24 13q25 11 47 22q70 29 149 27q203 -18 205 -220q-2 -49 -11 -97q-53 -313 -304 -396z
M218 1548v0q-5 -55 -13 -150q-9 -114 -20 -236t-16 -193q33 44 70.5 183t71.5 306t56 293.5t25 146.5q2 17 7.5 81t7.5 137.5t-5.5 127.5t-31.5 56q-7 -2 -13.5 -9.5t-11.5 -16.5q-13 -35 -22 -73q-2 -4 -2 -11q-44 -156 -67 -317.5t-36 -324.5z" />
    <glyph glyph-name="c.salt" unicode="&#xe028;" horiz-adv-x="609" 
d="M319 199.5q-172 -46.5 -240 -19.5q-75 8 -110 54.5t-26 123.5q13 83 75.5 169t165 135.5t227.5 27.5q20 -2 33 -15q7 -5 12.5 -13.5t3.5 -17.5q-2 -27 -33 -34.5t-60 -7.5q-6 0 -13 -2q-79 -11 -155 -91.5t-85 -174.5q0 -40 78.5 -38t231 69.5t110 -26t-214.5 -140z" />
    <glyph glyph-name="d.salt" unicode="&#xe029;" horiz-adv-x="1210" 
d="M1059 186q-76 33 -117 141q-38 97 -44 200q-3 35 -4 175t-3 294t-2 231v37q-57 -207 -134 -429t-110 -297q-64 -138 -143 -270q-55 -86 -132 -154q-62 -55 -148 -66t-160.5 22t-98.5 114q-25 95 -11.5 184t74.5 168q69 86 158 112.5t194 1.5q33 -8 66 -22q16 -6 33 -13
q53 66 116 261t115.5 399.5t72.5 296.5q62 277 103 550q29 176 62 354q13 58 66 75.5t99 -17.5q22 -18 22 -44q-7 -322 -29 -647q-6 -132 -13 -258q-13 -248 -18.5 -496.5t5.5 -497.5v-20q0 -50 9 -119.5t28.5 -135.5t19.5 -114.5t-76 -15.5zM257 217v0q55 62 96 132t80 156
q-50 24 -97.5 37.5t-91.5 -4t-83 -83.5q-73 -130 -22 -271q13 -31 36 -27.5t46 24.5t36 36z" />
    <glyph glyph-name="e.salt" unicode="&#xe030;" horiz-adv-x="596" 
d="M213 391v0h-4h2h2zM400 166q-94 -17 -191 -8q-119 15 -177 98.5t-47 187.5q17 116 106 184.5t204 50.5q70 -9 127 -51q62 -50 55.5 -115t-77.5 -100q-37 -18 -82 -22.5t-105 0.5h-3h-9.5h-13.5q-18 0 -23.5 -10t-0.5 -25q33 -82 129.5 -86.5t184.5 31t71.5 -36
t-148.5 -98.5zM211 556v0q-15 -11 -20.5 -25.5t-6.5 -24.5t3 -12t25 -5.5t46.5 -1t42 11t11.5 30.5q-11 31 -42.5 39t-58.5 -12z" />
    <glyph glyph-name="f.salt" unicode="&#xe031;" horiz-adv-x="566" 
d="M452 315q-1 -19 3 -45q0 -5 3 -11q11 -101 17.5 -230t-5.5 -255.5t-52 -220.5q-31 -66 -92.5 -88t-122 -2.5t-95.5 79.5q-31 57 -49 118q-33 126 -48 255.5t-20 261.5q-9 289 26.5 677t109 770t179.5 650q33 73 112 59q55 -8 53 -59q-31 -130 -66 -268
q-75 -286 -141 -602t-88 -655q-15 -220 -14 -440t32 -437q2 -36 9.5 -89.5t19.5 -102t24.5 -69.5t24.5 7.5t21 129.5q4 132 3 266.5t-19 268.5q-6 59 -13 121q-7 59 -15 119q-5 31 0.5 56t36.5 43q75 31 130 -20q13 -11 25 -139.5t11 -147.5z" />
    <glyph glyph-name="g.salt" unicode="&#xe032;" horiz-adv-x="721" 
d="M535 -210q-16 -158 -59 -391.5t-114.5 -457.5t-167.5 -354q-71 -90 -187 -99q-181 -5 -207 176q-18 176 49 371.5t177 377t220 307.5q53 72 98 247t56 305q5 66 -8.5 72.5t-48.5 -15.5q-31 -17 -75 -33.5t-105 -14.5q-84 9 -122.5 64t-39.5 128.5t23 135.5q29 61 76 114
t102 95q91 66 194 26q15 -7 25 -19t8 -29q-2 -16 -12 -23.5t-23 -9.5q-88 -33 -142 -112.5t-67 -154t22 -92.5q24 -4 62.5 23.5t73.5 64.5t51 55q48 66 132 64q94 -2 94 -93q-2 -63 -13 -136zM132 -1200v0q48 132 113 375t76 380q-35 -57 -55 -79q-9 -11 -13 -20
q-97 -152 -176 -313q-55 -114 -83.5 -222t-26.5 -235q0 -51 11 -74t37 3q75 82 117 185z" />
    <glyph glyph-name="h.salt" unicode="&#xe033;" horiz-adv-x="784" 
d="M557 265q-14 20 -27 40q-24 48 -64 88q-48 44 -88 0q-77 -84 -123 -187q-22 -51 -44 -101q-15 -38 -31 -73q-39 -99 -138 -68q-49 18 -55 66q-2 18 0 37v14q6 189 13 378q13 447 31 893q4 97 6 194q7 191 18 380.5t33 378.5q11 75 35 147q24 60 81.5 84t120 9.5
t104.5 -69.5q64 -92 73 -204q35 -350 -6 -668t-142 -652q-59 -198 -112 -346q-18 -48 -31 -85q-22 -66 -22 -82.5t18 0.5q108 115 223.5 110.5t222.5 -136.5q9 -13 18 -27q26 -35 49.5 -102t-40.5 -83.5t-123 64.5zM319 2307v0q-7 46 -14.5 51.5t-15 -12t-13 -46t-9 -53
t-5.5 -30.5q-11 -148 -23 -376.5t-23 -453.5q-9 -182 -15.5 -309.5t-11.5 -154.5q71 194 106 465.5t39.5 524.5t-15.5 394z" />
    <glyph glyph-name="i.salt" unicode="&#xe034;" horiz-adv-x="286" 
d="M198 131q-66 -57 -114.5 20t-75 176t-8.5 227q15 74 92 77q69 0 75 -62q2 -51 0 -101v-13q31 -278 31 -324zM79 778v0q-61 4 -70 66q-7 48 15 92q20 38 65 52t85 -8q15 -8 21.5 -22.5t4.5 -23.5q-2 -158 -121 -156z" />
    <glyph glyph-name="j.salt" unicode="&#xe035;" horiz-adv-x="310" 
d="M120 -763q-32 -243 -87 -478.5t-128 -391.5q-19 -44 -42.5 -86t-58.5 -75q-112 -101 -204.5 -81t-151.5 114q-71 119 -68.5 268.5t57.5 313.5t138.5 321.5t173.5 291.5t163 222q44 59 66 181.5t27.5 267.5t0 273.5t-12.5 201.5q-4 73 62 81q90 11 106 -63
q19 -113 21.5 -234t0.5 -242q-3 -72 -17 -357t-46 -528zM-260 -1589v0q64 138 103.5 313t65 355.5t43.5 341.5q2 28 4 55q-59 -51 -134 -190.5t-142 -320t-99 -349t-6 -278.5q27 -81 57.5 -74.5t60.5 56t47 91.5zM-26 914v0q-3 3 -3 5q-22 70 -33 143q-6 48 26 68t84 2
q69 -22 84 -81q18 -75 9 -152q-11 -73 -99 -53q-53 13 -68 68z" />
    <glyph glyph-name="k.salt" unicode="&#xe036;" horiz-adv-x="796" 
d="M619 162q-67 0 -116.5 38.5t-71.5 137.5q-66 -70 -117.5 -147t-93.5 -150q-4 -11 -11 -22q-11 -24 -26 -44q-25 -33 -58 -38.5t-68 3.5q-59 11 -61 86q-3 211 2 422q0 70 2 139q2 165 9 327q0 36 2 71q9 347 26.5 682.5t57.5 685.5q6 66 26 142t63 133t117 64
q102 4 146 -86q22 -46 33 -94q50 -258 28 -522q-28 -336 -130.5 -733.5t-208.5 -731.5v-26q-2 -82 -4 -163q2 -49 28.5 -38t63.5 51q44 44 80 84q41 46 85 91t110 93q33 29 80 38q37 4 64.5 -4.5t36.5 -28.5q6 -24 -1.5 -40.5t-22.5 -32.5q-3 -4 -5 -6q-31 -38 -55 -93
t-22 -105q9 -53 44 -62t35 -65t-67 -56zM176 1075v0q-2 -42 14.5 22t40.5 199t48.5 309t38.5 352t12 330q0 22 -3.5 55t-9 65t-13 48.5t-15 1t-16.5 -76.5q-33 -271 -61.5 -651.5t-35.5 -653.5z" />
    </font>
</defs>
</svg>
