<?xml version="1.0" standalone="no"?>
<!DOCTYPE svg PUBLIC "-//W3C//DTD SVG 1.1//EN" "http://www.w3.org/Graphics/SVG/1.1/DTD/svg11.dtd" >
<svg xmlns="http://www.w3.org/2000/svg" xmlns:xlink="http://www.w3.org/1999/xlink" version="1.1">
<metadata>
Created by FontForge 20170731 at Mon Oct 30 23:54:43 2017
 By Aleksey,,,
Copyright (c) 2017 by cob. All rights reserved.
</metadata>
<defs>
<font id="Austic" horiz-adv-x="319" >
  <font-face 
    font-family="Austic"
    font-weight="400"
    font-stretch="normal"
    units-per-em="1000"
    panose-1="0 0 0 0 0 0 0 0 0 0"
    ascent="750"
    descent="-250"
    x-height="268.5"
    cap-height="434"
    bbox="-669 -372 2346.29 818.667"
    underline-thickness="50"
    underline-position="-200"
    unicode-range="U+0020-FB02"
  />
<missing-glyph horiz-adv-x="200" 
 />
    <glyph glyph-name="r_r" unicode="rr" horiz-adv-x="720" 
d="M733 262q10 -2 13.5 -9.5t2.5 -14.5l-1 -6q-3 -8 -17.5 -60.5t-27.5 -96t-38 -104.5t-51 -103t-63.5 -72t-77.5 -30q-52 0 -82 32.5t-36.5 81t0.5 109t21.5 113.5t32.5 98q-27 -5 -44 -5q-19 0 -35 3q-21 -45 -50 -91q-81 -130 -150 -130q-41 0 -60 34q-23 43 -4 125
l6 24q7 19 15 40q-25 -5 -42 -5q-82 -1 -120 64q-30 51 -10 100q19 45 71 45q34 0 51 -27q30 -48 -5 -136q37 -5 86 17q15 7 26 -3q7 -5 8 -12t-2 -11l-2 -5q-25 -39 -39.5 -103t0.5 -91q5 -11 21 -11q44 0 112 108q19 31 46 85q-41 25 -55.5 71t6 82t67.5 36q34 0 51 -27
q30 -48 -5 -136q39 -5 90 18q10 4 20 -1q8 -4 9.5 -13t-1.5 -15l-2 -7q-31 -77 -47.5 -171t-5 -167.5t57.5 -73.5q20 0 41 15t39.5 40t36 57t32.5 68t28 72t23 68.5t17 57.5t11 40l4 15q1 2 2.5 6t8.5 9t17 3zM-10 258q25 68 9 95q-4 6 -13 6q-14 0 -21 -15q-8 -17 -1 -43
t26 -43zM285 344q-8 -17 -1 -43t26 -43q26 68 9 95q-4 6 -13 6q-14 0 -21 -15z" />
    <glyph glyph-name="t_t" unicode="tt" horiz-adv-x="830" 
d="M647 453q-57 0 -139 7q-27 -104 -43.5 -200.5t-20 -187.5t21.5 -146t78 -55q102 0 196 182q21 42 39.5 90t26.5 73.5t8 27.5q1 2 2.5 6t9 9t17.5 3t13.5 -9.5t2.5 -14.5l-1 -6q-23 -90 -78 -199q-45 -88 -95 -140q-69 -67 -141 -67q-160 0 -163 239q-3 -6 -8 -16.5
t-7 -15.5q-46 -90 -96 -140q-67 -67 -141 -67q-69 0 -108.5 46t-49 118t-0.5 166t30 183.5t51 177.5q-65 2 -94 0q-155 -12 -209 -108q-1 -2 -3.5 -4.5t-10.5 -6t-17 2.5q-9 4 -11 11.5t1 13.5l2 5q36 65 102 96q60 29 143 35q44 2 112 -1q28 78 55 132q1 3 4 6t12 8.5
t18 -1.5q8 -4 10 -12t0 -14l-2 -5q-23 -54 -42 -119q51 -5 187 -24q104 -16 155 -22q37 111 73 183q1 3 4 6t11.5 8.5t18.5 -1.5q8 -4 9.5 -12t-0.5 -14l-2 -5q-31 -77 -57 -171q202 -19 323 21q22 8 29 -12q4 -10 0 -17.5t-9 -9.5l-6 -3q-89 -30 -211 -30zM394 224
q16 110 56 243q-56 7 -148 20q-136 20 -194 25q-31 -106 -50.5 -210t-26.5 -205t17 -163.5t81 -62.5q104 0 196 182q37 72 69 171z" />
    <glyph glyph-name="i_v" unicode="iv" horiz-adv-x="644" 
d="M52 322q-11 0 -19 8t-8 19q0 12 8 20t19 8q12 0 20 -8t8 -20q0 -11 -8 -19t-20 -8zM228 262q9 -4 11 -11.5t0 -13.5l-2 -6l-18 -33q-77 -130 -156 -130q-50 0 -75 26t-24 60.5t10 65t20 42.5q1 2 4 3.5t11 3t16 -5.5q5 -4 6 -11t-1 -12l-1 -5q-19 -60 -9.5 -91t43.5 -31
q54 0 117 108q10 18 14 26q14 24 34 15zM673 220q0 -10 -5.5 -16t-11.5 -6l-5 -1q-2 0 -6.5 -0.5t-6.5 -0.5q-54 0 -96 33q-20 16 -58 64q-3 6 -7 10q-12 -40 -28 -82.5t-45.5 -104.5t-68 -100.5t-78.5 -38.5q-55 0 -78 40.5t-17.5 92t18.5 96t24 56.5q1 2 3.5 3.5t11 3
t16.5 -5.5q5 -4 6 -11t-1 -12l-1 -6q-23 -59 -21.5 -135.5t39.5 -76.5q37 0 83 78.5t73 156.5l27 78q6 24 33 24q21 0 48 -40q19 -26 30 -38.5t38 -26.5t59 -12q24 1 25 -22z" />
    <glyph glyph-name="r_s" unicode="rs" horiz-adv-x="634" 
d="M335 262q9 -4 11.5 -12t0.5 -14l-2 -7q-46 -92 -65 -122q-81 -130 -150 -130q-41 0 -60 34q-23 43 -4 125l6 24q7 19 15 40q-25 -5 -42 -5q-82 -1 -120 64q-30 51 -10 100q19 45 71 45q34 0 51 -27q30 -48 -5 -136q37 -5 86 17q15 7 26 -3q7 -5 8 -12t-2 -11l-2 -5
q-25 -39 -39.5 -103t0.5 -91q7 -11 21 -11q43 0 112 108q16 25 31.5 54.5t22.5 45.5l8 17q1 3 3.5 6.5t10.5 8t17 0.5zM-10 258q26 66 9 95q-4 6 -13 6q-14 0 -21 -15q-8 -17 -1 -43t26 -43zM660 259q5 -9 2.5 -16.5t-5.5 -11t-5 -4.5q-174 -99 -284 -208q29 -170 30 -224
q4 -140 -84 -162q-19 -5 -41 -5q-37 0 -63.5 21t-36.5 57q-27 105 79 248q19 28 55 67q-11 70 -13 117q-5 109 30 167q1 2 3.5 4t10.5 5.5t17 -3.5q8 -4 10 -11t0 -12l-2 -5q-26 -61 -4 -210q13 12 41 36q94 79 224 154q26 13 36 -4zM273 -327q23 0 38 12t20.5 36.5
t7.5 48.5t-2 60.5t-7.5 59t-9.5 57.5q-2 12 -3 17q-20 -24 -29 -36q-43 -60 -62.5 -116t-9.5 -94q12 -45 57 -45z" />
    <glyph glyph-name=".notdef" horiz-adv-x="200" 
 />
    <glyph glyph-name=".null" horiz-adv-x="0" 
 />
    <glyph glyph-name="nonmarkingreturn" horiz-adv-x="333" 
 />
    <glyph glyph-name="space" unicode=" " horiz-adv-x="200" 
 />
    <glyph glyph-name="exclam" unicode="!" horiz-adv-x="324" 
d="M61 -177q15 0 25.5 -10.5t10.5 -25.5t-10.5 -25.5t-25.5 -10.5t-25.5 10.5t-10.5 25.5t10.5 25.5t25.5 10.5zM278 731q12 -3 17 -13t3 -22q-2 -11 -7 -32.5t-8 -32.5q-5 -25 -16 -74t-17 -74q-7 -31 -21.5 -94t-21.5 -95q-7 -31 -21 -93.5t-21 -93.5q-5 -21 -15.5 -69.5
t-16.5 -73.5q-4 -15 -13 -58q-2 -10 -13 -16t-22 -3q-24 7 -19 34v1q5 21 15 65q22 98 33 148q28 126 43 189q28 124 42 187q8 37 32 143q2 10 6.5 29t6.5 28q2 11 12.5 17t21.5 3z" />
    <glyph glyph-name="quotedbl" unicode="&#x22;" horiz-adv-x="178" 
d="M140 729q20 -8 11 -23l-39 -49q-9 -15 -23 -8q-13 5 -5 19q11 18 33 52q7 14 23 9zM84 729q20 -8 11 -23l-39 -49q-9 -15 -23 -8q-13 5 -5 19q11 18 33 52q7 14 23 9z" />
    <glyph glyph-name="numbersign" unicode="#" horiz-adv-x="545" 
d="M499 366q8 0 14.5 -6.5t6.5 -14.5q0 -9 -6.5 -15t-14.5 -6h-2h-87q-3 -16 -11 -48q-3 -15 -10.5 -44.5t-11.5 -44.5h86q8 0 14.5 -6.5t6.5 -14.5q0 -9 -6.5 -15t-14.5 -6h-2h-94q-2 -10 -7 -30.5t-8 -31.5q-28 -116 -43 -174q-10 -41 -30 -125q-2 -8 -6 -24.5t-6 -24.5
t-10 -12t-16 -2q-19 5 -14 25q0 3 1 5q6 24 18 74q6 24 17.5 71.5t16.5 70.5q6 24 21 84.5t23 93.5h-135q-3 -10 -8 -30.5t-7 -31.5l-42 -174q-11 -41 -31 -125q-2 -8 -6 -24.5t-6 -24.5q-1 -8 -9.5 -12t-16.5 -2q-19 5 -14 25q0 3 1 5q6 24 18 74q14 59 35 142
q25 108 43 178h-100q-9 0 -15 6t-6 15q0 8 6 14.5t15 6.5h2h108q5 23 16.5 68.5t16.5 68.5h-7h-100q-9 0 -15 6t-6 15q0 8 6 14.5t15 6.5h2h116l36 150q11 42 31 126l12 48q1 9 9 13t17 2q8 -2 12 -10t2 -16q0 -3 -1 -4q-3 -13 -9 -37t-9 -37q-8 -36 -35 -143
q-3 -12 -10.5 -43.5t-11.5 -48.5h134q13 50 37 150q5 21 15.5 63t15.5 63l12 48q1 9 9 13t16 2q9 -2 13 -10t2 -16q0 -1 -0.5 -2t-0.5 -2q-3 -13 -9 -37.5t-9 -36.5q-6 -24 -17.5 -71.5t-17.5 -71.5q-3 -12 -10.5 -43.5t-11.5 -48.5h78zM221 276q-12 -52 -22 -89h135
q6 23 17 68.5t16 68.5h-134z" />
    <glyph glyph-name="dollar" unicode="$" horiz-adv-x="427" 
d="M376 524q26 -41 26 -90t-24 -72q-17 -15 -30 0q-6 6 -6 15t6 14q1 1 3 4q1 1 1 2t1 2.5t2 2.5l1 1v2q1 4 3 14v2q1 1 1 4v10v10q-1 1 -1 5q-1 9 -5 20q0 2 -1 5.5t-2 5.5q-1 0 -1 2q0 1 -1 2v2q-5 10 -11 19q-1 1 -2.5 3t-1.5 3l-1 1q-4 6 -7 8l-9 9l-4 4h-1v1
q-9 7 -22 13l-5 2h-3l-1 1q-5 2 -13 4q-12 3 -14 3h-1q-1 1 -2 1h-5l-3 -72q-2 -31 -4.5 -92.5t-3.5 -91.5q-1 -12 -2 -36.5t-1 -36.5q54 -51 86 -105q38 -63 43 -121q5 -59 -23 -100q-31 -45 -91 -57q-11 -2 -33 -4q0 -17 -2 -51q0 -9 -1 -26t-1 -25q-2 -21 -21 -21
q-9 0 -15.5 6t-5.5 15l3 60q0 7 0.5 21.5t0.5 21.5q-41 4 -59 11q-54 18 -74 56q-20 36 -10 81q7 38 35 72q24 31 58 44q7 3 15.5 -2t10.5 -13q5 -19 -15 -26h-1l-6 -3q-9 -6 -10 -7q0 -1 -1 -1t-2 -1l-6 -6q-5 -3 -11 -12l-1 -1q-1 0 -1 -1t-1 -2t-5 -7l-9 -15q0 -1 -2 -5
v-2q-1 -1 -3 -5q-1 -3 -2.5 -8.5t-2.5 -8.5v-5q-1 -1 -1 -2v-6v-16v-1q1 -1 1 -4q1 -1 1 -3.5t1 -3.5l2 -4q1 -4 4 -8q1 -1 2 -2.5t1 -2.5l2 -2l3 -3q3 -4 7 -7q0 -1 1 -1l1 -1q2 0 2 -1q5 -4 17 -10q1 0 3 -0.5l2 -0.5q4 -2 6 -2q4 -2 12 -4l15 -3q2 -1 7 -1q0 -1 2 -1h1
q2 0 6.5 -0.5t6.5 -0.5q1 17 3 53q2 58 8 184q1 15 2 44t2 44q-4 4 -12.5 11.5t-15 13.5t-11.5 11q-30 32 -49 60q-40 61 -48 116q-9 63 19 106q29 48 89 64q23 7 45 8q0 5 1 16t1 17q0 17 2 51q0 8 6 14.5t15 6.5q8 0 14.5 -6.5t6.5 -14.5v-1q-1 -19 -3 -59q0 -16 -1 -24
q24 -2 43 -9q56 -19 85 -68zM114 517zM102 496zM160 299q17 -20 31 -33q2 36 3 55q2 63 8 181q0 10 1 29t1 28h-4q-1 -1 -3 -1q-3 0 -7 -1t-7 -1q-13 -3 -27 -9q-2 0 -3 -1q-1 0 -2.5 -1t-2.5 -2q-2 -1 -11 -5q-1 -1 -3 -2l-2 -2q-1 -1 -2 -1l-8 -8q-5 -3 -8 -8l-1 -1
q-1 -1 -2 -2.5t-1 -2.5q-4 -6 -6 -10t-2 -5q-1 0 -1 -1q-5 -11 -6 -22q0 -1 -0.5 -2t-0.5 -2v-4q-1 -4 -1 -12t1 -13v-6v-3q2 -8 6 -26q1 -3 5 -14q0 -3 2 -7q2 -2 2 -5q8 -18 13 -26q12 -20 18 -29q1 -2 3 -4t3 -4l3 -3q0 -1 1 -2q6 -8 10 -12zM312 -57zM238 164l-9 9
q-1 -11 -2 -33.5t-1 -34.5q-2 -30 -4.5 -90.5t-3.5 -90.5q0 -6 -1 -19t-1 -20q4 1 12 1h1q1 1 3 1q1 0 3.5 0.5t3.5 0.5q8 2 13 4q8 2 12 4q1 0 2 1t2.5 1t2.5 1q5 3 11 7q1 0 3 2q2 0 2 2q3 2 9 8l1 2q1 2 2 2l1 1q6 7 11 19l1 1q0 2 2 6q0 1 1 4.5t2 5.5q0 1 0.5 4t0.5 5
q1 2 1 5v5q2 14 0 26l-1 6q0 2 -1 3q0 4 -2 14q-1 2 -4 12t-5 16q-1 2 -3 8q0 1 -1 3q-1 1 -2 4t-2.5 5.5t-2.5 4.5q-16 33 -36 58l-2 3l-2 2q-2 4 -5 7q-2 3 -6 7t-6 7zM314 533zM359 448z" />
    <glyph glyph-name="percent" unicode="%" horiz-adv-x="418" 
d="M170 478q0 -30 -21.5 -51t-51.5 -21t-51 21t-21 51t21 51t51 21t51.5 -21t21.5 -51zM65 478q0 -14 9.5 -23t22.5 -9q14 0 23.5 9.5t9.5 22.5t-9.5 22.5t-23.5 9.5q-13 0 -22.5 -9t-9.5 -23zM320 61q30 0 51.5 -21t21.5 -51t-21.5 -51t-51.5 -21t-51 21t-21 51t21 51
t51 21zM320 -43q14 0 23.5 9.5t9.5 22.5t-9.5 22.5t-23.5 9.5t-23 -9.5t-9 -22.5t9 -22.5t23 -9.5zM314 601q-7 -26 -18.5 -74t-16.5 -69q-8 -33 -23 -94.5t-21 -87.5q-9 -35 -25 -101t-22 -92l-42 -174q-11 -41 -31 -125q-2 -8 -6 -24.5t-6 -24.5t-10 -12t-16 -2
q-19 5 -14 25q0 3 1 5q6 24 18 74q5 24 17 71.5t17 70.5l45 183q8 32 23.5 96t23.5 96l42 174q5 21 15.5 63t15.5 63l12 48q1 9 9 13t16 2q9 -2 13 -10t2 -16q0 -1 -0.5 -2t-0.5 -2q-3 -13 -9 -37t-9 -37z" />
    <glyph glyph-name="ampersand" unicode="&#x26;" horiz-adv-x="775" 
d="M738 220q8 -4 10.5 -12.5t-2.5 -16.5q-29 -38 -84 -70q-63 -37 -142 -53q-2 -20 -4 -32q-9 -42 -29 -86q-44 -96 -126 -154q-43 -31 -97 -48q-56 -19 -115 -17q-42 2 -71 21q-32 20 -46 59q-12 35 -3 83q9 45 41 100q37 62 93 119l3 3q-64 41 -99 106q-38 72 -40 159
q0 84 35 160q34 76 97 124q66 50 150 52t133 -59q55 -65 43 -163q-16 -115 -112 -232q-27 -33 -57 -63q-10 -10 -70 -65q-6 -6 -10 -9q2 -1 10 -4q27 -10 48 -14q18 -4 26 -5q1 0 3.5 -0.5t4.5 -0.5h2q2 0 7 -1t7 -1q21 -2 64 -2q14 0 42 2q3 1 10 1.5t10 0.5h2q2 1 3 1h2h2
v5q0 6 -1 8v4q-2 10 -4 15q0 1 -0.5 4t-1.5 4q-2 2 -2 5q-2 4 -6 10q-2 4 -3 5l-2 2q-3 5 -8 8v1h-1l-2 1q-2 2 -6 4q-1 0 -2 1q-2 0 -6 2q-19 5 -14 25q6 20 25 15q32 -8 54 -40q18 -27 21 -66q0 -1 0.5 -2.5t0.5 -2.5q10 2 30 8q5 2 14.5 4.5t14.5 4.5q4 2 14 6q3 1 4 1
l4 2q36 18 43 22q12 8 17 12q4 1 8 5q2 1 4 3q12 9 22 19l13 13q1 2 3 4h-1q14 14 27 5zM443 498zM144 187q3 -3 8 -7.5t7 -6.5q1 -1 4 -3.5t4 -3.5q1 0 2 -1l2 -2h1q16 -12 24 -17q7 7 45 41.5t57 53.5q28 30 54 63q1 1 1 2l3 3q1 1 3 4t3 4t4.5 6t5.5 8q3 5 9.5 14.5
t9.5 14.5q20 35 29 57v1q1 1 1 2q1 3 3 7q1 2 2.5 6.5t2.5 6.5q2 6 7 25q2 5 4 14.5t2 10.5t0.5 3.5t0.5 3.5v1q0 2 0.5 5.5t0.5 5.5q2 24 -1 44v1v5q-2 6 -2 9q-1 3 -3 9.5t-3 9.5l-3 9l-2 4q-3 8 -8 16q-1 1 -3 3.5t-3 3.5q0 1 -2 3q-3 5 -11 13q-2 2 -6 5.5t-5 4.5l-2 1
l-3 3q-1 0 -3.5 1.5t-3.5 2.5q-2 2 -7 4t-8 4h-1l-2 1q-1 0 -3.5 1t-4.5 2t-8 2.5t-8 1.5q-4 0 -5 1h-1h-6q-22 2 -39 -1h-3h-2q-2 -1 -5 -1t-4 -1q-3 0 -9 -1.5l-10 -2.5q-12 -4 -17 -6q-4 -2 -5 -2t-1 -1q-3 -1 -7 -3q-18 -8 -32 -18q-2 -1 -4 -3t-4 -3q-1 0 -3 -2
q-10 -8 -14 -12q-15 -14 -26 -27q-1 -1 -3 -3.5t-3 -3.5q-1 -2 -3 -4q-1 -1 -4.5 -7t-5.5 -9q-13 -19 -19 -33q-3 -5 -7 -15q-1 -1 -1 -3q-1 -1 -1 -2q0 -2 -1 -2l-3 -9q-6 -13 -11 -37q-2 -5 -4 -19q-2 -6 -2 -10q0 -1 -0.5 -2.5t-0.5 -2.5q-2 -26 -3 -38q0 -14 2 -40
q0 -1 0.5 -4.5t0.5 -5.5q0 -3 1 -4q1 -3 2 -9.5t1 -9.5q2 -9 11 -38l3 -9q2 -2 2 -4l9 -18q6 -12 20 -34q1 -1 3 -4l2 -2q1 -2 5 -6q8 -10 13 -15zM171 163zM82 -196zM278 -203zM346 -163zM408 -100zM473 37q2 8 4 20q0 3 1 4q-40 -5 -72 -5q-117 -2 -202 38
q-12 -10 -22 -22q-18 -20 -26 -30q-5 -5 -13 -15q0 -1 -2 -3l-1 -1q-1 -1 -2.5 -3.5t-2.5 -3.5q-19 -25 -35 -55q-7 -10 -13 -25l-3 -6v-1q-1 -1 -1 -2t-1.5 -5t-2.5 -6q-4 -10 -7 -23q-2 -8 -2 -11q-1 -2 -1 -5q0 -1 -1 -2q0 -3 -0.5 -9t-0.5 -9q0 -7 1 -10v-7q0 -2 1 -6.5
t2 -6.5q1 -1 2 -3.5t1 -4.5v-1l1 -2q2 -2 4.5 -6.5t3.5 -6.5l2 -2l5 -5q4 -4 6 -5l2 -2q2 -1 6.5 -3.5t6.5 -4.5h2q1 -1 2 -1q4 -2 7 -2q6 -2 16 -4h4q3 -1 9 -1q18 0 28 1q3 0 8 0.5t7 0.5q2 1 5 1t4 1q11 1 28 5q11 3 26 8q3 1 7 2.5t6 1.5l6 3h2q25 11 46 25q7 4 21 14
l2 2q1 1 5 3q1 1 4 3.5t5 4.5q20 19 34 35q6 6 8 10l4 4v1h1l7.5 10t6.5 10q16 26 23 40q4 7 10 21v1q2 4 2 5q2 4 4 10q8 22 12 41z" />
    <glyph glyph-name="quotesingle" unicode="'" horiz-adv-x="122" 
d="M84 729q20 -8 11 -23l-39 -49q-9 -15 -23 -8q-13 5 -5 19q11 18 33 52q7 14 23 9z" />
    <glyph glyph-name="parenleft" unicode="(" horiz-adv-x="337" 
d="M309 695q4 -7 2 -15t-10 -13q-16 -10 -23 -16l-2 -2q-1 -1 -3 -2t-3 -2t-5 -4.5t-6 -5.5l-21 -21q-2 -2 -5 -6t-5 -6q-1 -1 -2.5 -3t-2.5 -3q-1 0 -2.5 -2t-1.5 -3q-28 -37 -49 -79q-16 -30 -23 -46l-3 -6q0 -3 -1 -4q0 -2 -1.5 -5l-2.5 -5l-10 -25q-17 -45 -32 -106
q-8 -30 -12 -56q-1 -5 -2.5 -14.5t-2.5 -13.5q-2 -10 -2 -15q-1 -2 -1 -7v-2h-1q-14 -119 -3 -225q0 -2 0.5 -4t0.5 -4v-2q1 -1 1 -2q0 -2 0.5 -5.5t0.5 -4.5q1 -4 2.5 -13t2.5 -14q4 -23 12 -50q4 -16 16 -48q2 -4 2 -6q1 0 1 -1q1 -1 2.5 -5t2.5 -6q5 -11 11 -22
q13 -25 24 -39q2 -2 4 -6l2 -2q2 -3 6 -7q4 -6 15 -17l16 -16q1 -1 4 -3.5t5 -3.5q2 -2 3 -2l2 -2q19 -13 39 -24q7 -4 9.5 -13t-1.5 -16q-10 -17 -29 -7q-66 32 -115 103q-53 77 -73 187q-20 105 -10 226q9 120 43 228q32 107 85 194q57 89 123 128q8 4 16 2t13 -10z" />
    <glyph glyph-name="parenright" unicode=")" horiz-adv-x="336" 
d="M28 -356q-4 8 -2 16t10 13q10 6 23 16q1 0 1 0.5t1 0.5l5 5q8 6 11 10q8 7 22 21q6 8 10 12q1 1 2.5 3t2.5 3l2 2q2 2 2 3q31 42 49 78q12 23 22 47l3 6l2 4q0 1 1.5 4.5t2.5 5.5l10 25q20 59 32 106q2 9 6 27.5t6 28.5q1 5 2.5 14.5t2.5 13.5q0 5 2 15q0 1 0.5 3t0.5 4
v2q16 117 4 225q-1 3 -1 8q-1 3 -1 4q0 2 -0.5 5t-0.5 5q-1 4 -2.5 13t-2.5 13q-4 24 -12 51q-10 32 -16 48l-3 6v1q-1 2 -2.5 5.5t-2.5 5.5q-3 7 -11 21q-13 25 -25 40l-3 6q-2 0 -2 2q-1 1 -3 3.5t-3 3.5q-2 3 -7 8.5t-8 8.5q-11 11 -17 16q-5 5 -8 7q-2 2 -3 2q0 1 -1 1
t-2 1q-17 13 -38 24q-8 4 -10.5 13t2.5 16q10 17 29 7q67 -34 114 -103q53 -74 73 -188q20 -108 11 -225q-9 -120 -43 -228q-32 -109 -86 -194q-55 -89 -122 -128q-17 -10 -29 7z" />
    <glyph glyph-name="asterisk" unicode="*" 
d="M282 529q5 0 8.5 -6.5t3.5 -14.5q0 -21 -12 -21h-2h-70l9 -9l42 -42q9 -9 -7 -23q-14 -15 -23 -6h-1l-50 50v-12v-59q0 -13 -21 -13t-21 13v1v70l-9 -9q-6 -6 -12.5 -13t-15 -15t-13.5 -13q-9 -9 -24 6t-6 23l1 1l50 50h-13h-59q-12 0 -12 21t12 21h1h71l-9 9
q-28 28 -42 41q-9 9 6 24t24 6l1 -1l49 -49v12v59q0 12 21 12t21 -12v-1v-70q6 6 9 8l42 42q9 9 23 -6q15 -14 7 -24h-1l-16 -16t-18 -18.5t-16 -15.5h13h59z" />
    <glyph glyph-name="plus" unicode="+" 
d="M282 296q5 0 8.5 -6.5t3.5 -14.5q0 -21 -12 -21h-2h-71h-29v-42v-59q0 -13 -21 -13t-21 13v1v71v29h-42h-59q-12 0 -12 21t12 21h1h72h28v42v59q0 12 21 12t21 -12v-1v-71v-29h43h59z" />
    <glyph glyph-name="comma" unicode="," horiz-adv-x="116" 
d="M83 101q15 -7 5 -20q-16 -28 -32 -52q-9 -15 -23 -8q-13 5 -5 19q11 18 33 52q7 15 22 9z" />
    <glyph glyph-name="hyphen" unicode="-" 
d="M282 296q5 0 8.5 -6.5t3.5 -14.5q0 -21 -12 -21h-2h-71h-113h-59q-12 0 -12 21t12 21h1h72h113h59z" />
    <glyph glyph-name="period" unicode="." horiz-adv-x="122" 
d="M97 69q0 -15 -10.5 -25.5t-25.5 -10.5t-25.5 10.5t-10.5 25.5t10.5 25.5t25.5 10.5t25.5 -10.5t10.5 -25.5z" />
    <glyph glyph-name="slash" unicode="/" horiz-adv-x="322" 
d="M282 705q8 -2 12 -10t2 -16q0 -3 -1 -4q-3 -13 -9 -37t-9 -37q-8 -36 -35 -143q-14 -60 -44 -182q-9 -35 -25 -101t-22 -92l-42 -174q-11 -41 -31 -125q-2 -8 -6 -24.5t-6 -24.5q-1 -8 -9.5 -12t-16.5 -2q-19 5 -14 25q0 3 1 5q6 24 18 74q14 59 35 142q14 61 44 183
q8 32 23.5 96t23.5 96l42 174q11 42 31 126l12 48q1 9 9 13t17 2z" />
    <glyph glyph-name="zero" unicode="0" horiz-adv-x="518" 
d="M480 450q14 -85 12 -187q-3 -97 -20 -198q-18 -99 -48 -174q-36 -89 -80 -135q-49 -54 -113 -57q-71 -3 -121 45q-44 42 -65 119q-20 71 -20 164q0 84 15 186q13 86 40 181q25 87 59 160q32 70 70 109q43 45 87 37q14 -2 16 -18q4 3 11 3q16 -2 26 -5q53 -19 87 -83
q30 -60 44 -147zM442 424zM409 555zM277 659zM224 617zM73 -62zM379 -109zM446 196q4 43 4 96q0 52 -4 93q0 4 -0.5 11t-1.5 11q0 2 -1 6t-1 6v5q-4 28 -7 42q-9 44 -20 74q-1 2 -3 7.5t-3 8.5q-1 0 -1 2q0 1 -1 2q-2 4 -3 7l-15 27q-1 2 -4 6t-4 6q-2 0 -2 2l-5 5
q-1 2 -4 5.5t-5 4.5q-1 1 -2.5 2t-2.5 2l-1 1q-2 1 -5.5 3t-5.5 3l-6 3q0 1 -1 1q-9 3 -11 3q-1 1 -3 1t-3 1h-1q-19 2 -21 19q-6 -3 -15 -3h-1q-1 1 -4 1q-2 0 -3 -1q-2 0 -8 -2h-2q-1 0 -1 -0.5t-1 -0.5q-2 -1 -8 -5q-2 -2 -4 -2l-1 -1q-6 -5 -16 -15q-6 -6 -8 -10l-5 -5
l-1 -1v-1q-12 -16 -17 -24q-15 -25 -33 -61q-2 -6 -8 -18q-2 -6 -4 -9v-2l-1 -2q-9 -20 -15 -39q-16 -42 -27 -82q-26 -91 -39 -182q0 -2 -1 -6t-1 -6q0 -3 -1 -4v-2q-1 -4 -2 -11.5t-1 -11.5q0 -7 -1.5 -23t-2.5 -23q-3 -45 -3 -89q0 -42 6 -84v-1v-4q1 -2 1 -5t1 -4
q1 -7 3 -19l9 -36q2 -7 11 -32q2 -2 2 -4q2 -4 3 -7t3.5 -7t4.5 -7q3 -7 8 -13q1 -1 2.5 -3t2.5 -3v-1l1 -1q8 -11 20 -21q1 0 3 -1.5t2 -2.5t1 -1t2 -1q4 -3 12 -7q2 -2 6 -4q3 0 5 -2q6 -2 11 -4q2 0 7 -1t7 -2q1 0 4 -1h3q3 0 4 -1h27q1 1 5 1q1 0 3 1t3 1q8 2 13 4
q2 0 2 1h1l6 3q8 4 12 7q1 0 3 1.5t3 2.5q0 1 1 1t2 1q3 3 11 9q2 3 6.5 7.5t8 8.5t6.5 8l3 3q1 1 2.5 3.5t2.5 3.5q8 11 10 14q12 19 18 32q7 12 17 36q1 1 1 2l2 4l3 9q7 16 8 20q28 81 44 179q1 7 3 23v3q1 2 1 6q0 2 0.5 5.5t1.5 5.5q1 9 2.5 25t1.5 24z" />
    <glyph glyph-name="one" unicode="1" horiz-adv-x="271" 
d="M214 694q15 8 26 -3q7 -8 5 -21l-9 -60q-9 -53 -22 -137q-4 -27 -13.5 -88t-14.5 -94q-9 -55 -31 -196q-11 -69 -28 -179q-3 -21 -10 -65t-11 -65q-2 -8 -4 -25t-4 -26q-1 -8 -9.5 -12t-16.5 -2q-18 4 -14 25v1l9 60q15 98 22 136q4 31 13.5 91.5t14.5 91.5q12 74 31 196
q4 26 13.5 86.5t14.5 92.5q4 21 11 64.5t10 65.5q0 4 1 6q-2 -1 -6 -3.5t-6 -3.5q-21 -12 -64 -35.5t-65 -35.5q-17 -11 -28 7t7 29q9 5 25.5 14t24.5 13q42 24 128 72z" />
    <glyph glyph-name="two" unicode="2" horiz-adv-x="524" 
d="M456 673q22 -29 33 -67q19 -76 -2 -181q-20 -103 -77 -222q-57 -121 -142 -234q-75 -101 -166 -187q41 0 62 1q142 2 213 4q8 0 14.5 -6.5t6.5 -14.5q0 -9 -6.5 -15t-14.5 -6q-5 0 -15.5 -0.5t-15.5 -0.5q-200 -4 -299 -4q-14 0 -19.5 13t4.5 23q97 85 174 181l12 15
q2 2 3 4q3 3 5 7q14 17 22 29q14 19 40 59q40 60 68 117q5 10 28 58q1 3 3.5 8l3.5 7q1 1 2 3.5t1 3.5q0 2 1 3q7 15 11 28q20 49 34 108q8 35 10 50q2 8 2 13v1q1 2 1 6q2 14 2 23q1 14 1 43q0 6 -2 20v5q0 1 -1 4t-1 5q-3 16 -9 35l-2 4l-3 6q-4 10 -7 14q-4 6 -5 7l-2 2
q-3 4 -10 11q-1 0 -2.5 2t-2.5 2q-2 2 -3 2q-6 5 -13 8q-1 0 -2 1t-2 1q-4 2 -6 2q-4 2 -16 4q-1 0 -3.5 1t-3.5 1h-1h-4q-8 1 -23 1q-3 0 -9 -0.5t-9 -0.5q-1 -1 -4 -1q-2 0 -4.5 -0.5t-3.5 -0.5q-17 -3 -32 -9q-2 -1 -4.5 -2t-3.5 -1h-1q-1 -1 -2 -1q-3 -1 -7.5 -3.5
t-5.5 -3.5q-4 -2 -8 -4.5t-8.5 -5.5l-7.5 -5l-5 -5q-1 -1 -3 -2.5t-3 -1.5l-10 -10q-2 -2 -5.5 -6t-5.5 -6q-1 -2 -4 -5q-1 -1 -2.5 -3l-1.5 -2q-16 -20 -31 -50l-7 -14q0 -1 -1 -3.5t-2 -3.5q0 -1 -1 -2v-1q-2 -5 -5.5 -15t-5.5 -14q-12 -38 -16 -58q-2 -8 -10 -12t-16 -2
q-19 5 -15 25q16 66 41 117q31 63 72 98q56 47 126 54q50 7 88 -8q36 -15 57 -40zM452 470z" />
    <glyph glyph-name="three" unicode="3" horiz-adv-x="548" 
d="M487 654q23 -36 31 -85q17 -103 -34 -221q-44 -102 -132 -175q18 -13 30 -28q52 -64 57 -162q7 -101 -42 -173q-29 -41 -69 -62q-47 -24 -103 -24q-67 0 -112 24q-41 22 -62 62q-34 60 -23 154q7 51 18 84q6 20 25 15q8 -2 13 -10t2 -16l-3 -12q-5 -16 -11 -48
q0 -1 -0.5 -4t-0.5 -4q0 -2 -1 -3q0 -3 -0.5 -9t-0.5 -9q-2 -24 -1 -36q0 -13 1 -19q0 -4 1 -6q0 -1 0.5 -4t0.5 -4q2 -13 10 -37h1q0 -1 2 -5q0 -1 1 -2l3 -6q6 -10 9 -14l2 -2q1 -1 3 -4q4 -4 7 -6l7 -7l1 -1q2 -2 4 -3q6 -4 18 -10q1 0 2.5 -1t2.5 -2h2q5 -3 11 -4
q11 -4 25 -6q1 0 3 -1h2q4 0 5 -1q10 0 14 -1h30q2 0 7 0.5t7 0.5l2 1h5l24 6q8 2 12 4h1q2 1 3 1l1 1q10 4 20 11l9 6q1 0 3 2q1 1 2 1q2 2 7 6.5t8 7.5q1 2 3.5 5t3.5 4l3 3v1q13 17 21 36q0 1 1 1l1 2v1q1 1 1 2l3 9q4 10 6 21q4 14 5 21q0 4 1 6q0 7 1 11q2 21 0 43
q0 4 -0.5 11.5t-0.5 10.5l-1 1v5q-1 2 -1 5.5t-1 4.5q-6 26 -11 40q-1 4 -3 10q-1 1 -1 2.5t-1 2.5q-1 3 -4 8.5t-5 8.5q-3 6 -9 16q-1 2 -3 4t-3 4q0 1 -2 3l-12 12l-6 6l-1 1q-2 0 -2 1q-7 5 -14 8q-1 1 -2 1h-1q-4 2 -7 3q-15 3 -15 20q0 11 10 18l12 9q1 0 3 2q2 1 5 4
q12 9 22 19q22 20 38 39q1 2 4 5.5t5 5.5q0 1 2 3q1 1 3 5q8 10 16 22q16 25 26 45q8 16 12 25q0 3 2 5q2 6 2 7q3 7 5 13q9 27 15 54q2 8 4 24q0 1 1 3v2q0 4 1 7v12q1 25 0 50q0 1 -0.5 3t-0.5 3v2q0 1 -1 4.5t-1 5.5q-1 8 -5 22q-3 11 -7 20v1l-1 1q-1 0 -1 2q0 1 -1 2
q-1 3 -5 9q-5 9 -10 16q0 1 -0.5 1t-0.5 1l-3 3l-7 7l-7 7h-1l-1 1l-2 2q-15 9 -17 10q-1 0 -3 1l-2 1l-9 3q-2 0 -5.5 1t-5.5 2q-3 0 -5 1h-3q-7 1 -21 1q-4 0 -10 -0.5t-9 -0.5q-1 0 -2.5 -0.5t-2.5 -0.5q-5 0 -6 -1q-10 -1 -30 -7q-1 -1 -3.5 -2t-3.5 -1l-1 -1
q-1 -1 -2 -1l-12 -6q-7 -4 -13 -8q-1 0 -3 -2q-1 0 -2 -1l-2 -2l-19 -19q-1 -1 -2.5 -3t-2.5 -3l-1 -1q-1 -1 -3.5 -5t-4.5 -6q-2 -4 -6.5 -12t-6.5 -12q-1 -3 -3 -7q-2 -2 -2 -5q-1 -2 -4 -10l-9 -27q-5 -18 -11 -54v-6q-1 -2 -1 -7q-1 -4 -1 -13q-2 -20 -2 -28
q-2 -21 -21 -21q-9 0 -15.5 6t-5.5 15v6q8 149 72 223q41 47 105 60q63 13 110 -6q42 -17 70 -58zM478 555zM82 -158zM116 -205zM396 -74zM395 2z" />
    <glyph glyph-name="four" unicode="4" horiz-adv-x="470" 
d="M444 670l-9 -60q-9 -53 -22 -137q-4 -27 -13.5 -88t-14.5 -94q-9 -55 -31 -196q-6 -38 -9 -58q30 -7 40 -10q9 -2 13 -10t2 -16t-10 -12t-16 -2l-36 9q-2 -13 -6 -39.5t-6 -40.5q-3 -22 -10 -65t-11 -65q-2 -8 -4 -25t-4 -26q-1 -8 -9.5 -12t-16.5 -2q-18 4 -14 25v1
l9 60q15 98 22 136l9 63q-24 6 -72.5 18t-72.5 18q-68 16 -112 28q-8 1 -12 9t-2 16l3 15q5 21 14.5 62.5t14.5 62.5q8 35 22.5 98.5t20.5 89.5q26 114 39 172q12 50 18 74q1 9 9 13t16 2q9 -2 13 -10t2 -16q0 -2 -1 -7t-2 -7q-4 -18 -14 -60.5t-15 -64.5
q-8 -35 -22.5 -98.5t-20.5 -89.5q-7 -32 -20.5 -89.5t-19.5 -82.5l-12 -54l24 -6q30 -7 89.5 -21.5t89.5 -22.5q5 -2 15 -4.5t15 -3.5q8 52 12 79q12 74 31 196q4 26 13.5 86.5t14.5 92.5q4 21 11 64.5t10 65.5q2 20 8 50q1 9 9 13t16 2q19 -5 15 -26z" />
    <glyph glyph-name="five" unicode="5" horiz-adv-x="681" 
d="M635 657q8 0 14.5 -6.5t6.5 -14.5q0 -9 -6.5 -15t-14.5 -6h-4q-43 -2 -129 -4l-192 -6q-14 -1 -41.5 -2t-41.5 -1q-29 -110 -33 -128q-12 -43 -21 -85q0 -3 -1 -5h2q123 -5 206 -55q78 -46 114 -124q35 -76 31 -158q-5 -85 -43 -156q-38 -74 -104 -119q-70 -48 -153 -48
q-67 0 -112 24q-41 22 -62 62q-34 60 -23 154q7 51 18 84q6 20 25 15q8 -2 13 -10t2 -16l-6 -21q-4 -17 -5 -23q-2 -10 -3 -14q0 -5 -1 -8v-3q-5 -38 -2 -72q0 -6 1 -9v-1q0 -3 1 -4q2 -12 4 -19q1 -6 5 -18q1 -1 1 -3q1 0 1 -2q3 -4 4 -8q3 -6 11 -16v-1l3 -3q2 -3 6 -7
q5 -5 8 -7l3 -3q1 0 1 -1q12 -8 18 -11l6 -3q2 0 3 -1q2 -1 8 -3q11 -4 25 -6q1 0 3.5 -1t3.5 -1h3q5 -1 14 -1q9 -1 27 -1q4 0 11 0.5t10 0.5l2 1h3t4 0.5t5 0.5q23 5 37 10q2 1 5.5 2.5t4.5 1.5t2 1h2q3 1 8.5 4t7.5 5q14 6 32 19q1 0 2 1l2 2v1q4 2 7 5q5 4 14 13
q5 4 25 27q1 2 3 4h1q0 1 5 8t10 16q9 13 19 33q1 2 2 5t2 4t1 2t1 2q3 6 7 18q8 24 11 37q2 12 4 19q0 1 0.5 4.5t0.5 5.5v1l1 2v1q2 26 2 38q0 26 -1 39q-1 1 -1 5q-1 3 -1 9q-2 6 -4 18q-4 18 -12 37v2q-1 2 -1 3q-1 0 -1 1t-1 3.5t-2 3.5q-6 12 -9 17q-10 18 -21 32
q0 1 -1 1q-1 2 -3 4q-1 1 -3 3.5t-3 3.5q-3 2 -7.5 7t-6.5 8q-2 2 -7 6.5t-8 6.5q-3 3 -5 4v0l-9 6q-15 11 -37 23q-1 1 -5 2.5t-6 2.5q-4 2 -5 2q-1 1 -2 1q-12 5 -22 8q-16 6 -50 14q-5 0 -14 2t-13 2q-1 1 -3 1q-5 0 -7 1q-2 0 -7 0.5t-7 0.5q-5 1 -15 1t-15 1h-17
q-12 0 -21 10q-4 6 -1 29l6 30q16 66 22 88q22 86 34 128q3 16 20 16h4q22 1 64.5 2.5t63.5 1.5q32 1 96.5 3t96.5 3zM97 -185zM151 385z" />
    <glyph glyph-name="six" unicode="6" horiz-adv-x="523" 
d="M373 175q70 -42 101 -115q32 -74 21 -154q-13 -79 -65 -129q-62 -59 -154 -62q-87 -3 -145 39q-54 41 -83 118q-24 71 -22 159q1 83 23 183q21 89 61 183q39 90 87 157q56 77 114 117q62 45 128 45q8 0 14.5 -6.5t6.5 -14.5q0 -9 -6.5 -15t-14.5 -6q-9 0 -14 -1h-5l-1 -1
h-2q-10 -1 -30 -7q-2 -1 -8 -3q0 -1 -2 -1q-5 -3 -15 -7q-20 -12 -29 -18q-3 -3 -7 -5q-2 -2 -4 -3q-2 -2 -6.5 -5.5t-6.5 -5.5q-29 -24 -54 -56q-2 -3 -7 -8l-2 -4q-1 0 -1 -1q-2 -2 -6 -8t-6 -8q-13 -18 -24 -36q-27 -45 -44 -79q-7 -14 -19 -42q-2 -4 -2 -5q-1 -1 -1 -3
q-1 -1 -2.5 -4.5t-2.5 -5.5q-1 -3 -4 -11t-4 -11q-30 -81 -46 -157q1 0 2.5 0.5t2.5 1.5q58 22 108 27q100 13 176 -32zM198 166zM298 -241zM455 -68q1 18 0 36q0 6 -1 9v2v1q-2 12 -4 18q-3 19 -10 34q0 1 -1 4t-2 4v1l-1 1q0 2 -1 2q-2 6 -8 16q-3 6 -9 16q-5 7 -5 8l-3 3
l-1 1q-11 13 -23 26q-13 10 -14 11l-1 1q-2 2 -4 3q-1 1 -3.5 2.5t-3.5 2.5q-2 1 -8 4.5t-9 4.5q-6 4 -9 5l-4 2q-1 0 -2 1q-20 8 -37 11q-7 2 -19 4h-3q-2 1 -5 1q-8 0 -11 1q-32 0 -48 -2h-7q-1 -1 -2 -1q-4 0 -12 -2q-9 -1 -27 -5q-29 -8 -57 -18q-12 -5 -21 7
q-1 -2 -2 -7.5t-1 -8.5q0 -2 -0.5 -5.5t-0.5 -5.5l-1 -1v-6q-2 -14 -4 -44q-4 -49 -1 -84q1 -3 1 -10t1 -11q0 -1 0.5 -4.5t0.5 -5.5q1 -1 1 -4q4 -23 7 -37q4 -15 11 -35q2 -6 3 -8q0 -1 1 -2q0 -1 1 -2q4 -10 7 -15q5 -10 17 -28l2 -2q0 -1 1 -1q1 -2 5 -6q5 -6 11 -11
q5 -6 11 -11q1 0 1 -1l2 -1q1 -1 7 -5q7 -3 13 -8q4 -1 8 -4q1 0 3 -1t3 -1q15 -6 30 -9l15 -3q2 0 3 -1h4q2 0 5.5 -0.5t4.5 -0.5q29 0 43 1q1 0 3 0.5t3 0.5q2 0 5 0.5t5 1.5q4 1 10.5 2.5t9.5 1.5q12 3 19 7q2 0 3 1q1 0 2 1l8 4q10 6 16 9q1 1 3.5 2.5t3.5 2.5t4 3
q9 7 25 23q1 1 2.5 3.5t2.5 3.5q2 2 2 3q4 5 10 15q2 2 4.5 7t3.5 8q2 4 3 7l2 4q6 17 9 33l3 15v3v2q1 1 1 2v8z" />
    <glyph glyph-name="seven" unicode="7" horiz-adv-x="578" 
d="M532 697q12 0 18 -11q5 -9 0 -21q-6 -12 -8 -19q-5 -11 -19 -43t-22 -49q-10 -24 -31 -74t-32 -74q-44 -99 -77 -176q-64 -147 -79 -181q-23 -54 -69 -160q-3 -8 -21.5 -50.5t-28.5 -64.5q-3 -7 -9.5 -21.5t-9.5 -22.5q-4 -7 -13 -9.5t-16 2.5q-16 10 -7 28q1 3 3.5 10
t4.5 10q2 5 17 39.5t23 52.5q22 49 64 147q13 29 38.5 88t38.5 89t39 90.5t39 90.5q14 30 70 160q8 19 24.5 57.5t25.5 57.5q1 2 2.5 6.5t2.5 6.5h-9q-28 0 -83.5 2t-83.5 2q-31 1 -94 2.5t-95 2.5q-29 0 -89 2q-9 0 -15 6t-6 15q0 8 6 14.5t15 6.5q6 0 20 -0.5t21 -0.5
q55 -2 167 -4q31 -1 94 -2.5t94 -2.5q15 -1 45 -1t45 -1z" />
    <glyph glyph-name="eight" unicode="8" horiz-adv-x="561" 
d="M503 651q23 -36 30 -86q13 -98 -48 -200q-31 -50 -76 -92q-34 -28 -53 -40q-10 -6 -16 -10l3 -3q4 -4 26.5 -25.5t33.5 -33.5q48 -56 65 -119q15 -60 3 -121q-13 -57 -51 -106q-38 -48 -96 -76.5t-120 -30.5q-86 -3 -136 62q-53 68 -40 159q14 104 97 193q41 44 109 90
q13 8 39 22q-17 21 -28 35q-48 64 -70 119q-43 108 2 184q42 70 139 79q9 1 15 -5.5t6 -15.5q0 -19 -21 -21q-2 0 -4 -0.5t-4 -0.5h-1h-3l-1 -1q-12 -2 -18 -4q-7 -1 -16 -5l-1 -1q-1 0 -2 -1q-3 -1 -7 -3q-9 -5 -16 -10q-1 0 -3 -2q-3 -2 -7 -6q-8 -8 -12 -13v-1l-3 -3
q0 -1 -1.5 -3t-2.5 -4q-5 -7 -8 -14q0 -2 -1 -3l-1 -2v-2l-3 -9q-2 -6 -2 -9q0 -1 -1 -3v-2v-2q-1 -6 -1 -19q0 -15 1 -22v-3v-2q1 -2 1 -3q1 -2 1.5 -5.5t0.5 -5.5q5 -19 7 -25t5 -13q0 -3 2 -7q0 -2 2 -4q9 -23 28 -54q6 -10 20 -30q8 -10 11 -16l3 -3l1 -1q1 -1 3 -3.5
t3 -3.5q16 -20 25 -30q22 12 46 30q1 0 3 2q1 1 3 2.5t3 2.5q8 6 11 9q8 7 22 21q10 10 19 22l6 6v1l1 1q7 10 8 11q13 18 29 48l6 12q0 3 2 5q0 2 1 3l9 24q5 17 11 49v2q0 4 1 6v11q1 8 1 23q-1 4 -1 12v2q-1 2 -1 3q-2 14 -4 21q-4 14 -7 20v2l-2 4q-2 4 -5 8
q-5 9 -10 16l-1 1v1l-3 3q-3 4 -7 7l-7 7l-2 2q-1 0 -3 1q-8 7 -17 11q-4 2 -6 2v1q-1 0 -5 1t-5 2q-14 4 -22 5q-1 1 -5 1q-2 0 -3 1h-12h-26q-9 -1 -15 5.5t-6 15.5q0 19 21 21q51 3 91 -13q45 -19 73 -58zM416 670zM480 604zM491 561zM221 563zM131 65zM223 -249z
M302 202v1q-3 -2 -7 -4q-41 -23 -66 -41q-2 -2 -7 -5.5t-8 -5.5v-1q-1 0 -3 -2q-1 -1 -7 -5q-4 -3 -12.5 -11t-12.5 -11q-20 -18 -43 -45q-1 -3 -5 -7q0 -1 -0.5 -1t-0.5 -1q-7 -10 -8 -11q-10 -14 -15 -23q-8 -12 -13 -23q-4 -8 -5 -12q-1 -1 -1 -2t-1 -2.5t-1 -2.5
q-7 -15 -14 -45q0 -3 -2 -11v-4q0 -1 -0.5 -1t-0.5 -1q0 -3 -0.5 -10t-0.5 -11v-21q1 -3 1 -10v-1q1 -1 1 -4q3 -20 10 -36v-1q1 -1 1 -2t0.5 -1t0.5 -1t1 -3.5t2 -3.5q3 -6 9 -16q1 -1 3 -3.5t3 -3.5q0 -1 2 -3t6 -6.5t6 -6.5q4 -4 7 -5l1 -1v-1q1 0 1 -1l15 -9l8 -4h1
q1 -1 2 -1q3 -1 8.5 -3t8.5 -3q3 0 9 -2h4q6 -1 18 -1q16 0 24 1q3 0 4 1h1q5 0 7 1l15 3q10 2 30 8l15 6h1l2 1l6 3q12 6 26 14q8 6 13 9l2 1l3 3q1 0 1 1h1q22 18 40 40q1 1 1 2q1 0 1 1q3 3 4 5q2 2 4 6t3 5q10 16 14 25l3 6q0 2 1 3q1 2 2.5 6t1.5 6q6 18 7 27
q0 2 1 6.5t2 6.5v3q0 1 0.5 3t0.5 3v9v10.5v8.5q0 10 -1 15v4q0 1 -0.5 3l-0.5 2q-4 20 -6 29q-4 10 -5 15l-3 6v2l-1 2q-4 9 -14 27q-6 10 -18 28l-3 3q0 1 -1 1q-4 6 -5 7q-3 3 -11 13q-10 10 -31.5 30t-31.5 31zM425 352z" />
    <glyph glyph-name="nine" unicode="9" horiz-adv-x="523" 
d="M393 676q55 -40 82 -117q23 -65 23 -159q-1 -86 -24 -183q-19 -86 -60 -184q-38 -88 -88 -156q-51 -74 -113 -118q-63 -44 -128 -44q-9 0 -15 6t-6 15q0 8 6 14.5t15 6.5h13q2 1 6 1h3q10 2 30 8q1 0 3.5 1t3.5 2l1 1h2l7 3.5t8 3.5q11 6 29 18q1 1 3.5 2.5t3.5 2.5l3 3
q7 4 14 11q23 20 54 56q1 1 3 3.5t3 4.5q2 2 3 4h1q8 12 12 17q13 18 24 36q27 45 44 79q3 7 9.5 21t9.5 21l2 4l1 3q1 2 2 5.5t2 5.5q6 14 9 22q28 75 45 157q-2 -2 -5 -2q-49 -20 -107 -28q-101 -12 -177 33q-69 41 -100 115q-33 76 -21 153q11 79 65 130q58 57 154 62
q86 3 145 -40zM226 672zM325 265zM454 362q3 42 0 84q0 4 -0.5 10.5t-0.5 9.5q0 2 -0.5 5t-1.5 5v5q-2 13 -8 37q-5 20 -10 35l-2 4t-1 4l-1 1l-1 1v2q-1 3 -3.5 8l-3.5 7q-7 14 -18 28l-1 1v1l-1 1q-1 2 -5 6q-5 6 -11 11q-2 2 -6 5.5t-6 5.5l-1 1q-2 0 -2 1q-1 1 -3 2
t-3 2q-4 3 -14 9q-1 0 -3.5 1t-3.5 2l-6 3q-15 6 -30 9q-10 2 -16 3h-2q-1 0 -2.5 0.5t-2.5 0.5h-9q-24 2 -43 -1h-6h-1q-2 -1 -5 -1.5t-5 -0.5q-6 -1 -20 -5l-18 -6q-1 0 -3 -1q-1 -1 -2 -1l-4 -2l-4 -2q-3 -2 -8.5 -5t-7.5 -4q-1 -1 -4 -2.5t-4 -2.5l-3 -3q-12 -9 -25 -24
q-1 -1 -2.5 -3t-2.5 -3q-2 -2 -3 -4q-3 -4 -9 -14t-8 -15q-1 -1 -2 -3.5t-1 -3.5v-1q0 -1 -1 -1l-1 -2q-5 -13 -10 -34q-2 -10 -2 -15q0 -1 -1 -2v-4q0 -6 -1 -8q0 -24 1 -36q0 -6 1 -9v-3v-1q1 -5 3 -17q5 -21 10 -34l2 -4t1 -4l1 -1l1 -2v-2q6 -10 9 -16l9 -15
q1 -2 2.5 -4.5t2.5 -3.5l3 -3q0 -1 1 -2q7 -9 23 -25q5 -5 13 -11q1 -1 2 -1l3 -3q2 -1 4 -2.5t4 -2.5q2 -2 16 -10q1 -1 4 -2t5 -2q4 -2 5 -2q1 -1 2 -1q15 -7 36 -12q7 -1 19 -3q3 0 4 -1h5q2 0 5.5 -0.5t5.5 -0.5q16 -1 48 1q2 1 7 1h1q8 2 13 2q18 4 26 6q30 7 57 18
q12 5 22 -7q2 10 3 16q0 1 0.5 5t0.5 6v1q1 2 1 5q2 15 4 45z" />
    <glyph glyph-name="colon" unicode=":" horiz-adv-x="122" 
d="M97 185q0 -15 -10.5 -25.5t-25.5 -10.5t-25.5 10.5t-10.5 25.5t10.5 25.5t25.5 10.5t25.5 -10.5t10.5 -25.5zM97 370q0 -15 -10.5 -25.5t-25.5 -10.5t-25.5 10.5t-10.5 25.5t10.5 25.5t25.5 10.5t25.5 -10.5t10.5 -25.5z" />
    <glyph glyph-name="semicolon" unicode=";" horiz-adv-x="133" 
d="M108 370q0 -15 -10.5 -25.5t-25.5 -10.5t-25.5 10.5t-10.5 25.5t10.5 25.5t25.5 10.5t25.5 -10.5t10.5 -25.5zM84 209q13 -7 4 -20q-16 -28 -32 -52q-9 -15 -23 -8q-13 5 -5 19q11 18 33 52q7 14 23 9z" />
    <glyph glyph-name="less" unicode="&#x3c;" horiz-adv-x="295" 
d="M263 486q13 -13 0 -30q-10 -12 -15 -17q-18 -23 -55 -68t-56 -68q-42 -52 -64 -78q11 -14 33.5 -40t34.5 -40q15 -17 44 -51.5t43 -51.5q12 -16 0 -30q-17 -15 -30 0q-14 16 -40.5 47.5t-39.5 47.5q-15 17 -43.5 51.5t-43.5 51.5q-12 15 0 30q10 12 14 17q7 8 112 136
q13 15 38.5 46t37.5 47q6 6 15 6t15 -6z" />
    <glyph glyph-name="equal" unicode="=" 
d="M282 323q5 0 8.5 -6.5t3.5 -14.5q0 -21 -12 -21h-2h-71h-113h-59q-12 0 -12 21t12 21h1h72h113h59zM282 249q5 0 8.5 -6.5t3.5 -14.5q0 -21 -12 -21h-2h-71h-113h-59q-12 0 -12 21t12 21h1h72h113h59z" />
    <glyph glyph-name="greater" unicode="&#x3e;" horiz-adv-x="295" 
d="M32 12q-13 13 0 30q10 12 15 17q19 23 55.5 68t55.5 68q10 13 32 39t32 39q-12 13 -34.5 39.5t-33.5 40.5q-15 17 -44 51.5t-43 51.5q-12 16 0 30q17 15 30 0q14 -16 40 -47.5t40 -47.5q14 -17 43.5 -51.5t43.5 -51.5q12 -15 0 -30q-10 -12 -14 -17q-19 -22 -56.5 -67.5
t-55.5 -68.5q-13 -15 -38.5 -46t-37.5 -47q-6 -6 -15 -6t-15 6z" />
    <glyph glyph-name="question" unicode="?" horiz-adv-x="694" 
d="M97 -213q0 15 -10.5 25.5t-25.5 10.5t-25.5 -10.5t-10.5 -25.5t10.5 -25.5t25.5 -10.5t25.5 10.5t10.5 25.5zM279 506q0 -11 -8.5 -19.5t-19.5 -8.5q-12 0 -20 8.5t-8 19.5q-2 46 13 84q11 27 23 43q16 23 40 41q43 33 114 45q74 12 134 1q43 -8 73 -34q53 -45 48 -135
q-6 -81 -54 -183q-41 -91 -112 -188q-73 -101 -149 -174q-43 -41 -80 -69q-40 -30 -74 -47q-25 -13 -38 10q-6 9 -3 21t13 17q33 17 61 38q6 4 16 12l3 3q1 1 3.5 3t4.5 3q22 18 32 28q46 42 76 75q24 28 36 43q12 14 18 22q1 2 4 5.5t5 5.5t2 3q-4 -5 -3.5 -4.5l2.5 2.5
q2 4 4 5q70 91 118 188q4 8 22 46l2 4l-3 -5q0 1 1 2q2 4 3 5q2 8 4 11q1 4 3.5 11.5t4.5 11.5q16 48 21 83q-1 -2 -1 -7q4 35 1 60q0 -5 1 -8q-4 20 -7 29l-2 4v1q1 -3 1 -4q-1 3 -3 7q-3 7 -8 13q0 1 -1 2l2 -2l1 -2q-2 2 -2 3l-5 5q-4 4 -6 5l-3 3l2 -2q-8 6 -13 8
q-4 3 -8 4l2 -1q0 1 -1 1t-2 1q-18 6 -38 9q3 -1 8 -1q-42 5 -100 -2q1 0 4 0.5t4 0.5q-36 -5 -66 -16q-1 0 -3.5 -1t-3.5 -2l1 1h1h-1q-1 -1 -2 -1l-12 -6q-14 -8 -21 -13l-2 -2l1 1q1 1 3 2q0 -1 -1 -1t-2 -1q-2 -2 -4 -3l-8 -8q-2 -2 -4.5 -5t-3.5 -4q-2 -2 -3 -4
q1 1 2 3l-2 -2q-8 -12 -11 -18l-5 -10l1 2q-1 -1 -1 -2.5t-1 -2.5q-8 -26 -9 -40q0 5 1 8q-2 -12 -2 -35z" />
    <glyph glyph-name="at" unicode="@" horiz-adv-x="703" 
d="M611 486q67 -70 67 -183q0 -119 -68 -219q-33 -47 -77 -77q-48 -30 -99 -30q-41 0 -60 34q-23 43 -4 125l6 24q-58 -42 -96 -42q-55 0 -65 52q-9 54 33 111q52 70 137 70q43 0 62 -50q8 -21 -14 -30q-9 -3 -16 0t-9 8l-3 5q-7 22 -20 22q-41 0 -79 -47q-36 -46 -36 -82
q0 -14 10 -14q28 0 83 44l54 47q2 2 4.5 3.5t11 3t15.5 -5.5q7 -5 8 -12t-2 -11l-2 -5q-24 -40 -38.5 -103.5t0.5 -90.5q6 -11 20 -11q77 0 139 87q60 87 60 194q0 94 -54 152q-63 66 -190 66q-132 0 -225.5 -93.5t-93.5 -224.5q0 -132 93.5 -225t225.5 -93q23 0 23 -22
q0 -10 -6 -15.5t-12 -6.5l-5 -1q-76 0 -142 28q-64 27 -115 78t-78 115q-29 69 -29 142q0 74 29 141q25 62 78 116q49 49 115 78q66 28 142 28q74 0 131 -21q55 -21 91 -59z" />
    <glyph glyph-name="A" unicode="A" horiz-adv-x="1277" 
d="M1294 262q9 -4 11.5 -12t0.5 -14l-2 -7q-45 -89 -65 -122q-82 -130 -150 -130q-41 0 -60 34q-23 43 -4 125l6 24q-59 -42 -96 -42q-34 0 -50.5 20t-15.5 53q-38 -44 -59 -68q-123 -146 -205 -210q-134 -106 -278 -106q-137 0 -221 109q-8 11 -15.5 23t-13 22t-10 20
t-7.5 17.5t-5 13.5t-3 10l-1 3q-6 18 15 26q11 3 17.5 0t8.5 -9l3 -5q0 -2 4 -14t16 -36t28 -45q69 -90 184 -90q56 0 111 19.5t95 44t90 72t77.5 77.5t75.5 87q110 129 163 166q45 33 101 33q43 0 62 -50q8 -22 -14 -30q-9 -3 -16 0t-10 8l-2 5q-7 22 -20 22q-41 0 -79 -47
q-36 -46 -36 -82q0 -14 10 -14q27 0 83 44l54 47q2 2 4.5 3.5t11 3t15.5 -5.5q7 -5 8 -12t-1 -11l-3 -5q-24 -39 -38.5 -103t-0.5 -91q7 -11 21 -11q43 0 112 108q16 25 31.5 54.5t23.5 45.5l7 17q1 3 3.5 6.5t10.5 8t17 0.5z" />
    <glyph glyph-name="B" unicode="B" horiz-adv-x="1364" 
d="M1051 190q-49 -39 -86 -62q3 -48 13 -83q14 22 22 33q33 49 65 81q43 41 77 41q37 0 58 -25q17 -22 17 -56q0 -68 -54 -138q-60 -77 -137 -77q-24 -2 -24 22q0 11 6 16.5t12 5.5l6 1q55 0 101 60q45 56 45 110q0 36 -30 36q-35 0 -105 -102q-6 -9 -43 -67q-5 -9 -12.5 -9
t-13.5 5l-5 4q-31 38 -44 113q-90 -53 -185 -89q-196 -75 -406 -75q-114 0 -181 33q-62 30 -85 84q-18 51 -6 99t44 79q2 2 5 4.5t12 5.5t16 -6q7 -8 7 -16t-4 -14l-5 -5q-23 -23 -32 -58t4 -71q16 -38 63 -61q61 -29 162 -29q309 0 585 168q-5 85 14 180.5t57 179t102 138
t140 54.5q52 0 80 -28t28 -74q0 -80 -76 -192q-78 -115 -207 -216zM972 256q-5 -35 -7 -74q32 22 58 43q124 98 195 202.5t71 170.5q0 28 -14 42q-15 15 -49 15q-84 0 -158 -122q-72 -118 -96 -277z" />
    <glyph glyph-name="C" unicode="C" horiz-adv-x="1248" 
d="M1266 259q8 -5 10 -12.5t0 -12.5l-2 -5q-1 -4 -15.5 -27.5t-43.5 -62.5t-64 -74.5t-82.5 -61.5t-93.5 -26v0v0q-80 0 -111 57t-15 134q-19 -21 -39 -45q-129 -151 -205 -210q-135 -106 -278 -106q-139 0 -221 110q-18 24 -32 50.5t-18.5 40.5t-4.5 17q-6 18 15 26
q11 3 17.5 0t8.5 -9l2 -5l2 -5q2 -6 5.5 -15.5t9 -21t14 -26t18.5 -27.5q69 -90 184 -90q46 0 90.5 11.5t86 36t74 48.5t72.5 65t63.5 67t62.5 72q103 122 157 161q44 36 96 36q44 0 57 -38q9 -28 -3 -62q-13 -35 -35 -51q-19 -14 -33 2q-6 9 -4.5 16t5.5 12l4 5
q13 10 20.5 30.5t2.5 32.5q-3 8 -14 8q-44 0 -82 -62q-38 -64 -38 -133q0 -41 17 -64q16 -23 49 -23q20 0 42 8t41.5 21t39.5 30t37 36t32 37.5t27.5 35.5t21 30t13.5 21l5 8q1 2 3.5 5t11 7.5t17.5 -2.5z" />
    <glyph glyph-name="D" unicode="D" horiz-adv-x="1506" 
d="M1519 262q10 -2 13.5 -9.5t2.5 -14.5l-1 -6q-23 -90 -78 -199q-45 -88 -95 -140q-69 -67 -141 -67q-55 0 -91.5 29t-52 78.5t-19 115t7.5 137.5q-21 -18 -33 -26q-58 -42 -97 -42q-34 0 -50.5 20.5t-14.5 52.5l-60 -68q-123 -146 -205 -210q-134 -106 -278 -106
q-137 0 -221 109q-8 11 -15.5 23t-13 22t-10 20t-7.5 17.5t-5 13.5t-3 10l-1 3q-6 18 15 26q11 3 17.5 0t8.5 -9l3 -5q0 -2 4 -14t16 -36t28 -45q69 -90 184 -90q56 0 111 19.5t95 44t90 72t77.5 77.5t75.5 87q115 136 173 172q41 27 91 27q32 0 49 -27q49 218 124 369
q1 3 4 6t12 8.5t18 -1.5q8 -4 9.5 -12t-0.5 -14l-2 -5q-22 -52 -45 -128.5t-45 -167.5t-33 -180.5t-10 -163t26 -119t73 -45.5q104 0 196 182q21 42 39.5 90t26.5 73.5t8 27.5q1 2 2.5 6t9 9t17.5 3zM1073 254l2 2v1l-2 -3q-1 2 -3 12.5t-4 18t-9 14.5t-17 7q-40 0 -78 -47
q-36 -44 -36 -82q0 -14 9 -14q28 0 84 44z" />
    <glyph glyph-name="E" unicode="E" horiz-adv-x="1448" 
d="M1466 259q8 -5 10 -12.5t0 -12.5l-2 -5q-1 -4 -15.5 -27.5t-43.5 -62.5t-64 -74.5t-82.5 -61.5t-93.5 -26v0v0q-44 0 -74.5 19t-43 50t-14 69t11.5 76q-54 0 -123 -42q-49 -30 -158 -121q-63 -54 -100.5 -83t-99 -68.5t-122.5 -58t-125 -18.5q-137 0 -221 110
q-18 24 -32 51t-18.5 41t-4.5 17q-6 18 16 26q10 4 16.5 0.5t8.5 -9.5l2 -5l2 -5q2 -6 5.5 -15.5t9 -21t14 -26t18.5 -27.5q70 -91 184 -91q47 0 95.5 14t84.5 30.5t85 51.5t75.5 56.5t77.5 64.5q45 38 67 56t62 46.5t67 41.5t62.5 22.5t68.5 7.5q25 50 66.5 81.5t90.5 31.5
q35 0 47 -29q20 -40 -15 -85q-24 -30 -61 -42q-22 -7 -51 -7q-17 0 -26 2q-14 -42 -14 -79q0 -41 17 -64q16 -23 49 -23q20 0 42 8t41.5 21t39.5 30t37 36t32 37.5t27.5 35.5t21 30t13.5 21l5 8q1 2 3.5 5t11 7.5t17.5 -2.5zM1229 304q-44 0 -82 -62q-1 -2 -3 -5.5t-3 -5.5
q57 -3 84 32q6 7 9.5 17t2 17t-7.5 7z" />
    <glyph glyph-name="F" unicode="F" horiz-adv-x="1348" 
d="M1371 255q7 -7 7 -15t-3 -12l-3 -4q-56 -56 -133 -92q-72 -34 -147 -39h-22h-10q27 -19 49 -45q61 -69 55 -144q-3 -37 -27 -61q-25 -24 -67 -24q-86 0 -130.5 70.5t-48.5 186.5q-72 -40 -156 -73q-198 -75 -407 -75q-112 0 -181 33q-63 31 -85 84q-18 51 -6 98.5
t44 79.5q2 2 5 4.5t12 5.5t16 -6q8 -8 7.5 -16t-4.5 -14l-4 -6q-23 -23 -32 -57.5t4 -70.5q15 -38 63 -62q57 -28 161 -28q299 0 563 155q6 128 49.5 257t120.5 218.5t165 89.5q51 0 81 -28q27 -27 27 -74q0 -80 -76 -192q-79 -116 -206 -216q-34 -26 -51 -38
q109 -24 219 28q69 32 119 82q18 14 32 0zM1226 648q-65 0 -124 -74.5t-96 -182t-49 -221.5q36 24 67 48q123 98 194 202.5t71 170.5q0 29 -14 42q-15 15 -49 15zM1075 19q-45 53 -122 77q-2 -105 27 -168.5t90 -63.5q45 0 49 44q5 56 -44 111z" />
    <glyph glyph-name="G" unicode="G" horiz-adv-x="1385" 
d="M1414 256q3 -10 -1.5 -17t-10.5 -9l-6 -2q-132 -28 -237 -88q26 -79 35 -164.5t-1 -165.5t-55.5 -131t-123.5 -51q-68 0 -110 40q-39 36 -47 99q-7 66 24.5 141.5t93.5 143.5q54 58 126 105q-10 28 -18 47q-86 -86 -147 -86q-34 0 -51 21t-15 53q-28 -33 -60 -69
q-123 -146 -205 -210q-134 -106 -278 -106q-137 0 -221 109q-8 11 -15.5 23t-13 22t-10 20t-7.5 17.5t-5 13.5t-3 10l-1 3q-6 18 15 26q11 3 17.5 0t8.5 -9l3 -5q0 -2 4 -14t16 -36t28 -45q69 -90 184 -90q56 0 111 19.5t95 44t90 72t77.5 77.5t75.5 87q43 50 65.5 75
t56.5 56.5t62 46.5q1 0 2.5 1t2.5 2v0q36 18 76 18q43 0 62 -50q8 -22 -14 -30q-9 -3 -16 0t-9 8l-3 5q-7 22 -20 22q-41 0 -79 -47q-36 -46 -36 -82q0 -14 10 -14q20 0 54 23.5t58 47.5l23 24q2 2 5 3q1 1 2.5 2t2.5 1q8 3 15.5 -0.5t11.5 -8.5l3 -5q17 -27 33 -67
q109 61 242 89q22 6 28 -16zM1014 -327q51 0 82 42.5t39 109t2.5 141.5t-23.5 146q-60 -41 -106 -91q-56 -61 -84 -127t-22 -122q11 -99 112 -99z" />
    <glyph glyph-name="H" unicode="H" horiz-adv-x="1451" 
d="M1465 262q9 -2 12.5 -9.5t2.5 -14.5l-1 -7l-9 -29q-10 -29 -28 -77t-37 -91q-41 -91 -75 -138q-52 -70 -101 -70q-33 0 -52 22q-21 23 -23.5 73t6.5 100q6 62 6 84q-1 36 -10 45q-5 5 -13 5q-35 0 -106 -102q-24 -37 -42 -67q-5 -9 -13 -9t-13 5l-5 4q-33 40 -45 113
q-88 -53 -184 -89q-197 -75 -407 -75q-112 0 -181 33q-63 31 -85 84q-18 51 -6 98.5t44 79.5q2 2 5 4.5t12.5 5.5t16.5 -6q7 -8 7 -16t-5 -14l-4 -5q-23 -23 -32 -58t4 -71q16 -38 63 -61q60 -29 161 -29q308 0 586 168q-5 85 14 180.5t57 179t101.5 138t139.5 54.5
q53 0 81 -28t28 -74q0 -80 -76 -192q-81 -117 -207 -216q-43 -34 -86 -62q1 -41 13 -83l21 33q36 51 66 81q43 41 77 41q28 0 46 -20q20 -22 21.5 -68.5t-6.5 -95.5q-11 -119 6 -138q7 -7 19 -7q27 0 64 51q35 47 71 130q19 42 36.5 90t26.5 75l9 27q0 1 1 2.5t3 5.5t5 6
t8.5 4t11.5 0zM973 256q-7 -44 -8 -74q19 12 59 43q124 98 195 203t71 170q0 28 -14 42q-16 15 -50 15q-82 0 -158 -122q-73 -119 -95 -277z" />
    <glyph glyph-name="I" unicode="I" horiz-adv-x="1195" 
d="M1211 262q9 -4 12 -11.5t1 -13.5l-1 -6q-19 -55 -59 -123q-78 -131 -156 -131q-48 0 -74 26.5t-27 64.5t5 79q-91 -95 -162 -154q-231 -193 -423 -193q-136 0 -220 110q-8 11 -15.5 23t-13 22t-10 20t-8 17.5t-5.5 13.5t-3 10l-1 3q-4 23 18 27q9 2 15.5 -2t8.5 -8l2 -5
q0 -2 4 -14t16 -36t28 -45q70 -91 184 -91q176 0 394 182q111 94 233 235q13 13 31 1q5 -4 6 -11t-1 -12l-1 -5q-23 -60 -21.5 -136.5t40.5 -76.5q53 0 117 108q15 26 29 55t20 45l7 16q0 1 1 2.5t3.5 5.5t5.5 6t8.5 3.5t11.5 -1.5zM1031 379q-11 0 -19.5 8t-8.5 19
t8.5 19.5t19.5 8.5t19 -8.5t8 -19.5t-8 -19t-19 -8z" />
    <glyph glyph-name="J" unicode="J" horiz-adv-x="1258" 
d="M952 345q-11 0 -19 8t-8 19q0 12 8 20t19 8q12 0 20 -8t8 -20q0 -11 -8 -19t-20 -8zM1284 259q5 -9 2.5 -16.5t-5.5 -11t-5 -4.5q-145 -82 -244 -171q8 -61 11 -115.5t-2 -113.5t-20 -101.5t-46.5 -70t-78.5 -27.5q-37 0 -63.5 21t-35.5 57q-28 103 78 248q42 56 99 111
q-3 21 -6 43.5t-6.5 47t-5.5 35.5q-108 -119 -206 -203q-231 -192 -423 -192q-137 0 -221 110q-8 11 -15.5 22.5t-13 22t-10 20t-7.5 17.5t-5 14t-3 10l-1 3q-5 22 17 26q9 2 16 -2t9 -9l2 -4q12 -48 48 -94q70 -91 184 -91q177 0 394 182q109 91 231 232q3 6 12 9
q11 3 18.5 -0.5t9.5 -8.5l2 -5q17 -63 30 -141q93 79 224 154q26 13 36 -4zM896 -327q118 0 85 335q-40 -40 -69 -81q-44 -59 -63 -114.5t-9 -94.5q12 -45 56 -45z" />
    <glyph glyph-name="K" unicode="K" horiz-adv-x="1447" 
d="M1461 262q10 -2 13.5 -9.5t1.5 -14.5l-1 -7q-19 -74 -73 -197q-40 -89 -76 -138q-51 -70 -101 -70v0q-95 1 -155 70q-6 7 -12 14.5t-10 14t-7.5 12.5t-6 11t-4 8.5t-2.5 5.5l-1 3q-1 1 -1.5 3t-1.5 6.5t0.5 8t6 7t13.5 4.5q61 10 102 57q33 40 30 74q-3 30 -37 30
t-105 -102q-15 -22 -36 -57q0 -1 -1.5 -4.5t-2.5 -5.5q-5 -9 -13 -9t-13 5l-5 4q-31 38 -44 113q-90 -53 -185 -89q-196 -75 -407 -75q-113 0 -180 33q-62 30 -85 84q-18 51 -6 99t44 79q2 2 5 4.5t12 5.5t16 -6q7 -8 7 -16t-4 -14l-5 -5q-23 -23 -32 -58t4 -71
q16 -38 63 -61q61 -29 161 -29q310 0 586 168q-5 85 14 180.5t57 179t101.5 138t139.5 54.5q53 0 81 -28t28 -74q0 -80 -76 -192q-78 -115 -207 -216q-49 -39 -86 -62q3 -44 12 -80q6 10 20 30q33 49 65 81q44 41 77 41q35 0 58 -20q20 -20 23 -50q6 -55 -40 -108
q-37 -44 -99 -65q10 -17 23 -32q48 -52 122 -54q27 0 64 51q33 47 71 130q19 42 36.5 90t26 74.5t8.5 27.5t1 2.5t3 5.5t5 6t8.5 4t11.5 0zM972 256q-5 -35 -7 -74q16 11 58 43q124 98 195 202.5t71 170.5q0 28 -14 42q-15 15 -50 15q-83 0 -157 -122q-72 -118 -96 -277z
" />
    <glyph glyph-name="L" unicode="L" horiz-adv-x="1326" 
d="M1340 261q10 -2 13.5 -9.5t2.5 -13.5l-2 -7q-18 -70 -67 -161q-38 -68 -84 -113q-60 -55 -124 -55q-70 0 -112.5 51.5t-56.5 138.5q-86 -49 -176 -83q-199 -76 -407 -76q-113 0 -180 33q-64 30 -85 85q-18 51 -6 99t44 79q2 2 5 4.5t12 5t16 -6.5q7 -8 7 -16t-4 -14
l-5 -5q-23 -23 -32 -58t4 -71q17 -39 63 -61q61 -29 161 -29q307 0 578 164q-7 120 29 247t114.5 218t176.5 91q53 0 81 -27q28 -28 28 -75q0 -79 -76 -191q-77 -115 -207 -217q-42 -33 -87 -63q4 -71 29 -119q30 -59 86 -59q89 0 168 145q19 33 35 71t22.5 58t6.5 22
q0 1 1 2.5t3 5.5t5 6t8.5 4t11.5 0zM1038 494q-73 -144 -76 -315q41 28 61 45q124 97 195 201.5t71 170.5q0 28 -14 42q-17 15 -50 15q-62 0 -109.5 -48.5t-77.5 -110.5z" />
    <glyph glyph-name="M" unicode="M" horiz-adv-x="1693" 
d="M1707 262q10 -2 13.5 -9.5t1.5 -14.5l-1 -7q-1 -5 -18.5 -57.5t-45.5 -128.5t-47 -119q-40 -89 -76 -138q-51 -70 -99 -70q-29 0 -49 21q-30 33 -30 124q-1 42 10 170q11 124 10 165q0 72 -18 92q-6 6 -14 6q-28 0 -59 -69q-23 -56 -54 -169q-12 -44 -19.5 -68.5t-20 -57
t-25.5 -48t-27 -15.5q-41 0 -27 152q7 56 6 84q0 37 -10 45q-2 5 -13 5q-34 0 -105 -102q-23 -35 -38 -59q-1 -2 -2.5 -4.5t-1.5 -3.5q-12 -21 -24 -21t-18 18q0 2 -1 3q-13 60 7 159q-81 -86 -162 -155q-231 -192 -423 -192q-137 0 -220 110q-8 11 -15.5 22.5t-13 22
t-10 20t-8 17.5t-5.5 14t-3 10l-1 3q-4 22 18 26q9 2 15.5 -2t8.5 -9l2 -4q13 -48 48 -94q70 -91 184 -91q177 0 394 182q106 88 227 228q6 8 7 9q1 2 4 3.5t11 3t16 -5.5q5 -4 6 -11t0 -12l-2 -5q-24 -72 -35 -154q35 49 63 78q44 41 77 41q29 0 47 -20q19 -21 21 -68.5
t-6 -95.5l-4 -71q23 84 35 125q14 51 22.5 80.5t24 71t30 64t35.5 39t44 16.5q29 0 47 -21q30 -31 30 -122q1 -41 -10 -169q-11 -126 -10 -166q0 -75 19 -94q6 -6 15 -6q26 2 63 52q32 43 71 129q19 42 46 117t45 128.5t18 54.5t1 2.5t3 5.5t5 6t8.5 4t11.5 0z" />
    <glyph glyph-name="N" unicode="N" horiz-adv-x="1393" 
d="M1408 262q19 -6 13 -31q-21 -54 -37 -89q-35 -82 -75 -138q-52 -70 -101 -70q-33 0 -52 22q-21 23 -23.5 73t6.5 100q6 62 6 84q-1 36 -10 45q-3 5 -13 5q-19 0 -44 -23t-48 -57t-36 -55t-20 -34q-12 -21 -24 -21q-14 0 -18 18q-5 35 -2 74q-92 -101 -180 -175
q-230 -192 -423 -192q-137 0 -220 110q-8 11 -15.5 22.5t-13 22t-10 20t-8 17.5t-5.5 14t-3 10l-1 3q-4 22 18 26q9 2 15.5 -2t8.5 -9l2 -4q13 -48 48 -94q71 -91 184 -91q177 0 394 182q108 90 233 235l2 2q1 2 3.5 3.5t9.5 4t13 -2.5q8 -5 10 -13t0 -14l-1 -5
q-10 -25 -10 -46q35 51 64 78q43 41 77 41q28 0 46 -20q20 -21 21.5 -68.5t-6.5 -95.5q-11 -119 6 -138q7 -7 19 -7q27 0 64 52q36 48 71 129q12 27 34 84q1 3 3 7t10 9t18 2z" />
    <glyph glyph-name="O" unicode="O" horiz-adv-x="1338" 
d="M1357 259q9 -5 10.5 -13.5t-1.5 -13.5l-3 -6q-20 -40 -62 -80q-77 -74 -170 -80l-1 -1q-48 -88 -114 -88q-65 0 -91.5 49t-16.5 118q-84 -90 -158 -151q-231 -193 -423 -193q-136 0 -221 110q-8 11 -15.5 23t-13 22t-10 20t-7.5 17.5t-5 13.5t-3 10l-1 3q-4 23 18 27
q9 2 15.5 -2t8.5 -8l2 -5q0 -2 4 -14t16 -36t28 -45q70 -91 184 -91q176 0 394 182q108 91 229 231q10 14 15 20q7 7 18 8q3 6 9 16q34 48 83 48q50 0 76 -41q21 -31 21 -85q0 -55 -20 -110q31 6 60.5 22t48.5 34t33.5 36t21.5 29t7 12q2 3 4.5 6t11.5 8.5t18 -2.5zM1016 22
q34 0 63 46q-51 8 -81 41q-18 18 -27 44q-12 -48 -1 -89.5t46 -41.5zM1102 110q25 58 25 114q0 39 -14 61q-11 20 -38 20q-25 0 -46 -29q-21 -30 -21 -71t23 -66q24 -26 71 -29z" />
    <glyph glyph-name="P" unicode="P" horiz-adv-x="1289" 
d="M1164 175q18 -21 18 -56q0 -68 -54 -138q-62 -77 -137 -77q-15 -1 -22 10q-5 -21 -19 -93q-2 -8 -5.5 -35t-7 -45t-9 -39.5t-13.5 -32.5t-17 -11q-19 0 -23.5 23.5t-4.5 82.5v19q0 81 11 175q15 134 45 271q-89 -96 -176 -170q-231 -192 -423 -192q-137 0 -221 110
q-8 11 -15.5 22.5t-13 22t-10 20t-7.5 17.5t-5 14l-3 9l-1 4q-4 22 18 26q9 2 15.5 -2t8.5 -8l2 -5q13 -48 48 -94q69 -91 184 -91q177 0 394 182q112 94 230 231q9 14 28 9q9 -2 12.5 -8.5t2.5 -11.5l-2 -6q-44 -144 -67 -360q-2 -20 -7 -74q63 326 189 326q38 0 57 -25z
M1092 9q45 58 45 110q0 36 -30 36q-75 0 -130 -209l14 3q54 0 101 60z" />
    <glyph glyph-name="Q" unicode="Q" horiz-adv-x="1292" 
d="M1306 262q10 -1 13.5 -10t1.5 -18l-2 -8q0 -2 -10.5 -40t-32.5 -108t-45 -131q-45 -122 -89 -194q-59 -98 -117 -98q-40 0 -62 37q-22 41 -19 117q3 72 22 154q22 100 59 194q-59 -39 -90 -39q-34 0 -51 20.5t-15 52.5q-30 -33 -59 -68q-129 -151 -205 -210
q-137 -107 -278 -107q-139 0 -221 110q-18 24 -32 51t-18.5 41t-4.5 17q-6 18 15 26q11 3 17.5 0t8.5 -9l2 -5q0 -2 4.5 -14t16.5 -36t28 -45q70 -91 184 -91q46 0 90 11.5t86 36.5t74.5 48.5t72.5 65t63 67t63 72.5q111 132 169 169q43 30 95 30q43 0 62 -50q8 -22 -14 -30
q-9 -3 -16 0t-10 8l-2 5q-7 22 -20 22q-41 0 -79 -47q-36 -46 -36 -82q0 -14 10 -14q27 0 83 44l54 47q2 2 4.5 3.5t11 3t15.5 -5.5q7 -5 8 -12.5t-1 -12.5l-3 -4q-59 -104 -97 -273q-41 -178 -8 -238q8 -15 23 -15q32 0 78 76q39 63 86 186q14 38 28.5 80.5t24.5 75.5
t17.5 60.5t12.5 43.5l4 15q1 3 2.5 8t9.5 12t18 5z" />
    <glyph glyph-name="R" unicode="R" horiz-adv-x="1278" 
d="M1291 262q10 -2 13.5 -9.5t2.5 -14.5l-1 -6q-3 -8 -17.5 -60.5t-27.5 -96t-38 -104.5t-51 -103t-63.5 -72t-77.5 -30q-52 0 -82 32.5t-36.5 81t0.5 109t21.5 113.5t32.5 98q-27 -5 -44 -5q-21 0 -36 4q-52 -95 -134 -185q-86 -94 -180 -146q-118 -68 -245 -68
q-137 0 -221 110q-8 11 -15.5 23t-13 22t-10 20t-7.5 17.5t-5 13.5t-3 10l-1 3q-8 22 15 29q10 3 17.5 -1t9.5 -10l2 -6q0 -2 4 -14t16 -36t28 -45q70 -91 184 -91q208 0 391 198q67 73 126 173q-41 26 -54.5 71.5t6.5 81t67 35.5q34 0 51 -27q30 -48 -5 -136q39 -5 90 18
q10 4 20 -1q8 -4 9.5 -13t-1.5 -15l-2 -7q-31 -77 -47.5 -171t-5 -167.5t57.5 -73.5q20 0 41 15t39.5 40t36 57t32.5 68t28 72t23 68.5t17 57.5t11 40l4 15q1 2 2.5 6t9 9t16.5 3zM843 344q-8 -17 -1 -43t26 -43q26 66 9 95q-4 6 -13 6q-14 0 -21 -15z" />
    <glyph glyph-name="S" unicode="S" horiz-adv-x="1261" 
d="M1287 259q5 -9 2.5 -16.5t-5.5 -11t-5 -4.5q-174 -99 -284 -208q29 -170 30 -224q4 -140 -84 -162q-19 -5 -41 -5q-37 0 -63.5 21t-36.5 57q-27 105 79 248q19 28 55 67q-11 70 -13 117q-2 40 1 67q-92 -100 -172 -166q-231 -192 -423 -192q-137 0 -220 110
q-8 11 -15.5 22.5t-13 22t-10 20t-8 17.5t-5.5 14l-3 9l-1 4q-4 22 18 26q9 2 15.5 -2t8.5 -8l2 -5q13 -48 48 -94q70 -91 184 -91q177 0 394 182q115 96 230 232l3 3v0q13 11 28 2q8 -4 10 -11t0 -12l-2 -5q-26 -61 -4 -210q13 12 41 36q94 79 224 154q26 13 36 -4z
M900 -327q23 0 38 12t20.5 36.5t7.5 48.5t-2 60.5t-7.5 59t-9.5 57.5q-2 12 -3 17q-20 -24 -29 -36q-43 -60 -62.5 -116t-9.5 -94q12 -45 57 -45z" />
    <glyph glyph-name="T" unicode="T" horiz-adv-x="1381" 
d="M1394 262q10 -2 13.5 -9.5t2.5 -14.5l-1 -6q-23 -90 -78 -199q-44 -86 -95 -139q-68 -68 -141 -68q-71 0 -111 47t-47.5 128.5t2 171t34.5 192.5q-43 -75 -93 -145q-122 -171 -243 -264q-156 -121 -310 -121q-86 0 -150 35q-51 26 -85 76q-16 25 -26 53t-12.5 41.5
t-2.5 17.5q-3 21 20 24q10 1 16 -4t7 -10l1 -6q0 -3 2 -14t11 -34.5t23 -43.5q61 -90 196 -90q257 0 516 366q47 67 97 151h-69q-23 0 -23 22q0 10 6 15.5t12 6.5l5 1h95q48 86 82 161q20 50 40 90q1 3 4 6t12 8.5t18 -1.5q8 -4 10 -12t0 -14l-3 -5q-40 -98 -74 -233h109
q23 1 23 -22q0 -10 -5.5 -16t-11.5 -6l-6 -1h-120q-24 -98 -36 -185.5t-12 -167t25 -126.5t74 -47q104 0 196 182q21 42 39.5 90t26.5 73.5t8 27.5q1 2 2.5 6t9 9t17.5 3z" />
    <glyph glyph-name="U" unicode="U" horiz-adv-x="1377" 
d="M1393 262q9 -4 12 -11.5t1 -13.5l-1 -6q-19 -55 -59 -123q-77 -131 -156 -131q-56 0 -76 45t-14 112q-59 -73 -104 -73q-83 0 -79 93q-82 -91 -167 -161q-231 -193 -423 -193q-136 0 -220 110q-8 11 -15.5 23t-13 22t-10 20t-8 17.5t-5.5 13.5t-3 10l-1 3q-4 23 18 27
q9 2 15.5 -2t8.5 -8l2 -5q0 -2 4 -14t16 -36t28 -45q70 -91 184 -91q176 0 394 182q108 91 229 231l4 4q1 2 3.5 3.5t11 3t16.5 -5.5q5 -4 6 -11t-1 -12l-1 -5q-42 -129 7 -129q20 0 50 31t48 57t33 52q2 6 9 16q1 2 4 3.5t11 3t16 -5.5q5 -4 6.5 -11t0.5 -12l-2 -5
q-23 -60 -22 -136.5t40 -76.5q53 0 117 108q15 26 29 55t20 45l7 16q0 1 1 2.5t3.5 5.5t5.5 6t8.5 3.5t11.5 -1.5z" />
    <glyph glyph-name="V" unicode="V" horiz-adv-x="1408" 
d="M1427 220q0 -10 -5.5 -16t-11.5 -6l-5 -1q-2 0 -6.5 -0.5t-6.5 -0.5q-54 0 -96 33q-20 16 -58 64q-3 6 -7 10q-12 -40 -28 -82.5t-45.5 -104.5t-68 -100.5t-78.5 -38.5q-39 0 -62 20t-29 52.5t-4 65.5t11 69q-43 -39 -117 -128q-129 -151 -205 -210q-137 -106 -278 -106
q-139 0 -221 110q-18 24 -32 51t-18.5 41t-4.5 17q-6 17 15 25q11 3 17.5 0t8.5 -8l2 -6q13 -48 49 -94q69 -91 184 -91q46 0 90 11.5t86 36.5t74.5 48.5t72.5 65t63 67t63 72.5q42 49 64.5 74.5t56.5 56.5t62 46q13 13 30 0q5 -4 6 -11t-1 -12l-1 -6q-23 -59 -21.5 -135.5
t39.5 -76.5q37 0 83 78.5t73 156.5l27 78q6 24 33 24q21 0 48 -40q19 -26 30 -38.5t38 -26.5t59 -12q24 1 25 -22z" />
    <glyph glyph-name="W" unicode="W" horiz-adv-x="1608" 
d="M1627 220q0 -10 -5.5 -16t-11.5 -6l-5 -1q-2 0 -6 -0.5t-7 -0.5q-54 0 -96 33q-24 19 -57 64q-3 4 -7 10q-14 -44 -29 -83.5t-45 -103t-68.5 -101.5t-78.5 -38q-85 0 -94 94q-53 -73 -110 -73q-45 0 -70.5 28.5t-31 74t-1 92t16.5 91.5q-38 -36 -111 -122
q-123 -146 -205 -210q-136 -106 -278 -106q-137 0 -221 110q-8 11 -15.5 22.5t-13 22t-10 20t-7.5 17.5t-5 14t-3 10l-1 3q-6 17 15 25q11 3 17.5 0t8.5 -8l3 -6q12 -48 48 -94q69 -91 184 -91q56 0 111 19.5t94.5 44t90.5 72.5t77.5 78t75.5 87q45 52 66.5 75.5t56 55.5
t62.5 47q12 10 29 -1q5 -4 6 -11t0 -12l-2 -6q-15 -46 -25.5 -112t-3 -125.5t41.5 -59.5q57 0 129 172q13 38 22 47q1 2 4 3.5t11 3t16 -5.5q5 -4 6 -11t-1 -12l-1 -6q-23 -59 -21.5 -135.5t39.5 -76.5q37 0 83 78.5t73 156.5l27 78q6 24 33 24q10 0 19 -6.5t14 -13
t15 -20.5q18 -25 29.5 -38t39 -27t58.5 -12q24 1 25 -22z" />
    <glyph glyph-name="X" unicode="X" horiz-adv-x="1468" 
d="M1484 262q9 -4 12 -11.5t2 -13.5l-2 -6q-18 -55 -59 -124q-77 -130 -156 -130q-69 0 -99 58q-13 28 -20 71q-32 -27 -41 -36q-35 -34 -35 -48q0 -4 2 -7q16 -16 0 -31q-8 -7 -15.5 -6.5t-12.5 4.5l-5 3q-16 17 -14 41q3 32 49 77q28 25 65 54q-15 95 -84 95q-15 0 -34 -8
q-55 -22 -201 -153q-148 -132 -237 -189q-146 -96 -272 -96q-137 0 -221 110q-33 44 -55 109q-4 22 18 26q9 2 15.5 -2t8.5 -9l2 -4q0 -2 4 -14t16 -36t28 -45q69 -90 184 -90q49 0 103.5 18.5t97 41t101 67t89.5 70.5t88 77q69 61 104 90t81.5 55.5t79.5 26.5
q93 0 123 -110q38 29 63 52q28 27 32 43q0 2 -2 4q-19 16 0 32q10 7 17 7t12 -4l4 -4q15 -17 14 -39q-1 -15 -11 -31.5t-31 -36t-38.5 -33.5t-49.5 -39h-1q8 -64 23.5 -90t54.5 -26q54 0 117 108q15 26 29 55t21 45l6 16q0 1 1 2.5t3.5 5.5t5.5 6t8.5 3.5t11.5 -1.5z" />
    <glyph glyph-name="Y" unicode="Y" horiz-adv-x="1447" 
d="M1476 256q3 -10 -1.5 -17t-10.5 -9l-6 -2q-132 -28 -237 -88q26 -79 35 -164.5t-1 -165.5t-55.5 -131t-123.5 -51q-68 0 -110 40q-39 36 -47 99q-7 66 24.5 141.5t93.5 143.5q54 58 126 105q-6 20 -17 44q-18 -29 -38 -56.5t-53 -55.5t-60 -28q-84 0 -78 93
q-87 -94 -168 -161q-229 -193 -422 -193q-139 0 -221 110q-18 24 -32 51t-18.5 41t-4.5 17q-5 23 17 27q9 2 15.5 -2t8.5 -8l2 -5l2 -5q2 -6 5.5 -15.5t9 -21t14 -26t18.5 -27.5q70 -91 184 -91q175 0 393 182q108 91 229 231l4 4q1 2 4 3.5t11 3t16 -5.5q5 -4 6 -11t0 -12
l-2 -5q-42 -129 7 -129q46 0 134 144q3 10 14 14q8 3 15.5 -0.5t11.5 -8.5l3 -5q17 -27 33 -67q109 61 242 89q22 6 28 -16zM1076 -327q51 0 82 42.5t39 109t2.5 141.5t-23.5 146q-60 -41 -106 -91q-56 -61 -84 -127t-22 -122q11 -99 112 -99z" />
    <glyph glyph-name="Z" unicode="Z" horiz-adv-x="1393" 
d="M1419 259q5 -9 2.5 -16.5t-5.5 -11t-5 -4.5q-141 -80 -242 -169q45 -39 58 -112.5t-4.5 -143.5t-69 -122t-122.5 -52q-37 0 -63.5 21t-35.5 57q-28 103 78 248q34 46 81 93q-33 16 -82 16q-22 -2 -23 20q0 10 4.5 16t9.5 7l5 2q65 11 102 44t34 63q-1 15 -15 24
q-17 13 -55 13q-25 0 -67 -26t-74.5 -53.5t-93.5 -81.5q-148 -132 -237 -189q-146 -96 -272 -96q-137 0 -221 110q-33 44 -55 109q-4 22 18 26q9 2 15.5 -2t8.5 -9l2 -4q0 -2 4 -14t16 -36t28 -45q69 -90 184 -90q49 0 103.5 18.5t97 41t101 67t89.5 70.5t88 77
q69 61 104 90t81.5 55.5t79.5 26.5q55 0 83.5 -23t31.5 -56q2 -33 -21 -67.5t-66 -57.5q4 -2 5 -3q9 -1 25 -7q18 16 29 25q95 80 225 155q25 16 36 -4zM1136 12q-1 1 -3.5 4t-3.5 5q-50 -49 -82 -94q-44 -59 -63 -114.5t-9 -94.5q12 -45 56 -45q54 0 100 67q43 68 43 153
q0 75 -38 119z" />
    <glyph glyph-name="bracketleft" unicode="[" horiz-adv-x="260" 
d="M223 697q12 0 12 -21t-12 -21h-1h-59h-11h-1h-11h-31q-1 -5 -1 -15t-1 -15l-6 -138q-2 -31 -4.5 -92.5t-3.5 -91.5l-9 -198q-1 -30 -3.5 -90.5t-4.5 -90.5l-6 -132q0 -10 -1 -15h53h10h2h10h47q12 0 12 -21t-12 -21h-1h-59h-11h-1h-11h-41q-5 -15 -20 -15q-9 0 -15.5 6
t-5.5 15l3 60l6 138q2 58 8 184l9 198q2 63 8 181l6 132q0 17 2 51q0 8 6 14.5t15 6.5q10 0 17 -9h48h10h2h10h47z" />
    <glyph glyph-name="backslash" unicode="\" horiz-adv-x="172" 
d="M146 -259q1 -9 -5.5 -15t-15.5 -6q-19 0 -21 21q-4 43 -5 61l-12 138q-5 62 -15 184q-2 33 -8 99t-8 99q-10 120 -15 181q-2 22 -5.5 66t-5.5 65q-1 8 -2.5 25t-1.5 26q-1 8 6 14.5t15 6.5q19 0 21 -21v-1q1 -10 2.5 -30.5t2.5 -30.5q8 -92 11 -138q10 -122 16 -183
q10 -132 16 -198q5 -61 15 -181q3 -40 11 -131q2 -34 4 -51z" />
    <glyph glyph-name="bracketright" unicode="]" horiz-adv-x="260" 
d="M38 -271q-13 0 -13 21t13 21h1h59h11h1h11h31q0 5 1 15t1 15l6 138q2 58 8 184l9 198q2 63 8 181l6 132v15h-52h-10h-2h-11h-46q-13 0 -13 21t13 21h1h59h11h1h11h41q6 15 20 15q8 0 14.5 -6.5t6.5 -14.5v-1q-1 -19 -3 -59l-6 -138q-2 -31 -4.5 -92.5t-3.5 -91.5l-9 -198
q-1 -30 -3.5 -90.5t-4.5 -90.5l-6 -132q-1 -9 -1 -26t-1 -25q-2 -21 -21 -21q-11 0 -17 9h-48h-10h-2h-11h-46z" />
    <glyph glyph-name="asciicircum" unicode="^" horiz-adv-x="538" 
d="M506 482q-14 -12 -30 0q-12 10 -17 15q-23 18 -68 55t-68 56q-13 10 -39 31.5t-39 32.5q-4 -3 -80 -68q-17 -14 -51.5 -43t-51.5 -44q-16 -12 -30 0q-6 6 -6 15t6 15q16 14 47.5 40.5t47.5 39.5q17 14 51.5 43t51.5 44q15 12 30 0q1 -1 7.5 -6t9.5 -8q23 -18 68 -55
t68 -56q15 -13 46 -38.5t47 -38.5q6 -6 6 -15t-6 -15z" />
    <glyph glyph-name="underscore" unicode="_" 
d="M282 85q5 0 8.5 -6.5t3.5 -14.5q0 -21 -12 -21h-2h-71h-113h-59q-12 0 -12 21t12 21h1h72h113h59z" />
    <glyph glyph-name="grave" unicode="`" horiz-adv-x="116" 
d="M83 379q-14 -5 -22 8q-11 18 -33 52q-9 15 5 20q16 6 23 -9q22 -34 32 -52q4 -4 2.5 -10.5t-7.5 -8.5z" />
    <glyph glyph-name="a" unicode="a" horiz-adv-x="379" 
d="M396 262q9 -4 11.5 -12t0.5 -14l-2 -7q-45 -89 -65 -122q-82 -130 -150 -130q-41 0 -60 34q-23 43 -4 125l6 24q-59 -42 -96 -42q-55 0 -65 52q-9 54 33 111q52 70 137 70q43 0 62 -50q8 -22 -14 -30q-9 -3 -16 0t-10 8l-2 5q-7 22 -20 22q-41 0 -79 -47q-36 -46 -36 -82
q0 -14 10 -14q27 0 83 44l54 47q2 2 4.5 3.5t11 3t15.5 -5.5q7 -5 8 -12t-1 -11l-3 -5q-24 -39 -38.5 -103t-0.5 -91q7 -11 21 -11q43 0 112 108q16 25 31.5 54.5t23.5 45.5l7 17q1 3 3.5 6.5t10.5 8t17 0.5z" />
    <glyph glyph-name="b" unicode="b" horiz-adv-x="433" 
d="M412 583q3 -50 -22 -111t-73 -112q-51 -56 -125 -94q-70 -36 -156 -48q-9 -101 11 -173q14 22 22 33q33 49 65 81q43 41 77 41q37 0 58 -25q17 -22 17 -56q0 -68 -54 -138q-60 -77 -137 -77q-25 -2 -25 22q0 11 6 16.5t12 5.5l7 1q54 0 101 60q45 56 45 110q0 36 -30 36
q-35 0 -105 -102q-6 -9 -43 -67q-6 -9 -13 -8.5t-12 4.5l-6 5q-31 37 -43 105.5t-6.5 147t30 161t62.5 148.5t95.5 108.5t123.5 42.5q52 0 83.5 -31.5t34.5 -85.5zM284 390q41 44 63 95.5t20 94.5q-5 75 -73 75q-83 0 -157 -122q-69 -113 -95 -269q148 25 242 126z" />
    <glyph glyph-name="c" unicode="c" horiz-adv-x="353" 
d="M371 259q8 -5 10 -12.5t0 -12.5l-2 -5q-1 -4 -15.5 -27.5t-43.5 -62.5t-64 -74.5t-82.5 -61.5t-93.5 -26v0v0q-95 0 -123 83q-24 76 16 165q38 87 110 114q25 10 51 10q44 0 57 -38q9 -28 -3 -62q-13 -35 -35 -51q-19 -14 -33 2q-6 9 -4.5 16t5.5 12l4 5q13 10 20.5 30.5
t3.5 32.5q-5 8 -15 8q-44 0 -81 -62q-39 -63 -39 -133q0 -41 17 -64q16 -23 49 -23q35 0 75 23.5t71 57t57.5 66.5t40.5 57l15 23q1 2 3.5 5t11 7.5t17.5 -2.5z" />
    <glyph glyph-name="d" unicode="d" horiz-adv-x="607" 
d="M620 262q10 -2 13.5 -9.5t2.5 -14.5l-1 -6q-23 -90 -78 -199q-45 -88 -95 -140q-69 -67 -141 -67q-55 0 -91.5 29t-52 78.5t-19 115t7.5 137.5q-21 -18 -33 -26q-59 -42 -97 -42q-55 0 -64 52q-10 54 33 111q52 70 136 70q32 0 49 -27q48 220 124 369q1 3 4 6t11.5 8.5
t18.5 -1.5q8 -4 10 -12t0 -14l-3 -5q-22 -52 -45 -128.5t-45 -167.5t-33 -180.5t-10 -163t26 -119t73 -45.5q102 0 196 182q21 42 39.5 90t26.5 73.5t8 27.5q1 2 2.5 6t9 9t17.5 3zM174 254l2 2v1l-2 -3q-1 2 -3 12.5t-4 18t-9 14.5t-17 7q-40 0 -78 -47q-36 -44 -36 -82
q0 -14 9 -14q28 0 84 44z" />
    <glyph glyph-name="e" unicode="e" horiz-adv-x="353" 
d="M371 259q8 -5 10 -12.5t0 -12.5l-2 -5q-1 -4 -15.5 -27.5t-43.5 -62.5t-64 -74.5t-82.5 -61.5t-93.5 -26v0v0q-96 0 -123 83q-25 76 15 165q39 87 111 114q25 10 51 10q35 0 47 -29q20 -40 -15 -85q-24 -30 -61 -42q-22 -7 -50 -7q-18 0 -27 2q-14 -42 -14 -79
q0 -41 17 -64q16 -23 49 -23q20 0 42 8t41.5 21t39.5 30t37 36t32 37.5t27.5 35.5t21 30t13.5 21l5 8q1 2 3.5 5t11 7.5t17.5 -2.5zM134 304q-44 0 -81 -62q-4 -6 -7 -11q60 -4 84 32q6 7 9.5 17t2 17t-7.5 7z" />
    <glyph glyph-name="f" unicode="f" horiz-adv-x="445" 
d="M468 259q7 -9 6.5 -16.5t-4.5 -12.5l-5 -6q-80 -69 -166 -86q-29 -6 -56 -6q-28 0 -55 6q2 -4 6.5 -10.5t8 -12t6.5 -10.5q58 -98 42 -188q-8 -46 -35 -72t-69 -26q-117 0 -158 138q-41 137 4 334t143 311q79 91 167 91q40 0 63 -23.5t25 -64.5q3 -49 -24 -113.5
t-75 -123.5q-52 -64 -115 -104q-39 -26 -83 -40q1 -1 5 -3.5t6 -4.5q37 -19 68 -29q138 -38 262 71l2 2t5 3t7.5 3t9 -0.5t9.5 -6.5zM303 648q-83 0 -152.5 -115.5t-101.5 -274.5q114 23 208 138q42 52 66.5 109t22.5 97q-2 46 -43 46zM207 -76q11 75 -37 159
q-48 83 -131 119q-11 -91 -7 -166t34 -123.5t81 -48.5t60 60z" />
    <glyph glyph-name="g" unicode="g" horiz-adv-x="485" 
d="M514 256q3 -10 -1.5 -17t-10.5 -9l-6 -2q-132 -28 -237 -88q26 -79 35 -164.5t-1 -165.5t-55.5 -131t-123.5 -51q-68 0 -110 40q-39 36 -47 99q-7 66 24.5 141.5t93.5 143.5q54 58 126 105q-10 28 -18 47q-86 -86 -147 -86q-55 0 -65 52q-9 54 33 111q52 70 137 70
q43 0 62 -50q8 -22 -14 -30q-9 -3 -16 0t-9 8l-3 5q-7 22 -20 22q-41 0 -79 -47q-36 -46 -36 -82q0 -14 10 -14q20 0 54 23.5t58 47.5l23 24q2 2 5 3q1 1 2.5 2t2.5 1q8 3 15.5 -0.5t11.5 -8.5l3 -5q17 -27 33 -67q109 61 242 89q22 6 28 -16zM114 -327q51 0 82 42.5t39 109
t2.5 141.5t-23.5 146q-60 -41 -106 -91q-56 -61 -84 -127t-22 -122q11 -99 112 -99z" />
    <glyph glyph-name="h" unicode="h" horiz-adv-x="519" 
d="M533 262q9 -2 12.5 -9.5t2.5 -14.5l-1 -7l-9 -29q-10 -29 -28 -77t-37 -91q-41 -91 -75 -138q-52 -70 -101 -70q-33 0 -52 22q-21 23 -23.5 73t6.5 100q6 62 6 84q-1 36 -10 45q-5 5 -13 5q-35 0 -106 -102q-24 -37 -42 -67q-5 -9 -13 -9t-13 5l-5 4q-31 37 -43 106
t-6.5 147.5t30 161t62.5 148.5t95.5 108.5t123.5 42.5q52 0 83.5 -31.5t34.5 -85.5q3 -50 -22 -111q-24 -58 -73 -112q-54 -58 -125 -94q-72 -36 -156 -48q-9 -105 11 -173q3 5 6.5 10.5t8 12t6.5 10.5q36 51 66 81q43 41 77 41q28 0 46 -20q20 -22 21.5 -68.5t-6.5 -95.5
q-11 -119 6 -138q7 -7 19 -7q27 0 64 51q35 47 71 130q19 42 36.5 90t26.5 75l9 27q0 1 1 2.5t3 5.5t5 6t8.5 4t11.5 0zM294 655q-82 0 -158 -122q-71 -117 -94 -269q148 26 242 126q41 44 63 95.5t20 94.5q-5 75 -73 75z" />
    <glyph glyph-name="i" unicode="i" horiz-adv-x="235" 
d="M71 378q-11 0 -19.5 8.5t-8.5 19.5t8.5 19t19.5 8t19 -8t8 -19t-8 -19.5t-19 -8.5zM251 262q9 -4 12 -11.5t1 -13.5l-1 -6q-19 -55 -59 -123q-77 -131 -156 -131q-60 0 -84.5 40t-17.5 92t21.5 96t26.5 57q1 2 4 3.5t11 3t16 -5.5q5 -4 6 -11t-1 -12l-1 -5
q-23 -60 -21.5 -136.5t40.5 -76.5q54 0 117 108q15 26 29 55t20 45l7 16q0 1 1 2.5t3.5 5.5t5.5 6t8.5 3.5t11.5 -1.5z" />
    <glyph glyph-name="j" unicode="j" horiz-adv-x="297" 
d="M-9 345q-11 0 -19 8t-8 19q0 12 8 20t19 8q12 0 20 -8t8 -20q0 -11 -8 -19t-20 -8zM323 259q5 -9 2.5 -16.5t-5.5 -11t-5 -4.5q-147 -84 -244 -171q8 -61 11 -115.5t-2 -113.5t-20 -101.5t-46.5 -70t-78.5 -27.5q-37 0 -63 21t-36 57q-28 103 79 248q39 54 98 111
q-5 42 -26 173q-3 21 16 26q11 3 18.5 -0.5t9.5 -8.5l2 -5q13 -38 30 -141q93 79 224 154q26 13 36 -4zM-65 -327q118 0 85 335q-38 -38 -69 -80q-44 -60 -63 -115.5t-9 -94.5q12 -45 56 -45z" />
    <glyph glyph-name="k" unicode="k" horiz-adv-x="516" 
d="M530 262q9 -2 12.5 -9.5t2.5 -14.5l-1 -7q-19 -75 -74 -197q-35 -82 -75 -138q-52 -70 -101 -70v0q-94 1 -156 70q-13 15 -23.5 32t-14.5 26t-4 11q-1 1 -1.5 3t-1.5 6.5t0.5 8t6 7t13.5 4.5q61 10 102 57q32 39 29 74q-3 30 -36 30q-35 0 -105 -102q-22 -31 -37 -57
q0 -4 -3 -10q-5 -9 -13 -9t-13 5l-5 4q-31 37 -43 106t-6.5 147.5t30 161t62.5 148.5t95.5 108.5t123.5 42.5q51 0 82.5 -31.5t34.5 -85.5q3 -52 -21 -111q-24 -58 -73 -112q-55 -58 -125 -94q-72 -36 -156 -48q-9 -100 10 -170q6 10 20 30q33 49 65 81q43 41 77 41
q35 0 57 -20q21 -19 24 -50q5 -55 -40 -108q-39 -45 -100 -65q16 -24 24 -32q46 -52 121 -54q27 0 64 51q35 47 71 130q19 42 36.5 90t26.5 75l9 27q0 1 1 2.5t3 5.5t5 6t8.5 4t11.5 0zM294 655q-84 0 -158 -122q-70 -114 -94 -269q148 26 242 126q88 97 82 190
q-1 29 -17 52t-55 23z" />
    <glyph glyph-name="l" unicode="l" horiz-adv-x="402" 
d="M417 261q10 -2 13 -9.5t2 -13.5l-2 -7q-18 -74 -67 -161q-40 -72 -84 -113q-60 -55 -124 -55q-110 0 -153 128q-43 126 -5 303q39 181 136 284q77 81 169 81q51 0 82.5 -31.5t34.5 -85.5q3 -53 -21 -110q-27 -63 -74 -113q-52 -57 -125 -93q-69 -36 -159 -50
q-2 -30 -2 -47q0 -102 31 -162q30 -59 86 -59q88 0 169 145q18 33 34 71t22.5 58t6.5 22q0 1 1 2.5t3 5.5t5.5 6t8.5 4t12 0zM302 653q-34 0 -65 -15.5t-54.5 -42t-39.5 -51t-29 -50.5q-54 -108 -69 -232q152 25 246 127q41 43 63 94t20 96q-1 29 -17 51.5t-55 22.5z" />
    <glyph glyph-name="m" unicode="m" horiz-adv-x="732" 
d="M748 262q9 -2 12.5 -9.5t2.5 -14.5l-1 -7q0 -1 -8 -23.5t-20 -58t-26 -75t-30 -80.5t-28 -68q-35 -82 -75 -138q-51 -70 -100 -70q-30 0 -48 21q-30 31 -31 124q0 52 10 170q11 107 10 165q0 72 -18 92q-6 6 -14 6q-27 0 -58 -69q-18 -42 -55 -169q-12 -44 -19.5 -68.5
t-20 -57t-25.5 -48t-27 -15.5q-24 0 -29 56t3 96q6 62 6 84q-1 36 -10 45q-3 5 -13 5q-35 0 -106 -102q-25 -38 -37 -59q-5 -7 -5 -8q-12 -21 -24 -21t-18 18v3q-14 62 6.5 158t42.5 118q1 2 4 3.5t11 3t16 -5.5q5 -4 6 -11t0 -12l-2 -5q-24 -72 -35 -154q35 51 64 78
q43 41 77 41q28 0 46 -20q20 -22 21.5 -68.5t-6.5 -95.5l-4 -71q24 84 35 125q9 34 14 50.5t14.5 47.5t16 47t16.5 39.5t20 36.5t21.5 26t25 18.5t28.5 5.5q29 0 47 -21q30 -31 30 -122q1 -41 -10 -169q-10 -116 -10 -166q1 -74 19 -94q6 -6 15 -6q26 2 63 52q36 48 71 129
q19 42 46 117t45 128.5t18 54.5t1 2.5t3.5 5.5t5.5 6t8.5 4t11.5 0z" />
    <glyph glyph-name="n" unicode="n" horiz-adv-x="429" 
d="M445 262q19 -5 13 -31q-21 -54 -37 -89q-35 -82 -75 -138q-52 -70 -101 -70q-33 0 -52 22q-21 23 -23.5 73t6.5 100q6 62 6 84q-1 36 -10 45q-3 5 -13 5q-19 0 -44 -23t-48 -57t-36 -55t-20 -34q-12 -21 -24 -21q-14 0 -18 18q-7 42 -1.5 80.5t13 62t12.5 28.5
q1 2 3.5 3.5t9.5 4t13 -2.5q8 -5 10 -13t1 -14l-2 -5q-10 -25 -10 -46q35 51 64 78q43 41 77 41q28 0 46 -20q20 -21 21.5 -68.5t-6.5 -95.5q-11 -119 6 -138q7 -7 19 -7q27 0 64 52q36 48 71 129q12 27 34 84q1 3 3 7t10 9t18 2z" />
    <glyph glyph-name="o" unicode="o" horiz-adv-x="378" 
d="M397 259q9 -5 10.5 -13.5t-1.5 -13.5l-3 -6q-20 -40 -62 -80q-77 -74 -170 -80l-1 -1q-48 -88 -114 -88q-69 0 -95 56.5t-11 127t55 117.5q7 7 18 8q3 6 9 16q34 48 83 48q50 0 76 -41q21 -31 21 -85q0 -55 -20 -110q31 6 60.5 22t48.5 34t33.5 36t21.5 29t7 12
q2 3 4.5 6t11.5 8.5t18 -2.5zM56 22q34 0 63 46q-51 8 -81 41q-18 18 -27 44q-12 -48 -1 -89.5t46 -41.5zM142 110q25 58 25 114q0 39 -14 61q-11 20 -38 20q-25 0 -46 -29q-21 -30 -21 -71t23 -66q24 -26 71 -29z" />
    <glyph glyph-name="p" unicode="p" horiz-adv-x="346" 
d="M222 175q17 -22 17 -56q0 -68 -54 -138q-60 -77 -137 -77q-15 -1 -21 10q-7 -28 -20 -93q-2 -8 -5.5 -35t-7 -45t-9 -39.5t-13.5 -32.5t-17 -11q-19 0 -23.5 22.5t-4.5 76.5v8.5v8.5v9q0 68 11 175q25 216 68 363l2.5 5t9 7t18.5 1q9 -2 12.5 -8.5t1.5 -11.5l-1 -6
q-42 -144 -67 -360q0 -7 -2.5 -34t-3.5 -40q11 61 26 113.5t37.5 103t54.5 80t70 29.5q37 0 58 -25zM149 9q45 56 45 110q0 36 -30 36q-75 0 -130 -209l14 3q54 0 101 60z" />
    <glyph glyph-name="q" unicode="q" horiz-adv-x="394" 
d="M408 262q10 -1 13.5 -10t2.5 -18l-2 -8l-4 -16q-5 -15 -13 -43t-18.5 -62t-24.5 -76.5t-29 -81.5q-45 -122 -89 -194q-59 -98 -117 -98q-40 0 -62 37q-22 41 -19 117q3 72 22 154q22 100 59 194q-59 -39 -90 -39q-55 0 -65 52q-9 54 33 111q52 70 137 70q43 0 62 -50
q8 -21 -14 -30q-9 -3 -16 0t-10 8l-2 5q-7 22 -20 22q-41 0 -79 -47q-36 -46 -36 -82q0 -14 10 -14q28 0 83 44l54 47q2 2 4.5 3.5t11 3t15.5 -5.5q7 -5 8 -12t-1 -11l-3 -5q-59 -106 -97 -274q-40 -181 -8 -238q9 -15 23 -15q32 0 78 76q42 68 86 187q23 60 44.5 128.5
t32 106.5t10.5 40l2.5 7.5t9.5 11.5t18 5z" />
    <glyph glyph-name="r" unicode="r" horiz-adv-x="400" 
d="M413 262q10 -2 13.5 -9.5t2.5 -14.5l-1 -6q-3 -8 -17.5 -60.5t-27.5 -96t-38 -104.5t-51 -103t-63.5 -72t-77.5 -30q-52 0 -82 32.5t-36.5 81t0.5 109t21.5 113.5t32.5 98q-27 -5 -44 -5q-82 -1 -120 64q-30 51 -10 100q19 45 71 45q34 0 51 -27q30 -48 -5 -136
q39 -5 90 18q10 4 20 -1q8 -4 9.5 -13t-1.5 -15l-2 -7q-31 -77 -47.5 -171t-5 -167.5t57.5 -73.5q20 0 41 15t39.5 40t36 57t32.5 68t28 72t23 68.5t17 57.5t11 40l4 15q1 2 2.5 6t8.5 9t17 3zM-10 258q26 66 9 95q-4 6 -13 6q-14 0 -21 -15q-8 -17 -1 -43t26 -43z" />
    <glyph glyph-name="s" unicode="s" horiz-adv-x="316" 
d="M342 259q5 -9 2.5 -16.5t-5.5 -11t-5 -4.5q-174 -99 -284 -208q29 -170 30 -224q4 -140 -84 -162q-19 -5 -41 -5q-37 0 -63.5 21t-36.5 57q-27 105 79 248q19 28 55 67q-11 70 -13 117q-5 109 30 167q1 2 3.5 4t10.5 5.5t17 -3.5q8 -4 10 -11t0 -12l-2 -5
q-26 -61 -4 -210q13 12 41 36q94 79 224 154q26 13 36 -4zM-45 -327q23 0 38 12t20.5 36.5t7.5 48.5t-2 60.5t-7.5 59t-9.5 57.5q-2 12 -3 17q-20 -24 -29 -36q-43 -60 -62.5 -116t-9.5 -94q12 -45 57 -45z" />
    <glyph glyph-name="t" unicode="t" horiz-adv-x="415" 
d="M428 262q10 -2 13.5 -9.5t2.5 -14.5l-1 -6q-23 -90 -78 -199q-44 -86 -95 -139q-68 -68 -141 -68q-60 0 -97.5 35t-52 90.5t-13 132t14.5 153.5t35 160h-111q-23 0 -23 22q0 10 6 15.5t12 6.5l5 1h123q45 155 94 251q1 3 4 6t12 8.5t18 -1.5q8 -4 10 -12t0 -14l-3 -5
q-40 -98 -74 -233h109q23 1 23 -22q0 -10 -5.5 -16t-11.5 -6l-6 -1h-120q-24 -98 -36 -185.5t-12 -167t25 -126.5t74 -47q104 0 196 182q21 42 39.5 90t26.5 73.5t8 27.5q1 2 2.5 6t9 9t17.5 3z" />
    <glyph glyph-name="u" unicode="u" horiz-adv-x="418" 
d="M434 262q9 -4 12 -11.5t2 -13.5l-2 -6q-18 -55 -59 -123q-77 -131 -156 -131q-56 0 -76 45t-14 112q-59 -73 -104 -73q-44 0 -63.5 27t-15.5 63t15 67.5t22 43.5q1 2 3.5 3.5t11 3t16.5 -5.5q5 -4 6 -11t0 -12l-2 -5q-42 -129 7 -129q20 0 50 31t48 57t33 52q2 6 9 16
q1 2 4 3.5t11 3t16 -5.5q5 -4 6.5 -11t-0.5 -12l-1 -5q-23 -60 -22 -136.5t40 -76.5q53 0 117 108q15 26 29 55t21 45l6 16q0 1 1 2.5t3.5 5.5t5.5 6t8.5 3.5t11.5 -1.5z" />
    <glyph glyph-name="v" unicode="v" horiz-adv-x="443" 
d="M462 220q0 -10 -5.5 -16t-10.5 -6l-6 -1q-2 0 -6.5 -0.5t-6.5 -0.5q-54 0 -96 33q-20 16 -58 64q-3 6 -7 10q-12 -40 -28 -82.5t-45.5 -104.5t-68 -100.5t-78.5 -38.5q-55 0 -78 40.5t-17.5 92t18.5 96t24 56.5q1 2 3.5 3.5t11 3t16.5 -5.5q5 -4 6 -11t0 -12l-2 -6
q-23 -59 -21.5 -135.5t39.5 -76.5q37 0 83 78.5t73 156.5l27 78q6 24 33 24q21 0 48 -40q19 -26 30 -38.5t38 -26.5t59 -12q24 1 25 -22z" />
    <glyph glyph-name="w" unicode="w" horiz-adv-x="677" 
d="M696 220q0 -10 -5.5 -16t-10.5 -6l-6 -1q-2 0 -6 -0.5t-7 -0.5q-54 0 -96 33q-24 19 -57 64q-3 4 -7 10q-14 -44 -29 -83.5t-45 -103t-68.5 -101.5t-78.5 -38q-85 0 -94 94q-53 -73 -110 -73q-49 0 -75.5 35.5t-28.5 87t5.5 105t23 93.5t27.5 49q1 2 3.5 3.5t11 3
t16.5 -5.5q5 -4 6 -11t-1 -12l-1 -6q-15 -46 -25.5 -112t-3 -125.5t41.5 -59.5q57 0 129 172q13 38 22 47q1 2 4 3.5t11 3t16 -5.5q5 -4 6 -11t0 -12l-2 -6q-23 -59 -21.5 -135.5t39.5 -76.5q37 0 83 78.5t73 156.5l27 78q6 24 33 24q10 0 19 -6.5t14 -13t15 -20.5
q18 -25 29.5 -38t39 -27t58.5 -12q24 1 25 -22z" />
    <glyph glyph-name="x" unicode="x" horiz-adv-x="420" 
d="M436 262q9 -4 12 -11.5t2 -13.5l-2 -6q-18 -55 -59 -124q-77 -130 -156 -130q-69 0 -99 58q-13 28 -20 71q-32 -27 -41 -36q-35 -34 -35 -48q0 -4 2 -7q16 -16 0 -31q-8 -7 -15.5 -6.5t-12.5 4.5l-5 3q-16 17 -14 41q3 32 49 77q19 18 65 54q-7 63 -26 75q-19 11 -60 -6
q-22 -9 -30 12q-3 11 0 17.5t9 9.5l5 3q63 24 99 2q33 -20 44 -81q44 34 61 50q28 27 32 43q0 2 -2 4q-19 16 0 32q10 7 17 7t12 -4l4 -4q15 -17 14 -39q-1 -15 -11 -31.5t-31 -36t-38.5 -33.5t-49.5 -39h-1q8 -64 23.5 -90t54.5 -26q54 0 117 108q15 26 29 55t21 45l6 16
q0 1 1 2.5t3.5 5.5t5.5 6t8.5 3.5t11.5 -1.5z" />
    <glyph glyph-name="y" unicode="y" horiz-adv-x="489" 
d="M518 256q3 -10 -1.5 -17t-10.5 -9l-6 -2q-132 -28 -237 -88q26 -79 35 -164.5t-1 -165.5t-55.5 -131t-123.5 -51q-68 0 -110 40q-39 36 -47 99q-7 66 24.5 141.5t93.5 143.5q54 58 126 105q-6 20 -17 44q-18 -29 -38 -56.5t-53 -55.5t-60 -28q-44 0 -63.5 27t-15.5 63
t15 67.5t22 43.5q1 2 4 3.5t11 3t16 -5.5q5 -4 6 -11t0 -12l-2 -5q-42 -129 7 -129q46 0 134 144q3 10 14 14q8 3 15.5 -0.5t11.5 -8.5l3 -5q17 -27 33 -67q109 61 242 89q22 6 28 -16zM118 -327q51 0 82 42.5t39 109t2.5 141.5t-23.5 146q-60 -41 -106 -91
q-56 -61 -84 -127t-22 -122q11 -99 112 -99z" />
    <glyph glyph-name="z" unicode="z" horiz-adv-x="436" 
d="M462 259q5 -9 2.5 -16.5t-5.5 -11t-5 -4.5q-138 -78 -241 -169q45 -39 58 -112.5t-5 -143.5t-69 -122t-122 -52q-37 0 -63.5 21t-36.5 57q-13 49 8 114t71 134q34 46 81 93q-33 16 -82 16q-22 -2 -23 20q0 10 4.5 16t9.5 7l5 2q56 9 92 38q31 23 41 54q7 27 -7 39
q-14 13 -50 13q-46 0 -108 -25q-19 -9 -28 12q-4 11 -1 17.5t8 9.5l5 3q69 28 124 28q52 2 80 -25q36 -33 20 -84q-13 -45 -56 -77q-13 -11 -27 -18l6 -3q9 -1 25 -7q9 9 29 25q97 82 224 155q26 13 36 -4zM180 12q-2 3 -8 9q-44 -43 -82 -94q-44 -59 -62.5 -115t-8.5 -94
q11 -45 56 -45q56 0 99 67q44 68 44 153q0 74 -38 119z" />
    <glyph glyph-name="braceleft" unicode="{" horiz-adv-x="331" 
d="M302 696q11 -18 -7 -29q-6 -4 -8 -5t-4 -3v0q-2 -2 -7 -6.5t-8 -6.5q-1 -1 -6 -6.5t-7 -9.5l-1 -1l-3 -3l-6 -9q-13 -22 -28 -49l-12 -27l-2 -4q-1 -3 -3 -7q-4 -11 -5 -14q-21 -53 -43 -125q-28 -87 -41 -121q-23 -62 -43 -94q5 -24 11 -76q1 -11 3.5 -31t4.5 -31
q1 -3 1 -8.5t1 -8.5q0 -1 0.5 -3.5t0.5 -3.5q0 -4 1 -5q2 -20 4 -31q14 -86 26 -129q12 -38 20 -56q0 -3 3 -6q0 -4 3 -7q4 -8 6 -13q7 -13 14 -25l9 -12l1 -2q1 -2 2 -2l2 -3q12 -14 19 -21q2 -2 5.5 -5t5.5 -4l2 -2q2 -1 5 -4q16 -10 24 -14q7 -4 9.5 -13t-2.5 -16
q-10 -16 -28 -7q-83 42 -126 157q-29 77 -52 258q-2 23 -8 61v3v1q0 1 -0.5 3t-0.5 4t-1 6.5t-1 6.5q0 5 -2 14t-2 13q-4 20 0 27l6 9q2 3 6 10.5t6 11.5q8 16 11 24l2 4q1 1 1 3t1 3q4 8 5 13q16 42 42.5 125t40.5 120q29 74 52 112q35 55 73 77q8 4 16 2t12 -9z" />
    <glyph glyph-name="bar" unicode="|" horiz-adv-x="135" 
d="M89 706q8 0 14.5 -6.5t6.5 -14.5v-1q-1 -19 -3 -59l-6 -138q-2 -31 -4.5 -92.5t-3.5 -91.5l-9 -198q-1 -30 -3.5 -90.5t-4.5 -90.5l-6 -132q0 -8 -1 -25t-1 -26q-2 -21 -21 -21q-9 0 -15.5 6t-5.5 15l3 60l6 138q2 58 8 184l9 198q2 63 8 181l6 132q0 17 2 51q0 8 6 14.5
t15 6.5z" />
    <glyph glyph-name="braceright" unicode="}" horiz-adv-x="331" 
d="M303 176q2 -22 -1 -26q-2 -4 -6 -10q-8 -14 -12 -22q-2 -4 -5.5 -12t-5.5 -12l-1 -2v-2l-3 -6q-1 -2 -2.5 -6.5t-2.5 -6.5q-16 -42 -42.5 -125t-40.5 -120q-26 -71 -52 -112q-35 -55 -72 -77q-8 -4 -16 -2t-13 10q-4 7 -2 15.5t9 12.5l9 6q1 0 3 2v0q2 2 7 6.5t8 6.5
q1 1 13 16l1 1q2 2 3 4q2 2 6 8q20 32 28 49l12 27q2 4 2 5l3 6q4 10 6 14q16 41 42 125q28 87 41 121q22 59 43 95q-8 50 -11 75q-2 24 -8 62q0 5 -2 17q0 5 -1 8v5q-1 5 -2.5 15.5t-2.5 15.5q-10 72 -26 128q-12 38 -20 57l-1 2q-1 2 -1 3q-1 3 -3 7q-6 11 -7 13
q-7 13 -14 25q-6 8 -8 12q-1 1 -3 4l-3 3q-6 8 -19 21q-3 3 -11 9q0 2 -2 2q-1 1 -2.5 2t-2.5 2q-12 9 -24 14q-7 4 -9.5 13t2.5 16q10 16 29 7q81 -41 125 -157q29 -77 52 -258q1 -10 3.5 -30.5t4.5 -30.5v-3v-1q1 -2 1 -7q2 -8 2 -13q1 -5 2.5 -14t2.5 -13z" />
    <glyph glyph-name="asciitilde" unicode="~" horiz-adv-x="389" 
d="M361 223q10 -16 -7 -29q-38 -24 -80 -21q-18 1 -36.5 5.5t-44 14t-35.5 12.5t-28 7q-2 0 -3 1h-7h-2h-13h-6q-2 0 -3 -1q-4 -1 -14 -3q0 -1 -2 -1t-2 -1h-2q-1 -1 -5 -3q-12 -8 -14 -9q-17 -10 -29 8q-10 16 8 29q37 26 80 23q18 0 36 -4.5t44.5 -14.5t34.5 -12
q18 -6 28 -7q2 -1 6 -1q1 -1 4 -1h14h8h2q3 1 7 2t7 1q1 0 3.5 1t4.5 2h1l2 2q7 3 14 8q8 4 16.5 2t12.5 -10zM316 222z" />
    <glyph glyph-name="brokenbar" unicode="&#xa6;" horiz-adv-x="135" 
d="M94 335h-42q2 28 4.5 83.5t3.5 83.5l6 132q0 17 2 51q0 8 6 14.5t15 6.5q8 0 14.5 -6.5t6.5 -14.5l-3 -60l-6 -138q-4 -103 -7 -152zM42 101h42q-2 -29 -4.5 -88t-3.5 -89l-6 -132q0 -8 -1 -25t-1 -26q-2 -21 -21 -21q-8 0 -15 6.5t-6 14.5l3 60l6 138q1 27 3.5 81
t3.5 81z" />
    <glyph glyph-name="dieresis" unicode="&#xa8;" horiz-adv-x="167" 
d="M142 421q0 -11 -7.5 -18.5t-18.5 -7.5q-10 0 -18 7.5t-8 18.5t7.5 18.5t18.5 7.5t18.5 -7.5t7.5 -18.5zM77 421q0 -11 -7.5 -18.5t-18.5 -7.5t-18.5 7.5t-7.5 18.5t7.5 18.5t18.5 7.5t18.5 -7.5t7.5 -18.5z" />
    <glyph glyph-name="guillemotleft" unicode="&#xab;" horiz-adv-x="493" 
d="M461 486q13 -13 0 -30q-10 -12 -15 -17q-18 -23 -55.5 -68t-55.5 -68q-42 -52 -64 -78q11 -14 33.5 -40t34.5 -40q14 -17 43.5 -51.5t43.5 -51.5q12 -16 0 -30q-17 -15 -30 0q-13 16 -39.5 47.5t-40.5 47.5q-15 17 -44 51.5t-43 51.5q-12 15 0 30q10 12 14 17
q7 8 112 136q12 15 37.5 46t38.5 47q6 6 15 6t15 -6zM263 486q13 -13 0 -30q-10 -12 -15 -17q-18 -23 -55 -68t-56 -68q-42 -52 -64 -78q11 -14 33.5 -40t34.5 -40q15 -17 44 -51.5t43 -51.5q12 -16 0 -30q-17 -15 -30 0q-14 16 -40.5 47.5t-39.5 47.5q-15 17 -43.5 51.5
t-43.5 51.5q-12 15 0 30q10 12 14 17q7 8 112 136q13 15 38.5 46t37.5 47q6 6 15 6t15 -6z" />
    <glyph glyph-name="plusminus" unicode="&#xb1;" 
d="M37 254q-12 0 -12 21t12 21h1h72h28v42v59q0 12 21 12t21 -12v-1v-71v-29h43h59q5 0 8.5 -6.5t3.5 -14.5q0 -21 -12 -21h-2h-71h-29v-42v-59q0 -13 -21 -13t-21 13v1v71v29h-42h-59zM282 112q5 0 8.5 -6.5t3.5 -14.5q0 -21 -12 -21h-2h-71h-113h-59q-12 0 -12 21t12 21h1
h72h113h59z" />
    <glyph glyph-name="acute" unicode="&#xb4;" horiz-adv-x="116" 
d="M83 459q14 -5 5 -20q-4 -6 -32 -52q-9 -13 -23 -8q-6 2 -7 8.5t2 10.5q28 46 32 52q9 14 23 9z" />
    <glyph glyph-name="periodcentered" unicode="&#xb7;" horiz-adv-x="122" 
d="M97 281q0 -15 -10.5 -25.5t-25.5 -10.5t-25.5 10.5t-10.5 25.5t10.5 25.5t25.5 10.5t25.5 -10.5t10.5 -25.5z" />
    <glyph glyph-name="cedilla" unicode="&#xb8;" horiz-adv-x="127" 
d="M94 -16q14 -5 5 -20q-4 -6 -19 -30q17 -9 17 -30q0 -15 -10.5 -25.5t-25.5 -10.5t-25.5 10.5t-10.5 25.5v1q0 11 10 11l10 -11v-1q0 -16 16 -16t16 16q0 14 -14 16q-3 -1 -9 1t-7 8.5t2 10.5q11 18 22 35q7 15 23 9z" />
    <glyph glyph-name="guillemotright" unicode="&#xbb;" horiz-adv-x="435" 
d="M172 12q-13 13 0 30q10 12 15 17q19 23 55.5 68t55.5 68q10 13 31.5 39t32.5 39q-12 13 -34.5 39.5t-33.5 40.5q-14 17 -43 51.5t-44 51.5q-12 16 0 30q17 15 30 0q13 -16 39.5 -47.5t40.5 -47.5q15 -17 44 -51.5t43 -51.5q12 -15 0 -30q-10 -12 -14 -17
q-18 -22 -55.5 -67.5t-56.5 -68.5q-13 -16 -38 -47t-38 -46q-6 -6 -15 -6t-15 6zM32 12q-13 13 0 30q10 12 15 17q19 23 55.5 68t55.5 68q10 13 32 39t32 39q-12 13 -34.5 39.5t-33.5 40.5q-15 17 -44 51.5t-43 51.5q-12 16 0 30q17 15 30 0q14 -16 40 -47.5t40 -47.5
q14 -17 43.5 -51.5t43.5 -51.5q12 -15 0 -30q-10 -12 -14 -17q-19 -22 -56.5 -67.5t-55.5 -68.5q-13 -15 -38.5 -46t-37.5 -47q-6 -6 -15 -6t-15 6z" />
    <glyph glyph-name="questiondown" unicode="&#xbf;" horiz-adv-x="694" 
d="M97 -213q0 15 -10.5 25.5t-25.5 10.5t-25.5 -10.5t-10.5 -25.5t10.5 -25.5t25.5 -10.5t25.5 10.5t10.5 25.5zM279 506q0 -11 -8.5 -19.5t-19.5 -8.5q-12 0 -20 8.5t-8 19.5q-2 46 13 84q11 27 23 43q16 23 40 41q43 33 114 45q74 12 134 1q43 -8 73 -34q53 -45 48 -135
q-6 -81 -54 -183q-41 -91 -112 -188q-73 -101 -149 -174q-43 -41 -80 -69q-40 -30 -74 -47q-25 -13 -38 10q-6 9 -3 21t13 17q33 17 61 38q6 4 16 12l3 3q1 1 3.5 3t4.5 3q22 18 32 28q46 42 76 75q24 28 36 43q12 14 18 22q1 2 4 5.5t5 5.5t2 3q-4 -5 -3.5 -4.5l2.5 2.5
q2 4 4 5q70 91 118 188q4 8 22 46l2 4l-3 -5q0 1 1 2q2 4 3 5q2 8 4 11q1 4 3.5 11.5t4.5 11.5q16 48 21 83q-1 -2 -1 -7q4 35 1 60q0 -5 1 -8q-4 20 -7 29l-2 4v1q1 -3 1 -4q-1 3 -3 7q-3 7 -8 13q0 1 -1 2l2 -2l1 -2q-2 2 -2 3l-5 5q-4 4 -6 5l-3 3l2 -2q-8 6 -13 8
q-4 3 -8 4l2 -1q0 1 -1 1t-2 1q-18 6 -38 9q3 -1 8 -1q-42 5 -100 -2q1 0 4 0.5t4 0.5q-36 -5 -66 -16q-1 0 -3.5 -1t-3.5 -2l1 1h1h-1q-1 -1 -2 -1l-12 -6q-14 -8 -21 -13l-2 -2l1 1q1 1 3 2q0 -1 -1 -1t-2 -1q-2 -2 -4 -3l-8 -8q-2 -2 -4.5 -5t-3.5 -4q-2 -2 -3 -4
q1 1 2 3l-2 -2q-8 -12 -11 -18l-5 -10l1 2q-1 -1 -1 -2.5t-1 -2.5q-8 -26 -9 -40q0 5 1 8q-2 -12 -2 -35z" />
    <glyph glyph-name="Agrave" unicode="&#xc0;" horiz-adv-x="1277" 
d="M1294 262q9 -4 11.5 -12t0.5 -14l-2 -7q-45 -89 -65 -122q-82 -130 -150 -130q-41 0 -60 34q-23 43 -4 125l6 24q-59 -42 -96 -42q-34 0 -50.5 20t-15.5 53q-38 -44 -59 -68q-123 -146 -205 -210q-134 -106 -278 -106q-137 0 -221 109q-8 11 -15.5 23t-13 22t-10 20
t-7.5 17.5t-5 13.5t-3 10l-1 3q-6 18 15 26q11 3 17.5 0t8.5 -9l3 -5q0 -2 4 -14t16 -36t28 -45q69 -90 184 -90q56 0 111 19.5t95 44t90 72t77.5 77.5t75.5 87q110 129 163 166q45 33 101 33q43 0 62 -50q8 -22 -14 -30q-9 -3 -16 0t-10 8l-2 5q-7 22 -20 22q-41 0 -79 -47
q-36 -46 -36 -82q0 -14 10 -14q27 0 83 44l54 47q2 2 4.5 3.5t11 3t15.5 -5.5q7 -5 8 -12t-1 -11l-3 -5q-24 -39 -38.5 -103t-0.5 -91q7 -11 21 -11q43 0 112 108q16 25 31.5 54.5t23.5 45.5l7 17q1 3 3.5 6.5t10.5 8t17 0.5zM1039 423q-14 -5 -22 8q-11 18 -33 52
q-9 15 5 20q16 6 23 -9q22 -34 32 -52q4 -4 2.5 -10.5t-7.5 -8.5z" />
    <glyph glyph-name="Aacute" unicode="&#xc1;" horiz-adv-x="1277" 
d="M1294 262q9 -4 11.5 -12t0.5 -14l-2 -7q-45 -89 -65 -122q-82 -130 -150 -130q-41 0 -60 34q-23 43 -4 125l6 24q-59 -42 -96 -42q-34 0 -50.5 20t-15.5 53q-38 -44 -59 -68q-123 -146 -205 -210q-134 -106 -278 -106q-137 0 -221 109q-8 11 -15.5 23t-13 22t-10 20
t-7.5 17.5t-5 13.5t-3 10l-1 3q-6 18 15 26q11 3 17.5 0t8.5 -9l3 -5q0 -2 4 -14t16 -36t28 -45q69 -90 184 -90q56 0 111 19.5t95 44t90 72t77.5 77.5t75.5 87q110 129 163 166q45 33 101 33q43 0 62 -50q8 -22 -14 -30q-9 -3 -16 0t-10 8l-2 5q-7 22 -20 22q-41 0 -79 -47
q-36 -46 -36 -82q0 -14 10 -14q27 0 83 44l54 47q2 2 4.5 3.5t11 3t15.5 -5.5q7 -5 8 -12t-1 -11l-3 -5q-24 -39 -38.5 -103t-0.5 -91q7 -11 21 -11q43 0 112 108q16 25 31.5 54.5t23.5 45.5l7 17q1 3 3.5 6.5t10.5 8t17 0.5zM1079 503q14 -5 5 -20q-4 -6 -32 -52
q-9 -13 -23 -8q-6 2 -7 8.5t2 10.5q28 46 32 52q9 14 23 9z" />
    <glyph glyph-name="Acircumflex" unicode="&#xc2;" horiz-adv-x="1277" 
d="M1294 262q9 -4 11.5 -12t0.5 -14l-2 -7q-45 -89 -65 -122q-82 -130 -150 -130q-41 0 -60 34q-23 43 -4 125l6 24q-59 -42 -96 -42q-34 0 -50.5 20t-15.5 53q-38 -44 -59 -68q-123 -146 -205 -210q-134 -106 -278 -106q-137 0 -221 109q-8 11 -15.5 23t-13 22t-10 20
t-7.5 17.5t-5 13.5t-3 10l-1 3q-6 18 15 26q11 3 17.5 0t8.5 -9l3 -5q0 -2 4 -14t16 -36t28 -45q69 -90 184 -90q56 0 111 19.5t95 44t90 72t77.5 77.5t75.5 87q110 129 163 166q45 33 101 33q43 0 62 -50q8 -22 -14 -30q-9 -3 -16 0t-10 8l-2 5q-7 22 -20 22q-41 0 -79 -47
q-36 -46 -36 -82q0 -14 10 -14q27 0 83 44l54 47q2 2 4.5 3.5t11 3t15.5 -5.5q7 -5 8 -12t-1 -11l-3 -5q-24 -39 -38.5 -103t-0.5 -91q7 -11 21 -11q43 0 112 108q16 25 31.5 54.5t23.5 45.5l7 17q1 3 3.5 6.5t10.5 8t17 0.5zM1093 459q4 -4 2.5 -10.5t-7.5 -8.5
q-14 -5 -22 8q-11 17 -23 37q-4 -6 -11.5 -18.5t-11.5 -18.5q-8 -14 -23 -8q-6 2 -7 8.5t2 10.5q11 18 33 52q5 10 18 10t18 -10q22 -34 32 -52z" />
    <glyph glyph-name="Atilde" unicode="&#xc3;" horiz-adv-x="1277" 
d="M1294 262q9 -4 11.5 -12t0.5 -14l-2 -7q-45 -89 -65 -122q-82 -130 -150 -130q-41 0 -60 34q-23 43 -4 125l6 24q-59 -42 -96 -42q-34 0 -50.5 20t-15.5 53q-38 -44 -59 -68q-123 -146 -205 -210q-134 -106 -278 -106q-137 0 -221 109q-8 11 -15.5 23t-13 22t-10 20
t-7.5 17.5t-5 13.5t-3 10l-1 3q-6 18 15 26q11 3 17.5 0t8.5 -9l3 -5q0 -2 4 -14t16 -36t28 -45q69 -90 184 -90q56 0 111 19.5t95 44t90 72t77.5 77.5t75.5 87q110 129 163 166q45 33 101 33q43 0 62 -50q8 -22 -14 -30q-9 -3 -16 0t-10 8l-2 5q-7 22 -20 22q-41 0 -79 -47
q-36 -46 -36 -82q0 -14 10 -14q27 0 83 44l54 47q2 2 4.5 3.5t11 3t15.5 -5.5q7 -5 8 -12t-1 -11l-3 -5q-24 -39 -38.5 -103t-0.5 -91q7 -11 21 -11q43 0 112 108q16 25 31.5 54.5t23.5 45.5l7 17q1 3 3.5 6.5t10.5 8t17 0.5zM1090 440q3 -14 -13 -20q-23 -11 -57 6
q-8 4 -12 5q-4 2 -7 2q0 1 -2 1q-3 0 -4 1q-1 -1 -4 -1h-1q-1 0 -1 -1q-1 0 -3 -1l-2 -1q-14 -9 -22 3q-7 10 7 21q16 10 35 10q12 -1 27 -8q3 -1 11 -5t12 -5l1 -1h2h1h5h4l4 2q5 2 11.5 0t7.5 -8z" />
    <glyph glyph-name="Adieresis" unicode="&#xc4;" horiz-adv-x="1277" 
d="M1294 262q9 -4 11.5 -12t0.5 -14l-2 -7q-45 -89 -65 -122q-82 -130 -150 -130q-41 0 -60 34q-23 43 -4 125l6 24q-59 -42 -96 -42q-34 0 -50.5 20t-15.5 53q-38 -44 -59 -68q-123 -146 -205 -210q-134 -106 -278 -106q-137 0 -221 109q-8 11 -15.5 23t-13 22t-10 20
t-7.5 17.5t-5 13.5t-3 10l-1 3q-6 18 15 26q11 3 17.5 0t8.5 -9l3 -5q0 -2 4 -14t16 -36t28 -45q69 -90 184 -90q56 0 111 19.5t95 44t90 72t77.5 77.5t75.5 87q110 129 163 166q45 33 101 33q43 0 62 -50q8 -22 -14 -30q-9 -3 -16 0t-10 8l-2 5q-7 22 -20 22q-41 0 -79 -47
q-36 -46 -36 -82q0 -14 10 -14q27 0 83 44l54 47q2 2 4.5 3.5t11 3t15.5 -5.5q7 -5 8 -12t-1 -11l-3 -5q-24 -39 -38.5 -103t-0.5 -91q7 -11 21 -11q43 0 112 108q16 25 31.5 54.5t23.5 45.5l7 17q1 3 3.5 6.5t10.5 8t17 0.5zM1089 450q0 -11 -7.5 -18.5t-18.5 -7.5t-18.5 8
t-7.5 18q0 11 7.5 18.5t18.5 7.5t18.5 -7.5t7.5 -18.5zM1024 450q0 -10 -8 -18t-18 -8t-18 8t-8 18q0 11 7.5 18.5t18.5 7.5t18.5 -7.5t7.5 -18.5z" />
    <glyph glyph-name="Aring" unicode="&#xc5;" horiz-adv-x="1277" 
d="M1294 262q9 -4 11.5 -12t0.5 -14l-2 -7q-45 -89 -65 -122q-82 -130 -150 -130q-41 0 -60 34q-23 43 -4 125l6 24q-59 -42 -96 -42q-34 0 -50.5 20t-15.5 53q-38 -44 -59 -68q-123 -146 -205 -210q-134 -106 -278 -106q-137 0 -221 109q-8 11 -15.5 23t-13 22t-10 20
t-7.5 17.5t-5 13.5t-3 10l-1 3q-6 18 15 26q11 3 17.5 0t8.5 -9l3 -5q0 -2 4 -14t16 -36t28 -45q69 -90 184 -90q56 0 111 19.5t95 44t90 72t77.5 77.5t75.5 87q110 129 163 166q45 33 101 33q43 0 62 -50q8 -22 -14 -30q-9 -3 -16 0t-10 8l-2 5q-7 22 -20 22q-41 0 -79 -47
q-36 -46 -36 -82q0 -14 10 -14q27 0 83 44l54 47q2 2 4.5 3.5t11 3t15.5 -5.5q7 -5 8 -12t-1 -11l-3 -5q-24 -39 -38.5 -103t-0.5 -91q7 -11 21 -11q43 0 112 108q16 25 31.5 54.5t23.5 45.5l7 17q1 3 3.5 6.5t10.5 8t17 0.5zM1036 414q-15 0 -25.5 10.5t-10.5 25.5
t10.5 25.5t25.5 10.5t25.5 -10.5t10.5 -25.5t-10.5 -25.5t-25.5 -10.5zM1036 466q-16 0 -16 -16t16 -16t16 16t-16 16z" />
    <glyph glyph-name="AE" unicode="&#xc6;" horiz-adv-x="2335" 
d="M2284 303q6 -20 -16 -25q-10 -2 -17 1.5t-9 8.5l-1 4q-13 48 -49 94q-70 91 -184 91q-47 0 -95 -19t-84 -43.5t-82.5 -71t-71.5 -76.5t-71 -86q-37 -45 -53.5 -64.5t-48 -53t-51.5 -47.5t-46.5 -26.5t-50.5 -12.5q-95 0 -123 83q-24 76 16 165q38 87 110 114q25 10 51 10
q34 0 48 -29q20 -41 -16 -85q-24 -30 -61 -42q-21 -7 -50 -7q-17 0 -27 2q-13 -44 -13 -79q0 -40 16 -64q16 -23 49 -23q22 0 46.5 13.5t56.5 46t52 55.5t60 72q115 144 191 208q124 105 248 105q138 0 221 -110q18 -24 32 -51t18.5 -41t4.5 -17zM1408 304q-43 0 -81 -62
q-1 -2 -3 -5.5t-3 -5.5q57 -3 84 32q6 7 9.5 17t2 17t-8.5 7zM1294 262q9 -4 11.5 -12t0.5 -14l-2 -7q-45 -89 -65 -122q-82 -130 -150 -130q-41 0 -60 34q-23 43 -4 125l6 24q-59 -42 -96 -42q-34 0 -50.5 20t-15.5 53q-38 -44 -59 -68q-123 -146 -205 -210
q-134 -106 -278 -106q-137 0 -221 109q-8 11 -15.5 23t-13 22t-10 20t-7.5 17.5t-5 13.5t-3 10l-1 3q-6 18 15 26q11 3 17.5 0t8.5 -9l3 -5q0 -2 4 -14t16 -36t28 -45q69 -90 184 -90q56 0 111 19.5t95 44t90 72t77.5 77.5t75.5 87q110 129 163 166q45 33 101 33
q43 0 62 -50q8 -22 -14 -30q-9 -3 -16 0t-10 8l-2 5q-7 22 -20 22q-41 0 -79 -47q-36 -46 -36 -82q0 -14 10 -14q27 0 83 44l54 47q2 2 4.5 3.5t11 3t15.5 -5.5q7 -5 8 -12t-1 -11l-3 -5q-24 -39 -38.5 -103t-0.5 -91q7 -11 21 -11q43 0 112 108q16 25 31.5 54.5t23.5 45.5
l7 17q1 3 3.5 6.5t10.5 8t17 0.5z" />
    <glyph glyph-name="Ccedilla" unicode="&#xc7;" horiz-adv-x="1248" 
d="M1266 259q8 -5 10 -12.5t0 -12.5l-2 -5q-1 -4 -15.5 -27.5t-43.5 -62.5t-64 -74.5t-82.5 -61.5t-93.5 -26v0v0q-80 0 -111 57t-15 134q-19 -21 -39 -45q-129 -151 -205 -210q-135 -106 -278 -106q-139 0 -221 110q-18 24 -32 50.5t-18.5 40.5t-4.5 17q-6 18 15 26
q11 3 17.5 0t8.5 -9l2 -5l2 -5q2 -6 5.5 -15.5t9 -21t14 -26t18.5 -27.5q69 -90 184 -90q46 0 90.5 11.5t86 36t74 48.5t72.5 65t63.5 67t62.5 72q103 122 157 161q44 36 96 36q44 0 57 -38q9 -28 -3 -62q-13 -35 -35 -51q-19 -14 -33 2q-6 9 -4.5 16t5.5 12l4 5
q13 10 20.5 30.5t2.5 32.5q-3 8 -14 8q-44 0 -82 -62q-38 -64 -38 -133q0 -41 17 -64q16 -23 49 -23q20 0 42 8t41.5 21t39.5 30t37 36t32 37.5t27.5 35.5t21 30t13.5 21l5 8q1 2 3.5 5t11 7.5t17.5 -2.5zM977 0q14 -5 5 -20q-4 -6 -19 -30q17 -9 17 -30q0 -15 -10.5 -25.5
t-25.5 -10.5t-25.5 10.5t-10.5 25.5v1q0 11 10 11l10 -11v-1q0 -16 16 -16t16 16q0 14 -14 16q-3 -1 -9 1t-7 8.5t2 10.5q11 18 22 35q7 15 23 9z" />
    <glyph glyph-name="Egrave" unicode="&#xc8;" horiz-adv-x="1448" 
d="M1466 259q8 -5 10 -12.5t0 -12.5l-2 -5q-1 -4 -15.5 -27.5t-43.5 -62.5t-64 -74.5t-82.5 -61.5t-93.5 -26v0v0q-44 0 -74.5 19t-43 50t-14 69t11.5 76q-54 0 -123 -42q-49 -30 -158 -121q-63 -54 -100.5 -83t-99 -68.5t-122.5 -58t-125 -18.5q-137 0 -221 110
q-18 24 -32 51t-18.5 41t-4.5 17q-6 18 16 26q10 4 16.5 0.5t8.5 -9.5l2 -5l2 -5q2 -6 5.5 -15.5t9 -21t14 -26t18.5 -27.5q70 -91 184 -91q47 0 95.5 14t84.5 30.5t85 51.5t75.5 56.5t77.5 64.5q45 38 67 56t62 46.5t67 41.5t62.5 22.5t68.5 7.5q25 50 66.5 81.5t90.5 31.5
q35 0 47 -29q20 -40 -15 -85q-24 -30 -61 -42q-22 -7 -51 -7q-17 0 -26 2q-14 -42 -14 -79q0 -41 17 -64q16 -23 49 -23q20 0 42 8t41.5 21t39.5 30t37 36t32 37.5t27.5 35.5t21 30t13.5 21l5 8q1 2 3.5 5t11 7.5t17.5 -2.5zM1229 304q-44 0 -82 -62q-1 -2 -3 -5.5t-3 -5.5
q57 -3 84 32q6 7 9.5 17t2 17t-7.5 7zM1241 422q-14 -5 -22 8q-11 18 -33 52q-9 15 5 20q16 6 23 -9q22 -34 32 -52q4 -4 2.5 -10.5t-7.5 -8.5z" />
    <glyph glyph-name="Eacute" unicode="&#xc9;" horiz-adv-x="1448" 
d="M1466 259q8 -5 10 -12.5t0 -12.5l-2 -5q-1 -4 -15.5 -27.5t-43.5 -62.5t-64 -74.5t-82.5 -61.5t-93.5 -26v0v0q-44 0 -74.5 19t-43 50t-14 69t11.5 76q-54 0 -123 -42q-49 -30 -158 -121q-63 -54 -100.5 -83t-99 -68.5t-122.5 -58t-125 -18.5q-137 0 -221 110
q-18 24 -32 51t-18.5 41t-4.5 17q-6 18 16 26q10 4 16.5 0.5t8.5 -9.5l2 -5l2 -5q2 -6 5.5 -15.5t9 -21t14 -26t18.5 -27.5q70 -91 184 -91q47 0 95.5 14t84.5 30.5t85 51.5t75.5 56.5t77.5 64.5q45 38 67 56t62 46.5t67 41.5t62.5 22.5t68.5 7.5q25 50 66.5 81.5t90.5 31.5
q35 0 47 -29q20 -40 -15 -85q-24 -30 -61 -42q-22 -7 -51 -7q-17 0 -26 2q-14 -42 -14 -79q0 -41 17 -64q16 -23 49 -23q20 0 42 8t41.5 21t39.5 30t37 36t32 37.5t27.5 35.5t21 30t13.5 21l5 8q1 2 3.5 5t11 7.5t17.5 -2.5zM1229 304q-44 0 -82 -62q-1 -2 -3 -5.5t-3 -5.5
q57 -3 84 32q6 7 9.5 17t2 17t-7.5 7zM1261 491q14 -5 5 -20q-4 -6 -32 -52q-9 -13 -23 -8q-6 2 -7 8.5t2 10.5q28 46 32 52q9 14 23 9z" />
    <glyph glyph-name="Ecircumflex" unicode="&#xca;" horiz-adv-x="1448" 
d="M1466 259q8 -5 10 -12.5t0 -12.5l-2 -5q-1 -4 -15.5 -27.5t-43.5 -62.5t-64 -74.5t-82.5 -61.5t-93.5 -26v0v0q-44 0 -74.5 19t-43 50t-14 69t11.5 76q-54 0 -123 -42q-49 -30 -158 -121q-63 -54 -100.5 -83t-99 -68.5t-122.5 -58t-125 -18.5q-137 0 -221 110
q-18 24 -32 51t-18.5 41t-4.5 17q-6 18 16 26q10 4 16.5 0.5t8.5 -9.5l2 -5l2 -5q2 -6 5.5 -15.5t9 -21t14 -26t18.5 -27.5q70 -91 184 -91q47 0 95.5 14t84.5 30.5t85 51.5t75.5 56.5t77.5 64.5q45 38 67 56t62 46.5t67 41.5t62.5 22.5t68.5 7.5q25 50 66.5 81.5t90.5 31.5
q35 0 47 -29q20 -40 -15 -85q-24 -30 -61 -42q-22 -7 -51 -7q-17 0 -26 2q-14 -42 -14 -79q0 -41 17 -64q16 -23 49 -23q20 0 42 8t41.5 21t39.5 30t37 36t32 37.5t27.5 35.5t21 30t13.5 21l5 8q1 2 3.5 5t11 7.5t17.5 -2.5zM1229 304q-44 0 -82 -62q-1 -2 -3 -5.5t-3 -5.5
q57 -3 84 32q6 7 9.5 17t2 17t-7.5 7zM1265 439q4 -4 2.5 -10.5t-7.5 -8.5q-14 -5 -22 8q-11 17 -23 37q-4 -6 -11.5 -18.5t-11.5 -18.5q-8 -14 -23 -8q-6 2 -7 8.5t2 10.5q11 18 33 52q5 10 18 10t18 -10q22 -34 32 -52z" />
    <glyph glyph-name="Edieresis" unicode="&#xcb;" horiz-adv-x="1448" 
d="M1466 259q8 -5 10 -12.5t0 -12.5l-2 -5q-1 -4 -15.5 -27.5t-43.5 -62.5t-64 -74.5t-82.5 -61.5t-93.5 -26v0v0q-44 0 -74.5 19t-43 50t-14 69t11.5 76q-54 0 -123 -42q-49 -30 -158 -121q-63 -54 -100.5 -83t-99 -68.5t-122.5 -58t-125 -18.5q-137 0 -221 110
q-18 24 -32 51t-18.5 41t-4.5 17q-6 18 16 26q10 4 16.5 0.5t8.5 -9.5l2 -5l2 -5q2 -6 5.5 -15.5t9 -21t14 -26t18.5 -27.5q70 -91 184 -91q47 0 95.5 14t84.5 30.5t85 51.5t75.5 56.5t77.5 64.5q45 38 67 56t62 46.5t67 41.5t62.5 22.5t68.5 7.5q25 50 66.5 81.5t90.5 31.5
q35 0 47 -29q20 -40 -15 -85q-24 -30 -61 -42q-22 -7 -51 -7q-17 0 -26 2q-14 -42 -14 -79q0 -41 17 -64q16 -23 49 -23q20 0 42 8t41.5 21t39.5 30t37 36t32 37.5t27.5 35.5t21 30t13.5 21l5 8q1 2 3.5 5t11 7.5t17.5 -2.5zM1229 304q-44 0 -82 -62q-1 -2 -3 -5.5t-3 -5.5
q57 -3 84 32q6 7 9.5 17t2 17t-7.5 7zM1267 447q0 -11 -7.5 -18.5t-18.5 -7.5t-18.5 7.5t-7.5 18.5t7.5 18.5t18.5 7.5t18.5 -7.5t7.5 -18.5zM1202 447q0 -11 -8 -18.5t-18 -7.5t-18 7.5t-8 18.5t7.5 18.5t18.5 7.5t18.5 -7.5t7.5 -18.5z" />
    <glyph glyph-name="Igrave" unicode="&#xcc;" horiz-adv-x="1195" 
d="M1211 262q9 -4 12 -11.5t1 -13.5l-1 -6q-19 -55 -59 -123q-78 -131 -156 -131q-48 0 -74 26.5t-27 64.5t5 79q-91 -95 -162 -154q-231 -193 -423 -193q-136 0 -220 110q-8 11 -15.5 23t-13 22t-10 20t-8 17.5t-5.5 13.5t-3 10l-1 3q-4 23 18 27q9 2 15.5 -2t8.5 -8l2 -5
q0 -2 4 -14t16 -36t28 -45q70 -91 184 -91q176 0 394 182q111 94 233 235q13 13 31 1q5 -4 6 -11t-1 -12l-1 -5q-23 -60 -21.5 -136.5t40.5 -76.5q53 0 117 108q15 26 29 55t20 45l7 16q0 1 1 2.5t3.5 5.5t5.5 6t8.5 3.5t11.5 -1.5zM1015 375q-14 -5 -22 8q-11 18 -33 52
q-9 15 5 20q16 6 23 -9q22 -34 32 -52q4 -4 2.5 -10.5t-7.5 -8.5z" />
    <glyph glyph-name="Iacute" unicode="&#xcd;" horiz-adv-x="1195" 
d="M1211 262q9 -4 12 -11.5t1 -13.5l-1 -6q-19 -55 -59 -123q-78 -131 -156 -131q-48 0 -74 26.5t-27 64.5t5 79q-91 -95 -162 -154q-231 -193 -423 -193q-136 0 -220 110q-8 11 -15.5 23t-13 22t-10 20t-8 17.5t-5.5 13.5t-3 10l-1 3q-4 23 18 27q9 2 15.5 -2t8.5 -8l2 -5
q0 -2 4 -14t16 -36t28 -45q70 -91 184 -91q176 0 394 182q111 94 233 235q13 13 31 1q5 -4 6 -11t-1 -12l-1 -5q-23 -60 -21.5 -136.5t40.5 -76.5q53 0 117 108q15 26 29 55t20 45l7 16q0 1 1 2.5t3.5 5.5t5.5 6t8.5 3.5t11.5 -1.5zM1062 457q14 -5 5 -20q-4 -6 -32 -52
q-9 -13 -23 -8q-6 2 -7 8.5t2 10.5q28 46 32 52q9 14 23 9z" />
    <glyph glyph-name="Icircumflex" unicode="&#xce;" horiz-adv-x="1195" 
d="M1211 262q9 -4 12 -11.5t1 -13.5l-1 -6q-19 -55 -59 -123q-78 -131 -156 -131q-48 0 -74 26.5t-27 64.5t5 79q-91 -95 -162 -154q-231 -193 -423 -193q-136 0 -220 110q-8 11 -15.5 23t-13 22t-10 20t-8 17.5t-5.5 13.5t-3 10l-1 3q-4 23 18 27q9 2 15.5 -2t8.5 -8l2 -5
q0 -2 4 -14t16 -36t28 -45q70 -91 184 -91q176 0 394 182q111 94 233 235q13 13 31 1q5 -4 6 -11t-1 -12l-1 -5q-23 -60 -21.5 -136.5t40.5 -76.5q53 0 117 108q15 26 29 55t20 45l7 16q0 1 1 2.5t3.5 5.5t5.5 6t8.5 3.5t11.5 -1.5zM1063 399q4 -4 2.5 -10.5t-7.5 -8.5
q-14 -5 -22 8q-11 17 -23 37q-4 -6 -11.5 -18.5t-11.5 -18.5q-8 -14 -23 -8q-6 2 -7 8.5t2 10.5q11 18 33 52q5 10 18 10t18 -10q22 -34 32 -52z" />
    <glyph glyph-name="Idieresis" unicode="&#xcf;" horiz-adv-x="1195" 
d="M1211 262q9 -4 12 -11.5t1 -13.5l-1 -6q-19 -55 -59 -123q-78 -131 -156 -131q-48 0 -74 26.5t-27 64.5t5 79q-91 -95 -162 -154q-231 -193 -423 -193q-136 0 -220 110q-8 11 -15.5 23t-13 22t-10 20t-8 17.5t-5.5 13.5t-3 10l-1 3q-4 23 18 27q9 2 15.5 -2t8.5 -8l2 -5
q0 -2 4 -14t16 -36t28 -45q70 -91 184 -91q176 0 394 182q111 94 233 235q13 13 31 1q5 -4 6 -11t-1 -12l-1 -5q-23 -60 -21.5 -136.5t40.5 -76.5q53 0 117 108q15 26 29 55t20 45l7 16q0 1 1 2.5t3.5 5.5t5.5 6t8.5 3.5t11.5 -1.5zM1060 399q0 -11 -7.5 -18.5t-18.5 -7.5
q-10 0 -18 7.5t-8 18.5t7.5 18.5t18.5 7.5t18.5 -7.5t7.5 -18.5zM995 399q0 -11 -7.5 -18.5t-18.5 -7.5t-18.5 7.5t-7.5 18.5t7.5 18.5t18.5 7.5t18.5 -7.5t7.5 -18.5z" />
    <glyph glyph-name="Eth" unicode="&#xd0;" horiz-adv-x="1506" 
d="M1519 262q10 -2 13.5 -9.5t2.5 -14.5l-1 -6q-23 -90 -78 -199q-45 -88 -95 -140q-69 -67 -141 -67q-55 0 -91.5 29t-52 78.5t-19 115t7.5 137.5q-21 -18 -33 -26q-58 -42 -97 -42q-34 0 -50.5 20.5t-14.5 52.5l-60 -68q-123 -146 -205 -210q-134 -106 -278 -106
q-137 0 -221 109q-8 11 -15.5 23t-13 22t-10 20t-7.5 17.5t-5 13.5t-3 10l-1 3q-6 18 15 26q11 3 17.5 0t8.5 -9l3 -5q0 -2 4 -14t16 -36t28 -45q69 -90 184 -90q56 0 111 19.5t95 44t90 72t77.5 77.5t75.5 87q115 136 173 172q41 27 91 27q32 0 49 -27q49 218 124 369
q1 3 4 6t12 8.5t18 -1.5q8 -4 9.5 -12t-0.5 -14l-2 -5q-22 -52 -45 -128.5t-45 -167.5t-33 -180.5t-10 -163t26 -119t73 -45.5q104 0 196 182q21 42 39.5 90t26.5 73.5t8 27.5q1 2 2.5 6t9 9t17.5 3zM1073 254l2 2v1l-2 -3q-1 2 -3 12.5t-4 18t-9 14.5t-17 7q-40 0 -78 -47
q-36 -44 -36 -82q0 -14 9 -14q28 0 84 44zM1280 496q5 0 8.5 -6.5t3.5 -14.5q0 -21 -12 -21h-2h-71h-113h-59q-12 0 -12 21t12 21h1h72h113h59z" />
    <glyph glyph-name="Ntilde" unicode="&#xd1;" horiz-adv-x="1393" 
d="M1408 262q19 -6 13 -31q-21 -54 -37 -89q-35 -82 -75 -138q-52 -70 -101 -70q-33 0 -52 22q-21 23 -23.5 73t6.5 100q6 62 6 84q-1 36 -10 45q-3 5 -13 5q-19 0 -44 -23t-48 -57t-36 -55t-20 -34q-12 -21 -24 -21q-14 0 -18 18q-5 35 -2 74q-92 -101 -180 -175
q-230 -192 -423 -192q-137 0 -220 110q-8 11 -15.5 22.5t-13 22t-10 20t-8 17.5t-5.5 14t-3 10l-1 3q-4 22 18 26q9 2 15.5 -2t8.5 -9l2 -4q13 -48 48 -94q71 -91 184 -91q177 0 394 182q108 90 233 235l2 2q1 2 3.5 3.5t9.5 4t13 -2.5q8 -5 10 -13t0 -14l-1 -5
q-10 -25 -10 -46q35 51 64 78q43 41 77 41q28 0 46 -20q20 -21 21.5 -68.5t-6.5 -95.5q-11 -119 6 -138q7 -7 19 -7q27 0 64 52q36 48 71 129q12 27 34 84q1 3 3 7t10 9t18 2zM1170 408q3 -14 -13 -20q-23 -11 -57 6q-8 4 -12 5q-4 2 -7 2q0 1 -2 1q-3 0 -4 1q-1 -1 -4 -1
h-1q-1 0 -1 -1q-1 0 -3 -1l-2 -1q-14 -9 -22 3q-7 10 7 21q16 10 35 10q12 -1 27 -8q3 -1 11 -5t12 -5l1 -1h2h1h5h4l4 2q5 2 11.5 0t7.5 -8z" />
    <glyph glyph-name="Ograve" unicode="&#xd2;" horiz-adv-x="1338" 
d="M1357 259q9 -5 10.5 -13.5t-1.5 -13.5l-3 -6q-20 -40 -62 -80q-77 -74 -170 -80l-1 -1q-48 -88 -114 -88q-65 0 -91.5 49t-16.5 118q-84 -90 -158 -151q-231 -193 -423 -193q-136 0 -221 110q-8 11 -15.5 23t-13 22t-10 20t-7.5 17.5t-5 13.5t-3 10l-1 3q-4 23 18 27
q9 2 15.5 -2t8.5 -8l2 -5q0 -2 4 -14t16 -36t28 -45q70 -91 184 -91q176 0 394 182q108 91 229 231q10 14 15 20q7 7 18 8q3 6 9 16q34 48 83 48q50 0 76 -41q21 -31 21 -85q0 -55 -20 -110q31 6 60.5 22t48.5 34t33.5 36t21.5 29t7 12q2 3 4.5 6t11.5 8.5t18 -2.5zM1016 22
q34 0 63 46q-51 8 -81 41q-18 18 -27 44q-12 -48 -1 -89.5t46 -41.5zM1102 110q25 58 25 114q0 39 -14 61q-11 20 -38 20q-25 0 -46 -29q-21 -30 -21 -71t23 -66q24 -26 71 -29zM1117 399q-14 -5 -22 8q-11 18 -33 52q-9 15 5 20q16 6 23 -9q22 -34 32 -52q4 -4 2.5 -10.5
t-7.5 -8.5z" />
    <glyph glyph-name="Oacute" unicode="&#xd3;" horiz-adv-x="1338" 
d="M1357 259q9 -5 10.5 -13.5t-1.5 -13.5l-3 -6q-20 -40 -62 -80q-77 -74 -170 -80l-1 -1q-48 -88 -114 -88q-65 0 -91.5 49t-16.5 118q-84 -90 -158 -151q-231 -193 -423 -193q-136 0 -221 110q-8 11 -15.5 23t-13 22t-10 20t-7.5 17.5t-5 13.5t-3 10l-1 3q-4 23 18 27
q9 2 15.5 -2t8.5 -8l2 -5q0 -2 4 -14t16 -36t28 -45q70 -91 184 -91q176 0 394 182q108 91 229 231q10 14 15 20q7 7 18 8q3 6 9 16q34 48 83 48q50 0 76 -41q21 -31 21 -85q0 -55 -20 -110q31 6 60.5 22t48.5 34t33.5 36t21.5 29t7 12q2 3 4.5 6t11.5 8.5t18 -2.5zM1016 22
q34 0 63 46q-51 8 -81 41q-18 18 -27 44q-12 -48 -1 -89.5t46 -41.5zM1102 110q25 58 25 114q0 39 -14 61q-11 20 -38 20q-25 0 -46 -29q-21 -30 -21 -71t23 -66q24 -26 71 -29zM1132 488q14 -5 5 -20q-4 -6 -32 -52q-9 -13 -23 -8q-6 2 -7 8.5t2 10.5q28 46 32 52
q9 14 23 9z" />
    <glyph glyph-name="Ocircumflex" unicode="&#xd4;" horiz-adv-x="1338" 
d="M1357 259q9 -5 10.5 -13.5t-1.5 -13.5l-3 -6q-20 -40 -62 -80q-77 -74 -170 -80l-1 -1q-48 -88 -114 -88q-65 0 -91.5 49t-16.5 118q-84 -90 -158 -151q-231 -193 -423 -193q-136 0 -221 110q-8 11 -15.5 23t-13 22t-10 20t-7.5 17.5t-5 13.5t-3 10l-1 3q-4 23 18 27
q9 2 15.5 -2t8.5 -8l2 -5q0 -2 4 -14t16 -36t28 -45q70 -91 184 -91q176 0 394 182q108 91 229 231q10 14 15 20q7 7 18 8q3 6 9 16q34 48 83 48q50 0 76 -41q21 -31 21 -85q0 -55 -20 -110q31 6 60.5 22t48.5 34t33.5 36t21.5 29t7 12q2 3 4.5 6t11.5 8.5t18 -2.5zM1016 22
q34 0 63 46q-51 8 -81 41q-18 18 -27 44q-12 -48 -1 -89.5t46 -41.5zM1102 110q25 58 25 114q0 39 -14 61q-11 20 -38 20q-25 0 -46 -29q-21 -30 -21 -71t23 -66q24 -26 71 -29zM1149 437q4 -4 2.5 -10.5t-7.5 -8.5q-14 -5 -22 8q-11 17 -23 37q-4 -6 -11.5 -18.5
t-11.5 -18.5q-8 -14 -23 -8q-6 2 -7 8.5t2 10.5q11 18 33 52q5 10 18 10t18 -10q22 -34 32 -52z" />
    <glyph glyph-name="Otilde" unicode="&#xd5;" horiz-adv-x="1338" 
d="M1357 259q9 -5 10.5 -13.5t-1.5 -13.5l-3 -6q-20 -40 -62 -80q-77 -74 -170 -80l-1 -1q-48 -88 -114 -88q-65 0 -91.5 49t-16.5 118q-84 -90 -158 -151q-231 -193 -423 -193q-136 0 -221 110q-8 11 -15.5 23t-13 22t-10 20t-7.5 17.5t-5 13.5t-3 10l-1 3q-4 23 18 27
q9 2 15.5 -2t8.5 -8l2 -5q0 -2 4 -14t16 -36t28 -45q70 -91 184 -91q176 0 394 182q108 91 229 231q10 14 15 20q7 7 18 8q3 6 9 16q34 48 83 48q50 0 76 -41q21 -31 21 -85q0 -55 -20 -110q31 6 60.5 22t48.5 34t33.5 36t21.5 29t7 12q2 3 4.5 6t11.5 8.5t18 -2.5zM1016 22
q34 0 63 46q-51 8 -81 41q-18 18 -27 44q-12 -48 -1 -89.5t46 -41.5zM1102 110q25 58 25 114q0 39 -14 61q-11 20 -38 20q-25 0 -46 -29q-21 -30 -21 -71t23 -66q24 -26 71 -29zM1155 442q3 -14 -13 -20q-23 -11 -57 6q-8 4 -12 5q-4 2 -7 2q0 1 -2 1q-3 0 -4 1q-1 -1 -4 -1
h-1q-1 0 -1 -1l-2 -1q-2 -1 -3 -1q-14 -9 -22 3q-7 10 7 21q16 10 35 10q12 -1 27 -8q3 -1 10.5 -5t12.5 -5q1 0 3 -1h1h5h4l4 2q5 2 11.5 0t7.5 -8z" />
    <glyph glyph-name="Odieresis" unicode="&#xd6;" horiz-adv-x="1338" 
d="M1357 259q9 -5 10.5 -13.5t-1.5 -13.5l-3 -6q-20 -40 -62 -80q-77 -74 -170 -80l-1 -1q-48 -88 -114 -88q-65 0 -91.5 49t-16.5 118q-84 -90 -158 -151q-231 -193 -423 -193q-136 0 -221 110q-8 11 -15.5 23t-13 22t-10 20t-7.5 17.5t-5 13.5t-3 10l-1 3q-4 23 18 27
q9 2 15.5 -2t8.5 -8l2 -5q0 -2 4 -14t16 -36t28 -45q70 -91 184 -91q176 0 394 182q108 91 229 231q10 14 15 20q7 7 18 8q3 6 9 16q34 48 83 48q50 0 76 -41q21 -31 21 -85q0 -55 -20 -110q31 6 60.5 22t48.5 34t33.5 36t21.5 29t7 12q2 3 4.5 6t11.5 8.5t18 -2.5zM1016 22
q34 0 63 46q-51 8 -81 41q-18 18 -27 44q-12 -48 -1 -89.5t46 -41.5zM1102 110q25 58 25 114q0 39 -14 61q-11 20 -38 20q-25 0 -46 -29q-21 -30 -21 -71t23 -66q24 -26 71 -29zM1144 460q0 -11 -7.5 -18.5t-18.5 -7.5q-10 0 -18 8t-8 18q0 11 7.5 18.5t18.5 7.5t18.5 -7.5
t7.5 -18.5zM1079 460q0 -10 -7.5 -18t-18.5 -8t-18.5 8t-7.5 18q0 11 7.5 18.5t18.5 7.5t18.5 -7.5t7.5 -18.5z" />
    <glyph glyph-name="multiply" unicode="&#xd7;" horiz-adv-x="258" 
d="M189 245l42 -42q9 -9 -7 -23q-14 -14 -23 -6h-1q-34 34 -50 51l-10 10t-11 10l-30 -30q-6 -6 -12.5 -13t-15 -15t-13.5 -13q-9 -9 -24 6t-6 23l1 1q34 34 50 51q7 6 21 20l-30 30q-28 28 -42 41q-9 9 6 24t24 6l1 -1l50 -50l20 -20q20 20 30 29l42 42q9 8 23 -6
q15 -14 7 -24h-1l-51 -51q-3 -3 -6 -6.5t-7.5 -7.5t-6.5 -6z" />
    <glyph glyph-name="Oslash" unicode="&#xd8;" horiz-adv-x="1338" 
d="M1357 259q9 -5 10.5 -13.5t-1.5 -13.5l-3 -6q-20 -40 -62 -80q-77 -74 -170 -80l-1 -1q-48 -88 -114 -88q-65 0 -91.5 49t-16.5 118q-84 -90 -158 -151q-231 -193 -423 -193q-136 0 -221 110q-8 11 -15.5 23t-13 22t-10 20t-7.5 17.5t-5 13.5t-3 10l-1 3q-4 23 18 27
q9 2 15.5 -2t8.5 -8l2 -5q0 -2 4 -14t16 -36t28 -45q70 -91 184 -91q176 0 394 182q108 91 229 231q10 14 15 20q7 7 18 8q3 6 9 16q34 48 83 48q50 0 76 -41q21 -31 21 -85q0 -55 -20 -110q31 6 60.5 22t48.5 34t33.5 36t21.5 29t7 12q2 3 4.5 6t11.5 8.5t18 -2.5zM1016 22
q34 0 63 46q-51 8 -81 41q-18 18 -27 44q-12 -48 -1 -89.5t46 -41.5zM1102 110q25 58 25 114q0 39 -14 61q-11 20 -38 20q-25 0 -46 -29q-21 -30 -21 -71t23 -66q24 -26 71 -29zM1180 705q8 -2 12 -10t2 -16q0 -3 -1 -4q-3 -13 -9 -37.5t-9 -36.5q-8 -36 -35 -143
q-14 -60 -44 -182q-9 -35 -25 -101t-22 -92l-42 -174q-11 -41 -31 -125q-2 -8 -6 -24.5t-6 -24.5q-1 -8 -9.5 -12t-16.5 -2q-19 5 -14 25q0 3 1 5q6 24 18 74q14 59 35 142q14 61 44 183q8 32 23.5 96t23.5 96l42 174q11 42 31 126l12 48q1 9 9 13t17 2z" />
    <glyph glyph-name="Ugrave" unicode="&#xd9;" horiz-adv-x="1377" 
d="M1393 262q9 -4 12 -11.5t1 -13.5l-1 -6q-19 -55 -59 -123q-77 -131 -156 -131q-56 0 -76 45t-14 112q-59 -73 -104 -73q-83 0 -79 93q-82 -91 -167 -161q-231 -193 -423 -193q-136 0 -220 110q-8 11 -15.5 23t-13 22t-10 20t-8 17.5t-5.5 13.5t-3 10l-1 3q-4 23 18 27
q9 2 15.5 -2t8.5 -8l2 -5q0 -2 4 -14t16 -36t28 -45q70 -91 184 -91q176 0 394 182q108 91 229 231l4 4q1 2 3.5 3.5t11 3t16.5 -5.5q5 -4 6 -11t-1 -12l-1 -5q-42 -129 7 -129q20 0 50 31t48 57t33 52q2 6 9 16q1 2 4 3.5t11 3t16 -5.5q5 -4 6.5 -11t0.5 -12l-2 -5
q-23 -60 -22 -136.5t40 -76.5q53 0 117 108q15 26 29 55t20 45l7 16q0 1 1 2.5t3.5 5.5t5.5 6t8.5 3.5t11.5 -1.5zM1098 395q-14 -5 -22 8q-11 18 -33 52q-9 15 5 20q16 6 23 -9q22 -34 32 -52q4 -4 2.5 -10.5t-7.5 -8.5z" />
    <glyph glyph-name="Uacute" unicode="&#xda;" horiz-adv-x="1377" 
d="M1393 262q9 -4 12 -11.5t1 -13.5l-1 -6q-19 -55 -59 -123q-77 -131 -156 -131q-56 0 -76 45t-14 112q-59 -73 -104 -73q-83 0 -79 93q-82 -91 -167 -161q-231 -193 -423 -193q-136 0 -220 110q-8 11 -15.5 23t-13 22t-10 20t-8 17.5t-5.5 13.5t-3 10l-1 3q-4 23 18 27
q9 2 15.5 -2t8.5 -8l2 -5q0 -2 4 -14t16 -36t28 -45q70 -91 184 -91q176 0 394 182q108 91 229 231l4 4q1 2 3.5 3.5t11 3t16.5 -5.5q5 -4 6 -11t-1 -12l-1 -5q-42 -129 7 -129q20 0 50 31t48 57t33 52q2 6 9 16q1 2 4 3.5t11 3t16 -5.5q5 -4 6.5 -11t0.5 -12l-2 -5
q-23 -60 -22 -136.5t40 -76.5q53 0 117 108q15 26 29 55t20 45l7 16q0 1 1 2.5t3.5 5.5t5.5 6t8.5 3.5t11.5 -1.5zM1118 472q14 -5 5 -20q-4 -6 -32 -52q-9 -13 -23 -8q-6 2 -7 8.5t2 10.5q28 46 32 52q9 14 23 9z" />
    <glyph glyph-name="Ucircumflex" unicode="&#xdb;" horiz-adv-x="1377" 
d="M1393 262q9 -4 12 -11.5t1 -13.5l-1 -6q-19 -55 -59 -123q-77 -131 -156 -131q-56 0 -76 45t-14 112q-59 -73 -104 -73q-83 0 -79 93q-82 -91 -167 -161q-231 -193 -423 -193q-136 0 -220 110q-8 11 -15.5 23t-13 22t-10 20t-8 17.5t-5.5 13.5t-3 10l-1 3q-4 23 18 27
q9 2 15.5 -2t8.5 -8l2 -5q0 -2 4 -14t16 -36t28 -45q70 -91 184 -91q176 0 394 182q108 91 229 231l4 4q1 2 3.5 3.5t11 3t16.5 -5.5q5 -4 6 -11t-1 -12l-1 -5q-42 -129 7 -129q20 0 50 31t48 57t33 52q2 6 9 16q1 2 4 3.5t11 3t16 -5.5q5 -4 6.5 -11t0.5 -12l-2 -5
q-23 -60 -22 -136.5t40 -76.5q53 0 117 108q15 26 29 55t20 45l7 16q0 1 1 2.5t3.5 5.5t5.5 6t8.5 3.5t11.5 -1.5zM1110 413q4 -4 2.5 -10.5t-7.5 -8.5q-14 -5 -22 8q-11 17 -23 37q-4 -6 -11.5 -18.5t-11.5 -18.5q-8 -14 -23 -8q-6 2 -7 8.5t2 10.5q11 18 33 52q5 10 18 10
t18 -10q22 -34 32 -52z" />
    <glyph glyph-name="Udieresis" unicode="&#xdc;" horiz-adv-x="1377" 
d="M1393 262q9 -4 12 -11.5t1 -13.5l-1 -6q-19 -55 -59 -123q-77 -131 -156 -131q-56 0 -76 45t-14 112q-59 -73 -104 -73q-83 0 -79 93q-82 -91 -167 -161q-231 -193 -423 -193q-136 0 -220 110q-8 11 -15.5 23t-13 22t-10 20t-8 17.5t-5.5 13.5t-3 10l-1 3q-4 23 18 27
q9 2 15.5 -2t8.5 -8l2 -5q0 -2 4 -14t16 -36t28 -45q70 -91 184 -91q176 0 394 182q108 91 229 231l4 4q1 2 3.5 3.5t11 3t16.5 -5.5q5 -4 6 -11t-1 -12l-1 -5q-42 -129 7 -129q20 0 50 31t48 57t33 52q2 6 9 16q1 2 4 3.5t11 3t16 -5.5q5 -4 6.5 -11t0.5 -12l-2 -5
q-23 -60 -22 -136.5t40 -76.5q53 0 117 108q15 26 29 55t20 45l7 16q0 1 1 2.5t3.5 5.5t5.5 6t8.5 3.5t11.5 -1.5zM1131 431q0 -11 -7.5 -18.5t-18.5 -7.5t-18.5 7.5t-7.5 18.5t7.5 18.5t18.5 7.5t18.5 -7.5t7.5 -18.5zM1066 431q0 -11 -8 -18.5t-18 -7.5t-18 7.5t-8 18.5
t7.5 18.5t18.5 7.5t18.5 -7.5t7.5 -18.5z" />
    <glyph glyph-name="Yacute" unicode="&#xdd;" horiz-adv-x="1447" 
d="M1476 256q3 -10 -1.5 -17t-10.5 -9l-6 -2q-132 -28 -237 -88q26 -79 35 -164.5t-1 -165.5t-55.5 -131t-123.5 -51q-68 0 -110 40q-39 36 -47 99q-7 66 24.5 141.5t93.5 143.5q54 58 126 105q-6 20 -17 44q-18 -29 -38 -56.5t-53 -55.5t-60 -28q-84 0 -78 93
q-87 -94 -168 -161q-229 -193 -422 -193q-139 0 -221 110q-18 24 -32 51t-18.5 41t-4.5 17q-5 23 17 27q9 2 15.5 -2t8.5 -8l2 -5l2 -5q2 -6 5.5 -15.5t9 -21t14 -26t18.5 -27.5q70 -91 184 -91q175 0 393 182q108 91 229 231l4 4q1 2 4 3.5t11 3t16 -5.5q5 -4 6 -11t0 -12
l-2 -5q-42 -129 7 -129q46 0 134 144q3 10 14 14q8 3 15.5 -0.5t11.5 -8.5l3 -5q17 -27 33 -67q109 61 242 89q22 6 28 -16zM1076 -327q51 0 82 42.5t39 109t2.5 141.5t-23.5 146q-60 -41 -106 -91q-56 -61 -84 -127t-22 -122q11 -99 112 -99zM1110 463q14 -5 5 -20
q-4 -6 -32 -52q-9 -13 -23 -8q-6 2 -7 8.5t2 10.5q28 46 32 52q9 14 23 9z" />
    <glyph glyph-name="agrave" unicode="&#xe0;" horiz-adv-x="379" 
d="M396 262q9 -4 11.5 -12t0.5 -14l-2 -7q-45 -89 -65 -122q-82 -130 -150 -130q-41 0 -60 34q-23 43 -4 125l6 24q-59 -42 -96 -42q-55 0 -65 52q-9 54 33 111q52 70 137 70q43 0 62 -50q8 -22 -14 -30q-9 -3 -16 0t-10 8l-2 5q-7 22 -20 22q-41 0 -79 -47q-36 -46 -36 -82
q0 -14 10 -14q27 0 83 44l54 47q2 2 4.5 3.5t11 3t15.5 -5.5q7 -5 8 -12t-1 -11l-3 -5q-24 -39 -38.5 -103t-0.5 -91q7 -11 21 -11q43 0 112 108q16 25 31.5 54.5t23.5 45.5l7 17q1 3 3.5 6.5t10.5 8t17 0.5zM148 379q-14 -5 -22 8q-11 18 -33 52q-9 15 5 20q16 6 23 -9
q22 -34 32 -52q4 -4 2.5 -10.5t-7.5 -8.5z" />
    <glyph glyph-name="aacute" unicode="&#xe1;" horiz-adv-x="379" 
d="M396 262q9 -4 11.5 -12t0.5 -14l-2 -7q-45 -89 -65 -122q-82 -130 -150 -130q-41 0 -60 34q-23 43 -4 125l6 24q-59 -42 -96 -42q-55 0 -65 52q-9 54 33 111q52 70 137 70q43 0 62 -50q8 -22 -14 -30q-9 -3 -16 0t-10 8l-2 5q-7 22 -20 22q-41 0 -79 -47q-36 -46 -36 -82
q0 -14 10 -14q27 0 83 44l54 47q2 2 4.5 3.5t11 3t15.5 -5.5q7 -5 8 -12t-1 -11l-3 -5q-24 -39 -38.5 -103t-0.5 -91q7 -11 21 -11q43 0 112 108q16 25 31.5 54.5t23.5 45.5l7 17q1 3 3.5 6.5t10.5 8t17 0.5zM214 459q14 -5 5 -20q-4 -6 -32 -52q-9 -13 -23 -8q-6 2 -7 8.5
t2 10.5q28 46 32 52q9 14 23 9z" />
    <glyph glyph-name="acircumflex" unicode="&#xe2;" horiz-adv-x="379" 
d="M396 262q9 -4 11.5 -12t0.5 -14l-2 -7q-45 -89 -65 -122q-82 -130 -150 -130q-41 0 -60 34q-23 43 -4 125l6 24q-59 -42 -96 -42q-55 0 -65 52q-9 54 33 111q52 70 137 70q43 0 62 -50q8 -22 -14 -30q-9 -3 -16 0t-10 8l-2 5q-7 22 -20 22q-41 0 -79 -47q-36 -46 -36 -82
q0 -14 10 -14q27 0 83 44l54 47q2 2 4.5 3.5t11 3t15.5 -5.5q7 -5 8 -12t-1 -11l-3 -5q-24 -39 -38.5 -103t-0.5 -91q7 -11 21 -11q43 0 112 108q16 25 31.5 54.5t23.5 45.5l7 17q1 3 3.5 6.5t10.5 8t17 0.5zM200 398q4 -4 2.5 -10.5t-7.5 -8.5q-14 -5 -22 8q-11 17 -23 37
q-4 -6 -11.5 -18.5t-11.5 -18.5q-8 -14 -23 -8q-6 2 -7 8.5t2 10.5q11 18 33 52q5 10 18 10t18 -10q22 -34 32 -52z" />
    <glyph glyph-name="atilde" unicode="&#xe3;" horiz-adv-x="379" 
d="M396 262q9 -4 11.5 -12t0.5 -14l-2 -7q-45 -89 -65 -122q-82 -130 -150 -130q-41 0 -60 34q-23 43 -4 125l6 24q-59 -42 -96 -42q-55 0 -65 52q-9 54 33 111q52 70 137 70q43 0 62 -50q8 -22 -14 -30q-9 -3 -16 0t-10 8l-2 5q-7 22 -20 22q-41 0 -79 -47q-36 -46 -36 -82
q0 -14 10 -14q27 0 83 44l54 47q2 2 4.5 3.5t11 3t15.5 -5.5q7 -5 8 -12t-1 -11l-3 -5q-24 -39 -38.5 -103t-0.5 -91q7 -11 21 -11q43 0 112 108q16 25 31.5 54.5t23.5 45.5l7 17q1 3 3.5 6.5t10.5 8t17 0.5zM218 431q3 -14 -13 -20q-23 -11 -57 6q-8 4 -12 5q-4 2 -7 2
q0 1 -2 1q-3 0 -4 1q-1 -1 -4 -1h-1q-1 0 -1 -1q-1 0 -3 -1l-2 -1q-14 -9 -22 3q-7 10 7 21q16 10 35 10q12 -1 27 -8q3 -1 11 -5t12 -5h1q1 -1 2 -1h1h5h4l4 2q5 2 11.5 0t7.5 -8z" />
    <glyph glyph-name="adieresis" unicode="&#xe4;" horiz-adv-x="379" 
d="M396 262q9 -4 11.5 -12t0.5 -14l-2 -7q-45 -89 -65 -122q-82 -130 -150 -130q-41 0 -60 34q-23 43 -4 125l6 24q-59 -42 -96 -42q-55 0 -65 52q-9 54 33 111q52 70 137 70q43 0 62 -50q8 -22 -14 -30q-9 -3 -16 0t-10 8l-2 5q-7 22 -20 22q-41 0 -79 -47q-36 -46 -36 -82
q0 -14 10 -14q27 0 83 44l54 47q2 2 4.5 3.5t11 3t15.5 -5.5q7 -5 8 -12t-1 -11l-3 -5q-24 -39 -38.5 -103t-0.5 -91q7 -11 21 -11q43 0 112 108q16 25 31.5 54.5t23.5 45.5l7 17q1 3 3.5 6.5t10.5 8t17 0.5zM212 421q0 -11 -7.5 -18.5t-18.5 -7.5q-10 0 -18 7.5t-8 18.5
t7.5 18.5t18.5 7.5t18.5 -7.5t7.5 -18.5zM147 421q0 -11 -7.5 -18.5t-18.5 -7.5t-18.5 7.5t-7.5 18.5t7.5 18.5t18.5 7.5t18.5 -7.5t7.5 -18.5z" />
    <glyph glyph-name="aring" unicode="&#xe5;" horiz-adv-x="379" 
d="M396 262q9 -4 11.5 -12t0.5 -14l-2 -7q-45 -89 -65 -122q-82 -130 -150 -130q-41 0 -60 34q-23 43 -4 125l6 24q-59 -42 -96 -42q-55 0 -65 52q-9 54 33 111q52 70 137 70q43 0 62 -50q8 -22 -14 -30q-9 -3 -16 0t-10 8l-2 5q-7 22 -20 22q-41 0 -79 -47q-36 -46 -36 -82
q0 -14 10 -14q27 0 83 44l54 47q2 2 4.5 3.5t11 3t15.5 -5.5q7 -5 8 -12t-1 -11l-3 -5q-24 -39 -38.5 -103t-0.5 -91q7 -11 21 -11q43 0 112 108q16 25 31.5 54.5t23.5 45.5l7 17q1 3 3.5 6.5t10.5 8t17 0.5zM155 385q-15 0 -25.5 10.5t-10.5 25.5t10.5 25.5t25.5 10.5
t25.5 -10.5t10.5 -25.5t-10.5 -25.5t-25.5 -10.5zM155 437q-16 0 -16 -16t16 -16t16 16t-16 16z" />
    <glyph glyph-name="ae" unicode="&#xe6;" horiz-adv-x="732" 
d="M396 262q9 -4 11.5 -12t0.5 -14l-2 -7q-45 -89 -65 -122q-82 -130 -150 -130q-41 0 -60 34q-23 43 -4 125l6 24q-59 -42 -96 -42q-55 0 -65 52q-9 54 33 111q52 70 137 70q43 0 62 -50q8 -22 -14 -30q-9 -3 -16 0t-10 8l-2 5q-7 22 -20 22q-41 0 -79 -47q-36 -46 -36 -82
q0 -14 10 -14q27 0 83 44l54 47q2 2 4.5 3.5t11 3t15.5 -5.5q7 -5 8 -12t-1 -11l-3 -5q-24 -39 -38.5 -103t-0.5 -91q7 -11 21 -11q43 0 112 108q16 25 31.5 54.5t23.5 45.5l7 17q1 3 3.5 6.5t10.5 8t17 0.5zM750 259q8 -5 10 -12.5t0 -12.5l-2 -5q-1 -4 -15.5 -27.5
t-43.5 -62.5t-64 -74.5t-82.5 -61.5t-93.5 -26v0v0q-96 0 -123 83q-25 76 15 165q39 87 111 114q25 10 51 10q35 0 47 -29q20 -40 -15 -85q-24 -30 -61 -42q-22 -7 -50 -7q-18 0 -27 2q-14 -42 -14 -79q0 -41 17 -64q16 -23 49 -23q20 0 42 8t41.5 21t39.5 30t37 36t32 37.5
t27.5 35.5t21 30t13.5 21l5 8q1 2 3.5 5t11 7.5t17.5 -2.5zM513 304q-44 0 -81 -62q-5 -6 -7 -11q60 -4 84 32q6 7 9.5 17t2 17t-7.5 7z" />
    <glyph glyph-name="ccedilla" unicode="&#xe7;" horiz-adv-x="343" 
d="M371 259q8 -5 10 -12.5t0 -12.5l-2 -5q-1 -4 -15.5 -27.5t-43.5 -62.5t-64 -74.5t-82.5 -61.5t-93.5 -26v0v0h-11q-18 -28 -27 -43q17 -9 17 -30q0 -15 -10.5 -25.5t-25.5 -10.5t-25.5 10.5t-10.5 25.5v1q0 11 10 11l10 -11v-1q0 -16 16 -16t16 16q0 14 -14 16
q-3 -1 -9 1t-7 8.5t2 10.5q18 28 26 42q-48 13 -71 55.5t-17.5 94t27 101t65 83t93.5 33.5q44 0 57 -38q9 -28 -3 -62q-13 -35 -35 -51q-19 -14 -33 2q-6 9 -4.5 16t5.5 12l4 5q13 10 20.5 30.5t2.5 32.5q-3 8 -14 8q-44 0 -82 -62q-38 -64 -38 -133q0 -41 17 -64
q16 -23 49 -23q20 0 42 8t41.5 21t39.5 30t37 36t32 37.5t27.5 35.5t21 30t13.5 21l5 8q1 2 3.5 5t11 7.5t17.5 -2.5z" />
    <glyph glyph-name="egrave" unicode="&#xe8;" horiz-adv-x="353" 
d="M371 259q8 -5 10 -12.5t0 -12.5l-2 -5q-1 -4 -15.5 -27.5t-43.5 -62.5t-64 -74.5t-82.5 -61.5t-93.5 -26v0v0q-96 0 -123 83q-25 76 15 165q39 87 111 114q25 10 51 10q35 0 47 -29q20 -40 -15 -85q-24 -30 -61 -42q-22 -7 -50 -7q-18 0 -27 2q-14 -42 -14 -79
q0 -41 17 -64q16 -23 49 -23q20 0 42 8t41.5 21t39.5 30t37 36t32 37.5t27.5 35.5t21 30t13.5 21l5 8q1 2 3.5 5t11 7.5t17.5 -2.5zM134 304q-44 0 -81 -62q-4 -6 -7 -11q60 -4 84 32q6 7 9.5 17t2 17t-7.5 7zM145 379q-14 -5 -22 8q-11 18 -33 52q-9 15 5 20q16 6 23 -9
q22 -34 32 -52q4 -4 2.5 -10.5t-7.5 -8.5z" />
    <glyph glyph-name="eacute" unicode="&#xe9;" horiz-adv-x="353" 
d="M371 259q8 -5 10 -12.5t0 -12.5l-2 -5q-1 -4 -15.5 -27.5t-43.5 -62.5t-64 -74.5t-82.5 -61.5t-93.5 -26v0v0q-96 0 -123 83q-25 76 15 165q39 87 111 114q25 10 51 10q35 0 47 -29q20 -40 -15 -85q-24 -30 -61 -42q-22 -7 -50 -7q-18 0 -27 2q-14 -42 -14 -79
q0 -41 17 -64q16 -23 49 -23q20 0 42 8t41.5 21t39.5 30t37 36t32 37.5t27.5 35.5t21 30t13.5 21l5 8q1 2 3.5 5t11 7.5t17.5 -2.5zM134 304q-44 0 -81 -62q-4 -6 -7 -11q60 -4 84 32q6 7 9.5 17t2 17t-7.5 7zM201 459q14 -5 5 -20q-4 -6 -32 -52q-9 -13 -23 -8q-6 2 -7 8.5
t2 10.5q28 46 32 52q9 14 23 9z" />
    <glyph glyph-name="ecircumflex" unicode="&#xea;" horiz-adv-x="353" 
d="M371 259q8 -5 10 -12.5t0 -12.5l-2 -5q-1 -4 -15.5 -27.5t-43.5 -62.5t-64 -74.5t-82.5 -61.5t-93.5 -26v0v0q-96 0 -123 83q-25 76 15 165q39 87 111 114q25 10 51 10q35 0 47 -29q20 -40 -15 -85q-24 -30 -61 -42q-22 -7 -50 -7q-18 0 -27 2q-14 -42 -14 -79
q0 -41 17 -64q16 -23 49 -23q20 0 42 8t41.5 21t39.5 30t37 36t32 37.5t27.5 35.5t21 30t13.5 21l5 8q1 2 3.5 5t11 7.5t17.5 -2.5zM134 304q-44 0 -81 -62q-4 -6 -7 -11q60 -4 84 32q6 7 9.5 17t2 17t-7.5 7zM179 398q4 -4 2.5 -10.5t-7.5 -8.5q-14 -5 -22 8q-11 17 -23 37
q-4 -6 -11.5 -18.5t-11.5 -18.5q-8 -14 -23 -8q-6 2 -7 8.5t2 10.5q11 18 33 52q5 10 18 10t18 -10q22 -34 32 -52z" />
    <glyph glyph-name="edieresis" unicode="&#xeb;" horiz-adv-x="353" 
d="M371 259q8 -5 10 -12.5t0 -12.5l-2 -5q-1 -4 -15.5 -27.5t-43.5 -62.5t-64 -74.5t-82.5 -61.5t-93.5 -26v0v0q-96 0 -123 83q-25 76 15 165q39 87 111 114q25 10 51 10q35 0 47 -29q20 -40 -15 -85q-24 -30 -61 -42q-22 -7 -50 -7q-18 0 -27 2q-14 -42 -14 -79
q0 -41 17 -64q16 -23 49 -23q20 0 42 8t41.5 21t39.5 30t37 36t32 37.5t27.5 35.5t21 30t13.5 21l5 8q1 2 3.5 5t11 7.5t17.5 -2.5zM134 304q-44 0 -81 -62q-4 -6 -7 -11q60 -4 84 32q6 7 9.5 17t2 17t-7.5 7zM201 421q0 -11 -7.5 -18.5t-18.5 -7.5t-18.5 7.5t-7.5 18.5
t7.5 18.5t18.5 7.5t18.5 -7.5t7.5 -18.5zM136 421q0 -11 -8 -18.5t-18 -7.5t-18 7.5t-8 18.5t7.5 18.5t18.5 7.5t18.5 -7.5t7.5 -18.5z" />
    <glyph glyph-name="igrave" unicode="&#xec;" horiz-adv-x="212" 
d="M251 262q9 -4 12 -11.5t1 -13.5l-1 -6q-19 -55 -59 -123q-77 -131 -156 -131q-60 0 -84.5 40t-17.5 92t21.5 96t26.5 57q1 2 4 3.5t11 3t16 -5.5q5 -4 6 -11t-1 -12l-1 -5q-23 -60 -21.5 -136.5t40.5 -76.5q54 0 117 108q15 26 29 55t20 45l7 16q0 1 1 2.5t3.5 5.5t5.5 6
t8.5 3.5t11.5 -1.5zM68 379q-14 -5 -22 8q-11 18 -33 52q-9 15 5 20q16 6 23 -9q22 -34 32 -52q4 -4 2.5 -10.5t-7.5 -8.5z" />
    <glyph glyph-name="iacute" unicode="&#xed;" horiz-adv-x="212" 
d="M251 262q9 -4 12 -11.5t1 -13.5l-1 -6q-19 -55 -59 -123q-77 -131 -156 -131q-60 0 -84.5 40t-17.5 92t21.5 96t26.5 57q1 2 4 3.5t11 3t16 -5.5q5 -4 6 -11t-1 -12l-1 -5q-23 -60 -21.5 -136.5t40.5 -76.5q54 0 117 108q15 26 29 55t20 45l7 16q0 1 1 2.5t3.5 5.5t5.5 6
t8.5 3.5t11.5 -1.5zM107 459q14 -5 5 -20q-4 -6 -32 -52q-9 -13 -23 -8q-6 2 -7 8.5t2 10.5q28 46 32 52q9 14 23 9z" />
    <glyph glyph-name="icircumflex" unicode="&#xee;" horiz-adv-x="212" 
d="M251 262q9 -4 12 -11.5t1 -13.5l-1 -6q-19 -55 -59 -123q-77 -131 -156 -131q-60 0 -84.5 40t-17.5 92t21.5 96t26.5 57q1 2 4 3.5t11 3t16 -5.5q5 -4 6 -11t-1 -12l-1 -5q-23 -60 -21.5 -136.5t40.5 -76.5q54 0 117 108q15 26 29 55t20 45l7 16q0 1 1 2.5t3.5 5.5t5.5 6
t8.5 3.5t11.5 -1.5zM90 398q4 -4 2.5 -10.5t-7.5 -8.5q-14 -5 -22 8q-11 17 -23 37q-4 -6 -11.5 -18.5t-11.5 -18.5q-8 -14 -23 -8q-6 2 -7 8.5t2 10.5q11 18 33 52q5 10 18 10t18 -10q22 -34 32 -52z" />
    <glyph glyph-name="idieresis" unicode="&#xef;" horiz-adv-x="235" 
d="M251 262q9 -4 12 -11.5t1 -13.5l-1 -6q-19 -55 -59 -123q-77 -131 -156 -131q-60 0 -84.5 40t-17.5 92t21.5 96t26.5 57q1 2 4 3.5t11 3t16 -5.5q5 -4 6 -11t-1 -12l-1 -5q-23 -60 -21.5 -136.5t40.5 -76.5q54 0 117 108q15 26 29 55t20 45l7 16q0 1 1 2.5t3.5 5.5t5.5 6
t8.5 3.5t11.5 -1.5zM124 421q0 -11 -7.5 -18.5t-18.5 -7.5q-10 0 -18 7.5t-8 18.5t7.5 18.5t18.5 7.5t18.5 -7.5t7.5 -18.5zM59 421q0 -11 -7.5 -18.5t-18.5 -7.5t-18.5 7.5t-7.5 18.5t7.5 18.5t18.5 7.5t18.5 -7.5t7.5 -18.5z" />
    <glyph glyph-name="ntilde" unicode="&#xf1;" horiz-adv-x="429" 
d="M445 262q19 -5 13 -31q-21 -54 -37 -89q-35 -82 -75 -138q-52 -70 -101 -70q-33 0 -52 22q-21 23 -23.5 73t6.5 100q6 62 6 84q-1 36 -10 45q-3 5 -13 5q-19 0 -44 -23t-48 -57t-36 -55t-20 -34q-12 -21 -24 -21q-14 0 -18 18q-7 42 -1.5 80.5t13 62t12.5 28.5
q1 2 3.5 3.5t9.5 4t13 -2.5q8 -5 10 -13t1 -14l-2 -5q-10 -25 -10 -46q35 51 64 78q43 41 77 41q28 0 46 -20q20 -21 21.5 -68.5t-6.5 -95.5q-11 -119 6 -138q7 -7 19 -7q27 0 64 52q36 48 71 129q12 27 34 84q1 3 3 7t10 9t18 2zM202 431q3 -14 -13 -20q-23 -11 -57 6
q-8 4 -12 5q-4 2 -7 2q0 1 -2 1q-3 0 -4 1q-1 -1 -4 -1h-1q-1 0 -1 -1q-1 0 -3 -1l-2 -1q-14 -9 -22 3q-7 10 7 21q16 10 35 10q12 -1 27 -8q3 -1 11 -5t12 -5h1q1 -1 2 -1h1h5h4l4 2q5 2 11.5 0t7.5 -8z" />
    <glyph glyph-name="ograve" unicode="&#xf2;" horiz-adv-x="378" 
d="M397 259q9 -5 10.5 -13.5t-1.5 -13.5l-3 -6q-20 -40 -62 -80q-77 -74 -170 -80l-1 -1q-48 -88 -114 -88q-69 0 -95 56.5t-11 127t55 117.5q7 7 18 8q3 6 9 16q34 48 83 48q50 0 76 -41q21 -31 21 -85q0 -55 -20 -110q31 6 60.5 22t48.5 34t33.5 36t21.5 29t7 12
q2 3 4.5 6t11.5 8.5t18 -2.5zM56 22q34 0 63 46q-51 8 -81 41q-18 18 -27 44q-12 -48 -1 -89.5t46 -41.5zM142 110q25 58 25 114q0 39 -14 61q-11 20 -38 20q-25 0 -46 -29q-21 -30 -21 -71t23 -66q24 -26 71 -29zM146 379q-14 -5 -22 8q-11 18 -33 52q-9 15 5 20
q16 6 23 -9q22 -34 32 -52q4 -4 2.5 -10.5t-7.5 -8.5z" />
    <glyph glyph-name="oacute" unicode="&#xf3;" horiz-adv-x="378" 
d="M397 259q9 -5 10.5 -13.5t-1.5 -13.5l-3 -6q-20 -40 -62 -80q-77 -74 -170 -80l-1 -1q-48 -88 -114 -88q-69 0 -95 56.5t-11 127t55 117.5q7 7 18 8q3 6 9 16q34 48 83 48q50 0 76 -41q21 -31 21 -85q0 -55 -20 -110q31 6 60.5 22t48.5 34t33.5 36t21.5 29t7 12
q2 3 4.5 6t11.5 8.5t18 -2.5zM56 22q34 0 63 46q-51 8 -81 41q-18 18 -27 44q-12 -48 -1 -89.5t46 -41.5zM142 110q25 58 25 114q0 39 -14 61q-11 20 -38 20q-25 0 -46 -29q-21 -30 -21 -71t23 -66q24 -26 71 -29zM214 459q14 -5 5 -20q-4 -6 -32 -52q-9 -13 -23 -8
q-6 2 -7 8.5t2 10.5q28 46 32 52q9 14 23 9z" />
    <glyph glyph-name="ocircumflex" unicode="&#xf4;" horiz-adv-x="378" 
d="M397 259q9 -5 10.5 -13.5t-1.5 -13.5l-3 -6q-20 -40 -62 -80q-77 -74 -170 -80l-1 -1q-48 -88 -114 -88q-69 0 -95 56.5t-11 127t55 117.5q7 7 18 8q3 6 9 16q34 48 83 48q50 0 76 -41q21 -31 21 -85q0 -55 -20 -110q31 6 60.5 22t48.5 34t33.5 36t21.5 29t7 12
q2 3 4.5 6t11.5 8.5t18 -2.5zM56 22q34 0 63 46q-51 8 -81 41q-18 18 -27 44q-12 -48 -1 -89.5t46 -41.5zM142 110q25 58 25 114q0 39 -14 61q-11 20 -38 20q-25 0 -46 -29q-21 -30 -21 -71t23 -66q24 -26 71 -29zM177 398q4 -4 2.5 -10.5t-7.5 -8.5q-14 -5 -22 8
q-11 17 -23 37q-4 -6 -11.5 -18.5t-11.5 -18.5q-8 -14 -23 -8q-6 2 -7 8.5t2 10.5q11 18 33 52q5 10 18 10t18 -10q22 -34 32 -52z" />
    <glyph glyph-name="otilde" unicode="&#xf5;" horiz-adv-x="378" 
d="M397 259q9 -5 10.5 -13.5t-1.5 -13.5l-3 -6q-20 -40 -62 -80q-77 -74 -170 -80l-1 -1q-48 -88 -114 -88q-69 0 -95 56.5t-11 127t55 117.5q7 7 18 8q3 6 9 16q34 48 83 48q50 0 76 -41q21 -31 21 -85q0 -55 -20 -110q31 6 60.5 22t48.5 34t33.5 36t21.5 29t7 12
q2 3 4.5 6t11.5 8.5t18 -2.5zM56 22q34 0 63 46q-51 8 -81 41q-18 18 -27 44q-12 -48 -1 -89.5t46 -41.5zM142 110q25 58 25 114q0 39 -14 61q-11 20 -38 20q-25 0 -46 -29q-21 -30 -21 -71t23 -66q24 -26 71 -29zM203 431q3 -14 -13 -20q-23 -11 -57 6q-8 4 -12 5
q-4 2 -7 2q0 1 -2 1q-3 0 -4 1q-1 -1 -4 -1h-1q-1 0 -1 -1l-2 -1q-2 -1 -3 -1q-14 -9 -22 3q-7 10 7 21q16 10 35 10q12 -1 27 -8q3 -1 10.5 -5t12.5 -5h1l2 -1h1h5h4l4 2q5 2 11.5 0t7.5 -8z" />
    <glyph glyph-name="odieresis" unicode="&#xf6;" horiz-adv-x="378" 
d="M397 259q9 -5 10.5 -13.5t-1.5 -13.5l-3 -6q-20 -40 -62 -80q-77 -74 -170 -80l-1 -1q-48 -88 -114 -88q-69 0 -95 56.5t-11 127t55 117.5q7 7 18 8q3 6 9 16q34 48 83 48q50 0 76 -41q21 -31 21 -85q0 -55 -20 -110q31 6 60.5 22t48.5 34t33.5 36t21.5 29t7 12
q2 3 4.5 6t11.5 8.5t18 -2.5zM56 22q34 0 63 46q-51 8 -81 41q-18 18 -27 44q-12 -48 -1 -89.5t46 -41.5zM142 110q25 58 25 114q0 39 -14 61q-11 20 -38 20q-25 0 -46 -29q-21 -30 -21 -71t23 -66q24 -26 71 -29zM203 421q0 -11 -7.5 -18.5t-18.5 -7.5t-18.5 7.5t-7.5 18.5
t7.5 18.5t18.5 7.5t18.5 -7.5t7.5 -18.5zM138 421q0 -11 -8 -18.5t-18 -7.5t-18 7.5t-8 18.5t7.5 18.5t18.5 7.5t18.5 -7.5t7.5 -18.5z" />
    <glyph glyph-name="divide" unicode="&#xf7;" 
d="M282 299q5 0 8.5 -6.5t3.5 -14.5q0 -21 -12 -21h-2h-71h-113h-59q-12 0 -12 21t12 21h1h72h113h59zM204 185q0 -15 -10.5 -25.5t-25.5 -10.5t-25.5 10.5t-10.5 25.5t10.5 25.5t25.5 10.5t25.5 -10.5t10.5 -25.5zM204 370q0 -15 -10.5 -25.5t-25.5 -10.5t-25.5 10.5
t-10.5 25.5t10.5 25.5t25.5 10.5t25.5 -10.5t10.5 -25.5z" />
    <glyph glyph-name="oslash" unicode="&#xf8;" horiz-adv-x="378" 
d="M397 259q9 -5 10.5 -13.5t-1.5 -13.5l-3 -6q-20 -40 -62 -80q-77 -74 -170 -80l-1 -1q-48 -88 -114 -88q-69 0 -95 56.5t-11 127t55 117.5q7 7 18 8q3 6 9 16q34 48 83 48q50 0 76 -41q21 -31 21 -85q0 -55 -20 -110q31 6 60.5 22t48.5 34t33.5 36t21.5 29t7 12
q2 3 4.5 6t11.5 8.5t18 -2.5zM56 22q34 0 63 46q-51 8 -81 41q-18 18 -27 44q-12 -48 -1 -89.5t46 -41.5zM142 110q25 58 25 114q0 39 -14 61q-11 20 -38 20q-25 0 -46 -29q-21 -30 -21 -71t23 -66q24 -26 71 -29zM228 705q8 -2 12 -10t2 -16q0 -3 -1 -4q-3 -13 -9 -37
t-9 -37q-8 -36 -35 -143q-14 -60 -44 -182q-9 -35 -25 -101t-22 -92l-42 -174q-11 -41 -31 -125q-2 -8 -6 -24.5t-6 -24.5q-1 -8 -9.5 -12t-16.5 -2q-19 5 -14 25q0 3 1 5q6 24 18 74q14 59 35 142q14 61 44 183q8 32 23.5 96t23.5 96l42 174q11 42 31 126l12 48q1 9 9 13
t17 2z" />
    <glyph glyph-name="ugrave" unicode="&#xf9;" horiz-adv-x="418" 
d="M434 262q9 -4 12 -11.5t2 -13.5l-2 -6q-18 -55 -59 -123q-77 -131 -156 -131q-56 0 -76 45t-14 112q-59 -73 -104 -73q-44 0 -63.5 27t-15.5 63t15 67.5t22 43.5q1 2 3.5 3.5t11 3t16.5 -5.5q5 -4 6 -11t0 -12l-2 -5q-42 -129 7 -129q20 0 50 31t48 57t33 52q2 6 9 16
q1 2 4 3.5t11 3t16 -5.5q5 -4 6.5 -11t-0.5 -12l-1 -5q-23 -60 -22 -136.5t40 -76.5q53 0 117 108q15 26 29 55t21 45l6 16q0 1 1 2.5t3.5 5.5t5.5 6t8.5 3.5t11.5 -1.5zM130 379q-14 -5 -22 8q-11 18 -33 52q-9 15 5 20q16 6 23 -9q22 -34 32 -52q4 -4 2.5 -10.5t-7.5 -8.5
z" />
    <glyph glyph-name="uacute" unicode="&#xfa;" horiz-adv-x="418" 
d="M434 262q9 -4 12 -11.5t2 -13.5l-2 -6q-18 -55 -59 -123q-77 -131 -156 -131q-56 0 -76 45t-14 112q-59 -73 -104 -73q-44 0 -63.5 27t-15.5 63t15 67.5t22 43.5q1 2 3.5 3.5t11 3t16.5 -5.5q5 -4 6 -11t0 -12l-2 -5q-42 -129 7 -129q20 0 50 31t48 57t33 52q2 6 9 16
q1 2 4 3.5t11 3t16 -5.5q5 -4 6.5 -11t-0.5 -12l-1 -5q-23 -60 -22 -136.5t40 -76.5q53 0 117 108q15 26 29 55t21 45l6 16q0 1 1 2.5t3.5 5.5t5.5 6t8.5 3.5t11.5 -1.5zM163 459q14 -5 5 -20q-4 -6 -32 -52q-9 -13 -23 -8q-6 2 -7 8.5t2 10.5q28 46 32 52q9 14 23 9z" />
    <glyph glyph-name="ucircumflex" unicode="&#xfb;" horiz-adv-x="418" 
d="M434 262q9 -4 12 -11.5t2 -13.5l-2 -6q-18 -55 -59 -123q-77 -131 -156 -131q-56 0 -76 45t-14 112q-59 -73 -104 -73q-44 0 -63.5 27t-15.5 63t15 67.5t22 43.5q1 2 3.5 3.5t11 3t16.5 -5.5q5 -4 6 -11t0 -12l-2 -5q-42 -129 7 -129q20 0 50 31t48 57t33 52q2 6 9 16
q1 2 4 3.5t11 3t16 -5.5q5 -4 6.5 -11t-0.5 -12l-1 -5q-23 -60 -22 -136.5t40 -76.5q53 0 117 108q15 26 29 55t21 45l6 16q0 1 1 2.5t3.5 5.5t5.5 6t8.5 3.5t11.5 -1.5zM156 398q4 -4 2.5 -10.5t-7.5 -8.5q-14 -5 -22 8q-11 17 -23 37q-4 -6 -11.5 -18.5t-11.5 -18.5
q-8 -14 -23 -8q-6 2 -7 8.5t2 10.5q11 18 33 52q5 10 18 10t18 -10q22 -34 32 -52z" />
    <glyph glyph-name="udieresis" unicode="&#xfc;" horiz-adv-x="418" 
d="M434 262q9 -4 12 -11.5t2 -13.5l-2 -6q-18 -55 -59 -123q-77 -131 -156 -131q-56 0 -76 45t-14 112q-59 -73 -104 -73q-44 0 -63.5 27t-15.5 63t15 67.5t22 43.5q1 2 3.5 3.5t11 3t16.5 -5.5q5 -4 6 -11t0 -12l-2 -5q-42 -129 7 -129q20 0 50 31t48 57t33 52q2 6 9 16
q1 2 4 3.5t11 3t16 -5.5q5 -4 6.5 -11t-0.5 -12l-1 -5q-23 -60 -22 -136.5t40 -76.5q53 0 117 108q15 26 29 55t21 45l6 16q0 1 1 2.5t3.5 5.5t5.5 6t8.5 3.5t11.5 -1.5zM178 421q0 -11 -7.5 -18.5t-18.5 -7.5q-10 0 -18 7.5t-8 18.5t7.5 18.5t18.5 7.5t18.5 -7.5t7.5 -18.5
zM113 421q0 -11 -7.5 -18.5t-18.5 -7.5t-18.5 7.5t-7.5 18.5t7.5 18.5t18.5 7.5t18.5 -7.5t7.5 -18.5z" />
    <glyph glyph-name="yacute" unicode="&#xfd;" horiz-adv-x="489" 
d="M518 256q3 -10 -1.5 -17t-10.5 -9l-6 -2q-132 -28 -237 -88q26 -79 35 -164.5t-1 -165.5t-55.5 -131t-123.5 -51q-68 0 -110 40q-39 36 -47 99q-7 66 24.5 141.5t93.5 143.5q54 58 126 105q-6 20 -17 44q-18 -29 -38 -56.5t-53 -55.5t-60 -28q-44 0 -63.5 27t-15.5 63
t15 67.5t22 43.5q1 2 4 3.5t11 3t16 -5.5q5 -4 6 -11t0 -12l-2 -5q-42 -129 7 -129q46 0 134 144q3 10 14 14q8 3 15.5 -0.5t11.5 -8.5l3 -5q17 -27 33 -67q109 61 242 89q22 6 28 -16zM118 -327q51 0 82 42.5t39 109t2.5 141.5t-23.5 146q-60 -41 -106 -91
q-56 -61 -84 -127t-22 -122q11 -99 112 -99zM172 459q14 -5 5 -20q-4 -6 -32 -52q-9 -13 -23 -8q-6 2 -7 8.5t2 10.5q28 46 32 52q9 14 23 9z" />
    <glyph glyph-name="thorn" unicode="&#xfe;" horiz-adv-x="483" 
d="M227 706q8 0 14.5 -6.5t6.5 -14.5v-1q-1 -19 -3 -59l-6 -138q-2 -31 -4.5 -92.5t-3.5 -91.5l-9 -198q-2 -30 -4.5 -90.5t-3.5 -90.5l-6 -132q0 -9 -1 -26t-1 -25q-2 -21 -21 -21q-9 0 -15.5 6t-5.5 15l3 60l6 138q2 58 8 184l9 198q2 63 8 181l6 132q0 17 2 51
q0 8 6 14.5t15 6.5zM457 583q3 -50 -22 -111t-73 -112q-51 -56 -125 -94q-70 -36 -156 -48q-9 -101 11 -173q14 22 22 33q33 49 65 81q43 41 77 41q37 0 58 -25q17 -22 17 -56q0 -68 -54 -138q-60 -77 -137 -77q-25 -2 -25 22q0 11 6.5 16.5t12.5 5.5l6 1q54 0 101 60
q45 56 45 110q0 36 -30 36q-35 0 -105 -102q-6 -9 -43 -67q-6 -9 -13 -8.5t-13 4.5l-5 5q-31 37 -43 105.5t-6.5 147t30 161t62.5 148.5t95.5 108.5t123.5 42.5q52 0 83.5 -31.5t34.5 -85.5zM329 390q41 44 63 95.5t20 94.5q-5 75 -73 75q-83 0 -157 -122q-69 -113 -95 -269
q148 25 242 126z" />
    <glyph glyph-name="ydieresis" unicode="&#xff;" horiz-adv-x="489" 
d="M518 256q3 -10 -1.5 -17t-10.5 -9l-6 -2q-132 -28 -237 -88q26 -79 35 -164.5t-1 -165.5t-55.5 -131t-123.5 -51q-68 0 -110 40q-39 36 -47 99q-7 66 24.5 141.5t93.5 143.5q54 58 126 105q-6 20 -17 44q-18 -29 -38 -56.5t-53 -55.5t-60 -28q-44 0 -63.5 27t-15.5 63
t15 67.5t22 43.5q1 2 4 3.5t11 3t16 -5.5q5 -4 6 -11t0 -12l-2 -5q-42 -129 7 -129q46 0 134 144q3 10 14 14q8 3 15.5 -0.5t11.5 -8.5l3 -5q17 -27 33 -67q109 61 242 89q22 6 28 -16zM118 -327q51 0 82 42.5t39 109t2.5 141.5t-23.5 146q-60 -41 -106 -91
q-56 -61 -84 -127t-22 -122q11 -99 112 -99zM158 421q0 -11 -7.5 -18.5t-18.5 -7.5q-10 0 -18 7.5t-8 18.5t7.5 18.5t18.5 7.5t18.5 -7.5t7.5 -18.5zM93 421q0 -11 -7.5 -18.5t-18.5 -7.5t-18.5 7.5t-7.5 18.5t7.5 18.5t18.5 7.5t18.5 -7.5t7.5 -18.5z" />
    <glyph glyph-name="Lslash" unicode="&#x141;" horiz-adv-x="1326" 
d="M1340 261q10 -2 13.5 -9.5t2.5 -13.5l-2 -7q-18 -70 -67 -161q-38 -68 -84 -113q-60 -55 -124 -55q-70 0 -112.5 51.5t-56.5 138.5q-86 -49 -176 -83q-199 -76 -407 -76q-113 0 -180 33q-64 30 -85 85q-18 51 -6 99t44 79q2 2 5 4.5t12 5t16 -6.5q7 -8 7 -16t-4 -14
l-5 -5q-23 -23 -32 -58t4 -71q17 -39 63 -61q61 -29 161 -29q307 0 578 164q-7 120 29 247t114.5 218t176.5 91q53 0 81 -27q28 -28 28 -75q0 -79 -76 -191q-77 -115 -207 -217q-42 -33 -87 -63q4 -71 29 -119q30 -59 86 -59q89 0 168 145q19 33 35 71t22.5 58t6.5 22
q0 1 1 2.5t3 5.5t5 6t8.5 4t11.5 0zM1038 494q-73 -144 -76 -315q41 28 61 45q124 97 195 201.5t71 170.5q0 28 -14 42q-17 15 -50 15q-62 0 -109.5 -48.5t-77.5 -110.5zM1058 321q5 0 8.5 -6.5t3.5 -14.5q0 -21 -12 -21h-2h-71h-113h-59q-12 0 -12 21t12 21h1h72h113h59z
" />
    <glyph glyph-name="lslash" unicode="&#x142;" horiz-adv-x="402" 
d="M417 261q10 -2 13 -9.5t2 -13.5l-2 -7q-18 -74 -67 -161q-40 -72 -84 -113q-60 -55 -124 -55q-110 0 -153 128q-43 126 -5 303q39 181 136 284q77 81 169 81q51 0 82.5 -31.5t34.5 -85.5q3 -53 -21 -110q-27 -63 -74 -113q-52 -57 -125 -93q-69 -36 -159 -50
q-2 -30 -2 -47q0 -102 31 -162q30 -59 86 -59q88 0 169 145q18 33 34 71t22.5 58t6.5 22q0 1 1 2.5t3 5.5t5.5 6t8.5 4t12 0zM302 653q-34 0 -65 -15.5t-54.5 -42t-39.5 -51t-29 -50.5q-54 -108 -69 -232q152 25 246 127q41 43 63 94t20 96q-1 29 -17 51.5t-55 22.5z
M164 257q5 0 8.5 -6.5t3.5 -14.5q0 -21 -12 -21h-2h-71h-113h-59q-12 0 -12 21t12 21h1h72h113h59z" />
    <glyph glyph-name="OE" unicode="&#x152;" horiz-adv-x="2396" 
d="M2345 303q6 -20 -16 -25q-10 -2 -17 1.5t-8 8.5l-2 4q-13 48 -49 94q-70 91 -184 91q-47 0 -95 -19t-84 -43.5t-82.5 -71t-71.5 -76.5t-71 -86q-37 -45 -53.5 -64.5t-48 -53t-51.5 -47.5t-46.5 -26.5t-50.5 -12.5q-95 0 -123 83q-24 76 16 165q38 87 110 114q25 10 51 10
q34 0 48 -29q20 -41 -16 -85q-24 -30 -61 -42q-21 -7 -50 -7q-17 0 -27 2q-13 -44 -13 -79q0 -40 16 -64q16 -23 49 -23q22 0 46.5 13.5t56.5 46t52 55.5t60 72q115 144 191 208q124 105 248 105q139 0 221 -110q18 -24 32 -51t18.5 -41t4.5 -17zM1469 304q-43 0 -81 -62
q-1 -2 -3 -5.5t-3 -5.5q57 -3 84 32q6 7 9.5 17t2 17t-8.5 7zM1357 259q9 -5 10.5 -13.5t-1.5 -13.5l-3 -6q-20 -40 -62 -80q-77 -74 -170 -80l-1 -1q-48 -88 -114 -88q-65 0 -91.5 49t-16.5 118q-84 -90 -158 -151q-231 -193 -423 -193q-136 0 -221 110q-8 11 -15.5 23
t-13 22t-10 20t-7.5 17.5t-5 13.5t-3 10l-1 3q-4 23 18 27q9 2 15.5 -2t8.5 -8l2 -5q0 -2 4 -14t16 -36t28 -45q70 -91 184 -91q176 0 394 182q108 91 229 231q10 14 15 20q7 7 18 8q3 6 9 16q34 48 83 48q50 0 76 -41q21 -31 21 -85q0 -55 -20 -110q31 6 60.5 22t48.5 34
t33.5 36t21.5 29t7 12q2 3 4.5 6t11.5 8.5t18 -2.5zM1016 22q34 0 63 46q-51 8 -81 41q-18 18 -27 44q-12 -48 -1 -89.5t46 -41.5zM1102 110q25 58 25 114q0 39 -14 61q-11 20 -38 20q-25 0 -46 -29q-21 -30 -21 -71t23 -66q24 -26 71 -29z" />
    <glyph glyph-name="oe" unicode="&#x153;" horiz-adv-x="731" 
d="M397 259q9 -5 10.5 -13.5t-1.5 -13.5l-3 -6q-20 -40 -62 -80q-77 -74 -170 -80l-1 -1q-48 -88 -114 -88q-69 0 -95 56.5t-11 127t55 117.5q7 7 18 8q3 6 9 16q34 48 83 48q50 0 76 -41q21 -31 21 -85q0 -55 -20 -110q31 6 60.5 22t48.5 34t33.5 36t21.5 29t7 12
q2 3 4.5 6t11.5 8.5t18 -2.5zM56 22q34 0 63 46q-51 8 -81 41q-18 18 -27 44q-12 -48 -1 -89.5t46 -41.5zM142 110q25 58 25 114q0 39 -14 61q-11 20 -38 20q-25 0 -46 -29q-21 -30 -21 -71t23 -66q24 -26 71 -29zM749 259q8 -5 10 -12.5t0 -12.5l-2 -5q-1 -4 -15.5 -27.5
t-43.5 -62.5t-64 -74.5t-82.5 -61.5t-93.5 -26v0v0q-96 0 -123 83q-25 76 15 165q39 87 111 114q25 10 51 10q35 0 47 -29q20 -40 -15 -85q-24 -30 -61 -42q-22 -7 -50 -7q-18 0 -27 2q-14 -42 -14 -79q0 -41 17 -64q16 -23 49 -23q20 0 42 8t41.5 21t39.5 30t37 36t32 37.5
t27.5 35.5t21 30t13.5 21l5 8q1 2 3.5 5t11 7.5t17.5 -2.5zM512 304q-44 0 -81 -62q-5 -6 -7 -11q60 -4 84 32q6 7 9.5 17t2 17t-7.5 7z" />
    <glyph glyph-name="Scaron" unicode="&#x160;" horiz-adv-x="1261" 
d="M1287 259q5 -9 2.5 -16.5t-5.5 -11t-5 -4.5q-174 -99 -284 -208q29 -170 30 -224q4 -140 -84 -162q-19 -5 -41 -5q-37 0 -63.5 21t-36.5 57q-27 105 79 248q19 28 55 67q-11 70 -13 117q-2 40 1 67q-92 -100 -172 -166q-231 -192 -423 -192q-137 0 -220 110
q-8 11 -15.5 22.5t-13 22t-10 20t-8 17.5t-5.5 14l-3 9l-1 4q-4 22 18 26q9 2 15.5 -2t8.5 -8l2 -5q13 -48 48 -94q70 -91 184 -91q177 0 394 182q115 96 230 232l3 3v0q13 11 28 2q8 -4 10 -11t0 -12l-2 -5q-26 -61 -4 -210q13 12 41 36q94 79 224 154q26 13 36 -4z
M900 -327q23 0 38 12t20.5 36.5t7.5 48.5t-2 60.5t-7.5 59t-9.5 57.5q-2 12 -3 17q-20 -24 -29 -36q-43 -60 -62.5 -116t-9.5 -94q12 -45 57 -45zM946 492q-9 15 5 20q16 6 23 -9q4 -6 11.5 -18t11.5 -18q7 12 23 36q7 15 22 9q6 -2 7.5 -8.5t-2.5 -11.5q-6 -10 -17.5 -28.5
t-14.5 -23.5q-5 -11 -18 -9q-13 -2 -18 9q-11 18 -33 52z" />
    <glyph glyph-name="scaron" unicode="&#x161;" horiz-adv-x="316" 
d="M342 259q5 -9 2.5 -16.5t-5.5 -11t-5 -4.5q-174 -99 -284 -208q29 -170 30 -224q4 -140 -84 -162q-19 -5 -41 -5q-37 0 -63.5 21t-36.5 57q-27 105 79 248q19 28 55 67q-11 70 -13 117q-5 109 30 167q1 2 3.5 4t10.5 5.5t17 -3.5q8 -4 10 -11t0 -12l-2 -5
q-26 -61 -4 -210q13 12 41 36q94 79 224 154q26 13 36 -4zM-45 -327q23 0 38 12t20.5 36.5t7.5 48.5t-2 60.5t-7.5 59t-9.5 57.5q-2 12 -3 17q-20 -24 -29 -36q-43 -60 -62.5 -116t-9.5 -94q12 -45 57 -45zM-4 439q-9 15 5 20q16 6 23 -9q4 -6 11.5 -18t11.5 -18q7 12 23 36
q7 15 22 9q6 -2 7.5 -8.5t-2.5 -11.5q-6 -10 -17.5 -28.5t-14.5 -23.5q-5 -11 -18 -9q-13 -2 -18 9q-11 18 -33 52z" />
    <glyph glyph-name="Ydieresis" unicode="&#x178;" horiz-adv-x="1447" 
d="M1476 256q3 -10 -1.5 -17t-10.5 -9l-6 -2q-132 -28 -237 -88q26 -79 35 -164.5t-1 -165.5t-55.5 -131t-123.5 -51q-68 0 -110 40q-39 36 -47 99q-7 66 24.5 141.5t93.5 143.5q54 58 126 105q-6 20 -17 44q-18 -29 -38 -56.5t-53 -55.5t-60 -28q-84 0 -78 93
q-87 -94 -168 -161q-229 -193 -422 -193q-139 0 -221 110q-18 24 -32 51t-18.5 41t-4.5 17q-5 23 17 27q9 2 15.5 -2t8.5 -8l2 -5l2 -5q2 -6 5.5 -15.5t9 -21t14 -26t18.5 -27.5q70 -91 184 -91q175 0 393 182q108 91 229 231l4 4q1 2 4 3.5t11 3t16 -5.5q5 -4 6 -11t0 -12
l-2 -5q-42 -129 7 -129q46 0 134 144q3 10 14 14q8 3 15.5 -0.5t11.5 -8.5l3 -5q17 -27 33 -67q109 61 242 89q22 6 28 -16zM1076 -327q51 0 82 42.5t39 109t2.5 141.5t-23.5 146q-60 -41 -106 -91q-56 -61 -84 -127t-22 -122q11 -99 112 -99zM1131 419q0 -11 -7.5 -18.5
t-18.5 -7.5t-18.5 7.5t-7.5 18.5t7.5 18.5t18.5 7.5t18.5 -7.5t7.5 -18.5zM1066 419q0 -11 -8 -18.5t-18 -7.5t-18 7.5t-8 18.5t7.5 18.5t18.5 7.5t18.5 -7.5t7.5 -18.5z" />
    <glyph glyph-name="Zcaron" unicode="&#x17d;" horiz-adv-x="1393" 
d="M1419 259q5 -9 2.5 -16.5t-5.5 -11t-5 -4.5q-141 -80 -242 -169q45 -39 58 -112.5t-4.5 -143.5t-69 -122t-122.5 -52q-37 0 -63.5 21t-35.5 57q-28 103 78 248q34 46 81 93q-33 16 -82 16q-22 -2 -23 20q0 10 4.5 16t9.5 7l5 2q65 11 102 44t34 63q-1 15 -15 24
q-17 13 -55 13q-25 0 -67 -26t-74.5 -53.5t-93.5 -81.5q-148 -132 -237 -189q-146 -96 -272 -96q-137 0 -221 110q-33 44 -55 109q-4 22 18 26q9 2 15.5 -2t8.5 -9l2 -4q0 -2 4 -14t16 -36t28 -45q69 -90 184 -90q49 0 103.5 18.5t97 41t101 67t89.5 70.5t88 77
q69 61 104 90t81.5 55.5t79.5 26.5q55 0 83.5 -23t31.5 -56q2 -33 -21 -67.5t-66 -57.5q4 -2 5 -3q9 -1 25 -7q18 16 29 25q95 80 225 155q25 16 36 -4zM1136 12q-1 1 -3.5 4t-3.5 5q-50 -49 -82 -94q-44 -59 -63 -114.5t-9 -94.5q12 -45 56 -45q54 0 100 67q43 68 43 153
q0 75 -38 119zM1030 448q-9 15 5 20q16 6 23 -9q4 -6 11.5 -18t11.5 -18q7 12 23 36q7 15 22 9q6 -2 7.5 -8.5t-2.5 -11.5q-6 -10 -17.5 -28.5t-14.5 -23.5q-5 -11 -18 -9q-13 -2 -18 9q-11 18 -33 52z" />
    <glyph glyph-name="zcaron" unicode="&#x17e;" horiz-adv-x="436" 
d="M462 259q5 -9 2.5 -16.5t-5.5 -11t-5 -4.5q-138 -78 -241 -169q45 -39 58 -112.5t-5 -143.5t-69 -122t-122 -52q-37 0 -63.5 21t-36.5 57q-13 49 8 114t71 134q34 46 81 93q-33 16 -82 16q-22 -2 -23 20q0 10 4.5 16t9.5 7l5 2q56 9 92 38q31 23 41 54q7 27 -7 39
q-14 13 -50 13q-46 0 -108 -25q-19 -9 -28 12q-4 11 -1 17.5t8 9.5l5 3q69 28 124 28q52 2 80 -25q36 -33 20 -84q-13 -45 -56 -77q-13 -11 -27 -18l6 -3q9 -1 25 -7q9 9 29 25q97 82 224 155q26 13 36 -4zM180 12q-2 3 -8 9q-44 -43 -82 -94q-44 -59 -62.5 -115t-8.5 -94
q11 -45 56 -45q56 0 99 67q44 68 44 153q0 74 -38 119zM77 439q-9 15 5 20q16 6 23 -9q4 -6 11.5 -18t11.5 -18q7 12 23 36q7 15 22 9q6 -2 7.5 -8.5t-2.5 -11.5q-6 -10 -17.5 -28.5t-14.5 -23.5q-5 -11 -18 -9q-13 -2 -18 9q-11 18 -33 52z" />
    <glyph glyph-name="circumflex" unicode="&#x2c6;" horiz-adv-x="157" 
d="M129 398q4 -4 2.5 -10.5t-7.5 -8.5q-14 -5 -22 8q-11 17 -23 37q-4 -6 -11.5 -18.5t-11.5 -18.5q-8 -14 -23 -8q-6 2 -7 8.5t2 10.5q11 18 33 52q5 10 18 10t18 -10q22 -34 32 -52z" />
    <glyph glyph-name="caron" unicode="&#x2c7;" horiz-adv-x="157" 
d="M28 439q-9 15 5 20q16 6 23 -9q4 -6 11.5 -18t11.5 -18q7 12 23 36q7 15 22 9q6 -2 7.5 -8.5t-2.5 -11.5q-6 -10 -17.5 -28.5t-14.5 -23.5q-5 -11 -18 -9q-13 -2 -18 9q-11 18 -33 52z" />
    <glyph glyph-name="dotaccent" unicode="&#x2d9;" horiz-adv-x="122" 
d="M97 466q0 -15 -10.5 -25.5t-25.5 -10.5t-25.5 10.5t-10.5 25.5t10.5 25.5t25.5 10.5t25.5 -10.5t10.5 -25.5z" />
    <glyph glyph-name="ring" unicode="&#x2da;" horiz-adv-x="122" 
d="M61 385q-15 0 -25.5 10.5t-10.5 25.5t10.5 25.5t25.5 10.5t25.5 -10.5t10.5 -25.5t-10.5 -25.5t-25.5 -10.5zM61 437q-16 0 -16 -16t16 -16t16 16t-16 16z" />
    <glyph glyph-name="ogonek" unicode="&#x2db;" horiz-adv-x="138" 
d="M103 2q14 -7 9 -23q-12 -44 -16 -58q-4 -16 -18 -10q-2 1 -6 5q-10 10 -22 0q-11 -11 0 -22q11 -12 22 -1h1q1 1 2.5 2t5.5 2t7 -3t3 -7.5t-2 -5.5l-2 -2l-1 -1q-11 -10 -26 -9.5t-25 11.5t-9.5 25.5t11.5 25.5q13 13 34 8l6.5 26t7.5 27q2 6 7 9.5t11 0.5z" />
    <glyph glyph-name="tilde" unicode="&#x2dc;" horiz-adv-x="181" 
d="M155 431q3 -14 -13 -20q-23 -11 -57 6q-8 4 -12 5q-4 2 -7 2q0 1 -2 1q-3 0 -4 1q-1 -1 -4 -1h-1q-1 0 -1 -1l-2 -1q-2 -1 -3 -1q-14 -9 -22 3q-7 10 7 21q16 10 35 10q12 -1 27 -8q3 -1 10.5 -5t12.5 -5h1l2 -1h1h5h4l4 2q5 2 11.5 0t7.5 -8z" />
    <glyph glyph-name="hungarumlaut" unicode="&#x2dd;" horiz-adv-x="180" 
d="M83 459q14 -5 5 -20q-4 -6 -32 -52q-9 -13 -23 -8q-6 2 -7 8.5t2 10.5q28 46 32 52q9 14 23 9zM147 459q14 -5 5 -20q-4 -6 -32 -52q-9 -13 -23 -8q-6 2 -7 8.5t2 10.5q28 46 32 52q9 14 23 9z" />
    <glyph glyph-name="endash" unicode="&#x2013;" 
d="M282 296q5 0 8.5 -6.5t3.5 -14.5q0 -21 -12 -21h-2h-71h-113h-59q-12 0 -12 21t12 21h1h72h113h59z" />
    <glyph glyph-name="emdash" unicode="&#x2014;" 
d="M282 296q5 0 8.5 -6.5t3.5 -14.5q0 -21 -12 -21h-2h-71h-113h-59q-12 0 -12 21t12 21h1h72h113h59z" />
    <glyph glyph-name="quoteleft" unicode="&#x2018;" horiz-adv-x="122" 
d="M84 649q-15 -5 -23 8q-5 9 -16 26.5t-17 25.5q-8 14 5 20q16 6 23 -9l39 -48q4 -5 1 -12.5t-12 -10.5z" />
    <glyph glyph-name="quoteright" unicode="&#x2019;" horiz-adv-x="122" 
d="M84 729q20 -8 11 -23l-39 -49q-9 -15 -23 -8q-13 5 -5 19q11 18 33 52q7 14 23 9z" />
    <glyph glyph-name="quotesinglbase" unicode="&#x201a;" horiz-adv-x="122" 
d="M84 63q20 -8 11 -23l-39 -49q-8 -14 -23 -8q-6 2 -7 8.5t2 10.5q11 18 33 52q7 14 23 9z" />
    <glyph glyph-name="quotedblleft" unicode="&#x201c;" horiz-adv-x="179" 
d="M84 649q-15 -5 -23 8q-5 9 -16 26.5t-17 25.5q-8 14 5 20q16 6 23 -9l39 -48q4 -5 1 -12.5t-12 -10.5zM141 649q-15 -5 -23 8q-6 9 -17 26t-16 26q-8 14 5 20q16 6 23 -9l39 -48q4 -5 1 -12.5t-12 -10.5z" />
    <glyph glyph-name="quotedblright" unicode="&#x201d;" horiz-adv-x="178" 
d="M140 729q20 -8 11 -23l-39 -49q-9 -15 -23 -8q-13 5 -5 19q11 18 33 52q7 14 23 9zM84 729q20 -8 11 -23l-39 -49q-9 -15 -23 -8q-13 5 -5 19q11 18 33 52q7 14 23 9z" />
    <glyph glyph-name="quotedblbase" unicode="&#x201e;" horiz-adv-x="175" 
d="M137 63q20 -8 11 -23l-39 -49q-8 -14 -23 -8q-6 2 -7 8.5t2 10.5q11 18 33 52q7 14 23 9zM84 63q20 -8 11 -23l-39 -49q-8 -14 -23 -8q-6 2 -7 8.5t2 10.5q11 18 33 52q7 14 23 9z" />
    <glyph glyph-name="dagger" unicode="&#x2020;" 
d="M282 296q5 0 8.5 -6.5t3.5 -14.5q0 -21 -12 -21h-2h-71h-27q-3 -52 -7 -149q-1 -30 -4 -90.5t-4 -90.5l-6 -132q-1 -9 -1 -26t-1 -25q-2 -21 -21 -21q-9 0 -15.5 6t-5.5 15l3 60l6 138q2 58 8 184q2 43 6 131h-44h-59q-12 0 -12 21t12 21h1h72h32q0 17 1 25q2 63 8 181
l6 132q0 17 2 51q0 8 6 14.5t15 6.5q8 0 14.5 -6.5t6.5 -14.5v-1q-1 -19 -3 -59l-6 -138q-2 -31 -4.5 -92.5t-3.5 -91.5v-7h39h59z" />
    <glyph glyph-name="daggerdbl" unicode="&#x2021;" 
d="M181 706q8 0 14.5 -6.5t6.5 -14.5v-1q-1 -19 -3 -59l-6 -138q-2 -31 -4.5 -92.5t-3.5 -91.5l-9 -198q-2 -30 -4.5 -90.5t-3.5 -90.5l-6 -132q0 -9 -1 -26t-1 -25q-2 -21 -21 -21q-9 0 -15.5 6t-5.5 15l3 60l6 138q2 58 8 184l9 198q2 63 8 181l6 132q0 17 2 51
q0 8 6 14.5t15 6.5zM282 323q5 0 8.5 -6.5t3.5 -14.5q0 -21 -12 -21h-2h-71h-113h-59q-12 0 -12 21t12 21h1h72h113h59zM282 249q5 0 8.5 -6.5t3.5 -14.5q0 -21 -12 -21h-2h-71h-113h-59q-12 0 -12 21t12 21h1h72h113h59z" />
    <glyph glyph-name="bullet" unicode="&#x2022;" horiz-adv-x="154" 
d="M129 286q0 -22 -15 -37t-37 -15t-37 15t-15 37t15 37t37 15t37 -15t15 -37z" />
    <glyph glyph-name="ellipsis" unicode="&#x2026;" horiz-adv-x="366" 
d="M97 69q0 -15 -10.5 -25.5t-25.5 -10.5t-25.5 10.5t-10.5 25.5t10.5 25.5t25.5 10.5t25.5 -10.5t10.5 -25.5zM219 69q0 -15 -10.5 -25.5t-25.5 -10.5t-25.5 10.5t-10.5 25.5t10.5 25.5t25.5 10.5t25.5 -10.5t10.5 -25.5zM341 69q0 -15 -10.5 -25.5t-25.5 -10.5t-25.5 10.5
t-10.5 25.5t10.5 25.5t25.5 10.5t25.5 -10.5t10.5 -25.5z" />
    <glyph glyph-name="guilsinglleft" unicode="&#x2039;" horiz-adv-x="295" 
d="M263 486q13 -13 0 -30q-10 -12 -15 -17q-18 -23 -55 -68t-56 -68q-42 -52 -64 -78q11 -14 33.5 -40t34.5 -40q15 -17 44 -51.5t43 -51.5q12 -16 0 -30q-17 -15 -30 0q-14 16 -40.5 47.5t-39.5 47.5q-15 17 -43.5 51.5t-43.5 51.5q-12 15 0 30q10 12 14 17q7 8 112 136
q13 15 38.5 46t37.5 47q6 6 15 6t15 -6z" />
    <glyph glyph-name="guilsinglright" unicode="&#x203a;" horiz-adv-x="295" 
d="M32 12q-13 13 0 30q10 12 15 17q19 23 55.5 68t55.5 68q10 13 32 39t32 39q-12 13 -34.5 39.5t-33.5 40.5q-15 17 -44 51.5t-43 51.5q-12 16 0 30q17 15 30 0q14 -16 40 -47.5t40 -47.5q14 -17 43.5 -51.5t43.5 -51.5q12 -15 0 -30q-10 -12 -14 -17q-19 -22 -56.5 -67.5
t-55.5 -68.5q-13 -15 -38.5 -46t-37.5 -47q-6 -6 -15 -6t-15 6z" />
    <glyph glyph-name="fraction" unicode="&#x2044;" horiz-adv-x="322" 
d="M282 818q8 -2 12 -10t2 -16q0 -3 -1 -4q-3 -13 -9 -37t-9 -37q-8 -36 -35 -143q-14 -60 -44 -182q-9 -35 -25 -101t-22 -92l-42 -174q-11 -41 -31 -125q-2 -8 -6 -24.5t-6 -24.5q-1 -8 -9.5 -12t-16.5 -2q-19 5 -14 25q0 3 1 5q6 24 18 74q14 59 35 142q14 61 44 183
q8 32 23.5 96t23.5 96l42 174q11 42 31 126l12 48q1 9 9 13t17 2z" />
    <glyph glyph-name="minus" unicode="&#x2212;" horiz-adv-x="833" 
d="M424 296q5 0 8.5 -6.5t3.5 -14.5q0 -21 -12 -21h-2h-71h-255h-59q-12 0 -12 21t12 21h1h72h255h59z" />
    <glyph glyph-name="fi" unicode="&#xfb01;" horiz-adv-x="680" 
d="M468 259q7 -9 6.5 -16.5t-4.5 -12.5l-5 -6q-80 -69 -166 -86q-29 -6 -56 -6q-28 0 -55 6q2 -4 6.5 -10.5t8 -12t6.5 -10.5q58 -98 42 -188q-8 -46 -35 -72t-69 -26q-117 0 -158 138q-41 137 4 334t143 311q79 91 167 91q40 0 63 -23.5t25 -64.5q3 -49 -24 -113.5
t-75 -123.5q-52 -64 -115 -104q-39 -26 -83 -40q1 -1 5 -3.5t6 -4.5q37 -19 68 -29q138 -38 262 71l2 2t5 3t7.5 3t9 -0.5t9.5 -6.5zM303 648q-83 0 -152.5 -115.5t-101.5 -274.5q114 23 208 138q42 52 66.5 109t22.5 97q-2 46 -43 46zM207 -76q11 75 -37 159
q-48 83 -131 119q-11 -91 -7 -166t34 -123.5t81 -48.5t60 60zM516 378q-11 0 -19.5 8.5t-8.5 19.5t8.5 19t19.5 8t19 -8t8 -19t-8 -19.5t-19 -8.5zM696 262q9 -4 12 -11.5t2 -13.5l-2 -6q-18 -55 -59 -123q-77 -131 -156 -131q-60 0 -84.5 40t-17.5 92t21.5 96t26.5 57
q1 2 4 3.5t11 3t16 -5.5q5 -4 6 -11t0 -12l-2 -5q-23 -60 -21.5 -136.5t40.5 -76.5q54 0 117 108q15 26 29 55t21 45l6 16q0 1 1 2.5t3.5 5.5t5.5 6t8.5 3.5t11.5 -1.5z" />
    <glyph glyph-name="fl" unicode="&#xfb02;" horiz-adv-x="847" 
d="M468 259q7 -9 6.5 -16.5t-4.5 -12.5l-5 -6q-80 -69 -166 -86q-29 -6 -56 -6q-28 0 -55 6q2 -4 6.5 -10.5t8 -12t6.5 -10.5q58 -98 42 -188q-8 -46 -35 -72t-69 -26q-117 0 -158 138q-41 137 4 334t143 311q79 91 167 91q40 0 63 -23.5t25 -64.5q3 -49 -24 -113.5
t-75 -123.5q-52 -64 -115 -104q-39 -26 -83 -40q1 -1 5 -3.5t6 -4.5q37 -19 68 -29q138 -38 262 71l2 2t5 3t7.5 3t9 -0.5t9.5 -6.5zM303 648q-83 0 -152.5 -115.5t-101.5 -274.5q114 23 208 138q42 52 66.5 109t22.5 97q-2 46 -43 46zM207 -76q11 75 -37 159
q-48 83 -131 119q-11 -91 -7 -166t34 -123.5t81 -48.5t60 60zM862 261q10 -2 13 -9.5t1 -13.5l-1 -7q-18 -74 -67 -161q-40 -72 -84 -113q-60 -55 -124 -55q-110 0 -153 128q-43 126 -5 303q39 181 136 284q77 81 169 81q51 0 82.5 -31.5t34.5 -85.5q3 -53 -21 -110
q-27 -63 -74 -113q-52 -57 -125 -93q-69 -36 -159 -50q-2 -30 -2 -47q0 -102 31 -162q30 -59 86 -59q88 0 169 145q18 33 34 71t22.5 58t6.5 22q0 1 1 2.5t3 5.5t5.5 6t8.5 4t12 0zM747 653q-34 0 -65 -15.5t-54.5 -42t-39.5 -51t-29 -50.5q-54 -108 -69 -232
q152 25 246 127q41 43 63 94t20 96q-1 29 -17 51.5t-55 22.5z" />
    <glyph glyph-name="CR" horiz-adv-x="200" 
 />
    <glyph glyph-name="a.ss01" horiz-adv-x="1277" 
d="M1294 262q9 -4 11.5 -12t0.5 -14l-2 -7q-45 -89 -65 -122q-82 -130 -150 -130q-41 0 -60 34q-23 43 -4 125l6 24q-59 -42 -96 -42q-34 0 -50.5 20t-15.5 53q-38 -44 -59 -68q-123 -146 -205 -210q-134 -106 -278 -106q-137 0 -221 109q-8 11 -15.5 23t-13 22t-10 20
t-7.5 17.5t-5 13.5t-3 10l-1 3q-6 18 15 26q11 3 17.5 0t8.5 -9l3 -5q0 -2 4 -14t16 -36t28 -45q69 -90 184 -90q56 0 111 19.5t95 44t90 72t77.5 77.5t75.5 87q110 129 163 166q45 33 101 33q43 0 62 -50q8 -22 -14 -30q-9 -3 -16 0t-10 8l-2 5q-7 22 -20 22q-41 0 -79 -47
q-36 -46 -36 -82q0 -14 10 -14q27 0 83 44l54 47q2 2 4.5 3.5t11 3t15.5 -5.5q7 -5 8 -12t-1 -11l-3 -5q-24 -39 -38.5 -103t-0.5 -91q7 -11 21 -11q43 0 112 108q16 25 31.5 54.5t23.5 45.5l7 17q1 3 3.5 6.5t10.5 8t17 0.5z" />
    <glyph glyph-name="a.salt" horiz-adv-x="366" 
d="M383 262q9 -4 11.5 -11.5t0.5 -13.5l-2 -6l-18 -33q-79 -130 -156 -130q-52 0 -74 30t-21 75q-61 -55 -96 -55q-50 0 -59 50q-8 51 31 102q43 56 109 56q23 0 37 -14t12 -27.5t-11 -19.5q-13 -4 -22 6t-16 10q-39 0 -70 -53q-25 -43 -14 -60q3 -5 9 -5q12 0 27 8.5
t28.5 21.5t24.5 25.5t20 23.5t10 12v1q2 3 6 7q1 2 3.5 3.5t11 3t16.5 -5.5q5 -4 6 -11t-1 -12l-1 -5q-19 -60 -9.5 -91t43.5 -31q54 0 117 108q10 18 14 26q14 24 33 15z" />
    <glyph glyph-name="a.swsh" horiz-adv-x="1172" 
d="M1121 303q6 -20 -16 -25q-10 -2 -17 1.5t-8 8.5l-2 4q-13 48 -49 94q-70 91 -183 91q-47 0 -95.5 -19t-84.5 -43.5t-82.5 -71t-71.5 -76.5t-71 -86q-43 -53 -66.5 -80t-58.5 -61t-65 -48.5t-59 -14.5q-41 0 -61 34q-22 40 -4 125q4 16 7 24q-60 -42 -97 -42q-55 0 -65 52
q-9 54 33 111q52 70 137 70q41 0 62 -48v-1l1 -1q8 -21 -14 -30q-9 -3 -16 0t-9 8l-3 5q-7 22 -21 22q-41 0 -79 -47q-36 -46 -36 -82q0 -14 10 -14q28 0 84 44q13 10 26.5 22t20.5 19l7 6q2 2 4.5 3.5t11 3t15.5 -5.5q7 -5 8 -12t-2 -11l-2 -5q-25 -39 -39.5 -103t0.5 -91
q5 -11 21 -11q22 0 46 13.5t56 46t52 55.5t60 72q115 144 192 208q123 105 248 105q138 0 220 -110q18 -24 32 -51t18.5 -41t4.5 -17z" />
    <glyph glyph-name="u.ss01" horiz-adv-x="1377" 
d="M1393 262q9 -4 12 -11.5t1 -13.5l-1 -6q-19 -55 -59 -123q-77 -131 -156 -131q-56 0 -76 45t-14 112q-59 -73 -104 -73q-83 0 -79 93q-82 -91 -167 -161q-231 -193 -423 -193q-136 0 -220 110q-8 11 -15.5 23t-13 22t-10 20t-8 17.5t-5.5 13.5t-3 10l-1 3q-4 23 18 27
q9 2 15.5 -2t8.5 -8l2 -5q0 -2 4 -14t16 -36t28 -45q70 -91 184 -91q176 0 394 182q108 91 229 231l4 4q1 2 3.5 3.5t11 3t16.5 -5.5q5 -4 6 -11t-1 -12l-1 -5q-42 -129 7 -129q20 0 50 31t48 57t33 52q2 6 9 16q1 2 4 3.5t11 3t16 -5.5q5 -4 6.5 -11t0.5 -12l-2 -5
q-23 -60 -22 -136.5t40 -76.5q53 0 117 108q15 26 29 55t20 45l7 16q0 1 1 2.5t3.5 5.5t5.5 6t8.5 3.5t11.5 -1.5z" />
    <glyph glyph-name="u.salt" horiz-adv-x="360" 
d="M377 262q9 -4 11.5 -11.5t0.5 -13.5l-2 -6l-18 -33q-79 -130 -157 -130q-71 0 -89 62q-39 -68 -87 -69q-44 0 -63 27t-15 63t15 67.5t22 43.5q1 2 3.5 3.5t11 3t16.5 -5.5q5 -4 6 -11t0 -12l-2 -5q-42 -129 6 -129q43 0 91 122q8 25 17 34q1 2 3.5 3.5t11 3t16.5 -5.5
q5 -4 6 -11t-1 -12l-1 -5q-19 -60 -9.5 -91t42.5 -31q53 0 118 108q10 18 14 26q14 24 33 15z" />
    <glyph glyph-name="u.swsh" horiz-adv-x="1211" 
d="M1160 303q6 -20 -16 -25q-10 -2 -17 1.5t-9 8.5l-1 4q-13 48 -48 94q-71 91 -184 91q-47 0 -95.5 -19t-84.5 -43.5t-82.5 -71t-71.5 -76.5t-71 -86q-43 -53 -66.5 -80t-58.5 -61t-65 -48.5t-59 -14.5q-56 0 -76 45t-14 112q-59 -73 -105 -73q-44 0 -63 27t-15 63t15 67.5
t22 43.5q1 2 3.5 3.5t11 3t16.5 -5.5q5 -4 6 -11t0 -12l-2 -5q-42 -129 6 -129q20 0 50.5 31t48.5 57t33 52q2 6 9 16q1 2 4 3.5t11 3t16 -5.5q5 -4 6 -11t0 -12l-2 -5q-23 -60 -21.5 -136.5t40.5 -76.5q22 0 46 13.5t56 46t52 55.5t60 72q115 144 192 208q123 105 248 105
q137 0 220 -110q18 -24 32 -51t18.5 -41t4.5 -17z" />
    <glyph glyph-name="i.ss01" horiz-adv-x="1195" 
d="M1211 262q9 -4 12 -11.5t1 -13.5l-1 -6q-19 -55 -59 -123q-78 -131 -156 -131q-48 0 -74 26.5t-27 64.5t5 79q-91 -95 -162 -154q-231 -193 -423 -193q-136 0 -220 110q-8 11 -15.5 23t-13 22t-10 20t-8 17.5t-5.5 13.5t-3 10l-1 3q-4 23 18 27q9 2 15.5 -2t8.5 -8l2 -5
q0 -2 4 -14t16 -36t28 -45q70 -91 184 -91q176 0 394 182q111 94 233 235q13 13 31 1q5 -4 6 -11t-1 -12l-1 -5q-23 -60 -21.5 -136.5t40.5 -76.5q53 0 117 108q15 26 29 55t20 45l7 16q0 1 1 2.5t3.5 5.5t5.5 6t8.5 3.5t11.5 -1.5zM1031 379q-11 0 -19.5 8t-8.5 19
t8.5 19.5t19.5 8.5t19 -8.5t8 -19.5t-8 -19t-19 -8z" />
    <glyph glyph-name="i.salt" horiz-adv-x="211" 
d="M52 322q-11 0 -19 8t-8 19q0 12 8 20t19 8q12 0 20 -8t8 -20q0 -11 -8 -19t-20 -8zM228 262q9 -4 11 -11.5t0 -13.5l-2 -6l-18 -33q-77 -130 -156 -130q-50 0 -75 26t-24 60.5t10 65t20 42.5q1 2 4 3.5t11 3t16 -5.5q5 -4 6 -11t-1 -12l-1 -5q-19 -60 -9.5 -91t43.5 -31
q54 0 117 108q10 18 14 26q14 24 34 15z" />
    <glyph glyph-name="i.swsh" horiz-adv-x="1029" 
d="M71 379q-11 0 -19.5 8t-8.5 19t8.5 19.5t19.5 8.5t19 -8.5t8 -19.5t-8 -19t-19 -8zM978 303q5 -20 -17 -25q-10 -2 -17 1.5t-8 8.5l-2 4q-13 48 -48 94q-71 91 -184 91q-47 0 -95.5 -19t-84.5 -43.5t-82.5 -71t-71.5 -76.5t-71 -86q-44 -54 -66.5 -80t-58 -60.5t-65 -49
t-59.5 -14.5q-60 0 -84.5 40t-17.5 92t21.5 96t26.5 57q1 2 4 3.5t11 3t16 -5.5q5 -4 6.5 -11t0.5 -12l-2 -5q-23 -60 -22 -136.5t40 -76.5q22 0 46 13.5t56 46t52 55.5t60 72q119 147 192 208q123 105 248 105q138 0 220 -110q8 -11 15.5 -22.5t13 -22t10 -20t8 -17.5
t5.5 -14t3 -10z" />
    <glyph glyph-name="e.ss01" horiz-adv-x="1448" 
d="M1466 259q8 -5 10 -12.5t0 -12.5l-2 -5q-1 -4 -15.5 -27.5t-43.5 -62.5t-64 -74.5t-82.5 -61.5t-93.5 -26v0v0q-44 0 -74.5 19t-43 50t-14 69t11.5 76q-54 0 -123 -42q-49 -30 -158 -121q-63 -54 -100.5 -83t-99 -68.5t-122.5 -58t-125 -18.5q-137 0 -221 110
q-18 24 -32 51t-18.5 41t-4.5 17q-6 18 16 26q10 4 16.5 0.5t8.5 -9.5l2 -5l2 -5q2 -6 5.5 -15.5t9 -21t14 -26t18.5 -27.5q70 -91 184 -91q47 0 95.5 14t84.5 30.5t85 51.5t75.5 56.5t77.5 64.5q45 38 67 56t62 46.5t67 41.5t62.5 22.5t68.5 7.5q25 50 66.5 81.5t90.5 31.5
q35 0 47 -29q20 -40 -15 -85q-24 -30 -61 -42q-22 -7 -51 -7q-17 0 -26 2q-14 -42 -14 -79q0 -41 17 -64q16 -23 49 -23q20 0 42 8t41.5 21t39.5 30t37 36t32 37.5t27.5 35.5t21 30t13.5 21l5 8q1 2 3.5 5t11 7.5t17.5 -2.5zM1229 304q-44 0 -82 -62q-1 -2 -3 -5.5t-3 -5.5
q57 -3 84 32q6 7 9.5 17t2 17t-7.5 7z" />
    <glyph glyph-name="e.salt" horiz-adv-x="288" 
d="M308 260q8 -4 9.5 -12t-1.5 -14l-2 -5q-9 -15 -27 -39t-51.5 -62t-77.5 -64t-85 -26q-85 0 -107 73q-19 66 21 141q43 79 116 95l31 3q34 0 48 -29q20 -41 -16 -85q-24 -30 -61 -42q-22 -7 -50 -7q-9 0 -31 2q-13 -40 -0.5 -73t49.5 -33q32 0 68 22.5t64.5 55t44.5 54
t23 34.5q15 22 35 11zM134 305q-55 0 -93 -72q62 -6 90 31q10 13 11.5 26.5t-8.5 14.5z" />
    <glyph glyph-name="e.swsh" horiz-adv-x="1061" 
d="M1010 303q6 -20 -16 -25q-10 -2 -17 1.5t-9 8.5l-1 4q-13 48 -49 94q-70 91 -184 91q-47 0 -95 -19t-84 -43.5t-82.5 -71t-71.5 -76.5t-71 -86q-37 -45 -53.5 -64.5t-48 -53t-51.5 -47.5t-46.5 -26.5t-50.5 -12.5q-95 0 -123 83q-24 76 16 165q38 87 110 114q25 10 51 10
q34 0 48 -29q20 -41 -16 -85q-24 -30 -61 -42q-21 -7 -50 -7q-17 0 -27 2q-13 -44 -13 -79q0 -40 16 -64q16 -23 49 -23q22 0 46.5 13.5t56.5 46t52 55.5t60 72q115 144 191 208q124 105 248 105q138 0 221 -110q18 -24 32 -51t18.5 -41t4.5 -17zM134 304q-43 0 -81 -62
q-1 -2 -3 -5.5t-3 -5.5q57 -3 84 32q6 7 9.5 17t2 17t-8.5 7z" />
    <glyph glyph-name="c.ss01" horiz-adv-x="1248" 
d="M1266 259q8 -5 10 -12.5t0 -12.5l-2 -5q-1 -4 -15.5 -27.5t-43.5 -62.5t-64 -74.5t-82.5 -61.5t-93.5 -26v0v0q-80 0 -111 57t-15 134q-19 -21 -39 -45q-129 -151 -205 -210q-135 -106 -278 -106q-139 0 -221 110q-18 24 -32 50.5t-18.5 40.5t-4.5 17q-6 18 15 26
q11 3 17.5 0t8.5 -9l2 -5l2 -5q2 -6 5.5 -15.5t9 -21t14 -26t18.5 -27.5q69 -90 184 -90q46 0 90.5 11.5t86 36t74 48.5t72.5 65t63.5 67t62.5 72q103 122 157 161q44 36 96 36q44 0 57 -38q9 -28 -3 -62q-13 -35 -35 -51q-19 -14 -33 2q-6 9 -4.5 16t5.5 12l4 5
q13 10 20.5 30.5t2.5 32.5q-3 8 -14 8q-44 0 -82 -62q-38 -64 -38 -133q0 -41 17 -64q16 -23 49 -23q20 0 42 8t41.5 21t39.5 30t37 36t32 37.5t27.5 35.5t21 30t13.5 21l5 8q1 2 3.5 5t11 7.5t17.5 -2.5z" />
    <glyph glyph-name="c.salt" horiz-adv-x="288" 
d="M308 260q8 -4 9.5 -12t-1.5 -14l-2 -5q-9 -15 -27 -39t-51.5 -62t-77.5 -64t-85 -26q-85 0 -107 73q-19 66 21 141q43 79 116 95l31 3l1 -1q43 0 56 -38q10 -26 -3 -62q-11 -34 -35 -51q-19 -14 -32 2q-6 9 -4.5 16t5.5 12l4 5q12 10 19.5 30.5t3.5 32.5q-3 8 -15 8l-1 1
q-52 -1 -89 -67q-35 -62 -23 -113q10 -42 52 -42q32 0 68.5 23t64 54.5t44.5 54.5t23 34q15 22 35 11z" />
    <glyph glyph-name="c.swsh" horiz-adv-x="1060" 
d="M1009 303q6 -20 -16 -25q-10 -2 -17 1.5t-8 8.5l-2 4q-13 48 -49 94q-70 91 -183 91q-47 0 -95.5 -19t-84.5 -43.5t-82.5 -71t-71.5 -76.5t-71 -86q-43 -53 -66.5 -80t-58.5 -61t-65 -48.5t-59 -14.5q-96 0 -123 83q-25 76 15 165q39 87 111 114q25 10 51 10q43 0 57 -38
q10 -29 -4 -62q-11 -33 -34 -51q-20 -14 -33 2q-6 9 -4.5 16t5.5 12l4 5q12 10 19.5 30.5t3.5 32.5q-3 8 -14 8q-44 0 -82 -62q-38 -64 -38 -133q0 -40 16 -64q16 -23 50 -23q22 0 46 13.5t56 46t52 55.5t60 72q115 144 192 208q123 105 248 105q138 0 220 -110
q18 -24 32 -51t18.5 -41t4.5 -17z" />
    <glyph glyph-name="o.ss01" horiz-adv-x="1338" 
d="M1357 259q9 -5 10.5 -13.5t-1.5 -13.5l-3 -6q-20 -40 -62 -80q-77 -74 -170 -80l-1 -1q-48 -88 -114 -88q-65 0 -91.5 49t-16.5 118q-84 -90 -158 -151q-231 -193 -423 -193q-136 0 -221 110q-8 11 -15.5 23t-13 22t-10 20t-7.5 17.5t-5 13.5t-3 10l-1 3q-4 23 18 27
q9 2 15.5 -2t8.5 -8l2 -5q0 -2 4 -14t16 -36t28 -45q70 -91 184 -91q176 0 394 182q108 91 229 231q10 14 15 20q7 7 18 8q3 6 9 16q34 48 83 48q50 0 76 -41q21 -31 21 -85q0 -55 -20 -110q31 6 60.5 22t48.5 34t33.5 36t21.5 29t7 12q2 3 4.5 6t11.5 8.5t18 -2.5zM1016 22
q34 0 63 46q-51 8 -81 41q-18 18 -27 44q-12 -48 -1 -89.5t46 -41.5zM1102 110q25 58 25 114q0 39 -14 61q-11 20 -38 20q-25 0 -46 -29q-21 -30 -21 -71t23 -66q24 -26 71 -29z" />
    <glyph glyph-name="o.salt" horiz-adv-x="356" 
d="M378 259q8 -8 7.5 -16t-5.5 -14l-4 -6q-7 -9 -24.5 -25t-68 -39t-107.5 -25q-8 -16 -13 -24q-45 -72 -110 -72q-48 0 -73 34.5t-19 90.5t41 115q7 6 16 8q9 21 21 33q29 31 74 31t70 -34q19 -28 19 -74q0 -30 -9 -62q57 6 103 35q13 8 24 17t16 14l5 5q2 3 5.5 5.5t14 7
t17.5 -4.5zM125 134l1 2q-76 13 -103 66q-14 -40 -6 -79.5t36 -39.5q40 0 72 51zM146 179q11 33 11 63q0 31 -11 48q-11 15 -33 15q-26 0 -41 -17t-15 -39q0 -27 22 -46q24 -19 67 -24z" />
    <glyph glyph-name="o.swsh" horiz-adv-x="1207" 
d="M1155 296q7 -20 -14 -27q-10 -4 -17.5 0t-9.5 10l-3 6q-13 48 -48 94q-70 91 -184 91q-53 0 -103 -16t-101 -52t-82.5 -63t-86.5 -78q-107 -99 -159 -134q-90 -59 -176 -62q-48 -88 -114 -88q-69 0 -95.5 56.5t-11.5 127t55 117.5q8 7 18 8q3 6 9 16q34 48 84 48t76 -41
q21 -34 21 -85q0 -50 -20 -110l-1 -2q36 5 71.5 20t76 46t64 51t71.5 65q116 108 181 149q110 72 223 72q137 0 221 -110q8 -11 15.5 -22.5t13 -22t10 -20t7.5 -17.5t5 -14l3 -9zM57 22q32 0 63 46q-50 7 -82 41q-17 19 -26 44q-12 -48 -1.5 -89.5t46.5 -41.5zM71 139
q26 -26 72 -29q25 62 25 114q0 39 -14 61q-13 20 -38 20q-26 0 -47 -29q-21 -32 -21 -71q0 -41 23 -66z" />
    <glyph glyph-name="t.ss01" horiz-adv-x="1381" 
d="M1394 262q10 -2 13.5 -9.5t2.5 -14.5l-1 -6q-23 -90 -78 -199q-44 -86 -95 -139q-68 -68 -141 -68q-71 0 -111 47t-47.5 128.5t2 171t34.5 192.5q-43 -75 -93 -145q-122 -171 -243 -264q-156 -121 -310 -121q-86 0 -150 35q-51 26 -85 76q-16 25 -26 53t-12.5 41.5
t-2.5 17.5q-3 21 20 24q10 1 16 -4t7 -10l1 -6q0 -3 2 -14t11 -34.5t23 -43.5q61 -90 196 -90q257 0 516 366q47 67 97 151h-69q-23 0 -23 22q0 10 6 15.5t12 6.5l5 1h95q48 86 82 161q20 50 40 90q1 3 4 6t12 8.5t18 -1.5q8 -4 10 -12t0 -14l-3 -5q-40 -98 -74 -233h109
q23 1 23 -22q0 -10 -5.5 -16t-11.5 -6l-6 -1h-120q-24 -98 -36 -185.5t-12 -167t25 -126.5t74 -47q104 0 196 182q21 42 39.5 90t26.5 73.5t8 27.5q1 2 2.5 6t9 9t17.5 3z" />
    <glyph glyph-name="t.salt" horiz-adv-x="285" 
d="M301 262q9 -4 12 -11.5t1 -13.5l-1 -6q-19 -55 -59 -123q-77 -131 -156 -131q-52 0 -82 31t-36 83t0 107t22 116h-54q-23 -1 -23 21q0 10 5.5 16t11.5 7l6 1h67q22 67 43 103q1 2 3.5 4t10 5.5t15.5 -2.5q8 -4 9.5 -13t-0.5 -16l-3 -6q-16 -42 -25 -75h53q3 0 6.5 -0.5
t10 -6.5t6.5 -16t-6 -15.5t-12 -6.5h-5h-65q-27 -104 -18.5 -198t60.5 -94q53 0 117 108q15 26 29 55t20 45l7 16q0 1 1 2.5t3.5 5.5t5.5 6t8.5 3.5t11.5 -1.5z" />
    <glyph glyph-name="t.calt" horiz-adv-x="415" 
d="M428 262q10 -2 13.5 -9.5t2.5 -14.5l-1 -6q-23 -90 -78 -199q-45 -88 -95 -140q-69 -67 -141 -67q-65 0 -104 41.5t-51 107t-6 153t24 172t45 172.5q-16 2 -34.5 4.5t-40.5 5.5t-35 5q-241 36 -344 30q-154 -10 -209 -108q-1 -2 -3.5 -4.5t-10.5 -6t-17 2.5
q-9 4 -11 11.5t0 13.5l3 5q35 64 102 96q56 29 143 35q103 7 354 -30q78 -12 117 -17q36 110 71 178q1 3 4 6t11.5 8.5t18.5 -1.5q8 -4 10 -12t0 -14l-3 -5q-27 -66 -56 -167q133 -14 220 -9q30 3 32 -19q1 -10 -5.5 -16.5t-13.5 -7.5l-6 -1q-21 -2 -62 -2q-83 0 -177 11
q-28 -103 -45 -201t-20.5 -189.5t21.5 -147t78 -55.5q102 0 196 182q21 42 39.5 90t26.5 73.5t8 27.5q1 2 2.5 6t9 9t17.5 3z" />
    <glyph glyph-name="t.dlig" horiz-adv-x="415" 
d="M873 513q4 -10 0.5 -17.5t-9.5 -9.5l-5 -3q-89 -30 -212 -30q-113 0 -345 34q-138 21 -193 26q-31 -106 -51 -210.5t-27 -205.5t17.5 -163.5t81.5 -62.5q103 0 195 182q21 42 40 90t27 73.5t8 27.5q1 2 2.5 6t9 9t17.5 3t13.5 -9.5t1.5 -14.5l-1 -6q-24 -94 -77 -199
q-44 -87 -96 -139q-66 -68 -140 -68q-69 0 -108.5 46t-49.5 117.5t-0.5 166t30.5 183.5t50 178q-49 3 -94 0q-154 -10 -209 -108q-1 -2 -3.5 -4.5t-10.5 -6t-17 2.5q-9 4 -11 11.5t1 13.5l2 5q35 64 102 96q56 29 143 35q57 3 112 -1q25 71 56 132q1 3 4 6t11.5 8.5
t18.5 -1.5q8 -4 9.5 -12t-0.5 -14l-2 -5q-22 -53 -42 -118q23 -2 187 -25q95 -14 147 -20.5t131 -12t141 1t116 24.5q22 8 29 -12z" />
    <glyph glyph-name="t.swsh" horiz-adv-x="1110" 
d="M1059 152q5 -20 -16 -25q-10 -2 -17 1.5t-9 7.5l-2 5q-12 48 -48 94q-70 91 -184 91q-47 0 -95 -19t-84.5 -43.5t-82.5 -71t-72 -77t-71 -85.5q-44 -54 -66.5 -80t-58 -60.5t-65 -49t-59.5 -14.5q-60 0 -97.5 35t-52 90.5t-13 132t14.5 153.5t35 160h-111q-23 0 -23 22
q0 10 6 15.5t12 6.5l5 1h123q45 155 94 251q1 3 4 6t12 8.5t18 -1.5q8 -4 10 -12t0 -14l-3 -5q-40 -98 -74 -233h109q23 1 23 -22q0 -10 -5.5 -16t-11.5 -6l-6 -1h-120q-24 -98 -36 -185.5t-12 -167t25 -126.5t74 -47q29 0 68.5 30.5t67 62t78.5 94.5q119 147 192 208
q124 105 248 105q137 0 221 -110q8 -11 15.5 -22.5t13 -22t10 -20t7.5 -17.5t5 -14l3 -9z" />
    <glyph glyph-name="b.ss01" horiz-adv-x="1364" 
d="M1051 190q-49 -39 -86 -62q3 -48 13 -83q14 22 22 33q33 49 65 81q43 41 77 41q37 0 58 -25q17 -22 17 -56q0 -68 -54 -138q-60 -77 -137 -77q-24 -2 -24 22q0 11 6 16.5t12 5.5l6 1q55 0 101 60q45 56 45 110q0 36 -30 36q-35 0 -105 -102q-6 -9 -43 -67q-5 -9 -12.5 -9
t-13.5 5l-5 4q-31 38 -44 113q-90 -53 -185 -89q-196 -75 -406 -75q-114 0 -181 33q-62 30 -85 84q-18 51 -6 99t44 79q2 2 5 4.5t12 5.5t16 -6q7 -8 7 -16t-4 -14l-5 -5q-23 -23 -32 -58t4 -71q16 -38 63 -61q61 -29 162 -29q309 0 585 168q-5 85 14 180.5t57 179t102 138
t140 54.5q52 0 80 -28t28 -74q0 -80 -76 -192q-78 -115 -207 -216zM972 256q-5 -35 -7 -74q32 22 58 43q124 98 195 202.5t71 170.5q0 28 -14 42q-15 15 -49 15q-84 0 -158 -122q-72 -118 -96 -277z" />
    <glyph glyph-name="b.salt" horiz-adv-x="376" 
d="M238 175q18 -21 18 -56q0 -68 -55 -138q-60 -77 -136 -77q-25 -2 -25 22q0 11 6 16.5t12 5.5l7 1q54 0 101 60q45 58 45 110q0 22 -8 29t-23 7q-34 0 -105 -102q-24 -37 -42 -67q-12 -21 -24 -21q-6 0 -10.5 5t-6.5 10l-1 6q-14 101 -8.5 200t29 204.5t46.5 179t45 123.5
q1 3 4 6t12 8.5t18 -1.5q8 -4 10 -12t0 -14l-2 -5q-44 -120 -80.5 -298t-36.5 -314q2 2 5 7t5 8q36 51 66 81q43 41 76 41q39 0 58 -25z" />
    <glyph glyph-name="b.calt" horiz-adv-x="498" 
d="M515 262q9 -4 11.5 -12t-0.5 -14l-2 -7q-46 -92 -65 -122q-80 -130 -149 -130q-41 0 -59 32q-9 -16 -19 -28q-60 -77 -137 -77q-25 -2 -25 22q0 11 6 16.5t12 5.5l7 1q54 0 101 60q45 56 45 110q0 36 -30 36q-35 0 -105 -102q-6 -9 -43 -67q-5 -9 -13 -9t-13 5l-5 4
q-31 37 -43 106t-6.5 147.5t30 161t62.5 148.5t95.5 108.5t123.5 42.5q52 0 83.5 -31.5t34.5 -85.5q3 -50 -22 -111t-73 -112q-54 -58 -125 -94q-70 -36 -156 -48q-9 -105 11 -173q14 22 22 33q33 49 65 81q43 41 77 41q37 0 58 -25q17 -22 17 -56q0 -15 -3 -32
q-3 -38 6 -54q5 -11 21 -11q44 0 111 108q16 26 31.5 55t23.5 45l7 17q1 3 3.5 6.5t11 8t17.5 0.5zM294 655q-83 0 -157 -122q-69 -113 -95 -269q148 25 242 126q41 44 63 95.5t20 94.5q-5 75 -73 75z" />
    <glyph glyph-name="b.dlig" horiz-adv-x="467" 
d="M484 262q9 -4 11.5 -12t0.5 -14l-2 -7q-46 -92 -65 -122q-80 -130 -150 -130q-40 0 -58 32q-6 -10 -20 -28q-60 -77 -136 -77q-25 -2 -25 22q0 11 6 16.5t12 5.5l7 1q54 0 101 60q45 58 45 110q0 36 -30 36q-35 0 -106 -102q-24 -37 -42 -67q-12 -21 -24 -21
q-6 0 -10.5 5t-6.5 10l-1 6q-14 101 -8.5 200t29 204.5t46.5 179t45 123.5q1 3 4 6t12 8.5t18 -1.5q8 -4 10 -12t0 -14l-2 -5q-44 -120 -80.5 -298t-36.5 -314q2 2 5 7t5 8q36 51 66 81q43 41 77 41q38 0 57 -25q18 -21 18 -56q0 -17 -4 -32q-3 -36 6 -54q7 -11 21 -11
q45 0 112 108q16 25 31.5 54.5t23.5 45.5l7 17q1 3 3.5 6.5t10.5 8t17 0.5z" />
    <glyph glyph-name="b.swsh" horiz-adv-x="1140" 
d="M1089 321q3 -25 -20 -27q-10 -1 -16 5t-7 12l-1 6q-2 20 -8.5 37.5t-22 37t-46 31t-72.5 11.5q-90 0 -194 -78q-64 -49 -191 -180q-128 -134 -196 -185q-53 -40 -105 -63q-59 -24 -115 -24q-25 -2 -25 22q0 11 6 16.5t12 5.5l7 1q54 0 101 60q45 56 45 110q0 36 -30 36
q-35 0 -105 -102q-23 -33 -43 -67q-5 -9 -13 -9t-13 5l-5 4q-31 37 -43 106t-6.5 147.5t30 161t62.5 148.5t95.5 108.5t123.5 42.5q52 0 83.5 -31.5t34.5 -85.5q3 -50 -22 -111t-73 -112q-54 -58 -125 -94q-70 -36 -156 -48q-9 -105 11 -173l21 33q36 51 66 81q43 41 77 41
q38 0 57 -25q18 -21 18 -56q0 -59 -43 -123q15 9 45 31q69 52 191 180q125 131 196 185q51 39 106 63q59 24 115 24q94 0 144 -50q45 -42 49 -108zM294 655q-83 0 -157 -122q-69 -113 -95 -269q148 25 242 126q41 44 63 95.5t20 94.5q-5 75 -73 75z" />
    <glyph glyph-name="d.ss01" horiz-adv-x="1506" 
d="M1519 262q10 -2 13.5 -9.5t2.5 -14.5l-1 -6q-23 -90 -78 -199q-45 -88 -95 -140q-69 -67 -141 -67q-55 0 -91.5 29t-52 78.5t-19 115t7.5 137.5q-21 -18 -33 -26q-58 -42 -97 -42q-34 0 -50.5 20.5t-14.5 52.5l-60 -68q-123 -146 -205 -210q-134 -106 -278 -106
q-137 0 -221 109q-8 11 -15.5 23t-13 22t-10 20t-7.5 17.5t-5 13.5t-3 10l-1 3q-6 18 15 26q11 3 17.5 0t8.5 -9l3 -5q0 -2 4 -14t16 -36t28 -45q69 -90 184 -90q56 0 111 19.5t95 44t90 72t77.5 77.5t75.5 87q115 136 173 172q41 27 91 27q32 0 49 -27q49 218 124 369
q1 3 4 6t12 8.5t18 -1.5q8 -4 9.5 -12t-0.5 -14l-2 -5q-22 -52 -45 -128.5t-45 -167.5t-33 -180.5t-10 -163t26 -119t73 -45.5q104 0 196 182q21 42 39.5 90t26.5 73.5t8 27.5q1 2 2.5 6t9 9t17.5 3zM1073 254l2 2v1l-2 -3q-1 2 -3 12.5t-4 18t-9 14.5t-17 7q-40 0 -78 -47
q-36 -44 -36 -82q0 -14 9 -14q28 0 84 44z" />
    <glyph glyph-name="d.salt" horiz-adv-x="468" 
d="M484 262q9 -4 12 -11.5t2 -13.5l-2 -6q-18 -55 -59 -124q-79 -130 -156 -130q-131 0 -115 209q-21 -18 -33 -26q-59 -42 -97 -42q-55 0 -64 52q-10 54 33 111q52 70 136 70q33 0 47 -25q20 85 49 165.5t49 113.5q1 2 3.5 4t10 5.5t15.5 -2.5q8 -4 9.5 -13t-0.5 -15l-3 -7
q-25 -63 -50 -150t-43 -181.5t-6 -159t59 -64.5q54 0 117 108q15 26 29 55t21 45l6 16q0 1 1 2.5t3.5 5.5t5.5 6t8.5 3.5t11.5 -1.5zM174 254v0q-1 2 -3 12.5t-4 18t-9 14.5t-17 7q-40 0 -78 -47q-36 -44 -36 -82q0 -14 9 -14q28 0 84 44z" />
    <glyph glyph-name="d.calt" horiz-adv-x="550" 
d="M564 262q9 -2 12.5 -9.5t2.5 -14.5l-1 -6q-24 -94 -77 -199q-46 -90 -96 -140q-67 -67 -141 -67q-56 0 -93 30.5t-51.5 81.5t-17.5 118.5t9 141.5q-51 -45 -85 -45q-43 0 -49 43q-6 46 30 89q35 41 86 41q21 0 37 -16q49 227 127 383q1 3 4 6t12 8.5t18 -1.5q8 -4 10 -12
t0 -14l-2 -5q-22 -52 -45.5 -128.5t-45.5 -167.5t-33 -180.5t-10 -163t26 -119t73 -45.5q104 0 196 182q21 42 40 90t27 73.5t8 27.5q1 2 2.5 6t9 9t17.5 3zM31 191q7 0 15 3.5t16 9.5t15 12t15 15t12.5 14t10.5 13l6 7q1 1 1 5q-4 19 -29 19q-33 0 -59 -46q-21 -37 -10 -49
z" />
    <glyph glyph-name="d.dlig" horiz-adv-x="414" 
d="M430 262q9 -4 12 -11.5t2 -13.5l-2 -6q-18 -55 -59 -124q-79 -130 -156 -130q-136 0 -114 222q-52 -46 -87 -46q-43 0 -49 43q-6 46 31 89q35 41 86 41q21 0 37 -16q19 89 49.5 175t51.5 120q1 2 3.5 4t10 5.5t15.5 -2.5q8 -4 9.5 -13t-0.5 -15l-3 -7q-25 -63 -50 -150
t-43 -181.5t-6 -159t59 -64.5q54 0 117 108q15 26 29 55t21 45l6 16q0 1 1 2.5t3.5 5.5t5.5 6t8.5 3.5t11.5 -1.5zM31 191q6 0 13.5 3t14 7t14 10.5t13 12t12.5 13t10.5 11.5t8.5 10l5 7q0 3 1 5q-8 19 -29 19q-33 0 -60 -46q-21 -37 -10 -49z" />
    <glyph glyph-name="d.swsh" horiz-adv-x="1222" 
d="M1171 322q2 -27 -20 -27q-10 0 -16 6t-7 11l-1 6q-4 45 -37 81t-112 36q-87 0 -183 -99q-63 -65 -169 -225q-96 -141 -144 -193q-40 -44 -76 -66q-43 -26 -85 -26q-72 0 -112.5 50.5t-46.5 130.5t4 179q-21 -18 -33 -26q-59 -42 -96 -42q-55 0 -65 52q-9 54 33 111
q52 70 137 70q33 0 48 -27q49 218 124 369q1 3 4 6t12 8.5t18 -1.5q8 -4 10 -12t0 -14l-2 -5q-22 -52 -45.5 -128.5t-45.5 -167.5t-33 -180.5t-10 -163t26 -119t73 -45.5q57 0 128 77q45 49 139 188q110 164 174 231q110 113 216 113q92 0 144 -50q45 -43 49 -108zM174 254
q1 1 3 2v1l-3 -3q-1 2 -3 12.5t-4 18t-8.5 14.5t-16.5 7q-41 0 -79 -47q-36 -46 -36 -82q0 -14 10 -14q27 0 83 44z" />
    <glyph glyph-name="h.ss01" horiz-adv-x="1451" 
d="M1465 262q9 -2 12.5 -9.5t2.5 -14.5l-1 -7l-9 -29q-10 -29 -28 -77t-37 -91q-41 -91 -75 -138q-52 -70 -101 -70q-33 0 -52 22q-21 23 -23.5 73t6.5 100q6 62 6 84q-1 36 -10 45q-5 5 -13 5q-35 0 -106 -102q-24 -37 -42 -67q-5 -9 -13 -9t-13 5l-5 4q-33 40 -45 113
q-88 -53 -184 -89q-197 -75 -407 -75q-112 0 -181 33q-63 31 -85 84q-18 51 -6 98.5t44 79.5q2 2 5 4.5t12.5 5.5t16.5 -6q7 -8 7 -16t-5 -14l-4 -5q-23 -23 -32 -58t4 -71q16 -38 63 -61q60 -29 161 -29q308 0 586 168q-5 85 14 180.5t57 179t101.5 138t139.5 54.5
q53 0 81 -28t28 -74q0 -80 -76 -192q-81 -117 -207 -216q-43 -34 -86 -62q1 -41 13 -83l21 33q36 51 66 81q43 41 77 41q28 0 46 -20q20 -22 21.5 -68.5t-6.5 -95.5q-11 -119 6 -138q7 -7 19 -7q27 0 64 51q35 47 71 130q19 42 36.5 90t26.5 75l9 27q0 1 1 2.5t3 5.5t5 6
t8.5 4t11.5 0zM973 256q-7 -44 -8 -74q19 12 59 43q124 98 195 203t71 170q0 28 -14 42q-16 15 -50 15q-82 0 -158 -122q-73 -119 -95 -277z" />
    <glyph glyph-name="h.salt" horiz-adv-x="489" 
d="M503 262q9 -2 12.5 -9.5t2.5 -14.5l-1 -7l-9 -29q-10 -29 -28 -77t-37 -91q-41 -92 -76 -138q-51 -70 -100 -70q-34 0 -52 22q-21 23 -23.5 73t6.5 100q6 62 6 84q-1 36 -10 45q-5 5 -13 5q-35 0 -106 -102q-24 -37 -42 -67q-12 -21 -24 -21q-6 0 -10.5 5t-6.5 10l-1 6
q-14 101 -8.5 200t29 204.5t46.5 179t45 123.5q1 3 4 6t12 8.5t18 -1.5q8 -4 10 -12t0 -14l-2 -5q-44 -120 -80.5 -298t-36.5 -314q2 2 5 7t5 8q36 51 66 81q43 41 77 41q28 0 46 -20q20 -22 21.5 -68.5t-6.5 -95.5q-11 -119 6 -138q7 -7 19 -7q27 0 64 51q35 47 71 130
q19 42 36.5 90t26.5 75l9 27q0 1 1 2.5t3 5.5t5 6t8.5 4t11.5 0z" />
    <glyph glyph-name="h.calt" horiz-adv-x="519" 
d="M533 262q9 -2 12.5 -9.5t2.5 -14.5l-1 -7l-9 -29q-10 -29 -28 -77t-37 -91q-41 -91 -75 -138q-52 -70 -101 -70q-33 0 -52 22q-21 23 -23.5 73t6.5 100q6 62 6 84q-1 36 -10 45q-5 5 -13 5q-35 0 -106 -102q-24 -37 -42 -67q-5 -9 -13 -9t-13 5l-5 4q-31 37 -43 106
t-6.5 147.5t30 161t62.5 148.5t95.5 108.5t123.5 42.5v0q45 0 71 -28q23 -25 23 -66t-23 -86t-62 -82q-95 -90 -229 -90q-9 0 -14 1q-14 -54 -19 -93q-18 -126 6 -211q3 5 6.5 10.5t8 12t6.5 10.5q36 51 66 81q43 41 77 41q28 0 46 -20q20 -22 21.5 -68.5t-6.5 -95.5
q-11 -119 6 -138q7 -7 19 -7q27 0 64 51q35 47 71 130q19 42 36.5 90t26.5 75l9 27q0 1 1 2.5t3 5.5t5 6t8.5 4t11.5 0zM294 655q-82 0 -158 -122q-39 -67 -63 -140h2q115 0 197 77q71 68 71 136q0 24 -11 36q-13 13 -38 13z" />
    <glyph glyph-name="h.dlig" horiz-adv-x="519" 
d="M533 262q9 -2 12.5 -9.5t2.5 -14.5l-1 -7l-9 -29q-10 -29 -28 -77t-37 -91q-41 -91 -75 -138q-52 -70 -101 -70q-33 0 -52 22q-21 23 -23.5 73t6.5 100q6 62 6 84q-1 36 -10 45q-5 5 -13 5q-35 0 -106 -102q-24 -37 -42 -67q-5 -9 -13 -9t-13 5l-5 4q-42 51 -49.5 156
t18.5 214q-34 8 -57 22q-46 26 -61 76q-17 53 7 119q21 59 57 83q26 15 37 -2q5 -10 2.5 -17.5t-8.5 -12.5l-6 -5q-24 -16 -40 -61q-18 -51 -6 -91q16 -53 86 -67q38 130 111.5 215t170.5 85v0q45 0 71 -28q23 -25 23 -66t-23 -86t-62 -82q-95 -90 -229 -90q-9 0 -14 1
q-14 -54 -19 -93q-18 -126 6 -211q3 5 6.5 10.5t8 12t6.5 10.5q36 51 66 81q43 41 77 41q28 0 46 -20q20 -22 21.5 -68.5t-6.5 -95.5q-11 -119 6 -138q7 -7 19 -7q27 0 64 51q35 47 71 130q19 42 36.5 90t26.5 75l9 27q0 1 1 2.5t3 5.5t5 6t8.5 4t11.5 0zM136 533
q-39 -67 -63 -140h2q115 0 197 77q71 68 71 136q0 24 -11 36q-13 13 -38 13q-82 0 -158 -122z" />
    <glyph glyph-name="h.swsh" horiz-adv-x="1278" 
d="M1227 152q5 -20 -16 -25q-10 -2 -17 1.5t-9 7.5l-2 5q-13 48 -48 94q-70 91 -184 91q-47 0 -95.5 -19t-84.5 -43.5t-82.5 -71t-71.5 -76.5t-71 -86q-43 -53 -66.5 -80.5t-58.5 -61t-64.5 -48t-59.5 -14.5q-33 0 -52 22q-21 23 -23.5 73t6.5 100q6 62 6 84q-1 36 -10 45
q-5 5 -13 5q-35 0 -106 -102q-24 -37 -42 -67q-5 -9 -13 -9t-13 5l-5 4q-31 37 -43 106t-6.5 147.5t30 161t62.5 148.5t95.5 108.5t123.5 42.5q52 0 83.5 -31.5t34.5 -85.5q3 -50 -22 -111q-24 -58 -73 -112q-54 -58 -125 -94q-72 -36 -156 -48q-9 -105 11 -173
q3 5 6.5 10.5t8 12t6.5 10.5q36 51 66 81q43 41 77 41q28 0 46 -20q20 -22 21.5 -68.5t-6.5 -95.5q-11 -119 6 -138q7 -7 19 -7q29 0 68 30.5t67.5 62.5t78.5 94q119 147 192 208q124 105 248 105q137 0 221 -110q8 -11 15.5 -22.5t13 -22t10 -20t7.5 -17.5t5 -14l3 -9z
M294 655q-82 0 -158 -122q-71 -117 -94 -269q148 26 242 126q41 44 63 95.5t20 94.5q-5 75 -73 75z" />
    <glyph glyph-name="j.ss01" horiz-adv-x="1258" 
d="M952 345q-11 0 -19 8t-8 19q0 12 8 20t19 8q12 0 20 -8t8 -20q0 -11 -8 -19t-20 -8zM1284 259q5 -9 2.5 -16.5t-5.5 -11t-5 -4.5q-145 -82 -244 -171q8 -61 11 -115.5t-2 -113.5t-20 -101.5t-46.5 -70t-78.5 -27.5q-37 0 -63.5 21t-35.5 57q-28 103 78 248q42 56 99 111
q-3 21 -6 43.5t-6.5 47t-5.5 35.5q-108 -119 -206 -203q-231 -192 -423 -192q-137 0 -221 110q-8 11 -15.5 22.5t-13 22t-10 20t-7.5 17.5t-5 14t-3 10l-1 3q-5 22 17 26q9 2 16 -2t9 -9l2 -4q12 -48 48 -94q70 -91 184 -91q177 0 394 182q109 91 231 232q3 6 12 9
q11 3 18.5 -0.5t9.5 -8.5l2 -5q17 -63 30 -141q93 79 224 154q26 13 36 -4zM896 -327q118 0 85 335q-40 -40 -69 -81q-44 -59 -63 -114.5t-9 -94.5q12 -45 56 -45z" />
    <glyph glyph-name="j.salt" horiz-adv-x="237" 
d="M-10 345q-12 0 -20 8t-8 19q0 12 8 20t20 8q11 0 19 -8t8 -20q0 -11 -8 -19t-19 -8zM140 55q2 -1 5.5 -2.5t8 -9t1.5 -17.5t-10 -13.5t-13 -2.5l-5 2q-11 3 -35 7q14 -74 16 -137t-10.5 -123.5t-54 -95.5t-110.5 -35q-108 0 -145 84q-26 55 -9 128q16 72 65 129
q54 62 124 84q26 10 60 13q-15 74 -43 172q-3 21 16 26q11 3 18.5 -0.5t9.5 -8.5l2 -5q32 -95 52 -184q23 -3 57 -11zM-67 -327q48 0 76.5 30.5t36 83t5 110t-14.5 124.5q-93 -6 -158 -82q-41 -48 -55 -107t6 -102q26 -57 104 -57z" />
    <glyph glyph-name="j.swsh" horiz-adv-x="1000" 
d="M-8 345q-12 0 -20 8t-8 19q0 12 8 20t20 8q11 0 19 -8t8 -20q0 -11 -8 -19t-19 -8zM932 205q5 -15 9 -31t5.5 -29t2.5 -25.5t0.5 -22.5t-1 -17t-0.5 -12l-1 -4q0 -2 -1.5 -5.5t-8.5 -8.5t-18 -3q-10 1 -14 7.5t-3 11.5v6q10 57 -13 120q-43 124 -203 162
q-76 13 -139.5 14t-127 -17t-113.5 -39.5t-98.5 -54t-82.5 -61.5t-66 -61q9 -51 15 -101t9 -110.5t-3.5 -110.5t-21.5 -93t-46.5 -67.5t-76.5 -24.5q-79 0 -108 62q-32 65 6 179q36 106 124 219q14 18 46 54q-3 17 -6 35l-6 36t-4 25q-3 21 16 26q11 3 18.5 -0.5t9.5 -8.5
l2 -5q3 -9 15 -62q30 28 45 41q84 70 174 113q102 49 203 64q112 16 226 -8h1q101 -24 162 -81q50 -45 73 -112zM-65 -327q132 0 76 410q-3 -4 -9.5 -11.5t-9.5 -11.5q-82 -105 -116 -206q-32 -95 -9 -145q18 -36 68 -36z" />
    <glyph glyph-name="g.ss01" horiz-adv-x="1385" 
d="M1414 256q3 -10 -1.5 -17t-10.5 -9l-6 -2q-132 -28 -237 -88q26 -79 35 -164.5t-1 -165.5t-55.5 -131t-123.5 -51q-68 0 -110 40q-39 36 -47 99q-7 66 24.5 141.5t93.5 143.5q54 58 126 105q-10 28 -18 47q-86 -86 -147 -86q-34 0 -51 21t-15 53q-28 -33 -60 -69
q-123 -146 -205 -210q-134 -106 -278 -106q-137 0 -221 109q-8 11 -15.5 23t-13 22t-10 20t-7.5 17.5t-5 13.5t-3 10l-1 3q-6 18 15 26q11 3 17.5 0t8.5 -9l3 -5q0 -2 4 -14t16 -36t28 -45q69 -90 184 -90q56 0 111 19.5t95 44t90 72t77.5 77.5t75.5 87q43 50 65.5 75
t56.5 56.5t62 46.5q1 0 2.5 1t2.5 2v0q36 18 76 18q43 0 62 -50q8 -22 -14 -30q-9 -3 -16 0t-9 8l-3 5q-7 22 -20 22q-41 0 -79 -47q-36 -46 -36 -82q0 -14 10 -14q20 0 54 23.5t58 47.5l23 24q2 2 5 3q1 1 2.5 2t2.5 1q8 3 15.5 -0.5t11.5 -8.5l3 -5q17 -27 33 -67
q109 61 242 89q22 6 28 -16zM1014 -327q51 0 82 42.5t39 109t2.5 141.5t-23.5 146q-60 -41 -106 -91q-56 -61 -84 -127t-22 -122q11 -99 112 -99z" />
    <glyph glyph-name="g.salt" horiz-adv-x="477" 
d="M503 259q5 -9 2.5 -16.5t-5.5 -11t-5 -4.5q-145 -82 -244 -171q8 -61 11 -115.5t-2 -113.5t-20 -101.5t-46.5 -70t-78.5 -27.5q-37 0 -63.5 21t-35.5 57q-28 103 78 248q42 56 99 111q-7 60 -19 129q-82 -76 -137 -76t-65 52q-9 54 33 111q52 70 137 70q41 0 62 -48v-1
l1 -1q8 -22 -14 -30q-9 -3 -16 0t-9 8l-3 5q-7 22 -21 22q-40 0 -78 -47q-36 -44 -36 -82q0 -14 9 -14q41 0 136 95v0q3 5 10 6q11 3 18.5 -0.5t9.5 -8.5l2 -5q17 -63 30 -141q93 79 224 154q26 13 36 -4zM115 -327q118 0 85 335q-40 -40 -69 -81q-44 -59 -63 -114.5
t-9 -94.5q12 -45 56 -45z" />
    <glyph glyph-name="g.calt" horiz-adv-x="389" 
d="M292 55q2 -1 5.5 -2.5t8 -9t1.5 -17.5t-10 -13.5t-12 -2.5l-5 2q-2 0 -6.5 1t-7.5 2q11 -58 13 -111t-7 -104t-30 -88.5t-61 -60.5t-95 -23q-107 0 -146 84q-26 57 -9 128q17 73 66 129q54 62 123 84q40 14 80 14q-20 83 -45 137q-86 -86 -129 -86q-50 0 -59 50
q-8 51 31 102q43 56 109 56q23 0 37 -14t12 -27.5t-11 -19.5q-13 -4 -21.5 6t-16.5 10q-39 0 -70 -53q-25 -43 -14 -60q3 -5 9 -5q9 0 21 6t22 13.5t21.5 19.5t18.5 20t15.5 18.5t9.5 11.5q3 8 14 12q7 3 14.5 -0.5t11.5 -8.5l4 -5q42 -68 72 -187q12 -2 36 -8zM86 -327
q48 0 80 30.5t43.5 82t11 111t-11.5 125.5q-106 2 -178 -83q-41 -48 -55.5 -107t5.5 -102q26 -57 105 -57z" />
    <glyph glyph-name="g.swsh" horiz-adv-x="1179" 
d="M1112 205q5 -15 8.5 -31t5 -29t2.5 -25.5t0.5 -22.5t-1 -17t-1.5 -12v-4q0 -2 -1.5 -5.5t-8.5 -8.5t-18 -3q-9 1 -13 7.5t-3 11.5v6q9 57 -13 120q-45 124 -203 162q-61 13 -121 13.5t-111 -9t-101.5 -28t-91 -40.5t-80 -50t-68 -53t-55.5 -52q11 -63 18 -123t6 -132.5
t-13.5 -126t-46.5 -89.5t-87 -36q-80 0 -109 62q-32 65 6 179q36 106 124 219q30 36 46 54q-7 43 -8 52q-82 -76 -137 -76t-65 52q-9 54 33 111q52 70 137 70q43 0 62 -50q8 -22 -14 -30q-9 -3 -16 0t-10 8l-2 5q-7 22 -20 22q-41 0 -79 -47q-36 -46 -36 -82q0 -14 10 -14
q28 0 73.5 38t61.5 57v0q5 5 10 6q11 3 18.5 -0.5t9.5 -8.5l2 -5q7 -21 15 -62q30 28 46 41q80 68 173 113q101 49 203 64q112 16 227 -8q100 -24 162 -81q51 -47 74 -112zM115 -327q131 0 75 410q-7 -9 -19 -23q-82 -105 -116 -206q-32 -95 -9 -145q18 -36 69 -36z" />
    <glyph glyph-name="y.ss01" horiz-adv-x="1447" 
d="M1476 256q3 -10 -1.5 -17t-10.5 -9l-6 -2q-132 -28 -237 -88q26 -79 35 -164.5t-1 -165.5t-55.5 -131t-123.5 -51q-68 0 -110 40q-39 36 -47 99q-7 66 24.5 141.5t93.5 143.5q54 58 126 105q-6 20 -17 44q-18 -29 -38 -56.5t-53 -55.5t-60 -28q-84 0 -78 93
q-87 -94 -168 -161q-229 -193 -422 -193q-139 0 -221 110q-18 24 -32 51t-18.5 41t-4.5 17q-5 23 17 27q9 2 15.5 -2t8.5 -8l2 -5l2 -5q2 -6 5.5 -15.5t9 -21t14 -26t18.5 -27.5q70 -91 184 -91q175 0 393 182q108 91 229 231l4 4q1 2 4 3.5t11 3t16 -5.5q5 -4 6 -11t0 -12
l-2 -5q-42 -129 7 -129q46 0 134 144q3 10 14 14q8 3 15.5 -0.5t11.5 -8.5l3 -5q17 -27 33 -67q109 61 242 89q22 6 28 -16zM1076 -327q51 0 82 42.5t39 109t2.5 141.5t-23.5 146q-60 -41 -106 -91q-56 -61 -84 -127t-22 -122q11 -99 112 -99z" />
    <glyph glyph-name="y.salt" horiz-adv-x="480" 
d="M506 259q5 -9 2.5 -16.5t-5.5 -11t-5 -4.5q-145 -82 -244 -171q8 -61 11 -115.5t-2 -113.5t-20 -101.5t-46.5 -70t-78.5 -27.5q-37 0 -63.5 21t-35.5 57q-28 103 78 248q42 56 99 111q-2 19 -17 120q-81 -124 -142 -124q-44 0 -63 27t-15 63t15 67.5t22 43.5q1 2 3.5 3.5
t11 3t16.5 -5.5q5 -4 6 -11t-1 -12l-1 -5q-42 -129 6 -129q22 0 56 37t50.5 63.5t28.5 46.5q7 9 14 11q11 3 18.5 -0.5t9.5 -8.5l2 -5q17 -63 30 -141q93 79 224 154q26 13 36 -4zM118 -327q118 0 85 335q-40 -40 -69 -81q-44 -59 -63 -114.5t-9 -94.5q12 -45 56 -45z" />
    <glyph glyph-name="y.calt" horiz-adv-x="385" 
d="M288 55q2 -1 5.5 -2.5t8 -9t1.5 -17.5t-10 -13.5t-12 -2.5l-5 2q-3 0 -7.5 1t-6.5 2q11 -58 13 -111t-7 -104t-30 -88.5t-61 -60.5t-95 -23q-107 0 -146 84q-26 57 -9 128q17 73 66 129q54 62 123 84q40 14 80 14q-17 71 -40 127q-49 -133 -118 -133q-44 0 -63 27t-15 63
t15 67.5t22 43.5q1 2 3.5 3.5t11 3t16.5 -5.5q5 -4 6 -11t0 -12l-2 -5q-42 -129 6 -129q15 0 29.5 13.5t28.5 42t20 41.5t18 43q2 13 16 18q7 3 14.5 -0.5t11.5 -8.5l4 -5q42 -68 72 -187q12 -2 36 -8zM82 -327q48 0 80 30.5t43.5 82t11 111t-11.5 125.5q-106 2 -178 -83
q-41 -48 -55.5 -107t5.5 -102q26 -57 105 -57z" />
    <glyph glyph-name="y.swsh" horiz-adv-x="1182" 
d="M1115 205q5 -15 8.5 -31t5 -29t2.5 -25.5t0.5 -22.5t-1 -17t-0.5 -12l-1 -4q0 -2 -1.5 -5.5t-8.5 -8.5t-18 -3q-9 1 -13 7.5t-4 11.5l1 6q9 57 -13 120q-45 124 -203 162q-61 13 -121 13.5t-111 -9t-101.5 -28t-91 -40.5t-80 -50t-68 -53t-55.5 -52q11 -63 18 -123
t6 -132.5t-13.5 -126t-46.5 -89.5t-87 -36q-80 0 -109 62q-32 65 6 179q36 106 124 219q30 36 46 54q-1 9 -3.5 24t-3.5 19q-81 -124 -141 -124q-44 0 -63.5 27t-15.5 63t15 67.5t22 43.5q1 2 4 3.5t11 3t16 -5.5q5 -4 6 -11t0 -12l-2 -5q-42 -129 7 -129q22 0 56 37
t50.5 63.5t28.5 46.5q4 9 13 11q11 3 18.5 -0.5t9.5 -8.5l2 -5q7 -21 15 -62q30 28 46 41q80 68 173 113q101 49 203 64q112 16 227 -8q101 -24 162 -81q51 -47 74 -112zM118 -327q131 0 75 410q-7 -9 -19 -23q-82 -105 -116 -206q-32 -95 -9 -145q18 -36 69 -36z" />
    <glyph glyph-name="r.ss01" horiz-adv-x="1278" 
d="M1291 262q10 -2 13.5 -9.5t2.5 -14.5l-1 -6q-3 -8 -17.5 -60.5t-27.5 -96t-38 -104.5t-51 -103t-63.5 -72t-77.5 -30q-52 0 -82 32.5t-36.5 81t0.5 109t21.5 113.5t32.5 98q-27 -5 -44 -5q-21 0 -36 4q-52 -95 -134 -185q-86 -94 -180 -146q-118 -68 -245 -68
q-137 0 -221 110q-8 11 -15.5 23t-13 22t-10 20t-7.5 17.5t-5 13.5t-3 10l-1 3q-8 22 15 29q10 3 17.5 -1t9.5 -10l2 -6q0 -2 4 -14t16 -36t28 -45q70 -91 184 -91q208 0 391 198q67 73 126 173q-41 26 -54.5 71.5t6.5 81t67 35.5q34 0 51 -27q30 -48 -5 -136q39 -5 90 18
q10 4 20 -1q8 -4 9.5 -13t-1.5 -15l-2 -7q-31 -77 -47.5 -171t-5 -167.5t57.5 -73.5q20 0 41 15t39.5 40t36 57t32.5 68t28 72t23 68.5t17 57.5t11 40l4 15q1 2 2.5 6t9 9t16.5 3zM843 344q-8 -17 -1 -43t26 -43q26 66 9 95q-4 6 -13 6q-14 0 -21 -15z" />
    <glyph glyph-name="r.salt" horiz-adv-x="318" 
d="M335 262q9 -4 11.5 -12t0.5 -14l-2 -7q-46 -92 -65 -122q-81 -130 -150 -130q-41 0 -60 34q-23 43 -4 125l6 24q7 19 15 40q-25 -5 -42 -5q-82 -1 -120 64q-30 51 -10 100q19 45 71 45q34 0 51 -27q30 -48 -5 -136q37 -5 86 17q15 7 26 -3q7 -5 8 -12t-2 -11l-2 -5
q-25 -39 -39.5 -103t0.5 -91q7 -11 21 -11q43 0 112 108q16 25 31.5 54.5t22.5 45.5l8 17q1 3 3.5 6.5t10.5 8t17 0.5zM-10 258q26 66 9 95q-4 6 -13 6q-14 0 -21 -15q-8 -17 -1 -43t26 -43z" />
    <glyph glyph-name="r.calt" horiz-adv-x="415" 
d="M432 262q9 -4 11.5 -12t0.5 -14l-2 -7q-46 -92 -65 -122q-81 -130 -150 -130q-41 0 -60 34q-23 43 -4 125l6 24q7 19 15 40q-25 -5 -43 -5q-14 0 -20 1q-3 1 -8 1q-11 -39 -15.5 -54.5t-18.5 -62.5t-25 -73.5t-29 -69.5t-36 -68t-40 -51.5t-48 -39t-53 -12.5
q-23 0 -23 22q0 10 5.5 15.5t11.5 6.5l6 1q37 0 74.5 46t67.5 119t48.5 127.5t32.5 107.5q-19 9 -32 24q-29 26 -40 64q-10 39 2 67q14 38 57 38q35 0 54 -25q32 -42 14 -138q40 -5 87 16q17 8 28 -2q7 -5 8 -12t-1 -11l-3 -5q-25 -39 -39.5 -103t0.5 -91q7 -11 21 -11
q43 0 112 108q16 25 31.5 54.5t23.5 45.5l7 17q1 3 3.5 6.5t10.5 8t17 0.5zM42 349q-6 -15 1.5 -39.5t26.5 -42.5q3 -3 13 -11q13 72 -6 95q-8 8 -19 8q-12 0 -16 -10z" />
    <glyph glyph-name="r.dlig" horiz-adv-x="496" 
d="M509 262q10 -2 13.5 -9.5t2.5 -14.5l-1 -6q-3 -10 -14 -50t-22.5 -77.5t-29 -88t-39 -92t-46.5 -79t-57.5 -58.5t-67.5 -21q-64 0 -94.5 47.5t-27 119t19 140t39.5 127.5q-25 -5 -44 -5q-14 0 -20 1q-3 1 -8 1q-11 -39 -15.5 -54.5t-18.5 -62.5t-25 -73.5t-29 -69.5
t-36 -68t-40 -51.5t-48 -39t-53 -12.5q-23 0 -23 22q0 10 5.5 15.5t11.5 6.5l6 1q37 0 74.5 46t67.5 119t48.5 127.5t32.5 107.5q-19 9 -32 24q-29 26 -40 64q-10 39 2 67q14 38 57 38q35 0 54 -25q32 -42 14 -138q41 -5 91 18q11 4 21 -1q8 -4 9.5 -13t-1.5 -15l-2 -7
q-31 -77 -47.5 -171t-5.5 -167.5t57 -73.5q36 0 73 45t64.5 107.5t49.5 127.5t33.5 107.5t11.5 45.5q1 2 2.5 6t9 9t17.5 3zM42 349q-6 -15 1.5 -39.5t26.5 -42.5q3 -3 13 -11q13 72 -6 95q-8 8 -19 8q-12 0 -16 -10z" />
    <glyph glyph-name="r.swsh" horiz-adv-x="1053" 
d="M1002 262q2 -27 -20 -27q-10 0 -16 5.5t-7 11.5l-1 6q-4 45 -37 81t-112 36q-87 0 -183 -100q-57 -58 -169 -224q-96 -141 -144 -193q-39 -44 -75 -66q-44 -26 -85 -26q-52 0 -82 32.5t-36.5 81t0.5 109t21.5 113.5t32.5 98q-27 -5 -44 -5q-82 -1 -120 64q-30 51 -10 100
q19 45 71 45q34 0 51 -27q30 -48 -5 -136q39 -5 90 18q10 4 20 -1q8 -4 9.5 -13t-1.5 -15l-2 -7q-31 -77 -47.5 -171t-5 -167.5t57.5 -73.5q57 0 127 77q45 49 139 188q110 164 174 231q110 113 216 113q92 0 144 -50q45 -43 49 -108zM-10 258q26 66 9 95q-4 6 -13 6
q-14 0 -21 -15q-8 -17 -1 -43t26 -43z" />
    <glyph glyph-name="l.ss01" horiz-adv-x="1326" 
d="M1340 261q10 -2 13.5 -9.5t2.5 -13.5l-2 -7q-18 -70 -67 -161q-38 -68 -84 -113q-60 -55 -124 -55q-70 0 -112.5 51.5t-56.5 138.5q-86 -49 -176 -83q-199 -76 -407 -76q-113 0 -180 33q-64 30 -85 85q-18 51 -6 99t44 79q2 2 5 4.5t12 5t16 -6.5q7 -8 7 -16t-4 -14
l-5 -5q-23 -23 -32 -58t4 -71q17 -39 63 -61q61 -29 161 -29q307 0 578 164q-7 120 29 247t114.5 218t176.5 91q53 0 81 -27q28 -28 28 -75q0 -79 -76 -191q-77 -115 -207 -217q-42 -33 -87 -63q4 -71 29 -119q30 -59 86 -59q89 0 168 145q19 33 35 71t22.5 58t6.5 22
q0 1 1 2.5t3 5.5t5 6t8.5 4t11.5 0zM1038 494q-73 -144 -76 -315q41 28 61 45q124 97 195 201.5t71 170.5q0 28 -14 42q-17 15 -50 15q-62 0 -109.5 -48.5t-77.5 -110.5z" />
    <glyph glyph-name="l.salt" horiz-adv-x="419" 
d="M432 262q10 -2 13.5 -9.5t2.5 -14.5l-1 -6q-23 -90 -78 -199q-45 -88 -95 -140q-69 -67 -141 -67q-86 0 -126 70.5t-37.5 176t27.5 227.5t60 224.5t69 168.5q1 3 4 6t11.5 8.5t18.5 -1.5q8 -4 10 -12t0 -14l-3 -5q-22 -52 -45 -128.5t-45 -167.5t-33 -180.5t-10 -163
t26 -119t73 -45.5q102 0 196 182q21 42 39.5 90t26.5 73.5t8 27.5q1 2 2.5 6t9 9t17.5 3z" />
    <glyph glyph-name="l.calt" horiz-adv-x="275" 
d="M291 262q9 -4 12 -11.5t1 -13.5l-1 -6q-17 -51 -59 -124q-79 -130 -157 -130q-56 0 -85 40t-30.5 103t10 137t33.5 145t42.5 124.5t35.5 78.5q1 2 3.5 4t10 5.5t15.5 -2.5q8 -4 9.5 -13t-1.5 -15l-2 -7q-25 -63 -50 -150t-43 -181.5t-6.5 -159t58.5 -64.5q53 0 118 108
q15 26 29 55t20 45l6 16q1 3 3 7t10 8.5t18 0.5z" />
    <glyph glyph-name="l.dlig" horiz-adv-x="402" 
d="M417 261q10 -2 13 -9.5t2 -13.5l-2 -7q-18 -74 -67 -161q-40 -72 -84 -113q-60 -55 -124 -55q-110 0 -153 128q-43 126 -5 303q39 181 136 284q77 81 169 81q43 0 70 -27q23 -26 23 -67q0 -40 -23 -85.5t-62 -82.5q-95 -91 -228 -89h-21q-23 -90 -23 -179q0 -102 31 -162
q30 -59 86 -59q89 0 168 145q19 33 35 71t22.5 58t6.5 22q0 1 1 2.5t3 5.5t5.5 6t8.5 4t12 0zM301 653q-62 0 -109.5 -48.5t-77.5 -110.5q-24 -47 -41 -102h9q115 -2 197 77q32 30 51.5 67t19.5 68q0 24 -11 36q-12 13 -38 13z" />
    <glyph glyph-name="l.swsh" horiz-adv-x="1135" 
d="M1084 228q6 -20 -16 -25q-10 -2 -17 1.5t-9 7.5l-1 5q0 2 -4 14t-16 35.5t-28 44.5q-70 91 -184 91q-47 0 -95.5 -19t-84.5 -43.5t-82.5 -71t-71.5 -76.5t-71 -86q-44 -54 -66.5 -80t-58 -60.5t-65 -49t-59.5 -14.5q-110 0 -153 128q-43 126 -5 303q39 181 136 284
q77 81 169 81q51 0 82.5 -31.5t34.5 -85.5q3 -49 -21 -110q-27 -63 -74 -113q-52 -57 -125 -93q-73 -38 -159 -50q-2 -30 -2 -47q0 -102 31 -162q30 -59 86 -59q29 0 68 30.5t66.5 62t79.5 95.5q118 146 192 207q123 105 248 105q137 0 220 -110q18 -24 32 -51t18.5 -41
t4.5 -17zM302 653q-34 0 -65 -15.5t-54.5 -42t-39.5 -51t-29 -50.5q-54 -107 -69 -232q152 25 246 127q41 43 63 94t20 96q-5 74 -72 74z" />
    <glyph glyph-name="n.ss01" horiz-adv-x="1391" 
d="M1408 262q19 -6 13 -31q-21 -54 -37 -89q-35 -82 -75 -138q-52 -70 -101 -70q-33 0 -52 22q-21 23 -23.5 73t6.5 100q6 62 6 84q-1 36 -10 45q-3 5 -13 5q-19 0 -44 -23t-48 -57t-36 -55t-20 -34q-12 -21 -24 -21q-14 0 -18 18q-5 35 -2 74q-92 -101 -180 -175
q-230 -192 -423 -192q-137 0 -220 110q-8 11 -15.5 22.5t-13 22t-10 20t-8 17.5t-5.5 14t-3 10l-1 3q-4 22 18 26q9 2 15.5 -2t8.5 -9l2 -4q13 -48 48 -94q71 -91 184 -91q177 0 394 182q108 90 233 235l2 2q1 2 3.5 3.5t9.5 4t13 -2.5q8 -5 10 -13t0 -14l-1 -5
q-10 -25 -10 -46q35 51 64 78q43 41 77 41q28 0 46 -20q20 -21 21.5 -68.5t-6.5 -95.5q-11 -119 6 -138q7 -7 19 -7q27 0 64 52q36 48 71 129q12 27 34 84q1 3 3 7t10 9t18 2z" />
    <glyph glyph-name="n.salt" horiz-adv-x="444" 
d="M458 262q10 -2 13.5 -9.5t2.5 -14.5l-2 -7q-19 -74 -73 -197q-40 -89 -76 -138q-51 -70 -100 -70q-34 0 -53 22q-21 23 -23 73t6 100q7 56 6 84q0 37 -10 45q-2 5 -13 5q-34 0 -105 -102q-23 -35 -38 -59q-1 -2 -2 -4.5t-2 -3.5q-12 -21 -24 -21t-18 18q0 2 -1 3
q-14 62 7 158t43 118q1 2 4 3.5t11 3t16 -5.5q5 -4 6 -11t-1 -12l-1 -5q-24 -72 -35 -154q34 49 63 78q44 41 77 41q29 0 47 -20q19 -21 21 -68.5t-6 -95.5q-14 -117 6 -138q7 -7 19 -7q27 0 64 52q34 48 71 129q19 42 36.5 90t26 74.5t8.5 27.5t1 2.5t3 5.5t5 6t8.5 4
t11.5 0z" />
    <glyph glyph-name="n.swsh" horiz-adv-x="1226" 
d="M1175 260q5 -20 -16 -25q-10 -2 -17 1.5t-9 7.5l-2 5q-13 48 -48 94q-71 91 -184 91q-47 0 -95.5 -19t-84.5 -43.5t-82.5 -71t-71.5 -76.5t-71 -86q-44 -54 -66.5 -80t-58 -60.5t-65 -49t-59.5 -14.5q-33 0 -52 22q-21 23 -23.5 73t6.5 100q6 62 6 84q-1 36 -10 45
q-3 5 -13 5q-19 0 -44 -23t-48 -57t-36 -55t-20 -34q-12 -21 -24 -21q-14 0 -18 18q-7 42 -1.5 80.5t13 62t12.5 28.5q1 2 3.5 3.5t9.5 4t13 -2.5q8 -5 10 -13t1 -14l-2 -5q-10 -25 -10 -46q35 51 64 78q43 41 77 41q28 0 46 -20q20 -22 21.5 -68.5t-6.5 -95.5
q-11 -119 6 -138q7 -7 19 -7q29 0 68 30.5t67.5 62.5t78.5 94q119 147 192 208q124 105 248 105q137 0 220 -110q8 -11 15.5 -22.5t13 -22t10 -20t8 -17.5t5.5 -14l3 -9z" />
    <glyph glyph-name="m.ss01" horiz-adv-x="1691" 
d="M1707 262q10 -2 13.5 -9.5t1.5 -14.5l-1 -7q-1 -5 -18.5 -57.5t-45.5 -128.5t-47 -119q-40 -89 -76 -138q-51 -70 -99 -70q-29 0 -49 21q-30 33 -30 124q-1 42 10 170q11 124 10 165q0 72 -18 92q-6 6 -14 6q-28 0 -59 -69q-23 -56 -54 -169q-12 -44 -19.5 -68.5t-20 -57
t-25.5 -48t-27 -15.5q-41 0 -27 152q7 56 6 84q0 37 -10 45q-2 5 -13 5q-34 0 -105 -102q-23 -35 -38 -59q-1 -2 -2.5 -4.5t-1.5 -3.5q-12 -21 -24 -21t-18 18q0 2 -1 3q-13 60 7 159q-81 -86 -162 -155q-231 -192 -423 -192q-137 0 -220 110q-8 11 -15.5 22.5t-13 22
t-10 20t-8 17.5t-5.5 14t-3 10l-1 3q-4 22 18 26q9 2 15.5 -2t8.5 -9l2 -4q13 -48 48 -94q70 -91 184 -91q177 0 394 182q106 88 227 228q6 8 7 9q1 2 4 3.5t11 3t16 -5.5q5 -4 6 -11t0 -12l-2 -5q-24 -72 -35 -154q35 49 63 78q44 41 77 41q29 0 47 -20q19 -21 21 -68.5
t-6 -95.5l-4 -71q23 84 35 125q14 51 22.5 80.5t24 71t30 64t35.5 39t44 16.5q29 0 47 -21q30 -31 30 -122q1 -41 -10 -169q-11 -126 -10 -166q0 -75 19 -94q6 -6 15 -6q26 2 63 52q32 43 71 129q19 42 46 117t45 128.5t18 54.5t1 2.5t3 5.5t5 6t8.5 4t11.5 0z" />
    <glyph glyph-name="m.salt" horiz-adv-x="693" 
d="M707 262q9 -2 12.5 -9.5t2.5 -14.5l-1 -7l-9 -29q-10 -29 -28 -77t-37 -91q-40 -89 -76 -138q-51 -70 -99 -70q-30 0 -48 21q-30 31 -31 124q-1 42 10 170q11 124 10 165q0 72 -18 92q-6 6 -14 6q-27 0 -58 -69q-18 -42 -55 -169q-12 -44 -19.5 -68.5t-20 -57t-25.5 -48
t-27 -15.5q-24 0 -29 56t3 96q6 62 6 84q-1 36 -10 45q-3 5 -14 5q-14 0 -33.5 -25t-33 -53t-27.5 -59l-15 -32q-10 -21 -24 -21t-18 18q-1 76 8 151q2 25 24 25q10 0 15 -8t4 -16v-8q-2 -14 -2 -34q5 12 13.5 30t35.5 47.5t53 29.5q29 0 47 -20q20 -22 21.5 -68.5
t-6.5 -95.5l-4 -71q24 84 35 125q9 34 14 50.5t14.5 47.5t16 47t16.5 39.5t20 36.5t21.5 26t25 18.5t28.5 5.5q29 0 47 -21q30 -32 30 -122q1 -41 -10 -169q-10 -116 -10 -166q1 -74 19 -94q6 -6 15 -6q26 2 63 52q36 48 71 129q19 42 36.5 90t26.5 75l9 27q0 1 1 2.5t3 5.5
t5 6t8.5 4t11.5 0z" />
    <glyph glyph-name="m.swsh" horiz-adv-x="1456" 
d="M1405 44q5 -20 -16 -25q-10 -2 -17 1.5t-9 7.5l-2 5q-12 48 -48 94q-70 91 -184 91q-47 0 -95 -19t-84.5 -43.5t-82.5 -71t-72 -77t-71 -85.5q-44 -54 -66.5 -80t-58 -60.5t-65 -49t-59.5 -14.5q-29 0 -48 21q-30 33 -31 124q0 62 11 170q10 114 10 165q-1 72 -19 92
q-6 6 -14 6q-27 0 -58 -69q-21 -49 -54 -169q-13 -47 -20 -69t-20 -56t-26 -49t-27 -15q-24 0 -29 56t3 96q6 62 6 84q-1 36 -10 45q-3 5 -13 5q-35 0 -105 -102q-13 -19 -38 -59q-1 -2 -2.5 -4t-2.5 -4q-12 -21 -24 -21q-14 0 -17 18q-1 1 -1 3q-14 63 6.5 158.5
t43.5 117.5q1 2 3.5 3.5t11 3t16.5 -5.5q5 -4 6 -11t-1 -12l-1 -5q-23 -64 -35 -154q33 49 63 78q43 41 77 41q28 0 46 -20q20 -21 22 -68.5t-6 -95.5l-5 -71q24 84 35 125q9 34 14 50.5t14.5 47.5t16 47t16.5 39.5t20 36.5t21.5 26t25 18.5t28.5 5.5q29 0 47 -21
q30 -31 31 -122q0 -61 -11 -169q-10 -116 -10 -166q1 -74 19 -94q6 -6 15 -6q29 0 68.5 30.5t67 62t78.5 94.5q119 147 192 208q124 105 248 105q137 0 221 -110q8 -11 15.5 -22.5t13 -22t10 -20t7.5 -17.5t5 -14l3 -9z" />
    <glyph glyph-name="f.ss01" horiz-adv-x="1348" 
d="M1371 255q7 -7 7 -15t-3 -12l-3 -4q-56 -56 -133 -92q-72 -34 -147 -39h-22h-10q27 -19 49 -45q61 -69 55 -144q-3 -37 -27 -61q-25 -24 -67 -24q-86 0 -130.5 70.5t-48.5 186.5q-72 -40 -156 -73q-198 -75 -407 -75q-112 0 -181 33q-63 31 -85 84q-18 51 -6 98.5
t44 79.5q2 2 5 4.5t12 5.5t16 -6q8 -8 7.5 -16t-4.5 -14l-4 -6q-23 -23 -32 -57.5t4 -70.5q15 -38 63 -62q57 -28 161 -28q299 0 563 155q6 128 49.5 257t120.5 218.5t165 89.5q51 0 81 -28q27 -27 27 -74q0 -80 -76 -192q-79 -116 -206 -216q-34 -26 -51 -38
q109 -24 219 28q69 32 119 82q18 14 32 0zM1226 648q-65 0 -124 -74.5t-96 -182t-49 -221.5q36 24 67 48q123 98 194 202.5t71 170.5q0 29 -14 42q-15 15 -49 15zM1075 19q-45 53 -122 77q-2 -105 27 -168.5t90 -63.5q45 0 49 44q5 56 -44 111z" />
    <glyph glyph-name="f.salt" horiz-adv-x="420" 
d="M443 255q7 -7 7 -15t-3 -12l-3 -4q-56 -56 -133 -92q-72 -34 -146 -39h-23h-9q26 -19 49 -45q62 -72 54 -144q-3 -39 -27 -61q-24 -24 -67 -24q-69 0 -113 48t-57.5 125.5t-5.5 170.5t36 187q-32 8 -54 21q-46 26 -61 76q-17 55 7 119q21 59 57 83q26 15 37 -2
q4 -10 1.5 -17.5t-7.5 -12.5l-6 -5q-24 -16 -40 -61q-18 -51 -6 -91q16 -53 86 -67q47 132 121.5 216t160.5 84q45 0 71 -28q23 -25 23 -66t-23 -86t-62 -82q-95 -90 -229 -90q-9 0 -14 1q-27 -93 -35 -184q130 -48 263 15q33 15 62.5 35.5t43 33t13.5 13.5q19 14 32 0z
M298 648q-66 0 -123.5 -73t-96.5 -189q116 0 198 77q71 68 71 136q0 23 -11 36q-13 13 -38 13zM148 19q-47 53 -123 77q-2 -105 27 -168.5t90 -63.5q46 0 50 44q5 54 -44 111z" />
    <glyph glyph-name="f.swsh" horiz-adv-x="463" 
d="M1017 415q42 -41 49 -108q0 -28 -19 -29q-11 0 -17.5 6t-7.5 12l-1 7q-4 45 -36.5 81t-111.5 36q-42 0 -94.5 -21t-88 -42t-101.5 -65q-168 -112 -262 -138q-50 -14 -95 -14q-17 0 -49 4q16 -21 26 -39q58 -98 42 -188q-8 -46 -35 -72t-69 -26v0v0q-117 0 -158 138
q-41 137 4 334t143 311q79 91 167 91q40 0 63 -23.5t25 -64.5q3 -49 -24 -113.5t-75 -123.5q-52 -64 -115 -104q-39 -26 -83 -40q1 -1 4 -2.5t4 -2.5q40 -21 80 -29.5t81.5 -1.5t75 16.5t78.5 34.5t72 41.5t75 48.5q54 35 81 52t71.5 40.5t82 33.5t74.5 10q92 0 144 -50z
M303 648q-83 0 -152.5 -115.5t-102.5 -274.5q115 23 209 138q42 52 66.5 109t22.5 97q-2 46 -43 46zM170 83q-35 61 -90 96q-18 10 -26 16q-10 4 -15 7q-11 -91 -7 -166t34 -123.5t81 -48.5t60 60q11 75 -37 159z" />
    <glyph glyph-name="k.ss01" horiz-adv-x="1447" 
d="M1461 262q10 -2 13.5 -9.5t1.5 -14.5l-1 -7q-19 -74 -73 -197q-40 -89 -76 -138q-51 -70 -101 -70v0q-95 1 -155 70q-6 7 -12 14.5t-10 14t-7.5 12.5t-6 11t-4 8.5t-2.5 5.5l-1 3q-1 1 -1.5 3t-1.5 6.5t0.5 8t6 7t13.5 4.5q61 10 102 57q33 40 30 74q-3 30 -37 30
t-105 -102q-15 -22 -36 -57q0 -1 -1.5 -4.5t-2.5 -5.5q-5 -9 -13 -9t-13 5l-5 4q-31 38 -44 113q-90 -53 -185 -89q-196 -75 -407 -75q-113 0 -180 33q-62 30 -85 84q-18 51 -6 99t44 79q2 2 5 4.5t12 5.5t16 -6q7 -8 7 -16t-4 -14l-5 -5q-23 -23 -32 -58t4 -71
q16 -38 63 -61q61 -29 161 -29q310 0 586 168q-5 85 14 180.5t57 179t101.5 138t139.5 54.5q53 0 81 -28t28 -74q0 -80 -76 -192q-78 -115 -207 -216q-49 -39 -86 -62q3 -44 12 -80q6 10 20 30q33 49 65 81q44 41 77 41q35 0 58 -20q20 -20 23 -50q6 -55 -40 -108
q-37 -44 -99 -65q10 -17 23 -32q48 -52 122 -54q27 0 64 51q33 47 71 130q19 42 36.5 90t26 74.5t8.5 27.5t1 2.5t3 5.5t5 6t8.5 4t11.5 0zM972 256q-5 -35 -7 -74q16 11 58 43q124 98 195 202.5t71 170.5q0 28 -14 42q-15 15 -50 15q-83 0 -157 -122q-72 -118 -96 -277z
" />
    <glyph glyph-name="k.salt" horiz-adv-x="490" 
d="M504 262q9 -2 12.5 -9.5t2.5 -14.5l-1 -7l-10 -29q-9 -29 -27 -77t-37 -91q-40 -89 -76 -138q-51 -70 -100 -70h-1q-93 1 -155 70q-20 22 -43 69q-1 1 -1.5 3t-1 6.5t0.5 8t6 7t13 4.5q63 10 102 57q33 38 30 74q-3 30 -37 30t-105 -102q-24 -37 -42 -67q-12 -21 -24 -21
q-6 0 -11 5t-7 10l-1 6q-14 100 -8 199.5t29.5 205t46.5 179.5t45 123q1 3 4 6t12 8.5t18 -1.5q8 -4 10 -12t0 -14l-2 -5q-44 -120 -80.5 -298t-36.5 -314q2 2 5.5 7t4.5 8q36 51 66 81q43 41 76 41q35 0 58 -20q21 -21 24 -50q5 -55 -40 -108q-39 -45 -100 -65
q10 -17 23 -32q48 -52 122 -54q27 0 64 51q35 47 71 130q19 42 36.5 90t26 74.5t8.5 27.5t1 2.5t3.5 5.5t5.5 6t8.5 4t11.5 0z" />
    <glyph glyph-name="k.calt" horiz-adv-x="516" 
d="M530 262q10 -2 13.5 -9.5t2.5 -14.5l-2 -7q-19 -74 -73 -197q-40 -89 -76 -138q-51 -70 -101 -70v0q-95 1 -155 70q-6 7 -12 14.5t-10 14t-7.5 12.5t-6 11t-4 8.5t-2.5 5.5l-1 3q-1 1 -1.5 3t-1.5 6.5t0.5 8t6 7t13.5 4.5q61 10 102 57q33 40 30 74q-3 30 -37 30
t-105 -102q-15 -22 -36 -57q0 -1 -1.5 -4.5t-2.5 -5.5q-5 -9 -13 -9t-13 5l-5 4q-31 37 -43 106t-6.5 147.5t30 161t62.5 148.5t95.5 108.5t123.5 42.5q45 0 71 -28q23 -25 23 -66t-23 -86t-62 -82q-95 -90 -229 -90q-2 0 -6.5 0.5t-7.5 0.5q-14 -54 -19 -93
q-18 -122 5 -208q6 10 20 30q33 49 65 81q44 41 77 41q35 0 58 -20q20 -20 23 -50q6 -55 -40 -108q-37 -44 -99 -65q10 -17 23 -32q48 -52 122 -54q27 0 64 51q33 47 71 130q19 42 36.5 90t26 74.5t8.5 27.5t1 2.5t3 5.5t5 6t8.5 4t11.5 0zM294 655q-83 0 -157 -122
q-40 -66 -63 -140h1q117 0 197 77q71 68 71 136q0 24 -11 36q-13 13 -38 13z" />
    <glyph glyph-name="k.dlig" horiz-adv-x="517" 
d="M531 262q9 -2 12.5 -9.5t2.5 -14.5l-1 -7l-9 -29q-10 -29 -28 -77t-37 -91q-39 -87 -75 -138q-52 -70 -101 -70h-1q-93 1 -155 70q-13 15 -23.5 32t-14.5 26t-4 11q-1 1 -1.5 3t-1.5 6.5t0.5 8t6 7t13.5 4.5q61 10 102 57q32 39 29 74q-3 30 -36 30q-35 0 -106 -102
q-26 -40 -36 -57q0 -5 -4 -10q-5 -9 -12.5 -9t-12.5 5l-5 4q-42 51 -50 156t18 214q-35 8 -57 22q-46 28 -61 76q-16 56 7 119q23 59 57 83q27 15 37 -2q5 -10 2.5 -17.5t-8.5 -12.5l-5 -5q-23 -16 -41 -61q-18 -53 -6 -90q17 -54 87 -68q38 130 111 215t171 85q46 0 70 -28
q25 -25 23 -66q0 -41 -22.5 -86t-61.5 -82q-96 -90 -229 -90q-10 0 -14 1q-11 -39 -20 -93q-18 -122 5 -208q3 5 9.5 15t10.5 15q36 51 66 81q43 41 77 41q35 0 57 -20q21 -19 24 -50q5 -55 -40 -108q-39 -45 -100 -65q16 -24 24 -32q46 -52 121 -54q27 0 64 51
q35 47 71 130q19 42 36.5 90t26.5 75l9 27q0 1 1 2.5t3 5.5t5 6t8.5 4t11.5 0zM137 533q-37 -61 -63 -140h1q116 0 198 77q70 67 70 136q2 23 -11 36t-37 13q-84 0 -158 -122z" />
    <glyph glyph-name="k.swsh" horiz-adv-x="1275" 
d="M1224 152q6 -20 -16 -25q-10 -2 -17 1.5t-9 7.5l-1 5l-2 5q-2 5 -5.5 15t-9 21t-14 25.5t-18.5 27.5q-70 91 -184 91q-47 0 -95 -19t-84 -43.5t-82.5 -71t-71.5 -76.5t-71 -86q-37 -45 -53.5 -64.5t-48 -53t-51.5 -47.5t-46.5 -26.5t-50.5 -12.5v1v-1q-94 1 -156 70
q-13 15 -23.5 32t-14.5 26t-4 11q-1 1 -1.5 3t-1.5 6.5t0.5 8t6 7t13.5 4.5q61 10 102 57q32 39 29 74q-3 30 -36 30q-35 0 -106 -102q-26 -40 -36 -57q0 -3 -3 -10q-6 -9 -13 -8.5t-12 4.5l-6 5q-31 37 -43.5 105.5t-6.5 147t30.5 161t62 148.5t95.5 108.5t124 42.5
q51 0 82.5 -31.5t34.5 -85.5q3 -52 -21 -111q-27 -62 -74 -112q-51 -55 -124 -94q-72 -36 -156 -48q-10 -95 9 -170q3 5 9.5 15t10.5 15q36 51 66 81q43 41 77 41q35 0 57 -20q21 -18 24 -50q5 -55 -40 -108q-39 -45 -100 -65q16 -24 24 -32q46 -52 121 -54q22 0 46.5 13.5
t56.5 46t52 55.5t60 72q115 144 191 208q124 105 248 105q138 0 221 -110q18 -24 32 -51t18.5 -41t4.5 -17zM294 655q-84 0 -158 -122q-70 -114 -94 -269q149 26 241 126q41 44 63.5 95.5t19.5 94.5q-1 29 -17 52t-55 23z" />
    <glyph glyph-name="s.ss01" horiz-adv-x="1261" 
d="M1287 259q5 -9 2.5 -16.5t-5.5 -11t-5 -4.5q-174 -99 -284 -208q29 -170 30 -224q4 -140 -84 -162q-19 -5 -41 -5q-37 0 -63.5 21t-36.5 57q-27 105 79 248q19 28 55 67q-11 70 -13 117q-2 40 1 67q-92 -100 -172 -166q-231 -192 -423 -192q-137 0 -220 110
q-8 11 -15.5 22.5t-13 22t-10 20t-8 17.5t-5.5 14l-3 9l-1 4q-4 22 18 26q9 2 15.5 -2t8.5 -8l2 -5q13 -48 48 -94q70 -91 184 -91q177 0 394 182q115 96 230 232l3 3v0q13 11 28 2q8 -4 10 -11t0 -12l-2 -5q-26 -61 -4 -210q13 12 41 36q94 79 224 154q26 13 36 -4z
M900 -327q23 0 38 12t20.5 36.5t7.5 48.5t-2 60.5t-7.5 59t-9.5 57.5q-2 12 -3 17q-20 -24 -29 -36q-43 -60 -62.5 -116t-9.5 -94q12 -45 57 -45z" />
    <glyph glyph-name="s.salt" horiz-adv-x="364" 
d="M390 250q4 -10 2 -17.5t-8 -11.5l-5 -4q-197 -112 -301 -211q9 -39 14.5 -67.5t8.5 -62t-1 -56t-14 -42.5t-31 -30t-52 -10q-28 0 -49.5 17t-29.5 45q-9 37 7 82q18 49 65 103q13 17 29 32q-2 8 -3 11q-20 77 -27.5 114.5t-7.5 87.5t20 77q1 2 4 4t11 5.5t15 -3.5
q8 -5 9.5 -13t-0.5 -14l-3 -5q-8 -15 -9.5 -37.5t4.5 -58t11 -58.5t17 -71q105 95 291 201q22 12 33 -7zM44 -201q26 33 -6 166q-2 -1 -4.5 -4t-3.5 -5q-76 -89 -63 -145q8 -28 36 -28q29 0 41 16z" />
    <glyph glyph-name="s.calt" horiz-adv-x="211" 
d="M140 8q2 0 5.5 -0.5t9.5 -6t6 -15.5t-5.5 -16t-10.5 -6l-5 -1q-46 0 -80 -7q7 -42 11.5 -71.5t7 -66.5t0.5 -62t-9.5 -51t-22 -41.5t-38 -25.5t-55.5 -10q-62 0 -101 42q-35 37 -35 96q0 42 20 85q21 43 60 78q40 35 97 56q-17 96 -19 153q-6 107 30 167q1 2 3.5 4
t10 5.5t16.5 -3.5q8 -4 10.5 -11t0.5 -12l-2 -5q-13 -31 -14 -81t4.5 -91.5t17.5 -109.5q36 7 87 7zM-46 -327q22 0 37 12t21 34.5t8.5 46.5t-1 58.5t-7 58.5t-9.5 57q-43 -17 -75 -45q-65 -55 -65 -129q0 -38 22.5 -65.5t68.5 -27.5z" />
    <glyph glyph-name="s.swsh" horiz-adv-x="1019" 
d="M951 205q5 -15 9 -31t5.5 -29t2.5 -25.5t0.5 -22.5t-1 -17t-1.5 -12v-4q0 -2 -1.5 -5.5t-8.5 -8.5t-18 -3q-10 1 -14 7.5t-4 11.5l1 6q10 57 -13 120q-43 124 -202 162q-60 13 -119.5 14t-111.5 -9.5t-100 -27t-91 -40.5t-79 -48t-68.5 -53t-55 -51.5t-43.5 -45.5
q4 -29 11 -70t12.5 -72.5t11 -70t6.5 -67t0 -59.5t-9.5 -52t-22 -38.5t-37 -26.5t-55.5 -9q-80 0 -109 62q-32 66 6 179q36 106 124 219l2 2q1 2 2 3q-2 15 -4 45q-5 109 30 167q1 2 3.5 4t10.5 5.5t17 -3.5q8 -4 10 -11t0 -12l-2 -5q-20 -48 -13 -130q33 36 80 76
q84 70 174 113q102 49 203 64q112 16 226 -8h1q101 -24 162 -81q51 -46 73 -112zM-45 -327q23 0 38 12t20.5 36.5t7.5 48.5t-2 60.5t-7.5 59t-9.5 57.5q-9 50 -14 82q-63 -87 -93 -175q-32 -95 -9 -145q18 -36 69 -36z" />
    <glyph glyph-name="q.ss01" horiz-adv-x="1292" 
d="M1306 262q10 -1 13.5 -10t1.5 -18l-2 -8q0 -2 -10.5 -40t-32.5 -108t-45 -131q-45 -122 -89 -194q-59 -98 -117 -98q-40 0 -62 37q-22 41 -19 117q3 72 22 154q22 100 59 194q-59 -39 -90 -39q-34 0 -51 20.5t-15 52.5q-30 -33 -59 -68q-129 -151 -205 -210
q-137 -107 -278 -107q-139 0 -221 110q-18 24 -32 51t-18.5 41t-4.5 17q-6 18 15 26q11 3 17.5 0t8.5 -9l2 -5q0 -2 4.5 -14t16.5 -36t28 -45q70 -91 184 -91q46 0 90 11.5t86 36.5t74.5 48.5t72.5 65t63 67t63 72.5q111 132 169 169q43 30 95 30q43 0 62 -50q8 -22 -14 -30
q-9 -3 -16 0t-10 8l-2 5q-7 22 -20 22q-41 0 -79 -47q-36 -46 -36 -82q0 -14 10 -14q27 0 83 44l54 47q2 2 4.5 3.5t11 3t15.5 -5.5q7 -5 8 -12.5t-1 -12.5l-3 -4q-59 -104 -97 -273q-41 -178 -8 -238q8 -15 23 -15q32 0 78 76q39 63 86 186q14 38 28.5 80.5t24.5 75.5
t17.5 60.5t12.5 43.5l4 15q1 3 2.5 8t9.5 12t18 5z" />
    <glyph glyph-name="q.salt" horiz-adv-x="364" 
d="M378 262q10 -1 13.5 -10t2.5 -18l-2 -8l-4 -16q-5 -15 -13 -43t-18.5 -62t-24.5 -76.5t-29 -81.5q-45 -122 -89 -194q-59 -98 -117 -98q-40 0 -62 37q-22 41 -19 117q3 72 22 154q21 94 56 185q-41 -30 -66 -30q-50 0 -59 50q-8 51 31 102q43 56 109 56q23 0 37 -14
t12 -27.5t-11 -19.5q-12 -4 -21 6t-17 10q-39 0 -70 -53q-25 -43 -14 -60q3 -5 9 -5q12 0 27 8.5t28.5 21.5t24.5 25.5t20 23.5t10 12q2 2 4.5 3.5t11 3t15.5 -5.5q7 -5 8 -12t-1 -11l-3 -5q-59 -106 -97 -274q-40 -181 -8 -238q9 -15 23 -15q32 0 78 76q42 68 86 187
q23 60 44.5 128.5t32 106.5t10.5 40l2.5 7.5t9.5 11.5t18 5z" />
    <glyph glyph-name="q.calt" horiz-adv-x="339" 
d="M209 227q-59 -106 -97 -274q-40 -181 -8 -238q9 -15 23 -15q23 1 23 -22q0 -10 -6 -16t-12 -6l-5 -1q-40 0 -62 37q-22 41 -19 117q3 72 22 154q22 100 59 194q-59 -39 -90 -39q-55 0 -65 52q-9 54 33 111q52 70 137 70q43 0 62 -50q8 -21 -14 -30q-9 -3 -16 0t-10 8
l-2 5q-7 22 -20 22q-41 0 -79 -47q-36 -46 -36 -82q0 -14 10 -14q28 0 83 44l54 47q2 2 4.5 3.5t11 3t15.5 -5.5q7 -5 8 -12t-1 -11z" />
    <glyph glyph-name="q.swsh" horiz-adv-x="1298" 
d="M1196 211q19 -29 32 -62t16.5 -49.5t3.5 -20.5l-45 -6q-9 58 -46 115q-73 112 -209 112q-42 0 -82.5 -9t-81 -30.5t-73.5 -42t-73 -57.5t-66 -62t-66 -71.5t-59 -69.5t-58 -72q-102 -124 -136 -158q-72 -72 -125 -72l-1 -1q-40 0 -62 37q-22 41 -19 117q3 72 22 154
q22 100 59 194q-59 -39 -90 -39q-55 0 -65 52q-9 54 33 111q52 70 137 70q43 0 62 -50q8 -21 -14 -30q-9 -3 -16 0t-10 8l-2 5q-7 22 -20 22q-41 0 -79 -47q-36 -46 -36 -82q0 -14 10 -14q28 0 83 44l54 47q2 2 4.5 3.5t11 3t15.5 -5.5q7 -5 8 -12t-1 -11l-3 -5
q-59 -106 -97 -274q-40 -181 -8 -238q9 -15 23 -15q26 0 66.5 34.5t72 71.5t88.5 108q161 202 257 284q171 147 337 147q162 0 248 -134z" />
    <glyph glyph-name="p.ss01" horiz-adv-x="1289" 
d="M1164 175q18 -21 18 -56q0 -68 -54 -138q-62 -77 -137 -77q-15 -1 -22 10q-5 -21 -19 -93q-2 -8 -5.5 -35t-7 -45t-9 -39.5t-13.5 -32.5t-17 -11q-19 0 -23.5 23.5t-4.5 82.5v19q0 81 11 175q15 134 45 271q-89 -96 -176 -170q-231 -192 -423 -192q-137 0 -221 110
q-8 11 -15.5 22.5t-13 22t-10 20t-7.5 17.5t-5 14l-3 9l-1 4q-4 22 18 26q9 2 15.5 -2t8.5 -8l2 -5q13 -48 48 -94q69 -91 184 -91q177 0 394 182q112 94 230 231q9 14 28 9q9 -2 12.5 -8.5t2.5 -11.5l-2 -6q-44 -144 -67 -360q-2 -20 -7 -74q63 326 189 326q38 0 57 -25z
M1092 9q45 58 45 110q0 36 -30 36q-75 0 -130 -209l14 3q54 0 101 60z" />
    <glyph glyph-name="p.swsh" horiz-adv-x="1093" 
d="M1042 321q3 -25 -20 -27q-10 -1 -16.5 5t-7.5 12l-1 6q-4 46 -36.5 81.5t-111.5 35.5q-91 0 -194 -78q-62 -46 -191 -180q-125 -131 -196 -185q-51 -39 -106 -63q-57 -24 -114 -24q-15 -1 -22 10q-5 -21 -19 -93q-2 -8 -5.5 -35t-7 -45t-9 -39.5t-13.5 -32.5t-17 -11
q-19 0 -23.5 23.5t-4.5 82.5v19q-1 69 11 175q26 225 68 363l2.5 5t9 7t18.5 1q9 -2 12.5 -8.5t1.5 -11.5l-1 -6q-44 -144 -67 -360q-2 -20 -7 -74q63 326 188 326q39 0 58 -25q18 -21 18 -56q0 -60 -44 -123q7 4 46 31q64 49 191 180q125 131 196 185q51 39 106 63
q58 24 115 24q92 0 144 -50q42 -40 49 -108zM34 -54l14 3q54 0 101 60q45 58 45 110q0 36 -31 36q-76 0 -129 -209z" />
    <glyph glyph-name="p.salt" horiz-adv-x="333" 
d="M265 417q18 -21 18 -56q0 -68 -54 -138q-62 -77 -137 -77q-15 -1 -22 10q-5 -21 -19 -93q-2 -8 -5.5 -35t-7 -45t-9 -39.5t-13.5 -32.5t-17 -11q-19 0 -23.5 23.5t-4.5 82.5v19q0 81 11 175q25 216 68 363l2.5 5t9 7t18.5 1q9 -2 12.5 -8.5t1.5 -11.5l-1 -6
q-44 -144 -67 -360q-2 -20 -7 -74q63 326 189 326q38 0 57 -25zM193 251q45 58 45 110q0 36 -30 36q-75 0 -130 -209l14 3q54 0 101 60z" />
    <glyph glyph-name="v.salt" horiz-adv-x="354" 
d="M265 369q9 -4 12 -12t1 -14l-2 -6l-1 -3q-7 -26 -16 -52.5t-33 -87t-48.5 -104t-60.5 -78.5t-71 -35q-55 0 -78 40.5t-17.5 92t18.5 96t24 56.5q1 2 3.5 3.5t11 3t16.5 -5.5q5 -4 6 -11t0 -12l-2 -6q-23 -59 -21.5 -135.5t39.5 -76.5q24 0 52 34t51 82.5t43 97.5t31 82.5
t11 34.5q1 3 3 7t10 8.5t18 0.5z" />
    <glyph glyph-name="v.ss01" horiz-adv-x="1408" 
d="M1427 220q0 -10 -5.5 -16t-11.5 -6l-5 -1q-2 0 -6.5 -0.5t-6.5 -0.5q-54 0 -96 33q-20 16 -58 64q-3 6 -7 10q-12 -40 -28 -82.5t-45.5 -104.5t-68 -100.5t-78.5 -38.5q-39 0 -62 20t-29 52.5t-4 65.5t11 69q-43 -39 -117 -128q-129 -151 -205 -210q-137 -106 -278 -106
q-139 0 -221 110q-18 24 -32 51t-18.5 41t-4.5 17q-6 17 15 25q11 3 17.5 0t8.5 -8l2 -6q13 -48 49 -94q69 -91 184 -91q46 0 90 11.5t86 36.5t74.5 48.5t72.5 65t63 67t63 72.5q42 49 64.5 74.5t56.5 56.5t62 46q13 13 30 0q5 -4 6 -11t-1 -12l-1 -6q-23 -59 -21.5 -135.5
t39.5 -76.5q37 0 83 78.5t73 156.5l27 78q6 24 33 24q21 0 48 -40q19 -26 30 -38.5t38 -26.5t59 -12q24 1 25 -22z" />
    <glyph glyph-name="v.swsh" horiz-adv-x="1254" 
d="M1191 150q8 -4 11 -10.5t2 -11.5l-2 -5q-16 -38 -38 -71.5t-55 -66t-81 -54t-106 -26.5q-110 -10 -209 81q-57 53 -145 185q-66 100 -103 138q-53 53 -100 49q-39 0 -74.5 -39t-63.5 -95t-55 -112.5t-59 -95.5t-66 -39q-55 0 -78.5 40.5t-18 92t18.5 96t24 56.5
q1 2 4 3.5t11 3t16 -5.5q5 -4 6 -11t0 -12l-2 -6q-23 -59 -21.5 -135.5t40.5 -76.5q21 0 45 39t49.5 95t55 112t72.5 95t92 39q36 0 69 -15t64.5 -47.5t54 -63t56.5 -80.5q90 -132 139 -177q82 -78 174 -69q170 15 242 190q1 2 3 4.5t10 7t18 -1.5z" />
    <glyph glyph-name="w.salt" horiz-adv-x="588" 
d="M499 369q9 -4 12 -12t1 -14l-1 -6l-1 -3q-6 -20 -12.5 -40t-23.5 -67.5t-36.5 -85.5t-44 -78t-54 -63t-59.5 -23q-85 0 -94 94q-53 -73 -109 -73q-50 0 -76.5 35.5t-28.5 87t6 105t23 93.5t27 49q1 2 3.5 3.5t11 3t16.5 -5.5q5 -4 6 -11t-1 -12l-1 -5q-15 -47 -25.5 -113
t-3 -125.5t42.5 -59.5q56 0 128 172q13 38 22 47q1 2 4 3.5t11 3t16 -5.5q5 -4 6 -11t0 -12l-2 -5q-23 -60 -21.5 -136.5t39.5 -76.5q24 0 52 34t51 82.5t43 97.5t31 82.5t11 34.5q1 3 3 7t10 8.5t18 0.5z" />
    <glyph glyph-name="w.ss01" horiz-adv-x="1608" 
d="M1627 220q0 -10 -5.5 -16t-11.5 -6l-5 -1q-2 0 -6 -0.5t-7 -0.5q-54 0 -96 33q-24 19 -57 64q-3 4 -7 10q-14 -44 -29 -83.5t-45 -103t-68.5 -101.5t-78.5 -38q-85 0 -94 94q-53 -73 -110 -73q-45 0 -70.5 28.5t-31 74t-1 92t16.5 91.5q-38 -36 -111 -122
q-123 -146 -205 -210q-136 -106 -278 -106q-137 0 -221 110q-8 11 -15.5 22.5t-13 22t-10 20t-7.5 17.5t-5 14t-3 10l-1 3q-6 17 15 25q11 3 17.5 0t8.5 -8l3 -6q12 -48 48 -94q69 -91 184 -91q56 0 111 19.5t94.5 44t90.5 72.5t77.5 78t75.5 87q45 52 66.5 75.5t56 55.5
t62.5 47q12 10 29 -1q5 -4 6 -11t0 -12l-2 -6q-15 -46 -25.5 -112t-3 -125.5t41.5 -59.5q57 0 129 172q13 38 22 47q1 2 4 3.5t11 3t16 -5.5q5 -4 6 -11t-1 -12l-1 -6q-23 -59 -21.5 -135.5t39.5 -76.5q37 0 83 78.5t73 156.5l27 78q6 24 33 24q10 0 19 -6.5t14 -13
t15 -20.5q18 -25 29.5 -38t39 -27t58.5 -12q24 1 25 -22z" />
    <glyph glyph-name="w.swsh" horiz-adv-x="1488" 
d="M1425 150q8 -4 11 -10.5t2 -11.5l-2 -5q-85 -201 -280 -218q-110 -10 -209 81q-55 50 -145 185q-72 106 -104 138q-52 53 -99 49q-39 0 -74.5 -39t-63.5 -95t-55 -112.5t-59.5 -95.5t-66.5 -39q-85 0 -94 94q-53 -73 -110 -73q-49 0 -75.5 35.5t-28.5 87t5.5 105t23 93.5
t27.5 49q1 2 3.5 3.5t11 3t16.5 -5.5q5 -4 6 -11t-1 -12l-1 -6q-15 -46 -25.5 -112t-3 -125.5t41.5 -59.5q57 0 129 172q13 38 22 47q1 2 4 3.5t11 3t16 -5.5q5 -4 6 -11t0 -12l-2 -6q-23 -59 -21.5 -135.5t39.5 -76.5q21 0 45.5 39t49.5 95t55 112t73 95t92 39q36 0 69 -15
t64 -47.5t54.5 -63t56.5 -80.5q90 -132 138 -177q84 -78 175 -69q168 15 242 190q1 2 3 4.5t10 7t18 -1.5z" />
    <glyph glyph-name="z.salt" horiz-adv-x="378" 
d="M281 55q2 -1 5.5 -2.5t8 -9t1.5 -17.5t-10 -13.5t-12 -2.5l-5 2q-30 6 -41 8q38 -53 48.5 -121.5t-6 -128.5t-68 -101t-127.5 -41q-107 0 -146 84q-26 56 -9 128q17 73 66 129q50 59 122 84q-23 10 -55 10q-22 -2 -23 20q0 10 4.5 16t9.5 7l5 2q56 9 92 38q31 23 41 54
q7 27 -7 39q-14 13 -50 13q-46 0 -108 -25q-19 -9 -28 12q-4 11 -1 17.5t8 9.5l5 3q69 28 124 28q52 2 80 -25q36 -33 20 -84q-13 -45 -56 -77q-13 -11 -27 -18l6 -3q18 -8 36 -23q47 2 97 -12zM75 -327q73 0 110.5 65t28.5 148t-57 133q-82 -14 -137 -80
q-41 -48 -55.5 -107t5.5 -102q26 -57 105 -57z" />
    </font>
</defs>
</svg>
