<?xml version="1.0" standalone="no"?>
<!DOCTYPE svg PUBLIC "-//W3C//DTD SVG 1.1//EN" "http://www.w3.org/Graphics/SVG/1.1/DTD/svg11.dtd" >
<svg xmlns="http://www.w3.org/2000/svg" xmlns:xlink="http://www.w3.org/1999/xlink" version="1.1">
<metadata>
Created by FontForge 20170731 at Fri Sep  5 18:23:33 2014
 By Aleksey,,,
Typeface (c) Jeff Bensch. 2014. All Rights Reserved
</metadata>
<defs>
<font id="BUSSTOP" horiz-adv-x="601" >
  <font-face 
    font-family="BUS STOP"
    font-weight="400"
    font-stretch="normal"
    units-per-em="2048"
    panose-1="2 0 5 0 0 0 0 0 0 0"
    ascent="1638"
    descent="-410"
    x-height="1500"
    cap-height="1500"
    bbox="-342 -918 2048 3087"
    underline-thickness="150"
    underline-position="-442"
    unicode-range="U+0020-F002"
  />
<missing-glyph horiz-adv-x="1024" 
d="M100 0v1434h824v-1434h-824zM150 50h724v1334h-724v-1334zM325 1148q31 28 58 43q53 30 112 30q92 0 148 -47.5t56 -127.5q0 -49 -23 -98.5t-87 -129.5q-63 -80 -99 -132t-36 -99q0 -38 24 -133h-32q-35 97 -35 148q0 76 81.5 218t81.5 217q0 57 -33 90t-91 33
q-38 0 -69 -17q-26 -15 -56 -40v45zM389 334l57 58q11 10 20 10q10 0 22 -11l56 -60q9 -11 9 -20q0 -11 -10 -22l-56 -62q-14 -14 -21 -14q-11 0 -20 10l-61 71q-7 9 -7 18q0 10 11 22z" />
    <glyph glyph-name=".notdef" horiz-adv-x="1024" 
d="M100 0v1434h824v-1434h-824zM150 50h724v1334h-724v-1334zM325 1148q31 28 58 43q53 30 112 30q92 0 148 -47.5t56 -127.5q0 -49 -23 -98.5t-87 -129.5q-63 -80 -99 -132t-36 -99q0 -38 24 -133h-32q-35 97 -35 148q0 76 81.5 218t81.5 217q0 57 -33 90t-91 33
q-38 0 -69 -17q-26 -15 -56 -40v45zM389 334l57 58q11 10 20 10q10 0 22 -11l56 -60q9 -11 9 -20q0 -11 -10 -22l-56 -62q-14 -14 -21 -14q-11 0 -20 10l-61 71q-7 9 -7 18q0 10 11 22z" />
    <glyph glyph-name=".null" horiz-adv-x="0" 
 />
    <glyph glyph-name="nonmarkingreturn" horiz-adv-x="508" 
 />
    <glyph glyph-name="space" unicode=" " 
 />
    <glyph glyph-name="space" unicode="&#xa0;" 
 />
    <glyph glyph-name="exclam" unicode="!" horiz-adv-x="200" 
d="M0 -500v100h100v-100h-100zM2 -301v1801h100v-1801h-100z" />
    <glyph glyph-name="quotedbl" unicode="&#x22;" horiz-adv-x="400" 
d="M0 1478v100h100v-200zM200 1478v100h100v-200z" />
    <glyph glyph-name="numbersign" unicode="#" horiz-adv-x="899" 
d="M118 200l255 702h106l-255 -702h-106zM328 200l255 702h106l-255 -702h-106zM103 701h694v-100h-694v100zM702 401h-703v100h703v-100z" />
    <glyph glyph-name="dollar" unicode="$" 
d="M200 689v611q-100 0 -100 -100v-266q9 -134 80 -220zM300 -300q100 0 100 100v372q0 118 -92 233l-8 10v-715zM300 567l101 -124q94 -116 99 -264v-379q0 -200 -200 -200v-100h-100v100q-200 0 -200 200v300h100v-300q0 -100 100 -100v836l-88 107q-106 130 -112 278v279
q0 200 200 200v100h100v-100q200 0 200 -200v-201h-100v201q0 100 -100 100v-733z" />
    <glyph glyph-name="percent" unicode="%" horiz-adv-x="699" 
d="M300 1300q0 100 -100 100t-100 -100v-400q0 -100 100 -100t100 100v400zM400 1300v-400q0 -200 -200 -200t-200 200v400q0 200 200 200t200 -200zM99 343l321 371q71 86 80 220v566h100v-579q-6 -148 -112 -278l-296 -338q-92 -115 -92 -233v-572h-100v579q5 148 99 264z
M500 100q0 100 -100 100t-100 -100v-400q0 -100 100 -100t100 100v400zM600 100v-400q0 -200 -200 -200t-200 200v400q0 200 200 200t200 -200z" />
    <glyph glyph-name="ampersand" unicode="&#x26;" 
d="M400 500h-200q-100 0 -100 -100v-500q0 -100 100 -100h100q100 0 100 100v200h100v-200q0 -200 -200 -200h-100q-200 0 -200 200v500q0 100 50 150q-50 50 -50 150v400q0 200 200 200h100q200 0 200 -200v-100h-100v100q0 100 -100 100h-100q-100 0 -100 -100v-400
q0 -100 100 -100h200v-100zM200 -500v100h100v-100h-100zM200 1400v100h100v-100h-100z" />
    <glyph glyph-name="quotesingle" unicode="'" horiz-adv-x="200" 
d="M0 1478v100h100v-200z" />
    <glyph glyph-name="parenleft" unicode="(" horiz-adv-x="400" 
d="M300 -600h-100q-200 0 -200 200v1800q0 200 200 200h100v-100h-100q-100 0 -100 -100v-1800q0 -100 100 -100h100v-100z" />
    <glyph glyph-name="parenright" unicode=")" horiz-adv-x="400" 
d="M0 -500h100q100 0 100 100v1800q0 100 -100 100h-100v100h100q200 0 200 -200v-1800q0 -200 -200 -200h-100v100z" />
    <glyph glyph-name="asterisk" unicode="*" horiz-adv-x="728" 
d="M272 1198v246h100v-245l243 65l26 -97l-241 -64l127 -221l-87 -50l-114 199l-117 -204l-87 50l128 223l-250 67l26 97z" />
    <glyph glyph-name="plus" unicode="+" 
d="M200 501h-200v100h200v200h100v-200h200v-100h-200v-200h-100v200z" />
    <glyph glyph-name="comma" unicode="," horiz-adv-x="200" 
d="M0 -500v100h100v-200z" />
    <glyph glyph-name="hyphen" unicode="-" 
d="M0 601h500v-100h-500v100z" />
    <glyph glyph-name="hyphen" unicode="&#xad;" 
d="M0 601h500v-100h-500v100z" />
    <glyph glyph-name="period" unicode="." horiz-adv-x="200" 
d="M0 -500v100h100v-100h-100z" />
    <glyph glyph-name="slash" unicode="/" horiz-adv-x="967" 
d="M95 -457l-94 34l684 1880l94 -34z" />
    <glyph glyph-name="zero" unicode="0" 
d="M400 1300q0 100 -100 100h-100q-100 0 -100 -100v-1600q0 -100 100 -100h100q100 0 100 100v1600zM300 1500q200 0 200 -200v-1600q0 -200 -200 -200h-100q-200 0 -200 200v1600q0 200 200 200h100z" />
    <glyph glyph-name="one" unicode="1" 
d="M0 -500v100h202v1800h-202v100h302v-1900h198v-100h-500z" />
    <glyph glyph-name="two" unicode="2" 
d="M99 443l221 271q71 86 80 220v366q0 100 -100 100h-100q-100 0 -100 -100v-301h-100v301q0 200 200 200h100q200 0 200 -200v-379q-6 -148 -112 -278l-196 -238q-92 -115 -92 -233v-572h300v500h100v-600h-500v679q5 148 99 264z" />
    <glyph glyph-name="three" unicode="3" 
d="M100 600h200q100 0 100 100v600q0 100 -100 100h-100q-100 0 -100 -100v-300h-100v300q0 200 200 200h100q200 0 200 -200v-600q0 -100 -50 -150q50 -50 50 -150v-700q0 -200 -200 -200h-100q-200 0 -200 200v400h100v-400q0 -100 100 -100h100q100 0 100 100v700
q0 100 -100 100h-200v100z" />
    <glyph glyph-name="four" unicode="4" 
d="M0 1500h100v-899h300v899h100v-2000h-100v1001h-400v999z" />
    <glyph glyph-name="five" unicode="5" 
d="M500 179v-479q0 -200 -200 -200h-100q-200 0 -200 200v400h100v-400q0 -100 100 -100h100q100 0 100 100v472q0 118 -92 233l-196 238q-106 130 -112 278v579h500v-100h-400v-466q9 -134 80 -220l221 -271q94 -116 99 -264z" />
    <glyph glyph-name="six" unicode="6" 
d="M100 -300q0 -100 100 -100h100q100 0 100 100v700q0 100 -100 100h-100q-100 0 -100 -100v-700zM0 1300q0 200 200 200h100q200 0 200 -200v-300h-100v300q0 100 -100 100h-100q-100 0 -100 -100v-700h200q200 0 200 -200v-700q0 -200 -200 -200h-100q-200 0 -200 200
v1600z" />
    <glyph glyph-name="seven" unicode="7" 
d="M99 443l221 271q71 86 80 220v466h-300v-401h-100v501h500v-579q-6 -148 -112 -278l-196 -238q-92 -115 -92 -233v-672h-100v679q5 148 99 264z" />
    <glyph glyph-name="eight" unicode="8" 
d="M0 179q5 148 99 264l88 108l-75 92q-106 130 -112 278v379q0 200 200 200h100q200 0 200 -200v-379q-6 -148 -112 -278l-75 -92l88 -108q94 -116 99 -264v-479q0 -200 -200 -200h-100q-200 0 -200 200v479zM100 934q9 -134 80 -220l70 -86l70 86q71 86 80 220v366
q0 100 -100 100h-100q-100 0 -100 -100v-366zM100 -300q0 -100 100 -100h100q100 0 100 100v472q0 118 -92 233l-58 70l-58 -70q-92 -115 -92 -233v-472z" />
    <glyph glyph-name="nine" unicode="9" 
d="M400 1300q0 100 -100 100h-100q-100 0 -100 -100v-600q0 -100 100 -100h100q100 0 100 100v600zM500 -300q0 -200 -200 -200h-100q-200 0 -200 200v300h100v-300q0 -100 100 -100h100q100 0 100 100v800h-200q-200 0 -200 200v600q0 200 200 200h100q200 0 200 -200
v-1600z" />
    <glyph glyph-name="colon" unicode=":" horiz-adv-x="200" 
d="M0 200v100h100v-100h-100zM0 800v100h100v-100h-100z" />
    <glyph glyph-name="semicolon" unicode=";" horiz-adv-x="200" 
d="M0 200v100h100v-200zM0 800v100h100v-100h-100z" />
    <glyph glyph-name="semicolon" unicode="&#x37e;" horiz-adv-x="200" 
d="M0 200v100h100v-200zM0 800v100h100v-100h-100z" />
    <glyph glyph-name="less" unicode="&#x3c;" horiz-adv-x="551" 
d="M-3 500l348 957l94 -34l-336 -923l336 -923l-94 -34z" />
    <glyph glyph-name="equal" unicode="=" 
d="M0 701h500v-100h-500v100zM0 501h500v-100h-500v100z" />
    <glyph glyph-name="greater" unicode="&#x3e;" horiz-adv-x="551" 
d="M91 -457l-94 34l336 923l-336 923l94 34l348 -957z" />
    <glyph glyph-name="question" unicode="?" 
d="M302 -400v-100h-100v100h100zM287 670l2 2l12 16l4 5l15 19q71 88 80 222v366q0 100 -100 100h-100q-100 0 -100 -100v-301h-100v301q0 200 200 200h100q200 0 200 -200v-379q-6 -142 -103 -267l-3 -4q-92 -115 -92 -233v-717h-100v724q5 136 85 246z" />
    <glyph glyph-name="at" unicode="@" horiz-adv-x="799" 
d="M600 1000q0 100 -100 100h-100q-100 0 -100 -100v-1100q0 -100 100 -100h100q100 0 100 100v1100zM600 1183v117q0 100 -100 100h-300q-100 0 -100 -100v-1600q0 -100 100 -100l497 1v-101h-497q-200 0 -200 200v1600q0 200 200 200h300q200 0 200 -200v-1402
q0 -198 -200 -198h-100q-200 0 -200 200v1100q0 200 200 200h100q59 0 100 -17z" />
    <glyph glyph-name="A" unicode="A" 
d="M400 501h-300v-1001h-100v1800q0 200 200 200h100q200 0 200 -200v-1800h-100v1001zM100 601h300v699q0 100 -100 100h-100q-100 0 -100 -100v-699z" />
    <glyph glyph-name="B" unicode="B" 
d="M0 1500h300q200 0 200 -200v-600q0 -100 -50 -150q50 -50 50 -150v-700q0 -200 -200 -200h-300v2000zM100 500v-900h200q100 0 100 100v700q0 100 -100 100h-200zM100 1400v-800h200q100 0 100 100v600q0 100 -100 100h-200z" />
    <glyph glyph-name="C" unicode="C" 
d="M300 -400q100 0 100 100v400h100v-400q0 -200 -200 -200h-100q-200 0 -200 200v1600q0 200 200 200h100q200 0 200 -200v-301h-100v301q0 100 -100 100h-100q-100 0 -100 -100v-1600q0 -100 100 -100h100z" />
    <glyph glyph-name="D" unicode="D" 
d="M400 1300q0 100 -100 100h-200v-1800h200q100 0 100 100v1600zM300 1500q200 0 200 -200v-1600q0 -200 -200 -200h-300v2000h300z" />
    <glyph glyph-name="E" unicode="E" 
d="M100 -400h400v-100h-500v2000h500v-100h-400v-799h300v-100h-300v-901z" />
    <glyph glyph-name="F" unicode="F" 
d="M100 501v-1001h-100v2000h500v-100h-400v-799h300v-100h-300z" />
    <glyph glyph-name="G" unicode="G" 
d="M500 -300q0 -200 -200 -200h-100q-200 0 -200 200v1600q0 200 200 200h100q200 0 200 -200v-301h-100v301q0 100 -100 100h-100q-100 0 -100 -100v-1600q0 -100 100 -100h100q100 0 100 100v801h-199v100h299v-901z" />
    <glyph glyph-name="H" unicode="H" 
d="M0 1500h100v-899h300v899h100v-2000h-100v1001h-300v-1001h-100v2000z" />
    <glyph glyph-name="I" unicode="I" 
d="M0 -500v100h202v1800h-202v100h500v-100h-198v-1800h198v-100h-500z" />
    <glyph glyph-name="J" unicode="J" 
d="M500 1500v-1800q0 -200 -200 -200h-100q-200 0 -200 200v400h100v-400q0 -100 100 -100h100q100 0 100 100v1800h100z" />
    <glyph glyph-name="K" unicode="K" 
d="M100 500v-1000h-100v2000h100v-900h200q100 0 100 100v800h100v-800q0 -100 -50 -150q50 -50 50 -150v-900h-100v900q0 100 -100 100h-200z" />
    <glyph glyph-name="L" unicode="L" 
d="M0 1500h100v-1900h400v-100h-500v2000z" />
    <glyph glyph-name="M" unicode="M" 
d="M100 1224v-1724h-100v2000h100q9 -134 80 -220l70 -86l70 86q71 86 80 220h100v-2000h-100v1724q-6 -7 -12 -15l-138 -168l-138 168q-6 8 -12 15z" />
    <glyph glyph-name="N" unicode="N" 
d="M100 1224v-1724h-100v2000h100q9 -134 80 -220l220 -270v490h100v-2000h-100v1238q0 118 -92 233l-196 238q-6 8 -12 15z" />
    <glyph glyph-name="O" unicode="O" 
d="M400 1300q0 100 -100 100h-100q-100 0 -100 -100v-1600q0 -100 100 -100h100q100 0 100 100v1600zM300 1500q200 0 200 -200v-1600q0 -200 -200 -200h-100q-200 0 -200 200v1600q0 200 200 200h100z" />
    <glyph glyph-name="P" unicode="P" 
d="M0 1500h300q200 0 200 -200v-599q0 -199 -199 -200h-201v-1001h-100v2000zM100 1400v-799h200q100 0 100 100v599q0 100 -100 100h-200z" />
    <glyph glyph-name="Q" unicode="Q" 
d="M300 -400q100 0 100 100v1600q0 100 -100 100h-100q-100 0 -100 -100v-1600q0 -100 100 -100v300h100v-300zM200 -500q-200 0 -200 200v1600q0 200 200 200h100q200 0 200 -200v-1600q0 -200 -200 -200q0 -100 100 -100h100v-100h-100q-200 0 -200 200z" />
    <glyph glyph-name="R" unicode="R" 
d="M100 600h200q100 0 100 100v600q0 100 -100 100h-200v-800zM300 1500q200 0 200 -200v-600q0 -100 -50 -150q50 -50 50 -150v-900h-100v900q0 100 -100 100h-200v-1000h-100v2000h300z" />
    <glyph glyph-name="S" unicode="S" 
d="M500 179v-479q0 -200 -200 -200h-100q-200 0 -200 200v400h100v-400q0 -100 100 -100h100q100 0 100 100v472q0 118 -92 233l-196 238q-106 130 -112 278v379q0 200 200 200h100q200 0 200 -200v-301h-100v301q0 100 -100 100h-100q-100 0 -100 -100v-366q9 -134 80 -220
l221 -271q94 -116 99 -264z" />
    <glyph glyph-name="T" unicode="T" 
d="M302 1400v-1900h-100v1900h-202v100h500v-100h-198z" />
    <glyph glyph-name="U" unicode="U" 
d="M200 -500q-200 0 -200 200v1800h100v-1800q0 -100 100 -100h100q100 0 100 100v1800h100v-1800q0 -200 -200 -200h-100z" />
    <glyph glyph-name="V" unicode="V" 
d="M0 1500h100v-1541q9 -134 80 -220l70 -86l70 86q71 86 80 220v1541h100v-1554q-6 -148 -112 -278l-138 -168l-138 168q-106 130 -112 278v1554z" />
    <glyph glyph-name="W" unicode="W" 
d="M0 1500h100v-1724q6 7 12 15l138 168l138 -168q6 -8 12 -15v1724h100v-2000h-100q-9 134 -80 220l-70 86l-70 -86q-71 -86 -80 -220h-100v2000z" />
    <glyph glyph-name="X" unicode="X" 
d="M187 551l-75 92q-106 130 -112 278v579h100v-566q9 -134 80 -220l70 -86l70 86q71 86 80 220v566h100v-579q-6 -148 -112 -278l-75 -92l88 -108q94 -116 99 -264v-679h-100v672q0 118 -92 233l-58 70l-58 -70q-92 -115 -92 -233v-672h-100v679q5 148 99 264z" />
    <glyph glyph-name="Y" unicode="Y" 
d="M202 533l-15 18l-75 92q-106 130 -112 278v579h100v-566q9 -134 80 -220l70 -86l70 86q71 86 80 220v566h100v-579q-6 -148 -112 -278l-75 -92l-11 -13v-1038h-100v1033z" />
    <glyph glyph-name="Z" unicode="Z" 
d="M99 443l221 271q71 86 80 220v466h-400v100h500v-579q-6 -148 -112 -278l-196 -238q-92 -115 -92 -233v-572h400v-100h-500v679q5 148 99 264z" />
    <glyph glyph-name="bracketleft" unicode="[" horiz-adv-x="400" 
d="M300 -600h-300v2200h300v-100h-200v-2000h200v-100z" />
    <glyph glyph-name="backslash" unicode="\" horiz-adv-x="967" 
d="M1 1423l94 34l684 -1880l-94 -34z" />
    <glyph glyph-name="bracketright" unicode="]" horiz-adv-x="400" 
d="M0 -500h200v2000h-200v100h300v-2200h-300v100z" />
    <glyph glyph-name="asciicircum" unicode="^" 
d="M500 998h-100v43q-9 134 -80 220l-70 86l-70 -86q-71 -86 -80 -220v-43h-100v56q6 148 112 278l138 168l138 -168q106 -130 112 -278v-56z" />
    <glyph glyph-name="underscore" unicode="_" 
d="M0 -600v100h500v-100h-500z" />
    <glyph glyph-name="grave" unicode="`" horiz-adv-x="401" 
d="M0 1678v100h100l200 -200z" />
    <glyph glyph-name="a" unicode="a" 
d="M400 501h-300v-1001h-100v1800q0 200 200 200h100q200 0 200 -200v-1800h-100v1001zM100 601h300v699q0 100 -100 100h-100q-100 0 -100 -100v-699z" />
    <glyph glyph-name="b" unicode="b" 
d="M0 1500h300q200 0 200 -200v-600q0 -100 -50 -150q50 -50 50 -150v-700q0 -200 -200 -200h-300v2000zM100 500v-900h200q100 0 100 100v700q0 100 -100 100h-200zM100 1400v-800h200q100 0 100 100v600q0 100 -100 100h-200z" />
    <glyph glyph-name="c" unicode="c" 
d="M300 -400q100 0 100 100v400h100v-400q0 -200 -200 -200h-100q-200 0 -200 200v1600q0 200 200 200h100q200 0 200 -200v-301h-100v301q0 100 -100 100h-100q-100 0 -100 -100v-1600q0 -100 100 -100h100z" />
    <glyph glyph-name="d" unicode="d" 
d="M400 1300q0 100 -100 100h-200v-1800h200q100 0 100 100v1600zM300 1500q200 0 200 -200v-1600q0 -200 -200 -200h-300v2000h300z" />
    <glyph glyph-name="e" unicode="e" 
d="M100 -400h400v-100h-500v2000h500v-100h-400v-799h300v-100h-300v-901z" />
    <glyph glyph-name="f" unicode="f" 
d="M100 501v-1001h-100v2000h500v-100h-400v-799h300v-100h-300z" />
    <glyph glyph-name="g" unicode="g" 
d="M500 -300q0 -200 -200 -200h-100q-200 0 -200 200v1600q0 200 200 200h100q200 0 200 -200v-301h-100v301q0 100 -100 100h-100q-100 0 -100 -100v-1600q0 -100 100 -100h100q100 0 100 100v801h-199v100h299v-901z" />
    <glyph glyph-name="h" unicode="h" 
d="M0 1500h100v-899h300v899h100v-2000h-100v1001h-300v-1001h-100v2000z" />
    <glyph glyph-name="i" unicode="i" 
d="M0 -500v100h202v1800h-202v100h500v-100h-198v-1800h198v-100h-500z" />
    <glyph glyph-name="j" unicode="j" 
d="M500 1500v-1800q0 -200 -200 -200h-100q-200 0 -200 200v400h100v-400q0 -100 100 -100h100q100 0 100 100v1800h100z" />
    <glyph glyph-name="k" unicode="k" 
d="M100 500v-1000h-100v2000h100v-900h200q100 0 100 100v800h100v-800q0 -100 -50 -150q50 -50 50 -150v-900h-100v900q0 100 -100 100h-200z" />
    <glyph glyph-name="l" unicode="l" 
d="M0 1500h100v-1900h400v-100h-500v2000z" />
    <glyph glyph-name="m" unicode="m" 
d="M100 1224v-1724h-100v2000h100q9 -134 80 -220l70 -86l70 86q71 86 80 220h100v-2000h-100v1724q-6 -7 -12 -15l-138 -168l-138 168q-6 8 -12 15z" />
    <glyph glyph-name="n" unicode="n" 
d="M100 1224v-1724h-100v2000h100q9 -134 80 -220l220 -270v490h100v-2000h-100v1238q0 118 -92 233l-196 238q-6 8 -12 15z" />
    <glyph glyph-name="o" unicode="o" 
d="M400 1300q0 100 -100 100h-100q-100 0 -100 -100v-1600q0 -100 100 -100h100q100 0 100 100v1600zM300 1500q200 0 200 -200v-1600q0 -200 -200 -200h-100q-200 0 -200 200v1600q0 200 200 200h100z" />
    <glyph glyph-name="p" unicode="p" 
d="M0 1500h300q200 0 200 -200v-599q0 -199 -199 -200h-201v-1001h-100v2000zM100 1400v-799h200q100 0 100 100v599q0 100 -100 100h-200z" />
    <glyph glyph-name="q" unicode="q" 
d="M300 -400q100 0 100 100v1600q0 100 -100 100h-100q-100 0 -100 -100v-1600q0 -100 100 -100v300h100v-300zM200 -500q-200 0 -200 200v1600q0 200 200 200h100q200 0 200 -200v-1600q0 -200 -200 -200q0 -100 100 -100h100v-100h-100q-200 0 -200 200z" />
    <glyph glyph-name="r" unicode="r" 
d="M100 600h200q100 0 100 100v600q0 100 -100 100h-200v-800zM300 1500q200 0 200 -200v-600q0 -100 -50 -150q50 -50 50 -150v-900h-100v900q0 100 -100 100h-200v-1000h-100v2000h300z" />
    <glyph glyph-name="s" unicode="s" 
d="M500 179v-479q0 -200 -200 -200h-100q-200 0 -200 200v400h100v-400q0 -100 100 -100h100q100 0 100 100v472q0 118 -92 233l-196 238q-106 130 -112 278v379q0 200 200 200h100q200 0 200 -200v-301h-100v301q0 100 -100 100h-100q-100 0 -100 -100v-366q9 -134 80 -220
l221 -271q94 -116 99 -264z" />
    <glyph glyph-name="t" unicode="t" 
d="M302 1400v-1900h-100v1900h-202v100h500v-100h-198z" />
    <glyph glyph-name="u" unicode="u" 
d="M200 -500q-200 0 -200 200v1800h100v-1800q0 -100 100 -100h100q100 0 100 100v1800h100v-1800q0 -200 -200 -200h-100z" />
    <glyph glyph-name="v" unicode="v" 
d="M0 1500h100v-1541q9 -134 80 -220l70 -86l70 86q71 86 80 220v1541h100v-1554q-6 -148 -112 -278l-138 -168l-138 168q-106 130 -112 278v1554z" />
    <glyph glyph-name="w" unicode="w" 
d="M0 1500h100v-1724q6 7 12 15l138 168l138 -168q6 -8 12 -15v1724h100v-2000h-100q-9 134 -80 220l-70 86l-70 -86q-71 -86 -80 -220h-100v2000z" />
    <glyph glyph-name="x" unicode="x" 
d="M187 551l-75 92q-106 130 -112 278v579h100v-566q9 -134 80 -220l70 -86l70 86q71 86 80 220v566h100v-579q-6 -148 -112 -278l-75 -92l88 -108q94 -116 99 -264v-679h-100v672q0 118 -92 233l-58 70l-58 -70q-92 -115 -92 -233v-672h-100v679q5 148 99 264z" />
    <glyph glyph-name="y" unicode="y" 
d="M202 533l-15 18l-75 92q-106 130 -112 278v579h100v-566q9 -134 80 -220l70 -86l70 86q71 86 80 220v566h100v-579q-6 -148 -112 -278l-75 -92l-11 -13v-1038h-100v1033z" />
    <glyph glyph-name="z" unicode="z" 
d="M99 443l221 271q71 86 80 220v466h-400v100h500v-579q-6 -148 -112 -278l-196 -238q-92 -115 -92 -233v-572h400v-100h-500v679q5 148 99 264z" />
    <glyph glyph-name="braceleft" unicode="{" horiz-adv-x="599" 
d="M200 1400q0 200 200 200h100v-100h-100q-100 0 -100 -100v-700q0 -100 -50 -150q50 -50 50 -150v-800q0 -100 100 -100h100v-100h-100q-200 0 -200 200v800q0 100 -100 100h-100v100h100q100 0 100 100v700z" />
    <glyph glyph-name="bar" unicode="|" horiz-adv-x="201" 
d="M100 -600h-100v2200h100v-2200z" />
    <glyph glyph-name="braceright" unicode="}" horiz-adv-x="599" 
d="M300 700q0 -100 100 -100h100v-100h-100q-100 0 -100 -100v-800q0 -200 -200 -200h-100v100h100q100 0 100 100v800q0 100 50 150q-50 50 -50 150v700q0 100 -100 100h-100v100h100q200 0 200 -200v-700z" />
    <glyph glyph-name="asciitilde" unicode="~" 
d="M300 500h-100q-100 0 -100 -100h-100q0 200 200 200h100q100 0 100 100h100q0 -200 -200 -200z" />
    <glyph glyph-name="exclamdown" unicode="&#xa1;" horiz-adv-x="200" 
d="M102 1500v-100h-100v100h100zM100 1301v-1801h-100v1801h100z" />
    <glyph glyph-name="cent" unicode="&#xa2;" 
d="M439.996 -280.005q79.999 0 79.999 70.001v280.005h79.999v-280.005q0 -140.002 -159.998 -140.002h-79.998q-159.998 0 -159.998 140.002v1120.02q0 140.003 159.998 140.003h79.998q159.998 0 159.998 -140.003v-210.703h-79.999v210.703q0 70.002 -79.999 70.002
h-79.998q-79.999 0 -79.999 -70.002v-1120.02q0 -70.001 79.999 -70.001h79.998zM84.502 -265.595l-84.6016 27.2002l615.616 1503.98l84.6025 -27.1992z" />
    <glyph glyph-name="sterling" unicode="&#xa3;" 
d="M100 501v-901h300v500h100v-600h-500v1800q0 200 200 200h100q200 0 200 -200v-301h-100v301q0 100 -100 100h-100q-100 0 -100 -100v-699h400v-100h-400z" />
    <glyph glyph-name="currency" unicode="&#xa4;" horiz-adv-x="1014" 
d="M350 560q41 -40 99 -57q29 -8 58 -8t58 8q58 17 99 57q40 41 57 99q9 29 9 58t-9 58q-17 58 -57 99q-41 40 -100 57q-29 8 -58 8t-58 -9q-58 -17 -98 -56q-39 -40 -56 -98q-10 -30 -10 -60q0 -28 9 -56q16 -59 57 -100zM240 903l-118 118l80 81l118 -118q44 30 99 46
q44 14 89 14q41 0 83 -12q57 -17 102 -48l118 118l80 -81l-117 -117q31 -46 48 -102q12 -42 12 -85q0 -42 -12 -85q-17 -56 -48 -102l117 -117l-80 -81l-118 118q-45 -32 -101 -48q-42 -12 -85 -12q-42 0 -85 12q-57 16 -102 48l-118 -118l-80 81l118 117q-32 46 -48 103
q-12 42 -12 84q0 44 13 87q16 55 47 99z" />
    <glyph glyph-name="yen" unicode="&#xa5;" 
d="M146 601l-34 42q-106 130 -112 278v579h100v-566q9 -134 80 -220l70 -86l70 86q71 86 80 220v566h100v-579q-6 -148 -112 -278l-34 -42h146v-100h-198v-100h198v-100h-198v-801h-100v801h-202v100h202v100h-202v100h146z" />
    <glyph glyph-name="brokenbar" unicode="&#xa6;" horiz-adv-x="1014" 
d="M427 371h160v-789h-160v789zM427 1578h160v-789h-160v789z" />
    <glyph glyph-name="section" unicode="&#xa7;" horiz-adv-x="600" 
d="M500 529v-29q0 -200 -200 -200h-100q-200 0 -200 200h100q0 -100 100 -100h100q100 0 100 100v22q0 118 -92 233l-196 238q-106 130 -112 278v29q0 200 200 200h100q200 0 200 -200h-100q0 100 -100 100h-100q-100 0 -100 -100v-16q9 -134 80 -220l221 -271
q94 -116 99 -264zM500 -271v-29q0 -200 -200 -200h-100q-200 0 -200 200h100q0 -100 100 -100h100q100 0 100 100v22q0 118 -92 233l-196 238q-106 130 -112 278v29q0 200 200 200h100q200 0 200 -200h-100q0 100 -100 100h-100q-100 0 -100 -100v-16q9 -134 80 -220
l221 -271q94 -116 99 -264z" />
    <glyph glyph-name="dieresis" unicode="&#xa8;" horiz-adv-x="597" 
d="M100 1677v100h100v-100h-100zM400 1677v100h100v-100h-100z" />
    <glyph glyph-name="copyright" unicode="&#xa9;" horiz-adv-x="1674" 
d="M840 1456q145 0 280 -56.5t239 -160.5q102 -101 158.5 -238t56.5 -283q0 -147 -56.5 -282t-162.5 -240q-105 -105 -239 -159.5t-283 -54.5q-146 0 -278 55.5t-238 160.5q-106 104 -161.5 237.5t-55.5 282.5q0 148 55.5 283t159.5 238q102 104 238.5 160.5t286.5 56.5z
M357 1197q-95 -96 -146 -219.5t-51 -259.5q0 -137 51 -259t148 -219q98 -96 219 -147t256 -51q137 0 259.5 50.5t219.5 145.5q97 98 149 221.5t52 258.5q0 134 -52 259.5t-145 219.5q-96 96 -220 147.5t-258 51.5q-137 0 -262 -51.5t-220 -147.5zM865 223q-142 0 -264 68
t-186 185t-64 243t65.5 244t187.5 184.5t254 66.5q38 0 75 -6.5t76 -20.5q5 -1 9 -1q19 0 26 30h42l72 -198h-44q-52 94 -131 124q-72 26 -147 26h-15q-86 -8 -166.5 -71t-121.5 -177q-33 -90 -33 -184q0 -25 2 -50q11 -121 69.5 -224t149.5 -152q72 -40 166 -42
q124 0 194 56t70 126h53v-100q0 -46 -96.5 -86.5t-242.5 -40.5z" />
    <glyph glyph-name="ordfeminine" unicode="&#xaa;" horiz-adv-x="431" 
d="M263.989 900.588h-197.992v-600.576h-65.9971v1079.96q0 119.994 131.994 119.994h65.998q131.994 0 131.994 -119.994v-1079.96h-65.9971v600.576zM65.9971 960.585h197.992v419.384q0 59.9971 -65.9971 59.9971h-65.998q-65.9971 0 -65.9971 -59.9971v-419.384zM40 100
v100h250v-100h-250z" />
    <glyph glyph-name="guillemotleft" unicode="&#xab;" horiz-adv-x="940" 
d="M-3 500l348 957l94 -34l-336 -923l336 -923l-94 -34zM386 500l348 957l94 -34l-336 -923l336 -923l-94 -34z" />
    <glyph glyph-name="logicalnot" unicode="&#xac;" horiz-adv-x="1014" 
d="M87 767h840v-491l-1 -1h-98v392h-741v100z" />
    <glyph glyph-name="registered" unicode="&#xae;" horiz-adv-x="1674" 
d="M751 1099v-374l3 -8q23 -56 56 -81q29 -22 56 -22h6q31 4 61.5 38.5t46.5 97.5q13 50 13 103q0 13 -1 27q-4 67 -28 124.5t-56.5 76t-63.5 18.5h-93zM984 576l82 -116q100 -141 150 -141h34v-50h-346v50h45q30 0 30 22q0 29 -69 114l-75 102q-42 0 -84 42v-159
q0 -121 36 -121h53v-50h-316v50h43q37 0 37 121v538q0 121 -37 121h-43v70h356q64 -1 125 -42q60 -41 92.5 -114t32.5 -152q0 -78 -32 -150.5t-114 -134.5zM840 1456q145 0 280 -56.5t239 -160.5q102 -101 158.5 -238t56.5 -283q0 -147 -56.5 -282t-162.5 -240
q-105 -105 -239 -159.5t-283 -54.5q-146 0 -278 55.5t-238 160.5q-106 104 -161.5 237.5t-55.5 282.5q0 148 55.5 283t159.5 238q102 104 238.5 160.5t286.5 56.5zM357 1197q-95 -96 -146 -219.5t-51 -259.5q0 -137 51 -259t148 -219q98 -96 219 -147t256 -51
q137 0 259.5 50.5t219.5 145.5q97 98 149 221.5t52 258.5q0 134 -52 259.5t-145 219.5q-96 96 -220 147.5t-258 51.5q-137 0 -262 -51.5t-220 -147.5z" />
    <glyph glyph-name="macron" unicode="&#xaf;" 
d="M0 1850h500v-100h-500v100z" />
    <glyph glyph-name="degree" unicode="&#xb0;" horiz-adv-x="674" 
d="M339 1372q-86 0 -147.5 -61t-61.5 -148t61 -147t148 -60t147 60t60 147t-60.5 148t-146.5 61zM339 1442q115 0 196 -81.5t81 -196.5q0 -114 -82 -196t-197 -82q-117 0 -197 81t-80 197t81.5 197t197.5 81z" />
    <glyph glyph-name="plusminus" unicode="&#xb1;" 
d="M200 501h-200v100h200v200h100v-200h200v-100h-200v-200h-100v200zM0 -46h500v-100h-500v100z" />
    <glyph glyph-name="uni00B2" unicode="&#xb2;" 
d="M99 443l221 271q71 86 80 220v366q0 100 -100 100h-100q-100 0 -100 -100v-301h-100v301q0 200 200 200h100q200 0 200 -200v-379q-6 -148 -112 -278l-196 -238q-92 -115 -92 -233v-572h300v500h100v-600h-500v679q5 148 99 264z" />
    <glyph glyph-name="uni00B3" unicode="&#xb3;" 
d="M100 600h200q100 0 100 100v600q0 100 -100 100h-100q-100 0 -100 -100v-300h-100v300q0 200 200 200h100q200 0 200 -200v-600q0 -100 -50 -150q50 -50 50 -150v-700q0 -200 -200 -200h-100q-200 0 -200 200v400h100v-400q0 -100 100 -100h100q100 0 100 100v700
q0 100 -100 100h-200v100z" />
    <glyph glyph-name="acute" unicode="&#xb4;" horiz-adv-x="401" 
d="M0 1578l200 200h100v-100z" />
    <glyph glyph-name="paragraph" unicode="&#xb6;" horiz-adv-x="997" 
d="M500 1400v-1900h-100v1001h-201q-199 1 -199 200v599q0 200 200 200h700v-100h-198v-1900h-100v1900h-102z" />
    <glyph glyph-name="periodcentered" unicode="&#xb7;" 
d="M0 708.012v84.998h84.998v-84.998h-84.998z" />
    <glyph glyph-name="periodcentered" unicode="&#x2219;" 
d="M0 708.012v84.998h84.998v-84.998h-84.998z" />
    <glyph glyph-name="cedilla" unicode="&#xb8;" horiz-adv-x="1024" 
d="M360 -290q85 -52 152 -52q66 0 94.5 21.5t28.5 66.5t-49 64q-40 16 -102 16q-16 0 -34 -2l48 176h63l-37 -104q32 4 62 5q86 0 134 -40.5t48 -113.5q0 -76 -58.5 -120.5t-160.5 -44.5q-109 0 -189 32v96z" />
    <glyph glyph-name="uni00B9" unicode="&#xb9;" 
d="M0 -500v100h202v1800h-202v100h302v-1900h198v-100h-500z" />
    <glyph glyph-name="ordmasculine" unicode="&#xba;" horiz-adv-x="431" 
d="M263.989 1379.97q0 59.9971 -65.9971 59.9971h-65.998q-65.9971 0 -65.9971 -59.9971v-959.961q0 -59.998 65.9971 -59.998h65.998q65.9971 0 65.9971 59.998v959.961zM197.992 1499.96q131.994 0 131.994 -119.994v-959.961q0 -119.996 -131.994 -119.996h-65.998
q-131.994 0 -131.994 119.996v959.961q0 119.994 131.994 119.994h65.998zM40 100v100h250v-100h-250z" />
    <glyph glyph-name="guillemotright" unicode="&#xbb;" horiz-adv-x="940" 
d="M91 -457l-94 34l336 923l-336 923l94 34l348 -957zM480 -457l-94 34l336 923l-336 923l94 34l348 -957z" />
    <glyph glyph-name="onehalf" unicode="&#xbd;" horiz-adv-x="1285" 
d="M672 550v50h101v900h-101v50h151v-950h99v-50h-250zM672 -29l940 1461h84l-938 -1461h-86zM727.5 221.5l110.5 135.5q35.5 43 40 110v183q0 50 -50 50h-50q-50 0 -50 -50v-150.5h-50v150.5q0 100 100 100h50q100 0 100 -100v-189.5q-3 -74 -56 -139l-98 -119
q-46 -57.5 -46 -116.5v-286h150v250h50v-300h-250v339.5q2.5 74 49.5 132z" />
    <glyph glyph-name="questiondown" unicode="&#xbf;" 
d="M198 1400v100h100v-100h-100zM213 330l-2 -2l-12 -16l-4 -5l-15 -19q-71 -88 -80 -222v-366q0 -100 100 -100h100q100 0 100 100v301h100v-301q0 -200 -200 -200h-100q-200 0 -200 200v379q6 142 103 267l3 4q92 115 92 233v717h100v-724q-5 -136 -85 -246z" />
    <glyph glyph-name="Agrave" unicode="&#xc0;" 
d="M400 501h-300v-1001h-100v1800q0 200 200 200h100q200 0 200 -200v-1800h-100v1001zM100 601h300v699q0 100 -100 100h-100q-100 0 -100 -100v-699zM50 1678v100h100l200 -200z" />
    <glyph glyph-name="Aacute" unicode="&#xc1;" 
d="M400 501h-300v-1001h-100v1800q0 200 200 200h100q200 0 200 -200v-1800h-100v1001zM100 601h300v699q0 100 -100 100h-100q-100 0 -100 -100v-699zM150 1578l200 200h100v-100z" />
    <glyph glyph-name="Acircumflex" unicode="&#xc2;" 
d="M400 501h-300v-1001h-100v1800q0 200 200 200h100q200 0 200 -200v-1800h-100v1001zM100 601h300v699q0 100 -100 100h-100q-100 0 -100 -100v-699zM500 1605h-100v43q-9 134 -80 220l-70 86l-70 -86q-71 -86 -80 -220v-43h-100v56q6 148 112 278l138 168l138 -168
q106 -130 112 -278v-56z" />
    <glyph glyph-name="Atilde" unicode="&#xc3;" horiz-adv-x="603" 
d="M400 501h-300v-1001h-100v1800q0 200 200 200h100q200 0 200 -200v-1800h-100v1001zM100 601h300v699q0 100 -100 100h-100q-100 0 -100 -100v-699zM300 2887h-100q-100 0 -100 -100h-100q0 200 200 200h100q100 0 100 100h100q0 -200 -200 -200z" />
    <glyph glyph-name="Adieresis" unicode="&#xc4;" 
d="M400 501h-300v-1001h-100v1800q0 200 200 200h100q200 0 200 -200v-1800h-100v1001zM100 601h300v699q0 100 -100 100h-100q-100 0 -100 -100v-699zM50 1677v100h100v-100h-100zM350 1677v100h100v-100h-100z" />
    <glyph glyph-name="Aring" unicode="&#xc5;" 
d="M149 1757q0 -42 29 -71t71 -29t71 29t29 71q0 40 -29.5 69.5t-70.5 29.5t-70.5 -29.5t-29.5 -69.5zM73 1757q0 75 51 126t125 51q76 0 127.5 -51.5t51.5 -125.5q0 -75 -51.5 -126.5t-127.5 -51.5q-74 0 -125 51.5t-51 126.5zM400 501h-300v-1001h-100v1800q0 200 200 200
h100q200 0 200 -200v-1800h-100v1001zM100 601h300v699q0 100 -100 100h-100q-100 0 -100 -100v-699z" />
    <glyph glyph-name="AE" unicode="&#xc6;" horiz-adv-x="851" 
d="M400 501h-300v-1001h-100v1800q0 200 200 200h100q200 0 200 -200v-1800h-100v1001zM100 601h300v699q0 100 -100 100h-100q-100 0 -100 -100v-699zM500 -400h400v-100h-500v2000h500v-100h-400v-799h300v-100h-300v-901z" />
    <glyph glyph-name="Ccedilla" unicode="&#xc7;" 
d="M300 -400q100 0 100 100v400h100v-400q0 -200 -200 -200h-100q-200 0 -200 200v1600q0 200 200 200h100q200 0 200 -200v-301h-100v301q0 100 -100 100h-100q-100 0 -100 -100v-1600q0 -100 100 -100h100zM46 -790q85 -52 152 -52q66 0 94.5 21.5t28.5 66.5t-49 64
q-40 16 -102 16q-16 0 -34 -2l48 176h63l-37 -104q32 4 62 5q86 0 134 -40.5t48 -113.5q0 -76 -58.5 -120.5t-160.5 -44.5q-109 0 -189 32v96z" />
    <glyph glyph-name="Egrave" unicode="&#xc8;" 
d="M100 -400h400v-100h-500v2000h500v-100h-400v-799h300v-100h-300v-901zM50 1678v100h100l200 -200z" />
    <glyph glyph-name="Eacute" unicode="&#xc9;" 
d="M100 -400h400v-100h-500v2000h500v-100h-400v-799h300v-100h-300v-901zM150 1578l200 200h100v-100z" />
    <glyph glyph-name="Ecircumflex" unicode="&#xca;" 
d="M100 -400h400v-100h-500v2000h500v-100h-400v-799h300v-100h-300v-901zM500 1605h-100v43q-9 134 -80 220l-70 86l-70 -86q-71 -86 -80 -220v-43h-100v56q6 148 112 278l138 168l138 -168q106 -130 112 -278v-56z" />
    <glyph glyph-name="Edieresis" unicode="&#xcb;" 
d="M100 -400h400v-100h-500v2000h500v-100h-400v-799h300v-100h-300v-901zM50 1677v100h100v-100h-100zM350 1677v100h100v-100h-100z" />
    <glyph glyph-name="Igrave" unicode="&#xcc;" 
d="M0 -500v100h202v1800h-202v100h500v-100h-198v-1800h198v-100h-500zM50 1678v100h100l200 -200z" />
    <glyph glyph-name="Iacute" unicode="&#xcd;" 
d="M0 -500v100h202v1800h-202v100h500v-100h-198v-1800h198v-100h-500zM150 1578l200 200h100v-100z" />
    <glyph glyph-name="Icircumflex" unicode="&#xce;" 
d="M0 -500v100h202v1800h-202v100h500v-100h-198v-1800h198v-100h-500zM500 1605h-100v43q-9 134 -80 220l-70 86l-70 -86q-71 -86 -80 -220v-43h-100v56q6 148 112 278l138 168l138 -168q106 -130 112 -278v-56z" />
    <glyph glyph-name="Idieresis" unicode="&#xcf;" 
d="M0 -500v100h202v1800h-202v100h500v-100h-198v-1800h198v-100h-500zM50 1677v100h100v-100h-100zM350 1677v100h100v-100h-100z" />
    <glyph glyph-name="Eth" unicode="&#xd0;" 
d="M-200 400v100h500v-100h-500zM400 1300q0 100 -100 100h-200v-1800h200q100 0 100 100v1600zM300 1500q200 0 200 -200v-1600q0 -200 -200 -200h-300v2000h300z" />
    <glyph glyph-name="Ntilde" unicode="&#xd1;" 
d="M100 1224v-1724h-100v2000h100q9 -134 80 -220l220 -270v490h100v-2000h-100v1238q0 118 -92 233l-196 238q-6 8 -12 15zM300 1687h-100q-100 0 -100 -100h-100q0 200 200 200h100q100 0 100 100h100q0 -200 -200 -200z" />
    <glyph glyph-name="Ograve" unicode="&#xd2;" 
d="M400 1300q0 100 -100 100h-100q-100 0 -100 -100v-1600q0 -100 100 -100h100q100 0 100 100v1600zM300 1500q200 0 200 -200v-1600q0 -200 -200 -200h-100q-200 0 -200 200v1600q0 200 200 200h100zM50 1678v100h100l200 -200z" />
    <glyph glyph-name="Oacute" unicode="&#xd3;" 
d="M400 1300q0 100 -100 100h-100q-100 0 -100 -100v-1600q0 -100 100 -100h100q100 0 100 100v1600zM300 1500q200 0 200 -200v-1600q0 -200 -200 -200h-100q-200 0 -200 200v1600q0 200 200 200h100zM150 1578l200 200h100v-100z" />
    <glyph glyph-name="Ocircumflex" unicode="&#xd4;" 
d="M400 1300q0 100 -100 100h-100q-100 0 -100 -100v-1600q0 -100 100 -100h100q100 0 100 100v1600zM300 1500q200 0 200 -200v-1600q0 -200 -200 -200h-100q-200 0 -200 200v1600q0 200 200 200h100zM500 1605h-100v43q-9 134 -80 220l-70 86l-70 -86q-71 -86 -80 -220
v-43h-100v56q6 148 112 278l138 168l138 -168q106 -130 112 -278v-56z" />
    <glyph glyph-name="Otilde" unicode="&#xd5;" 
d="M400 1300q0 100 -100 100h-100q-100 0 -100 -100v-1600q0 -100 100 -100h100q100 0 100 100v1600zM300 1500q200 0 200 -200v-1600q0 -200 -200 -200h-100q-200 0 -200 200v1600q0 200 200 200h100zM300 1687h-100q-100 0 -100 -100h-100q0 200 200 200h100
q100 0 100 100h100q0 -200 -200 -200z" />
    <glyph glyph-name="Odieresis" unicode="&#xd6;" 
d="M400 1300q0 100 -100 100h-100q-100 0 -100 -100v-1600q0 -100 100 -100h100q100 0 100 100v1600zM300 1500q200 0 200 -200v-1600q0 -200 -200 -200h-100q-200 0 -200 200v1600q0 200 200 200h100zM50 1677v100h100v-100h-100zM350 1677v100h100v-100h-100z" />
    <glyph glyph-name="multiply" unicode="&#xd7;" 
d="M287.165 495.672l-141.418 -141.419l-70.71 70.71l141.419 141.418l-141.419 141.419l70.71 70.709l141.418 -141.419l141.419 141.419l70.709 -70.709l-141.419 -141.419l141.419 -141.418l-70.709 -70.71z" />
    <glyph glyph-name="Oslash" unicode="&#xd8;" 
d="M400 1300q0 100 -100 100h-100q-100 0 -100 -100v-1600q0 -100 100 -100h100q100 0 100 100v1600zM300 1500q200 0 200 -200v-1600q0 -200 -200 -200h-100q-200 0 -200 200v1600q0 200 200 200h100zM-45 -457l-94 34l684 1880l94 -34z" />
    <glyph glyph-name="Ugrave" unicode="&#xd9;" 
d="M200 -500q-200 0 -200 200v1800h100v-1800q0 -100 100 -100h100q100 0 100 100v1800h100v-1800q0 -200 -200 -200h-100zM50 1678v100h100l200 -200z" />
    <glyph glyph-name="Uacute" unicode="&#xda;" 
d="M200 -500q-200 0 -200 200v1800h100v-1800q0 -100 100 -100h100q100 0 100 100v1800h100v-1800q0 -200 -200 -200h-100zM150 1578l200 200h100v-100z" />
    <glyph glyph-name="Ucircumflex" unicode="&#xdb;" 
d="M200 -500q-200 0 -200 200v1800h100v-1800q0 -100 100 -100h100q100 0 100 100v1800h100v-1800q0 -200 -200 -200h-100zM500 1605h-100v43q-9 134 -80 220l-70 86l-70 -86q-71 -86 -80 -220v-43h-100v56q6 148 112 278l138 168l138 -168q106 -130 112 -278v-56z" />
    <glyph glyph-name="Udieresis" unicode="&#xdc;" 
d="M200 -500q-200 0 -200 200v1800h100v-1800q0 -100 100 -100h100q100 0 100 100v1800h100v-1800q0 -200 -200 -200h-100zM50 1677v100h100v-100h-100zM350 1677v100h100v-100h-100z" />
    <glyph glyph-name="Yacute" unicode="&#xdd;" 
d="M202 533l-15 18l-75 92q-106 130 -112 278v579h100v-566q9 -134 80 -220l70 -86l70 86q71 86 80 220v566h100v-579q-6 -148 -112 -278l-75 -92l-11 -13v-1038h-100v1033zM150 1578l200 200h100v-100z" />
    <glyph glyph-name="agrave" unicode="&#xe0;" 
d="M400 501h-300v-1001h-100v1800q0 200 200 200h100q200 0 200 -200v-1800h-100v1001zM100 601h300v699q0 100 -100 100h-100q-100 0 -100 -100v-699zM50 1678v100h100l200 -200z" />
    <glyph glyph-name="aacute" unicode="&#xe1;" 
d="M400 501h-300v-1001h-100v1800q0 200 200 200h100q200 0 200 -200v-1800h-100v1001zM100 601h300v699q0 100 -100 100h-100q-100 0 -100 -100v-699zM150 1578l200 200h100v-100z" />
    <glyph glyph-name="acircumflex" unicode="&#xe2;" 
d="M400 501h-300v-1001h-100v1800q0 200 200 200h100q200 0 200 -200v-1800h-100v1001zM100 601h300v699q0 100 -100 100h-100q-100 0 -100 -100v-699zM500 1605h-100v43q-9 134 -80 220l-70 86l-70 -86q-71 -86 -80 -220v-43h-100v56q6 148 112 278l138 168l138 -168
q106 -130 112 -278v-56z" />
    <glyph glyph-name="atilde" unicode="&#xe3;" 
d="M400 501h-300v-1001h-100v1800q0 200 200 200h100q200 0 200 -200v-1800h-100v1001zM100 601h300v699q0 100 -100 100h-100q-100 0 -100 -100v-699zM300 1687h-100q-100 0 -100 -100h-100q0 200 200 200h100q100 0 100 100h100q0 -200 -200 -200z" />
    <glyph glyph-name="adieresis" unicode="&#xe4;" 
d="M400 501h-300v-1001h-100v1800q0 200 200 200h100q200 0 200 -200v-1800h-100v1001zM100 601h300v699q0 100 -100 100h-100q-100 0 -100 -100v-699zM50 1677v100h100v-100h-100zM350 1677v100h100v-100h-100z" />
    <glyph glyph-name="aring" unicode="&#xe5;" 
d="M149 1757q0 -42 29 -71t71 -29t71 29t29 71q0 40 -29.5 69.5t-70.5 29.5t-70.5 -29.5t-29.5 -69.5zM73 1757q0 75 51 126t125 51q76 0 127.5 -51.5t51.5 -125.5q0 -75 -51.5 -126.5t-127.5 -51.5q-74 0 -125 51.5t-51 126.5zM400 501h-300v-1001h-100v1800q0 200 200 200
h100q200 0 200 -200v-1800h-100v1001zM100 601h300v699q0 100 -100 100h-100q-100 0 -100 -100v-699z" />
    <glyph glyph-name="ae" unicode="&#xe6;" horiz-adv-x="926" 
d="M400 501h-300v-1001h-100v1800q0 200 200 200h100q200 0 200 -200v-1800h-100v1001zM100 601h300v699q0 100 -100 100h-100q-100 0 -100 -100v-699zM500 -400h400v-100h-500v2000h500v-100h-400v-799h300v-100h-300v-901z" />
    <glyph glyph-name="ccedilla" unicode="&#xe7;" 
d="M300 -400q100 0 100 100v400h100v-400q0 -200 -200 -200h-100q-200 0 -200 200v1600q0 200 200 200h100q200 0 200 -200v-301h-100v301q0 100 -100 100h-100q-100 0 -100 -100v-1600q0 -100 100 -100h100zM46 -790q85 -52 152 -52q66 0 94.5 21.5t28.5 66.5t-49 64
q-40 16 -102 16q-16 0 -34 -2l48 176h63l-37 -104q32 4 62 5q86 0 134 -40.5t48 -113.5q0 -76 -58.5 -120.5t-160.5 -44.5q-109 0 -189 32v96z" />
    <glyph glyph-name="egrave" unicode="&#xe8;" 
d="M100 -400h400v-100h-500v2000h500v-100h-400v-799h300v-100h-300v-901zM50 1678v100h100l200 -200z" />
    <glyph glyph-name="eacute" unicode="&#xe9;" 
d="M100 -400h400v-100h-500v2000h500v-100h-400v-799h300v-100h-300v-901zM150 1578l200 200h100v-100z" />
    <glyph glyph-name="ecircumflex" unicode="&#xea;" 
d="M100 -400h400v-100h-500v2000h500v-100h-400v-799h300v-100h-300v-901zM500 1605h-100v43q-9 134 -80 220l-70 86l-70 -86q-71 -86 -80 -220v-43h-100v56q6 148 112 278l138 168l138 -168q106 -130 112 -278v-56z" />
    <glyph glyph-name="edieresis" unicode="&#xeb;" 
d="M100 -400h400v-100h-500v2000h500v-100h-400v-799h300v-100h-300v-901zM50 1677v100h100v-100h-100zM350 1677v100h100v-100h-100z" />
    <glyph glyph-name="igrave" unicode="&#xec;" 
d="M0 -500v100h202v1800h-202v100h500v-100h-198v-1800h198v-100h-500zM50 1678v100h100l200 -200z" />
    <glyph glyph-name="iacute" unicode="&#xed;" 
d="M0 -500v100h202v1800h-202v100h500v-100h-198v-1800h198v-100h-500zM150 1578l200 200h100v-100z" />
    <glyph glyph-name="icircumflex" unicode="&#xee;" 
d="M0 -500v100h202v1800h-202v100h500v-100h-198v-1800h198v-100h-500zM500 1605h-100v43q-9 134 -80 220l-70 86l-70 -86q-71 -86 -80 -220v-43h-100v56q6 148 112 278l138 168l138 -168q106 -130 112 -278v-56z" />
    <glyph glyph-name="idieresis" unicode="&#xef;" 
d="M0 -500v100h202v1800h-202v100h500v-100h-198v-1800h198v-100h-500zM50 1677v100h100v-100h-100zM350 1677v100h100v-100h-100z" />
    <glyph glyph-name="ntilde" unicode="&#xf1;" 
d="M100 1224v-1724h-100v2000h100q9 -134 80 -220l220 -270v490h100v-2000h-100v1238q0 118 -92 233l-196 238q-6 8 -12 15zM300 1687h-100q-100 0 -100 -100h-100q0 200 200 200h100q100 0 100 100h100q0 -200 -200 -200z" />
    <glyph glyph-name="ograve" unicode="&#xf2;" 
d="M400 1300q0 100 -100 100h-100q-100 0 -100 -100v-1600q0 -100 100 -100h100q100 0 100 100v1600zM300 1500q200 0 200 -200v-1600q0 -200 -200 -200h-100q-200 0 -200 200v1600q0 200 200 200h100zM50 1678v100h100l200 -200z" />
    <glyph glyph-name="oacute" unicode="&#xf3;" 
d="M400 1300q0 100 -100 100h-100q-100 0 -100 -100v-1600q0 -100 100 -100h100q100 0 100 100v1600zM300 1500q200 0 200 -200v-1600q0 -200 -200 -200h-100q-200 0 -200 200v1600q0 200 200 200h100zM150 1578l200 200h100v-100z" />
    <glyph glyph-name="ocircumflex" unicode="&#xf4;" 
d="M400 1300q0 100 -100 100h-100q-100 0 -100 -100v-1600q0 -100 100 -100h100q100 0 100 100v1600zM300 1500q200 0 200 -200v-1600q0 -200 -200 -200h-100q-200 0 -200 200v1600q0 200 200 200h100zM500 1605h-100v43q-9 134 -80 220l-70 86l-70 -86q-71 -86 -80 -220
v-43h-100v56q6 148 112 278l138 168l138 -168q106 -130 112 -278v-56z" />
    <glyph glyph-name="otilde" unicode="&#xf5;" 
d="M400 1300q0 100 -100 100h-100q-100 0 -100 -100v-1600q0 -100 100 -100h100q100 0 100 100v1600zM300 1500q200 0 200 -200v-1600q0 -200 -200 -200h-100q-200 0 -200 200v1600q0 200 200 200h100zM300 1687h-100q-100 0 -100 -100h-100q0 200 200 200h100
q100 0 100 100h100q0 -200 -200 -200z" />
    <glyph glyph-name="odieresis" unicode="&#xf6;" 
d="M400 1300q0 100 -100 100h-100q-100 0 -100 -100v-1600q0 -100 100 -100h100q100 0 100 100v1600zM300 1500q200 0 200 -200v-1600q0 -200 -200 -200h-100q-200 0 -200 200v1600q0 200 200 200h100zM50 1677v100h100v-100h-100zM350 1677v100h100v-100h-100z" />
    <glyph glyph-name="divide" unicode="&#xf7;" 
d="M0 601h500v-100h-500v100zM200 201v100h100v-100h-100zM200 801v100h100v-100h-100z" />
    <glyph glyph-name="oslash" unicode="&#xf8;" 
d="M400 1300q0 100 -100 100h-100q-100 0 -100 -100v-1600q0 -100 100 -100h100q100 0 100 100v1600zM300 1500q200 0 200 -200v-1600q0 -200 -200 -200h-100q-200 0 -200 200v1600q0 200 200 200h100zM-45 -457l-94 34l684 1880l94 -34z" />
    <glyph glyph-name="ugrave" unicode="&#xf9;" 
d="M200 -500q-200 0 -200 200v1800h100v-1800q0 -100 100 -100h100q100 0 100 100v1800h100v-1800q0 -200 -200 -200h-100zM50 1678v100h100l200 -200z" />
    <glyph glyph-name="uacute" unicode="&#xfa;" 
d="M200 -500q-200 0 -200 200v1800h100v-1800q0 -100 100 -100h100q100 0 100 100v1800h100v-1800q0 -200 -200 -200h-100zM150 1578l200 200h100v-100z" />
    <glyph glyph-name="ucircumflex" unicode="&#xfb;" 
d="M200 -500q-200 0 -200 200v1800h100v-1800q0 -100 100 -100h100q100 0 100 100v1800h100v-1800q0 -200 -200 -200h-100zM500 1605h-100v43q-9 134 -80 220l-70 86l-70 -86q-71 -86 -80 -220v-43h-100v56q6 148 112 278l138 168l138 -168q106 -130 112 -278v-56z" />
    <glyph glyph-name="udieresis" unicode="&#xfc;" 
d="M200 -500q-200 0 -200 200v1800h100v-1800q0 -100 100 -100h100q100 0 100 100v1800h100v-1800q0 -200 -200 -200h-100zM50 1677v100h100v-100h-100zM350 1677v100h100v-100h-100z" />
    <glyph glyph-name="yacute" unicode="&#xfd;" 
d="M202 533l-15 18l-75 92q-106 130 -112 278v579h100v-566q9 -134 80 -220l70 -86l70 86q71 86 80 220v566h100v-579q-6 -148 -112 -278l-75 -92l-11 -13v-1038h-100v1033zM150 1578l200 200h100v-100z" />
    <glyph glyph-name="ydieresis" unicode="&#xff;" 
d="M202 533l-15 18l-75 92q-106 130 -112 278v579h100v-566q9 -134 80 -220l70 -86l70 86q71 86 80 220v566h100v-579q-6 -148 -112 -278l-75 -92l-11 -13v-1038h-100v1033zM50 1677v100h100v-100h-100zM350 1677v100h100v-100h-100z" />
    <glyph glyph-name="dotlessi" unicode="&#x131;" 
d="M0 -500v100h202v1800h-202v100h500v-100h-198v-1800h198v-100h-500z" />
    <glyph glyph-name="circumflex" unicode="&#x2c6;" 
d="M500 1605h-100v43q-9 134 -80 220l-70 86l-70 -86q-71 -86 -80 -220v-43h-100v56q6 148 112 278l138 168l138 -168q106 -130 112 -278v-56z" />
    <glyph glyph-name="caron" unicode="&#x2c7;" 
d="M500 1444q-6 -148 -112 -278l-138 -168l-138 168q-106 130 -112 278v56h100v-43q9 -134 80 -220l70 -86l70 86q71 86 80 220v43h100v-56z" />
    <glyph glyph-name="uni02C9" unicode="&#x2c9;" 
d="M0 1850h500v-100h-500v100z" />
    <glyph glyph-name="breve" unicode="&#x2d8;" horiz-adv-x="1024" 
d="M219 1349h51q17 -73 75 -107t167 -34t166 33.5t74 107.5h51q-20 -133 -94 -201.5t-197 -68.5q-122 0 -197 69t-96 201z" />
    <glyph glyph-name="dotaccent" unicode="&#x2d9;" 
d="M0 1923.01v84.998h84.998v-84.998h-84.998z" />
    <glyph glyph-name="ring" unicode="&#x2da;" horiz-adv-x="1024" 
d="M411 1257q0 -42 29 -71t71 -29t71 29t29 71q0 40 -29.5 69.5t-70.5 29.5t-70.5 -29.5t-29.5 -69.5zM335 1257q0 75 51 126t125 51q76 0 127.5 -51.5t51.5 -125.5q0 -75 -51.5 -126.5t-127.5 -51.5q-74 0 -125 51.5t-51 126.5z" />
    <glyph glyph-name="ogonek" unicode="&#x2db;" horiz-adv-x="1024" 
d="M640 0q-71 -62 -110.5 -119.5t-39.5 -112.5q0 -47 27 -75t73 -28q40 0 69.5 15.5t49.5 48.5l28 -16q-36 -63 -90.5 -97t-119.5 -34q-70 0 -114 35.5t-44 90.5q0 76 60.5 156.5t161.5 135.5h49z" />
    <glyph glyph-name="tilde" unicode="&#x2dc;" 
d="M300 1687h-100q-100 0 -100 -100h-100q0 200 200 200h100q100 0 100 100h100q0 -200 -200 -200z" />
    <glyph glyph-name="hungarumlaut" unicode="&#x2dd;" horiz-adv-x="1024" 
d="M217 1578l200 200h100v-100zM517 1578l200 200h100v-100z" />
    <glyph glyph-name="endash" unicode="&#x2013;" horiz-adv-x="1108" 
d="M56 419v120h996v-120h-996z" />
    <glyph glyph-name="emdash" unicode="&#x2014;" horiz-adv-x="2048" 
d="M0 419v120h2048v-120h-2048z" />
    <glyph glyph-name="quoteleft" unicode="&#x2018;" horiz-adv-x="200" 
d="M100 1478v-100h-100v200z" />
    <glyph glyph-name="quoteright" unicode="&#x2019;" horiz-adv-x="200" 
d="M0 1478v100h100v-200z" />
    <glyph glyph-name="quotesinglbase" unicode="&#x201a;" horiz-adv-x="200" 
d="M0 0v100h100v-200z" />
    <glyph glyph-name="quotedblleft" unicode="&#x201c;" horiz-adv-x="400" 
d="M100 1478v-100h-100v200zM300 1478v-100h-100v200z" />
    <glyph glyph-name="quotedblright" unicode="&#x201d;" horiz-adv-x="400" 
d="M0 1478v100h100v-200zM200 1478v100h100v-200z" />
    <glyph glyph-name="quotedblbase" unicode="&#x201e;" horiz-adv-x="400" 
d="M0 0v100h100v-200zM200 0v100h100v-200z" />
    <glyph glyph-name="bullet" unicode="&#x2022;" horiz-adv-x="1001" 
d="M202 402v596h596v-596h-596z" />
    <glyph glyph-name="ellipsis" unicode="&#x2026;" horiz-adv-x="597" 
d="M0 -500v100h100v-100h-100zM200 -500v100h100v-100h-100zM400 -500v100h100v-100h-100z" />
    <glyph glyph-name="guilsinglleft" unicode="&#x2039;" horiz-adv-x="551" 
d="M-3 500l348 957l94 -34l-336 -923l336 -923l-94 -34z" />
    <glyph glyph-name="guilsinglright" unicode="&#x203a;" horiz-adv-x="551" 
d="M91 -457l-94 34l336 923l-336 923l94 34l348 -957z" />
    <glyph glyph-name="fraction" unicode="&#x2044;" horiz-adv-x="342" 
d="M-342 -29l940 1461h84l-938 -1461h-86z" />
    <glyph glyph-name="fraction" unicode="&#x2215;" horiz-adv-x="342" 
d="M-342 -29l940 1461h84l-938 -1461h-86z" />
    <glyph glyph-name="franc" unicode="&#x20a3;" 
d="M100 501v-1001h-100v2000h500v-100h-400v-799h300v-100h-300zM-200 200v100h500v-100h-500z" />
    <glyph glyph-name="lira" unicode="&#x20a4;" horiz-adv-x="1014" 
d="M176 501v-901h300v500h100v-600h-500v1800q0 200 200 200h100q200 0 200 -200v-301h-100v301q0 100 -100 100h-100q-100 0 -100 -100v-699h400v-100h-400z" />
    <glyph glyph-name="Euro" unicode="&#x20ac;" 
d="M0 1300q0 200 200 200h100q200 0 200 -200v-301h-100v301q0 100 -100 100h-100q-100 0 -100 -100v-599h400v-100h-400v-100h400v-100h-400v-701q0 -100 100 -100h100q100 0 100 100v400h100v-400q0 -200 -200 -200h-100q-200 0 -200 200v1600z" />
    <glyph glyph-name="trademark" unicode="&#x2122;" horiz-adv-x="551" 
d="M135.903 1460.03v-760.046h-45.001v760.046h-90.9023v40.0029h225.006v-40.0029h-89.1025zM270.001 1389.63v-689.642h-45.001v800.049h45.001q4.05078 -53.6035 36.001 -88.0059l31.501 -34.4023l31.501 34.4023q31.9512 34.4023 36.001 88.0059h45.001v-800.049
h-45.001v689.642q-2.7002 -2.7998 -5.40039 -6l-62.1016 -67.2041l-62.1016 67.2041q-2.7002 3.2002 -5.40039 6z" />
    <glyph glyph-name="minus" unicode="&#x2212;" 
d="M0 601h500v-100h-500v100z" />
    <glyph glyph-name="radical" unicode="&#x221a;" horiz-adv-x="1014" 
d="M181 0l-164 359l74 35l85 -185l728 1470h150v-60h-72z" />
    <glyph glyph-name="infinity" unicode="&#x221e;" horiz-adv-x="1295" 
d="M981 250q-148 5 -264 99l-108 88l-92 -75q-130 -106 -278 -112h-39q-200 0 -200 200v100q0 200 200 200h39q148 -6 278 -112l92 -75l108 88q116 94 264 99h19q200 0 200 -200v-100q0 -200 -200 -200h-19zM226 350q134 9 220 80l86 70l-86 70q-86 71 -220 80h-26
q-100 0 -100 -100v-100q0 -100 100 -100h26zM1000 350q100 0 100 100v100q0 100 -100 100h-12q-118 0 -233 -92l-70 -58l70 -58q115 -92 233 -92h12z" />
    <glyph glyph-name="integral" unicode="&#x222b;" horiz-adv-x="665" 
d="M-12 -281q-60 0 -60 29v159h36q1 -43 34.5 -64.5t63.5 -21.5h1q82 0 115 162q32 162 40 316l70 734l8 62q27 238 135 429.5t234 191.5q60 0 60 -29v-159h-36q-1 43 -35 64.5t-63 21.5q-71 0 -116 -155.5t-49 -363.5l-73 -767q-20 -231 -130.5 -420t-234.5 -189z" />
    <glyph glyph-name="approxequal" unicode="&#x2248;" 
d="M300 850h-100q-100 0 -100 -100h-100q0 200 200 200h100q100 0 100 100h100q0 -200 -200 -200zM300 550h-100q-100 0 -100 -100h-100q0 200 200 200h100q100 0 100 100h100q0 -200 -200 -200z" />
    <glyph glyph-name="lessequal" unicode="&#x2264;" horiz-adv-x="551" 
d="M-3 500l348 957l94 -34l-336 -923l336 -923l-94 -34zM0 -599h500v-100h-500v100z" />
    <glyph glyph-name="greaterequal" unicode="&#x2265;" horiz-adv-x="551" 
d="M91 -457l-94 34l336 923l-336 923l94 34l348 -957zM0 -599h500v-100h-500v100z" />
    <glyph glyph-name="uniF001" unicode="&#xf001;" horiz-adv-x="1073" 
 />
    <glyph glyph-name="uniF001" unicode="&#xfb01;" horiz-adv-x="1073" 
 />
    <glyph glyph-name="uniF002" unicode="&#xf002;" horiz-adv-x="1081" 
 />
    <glyph glyph-name="uniF002" unicode="&#xfb02;" horiz-adv-x="1081" 
 />
  </font>
</defs>
</svg>
