<?xml version="1.0" standalone="no"?>
<!DOCTYPE svg PUBLIC "-//W3C//DTD SVG 1.1//EN" "http://www.w3.org/Graphics/SVG/1.1/DTD/svg11.dtd" >
<svg xmlns="http://www.w3.org/2000/svg" xmlns:xlink="http://www.w3.org/1999/xlink" version="1.1">
<metadata>
Created by FontForge 20170731 at Sat Jun 14 09:57:52 2014
 By Aleksey,,,
Des
</metadata>
<defs>
<font id="ChickenAndWaffles" horiz-adv-x="390" >
  <font-face 
    font-family="ChickenAndWaffles"
    font-weight="500"
    font-stretch="normal"
    units-per-em="1000"
    panose-1="2 0 6 3 0 0 0 0 0 0"
    ascent="1000"
    descent="0"
    x-height="565.5"
    cap-height="665"
    bbox="-38.5 -87.1053 927.5 938.636"
    underline-thickness="50"
    underline-position="-200"
    unicode-range="U+0020-3000"
  />
<missing-glyph horiz-adv-x="364" 
d="M66 33h199v600h-199v-600zM33 0v666h265v-666h-265z" />
    <glyph glyph-name=".notdef" horiz-adv-x="364" 
d="M66 33h199v600h-199v-600zM33 0v666h265v-666h-265z" />
    <glyph glyph-name=".null" horiz-adv-x="0" 
 />
    <glyph glyph-name="nonmarkingreturn" horiz-adv-x="333" 
 />
    <glyph glyph-name="space" unicode=" " horiz-adv-x="300" 
 />
    <glyph glyph-name="exclam" unicode="!" horiz-adv-x="290" 
d="M270 708q1 -12 6 -85q4 -54 4 -88q0 -52 -11 -185q-10 -121 -10 -181q0 -12 -9 -21t-21 -9t-21 9t-9 21q0 54 11 186q10 120 10 180q0 31 -4 84q-5 66 -6 87q0 12 8 21t20.5 9.5t21.5 -7.5t10 -21zM262 74q0 -12 -9 -21t-21 -9t-21 9t-9 21t9 21t21 9t21 -9t9 -21z" />
    <glyph glyph-name="quotedbl" unicode="&#x22;" horiz-adv-x="271" 
d="M245 771q9 -112 16 -151q2 -12 -5.5 -22.5t-19.5 -12.5q-19 -3 -30 13v-2q0 -12 -9 -21t-21 -9t-21 9t-9 21q0 140 2 171q1 12 10.5 20.5t21.5 7.5q8 -1 14 -5q8 8 19 9q12 1 21.5 -7t10.5 -21z" />
    <glyph glyph-name="numbersign" unicode="#" horiz-adv-x="649" 
d="M314 112q-83 35 -119 105q-22 42 -22 108q-2 4 -3 8q-1 7 3.5 12.5t11.5 6.5q38 5 88 18q8 10 20 6l7 2l26 7q6 5 13 4q49 14 78 20.5t95 18.5q60 10 93 18q10 3 17 -5q10 -3 12 -13q12 -75 -2 -155q-18 -99 -71 -140q-39 -31 -93 -40t-106 4q-17 -6 -30 -9
q-7 -1 -12.5 3t-7.5 11q-1 5 2 10zM243 227l-2 -2l-6 -8l1 -3l4 7l2 4zM301 214q-16 -7 -33 -13l-2 -4q-3 -6 -9 -8q14 -13 31 -25q-3 7 -1 13q6 18 14 37zM362 334l20 32l-34 -10l-38 -74q31 35 52 52zM400 318q-6 -3 -12 -7q-39 -67 -61 -122l22 41l27 48q12 22 24 40z
M375 137q-7 10 0 20q28 40 61 114l-7 -14q-39 -76 -59 -105q-4 -6 -11 -7.5t-12 2.5q-5 3 -7 8q-6 -1 -12 2q-7 4 -8 13l-1 -3q-4 -12 -16 -12q27 -15 58 -23zM529 353q-16 -14 -36 -37q-42 -94 -48 -105q16 21 35 52zM96 638q6 26 21 39q27 23 62 -3q28 -21 47.5 -63
t18.5 -87q-1 -40 -22 -57q-20 -16 -50 -7q-23 7 -45 26t-32 42q-12 28 -12 94q0 13 12 16zM160 645l-1 1q-14 10 -20 5q-13 -11 -13 -57q0 -9 -7 -14q1 -12 3 -21v3q9 35 28 74q3 7 10 9zM507 575q-3 -1 -6 -1q-7 0 -12 5t-5 12q0 10 1 24h-1q-1 5 1 10q3 51 11 88
q10 44 28 63q13 13 30 13.5t35 -12.5q25 -19 34 -69q5 -29 5 -62q-1 -44 -12 -66q-13 -25 -37 -31q-20 -5 -43 5q-15 8 -29 21zM531 713l8 12q4 6 6 8q2 3 19 18q1 0 1 1q-6 4 -10 4q-3 0 -7 -4q-9 -10 -17 -39zM196 590q2 -1 3 -2l-2 6zM158 531q-7 5 -8 14q-7 -6 -15 -4
q-6 2 -10 7q1 -3 3 -6q8 -18 26 -34zM205 567h1v1zM307 719q-8 7 -7 17q1 7 7 11t13 3q2 -1 5 -1q-8 4 -15 6q-9 3 -15 1q-4 -2 -7 -8q-5 -12 -1 -35q8 0 13 -6l2 4zM353 587q-3 -4 -8 -6q4 -4 8 -7v1q-1 3 -1 7q0 2 1 5zM380 562l-1 -1h2zM574 671l8 10q4 5 9 6q-1 8 -2 15
q-2 11 -5 21q-12 -10 -13 -11q0 -1 -4 -6l-11 -17q-4 -5 -11 -7h-3l2 -2q5 -5 5 -12v-1q3 2 5 4q11 7 20 0zM590 632l4 5v3l-4 -6v-2zM543 611l-9 -11l-2 -2q4 -4 8 -7q2 16 3 20zM576 383v-13v-8v-5q0 -3 -3 -22q-2 -10 -11 -13q2 -8 -4 -15q-17 -20 -41 -76
q-21 -47 -40 -70h1q8 -4 9 -13q11 7 21 17q-13 9 -5 23q13 21 33.5 62t27.5 54q3 6 10 8t13 -1q1 0 2 -1q4 0 9 -2q2 -1 4 -3q1 8 2 17q-5 -4 -12 -3.5t-11.5 5.5t-4 12t0.5 17q0 8 1 12q2 4 5 11l8 14q4 7 12 9q0 6 -1 12q-30 -7 -84 -17q-64 -11 -91 -17q0 -5 -3 -9l-3 -5
q6 1 11 -3l1 1q9 10 20 4l9 11q4 6 11 7t12 -4q5 -3 6 -8q3 0 6 -1q11 10 22 18q13 11 23 -2q2 14 17 14q7 0 12 -5t5 -12zM268 652q-26 71 -12 108q8 20 27 28q16 6 37 0q37 -11 71.5 -55.5t48.5 -106.5q10 -48 -13 -76q-23 -30 -61 -21q-29 7 -52.5 36t-35.5 77
q-7 3 -10 10zM351 692l-9 -12l-2 -2q0 -1 -1 -2l-2 -2q-4 -3 -9 -4h-4l-1 -1q-3 -10 -13 -12q6 -27 16 -47l11 25v3q0 8 2 14q2 4 7 10l4 5l7 17q6 13 20 10q-13 21 -29 37q2 -4 3 -9t0 -11q7 -10 0 -19zM241 294q9 17 17 37q-27 -6 -51 -10q0 -43 10 -69l7 12q-2 1 -4 3
q-5 5 -5 12t5 12t12 5q5 0 9 -2zM525 684q3 1 7 1q-4 3 -5 7zM522 655q-1 -9 -2 -19q7 8 13 15h-1q-6 0 -10 4z" />
    <glyph glyph-name="dollar" unicode="$" horiz-adv-x="689" 
d="M122 609q1 9 3 33.5t4 40.5q3 17 11 51q8 29 10 44q3 18 -1 56q-2 19 -2 25q0 8 2 14q7 21 29 20q26 -2 46 -30q4 -5 7.5 -11t6 -9.5t5.5 -6.5q4 -5 6 -11q85 17 145 2q15 -3 37 -18q7 -4 20 -13.5t15 -10.5q19 -13 30 -19q6 -2 10 -3q5 3 22 19q31 28 45 38q34 24 62 16
q34 -11 44 -65q5 -28 -11 -73q-11 -31 -35 -79l-20 -39l-20 -39l-15 -31q-7 -16 -10 -27q-4 -13 -6 -38q-3 -33 -6 -47q-3 -19 -8 -37l12 -25q19 -43 20 -46q8 -20 12 -32q2 -10 3 -16q0 -8 -3 -14q-6 -15 -23 -17q-28 -2 -56 25q-4 4 -9 10q-35 -71 -91 -131q-2 -2 -5 -7
l-7 -12q-19 -26 -45 -22q-26 5 -36 41q-5 16 -7 48q-1 4 -1.5 12t-1.5 12q-5 -4 -11 -7q-28 -12 -57 -11t-58 16q-10 4 -20 16l-3 -5q-4 -9 -12.5 -26t-10.5 -23q-8 -14 -14 -23q-10 -15 -22 -20t-25 0q-9 4 -16 14q-7 11 -11 33q-7 41 4 62q7 14 8 23q2 22 -9 57
q-15 46 -13 77q1 25 10 54t17 46l22 47q-59 44 -88 72q-17 17 -23 29q-7 14 -3 26q6 17 25 20q13 2 34 -6q16 -7 39 -19t49 -30zM597 773q4 2 9 2q12 1 20 -7q-3 13 -7 18q-6 -2 -17 -9zM205 323l-9 14q-6 10 -3.5 20.5t12 16t20 3t15.5 -11.5l6 -10q12 1 21 -8
q14 -15 3 -32l6 -9q6 -10 3.5 -20.5t-11.5 -15.5t-19 -3t-16 10l-5 -5q-7 -8 -18 -8.5t-18.5 6.5t-8 18t6.5 18zM129 451q43 66 119 74q61 6 97 -26q31 -27 40 -78q13 -72 -14 -169q-4 -13 -17 -18l1 -1q3 -8 5 -21q1 -6 4 -45q2 -16 4 -26q4 6 7 10q61 65 95 144
q-16 28 -41 82q-4 10 -0.5 20t13.5 15q8 3 17 1l-4 7q-7 9 -5 19.5t11 17t19.5 4.5t16.5 -11l12 -17q0 3 0.5 8.5t0.5 7.5q2 29 8 48q4 14 12 33l16 34q8 16 21.5 41t19.5 37l11 25q-11 -7 -24 -2q-15 7 -15 24q-14 0 -22 12q-5 8 -4 18q-6 -4 -12 -6q-20 -6 -47 6
q-14 7 -37 23l-15 10q-13 9 -19 14q-15 9 -21 11q-54 13 -148 -8q-9 -2 -17 1q1 -9 -5 -16.5t-15 -9.5q-2 -9 -6 -24q-8 -30 -10 -45q-1 -6 -4.5 -42t-7.5 -57l10 -7q8 -7 9.5 -17.5t-4.5 -19.5q-10 -12 -25 -10q1 -10 -5 -19q-7 -10 -19 -11l-21 -44q-6 -12 -13.5 -36
t-8.5 -44q-1 -22 10 -59q15 -45 12 -77q-1 -13 -4 -23l5 11q8 15 15 23q12 16 28 18q22 3 41 -20l7 -10q20 -9 38 -10q17 -1 35 7l8 10q16 19 33 20q0 4 1 8q24 86 13 146q-6 33 -23 48q-19 17 -57 13q-29 -3 -47 -14.5t-34 -35.5q-6 -9 -16.5 -11.5t-19.5 3.5t-11.5 16.5
t3.5 19.5zM311 617l63 -21q10 -4 15 -13.5t1.5 -19.5t-13 -15t-19.5 -2l-63 21q-10 4 -15 13.5t-1.5 19.5t13 15t19.5 2zM496 643q0 -11 -7.5 -18.5t-18.5 -7.5t-18.5 7.5t-7.5 18.5t7.5 18.5t18.5 7.5t18.5 -7.5t7.5 -18.5zM256 682q0 -11 -7.5 -18.5t-18.5 -7.5t-18.5 7.5
t-7.5 18.5t7.5 18.5t18.5 7.5t18.5 -7.5t7.5 -18.5z" />
    <glyph glyph-name="percent" unicode="%" horiz-adv-x="937" 
d="M610 301q3 -4 7 -8q8 -9 18 -17q2 5 7 8l26 25l-19 -5q-19 -4 -31 -3h-8zM572 379q4 -16 10 -29q2 3 6 6q4 4 13 10l20 13q-24 -4 -39 -2q-6 0 -10 2zM552 483q2 -19 4 -36q5 4 12 8q3 2 14 8.5t17 10.5q5 3 9 7q-11 -2 -14 -2q-22 -3 -35 1q-4 2 -7 3zM544 637
q0 -47 2 -81q4 4 10 8q6 6 22 16l21 15q22 17 31 28q-5 0 -14 -1h-19q-28 -1 -43 8q-6 3 -10 7zM542 752q1 -20 1 -51q6 9 18 16q7 5 32 19q12 6 18 11h-23q-30 -1 -46 5zM518 877q8 -10 12 -24q2 -3 3 -7l24 24l10 12q-36 -3 -49 -5zM20 274q-8 10 -5 23q-4 -9 1 -27
q3 -3 7 -6q-1 3 -3 10zM94 246l-2 2l2 -6v4zM497 42l9 -25q4 -10 -0.5 -20t-14.5 -13.5t-20 1t-13 14.5l-2 5q-3 -5 -13 -20t-17 -29q-4 -10 -14.5 -13.5t-20 1t-13 15t1.5 19.5q8 18 20 36l11 17q4 9 -3 39q-27 11 -50 25q0 -8 -1 -15q2 1 5 1q11 0 18.5 -7.5t7.5 -18.5
v-30q0 -11 -7.5 -18.5t-18.5 -7.5t-18.5 7.5t-7.5 18.5v6l-9 -7h-1q-6 -7 -17 -17l-5 -5q-3 -3 -6 -4l-12 -12q-8 -7 -18.5 -7t-18 8t-7.5 18.5t8 18.5l23 21q11 12 14 15q2 1 5 3q5 5 8 10q9 16 5 58v6q-85 86 -74 220q6 71 55 141q-3 0 -18 3l-20 5q-5 1 -18.5 4.5
t-19.5 6t-18 7t-20 9.5l-17 12q-10 7 -18 15.5t-16 18.5q-25 33 -30 79t7 85q12 42 38 77.5t62 53.5q85 43 192 30q2 2 4 3q4 5 12 8l8 2q7 2 19 4q19 3 51 6q12 1 81 8h1q3 1 10 3q24 6 38 -10q22 -24 8 -55q-7 -17 -28 -38q-4 -5 -14 -14l-14 -14q-3 -3 -5 -6q7 -2 26 -1
q31 0 43 -2q35 -8 39 -42q3 -24 -19 -44q-10 -9 -33 -21q-22 -12 -27 -16q4 -1 6 0h18q12 1 19 1q32 -1 44 -19q21 -29 -5 -63q-12 -17 -43 -39l-30 -22q12 1 17 2q26 1 39 -13q23 -28 6 -58q-8 -15 -28 -29q17 4 24 5q12 2 21 1q18 -1 27 -14q19 -25 -7 -54l-3 -3h1
q20 4 31 0q16 -4 21 -18q5 -12 0 -26q-6 -13 -24 -33q-16 -17 -45 -44q52 -24 105 -18q3 0 19.5 2t26 3t24.5 1t26 -3q17 -3 18 -4q22 -7 28 -25q6 -21 -12 -38q-6 -5 -8 -6q0 -1 -1 -1q-43 -54 -129 -85q-85 -30 -164 -35q-60 -4 -116 5q1 -1 1 -2zM307 247l37 21
q27 16 42 24q6 3 13 3l-11 31q-17 38 -37 47q-22 10 -59 -12q-4 -2 -9 -3v-6q-1 -9 -1 -18q26 3 63 20q10 4 20 0.5t14.5 -13.5t1 -20t-13.5 -15q-46 -20 -81 -24q4 -23 12 -44q4 6 9 9zM356 192l21 3q5 1 7 1.5t7 2.5l21 8q3 1 6 1q-4 23 -7 38h-1l-40 -24l-37 -21
q-6 -3 -12 -3q7 -10 16 -20q6 12 19 14zM494 408q3 -27 15 -69q17 -56 20 -73q3 -14 3.5 -33t-1 -40t-1.5 -27q0 -11 -7.5 -18.5t-18.5 -7.5q-12 0 -20 10q-5 -11 -15 -15q-5 -2 -10 -3q-10 -3 -19 3t-11 17l-1 5l-19 -7q-8 -3 -12 -4t-12 -2l-6 -1q91 -61 229 -52
q70 4 142 29t108 64q-8 1 -68 -6q-57 -6 -114 15.5t-97 63.5q-69 74 -83 262q-4 53 -5 147q-1 90 -3 123q-2 34 -7 47q-6 17 -20 23q-13 4 -33 2q-2 0 -6 -1q-10 -13 -26 -11q-99 15 -174 -22q-25 -13 -44.5 -39.5t-29.5 -59.5q-20 -73 15 -118q24 -33 64 -46v2
q0 11 7.5 18.5t18.5 7.5q25 0 43 8.5t44 30.5l-16 16q-8 7 -8 18t7.5 18.5t18.5 7.5t18 -8q23 -22 32 -30q18 2 27 -13l13 -23q5 -10 2 -20t-12.5 -15.5t-19.5 -2.5t-16 12l-4 7h-1q-2 -3 -5 -5q-43 -36 -75 -46l11 -3h3q7 0 10 -1q27 -3 32 -27q4 -21 -16 -37q-6 -5 -8 -6
v-1q-18 -23 -30 -49q38 12 70 -3q38 -18 62 -74q20 -45 37 -145l4 -6l3 -9q2 57 0 70l-20 68q-13 46 -17 78q-1 11 6 19.5t17.5 9.5t19 -6t9.5 -17zM290 768q0 -11 -7.5 -18.5t-18.5 -7.5t-18.5 7.5t-7.5 18.5t7.5 18.5t18.5 7.5t18.5 -7.5t7.5 -18.5zM165 186q0 -11 -7 -18
q-6 -6 -14 -8q0 -11 -10 -19q-8 -7 -18.5 -6t-17.5 10q-11 13 -66 48q-26 17 -39 27q-22 19 -27 36q-9 35 0 60q11 28 40 34q21 5 44 -3l16 27q6 10 20.5 24.5t30.5 22.5q1 0 6 2q5 3 9 5q19 8 35 1q15 -7 21 -26q4 -11 5 -27q2 -24 -1 -63q-2 -19 -4.5 -40.5t-5.5 -40
t-3 -22.5q-1 -10 -9 -16q-2 -3 -5 -4v-4zM139 373q1 0 2 -1v2q-1 0 -2 -1z" />
    <glyph glyph-name="ampersand" unicode="&#x26;" horiz-adv-x="506" 
d="M303 516q21 42 47 73q31 35 60 43q47 13 75 -35q13 -22 11 -65q-1 -30 -9 -73q-4 -21 -10 -45l-12 -46q-6 -23 -8 -29q0 -2 -1 -8l-2 -16q-4 -24 -8 -40q-8 -27 -21 -42q-21 -26 -53 -22q-4 1 -7.5 2.5t-5.5 2.5l-2 1l-4 4q-5 3 -11 9l-31 30l-90 90l-89 95
q-19 22 -30 36q-6 8 -10 14q-7 11 -8 19q-3 30 7 50q12 23 38 28q31 7 80 -16t94 -60zM283 453q-7 10 -38 32.5t-61 36.5q-27 12 -40 12q-1 -3 -1 -8q2 -3 6 -8q10 -13 28 -33l87 -93l88 -89l30 -28q3 6 6 16q3 12 6 33l2 15q2 9 3 14q1 6 7 28l12 45q6 24 10 45q8 38 9 64
q1 24 -4 32q-5 9 -7 7q-12 -3 -30 -24t-32.5 -48t-17.5 -37q-3 -12 -12.5 -18.5t-21.5 -4.5q-18 -3 -29 11zM265 616l-5 53q-1 13 7 22.5t20.5 10.5t22 -7t10.5 -20l5 -53q1 -13 -7 -22.5t-20.5 -10.5t-22 7t-10.5 20zM436 160q0 -12 -9 -21t-21 -9t-21 9t-9 21t9 21t21 9
t21 -9t9 -21z" />
    <glyph glyph-name="quotesingle" unicode="'" horiz-adv-x="183" 
d="M162 743q1 -18 4.5 -57t5 -68.5t1.5 -56.5q0 -12 -9 -21t-21 -9t-21 9t-9 21q0 27 -1.5 56t-5 66.5t-4.5 55.5q-1 12 7.5 21.5t20.5 10.5t21.5 -7.5t10.5 -20.5z" />
    <glyph glyph-name="parenleft" unicode="(" horiz-adv-x="388" 
d="M370 593q-54 -59 -79.5 -157t-5.5 -173q7 -26 22.5 -47t46.5 -52q8 -9 8 -21.5t-9 -21t-21.5 -8.5t-21.5 9l-33 36q-12 13 -27.5 38.5t-22.5 50.5q-24 91 5.5 204t93.5 182q8 9 20.5 9.5t21.5 -7.5t9.5 -20.5t-7.5 -21.5z" />
    <glyph glyph-name="parenright" unicode=")" horiz-adv-x="433" 
d="M284 598q84 -70 118 -159t14 -182t-90 -175q-8 -9 -20.5 -10t-22 7t-10.5 20.5t7 22.5q92 104 83 222.5t-117 207.5q-10 8 -11 20.5t7 22t20.5 10.5t21.5 -7z" />
    <glyph glyph-name="asterisk" unicode="*" horiz-adv-x="801" 
d="M733 518v2q-1 2 -2 3q0 -3 -1 -6q1 1 3 1zM571 150l-25 128q-10 47 -19 80q-7 28 -12 39q-13 -5 -28 -9q-120 -35 -168 -51q54 -37 111 -123q7 -10 22 -33l22 -35q9 -13 22 -30.5t26 -31.5l38 52zM338 507l-4 -1q-4 -21 -11 -70q-7 -53 -13 -78l171 52q16 4 33 10
q-57 49 -169 82q-4 2 -7 5zM569 525l-2 -4q-5 -15 -13 -44q-7 -31 -13 -46q20 7 49 20q82 35 109 45q10 4 14 -5q5 11 11 21q-8 -3 -13 4q-18 24 -63 45l-41 16l-13 5q-3 -11 -10 -25l-9 -18q0 -1 1 -1q2 -10 -7 -13zM178 427v-1q-2 -9 -4 -14q-3 -11 -9.5 -29.5t-10 -29.5
t-7.5 -26.5t-5 -29.5q65 27 144 53q7 28 15 89q6 44 9 60q-43 -12 -84 -21l-22 -10q-1 -1 -1 -2l-24 -39h-1zM164 273q0 1 1 1q16 10 28 17v2l-37 -14zM393 132l44 25q1 1 3 1l-27 41q-32 -32 -55 -47zM480 85q-11 13 -25 26q-9 7 -1 15q2 3 5 4l-8 11q-1 -2 -4 -4l-32 -18
l48 -25zM269 257q-13 -21 -29 -34l13 -8q7 14 16 42zM300 327l1 1v4l-6 -2q2 -1 3 -1zM243 309h1q6 4 11 1q8 4 15 8q5 2 10 0l3 6l2 2l-45 -15q2 -1 3 -2zM319 239l-28 12q-11 -31 -19 -48l13 -8zM371 190q12 10 30 27q-12 18 -23 32q1 -31 -7 -59zM338 165v1q20 36 18 85
l-52 -67l25 -15l7 -5l1 1h1zM597 405q-3 5 -7 11q-3 6 0 11l-54 -22q4 -10 8 -26q9 2 18 3q-4 3 -5 7q-2 10 9 13q14 3 31 3zM623 376q31 13 55 20h1l6 18q11 37 21 61q-28 -10 -103 -42q4 -2 7 -5q8 -15 11 -24h3q11 -1 10 -12q-1 -8 -9 -10zM592 363q-1 0 -8 -1
q-21 -2 -34 -4l4 -16q2 4 5 6zM616 251q-1 -11 -1 -28l10 21l4 11q-5 -2 -13 -4zM601 195q-8 2 -8 10q0 31 1 39q-11 -3 -18 -6l12 -63q7 10 13 20zM434 538l-63 -21q26 -8 51 -19v1q4 8 8 24q3 11 4 15zM521 530q18 9 32 13l11 23q5 12 8 20q-2 -1 -5 -2l-90 -32
q22 -9 40 -18q2 -1 4 -4zM497 519q-17 8 -41 18q-1 -5 -5 -20q-3 -11 -5 -17q1 0 3 1q18 4 48 18zM487 490q6 2 16 3q21 4 30 7q2 1 5 1q2 8 4 15q-9 -4 -29 -14q-16 -8 -26 -12zM465 482q-3 -1 -5 -1l3 -2q1 2 2 3zM170 517q140 28 381 115q4 1 15 6l21 9q33 12 57 3
q21 -8 58 -31q42 -26 51 -31q1 0 3 -1q6 -2 8 -2q15 -7 22 -19q8 -15 5 -41q-2 -18 -11 -45q-13 -44 -42 -113q-44 -104 -87 -185q-16 -31 -51 -77l-18 -23l-7 -16l-6 -11q-1 -3 -1 -4q-2 -3 -4 -4q-3 -3 -8 -5l-7 -14q-2 -4 -6 -5q-5 -9 -15 -12t-19 2q-20 11 -91 43
l-133 60q-80 38 -125 66q-28 18 -45 33q-21 19 -27 38q-15 49 7 133q6 25 19 66t16 52q3 10 12 15t19 2q5 -1 9 -4zM299 271q14 -6 30 -12l4 -2l11 15q5 5 11 4q-19 21 -39 37q-8 -17 -18 -42h1zM626 432q33 9 49 20q9 6 15 -3t-3 -15q-18 -13 -55 -24q-11 -3 -14 8t8 14z
M570 324q9 0 56 11q10 2 12.5 -8.5t-8.5 -13.5l-14 -3q-9 -3 -14.5 -4t-14.5 -2.5t-17 -1.5q-5 0 -8 3l5 -23l5 -22q9 3 29 9q25 7 36 13q2 1 4 1l13 32q8 21 18 56q-29 -9 -103 -43q-7 -3 -12 2l3 -13q2 7 10 7zM517 471q0 -11 -11 -11q-10 0 -11 9q-6 -1 -10 -2
q21 -12 37 -25q4 12 10 35q-6 -1 -15 -3v-3z" />
    <glyph glyph-name="plus" unicode="+" horiz-adv-x="682" 
d="M199 425q1 17 8 72q8 63 5 97q-1 8 4.5 14.5t13.5 7.5q5 0 10 -2q-3 2 -5 4q-24 17 -38 10q-16 -8 -22 -41q-8 -40 4 -101q4 -22 20 -61zM435 154q-13 -42 -23 -70q-5 -13 -19 -13l-4 -6q-6 -5 -14.5 -5t-14.5 6q-47 50 -127 198q-82 152 -94 214q-12 69 -3 117
q10 52 43 69q35 17 79 -13q25 -18 52 -53q57 199 183 250q58 23 97 23q31 0 51 -14q25 -17 30 -52q8 -53 -24 -154q-25 -80 -75 -194l-89 -195zM252 598q4 -40 -5 -106q-9 -72 -9 -99q0 -16 -16 -20l39 -77q1 41 20 131q17 80 15 121q-24 37 -47 59q2 -4 3 -9zM523 664
q-2 -16 -4.5 -33.5t-5.5 -31.5t-8 -33.5t-7.5 -30.5t-9.5 -33l-10 -30l-10 -32q-7 -25 -9 -31q-38 -118 -46 -188l51 145q56 159 76 243q13 59 16 82q4 27 3 43q-1 7 -2 11q-2 0 -4 -1q-10 -4 -25 -15q-30 -21 -73 -64q-27 -27 -52 -55q-1 -5 -5 -9q-3 -3 -6 -4l-35 -42
q-2 -5 -6 -8l-7 -9q-3 -4 -8 -6q0 -42 -15 -113q-20 -95 -20 -131q0 -8 -6 -14t-14 -6q-2 0 -5 1l30 -53q6 65 30 174q29 130 34 173q1 8 7.5 13t15 4t13.5 -7.5t4 -15.5q-7 -46 -35 -175q-24 -109 -29 -173q-1 -8 -7 -13.5t-15 -4.5q-1 0 -3 1q33 -55 57 -84l2 6v3q0 4 1 8
l3 8l3 10q-7 1 -12.5 6.5t-5.5 13.5q0 60 13.5 120t38.5 138q1 6 9 31l10 32q3 8 10 30l9 32q3 10 7.5 29t7.5 32l5 29q3 17 4 32q1 8 7.5 13.5t14.5 4.5t13.5 -7.5t4.5 -14.5z" />
    <glyph glyph-name="comma" unicode="," horiz-adv-x="188" 
d="M169 82q13 -51 8 -82q-6 -38 -39 -77q-9 -9 -21 -10t-21.5 7.5t-10.5 20.5t7 22q23 25 26 46q3 19 -7 59q-3 12 3.5 22.5t18.5 13.5t22.5 -3.5t13.5 -18.5z" />
    <glyph glyph-name="hyphen" unicode="-" horiz-adv-x="257" 
d="M100 343q19 2 38 2.5t45.5 0t33.5 -0.5q12 0 21 -9t9 -21t-9 -21t-21 -9q-11 0 -36 0.5t-41 0t-32 -2.5q-13 -1 -22.5 6.5t-11 20t6 22t19.5 11.5z" />
    <glyph glyph-name="period" unicode="." horiz-adv-x="204" 
d="M180 118q2 -1 4 -3q9 -8 10 -20.5t-8 -21.5q-26 -30 -42 -37q-9 -4 -19 -3q-15 2 -24 16q-7 11 -4 28q6 32 29 63q8 9 20.5 10.5t22.5 -5.5q12 -10 11 -27z" />
    <glyph glyph-name="slash" unicode="/" horiz-adv-x="357" 
d="M60 26q8 53 29 116t34.5 95.5t51.5 112.5l44 94q7 17 24.5 52t28 59.5t16.5 48.5q3 12 13.5 18.5t22.5 3.5t18.5 -13.5t3.5 -22.5q-7 -28 -19 -56.5t-30 -65.5t-24 -48q-7 -17 -44 -96t-50 -110t-32.5 -89.5t-26.5 -108.5q-2 -12 -12 -19.5t-22.5 -5.5t-20 12t-5.5 23z
" />
    <glyph glyph-name="zero" unicode="0" horiz-adv-x="530" 
d="M290 449q-13 -36 -21 -114q-10 -94 -5 -135q2 -24 11.5 -47t21.5 -32q44 -32 83 -8q42 26 66 93q25 66 9.5 133t-68.5 94q-10 6 -22.5 9t-18.5 3.5t-27.5 2t-27.5 1.5h-1zM323 507q57 -2 92 -20q41 -21 66.5 -57.5t33 -78.5t4.5 -84t-17 -81q-30 -87 -90 -124
q-75 -45 -151 11q-25 19 -39 54t-18 67q-5 48 5 147q5 43 9 70t19 65.5t38 66.5q8 10 20.5 11t21.5 -7q9 -7 10.5 -18.5t-4.5 -21.5z" />
    <glyph glyph-name="one" unicode="1" horiz-adv-x="274" 
d="M256 557q0 -44 -3 -153t-1.5 -186t12.5 -148q1 -12 -6 -22t-19.5 -11.5t-22.5 5.5t-12 20q-10 73 -12 153.5t1 191t3 150.5q0 12 9 21t21 9t21 -9t9 -21z" />
    <glyph glyph-name="two" unicode="2" horiz-adv-x="463" 
d="M192 476q18 28 51.5 52t67.5 32q45 10 75 -12q33 -25 33 -83q0 -37 -33 -109q-20 -47 -66 -130q-58 -106 -63 -116q-10 -19 -15 -32q21 -1 60 1q22 2 70 7q40 4 51 4q12 0 21 -9t9 -21t-9 -21t-21 -9q-7 0 -45 -4q-48 -5 -71 -6q-45 -4 -70 -2q-18 2 -30 6q-23 7 -29 26
q-4 11 -1 25q2 8 6 18q6 17 20 44l64 118q44 79 65 125q27 61 27 85q0 28 -9 35q-8 5 -25 1q-23 -5 -47 -22t-36 -35q-7 -11 -19 -13.5t-22.5 4.5t-13 19t4.5 22z" />
    <glyph glyph-name="three" unicode="3" horiz-adv-x="568" 
d="M235 518l26 13q13 6 22 9q20 7 59 11q46 5 75 -4q35 -10 45 -39q15 -40 -25 -102q-25 -38 -69 -84l-9 -10q7 -1 28.5 -4.5t33.5 -6.5q126 -26 137 -112q6 -46 -31 -88q-28 -32 -78 -57q-45 -22 -94.5 -32t-83.5 0q-8 2 -18 7.5t-19 11.5l-9 6q-11 6 -14.5 18t2.5 22.5
t18 14t22 -2.5q10 -5 19 -11t15 -8q21 -6 59.5 1.5t75.5 26.5q39 19 60 43q19 21 16 40q-3 24 -25 38.5t-64 23.5q-13 2 -37.5 6.5t-34.5 6.5q-20 4 -32 10q-23 13 -26 35q-1 12 6 22l2 2l1 1v1h1v1l2 1l8 8l26 26q39 41 61 75q24 37 20 49q-1 1 -6 3q-17 5 -52 1
q-32 -3 -45 -8q-6 -2 -16 -7l-26 -12q-12 -5 -23.5 -1t-16.5 15.5t-1 23t15 16.5z" />
    <glyph glyph-name="four" unicode="4" horiz-adv-x="530" 
d="M317 309q-6 90 -16 175l-43 -66q-33 -55 -50 -86l-6 -12l12 -1l102 -10h1zM300 593l2 4q7 11 19 14t22.5 -3.5t13.5 -18.5t-3 -22l-3 -4q17 -124 26 -260q100 -9 120 -14q12 -3 18.5 -13.5t3.5 -22.5t-13.5 -18.5t-22.5 -3.5q-15 3 -102 12q4 -63 6 -132
q0 -12 -8.5 -21.5t-20.5 -9.5t-21.5 8.5t-9.5 20.5q-2 73 -6 139l-10 1l-103 10q-23 3 -35 5q-8 1 -13 2q-3 1 -6 3q-11 4 -17 14q-5 11 -3 25q1 7 5 17q5 13 16 35q18 33 53 89l83 131q3 8 9 13z" />
    <glyph glyph-name="five" unicode="5" horiz-adv-x="455" 
d="M369 531l-88 3q-32 1 -53 1q0 -10 -1 -26q0 -11 -0.5 -25.5t-1 -24t-0.5 -11.5t-9 -46l-2 -12h3q5 0 24 -0.5t30 -0.5q95 -6 141 -60q39 -46 33 -110q-5 -46 -33 -72.5t-69 -35.5q-65 -14 -138 9q-12 4 -17.5 15t-2 23t14.5 17.5t23 2.5q58 -19 107 -8q51 11 55 55
q4 39 -19 66q-29 34 -98 38q-12 1 -30 1h-23q-15 1 -24 3q-21 5 -29 21q-12 24 -5 60q2 7 4 15t3 13t1 10q0 3 0.5 12t1 23t0.5 25q1 24 2 38q1 9 2 15q1 4 3 8q3 9 10 15q5 4 11 6q2 1 4 1h4h7q7 1 19 0q19 0 54 -1l88 -3q13 -1 21.5 -10t7.5 -21.5t-10 -21t-21 -7.5z" />
    <glyph glyph-name="six" unicode="6" horiz-adv-x="479" 
d="M281 470q0 -8 -8 -87q-6 -60 -7 -102q-4 -118 28 -159q10 -14 23 -20q20 31 36 48q24 27 46 33q19 6 36 -1t28 -26q17 -29 -11 -65q-20 -26 -53 -42q-31 -14 -62 -13q-13 -3 -23 3q-40 10 -68 47q-45 59 -40 197q1 41 7 105q8 84 8 86q1 12 10 20.5t21.5 7.5t21 -10
t7.5 -22z" />
    <glyph glyph-name="seven" unicode="7" horiz-adv-x="427" 
d="M208 582q1 0 26 5l54 11q33 7 54 10q15 2 19 3q5 1 8 1h5q8 0 16 -5q25 -17 27 -59q1 -16 -4 -37q-5 -23 -5 -27q-3 -21 -6 -63q-2 -45 -5 -67q-3 -25 -11 -75.5t-12 -87.5t-4 -72q0 -12 -9 -21t-21 -9t-21 9t-9 21q0 37 4.5 77.5t12.5 92t10 73.5q3 20 5 63q3 44 6 67
q1 6 6 31q3 14 3 21v6l-5 -1q-16 -3 -52 -10l-54 -11q-26 -5 -30 -6q-12 -1 -22 6.5t-11.5 19.5t6 22t19.5 12z" />
    <glyph glyph-name="eight" unicode="8" horiz-adv-x="501" 
d="M257 287q-16 2 -28 8q-36 19 -34 70q2 31 20 74q14 35 34 68q21 34 36 46q7 5 17 10t20 9t11 5q11 5 22.5 1.5t17 -15t2 -23t-15.5 -17.5q-9 -4 -19 -8q79 21 118 3q28 -14 33 -45q3 -23 -9 -50q-19 -45 -68 -85q-8 -7 -16 -13l8 -6q46 -34 39 -99q-7 -60 -47.5 -109
t-88.5 -66q-60 -22 -93 17t-11 121q10 36 42 90zM332 287q-18 -21 -33 -46q-29 -46 -36 -74q-14 -51 -1 -66q6 -7 27 0q32 12 61.5 47.5t34.5 79.5q4 29 -15 43q-13 10 -38 16zM307 351l5 6q15 19 37 8q14 8 27 19q37 31 51 63q5 11 5 17h-1q-22 11 -102 -15
q-10 -4 -20.5 0.5t-15.5 13.5q-13 -22 -23 -47q-14 -33 -15 -55q0 -9 2 -12q8 -4 42 -1q4 2 8 3z" />
    <glyph glyph-name="nine" unicode="9" horiz-adv-x="333" 
d="M257 504q-12 -3 -32 -18.5t-39 -37.5q-18 -23 -25.5 -41.5t-4.5 -27.5q5 -9 7 -9q9 -1 26 9q19 10 35.5 27t21.5 27q10 19 10 43q-1 17 -1 19q1 5 2 9zM262 359q-21 -20 -43 -32q-34 -20 -63 -17q-40 5 -56 49q-20 54 40 127q23 28 51 49.5t53 26.5q14 3 32 1l11 -2
q5 -1 8 -1q13 -1 21 -10.5t7 -21.5q-1 -11 -8 -18l5 -11q1 -3 1 -8q1 -5 1 -14q1 -16 1 -45l-3 -132l-2 -92q-2 -55 -3 -88.5t-1 -45.5t-9 -21t-21 -9t-21 9t-9 21t1 45.5t3 89.5l2 93q1 31 2 57zM262 481v3q-1 0 0 -3z" />
    <glyph glyph-name="colon" unicode=":" horiz-adv-x="211" 
d="M153 377q5 -2 9 -7q9 -9 8 -21.5t-10 -20.5q-12 -11 -21 -17q-14 -9 -27 -9q-14 1 -23 11q-7 7 -9 18q-2 9 1 21q2 11 10 31.5t8 22.5q4 12 15 17.5t23 2t17.5 -14.5t2.5 -23q-1 -3 -4 -11zM170 75v-1v1zM187 115q10 -6 13 -17q3 -12 -3 -23t-18 -14q-3 -1 -21 -6
q-6 -2 -11 -3q-27 0 -34 21q-2 7 -1.5 12.5t1.5 8.5l2 4l4 8q7 12 11 21q5 12 16.5 16t22.5 -1q18 -8 18 -27z" />
    <glyph glyph-name="semicolon" unicode=";" horiz-adv-x="188" 
d="M158 392q19 -9 17 -30q-3 -33 -15 -55q-8 -12 -17 -19q-20 -13 -39 -3q-15 8 -20 28q-2 11 -1 27q3 30 20 75q5 11 16 16t22.5 0.5t16.5 -15.5t1 -23zM178 138q5 -65 -25 -106q-30 -42 -95 -57q-12 -3 -22.5 3.5t-13.5 18.5t3.5 22.5t18.5 13.5q44 10 61 34q17 23 13 67
q-1 12 7 21.5t20.5 10.5t22 -7t10.5 -21z" />
    <glyph glyph-name="less" unicode="&#x3c;" horiz-adv-x="471" 
d="M445 517q-54 -30 -156 -102l-53 -39l53 -13q121 -27 130 -30q12 -4 17 -15t1 -23t-15 -17t-23 -1q-5 2 -123 28q-50 11 -75 18l-27 8q-7 3 -11 5q-14 9 -17 22q-3 10 2 20q1 3 3 6q2 2 4 5q3 2 8 6q8 7 22 18l70 51q102 73 162 105q11 6 22.5 2.5t17.5 -14.5t2.5 -22.5
t-14.5 -17.5z" />
    <glyph glyph-name="equal" unicode="=" horiz-adv-x="400" 
d="M162 254q115 17 204 0q12 -2 19 -12t4.5 -22.5t-12.5 -19.5t-23 -4q-78 14 -182 -2q-13 -2 -23 5.5t-12 20t5.5 22.5t19.5 12zM170 388q100 5 169 5q12 0 21 -9t9 -21t-9 -21t-21 -9q-67 0 -167 -5q-12 -1 -21 7.5t-10 21t7.5 21.5t21.5 10z" />
    <glyph glyph-name="greater" unicode="&#x3e;" horiz-adv-x="505" 
d="M213 280q55 8 138 34q48 15 72 28l2 1q-4 2 -6 4q-24 17 -55 28t-51 14.5t-67 8.5l-66 8q-12 2 -19.5 12t-6 22t11.5 19.5t22 6.5q12 -2 62 -7.5t74 -10t62.5 -18t68.5 -35.5q1 -1 5 -3q7 -4 10 -7q18 -12 24 -29q7 -24 -12 -45q-11 -11 -30 -22q-30 -16 -83 -32
q-87 -28 -148 -37q-12 -2 -22 5.5t-12 20t5.5 22.5t20.5 12z" />
    <glyph glyph-name="question" unicode="?" horiz-adv-x="664" 
d="M150 567q-20 82 46 149q57 57 150 79q35 8 70 9q35 0 70.5 -8.5t65.5 -26t54.5 -48t37.5 -71.5q30 -96 -15.5 -190.5t-130.5 -151.5q-57 -38 -116 -45q-11 -1 -43 4q1 -3 1 -7q0 -6 1 -13t2 -13l1 -5q1 -13 -6.5 -22.5t-20 -11t-22 6t-11.5 19.5q-4 33 -4 34q-1 14 -1 24
q0 7 2 13q2 11 9 19q20 20 56 15q27 -3 28 -3q46 5 90 35q72 48 108.5 124.5t13.5 149.5q-22 70 -86 96q-63 27 -141 9q-75 -17 -120 -63q-43 -44 -31 -93q3 -12 -3.5 -22.5t-18.5 -13.5t-22.5 3.5t-13.5 18.5zM369 102q0 -12 -9 -21t-21 -9t-21 9t-9 21t9 21t21 9t21 -9
t9 -21z" />
    <glyph glyph-name="at" unicode="@" horiz-adv-x="776" 
d="M508 287h-32h-34h-30q-22 0 -35 0.5t-31.5 1.5t-34.5 3t-32 5q10 -28 30 -46q45 -39 105 -41q64 -1 85 50q5 13 9 27zM492 567q2 4 7 6q11 2 14 -8l4 -17q2 -2 2 -3q1 -1 1 -2v-2l1 -1q1 -11 7 -36q2 -9 4 -19q10 -46 44 -252q2 -11 -9 -13t-13 9q-1 2 -1 3q-3 21 -16 81
q-6 -33 -18 -61q-27 -66 -106 -64q-68 2 -118 47q-30 26 -41 69t-3.5 88t28.5 86q34 66 89 92q60 29 124 -3zM355 452q-14 30 -33 52q-13 -16 -24 -36q-4 -9 -7 -17q27 0 64 1zM483 456h23l-4 25q-4 24 -5 39q-1 9 0 14v4l-1 5q-5 -1 -8 1l-6 3q2 -22 2 -86q0 -3 -1 -5z
M375 460q13 65 8 92v1l-6 -2q-21 -11 -40 -30v-1q23 -26 38 -60zM407 534q1 -24 -11 -81q36 1 51 2q-35 72 -40 79zM462 474q0 55 -3 82q-22 7 -44 5q16 -21 47 -87zM516 336h1l2 15h-1q-41 0 -123 2t-123 2h-2v-5q2 1 4 1q32 0 145 -5q24 0 46 -1t40 -1q8 0 11 -8zM378 323
q37 -5 114 -4q-13 2 -28 4q-19 0 -45 1h-17q-10 0 -24 -1zM301 321q-8 1 -15 1t-9 7h-3h-3q1 -5 2 -11q3 1 6 1q19 -3 41 -5q-9 3 -17 6q-1 1 -2 1zM463 651h-2q-3 -1 -5 -1q-11 -8 -11 -12q0 -3 1 -5q4 0 10 5q7 7 7 13zM130 314q1 -4 8 -14l3 -6q1 -1 2 -1q3 -2 12 -3
q14 -1 22 -6q5 -4 5 -10q-1 -7 -8 -10q-2 -1 -6 -2h-2h-2h-1q-4 -2 -8 -6q-1 -5 -3 -11q-2 -15 -10 -29q1 -11 5 -20q11 10 25 8l81 -13q69 -11 114 -16q78 0 135 3q73 4 120 15q54 12 72 32q12 15 5 34v1q-2 4 -5 8h-4h-5q-10 1 -17 4q-2 -3 -3 -4q-5 -6 -10 -8
q-11 -4 -17.5 5t0.5 19q2 4 7 7q3 3 6 5v6q1 8 5 22q-6 12 -7 24q-1 8 2 17h-1l-4 1q-4 2 -7 3l-3 -3q-6 -7 -12 -9q-11 -4 -19 5q-7 9 1 20q2 4 8 8q3 3 6 5q1 4 4 10h1q-1 2 -1 4q-3 14 3 39q2 10 11 23l11 16l2 3q-2 2 -4 3q-11 2 -15 3q-2 1 -3 1q-10 -13 -25 -11
q-9 1 -13 5q-5 5 -3 12q0 4 4 7l3 3q-5 5 -4 14l2 6q-9 24 6 59q2 6 3 10q-5 0 -10 1q-1 -1 -2 -3q-10 -17 -27 -14q-11 2 -14 11q-3 8 4 15q3 5 9 8q-7 8 -5 22v1q-4 14 -3 33h-12q-20 -1 -44 -8q-8 -2 -15 -5q2 -5 2 -11q0 -16 -14 -30q-13 -12 -28 -11q-9 1 -15 9
q-5 7 -5 18t11 22q-20 -2 -31 -2q-15 0 -24 3q-2 1 -4 3q-12 -4 -25 -10q-20 -8 -40 -19q-25 -17 -47 -36q-1 -7 -6 -15l-6 -9q-6 -8 -18 -21q-2 -4 -4 -7q-2 -2 -5 -3q-8 -9 -32 -22q-6 -3 -8 -5v-1v-1q1 -2 1 -4q3 0 5 -1q3 -2 6 -5q5 -5 12 -16q3 -5 2 -10q-2 -7 -9 -8
q0 -2 -1 -3q-4 -8 -12 -7q-4 1 -6 3q-1 1 -1.5 2t-1.5 2l-29 -63q0 -1 1 -1q2 1 5 2t6 1q7 1 11 -3q5 -5 3 -12q-1 -5 -5 -8q-5 -3 -11 -4q-4 -1 -7 -1q0 -10 -5 -23q-2 -8 -8.5 -21.5t-7.5 -17.5q-1 -2 -2 -3zM709 351q2 -5 12 -18q25 -34 30 -44q19 -34 15 -64
q-6 -38 -47 -69q-82 -62 -282 -48l-26 2q-66 0 -116 3q-79 3 -126 13q-30 6 -49 15q-28 12 -37 32q-9 19 -8 36q1 14 9 27q9 15 9 19q0 2 -7 14q-16 27 -16 46q0 10 6 25q2 5 9 20l3 7l-3 3q-7 8 -8 19v1q-8 10 -8 24q0 13 10 37l36 87q6 13 9 18q3 6 7 10q5 5 12 7
q9 3 18 0l1 1l16 9q-1 6 1 12l2 8q3 5 14 17l26 28q27 27 65.5 49.5t75.5 28.5q19 3 29 4q13 1 20 -1q10 -2 16 -9h2q7 0 13 2.5t20 9.5t21 11q53 25 94 6q26 -11 34 -34q6 -14 4 -36q-1 -14 -1 -18q21 -1 33 -14q27 -29 7 -78q-5 -12 -5 -15q2 -1 4.5 -1.5t5.5 -1t5 -0.5
q39 -9 49 -38q8 -26 -14 -59l-9 -14q-1 -6 -3 -11v-2q2 -1 3 -2q15 -11 22 -34q5 -15 -1 -34zM284 422q20 -3 51 -6q11 -1 10 -12t-12 -10q-32 3 -53 6q-3 1 -5 2q-3 -12 -4 -25h1q41 0 123 -2t123 -2h2v19l-6 21q-1 6 -4 21q-36 0 -112 -2.5t-116 -2.5q-1 -4 -2 -7h4z
M375 424q18 -2 38 -4q11 -1 10 -12t-12 -10q-20 2 -38 4q-11 1 -10 12t12 10zM457 424l16 -4h5h15q11 0 11 -11t-11 -11h-14h-8q-2 0 -20 4q-10 3 -7.5 13.5t13.5 8.5z" />
    <glyph glyph-name="A" unicode="A" horiz-adv-x="352" 
d="M275 134l1 2q0 1 0.5 5.5t1.5 10.5q2 20 3 53q1 13 1 28q-44 -9 -71 -29q-17 -12 -21 -24q-3 -13 8 -31q10 -15 43 -20q26 -5 34 5zM100 688q30 38 68 50q37 12 72 -5q31 -14 53 -45.5t31 -70.5q12 -49 17 -257q2 -92 0 -157q-1 -37 -3 -58q-4 -30 -12 -42
q-27 -44 -95 -34q-59 10 -83 48q-26 40 -15 79q9 32 43 56q43 32 106 41q0 28 -1 65q-6 205 -15 245q-7 28 -21 48t-30 28q-33 15 -69 -29q-7 -9 -19.5 -10.5t-22 6t-11 20t6.5 22.5z" />
    <glyph glyph-name="B" unicode="B" horiz-adv-x="454" 
d="M139 691q17 -175 23 -289q10 -187 10 -195v-19q0 -15 0.5 -21t1 -18t1.5 -18.5t2.5 -15t4.5 -15.5t7 -12q12 -18 36 -24q47 -10 81 23t56 96q8 25 16 79t6 103q-2 56 -18 79q-11 17 -38 8q-48 -17 -90 -94q-6 -11 -17.5 -14.5t-22.5 2.5t-14.5 17.5t2.5 22.5
q53 98 122 122q71 25 108 -31q25 -37 28 -110q2 -53 -7 -113t-19 -89q-10 -33 -26 -61.5t-40.5 -56.5t-61 -39.5t-79.5 -1.5q-47 10 -72 48q-7 12 -12.5 25.5t-8 27t-4.5 27.5t-2 26v26v21q0 6 -10 191q-6 113 -23 287q-1 12 7 22t20 11t22 -7t11 -20z" />
    <glyph glyph-name="C" unicode="C" horiz-adv-x="321" 
d="M272 73q-83 27 -143.5 97.5t-82.5 157.5q-22 91 7 175t114 134q11 6 23 3t18 -14t3 -23t-14 -18q-66 -38 -89 -103q-22 -65 -3 -140q19 -74 68 -132q50 -58 117 -79q12 -4 17.5 -15t2 -23t-14.5 -17.5t-23 -2.5z" />
    <glyph glyph-name="D" unicode="D" 
d="M302 351q-4 68 -7 127q-23 2 -37 2t-33 -5q-54 -14 -93 -46q-18 -16 -21 -28q-2 -11 14 -25q7 -7 29 -12q23 -6 58 -9t90 -4zM347 790q0 -186 30 -666l3 -48q1 -12 -7.5 -21.5t-20.5 -10.5t-21.5 7.5t-10.5 20.5l-14 219q-65 1 -99 4q-40 3 -67 10q-38 10 -57 27
q-39 37 -31 80q7 33 42 63q49 41 117 58q33 9 82 6q-6 135 -6 251q0 12 9 21t21 9t21 -9t9 -21z" />
    <glyph glyph-name="E" unicode="E" horiz-adv-x="302" 
d="M229 591q-4 10 -13 20q-12 14 -25.5 22.5t-19.5 8.5q-5 0 -9 -7q-6 -10 -10 -30l34 -6q25 -5 43 -8zM86 556l-25 5q-12 2 -19 12.5t-4.5 22.5t13 19t22.5 4l20 -3q6 31 18 51q22 35 60 35q23 0 47.5 -15.5t43.5 -36.5q8 -10 15 -21.5t12 -26.5t3.5 -31t-11.5 -30
q-7 -9 -18 -12q-3 -1 -5 -1h-5h-7q-6 1 -17 3t-54 9l-29 5q-1 -9 -1 -23v-18q-5 -142 6 -234q17 -140 68 -204q7 -10 5.5 -22.5t-11 -20t-22 -6t-20.5 10.5q-62 80 -80 235q-11 94 -6 243v19q0 18 1 31z" />
    <glyph glyph-name="F" unicode="F" horiz-adv-x="409" 
d="M129 23q-14 95 -21 148t-14.5 146.5t-5.5 165.5l-6 -1q-12 -3 -22.5 4t-13 19t4.5 22.5t19 12.5l21 4q4 54 14 98q15 70 38 104q36 53 103 61q18 2 41 0q29 -3 44 -12q6 -3 17 -12l16 -16l27 -27q9 -9 9 -21t-9 -21t-21 -9t-21 9l-27 26l-15 14l-4 5q-5 2 -22 4
q-16 2 -27 0q-41 -5 -61 -35q-17 -24 -30 -82q-7 -35 -11 -76q14 2 29 3q13 1 22.5 -7t10.5 -20.5t-7 -22t-20 -10.5l-39 -4q-2 -70 5 -161.5t14.5 -148t21.5 -152.5q1 -12 -6 -22t-19.5 -11.5t-22.5 5.5t-12 20z" />
    <glyph glyph-name="G" unicode="G" horiz-adv-x="391" 
d="M329 735h4q20 0 28 -18q4 -7 5 -18v-14l1 -9q2 -42 -6 -90q1 -8 1 -14q2 -35 7 -106.5t8 -118.5t4.5 -119t-5.5 -108q-7 -51 -37 -85t-72 -37q-44 -3 -78 31t-47 94q-3 13 3.5 23.5t19 13t23 -4t12.5 -18.5q10 -45 28.5 -62.5t34.5 -16.5q17 1 33 18.5t20 51.5
q6 42 5.5 102.5t-3 100t-8.5 116.5q-27 -42 -61 -68q-43 -33 -88 -35q-53 -1 -100 41q-44 39 -38 106q5 52 40 113q30 54 74.5 98.5t84.5 58.5q20 7 50 2q2 -1 36 -9q16 -4 21 -19zM294 696q-32 8 -33 8q-14 2 -19 1q-27 -10 -64 -47t-63 -84q-28 -49 -32 -88q-3 -37 18 -57
q29 -25 58 -25q26 1 54 22q27 21 48 55.5t30 67.5q5 20 9 39l-2 9q-4 27 -5 39q-5 36 2 60h-1z" />
    <glyph glyph-name="H" unicode="H" horiz-adv-x="475" 
d="M89 676q1 -56 6 -115.5t15 -142.5t13 -115l1 -13q9 20 18 33q21 34 54 57.5t71 31.5q41 8 80 -5.5t67 -50.5q51 -67 51 -201q0 -12 -9 -21t-21 -9t-21 9t-9 21q0 114 -39 165q-34 44 -87 33q-25 -5 -48.5 -21.5t-38.5 -40.5q-10 -17 -22 -48.5t-15 -51.5q-1 -5 2 -43
q4 -44 -17 -68q-13 -15 -30 -13q-21 2 -29 24q-3 10 -2 31q0 8 0.5 20.5t0.5 16.5t-1 12q-12 91 -16 126q-3 31 -12.5 116t-15 145.5t-6.5 115.5q0 13 8.5 22t21 9t21.5 -8.5t9 -20.5z" />
    <glyph glyph-name="I" unicode="I" horiz-adv-x="175" 
d="M147 548q1 -44 9.5 -214t8.5 -262q0 -12 -9 -21t-21 -9t-21 9t-9 21q0 92 -8.5 260.5t-9.5 213.5q0 12 8.5 21.5t20.5 9.5t21.5 -8.5t9.5 -20.5zM137 635q0 -12 -9 -21t-21 -9t-21 9t-9 21t9 21t21 9t21 -9t9 -21z" />
    <glyph glyph-name="J" unicode="J" horiz-adv-x="294" 
d="M244 594q4 -40 14 -110l15 -116q6 -45 10.5 -117t-2.5 -116q-7 -66 -45 -101q-25 -21 -55.5 -22t-63.5 21q-11 8 -20 17.5t-17 22.5l-12 20q-4 7 -12 23l-8 17q-5 11 -1.5 22.5t15 17t23 2t17.5 -15.5l10 -19q7 -15 10 -20l8 -14q5 -9 10 -14t11 -9q28 -19 45 -4
q21 19 25 62q7 41 2.5 109.5t-10 111t-15.5 112.5t-14 114q-1 12 7 22t20 11t22 -7t11 -20z" />
    <glyph glyph-name="K" unicode="K" 
d="M173 250q81 -32 195 -115q10 -7 12 -19.5t-5.5 -22.5t-20 -12t-22.5 6q-100 73 -169 102q15 -131 20 -190q1 -12 -7.5 -21.5t-20.5 -10.5t-21.5 7.5t-10.5 20.5q-3 52 -20 194q-11 6 -14 18t3 23l1 2q-1 7 1 13l2 4q-3 26 -5 53q-5 63 -10 178q-5 113 -10 175
q-1 12 7 21.5t20.5 10.5t22 -7t10.5 -21q4 -57 9 -167t9 -163l160 279q6 10 18 13.5t22.5 -2.5t14 -18t-2.5 -23z" />
    <glyph glyph-name="L" unicode="L" horiz-adv-x="200" 
d="M162 700q0 -114 13 -322.5t15 -286.5q0 -13 -8.5 -22t-21 -9t-21.5 8.5t-9 20.5q-2 78 -15 287.5t-13 323.5q0 12 9 21t21 9t21 -9t9 -21z" />
    <glyph glyph-name="M" unicode="M" horiz-adv-x="619" 
d="M284 528q-10 41 -26 59q-24 28 -64.5 24t-65.5 -37q-7 -8 -18 -10q13 -95 30 -269t25 -239q1 -13 -6.5 -22.5t-20 -11t-22 6t-11.5 19.5q-5 42 -26 256t-41 327q-2 12 5.5 22t19.5 12.5t22 -5t13 -19.5l1 -10q28 25 64 35.5t74.5 1t66.5 -40.5q5 -7 10 -15q26 50 59 64
q19 9 54 9t54 -9q61 -28 93 -115q25 -67 32 -169q10 -137 -9 -309q-2 -13 -11.5 -20.5t-22 -6t-20 11t-6.5 21.5q19 168 9 299q-7 93 -29 152q-23 64 -62 82q-6 3 -28 3t-30 -3q-14 -7 -30 -39q-13 -25 -21 -56q4 -21 7 -50q4 -34 4 -65v-22q0 -4 -0.5 -7.5t-1.5 -6.5
q-1 -4 -4 -8q-11 -16 -30 -13q-24 5 -37 29q-8 15 -10 39q-4 39 7 92q1 6 3 13z" />
    <glyph glyph-name="N" unicode="N" horiz-adv-x="549" 
d="M102 326q-1 34 -3.5 102t-5 121.5t-6.5 102.5q-1 12 7 21.5t20.5 10.5t22 -7t10.5 -21q3 -40 5 -76q21 44 52 73q32 32 77 45.5t89 1.5q48 -13 83 -51t52.5 -82.5t26.5 -98.5q11 -80 6.5 -154.5t-20.5 -128.5q-4 -12 -15 -17.5t-23 -2t-17.5 14.5t-2.5 23q14 47 18.5 114
t-6.5 141q-25 159 -118 184q-27 7 -56.5 -1.5t-51.5 -29.5q-78 -77 -84 -285q3 -44 5 -80q2 -27 2 -34v-1q1 -8 3 -31q0 -2 2 -8q5 -15 5 -16q5 -15 3 -26q-3 -25 -28 -32q-19 -5 -33 10q-5 6 -8 14t-5 22q-3 21 -4 55q-2 37 -2 86v41z" />
    <glyph glyph-name="O" unicode="O" horiz-adv-x="419" 
d="M155 622q-20 -86 -31 -177q-19 -158 5 -229q10 -28 29.5 -54.5t42.5 -40.5q48 -31 90 10q37 37 51.5 117t-0.5 166q-16 90 -59 143.5t-105 53.5q-14 0 -23 11zM167 669q5 2 11 2q48 0 87.5 -21t66 -57t43.5 -78.5t26 -89.5q18 -89 0 -188t-68 -148q-26 -26 -56 -35.5
t-56.5 -4.5t-51.5 21q-33 21 -58.5 55.5t-37.5 72.5q-29 84 -9 254q16 134 49 247q4 11 15 17t22.5 2.5t17.5 -14.5t3 -23z" />
    <glyph glyph-name="P" unicode="P" horiz-adv-x="460" 
d="M135 610q10 -94 15 -234q1 -1 2 -1q49 -34 115 -16q39 11 67.5 35.5t40.5 55t15.5 65t-8.5 64.5q-21 64 -75 80q-66 20 -156 -44q-7 -5 -16 -5zM153 306q6 -200 14 -290q1 -13 -7 -22.5t-20.5 -10.5t-22 7t-10.5 20q-7 84 -16 335q-7 209 -25 328q-1 12 6 22t19.5 11.5
t22.5 -5.5t12 -20l1 -9q108 71 197 45q42 -13 71.5 -45t43.5 -74q11 -33 12 -68t-9 -71t-29.5 -66.5t-53 -55t-76.5 -36.5q-73 -20 -130 5z" />
    <glyph glyph-name="Q" unicode="Q" horiz-adv-x="468" 
d="M303 388l-13 147q-5 59 -6 69q-2 29 -3 45v16q-44 17 -88 -15q-48 -34 -76 -104q-30 -69 -20.5 -130.5t55.5 -84.5q69 -34 121 18q17 16 30 39zM324 702q6 -2 11 -6q8 -6 15 -17q8 -12 18 -36q17 -43 21 -64q2 -13 3 -50t0 -50q-5 -53 -28 -103q8 -106 12 -149
q1 -8 6 -55l1 -6l26 22q9 8 21.5 7t20.5 -10.5t7 -22t-11 -20.5q-31 -26 -34 -28q-14 -11 -24 -18q-7 -4 -13 -6q-12 -6 -23 -3q-11 2 -18 11q-2 3 -3 6l-2 4v4l-2 4q0 4 -1 12q-2 14 -5 37q-5 48 -6 56l-6 79q-37 -34 -82 -41t-102 18q-52 26 -74 78.5t-18 106.5
q5 54 27 107q36 85 97 130q74 53 150 19q12 -5 16 -16z" />
    <glyph glyph-name="R" unicode="R" horiz-adv-x="322" 
d="M137 528q3 -60 6.5 -220.5t9.5 -247.5q1 -12 -7.5 -21.5t-20.5 -10.5t-21.5 7.5t-10.5 20.5q-6 90 -10 281t-12 291q-1 12 7 21.5t20.5 10.5t22 -7t10.5 -21l2 -32q32 20 65.5 27t81.5 10q13 1 22 -7.5t10 -21t-7.5 -21.5t-20.5 -10q-53 -3 -83 -11.5t-58 -33.5
q-2 -3 -6 -4z" />
    <glyph glyph-name="S" unicode="S" horiz-adv-x="385" 
d="M319 580q-9 16 -28.5 39t-41.5 39q-47 36 -72 19q-19 -12 -23 -59q-3 -29 2 -87q4 -48 27.5 -93.5t67.5 -109.5q2 -3 7 -9q30 -42 45 -66t32 -64.5t20 -75.5q4 -55 -25 -87q-26 -28 -71 -30q-34 -2 -72.5 11.5t-65.5 34.5q-10 8 -11.5 20t6 22t19.5 11.5t22 -5.5
q20 -15 48 -25t51 -9q21 1 30 11q11 12 9 42q-2 28 -17 61.5t-30 55.5l-46 68q-34 49 -48 72q-17 27 -36 72t-22 89q-5 65 -2 97q7 74 49 103q61 41 142 -21q29 -22 51 -48q23 -27 35 -50q6 -11 2.5 -23t-14.5 -17.5t-23 -2t-17 14.5z" />
    <glyph glyph-name="T" unicode="T" horiz-adv-x="243" 
d="M144 725q11 -46 16 -96.5t7.5 -120.5t4.5 -93q6 -90 12 -157l11 3q12 3 23 -3t14 -18t-3 -23t-18 -14l-21 -6q6 -67 15 -128q1 -12 -6.5 -22t-19.5 -11.5t-22 6t-12 19.5q-7 57 -14 120q-20 -5 -36 -8q-12 -3 -22.5 4t-13 19t4.5 22.5t19 12.5q19 4 42 11q-6 72 -13 169
q-2 28 -4.5 96t-7 114.5t-14.5 89.5q-3 12 3.5 22.5t18.5 13.5t22.5 -3.5t13.5 -18.5z" />
    <glyph glyph-name="U" unicode="U" horiz-adv-x="409" 
d="M94 624q-8 -186 7 -287q13 -91 41 -132q27 -40 71 -29q57 15 86 101q12 37 21 90v1q2 79 5 129q3 29 6 48q3 25 9 36q2 4 4 7q8 10 20 12q22 3 32 -17q2 -4 3 -10t0 -17q0 -4 -1 -14t-1 -14q-1 -37 -8 -96q-7 -51 -9 -70q-2 -72 -2 -213q0 -12 -9 -21t-21 -9t-21 9t-9 21
v15v18q-36 -50 -91 -64q-84 -22 -135 54q-36 53 -51 156q-15 105 -7 298q1 13 10 21t21.5 7.5t20.5 -9.5t8 -21z" />
    <glyph glyph-name="V" unicode="V" horiz-adv-x="416" 
d="M120 529q5 -15 39.5 -111.5t50.5 -148.5l15 -52q1 -2 3 -5q2 -6 8 -22q10 37 13 49q47 187 99 311q5 11 16.5 15.5t23 0t16 -16t0.5 -23.5q-52 -121 -97 -301l-20 -79l-12 -44l-4 -15q-1 -3 -2 -5q0 -1 -1 -3q0 -1 -1 -2l-2 -4q-4 -6 -10 -9q-13 -7 -21.5 -4t-14 7.5
t-5.5 5.5q-3 4 -5 10q-3 6 -6 18q-11 34 -14 44l-15 40l-2 3q0 1 -1 2l-1 2v2q-1 1 -1 2v2l-1 2l-16 51q-19 60 -50 147l-38 111q-4 12 1.5 23t17 15t22.5 -1.5t15 -16.5z" />
    <glyph glyph-name="W" unicode="W" horiz-adv-x="635" 
d="M100 574q14 -70 45 -170l26 -80l29 -91l6 -22l4 59q10 189 13 213l8 61q3 22 6 36q1 8 2 13q1 4 2 6.5t2 4.5q5 9 13 14q27 13 52 -9q13 -11 26 -35q19 -34 46 -106l42 -122q31 -90 46 -127l5 -12q1 2 7.5 29.5t7.5 32t8 29.5l8 32q2 7 8.5 28.5t9.5 31.5l10 30
q6 18 11 31l11 29l14 30q5 11 16.5 15t23 -1t15.5 -16.5t-1 -23.5q-13 -28 -24.5 -57.5t-22.5 -68.5l-17 -59q-5 -19 -18 -71t-16 -63q0 -2 -1 -7q0 -11 -1 -15q-4 -35 -33 -42q-17 -4 -31 9q-4 4 -8 10q-6 8 -13 23q-12 23 -25 54q-15 37 -46 128.5t-43 121.5
q-19 53 -33 82q-4 -28 -7 -54q-3 -22 -14 -208l-7 -126l-2 -41q0 -8 -1 -12v-3v-2v-1q0 -1 -1 -2v-3q-2 -5 -5 -10q-10 -12 -25 -13q-13 -1 -24 8q-8 6 -15 19q-9 16 -20 47l-27 87q-9 32 -28 91l-26 80q-32 103 -46 176q-3 12 4 22.5t19 13t22.5 -4.5t12.5 -19z" />
    <glyph glyph-name="X" unicode="X" horiz-adv-x="361" 
d="M175 362q-38 89 -76 166q-5 11 -1.5 22.5t15 17t23 2t17.5 -15.5q28 -56 57 -121l43 81q6 11 17.5 14.5t22.5 -2.5t14.5 -17.5t-2.5 -22.5l-64 -126q65 -157 109 -299q3 -12 -2.5 -23t-17.5 -14.5t-23 2t-15 17.5q-35 115 -86 243q-33 -74 -61 -147q-4 -11 -15.5 -16
t-23 -1t-16.5 15.5t-1 23.5q39 100 86 201z" />
    <glyph glyph-name="Y" unicode="Y" horiz-adv-x="363" 
d="M89 697q2 -90 25 -134q27 -54 93 -47q39 4 70 40v1q1 2 2 5t2 5q5 11 11 17q9 9 21 10q13 1 23.5 -7t14.5 -24q2 -8 2 -19q2 -17 0 -42q0 -11 -5 -65q-24 -257 -54 -423q-3 -13 -13 -20t-22.5 -4.5t-19.5 12.5t-5 22q32 174 54 419q0 1 1 8.5t2 17.5t1 19
q-36 -28 -79 -32q-107 -11 -153 79q-28 57 -31 160q0 13 8.5 22t21 9t21.5 -8.5t9 -20.5z" />
    <glyph glyph-name="Z" unicode="Z" horiz-adv-x="347" 
d="M58 582q83 4 109 4q40 0 65 -4q41 -7 55 -25q9 -11 10 -27q1 -11 0 -25q-2 -23 -11 -61q-12 -50 -43 -159q-41 -145 -44 -156q-8 -30 -11 -48q15 -1 41 0q20 0 48 0.5t30 0.5q12 0 21 -9t9 -21t-9 -21t-21 -9q-2 0 -30 -0.5t-48 -0.5q-30 -1 -48 0q-12 1 -19 2q-5 1 -9 2
q-11 3 -17 10q-9 11 -9 29q-1 9 1 22q3 22 13 58q6 24 44 157q31 108 42 157q8 34 10 53q1 4 1 8q-6 2 -15 3q-21 4 -57 4q-24 0 -106 -4q-12 -1 -21 7.5t-10 21t7.5 21.5t21.5 10z" />
    <glyph glyph-name="bracketleft" unicode="[" horiz-adv-x="290" 
d="M212 632q-2 0 -17 -4l-15 -5q-13 -5 -17 -10q-6 -8 -9 -20q-6 -28 5 -83q2 -10 6 -28.5t5 -20.5q6 -30 8 -48q2 -25 3.5 -53t2.5 -64t2 -54v-32q-1 -26 0 -42q1 -22 4 -35q1 -1 1 -2q7 0 19 1q4 0 38 2q13 1 22 -7.5t10 -21t-7.5 -21.5t-20.5 -10q-34 -2 -39 -2
q-15 -1 -24 -1h-11q-9 1 -15 4q-22 10 -31 43q-5 19 -6 48q-1 18 0 45v29q-1 18 -2 52.5t-2 62t-4 52.5q-1 15 -7 42q0 1 -4.5 20.5t-6.5 29.5q-13 67 -4 106q5 27 21 46q14 17 42 28q8 3 20 6q14 4 15 5q12 3 23 -2.5t14.5 -17.5t-2 -23t-17.5 -15z" />
    <glyph glyph-name="backslash" unicode="\" horiz-adv-x="418" 
d="M177 630q36 -47 66 -98.5t54 -113.5t39 -105.5t37.5 -119t33.5 -107.5q3 -12 -2.5 -23t-17.5 -14.5t-23 2t-15 17.5q-11 34 -33.5 109.5t-36.5 116.5t-37 100t-50.5 107t-62.5 91q-7 10 -5.5 22.5t11 20t22 6t20.5 -10.5z" />
    <glyph glyph-name="bracketright" unicode="]" horiz-adv-x="288" 
d="M142 634q42 1 43 1h24h9h4h3q2 -1 4 -1q6 -2 11 -7q13 -11 18 -33q3 -13 4 -32q1 -12 0.5 -19t-0.5 -17v-11q0 -203 8 -303v-3l1 -8q2 -13 4 -24q2 -16 3 -27v-11q0 -9 -1 -14q-9 -36 -32 -50q-8 -4 -22 -8l-19 -5q-11 -4 -22.5 1.5t-15 17t2 23t17.5 14.5q5 2 21 7
q6 1 8 2q1 3 3 10v8q-1 9 -3 24q-1 11 -3 24l-1 8l-1 2v1v2q-8 103 -8 309q0 2 0.5 10.5t0.5 15t-1 18.5q0 9 -1 16h-15l-42 -1q-13 0 -22 8.5t-9 21t8.5 21.5t20.5 9z" />
    <glyph glyph-name="asciicircum" unicode="^" horiz-adv-x="504" 
d="M251 341q6 65 43 202v2v4v9q2 31 24 43q33 17 70 -16q21 -18 45 -55q16 -24 36 -59l9 -15q4 -9 7 -14t4 -8q7 -11 4 -23t-13.5 -18.5t-22.5 -3.5t-18 13q-2 3 -5 8l-8 16q-6 9 -9 15q-19 34 -34 56q-17 25 -30 38q0 -5 -1 -8q-36 -131 -41 -192q-1 -12 -10.5 -20t-22 -7
t-20.5 10.5t-7 22.5z" />
    <glyph glyph-name="underscore" unicode="_" horiz-adv-x="582" 
d="M249 107q160 22 293 22q12 0 21 -9t9 -21t-9 -21t-21 -9q-129 0 -285 -22q-12 -1 -22 6.5t-11.5 19.5t6 22t19.5 12z" />
    <glyph glyph-name="grave" unicode="`" horiz-adv-x="402" 
d="M251 816l65 -56l67 -59q9 -9 9 -21t-8.5 -21.5t-20.5 -9.5t-22 8q-22 21 -66 59l-64 56q-9 8 -9.5 20.5t7.5 21.5t20.5 9.5t21.5 -7.5z" />
    <glyph glyph-name="a" unicode="a" horiz-adv-x="352" 
d="M275 134l1 2q0 1 0.5 5.5t1.5 10.5q2 20 3 53q1 13 1 28q-44 -9 -71 -29q-17 -12 -21 -24q-3 -13 8 -31q10 -15 43 -20q26 -5 34 5zM100 688q30 38 68 50q37 12 72 -5q31 -14 53 -45.5t31 -70.5q12 -49 17 -257q2 -92 0 -157q-1 -37 -3 -58q-4 -30 -12 -42
q-27 -44 -95 -34q-59 10 -83 48q-26 40 -15 79q9 32 43 56q43 32 106 41q0 28 -1 65q-6 205 -15 245q-7 28 -21 48t-30 28q-33 15 -69 -29q-7 -9 -19.5 -10.5t-22 6t-11 20t6.5 22.5z" />
    <glyph glyph-name="b" unicode="b" horiz-adv-x="454" 
d="M139 691q17 -175 23 -289q10 -187 10 -195v-19q0 -15 0.5 -21t1 -18t1.5 -18.5t2.5 -15t4.5 -15.5t7 -12q12 -18 36 -24q47 -10 81 23t56 96q8 25 16 79t6 103q-2 56 -18 79q-11 17 -38 8q-48 -17 -90 -94q-6 -11 -17.5 -14.5t-22.5 2.5t-14.5 17.5t2.5 22.5
q53 98 122 122q71 25 108 -31q25 -37 28 -110q2 -53 -7 -113t-19 -89q-10 -33 -26 -61.5t-40.5 -56.5t-61 -39.5t-79.5 -1.5q-47 10 -72 48q-7 12 -12.5 25.5t-8 27t-4.5 27.5t-2 26v26v21q0 6 -10 191q-6 113 -23 287q-1 12 7 22t20 11t22 -7t11 -20z" />
    <glyph glyph-name="c" unicode="c" horiz-adv-x="321" 
d="M272 73q-83 27 -143.5 97.5t-82.5 157.5q-22 91 7 175t114 134q11 6 23 3t18 -14t3 -23t-14 -18q-66 -38 -89 -103q-22 -65 -3 -140q19 -74 68 -132q50 -58 117 -79q12 -4 17.5 -15t2 -23t-14.5 -17.5t-23 -2.5z" />
    <glyph glyph-name="d" unicode="d" 
d="M302 351q-4 68 -7 127q-23 2 -37 2t-33 -5q-54 -14 -93 -46q-18 -16 -21 -28q-2 -11 14 -25q7 -7 29 -12q23 -6 58 -9t90 -4zM347 790q0 -186 30 -666l3 -48q1 -12 -7.5 -21.5t-20.5 -10.5t-21.5 7.5t-10.5 20.5l-14 219q-65 1 -99 4q-40 3 -67 10q-38 10 -57 27
q-39 37 -31 80q7 33 42 63q49 41 117 58q33 9 82 6q-6 135 -6 251q0 12 9 21t21 9t21 -9t9 -21z" />
    <glyph glyph-name="e" unicode="e" horiz-adv-x="302" 
d="M229 591q-4 10 -13 20q-12 14 -25.5 22.5t-19.5 8.5q-5 0 -9 -7q-6 -10 -10 -30l34 -6q25 -5 43 -8zM86 556l-25 5q-12 2 -19 12.5t-4.5 22.5t13 19t22.5 4l20 -3q6 31 18 51q22 35 60 35q23 0 47.5 -15.5t43.5 -36.5q8 -10 15 -21.5t12 -26.5t3.5 -31t-11.5 -30
q-7 -9 -18 -12q-3 -1 -5 -1h-5h-7q-6 1 -17 3t-54 9l-29 5q-1 -9 -1 -23v-18q-5 -142 6 -234q17 -140 68 -204q7 -10 5.5 -22.5t-11 -20t-22 -6t-20.5 10.5q-62 80 -80 235q-11 94 -6 243v19q0 18 1 31z" />
    <glyph glyph-name="f" unicode="f" horiz-adv-x="409" 
d="M129 23q-14 95 -21 148t-14.5 146.5t-5.5 165.5l-6 -1q-12 -3 -22.5 4t-13 19t4.5 22.5t19 12.5l21 4q4 54 14 98q15 70 38 104q36 53 103 61q18 2 41 0q29 -3 44 -12q6 -3 17 -12l16 -16l27 -27q9 -9 9 -21t-9 -21t-21 -9t-21 9l-27 26l-15 14l-4 5q-5 2 -22 4
q-16 2 -27 0q-41 -5 -61 -35q-17 -24 -30 -82q-7 -35 -11 -76q14 2 29 3q13 1 22.5 -7t10.5 -20.5t-7 -22t-20 -10.5l-39 -4q-2 -70 5 -161.5t14.5 -148t21.5 -152.5q1 -12 -6 -22t-19.5 -11.5t-22.5 5.5t-12 20z" />
    <glyph glyph-name="g" unicode="g" horiz-adv-x="391" 
d="M329 735h4q20 0 28 -18q4 -7 5 -18v-14l1 -9q2 -42 -6 -90q1 -8 1 -14q2 -35 7 -106.5t8 -118.5t4.5 -119t-5.5 -108q-7 -51 -37 -85t-72 -37q-44 -3 -78 31t-47 94q-3 13 3.5 23.5t19 13t23 -4t12.5 -18.5q10 -45 28.5 -62.5t34.5 -16.5q17 1 33 18.5t20 51.5
q6 42 5.5 102.5t-3 100t-8.5 116.5q-27 -42 -61 -68q-43 -33 -88 -35q-53 -1 -100 41q-44 39 -38 106q5 52 40 113q30 54 74.5 98.5t84.5 58.5q20 7 50 2q2 -1 36 -9q16 -4 21 -19zM294 696q-32 8 -33 8q-14 2 -19 1q-27 -10 -64 -47t-63 -84q-28 -49 -32 -88q-3 -37 18 -57
q29 -25 58 -25q26 1 54 22q27 21 48 55.5t30 67.5q5 20 9 39l-2 9q-4 27 -5 39q-5 36 2 60h-1z" />
    <glyph glyph-name="h" unicode="h" horiz-adv-x="475" 
d="M89 676q1 -56 6 -115.5t15 -142.5t13 -115l1 -13q9 20 18 33q21 34 54 57.5t71 31.5q41 8 80 -5.5t67 -50.5q51 -67 51 -201q0 -12 -9 -21t-21 -9t-21 9t-9 21q0 114 -39 165q-34 44 -87 33q-25 -5 -48.5 -21.5t-38.5 -40.5q-10 -17 -22 -48.5t-15 -51.5q-1 -5 2 -43
q4 -44 -17 -68q-13 -15 -30 -13q-21 2 -29 24q-3 10 -2 31q0 8 0.5 20.5t0.5 16.5t-1 12q-12 91 -16 126q-3 31 -12.5 116t-15 145.5t-6.5 115.5q0 13 8.5 22t21 9t21.5 -8.5t9 -20.5z" />
    <glyph glyph-name="i" unicode="i" horiz-adv-x="175" 
d="M147 548q1 -44 9.5 -214t8.5 -262q0 -12 -9 -21t-21 -9t-21 9t-9 21q0 92 -8.5 260.5t-9.5 213.5q0 12 8.5 21.5t20.5 9.5t21.5 -8.5t9.5 -20.5zM137 635q0 -12 -9 -21t-21 -9t-21 9t-9 21t9 21t21 9t21 -9t9 -21z" />
    <glyph glyph-name="j" unicode="j" horiz-adv-x="294" 
d="M244 594q4 -40 14 -110l15 -116q6 -45 10.5 -117t-2.5 -116q-7 -66 -45 -101q-25 -21 -55.5 -22t-63.5 21q-11 8 -20 17.5t-17 22.5l-12 20q-4 7 -12 23l-8 17q-5 11 -1.5 22.5t15 17t23 2t17.5 -15.5l10 -19q7 -15 10 -20l8 -14q5 -9 10 -14t11 -9q28 -19 45 -4
q21 19 25 62q7 41 2.5 109.5t-10 111t-15.5 112.5t-14 114q-1 12 7 22t20 11t22 -7t11 -20z" />
    <glyph glyph-name="k" unicode="k" 
d="M173 250q81 -32 195 -115q10 -7 12 -19.5t-5.5 -22.5t-20 -12t-22.5 6q-100 73 -169 102q15 -131 20 -190q1 -12 -7.5 -21.5t-20.5 -10.5t-21.5 7.5t-10.5 20.5q-3 52 -20 194q-11 6 -14 18t3 23l1 2q-1 7 1 13l2 4q-3 26 -5 53q-5 63 -10 178q-5 113 -10 175
q-1 12 7 21.5t20.5 10.5t22 -7t10.5 -21q4 -57 9 -167t9 -163l160 279q6 10 18 13.5t22.5 -2.5t14 -18t-2.5 -23z" />
    <glyph glyph-name="l" unicode="l" horiz-adv-x="200" 
d="M162 700q0 -114 13 -322.5t15 -286.5q0 -13 -8.5 -22t-21 -9t-21.5 8.5t-9 20.5q-2 78 -15 287.5t-13 323.5q0 12 9 21t21 9t21 -9t9 -21z" />
    <glyph glyph-name="m" unicode="m" horiz-adv-x="619" 
d="M284 528q-10 41 -26 59q-24 28 -64.5 24t-65.5 -37q-7 -8 -18 -10q13 -95 30 -269t25 -239q1 -13 -6.5 -22.5t-20 -11t-22 6t-11.5 19.5q-5 42 -26 256t-41 327q-2 12 5.5 22t19.5 12.5t22 -5t13 -19.5l1 -10q28 25 64 35.5t74.5 1t66.5 -40.5q5 -7 10 -15q26 50 59 64
q19 9 54 9t54 -9q61 -28 93 -115q25 -67 32 -169q10 -137 -9 -309q-2 -13 -11.5 -20.5t-22 -6t-20 11t-6.5 21.5q19 168 9 299q-7 93 -29 152q-23 64 -62 82q-6 3 -28 3t-30 -3q-14 -7 -30 -39q-13 -25 -21 -56q4 -21 7 -50q4 -34 4 -65v-22q0 -4 -0.5 -7.5t-1.5 -6.5
q-1 -4 -4 -8q-11 -16 -30 -13q-24 5 -37 29q-8 15 -10 39q-4 39 7 92q1 6 3 13z" />
    <glyph glyph-name="n" unicode="n" horiz-adv-x="549" 
d="M102 326q-1 34 -3.5 102t-5 121.5t-6.5 102.5q-1 12 7 21.5t20.5 10.5t22 -7t10.5 -21q3 -40 5 -76q21 44 52 73q32 32 77 45.5t89 1.5q48 -13 83 -51t52.5 -82.5t26.5 -98.5q11 -80 6.5 -154.5t-20.5 -128.5q-4 -12 -15 -17.5t-23 -2t-17.5 14.5t-2.5 23q14 47 18.5 114
t-6.5 141q-25 159 -118 184q-27 7 -56.5 -1.5t-51.5 -29.5q-78 -77 -84 -285q3 -44 5 -80q2 -27 2 -34v-1q1 -8 3 -31q0 -2 2 -8q5 -15 5 -16q5 -15 3 -26q-3 -25 -28 -32q-19 -5 -33 10q-5 6 -8 14t-5 22q-3 21 -4 55q-2 37 -2 86v41z" />
    <glyph glyph-name="o" unicode="o" horiz-adv-x="419" 
d="M155 622q-20 -86 -31 -177q-19 -158 5 -229q10 -28 29.5 -54.5t42.5 -40.5q48 -31 90 10q37 37 51.5 117t-0.5 166q-16 90 -59 143.5t-105 53.5q-14 0 -23 11zM167 669q5 2 11 2q48 0 87.5 -21t66 -57t43.5 -78.5t26 -89.5q18 -89 0 -188t-68 -148q-26 -26 -56 -35.5
t-56.5 -4.5t-51.5 21q-33 21 -58.5 55.5t-37.5 72.5q-29 84 -9 254q16 134 49 247q4 11 15 17t22.5 2.5t17.5 -14.5t3 -23z" />
    <glyph glyph-name="p" unicode="p" horiz-adv-x="460" 
d="M135 610q10 -94 15 -234q1 -1 2 -1q49 -34 115 -16q39 11 67.5 35.5t40.5 55t15.5 65t-8.5 64.5q-21 64 -75 80q-66 20 -156 -44q-7 -5 -16 -5zM153 306q6 -200 14 -290q1 -13 -7 -22.5t-20.5 -10.5t-22 7t-10.5 20q-7 84 -16 335q-7 209 -25 328q-1 12 6 22t19.5 11.5
t22.5 -5.5t12 -20l1 -9q108 71 197 45q42 -13 71.5 -45t43.5 -74q11 -33 12 -68t-9 -71t-29.5 -66.5t-53 -55t-76.5 -36.5q-73 -20 -130 5z" />
    <glyph glyph-name="q" unicode="q" horiz-adv-x="468" 
d="M303 388l-13 147q-5 59 -6 69q-2 29 -3 45v16q-44 17 -88 -15q-48 -34 -76 -104q-30 -69 -20.5 -130.5t55.5 -84.5q69 -34 121 18q17 16 30 39zM324 702q6 -2 11 -6q8 -6 15 -17q8 -12 18 -36q17 -43 21 -64q2 -13 3 -50t0 -50q-5 -53 -28 -103q8 -106 12 -149
q1 -8 6 -55l1 -6l26 22q9 8 21.5 7t20.5 -10.5t7 -22t-11 -20.5q-31 -26 -34 -28q-14 -11 -24 -18q-7 -4 -13 -6q-12 -6 -23 -3q-11 2 -18 11q-2 3 -3 6l-2 4v4l-2 4q0 4 -1 12q-2 14 -5 37q-5 48 -6 56l-6 79q-37 -34 -82 -41t-102 18q-52 26 -74 78.5t-18 106.5
q5 54 27 107q36 85 97 130q74 53 150 19q12 -5 16 -16z" />
    <glyph glyph-name="r" unicode="r" horiz-adv-x="322" 
d="M137 528q3 -60 6.5 -220.5t9.5 -247.5q1 -12 -7.5 -21.5t-20.5 -10.5t-21.5 7.5t-10.5 20.5q-6 90 -10 281t-12 291q-1 12 7 21.5t20.5 10.5t22 -7t10.5 -21l2 -32q32 20 65.5 27t81.5 10q13 1 22 -7.5t10 -21t-7.5 -21.5t-20.5 -10q-53 -3 -83 -11.5t-58 -33.5
q-2 -3 -6 -4z" />
    <glyph glyph-name="s" unicode="s" horiz-adv-x="385" 
d="M319 580q-9 16 -28.5 39t-41.5 39q-47 36 -72 19q-19 -12 -23 -59q-3 -29 2 -87q4 -48 27.5 -93.5t67.5 -109.5q2 -3 7 -9q30 -42 45 -66t32 -64.5t20 -75.5q4 -55 -25 -87q-26 -28 -71 -30q-34 -2 -72.5 11.5t-65.5 34.5q-10 8 -11.5 20t6 22t19.5 11.5t22 -5.5
q20 -15 48 -25t51 -9q21 1 30 11q11 12 9 42q-2 28 -17 61.5t-30 55.5l-46 68q-34 49 -48 72q-17 27 -36 72t-22 89q-5 65 -2 97q7 74 49 103q61 41 142 -21q29 -22 51 -48q23 -27 35 -50q6 -11 2.5 -23t-14.5 -17.5t-23 -2t-17 14.5z" />
    <glyph glyph-name="t" unicode="t" horiz-adv-x="243" 
d="M144 725q11 -46 16 -96.5t7.5 -120.5t4.5 -93q6 -90 12 -157l11 3q12 3 23 -3t14 -18t-3 -23t-18 -14l-21 -6q6 -67 15 -128q1 -12 -6.5 -22t-19.5 -11.5t-22 6t-12 19.5q-7 57 -14 120q-20 -5 -36 -8q-12 -3 -22.5 4t-13 19t4.5 22.5t19 12.5q19 4 42 11q-6 72 -13 169
q-2 28 -4.5 96t-7 114.5t-14.5 89.5q-3 12 3.5 22.5t18.5 13.5t22.5 -3.5t13.5 -18.5z" />
    <glyph glyph-name="u" unicode="u" horiz-adv-x="409" 
d="M94 624q-8 -186 7 -287q13 -91 41 -132q27 -40 71 -29q57 15 86 101q12 37 21 90v1q2 79 5 129q3 29 6 48q3 25 9 36q2 4 4 7q8 10 20 12q22 3 32 -17q2 -4 3 -10t0 -17q0 -4 -1 -14t-1 -14q-1 -37 -8 -96q-7 -51 -9 -70q-2 -72 -2 -213q0 -12 -9 -21t-21 -9t-21 9t-9 21
v15v18q-36 -50 -91 -64q-84 -22 -135 54q-36 53 -51 156q-15 105 -7 298q1 13 10 21t21.5 7.5t20.5 -9.5t8 -21z" />
    <glyph glyph-name="v" unicode="v" horiz-adv-x="416" 
d="M120 529q5 -15 39.5 -111.5t50.5 -148.5l15 -52q1 -2 3 -5q2 -6 8 -22q10 37 13 49q47 187 99 311q5 11 16.5 15.5t23 0t16 -16t0.5 -23.5q-52 -121 -97 -301l-20 -79l-12 -44l-4 -15q-1 -3 -2 -5q0 -1 -1 -3q0 -1 -1 -2l-2 -4q-4 -6 -10 -9q-13 -7 -21.5 -4t-14 7.5
t-5.5 5.5q-3 4 -5 10q-3 6 -6 18q-11 34 -14 44l-15 40l-2 3q0 1 -1 2l-1 2v2q-1 1 -1 2v2l-1 2l-16 51q-19 60 -50 147l-38 111q-4 12 1.5 23t17 15t22.5 -1.5t15 -16.5z" />
    <glyph glyph-name="w" unicode="w" horiz-adv-x="635" 
d="M100 574q14 -70 45 -170l26 -80l29 -91l6 -22l4 59q10 189 13 213l8 61q3 22 6 36q1 8 2 13q1 4 2 6.5t2 4.5q5 9 13 14q27 13 52 -9q13 -11 26 -35q19 -34 46 -106l42 -122q31 -90 46 -127l5 -12q1 2 7.5 29.5t7.5 32t8 29.5l8 32q2 7 8.5 28.5t9.5 31.5l10 30
q6 18 11 31l11 29l14 30q5 11 16.5 15t23 -1t15.5 -16.5t-1 -23.5q-13 -28 -24.5 -57.5t-22.5 -68.5l-17 -59q-5 -19 -18 -71t-16 -63q0 -2 -1 -7q0 -11 -1 -15q-4 -35 -33 -42q-17 -4 -31 9q-4 4 -8 10q-6 8 -13 23q-12 23 -25 54q-15 37 -46 128.5t-43 121.5
q-19 53 -33 82q-4 -28 -7 -54q-3 -22 -14 -208l-7 -126l-2 -41q0 -8 -1 -12v-3v-2v-1q0 -1 -1 -2v-3q-2 -5 -5 -10q-10 -12 -25 -13q-13 -1 -24 8q-8 6 -15 19q-9 16 -20 47l-27 87q-9 32 -28 91l-26 80q-32 103 -46 176q-3 12 4 22.5t19 13t22.5 -4.5t12.5 -19z" />
    <glyph glyph-name="x" unicode="x" horiz-adv-x="361" 
d="M175 362q-38 89 -76 166q-5 11 -1.5 22.5t15 17t23 2t17.5 -15.5q28 -56 57 -121l43 81q6 11 17.5 14.5t22.5 -2.5t14.5 -17.5t-2.5 -22.5l-64 -126q65 -157 109 -299q3 -12 -2.5 -23t-17.5 -14.5t-23 2t-15 17.5q-35 115 -86 243q-33 -74 -61 -147q-4 -11 -15.5 -16
t-23 -1t-16.5 15.5t-1 23.5q39 100 86 201z" />
    <glyph glyph-name="y" unicode="y" horiz-adv-x="363" 
d="M89 697q2 -90 25 -134q27 -54 93 -47q39 4 70 40v1q1 2 2 5t2 5q5 11 11 17q9 9 21 10q13 1 23.5 -7t14.5 -24q2 -8 2 -19q2 -17 0 -42q0 -11 -5 -65q-24 -257 -54 -423q-3 -13 -13 -20t-22.5 -4.5t-19.5 12.5t-5 22q32 174 54 419q0 1 1 8.5t2 17.5t1 19
q-36 -28 -79 -32q-107 -11 -153 79q-28 57 -31 160q0 13 8.5 22t21 9t21.5 -8.5t9 -20.5z" />
    <glyph glyph-name="z" unicode="z" horiz-adv-x="347" 
d="M58 582q83 4 109 4q40 0 65 -4q41 -7 55 -25q9 -11 10 -27q1 -11 0 -25q-2 -23 -11 -61q-12 -50 -43 -159q-41 -145 -44 -156q-8 -30 -11 -48q15 -1 41 0q20 0 48 0.5t30 0.5q12 0 21 -9t9 -21t-9 -21t-21 -9q-2 0 -30 -0.5t-48 -0.5q-30 -1 -48 0q-12 1 -19 2q-5 1 -9 2
q-11 3 -17 10q-9 11 -9 29q-1 9 1 22q3 22 13 58q6 24 44 157q31 108 42 157q8 34 10 53q1 4 1 8q-6 2 -15 3q-21 4 -57 4q-24 0 -106 -4q-12 -1 -21 7.5t-10 21t7.5 21.5t21.5 10z" />
    <glyph glyph-name="braceleft" unicode="{" horiz-adv-x="341" 
d="M293 623q-6 2 -14 5q-1 0 -5 1.5t-6 2.5q-9 3 -13 3q-62 -3 -98 -55.5t-12 -103.5q2 -5 18 -24l36 -43q24 -28 35 -43q8 -11 13 -20q8 -16 5 -30q-2 -14 -15 -24q-6 -6 -17 -12q-4 -3 -37 -17q-45 -20 -51 -31q-9 -18 13 -46q7 -9 29 -32q21 -22 30 -35q3 -5 9 -16t9 -16
l10 -15q4 -2 14 -3q24 -5 25 -5q12 -3 18.5 -13.5t3.5 -22.5t-13.5 -18.5t-22.5 -3.5q-3 1 -6.5 1.5t-8 1t-7.5 0.5q-19 4 -31 11q-17 9 -34 37l-10 17q-4 9 -6 11q-6 9 -24 28q-25 26 -33 36q-46 59 -17 111q15 29 78 57q25 12 28 13l-1 1q-9 13 -31 40l-37 43
q-21 25 -26 36q-21 44 -14 87t31 77.5t63 56.5t82 24q15 1 35 -6l12 -5l9 -3q12 -3 18 -14t3 -23t-14 -18t-23 -3z" />
    <glyph glyph-name="bar" unicode="|" horiz-adv-x="215" 
d="M194 555q6 -71 9 -147q3 -81 3 -131t-0.5 -152.5t-0.5 -136.5q0 -12 -9 -21t-21 -9t-21 9t-9 21q0 36 0.5 135.5t0.5 150t-3 130t-9 145.5q-1 13 7 22.5t20.5 10.5t22 -7t10.5 -20z" />
    <glyph glyph-name="braceright" unicode="}" horiz-adv-x="392" 
d="M165 649q2 0 14.5 2t16.5 3t15 2.5t17 1t14.5 -1t14.5 -2.5q46 -15 58 -88q6 -40 -27 -141l-20 -61q-3 -10 -4 -16q4 -3 17 -4q1 -1 7.5 -1.5t10.5 -1t11.5 -2t13 -3.5t12 -5.5t12.5 -7.5q44 -38 32 -128q-9 -70 -38 -115q-18 -29 -37 -42q-4 -3 -41 -21
q-11 -5 -22.5 -1.5t-17 15t-2 23t15.5 17.5q32 16 33 17q9 6 21 24q21 34 28 90q8 58 -12 75q-4 4 -33 7q-51 5 -68 41q-6 12 -3 31q2 10 6 25q1 5 21 63q29 86 24 112q-5 37 -16 40q-9 3 -64 -7q-12 -2 -22 5.5t-12.5 19.5t5 22t19.5 13z" />
    <glyph glyph-name="asciitilde" unicode="~" horiz-adv-x="565" 
d="M122 355l5 10q4 8 7 12.5t9 12.5t12 13.5t15 11t19 8.5q36 10 95 -20q6 -3 44 -25q26 -14 43 -22q44 -19 69 -11q33 10 57 68q5 12 16.5 16.5t23 0t16 -16t0.5 -22.5q-35 -85 -95 -104q-47 -14 -111 14q-19 9 -48 25q-37 21 -42 23q-38 20 -50 16q-4 -1 -7 -2.5t-4.5 -3
t-4.5 -5.5t-4.5 -6.5t-5.5 -10t-7 -12.5q-6 -11 -18 -14t-23 3t-14 18t3 23z" />
    <glyph glyph-name="quoteleft" unicode="&#x2018;" horiz-adv-x="258" 
d="M187 717q-1 -63 10 -110t43 -82q9 -9 8 -21.5t-10 -21t-21.5 -7.5t-20.5 10q-42 46 -56.5 104.5t-12.5 129.5q0 12 9 20.5t21.5 8.5t21 -9t8.5 -22z" />
    <glyph glyph-name="quoteright" unicode="&#x2019;" horiz-adv-x="239" 
d="M216 750q21 -68 9 -122q-11 -48 -56 -108q-7 -10 -19.5 -12t-22.5 5.5t-12 20t6 22.5q37 50 45 86q9 38 -8 90q-3 12 2.5 23t17.5 14.5t23 -2t15 -17.5z" />
    <glyph glyph-name="quotedblleft" unicode="&#x201c;" horiz-adv-x="279" 
d="M181 758q-20 -119 23 -184q7 -11 4.5 -23t-13 -19t-22.5 -4.5t-19 12.5q-56 85 -33 228q2 12 12.5 19.5t22.5 5.5t19.5 -12.5t5.5 -22.5zM245 749q0 -45 4 -72.5t18 -63.5q4 -12 -1 -23.5t-16.5 -15.5t-23 1t-15.5 16q-16 42 -21 75t-5 83q0 12 9 21t21 9t21 -9t9 -21z
" />
    <glyph glyph-name="quotedblright" unicode="&#x201d;" horiz-adv-x="340" 
d="M208 760q11 -37 15.5 -65t1.5 -63q-3 -34 -16 -69q-4 -11 -15.5 -16t-23 -1t-16.5 15.5t-1 23.5q14 45 13 77t-16 82q-3 12 3 22.5t18 14t22.5 -2.5t14.5 -18zM322 775q15 -76 1 -165q-2 -12 -12 -19.5t-22.5 -5.5t-20 12t-5.5 23q13 78 1 143q-3 13 4 23t19.5 12.5
t22.5 -4.5t12 -19z" />
    <glyph glyph-name="uni3000" unicode="&#x3000;" horiz-adv-x="1000" 
 />
  </font>
</defs>
</svg>
