<?xml version="1.0" standalone="no"?>
<!DOCTYPE svg PUBLIC "-//W3C//DTD SVG 1.1//EN" "http://www.w3.org/Graphics/SVG/1.1/DTD/svg11.dtd" >
<svg xmlns="http://www.w3.org/2000/svg" xmlns:xlink="http://www.w3.org/1999/xlink" version="1.1">
<metadata>
Created by FontForge 20170731 at Sun Jun 11 07:09:00 2017
 By Aleksey,,,
</metadata>
<defs>
<font id="ChlakhDemo" horiz-adv-x="420" >
  <font-face 
    font-family="Chlakh Demo"
    font-weight="400"
    font-stretch="normal"
    units-per-em="1000"
    panose-1="0 0 0 0 0 0 0 0 0 0"
    ascent="750"
    descent="-250"
    x-height="534.5"
    cap-height="539"
    bbox="-0.5 -60 746.333 600"
    underline-thickness="50"
    underline-position="-150"
    unicode-range="U+000D-007A"
  />
<missing-glyph horiz-adv-x="297" 
 />
    <glyph glyph-name=".notdef" horiz-adv-x="297" 
 />
    <glyph glyph-name=".null" horiz-adv-x="0" 
 />
    <glyph glyph-name="nonmarkingreturn" unicode="&#xd;" horiz-adv-x="297" 
 />
    <glyph glyph-name="NULL" horiz-adv-x="0" 
 />
    <glyph glyph-name="NULL" horiz-adv-x="0" 
 />
    <glyph glyph-name="space" unicode=" " horiz-adv-x="297" 
 />
    <glyph glyph-name="at" unicode="@" horiz-adv-x="601" 
d="M137 206q-2 45 11.5 86.5t33.5 80.5q7 14 17 22t24 14q30 13 60.5 17.5t62.5 -2.5q15 -3 19.5 -8.5t2.5 -19.5q-2 -20 -4.5 -40t-4.5 -40q-4 -31 3 -60t13 -58q3 -16 16 -19.5t28 4.5q13 8 18.5 19.5t7.5 24.5q16 88 -14 176q-7 19 -20 35t-30 22q-18 6 -32 10t-28.5 5.5
t-31 1.5t-38.5 -2q-73 -14 -106.5 -41.5t-45.5 -73.5q-5 -20 -7.5 -37.5t-3.5 -35.5t-2 -36.5t-4 -38.5q1 -38 14 -72.5t33 -57.5q6 -8 24 -18.5t28 -14.5q30 -11 60.5 -14t63.5 -2q23 0 40 4t31 7.5t28 6t31 -0.5q17 -2 26 -10t9 -28q0 -21 -18 -24.5t-45 -9.5
q-21 -5 -37.5 -8.5t-32 -5.5t-31.5 -2.5t-34 -0.5q-21 0 -41 -1.5t-39 0t-37 7.5t-34 19q-18 14 -36.5 27t-33.5 30q-26 30 -35 68q-6 24 -8 49.5t-4 50.5q-2 17 -3.5 33.5t0.5 33.5q3 26 8 51t10 51q2 6 5 11.5t6 10.5q4 9 7 19l6 20t8 18t14 14q38 25 77.5 47t88.5 24
q20 1 40 3l40 4q4 0 14.5 -2t22 -4t22 -4.5t14.5 -3.5l38.5 -14t29.5 -14t25 -21.5t25 -35.5q5 -9 10.5 -18.5t7.5 -19.5q4 -22 8.5 -44.5t7 -45t1.5 -45t-7 -45.5q-4 -14 -7 -28.5t-8 -28.5q-6 -20 -21.5 -37t-35 -30t-41.5 -19t-42 -3q-7 1 -14.5 4t-12.5 8
q-14 17 -25.5 35.5t-14.5 41.5q-4 23 -10.5 27.5t-29.5 0.5q-5 -1 -10.5 -2t-10.5 -2q-18 -2 -26.5 -12.5t-11.5 -27.5q-1 -5 -1 -10t-2 -10q-3 -17 -9 -24t-17 -8q-12 0 -25 9.5t-15 20.5t-2 21t-1 21v25zM300 367q-20 -3 -35.5 -9.5t-25.5 -23.5q-6 -11 -10 -22.5t3 -23.5
q6 -11 16.5 -10.5t21.5 0.5h14q22 2 21 22q-1 17 -2.5 33.5t-2.5 33.5z" />
    <glyph glyph-name="A" unicode="A" horiz-adv-x="524" 
d="M459 57q7 -24 -14 -37q-9 -7 -20.5 -9.5t-22.5 2.5q-12 5 -21 13.5t-14 21.5q-5 6 -9.5 12t-9.5 12q-8 13 -12 25q-8 18 -23.5 24t-32.5 4q-16 -2 -31 0t-30 5q-17 3 -33 0.5t-31 -7.5q-7 -2 -13.5 -8t-10.5 -12l-18 -34t-15 -34q-7 -19 -20 -26.5t-29 -10.5
q-10 -2 -20 4t-17 15.5t-10 21t1 21.5q17 42 32.5 83.5t32.5 83.5q11 26 21.5 51t21.5 51q10 26 18.5 51t18.5 51q7 18 13.5 36.5t15.5 35.5q5 10 15 17.5t22 11.5t24.5 4t23.5 -4q14 -6 22 -18t14 -25q12 -26 23 -52l22 -52q3 -8 5.5 -16t4.5 -16q2 -5 3 -9t3 -8
q14 -26 23 -52.5t18 -52.5q7 -20 16 -38.5t16 -38.5q8 -24 14.5 -48.5t12.5 -48.5zM256 232q17 -2 23.5 3.5t8.5 22.5q-2 7 -3 13.5t-4 12.5q-5 14 -10 26t-11 25q-4 8 -8 15.5t-15 7.5q-11 -1 -15.5 -8t-7.5 -15q-8 -18 -15 -36t-14 -37q-10 -28 21 -28q13 0 25.5 -0.5
t24.5 -1.5z" />
    <glyph glyph-name="B" unicode="B" horiz-adv-x="440" 
d="M372 208q2 -15 3.5 -26.5t1 -22t-4 -21.5t-10.5 -26q-15 -30 -32 -50t-37.5 -33t-46 -19t-57.5 -7q-37 -2 -65 -2t-65 1q-19 0 -30 9t-16.5 22t-7 27.5t-1.5 25.5q1 33 1.5 57.5t1 48t1 48t0.5 57.5q1 37 -1 73.5t-4 72.5q0 4 -2 18.5t-1 30t7 27.5t22 11q31 1 53.5 1.5
t42 0.5t38.5 -2t43 -6q35 -6 60 -20.5t39 -35.5t17.5 -46.5t-4.5 -52.5q-8 -24 -22 -37.5t-36 -21.5q7 -5 24 -8.5t24 -8.5q32 -17 46.5 -38t17.5 -47zM114 424q-8 0 -8.5 -6.5t-0.5 -22.5v-40q0 -9 7.5 -15t16.5 -4q5 1 15 1q14 -1 22 0t20 9q11 8 16 11.5t7 11.5t2 14
t-5 14q-8 18 -27 25q-8 3 -26 3h-2q-11 1 -21.5 0.5t-15.5 -1.5zM245 148q2 11 2.5 18.5t-5.5 17.5q-11 21 -37 31q-7 2 -20 3t-26.5 1t-25.5 -1t-17 -1q-11 -1 -11.5 -8.5t-0.5 -27.5q0 -11 -0.5 -24.5t-0.5 -24.5t9.5 -19t22.5 -6q5 0 10.5 0.5t10.5 0.5q20 -1 30 0.5
t27 10.5q16 10 23 14.5t9 14.5z" />
    <glyph glyph-name="C" unicode="C" horiz-adv-x="499" 
d="M411 166q9 -4 15 -11.5t8.5 -16.5t1 -18.5t-6.5 -16.5q-3 -5 -5.5 -9.5t-5.5 -9.5t-5.5 -10t-7.5 -8q-26 -17 -53 -34.5t-59 -25.5q-11 -3 -21.5 -2.5t-21.5 -0.5q-41 -2 -77.5 8t-68.5 33q-44 32 -67 81q-5 11 -10.5 22.5t-10.5 23.5q-11 35 -14 70.5t-2 72.5
q1 20 6 39.5t13 36.5q17 39 47.5 68.5t73.5 46.5q16 6 31.5 13.5t32.5 10.5q14 3 30 1.5t31 -2.5q5 0 8.5 -2t8.5 -2q26 0 47 -11t40 -26q11 -8 21 -16.5t19 -17.5q18 -17 18 -32t-8 -29q-9 -16 -26.5 -22.5t-35.5 0.5q-4 2 -6.5 3t-4.5 2q-5 5 -11.5 10t-12.5 10
q-11 9 -23.5 15.5t-29.5 6.5q-2 0 -5 1t-5 1q-10 1 -19 2t-18 -1q-10 -2 -19.5 -6t-19.5 -8q-52 -21 -73 -67q-5 -11 -8 -22t-3 -23q-1 -22 0.5 -43t8.5 -41q2 -7 6 -13.5t7 -13.5q13 -28 40 -47q38 -27 88 -25q7 1 13.5 0.5t13.5 1.5q20 5 35.5 15t32.5 21q2 2 4 4.5t4 5.5
t7 8t17 5q14 1 19 -0.5t16 -5.5z" />
    <glyph glyph-name="D" unicode="D" horiz-adv-x="484" 
d="M420 317q2 -11 -0.5 -22t-2.5 -22q-2 -41 -11.5 -79.5t-31.5 -73.5q-18 -28 -39 -53.5t-53 -41.5q-30 -15 -61.5 -20.5t-65.5 -3.5q-19 2 -37.5 1.5t-37.5 -0.5q-3 0 -6 -1t-6 0q-15 1 -27 3t-20.5 7.5t-13.5 16t-6 28.5q-1 17 0 33t1 32q2 30 3 60t1 59q1 22 0 44t-1 44
q0 1 -0.5 9t-0.5 18.5t-0.5 20.5t-0.5 16q-3 42 -3 69t4.5 42t13.5 21t24 8q10 1 25.5 1t31.5 -0.5t29 -1t18 -0.5q21 -2 42.5 -3t43.5 -2q13 0 39 -11.5t53.5 -32t51 -48.5t33.5 -62q2 -10 4 -15q2 -14 4 -21q1 -5 1.5 -9.5t1.5 -9.5zM306 215q9 30 8.5 61t-10.5 60
q-16 45 -51.5 70t-84.5 25q-4 0 -8 -0.5t-9 -0.5q-24 -2 -34.5 -14.5t-9.5 -37.5q2 -22 2 -41.5t-1 -36.5q0 -16 -1 -31.5t-2 -32.5q-1 -8 -1.5 -16.5t-0.5 -17.5h-1l1 -1v-14q-2 -9 0 -20q0 -23 14 -35.5t38 -12.5q2 0 5 -0.5t6 -0.5q5 -1 15 -1h9q12 2 20 6t13 6
q1 0 1 0.5t1 0.5q26 12 41.5 29.5t29.5 37.5q3 5 5.5 9t4.5 9z" />
    <glyph glyph-name="E" unicode="E" 
d="M306 90q20 -1 33 -14.5t12 -30.5q-1 -18 -15 -31.5t-34 -14.5h-23h-31.5h-31.5h-23q-37 -1 -73.5 -1.5t-73.5 -0.5q-40 -2 -42 38q-1 4 -1 8v9q-2 6 -3 12t0 12q2 14 2.5 27.5t1.5 27.5q2 54 3 107t3 107q3 60 3 120q1 3 0.5 5.5t-0.5 5.5q0 8 -2 16t2 13q8 8 17 15.5
t20 9.5q18 4 36.5 4.5t36.5 2.5v-2q41 -2 81 -3t81 -3q65 -2 71 -69q1 -11 -3.5 -20.5t-13 -16.5t-19 -10t-21.5 -1q-31 8 -61.5 8.5t-61.5 -4.5q-6 -1 -11.5 0t-11.5 1q-16 0 -26 -9t-11 -24q-2 -12 -1.5 -23.5t-0.5 -22.5q-1 -16 13 -22q7 -2 13.5 -4t13.5 -3q23 -1 46 -1
t46 -1q5 0 8.5 0.5t8.5 -0.5q45 -4 47 -48q0 -20 -14 -37t-33 -19q-21 -1 -42 0t-43 2l-18 2t-19 1q-14 -1 -19.5 -5.5t-7.5 -18.5q-2 -17 -2 -33v-33q2 -15 12.5 -20t27.5 -5h35t42.5 -0.5t42 -1t34.5 -1.5z" />
    <glyph glyph-name="F" unicode="F" 
d="M123 531q41 -2 81 -3t81 -3q65 -2 71 -68q1 -11 -3.5 -21t-13 -16.5t-19 -10t-21.5 -0.5q-31 7 -61.5 7.5t-61.5 -4.5q-6 -1 -11.5 0t-11.5 1q-16 0 -26 -8.5t-11 -24.5q-2 -11 -1.5 -23t-0.5 -23q-1 -16 14 -22q6 -2 12.5 -4t13.5 -3q23 -1 46 -1t46 -1q5 0 8.5 0.5
t8.5 -0.5q45 -4 47 -48q0 -20 -14 -37t-33 -19q-21 -1 -42 0t-43 3q-9 0 -18 1t-19 1q-14 0 -19.5 -5t-7.5 -19q-2 -18 -2 -35.5v-35.5q0 -14 1.5 -29t2.5 -29q1 -20 -14 -35t-35 -15q-6 0 -12.5 -0.5t-12.5 1.5q-9 2 -17 9.5t-14 17.5t-9 21.5t-2 21.5q2 14 2.5 27.5
t1.5 27.5q2 54 3 107t3 107q3 60 3 120q1 3 0.5 6t-0.5 5q0 8 -2 16t2 13q8 8 17 15.5t20 9.5q18 4 36.5 4.5t36.5 2.5v-2z" />
    <glyph glyph-name="G" unicode="G" horiz-adv-x="540" 
d="M466 254q6 -5 8.5 -16t1.5 -20q-1 -17 -4.5 -34t-8.5 -34q-3 -8 -5.5 -16t-7.5 -16q-2 -4 -9.5 -14.5t-11.5 -15.5q-4 -6 -12 -12t-14 -10q-11 -8 -19 -13.5t-15.5 -10t-15.5 -9t-19 -11.5q-19 -11 -40.5 -15t-42.5 -3q-27 2 -54 6t-53 18q-69 37 -108 109
q-20 35 -27.5 72t-8.5 75q-1 21 5 42.5t10 42.5q0 3 2 7q16 20 31.5 41.5t32.5 40.5q16 17 36 27t41 18q5 2 10.5 4t10.5 6q25 21 58 16q21 -4 42 -4.5t41 -10.5q4 -2 8.5 -2t7.5 -2q22 -18 47 -33t40 -41q3 -5 8 -8l5 -5q8 -12 9 -22.5t-1 -20.5q-2 -5 -2.5 -7t-2.5 -4
q-5 -6 -10 -13.5t-11 -9.5q-12 -3 -25.5 -4.5t-24.5 2.5q-9 4 -19 12q-5 8 -15.5 19.5t-27 21t-39 13.5t-52.5 -3q-29 -8 -48 -20.5t-31 -27.5t-18.5 -30.5t-9.5 -29.5q-7 -28 -2 -51.5t16 -49.5q6 -13 16.5 -26.5t25 -24.5t32.5 -18t39 -7q28 0 47 4t31.5 9t20 11t12.5 9
q10 6 16 14t4 16q-1 4 -8.5 5t-17 1.5t-18.5 0t-13 0.5q-8 2 -13.5 8t-13.5 18q-2 5 -3 8.5t-2 5.5q1 2 1 2.5t1 2.5q0 1 2 7q0 1 0.5 1.5t0.5 2.5q2 2 2.5 4.5t2.5 4.5q8 8 28 13q17 5 53.5 2.5t76.5 -2.5q5 -3 10.5 -7.5t10.5 -8.5z" />
    <glyph glyph-name="H" unicode="H" horiz-adv-x="488" 
d="M421 182q-1 -30 0.5 -60t2.5 -59q2 -25 -9 -42q-8 -11 -18 -17.5t-24 -4.5q-8 2 -17 3t-17 3q-10 2 -17 12q-11 17 -17 37t-4 42q2 14 3 27.5t2 27.5q1 17 -6 24.5t-21 13.5q-22 3 -44 5.5t-45 4.5q-11 1 -21 1.5t-21 0.5q-10 -1 -15.5 -6.5t-8.5 -13.5t-3.5 -17
t-0.5 -16q1 -21 2 -42.5t2 -42.5q1 -11 -1 -21.5t-9 -20.5q-8 -11 -17.5 -17.5t-23.5 -4.5q-9 2 -18 3t-17 3q-10 2 -17 12q-11 17 -16.5 37t-3.5 42q8 81 7.5 162t0.5 162q0 17 1 33t3 33q3 25 15 36t37 13q20 1 34.5 -11t20.5 -34q2 -8 3 -16.5t1 -16.5q0 -13 0.5 -29.5
t0.5 -32.5v-37v-11q-1 -12 2.5 -24t16.5 -12q15 -1 29.5 -1h28.5q20 -1 38.5 -1.5t38.5 -2.5q12 -1 21 2.5t9 25.5v43t1 43q0 17 0.5 33t2.5 33q4 25 16 36t37 13q20 1 34.5 -11t19.5 -34q5 -18 5 -33v-99q-1 -45 -2.5 -88.5t-1.5 -87.5z" />
    <glyph glyph-name="I" unicode="I" horiz-adv-x="250" 
d="M151 181q-1 -31 0.5 -61t2.5 -60q2 -25 -9 -42q-8 -12 -17.5 -18.5t-23.5 -4.5q-9 2 -17.5 3t-16.5 3q-5 2 -9.5 4.5t-7.5 7.5q-11 18 -16.5 38t-3.5 42q8 83 7.5 164.5t0.5 164.5q0 34 3 67q4 26 16 37t36 13q20 1 34.5 -11t19.5 -35q2 -8 3 -16.5t2 -16.5v-101
q-1 -45 -2.5 -89t-1.5 -89z" />
    <glyph glyph-name="J" unicode="J" horiz-adv-x="416" 
d="M351 429q0 -58 0.5 -115.5t-1.5 -115.5q-2 -36 -10.5 -70t-27.5 -65q-28 -45 -77 -66q-16 -7 -33 -4.5t-34 1.5q-32 -1 -58 14.5t-51 33.5q-14 9 -27 15q-11 6 -19 13.5t-8 21.5q0 10 -3 19q-5 23 3 40.5t29 27.5q7 3 16 3t18.5 -3t18 -8.5t14.5 -12.5q25 -30 63 -38
q30 -5 52 14.5t22 49.5q-1 32 -0.5 63t1.5 63q1 22 2 43l2 42q0 23 -13 41.5t-37 21.5q-35 4 -32 46q1 15 11 26t27 11q20 0 41 -2t41 -4q6 0 12.5 -1t12.5 0q23 3 35 -8t11 -34q0 -16 -1 -31.5t-2 -31.5h2z" />
    <glyph glyph-name="K" unicode="K" horiz-adv-x="478" 
d="M404 72q14 -23 9.5 -39.5t-27.5 -31.5q-21 -14 -46 -9q-18 5 -33 17q-7 6 -13.5 12t-11.5 13q-17 21 -32.5 42.5t-31.5 42.5q-1 0 -1 -1l-24 34l-24 34l-1 1q-8 8 -13 11.5t-10 7.5q-1 1 -2 1h-5q0 -1 -0.5 -1.5t-0.5 -1.5l-1 -1q-4 -9 -5 -17l-6 -72q1 -14 1.5 -29
t1.5 -29q0 -11 -1.5 -21.5t-8.5 -20.5q-8 -12 -18.5 -18.5t-24.5 -4.5q-3 1 -6 1t-6 1q-5 0 -9.5 0.5t-9.5 1.5q-2 1 -2.5 1t-2.5 1q-1 0 -5 2q-2 0 -3 1q-6 3 -9 8q-11 17 -16.5 34t-5.5 37q0 7 1 11q5 55 6.5 109.5t1.5 109.5v53v63q1 17 1.5 33.5t2.5 33.5q4 26 16 37.5
t37 13.5h1q28 1 46 -21l3 -6q8 -11 10.5 -24.5t4.5 -26.5v-19q0 -8 -1 -16t-1 -16v-17q0 -4 1 -6t4 -4t6 0l1 1q6 5 11.5 11t11.5 12q20 21 41.5 39.5t40.5 40.5q20 23 47 38q31 20 58 9q5 -2 9.5 -4.5t9.5 -6.5q17 -12 20.5 -31t-9.5 -39q-5 -8 -10.5 -12.5t-11.5 -11.5
l-16 -16t-14 -13t-14 -12.5t-17 -15.5l-27 -27q-10 -9 -18 -17.5t-18 -17.5q-11 -11 -2 -24q17 -25 37.5 -47t39.5 -47q13 -17 28 -33t27 -33q11 -14 21 -28.5t18 -29.5z" />
    <glyph glyph-name="L" unicode="L" horiz-adv-x="429" 
d="M326 120q20 -3 31 -15.5t8 -32.5q-3 -23 -12 -44q-11 -25 -39 -25q-21 0 -42 1t-42 1q-25 1 -49 0.5t-49 -1.5q-23 -1 -39 -2.5t-39 -3.5q-14 -1 -24.5 7t-15.5 22q-3 8 -5.5 16t-2.5 16q-2 20 -1.5 41t-0.5 42q0 26 1.5 52t-1.5 52q-5 48 -2.5 96t-0.5 96q-1 8 -1 12.5
v9t0.5 9t0.5 12.5q0 2 1 11.5t2 11.5q6 11 15.5 22t24.5 9h21q14 -3 21 -7t17 -14q12 -12 15 -27.5t2 -36.5v-13v-7.5v-7.5v-13q1 -24 3 -47.5t1 -46.5q0 -38 -1.5 -76t-2.5 -76q0 -8 0.5 -15t1.5 -18h46q11 0 23 1t23 0l46 -4l46 -4q5 -1 10 -1.5t10 -1.5z" />
    <glyph glyph-name="M" unicode="M" horiz-adv-x="573" 
d="M241 368q11 -7 22 1q10 7 18.5 15t16.5 14q27 20 49 44t37 53q18 36 58 34q24 -1 40.5 -6.5t25.5 -28.5q0 -7 0.5 -13.5t1 -16t0 -23t-1.5 -35.5q-5 -35 -4.5 -69.5t2.5 -69.5q2 -38 1 -76.5t0 -76.5q0 -12 0.5 -33.5t1.5 -33.5q2 -21 -14 -36.5t-38 -14.5q-12 1 -16 3.5
t-15 5.5q-16 4 -28.5 21.5t-12.5 34.5q1 28 1.5 64.5t0.5 63.5v19.5t-1 25.5q0 7 -7 9t-12 -3q-15 -18 -29 -30q-7 -6 -13.5 -15t-14.5 -14q-21 -15 -34.5 -21.5t-25.5 -4.5t-25.5 13.5t-34.5 34.5q-8 8 -17 20t-20 22q-8 8 -19 4t-12 -15q-2 -34 -1.5 -67.5t1.5 -64.5
q1 -17 -1.5 -40.5t-13.5 -39.5q-12 -17 -28.5 -21.5t-37.5 0.5q-20 5 -28.5 14.5t-8.5 29.5q1 36 1 69.5t3 69.5q3 29 2.5 56.5t-2 55.5t-3.5 59t-3 68q-4 18 -1.5 36.5t1.5 37.5q-1 16 8 26t26 10h27h18t15.5 -2t14 -7.5t14.5 -17.5q20 -30 43 -57.5t46 -54.5q6 -7 13 -14
t14 -12z" />
    <glyph glyph-name="N" unicode="N" horiz-adv-x="498" 
d="M145 194q-3 4 -11.5 1t-9.5 -8q-1 -7 -2.5 -14.5t-2.5 -14.5q1 -33 0 -60t-3 -58q-2 -27 -10.5 -37.5t-38.5 -10.5q-34 -1 -48 12t-17.5 34t-0.5 46.5t3 49.5q0 35 0.5 61.5t0.5 51.5t0.5 51t2.5 61q1 17 0.5 32.5t-1.5 31.5q-1 8 -2.5 26.5t0.5 26.5q2 14 5 27.5
t21 19.5q20 7 33.5 8t33.5 -12q3 -2 5.5 -4.5l4.5 -4.5q14 -20 31.5 -44.5t31.5 -50.5q12 -32 34.5 -58.5t42.5 -55.5q7 -10 15 -17q8 -6 17.5 -7.5t17 0.5t13 5.5t5.5 7.5q1 8 0.5 14.5t-1 13.5t-0.5 15.5t2 20.5q1 37 -0.5 74.5t4.5 79.5q2 20 19 28t40 5q26 -3 40 -15.5
t14 -36.5q1 -54 0 -108t-2 -109v-29.5t-0.5 -55t-1 -62t-0.5 -50.5q-1 -41 -15.5 -59t-48.5 -18h-23t-21.5 3.5t-20.5 11t-19 21.5q-18 24 -43.5 53.5t-42.5 53.5q-12 17 -24.5 27.5t-26.5 25.5z" />
    <glyph glyph-name="O" unicode="O" horiz-adv-x="528" 
d="M460 296q9 -61 -0.5 -110.5t-32 -87t-56 -62t-72.5 -35.5q-31 -9 -73.5 -7.5t-83.5 15.5t-73.5 43t-44.5 74q-6 23 -9 37t-5 26t-3.5 26t-4.5 37q-5 35 1 74.5t18 70.5q1 3 9.5 14.5t19 24.5t20 23.5t12.5 11.5q21 18 34.5 30t36.5 20q10 10 32 14.5t47.5 4.5t49 -4
t36.5 -13q10 -7 17 -11.5t13 -9t12.5 -9.5t15.5 -13q20 -17 35 -35.5t25.5 -40.5t16 -48.5t7.5 -59.5zM364 268q0 38 -10 65.5t-27.5 45.5t-40.5 26t-49 8q-5 0 -20.5 -2t-20.5 -4q-19 -5 -35 -19t-27.5 -32.5t-18 -39.5t-6.5 -40q2 -41 13 -74.5t45 -59.5q10 -8 23.5 -16.5
t46.5 -8.5q23 0 45.5 9t40.5 27t29.5 46.5t11.5 68.5z" />
    <glyph glyph-name="P" unicode="P" horiz-adv-x="431" 
d="M277 218q-23 -16 -46 -22t-44 -8t-38.5 -2.5t-29.5 -5.5q-9 -4 -13.5 -12t-6 -18t-1 -20.5t1.5 -17.5q2 -18 3 -36t1 -37q0 -5 -1.5 -11t-4.5 -9q-11 -12 -24 -18.5t-30 -4.5q-24 2 -33.5 17.5t-10.5 40.5q0 8 1 16.5t1 16.5q0 30 0.5 53t0.5 43.5t0.5 40t2.5 41.5
q2 26 0 51t-3 50v46.5t-1 46.5q-1 22 2 50q3 21 30 26q29 5 58 2.5t58 -3.5q14 -1 28.5 -2t29.5 -3q35 -4 66.5 -16.5t51.5 -44.5q12 -19 21.5 -39t15 -40.5t4.5 -42.5t-10 -45q-4 -10 -10.5 -18t-13.5 -16q-14 -15 -28 -26t-28 -23zM106 334q1 -9 6 -17t13 -9
q19 -2 37.5 -2.5t37.5 2.5q11 2 21.5 8.5t16.5 15.5q8 11 6 25t-10 27q-14 22 -35 29t-46 6q-30 -1 -38 -9t-9 -38q-1 -3 -0.5 -6t0.5 -6q0 -7 -0.5 -13t0.5 -13z" />
    <glyph glyph-name="Q" unicode="Q" horiz-adv-x="528" 
d="M421 97q2 -2 6 -7t7.5 -11l7 -12t4.5 -10q5 -15 6.5 -31.5t-9.5 -25.5q-6 -5 -15.5 -10t-12.5 -6q-15 -1 -31 4t-24 13q-7 6 -13 12l-11 11q-9 -5 -18.5 -8.5t-18.5 -6.5q-31 -9 -73.5 -7t-83.5 16t-73.5 42.5t-44.5 73.5q-6 23 -9 37t-5 26.5t-3.5 26.5t-4.5 37
q-5 35 1 74t18 71q1 3 9.5 14.5t19 24.5t20 23.5t12.5 11.5q21 18 34.5 30t36.5 20q10 10 32 14.5t47.5 4.5t49 -4t36.5 -13q10 -7 17 -11.5t13 -9t12.5 -9.5t15.5 -13q20 -17 35 -35.5t25.5 -40.5t16 -48.5t7.5 -59.5q10 -66 -1.5 -118t-37.5 -90zM109 285q2 -41 13 -74.5
t45 -59.5q10 -8 23 -16t44 -9q-5 6 -10 11.5t-10 13.5q-8 12 -4 24.5t21 30.5q29 32 55 22q10 -4 16 -9q10 -9 19 -18l19 -19q24 38 24 94q0 38 -10 66t-27.5 46t-40.5 26t-49 8q-5 0 -20.5 -2t-20.5 -4q-19 -5 -35 -19t-27.5 -32.5t-18 -39.5t-6.5 -40z" />
    <glyph glyph-name="R" unicode="R" horiz-adv-x="431" 
d="M281 216q14 -9 25 -22t22 -30q20 -32 23 -59.5t3 -58.5q0 -9 -4.5 -17.5t-12 -15t-16.5 -10t-18 -2.5q-23 2 -35.5 8.5t-19.5 32.5q-8 32 -18 57.5t-36 45.5l-15 7.5t-16 6.5q-12 2 -22 2.5t-18 1.5q-6 1 -11 -3t-5 -10q-2 -14 -4 -25.5t0 -22.5q2 -18 2 -31t1 -31
q0 -5 -1.5 -11t-4.5 -10q-11 -12 -24.5 -18.5t-29.5 -4.5q-33 6 -40.5 19.5t-3.5 39.5q3 17 2 32q-7 45 -3 89t7 89q3 51 3 101q-1 23 -3.5 46.5t-3.5 46.5q-1 22 2 50q3 21 30 26q29 5 57.5 2.5t57.5 -3.5q15 -1 29.5 -2t28.5 -3q36 -4 67.5 -16.5t51.5 -44.5
q12 -19 21 -38t14 -39.5t4.5 -42.5t-8.5 -47q-4 -10 -10 -23t-13 -21q-14 -15 -24.5 -23.5t-30.5 -17.5zM107 360v-13t1 -12q0 -10 5 -18t14 -9q19 -2 37.5 -2.5t37.5 2.5q10 2 21 8.5t16 15.5q8 11 6.5 25t-9.5 27q-14 22 -35 29t-46 6q-30 -1 -38 -9t-9 -38q-1 -3 -0.5 -6
t-0.5 -6z" />
    <glyph glyph-name="S" unicode="S" horiz-adv-x="449" 
d="M337 283q32 -25 42 -62t5 -76q-2 -21 -9.5 -41.5t-22.5 -36.5q-11 -11 -21.5 -21t-24.5 -18q-14 -7 -28.5 -11t-28.5 -8q-16 -5 -31 -8t-32 -2t-33 3t-33 4q-18 2 -30 5t-22 7.5t-20 11.5t-22 19l-7 7q-5 6 -8.5 14t-2.5 17t6.5 18.5t19.5 17.5q15 9 36 6t35 -13
q7 -5 12.5 -9t14 -6.5t22.5 -3.5t40 1q25 1 44 14t20 35q1 20 -5 32t-22 23q-8 6 -15.5 10t-18.5 5q-5 0 -15 0.5t-21 1.5h-3q-2 0 -4.5 0.5t-4.5 0.5h-1h-2q-2 0 -3.5 0.5t-3.5 0.5q-25 3 -41.5 7.5t-27.5 9.5q-12 5 -21 12q-32 26 -42 62.5t-5 75.5q2 21 9.5 42t22.5 36
l21.5 21.5t24.5 17.5t28.5 11t28.5 9q16 5 31 8t31 2q17 -1 33.5 -3.5t33.5 -4.5q18 -2 30 -4.5t22 -7t20 -12t22 -19.5l7 -7q5 -6 8 -14t2.5 -17t-6.5 -18.5t-20 -17.5t-35 -5t-36 13q-8 5 -14.5 9t-16.5 6t-25.5 3t-41.5 0q-25 -2 -46.5 -15t-22.5 -35q-1 -20 5 -32
t22 -23q9 -6 21 -9.5t23 -4.5q4 0 12 -0.5t18 -1.5q48 0 80 -12t43 -20z" />
    <glyph glyph-name="T" unicode="T" horiz-adv-x="530" 
d="M466 471v-15q1 -20 -16 -34.5t-37 -14.5h-60q-10 0 -19.5 0.5t-19.5 0.5q-9 1 -15 -5t-6 -15v-29q-1 -45 -2.5 -89t-1.5 -89q-1 -17 -0.5 -35t1.5 -35q-1 -18 -1.5 -34.5t-2.5 -33.5q-4 -39 -30 -47q-4 -1 -14.5 -1.5t-21.5 0.5q-5 0 -13 3.5t-16 10.5q-8 6 -12 13.5
t-4 29.5q0 35 1 82.5t1.5 95.5t1 90.5t-0.5 66.5q-1 11 -9 19t-19 7q-24 -1 -43 0.5t-39 0.5q-5 0 -16.5 2.5t-22.5 8.5t-16.5 11t-8.5 11t-3.5 14.5t-0.5 21.5q0 11 7 20.5t15 16.5q9 9 29 14q25 5 45.5 4.5t50.5 -2.5q14 -2 29 -1.5t30 -0.5h6q12 0 24.5 -0.5t24.5 -0.5
q17 -1 32.5 -1.5t32.5 -0.5q8 -1 16.5 -0.5t16.5 0.5q10 0 16 0.5t11.5 0.5h10t11.5 -1q26 -4 41 -18t17 -42z" />
    <glyph glyph-name="U" unicode="U" horiz-adv-x="553" 
d="M489 422q-1 -14 -1 -24.5t0.5 -20.5l1 -20t0.5 -24v-18v-17v-8q0 -7 -0.5 -13t-0.5 -12v-3v-11q-1 -2 -1 -5q-2 -28 -6.5 -54.5t-17.5 -52.5q-14 -28 -30.5 -53t-38.5 -46q-18 -18 -44 -28q-76 -29 -154 -14q-51 10 -89 35.5t-67 70.5q-11 17 -17.5 35t-10 37t-5.5 37.5
t-5 37.5q-2 9 -2.5 21t-0.5 21v21q2 21 2.5 34.5t1.5 33.5q1 16 0 31.5t-1 32.5q1 11 1 21t2 21q2 10 9.5 19t17.5 15.5t22 9.5t23 1q5 -1 8.5 -2t7.5 -2q24 -6 29 -31q1 -5 1.5 -9.5t0.5 -9.5q2 -43 0 -85q-1 -14 -1 -28.5v-29.5q0 -23 1.5 -50.5t3.5 -51.5q5 -47 52 -75
q8 -4 11 -7q13 -8 26 -10t29 -2q5 0 7 1h9q9 1 18 -0.5t17 3.5q19 10 31.5 22.5t19.5 28t10 35t5 43.5q1 10 -0.5 19.5t-0.5 20.5v23v18q0 15 -0.5 29.5t-2.5 29.5q-2 14 -2 24v18t1 16t1 19q0 13 3.5 21t7.5 12.5t7.5 6.5l3.5 2q9 5 19.5 7t20.5 1q24 0 38 -3.5t22 -26.5
q6 -20 6 -36v-13t1 -13v-26z" />
    <glyph glyph-name="V" unicode="V" horiz-adv-x="527" 
d="M460 500q2 -7 3.5 -16.5t-0.5 -16.5l-1 -6q-3 -13 -7 -26t-14 -32q0 -1 -3 -10l-6.5 -19.5l-6.5 -19.5t-3 -10q-11 -42 -26.5 -82t-30.5 -80q-5 -11 -9 -21t-8 -21q-11 -28 -22.5 -50.5t-25.5 -42.5q-3 -5 -6 -10.5t-6 -11.5q-2 -4 -4 -7.5t-4 -6.5q-2 -4 -4.5 -7.5
t-6.5 -5.5q-16 -7 -31 -7q-12 0 -27 5t-27 15t-18 24q-4 8 -7 15t-7 14q-7 15 -14 30.5t-13 31.5q-3 6 -4.5 12.5t-3.5 12.5l-2 10t-3 10q-8 23 -20 57t-24.5 69t-23 65t-16.5 45q-2 7 -4.5 13.5t-4.5 12.5q-5 11 -9 22.5t-8 22.5q-6 22 5 40q14 20 40 22q13 2 26.5 0.5
t24.5 -14.5q5 -5 11.5 -17.5t11.5 -28.5q2 -5 3.5 -10.5t4.5 -11.5q1 -2 2 -5t2 -5l10 -25q6 -17 12.5 -33t12.5 -33l6 -15q1 -5 5 -15q2 -5 9 -23q8 -19 18 -44t14 -39q0 -2 1 -3q5 -12 7.5 -15.5t4.5 -3.5q5 -2 6.5 -1t4.5 6l1 3q2 5 4.5 10.5t4.5 10.5q3 8 6 15.5t6 15.5
q2 6 4.5 11.5t4.5 12.5q3 7 9 24t12.5 36.5t11.5 37t7 25.5q3 15 9 30t11 26q3 10 11 28l4 12t4 11q6 16 31 23q31 11 47.5 3t27.5 -39z" />
    <glyph glyph-name="W" unicode="W" horiz-adv-x="810" 
d="M742 499q3 -7 4 -16.5t-1 -15.5l-1 -7q-3 -13 -6.5 -26t-14.5 -31q0 -1 -3 -10t-6.5 -20t-6.5 -20t-3 -10q-11 -42 -26.5 -82t-30.5 -79q-5 -11 -8.5 -21.5t-8.5 -21.5q-21 -55 -47 -93q-4 -5 -6.5 -9.5t-5.5 -9.5q0 -1 -1 -2q-2 -4 -4 -7.5t-4 -7.5t-4.5 -7t-6.5 -5
q-13 -7 -30 -7q-7 0 -14 1t-13 4q-34 11 -46 39l-6 12l-7 16q-8 16 -15 31t-13 31q-5 11 -7 26q-1 3 -1.5 5.5t-1.5 5.5l-5.5 16.5l-4.5 13.5q0 1 -0.5 1.5t-0.5 2.5q-6 14 -10 17q-1 1 -2 1q-5 2 -6.5 1t-3.5 -6l-2 -3q-2 -5 -4.5 -10.5t-4.5 -10.5l-6 -16l-6 -16
q-2 -5 -4.5 -11t-4.5 -12q-2 -8 -8 -25.5t-13 -37.5q-2 -4 -4 -7.5t-4 -7.5q-1 -1 -1.5 -2t-1.5 -2q-3 -5 -6 -11t-6 -11q-2 -4 -4 -7.5t-4 -7.5q-2 -3 -4.5 -6.5t-6.5 -5.5q-16 -7 -31 -7q-12 0 -27 5q-26 10 -39 29q-4 4 -6 10q-4 8 -7 14.5t-7 14.5q-7 15 -14 30.5
t-13 30.5q-3 7 -4.5 13.5t-3.5 12.5l-2 10t-3 10q-8 23 -20 57t-24.5 69t-23 65t-16.5 45q-2 7 -4.5 13t-4.5 13q-5 11 -9 22t-8 23q-6 21 5 40q13 19 40 22q13 2 22 1.5t23 -10.5q11 -8 16 -21t13 -30q2 -5 3.5 -11t4.5 -11q1 -2 2 -5t2 -5l10 -25q6 -17 12.5 -33t12.5 -33
l6 -15q1 -5 5 -15q2 -4 4 -9.5t5 -13.5q8 -19 18 -44t14 -39q0 -2 1 -3q5 -15 10 -18l2 -2q5 -1 6.5 0t4.5 6l1 3q2 5 4.5 10.5t4.5 10.5q3 8 6 15.5t6 15.5q4 10 9 24q3 8 9.5 28t14.5 42q2 3 3.5 6t3.5 5q4 5 7 10t5 10q0 1 1 2q2 4 4 7.5t4 7.5q6 9 11 12q13 7 31 7
q15 0 27 -4q25 -9 39 -30q5 -5 6 -10q4 -8 6 -11l3 -9q2 -4 3 -8t3 -8t2.5 -7.5t2.5 -7.5q2 -3 4 -8.5t5 -13.5q5 -12 11 -26.5t11 -28.5q4 -8 6 -15.5t4 -12.5v-1q1 -2 1 -2.5t1 -2.5q4 -11 6.5 -14t4.5 -3q5 -1 6.5 -0.5t4.5 6.5l1 2q2 5 4.5 10.5t4.5 10.5q3 9 6 16t6 15
l9 24q3 7 9 24.5t12.5 37t11.5 37t7 25.5q3 14 9 29.5t11 26.5q2 5 5 12t6 15l9 24q4 14 30 23q31 10 47.5 2t27.5 -39z" />
    <glyph glyph-name="X" unicode="X" horiz-adv-x="551" 
d="M487 64q2 -10 -2 -21t-12.5 -20t-19 -15t-20.5 -5q-17 2 -28 13q-32 31 -64.5 67t-64.5 68q-6 6 -11.5 12t-11.5 13q-4 5 -9.5 5t-9.5 -4q-7 -6 -13 -13q-11 -11 -21 -21.5t-19 -21.5q-18 -20 -36 -40.5t-35 -40.5q-6 -7 -11.5 -13.5t-11.5 -12.5q-12 -12 -29 -15.5
t-30 3.5q-14 8 -20.5 24.5t-1.5 33.5q7 24 20 44t30 38q13 13 23.5 27t21.5 29q9 13 20 24.5t20 25.5q10 15 9 24.5t-12 23.5q-18 23 -36 45.5t-39 42.5q-30 29 -52 64q-11 16 -11 39t11 38q4 6 11 8q15 2 29.5 1.5t29.5 -8.5q37 -20 59 -57q13 -21 34 -44q5 -6 11 -12
l11 -11l5 -5q12 -11 24 -24.5t19 -12.5q1 0 7.5 8t7.5 8q12 11 17 18.5t14 18.5q5 5 11.5 13t11.5 13l17.5 17.5t11.5 12.5q3 8 9 12.5t11 12.5q5 7 5.5 9t6.5 8q2 2 5 6t6 6q5 2 6.5 3.5t2.5 2l3 1.5t8 3q21 7 36.5 -2t29.5 -23q8 -7 9 -17t-3 -20q-9 -20 -16.5 -34.5
t-23.5 -31.5q-12 -12 -24 -27.5t-23 -29.5q-1 0 -9.5 -11t-16.5 -19q-1 0 -3 -2q-5 -4 -9 -10v-1q-3 -4 -10.5 -11.5t-7.5 -17.5q0 -5 -0.5 -9t1.5 -9.5t7.5 -12.5t17.5 -19l13 -13t12.5 -13t15.5 -16.5t24 -24.5q6 -8 15 -17.5t16 -17.5q8 -10 18 -28t13 -32z" />
    <glyph glyph-name="Y" unicode="Y" horiz-adv-x="512" 
d="M159 58q2 39 2.5 71t2.5 71q0 11 -1.5 24.5t-0.5 39.5q0 5 -8 16t-18.5 22.5t-20 21.5t-11.5 13q-18 23 -39 47.5t-37 49.5q-7 11 -11 17l-7 10.5t-5 9.5t-4 13q-3 10 3.5 21.5t13.5 19.5q7 9 19 12q14 6 32.5 2t29.5 -15q7 -8 12.5 -13t11.5 -12t13.5 -17t19.5 -27
q6 -13 20 -29t22 -28q10 -13 20.5 -11.5t21.5 11.5q6 5 14 11.5t16 14t14.5 15t9.5 13.5q10 12 21 26t23 26t23.5 20.5t22.5 9.5q6 0 10.5 0.5t9 0t9.5 -3t13 -9.5q25 -23 23 -39.5t-23 -41.5q-7 -9 -16 -20t-19 -22.5t-19 -23t-16 -20.5q-5 -6 -8.5 -10t-6.5 -8t-6.5 -8
t-9.5 -11q-11 -14 -21.5 -22t-21.5 -19q-8 -10 -8 -22q0 -21 0.5 -48.5t0.5 -56v-54.5t-1 -44q-2 -17 -11.5 -30.5t-24 -21t-31 -8t-31.5 8.5q-11 8 -16 23q-2 8 -2 21t1 13z" />
    <glyph glyph-name="Z" unicode="Z" horiz-adv-x="529" 
d="M382 -7q-8 0 -14 3q-5 1 -9.5 -0.5t-9.5 0.5q-20 6 -40.5 4t-42.5 -2q-6 0 -11.5 2t-10.5 1q-2 0 -4 -2.5t-4 -2.5q-6 -1 -12.5 3t-13.5 2q-20 -5 -42.5 -2.5t-49.5 2.5q-18 0 -36 0.5t-36 1.5h-2q-21 1 -32 27q-7 16 -10 27t-1.5 20t8 18t17.5 21q6 7 12.5 13.5
l13.5 13.5q22 23 44 45t45 44l26 24t27 24q12 11 22 23.5t22 23.5q5 4 14.5 14.5t18.5 23t15.5 26t6.5 22.5q-1 10 -22.5 8.5t-53.5 0.5q-29 2 -57 1.5t-50 1.5h-5q-7 0 -10 -1h-10q-11 0 -17 0.5t-10 1.5t-7 3t-9 7q-7 5 -13 17t-4 31q1 3 1 8q0 4 0.5 9.5t2 11t5 10
t10.5 6.5l11 5q1 0 6.5 1t11.5 2t11 1.5t6 0.5q14 -1 23 -1t16.5 0.5t15.5 1t21 0.5h15h24t24 -2l21 -3q30 -3 61 -1.5t62 -0.5q20 -1 34.5 -1t24.5 -5.5t17.5 -18.5t13.5 -39q3 -10 2.5 -17.5t-3.5 -15.5t-9 -17t-15 -21q-10 -14 -25 -37.5t-29 -36.5q-5 -4 -11 -11.5
t-12 -15.5t-11.5 -15.5t-10.5 -12.5q-15 -15 -30 -30.5t-29 -30.5q-6 -7 -12.5 -13.5t-12.5 -13.5q-3 -4 -17 -19t-24 -29q-5 -6 -2 -13t11 -8l12 -2h19t12 1t10 1.5t14 0.5q5 0 9.5 0.5t8.5 0.5h11.5h20.5t20.5 -0.5t11.5 -0.5q19 2 38.5 -2.5t28.5 -18.5q11 -17 8.5 -32.5
t-11.5 -32.5q-8 -15 -23 -24.5t-31 -9.5z" />
    <glyph glyph-name="bracketleft" unicode="[" horiz-adv-x="372" 
d="M2 210q0 34 1.5 67t2.5 66q1 51 0.5 100t-0.5 100q0 52 49 52q39 0 78.5 4t79.5 -8q9 -2 19.5 -1.5t20.5 -0.5q23 -2 38 -16t17 -34q1 -26 -14 -42.5t-39 -18.5q-23 -2 -46 0t-46 0q-17 -2 -25.5 -9.5t-12.5 -23.5q-1 -6 -1.5 -19t-0.5 -18q-1 -81 -1.5 -161t-1.5 -161
q0 -19 8 -27t28 -10q19 -2 37 -2h37q38 0 53.5 -21.5t3.5 -56.5q1 -18 -25.5 -23.5t-67 -5.5t-88 3.5t-87.5 4.5q-9 4 -11 13q-3 17 -5 35t-3 35q0 3 0.5 24.5t0.5 49.5t0.5 57t0.5 48z" />
    <glyph glyph-name="bracketright" unicode="]" horiz-adv-x="371" 
d="M306 210q0 -19 0.5 -48t0.5 -57t0.5 -49.5t0.5 -24.5q-1 -17 -3.5 -35t-5.5 -35q-2 -9 -11 -13q-40 -1 -87 -4.5t-87.5 -3.5t-67.5 5.5t-25 23.5q-13 35 3 56.5t54 21.5h36.5t36.5 2q20 2 28.5 10t7.5 27q0 81 -1 161t-2 161v18t-2 19q-6 30 -37 33q-23 2 -46 0t-46 0
q-24 2 -39.5 18.5t-13.5 42.5q2 20 16.5 34t37.5 16q11 1 21 0.5t20 1.5q39 12 78.5 8t79.5 -4q26 0 37 -13t11 -39q1 -51 0.5 -100t0.5 -100q0 -33 2 -66t2 -67z" />
    <glyph glyph-name="a" unicode="a" horiz-adv-x="524" 
d="M459 57q7 -24 -14 -37q-9 -7 -20.5 -9.5t-22.5 2.5q-12 5 -21 13.5t-14 21.5q-5 6 -9.5 12t-9.5 12q-8 13 -12 25q-8 18 -23.5 24t-32.5 4q-16 -2 -31 0t-30 5q-17 3 -33 0.5t-31 -7.5q-7 -2 -13.5 -8t-10.5 -12l-18 -34t-15 -34q-7 -19 -20 -26.5t-29 -10.5
q-10 -2 -20 4t-17 15.5t-10 21t1 21.5q17 42 32.5 83.5t32.5 83.5q11 26 21.5 51t21.5 51q10 26 18.5 51t18.5 51q7 18 13.5 36.5t15.5 35.5q5 10 15 17.5t22 11.5t24.5 4t23.5 -4q14 -6 22 -18t14 -25q12 -26 23 -52l22 -52q3 -8 5.5 -16t4.5 -16q2 -5 3 -9t3 -8
q14 -26 23 -52.5t18 -52.5q7 -20 16 -38.5t16 -38.5q8 -24 14.5 -48.5t12.5 -48.5zM256 232q17 -2 23.5 3.5t8.5 22.5q-2 7 -3 13.5t-4 12.5q-5 14 -10 26t-11 25q-4 8 -8 15.5t-15 7.5q-11 -1 -15.5 -8t-7.5 -15q-8 -18 -15 -36t-14 -37q-10 -28 21 -28q13 0 25.5 -0.5
t24.5 -1.5z" />
    <glyph glyph-name="b" unicode="b" horiz-adv-x="440" 
d="M372 208q2 -15 3.5 -26.5t1 -22t-4 -21.5t-10.5 -26q-15 -30 -32 -50t-37.5 -33t-46 -19t-57.5 -7q-37 -2 -65 -2t-65 1q-19 0 -30 9t-16.5 22t-7 27.5t-1.5 25.5q1 33 1.5 57.5t1 48t1 48t0.5 57.5q1 37 -1 73.5t-4 72.5q0 4 -2 18.5t-1 30t7 27.5t22 11q31 1 53.5 1.5
t42 0.5t38.5 -2t43 -6q35 -6 60 -20.5t39 -35.5t17.5 -46.5t-4.5 -52.5q-8 -24 -22 -37.5t-36 -21.5q7 -5 24 -8.5t24 -8.5q32 -17 46.5 -38t17.5 -47zM114 424q-8 0 -8.5 -6.5t-0.5 -22.5v-40q0 -9 7.5 -15t16.5 -4q5 1 15 1q14 -1 22 0t20 9q11 8 16 11.5t7 11.5t2 14
t-5 14q-8 18 -27 25q-8 3 -26 3h-2q-11 1 -21.5 0.5t-15.5 -1.5zM245 148q2 11 2.5 18.5t-5.5 17.5q-11 21 -37 31q-7 2 -20 3t-26.5 1t-25.5 -1t-17 -1q-11 -1 -11.5 -8.5t-0.5 -27.5q0 -11 -0.5 -24.5t-0.5 -24.5t9.5 -19t22.5 -6q5 0 10.5 0.5t10.5 0.5q20 -1 30 0.5
t27 10.5q16 10 23 14.5t9 14.5z" />
    <glyph glyph-name="c" unicode="c" horiz-adv-x="499" 
d="M411 166q9 -4 15 -11.5t8.5 -16.5t1 -18.5t-6.5 -16.5q-3 -5 -5.5 -9.5t-5.5 -9.5t-5.5 -10t-7.5 -8q-26 -17 -53 -34.5t-59 -25.5q-11 -3 -21.5 -2.5t-21.5 -0.5q-41 -2 -77.5 8t-68.5 33q-44 32 -67 81q-5 11 -10.5 22.5t-10.5 23.5q-11 35 -14 70.5t-2 72.5
q1 20 6 39.5t13 36.5q17 39 47.5 68.5t73.5 46.5q16 6 31.5 13.5t32.5 10.5q14 3 30 1.5t31 -2.5q5 0 8.5 -2t8.5 -2q26 0 47 -11t40 -26q11 -8 21 -16.5t19 -17.5q18 -17 18 -32t-8 -29q-9 -16 -26.5 -22.5t-35.5 0.5q-4 2 -6.5 3t-4.5 2q-5 5 -11.5 10t-12.5 10
q-11 9 -23.5 15.5t-29.5 6.5q-2 0 -5 1t-5 1q-10 1 -19 2t-18 -1q-10 -2 -19.5 -6t-19.5 -8q-52 -21 -73 -67q-5 -11 -8 -22t-3 -23q-1 -22 0.5 -43t8.5 -41q2 -7 6 -13.5t7 -13.5q13 -28 40 -47q38 -27 88 -25q7 1 13.5 0.5t13.5 1.5q20 5 35.5 15t32.5 21q2 2 4 4.5t4 5.5
t7 8t17 5q14 1 19 -0.5t16 -5.5z" />
    <glyph glyph-name="d" unicode="d" horiz-adv-x="484" 
d="M420 317q2 -11 -0.5 -22t-2.5 -22q-2 -41 -11.5 -79.5t-31.5 -73.5q-18 -28 -39 -53.5t-53 -41.5q-30 -15 -61.5 -20.5t-65.5 -3.5q-19 2 -37.5 1.5t-37.5 -0.5q-3 0 -6 -1t-6 0q-15 1 -27 3t-20.5 7.5t-13.5 16t-6 28.5q-1 17 0 33t1 32q2 30 3 60t1 59q1 22 0 44t-1 44
q0 1 -0.5 9t-0.5 18.5t-0.5 20.5t-0.5 16q-3 42 -3 69t4.5 42t13.5 21t24 8q10 1 25.5 1t31.5 -0.5t29 -1t18 -0.5q21 -2 42.5 -3t43.5 -2q13 0 39 -11.5t53.5 -32t51 -48.5t33.5 -62q2 -10 4 -15q2 -14 4 -21q1 -5 1.5 -9.5t1.5 -9.5zM306 215q9 30 8.5 61t-10.5 60
q-16 45 -51.5 70t-84.5 25q-4 0 -8 -0.5t-9 -0.5q-24 -2 -34.5 -14.5t-9.5 -37.5q2 -22 2 -41.5t-1 -36.5q0 -16 -1 -31.5t-2 -32.5q-1 -8 -1.5 -16.5t-0.5 -17.5h-1l1 -1v-14q-2 -9 0 -20q0 -23 14 -35.5t38 -12.5q2 0 5 -0.5t6 -0.5q5 -1 15 -1h9q12 2 20 6t13 6
q1 0 1 0.5t1 0.5q26 12 41.5 29.5t29.5 37.5q3 5 5.5 9t4.5 9z" />
    <glyph glyph-name="e" unicode="e" 
d="M306 90q20 -1 33 -14.5t12 -30.5q-1 -18 -15 -31.5t-34 -14.5h-23h-31.5h-31.5h-23q-37 -1 -73.5 -1.5t-73.5 -0.5q-40 -2 -42 38q-1 4 -1 8v9q-2 6 -3 12t0 12q2 14 2.5 27.5t1.5 27.5q2 54 3 107t3 107q3 60 3 120q1 3 0.5 5.5t-0.5 5.5q0 8 -2 16t2 13q8 8 17 15.5
t20 9.5q18 4 36.5 4.5t36.5 2.5v-2q41 -2 81 -3t81 -3q65 -2 71 -69q1 -11 -3.5 -20.5t-13 -16.5t-19 -10t-21.5 -1q-31 8 -61.5 8.5t-61.5 -4.5q-6 -1 -11.5 0t-11.5 1q-16 0 -26 -9t-11 -24q-2 -12 -1.5 -23.5t-0.5 -22.5q-1 -16 13 -22q7 -2 13.5 -4t13.5 -3q23 -1 46 -1
t46 -1q5 0 8.5 0.5t8.5 -0.5q45 -4 47 -48q0 -20 -14 -37t-33 -19q-21 -1 -42 0t-43 2l-18 2t-19 1q-14 -1 -19.5 -5.5t-7.5 -18.5q-2 -17 -2 -33v-33q2 -15 12.5 -20t27.5 -5h35t42.5 -0.5t42 -1t34.5 -1.5z" />
    <glyph glyph-name="f" unicode="f" 
d="M123 531q41 -2 81 -3t81 -3q65 -2 71 -68q1 -11 -3.5 -21t-13 -16.5t-19 -10t-21.5 -0.5q-31 7 -61.5 7.5t-61.5 -4.5q-6 -1 -11.5 0t-11.5 1q-16 0 -26 -8.5t-11 -24.5q-2 -11 -1.5 -23t-0.5 -23q-1 -16 14 -22q6 -2 12.5 -4t13.5 -3q23 -1 46 -1t46 -1q5 0 8.5 0.5
t8.5 -0.5q45 -4 47 -48q0 -20 -14 -37t-33 -19q-21 -1 -42 0t-43 3q-9 0 -18 1t-19 1q-14 0 -19.5 -5t-7.5 -19q-2 -18 -2 -35.5v-35.5q0 -14 1.5 -29t2.5 -29q1 -20 -14 -35t-35 -15q-6 0 -12.5 -0.5t-12.5 1.5q-9 2 -17 9.5t-14 17.5t-9 21.5t-2 21.5q2 14 2.5 27.5
t1.5 27.5q2 54 3 107t3 107q3 60 3 120q1 3 0.5 6t-0.5 5q0 8 -2 16t2 13q8 8 17 15.5t20 9.5q18 4 36.5 4.5t36.5 2.5v-2z" />
    <glyph glyph-name="g" unicode="g" horiz-adv-x="540" 
d="M466 254q6 -5 8.5 -16t1.5 -20q-1 -17 -4.5 -34t-8.5 -34q-3 -8 -5.5 -16t-7.5 -16q-2 -4 -9.5 -14.5t-11.5 -15.5q-4 -6 -12 -12t-14 -10q-11 -8 -19 -13.5t-15.5 -10t-15.5 -9t-19 -11.5q-19 -11 -40.5 -15t-42.5 -3q-27 2 -54 6t-53 18q-69 37 -108 109
q-20 35 -27.5 72t-8.5 75q-1 21 5 42.5t10 42.5q0 3 2 7q16 20 31.5 41.5t32.5 40.5q16 17 36 27t41 18q5 2 10.5 4t10.5 6q25 21 58 16q21 -4 42 -4.5t41 -10.5q4 -2 8.5 -2t7.5 -2q22 -18 47 -33t40 -41q3 -5 8 -8l5 -5q8 -12 9 -22.5t-1 -20.5q-2 -5 -2.5 -7t-2.5 -4
q-5 -6 -10 -13.5t-11 -9.5q-12 -3 -25.5 -4.5t-24.5 2.5q-9 4 -19 12q-5 8 -15.5 19.5t-27 21t-39 13.5t-52.5 -3q-29 -8 -48 -20.5t-31 -27.5t-18.5 -30.5t-9.5 -29.5q-7 -28 -2 -51.5t16 -49.5q6 -13 16.5 -26.5t25 -24.5t32.5 -18t39 -7q28 0 47 4t31.5 9t20 11t12.5 9
q10 6 16 14t4 16q-1 4 -8.5 5t-17 1.5t-18.5 0t-13 0.5q-8 2 -13.5 8t-13.5 18q-2 5 -3 8.5t-2 5.5q1 2 1 2.5t1 2.5q0 1 2 7q0 1 0.5 1.5t0.5 2.5q2 2 2.5 4.5t2.5 4.5q8 8 28 13q17 5 53.5 2.5t76.5 -2.5q5 -3 10.5 -7.5t10.5 -8.5z" />
    <glyph glyph-name="h" unicode="h" horiz-adv-x="488" 
d="M421 182q-1 -30 0.5 -60t2.5 -59q2 -25 -9 -42q-8 -11 -18 -17.5t-24 -4.5q-8 2 -17 3t-17 3q-10 2 -17 12q-11 17 -17 37t-4 42q2 14 3 27.5t2 27.5q1 17 -6 24.5t-21 13.5q-22 3 -44 5.5t-45 4.5q-11 1 -21 1.5t-21 0.5q-10 -1 -15.5 -6.5t-8.5 -13.5t-3.5 -17
t-0.5 -16q1 -21 2 -42.5t2 -42.5q1 -11 -1 -21.5t-9 -20.5q-8 -11 -17.5 -17.5t-23.5 -4.5q-9 2 -18 3t-17 3q-10 2 -17 12q-11 17 -16.5 37t-3.5 42q8 81 7.5 162t0.5 162q0 17 1 33t3 33q3 25 15 36t37 13q20 1 34.5 -11t20.5 -34q2 -8 3 -16.5t1 -16.5q0 -13 0.5 -29.5
t0.5 -32.5v-37v-11q-1 -12 2.5 -24t16.5 -12q15 -1 29.5 -1h28.5q20 -1 38.5 -1.5t38.5 -2.5q12 -1 21 2.5t9 25.5v43t1 43q0 17 0.5 33t2.5 33q4 25 16 36t37 13q20 1 34.5 -11t19.5 -34q5 -18 5 -33v-99q-1 -45 -2.5 -88.5t-1.5 -87.5z" />
    <glyph glyph-name="i" unicode="i" horiz-adv-x="250" 
d="M151 181q-1 -31 0.5 -61t2.5 -60q2 -25 -9 -42q-8 -12 -17.5 -18.5t-23.5 -4.5q-9 2 -17.5 3t-16.5 3q-5 2 -9.5 4.5t-7.5 7.5q-11 18 -16.5 38t-3.5 42q8 83 7.5 164.5t0.5 164.5q0 34 3 67q4 26 16 37t36 13q20 1 34.5 -11t19.5 -35q2 -8 3 -16.5t2 -16.5v-101
q-1 -45 -2.5 -89t-1.5 -89z" />
    <glyph glyph-name="j" unicode="j" horiz-adv-x="416" 
d="M351 429q0 -58 0.5 -115.5t-1.5 -115.5q-2 -36 -10.5 -70t-27.5 -65q-28 -45 -77 -66q-16 -7 -33 -4.5t-34 1.5q-32 -1 -58 14.5t-51 33.5q-14 9 -27 15q-11 6 -19 13.5t-8 21.5q0 10 -3 19q-5 23 3 40.5t29 27.5q7 3 16 3t18.5 -3t18 -8.5t14.5 -12.5q25 -30 63 -38
q30 -5 52 14.5t22 49.5q-1 32 -0.5 63t1.5 63q1 22 2 43l2 42q0 23 -13 41.5t-37 21.5q-35 4 -32 46q1 15 11 26t27 11q20 0 41 -2t41 -4q6 0 12.5 -1t12.5 0q23 3 35 -8t11 -34q0 -16 -1 -31.5t-2 -31.5h2z" />
    <glyph glyph-name="k" unicode="k" horiz-adv-x="478" 
d="M404 72q14 -23 9.5 -39.5t-27.5 -31.5q-21 -14 -46 -9q-18 5 -33 17q-7 6 -13.5 12t-11.5 13q-17 21 -32.5 42.5t-31.5 42.5q-1 0 -1 -1l-24 34l-24 34l-1 1q-8 8 -13 11.5t-10 7.5q-1 1 -2 1h-5q0 -1 -0.5 -1.5t-0.5 -1.5l-1 -1q-4 -9 -5 -17l-6 -72q1 -14 1.5 -29
t1.5 -29q0 -11 -1.5 -21.5t-8.5 -20.5q-8 -12 -18.5 -18.5t-24.5 -4.5q-3 1 -6 1t-6 1q-5 0 -9.5 0.5t-9.5 1.5q-2 1 -2.5 1t-2.5 1q-1 0 -5 2q-2 0 -3 1q-6 3 -9 8q-11 17 -16.5 34t-5.5 37q0 7 1 11q5 55 6.5 109.5t1.5 109.5v53v63q1 17 1.5 33.5t2.5 33.5q4 26 16 37.5
t37 13.5h1q28 1 46 -21l3 -6q8 -11 10.5 -24.5t4.5 -26.5v-19q0 -8 -1 -16t-1 -16v-17q0 -4 1 -6t4 -4t6 0l1 1q6 5 11.5 11t11.5 12q20 21 41.5 39.5t40.5 40.5q20 23 47 38q31 20 58 9q5 -2 9.5 -4.5t9.5 -6.5q17 -12 20.5 -31t-9.5 -39q-5 -8 -10.5 -12.5t-11.5 -11.5
l-16 -16t-14 -13t-14 -12.5t-17 -15.5l-27 -27q-10 -9 -18 -17.5t-18 -17.5q-11 -11 -2 -24q17 -25 37.5 -47t39.5 -47q13 -17 28 -33t27 -33q11 -14 21 -28.5t18 -29.5z" />
    <glyph glyph-name="l" unicode="l" horiz-adv-x="429" 
d="M326 120q20 -3 31 -15.5t8 -32.5q-3 -23 -12 -44q-11 -25 -39 -25q-21 0 -42 1t-42 1q-25 1 -49 0.5t-49 -1.5q-23 -1 -39 -2.5t-39 -3.5q-14 -1 -24.5 7t-15.5 22q-3 8 -5.5 16t-2.5 16q-2 20 -1.5 41t-0.5 42q0 26 1.5 52t-1.5 52q-5 48 -2.5 96t-0.5 96q-1 8 -1 12.5
v9t0.5 9t0.5 12.5q0 2 1 11.5t2 11.5q6 11 15.5 22t24.5 9h21q14 -3 21 -7t17 -14q12 -12 15 -27.5t2 -36.5v-13v-7.5v-7.5v-13q1 -24 3 -47.5t1 -46.5q0 -38 -1.5 -76t-2.5 -76q0 -8 0.5 -15t1.5 -18h46q11 0 23 1t23 0l46 -4l46 -4q5 -1 10 -1.5t10 -1.5z" />
    <glyph glyph-name="m" unicode="m" horiz-adv-x="573" 
d="M241 368q11 -7 22 1q10 7 18.5 15t16.5 14q27 20 49 44t37 53q18 36 58 34q24 -1 40.5 -6.5t25.5 -28.5q0 -7 0.5 -13.5t1 -16t0 -23t-1.5 -35.5q-5 -35 -4.5 -69.5t2.5 -69.5q2 -38 1 -76.5t0 -76.5q0 -12 0.5 -33.5t1.5 -33.5q2 -21 -14 -36.5t-38 -14.5q-12 1 -16 3.5
t-15 5.5q-16 4 -28.5 21.5t-12.5 34.5q1 28 1.5 64.5t0.5 63.5v19.5t-1 25.5q0 7 -7 9t-12 -3q-15 -18 -29 -30q-7 -6 -13.5 -15t-14.5 -14q-21 -15 -34.5 -21.5t-25.5 -4.5t-25.5 13.5t-34.5 34.5q-8 8 -17 20t-20 22q-8 8 -19 4t-12 -15q-2 -34 -1.5 -67.5t1.5 -64.5
q1 -17 -1.5 -40.5t-13.5 -39.5q-12 -17 -28.5 -21.5t-37.5 0.5q-20 5 -28.5 14.5t-8.5 29.5q1 36 1 69.5t3 69.5q3 29 2.5 56.5t-2 55.5t-3.5 59t-3 68q-4 18 -1.5 36.5t1.5 37.5q-1 16 8 26t26 10h27h18t15.5 -2t14 -7.5t14.5 -17.5q20 -30 43 -57.5t46 -54.5q6 -7 13 -14
t14 -12z" />
    <glyph glyph-name="n" unicode="n" horiz-adv-x="498" 
d="M145 194q-3 4 -11.5 1t-9.5 -8q-1 -7 -2.5 -14.5t-2.5 -14.5q1 -33 0 -60t-3 -58q-2 -27 -10.5 -37.5t-38.5 -10.5q-34 -1 -48 12t-17.5 34t-0.5 46.5t3 49.5q0 35 0.5 61.5t0.5 51.5t0.5 51t2.5 61q1 17 0.5 32.5t-1.5 31.5q-1 8 -2.5 26.5t0.5 26.5q2 14 5 27.5
t21 19.5q20 7 33.5 8t33.5 -12q3 -2 5.5 -4.5l4.5 -4.5q14 -20 31.5 -44.5t31.5 -50.5q12 -32 34.5 -58.5t42.5 -55.5q7 -10 15 -17q8 -6 17.5 -7.5t17 0.5t13 5.5t5.5 7.5q1 8 0.5 14.5t-1 13.5t-0.5 15.5t2 20.5q1 37 -0.5 74.5t4.5 79.5q2 20 19 28t40 5q26 -3 40 -15.5
t14 -36.5q1 -54 0 -108t-2 -109v-29.5t-0.5 -55t-1 -62t-0.5 -50.5q-1 -41 -15.5 -59t-48.5 -18h-23t-21.5 3.5t-20.5 11t-19 21.5q-18 24 -43.5 53.5t-42.5 53.5q-12 17 -24.5 27.5t-26.5 25.5z" />
    <glyph glyph-name="o" unicode="o" horiz-adv-x="528" 
d="M460 296q9 -61 -0.5 -110.5t-32 -87t-56 -62t-72.5 -35.5q-31 -9 -73.5 -7.5t-83.5 15.5t-73.5 43t-44.5 74q-6 23 -9 37t-5 26t-3.5 26t-4.5 37q-5 35 1 74.5t18 70.5q1 3 9.5 14.5t19 24.5t20 23.5t12.5 11.5q21 18 34.5 30t36.5 20q10 10 32 14.5t47.5 4.5t49 -4
t36.5 -13q10 -7 17 -11.5t13 -9t12.5 -9.5t15.5 -13q20 -17 35 -35.5t25.5 -40.5t16 -48.5t7.5 -59.5zM364 268q0 38 -10 65.5t-27.5 45.5t-40.5 26t-49 8q-5 0 -20.5 -2t-20.5 -4q-19 -5 -35 -19t-27.5 -32.5t-18 -39.5t-6.5 -40q2 -41 13 -74.5t45 -59.5q10 -8 23.5 -16.5
t46.5 -8.5q23 0 45.5 9t40.5 27t29.5 46.5t11.5 68.5z" />
    <glyph glyph-name="p" unicode="p" horiz-adv-x="431" 
d="M277 218q-23 -16 -46 -22t-44 -8t-38.5 -2.5t-29.5 -5.5q-9 -4 -13.5 -12t-6 -18t-1 -20.5t1.5 -17.5q2 -18 3 -36t1 -37q0 -5 -1.5 -11t-4.5 -9q-11 -12 -24 -18.5t-30 -4.5q-24 2 -33.5 17.5t-10.5 40.5q0 8 1 16.5t1 16.5q0 30 0.5 53t0.5 43.5t0.5 40t2.5 41.5
q2 26 0 51t-3 50v46.5t-1 46.5q-1 22 2 50q3 21 30 26q29 5 58 2.5t58 -3.5q14 -1 28.5 -2t29.5 -3q35 -4 66.5 -16.5t51.5 -44.5q12 -19 21.5 -39t15 -40.5t4.5 -42.5t-10 -45q-4 -10 -10.5 -18t-13.5 -16q-14 -15 -28 -26t-28 -23zM106 334q1 -9 6 -17t13 -9
q19 -2 37.5 -2.5t37.5 2.5q11 2 21.5 8.5t16.5 15.5q8 11 6 25t-10 27q-14 22 -35 29t-46 6q-30 -1 -38 -9t-9 -38q-1 -3 -0.5 -6t0.5 -6q0 -7 -0.5 -13t0.5 -13z" />
    <glyph glyph-name="q" unicode="q" horiz-adv-x="528" 
d="M421 97q2 -2 6 -7t7.5 -11l7 -12t4.5 -10q5 -15 6.5 -31.5t-9.5 -25.5q-6 -5 -15.5 -10t-12.5 -6q-15 -1 -31 4t-24 13q-7 6 -13 12l-11 11q-9 -5 -18.5 -8.5t-18.5 -6.5q-31 -9 -73.5 -7t-83.5 16t-73.5 42.5t-44.5 73.5q-6 23 -9 37t-5 26.5t-3.5 26.5t-4.5 37
q-5 35 1 74t18 71q1 3 9.5 14.5t19 24.5t20 23.5t12.5 11.5q21 18 34.5 30t36.5 20q10 10 32 14.5t47.5 4.5t49 -4t36.5 -13q10 -7 17 -11.5t13 -9t12.5 -9.5t15.5 -13q20 -17 35 -35.5t25.5 -40.5t16 -48.5t7.5 -59.5q10 -66 -1.5 -118t-37.5 -90zM109 285q2 -41 13 -74.5
t45 -59.5q10 -8 23 -16t44 -9q-5 6 -10 11.5t-10 13.5q-8 12 -4 24.5t21 30.5q29 32 55 22q10 -4 16 -9q10 -9 19 -18l19 -19q24 38 24 94q0 38 -10 66t-27.5 46t-40.5 26t-49 8q-5 0 -20.5 -2t-20.5 -4q-19 -5 -35 -19t-27.5 -32.5t-18 -39.5t-6.5 -40z" />
    <glyph glyph-name="r" unicode="r" horiz-adv-x="431" 
d="M281 216q14 -9 25 -22t22 -30q20 -32 23 -59.5t3 -58.5q0 -9 -4.5 -17.5t-12 -15t-16.5 -10t-18 -2.5q-23 2 -35.5 8.5t-19.5 32.5q-8 32 -18 57.5t-36 45.5l-15 7.5t-16 6.5q-12 2 -22 2.5t-18 1.5q-6 1 -11 -3t-5 -10q-2 -14 -4 -25.5t0 -22.5q2 -18 2 -31t1 -31
q0 -5 -1.5 -11t-4.5 -10q-11 -12 -24.5 -18.5t-29.5 -4.5q-33 6 -40.5 19.5t-3.5 39.5q3 17 2 32q-7 45 -3 89t7 89q3 51 3 101q-1 23 -3.5 46.5t-3.5 46.5q-1 22 2 50q3 21 30 26q29 5 57.5 2.5t57.5 -3.5q15 -1 29.5 -2t28.5 -3q36 -4 67.5 -16.5t51.5 -44.5
q12 -19 21 -38t14 -39.5t4.5 -42.5t-8.5 -47q-4 -10 -10 -23t-13 -21q-14 -15 -24.5 -23.5t-30.5 -17.5zM107 360v-13t1 -12q0 -10 5 -18t14 -9q19 -2 37.5 -2.5t37.5 2.5q10 2 21 8.5t16 15.5q8 11 6.5 25t-9.5 27q-14 22 -35 29t-46 6q-30 -1 -38 -9t-9 -38q-1 -3 -0.5 -6
t-0.5 -6z" />
    <glyph glyph-name="s" unicode="s" horiz-adv-x="449" 
d="M337 283q32 -25 42 -62t5 -76q-2 -21 -9.5 -41.5t-22.5 -36.5q-11 -11 -21.5 -21t-24.5 -18q-14 -7 -28.5 -11t-28.5 -8q-16 -5 -31 -8t-32 -2t-33 3t-33 4q-18 2 -30 5t-22 7.5t-20 11.5t-22 19l-7 7q-5 6 -8.5 14t-2.5 17t6.5 18.5t19.5 17.5q15 9 36 6t35 -13
q7 -5 12.5 -9t14 -6.5t22.5 -3.5t40 1q25 1 44 14t20 35q1 20 -5 32t-22 23q-8 6 -15.5 10t-18.5 5q-5 0 -15 0.5t-21 1.5h-3q-2 0 -4.5 0.5t-4.5 0.5h-1h-2q-2 0 -3.5 0.5t-3.5 0.5q-25 3 -41.5 7.5t-27.5 9.5q-12 5 -21 12q-32 26 -42 62.5t-5 75.5q2 21 9.5 42t22.5 36
l21.5 21.5t24.5 17.5t28.5 11t28.5 9q16 5 31 8t31 2q17 -1 33.5 -3.5t33.5 -4.5q18 -2 30 -4.5t22 -7t20 -12t22 -19.5l7 -7q5 -6 8 -14t2.5 -17t-6.5 -18.5t-20 -17.5t-35 -5t-36 13q-8 5 -14.5 9t-16.5 6t-25.5 3t-41.5 0q-25 -2 -46.5 -15t-22.5 -35q-1 -20 5 -32
t22 -23q9 -6 21 -9.5t23 -4.5q4 0 12 -0.5t18 -1.5q48 0 80 -12t43 -20z" />
    <glyph glyph-name="t" unicode="t" horiz-adv-x="530" 
d="M466 471v-15q1 -20 -16 -34.5t-37 -14.5h-60q-10 0 -19.5 0.5t-19.5 0.5q-9 1 -15 -5t-6 -15v-29q-1 -45 -2.5 -89t-1.5 -89q-1 -17 -0.5 -35t1.5 -35q-1 -18 -1.5 -34.5t-2.5 -33.5q-4 -39 -30 -47q-4 -1 -14.5 -1.5t-21.5 0.5q-5 0 -13 3.5t-16 10.5q-8 6 -12 13.5
t-4 29.5q0 35 1 82.5t1.5 95.5t1 90.5t-0.5 66.5q-1 11 -9 19t-19 7q-24 -1 -43 0.5t-39 0.5q-5 0 -16.5 2.5t-22.5 8.5t-16.5 11t-8.5 11t-3.5 14.5t-0.5 21.5q0 11 7 20.5t15 16.5q9 9 29 14q25 5 45.5 4.5t50.5 -2.5q14 -2 29 -1.5t30 -0.5h6q12 0 24.5 -0.5t24.5 -0.5
q17 -1 32.5 -1.5t32.5 -0.5q8 -1 16.5 -0.5t16.5 0.5q10 0 16 0.5t11.5 0.5h10t11.5 -1q26 -4 41 -18t17 -42z" />
    <glyph glyph-name="u" unicode="u" horiz-adv-x="553" 
d="M489 422q-1 -14 -1 -24.5t0.5 -20.5l1 -20t0.5 -24v-18v-17v-8q0 -7 -0.5 -13t-0.5 -12v-3v-11q-1 -2 -1 -5q-2 -28 -6.5 -54.5t-17.5 -52.5q-14 -28 -30.5 -53t-38.5 -46q-18 -18 -44 -28q-76 -29 -154 -14q-51 10 -89 35.5t-67 70.5q-11 17 -17.5 35t-10 37t-5.5 37.5
t-5 37.5q-2 9 -2.5 21t-0.5 21v21q2 21 2.5 34.5t1.5 33.5q1 16 0 31.5t-1 32.5q1 11 1 21t2 21q2 10 9.5 19t17.5 15.5t22 9.5t23 1q5 -1 8.5 -2t7.5 -2q24 -6 29 -31q1 -5 1.5 -9.5t0.5 -9.5q2 -43 0 -85q-1 -14 -1 -28.5v-29.5q0 -23 1.5 -50.5t3.5 -51.5q5 -47 52 -75
q8 -4 11 -7q13 -8 26 -10t29 -2q5 0 7 1h9q9 1 18 -0.5t17 3.5q19 10 31.5 22.5t19.5 28t10 35t5 43.5q1 10 -0.5 19.5t-0.5 20.5v23v18q0 15 -0.5 29.5t-2.5 29.5q-2 14 -2 24v18t1 16t1 19q0 13 3.5 21t7.5 12.5t7.5 6.5l3.5 2q9 5 19.5 7t20.5 1q24 0 38 -3.5t22 -26.5
q6 -20 6 -36v-13t1 -13v-26z" />
    <glyph glyph-name="v" unicode="v" horiz-adv-x="527" 
d="M460 500q2 -7 3.5 -16.5t-0.5 -16.5l-1 -6q-3 -13 -7 -26t-14 -32q0 -1 -3 -10l-6.5 -19.5l-6.5 -19.5t-3 -10q-11 -42 -26.5 -82t-30.5 -80q-5 -11 -9 -21t-8 -21q-11 -28 -22.5 -50.5t-25.5 -42.5q-3 -5 -6 -10.5t-6 -11.5q-2 -4 -4 -7.5t-4 -6.5q-2 -4 -4.5 -7.5
t-6.5 -5.5q-16 -7 -31 -7q-12 0 -27 5t-27 15t-18 24q-4 8 -7 15t-7 14q-7 15 -14 30.5t-13 31.5q-3 6 -4.5 12.5t-3.5 12.5l-2 10t-3 10q-8 23 -20 57t-24.5 69t-23 65t-16.5 45q-2 7 -4.5 13.5t-4.5 12.5q-5 11 -9 22.5t-8 22.5q-6 22 5 40q14 20 40 22q13 2 26.5 0.5
t24.5 -14.5q5 -5 11.5 -17.5t11.5 -28.5q2 -5 3.5 -10.5t4.5 -11.5q1 -2 2 -5t2 -5l10 -25q6 -17 12.5 -33t12.5 -33l6 -15q1 -5 5 -15q2 -5 9 -23q8 -19 18 -44t14 -39q0 -2 1 -3q5 -12 7.5 -15.5t4.5 -3.5q5 -2 6.5 -1t4.5 6l1 3q2 5 4.5 10.5t4.5 10.5q3 8 6 15.5t6 15.5
q2 6 4.5 11.5t4.5 12.5q3 7 9 24t12.5 36.5t11.5 37t7 25.5q3 15 9 30t11 26q3 10 11 28l4 12t4 11q6 16 31 23q31 11 47.5 3t27.5 -39z" />
    <glyph glyph-name="w" unicode="w" horiz-adv-x="810" 
d="M742 499q3 -7 4 -16.5t-1 -15.5l-1 -7q-3 -13 -6.5 -26t-14.5 -31q0 -1 -3 -10t-6.5 -20t-6.5 -20t-3 -10q-11 -42 -26.5 -82t-30.5 -79q-5 -11 -8.5 -21.5t-8.5 -21.5q-21 -55 -47 -93q-4 -5 -6.5 -9.5t-5.5 -9.5q0 -1 -1 -2q-2 -4 -4 -7.5t-4 -7.5t-4.5 -7t-6.5 -5
q-13 -7 -30 -7q-7 0 -14 1t-13 4q-34 11 -46 39l-6 12l-7 16q-8 16 -15 31t-13 31q-5 11 -7 26q-1 3 -1.5 5.5t-1.5 5.5l-5.5 16.5l-4.5 13.5q0 1 -0.5 1.5t-0.5 2.5q-6 14 -10 17q-1 1 -2 1q-5 2 -6.5 1t-3.5 -6l-2 -3q-2 -5 -4.5 -10.5t-4.5 -10.5l-6 -16l-6 -16
q-2 -5 -4.5 -11t-4.5 -12q-2 -8 -8 -25.5t-13 -37.5q-2 -4 -4 -7.5t-4 -7.5q-1 -1 -1.5 -2t-1.5 -2q-3 -5 -6 -11t-6 -11q-2 -4 -4 -7.5t-4 -7.5q-2 -3 -4.5 -6.5t-6.5 -5.5q-16 -7 -31 -7q-12 0 -27 5q-26 10 -39 29q-4 4 -6 10q-4 8 -7 14.5t-7 14.5q-7 15 -14 30.5
t-13 30.5q-3 7 -4.5 13.5t-3.5 12.5l-2 10t-3 10q-8 23 -20 57t-24.5 69t-23 65t-16.5 45q-2 7 -4.5 13t-4.5 13q-5 11 -9 22t-8 23q-6 21 5 40q13 19 40 22q13 2 22 1.5t23 -10.5q11 -8 16 -21t13 -30q2 -5 3.5 -11t4.5 -11q1 -2 2 -5t2 -5l10 -25q6 -17 12.5 -33t12.5 -33
l6 -15q1 -5 5 -15q2 -4 4 -9.5t5 -13.5q8 -19 18 -44t14 -39q0 -2 1 -3q5 -15 10 -18l2 -2q5 -1 6.5 0t4.5 6l1 3q2 5 4.5 10.5t4.5 10.5q3 8 6 15.5t6 15.5q4 10 9 24q3 8 9.5 28t14.5 42q2 3 3.5 6t3.5 5q4 5 7 10t5 10q0 1 1 2q2 4 4 7.5t4 7.5q6 9 11 12q13 7 31 7
q15 0 27 -4q25 -9 39 -30q5 -5 6 -10q4 -8 6 -11l3 -9q2 -4 3 -8t3 -8t2.5 -7.5t2.5 -7.5q2 -3 4 -8.5t5 -13.5q5 -12 11 -26.5t11 -28.5q4 -8 6 -15.5t4 -12.5v-1q1 -2 1 -2.5t1 -2.5q4 -11 6.5 -14t4.5 -3q5 -1 6.5 -0.5t4.5 6.5l1 2q2 5 4.5 10.5t4.5 10.5q3 9 6 16t6 15
l9 24q3 7 9 24.5t12.5 37t11.5 37t7 25.5q3 14 9 29.5t11 26.5q2 5 5 12t6 15l9 24q4 14 30 23q31 10 47.5 2t27.5 -39z" />
    <glyph glyph-name="x" unicode="x" horiz-adv-x="551" 
d="M487 64q2 -10 -2 -21t-12.5 -20t-19 -15t-20.5 -5q-17 2 -28 13q-32 31 -64.5 67t-64.5 68q-6 6 -11.5 12t-11.5 13q-4 5 -9.5 5t-9.5 -4q-7 -6 -13 -13q-11 -11 -21 -21.5t-19 -21.5q-18 -20 -36 -40.5t-35 -40.5q-6 -7 -11.5 -13.5t-11.5 -12.5q-12 -12 -29 -15.5
t-30 3.5q-14 8 -20.5 24.5t-1.5 33.5q7 24 20 44t30 38q13 13 23.5 27t21.5 29q9 13 20 24.5t20 25.5q10 15 9 24.5t-12 23.5q-18 23 -36 45.5t-39 42.5q-30 29 -52 64q-11 16 -11 39t11 38q4 6 11 8q15 2 29.5 1.5t29.5 -8.5q37 -20 59 -57q13 -21 34 -44q5 -6 11 -12
l11 -11l5 -5q12 -11 24 -24.5t19 -12.5q1 0 7.5 8t7.5 8q12 11 17 18.5t14 18.5q5 5 11.5 13t11.5 13l17.5 17.5t11.5 12.5q3 8 9 12.5t11 12.5q5 7 5.5 9t6.5 8q2 2 5 6t6 6q5 2 6.5 3.5t2.5 2l3 1.5t8 3q21 7 36.5 -2t29.5 -23q8 -7 9 -17t-3 -20q-9 -20 -16.5 -34.5
t-23.5 -31.5q-12 -12 -24 -27.5t-23 -29.5q-1 0 -9.5 -11t-16.5 -19q-1 0 -3 -2q-5 -4 -9 -10v-1q-3 -4 -10.5 -11.5t-7.5 -17.5q0 -5 -0.5 -9t1.5 -9.5t7.5 -12.5t17.5 -19l13 -13t12.5 -13t15.5 -16.5t24 -24.5q6 -8 15 -17.5t16 -17.5q8 -10 18 -28t13 -32z" />
    <glyph glyph-name="y" unicode="y" horiz-adv-x="512" 
d="M159 58q2 39 2.5 71t2.5 71q0 11 -1.5 24.5t-0.5 39.5q0 5 -8 16t-18.5 22.5t-20 21.5t-11.5 13q-18 23 -39 47.5t-37 49.5q-7 11 -11 17l-7 10.5t-5 9.5t-4 13q-3 10 3.5 21.5t13.5 19.5q7 9 19 12q14 6 32.5 2t29.5 -15q7 -8 12.5 -13t11.5 -12t13.5 -17t19.5 -27
q6 -13 20 -29t22 -28q10 -13 20.5 -11.5t21.5 11.5q6 5 14 11.5t16 14t14.5 15t9.5 13.5q10 12 21 26t23 26t23.5 20.5t22.5 9.5q6 0 10.5 0.5t9 0t9.5 -3t13 -9.5q25 -23 23 -39.5t-23 -41.5q-7 -9 -16 -20t-19 -22.5t-19 -23t-16 -20.5q-5 -6 -8.5 -10t-6.5 -8t-6.5 -8
t-9.5 -11q-11 -14 -21.5 -22t-21.5 -19q-8 -10 -8 -22q0 -21 0.5 -48.5t0.5 -56v-54.5t-1 -44q-2 -17 -11.5 -30.5t-24 -21t-31 -8t-31.5 8.5q-11 8 -16 23q-2 8 -2 21t1 13z" />
    <glyph glyph-name="z" unicode="z" horiz-adv-x="529" 
d="M382 -7q-8 0 -14 3q-5 1 -9.5 -0.5t-9.5 0.5q-20 6 -40.5 4t-42.5 -2q-6 0 -11.5 2t-10.5 1q-2 0 -4 -2.5t-4 -2.5q-6 -1 -12.5 3t-13.5 2q-20 -5 -42.5 -2.5t-49.5 2.5q-18 0 -36 0.5t-36 1.5h-2q-21 1 -32 27q-7 16 -10 27t-1.5 20t8 18t17.5 21q6 7 12.5 13.5
l13.5 13.5q22 23 44 45t45 44l26 24t27 24q12 11 22 23.5t22 23.5q5 4 14.5 14.5t18.5 23t15.5 26t6.5 22.5q-1 10 -22.5 8.5t-53.5 0.5q-29 2 -57 1.5t-50 1.5h-5q-7 0 -10 -1h-10q-11 0 -17 0.5t-10 1.5t-7 3t-9 7q-7 5 -13 17t-4 31q1 3 1 8q0 4 0.5 9.5t2 11t5 10
t10.5 6.5l11 5q1 0 6.5 1t11.5 2t11 1.5t6 0.5q14 -1 23 -1t16.5 0.5t15.5 1t21 0.5h15h24t24 -2l21 -3q30 -3 61 -1.5t62 -0.5q20 -1 34.5 -1t24.5 -5.5t17.5 -18.5t13.5 -39q3 -10 2.5 -17.5t-3.5 -15.5t-9 -17t-15 -21q-10 -14 -25 -37.5t-29 -36.5q-5 -4 -11 -11.5
t-12 -15.5t-11.5 -15.5t-10.5 -12.5q-15 -15 -30 -30.5t-29 -30.5q-6 -7 -12.5 -13.5t-12.5 -13.5q-3 -4 -17 -19t-24 -29q-5 -6 -2 -13t11 -8l12 -2h19t12 1t10 1.5t14 0.5q5 0 9.5 0.5t8.5 0.5h11.5h20.5t20.5 -0.5t11.5 -0.5q19 2 38.5 -2.5t28.5 -18.5q11 -17 8.5 -32.5
t-11.5 -32.5q-8 -15 -23 -24.5t-31 -9.5z" />
    </font>
</defs>
</svg>
