<?xml version="1.0" standalone="no"?>
<!DOCTYPE svg PUBLIC "-//W3C//DTD SVG 1.1//EN" "http://www.w3.org/Graphics/SVG/1.1/DTD/svg11.dtd" >
<svg xmlns="http://www.w3.org/2000/svg" xmlns:xlink="http://www.w3.org/1999/xlink" version="1.1">
<metadata>
Created by FontForge 20170731 at Thu Nov  8 05:22:56 2035
 By Aleksey,,,
</metadata>
<defs>
<font id="COFFE&#38;MILK" horiz-adv-x="918" >
  <font-face 
    font-family="COFFE &#38; MILK"
    font-weight="400"
    font-stretch="normal"
    units-per-em="2048"
    panose-1="2 11 6 3 5 3 2 2 2 4"
    ascent="1638"
    descent="-410"
    x-height="1876"
    cap-height="1866"
    bbox="-222.519 -93 1486.08 2335.86"
    underline-thickness="0"
    underline-position="0"
    unicode-range="U+0008-2248"
  />
<missing-glyph horiz-adv-x="2048" 
d="M581 115q-12 99 -23.5 199t-23.5 201q-104 -9 -198.5 -46.5t-183.5 -90.5q0 -69 -0.5 -139t-1.5 -137q-4 -41 -44 -37q-41 3 -37 43q1 120 3.5 373t17 526t45.5 509t90 323q36 54 85.5 54.5t88.5 -51.5q27 -37 48 -155.5t30 -169.5q57 -343 100.5 -695.5t84.5 -697.5
q3 -40 -36 -45q-40 -4 -45 36zM525 595q-28 228 -59.5 456t-67.5 453q-6 33 -27 148t-35 139q-10 19 -27 22q-30 -9 -54.5 -114t-29.5 -132q-41 -241 -54 -528.5t-17 -533.5q-1 -11 -1 -33q87 48 179 81t193 42z" />
    <glyph glyph-name=".notdef" unicode="&#xa5;" horiz-adv-x="2048" 
d="M581 115q-12 99 -23.5 199t-23.5 201q-104 -9 -198.5 -46.5t-183.5 -90.5q0 -69 -0.5 -139t-1.5 -137q-4 -41 -44 -37q-41 3 -37 43q1 120 3.5 373t17 526t45.5 509t90 323q36 54 85.5 54.5t88.5 -51.5q27 -37 48 -155.5t30 -169.5q57 -343 100.5 -695.5t84.5 -697.5
q3 -40 -36 -45q-40 -4 -45 36zM525 595q-28 228 -59.5 456t-67.5 453q-6 33 -27 148t-35 139q-10 19 -27 22q-30 -9 -54.5 -114t-29.5 -132q-41 -241 -54 -528.5t-17 -533.5q-1 -11 -1 -33q87 48 179 81t193 42z" />
    <glyph glyph-name=".notdef" unicode="&#xe01e;" horiz-adv-x="2048" 
d="M581 115q-12 99 -23.5 199t-23.5 201q-104 -9 -198.5 -46.5t-183.5 -90.5q0 -69 -0.5 -139t-1.5 -137q-4 -41 -44 -37q-41 3 -37 43q1 120 3.5 373t17 526t45.5 509t90 323q36 54 85.5 54.5t88.5 -51.5q27 -37 48 -155.5t30 -169.5q57 -343 100.5 -695.5t84.5 -697.5
q3 -40 -36 -45q-40 -4 -45 36zM525 595q-28 228 -59.5 456t-67.5 453q-6 33 -27 148t-35 139q-10 19 -27 22q-30 -9 -54.5 -114t-29.5 -132q-41 -241 -54 -528.5t-17 -533.5q-1 -11 -1 -33q87 48 179 81t193 42z" />
    <glyph glyph-name=".notdef" unicode="&#x25ca;" horiz-adv-x="2048" 
d="M581 115q-12 99 -23.5 199t-23.5 201q-104 -9 -198.5 -46.5t-183.5 -90.5q0 -69 -0.5 -139t-1.5 -137q-4 -41 -44 -37q-41 3 -37 43q1 120 3.5 373t17 526t45.5 509t90 323q36 54 85.5 54.5t88.5 -51.5q27 -37 48 -155.5t30 -169.5q57 -343 100.5 -695.5t84.5 -697.5
q3 -40 -36 -45q-40 -4 -45 36zM525 595q-28 228 -59.5 456t-67.5 453q-6 33 -27 148t-35 139q-10 19 -27 22q-30 -9 -54.5 -114t-29.5 -132q-41 -241 -54 -528.5t-17 -533.5q-1 -11 -1 -33q87 48 179 81t193 42z" />
    <glyph glyph-name=".notdef" unicode="&#x2260;" horiz-adv-x="2048" 
d="M581 115q-12 99 -23.5 199t-23.5 201q-104 -9 -198.5 -46.5t-183.5 -90.5q0 -69 -0.5 -139t-1.5 -137q-4 -41 -44 -37q-41 3 -37 43q1 120 3.5 373t17 526t45.5 509t90 323q36 54 85.5 54.5t88.5 -51.5q27 -37 48 -155.5t30 -169.5q57 -343 100.5 -695.5t84.5 -697.5
q3 -40 -36 -45q-40 -4 -45 36zM525 595q-28 228 -59.5 456t-67.5 453q-6 33 -27 148t-35 139q-10 19 -27 22q-30 -9 -54.5 -114t-29.5 -132q-41 -241 -54 -528.5t-17 -533.5q-1 -11 -1 -33q87 48 179 81t193 42z" />
    <glyph glyph-name=".notdef" unicode="&#x222b;" horiz-adv-x="2048" 
d="M581 115q-12 99 -23.5 199t-23.5 201q-104 -9 -198.5 -46.5t-183.5 -90.5q0 -69 -0.5 -139t-1.5 -137q-4 -41 -44 -37q-41 3 -37 43q1 120 3.5 373t17 526t45.5 509t90 323q36 54 85.5 54.5t88.5 -51.5q27 -37 48 -155.5t30 -169.5q57 -343 100.5 -695.5t84.5 -697.5
q3 -40 -36 -45q-40 -4 -45 36zM525 595q-28 228 -59.5 456t-67.5 453q-6 33 -27 148t-35 139q-10 19 -27 22q-30 -9 -54.5 -114t-29.5 -132q-41 -241 -54 -528.5t-17 -533.5q-1 -11 -1 -33q87 48 179 81t193 42z" />
    <glyph glyph-name=".notdef" unicode="&#x221e;" horiz-adv-x="2048" 
d="M581 115q-12 99 -23.5 199t-23.5 201q-104 -9 -198.5 -46.5t-183.5 -90.5q0 -69 -0.5 -139t-1.5 -137q-4 -41 -44 -37q-41 3 -37 43q1 120 3.5 373t17 526t45.5 509t90 323q36 54 85.5 54.5t88.5 -51.5q27 -37 48 -155.5t30 -169.5q57 -343 100.5 -695.5t84.5 -697.5
q3 -40 -36 -45q-40 -4 -45 36zM525 595q-28 228 -59.5 456t-67.5 453q-6 33 -27 148t-35 139q-10 19 -27 22q-30 -9 -54.5 -114t-29.5 -132q-41 -241 -54 -528.5t-17 -533.5q-1 -11 -1 -33q87 48 179 81t193 42z" />
    <glyph glyph-name=".notdef" unicode="&#x2211;" horiz-adv-x="2048" 
d="M581 115q-12 99 -23.5 199t-23.5 201q-104 -9 -198.5 -46.5t-183.5 -90.5q0 -69 -0.5 -139t-1.5 -137q-4 -41 -44 -37q-41 3 -37 43q1 120 3.5 373t17 526t45.5 509t90 323q36 54 85.5 54.5t88.5 -51.5q27 -37 48 -155.5t30 -169.5q57 -343 100.5 -695.5t84.5 -697.5
q3 -40 -36 -45q-40 -4 -45 36zM525 595q-28 228 -59.5 456t-67.5 453q-6 33 -27 148t-35 139q-10 19 -27 22q-30 -9 -54.5 -114t-29.5 -132q-41 -241 -54 -528.5t-17 -533.5q-1 -11 -1 -33q87 48 179 81t193 42z" />
    <glyph glyph-name=".notdef" unicode="&#x220f;" horiz-adv-x="2048" 
d="M581 115q-12 99 -23.5 199t-23.5 201q-104 -9 -198.5 -46.5t-183.5 -90.5q0 -69 -0.5 -139t-1.5 -137q-4 -41 -44 -37q-41 3 -37 43q1 120 3.5 373t17 526t45.5 509t90 323q36 54 85.5 54.5t88.5 -51.5q27 -37 48 -155.5t30 -169.5q57 -343 100.5 -695.5t84.5 -697.5
q3 -40 -36 -45q-40 -4 -45 36zM525 595q-28 228 -59.5 456t-67.5 453q-6 33 -27 148t-35 139q-10 19 -27 22q-30 -9 -54.5 -114t-29.5 -132q-41 -241 -54 -528.5t-17 -533.5q-1 -11 -1 -33q87 48 179 81t193 42z" />
    <glyph glyph-name=".notdef" unicode="&#x2202;" horiz-adv-x="2048" 
d="M581 115q-12 99 -23.5 199t-23.5 201q-104 -9 -198.5 -46.5t-183.5 -90.5q0 -69 -0.5 -139t-1.5 -137q-4 -41 -44 -37q-41 3 -37 43q1 120 3.5 373t17 526t45.5 509t90 323q36 54 85.5 54.5t88.5 -51.5q27 -37 48 -155.5t30 -169.5q57 -343 100.5 -695.5t84.5 -697.5
q3 -40 -36 -45q-40 -4 -45 36zM525 595q-28 228 -59.5 456t-67.5 453q-6 33 -27 148t-35 139q-10 19 -27 22q-30 -9 -54.5 -114t-29.5 -132q-41 -241 -54 -528.5t-17 -533.5q-1 -11 -1 -33q87 48 179 81t193 42z" />
    <glyph glyph-name=".notdef" unicode="&#x2122;" horiz-adv-x="2048" 
d="M581 115q-12 99 -23.5 199t-23.5 201q-104 -9 -198.5 -46.5t-183.5 -90.5q0 -69 -0.5 -139t-1.5 -137q-4 -41 -44 -37q-41 3 -37 43q1 120 3.5 373t17 526t45.5 509t90 323q36 54 85.5 54.5t88.5 -51.5q27 -37 48 -155.5t30 -169.5q57 -343 100.5 -695.5t84.5 -697.5
q3 -40 -36 -45q-40 -4 -45 36zM525 595q-28 228 -59.5 456t-67.5 453q-6 33 -27 148t-35 139q-10 19 -27 22q-30 -9 -54.5 -114t-29.5 -132q-41 -241 -54 -528.5t-17 -533.5q-1 -11 -1 -33q87 48 179 81t193 42z" />
    <glyph glyph-name=".notdef" unicode="&#x3c0;" horiz-adv-x="2048" 
d="M581 115q-12 99 -23.5 199t-23.5 201q-104 -9 -198.5 -46.5t-183.5 -90.5q0 -69 -0.5 -139t-1.5 -137q-4 -41 -44 -37q-41 3 -37 43q1 120 3.5 373t17 526t45.5 509t90 323q36 54 85.5 54.5t88.5 -51.5q27 -37 48 -155.5t30 -169.5q57 -343 100.5 -695.5t84.5 -697.5
q3 -40 -36 -45q-40 -4 -45 36zM525 595q-28 228 -59.5 456t-67.5 453q-6 33 -27 148t-35 139q-10 19 -27 22q-30 -9 -54.5 -114t-29.5 -132q-41 -241 -54 -528.5t-17 -533.5q-1 -11 -1 -33q87 48 179 81t193 42z" />
    <glyph glyph-name=".notdef" unicode="&#x3a9;" horiz-adv-x="2048" 
d="M581 115q-12 99 -23.5 199t-23.5 201q-104 -9 -198.5 -46.5t-183.5 -90.5q0 -69 -0.5 -139t-1.5 -137q-4 -41 -44 -37q-41 3 -37 43q1 120 3.5 373t17 526t45.5 509t90 323q36 54 85.5 54.5t88.5 -51.5q27 -37 48 -155.5t30 -169.5q57 -343 100.5 -695.5t84.5 -697.5
q3 -40 -36 -45q-40 -4 -45 36zM525 595q-28 228 -59.5 456t-67.5 453q-6 33 -27 148t-35 139q-10 19 -27 22q-30 -9 -54.5 -114t-29.5 -132q-41 -241 -54 -528.5t-17 -533.5q-1 -11 -1 -33q87 48 179 81t193 42z" />
    <glyph glyph-name=".null" horiz-adv-x="0" 
 />
    <glyph glyph-name="nonmarkingreturn" horiz-adv-x="682" 
 />
    <glyph glyph-name="uni001D" horiz-adv-x="0" 
 />
    <glyph glyph-name="uni001D" horiz-adv-x="0" 
 />
    <glyph glyph-name="uni001D" horiz-adv-x="0" 
 />
    <glyph glyph-name="space" unicode="&#x9;" horiz-adv-x="500" 
 />
    <glyph glyph-name="space" unicode=" " horiz-adv-x="500" 
 />
    <glyph glyph-name="uni00A0" unicode="&#xd;" horiz-adv-x="2048" 
 />
    <glyph glyph-name="uni00A0" unicode="&#xa0;" horiz-adv-x="2048" 
 />
    <glyph glyph-name="exclam" unicode="!" horiz-adv-x="388" 
d="M182 294q-17 -1 -15 -42q0 -27 19.5 -73t60.5 -14q47 37 29 90q-7 19 -46 12q-38 -9 -48 27zM292 1982q-1 -363 -17.5 -725t-16.5 -725q0 -41 -41 -41q-40 0 -40 41q0 363 17 725t17 725q0 40 40 40q41 0 41 -40zM240 349q71 5 103 -49q27 -48 12.5 -107t-59.5 -92
q-75 -56 -129.5 -13.5t-72.5 111.5t8 129.5t113 41.5q18 -5 25 -21z" />
    <glyph glyph-name="quotedbl" unicode="&#x22;" horiz-adv-x="339" 
d="M308 2159q-30 -70 -79.5 -155.5t-70.5 -148.5q-8 -40 -46 -34q-40 7 -34 47q24 80 72.5 161t83.5 161q14 36 53 22q36 -17 21 -53zM176 2161q-41 -54 -73 -138t-47 -148q-9 -40 -48 -32q-38 9 -30 48q20 83 53.5 170.5t87.5 156.5q28 26 57 0q29 -30 0 -57z" />
    <glyph glyph-name="numbersign" unicode="#" horiz-adv-x="1420" 
d="M43 728l233 13l151 398l-359 -24q-42 -2 -43 38q-4 39 37 43l397 26l129 339q14 37 52 23q37 -15 23 -52l-116 -304l367 24l83 237q12 38 51 24q37 -13 25 -51l-72 -205l307 21q40 1 42 -38q3 -40 -37 -43l-341 -22l-142 -405l223 12q40 1 42 -38q1 -41 -38 -42l-256 -14
l-218 -622q-13 -38 -51 -25q-38 14 -25 52l207 590l-381 -20l-204 -536q-13 -38 -52 -23q-38 14 -23 52l191 502l-198 -10q-41 -2 -42 38q-4 40 38 42zM364 746l379 20l142 403l-369 -24z" />
    <glyph glyph-name="dollar" unicode="$" horiz-adv-x="571" 
d="M198 458q-33 -40 -37.5 -79.5t49.5 -66.5q6 -4 9 -5q3 237 8.5 474.5t11.5 475.5q-37 83 -68 158t-49 138q-42 141 -18 251.5t148 176.5v50.5v51.5q0 40 40 40q41 0 41 -40v-34.5v-33.5q113 35 172 -64q39 -68 26 -140.5t-46 -136.5q-20 -35 -55 -14q-36 20 -14 55l14 27
q18 41 21 105t-42 91q-25 13 -77 -7q-4 -331 -12 -659q47 -106 101.5 -236.5t87.5 -263t30 -254.5t-70 -209q-65 -83 -170 -94v-68.5v-67.5q0 -41 -41 -41q-40 0 -40 41v70.5t1 71.5q-64 15 -104 65q-48 58 -33.5 116t56.5 110q27 30 57 3q29 -27 3 -57zM300 296
q88 12 130 105q58 129 11 312t-125 369q-6 -197 -10.5 -393.5t-5.5 -392.5zM251 1885l-20 -16q-78 -75 -53.5 -197.5t66.5 -224.5q2 109 4 218.5t3 219.5z" />
    <glyph glyph-name="percent" unicode="%" horiz-adv-x="989" 
d="M432 1951q-7 0 -21 -6q-18 -11 -39 -33q-32 -41 -37 -94t46 -55q30 -2 77 14t62 49q14 31 -2 82.5t-59 52.5q-12 -10 -27 -10zM925 1934l-129.5 -291t-284.5 -639.5t-284 -639l-129 -290.5q-17 -38 -54 -20q-36 16 -20 53l828 1860q16 36 53 20q37 -18 20 -53zM477 509
q-11 -2 -21 -6q-18 -12 -39 -33q-32 -42 -37 -94.5t46 -54.5q30 -2 77 13.5t62 49.5q13 31 -2.5 82t-58.5 53q-10 -10 -27 -10zM402 565q78 57 153.5 23t93.5 -130q17 -90 -28.5 -139t-123.5 -69q-96 -26 -155.5 19.5t-35.5 150.5q24 100 96 145zM357 2007q78 57 153.5 23
t94.5 -130q16 -90 -29.5 -138.5t-123.5 -69.5q-96 -26 -155.5 19.5t-35.5 150.5q23 100 96 145z" />
    <glyph glyph-name="ampersand" unicode="&#x26;" horiz-adv-x="1252" 
d="M792 840q-1 4 -25 102.5t-53 217.5t-54.5 220.5t-27.5 112.5q-8 24 9 31q18 7 26 -17l8 -36t9 -37l125 -507q9 -37 18 -72.5t18 -71.5q2 -10 4 -18.5t5 -17.5q9 -35 -10 -35t-26 11l-322 534q-5 7 -9 13.5t-8 14.5l-16 26l-0.5 0.5t-0.5 1.5q0 -5 9 -36l47 -172
q5 -18 9 -35t10 -34q21 -77 42 -157.5t43 -154.5q7 -26 6 -34q-7 -23 -27 -10q-9 5 -15 29.5t-9 35.5q-14 54 -32.5 119t-33.5 122q-5 17 -9.5 34t-8.5 35q-14 51 -29.5 103.5t-27.5 103.5l-38 138q-3 11 -5 27t16 18q14 1 35 -30l215 -356q32 -55 66 -110l50 -82l9 -15
l7 -11q0 -1 1 -1v0zM798 1403q0 -7 7.5 -38.5t10.5 -41.5l96 -389q14 -55 19 -78q0 -5 4 -20t7 -17q8 -6 47.5 -8t61.5 19q17 16 28 38q32 66 15.5 184t-37.5 182l-24 72q-15 36 -29 69t-32 64q-26 42 -72 86.5t-80 -42.5q-6 -12 -14 -40t-8 -40zM204 1315q0 -39 3.5 -74
t6.5 -69q1 -17 3.5 -33.5t5.5 -33.5q10 -72 27.5 -163t33.5 -157l51 40q33 24 53.5 31t44.5 19q0 6 -10.5 32t-13.5 36q-5 14 -13 35q-3 8 -5.5 15.5l-5.5 16.5l-132 330q-20 50 -39 50q-8 -24 -6 -17q-4 -19 -4 -58zM36 1488q0 13 13 22q6 5 38.5 12.5t43.5 10.5l334 82
q15 3 28 6t28 7l278 68q11 3 55.5 14.5t56.5 11.5q30 0 30 -27q0 -29 -39 -38q-37 -9 -86 -22t-82 -19q-41 -9 -111 -27t-111 -28l-390 -95q-27 -7 -56.5 -12.5t-29.5 34.5zM288 476q0 12 13 21q6 5 95.5 26.5t98.5 23.5q41 8 110.5 25.5t111.5 28.5l390 96q18 4 28 7
q25 5 27 5q31 0 31 -27q0 -29 -39 -38q-15 -4 -28 -7.5t-28 -6.5l-556 -136q-29 -7 -56.5 -14t-55.5 -13q-15 -4 -28.5 -7.5t-27.5 -6.5l-28 -7q-58 -13 -58 30zM165 1317q0 26 7.5 69t43.5 43q37 0 56.5 -42t34.5 -74q27 -60 67.5 -167.5t64.5 -172.5q16 -46 36.5 -100
t35.5 -99l35 -100q0 -18 -19 -20q-16 -1 -30 45l-50 139q-25 -3 -67.5 -30.5t-62.5 -45.5q-3 -3 -13 -11t-10 -11l17 -78q3 -15 7.5 -40.5t-16.5 -25.5q-16 0 -24 34l-47 219q-18 89 -42 230.5t-24 237.5zM779 1484q1 12 12 31t18 28q24 34 65 34q27 0 53.5 -21.5
t42.5 -42.5q9 -12 21 -30q36 -54 70 -139q47 -118 68 -245q9 -59 8 -139.5t-32 -129.5q-2 -2 -10 -13q-8 -10 -9 -11l-23 -18q-40 -22 -62 -18t-49 5q1 -9 4.5 -19.5t3.5 -19.5q0 -12 -15.5 -16.5t-21.5 7.5l-175 707q-4 14 -17 63.5t-9 58.5q8 16 24 10q11 -4 16 -21
q3 -12 8 -31t5 -30h4zM462 1313z" />
    <glyph glyph-name="quotesingle" unicode="'" horiz-adv-x="196" 
d="M170 1971q-82 -153 -150 -286q-19 -36 -53 -17q-36 18 -18 54q38 72 74.5 143.5t75.5 143.5q17 35 54 17q34 -20 17 -55z" />
    <glyph glyph-name="parenleft" unicode="(" horiz-adv-x="592" 
d="M407 1971q-103 -85 -167 -227t-96.5 -302.5t-36.5 -321t13 -282.5q24 -186 110 -373.5t269 -272.5l27 -11q38 -15 22 -53q-15 -37 -52 -22l-31 13q-186 86 -282 265t-132 370q-26 140 -25.5 321t34.5 361.5t106 340t191 257.5q32 24 57 -7q23 -33 -7 -56z" />
    <glyph glyph-name="parenright" unicode=")" horiz-adv-x="644" 
d="M284 2043q117 -98 189 -257t106.5 -339t34.5 -361t-25 -320q-36 -191 -132 -369.5t-280 -263.5l-32 -14q-38 -16 -52 23q-15 37 23 52l27 12q181 84 266.5 271t111.5 373q16 122 12 282t-36.5 320t-96 301t-165.5 226q-32 24 -7 57q24 32 56 7z" />
    <glyph glyph-name="plus" unicode="+" horiz-adv-x="759" 
d="M58 1042l265 21l-12 318q-2 40 39 42q40 1 42 -39l11 -314l274 21q41 3 43 -36q3 -41 -37 -44l-277 -22l12 -311q1 -41 -39 -41q-41 -2 -42 38l-11 308l-261 -21q-41 -4 -44 37q-2 41 37 43z" />
    <glyph glyph-name="comma" unicode="," horiz-adv-x="171" 
d="M146 215q-82 -152 -149 -284q-18 -36 -54 -18q-36 19 -18 54q38 71 74.5 143t75.5 144q19 36 54 16q34 -20 17 -55z" />
    <glyph glyph-name="hyphen" unicode="-" horiz-adv-x="517" 
d="M59 1018h61t135 0.5t135.5 1l61.5 0.5q41 1 41 -40q0 -40 -40 -40l-61.5 -0.5t-135.5 -1.5t-135 -1h-61q-41 0 -41 40q0 39 40 41z" />
    <glyph glyph-name="period" unicode="." horiz-adv-x="206" 
d="M108 91q-90 0 -90 94t90 94q89 0 89 -94t-89 -94z" />
    <glyph glyph-name="slash" unicode="/" horiz-adv-x="1113" 
d="M1040 1932l-152.5 -288t-334.5 -634t-334 -633.5l-152 -287.5q-19 -36 -54 -16q-34 18 -16 54l151.5 287.5t334 633.5t334.5 634l152 288q17 35 54 17q37 -19 17 -55z" />
    <glyph glyph-name="zero" unicode="0" horiz-adv-x="823" 
d="M393 1801q-65 15 -105 -18.5t-72 -92.5q-63 -118 -95 -321.5t-30.5 -422.5t37.5 -419.5t109 -311.5q82 -126 172 -79t163 136q63 78 88 210.5t36 234.5q7 75 11.5 202t-5 260t-38 249t-85.5 170q-49 44 -107.5 21t-92.5 -72q-30 -45 -40 -93t53 -66l31 -6q35 -6 32 -45
q-6 -41 -40 -35l-42 8q-104 30 -106 117t55 169q52 77 140.5 104t162.5 -41q85 -78 121 -257.5t37 -384t-26.5 -396.5t-68.5 -296q-30 -75 -97 -148.5t-135 -106.5q-97 -47 -167.5 -8t-118.5 120.5t-76.5 183t-41.5 180.5q-21 121 -29.5 293t4.5 349.5t51 338t111 260.5
q88 123 224 91q35 -11 25 -50q-10 -40 -45 -27z" />
    <glyph glyph-name="one" unicode="1" horiz-adv-x="426" 
d="M26 1370q9 39 30 127.5t50 183t63.5 173t71.5 96.5q49 25 78 -18.5t43.5 -110t19 -133t6.5 -88.5q18 -261 15.5 -539.5t-7.5 -540.5q-2 -108 -4.5 -216t-2.5 -216q0 -40 -40 -40t-40 40q0 96 5.5 356t6 550t-10 541.5t-43.5 329.5q-47 -67 -97.5 -259t-65.5 -255
q-10 -40 -48 -30q-41 9 -30 49z" />
    <glyph glyph-name="two" unicode="2" horiz-adv-x="831" 
d="M155 1544q10 178 129 290q137 128 278 86.5t170 -239.5q30 -214 -54 -471t-168 -449q-68 -153 -139 -304t-140 -303l520 2q41 0 41 -40q0 -41 -41 -41q-3 0 -94 -0.5t-199.5 -1t-198 -0.5h-89.5q-59 10 -30 75q74 166 152.5 331.5t152.5 333.5q76 175 155.5 418t51.5 439
q-17 114 -87.5 161.5t-178.5 -19.5q-141 -89 -150 -268q0 -41 -41 -41q-40 0 -40 41z" />
    <glyph glyph-name="three" unicode="3" horiz-adv-x="707" 
d="M165 1580q-35 99 -14.5 192t122.5 147q130 69 250 0t93 -235q-16 -99 -79.5 -203.5t-129.5 -182.5q80 -46 151 -189q87 -180 101.5 -348t-43.5 -360q-32 -106 -124.5 -255t-229.5 -112q-94 26 -141.5 130.5t-70.5 188.5q-11 39 29 49q37 10 49 -28q15 -57 61.5 -167.5
t127.5 -95.5q90 15 152.5 147.5t82.5 212.5q39 157 27 287.5t-76 278.5q-15 30 -64 115.5t-93 82.5q-43 -34 -68 1q-35 46 31 73q65 65 139 181.5t89 206.5q15 93 -39 141t-142 26q-97 -24 -121.5 -97.5t5.5 -158.5q14 -38 -23 -52q-38 -15 -52 24z" />
    <glyph glyph-name="four" unicode="4" horiz-adv-x="439" 
d="M311 1625q-72 -179 -157.5 -351t-163.5 -346q66 4 146.5 0.5t149.5 -15.5zM366 893q12 -4 17 -6q36 -20 17 -55q-11 -22 -37 -22l-25 -719q-2 -41 -42 -39q-39 0 -39 41l26 740q-57 10 -123 13t-111 3q-12 0 -72 -5t-65 -2q-34 11 -25.5 40t17.5 50q101 228 214 453.5
t188 466.5q2 11 13 20l1 17q1 40 42 39q39 -2 39 -42z" />
    <glyph glyph-name="five" unicode="5" horiz-adv-x="726" 
d="M605 1807q-99 -9 -175.5 -7.5t-175.5 10.5q-8 0 -33 1.5t-32 -1.5q-7 -11 -7 -67.5t2.5 -124t5.5 -129t4 -81.5q1 -43 1.5 -86t1.5 -85q141 36 258.5 -48t169.5 -220q67 -176 39 -381.5t-86 -376.5q-42 -128 -167 -149q-126 -21 -212 60.5t-125 188.5l-7 21l-7 21
q-15 38 24 51q37 14 52 -24l7 -21q27 -78 80.5 -149.5t149.5 -70.5q97 1 129 97q49 147 77 321t-11 328q-30 114 -119.5 207.5t-218.5 70.5q-30 -5 -60.5 -19.5t-47.5 17.5q-7 12 -6.5 67.5t0.5 72.5q-3 107 -8.5 214t-6.5 213q-3 103 27.5 137t132.5 25q95 -8 168 -10
t168 7q40 3 44 -36q3 -41 -36 -44z" />
    <glyph glyph-name="six" unicode="6" horiz-adv-x="628" 
d="M448 1550q-4 48 -32 159t-97 105q-79 -8 -126 -145.5t-59 -203.5q-28 -150 -29 -377q79 57 175.5 80.5t181.5 -50.5q73 -65 105 -182t31 -248t-31 -255t-79 -201q-53 -83 -139.5 -119.5t-161.5 55.5q-80 98 -116.5 318t-43.5 441v3v5q-5 126 -2 235.5t11 179.5
q6 57 22.5 147t49 176t82 150.5t122.5 71.5q120 11 164.5 -120t51.5 -219q3 -42 -37 -43q-40 -4 -43 37zM107 928q6 -174 29 -339.5t65 -275.5q25 -69 67 -112.5t114 26.5q60 58 95.5 181t39.5 256t-26.5 249t-102.5 160q-60 35 -126.5 8t-114.5 -62q-30 -22 -32 -35.5
t-8 -55.5z" />
    <glyph glyph-name="seven" unicode="7" horiz-adv-x="670" 
d="M32 1883q134 -26 230.5 -18t228.5 45q51 14 99.5 11.5t48.5 -77.5q0 -32 -21 -112.5t-48 -174t-53.5 -180t-38.5 -129.5q-50 -170 -99 -341.5t-96 -342.5q-24 -85 -60 -222.5t-38 -221.5q3 -41 -38 -42q-41 -4 -42 38q1 94 33 219.5t58 218.5q44 159 90 318t91 318
q10 34 38.5 128t59 200t55.5 199.5t28 126.5q-12 -3 -25.5 -6.5t-19.5 -4.5q-141 -40 -247 -48.5t-250 18.5q-38 9 -30 48t46 32z" />
    <glyph glyph-name="eight" unicode="8" horiz-adv-x="590" 
d="M336 1120l-2 -1q74 -104 149 -226t78 -227q1 -64 -6.5 -163t-33 -195t-73 -170t-124.5 -88q-120 -22 -200 87t-108 205q-63 217 -1.5 419t208.5 360q-1 2 -1 6q-2 6 0 11q-9 12 -17 23.5t-15 22.5q-110 164 -161 351.5t178 315.5q179 99 238 -33.5t53 -270.5
q-5 -90 -41 -228.5t-121 -198.5zM277 1061q-130 -142 -186 -322t2 -374q18 -62 76.5 -156.5t139.5 -79.5q55 10 89 78t53 155t24.5 173t4.5 132q-3 77 -69 187.5t-134 206.5zM287 1185q3 3 5 4l1.5 1.5l2.5 2.5q1 0 2 1t3 2q31 28 50.5 73t31.5 80q23 75 34 231t-56 213
q-38 32 -98.5 -2.5t-87.5 -59.5q-121 -111 -47.5 -265.5t143.5 -257.5q3 -6 7 -11.5t9 -11.5z" />
    <glyph glyph-name="nine" unicode="9" horiz-adv-x="594" 
d="M401 1835q-79 41 -143 -33q-66 -76 -102 -244.5t33 -249.5q37 -43 103 -28.5t99 50.5q69 76 71.5 237.5t-45.5 247.5l-13 18q-1 0 -3 2zM536 1464q30 -261 7 -612t-124 -595q-24 -57 -77.5 -130.5t-131.5 -29.5q-60 33 -92.5 128t-47.5 158q-9 37 30 49q40 7 49 -31
q10 -45 34.5 -122.5t61.5 -107.5q27 -24 60 38.5t39 77.5q83 201 110 484.5t15 526.5q-52 -68 -136 -90q-145 -41 -206.5 48.5t-58.5 222.5t60 264.5t149 174.5q48 22 85.5 15t82.5 -31q4 -2 7 -5q8 -5 13 -11l22 -31q42 -72 52 -177t-1 -187q-1 -6 -2 -11t-1 -10
q0 -2 0.5 -3.5t0.5 -2.5z" />
    <glyph glyph-name="semicolon" unicode=";" horiz-adv-x="226" 
d="M184 794q-24 -42 -47 -76t-50 -73q-23 -34 -55 -10q-34 21 -11 56q24 36 47 69t45 72q17 35 54 17q34 -20 17 -55zM111 1115q-36 -9 -11 -31q0 -1 1 -1.5t2 -0.5q10 3 22 29q-3 1 -5 2t-4 3q-1 -1 -5 -1zM61 1180q11 24 40 23q33 -8 55 -17q55 -27 57.5 -56.5
t-32.5 -81.5q-26 -39 -69 -46t-74 31q-76 93 23 147z" />
    <glyph glyph-name="less" unicode="&#x3c;" horiz-adv-x="852" 
d="M774 1146l-687 -242q114 -56 336 -140.5t300 -119.5q27 -12 30.5 -14t26.5 -15q32 -24 9 -56q-25 -34 -56 -9q-30 15 -61 29q-144 60 -290.5 115t-288.5 119q-28 12 -85.5 40.5t-49.5 69.5q6 27 69.5 56t138 52.5t136 39t63.5 16.5l382 135q38 12 51 -25q14 -37 -24 -51z
" />
    <glyph glyph-name="greater" unicode="&#x3e;" horiz-adv-x="1076" 
d="M119 1295q9 -3 145 -45t297 -92t295.5 -92.5t140.5 -46.5q28 -23 11 -47.5t-38 -36.5q-64 -37 -182 -78.5t-191 -67.5q-103 -36 -209.5 -71.5t-205.5 -74.5q-25 -10 -28 -11.5t-20 -9.5q-34 -23 -56 11t12 56q24 13 28 15t35 14q39 15 131.5 47t200.5 69.5t213.5 75.5
t172.5 67l-776 241q-39 12 -26 51q11 38 50 26z" />
    <glyph glyph-name="question" unicode="?" horiz-adv-x="930" 
d="M358 285q-59 -36 -44 -98q20 -85 86.5 -7.5t61.5 105.5q-10 6 -24.5 -1.5t-21.5 -10.5q-33 -24 -56 9q-2 2 -2 3zM135 1655q0 175 142 289q98 78 213.5 101.5t207.5 -11t140 -128t11 -247.5q-30 -123 -95.5 -169t-164.5 -97q-111 -58 -146 -141.5t-40 -202.5
q-4 -85 3.5 -158.5t16.5 -155.5q12 -106 14 -210q-6 -40 -45 -34q-42 5 -34 46h-1q-4 50 -7.5 104.5t-9.5 104.5q-5 36 -9 75t-6 80q-5 71 -3 143t16 138q29 142 94 198t135 90.5t130 79t80 163.5q36 224 -125 252.5t-300 -65.5q-138 -94 -136 -240q1 -35 -32 -42
q-2 -1 -6 -1q-40 -4 -43 38zM445 367q30 3 57 -12q66 -39 33.5 -110t-65.5 -110q-78 -89 -158.5 -60t-80.5 131q-1 79 50 121.5t121 60.5q29 4 43 -21z" />
    <glyph glyph-name="at" unicode="@" horiz-adv-x="1568" 
d="M1034 1331q-195 70 -359.5 -94t-232.5 -320q-18 -42 -43.5 -147t62.5 -99q74 4 149.5 58.5t118.5 111.5q71 95 103 207.5t43 229.5q1 7 18 29l57 -11q3 -18 5 -29l0.5 1t0.5 2q0 -1 -0.5 -2.5l-0.5 -1.5q4 -33 4 -70.5t4 -69.5q15 -121 71.5 -164.5t158.5 67.5
q127 139 148.5 348.5t-114.5 358.5q-190 206 -440 124.5t-410 -255.5q-112 -122 -189 -285.5t-100 -337.5t18 -342.5t165 -298.5q138 -146 319.5 -164t343.5 99q126 91 276 265t196 325q11 38 50 28q38 -12 28 -50q-51 -166 -207.5 -349.5t-295.5 -283.5
q-175 -127 -376.5 -116t-361.5 161q-269 249 -242 627t219 655q141 202 391 344.5t502 32.5q191 -84 265.5 -266.5t26.5 -377.5q-27 -109 -116 -250.5t-214 -148.5q-70 -4 -110 37.5t-59 103.5q-67 -198 -198 -312q-63 -54 -187.5 -101t-179.5 47q-67 114 23 292.5
t167 266.5q102 117 238 187t295 13q38 -15 22 -53q-15 -37 -52 -22z" />
    <glyph glyph-name="A" unicode="A" horiz-adv-x="698" 
d="M581 115q-12 99 -23.5 199t-23.5 201q-104 -9 -198.5 -46.5t-183.5 -90.5q0 -69 -0.5 -139t-1.5 -137q-4 -41 -44 -37q-41 3 -37 43q1 120 3.5 373t17 526t45.5 509t90 323q36 54 85.5 54.5t88.5 -51.5q27 -37 48 -155.5t30 -169.5q57 -343 100.5 -695.5t84.5 -697.5
q3 -40 -36 -45q-40 -4 -45 36zM525 595q-28 228 -59.5 456t-67.5 453q-6 33 -27 148t-35 139q-10 19 -27 22q-30 -9 -54.5 -114t-29.5 -132q-41 -241 -54 -528.5t-17 -533.5q-1 -11 -1 -33q87 48 179 81t193 42z" />
    <glyph glyph-name="B" unicode="B" horiz-adv-x="710" 
d="M106 1819l11 -121q89 94 216.5 177t232.5 -2q69 -57 90 -165.5t13.5 -230.5t-33 -238t-47.5 -187q-44 -134 -106 -258.5t-149 -232.5q162 11 220 -156q60 -174 -34.5 -270t-259.5 -38q1 -39 -37 -42q-42 -4 -43 36l-24.5 268.5t-53 591.5t-52.5 592l-24 269q-4 40 36 44
q40 3 44 -37zM127 1589l93 -1039q175 184 282.5 498.5t85.5 563.5q-14 153 -67 192.5t-122 13t-143 -95.5t-129 -133zM228 458l24 -271q1 -1 2.5 -2t3.5 -1q95 -39 174 -13t60 150q-36 229 -257 129l-1 1h-1l-1 2z" />
    <glyph glyph-name="C" unicode="C" horiz-adv-x="632" 
d="M393 1724q-18 43 -77 75t-106 -13q-71 -69 -89 -250.5t-23 -276.5q-6 -107 -5.5 -252.5t18.5 -294t60 -282t119 -214.5q84 -91 157.5 -55.5t71.5 151.5l-2 33q-6 39 35 45q39 5 45 -34l3 -42q2 -111 -69 -192t-187 -39q-90 31 -149.5 119t-96.5 197.5t-55 223t-24 196.5
q-12 160 -3 440.5t54 428.5q32 111 110.5 177t195.5 -8q69 -43 96 -118q7 -40 -32 -47q-40 -9 -47 32z" />
    <glyph glyph-name="D" unicode="D" horiz-adv-x="722" 
d="M137 1839l3 -158q48 77 116 130.5t154 12.5q82 -41 136 -158.5t85 -259.5t43.5 -281.5t13.5 -222.5q0 -93 -12.5 -231t-53.5 -264t-119.5 -212t-208.5 -74q-61 6 -129 38l1 -72q1 -41 -39 -41q-41 0 -42 40l-4.5 273.5t-10 602t-9.5 602.5l-4 274q0 39 39 41q41 0 41 -40
zM143 1513l20 -1264q8 -2 11 -4l18 -10q142 -71 225.5 -4t126 192.5t53.5 271t10 232.5q-2 75 -12.5 190.5t-34.5 235t-62.5 223.5t-95.5 156q-86 78 -158.5 -40.5t-99.5 -176.5q0 -1 -0.5 -1.5z" />
    <glyph glyph-name="E" unicode="E" horiz-adv-x="535" 
d="M54 1856l12 24l29 -8l261 7q40 1 42 -39q0 -41 -39 -41l-222 -7q0 -29 0.5 -57.5t0.5 -44.5q7 -270 13.5 -543.5t18.5 -545.5q60 7 114.5 5.5t116.5 9.5q39 8 48 -30q8 -40 -30 -48q-69 -12 -126 -10t-120 -7v0q4 -124 12 -247q1 -27 3 -70t6 -78l258 65q38 9 49 -30
q9 -39 -30 -49l-149 -37q-2 0 -79.5 -25.5t-104.5 -4.5q-22 16 -25 69t-4 79q-17 243 -24 492.5t-14 493.5q-4 155 -7 312.5t-9 312.5q-10 11 -10 26t9 26z" />
    <glyph glyph-name="F" unicode="F" horiz-adv-x="502" 
d="M114 1764l81 -1167l231 36q40 5 46 -34q7 -41 -34 -46l-237 -37l28 -407q3 -40 -37 -43q-42 -2 -43 38l-117 1671q-6 8 -7 19q-4 28 22 41q9 6 21 8q5 0 13 -2l331 38q40 5 44 -35q5 -40 -35 -45z" />
    <glyph glyph-name="G" unicode="G" horiz-adv-x="656" 
d="M281 529q53 15 152 46t144 -8q48 -44 10 -120t-63 -117q-46 -78 -147 -192t-206 -21q-84 74 -119 296t-38 480.5t18.5 497.5t51.5 346q27 97 123 144q85 42 158 7.5t85 -131.5l1 -31q0 -39 -41 -39q-40 0 -40 41q-6 140 -128 81q-47 -24 -61 -45.5t-25 -68.5
q-28 -117 -44 -309.5t-17 -399.5t16 -398t55 -304q30 -90 69.5 -115t113.5 54q29 31 98.5 135.5t73.5 147.5q-31 3 -110.5 -22t-109.5 -33q-39 -11 -49 29q-11 38 29 49z" />
    <glyph glyph-name="H" unicode="H" horiz-adv-x="744" 
d="M121 1799l128 -1364l338 64l-119 1330q-4 39 37 43q41 3 43 -36l24.5 -275.5t54 -606t54.5 -605.5l25 -275q3 -41 -37 -44q-40 -4 -43 37l-32 351l-337 -63l27 -281q3 -41 -37 -44q-41 -4 -44 36l-30 318v0l-132 1407q-4 40 36 44q40 3 44 -36z" />
    <glyph glyph-name="I" unicode="I" horiz-adv-x="269" 
d="M101 1829l23.5 -263t52.5 -579t53 -578.5l24 -262.5q3 -41 -37 -44q-41 -4 -44 37l-24 262.5t-53 578.5t-52.5 579l-23.5 263q-2 40 37 44q40 3 44 -37z" />
    <glyph glyph-name="J" unicode="J" horiz-adv-x="487" 
d="M78 469q25 -63 58 -178.5t76 -158.5q19 -21 50 9q79 78 99.5 306t13 496t-27 519t-19.5 374q1 40 42 39q40 0 39 -41q0 -120 11 -251t19 -251q5 -94 15 -280.5t3.5 -385t-40.5 -368t-116 -229.5q-69 -50 -117.5 -16t-82.5 103t-55.5 148.5t-35.5 121.5q-20 33 13 55
q33 20 55 -12z" />
    <glyph glyph-name="K" unicode="K" horiz-adv-x="727" 
d="M124 1806q0 -319 21 -632t45 -628q203 114 286.5 258.5t104 312t4.5 353.5t-11 383q0 40 41 40q40 -2 39 -42q-4 -183 11 -366.5t-2.5 -355t-92.5 -326t-258 -277.5q-17 -12 -33.5 -22t-31.5 -19q27 -21 53.5 -46t50.5 -46q67 -60 152 -136.5t157 -126.5q33 -22 12 -55
q-23 -35 -55 -13l-22.5 15t-22.5 18q-96 76 -188 161t-185 164q5 -71 9.5 -141.5t9.5 -141.5q2 -34 1 -72q0 -41 -40 -41t-40 41v33.5t-1 33.5q-6 86 -12 171.5t-12 171.5q0 1 -0.5 3t-0.5 5q-24 330 -46.5 658.5t-22.5 664.5q0 40 40 40t40 -40z" />
    <glyph glyph-name="L" unicode="L" horiz-adv-x="696" 
d="M101 1873l66 -1707l449 43q40 3 44 -36q3 -41 -36 -44q-1 0 -78 -7.5t-169 -16.5t-168 -16l-76 -7q-40 0 -45 38l-11 272t-23.5 599.5t-23 601.5t-10.5 277q-2 41 39 41q40 1 42 -38z" />
    <glyph glyph-name="M" unicode="M" horiz-adv-x="1011" 
d="M164 1712l49 -1629q1 -41 -39 -42q-40 0 -41 39l-8.5 269t-18.5 592t-18 592.5l-8 269.5q0 22 19 35q1 2 3 4q30 26 57 -4l416 -463l265 428q5 10 19 16q1 40 40 40q41 0 41 -40l3.5 -271t7.5 -596.5t8 -596l4 -270.5q0 -40 -40 -41q-40 0 -41 40l-21 1600l-240 -388
q-23 -35 -55 -13q-4 2 -5 3q-18 1 -27 13z" />
    <glyph glyph-name="N" unicode="N" horiz-adv-x="742" 
d="M126 1519l61 -1450q1 -42 -39 -42q-41 -2 -42 38l-11.5 266t-24.5 586t-24 586.5l-11 266.5q-2 40 39 42q22 1 37 -20q13 -9 18 -23l493 -1497l-26 1556q0 41 40 41q39 1 41 -39l4.5 -281.5t9.5 -619.5t10 -619l5 -281q1 -38 -39 -40q-23 0 -34 17q-12 6 -15 20z" />
    <glyph glyph-name="O" unicode="O" horiz-adv-x="909" 
d="M434 1801q-72 15 -117 -18.5t-80 -92.5q-70 -118 -105 -321.5t-33.5 -422.5t41.5 -419.5t121 -311.5q90 -126 189.5 -79t180.5 136q69 78 97.5 210.5t40.5 234.5q8 75 12.5 202t-6 260t-42 249t-94.5 170q-54 44 -119 21t-102 -72q-34 -45 -44.5 -93t58.5 -66l34 -6
q39 -6 36 -45q-6 -41 -45 -35l-46 8q-115 30 -117 117t60 169q58 77 156 104t180 -41q94 -78 134 -257.5t41 -384t-29.5 -396.5t-75.5 -296q-33 -75 -107.5 -148.5t-149.5 -106.5q-108 -47 -185.5 -8t-131 120.5t-85 183t-45.5 180.5q-23 121 -32.5 293t4 349.5t56 338
t123.5 260.5q98 123 249 91q37 -11 27 -50q-12 -40 -49 -27z" />
    <glyph glyph-name="P" unicode="P" horiz-adv-x="794" 
d="M96 1873l10 -119q74 110 228 112q183 0 279.5 -156.5t123.5 -312.5q17 -104 18.5 -244t-23.5 -279.5t-82.5 -258.5t-157.5 -179q-70 -42 -140 -39t-136 33l27 -317q3 -38 -36.5 -45.5t-48.5 38.5v0l-32 393v0q-29 342 -57.5 683.5t-56.5 683.5v0q0 39 33.5 45t47.5 -27
q3 -9 3 -11v0zM121 1571q21 -261 43 -521.5t44 -520.5q221 -122 352 100q56 96 86.5 254t24.5 324t-53 312t-145 217q-90 64 -200.5 37t-129.5 -149l-2 -20v2q-3 -23 -20 -35z" />
    <glyph glyph-name="Q" unicode="Q" horiz-adv-x="857" 
d="M9 972l15 235q3 35 10 72q11 69 25 136.5t38 132.5q50 138 114 217q98 121 219 123h5q49 -2 102 -19q25 -10 39 -16q24 -15 18.5 -45.5t-36.5 -30.5q-10 0 -32 9q-17 6 -28 9q-102 27 -179 -33q-57 -45 -99 -137.5t-62 -162.5q-51 -180 -64 -396.5t12 -416.5
q7 -60 20 -121q11 -59 35 -138.5t54 -128.5q3 -6 6 -11.5t7 -10.5q44 -68 81 -95q110 -83 208 4q41 37 65 83q-16 23 -66 86.5t-73 93.5q-14 18 -14 31q0 43 39 43q21 0 48 -35q9 -12 52.5 -69.5t50.5 -61.5q4 18 10 36.5t11 38.5q9 45 18.5 103t11.5 104q0 8 1 22t3 22
l2 46v24v24q0 11 1 21t1 24l-2 45v23v24l-4 68v22q-1 8 -2.5 21t-1.5 22q-1 21 -3.5 43.5t-4.5 44.5q-9 84 -31 196t-55 193q-10 24 -45 85.5t-61 -3.5q-15 -36 -13 -61t-4 -37q-13 -27 -45.5 -22t-32.5 38v29q0 71 52 133.5t127 13.5q42 -28 79 -101q41 -84 61.5 -178.5
t35.5 -186.5q8 -48 13 -96.5t9 -96.5v-9.5v-8.5q2 -14 2 -17l4 -67v-36q0 -9 1 -15.5t1 -16.5l-10 -277q-8 -78 -17 -127q-9 -46 -20.5 -91.5t-28.5 -87.5q-4 -10 3 -19q23 -27 44 -56.5t44 -56.5q9 -12 26.5 -34t17.5 -36q0 -43 -36 -43q-25 0 -49 32q-10 13 -50.5 63.5
t-42.5 58.5q-4 -2 -11 -12q-9 -14 -29 -36q-4 -4 -5.5 -6.5t-4.5 -5.5l-36 -29q-62 -44 -161 -44q-45 0 -87.5 22t-71.5 52q-90 87 -137.5 232t-64.5 265q-15 102 -18.5 186t-3.5 189z" />
    <glyph glyph-name="R" unicode="R" horiz-adv-x="724" 
d="M83 1854l5 -74q92 75 199.5 103t214.5 -70q136 -127 162 -386.5t-8 -430.5q-18 -89 -54.5 -175.5t-105.5 -146.5t-114.5 -91.5t-110.5 -43.5l363 -251q33 -21 11 -56q-24 -34 -56 -10l-399 275l31 -391q3 -41 -37 -44q-40 -4 -43 37l-124 1560q-23 23 -4 52l-11 137
q-2 41 37 43q40 3 44 -37zM96 1680l85 -1068q69 1 109 15q35 11 94 57t86 76q123 138 126.5 413t-62.5 440q-80 198 -195 191.5t-243 -124.5z" />
    <glyph glyph-name="S" unicode="S" horiz-adv-x="535" 
d="M163 311q-33 -40 -37.5 -79.5t49.5 -66.5q66 -36 128.5 -5.5t91.5 94.5q50 111 20 263t-92 312.5t-133 312.5t-103 264q-47 159 -10 278.5t207 179.5q125 43 186 -60q39 -68 26.5 -140t-46.5 -137q-20 -35 -55 -14q-36 20 -14 55l14 27q18 41 21 105t-42 91
q-33 18 -95 -15t-83 -54q-93 -90 -46 -243.5t90 -252.5q42 -98 106 -239.5t109 -291.5t50 -292t-71 -241q-65 -84 -176.5 -94.5t-177.5 71.5q-48 58 -33.5 116t56.5 110q27 30 57 3q29 -27 3 -57z" />
    <glyph glyph-name="T" unicode="T" horiz-adv-x="763" 
d="M383 1821l28 -1704q1 -41 -39 -41q-41 0 -41 40l-28 1701l-308 -15q-39 -2 -43 39q-1 40 39 42q140 6 213 9.5t132.5 6.5t133 6.5t214.5 10.5q40 1 42 -39q1 -41 -38 -42z" />
    <glyph glyph-name="U" unicode="U" horiz-adv-x="849" 
d="M109 1834q-10 -163 -12 -390.5t17.5 -462.5t66.5 -449.5t134 -350.5q6 -9 27 -38t37 -15q55 48 90 269t56 486t31 507.5t17 333.5q2 24 11 79t59 36q28 -12 31 -51.5t5 -63.5q9 -156 9 -324.5t2 -324.5q1 -116 12 -227q15 -162 30.5 -333t41.5 -330q2 -18 6 -36t7 -33
q22 -34 -10 -57q-33 -22 -56 10q-14 31 -18 50.5t-9 52.5q-26 161 -42 333t-31 335q-7 74 -8 120q-16 -228 -42 -438t-72 -340q-43 -120 -112 -137.5t-140 93.5q-92 143 -141.5 363t-70 460t-19.5 473t12 404q1 41 43 38q39 -2 38 -42z" />
    <glyph glyph-name="V" unicode="V" horiz-adv-x="870" 
d="M64 1793l422 -1545l257 1626q5 40 46 33q40 -6 33 -46l-44.5 -280t-97.5 -616t-97 -616l-44 -280q-6 -39 -46 -33q-10 1 -18 8q-20 6 -24 27l-72.5 265.5t-159.5 584.5t-159.5 585l-72.5 266q-11 39 27 49q39 10 50 -28z" />
    <glyph glyph-name="W" unicode="W" horiz-adv-x="1205" 
d="M90 1823l297 -1555l167 480q12 37 51 25l0.5 -0.5l0.5 -0.5q32 6 45 -24l191 -487l222 1607q5 39 45 34q39 -6 34 -45l-38 -275t-83.5 -604.5t-83 -604l-37.5 -274.5q-6 -41 -46 -35q-16 3 -24 13q-3 3 -9 13l-218 557l-191 -547q0 -3 -1 -4v0v-1v0l-1 -1q-3 -8 -9 -12
l-1 -1v0q-6 -4 -13 -7v0h-0.5h-0.5v0v0q-1 0 -1 -1v0q-4 -1 -12 -1v0h-1v0h-1v0h-0.5h-0.5v0l-12 3v0l-1 1v0v0q-8 2 -13 10h-1v1q-4 3 -7 12v0v0.5v0.5v0v1q-1 0 -1 1v0q0 2 -1 3l-324 1703q-8 39 32 47q39 8 47 -32z" />
    <glyph glyph-name="X" unicode="X" horiz-adv-x="736" 
d="M76 1852l317 -912l207 943q9 39 48 31q38 -9 31 -48l-235 -1071l243 -700q14 -39 -24 -51q-40 -15 -52 24l-200 577l-119 -541q-8 -41 -48 -31q-40 9 -30 48l146 669l-360 1036q-12 38 25 51q37 14 51 -25z" />
    <glyph glyph-name="Y" unicode="Y" horiz-adv-x="705" 
d="M148 1821q-17 -176 33 -479t106 -473q13 -42 62.5 -171t88.5 -138q25 12 45.5 83t35.5 156.5t24 163.5t12 106q18 189 26.5 387.5t9.5 390.5q0 40 40 40q41 0 41 -40q-1 -94 -7 -307t-25 -437q0 -3 0.5 -4.5t0.5 -3.5q2 -86 2.5 -244.5t-21 -320t-74.5 -291.5t-156 -160
l-31 -6q-41 -6 -44 36q-6 40 35 44l18 4q80 23 120.5 149t57.5 281q-27 -64 -53 -85q-54 -46 -101.5 -10.5t-85 103t-63 142t-35.5 107.5q-59 180 -109.5 490.5t-32.5 498.5q5 39 46 34q39 -8 34 -46z" />
    <glyph glyph-name="Z" unicode="Z" horiz-adv-x="666" 
d="M20 1893q10 0 70 4t129 8t127 6.5t66 -0.5q25 -11 25 -42l-138 -1250l217 -3q40 0 40 -41t-41 -39l-225 2l-43 -388l348 1q40 0 40 -41q0 -40 -40 -40h-62.5h-135h-134.5h-61q-32 3 -39 28q-6 18 7 151t32 290l-157 2q-41 1 -39 41q0 40 40 40l165 -2q18 148 33 262
l15 114l93 835l-327 -19q-38 -2 -42 38q-1 39 37 43z" />
    <glyph glyph-name="bracketleft" unicode="[" horiz-adv-x="344" 
d="M288 1915q-30 1 -84.5 6t-70.5 -21q-15 -24 -15 -73l-25 -1682q40 -1 84.5 1t83.5 2v0v0q40 0 40 -40t-40 -40q-38 -1 -75.5 -1.5t-74.5 -0.5q-29 0 -62.5 1t-36.5 41l3.5 268t8.5 590t9 591t4 272q1 39 7 64q24 98 95 102t149 1q40 0 40 -41q0 -40 -40 -40v0z" />
    <glyph glyph-name="backslash" unicode="\" horiz-adv-x="1143" 
d="M89 1996l153.5 -288t337.5 -634t338 -633.5l154 -287.5q17 -36 -17 -55q-37 -19 -54 17l-154 287.5t-338 633.5t-337.5 634l-153.5 288q-18 36 17 54q34 20 54 -16z" />
    <glyph glyph-name="bracketright" unicode="]" horiz-adv-x="357" 
d="M91 2004q75 3 137.5 -2.5t83.5 -101.5q4 -24 6 -64q0 -3 3 -272t7.5 -591t8 -590l3.5 -268q-4 -39 -34.5 -40.5t-57.5 -0.5q-34 0 -67 0.5t-66 0.5q-40 0 -40 41q0 40 40 40q35 0 71.5 -1t72.5 -1l-22 1681q-1 17 -3.5 41.5t-14.5 39.5q-15 16 -61 11.5t-67 -4.5
q-40 0 -40 40q0 41 40 41z" />
    <glyph glyph-name="underscore" unicode="_" horiz-adv-x="1338" 
d="M36 170h266h333h333h267q40 0 40 -40q0 -41 -40 -41h-267h-333h-333h-266q-39 0 -39 41q0 40 39 40z" />
    <glyph glyph-name="a" unicode="a" horiz-adv-x="698" 
d="M581 115q-12 99 -23.5 199t-23.5 201q-104 -9 -198.5 -46.5t-183.5 -90.5q0 -69 -0.5 -139t-1.5 -137q-4 -41 -44 -37q-41 3 -37 43q1 120 3.5 373t17 526t45.5 509t90 323q36 54 85.5 54.5t88.5 -51.5q27 -37 48 -155.5t30 -169.5q57 -343 100.5 -695.5t84.5 -697.5
q3 -40 -36 -45q-40 -4 -45 36zM525 595q-28 228 -59.5 456t-67.5 453q-6 33 -27 148t-35 139q-10 19 -27 22q-30 -9 -54.5 -114t-29.5 -132q-41 -241 -54 -528.5t-17 -533.5q-1 -11 -1 -33q87 48 179 81t193 42z" />
    <glyph glyph-name="b" unicode="b" horiz-adv-x="710" 
d="M106 1819l11 -121q89 94 216.5 177t232.5 -2q69 -57 90 -165.5t13.5 -230.5t-33 -238t-47.5 -187q-44 -134 -106 -258.5t-149 -232.5q162 11 220 -156q60 -174 -34.5 -270t-259.5 -38q1 -39 -37 -42q-42 -4 -43 36l-24.5 268.5t-53 591.5t-52.5 592l-24 269q-4 40 36 44
q40 3 44 -37zM127 1589l93 -1039q175 184 282.5 498.5t85.5 563.5q-14 153 -67 192.5t-122 13t-143 -95.5t-129 -133zM228 458l24 -271q1 -1 2.5 -2t3.5 -1q95 -39 174 -13t60 150q-36 229 -257 129l-1 1h-1l-1 2z" />
    <glyph glyph-name="c" unicode="c" horiz-adv-x="632" 
d="M393 1724q-18 43 -77 75t-106 -13q-71 -69 -89 -250.5t-23 -276.5q-6 -107 -5.5 -252.5t18.5 -294t60 -282t119 -214.5q84 -91 157.5 -55.5t71.5 151.5l-2 33q-6 39 35 45q39 5 45 -34l3 -42q2 -111 -69 -192t-187 -39q-90 31 -149.5 119t-96.5 197.5t-55 223t-24 196.5
q-12 160 -3 440.5t54 428.5q32 111 110.5 177t195.5 -8q69 -43 96 -118q7 -40 -32 -47q-40 -9 -47 32z" />
    <glyph glyph-name="d" unicode="d" horiz-adv-x="722" 
d="M137 1839l3 -158q48 77 116 130.5t154 12.5q82 -41 136 -158.5t85 -259.5t43.5 -281.5t13.5 -222.5q0 -93 -12.5 -231t-53.5 -264t-119.5 -212t-208.5 -74q-61 6 -129 38l1 -72q1 -41 -39 -41q-41 0 -42 40l-4.5 273.5t-10 602t-9.5 602.5l-4 274q0 39 39 41q41 0 41 -40
zM143 1513l20 -1264q8 -2 11 -4l18 -10q142 -71 225.5 -4t126 192.5t53.5 271t10 232.5q-2 75 -12.5 190.5t-34.5 235t-62.5 223.5t-95.5 156q-86 78 -158.5 -40.5t-99.5 -176.5q0 -1 -0.5 -1.5z" />
    <glyph glyph-name="e" unicode="e" horiz-adv-x="535" 
d="M54 1856l12 24l29 -8l261 7q40 1 42 -39q0 -41 -39 -41l-222 -7q0 -29 0.5 -57.5t0.5 -44.5q7 -270 13.5 -543.5t18.5 -545.5q60 7 114.5 5.5t116.5 9.5q39 8 48 -30q8 -40 -30 -48q-69 -12 -126 -10t-120 -7v0q4 -124 12 -247q1 -27 3 -70t6 -78l258 65q38 9 49 -30
q9 -39 -30 -49l-149 -37q-2 0 -79.5 -25.5t-104.5 -4.5q-22 16 -25 69t-4 79q-17 243 -24 492.5t-14 493.5q-4 155 -7 312.5t-9 312.5q-10 11 -10 26t9 26z" />
    <glyph glyph-name="f" unicode="f" horiz-adv-x="502" 
d="M114 1764l81 -1167l231 36q40 5 46 -34q7 -41 -34 -46l-237 -37l28 -407q3 -40 -37 -43q-42 -2 -43 38l-117 1671q-6 8 -7 19q-4 28 22 41q9 6 21 8q5 0 13 -2l331 38q40 5 44 -35q5 -40 -35 -45z" />
    <glyph glyph-name="g" unicode="g" horiz-adv-x="656" 
d="M281 529q53 15 152 46t144 -8q48 -44 10 -120t-63 -117q-46 -78 -147 -192t-206 -21q-84 74 -119 296t-38 480.5t18.5 497.5t51.5 346q27 97 123 144q85 42 158 7.5t85 -131.5l1 -31q0 -39 -41 -39q-40 0 -40 41q-6 140 -128 81q-47 -24 -61 -45.5t-25 -68.5
q-28 -117 -44 -309.5t-17 -399.5t16 -398t55 -304q30 -90 69.5 -115t113.5 54q29 31 98.5 135.5t73.5 147.5q-31 3 -110.5 -22t-109.5 -33q-39 -11 -49 29q-11 38 29 49z" />
    <glyph glyph-name="h" unicode="h" horiz-adv-x="744" 
d="M121 1799l128 -1364l338 64l-119 1330q-4 39 37 43q41 3 43 -36l24.5 -275.5t54 -606t54.5 -605.5l25 -275q3 -41 -37 -44q-40 -4 -43 37l-32 351l-337 -63l27 -281q3 -41 -37 -44q-41 -4 -44 36l-30 318v0l-132 1407q-4 40 36 44q40 3 44 -36z" />
    <glyph glyph-name="i" unicode="i" horiz-adv-x="269" 
d="M101 1829l23.5 -263t52.5 -579t53 -578.5l24 -262.5q3 -41 -37 -44q-41 -4 -44 37l-24 262.5t-53 578.5t-52.5 579l-23.5 263q-2 40 37 44q40 3 44 -37z" />
    <glyph glyph-name="j" unicode="j" horiz-adv-x="487" 
d="M78 469q25 -63 58 -178.5t76 -158.5q19 -21 50 9q79 78 99.5 306t13 496t-27 519t-19.5 374q1 40 42 39q40 0 39 -41q0 -120 11 -251t19 -251q5 -94 15 -280.5t3.5 -385t-40.5 -368t-116 -229.5q-69 -50 -117.5 -16t-82.5 103t-55.5 148.5t-35.5 121.5q-20 33 13 55
q33 20 55 -12z" />
    <glyph glyph-name="k" unicode="k" horiz-adv-x="727" 
d="M124 1806q0 -319 21 -632t45 -628q203 114 286.5 258.5t104 312t4.5 353.5t-11 383q0 40 41 40q40 -2 39 -42q-4 -183 11 -366.5t-2.5 -355t-92.5 -326t-258 -277.5q-17 -12 -33.5 -22t-31.5 -19q27 -21 53.5 -46t50.5 -46q67 -60 152 -136.5t157 -126.5q33 -22 12 -55
q-23 -35 -55 -13l-22.5 15t-22.5 18q-96 76 -188 161t-185 164q5 -71 9.5 -141.5t9.5 -141.5q2 -34 1 -72q0 -41 -40 -41t-40 41v33.5t-1 33.5q-6 86 -12 171.5t-12 171.5q0 1 -0.5 3t-0.5 5q-24 330 -46.5 658.5t-22.5 664.5q0 40 40 40t40 -40z" />
    <glyph glyph-name="l" unicode="l" horiz-adv-x="696" 
d="M101 1873l66 -1707l449 43q40 3 44 -36q3 -41 -36 -44q-1 0 -78 -7.5t-169 -16.5t-168 -16l-76 -7q-40 0 -45 38l-11 272t-23.5 599.5t-23 601.5t-10.5 277q-2 41 39 41q40 1 42 -38z" />
    <glyph glyph-name="m" unicode="m" horiz-adv-x="1011" 
d="M164 1712l49 -1629q1 -41 -39 -42q-40 0 -41 39l-8.5 269t-18.5 592t-18 592.5l-8 269.5q0 22 19 35q1 2 3 4q30 26 57 -4l416 -463l265 428q5 10 19 16q1 40 40 40q41 0 41 -40l3.5 -271t7.5 -596.5t8 -596l4 -270.5q0 -40 -40 -41q-40 0 -41 40l-21 1600l-240 -388
q-23 -35 -55 -13q-4 2 -5 3q-18 1 -27 13z" />
    <glyph glyph-name="n" unicode="n" horiz-adv-x="742" 
d="M126 1519l61 -1450q1 -42 -39 -42q-41 -2 -42 38l-11.5 266t-24.5 586t-24 586.5l-11 266.5q-2 40 39 42q22 1 37 -20q13 -9 18 -23l493 -1497l-26 1556q0 41 40 41q39 1 41 -39l4.5 -281.5t9.5 -619.5t10 -619l5 -281q1 -38 -39 -40q-23 0 -34 17q-12 6 -15 20z" />
    <glyph glyph-name="o" unicode="o" horiz-adv-x="909" 
d="M434 1801q-72 15 -117 -18.5t-80 -92.5q-70 -118 -105 -321.5t-33.5 -422.5t41.5 -419.5t121 -311.5q90 -126 189.5 -79t180.5 136q69 78 97.5 210.5t40.5 234.5q8 75 12.5 202t-6 260t-42 249t-94.5 170q-54 44 -119 21t-102 -72q-34 -45 -44.5 -93t58.5 -66l34 -6
q39 -6 36 -45q-6 -41 -45 -35l-46 8q-115 30 -117 117t60 169q58 77 156 104t180 -41q94 -78 134 -257.5t41 -384t-29.5 -396.5t-75.5 -296q-33 -75 -107.5 -148.5t-149.5 -106.5q-108 -47 -185.5 -8t-131 120.5t-85 183t-45.5 180.5q-23 121 -32.5 293t4 349.5t56 338
t123.5 260.5q98 123 249 91q37 -11 27 -50q-12 -40 -49 -27z" />
    <glyph glyph-name="p" unicode="p" horiz-adv-x="794" 
d="M96 1873l10 -119q74 110 228 112q183 0 279.5 -156.5t123.5 -312.5q17 -104 18.5 -244t-23.5 -279.5t-82.5 -258.5t-157.5 -179q-70 -42 -140 -39t-136 33l27 -317q3 -38 -36.5 -45.5t-48.5 38.5v0l-32 393v0q-29 342 -57.5 683.5t-56.5 683.5v0q0 39 33.5 45t47.5 -27
q3 -9 3 -11v0zM121 1571q21 -261 43 -521.5t44 -520.5q221 -122 352 100q56 96 86.5 254t24.5 324t-53 312t-145 217q-90 64 -200.5 37t-129.5 -149l-2 -20v2q-3 -23 -20 -35z" />
    <glyph glyph-name="q" unicode="q" horiz-adv-x="857" 
d="M9 972l15 235q3 35 10 72q11 69 25 136.5t38 132.5q50 138 114 217q98 121 219 123h5q49 -2 102 -19q25 -10 39 -16q24 -15 18.5 -45.5t-36.5 -30.5q-10 0 -32 9q-17 6 -28 9q-102 27 -179 -33q-57 -45 -99 -137.5t-62 -162.5q-51 -180 -64 -396.5t12 -416.5
q7 -60 20 -121q11 -59 35 -138.5t54 -128.5q3 -6 6 -11.5t7 -10.5q44 -68 81 -95q110 -83 208 4q41 37 65 83q-16 23 -66 86.5t-73 93.5q-14 18 -14 31q0 43 39 43q21 0 48 -35q9 -12 52.5 -69.5t50.5 -61.5q4 18 10 36.5t11 38.5q9 45 18.5 103t11.5 104q0 8 1 22t3 22
l2 46v24v24q0 11 1 21t1 24l-2 45v23v24l-4 68v22q-1 8 -2.5 21t-1.5 22q-1 21 -3.5 43.5t-4.5 44.5q-9 84 -31 196t-55 193q-10 24 -45 85.5t-61 -3.5q-15 -36 -13 -61t-4 -37q-13 -27 -45.5 -22t-32.5 38v29q0 71 52 133.5t127 13.5q42 -28 79 -101q41 -84 61.5 -178.5
t35.5 -186.5q8 -48 13 -96.5t9 -96.5v-9.5v-8.5q2 -14 2 -17l4 -67v-36q0 -9 1 -15.5t1 -16.5l-10 -277q-8 -78 -17 -127q-9 -46 -20.5 -91.5t-28.5 -87.5q-4 -10 3 -19q23 -27 44 -56.5t44 -56.5q9 -12 26.5 -34t17.5 -36q0 -43 -36 -43q-25 0 -49 32q-10 13 -50.5 63.5
t-42.5 58.5q-4 -2 -11 -12q-9 -14 -29 -36q-4 -4 -5.5 -6.5t-4.5 -5.5l-36 -29q-62 -44 -161 -44q-45 0 -87.5 22t-71.5 52q-90 87 -137.5 232t-64.5 265q-15 102 -18.5 186t-3.5 189z" />
    <glyph glyph-name="r" unicode="r" horiz-adv-x="724" 
d="M83 1854l5 -74q92 75 199.5 103t214.5 -70q136 -127 162 -386.5t-8 -430.5q-18 -89 -54.5 -175.5t-105.5 -146.5t-114.5 -91.5t-110.5 -43.5l363 -251q33 -21 11 -56q-24 -34 -56 -10l-399 275l31 -391q3 -41 -37 -44q-40 -4 -43 37l-124 1560q-23 23 -4 52l-11 137
q-2 41 37 43q40 3 44 -37zM96 1680l85 -1068q69 1 109 15q35 11 94 57t86 76q123 138 126.5 413t-62.5 440q-80 198 -195 191.5t-243 -124.5z" />
    <glyph glyph-name="s" unicode="s" horiz-adv-x="535" 
d="M163 311q-33 -40 -37.5 -79.5t49.5 -66.5q66 -36 128.5 -5.5t91.5 94.5q50 111 20 263t-92 312.5t-133 312.5t-103 264q-47 159 -10 278.5t207 179.5q125 43 186 -60q39 -68 26.5 -140t-46.5 -137q-20 -35 -55 -14q-36 20 -14 55l14 27q18 41 21 105t-42 91
q-33 18 -95 -15t-83 -54q-93 -90 -46 -243.5t90 -252.5q42 -98 106 -239.5t109 -291.5t50 -292t-71 -241q-65 -84 -176.5 -94.5t-177.5 71.5q-48 58 -33.5 116t56.5 110q27 30 57 3q29 -27 3 -57z" />
    <glyph glyph-name="t" unicode="t" horiz-adv-x="763" 
d="M383 1821l28 -1704q1 -41 -39 -41q-41 0 -41 40l-28 1701l-308 -15q-39 -2 -43 39q-1 40 39 42q140 6 213 9.5t132.5 6.5t133 6.5t214.5 10.5q40 1 42 -39q1 -41 -38 -42z" />
    <glyph glyph-name="u" unicode="u" horiz-adv-x="849" 
d="M109 1834q-10 -163 -12 -390.5t17.5 -462.5t66.5 -449.5t134 -350.5q6 -9 27 -38t37 -15q55 48 90 269t56 486t31 507.5t17 333.5q2 24 11 79t59 36q28 -12 31 -51.5t5 -63.5q9 -156 9 -324.5t2 -324.5q1 -116 12 -227q15 -162 30.5 -333t41.5 -330q2 -18 6 -36t7 -33
q22 -34 -10 -57q-33 -22 -56 10q-14 31 -18 50.5t-9 52.5q-26 161 -42 333t-31 335q-7 74 -8 120q-16 -228 -42 -438t-72 -340q-43 -120 -112 -137.5t-140 93.5q-92 143 -141.5 363t-70 460t-19.5 473t12 404q1 41 43 38q39 -2 38 -42z" />
    <glyph glyph-name="v" unicode="v" horiz-adv-x="870" 
d="M64 1793l422 -1545l257 1626q5 40 46 33q40 -6 33 -46l-44.5 -280t-97.5 -616t-97 -616l-44 -280q-6 -39 -46 -33q-10 1 -18 8q-20 6 -24 27l-72.5 265.5t-159.5 584.5t-159.5 585l-72.5 266q-11 39 27 49q39 10 50 -28z" />
    <glyph glyph-name="w" unicode="w" horiz-adv-x="1205" 
d="M90 1823l297 -1555l167 480q12 37 51 25l0.5 -0.5l0.5 -0.5q32 6 45 -24l191 -487l222 1607q5 39 45 34q39 -6 34 -45l-38 -275t-83.5 -604.5t-83 -604l-37.5 -274.5q-6 -41 -46 -35q-16 3 -24 13q-3 3 -9 13l-218 557l-191 -547q0 -3 -1 -4v0v-1v0l-1 -1q-3 -8 -9 -12
l-1 -1v0q-6 -4 -13 -7v0h-0.5h-0.5v0v0q-1 0 -1 -1v0q-4 -1 -12 -1v0h-1v0h-1v0h-0.5h-0.5v0l-12 3v0l-1 1v0v0q-8 2 -13 10h-1v1q-4 3 -7 12v0v0.5v0.5v0v1q-1 0 -1 1v0q0 2 -1 3l-324 1703q-8 39 32 47q39 8 47 -32z" />
    <glyph glyph-name="x" unicode="x" horiz-adv-x="736" 
d="M76 1852l317 -912l207 943q9 39 48 31q38 -9 31 -48l-235 -1071l243 -700q14 -39 -24 -51q-40 -15 -52 24l-200 577l-119 -541q-8 -41 -48 -31q-40 9 -30 48l146 669l-360 1036q-12 38 25 51q37 14 51 -25z" />
    <glyph glyph-name="y" unicode="y" horiz-adv-x="705" 
d="M148 1821q-17 -176 33 -479t106 -473q13 -42 62.5 -171t88.5 -138q25 12 45.5 83t35.5 156.5t24 163.5t12 106q18 189 26.5 387.5t9.5 390.5q0 40 40 40q41 0 41 -40q-1 -94 -7 -307t-25 -437q0 -3 0.5 -4.5t0.5 -3.5q2 -86 2.5 -244.5t-21 -320t-74.5 -291.5t-156 -160
l-31 -6q-41 -6 -44 36q-6 40 35 44l18 4q80 23 120.5 149t57.5 281q-27 -64 -53 -85q-54 -46 -101.5 -10.5t-85 103t-63 142t-35.5 107.5q-59 180 -109.5 490.5t-32.5 498.5q5 39 46 34q39 -8 34 -46z" />
    <glyph glyph-name="z" unicode="z" horiz-adv-x="666" 
d="M20 1893q10 0 70 4t129 8t127 6.5t66 -0.5q25 -11 25 -42l-138 -1250l217 -3q40 0 40 -41t-41 -39l-225 2l-43 -388l348 1q40 0 40 -41q0 -40 -40 -40h-62.5h-135h-134.5h-61q-32 3 -39 28q-6 18 7 151t32 290l-157 2q-41 1 -39 41q0 40 40 40l165 -2q18 148 33 262
l15 114l93 835l-327 -19q-38 -2 -42 38q-1 39 37 43z" />
    <glyph glyph-name="questiondown" unicode="&#xbf;" horiz-adv-x="700" 
d="M582 107q-12 99 -23.5 199t-23.5 201q-104 -9 -198.5 -46.5t-183.5 -90.5q0 -69 -0.5 -138.5t-1.5 -137.5q-4 -41 -44 -37q-41 3 -37 44q1 119 3.5 372t17 526t45.5 509t89 323q36 54 85.5 54.5t88.5 -51.5q27 -37 48.5 -155.5t30.5 -169.5q57 -343 100.5 -695.5
t83.5 -697.5q5 -40 -35 -45q-40 -4 -45 36zM161 2224q80 -72 159.5 -144t159.5 -144q29 -28 3 -58q-28 -30 -57 -2l-160 144t-159 145q-30 27 -3 57q27 29 57 2zM526 587q-28 228 -59.5 456.5t-67.5 452.5q-6 33 -27.5 148t-34.5 139q-17 22 -27 22q-30 -9 -54.5 -114
t-29.5 -132q-42 -241 -54.5 -528.5t-17.5 -533.5v-17v-16q87 48 178.5 81t193.5 42z" />
    <glyph glyph-name="exclamdown" unicode="&#xa1;" horiz-adv-x="700" 
d="M582 107q-12 99 -23.5 199t-23.5 201q-104 -9 -198.5 -46.5t-183.5 -90.5q0 -69 -0.5 -138.5t-1.5 -137.5q-4 -41 -44 -37q-41 3 -37 44q1 119 3.5 372t17 526t45.5 509t89 323q36 54 85.5 54.5t88.5 -51.5q27 -37 48.5 -155.5t30.5 -169.5q57 -343 100.5 -695.5
t83.5 -697.5q5 -40 -35 -45q-40 -4 -45 36zM486 2154q-84 -68 -167.5 -135.5t-166.5 -135.5q-32 -26 -57 6q-25 31 6 57q173 139 334 271q31 24 57 -6q24 -32 -6 -57zM526 587q-28 228 -59.5 456.5t-67.5 452.5q-6 33 -27.5 148t-34.5 139q-17 22 -27 22q-30 -9 -54.5 -114
t-29.5 -132q-42 -241 -54.5 -528.5t-17.5 -533.5v-17v-16q87 48 178.5 81t193.5 42z" />
    <glyph glyph-name="logicalnot" unicode="&#xac;" horiz-adv-x="700" 
d="M582 107q-12 99 -23.5 199t-23.5 201q-104 -9 -198.5 -46.5t-183.5 -90.5q0 -69 -0.5 -138.5t-1.5 -137.5q-4 -41 -44 -37q-41 3 -37 44q1 119 3.5 372t17 526t45.5 509t89 323q36 54 85.5 54.5t88.5 -51.5q27 -37 48.5 -155.5t30.5 -169.5q57 -343 100.5 -695.5
t83.5 -697.5q5 -40 -35 -45q-40 -4 -45 36zM82 1932q89 195 176 266.5t243 -156.5q20 -30 39.5 -61t39.5 -61q21 -35 -13 -56q-35 -22 -55 13q-28 42 -89 134.5t-106 113.5q-44 19 -96 -88.5t-65 -137.5q-19 -38 -54 -20q-37 16 -20 53zM526 587q-28 228 -59.5 456.5
t-67.5 452.5q-6 33 -27.5 148t-34.5 139q-17 22 -27 22q-30 -9 -54.5 -114t-29.5 -132q-42 -241 -54.5 -528.5t-17.5 -533.5v-17v-16q87 48 178.5 81t193.5 42z" />
    <glyph glyph-name="radical" unicode="&#x221a;" horiz-adv-x="758" 
d="M582 107q-12 99 -23.5 199t-23.5 201q-104 -9 -198.5 -46.5t-183.5 -90.5q0 -69 -0.5 -138.5t-1.5 -137.5q-4 -41 -44 -37q-41 3 -37 44q1 119 3.5 372t17 526t45.5 509t89 323q36 54 85.5 54.5t88.5 -51.5q27 -37 48.5 -155.5t30.5 -169.5q57 -343 100.5 -695.5
t83.5 -697.5q5 -40 -35 -45q-40 -4 -45 36zM24 2044q78 78 136.5 98.5t166.5 -30.5q105 -51 149 -54.5t139 81.5l24 21q29 27 57 -2q26 -31 -2 -57q-72 -66 -139.5 -105.5t-169.5 -0.5q-123 47 -161 72t-143 -80q-29 -29 -57 0q-28 28 0 57zM526 587q-28 228 -59.5 456.5
t-67.5 452.5q-6 33 -27.5 148t-34.5 139q-17 22 -27 22q-30 -9 -54.5 -114t-29.5 -132q-42 -241 -54.5 -528.5t-17.5 -533.5v-17v-16q87 48 178.5 81t193.5 42z" />
    <glyph glyph-name="florin" unicode="&#x192;" horiz-adv-x="700" 
d="M582 107q-12 99 -23.5 199t-23.5 201q-104 -9 -198.5 -46.5t-183.5 -90.5q0 -69 -0.5 -138.5t-1.5 -137.5q-4 -41 -44 -37q-41 3 -37 44q1 119 3.5 372t17 526t45.5 509t89 323q36 54 85.5 54.5t88.5 -51.5q27 -37 48.5 -155.5t30.5 -169.5q57 -343 100.5 -695.5
t83.5 -697.5q5 -40 -35 -45q-40 -4 -45 36zM193 2102q60 0 60 -64q0 -65 -60 -65q-61 0 -61 65q0 64 61 64zM458 2102q60 0 60 -65q0 -64 -60 -64q-61 0 -61 64q0 65 61 65zM526 587q-28 228 -59.5 456.5t-67.5 452.5q-6 33 -27.5 148t-34.5 139q-17 22 -27 22
q-30 -9 -54.5 -114t-29.5 -132q-42 -241 -54.5 -528.5t-17.5 -533.5v-17v-16q87 48 178.5 81t193.5 42z" />
    <glyph glyph-name="approxequal" unicode="&#x2248;" horiz-adv-x="696" 
d="M154 464q7 5 21 12q3 1 20 11q31 16 63.5 29t65.5 27l95 28q21 4 53 10t53 6l-10 80q-6 46 -28.5 217.5t-50.5 363t-56 352t-44 184.5q-12 19 -24 19t-24 -23q-10 -18 -14 -33q-32 -94 -48 -194.5t-27 -199.5l-21 -237q-3 -23 -4 -60t-3 -50q-4 -27 -4.5 -90t-2.5 -89
q-2 -30 -2 -45q0 -14 -1 -23.5t-1 -21.5q0 -64 -3 -137t-3 -136zM274 2057q6 -47 52 -40q45 5 39 55q-6 45 -52 39.5t-39 -54.5zM311 2156h15q32 -4 56 -28q30 -31 25 -78t-49 -71q-61 -34 -103 18q-25 30 -25 73q0 17 9 34q24 47 72 52zM114 57h-5q-39 1 -39 37v22l2 313
q0 17 1 29.5t1 30.5l2 156q0 8 1 13t1 15q0 42 2 60q1 13 1.5 55t2.5 66v32q2 25 2 29l10 177q2 15 1 29t2 31l10 115q8 107 27 245.5t52 236.5q16 50 40 86q31 50 74 50q54 0 91 -43q6 -7 8 -9q27 -40 47.5 -155t29.5 -165q18 -114 35 -229l34 -230q8 -60 15.5 -118.5
t16.5 -116.5q8 -59 14 -117.5t15 -117.5q11 -88 20.5 -178t21.5 -178l13 -118q0 -39 -37 -39q-32 0 -38.5 18t-8.5 40l-44 376q-46 0 -107 -16.5t-102 -32.5q-6 -3 -11.5 -5t-11.5 -4q-5 -2 -23 -10l-11 -5.5l-11 -5.5t-10.5 -5t-10.5 -5q-19 -11 -42 -22.5t-41 -23.5
q0 -24 0.5 -92.5t-1.5 -84.5q-6 -34 -1 -68t-10 -54q-11 -14 -28 -14z" />
    <glyph glyph-name="Delta" unicode="&#x394;" horiz-adv-x="1022" 
d="M532 140q-12 99 -23.5 199.5t-23.5 201.5q-104 -9 -198.5 -46.5t-183.5 -90.5q0 -69 -0.5 -139t-2.5 -137q-2 -41 -43 -37q-41 3 -37 43q1 120 3.5 373t17 526t45.5 509t90 323q82 124 173 3q27 -37 48.5 -155.5t30.5 -169.5q36 -216 66 -436t57 -440q-6 143 -9.5 286.5
t-7.5 284.5q-5 155 -7.5 312.5t-8.5 313.5q-10 10 -10 25q0 14 8 26q0 1 13 24l29 -8l261 7q41 1 41 -39q1 -40 -39 -41l-221 -7v-57.5t1 -44.5q7 -270 13.5 -543.5t17.5 -545.5q60 8 115 6t117 9q39 8 48 -30q8 -39 -31 -48q-69 -12 -125.5 -10t-119.5 -7v0q2 -63 5 -124.5
t6 -122.5q1 -27 3.5 -70t6.5 -77l257 64q40 9 49 -30q11 -39 -29 -48l-149 -38q-2 0 -79.5 -25.5t-104.5 -4.5q-2 1 -4 3t-3 4q-8 -5 -17 -6q-40 -4 -45 35zM476 621q-29 228 -60 456t-67 453q-6 33 -27.5 148t-34.5 139q-16 20 -27 22q-30 -9 -55 -114t-29 -132
q-42 -241 -54.5 -528.5t-17.5 -533.5v-17v-16q87 48 178.5 81t193.5 42z" />
    <glyph glyph-name="Delta" unicode="&#x2206;" horiz-adv-x="1022" 
d="M532 140q-12 99 -23.5 199.5t-23.5 201.5q-104 -9 -198.5 -46.5t-183.5 -90.5q0 -69 -0.5 -139t-2.5 -137q-2 -41 -43 -37q-41 3 -37 43q1 120 3.5 373t17 526t45.5 509t90 323q82 124 173 3q27 -37 48.5 -155.5t30.5 -169.5q36 -216 66 -436t57 -440q-6 143 -9.5 286.5
t-7.5 284.5q-5 155 -7.5 312.5t-8.5 313.5q-10 10 -10 25q0 14 8 26q0 1 13 24l29 -8l261 7q41 1 41 -39q1 -40 -39 -41l-221 -7v-57.5t1 -44.5q7 -270 13.5 -543.5t17.5 -545.5q60 8 115 6t117 9q39 8 48 -30q8 -39 -31 -48q-69 -12 -125.5 -10t-119.5 -7v0q2 -63 5 -124.5
t6 -122.5q1 -27 3.5 -70t6.5 -77l257 64q40 9 49 -30q11 -39 -29 -48l-149 -38q-2 0 -79.5 -25.5t-104.5 -4.5q-2 1 -4 3t-3 4q-8 -5 -17 -6q-40 -4 -45 35zM476 621q-29 228 -60 456t-67 453q-6 33 -27.5 148t-34.5 139q-16 20 -27 22q-30 -9 -55 -114t-29 -132
q-42 -241 -54.5 -528.5t-17.5 -533.5v-17v-16q87 48 178.5 81t193.5 42z" />
    <glyph glyph-name="guillemotright" unicode="&#xbb;" horiz-adv-x="495" 
d="M16 1856q0 1 13 24l29 -8l261 7q41 1 41 -39q1 -40 -39 -41l-221 -7v-57.5t1 -44.5q6 -270 13 -543.5t18 -545.5q60 8 115 6t117 9q39 9 48 -30q8 -39 -31 -48q-69 -12 -125.5 -10t-119.5 -7h-1q3 -63 6 -124.5t6 -122.5q1 -27 3 -70t7 -77l257 64q40 9 49 -30t-29 -49
l-150 -37q-1 0 -78.5 -25.5t-104.5 -4.5q-22 16 -25.5 69t-4.5 80q-16 242 -23.5 491.5t-13.5 493.5q-5 155 -7.5 312.5t-8.5 313.5q-10 10 -10 25q-2 12 8 26zM-104 2319q79 -73 158 -145t160 -144q29 -28 2 -57q-27 -30 -57 -3q-80 72 -158.5 144.5t-158.5 144.5
q-29 26 -3 57q28 29 57 3z" />
    <glyph glyph-name="ellipsis" unicode="&#x2026;" horiz-adv-x="569" 
d="M16 1856q0 1 13 24l29 -8l261 7q41 1 41 -39q1 -40 -39 -41l-221 -7v-57.5t1 -44.5q6 -270 13 -543.5t18 -545.5q60 8 115 6t117 9q39 9 48 -30q8 -39 -31 -48q-69 -12 -125.5 -10t-119.5 -7h-1q3 -63 6 -124.5t6 -122.5q1 -27 3 -70t7 -77l257 64q40 9 49 -30t-29 -49
l-150 -37q-1 0 -78.5 -25.5t-104.5 -4.5q-22 16 -25.5 69t-4.5 80q-16 242 -23.5 491.5t-13.5 493.5q-5 155 -7.5 312.5t-8.5 313.5q-10 10 -10 25q-2 12 8 26zM511 2241q-27 -21 -52.5 -42.5t-51.5 -42.5q-58 -47 -115.5 -93.5t-114.5 -92.5q-32 -26 -57 6q-26 31 6 57
q84 67 167.5 134.5t167.5 136.5q30 25 56 -6q25 -33 -6 -57z" />
    <glyph glyph-name="Agrave" unicode="&#xc0;" horiz-adv-x="495" 
d="M16 1856q0 1 13 24l29 -8l261 7q41 1 41 -39q1 -40 -39 -41l-221 -7v-57.5t1 -44.5q6 -270 13 -543.5t18 -545.5q60 8 115 6t117 9q39 9 48 -30q8 -39 -31 -48q-69 -12 -125.5 -10t-119.5 -7h-1q3 -63 6 -124.5t6 -122.5q1 -27 3 -70t7 -77l257 64q40 9 49 -30t-29 -49
l-150 -37q-1 0 -78.5 -25.5t-104.5 -4.5q-22 16 -25.5 69t-4.5 80q-16 242 -23.5 491.5t-13.5 493.5q-5 155 -7.5 312.5t-8.5 313.5q-10 10 -10 25q-2 12 8 26zM48 2115q60 0 60 -65q0 -64 -60 -64t-60 64q0 65 60 65zM313 2114q61 0 61 -64q0 -65 -61 -65t-61 65
q0 64 61 64z" />
    <glyph glyph-name="Atilde" unicode="&#xc3;" horiz-adv-x="294" 
d="M124 1771l23.5 -263.5t52.5 -579t53 -578.5l24 -263q3 -40 -37 -43q-41 -4 -44 36l-24 263t-52.5 578.5t-52 579l-23.5 263.5q-4 39 36 43q40 3 44 -36zM-153 2297q80 -73 158.5 -145t158.5 -144q30 -28 3 -57q-27 -30 -57 -3q-80 72 -158.5 144.5t-159.5 144.5
q-28 26 -2 57q28 29 57 3z" />
    <glyph glyph-name="Otilde" unicode="&#xd5;" horiz-adv-x="498" 
d="M124 1771l23.5 -263.5t52.5 -579t53 -578.5l24 -263q3 -40 -37 -43q-41 -4 -44 36l-24 263t-52.5 578.5t-52 579l-23.5 263.5q-4 39 36 43q40 3 44 -36zM444 2253q-27 -21 -53 -42l-52 -42q-57 -47 -115 -93.5t-115 -92.5q-32 -26 -56 6q-26 31 6 56q83 67 166.5 135
t167.5 136q31 25 57 -6q25 -32 -6 -57z" />
    <glyph glyph-name="OE" unicode="&#x152;" horiz-adv-x="403" 
d="M124 1771l23.5 -263.5t52.5 -579t53 -578.5l24 -263q3 -40 -37 -43q-41 -4 -44 36l-24 263t-52.5 578.5t-52 579l-23.5 263.5q-4 39 36 43q40 3 44 -36zM-133 2016q90 195 175.5 266.5t241.5 -156.5q35 -52 79 -122q21 -34 -12 -56q-35 -22 -56 13q-27 43 -88 135
t-106 113q-45 19 -95.5 -88.5t-65.5 -137.5q-15 -37 -53 -20q-36 15 -20 53z" />
    <glyph glyph-name="oe" unicode="&#x153;" horiz-adv-x="286" 
d="M118 1833l23.5 -263t52 -579t52.5 -578.5l24 -262.5q3 -41 -36 -44q-41 -4 -44 37l-24 262.5t-53 578.5t-52.5 579l-23.5 263q-4 40 37 44q40 3 44 -37zM-71 2135q61 0 61 -64q0 -65 -61 -65q-60 0 -60 65q0 64 60 64zM193 2135q61 0 61 -64q0 -65 -61 -65q-60 0 -60 65
q0 64 60 64z" />
    <glyph glyph-name="emdash" unicode="&#x2014;" horiz-adv-x="825" 
d="M147 1550l60 -1451q1 -41 -38 -42q-42 -2 -42 39l-11.5 266t-25 586t-24.5 586.5l-11 266.5q-2 40 39 42q24 0 37 -21q13 -7 18 -22l493 -1498l-26 1557q0 41 40 41q41 0 41 -40l4.5 -281.5t9.5 -619t10 -618.5l5 -281q1 -41 -39 -41q-23 0 -34 17q-11 7 -15 21zM87 2038
q79 78 137 98.5t166 -30.5q105 -51 149.5 -54.5t139.5 80.5l24 22q29 27 57 -2q26 -31 -3 -57q-72 -66 -139 -105.5t-169 -0.5q-123 46 -161 71.5t-144 -79.5q-28 -30 -57 0q-28 27 0 57z" />
    <glyph glyph-name="quotedblleft" unicode="&#x201c;" 
d="M443 1793q-72 15 -116.5 -18t-79.5 -93q-70 -118 -105.5 -321.5t-34 -422.5t41.5 -419t121 -311q91 -126 190.5 -79.5t179.5 135.5q70 78 98 210.5t40 234.5q9 75 13.5 202t-6 260t-42 249t-95.5 170q-54 44 -118.5 21t-101.5 -72q-34 -45 -45 -93t58 -66l34 -6
q39 -4 36 -44q-4 -42 -45 -36l-46 8q-114 30 -116.5 117t59.5 169q58 77 156.5 104t180.5 -40q94 -78 133.5 -257.5t40.5 -384t-29 -397t-76 -296.5q-33 -75 -107 -148t-149 -106q-108 -47 -186 -8t-131.5 120t-85 183t-45.5 180q-24 121 -33.5 293t4.5 349.5t56.5 338.5
t123.5 261q99 122 249 90q38 -12 28 -50q-11 -39 -50 -27zM349 2314q79 -73 159 -145l160 -144q29 -28 3 -57q-28 -31 -57 -3q-81 72 -160.5 144.5t-158.5 144.5q-30 26 -3 57q28 30 57 3z" />
    <glyph glyph-name="quotedblright" unicode="&#x201d;" horiz-adv-x="956" 
d="M443 1793q-72 15 -116.5 -18t-79.5 -93q-70 -118 -105.5 -321.5t-34 -422.5t41.5 -419t121 -311q91 -126 190.5 -79.5t179.5 135.5q70 78 98 210.5t40 234.5q9 75 13.5 202t-6 260t-42 249t-95.5 170q-54 44 -118.5 21t-101.5 -72q-34 -45 -45 -93t58 -66l34 -6
q39 -4 36 -44q-4 -42 -45 -36l-46 8q-114 30 -116.5 117t59.5 169q58 77 156.5 104t180.5 -40q94 -78 133.5 -257.5t40.5 -384t-29 -397t-76 -296.5q-33 -75 -107 -148t-149 -106q-108 -47 -186 -8t-131.5 120t-85 183t-45.5 180q-24 121 -33.5 293t4.5 349.5t56.5 338.5
t123.5 261q99 122 249 90q38 -12 28 -50q-11 -39 -50 -27zM880 2262q-27 -21 -52.5 -42.5t-51.5 -42.5q-58 -47 -115.5 -93.5t-114.5 -92.5q-32 -26 -57 6q-26 31 6 57q84 67 167.5 134.5t167.5 135.5q30 26 56 -5q25 -33 -6 -57z" />
    <glyph glyph-name="quoteleft" unicode="&#x2018;" 
d="M292 2042q89 195 176 266.5t243 -156.5q20 -30 39.5 -61t39.5 -61q21 -35 -13 -56q-34 -22 -55 13q-8 12 -15 23q-33 52 -86.5 129.5t-92.5 95.5q-41 18 -88 -73.5t-67 -137.5q-3 -5 -4.5 -8.5t-2.5 -6.5q-17 -37 -53 -20q-38 16 -21 53zM443 1793q-72 15 -116.5 -18
t-79.5 -93q-70 -118 -105.5 -321.5t-34 -422.5t41.5 -419t121 -311q91 -126 190.5 -79.5t179.5 135.5q70 78 98 210.5t40 234.5q9 75 13.5 202t-6 260t-42 249t-95.5 170q-54 44 -118.5 21t-101.5 -72q-34 -45 -45 -93t58 -66l34 -6q39 -4 36 -44q-4 -42 -45 -36l-46 8
q-114 30 -116.5 117t59.5 169q58 77 156.5 104t180.5 -40q94 -78 133.5 -257.5t40.5 -384t-29 -397t-76 -296.5q-33 -75 -107 -148t-149 -106q-108 -47 -186 -8t-131.5 120t-85 183t-45.5 180q-24 121 -33.5 293t4.5 349.5t56.5 338.5t123.5 261q99 122 249 90
q38 -12 28 -50q-11 -39 -50 -27z" />
    <glyph glyph-name="quoteright" unicode="&#x2019;" 
d="M443 1793q-72 15 -116.5 -18t-79.5 -93q-70 -118 -105.5 -321.5t-34 -422.5t41.5 -419t121 -311q91 -126 190.5 -79.5t179.5 135.5q70 78 98 210.5t40 234.5q9 75 13.5 202t-6 260t-42 249t-95.5 170q-54 44 -118.5 21t-101.5 -72q-34 -45 -45 -93t58 -66l34 -6
q39 -4 36 -44q-4 -42 -45 -36l-46 8q-114 30 -116.5 117t59.5 169q58 77 156.5 104t180.5 -40q94 -78 133.5 -257.5t40.5 -384t-29 -397t-76 -296.5q-33 -75 -107 -148t-149 -106q-108 -47 -186 -8t-131.5 120t-85 183t-45.5 180q-24 121 -33.5 293t4.5 349.5t56.5 338.5
t123.5 261q99 122 249 90q38 -12 28 -50q-11 -39 -50 -27zM160 2050q78 78 136.5 98.5t166.5 -30.5q105 -51 149 -54.5t139 80.5l24 22q30 26 57 -2q26 -31 -2 -57q-72 -66 -139.5 -105.5t-169.5 -0.5q-123 47 -161 72t-143 -80q-29 -29 -57 0q-29 28 0 57z" />
    <glyph glyph-name="divide" unicode="&#xf7;" 
d="M443 1793q-72 15 -116.5 -18t-79.5 -93q-70 -118 -105.5 -321.5t-34 -422.5t41.5 -419t121 -311q91 -126 190.5 -79.5t179.5 135.5q70 78 98 210.5t40 234.5q9 75 13.5 202t-6 260t-42 249t-95.5 170q-54 44 -118.5 21t-101.5 -72q-34 -45 -45 -93t58 -66l34 -6
q39 -4 36 -44q-4 -42 -45 -36l-46 8q-114 30 -116.5 117t59.5 169q58 77 156.5 104t180.5 -40q94 -78 133.5 -257.5t40.5 -384t-29 -397t-76 -296.5q-33 -75 -107 -148t-149 -106q-108 -47 -186 -8t-131.5 120t-85 183t-45.5 180q-24 121 -33.5 293t4.5 349.5t56.5 338.5
t123.5 261q99 122 249 90q38 -12 28 -50q-11 -39 -50 -27zM361 2123q60 0 60 -65q0 -64 -60 -64q-61 0 -61 64q0 65 61 65zM626 2123q60 0 60 -65q0 -64 -60 -64q-61 0 -61 64q0 65 61 65z" />
    <glyph glyph-name="ydieresis" unicode="&#xff;" 
d="M443 1793q-72 15 -116.5 -18t-79.5 -93q-65 -109 -100 -291.5t-39 -384t24.5 -395.5t91.5 -324q65 255 135 508.5t139 508.5q-15 -12 -32 -10l-46 8q-114 30 -116.5 117t59.5 169q42 55 106.5 86t130.5 22q24 95 51 208q10 38 49 30q39 -9 30 -49q-25 -103 -54 -217
q16 -10 24 -16q94 -78 133.5 -257.5t40.5 -384t-29 -397t-76 -296.5q-33 -75 -107 -148t-149 -106q-144 -63 -253 36q-4 -18 -8.5 -35.5t-7.5 -35.5q-11 -37 -49 -29q-40 7 -30 48q7 32 15 64l16 64q-54 81 -85 183t-46 180q-24 121 -33.5 293t4.5 349.5t56.5 338.5
t123.5 261q99 122 249 90q38 -12 28 -50q-11 -39 -50 -27zM283 191q89 -108 184 -60.5t173 133.5q70 78 98 210.5t40 234.5q8 74 13 198.5t-5 256t-40 247.5t-91 173q-90 -349 -187.5 -696t-184.5 -697zM580 1618q-89 6 -152 -79q-34 -45 -45 -93t58 -66l34 -6q25 -3 34 -27
q18 67 35.5 134.5t35.5 136.5z" />
    <glyph glyph-name="Ydieresis" unicode="&#x178;" horiz-adv-x="873" 
d="M131 1843q-10 -163 -12 -390t17.5 -462.5t66.5 -450t134 -350.5q6 -9 27 -38t37 -15q55 48 90 269.5t56 486t31.5 507.5t17.5 333q1 24 10 79t59 36q28 -12 31 -51.5t5 -63.5q9 -155 9 -323.5t2 -325.5q1 -116 12 -227q15 -162 30.5 -333t41.5 -330q2 -17 6 -35.5
t7 -33.5q23 -35 -10 -56q-33 -24 -56 10q-14 31 -18 50t-9 52q-26 161 -41.5 333t-30.5 336q-4 33 -6 61.5t-3 58.5q-15 -228 -41.5 -438.5t-72.5 -340.5q-43 -120 -112 -137.5t-140 93.5q-92 143 -141.5 363t-70 460.5t-19 473.5t11.5 404q3 39 43 38q39 -4 38 -43z
M154 2301q80 -73 159.5 -145t159.5 -144q30 -29 3 -57q-28 -31 -57 -3q-80 72 -160 144.5t-159 144.5q-30 27 -3 57t57 3z" />
    <glyph glyph-name="fraction" unicode="&#x2044;" horiz-adv-x="873" 
d="M131 1843q-10 -163 -12 -390t17.5 -462.5t66.5 -450t134 -350.5q6 -9 27 -38t37 -15q55 48 90 269.5t56 486t31.5 507.5t17.5 333q1 24 10 79t59 36q28 -12 31 -51.5t5 -63.5q9 -155 9 -323.5t2 -325.5q1 -116 12 -227q15 -162 30.5 -333t41.5 -330q2 -17 6 -35.5
t7 -33.5q23 -35 -10 -56q-33 -24 -56 10q-14 31 -18 50t-9 52q-26 161 -41.5 333t-30.5 336q-4 33 -6 61.5t-3 58.5q-15 -228 -41.5 -438.5t-72.5 -340.5q-43 -120 -112 -137.5t-140 93.5q-92 143 -141.5 363t-70 460.5t-19 473.5t11.5 404q3 39 43 38q39 -4 38 -43z
M718 2261q-27 -21 -53 -42l-52 -42q-57 -47 -115 -93.5t-115 -92.5q-32 -26 -56 6q-26 31 6 56q83 68 166.5 135.5t167.5 135.5q31 26 57 -6q24 -30 -6 -57z" />
    <glyph glyph-name="Euro" unicode="&#x20ac;" horiz-adv-x="873" 
d="M131 1843q-10 -163 -12 -390t17.5 -462.5t66.5 -450t134 -350.5q6 -9 27 -38t37 -15q55 48 90 269.5t56 486t31.5 507.5t17.5 333q1 24 10 79t59 36q28 -12 31 -51.5t5 -63.5q9 -155 9 -323.5t2 -325.5q1 -116 12 -227q15 -162 30.5 -333t41.5 -330q2 -17 6 -35.5
t7 -33.5q23 -35 -10 -56q-33 -24 -56 10q-14 31 -18 50t-9 52q-26 161 -41.5 333t-30.5 336q-4 33 -6 61.5t-3 58.5q-15 -228 -41.5 -438.5t-72.5 -340.5q-43 -120 -112 -137.5t-140 93.5q-92 143 -141.5 363t-70 460.5t-19 473.5t11.5 404q3 39 43 38q39 -4 38 -43z
M181 2042q89 195 176 266.5t243 -156.5q20 -30 39.5 -61t39.5 -61q21 -35 -13 -56q-33 -22 -55 13q-27 43 -88 135t-106 113q-45 19 -96.5 -88.5t-65.5 -137.5q-17 -37 -53 -20q-38 16 -21 53z" />
    <glyph glyph-name="guilsinglleft" unicode="&#x2039;" horiz-adv-x="873" 
d="M131 1843q-10 -163 -12 -390t17.5 -462.5t66.5 -450t134 -350.5q6 -9 27 -38t37 -15q55 48 90 269.5t56 486t31.5 507.5t17.5 333q1 24 10 79t59 36q28 -12 31 -51.5t5 -63.5q9 -155 9 -323.5t2 -325.5q1 -116 12 -227q15 -162 30.5 -333t41.5 -330q2 -17 6 -35.5
t7 -33.5q23 -35 -10 -56q-33 -24 -56 10q-14 31 -18 50t-9 52q-26 161 -41.5 333t-30.5 336q-4 33 -6 61.5t-3 58.5q-15 -228 -41.5 -438.5t-72.5 -340.5q-43 -120 -112 -137.5t-140 93.5q-92 143 -141.5 363t-70 460.5t-19 473.5t11.5 404q3 39 43 38q39 -4 38 -43z
M282 2115q60 0 60 -65t-60 -65q-61 0 -61 65t61 65zM547 2114q61 0 61 -65q0 -64 -61 -64t-61 64q0 65 61 65z" />
    <glyph glyph-name="guilsinglright" unicode="&#x203a;" horiz-adv-x="765" 
d="M699 2228q-26 -21 -52 -42.5t-52 -42.5q-58 -47 -115.5 -93.5t-114.5 -92.5q-30 -25 -57 6q-25 31 6 57q84 67 167.5 134.5t167.5 135.5q30 25 57 -5q23 -34 -7 -57zM150 1875q-17 -176 33 -479t106 -473q13 -42 63 -171t89 -138q25 12 45.5 82.5t35 156t23.5 164
t12 106.5q18 189 26.5 387.5t9.5 390.5q0 40 41 40q40 0 40 -40q-1 -94 -6.5 -307t-25.5 -437q1 -3 1 -8q2 -86 2.5 -244.5t-21 -320t-74 -291.5t-155.5 -160l-31 -6q-40 -4 -45 35q-4 41 36 45l17 4q81 22 121 148.5t57 281.5q-27 -64 -53 -85q-54 -46 -101 -10.5
t-84.5 103t-63.5 142t-36 107.5q-59 180 -109.5 490.5t-32.5 498.5q7 39 46 34q39 -8 34 -46z" />
    <glyph glyph-name="daggerdbl" unicode="&#x2021;" horiz-adv-x="700" 
d="M582 107q-12 99 -23.5 199t-23.5 201q-104 -9 -198.5 -46.5t-183.5 -90.5q0 -69 -0.5 -138.5t-1.5 -137.5q-4 -41 -44 -37q-41 3 -37 44q1 119 3.5 372t17 526t45.5 509t89 323q36 54 85.5 54.5t88.5 -51.5q27 -37 48.5 -155.5t30.5 -169.5q57 -343 100.5 -695.5
t83.5 -697.5q5 -40 -35 -45q-40 -4 -45 36zM161 2224q80 -72 159.5 -144t159.5 -144q29 -28 3 -58q-28 -30 -57 -2l-160 144t-159 145q-30 27 -3 57q27 29 57 2zM526 587q-28 228 -59.5 456.5t-67.5 452.5q-6 33 -27.5 148t-34.5 139q-17 22 -27 22q-30 -9 -54.5 -114
t-29.5 -132q-42 -241 -54.5 -528.5t-17.5 -533.5v-17v-16q87 48 178.5 81t193.5 42z" />
    <glyph glyph-name="periodcentered" unicode="&#xb7;" horiz-adv-x="700" 
d="M582 107q-12 99 -23.5 199t-23.5 201q-104 -9 -198.5 -46.5t-183.5 -90.5q0 -69 -0.5 -138.5t-1.5 -137.5q-4 -41 -44 -37q-41 3 -37 44q1 119 3.5 372t17 526t45.5 509t89 323q36 54 85.5 54.5t88.5 -51.5q27 -37 48.5 -155.5t30.5 -169.5q57 -343 100.5 -695.5
t83.5 -697.5q5 -40 -35 -45q-40 -4 -45 36zM486 2154q-84 -68 -167.5 -135.5t-166.5 -135.5q-32 -26 -57 6q-25 31 6 57q173 139 334 271q31 24 57 -6q24 -32 -6 -57zM526 587q-28 228 -59.5 456.5t-67.5 452.5q-6 33 -27.5 148t-34.5 139q-17 22 -27 22q-30 -9 -54.5 -114
t-29.5 -132q-42 -241 -54.5 -528.5t-17.5 -533.5v-17v-16q87 48 178.5 81t193.5 42z" />
    <glyph glyph-name="quotesinglbase" unicode="&#x201a;" horiz-adv-x="700" 
d="M582 107q-12 99 -23.5 199t-23.5 201q-104 -9 -198.5 -46.5t-183.5 -90.5q0 -69 -0.5 -138.5t-1.5 -137.5q-4 -41 -44 -37q-41 3 -37 44q1 119 3.5 372t17 526t45.5 509t89 323q36 54 85.5 54.5t88.5 -51.5q27 -37 48.5 -155.5t30.5 -169.5q57 -343 100.5 -695.5
t83.5 -697.5q5 -40 -35 -45q-40 -4 -45 36zM82 1932q89 195 176 266.5t243 -156.5q20 -30 39.5 -61t39.5 -61q21 -35 -13 -56q-35 -22 -55 13q-28 42 -89 134.5t-106 113.5q-44 19 -96 -88.5t-65 -137.5q-19 -38 -54 -20q-37 16 -20 53zM526 587q-28 228 -59.5 456.5
t-67.5 452.5q-6 33 -27.5 148t-34.5 139q-17 22 -27 22q-30 -9 -54.5 -114t-29.5 -132q-42 -241 -54.5 -528.5t-17.5 -533.5v-17v-16q87 48 178.5 81t193.5 42z" />
    <glyph glyph-name="quotedblbase" unicode="&#x201e;" horiz-adv-x="758" 
d="M582 107q-12 99 -23.5 199t-23.5 201q-104 -9 -198.5 -46.5t-183.5 -90.5q0 -69 -0.5 -138.5t-1.5 -137.5q-4 -41 -44 -37q-41 3 -37 44q1 119 3.5 372t17 526t45.5 509t89 323q36 54 85.5 54.5t88.5 -51.5q27 -37 48.5 -155.5t30.5 -169.5q57 -343 100.5 -695.5
t83.5 -697.5q5 -40 -35 -45q-40 -4 -45 36zM24 2044q78 78 136.5 98.5t166.5 -30.5q105 -51 149 -54.5t139 81.5l24 21q29 27 57 -2q26 -31 -2 -57q-72 -66 -139.5 -105.5t-169.5 -0.5q-123 47 -161 72t-143 -80q-29 -29 -57 0q-28 28 0 57zM526 587q-28 228 -59.5 456.5
t-67.5 452.5q-6 33 -27.5 148t-34.5 139q-17 22 -27 22q-30 -9 -54.5 -114t-29.5 -132q-42 -241 -54.5 -528.5t-17.5 -533.5v-17v-16q87 48 178.5 81t193.5 42z" />
    <glyph glyph-name="perthousand" unicode="&#x2030;" horiz-adv-x="700" 
d="M582 107q-12 99 -23.5 199t-23.5 201q-104 -9 -198.5 -46.5t-183.5 -90.5q0 -69 -0.5 -138.5t-1.5 -137.5q-4 -41 -44 -37q-41 3 -37 44q1 119 3.5 372t17 526t45.5 509t89 323q36 54 85.5 54.5t88.5 -51.5q27 -37 48.5 -155.5t30.5 -169.5q57 -343 100.5 -695.5
t83.5 -697.5q5 -40 -35 -45q-40 -4 -45 36zM193 2102q60 0 60 -64q0 -65 -60 -65q-61 0 -61 65q0 64 61 64zM458 2102q60 0 60 -65q0 -64 -60 -64q-61 0 -61 64q0 65 61 65zM526 587q-28 228 -59.5 456.5t-67.5 452.5q-6 33 -27.5 148t-34.5 139q-17 22 -27 22
q-30 -9 -54.5 -114t-29.5 -132q-42 -241 -54.5 -528.5t-17.5 -533.5v-17v-16q87 48 178.5 81t193.5 42z" />
    <glyph glyph-name="Ecircumflex" unicode="&#xca;" horiz-adv-x="1022" 
d="M532 140q-12 99 -23.5 199.5t-23.5 201.5q-104 -9 -198.5 -46.5t-183.5 -90.5q0 -69 -0.5 -139t-2.5 -137q-2 -41 -43 -37q-41 3 -37 43q1 120 3.5 373t17 526t45.5 509t90 323q82 124 173 3q27 -37 48.5 -155.5t30.5 -169.5q36 -216 66 -436t57 -440q-6 143 -9.5 286.5
t-7.5 284.5q-5 155 -7.5 312.5t-8.5 313.5q-10 10 -10 25q0 14 8 26q0 1 13 24l29 -8l261 7q41 1 41 -39q1 -40 -39 -41l-221 -7v-57.5t1 -44.5q7 -270 13.5 -543.5t17.5 -545.5q60 8 115 6t117 9q39 8 48 -30q8 -39 -31 -48q-69 -12 -125.5 -10t-119.5 -7v0q2 -63 5 -124.5
t6 -122.5q1 -27 3.5 -70t6.5 -77l257 64q40 9 49 -30q11 -39 -29 -48l-149 -38q-2 0 -79.5 -25.5t-104.5 -4.5q-2 1 -4 3t-3 4q-8 -5 -17 -6q-40 -4 -45 35zM476 621q-29 228 -60 456t-67 453q-6 33 -27.5 148t-34.5 139q-16 20 -27 22q-30 -9 -55 -114t-29 -132
q-42 -241 -54.5 -528.5t-17.5 -533.5v-17v-16q87 48 178.5 81t193.5 42z" />
    <glyph glyph-name="Edieresis" unicode="&#xcb;" horiz-adv-x="495" 
d="M16 1856q0 1 13 24l29 -8l261 7q41 1 41 -39q1 -40 -39 -41l-221 -7v-57.5t1 -44.5q6 -270 13 -543.5t18 -545.5q60 8 115 6t117 9q39 9 48 -30q8 -39 -31 -48q-69 -12 -125.5 -10t-119.5 -7h-1q3 -63 6 -124.5t6 -122.5q1 -27 3 -70t7 -77l257 64q40 9 49 -30t-29 -49
l-150 -37q-1 0 -78.5 -25.5t-104.5 -4.5q-22 16 -25.5 69t-4.5 80q-16 242 -23.5 491.5t-13.5 493.5q-5 155 -7.5 312.5t-8.5 313.5q-10 10 -10 25q-2 12 8 26zM-104 2319q79 -73 158 -145t160 -144q29 -28 2 -57q-27 -30 -57 -3q-80 72 -158.5 144.5t-158.5 144.5
q-29 26 -3 57q28 29 57 3z" />
    <glyph glyph-name="Egrave" unicode="&#xc8;" horiz-adv-x="569" 
d="M16 1856q0 1 13 24l29 -8l261 7q41 1 41 -39q1 -40 -39 -41l-221 -7v-57.5t1 -44.5q6 -270 13 -543.5t18 -545.5q60 8 115 6t117 9q39 9 48 -30q8 -39 -31 -48q-69 -12 -125.5 -10t-119.5 -7h-1q3 -63 6 -124.5t6 -122.5q1 -27 3 -70t7 -77l257 64q40 9 49 -30t-29 -49
l-150 -37q-1 0 -78.5 -25.5t-104.5 -4.5q-22 16 -25.5 69t-4.5 80q-16 242 -23.5 491.5t-13.5 493.5q-5 155 -7.5 312.5t-8.5 313.5q-10 10 -10 25q-2 12 8 26zM511 2241q-27 -21 -52.5 -42.5t-51.5 -42.5q-58 -47 -115.5 -93.5t-114.5 -92.5q-32 -26 -57 6q-26 31 6 57
q84 67 167.5 134.5t167.5 136.5q30 25 56 -6q25 -33 -6 -57z" />
    <glyph glyph-name="Iacute" unicode="&#xcd;" horiz-adv-x="495" 
d="M16 1856q0 1 13 24l29 -8l261 7q41 1 41 -39q1 -40 -39 -41l-221 -7v-57.5t1 -44.5q6 -270 13 -543.5t18 -545.5q60 8 115 6t117 9q39 9 48 -30q8 -39 -31 -48q-69 -12 -125.5 -10t-119.5 -7h-1q3 -63 6 -124.5t6 -122.5q1 -27 3 -70t7 -77l257 64q40 9 49 -30t-29 -49
l-150 -37q-1 0 -78.5 -25.5t-104.5 -4.5q-22 16 -25.5 69t-4.5 80q-16 242 -23.5 491.5t-13.5 493.5q-5 155 -7.5 312.5t-8.5 313.5q-10 10 -10 25q-2 12 8 26zM-56 2025q88 195 174.5 267t242.5 -156q31 -45 79 -123q21 -34 -12 -56q-35 -21 -56 13q-27 43 -88 135
t-106 113q-45 20 -96.5 -88t-65.5 -138q-16 -37 -52 -20q-36 15 -20 53z" />
    <glyph glyph-name="Icircumflex" unicode="&#xce;" horiz-adv-x="495" 
d="M16 1856q0 1 13 24l29 -8l261 7q41 1 41 -39q1 -40 -39 -41l-221 -7v-57.5t1 -44.5q6 -270 13 -543.5t18 -545.5q60 8 115 6t117 9q39 9 48 -30q8 -39 -31 -48q-69 -12 -125.5 -10t-119.5 -7h-1q3 -63 6 -124.5t6 -122.5q1 -27 3 -70t7 -77l257 64q40 9 49 -30t-29 -49
l-150 -37q-1 0 -78.5 -25.5t-104.5 -4.5q-22 16 -25.5 69t-4.5 80q-16 242 -23.5 491.5t-13.5 493.5q-5 155 -7.5 312.5t-8.5 313.5q-10 10 -10 25q-2 12 8 26zM48 2115q60 0 60 -65q0 -64 -60 -64t-60 64q0 65 60 65zM313 2114q61 0 61 -64q0 -65 -61 -65t-61 65
q0 64 61 64z" />
    <glyph glyph-name="Idieresis" unicode="&#xcf;" horiz-adv-x="294" 
d="M124 1771l23.5 -263.5t52.5 -579t53 -578.5l24 -263q3 -40 -37 -43q-41 -4 -44 36l-24 263t-52.5 578.5t-52 579l-23.5 263.5q-4 39 36 43q40 3 44 -36zM-153 2297q80 -73 158.5 -145t158.5 -144q30 -28 3 -57q-27 -30 -57 -3q-80 72 -158.5 144.5t-159.5 144.5
q-28 26 -2 57q28 29 57 3z" />
    <glyph glyph-name="Igrave" unicode="&#xcc;" horiz-adv-x="498" 
d="M124 1771l23.5 -263.5t52.5 -579t53 -578.5l24 -263q3 -40 -37 -43q-41 -4 -44 36l-24 263t-52.5 578.5t-52 579l-23.5 263.5q-4 39 36 43q40 3 44 -36zM444 2253q-27 -21 -53 -42l-52 -42q-57 -47 -115 -93.5t-115 -92.5q-32 -26 -56 6q-26 31 6 56q83 67 166.5 135
t167.5 136q31 25 57 -6q25 -32 -6 -57z" />
    <glyph glyph-name="Oacute" unicode="&#xd3;" horiz-adv-x="403" 
d="M124 1771l23.5 -263.5t52.5 -579t53 -578.5l24 -263q3 -40 -37 -43q-41 -4 -44 36l-24 263t-52.5 578.5t-52 579l-23.5 263.5q-4 39 36 43q40 3 44 -36zM-133 2016q90 195 175.5 266.5t241.5 -156.5q35 -52 79 -122q21 -34 -12 -56q-35 -22 -56 13q-27 43 -88 135
t-106 113q-45 19 -95.5 -88.5t-65.5 -137.5q-15 -37 -53 -20q-36 15 -20 53z" />
    <glyph glyph-name="Ocircumflex" unicode="&#xd4;" horiz-adv-x="286" 
d="M118 1833l23.5 -263t52 -579t52.5 -578.5l24 -262.5q3 -41 -36 -44q-41 -4 -44 37l-24 262.5t-53 578.5t-52.5 579l-23.5 263q-4 40 37 44q40 3 44 -37zM-71 2135q61 0 61 -64q0 -65 -61 -65q-60 0 -60 65q0 64 60 64zM193 2135q61 0 61 -64q0 -65 -61 -65q-60 0 -60 65
q0 64 60 64z" />
    <glyph glyph-name="Ograve" unicode="&#xd2;" horiz-adv-x="825" 
d="M147 1550l60 -1451q1 -41 -38 -42q-42 -2 -42 39l-11.5 266t-25 586t-24.5 586.5l-11 266.5q-2 40 39 42q24 0 37 -21q13 -7 18 -22l493 -1498l-26 1557q0 41 40 41q41 0 41 -40l4.5 -281.5t9.5 -619t10 -618.5l5 -281q1 -41 -39 -41q-23 0 -34 17q-11 7 -15 21zM87 2038
q79 78 137 98.5t166 -30.5q105 -51 149.5 -54.5t139.5 80.5l24 22q29 27 57 -2q26 -31 -3 -57q-72 -66 -139 -105.5t-169 -0.5q-123 46 -161 71.5t-144 -79.5q-28 -30 -57 0q-28 27 0 57z" />
    <glyph glyph-name="Uacute" unicode="&#xda;" 
d="M443 1793q-72 15 -116.5 -18t-79.5 -93q-70 -118 -105.5 -321.5t-34 -422.5t41.5 -419t121 -311q91 -126 190.5 -79.5t179.5 135.5q70 78 98 210.5t40 234.5q9 75 13.5 202t-6 260t-42 249t-95.5 170q-54 44 -118.5 21t-101.5 -72q-34 -45 -45 -93t58 -66l34 -6
q39 -4 36 -44q-4 -42 -45 -36l-46 8q-114 30 -116.5 117t59.5 169q58 77 156.5 104t180.5 -40q94 -78 133.5 -257.5t40.5 -384t-29 -397t-76 -296.5q-33 -75 -107 -148t-149 -106q-108 -47 -186 -8t-131.5 120t-85 183t-45.5 180q-24 121 -33.5 293t4.5 349.5t56.5 338.5
t123.5 261q99 122 249 90q38 -12 28 -50q-11 -39 -50 -27zM349 2314q79 -73 159 -145l160 -144q29 -28 3 -57q-28 -31 -57 -3q-81 72 -160.5 144.5t-158.5 144.5q-30 26 -3 57q28 30 57 3z" />
    <glyph glyph-name="Ucircumflex" unicode="&#xdb;" horiz-adv-x="956" 
d="M443 1793q-72 15 -116.5 -18t-79.5 -93q-70 -118 -105.5 -321.5t-34 -422.5t41.5 -419t121 -311q91 -126 190.5 -79.5t179.5 135.5q70 78 98 210.5t40 234.5q9 75 13.5 202t-6 260t-42 249t-95.5 170q-54 44 -118.5 21t-101.5 -72q-34 -45 -45 -93t58 -66l34 -6
q39 -4 36 -44q-4 -42 -45 -36l-46 8q-114 30 -116.5 117t59.5 169q58 77 156.5 104t180.5 -40q94 -78 133.5 -257.5t40.5 -384t-29 -397t-76 -296.5q-33 -75 -107 -148t-149 -106q-108 -47 -186 -8t-131.5 120t-85 183t-45.5 180q-24 121 -33.5 293t4.5 349.5t56.5 338.5
t123.5 261q99 122 249 90q38 -12 28 -50q-11 -39 -50 -27zM880 2262q-27 -21 -52.5 -42.5t-51.5 -42.5q-58 -47 -115.5 -93.5t-114.5 -92.5q-32 -26 -57 6q-26 31 6 57q84 67 167.5 134.5t167.5 135.5q30 26 56 -5q25 -33 -6 -57z" />
    <glyph glyph-name="Ugrave" unicode="&#xd9;" 
d="M292 2042q89 195 176 266.5t243 -156.5q20 -30 39.5 -61t39.5 -61q21 -35 -13 -56q-34 -22 -55 13q-8 12 -15 23q-33 52 -86.5 129.5t-92.5 95.5q-41 18 -88 -73.5t-67 -137.5q-3 -5 -4.5 -8.5t-2.5 -6.5q-17 -37 -53 -20q-38 16 -21 53zM443 1793q-72 15 -116.5 -18
t-79.5 -93q-70 -118 -105.5 -321.5t-34 -422.5t41.5 -419t121 -311q91 -126 190.5 -79.5t179.5 135.5q70 78 98 210.5t40 234.5q9 75 13.5 202t-6 260t-42 249t-95.5 170q-54 44 -118.5 21t-101.5 -72q-34 -45 -45 -93t58 -66l34 -6q39 -4 36 -44q-4 -42 -45 -36l-46 8
q-114 30 -116.5 117t59.5 169q58 77 156.5 104t180.5 -40q94 -78 133.5 -257.5t40.5 -384t-29 -397t-76 -296.5q-33 -75 -107 -148t-149 -106q-108 -47 -186 -8t-131.5 120t-85 183t-45.5 180q-24 121 -33.5 293t4.5 349.5t56.5 338.5t123.5 261q99 122 249 90
q38 -12 28 -50q-11 -39 -50 -27z" />
    <glyph glyph-name="dotlessi" unicode="&#x131;" 
d="M443 1793q-72 15 -116.5 -18t-79.5 -93q-70 -118 -105.5 -321.5t-34 -422.5t41.5 -419t121 -311q91 -126 190.5 -79.5t179.5 135.5q70 78 98 210.5t40 234.5q9 75 13.5 202t-6 260t-42 249t-95.5 170q-54 44 -118.5 21t-101.5 -72q-34 -45 -45 -93t58 -66l34 -6
q39 -4 36 -44q-4 -42 -45 -36l-46 8q-114 30 -116.5 117t59.5 169q58 77 156.5 104t180.5 -40q94 -78 133.5 -257.5t40.5 -384t-29 -397t-76 -296.5q-33 -75 -107 -148t-149 -106q-108 -47 -186 -8t-131.5 120t-85 183t-45.5 180q-24 121 -33.5 293t4.5 349.5t56.5 338.5
t123.5 261q99 122 249 90q38 -12 28 -50q-11 -39 -50 -27zM160 2050q78 78 136.5 98.5t166.5 -30.5q105 -51 149 -54.5t139 80.5l24 22q30 26 57 -2q26 -31 -2 -57q-72 -66 -139.5 -105.5t-169.5 -0.5q-123 47 -161 72t-143 -80q-29 -29 -57 0q-29 28 0 57z" />
    <glyph glyph-name="circumflex" unicode="&#x2c6;" 
d="M443 1793q-72 15 -116.5 -18t-79.5 -93q-70 -118 -105.5 -321.5t-34 -422.5t41.5 -419t121 -311q91 -126 190.5 -79.5t179.5 135.5q70 78 98 210.5t40 234.5q9 75 13.5 202t-6 260t-42 249t-95.5 170q-54 44 -118.5 21t-101.5 -72q-34 -45 -45 -93t58 -66l34 -6
q39 -4 36 -44q-4 -42 -45 -36l-46 8q-114 30 -116.5 117t59.5 169q58 77 156.5 104t180.5 -40q94 -78 133.5 -257.5t40.5 -384t-29 -397t-76 -296.5q-33 -75 -107 -148t-149 -106q-108 -47 -186 -8t-131.5 120t-85 183t-45.5 180q-24 121 -33.5 293t4.5 349.5t56.5 338.5
t123.5 261q99 122 249 90q38 -12 28 -50q-11 -39 -50 -27zM361 2123q60 0 60 -65q0 -64 -60 -64q-61 0 -61 64q0 65 61 65zM626 2123q60 0 60 -65q0 -64 -60 -64q-61 0 -61 64q0 65 61 65z" />
    <glyph glyph-name="breve" unicode="&#x2d8;" horiz-adv-x="873" 
d="M131 1843q-10 -163 -12 -390t17.5 -462.5t66.5 -450t134 -350.5q6 -9 27 -38t37 -15q55 48 90 269.5t56 486t31.5 507.5t17.5 333q1 24 10 79t59 36q28 -12 31 -51.5t5 -63.5q9 -155 9 -323.5t2 -325.5q1 -116 12 -227q15 -162 30.5 -333t41.5 -330q2 -17 6 -35.5
t7 -33.5q23 -35 -10 -56q-33 -24 -56 10q-14 31 -18 50t-9 52q-26 161 -41.5 333t-30.5 336q-4 33 -6 61.5t-3 58.5q-15 -228 -41.5 -438.5t-72.5 -340.5q-43 -120 -112 -137.5t-140 93.5q-92 143 -141.5 363t-70 460.5t-19 473.5t11.5 404q3 39 43 38q39 -4 38 -43z
M154 2301q80 -73 159.5 -145t159.5 -144q30 -29 3 -57q-28 -31 -57 -3q-80 72 -160 144.5t-159 144.5q-30 27 -3 57t57 3z" />
    <glyph glyph-name="dotaccent" unicode="&#x2d9;" horiz-adv-x="873" 
d="M131 1843q-10 -163 -12 -390t17.5 -462.5t66.5 -450t134 -350.5q6 -9 27 -38t37 -15q55 48 90 269.5t56 486t31.5 507.5t17.5 333q1 24 10 79t59 36q28 -12 31 -51.5t5 -63.5q9 -155 9 -323.5t2 -325.5q1 -116 12 -227q15 -162 30.5 -333t41.5 -330q2 -17 6 -35.5
t7 -33.5q23 -35 -10 -56q-33 -24 -56 10q-14 31 -18 50t-9 52q-26 161 -41.5 333t-30.5 336q-4 33 -6 61.5t-3 58.5q-15 -228 -41.5 -438.5t-72.5 -340.5q-43 -120 -112 -137.5t-140 93.5q-92 143 -141.5 363t-70 460.5t-19 473.5t11.5 404q3 39 43 38q39 -4 38 -43z
M718 2261q-27 -21 -53 -42l-52 -42q-57 -47 -115 -93.5t-115 -92.5q-32 -26 -56 6q-26 31 6 56q83 68 166.5 135.5t167.5 135.5q31 26 57 -6q24 -30 -6 -57z" />
    <glyph glyph-name="ring" unicode="&#x2da;" horiz-adv-x="873" 
d="M131 1843q-10 -163 -12 -390t17.5 -462.5t66.5 -450t134 -350.5q6 -9 27 -38t37 -15q55 48 90 269.5t56 486t31.5 507.5t17.5 333q1 24 10 79t59 36q28 -12 31 -51.5t5 -63.5q9 -155 9 -323.5t2 -325.5q1 -116 12 -227q15 -162 30.5 -333t41.5 -330q2 -17 6 -35.5
t7 -33.5q23 -35 -10 -56q-33 -24 -56 10q-14 31 -18 50t-9 52q-26 161 -41.5 333t-30.5 336q-4 33 -6 61.5t-3 58.5q-15 -228 -41.5 -438.5t-72.5 -340.5q-43 -120 -112 -137.5t-140 93.5q-92 143 -141.5 363t-70 460.5t-19 473.5t11.5 404q3 39 43 38q39 -4 38 -43z
M181 2042q89 195 176 266.5t243 -156.5q20 -30 39.5 -61t39.5 -61q21 -35 -13 -56q-33 -22 -55 13q-27 43 -88 135t-106 113q-45 19 -96.5 -88.5t-65.5 -137.5q-17 -37 -53 -20q-38 16 -21 53z" />
    <glyph glyph-name="cedilla" unicode="&#xb8;" horiz-adv-x="873" 
d="M131 1843q-10 -163 -12 -390t17.5 -462.5t66.5 -450t134 -350.5q6 -9 27 -38t37 -15q55 48 90 269.5t56 486t31.5 507.5t17.5 333q1 24 10 79t59 36q28 -12 31 -51.5t5 -63.5q9 -155 9 -323.5t2 -325.5q1 -116 12 -227q15 -162 30.5 -333t41.5 -330q2 -17 6 -35.5
t7 -33.5q23 -35 -10 -56q-33 -24 -56 10q-14 31 -18 50t-9 52q-26 161 -41.5 333t-30.5 336q-4 33 -6 61.5t-3 58.5q-15 -228 -41.5 -438.5t-72.5 -340.5q-43 -120 -112 -137.5t-140 93.5q-92 143 -141.5 363t-70 460.5t-19 473.5t11.5 404q3 39 43 38q39 -4 38 -43z
M282 2115q60 0 60 -65t-60 -65q-61 0 -61 65t61 65zM547 2114q61 0 61 -65q0 -64 -61 -64t-61 64q0 65 61 65z" />
    <glyph glyph-name="hungarumlaut" unicode="&#x2dd;" horiz-adv-x="765" 
d="M699 2228q-26 -21 -52 -42.5t-52 -42.5q-58 -47 -115.5 -93.5t-114.5 -92.5q-30 -25 -57 6q-25 31 6 57q84 67 167.5 134.5t167.5 135.5q30 25 57 -5q23 -34 -7 -57zM150 1875q-17 -176 33 -479t106 -473q13 -42 63 -171t89 -138q25 12 45.5 82.5t35 156t23.5 164
t12 106.5q18 189 26.5 387.5t9.5 390.5q0 40 41 40q40 0 40 -40q-1 -94 -6.5 -307t-25.5 -437q1 -3 1 -8q2 -86 2.5 -244.5t-21 -320t-74 -291.5t-155.5 -160l-31 -6q-40 -4 -45 35q-4 41 36 45l17 4q81 22 121 148.5t57 281.5q-27 -64 -53 -85q-54 -46 -101 -10.5
t-84.5 103t-63.5 142t-36 107.5q-59 180 -109.5 490.5t-32.5 498.5q7 39 46 34q39 -8 34 -46z" />
    <glyph glyph-name="caron" unicode="&#x2c7;" horiz-adv-x="719" 
d="M162 1880q-17 -175 33 -478.5t105 -473.5q13 -42 63 -171t89 -138q25 12 45.5 83t35.5 156.5t24 163.5t12 106q34 378 36 778q0 40 40 40t40 -40q0 -93 -6 -306.5t-26 -437.5q0 -3 0.5 -4.5t1.5 -3.5q2 -86 2.5 -244.5t-21 -320t-74.5 -291.5t-156 -160l-31 -6
q-41 -4 -44 36q-6 40 35 44l18 4q80 23 120.5 149t56.5 281q-23 -59 -52 -85q-54 -46 -101.5 -10.5t-85 103t-63.5 142t-36 107.5q-59 180 -109 490.5t-32 498.5q5 39 46 34q39 -6 34 -46zM282 2127q60 0 60 -65q0 -64 -60 -64q-61 0 -61 64q0 65 61 65zM547 2126
q60 0 60 -64q0 -65 -60 -65q-61 0 -61 65q0 64 61 64z" />
    <glyph glyph-name="glyph106" horiz-adv-x="495" 
d="M16 1856q0 1 13 24l29 -8l261 7q41 1 41 -39q1 -40 -39 -41l-221 -7v-57.5t1 -44.5q6 -270 13 -543.5t18 -545.5q60 8 115 6t117 9q39 9 48 -30q8 -39 -31 -48q-69 -12 -125.5 -10t-119.5 -7h-1q3 -63 6 -124.5t6 -122.5q1 -27 3 -70t7 -77l257 64q40 9 49 -30t-29 -49
l-150 -37q-1 0 -78.5 -25.5t-104.5 -4.5q-22 16 -25.5 69t-4.5 80q-16 242 -23.5 491.5t-13.5 493.5q-5 155 -7.5 312.5t-8.5 313.5q-10 10 -10 25q-2 12 8 26zM-56 2025q88 195 174.5 267t242.5 -156q31 -45 79 -123q21 -34 -12 -56q-35 -21 -56 13q-27 43 -88 135
t-106 113q-45 20 -96.5 -88t-65.5 -138q-16 -37 -52 -20q-36 15 -20 53z" />
  </font>
</defs>
</svg>
