<?xml version="1.0" standalone="no"?>
<!DOCTYPE svg PUBLIC "-//W3C//DTD SVG 1.1//EN" "http://www.w3.org/Graphics/SVG/1.1/DTD/svg11.dtd" >
<svg xmlns="http://www.w3.org/2000/svg" xmlns:xlink="http://www.w3.org/1999/xlink" version="1.1">
<metadata>
Created by FontForge 20170731 at Tue Jul 19 06:22:25 2016
 By Aleksey,,,
Copyright (c) 2016 by Ferdiansyah_ijemrockart_ijemrealmad. All rights reserved.
</metadata>
<defs>
<font id="ContentoScript" horiz-adv-x="282" >
  <font-face 
    font-family="Contento Script"
    font-weight="400"
    font-stretch="normal"
    units-per-em="1000"
    panose-1="2 0 5 6 2 0 0 2 0 2"
    ascent="800"
    descent="-200"
    x-height="278"
    cap-height="546"
    bbox="-351.444 -421.077 753.714 931.791"
    underline-thickness="50"
    underline-position="-200"
    unicode-range="U+000D-007A"
  />
<missing-glyph horiz-adv-x="252" 
 />
    <glyph glyph-name=".notdef" horiz-adv-x="252" 
 />
    <glyph glyph-name=".null" horiz-adv-x="0" 
 />
    <glyph glyph-name="nonmarkingreturn" horiz-adv-x="333" 
 />
    <glyph glyph-name="NULL" horiz-adv-x="0" 
 />
    <glyph glyph-name="NULL" horiz-adv-x="0" 
 />
    <glyph glyph-name="CR" unicode="&#xd;" horiz-adv-x="252" 
 />
    <glyph glyph-name="space" unicode=" " horiz-adv-x="252" 
 />
    <glyph glyph-name="exclam" unicode="!" horiz-adv-x="121" 
d="M59 497q2 9 10.5 11t15 -4.5t5.5 -15.5q-20 -115 -20 -380q0 -16 -16 -16t-16 16q0 270 21 389zM56 2q-11 0 -18.5 8t-7.5 19t8 18.5t18 7.5q11 0 19 -7.5t8 -18.5t-8 -19t-19 -8z" />
    <glyph glyph-name="quotedbl" unicode="&#x22;" horiz-adv-x="187" 
d="M43 576q1 9 13 13t22 0t9 -13q-20 -106 -23 -160q-1 -9 -9.5 -13t-16.5 0t-7 13q1 18 2.5 50.5t3.5 59t6 50.5zM112 576q1 9 13 13t22 0t9 -13q-20 -106 -23 -160q-1 -9 -9.5 -13t-16.5 0t-7 13q1 18 2.5 50.5t3.5 59t6 50.5z" />
    <glyph glyph-name="numbersign" unicode="#" horiz-adv-x="413" 
d="M45 376q-9 0 -13 8t0 15.5t13 7.5q15 0 45 -0.5t45 -0.5q10 46 9 81q0 10 7.5 14t16 0t8.5 -14q1 -35 -9 -80q33 0 73 5l20 82q2 9 10.5 11t15 -4.5t4.5 -15.5l-16 -68q21 3 41 9q15 4 19.5 -11.5t-10.5 -19.5q-21 -6 -59 -12q-7 -30 -23 -90q70 5 120 14q16 2 20 -14
q3 -15 -11 -17q-69 -12 -137 -15q-41 -169 -47 -287q0 -9 -8.5 -13t-16 0t-7.5 13q6 113 46 285q-7 0 -22 -0.5t-22 -0.5q-3 0 -11 -0.5t-12 -0.5q-10 -53 -18 -112q-1 -10 -9.5 -12t-15.5 4.5t-6 15.5q10 70 16 104q-43 4 -59 29q-6 8 -1 15.5t13.5 7.5t15.5 -7
q8 -13 37 -15q5 26 10 44q2 11 11 44q-56 0 -83 1zM148 323l-8 -35q28 2 35 2q5 0 16.5 0.5t17.5 0.5q7 29 23 87q-36 -3 -72 -3q-1 -5 -5.5 -23.5t-6.5 -28.5z" />
    <glyph glyph-name="dollar" unicode="$" horiz-adv-x="335" 
d="M228 560q0 9 7.5 13t16 0t8.5 -13q0 -26 -2 -38l11 -3q29 -10 34.5 -39.5t-7.5 -54.5q-3 -9 -12 -10t-15.5 4.5t-2.5 14.5q19 48 -13 56q-5 -27 -19 -81q-14 -47 -22 -98q51 -63 65 -107q26 -77 16 -142q-13 -83 -68 -117q-29 -15 -50 -19v-45q0 -10 -8 -14t-16 0t-8 14
v40q-35 -2 -58 14q-31 21 -45 63.5t-8 83.5q8 63 96 123q8 6 15.5 1t7.5 -13.5t-7 -14.5q-106 -74 -73 -170q20 -52 56 -54h17q5 124 26 289l8 59q-19 23 -30 39.5t-22.5 40t-12.5 42t9.5 39t34.5 36.5q34 22 69 25q2 24 2 36zM221 249l-16 21q-2 -13 -4 -39
q-19 -145 -25 -272q17 4 33 14q39 26 51 79.5t-0.5 106.5t-38.5 90zM188 480q-77 -42 -3 -138q5 30 15 65q16 56 21 84q-16 -3 -33 -11z" />
    <glyph glyph-name="percent" unicode="%" horiz-adv-x="432" 
d="M375 511q6 7 14.5 4t11 -11t-3.5 -16q-76 -87 -224 -317q-5 -8 -62 -81q-36 -48 -42 -63q6 5 16 14t11 10q71 60 79 67q3 2 14 11t17 14t18.5 13.5t20.5 13t20 10.5t21 8t19.5 2t19.5 -4q43 -20 41 -84t-37 -91q-25 -23 -59 -19.5t-50 35.5q-12 27 -3 56t31 47
q8 6 16.5 3t10.5 -10.5t-4 -14.5q-26 -22 -26 -47q0 -22 16 -34t36 0q24 15 32 43.5t1 58.5q-10 49 -75 7q-38 -24 -121 -94q-4 -4 -17.5 -16.5t-21.5 -19t-20.5 -14.5t-23.5 -10q-8 -2 -14.5 3t-5.5 13q2 32 19.5 62t47.5 65.5t41 52.5q154 239 236 333zM201 521
q15 -6 5 -20q-8 -13 -21 -7q-23 10 -38.5 -9t-14 -47t20.5 -39q34 -20 60 15q9 11 10.5 23t-11.5 19q-9 3 -10.5 12.5t4 15.5t14.5 3q45 -17 33 -62q-11 -38 -48 -57t-68 3q-25 19 -33 49t4 59q13 31 37 43t56 -1z" />
    <glyph glyph-name="ampersand" unicode="&#x26;" horiz-adv-x="546" 
d="M286 392q-6 -15 -21 -6q-12 8 -6 22q41 90 27 152q-8 33 -31.5 46.5t-49.5 4t-43 -37.5q-23 -38 -26 -82.5t20 -81t70 -45.5q8 -2 10 -8q5 -7 1 -16t-14 -9q-61 -4 -106 -57t-51 -116q-16 -144 49 -180q17 -6 30.5 -5.5t28.5 13.5t25.5 26t21.5 32.5t17 33t12 27.5
q12 34 13 36q-81 133 -3 190q10 7 20 -3q53 -60 18 -185q15 -23 31 -41q69 -79 175 -102q9 -2 11 -10.5t-4 -15t-15 -4.5q-134 28 -211 137q-4 -12 -11 -26q-85 -179 -169 -133q-50 26 -65 90t-5 131q8 58 45 109t90 72q-41 25 -57 74t-5 101t44 88q35 39 87 33t71 -56
q31 -82 -24 -198zM266 294q-32 -36 8 -111q15 73 -8 111z" />
    <glyph glyph-name="quotesingle" unicode="'" horiz-adv-x="118" 
d="M43 576q1 9 13 13t22 0t9 -13q-20 -106 -23 -160q-1 -9 -9.5 -13t-16.5 0t-7 13q1 18 2.5 50.5t3.5 59t6 50.5z" />
    <glyph glyph-name="parenleft" unicode="(" horiz-adv-x="261" 
d="M216 621q14 2 15 -12q0 -17 -15 -20q-39 -5 -70.5 -55t-48.5 -121.5t-26 -148t-9 -139.5t8 -92q36 -131 107 -175q9 -5 8 -14t-8 -13t-16 0q-86 52 -122 194q-9 36 -9.5 104t10 149.5t31 156t58.5 127.5t87 59z" />
    <glyph glyph-name="parenright" unicode=")" horiz-adv-x="261" 
d="M45 -177q-14 -2 -15 12q0 17 15 20q39 5 70.5 55t48.5 121.5t26 148t9 139.5t-8 92q-36 131 -107 175q-8 5 -7.5 14t7.5 13t16 0q86 -52 122 -194q9 -36 9.5 -104t-10 -149.5t-31 -156t-58.5 -127.5t-87 -59z" />
    <glyph glyph-name="asterisk" unicode="*" 
d="M69 507q-13 11 -3 25q8 12 19 3l33 -27q0 20 3 41q1 9 9.5 13t16 0t6.5 -13q-2 -14 -2 -19q23 21 50 28q9 2 15 -4.5t4 -15.5t-11 -11q-26 -7 -48 -29q15 1 43 4.5t33 4.5q14 2 15 -13q-1 -15 -15 -18q-24 -4 -70 -10q40 -27 70 -34q9 -2 11 -10.5t-4 -15t-16 -4.5
q-36 9 -79 39l2 -52q0 -15 -16 -15t-16 15q0 9 -0.5 27t-0.5 26q-26 -33 -36 -41q-7 -6 -16 -3t-11 11t5 15q14 13 32 36q-32 -2 -46 -2q-16 0 -16 16t16 16q28 0 42 1q-1 1 -19 16z" />
    <glyph glyph-name="plus" unicode="+" 
d="M237 336q15 0 15 -16t-15 -16q-27 0 -79 -2q0 -27 -2 -79q0 -9 -8.5 -13t-16 0t-7.5 13q2 52 2 79q-36 -1 -81 2q-9 0 -13 8.5t0 16t13 7.5q45 -3 80 -2q0 14 -0.5 41t-0.5 40q0 15 16 15t16 -15q0 -13 0.5 -40t0.5 -41q54 2 80 2z" />
    <glyph glyph-name="comma" unicode="," horiz-adv-x="135" 
d="M105 26q0 -35 -46 -77q-15 -14 -26 -4q-4 7 1 15q23 36 26 45q-10 8 -10 21q0 16 14 22.5t27.5 0t13.5 -22.5z" />
    <glyph glyph-name="hyphen" unicode="-" 
d="M237 336q15 0 15 -16t-15 -16l-96 -2q-96 -1 -96 2q-9 0 -13 8.5t0 16t13 7.5q0 -3 96 -2z" />
    <glyph glyph-name="period" unicode="." horiz-adv-x="113" 
d="M56 -1q-11 0 -18.5 8t-7.5 19q0 10 8 18t18 8q11 0 19 -7.5t8 -18.5t-8 -19t-19 -8z" />
    <glyph glyph-name="slash" unicode="/" horiz-adv-x="446" 
d="M389 653q6 8 14.5 5t11 -11.5t-2.5 -16.5q-111 -136 -191.5 -301.5t-157.5 -380.5q-3 -9 -12.5 -10.5t-15.5 4.5t-3 15q79 219 161 388t196 308z" />
    <glyph glyph-name="zero" unicode="0" horiz-adv-x="316" 
d="M170 521q9 -2 11 -10.5t-4 -15.5t-15 -5q-45 7 -68.5 -29.5t-28.5 -85.5q-14 -118 37 -185q28 -37 63 -31q53 7 76 96q20 82 9 140q-8 38 -31 46q-2 1 -62 15q-9 2 -11 10.5t4.5 15.5t15.5 5q4 -2 8 -2q61 -14 80 -30q19 -17 25 -45q18 -82 -10 -171q-29 -99 -91 -110
q-54 -10 -90 29q-39 41 -51 104.5t-2 126.5q9 62 43.5 102t91.5 30z" />
    <glyph glyph-name="one" unicode="1" horiz-adv-x="195" 
d="M114 46v234q0 21 -4 78.5t-3 88.5q-28 -64 -46 -94q-8 -13 -22 -5.5t-6 21.5q24 39 55.5 117t47.5 108q5 8 13 8t13 -7.5t1 -16.5q-21 -44 -24 -98.5t2.5 -123t3.5 -102.5q-2 -30 -2 -64t1 -77t1 -67q0 -10 -7.5 -14t-15.5 0.5t-8 13.5z" />
    <glyph glyph-name="two" unicode="2" horiz-adv-x="350" 
d="M63 373q0 -15 -16 -15t-16 15q-2 39 21 70t58.5 43.5t73 12.5t68.5 -21.5t42 -59.5q30 -105 -40 -254q-50 -108 -131 -209q33 -14 96.5 -30t90.5 -26q62 -24 97 -20q41 5 95 40q8 6 16 1t8 -13.5t-8 -14.5q-99 -68 -197 -31q-31 11 -110.5 33t-120.5 40q-8 4 -8.5 12
t4.5 13q73 89 120 180q66 127 65 215q-1 52 -27.5 84t-77.5 29q-43 -3 -74 -28t-29 -66z" />
    <glyph glyph-name="three" unicode="3" horiz-adv-x="329" 
d="M104 424q-2 -9 -11 -10.5t-15.5 4.5t-3.5 15q15 53 76 94.5t108 7.5q26 -18 36 -53.5t0 -66.5q-16 -54 -91 -111q42 -43 64.5 -105.5t8 -124t-74.5 -89.5q-31 -14 -66.5 -10t-60.5 26q-58 46 -39 130q2 9 11 11t15.5 -4.5t4.5 -15.5q-15 -72 36 -102q49 -30 93 -2
q37 22 49 60.5t2.5 78.5t-30.5 77t-49 60q-6 6 -4.5 13.5t7.5 11.5q2 1 14.5 10.5t16 12.5t14.5 12t15.5 14.5t12 13.5t11.5 16t7 17q9 21 2.5 55.5t-31.5 41.5q-38 10 -77.5 -19.5t-50.5 -68.5z" />
    <glyph glyph-name="four" unicode="4" horiz-adv-x="383" 
d="M321 514q2 16 18 10q15 -5 13 -19l-27 -152q9 4 16 -1.5t7 -13t-8 -12.5l-21 -13q-43 -253 -43 -425q-1 -15 -16.5 -15t-15.5 15q0 155 39 404q-145 -87 -232 -104q-10 -2 -17 6t-1 17q102 140 148 337q2 9 10.5 11t15 -4.5t4.5 -15.5q-40 -174 -126 -309q67 21 205 103z
" />
    <glyph glyph-name="five" unicode="5" horiz-adv-x="348" 
d="M46 455q-16 0 -16 16t16 16q9 0 29 -0.5t31 -0.5v2q0 10 8.5 14t16 0t7.5 -14v-2q83 0 138 25q9 4 17 -2t7.5 -13.5t-8.5 -12.5q-60 -27 -158 -29q-3 -16 -12 -50t-13 -60t-1 -49q92 45 146 27q70 -26 63 -149q-3 -51 -26.5 -95t-65.5 -64q-43 -21 -79.5 4t-58.5 71
q-2 2 -2 4q-7 7 -3 17.5t15 10.5q10 0 14 -11l4 -5q12 -26 28.5 -43.5t40 -23.5t47.5 17q57 52 54 138q-3 100 -58 102q-48 2 -122 -38q-7 -3 -14.5 0t-9.5 10q-8 18 -6 47.5t6 46.5t11 46.5t10 46.5q-10 0 -28 0.5t-28 0.5z" />
    <glyph glyph-name="six" unicode="6" horiz-adv-x="256" 
d="M204 478q9 -2 11 -11t-4 -15.5t-15 -4.5q-32 9 -59 -13.5t-45 -56.5q-45 -88 -22 -142q13 -33 61 -34.5t59 33.5q10 33 -15 60.5t-53 -0.5q-11 -11 -22.5 0.5t-0.5 22.5q28 23 56 20.5t49 -28t21 -58.5q-1 -36 -30 -59.5t-64 -23t-65 19.5q-26 20 -32.5 55t0.5 67.5
t21 62.5q23 52 62 85.5t87 19.5z" />
    <glyph glyph-name="seven" unicode="7" horiz-adv-x="352" 
d="M157 264q-15 0 -15 16t15 16q27 0 41 1q7 20 22.5 62t26 74.5t15.5 62.5q-16 -5 -43 -15t-43 -15.5t-43.5 -12.5t-44.5 -6t-46 5q-9 2 -11 10.5t4.5 15t15.5 4.5q35 -8 72.5 0t84 27t68.5 25q8 2 15 -3t6 -13q-4 -35 -13.5 -68.5t-28 -84t-23.5 -65.5q36 3 70 12
q9 2 15 -4.5t4 -15.5t-11 -11q-43 -10 -88 -15q-1 -1 -1 -4q-28 -99 -48 -301q-1 -10 -9.5 -14t-16 0t-6.5 14q18 187 43 289q2 8 4 14h-31z" />
    <glyph glyph-name="eight" unicode="8" horiz-adv-x="300" 
d="M134 308q9 0 12.5 -8t0.5 -15q53 -53 62 -90q9 -39 -25 -66t-78.5 -24.5t-62.5 36.5q-21 41 -7.5 87.5t52.5 67.5q-20 22 -29 41q-16 29 -8 67t26 71t51.5 50t67.5 5q48 -17 64.5 -68t6.5 -104.5t-34 -94.5q-5 -8 -14.5 -7t-13.5 7.5t0 15.5q22 37 29.5 85.5t-4.5 89.5
q-12 37 -40 44t-55 -11t-41 -47q-25 -55 -7 -87q10 -19 37 -46q3 1 10 1zM144 240l-16 16l-17 17q-38 -15 -46 -62q-8 -46 19 -65q19 -14 50 -4q52 17 44 45q-6 22 -34 53z" />
    <glyph glyph-name="nine" unicode="9" horiz-adv-x="286" 
d="M207 608q0 15 16 15t16 -15q0 -48 8.5 -156.5t7.5 -166.5q-4 -134 -36 -201q-11 -23 -27 -39t-38 -21.5t-43 15.5q-29 27 -33.5 76t10.5 84q4 9 13 10.5t15 -4.5t3 -15q-5 -13 -7.5 -33.5t-2 -42.5t10 -39t27.5 -20q14 -2 25.5 9.5t19 31.5t11.5 35t7 29q20 92 11 226
q-17 -29 -40.5 -47.5t-52 -22.5t-56.5 18q-46 36 -42 86.5t33 96.5t68 74q13 10 21 -5q7 -13 -5 -22q-26 -19 -50.5 -53t-34.5 -73.5t17 -67.5q34 -28 65 -15t52.5 50t16.5 70v7q-6 84 -6 126z" />
    <glyph glyph-name="colon" unicode=":" horiz-adv-x="113" 
d="M56 2q-11 0 -18.5 8t-7.5 19t8 18.5t18 7.5q11 0 19 -7.5t8 -18.5t-8 -19t-19 -8zM56 245q-11 0 -18.5 8t-7.5 19q0 10 8 18t18 8q11 0 19 -7.5t8 -18.5t-8 -19t-19 -8z" />
    <glyph glyph-name="semicolon" unicode=";" horiz-adv-x="135" 
d="M74 245q-11 0 -18.5 8t-7.5 19q0 10 8 18t18 8q11 0 19 -7.5t8 -18.5t-8 -19t-19 -8zM105 26q0 -35 -46 -77q-15 -14 -26 -4q-4 7 1 15q23 36 26 45q-10 8 -10 21q0 16 14 22.5t27.5 0t13.5 -22.5z" />
    <glyph glyph-name="less" unicode="&#x3c;" horiz-adv-x="301" 
d="M260 106q9 -2 10.5 -11t-4.5 -15.5t-15 -4.5q-27 7 -111 54q-53 31 -71 44q-31 23 -35 33q-17 40 59 91q16 11 63 37t70 43q8 6 15 1t7.5 -13.5t-6.5 -15.5q-20 -15 -59.5 -37t-54.5 -31q-2 -1 -10 -6t-13.5 -8.5t-14 -9.5t-13.5 -11.5t-9 -11.5t-3.5 -11t5.5 -10
q30 -27 104 -66q6 -3 20 -11t22 -12.5t21 -10t23 -7.5z" />
    <glyph glyph-name="equal" unicode="=" 
d="M237 336q15 0 15 -16t-15 -16l-96 -2q-96 -1 -96 2q-9 0 -13 8.5t0 16t13 7.5q0 -3 96 -2zM237 418q15 0 15 -16t-15 -16l-96 -2q-96 -1 -96 2q-9 0 -13 8.5t0 16t13 7.5q0 -3 96 -2z" />
    <glyph glyph-name="greater" unicode="&#x3e;" horiz-adv-x="301" 
d="M41 353q-9 2 -10.5 11t4.5 15.5t15 4.5q27 -7 111 -54q53 -31 71 -44q31 -23 35 -33q17 -40 -59 -91q-16 -11 -63 -37t-70 -43q-8 -6 -15 -1t-7.5 13.5t6.5 15.5q20 15 59.5 37t54.5 31q2 1 10 6t13.5 8.5t14 9.5t13.5 11.5t9 11.5t3.5 11t-5.5 10q-30 27 -104 66
q-6 3 -20 11t-22 12.5t-21 10t-23 7.5z" />
    <glyph glyph-name="question" unicode="?" horiz-adv-x="277" 
d="M72 298q0 -9 -8.5 -13t-16 0t-7.5 13q1 15 -6 60t-1 75t32 49q37 25 81.5 18.5t74.5 -39.5q29 -36 26 -84t-31 -84q-12 -16 -39.5 -39.5t-36.5 -33.5q-39 -40 -39 -107q0 -9 -8.5 -13t-16 0t-7.5 13q0 88 55 136q5 4 18 15t19 16.5t16.5 16.5t16 19t11.5 19t8 22.5
t1 24.5q-4 58 -40 76q-45 26 -80 4q-25 -14 -30 -41t2 -68t6 -55zM83 2q-11 0 -18.5 8t-7.5 19t7.5 18.5t18.5 7.5t19 -7.5t8 -18.5t-8 -19t-19 -8z" />
    <glyph glyph-name="at" unicode="@" horiz-adv-x="455" 
d="M231 368q2 15 18 15q15 -1 14 -15l-4 -43q-9 -96 7 -137q13 -34 41 -25q36 11 54 66q34 108 -4 190q-16 34 -39.5 57t-55.5 30.5t-68 -11.5q-71 -37 -105.5 -130t-23.5 -179q7 -56 40 -103.5t84 -58.5q32 -7 63.5 2t50 21.5t51.5 38.5t47 36q8 6 15.5 1t7.5 -13.5
t-7 -14.5q-14 -10 -41 -33t-50.5 -39.5t-47.5 -24.5q-82 -28 -146 16q-55 37 -80.5 101.5t-19.5 134.5q8 90 46 168.5t109 108.5q38 17 81.5 11t72.5 -37q67 -70 67 -165q0 -111 -44 -170q-19 -25 -48.5 -34t-56.5 10q-33 26 -35 103q-13 -21 -27 -37t-30.5 -27.5t-34 -9.5
t-31.5 20q-21 25 -18.5 57.5t17 61t43.5 45t60 9.5q9 -2 11 -10.5t-4.5 -15t-15.5 -4.5q-23 5 -42.5 -12t-30.5 -41q-9 -13 -8 -42t21 -33q23 -5 53 40q23 35 30 58q2 8 9 10q1 18 5 54z" />
    <glyph glyph-name="A" unicode="A" horiz-adv-x="396" 
d="M44 178q-9 -4 -17 1.5t-7.5 13.5t8.5 13q31 14 88 8q2 12 4 41q5 56 21 116.5t40 133.5t35 114q-83 -18 -120 -61q-57 -63 -19 -164q3 -9 -3 -15t-15.5 -4t-12.5 11q-33 91 1 156q13 25 35 44.5t38 27.5t52 24q82 37 127 18q15 -7 23.5 -19t11 -29.5t2.5 -31.5t-1.5 -35
t-1.5 -29q-1 -45 -9 -160t-5.5 -200.5t21.5 -161.5q15 -61 50.5 -125.5t68.5 -15.5q6 8 15.5 7t13.5 -7.5t-1 -15.5q-19 -28 -42 -33.5t-43 9t-36 34.5t-28 45q-51 103 -51 295q-32 -17 -90 -11q-6 0 -54 8q-22 -165 -112 -185q-9 -2 -15.5 4.5t-4.5 15.5t11 11
q72 15 91 159q-46 4 -69 -7zM148 217v-4t-1 -4q3 0 7 -0.5t7 -0.5q25 -8 69 -7t57 28v1q0 1 0.5 3t0.5 3q1 35 6.5 125t6.5 140q0 5 2 49t-1 49q-3 22 -18.5 27.5t-34.5 -0.5v-4q-11 -44 -37.5 -126.5t-36.5 -119.5q-12 -42 -27 -159z" />
    <glyph glyph-name="B" unicode="B" horiz-adv-x="370" 
d="M58 456q-6 -8 -14 -8t-13.5 7.5t-0.5 16.5q24 44 58 89q5 68 4 117q0 9 7.5 13t16 0t8.5 -13q0 -26 -2 -78q87 85 147 11q41 -54 15 -138.5t-88 -116.5q38 -25 49 -38q24 -32 35 -86q25 -120 17 -179q-11 -84 -62 -119q-60 -39 -115 -22q-37 12 -63 44.5t-32.5 71t0.5 74
t37.5 57t77.5 17.5q9 0 13 -8.5t0 -16t-13 -6.5q-43 4 -68 -20.5t-22 -67.5q3 -39 25 -73t58 -42q33 -7 60 4.5t42.5 35t24 52.5t7.5 59q-4 89 -23 151q-16 54 -47 74q-32 20 -46 32q-7 6 -4.5 16t11.5 11q31 6 54.5 33.5t35.5 62.5q31 88 -10 125q-49 44 -120 -48
q-7 -86 -7 -113v-238q0 -16 -16 -16t-16 16v250l3 49q-20 -34 -24 -42z" />
    <glyph glyph-name="C" unicode="C" horiz-adv-x="294" 
d="M292 306q-3 -9 -12.5 -10.5t-15.5 4.5t-3 15q6 17 25.5 56t31.5 69.5t20 66.5t-3.5 65.5t-43.5 49.5q-17 11 -34.5 11.5t-32 -7t-29 -21.5t-25.5 -30t-22 -36t-17.5 -34.5t-12.5 -30.5q-73 -196 -63 -380q5 -91 23 -121q13 -20 33 -24q44 -9 103 63q6 8 14.5 5t11 -11
t-2.5 -16q-69 -85 -130 -73q-63 13 -79 121q-32 222 66 461q9 20 20 41t26.5 45.5t34.5 42.5t39.5 30t45 10.5t47.5 -18.5q31 -22 46 -50.5t16.5 -55t-7 -61t-19.5 -59.5t-27.5 -61.5t-23.5 -56.5z" />
    <glyph glyph-name="D" unicode="D" horiz-adv-x="376" 
d="M56 382q-7 -7 -15.5 -4t-10.5 11t3 16l63 68q9 119 9 125q0 9 8.5 13t16 0t7.5 -13q-1 -9 -2 -26.5t-2 -31.5t-2 -26l6 7q7 9 21.5 29.5t26.5 35.5t25 27q18 17 37.5 25t38.5 2t29 -31q18 -41 20 -134q1 -73 -4 -173q-1 -22 -2.5 -92t-4.5 -105t-18 -86.5t-42 -88.5
t-72 -58t-85 -8t-61.5 49.5t-24.5 83.5q-5 108 47 173q31 40 71 44t73 -36q6 -8 1 -15t-13.5 -7.5t-15.5 6.5q-17 23 -37.5 21.5t-37.5 -16t-28 -34.5q-25 -47 -28 -96q-2 -35 5 -69t31.5 -59t63.5 -16q32 8 56 24.5t38.5 42.5t24 50t14 61t6 60.5t2.5 63t2 55.5
q1 17 4 60.5t4 68t2 60.5t-2 67.5t-9 60.5q-8 35 -17 42q-20 18 -67 -42q-11 -14 -32 -43t-33 -43l-19 -21q-15 -174 -15 -242q0 -16 -16 -16t-16 16q0 80 11 203z" />
    <glyph glyph-name="E" unicode="E" horiz-adv-x="362" 
d="M369 491q-5 -8 -13 -8.5t-13.5 7.5t-1.5 17q15 35 6 63t-38.5 45t-63 23t-68 -3t-53.5 -33q-22 -27 -34 -78t-9.5 -102t28 -88.5t70.5 -37.5q8 0 12.5 -8t2 -16t-10.5 -8q-54 -15 -102 -86.5t-27 -124.5q14 -38 60.5 -45.5t96.5 16t74 67.5q17 36 -2 44q-15 6 -10 22
q4 15 18 9q46 -18 25 -80q-22 -62 -86.5 -92t-127 -14.5t-80.5 67.5q-19 57 16 123.5t92 103.5q-53 25 -72.5 97t-4 147.5t55.5 114.5q28 27 71.5 36t83 -2t73 -34.5t42 -60.5t-9.5 -81z" />
    <glyph glyph-name="F" unicode="F" horiz-adv-x="390" 
d="M60 515q-5 -9 -14 -8t-13 8t0 16q37 64 155 76v9q0 15 16 15t16 -15v-6h3q13 1 56 3t62 4.5t52 8.5t58 18t48 31q8 6 17 2.5t11 -11t-5 -14.5q-82 -66 -242 -71l-60 -2q1 -32 5 -121t4 -137h120q15 0 15 -16t-15 -16h-120q0 -42 -3 -83q-20 -293 -158 -265q-9 2 -11 10.5
t4 15.5t15 5q61 -12 91 77q24 74 30 202q0 6 0.5 18.5t0.5 19.5h-75q-15 0 -15 16t15 16h75q-1 46 -5 131.5t-5 124.5q-97 -9 -128 -62z" />
    <glyph glyph-name="G" unicode="G" horiz-adv-x="421" 
d="M140 188q-9 -3 -15 3.5t-4 15.5t11 11q44 8 69 6t69.5 -9.5t69.5 -8.5q16 0 16 -16t-16 -16q-26 1 -80 11q0 -40 -5.5 -130.5t-4.5 -139.5q1 -45 2.5 -71t7.5 -67.5t22.5 -72t41.5 -51.5q8 -6 5 -14.5t-11.5 -11t-16.5 2.5q-79 65 -83 261q-1 34 0.5 71t4 84t3.5 70
q-37 -70 -83 -101q-25 -18 -55.5 -13t-44.5 34q-10 23 -11.5 58t0.5 50t8 58q25 193 100 315q55 89 117 106q30 10 66.5 1t51.5 -38q21 -39 14.5 -89t-26 -94t-46.5 -79q-6 -8 -14.5 -5t-11 11.5t2.5 16.5q41 51 57 130q22 100 -32 115q-34 9 -65 -3.5t-52.5 -36.5
t-41.5 -61t-31 -65t-21 -60q-21 -62 -32 -138q0 -3 -5 -31t-6 -38t-2.5 -32t0 -38t6.5 -31q7 -22 20.5 -25.5t29 7t28 22.5t21.5 24q33 48 58 104q-50 7 -86 -2z" />
    <glyph glyph-name="H" unicode="H" horiz-adv-x="446" 
d="M43 166q-10 1 -12 9.5t4 15.5t15 6q48 -8 100 3q0 67 2 100q10 130 9 163q-1 29 -2.5 45t-9.5 40t-21 39q-47 -40 -43 -120q0 -9 -7.5 -13t-16 0t-8.5 13q-5 104 68 155q8 6 19 -3q46 -36 52 -133q2 -43 -7 -180q-3 -32 -3 -96q89 31 167 117q4 187 19 281q2 16 18 10
q15 -5 13 -19q-15 -91 -17 -233q33 43 61 97q5 8 13 8.5t13.5 -7t1.5 -16.5q-35 -71 -90 -133q0 -86 -4 -155q0 -10 -4 -67t-3 -87q2 -33 3.5 -49t11 -42t27.5 -38q8 -6 7.5 -15t-7.5 -13t-16 0q-47 31 -55 119q-4 39 3 174q3 45 5 139q-81 -78 -167 -104q2 -76 1 -114
q-3 -154 -30 -264q-2 -9 -11 -11t-15.5 4.5t-4.5 15.5q27 111 30 267q0 15 -0.5 46.5t-0.5 47.5q-53 -12 -108 -3z" />
    <glyph glyph-name="I" unicode="I" horiz-adv-x="202" 
d="M66 400q1 -9 -6 -15t-15.5 -4t-9.5 11q-3 21 -4 42t1.5 49t15.5 45.5t36 17.5q13 0 24 -4t18 -13t12.5 -18t8 -23t4 -25t1.5 -27.5v-25.5t-1 -25t-1 -20q-1 -42 -16 -164t-15 -124q-19 -206 64 -208q10 0 14 -8.5t0 -16t-14 -7.5q-24 1 -42.5 10.5t-29.5 26.5t-18 37.5
t-8.5 46.5t-1.5 50.5t3 53.5t5.5 50.5t6 45.5t4.5 35q15 154 16 172q4 79 -5 118q-2 10 -3.5 15t-7 10.5t-14.5 5.5q-17 0 -22 -30q-7 -37 0 -84z" />
    <glyph glyph-name="J" unicode="J" horiz-adv-x="433" 
d="M63 374q-1 -10 -9.5 -14t-16 0t-6.5 14q3 46 28 80t67 55.5t83 35t92.5 28.5t77.5 27q9 5 17.5 -1t5.5 -17q-5 -22 -18.5 -62t-16.5 -52q-9 -30 -16.5 -60t-12 -68t-7.5 -60t-5.5 -70t-3 -61t-2 -69.5t-1.5 -62.5q-4 -124 -18 -194q-21 -99 -65 -139q-17 -15 -35 -24
t-39.5 -8t-36.5 19q-35 42 -41 133q-17 203 160 406q6 8 14.5 5t11 -11t-3.5 -16q-172 -201 -149 -396q13 -114 55 -109q60 8 90 114q14 52 19.5 105t6.5 140.5t2 107.5q4 99 20 205q15 88 26 122l28 83q-23 -8 -76 -24t-80 -27q-141 -52 -145 -135z" />
    <glyph glyph-name="K" unicode="K" horiz-adv-x="394" 
d="M113 177l-1 -1q-6 -26 -8 -39q-19 -122 -21 -153q-6 -102 15 -147q4 -9 -1 -16.5t-13 -7.5t-13 8q-35 75 -12 232q22 161 65 273q48 126 57 160q19 67 8 103q-5 16 -18 18.5t-28 -6t-28 -19t-21 -19.5q-47 -57 -24 -125q3 -9 -3 -15t-15.5 -4.5t-12.5 10.5q-24 75 15 133
q46 69 102 77q28 4 44.5 -10t20.5 -39t2.5 -48.5t-6.5 -46.5q-13 -52 -47.5 -143.5t-45.5 -130.5q66 40 113 76.5t94 86.5t72.5 111t26.5 130q0 15 16 15t16 -15q-3 -193 -198 -347q0 -135 14 -200q8 -39 19 -67t37 -51t63 -21q10 0 14 -7.5t-0.5 -15.5t-13.5 -9
q-29 -2 -53.5 6.5t-41 27t-29 39.5t-20 52t-12 56t-6.5 60t-2.5 56t-0.5 51q-56 -40 -119 -78z" />
    <glyph glyph-name="L" unicode="L" horiz-adv-x="342" 
d="M8 -69q1 -9 -5.5 -15.5t-15 -4.5t-10.5 12q-6 40 5 71.5t47 38.5q29 5 66 -3q144 244 146 527q0 104 -25 137q-10 12 -26 -15t-17 -40q-2 -28 -2 -40t2 -39.5t2 -39.5q0 -16 -16 -16t-16 16q0 11 -3 44t-2 56.5t8 43.5q20 54 58 65q53 15 66 -120q12 -128 -26 -287
q-40 -167 -118 -301q9 -3 41 -18q26 -13 93 -55.5t109 -58.5q158 -58 284 0q9 4 16.5 -1t7.5 -13t-8 -13q-74 -37 -158 -32.5t-157 32.5t-144 77q-64 46 -127 60q-81 18 -76 -55q0 -6 1 -13z" />
    <glyph glyph-name="M" unicode="M" horiz-adv-x="586" 
d="M96 316q2 -9 -4.5 -15.5t-15 -4.5t-10.5 11q-3 13 -13 51t-14 59t-7.5 53t1 59t17.5 50q19 35 56.5 56.5t79.5 17t67 -40.5q20 -28 30 -71.5t11.5 -68.5t0 -87.5t-1.5 -69.5q0 -26 0.5 -78t0.5 -78q69 62 144 211q28 55 47 105q16 103 55 168q7 12 19.5 6.5t9.5 -18.5
q-19 -78 -53 -164q-7 -41 -10 -92q-17 -182 -12 -285q10 -160 52 -245q30 -61 71 -76q35 -12 62 3t42 50q6 15 22 10q15 -4 9 -18q-28 -67 -85 -81q-27 -6 -57 5t-51 32q-27 28 -45.5 71t-25.5 75t-16 84q-9 55 -10 123.5t1.5 109t8.5 123.5q0 8 1 12l-12 -23
q-82 -163 -167 -227l-2 -49q-7 -39 -4 -96t30 -89q6 -7 3 -16t-11 -11t-15 5q-42 49 -38 143q0 21 2 85.5t2 99.5v224q0 76 -10 119q-14 55 -36 74q-4 -379 -91 -577q-5 -8 -13 -8.5t-13.5 7.5t-1.5 17q83 186 87 575q-31 3 -61.5 -14t-44.5 -44q-12 -27 -13 -63t2.5 -57.5
t15.5 -70t14 -56.5z" />
    <glyph glyph-name="N" unicode="N" horiz-adv-x="481" 
d="M73 449q3 -9 -3 -15t-15 -4t-12 11q-18 41 -11 92t50 72q36 20 75 10t50 -49l1 -2v-2v-1q0 -1 0.5 -2t0.5 -2q2 -9 4 -33q9 -58 36 -170.5t33 -143.5q2 -12 16 -102t25 -136q79 153 91 386q5 88 5 211q-2 137 -43 211q-5 9 0.5 16.5t13.5 7.5t14 -8q45 -83 47 -217
q0 -155 -6 -231q-16 -262 -114 -428q-5 -8 -15.5 -7t-13.5 11q-16 57 -33.5 167t-22.5 135l-31 134l-3 -71q-12 -163 -58 -280q-3 -9 -12.5 -10.5t-15.5 4.5t-3 15q27 66 40.5 148t16 140.5t2.5 153.5q0 58 -1 70l-2 14q0 5 -2 11q-11 38 -60 28q-80 -17 -44 -134z" />
    <glyph glyph-name="O" unicode="O" horiz-adv-x="383" 
d="M281 657q7 -7 4 -15t-11 -10.5t-16 3.5q-15 14 -30 14.5t-29 -11.5t-26 -27.5t-24 -41t-20.5 -45.5t-17 -46.5t-12 -38t-7.5 -26.5q-34 -124 -28 -218q1 -13 2.5 -25.5t4 -30.5t6 -33t9 -33t12.5 -30t17 -25t21.5 -17t26.5 -6.5t32 5.5q70 25 101 142q24 90 24 195
q-2 110 -31 169q-5 11 -11.5 21t-18 23t-22 14.5t-24.5 -3.5q-35 -23 -22 -86q2 -9 -4.5 -15t-15 -4t-10.5 11q-7 31 1 66t33.5 55t62.5 1q71 -36 90 -187q13 -107 -12 -229q-31 -146 -100 -189q-45 -28 -81.5 -23.5t-58.5 33.5t-38 70.5t-20.5 89.5t-6.5 90.5t5 71.5
q23 131 72 240q82 185 173 101z" />
    <glyph glyph-name="P" unicode="P" horiz-adv-x="375" 
d="M63 314q-6 -15 -22 -10q-15 4 -9 18q57 136 72 164q11 22 21 37v93q0 15 16 15t16 -15v-49q25 30 57 46q32 18 66 10t48 -42q20 -48 16 -142q-3 -56 -13 -113.5t-30 -122t-59 -110.5t-90 -58q-6 -147 17 -232q3 -9 -3.5 -15t-15.5 -4t-11 11q-25 90 -19 236q-23 0 -43 4
q-9 2 -11 10t4.5 15t15.5 5q12 -3 35 -3q0 14 2 58t2 68v272q-14 -28 -36 -82t-26 -64zM157 188q0 -40 -4 -120q42 13 73.5 55t48.5 99t25 105.5t11 94.5q6 72 -4 119l-1 5q-1 5 -1.5 6.5t-1.5 6t-2 6t-2.5 5.5t-3 6t-3.5 5t-4 4.5t-4.5 3t-5.5 2.5q-37 9 -73 -21
q-23 -19 -48 -55v-327z" />
    <glyph glyph-name="Q" unicode="Q" horiz-adv-x="528" 
d="M178 323q-9 0 -13 7.5t0 16t13 8.5q63 5 98 -96q22 -64 38 -161q12 7 25 18q101 94 82 313q-11 108 -61 167q-58 66 -160 81q-10 1 -12 9.5t4.5 15.5t15.5 6q95 -14 154 -68q117 -112 88 -340q-11 -78 -42 -143t-88 -92l3 -21q19 -129 51 -185q46 -82 93 -104
q65 -31 119 61q5 8 14 7t13 -8t0 -16q-46 -76 -101 -84q-50 -7 -99 40q-90 85 -109 205q-11 69 -14 94q-20 -4 -31 -4q-92 -5 -161 75.5t-67 175.5q1 108 68.5 193t172.5 120q9 3 15 -3t4 -15.5t-11 -12.5q-103 -35 -170 -127.5t-42 -195.5q25 -109 101 -155q57 -34 116 -19
q-7 46 -18 93q-1 3 -4 15.5t-4.5 19.5t-5.5 21t-8 22.5t-9 20.5t-11 19t-13 14t-15.5 10t-18.5 2z" />
    <glyph glyph-name="R" unicode="R" horiz-adv-x="440" 
d="M75 513q-8 -5 -15.5 0t-8 13t7.5 14q57 35 86 50v60q0 10 7.5 14t16 0t8.5 -14v-45q59 25 107 21q43 -4 69 -34t34 -66t7 -79q-3 -83 -37.5 -159t-99.5 -108l-6 -3q10 -18 39 -59t40 -66q4 -9 17 -42.5t19.5 -48.5t19 -40t24.5 -44q15 -24 25 -38t30 -39t37 -38.5
t38.5 -26t44 -11t44.5 15.5q8 5 16 0t8 -13t-8 -14q-27 -17 -56 -18t-53 9.5t-49 30.5t-43 41t-35 45q-49 71 -92 180q-28 67 -54 102q-27 34 -43 63q-27 -7 -59 -9q-1 -35 -1 -103q0 -15 -16 -15t-16 15q0 68 1 103q-77 5 -97 55q-4 9 2 17t13.5 7.5t12.5 -8.5
q15 -35 70 -40q2 41 5.5 115.5t6 135.5t3.5 115q-7 -4 -70 -41zM177 569l-15 -381q65 7 99 32q51 38 77 106t24 138q-6 141 -103 129q-38 -5 -82 -24z" />
    <glyph glyph-name="S" unicode="S" horiz-adv-x="365" 
d="M270 447q-11 -11 -22.5 0.5t-0.5 22.5q66 64 54 104q-5 18 -22 28.5t-38 11.5q-37 1 -67.5 -19t-42.5 -54q-32 -94 49 -205q26 -35 39 -54t31 -51t28 -61q36 -107 15 -174q-16 -47 -58.5 -75t-92 -22.5t-80.5 47.5q-27 36 -31.5 81t16 84.5t63.5 56.5q9 3 14.5 -3
t4 -15.5t-10.5 -12.5q-44 -17 -54.5 -68t14.5 -89q20 -36 57 -47t75 10q81 43 51 168q-20 88 -83 175q-28 38 -40.5 56t-28.5 52t-19 65q-8 79 41.5 139.5t127.5 44.5q27 -5 48.5 -22t25.5 -42q9 -60 -63 -132z" />
    <glyph glyph-name="T" unicode="T" horiz-adv-x="310" 
d="M221 609q0 15 16 15t16 -15q0 -17 -2 -49q87 -5 108 0q65 15 74 71q4 25 -9 41t-38 22q-9 2 -11 11t4 15.5t15 4.5q42 -9 62 -43t4 -74q-36 -88 -150 -83q-3 0 -11.5 1t-23 2t-26.5 2q-1 -12 -12.5 -118t-12.5 -162v-41t-0.5 -47t-2 -43.5t-5 -47t-8.5 -41.5t-14 -43.5
t-21 -36.5q-22 -32 -54 -36t-58.5 17.5t-34.5 57.5q-10 51 4.5 103t53.5 79q8 6 15.5 1t7.5 -13.5t-7 -14.5q-34 -24 -44.5 -79t9.5 -90q18 -32 45.5 -29.5t43.5 34.5q21 39 31 112q5 44 5.5 130t4.5 127q3 30 11 91.5t11 92.5q-90 11 -199 8.5t-107 -31.5q0 -10 -7.5 -14
t-16 0t-8.5 14q-1 19 12 32t43 19t56.5 9t76 1t75 -3.5t77.5 -5.5q2 32 2 47z" />
    <glyph glyph-name="U" unicode="U" horiz-adv-x="415" 
d="M281 513q0 15 16 15t16 -15q-1 -48 -11 -136.5t-12 -122.5q1 -3 1 -8q-1 -2 -1 -4v-4q-3 -23 -1 -61t6.5 -74.5t23.5 -64.5t50 -32q9 -1 13.5 -10t0.5 -16.5t-14 -6.5q-99 13 -109 172l-31 -78q-8 -22 -22.5 -70.5t-24.5 -72.5q-7 -18 -18.5 -37t-27.5 -37.5t-34 -17.5
t-33 27q-14 24 -22.5 53.5t-12 53.5t-3.5 60.5t1 56t4 61t4 54.5q5 76 7 405q0 10 7.5 14t15.5 0t8 -14q0 -196 -4 -352q-1 -27 -6.5 -95.5t-5 -118.5t10.5 -95q17 -76 36 -75q8 1 16 14q21 33 40 91q25 84 46 135q38 99 48 145q2 34 11.5 123t10.5 138z" />
    <glyph glyph-name="V" unicode="V" horiz-adv-x="371" 
d="M39 536q2 10 10.5 12t15.5 -4.5t5 -15.5q-17 -86 1 -185q5 -27 19.5 -80.5t19.5 -81.5q3 -17 8.5 -65.5t13.5 -83t23 -61.5q38 42 74 130q34 87 53 174q19 83 24 187q7 128 -16 206q-2 9 4.5 15.5t15.5 4.5t11 -11q26 -90 17 -226q-9 -123 -27 -193q-25 -106 -60 -186
q-40 -94 -87 -138q-14 -14 -25 3q-23 32 -33.5 75t-16.5 96.5t-14 81.5q-14 52 -22.5 87t-16 82.5t-7 91t9.5 85.5z" />
    <glyph glyph-name="W" unicode="W" horiz-adv-x="449" 
d="M176 481q0 16 16 16t16 -16q0 -27 -3.5 -101.5t-2.5 -114.5q0 -89 8 -144q8 -76 29 -98q14 -15 35.5 7.5t41 64.5t32.5 74.5t18 48.5q32 112 17 219.5t-69 210.5q-5 8 0.5 16t13.5 8t13 -8q32 -62 50 -117q63 -205 -17 -400q-85 -214 -154 -150q-27 25 -38 92
q-4 27 -5 38q-21 -112 -69 -128q-26 -9 -43.5 3.5t-24 39.5t-8.5 49.5t-1 43.5q2 37 10.5 165t8.5 198q0 16 16 16t16 -16q0 -93 -17 -316q-7 -92 2 -124q3 -13 14 -24.5t22 -1.5q9 8 16.5 20.5t11.5 22t9 29t6 26t5 29t4 24.5q14 82 14 145q0 5 2 7q1 24 3 73t2 73z" />
    <glyph glyph-name="X" unicode="X" horiz-adv-x="352" 
d="M233 493q5 9 14.5 8t13.5 -8t0 -16q-66 -107 -110 -233q69 -147 164 -213q8 -6 7 -15t-7.5 -13t-15.5 1q-95 65 -162 198q-74 -236 -74 -525q0 -16 -16 -16t-16 16q0 314 85 566l-7 18q-70 163 -78 309q0 10 7.5 14t16 0t8.5 -14q7 -138 69 -283q41 110 101 206z" />
    <glyph glyph-name="Y" unicode="Y" horiz-adv-x="399" 
d="M336 524q1 9 9.5 13t16 0t6.5 -13q-36 -284 -40 -403q-3 -69 0 -131q5 -44 2.5 -101.5t-10 -110.5t-36 -99.5t-76.5 -66.5q-47 -20 -83 -0.5t-54.5 66t-28 89t-11.5 83.5q-7 104 35 196t125 157q13 10 24 -2q9 -12 -1 -20q-77 -60 -117 -143.5t-35 -178.5q7 -95 39 -174
q23 -54 74 -48q44 4 77 54q26 39 37 93.5t11.5 93.5t-3.5 108t-4 95q-1 75 9 175q-31 -23 -68.5 -30.5t-71 8.5t-48.5 55q-21 57 -17 129t30 127q5 8 13 8t13 -8t1 -17q-20 -41 -24 -98t6 -101q14 -63 54 -71q33 -7 65 6.5t52 41.5q3 31 29 218z" />
    <glyph glyph-name="Z" unicode="Z" horiz-adv-x="354" 
d="M76 353q1 -10 -6.5 -14t-16 0.5t-9.5 13.5q-1 11 -5 29t-6.5 30.5t-2 28.5t6.5 30q15 36 68 59q38 16 111 37.5t87 26.5q7 2 14 -3t6 -13q-8 -72 -45 -142.5t-88 -147.5t-74 -130q61 -9 103.5 -43t56.5 -93q35 -152 7 -260q-16 -67 -60 -88q-56 -26 -94 10
q-33 32 -36.5 82.5t12.5 95.5t43 82q6 8 15.5 7t13.5 -7.5t-1 -15.5q-41 -58 -49 -115q-5 -33 1.5 -66t31.5 -46q28 -10 46.5 -2.5t30 33.5t17 49t6.5 45q5 112 -17 193q-28 102 -149 109q-7 1 -12.5 7t-2.5 14q21 56 69 128.5t88 142t52 135.5q-15 -4 -47.5 -13t-57 -16.5
t-45.5 -16.5q-66 -26 -73 -54q-3 -22 -1.5 -34t6.5 -34.5t6 -33.5z" />
    <glyph glyph-name="bracketleft" unicode="[" horiz-adv-x="313" 
d="M46 579q-10 -1 -14 6.5t0 16t14 9.5q26 2 38 2q10 12 24 2q90 4 138 4q15 0 15 -16t-15 -16q-45 0 -133 -4q1 -119 10 -384t10 -312q55 2 130 20q9 3 15 -3.5t4 -15.5t-11 -11q-79 -22 -153 -22q-16 0 -16 16q-2 76 -11 334.5t-10 375.5q-6 0 -18 -1t-17 -1z" />
    <glyph glyph-name="backslash" unicode="\" horiz-adv-x="446" 
d="M57 653q114 -139 196 -308t161 -388q3 -9 -3 -15t-15.5 -4.5t-12.5 10.5q-77 215 -157.5 380.5t-191.5 301.5q-6 8 -2.5 17t11 11t14.5 -5z" />
    <glyph glyph-name="bracketright" unicode="]" horiz-adv-x="313" 
d="M267 -104q10 1 14 -6.5t0 -16t-14 -9.5q-26 -2 -38 -2q-10 -12 -24 -2q-90 -4 -138 -4q-15 0 -15 16t15 16q45 0 133 4q-1 119 -10 384t-10 312q-55 -2 -130 -20q-9 -3 -15 3.5t-4 15.5t11 11q79 22 153 22q16 0 16 -16q2 -76 11 -334.5t10 -375.5q6 0 18 1t17 1z" />
    <glyph glyph-name="asciicircum" unicode="^" horiz-adv-x="363" 
d="M191 581h-20h1q-55 -117 -116 -192q-9 -12 -20.5 -1t-1.5 23q65 81 131 232l1 2q0 2 2 4q3 9 15 7q9 0 12 -7l2 -4v-2q70 -156 132 -232q11 -13 -3 -24q-11 -9 -19 2q-61 75 -116 192z" />
    <glyph glyph-name="underscore" unicode="_" horiz-adv-x="599" 
d="M554 -143q15 0 15 -16t-15 -16q-10 0 -137 -1t-235.5 -1t-136.5 2q-9 0 -13 8.5t0 16t13 7.5q28 -2 136.5 -2t235.5 1t137 1z" />
    <glyph glyph-name="grave" unicode="`" horiz-adv-x="207" 
d="M171 500q11 -10 1 -22.5t-22 -2.5q-17 14 -52 41t-62 52q-7 7 -4.5 16t10 11.5t14.5 -2.5q27 -25 64 -53t51 -40z" />
    <glyph glyph-name="a" unicode="a" horiz-adv-x="327" 
d="M171 285q5 8 13 8t13.5 -7.5t1.5 -16.5q-14 -32 -15 -72.5t12 -73.5q8 -23 24.5 -28t32.5 3.5t28 24.5t46 73q5 8 14 7t13 -7.5t0 -15.5q-36 -60 -48 -76q-14 -19 -34 -32.5t-44 -13.5t-42 21q-17 18 -25 46q-44 -68 -95 -62q-40 4 -57 33.5t-12.5 67.5t18 75t30.5 59
q15 19 32.5 27.5t38.5 2.5t42 -30q6 -8 3 -17t-11 -11t-15 5q-39 47 -70 1q-24 -38 -33 -103q-11 -83 35 -80q9 1 20 5q33 12 65 77q-3 61 19 110z" />
    <glyph glyph-name="b" unicode="b" horiz-adv-x="283" 
d="M24 97q0 -1 -0.5 -2.5t-1.5 -2.5q-14 -124 -14 -157q0 -16 -16 -16t-16 16q0 42 4 81t11 91t10 81q19 169 54 259q4 9 13 10.5t15 -4t3 -14.5q-35 -91 -54 -256l5 6q38 51 71 52q57 0 41 -127q49 12 81.5 28.5t52.5 48.5q4 10 13.5 12t15.5 -4t4 -15q-12 -23 -30.5 -40.5
t-46.5 -29t-45.5 -17.5t-49.5 -14l-3 -16q-18 -73 -54 -93q-22 -13 -44.5 -5t-26.5 35q-3 46 22 67t77 35q1 20 1.5 35.5t0 34t-5.5 27t-13 3.5q-24 -16 -46.5 -48.5t-27.5 -60.5zM80 9q18 21 30 65l-18 -6q-44 -19 -44 -49q0 -18 11.5 -20t20.5 10z" />
    <glyph glyph-name="c" unicode="c" horiz-adv-x="269" 
d="M128 179q-13 -10 -20 5q-7 13 4 22q9 7 19 20t14.5 28t-9.5 21q-12 6 -32 4.5t-30 -12.5q-53 -53 -45 -175q5 -58 26 -69q26 -13 81 26q58 40 79 64q17 22 54 83q5 8 14 7t13 -7.5t0 -15.5q-3 -6 -12.5 -21.5t-14 -22.5t-13 -20.5t-15.5 -21.5t-16.5 -18t-19.5 -17
q-6 -4 -22 -16t-25 -18t-22.5 -14.5t-26.5 -13.5t-26 -8q-29 -6 -48.5 8t-26.5 42t-9 52t-1 49q1 30 7.5 58.5t19.5 57t37.5 44t57.5 11.5q24 -3 42 -15.5t16 -34.5q-3 -46 -50 -82z" />
    <glyph glyph-name="d" unicode="d" horiz-adv-x="319" 
d="M51 244q24 11 75 7q0 57 4 108v8q1 8 1.5 9.5t1.5 9t2 10t2.5 9t3.5 9t5 6.5t6.5 6.5t8.5 3.5q25 7 45 -29q11 -20 13 -43.5t-5 -51t-14 -46.5t-20.5 -49.5t-17.5 -41.5q-1 -2 -4 -10q-2 -62 -2 -94v-6.5v-9.5v-11t0.5 -12t1.5 -11.5t2.5 -10t4 -7.5t6 -3t7.5 2
q19 11 38 39q12 17 33.5 51t31.5 49q8 11 21 32.5t17 27.5q4 10 15.5 9t13.5 -11q4 -7 -1 -13l-9 -14q-3 -7 -29 -49q-19 -30 -65 -98q-28 -40 -55 -53q-25 -11 -40.5 0t-19 34t-5.5 47t1 39q-35 -59 -84 -55q-32 2 -48.5 26.5t-15 53.5t9.5 56q8 23 26 45.5t38 31.5zM82 82
q22 29 44 82v55q-45 5 -59 -3q-40 -24 -53 -66q-16 -56 9 -77q16 -12 31.5 -9t27.5 18zM160 314q-2 -48 -2 -72q20 47 24 76q8 64 -12 80q-1 1 -5.5 -37.5t-4.5 -46.5z" />
    <glyph glyph-name="e" unicode="e" horiz-adv-x="267" 
d="M152 175q-16 -44 -54.5 -81.5t-81.5 -39.5q16 -26 58 -30q37 -4 70.5 18t51 45t42.5 63l29 46q5 8 14 7t13 -7.5t0 -15.5q-9 -16 -29 -48q-21 -34 -36.5 -54.5t-40 -44.5t-54 -34t-63.5 -8q-47 4 -71 32t-24 66t13 78t36 70q18 24 43.5 31.5t52.5 -8.5q49 -33 31 -85z
M37 193q-32 -61 -29 -107q30 -3 61.5 25t47.5 61q22 47 -18 64q-32 14 -62 -43z" />
    <glyph glyph-name="f" unicode="f" horiz-adv-x="236" 
d="M56 234q-9 -3 -15 3.5t-4 15.5t11 12q21 7 41.5 28.5t26.5 42.5q5 17 -4.5 26t-25.5 -2q-20 -13 -33 -45q-15 -33 -19.5 -69t-3 -91t0.5 -72q-5 -106 -5 -118q0 -35 6 -57q1 -2 2 -6q2 -7 3.5 -10t4 -6t5.5 -1t7 8q26 42 23 100t-33 99l-9 11q-5 7 -1 14.5t11.5 9
t14.5 -4.5l3 -3q24 -33 55 -28.5t57.5 26.5t43.5 51l17 28q5 8 14.5 7t13.5 -7.5t0 -15.5l-16 -27q-27 -44 -70 -71.5t-83 -19.5q16 -45 13 -103q-2 -32 -13.5 -62.5t-33.5 -41.5q-26 -12 -42 5t-20 55.5t-4 73t2.5 75t2.5 43.5q0 9 -1 35.5t-1 40.5t1 35.5t4 40t8 35.5
q29 97 85 103q32 4 45.5 -21t2.5 -54q-10 -28 -35 -53.5t-53 -34.5z" />
    <glyph glyph-name="g" unicode="g" horiz-adv-x="336" 
d="M173 347q0 16 16 16t16 -16q0 -33 -0.5 -85t-1.5 -122.5t-1 -105.5q83 80 134 162q5 8 14 7t13 -7.5t0 -15.5q-50 -83 -162 -193q-1 -16 -1 -44q0 -95 -8 -153q-12 -93 -47 -143q-21 -30 -52.5 -49t-63.5 -15q-66 9 -64 104q3 93 65 167q58 71 141 151l2 122
q-44 -54 -88 -63q-38 -8 -60.5 7t-28 44t-1.5 63.5t16.5 66.5t28.5 53q15 19 32.5 27.5t38.5 2.5t42 -30q10 -13 -2 -24q-11 -10 -20 1q-41 47 -70 1q-23 -37 -30 -103q-8 -80 33 -79l18 4q21 8 50.5 36.5t40.5 49.5v163zM165 -160q4 62 5 116l-54 -55q-3 -3 -19 -19.5
t-20.5 -21.5t-17.5 -20t-19 -23.5t-14.5 -22t-13.5 -26t-8 -25.5q-3 -15 -5 -34t-2 -42.5t10 -38.5t29 -13q116 11 129 225z" />
    <glyph glyph-name="h" unicode="h" horiz-adv-x="286" 
d="M51 224q-7 -10 -18 -7l-9 -75q35 59 48 75q29 39 59 25q19 -10 19 -46q0 -25 -5 -52t-13.5 -59.5t-11.5 -50.5q-2 -12 -2 -19q0 -17 16 -19q9 0 22 10.5t27 29.5t25 35.5t24.5 38.5t17.5 28q10 14 36 58q5 8 14 7t13 -7.5t0 -15.5l-35 -58q-5 -8 -22 -35.5t-29 -45
t-29.5 -39t-35 -31.5t-34.5 -8q-32 4 -39 28q-7 23 3 64q14 56 20 85q1 3 3.5 16t4 21t1 19t-4.5 17q-2 0 -3.5 0.5t-5 -4t-5.5 -6.5t-6 -8t-5.5 -8.5t-4.5 -6.5l-2 -5q-5 -10 -29 -45q-37 -54 -46 -75l-12 -56q-2 -9 -10.5 -11t-15 4.5t-4.5 15.5l3 15q2 16 6 29
q8 37 13.5 71t8 55.5t8.5 73t11 87.5q10 88 26 129q7 16 11.5 25.5t15.5 19.5t25 11q19 1 31.5 -19.5t16.5 -42.5q7 -40 -7.5 -87t-33.5 -77.5t-51 -73.5zM47 327q-2 -14 -5 -36.5t-4 -31.5q26 35 41.5 61t27.5 64t5 69q-2 12 -9 28t-14 7q-11 -13 -19 -41q-13 -40 -23 -120
z" />
    <glyph glyph-name="i" unicode="i" horiz-adv-x="222" 
d="M32 314q-11 0 -18.5 8t-7.5 19t8 18.5t18 7.5q11 0 19 -7.5t8 -18.5t-8 -19t-19 -8zM-9 45q-3 67 22 237q1 9 9.5 12t15.5 -2t6 -14q-3 -24 -8.5 -74t-6.5 -59q-3 -18 -4.5 -38.5t-2 -53t8.5 -51.5t27 -14q45 11 164 208q5 8 14 7t13 -7.5t0 -15.5q-82 -137 -129 -184
q-46 -46 -79 -39q-45 9 -50 88z" />
    <glyph glyph-name="j" unicode="j" horiz-adv-x="242" 
d="M21 169q-6 -8 -13.5 -8.5t-13 7t-1.5 16.5l13 21q53 86 67 115q3 8 7 12q3 6 10.5 8t14 -2t6.5 -12q0 -42 -2 -148.5t-2 -143.5q86 83 135 162q5 8 14 7t13 -7.5t0 -15.5q-48 -81 -163 -194v-43q-2 -110 -8 -153q-14 -96 -47 -143q-21 -30 -52.5 -49t-63.5 -15
q-66 9 -64 104q3 93 65 167q64 77 141 151q2 90 2 259l-38 -63q-18 -30 -20 -32zM71 -160q4 65 5 116l-54 -55q-3 -3 -19 -19.5t-20.5 -21.5t-17.5 -20t-19 -23.5t-14.5 -22t-13.5 -26t-8 -25.5q-4 -14 -6 -34t-1.5 -43t10.5 -38t29 -13q114 11 129 225zM97 365
q-11 0 -18.5 7.5t-7.5 18.5t7.5 19t18.5 8t19 -8t8 -19t-8 -18.5t-19 -7.5z" />
    <glyph glyph-name="k" unicode="k" horiz-adv-x="245" 
d="M142 313q6 8 15 7t13 -7.5t0 -15.5q-59 -87 -68 -98q0 -47 12 -76q8 -23 24.5 -28t32.5 3.5t28 24.5t46 73q5 8 14 7t13 -7.5t0 -15.5q-36 -60 -48 -76q-14 -19 -34 -32.5t-44 -13.5t-42 21q-28 31 -33 85q-25 -23 -47 -36q-8 -62 -25 -173q-1 -10 -9.5 -12t-15.5 4.5
t-6 15.5q9 58 25 174q0 5 1 7l25 187q20 129 27 155q16 61 42 67q27 7 41.5 -8t16 -42t-1.5 -52.5t-9 -42.5q-7 -24 -44 -96.5t-58 -96.5v-6q-2 -13 -4 -39q10 8 19.5 16.5t19 20t15.5 18.5t16 22t14 20.5t15.5 23.5t13.5 22zM53 346l-8 -54q48 92 56 116q20 61 12 99
q-6 18 -15.5 13t-14.5 -22q-6 -15 -9 -33q-8 -30 -21 -119z" />
    <glyph glyph-name="l" unicode="l" horiz-adv-x="213" 
d="M100 441q37 -43 30.5 -98.5t-37.5 -106t-72 -80.5q-1 -4 -1 -11q-3 -18 -4.5 -38.5t-2 -53t8.5 -51.5t27 -14q45 11 164 208q5 8 14 7t13 -7.5t0 -15.5q-82 -137 -129 -184q-46 -46 -79 -39q-45 9 -50 88q-2 52 10 150q16 128 41 199q4 11 9 21t15.5 23.5t20 13
t22.5 -10.5zM45 317q-13 -55 -19 -116q38 38 57 94q15 44 13 72q-4 28 -14 45q-3 6 -5 2q-17 -29 -32 -97z" />
    <glyph glyph-name="m" unicode="m" horiz-adv-x="383" 
d="M16 303q1 9 9.5 11t15.5 -4t6 -15l-10 -64l16 14q5 5 16 15.5t17 16.5t16.5 14t19.5 14q7 4 14 1t9 -11q5 -38 3 -90l17 23q1 2 11.5 17t19 23t18.5 10q17 3 26.5 -12t10.5 -41t0 -43.5t-3 -32.5q-1 -11 -7.5 -49.5t-8.5 -59.5q-4 -36 -3 -54q2 -49 122 155q7 12 18 31
q11 20 14 24q6 7 14.5 7t13.5 -7.5t0 -15.5q-8 -13 -38.5 -66t-53 -89.5t-39.5 -55.5q-11 -13 -25.5 -22.5t-31 -9t-22.5 21.5q-8 44 -5.5 69.5t12 72.5t10.5 70q2 49 -4 68l-3 -4q-3 -3 -7 -9l-9 -12q-36 -44 -53 -66q-2 -13 -6.5 -45t-6.5 -50q-1 -9 -9.5 -13t-16 0
t-6.5 13q2 17 6.5 50.5t7 54.5t4.5 50t1 53l-8 -8l-9 -9l-8 -8q-28 -23 -46 -42q-6 -7 -16 -21q-10 -75 -10 -137q0 -16 -16 -16t-16 16q1 74 29 267z" />
    <glyph glyph-name="n" unicode="n" horiz-adv-x="259" 
d="M5 303q1 9 9.5 11t15.5 -4t6 -15l-12 -80q2 3 7.5 13.5t8 14.5t8 13t9 13.5t9.5 11.5t11 11.5t11.5 9t13.5 7.5q34 16 63 0.5t28 -53.5q-1 -27 -13.5 -74t-14.5 -69q-2 -17 1.5 -22.5t19.5 3.5q10 9 19 19q17 22 54 83q5 8 14 7t13 -7.5t0 -15.5q-44 -73 -62 -94
q-21 -24 -45 -29q-21 -4 -32 5.5t-12.5 28t0 34t5.5 31.5q1 2 7 22.5t9 36t5 34t-5 28t-22 8.5q-26 -2 -47 -27t-41 -63t-31 -51q-7 -63 -7 -108q0 -16 -16 -16t-16 16q0 32 3.5 69.5t6.5 62t10 71t9 64.5z" />
    <glyph glyph-name="o" unicode="o" horiz-adv-x="264" 
d="M95 278q15 1 19 -13q42 -4 56 -38q18 -44 -15 -109q26 0 53 15t40 36q6 9 16 27q5 8 14.5 7t13.5 -7.5t0 -15.5l-16 -26q-19 -34 -59.5 -53t-78.5 -13q-21 -29 -47 -39.5t-60 4.5q-30 17 -37 59.5t5 72.5q28 85 96 93zM71 142q-21 53 -8 89q-22 -19 -30 -47
q-5 -15 -8 -32t-0.5 -37t14.5 -29q33 -26 67 13q-23 14 -35 43zM116 131q4 -5 9 -6q26 49 18 83q-4 16 -17 22t-24 -1.5t-11 -25.5q2 -53 25 -72z" />
    <glyph glyph-name="p" unicode="p" horiz-adv-x="292" 
d="M-1 311q0 15 16 15t16 -15v-48q47 71 86 72q19 0 30 -22t13 -57t0.5 -67t-5.5 -62q44 4 64 11q51 16 73 53q4 10 13.5 12t15.5 -4t4 -15q-28 -53 -99 -76q-16 -5 -76 -9v-3q-18 -74 -54 -93q-19 -11 -40 -6.5t-28 24.5q-2 -138 -2 -209q0 -16 -16 -16t-16 16
q0 83 2 249.5t3 249.5zM31 191l-1 -2q0 -41 -2 -119q8 27 31.5 38.5t62.5 15.5q12 138 -4 167q-5 7 -11 3q-25 -16 -48 -46t-28 -57zM89 38q17 20 28 57q-60 -9 -60 -47q0 -18 11.5 -20t20.5 10z" />
    <glyph glyph-name="q" unicode="q" horiz-adv-x="360" 
d="M177 269q2 9 11 11t15.5 -4t3.5 -15l-23 -88v-8q-2 -7 -8 -21q-49 -189 -56 -332l-3 -24q8 13 12 18q121 182 44 214q-9 4 -11 14t7 15q20 11 60 26t63 31t43 49l25 41q5 8 14 7t13 -7.5t0 -15.5q-21 -37 -25 -43q-11 -18 -24 -31.5t-30.5 -24t-29 -16.5t-34.5 -16
t-34 -15q21 -19 23.5 -50t-6 -59.5t-30.5 -68t-36 -60t-36 -51.5q-4 -5 -6 -8l-4 -6q-4 -6 -11.5 -7t-13 3t-5.5 12q0 160 44 348q-17 -14 -33 -18q-32 -10 -59 6t-37 49q-19 68 29.5 124.5t118.5 46.5q10 -1 12 -9.5t-4.5 -15.5t-15.5 -6q-48 7 -86.5 -35t-24.5 -89
q8 -28 25 -37t34.5 -1.5t34 24t25.5 35.5z" />
    <glyph glyph-name="r" unicode="r" horiz-adv-x="490" 
d="M20 169q-6 -8 -13.5 -8.5t-13 7t-1.5 16.5q56 80 66 142q-31 -2 -47 14t-11 54q2 15 16 16q69 3 78 -47q16 5 94 40q24 10 35.5 14.5t34 5t33.5 -13.5q24 -30 6 -108q-8 -33 -33 -114t-34 -127q-21 -101 -22 -163v-11v-17t0.5 -18t3 -19t5.5 -15t8.5 -12t12.5 -4
q29 0 79 77t107 190t66 128q5 8 14 7t13 -7.5t0 -15.5q-6 -10 -69 -134.5t-117.5 -202t-92.5 -74.5q-82 7 -56 199q1 7 1 10q19 134 59 252q35 99 32 137q-1 10 -5 16t-11.5 6.5t-13.5 0.5t-17 -4.5t-15.5 -6.5t-15.5 -8l-6 -3q-64 -29 -96 -37q-8 -59 -74 -162zM47 356
q3 -1 11 -1q-6 18 -27 22q0 -18 16 -21z" />
    <glyph glyph-name="s" unicode="s" horiz-adv-x="306" 
d="M21 169q-8 -14 -21.5 -6.5t-6.5 21.5q9 13 43 77q-11 44 -14.5 76.5t0 60t20 41t45.5 11.5q19 -1 25 -26.5t0 -59.5t-20 -63l-3 -4l-16 -34q20 -76 70 -214q23 11 34.5 17.5t30.5 19t32.5 26t31 35t34.5 49.5q5 8 14 7t13 -7.5t0 -15.5q-14 -24 -26.5 -42t-27 -33
t-22 -23t-26 -19.5t-23 -14t-28 -15t-28.5 -14.5q13 -50 15.5 -98.5t-12.5 -99.5t-51 -82q-50 -43 -103 -13q-48 26 -57 86q-12 87 78 162q9 8 19 15q30 21 66 41q-44 130 -59 186q-26 -46 -27 -47zM86 -231q79 85 30 231q-36 -21 -58 -38q-91 -65 -81 -140q5 -47 43 -66
q38 -18 66 13zM75 421q-9 2 -14.5 -6t-6.5 -24t1 -35.5t7 -42.5q10 22 18 45q5 22 4 42t-9 21z" />
    <glyph glyph-name="t" unicode="t" horiz-adv-x="280" 
d="M-324 399q-8 -6 -16.5 -3t-10.5 10.5t5 14.5q39 32 80.5 48.5t93.5 16.5t82.5 -3t91.5 -14q4 84 17 142q2 9 10.5 11t15.5 -4.5t5 -15.5q-13 -54 -15 -136q63 -6 128 -6q155 -2 238 15q100 22 177.5 73t102.5 136q9 32 12 65t-4.5 70t-30.5 57q-22 19 -52.5 22.5
t-58 -5.5t-52.5 -26q-8 -5 -15.5 0t-7.5 13.5t7 14.5q20 14 37 20q93 38 157 -10q63 -48 50 -171q-10 -92 -69.5 -160t-150.5 -102q-170 -65 -469 -38v-44.5v-51.5v-43q-1 -35 -4 -146.5t-6 -171.5q-3 -62 3 -75q11 -20 44 9q41 38 123 152q21 28 86 133q5 8 14 7t13 -7.5
t0 -15.5q-51 -87 -84 -131q-2 -3 -22.5 -31.5t-36 -49.5t-40 -48t-44.5 -41q-32 -24 -57.5 -14.5t-30.5 49.5q-2 33 -2.5 46.5t1.5 47.5t2 47l7 192q1 34 1 94v96q-16 2 -64 8.5t-71 7t-61 -1.5t-68.5 -15t-60.5 -37z" />
    <glyph glyph-name="u" unicode="u" horiz-adv-x="401" 
d="M13 335q-2 16 14 20q15 3 17 -11q2 -35 1 -49.5t-6.5 -51t-6.5 -49.5q0 -2 -2.5 -24.5t-3.5 -36.5t-2.5 -39.5t-0.5 -43t3.5 -37t9 -31.5t16.5 -17q31 -16 59 37q49 81 64 161q7 54 17 119q1 9 9.5 12t15.5 -2t6 -14l-15 -133q-3 -18 -4.5 -38.5t-2 -53t8.5 -51.5t27 -14
q45 11 164 208q5 8 14 7t13 -7.5t0 -15.5q-82 -137 -129 -184q-46 -46 -79 -39q-43 9 -50 81q-15 -32 -44 -71q-18 -23 -43 -31t-46 3q-10 5 -18 13.5t-13 21t-8.5 23.5t-4.5 28t-2 28t0 30t1.5 26.5t2.5 26.5t2 21q1 17 3 36t5 42t4 36q6 55 4 64z" />
    <glyph glyph-name="v" unicode="v" horiz-adv-x="319" 
d="M9 295q1 9 9.5 13t16 0t6.5 -13q-21 -173 -10 -254q3 -39 15 -51q5 -6 20 12q24 26 51 75q-9 9 -13 19q-14 31 -11 80q5 62 16 79q22 33 53.5 23t35.5 -48q4 -46 -31 -124l-9 -17q12 -5 26 -4q43 1 69.5 23.5t52.5 65.5q2 5 7 12.5t6 9.5q6 7 14.5 7t13.5 -7.5t0 -15.5
q-5 -7 -13 -21q-18 -30 -30 -46t-34.5 -32.5t-52.5 -23.5q-39 -10 -74 4q-15 -27 -30.5 -49t-34 -40t-36.5 -16t-30 28q-21 44 -16 158q2 64 13 153zM124 170q-4 -37 10 -59q30 63 32 89q2 21 0 32q-3 12 -12.5 16t-16.5 -9q-6 -12 -13 -69z" />
    <glyph glyph-name="w" unicode="w" horiz-adv-x="449" 
d="M139 295q2 15 18 15q15 -2 14 -15q-12 -96 -14 -146q2 -4 0 -9l-1 -1v-1q-1 -46 5 -97q6 -42 15 -51q6 -6 20 12q27 29 51 76q-7 8 -12 18q-15 31 -12 80q5 61 17 79q21 33 53 23t35 -48q4 -49 -31 -124l-8 -17q12 -5 26 -4q42 1 69 24t52 65l13 22q5 8 14.5 7t13.5 -7.5
t0 -15.5q-8 -14 -13 -21q-17 -29 -29.5 -45.5t-35 -33t-51.5 -23.5q-39 -10 -74 4q-16 -28 -31 -49t-34 -40t-36.5 -16.5t-29.5 28.5q-15 30 -18 75q-17 -28 -31 -42q-21 -20 -45.5 -22t-42.5 23q-22 40 -11 135q1 12 8.5 61.5t8.5 76.5q0 10 8.5 14t16 0t7.5 -14
q0 -28 -12.5 -104.5t-7.5 -119.5q4 -42 23 -41q18 1 38 31q29 45 41 84v1q2 64 13 153zM255 170q-5 -34 9 -59q31 60 33 89q0 26 -1 32q-3 12 -12 16t-17 -9q-7 -15 -12 -69z" />
    <glyph glyph-name="x" unicode="x" horiz-adv-x="394" 
d="M176 266q0 15 16 15t16 -15q0 -86 -47 -194q33 -71 76 -58q19 5 35 15t32 29.5t23.5 29.5t25 39t20.5 33l21 36q5 8 14.5 7t13.5 -7.5t0 -15.5l-23 -38q-3 -4 -14.5 -23.5t-15.5 -26t-16 -23.5t-18.5 -24.5t-19 -20.5t-23 -19.5t-24.5 -13t-28 -9.5q-57 -11 -95 54
q-56 -123 -62 -138q-3 -9 -12.5 -10.5t-15.5 4t-3 14.5q12 31 38.5 87.5t36.5 78.5q-12 29 -31 95.5t-23 78.5l-3 11q-17 -35 -50 -88q-6 -8 -13.5 -8.5t-13 7t-1.5 16.5q47 68 62 125l3 4q4 5 13 4.5t12 -7.5q14 -30 35 -105t27 -92q32 83 32 153z" />
    <glyph glyph-name="y" unicode="y" horiz-adv-x="341" 
d="M13 330q-2 16 14 20q15 3 17 -11q3 -23 -3 -78.5t-13 -104.5t-2.5 -93t26.5 -55q31 -14 59 37q30 51 44.5 89t23.5 91v61q0 15 16 15t16 -15q0 -40 -2 -130t-2 -122q86 83 134 162q5 8 14.5 7t13.5 -7.5t0 -15.5q-51 -83 -163 -193v-44q-2 -102 -8 -153q-14 -96 -47 -143
q-21 -30 -52.5 -49t-63.5 -15q-66 9 -64 104q3 93 65 167q63 78 141 151q2 64 2 95q-20 -46 -53 -89q-18 -24 -43 -32t-46 3q-22 12 -33.5 36.5t-12 60.5t1.5 63.5t8.5 69.5t7.5 54q5 55 4 64zM171 -160q4 69 5 117l-55 -56q-3 -3 -21.5 -22.5t-24 -26t-20 -23.5t-20.5 -28
t-13.5 -27t-11.5 -31q-4 -14 -6 -34t-1.5 -43t10.5 -38t29 -13q114 11 129 225z" />
    <glyph glyph-name="z" unicode="z" horiz-adv-x="360" 
d="M71 261q-29 -61 -50 -92q-8 -14 -21.5 -6.5t-6.5 21.5q35 59 47 87q8 22 31 22q6 0 75.5 -3.5t75.5 1.5q10 2 17 -6t1 -18q-20 -35 -70 -89.5t-69 -82.5q51 -15 85 -69q8 6 28.5 20.5t28 20t23.5 18.5t25 22.5t22 23.5t24 30t23 35q5 8 14.5 7t13.5 -7.5t0 -15.5
q-25 -41 -59.5 -77t-60 -56.5t-67.5 -50.5q9 -22 16 -51q30 -146 -31 -266q-31 -57 -84 -85t-110 -4q-37 16 -49.5 49.5t-2.5 74t25 73.5t34 63q39 61 143 144l19 14q-31 55 -85 60q-9 1 -13.5 8.5t-0.5 15.5q20 35 68.5 89t64.5 76q-21 0 -64 2t-60 2zM194 -124
q-4 59 -19 101q-64 -46 -106 -89t-72 -107q-52 -115 -10 -151q25 -20 59.5 -18.5t60.5 20.5q49 36 69.5 104t17.5 140z" />
    </font>
</defs>
</svg>
