<?xml version="1.0" standalone="no"?>
<!DOCTYPE svg PUBLIC "-//W3C//DTD SVG 1.1//EN" "http://www.w3.org/Graphics/SVG/1.1/DTD/svg11.dtd" >
<svg xmlns="http://www.w3.org/2000/svg" xmlns:xlink="http://www.w3.org/1999/xlink" version="1.1">
<metadata>
Created by FontForge 20170731 at Sun Aug 17 01:39:48 2014
 By Aleksey,,,
HelloImFlo
</metadata>
<defs>
<font id="HipsterishFontNormal" horiz-adv-x="405" >
  <font-face 
    font-family="HipsterishFontNormal"
    font-weight="500"
    font-stretch="normal"
    units-per-em="1000"
    panose-1="2 0 6 3 0 0 0 0 0 0"
    ascent="800"
    descent="-200"
    x-height="531"
    cap-height="668.5"
    bbox="-159.265 -244.762 717.562 838.263"
    underline-thickness="50"
    underline-position="-200"
    unicode-range="U+0020-3000"
  />
<missing-glyph horiz-adv-x="364" 
d="M66 33h199v600h-199v-600zM33 0v666h265v-666h-265z" />
    <glyph glyph-name=".notdef" horiz-adv-x="364" 
d="M66 33h199v600h-199v-600zM33 0v666h265v-666h-265z" />
    <glyph glyph-name=".null" horiz-adv-x="0" 
 />
    <glyph glyph-name="nonmarkingreturn" horiz-adv-x="333" 
 />
    <glyph glyph-name="space" unicode=" " horiz-adv-x="300" 
 />
    <glyph glyph-name="exclam" unicode="!" horiz-adv-x="174" 
d="M46 116q-3 61 1 266q3 165 -8 263q-1 6 2.5 10.5t9 5t10 -3t4.5 -8.5q11 -95 8 -267q-4 -199 -1 -264q1 -6 -3 -10t-9.5 -4.5t-9.5 3.5t-4 9zM73 33l-1 -11q0 -6 -4.5 -9.5t-10 -3t-9 5t-2.5 9.5l1 11q0 6 4.5 9.5t10 3t9 -5t2.5 -9.5z" />
    <glyph glyph-name="quotedbl" unicode="&#x22;" horiz-adv-x="270" 
d="M170 648q0 -1 -1 -69q0 -18 -1 -26v-8q0 -3 -1 -4q-1 -4 -5 -8q-7 -5 -15 0q-3 2 -5 5l-1 6q-1 1 -1 3v9q0 8 1 23v10v9q0 4 0.5 7.5t0.5 5.5v2q0 3 1 6q0 18 1 29q0 6 4 9.5t9.5 3.5t9 -4t3.5 -9zM69 645q0 -6 0.5 -16.5t1 -24t0.5 -21.5q1 -19 0 -27q0 -7 -1 -10
q0 -2 -1 -4q-3 -5 -9 -7q-8 -1 -13 4q-2 2 -3 4t-1 5q-1 2 -1 4v7v22v31q0 3 1 6v27q0 6 3.5 9.5t9.5 3.5t9.5 -3.5t3.5 -9.5z" />
    <glyph glyph-name="numbersign" unicode="#" horiz-adv-x="483" 
d="M258 451l12 71h-81l-13 -71q47 1 82 0zM275 548q15 81 30 138q4 13 16.5 9.5t9.5 -15.5q-15 -55 -29 -132q40 0 69 -1q5 0 9 -4t3.5 -9.5t-4.5 -9.5t-10 -3q-28 1 -72 1v-5l-12 -67q46 -3 84 -10q6 -1 9 -5.5t2 -10t-5.5 -8.5t-9.5 -2q-39 7 -85 9q-7 -40 -13 -71
q-4 -19 -40 -179q-26 -115 -34 -179q-1 -5 -5 -8.5t-9.5 -2.5t-9 5t-2.5 10q9 70 34 181q36 159 40 179q6 28 12 66q-34 1 -82 0q-16 -81 -49 -230l-44 -193q-1 -5 -5.5 -8t-10 -2t-8.5 5.5t-2 10.5q10 48 43 192.5t49 223.5q-80 -2 -109 -2q-6 0 -9.5 3.5t-3.5 9.5t3.5 9.5
t9.5 3.5q24 0 114 3l13 73q-61 3 -111 13q-5 1 -8 5.5t-2 10t5.5 8.5t10.5 2q48 -10 110 -12q10 65 17 125q0 6 4.5 9.5t10 3t9 -5t2.5 -9.5q-6 -60 -17 -124q26 -1 82 -1z" />
    <glyph glyph-name="dollar" unicode="$" horiz-adv-x="344" 
d="M94 441q2 124 -7 217q-30 -8 -49 -37.5t-9 -64.5q14 -52 65 -115zM119 371q0 -16 -1 -35q-7 -235 -5 -310q24 -7 46 0q37 12 53 60q4 11 5 20.5t0.5 29.5t-0.5 25q0 57 -23 103t-66 97zM156 541q5 70 -19 101q-10 12 -24 16q10 -103 7 -248l28 -32q45 -54 70 -103.5
t25 -113.5q0 -5 0.5 -18.5t0.5 -22t-1.5 -21t-4.5 -21.5q-22 -61 -71 -77q-25 -8 -53 -2q1 -14 1 -27q1 -6 -3 -10t-9.5 -4.5t-9.5 3.5t-4 9l-2 37q-7 3 -13 7q-47 26 -71 81t-8 119q3 13 16 10t10 -16q-14 -56 6 -102t59 -69q-1 64 6 300q1 44 2 64q-73 84 -91 147
q-13 48 13.5 88t67.5 48l-2 16q-1 6 2.5 10t9 5t9.5 -2.5t5 -8.5l2 -18q29 -4 48 -28q31 -39 24 -119q0 -6 -4.5 -9.5t-10 -3t-9 5t-2.5 9.5z" />
    <glyph glyph-name="percent" unicode="%" horiz-adv-x="426" 
d="M233 133q0 10 10 12q35 7 58 -12q21 -17 25 -46q4 -28 -10 -54.5t-43 -35.5q-36 -11 -59 8q-21 17 -23 48q0 23 10.5 44.5t31.5 35.5zM62 661q0 10 10 12q35 7 58 -12q21 -17 25 -46q4 -28 -10 -54.5t-43 -35.5q-36 -11 -59 8q-21 17 -23 48q0 23 10.5 44.5t31.5 35.5z
M266 118q-23 -6 -36 -24.5t-12 -39.5q1 -19 12 -28q13 -10 35 -3q19 6 28 23t7 37q-3 19 -16 29q-6 6 -15 7q-1 -1 -3 -1zM264 683q-12 -47 -31 -138.5t-29 -133.5q-6 -24 -25 -84q-18 -56 -23 -83q-2 -8 -8.5 -41.5t-9.5 -46.5l-10 -41q-6 -29 -10 -47l-12 -40
q-6 -24 -13 -44q-5 -13 -17.5 -8.5t-8.5 16.5q7 20 14 43t11.5 40t10.5 45.5t9 41t9.5 46.5t8.5 42q7 32 23 85q19 59 25 82q11 43 29.5 134t30.5 138q3 13 16 10t10 -16zM95 646q-23 -6 -36 -24.5t-12 -39.5q1 -19 12 -28q13 -10 35 -3q19 6 28 23t7 37q-3 19 -16 29
q-6 6 -15 7q-1 -1 -3 -1z" />
    <glyph glyph-name="ampersand" unicode="&#x26;" horiz-adv-x="462" 
d="M147 513q11 12 18 21q37 47 26 90q-6 25 -16 30q-6 3 -14 -3q-12 -9 -21 -27.5t-9 -36.5q0 -24 16 -74zM289 174q36 71 47 122q3 13 16 10t10 -16q-14 -64 -59 -147l4 -7q34 -78 53 -131q4 -12 -8.5 -16.5t-17.5 8.5q-17 49 -47 118q-18 -29 -36 -52q-50 -61 -100 -73
q-61 -15 -113 48q-46 55 -49 155q-2 44 8 94t32 82q1 1 29 43q18 27 32 43q9 10 36 37q-21 63 -21 95q0 24 11.5 48t28.5 37q22 16 42 6q21 -11 30 -48q14 -55 -31 -112q-11 -14 -29 -33q9 -26 23 -59q15 -38 41 -96t29 -67zM136 464q-17 -17 -26 -27q-13 -15 -30 -40
q-28 -42 -29 -44q-19 -26 -28 -72t-8 -88q3 -90 43 -139q41 -49 87 -38q41 9 85 64q22 28 43 65l-47 108q-4 8 -30 66.5t-41 96.5q-11 26 -19 48z" />
    <glyph glyph-name="quotesingle" unicode="'" horiz-adv-x="175" 
d="M75 656v-83v-36v-1q0 -2 -1 -4t-3 -4q-5 -6 -13 -3q-5 1 -7 5q-1 2 -2 3v3h-1v2v3v13v62q0 3 1 5v35q0 6 3.5 9.5t9.5 3.5t9.5 -3.5t3.5 -9.5z" />
    <glyph glyph-name="parenleft" unicode="(" horiz-adv-x="315" 
d="M204 659q-16 -8 -32 -33l-14 -24q-10 -19 -12 -24q-84 -144 -83 -340.5t84 -339.5q4 -6 11.5 -19.5t11.5 -20.5l12 -18q7 -10 13.5 -17t14.5 -12q11 -8 3 -19t-19 -3q-9 6 -17.5 15t-16.5 20.5t-12 19.5l-13 22q-8 14 -10 18q-88 150 -89 353.5t86 354.5q3 4 13 23
q9 16 15 25q19 32 42 43q12 6 18 -6t-6 -18z" />
    <glyph glyph-name="parenright" unicode=")" horiz-adv-x="312" 
d="M55 -188q28 14 61 85q24 52 39 110q26 98 31 193q4 97 -18.5 195t-72.5 179q-4 6 -12 19.5t-12.5 20.5t-11.5 17t-14 17t-15 12q-11 8 -3 19t19 3t23 -22t17 -21t18 -29l13 -22q53 -85 76.5 -187t18.5 -201q-4 -99 -31 -199q-16 -60 -41 -115q-36 -80 -73 -98
q-12 -6 -18 6t6 18z" />
    <glyph glyph-name="asterisk" unicode="*" horiz-adv-x="311" 
d="M96.5 548.5q5.5 12.5 17.5 27.5l1 1l6 9l3 4q-7 2 -13 5l-16 7l-6 3q-1 1 -2.5 2t-2.5 2q-3 4 -3 9q0 7 4.5 11.5t11.5 3.5q4 -1 9 -3l6 -4h1l12 -4q-1 3 -1 6q-1 14 1 24q1 8 5 12q6 7 15 4q5 -2 8 -7q4 -5 5 -16q1 -9 0 -19v-5q7 4 16 7q11 4 18 5h4q4 0 8 -1
q4 -2 6 -7q2 -4 1 -9q-1 -4 -5 -7q-2 -2 -9 -7l-14 -9q-9 -5 -15 -8h-1l6 -12q1 0 1 -1q2 -3 6 -12l2 -4v-1h1v-1v-1q1 -1 1 -2v-2q0 -3 -2 -6q-4 -8 -13 -7q-4 0 -7 2q-1 1 -2 3v1q-1 0 -1 1l-1 1q-1 3 -2 4l-6 11v1q0 1 -4 6l-3 5q-1 -3 -6 -9l-13 -21q-1 -2 -3 -4
q-5 -12 -17.5 -6.5t-7 18z" />
    <glyph glyph-name="plus" unicode="+" horiz-adv-x="445" 
d="M141 260q-76 0 -150 3q-6 0 -9.5 4t-3.5 9.5t4 9t9 3.5q75 -2 150 -3q1 141 6 250q0 5 4 9t9.5 3.5t9.5 -4.5t3 -10q-5 -108 -6 -248q81 1 164 4q6 1 10 -3t4.5 -9.5t-3.5 -9.5t-9 -4q-84 -4 -166 -4v-134v-134q0 -6 -3.5 -9.5t-9.5 -3.5t-9.5 3.5t-3.5 9.5
q0 14 -0.5 134t0.5 134z" />
    <glyph glyph-name="comma" unicode="," horiz-adv-x="230" 
d="M101 -17q-8 -2 -14 3q-4 3 -7 8q-4 6 -8 17q-7 24 -3 40q3 15 17 18q11 2 25 -8q14 -11 18 -34q3 -18 -1 -41q-7 -49 -27 -68q-9 -10 -18.5 -0.5t0.5 18.5q11 12 18 47z" />
    <glyph glyph-name="hyphen" unicode="-" horiz-adv-x="393" 
d="M16 285q44 0 132 0.5t132 0.5q6 0 9.5 -3.5t3.5 -9.5t-3.5 -9.5t-9.5 -3.5q-44 0 -132 -0.5t-132 -0.5q-6 0 -9.5 3.5t-3.5 9.5t3.5 9.5t9.5 3.5z" />
    <glyph glyph-name="period" unicode="." horiz-adv-x="238" 
d="M125 23l-2 -4q-10 -14 -20 -16q-18 -4 -26 19q-4 14 2 31q10 25 33 21q10 -2 17 -8q12 -3 9 -16q-1 -2 -4 -9q-2 -10 -8 -17q0 -1 -1 -1z" />
    <glyph glyph-name="slash" unicode="/" horiz-adv-x="328" 
d="M228 661q-30 -140 -92 -336l-106 -330q-4 -13 -17 -9t-9 17l107 330q61 194 91 334q1 5 5.5 8t10 2t8.5 -5.5t2 -10.5z" />
    <glyph glyph-name="zero" unicode="0" horiz-adv-x="445" 
d="M297 565q-1 4 -3 7q-21 46 -60.5 65t-81.5 6t-70 -54q-43 -64 -46 -209q-3 -127 22 -222q10 -38 37.5 -73t61.5 -51q34 -17 64 -7q35 11 59 57q37 70 39 232q2 150 -24 238q-2 6 2 11zM339 465q8 -72 7 -149q-2 -169 -42 -244q-30 -56 -74 -71q-41 -13 -85 9
q-39 18 -70 58t-43 84q-26 99 -22 229q3 152 50 222q33 51 84.5 66.5t100 -8t73.5 -77.5q6 -13 10 -29.5t5.5 -27.5t3.5 -30.5t2 -25.5q1 -4 0 -6z" />
    <glyph glyph-name="one" unicode="1" horiz-adv-x="252" 
d="M141 674q7 -41 7 -88q1 -47 -2 -106t-3 -86q0 -65 4.5 -195.5t4.5 -195.5q0 -6 -3.5 -9.5t-9.5 -3.5t-9.5 3.5t-3.5 9.5q0 65 -4.5 195.5t-4.5 195.5q0 29 2 81t2.5 80.5t-2.5 78.5q-42 -66 -115 -106q-11 -6 -17.5 5.5t5.5 18.5q77 41 119 121q2 4 5 6q4 5 10 6
q5 1 9.5 -2t5.5 -9z" />
    <glyph glyph-name="two" unicode="2" horiz-adv-x="398" 
d="M16 545q4 48 34 81.5t72 45.5q37 13 75.5 0.5t50.5 -48.5q6 -20 7 -47t-5 -48q-10 -32 -28 -70.5t-28.5 -59t-39.5 -71.5l-32 -57q-8 -14 -20 -46q-13 -32 -23 -48q-11 -20 -38 -83q-14 -32 -20 -49l-5 -15q8 -2 21 -3q24 -3 75 -5q88 -4 173 -4q6 0 9.5 -3.5t3.5 -9.5
t-3.5 -9.5t-9.5 -3.5q-91 0 -174 3q-49 2 -77 5q-16 2 -25 4q-6 1 -9 3q-8 3 -11 10q-2 6 1 17q2 8 6 20q7 19 20 50q27 62 41 87q8 14 20 44q14 35 21 48l34 59l38 70q11 19 28 57t26 68q5 16 4.5 39t-6.5 40q-7 23 -33 31.5t-59 -1.5q-35 -10 -60 -37t-28 -66
q0 -6 -4.5 -9.5t-10 -3t-9 5t-2.5 9.5z" />
    <glyph glyph-name="three" unicode="3" horiz-adv-x="373" 
d="M2 627q30 44 73 57t79.5 2t62.5 -35q19 -19 25.5 -40.5t-5.5 -44.5q-16 -25 -58 -36q17 -10 31 -26q37 -41 52 -116q24 -113 1 -254q0 -2 -1.5 -13t-2.5 -17t-4 -15.5t-8 -16.5q-13 -22 -37.5 -41.5t-52.5 -28.5q-71 -25 -113 22q-15 17 -24.5 41t-12.5 38t-7 44
q-1 5 2.5 9.5t8.5 5.5t9.5 -2.5t5.5 -8.5q4 -28 7 -42t11 -34t20 -33q30 -34 84 -15q24 8 45 24.5t32 34.5q3 5 5 11.5t2.5 11t2 15t2.5 14.5q22 135 -1 244q-14 70 -45 104q-36 40 -94 36q-6 -1 -10 3t-4.5 9.5t3.5 9.5t9 4q3 1 7 1h4q89 0 109 31q14 22 -17 51
q-21 21 -51 30t-64.5 -2t-58.5 -46q-8 -11 -18.5 -3.5t-3.5 17.5z" />
    <glyph glyph-name="four" unicode="4" horiz-adv-x="403" 
d="M251 690v-1q-4 -65 -7 -136q24 0 45 1q6 1 10 -3t4.5 -9.5t-3.5 -9.5t-9 -4q-22 -2 -48 -2q-3 -77 -3.5 -155t0 -201.5t0.5 -154.5q0 -6 -3.5 -9.5t-9.5 -3.5t-9.5 3.5t-3.5 9.5q0 43 -0.5 124.5t-0.5 133t0.5 122.5t2.5 131h-36q-75 1 -108 0q-5 0 -13 -2t-13 -3
q-23 -3 -35 9q-5 4 -5 10.5t5 10.5q3 3 8 5q3 1 5 2t3 1h1q7 4 32 22q20 13 34 21q18 9 37 22.5t32 23.5l35 30q21 18 33 27q10 9 18 -2q5 -6 2 -13zM65 552h5q34 2 111 1q23 -1 36 -1q2 59 6 112q-76 -65 -117 -86q-13 -6 -31 -19z" />
    <glyph glyph-name="five" unicode="5" horiz-adv-x="472" 
d="M306 639q-5 -1 -134 2q-48 1 -75 1q-28 -1 -38 -3q-3 -4 -6 -12q-7 -16 -14 -36q-6 -21 -8 -35q-1 -5 -1 -8q0 2 -2 0h2q1 -1 1 -2v2h4q7 0 18 3q33 6 39 6q56 2 109 -12q56 -15 94 -56t57 -98q19 -52 20.5 -111t-12.5 -108q-25 -85 -80 -133t-118 -46q-65 2 -110.5 55
t-51.5 147q-1 6 3 10t9.5 4.5t9.5 -3.5t4 -9q6 -86 45 -131t91.5 -46.5t101 40.5t70.5 120q14 44 12 99t-19 104q-18 51 -51.5 87.5t-80.5 48.5q-50 13 -103 12q-3 0 -34 -7q-13 -2 -21 -3q-13 -1 -21 3q-9 4 -11 17q-2 7 -1 18q2 16 10 40q7 22 15 39q4 9 7 14q2 4 4 6
q3 4 7 5q12 5 50 6q27 0 76 -1q125 -3 131 -3q6 1 10 -3t4.5 -9.5t-3.5 -9.5t-9 -4z" />
    <glyph glyph-name="six" unicode="6" horiz-adv-x="420" 
d="M27 455q3 -5 2 -11q-19 -64 -14 -193q5 -138 37 -181q30 -41 68 -52q39 -10 70 7q36 16 62 51t34 78q14 78 5 171q-11 109 -49 153q-44 50 -106 47.5t-101 -57.5q-5 -6 -8 -13zM253 598q-26 28 -51.5 42.5t-58.5 17.5q-44 3 -74 -39q-26 -38 -41 -110l-2 -9
q49 53 118.5 52t117.5 -56q44 -51 55 -168q9 -97 -5 -178q-9 -50 -39 -90t-72 -59q-29 -12 -58 -12.5t-59 16t-54 49.5q-36 50 -42 196v13q-4 4 -4 10q0 152 18 241q16 78 46 120q38 54 97 50q68 -4 128 -68q9 -10 -1 -19t-19 1z" />
    <glyph glyph-name="seven" unicode="7" horiz-adv-x="429" 
d="M52 662q52 2 140 4h84q18 -1 28 -2q6 0 10 -1q2 0 4 -1q5 -1 8 -5q8 -11 0 -25q-1 -3 -4 -8q-3 -4 -4 -5q-13 -23 -34.5 -53t-36.5 -55.5t-26 -58.5q-76 -212 -84 -438q0 -6 -4 -9.5t-9.5 -3.5t-9 4t-3.5 9q8 231 84 446q13 35 29 63t38 59t34 51q0 1 3 5q-9 1 -24 1
q-26 1 -83 0q-100 -2 -138 -3q-6 -1 -10 3t-4.5 9.5t3.5 9.5t9 4z" />
    <glyph glyph-name="eight" unicode="8" horiz-adv-x="444" 
d="M181 549q21 1 39 5q38 7 43 24q1 2 3 4q7 19 -5 33q-17 21 -64 32q-46 9 -89 2t-54 -27q-8 -13 -6 -23t12 -19q23 -19 72 -27q13 -2 26 -3q11 1 23 -1zM51 453q3 -5 2 -11q-19 -64 -14 -193q5 -138 37 -181q30 -41 68 -52q39 -10 70 7q36 16 62 51t34 78q14 78 5 171
q-11 109 -49 153q-36 41 -86 47h-22q-61 -4 -99 -57q-5 -6 -8 -13zM12 374q0 3 0.5 14t1 16t2 15t3 17t4 15.5t6 16t8.5 14.5q25 34 60 51q-34 10 -54 27q-17 14 -21 33q-4 21 8 43q18 30 73 39q49 9 100 -2q56 -13 79 -41q25 -31 4 -69l-2 -2q-3 -6 -7 -12q-4 -4 -9 -5
q-12 -8 -28 -13q26 -14 46 -37q44 -51 55 -168q9 -97 -5 -178q-9 -50 -39 -90t-72 -59q-29 -12 -58 -12.5t-59 16t-54 49.5q-36 50 -42 196q-2 61 2 117q-3 4 -2 9z" />
    <glyph glyph-name="nine" unicode="9" 
d="M266 551q-14 -10 -35 -16q-44 -14 -97 -10q-57 3 -87 25q-41 29 -20 75q14 32 68 46q47 12 100 6q57 -6 83 -33q25 -25 13 -62q-1 -2 -1 -3q4 -31 4.5 -89t0.5 -61q1 -22 5 -71.5t5 -80t-1 -73t-12 -79.5q-9 -36 -27 -70q-16 -30 -38 -44t-55 -16q-83 -7 -121 46
q-30 43 -30 127q0 6 3.5 9.5t9.5 3.5t9.5 -3.5t3.5 -9.5q0 -75 26 -111q29 -41 97 -36q27 2 43 12.5t28 33.5q17 31 26 65.5t10.5 74.5t0.5 69t-4.5 78t-4.5 73q-1 18 -1.5 60t-1.5 64zM262 583q-2 13 -5 25q-2 9 5 14q-1 2 -3 4q-19 19 -67 25q-47 5 -90 -6
q-42 -11 -51 -30q-12 -27 11 -43q24 -18 73 -21q48 -3 88 9q30 9 39 23z" />
    <glyph glyph-name="colon" unicode=":" horiz-adv-x="251" 
d="M139 532l4 -6q6 -10 8 -23q3 -17 -5 -27q-12 -14 -34 -7q-19 6 -23 20q-4 12 4 25q9 15 26 26q11 7 18 -4zM105 55v2q3 13 13 17q13 5 24 -7q5 -6 5 -17q0 -7 -2 -15q-5 -16 -13 -29q-5 -8 -10 -11t-11 -3q-7 0 -12 6t-6 18q-1 10 0 27q0 11 12 12z" />
    <glyph glyph-name="semicolon" unicode=";" horiz-adv-x="230" 
d="M101 -17q-8 -2 -14 3q-4 3 -7 8q-4 6 -8 17q-7 24 -3 40q3 15 17 18q11 2 25 -8q14 -11 18 -34q3 -18 -1 -41q-7 -49 -27 -68q-9 -10 -18.5 -0.5t0.5 18.5q11 12 18 47zM93 477q-3 -1 -6.5 -0.5t-7.5 2.5l-2 2l-2 2q-3 3 -5 6l-1 1q-7 3 -7 11v2l-2 4q-2 7 -1 13q1 5 3 9
q2 11 6 17q7 11 18 10q8 -1 15 -8q8 -8 15 -23q2 -7 4 -13q2 -8 0 -14q-5 -16 -17 -20q-5 -1 -10 -1z" />
    <glyph glyph-name="less" unicode="&#x3c;" horiz-adv-x="376" 
d="M256 538q-12 -9 -130 -125l-81 -80l-26 -26l-4 -5q2 -2 4 -5q8 -12 25 -32q28 -33 83 -92l91 -95q46 -48 55 -60q9 -10 -1.5 -18.5t-19 2t-53.5 58.5l-91 95q-54 58 -84 93q-18 21 -27 33q-5 8 -7 13q-5 9 -3 16l2 4l1 1h1v1l2 2l8 7l26 27l80 80q120 117 133 128
q10 8 18.5 -2.5t-2.5 -19.5z" />
    <glyph glyph-name="equal" unicode="=" horiz-adv-x="459" 
d="M-3 396q34 0 98.5 1.5t73.5 2.5q104 1 174 -5q6 0 9.5 -4.5t3 -10t-5 -9t-9.5 -2.5q-69 6 -171 4q-9 0 -74 -1.5t-99 -1.5q-6 0 -9.5 3.5t-3.5 9.5t3.5 9.5t9.5 3.5zM-14 136q59 0 179.5 -5.5t180.5 -5.5q6 0 9.5 -3.5t3.5 -9.5t-3.5 -9.5t-9.5 -3.5q-60 0 -180.5 5.5
t-179.5 5.5q-6 0 -9.5 3.5t-3.5 9.5t3.5 9.5t9.5 3.5z" />
    <glyph glyph-name="greater" unicode="&#x3e;" horiz-adv-x="371" 
d="M23 556q19 -13 129 -116l78 -75l26 -26q5 -6 8 -9q5 -5 6 -8q3 -7 1 -17q-2 -6 -7 -15q-7 -14 -24 -36q-22 -30 -77 -95l-84 -99q-41 -49 -48 -61t-18.5 -5.5t-5.5 17.5q9 16 52 67l84 98q52 61 76 94q15 21 22 33q3 5 4 9h-1q-2 3 -7 8l-26 26l-78 74q-108 102 -126 114
q-10 8 -2.5 18.5t18.5 3.5z" />
    <glyph glyph-name="question" unicode="?" horiz-adv-x="292" 
d="M2 546q-9 39 2.5 70t35.5 45t51.5 17.5t53 -10.5t37.5 -42q23 -51 -8 -108q-5 -10 -15.5 -27t-16.5 -29.5t-9 -25.5q-5 -24 -7 -51.5t-2 -65t-1 -55.5q0 -5 -4 -9t-9.5 -3.5t-9.5 4.5t-3 10q0 14 0.5 52.5t2.5 68.5t7 55q3 15 10.5 30t19 34t14.5 25q24 45 7 85
q-8 18 -26.5 28t-38.5 8t-37.5 -12.5t-26 -33.5t-1.5 -54q3 -13 -10 -16t-16 10zM119 36l3 -10q4 -13 -9 -17t-17 9l-3 10q-4 13 9 17t17 -9z" />
    <glyph glyph-name="at" unicode="@" horiz-adv-x="582" 
d="M306 212q0 15 2 56.5t2 64.5q-65 20 -106 1.5t-52 -56.5q-11 -36 10 -66.5t69 -33.5q44 -2 75 34zM134 465q0 32 22.5 50.5t54.5 21.5q30 4 59 -6.5t43 -34.5q24 -42 24 -146q0 -29 -2.5 -80t-2.5 -68v-2q18 -22 35 -22q16 0 34 18q17 17 30 43.5t18 49.5q13 63 3 131
t-38 126q-25 51 -77.5 79t-112.5 26t-105 -33q-47 -32 -75 -110q-27 -79 -28.5 -175t23.5 -175.5t71 -112.5q31 -23 83 -34t106 -6q56 5 96.5 27.5t53.5 60.5q5 13 17.5 8.5t8.5 -16.5q-17 -49 -64.5 -75t-109.5 -32q-57 -5 -114 7t-93 38q-53 39 -80 124.5t-25.5 185.5
t31 185t83.5 122q52 35 119.5 37.5t127 -29.5t88.5 -90q30 -62 40 -134.5t-3 -140.5q-5 -26 -20.5 -56t-35.5 -50q-25 -25 -51 -25q-30 -1 -55 30q-37 -33 -84 -30q-61 3 -89 44.5t-14 89.5q15 48 64 71t121 4q-1 86 -22 121q-8 16 -29.5 24t-46 5t-39 -15t-14.5 -31
q0 -6 -3.5 -9.5t-9.5 -3.5t-9.5 3.5t-3.5 9.5z" />
    <glyph glyph-name="A" unicode="A" horiz-adv-x="525" 
d="M239 552l-10 27q-19 51 -23 64l-34 -90h29q4 0 17.5 -0.5t20.5 -0.5zM221 689q8 -35 33 -101q26 -69 35 -104q92 -359 136 -490q4 -12 -8.5 -16.5t-17.5 8.5q-53 159 -136 492q-5 21 -14 48h-1l-48 1q-23 0 -38 -1q-108 -302 -143 -534q-1 -5 -5 -8.5t-9.5 -2.5t-9 5
t-2.5 10q24 162 74 326.5t125 357.5q1 3 3 5q-1 11 10 14q13 3 16 -10z" />
    <glyph glyph-name="B" unicode="B" horiz-adv-x="401" 
d="M99 532q-30 -11 -75 -11h-4q-1 -45 -4 -226.5t-3 -279.5q105 -29 177 33q66 57 81 164q10 69 -5 132q-15 65 -58.5 117t-108.5 71zM96 560q8 4 13 10q17 16 8 39t-37 37t-60 6v-105h4q38 0 62 9q4 4 10 4zM0 673q45 18 86.5 -0.5t55.5 -53.5q16 -40 -14 -69
q66 -25 108.5 -82.5t56.5 -124t5 -134.5q-17 -117 -90 -181q-82 -70 -198 -39q-4 -4 -10 -4t-9.5 3.5t-3.5 9.5q0 110 3.5 329t3.5 327q-1 1 -1 2q-5 13 7 17z" />
    <glyph glyph-name="C" unicode="C" horiz-adv-x="637" 
d="M505 527q-37 82 -95 112q-55 28 -145 18q-91 -11 -143 -76q-38 -49 -56 -113t-17.5 -126t14.5 -128q2 -9 5 -18.5t5.5 -16t8.5 -17.5t8.5 -15t10 -17.5t9.5 -16.5q37 -62 93 -87.5t116 -14.5t109 54t70 109q7 22 13 85q0 6 4.5 9.5t10 3t9 -5t2.5 -9.5q-5 -66 -13 -91
q-24 -73 -78.5 -120.5t-121.5 -60.5q-68 -12 -132 16.5t-104 97.5q-2 4 -10 17t-10 18l-10 16q-6 12 -9 19.5t-6.5 18t-5.5 20.5q-14 70 -15 134q-1 65 18.5 134t61.5 121q58 74 159 86q99 12 162 -21q65 -34 106 -123q6 -13 -6.5 -18.5t-17.5 6.5z" />
    <glyph glyph-name="D" unicode="D" horiz-adv-x="479" 
d="M65 664q0 -106 -0.5 -320.5t-0.5 -323.5q4 4 9 4q154 10 227 117q65 95 50 229q-9 86 -46 155q-38 70 -101 109.5t-136 29.5h-2zM63 690q63 9 119.5 -15t96 -70t65 -106.5t33.5 -125.5q16 -143 -55 -247q-81 -118 -247 -128q-10 -1 -14 9q-4 -5 -10 -5t-9.5 3.5t-3.5 9.5
q0 111 0.5 333t0.5 333q0 6 3.5 9.5t9.5 3.5t10 -4h1z" />
    <glyph glyph-name="E" unicode="E" horiz-adv-x="357" 
d="M24 685q53 1 71 1t70 -2.5t70 -3.5q6 0 9.5 -4t3.5 -9.5t-4 -9t-9 -3.5q-20 0 -62.5 2t-74.5 3t-62 0v-104q16 -1 64 -1q6 0 9.5 -3.5t3.5 -9.5t-3.5 -9.5t-9.5 -3.5q-47 0 -64 1v-510q16 0 48.5 0.5t49.5 1.5q66 0 111 -5q6 0 9.5 -4.5t3 -10t-5 -9t-9.5 -2.5
q-45 4 -109 4q-17 0 -51 -0.5t-50 -0.5q-4 -4 -10 -4t-9.5 3.5t-3.5 9.5v668q0 6 5 10q3 5 9 5z" />
    <glyph glyph-name="F" unicode="F" horiz-adv-x="375" 
d="M38 678q34 -1 109.5 -3t115.5 -4q5 0 9 -4t3.5 -9.5t-4.5 -9.5t-10 -3q-39 2 -111 3.5t-101 2.5q2 -17 0 -43q-1 -36 -1 -48l1 -12q14 -1 63 -1q6 0 9.5 -3.5t3.5 -9.5t-3.5 -9.5t-9.5 -3.5h-62q4 -99 7.5 -282t5.5 -246q0 -5 -3.5 -9t-9 -4t-9.5 3.5t-4 9.5
q-2 60 -5.5 247t-8.5 288q-3 4 -2 9q0 3 1 6v15q-1 14 1 51q1 29 -1 46q-1 5 2 9v2q0 5 4 9t10 3z" />
    <glyph glyph-name="G" unicode="G" horiz-adv-x="598" 
d="M331 261q29 1 78 -1q55 -4 76 -4q6 0 9.5 -3.5t3.5 -9.5q0 -5 -3 -8q0 -65 -19.5 -114.5t-52.5 -78.5t-74 -42t-86 -10q-93 7 -168.5 74.5t-88.5 174.5q-14 114 18.5 218.5t117.5 170.5q48 37 103.5 48t109.5 -8.5t91 -68.5q29 -39 34 -60q3 -13 -10 -16t-16 10
q-4 16 -30 50q-48 64 -125 69q-77 6 -141 -46q-78 -59 -108.5 -157t-17.5 -206q12 -98 80.5 -159t152.5 -68q39 -2 74.5 9t64 35.5t46 68t19.5 101.5q-13 0 -61 3t-75 2q-6 -1 -10 3t-4.5 9.5t3.5 9.5t9 4z" />
    <glyph glyph-name="H" unicode="H" horiz-adv-x="363" 
d="M252 670q1 -17 -1 -42q-3 -29 -4 -38q-1 -34 4 -87q6 -79 6 -89q12 -228 2 -425q0 -5 -4 -9t-9.5 -3.5t-9.5 4.5t-3 10q9 195 -2 421q-1 10 -7 89q-1 12 -2 22q-75 13 -165 2h-1q3 -386 -1 -518q0 -6 -4 -9.5t-9.5 -3.5t-9 4t-3.5 9q3 97 3 205.5t-1.5 242t-1.5 205.5
q0 6 3.5 9.5t9.5 3.5t9.5 -3.5t3.5 -9.5q0 -48 1 -109q89 11 165 -1q-1 22 0 40q0 10 3 41q3 23 2 37q-1 6 3 10t9.5 4.5t9.5 -3.5t4 -9z" />
    <glyph glyph-name="I" unicode="I" horiz-adv-x="183" 
d="M83 654q-4 -101 -6 -315.5t-7 -325.5q0 -5 -4 -9t-9.5 -3.5t-9.5 4.5t-3 10q5 110 7 324.5t6 316.5q0 5 4 9t9.5 3.5t9.5 -4.5t3 -10z" />
    <glyph glyph-name="J" unicode="J" horiz-adv-x="330" 
d="M230 668q-8 -179 -4 -355q1 -15 2.5 -51t2 -58t-2 -53t-8.5 -56q-13 -48 -41.5 -69.5t-63.5 -15.5q-33 5 -59.5 32.5t-36.5 67.5q-2 10 -3.5 22t-1.5 20t0.5 22.5t0.5 18.5q0 6 3.5 9.5t9.5 3.5t9.5 -3.5t3.5 -9.5q0 -62 4 -77q8 -33 29 -54.5t45 -25.5t44.5 11.5
t30.5 53.5q6 24 8.5 53t2 49.5t-2.5 56.5t-2 53q-4 176 4 357q0 5 4 9t9.5 3.5t9.5 -4.5t3 -10z" />
    <glyph glyph-name="K" unicode="K" horiz-adv-x="364" 
d="M84 564l-37 -29q-1 0 -2 -1q0 -351 8 -539q1 -6 -3 -10t-9.5 -4.5t-9.5 3.5t-4 9q-3 64 -5 128.5t-2.5 147.5t-1 123t0 147.5t0.5 128.5q0 6 3.5 9.5t9.5 3.5t9.5 -3.5t3.5 -9.5v-100q14 10 41 32l47 38q21 16 41 30q11 8 19 -3t-3 -19q-31 -21 -85 -65q4 -6 7 -14
q6 -16 13 -44l9 -46q4 -26 6 -32q12 -47 65 -214q44 -138 59 -215q1 -6 -2 -10.5t-8.5 -5.5t-10 2t-5.5 8q-16 78 -58 213q-52 159 -66 216q-2 6 -6 33q-6 29 -9 45q-6 26 -12 40q-1 4 -3 7z" />
    <glyph glyph-name="L" unicode="L" horiz-adv-x="297" 
d="M58 678q-6 -102 -3 -259q5 -237 5 -260q0 -69 1 -80q1 -28 3 -44q1 -9 3 -13v-1q5 0 15 -1q13 0 36 1q6 1 12.5 1t14 0.5t11.5 0.5q21 2 28 1q6 0 9.5 -4t3.5 -9.5t-4 -9t-9 -3.5q-7 0 -26 -1q-4 0 -12 -1h-14q-7 -1 -13 -1q-23 -1 -37 -1q-21 0 -29 4q-7 4 -11 15
q-3 7 -4 18q-3 17 -4 47v81q0 22 -6 260q-3 157 4 261q0 5 4 9t9.5 3.5t9.5 -4.5t3 -10z" />
    <glyph glyph-name="M" unicode="M" horiz-adv-x="352" 
d="M138 533q-10 -9 -19 1q-28 32 -70 91q6 -112 6 -292q0 -288 1 -326q0 -5 -3.5 -9t-9 -4t-9.5 3.5t-4 9.5q-3 75 -2 326q1 205 -8 326q-1 6 3 10q1 5 5 8q11 8 19 -3q71 -98 84 -112q36 33 94 107v1q-1 6 3 10t9.5 4.5t9.5 -3.5t4 -9v-1q2 -4 1 -8q1 -52 0 -75t-5 -75
q-4 -50 -5 -73q-4 -75 0 -216q4 -151 2 -217q0 -6 -4 -9.5t-9.5 -3.5t-9 4t-3.5 9q2 66 -2 217q-4 144 0 218q0 13 5 81.5t5 104.5q-48 -60 -85 -93q-2 -1 -3 -2z" />
    <glyph glyph-name="N" unicode="N" horiz-adv-x="277" 
d="M46 661q6 -56 26 -143q30 -126 33 -143q8 -42 28 -185q6 -47 12 -81q2 91 -1 229q-1 45 4 163q5 108 1 160q-1 6 3 10t9.5 4.5t9.5 -3.5t4 -9q5 -60 0 -164q-6 -122 -5 -161q5 -210 -2 -334q0 -5 -4 -9t-9.5 -3.5t-9.5 4.5q-3 3 -4 6q-19 71 -35 185q-22 158 -27 182
q-3 17 -33 143l-3 14q1 -77 1 -162.5t-0.5 -194t-0.5 -162.5q0 -6 -3.5 -9.5t-9.5 -3.5t-9.5 3.5t-3.5 9.5q0 55 0.5 159.5t0.5 170t-1 156t-4 167.5q0 5 3.5 9t9.5 4h4h2q5 1 9.5 -2.5t4.5 -9.5z" />
    <glyph glyph-name="O" unicode="O" horiz-adv-x="620" 
d="M242 666q54 4 79 0q23 -3 59 -27l18 -11q13 -7 20.5 -12.5t18 -14.5t17.5 -18q39 -54 55.5 -133t8.5 -159q-9 -84 -45 -152.5t-99 -102.5q-3 -1 -16.5 -9t-19.5 -11l-19 -8q-12 -6 -23 -8.5t-22 -3.5q-128 -10 -191 51q-73 70 -87 214q-12 131 28 230q24 59 75.5 107.5
t111.5 66.5q12 3 31 1zM272 636q-5 0 -15 1q-14 2 -15 2l-1 1l-12 -1q-4 0 -7 1q-2 0 -3 -1q-55 -16 -102 -60t-69 -98q-37 -93 -25 -218q13 -133 78 -196q55 -53 171 -45q9 1 17.5 3t18.5 7l16 8q6 2 20 10t18 10q55 30 88 92q33 63 41 142q8 76 -7 150q-16 74 -52 123
q-7 10 -15.5 17t-28 18.5t-22.5 14.5q-32 20 -49 23q-13 2 -33 1q-4 -6 -12 -5z" />
    <glyph glyph-name="P" unicode="P" horiz-adv-x="330" 
d="M51 654q4 -44 6 -93q4 0 17.5 -2t19 -2.5t17.5 -1.5t18.5 -1.5t16 0t17.5 1.5t14 3q22 6 26 18q4 11 -5 28t-26 32t-33 19q-14 4 -45 3q-8 -1 -22.5 -2.5t-20.5 -1.5zM43 680q7 1 24 2.5t25 1.5q36 2 55 -3q21 -6 42.5 -24.5t32.5 -40.5q14 -26 6 -48q-8 -26 -43 -36
t-127 2q2 -78 0 -203q-4 -280 -3 -322q1 -6 -3 -10t-9.5 -4.5t-9.5 3.5t-4 9q-4 84 2 325q5 203 -6 322q-1 7 5 11v2q0 5 3.5 9t9.5 4z" />
    <glyph glyph-name="Q" unicode="Q" horiz-adv-x="633" 
d="M423 78q-84 -89 -211 -82q-71 4 -122 50.5t-74 113.5t-23 145t23 150t74 130.5t121 79.5q12 3 32 1q64 4 92 -3q70 -19 116 -79t62 -136q16 -75 5 -156q-15 -116 -78 -194q27 -27 89 -80q10 -9 1 -19t-19 -1q-61 53 -88 80zM272 636q-5 0 -15 1q-14 2 -15 2h-13
q-4 0 -7 1q-2 0 -3 -1q-63 -19 -109.5 -71.5t-68 -120t-22 -142.5t21.5 -137t66.5 -102t106.5 -44q114 -6 191 75q-20 22 -36 44q-8 11 3 19t19 -3q13 -19 31 -39q56 72 70 178q10 76 -5 147t-56.5 124t-103.5 70q-16 5 -43 4q-4 -6 -12 -5z" />
    <glyph glyph-name="R" unicode="R" horiz-adv-x="364" 
d="M51 654q4 -44 6 -92q6 -1 19 -3t21 -2q6 2 11 -2q46 -4 69 3q21 6 26 18q4 12 -5 28q-8 17 -25 32t-33 19q-14 4 -45 2q-8 0 -23 -1.5t-21 -1.5zM29 7q-4 84 2 325q5 203 -6 322q-1 8 6 12v1q0 5 3.5 9t9.5 4q7 1 24 2.5t25 1.5q36 2 55 -3q21 -6 42 -24.5t32 -40.5
q13 -26 6 -48q-9 -26 -43 -36q-23 -7 -60 -5q14 -33 31 -104q5 -22 15 -71.5t15 -66.5q4 -17 42 -133q27 -83 36 -137q1 -5 -2 -9.5t-8.5 -5.5t-10 2t-5.5 9q-8 46 -36 133q-34 106 -42 135q-4 17 -14 67l-16 71q-20 85 -36 113l-36 5q2 -79 0 -204q-4 -280 -3 -322
q1 -6 -3 -10t-9.5 -4.5t-9.5 3.5t-4 9z" />
    <glyph glyph-name="S" unicode="S" horiz-adv-x="381" 
d="M193 535q5 70 -19 101q-18 23 -48 16q-30 -6 -50 -36t-10 -66q5 -20 13.5 -38t23.5 -39.5t22.5 -31t30.5 -36.5l29 -33q45 -54 70 -103.5t25 -113.5q0 -5 0.5 -18.5t0.5 -22t-1.5 -21t-4.5 -21.5q-22 -61 -71 -77q-45 -14 -93 13q-47 26 -71 81t-8 119q3 13 16 10t10 -16
q-14 -56 6.5 -102.5t59.5 -68.5q38 -22 72 -11q37 12 53 60q4 11 5 20.5t0.5 29.5t-0.5 25q0 57 -23 103t-66 97q-4 5 -28 32t-32 38l-24 33q-16 23 -25.5 43t-15.5 41q-13 48 13.5 88t67.5 49q46 9 74 -27q31 -39 24 -119q0 -6 -4.5 -9.5t-10 -3t-9 5t-2.5 9.5z" />
    <glyph glyph-name="T" unicode="T" horiz-adv-x="330" 
d="M-7 677q38 0 112.5 2t111.5 2q6 0 9.5 -3.5t3.5 -9.5t-3.5 -9.5t-9.5 -3.5q-37 0 -100 -2q1 -15 -1 -38q-1 -36 -1 -48q6 -110 10 -313l5 -254q0 -5 -3.5 -9t-9 -4t-9.5 3.5t-4 9.5q-2 50 -6 253t-9 312q-1 14 1 51q1 23 0 36q-61 -1 -97 -1q-6 0 -9.5 3.5t-3.5 9.5
t3.5 9.5t9.5 3.5z" />
    <glyph glyph-name="U" unicode="U" horiz-adv-x="350" 
d="M247 670q0 -47 1.5 -135t2.5 -120q1 -153 -9 -256q-7 -68 -23 -99q-27 -53 -90 -49q-54 3 -82 65q-19 42 -23 100q-6 98 -3 247q5 224 5 245q0 5 4 9t9 4t9 -4t4 -9q0 -22 -5 -245q-3 -155 3 -245q4 -54 20 -91q22 -48 61 -50q46 -3 65 35q14 27 20 89q9 92 9 254
q0 32 -2 120t-2 135q0 5 4 9t9 4t9 -4t4 -9z" />
    <glyph glyph-name="V" unicode="V" horiz-adv-x="372" 
d="M42 663q20 -152 92 -483q1 -5 3 -18l5 -32q4 -21 6 -35l1 -3q0 4 1 9l17 133q28 215 79 436q3 13 16 10t10 -16q-52 -227 -79 -434l-17 -133l-2 -25q-2 -25 -5 -37q0 -1 -0.5 -2t-0.5 -3v-6q-1 -6 -3 -9q-4 -7 -11 -8t-12 4q-3 3 -5 8q-1 2 -2 6q-2 6 -4 17q-4 18 -9 49
l-6 33l-5 33q-2 12 -3 17q-72 332 -92 485q-1 6 2.5 10t9 5t9.5 -2.5t5 -8.5z" />
    <glyph glyph-name="W" unicode="W" horiz-adv-x="493" 
d="M30 663q2 -42 19 -112q19 -83 23 -114l34 -277q4 -28 13 -84q2 19 5 50q11 105 12 108q28 188 51 284q-11 78 -20 149q-1 6 2.5 10.5t9 5t10 -3t4.5 -8.5q5 -43 12 -87q13 46 28 87q4 12 16.5 7.5t7.5 -17.5q-23 -65 -43 -144q23 -149 59 -347q0 -1 10 -78q9 86 15 135
q35 280 69 451q1 5 5.5 8t10 2t8.5 -5.5t2 -10.5q-34 -169 -69 -449q-6 -49 -16 -149q-5 -52 -5 -53v-2v-3q0 -3 -1 -6q0 -6 -2 -9q-3 -8 -11 -9q-7 -1 -12 5q-5 4 -7 14q-2 7 -4 18q-4 18 -8 51q-2 13 -4 34l-4 33q-2 13 -3 19q-29 156 -48 279q-15 -74 -37 -215
q0 -3 -11 -107q-5 -43 -7 -61q-5 -30 -9 -40q-3 -6 -6 -10q-10 -10 -21.5 -5t-9.5 20l1 4q-2 14 -6 39l-7 47q-4 21 -6 39l-34 277q-4 30 -23 112q-17 73 -19 116q-1 6 3 10t9.5 4.5t9.5 -3.5t4 -9z" />
    <glyph glyph-name="X" unicode="X" horiz-adv-x="384" 
d="M186 665q-18 -43 -38 -125q-15 -61 -18 -72l21 -56q4 -13 63 -206q38 -125 69 -202q5 -12 -7 -17t-17 7q-28 68 -70 205q-51 166 -64 205l-7 21l-4 -14q-42 -126 -65 -221.5t-23 -188.5q0 -6 -3.5 -9.5t-9.5 -3.5t-9.5 3.5t-3.5 9.5q0 96 23 193.5t65 224.5q8 22 15 48
q-56 146 -69 204q-3 13 10 16t16 -10q14 -61 54 -165l8 34q20 81 40 129q5 12 17 7t7 -17z" />
    <glyph glyph-name="Y" unicode="Y" horiz-adv-x="270" 
d="M168 667q-34 -44 -77 -130q-1 -2 -3 -4q4 -37 4.5 -78.5t-1.5 -94.5t-2 -77q0 -54 5 -153t5 -126q0 -5 -3.5 -9t-9 -4t-9.5 3.5t-4 9.5q-1 26 -5.5 125.5t-4.5 153.5q0 26 1.5 77t1 90.5t-3.5 74.5q-3 2 -4 5q-27 57 -67 131q-6 11 5.5 17.5t18.5 -5.5q34 -62 58 -112
q39 77 73 122q9 11 19.5 2.5t2.5 -18.5z" />
    <glyph glyph-name="Z" unicode="Z" horiz-adv-x="306" 
d="M5 669.5q6 -0.5 35 -0.5h61q38 -1 60 -2q13 0 21 -1q5 -1 8 -2q5 -1 9 -3q5 -4 7 -12v-9q-1 -7 -4 -20q-5 -19 -17 -52l-36 -88q-6 -14 -11 -31l-10 -39l-8 -33q-7 -25 -22.5 -73t-17.5 -55q-23 -77 -33 -129l-6 -24q-6 -21 -9 -36q-5 -22 -6 -33v-4h21q19 -1 52 1l53 2
q32 2 39 2q5 0 9 -3.5t4 -9t-3.5 -9.5t-9.5 -4t-38 -2t-53 -3q-33 -1 -54 -1q-27 0 -36 4q-9 3 -11 16q0 6 1 14q1 13 6 36q3 13 9 36q5 19 6 22q10 55 34 132q2 8 17 55.5t22 73.5q3 10 8.5 32t10.5 40t12 33q26 63 35 87q11 31 16 50q2 7 3 12q-7 1 -20 2q-21 1 -58 1h-61
q-30 0 -37 1q-5 0 -9 4t-3.5 9.5t4.5 9.5t10 3.5z" />
    <glyph glyph-name="bracketleft" unicode="[" horiz-adv-x="281" 
d="M163 649q-7 -1 -25 1q-25 1 -31 2q-18 1 -29 0q-8 -1 -12 -2q-1 -2 -1 -3q-2 -7 -3 -18q-2 -21 -2 -57q0 -24 1 -60t1 -40q0 -30 8 -186q6 -117 2 -188q-1 -14 -5.5 -64t-6.5 -79q-7 -102 3 -130q2 -3 10 -5q12 -3 31 -2q14 0 36 3q22 2 28 2t9.5 -3.5t3.5 -9.5
t-3.5 -9.5t-9.5 -3.5q-4 0 -25 -3q-24 -2 -38 -3q-23 0 -38 3q-22 5 -28 21q-13 35 -6 142q2 29 7 78.5t6 64.5q4 69 -3 185q-7 140 -7 187q0 4 -1 40t-1 60q0 37 2 59q1 14 3 22q3 13 10 18q9 6 27 7q13 1 32 0q7 0 32 -2q17 -1 23 -1q5 0 9 -3.5t4 -9t-3.5 -9.5t-9.5 -4z
" />
    <glyph glyph-name="backslash" unicode="\" horiz-adv-x="354" 
d="M-2 643q19 -41 36.5 -85.5t40.5 -109.5l31 -88q13 -36 51 -119q40 -88 52 -118q5 -11 10 -28q7 -25 8 -27q10 -29 24 -44q9 -10 -1 -19t-19 1q-18 19 -29 54q-1 3 -8 27q-5 16 -9 26q-12 29 -53 117q-33 74 -50 120q-9 23 -31.5 87.5t-40 108.5t-36.5 85q-6 12 6 18
t18 -6z" />
    <glyph glyph-name="bracketright" unicode="]" horiz-adv-x="277" 
d="M40 -171q7 1 25 -1q26 -2 31 -2q18 -1 29 -1q8 1 12 2q1 2 1 4q2 7 3 19q2 23 2 60q0 26 -0.5 64.5t-0.5 40.5q0 20 -7 177q-5 112 -1 180q1 15 6 65t7 77q4 47 3 77q0 37 -5 51q-1 -1 -9 2q-12 2 -33 2q-14 0 -37 -1t-26 -1q-6 0 -9.5 3.5t-3.5 9.5t3.5 9.5t9.5 3.5
q3 0 25 2q23 1 38 1q23 0 38 -3q23 -4 28 -18q8 -19 8 -60q0 -29 -4 -80l-7 -77q-5 -50 -6 -65q-3 -64 2 -176q6 -136 6 -179q0 -2 1 -40.5t1 -64.5q0 -39 -2 -62q-2 -15 -4 -24q-3 -13 -10 -18q-9 -6 -28 -7q-12 -1 -32 0q-5 0 -31 3q-17 1 -23 1q-5 0 -9 3.5t-4.5 9
t3.5 9.5t10 4z" />
    <glyph glyph-name="asciicircum" unicode="^" horiz-adv-x="482" 
d="M44 274q3 74 58 187l46 90q28 56 40 85q0 1 2 7l3 12q3 8 4 12q1 3 2 4q2 5 5 8q8 6 17 1q4 -2 7 -7q2 -2 3 -5l2 -3q13 -20 26 -59q18 -57 18 -58q49 -127 104 -250q6 -12 -6.5 -17.5t-17.5 7.5q-56 123 -104 250q-1 2 -20 60q-8 27 -16 42l-2 -4q-2 -7 -3 -10
q-13 -33 -40 -87l-46 -89q-53 -109 -56 -178q0 -5 -4 -9t-9.5 -3.5t-9.5 4.5t-3 10z" />
    <glyph glyph-name="underscore" unicode="_" horiz-adv-x="618" 
d="M-25 -116q61 0 176.5 -2t176.5 -2t176 3q6 1 10 -3t4.5 -9.5t-3.5 -9.5t-9 -4q-116 -4 -177.5 -3.5t-177 2.5t-176.5 2q-6 0 -9.5 3.5t-3.5 9.5t3.5 9.5t9.5 3.5z" />
    <glyph glyph-name="grave" unicode="`" horiz-adv-x="237" 
d="M50 656q23 -44 84 -121q9 -10 -1.5 -18.5t-18.5 2.5q-63 78 -88 125q-6 12 6 18t18 -6z" />
    <glyph glyph-name="a" unicode="a" 
d="M275 78q4 109 3 160v16q-68 20 -112 18q-62 -4 -94 -48q-31 -41 -28 -105q0 -2 0.5 -6.5t0.5 -5.5v-5q0 -4 0.5 -5t1 -4t1 -4.5t1 -4t1.5 -4.5t2.5 -4t3.5 -4q40 -51 109 -47t110 53zM28 424q3 45 33 73t72 34q41 6 79.5 -10t59.5 -54q33 -60 33 -229q0 -50 -3 -133
t-3 -105q0 -6 -3.5 -9.5t-9.5 -3.5t-9.5 3.5t-3.5 9.5v40q-33 -28 -77.5 -38t-89.5 3q-44 13 -72 51q-3 4 -5 8.5t-4 7.5t-3 8t-1.5 7t-1 8t-1 7t-0.5 8v7q-4 75 32 123q40 54 114 58q49 3 114 -16q-4 126 -30 173q-16 29 -47 42t-64.5 8t-56.5 -27t-26 -56q0 -5 -4 -9
t-9.5 -3.5t-9.5 4.5t-3 10z" />
    <glyph glyph-name="b" unicode="b" horiz-adv-x="428" 
d="M36 120q10 2 14 -8q19 -42 61 -61.5t87 -7.5t71 52q39 62 31 182q-7 115 -49 182q-13 21 -40.5 35t-59.5 17q-33 3 -60.5 -6t-42.5 -31q-3 -3 -7 -5q-1 -16 -4 -133q-4 -138 -1 -216zM38 660q4 -67 3 -153q42 38 113 31q37 -4 70 -21t49 -44q46 -72 54 -195
q9 -128 -36 -197q-29 -46 -78.5 -61.5t-98 1t-76.5 58.5q2 -33 5 -64q1 -5 -2.5 -9.5t-9 -5t-10 3t-4.5 9.5q-12 113 -6 324q6 228 1 321q-1 6 3 10t9.5 4.5t9.5 -3.5t4 -9z" />
    <glyph glyph-name="c" unicode="c" horiz-adv-x="429" 
d="M298 364q-3 77 -43 112.5t-91 26.5q-53 -10 -92.5 -66.5t-39.5 -152.5q0 -111 44 -177.5t100 -75.5q54 -9 90 39q42 55 37 163q-1 6 3 10t9.5 4.5t9.5 -3.5t4 -9q6 -118 -42 -182q-45 -59 -115 -48q-69 10 -117.5 85.5t-48.5 193.5q0 104 44.5 168.5t108.5 76.5
t113 -32.5t52 -130.5q1 -6 -3 -10t-9.5 -4.5t-9.5 3.5t-4 9z" />
    <glyph glyph-name="d" unicode="d" horiz-adv-x="428" 
d="M299 454q-19 21 -44.5 28t-63.5 7q-23 0 -33 -0.5t-24.5 -4.5t-27.5 -12q-34 -21 -55 -71.5t-28 -114.5q-6 -63 3 -120.5t29 -89.5q26 -40 74.5 -52t96 7t70.5 62q-5 82 0 242q3 105 3 119zM323 658q6 -91 -1 -324q-6 -205 6 -321q1 -5 -2.5 -9.5t-9 -5t-10 3t-4.5 9.5
q-2 19 -4 40q-34 -38 -85 -52t-101 3q-51 16 -79 60q-24 37 -33 99q-10 61 -3 127q7 70 31 125q23 56 64 81q16 11 34.5 15.5t29.5 5t35 0.5q72 0 109 -26q1 95 -3 167q-1 6 3 10t9.5 4.5t9.5 -3.5t4 -9z" />
    <glyph glyph-name="e" unicode="e" horiz-adv-x="427" 
d="M43 370q29 0 86.5 -2.5t86.5 -2.5t85 5q-3 75 -43.5 109t-93.5 22q-39 -8 -72.5 -42t-48.5 -89zM308 344q-39 -6 -84 -6t-100 3t-82 3q-3 0 -5 1q-7 -35 -5 -75q6 -135 47 -186q36 -43 90 -53q68 -12 103 59q29 58 29 139q0 6 3.5 9.5t9.5 3.5t9.5 -3.5t3.5 -9.5
q0 -87 -31 -151q-44 -88 -131 -73q-65 11 -106 63q-47 57 -53 200q-5 107 40 176q45 68 112.5 83t118 -30t50.5 -137q0 -5 -3.5 -9t-9.5 -4q-2 -3 -6 -3z" />
    <glyph glyph-name="f" unicode="f" horiz-adv-x="278" 
d="M47 551q3 51 35 78q30 25 82 27q6 1 10 -3t4.5 -9.5t-3.5 -9.5t-9 -4q-44 -2 -67 -21t-26 -57h1q13 0 38.5 -0.5t37.5 -0.5q6 0 9.5 -3.5t3.5 -9.5t-3.5 -9.5t-9.5 -3.5h-38h-36q3 -65 -4 -251q-7 -174 9 -270q1 -5 -2 -9.5t-8.5 -5.5t-10 2t-5.5 9q-16 101 -10 275
q7 193 4 250q-26 0 -48 -1q-6 -1 -10 3t-4.5 9.5t3.5 9.5t9 4q22 1 48 1z" />
    <glyph glyph-name="g" unicode="g" horiz-adv-x="383" 
d="M252 455q-30 44 -95 37q-30 -3 -55 -17q-24 -14 -37 -35q-40 -68 -46 -182q-7 -118 30 -182q16 -30 45 -44t58.5 -11.5t56.5 21t39 48.5q0 18 4 138q5 164 5 223q-3 2 -5 4zM33 -58q1 -9 1 -24v-24q0 -10 2 -21.5t5 -20.5q11 -27 45 -40.5t73 -6.5q42 8 69.5 37t27.5 78
v4q-5 55 -7 118q-29 -33 -72 -44t-85.5 5.5t-66.5 58.5q-40 73 -33 197q7 120 51 195q16 27 46 44t65 20q62 7 102 -27l-2 41q-1 6 3 10t9.5 4.5t9.5 -3.5t4 -9q6 -88 -2 -307q-3 -84 -3 -137q1 -2 0 -4q0 -90 8 -162q1 -3 -1 -6q0 -59 -34 -94.5t-84 -44.5q-46 -9 -89.5 8
t-57.5 55q-6 15 -8 30.5t-2 40.5v27q-1 6 3 10t9.5 4.5t9.5 -3.5t4 -9z" />
    <glyph glyph-name="h" unicode="h" horiz-adv-x="422" 
d="M39 9q-13 104 -6 324q1 60 2 94q-1 2 0 5q2 130 -11 220q-1 6 2.5 10t9 5t9.5 -2.5t5 -8.5q11 -73 12 -166q29 39 74.5 52t90.5 -7.5t69 -70.5q13 -27 19 -91q5 -53 7 -128q2 -92 -3 -229q0 -6 -4 -9.5t-9.5 -3.5t-9 4t-3.5 9q4 128 2 228q-1 80 -6 127q-6 59 -17 81
q-17 37 -49.5 54t-64 13t-59.5 -28t-37 -62q-1 -35 -3 -97q-6 -218 6 -319q1 -6 -2.5 -10.5t-9 -5t-10 3t-4.5 8.5z" />
    <glyph glyph-name="i" unicode="i" horiz-adv-x="184" 
d="M78 535q2 -25 2.5 -50.5t0 -57t-1 -48.5t-2.5 -57.5t-2 -50.5q-7 -163 9 -258q1 -5 -2 -9.5t-8.5 -5.5t-10 2t-5.5 9q-17 99 -10 264q1 10 2.5 50.5t1.5 56.5l2 48q1 31 0 56l-2 49q-1 6 3 10t9.5 4.5t9.5 -3.5t4 -9zM77 669l-1 -11q0 -6 -4.5 -9.5t-10 -3t-9 5t-2.5 9.5
l1 11q0 6 4.5 9.5t10 3t9 -5t2.5 -9.5z" />
    <glyph glyph-name="j" unicode="j" horiz-adv-x="172" 
d="M63 670l-1 -11q0 -6 -4.5 -9.5t-10 -3t-9 5t-2.5 9.5l1 11q0 6 4.5 9.5t10 3t9 -5t2.5 -9.5zM67 -44v-30q1 -23 0 -38q-4 -51 -27 -71q-12 -10 -37 -15q-17 -4 -36 -4q-67 -2 -98 30.5t-28 100.5q0 5 4 9t9.5 3.5t9.5 -4.5t3 -10q-2 -56 21 -80t79 -23q16 1 31 4
q18 3 24 9q15 13 18 53q1 13 1 36v21q-1 3 -1 5q0 43 1 92t2.5 108.5t1.5 92.5q4 175 -5 291q-1 5 2.5 9.5t9 5t10 -3t4.5 -9.5q9 -117 6 -294q-1 -32 -2.5 -89t-2.5 -104t-1 -89q1 -3 1 -6z" />
    <glyph glyph-name="k" unicode="k" horiz-adv-x="359" 
d="M120 381q57 -210 138 -372q6 -12 -6 -18t-18 6q-80 160 -136 364l-50 -69q-4 -4 -9 -5q-5 -181 7 -280q1 -6 -2.5 -10.5t-9 -5t-10 3t-4.5 8.5q-12 99 -6 330q6 218 -9 325q-1 6 2.5 10t9 5t9.5 -2.5t5 -8.5q16 -109 9 -330v-6l38 54l45 62q16 21 42.5 50.5t52.5 49.5
q10 9 18.5 -1.5t-2.5 -18.5q-52 -41 -118 -135q3 -3 4 -6z" />
    <glyph glyph-name="l" unicode="l" horiz-adv-x="309" 
d="M195 -5q-5 0 -23 -1t-27 -1q-36 1 -55 19q-30 28 -34 86q-1 17 0 46q1 32 1 40q-8 352 -4 482q0 6 4 9.5t9.5 3.5t9 -4t3.5 -9q-4 -130 4 -482q1 -8 0 -41q-1 -29 0 -43q3 -48 25 -68q12 -11 38 -12q7 0 25 1t26 0q5 0 9 -4t3.5 -9.5t-4.5 -9.5t-10 -3z" />
    <glyph glyph-name="m" unicode="m" horiz-adv-x="704" 
d="M74 10q-11 80 -6 266q5 173 -10 261q-1 5 2 9.5t8.5 5.5t10 -2t5.5 -9q6 -31 9 -66q36 55 100 63q42 5 79 -15t59 -64q24 50 73 70t99.5 0t76.5 -74q13 -27 19 -91q5 -53 6 -128q0 -70 -5 -229q0 -6 -4 -9.5t-9.5 -3.5t-9 4t-3.5 9q5 159 4 228q-1 77 -6 126
q-5 59 -16 82q-17 37 -49.5 54.5t-65 13.5t-60 -28t-36.5 -64q0 -2 -1 -3q4 -22 6 -54q4 -51 4 -128q-1 -39 -2 -84l-4 -88q-1 -43 -2 -56q0 -6 -4 -9.5t-9.5 -3.5t-9 4t-3.5 9q0 14 2 56.5t3.5 87.5t1.5 85q1 75 -3 125q-5 59 -15 83q-17 38 -48 55.5t-65 13t-61.5 -28.5
t-37.5 -63q-1 -1 -1 -2q1 -51 -2 -143q-6 -180 6 -261q1 -6 -2.5 -10t-9 -5t-9.5 2.5t-5 8.5z" />
    <glyph glyph-name="n" unicode="n" horiz-adv-x="424" 
d="M61 416q-1 -30 -5 -137q-6 -173 5 -261q1 -6 -2.5 -10t-9 -5t-9.5 2.5t-5 8.5q-13 95 -6 266q8 191 3 263q-1 6 3 10t9.5 4.5t9.5 -3.5t4 -9q2 -30 3 -63q29 40 75 54t92 -6t70 -71q13 -27 19 -91q5 -53 7 -128q2 -92 -3 -229q0 -6 -4 -9.5t-9.5 -3.5t-9 4t-3.5 9
q4 128 2 228q-1 80 -6 127q-6 59 -17 81q-18 37 -50 54t-64.5 13t-60 -28.5t-36.5 -64.5q-1 -2 -2 -5z" />
    <glyph glyph-name="o" unicode="o" horiz-adv-x="459" 
d="M331 360q-3 3 -4 8q-1 7 -2.5 18.5t-2.5 16.5q-2 6 -6.5 17t-5.5 16q-3 6 0 11q-1 2 -1 3q-23 37 -63 52t-81.5 4t-69.5 -44q-36 -43 -43 -149q-5 -92 12 -166q9 -40 38 -72q28 -32 64 -46q34 -16 71.5 -5t63.5 50q24 36 30 141q5 70 0 145zM349 409q7 -22 8 -37
q6 -82 1 -158q-7 -112 -35 -154q-21 -32 -50 -49t-58 -17t-59 10q-42 16 -74.5 53.5t-43.5 83.5q-18 77 -12 174q7 115 49 165q32 38 82 51.5t98.5 -4.5t75.5 -63q12 -20 18 -55z" />
    <glyph glyph-name="p" unicode="p" horiz-adv-x="462" 
d="M66 51q-1 -130 4 -226q1 -6 -3 -10t-9.5 -4.5t-9.5 3.5t-4 9q-7 120 -3 355q4 237 -2 353q-1 6 3 10t9.5 4.5t9.5 -3.5t4 -9q2 -32 3 -66q28 46 79 63t102 -2.5t78 -70.5q39 -79 35 -194.5t-45 -193.5q-19 -36 -55 -53.5t-78 -16.5q-74 2 -118 52zM74 84q16 -27 46 -42.5
t65 -16.5t64 13.5t44 42.5q39 73 43 182.5t-33 181.5q-18 34 -51 51t-66.5 14.5t-63.5 -24t-42 -56.5q-3 -8 -11 -9q1 -80 -1 -243q-2 -58 -2 -88q6 -1 8 -6z" />
    <glyph glyph-name="q" unicode="q" horiz-adv-x="403" 
d="M273 452q-21 35 -62.5 49t-83.5 3t-66 -43q-40 -53 -46 -179q-6 -125 27 -182q21 -36 54.5 -56t69.5 -20.5t64.5 19.5t42.5 61q0 8 1 70q3 185 1 275q-1 1 -2 3zM298 535q7 -119 3 -361q-1 -47 -2 -71v-1v-1q-2 -174 4 -286q1 -6 -3 -10t-9.5 -4.5t-9.5 3.5t-4 9
q-6 98 -5 234q-40 -51 -106 -50q-43 1 -82 25q-40 23 -64 64q-37 64 -31 197q7 136 50 194q40 53 113.5 57.5t121.5 -41.5q-1 21 -2 40q-1 6 3 10t9.5 4.5t9.5 -3.5t4 -9z" />
    <glyph glyph-name="r" unicode="r" horiz-adv-x="339" 
d="M86 378q0 -9 -4 -106q-7 -169 5 -261q1 -6 -2.5 -10t-9 -5t-9.5 2.5t-5 8.5q-13 95 -6 266q8 191 3 263q-1 6 3 10t9.5 4.5t9.5 -3.5t4 -9q2 -27 3 -57q8 12 19 21q45 36 123 15q13 -4 9.5 -16.5t-15.5 -9.5q-66 18 -101 -10q-34 -28 -34 -96q0 -4 -2 -7z" />
    <glyph glyph-name="s" unicode="s" horiz-adv-x="419" 
d="M271 439q-18 45 -54 63t-75 10q-39 -9 -63.5 -39t-19.5 -73q5 -38 47 -68q12 -9 26.5 -17t37.5 -19.5t32 -15.5q65 -34 91 -69q38 -51 22 -125q-11 -54 -61.5 -76.5t-107.5 -10.5q-59 13 -99 60t-36 122q0 5 4 9t9.5 3.5t9.5 -4.5t3 -10q-3 -63 31 -103q33 -40 84 -51
q49 -11 88 7q40 19 49 60q13 62 -17 103q-23 30 -82 61q-7 4 -31 16t-39.5 20.5t-28.5 17.5q-53 37 -58 88q-6 53 24.5 91t78.5 49q48 10 93.5 -12t65.5 -77q5 -13 -7.5 -17.5t-16.5 7.5z" />
    <glyph glyph-name="t" unicode="t" horiz-adv-x="311" 
d="M197 -8q-43 2 -50 3q-34 4 -52 23q-29 28 -34 91q-4 44 -1 126q3 93 3 124q-1 33 -4 96t-3 70q-31 0 -55 -1q-6 -1 -10 3t-4.5 9.5t3.5 9.5t9 4q25 1 56 1q-2 64 0 112q0 6 4 9.5t9.5 3.5t9 -4t3.5 -9q-1 -49 1 -111q10 0 33 -0.5t35 -0.5q6 0 9.5 -3.5t3.5 -9.5
t-3.5 -9.5t-9.5 -3.5h-35h-32q0 -7 3 -70t3 -96q1 -26 -3 -125q-3 -77 1 -123q5 -53 26 -75q12 -11 37 -15q6 -1 49 -3q5 0 9 -4t3.5 -9.5t-4.5 -9.5t-10 -3z" />
    <glyph glyph-name="u" unicode="u" horiz-adv-x="401" 
d="M298 531q6 -77 -2 -266q-4 -93 -3 -142q3 -5 2 -10q-1 -3 -1 -6q1 -56 7 -103q1 -6 -2.5 -10t-9 -5t-9.5 2.5t-5 8.5q-4 27 -6 56q-29 -40 -75 -52t-91 9t-69 71q-13 27 -18 91q-5 51 -5 128q0 49 6 229q0 6 4 9.5t9.5 3.5t9 -4t3.5 -9q-5 -180 -5 -229q0 -76 4 -126
q5 -59 16 -81q17 -36 48.5 -54t62.5 -15.5t59 24.5t39 60q-2 58 2 155q8 190 3 263q-1 6 3 10t9.5 4.5t9.5 -3.5t4 -9z" />
    <glyph glyph-name="v" unicode="v" horiz-adv-x="442" 
d="M209 -6q2 -10 -8 -14q-12 -5 -17 7l-53 127l-59 144q-20 51 -45 129t-37 144q-1 5 2 9.5t8.5 5.5t10 -2t5.5 -9q9 -48 23 -97.5t35 -108.5l35 -92q13 -33 44 -106t39 -95q8 28 25 76q26 76 35 109q12 46 22.5 96.5t23.5 117.5l18 98q1 5 5.5 8t10 2t8.5 -5.5t2 -10.5
q-6 -30 -18.5 -97.5t-23 -118t-22.5 -96.5q-9 -34 -36 -112q-24 -70 -33 -109z" />
    <glyph glyph-name="w" unicode="w" horiz-adv-x="628" 
d="M41 536q6 -26 26 -124q16 -76 29 -122l36 -118l38 -130q7 22 32 93q28 82 39 132q6 27 22 133q-18 70 -30 126q-3 13 10 16t16 -10l15 -66q8 38 18 68q5 13 17.5 8.5t8.5 -16.5q-16 -49 -28 -124l38 -147q36 -135 52 -206q8 27 23 70q28 81 35 108q12 46 22.5 95
t23.5 118l18 95q1 5 5.5 8t10 2t8.5 -5.5t2 -10.5l-18 -95q-13 -70 -23.5 -119t-22.5 -94q-9 -33 -36 -111q-25 -72 -33 -108q-1 -6 -7 -9q-3 -4 -8 -5q-6 -1 -10.5 2t-5.5 8q-17 82 -84 336q-6 -44 -13 -73q-11 -51 -40 -135q-34 -98 -43 -132l-1 -1q1 -11 -10 -14
q-12 -3 -16 10q-15 58 -48 165t-39 128q-13 47 -29 124q-24 114 -26 124q-3 13 10 16t16 -10z" />
    <glyph glyph-name="x" unicode="x" horiz-adv-x="498" 
d="M173 255q-116 156 -155 273q-4 12 8.5 16.5t17.5 -8.5q37 -111 144 -258q104 156 188 239q9 10 18.5 0.5t-0.5 -18.5q-83 -84 -189 -243q108 -144 129 -177q7 -10 19 -33q11 -21 17 -31q7 -11 -4 -18t-18 4q-7 10 -19 33q-11 21 -17 31q-22 32 -123 167l-96 -146
q-8 -11 -32 -41q-20 -25 -30 -41q-6 -11 -17.5 -4.5t-4.5 18.5q9 16 31 43q24 30 31 41z" />
    <glyph glyph-name="y" unicode="y" horiz-adv-x="462" 
d="M22 523q15 -100 80 -259l22 -53l24 -57q9 -21 21 -52t21 -57q15 53 68.5 220.5t77.5 259.5q4 13 16.5 9.5t9.5 -15.5q-25 -95 -80.5 -269t-75.5 -246q-1 -3 -12 -47q-9 -33 -16 -54q-24 -68 -63 -91q-23 -14 -57 -9q-11 2 -50 13q-12 4 -8.5 16.5t16.5 9.5q37 -11 46 -13
q25 -3 39 5q31 19 52 77q7 21 15 52l9 35l-1 1q-9 31 -22 67t-22 58l-29 68l-26 62q-66 159 -81 265q-1 6 2.5 10t9 5t9.5 -2.5t5 -8.5z" />
    <glyph glyph-name="z" unicode="z" horiz-adv-x="394" 
d="M10 531q10 -2 52 -2q19 0 88 2q59 1 85 0q19 0 31 -1q6 0 10 -1q7 -2 10 -4q7 -4 8 -12q1 -5 -1 -11q-1 -7 -7 -19q-8 -18 -28 -50q-8 -14 -20 -34l-21 -32q-8 -12 -10 -18q-13 -27 -29 -58l-38 -67q-20 -36 -31 -57q-2 -4 -21 -35q-17 -30 -29 -53q-17 -31 -23 -47
q-1 -6 -2 -9l2 -1h27q29 0 79 1q23 0 55 1t53 1.5t29 0.5q6 0 9.5 -3.5t3.5 -9.5t-3.5 -9.5t-9.5 -3.5q-8 0 -28.5 -0.5t-52.5 -1.5t-55 -2q-51 -1 -80 -1q-18 0 -28 1q-14 1 -19 3q-12 5 -10 22q1 8 6 20q7 18 24 51l29 52q18 32 20 35q11 21 31 57l38 66q16 31 29 59
q3 6 11 19l21 34l21 33q18 30 26 47q2 5 4 9q-1 0 -3 1q-10 0 -28 1q-17 0 -85 -1t-88 -1q-45 -1 -58 2q-5 1 -8 5.5t-2 10t5.5 8.5t10.5 2z" />
    <glyph glyph-name="braceleft" unicode="{" horiz-adv-x="363" 
d="M236 663q-65 10 -92 -22q-23 -26 -25 -88q-1 -33 7 -121q7 -77 2 -107q-5 -29 -27 -56q-12 -15 -27 -25q10 -6 18 -15q22 -25 28 -70q4 -25 1 -85q-4 -79 -3 -101q0 -58 10 -92q11 -39 36 -51q20 -10 88 -19q5 -1 8.5 -5t2.5 -9.5t-5 -9t-10 -2.5q-1 0 -16.5 2t-21.5 3
l-18 3q-13 2 -22 5.5t-18 7.5q-35 18 -50 68q-11 37 -11 98q0 26 3 103q3 58 0 80q-5 38 -22 57q-14 15 -36 18q-13 -3 -21 -4q-11 -2 -17 -1q-11 2 -13 13q-1 8 6 14q7 8 21 7q3 -1 5.5 -1.5t4.5 -0.5h12l9 2q19 4 37 27q18 22 22 43q4 27 -2 101q-9 88 -8 124q3 71 32 105
q37 43 116 30q6 -1 9 -5.5t2 -10t-5.5 -8.5t-9.5 -2z" />
    <glyph glyph-name="bar" unicode="|" horiz-adv-x="196" 
d="M89 701q-5 -73 -1 -188q4 -163 4 -189q0 -46 -1.5 -131.5t-1.5 -116.5q0 -159 7 -246q1 -5 -2.5 -9.5t-9 -5t-10 3t-4.5 9.5q-9 101 -7 248q0 31 1.5 116.5t1.5 131.5q0 26 -5 189q-3 116 2 190q0 5 4 9t9.5 3.5t9.5 -4.5t3 -10z" />
    <glyph glyph-name="braceright" unicode="}" horiz-adv-x="345" 
d="M12 -170q58 -11 83 21q21 28 23 92q1 36 -6 122q-7 76 -2 102q5 27 25 55q12 16 25 25q-7 6 -12 15q-25 35 -30 85q-3 23 1 80q4 71 4 98q-1 56 -10 88q-10 38 -33 50q-19 10 -80 19q-5 1 -8.5 5t-2.5 9.5t5 9t10 2.5q65 -9 88 -21q33 -18 47 -66q10 -37 10 -96
q0 -24 -4 -99q-3 -56 -1 -77q5 -43 25 -72q9 -12 18 -17q8 1 25 2q1 0 6 0.5t7 0.5q6 1 8.5 0.5t4.5 -1.5q8 -5 7 -14q-1 -5 -5 -9q-1 -1 -3 -2q-27 -14 -52 -6q-14 -6 -29 -25q-16 -23 -20 -43q-4 -23 2 -96q8 -95 7 -125q-3 -72 -29 -107q-35 -45 -108 -31q-6 1 -9 5.5
t-2 10t5.5 8.5t9.5 2z" />
    <glyph glyph-name="asciitilde" unicode="~" horiz-adv-x="540" 
d="M-6 198q7 86 56 115q50 28 88 26q33 -1 63 -26q10 -8 49 -48q29 -31 54 -46q27 -15 48 -10q19 5 34 25q14 19 21.5 46.5t6.5 51.5q-1 6 3 10t9.5 4.5t9.5 -3.5t4 -9q2 -29 -7 -61t-26 -55q-20 -28 -48 -35q-33 -8 -69 14q-27 16 -60 49q-38 40 -46 46q-23 19 -47 21
q-31 1 -73 -24q-38 -21 -44 -93q0 -6 -4.5 -9.5t-10 -3t-9 5t-2.5 9.5z" />
    <glyph glyph-name="exclamdown" unicode="&#xa1;" horiz-adv-x="264" 
d="M157 303q-2 -56 -3.5 -123t-1.5 -115t0.5 -126.5t0.5 -117.5q0 -6 -3.5 -9.5t-9.5 -3.5t-9.5 3.5t-3.5 9.5q0 39 -0.5 118t-0.5 127t1 115t4 124q0 5 4 9t9.5 3.5t9.5 -4.5t3 -10zM164 560q-1 -14 -2 -36q0 -5 -4 -9t-9.5 -3.5t-9.5 4.5t-3 10q1 22 2 36q0 5 4 9t9.5 3.5
t9.5 -4.5t3 -10z" />
    <glyph glyph-name="cent" unicode="&#xa2;" horiz-adv-x="456" 
d="M69 119l135 236q11 19 65 105q-19 27 -47 37.5t-58 5.5q-53 -10 -92.5 -66.5t-39.5 -152.5q0 -97 37 -165zM283 485q29 47 46 86q6 12 18.5 6.5t7.5 -18.5q-20 -43 -54 -100q21 -40 23 -93q1 -6 -3 -10t-9.5 -4.5t-9.5 3.5t-4 9q-2 39 -14 68q-42 -67 -56 -91l-142 -249
q39 -53 90 -61q54 -9 90 39q42 55 37 163q-1 6 3 10t9.5 4.5t9.5 -3.5t4 -9q6 -118 -42 -182q-45 -59 -115 -48q-57 8 -101 62q-8 -14 -23 -36.5t-26 -41t-18 -36.5q-5 -13 -18 -8t-8 18q11 27 40.5 73t31.5 50l3 6q-47 78 -47 192q0 104 44 168q45 65 109 77q36 7 69 -5
q32 -11 55 -39z" />
    <glyph glyph-name="sterling" unicode="&#xa3;" horiz-adv-x="465" 
d="M312 551q-2 37 -24 62q-23 25 -57 35q-33 10 -69 2t-60 -33q-30 -30 -38 -66q62 0 99 1q6 1 10 -3t4.5 -9.5t-3.5 -9.5t-9 -4q-38 -2 -104 -2q-1 -33 15 -83q3 -11 21 -60t25 -83q8 -32 7 -65q-2 -93 -48 -157q-5 -7 -13 -15l-18 -19l-14 -14l-5 -5l23 5l30 7q16 3 18 3
q109 15 253 -21q13 -3 10 -16t-16 -10q-139 35 -243 21q-2 0 -16 -3l-30 -7q-20 -5 -31 -7q-6 -1 -10 -2h-4h-2h-5q-12 4 -13 15q-1 7 3 15q5 9 18 23q41 43 43 46q41 57 44 141q0 30 -7 60.5t-24 77t-22 62.5q-16 53 -15 92h-35q-6 0 -9.5 3.5t-3.5 9.5t3.5 9.5t9.5 3.5h37
q9 47 45 84q31 31 74.5 41t81.5 -2q42 -12 70 -43.5t30 -77.5q1 -6 -3 -10t-9.5 -4.5t-9.5 3.5t-4 9z" />
    <glyph glyph-name="currency" unicode="&#xa4;" horiz-adv-x="534" 
d="M115 169q32 -28 78 -38q73 -16 119 28q42 39 47 108q6 69 -28.5 120t-98.5 51q-5 0 -9 3.5t-4 9.5q-63 -7 -101.5 -44t-49.5 -88q-7 -37 1.5 -73.5t33.5 -64.5q5 0 9 -4q3 -3 3 -8zM368 186q25 -42 62 -77q10 -9 1 -19t-19 -1q-36 34 -61 74q-9 -13 -21 -23
q-56 -54 -143 -35q-51 11 -88 42q-3 -2 -75 -79q-10 -10 -19.5 -0.5t-0.5 18.5q73 77 77 80q-28 33 -38 75t-1 83q11 55 48 94l-65 85q-8 11 3 19t19 -3l63 -83q70 54 176 39q5 -1 8.5 -5t2.5 -10q-1 -5 -4 -8q20 -9 36 -24q18 32 72 74q11 8 19 -3t-3 -19l-29 -22
q-10 -9 -21.5 -23t-17.5 -28q43 -59 37 -142q-4 -41 -20 -76q1 -1 2 -3z" />
    <glyph glyph-name="yen" unicode="&#xa5;" horiz-adv-x="287" 
d="M89 527q3 -36 3 -77t-1.5 -92t-1.5 -75q0 -54 5 -153t5 -126q0 -5 -3.5 -9t-9 -4t-9.5 3.5t-4 9.5q-1 26 -5.5 125.5t-4.5 153.5q0 26 1.5 77t1 90.5t-3.5 74.5l-2 2h-67q-6 0 -9.5 3.5t-3.5 9.5t3.5 9.5t9.5 3.5h54l-10 21q-31 0 -48 -1q-6 -1 -10 3t-4.5 9.5t3.5 9.5
t9 4q15 1 36 1l-32 61q-6 11 5.5 17.5t18.5 -5.5q34 -62 58 -112q39 77 73 122q9 11 19.5 2.5t2.5 -18.5q-22 -28 -43 -66h49q6 0 9.5 -3.5t3.5 -9.5t-3.5 -9.5t-9.5 -3.5q-54 0 -64 -2h-1l-10 -20h59q6 0 9.5 -3.5t3.5 -9.5t-3.5 -9.5t-9.5 -3.5h-69z" />
    <glyph glyph-name="brokenbar" unicode="&#xa6;" horiz-adv-x="195" 
d="M94 663q-4 -33 -5 -69t0 -89t1 -72q0 -6 -3.5 -9.5t-9.5 -3.5t-9.5 3.5t-3.5 9.5q0 17 -1.5 70.5t-0.5 91t6 72.5q1 5 5 8.5t9.5 2.5t9 -5t2.5 -10zM95 240q-3 -43 -3 -114q0 -89 -1 -115q0 -6 -4 -9.5t-9.5 -3.5t-9 4t-3.5 9q1 26 0 115q0 72 4 116q0 6 4.5 9.5t10 3
t9 -5t2.5 -9.5z" />
    <glyph glyph-name="section" unicode="&#xa7;" horiz-adv-x="369" 
d="M196 575q4 42 -21 64q-22 19 -56 17t-55 -23q-22 -22 -14 -56q2 -7 6 -12q0 -1 5 -6t8 -9q14 -20 34 -41l45 -45l40 -40q75 -80 80 -158q3 -46 -8 -71q-19 -40 -53 -57t-72 -11l13 -13q54 -52 82 -107t17 -129q-8 -56 -53 -79q-40 -22 -90 -6q-50 15 -81.5 62.5
t-24.5 115.5q0 6 4.5 9.5t10 3t9 -5t2.5 -9.5q-6 -59 20.5 -98.5t67.5 -52.5q39 -12 70 4q33 17 39 60q10 66 -15.5 115t-76.5 98l-43 40q-17 17 -28 29q-14 12 -23 26q-31 40 -32 78q-3 50 24 85.5t67.5 47t79.5 -0.5l-5 6l-39 38l-47 47q-21 22 -36 43q-2 3 -5 7l-7 7
q-8 10 -11 23q-11 48 21 81q28 28 72 31q46 2 76 -24q35 -31 29 -86q0 -6 -4.5 -9.5t-10 -3t-9 5t-2.5 9.5zM232 308q-15 46 -55.5 63t-81 1.5t-57.5 -53.5q3 -5 2 -11q-14 -57 16 -102l11 -13l9 -10q14 -13 31 -21q35 -18 72.5 -6.5t56.5 51.5q8 18 6 57q-2 21 -8 41
q-1 1 -2 3z" />
    <glyph glyph-name="dieresis" unicode="&#xa8;" horiz-adv-x="306" 
d="M52 627q2 -22 9 -56q1 -6 -2 -10.5t-8.5 -5.5t-10 2t-5.5 8q-7 36 -9 60q-1 5 2.5 9.5t9 5t10 -3t4.5 -9.5zM206 631v-66q0 -6 -3.5 -9.5t-9.5 -3.5t-9.5 3.5t-3.5 9.5v66q0 6 3.5 9.5t9.5 3.5t9.5 -3.5t3.5 -9.5z" />
    <glyph glyph-name="copyright" unicode="&#xa9;" horiz-adv-x="675" 
d="M297 666q54 4 79 0q23 -3 59 -27l18 -11q13 -7 20.5 -12.5t18 -14.5t17.5 -18q39 -54 55.5 -133t8.5 -159q-9 -84 -45 -152.5t-99 -102.5q-3 -1 -16.5 -9t-20.5 -11l-18 -8q-12 -6 -23 -8.5t-22 -3.5q-128 -10 -191 51q-73 70 -87 214q-12 131 28 230q24 59 75.5 107.5
t111.5 66.5q12 3 31 1zM413 380q-3 49 -36 72q-29 21 -70 13q-43 -8 -73 -44q-31 -36 -31 -94q0 -68 33.5 -110.5t78.5 -49.5q42 -7 71 23q33 34 31 106q0 5 3.5 9t9 4t9.5 -3.5t4 -9.5q3 -82 -38 -125q-38 -39 -95 -30q-54 8 -94 59q-39 50 -39 127q0 67 36.5 111
t88.5 53.5t91 -18.5q42 -30 46 -91q1 -6 -3 -10t-9.5 -4.5t-9.5 3.5t-4 9zM327 636q-5 0 -15 1q-14 2 -15 2l-1 1l-12 -1q-4 0 -7 1q-2 0 -3 -1q-55 -16 -102 -60t-69 -98q-37 -93 -25 -218q13 -133 78 -196q55 -53 171 -45q9 1 17.5 3t19.5 7l16 8q5 2 19 10t18 10
q55 30 88 92q33 63 41 142q8 76 -8 150q-15 74 -51 123q-7 10 -15.5 17t-28 18.5t-22.5 14.5q-32 20 -49 23q-13 2 -33 1q-4 -6 -12 -5z" />
    <glyph glyph-name="guillemotleft" unicode="&#xab;" horiz-adv-x="409" 
d="M154 384q-19 -14 -73 -73q-25 -28 -41 -48q-8 -10 -13 -18q-3 -4 -4 -6q1 -3 3 -6q3 -8 10 -20q13 -23 36 -57q40 -63 66 -95q8 -10 -2.5 -18.5t-19.5 2.5q-24 32 -67 96q-23 36 -36 59q-8 13 -12 22q-5 13 -4 20t8 18q5 8 14 20q16 20 42 49q56 61 77 77q11 8 19 -3
t-3 -19zM306 378q-3 -4 -32.5 -33.5t-48.5 -50.5q-29 -31 -44 -51q-8 -11 -12 -18l-3 -5q1 -2 4 -4q12 -10 15 -15q13 -19 27 -42l30 -51l26 -43q7 -11 -4 -18t-18 4q-10 15 -26 43l-30 50l-27 43q-1 1 -10 8q-11 10 -13 21q-2 9 6 22q4 9 14 22q16 20 46 52q19 21 48 50.5
t32 33.5q9 10 19 1t1 -19z" />
    <glyph glyph-name="registered" unicode="&#xae;" horiz-adv-x="695" 
d="M296 475q5 0 9 -1q29 -2 41 4q9 4 10 10t-4 15q-11 21 -32 31q-9 4 -31 3q-6 0 -27 -2v-56q6 -1 18 -2l7 -1q5 1 9 -1zM259 665q55 6 84 4q14 -1 63 -22q73 -31 120 -93q46 -61 61 -132.5t4 -146.5q-12 -75 -49 -136.5t-103 -102.5t-150 -43q-57 -2 -105 19.5t-80.5 59.5
t-53 86t-27.5 103q-16 112 22.5 216.5t126.5 152.5q4 2 11 7l13 9q18 12 31 16q13 3 32 3zM249 560q5 1 18 2t21 2q29 1 44 -6q28 -14 44 -43q9 -17 6 -32q-4 -19 -24 -29q-16 -8 -44 -7q11 -24 19 -67q3 -13 9 -49q5 -28 9 -43q6 -24 27 -91q19 -60 27 -93q3 -13 -10 -16
t-16 10q-8 32 -27 91q-19 63 -27 93q-4 15 -9 45q-7 38 -9 48q-10 50 -24 75h-7q-10 2 -15 2q-2 -77 -1.5 -175.5t8.5 -175.5q1 -5 -2.5 -9.5t-9 -5t-10 3t-4.5 9.5q-7 66 -8.5 136.5t0.5 170t2 135.5q0 3 1 5q-1 6 3 10t9 4zM292 638h-32l-12 -1q-4 -1 -7 1l-6 -2
q-9 -2 -24 -12l-13 -9q-8 -6 -14 -9q-78 -42 -114 -139t-21 -203q15 -107 78 -177t162 -68q113 3 185.5 77.5t89.5 182.5q11 70 -3 136.5t-56.5 122.5t-108.5 85q-45 19 -55 20q-16 1 -40 -1q-4 -4 -9 -4z" />
    <glyph glyph-name="macron" unicode="&#xaf;" horiz-adv-x="386" 
d="M-3 609q24 -1 138 -3q89 -2 140 -9q5 -1 8.5 -5t2.5 -9.5t-5 -9t-10 -2.5q-53 7 -137 9q-114 1 -139 3q-5 0 -9 4t-3.5 9.5t4.5 9.5t10 3z" />
    <glyph glyph-name="degree" unicode="&#xb0;" horiz-adv-x="324" 
d="M142 676q5 5 11 4h1h3h4q2 0 4.5 -0.5t5.5 -0.5q8 -1 14 -2q10 -2 15 -6q20 -18 23.5 -45.5t-8 -51.5t-38.5 -39.5t-62 -11.5q-47 6 -63 33q-15 26 2 58q11 22 35.5 39.5t52.5 22.5zM166 651q-27 2 -52.5 -13t-36.5 -36q-9 -19 -2 -32q9 -17 44 -21q26 -3 45 8t27 28
t6 35.5t-14 29.5q-1 1 -3 1q-3 1 -7 1q-3 -2 -7 -1z" />
    <glyph glyph-name="plusminus" unicode="&#xb1;" horiz-adv-x="545" 
d="M83 341q64 -2 152 -1q0 124 5 216q0 5 4 9t9.5 3.5t9.5 -4.5t3 -10q-5 -91 -5 -214q150 1 163 1q6 0 9.5 -3.5t3.5 -9.5t-3.5 -9.5t-9.5 -3.5q-13 0 -163 -2q0 -36 0.5 -112.5t0.5 -116.5q0 -6 -3.5 -9.5t-9.5 -3.5t-9.5 3.5t-3.5 9.5q0 40 -0.5 116.5t-0.5 112.5
q-89 -1 -152 2q-6 0 -9.5 4t-3.5 9.5t4 9t9 3.5zM434 -11q-51 -6 -109 -6.5t-129.5 2.5t-106.5 3q-6 0 -9.5 3.5t-3.5 9.5t3.5 9.5t9.5 3.5q38 0 108.5 -2.5t127 -2.5t105.5 6q6 1 10.5 -2.5t5 -9t-3 -10t-8.5 -4.5z" />
    <glyph glyph-name="uni00B2" unicode="&#xb2;" horiz-adv-x="354" 
d="M11 562q0 42 26.5 70t63.5 34q38 5 68 -16.5t35 -68.5q9 -82 -88 -165q-24 -20 -64 -48l-9 -6h4q23 -3 64 -3q25 0 130 3q5 0 9 -3.5t4 -9t-3.5 -9.5t-9.5 -4q-104 -3 -130 -3q-42 0 -67 2q-14 2 -23 4q-6 1 -9 4q-8 4 -9 11q-1 6 2 11q1 2 3 4q3 3 7.5 6.5t21.5 14.5
q39 27 62 47q86 73 79 142q-4 34 -25 49.5t-48 10.5q-28 -4 -48 -25t-20 -52q0 -6 -3.5 -9.5t-9.5 -3.5t-9.5 3.5t-3.5 9.5z" />
    <glyph glyph-name="uni00B3" unicode="&#xb3;" horiz-adv-x="325" 
d="M29 573q0 26 15 50t39 40t49.5 16.5t49.5 -20.5q23 -22 20 -61q-2 -36 -23 -59q-7 -8 -14 -12q51 -20 59 -83q6 -47 -25 -77.5t-76 -37.5t-83.5 14t-46.5 70q-1 5 2 9.5t8.5 5.5t10 -2t5.5 -9q6 -35 34.5 -51t65.5 -10.5t60 28.5t19 56q-7 49 -44 62q-12 5 -27 6h-9h-4
q-2 1 -4 1q-5 2 -7 6q-4 6 -2 12.5t8 9.5q4 1 10 2h3h4h2q20 6 31 18q15 16 17 43q2 26 -12 41q-27 26 -67 -1q-18 -12 -30 -30.5t-12 -36.5q0 -6 -3.5 -9.5t-9.5 -3.5t-9.5 3.5t-3.5 9.5z" />
    <glyph glyph-name="acute" unicode="&#xb4;" horiz-adv-x="292" 
d="M187 626q-19 -14 -39 -30l-45 -38l-39 -32q-10 -9 -18.5 1.5t2.5 18.5l38 32l46 38l39 32q11 8 19 -3t-3 -19z" />
    <glyph glyph-name="periodcentered" unicode="&#xb7;" horiz-adv-x="234" 
d="M89 334q1 3 3 6q5 7 14 11q12 5 20 0q4 -2 6 -6q1 -2 1 -4q1 -3 2 -7q1 -9 -2 -16q-1 -2 -2 -5q0 -1 -1 -2q-4 -14 -17 -9l-6 2q-8 2 -17 9q-11 9 -2 20q1 0 1 1z" />
    <glyph glyph-name="cedilla" unicode="&#xb8;" horiz-adv-x="298" 
d="M173 -17l-46 -47l-22 -24l8 1q20 1 30 1q19 0 28 -6q17 -10 24 -35q6 -21 2 -40q-5 -24 -26.5 -44.5t-47.5 -28.5q-30 -10 -54 1q-27 13 -38 48q-4 13 9 17t17 -9q7 -24 23 -31q15 -7 35 -1t36 21.5t20 32.5q3 12 -1.5 27t-12.5 20q-3 1 -14 2q-9 0 -28 -2q-20 -1 -26 -1
q-7 0 -11 1t-7 3q-6 4 -6 12q0 3 1 6q1 2 2 3q1 2 3 4q3 4 9 11l28 29l45 47q9 10 19 1t1 -19z" />
    <glyph glyph-name="uni00B9" unicode="&#xb9;" horiz-adv-x="262" 
d="M23 538q19 6 37 22t26 28l28 41l7 19q7 20 23 22q10 1 15 -7l2 -6q1 -4 1 -11q1 -12 0 -32q-1 -41 -5 -90q-9 -110 -9 -251q0 -6 -3.5 -9.5t-9.5 -3.5t-9.5 3.5t-3.5 9.5q0 145 9 253q4 48 5 88q-15 -23 -21 -31.5t-20.5 -26t-29.5 -27.5t-34 -17q-12 -4 -16.5 8.5
t8.5 17.5z" />
    <glyph glyph-name="ordmasculine" unicode="&#xba;" horiz-adv-x="377" 
d="M125 637q-37 -10 -60 -41t-28 -71q-7 -56 23 -94q33 -42 99 -38q49 3 73 42t18.5 91t-38 85t-82.5 26q-3 -1 -5 0zM202 651q32 -17 51.5 -50.5t23.5 -72.5q6 -60 -23.5 -108.5t-92.5 -52.5q-81 -5 -122 48q-37 46 -29 113q9 67 58 109.5t124 25.5q10 -2 10 -12z" />
    <glyph glyph-name="guillemotright" unicode="&#xbb;" horiz-adv-x="432" 
d="M37 69q17 12 69 75q24 29 39 50q8 12 12 19l3 6q-1 1 -2 4q-4 7 -12 19q-14 22 -39 56q-50 71 -68 94q-9 10 1.5 18.5t18.5 -2.5q18 -21 70 -94q27 -37 39 -57q9 -13 13 -21q3 -5 4 -8q3 -6 2 -10q0 -7 -7 -18q-5 -9 -13 -21q-15 -21 -40 -51q-56 -67 -74 -81
q-11 -8 -19 3t3 19zM173 74l77 86q27 32 42 52q8 12 11 19q1 3 2 5l-1 2l-12 16l-34 49q-53 74 -60 85t4 18t18 -4t59 -84l35 -49l12 -16l3 -5q1 -1 1 -2q2 -2 2 -5q2 -8 -5 -22q-4 -9 -14 -22q-15 -21 -43 -54l-77 -87q-9 -10 -19 -1t-1 19z" />
    <glyph glyph-name="onequarter" unicode="&#xbc;" horiz-adv-x="801" 
d="M629 375v-1v-1q-5 -71 -7 -159q60 3 66 3t9.5 -3.5t3.5 -9.5t-3.5 -9.5t-9 -3.5t-66.5 -4q-1 -32 -1 -222q0 -6 -3.5 -9.5t-9.5 -3.5t-9.5 3.5t-3.5 9.5v221q-12 0 -23 -1q-41 -1 -63 2q-15 1 -23 4q-16 6 -16 19q-1 6 3 11q2 3 5 7q5 5 13 12q4 4 11.5 10.5t9.5 8.5
q56 53 96 133q6 12 18 6t6 -18zM502 214q4 0 10 -1q20 -2 59 -1q12 0 25 1q1 60 3 110q-31 -48 -69 -84q-1 -1 -9 -7.5t-13 -11.5zM31 549q55 0 98 51q10 11 27 37l10 14q8 9 15 11q10 2 15 -7q1 -1 1 -3v-1v-1v-1v-1l1 -6l1 -22l4 -95q6 -146 -1 -234q0 -5 -4 -9t-9.5 -3.5
t-9.5 4.5t-3 10q7 97 1 230l-5 91q-12 -19 -23 -32q-50 -59 -118 -59q-6 0 -9.5 3.5t-3.5 9.5t3.5 9.5t9.5 3.5zM543 657q-23 -31 -52 -101q-33 -78 -52 -108l-314 -484q-7 -11 -18 -4t-4 18l314 484q15 25 49 105q30 71 55 106q8 11 19 3t3 -19z" />
    <glyph glyph-name="onehalf" unicode="&#xbd;" horiz-adv-x="750" 
d="M39 560q44 -12 92 44q15 18 30 43l9 15l3 4q1 2 2 3q1 2 2 3q4 3 10 2q10 -1 12 -12q1 -4 1 -9q-1 -2 -3 -22q-7 -45 -9 -95q-4 -122 -4 -227q0 -6 -3.5 -9.5t-9.5 -3.5t-9.5 3.5t-3.5 9.5q0 92 4 227q1 39 5 72l-16 -21q-58 -69 -118 -53q-13 4 -9.5 16.5t15.5 9.5z
M540 655q-20 -43 -45 -85.5t-68 -108t-52 -80.5q-24 -38 -75.5 -126.5t-93.5 -153.5t-88 -120q-8 -11 -18.5 -2.5t-1.5 18.5q44 55 85.5 119t92.5 152l77 127l52 81q42 65 66.5 106.5t44.5 84.5q6 12 18 6t6 -18zM438 238q0 40 23.5 72t56.5 45q36 13 65 -3q31 -18 39 -67
q13 -76 -93 -178l-43 -39q-28 -25 -29 -25l-22 -22q21 -1 54 1q47 2 61 2q53 0 85 4q6 1 10.5 -2.5t5 -9t-3 -10t-8.5 -4.5q-35 -4 -89 -4q-13 0 -59 -3q-38 -2 -62 0h-3q-4 -1 -6 -1q-6 0 -10 2q-10 5 -9 16t13 25q8 10 26 25q1 1 28 26l43 38q95 92 85 155q-6 36 -27 48
q-17 10 -42 1q-25 -10 -44 -35.5t-19 -56.5q0 -6 -3.5 -9.5t-9.5 -3.5t-9.5 3.5t-3.5 9.5z" />
    <glyph glyph-name="threequarters" unicode="&#xbe;" horiz-adv-x="400" 
d="M59 525q-7 35 16 64.5t59 45.5q36 17 69 13q39 -4 55 -35q16 -32 11 -63q-5 -32 -27 -59q-8 -10 -21 -17q62 -24 77 -96q11 -53 -28 -88.5t-96 -43.5q-36 -5 -69.5 2t-60.5 31t-32 62q-1 6 2.5 10t9 5t9.5 -2.5t5 -8.5q6 -42 44.5 -61t88.5 -12q49 7 79 35t22 65
q-12 59 -61 77q-15 6 -33 7q-5 1 -10 1h-2h-2h-1h-1h-2q-2 0 -3 1q-4 2 -6 6q-3 6 -1 12.5t9 9.5q4 1 12 1h6h4h2q25 5 39 22q37 44 12 92q-9 18 -34 21q-26 3 -55 -11q-31 -14 -48 -36t-12 -44q1 -6 -2 -10.5t-8.5 -5.5t-10 2t-5.5 8z" />
    <glyph glyph-name="questiondown" unicode="&#xbf;" horiz-adv-x="363" 
d="M263 -70q5 -49 -19 -79.5t-62 -36.5q-35 -6 -68 12q-32 17 -40 53q-13 56 24 105l20 24q12 15 20 26.5t14 24.5q11 28 20 81q10 64 17 88q4 13 17 9t9 -17q-7 -24 -17 -84q-9 -58 -22 -87q-6 -15 -15.5 -29t-23 -30t-18.5 -21q-29 -40 -19 -84q6 -24 28.5 -36.5
t49.5 -8.5q27 5 44.5 27t14.5 61q-1 5 2.5 9.5t9 5t10 -3t4.5 -9.5zM204 491l3 -10q4 -13 -9 -17t-17 9l-3 10q-4 13 9 17t17 -9z" />
    <glyph glyph-name="Agrave" unicode="&#xc0;" horiz-adv-x="525" 
d="M239 552l-10 27q-19 51 -23 64l-34 -90h29q4 0 17.5 -0.5t20.5 -0.5zM221 689q8 -35 33 -101q26 -69 35 -104q92 -359 136 -490q4 -12 -8.5 -16.5t-17.5 8.5q-53 159 -136 492q-5 21 -14 48h-1l-48 1q-23 0 -38 -1q-108 -302 -143 -534q-1 -5 -5 -8.5t-9.5 -2.5t-9 5
t-2.5 10q24 162 74 326.5t125 357.5q1 3 3 5q-1 11 10 14q13 3 16 -10zM192 747q-25 19 -69 68q-9 10 1 19t19 -1q43 -48 65 -64q11 -8 3 -19t-19 -3z" />
    <glyph glyph-name="Aacute" unicode="&#xc1;" horiz-adv-x="525" 
d="M239 552l-10 27q-19 51 -23 64l-34 -90h29q4 0 17.5 -0.5t20.5 -0.5zM221 689q8 -35 33 -101q26 -69 35 -104q92 -359 136 -490q4 -12 -8.5 -16.5t-17.5 8.5q-53 159 -136 492q-5 21 -14 48h-1l-48 1q-23 0 -38 -1q-108 -302 -143 -534q-1 -5 -5 -8.5t-9.5 -2.5t-9 5
t-2.5 10q24 162 74 326.5t125 357.5q1 3 3 5q-1 11 10 14q13 3 16 -10zM173 760q10 9 38 36q24 24 41 37q10 9 18.5 -1.5t-2.5 -18.5q-15 -13 -38 -36q-29 -28 -39 -37t-19 1t1 19z" />
    <glyph glyph-name="Acircumflex" unicode="&#xc2;" horiz-adv-x="525" 
d="M239 552l-10 27q-19 51 -23 64l-34 -90h29q4 0 17.5 -0.5t20.5 -0.5zM221 689q8 -35 33 -101q26 -69 35 -104q92 -359 136 -490q4 -12 -8.5 -16.5t-17.5 8.5q-53 159 -136 492q-5 21 -14 48h-1l-48 1q-23 0 -38 -1q-108 -302 -143 -534q-1 -5 -5 -8.5t-9.5 -2.5t-9 5
t-2.5 10q24 162 74 326.5t125 357.5q1 3 3 5q-1 11 10 14q13 3 16 -10zM150 753q19 41 29 55q17 23 35 16q12 -5 25 -29l11 -23q9 -16 15 -26q6 -11 -5.5 -17.5t-18.5 5.5l-13 26l-12 22q-7 12 -11 16q-2 -2 -4 -6q-9 -13 -27 -51q-5 -12 -17.5 -6.5t-6.5 18.5z" />
    <glyph glyph-name="Atilde" unicode="&#xc3;" horiz-adv-x="525" 
d="M239 552l-10 27q-19 51 -23 64l-34 -90h29q4 0 17.5 -0.5t20.5 -0.5zM221 689q8 -35 33 -101q26 -69 35 -104q92 -359 136 -490q4 -12 -8.5 -16.5t-17.5 8.5q-53 159 -136 492q-5 21 -14 48h-1l-48 1q-23 0 -38 -1q-108 -302 -143 -534q-1 -5 -5 -8.5t-9.5 -2.5t-9 5
t-2.5 10q24 162 74 326.5t125 357.5q1 3 3 5q-1 11 10 14q13 3 16 -10zM122 744q15 41 39 47q18 5 43 -11l16 -13l14 -10q9 -6 11.5 -4t3.5 8q5 18 6 19q5 12 17 7t7 -17q0 -2 -1 -4t-1.5 -5.5t-1.5 -6.5q-4 -14 -12 -21q-18 -15 -43 1q-6 4 -16 12q-11 9 -15 12
q-14 9 -21 8q-11 -3 -20 -30q-5 -13 -17.5 -8.5t-8.5 16.5z" />
    <glyph glyph-name="Adieresis" unicode="&#xc4;" horiz-adv-x="525" 
d="M239 552l-10 27q-19 51 -23 64l-34 -90h29q4 0 17.5 -0.5t20.5 -0.5zM221 689q8 -35 33 -101q26 -69 35 -104q92 -359 136 -490q4 -12 -8.5 -16.5t-17.5 8.5q-53 159 -136 492q-5 21 -14 48h-1l-48 1q-23 0 -38 -1q-108 -302 -143 -534q-1 -5 -5 -8.5t-9.5 -2.5t-9 5
t-2.5 10q24 162 74 326.5t125 357.5q1 3 3 5q-1 11 10 14q13 3 16 -10zM160 776q0 -8 1 -16q0 -4 -1 -8l-3 -6q-6 -12 -18 -6t-6 18l1 1q-1 7 0 19q0 5 4 9t9.5 3.5t9.5 -4.5t3 -10zM270 786q1 -23 1 -44q0 -6 -3.5 -9.5t-9.5 -3.5t-9.5 3.5t-3.5 9.5q0 21 -1 42q-1 6 3 10
t9.5 4.5t9.5 -3.5t4 -9z" />
    <glyph glyph-name="AE" unicode="&#xc6;" horiz-adv-x="583" 
d="M224 552q0 32 1 59l-27 -59h26zM224 526q-20 0 -38 -1q-121 -280 -178 -526q-3 -13 -16 -10t-10 16q57 246 180 531v2q-1 7 6 11l51 114q0 4 3 7l2 4q6 12 18 6q3 -1 5 -5q38 3 107.5 4t88.5 1q5 0 9 -3.5t4 -9t-3.5 -9.5t-9.5 -4q-19 -1 -87 -1.5t-105 -3.5v-97
q14 0 50.5 -0.5t56.5 -0.5q6 0 9.5 -3.5t3.5 -9.5t-3.5 -9.5t-9.5 -3.5q-20 0 -56.5 0.5t-50.5 0.5q-3 -383 0 -511q16 0 50 1t52 1q70 0 118 -5q6 0 9.5 -4.5t3 -10t-5 -9t-9.5 -2.5q-47 4 -116 4q-18 0 -52.5 -0.5t-50.5 -0.5q-4 -7 -12 -7q-5 0 -9 3.5t-4 9.5q-2 3 -2 7
q0 3 1 6q-3 130 0 518z" />
    <glyph glyph-name="Ccedilla" unicode="&#xc7;" horiz-adv-x="637" 
d="M505 527q-37 82 -95 112q-55 28 -145 18q-91 -11 -143 -76q-38 -49 -56 -113t-17.5 -126t14.5 -128q2 -9 5 -18.5t5.5 -16t8.5 -17.5t8.5 -15t10 -17.5t9.5 -16.5q37 -62 93 -87.5t116 -14.5t109 54t70 109q7 22 13 85q0 6 4.5 9.5t10 3t9 -5t2.5 -9.5q-5 -66 -13 -91
q-24 -73 -78.5 -120.5t-121.5 -60.5q-3 0 -7 -1l-44 -45l-22 -24l8 1q20 1 30 1q19 0 28 -6q17 -10 24 -35q6 -21 2 -40q-5 -24 -26.5 -44.5t-47.5 -28.5q-30 -10 -54 1q-27 13 -38 48q-4 13 9 17t17 -9q7 -24 23 -31q15 -7 35 -1t36 21.5t20 32.5q3 12 -1.5 27t-12.5 20
q-3 1 -14 2q-9 0 -28 -2q-20 -1 -26 -1q-7 0 -11 1t-7 3q-6 4 -6 12q0 3 1 6q1 2 2 3q1 2 3 4q3 4 9 11l28 29l23 25q-56 1 -106 30.5t-83 86.5q-2 4 -10 17t-10 18l-10 16q-6 12 -9 19.5t-6.5 18t-5.5 20.5q-14 70 -15 134q-1 65 18.5 134t61.5 121q58 74 159 86
q99 12 162 -21q65 -34 106 -123q6 -13 -6.5 -18.5t-17.5 6.5z" />
    <glyph glyph-name="Egrave" unicode="&#xc8;" horiz-adv-x="369" 
d="M38 684q32 0 66.5 -2t78 -5.5t66.5 -5.5q5 0 9 -4t3.5 -9.5t-4.5 -9.5t-10 -3q-22 1 -65 4.5t-77.5 6t-65.5 2.5q-2 -51 -3 -103q16 -1 64 -1q6 0 9.5 -3.5t3.5 -9.5t-3.5 -9.5t-9.5 -3.5q-48 0 -65 1q-4 -235 4 -511q16 0 50 1t52 1q68 0 116 -5q6 0 9.5 -4.5t3 -10
t-5 -9t-9.5 -2.5q-47 4 -114 4q-18 0 -54.5 -0.5t-55.5 -0.5q-2 -1 -5 -1q-6 0 -10 4t-4 10q0 2 1 5q-11 364 0 662q0 6 4 9.5t9 3.5q4 0 7 -2q2 1 5 1zM89 807q25 -22 62 -60q9 -9 -0.5 -18.5t-19.5 0.5q-36 37 -60 58q-10 9 -1 19t19 1z" />
    <glyph glyph-name="Eacute" unicode="&#xc9;" horiz-adv-x="390" 
d="M38 684q32 0 66.5 -2t78 -5.5t66.5 -5.5q5 0 9 -4t3.5 -9.5t-4.5 -9.5t-10 -3q-23 1 -64 4.5t-74 5.5t-64 3v-104q22 -1 59 0q5 0 9 -3.5t4 -9t-3.5 -9.5t-9.5 -4q-37 -2 -59 0v-514q20 0 58.5 1t56.5 1q70 0 118 -5q6 0 9.5 -4.5t3 -10t-5 -9t-9.5 -2.5q-47 4 -116 4
q-17 0 -56.5 -0.5t-60.5 -0.5q-4 0 -7 1h-4q-6 0 -9.5 3.5t-3.5 9.5v668q0 6 3.5 9.5t9.5 3.5h1q2 1 5 1zM67 753l39 33l50 40q11 8 19 -3t-3 -19q-19 -14 -49 -39q-31 -26 -40 -32q-10 -9 -18.5 1.5t2.5 18.5z" />
    <glyph glyph-name="Ecircumflex" unicode="&#xca;" horiz-adv-x="379" 
d="M37 683q56 0 212 -10q5 0 9 -4t3.5 -9.5t-4.5 -9.5t-10 -3q-152 10 -207 10v-98q17 -2 67 -2q6 0 9.5 -3.5t3.5 -9.5t-3.5 -9.5t-9.5 -3.5q-49 0 -67 1v-519q19 0 55 1t54 1q70 0 118 -5q6 0 9.5 -4.5t3 -10t-5 -9t-9.5 -2.5q-47 4 -116 4q-17 0 -56.5 -0.5t-60.5 -0.5
q-3 0 -5 1q-6 0 -9.5 4t-3.5 9v668q0 6 3.5 9.5t9.5 3.5h4q3 1 6 1zM58 746l48 41q22 17 37 14q14 -2 32 -24q5 -5 17 -22l22 -29q9 -10 -1.5 -18.5t-18.5 2.5q-10 11 -22.5 28t-17.5 22q-11 14 -15 15t-16 -9l-47 -40q-10 -9 -19 1t1 19z" />
    <glyph glyph-name="Edieresis" unicode="&#xcb;" horiz-adv-x="378" 
d="M38 684q32 0 66.5 -2t78 -5.5t66.5 -5.5q5 0 9 -4t3.5 -9.5t-4.5 -9.5t-10 -3q-22 1 -65 4.5t-77.5 6t-65.5 2.5q-2 -51 -3 -103q16 -1 64 -1q6 0 9.5 -3.5t3.5 -9.5t-3.5 -9.5t-9.5 -3.5q-48 0 -65 1q-4 -236 4 -512q18 0 54.5 1t54.5 1q70 0 118 -5q6 0 9.5 -4.5t3 -10
t-5 -9t-9.5 -2.5q-47 4 -116 4q-18 0 -55.5 -0.5t-56.5 -0.5q-4 -4 -9.5 -4t-9.5 3.5t-4 9.5q-11 367 0 668q0 6 4 9.5t9 3.5h3q4 3 9 3zM84 779l-2 -33q0 -5 -4 -9t-9.5 -3.5t-9.5 4.5t-3 10l2 33q0 5 4 9t9.5 3.5t9.5 -4.5t3 -10zM179 785q-2 -21 -2 -42q0 -6 -3.5 -9.5
t-9.5 -3.5t-9.5 3.5t-3.5 9.5q0 23 2 44q0 6 4.5 9.5t10 3t9 -5t2.5 -9.5z" />
    <glyph glyph-name="Igrave" unicode="&#xcc;" horiz-adv-x="183" 
d="M83 654q-4 -101 -6 -315.5t-7 -325.5q0 -5 -4 -9t-9.5 -3.5t-9.5 4.5t-3 10q5 110 7 324.5t6 316.5q0 5 4 9t9.5 3.5t9.5 -4.5t3 -10zM22 807q30 -29 53 -58q8 -10 -2.5 -18.5t-19.5 2.5q-20 26 -49 56q-10 9 -0.5 18.5t18.5 -0.5z" />
    <glyph glyph-name="Iacute" unicode="&#xcd;" horiz-adv-x="254" 
d="M83 654q-4 -101 -6 -315.5t-7 -325.5q0 -5 -4 -9t-9.5 -3.5t-9.5 4.5t-3 10q5 110 7 324.5t6 316.5q0 5 4 9t9.5 3.5t9.5 -4.5t3 -10zM65 741q21 26 67 66q11 9 19.5 -1.5t-1.5 -18.5q-45 -38 -65 -62q-8 -11 -18.5 -2.5t-1.5 18.5z" />
    <glyph glyph-name="Icircumflex" unicode="&#xce;" horiz-adv-x="230" 
d="M83 654q-4 -101 -6 -315.5t-7 -325.5q0 -5 -4 -9t-9.5 -3.5t-9.5 4.5t-3 10q5 110 7 324.5t6 316.5q0 5 4 9t9.5 3.5t9.5 -4.5t3 -10zM10 725q23 46 35 62q7 11 15 15q11 7 22 0q7 -4 13 -14q4 -7 9 -20q1 0 10 -22l15 -35q6 -13 -6.5 -18.5t-17.5 6.5q-7 15 -16 36.5
t-9 22.5q-5 11 -8 17q-1 1 -1 2q-3 -2 -5 -6q-10 -14 -32 -58q-6 -12 -18 -6t-6 18z" />
    <glyph glyph-name="Idieresis" unicode="&#xcf;" horiz-adv-x="226" 
d="M83 654q-4 -101 -6 -315.5t-7 -325.5q0 -5 -4 -9t-9.5 -3.5t-9.5 4.5t-3 10q5 110 7 324.5t6 316.5q0 5 4 9t9.5 3.5t9.5 -4.5t3 -10zM39 784v-46q0 -6 -3.5 -9.5t-9.5 -3.5t-9.5 3.5t-3.5 9.5v46q0 6 3.5 9.5t9.5 3.5t9.5 -3.5t3.5 -9.5zM126 786q-1 -14 -3 -47
q0 -5 -4 -9t-9.5 -3.5t-9.5 4.5t-3 10q2 33 3 47q0 5 4 9t9.5 3.5t9.5 -4.5t3 -10z" />
    <glyph glyph-name="Ntilde" unicode="&#xd1;" horiz-adv-x="288" 
d="M46 661q6 -56 26 -143q30 -126 33 -143q8 -42 28 -185q6 -47 12 -81q2 91 -1 229q-1 45 4 163q5 108 1 160q-1 6 3 10t9.5 4.5t9.5 -3.5t4 -9q5 -60 0 -164q-6 -122 -5 -161q5 -210 -2 -334q0 -5 -4 -9t-9.5 -3.5t-9.5 4.5q-3 3 -4 6q-19 71 -35 185q-22 158 -27 182
q-3 17 -33 143l-3 14q1 -77 1 -162.5t-0.5 -194t-0.5 -162.5q0 -6 -3.5 -9.5t-9.5 -3.5t-9.5 3.5t-3.5 9.5q0 55 0.5 159.5t0.5 170t-1 156t-4 167.5q0 5 3.5 9t9.5 4h4h2q5 1 9.5 -2.5t4.5 -9.5zM-10 738q32 37 65 31q16 -3 47 -25q18 -13 26 -10q15 6 35 54q5 12 17 7
t7 -17q-23 -59 -50 -69q-21 -8 -50 13q-27 19 -36 21q-19 3 -41 -23q-8 -10 -18.5 -1.5t-1.5 19.5z" />
    <glyph glyph-name="Ograve" unicode="&#xd2;" horiz-adv-x="620" 
d="M242 666q54 4 79 0q23 -3 59 -27l18 -11q13 -7 20.5 -12.5t18 -14.5t17.5 -18q39 -54 55.5 -133t8.5 -159q-9 -84 -45 -152.5t-99 -102.5q-3 -1 -16.5 -9t-19.5 -11l-19 -8q-12 -6 -23 -8.5t-22 -3.5q-128 -10 -191 51q-73 70 -87 214q-12 131 28 230q24 59 75.5 107.5
t111.5 66.5q12 3 31 1zM272 636q-5 0 -15 1q-14 2 -15 2l-1 1l-12 -1q-4 0 -7 1q-2 0 -3 -1q-55 -16 -102 -60t-69 -98q-37 -93 -25 -218q13 -133 78 -196q55 -53 171 -45q9 1 17.5 3t18.5 7l16 8q6 2 20 10t18 10q55 30 88 92q33 63 41 142q8 76 -7 150q-16 74 -52 123
q-7 10 -15.5 17t-28 18.5t-22.5 14.5q-32 20 -49 23q-13 2 -33 1q-4 -6 -12 -5zM209 820q16 -14 44 -42l37 -36q10 -9 1 -19t-19 -1t-37.5 36.5t-43.5 41.5q-10 9 -1 19t19 1z" />
    <glyph glyph-name="Oacute" unicode="&#xd3;" horiz-adv-x="620" 
d="M242 666q54 4 79 0q23 -3 59 -27l18 -11q13 -7 20.5 -12.5t18 -14.5t17.5 -18q39 -54 55.5 -133t8.5 -159q-9 -84 -45 -152.5t-99 -102.5q-3 -1 -16.5 -9t-19.5 -11l-19 -8q-12 -6 -23 -8.5t-22 -3.5q-128 -10 -191 51q-73 70 -87 214q-12 131 28 230q24 59 75.5 107.5
t111.5 66.5q12 3 31 1zM272 636q-5 0 -15 1q-14 2 -15 2l-1 1l-12 -1q-4 0 -7 1q-2 0 -3 -1q-55 -16 -102 -60t-69 -98q-37 -93 -25 -218q13 -133 78 -196q55 -53 171 -45q9 1 17.5 3t18.5 7l16 8q6 2 20 10t18 10q55 30 88 92q33 63 41 142q8 76 -7 150q-16 74 -52 123
q-7 10 -15.5 17t-28 18.5t-22.5 14.5q-32 20 -49 23q-13 2 -33 1q-4 -6 -12 -5zM220 736q8 13 21.5 27t20.5 21l28 22q19 16 21 18q11 9 19.5 -1.5t-1.5 -18.5l-23 -19l-26 -21q-7 -6 -18.5 -18.5t-19.5 -23.5q-7 -11 -18 -4t-4 18z" />
    <glyph glyph-name="Ocircumflex" unicode="&#xd4;" horiz-adv-x="620" 
d="M242 666q54 4 79 0q23 -3 59 -27l18 -11q13 -7 20.5 -12.5t18 -14.5t17.5 -18q39 -54 55.5 -133t8.5 -159q-9 -84 -45 -152.5t-99 -102.5q-3 -1 -16.5 -9t-19.5 -11l-19 -8q-12 -6 -23 -8.5t-22 -3.5q-128 -10 -191 51q-73 70 -87 214q-12 131 28 230q24 59 75.5 107.5
t111.5 66.5q12 3 31 1zM272 636q-5 0 -15 1q-14 2 -15 2l-1 1l-12 -1q-4 0 -7 1q-2 0 -3 -1q-55 -16 -102 -60t-69 -98q-37 -93 -25 -218q13 -133 78 -196q55 -53 171 -45q9 1 17.5 3t18.5 7l16 8q6 2 20 10t18 10q55 30 88 92q33 63 41 142q8 76 -7 150q-16 74 -52 123
q-7 10 -15.5 17t-28 18.5t-22.5 14.5q-32 20 -49 23q-13 2 -33 1q-4 -6 -12 -5zM144 736q18 15 54 50q26 26 42 31q24 9 51 -11q22 -17 60 -65q9 -10 -1.5 -18.5t-18.5 2.5q-36 45 -56 60q-15 11 -26 7t-33 -25q-41 -39 -56 -51q-10 -9 -18.5 1.5t2.5 18.5z" />
    <glyph glyph-name="Otilde" unicode="&#xd5;" horiz-adv-x="620" 
d="M242 666q54 4 79 0q23 -3 59 -27l18 -11q13 -7 20.5 -12.5t18 -14.5t17.5 -18q39 -54 55.5 -133t8.5 -159q-9 -84 -45 -152.5t-99 -102.5q-3 -1 -16.5 -9t-19.5 -11l-19 -8q-12 -6 -23 -8.5t-22 -3.5q-128 -10 -191 51q-73 70 -87 214q-12 131 28 230q24 59 75.5 107.5
t111.5 66.5q12 3 31 1zM272 636q-5 0 -15 1q-14 2 -15 2l-1 1l-12 -1q-4 0 -7 1q-2 0 -3 -1q-55 -16 -102 -60t-69 -98q-37 -93 -25 -218q13 -133 78 -196q55 -53 171 -45q9 1 17.5 3t18.5 7l16 8q6 2 20 10t18 10q55 30 88 92q33 63 41 142q8 76 -7 150q-16 74 -52 123
q-7 10 -15.5 17t-28 18.5t-22.5 14.5q-32 20 -49 23q-13 2 -33 1q-4 -6 -12 -5zM115 726q15 51 59 69t74 11q18 -5 52 -28q35 -26 49 -32q23 -10 37 -2q21 11 36 57q5 13 17.5 8.5t8.5 -16.5q-19 -57 -49 -73q-26 -14 -61 2q-16 7 -54 34q-30 21 -42 24q-22 5 -58 -9
q-32 -14 -43 -53q-4 -12 -16.5 -8.5t-9.5 16.5z" />
    <glyph glyph-name="Odieresis" unicode="&#xd6;" horiz-adv-x="620" 
d="M242 666q54 4 79 0q23 -3 59 -27l18 -11q13 -7 20.5 -12.5t18 -14.5t17.5 -18q39 -54 55.5 -133t8.5 -159q-9 -84 -45 -152.5t-99 -102.5q-3 -1 -16.5 -9t-19.5 -11l-19 -8q-12 -6 -23 -8.5t-22 -3.5q-128 -10 -191 51q-73 70 -87 214q-12 131 28 230q24 59 75.5 107.5
t111.5 66.5q12 3 31 1zM272 636q-5 0 -15 1q-14 2 -15 2l-1 1l-12 -1q-4 0 -7 1q-2 0 -3 -1q-55 -16 -102 -60t-69 -98q-37 -93 -25 -218q13 -133 78 -196q55 -53 171 -45q9 1 17.5 3t18.5 7l16 8q6 2 20 10t18 10q55 30 88 92q33 63 41 142q8 76 -7 150q-16 74 -52 123
q-7 10 -15.5 17t-28 18.5t-22.5 14.5q-32 20 -49 23q-13 2 -33 1q-4 -6 -12 -5zM212 802q0 -24 4 -64q1 -5 -2.5 -9.5t-9 -5t-10 3t-4.5 9.5q-4 40 -4 66q0 6 3.5 9.5t9.5 3.5t9.5 -3.5t3.5 -9.5zM348 800v-71q0 -6 -3.5 -9.5t-9.5 -3.5t-9.5 3.5t-3.5 9.5v71q0 6 3.5 9.5
t9.5 3.5t9.5 -3.5t3.5 -9.5z" />
    <glyph glyph-name="multiply" unicode="&#xd7;" horiz-adv-x="515" 
d="M69 65q24 21 63 70q43 54 65 75l14 14l-140 156q-9 10 1 19t19 -1l140 -156q99 95 144 155q8 11 19 3t3 -19q-47 -62 -148 -158q86 -91 162 -156q10 -8 1.5 -18.5t-19.5 -1.5q-76 65 -163 157l-15 -14q-21 -20 -62 -71t-66 -74q-10 -9 -19 1t1 19z" />
    <glyph glyph-name="Oslash" unicode="&#xd8;" horiz-adv-x="625" 
d="M442 553l-250 -307q-9 -12 -53 -64t-66 -81q13 -20 28 -34q55 -53 171 -45q9 1 17.5 3t18.5 7l16 8q6 2 20 10t18 10q55 30 88 92.5t41 141.5q8 71 -5.5 140t-43.5 119zM272 636q-5 0 -15 1q-14 2 -15 2l-1 1l-12 -1q-4 0 -7 1q-2 0 -3 -1q-55 -16 -102 -60t-69 -98
q-37 -92 -25 -218q7 -80 36 -137l113 136l254 313q-7 8 -16 14l-24 15q-14 9 -20 13q-32 20 -49 23q-13 2 -33 1q-4 -6 -12 -5zM521 651q-10 -11 -25 -31l-27 -35l-9 -11q35 -54 50.5 -130t7.5 -153q-9 -84 -45 -152.5t-99 -102.5q-3 -1 -16.5 -9t-19.5 -11l-19 -8
q-12 -6 -23 -8.5t-22 -3.5q-128 -10 -191 51q-15 14 -27 32q-37 -49 -60 -92q-7 -12 -18.5 -5.5t-5.5 17.5q27 48 69 104q-36 65 -45 158q-12 131 28 230q24 59 75.5 107.5t111.5 66.5q12 3 31 1q54 4 79 0q23 -3 59 -27q4 -2 18.5 -11t25 -16.5t19.5 -15.5l6 7q7 7 25 33
q17 21 29 33q9 10 18.5 0.5t-0.5 -18.5z" />
    <glyph glyph-name="Ugrave" unicode="&#xd9;" horiz-adv-x="367" 
d="M63 656q0 -64 4.5 -181t5.5 -156q1 -13 0.5 -30.5t-1 -40t-1.5 -36.5q-1 -68 6 -100q6 -27 24.5 -47.5t42.5 -28.5q23 -8 45 -1.5t34 28.5q18 30 18 87q0 17 -3 49q-2 34 -2 47q-1 16 3 53q3 32 2 50t-7 65q-6 43 -6 68q-1 13 3 62q3 39 1 59q-1 5 -3 16t-2.5 17.5
t0.5 21.5q0 6 4.5 9.5t10 3t9 -5t2.5 -9.5v-18q0 -3 2 -13t3 -20q3 -22 -1 -63q-3 -44 -3 -60q1 -23 6 -64q6 -49 7 -67q2 -20 -2 -54q-3 -36 -3 -51q1 -12 3 -45t2 -51q1 -64 -20 -101q-18 -31 -50 -40.5t-61 2.5q-31 10 -54.5 35.5t-30.5 59.5q-7 35 -6 107q0 13 0.5 35.5
t1 40t0.5 30.5q-1 38 -5.5 155.5t-4.5 181.5q0 6 3.5 9.5t9.5 3.5t9.5 -3.5t3.5 -9.5zM95 807l61 -73q9 -10 -1 -19t-19 1q-7 8 -61 75q-9 10 1.5 18.5t18.5 -2.5z" />
    <glyph glyph-name="Uacute" unicode="&#xda;" horiz-adv-x="367" 
d="M63 656q0 -64 4.5 -181t5.5 -156q1 -13 0.5 -30.5t-1 -40t-1.5 -36.5q-1 -68 6 -100q6 -27 24.5 -47.5t42.5 -28.5q23 -8 45 -1.5t34 28.5q18 30 18 87q0 17 -3 49q-2 34 -2 47q-1 16 3 53q3 32 2 50t-7 65q-6 43 -6 68q-1 13 3 62q3 39 1 59q-1 5 -3 16t-2.5 17.5
t0.5 21.5q0 6 4.5 9.5t10 3t9 -5t2.5 -9.5v-18q0 -3 2 -13t3 -20q3 -22 -1 -63q-3 -44 -3 -60q1 -23 6 -64q6 -49 7 -67q2 -20 -2 -54q-3 -36 -3 -51q1 -12 3 -45t2 -51q1 -64 -20 -101q-18 -31 -50 -40.5t-61 2.5q-31 10 -54.5 35.5t-30.5 59.5q-7 35 -6 107q0 13 0.5 35.5
t1 40t0.5 30.5q-1 38 -5.5 155.5t-4.5 181.5q0 6 3.5 9.5t9.5 3.5t9.5 -3.5t3.5 -9.5zM194 809q-9 -17 -22 -34t-30 -36l-25 -27q-8 -11 -18.5 -2.5t-1.5 18.5q9 12 26 30t28 32.5t19 30.5q6 12 18 6t6 -18z" />
    <glyph glyph-name="Ucircumflex" unicode="&#xdb;" horiz-adv-x="367" 
d="M63 656q0 -64 4.5 -181t5.5 -156q1 -13 0.5 -30.5t-1 -40t-1.5 -36.5q-1 -68 6 -100q6 -27 24.5 -47.5t42.5 -28.5q23 -8 45 -1.5t34 28.5q18 30 18 87q0 17 -3 49q-2 34 -2 47q-1 16 3 53q3 32 2 50t-7 65q-6 43 -6 68q-1 13 3 62q3 39 1 59q-1 5 -3 16t-2.5 17.5
t0.5 21.5q0 6 4.5 9.5t10 3t9 -5t2.5 -9.5v-18q0 -3 2 -13t3 -20q3 -22 -1 -63q-3 -44 -3 -60q1 -23 6 -64q6 -49 7 -67q2 -20 -2 -54q-3 -36 -3 -51q1 -12 3 -45t2 -51q1 -64 -20 -101q-18 -31 -50 -40.5t-61 2.5q-31 10 -54.5 35.5t-30.5 59.5q-7 35 -6 107q0 13 0.5 35.5
t1 40t0.5 30.5q-1 38 -5.5 155.5t-4.5 181.5q0 6 3.5 9.5t9.5 3.5t9.5 -3.5t3.5 -9.5zM69 751l41 52q20 22 35 23q18 1 33 -23q8 -12 30 -56q6 -12 -6 -18t-18 6q-20 42 -28 54q-6 8 -10 10q-4 -1 -16 -14q-4 -4 -41 -50q-8 -11 -18.5 -2.5t-1.5 18.5z" />
    <glyph glyph-name="Udieresis" unicode="&#xdc;" horiz-adv-x="367" 
d="M63 656q0 -64 4.5 -181t5.5 -156q1 -13 0.5 -30.5t-1 -40t-1.5 -36.5q-1 -68 6 -100q6 -27 24.5 -47.5t42.5 -28.5q23 -8 45 -1.5t34 28.5q18 30 18 87q0 17 -3 49q-2 34 -2 47q-1 16 3 53q3 32 2 50t-7 65q-6 43 -6 68q-1 13 3 62q3 39 1 59q-1 5 -3 16t-2.5 17.5
t0.5 21.5q0 6 4.5 9.5t10 3t9 -5t2.5 -9.5v-18q0 -3 2 -13t3 -20q3 -22 -1 -63q-3 -44 -3 -60q1 -23 6 -64q6 -49 7 -67q2 -20 -2 -54q-3 -36 -3 -51q1 -12 3 -45t2 -51q1 -64 -20 -101q-18 -31 -50 -40.5t-61 2.5q-31 10 -54.5 35.5t-30.5 59.5q-7 35 -6 107q0 13 0.5 35.5
t1 40t0.5 30.5q-1 38 -5.5 155.5t-4.5 181.5q0 6 3.5 9.5t9.5 3.5t9.5 -3.5t3.5 -9.5zM104 779l-2 -15v-4v-6v-11q0 -6 -3.5 -9.5t-9.5 -3.5t-9.5 3.5t-3.5 9.5v11v6v5q0 2 2 18q1 5 5 8.5t9.5 2.5t9 -5t2.5 -10zM196 785q-1 -20 -1 -41q0 -6 -3.5 -9.5t-9.5 -3.5t-9.5 3.5
t-3.5 9.5q0 21 1 43q0 5 4 9t9.5 3.5t9.5 -4.5t3 -10z" />
    <glyph glyph-name="agrave" unicode="&#xe0;" 
d="M275 78q4 109 3 160v16q-68 20 -112 18q-62 -4 -94 -48q-31 -41 -28 -105q0 -2 0.5 -6.5t0.5 -5.5v-5q0 -4 0.5 -5t1 -4t1 -4.5t1 -4t1.5 -4.5t2.5 -4t3.5 -4q40 -51 109 -47t110 53zM28 424q3 45 33 73t72 34q41 6 79.5 -10t59.5 -54q33 -60 33 -229q0 -50 -3 -133
t-3 -105q0 -6 -3.5 -9.5t-9.5 -3.5t-9.5 3.5t-3.5 9.5v40q-33 -28 -77.5 -38t-89.5 3q-44 13 -72 51q-3 4 -5 8.5t-4 7.5t-3 8t-1.5 7t-1 8t-1 7t-0.5 8v7q-4 75 32 123q40 54 114 58q49 3 114 -16q-4 126 -30 173q-16 29 -47 42t-64.5 8t-56.5 -27t-26 -56q0 -5 -4 -9
t-9.5 -3.5t-9.5 4.5t-3 10zM118 691q22 -24 93 -57q12 -6 6 -18t-18 -6q-75 35 -101 63q-9 10 1 19t19 -1z" />
    <glyph glyph-name="aacute" unicode="&#xe1;" 
d="M275 78q4 109 3 160v16q-68 20 -112 18q-62 -4 -94 -48q-31 -41 -28 -105q0 -2 0.5 -6.5t0.5 -5.5v-5q0 -4 0.5 -5t1 -4t1 -4.5t1 -4t1.5 -4.5t2.5 -4t3.5 -4q40 -51 109 -47t110 53zM28 424q3 45 33 73t72 34q41 6 79.5 -10t59.5 -54q33 -60 33 -229q0 -50 -3 -133
t-3 -105q0 -6 -3.5 -9.5t-9.5 -3.5t-9.5 3.5t-3.5 9.5v40q-33 -28 -77.5 -38t-89.5 3q-44 13 -72 51q-3 4 -5 8.5t-4 7.5t-3 8t-1.5 7t-1 8t-1 7t-0.5 8v7q-4 75 32 123q40 54 114 58q49 3 114 -16q-4 126 -30 173q-16 29 -47 42t-64.5 8t-56.5 -27t-26 -56q0 -5 -4 -9
t-9.5 -3.5t-9.5 4.5t-3 10zM188 671l-26 -31q-13 -15 -32 -35q-19 -19 -28 -29t-19 -1t-1 19l28 28l32 35q14 15 26 30q8 11 18.5 2.5t1.5 -18.5z" />
    <glyph glyph-name="acircumflex" unicode="&#xe2;" 
d="M275 78q4 109 3 160v16q-68 20 -112 18q-62 -4 -94 -48q-31 -41 -28 -105q0 -2 0.5 -6.5t0.5 -5.5v-5q0 -4 0.5 -5t1 -4t1 -4.5t1 -4t1.5 -4.5t2.5 -4t3.5 -4q40 -51 109 -47t110 53zM28 424q3 45 33 73t72 34q41 6 79.5 -10t59.5 -54q33 -60 33 -229q0 -50 -3 -133
t-3 -105q0 -6 -3.5 -9.5t-9.5 -3.5t-9.5 3.5t-3.5 9.5v40q-33 -28 -77.5 -38t-89.5 3q-44 13 -72 51q-3 4 -5 8.5t-4 7.5t-3 8t-1.5 7t-1 8t-1 7t-0.5 8v7q-4 75 32 123q40 54 114 58q49 3 114 -16q-4 126 -30 173q-16 29 -47 42t-64.5 8t-56.5 -27t-26 -56q0 -5 -4 -9
t-9.5 -3.5t-9.5 4.5t-3 10zM59 618q23 17 50 44q24 22 35 26q20 7 41 -13q15 -14 50 -60q8 -11 -3 -19t-19 3q-33 44 -46 56q-10 10 -15 8t-24 -20q-29 -29 -53 -47q-11 -8 -19 3t3 19z" />
    <glyph glyph-name="atilde" unicode="&#xe3;" 
d="M275 78q4 109 3 160v16q-68 20 -112 18q-62 -4 -94 -48q-31 -41 -28 -105q0 -2 0.5 -6.5t0.5 -5.5v-5q0 -4 0.5 -5t1 -4t1 -4.5t1 -4t1.5 -4.5t2.5 -4t3.5 -4q40 -51 109 -47t110 53zM28 424q3 45 33 73t72 34q41 6 79.5 -10t59.5 -54q33 -60 33 -229q0 -50 -3 -133
t-3 -105q0 -6 -3.5 -9.5t-9.5 -3.5t-9.5 3.5t-3.5 9.5v40q-33 -28 -77.5 -38t-89.5 3q-44 13 -72 51q-3 4 -5 8.5t-4 7.5t-3 8t-1.5 7t-1 8t-1 7t-0.5 8v7q-4 75 32 123q40 54 114 58q49 3 114 -16q-4 126 -30 173q-16 29 -47 42t-64.5 8t-56.5 -27t-26 -56q0 -5 -4 -9
t-9.5 -3.5t-9.5 4.5t-3 10zM47 633q24 41 54 49q23 6 51 -11q8 -4 21 -13l19 -13q18 -10 29 -6q8 2 19 13q4 4 10.5 12t8.5 10q9 10 19 1t1 -19q-2 -2 -9 -10t-11 -13q-16 -15 -30 -20q-22 -7 -50 9q-7 4 -21 14q-12 9 -19 12q-19 11 -32 8q-18 -5 -38 -37
q-6 -11 -17.5 -4.5t-4.5 18.5z" />
    <glyph glyph-name="adieresis" unicode="&#xe4;" 
d="M275 78q4 109 3 160v16q-68 20 -112 18q-62 -4 -94 -48q-31 -41 -28 -105q0 -2 0.5 -6.5t0.5 -5.5v-5q0 -4 0.5 -5t1 -4t1 -4.5t1 -4t1.5 -4.5t2.5 -4t3.5 -4q40 -51 109 -47t110 53zM28 424q3 45 33 73t72 34q41 6 79.5 -10t59.5 -54q33 -60 33 -229q0 -50 -3 -133
t-3 -105q0 -6 -3.5 -9.5t-9.5 -3.5t-9.5 3.5t-3.5 9.5v40q-33 -28 -77.5 -38t-89.5 3q-44 13 -72 51q-3 4 -5 8.5t-4 7.5t-3 8t-1.5 7t-1 8t-1 7t-0.5 8v7q-4 75 32 123q40 54 114 58q49 3 114 -16q-4 126 -30 173q-16 29 -47 42t-64.5 8t-56.5 -27t-26 -56q0 -5 -4 -9
t-9.5 -3.5t-9.5 4.5t-3 10zM99 673q-1 -22 -1 -42q0 -6 -3.5 -9.5t-9.5 -3.5t-9.5 3.5t-3.5 9.5q0 20 1 44q0 5 4 9t9.5 3.5t9.5 -4.5t3 -10zM210 677q-1 -16 -1 -40q0 -6 -3.5 -9.5t-9.5 -3.5t-9.5 3.5t-3.5 9.5q0 24 1 42q0 5 4 9t9.5 3.5t9.5 -4.5t3 -10z" />
    <glyph glyph-name="ae" unicode="&#xe6;" horiz-adv-x="691" 
d="M273 200q-2 19 -3 46q-1 16 -1 31q-59 13 -100 7q-72 -11 -105.5 -55.5t-21.5 -115.5q6 -33 19 -44q52 -44 123.5 -34.5t109.5 63.5q-15 39 -21 96v4v1v1zM305 342q39 0 81.5 2t96.5 5t81 4q-4 72 -44 104.5t-92 21.5q-40 -9 -74 -44t-49 -93zM28 466q4 34 34.5 51.5
t71.5 20.5q37 2 74 -7t56 -27q29 -28 37 -99q21 41 53 67q32 25 69 33q67 15 117 -30q51 -45 51 -137q0 -6 -3.5 -9.5t-9.5 -3.5q-4 0 -7 1q-29 -1 -83.5 -4t-99.5 -4.5t-84 -1.5q-1 -21 -2 -50q-3 -54 -3 -65q9 -95 44 -139q36 -43 90 -53q68 -12 103 59q29 58 29 139
q0 6 3.5 9.5t9.5 3.5t9.5 -3.5t3.5 -9.5q0 -87 -31 -151q-44 -88 -131 -73q-65 11 -106 63q-10 11 -17 25q-48 -57 -126 -64t-137 42q-20 17 -27 60q-14 82 26 135q40 54 123 66q45 7 106 -6q2 19 6 36v13q-2 103 -31 131q-14 14 -45.5 21.5t-65.5 5.5q-35 -2 -56.5 -15
t-24.5 -34q0 -5 -4.5 -8.5t-10 -3t-9 5t-2.5 10.5z" />
    <glyph glyph-name="ccedilla" unicode="&#xe7;" horiz-adv-x="429" 
d="M298 364q-3 77 -43 112.5t-91 26.5q-53 -10 -92.5 -66.5t-39.5 -152.5q0 -111 44 -177.5t100 -75.5q54 -9 90 39q42 55 37 163q-1 6 3 10t9.5 4.5t9.5 -3.5t4 -9q6 -118 -42 -182q-45 -59 -115 -48q-10 1 -20 4q-2 -18 -15 -61l-7 -22q25 7 45 5q31 -2 47 -24
q17 -26 8 -74q-5 -28 -22 -42.5t-40 -15.5q-21 -1 -42 8t-35 27q-9 10 1.5 18.5t18.5 -2.5q22 -26 55 -25q32 2 38 36q7 38 -4 54q-8 12 -27 14q-16 1 -37 -5q-7 -1 -13 -4l-4 -1h-1l-1 -1h-1h-2h-2q-5 0 -9 4t-4 10q0 3 1 6q0 4 2 11l9 31q15 45 15 59q0 3 1 5
q-53 29 -87 98t-34 166q0 104 44.5 168.5t108.5 76.5t113 -32.5t52 -130.5q1 -6 -3 -10t-9.5 -4.5t-9.5 3.5t-4 9z" />
    <glyph glyph-name="egrave" unicode="&#xe8;" horiz-adv-x="427" 
d="M43 370q29 0 86.5 -2.5t86.5 -2.5t85 5q-3 75 -43.5 109t-93.5 22q-39 -8 -72.5 -42t-48.5 -89zM151 684l17 -16q53 -48 57 -53q9 -11 -1.5 -19.5t-18.5 1.5q-3 4 -55 52l-26 24l-3 3q-1 1 -1 2q-2 3 -3 5q-2 10 7 14q5 3 10 2l4 -2q2 -1 10 -8q2 -2 3 -5zM308 344
q-39 -6 -84 -6t-100 3t-82 3q-3 0 -5 1q-7 -35 -5 -75q6 -135 47 -186q36 -43 90 -53q68 -12 103 59q29 58 29 139q0 6 3.5 9.5t9.5 3.5t9.5 -3.5t3.5 -9.5q0 -87 -31 -151q-44 -88 -131 -73q-65 11 -106 63q-47 57 -53 200q-5 107 40 176q45 68 112.5 83t118 -30t50.5 -137
q0 -5 -3.5 -9t-9.5 -4q-2 -3 -6 -3z" />
    <glyph glyph-name="eacute" unicode="&#xe9;" horiz-adv-x="427" 
d="M43 370q29 0 86.5 -2.5t86.5 -2.5t85 5q-3 75 -43.5 109t-93.5 22q-39 -8 -72.5 -42t-48.5 -89zM308 344q-39 -6 -84 -6t-100 3t-82 3q-3 0 -5 1q-7 -35 -5 -75q6 -135 47 -186q36 -43 90 -53q68 -12 103 59q29 58 29 139q0 6 3.5 9.5t9.5 3.5t9.5 -3.5t3.5 -9.5
q0 -87 -31 -151q-44 -88 -131 -73q-65 11 -106 63q-47 57 -53 200q-5 107 40 176q45 68 112.5 83t118 -30t50.5 -137q0 -5 -3.5 -9t-9.5 -4q-2 -3 -6 -3zM227 682q-88 -81 -102 -91q-10 -9 -18.5 1.5t2.5 18.5l100 91q10 9 19 -1t-1 -19z" />
    <glyph glyph-name="ecircumflex" unicode="&#xea;" horiz-adv-x="427" 
d="M43 370q29 0 86.5 -2.5t86.5 -2.5t85 5q-3 75 -43.5 109t-93.5 22q-39 -8 -72.5 -42t-48.5 -89zM308 344q-39 -6 -84 -6t-100 3t-82 3q-3 0 -5 1q-7 -35 -5 -75q6 -135 47 -186q36 -43 90 -53q68 -12 103 59q29 58 29 139q0 6 3.5 9.5t9.5 3.5t9.5 -3.5t3.5 -9.5
q0 -87 -31 -151q-44 -88 -131 -73q-65 11 -106 63q-47 57 -53 200q-5 107 40 176q45 68 112.5 83t118 -30t50.5 -137q0 -5 -3.5 -9t-9.5 -4q-2 -3 -6 -3zM79 611q4 3 19 20l29 31q19 19 31 29q9 6 16 8q10 5 19 1q10 -3 21 -16q7 -9 17 -24l15 -24q9 -14 11 -17
q9 -10 -1.5 -18.5t-18.5 2.5q-5 5 -13 19l-15 23q-10 15 -15 21q-6 7 -10 9q-4 -2 -10 -6q-11 -8 -28 -25l-28 -31q-17 -19 -21 -22q-10 -9 -19 1t1 19z" />
    <glyph glyph-name="edieresis" unicode="&#xeb;" horiz-adv-x="427" 
d="M43 370q29 0 86.5 -2.5t86.5 -2.5t85 5q-3 75 -43.5 109t-93.5 22q-39 -8 -72.5 -42t-48.5 -89zM308 344q-39 -6 -84 -6t-100 3t-82 3q-3 0 -5 1q-7 -35 -5 -75q6 -135 47 -186q36 -43 90 -53q68 -12 103 59q29 58 29 139q0 6 3.5 9.5t9.5 3.5t9.5 -3.5t3.5 -9.5
q0 -87 -31 -151q-44 -88 -131 -73q-65 11 -106 63q-47 57 -53 200q-5 107 40 176q45 68 112.5 83t118 -30t50.5 -137q0 -5 -3.5 -9t-9.5 -4q-2 -3 -6 -3zM105 618v-15v-8q0 -3 -1 -5q0 -1 -1 -2t-4 -3.5t-7 -1.5q-4 0 -6.5 1.5t-3.5 2.5l-1 2l-2 4v1q0 1 -1 3l-3 14
q-1 6 -1 9v26q0 6 3.5 9.5t9.5 3.5t9.5 -3.5t3.5 -9.5v-17q5 -4 5 -11zM215 590q1 25 1 46q0 6 3.5 9.5t9.5 3.5t9.5 -3.5t3.5 -9.5q0 -21 -1 -48q0 -5 -4 -9t-9.5 -3.5t-9.5 4.5t-3 10z" />
    <glyph glyph-name="igrave" unicode="&#xec;" horiz-adv-x="166" 
d="M55 478q-1 -36 3 -92q0 -6 2 -40q2 -28 4 -53q3 -49 1 -146q-2 -95 1 -143q1 -6 -3 -10t-9.5 -4.5t-9.5 3.5t-4 9q-4 50 -2 146q2 99 0 143q-1 19 -4 53t-3 41q-4 56 -2 95q0 5 4 9t9.5 3.5t9.5 -4.5t3 -10zM13 698q2 -11 7.5 -22t11.5 -19l14 -21q10 -13 15 -22
q7 -11 -4 -18t-18 4q-4 5 -14 19t-16 23.5t-12.5 23.5t-9.5 26q-3 13 10 16t16 -10z" />
    <glyph glyph-name="iacute" unicode="&#xed;" horiz-adv-x="258" 
d="M92 493v-463q0 -6 -3.5 -9.5t-9.5 -3.5t-9.5 3.5t-3.5 9.5v463q0 6 3.5 9.5t9.5 3.5t9.5 -3.5t3.5 -9.5zM61 603l36 46q22 29 38 46q9 10 19 1t1 -19q-16 -17 -37 -44l-37 -46q-8 -11 -18.5 -2.5t-1.5 18.5z" />
    <glyph glyph-name="icircumflex" unicode="&#xee;" horiz-adv-x="233" 
d="M52 491q0 -54 -2 -153t-2 -180t4 -153q1 -6 -3 -10t-9.5 -4.5t-9.5 3.5t-4 9q-5 72 -5 153.5t2.5 181t2.5 153.5q0 6 3.5 9.5t9.5 3.5t9.5 -3.5t3.5 -9.5zM-36 607q19 20 43 54q22 29 33 35q12 6 24 1q10 -5 20 -17q17 -21 48 -81q6 -12 -6 -18t-18 6q-30 58 -44 76
q-7 8 -11 9q0 1 -1 0q-6 -2 -23 -27q-26 -36 -47 -56q-9 -10 -18.5 -0.5t0.5 18.5z" />
    <glyph glyph-name="idieresis" unicode="&#xef;" horiz-adv-x="229" 
d="M119 675q13 -3 10 -16l-10 -44q-1 -7 -2 -8q0 -3 -2 -4q-4 -5 -11 -5t-11 7l-1 5v1v1v3q3 36 2 53q-1 6 3 10t9 4q9 1 13 -7zM73 482q0 -50 -4.5 -149t-4.5 -178.5t10 -144.5q1 -5 -2.5 -9.5t-8.5 -5.5t-9.5 2.5t-5.5 8.5q-10 66 -10.5 147.5t4.5 181.5t5 147
q0 6 3.5 9.5t9.5 3.5t9.5 -3.5t3.5 -9.5zM28 667v-40q0 -7 -1 -10q0 -3 -1 -5q-1 -4 -5 -7q-5 -3 -10 -2q-4 1 -7 4l-4 7q0 1 -1 3q0 4 -1 11l-5 33q-1 6 2.5 10t8.5 5h1q4 4 10 4t9.5 -3.5t3.5 -9.5z" />
    <glyph glyph-name="ograve" unicode="&#xf2;" horiz-adv-x="419" 
d="M291 368q-3 3 -4 8q-1 7 -2.5 18.5t-2.5 16.5q-2 6 -6.5 17t-5.5 16q-3 6 0 11q-1 2 -1 3q-23 37 -63 52t-81.5 4t-69.5 -44q-36 -43 -43 -149q-5 -92 12 -166q9 -40 38 -72q28 -32 64 -46q34 -16 71.5 -5t63.5 50q24 36 30 141q5 70 0 145zM309 417q7 -22 8 -37
q6 -82 1 -158q-7 -112 -35 -154q-21 -32 -50 -49t-58 -17t-59 10q-42 16 -74.5 53.5t-43.5 83.5q-18 77 -12 174q7 115 49 165q32 38 82 51.5t98.5 -4.5t75.5 -63q12 -20 18 -55zM85 697q74 -46 104 -71q11 -8 2.5 -18.5t-18.5 -1.5q-30 23 -102 69q-11 7 -4 18t18 4z" />
    <glyph glyph-name="oacute" unicode="&#xf3;" horiz-adv-x="419" 
d="M291 368q-3 3 -4 8q-1 7 -2.5 18.5t-2.5 16.5q-2 6 -6.5 17t-5.5 16q-3 6 0 11q-1 2 -1 3q-23 37 -63 52t-81.5 4t-69.5 -44q-36 -43 -43 -149q-5 -92 12 -166q9 -40 38 -72q28 -32 64 -46q34 -16 71.5 -5t63.5 50q24 36 30 141q5 70 0 145zM309 417q7 -22 8 -37
q6 -82 1 -158q-7 -112 -35 -154q-21 -32 -50 -49t-58 -17t-59 10q-42 16 -74.5 53.5t-43.5 83.5q-18 77 -12 174q7 115 49 165q32 38 82 51.5t98.5 -4.5t75.5 -63q12 -20 18 -55zM208 679q-30 -15 -77 -65q-9 -10 -19 -1t-1 19q51 54 85 71q12 6 18 -6t-6 -18z" />
    <glyph glyph-name="ocircumflex" unicode="&#xf4;" horiz-adv-x="419" 
d="M291 368q-3 3 -4 8q-1 7 -2.5 18.5t-2.5 16.5q-2 6 -6.5 17t-5.5 16q-3 6 0 11q-1 2 -1 3q-23 37 -63 52t-81.5 4t-69.5 -44q-36 -43 -43 -149q-5 -92 12 -166q9 -40 38 -72q28 -32 64 -46q34 -16 71.5 -5t63.5 50q24 36 30 141q5 70 0 145zM309 417q7 -22 8 -37
q6 -82 1 -158q-7 -112 -35 -154q-21 -32 -50 -49t-58 -17t-59 10q-42 16 -74.5 53.5t-43.5 83.5q-18 77 -12 174q7 115 49 165q32 38 82 51.5t98.5 -4.5t75.5 -63q12 -20 18 -55zM33 625q10 6 49 45l27 27l9 9q2 2 4 3q3 3 5 4q10 3 20 -2q5 -3 12 -8q14 -12 36 -42
q21 -28 34 -39q10 -8 1.5 -18.5t-19.5 -1.5q-15 13 -37 43q-21 28 -33 38q-3 2 -5 4v-1l-9 -8l-26 -27q-42 -41 -54 -48t-18.5 4.5t4.5 17.5z" />
    <glyph glyph-name="otilde" unicode="&#xf5;" horiz-adv-x="419" 
d="M291 368q-3 3 -4 8q-1 7 -2.5 18.5t-2.5 16.5q-2 6 -6.5 17t-5.5 16q-3 6 0 11q-1 2 -1 3q-23 37 -63 52t-81.5 4t-69.5 -44q-36 -43 -43 -149q-5 -92 12 -166q9 -40 38 -72q28 -32 64 -46q34 -16 71.5 -5t63.5 50q24 36 30 141q5 70 0 145zM309 417q7 -22 8 -37
q6 -82 1 -158q-7 -112 -35 -154q-21 -32 -50 -49t-58 -17t-59 10q-42 16 -74.5 53.5t-43.5 83.5q-18 77 -12 174q7 115 49 165q32 38 82 51.5t98.5 -4.5t75.5 -63q12 -20 18 -55zM22 625q8 42 56 60q45 17 83 -3q8 -4 15 -10.5t15 -16t9 -9.5q14 -16 31 -13q10 2 24 20
q5 6 13 17q9 15 10 16q8 11 19 3t3 -19q-1 -1 -10 -15l-14 -19q-21 -26 -41 -29q-31 -5 -55 20q-3 4 -10 12t-11.5 12t-9.5 7q-28 15 -62 2q-33 -12 -39 -41q-1 -5 -5.5 -8t-10 -2t-8.5 5.5t-2 10.5z" />
    <glyph glyph-name="odieresis" unicode="&#xf6;" horiz-adv-x="419" 
d="M291 368q-3 3 -4 8q-1 7 -2.5 18.5t-2.5 16.5q-2 6 -6.5 17t-5.5 16q-3 6 0 11q-1 2 -1 3q-23 37 -63 52t-81.5 4t-69.5 -44q-36 -43 -43 -149q-5 -92 12 -166q9 -40 38 -72q28 -32 64 -46q34 -16 71.5 -5t63.5 50q24 36 30 141q5 70 0 145zM309 417q7 -22 8 -37
q6 -82 1 -158q-7 -112 -35 -154q-21 -32 -50 -49t-58 -17t-59 10q-42 16 -74.5 53.5t-43.5 83.5q-18 77 -12 174q7 115 49 165q32 38 82 51.5t98.5 -4.5t75.5 -63q12 -20 18 -55zM109 684q-1 -13 -1 -47q0 -6 -3.5 -9.5t-9.5 -3.5t-9.5 3.5t-3.5 9.5q0 34 1 49q0 5 4 9
t9.5 3.5t9.5 -4.5t3 -10zM213 683q-4 -18 -4 -58q0 -6 -3.5 -9.5t-9.5 -3.5t-9.5 3.5t-3.5 9.5q0 42 4 64q1 5 5.5 8t10 2t8.5 -5.5t2 -10.5z" />
    <glyph glyph-name="divide" unicode="&#xf7;" horiz-adv-x="594" 
d="M244 423q1 1 2 1q13 3 16 -10q5 -23 5 -32v-6q-2 -8 -9 -10q-8 -3 -15 3q-1 1 -3 4q-10 16 -11 36q-1 6 3 10t9 4h3zM276 73q1 0 2 -1q12 -4 7 -17q-5 -14 -11 -21q-4 -5 -8 -7q-11 -4 -18 4q-4 4 -4 12q0 4 1 9q3 9 10 20q8 10 19 3zM19 234q18 0 108.5 -5t138.5 -6
q29 0 107 2q71 2 109 -1q5 0 9 -4t3.5 -9.5t-4.5 -9.5t-10 -3q-35 2 -106 0q-79 -2 -108 -1q-49 1 -140 5l-109 6q-5 0 -9 4t-3.5 9.5t4.5 9.5t10 3z" />
    <glyph glyph-name="oslash" unicode="&#xf8;" horiz-adv-x="423" 
d="M42 110q37 67 102 175l112 191q-39 44 -100.5 42t-100.5 -48q-36 -43 -43 -149q-5 -93 12 -166q6 -24 18 -45zM269 446l-102 -174l-108 -187q29 -34 67 -48q34 -16 71.5 -5t63.5 50q24 36 30 141q5 70 0 145q-3 3 -4 8q-1 7 -2.5 18.5t-2.5 16.5q-2 6 -6.5 17t-5.5 16
q-1 1 -1 2zM269 500l29 53q7 12 18.5 5.5t5.5 -17.5l-35 -63l4 -6q12 -20 18 -55q7 -22 8 -37q6 -82 1 -158q-7 -112 -35 -154q-21 -32 -50 -49t-58 -17t-59 10q-39 15 -70 48l-30 -58q-6 -12 -18 -6t-6 18l36 69q-22 31 -30 66q-18 78 -12 174q7 115 49 165q44 52 115 56.5
t119 -44.5z" />
    <glyph glyph-name="ugrave" unicode="&#xf9;" horiz-adv-x="401" 
d="M298 531q6 -77 -2 -266q-4 -93 -3 -142q3 -5 2 -10q-1 -3 -1 -6q1 -56 7 -103q1 -6 -2.5 -10t-9 -5t-9.5 2.5t-5 8.5q-4 27 -6 56q-29 -40 -75 -52t-91 9t-69 71q-13 27 -18 91q-5 51 -5 128q0 49 6 229q0 6 4 9.5t9.5 3.5t9 -4t3.5 -9q-5 -180 -5 -229q0 -76 4 -126
q5 -59 16 -81q17 -36 48.5 -54t62.5 -15.5t59 24.5t39 60q-2 58 2 155q8 190 3 263q-1 6 3 10t9.5 4.5t9.5 -3.5t4 -9zM119 700q8 -20 26 -47l32 -47q6 -12 -5.5 -18.5t-18.5 4.5q-3 7 -30 46q-20 30 -28 52q-5 13 7.5 17.5t16.5 -7.5z" />
    <glyph glyph-name="uacute" unicode="&#xfa;" horiz-adv-x="401" 
d="M298 531q6 -77 -2 -266q-4 -93 -3 -142q3 -5 2 -10q-1 -3 -1 -6q1 -56 7 -103q1 -6 -2.5 -10t-9 -5t-9.5 2.5t-5 8.5q-4 27 -6 56q-29 -40 -75 -52t-91 9t-69 71q-13 27 -18 91q-5 51 -5 128q0 49 6 229q0 6 4 9.5t9.5 3.5t9 -4t3.5 -9q-5 -180 -5 -229q0 -76 4 -126
q5 -59 16 -81q17 -36 48.5 -54t62.5 -15.5t59 24.5t39 60q-2 58 2 155q8 190 3 263q-1 6 3 10t9.5 4.5t9.5 -3.5t4 -9zM102 623q45 46 96 77q11 7 18 -4t-4 -18q-49 -30 -92 -73q-9 -10 -18.5 -0.5t0.5 18.5z" />
    <glyph glyph-name="ucircumflex" unicode="&#xfb;" horiz-adv-x="401" 
d="M298 531q6 -77 -2 -266q-4 -93 -3 -142q3 -5 2 -10q-1 -3 -1 -6q1 -56 7 -103q1 -6 -2.5 -10t-9 -5t-9.5 2.5t-5 8.5q-4 27 -6 56q-29 -40 -75 -52t-91 9t-69 71q-13 27 -18 91q-5 51 -5 128q0 49 6 229q0 6 4 9.5t9.5 3.5t9 -4t3.5 -9q-5 -180 -5 -229q0 -76 4 -126
q5 -59 16 -81q17 -36 48.5 -54t62.5 -15.5t59 24.5t39 60q-2 58 2 155q8 190 3 263q-1 6 3 10t9.5 4.5t9.5 -3.5t4 -9zM66 640q27 14 48 36l8 8l5 6q8 9 14 12q10 6 21 0q8 -4 16 -15q10 -11 43 -66q7 -11 -4 -18t-18 4q-36 57 -42 64q-3 4 -5 6q-3 -2 -5 -5l-14 -15
q-24 -24 -55 -41q-11 -6 -17.5 5.5t5.5 18.5z" />
    <glyph glyph-name="udieresis" unicode="&#xfc;" horiz-adv-x="401" 
d="M298 531q6 -77 -2 -266q-4 -93 -3 -142q3 -5 2 -10q-1 -3 -1 -6q1 -56 7 -103q1 -6 -2.5 -10t-9 -5t-9.5 2.5t-5 8.5q-4 27 -6 56q-29 -40 -75 -52t-91 9t-69 71q-13 27 -18 91q-5 51 -5 128q0 49 6 229q0 6 4 9.5t9.5 3.5t9 -4t3.5 -9q-5 -180 -5 -229q0 -76 4 -126
q5 -59 16 -81q17 -36 48.5 -54t62.5 -15.5t59 24.5t39 60q-2 58 2 155q8 190 3 263q-1 6 3 10t9.5 4.5t9.5 -3.5t4 -9zM110 640q0 -9 0.5 -27.5t0.5 -27.5q0 -6 -3.5 -9.5t-9.5 -3.5t-9.5 3.5t-3.5 9.5q0 9 -0.5 27.5t-0.5 27.5q0 6 3.5 9.5t9.5 3.5t9.5 -3.5t3.5 -9.5z
M218 642q-3 -25 -5 -60q0 -5 -4 -9t-9.5 -3.5t-9.5 4.5t-3 10q2 35 5 62q0 5 4.5 8.5t10 3t9 -5t2.5 -10.5z" />
    <glyph glyph-name="OE" unicode="&#x152;" horiz-adv-x="817" 
d="M484 679q53 1 71 1t70 -2.5t70 -3.5q6 0 9.5 -4t3.5 -9.5t-4 -9t-9 -3.5q-20 0 -62.5 2t-74.5 3t-62 0v-104q16 -1 64 -1q6 0 9.5 -3.5t3.5 -9.5t-3.5 -9.5t-9.5 -3.5q-47 0 -64 1v-337q4 -3 4 -8q2 -18 2 -44t-6 -46v-75q16 0 48.5 0.5t49.5 1.5q66 0 111 -5
q6 0 9.5 -4.5t3 -10t-5 -9t-9.5 -2.5q-45 4 -109 4q-17 0 -51 -0.5t-50 -0.5q-4 -4 -10 -4t-9.5 3.5t-3.5 9.5v46q-28 -25 -80 -40q-70 -21 -134.5 -4t-114 57t-80.5 101q-31 60 -33 129q-2 56 1 97q3 42 13.5 92.5t36.5 92.5t66 71q37 28 93 43q55 15 108 11q86 -6 124 -59
v31q0 6 5 10q3 5 9 5zM466 565q-4 48 -36.5 73t-85.5 28q-48 4 -99.5 -10t-83.5 -38q-36 -27 -59.5 -65t-33.5 -84.5t-13 -88.5q-3 -41 -1 -95q2 -62 30 -118q29 -56 74.5 -92t103.5 -51q58 -16 120 2q63 18 80 47q5 8 8 17v467q-4 3 -4 8z" />
    <glyph glyph-name="oe" unicode="&#x153;" horiz-adv-x="741" 
d="M358 360q29 0 86.5 -2.5t85.5 -2.5t84 5q-3 73 -43.5 106t-92.5 22q-38 -8 -71.5 -41t-48.5 -87zM320 348q-3 3 -4 8q-1 6 -2.5 17.5t-1.5 16.5q-3 5 -7 16t-6 16q-3 6 0 11q-1 2 -1 3q-22 36 -63 50.5t-83 4t-68 -42.5q-26 -34 -37 -91t-8.5 -111.5t14.5 -102.5
q9 -39 37.5 -70.5t64.5 -44.5q34 -15 71 -4q38 11 64 49q23 33 30 135q0 12 1 24q-1 10 -1 23q-2 32 2 61q-1 17 -2 32zM621 334q-39 -6 -84 -6t-100 3t-82 3h-4q-2 -9 -3 -19q1 -43 0 -83q7 -113 45 -161q36 -43 90 -53q68 -12 103 59q29 58 29 139q0 6 3.5 9.5t9.5 3.5
t9.5 -3.5t3.5 -9.5q0 -87 -31 -151q-44 -88 -131 -73q-65 11 -106 63q-23 28 -36 73q-9 -48 -25 -71q-32 -45 -78.5 -58.5t-87.5 4.5q-42 16 -75 52t-44 82q-12 50 -15 107t9 119.5t43 100.5q31 40 81 52.5t99.5 -5.5t75.5 -61q12 -20 18 -54l2 -6q20 51 56 83q35 32 77 41
q67 15 117 -30q51 -45 51 -137q0 -6 -3.5 -9.5t-9.5 -3.5h-5h-2z" />
    <glyph glyph-name="quoteleft" unicode="&#x2018;" horiz-adv-x="242" 
d="M115 647l9 -41q7 -28 10 -42q7 -35 8 -38v-2v-3q0 -2 -2 -4q-4 -7 -11 -7q-5 0 -9 4l-2 2q-1 1 -1 2l-1 3l-1 3l-3 13q-13 55 -14 63v3l-9 38q-3 13 10 16t16 -10z" />
    <glyph glyph-name="quoteright" unicode="&#x2019;" horiz-adv-x="263" 
d="M162 638l-53 -105l-9 -16l-1 -1q0 -1 -0.5 -1.5t-0.5 -1.5q-2 -2 -5 -3q-8 -4 -15 2q-4 4 -4 10q0 1 1 3v2q1 1 3 5l43 87q1 2 3 4l14 27q6 12 18 6t6 -18z" />
    <glyph glyph-name="quotedblleft" unicode="&#x201c;" horiz-adv-x="294" 
d="M52 608h1q10 -2 16 -13q6 -13 4 -34q-1 -23 -11 -33q-9 -9 -21 -6q-10 2 -18 13q-11 13 -9 36q1 18 10 40q18 46 43 60q11 6 17.5 -5.5t-5.5 -18.5q-13 -7 -27 -39zM160 616q7 0 12 -6q3 -4 5 -9q3 -8 4 -19q1 -27 -7 -42q-7 -14 -21 -13q-12 1 -23 14q-11 14 -9 37
q1 18 10 40q20 46 44 60q11 6 17.5 -5.5t-5.5 -18.5t-27 -38z" />
    <glyph glyph-name="quotedblright" unicode="&#x201d;" horiz-adv-x="286" 
d="M48 589q-6 0 -12 5q-4 3 -6 8q-4 8 -7 20q-6 28 -1 45q5 16 18 18t27 -10q26 -23 12 -76q-12 -47 -35 -65q-11 -8 -19 3t3 19t20 33zM157 596q-8 -2 -14 3q-4 3 -7 8q-4 6 -8 17q-7 24 -3 40q3 15 17 18q11 2 25 -8q14 -11 18 -34q3 -18 -1 -41q-7 -49 -27 -68
q-9 -10 -18.5 -0.5t0.5 18.5q11 12 18 47z" />
    <glyph glyph-name="Euro" unicode="&#x20ac;" horiz-adv-x="617" 
d="M487 505q-30 75 -65 103q-41 32 -113 21q-57 -9 -96 -58q-50 -65 -64 -172q37 0 107.5 0.5t102.5 0.5q6 0 9.5 -3.5t3.5 -9.5t-3.5 -9.5t-9.5 -3.5q-32 0 -103.5 -1t-108.5 0q-3 -44 0 -90h207q6 0 9.5 -3.5t3.5 -9.5t-3.5 -9.5t-9.5 -3.5h-205q5 -38 13 -73
q24 -101 75 -144t107 -30t98.5 76t48.5 161q0 5 4 9t9.5 3.5t9.5 -4.5t3 -10q-6 -105 -53 -175q-47 -71 -114 -86q-69 -16 -128 34q-60 51 -86 160q-9 38 -13 79h-87q-6 0 -9.5 3.5t-3.5 9.5t3.5 9.5t9.5 3.5h84q-3 46 0 90q-46 0 -86 2q-5 0 -9 4t-3.5 9.5t4.5 9.5t10 3
q40 -1 87 -2q13 117 70 188q45 58 112 68q83 13 133 -26q42 -33 73 -114q5 -13 -7.5 -17.5t-16.5 7.5z" />
    <glyph glyph-name="uni3000" unicode="&#x3000;" horiz-adv-x="1000" 
 />
  </font>
</defs>
</svg>
