<?xml version="1.0" standalone="no"?>
<!DOCTYPE svg PUBLIC "-//W3C//DTD SVG 1.1//EN" "http://www.w3.org/Graphics/SVG/1.1/DTD/svg11.dtd" >
<svg xmlns="http://www.w3.org/2000/svg" xmlns:xlink="http://www.w3.org/1999/xlink" version="1.1">
<metadata>
Created by FontForge 20170731 at Wed Mar 11 11:18:05 2015
 By Aleksey,,,
Copyright (c) 2015 by Brittney Murphy. All rights reserved.
</metadata>
<defs>
<font id="Huffleclaw" horiz-adv-x="216" >
  <font-face 
    font-family="Huffleclaw"
    font-weight="400"
    font-stretch="normal"
    units-per-em="1000"
    panose-1="0 0 0 0 0 0 0 0 0 0"
    ascent="750"
    descent="-250"
    x-height="240"
    cap-height="426"
    bbox="-111.612 -306.538 525.667 713"
    underline-thickness="50"
    underline-position="-150"
    unicode-range="U+0020-FB06"
  />
<missing-glyph horiz-adv-x="109" 
 />
    <glyph glyph-name=".notdef" horiz-adv-x="109" 
 />
    <glyph glyph-name=".null" horiz-adv-x="0" 
 />
    <glyph glyph-name="nonmarkingreturn" horiz-adv-x="333" 
 />
    <glyph glyph-name="space" unicode=" " horiz-adv-x="109" 
 />
    <glyph glyph-name="exclam" unicode="!" horiz-adv-x="96" 
d="M36 406q1 5 6 7.5t10.5 2.5t10 -2t4.5 -5q0 -2 -1 -27t-2 -62t-2.5 -79.5t-2.5 -79.5t-2 -62t-1 -26q0 -2 -5 -4t-10.5 -2t-10.5 2t-5 7q0 3 0.5 28t1.5 60.5t2.5 76.5t2.5 76.5t2 60t2 28.5zM19 25q0 13 7 18t15 4t14 -7t5 -15q-1 -11 -7.5 -17t-14 -6t-13.5 5.5
t-6 17.5z" />
    <glyph glyph-name="quotedbl" unicode="&#x22;" horiz-adv-x="164" 
d="M30 423q0 6 5 8t11 1t11 -3.5t5 -5.5q0 -2 -0.5 -17.5t-1 -36.5t-1 -45t-1 -45t-1 -35t-0.5 -15t-5 -2t-10.5 -1t-10.5 1.5t-5 6.5v17t0.5 34t1 42.5t1 42.5t0.5 34.5t1 18.5zM100 424q0 6 4.5 8t10.5 2t11 -2t6 -6q0 -3 0.5 -19.5t0.5 -40v-50t-0.5 -49.5t-0.5 -39v-17
q0 -2 -5 -3.5t-11 -2t-11 0.5t-5 5v213z" />
    <glyph glyph-name="numbersign" unicode="#" horiz-adv-x="274" 
d="M189 350q0 4 5 5.5t11.5 1.5t11.5 -1.5t5 -4.5q0 -2 -1 -36.5t-2 -81.5h25q3 0 4.5 -5.5t2 -11.5t-1 -11t-4.5 -4h-27l-2 -64h35q4 0 6 -4.5t1.5 -10.5t-2 -10.5t-4.5 -4.5q-2 0 -11.5 -0.5t-24.5 -1.5q-2 -43 -2.5 -73t-0.5 -32t-4.5 -3.5t-10 -2t-10.5 1.5t-5 7t0.5 33
t0.5 68l-86 -2q0 -20 -0.5 -32t-0.5 -13q-1 -3 -5 -5t-9 -3t-9.5 0t-4.5 6q-1 2 -1 14.5t-1 31.5q-23 -1 -38.5 -1t-17.5 1q-3 0 -4.5 4.5t-1.5 10t2 10t7 5.5q2 0 17 0.5t35 1.5l-1 68q-19 0 -32.5 0.5t-15.5 0.5q-3 2 -3 15.5t5 15.5h46q-1 42 -1 73.5t1 35.5q0 5 5 7.5
t11 2.5t11 -1.5t5 -4.5v-36t1 -77h89q1 47 1.5 80.5t0.5 36.5zM98 134q22 1 44.5 1t42.5 1l2 65h-89v-67z" />
    <glyph glyph-name="dollar" unicode="$" horiz-adv-x="184" 
d="M161 297q5 -4 4.5 -9t-3.5 -9.5t-8 -7.5t-8 -2q-18 8 -37 10q0 -20 0.5 -42t1.5 -45q23 -7 40 -20t18 -40q1 -28 -15.5 -42.5t-39.5 -19.5q2 -31 2.5 -52t0.5 -23q0 -3 -4.5 -4t-10.5 -1t-10.5 2t-4.5 5q0 2 -0.5 22t-2.5 50q-16 1 -30.5 5.5t-22.5 12.5q-5 4 -3 10
t6.5 11t10 7.5t7.5 0.5q11 -13 31 -16l-3 70q-26 8 -48.5 19.5t-24.5 37.5q-1 18 4.5 31.5t15 23.5t22 16t26.5 9q-2 27 -2 45v21q1 5 5.5 7.5t10.5 2.5t10.5 -1.5t5.5 -4.5q0 -2 0.5 -19.5t2.5 -46.5q16 0 30 -4t23 -10zM76 275q-17 -6 -27.5 -18t-10.5 -26q0 -12 12 -18.5
t29 -11.5q-1 20 -2 38.5t-1 35.5zM114 102q11 3 18.5 9.5t7.5 17.5q-1 11 -8.5 18.5t-19.5 12.5z" />
    <glyph glyph-name="percent" unicode="%" horiz-adv-x="339" 
d="M66 312q33 1 49.5 -23t17.5 -54.5t-13.5 -57t-43.5 -30.5q-23 -3 -39 8t-24 29t-9 40t5.5 41t20.5 32.5t36 14.5zM71 282q-20 -1 -30 -18.5t-10 -37.5t10.5 -35.5t31.5 -12.5q16 1 23.5 18t7 36.5t-9 35t-23.5 14.5zM227 430q3 5 7.5 5t9 -2t7.5 -6t3 -7q-1 -3 -10.5 -39
t-24.5 -88t-32 -112.5t-31.5 -112.5t-25 -87t-11.5 -37q-2 -3 -7.5 -3.5t-11 1t-9.5 4.5t-2 8q1 3 11 39.5t25.5 89t32.5 113t32.5 112.5t25.5 86.5t11 35.5zM256 181q33 1 49.5 -23t17.5 -54.5t-13 -57t-43 -30.5q-24 -3 -39.5 8t-24 29t-9.5 40t5.5 41.5t20.5 32.5t36 14z
M261 151q-20 -1 -30 -18.5t-10 -37.5t10.5 -35.5t31.5 -12.5q16 1 23.5 18t7 36.5t-8.5 35t-24 14.5z" />
    <glyph glyph-name="ampersand" unicode="&#x26;" horiz-adv-x="169" 
d="M90 357q0 3 4 5.5t9.5 3t9.5 0t4 -3.5q0 -2 1.5 -24t4 -48.5t4 -48.5t1.5 -24t-4 -4t-9.5 -3t-10 0.5t-4.5 5.5q-1 8 -2 18.5t-7 12.5q-3 0 -10.5 -1t-15.5 -5t-16.5 -12.5t-12.5 -21.5q-9 -28 5 -44t32 -14q4 1 14 7t21 11t20 6.5t12 -7.5q3 -12 -4 -19t-17.5 -11
t-20.5 -5.5t-12 -2.5q-9 -4 -22 -14.5t-12 -26.5q2 -18 16 -19.5t28 2.5q14 5 19 11t9 11q2 3 7 3t10 -1.5t8.5 -4.5t3.5 -7q-1 -4 -3.5 -27t-5.5 -50l-5.5 -49.5t-2.5 -24.5t-4 -3t-9 -0.5t-9 3t-4 7.5q0 4 1 22t2.5 38t2.5 36l1 16l-8.5 -4t-21 -7t-26.5 -2t-24 13t-12 23
t0 20.5t6 17t7 11.5l-7 4t-14 14t-10.5 27.5t3.5 45.5q6 28 20 41.5t29 18.5t26 5h11l-1 11.5t-2 25t-2 26.5t-1 16z" />
    <glyph glyph-name="quotesingle" unicode="'" horiz-adv-x="91" 
d="M30 423q0 6 5 8t11 1t11 -3.5t5 -5.5q0 -2 -0.5 -17.5t-1 -36.5t-1 -45t-1 -45t-1 -35t-0.5 -15t-5 -2t-10.5 -1t-10.5 1.5t-5 6.5v17t0.5 34t1 42.5t1 42.5t0.5 34.5t1 18.5z" />
    <glyph glyph-name="parenleft" unicode="(" horiz-adv-x="147" 
d="M112 458q5 4 10 1.5t8.5 -7.5t5 -11t-0.5 -7l-17 -17t-32 -46.5t-30.5 -80.5t-13.5 -118q1 -70 13 -118.5t26.5 -80t27.5 -46.5t16 -17q2 -2 1 -7.5t-4.5 -10.5t-8 -8t-8.5 0t-20 21.5t-32.5 54t-29.5 88.5t-11 125t14.5 122.5t28.5 84t32 52t25 26.5z" />
    <glyph glyph-name="parenright" unicode=")" horiz-adv-x="210" 
d="M7 447q-3 5 -0.5 10t7 8.5t10 5t8.5 -0.5q1 -1 13 -16.5t29.5 -41t37.5 -60t38 -74t30.5 -82t15.5 -84.5q4 -70 -10.5 -114.5t-35 -70t-39.5 -35.5t-23 -11q-4 0 -7.5 4t-5.5 9.5t-2 11t4 7.5t19.5 10t31 29t27 58.5t8.5 100.5q-4 67 -27.5 126t-51 104t-51 73t-26.5 33z
" />
    <glyph glyph-name="asterisk" unicode="*" horiz-adv-x="275" 
d="M75 268q0 4 5.5 5.5t11.5 0.5t11 -3.5t6 -4.5v-19v-36.5t0.5 -35t1.5 -14.5t16.5 12.5t34 25t35.5 26t21 15.5t8.5 -0.5t7.5 -9t4.5 -11.5t-0.5 -8t-20 -14t-38.5 -26t-37 -25.5t-15.5 -11.5l19 -5.5t42 -12.5t43 -13t23 -7t2.5 -6t-2.5 -11t-5.5 -10.5t-6.5 -4.5
t-22.5 7t-42 15.5t-41 15.5t-18.5 6q-1 0 0.5 -14.5t3.5 -32t4 -32.5t2 -18q1 -3 -3.5 -6t-10 -4.5t-10.5 -1t-6 3.5t-3 19t-4.5 34t-5 32l-2.5 14q-1 0 -7.5 -6.5l-14.5 -14.5t-15.5 -15t-9.5 -8q-3 -1 -8 1.5t-9.5 6.5t-7 8t-0.5 7q2 2 11 10t19 16.5t18 15.5t7 8
q-1 0 -9.5 6.5t-18 15t-18.5 16t-10 9.5q-2 2 0 6t5 8t7 6t6 1t10 -8t17 -15t16.5 -14t7.5 -5q1 1 0 16.5t-2 35t-1.5 37t-0.5 22.5z" />
    <glyph glyph-name="plus" unicode="+" horiz-adv-x="231" 
d="M139 92q1 -4 -3.5 -7.5t-10 -5t-11 -1t-5.5 3.5q0 1 -1.5 9.5t-3.5 22t-4.5 30.5t-5.5 35q-32 -5 -56 -7.5t-26 -1.5q-3 1 -5.5 6t-3.5 11t0 11t4 6l82 9q-4 30 -7 53.5t-3 26.5q1 3 6 6t11 4t11 0t5 -4q1 -3 4 -27l7 -56q33 3 59.5 6t30.5 4q4 0 6.5 -4.5t4 -10
t1.5 -10.5t-3 -6t-31 -4t-63 -8q4 -34 7 -61t4 -30z" />
    <glyph glyph-name="comma" unicode="," horiz-adv-x="77" 
d="M13 11q-3 5 1 9.5t11 7.5t14 3t9 -3q3 -3 6.5 -13t6 -23t3.5 -27t-2 -26t-8 -22t-11 -17.5t-11.5 -12t-7.5 -4.5q-2 -1 -5 1.5t-6 6t-5 7t0 6.5q2 6 12.5 15.5t11.5 23.5t-6 35.5t-13 32.5z" />
    <glyph glyph-name="hyphen" unicode="-" horiz-adv-x="125" 
d="M104 183q4 0 7 -4.5t4.5 -10.5t1 -11t-3.5 -5q-3 -1 -17.5 -4t-31 -6t-31.5 -5t-18 -1q-3 0 -5.5 5t-3.5 11t0.5 11t4.5 6t16.5 3t29.5 4.5t29.5 4.5t17.5 2z" />
    <glyph glyph-name="period" unicode="." horiz-adv-x="68" 
d="M12 37q0 11 6.5 19.5t15.5 8.5q10 0 16.5 -8.5t6.5 -19.5t-6.5 -19.5t-16.5 -8.5q-9 0 -15.5 8.5t-6.5 19.5z" />
    <glyph glyph-name="slash" unicode="/" horiz-adv-x="172" 
d="M140 430q3 5 8 5t9.5 -2t7.5 -6t2 -7t-10.5 -39t-24 -88t-31.5 -112.5t-32 -112.5t-25.5 -87t-11.5 -37q-2 -3 -7 -3.5t-10.5 1t-9.5 4.5t-3 8q1 3 11 39.5t25.5 89t32.5 113t32.5 112.5t25.5 86.5t11 35.5z" />
    <glyph glyph-name="zero" unicode="0" horiz-adv-x="269" 
d="M137 416q29 -1 51 -18t37 -45.5t22 -66.5t6 -80q-2 -37 -9.5 -74t-23 -66t-40 -47t-60.5 -18q-35 0 -58.5 18t-37 46.5t-18 64.5t-1.5 73t14 75t28.5 69t40.5 50.5t49 18.5zM139 381q-20 0 -38 -16t-31.5 -41.5t-22 -57t-10.5 -62.5t0.5 -61t12 -53.5t26.5 -38.5t44 -15
q27 -1 46 14t31 39t17.5 54.5t7.5 62.5q1 36 -3.5 67.5t-15 55t-26.5 37.5t-38 15z" />
    <glyph glyph-name="one" unicode="1" horiz-adv-x="204" 
d="M20 319q-9 -4 -15 5t1 17q3 4 16 12.5t27.5 17.5t26.5 16t15 8q8 5 18 4.5t11 -12.5q0 -4 -0.5 -31t-2 -65.5t-3 -83t-2.5 -82t-0.5 -62.5t3.5 -26q4 -1 14.5 -1t22 1t22 1t14.5 -1q8 -2 9.5 -13t-6.5 -13q-6 -2 -31.5 -3t-54.5 -2t-53.5 -1.5t-28.5 0.5t-6 5t-2.5 8.5
t1 8t4.5 3.5h12t19 0.5t17.5 2.5t7.5 6q0 3 1.5 27.5t3 59.5t3.5 75.5t3.5 75t2 57.5t-0.5 24q-2 1 -12 -4t-21 -12.5t-21.5 -14t-14.5 -8.5z" />
    <glyph glyph-name="two" unicode="2" horiz-adv-x="229" 
d="M44 327q-1 -4 -6 -5.5t-10.5 -1t-9.5 2.5t-4 6q1 4 4 18t11 30.5t23 31t40 20.5t47 -1.5t38 -23.5t24.5 -37.5t6.5 -44.5q-5 -40 -29.5 -66.5t-69.5 -52.5q-34 -19 -49.5 -45t-20 -50.5t-0.5 -43t10 -22.5t27 -5t43.5 -1t41 0.5l18.5 0.5q2 1 3.5 15.5t2.5 23.5q1 4 6 6
t10.5 1.5t10 -2.5t4.5 -5t-1 -19t-2 -34.5t-1.5 -34t-0.5 -18.5t-5 -3.5t-11.5 0t-11.5 2.5t-5 4q0 3 1 8.5t1 11v9.5t-1 4h-21t-42.5 -0.5t-45 -0.5t-27.5 2q-5 1 -13 8t-14.5 20t-10 30.5t0.5 40.5q3 21 9.5 37t17 30.5t25.5 27.5t35 27t35.5 25t25.5 21.5t15.5 23
t5.5 30.5q1 35 -20 55.5t-50 15.5q-48 -9 -61 -72z" />
    <glyph glyph-name="three" unicode="3" horiz-adv-x="236" 
d="M12 414q0 3 4 4t9.5 1.5t10 0.5t5.5 -1q2 -2 2 -12.5t3 -10.5q1 0 18 3t40 3.5t47 -4t40 -20.5q14 -14 20.5 -32t7.5 -35.5t-1.5 -33.5t-6.5 -26q-8 -19 -19.5 -34t-11.5 -17t12.5 -18t19.5 -37q4 -11 5.5 -27t-1.5 -33.5t-13 -34.5t-29 -28q-19 -12 -38.5 -13.5t-35 1
t-25.5 6t-10 1.5t-1 -8.5t-2 -14t-2 -14.5t-1 -10q0 -2 -4.5 -2.5t-10 1t-9.5 3.5t-4 4t1.5 18t3 35.5t3 36.5t2.5 21q2 9 13 5.5t13 -6.5q1 -1 0.5 -7t-1 -13t0 -12.5t2.5 -6.5q2 0 19 -4t37 -2.5t37.5 12t21.5 39.5q3 28 -2.5 45t-14.5 26t-19.5 12.5t-16.5 4.5t-18.5 2
t-26 1.5t-24 1t-13.5 0.5t-4 5t-1 10.5t1.5 10t4.5 4.5h70q14 -1 28.5 4.5t27.5 29.5q6 11 9 26t2.5 30t-5 29.5t-14.5 23.5q-9 9 -29 12t-40.5 2.5t-36 -3t-16.5 -4.5t-0.5 -10.5t1 -18.5t1 -19t0.5 -11t-4.5 -3t-10.5 -1t-11 1t-6 4t-1.5 19t-1 35t-1 35t-0.5 18z" />
    <glyph glyph-name="four" unicode="4" horiz-adv-x="260" 
d="M123 414q4 5 11.5 5t14 -3t12 -8.5t5.5 -11.5q0 -3 0.5 -19t0.5 -40.5v-55.5v-63l81 -7q3 0 3.5 -4t-1 -8.5t-4 -8t-6.5 -3.5q-3 0 -23.5 1t-48.5 3q0 -30 0.5 -58t1 -50t1 -35t1.5 -13q2 0 11 0.5t19.5 1t20.5 1.5t13 1t5.5 -4.5t2.5 -10t-2 -10t-6 -4.5t-27 -1.5
t-49 -3.5t-48.5 -3.5t-25.5 -0.5t-5 5.5t-3 9.5t0.5 8.5t4.5 3.5h11t17 1t16 2t9 3q1 1 1.5 14.5t0.5 35.5v50.5v58.5l-40 4t-36.5 3.5t-27 2.5t-12.5 2q-3 1 -7.5 3t-7.5 6t-3.5 9.5t4.5 13.5l11 16.5t20.5 32t25 39.5t25.5 39.5t21 32t12 17.5zM136 372q-1 0 -16 -21
t-32 -46.5t-31 -47.5t-12 -25q0 -1 8 -2t21 -2.5t29.5 -3.5t34.5 -3q0 29 -0.5 56.5t-1 48.5t-0.5 33.5v12.5z" />
    <glyph glyph-name="five" unicode="5" horiz-adv-x="257" 
d="M170 423q0 4 5 5.5t11 1.5t11 -2t5 -5v-21v-39.5t-0.5 -40t-0.5 -21.5t-4 -4.5t-9 -1.5t-9.5 1.5t-5.5 4.5q0 3 -1 15t-2 24.5t-2 23t-2 10.5t-20.5 0.5t-42.5 0.5t-41.5 -0.5t-17.5 -2.5v-14.5v-30v-38v-38t0.5 -30t2.5 -13.5t16.5 -2.5t36 -5.5t46 -9.5t45.5 -15.5
t35.5 -23.5t15.5 -32.5q2 -23 -10 -40.5t-30.5 -30t-41 -20.5t-42 -13.5t-33 -8.5t-14.5 -4q-3 -5 -1.5 -17.5t0.5 -17.5q0 -3 -4 -5t-9 -2t-9.5 1t-5.5 4t-2.5 19.5t-3 35.5t-2.5 35t-1 18q1 2 6 3.5t11 2t11 0t6 -2.5t1 -8.5t-0.5 -13.5t0 -13t2.5 -6t25 5.5t49.5 15.5
t47 25t18.5 35q-2 13 -16 22t-34.5 16t-44 11.5t-44 7.5t-35 4.5t-15.5 3.5q-5 5 -5.5 9.5t-0.5 13.5q0 3 -0.5 17t-0.5 33.5t-1 42t-1 42t-0.5 33t-0.5 16.5q0 8 5.5 10.5t14.5 4.5q4 1 25.5 1.5t45.5 0t43.5 -1t21.5 -0.5q3 2 3 7v13z" />
    <glyph glyph-name="six" unicode="6" horiz-adv-x="231" 
d="M9 377q-3 0 -4.5 4t-1 8.5t2.5 8.5t5 4t18 1t32.5 2t33 1.5t18.5 -0.5t5 -4.5t2.5 -8t-0.5 -8.5t-3 -5t-9 -1.5l-14 -1t-12.5 -1.5t-5.5 -2t-1.5 -19.5t-4 -47.5t-4.5 -64.5t-2 -69.5q8 14 20 30t28 27t35.5 14t42.5 -9q19 -10 25.5 -28t4 -39.5t-10.5 -43t-18 -39.5
q-9 -17 -22.5 -33t-28.5 -28t-31 -16.5t-31 1.5q-17 7 -26 25t-13.5 44t-4.5 58.5t1 70.5q2 75 5.5 120t0.5 47q-2 2 -13.5 1.5t-18.5 1.5zM91 39q13 -3 27.5 6.5t28.5 25t25 36t16 40t2.5 36t-15.5 25.5q-17 12 -34 4.5t-32 -23.5t-26.5 -36t-17.5 -34q2 -33 8 -55.5
t18 -24.5z" />
    <glyph glyph-name="seven" unicode="7" horiz-adv-x="217" 
d="M10 367q-4 2 -5.5 12.5t3.5 12.5q2 1 27 1t54 -0.5t53.5 -0.5t26.5 1q4 2 4.5 10.5t2.5 13.5q1 3 6 2.5t11 -2t10 -4.5t4 -5q0 -1 -6.5 -29t-16.5 -69.5t-21 -89t-21 -89t-16 -69t-5 -28.5t7 -1.5t13 -0.5t14 0.5t9 0.5t3 -5t1 -11t-1 -11t-2 -5q-2 0 -19.5 0.5
t-38.5 1.5t-39.5 2t-20.5 2q-4 2 -3.5 12t5.5 12q7 3 22 3t18 2q0 1 6 25t14.5 59.5t18.5 77.5t18 77.5t13.5 59.5t5.5 25t-11.5 1.5t-28.5 1t-36.5 1t-36.5 1t-29 1t-13 1.5z" />
    <glyph glyph-name="eight" unicode="8" horiz-adv-x="294" 
d="M94 409q25 10 47 9t39.5 -10t29.5 -25.5t18 -36.5q7 -24 -3 -57.5t-43 -59.5q35 -7 59.5 -27t31.5 -46q14 -49 -13 -86t-78 -56q-25 -9 -52 -12.5t-50.5 2t-42 20t-27.5 41.5q-14 42 0.5 76t46.5 57q-19 7 -31 22t-17 33q-5 16 -2 38.5t13.5 45.5t29 42.5t44.5 29.5z
M122 198q-23 -6 -41.5 -17t-30.5 -27t-16 -35.5t4 -41.5q7 -20 21.5 -30.5t33 -14t39.5 -0.5t41 10q17 6 32.5 16t26 23.5t14.5 30t-1 34.5q-4 13 -15.5 25.5t-28 20t-37 10t-42.5 -3.5zM131 229q3 1 9 5q17 9 30 23t20.5 30t9 32.5t-3.5 30.5q-6 15 -17 24.5t-24.5 13
t-28.5 1t-29 -9.5q-16 -8 -29 -22.5t-21.5 -31.5t-11.5 -34t1 -30q5 -20 22 -31.5t42 -9.5q4 2 8 3t9 3z" />
    <glyph glyph-name="nine" unicode="9" horiz-adv-x="260" 
d="M26 181q-14 14 -19.5 34.5t-2 43.5t16 46.5t34.5 44.5q21 20 44 27t42 7q22 0 43 -7q1 10 3 21q2 9 2.5 19t2.5 19q1 6 6 8t10.5 1t9.5 -3.5t4 -5.5q-1 -4 -3 -36t-5 -77t-6 -96.5t-6 -95t-4 -72t0 -28.5q1 1 6.5 1.5t12.5 0.5h13.5h10.5t6.5 -4.5t3 -10.5t-1 -10.5
t-5.5 -4.5q-3 0 -21 -1.5t-38.5 -3t-38 -2.5t-20.5 -1t-5.5 4.5t-3.5 10t0 10.5t5 6t10.5 1t13.5 1t12.5 2t7.5 3q1 1 2 10.5t2 24.5t2 33t2 37q3 44 6 99q-27 -32 -53 -51q-23 -17 -50 -22.5t-51 17.5zM184 332q-1 8 -11 14.5t-25 8.5t-33.5 -3t-36.5 -21
q-18 -17 -28.5 -36t-14 -37t-0.5 -33t12 -23q15 -13 39 -3t46.5 32t38 50t13.5 51z" />
    <glyph glyph-name="colon" unicode=":" horiz-adv-x="81" 
d="M12 159q0 11 6.5 19.5t15.5 8.5q10 0 16.5 -8.5t6.5 -19.5t-6.5 -19.5t-16.5 -8.5q-9 0 -15.5 8.5t-6.5 19.5zM16 32q0 11 6.5 19.5t16.5 8.5q9 0 15.5 -8.5t6.5 -19.5q0 -12 -6.5 -20t-15.5 -8q-10 0 -16.5 8t-6.5 20z" />
    <glyph glyph-name="semicolon" unicode=";" horiz-adv-x="81" 
d="M18 26q-3 6 1.5 10.5t11 7t13.5 3t10 -2.5q2 -3 5.5 -13t6 -23t3.5 -27t-2 -26t-8 -22t-11 -17.5t-11 -12t-7 -4.5q-4 -2 -11.5 7t-5.5 14q2 6 12.5 15.5t12.5 23.5q0 7 -2 16.5t-5 19t-6.5 18t-6.5 13.5zM12 159q0 11 6.5 19.5t15.5 8.5q10 0 16.5 -8.5t6.5 -19.5
t-6.5 -19.5t-16.5 -8.5q-9 0 -15.5 8.5t-6.5 19.5z" />
    <glyph glyph-name="less" unicode="&#x3c;" horiz-adv-x="202" 
d="M151 263q4 4 10 1.5t10.5 -7.5t7 -11t0.5 -7t-13 -10t-27 -22t-33.5 -27.5t-32.5 -27t-25 -20.5t-9 -7l11.5 -7.5t28 -19.5t36 -25.5t36.5 -26t28.5 -20.5t13.5 -9q3 -1 1.5 -6.5t-4.5 -10.5t-7 -8.5t-7 -0.5q-2 2 -14.5 10.5t-30 21t-37.5 27t-37.5 27t-30 21.5
t-14.5 11q-7 6 -9.5 16t9.5 19q5 5 26 22.5t44.5 37.5t43.5 37.5t25 21.5z" />
    <glyph glyph-name="equal" unicode="=" horiz-adv-x="240" 
d="M217 253q4 0 7 -4.5t4.5 -10.5t1 -11t-3.5 -6q-2 0 -18 -2t-38.5 -5t-49 -6t-49.5 -5t-39 -3.5t-18 -1.5q-3 1 -5.5 6t-3.5 11t0 11t4 6q2 0 17.5 1.5t38 4t48 5t48 4.5t38 3.5t18.5 2.5zM217 200q4 0 7 -4.5t4.5 -10.5t1 -11t-3.5 -6q-2 -1 -18 -2.5t-38.5 -4.5t-49 -6
t-49.5 -5t-39 -3.5t-18 -1.5q-3 1 -5.5 6t-3.5 11t0 11t4 6q2 0 17.5 1.5t38 4t48 5t48 4.5t38 3.5t18.5 2.5z" />
    <glyph glyph-name="greater" unicode="&#x3e;" horiz-adv-x="201" 
d="M36 -6q-5 -4 -10.5 -1t-10 8t-6.5 11t1 8q2 1 13.5 9.5t27.5 20t35 25.5t34.5 25.5t25.5 19l10 7.5q-1 -1 -11.5 7.5t-26.5 20.5t-35 27t-35.5 28t-28 22t-12.5 10q-3 1 -1.5 6t4.5 10.5t7.5 8.5t7.5 0q2 -2 14 -11.5t29 -22.5t36 -28.5t36 -29t29 -23t14 -11.5
q6 -7 8.5 -17t-9.5 -19q-4 -3 -15.5 -11.5t-27 -20t-32 -24.5t-31.5 -24.5t-26 -20t-14 -10.5z" />
    <glyph glyph-name="question" unicode="?" horiz-adv-x="254" 
d="M21 341q-5 -2 -9 2.5t-6 10.5t-1.5 11.5t4.5 7.5q3 1 18 5t36.5 7.5t47.5 5t50.5 -3.5t44.5 -17.5t31 -36.5q9 -21 3 -39.5t-21.5 -36t-36 -32.5t-39.5 -27.5t-33.5 -23t-17.5 -17.5q-3 -8 -0.5 -16t7 -14t10 -10t8.5 -5q2 -1 -0.5 -6t-7 -10t-9.5 -8.5t-9 -0.5
q-3 3 -11 12t-14 21t-8 26t6 28q5 9 19.5 20t32.5 23t36.5 25t33 26.5t21 27t1.5 26.5q-11 27 -39.5 34t-59.5 4t-57 -10t-31 -9zM111 21q0 9 7 15.5t18 6.5q10 0 17.5 -6.5t7.5 -15.5q0 -10 -7.5 -16.5t-17.5 -6.5q-11 0 -18 6.5t-7 16.5z" />
    <glyph glyph-name="at" unicode="@" horiz-adv-x="411" 
d="M259 188q0 -5 -5.5 -10t-11.5 -7q0 -26 1.5 -50.5t6 -43.5t12.5 -30t21 -8q24 4 44.5 27.5t30.5 58.5t6.5 78.5t-26.5 87.5q-21 41 -53 64.5t-67.5 28t-70.5 -11t-63 -52.5q-25 -33 -36.5 -71.5t-11.5 -76.5t11.5 -73t33 -59.5t52 -35t69.5 -1.5q3 1 6.5 -3t5 -9.5
t0 -10.5t-7.5 -7q-44 -10 -80.5 0.5t-62.5 36.5t-41 64.5t-17 83t10 91.5t41 91q28 44 71 63t87.5 14t85.5 -32.5t67 -76.5q26 -50 29.5 -103t-10.5 -97t-42 -73t-64 -31q-14 -1 -24.5 5.5t-18 18.5t-13 28t-8.5 35q-7 -10 -17 -17t-24 -5q-15 2 -27 11t-19.5 21.5t-11 28.5
t-1.5 32q1 20 10.5 34t21.5 22.5t24.5 11.5t20.5 2q7 -1 16 -5q1 26 2.5 43.5t1.5 20.5q0 6 5 8t11.5 1t12 -3.5t6.5 -5.5q1 -2 -1 -26.5t-4 -58.5q7 -5 11.5 -10t4.5 -8zM209 192q-10 7 -24 7q-16 -2 -26 -14.5t-11 -23.5q-1 -6 -1.5 -15t2 -17.5t8.5 -15.5t18 -10t21 10
t14 27q-1 14 -1 26.5v25.5z" />
    <glyph glyph-name="A" unicode="A" horiz-adv-x="232" 
d="M136 361q-3 1 -5.5 5t-3 9t1 9.5t5.5 6.5q4 1 16 2t25 1t24.5 0.5t15.5 0.5q3 1 5 -3.5t2.5 -10.5t-1 -11.5t-4.5 -5.5q-6 -2 -10.5 -1t-5.5 -4v-30.5v-73.5t0.5 -94.5t1.5 -93.5t2 -72t2 -29q3 0 11 1.5t12 0.5q2 0 3 -5t1 -10.5t-1 -10.5t-4 -5t-15 -0.5t-26 -1
t-26 -1.5t-16 -1t-6 3.5t-2 8t1.5 8.5t4.5 5q6 2 14.5 2.5t10.5 2.5q1 1 1.5 7t0.5 12.5t-1 12t-2 5.5h-9.5t-19.5 0.5t-28 3.5t-34 10q-35 13 -57 51.5t-16 113.5q3 37 13.5 66t26.5 48.5t35 30t39 10.5q12 0 20.5 -3t14 -6.5t8 -6t2.5 -1.5q1 1 1.5 8t0.5 14.5t-0.5 14
t-1.5 7.5q-2 2 -11 1t-16 -1zM167 40q1 0 1 18v44t-0.5 57t-1.5 57.5t-2 44.5t-1 20q-2 5 -12 11t-31 7q-11 1 -25.5 -6t-27.5 -22t-22.5 -39.5t-10.5 -58.5q-2 -35 2.5 -57t13 -35.5t19 -21t21.5 -12.5q10 -5 23 -7t24.5 -2t20 1t9.5 1z" />
    <glyph glyph-name="B" unicode="B" horiz-adv-x="286" 
d="M12 285q-5 1 -7 6t-1.5 11t3.5 10.5t8 4.5t19 -1.5t34 0.5q1 78 11.5 148.5t31.5 114.5q18 37 44.5 46t52 -3t45 -40.5t22.5 -66.5q2 -23 -2.5 -48t-14 -48.5t-23.5 -44t-31 -35.5q-26 -23 -52.5 -35.5t-49.5 -17.5q-1 -18 -1 -34v-33q9 17 24 31t39 16q26 2 45 -11
t31.5 -34t18.5 -46t6 -47q1 -27 -4.5 -52.5t-18 -46.5t-32 -35.5t-47.5 -20.5q-18 -4 -32 -2.5t-23 4.5q1 -35 4 -37q1 -1 9 -0.5t18 1t19.5 2t14.5 1.5t8 -5t3 -11t-2 -11t-7 -5t-21 -2t-35 -4.5t-35 -4t-19 -0.5t-5 5t-2.5 8.5t0 9t2.5 5.5q5 3 10.5 4t6.5 4t-4.5 89
t-4.5 257q-22 -2 -37 0t-19 4zM103 348q-1 -7 -1 -13.5v-13.5q20 5 41 15.5t41 28.5q26 24 40 52t18 55.5t-2 53t-21 44.5t-34 22.5t-36.5 -19t-30.5 -76t-15 -149.5zM105 7q9 -2 21 -2.5t29 3.5q33 9 54.5 38.5t20.5 76.5q0 23 -5 44t-13.5 36t-21 23t-27.5 6
q-14 -2 -24 -15.5t-17.5 -32.5t-12 -40.5t-7.5 -39.5z" />
    <glyph glyph-name="C" unicode="C" horiz-adv-x="200" 
d="M145 348q0 6 6 9t12.5 3t12.5 -2.5t6 -6.5t-0.5 -26t-0.5 -46.5t-0.5 -45t-0.5 -22.5t-4.5 -4t-9.5 -2.5t-10 1t-5 6.5q-1 5 -2 20t-5.5 30t-13.5 26t-24 10q-30 -3 -51 -42.5t-19 -101.5q1 -31 7 -57.5t15 -46t20 -30.5t22 -12q16 0 27.5 11t18.5 26t10 30t3 21
q0 7 4.5 9.5t10.5 2.5t10.5 -2.5t4.5 -5.5t-1 -24.5t-2 -47.5t-2 -48.5t-1 -26.5t-4.5 -6.5t-10 -3t-10 1.5t-4.5 8v13t0.5 16t1 15t0.5 10q-2 -3 -5.5 -9t-11 -11.5t-18.5 -9.5t-26 -4q-16 0 -32.5 13.5t-29.5 37.5t-21.5 57t-8.5 73q1 89 30 132t74 44q22 1 30 -6.5
t10 -11.5q-1 5 -1.5 15t-0.5 21z" />
    <glyph glyph-name="D" unicode="D" horiz-adv-x="224" 
d="M84 474q-3 0 -6 4.5t-3.5 10t0.5 10.5t5 6t22.5 4t39.5 6.5t39.5 6.5t23.5 4q4 1 7 -4.5t3.5 -12.5t-1 -13t-4.5 -6q-7 0 -20.5 -1.5t-14.5 -4.5q0 -1 2 -40.5t5.5 -99t8 -128t8.5 -127.5t7.5 -98t4.5 -39q4 1 18 3.5t21 4.5q3 1 4.5 -4t1.5 -11t-1 -11.5t-4 -5.5
t-18.5 -3.5t-33.5 -8t-34 -8t-20 -3.5q-5 0 -8 4t-4 9t-0.5 9.5t3.5 6.5q3 1 10 3l14 4t12.5 3.5t6.5 3.5q1 1 0 16t-2.5 32.5t-3 33t-1.5 17.5q0 -4 -3.5 -15.5t-10 -24.5t-16.5 -24t-25 -13q-16 -2 -34 9.5t-34 38t-28 69.5t-16 104q-5 61 2 97.5t18.5 55.5t25 25t21.5 7
q20 3 35 -4t25.5 -16t16 -16.5l5.5 -7.5l-0.5 11t-2 27t-2.5 35t-2.5 35t-2.5 27t-1 12t-8 0t-18.5 -2t-20 -2t-12.5 -1zM154 275q0 5 -6 17t-16 23.5t-24 20t-30 5.5t-25.5 -18.5t-13.5 -37t-4 -46.5t2 -47q4 -44 11.5 -80t17.5 -61t22 -38t25 -10t22.5 27t15 61.5t6.5 85
t-3 98.5z" />
    <glyph glyph-name="E" unicode="E" 
d="M97 30q10 -4 20 -3.5t18 3t13.5 6.5t5.5 7q0 7 -0.5 15.5t-1.5 18.5q0 5 4.5 7.5t10 2.5t10.5 -2.5t5 -6.5t3.5 -20t7 -34t7 -33.5t4.5 -19.5q0 -4 -4 -8t-10 -6t-11 -2t-6 5q-1 4 -2.5 11t-3.5 13.5t-3.5 11.5t-2.5 5t-7 -2.5t-15.5 -5.5t-22 -3.5t-26.5 4.5t-29.5 17.5
t-28 35t-21 57t-8.5 83.5q-1 42 7.5 77t23 60.5t34 40.5t41.5 17t39.5 -7.5t29 -25.5t17 -35.5t5.5 -38.5q0 -21 -7.5 -42.5t-22 -39.5t-36 -31t-49.5 -17q-27 -4 -46 -3q3 -32 9.5 -52.5t15 -33t17 -18t16.5 -8.5zM77 175q41 9 65.5 37t24.5 60t-14 53t-43 21
q-11 0 -24.5 -10.5t-25 -30.5t-18.5 -50.5t-6 -70.5q0 -8 1 -11q8 -2 18 -1.5t22 3.5z" />
    <glyph glyph-name="F" unicode="F" horiz-adv-x="288" 
d="M72 181l-2 24q-2 29 -3 65.5t0 74t5.5 73.5t14 64.5t25.5 46t40 18.5q33 1 60.5 -20t44.5 -56t21 -79.5t-11 -90.5q-13 -39 -32 -66.5t-41 -45.5t-45 -27.5t-43 -12.5q2 -24 5 -46.5t6 -42.5q23 6 49 5.5t52 -16.5q28 -17 43.5 -47t15 -60t-17.5 -54t-53 -31
q-23 -5 -41 6.5t-32 34t-24 53t-17 64.5l-10 -5q-3 -2 -7 0.5t-7 6t-4.5 8.5t0.5 9q4 6 22 15q-4 26 -7 50.5t-5 47.5q-4 0 -5 1q-30 3 -46 9.5t-18 13.5q-2 8 3.5 17t12.5 7q10 -5 23.5 -9t24.5 -5h3zM235 310q16 50 12 87.5t-18 62.5t-33.5 37.5t-34.5 13.5t-28 -10.5
t-21.5 -42.5t-11.5 -86t1 -140q0 -13 0.5 -25t1.5 -23q15 3 33.5 10t36.5 21.5t34.5 37t27.5 57.5zM197 -110q21 3 33 19.5t13.5 37.5t-9 42t-34.5 33q-23 11 -42.5 12t-34.5 -4q14 -72 33.5 -107t40.5 -33z" />
    <glyph glyph-name="G" unicode="G" horiz-adv-x="263" 
d="M178 358q-2 1 -8 1.5t-14 0.5h-15h-10t-4 4t-0.5 9t3 9.5t5.5 5.5t21 2t39 2t38.5 2t19.5 1q1 0 2.5 -4t2 -9t-0.5 -9t-4 -4q-6 0 -18.5 -2.5t-12.5 -5.5q-2 -41 0.5 -89t7.5 -99.5t10.5 -103.5t8.5 -99q12 1 20 1h10q3 0 4.5 -5.5t2 -12t-1 -12t-5.5 -5.5h-28
q3 -63 -2 -107.5t-26 -60.5q-25 -18 -52 -14t-47.5 22.5t-30.5 48t1 61.5q6 19 19.5 32.5t30.5 23t36 15.5t37 9q-2 26 -5 49.5t-5 42.5q-3 22 -6 41q-9 -25 -23 -43q-12 -16 -31.5 -27.5t-48.5 -7.5t-46.5 22.5t-25.5 44.5t-7 57t8 60q11 46 35 71t48.5 37t43.5 15t20 4
q3 2 5 13t-1 13zM180 299l-16 -2.5t-37 -12t-41 -29.5t-28 -56t-6.5 -63t9 -45t18 -27.5t20.5 -10.5q10 -2 25.5 3t30.5 21t26 45.5t12 78.5q2 51 -4.5 74t-8.5 24zM129 -123q-7 -25 -2 -43.5t17 -29.5t28.5 -14t32.5 3q7 3 11 15.5t5.5 32t0.5 43.5t-2 50q-29 -5 -56 -16.5
t-35 -40.5z" />
    <glyph glyph-name="H" unicode="H" horiz-adv-x="323" 
d="M281 180q8 -21 12.5 -51.5t6.5 -63.5t2.5 -66t0 -59t-1 -42.5l-0.5 -16.5q1 0 6 0.5t11.5 0.5h13.5h11q4 -1 6.5 -5t2.5 -9t-2.5 -10t-8.5 -6q-6 -2 -23.5 -4t-36.5 -4.5t-35 -3.5t-20 -1q-4 1 -6.5 7t-3 12.5t1 12.5t5.5 7q4 0 11.5 0.5l15 1t13.5 1.5t6 3q0 1 0.5 23.5
t0 55t-2 70.5t-5.5 70.5t-11 53.5t-18 21q-17 -1 -31 -11t-25.5 -26t-19.5 -36t-13 -39t-8 -34.5t-5 -28.5q2 -40 4 -40h28q2 0 4.5 -5t3.5 -11t0 -11t-5 -5t-16 -1t-25.5 -1.5t-25.5 -1.5t-16 -1t-5.5 5t-1 11.5t1.5 12t3 5.5q3 2 10 1t9 1q0 1 -1 34t-3.5 83t-5.5 108
t-6 108q-20 -3 -35 -3.5t-21 -0.5q-5 0 -7.5 4.5t-3.5 10.5t1 11t7 6h19t38 3l-1 23q-3 47 -3 98t9.5 95t33.5 74.5t71 35.5q47 6 76.5 -22.5t37.5 -73t-7.5 -97t-58.5 -94.5q-29 -27 -61 -42t-61 -22l8 -189q6 15 14 31t20 28q14 15 31.5 26.5t34.5 15t32 -3.5t23 -29z
M222 394q35 36 46.5 77.5t4.5 76t-28 56t-50 18.5t-46.5 -22.5t-25.5 -54t-9 -82.5t2 -108v-11t1 -11q25 7 52 21t53 40z" />
    <glyph glyph-name="I" unicode="I" horiz-adv-x="208" 
d="M172 426q2 0 3.5 -5.5t1.5 -12t-0.5 -11.5t-2.5 -5t-12 -0.5t-21.5 -1.5t-21 -2.5l-9.5 -1.5q-1 -1 -1.5 -32.5t-1.5 -79t-2 -102.5t-1.5 -102t0 -78.5t1.5 -31.5h15t29 -0.5t29.5 -0.5h16.5q2 0 3.5 -4.5t2 -9.5t-1 -9.5t-4.5 -5.5q-2 -1 -15.5 -1.5t-32.5 -0.5
t-41 -0.5t-41 -0.5h-32.5h-15.5q-3 0 -4.5 4.5t-1 10.5t3 10.5t5.5 4.5h11t16.5 0.5t15.5 1.5t9 2l0.5 18.5t0.5 48.5v68v78q-1 93 -2 211q-16 1 -29 1h-22t-13 1q-5 1 -5 11.5t4 12.5q1 0 13.5 1.5t30.5 3t38.5 3.5t38.5 3.5t30.5 2.5t14.5 1z" />
    <glyph glyph-name="J" unicode="J" horiz-adv-x="270" 
d="M254 426q3 0 5.5 -4t4 -9.5t1 -10t-3.5 -5.5q-3 0 -12 -1.5t-19 -3.5t-18.5 -4t-9.5 -3t0 -20.5t2.5 -50t4 -70t4.5 -81.5q28 7 47 10t24 4q4 1 7.5 -2t4.5 -7.5t0.5 -9t-3.5 -5.5q-5 -3 -27.5 -8.5t-51.5 -13.5q0 -2 0.5 -5t0.5 -5q1 -47 0 -93t-10.5 -82.5t-29.5 -61
t-56 -27.5q-31 -3 -53.5 12.5t-37 38.5t-20.5 49t-3 45q5 38 38.5 73t92.5 61q11 5 21.5 8.5t21.5 7.5q-2 44 -4.5 85t-4.5 72.5t-3.5 50t-2.5 18.5t-11.5 -1.5t-24 -3t-26 -3t-15.5 -1.5q-6 -1 -6.5 10t2.5 14q1 1 13.5 3.5t30.5 6t39.5 7.5t40.5 7.5t32 6t15 2.5zM143 106
q-15 -7 -32 -17.5t-32 -24t-26 -30.5t-13 -36q-3 -20 2 -40t15.5 -36t26 -25.5t35.5 -6.5q20 2 33 20t20 48.5t8.5 71.5t-0.5 90v1q-10 -4 -19.5 -7.5t-17.5 -7.5z" />
    <glyph glyph-name="K" unicode="K" horiz-adv-x="344" 
d="M353 -83q6 0 8 -10.5t-4 -12.5q-3 -1 -15.5 -4.5t-27 -7.5t-27.5 -7t-16 -3t-6 4t-4.5 9.5t-1 10.5t3.5 6q10 4 23 7q-4 44 -17.5 86.5t-34.5 68.5q-12 14 -27.5 23t-35.5 10q-12 -3 -25 -3q2 -73 5.5 -106.5t3.5 -34.5t10 -1t15 -2q3 0 4 -5t0.5 -10.5t-2 -10t-2.5 -4.5
q-2 0 -16 -0.5t-31 -1.5t-31.5 -1h-17.5t-4.5 5.5t-1.5 12t1 11.5t3 4q1 -1 7.5 -1t13.5 0.5t12.5 1t5.5 2.5q0 1 -1.5 24.5t-3.5 64t-4 95t-2 117.5q0 13 -0.5 25.5t0.5 25.5q-48 -12 -99 -6q-3 0 -4 5t0.5 11t4.5 10.5t7 4.5q1 0 9.5 -0.5t21 0t28 2.5t32.5 7q1 50 4 96
t9 84t16 67.5t24 47.5q17 21 41.5 26t46.5 -6.5t37 -39t15 -69.5t-15 -77t-36 -62t-44.5 -46t-40.5 -30q-13 -8 -24 -13v-64q0 -16 0.5 -30t0.5 -28q7 14 16 28.5t21 28.5q35 38 68.5 45.5t56.5 -11.5q12 -9 15.5 -24.5t-1 -34t-17.5 -39.5t-34 -41q-8 -7 -18 -14.5
t-23 -14.5q18 -8 33 -28q10 -14 20 -33t17.5 -42t13 -48t7.5 -49q28 7 34 -1zM149 357q22 15 43 32t38 39t28 50t13 66q2 33 -8 52.5t-25 26.5t-30 4t-24 -15q-14 -20 -25.5 -83.5t-14.5 -174.5zM161 129h6.5t18.5 3.5t27.5 11.5t33.5 25t27.5 32t13 27t2 20.5t-5.5 12.5
q-7 9 -30 3.5t-49 -36.5q-13 -15 -21.5 -32.5t-14 -32.5t-7 -24.5z" />
    <glyph glyph-name="L" unicode="L" horiz-adv-x="416" 
d="M10 299q-4 2 -5 7t-0.5 10t3.5 9t8 4t14.5 -3.5t26 -5.5t42 -1t61.5 10q0 41 3 85.5t12 81t25.5 61.5t43.5 27q33 3 57.5 -11t40 -35.5t22 -45t4.5 -40.5q-3 -20 -13.5 -41.5t-31 -41.5t-52.5 -37t-77 -29v-41v-73.5t-2 -66.5l272 15q3 0 5.5 -4t3.5 -9t0 -10t-5 -7
l-277 -19q-5 -100 -19 -152t-43 -57q-21 -3 -40 6.5t-33.5 28t-21.5 44.5t-4 55q7 53 41.5 79t87.5 29q2 38 2 73v61q0 9 -0.5 19t-0.5 21q-36 -7 -62 -8.5t-43.5 0.5t-28 5.5t-16.5 6.5zM335 452q3 20 -3.5 38.5t-19 33t-28.5 22.5t-31 7q-13 -1 -23.5 -9.5t-17.5 -32
t-11.5 -65t-5.5 -108.5q126 38 140 114zM120 -87q9 1 15 15.5t10.5 38.5t7 55t4.5 64q-34 -3 -54.5 -17t-29.5 -33.5t-8.5 -42t8 -40.5t20 -29.5t27.5 -10.5z" />
    <glyph glyph-name="M" unicode="M" horiz-adv-x="480" 
d="M11 436q-3 0 -4.5 4t-2.5 9.5t0 10t4 5.5t22 5.5t41.5 9t41.5 8t22 3.5q6 0 9 -11t-2 -14q-2 -1 -11 -4t-19 -6.5t-17.5 -6.5t-7.5 -4t1 -12.5t2.5 -29.5t4 -40.5t4.5 -45.5q5 -55 12 -124q10 54 25 98q6 18 14 36t17.5 32.5t21 24t24.5 11.5q14 2 25 -15.5t18 -44.5
t11.5 -59.5t7.5 -61t4 -48t1 -21.5q0 3 2.5 24t7 51t12 64.5t17 64t22.5 50t29 23.5q12 2 23 -17t20 -51.5t16.5 -74t13.5 -85t10.5 -85.5t8.5 -74.5t6 -52.5t4 -19l20 4q8 2 15 3t11 2q4 0 5.5 -4.5t2 -10t-0.5 -10.5t-3 -5t-20 -4t-39 -8.5t-39 -8.5t-19 -4q-2 0 -4.5 3
t-4.5 7.5t-2.5 9t2.5 6.5q3 3 10 5.5t14.5 4.5t13 3.5t4.5 2.5q0 1 -3.5 32t-9 77t-12.5 99.5t-14.5 99t-15 76t-13.5 30.5q-9 0 -18 -23.5t-17 -60t-15 -78.5t-12.5 -79t-9 -62t-3.5 -27q0 -3 -5 -5.5t-11 -3.5t-11.5 1t-6.5 8q-1 4 -3.5 30.5t-6.5 63t-8.5 77t-10 74.5
t-11.5 55t-12 18q-14 -8 -27 -34.5t-23 -61.5t-17.5 -74t-12.5 -71.5t-7 -53.5t-1 -21q2 0 8 0.5t12.5 1l13 1t9.5 0.5t4 -5t1 -11t-1 -11.5t-3 -5.5q-2 -1 -20 -2.5t-39.5 -3t-40 -2.5t-22.5 -1t-5.5 4.5t-1 10.5t2 10.5t4.5 4.5t9 0.5t13 1.5t12.5 2t7.5 1q2 1 1 31
t-4 74.5t-7.5 96t-9 96t-8.5 73.5t-6 29q-1 0 -6.5 -1t-12 -2t-12.5 -1.5t-9 -0.5z" />
    <glyph glyph-name="N" unicode="N" horiz-adv-x="352" 
d="M15 378q-3 1 -6 5.5t-4.5 10t-1 10.5t3.5 7q3 1 21 6t38 10t37 9t19 4t4.5 -4.5t4 -9.5t1.5 -10t-2 -5t-8 -2t-12.5 -4.5t-12 -5t-5.5 -4.5q0 -1 1.5 -11t4 -26.5t6 -37t6.5 -41.5q8 -50 19 -112q2 43 8 83q5 35 16 72t31 63q18 23 37 33.5t36.5 10t31.5 -12t22 -32.5
t12 -60.5t6 -86.5t2 -96t-0.5 -88.5t-1 -65t0.5 -25.5q2 0 7.5 -1t16.5 -2q5 -1 6.5 -6t1 -10.5t-3 -10t-4.5 -4.5t-15.5 -1t-29.5 -2t-29.5 -1t-16.5 2t-4.5 7.5t-1.5 11.5t1.5 11t4.5 5q6 1 16 0.5t15 0.5q1 0 2 25.5t1.5 64.5t0 87t-2.5 93t-6.5 82.5t-10.5 56.5
q-8 22 -24 23t-33 -16t-32.5 -52t-22.5 -85q-5 -37 -7.5 -72.5t-3 -63.5t0.5 -45.5t2 -18.5t5 0t8.5 2.5t8 2.5t5.5 1q5 -1 7 -14.5t0 -17.5q-1 -2 -14 -5t-28.5 -6.5t-28.5 -6t-14 -2.5q-3 -1 -8 8.5t1 15.5q3 2 11.5 5t10.5 5q1 0 -3.5 26.5t-12 66t-16.5 85.5t-17 85.5
t-14 65.5t-7 27q-3 1 -16 -4t-21 -3z" />
    <glyph glyph-name="O" unicode="O" horiz-adv-x="285" 
d="M137 440q33 2 58 -18t41.5 -55t24 -80.5t6.5 -93.5q-2 -47 -13.5 -88.5t-32.5 -73t-49.5 -49t-63.5 -15.5q-36 2 -57 28t-31.5 63t-13 79t-1.5 76q1 37 10.5 77t26.5 72.5t41 54t54 23.5zM136 405q-15 -1 -31.5 -13.5t-31 -37t-24 -60t-11.5 -82.5t2 -86t14 -67t25 -43.5
t35 -15.5t39.5 9t36 31t28 59t15.5 94q3 53 -5.5 93t-23.5 66.5t-33.5 40t-34.5 12.5z" />
    <glyph glyph-name="P" unicode="P" horiz-adv-x="244" 
d="M104 423q6 -1 8 -12.5t-4 -13.5q-3 -1 -10.5 -2t-14.5 -2t-13 -3t-6 -4q0 -1 0.5 -15.5t0.5 -37.5q11 26 27 44t39 20q24 2 44 -24.5t33 -68.5t17.5 -92t-3 -95t-28 -78.5t-56.5 -40.5q-22 -4 -37 4t-26 23q1 -28 1.5 -52t1.5 -42t1.5 -28.5l0.5 -10.5h9.5h21t21.5 0.5
t13 0.5t4.5 -5t2 -11.5t0 -11.5t-2.5 -5h-22h-44h-44.5t-22.5 1q-2 0 -2.5 4t-1 8.5t0 9t2.5 5.5t6.5 1h9.5t9.5 0.5t5.5 1.5v22.5t-1 56.5t-2.5 79.5t-2.5 90.5t-2.5 90t-3 78.5t-2.5 55.5l-1 21q-2 0 -9.5 -1.5t-10.5 -0.5q-2 0 -4 4.5t-3 10t-1 10.5t3 5q3 1 17.5 3
t31.5 3.5t31.5 2.5t17.5 1zM72 187v-16.5t1.5 -32.5t5 -39.5t10.5 -37t18 -25.5t28 -5q24 6 37.5 33t18 64t1.5 78t-11.5 75.5t-21.5 56.5t-28 20q-13 -1 -23 -13t-16.5 -29t-10.5 -37t-6.5 -38.5t-3 -33t0.5 -20.5z" />
    <glyph glyph-name="Q" unicode="Q" horiz-adv-x="277" 
d="M111 415q26 6 53 -11.5t48.5 -49t35 -73.5t13.5 -86q0 -50 -8 -94t-30 -75l17.5 -35t15 -30.5t11 -22.5t4.5 -10q1 -2 -2 -6.5t-7.5 -8t-9 -6t-6.5 -0.5q-1 1 -5.5 9.5t-10.5 21.5t-14 29.5t-17 34.5q-25 -18 -62 -22q-37 -3 -62.5 16t-41 50.5t-22.5 71t-7 78.5t7 76
t20.5 67t33.5 50t46 26zM137 132q-1 2 2 5t7.5 5.5t9 3t6.5 -1.5t14.5 -27t29.5 -57q29 48 25 132q-3 45 -15 82t-29 62t-35.5 38t-34.5 10t-30.5 -18t-25 -40t-17 -58.5t-6.5 -72.5q0 -44 7.5 -78.5t20.5 -58t30.5 -36t35.5 -10.5q29 1 52 21q-9 19 -17.5 36.5t-15 31
t-10.5 22t-4 9.5z" />
    <glyph glyph-name="R" unicode="R" horiz-adv-x="339" 
d="M10 447q-2 0 -3.5 4t-2.5 8.5t-1 9t1 5.5t9.5 3t18 3.5t18 2.5t10.5 1q5 0 10 -2.5t7 -19.5q0 -2 0.5 -7t1.5 -13q14 5 31 8.5t38 3.5q65 0 99 -30.5t37 -73.5q1 -30 -17.5 -56t-42 -45.5t-44.5 -31.5t-23 -13l198 -47q6 0 8 -5t1 -10.5t-3.5 -10t-4.5 -4.5l-233 53
q-4 0 -10.5 -4t-15.5 -9q2 -31 4 -58.5t3.5 -48.5t3 -33t2.5 -12h10.5t19 -0.5t19.5 -1.5t13 -2q3 0 3.5 -5.5t0 -11.5t-2 -11t-3.5 -5q-3 0 -22 0.5t-40.5 2t-40 2.5t-20.5 1t-3 4.5t-0.5 10t1 10t1.5 5.5t5.5 1h9.5h9h5l-0.5 11t-2 30.5t-3 45.5t-3.5 55q-16 0 -27 11
q-6 6 -6 14t4.5 15.5t11 13.5t12.5 9q-3 42 -5.5 83.5t-5 73.5t-4.5 52.5t-3 20.5t-5.5 -0.5t-10 -1l-11 -1t-6.5 -0.5zM93 222q8 -2 13 -3.5t9 -1.5q3 0 25 11.5t47 30t45 43t19 50.5q-2 35 -30 52t-73 17q-19 0 -35.5 -4.5t-30.5 -11.5q2 -35 5 -83.5t6 -99.5z" />
    <glyph glyph-name="S" unicode="S" horiz-adv-x="369" 
d="M255 441q3 2 8.5 0t11 -6.5t9 -9t2.5 -6.5q-2 -2 -10.5 -13.5t-19 -24t-19 -23.5t-10.5 -12q-2 -2 -6 0t-8.5 5.5t-7.5 7.5t-2 6q1 3 3.5 7l5 8t4 7t0.5 3t-10 3t-24 3.5t-35.5 -4.5t-43.5 -21q-25 -17 -42 -42t-17.5 -48t19.5 -40t68 -17q110 0 158.5 -28.5t50.5 -80.5
v-1q26 -1 43 -2t19 -1q4 0 6.5 -5.5t2.5 -12t-3 -11.5t-9 -5q-4 0 -20.5 1t-40.5 3q-6 -29 -22 -54t-38.5 -44.5t-50.5 -32.5t-58 -19q-43 -8 -76.5 3t-53 32.5t-23.5 48t11 50.5q12 18 43 28.5t71 15.5t84 6.5t82 0.5q-3 24 -19.5 39t-41 23t-54.5 10.5t-61 2.5
q-66 -1 -95.5 23t-31 57t19.5 68.5t56 57.5t63 28t48 4.5t31.5 -6.5t14.5 -4q5 2 9 9.5t9 12.5zM55 46q-9 -14 -4 -30.5t20.5 -30t39.5 -20.5t53 -2q25 5 48.5 16.5t42 28t31.5 35.5t18 39q-35 1 -74.5 0.5t-75.5 -4t-63 -11.5t-36 -21z" />
    <glyph glyph-name="T" unicode="T" horiz-adv-x="218" 
d="M25 437q-2 0 -3.5 4.5t-1.5 9.5t0.5 9.5t3.5 5.5q7 2 21.5 4t22.5 3q10 1 13.5 -4.5t1.5 -22.5q0 -6 -1 -27t-1.5 -49.5t-1 -59.5t-1 -57.5t0 -44t1.5 -17.5h15h28.5t29.5 0.5t19 0.5q4 0 5.5 -5t1 -11t-2.5 -11t-4 -5t-16.5 -0.5t-31.5 -1t-30.5 -1l-13.5 -0.5
q0 -3 0.5 -16.5t2 -32t4.5 -38.5t8.5 -37t13.5 -28t19 -11q8 0 15.5 2.5t13 5t9 4.5t3.5 1l-0.5 3.5t-1 9t-1 10.5t-0.5 7t5 3.5t10.5 2t10.5 -0.5t5 -4t2 -17t4.5 -30.5t5 -30t2.5 -14.5t-3 -3t-7.5 -4t-9 -3t-6.5 1q-2 1 -3 6t-2.5 10.5t-3 10.5t-3.5 6q-2 2 -6 0.5
t-9.5 -4t-13.5 -4.5t-18 -2q-27 0 -42.5 26t-24 59t-11.5 64.5t-3 44.5q0 1 -5.5 1.5t-12 0.5t-13 -0.5t-8.5 -0.5t-2.5 5.5t-0.5 11.5t0.5 11.5t2.5 5.5q5 0 18.5 0.5t16.5 2.5q1 1 2 19t2 45t1.5 58.5t1 58.5t1 45l0.5 18q0 1 -9.5 0t-14.5 1z" />
    <glyph glyph-name="U" unicode="U" horiz-adv-x="306" 
d="M11 361q-5 0 -7.5 10.5t0.5 15.5q1 3 7 5.5t13.5 5.5t16 6t15.5 6q13 5 16.5 -2.5t0.5 -29.5q-1 -7 -0.5 -36t3.5 -68t7.5 -82t12 -78t17 -57t22.5 -18q19 5 33.5 27t24 53t14.5 68.5t4 73.5q-2 85 -2.5 122.5t-3.5 39.5q-2 1 -7.5 0.5t-12.5 -2t-13 -3t-8 -1.5t-5 5
t-5 11t-2.5 11t1.5 5t21 5.5t41.5 12.5t42.5 12.5t23 5.5q3 1 6.5 -3.5t6 -10.5t3.5 -11.5t-1 -6.5t-10.5 -4t-17.5 -6.5t-16.5 -6.5t-7.5 -5q-1 -1 0.5 -34.5t3 -83.5t4 -107.5t5 -107t4 -82.5t2.5 -33t6.5 0.5t11.5 1.5t11.5 2t8.5 0q2 -1 2.5 -6.5t-0.5 -11t-2.5 -10
t-2.5 -4.5t-17.5 -2.5t-37 -5.5t-37.5 -5t-19 -1q-2 0 -3 5.5t-0.5 12t1.5 11.5t3 5q1 0 6.5 1t12 1.5t12 1.5t7.5 1t2 20t-1 43q-1 27 -3 62q-8 -25 -20 -46q-11 -18 -27 -34t-39 -21q-24 -5 -41 19.5t-28 64.5t-17.5 88t-9.5 90.5t-4.5 71t-1.5 29.5q-2 2 -11 -2t-14 -4z
" />
    <glyph glyph-name="V" unicode="V" horiz-adv-x="285" 
d="M279 447q2 -1 2 -6.5t-1 -12t-2.5 -12t-3.5 -5.5l-38 1q0 -1 -2.5 -19.5t-6.5 -49.5t-8.5 -70t-9.5 -79.5t-9.5 -80t-8 -70.5t-5.5 -50.5t-2 -20.5q0 -3 -4.5 -6t-10.5 -4.5t-11.5 -1t-6.5 3.5q-1 2 -10 31t-21.5 71t-27.5 90.5t-27.5 90t-21.5 69t-10 27.5q-2 0 -7.5 -4
t-8.5 -5q-2 0 -5 3.5t-5.5 8t-4 9.5t0.5 8q2 2 13.5 10t25 16.5t26 15.5t15.5 8q2 1 5 -2.5t5 -8.5t2.5 -10t-1.5 -6q-2 -2 -6.5 -5.5t-9.5 -7t-8.5 -7l-3.5 -3.5l4 -14t10.5 -36.5t15 -50.5t17.5 -58q20 -70 47 -158l40 370l-24 2q-9 1 -17 1t-9 1t-1 5.5t1 10t2 10t3 4.5
h20t41.5 -0.5t41.5 -1t21 -1.5z" />
    <glyph glyph-name="W" unicode="W" horiz-adv-x="381" 
d="M105 411q4 1 7 -3.5t4.5 -10.5t1.5 -11.5t-3 -6.5q-7 -4 -24 -7l-18 -4l77 -325q7 64 12 115q2 22 4 43t3.5 37.5t3 27t1.5 11.5t6 2.5t12.5 2t12.5 0t8 -2.5q0 -1 3.5 -12.5t9 -29.5t12.5 -40t14 -45q17 -55 37 -122l6 182q1 34 2 67t1.5 58.5t0.5 41.5t-1 16h-32
q-2 0 -3 5t-1.5 11.5t0.5 12t4 5.5h18.5h33.5h33.5h17.5q3 0 3.5 -5.5t0.5 -12t-0.5 -12t-1.5 -5.5t-7 0.5t-13 0.5h-13t-6 -1l-1 -33t-2 -81.5t-2.5 -105.5t-2.5 -105.5t-2 -81.5l-1 -33l-7 -2t-15 -3t-15 0t-8 6q-1 3 -4.5 14.5t-9 29.5t-12.5 39.5t-14 44.5
q-17 53 -37 118q-7 -62 -12 -111q-2 -21 -4 -41.5t-3.5 -37t-2.5 -27t-1 -11.5q0 -3 -6.5 -4t-14 0t-14 3t-6.5 5q0 1 -4.5 18.5t-11.5 44.5t-15.5 61t-17.5 69l-48 188q-7 -1 -13 -2q-5 -1 -10.5 -1.5t-7.5 0.5q-1 0 -2 4t-2 9.5t-0.5 10t2.5 5.5t16.5 5t31.5 9t32.5 9
t19.5 4z" />
    <glyph glyph-name="X" unicode="X" horiz-adv-x="306" 
d="M295 435q2 -3 1 -8t-4 -10t-6.5 -8t-5.5 -2t-8 4.5t-13 7t-12.5 5.5t-6.5 1t-8 -25t-17.5 -61.5t-23.5 -83t-25 -90.5q21 -44 42.5 -86.5t38.5 -77t27.5 -55.5t11.5 -21t6.5 1.5t11.5 3.5t11.5 4t8.5 3t6 -3.5t4.5 -10.5t2 -11.5t-1.5 -7.5t-18 -8.5t-35 -13.5
t-35.5 -12.5t-18.5 -5.5q-4 0 -9 9.5t0 15.5q1 2 6.5 5t11.5 6t10.5 5.5t4.5 5.5q0 1 -8 19t-21.5 46.5t-31.5 65t-37 75.5q-14 -51 -23 -86t-8 -35h8t15.5 -0.5t16.5 -1.5t12 -2t5.5 -6t1 -11t-2.5 -10.5t-5 -5.5t-23 1t-42.5 4.5t-41 5t-18.5 4.5v6t1 10.5t2.5 9.5t3.5 4
t8 -0.5t12 -1.5q7 -1 15 -1q5 21 12 47q6 22 13.5 51t16.5 61l-34.5 69t-29.5 58.5t-21 41l-8 15.5q-1 0 -4.5 -2.5l-7 -5t-7 -4.5l-3.5 -2q-1 0 -3.5 3t-5.5 7t-5 7.5t-1 5.5t11.5 10t23 18t23.5 18.5t14 11.5t7 -0.5t8 -9t6 -11t1 -6.5q-2 -2 -6.5 -5t-9.5 -6t-8.5 -6
t-2.5 -4l76 -156q11 43 22 85t20 75q11 39 20 74q0 1 -4 2.5t-8.5 3.5t-8.5 4l-4 2l1 5t3 10.5t4.5 9.5t5.5 4q3 -1 18 -7t32.5 -14t31.5 -15.5t16 -10.5z" />
    <glyph glyph-name="Y" unicode="Y" horiz-adv-x="321" 
d="M116 430q3 0 5 -4.5t3 -10.5t0 -11.5t-3 -6.5t-11 -2.5t-10 -3.5q-1 -4 -0.5 -35t2.5 -74.5t7 -93t13 -90.5t20 -67.5t28 -23.5q15 3 29 25.5t23.5 68.5t13 118t-2.5 173q0 2 -11 1t-16 -1q-2 0 -3.5 5.5t-2 11.5t0 11.5t3.5 5.5h19t37 1q23 0 51 1l1 -4.5t1.5 -10t0 -10
t-1.5 -4.5q-2 0 -9 -0.5t-15 -1.5t-14.5 -1.5t-7.5 -1.5q0 -3 0.5 -10.5t1 -23t1 -40t1.5 -60.5q2 -84 9 -158.5t12 -140.5q25 5 38.5 6.5t16.5 1.5q2 0 4.5 -5t4 -11.5t1 -12t-4.5 -6.5q-3 -1 -18.5 -2.5t-37.5 -5.5q2 -28 3 -53.5t1 -48.5q0 -42 -7.5 -73t-27 -46
t-52.5 -10.5t-84 32.5t-67 59.5t-7 60.5t39 51.5t72 33.5q29 8 52.5 13t43.5 10q-2 28 -4.5 53.5t-4.5 45.5q-3 23 -4 42q-3 -34 -14 -60q-9 -23 -25.5 -43t-43.5 -22t-44 27t-27.5 74.5t-16 99.5t-8.5 101t-4.5 79t-4.5 35q-11 -1 -21 -2l-16 -2t-11 0q-3 0 -5 5t-2.5 10
t1 10t4.5 5q3 1 18 3.5l33 5.5t34 5.5t21 2.5zM170 -100q-30 -9 -51 -25t-27.5 -35t4 -39t44.5 -38t58 -26.5t39 -3.5t22.5 25.5t7.5 60.5q0 23 -1 49.5t-3 53.5q-23 -5 -47 -10t-46 -12z" />
    <glyph glyph-name="Z" unicode="Z" horiz-adv-x="302" 
d="M10 478q-1 3 3.5 5t10 2.5t11 -0.5t5.5 -4v-8.5v-11t0.5 -9.5t1.5 -4l157 4q31 1 37.5 -8.5t-3.5 -32.5l-182 -360l282 74q2 0 4.5 -5t3.5 -11t1 -11.5t-3 -6.5l-287 -78q-4 -2 -12 -1t-15 4.5t-12 10t-3 14.5l189 377q-1 0 -8 -0.5t-18.5 -1t-25.5 -1t-29 -0.5l-78 -2
q-1 -15 -2 -27q-1 -11 -1.5 -20.5t-0.5 -11.5q0 -3 -4.5 -5t-9.5 -3t-10 -0.5t-6 2.5q-1 3 0 22.5t2.5 42.5t2 42.5t-0.5 22.5z" />
    <glyph glyph-name="bracketleft" unicode="[" horiz-adv-x="149" 
d="M131 483q6 0 7 -5.5t0 -12t-4 -11t-6 -3.5t-15 2t-26 2t-25.5 0.5t-12.5 -2.5v-23.5t0.5 -59t1.5 -82.5t2 -94t2 -94t2.5 -82t3 -58.5t3.5 -22.5h12.5h18.5h19h14q4 0 7 -5.5t4 -12t-0.5 -12t-5.5 -5.5t-16 0.5t-26 1.5t-26.5 2t-16.5 3q-9 3 -13.5 7t-4.5 19q0 4 -1 27
t-2 58t-2 79.5t-2.5 90.5t-2.5 90.5t-1.5 80.5t-0.5 59.5t1 27.5q2 18 4.5 26.5t22.5 12.5q10 1 23 1t25 -1t22 -2t15 -2z" />
    <glyph glyph-name="backslash" unicode="\" horiz-adv-x="170" 
d="M29 430q1 -1 11 -35.5t25.5 -86.5t32.5 -112.5t32.5 -113t25.5 -89t11 -39.5q1 -5 -3 -8t-9.5 -4.5t-11 -1t-6.5 3.5q-1 2 -11.5 37t-25.5 87t-32 112.5t-31.5 112.5t-24.5 88t-10 39q-1 3 2 7t7.5 6t9.5 2t8 -5z" />
    <glyph glyph-name="bracketright" unicode="]" horiz-adv-x="157" 
d="M16 483q3 0 16 0.5t28.5 0.5h29t18.5 -1q9 -1 11.5 -2.5t5.5 -19.5q1 -7 2.5 -47.5t3.5 -98t3.5 -123.5t3.5 -123.5t3 -98t1 -46.5q0 -7 -4.5 -13.5t-12.5 -8.5h-16.5h-26.5h-26.5h-15.5t-4.5 4.5t-1 9.5t3 9.5t5.5 4.5t13.5 0.5t21.5 1t20.5 1t10.5 0.5l-0.5 38
t-1.5 95.5t-3 124t-3.5 124t-3 96t-2.5 39.5t-12.5 1.5t-26 1t-27 0.5h-15.5t-4.5 4.5t-1.5 10.5t2 10.5t6 4.5z" />
    <glyph glyph-name="asciicircum" unicode="^" horiz-adv-x="176" 
d="M34 208q-2 -3 -7.5 -2.5t-11 3.5t-9 7.5t-1.5 8.5t11 24t19.5 43.5t20 44.5t11.5 26q5 10 17.5 9t15.5 -7l6.5 -13t12.5 -27t15.5 -34t15.5 -34t12 -27t5 -12q0 -2 -4.5 -5t-9.5 -5t-10.5 -2.5t-6.5 3.5q-2 3 -10 22t-17 40t-16 38l-7 17l-7.5 -18t-17 -39.5t-18 -40
t-9.5 -20.5z" />
    <glyph glyph-name="underscore" unicode="_" horiz-adv-x="170" 
d="M153 30q4 1 7 -4t4.5 -11t1 -11t-3.5 -6q-3 0 -25.5 -3t-49 -6t-49.5 -5.5t-26 -1.5t-5.5 6t-3.5 11t0 11t4 5q3 1 25 3t47.5 4.5t47.5 5t26 2.5z" />
    <glyph glyph-name="grave" unicode="`" horiz-adv-x="91" 
d="M4 392q-1 1 2 5t7.5 8.5t9.5 7.5t7 1t10.5 -12.5t18.5 -23.5t18 -23.5t9 -12.5t-1.5 -5.5t-6 -7.5t-8 -6.5t-5.5 -0.5q-2 1 -11 12t-19.5 23.5t-20 23t-10.5 11.5z" />
    <glyph glyph-name="a" unicode="a" 
d="M135 232q2 5 1 20q0 8 1.5 12.5t8.5 6.5t22 3t20 1q3 0 4.5 -4.5t2.5 -10t-0.5 -10t-4.5 -4.5q-6 0 -11 -0.5t-7 -0.5q-1 0 -2 -1.5t-1 -7.5q0 -2 1.5 -20t3.5 -44t4.5 -55.5t4.5 -55t3.5 -42.5t1.5 -18q2 -8 5 -7q3 0 8.5 1.5t8.5 1.5t6 -4t5 -9t2 -9.5t-2 -5.5
t-15.5 -5t-29.5 -8.5t-30 -7.5t-17 -3q-2 1 -4 5t-3 8.5t-1 9t2 5.5q3 1 8 3t10.5 3.5t9.5 3t5 2.5q4 3 2 13.5t-4 13.5q-2 2 -23 -4.5t-50 -5.5q-15 0 -30.5 6t-27.5 19.5t-18 37.5t-2 60t14.5 58t23.5 34t25.5 16t20.5 5q17 2 32 -3.5t16 -2.5zM139 184q-1 6 -10.5 12
t-22.5 8.5t-27 -1.5t-23 -17q-8 -11 -14 -32t-7.5 -43.5t2.5 -41.5t17 -27q10 -6 26 -6.5t31 1.5t25.5 5t11.5 4t0 21.5t-2.5 45.5t-3.5 46.5t-3 24.5z" />
    <glyph glyph-name="b" unicode="b" horiz-adv-x="205" 
d="M4 366q-1 0 -2 3.5t-1 8v8.5t2 5q3 2 17 2t24 -1q10 0 12.5 -4.5t2.5 -15.5v-28v-48v-45.5v-20.5l4.5 4t12 9t18 9t22.5 4q25 -1 49 -34t25 -92q0 -29 -7 -53.5t-19 -41.5t-26.5 -27t-29.5 -10q-25 0 -36 8.5t-13 7.5q-2 -2 -3 -2.5t-1 -5.5q0 -9 -6 -9h-21.5t-21.5 1
q-3 0 -4 5t-1 10t1 9.5t4 4.5h13q1 0 3 1q4 2 4 7q0 2 0.5 26.5t0.5 60t0.5 76.5t1 76.5t0.5 59v24.5q0 6 -5 7q-2 1 -10 0t-10 1zM114 223q-9 1 -18 -3.5t-17 -12t-13.5 -17.5t-5.5 -20t-0.5 -26.5t-0.5 -33.5v-31v-19q1 -10 14.5 -19.5t29.5 -9.5q7 0 17.5 6t19.5 18
t15 30t5 42q-2 52 -15.5 73.5t-30.5 22.5z" />
    <glyph glyph-name="c" unicode="c" horiz-adv-x="149" 
d="M112 267q0 3 5 4t10.5 0t10 -4t4.5 -7q-1 -4 -2.5 -17t-3.5 -28t-3.5 -27.5t-1.5 -13.5q0 -2 -4 -3t-8.5 -1t-9 1t-5.5 3t-3 10t-6.5 16.5t-11 14.5t-16.5 5t-17 -10t-11.5 -22.5t-6 -29t-0.5 -29.5q1 -15 2.5 -32.5t6 -32.5t12.5 -24.5t22 -9.5q11 0 16.5 6.5t7.5 14.5
t1.5 16.5t-0.5 12.5t4.5 6t10 2.5t10 -1t4.5 -4.5t1 -15.5t2.5 -27t3 -26.5t1.5 -15q0 -2 -3.5 -5t-8 -5t-9 -2t-4.5 3q-2 7 -3.5 13.5t-3.5 6.5t-9 -6t-19 -6q-7 0 -18.5 2t-23 14t-20.5 36.5t-12 69.5q-2 43 5 69t17.5 40t21.5 18.5t17 5.5q13 2 21.5 -1t13 -7t7 -7.5
t3.5 -3.5q2 1 1.5 13.5t1.5 19.5z" />
    <glyph glyph-name="d" unicode="d" horiz-adv-x="167" 
d="M59 365q-2 0 -3.5 5t-3 11.5t-1 12t3.5 5.5t14 0.5t24 1t24 1t14 0.5t5 -4.5t2.5 -10.5t0 -11t-3.5 -5q-5 -1 -10.5 -1t-7.5 -2q-1 -1 1 -28l5 -67.5t6.5 -87.5t7 -87.5t6 -67.5t3.5 -27q2 -1 7.5 2t10.5 4q2 0 4.5 -4t4 -9t1.5 -10t-2 -6t-12.5 -5t-22.5 -9.5t-23 -9.5
t-14 -5t-6.5 2t-5.5 7.5t-3 8.5t1 5l15 7.5t13 7.5q1 1 1 8t-1 15.5t-2 15.5t-1 8t-6.5 -2t-17 -4.5t-24.5 0.5t-29 13t-23.5 28.5t-9.5 38t5 40.5t20 35t26 22t21 9.5t14.5 3t5.5 2.5t-1 24t-3 48.5t-4 48.5t-2 23q-2 2 -11.5 0.5t-12.5 -1.5zM94 189q-1 1 -7 -0.5
t-13.5 -5t-15.5 -9t-13 -12.5q-5 -8 -9 -19.5t-5 -24t2.5 -24.5t14.5 -21q10 -9 20.5 -11.5t18.5 -1t13 5t5 6.5q1 3 -0.5 21t-3.5 39t-4 38t-3 19z" />
    <glyph glyph-name="e" unicode="e" horiz-adv-x="160" 
d="M48 244q26 4 42 -13.5t25 -41t12.5 -46t3.5 -28.5q1 -13 -0.5 -18.5t-18.5 -7.5q-9 -1 -21.5 -2.5t-24 -2.5t-20 -2.5t-9.5 -2.5t0.5 -8.5t6 -16t12 -15t19.5 -5.5q23 3 30.5 13.5t7.5 16.5t9.5 9.5t12.5 1.5l4 -8t6.5 -13.5t7 -14.5t5.5 -10t-1 -8t-8.5 -9t-10.5 -5.5
t-7 1.5q-3 6 -5 9.5t-5 3.5t-13.5 -7.5t-28.5 -8.5q-9 0 -21.5 2.5t-24.5 12.5t-21 30.5t-10 55.5q-3 71 11.5 103.5t34.5 34.5zM55 208q-12 -6 -17 -22t-6 -32.5t0.5 -29t1.5 -13.5q1 -1 10.5 0t21.5 2.5t22 3.5t12 3q1 1 -1.5 17t-8.5 34t-15 30.5t-20 6.5z" />
    <glyph glyph-name="f" unicode="f" horiz-adv-x="179" 
d="M-8 93q-5 0 -6.5 5t-1.5 11.5t2 11.5t4 5t11 0.5t23 2.5v18q0 54 4 91.5t11 62.5t16 39t19 22q6 4 14.5 7.5t18 4.5t19 -1t17.5 -9q13 -13 22.5 -41t4.5 -77q-3 -33 -14.5 -57t-27.5 -41t-35 -27.5t-37 -16.5l3 -59q12 2 23.5 2t21.5 -5q22 -12 30.5 -34.5t6 -45.5
t-15.5 -40t-34 -17q-26 0 -39.5 26.5t-19.5 70.5l-9 -5q-2 0 -5.5 3.5t-6 9t-3.5 10t2 6.5q6 5 18 10q-2 14 -2.5 29t-1.5 32q-13 -2 -21.5 -3t-10.5 -1zM140 248q3 34 -1 53t-11 28t-15 10t-13 -2q-4 -3 -12 -9.5t-15.5 -25.5t-12.5 -54t-5 -95v-16q28 10 53.5 35.5
t31.5 75.5zM92 -61q8 0 13 10.5t5.5 24t-4 25.5t-16.5 14q-16 3 -27 0q5 -40 12.5 -56.5t16.5 -17.5z" />
    <glyph glyph-name="g" unicode="g" horiz-adv-x="180" 
d="M122 233q0 11 9 16q5 2 18 2h18q3 0 4.5 -5t2 -11t-1 -11.5t-4.5 -5.5q-13 -2 -14 -7q0 -2 1 -13t3 -29.5t4 -42t3 -49.5q1 -22 2.5 -45.5t3.5 -46.5q10 2 17.5 2h10.5q4 0 7 -4t3.5 -9t-1 -9.5t-5.5 -4.5t-12 -0.5t-20 -1.5q0 -33 -4 -62t-16 -50t-33.5 -31t-55.5 -4
q-24 4 -35 23.5t-10.5 43.5t13.5 47.5t37 34.5q15 8 35 12.5t40 8.5l-2 27q0 4 -11.5 0t-41.5 -5q-15 -1 -29.5 3.5t-26.5 15t-20 28t-9 41.5q-1 26 5 45t16.5 32t23.5 20.5t26 10.5q27 6 37 4t12 0t1 13.5t-1 16.5zM122 171q-15 5 -32 2t-30.5 -13.5t-21.5 -27.5t-6 -39
q2 -21 11 -34.5t23 -20t31 -5.5t35 10q3 1 2 21t-3 43.5t-5 43t-4 20.5zM77 -66q-14 -8 -21 -22.5t-8 -29.5t5 -27t19 -15q22 -5 36 4t21.5 26t10 39t2.5 44q-17 -2 -34 -6.5t-31 -12.5z" />
    <glyph glyph-name="h" unicode="h" horiz-adv-x="199" 
d="M-48 334q6 0 10.5 -3t10.5 -6t15 -5t24 -1v22q-2 72 0.5 114t15.5 70q7 13 17.5 25t24 18.5t30 5.5t36.5 -13q19 -12 30.5 -34.5t15 -48t0 -51t-12.5 -45.5q-18 -38 -53 -61.5t-72 -30.5q0 -17 0.5 -33t1 -28.5t0.5 -20v-7.5q0 1 9 11t23 20.5t30.5 17t31.5 0.5
t21.5 -19.5t8 -29.5t0 -33t-2.5 -32q-1 -24 -4 -52.5t-5 -42.5q0 -8 6 -8q5 0 12.5 0.5t12.5 0.5q3 0 5 -4.5t2 -9.5t-2 -9.5t-6 -5.5q-5 -1 -16 -3t-23.5 -4t-24 -3.5t-17.5 -0.5q-6 0 -8.5 4.5t-2.5 9.5t2.5 10t5.5 6q5 1 9 1.5t8 2.5q7 1 8 11l6 82q1 14 2 29t1 28
t-2 22.5t-7 12.5q-11 5 -29 -4t-31 -25q-11 -14 -14.5 -27.5t-4.5 -33.5q-2 -16 -1 -25t1 -14q0 -2 2 -4q1 -1 2 -1q3 0 8 -0.5t9 -2.5q4 -1 5.5 -5.5t0.5 -9t-4 -8t-8 -3.5q-11 0 -29 -0.5t-29 1.5q-5 0 -7 4.5t-2 9t2 9t6 4.5l15 2q2 0 2 7q0 8 -1 28t-2.5 48t-3.5 60
t-3 64q-29 -1 -46 4.5t-26 13.5q-10 9 -6 19.5t17 9.5zM139 395q7 16 10.5 35t2.5 37t-6.5 33.5t-16.5 24.5q-22 17 -42 13t-30 -33q-5 -15 -8 -33.5t-4.5 -38.5t-1.5 -39v-35v-37q30 7 56 25.5t40 47.5z" />
    <glyph glyph-name="i" unicode="i" horiz-adv-x="108" 
d="M6 196q-5 2 -5.5 13.5t4.5 13.5t20 1.5t25 -1.5t13.5 -8t3.5 -28q0 -11 -1 -35.5t-1 -49.5v-44.5t2 -20.5q1 0 5.5 -0.5t9.5 -1l10 -1t7 -0.5t3.5 -3.5t2 -8t0 -8t-2.5 -4.5t-9.5 -2t-16.5 -2t-17 -1.5t-11 -0.5q-6 0 -10.5 1t-6.5 12v17t0.5 33t0.5 40t0.5 39.5
t0.5 30.5v13q-1 2 -11.5 3t-15.5 3zM28 268q1 10 7.5 14.5t13.5 4.5t13 -4.5t6 -13.5t-6.5 -13.5t-14.5 -5t-14.5 4t-4.5 13.5z" />
    <glyph glyph-name="j" unicode="j" horiz-adv-x="88" 
d="M76 222q3 0 5 -5t2 -11t-1 -11t-4 -5q-5 0 -14.5 1t-11.5 -1q-1 -1 -0.5 -8.5t2.5 -25.5t4.5 -50t6.5 -83q1 -14 1.5 -27.5t2.5 -27.5q28 1 47.5 -0.5t21.5 -1.5q3 0 5 -4t3.5 -9t0.5 -9.5t-4 -4.5t-23.5 0.5t-49.5 -0.5q2 -36 2.5 -66.5t-2.5 -53.5t-10 -38.5t-19 -19.5
q-16 -6 -44.5 0.5t-54.5 23t-42.5 43t-8.5 62.5q5 20 20 33.5t35.5 22.5t44.5 13.5t48 6.5q-2 14 -2.5 27t-2.5 27q-5 78 -11 119.5t-7 54.5q-3 24 12 27q3 1 9.5 1h14h14.5h10zM-80 -114q-6 -24 7 -44.5t32.5 -34t40 -18t29.5 3.5q13 11 14.5 50.5t-2.5 92.5
q-21 -2 -41 -5.5t-37 -9.5t-28.5 -14.5t-14.5 -20.5zM13 268q0 10 6 15t13.5 5.5t14 -4t7.5 -13.5q0 -8 -6.5 -13t-14.5 -6t-14.5 3t-5.5 13z" />
    <glyph glyph-name="k" unicode="k" horiz-adv-x="231" 
d="M-54 302q-2 2 -2 15t5 15q3 1 20 -3.5t41 -5.5v57.5t2 57.5q3 68 21 101.5t41.5 41t47 -5.5t38.5 -37t21.5 -52t2 -56.5t-23 -57t-54.5 -53.5q-30 -21 -64 -26q0 -22 0.5 -43t1.5 -42q5 14 13 27t19 21t26 9.5t35 -7.5q14 -7 20.5 -17t6.5 -22t-4 -25t-11 -25
q-16 -29 -45 -61q4 -5 9 -9l10 -8t13 -8q29 -15 41.5 -17t13.5 -1q1 0 0.5 5.5t1.5 12.5q1 4 5.5 5t10 0.5t9.5 -2.5t4 -5t-1 -15.5t-2.5 -26.5t-3 -26t-1.5 -14t-4.5 -2.5t-10 0.5t-10 2.5t-4.5 4.5q1 5 2 12.5t-2 9.5q-2 2 -19.5 6.5t-40.5 17.5t-38.5 25.5t-20.5 18.5
q-5 5 -4.5 12.5t6.5 12.5q11 9 26 25t25.5 33t14 31.5t-7.5 22.5q-16 10 -29.5 -1.5t-23 -33t-16 -46.5t-9.5 -41q2 -32 3.5 -51t2.5 -20q3 -3 7 -2t12 2q4 0 6 -5t2.5 -11t-0.5 -11t-4 -5q-3 -1 -12 -1.5t-19 -1t-18.5 -0.5h-11.5t-4.5 4.5t-2.5 9.5t-0.5 10t2.5 5l9 2
q0 1 1 3q2 4 2 6t-1.5 22.5t-3.5 54t-4 78t-3 93.5q-26 0 -44.5 5t-20.5 6zM87 344q51 35 63.5 80.5t-10.5 84.5q-12 20 -27.5 30.5t-30 5.5t-25.5 -28t-14 -70q-2 -25 -2 -56v-66q26 5 46 19zM48 90l-1 3q0 -3 1 -3z" />
    <glyph glyph-name="l" unicode="l" horiz-adv-x="174" 
d="M10 330q-3 0 -5 5t-2.5 11.5t0.5 12t4 5.5q6 1 20.5 1.5t23.5 0.5q10 0 12.5 -4t2.5 -12q0 -3 -0.5 -26.5t-1.5 -57.5t-2 -73.5t-1.5 -73t-1 -56t0.5 -22.5q1 -1 12 0t24.5 2.5t24.5 3.5t12 2q2 2 2.5 8t0.5 15q0 4 4.5 5.5t10 1t10 -2t4.5 -4.5v-15t0.5 -26t0.5 -25.5
v-12.5t-5 -2t-11 -1t-11 1t-5 4q0 5 1 11.5t-1 7.5q-1 0 -12.5 -0.5t-26 -1t-28.5 -1.5t-20 -1q-13 0 -15.5 3.5t-2.5 11.5q0 3 0.5 26t1 56.5t1 72t1 71t0.5 54.5v23q-2 2 -10 1.5t-13 0.5z" />
    <glyph glyph-name="m" unicode="m" horiz-adv-x="344" 
d="M11 258q-3 0 -5 3.5t-3 8t-1 9t2 5.5t13.5 4t25 6.5t26 6.5t15.5 4q4 1 7 -3.5t5.5 -10t3 -11t-1.5 -5.5q-5 -2 -15.5 -5t-11.5 -6q-1 -2 0 -14t2 -26q1 -17 2 -37q3 17 10 31q6 12 16.5 22.5t29.5 12.5q18 2 29.5 -10.5t19 -28t11 -29.5t3.5 -15q0 2 3 12t9.5 21.5
t17.5 21t29 10.5t29 -13.5t17 -36.5t8.5 -48t2.5 -48.5t-0.5 -37.5t0.5 -15l19 2q3 0 5.5 -4.5t3 -10t0 -10.5t-3.5 -5q-2 0 -12 -2t-21 -4.5t-21 -4t-13 -1.5t-4.5 4.5t-2 10.5t-0.5 11t2 6q4 2 10 2.5t7 2.5q0 1 0.5 14t0 31.5t-1.5 39.5t-4.5 39t-8.5 30t-13 12
q-12 0 -20 -13t-13.5 -32.5t-9 -42t-5 -42.5t-1.5 -34v-16q0 -3 -5.5 -6t-12 -4.5t-12.5 -0.5t-6 6q0 3 0.5 20t0 40t-2.5 49t-6 48t-11 35.5t-18 12.5q-13 -2 -21 -17.5t-12.5 -38.5t-6 -49.5t-1.5 -48.5t0.5 -37.5t1.5 -15.5q1 -1 6 -1.5t12 0t13.5 1t9.5 0.5t5 -5.5
t2.5 -11.5t-0.5 -11.5t-4 -5.5h-18h-32t-31.5 0.5t-16.5 0.5t-2.5 5t-0.5 11.5t0.5 11.5t2.5 5t10.5 -0.5t10.5 1.5l-0.5 18t-2.5 45.5t-4.5 59t-4.5 58.5t-4 45.5t-3 19.5q-4 2 -13.5 0.5t-14.5 -1.5z" />
    <glyph glyph-name="n" unicode="n" horiz-adv-x="228" 
d="M5 258q-3 2 -4 14t3 13q19 1 29 1.5t14.5 0.5t5 -0.5t2.5 -1.5q2 -2 2.5 -10.5t0.5 -19v-18.5t1 -8t4 6t10.5 12.5t20 11.5t30.5 3q19 -3 32 -16.5t21 -33t11.5 -42.5t3.5 -45q0 -45 -0.5 -78t3.5 -34q3 0 9 2t11 4q3 0 5 -3.5t3.5 -9t1 -10t-2.5 -5.5t-12 -4.5t-22 -7
t-23 -6.5t-14 -4t-6 2.5t-4.5 8t-1.5 9t2 5.5l12.5 5t8.5 6v11.5v26.5t-0.5 35.5t-0.5 39.5q0 19 -2.5 39t-7.5 36t-13 26.5t-20 11.5q-25 2 -39 -25t-16 -80t-3.5 -74.5t0.5 -22.5q1 0 6 -1t10.5 -1.5t11 -1.5t8.5 -1t4 -5t0.5 -11t-3 -11t-7.5 -5q-6 0 -17.5 1t-24.5 2
t-23.5 2t-13.5 1t-4 5t-1 10t1.5 10t3.5 5q3 0 10.5 0.5t7.5 2.5v18t-0.5 42t-1 53.5t-1 53.5t-1.5 42t-1 18q-1 2 -8 0t-11 0z" />
    <glyph glyph-name="o" unicode="o" horiz-adv-x="174" 
d="M161 142q6 -73 -16.5 -109t-54.5 -37q-17 -1 -32.5 3t-27.5 17t-19.5 37.5t-7.5 63.5t5.5 64.5t15 40.5t22.5 21.5t28 8.5q12 1 26 -2.5t26.5 -15.5t22 -34t12.5 -58zM130 134q-2 28 -7.5 45t-13 26t-17 11t-18.5 1q-17 -2 -29.5 -24t-11.5 -75q2 -50 16.5 -72t33.5 -21
q9 0 18 5.5t16 18t10.5 33.5t2.5 52z" />
    <glyph glyph-name="p" unicode="p" horiz-adv-x="201" 
d="M8 218q-1 0 -2 5t-1 10.5t0.5 10t3.5 4.5q5 0 19.5 1t22.5 1q12 0 12 -20q-1 -9 -1 -11t1 -1t14.5 11.5t35.5 11.5q11 0 23 -4t22.5 -16t18 -33t9.5 -54q4 -68 -14 -100t-46 -35q-15 -1 -24.5 0.5t-15 4t-8.5 4.5t-4 2q-1 -1 -1 -17.5t0.5 -36.5t1 -36.5t0.5 -17.5
q1 -1 7 -1h13.5h14.5h10t5.5 -4.5t4 -10.5t1 -11t-4.5 -5h-19h-32.5t-32 0.5t-17.5 0.5t-4 5.5t-1 11.5t1 10.5t3 4.5q4 -1 11 -1t8 2q0 1 -0.5 24t-1.5 57t-2.5 74t-3 74.5t-2.5 58t-1 24.5q-1 4 -11 2t-13 0zM69 116q1 -53 16 -69t34 -15q19 2 29 23.5t8 70.5
q-2 43 -17 62.5t-30 18.5q-6 0 -13.5 -4t-13.5 -14t-9.5 -27.5t-3.5 -45.5z" />
    <glyph glyph-name="q" unicode="q" horiz-adv-x="180" 
d="M123 259q0 9 0.5 14.5t12.5 7.5q11 1 18.5 2t13.5 1q3 0 5 -4.5t2.5 -10.5t-1 -10.5t-4.5 -4.5q-14 -2 -15 -3q0 -1 -0.5 -6.5t-0.5 -22v-47t1 -80.5q0 -35 1 -68t3 -62q17 3 36.5 4t37 -1.5t30 -9.5t15.5 -22q4 -21 -6 -42.5t-25.5 -38.5t-33.5 -29.5t-28 -15.5
q-21 -8 -31.5 -2.5t-14.5 32.5q-3 19 -5 43.5t-4 48.5q-4 -2 -7 1.5t-4.5 8t-2 9t1.5 5.5q1 1 10 3q-1 11 -1.5 21t-0.5 18v16q-1 0 -5 -3.5t-12 -7t-19.5 -6.5t-27.5 -2q-10 0 -21 6t-20.5 21t-14.5 41t-3 67q2 42 14.5 67t27.5 38.5t29 18.5t19 5q9 1 19 -1.5t11 -0.5v2z
M122 64q1 2 1 24t-0.5 49t-1.5 50.5t-1 28.5t-8 8t-19 1q-8 -1 -18 -7t-19 -18.5t-15.5 -31.5t-7.5 -46q-2 -42 7 -66.5t27 -25.5q15 -1 25 3.5t16.5 10.5t9.5 12zM171 -158q1 -1 14 6t27.5 18.5t26 26t10.5 28.5q-1 10 -10 15t-22 6.5t-28 0.5t-28 -3q2 -44 5 -70.5
t5 -27.5z" />
    <glyph glyph-name="r" unicode="r" horiz-adv-x="178" 
d="M74 308q3 1 5.5 -2t3.5 -7t1 -8.5t-2 -5.5q-4 -3 -8 -3.5t-4 -2.5q0 -1 0.5 -12t1 -24t1.5 -24t2 -12q0 -1 3.5 7t10.5 18t17.5 18.5t25.5 7.5q15 0 22 -19t9 -42t1 -43t-1 -23t-5 -4.5t-11.5 -1.5t-11.5 1.5t-5 4.5t0.5 17.5t0.5 30.5t-2 29t-7 14q-5 0 -11.5 -9
t-13 -25t-11 -36.5t-4.5 -43.5q-1 -46 -1.5 -60.5t1.5 -14.5h15.5t17.5 1q2 0 3.5 -4t1.5 -9.5t-0.5 -10t-3.5 -4.5l-86 -11q-2 8 -4 15q-2 6 -2 10.5t3 5.5q5 2 12.5 2.5t9.5 2.5q1 2 0 27t-3 76q-1 25 -2.5 49.5t-2.5 43.5t-2 31l-1 12q-4 -1 -13 -3.5t-15 -4.5
q-4 -1 -6 3t-3 8.5t0 9t4 5.5t12.5 4t21 6t22 6t13.5 4z" />
    <glyph glyph-name="s" unicode="s" horiz-adv-x="176" 
d="M33 97q-3 -2 -8 0t-9 5t-6 7.5t1 9.5q1 3 3.5 6t7 9t11 16t16.5 27q7 12 12.5 25.5t9.5 25.5t6 21t3 12q0 3 4 4.5t8.5 1.5t8 -1.5t3.5 -4.5q2 -29 11.5 -67.5t20.5 -76.5q21 7 37 10.5t20 5.5q5 1 8.5 -3t4.5 -10t-0.5 -12t-5.5 -7t-19.5 -5t-35.5 -10q8 -30 11.5 -52.5
t-1.5 -30.5q-8 -12 -28.5 -15.5t-41.5 1.5t-36.5 18.5t-13.5 36.5q2 20 23 36t49 27q-5 19 -10.5 39t-8.5 37q-7 -10 -12 -20q-5 -8 -10 -17t-9 -15q-11 -18 -15.5 -25t-8.5 -9zM69 42q-1 -12 7 -17.5t17.5 -7t18.5 0.5t11 6q2 5 -1 18.5t-8 33.5q-18 -8 -31 -16t-14 -18z
" />
    <glyph glyph-name="t" unicode="t" horiz-adv-x="160" 
d="M13 333q-5 0 -7 5t-2.5 10t1 9.5t3.5 4.5q5 0 20.5 0.5t26.5 0.5t12.5 -7.5t2.5 -18.5q0 -6 -0.5 -20.5t-0.5 -30v-27.5t1 -12h10t19.5 -0.5t21 -0.5h15.5q4 0 7 -4.5t3.5 -10.5t-2 -11t-7.5 -5h-16t-22.5 -0.5t-20 -1t-8.5 -1.5q-1 -2 -2.5 -21.5t0.5 -63.5t5 -69
t12 -29q10 -4 22 2t13 10q2 5 0 14t-2 16q0 3 4 6t9 4.5t9.5 1t5.5 -4.5q0 -4 2 -17.5t3.5 -29.5t3 -29t1.5 -16t-3.5 -5t-7.5 -3t-8 0.5t-5 4.5q-2 6 -3.5 14.5t-3.5 7.5q-2 -2 -15 -8t-37 0q-12 3 -19 16.5t-10.5 32t-5 40.5t-1.5 42q-1 41 -0.5 63t-0.5 22q-2 0 -10.5 -1
t-17.5 1q-4 0 -5.5 5.5t-1 12t2.5 12t5 5.5q6 0 15.5 -1t11.5 1q0 1 0.5 13.5t0.5 27.5t-0.5 27.5t-0.5 13.5q-2 2 -8 1.5t-15 1.5z" />
    <glyph glyph-name="u" unicode="u" horiz-adv-x="170" 
d="M7 218q4 1 10.5 2t13.5 0t13 -3.5t9 -6.5q5 -9 4 -21t-3 -44t-0.5 -56t15.5 -24q15 0 24.5 7.5t11.5 15.5q1 4 0.5 22t-1 38.5t-1.5 38t-2 19.5q-2 4 -10 3t-14 0q-3 0 -4.5 4t-1.5 9.5t1.5 10t4.5 5.5t14 1.5t24.5 0.5h25.5h16t6 -4.5t2.5 -10t-0.5 -10.5t-3 -5
q-5 -1 -13 0.5t-10 -2.5q-1 -2 -1.5 -11t-0.5 -22t0.5 -28t0.5 -28v-28.5v-26.5t0.5 -20.5t0.5 -9.5q2 -2 11 -2.5t13 -1.5q2 -1 3.5 -4.5t2 -7.5t0 -8t-3.5 -5q-2 -1 -14.5 -2t-26.5 -1.5t-26 -0.5h-13q-3 1 -2.5 8.5t2.5 10.5q3 2 11.5 4t10.5 4t1.5 8.5t-1.5 8.5
q0 2 -8.5 -3.5t-25.5 -5.5q-17 -1 -32.5 13t-16.5 59q-1 44 -0.5 61.5t-2.5 19.5q-4 2 -9 4t-8 2q-2 0 -3 3t-1 7t1.5 8t5.5 5z" />
    <glyph glyph-name="v" unicode="v" horiz-adv-x="246" 
d="M64 257q5 2 9 -1t6 -8t2.5 -10t-0.5 -6q-4 -3 -11 -6.5t-9 -6.5q-1 -1 1.5 -9t7 -20t11 -27.5t12.5 -30.5q15 -37 34 -82q14 44 25 79q10 30 17.5 55t8.5 27q0 4 -6 5.5t-12 3.5q-3 1 -3.5 5t0.5 8t3 7.5t5 3.5t12 -1t19.5 -2.5t21 -4t16.5 -3.5q5 -2 6.5 -7t0 -10.5
t-4 -9.5t-5.5 -4q-6 0 -12 2t-8 1q-1 0 -5.5 -13.5t-11 -34t-14.5 -44.5t-15 -46t-12.5 -38t-7.5 -20q-4 -10 -16 -11t-17 7q-3 5 -10 22t-16 38.5t-19 46t-18 45t-13.5 34t-6.5 14.5q-2 2 -7.5 -2t-9.5 -4q-4 -1 -8.5 9.5t0.5 14.5q3 1 10.5 6t17 10t18.5 10t14 8z" />
    <glyph glyph-name="w" unicode="w" horiz-adv-x="319" 
d="M19 182q-2 -1 -6 1.5t-7.5 6t-5 8.5t1.5 9q4 4 14 11t21 14t20 12.5t11 6.5t7.5 -3.5t10 -10.5t7.5 -12t1 -8q-5 -4 -14.5 -8.5t-11.5 -7.5q-1 -1 4 -24.5t11 -51.5q7 -33 15 -74q10 37 19 67q8 26 14.5 48t8.5 25q3 5 16.5 8t16.5 -1q1 -2 9.5 -25t19.5 -48
q12 -31 27 -68q5 49 9 88q1 16 2.5 32t2.5 29t1.5 21t-0.5 8q-2 2 -8 3.5t-12.5 2.5t-12 1.5t-5.5 2.5q0 1 -0.5 6.5t-0.5 10.5t1.5 9.5t4.5 4.5t19.5 -3t35 -6.5t33.5 -7t15 -4.5t-1 -5.5t-2.5 -9t-4 -8t-3.5 -3.5q-4 0 -14.5 1.5t-11.5 -1.5q0 -1 -2 -17.5t-5 -40.5
t-6 -52t-6 -52.5t-5.5 -42t-3.5 -20.5q-2 -4 -6 -5.5t-9 -0.5t-9.5 2.5t-5.5 3.5q-1 1 -5.5 12t-11 27t-14.5 34t-14.5 34t-11 27t-5.5 13q-1 -3 -7 -25.5t-13.5 -49t-13.5 -49t-7 -23.5t-6 -2.5t-10 -2.5t-10 -0.5t-6 3.5q-1 1 -4.5 15.5t-8 34.5t-10.5 43.5t-10.5 43.5
t-8 34t-4.5 15q-3 3 -10 -0.5t-9 -5.5z" />
    <glyph glyph-name="x" unicode="x" horiz-adv-x="224" 
d="M214 248q3 -2 2.5 -7t-3.5 -10t-6.5 -9t-6.5 -3q-5 2 -13 6t-9 4l-51 -96l53 -69q5 4 9 8q4 3 7.5 6.5t6.5 5.5t6 0t6 -6t4 -7.5t0 -4.5q-1 -2 -10 -13t-20 -24.5t-20.5 -25t-11.5 -13.5q-3 -2 -7.5 1.5t-8 8t-5.5 10t1 8.5q5 6 11.5 12.5t7.5 8.5q1 1 -12.5 19.5
t-32.5 42.5q-17 -32 -29.5 -57t-11.5 -25q0 -1 4 -3.5t9 -6t9.5 -6t7.5 -3.5t1.5 -6.5t-5 -11.5t-8 -10t-7.5 -1q-3 2 -14 10t-24 17t-23.5 16.5t-12.5 9.5q-2 4 3.5 14t10.5 9t13 -6.5t9 -3.5l4.5 7.5t11 20t15 29t17.5 33.5q-10 13 -19.5 25.5t-17 22t-12.5 15.5l-5 6
q-2 2 -8.5 -4t-9.5 -7q-2 0 -6 3.5t-7 8.5t-4 10.5t3 8.5q3 3 10 8.5t15 11.5t15 11t11 7q3 2 7 -0.5t7 -6.5t4.5 -8.5t-0.5 -5.5q-4 -6 -7 -9l-5 -5l46 -60l15.5 31t12.5 26q6 13 12 24q-6 2 -17 9q-3 1 -2.5 5.5t3 9t6 8t6.5 2.5q4 0 14 -3.5t21.5 -8t21.5 -9t13 -5.5z
" />
    <glyph glyph-name="y" unicode="y" horiz-adv-x="207" 
d="M123 198q-2 0 -3 4t-2 8.5t-0.5 8.5t3.5 4q2 1 10.5 2t18 2.5t18 2t11.5 0.5q3 -1 5 -6t3 -11t0.5 -10.5t-3.5 -5.5h-14q0 -10 1 -34t2.5 -56t3 -69.5t1.5 -73.5q15 2 28 4t24 3t22 1q6 1 8 -4t2 -12t-2.5 -12.5t-5.5 -4.5q-1 0 -24 -1.5t-52 -6.5q0 -50 -4 -86.5
t-14 -44.5q-14 -11 -36 -8t-41.5 16.5t-30.5 35.5t-2 49q7 25 35 40t61 24q-1 17 -1 32.5t-1 27.5q-1 14 -1 26l-5.5 -7t-15.5 -15t-23.5 -15t-29.5 -7q-19 1 -29 16.5t-15 38.5t-5 50t2 50.5t4 39.5t2 18q1 5 -8 3t-14 0q-3 1 -4 5t-1 9.5t1.5 10t4.5 5.5t13 1.5t21 0
t21 -1t12 -0.5q3 0 4 -4t1 -9t-1.5 -9.5t-2.5 -4.5q-2 -1 -7.5 -1t-6.5 -2q0 -1 -2 -14.5t-4 -33.5t-3.5 -43.5t0 -43.5t6.5 -34t15 -14q15 -1 27 9t20 23q10 15 17 34q-1 17 -1 35v64zM81 -115q-5 -14 1.5 -27t17 -22t21.5 -11.5t15 4.5q6 11 8 37.5t2 58.5
q-24 -6 -42.5 -16t-22.5 -24z" />
    <glyph glyph-name="z" unicode="z" horiz-adv-x="231" 
d="M4 253q0 4 5.5 5.5t11.5 1.5t11.5 -1.5t5.5 -4.5q0 -5 -0.5 -13t1.5 -8q1 0 19.5 -1t42 -1.5t45 -1.5t29.5 -1q15 0 14.5 -8t-3.5 -15q-1 -2 -8 -15.5t-17.5 -33t-21.5 -41t-20.5 -40t-15.5 -30.5t-5 -12h15h30t29.5 0.5t14.5 1.5q1 2 0.5 13t-0.5 15q0 2 5 3t10.5 1
t10.5 -0.5t5 -2.5v-15.5t-0.5 -28.5t-0.5 -28v-14t-4 -2.5t-8.5 -2t-8.5 0.5t-5 4q-1 7 -1.5 15t-2.5 8h-16.5h-34t-34 -0.5t-16.5 -1.5q-1 0 -4.5 -6.5t-9.5 -11.5t-14 -5t-18 11t-8 18.5t9 12.5t20 9l41 82q7 15 14.5 30.5t13.5 27.5t9.5 19.5t3.5 8.5t-16 1t-35.5 -0.5
t-36 -1t-17.5 -1.5q-2 0 -2.5 -8.5t-1.5 -19t-1 -20v-10.5q0 -2 -4 -3.5t-9.5 -1.5t-9.5 1.5t-4 4.5t-0.5 20.5t-0.5 38t-0.5 38t-0.5 20.5z" />
    <glyph glyph-name="braceleft" unicode="{" horiz-adv-x="187" 
d="M161 485q3 -1 5 -6.5t2.5 -12.5t-0.5 -12t-4 -4t-14 2t-23 -1.5t-21.5 -11t-8.5 -27.5t4 -45.5t6.5 -53.5t7 -50t4.5 -35q1 -11 -3 -22t-9 -19t-10 -13.5t-6 -6.5q2 0 12.5 -12t13.5 -27q1 -5 1 -20t-0.5 -34.5t-0.5 -41t1 -40t3.5 -32t7.5 -16.5q15 -9 26.5 -5t16.5 8
q2 2 5 -1.5t5.5 -8.5t3.5 -10t-1 -7t-15.5 -7.5t-30 -6t-31 7t-18.5 31.5q-5 27 -4 54t2 52t0.5 46t-7.5 35q-8 14 -17 17t-18 1.5t-17 -4.5t-14 -1t-8.5 8t-3 12.5t1.5 11t6 4.5t13 -1t19.5 0t20 6t15.5 16q6 12 6 34.5t-3 51t-7.5 60t-7.5 61.5t10 45.5t30.5 22.5t34 8
t19.5 0z" />
    <glyph glyph-name="bar" unicode="|" horiz-adv-x="77" 
d="M10 464q1 4 6 6t10.5 2.5t10.5 -1t5 -4.5q0 -2 1 -31t3 -76.5t4 -107t4 -121.5t4.5 -121.5t4 -107t3 -76.5t1.5 -31q0 -4 -5 -6.5t-11 -2.5t-10.5 2.5t-4.5 9.5q0 3 -1 33t-3 77t-4.5 106t-5 120t-5 119.5t-4.5 104.5t-2.5 75t-0.5 31z" />
    <glyph glyph-name="braceright" unicode="}" horiz-adv-x="195" 
d="M28 -91q-3 0 -5 6t-2.5 12.5t0.5 12t4 4.5t14 -2t23 1t21.5 10.5t8.5 27.5q0 19 -3 41t-6.5 43.5t-6.5 40t-4 30.5q-1 11 2.5 21.5t8 19t9 14t6.5 6.5q-2 1 -11.5 13t-12.5 26q-7 25 -7.5 57t0.5 62t0.5 52.5t-7.5 29.5q-13 12 -26 10.5t-18 -4.5q-2 -2 -4.5 2t-4.5 9
t-2.5 10.5t1.5 7.5q2 1 16.5 3.5t31 0t30.5 -11t16 -29.5q1 -27 0.5 -56.5t-1 -57.5t1.5 -51.5t9 -37.5t16.5 -17t18.5 -1.5t17 4.5t14 1t8.5 -8t3 -12.5t-1.5 -11t-6 -4.5t-13 1t-19.5 0t-20 -6t-15.5 -16q-6 -12 -6.5 -30t2 -40.5t7 -49.5t7.5 -57t-10 -45.5t-30.5 -22.5
t-34 -8t-19.5 0z" />
    <glyph glyph-name="asciitilde" unicode="~" horiz-adv-x="240" 
d="M35 157q-2 -3 -7.5 -3t-11 3t-9.5 7.5t-1 9.5t9 19t15 28.5t20 26t22 11.5q16 1 26 -12t17.5 -29t15.5 -30.5t20 -16.5q9 -2 18 4.5t16.5 16t13 18.5t8.5 14q2 4 6.5 4t9 -3t7 -7.5t1.5 -8.5q-2 -3 -7.5 -16t-16.5 -26.5t-26.5 -23.5t-36.5 -7q-14 2 -24 15.5t-18 29
t-15 28.5t-13 14t-12.5 -8t-12 -21t-9.5 -23t-5 -14z" />
    <glyph glyph-name="exclamdown" unicode="&#xa1;" horiz-adv-x="96" 
d="M40 7.02441q1 -4.99902 6 -7.49902t10.5 -2.5t10 2t4.5 5q0 1.99902 -1 26.998q-1 24.998 -2 61.9961t-2.5 79.4951t-2.5 79.4951t-2 61.9961q-1 24.999 -1 25.999q0 1.99902 -5 3.99902t-10.5 2t-10.5 -2t-5 -6.99902q0 -3 0.5 -27.999q0.5 -24.998 1.5 -60.4961
t2.5 -76.4951t2.5 -76.4951t2 -59.9961q1 -24.499 2 -28.499zM23 388.002q0 -13 7 -17.999q7 -5 15 -4t14 6.99902q6 6 5 15q-1 10.999 -7.5 16.998q-6.5 6 -14 6t-13.5 -5.5q-6 -5.49902 -6 -17.498z" />
    <glyph glyph-name="cent" unicode="&#xa2;" horiz-adv-x="192" 
d="M71 399q1 5 5.5 7.5t10 3t10 -1t5.5 -4.5q0 -2 1 -34.5t3 -80.5q19 -4 30.5 -16t16.5 -20q3 -5 0.5 -9t-7.5 -7t-10 -3.5t-6 1.5q-2 3 -7.5 10t-15.5 12l4 -154q14 3 25.5 9.5t16.5 11.5q3 2 6.5 -1t7 -7.5t5 -9.5t-0.5 -6q-5 -3 -21.5 -13.5t-37.5 -15.5q1 -27 1 -45.5
v-19.5q0 -3 -4.5 -4.5t-10 -1.5t-10 2t-4.5 5q0 2 -0.5 19t-1.5 43q-26 3 -49 22.5t-27 69.5q-2 27 3.5 48t15.5 37t23 26t26 15q-2 45 -3 76.5t0 35.5zM37 165q2 -29 15.5 -43t27.5 -19l-5 152q-17 -10 -28.5 -34.5t-9.5 -55.5z" />
    <glyph glyph-name="sterling" unicode="&#xa3;" horiz-adv-x="297" 
d="M211 215q4 1 6.5 -3.5t3 -10.5t-0.5 -11.5t-4 -5.5q-2 -1 -27 -3t-55 -5q3 -63 -1 -90.5t-6 -29.5q-2 -1 20 0.5t49.5 3.5t52.5 3.5t28 0.5q3 0 5 -6.5t2 -13.5t-2 -12.5t-6 -3.5q-3 1 -16.5 0.5t-32 -1t-39.5 -2t-38.5 -2.5t-29.5 -2l-12 -1q-6 -7 -22 -12t-34 -5
t-32 8.5t-15 28.5q-1 8 12.5 11.5t30 4.5t30.5 0t15 -1q2 -1 8 29t2 90q-25 -2 -43.5 -3t-21.5 1q-3 1 -5.5 5t-2.5 8.5t2 8.5t7 4l61 6l-2 23q-6 43 -1.5 73.5t15.5 51t27 30.5t33 12q16 1 28 -5.5t20.5 -16.5t13 -20t5.5 -14q1 -5 -3 -8.5t-9.5 -5t-11 -0.5t-8.5 5
q-2 4 -4 9.5t-5.5 10.5t-10 8t-16.5 2q-9 -1 -18 -8t-15.5 -22t-9 -38.5t0.5 -57.5l2 -27q29 3 52.5 5t27.5 4z" />
    <glyph glyph-name="currency" unicode="&#xa4;" horiz-adv-x="243" 
d="M104 253q21 3 40 -2q10 23 16 39t8 20q1 6 6.5 6t10.5 -3t9 -7.5t3 -8.5q-1 -2 -7 -18.5t-17 -42.5q16 -12 26 -31t12 -40.5t-3 -43t-19 -39.5q17 -20 27 -34t11 -15q1 -2 -1.5 -6t-6 -7.5t-8 -6t-5.5 -1.5q-2 0 -13 13.5t-29 34.5q-7 -4 -14.5 -7.5t-16.5 -5.5
q-24 -8 -43 -6q-19 -40 -21 -42q-2 -1 -7 0t-9.5 3t-7.5 6t0 9l13 33q-19 10 -29.5 30t-12.5 43t4 47t20 43q-14 17 -23 28.5t-10 13.5q-2 4 0.5 8.5t6.5 8.5t8.5 5.5t7.5 -0.5q2 -2 11 -12.5t23 -27.5q18 13 40 16zM110 224q-20 -5 -34.5 -20t-21.5 -34t-7 -39t8 -34.5
t25 -21.5t43 1q24 7 37.5 22t18 32.5t1.5 36t-12.5 33t-24.5 21.5t-33 3z" />
    <glyph glyph-name="yen" unicode="&#xa5;" horiz-adv-x="264" 
d="M233 196q6 2 9 -1.5t3.5 -8.5t0 -10t-2.5 -6t-19.5 -5t-41.5 -9l-5 -31l58 6q5 0 8 -4.5t4 -10.5t-1 -11t-6 -5l-68 -7q-7 -37 -11 -61.5t-5 -26.5q-1 -3 -6 -3.5t-10.5 1t-10 4.5t-3.5 8q0 5 3.5 27t8.5 48q-23 -2 -41 -3t-20 0q-5 2 -7 12t7 13q4 2 23.5 4.5t43.5 4.5
q2 8 2.5 15.5t1.5 12.5q-26 -5 -46 -9t-22 -3q-3 0 -5 4.5t-3 9t0.5 9t4.5 4.5q3 1 21.5 4t42.5 8q-12 12 -33.5 33t-43.5 42.5t-39 38.5t-20 22t-0.5 9t7.5 7t10.5 4t7.5 0l11 -11t24 -24.5t30.5 -31.5t30.5 -31t23 -22.5t10 -6.5q0 1 3 16.5t7 37.5t8.5 47t8.5 47.5
t6.5 38t3.5 18.5q0 4 5 5t10 -0.5t9.5 -4.5t3.5 -6l-36 -218q17 3 29 6z" />
    <glyph glyph-name="brokenbar" unicode="&#xa6;" horiz-adv-x="78" 
d="M10 464q1 4 6 6t10.5 2.5t10.5 -1t5 -4.5q0 -2 1 -23.5t2 -52t2.5 -65.5t2.5 -66t1.5 -52.5t0.5 -23.5q0 -4 -5 -6.5t-11 -2.5t-10.5 2.5t-4.5 9.5q0 4 -1 26t-2.5 51.5t-3 63.5t-2.5 63.5t-2 49.5t0 23zM22 140q2 8 16 9.5t16 -5.5q0 -2 1 -28t2.5 -64.5t3 -82t3 -82
t2.5 -64.5t1 -28q-1 -4 -5.5 -6.5t-10 -2.5t-10.5 2.5t-5 9.5q0 4 -1.5 30.5t-3.5 63.5t-3.5 79.5t-3 79t-2.5 61.5t0 28z" />
    <glyph glyph-name="section" unicode="&#xa7;" horiz-adv-x="185" 
d="M13 246q0 34 19 52.5t45.5 24.5t52.5 1.5t40 -14.5q4 -4 3.5 -9.5t-4 -10t-8 -7t-7.5 -1.5q-21 11 -40.5 12t-34.5 -4.5t-24 -16.5t-9 -24q-1 -11 8.5 -17.5t23.5 -11.5t30.5 -10t30.5 -13t23 -20t9 -32q0 -25 -17 -42q14 -14 14 -37q0 -29 -17.5 -43t-40.5 -17t-46 3
t-36 17q-5 4 -2.5 10t7.5 10.5t10.5 7t7.5 0.5q9 -11 23.5 -15.5t29 -3t25 8.5t10.5 19q0 19 -20 28.5t-44 18t-44.5 20.5t-20.5 36q0 31 16 50q-13 13 -13 30zM142 143q0 12 -8 19.5t-21 13t-28 10.5t-29 11q-13 -13 -13 -28q-1 -10 7 -16.5t21 -11t28 -9t29 -11.5
q14 8 14 22z" />
    <glyph glyph-name="dieresis" unicode="&#xa8;" horiz-adv-x="99" 
d="M55 368q0 9 5.5 15t14.5 6q8 0 14 -6t6 -15q0 -8 -6 -14t-14 -6q-9 0 -14.5 6t-5.5 14zM3 363q0 8 5.5 13.5t13.5 5.5t14 -5.5t6 -13.5t-6 -13.5t-14 -5.5t-13.5 5.5t-5.5 13.5z" />
    <glyph glyph-name="copyright" unicode="&#xa9;" horiz-adv-x="328" 
d="M153 440q33 2 61 -18t48.5 -55t31.5 -80.5t10 -93.5q-1 -47 -14 -88.5t-34.5 -73t-51.5 -49t-65 -15.5q-36 2 -61.5 28t-42 63t-24 79t-6.5 76q1 37 13 77t32 72.5t46.5 54t56.5 23.5zM152 405q-15 -1 -34 -13.5t-36.5 -37t-29.5 -60t-14 -82.5t7 -86t25 -67t36 -43.5
t40 -15.5t40.5 9t37.5 31t29.5 59t16.5 94q3 53 -9 93t-31 66.5t-41 40t-37 12.5zM189 335q0 3 5 4t10.5 0.5t10 -3.5t3.5 -7q0 -4 -2 -17t-3.5 -28t-3 -27.5t-1.5 -13.5q-1 -4 -13 -4.5t-14 4.5q-1 2 -3 10t-6.5 16.5t-11 14.5t-16.5 5t-17 -10t-11.5 -22.5t-6 -29
t-0.5 -29.5q1 -15 2.5 -32.5t6 -32.5t12.5 -24.5t22 -9.5q11 0 16.5 6.5t7.5 14.5t1.5 16.5t-0.5 12.5t4.5 6t10 2.5t10 -1t4.5 -4.5t1 -15.5t2.5 -27t3 -26.5t1.5 -15q0 -2 -3.5 -5t-8 -5t-9 -2t-4.5 3q-2 7 -3.5 13t-3.5 6t-9 -5.5t-19 -5.5q-7 0 -18.5 2t-23 14
t-20.5 36.5t-12 69.5q-2 43 5 69t17.5 40t21.5 18.5t17 5.5q13 1 21.5 -1.5t13 -6.5t6.5 -7.5t3 -3.5q2 1 2 13t2 19z" />
    <glyph glyph-name="registered" unicode="&#xae;" horiz-adv-x="328" 
d="M153 440q33 2 61 -18t48.5 -55t31.5 -80.5t10 -93.5q-1 -47 -14 -88.5t-34.5 -73t-51.5 -49t-65 -15.5q-36 2 -61.5 28t-42 63t-24 79t-6.5 76q1 37 13 77t32 72.5t46.5 54t56.5 23.5zM152 405q-15 -1 -34 -13.5t-36.5 -37t-29.5 -60t-14 -82.5t7 -86t25 -67t36 -43.5
t40 -15.5t40.5 9t37.5 31t29.5 59t16.5 94q3 53 -9 93t-31 66.5t-41 40t-37 12.5zM145 329q7 2 9.5 -8.5t-1.5 -14.5q-4 -3 -7.5 -3.5t-4.5 -2.5q0 -1 0.5 -8t1 -15t1.5 -15t2 -8q0 -1 3.5 7.5t10.5 18.5t18 18t26 8q15 -1 21.5 -20t8.5 -42t1 -43t-1 -22q0 -3 -5 -4.5
t-11.5 -1.5t-11.5 1.5t-5 4.5t0.5 17.5t0.5 30.5t-2 29t-7 13q-5 1 -11.5 -8.5t-13 -25t-11 -36.5t-4.5 -44t-0.5 -34t-0.5 -15.5t0 -4t1 0.5h15.5t17.5 1q2 0 3.5 -4t2 -9.5t-0.5 -10t-4 -4.5l-86 -11q-2 8 -4 15q-2 6 -2 10.5t3 5.5q5 2 12.5 2.5t9.5 2.5q1 1 -0.5 16.5
t-2.5 65.5q-2 51 -4.5 80t-3.5 29q-4 -1 -13 -3t-15 -4q-4 -1 -6 2.5t-3 8.5t0 9.5t4 5.5t12.5 3.5t21 5.5t22 6t13.5 4z" />
    <glyph glyph-name="macron" unicode="&#xaf;" horiz-adv-x="115" 
d="M103 385q3 0 6 -3.5t4 -8.5t0 -9.5t-4 -5.5q-3 0 -17.5 -3t-31 -6t-31.5 -5t-18 -2q-7 2 -9.5 14.5t4.5 14.5q3 1 17.5 3t31 4.5t30.5 4.5t18 2z" />
    <glyph glyph-name="acute" unicode="&#xb4;" horiz-adv-x="104" 
d="M71 412q3 3 8 1.5t9.5 -4.5t8 -7t2.5 -7t-12.5 -15t-25 -25.5t-25.5 -25t-14 -12.5q-1 0 -10.5 6t-6.5 14q1 4 11 15t21 23.5t21 23t13 13.5z" />
    <glyph glyph-name="mu" unicode="&#xb5;" horiz-adv-x="315" 
d="M36 270q-3 0 -5 4.5t-2 10t1 10t4 4.5l86 15q3 1 5.5 -4t4 -11.5t1.5 -12t-1 -5.5t-7 -0.5t-12.5 -1.5t-11.5 -2.5t-5 -3.5q0 -24 5 -60.5t14 -71.5t23 -60t32 -25q19 0 31.5 25t19 57.5t8.5 63t0 42.5q0 1 -4.5 0t-9.5 -2.5t-10 -2.5t-6 1q-1 1 -2.5 5t-2 9t0 9t3.5 5
t15 4t26 6t26 5t14 2q3 0 5.5 -3t4 -7t2 -7.5t-0.5 -4.5q-1 0 -6 -1.5l-10 -3t-9.5 -3.5t-4.5 -4v-19.5t0.5 -46t1 -59t1 -58t1.5 -45t2 -18.5q3 -1 15.5 -2t17.5 -1q2 0 3.5 -4t1.5 -9.5t-0.5 -9.5t-1.5 -4t-14.5 -1t-30 -1.5t-31 -1t-17.5 0.5q-5 1 -5.5 11t5.5 12
q6 1 17 2.5t11 6.5q0 2 -0.5 13t-1.5 23q-1 14 -2 31q-7 -12 -16 -23q-8 -9 -19 -17t-25 -9q-15 -1 -27.5 7.5t-22 19.5t-15 21t-5.5 12q-1 -43 -1 -77v-29t0.5 -25t1.5 -18t2 -7q2 0 10 -0.5t17 -1t16.5 -1t9.5 -0.5t3.5 -5t1.5 -11t-1.5 -11t-4.5 -5h-25.5t-49 0.5
t-48.5 1.5t-25 2q-5 2 -4 15t7 15q3 1 11.5 1h18t18 0.5t10.5 1.5q1 1 2 26.5t0.5 63.5t-1 82.5t-1.5 82.5t-2.5 63.5t-2.5 26.5q-4 2 -13.5 -0.5t-14.5 -2.5z" />
    <glyph glyph-name="mu" unicode="&#x3bc;" horiz-adv-x="315" 
d="M36 270q-3 0 -5 4.5t-2 10t1 10t4 4.5l86 15q3 1 5.5 -4t4 -11.5t1.5 -12t-1 -5.5t-7 -0.5t-12.5 -1.5t-11.5 -2.5t-5 -3.5q0 -24 5 -60.5t14 -71.5t23 -60t32 -25q19 0 31.5 25t19 57.5t8.5 63t0 42.5q0 1 -4.5 0t-9.5 -2.5t-10 -2.5t-6 1q-1 1 -2.5 5t-2 9t0 9t3.5 5
t15 4t26 6t26 5t14 2q3 0 5.5 -3t4 -7t2 -7.5t-0.5 -4.5q-1 0 -6 -1.5l-10 -3t-9.5 -3.5t-4.5 -4v-19.5t0.5 -46t1 -59t1 -58t1.5 -45t2 -18.5q3 -1 15.5 -2t17.5 -1q2 0 3.5 -4t1.5 -9.5t-0.5 -9.5t-1.5 -4t-14.5 -1t-30 -1.5t-31 -1t-17.5 0.5q-5 1 -5.5 11t5.5 12
q6 1 17 2.5t11 6.5q0 2 -0.5 13t-1.5 23q-1 14 -2 31q-7 -12 -16 -23q-8 -9 -19 -17t-25 -9q-15 -1 -27.5 7.5t-22 19.5t-15 21t-5.5 12q-1 -43 -1 -77v-29t0.5 -25t1.5 -18t2 -7q2 0 10 -0.5t17 -1t16.5 -1t9.5 -0.5t3.5 -5t1.5 -11t-1.5 -11t-4.5 -5h-25.5t-49 0.5
t-48.5 1.5t-25 2q-5 2 -4 15t7 15q3 1 11.5 1h18t18 0.5t10.5 1.5q1 1 2 26.5t0.5 63.5t-1 82.5t-1.5 82.5t-2.5 63.5t-2.5 26.5q-4 2 -13.5 -0.5t-14.5 -2.5z" />
    <glyph glyph-name="paragraph" unicode="&#xb6;" horiz-adv-x="317" 
d="M136 423q2 0 14 -0.5t29.5 -1.5t37.5 -2t37 -2t29.5 -2t14.5 -2q3 0 3 -5t-1 -10.5t-3 -10t-4 -4.5q-3 -2 -20 0q-1 -24 -2.5 -64.5t-2.5 -89t-2.5 -100t-2.5 -98.5t-2 -84.5t-1 -57.5h19t9 -1q2 -1 2.5 -5.5t0.5 -9t-1.5 -8.5t-2.5 -4t-15.5 -0.5t-36 -0.5h-46.5h-46.5
h-36h-15.5q-2 0 -2.5 5t0 11.5t2 11.5t4.5 5t13 -0.5t21.5 -0.5h21h9.5q0 17 1 38q1 18 1.5 42t2.5 53q-11 -15 -26 -23t-37 -4q-36 7 -56.5 40.5t-27.5 78.5t-3 95t17 92t33 68.5t44 24.5q23 -2 39 -20t26 -44q1 23 1.5 37.5t0.5 15.5q0 2 -6 4t-13 3t-14.5 2t-10.5 2
q-5 2 -3.5 13.5t7.5 12.5zM209 385l-1 -21t-2.5 -55.5t-3 -78.5t-2.5 -90t-2.5 -90.5t-2 -79.5t-1 -56.5t0.5 -22.5t9.5 -1t21.5 -1q1 20 2 58t2.5 84.5t3 98.5t3 100t2.5 88.5t2 65.5q-13 0 -22 0.5t-10 0.5z" />
    <glyph glyph-name="periodcentered" unicode="&#xb7;" horiz-adv-x="59" 
d="M6 175q0 11 6.5 19.5t16.5 8.5t16.5 -8.5t6.5 -19.5t-6.5 -19.5t-16.5 -8.5t-16.5 8.5t-6.5 19.5z" />
    <glyph glyph-name="cedilla" unicode="&#xb8;" horiz-adv-x="145" 
d="M19 11q1 4 6.5 5t11.5 1t11 -2t5 -4q0 -3 -1.5 -12.5t-3 -20t-1.5 -19.5t3 -9t16 1t29 -1.5t29.5 -11t16.5 -27.5t-13.5 -30.5t-39.5 -17.5t-45.5 -8t-31.5 -1t-10.5 6.5t1 12t7 11t7.5 4.5t18 0.5t31 2.5t29 6.5t13 11.5t-9 9.5t-21.5 2.5t-25.5 -0.5t-20 -0.5t-11 2
t-4 11v17.5t0.5 23.5t1 22.5t1.5 14.5z" />
    <glyph glyph-name="questiondown" unicode="&#xbf;" horiz-adv-x="254" 
d="M230.001 50.0205q5 2 9 -2.5q3.99902 -4.49902 5.99902 -10.499t1.5 -11.499q-0.5 -5.5 -4.49902 -7.5q-3 -1 -17.999 -4.99902q-14.999 -4 -36.498 -7.5t-47.4971 -5t-50.4971 3.5q-24.498 5 -44.4971 17.499t-30.998 36.498q-9 20.999 -3 39.4971
q6 18.499 21.499 35.998t35.9971 32.498q20.499 14.999 39.498 27.498q18.999 12.5 33.498 22.999t17.499 17.499q3 7.99902 0.5 15.999q-2.5 7.99902 -7 13.999t-9.99902 9.99902q-5.5 4 -8.5 5q-2 1 0.5 6q2.5 4.99902 7 9.99902t9.49902 8.49902q5 3.5 9 0.5
q3 -2.99902 10.999 -11.999q7.99902 -8.99902 13.999 -20.998q6 -12 8 -25.999t-6 -27.998q-5 -9 -19.499 -19.999t-32.498 -22.998q-17.999 -12 -36.4971 -24.999q-18.499 -12.999 -32.998 -26.498q-14.5 -13.499 -20.999 -26.999q-6.5 -13.499 -1.5 -26.498
q10.999 -26.998 39.498 -33.998q28.498 -6.99902 59.4961 -4q30.998 3 56.9961 10q25.999 6.99902 30.998 8.99902zM140.007 370.001q0 -8.99902 -7 -15.499q-6.99902 -6.49902 -17.999 -6.49902q-9.99902 0 -17.498 6.49902q-7.5 6.5 -7.5 15.499q0 10 7.5 16.499
q7.49902 6.5 17.498 6.5q11 0 17.999 -6.5q7 -6.49902 7 -16.499z" />
    <glyph glyph-name="Agrave" unicode="&#xc0;" horiz-adv-x="232" 
d="M136 361q-3 1 -5.5 5t-3 9t1 9.5t5.5 6.5q4 1 16 2t25 1t24.5 0.5t15.5 0.5q3 1 5 -3.5t2.5 -10.5t-1 -11.5t-4.5 -5.5q-6 -2 -10.5 -1t-5.5 -4v-30.5v-73.5t0.5 -94.5t1.5 -93.5t2 -72t2 -29q3 0 11 1.5t12 0.5q2 0 3 -5t1 -10.5t-1 -10.5t-4 -5t-15 -0.5t-26 -1
t-26 -1.5t-16 -1t-6 3.5t-2 8t1.5 8.5t4.5 5q6 2 14.5 2.5t10.5 2.5q1 1 1.5 7t0.5 12.5t-1 12t-2 5.5h-9.5t-19.5 0.5t-28 3.5t-34 10q-35 13 -57 51.5t-16 113.5q3 37 13.5 66t26.5 48.5t35 30t39 10.5q12 0 20.5 -3t14 -6.5t8 -6t2.5 -1.5q1 1 1.5 8t0.5 14.5t-0.5 14
t-1.5 7.5q-2 2 -11 1t-16 -1zM167 40q1 0 1 18v44t-0.5 57t-1.5 57.5t-2 44.5t-1 20q-2 5 -12 11t-31 7q-11 1 -25.5 -6t-27.5 -22t-22.5 -39.5t-10.5 -58.5q-2 -35 2.5 -57t13 -35.5t19 -21t21.5 -12.5q10 -5 23 -7t24.5 -2t20 1t9.5 1zM75 489q-1 1 2 5t7.5 8.5t9.5 7.5
t7 1t10.5 -12.5t18.5 -23.5t18 -23.5t9 -12.5t-1.5 -5.5t-6 -7.5t-8 -6.5t-5.5 -0.5q-2 1 -11 12t-19.5 23.5t-20 23t-10.5 11.5z" />
    <glyph glyph-name="Aacute" unicode="&#xc1;" horiz-adv-x="232" 
d="M136 361q-3 1 -5.5 5t-3 9t1 9.5t5.5 6.5q4 1 16 2t25 1t24.5 0.5t15.5 0.5q3 1 5 -3.5t2.5 -10.5t-1 -11.5t-4.5 -5.5q-6 -2 -10.5 -1t-5.5 -4v-30.5v-73.5t0.5 -94.5t1.5 -93.5t2 -72t2 -29q3 0 11 1.5t12 0.5q2 0 3 -5t1 -10.5t-1 -10.5t-4 -5t-15 -0.5t-26 -1
t-26 -1.5t-16 -1t-6 3.5t-2 8t1.5 8.5t4.5 5q6 2 14.5 2.5t10.5 2.5q1 1 1.5 7t0.5 12.5t-1 12t-2 5.5h-9.5t-19.5 0.5t-28 3.5t-34 10q-35 13 -57 51.5t-16 113.5q3 37 13.5 66t26.5 48.5t35 30t39 10.5q12 0 20.5 -3t14 -6.5t8 -6t2.5 -1.5q1 1 1.5 8t0.5 14.5t-0.5 14
t-1.5 7.5q-2 2 -11 1t-16 -1zM167 40q1 0 1 18v44t-0.5 57t-1.5 57.5t-2 44.5t-1 20q-2 5 -12 11t-31 7q-11 1 -25.5 -6t-27.5 -22t-22.5 -39.5t-10.5 -58.5q-2 -35 2.5 -57t13 -35.5t19 -21t21.5 -12.5q10 -5 23 -7t24.5 -2t20 1t9.5 1zM147 509q3 3 8 1.5t9.5 -4.5t8 -7
t2.5 -7t-12.5 -15t-25 -25.5t-25.5 -25t-14 -12.5q-1 0 -10.5 6t-6.5 14q1 4 11 15t21 23.5t21 23t13 13.5z" />
    <glyph glyph-name="Acircumflex" unicode="&#xc2;" horiz-adv-x="232" 
d="M136 361q-3 1 -5.5 5t-3 9t1 9.5t5.5 6.5q4 1 16 2t25 1t24.5 0.5t15.5 0.5q3 1 5 -3.5t2.5 -10.5t-1 -11.5t-4.5 -5.5q-6 -2 -10.5 -1t-5.5 -4v-30.5v-73.5t0.5 -94.5t1.5 -93.5t2 -72t2 -29q3 0 11 1.5t12 0.5q2 0 3 -5t1 -10.5t-1 -10.5t-4 -5t-15 -0.5t-26 -1
t-26 -1.5t-16 -1t-6 3.5t-2 8t1.5 8.5t4.5 5q6 2 14.5 2.5t10.5 2.5q1 1 1.5 7t0.5 12.5t-1 12t-2 5.5h-9.5t-19.5 0.5t-28 3.5t-34 10q-35 13 -57 51.5t-16 113.5q3 37 13.5 66t26.5 48.5t35 30t39 10.5q12 0 20.5 -3t14 -6.5t8 -6t2.5 -1.5q1 1 1.5 8t0.5 14.5t-0.5 14
t-1.5 7.5q-2 2 -11 1t-16 -1zM167 40q1 0 1 18v44t-0.5 57t-1.5 57.5t-2 44.5t-1 20q-2 5 -12 11t-31 7q-11 1 -25.5 -6t-27.5 -22t-22.5 -39.5t-10.5 -58.5q-2 -35 2.5 -57t13 -35.5t19 -21t21.5 -12.5q10 -5 23 -7t24.5 -2t20 1t9.5 1zM86 417q-2 -3 -7.5 -2.5t-11 3.5
t-9 7.5t-1.5 8.5t8 18.5t13 31t13.5 31.5t8.5 20q5 11 17.5 9.5t15.5 -7.5q1 -3 9 -19.5t16.5 -36t15.5 -36t7 -18.5t-4 -5t-9.5 -5.5t-11 -2.5t-6.5 4q-2 3 -7 16.5t-10 28t-9.5 25.5l-4.5 11l-4.5 -12.5t-10.5 -27t-11.5 -27.5t-6.5 -15z" />
    <glyph glyph-name="Atilde" unicode="&#xc3;" horiz-adv-x="232" 
d="M136 361q-3 1 -5.5 5t-3 9t1 9.5t5.5 6.5q4 1 16 2t25 1t24.5 0.5t15.5 0.5q3 1 5 -3.5t2.5 -10.5t-1 -11.5t-4.5 -5.5q-6 -2 -10.5 -1t-5.5 -4v-30.5v-73.5t0.5 -94.5t1.5 -93.5t2 -72t2 -29q3 0 11 1.5t12 0.5q2 0 3 -5t1 -10.5t-1 -10.5t-4 -5t-15 -0.5t-26 -1
t-26 -1.5t-16 -1t-6 3.5t-2 8t1.5 8.5t4.5 5q6 2 14.5 2.5t10.5 2.5q1 1 1.5 7t0.5 12.5t-1 12t-2 5.5h-9.5t-19.5 0.5t-28 3.5t-34 10q-35 13 -57 51.5t-16 113.5q3 37 13.5 66t26.5 48.5t35 30t39 10.5q12 0 20.5 -3t14 -6.5t8 -6t2.5 -1.5q1 1 1.5 8t0.5 14.5t-0.5 14
t-1.5 7.5q-2 2 -11 1t-16 -1zM167 40q1 0 1 18v44t-0.5 57t-1.5 57.5t-2 44.5t-1 20q-2 5 -12 11t-31 7q-11 1 -25.5 -6t-27.5 -22t-22.5 -39.5t-10.5 -58.5q-2 -35 2.5 -57t13 -35.5t19 -21t21.5 -12.5q10 -5 23 -7t24.5 -2t20 1t9.5 1zM70 420q-1 -3 -6 -3.5t-10.5 1.5
t-9.5 5.5t-2 7.5q1 4 4.5 14t9 21t13.5 20t19 10q9 1 17 -6.5t14.5 -16t12 -16t10.5 -6.5q8 2 13.5 11.5t7.5 17.5q1 3 5.5 3.5t9.5 -1.5t9 -5t4 -6t-3 -11.5t-9 -17.5t-14.5 -16.5t-20.5 -8.5q-10 -2 -18.5 5t-15 15.5t-12.5 15t-10 5.5q-3 -1 -6.5 -6.5t-5.5 -12.5
t-4 -12.5t-2 -6.5z" />
    <glyph glyph-name="Adieresis" unicode="&#xc4;" horiz-adv-x="232" 
d="M136 361q-3 1 -5.5 5t-3 9t1 9.5t5.5 6.5q4 1 16 2t25 1t24.5 0.5t15.5 0.5q3 1 5 -3.5t2.5 -10.5t-1 -11.5t-4.5 -5.5q-6 -2 -10.5 -1t-5.5 -4v-30.5v-73.5t0.5 -94.5t1.5 -93.5t2 -72t2 -29q3 0 11 1.5t12 0.5q2 0 3 -5t1 -10.5t-1 -10.5t-4 -5t-15 -0.5t-26 -1
t-26 -1.5t-16 -1t-6 3.5t-2 8t1.5 8.5t4.5 5q6 2 14.5 2.5t10.5 2.5q1 1 1.5 7t0.5 12.5t-1 12t-2 5.5h-9.5t-19.5 0.5t-28 3.5t-34 10q-35 13 -57 51.5t-16 113.5q3 37 13.5 66t26.5 48.5t35 30t39 10.5q12 0 20.5 -3t14 -6.5t8 -6t2.5 -1.5q1 1 1.5 8t0.5 14.5t-0.5 14
t-1.5 7.5q-2 2 -11 1t-16 -1zM167 40q1 0 1 18v44t-0.5 57t-1.5 57.5t-2 44.5t-1 20q-2 5 -12 11t-31 7q-11 1 -25.5 -6t-27.5 -22t-22.5 -39.5t-10.5 -58.5q-2 -35 2.5 -57t13 -35.5t19 -21t21.5 -12.5q10 -5 23 -7t24.5 -2t20 1t9.5 1zM122 465q0 9 5.5 15t14.5 6
q8 0 14 -6t6 -15q0 -8 -6 -14t-14 -6q-9 0 -14.5 6t-5.5 14zM70 460q0 8 5.5 13.5t13.5 5.5t14 -5.5t6 -13.5t-6 -13.5t-14 -5.5t-13.5 5.5t-5.5 13.5z" />
    <glyph glyph-name="Aring" unicode="&#xc5;" horiz-adv-x="232" 
d="M136 361q-3 1 -5.5 5t-3 9t1 9.5t5.5 6.5q4 1 16 2t25 1t24.5 0.5t15.5 0.5q3 1 5 -3.5t2.5 -10.5t-1 -11.5t-4.5 -5.5q-6 -2 -10.5 -1t-5.5 -4v-30.5v-73.5t0.5 -94.5t1.5 -93.5t2 -72t2 -29q3 0 11 1.5t12 0.5q2 0 3 -5t1 -10.5t-1 -10.5t-4 -5t-15 -0.5t-26 -1
t-26 -1.5t-16 -1t-6 3.5t-2 8t1.5 8.5t4.5 5q6 2 14.5 2.5t10.5 2.5q1 1 1.5 7t0.5 12.5t-1 12t-2 5.5h-9.5t-19.5 0.5t-28 3.5t-34 10q-35 13 -57 51.5t-16 113.5q3 37 13.5 66t26.5 48.5t35 30t39 10.5q12 0 20.5 -3t14 -6.5t8 -6t2.5 -1.5q1 1 1.5 8t0.5 14.5t-0.5 14
t-1.5 7.5q-2 2 -11 1t-16 -1zM167 40q1 0 1 18v44t-0.5 57t-1.5 57.5t-2 44.5t-1 20q-2 5 -12 11t-31 7q-11 1 -25.5 -6t-27.5 -22t-22.5 -39.5t-10.5 -58.5q-2 -35 2.5 -57t13 -35.5t19 -21t21.5 -12.5q10 -5 23 -7t24.5 -2t20 1t9.5 1zM106 529q25 4 40.5 -10t18.5 -33.5
t-8.5 -39t-39.5 -26.5t-42.5 8t-16 36t10.5 41t37 24zM107 500q-10 -3 -14 -13t-2.5 -20t7.5 -17t16 -5q13 3 18.5 13.5t4 21t-9 17.5t-20.5 3z" />
    <glyph glyph-name="AE" unicode="&#xc6;" horiz-adv-x="388" 
d="M264 14q10 -4 20 -3.5t18 3.5t13.5 7t5.5 7v14.5t-1 18.5q0 5 4 7.5t9.5 2.5t10.5 -2t5 -6q0 -5 3.5 -21t7.5 -34t7.5 -33.5t3.5 -19.5t-4 -8t-10 -6t-11 -2t-6 5q-1 4 -2.5 11t-3 13.5t-3 11.5t-2.5 5q-2 0 -8 -2.5t-15.5 -5.5t-22 -3.5t-26.5 4.5q-13 5 -27 15.5
t-26 30.5q1 -26 1.5 -42t1.5 -16q3 0 11 1.5t12 0.5q2 0 3 -5t1 -10.5t-1 -10.5t-4 -5t-15 -0.5t-26 -1t-26 -1.5t-16 -1t-6 3.5t-2 8t1.5 8.5t4.5 5q6 2 14.5 2.5t10.5 2.5q1 1 1.5 7t0.5 12.5t-1 12t-2 5.5h-9.5t-19.5 0.5t-28 3.5t-34 10q-35 13 -57 51.5t-16 113.5
q3 37 13.5 66t26.5 48.5t35 30t39 10.5q12 0 20.5 -3t14 -6.5t8 -6t2.5 -1.5q1 1 1.5 8t0.5 14.5t-0.5 14t-1.5 7.5q-2 2 -11 1t-16 -1q-3 1 -5.5 5t-3 9t1 9.5t5.5 6.5q4 1 16 2t25 1t24.5 0.5t15.5 0.5q3 1 5 -3.5t2.5 -10.5t-1 -11.5t-4.5 -5.5q-6 -2 -10.5 -1t-5.5 -4
v-51q14 26 33.5 41t41.5 17t39.5 -7.5t29 -25t17.5 -35.5t6 -39q0 -21 -8 -42t-22.5 -39t-36 -31t-49.5 -18q-26 -5 -46 -3q4 -32 10.5 -52.5t14.5 -33t16.5 -18t16.5 -8.5zM167 40q1 0 1 18v44t-0.5 57t-1.5 57.5t-2 44.5t-1 20q-2 5 -12 11t-31 7q-11 1 -25.5 -6
t-27.5 -22t-22.5 -39.5t-10.5 -58.5q-2 -35 2.5 -57t13 -35.5t19 -21t21.5 -12.5q10 -5 23 -7t24.5 -2t20 1t9.5 1zM245 159q40 9 64.5 37.5t24.5 60.5t-14 52.5t-43 20.5q-11 0 -24.5 -10t-24.5 -30.5t-18.5 -50.5t-5.5 -70v-12q19 -3 41 2z" />
    <glyph glyph-name="Ccedilla" unicode="&#xc7;" horiz-adv-x="200" 
d="M145 348q0 6 6 9t12.5 3t12.5 -2.5t6 -6.5t-0.5 -26t-0.5 -46.5t-0.5 -45t-0.5 -22.5t-4.5 -4t-9.5 -2.5t-10 1t-5 6.5q-1 5 -2 20t-5.5 30t-13.5 26t-24 10q-30 -3 -51 -42.5t-19 -101.5q1 -31 7 -57.5t15 -46t20 -30.5t22 -12q16 0 27.5 11t18.5 26t10 30t3 21
q0 7 4.5 9.5t10.5 2.5t10.5 -2.5t4.5 -5.5t-1 -24.5t-2 -47.5t-2 -48.5t-1 -26.5t-4.5 -6.5t-10 -3t-10 1.5t-4.5 8v13t0.5 16t1 15t0.5 10q-2 -3 -5.5 -9t-11 -11.5t-18.5 -9.5t-26 -4q-16 0 -32.5 13.5t-29.5 37.5t-21.5 57t-8.5 73q1 89 30 132t74 44q22 1 30 -6.5
t10 -11.5q-1 5 -1.5 15t-0.5 21zM86 -16q1 4 6.5 5t11.5 1t11 -2t5 -4q0 -3 -1.5 -12.5t-3 -20t-1.5 -19.5t3 -9t16 1t29 -1.5t29.5 -11t16.5 -27.5t-13.5 -30.5t-39.5 -17.5t-45.5 -8t-31.5 -1t-10.5 6.5t1 12t7 11t7.5 4.5t18 0.5t31 2.5t29 6.5t13 11.5t-9 9.5t-21.5 2.5
t-25.5 -0.5t-20 -0.5t-11 2t-4 11v17.5t0.5 23.5t1 22.5t1.5 14.5z" />
    <glyph glyph-name="Egrave" unicode="&#xc8;" 
d="M97 30q10 -4 20 -3.5t18 3t13.5 6.5t5.5 7q0 7 -0.5 15.5t-1.5 18.5q0 5 4.5 7.5t10 2.5t10.5 -2.5t5 -6.5t3.5 -20t7 -34t7 -33.5t4.5 -19.5q0 -4 -4 -8t-10 -6t-11 -2t-6 5q-1 4 -2.5 11t-3.5 13.5t-3.5 11.5t-2.5 5t-7 -2.5t-15.5 -5.5t-22 -3.5t-26.5 4.5t-29.5 17.5
t-28 35t-21 57t-8.5 83.5q-1 42 7.5 77t23 60.5t34 40.5t41.5 17t39.5 -7.5t29 -25.5t17 -35.5t5.5 -38.5q0 -21 -7.5 -42.5t-22 -39.5t-36 -31t-49.5 -17q-27 -4 -46 -3q3 -32 9.5 -52.5t15 -33t17 -18t16.5 -8.5zM77 175q41 9 65.5 37t24.5 60t-14 53t-43 21
q-11 0 -24.5 -10.5t-25 -30.5t-18.5 -50.5t-6 -70.5q0 -8 1 -11q8 -2 18 -1.5t22 3.5zM62 489q-1 1 2 5t7.5 8.5t9.5 7.5t7 1t10.5 -12.5t18.5 -23.5t18 -23.5t9 -12.5t-1.5 -5.5t-6 -7.5t-8 -6.5t-5.5 -0.5q-2 1 -11 12t-19.5 23.5t-20 23t-10.5 11.5z" />
    <glyph glyph-name="Eacute" unicode="&#xc9;" 
d="M97 30q10 -4 20 -3.5t18 3t13.5 6.5t5.5 7q0 7 -0.5 15.5t-1.5 18.5q0 5 4.5 7.5t10 2.5t10.5 -2.5t5 -6.5t3.5 -20t7 -34t7 -33.5t4.5 -19.5q0 -4 -4 -8t-10 -6t-11 -2t-6 5q-1 4 -2.5 11t-3.5 13.5t-3.5 11.5t-2.5 5t-7 -2.5t-15.5 -5.5t-22 -3.5t-26.5 4.5t-29.5 17.5
t-28 35t-21 57t-8.5 83.5q-1 42 7.5 77t23 60.5t34 40.5t41.5 17t39.5 -7.5t29 -25.5t17 -35.5t5.5 -38.5q0 -21 -7.5 -42.5t-22 -39.5t-36 -31t-49.5 -17q-27 -4 -46 -3q3 -32 9.5 -52.5t15 -33t17 -18t16.5 -8.5zM77 175q41 9 65.5 37t24.5 60t-14 53t-43 21
q-11 0 -24.5 -10.5t-25 -30.5t-18.5 -50.5t-6 -70.5q0 -8 1 -11q8 -2 18 -1.5t22 3.5zM128 509q3 3 8 1.5t9.5 -4.5t8 -7t2.5 -7t-12.5 -15t-25 -25.5t-25.5 -25t-14 -12.5q-1 0 -10.5 6t-6.5 14q1 4 11 15t21 23.5t21 23t13 13.5z" />
    <glyph glyph-name="Ecircumflex" unicode="&#xca;" 
d="M97 30q10 -4 20 -3.5t18 3t13.5 6.5t5.5 7q0 7 -0.5 15.5t-1.5 18.5q0 5 4.5 7.5t10 2.5t10.5 -2.5t5 -6.5t3.5 -20t7 -34t7 -33.5t4.5 -19.5q0 -4 -4 -8t-10 -6t-11 -2t-6 5q-1 4 -2.5 11t-3.5 13.5t-3.5 11.5t-2.5 5t-7 -2.5t-15.5 -5.5t-22 -3.5t-26.5 4.5t-29.5 17.5
t-28 35t-21 57t-8.5 83.5q-1 42 7.5 77t23 60.5t34 40.5t41.5 17t39.5 -7.5t29 -25.5t17 -35.5t5.5 -38.5q0 -21 -7.5 -42.5t-22 -39.5t-36 -31t-49.5 -17q-27 -4 -46 -3q3 -32 9.5 -52.5t15 -33t17 -18t16.5 -8.5zM77 175q41 9 65.5 37t24.5 60t-14 53t-43 21
q-11 0 -24.5 -10.5t-25 -30.5t-18.5 -50.5t-6 -70.5q0 -8 1 -11q8 -2 18 -1.5t22 3.5zM75 415q-2 -3 -7.5 -2.5t-11 3.5t-9 7.5t-1.5 8.5t8 18.5t13 31t13.5 31.5t8.5 20q5 11 17.5 9.5t15.5 -7.5q1 -3 9 -19.5t16.5 -36t15.5 -36t7 -18.5t-4 -5t-9.5 -5.5t-11 -2.5t-6.5 4
q-2 3 -7 16.5t-10 28t-9.5 25.5l-4.5 11l-4.5 -12.5t-10.5 -27t-11.5 -27.5t-6.5 -15z" />
    <glyph glyph-name="Edieresis" unicode="&#xcb;" 
d="M97 30q10 -4 20 -3.5t18 3t13.5 6.5t5.5 7q0 7 -0.5 15.5t-1.5 18.5q0 5 4.5 7.5t10 2.5t10.5 -2.5t5 -6.5t3.5 -20t7 -34t7 -33.5t4.5 -19.5q0 -4 -4 -8t-10 -6t-11 -2t-6 5q-1 4 -2.5 11t-3.5 13.5t-3.5 11.5t-2.5 5t-7 -2.5t-15.5 -5.5t-22 -3.5t-26.5 4.5t-29.5 17.5
t-28 35t-21 57t-8.5 83.5q-1 42 7.5 77t23 60.5t34 40.5t41.5 17t39.5 -7.5t29 -25.5t17 -35.5t5.5 -38.5q0 -21 -7.5 -42.5t-22 -39.5t-36 -31t-49.5 -17q-27 -4 -46 -3q3 -32 9.5 -52.5t15 -33t17 -18t16.5 -8.5zM77 175q41 9 65.5 37t24.5 60t-14 53t-43 21
q-11 0 -24.5 -10.5t-25 -30.5t-18.5 -50.5t-6 -70.5q0 -8 1 -11q8 -2 18 -1.5t22 3.5zM107 450q0 9 5.5 15t14.5 6q8 0 14 -6t6 -15q0 -8 -6 -14t-14 -6q-9 0 -14.5 6t-5.5 14zM55 445q0 8 5.5 13.5t13.5 5.5t14 -5.5t6 -13.5t-6 -13.5t-14 -5.5t-13.5 5.5t-5.5 13.5z" />
    <glyph glyph-name="Igrave" unicode="&#xcc;" horiz-adv-x="208" 
d="M172 426q2 0 3.5 -5.5t1.5 -12t-0.5 -11.5t-2.5 -5t-12 -0.5t-21.5 -1.5t-21 -2.5l-9.5 -1.5q-1 -1 -1.5 -32.5t-1.5 -79t-2 -102.5t-1.5 -102t0 -78.5t1.5 -31.5h15t29 -0.5t29.5 -0.5h16.5q2 0 3.5 -4.5t2 -9.5t-1 -9.5t-4.5 -5.5q-2 -1 -15.5 -1.5t-32.5 -0.5
t-41 -0.5t-41 -0.5h-32.5h-15.5q-3 0 -4.5 4.5t-1 10.5t3 10.5t5.5 4.5h11t16.5 0.5t15.5 1.5t9 2l0.5 18.5t0.5 48.5v68v78q-1 93 -2 211q-16 1 -29 1h-22t-13 1q-5 1 -5 11.5t4 12.5q1 0 13.5 1.5t30.5 3t38.5 3.5t38.5 3.5t30.5 2.5t14.5 1zM47 542q-1 1 2 5t7.5 8.5
t9.5 7.5t7 1t10.5 -12.5t18.5 -23.5t18 -23.5t9 -12.5t-1.5 -5.5t-6 -7.5t-8 -6.5t-5.5 -0.5q-2 1 -11 12t-19.5 23.5t-20 23t-10.5 11.5z" />
    <glyph glyph-name="Iacute" unicode="&#xcd;" horiz-adv-x="208" 
d="M172 426q2 0 3.5 -5.5t1.5 -12t-0.5 -11.5t-2.5 -5t-12 -0.5t-21.5 -1.5t-21 -2.5l-9.5 -1.5q-1 -1 -1.5 -32.5t-1.5 -79t-2 -102.5t-1.5 -102t0 -78.5t1.5 -31.5h15t29 -0.5t29.5 -0.5h16.5q2 0 3.5 -4.5t2 -9.5t-1 -9.5t-4.5 -5.5q-2 -1 -15.5 -1.5t-32.5 -0.5
t-41 -0.5t-41 -0.5h-32.5h-15.5q-3 0 -4.5 4.5t-1 10.5t3 10.5t5.5 4.5h11t16.5 0.5t15.5 1.5t9 2l0.5 18.5t0.5 48.5v68v78q-1 93 -2 211q-16 1 -29 1h-22t-13 1q-5 1 -5 11.5t4 12.5q1 0 13.5 1.5t30.5 3t38.5 3.5t38.5 3.5t30.5 2.5t14.5 1zM108 562q3 3 8 1.5t9.5 -4.5
t8 -7t2.5 -7t-12.5 -15t-25 -25.5t-25.5 -25t-14 -12.5q-1 0 -10.5 6t-6.5 14q1 4 11 15t21 23.5t21 23t13 13.5z" />
    <glyph glyph-name="Icircumflex" unicode="&#xce;" horiz-adv-x="208" 
d="M172 426q2 0 3.5 -5.5t1.5 -12t-0.5 -11.5t-2.5 -5t-12 -0.5t-21.5 -1.5t-21 -2.5l-9.5 -1.5q-1 -1 -1.5 -32.5t-1.5 -79t-2 -102.5t-1.5 -102t0 -78.5t1.5 -31.5h15t29 -0.5t29.5 -0.5h16.5q2 0 3.5 -4.5t2 -9.5t-1 -9.5t-4.5 -5.5q-2 -1 -15.5 -1.5t-32.5 -0.5
t-41 -0.5t-41 -0.5h-32.5h-15.5q-3 0 -4.5 4.5t-1 10.5t3 10.5t5.5 4.5h11t16.5 0.5t15.5 1.5t9 2l0.5 18.5t0.5 48.5v68v78q-1 93 -2 211q-16 1 -29 1h-22t-13 1q-5 1 -5 11.5t4 12.5q1 0 13.5 1.5t30.5 3t38.5 3.5t38.5 3.5t30.5 2.5t14.5 1zM57 475q-2 -3 -7.5 -2.5
t-11 3.5t-9 7.5t-1.5 8.5t8 18.5t13 31t13.5 31.5t8.5 20q5 11 17.5 9.5t15.5 -7.5q1 -3 9 -19.5t16.5 -36t15.5 -36t7 -18.5t-4 -5t-9.5 -5.5t-11 -2.5t-6.5 4q-2 3 -7 16.5t-10 28t-9.5 25.5l-4.5 11l-4.5 -12.5t-10.5 -27t-11.5 -27.5t-6.5 -15z" />
    <glyph glyph-name="Idieresis" unicode="&#xcf;" horiz-adv-x="208" 
d="M172 426q2 0 3.5 -5.5t1.5 -12t-0.5 -11.5t-2.5 -5t-12 -0.5t-21.5 -1.5t-21 -2.5l-9.5 -1.5q-1 -1 -1.5 -32.5t-1.5 -79t-2 -102.5t-1.5 -102t0 -78.5t1.5 -31.5h15t29 -0.5t29.5 -0.5h16.5q2 0 3.5 -4.5t2 -9.5t-1 -9.5t-4.5 -5.5q-2 -1 -15.5 -1.5t-32.5 -0.5
t-41 -0.5t-41 -0.5h-32.5h-15.5q-3 0 -4.5 4.5t-1 10.5t3 10.5t5.5 4.5h11t16.5 0.5t15.5 1.5t9 2l0.5 18.5t0.5 48.5v68v78q-1 93 -2 211q-16 1 -29 1h-22t-13 1q-5 1 -5 11.5t4 12.5q1 0 13.5 1.5t30.5 3t38.5 3.5t38.5 3.5t30.5 2.5t14.5 1zM94 518q0 9 5.5 15t14.5 6
q8 0 14 -6t6 -15q0 -8 -6 -14t-14 -6q-9 0 -14.5 6t-5.5 14zM42 513q0 8 5.5 13.5t13.5 5.5t14 -5.5t6 -13.5t-6 -13.5t-14 -5.5t-13.5 5.5t-5.5 13.5z" />
    <glyph glyph-name="Eth" unicode="&#xd0;" horiz-adv-x="224" 
d="M206 439q3 0 5.5 -3.5t3.5 -8.5t0.5 -9.5t-3.5 -5.5q-2 0 -11 -2t-22 -4q2 -37 5 -85t6.5 -98.5t6.5 -99t6 -86.5t5 -61.5t3 -23.5q4 1 18 3.5t21 4.5q3 1 4.5 -4t1.5 -11t-1 -11.5t-4 -5.5t-18.5 -3.5t-33.5 -8t-34 -8t-20 -3.5q-5 0 -8 4t-4 9t-0.5 9.5t3.5 6.5
q3 1 10 3l14 4t12.5 3.5t6.5 3.5q1 1 0 16t-2.5 32.5t-3 33t-1.5 17.5q0 -4 -3.5 -15.5t-10 -24.5t-16.5 -24t-25 -13q-16 -2 -34 9.5t-34 38t-28 69.5t-16 104q-5 61 2 97.5t18.5 55.5t25 25t21.5 7q20 3 35 -4t25.5 -16t16 -16.5l5.5 -7.5q0 1 -1.5 22t-3.5 47
q-13 -3 -23 -4t-12 -1q-7 2 -9.5 14.5t4.5 14.5l38 6q-2 20 -3 33.5t-1 14.5t-8 0t-18.5 -2t-20 -2t-12.5 -1t-6 4.5t-3.5 10t0.5 10.5t5 6t22.5 4t39.5 6.5t39.5 6.5t23.5 4q4 1 7 -4.5t3.5 -12.5t-1 -13t-4.5 -6q-7 0 -20.5 -1.5t-14.5 -4.5q0 -7 1 -14q0 -7 0.5 -15
t1.5 -19q10 2 17.5 2.5t10.5 0.5zM154 275q0 5 -6 17t-16 23.5t-24 20t-30 5.5t-25.5 -18.5t-13.5 -37t-4 -46.5t2 -47q4 -44 11.5 -80t17.5 -61t22 -38t25 -10t22.5 27t15 61.5t6.5 85t-3 98.5z" />
    <glyph glyph-name="Ntilde" unicode="&#xd1;" horiz-adv-x="352" 
d="M15 378q-3 1 -6 5.5t-4.5 10t-1 10.5t3.5 7q3 1 21 6t38 10t37 9t19 4t4.5 -4.5t4 -9.5t1.5 -10t-2 -5t-8 -2t-12.5 -4.5t-12 -5t-5.5 -4.5q0 -1 1.5 -11t4 -26.5t6 -37t6.5 -41.5q8 -50 19 -112q2 43 8 83q5 35 16 72t31 63q18 23 37 33.5t36.5 10t31.5 -12t22 -32.5
t12 -60.5t6 -86.5t2 -96t-0.5 -88.5t-1 -65t0.5 -25.5q2 0 7.5 -1t16.5 -2q5 -1 6.5 -6t1 -10.5t-3 -10t-4.5 -4.5t-15.5 -1t-29.5 -2t-29.5 -1t-16.5 2t-4.5 7.5t-1.5 11.5t1.5 11t4.5 5q6 1 16 0.5t15 0.5q1 0 2 25.5t1.5 64.5t0 87t-2.5 93t-6.5 82.5t-10.5 56.5
q-8 22 -24 23t-33 -16t-32.5 -52t-22.5 -85q-5 -37 -7.5 -72.5t-3 -63.5t0.5 -45.5t2 -18.5t5 0t8.5 2.5t8 2.5t5.5 1q5 -1 7 -14.5t0 -17.5q-1 -2 -14 -5t-28.5 -6.5t-28.5 -6t-14 -2.5q-3 -1 -8 8.5t1 15.5q3 2 11.5 5t10.5 5q1 0 -3.5 26.5t-12 66t-16.5 85.5t-17 85.5
t-14 65.5t-7 27q-3 1 -16 -4t-21 -3zM155 470q-1 -3 -6 -3.5t-10.5 1.5t-9.5 5.5t-2 7.5q1 4 4.5 14t9 21t13.5 20t19 10q9 1 17 -6.5t14.5 -16t12 -16t10.5 -6.5q8 2 13.5 11.5t7.5 17.5q1 3 5.5 3.5t9.5 -1.5t9 -5t4 -6t-3 -11.5t-9 -17.5t-14.5 -16.5t-20.5 -8.5
q-10 -2 -18.5 5t-15 15.5t-12.5 15t-10 5.5q-3 -1 -6.5 -6.5t-5.5 -12.5t-4 -12.5t-2 -6.5z" />
    <glyph glyph-name="Ograve" unicode="&#xd2;" horiz-adv-x="285" 
d="M137 440q33 2 58 -18t41.5 -55t24 -80.5t6.5 -93.5q-2 -47 -13.5 -88.5t-32.5 -73t-49.5 -49t-63.5 -15.5q-36 2 -57 28t-31.5 63t-13 79t-1.5 76q1 37 10.5 77t26.5 72.5t41 54t54 23.5zM136 405q-15 -1 -31.5 -13.5t-31 -37t-24 -60t-11.5 -82.5t2 -86t14 -67t25 -43.5
t35 -15.5t39.5 9t36 31t28 59t15.5 94q3 53 -5.5 93t-23.5 66.5t-33.5 40t-34.5 12.5zM102 542q-1 1 2 5t7.5 8.5t9.5 7.5t7 1t10.5 -12.5t18.5 -23.5t18 -23.5t9 -12.5t-1.5 -5.5t-6 -7.5t-8 -6.5t-5.5 -0.5q-2 1 -11 12t-19.5 23.5t-20 23t-10.5 11.5z" />
    <glyph glyph-name="Oacute" unicode="&#xd3;" horiz-adv-x="285" 
d="M137 440q33 2 58 -18t41.5 -55t24 -80.5t6.5 -93.5q-2 -47 -13.5 -88.5t-32.5 -73t-49.5 -49t-63.5 -15.5q-36 2 -57 28t-31.5 63t-13 79t-1.5 76q1 37 10.5 77t26.5 72.5t41 54t54 23.5zM136 405q-15 -1 -31.5 -13.5t-31 -37t-24 -60t-11.5 -82.5t2 -86t14 -67t25 -43.5
t35 -15.5t39.5 9t36 31t28 59t15.5 94q3 53 -5.5 93t-23.5 66.5t-33.5 40t-34.5 12.5zM163 562q3 3 8 1.5t9.5 -4.5t8 -7t2.5 -7t-12.5 -15t-25 -25.5t-25.5 -25t-14 -12.5q-1 0 -10.5 6t-6.5 14q1 4 11 15t21 23.5t21 23t13 13.5z" />
    <glyph glyph-name="Ocircumflex" unicode="&#xd4;" horiz-adv-x="285" 
d="M137 440q33 2 58 -18t41.5 -55t24 -80.5t6.5 -93.5q-2 -47 -13.5 -88.5t-32.5 -73t-49.5 -49t-63.5 -15.5q-36 2 -57 28t-31.5 63t-13 79t-1.5 76q1 37 10.5 77t26.5 72.5t41 54t54 23.5zM136 405q-15 -1 -31.5 -13.5t-31 -37t-24 -60t-11.5 -82.5t2 -86t14 -67t25 -43.5
t35 -15.5t39.5 9t36 31t28 59t15.5 94q3 53 -5.5 93t-23.5 66.5t-33.5 40t-34.5 12.5zM112 470q-2 -3 -7.5 -2.5t-11 3.5t-9 7.5t-1.5 8.5t8 18.5t13 31t13.5 31.5t8.5 20q5 11 17.5 9.5t15.5 -7.5q1 -3 9 -19.5t16.5 -36t15.5 -36t7 -18.5t-4 -5t-9.5 -5.5t-11 -2.5t-6.5 4
q-2 3 -7 16.5t-10 28t-9.5 25.5l-4.5 11l-4.5 -12.5t-10.5 -27t-11.5 -27.5t-6.5 -15z" />
    <glyph glyph-name="Otilde" unicode="&#xd5;" horiz-adv-x="285" 
d="M137 440q33 2 58 -18t41.5 -55t24 -80.5t6.5 -93.5q-2 -47 -13.5 -88.5t-32.5 -73t-49.5 -49t-63.5 -15.5q-36 2 -57 28t-31.5 63t-13 79t-1.5 76q1 37 10.5 77t26.5 72.5t41 54t54 23.5zM136 405q-15 -1 -31.5 -13.5t-31 -37t-24 -60t-11.5 -82.5t2 -86t14 -67t25 -43.5
t35 -15.5t39.5 9t36 31t28 59t15.5 94q3 53 -5.5 93t-23.5 66.5t-33.5 40t-34.5 12.5zM98 473q-1 -3 -6 -3.5t-10.5 1.5t-9.5 5.5t-2 7.5q1 4 4.5 14t9 21t13.5 20t19 10q9 1 17 -6.5t14.5 -16t12 -16t10.5 -6.5q8 2 13.5 11.5t7.5 17.5q1 3 5.5 3.5t9.5 -1.5t9 -5t4 -6
t-3 -11.5t-9 -17.5t-14.5 -16.5t-20.5 -8.5q-10 -2 -18.5 5t-15 15.5t-12.5 15t-10 5.5q-3 -1 -6.5 -6.5t-5.5 -12.5t-4 -12.5t-2 -6.5z" />
    <glyph glyph-name="Odieresis" unicode="&#xd6;" horiz-adv-x="285" 
d="M137 440q33 2 58 -18t41.5 -55t24 -80.5t6.5 -93.5q-2 -47 -13.5 -88.5t-32.5 -73t-49.5 -49t-63.5 -15.5q-36 2 -57 28t-31.5 63t-13 79t-1.5 76q1 37 10.5 77t26.5 72.5t41 54t54 23.5zM136 405q-15 -1 -31.5 -13.5t-31 -37t-24 -60t-11.5 -82.5t2 -86t14 -67t25 -43.5
t35 -15.5t39.5 9t36 31t28 59t15.5 94q3 53 -5.5 93t-23.5 66.5t-33.5 40t-34.5 12.5zM148 518q0 9 5.5 15t14.5 6q8 0 14 -6t6 -15q0 -8 -6 -14t-14 -6q-9 0 -14.5 6t-5.5 14zM96 513q0 8 5.5 13.5t13.5 5.5t14 -5.5t6 -13.5t-6 -13.5t-14 -5.5t-13.5 5.5t-5.5 13.5z" />
    <glyph glyph-name="multiply" unicode="&#xd7;" horiz-adv-x="236" 
d="M227 100q3 -3 2 -8t-4.5 -10.5t-7.5 -8.5t-6 -1q-2 1 -11 9t-23.5 21.5t-32.5 30t-37 34.5q-11 -18 -20.5 -34.5t-17.5 -29.5t-13.5 -21t-6.5 -9q-3 -2 -8 0.5t-9.5 6.5t-7 8.5t-0.5 6.5q1 1 6 10t13 22t17.5 29.5t20.5 34.5q-30 29 -53 50.5t-25 23.5q-2 3 0 8t6 9.5
t8 7.5t7 1l75 -70q18 31 32.5 54t16.5 26q3 3 8 1.5t10 -5t8 -7.5t1 -6q-1 -1 -5.5 -8.5t-11.5 -19.5t-16 -27.5t-18 -31.5l36 -34t32.5 -30.5t23.5 -22.5t11 -10z" />
    <glyph glyph-name="Oslash" unicode="&#xd8;" horiz-adv-x="285" 
d="M196 462q3 5 8.5 5.5t10 -2t7.5 -7t2 -8.5q0 -2 -3 -14l-8 -32q28 -34 42 -91t12 -120q-2 -47 -13.5 -88.5t-32.5 -73t-49.5 -49t-63.5 -15.5l-11 1l-13 -47q-2 -3 -7.5 -3.5t-11.5 1t-10 5.5t-3 9l13 48q-21 15 -33.5 43t-18.5 60.5t-7.5 66.5t-0.5 62q1 37 10.5 77
t26.5 72.5t41 54t54 23.5q28 2 49 -12q4 14 7 23.5t3 10.5zM136 405q-15 -1 -31.5 -13.5t-31 -37t-24 -60t-11.5 -82.5q-3 -68 7 -118.5t30 -74.5q10 39 23.5 87.5t27 99t26.5 98.5t23 84q-10 9 -20 13t-19 4zM114 0q20 0 39.5 9t36 31t28 59t15.5 94q3 56 -6.5 97t-26.5 67
q-10 -38 -22 -85t-25 -95t-25 -94t-22 -82q3 -1 8 -1z" />
    <glyph glyph-name="Ugrave" unicode="&#xd9;" horiz-adv-x="306" 
d="M11 361q-5 0 -7.5 10.5t0.5 15.5q1 3 7 5.5t13.5 5.5t16 6t15.5 6q13 5 16.5 -2.5t0.5 -29.5q-1 -7 -0.5 -36t3.5 -68t7.5 -82t12 -78t17 -57t22.5 -18q19 5 33.5 27t24 53t14.5 68.5t4 73.5q-2 85 -2.5 122.5t-3.5 39.5q-2 1 -7.5 0.5t-12.5 -2t-13 -3t-8 -1.5t-5 5
t-5 11t-2.5 11t1.5 5t21 5.5t41.5 12.5t42.5 12.5t23 5.5q3 1 6.5 -3.5t6 -10.5t3.5 -11.5t-1 -6.5t-10.5 -4t-17.5 -6.5t-16.5 -6.5t-7.5 -5q-1 -1 0.5 -34.5t3 -83.5t4 -107.5t5 -107t4 -82.5t2.5 -33t6.5 0.5t11.5 1.5t11.5 2t8.5 0q2 -1 2.5 -6.5t-0.5 -11t-2.5 -10
t-2.5 -4.5t-17.5 -2.5t-37 -5.5t-37.5 -5t-19 -1q-2 0 -3 5.5t-0.5 12t1.5 11.5t3 5q1 0 6.5 1t12 1.5t12 1.5t7.5 1t2 20t-1 43q-1 27 -3 62q-8 -25 -20 -46q-11 -18 -27 -34t-39 -21q-24 -5 -41 19.5t-28 64.5t-17.5 88t-9.5 90.5t-4.5 71t-1.5 29.5q-2 2 -11 -2t-14 -4z
M85 542q-1 1 2 5t7.5 8.5t9.5 7.5t7 1t10.5 -12.5t18.5 -23.5t18 -23.5t9 -12.5t-1.5 -5.5t-6 -7.5t-8 -6.5t-5.5 -0.5q-2 1 -11 12t-19.5 23.5t-20 23t-10.5 11.5z" />
    <glyph glyph-name="Uacute" unicode="&#xda;" horiz-adv-x="306" 
d="M11 361q-5 0 -7.5 10.5t0.5 15.5q1 3 7 5.5t13.5 5.5t16 6t15.5 6q13 5 16.5 -2.5t0.5 -29.5q-1 -7 -0.5 -36t3.5 -68t7.5 -82t12 -78t17 -57t22.5 -18q19 5 33.5 27t24 53t14.5 68.5t4 73.5q-2 85 -2.5 122.5t-3.5 39.5q-2 1 -7.5 0.5t-12.5 -2t-13 -3t-8 -1.5t-5 5
t-5 11t-2.5 11t1.5 5t21 5.5t41.5 12.5t42.5 12.5t23 5.5q3 1 6.5 -3.5t6 -10.5t3.5 -11.5t-1 -6.5t-10.5 -4t-17.5 -6.5t-16.5 -6.5t-7.5 -5q-1 -1 0.5 -34.5t3 -83.5t4 -107.5t5 -107t4 -82.5t2.5 -33t6.5 0.5t11.5 1.5t11.5 2t8.5 0q2 -1 2.5 -6.5t-0.5 -11t-2.5 -10
t-2.5 -4.5t-17.5 -2.5t-37 -5.5t-37.5 -5t-19 -1q-2 0 -3 5.5t-0.5 12t1.5 11.5t3 5q1 0 6.5 1t12 1.5t12 1.5t7.5 1t2 20t-1 43q-1 27 -3 62q-8 -25 -20 -46q-11 -18 -27 -34t-39 -21q-24 -5 -41 19.5t-28 64.5t-17.5 88t-9.5 90.5t-4.5 71t-1.5 29.5q-2 2 -11 -2t-14 -4z
M157 562q3 3 8 1.5t9.5 -4.5t8 -7t2.5 -7t-12.5 -15t-25 -25.5t-25.5 -25t-14 -12.5q-1 0 -10.5 6t-6.5 14q1 4 11 15t21 23.5t21 23t13 13.5z" />
    <glyph glyph-name="Ucircumflex" unicode="&#xdb;" horiz-adv-x="306" 
d="M11 361q-5 0 -7.5 10.5t0.5 15.5q1 3 7 5.5t13.5 5.5t16 6t15.5 6q13 5 16.5 -2.5t0.5 -29.5q-1 -7 -0.5 -36t3.5 -68t7.5 -82t12 -78t17 -57t22.5 -18q19 5 33.5 27t24 53t14.5 68.5t4 73.5q-2 85 -2.5 122.5t-3.5 39.5q-2 1 -7.5 0.5t-12.5 -2t-13 -3t-8 -1.5t-5 5
t-5 11t-2.5 11t1.5 5t21 5.5t41.5 12.5t42.5 12.5t23 5.5q3 1 6.5 -3.5t6 -10.5t3.5 -11.5t-1 -6.5t-10.5 -4t-17.5 -6.5t-16.5 -6.5t-7.5 -5q-1 -1 0.5 -34.5t3 -83.5t4 -107.5t5 -107t4 -82.5t2.5 -33t6.5 0.5t11.5 1.5t11.5 2t8.5 0q2 -1 2.5 -6.5t-0.5 -11t-2.5 -10
t-2.5 -4.5t-17.5 -2.5t-37 -5.5t-37.5 -5t-19 -1q-2 0 -3 5.5t-0.5 12t1.5 11.5t3 5q1 0 6.5 1t12 1.5t12 1.5t7.5 1t2 20t-1 43q-1 27 -3 62q-8 -25 -20 -46q-11 -18 -27 -34t-39 -21q-24 -5 -41 19.5t-28 64.5t-17.5 88t-9.5 90.5t-4.5 71t-1.5 29.5q-2 2 -11 -2t-14 -4z
M96 470q-2 -3 -7.5 -2.5t-11 3.5t-9 7.5t-1.5 8.5t8 18.5t13 31t13.5 31.5t8.5 20q5 11 17.5 9.5t15.5 -7.5q1 -3 9 -19.5t16.5 -36t15.5 -36t7 -18.5t-4 -5t-9.5 -5.5t-11 -2.5t-6.5 4q-2 3 -7 16.5t-10 28t-9.5 25.5l-4.5 11l-4.5 -12.5t-10.5 -27t-11.5 -27.5t-6.5 -15z
" />
    <glyph glyph-name="Udieresis" unicode="&#xdc;" horiz-adv-x="306" 
d="M11 361q-5 0 -7.5 10.5t0.5 15.5q1 3 7 5.5t13.5 5.5t16 6t15.5 6q13 5 16.5 -2.5t0.5 -29.5q-1 -7 -0.5 -36t3.5 -68t7.5 -82t12 -78t17 -57t22.5 -18q19 5 33.5 27t24 53t14.5 68.5t4 73.5q-2 85 -2.5 122.5t-3.5 39.5q-2 1 -7.5 0.5t-12.5 -2t-13 -3t-8 -1.5t-5 5
t-5 11t-2.5 11t1.5 5t21 5.5t41.5 12.5t42.5 12.5t23 5.5q3 1 6.5 -3.5t6 -10.5t3.5 -11.5t-1 -6.5t-10.5 -4t-17.5 -6.5t-16.5 -6.5t-7.5 -5q-1 -1 0.5 -34.5t3 -83.5t4 -107.5t5 -107t4 -82.5t2.5 -33t6.5 0.5t11.5 1.5t11.5 2t8.5 0q2 -1 2.5 -6.5t-0.5 -11t-2.5 -10
t-2.5 -4.5t-17.5 -2.5t-37 -5.5t-37.5 -5t-19 -1q-2 0 -3 5.5t-0.5 12t1.5 11.5t3 5q1 0 6.5 1t12 1.5t12 1.5t7.5 1t2 20t-1 43q-1 27 -3 62q-8 -25 -20 -46q-11 -18 -27 -34t-39 -21q-24 -5 -41 19.5t-28 64.5t-17.5 88t-9.5 90.5t-4.5 71t-1.5 29.5q-2 2 -11 -2t-14 -4z
M142 518q0 9 5.5 15t14.5 6q8 0 14 -6t6 -15q0 -8 -6 -14t-14 -6q-9 0 -14.5 6t-5.5 14zM90 513q0 8 5.5 13.5t13.5 5.5t14 -5.5t6 -13.5t-6 -13.5t-14 -5.5t-13.5 5.5t-5.5 13.5z" />
    <glyph glyph-name="Yacute" unicode="&#xdd;" horiz-adv-x="321" 
d="M116 430q3 0 5 -4.5t3 -10.5t0 -11.5t-3 -6.5t-11 -2.5t-10 -3.5q-1 -4 -0.5 -35t2.5 -74.5t7 -93t13 -90.5t20 -67.5t28 -23.5q15 3 29 25.5t23.5 68.5t13 118t-2.5 173q0 2 -11 1t-16 -1q-2 0 -3.5 5.5t-2 11.5t0 11.5t3.5 5.5h19t37 1q23 0 51 1l1 -4.5t1.5 -10t0 -10
t-1.5 -4.5q-2 0 -9 -0.5t-15 -1.5t-14.5 -1.5t-7.5 -1.5q0 -3 0.5 -10.5t1 -23t1 -40t1.5 -60.5q2 -84 9 -158.5t12 -140.5q25 5 38.5 6.5t16.5 1.5q2 0 4.5 -5t4 -11.5t1 -12t-4.5 -6.5q-3 -1 -18.5 -2.5t-37.5 -5.5q2 -28 3 -53.5t1 -48.5q0 -42 -7.5 -73t-27 -46
t-52.5 -10.5t-84 32.5t-67 59.5t-7 60.5t39 51.5t72 33.5q29 8 52.5 13t43.5 10q-2 28 -4.5 53.5t-4.5 45.5q-3 23 -4 42q-3 -34 -14 -60q-9 -23 -25.5 -43t-43.5 -22t-44 27t-27.5 74.5t-16 99.5t-8.5 101t-4.5 79t-4.5 35q-11 -1 -21 -2l-16 -2t-11 0q-3 0 -5 5t-2.5 10
t1 10t4.5 5q3 1 18 3.5l33 5.5t34 5.5t21 2.5zM170 -100q-30 -9 -51 -25t-27.5 -35t4 -39t44.5 -38t58 -26.5t39 -3.5t22.5 25.5t7.5 60.5q0 23 -1 49.5t-3 53.5q-23 -5 -47 -10t-46 -12zM191 562q3 3 8 1.5t9.5 -4.5t8 -7t2.5 -7t-12.5 -15t-25 -25.5t-25.5 -25t-14 -12.5
q-1 0 -10.5 6t-6.5 14q1 4 11 15t21 23.5t21 23t13 13.5z" />
    <glyph glyph-name="Thorn" unicode="&#xde;" horiz-adv-x="222" 
d="M5 464q1 4 6 6t10.5 2.5t10.5 -1t5 -4.5q0 -1 1 -20.5t2 -52t2.5 -75t3.5 -90.5q24 -3 51.5 -9t51 -18t39.5 -30t17 -44q1 -35 -13.5 -58.5t-37 -38.5t-49.5 -23t-51 -11q1 -41 2.5 -77.5t2.5 -63.5t1.5 -43.5t0.5 -17.5q1 -4 -4 -6.5t-11 -2.5t-11 2.5t-5 9.5q0 3 -1 33
t-3 77t-4 106t-4.5 120t-5 119.5t-4.5 104.5t-2.5 75t-0.5 31zM52 27q21 4 42.5 11.5t39.5 18t29 25.5t10 35q-1 22 -13.5 36.5t-31 23.5t-40 13t-41.5 5q2 -42 3 -84z" />
    <glyph glyph-name="germandbls" unicode="&#xdf;" horiz-adv-x="225" 
d="M52 -10q0 -4 -4.5 -6.5t-10.5 -3t-11.5 1t-5.5 5.5t-1.5 33t-3 66.5t-2.5 77.5t0 67q0 27 2 60.5t11.5 63t29 50t55.5 22.5q23 1 41.5 -10t31.5 -30t20 -42.5t7 -48.5t-7 -48t-21 -40q-14 -16 -26.5 -27.5t-22.5 -20.5q4 -2 7.5 -4t10.5 -8q19 -19 19.5 -41.5
t-11.5 -39.5t-33 -23.5t-46 6.5q-5 2 -4 6.5t5 8.5t9 6.5t9 1.5q13 -5 23.5 0.5t14.5 15t0.5 22t-19.5 23.5l-13 7q-9 -7 -15.5 -9.5t-9.5 -2.5t-7.5 3t-7.5 7.5t-3 9.5t5 8t13.5 6.5t20 10.5t26 19.5t31.5 33.5q19 24 20.5 54.5t-7.5 57.5t-25.5 44.5t-34.5 16.5
q-18 -2 -31.5 -15t-21.5 -35t-12 -52t-4 -64q0 -35 1.5 -75.5t3 -76.5t3 -62t1.5 -30z" />
    <glyph glyph-name="agrave" unicode="&#xe0;" 
d="M135 232q2 5 1 20q0 8 1.5 12.5t8.5 6.5t22 3t20 1q3 0 4.5 -4.5t2.5 -10t-0.5 -10t-4.5 -4.5q-6 0 -11 -0.5t-7 -0.5q-1 0 -2 -1.5t-1 -7.5q0 -2 1.5 -20t3.5 -44t4.5 -55.5t4.5 -55t3.5 -42.5t1.5 -18q2 -8 5 -7q3 0 8.5 1.5t8.5 1.5t6 -4t5 -9t2 -9.5t-2 -5.5
t-15.5 -5t-29.5 -8.5t-30 -7.5t-17 -3q-2 1 -4 5t-3 8.5t-1 9t2 5.5q3 1 8 3t10.5 3.5t9.5 3t5 2.5q4 3 2 13.5t-4 13.5q-2 2 -23 -4.5t-50 -5.5q-15 0 -30.5 6t-27.5 19.5t-18 37.5t-2 60t14.5 58t23.5 34t25.5 16t20.5 5q17 2 32 -3.5t16 -2.5zM139 184q-1 6 -10.5 12
t-22.5 8.5t-27 -1.5t-23 -17q-8 -11 -14 -32t-7.5 -43.5t2.5 -41.5t17 -27q10 -6 26 -6.5t31 1.5t25.5 5t11.5 4t0 21.5t-2.5 45.5t-3.5 46.5t-3 24.5zM67 371q-1 1 2 5t7.5 8.5t9.5 7.5t7 1t10.5 -12.5t18.5 -23.5t18 -23.5t9 -12.5t-1.5 -5.5t-6 -7.5t-8 -6.5t-5.5 -0.5
q-2 1 -11 12t-19.5 23.5t-20 23t-10.5 11.5z" />
    <glyph glyph-name="aacute" unicode="&#xe1;" 
d="M135 232q2 5 1 20q0 8 1.5 12.5t8.5 6.5t22 3t20 1q3 0 4.5 -4.5t2.5 -10t-0.5 -10t-4.5 -4.5q-6 0 -11 -0.5t-7 -0.5q-1 0 -2 -1.5t-1 -7.5q0 -2 1.5 -20t3.5 -44t4.5 -55.5t4.5 -55t3.5 -42.5t1.5 -18q2 -8 5 -7q3 0 8.5 1.5t8.5 1.5t6 -4t5 -9t2 -9.5t-2 -5.5
t-15.5 -5t-29.5 -8.5t-30 -7.5t-17 -3q-2 1 -4 5t-3 8.5t-1 9t2 5.5q3 1 8 3t10.5 3.5t9.5 3t5 2.5q4 3 2 13.5t-4 13.5q-2 2 -23 -4.5t-50 -5.5q-15 0 -30.5 6t-27.5 19.5t-18 37.5t-2 60t14.5 58t23.5 34t25.5 16t20.5 5q17 2 32 -3.5t16 -2.5zM139 184q-1 6 -10.5 12
t-22.5 8.5t-27 -1.5t-23 -17q-8 -11 -14 -32t-7.5 -43.5t2.5 -41.5t17 -27q10 -6 26 -6.5t31 1.5t25.5 5t11.5 4t0 21.5t-2.5 45.5t-3.5 46.5t-3 24.5zM128 380q3 3 8 1.5t9.5 -4.5t8 -7t2.5 -7t-12.5 -15t-25 -25.5t-25.5 -25t-14 -12.5q-1 0 -10.5 6t-6.5 14q1 4 11 15
t21 23.5t21 23t13 13.5z" />
    <glyph glyph-name="acircumflex" unicode="&#xe2;" 
d="M135 232q2 5 1 20q0 8 1.5 12.5t8.5 6.5t22 3t20 1q3 0 4.5 -4.5t2.5 -10t-0.5 -10t-4.5 -4.5q-6 0 -11 -0.5t-7 -0.5q-1 0 -2 -1.5t-1 -7.5q0 -2 1.5 -20t3.5 -44t4.5 -55.5t4.5 -55t3.5 -42.5t1.5 -18q2 -8 5 -7q3 0 8.5 1.5t8.5 1.5t6 -4t5 -9t2 -9.5t-2 -5.5
t-15.5 -5t-29.5 -8.5t-30 -7.5t-17 -3q-2 1 -4 5t-3 8.5t-1 9t2 5.5q3 1 8 3t10.5 3.5t9.5 3t5 2.5q4 3 2 13.5t-4 13.5q-2 2 -23 -4.5t-50 -5.5q-15 0 -30.5 6t-27.5 19.5t-18 37.5t-2 60t14.5 58t23.5 34t25.5 16t20.5 5q17 2 32 -3.5t16 -2.5zM139 184q-1 6 -10.5 12
t-22.5 8.5t-27 -1.5t-23 -17q-8 -11 -14 -32t-7.5 -43.5t2.5 -41.5t17 -27q10 -6 26 -6.5t31 1.5t25.5 5t11.5 4t0 21.5t-2.5 45.5t-3.5 46.5t-3 24.5zM78 299q-2 -3 -7.5 -2.5t-11 3.5t-9 7.5t-1.5 8.5t8 18.5t13 31t13.5 31.5t8.5 20q5 11 17.5 9.5t15.5 -7.5
q1 -3 9 -19.5t16.5 -36t15.5 -36t7 -18.5t-4 -5t-9.5 -5.5t-11 -2.5t-6.5 4q-2 3 -7 16.5t-10 28t-9.5 25.5l-4.5 11l-4.5 -12.5t-10.5 -27t-11.5 -27.5t-6.5 -15z" />
    <glyph glyph-name="atilde" unicode="&#xe3;" 
d="M135 232q2 5 1 20q0 8 1.5 12.5t8.5 6.5t22 3t20 1q3 0 4.5 -4.5t2.5 -10t-0.5 -10t-4.5 -4.5q-6 0 -11 -0.5t-7 -0.5q-1 0 -2 -1.5t-1 -7.5q0 -2 1.5 -20t3.5 -44t4.5 -55.5t4.5 -55t3.5 -42.5t1.5 -18q2 -8 5 -7q3 0 8.5 1.5t8.5 1.5t6 -4t5 -9t2 -9.5t-2 -5.5
t-15.5 -5t-29.5 -8.5t-30 -7.5t-17 -3q-2 1 -4 5t-3 8.5t-1 9t2 5.5q3 1 8 3t10.5 3.5t9.5 3t5 2.5q4 3 2 13.5t-4 13.5q-2 2 -23 -4.5t-50 -5.5q-15 0 -30.5 6t-27.5 19.5t-18 37.5t-2 60t14.5 58t23.5 34t25.5 16t20.5 5q17 2 32 -3.5t16 -2.5zM139 184q-1 6 -10.5 12
t-22.5 8.5t-27 -1.5t-23 -17q-8 -11 -14 -32t-7.5 -43.5t2.5 -41.5t17 -27q10 -6 26 -6.5t31 1.5t25.5 5t11.5 4t0 21.5t-2.5 45.5t-3.5 46.5t-3 24.5zM51 291q-1 -3 -6 -3.5t-10.5 1.5t-9.5 5.5t-2 7.5q1 4 4.5 14t9 21t13.5 20t19 10q9 1 17 -6.5t14.5 -16t12 -16
t10.5 -6.5q8 2 13.5 11.5t7.5 17.5q1 3 5.5 3.5t9.5 -1.5t9 -5t4 -6t-3 -11.5t-9 -17.5t-14.5 -16.5t-20.5 -8.5q-10 -2 -18.5 5t-15 15.5t-12.5 15t-10 5.5q-3 -1 -6.5 -6.5t-5.5 -12.5t-4 -12.5t-2 -6.5z" />
    <glyph glyph-name="adieresis" unicode="&#xe4;" 
d="M135 232q2 5 1 20q0 8 1.5 12.5t8.5 6.5t22 3t20 1q3 0 4.5 -4.5t2.5 -10t-0.5 -10t-4.5 -4.5q-6 0 -11 -0.5t-7 -0.5q-1 0 -2 -1.5t-1 -7.5q0 -2 1.5 -20t3.5 -44t4.5 -55.5t4.5 -55t3.5 -42.5t1.5 -18q2 -8 5 -7q3 0 8.5 1.5t8.5 1.5t6 -4t5 -9t2 -9.5t-2 -5.5
t-15.5 -5t-29.5 -8.5t-30 -7.5t-17 -3q-2 1 -4 5t-3 8.5t-1 9t2 5.5q3 1 8 3t10.5 3.5t9.5 3t5 2.5q4 3 2 13.5t-4 13.5q-2 2 -23 -4.5t-50 -5.5q-15 0 -30.5 6t-27.5 19.5t-18 37.5t-2 60t14.5 58t23.5 34t25.5 16t20.5 5q17 2 32 -3.5t16 -2.5zM139 184q-1 6 -10.5 12
t-22.5 8.5t-27 -1.5t-23 -17q-8 -11 -14 -32t-7.5 -43.5t2.5 -41.5t17 -27q10 -6 26 -6.5t31 1.5t25.5 5t11.5 4t0 21.5t-2.5 45.5t-3.5 46.5t-3 24.5zM114 336q0 9 5.5 15t14.5 6q8 0 14 -6t6 -15q0 -8 -6 -14t-14 -6q-9 0 -14.5 6t-5.5 14zM62 331q0 8 5.5 13.5t13.5 5.5
t14 -5.5t6 -13.5t-6 -13.5t-14 -5.5t-13.5 5.5t-5.5 13.5z" />
    <glyph glyph-name="aring" unicode="&#xe5;" 
d="M135 232q2 5 1 20q0 8 1.5 12.5t8.5 6.5t22 3t20 1q3 0 4.5 -4.5t2.5 -10t-0.5 -10t-4.5 -4.5q-6 0 -11 -0.5t-7 -0.5q-1 0 -2 -1.5t-1 -7.5q0 -2 1.5 -20t3.5 -44t4.5 -55.5t4.5 -55t3.5 -42.5t1.5 -18q2 -8 5 -7q3 0 8.5 1.5t8.5 1.5t6 -4t5 -9t2 -9.5t-2 -5.5
t-15.5 -5t-29.5 -8.5t-30 -7.5t-17 -3q-2 1 -4 5t-3 8.5t-1 9t2 5.5q3 1 8 3t10.5 3.5t9.5 3t5 2.5q4 3 2 13.5t-4 13.5q-2 2 -23 -4.5t-50 -5.5q-15 0 -30.5 6t-27.5 19.5t-18 37.5t-2 60t14.5 58t23.5 34t25.5 16t20.5 5q17 2 32 -3.5t16 -2.5zM139 184q-1 6 -10.5 12
t-22.5 8.5t-27 -1.5t-23 -17q-8 -11 -14 -32t-7.5 -43.5t2.5 -41.5t17 -27q10 -6 26 -6.5t31 1.5t25.5 5t11.5 4t0 21.5t-2.5 45.5t-3.5 46.5t-3 24.5zM87 390q25 4 40.5 -10t18.5 -33.5t-8.5 -39t-39.5 -26.5t-42.5 8t-16 36t10.5 41t37 24zM88 361q-10 -3 -14 -13
t-2.5 -20t7.5 -17t16 -5q13 3 18.5 13.5t4 21t-9 17.5t-20.5 3z" />
    <glyph glyph-name="ae" unicode="&#xe6;" horiz-adv-x="318" 
d="M198 241q26 3 42 -14t25 -40.5t12.5 -46t3.5 -29.5q1 -13 -1 -18t-19 -8q-9 -1 -21 -2.5t-23.5 -2.5t-20 -2t-9.5 -2t0 -8.5t5.5 -16t12 -15t19.5 -5.5q23 2 30.5 12.5t7.5 16.5t10 10t12 1l4 -8t7 -13.5t7.5 -14.5t5.5 -10t-1.5 -8t-8.5 -9t-10.5 -5.5t-6.5 1.5
q-7 13 -11 13q-2 0 -12.5 -7t-28.5 -8q-8 -1 -19.5 1t-22.5 10v-9q0 -2 1 -3q2 -8 5 -7q3 0 8.5 1.5t8.5 1.5t6 -4t5 -9t2 -9.5t-2 -5.5t-15.5 -5t-29.5 -8.5t-30 -7.5t-17 -3q-2 1 -4 5t-3 8.5t-1 9t2 5.5q3 1 8 3t10.5 3.5t9.5 3t5 2.5q4 3 2 13.5t-4 13.5q-2 2 -23 -4.5
t-50 -5.5q-15 0 -30.5 6t-27.5 19.5t-18 37.5t-2 60t14.5 58t23.5 34t25.5 16t20.5 5q17 2 32 -3.5t16 -2.5q2 5 1 20q0 8 1.5 12.5t8.5 6.5t22 3t20 1q3 0 4.5 -4.5t2.5 -10t-0.5 -10t-4.5 -4.5q-6 0 -11 -0.5t-7 -0.5q-1 0 -2 -1.5t-1 -7.5v-5t1 -11q11 18 28 21zM139 184
q-1 6 -10.5 12t-22.5 8.5t-27 -1.5t-23 -17q-8 -11 -14 -32t-7.5 -43.5t2.5 -41.5t17 -27q10 -6 26 -6.5t31 1.5t25.5 5t11.5 4t0 21.5t-2.5 45.5t-3.5 46.5t-3 24.5zM204 204q-12 -6 -17 -21.5t-6 -32t0.5 -29.5t2.5 -14q0 -1 10 0t22 2.5t22 3.5t11 3t-1.5 17t-8.5 34
t-14.5 30.5t-20.5 6.5z" />
    <glyph glyph-name="ccedilla" unicode="&#xe7;" horiz-adv-x="149" 
d="M112 267q0 3 5 4t10.5 0t10 -4t4.5 -7q-1 -4 -2.5 -17t-3.5 -28t-3.5 -27.5t-1.5 -13.5q0 -2 -4 -3t-8.5 -1t-9 1t-5.5 3t-3 10t-6.5 16.5t-11 14.5t-16.5 5t-17 -10t-11.5 -22.5t-6 -29t-0.5 -29.5q1 -15 2.5 -32.5t6 -32.5t12.5 -24.5t22 -9.5q11 0 16.5 6.5t7.5 14.5
t1.5 16.5t-0.5 12.5t4.5 6t10 2.5t10 -1t4.5 -4.5t1 -15.5t2.5 -27t3 -26.5t1.5 -15q0 -2 -3.5 -5t-8 -5t-9 -2t-4.5 3q-2 7 -3.5 13.5t-3.5 6.5t-5 -3.5t-8 -5.5q-2 -10 -2.5 -20t3.5 -11q3 0 10.5 0.5t16 -2t16.5 -10.5t11 -27t-8 -29.5t-27 -16t-32.5 -6.5t-25.5 0
t-10.5 6.5t1 12t7 11t7.5 4.5q3 -1 12 -1t18 1.5t16 5t7 10.5t-3 9.5t-8.5 2.5t-12.5 -0.5t-14 -0.5t-11 2t-4 10v48q-8 2 -17 8t-17 19.5t-14 36t-8 56.5q-2 43 5 69t17.5 40t21.5 18.5t17 5.5q13 2 21.5 -1t13 -7t7 -7.5t3.5 -3.5q2 1 1.5 13.5t1.5 19.5z" />
    <glyph glyph-name="egrave" unicode="&#xe8;" horiz-adv-x="160" 
d="M48 244q26 4 42 -13.5t25 -41t12.5 -46t3.5 -28.5q1 -13 -0.5 -18.5t-18.5 -7.5q-9 -1 -21.5 -2.5t-24 -2.5t-20 -2.5t-9.5 -2.5t0.5 -8.5t6 -16t12 -15t19.5 -5.5q23 3 30.5 13.5t7.5 16.5t9.5 9.5t12.5 1.5l4 -8t6.5 -13.5t7 -14.5t5.5 -10t-1 -8t-8.5 -9t-10.5 -5.5
t-7 1.5q-3 6 -5 9.5t-5 3.5t-13.5 -7.5t-28.5 -8.5q-9 0 -21.5 2.5t-24.5 12.5t-21 30.5t-10 55.5q-3 71 11.5 103.5t34.5 34.5zM55 208q-12 -6 -17 -22t-6 -32.5t0.5 -29t1.5 -13.5q1 -1 10.5 0t21.5 2.5t22 3.5t12 3q1 1 -1.5 17t-8.5 34t-15 30.5t-20 6.5zM12 349
q-1 1 2 5t7.5 8.5t9.5 7.5t7 1t10.5 -12.5t18.5 -23.5t18 -23.5t9 -12.5t-1.5 -5.5t-6 -7.5t-8 -6.5t-5.5 -0.5q-2 1 -11 12t-19.5 23.5t-20 23t-10.5 11.5z" />
    <glyph glyph-name="eacute" unicode="&#xe9;" horiz-adv-x="160" 
d="M48 244q26 4 42 -13.5t25 -41t12.5 -46t3.5 -28.5q1 -13 -0.5 -18.5t-18.5 -7.5q-9 -1 -21.5 -2.5t-24 -2.5t-20 -2.5t-9.5 -2.5t0.5 -8.5t6 -16t12 -15t19.5 -5.5q23 3 30.5 13.5t7.5 16.5t9.5 9.5t12.5 1.5l4 -8t6.5 -13.5t7 -14.5t5.5 -10t-1 -8t-8.5 -9t-10.5 -5.5
t-7 1.5q-3 6 -5 9.5t-5 3.5t-13.5 -7.5t-28.5 -8.5q-9 0 -21.5 2.5t-24.5 12.5t-21 30.5t-10 55.5q-3 71 11.5 103.5t34.5 34.5zM55 208q-12 -6 -17 -22t-6 -32.5t0.5 -29t1.5 -13.5q1 -1 10.5 0t21.5 2.5t22 3.5t12 3q1 1 -1.5 17t-8.5 34t-15 30.5t-20 6.5zM68 370
q3 3 8 1.5t9.5 -4.5t8 -7t2.5 -7t-12.5 -15t-25 -25.5t-25.5 -25t-14 -12.5q-1 0 -10.5 6t-6.5 14q1 4 11 15t21 23.5t21 23t13 13.5z" />
    <glyph glyph-name="ecircumflex" unicode="&#xea;" horiz-adv-x="160" 
d="M48 244q26 4 42 -13.5t25 -41t12.5 -46t3.5 -28.5q1 -13 -0.5 -18.5t-18.5 -7.5q-9 -1 -21.5 -2.5t-24 -2.5t-20 -2.5t-9.5 -2.5t0.5 -8.5t6 -16t12 -15t19.5 -5.5q23 3 30.5 13.5t7.5 16.5t9.5 9.5t12.5 1.5l4 -8t6.5 -13.5t7 -14.5t5.5 -10t-1 -8t-8.5 -9t-10.5 -5.5
t-7 1.5q-3 6 -5 9.5t-5 3.5t-13.5 -7.5t-28.5 -8.5q-9 0 -21.5 2.5t-24.5 12.5t-21 30.5t-10 55.5q-3 71 11.5 103.5t34.5 34.5zM55 208q-12 -6 -17 -22t-6 -32.5t0.5 -29t1.5 -13.5q1 -1 10.5 0t21.5 2.5t22 3.5t12 3q1 1 -1.5 17t-8.5 34t-15 30.5t-20 6.5zM19 266
q-2 -3 -7.5 -2.5t-11 3.5t-9 7.5t-1.5 8.5t8 18.5t13 31t13.5 31.5t8.5 20q5 11 17.5 9.5t15.5 -7.5q1 -3 9 -19.5t16.5 -36t15.5 -36t7 -18.5t-4 -5t-9.5 -5.5t-11 -2.5t-6.5 4q-2 3 -7 16.5t-10 28t-9.5 25.5l-4.5 11l-4.5 -12.5t-10.5 -27t-11.5 -27.5t-6.5 -15z" />
    <glyph glyph-name="edieresis" unicode="&#xeb;" horiz-adv-x="160" 
d="M48 244q26 4 42 -13.5t25 -41t12.5 -46t3.5 -28.5q1 -13 -0.5 -18.5t-18.5 -7.5q-9 -1 -21.5 -2.5t-24 -2.5t-20 -2.5t-9.5 -2.5t0.5 -8.5t6 -16t12 -15t19.5 -5.5q23 3 30.5 13.5t7.5 16.5t9.5 9.5t12.5 1.5l4 -8t6.5 -13.5t7 -14.5t5.5 -10t-1 -8t-8.5 -9t-10.5 -5.5
t-7 1.5q-3 6 -5 9.5t-5 3.5t-13.5 -7.5t-28.5 -8.5q-9 0 -21.5 2.5t-24.5 12.5t-21 30.5t-10 55.5q-3 71 11.5 103.5t34.5 34.5zM55 208q-12 -6 -17 -22t-6 -32.5t0.5 -29t1.5 -13.5q1 -1 10.5 0t21.5 2.5t22 3.5t12 3q1 1 -1.5 17t-8.5 34t-15 30.5t-20 6.5zM57 316
q0 9 5.5 15t14.5 6q8 0 14 -6t6 -15q0 -8 -6 -14t-14 -6q-9 0 -14.5 6t-5.5 14zM5 311q0 8 5.5 13.5t13.5 5.5t14 -5.5t6 -13.5t-6 -13.5t-14 -5.5t-13.5 5.5t-5.5 13.5z" />
    <glyph glyph-name="igrave" unicode="&#xec;" horiz-adv-x="108" 
d="M6 196q-5 2 -5.5 13.5t4.5 13.5t20 1.5t25 -1.5t13.5 -8t3.5 -28q0 -11 -1 -35.5t-1 -49.5v-44.5t2 -20.5q1 0 5.5 -0.5t9.5 -1l10 -1t7 -0.5t3.5 -3.5t2 -8t0 -8t-2.5 -4.5t-9.5 -2t-16.5 -2t-17 -1.5t-11 -0.5q-6 0 -10.5 1t-6.5 12v17t0.5 33t0.5 40t0.5 39.5
t0.5 30.5v13q-1 2 -11.5 3t-15.5 3zM-12 339q-1 1 2 5t7.5 8.5t9.5 7.5t7 1t10.5 -12.5t18.5 -23.5t18 -23.5t9 -12.5t-1.5 -5.5t-6 -7.5t-8 -6.5t-5.5 -0.5q-2 1 -11 12t-19.5 23.5t-20 23t-10.5 11.5z" />
    <glyph glyph-name="iacute" unicode="&#xed;" horiz-adv-x="108" 
d="M6 196q-5 2 -5.5 13.5t4.5 13.5t20 1.5t25 -1.5t13.5 -8t3.5 -28q0 -11 -1 -35.5t-1 -49.5v-44.5t2 -20.5q1 0 5.5 -0.5t9.5 -1l10 -1t7 -0.5t3.5 -3.5t2 -8t0 -8t-2.5 -4.5t-9.5 -2t-16.5 -2t-17 -1.5t-11 -0.5q-6 0 -10.5 1t-6.5 12v17t0.5 33t0.5 40t0.5 39.5
t0.5 30.5v13q-1 2 -11.5 3t-15.5 3zM58 359q3 3 8 1.5t9.5 -4.5t8 -7t2.5 -7t-12.5 -15t-25 -25.5t-25.5 -25t-14 -12.5q-1 0 -10.5 6t-6.5 14q1 4 11 15t21 23.5t21 23t13 13.5z" />
    <glyph glyph-name="icircumflex" unicode="&#xee;" horiz-adv-x="108" 
d="M6 196q-5 2 -5.5 13.5t4.5 13.5t20 1.5t25 -1.5t13.5 -8t3.5 -28q0 -11 -1 -35.5t-1 -49.5v-44.5t2 -20.5q1 0 5.5 -0.5t9.5 -1l10 -1t7 -0.5t3.5 -3.5t2 -8t0 -8t-2.5 -4.5t-9.5 -2t-16.5 -2t-17 -1.5t-11 -0.5q-6 0 -10.5 1t-6.5 12v17t0.5 33t0.5 40t0.5 39.5
t0.5 30.5v13q-1 2 -11.5 3t-15.5 3zM-3 267q-2 -3 -7.5 -2.5t-11 3.5t-9 7.5t-1.5 8.5t8 18.5t13 31t13.5 31.5t8.5 20q5 11 17.5 9.5t15.5 -7.5q1 -3 9 -19.5t16.5 -36t15.5 -36t7 -18.5t-4 -5t-9.5 -5.5t-11 -2.5t-6.5 4q-2 3 -7 16.5t-10 28t-9.5 25.5l-4.5 11
l-4.5 -12.5t-10.5 -27t-11.5 -27.5t-6.5 -15z" />
    <glyph glyph-name="idieresis" unicode="&#xef;" horiz-adv-x="108" 
d="M6 196q-5 2 -5.5 13.5t4.5 13.5t20 1.5t25 -1.5t13.5 -8t3.5 -28q0 -11 -1 -35.5t-1 -49.5v-44.5t2 -20.5q1 0 5.5 -0.5t9.5 -1l10 -1t7 -0.5t3.5 -3.5t2 -8t0 -8t-2.5 -4.5t-9.5 -2t-16.5 -2t-17 -1.5t-11 -0.5q-6 0 -10.5 1t-6.5 12v17t0.5 33t0.5 40t0.5 39.5
t0.5 30.5v13q-1 2 -11.5 3t-15.5 3zM44 294q0 9 5.5 15t14.5 6q8 0 14 -6t6 -15q0 -8 -6 -14t-14 -6q-9 0 -14.5 6t-5.5 14zM-8 289q0 8 5.5 13.5t13.5 5.5t14 -5.5t6 -13.5t-6 -13.5t-14 -5.5t-13.5 5.5t-5.5 13.5z" />
    <glyph glyph-name="eth" unicode="&#xf0;" horiz-adv-x="220" 
d="M167 304q3 1 6.5 -2.5t5.5 -8t2.5 -9t-2.5 -5.5l-34 -16l22 -56q13 -35 23.5 -66.5t14.5 -57.5t0.5 -45.5t-18.5 -30.5q-13 -10 -30 -9.5t-34.5 8t-34.5 20t-30 26.5q-14 15 -27.5 34t-21 38.5t-6 38.5t17.5 34t32.5 18t32.5 -0.5t31 -12.5t27 -19q-7 17 -13.5 34
t-13.5 34q-25 -10 -30 -10q-3 0 -6.5 3.5t-5.5 8t-2 9t3 6.5q2 1 10 4t18 7q-13 31 -22 51t-10 22t-6.5 1t-12 -3.5t-13 -4t-9.5 -1.5q-5 2 -7.5 12.5t3.5 14.5q3 1 17.5 5.5t31.5 9.5t31.5 9.5t17.5 5.5t6 -2t5 -7.5t2 -9t-3 -5.5q-6 -3 -17 -7t-13 -6t6.5 -21.5
t22.5 -51.5q11 5 20.5 8.5t12.5 4.5zM43 172q-9 -14 2.5 -40.5t32.5 -51t46 -39.5t42 -7q11 6 9.5 29.5t-11.5 55.5q-11 13 -27 29t-33.5 26.5t-33.5 12t-27 -14.5z" />
    <glyph glyph-name="ntilde" unicode="&#xf1;" horiz-adv-x="228" 
d="M5 258q-3 2 -4 14t3 13q19 1 29 1.5t14.5 0.5t5 -0.5t2.5 -1.5q2 -2 2.5 -10.5t0.5 -19v-18.5t1 -8t4 6t10.5 12.5t20 11.5t30.5 3q19 -3 32 -16.5t21 -33t11.5 -42.5t3.5 -45q0 -45 -0.5 -78t3.5 -34q3 0 9 2t11 4q3 0 5 -3.5t3.5 -9t1 -10t-2.5 -5.5t-12 -4.5t-22 -7
t-23 -6.5t-14 -4t-6 2.5t-4.5 8t-1.5 9t2 5.5l12.5 5t8.5 6v11.5v26.5t-0.5 35.5t-0.5 39.5q0 19 -2.5 39t-7.5 36t-13 26.5t-20 11.5q-25 2 -39 -25t-16 -80t-3.5 -74.5t0.5 -22.5q1 0 6 -1t10.5 -1.5t11 -1.5t8.5 -1t4 -5t0.5 -11t-3 -11t-7.5 -5q-6 0 -17.5 1t-24.5 2
t-23.5 2t-13.5 1t-4 5t-1 10t1.5 10t3.5 5q3 0 10.5 0.5t7.5 2.5v18t-0.5 42t-1 53.5t-1 53.5t-1.5 42t-1 18q-1 2 -8 0t-11 0zM64 312q-1 -3 -6 -3.5t-10.5 1.5t-9.5 5.5t-2 7.5q1 4 4.5 14t9 21t13.5 20t19 10q9 1 17 -6.5t14.5 -16t12 -16t10.5 -6.5q8 2 13.5 11.5
t7.5 17.5q1 3 5.5 3.5t9.5 -1.5t9 -5t4 -6t-3 -11.5t-9 -17.5t-14.5 -16.5t-20.5 -8.5q-10 -2 -18.5 5t-15 15.5t-12.5 15t-10 5.5q-3 -1 -6.5 -6.5t-5.5 -12.5t-4 -12.5t-2 -6.5z" />
    <glyph glyph-name="ograve" unicode="&#xf2;" horiz-adv-x="174" 
d="M161 142q6 -73 -16.5 -109t-54.5 -37q-17 -1 -32.5 3t-27.5 17t-19.5 37.5t-7.5 63.5t5.5 64.5t15 40.5t22.5 21.5t28 8.5q12 1 26 -2.5t26.5 -15.5t22 -34t12.5 -58zM130 134q-2 28 -7.5 45t-13 26t-17 11t-18.5 1q-17 -2 -29.5 -24t-11.5 -75q2 -50 16.5 -72t33.5 -21
q9 0 18 5.5t16 18t10.5 33.5t2.5 52zM35 355q-1 1 2 5t7.5 8.5t9.5 7.5t7 1t10.5 -12.5t18.5 -23.5t18 -23.5t9 -12.5t-1.5 -5.5t-6 -7.5t-8 -6.5t-5.5 -0.5q-2 1 -11 12t-19.5 23.5t-20 23t-10.5 11.5z" />
    <glyph glyph-name="oacute" unicode="&#xf3;" horiz-adv-x="174" 
d="M161 142q6 -73 -16.5 -109t-54.5 -37q-17 -1 -32.5 3t-27.5 17t-19.5 37.5t-7.5 63.5t5.5 64.5t15 40.5t22.5 21.5t28 8.5q12 1 26 -2.5t26.5 -15.5t22 -34t12.5 -58zM130 134q-2 28 -7.5 45t-13 26t-17 11t-18.5 1q-17 -2 -29.5 -24t-11.5 -75q2 -50 16.5 -72t33.5 -21
q9 0 18 5.5t16 18t10.5 33.5t2.5 52zM107 370q3 3 8 1.5t9.5 -4.5t8 -7t2.5 -7t-12.5 -15t-25 -25.5t-25.5 -25t-14 -12.5q-1 0 -10.5 6t-6.5 14q1 4 11 15t21 23.5t21 23t13 13.5z" />
    <glyph glyph-name="ocircumflex" unicode="&#xf4;" horiz-adv-x="174" 
d="M161 142q6 -73 -16.5 -109t-54.5 -37q-17 -1 -32.5 3t-27.5 17t-19.5 37.5t-7.5 63.5t5.5 64.5t15 40.5t22.5 21.5t28 8.5q12 1 26 -2.5t26.5 -15.5t22 -34t12.5 -58zM130 134q-2 28 -7.5 45t-13 26t-17 11t-18.5 1q-17 -2 -29.5 -24t-11.5 -75q2 -50 16.5 -72t33.5 -21
q9 0 18 5.5t16 18t10.5 33.5t2.5 52zM46 283q-2 -3 -7.5 -2.5t-11 3.5t-9 7.5t-1.5 8.5t8 18.5t13 31t13.5 31.5t8.5 20q5 11 17.5 9.5t15.5 -7.5q1 -3 9 -19.5t16.5 -36t15.5 -36t7 -18.5t-4 -5t-9.5 -5.5t-11 -2.5t-6.5 4q-2 3 -7 16.5t-10 28t-9.5 25.5l-4.5 11
l-4.5 -12.5t-10.5 -27t-11.5 -27.5t-6.5 -15z" />
    <glyph glyph-name="otilde" unicode="&#xf5;" horiz-adv-x="174" 
d="M161 142q6 -73 -16.5 -109t-54.5 -37q-17 -1 -32.5 3t-27.5 17t-19.5 37.5t-7.5 63.5t5.5 64.5t15 40.5t22.5 21.5t28 8.5q12 1 26 -2.5t26.5 -15.5t22 -34t12.5 -58zM130 134q-2 28 -7.5 45t-13 26t-17 11t-18.5 1q-17 -2 -29.5 -24t-11.5 -75q2 -50 16.5 -72t33.5 -21
q9 0 18 5.5t16 18t10.5 33.5t2.5 52zM32 286q-1 -3 -6 -3.5t-10.5 1.5t-9.5 5.5t-2 7.5q1 4 4.5 14t9 21t13.5 20t19 10q9 1 17 -6.5t14.5 -16t12 -16t10.5 -6.5q8 2 13.5 11.5t7.5 17.5q1 3 5.5 3.5t9.5 -1.5t9 -5t4 -6t-3 -11.5t-9 -17.5t-14.5 -16.5t-20.5 -8.5
q-10 -2 -18.5 5t-15 15.5t-12.5 15t-10 5.5q-3 -1 -6.5 -6.5t-5.5 -12.5t-4 -12.5t-2 -6.5z" />
    <glyph glyph-name="odieresis" unicode="&#xf6;" horiz-adv-x="174" 
d="M161 142q6 -73 -16.5 -109t-54.5 -37q-17 -1 -32.5 3t-27.5 17t-19.5 37.5t-7.5 63.5t5.5 64.5t15 40.5t22.5 21.5t28 8.5q12 1 26 -2.5t26.5 -15.5t22 -34t12.5 -58zM130 134q-2 28 -7.5 45t-13 26t-17 11t-18.5 1q-17 -2 -29.5 -24t-11.5 -75q2 -50 16.5 -72t33.5 -21
q9 0 18 5.5t16 18t10.5 33.5t2.5 52zM82 320q0 9 5.5 15t14.5 6q8 0 14 -6t6 -15q0 -8 -6 -14t-14 -6q-9 0 -14.5 6t-5.5 14zM30 315q0 8 5.5 13.5t13.5 5.5t14 -5.5t6 -13.5t-6 -13.5t-14 -5.5t-13.5 5.5t-5.5 13.5z" />
    <glyph glyph-name="divide" unicode="&#xf7;" horiz-adv-x="237" 
d="M217 225q4 0 7 -4.5t4.5 -10.5t1 -11t-3.5 -6q-2 -1 -18 -2.5t-38.5 -4.5t-49 -6t-49.5 -5t-39 -3.5t-18 -1.5q-3 1 -5.5 6t-3.5 11t0 11t4 6q2 0 17.5 1.5t38 4t48 5t48 4.5t38 3.5t18.5 2.5zM71 269q0 9 7 15.5t18 6.5t18.5 -6.5t7.5 -15.5t-7.5 -16t-18.5 -7t-18 7
t-7 16zM96 128q0 10 7 16.5t18 6.5t18.5 -6.5t7.5 -16.5q0 -9 -7.5 -15.5t-18.5 -6.5t-18 6.5t-7 15.5z" />
    <glyph glyph-name="oslash" unicode="&#xf8;" horiz-adv-x="174" 
d="M161 142q6 -73 -16.5 -109t-54.5 -37h-13t-12 1l-7 -23q-2 -3 -7 -3.5t-10.5 1t-9.5 5t-3 8.5q0 4 6 27q-14 12 -22.5 36.5t-8.5 68.5q0 39 5.5 64.5t15 40.5t22.5 21.5t28 8.5q12 2 24 -1q6 27 9 30q3 5 7.5 5t9 -2t7.5 -6t3 -7l-9 -35q13 -12 22.5 -34.5t13.5 -59.5z
M130 134q-2 23 -5.5 37.5t-8.5 24.5q-11 -40 -22.5 -87t-21.5 -83q4 -1 11 -1q9 0 18 5.5t16 18t10.5 33.5t2.5 52zM88 216q-4 1 -7.5 1h-6.5q-17 -2 -29.5 -24t-11.5 -75q1 -42 12 -63q10 37 21.5 81.5t21.5 79.5z" />
    <glyph glyph-name="ugrave" unicode="&#xf9;" horiz-adv-x="170" 
d="M7 218q4 1 10.5 2t13.5 0t13 -3.5t9 -6.5q5 -9 4 -21t-3 -44t-0.5 -56t15.5 -24q15 0 24.5 7.5t11.5 15.5q1 4 0.5 22t-1 38.5t-1.5 38t-2 19.5q-2 4 -10 3t-14 0q-3 0 -4.5 4t-1.5 9.5t1.5 10t4.5 5.5t14 1.5t24.5 0.5h25.5h16t6 -4.5t2.5 -10t-0.5 -10.5t-3 -5
q-5 -1 -13 0.5t-10 -2.5q-1 -2 -1.5 -11t-0.5 -22t0.5 -28t0.5 -28v-28.5v-26.5t0.5 -20.5t0.5 -9.5q2 -2 11 -2.5t13 -1.5q2 -1 3.5 -4.5t2 -7.5t0 -8t-3.5 -5q-2 -1 -14.5 -2t-26.5 -1.5t-26 -0.5h-13q-3 1 -2.5 8.5t2.5 10.5q3 2 11.5 4t10.5 4t1.5 8.5t-1.5 8.5
q0 2 -8.5 -3.5t-25.5 -5.5q-17 -1 -32.5 13t-16.5 59q-1 44 -0.5 61.5t-2.5 19.5q-4 2 -9 4t-8 2q-2 0 -3 3t-1 7t1.5 8t5.5 5zM33 339q-1 1 2 5t7.5 8.5t9.5 7.5t7 1t10.5 -12.5t18.5 -23.5t18 -23.5t9 -12.5t-1.5 -5.5t-6 -7.5t-8 -6.5t-5.5 -0.5q-2 1 -11 12t-19.5 23.5
t-20 23t-10.5 11.5z" />
    <glyph glyph-name="uacute" unicode="&#xfa;" horiz-adv-x="170" 
d="M7 218q4 1 10.5 2t13.5 0t13 -3.5t9 -6.5q5 -9 4 -21t-3 -44t-0.5 -56t15.5 -24q15 0 24.5 7.5t11.5 15.5q1 4 0.5 22t-1 38.5t-1.5 38t-2 19.5q-2 4 -10 3t-14 0q-3 0 -4.5 4t-1.5 9.5t1.5 10t4.5 5.5t14 1.5t24.5 0.5h25.5h16t6 -4.5t2.5 -10t-0.5 -10.5t-3 -5
q-5 -1 -13 0.5t-10 -2.5q-1 -2 -1.5 -11t-0.5 -22t0.5 -28t0.5 -28v-28.5v-26.5t0.5 -20.5t0.5 -9.5q2 -2 11 -2.5t13 -1.5q2 -1 3.5 -4.5t2 -7.5t0 -8t-3.5 -5q-2 -1 -14.5 -2t-26.5 -1.5t-26 -0.5h-13q-3 1 -2.5 8.5t2.5 10.5q3 2 11.5 4t10.5 4t1.5 8.5t-1.5 8.5
q0 2 -8.5 -3.5t-25.5 -5.5q-17 -1 -32.5 13t-16.5 59q-1 44 -0.5 61.5t-2.5 19.5q-4 2 -9 4t-8 2q-2 0 -3 3t-1 7t1.5 8t5.5 5zM105 359q3 3 8 1.5t9.5 -4.5t8 -7t2.5 -7t-12.5 -15t-25 -25.5t-25.5 -25t-14 -12.5q-1 0 -10.5 6t-6.5 14q1 4 11 15t21 23.5t21 23t13 13.5z
" />
    <glyph glyph-name="ucircumflex" unicode="&#xfb;" horiz-adv-x="170" 
d="M7 218q4 1 10.5 2t13.5 0t13 -3.5t9 -6.5q5 -9 4 -21t-3 -44t-0.5 -56t15.5 -24q15 0 24.5 7.5t11.5 15.5q1 4 0.5 22t-1 38.5t-1.5 38t-2 19.5q-2 4 -10 3t-14 0q-3 0 -4.5 4t-1.5 9.5t1.5 10t4.5 5.5t14 1.5t24.5 0.5h25.5h16t6 -4.5t2.5 -10t-0.5 -10.5t-3 -5
q-5 -1 -13 0.5t-10 -2.5q-1 -2 -1.5 -11t-0.5 -22t0.5 -28t0.5 -28v-28.5v-26.5t0.5 -20.5t0.5 -9.5q2 -2 11 -2.5t13 -1.5q2 -1 3.5 -4.5t2 -7.5t0 -8t-3.5 -5q-2 -1 -14.5 -2t-26.5 -1.5t-26 -0.5h-13q-3 1 -2.5 8.5t2.5 10.5q3 2 11.5 4t10.5 4t1.5 8.5t-1.5 8.5
q0 2 -8.5 -3.5t-25.5 -5.5q-17 -1 -32.5 13t-16.5 59q-1 44 -0.5 61.5t-2.5 19.5q-4 2 -9 4t-8 2q-2 0 -3 3t-1 7t1.5 8t5.5 5zM45 283q-2 -3 -7.5 -2.5t-11 3.5t-9 7.5t-1.5 8.5t8 18.5t13 31t13.5 31.5t8.5 20q5 11 17.5 9.5t15.5 -7.5q1 -3 9 -19.5t16.5 -36t15.5 -36
t7 -18.5t-4 -5t-9.5 -5.5t-11 -2.5t-6.5 4q-2 3 -7 16.5t-10 28t-9.5 25.5l-4.5 11l-4.5 -12.5t-10.5 -27t-11.5 -27.5t-6.5 -15z" />
    <glyph glyph-name="udieresis" unicode="&#xfc;" horiz-adv-x="170" 
d="M7 218q4 1 10.5 2t13.5 0t13 -3.5t9 -6.5q5 -9 4 -21t-3 -44t-0.5 -56t15.5 -24q15 0 24.5 7.5t11.5 15.5q1 4 0.5 22t-1 38.5t-1.5 38t-2 19.5q-2 4 -10 3t-14 0q-3 0 -4.5 4t-1.5 9.5t1.5 10t4.5 5.5t14 1.5t24.5 0.5h25.5h16t6 -4.5t2.5 -10t-0.5 -10.5t-3 -5
q-5 -1 -13 0.5t-10 -2.5q-1 -2 -1.5 -11t-0.5 -22t0.5 -28t0.5 -28v-28.5v-26.5t0.5 -20.5t0.5 -9.5q2 -2 11 -2.5t13 -1.5q2 -1 3.5 -4.5t2 -7.5t0 -8t-3.5 -5q-2 -1 -14.5 -2t-26.5 -1.5t-26 -0.5h-13q-3 1 -2.5 8.5t2.5 10.5q3 2 11.5 4t10.5 4t1.5 8.5t-1.5 8.5
q0 2 -8.5 -3.5t-25.5 -5.5q-17 -1 -32.5 13t-16.5 59q-1 44 -0.5 61.5t-2.5 19.5q-4 2 -9 4t-8 2q-2 0 -3 3t-1 7t1.5 8t5.5 5zM80 310q0 9 5.5 15t14.5 6q8 0 14 -6t6 -15q0 -8 -6 -14t-14 -6q-9 0 -14.5 6t-5.5 14zM28 305q0 8 5.5 13.5t13.5 5.5t14 -5.5t6 -13.5
t-6 -13.5t-14 -5.5t-13.5 5.5t-5.5 13.5z" />
    <glyph glyph-name="yacute" unicode="&#xfd;" horiz-adv-x="207" 
d="M123 198q-2 0 -3 4t-2 8.5t-0.5 8.5t3.5 4q2 1 10.5 2t18 2.5t18 2t11.5 0.5q3 -1 5 -6t3 -11t0.5 -10.5t-3.5 -5.5h-14q0 -10 1 -34t2.5 -56t3 -69.5t1.5 -73.5q15 2 28 4t24 3t22 1q6 1 8 -4t2 -12t-2.5 -12.5t-5.5 -4.5q-1 0 -24 -1.5t-52 -6.5q0 -50 -4 -86.5
t-14 -44.5q-14 -11 -36 -8t-41.5 16.5t-30.5 35.5t-2 49q7 25 35 40t61 24q-1 17 -1 32.5t-1 27.5q-1 14 -1 26l-5.5 -7t-15.5 -15t-23.5 -15t-29.5 -7q-19 1 -29 16.5t-15 38.5t-5 50t2 50.5t4 39.5t2 18q1 5 -8 3t-14 0q-3 1 -4 5t-1 9.5t1.5 10t4.5 5.5t13 1.5t21 0
t21 -1t12 -0.5q3 0 4 -4t1 -9t-1.5 -9.5t-2.5 -4.5q-2 -1 -7.5 -1t-6.5 -2q0 -1 -2 -14.5t-4 -33.5t-3.5 -43.5t0 -43.5t6.5 -34t15 -14q15 -1 27 9t20 23q10 15 17 34q-1 17 -1 35v64zM81 -115q-5 -14 1.5 -27t17 -22t21.5 -11.5t15 4.5q6 11 8 37.5t2 58.5
q-24 -6 -42.5 -16t-22.5 -24zM129 385q3 3 8 1.5t9.5 -4.5t8 -7t2.5 -7t-12.5 -15t-25 -25.5t-25.5 -25t-14 -12.5q-1 0 -10.5 6t-6.5 14q1 4 11 15t21 23.5t21 23t13 13.5z" />
    <glyph glyph-name="thorn" unicode="&#xfe;" horiz-adv-x="190" 
d="M41 352q6 4 14 6.5t19 3.5q13 1 28.5 -10.5t29.5 -35t25 -59t16 -82.5q11 -95 -6 -155t-59 -67q-19 -3 -31.5 -0.5t-20.5 7.5l5 -165q1 -4 -4 -6.5t-11 -2.5t-11 2.5t-5 9.5q0 3 -1 33t-3 77t-4 106t-4.5 120t-5 119.5t-4.5 104.5t-2.5 75t-0.5 31q1 4 6 6t10.5 2.5
t10.5 -1t5 -4.5zM68 332q-8 -1 -14.5 -6t-11.5 -13l12 -312q8 -7 19.5 -12.5t24.5 -3.5q13 1 22.5 15.5t15.5 39t7 57.5t-2 72q-7 77 -29.5 120.5t-43.5 42.5z" />
    <glyph glyph-name="ydieresis" unicode="&#xff;" horiz-adv-x="207" 
d="M123 198q-2 0 -3 4t-2 8.5t-0.5 8.5t3.5 4q2 1 10.5 2t18 2.5t18 2t11.5 0.5q3 -1 5 -6t3 -11t0.5 -10.5t-3.5 -5.5h-14q0 -10 1 -34t2.5 -56t3 -69.5t1.5 -73.5q15 2 28 4t24 3t22 1q6 1 8 -4t2 -12t-2.5 -12.5t-5.5 -4.5q-1 0 -24 -1.5t-52 -6.5q0 -50 -4 -86.5
t-14 -44.5q-14 -11 -36 -8t-41.5 16.5t-30.5 35.5t-2 49q7 25 35 40t61 24q-1 17 -1 32.5t-1 27.5q-1 14 -1 26l-5.5 -7t-15.5 -15t-23.5 -15t-29.5 -7q-19 1 -29 16.5t-15 38.5t-5 50t2 50.5t4 39.5t2 18q1 5 -8 3t-14 0q-3 1 -4 5t-1 9.5t1.5 10t4.5 5.5t13 1.5t21 0
t21 -1t12 -0.5q3 0 4 -4t1 -9t-1.5 -9.5t-2.5 -4.5q-2 -1 -7.5 -1t-6.5 -2q0 -1 -2 -14.5t-4 -33.5t-3.5 -43.5t0 -43.5t6.5 -34t15 -14q15 -1 27 9t20 23q10 15 17 34q-1 17 -1 35v64zM81 -115q-5 -14 1.5 -27t17 -22t21.5 -11.5t15 4.5q6 11 8 37.5t2 58.5
q-24 -6 -42.5 -16t-22.5 -24zM109 320q0 9 5.5 15t14.5 6q8 0 14 -6t6 -15q0 -8 -6 -14t-14 -6q-9 0 -14.5 6t-5.5 14zM57 315q0 8 5.5 13.5t13.5 5.5t14 -5.5t6 -13.5t-6 -13.5t-14 -5.5t-13.5 5.5t-5.5 13.5z" />
    <glyph glyph-name="Amacron" unicode="&#x100;" horiz-adv-x="232" 
d="M136 361q-3 1 -5.5 5t-3 9t1 9.5t5.5 6.5q4 1 16 2t25 1t24.5 0.5t15.5 0.5q3 1 5 -3.5t2.5 -10.5t-1 -11.5t-4.5 -5.5q-6 -2 -10.5 -1t-5.5 -4v-30.5v-73.5t0.5 -94.5t1.5 -93.5t2 -72t2 -29q3 0 11 1.5t12 0.5q2 0 3 -5t1 -10.5t-1 -10.5t-4 -5t-15 -0.5t-26 -1
t-26 -1.5t-16 -1t-6 3.5t-2 8t1.5 8.5t4.5 5q6 2 14.5 2.5t10.5 2.5q1 1 1.5 7t0.5 12.5t-1 12t-2 5.5h-9.5t-19.5 0.5t-28 3.5t-34 10q-35 13 -57 51.5t-16 113.5q3 37 13.5 66t26.5 48.5t35 30t39 10.5q12 0 20.5 -3t14 -6.5t8 -6t2.5 -1.5q1 1 1.5 8t0.5 14.5t-0.5 14
t-1.5 7.5q-2 2 -11 1t-16 -1zM167 40q1 0 1 18v44t-0.5 57t-1.5 57.5t-2 44.5t-1 20q-2 5 -12 11t-31 7q-11 1 -25.5 -6t-27.5 -22t-22.5 -39.5t-10.5 -58.5q-2 -35 2.5 -57t13 -35.5t19 -21t21.5 -12.5q10 -5 23 -7t24.5 -2t20 1t9.5 1zM162 482q3 0 6 -3.5t4 -8.5t0 -9.5
t-4 -5.5q-3 0 -17.5 -3t-31 -6t-31.5 -5t-18 -2q-7 2 -9.5 14.5t4.5 14.5q3 1 17.5 3t31 4.5t30.5 4.5t18 2z" />
    <glyph glyph-name="amacron" unicode="&#x101;" 
d="M135 232q2 5 1 20q0 8 1.5 12.5t8.5 6.5t22 3t20 1q3 0 4.5 -4.5t2.5 -10t-0.5 -10t-4.5 -4.5q-6 0 -11 -0.5t-7 -0.5q-1 0 -2 -1.5t-1 -7.5q0 -2 1.5 -20t3.5 -44t4.5 -55.5t4.5 -55t3.5 -42.5t1.5 -18q2 -8 5 -7q3 0 8.5 1.5t8.5 1.5t6 -4t5 -9t2 -9.5t-2 -5.5
t-15.5 -5t-29.5 -8.5t-30 -7.5t-17 -3q-2 1 -4 5t-3 8.5t-1 9t2 5.5q3 1 8 3t10.5 3.5t9.5 3t5 2.5q4 3 2 13.5t-4 13.5q-2 2 -23 -4.5t-50 -5.5q-15 0 -30.5 6t-27.5 19.5t-18 37.5t-2 60t14.5 58t23.5 34t25.5 16t20.5 5q17 2 32 -3.5t16 -2.5zM139 184q-1 6 -10.5 12
t-22.5 8.5t-27 -1.5t-23 -17q-8 -11 -14 -32t-7.5 -43.5t2.5 -41.5t17 -27q10 -6 26 -6.5t31 1.5t25.5 5t11.5 4t0 21.5t-2.5 45.5t-3.5 46.5t-3 24.5zM153 358q3 0 6 -3.5t4 -8.5t0 -9.5t-4 -5.5q-3 0 -17.5 -3t-31 -6t-31.5 -5t-18 -2q-7 2 -9.5 14.5t4.5 14.5q3 1 17.5 3
t31 4.5t30.5 4.5t18 2z" />
    <glyph glyph-name="Abreve" unicode="&#x102;" horiz-adv-x="232" 
d="M136 361q-3 1 -5.5 5t-3 9t1 9.5t5.5 6.5q4 1 16 2t25 1t24.5 0.5t15.5 0.5q3 1 5 -3.5t2.5 -10.5t-1 -11.5t-4.5 -5.5q-6 -2 -10.5 -1t-5.5 -4v-30.5v-73.5t0.5 -94.5t1.5 -93.5t2 -72t2 -29q3 0 11 1.5t12 0.5q2 0 3 -5t1 -10.5t-1 -10.5t-4 -5t-15 -0.5t-26 -1
t-26 -1.5t-16 -1t-6 3.5t-2 8t1.5 8.5t4.5 5q6 2 14.5 2.5t10.5 2.5q1 1 1.5 7t0.5 12.5t-1 12t-2 5.5h-9.5t-19.5 0.5t-28 3.5t-34 10q-35 13 -57 51.5t-16 113.5q3 37 13.5 66t26.5 48.5t35 30t39 10.5q12 0 20.5 -3t14 -6.5t8 -6t2.5 -1.5q1 1 1.5 8t0.5 14.5t-0.5 14
t-1.5 7.5q-2 2 -11 1t-16 -1zM167 40q1 0 1 18v44t-0.5 57t-1.5 57.5t-2 44.5t-1 20q-2 5 -12 11t-31 7q-11 1 -25.5 -6t-27.5 -22t-22.5 -39.5t-10.5 -58.5q-2 -35 2.5 -57t13 -35.5t19 -21t21.5 -12.5q10 -5 23 -7t24.5 -2t20 1t9.5 1zM44 496q0 3 5 4.5t11 1t11.5 -2
t5.5 -2.5q0 -2 0.5 -9.5t3.5 -16t9.5 -15.5t19.5 -8t21.5 5t13.5 14t7.5 16t2.5 13q0 4 5.5 6t12 1.5t12 -2.5t5.5 -5q0 -4 -3 -16.5t-11 -26.5t-23.5 -24.5t-40.5 -9.5q-25 0 -39 11t-20.5 24.5t-7.5 25.5t-1 16z" />
    <glyph glyph-name="abreve" unicode="&#x103;" 
d="M135 232q2 5 1 20q0 8 1.5 12.5t8.5 6.5t22 3t20 1q3 0 4.5 -4.5t2.5 -10t-0.5 -10t-4.5 -4.5q-6 0 -11 -0.5t-7 -0.5q-1 0 -2 -1.5t-1 -7.5q0 -2 1.5 -20t3.5 -44t4.5 -55.5t4.5 -55t3.5 -42.5t1.5 -18q2 -8 5 -7q3 0 8.5 1.5t8.5 1.5t6 -4t5 -9t2 -9.5t-2 -5.5
t-15.5 -5t-29.5 -8.5t-30 -7.5t-17 -3q-2 1 -4 5t-3 8.5t-1 9t2 5.5q3 1 8 3t10.5 3.5t9.5 3t5 2.5q4 3 2 13.5t-4 13.5q-2 2 -23 -4.5t-50 -5.5q-15 0 -30.5 6t-27.5 19.5t-18 37.5t-2 60t14.5 58t23.5 34t25.5 16t20.5 5q17 2 32 -3.5t16 -2.5zM139 184q-1 6 -10.5 12
t-22.5 8.5t-27 -1.5t-23 -17q-8 -11 -14 -32t-7.5 -43.5t2.5 -41.5t17 -27q10 -6 26 -6.5t31 1.5t25.5 5t11.5 4t0 21.5t-2.5 45.5t-3.5 46.5t-3 24.5zM36 378q0 3 5 4.5t11 1t11.5 -2t5.5 -2.5q0 -2 0.5 -9.5t3.5 -16t9.5 -15.5t19.5 -8t21.5 5t13.5 14t7.5 16t2.5 13
q0 4 5.5 6t12 1.5t12 -2.5t5.5 -5q0 -4 -3 -16.5t-11 -26.5t-23.5 -24.5t-40.5 -9.5q-25 0 -39 11t-20.5 24.5t-7.5 25.5t-1 16z" />
    <glyph glyph-name="Aogonek" unicode="&#x104;" horiz-adv-x="232" 
d="M136 361q-3 1 -5.5 5t-3 9t1 9.5t5.5 6.5q4 1 16 2t25 1t24.5 0.5t15.5 0.5q3 1 5 -3.5t2.5 -10.5t-1 -11.5t-4.5 -5.5q-6 -2 -10.5 -1t-5.5 -4v-30.5v-73.5t0.5 -94.5t1.5 -93.5t2 -72t2 -29q3 0 11 1.5t12 0.5q2 0 3 -5t1 -10.5t-1 -10.5t-4 -5t-15 -0.5t-26 -1
t-26 -1.5t-16 -1t-6 3.5t-2 8t1.5 8.5t4.5 5q6 2 14.5 2.5t10.5 2.5q1 1 1.5 7t0.5 12.5t-1 12t-2 5.5h-9.5t-19.5 0.5t-28 3.5t-34 10q-35 13 -57 51.5t-16 113.5q3 37 13.5 66t26.5 48.5t35 30t39 10.5q12 0 20.5 -3t14 -6.5t8 -6t2.5 -1.5q1 1 1.5 8t0.5 14.5t-0.5 14
t-1.5 7.5q-2 2 -11 1t-16 -1zM167 40q1 0 1 18v44t-0.5 57t-1.5 57.5t-2 44.5t-1 20q-2 5 -12 11t-31 7q-11 1 -25.5 -6t-27.5 -22t-22.5 -39.5t-10.5 -58.5q-2 -35 2.5 -57t13 -35.5t19 -21t21.5 -12.5q10 -5 23 -7t24.5 -2t20 1t9.5 1zM195 -40q3 2 8 0t9.5 -5t6.5 -7
t0 -7t-9 -9.5t-14 -14.5t-12 -16t-5 -14t5 -10.5t12 -7.5t14 -4.5t11 -1.5t5.5 -4.5t1 -10.5t-3 -10.5t-6.5 -4.5q-5 1 -15.5 3.5t-21.5 7t-21 12t-13 18.5q-3 10 2.5 24t14.5 27t18 23t13 12z" />
    <glyph glyph-name="aogonek" unicode="&#x105;" 
d="M135 232q2 5 1 20q0 8 1.5 12.5t8.5 6.5t22 3t20 1q3 0 4.5 -4.5t2.5 -10t-0.5 -10t-4.5 -4.5q-6 0 -11 -0.5t-7 -0.5q-1 0 -2 -1.5t-1 -7.5q0 -2 1.5 -20t3.5 -44t4.5 -55.5t4.5 -55t3.5 -42.5t1.5 -18q2 -8 5 -7q3 0 8.5 1.5t8.5 1.5t6 -4t5 -9t2 -9.5t-2 -5.5l-20 -6
v-1q-2 -3 -9 -9.5t-14 -14.5t-12 -15.5t-5 -13.5t5 -10.5t12 -7.5t14 -4.5t11 -1.5t6 -4.5t1.5 -10.5t-3 -10.5t-7.5 -4.5t-15.5 2.5t-21.5 7t-21 12.5t-13 19q-4 11 2 25t16 28q-7 -2 -11.5 -3t-6.5 -1q-2 1 -4 5t-3 8.5t-1 9t2 5.5q3 1 8 3t10.5 3.5t9.5 3t5 2.5
q4 3 2 13.5t-4 13.5q-2 2 -23 -4.5t-50 -5.5q-15 0 -30.5 6t-27.5 19.5t-18 37.5t-2 60t14.5 58t23.5 34t25.5 16t20.5 5q17 2 32 -3.5t16 -2.5zM139 184q-1 6 -10.5 12t-22.5 8.5t-27 -1.5t-23 -17q-8 -11 -14 -32t-7.5 -43.5t2.5 -41.5t17 -27q10 -6 26 -6.5t31 1.5
t25.5 5t11.5 4t0 21.5t-2.5 45.5t-3.5 46.5t-3 24.5z" />
    <glyph glyph-name="Cacute" unicode="&#x106;" horiz-adv-x="200" 
d="M145 348q0 6 6 9t12.5 3t12.5 -2.5t6 -6.5t-0.5 -26t-0.5 -46.5t-0.5 -45t-0.5 -22.5t-4.5 -4t-9.5 -2.5t-10 1t-5 6.5q-1 5 -2 20t-5.5 30t-13.5 26t-24 10q-30 -3 -51 -42.5t-19 -101.5q1 -31 7 -57.5t15 -46t20 -30.5t22 -12q16 0 27.5 11t18.5 26t10 30t3 21
q0 7 4.5 9.5t10.5 2.5t10.5 -2.5t4.5 -5.5t-1 -24.5t-2 -47.5t-2 -48.5t-1 -26.5t-4.5 -6.5t-10 -3t-10 1.5t-4.5 8v13t0.5 16t1 15t0.5 10q-2 -3 -5.5 -9t-11 -11.5t-18.5 -9.5t-26 -4q-16 0 -32.5 13.5t-29.5 37.5t-21.5 57t-8.5 73q1 89 30 132t74 44q22 1 30 -6.5
t10 -11.5q-1 5 -1.5 15t-0.5 21zM120 488q3 3 8 1.5t9.5 -4.5t8 -7t2.5 -7t-12.5 -15t-25 -25.5t-25.5 -25t-14 -12.5q-1 0 -10.5 6t-6.5 14q1 4 11 15t21 23.5t21 23t13 13.5z" />
    <glyph glyph-name="cacute" unicode="&#x107;" horiz-adv-x="149" 
d="M112 267q0 3 5 4t10.5 0t10 -4t4.5 -7q-1 -4 -2.5 -17t-3.5 -28t-3.5 -27.5t-1.5 -13.5q0 -2 -4 -3t-8.5 -1t-9 1t-5.5 3t-3 10t-6.5 16.5t-11 14.5t-16.5 5t-17 -10t-11.5 -22.5t-6 -29t-0.5 -29.5q1 -15 2.5 -32.5t6 -32.5t12.5 -24.5t22 -9.5q11 0 16.5 6.5t7.5 14.5
t1.5 16.5t-0.5 12.5t4.5 6t10 2.5t10 -1t4.5 -4.5t1 -15.5t2.5 -27t3 -26.5t1.5 -15q0 -2 -3.5 -5t-8 -5t-9 -2t-4.5 3q-2 7 -3.5 13.5t-3.5 6.5t-9 -6t-19 -6q-7 0 -18.5 2t-23 14t-20.5 36.5t-12 69.5q-2 43 5 69t17.5 40t21.5 18.5t17 5.5q13 2 21.5 -1t13 -7t7 -7.5
t3.5 -3.5q2 1 1.5 13.5t1.5 19.5zM94 385q3 3 8 1.5t9.5 -4.5t8 -7t2.5 -7t-12.5 -15t-25 -25.5t-25.5 -25t-14 -12.5q-1 0 -10.5 6t-6.5 14q1 4 11 15t21 23.5t21 23t13 13.5z" />
    <glyph glyph-name="Ccircumflex" unicode="&#x108;" horiz-adv-x="200" 
d="M145 348q0 6 6 9t12.5 3t12.5 -2.5t6 -6.5t-0.5 -26t-0.5 -46.5t-0.5 -45t-0.5 -22.5t-4.5 -4t-9.5 -2.5t-10 1t-5 6.5q-1 5 -2 20t-5.5 30t-13.5 26t-24 10q-30 -3 -51 -42.5t-19 -101.5q1 -31 7 -57.5t15 -46t20 -30.5t22 -12q16 0 27.5 11t18.5 26t10 30t3 21
q0 7 4.5 9.5t10.5 2.5t10.5 -2.5t4.5 -5.5t-1 -24.5t-2 -47.5t-2 -48.5t-1 -26.5t-4.5 -6.5t-10 -3t-10 1.5t-4.5 8v13t0.5 16t1 15t0.5 10q-2 -3 -5.5 -9t-11 -11.5t-18.5 -9.5t-26 -4q-16 0 -32.5 13.5t-29.5 37.5t-21.5 57t-8.5 73q1 89 30 132t74 44q22 1 30 -6.5
t10 -11.5q-1 5 -1.5 15t-0.5 21zM69 401q-2 -3 -7.5 -2.5t-11 3.5t-9 7.5t-1.5 8.5t8 18.5t13 31t13.5 31.5t8.5 20q5 11 17.5 9.5t15.5 -7.5q1 -3 9 -19.5t16.5 -36t15.5 -36t7 -18.5t-4 -5t-9.5 -5.5t-11 -2.5t-6.5 4q-2 3 -7 16.5t-10 28t-9.5 25.5l-4.5 11l-4.5 -12.5
t-10.5 -27t-11.5 -27.5t-6.5 -15z" />
    <glyph glyph-name="ccircumflex" unicode="&#x109;" horiz-adv-x="149" 
d="M112 267q0 3 5 4t10.5 0t10 -4t4.5 -7q-1 -4 -2.5 -17t-3.5 -28t-3.5 -27.5t-1.5 -13.5q0 -2 -4 -3t-8.5 -1t-9 1t-5.5 3t-3 10t-6.5 16.5t-11 14.5t-16.5 5t-17 -10t-11.5 -22.5t-6 -29t-0.5 -29.5q1 -15 2.5 -32.5t6 -32.5t12.5 -24.5t22 -9.5q11 0 16.5 6.5t7.5 14.5
t1.5 16.5t-0.5 12.5t4.5 6t10 2.5t10 -1t4.5 -4.5t1 -15.5t2.5 -27t3 -26.5t1.5 -15q0 -2 -3.5 -5t-8 -5t-9 -2t-4.5 3q-2 7 -3.5 13.5t-3.5 6.5t-9 -6t-19 -6q-7 0 -18.5 2t-23 14t-20.5 36.5t-12 69.5q-2 43 5 69t17.5 40t21.5 18.5t17 5.5q13 2 21.5 -1t13 -7t7 -7.5
t3.5 -3.5q2 1 1.5 13.5t1.5 19.5zM44 293q-2 -3 -7.5 -2.5t-11 3.5t-9 7.5t-1.5 8.5t8 18.5t13 31t13.5 31.5t8.5 20q5 11 17.5 9.5t15.5 -7.5q1 -3 9 -19.5t16.5 -36t15.5 -36t7 -18.5t-4 -5t-9.5 -5.5t-11 -2.5t-6.5 4q-2 3 -7 16.5t-10 28t-9.5 25.5l-4.5 11l-4.5 -12.5
t-10.5 -27t-11.5 -27.5t-6.5 -15z" />
    <glyph glyph-name="Cdotaccent" unicode="&#x10a;" horiz-adv-x="200" 
d="M145 348q0 6 6 9t12.5 3t12.5 -2.5t6 -6.5t-0.5 -26t-0.5 -46.5t-0.5 -45t-0.5 -22.5t-4.5 -4t-9.5 -2.5t-10 1t-5 6.5q-1 5 -2 20t-5.5 30t-13.5 26t-24 10q-30 -3 -51 -42.5t-19 -101.5q1 -31 7 -57.5t15 -46t20 -30.5t22 -12q16 0 27.5 11t18.5 26t10 30t3 21
q0 7 4.5 9.5t10.5 2.5t10.5 -2.5t4.5 -5.5t-1 -24.5t-2 -47.5t-2 -48.5t-1 -26.5t-4.5 -6.5t-10 -3t-10 1.5t-4.5 8v13t0.5 16t1 15t0.5 10q-2 -3 -5.5 -9t-11 -11.5t-18.5 -9.5t-26 -4q-16 0 -32.5 13.5t-29.5 37.5t-21.5 57t-8.5 73q1 89 30 132t74 44q22 1 30 -6.5
t10 -11.5q-1 5 -1.5 15t-0.5 21zM75 444q0 9 6.5 15.5t15.5 6.5q10 0 17 -6.5t7 -15.5q0 -10 -7 -16t-17 -6q-9 0 -15.5 6t-6.5 16z" />
    <glyph glyph-name="cdotaccent" unicode="&#x10b;" horiz-adv-x="149" 
d="M112 267q0 3 5 4t10.5 0t10 -4t4.5 -7q-1 -4 -2.5 -17t-3.5 -28t-3.5 -27.5t-1.5 -13.5q0 -2 -4 -3t-8.5 -1t-9 1t-5.5 3t-3 10t-6.5 16.5t-11 14.5t-16.5 5t-17 -10t-11.5 -22.5t-6 -29t-0.5 -29.5q1 -15 2.5 -32.5t6 -32.5t12.5 -24.5t22 -9.5q11 0 16.5 6.5t7.5 14.5
t1.5 16.5t-0.5 12.5t4.5 6t10 2.5t10 -1t4.5 -4.5t1 -15.5t2.5 -27t3 -26.5t1.5 -15q0 -2 -3.5 -5t-8 -5t-9 -2t-4.5 3q-2 7 -3.5 13.5t-3.5 6.5t-9 -6t-19 -6q-7 0 -18.5 2t-23 14t-20.5 36.5t-12 69.5q-2 43 5 69t17.5 40t21.5 18.5t17 5.5q13 2 21.5 -1t13 -7t7 -7.5
t3.5 -3.5q2 1 1.5 13.5t1.5 19.5zM52 331q0 9 6.5 15.5t15.5 6.5q10 0 17 -6.5t7 -15.5q0 -10 -7 -16t-17 -6q-9 0 -15.5 6t-6.5 16z" />
    <glyph glyph-name="Ccaron" unicode="&#x10c;" horiz-adv-x="200" 
d="M145 348q0 6 6 9t12.5 3t12.5 -2.5t6 -6.5t-0.5 -26t-0.5 -46.5t-0.5 -45t-0.5 -22.5t-4.5 -4t-9.5 -2.5t-10 1t-5 6.5q-1 5 -2 20t-5.5 30t-13.5 26t-24 10q-30 -3 -51 -42.5t-19 -101.5q1 -31 7 -57.5t15 -46t20 -30.5t22 -12q16 0 27.5 11t18.5 26t10 30t3 21
q0 7 4.5 9.5t10.5 2.5t10.5 -2.5t4.5 -5.5t-1 -24.5t-2 -47.5t-2 -48.5t-1 -26.5t-4.5 -6.5t-10 -3t-10 1.5t-4.5 8v13t0.5 16t1 15t0.5 10q-2 -3 -5.5 -9t-11 -11.5t-18.5 -9.5t-26 -4q-16 0 -32.5 13.5t-29.5 37.5t-21.5 57t-8.5 73q1 89 30 132t74 44q22 1 30 -6.5
t10 -11.5q-1 5 -1.5 15t-0.5 21zM42 477q-2 4 0.5 7t7 4.5t9 2t6.5 -1.5t8.5 -11t13.5 -19q8 -11 16 -26q6 14 11 26q5 11 8.5 20.5t5.5 12.5q1 3 7 3t11.5 -2t9.5 -5t2 -7t-7.5 -16t-12.5 -26t-12.5 -26t-7.5 -15q-4 -6 -14 -8t-15 3q-2 3 -9 15t-15 26t-15 26.5t-8 16.5z
" />
    <glyph glyph-name="ccaron" unicode="&#x10d;" horiz-adv-x="149" 
d="M112 267q0 3 5 4t10.5 0t10 -4t4.5 -7q-1 -4 -2.5 -17t-3.5 -28t-3.5 -27.5t-1.5 -13.5q0 -2 -4 -3t-8.5 -1t-9 1t-5.5 3t-3 10t-6.5 16.5t-11 14.5t-16.5 5t-17 -10t-11.5 -22.5t-6 -29t-0.5 -29.5q1 -15 2.5 -32.5t6 -32.5t12.5 -24.5t22 -9.5q11 0 16.5 6.5t7.5 14.5
t1.5 16.5t-0.5 12.5t4.5 6t10 2.5t10 -1t4.5 -4.5t1 -15.5t2.5 -27t3 -26.5t1.5 -15q0 -2 -3.5 -5t-8 -5t-9 -2t-4.5 3q-2 7 -3.5 13.5t-3.5 6.5t-9 -6t-19 -6q-7 0 -18.5 2t-23 14t-20.5 36.5t-12 69.5q-2 43 5 69t17.5 40t21.5 18.5t17 5.5q13 2 21.5 -1t13 -7t7 -7.5
t3.5 -3.5q2 1 1.5 13.5t1.5 19.5zM7 369q-2 4 0.5 7t7 4.5t9 2t6.5 -1.5t8.5 -11t13.5 -19q8 -11 16 -26q6 14 11 26q5 11 8.5 20.5t5.5 12.5q1 3 7 3t11.5 -2t9.5 -5t2 -7t-7.5 -16t-12.5 -26t-12.5 -26t-7.5 -15q-4 -6 -14 -8t-15 3q-2 3 -9 15t-15 26t-15 26.5t-8 16.5z
" />
    <glyph glyph-name="Dcaron" unicode="&#x10e;" horiz-adv-x="224" 
d="M84 474q-3 0 -6 4.5t-3.5 10t0.5 10.5t5 6t22.5 4t39.5 6.5t39.5 6.5t23.5 4q4 1 7 -4.5t3.5 -12.5t-1 -13t-4.5 -6q-7 0 -20.5 -1.5t-14.5 -4.5q0 -1 2 -40.5t5.5 -99t8 -128t8.5 -127.5t7.5 -98t4.5 -39q4 1 18 3.5t21 4.5q3 1 4.5 -4t1.5 -11t-1 -11.5t-4 -5.5
t-18.5 -3.5t-33.5 -8t-34 -8t-20 -3.5q-5 0 -8 4t-4 9t-0.5 9.5t3.5 6.5q3 1 10 3l14 4t12.5 3.5t6.5 3.5q1 1 0 16t-2.5 32.5t-3 33t-1.5 17.5q0 -4 -3.5 -15.5t-10 -24.5t-16.5 -24t-25 -13q-16 -2 -34 9.5t-34 38t-28 69.5t-16 104q-5 61 2 97.5t18.5 55.5t25 25t21.5 7
q20 3 35 -4t25.5 -16t16 -16.5l5.5 -7.5l-0.5 11t-2 27t-2.5 35t-2.5 35t-2.5 27t-1 12t-8 0t-18.5 -2t-20 -2t-12.5 -1zM154 275q0 5 -6 17t-16 23.5t-24 20t-30 5.5t-25.5 -18.5t-13.5 -37t-4 -46.5t2 -47q4 -44 11.5 -80t17.5 -61t22 -38t25 -10t22.5 27t15 61.5t6.5 85
t-3 98.5zM86 641q-2 4 0.5 7t7 4.5t9 2t6.5 -1.5t8.5 -11t13.5 -19q8 -11 16 -26q6 14 11 26q5 11 8.5 20.5t5.5 12.5q1 3 7 3t11.5 -2t9.5 -5t2 -7t-7.5 -16t-12.5 -26t-12.5 -26t-7.5 -15q-4 -6 -14 -8t-15 3q-2 3 -9 15t-15 26t-15 26.5t-8 16.5z" />
    <glyph glyph-name="dcaron" unicode="&#x10f;" horiz-adv-x="204" 
d="M59 365q-2 0 -3.5 5t-3 11.5t-1 12t3.5 5.5t14 0.5t24 1t24 1t14 0.5t5 -4.5t2.5 -10.5t0 -11t-3.5 -5q-5 -1 -10.5 -1t-7.5 -2q-1 -1 1 -28l5 -67.5t6.5 -87.5t7 -87.5t6 -67.5t3.5 -27q2 -1 7.5 2t10.5 4q2 0 4.5 -4t4 -9t1.5 -10t-2 -6t-12.5 -5t-22.5 -9.5t-23 -9.5
t-14 -5t-6.5 2t-5.5 7.5t-3 8.5t1 5l15 7.5t13 7.5q1 1 1 8t-1 15.5t-2 15.5t-1 8t-6.5 -2t-17 -4.5t-24.5 0.5t-29 13t-23.5 28.5t-9.5 38t5 40.5t20 35t26 22t21 9.5t14.5 3t5.5 2.5t-1 24t-3 48.5t-4 48.5t-2 23q-2 2 -11.5 0.5t-12.5 -1.5zM94 189q-1 1 -7 -0.5
t-13.5 -5t-15.5 -9t-13 -12.5q-5 -8 -9 -19.5t-5 -24t2.5 -24.5t14.5 -21q10 -9 20.5 -11.5t18.5 -1t13 5t5 6.5q1 3 -0.5 21t-3.5 39t-4 38t-3 19zM148 352q-3 6 1 10.5t11 7t14 3t9 -2.5q3 -3 6.5 -13t6 -23t3.5 -27t-2 -26t-8 -22.5t-11 -18t-11.5 -12t-7.5 -4.5
q-3 -1 -11 7.5t-5 14.5q2 6 12.5 15.5t11.5 23.5t-6 35t-13 32z" />
    <glyph glyph-name="Dcroat" unicode="&#x110;" horiz-adv-x="224" 
d="M206 439q3 0 5.5 -3.5t3.5 -8.5t0.5 -9.5t-3.5 -5.5q-2 0 -11 -2t-22 -4q2 -37 5 -85t6.5 -98.5t6.5 -99t6 -86.5t5 -61.5t3 -23.5q4 1 18 3.5t21 4.5q3 1 4.5 -4t1.5 -11t-1 -11.5t-4 -5.5t-18.5 -3.5t-33.5 -8t-34 -8t-20 -3.5q-5 0 -8 4t-4 9t-0.5 9.5t3.5 6.5
q3 1 10 3l14 4t12.5 3.5t6.5 3.5q1 1 0 16t-2.5 32.5t-3 33t-1.5 17.5q0 -4 -3.5 -15.5t-10 -24.5t-16.5 -24t-25 -13q-16 -2 -34 9.5t-34 38t-28 69.5t-16 104q-5 61 2 97.5t18.5 55.5t25 25t21.5 7q20 3 35 -4t25.5 -16t16 -16.5l5.5 -7.5q0 1 -1.5 22t-3.5 47
q-13 -3 -23 -4t-12 -1q-7 2 -9.5 14.5t4.5 14.5l38 6q-2 20 -3 33.5t-1 14.5t-8 0t-18.5 -2t-20 -2t-12.5 -1t-6 4.5t-3.5 10t0.5 10.5t5 6t22.5 4t39.5 6.5t39.5 6.5t23.5 4q4 1 7 -4.5t3.5 -12.5t-1 -13t-4.5 -6q-7 0 -20.5 -1.5t-14.5 -4.5q0 -7 1 -14q0 -7 0.5 -15
t1.5 -19q10 2 17.5 2.5t10.5 0.5zM154 275q0 5 -6 17t-16 23.5t-24 20t-30 5.5t-25.5 -18.5t-13.5 -37t-4 -46.5t2 -47q4 -44 11.5 -80t17.5 -61t22 -38t25 -10t22.5 27t15 61.5t6.5 85t-3 98.5z" />
    <glyph glyph-name="dcroat" unicode="&#x111;" horiz-adv-x="167" 
d="M140 302q4 0 7 -5t4.5 -11t1 -11t-3.5 -5l-26 -6q3 -40 6.5 -86t7 -85t6 -64.5t3.5 -25.5q2 -1 7.5 2t10.5 4q2 0 4.5 -4t4 -9t1.5 -10t-2 -6t-12.5 -5t-22.5 -9.5t-23 -9.5t-14 -5t-6.5 2t-5.5 7.5t-3 8.5t1 5l15 7.5t13 7.5q1 1 1 8t-1 15.5t-2 15.5t-1 8t-6.5 -2
t-17 -4.5t-24.5 0.5t-29 13t-23.5 28.5t-9.5 38t5 40.5t20 35t26 22t21 9.5t14.5 3t5.5 2.5q0 1 -0.5 11t-1.5 26q-14 -3 -25.5 -4.5t-14.5 -0.5q-3 0 -5.5 5t-3.5 11t0.5 11.5t4.5 5.5l42 7q-2 26 -4 48.5t-2 23.5q-2 2 -11.5 0.5t-12.5 -1.5q-2 0 -3.5 5t-3 11.5t-1 12
t3.5 5.5t14 0.5t24 1t24 1t14 0.5t5 -4.5t2.5 -10.5t0 -11t-3.5 -5q-5 -1 -10.5 -1t-7.5 -2q0 -1 1 -20t3 -49q7 2 12 2t7 1zM94 189q-1 1 -7 -0.5t-13.5 -5t-15.5 -9t-13 -12.5q-5 -8 -9 -19.5t-5 -24t2.5 -24.5t14.5 -21q10 -9 20.5 -11.5t18.5 -1t13 5t5 6.5q1 3 -0.5 21
t-3.5 39t-4 38t-3 19z" />
    <glyph glyph-name="Emacron" unicode="&#x112;" 
d="M97 30q10 -4 20 -3.5t18 3t13.5 6.5t5.5 7q0 7 -0.5 15.5t-1.5 18.5q0 5 4.5 7.5t10 2.5t10.5 -2.5t5 -6.5t3.5 -20t7 -34t7 -33.5t4.5 -19.5q0 -4 -4 -8t-10 -6t-11 -2t-6 5q-1 4 -2.5 11t-3.5 13.5t-3.5 11.5t-2.5 5t-7 -2.5t-15.5 -5.5t-22 -3.5t-26.5 4.5t-29.5 17.5
t-28 35t-21 57t-8.5 83.5q-1 42 7.5 77t23 60.5t34 40.5t41.5 17t39.5 -7.5t29 -25.5t17 -35.5t5.5 -38.5q0 -21 -7.5 -42.5t-22 -39.5t-36 -31t-49.5 -17q-27 -4 -46 -3q3 -32 9.5 -52.5t15 -33t17 -18t16.5 -8.5zM77 175q41 9 65.5 37t24.5 60t-14 53t-43 21
q-11 0 -24.5 -10.5t-25 -30.5t-18.5 -50.5t-6 -70.5q0 -8 1 -11q8 -2 18 -1.5t22 3.5zM154 471q3 0 6 -3.5t4 -8.5t0 -9.5t-4 -5.5q-3 0 -17.5 -3t-31 -6t-31.5 -5t-18 -2q-7 2 -9.5 14.5t4.5 14.5q3 1 17.5 3t31 4.5t30.5 4.5t18 2z" />
    <glyph glyph-name="emacron" unicode="&#x113;" horiz-adv-x="160" 
d="M48 244q26 4 42 -13.5t25 -41t12.5 -46t3.5 -28.5q1 -13 -0.5 -18.5t-18.5 -7.5q-9 -1 -21.5 -2.5t-24 -2.5t-20 -2.5t-9.5 -2.5t0.5 -8.5t6 -16t12 -15t19.5 -5.5q23 3 30.5 13.5t7.5 16.5t9.5 9.5t12.5 1.5l4 -8t6.5 -13.5t7 -14.5t5.5 -10t-1 -8t-8.5 -9t-10.5 -5.5
t-7 1.5q-3 6 -5 9.5t-5 3.5t-13.5 -7.5t-28.5 -8.5q-9 0 -21.5 2.5t-24.5 12.5t-21 30.5t-10 55.5q-3 71 11.5 103.5t34.5 34.5zM55 208q-12 -6 -17 -22t-6 -32.5t0.5 -29t1.5 -13.5q1 -1 10.5 0t21.5 2.5t22 3.5t12 3q1 1 -1.5 17t-8.5 34t-15 30.5t-20 6.5z
M98.9053 329.652q3.02637 0 6.05273 -3.70605t4.03516 -9t0 -10.0586t-4.03516 -5.82324q-3.02637 0 -17.6533 -3.17676q-14.6279 -3.17676 -31.2734 -6.35352q-16.6445 -3.17676 -31.7764 -5.29395t-18.1582 -2.11719q-7.06152 2.11719 -9.58301 15.3525
q-2.52246 13.2354 4.53906 15.3535q3.02637 1.05859 17.6543 3.17676q14.627 2.11719 31.2715 4.76465q16.6455 2.64648 30.7686 4.76465q14.123 2.11719 18.1582 2.11719z" />
    <glyph glyph-name="Ebreve" unicode="&#x114;" 
d="M97 30q10 -4 20 -3.5t18 3t13.5 6.5t5.5 7q0 7 -0.5 15.5t-1.5 18.5q0 5 4.5 7.5t10 2.5t10.5 -2.5t5 -6.5t3.5 -20t7 -34t7 -33.5t4.5 -19.5q0 -4 -4 -8t-10 -6t-11 -2t-6 5q-1 4 -2.5 11t-3.5 13.5t-3.5 11.5t-2.5 5t-7 -2.5t-15.5 -5.5t-22 -3.5t-26.5 4.5t-29.5 17.5
t-28 35t-21 57t-8.5 83.5q-1 42 7.5 77t23 60.5t34 40.5t41.5 17t39.5 -7.5t29 -25.5t17 -35.5t5.5 -38.5q0 -21 -7.5 -42.5t-22 -39.5t-36 -31t-49.5 -17q-27 -4 -46 -3q3 -32 9.5 -52.5t15 -33t17 -18t16.5 -8.5zM77 175q41 9 65.5 37t24.5 60t-14 53t-43 21
q-11 0 -24.5 -10.5t-25 -30.5t-18.5 -50.5t-6 -70.5q0 -8 1 -11q8 -2 18 -1.5t22 3.5zM36 496q0 3 5 4.5t11 1t11.5 -2t5.5 -2.5q0 -2 0.5 -9.5t3.5 -16t9.5 -15.5t19.5 -8t21.5 5t13.5 14t7.5 16t2.5 13q0 4 5.5 6t12 1.5t12 -2.5t5.5 -5q0 -4 -3 -16.5t-11 -26.5
t-23.5 -24.5t-40.5 -9.5q-25 0 -39 11t-20.5 24.5t-7.5 25.5t-1 16z" />
    <glyph glyph-name="ebreve" unicode="&#x115;" horiz-adv-x="160" 
d="M3 356q0 4 5 5t11 1t11.5 -1.5t5.5 -3.5t-0.5 -9.5t1.5 -15.5t7.5 -15t18.5 -8q12 -1 18.5 5t9 14t2.5 16v12t5.5 6t12 2t12 -2t5.5 -6q0 -3 -0.5 -16t-6 -26.5t-18.5 -24t-38 -10.5q-26 1 -39 11.5t-18 24t-5 26v15.5zM48 244q26 4 42 -13.5t25 -41t12.5 -46t3.5 -28.5
q1 -13 -0.5 -18.5t-18.5 -7.5q-9 -1 -21.5 -2.5t-24 -2.5t-20 -2.5t-9.5 -2.5t0.5 -8.5t6 -16t12 -15t19.5 -5.5q23 3 30.5 13.5t7.5 16.5t9.5 9.5t12.5 1.5l4 -8t6.5 -13.5t7 -14.5t5.5 -10t-1 -8t-8.5 -9t-10.5 -5.5t-7 1.5q-3 6 -5 9.5t-5 3.5t-13.5 -7.5t-28.5 -8.5
q-9 0 -21.5 2.5t-24.5 12.5t-21 30.5t-10 55.5q-3 71 11.5 103.5t34.5 34.5zM55 208q-12 -6 -17 -22t-6 -32.5t0.5 -29t1.5 -13.5q1 -1 10.5 0t21.5 2.5t22 3.5t12 3q1 1 -1.5 17t-8.5 34t-15 30.5t-20 6.5z" />
    <glyph glyph-name="Edotaccent" unicode="&#x116;" 
d="M97 30q10 -4 20 -3.5t18 3t13.5 6.5t5.5 7q0 7 -0.5 15.5t-1.5 18.5q0 5 4.5 7.5t10 2.5t10.5 -2.5t5 -6.5t3.5 -20t7 -34t7 -33.5t4.5 -19.5q0 -4 -4 -8t-10 -6t-11 -2t-6 5q-1 4 -2.5 11t-3.5 13.5t-3.5 11.5t-2.5 5t-7 -2.5t-15.5 -5.5t-22 -3.5t-26.5 4.5t-29.5 17.5
t-28 35t-21 57t-8.5 83.5q-1 42 7.5 77t23 60.5t34 40.5t41.5 17t39.5 -7.5t29 -25.5t17 -35.5t5.5 -38.5q0 -21 -7.5 -42.5t-22 -39.5t-36 -31t-49.5 -17q-27 -4 -46 -3q3 -32 9.5 -52.5t15 -33t17 -18t16.5 -8.5zM77 175q41 9 65.5 37t24.5 60t-14 53t-43 21
q-11 0 -24.5 -10.5t-25 -30.5t-18.5 -50.5t-6 -70.5q0 -8 1 -11q8 -2 18 -1.5t22 3.5zM93 447q0 9 6.5 15.5t15.5 6.5q10 0 17 -6.5t7 -15.5q0 -10 -7 -16t-17 -6q-9 0 -15.5 6t-6.5 16z" />
    <glyph glyph-name="edotaccent" unicode="&#x117;" horiz-adv-x="160" 
d="M48 244q26 4 42 -13.5t25 -41t12.5 -46t3.5 -28.5q1 -13 -0.5 -18.5t-18.5 -7.5q-9 -1 -21.5 -2.5t-24 -2.5t-20 -2.5t-9.5 -2.5t0.5 -8.5t6 -16t12 -15t19.5 -5.5q23 3 30.5 13.5t7.5 16.5t9.5 9.5t12.5 1.5l4 -8t6.5 -13.5t7 -14.5t5.5 -10t-1 -8t-8.5 -9t-10.5 -5.5
t-7 1.5q-3 6 -5 9.5t-5 3.5t-13.5 -7.5t-28.5 -8.5q-9 0 -21.5 2.5t-24.5 12.5t-21 30.5t-10 55.5q-3 71 11.5 103.5t34.5 34.5zM55 208q-12 -6 -17 -22t-6 -32.5t0.5 -29t1.5 -13.5q1 -1 10.5 0t21.5 2.5t22 3.5t12 3q1 1 -1.5 17t-8.5 34t-15 30.5t-20 6.5zM29 301
q0 9 6.5 15.5t15.5 6.5q10 0 17 -6.5t7 -15.5q0 -10 -7 -16t-17 -6q-9 0 -15.5 6t-6.5 16z" />
    <glyph glyph-name="Eogonek" unicode="&#x118;" 
d="M97 30q10 -4 20 -3.5t18 3t13.5 6.5t5.5 7q0 7 -0.5 15.5t-1.5 18.5q0 5 4.5 7.5t10 2.5t10.5 -2.5t5 -6.5t3.5 -20t7 -34t7 -33.5t4.5 -19.5q0 -4 -4 -8t-10 -6t-11 -2t-6 5q-1 4 -2.5 11t-3.5 13.5t-3.5 11.5t-2.5 5h-2q-1 0 -3 -2l-10.5 -10.5t-12.5 -13.5t-10 -14
t-4 -12q0 -6 5 -10.5t12 -7.5t14 -4.5t11 -1.5t5.5 -4.5t1 -10t-3 -10t-7.5 -4.5t-15 2.5t-21.5 7t-21 12t-13.5 18.5q-3 11 3.5 26t15.5 28q-4 1 -7.5 2t-7.5 2q-14 5 -29.5 17.5t-28 35t-21 57t-8.5 83.5q-1 42 7.5 77t23 60.5t34 40.5t41.5 17t39.5 -7.5t29 -25.5
t17 -35.5t5.5 -38.5q0 -21 -7.5 -42.5t-22 -39.5t-36 -31t-49.5 -17q-27 -4 -46 -3q3 -32 9.5 -52.5t15 -33t17 -18t16.5 -8.5zM77 175q41 9 65.5 37t24.5 60t-14 53t-43 21q-11 0 -24.5 -10.5t-25 -30.5t-18.5 -50.5t-6 -70.5q0 -8 1 -11q8 -2 18 -1.5t22 3.5z" />
    <glyph glyph-name="eogonek" unicode="&#x119;" horiz-adv-x="160" 
d="M95 40q11 5 14.5 12t3.5 12q0 6 9.5 9.5t12.5 1.5l4 -8t6.5 -13.5t7 -14.5t5.5 -10t-1 -8t-8.5 -9t-10.5 -5.5t-7 1.5q-3 6 -5 9.5t-5 3.5q-2 0 -4 -1q-2 -3 -9 -9.5t-14 -14.5t-12 -16t-5 -14t5.5 -10.5t12 -7.5t13.5 -4.5t11 -1.5t6 -4.5t1.5 -10.5t-3 -10.5t-7.5 -3.5
q-5 0 -15 2.5t-21.5 7t-21 12t-13.5 18.5t2.5 25.5t16.5 27.5q-10 1 -20.5 6t-19.5 16.5t-15 30t-7 47.5q-3 71 11.5 103.5t34.5 34.5q26 4 42 -13.5t25 -41t12.5 -46t3.5 -28.5q1 -13 -0.5 -18.5t-18.5 -7.5q-9 -1 -21.5 -2.5t-24 -2.5t-20 -2.5t-9.5 -2.5t0.5 -8.5t6 -16
t12 -15t19.5 -5.5q5 1 9 2t8 3h1zM55 208q-12 -6 -17 -22t-6 -32.5t0.5 -29t1.5 -13.5q1 -1 10.5 0t21.5 2.5t22 3.5t12 3q1 1 -1.5 17t-8.5 34t-15 30.5t-20 6.5z" />
    <glyph glyph-name="Ecaron" unicode="&#x11a;" 
d="M97 30q10 -4 20 -3.5t18 3t13.5 6.5t5.5 7q0 7 -0.5 15.5t-1.5 18.5q0 5 4.5 7.5t10 2.5t10.5 -2.5t5 -6.5t3.5 -20t7 -34t7 -33.5t4.5 -19.5q0 -4 -4 -8t-10 -6t-11 -2t-6 5q-1 4 -2.5 11t-3.5 13.5t-3.5 11.5t-2.5 5t-7 -2.5t-15.5 -5.5t-22 -3.5t-26.5 4.5t-29.5 17.5
t-28 35t-21 57t-8.5 83.5q-1 42 7.5 77t23 60.5t34 40.5t41.5 17t39.5 -7.5t29 -25.5t17 -35.5t5.5 -38.5q0 -21 -7.5 -42.5t-22 -39.5t-36 -31t-49.5 -17q-27 -4 -46 -3q3 -32 9.5 -52.5t15 -33t17 -18t16.5 -8.5zM77 175q41 9 65.5 37t24.5 60t-14 53t-43 21
q-11 0 -24.5 -10.5t-25 -30.5t-18.5 -50.5t-6 -70.5q0 -8 1 -11q8 -2 18 -1.5t22 3.5zM48 500q-2 4 0.5 7t7 4.5t9 2t6.5 -1.5t8.5 -11t13.5 -19q8 -11 16 -26q6 14 11 26q5 11 8.5 20.5t5.5 12.5q1 3 7 3t11.5 -2t9.5 -5t2 -7t-7.5 -16t-12.5 -26t-12.5 -26t-7.5 -15
q-4 -6 -14 -8t-15 3q-2 3 -9 15t-15 26t-15 26.5t-8 16.5z" />
    <glyph glyph-name="ecaron" unicode="&#x11b;" horiz-adv-x="160" 
d="M48 244q26 4 42 -13.5t25 -41t12.5 -46t3.5 -28.5q1 -13 -0.5 -18.5t-18.5 -7.5q-9 -1 -21.5 -2.5t-24 -2.5t-20 -2.5t-9.5 -2.5t0.5 -8.5t6 -16t12 -15t19.5 -5.5q23 3 30.5 13.5t7.5 16.5t9.5 9.5t12.5 1.5l4 -8t6.5 -13.5t7 -14.5t5.5 -10t-1 -8t-8.5 -9t-10.5 -5.5
t-7 1.5q-3 6 -5 9.5t-5 3.5t-13.5 -7.5t-28.5 -8.5q-9 0 -21.5 2.5t-24.5 12.5t-21 30.5t-10 55.5q-3 71 11.5 103.5t34.5 34.5zM55 208q-12 -6 -17 -22t-6 -32.5t0.5 -29t1.5 -13.5q1 -1 10.5 0t21.5 2.5t22 3.5t12 3q1 1 -1.5 17t-8.5 34t-15 30.5t-20 6.5zM-5 364
q-2 4 0.5 7t7 4.5t9 2t6.5 -1.5t8.5 -11t13.5 -19q8 -11 16 -26q6 14 11 26q5 11 8.5 20.5t5.5 12.5q1 3 7 3t11.5 -2t9.5 -5t2 -7t-7.5 -16t-12.5 -26t-12.5 -26t-7.5 -15q-4 -6 -14 -8t-15 3q-2 3 -9 15t-15 26t-15 26.5t-8 16.5z" />
    <glyph glyph-name="Gcircumflex" unicode="&#x11c;" horiz-adv-x="263" 
d="M178 358q-2 1 -8 1.5t-14 0.5h-15h-10t-4 4t-0.5 9t3 9.5t5.5 5.5t21 2t39 2t38.5 2t19.5 1q1 0 2.5 -4t2 -9t-0.5 -9t-4 -4q-6 0 -18.5 -2.5t-12.5 -5.5q-2 -41 0.5 -89t7.5 -99.5t10.5 -103.5t8.5 -99q12 1 20 1h10q3 0 4.5 -5.5t2 -12t-1 -12t-5.5 -5.5h-28
q3 -63 -2 -107.5t-26 -60.5q-25 -18 -52 -14t-47.5 22.5t-30.5 48t1 61.5q6 19 19.5 32.5t30.5 23t36 15.5t37 9q-2 26 -5 49.5t-5 42.5q-3 22 -6 41q-9 -25 -23 -43q-12 -16 -31.5 -27.5t-48.5 -7.5t-46.5 22.5t-25.5 44.5t-7 57t8 60q11 46 35 71t48.5 37t43.5 15t20 4
q3 2 5 13t-1 13zM180 299l-16 -2.5t-37 -12t-41 -29.5t-28 -56t-6.5 -63t9 -45t18 -27.5t20.5 -10.5q10 -2 25.5 3t30.5 21t26 45.5t12 78.5q2 51 -4.5 74t-8.5 24zM129 -123q-7 -25 -2 -43.5t17 -29.5t28.5 -14t32.5 3q7 3 11 15.5t5.5 32t0.5 43.5t-2 50q-29 -5 -56 -16.5
t-35 -40.5zM154 465q-2 -3 -7.5 -2.5t-11 3.5t-9 7.5t-1.5 8.5t8 18.5t13 31t13.5 31.5t8.5 20q5 11 17.5 9.5t15.5 -7.5q1 -3 9 -19.5t16.5 -36t15.5 -36t7 -18.5t-4 -5t-9.5 -5.5t-11 -2.5t-6.5 4q-2 3 -7 16.5t-10 28t-9.5 25.5l-4.5 11l-4.5 -12.5t-10.5 -27
t-11.5 -27.5t-6.5 -15z" />
    <glyph glyph-name="gcircumflex" unicode="&#x11d;" horiz-adv-x="180" 
d="M122 233q0 11 9 16q5 2 18 2h18q3 0 4.5 -5t2 -11t-1 -11.5t-4.5 -5.5q-13 -2 -14 -7q0 -2 1 -13t3 -29.5t4 -42t3 -49.5q1 -22 2.5 -45.5t3.5 -46.5q10 2 17.5 2h10.5q4 0 7 -4t3.5 -9t-1 -9.5t-5.5 -4.5t-12 -0.5t-20 -1.5q0 -33 -4 -62t-16 -50t-33.5 -31t-55.5 -4
q-24 4 -35 23.5t-10.5 43.5t13.5 47.5t37 34.5q15 8 35 12.5t40 8.5l-2 27q0 4 -11.5 0t-41.5 -5q-15 -1 -29.5 3.5t-26.5 15t-20 28t-9 41.5q-1 26 5 45t16.5 32t23.5 20.5t26 10.5q27 6 37 4t12 0t1 13.5t-1 16.5zM122 171q-15 5 -32 2t-30.5 -13.5t-21.5 -27.5t-6 -39
q2 -21 11 -34.5t23 -20t31 -5.5t35 10q3 1 2 21t-3 43.5t-5 43t-4 20.5zM77 -66q-14 -8 -21 -22.5t-8 -29.5t5 -27t19 -15q22 -5 36 4t21.5 26t10 39t2.5 44q-17 -2 -34 -6.5t-31 -12.5zM48 267q-2 -3 -7.5 -2.5t-11 3.5t-9 7.5t-1.5 8.5t8 18.5t13 31t13.5 31.5t8.5 20
q5 11 17.5 9.5t15.5 -7.5q1 -3 9 -19.5t16.5 -36t15.5 -36t7 -18.5t-4 -5t-9.5 -5.5t-11 -2.5t-6.5 4q-2 3 -7 16.5t-10 28t-9.5 25.5l-4.5 11l-4.5 -12.5t-10.5 -27t-11.5 -27.5t-6.5 -15z" />
    <glyph glyph-name="Gbreve" unicode="&#x11e;" horiz-adv-x="263" 
d="M178 358q-2 1 -8 1.5t-14 0.5h-15h-10t-4 4t-0.5 9t3 9.5t5.5 5.5t21 2t39 2t38.5 2t19.5 1q1 0 2.5 -4t2 -9t-0.5 -9t-4 -4q-6 0 -18.5 -2.5t-12.5 -5.5q-2 -41 0.5 -89t7.5 -99.5t10.5 -103.5t8.5 -99q12 1 20 1h10q3 0 4.5 -5.5t2 -12t-1 -12t-5.5 -5.5h-28
q3 -63 -2 -107.5t-26 -60.5q-25 -18 -52 -14t-47.5 22.5t-30.5 48t1 61.5q6 19 19.5 32.5t30.5 23t36 15.5t37 9q-2 26 -5 49.5t-5 42.5q-3 22 -6 41q-9 -25 -23 -43q-12 -16 -31.5 -27.5t-48.5 -7.5t-46.5 22.5t-25.5 44.5t-7 57t8 60q11 46 35 71t48.5 37t43.5 15t20 4
q3 2 5 13t-1 13zM180 299l-16 -2.5t-37 -12t-41 -29.5t-28 -56t-6.5 -63t9 -45t18 -27.5t20.5 -10.5q10 -2 25.5 3t30.5 21t26 45.5t12 78.5q2 51 -4.5 74t-8.5 24zM129 -123q-7 -25 -2 -43.5t17 -29.5t28.5 -14t32.5 3q7 3 11 15.5t5.5 32t0.5 43.5t-2 50q-29 -5 -56 -16.5
t-35 -40.5zM114 533q0 3 5 4.5t11 1t11.5 -2t5.5 -2.5q0 -2 0.5 -9.5t3.5 -16t9.5 -15.5t19.5 -8t21.5 5t13.5 14t7.5 16t2.5 13q0 4 5.5 6t12 1.5t12 -2.5t5.5 -5q0 -4 -3 -16.5t-11 -26.5t-23.5 -24.5t-40.5 -9.5q-25 0 -39 11t-20.5 24.5t-7.5 25.5t-1 16z" />
    <glyph glyph-name="gbreve" unicode="&#x11f;" horiz-adv-x="180" 
d="M122 233q0 11 9 16q5 2 18 2h18q3 0 4.5 -5t2 -11t-1 -11.5t-4.5 -5.5q-13 -2 -14 -7q0 -2 1 -13t3 -29.5t4 -42t3 -49.5q1 -22 2.5 -45.5t3.5 -46.5q10 2 17.5 2h10.5q4 0 7 -4t3.5 -9t-1 -9.5t-5.5 -4.5t-12 -0.5t-20 -1.5q0 -33 -4 -62t-16 -50t-33.5 -31t-55.5 -4
q-24 4 -35 23.5t-10.5 43.5t13.5 47.5t37 34.5q15 8 35 12.5t40 8.5l-2 27q0 4 -11.5 0t-41.5 -5q-15 -1 -29.5 3.5t-26.5 15t-20 28t-9 41.5q-1 26 5 45t16.5 32t23.5 20.5t26 10.5q27 6 37 4t12 0t1 13.5t-1 16.5zM122 171q-15 5 -32 2t-30.5 -13.5t-21.5 -27.5t-6 -39
q2 -21 11 -34.5t23 -20t31 -5.5t35 10q3 1 2 21t-3 43.5t-5 43t-4 20.5zM77 -66q-14 -8 -21 -22.5t-8 -29.5t5 -27t19 -15q22 -5 36 4t21.5 26t10 39t2.5 44q-17 -2 -34 -6.5t-31 -12.5zM7 330q0 3 5 4.5t11 1t11.5 -2t5.5 -2.5q0 -2 0.5 -9.5t3.5 -16t9.5 -15.5t19.5 -8
t21.5 5t13.5 14t7.5 16t2.5 13q0 4 5.5 6t12 1.5t12 -2.5t5.5 -5q0 -4 -3 -16.5t-11 -26.5t-23.5 -24.5t-40.5 -9.5q-25 0 -39 11t-20.5 24.5t-7.5 25.5t-1 16z" />
    <glyph glyph-name="Gdotaccent" unicode="&#x120;" horiz-adv-x="263" 
d="M178 358q-2 1 -8 1.5t-14 0.5h-15h-10t-4 4t-0.5 9t3 9.5t5.5 5.5t21 2t39 2t38.5 2t19.5 1q1 0 2.5 -4t2 -9t-0.5 -9t-4 -4q-6 0 -18.5 -2.5t-12.5 -5.5q-2 -41 0.5 -89t7.5 -99.5t10.5 -103.5t8.5 -99q12 1 20 1h10q3 0 4.5 -5.5t2 -12t-1 -12t-5.5 -5.5h-28
q3 -63 -2 -107.5t-26 -60.5q-25 -18 -52 -14t-47.5 22.5t-30.5 48t1 61.5q6 19 19.5 32.5t30.5 23t36 15.5t37 9q-2 26 -5 49.5t-5 42.5q-3 22 -6 41q-9 -25 -23 -43q-12 -16 -31.5 -27.5t-48.5 -7.5t-46.5 22.5t-25.5 44.5t-7 57t8 60q11 46 35 71t48.5 37t43.5 15t20 4
q3 2 5 13t-1 13zM180 299l-16 -2.5t-37 -12t-41 -29.5t-28 -56t-6.5 -63t9 -45t18 -27.5t20.5 -10.5q10 -2 25.5 3t30.5 21t26 45.5t12 78.5q2 51 -4.5 74t-8.5 24zM129 -123q-7 -25 -2 -43.5t17 -29.5t28.5 -14t32.5 3q7 3 11 15.5t5.5 32t0.5 43.5t-2 50q-29 -5 -56 -16.5
t-35 -40.5zM172 481q0 9 6.5 15.5t15.5 6.5q10 0 17 -6.5t7 -15.5q0 -10 -7 -16t-17 -6q-9 0 -15.5 6t-6.5 16z" />
    <glyph glyph-name="gdotaccent" unicode="&#x121;" horiz-adv-x="180" 
d="M122 233q0 11 9 16q5 2 18 2h18q3 0 4.5 -5t2 -11t-1 -11.5t-4.5 -5.5q-13 -2 -14 -7q0 -2 1 -13t3 -29.5t4 -42t3 -49.5q1 -22 2.5 -45.5t3.5 -46.5q10 2 17.5 2h10.5q4 0 7 -4t3.5 -9t-1 -9.5t-5.5 -4.5t-12 -0.5t-20 -1.5q0 -33 -4 -62t-16 -50t-33.5 -31t-55.5 -4
q-24 4 -35 23.5t-10.5 43.5t13.5 47.5t37 34.5q15 8 35 12.5t40 8.5l-2 27q0 4 -11.5 0t-41.5 -5q-15 -1 -29.5 3.5t-26.5 15t-20 28t-9 41.5q-1 26 5 45t16.5 32t23.5 20.5t26 10.5q27 6 37 4t12 0t1 13.5t-1 16.5zM122 171q-15 5 -32 2t-30.5 -13.5t-21.5 -27.5t-6 -39
q2 -21 11 -34.5t23 -20t31 -5.5t35 10q3 1 2 21t-3 43.5t-5 43t-4 20.5zM77 -66q-14 -8 -21 -22.5t-8 -29.5t5 -27t19 -15q22 -5 36 4t21.5 26t10 39t2.5 44q-17 -2 -34 -6.5t-31 -12.5zM42 268q0 9 6.5 15.5t15.5 6.5q10 0 17 -6.5t7 -15.5q0 -10 -7 -16t-17 -6
q-9 0 -15.5 6t-6.5 16z" />
    <glyph glyph-name="Gcommaaccent" unicode="&#x122;" horiz-adv-x="263" 
d="M178 358q-2 1 -8 1.5t-14 0.5h-15h-10t-4 4t-0.5 9t3 9.5t5.5 5.5t21 2t39 2t38.5 2t19.5 1q1 0 2.5 -4t2 -9t-0.5 -9t-4 -4q-6 0 -18.5 -2.5t-12.5 -5.5q-2 -41 0.5 -89t7.5 -99.5t10.5 -103.5t8.5 -99q12 1 20 1h10q3 0 4.5 -5.5t2 -12t-1 -12t-5.5 -5.5h-28
q3 -63 -2 -107.5t-26 -60.5q-25 -18 -52 -14t-47.5 22.5t-30.5 48t1 61.5q6 19 19.5 32.5t30.5 23t36 15.5t37 9q-2 26 -5 49.5t-5 42.5q-3 22 -6 41q-9 -25 -23 -43q-12 -16 -31.5 -27.5t-48.5 -7.5t-46.5 22.5t-25.5 44.5t-7 57t8 60q11 46 35 71t48.5 37t43.5 15t20 4
q3 2 5 13t-1 13zM180 299l-16 -2.5t-37 -12t-41 -29.5t-28 -56t-6.5 -63t9 -45t18 -27.5t20.5 -10.5q10 -2 25.5 3t30.5 21t26 45.5t12 78.5q2 51 -4.5 74t-8.5 24zM129 -123q-7 -25 -2 -43.5t17 -29.5t28.5 -14t32.5 3q7 3 11 15.5t5.5 32t0.5 43.5t-2 50q-29 -5 -56 -16.5
t-35 -40.5zM97.001 370.996q3 -6 -1 -10.5q-4 -4.49902 -10.999 -6.99902q-7 -2.5 -14 -3q-6.99902 -0.5 -8.99902 2.5q-3 3 -6.5 12.999q-3.49902 9.99902 -5.99902 22.999q-2.5 12.999 -3.5 26.998t2 25.998t7.99902 22.499q5 10.499 11 17.999
q5.99902 7.49902 11.499 11.999t7.49902 4.5q3 1 11 -7.5q7.99902 -8.49902 4.99902 -14.499q-1.99902 -6 -12.499 -15.499q-10.499 -9.49902 -11.499 -23.498q-1 -14 6 -34.998q6.99902 -20.999 12.999 -31.998z" />
    <glyph glyph-name="gcommaaccent" unicode="&#x123;" horiz-adv-x="180" 
d="M122 233q0 11 9 16q5 2 18 2h18q3 0 4.5 -5t2 -11t-1 -11.5t-4.5 -5.5q-13 -2 -14 -7q0 -2 1 -13t3 -29.5t4 -42t3 -49.5q1 -22 2.5 -45.5t3.5 -46.5q10 2 17.5 2h10.5q4 0 7 -4t3.5 -9t-1 -9.5t-5.5 -4.5t-12 -0.5t-20 -1.5q0 -33 -4 -62t-16 -50t-33.5 -31t-55.5 -4
q-24 4 -35 23.5t-10.5 43.5t13.5 47.5t37 34.5q15 8 35 12.5t40 8.5l-2 27q0 4 -11.5 0t-41.5 -5q-15 -1 -29.5 3.5t-26.5 15t-20 28t-9 41.5q-1 26 5 45t16.5 32t23.5 20.5t26 10.5q27 6 37 4t12 0t1 13.5t-1 16.5zM122 171q-15 5 -32 2t-30.5 -13.5t-21.5 -27.5t-6 -39
q2 -21 11 -34.5t23 -20t31 -5.5t35 10q3 1 2 21t-3 43.5t-5 43t-4 20.5zM77 -66q-14 -8 -21 -22.5t-8 -29.5t5 -27t19 -15q22 -5 36 4t21.5 26t10 39t2.5 44q-17 -2 -34 -6.5t-31 -12.5zM93.001 242.996q3 -6 -1 -10.5q-4 -4.49902 -10.999 -6.99902q-7 -2.5 -14 -3
q-6.99902 -0.5 -8.99902 2.5q-3 3 -6.5 12.999q-3.49902 9.99902 -5.99902 22.999q-2.5 12.999 -3.5 26.998t2 25.998t7.99902 22.499q5 10.499 11 17.999q5.99902 7.49902 11.499 11.999t7.49902 4.5q3 1 11 -7.5q7.99902 -8.49902 4.99902 -14.499
q-1.99902 -6 -12.499 -15.499q-10.499 -9.49902 -11.499 -23.498q-1 -14 6 -34.998q6.99902 -20.999 12.999 -31.998z" />
    <glyph glyph-name="Hcircumflex" unicode="&#x124;" horiz-adv-x="323" 
d="M218 230q-2 -3 -7.5 -1.5t-11 5.5t-8.5 8.5t0 8.5t9.5 15t14 24t14 24.5t9.5 16.5q6 9 18.5 6.5t14.5 -9.5q1 -3 5 -17t9 -30.5t9 -30.5t4 -16t-4.5 -4.5t-10.5 -4t-11 -1t-6 4.5t-3.5 14.5t-4.5 21.5t-4 19t-2 7l-5 -9t-11 -20t-11.5 -20.5t-6.5 -11.5zM281 180
q8 -21 12.5 -51.5t6.5 -63.5t2.5 -66t0 -59t-1 -42.5l-0.5 -16.5q1 0 6 0.5t11.5 0.5h13.5h11q4 -1 6.5 -5t2.5 -9t-2.5 -10t-8.5 -6q-6 -2 -23.5 -4t-36.5 -4.5t-35 -3.5t-20 -1q-4 1 -6.5 7t-3 12.5t1 12.5t5.5 7q4 0 11.5 0.5l15 1t13.5 1.5t6 3q0 1 0.5 23.5t0 55
t-2 70.5t-5.5 70.5t-11 53.5t-18 21q-17 -1 -31 -11t-25.5 -26t-19.5 -36t-13 -39t-8 -34.5t-5 -28.5q2 -40 4 -40h28q2 0 4.5 -5t3.5 -11t0 -11t-5 -5t-16 -1t-25.5 -1.5t-25.5 -1.5t-16 -1t-5.5 5t-1 11.5t1.5 12t3 5.5q3 2 10 1t9 1q0 1 -1 34t-3.5 83t-5.5 108t-6 108
q-20 -3 -35 -3.5t-21 -0.5q-5 0 -7.5 4.5t-3.5 10.5t1 11t7 6h19t38 3l-1 23q-3 47 -3 98t9.5 95t33.5 74.5t71 35.5q47 6 76.5 -22.5t37.5 -73t-7.5 -97t-58.5 -94.5q-29 -27 -61 -42t-61 -22l8 -189q6 15 14 31t20 28q14 15 31.5 26.5t34.5 15t32 -3.5t23 -29zM222 394
q35 36 46.5 77.5t4.5 76t-28 56t-50 18.5t-46.5 -22.5t-25.5 -54t-9 -82.5t2 -108v-11t1 -11q25 7 52 21t53 40z" />
    <glyph glyph-name="hcircumflex" unicode="&#x125;" horiz-adv-x="199" 
d="M-48 366q6 0 10.5 -3t10.5 -6t15 -5t24 -2v23q-2 71 0.5 113.5t15.5 69.5q7 14 17.5 26t24 18.5t30 5.5t36.5 -13q19 -12 30.5 -34.5t15 -48t0 -51t-12.5 -45.5q-18 -38 -53 -61.5t-73 -30.5q1 -21 1.5 -43t1 -39.5t0.5 -28.5t0 -10t9 11t23 20.5t30.5 17t31.5 0.5
t21.5 -19.5t8 -29.5t0 -33t-2.5 -32q-1 -24 -4 -52.5t-5 -42.5q0 -8 6 -8q5 0 12.5 0.5t12.5 0.5q3 0 5 -4.5t2 -9.5t-2 -9.5t-6 -5.5q-5 -1 -16 -3t-23.5 -4t-24 -3.5t-17.5 -0.5q-6 0 -8.5 4.5t-2.5 9.5t2.5 10t5.5 6q5 1 9 1.5t8 2.5q7 1 8 11l6 82q1 14 2 29t1 28
t-2 22.5t-7 12.5q-11 5 -29 -4t-31 -25q-11 -14 -14.5 -27.5t-4.5 -33.5q-2 -16 -1 -25t1 -14q0 -2 2 -4q1 -1 2 -1q3 0 8 -0.5t9 -2.5q4 -1 5.5 -5.5t0.5 -9t-4 -8t-8 -3.5q-11 0 -29 -0.5t-29 1.5q-5 0 -7 4.5t-2 9t2 9t6 4.5l15 2q2 0 2 7q0 8 -1 32t-2.5 57t-3.5 70.5
t-3 72.5q-29 -2 -46 4t-26 14q-10 9 -6 19.5t17 9.5zM139 427q7 16 10.5 35t2.5 37t-6.5 33t-16.5 24q-22 18 -42 13.5t-30 -33.5q-5 -14 -8 -32.5t-4.5 -38.5t-1.5 -39v-35v-37q30 7 56 25t40 48zM118 266q-2 -3 -7.5 -1.5t-11 5t-8.5 8t0 8.5t8 11.5t10.5 16.5t10.5 17
t8 13t7.5 6.5t10 0.5t9.5 -3.5t6 -5.5q1 -3 4 -14t7 -23t7 -22.5t3 -12.5t-4.5 -5t-10.5 -4.5t-11 -1t-6 4.5t-2.5 11.5t-2.5 14t-2 11.5l-1 5l-3 -6t-7.5 -13t-8.5 -13.5t-5 -7.5z" />
    <glyph glyph-name="Hbar" unicode="&#x126;" horiz-adv-x="323" 
d="M153 268q3 0 5.5 -4t3.5 -9t0.5 -9.5t-3.5 -4.5q-3 -1 -14 -3.5t-25 -4.5l6 -121q6 15 14 31t20 28q14 15 31.5 26.5t34.5 15t32 -3.5t23 -29q8 -21 12.5 -51.5t6.5 -63.5t2.5 -66t0 -59t-1 -42.5l-0.5 -16.5q1 0 6 0.5t11.5 0.5h13.5h11q4 -1 6.5 -5t2.5 -9t-2.5 -10
t-8.5 -6q-6 -2 -23.5 -4t-36.5 -4.5t-35 -3.5t-20 -1q-4 1 -6.5 7t-3 12.5t1 12.5t5.5 7q4 0 11.5 0.5l15 1t13.5 1.5t6 3q0 1 0.5 23.5t0 55t-2 70.5t-5.5 70.5t-11 53.5t-18 21q-17 -1 -31 -11t-25.5 -26t-19.5 -36t-13 -39t-8 -34.5t-5 -28.5q2 -40 4 -40h28q2 0 4.5 -5
t3.5 -11t0 -11t-5 -5t-16 -1t-25.5 -1.5t-25.5 -1.5t-16 -1t-5.5 5t-1 11.5t1.5 12t3 5.5q3 2 10 1t9 1q0 1 -1 25t-2.5 62t-4 84.5t-4.5 93.5q-10 -2 -17.5 -2.5t-9.5 0.5q-3 0 -5.5 4.5t-3.5 9.5t0 9.5t4 4.5l30 5q-1 10 -1 19t-1 18q-20 -3 -35 -3.5t-21 -0.5
q-5 0 -7.5 4.5t-3.5 10.5t1 11t7 6h19t38 3l-1 23q-3 47 -3 98t9.5 95t33.5 74.5t71 35.5q47 6 76.5 -22.5t37.5 -73t-7.5 -97t-58.5 -94.5q-29 -27 -61 -42t-61 -22l1 -38q12 2 21.5 3t12.5 2zM222 394q35 36 46.5 77.5t4.5 76t-28 56t-50 18.5t-46.5 -22.5t-25.5 -54
t-9 -82.5t2 -108v-11t1 -11q25 7 52 21t53 40z" />
    <glyph glyph-name="hbar" unicode="&#x127;" horiz-adv-x="199" 
d="M76 275q3 0 5.5 -3.5t3.5 -8.5t0.5 -9.5t-3.5 -5.5q-3 0 -13 -2.5t-24 -4.5q0 -17 0.5 -29t0.5 -11t9 11t23 20.5t30.5 17t31.5 0.5t21.5 -19.5t8 -29.5t0 -33t-2.5 -32q-1 -24 -4 -52.5t-5 -42.5q0 -8 6 -8q5 0 12.5 0.5t12.5 0.5q3 0 5 -4.5t2 -9.5t-2 -9.5t-6 -5.5
q-5 -1 -16 -3t-23.5 -4t-24 -3.5t-17.5 -0.5q-6 0 -8.5 4.5t-2.5 9.5t2.5 10t5.5 6q5 1 9 1.5t8 2.5q7 1 8 11l6 82q1 14 2 29t1 28t-2 22.5t-7 12.5q-11 5 -29 -4t-31 -25q-11 -14 -14.5 -27.5t-4.5 -33.5q-2 -16 -1 -25t1 -14q0 -2 2 -4q1 -1 2 -1q3 0 8 -0.5t9 -2.5
q4 -1 5.5 -5.5t0.5 -9t-4 -8t-8 -3.5q-11 0 -29 -0.5t-29 1.5q-5 0 -7 4.5t-2 9t2 9t6 4.5l15 2q2 0 2 7q0 13 -2.5 55t-5.5 94q-11 -2 -20 -3t-11 -1q-7 2 -9.5 14.5t4.5 14.5l35 6q0 5 -0.5 10t-0.5 10q-29 -1 -46 4.5t-26 13.5q-10 9 -6 19.5t17 9.5q6 0 10.5 -3t10.5 -6
t15 -5t24 -1v22q-2 72 0.5 114t15.5 70q7 13 17.5 25t24 18.5t30 5.5t36.5 -13q19 -12 30.5 -34.5t15 -48t0 -51t-12.5 -45.5q-18 -38 -53 -61.5t-72 -30.5v-19zM139 395q7 16 10.5 35t2.5 37t-6.5 33.5t-16.5 24.5q-22 17 -42 13t-30 -33q-5 -15 -8 -33.5t-4.5 -38.5
t-1.5 -39v-35v-37q30 7 56 25.5t40 47.5z" />
    <glyph glyph-name="Itilde" unicode="&#x128;" horiz-adv-x="208" 
d="M172 426q2 0 3.5 -5.5t1.5 -12t-0.5 -11.5t-2.5 -5t-12 -0.5t-21.5 -1.5t-21 -2.5l-9.5 -1.5q-1 -1 -1.5 -32.5t-1.5 -79t-2 -102.5t-1.5 -102t0 -78.5t1.5 -31.5h15t29 -0.5t29.5 -0.5h16.5q2 0 3.5 -4.5t2 -9.5t-1 -9.5t-4.5 -5.5q-2 -1 -15.5 -1.5t-32.5 -0.5
t-41 -0.5t-41 -0.5h-32.5h-15.5q-3 0 -4.5 4.5t-1 10.5t3 10.5t5.5 4.5h11t16.5 0.5t15.5 1.5t9 2l0.5 18.5t0.5 48.5v68v78q-1 93 -2 211q-16 1 -29 1h-22t-13 1q-5 1 -5 11.5t4 12.5q1 0 13.5 1.5t30.5 3t38.5 3.5t38.5 3.5t30.5 2.5t14.5 1zM60 473q-1 -3 -6 -3.5
t-10.5 1.5t-9.5 5.5t-2 7.5q1 4 4.5 14t9 21t13.5 20t19 10q9 1 17 -6.5t14.5 -16t12 -16t10.5 -6.5q8 2 13.5 11.5t7.5 17.5q1 3 5.5 3.5t9.5 -1.5t9 -5t4 -6t-3 -11.5t-9 -17.5t-14.5 -16.5t-20.5 -8.5q-10 -2 -18.5 5t-15 15.5t-12.5 15t-10 5.5q-3 -1 -6.5 -6.5
t-5.5 -12.5t-4 -12.5t-2 -6.5z" />
    <glyph glyph-name="itilde" unicode="&#x129;" horiz-adv-x="108" 
d="M2 269q-1 -3 -5 -3t-8 2t-7 5.5t-2 7.5q1 3 4 13.5t7 21.5t10 20t15 10q7 1 13.5 -5.5t11.5 -14t9.5 -14t7.5 -6.5q7 2 12 9t7 14q0 4 3.5 4t7.5 -1.5t7.5 -4.5t3.5 -6t-2.5 -11.5t-7 -17.5t-12 -17t-16.5 -9q-8 -2 -14.5 4t-12 12.5t-10 12t-7.5 4.5t-5.5 -5t-4.5 -9.5
t-3.5 -10t-1.5 -5.5zM6 196q-5 2 -5.5 13.5t4.5 13.5t20 1.5t25 -1.5t13.5 -8t3.5 -28q0 -11 -1 -35.5t-1 -49.5v-44.5t2 -20.5q1 0 5.5 -0.5t9.5 -1l10 -1t7 -0.5t3.5 -3.5t2 -8t0 -8t-2.5 -4.5t-9.5 -2t-16.5 -2t-17 -1.5t-11 -0.5q-6 0 -10.5 1t-6.5 12v17t0.5 33t0.5 40
t0.5 39.5t0.5 30.5v13q-1 2 -11.5 3t-15.5 3z" />
    <glyph glyph-name="Imacron" unicode="&#x12a;" horiz-adv-x="208" 
d="M172 426q2 0 3.5 -5.5t1.5 -12t-0.5 -11.5t-2.5 -5t-12 -0.5t-21.5 -1.5t-21 -2.5l-9.5 -1.5q-1 -1 -1.5 -32.5t-1.5 -79t-2 -102.5t-1.5 -102t0 -78.5t1.5 -31.5h15t29 -0.5t29.5 -0.5h16.5q2 0 3.5 -4.5t2 -9.5t-1 -9.5t-4.5 -5.5q-2 -1 -15.5 -1.5t-32.5 -0.5
t-41 -0.5t-41 -0.5h-32.5h-15.5q-3 0 -4.5 4.5t-1 10.5t3 10.5t5.5 4.5h11t16.5 0.5t15.5 1.5t9 2l0.5 18.5t0.5 48.5v68v78q-1 93 -2 211q-16 1 -29 1h-22t-13 1q-5 1 -5 11.5t4 12.5q1 0 13.5 1.5t30.5 3t38.5 3.5t38.5 3.5t30.5 2.5t14.5 1zM134 535q3 0 6 -3.5t4 -8.5
t0 -9.5t-4 -5.5q-3 0 -17.5 -3t-31 -6t-31.5 -5t-18 -2q-7 2 -9.5 14.5t4.5 14.5q3 1 17.5 3t31 4.5t30.5 4.5t18 2z" />
    <glyph glyph-name="imacron" unicode="&#x12b;" horiz-adv-x="108" 
d="M6 196q-5 2 -5.5 13.5t4.5 13.5t20 1.5t25 -1.5t13.5 -8t3.5 -28q0 -11 -1 -35.5t-1 -49.5v-44.5t2 -20.5q1 0 5.5 -0.5t9.5 -1l10 -1t7 -0.5t3.5 -3.5t2 -8t0 -8t-2.5 -4.5t-9.5 -2t-16.5 -2t-17 -1.5t-11 -0.5q-6 0 -10.5 1t-6.5 12v17t0.5 33t0.5 40t0.5 39.5
t0.5 30.5v13q-1 2 -11.5 3t-15.5 3zM79 321q3 0 6 -3.5t4 -8.5t0 -9.5t-4 -5.5q-3 0 -17.5 -3t-31 -6t-31.5 -5t-18 -2q-7 2 -9.5 14.5t4.5 14.5q3 1 17.5 3t31 4.5t30.5 4.5t18 2z" />
    <glyph glyph-name="Ibreve" unicode="&#x12c;" horiz-adv-x="208" 
d="M172 426q2 0 3.5 -5.5t1.5 -12t-0.5 -11.5t-2.5 -5t-12 -0.5t-21.5 -1.5t-21 -2.5l-9.5 -1.5q-1 -1 -1.5 -32.5t-1.5 -79t-2 -102.5t-1.5 -102t0 -78.5t1.5 -31.5h15t29 -0.5t29.5 -0.5h16.5q2 0 3.5 -4.5t2 -9.5t-1 -9.5t-4.5 -5.5q-2 -1 -15.5 -1.5t-32.5 -0.5
t-41 -0.5t-41 -0.5h-32.5h-15.5q-3 0 -4.5 4.5t-1 10.5t3 10.5t5.5 4.5h11t16.5 0.5t15.5 1.5t9 2l0.5 18.5t0.5 48.5v68v78q-1 93 -2 211q-16 1 -29 1h-22t-13 1q-5 1 -5 11.5t4 12.5q1 0 13.5 1.5t30.5 3t38.5 3.5t38.5 3.5t30.5 2.5t14.5 1zM16 549q0 3 5 4.5t11 1
t11.5 -2t5.5 -2.5q0 -2 0.5 -9.5t3.5 -16t9.5 -15.5t19.5 -8t21.5 5t13.5 14t7.5 16t2.5 13q0 4 5.5 6t12 1.5t12 -2.5t5.5 -5q0 -4 -3 -16.5t-11 -26.5t-23.5 -24.5t-40.5 -9.5q-25 0 -39 11t-20.5 24.5t-7.5 25.5t-1 16z" />
    <glyph glyph-name="ibreve" unicode="&#x12d;" horiz-adv-x="108" 
d="M-24 346q0 3 5.5 4.5t11.5 1t11 -2t6 -2.5q0 -2 -0.5 -9.5t1 -16t7 -15.5t18.5 -8t19.5 5t9 14t2.5 16v13q0 4 5.5 6t11.5 1.5t11.5 -2.5t5.5 -5q0 -4 -0.5 -16.5t-6 -26.5t-18.5 -24.5t-38 -9.5q-25 0 -38 11t-18.5 24.5t-5.5 25.5v16zM6 196q-5 2 -5.5 13.5t4.5 13.5
t20 1.5t25 -1.5t13.5 -8t3.5 -28q0 -11 -1 -35.5t-1 -49.5v-44.5t2 -20.5q1 0 5.5 -0.5t9.5 -1l10 -1t7 -0.5t3.5 -3.5t2 -8t0 -8t-2.5 -4.5t-9.5 -2t-16.5 -2t-17 -1.5t-11 -0.5q-6 0 -10.5 1t-6.5 12v17t0.5 33t0.5 40t0.5 39.5t0.5 30.5v13q-1 2 -11.5 3t-15.5 3z" />
    <glyph glyph-name="Iogonek" unicode="&#x12e;" horiz-adv-x="208" 
d="M172 426q2 0 3.5 -5.5t1.5 -12t-0.5 -11.5t-2.5 -5t-12 -0.5t-21.5 -1.5t-21 -2.5l-9.5 -1.5q-1 -1 -1.5 -32.5t-1.5 -79t-2 -102.5t-1.5 -102t0 -78.5t1.5 -31.5h15t29 -0.5t29.5 -0.5h16.5q2 0 3.5 -4.5t2 -9.5t-1 -9.5t-4.5 -5.5q-3 -2 -26.5 -2t-52.5 -1l-10.5 -10.5
t-13 -13.5t-10.5 -14t-4 -12q0 -6 5.5 -10.5t12 -7.5t13.5 -4.5t11 -1.5t6 -4.5t1.5 -10.5t-3 -10.5t-7.5 -3.5q-5 0 -15 2.5t-21.5 7t-21 12t-13.5 18.5q-5 14 5 31.5t21 31.5h-55q-3 0 -4.5 4.5t-1 10.5t3 10.5t5.5 4.5h11t16.5 0.5t15.5 1.5t9 2l0.5 18.5t0.5 48.5v68v78
q-1 93 -2 211q-16 1 -29 1h-22t-13 1q-5 1 -5 11.5t4 12.5q1 0 13.5 1.5t30.5 3t38.5 3.5t38.5 3.5t30.5 2.5t14.5 1z" />
    <glyph glyph-name="iogonek" unicode="&#x12f;" horiz-adv-x="108" 
d="M6 196q-5 2 -5.5 13.5t4.5 13.5t20 1.5t25 -1.5t13.5 -8t3.5 -28q0 -11 -1 -35.5t-1 -49.5v-44.5t2 -20.5q1 0 5.5 -0.5t9.5 -1l10 -1t7 -0.5t3.5 -3.5t2 -8t0 -8t-2.5 -4.5t-9.5 -2t-16.5 -2t-17 -1.5t-11 -0.5q-6 0 -10.5 1t-6.5 12v17t0.5 33t0.5 40t0.5 39.5
t0.5 30.5v13q-1 2 -11.5 3t-15.5 3zM28 268q1 10 7.5 14.5t13.5 4.5t13 -4.5t6 -13.5t-6.5 -13.5t-14.5 -5t-14.5 4t-4.5 13.5zM71 30q3 2 8 0t9.5 -5t6.5 -7t0 -7t-9 -9.5t-14 -14.5t-12 -16t-5 -14t5 -10.5t12 -7.5t14 -4.5t11 -1.5t5.5 -4.5t1 -10.5t-3 -10.5t-6.5 -4.5
q-5 1 -15.5 3.5t-21.5 7t-21 12t-13 18.5q-3 10 2.5 24t14.5 27t18 23t13 12z" />
    <glyph glyph-name="Idotaccent" unicode="&#x130;" horiz-adv-x="208" 
d="M172 426q2 0 3.5 -5.5t1.5 -12t-0.5 -11.5t-2.5 -5t-12 -0.5t-21.5 -1.5t-21 -2.5l-9.5 -1.5q-1 -1 -1.5 -32.5t-1.5 -79t-2 -102.5t-1.5 -102t0 -78.5t1.5 -31.5h15t29 -0.5t29.5 -0.5h16.5q2 0 3.5 -4.5t2 -9.5t-1 -9.5t-4.5 -5.5q-2 -1 -15.5 -1.5t-32.5 -0.5
t-41 -0.5t-41 -0.5h-32.5h-15.5q-3 0 -4.5 4.5t-1 10.5t3 10.5t5.5 4.5h11t16.5 0.5t15.5 1.5t9 2l0.5 18.5t0.5 48.5v68v78q-1 93 -2 211q-16 1 -29 1h-22t-13 1q-5 1 -5 11.5t4 12.5q1 0 13.5 1.5t30.5 3t38.5 3.5t38.5 3.5t30.5 2.5t14.5 1zM66 513q0 9 6.5 15.5
t15.5 6.5q10 0 17 -6.5t7 -15.5q0 -10 -7 -16t-17 -6q-9 0 -15.5 6t-6.5 16z" />
    <glyph glyph-name="dotlessi" unicode="&#x131;" horiz-adv-x="108" 
d="M6 196q-5 2 -5.5 13.5t4.5 13.5t20 1.5t25 -1.5t13.5 -8t3.5 -28q0 -11 -1 -35.5t-1 -49.5v-44.5t2 -20.5q1 0 5.5 -0.5t9.5 -1l10 -1t7 -0.5t3.5 -3.5t2 -8t0 -8t-2.5 -4.5t-9.5 -2t-16.5 -2t-17 -1.5t-11 -0.5q-6 0 -10.5 1t-6.5 12v17t0.5 33t0.5 40t0.5 39.5
t0.5 30.5v13q-1 2 -11.5 3t-15.5 3z" />
    <glyph glyph-name="Jcircumflex" unicode="&#x134;" horiz-adv-x="270" 
d="M254 426q3 0 5.5 -4t4 -9.5t1 -10t-3.5 -5.5q-3 0 -12 -1.5t-19 -3.5t-18.5 -4t-9.5 -3t0 -20.5t2.5 -50t4 -70t4.5 -81.5q28 7 47 10t24 4q4 1 7.5 -2t4.5 -7.5t0.5 -9t-3.5 -5.5q-5 -3 -27.5 -8.5t-51.5 -13.5q0 -2 0.5 -5t0.5 -5q1 -47 0 -93t-10.5 -82.5t-29.5 -61
t-56 -27.5q-31 -3 -53.5 12.5t-37 38.5t-20.5 49t-3 45q5 38 38.5 73t92.5 61q11 5 21.5 8.5t21.5 7.5q-2 44 -4.5 85t-4.5 72.5t-3.5 50t-2.5 18.5t-11.5 -1.5t-24 -3t-26 -3t-15.5 -1.5q-6 -1 -6.5 10t2.5 14q1 1 13.5 3.5t30.5 6t39.5 7.5t40.5 7.5t32 6t15 2.5zM143 106
q-15 -7 -32 -17.5t-32 -24t-26 -30.5t-13 -36q-3 -20 2 -40t15.5 -36t26 -25.5t35.5 -6.5q20 2 33 20t20 48.5t8.5 71.5t-0.5 90v1q-10 -4 -19.5 -7.5t-17.5 -7.5zM138 449q-2 -3 -7.5 -2.5t-11 3.5t-9 7.5t-1.5 8.5t8 18.5t13 31t13.5 31.5t8.5 20q5 11 17.5 9.5t15.5 -7.5
q1 -3 9 -19.5t16.5 -36t15.5 -36t7 -18.5t-4 -5t-9.5 -5.5t-11 -2.5t-6.5 4q-2 3 -7 16.5t-10 28t-9.5 25.5l-4.5 11l-4.5 -12.5t-10.5 -27t-11.5 -27.5t-6.5 -15z" />
    <glyph glyph-name="jcircumflex" unicode="&#x135;" horiz-adv-x="88" 
d="M76 222q3 0 5 -5t2 -11t-1 -11t-4 -5q-5 0 -14.5 1t-11.5 -1q-1 -1 -0.5 -8.5t2.5 -25.5t4.5 -50t6.5 -83q1 -14 1.5 -27.5t2.5 -27.5q28 1 47.5 -0.5t21.5 -1.5q3 0 5 -4t3.5 -9t0.5 -9.5t-4 -4.5t-23.5 0.5t-49.5 -0.5q2 -36 2.5 -66.5t-2.5 -53.5t-10 -38.5t-19 -19.5
q-16 -6 -44.5 0.5t-54.5 23t-42.5 43t-8.5 62.5q5 20 20 33.5t35.5 22.5t44.5 13.5t48 6.5q-2 14 -2.5 27t-2.5 27q-5 78 -11 119.5t-7 54.5q-3 24 12 27q3 1 9.5 1h14h14.5h10zM-80 -114q-6 -24 7 -44.5t32.5 -34t40 -18t29.5 3.5q13 11 14.5 50.5t-2.5 92.5
q-21 -2 -41 -5.5t-37 -9.5t-28.5 -14.5t-14.5 -20.5zM13 267q-2 -3 -7.5 -2.5t-11 3.5t-9 7.5t-1.5 8.5t8 18.5t13 31t13.5 31.5t8.5 20q5 11 17.5 9.5t15.5 -7.5q1 -3 9 -19.5t16.5 -36t15.5 -36t7 -18.5t-4 -5t-9.5 -5.5t-11 -2.5t-6.5 4q-2 3 -7 16.5t-10 28t-9.5 25.5
l-4.5 11l-4.5 -12.5t-10.5 -27t-11.5 -27.5t-6.5 -15z" />
    <glyph glyph-name="Kcommaaccent" unicode="&#x136;" horiz-adv-x="344" 
d="M353 -83q6 0 8 -10.5t-4 -12.5q-3 -1 -15.5 -4.5t-27 -7.5t-27.5 -7t-16 -3t-6 4t-4.5 9.5t-1 10.5t3.5 6q10 4 23 7q-4 44 -17.5 86.5t-34.5 68.5q-12 14 -27.5 23t-35.5 10q-12 -3 -25 -3q2 -73 5.5 -106.5t3.5 -34.5t10 -1t15 -2q3 0 4 -5t0.5 -10.5t-2 -10t-2.5 -4.5
q-2 0 -16 -0.5t-31 -1.5t-31.5 -1h-17.5t-4.5 5.5t-1.5 12t1 11.5t3 4q1 -1 7.5 -1t13.5 0.5t12.5 1t5.5 2.5q0 1 -1.5 24.5t-3.5 64t-4 95t-2 117.5q0 13 -0.5 25.5t0.5 25.5q-48 -12 -99 -6q-3 0 -4 5t0.5 11t4.5 10.5t7 4.5q1 0 9.5 -0.5t21 0t28 2.5t32.5 7q1 50 4 96
t9 84t16 67.5t24 47.5q17 21 41.5 26t46.5 -6.5t37 -39t15 -69.5t-15 -77t-36 -62t-44.5 -46t-40.5 -30q-13 -8 -24 -13v-64q0 -16 0.5 -30t0.5 -28q7 14 16 28.5t21 28.5q35 38 68.5 45.5t56.5 -11.5q12 -9 15.5 -24.5t-1 -34t-17.5 -39.5t-34 -41q-8 -7 -18 -14.5
t-23 -14.5q18 -8 33 -28q10 -14 20 -33t17.5 -42t13 -48t7.5 -49q28 7 34 -1zM149 357q22 15 43 32t38 39t28 50t13 66q2 33 -8 52.5t-25 26.5t-30 4t-24 -15q-14 -20 -25.5 -83.5t-14.5 -174.5zM161 129h6.5t18.5 3.5t27.5 11.5t33.5 25t27.5 32t13 27t2 20.5t-5.5 12.5
q-7 9 -30 3.5t-49 -36.5q-13 -15 -21.5 -32.5t-14 -32.5t-7 -24.5zM196 -99q-3 6 1 10.5t11 7t14 3t9 -2.5q3 -3 6.5 -13t6 -23t3.5 -27t-2 -26t-8 -22.5t-11 -18t-11.5 -12t-7.5 -4.5q-3 -1 -11 7.5t-5 14.5q2 6 12.5 15.5t11.5 23.5t-6 35t-13 32z" />
    <glyph glyph-name="kcommaaccent" unicode="&#x137;" horiz-adv-x="231" 
d="M-54 302q-2 2 -2 15t5 15q3 1 20 -3.5t41 -5.5v57.5t2 57.5q3 68 21 101.5t41.5 41t47 -5.5t38.5 -37t21.5 -52t2 -56.5t-23 -57t-54.5 -53.5q-30 -21 -64 -26q0 -22 0.5 -43t1.5 -42q5 14 13 27t19 21t26 9.5t35 -7.5q14 -7 20.5 -17t6.5 -22t-4 -25t-11 -25
q-16 -29 -45 -61q4 -5 9 -9l10 -8t13 -8q29 -15 41.5 -17t13.5 -1q1 0 0.5 5.5t1.5 12.5q1 4 5.5 5t10 0.5t9.5 -2.5t4 -5t-1 -15.5t-2.5 -26.5t-3 -26t-1.5 -14t-4.5 -2.5t-10 0.5t-10 2.5t-4.5 4.5q1 5 2 12.5t-2 9.5q-2 2 -19.5 6.5t-40.5 17.5t-38.5 25.5t-20.5 18.5
q-5 5 -4.5 12.5t6.5 12.5q11 9 26 25t25.5 33t14 31.5t-7.5 22.5q-16 10 -29.5 -1.5t-23 -33t-16 -46.5t-9.5 -41q2 -32 3.5 -51t2.5 -20q3 -3 7 -2t12 2q4 0 6 -5t2.5 -11t-0.5 -11t-4 -5q-3 -1 -12 -1.5t-19 -1t-18.5 -0.5h-11.5t-4.5 4.5t-2.5 9.5t-0.5 10t2.5 5l9 2
q0 1 1 3q2 4 2 6t-1.5 22.5t-3.5 54t-4 78t-3 93.5q-26 0 -44.5 5t-20.5 6zM87 344q51 35 63.5 80.5t-10.5 84.5q-12 20 -27.5 30.5t-30 5.5t-25.5 -28t-14 -70q-2 -25 -2 -56v-66q26 5 46 19zM48 90l-1 3q0 -3 1 -3zM96 2q-3 6 1 10.5t11 7t14 3t9 -2.5q3 -3 6.5 -13t6 -23
t3.5 -27t-2 -26t-8 -22.5t-11 -18t-11.5 -12t-7.5 -4.5q-3 -1 -11 7.5t-5 14.5q2 6 12.5 15.5t11.5 23.5t-6 35t-13 32z" />
    <glyph glyph-name="kgreenlandic" unicode="&#x138;" horiz-adv-x="231" 
d="M-54 302q-2 2 -2 15t5 15q3 1 20 -3.5t41 -5.5v57.5t2 57.5q3 68 21 101.5t41.5 41t47 -5.5t38.5 -37t21.5 -52t2 -56.5t-23 -57t-54.5 -53.5q-30 -21 -64 -26q0 -22 0.5 -43t1.5 -42q5 14 13 27t19 21t26 9.5t35 -7.5q14 -7 20.5 -17t6.5 -22t-4 -25t-11 -25
q-16 -29 -45 -61q4 -5 9 -9l10 -8t13 -8q29 -15 41.5 -17t13.5 -1q1 0 0.5 5.5t1.5 12.5q1 4 5.5 5t10 0.5t9.5 -2.5t4 -5t-1 -15.5t-2.5 -26.5t-3 -26t-1.5 -14t-4.5 -2.5t-10 0.5t-10 2.5t-4.5 4.5q1 5 2 12.5t-2 9.5q-2 2 -19.5 6.5t-40.5 17.5t-38.5 25.5t-20.5 18.5
q-5 5 -4.5 12.5t6.5 12.5q11 9 26 25t25.5 33t14 31.5t-7.5 22.5q-16 10 -29.5 -1.5t-23 -33t-16 -46.5t-9.5 -41q2 -32 3.5 -51t2.5 -20q3 -3 7 -2t12 2q4 0 6 -5t2.5 -11t-0.5 -11t-4 -5q-3 -1 -12 -1.5t-19 -1t-18.5 -0.5h-11.5t-4.5 4.5t-2.5 9.5t-0.5 10t2.5 5l9 2
q0 1 1 3q2 4 2 6t-1.5 22.5t-3.5 54t-4 78t-3 93.5q-26 0 -44.5 5t-20.5 6zM87 344q51 35 63.5 80.5t-10.5 84.5q-12 20 -27.5 30.5t-30 5.5t-25.5 -28t-14 -70q-2 -25 -2 -56v-66q26 5 46 19zM48 90l-1 3q0 -3 1 -3z" />
    <glyph glyph-name="Lacute" unicode="&#x139;" horiz-adv-x="416" 
d="M10 299q-4 2 -5 7t-0.5 10t3.5 9t8 4t14.5 -3.5t26 -5.5t42 -1t61.5 10q0 41 3 85.5t12 81t25.5 61.5t43.5 27q33 3 57.5 -11t40 -35.5t22 -45t4.5 -40.5q-3 -20 -13.5 -41.5t-31 -41.5t-52.5 -37t-77 -29v-41v-73.5t-2 -66.5l272 15q3 0 5.5 -4t3.5 -9t0 -10t-5 -7
l-277 -19q-5 -100 -19 -152t-43 -57q-21 -3 -40 6.5t-33.5 28t-21.5 44.5t-4 55q7 53 41.5 79t87.5 29q2 38 2 73v61q0 9 -0.5 19t-0.5 21q-36 -7 -62 -8.5t-43.5 0.5t-28 5.5t-16.5 6.5zM335 452q3 20 -3.5 38.5t-19 33t-28.5 22.5t-31 7q-13 -1 -23.5 -9.5t-17.5 -32
t-11.5 -65t-5.5 -108.5q126 38 140 114zM120 -87q9 1 15 15.5t10.5 38.5t7 55t4.5 64q-34 -3 -54.5 -17t-29.5 -33.5t-8.5 -42t8 -40.5t20 -29.5t27.5 -10.5zM286 711q3 3 8 1.5t9.5 -4.5t8 -7t2.5 -7t-12.5 -15t-25 -25.5t-25.5 -25t-14 -12.5q-1 0 -10.5 6t-6.5 14
q1 4 11 15t21 23.5t21 23t13 13.5z" />
    <glyph glyph-name="lacute" unicode="&#x13a;" horiz-adv-x="174" 
d="M10 330q-3 0 -5 5t-2.5 11.5t0.5 12t4 5.5q6 1 20.5 1.5t23.5 0.5q10 0 12.5 -4t2.5 -12q0 -3 -0.5 -26.5t-1.5 -57.5t-2 -73.5t-1.5 -73t-1 -56t0.5 -22.5q1 -1 12 0t24.5 2.5t24.5 3.5t12 2q2 2 2.5 8t0.5 15q0 4 4.5 5.5t10 1t10 -2t4.5 -4.5v-15t0.5 -26t0.5 -25.5
v-12.5t-5 -2t-11 -1t-11 1t-5 4q0 5 1 11.5t-1 7.5q-1 0 -12.5 -0.5t-26 -1t-28.5 -1.5t-20 -1q-13 0 -15.5 3.5t-2.5 11.5q0 3 0.5 26t1 56.5t1 72t1 71t0.5 54.5v23q-2 2 -10 1.5t-13 0.5zM58 478q3 3 8 1.5t9.5 -4.5t8 -7t2.5 -7t-12.5 -15t-25 -25.5t-25.5 -25
t-14 -12.5q-1 0 -10.5 6t-6.5 14q1 4 11 15t21 23.5t21 23t13 13.5z" />
    <glyph glyph-name="Lcommaaccent" unicode="&#x13b;" horiz-adv-x="416" 
d="M10 299q-4 2 -5 7t-0.5 10t3.5 9t8 4t14.5 -3.5t26 -5.5t42 -1t61.5 10q0 41 3 85.5t12 81t25.5 61.5t43.5 27q33 3 57.5 -11t40 -35.5t22 -45t4.5 -40.5q-3 -20 -13.5 -41.5t-31 -41.5t-52.5 -37t-77 -29v-41v-73.5t-2 -66.5l272 15q3 0 5.5 -4t3.5 -9t0 -10t-5 -7
l-277 -19q-5 -100 -19 -152t-43 -57q-21 -3 -40 6.5t-33.5 28t-21.5 44.5t-4 55q7 53 41.5 79t87.5 29q2 38 2 73v61q0 9 -0.5 19t-0.5 21q-36 -7 -62 -8.5t-43.5 0.5t-28 5.5t-16.5 6.5zM335 452q3 20 -3.5 38.5t-19 33t-28.5 22.5t-31 7q-13 -1 -23.5 -9.5t-17.5 -32
t-11.5 -65t-5.5 -108.5q126 38 140 114zM120 -87q9 1 15 15.5t10.5 38.5t7 55t4.5 64q-34 -3 -54.5 -17t-29.5 -33.5t-8.5 -42t8 -40.5t20 -29.5t27.5 -10.5zM239 9q-3 6 1 10.5t11 7t14 3t9 -2.5q3 -3 6.5 -13t6 -23t3.5 -27t-2 -26t-8 -22.5t-11 -18t-11.5 -12t-7.5 -4.5
q-3 -1 -11 7.5t-5 14.5q2 6 12.5 15.5t11.5 23.5t-6 35t-13 32z" />
    <glyph glyph-name="lcommaaccent" unicode="&#x13c;" horiz-adv-x="174" 
d="M10 330q-3 0 -5 5t-2.5 11.5t0.5 12t4 5.5q6 1 20.5 1.5t23.5 0.5q10 0 12.5 -4t2.5 -12q0 -3 -0.5 -26.5t-1.5 -57.5t-2 -73.5t-1.5 -73t-1 -56t0.5 -22.5q1 -1 12 0t24.5 2.5t24.5 3.5t12 2q2 2 2.5 8t0.5 15q0 4 4.5 5.5t10 1t10 -2t4.5 -4.5v-15t0.5 -26t0.5 -25.5
v-12.5t-5 -2t-11 -1t-11 1t-5 4q0 5 1 11.5t-1 7.5q-1 0 -12.5 -0.5t-26 -1t-28.5 -1.5t-20 -1q-13 0 -15.5 3.5t-2.5 11.5q0 3 0.5 26t1 56.5t1 72t1 71t0.5 54.5v23q-2 2 -10 1.5t-13 0.5zM68 -32q-3 6 1 10.5t11 7t14 3t9 -2.5q3 -3 6.5 -13t6 -23t3.5 -27t-2 -26
t-8 -22.5t-11 -18t-11.5 -12t-7.5 -4.5q-3 -1 -11 7.5t-5 14.5q2 6 12.5 15.5t11.5 23.5t-6 35t-13 32z" />
    <glyph glyph-name="Lcaron" unicode="&#x13d;" horiz-adv-x="416" 
d="M10 299q-4 2 -5 7t-0.5 10t3.5 9t8 4t14.5 -3.5t26 -5.5t42 -1t61.5 10q0 41 3 85.5t12 81t25.5 61.5t43.5 27q33 3 57.5 -11t40 -35.5t22 -45t4.5 -40.5q-3 -20 -13.5 -41.5t-31 -41.5t-52.5 -37t-77 -29v-41v-73.5t-2 -66.5l272 15q3 0 5.5 -4t3.5 -9t0 -10t-5 -7
l-277 -19q-5 -100 -19 -152t-43 -57q-21 -3 -40 6.5t-33.5 28t-21.5 44.5t-4 55q7 53 41.5 79t87.5 29q2 38 2 73v61q0 9 -0.5 19t-0.5 21q-36 -7 -62 -8.5t-43.5 0.5t-28 5.5t-16.5 6.5zM335 452q3 20 -3.5 38.5t-19 33t-28.5 22.5t-31 7q-13 -1 -23.5 -9.5t-17.5 -32
t-11.5 -65t-5.5 -108.5q126 38 140 114zM120 -87q9 1 15 15.5t10.5 38.5t7 55t4.5 64q-34 -3 -54.5 -17t-29.5 -33.5t-8.5 -42t8 -40.5t20 -29.5t27.5 -10.5zM200 695q-2 4 0.5 7t7 4.5t9 2t6.5 -1.5t8.5 -11t13.5 -19q8 -11 16 -26q6 14 11 26q5 11 8.5 20.5t5.5 12.5
q1 3 7 3t11.5 -2t9.5 -5t2 -7t-7.5 -16t-12.5 -26t-12.5 -26t-7.5 -15q-4 -6 -14 -8t-15 3q-2 3 -9 15t-15 26t-15 26.5t-8 16.5z" />
    <glyph glyph-name="lcaron" unicode="&#x13e;" horiz-adv-x="174" 
d="M10 330q-3 0 -5 5t-2.5 11.5t0.5 12t4 5.5q6 1 20.5 1.5t23.5 0.5q10 0 12.5 -4t2.5 -12q0 -3 -0.5 -26.5t-1.5 -57.5t-2 -73.5t-1.5 -73t-1 -56t0.5 -22.5q1 -1 12 0t24.5 2.5t24.5 3.5t12 2q2 2 2.5 8t0.5 15q0 4 4.5 5.5t10 1t10 -2t4.5 -4.5v-15t0.5 -26t0.5 -25.5
v-12.5t-5 -2t-11 -1t-11 1t-5 4q0 5 1 11.5t-1 7.5q-1 0 -12.5 -0.5t-26 -1t-28.5 -1.5t-20 -1q-13 0 -15.5 3.5t-2.5 11.5q0 3 0.5 26t1 56.5t1 72t1 71t0.5 54.5v23q-2 2 -10 1.5t-13 0.5zM98 307q-3 6 1 10.5t11 7t14 3t9 -2.5q3 -3 6.5 -13t6 -23t3.5 -27t-2 -26
t-8 -22.5t-11 -18t-11.5 -12t-7.5 -4.5q-3 -1 -11 7.5t-5 14.5q2 6 12.5 15.5t11.5 23.5t-6 35t-13 32z" />
    <glyph glyph-name="Ldot" unicode="&#x13f;" horiz-adv-x="416" 
d="M10 299q-4 2 -5 7t-0.5 10t3.5 9t8 4t14.5 -3.5t26 -5.5t42 -1t61.5 10q0 41 3 85.5t12 81t25.5 61.5t43.5 27q33 3 57.5 -11t40 -35.5t22 -45t4.5 -40.5q-3 -20 -13.5 -41.5t-31 -41.5t-52.5 -37t-77 -29v-41v-73.5t-2 -66.5l272 15q3 0 5.5 -4t3.5 -9t0 -10t-5 -7
l-277 -19q-5 -100 -19 -152t-43 -57q-21 -3 -40 6.5t-33.5 28t-21.5 44.5t-4 55q7 53 41.5 79t87.5 29q2 38 2 73v61q0 9 -0.5 19t-0.5 21q-36 -7 -62 -8.5t-43.5 0.5t-28 5.5t-16.5 6.5zM335 452q3 20 -3.5 38.5t-19 33t-28.5 22.5t-31 7q-13 -1 -23.5 -9.5t-17.5 -32
t-11.5 -65t-5.5 -108.5q126 38 140 114zM120 -87q9 1 15 15.5t10.5 38.5t7 55t4.5 64q-34 -3 -54.5 -17t-29.5 -33.5t-8.5 -42t8 -40.5t20 -29.5t27.5 -10.5zM233.023 220.93q0 9.23633 5.44141 16.3721q5.44238 7.13672 13.8145 7.13672t13.8145 -7.13672
q5.44141 -7.13574 5.44141 -16.3721q0 -9.23535 -5.44141 -16.3721q-5.44238 -7.13672 -13.8145 -7.13672t-13.8145 7.13672q-5.44141 7.13672 -5.44141 16.3721z" />
    <glyph glyph-name="ldot" unicode="&#x140;" horiz-adv-x="174" 
d="M10 330q-3 0 -5 5t-2.5 11.5t0.5 12t4 5.5q6 1 20.5 1.5t23.5 0.5q10 0 12.5 -4t2.5 -12q0 -3 -0.5 -26.5t-1.5 -57.5t-2 -73.5t-1.5 -73t-1 -56t0.5 -22.5q1 -1 12 0t24.5 2.5t24.5 3.5t12 2q2 2 2.5 8t0.5 15q0 4 4.5 5.5t10 1t10 -2t4.5 -4.5v-15t0.5 -26t0.5 -25.5
v-12.5t-5 -2t-11 -1t-11 1t-5 4q0 5 1 11.5t-1 7.5q-1 0 -12.5 -0.5t-26 -1t-28.5 -1.5t-20 -1q-13 0 -15.5 3.5t-2.5 11.5q0 3 0.5 26t1 56.5t1 72t1 71t0.5 54.5v23q-2 2 -10 1.5t-13 0.5zM85 183q0 11 6.5 19.5t15.5 8.5q10 0 16.5 -8.5t6.5 -19.5t-6.5 -19.5t-16.5 -8.5
q-9 0 -15.5 8.5t-6.5 19.5z" />
    <glyph glyph-name="Lslash" unicode="&#x141;" horiz-adv-x="416" 
d="M232 264q3 2 8 -0.5t9 -7t6 -9.5t-1 -7q-2 -2 -21 -14.5t-41 -27.5t-41.5 -27.5t-22.5 -13.5t-7.5 2.5t-8.5 8t-5.5 9.5t1.5 7t21.5 14t40 26t40.5 26t22 14zM10 299q-4 2 -5 7t-0.5 10t3.5 9t8 4t14.5 -3.5t26 -5.5t42 -1t61.5 10q0 41 3 85.5t12 81t25.5 61.5t43.5 27
q33 3 57.5 -11t40 -35.5t22 -45t4.5 -40.5q-3 -20 -13.5 -41.5t-31 -41.5t-52.5 -37t-77 -29v-41v-73.5t-2 -66.5l272 15q3 0 5.5 -4t3.5 -9t0 -10t-5 -7l-277 -19q-5 -100 -19 -152t-43 -57q-21 -3 -40 6.5t-33.5 28t-21.5 44.5t-4 55q7 53 41.5 79t87.5 29q2 38 2 73v61
q0 9 -0.5 19t-0.5 21q-36 -7 -62 -8.5t-43.5 0.5t-28 5.5t-16.5 6.5zM335 452q3 20 -3.5 38.5t-19 33t-28.5 22.5t-31 7q-13 -1 -23.5 -9.5t-17.5 -32t-11.5 -65t-5.5 -108.5q126 38 140 114zM120 -87q9 1 15 15.5t10.5 38.5t7 55t4.5 64q-34 -3 -54.5 -17t-29.5 -33.5
t-8.5 -42t8 -40.5t20 -29.5t27.5 -10.5z" />
    <glyph glyph-name="lslash" unicode="&#x142;" horiz-adv-x="174" 
d="M10 330q-3 0 -5 5t-2.5 11.5t0.5 12t4 5.5q6 1 20.5 1.5t23.5 0.5q10 0 12.5 -4t2.5 -12q0 -2 -0.5 -19t-1 -42t-1.5 -56l-2 -62l48 30q3 3 8 0t9 -7.5t6 -9.5t-1 -7l-71 -48q-1 -37 -1 -62t1 -26t12 0t24.5 2.5t24.5 3.5t12 2q2 2 2.5 8t0.5 15q0 4 4.5 5.5t10 1t10 -2
t4.5 -4.5v-15t0.5 -26t0.5 -25.5v-12.5t-5 -2t-11 -1t-11 1t-5 4q0 5 1 11.5t-1 7.5q-1 0 -12.5 -0.5t-26 -1t-28.5 -1.5t-20 -1q-13 0 -15.5 3.5t-2.5 11.5q0 3 0.5 26.5t0.5 57.5q-22 -13 -25 -15q-3 -1 -7.5 2.5t-8.5 8.5t-5.5 10t1.5 7l46 30q0 31 0.5 62t1 56t0.5 41
v17q-2 2 -10 1.5t-13 0.5z" />
    <glyph glyph-name="Nacute" unicode="&#x143;" horiz-adv-x="352" 
d="M15 378q-3 1 -6 5.5t-4.5 10t-1 10.5t3.5 7q3 1 21 6t38 10t37 9t19 4t4.5 -4.5t4 -9.5t1.5 -10t-2 -5t-8 -2t-12.5 -4.5t-12 -5t-5.5 -4.5q0 -1 1.5 -11t4 -26.5t6 -37t6.5 -41.5q8 -50 19 -112q2 43 8 83q5 35 16 72t31 63q18 23 37 33.5t36.5 10t31.5 -12t22 -32.5
t12 -60.5t6 -86.5t2 -96t-0.5 -88.5t-1 -65t0.5 -25.5q2 0 7.5 -1t16.5 -2q5 -1 6.5 -6t1 -10.5t-3 -10t-4.5 -4.5t-15.5 -1t-29.5 -2t-29.5 -1t-16.5 2t-4.5 7.5t-1.5 11.5t1.5 11t4.5 5q6 1 16 0.5t15 0.5q1 0 2 25.5t1.5 64.5t0 87t-2.5 93t-6.5 82.5t-10.5 56.5
q-8 22 -24 23t-33 -16t-32.5 -52t-22.5 -85q-5 -37 -7.5 -72.5t-3 -63.5t0.5 -45.5t2 -18.5t5 0t8.5 2.5t8 2.5t5.5 1q5 -1 7 -14.5t0 -17.5q-1 -2 -14 -5t-28.5 -6.5t-28.5 -6t-14 -2.5q-3 -1 -8 8.5t1 15.5q3 2 11.5 5t10.5 5q1 0 -3.5 26.5t-12 66t-16.5 85.5t-17 85.5
t-14 65.5t-7 27q-3 1 -16 -4t-21 -3zM216 539q3 3 8 1.5t9.5 -4.5t8 -7t2.5 -7t-12.5 -15t-25 -25.5t-25.5 -25t-14 -12.5q-1 0 -10.5 6t-6.5 14q1 4 11 15t21 23.5t21 23t13 13.5z" />
    <glyph glyph-name="nacute" unicode="&#x144;" horiz-adv-x="228" 
d="M5 258q-3 2 -4 14t3 13q19 1 29 1.5t14.5 0.5t5 -0.5t2.5 -1.5q2 -2 2.5 -10.5t0.5 -19v-18.5t1 -8t4 6t10.5 12.5t20 11.5t30.5 3q19 -3 32 -16.5t21 -33t11.5 -42.5t3.5 -45q0 -45 -0.5 -78t3.5 -34q3 0 9 2t11 4q3 0 5 -3.5t3.5 -9t1 -10t-2.5 -5.5t-12 -4.5t-22 -7
t-23 -6.5t-14 -4t-6 2.5t-4.5 8t-1.5 9t2 5.5l12.5 5t8.5 6v11.5v26.5t-0.5 35.5t-0.5 39.5q0 19 -2.5 39t-7.5 36t-13 26.5t-20 11.5q-25 2 -39 -25t-16 -80t-3.5 -74.5t0.5 -22.5q1 0 6 -1t10.5 -1.5t11 -1.5t8.5 -1t4 -5t0.5 -11t-3 -11t-7.5 -5q-6 0 -17.5 1t-24.5 2
t-23.5 2t-13.5 1t-4 5t-1 10t1.5 10t3.5 5q3 0 10.5 0.5t7.5 2.5v18t-0.5 42t-1 53.5t-1 53.5t-1.5 42t-1 18q-1 2 -8 0t-11 0zM139 385q3 3 8 1.5t9.5 -4.5t8 -7t2.5 -7t-12.5 -15t-25 -25.5t-25.5 -25t-14 -12.5q-1 0 -10.5 6t-6.5 14q1 4 11 15t21 23.5t21 23t13 13.5z
" />
    <glyph glyph-name="Ncommaaccent" unicode="&#x145;" horiz-adv-x="352" 
d="M15 378q-3 1 -6 5.5t-4.5 10t-1 10.5t3.5 7q3 1 21 6t38 10t37 9t19 4t4.5 -4.5t4 -9.5t1.5 -10t-2 -5t-8 -2t-12.5 -4.5t-12 -5t-5.5 -4.5q0 -1 1.5 -11t4 -26.5t6 -37t6.5 -41.5q8 -50 19 -112q2 43 8 83q5 35 16 72t31 63q18 23 37 33.5t36.5 10t31.5 -12t22 -32.5
t12 -60.5t6 -86.5t2 -96t-0.5 -88.5t-1 -65t0.5 -25.5q2 0 7.5 -1t16.5 -2q5 -1 6.5 -6t1 -10.5t-3 -10t-4.5 -4.5t-15.5 -1t-29.5 -2t-29.5 -1t-16.5 2t-4.5 7.5t-1.5 11.5t1.5 11t4.5 5q6 1 16 0.5t15 0.5q1 0 2 25.5t1.5 64.5t0 87t-2.5 93t-6.5 82.5t-10.5 56.5
q-8 22 -24 23t-33 -16t-32.5 -52t-22.5 -85q-5 -37 -7.5 -72.5t-3 -63.5t0.5 -45.5t2 -18.5t5 0t8.5 2.5t8 2.5t5.5 1q5 -1 7 -14.5t0 -17.5q-1 -2 -14 -5t-28.5 -6.5t-28.5 -6t-14 -2.5q-3 -1 -8 8.5t1 15.5q3 2 11.5 5t10.5 5q1 0 -3.5 26.5t-12 66t-16.5 85.5t-17 85.5
t-14 65.5t-7 27q-3 1 -16 -4t-21 -3zM177 -37q-3 6 1 10.5t11 7t14 3t9 -2.5q3 -3 6.5 -13t6 -23t3.5 -27t-2 -26t-8 -22.5t-11 -18t-11.5 -12t-7.5 -4.5q-3 -1 -11 7.5t-5 14.5q2 6 12.5 15.5t11.5 23.5t-6 35t-13 32z" />
    <glyph glyph-name="ncommaaccent" unicode="&#x146;" horiz-adv-x="228" 
d="M5 258q-3 2 -4 14t3 13q19 1 29 1.5t14.5 0.5t5 -0.5t2.5 -1.5q2 -2 2.5 -10.5t0.5 -19v-18.5t1 -8t4 6t10.5 12.5t20 11.5t30.5 3q19 -3 32 -16.5t21 -33t11.5 -42.5t3.5 -45q0 -45 -0.5 -78t3.5 -34q3 0 9 2t11 4q3 0 5 -3.5t3.5 -9t1 -10t-2.5 -5.5t-12 -4.5t-22 -7
t-23 -6.5t-14 -4t-6 2.5t-4.5 8t-1.5 9t2 5.5l12.5 5t8.5 6v11.5v26.5t-0.5 35.5t-0.5 39.5q0 19 -2.5 39t-7.5 36t-13 26.5t-20 11.5q-25 2 -39 -25t-16 -80t-3.5 -74.5t0.5 -22.5q1 0 6 -1t10.5 -1.5t11 -1.5t8.5 -1t4 -5t0.5 -11t-3 -11t-7.5 -5q-6 0 -17.5 1t-24.5 2
t-23.5 2t-13.5 1t-4 5t-1 10t1.5 10t3.5 5q3 0 10.5 0.5t7.5 2.5v18t-0.5 42t-1 53.5t-1 53.5t-1.5 42t-1 18q-1 2 -8 0t-11 0zM90 -50q-3 6 1 10.5t11 7t14 3t9 -2.5q3 -3 6.5 -13t6 -23t3.5 -27t-2 -26t-8 -22.5t-11 -18t-11.5 -12t-7.5 -4.5q-3 -1 -11 7.5t-5 14.5
q2 6 12.5 15.5t11.5 23.5t-6 35t-13 32z" />
    <glyph glyph-name="Ncaron" unicode="&#x147;" horiz-adv-x="352" 
d="M15 378q-3 1 -6 5.5t-4.5 10t-1 10.5t3.5 7q3 1 21 6t38 10t37 9t19 4t4.5 -4.5t4 -9.5t1.5 -10t-2 -5t-8 -2t-12.5 -4.5t-12 -5t-5.5 -4.5q0 -1 1.5 -11t4 -26.5t6 -37t6.5 -41.5q8 -50 19 -112q2 43 8 83q5 35 16 72t31 63q18 23 37 33.5t36.5 10t31.5 -12t22 -32.5
t12 -60.5t6 -86.5t2 -96t-0.5 -88.5t-1 -65t0.5 -25.5q2 0 7.5 -1t16.5 -2q5 -1 6.5 -6t1 -10.5t-3 -10t-4.5 -4.5t-15.5 -1t-29.5 -2t-29.5 -1t-16.5 2t-4.5 7.5t-1.5 11.5t1.5 11t4.5 5q6 1 16 0.5t15 0.5q1 0 2 25.5t1.5 64.5t0 87t-2.5 93t-6.5 82.5t-10.5 56.5
q-8 22 -24 23t-33 -16t-32.5 -52t-22.5 -85q-5 -37 -7.5 -72.5t-3 -63.5t0.5 -45.5t2 -18.5t5 0t8.5 2.5t8 2.5t5.5 1q5 -1 7 -14.5t0 -17.5q-1 -2 -14 -5t-28.5 -6.5t-28.5 -6t-14 -2.5q-3 -1 -8 8.5t1 15.5q3 2 11.5 5t10.5 5q1 0 -3.5 26.5t-12 66t-16.5 85.5t-17 85.5
t-14 65.5t-7 27q-3 1 -16 -4t-21 -3zM118 551q-2 4 0.5 7t7 4.5t9 2t6.5 -1.5t8.5 -11t13.5 -19q8 -11 16 -26q6 14 11 26q5 11 8.5 20.5t5.5 12.5q1 3 7 3t11.5 -2t9.5 -5t2 -7t-7.5 -16t-12.5 -26t-12.5 -26t-7.5 -15q-4 -6 -14 -8t-15 3q-2 3 -9 15t-15 26t-15 26.5
t-8 16.5z" />
    <glyph glyph-name="ncaron" unicode="&#x148;" horiz-adv-x="228" 
d="M5 258q-3 2 -4 14t3 13q19 1 29 1.5t14.5 0.5t5 -0.5t2.5 -1.5q2 -2 2.5 -10.5t0.5 -19v-18.5t1 -8t4 6t10.5 12.5t20 11.5t30.5 3q19 -3 32 -16.5t21 -33t11.5 -42.5t3.5 -45q0 -45 -0.5 -78t3.5 -34q3 0 9 2t11 4q3 0 5 -3.5t3.5 -9t1 -10t-2.5 -5.5t-12 -4.5t-22 -7
t-23 -6.5t-14 -4t-6 2.5t-4.5 8t-1.5 9t2 5.5l12.5 5t8.5 6v11.5v26.5t-0.5 35.5t-0.5 39.5q0 19 -2.5 39t-7.5 36t-13 26.5t-20 11.5q-25 2 -39 -25t-16 -80t-3.5 -74.5t0.5 -22.5q1 0 6 -1t10.5 -1.5t11 -1.5t8.5 -1t4 -5t0.5 -11t-3 -11t-7.5 -5q-6 0 -17.5 1t-24.5 2
t-23.5 2t-13.5 1t-4 5t-1 10t1.5 10t3.5 5q3 0 10.5 0.5t7.5 2.5v18t-0.5 42t-1 53.5t-1 53.5t-1.5 42t-1 18q-1 2 -8 0t-11 0zM48 379q-2 4 0.5 7t7 4.5t9 2t6.5 -1.5t8.5 -11t13.5 -19q8 -11 16 -26q6 14 11 26q5 11 8.5 20.5t5.5 12.5q1 3 7 3t11.5 -2t9.5 -5t2 -7
t-7.5 -16t-12.5 -26t-12.5 -26t-7.5 -15q-4 -6 -14 -8t-15 3q-2 3 -9 15t-15 26t-15 26.5t-8 16.5z" />
    <glyph glyph-name="napostrophe" unicode="&#x149;" horiz-adv-x="297" 
d="M69 258q-3 2 -4 14t3 13q19 1 29 1.5t14.5 0.5t5 -0.5t2.5 -1.5q2 -2 2.5 -10.5t0.5 -19v-18.5t1 -8t4 6t10.5 12.5t20 11.5t30.5 3q19 -3 32 -16.5t21 -33t11.5 -42.5t3.5 -45q0 -45 -0.5 -78t3.5 -34q3 0 9 2t11 4q3 0 5 -3.5t3.5 -9t1 -10t-2.5 -5.5t-12 -4.5t-22 -7
t-23 -6.5t-14 -4t-6 2.5t-4.5 8t-1.5 9t2 5.5l12.5 5t8.5 6v11.5v26.5t-0.5 35.5t-0.5 39.5q0 19 -2.5 39t-7.5 36t-13 26.5t-20 11.5q-25 2 -39 -25t-16 -80t-3.5 -74.5t0.5 -22.5q1 0 6 -1t10.5 -1.5t11 -1.5t8.5 -1t4 -5t0.5 -11t-3 -11t-7.5 -5q-6 0 -17.5 1t-24.5 2
t-23.5 2t-13.5 1t-4 5t-1 10t1.5 10t3.5 5q3 0 10.5 0.5t7.5 2.5v18t-0.5 42t-1 53.5t-1 53.5t-1.5 42t-1 18q-1 2 -8 0t-11 0zM1 344q-3 6 1 10.5t11 7t14 3t9 -2.5q3 -3 6.5 -13t6 -23t3.5 -27t-2 -26t-8 -22.5t-11 -18t-11.5 -12t-7.5 -4.5q-3 -1 -11 7.5t-5 14.5
q2 6 12.5 15.5t11.5 23.5t-6 35t-13 32z" />
    <glyph glyph-name="Eng" unicode="&#x14a;" horiz-adv-x="352" 
d="M298 130q0 36 -1.5 72.5t-4 69t-6 58.5t-8.5 41q-8 22 -24 23t-33 -16t-32.5 -52t-22.5 -85q-5 -37 -7.5 -72.5t-3 -63.5t0.5 -45.5t2 -18.5t5 0t8.5 2.5t8 2.5t5.5 1q5 -1 7 -14.5t0 -17.5q-1 -2 -14 -5t-28.5 -6.5t-28.5 -6t-14 -2.5q-3 -1 -8 8.5t1 15.5q3 2 11.5 5
t10.5 5q1 0 -3.5 26.5t-12 66t-16.5 85.5t-17 85.5t-14 65.5t-7 27q-3 1 -16 -4t-21 -3q-3 1 -6 5.5t-4.5 10t-1 10.5t3.5 7q3 1 21 6t38 10t37 9t19 4t4.5 -4.5t4 -9.5t1.5 -10t-2 -5t-8 -2t-12.5 -4.5t-12 -5t-5.5 -4.5q0 -1 1.5 -11t4 -26.5t6 -37t6.5 -41.5
q8 -50 19 -112q2 43 8 83q5 35 16 72t31 63q18 23 37 33.5t36.5 10t31.5 -12t22 -32.5q6 -17 9.5 -44t5.5 -60.5t3 -70.5t1 -73q0 -40 0.5 -63t0.5 -35.5v-16.5v-5.5t-0.5 -3t-0.5 -8.5q-2 -33 -7 -61.5t-16 -51t-28.5 -36t-44.5 -16.5h-10t-10 1l-6 -29q-2 -5 -7 -5.5
t-10 1.5t-9 5t-4 5t1.5 15.5t4 29.5t5 29.5t4.5 15.5q3 2 8.5 2.5t11.5 -0.5t10 -3.5t4 -5.5l-6 -28q6 -1 13 0q29 4 45 39t17 92z" />
    <glyph glyph-name="eng" unicode="&#x14b;" 
d="M161 118q0 19 -2.5 39t-7.5 36t-13 26.5t-20 11.5q-25 2 -39 -25t-16 -80t-3.5 -74.5t0.5 -22.5q1 0 6 -1t10.5 -1.5t11 -1.5t8.5 -1t4 -5t0.5 -11t-3 -11t-7.5 -5q-6 0 -17.5 1t-24.5 2t-23.5 2t-13.5 1t-4 5t-1 10t1.5 10t3.5 5q3 0 10.5 0.5t7.5 2.5v18t-0.5 42
t-1 53.5t-1 53.5t-1.5 42t-1 18q-1 2 -8 0t-11 0q-3 2 -4 14t3 13q19 1 29 1.5t14.5 0.5t5 -0.5t2.5 -1.5q2 -2 2.5 -10.5t0.5 -19v-18.5t1 -8t4 6t10.5 12.5t20 11.5t30.5 3q19 -3 32 -16.5t21 -33t11.5 -42.5t3.5 -45q2 -116 -3.5 -182t-34.5 -76q-13 -4 -33.5 0t-42.5 15
l-6 -17q-2 -2 -6.5 -1t-9 3.5t-8 5.5t-2.5 6q1 2 5 12t9 21t9.5 21t6.5 13t6.5 3t9 -1.5t7.5 -4.5t2 -6l-12 -28q16 -9 31 -12t23 3q14 10 17 44.5t2 82.5z" />
    <glyph glyph-name="Omacron" unicode="&#x14c;" horiz-adv-x="285" 
d="M137 440q33 2 58 -18t41.5 -55t24 -80.5t6.5 -93.5q-2 -47 -13.5 -88.5t-32.5 -73t-49.5 -49t-63.5 -15.5q-36 2 -57 28t-31.5 63t-13 79t-1.5 76q1 37 10.5 77t26.5 72.5t41 54t54 23.5zM136 405q-15 -1 -31.5 -13.5t-31 -37t-24 -60t-11.5 -82.5t2 -86t14 -67t25 -43.5
t35 -15.5t39.5 9t36 31t28 59t15.5 94q3 53 -5.5 93t-23.5 66.5t-33.5 40t-34.5 12.5zM188 535q3 0 6 -3.5t4 -8.5t0 -9.5t-4 -5.5q-3 0 -17.5 -3t-31 -6t-31.5 -5t-18 -2q-7 2 -9.5 14.5t4.5 14.5q3 1 17.5 3t31 4.5t30.5 4.5t18 2z" />
    <glyph glyph-name="omacron" unicode="&#x14d;" horiz-adv-x="174" 
d="M161 142q6 -73 -16.5 -109t-54.5 -37q-17 -1 -32.5 3t-27.5 17t-19.5 37.5t-7.5 63.5t5.5 64.5t15 40.5t22.5 21.5t28 8.5q12 1 26 -2.5t26.5 -15.5t22 -34t12.5 -58zM130 134q-2 28 -7.5 45t-13 26t-17 11t-18.5 1q-17 -2 -29.5 -24t-11.5 -75q2 -50 16.5 -72t33.5 -21
q9 0 18 5.5t16 18t10.5 33.5t2.5 52zM122 332q3 0 6 -3.5t4 -8.5t0 -9.5t-4 -5.5q-3 0 -17.5 -3t-31 -6t-31.5 -5t-18 -2q-7 2 -9.5 14.5t4.5 14.5q3 1 17.5 3t31 4.5t30.5 4.5t18 2z" />
    <glyph glyph-name="Obreve" unicode="&#x14e;" horiz-adv-x="285" 
d="M137 440q33 2 58 -18t41.5 -55t24 -80.5t6.5 -93.5q-2 -47 -13.5 -88.5t-32.5 -73t-49.5 -49t-63.5 -15.5q-36 2 -57 28t-31.5 63t-13 79t-1.5 76q1 37 10.5 77t26.5 72.5t41 54t54 23.5zM136 405q-15 -1 -31.5 -13.5t-31 -37t-24 -60t-11.5 -82.5t2 -86t14 -67t25 -43.5
t35 -15.5t39.5 9t36 31t28 59t15.5 94q3 53 -5.5 93t-23.5 66.5t-33.5 40t-34.5 12.5zM70 549q0 3 5 4.5t11 1t11.5 -2t5.5 -2.5q0 -2 0.5 -9.5t3.5 -16t9.5 -15.5t19.5 -8t21.5 5t13.5 14t7.5 16t2.5 13q0 4 5.5 6t12 1.5t12 -2.5t5.5 -5q0 -4 -3 -16.5t-11 -26.5
t-23.5 -24.5t-40.5 -9.5q-25 0 -39 11t-20.5 24.5t-7.5 25.5t-1 16z" />
    <glyph glyph-name="obreve" unicode="&#x14f;" horiz-adv-x="174" 
d="M20 355q0 4 5 5t11 1t11.5 -1.5t5.5 -3.5t-0.5 -9.5t1.5 -15.5t7.5 -15t17.5 -8q13 -1 19.5 5t9 14t2.5 16v12t5.5 6t12 2t12 -2t5.5 -6q0 -3 -0.5 -16t-6 -26.5t-18.5 -24t-38 -10.5q-26 1 -39 11.5t-18 24t-5 26v15.5zM161 142q6 -73 -16.5 -109t-54.5 -37
q-17 -1 -32.5 3t-27.5 17t-19.5 37.5t-7.5 63.5t5.5 64.5t15 40.5t22.5 21.5t28 8.5q12 1 26 -2.5t26.5 -15.5t22 -34t12.5 -58zM130 134q-2 28 -7.5 45t-13 26t-17 11t-18.5 1q-17 -2 -29.5 -24t-11.5 -75q2 -50 16.5 -72t33.5 -21q9 0 18 5.5t16 18t10.5 33.5t2.5 52z" />
    <glyph glyph-name="Ohungarumlaut" unicode="&#x150;" horiz-adv-x="285" 
d="M137 440q33 2 58 -18t41.5 -55t24 -80.5t6.5 -93.5q-2 -47 -13.5 -88.5t-32.5 -73t-49.5 -49t-63.5 -15.5q-36 2 -57 28t-31.5 63t-13 79t-1.5 76q1 37 10.5 77t26.5 72.5t41 54t54 23.5zM136 405q-15 -1 -31.5 -13.5t-31 -37t-24 -60t-11.5 -82.5t2 -86t14 -67t25 -43.5
t35 -15.5t39.5 9t36 31t28 59t15.5 94q3 53 -5.5 93t-23.5 66.5t-33.5 40t-34.5 12.5zM124 559q3 4 8 3.5t8.5 -3.5t6 -6.5t1.5 -6.5q-1 -2 -9 -12.5t-17.5 -22.5t-18 -22t-10.5 -12t-6.5 -0.5t-8.5 4.5t-6.5 7t-0.5 7t9 11.5t15.5 19t16.5 19.5t12 14zM190 568q3 3 8 2
t9.5 -5t7 -8.5t1.5 -7.5q-2 -3 -11 -15.5t-20 -27t-20.5 -26.5t-11.5 -13t-6.5 0.5t-9 4.5t-6.5 7t0 8t10.5 16t18 25.5t18.5 25t12 14.5z" />
    <glyph glyph-name="ohungarumlaut" unicode="&#x151;" horiz-adv-x="174" 
d="M161 142q6 -73 -16.5 -109t-54.5 -37q-17 -1 -32.5 3t-27.5 17t-19.5 37.5t-7.5 63.5t5.5 64.5t15 40.5t22.5 21.5t28 8.5q12 1 26 -2.5t26.5 -15.5t22 -34t12.5 -58zM130 134q-2 28 -7.5 45t-13 26t-17 11t-18.5 1q-17 -2 -29.5 -24t-11.5 -75q2 -50 16.5 -72t33.5 -21
q9 0 18 5.5t16 18t10.5 33.5t2.5 52zM63 377q3 4 8 3.5t8.5 -3.5t6 -6.5t1.5 -6.5q-1 -2 -9 -12.5t-17.5 -22.5t-18 -22t-10.5 -12t-6.5 -0.5t-8.5 4.5t-6.5 7t-0.5 7t9 11.5t15.5 19t16.5 19.5t12 14zM129 386q3 3 8 2t9.5 -5t7 -8.5t1.5 -7.5q-2 -3 -11 -15.5t-20 -27
t-20.5 -26.5t-11.5 -13t-6.5 0.5t-9 4.5t-6.5 7t0 8t10.5 16t18 25.5t18.5 25t12 14.5z" />
    <glyph glyph-name="OE" unicode="&#x152;" horiz-adv-x="378" 
d="M255 30q10 -4 20 -3.5t18 3t13.5 6.5t5.5 7q0 7 -0.5 15.5t-1.5 18.5q0 5 4.5 7.5t10 2.5t10.5 -2.5t5 -6.5t3.5 -20t7 -34t7 -33.5t3.5 -19.5q1 -4 -3.5 -8t-10 -6t-10.5 -2t-6 5q-1 4 -2.5 11t-3.5 13.5t-3.5 11.5t-2.5 5t-7 -2.5t-15.5 -5.5t-22 -3.5t-26.5 4.5
q-20 6 -37 24q-20 -25 -46 -39t-57 -12q-36 2 -57 28t-31.5 63t-13 79t-1.5 76q1 37 10.5 77t26.5 72.5t41 54t54 23.5q32 2 56 -17t41 -52q16 10 33 11q22 2 39 -7.5t29 -25.5t17.5 -35.5t5.5 -38.5q0 -21 -7.5 -42.5t-22 -39.5t-36 -31t-49.5 -17q-27 -4 -46 -3
q3 -32 9.5 -52.5t15 -33t17 -18t16.5 -8.5zM136 405q-15 -1 -31.5 -13.5t-31 -37t-24 -60t-11.5 -82.5t2 -86t14 -67t25 -43.5t35 -15.5q21 1 41 10.5t37 33.5q-14 23 -22.5 57.5t-8.5 85.5q-1 53 12 93.5t34 66.5q-16 29 -35 44t-36 14zM235 175q41 9 65.5 37t24.5 60
t-14 53t-43 21q-11 0 -24.5 -10.5t-25 -30.5t-18.5 -50.5t-6 -70.5q0 -8 1 -11q8 -2 18 -1.5t22 3.5z" />
    <glyph glyph-name="oe" unicode="&#x153;" horiz-adv-x="264" 
d="M143 244q26 4 42 -13.5t25 -41t12.5 -46t3.5 -28.5q1 -13 -0.5 -18.5t-18.5 -7.5q-9 -1 -21.5 -2.5t-24 -2.5t-20 -2.5t-9.5 -2.5t0.5 -8.5t6 -16t12 -15t19.5 -5.5q23 3 30.5 13.5t7.5 16.5t9.5 9.5t11.5 1.5q1 -2 4.5 -8t7 -13.5t7 -14.5t5.5 -10t-1 -8t-8.5 -9
t-10.5 -5.5t-7 1.5q-7 13 -10 13t-13.5 -7.5t-28.5 -8.5q-8 0 -19.5 1.5t-22.5 9.5q-17 -20 -42 -20q-17 -1 -32.5 3t-27.5 17t-19.5 37.5t-7.5 63.5t5.5 64.5t15 40.5t22.5 21.5t28 8.5q12 2 25.5 -1.5t25.5 -14.5q4 4 8.5 5.5t9.5 2.5zM74 217q-17 -2 -29.5 -24t-11.5 -75
q2 -50 16.5 -72t33.5 -21q16 0 28 16q-6 11 -9.5 26.5t-4.5 38.5q-2 35 1.5 59.5t9.5 41.5q-8 8 -17 9.5t-17 0.5zM149 208q-12 -6 -16.5 -22t-5.5 -32.5t0.5 -29t1.5 -13.5q1 -1 10.5 0t21.5 2.5t22 3.5t12 3q1 1 -1.5 17t-8.5 34t-15 30.5t-21 6.5z" />
    <glyph glyph-name="Racute" unicode="&#x154;" horiz-adv-x="339" 
d="M10 447q-2 0 -3.5 4t-2.5 8.5t-1 9t1 5.5t9.5 3t18 3.5t18 2.5t10.5 1q5 0 10 -2.5t7 -19.5q0 -2 0.5 -7t1.5 -13q14 5 31 8.5t38 3.5q65 0 99 -30.5t37 -73.5q1 -30 -17.5 -56t-42 -45.5t-44.5 -31.5t-23 -13l198 -47q6 0 8 -5t1 -10.5t-3.5 -10t-4.5 -4.5l-233 53
q-4 0 -10.5 -4t-15.5 -9q2 -31 4 -58.5t3.5 -48.5t3 -33t2.5 -12h10.5t19 -0.5t19.5 -1.5t13 -2q3 0 3.5 -5.5t0 -11.5t-2 -11t-3.5 -5q-3 0 -22 0.5t-40.5 2t-40 2.5t-20.5 1t-3 4.5t-0.5 10t1 10t1.5 5.5t5.5 1h9.5h9h5l-0.5 11t-2 30.5t-3 45.5t-3.5 55q-16 0 -27 11
q-6 6 -6 14t4.5 15.5t11 13.5t12.5 9q-3 42 -5.5 83.5t-5 73.5t-4.5 52.5t-3 20.5t-5.5 -0.5t-10 -1l-11 -1t-6.5 -0.5zM93 222q8 -2 13 -3.5t9 -1.5q3 0 25 11.5t47 30t45 43t19 50.5q-2 35 -30 52t-73 17q-19 0 -35.5 -4.5t-30.5 -11.5q2 -35 5 -83.5t6 -99.5zM182 571
q3 3 8 1.5t9.5 -4.5t8 -7t2.5 -7t-12.5 -15t-25 -25.5t-25.5 -25t-14 -12.5q-1 0 -10.5 6t-6.5 14q1 4 11 15t21 23.5t21 23t13 13.5z" />
    <glyph glyph-name="racute" unicode="&#x155;" horiz-adv-x="178" 
d="M74 308q3 1 5.5 -2t3.5 -7t1 -8.5t-2 -5.5q-4 -3 -8 -3.5t-4 -2.5q0 -1 0.5 -12t1 -24t1.5 -24t2 -12q0 -1 3.5 7t10.5 18t17.5 18.5t25.5 7.5q15 0 22 -19t9 -42t1 -43t-1 -23t-5 -4.5t-11.5 -1.5t-11.5 1.5t-5 4.5t0.5 17.5t0.5 30.5t-2 29t-7 14q-5 0 -11.5 -9
t-13 -25t-11 -36.5t-4.5 -43.5q-1 -46 -1.5 -60.5t1.5 -14.5h15.5t17.5 1q2 0 3.5 -4t1.5 -9.5t-0.5 -10t-3.5 -4.5l-86 -11q-2 8 -4 15q-2 6 -2 10.5t3 5.5q5 2 12.5 2.5t9.5 2.5q1 2 0 27t-3 76q-1 25 -2.5 49.5t-2.5 43.5t-2 31l-1 12q-4 -1 -13 -3.5t-15 -4.5
q-4 -1 -6 3t-3 8.5t0 9t4 5.5t12.5 4t21 6t22 6t13.5 4zM109 412q3 3 8 1.5t9.5 -4.5t8 -7t2.5 -7t-12.5 -15t-25 -25.5t-25.5 -25t-14 -12.5q-1 0 -10.5 6t-6.5 14q1 4 11 15t21 23.5t21 23t13 13.5z" />
    <glyph glyph-name="Rcommaaccent" unicode="&#x156;" horiz-adv-x="339" 
d="M10 447q-2 0 -3.5 4t-2.5 8.5t-1 9t1 5.5t9.5 3t18 3.5t18 2.5t10.5 1q5 0 10 -2.5t7 -19.5q0 -2 0.5 -7t1.5 -13q14 5 31 8.5t38 3.5q65 0 99 -30.5t37 -73.5q1 -30 -17.5 -56t-42 -45.5t-44.5 -31.5t-23 -13l198 -47q6 0 8 -5t1 -10.5t-3.5 -10t-4.5 -4.5l-233 53
q-4 0 -10.5 -4t-15.5 -9q2 -31 4 -58.5t3.5 -48.5t3 -33t2.5 -12h10.5t19 -0.5t19.5 -1.5t13 -2q3 0 3.5 -5.5t0 -11.5t-2 -11t-3.5 -5q-3 0 -22 0.5t-40.5 2t-40 2.5t-20.5 1t-3 4.5t-0.5 10t1 10t1.5 5.5t5.5 1h9.5h9h5l-0.5 11t-2 30.5t-3 45.5t-3.5 55q-16 0 -27 11
q-6 6 -6 14t4.5 15.5t11 13.5t12.5 9q-3 42 -5.5 83.5t-5 73.5t-4.5 52.5t-3 20.5t-5.5 -0.5t-10 -1l-11 -1t-6.5 -0.5zM93 222q8 -2 13 -3.5t9 -1.5q3 0 25 11.5t47 30t45 43t19 50.5q-2 35 -30 52t-73 17q-19 0 -35.5 -4.5t-30.5 -11.5q2 -35 5 -83.5t6 -99.5zM227 51
q-3 6 1 10.5t11 7t14 3t9 -2.5q3 -3 6.5 -13t6 -23t3.5 -27t-2 -26t-8 -22.5t-11 -18t-11.5 -12t-7.5 -4.5q-3 -1 -11 7.5t-5 14.5q2 6 12.5 15.5t11.5 23.5t-6 35t-13 32z" />
    <glyph glyph-name="rcommaaccent" unicode="&#x157;" horiz-adv-x="178" 
d="M74 308q3 1 5.5 -2t3.5 -7t1 -8.5t-2 -5.5q-4 -3 -8 -3.5t-4 -2.5q0 -1 0.5 -12t1 -24t1.5 -24t2 -12q0 -1 3.5 7t10.5 18t17.5 18.5t25.5 7.5q15 0 22 -19t9 -42t1 -43t-1 -23t-5 -4.5t-11.5 -1.5t-11.5 1.5t-5 4.5t0.5 17.5t0.5 30.5t-2 29t-7 14q-5 0 -11.5 -9
t-13 -25t-11 -36.5t-4.5 -43.5q-1 -46 -1.5 -60.5t1.5 -14.5h15.5t17.5 1q2 0 3.5 -4t1.5 -9.5t-0.5 -10t-3.5 -4.5l-86 -11q-2 8 -4 15q-2 6 -2 10.5t3 5.5q5 2 12.5 2.5t9.5 2.5q1 2 0 27t-3 76q-1 25 -2.5 49.5t-2.5 43.5t-2 31l-1 12q-4 -1 -13 -3.5t-15 -4.5
q-4 -1 -6 3t-3 8.5t0 9t4 5.5t12.5 4t21 6t22 6t13.5 4zM53 -43q-3 6 1 10.5t11 7t14 3t9 -2.5q3 -3 6.5 -13t6 -23t3.5 -27t-2 -26t-8 -22.5t-11 -18t-11.5 -12t-7.5 -4.5q-3 -1 -11 7.5t-5 14.5q2 6 12.5 15.5t11.5 23.5t-6 35t-13 32z" />
    <glyph glyph-name="Rcaron" unicode="&#x158;" horiz-adv-x="339" 
d="M10 447q-2 0 -3.5 4t-2.5 8.5t-1 9t1 5.5t9.5 3t18 3.5t18 2.5t10.5 1q5 0 10 -2.5t7 -19.5q0 -2 0.5 -7t1.5 -13q14 5 31 8.5t38 3.5q65 0 99 -30.5t37 -73.5q1 -30 -17.5 -56t-42 -45.5t-44.5 -31.5t-23 -13l198 -47q6 0 8 -5t1 -10.5t-3.5 -10t-4.5 -4.5l-233 53
q-4 0 -10.5 -4t-15.5 -9q2 -31 4 -58.5t3.5 -48.5t3 -33t2.5 -12h10.5t19 -0.5t19.5 -1.5t13 -2q3 0 3.5 -5.5t0 -11.5t-2 -11t-3.5 -5q-3 0 -22 0.5t-40.5 2t-40 2.5t-20.5 1t-3 4.5t-0.5 10t1 10t1.5 5.5t5.5 1h9.5h9h5l-0.5 11t-2 30.5t-3 45.5t-3.5 55q-16 0 -27 11
q-6 6 -6 14t4.5 15.5t11 13.5t12.5 9q-3 42 -5.5 83.5t-5 73.5t-4.5 52.5t-3 20.5t-5.5 -0.5t-10 -1l-11 -1t-6.5 -0.5zM93 222q8 -2 13 -3.5t9 -1.5q3 0 25 11.5t47 30t45 43t19 50.5q-2 35 -30 52t-73 17q-19 0 -35.5 -4.5t-30.5 -11.5q2 -35 5 -83.5t6 -99.5zM89 566
q-2 4 0.5 7t7 4.5t9 2t6.5 -1.5t8.5 -11t13.5 -19q8 -11 16 -26q6 14 11 26q5 11 8.5 20.5t5.5 12.5q1 3 7 3t11.5 -2t9.5 -5t2 -7t-7.5 -16t-12.5 -26t-12.5 -26t-7.5 -15q-4 -6 -14 -8t-15 3q-2 3 -9 15t-15 26t-15 26.5t-8 16.5z" />
    <glyph glyph-name="rcaron" unicode="&#x159;" horiz-adv-x="178" 
d="M74 308q3 1 5.5 -2t3.5 -7t1 -8.5t-2 -5.5q-4 -3 -8 -3.5t-4 -2.5q0 -1 0.5 -12t1 -24t1.5 -24t2 -12q0 -1 3.5 7t10.5 18t17.5 18.5t25.5 7.5q15 0 22 -19t9 -42t1 -43t-1 -23t-5 -4.5t-11.5 -1.5t-11.5 1.5t-5 4.5t0.5 17.5t0.5 30.5t-2 29t-7 14q-5 0 -11.5 -9
t-13 -25t-11 -36.5t-4.5 -43.5q-1 -46 -1.5 -60.5t1.5 -14.5h15.5t17.5 1q2 0 3.5 -4t1.5 -9.5t-0.5 -10t-3.5 -4.5l-86 -11q-2 8 -4 15q-2 6 -2 10.5t3 5.5q5 2 12.5 2.5t9.5 2.5q1 2 0 27t-3 76q-1 25 -2.5 49.5t-2.5 43.5t-2 31l-1 12q-4 -1 -13 -3.5t-15 -4.5
q-4 -1 -6 3t-3 8.5t0 9t4 5.5t12.5 4t21 6t22 6t13.5 4zM31 401q-2 4 0.5 7t7 4.5t9 2t6.5 -1.5t8.5 -11t13.5 -19q8 -11 16 -26q6 14 11 26q5 11 8.5 20.5t5.5 12.5q1 3 7 3t11.5 -2t9.5 -5t2 -7t-7.5 -16t-12.5 -26t-12.5 -26t-7.5 -15q-4 -6 -14 -8t-15 3q-2 3 -9 15
t-15 26t-15 26.5t-8 16.5z" />
    <glyph glyph-name="Sacute" unicode="&#x15a;" horiz-adv-x="369" 
d="M255 441q3 2 8.5 0t11 -6.5t9 -9t2.5 -6.5q-2 -2 -10.5 -13.5t-19 -24t-19 -23.5t-10.5 -12q-2 -2 -6 0t-8.5 5.5t-7.5 7.5t-2 6q1 3 3.5 7l5 8t4 7t0.5 3t-10 3t-24 3.5t-35.5 -4.5t-43.5 -21q-25 -17 -42 -42t-17.5 -48t19.5 -40t68 -17q110 0 158.5 -28.5t50.5 -80.5
v-1q26 -1 43 -2t19 -1q4 0 6.5 -5.5t2.5 -12t-3 -11.5t-9 -5q-4 0 -20.5 1t-40.5 3q-6 -29 -22 -54t-38.5 -44.5t-50.5 -32.5t-58 -19q-43 -8 -76.5 3t-53 32.5t-23.5 48t11 50.5q12 18 43 28.5t71 15.5t84 6.5t82 0.5q-3 24 -19.5 39t-41 23t-54.5 10.5t-61 2.5
q-66 -1 -95.5 23t-31 57t19.5 68.5t56 57.5t63 28t48 4.5t31.5 -6.5t14.5 -4q5 2 9 9.5t9 12.5zM55 46q-9 -14 -4 -30.5t20.5 -30t39.5 -20.5t53 -2q25 5 48.5 16.5t42 28t31.5 35.5t18 39q-35 1 -74.5 0.5t-75.5 -4t-63 -11.5t-36 -21zM205 562q3 3 8 1.5t9.5 -4.5t8 -7
t2.5 -7t-12.5 -15t-25 -25.5t-25.5 -25t-14 -12.5q-1 0 -10.5 6t-6.5 14q1 4 11 15t21 23.5t21 23t13 13.5z" />
    <glyph glyph-name="sacute" unicode="&#x15b;" horiz-adv-x="176" 
d="M33 97q-3 -2 -8 0t-9 5t-6 7.5t1 9.5q1 3 3.5 6t7 9t11 16t16.5 27q7 12 12.5 25.5t9.5 25.5t6 21t3 12q0 3 4 4.5t8.5 1.5t8 -1.5t3.5 -4.5q2 -29 11.5 -67.5t20.5 -76.5q21 7 37 10.5t20 5.5q5 1 8.5 -3t4.5 -10t-0.5 -12t-5.5 -7t-19.5 -5t-35.5 -10q8 -30 11.5 -52.5
t-1.5 -30.5q-8 -12 -28.5 -15.5t-41.5 1.5t-36.5 18.5t-13.5 36.5q2 20 23 36t49 27q-5 19 -10.5 39t-8.5 37q-7 -10 -12 -20q-5 -8 -10 -17t-9 -15q-11 -18 -15.5 -25t-8.5 -9zM69 42q-1 -12 7 -17.5t17.5 -7t18.5 0.5t11 6q2 5 -1 18.5t-8 33.5q-18 -8 -31 -16t-14 -18z
M108 385q3 3 8 1.5t9.5 -4.5t8 -7t2.5 -7t-12.5 -15t-25 -25.5t-25.5 -25t-14 -12.5q-1 0 -10.5 6t-6.5 14q1 4 11 15t21 23.5t21 23t13 13.5z" />
    <glyph glyph-name="Scircumflex" unicode="&#x15c;" horiz-adv-x="369" 
d="M255 441q3 2 8.5 0t11 -6.5t9 -9t2.5 -6.5q-2 -2 -10.5 -13.5t-19 -24t-19 -23.5t-10.5 -12q-2 -2 -6 0t-8.5 5.5t-7.5 7.5t-2 6q1 3 3.5 7l5 8t4 7t0.5 3t-10 3t-24 3.5t-35.5 -4.5t-43.5 -21q-25 -17 -42 -42t-17.5 -48t19.5 -40t68 -17q110 0 158.5 -28.5t50.5 -80.5
v-1q26 -1 43 -2t19 -1q4 0 6.5 -5.5t2.5 -12t-3 -11.5t-9 -5q-4 0 -20.5 1t-40.5 3q-6 -29 -22 -54t-38.5 -44.5t-50.5 -32.5t-58 -19q-43 -8 -76.5 3t-53 32.5t-23.5 48t11 50.5q12 18 43 28.5t71 15.5t84 6.5t82 0.5q-3 24 -19.5 39t-41 23t-54.5 10.5t-61 2.5
q-66 -1 -95.5 23t-31 57t19.5 68.5t56 57.5t63 28t48 4.5t31.5 -6.5t14.5 -4q5 2 9 9.5t9 12.5zM55 46q-9 -14 -4 -30.5t20.5 -30t39.5 -20.5t53 -2q25 5 48.5 16.5t42 28t31.5 35.5t18 39q-35 1 -74.5 0.5t-75.5 -4t-63 -11.5t-36 -21zM122 470q-2 -3 -7.5 -2.5t-11 3.5
t-9 7.5t-1.5 8.5t8 18.5t13 31t13.5 31.5t8.5 20q5 11 17.5 9.5t15.5 -7.5q1 -3 9 -19.5t16.5 -36t15.5 -36t7 -18.5t-4 -5t-9.5 -5.5t-11 -2.5t-6.5 4q-2 3 -7 16.5t-10 28t-9.5 25.5l-4.5 11l-4.5 -12.5t-10.5 -27t-11.5 -27.5t-6.5 -15z" />
    <glyph glyph-name="scircumflex" unicode="&#x15d;" horiz-adv-x="176" 
d="M33 97q-3 -2 -8 0t-9 5t-6 7.5t1 9.5q1 3 3.5 6t7 9t11 16t16.5 27q7 12 12.5 25.5t9.5 25.5t6 21t3 12q0 3 4 4.5t8.5 1.5t8 -1.5t3.5 -4.5q2 -29 11.5 -67.5t20.5 -76.5q21 7 37 10.5t20 5.5q5 1 8.5 -3t4.5 -10t-0.5 -12t-5.5 -7t-19.5 -5t-35.5 -10q8 -30 11.5 -52.5
t-1.5 -30.5q-8 -12 -28.5 -15.5t-41.5 1.5t-36.5 18.5t-13.5 36.5q2 20 23 36t49 27q-5 19 -10.5 39t-8.5 37q-7 -10 -12 -20q-5 -8 -10 -17t-9 -15q-11 -18 -15.5 -25t-8.5 -9zM69 42q-1 -12 7 -17.5t17.5 -7t18.5 0.5t11 6q2 5 -1 18.5t-8 33.5q-18 -8 -31 -16t-14 -18z
M57 283q-2 -3 -7.5 -2.5t-11 3.5t-9 7.5t-1.5 8.5t8 18.5t13 31t13.5 31.5t8.5 20q5 11 17.5 9.5t15.5 -7.5q1 -3 9 -19.5t16.5 -36t15.5 -36t7 -18.5t-4 -5t-9.5 -5.5t-11 -2.5t-6.5 4q-2 3 -7 16.5t-10 28t-9.5 25.5l-4.5 11l-4.5 -12.5t-10.5 -27t-11.5 -27.5t-6.5 -15z
" />
    <glyph glyph-name="Scedilla" unicode="&#x15e;" horiz-adv-x="369" 
d="M255 441q3 2 8.5 0t11 -6.5t9 -9t2.5 -6.5q-2 -2 -10.5 -13.5t-19 -24t-19 -23.5t-10.5 -12q-2 -2 -6 0t-8.5 5.5t-7.5 7.5t-2 6q1 3 3.5 7l5 8t4 7t0.5 3t-10 3t-24 3.5t-35.5 -4.5t-43.5 -21q-25 -17 -42 -42t-17.5 -48t19.5 -40t68 -17q110 0 158.5 -28.5t50.5 -80.5
v-1q26 -1 43 -2t19 -1q4 0 6.5 -5.5t2.5 -12t-3 -11.5t-9 -5q-4 0 -20.5 1t-40.5 3q-6 -29 -22 -54t-38.5 -44.5t-50.5 -32.5t-58 -19q-43 -8 -76.5 3t-53 32.5t-23.5 48t11 50.5q12 18 43 28.5t71 15.5t84 6.5t82 0.5q-3 24 -19.5 39t-41 23t-54.5 10.5t-61 2.5
q-66 -1 -95.5 23t-31 57t19.5 68.5t56 57.5t63 28t48 4.5t31.5 -6.5t14.5 -4q5 2 9 9.5t9 12.5zM55 46q-9 -14 -4 -30.5t20.5 -30t39.5 -20.5t53 -2q25 5 48.5 16.5t42 28t31.5 35.5t18 39q-35 1 -74.5 0.5t-75.5 -4t-63 -11.5t-36 -21zM137 -48q1 4 6.5 5t11.5 1t11 -2
t5 -4q0 -3 -1.5 -12.5t-3 -20t-1.5 -19.5t3 -9t16 1t29 -1.5t29.5 -11t16.5 -27.5t-13.5 -30.5t-39.5 -17.5t-45.5 -8t-31.5 -1t-10.5 6.5t1 12t7 11t7.5 4.5t18 0.5t31 2.5t29 6.5t13 11.5t-9 9.5t-21.5 2.5t-25.5 -0.5t-20 -0.5t-11 2t-4 11v17.5t0.5 23.5t1 22.5
t1.5 14.5z" />
    </font>
</defs>
</svg>
