<svg xmlns="http://www.w3.org/2000/svg">
<defs>
<font id="Jolly-Italic" horiz-adv-x="1230" >
  <font-face 
    font-family="Jolly"
    font-weight="400"
    font-style="italic"
    font-stretch="normal"
    units-per-em="2048"
    panose-1="2 11 3 2 2 2 3 9 3 4"
    ascent="1638"
    descent="-410"
    x-height="1226"
    cap-height="1622"
    bbox="-228 -512 2546 2115"
    underline-thickness="150"
    underline-position="-442"
    slope="-10"
    unicode-range="U+0020-F002"
  />
<missing-glyph horiz-adv-x="1836" 
d="M944 290q0 24 -6 24h-20v-34h18v10h8zM1482 820q0 22 -6 22h-20v-32h18v10h8zM1104 1268q10 0 16 10q10 14 10 38q-2 24 -10 38q-8 10 -18 10t-16 -10q-10 -12 -10 -38q2 -24 10 -36t18 -12zM1458 930q12 0 18 10q8 12 8 38q0 24 -10 38q-6 10 -16 10q-12 0 -18 -10
q-8 -14 -8 -38t10 -38q6 -10 16 -10zM378 558q12 0 18 10q8 14 8 38t-10 38q-6 10 -16 10q-12 0 -18 -10q-8 -12 -8 -38q0 -24 10 -36q6 -12 16 -12zM754 230q10 14 10 38t-8 38q-8 10 -18 10t-18 -10q-8 -14 -8 -38q0 -26 8 -38q6 -10 16 -10t18 10zM402 810q0 22 -6 22
h-20v-32h18v10h8zM960 290v-40h-24v10h-18v-34q0 -8 14 -8v-18h-62v18q12 0 12 4v92q0 4 -12 4v16h100v-44h-10zM1296 316h-8v18h48v-18q-10 0 -12 -6l-28 -52v-36q0 -4 12 -4v-18h-60v18q12 0 12 4v36l-28 52q-4 6 -12 6v18h56v-18h-8l14 -28zM580 1366h-6v18h46v-18
q-8 0 -12 -6l-26 -54v-36q0 -4 12 -4v-16h-62v16q14 0 14 4v36l-30 54q-4 6 -10 6v18h54v-18h-8l16 -28zM396 1196h-8v18h48v-18q-10 0 -12 -6l-28 -52v-36q0 -4 12 -4v-18h-60v18q12 0 12 4v36l-28 52q-4 6 -12 6v18h56v-18h-8l14 -28zM1498 820v-40h-24v8h-18v-32
q0 -8 14 -8v-18h-62v18q12 0 12 4v90q0 4 -12 4v18h100v-44h-10zM1476 486h-8v18h48v-18q-10 0 -12 -6l-28 -52v-36q0 -4 12 -4v-18h-60v18q12 0 12 4v36l-28 52q-4 6 -12 6v18h56v-18h-8l14 -28zM352 1318v-46q0 -4 18 -4v-18h-56v18q10 0 10 4v82q0 12 -10 12v18h30
l58 -70v48q0 4 -16 4v18h56v-18q-10 0 -10 -4v-112h-20zM698 1384l42 -86l36 86h40v-18q-10 0 -10 -12v-82q0 -4 10 -4v-18h-54v18q8 0 8 2v30l-22 -50h-24l-26 52v-30q0 -4 8 -4v-18h-46v18q8 0 8 4v82q0 12 -8 12v18h38zM1168 1316q0 -28 -16 -48t-48 -20q-34 0 -50 20

<glyph glyph-name=".notdef" horiz-adv-x="1836" 
d="M944 290q0 24 -6 24h-20v-34h18v10h8zM1482 820q0 22 -6 22h-20v-32h18v10h8zM1104 1268q10 0 16 10q10 14 10 38q-2 24 -10 38q-8 10 -18 10t-16 -10q-10 -12 -10 -38q2 -24 10 -36t18 -12zM1458 930q12 0 18 10q8 12 8 38q0 24 -10 38q-6 10 -16 10q-12 0 -18 -10
q-8 -14 -8 -38t10 -38q6 -10 16 -10zM378 558q12 0 18 10q8 14 8 38t-10 38q-6 10 -16 10q-12 0 -18 -10q-8 -12 -8 -38q0 -24 10 -36q6 -12 16 -12zM754 230q10 14 10 38t-8 38q-8 10 -18 10t-18 -10q-8 -14 -8 -38q0 -26 8 -38q6 -10 16 -10t18 10zM402 810q0 22 -6 22
h-20v-32h18v10h8zM960 290v-40h-24v10h-18v-34q0 -8 14 -8v-18h-62v18q12 0 12 4v92q0 4 -12 4v16h100v-44h-10zM1296 316h-8v18h48v-18q-10 0 -12 -6l-28 -52v-36q0 -4 12 -4v-18h-60v18q12 0 12 4v36l-28 52q-4 6 -12 6v18h56v-18h-8l14 -28zM580 1366h-6v18h46v-18
q-8 0 -12 -6l-26 -54v-36q0 -4 12 -4v-16h-62v16q14 0 14 4v36l-30 54q-4 6 -10 6v18h54v-18h-8l16 -28zM396 1196h-8v18h48v-18q-10 0 -12 -6l-28 -52v-36q0 -4 12 -4v-18h-60v18q12 0 12 4v36l-28 52q-4 6 -12 6v18h56v-18h-8l14 -28zM1498 820v-40h-24v8h-18v-32
q0 -8 14 -8v-18h-62v18q12 0 12 4v90q0 4 -12 4v18h100v-44h-10zM1476 486h-8v18h48v-18q-10 0 -12 -6l-28 -52v-36q0 -4 12 -4v-18h-60v18q12 0 12 4v36l-28 52q-4 6 -12 6v18h56v-18h-8l14 -28zM352 1318v-46q0 -4 18 -4v-18h-56v18q10 0 10 4v82q0 12 -10 12v18h30
l58 -70v48q0 4 -16 4v18h56v-18q-10 0 -10 -4v-112h-20zM698 1384l42 -86l36 86h40v-18q-10 0 -10 -12v-82q0 -4 10 -4v-18h-54v18q8 0 8 2v30l-22 -50h-24l-26 52v-30q0 -4 8 -4v-18h-46v18q8 0 8 4v82q0 12 -8 12v18h38zM1168 1316q0 -28 -16 -48t-48 -20q-34 0 -50 20
t-16 48q0 30 16 48q16 20 48 20q34 0 50 -20q16 -18 16 -48zM1252 1318v-46q0 -4 18 -4v-18h-56v18q8 0 8 4v82q0 12 -8 12v18h30l58 -70v48q0 4 -16 4v18h54v-18q-8 0 -8 -4v-112h-22zM1512 1384v-44h-26q0 22 -6 22h-4v-90q0 -4 12 -4v-18h-60v18q12 0 12 4v90h-4
q-6 0 -6 -22h-26v44h108zM918 1308v-32q0 -8 14 -8v-18h-62v18q12 0 12 4v90q0 4 -12 4v18h100v-44h-26q0 22 -6 22h-20v-32h18v8h24v-38h-24v8h-18zM1432 268v-46q0 -4 18 -4v-18h-56v18q10 0 10 4v82q0 12 -10 12v18h30l58 -70v48q0 4 -16 4v18h56v-18q-10 0 -10 -4v-112
h-20zM1418 684l42 -86l36 86h40v-18q-8 0 -8 -12v-82q0 -4 8 -4v-18h-54v18q10 0 10 2v28l-24 -48h-24l-26 52v-30q0 -4 8 -4v-18h-46v18q8 0 8 4v82q0 12 -8 12v18h38zM1522 976q0 -28 -14 -46q-16 -20 -50 -20t-48 18q-16 20 -16 48q0 32 14 50q16 20 48 20q36 0 52 -20
q14 -18 14 -50zM1432 1158v-46q0 -4 18 -4v-18h-56v18q10 0 10 4v82q0 12 -10 12v18h30l58 -70v48q0 4 -16 4v18h56v-18q-10 0 -10 -4v-112h-20zM432 336v-44h-26q0 22 -6 22h-4v-90q0 -4 12 -4v-18h-60v18q12 0 12 4v90h-4q-6 0 -6 -22h-26v44h108zM338 1034l42 -84l36 84
h40v-16q-8 0 -8 -14v-82q0 -4 8 -4v-18h-54v18q10 0 10 4v28l-24 -50h-24l-26 52v-30q0 -4 8 -4v-18h-46v18q8 0 8 4v82q0 14 -8 14v16h38zM442 606q0 -30 -14 -48q-16 -20 -50 -20t-48 20q-16 18 -16 48t14 48q16 20 48 20q36 0 52 -20q14 -18 14 -48zM352 428v-46
q0 -4 18 -4v-18h-56v18q10 0 10 4v82q0 12 -10 12v18h30l58 -70v48q0 4 -16 4v18h56v-18q-10 0 -10 -4v-112h-20zM1062 334l42 -84l38 84h38v-16q-8 0 -8 -14v-82q0 -4 8 -4v-18h-52v18q8 0 8 4v28l-22 -50h-24l-26 52v-30q0 -4 8 -4v-18h-46v18q8 0 8 4v82q0 14 -8 14v16
h36zM688 316q16 20 50 20q32 0 50 -20q14 -18 14 -50q0 -28 -16 -48q-16 -18 -50 -18q-32 0 -48 20q-16 18 -16 46q0 32 16 50zM538 268v-46q0 -4 18 -4v-18h-56v18q8 0 8 4v82q0 14 -8 14v16h30l58 -70v50q0 4 -18 4v16h56v-16q-10 0 -10 -4v-114h-20zM418 810v-40h-24v8
h-18v-32q0 -8 14 -8v-18h-62v18q12 0 12 4v90q0 4 -12 4v18h100v-44h-10z" />
    <glyph glyph-name=".null" horiz-adv-x="159" 
 />
    <glyph glyph-name="nonmarkingreturn" horiz-adv-x="1026" 
 />
    <glyph glyph-name="space" unicode=" " horiz-adv-x="800" 
 />
    <glyph glyph-name="space" unicode="&#xa0;" horiz-adv-x="800" 
 />
    <glyph glyph-name="exclam" unicode="!" horiz-adv-x="383" 
d="M329 440h-121l220 1245h121zM312 241q41 -42 41 -100q0 -59 -41 -100t-101 -41q-59 0 -100 41t-41 100q0 58 41 100t100 42q60 0 101 -42z" />
    <glyph glyph-name="quotedbl" unicode="&#x22;" horiz-adv-x="669" 
d="M336 1620h242l-167 -595h-119zM664 1620h241l-164 -595h-123z" />
    <glyph glyph-name="numbersign" unicode="#" 
d="M678 1024h315l121 442h115l-121 -442h256l-47 -115h-241l-87 -315h203l-45 -115h-190l-131 -479h-115l131 479h-315l-131 -479h-115l131 479h-283l49 115h266l87 315h-232l51 115h213l121 442h115zM961 909h-315l-87 -315h315z" />
    <glyph glyph-name="dollar" unicode="$" 
d="M683 877l-138 -782q22 -4 43 -7l138 785q-21 2 -43 4zM692 91q301 39 403 373q7 31 13 63q10 54 10 99q0 61 -19 103q-41 87 -141 111q-49 11 -130 22zM666 1366q-70 -7 -135 -47q-80 -57 -99 -149q-2 -15 -2 -28q0 -121 140 -136l32 -4zM812 1363q-18 3 -43 5l-66 -377
q23 -1 43 -5zM788 1476q23 -2 44 -4l17 96h104l-21 -118q112 -41 112 -146q0 -19 -4 -40l-111 -2v3q2 12 2 22q0 31 -20 47l-64 -362q40 -5 82 -9q199 -27 264 -142q34 -59 34 -157q0 -62 -14 -141l-9 -55q-129 -441 -530 -481l-13 -71h-104l12 69q-20 2 -43 6l-13 -75h-103
l18 100q-213 91 -213 422q0 84 14 184l105 -2q-8 -73 -8 -136q0 -251 124 -344l132 748q-167 22 -222 83q-51 53 -51 140q0 24 4 50q22 127 133 221q99 83 239 94l17 92h103z" />
    <glyph glyph-name="percent" unicode="%" horiz-adv-x="1665" 
d="M1683 1696l78 -70l-1492 -1702l-83 66zM817 1390q63 -77 63 -176q0 -28 -5 -59q-25 -143 -141.5 -238.5t-255.5 -95.5q-144 0 -222 96q-59 72 -59 171q0 32 6 67q24 135 136.5 234.5t256.5 99.5q139 0 221 -99zM573 1382q-90 0 -169 -68.5t-95 -158.5q-4 -22 -4 -43
q0 -68 43 -116q56 -64 146 -64q94 0 171.5 63.5t94.5 159.5q4 20 4 40q0 66 -42 119q-55 68 -149 68zM1684 669q62 -77 62 -175q0 -29 -5 -60q-25 -143 -140.5 -238.5t-256.5 -95.5t-220 96q-61 72 -61 172q0 32 6 66q24 135 138 234.5t255 99.5t222 -99zM1439 662
q-90 0 -168.5 -69t-94.5 -159q-4 -23 -4 -43q0 -68 43 -116q55 -64 145 -64q96 0 173.5 63.5t94.5 159.5q4 20 4 40q0 66 -42 119q-55 69 -151 69z" />
    <glyph glyph-name="ampersand" unicode="&#x26;" 
d="M841 641l-53 -298l-114 3l66 379q8 31 37 31h453l-20 -115h-52q12 -46 12 -98q0 -42 -8 -88q-35 -197 -198.5 -336t-360.5 -139q-196 0 -311 139q-88 107 -88 247q0 43 8 89q34 196 198 338q82 67 170 102q-29 23 -53 51q-64 79 -64 182q0 32 6 66q25 143 144.5 244.5
t264.5 101.5q60 0 108 -16q69 -25 120 -84q44 -54 57 -119q8 -32 8 -66q0 -30 -6 -61q-9 -53 -32 -102h94l-19 -109h-194q-35 10 -35 40q0 5 1 11q6 37 34 58q31 47 41 102q4 22 4 43q0 69 -44 124q-58 71 -158 71q-98 0 -180 -71t-99 -167q-4 -24 -4 -46q0 -71 43 -124
q54 -66 142 -90q15 -19 15 -38q0 -5 -1 -9q-4 -23 -30 -47q-149 -25 -269 -127q-125 -109 -151 -258q-6 -35 -6 -68q0 -107 67 -188q88 -107 237 -107q152 0 277 106.5t152 256.5q6 35 6 69q0 57 -18 107q1 6 4 10h-201z" />
    <glyph glyph-name="quotesingle" unicode="'" horiz-adv-x="342" 
d="M336 1620h242l-167 -595h-119z" />
    <glyph glyph-name="parenleft" unicode="(" horiz-adv-x="566" 
d="M485 -176q-232 10 -301 266q-33 125 -33 291q0 187 42 427q80 453 244 719q158 255 395 265l-14 -83q-144 -17 -279 -240q-145 -239 -219 -661q-41 -231 -41 -407q0 -145 28 -253q55 -222 193 -239z" />
    <glyph glyph-name="parenright" unicode=")" horiz-adv-x="566" 
d="M34 -91q144 17 279 239q144 238 219 660q41 233 41 410q0 144 -27 251q-57 223 -195 240l15 83q234 -10 302 -265q33 -125 33 -291q0 -188 -42 -428q-80 -453 -245 -718q-159 -256 -395 -266z" />
    <glyph glyph-name="asterisk" unicode="*" horiz-adv-x="1014" 
d="M778 1032l-22 -307h-242l85 307l-292 -158l-64 219l243 79l-215 80l142 219l237 -159l22 308h242l-86 -308l293 159l64 -219l-243 -80l215 -79l-142 -219z" />
    <glyph glyph-name="plus" unicode="+" 
d="M554 602h-446v115h446v450l119 -2v-448h448v-115h-448v-446h-119v446z" />
    <glyph glyph-name="comma" unicode="," horiz-adv-x="383" 
d="M152 27q-29 8 -51 30q-41 41 -41 103q0 55 41 97t100 42q60 0 101 -42t41 -97q0 -58 -41 -128.5t-170 -203.5l-2 2l-70 78v4q57 59 92 115z" />
    <glyph glyph-name="hyphen" unicode="-" horiz-adv-x="718" 
d="M163 641l20 115h618l-20 -115h-618z" />
    <glyph glyph-name="hyphen" unicode="&#xad;" horiz-adv-x="718" 
d="M163 641l20 115h618l-20 -115h-618z" />
    <glyph glyph-name="period" unicode="." horiz-adv-x="383" 
d="M312 241q41 -42 41 -100q0 -59 -41 -100t-101 -41q-59 0 -100 41t-41 100q0 58 41 100t100 42q60 0 101 -42z" />
    <glyph glyph-name="slash" unicode="/" horiz-adv-x="600" 
d="M782 1645l102 -33l-775 -1626l-106 30z" />
    <glyph glyph-name="zero" unicode="0" 
d="M1117 848q22 156 22 277q0 407 -253 407q-325 0 -475 -684q-29 -184 -29 -321q0 -404 255 -404q342 0 480 725zM906 1657q353 0 353 -531q0 -125 -19 -278q-166 -852 -627 -852q-357 0 -357 506q0 150 32 346q180 809 618 809zM832.5 890q29.5 -30 29.5 -71
q0 -43 -29.5 -72.5t-72.5 -29.5t-72.5 29.5t-29.5 72.5q0 41 29.5 71t72.5 30t72.5 -30z" />
    <glyph glyph-name="one" unicode="1" 
d="M856 1258l-159 -1l344 363l-286 -1620h-121z" />
    <glyph glyph-name="two" unicode="2" 
d="M1064 119l-21 -119h-856q100 500 477 756q344 233 387 477q2 27 2 52q0 239 -210 239q-259 -15 -338 -408h-111q3 25 7 48q81 456 473 476q303 -6 303 -346q0 -31 -3 -65q-56 -283 -409 -531q-348 -247 -432 -579h731z" />
    <glyph glyph-name="three" unicode="3" 
d="M756 1110l-124 -137l-82 80l355 450h-364l20 119h502l46 -59l-279 -338h15q361 0 401 -278q6 -46 6 -94q0 -62 -11 -127q-33 -188 -162 -392q-208 -329 -517 -331q-2 -1 -4 -1q-307 0 -369 399l120 29q69 -297 273 -297q11 0 22 1q222 16 385 282q101 165 126 311
q9 51 9 101q0 36 -5 72q-32 210 -340 210h-23z" />
    <glyph glyph-name="four" unicode="4" 
d="M1040 1622h115l-184 -1047h246l-22 -124h-246l-80 -451h-121l80 451h-633zM850 575l143 811l-594 -811h451z" />
    <glyph glyph-name="five" unicode="5" 
d="M677 1501l-194 -379q769 -36 769 -321q0 -7 -1 -15q-3 -42 -11 -84q-44 -250 -245 -462q-229 -242 -486 -242h-12q-263 6 -272 629l131 22v-41q0 -421 159 -461q28 -8 57 -8q146 0 327 175q180 174 214 363q6 37 8 75v3q0 226 -660 246l-123 82l273 537h608l-20 -119
h-522z" />
    <glyph glyph-name="six" unicode="6" 
d="M469 376q-17 -47 -24 -85q-5 -27 -5 -49q0 -134 161 -134q18 0 38 2q272 23 355 311q8 32 14 61q6 33 6 62q0 145 -157 145q-16 0 -33 -2q-253 -22 -355 -311zM904 1630l65 -92q-459 -292 -580 -977q-12 -71 -21 -147q142 392 506 394h2q266 0 266 -224q0 -40 -8 -86
t-24 -100q-128 -412 -537 -417q-4 -1 -7 -1q-303 0 -303 373q0 103 23 234q4 23 9 48q132 659 609 995z" />
    <glyph glyph-name="seven" unicode="7" 
d="M1199 1503h-771l20 119h897q-5 -72 -17 -139q-45 -258 -436 -761t-429 -720h-129q45 256 432.5 751.5t432.5 749.5z" />
    <glyph glyph-name="eight" unicode="8" 
d="M334 551q-6 -53 -6 -99q0 -331 307 -331q350 0 459 430q10 69 10 127q0 321 -314 321q-367 0 -456 -448zM570 1319v-13q0 -161 248 -161q260 0 314 174q2 13 2 25q0 157 -253 157q-270 0 -311 -182zM1051 1069q185 -77 185 -355q0 -77 -14 -169q-138 -551 -609 -551
q-419 0 -419 443q0 51 6 108q89 426 361 526q-115 52 -115 215q0 14 1 29q67 303 454 303q352 0 352 -246q0 -27 -4 -57q-51 -189 -198 -246z" />
    <glyph glyph-name="nine" unicode="9" 
d="M1045 1234q16 47 23 85q5 27 5 49q0 134 -161 134q-18 0 -37 -2q-273 -23 -355 -311q-9 -32 -15 -61q-6 -33 -6 -62q0 -145 157 -145q16 0 34 2q252 22 355 311zM609 -20l-65 92q459 292 580 977q12 71 21 147q-142 -392 -505 -393q-2 -1 -3 -1q-266 0 -266 224
q0 40 8 86t24 101q128 411 538 417h6q303 0 303 -373q0 -103 -23 -234l-8 -47q-133 -660 -610 -996z" />
    <glyph glyph-name="colon" unicode=":" horiz-adv-x="383" 
d="M312 241q41 -42 41 -100q0 -59 -41 -100t-101 -41q-59 0 -100 41t-41 100q0 58 41 100t100 42q60 0 101 -42zM462 1041q41 -42 41 -100q0 -59 -41 -100t-101 -41q-59 0 -100 41t-41 100q0 58 41 100t100 42q60 0 101 -42z" />
    <glyph glyph-name="semicolon" unicode=";" horiz-adv-x="383" 
d="M462 1041q41 -42 41 -100q0 -59 -41 -100t-101 -41q-59 0 -100 41t-41 100q0 58 41 100t100 42q60 0 101 -42zM162 27q-29 8 -51 30q-41 41 -41 103q0 55 41 97t100 42q60 0 101 -42t41 -97q0 -58 -41 -128.5t-170 -203.5l-2 2l-70 78v4q57 59 92 115z" />
    <glyph glyph-name="semicolon" unicode="&#x37e;" horiz-adv-x="383" 
d="M462 1041q41 -42 41 -100q0 -59 -41 -100t-101 -41q-59 0 -100 41t-41 100q0 58 41 100t100 42q60 0 101 -42zM162 27q-29 8 -51 30q-41 41 -41 103q0 55 41 97t100 42q60 0 101 -42t41 -97q0 -58 -41 -128.5t-170 -203.5l-2 2l-70 78v4q57 59 92 115z" />
    <glyph glyph-name="less" unicode="&#x3c;" 
d="M36 657l1158 456v-123l-996 -378l996 -375v-123l-1158 457v86z" />
    <glyph glyph-name="equal" unicode="=" 
d="M110 860h1010v-115h-1010v115zM110 532h1010v-114h-1010v114z" />
    <glyph glyph-name="greater" unicode="&#x3e;" 
d="M1194 571l-1158 -457v123l996 375l-996 378v123l1158 -456v-86z" />
    <glyph glyph-name="question" unicode="?" horiz-adv-x="1028" 
d="M435 433q0 5 1 11l2 11q48 274 308 436q299 186 327 344q10 57 10 123q-35 213 -293 213h-33q-286 -15 -377 -346h-112q0 2 -1 4q95 434 489 459h51q344 0 400 -295v-23q0 -69 -10 -131q-37 -211 -341 -408q-258 -165 -296 -380l-3 -18h-122zM552 241q41 -42 41 -100
q0 -59 -41 -100t-101 -41q-59 0 -100 41t-41 100q0 58 41 100t100 42q60 0 101 -42z" />
    <glyph glyph-name="at" unicode="@" horiz-adv-x="1136" 
d="M850 623q71 69 71 217v10q-84 -57 -301 -57h-22q-205 0 -205 -91q0 -10 4 -24q55 -141 207 -141q2 0 6 2q160 2 240 84zM1082 396q3 -40 3 -74q0 -517 -506 -517h-4q-524 2 -524 910q0 43 2 90q2 817 516 837q432 0 459 -401v-297q2 -43 2 -80q0 -225 -92 -327
q-109 -119 -336 -119h-6q-238 2 -314 250q-2 16 -2 28q0 207 263 207h8l2 -2q248 0 366 66v217q-6 344 -346 344q-385 -12 -395 -737v-58q0 -803 397 -815h19q372 0 372 449v29h116z" />
    <glyph glyph-name="A" unicode="A" horiz-adv-x="1334" 
d="M508 596l-287 -596h-121l783 1622h140l211 -1622h-120l-78 596h-528zM563 711h458l-97 748z" />
    <glyph glyph-name="B" unicode="B" horiz-adv-x="1205" 
d="M150 0l286 1622l357 -2q373 0 373 -297q0 -29 -4 -61l-4 -19q-38 -217 -198 -305q234 -102 234 -374q0 -47 -7 -99q-97 -465 -639 -465h-398zM444 983h363q201 49 240 272q3 23 3 43q0 192 -254 205h-260zM292 119h299q416 0 481 366q5 38 5 73q0 300 -385 300h-270z" />
    <glyph glyph-name="C" unicode="C" horiz-adv-x="1323" 
d="M1263 1288q-22 248 -296 248q-489 -16 -611 -708l-2 -11q-26 -152 -26 -272q0 -436 341 -451q472 31 585 553h127q-139 -637 -731 -672q-452 10 -452 536q0 134 30 302l2 6q148 830 761 840q364 0 372 -370z" />
    <glyph glyph-name="D" unicode="D" horiz-adv-x="1237" 
d="M1150 805q19 116 19 213q0 487 -475 487h-158l-244 -1386h158q569 0 700 686zM486 0h-336l286 1622h336q529 -24 529 -573q0 -111 -22 -244q-147 -774 -793 -805z" />
    <glyph glyph-name="E" unicode="E" horiz-adv-x="1108" 
d="M436 1622h785l-21 -119h-662l-107 -606h464l-21 -119h-464l-116 -659h735l-21 -119h-858z" />
    <glyph glyph-name="F" unicode="F" horiz-adv-x="1008" 
d="M461 1622h783l-21 -119h-662l-107 -606h464l-21 -119h-464l-137 -778h-121z" />
    <glyph glyph-name="G" unicode="G" horiz-adv-x="1363" 
d="M667 -25q-452 10 -452 536q0 134 30 302l2 6q148 830 761 840q364 0 372 -370l-100 -1q-22 248 -296 248q-489 -16 -611 -708l-2 -11q-26 -152 -26 -272q0 -436 341 -451q448 29 576 522h-280l20 115h410q-167 -722 -745 -756z" />
    <glyph glyph-name="H" unicode="H" horiz-adv-x="1261" 
d="M461 1622h115l-130 -736h681l130 736h115l-286 -1622h-115l136 771h-681l-136 -771h-115z" />
    <glyph glyph-name="I" unicode="I" horiz-adv-x="515" 
d="M601 1622l-286 -1622h-115l286 1622h115z" />
    <glyph glyph-name="J" unicode="J" horiz-adv-x="562" 
d="M-206 -317q367 2 446 325l285 1614h123l-274 -1556q-89 -504 -602 -508z" />
    <glyph glyph-name="K" unicode="K" horiz-adv-x="1374" 
d="M1398 1622l-504 -556l380 -1066h-131l-343 962l-391 -430l-94 -532h-115l286 1622h115l-158 -895l813 895h142z" />
    <glyph glyph-name="L" unicode="L" horiz-adv-x="999" 
d="M265 1v-1h-115l286 1622h115l-266 -1506h659l-20 -115h-659z" />
    <glyph glyph-name="M" unicode="M" horiz-adv-x="1650" 
d="M1670 1616l1 6h115l-286 -1622h-115l247 1400l-634 -791l1 -3h-139l3 3l-352 783l-245 -1388h-115l286 1622h115l398 -909z" />
    <glyph glyph-name="N" unicode="N" horiz-adv-x="1333" 
d="M526 1622l611 -1371l242 1371h115l-286 -1622h-94l-629 1389l-245 -1389h-115l286 1622h115z" />
    <glyph glyph-name="O" unicode="O" horiz-adv-x="1415" 
d="M362 817q-24 -142 -24 -257q0 -462 387 -462q479 0 620 719q22 137 22 248q0 471 -388 471q-482 0 -617 -719zM229 817q176 842 774 842q493 0 493 -575q0 -121 -22 -267q-172 -840 -768 -840q-497 0 -497 581q0 118 20 259z" />
    <glyph glyph-name="P" unicode="P" horiz-adv-x="1110" 
d="M399 725l-128 -725h-121l286 1622h303q488 0 488 -344q0 -48 -10 -104q-79 -449 -644 -449h-174zM536 1505l-116 -659h172q447 0 505 328q7 38 7 72q0 259 -396 259h-172z" />
    <glyph glyph-name="Q" unicode="Q" horiz-adv-x="1415" 
d="M1042 62q-147 -85 -336 -85q-497 0 -497 581q0 118 20 259q176 842 774 842q493 0 493 -575q0 -121 -22 -267q-98 -475 -330 -682l113 -196l-103 -70zM983 163l-115 199l103 70l112 -193q183 177 262 578q22 137 22 248q0 471 -388 471q-482 0 -617 -719
q-24 -142 -24 -257q0 -462 387 -462q144 0 258 65z" />
    <glyph glyph-name="R" unicode="R" horiz-adv-x="1158" 
d="M607 846q432 0 490 328q7 38 7 72q0 259 -396 259h-172l-116 -659h187zM928 0l-252 729q-49 -4 -103 -4h-174l-128 -725h-121l286 1622h303q488 0 488 -344q0 -48 -10 -104q-62 -350 -417 -427l258 -747h-130z" />
    <glyph glyph-name="S" unicode="S" horiz-adv-x="1307" 
d="M1094 1334q-20 184 -229 213l-10 1q-19 3 -38 3q-70 0 -142 -34q-95 -52 -129 -154q-3 -10 -4 -19q-4 -21 -4 -40q0 -112 134 -145q164 -42 375.5 -102t263.5 -198q19 -47 19 -112q0 -47 -10 -103q-10 -57 -31 -124l-20 -62q-200 -464 -619 -464q-44 0 -91 5
q-367 54 -367 439q0 85 18 186q6 37 15 77h131q-10 -43 -17 -83q-16 -89 -16 -162q0 -304 271 -344q36 -4 69 -4q330 0 489 362q13 34 24 69q14 47 21 88t7 75q0 37 -8 67q-31 103 -134 143.5t-334.5 94.5t-290.5 142q-35 53 -35 123q0 27 5 57q3 20 9 41q44 141 177 230
q108 72 243 72q28 0 59 -3l17 -3q284 -38 284 -290q0 -20 -2 -42h-100z" />
    <glyph glyph-name="T" unicode="T" horiz-adv-x="1184" 
d="M915 1508l-266 -1508h-115l266 1508h-464l20 115h1044l-20 -115h-465z" />
    <glyph glyph-name="U" unicode="U" horiz-adv-x="1361" 
d="M704 121q410 4 485 426l189 1075h119l-194 -1102q-91 -516 -621 -520q-453 3 -453 380q0 65 13 140l194 1102h123l-189 -1075q-12 -65 -12 -121q0 -302 346 -305z" />
    <glyph glyph-name="V" unicode="V" horiz-adv-x="1417" 
d="M1451 1622h127q-230 -956 -874 -1653q-315 551 -315 1263q0 189 22 390h129q-16 -184 -16 -354q0 -635 217 -1090q483 578 710 1444z" />
    <glyph glyph-name="W" unicode="W" horiz-adv-x="2017" 
d="M1052 625q-63 287 -63 606q0 190 22 391h129q-16 -184 -16 -354q0 -635 217 -1090q483 578 710 1444h127q-230 -956 -874 -1653q-134 235 -212 500q-170 -264 -388 -500q-315 551 -315 1263q0 189 22 390h129q-16 -184 -16 -354q0 -635 217 -1090q172 205 311 447z" />
    <glyph glyph-name="X" unicode="X" horiz-adv-x="1196" 
d="M70 0l610 839l-293 783h131l249 -664l483 664h131l-570 -783l315 -839h-131l-270 720l-524 -720h-131z" />
    <glyph glyph-name="Y" unicode="Y" horiz-adv-x="1194" 
d="M798 822h1l-145 -822h-115l145 822h1l-6 17l-293 783h131l249 -664l483 664h131l-570 -783z" />
    <glyph glyph-name="Z" unicode="Z" horiz-adv-x="1260" 
d="M1137 1507h-771l20 115h958l-1028 -1507h864l-20 -115h-1052z" />
    <glyph glyph-name="bracketleft" unicode="[" horiz-adv-x="616" 
d="M840 1554h-395l-343 -1949h395l-21 -117h-516l385 2185h516z" />
    <glyph glyph-name="backslash" unicode="\" horiz-adv-x="600" 
d="M603 16l-117 -30l-202 1626l114 33z" />
    <glyph glyph-name="bracketright" unicode="]" horiz-adv-x="616" 
d="M345 1673h516l-385 -2185h-516l21 117h395l343 1949h-395z" />
    <glyph glyph-name="asciicircum" unicode="^" 
d="M664 1503l381 -699h-132l-299 550l-298 -550h-131l381 699h98z" />
    <glyph glyph-name="underscore" unicode="_" horiz-adv-x="1216" 
d="M-67 -47h1347v-115h-1347v115z" />
    <glyph glyph-name="grave" unicode="`" horiz-adv-x="425" 
d="M524 1428l-174 272h213l64 -271z" />
    <glyph glyph-name="a" unicode="a" horiz-adv-x="1145" 
d="M354 699q-8 -44 -16 -85q-21 -118 -21 -209q0 -304 231 -304h18q275 0 377 294l122 696q-152 59 -274 59q-337 0 -437 -451zM934 162q-162 -168 -389 -168q-337 0 -337 381q0 95 21 214q10 57 24 118q135 566 582 566q116 0 251 -46h125l-15 -87h2l-140 -792
q-3 -25 -3 -49q0 -139 92 -205l-99 -100q-95 75 -114 168z" />
    <glyph glyph-name="b" unicode="b" horiz-adv-x="1145" 
d="M1008 532q9 44 16 85q21 118 21 209q0 304 -231 304h-18q-275 0 -378 -294l-130 -724h410q226 0 310 420zM436 1624h121l-89 -508q122 123 349 123q338 0 338 -383q0 -94 -21 -212q-10 -57 -24 -118q-117 -527 -378 -527q-10 0 -20 1h-562z" />
    <glyph glyph-name="c" unicode="c" horiz-adv-x="1172" 
d="M727 1120q-162 0 -283 -206q-77 -131 -108 -306q-17 -100 -20 -214v-14q0 -292 281 -292h17q347 39 428 442l123 -1q-106 -525 -586 -552q-17 -1 -33 -1q-332 0 -356 327q-3 43 -3 85q0 106 18 207q32 180 122 345q159 293 450 293h25q228 0 314 -185l-94 -75
q-69 145 -243 149q-25 0 -52 -2z" />
    <glyph glyph-name="d" unicode="d" horiz-adv-x="1145" 
d="M325 532q-14 -93 -14 -165q0 -255 176 -255h410l125 724q0 294 -275 294h-18q-300 0 -390 -513q-7 -41 -14 -85zM995 0h-562q-10 -1 -20 -1q-206 0 -206 330q0 87 14 197q8 61 18 118q105 595 526 595q227 0 306 -123l90 508h121z" />
    <glyph glyph-name="e" unicode="e" horiz-adv-x="1124" 
d="M801 1137q-12 1 -23 1q-18 2 -36 2q-194 0 -348 -265q114 -6 207 -6q395 0 414 107l1 7v12q0 128 -215 142zM365 762q-16 -65 -28 -132q-22 -124 -22 -219q0 -324 252 -324q14 0 29 1q347 39 446 442h100q-135 -547 -614 -553q-326 18 -326 396v7q1 159 23 287
q32 181 108 301q180 288 464 288q24 0 49 -2q291 -24 291 -241q0 -19 -2 -39l-2 -11q-37 -207 -572 -207q-91 0 -196 6z" />
    <glyph glyph-name="f" unicode="f" horiz-adv-x="757" 
d="M295 1106l21 117h106l27 154q74 421 373 443h21q257 0 257 -285v-13l-117 -39v17q0 207 -167 207q-190 -10 -243 -309l-30 -175h303l-21 -117h-303l-264 -1497h-121l264 1497h-106z" />
    <glyph glyph-name="g" unicode="g" horiz-adv-x="1169" 
d="M354 699q-8 -44 -16 -85q-21 -118 -21 -209q0 -304 231 -304h18q275 0 377 294l122 696q-152 59 -274 59q-337 0 -437 -451zM993 9q-126 -381 -508 -390q-151 1 -236 75l111 76q55 -43 143 -44q285 8 376 310l16 81q-123 -123 -350 -123q-337 0 -337 381q0 95 21 214
q10 57 24 118q135 566 582 566q116 0 251 -46h124z" />
    <glyph glyph-name="h" unicode="h" horiz-adv-x="1200" 
d="M299 0h-119l286 1624h121l-89 -508q122 123 349 123q311 0 311 -326q0 -74 -16 -164l-132 -749h-118l129 729q15 89 15 157q0 244 -192 244h-18q-275 0 -380 -294z" />
    <glyph glyph-name="i" unicode="i" horiz-adv-x="611" 
d="M365 -3h-121l217 1228h121zM681.5 1712q29.5 -31 29.5 -74t-29.5 -73.5t-74.5 -30.5t-76 30.5t-31 73.5t31 74t76 31t74.5 -31z" />
    <glyph glyph-name="j" unicode="j" horiz-adv-x="622" 
d="M495 1225h121l-216 -1227q-71 -350 -439 -434l-15 127q268 43 333 307zM701.5 1712q29.5 -31 29.5 -74t-29.5 -73.5t-74.5 -30.5t-76 30.5t-31 73.5t31 74t76 31t74.5 -31z" />
    <glyph glyph-name="k" unicode="k" horiz-adv-x="1114" 
d="M382 627l-111 -627h-121l286 1622h121l-141 -799l529 576h142l-359 -414l312 -985h-148l-282 862z" />
    <glyph glyph-name="l" unicode="l" horiz-adv-x="521" 
d="M321 0h-121l286 1622h121z" />
    <glyph glyph-name="m" unicode="m" horiz-adv-x="1698" 
d="M1091 973l-172 -973h-123l154 874q6 34 6 64q0 173 -210 182h-16q-238 0 -339 -284l-147 -836h-119l216 1226h121l-19 -110q122 123 349 123q184 -23 234 -152q154 152 343 152h4q317 0 317 -343q0 -81 -17 -180q-6 -35 -14 -72l-114 -644h-118l109 617q5 22 9 44
q19 110 19 194q0 225 -138 260q-43 10 -81 10q-149 0 -254 -152z" />
    <glyph glyph-name="n" unicode="n" horiz-adv-x="1090" 
d="M244 0h-119l216 1226h121l-19 -110q122 123 349 123h5q311 0 311 -350q0 -86 -19 -193q-5 -25 -10 -52l-114 -644h-118l109 617q6 31 11 60q17 97 17 174q0 257 -195 279h-18q-275 0 -380 -294z" />
    <glyph glyph-name="o" unicode="o" horiz-adv-x="1092" 
d="M1005 629q11 88 11 161q0 353 -268 353q-324 0 -443 -514q-16 -104 -16 -188q0 -347 274 -347q338 0 442 535zM771 1272q369 0 369 -464q0 -80 -11 -173q-132 -660 -587 -660q-374 0 -374 439q0 99 19 221q150 637 584 637z" />
    <glyph glyph-name="p" unicode="p" horiz-adv-x="1120" 
d="M1037 699q9 68 9 126q0 325 -286 325q-122 0 -297 -59l-122 -696v-2q0 -292 274 -292h18q300 0 390 513q7 41 14 85zM366 1227h125q152 46 268 46q391 0 391 -433q0 -62 -8 -133q-8 -61 -18 -118q-105 -595 -526 -595q-227 0 -306 123l-90 -508h-121z" />
    <glyph glyph-name="q" unicode="q" horiz-adv-x="1145" 
d="M354 699q-8 -44 -16 -85q-21 -118 -21 -209q0 -304 231 -304h18q275 0 377 294l122 696q-152 59 -274 59q-337 0 -437 -451zM926 -391h-121l90 508q-123 -123 -350 -123q-337 0 -337 381q0 95 21 214q10 57 24 118q135 566 582 566q116 0 251 -46h125z" />
    <glyph glyph-name="r" unicode="r" horiz-adv-x="629" 
d="M245 0h-120l216 1225h120l-9 -51q46 40 142 62q34 7 74 7q68 0 151 -23l-66 -99q-51 15 -95 15q-57 0 -106 -24q-80 -33 -145 -192z" />
    <glyph glyph-name="s" unicode="s" horiz-adv-x="1053" 
d="M860 990q-10 140 -156 164l-7 2q-17 3 -33 3q-46 0 -94 -21q-67 -35 -93 -109q-3 -10 -5 -20q-2 -13 -2 -26q0 -76 92 -103q118 -35 280.5 -86.5t199.5 -164.5q12 -35 12 -80q0 -32 -6 -70q-9 -51 -30 -112l-16 -47q-162 -349 -476 -349q-43 0 -90 7q-279 50 -279 338
q0 62 13 135q5 29 12 59h131q-9 -36 -15 -68q-11 -62 -11 -114q0 -210 184 -244q31 -4 61 -4q229 0 352 258q10 25 20 52q14 41 20 76q5 28 5 51q0 24 -5 43q-20 76 -93 107.5t-249.5 79t-220.5 119.5q-26 41 -26 93q0 21 4 43q3 19 10 40q37 110 145 178q82 52 181 52
q29 0 61 -5l13 -2q217 -37 217 -233q0 -20 -2 -42h-104z" />
    <glyph glyph-name="t" unicode="t" horiz-adv-x="617" 
d="M583 1227h200l-21 -121h-200l-195 -1106h-119l195 1106h-198l21 121h198l50 280h119z" />
    <glyph glyph-name="u" unicode="u" horiz-adv-x="1140" 
d="M1087 1226h119l-216 -1226h-121l20 110q-123 -123 -350 -123q-308 0 -308 370q0 99 22 225l113 644h118l-108 -617q-24 -134 -24 -233q0 -280 190 -280h18q275 0 380 294z" />
    <glyph glyph-name="v" unicode="v" horiz-adv-x="1115" 
d="M1233 1234q-227 -845 -679 -1277q-254 443 -254 981q0 144 18 296l123 -3q-19 -161 -19 -309q0 -441 168 -760q372 426 514 1072h129z" />
    <glyph glyph-name="w" unicode="w" horiz-adv-x="1590" 
d="M818 477q-34 166 -34 397q0 164 17 360h119q-18 -163 -18 -312q0 -136 15 -260q13 -93 33 -179q45 -172 119 -321q372 426 508 1072h131q-222 -845 -675 -1277q-112 164 -177 369q-134 -205 -306 -369q-245 351 -245 976q0 143 13 301h119q-19 -162 -19 -310
q0 -443 168 -762q131 151 232 315z" />
    <glyph glyph-name="x" unicode="x" horiz-adv-x="1038" 
d="M563 613l-297 614h128l250 -517l432 517h128l-513 -614l297 -613h-129l-249 516l-431 -516h-129z" />
    <glyph glyph-name="y" unicode="y" horiz-adv-x="1090" 
d="M849 27l15 83q-123 -123 -350 -123q-308 0 -308 370q0 99 22 225l113 644h118l-108 -617q-24 -134 -24 -233q0 -280 190 -280h18q275 0 380 294l147 836h119l-216 -1226q-133 -372 -511 -381q-151 1 -236 75l111 76q55 -43 143 -44q281 8 374 301h3z" />
    <glyph glyph-name="z" unicode="z" horiz-adv-x="1100" 
d="M327 115h693l-20 -115h-881l759 1112h-582l20 115h769z" />
    <glyph glyph-name="braceleft" unicode="{" horiz-adv-x="730" 
d="M592 -500q-5 -2 -11 -4q-292 60 -292 341q0 47 8 100l52 292q1 19 1 38q0 214 -205 270l20 112q244 58 312 309l52 293q73 369 439 439l10 -4l-20 -112q-244 -68 -306 -323l-49 -276q-53 -270 -262 -381q136 -89 136 -282q0 -46 -8 -99l-49 -276q-3 -29 -3 -56
q0 -210 195 -267z" />
    <glyph glyph-name="bar" unicode="|" horiz-adv-x="215" 
d="M165 1643v-2088h-115v2088h115z" />
    <glyph glyph-name="braceright" unicode="}" horiz-adv-x="730" 
d="M-18 -386q243 64 306 323l49 276q53 270 262 381q-136 89 -136 280q0 48 8 101l49 276q3 29 3 55q0 208 -195 268l19 112q6 2 11 4q293 -60 293 -340q0 -46 -8 -99l-52 -293q-2 -21 -2 -40q0 -216 206 -269l-20 -112q-245 -61 -312 -308l-52 -292q-73 -371 -440 -441
q-4 2 -9 4z" />
    <glyph glyph-name="asciitilde" unicode="~" 
d="M148 853q103 148 250 148q105 0 234 -77q143 -88 239 -88q94 0 137 93l74 -84q-100 -136 -239 -136q-105 0 -234 79q-143 86 -240 86q-102 0 -144 -108z" />
    <glyph glyph-name="exclamdown" unicode="&#xa1;" horiz-adv-x="383" 
d="M270 787h121l-220 -1245h-121zM291 986q-41 42 -41 100q0 59 41 100t101 41q59 0 100 -41t41 -100q0 -58 -41 -100t-100 -42q-60 0 -101 42z" />
    <glyph glyph-name="cent" unicode="&#xa2;" 
d="M390 53q-145 75 -174 269q-5 47 -5 95q0 75 13 153q35 196 157 391q213 301 534 301h6q24 -1 46 -5l98 206l102 -33l-98 -205q88 -46 125 -148l-94 -75q-26 73 -84 112l-470 -986q48 -11 107 -11q346 39 427 442l123 -1q-106 -525 -586 -552q-67 0 -124 12l-102 -214
l-105 30zM916 1151q-25 0 -51 -2q-162 0 -316 -157q-148 -150 -192 -400q-10 -61 -16 -127q-1 -15 -1 -30q0 -186 107 -263z" />
    <glyph glyph-name="sterling" unicode="&#xa3;" horiz-adv-x="1049" 
d="M375 543h-171l20 115h126q-18 71 -46 151q-48 133 -48 250q0 47 8 91q30 173 181 305q202 176 390 176q76 0 149 -28q219 -86 219 -332q0 -38 -5 -81h-124q5 36 5 69q0 185 -166 235q-47 14 -94 14q-148 0 -296 -141q-97 -93 -119 -218q-6 -37 -6 -76q0 -95 37 -207
q38 -114 59 -208h498l-20 -115h-457q6 -49 6 -91q0 -34 -4 -63l-3 -13q-24 -135 -126 -260h556l-20 -115h-659v-1h-105l25 24h-6l-4 38q86 60 163 181q29 45 40 107q6 37 6 80q0 52 -9 113z" />
    <glyph glyph-name="currency" unicode="&#xa4;" horiz-adv-x="759" 
d="M378 1182q-90 0 -157 -68.5t-67 -158.5q0 -96 67 -159.5t157 -63.5q94 0 160.5 63.5t66.5 159.5q0 90 -66.5 158.5t-160.5 68.5zM650 754l87 -87l-81 -81l-90 90q-83 -55 -188 -55q-107 0 -187 53l-88 -88l-81 81l86 86q-64 85 -64 202q0 104 56 187l-78 78l81 81l76 -76
q84 64 199 64q113 0 200 -66l78 78l81 -81l-79 -79q58 -83 58 -186q0 -116 -66 -201z" />
    <glyph glyph-name="yen" unicode="&#xa5;" horiz-adv-x="1194" 
d="M734 451l-80 -451h-115l80 451h-406l20 115h406l31 172h-406l20 115h390l-288 769h131l249 -664l483 664h131l-559 -769h410l-20 -115h-426l-31 -172h426l-20 -115h-426z" />
    <glyph glyph-name="brokenbar" unicode="&#xa6;" horiz-adv-x="215" 
d="M165 1624v-897h-115v897h115zM165 506v-897h-115v897h115z" />
    <glyph glyph-name="section" unicode="&#xa7;" horiz-adv-x="1278" 
d="M958 171q150 88 244 299q13 34 23 69q14 47 21 88t7 75q0 37 -8 67q-30 103 -133.5 143.5t-335.5 94.5q-155 36 -233 88q-150 -87 -244 -299q-13 -34 -23 -69q-14 -47 -22 -88q-7 -41 -7 -75q0 -37 8 -67q31 -103 134.5 -143.5t334.5 -94.5q156 -36 234 -88zM470 1179
q-19 42 -19 94q0 27 5 56q4 20 9 41q44 141 177 230q109 72 244 72q28 0 58 -3l18 -3q283 -38 283 -290q0 -20 -2 -42h-100q-20 184 -228 213l-10 1q-20 3 -39 3q-70 0 -142 -34q-95 -52 -129 -154q-3 -10 -4 -19q-4 -21 -4 -40q0 -112 134 -145q165 -42 376.5 -102
t262.5 -198q19 -47 19 -112q0 -47 -10 -103q-10 -57 -31 -124l-19 -62q-111 -256 -288 -371q19 -42 19 -94q0 -27 -5 -56q-4 -20 -10 -41q-43 -141 -176 -230q-109 -72 -244 -72q-28 0 -58 3l-18 3q-283 38 -283 288q0 21 2 44h100q19 -184 228 -213l10 -1q20 -3 39 -3
q70 0 142 34q95 52 129 154q2 10 4 19q4 21 4 40q0 112 -134 145q-165 42 -376.5 102t-262.5 198q-19 48 -19 114q0 46 9 101q11 57 31 124l20 62q110 256 288 371z" />
    <glyph glyph-name="dieresis" unicode="&#xa8;" horiz-adv-x="569" 
d="M484 1576q29 -28 29 -67q0 -36 -29 -63t-70 -27q-37 0 -65.5 27t-28.5 63q0 39 28.5 67t65.5 28q41 0 70 -28zM760.5 1576q28.5 -28 28.5 -67q0 -36 -28.5 -63t-67.5 -27q-41 0 -69 27t-28 63q0 39 28 67t69 28q39 0 67.5 -28z" />
    <glyph glyph-name="copyright" unicode="&#xa9;" horiz-adv-x="1827" 
d="M163 816q13 -725 747 -725q731 0 752 725q-21 725 -752 725q-734 0 -747 -725zM50 815q38 818 866 818q826 0 860 -818q-34 -815 -860 -815q-828 0 -866 815zM868 1235q-132 0 -202 -168q-43 -106 -43 -248q0 -81 14 -174q38 -248 273 -248h13q277 32 284 358h100
q-11 -426 -397 -448q-13 -1 -26 -1q-270 0 -335 265q-31 124 -31 238q0 145 50 280q87 238 323 238h20q186 0 282 -151l-66 -61q-76 119 -219 122q-20 0 -40 -2z" />
    <glyph glyph-name="ordfeminine" unicode="&#xaa;" horiz-adv-x="884" 
d="M466 1138q-2 -15 -2 -29q0 -144 168 -144h178l33 190q-1 162 -169 162q-178 -5 -205 -159q-2 -10 -3 -20zM900 855h-281q-268 0 -268 217q0 28 4 59l3 17q47 265 331 265q157 0 192 -48v19q0 153 -165 158q-55 -1 -106 -30l-80 65q98 60 203 61q262 -5 262 -245v-4z
M269 729h674l-20 -115h-674z" />
    <glyph glyph-name="guillemotleft" unicode="&#xab;" horiz-adv-x="933" 
d="M883 0h-129l-296 613l513 614h128l-513 -614zM583 0h-129l-296 613l513 614h128l-513 -614z" />
    <glyph glyph-name="logicalnot" unicode="&#xac;" 
d="M1002 602h-894v115h1013v-561h-119v446z" />
    <glyph glyph-name="registered" unicode="&#xae;" horiz-adv-x="1826" 
d="M855 770q351 0 351 265q0 270 -363 270h-139v-535h151zM1297 162q351 156 365 654q-21 725 -752 725q-734 0 -747 -725q10 -552 439 -684v1267h246q452 0 452 -364q0 -284 -277 -346zM701 109q96 -18 209 -18q168 0 299 38l-285 545q-39 -3 -82 -3h-141v-562zM50 815
q38 818 866 818q826 0 860 -818q-34 -815 -860 -815q-828 0 -866 815z" />
    <glyph glyph-name="macron" unicode="&#xaf;" horiz-adv-x="710" 
d="M335 1618h609q1 0 1 -1l-20 -113q0 -1 -1 -1h-609z" />
    <glyph glyph-name="degree" unicode="&#xb0;" horiz-adv-x="524" 
d="M411.5 1657.5q62.5 -62.5 62.5 -148.5q0 -90 -62.5 -150.5t-150.5 -60.5q-90 0 -150.5 60.5t-60.5 150.5q0 86 60.5 148.5t150.5 62.5q88 0 150.5 -62.5zM261 1608q-39 0 -67.5 -30t-28.5 -69q0 -41 28.5 -68.5t67.5 -27.5q41 0 69.5 27.5t28.5 68.5q0 39 -28.5 69
t-69.5 30z" />
    <glyph glyph-name="plusminus" unicode="&#xb1;" 
d="M673 602v-446h-119v446h-446v115h446v450l119 -2v-448h448v-115h-448z" />
    <glyph glyph-name="uni00B2" unicode="&#xb2;" horiz-adv-x="899" 
d="M883 727l-20 -111h-609q67 329 319 488q212 134 236 271q1 12 1 24q0 131 -116 131q-143 -7 -191 -244h-123q4 34 7 48q51 293 333 306q222 -5 222 -232q0 -17 -1 -34q-36 -179 -272 -334q-216 -142 -260 -313h474z" />
    <glyph glyph-name="uni00B3" unicode="&#xb3;" horiz-adv-x="899" 
d="M656 1275l-90 -94l-86 76l214 254h-220l18 111h364l46 -53l-162 -185q220 0 252 -182q5 -30 5 -62q0 -37 -7 -76q-21 -116 -106 -244q-140 -208 -351 -209q-2 -1 -10 -1q-219 0 -269 273l128 28q49 -182 163 -182h12q127 9 222 156q63 96 78 180q5 28 5 54q0 23 -4 45
q-21 111 -201 111h-1z" />
    <glyph glyph-name="acute" unicode="&#xb4;" horiz-adv-x="425" 
d="M302 1429l160 271h213l-270 -272z" />
    <glyph glyph-name="mu" unicode="&#xb5;" horiz-adv-x="1140" 
d="M360 504q-8 -69 -8 -127q0 -281 190 -281h18q275 0 380 294l147 836h119l-216 -1226h-121l19 110q-122 -123 -349 -123q-173 0 -250 117l-87 -495h-121l285 1617h118l-85 -482l3 2z" />
    <glyph glyph-name="paragraph" unicode="&#xb6;" horiz-adv-x="1110" 
d="M776 0h-115v726q-511 21 -511 448q0 448 557 448h303v-1622h-121v1505h-113v-1505z" />
    <glyph glyph-name="periodcentered" unicode="&#xb7;" 
d="M885 1091q41 -42 41 -100q0 -59 -41 -100t-101 -41q-59 0 -100 41t-41 100q0 58 41 100t100 42q60 0 101 -42z" />
    <glyph glyph-name="periodcentered" unicode="&#x2219;" 
d="M885 1091q41 -42 41 -100q0 -59 -41 -100t-101 -41q-59 0 -100 41t-41 100q0 58 41 100t100 42q60 0 101 -42z" />
    <glyph glyph-name="cedilla" unicode="&#xb8;" horiz-adv-x="426" 
d="M47 -294q38 -17 69 -17h13q42 4 71 47q14 18 17 37q1 6 1 11q0 9 -2 17q-6 35 -40 52q-32 16 -49 22l93 159l42 -4l-19 -89q84 -31 96 -107q1 -11 1 -21q0 -18 -3 -34q-8 -47 -43 -90q-65 -82 -158 -88q-13 -2 -23 -2q-69 0 -127 38z" />
    <glyph glyph-name="uni00B9" unicode="&#xb9;" horiz-adv-x="899" 
d="M687 1363l-125 -1l310 306l-187 -1060h-131z" />
    <glyph glyph-name="ordmasculine" unicode="&#xba;" horiz-adv-x="824" 
d="M859 1236q6 46 6 85q0 208 -168 208q-199 0 -268 -293q-8 -55 -8 -100q0 -205 171 -205q207 0 267 305zM717 1638q262 0 262 -303q0 -44 -6 -95q-84 -412 -399 -412q-266 0 -266 286q0 57 11 126q96 398 398 398zM219 729h674l-20 -115h-674z" />
    <glyph glyph-name="guillemotright" unicode="&#xbb;" horiz-adv-x="933" 
d="M563 613l-297 614h128l297 -614l-512 -613h-129zM863 613l-297 614h128l297 -614l-512 -613h-129z" />
    <glyph glyph-name="onequarter" unicode="&#xbc;" horiz-adv-x="1246" 
d="M1118 1013h117l-111 -628h160l-20 -115h-160l-48 -270h-130l48 270h-426zM994 385l67 376l-294 -376h227zM396 1363l-125 -1l309 306l-186 -1060h-131zM1324 1542l81 -65l-1222 -1389l-85 63z" />
    <glyph glyph-name="onehalf" unicode="&#xbd;" horiz-adv-x="1531" 
d="M1403 1013h117l-111 -628h160l-20 -115h-160l-48 -270h-130l48 270h-426zM1279 385l67 376l-294 -376h227zM1609 1542l81 -65l-1222 -1389l-85 63zM768 727l-20 -111h-609q67 329 319 488q212 134 236 271q1 12 1 24q0 131 -116 131q-143 -7 -191 -244h-123q4 34 7 48
q51 293 333 306q222 -5 222 -232q0 -17 -1 -34q-36 -179 -272 -334q-216 -142 -260 -313h474z" />
    <glyph glyph-name="threequarters" unicode="&#xbe;" horiz-adv-x="1478" 
d="M1350 1013h117l-111 -628h160l-20 -115h-160l-48 -270h-130l48 270h-426zM1226 385l66 376l-293 -376h227zM1556 1542l81 -65l-1222 -1389l-85 63zM588 1275l-90 -94l-86 76l214 254h-220l18 111h364l46 -53l-162 -185q220 0 252 -182q5 -30 5 -62q0 -37 -7 -76
q-21 -116 -106 -244q-140 -208 -351 -209q-2 -1 -10 -1q-219 0 -269 273l128 28q49 -182 163 -182h12q127 9 222 156q63 96 78 180q5 28 5 54q0 23 -4 45q-21 111 -201 111h-1z" />
    <glyph glyph-name="questiondown" unicode="&#xbf;" horiz-adv-x="1028" 
d="M810 792q0 -5 -1 -11l-2 -11q-48 -274 -309 -436q-299 -186 -327 -344q-9 -52 -9 -111v-12q34 -213 292 -213h33q287 15 377 346h112q1 -2 1 -4q-94 -434 -488 -459h-51q-344 0 -400 295q-1 15 -1 30q0 66 11 124q37 211 341 408q258 165 296 380l3 18h122zM702 994
q-40 41 -40 96q0 57 40 97t97 40t97 -40t40 -97q0 -55 -40 -96t-97 -41t-97 41z" />
    <glyph glyph-name="Agrave" unicode="&#xc0;" horiz-adv-x="1434" 
d="M558 596l-287 -596h-121l783 1622h140l211 -1622h-120l-78 596h-528zM613 711h458l-97 748zM1043 1823l-174 272h213l65 -271z" />
    <glyph glyph-name="Aacute" unicode="&#xc1;" horiz-adv-x="1434" 
d="M558 596l-287 -596h-121l783 1622h140l211 -1622h-120l-78 596h-528zM613 711h458l-97 748zM931 1824l159 271h213l-270 -272z" />
    <glyph glyph-name="Acircumflex" unicode="&#xc2;" horiz-adv-x="1434" 
d="M558 596l-287 -596h-121l783 1622h140l211 -1622h-120l-78 596h-528zM613 711h458l-97 748zM1273 1779l-213 179l-269 -173l-64 82v1l360 223l277 -223q1 -2 1 -4t-1 -4z" />
    <glyph glyph-name="Atilde" unicode="&#xc3;" horiz-adv-x="1434" 
d="M558 596l-287 -596h-121l783 1622h140l211 -1622h-120l-78 596h-528zM613 711h458l-97 748zM760 1898q103 103 186 103h10q48 -4 120.5 -39.5t112.5 -38.5h4q39 0 106 56l44 -83q-88 -77 -161 -77h-11q-51 4 -124 40.5t-109 39.5h-8q-65 0 -128 -73h-4z" />
    <glyph glyph-name="Adieresis" unicode="&#xc4;" horiz-adv-x="1434" 
d="M558 596l-287 -596h-121l783 1622h140l211 -1622h-120l-78 596h-528zM613 711h458l-97 748zM984 1966q29 -28 29 -67q0 -36 -29 -63t-70 -27q-37 0 -65.5 27t-28.5 63q0 39 28.5 67t65.5 28q41 0 70 -28zM1260.5 1966q28.5 -28 28.5 -67q0 -36 -28.5 -63t-67.5 -27
q-41 0 -69 27t-28 63q0 39 28 67t69 28q39 0 67.5 -28z" />
    <glyph glyph-name="Aring" unicode="&#xc5;" horiz-adv-x="1434" 
d="M558 596l-287 -596h-121l783 1622h140l211 -1622h-120l-78 596h-528zM613 711h458l-97 748zM1211.5 2052.5q62.5 -62.5 62.5 -148.5q0 -90 -62.5 -150.5t-150.5 -60.5q-90 0 -150.5 60.5t-60.5 150.5q0 86 60.5 148.5t150.5 62.5q88 0 150.5 -62.5zM1061 2003
q-39 0 -67.5 -30t-28.5 -69q0 -41 28.5 -68.5t67.5 -27.5q41 0 69.5 27.5t28.5 68.5q0 39 -28.5 69t-69.5 30z" />
    <glyph glyph-name="AE" unicode="&#xc6;" horiz-adv-x="1753" 
d="M1016 1541l-403 -830h256zM1031 1621v1h785l-21 -119h-662l-107 -606h464l-21 -119h-464l-116 -659h735l-21 -119h-859l105 596h-291l-287 -596h-121l783 1622h97z" />
    <glyph glyph-name="Ccedilla" unicode="&#xc7;" horiz-adv-x="1323" 
d="M649 -25q-451 11 -451 536q0 134 30 302l1 6q149 830 761 840q364 0 373 -370l-100 -1q-22 248 -296 248q-489 -16 -611 -708l-2 -11q-26 -152 -26 -272q0 -436 341 -451q472 31 585 553h127q-131 -601 -666 -666l-9 -40q84 -31 96 -107q1 -11 1 -21q0 -18 -3 -34
q-8 -47 -43 -90q-65 -82 -158 -88q-13 -2 -23 -2q-69 0 -127 38l61 69q38 -17 69 -17h13q42 4 71 47q14 18 17 37q1 6 1 11q0 9 -2 17q-6 35 -40 52q-32 16 -49 22z" />
    <glyph glyph-name="Egrave" unicode="&#xc8;" horiz-adv-x="1108" 
d="M436 1622h785l-21 -119h-662l-107 -606h464l-21 -119h-464l-116 -659h735l-21 -119h-858zM905 1823l-174 272h213l65 -271z" />
    <glyph glyph-name="Eacute" unicode="&#xc9;" horiz-adv-x="1108" 
d="M436 1622h785l-21 -119h-662l-107 -606h464l-21 -119h-464l-116 -659h735l-21 -119h-858zM793 1824l159 271h213l-270 -272z" />
    <glyph glyph-name="Ecircumflex" unicode="&#xca;" horiz-adv-x="1108" 
d="M436 1622h785l-21 -119h-662l-107 -606h464l-21 -119h-464l-116 -659h735l-21 -119h-858zM1135 1779l-213 179l-269 -173l-64 82v1l360 223l277 -223q1 -2 1 -4t-1 -4z" />
    <glyph glyph-name="Edieresis" unicode="&#xcb;" horiz-adv-x="1108" 
d="M436 1622h785l-21 -119h-662l-107 -606h464l-21 -119h-464l-116 -659h735l-21 -119h-858zM854 1966q29 -28 29 -67q0 -36 -29 -63t-70 -27q-37 0 -65.5 27t-28.5 63q0 39 28.5 67t65.5 28q41 0 70 -28zM1130.5 1966q28.5 -28 28.5 -67q0 -36 -28.5 -63t-67.5 -27
q-41 0 -69 27t-28 63q0 39 28 67t69 28q39 0 67.5 -28z" />
    <glyph glyph-name="Igrave" unicode="&#xcc;" horiz-adv-x="515" 
d="M601 1622l-286 -1622h-115l286 1622h115zM584 1823l-174 272h213l65 -271z" />
    <glyph glyph-name="Iacute" unicode="&#xcd;" horiz-adv-x="515" 
d="M601 1622l-286 -1622h-115l286 1622h115zM471 1824l159 271h213l-270 -272z" />
    <glyph glyph-name="Icircumflex" unicode="&#xce;" horiz-adv-x="515" 
d="M602 1622l-286 -1622h-115l286 1622h115zM814 1779l-213 179l-269 -173l-64 82v1l360 223l277 -223q1 -2 1 -4t-1 -4z" />
    <glyph glyph-name="Idieresis" unicode="&#xcf;" horiz-adv-x="515" 
d="M601 1622l-286 -1622h-115l286 1622h115zM534 1966q29 -28 29 -67q0 -36 -29 -63t-70 -27q-37 0 -65.5 27t-28.5 63q0 39 28.5 67t65.5 28q41 0 70 -28zM810.5 1966q28.5 -28 28.5 -67q0 -36 -28.5 -63t-67.5 -27q-41 0 -69 27t-28 63q0 39 28 67t69 28q39 0 67.5 -28z
" />
    <glyph glyph-name="Eth" unicode="&#xd0;" horiz-adv-x="1237" 
d="M303 869l133 753h336q529 -24 529 -573q0 -111 -22 -244q-146 -774 -793 -805h-336l133 754h-140l20 115h140zM424 869h486l-20 -115h-486l-112 -635h158q569 0 700 686q19 116 19 213q0 487 -475 487h-158z" />
    <glyph glyph-name="Ntilde" unicode="&#xd1;" horiz-adv-x="1333" 
d="M526 1622l611 -1371l242 1371h115l-286 -1622h-94l-629 1389l-245 -1389h-115l286 1622h115zM710 1898q103 103 186 103h10q48 -4 120.5 -39.5t112.5 -38.5h4q39 0 106 56l44 -83q-88 -77 -161 -77h-11q-51 4 -124 40.5t-109 39.5h-8q-65 0 -128 -73h-4z" />
    <glyph glyph-name="Ograve" unicode="&#xd2;" horiz-adv-x="1415" 
d="M362 817q-24 -142 -24 -257q0 -462 387 -462q479 0 620 719q22 137 22 248q0 471 -388 471q-482 0 -617 -719zM229 817q176 842 774 842q493 0 493 -575q0 -121 -22 -267q-172 -840 -768 -840q-497 0 -497 581q0 118 20 259zM1034 1823l-174 272h213l65 -271z" />
    <glyph glyph-name="Oacute" unicode="&#xd3;" horiz-adv-x="1415" 
d="M362 817q-24 -142 -24 -257q0 -462 387 -462q479 0 620 719q22 137 22 248q0 471 -388 471q-482 0 -617 -719zM229 817q176 842 774 842q493 0 493 -575q0 -121 -22 -267q-172 -840 -768 -840q-497 0 -497 581q0 118 20 259zM921 1824l159 271h213l-270 -272z" />
    <glyph glyph-name="Ocircumflex" unicode="&#xd4;" horiz-adv-x="1415" 
d="M362 817q-24 -142 -24 -257q0 -462 387 -462q479 0 620 719q22 137 22 248q0 471 -388 471q-482 0 -617 -719zM229 817q176 842 774 842q493 0 493 -575q0 -121 -22 -267q-172 -840 -768 -840q-497 0 -497 581q0 118 20 259zM1264 1779l-213 179l-269 -173l-64 82v1
l360 223l277 -223q1 -2 1 -4t-1 -4z" />
    <glyph glyph-name="Otilde" unicode="&#xd5;" horiz-adv-x="1415" 
d="M362 817q-24 -142 -24 -257q0 -462 387 -462q479 0 620 719q22 137 22 248q0 471 -388 471q-482 0 -617 -719zM229 817q176 842 774 842q493 0 493 -575q0 -121 -22 -267q-172 -840 -768 -840q-497 0 -497 581q0 118 20 259zM751 1898q103 103 186 103h10
q48 -4 120.5 -39.5t112.5 -38.5h4q39 0 106 56l44 -83q-88 -77 -161 -77h-11q-51 4 -124 40.5t-109 39.5h-8q-65 0 -128 -73h-4z" />
    <glyph glyph-name="Odieresis" unicode="&#xd6;" horiz-adv-x="1415" 
d="M362 817q-24 -142 -24 -257q0 -462 387 -462q479 0 620 719q22 137 22 248q0 471 -388 471q-482 0 -617 -719zM229 817q176 842 774 842q493 0 493 -575q0 -121 -22 -267q-172 -840 -768 -840q-497 0 -497 581q0 118 20 259zM984 1966q29 -28 29 -67q0 -36 -29 -63
t-70 -27q-37 0 -65.5 27t-28.5 63q0 39 28.5 67t65.5 28q41 0 70 -28zM1260.5 1966q28.5 -28 28.5 -67q0 -36 -28.5 -63t-67.5 -27q-41 0 -69 27t-28 63q0 39 28 67t69 28q39 0 67.5 -28z" />
    <glyph glyph-name="multiply" unicode="&#xd7;" 
d="M615 577l-316 -316l-81 82l315 315l-318 318l86 83l316 -317l317 317l81 -81l-316 -317l315 -316l-84 -84z" />
    <glyph glyph-name="Oslash" unicode="&#xd8;" horiz-adv-x="1415" 
d="M414 51q-205 133 -205 507q0 117 20 259q176 842 774 842q95 0 171 -21l60 125l119 -38l-65 -137q208 -131 208 -504q0 -121 -22 -267q-172 -840 -768 -840q-98 0 -176 22l-79 -166l-124 35zM1227 1461l-641 -1344q62 -19 139 -19q479 0 620 719q22 138 22 249
q0 282 -140 395zM474 175l643 1343q-62 18 -138 18q-482 0 -617 -719q-24 -142 -24 -256q0 -274 136 -386z" />
    <glyph glyph-name="Ugrave" unicode="&#xd9;" horiz-adv-x="1361" 
d="M704 121q410 4 485 426l189 1075h119l-194 -1102q-91 -516 -621 -520q-453 3 -453 380q0 65 13 140l194 1102h123l-189 -1075q-12 -65 -12 -121q0 -302 346 -305zM1008 1823l-174 272h213l64 -271z" />
    <glyph glyph-name="Uacute" unicode="&#xda;" horiz-adv-x="1361" 
d="M704 121q410 4 485 426l189 1075h119l-194 -1102q-91 -516 -621 -520q-453 3 -453 380q0 65 13 140l194 1102h123l-189 -1075q-12 -65 -12 -121q0 -302 346 -305zM894 1824l160 271h213l-270 -272z" />
    <glyph glyph-name="Ucircumflex" unicode="&#xdb;" horiz-adv-x="1361" 
d="M704 121q410 4 485 426l189 1075h119l-194 -1102q-91 -516 -621 -520q-453 3 -453 380q0 65 13 140l194 1102h123l-189 -1075q-12 -65 -12 -121q0 -302 346 -305zM1237 1779l-212 179l-270 -173l-64 82l1 1l359 223l278 -223q0 -4 -1 -8z" />
    <glyph glyph-name="Udieresis" unicode="&#xdc;" horiz-adv-x="1361" 
d="M704 121q410 4 485 426l189 1075h119l-194 -1102q-91 -516 -621 -520q-453 3 -453 380q0 65 13 140l194 1102h123l-189 -1075q-12 -65 -12 -121q0 -302 346 -305zM954 1966q29 -28 29 -67q0 -36 -29 -63t-70 -27q-37 0 -65.5 27t-28.5 63q0 39 28.5 67t65.5 28
q41 0 70 -28zM1230.5 1966q28.5 -28 28.5 -67q0 -36 -28.5 -63t-67.5 -27q-41 0 -69 27t-28 63q0 39 28 67t69 28q39 0 67.5 -28z" />
    <glyph glyph-name="Yacute" unicode="&#xdd;" horiz-adv-x="1194" 
d="M798 822h1l-145 -822h-115l145 822h1l-6 17l-293 783h131l249 -664l483 664h131l-570 -783zM811 1824l159 271h213l-270 -272z" />
    <glyph glyph-name="Thorn" unicode="&#xde;" horiz-adv-x="1110" 
d="M468 1115l-117 -659h172q447 0 505 328q7 39 7 73q0 258 -395 258h-172zM483 1232h187q488 0 488 -344q0 -48 -10 -104q-79 -449 -644 -449h-174l-59 -335h-121l287 1626h116z" />
    <glyph glyph-name="germandbls" unicode="&#xdf;" horiz-adv-x="1003" 
d="M301 122q85 -29 163 -29q114 0 214 61q169 101 205 301q6 34 6 66q0 108 -67 192q-84 102 -224 127q-14 19 -14 38q0 5 1 9q4 24 30 47q96 24 175.5 92t107.5 228q7 40 7 75q0 82 -40 132q-57 71 -155 71q-100 0 -182.5 -71t-108.5 -219l-218 -1238h-110l216 1224
q23 134 58 193q36 65 99 119q72 59 150 84q53 16 113 16q145 0 229 -101q60 -73 60 -188q0 -45 -9 -97q-41 -235 -227 -359q76 -35 134 -102q88 -109 88 -251q0 -42 -8 -87q-44 -247 -252 -381q-137 -88 -313 -88q-92 0 -195 24z" />
    <glyph glyph-name="agrave" unicode="&#xe0;" horiz-adv-x="1022" 
d="M763 1428l-174 272h213l64 -271zM284 699q-8 -44 -16 -85q-21 -118 -21 -209q0 -304 231 -304h18q275 0 377 294l122 696q-152 59 -274 59q-337 0 -437 -451zM864 162q-162 -168 -389 -168q-337 0 -337 381q0 95 21 214q10 57 24 118q135 566 582 566q116 0 251 -46h125
l-15 -87h2l-140 -792q-3 -25 -3 -49q0 -139 92 -205l-99 -100q-95 75 -114 168z" />
    <glyph glyph-name="aacute" unicode="&#xe1;" horiz-adv-x="1022" 
d="M650 1429l160 271h213l-270 -272zM284 699q-8 -44 -16 -85q-21 -118 -21 -209q0 -304 231 -304h18q275 0 377 294l122 696q-152 59 -274 59q-337 0 -437 -451zM864 162q-162 -168 -389 -168q-337 0 -337 381q0 95 21 214q10 57 24 118q135 566 582 566q116 0 251 -46h125
l-15 -87h2l-140 -792q-3 -25 -3 -49q0 -139 92 -205l-99 -100q-95 75 -114 168z" />
    <glyph glyph-name="acircumflex" unicode="&#xe2;" horiz-adv-x="1022" 
d="M992 1384l-212 179l-270 -173l-63 82v1l359 223l278 -223q0 -4 -1 -8zM284 699q-8 -44 -16 -85q-21 -118 -21 -209q0 -304 231 -304h18q275 0 377 294l122 696q-152 59 -274 59q-337 0 -437 -451zM864 162q-162 -168 -389 -168q-337 0 -337 381q0 95 21 214q10 57 24 118
q135 566 582 566q116 0 251 -46h125l-15 -87h2l-140 -792q-3 -25 -3 -49q0 -139 92 -205l-99 -100q-95 75 -114 168z" />
    <glyph glyph-name="atilde" unicode="&#xe3;" horiz-adv-x="1022" 
d="M479 1503q103 103 186 103h10q49 -4 121 -39.5t112 -38.5h4q39 0 106 56l45 -83q-89 -77 -162 -77h-11q-50 4 -123 40.5t-110 39.5h-8q-65 0 -128 -73h-4zM284 699q-8 -44 -16 -85q-21 -118 -21 -209q0 -304 231 -304h18q275 0 377 294l122 696q-152 59 -274 59
q-337 0 -437 -451zM864 162q-162 -168 -389 -168q-337 0 -337 381q0 95 21 214q10 57 24 118q135 566 582 566q116 0 251 -46h125l-15 -87h2l-140 -792q-3 -25 -3 -49q0 -139 92 -205l-99 -100q-95 75 -114 168z" />
    <glyph glyph-name="adieresis" unicode="&#xe4;" horiz-adv-x="1022" 
d="M284 699q-8 -44 -16 -85q-21 -118 -21 -209q0 -304 231 -304h18q275 0 377 294l122 696q-152 59 -274 59q-337 0 -437 -451zM864 162q-162 -168 -389 -168q-337 0 -337 381q0 95 21 214q10 57 24 118q135 566 582 566q116 0 251 -46h125l-15 -87h2l-140 -792
q-3 -25 -3 -49q0 -139 92 -205l-99 -100q-95 75 -114 168zM714 1576q29 -28 29 -67q0 -36 -29 -63t-70 -27q-37 0 -65.5 27t-28.5 63q0 39 28.5 67t65.5 28q41 0 70 -28zM990.5 1576q28.5 -28 28.5 -67q0 -36 -28.5 -63t-67.5 -27q-41 0 -69 27t-28 63q0 39 28 67t69 28
q39 0 67.5 -28z" />
    <glyph glyph-name="aring" unicode="&#xe5;" horiz-adv-x="1022" 
d="M284 699q-8 -44 -16 -85q-21 -118 -21 -209q0 -304 231 -304h18q275 0 377 294l122 696q-152 59 -274 59q-337 0 -437 -451zM864 162q-162 -168 -389 -168q-337 0 -337 381q0 95 21 214q10 57 24 118q135 566 582 566q116 0 251 -46h125l-15 -87h2l-140 -792
q-3 -25 -3 -49q0 -139 92 -205l-99 -100q-95 75 -114 168zM931.5 1652.5q62.5 -62.5 62.5 -148.5q0 -90 -62.5 -150.5t-150.5 -60.5q-90 0 -150.5 60.5t-60.5 150.5q0 86 60.5 148.5t150.5 62.5q88 0 150.5 -62.5zM781 1603q-39 0 -67.5 -30t-28.5 -69q0 -41 28.5 -68.5
t67.5 -27.5q41 0 69.5 27.5t28.5 68.5q0 39 -28.5 69t-69.5 30z" />
    <glyph glyph-name="ae" unicode="&#xe6;" horiz-adv-x="1814" 
d="M272 443q-4 -33 -4 -63q0 -250 270 -250h294l61 346v4q0 290 -273 290q-293 -8 -343 -291q-3 -18 -5 -36zM1501 1137q-12 1 -23 1q-18 2 -36 2q-194 0 -348 -265q114 -6 207 -6q395 0 414 107l1 7v12q0 128 -215 142zM951 117q-2 2 -3 4l-21 -121h-401q-382 0 -382 332
q0 47 8 102l4 28q74 415 481 415q218 0 300 -114q8 29 16 56l3 16q1 15 1 30q0 272 -268 280q-88 -1 -159 -44l-83 76q111 74 262 75q288 -7 352 -228q186 232 436 232q24 0 49 -2q291 -24 291 -240q0 -19 -2 -40l-2 -11q-37 -207 -572 -207q-91 0 -196 6q-9 -36 -16 -72
l-21 -118q-13 -89 -13 -161q0 -324 252 -324q14 0 30 1q346 39 445 442h100q-135 -547 -614 -553q-197 11 -277 140z" />
    <glyph glyph-name="ccedilla" unicode="&#xe7;" horiz-adv-x="1172" 
d="M559 -24h-13q-332 0 -356 327q-3 43 -3 85q0 106 18 207q32 180 122 345q159 293 450 293h25q228 0 314 -185l-94 -75q-69 145 -243 149q-25 0 -52 -2q-162 0 -283 -206q-77 -131 -108 -306q-17 -100 -20 -214v-14q0 -292 281 -292h17q347 39 428 440l123 1
q-101 -500 -540 -548l-9 -40q84 -31 96 -107q1 -11 1 -21q0 -18 -3 -34q-8 -47 -43 -90q-65 -82 -158 -88q-13 -2 -23 -2q-69 0 -127 38l61 69q38 -17 69 -17h13q42 4 71 47q14 18 17 37q1 6 1 11q0 9 -2 17q-6 35 -40 52q-32 16 -49 22z" />
    <glyph glyph-name="egrave" unicode="&#xe8;" horiz-adv-x="1124" 
d="M836 1428l-174 272h213l64 -271zM801 1137q-12 1 -23 1q-18 2 -36 2q-194 0 -348 -265q114 -6 207 -6q395 0 414 107l1 7v12q0 128 -215 142zM365 762q-16 -65 -28 -132q-22 -124 -22 -219q0 -324 252 -324q14 0 29 1q347 39 446 442h100q-135 -547 -614 -553
q-326 18 -326 396v7q1 159 23 287q32 181 108 301q180 288 464 288q24 0 49 -2q291 -24 291 -241q0 -19 -2 -39l-2 -11q-37 -207 -572 -207q-91 0 -196 6z" />
    <glyph glyph-name="eacute" unicode="&#xe9;" horiz-adv-x="1124" 
d="M722 1429l160 271h213l-270 -272zM801 1137q-12 1 -23 1q-18 2 -36 2q-194 0 -348 -265q114 -6 207 -6q395 0 414 107l1 7v12q0 128 -215 142zM365 762q-16 -65 -28 -132q-22 -124 -22 -219q0 -324 252 -324q14 0 29 1q347 39 446 442h100q-135 -547 -614 -553
q-326 18 -326 396v7q1 159 23 287q32 181 108 301q180 288 464 288q24 0 49 -2q291 -24 291 -241q0 -19 -2 -39l-2 -11q-37 -207 -572 -207q-91 0 -196 6z" />
    <glyph glyph-name="ecircumflex" unicode="&#xea;" horiz-adv-x="1124" 
d="M1065 1384l-213 179l-269 -173l-64 82l1 1l359 223l278 -223q0 -4 -1 -8zM801 1137q-12 1 -23 1q-18 2 -36 2q-194 0 -348 -265q114 -6 207 -6q395 0 414 107l1 7v12q0 128 -215 142zM365 762q-16 -65 -28 -132q-22 -124 -22 -219q0 -324 252 -324q14 0 29 1
q347 39 446 442h100q-135 -547 -614 -553q-326 18 -326 396v7q1 159 23 287q32 181 108 301q180 288 464 288q24 0 49 -2q291 -24 291 -241q0 -19 -2 -39l-2 -11q-37 -207 -572 -207q-91 0 -196 6z" />
    <glyph glyph-name="edieresis" unicode="&#xeb;" horiz-adv-x="1124" 
d="M801 1137q-12 1 -23 1q-18 2 -36 2q-194 0 -348 -265q114 -6 207 -6q395 0 414 107l1 7v12q0 128 -215 142zM365 762q-16 -65 -28 -132q-22 -124 -22 -219q0 -324 252 -324q14 0 29 1q347 39 446 442h100q-135 -547 -614 -553q-326 18 -326 396v7q1 159 23 287
q32 181 108 301q180 288 464 288q24 0 49 -2q291 -24 291 -241q0 -19 -2 -39l-2 -11q-37 -207 -572 -207q-91 0 -196 6zM774 1576q29 -28 29 -67q0 -36 -29 -63t-70 -27q-37 0 -65.5 27t-28.5 63q0 39 28.5 67t65.5 28q41 0 70 -28zM1050.5 1576q28.5 -28 28.5 -67
q0 -36 -28.5 -63t-67.5 -27q-41 0 -69 27t-28 63q0 39 28 67t69 28q39 0 67.5 -28z" />
    <glyph glyph-name="igrave" unicode="&#xec;" horiz-adv-x="817" 
d="M468 -3h-121l217 1228h121zM665 1428l-174 272h213l65 -271z" />
    <glyph glyph-name="iacute" unicode="&#xed;" horiz-adv-x="817" 
d="M468 -3h-121l217 1228h121zM552 1429l159 271h213l-270 -272z" />
    <glyph glyph-name="icircumflex" unicode="&#xee;" horiz-adv-x="817" 
d="M469 -3h-121l217 1228h121zM895 1384l-213 179l-269 -173l-64 82v1l360 223l277 -223q1 -2 1 -4t-1 -4z" />
    <glyph glyph-name="idieresis" unicode="&#xef;" horiz-adv-x="817" 
d="M468 -3h-121l217 1228h121zM604 1576q29 -28 29 -67q0 -36 -29 -63t-70 -27q-37 0 -65.5 27t-28.5 63q0 39 28.5 67t65.5 28q41 0 70 -28zM880.5 1576q28.5 -28 28.5 -67q0 -36 -28.5 -63t-67.5 -27q-41 0 -69 27t-28 63q0 39 28 67t69 28q39 0 67.5 -28z" />
    <glyph glyph-name="eth" unicode="&#xf0;" horiz-adv-x="1092" 
d="M1005 629q11 88 11 161q0 353 -268 353q-324 0 -443 -514q-16 -104 -16 -188q0 -347 274 -347q338 0 442 535zM866 1559l199 108l46 -92l-163 -88q186 -208 195 -693q-4 -74 -14 -159q-132 -660 -587 -660q-374 0 -374 439q0 99 19 221q150 637 584 637q103 0 176 -36
q-42 120 -110 191l-224 -121l-45 92l178 96q-56 60 -165 135l169 -1q46 -20 116 -69z" />
    <glyph glyph-name="ntilde" unicode="&#xf1;" horiz-adv-x="1090" 
d="M244 0h-119l216 1226h121l-19 -110q122 123 349 123h5q311 0 311 -350q0 -86 -19 -193q-5 -25 -10 -52l-114 -644h-118l109 617q6 31 11 60q17 97 17 174q0 257 -195 279h-18q-275 0 -380 -294zM518 1503q103 103 186 103h10q48 -4 120.5 -39.5t112.5 -38.5h4
q39 0 106 56l45 -83q-89 -77 -162 -77h-11q-50 4 -123 40.5t-110 39.5h-8q-65 0 -128 -73h-4z" />
    <glyph glyph-name="ograve" unicode="&#xf2;" horiz-adv-x="1092" 
d="M1005 629q11 88 11 161q0 353 -268 353q-324 0 -443 -514q-16 -104 -16 -188q0 -347 274 -347q338 0 442 535zM771 1272q369 0 369 -464q0 -80 -11 -173q-132 -660 -587 -660q-374 0 -374 439q0 99 19 221q150 637 584 637zM803 1428l-174 272h213l64 -271z" />
    <glyph glyph-name="oacute" unicode="&#xf3;" horiz-adv-x="1092" 
d="M1005 629q11 88 11 161q0 353 -268 353q-324 0 -443 -514q-16 -104 -16 -188q0 -347 274 -347q338 0 442 535zM771 1272q369 0 369 -464q0 -80 -11 -173q-132 -660 -587 -660q-374 0 -374 439q0 99 19 221q150 637 584 637zM690 1429l160 271h213l-270 -272z" />
    <glyph glyph-name="ocircumflex" unicode="&#xf4;" horiz-adv-x="1092" 
d="M1005 629q11 88 11 161q0 353 -268 353q-324 0 -443 -514q-16 -104 -16 -188q0 -347 274 -347q338 0 442 535zM771 1272q369 0 369 -464q0 -80 -11 -173q-132 -660 -587 -660q-374 0 -374 439q0 99 19 221q150 637 584 637zM1032 1384l-212 179l-269 -173l-64 82v1
l359 223l278 -223v-8z" />
    <glyph glyph-name="otilde" unicode="&#xf5;" horiz-adv-x="1092" 
d="M1005 629q11 88 11 161q0 353 -268 353q-324 0 -443 -514q-16 -104 -16 -188q0 -347 274 -347q338 0 442 535zM771 1272q369 0 369 -464q0 -80 -11 -173q-132 -660 -587 -660q-374 0 -374 439q0 99 19 221q150 637 584 637zM519 1503q104 103 187 103h10q48 -4 120 -39.5
t113 -38.5h4q39 0 106 56l44 -83q-89 -77 -162 -77h-11q-50 4 -123 40.5t-109 39.5h-8q-65 0 -128 -73h-4z" />
    <glyph glyph-name="odieresis" unicode="&#xf6;" horiz-adv-x="1092" 
d="M1005 629q11 88 11 161q0 353 -268 353q-324 0 -443 -514q-16 -104 -16 -188q0 -347 274 -347q338 0 442 535zM771 1272q369 0 369 -464q0 -80 -11 -173q-132 -660 -587 -660q-374 0 -374 439q0 99 19 221q150 637 584 637zM744 1576q29 -28 29 -67q0 -36 -29 -63
t-70 -27q-37 0 -65.5 27t-28.5 63q0 39 28.5 67t65.5 28q41 0 70 -28zM1020.5 1576q28.5 -28 28.5 -67q0 -36 -28.5 -63t-67.5 -27q-41 0 -69 27t-28 63q0 39 28 67t69 28q39 0 67.5 -28z" />
    <glyph glyph-name="divide" unicode="&#xf7;" 
d="M108 601v115h1013v-115h-1013zM715 358q41 -42 41 -100q0 -59 -41 -100t-101 -41q-59 0 -100 41t-41 100q0 58 41 100t100 42q60 0 101 -42zM715 1157q41 -41 41 -98q0 -59 -41 -99t-101 -40q-59 0 -100 40t-41 99q0 57 41 98t100 41q60 0 101 -41z" />
    <glyph glyph-name="oslash" unicode="&#xf8;" horiz-adv-x="1092" 
d="M309 42q-141 104 -141 372q0 99 20 222q149 637 583 637q65 0 119 -15l94 196l102 -33l-99 -207q154 -107 154 -407q0 -79 -11 -171q-133 -660 -588 -660q-76 0 -137 18l-95 -199l-105 30zM927 1087l-464 -972q45 -15 101 -15q338 0 442 535q12 89 12 162q0 205 -91 290z
M371 173l462 966q-38 10 -84 10q-324 0 -443 -514q-16 -103 -16 -187q0 -189 81 -275z" />
    <glyph glyph-name="ugrave" unicode="&#xf9;" horiz-adv-x="1140" 
d="M1087 1226h119l-216 -1226h-121l20 110q-123 -123 -350 -123q-308 0 -308 370q0 99 22 225l113 644h118l-108 -617q-24 -134 -24 -233q0 -280 190 -280h18q275 0 380 294zM827 1428l-174 272h213l64 -271z" />
    <glyph glyph-name="uacute" unicode="&#xfa;" horiz-adv-x="1140" 
d="M1087 1226h119l-216 -1226h-121l20 110q-123 -123 -350 -123q-308 0 -308 370q0 99 22 225l113 644h118l-108 -617q-24 -134 -24 -233q0 -280 190 -280h18q275 0 380 294zM714 1429l160 271h213l-270 -272z" />
    <glyph glyph-name="ucircumflex" unicode="&#xfb;" horiz-adv-x="1140" 
d="M1087 1226h119l-216 -1226h-121l20 110q-123 -123 -350 -123q-308 0 -308 370q0 99 22 225l113 644h118l-108 -617q-24 -134 -24 -233q0 -280 190 -280h18q275 0 380 294zM1056 1384l-212 179l-270 -173l-63 82v1l359 223l278 -223v-8z" />
    <glyph glyph-name="udieresis" unicode="&#xfc;" horiz-adv-x="1140" 
d="M1087 1226h119l-216 -1226h-121l20 110q-123 -123 -350 -123q-308 0 -308 370q0 99 22 225l113 644h118l-108 -617q-24 -134 -24 -233q0 -280 190 -280h18q275 0 380 294zM764 1576q29 -28 29 -67q0 -36 -29 -63t-70 -27q-37 0 -65.5 27t-28.5 63q0 39 28.5 67t65.5 28
q41 0 70 -28zM1040.5 1576q28.5 -28 28.5 -67q0 -36 -28.5 -63t-67.5 -27q-41 0 -69 27t-28 63q0 39 28 67t69 28q39 0 67.5 -28z" />
    <glyph glyph-name="yacute" unicode="&#xfd;" horiz-adv-x="1090" 
d="M849 27l15 83q-123 -123 -350 -123q-308 0 -308 370q0 99 22 225l113 644h118l-108 -617q-24 -134 -24 -233q0 -280 190 -280h18q275 0 380 294l147 836h119l-216 -1226q-133 -372 -511 -381q-151 1 -236 75l111 76q55 -43 143 -44q281 8 374 301h3zM689 1429l160 271
h213l-270 -272z" />
    <glyph glyph-name="thorn" unicode="&#xfe;" horiz-adv-x="1120" 
d="M1037 699q9 68 9 126q0 325 -286 325q-122 0 -297 -59l-122 -696v-2q0 -292 274 -292h18q300 0 390 513q7 41 14 85zM202 -391h-121l355 2013h121l-70 -395h4q152 46 268 46q391 0 391 -433q0 -62 -8 -133q-8 -61 -18 -118q-105 -595 -526 -595q-227 0 -306 123z" />
    <glyph glyph-name="ydieresis" unicode="&#xff;" horiz-adv-x="1090" 
d="M849 27l15 83q-123 -123 -350 -123q-308 0 -308 370q0 99 22 225l113 644h118l-108 -617q-24 -134 -24 -233q0 -280 190 -280h18q275 0 380 294l147 836h119l-216 -1226q-133 -372 -511 -381q-151 1 -236 75l111 76q55 -43 143 -44q281 8 374 301h3zM744 1576
q29 -28 29 -67q0 -36 -29 -63t-70 -27q-37 0 -65.5 27t-28.5 63q0 39 28.5 67t65.5 28q41 0 70 -28zM1020.5 1576q28.5 -28 28.5 -67q0 -36 -28.5 -63t-67.5 -27q-41 0 -69 27t-28 63q0 39 28 67t69 28q39 0 67.5 -28z" />
    <glyph glyph-name="Amacron" unicode="&#x100;" horiz-adv-x="1334" 
d="M508 596l-287 -596h-121l783 1622h140l211 -1622h-120l-78 596h-528zM563 711h458l-97 748zM694 1907l10 6h609l-20 -115h-615q-2 1 -3 2z" />
    <glyph glyph-name="amacron" unicode="&#x101;" horiz-adv-x="1022" 
d="M464 1512q4 3 10 6h609l-21 -115h-615l-2 2zM284 699q-8 -44 -16 -85q-21 -118 -21 -209q0 -304 231 -304h18q275 0 377 294l122 696q-152 59 -274 59q-337 0 -437 -451zM864 162q-162 -168 -389 -168q-337 0 -337 381q0 95 21 214q10 57 24 118q135 566 582 566
q116 0 251 -46h125l-15 -87h2l-140 -792q-3 -25 -3 -49q0 -139 92 -205l-99 -100q-95 75 -114 168z" />
    <glyph glyph-name="Abreve" unicode="&#x102;" horiz-adv-x="1334" 
d="M508 596l-287 -596h-121l783 1622h140l211 -1622h-120l-78 596h-528zM563 711h458l-97 748zM810 2016q52 -83 182 -92h27q134 9 215 92h111q-113 -193 -349 -207h-24q-230 14 -273 207h111z" />
    <glyph glyph-name="abreve" unicode="&#x103;" horiz-adv-x="1022" 
d="M580 1621q51 -83 182 -92h27q133 9 215 92h111q-113 -193 -350 -207h-24q-229 14 -272 207h111zM284 699q-8 -44 -16 -85q-21 -118 -21 -209q0 -304 231 -304h18q275 0 377 294l122 696q-152 59 -274 59q-337 0 -437 -451zM864 162q-162 -168 -389 -168q-337 0 -337 381
q0 95 21 214q10 57 24 118q135 566 582 566q116 0 251 -46h125l-15 -87h2l-140 -792q-3 -25 -3 -49q0 -139 92 -205l-99 -100q-95 75 -114 168z" />
    <glyph glyph-name="Aogonek" unicode="&#x104;" horiz-adv-x="1334" 
d="M563 711h458l-97 748zM1105 73l-69 523h-528l-287 -596h-121l783 1622h140l211 -1622h-120l-1 6q-92 -71 -107 -151q-2 -14 -2 -29q0 -17 3 -35v-2l5 -10h-2v-3q0 -2 1 -3q40 -84 148 -84q20 0 40 3l30 -55q-88 -28 -161 -28q-154 0 -201 110q-1 2 -3 5l1 6l-1 4
q-4 20 -4 40q0 18 3 36q25 139 242 263z" />
    <glyph glyph-name="aogonek" unicode="&#x105;" horiz-adv-x="1022" 
d="M284 699q-8 -44 -16 -85q-21 -118 -21 -209q0 -304 231 -304h18q275 0 377 294l122 696q-152 59 -274 59q-337 0 -437 -451zM782 82q-124 -154 -137 -227q-2 -14 -2 -29q0 -17 3 -35v-2l5 -10h-2v-3q0 -2 1 -3q40 -84 148 -84q20 0 40 3l30 -55q-88 -28 -161 -28
q-154 0 -200 110q-2 2 -4 5l1 6l-1 4q-3 19 -3 38t3 38q14 80 175 223q-94 -39 -203 -39q-337 0 -337 381q0 95 21 214q10 57 24 118q135 566 582 566q116 0 251 -46h125l-15 -87h2l-140 -792q-3 -25 -3 -49q0 -139 92 -205l-99 -100q-95 75 -114 168q-43 -45 -82 -80z" />
    <glyph glyph-name="Cacute" unicode="&#x106;" horiz-adv-x="1323" 
d="M1263 1288q-22 248 -296 248q-489 -16 -611 -708l-2 -11q-26 -152 -26 -272q0 -436 341 -451q472 31 585 553h127q-139 -637 -731 -672q-452 10 -452 536q0 134 30 302l2 6q148 830 761 840q364 0 372 -370zM890 1824l160 271h213l-270 -272z" />
    <glyph glyph-name="cacute" unicode="&#x107;" horiz-adv-x="1172" 
d="M727 1120q-162 0 -283 -206q-77 -131 -108 -306q-17 -100 -20 -214v-14q0 -292 281 -292h17q347 39 428 442l123 -1q-106 -525 -586 -552q-17 -1 -33 -1q-332 0 -356 327q-3 43 -3 85q0 106 18 207q32 180 122 345q159 293 450 293h25q228 0 314 -185l-94 -75
q-69 145 -243 149q-25 0 -52 -2zM730 1429l160 271h213l-270 -272z" />
    <glyph glyph-name="Ccircumflex" unicode="&#x108;" horiz-adv-x="1323" 
d="M1263 1288q-22 248 -296 248q-489 -16 -611 -708l-2 -11q-26 -152 -26 -272q0 -436 341 -451q472 31 585 553h127q-139 -637 -731 -672q-452 10 -452 536q0 134 30 302l2 6q148 830 761 840q364 0 372 -370zM1232 1779l-213 179l-269 -173l-64 82v1l360 223l277 -223
q1 -2 1 -4t-1 -4z" />
    <glyph glyph-name="ccircumflex" unicode="&#x109;" horiz-adv-x="1172" 
d="M727 1120q-162 0 -283 -206q-77 -131 -108 -306q-17 -100 -20 -214v-14q0 -292 281 -292h17q347 39 428 442l123 -1q-106 -525 -586 -552q-17 -1 -33 -1q-332 0 -356 327q-3 43 -3 85q0 106 18 207q32 180 122 345q159 293 450 293h25q228 0 314 -185l-94 -75
q-69 145 -243 149q-25 0 -52 -2zM1072 1384l-212 179l-270 -173l-63 82v1l359 223l278 -223q0 -4 -1 -8z" />
    <glyph glyph-name="Cdotaccent" unicode="&#x10a;" horiz-adv-x="1323" 
d="M1263 1288q-22 248 -296 248q-489 -16 -611 -708l-2 -11q-26 -152 -26 -272q0 -436 341 -451q472 31 585 553h127q-139 -637 -731 -672q-452 10 -452 536q0 134 30 302l2 6q148 830 761 840q364 0 372 -370zM1117 2047q41 -43 41 -100t-41 -98t-101 -41q-59 0 -100 41
t-41 98t41 100t100 43q60 0 101 -43z" />
    <glyph glyph-name="cdotaccent" unicode="&#x10b;" horiz-adv-x="1172" 
d="M727 1120q-162 0 -283 -206q-77 -131 -108 -306q-17 -100 -20 -214v-14q0 -292 281 -292h17q347 39 428 442l123 -1q-106 -525 -586 -552q-17 -1 -33 -1q-332 0 -356 327q-3 43 -3 85q0 106 18 207q32 180 122 345q159 293 450 293h25q228 0 314 -185l-94 -75
q-69 145 -243 149q-25 0 -52 -2zM977 1702q41 -43 41 -100t-41 -98t-101 -41q-59 0 -100 41t-41 98t41 100t100 43q60 0 101 -43z" />
    <glyph glyph-name="Ccaron" unicode="&#x10c;" horiz-adv-x="1323" 
d="M1263 1288q-22 248 -296 248q-489 -16 -611 -708l-2 -11q-26 -152 -26 -272q0 -436 341 -451q472 31 585 553h127q-139 -637 -731 -672q-452 10 -452 536q0 134 30 302l2 6q148 830 761 840q364 0 372 -370zM1350 2010q-1 -4 -3 -8l-356 -223l-281 223l93 83l208 -173
l276 179z" />
    <glyph glyph-name="ccaron" unicode="&#x10d;" horiz-adv-x="1172" 
d="M727 1120q-162 0 -283 -206q-77 -131 -108 -306q-17 -100 -20 -214v-14q0 -292 281 -292h17q347 39 428 442l123 -1q-106 -525 -586 -552q-17 -1 -33 -1q-332 0 -356 327q-3 43 -3 85q0 106 18 207q32 180 122 345q159 293 450 293h25q228 0 314 -185l-94 -75
q-69 145 -243 149q-25 0 -52 -2zM1190 1615q-1 -4 -3 -8l-356 -223l-281 223l93 83l208 -173l276 179z" />
    <glyph glyph-name="Dcaron" unicode="&#x10e;" horiz-adv-x="1237" 
d="M1150 805q19 116 19 213q0 487 -475 487h-158l-244 -1386h158q569 0 700 686zM486 0h-336l286 1622h336q529 -24 529 -573q0 -111 -22 -244q-147 -774 -793 -805zM1252 2010q0 -4 -2 -8l-356 -223l-281 223l93 83l208 -173l276 179z" />
    <glyph glyph-name="dcaron" unicode="&#x10f;" horiz-adv-x="1314" 
d="M325 532q-14 -93 -14 -165q0 -255 176 -255h410l125 724q0 294 -275 294h-18q-300 0 -390 -513q-7 -41 -14 -85zM995 0h-562q-10 -1 -20 -1q-206 0 -206 330q0 87 14 197q8 61 18 118q105 595 526 595q227 0 306 -123l90 508h121zM1454 1427q-28 8 -46 30q-26 31 -26 74
q0 14 3 29q10 55 58.5 97t107.5 42q60 0 94 -42q25 -32 25 -72q0 -12 -2 -25q-10 -58 -63.5 -128.5t-205.5 -203.5l-2 2l-56 78l1 4q67 59 112 115z" />
    <glyph glyph-name="Dcroat" unicode="&#x110;" horiz-adv-x="1327" 
d="M393 869l133 753h336q529 -24 529 -573q0 -111 -22 -244q-146 -774 -793 -805h-336l133 754h-140l20 115h140zM514 869h486l-20 -115h-486l-112 -635h158q569 0 700 686q19 116 19 213q0 487 -475 487h-158z" />
    <glyph glyph-name="dcroat" unicode="&#x111;" horiz-adv-x="1145" 
d="M325 532q-14 -93 -14 -165q0 -255 176 -255h410l125 724q0 294 -275 294h-18q-300 0 -390 -513q-7 -41 -14 -85zM1232 1342l-237 -1342h-562q-10 -1 -20 -1q-206 0 -206 330q0 87 14 197q8 61 18 118q105 595 526 595q227 0 306 -123l40 226h-541l20 115h541l30 167h121
l-30 -167h125l-20 -115h-125z" />
    <glyph glyph-name="Emacron" unicode="&#x112;" horiz-adv-x="1108" 
d="M436 1622h785l-21 -119h-662l-107 -606h464l-21 -119h-464l-116 -659h735l-21 -119h-858zM606 1907l10 6h609l-20 -115h-615q-2 1 -3 2z" />
    <glyph glyph-name="emacron" unicode="&#x113;" horiz-adv-x="1124" 
d="M536 1512q5 3 11 6h609l-21 -115h-615q-2 1 -2 2zM801 1137q-12 1 -23 1q-18 2 -36 2q-194 0 -348 -265q114 -6 207 -6q395 0 414 107l1 7v12q0 128 -215 142zM365 762q-16 -65 -28 -132q-22 -124 -22 -219q0 -324 252 -324q14 0 29 1q347 39 446 442h100
q-135 -547 -614 -553q-326 18 -326 396v7q1 159 23 287q32 181 108 301q180 288 464 288q24 0 49 -2q291 -24 291 -241q0 -19 -2 -39l-2 -11q-37 -207 -572 -207q-91 0 -196 6z" />
    <glyph glyph-name="Ebreve" unicode="&#x114;" horiz-adv-x="1108" 
d="M436 1622h785l-21 -119h-662l-107 -606h464l-21 -119h-464l-116 -659h735l-21 -119h-858zM722 2016q52 -83 182 -92h27q134 9 215 92h111q-113 -193 -349 -207h-24q-230 14 -273 207h111z" />
    <glyph glyph-name="ebreve" unicode="&#x115;" horiz-adv-x="1124" 
d="M653 1621q51 -83 181 -92h27q134 9 216 92h111q-113 -193 -350 -207h-24q-229 14 -272 207h111zM801 1137q-12 1 -23 1q-18 2 -36 2q-194 0 -348 -265q114 -6 207 -6q395 0 414 107l1 7v12q0 128 -215 142zM365 762q-16 -65 -28 -132q-22 -124 -22 -219q0 -324 252 -324
q14 0 29 1q347 39 446 442h100q-135 -547 -614 -553q-326 18 -326 396v7q1 159 23 287q32 181 108 301q180 288 464 288q24 0 49 -2q291 -24 291 -241q0 -19 -2 -39l-2 -11q-37 -207 -572 -207q-91 0 -196 6z" />
    <glyph glyph-name="Edotaccent" unicode="&#x116;" horiz-adv-x="1108" 
d="M436 1622h785l-21 -119h-662l-107 -606h464l-21 -119h-464l-116 -659h735l-21 -119h-858zM1027 2047q41 -43 41 -100t-41 -98t-101 -41q-59 0 -100 41t-41 98t41 100t100 43q60 0 101 -43z" />
    <glyph glyph-name="edotaccent" unicode="&#x117;" horiz-adv-x="1124" 
d="M801 1137q-12 1 -23 1q-18 2 -36 2q-194 0 -348 -265q114 -6 207 -6q395 0 414 107l1 7v12q0 128 -215 142zM365 762q-16 -65 -28 -132q-22 -124 -22 -219q0 -324 252 -324q14 0 29 1q347 39 446 442h100q-135 -547 -614 -553q-326 18 -326 396v7q1 159 23 287
q32 181 108 301q180 288 464 288q24 0 49 -2q291 -24 291 -241q0 -19 -2 -39l-2 -11q-37 -207 -572 -207q-91 0 -196 6zM977 1702q41 -43 41 -100t-41 -98t-101 -41q-59 0 -100 41t-41 98t41 100t100 43q60 0 101 -43z" />
    <glyph glyph-name="Eogonek" unicode="&#x118;" horiz-adv-x="1108" 
d="M710 0h-560l286 1622h785l-21 -119h-662l-107 -606h464l-21 -119h-464l-116 -659h735l-21 -119h-188q-85 -69 -99 -145q-2 -14 -2 -29q0 -17 3 -35v-2l5 -10h-2v-3q0 -2 1 -3q40 -84 148 -84q20 0 40 3l30 -55q-88 -28 -161 -28q-154 0 -201 110q-1 2 -3 5l1 6l-1 4
q-4 20 -4 40q0 18 3 36q18 99 132 190z" />
    <glyph glyph-name="eogonek" unicode="&#x119;" horiz-adv-x="1124" 
d="M801 1137q-12 1 -23 1q-18 2 -36 2q-194 0 -348 -265q114 -6 207 -6q395 0 414 107l1 7v12q0 128 -215 142zM316 443q-1 -17 -1 -33q0 -323 252 -323q14 0 29 1q347 39 446 442h100q-87 -355 -320 -482q-56 -56 -66 -116q-3 -14 -3 -29q0 -17 4 -35l-1 -2l5 -10h-2
q0 -4 1 -6q41 -84 149 -84q20 0 39 3l30 -55q-87 -28 -160 -28q-154 0 -201 110q-2 2 -3 5l1 6l-1 4q-4 20 -4 40q0 18 3 36q9 53 46 103q-62 -12 -131 -13q-326 18 -326 396v7q0 32 1 63q5 122 22 224q32 181 108 301q180 288 464 288q24 0 49 -2q291 -24 291 -241
q0 -19 -2 -39l-2 -11q-37 -207 -572 -207q-91 0 -196 6q-16 -65 -28 -132q-18 -103 -21 -187z" />
    <glyph glyph-name="Ecaron" unicode="&#x11a;" horiz-adv-x="1108" 
d="M436 1622h785l-21 -119h-662l-107 -606h464l-21 -119h-464l-116 -659h735l-21 -119h-858zM1252 2010q0 -4 -2 -8l-356 -223l-281 223l93 83l208 -173l276 179z" />
    <glyph glyph-name="ecaron" unicode="&#x11b;" horiz-adv-x="1124" 
d="M1183 1615q-1 -4 -3 -8l-356 -223l-281 223l93 83l208 -173l276 179zM801 1137q-12 1 -23 1q-18 2 -36 2q-194 0 -348 -265q114 -6 207 -6q395 0 414 107l1 7v12q0 128 -215 142zM365 762q-16 -65 -28 -132q-22 -124 -22 -219q0 -324 252 -324q14 0 29 1q347 39 446 442
h100q-135 -547 -614 -553q-326 18 -326 396v7q1 159 23 287q32 181 108 301q180 288 464 288q24 0 49 -2q291 -24 291 -241q0 -19 -2 -39l-2 -11q-37 -207 -572 -207q-91 0 -196 6z" />
    <glyph glyph-name="Gcircumflex" unicode="&#x11c;" horiz-adv-x="1363" 
d="M667 -25q-452 10 -452 536q0 134 30 302l2 6q148 830 761 840q364 0 372 -370l-100 -1q-22 248 -296 248q-489 -16 -611 -708l-2 -11q-26 -152 -26 -272q0 -436 341 -451q448 29 576 522h-280l20 115h410q-167 -722 -745 -756zM1249 1779l-213 179l-269 -173l-64 82v1
l360 223l277 -223q1 -2 1 -4t-1 -4z" />
    <glyph glyph-name="gcircumflex" unicode="&#x11d;" horiz-adv-x="1169" 
d="M354 699q-8 -44 -16 -85q-21 -118 -21 -209q0 -304 231 -304h18q275 0 377 294l122 696q-152 59 -274 59q-337 0 -437 -451zM993 9q-126 -381 -508 -390q-151 1 -236 75l111 76q55 -43 143 -44q285 8 376 310l16 81q-123 -123 -350 -123q-337 0 -337 381q0 95 21 214
q10 57 24 118q135 566 582 566q116 0 251 -46h124zM1046 1384l-212 179l-270 -173l-63 82v1l359 223l278 -223q0 -4 -1 -8z" />
    <glyph glyph-name="Gbreve" unicode="&#x11e;" horiz-adv-x="1363" 
d="M667 -25q-452 10 -452 536q0 134 30 302l2 6q148 830 761 840q364 0 372 -370l-100 -1q-22 248 -296 248q-489 -16 -611 -708l-2 -11q-26 -152 -26 -272q0 -436 341 -451q448 29 576 522h-280l20 115h410q-167 -722 -745 -756zM837 2016q51 -83 181 -92h27q134 9 216 92
h111q-113 -193 -350 -207h-24q-229 14 -272 207h111z" />
    <glyph glyph-name="gbreve" unicode="&#x11f;" horiz-adv-x="1169" 
d="M354 699q-8 -44 -16 -85q-21 -118 -21 -209q0 -304 231 -304h18q275 0 377 294l122 696q-152 59 -274 59q-337 0 -437 -451zM993 9q-126 -381 -508 -390q-151 1 -236 75l111 76q55 -43 143 -44q285 8 376 310l16 81q-123 -123 -350 -123q-337 0 -337 381q0 95 21 214
q10 57 24 118q135 566 582 566q116 0 251 -46h124zM634 1621q51 -83 182 -92h27q133 9 215 92h111q-113 -193 -350 -207h-24q-229 14 -272 207h111z" />
    <glyph glyph-name="Gdotaccent" unicode="&#x120;" horiz-adv-x="1363" 
d="M667 -25q-452 10 -452 536q0 134 30 302l2 6q148 830 761 840q364 0 372 -370l-100 -1q-22 248 -296 248q-489 -16 -611 -708l-2 -11q-26 -152 -26 -272q0 -436 341 -451q448 29 576 522h-280l20 115h410q-167 -722 -745 -756zM1137 2047q41 -43 41 -100t-41 -98
t-101 -41q-59 0 -100 41t-41 98t41 100t100 43q60 0 101 -43z" />
    <glyph glyph-name="gdotaccent" unicode="&#x121;" horiz-adv-x="1169" 
d="M354 699q-8 -44 -16 -85q-21 -118 -21 -209q0 -304 231 -304h18q275 0 377 294l122 696q-152 59 -274 59q-337 0 -437 -451zM993 9q-126 -381 -508 -390q-151 1 -236 75l111 76q55 -43 143 -44q285 8 376 310l16 81q-123 -123 -350 -123q-337 0 -337 381q0 95 21 214
q10 57 24 118q135 566 582 566q116 0 251 -46h124zM947 1702q41 -43 41 -100t-41 -98t-101 -41q-59 0 -100 41t-41 98t41 100t100 43q60 0 101 -43z" />
    <glyph glyph-name="Gcommaaccent" unicode="&#x122;" horiz-adv-x="1363" 
d="M598 -20q-383 47 -383 530q0 135 30 303l1 6q149 830 761 840q364 0 373 -370l-100 -1q-22 248 -296 248q-489 -16 -611 -708l-2 -11q-26 -152 -26 -272q0 -436 341 -451q448 29 576 522h-280l20 115h410q-167 -722 -745 -756h-6l-8 -34q84 -31 96 -107q1 -11 1 -21
q0 -18 -3 -34q-8 -47 -43 -90q-65 -82 -158 -88q-13 -2 -23 -2q-69 0 -127 38l61 69q38 -17 69 -17h13q42 4 71 47q14 18 17 37q1 6 1 11q0 9 -2 17q-6 35 -40 52q-32 16 -49 22z" />
    <glyph glyph-name="gcommaaccent" unicode="&#x123;" horiz-adv-x="1169" 
d="M354 699q-8 -44 -16 -85q-21 -118 -21 -209q0 -304 231 -304h18q275 0 377 294l122 696q-152 59 -274 59q-337 0 -437 -451zM993 9q-126 -381 -508 -390q-151 1 -236 75l111 76q55 -43 143 -44q285 8 376 310l16 81q-123 -123 -350 -123q-337 0 -337 381q0 95 21 214
q10 57 24 118q135 566 582 566q116 0 251 -46h124zM922 1711q27 -8 45 -30q26 -31 26 -74q0 -14 -3 -29q-9 -55 -57.5 -97t-107.5 -42q-60 0 -93 42q-27 33 -27 74q0 11 2 23q11 58 64 128.5t206 203.5l1 -2l57 -78l-1 -4q-67 -59 -112 -115z" />
    <glyph glyph-name="Hcircumflex" unicode="&#x124;" horiz-adv-x="1261" 
d="M461 1622h115l-130 -736h681l130 736h115l-286 -1622h-115l136 771h-681l-136 -771h-115zM1187 1779l-213 179l-269 -173l-64 82v1l360 223l277 -223q1 -2 1 -4t-1 -4z" />
    <glyph glyph-name="hcircumflex" unicode="&#x125;" horiz-adv-x="1202" 
d="M564 1491l-66 -375q122 123 349 123q311 0 311 -326q0 -74 -16 -164l-132 -749h-118l129 729q15 89 15 157q0 244 -192 244h-18q-275 0 -380 -294l-147 -836h-119l286 1624h121l-17 -97l337 209l278 -223q0 -4 -1 -8l-91 -81l-212 179l-270 -173z" />
    <glyph glyph-name="Hbar" unicode="&#x126;" horiz-adv-x="1261" 
d="M428 1457l29 165h115l-29 -165h681l29 165h115l-29 -165h138l-20 -115h-138l-237 -1342h-115l136 771h-681l-136 -771h-115l237 1342h-138l20 115h138zM523 1342l-81 -456h681l81 456h-681z" />
    <glyph glyph-name="hbar" unicode="&#x127;" horiz-adv-x="1202" 
d="M417 1342h-147l20 115h147l29 167h121l-29 -167h519l-20 -115h-519l-40 -226q122 123 349 123q311 0 311 -326q0 -74 -16 -164l-132 -749h-118l129 729q15 89 15 157q0 244 -192 244h-18q-275 0 -380 -294l-147 -836h-119z" />
    <glyph glyph-name="Itilde" unicode="&#x128;" horiz-adv-x="515" 
d="M602 1622l-286 -1622h-115l286 1622h115zM301 1898q103 103 186 103h10q48 -4 120.5 -39.5t112.5 -38.5h4q39 0 106 56l44 -83q-88 -77 -161 -77h-11q-51 4 -124 40.5t-109 39.5h-8q-65 0 -128 -73h-4z" />
    <glyph glyph-name="itilde" unicode="&#x129;" horiz-adv-x="817" 
d="M469 -3h-121l217 1228h121zM382 1503q103 103 186 103h10q48 -4 120 -39.5t113 -38.5h4q39 0 106 56l44 -83q-88 -77 -161 -77h-11q-51 4 -124 40.5t-109 39.5h-8q-65 0 -128 -73h-4z" />
    <glyph glyph-name="Imacron" unicode="&#x12a;" horiz-adv-x="515" 
d="M602 1622l-286 -1622h-115l286 1622h115zM285 1907l10 6h609l-20 -115h-615q-2 1 -3 2z" />
    <glyph glyph-name="imacron" unicode="&#x12b;" horiz-adv-x="817" 
d="M470 -3h-121l216 1228h121zM367 1512q4 3 10 6h609l-20 -115h-615q-2 1 -3 2z" />
    <glyph glyph-name="Ibreve" unicode="&#x12c;" horiz-adv-x="515" 
d="M602 1622l-286 -1622h-115l286 1622h115zM401 2016q52 -83 182 -92h27q134 9 215 92h111q-113 -193 -349 -207h-24q-230 14 -273 207h111z" />
    <glyph glyph-name="ibreve" unicode="&#x12d;" horiz-adv-x="817" 
d="M469 -3h-121l217 1228h121zM482 1621q52 -83 182 -92h27q134 9 215 92h111q-113 -193 -349 -207h-24q-230 14 -273 207h111z" />
    <glyph glyph-name="Iogonek" unicode="&#x12e;" horiz-adv-x="515" 
d="M212 64l274 1558h115l-286 -1622h-88q-85 -69 -98 -145q-3 -14 -3 -29q0 -17 4 -35l-1 -2l5 -10h-2q0 -4 1 -6q41 -84 149 -84q20 0 39 3l30 -55q-88 -28 -161 -28q-154 0 -200 110q-2 2 -3 5l1 6l-2 4q-3 19 -3 38t3 38q24 134 226 254z" />
    <glyph glyph-name="iogonek" unicode="&#x12f;" horiz-adv-x="611" 
d="M259 77l202 1148h121l-216 -1228h-116q-82 -68 -95 -142q-3 -14 -3 -29q0 -17 4 -35l-1 -2l5 -10h-2q0 -4 1 -6q41 -84 149 -84q20 0 39 3l30 -55q-88 -28 -161 -28q-154 0 -200 110q-2 2 -3 5l1 6l-2 4q-3 19 -3 38t3 38q25 141 247 267zM681.5 1712q29.5 -31 29.5 -74
t-29.5 -73.5t-74.5 -30.5t-76 30.5t-31 73.5t31 74t76 31t74.5 -31z" />
    <glyph glyph-name="Idotaccent" unicode="&#x130;" horiz-adv-x="515" 
d="M601 1622l-286 -1622h-115l286 1622h115zM709 2047q41 -43 41 -100t-41 -98t-101 -41q-59 0 -100 41t-41 98t41 100t100 43q60 0 101 -43z" />
    <glyph glyph-name="dotlessi" unicode="&#x131;" horiz-adv-x="817" 
d="M468 -3h-121l217 1228h121z" />
    <glyph glyph-name="IJ" unicode="&#x132;" horiz-adv-x="1077" 
d="M601 1622l-286 -1622h-115l286 1622h115zM309 -317q367 2 446 325l285 1614h123l-274 -1556q-89 -504 -602 -508z" />
    <glyph glyph-name="ij" unicode="&#x133;" horiz-adv-x="1233" 
d="M365 -3h-121l217 1228h121zM1106 1225h121l-217 -1227q-71 -350 -439 -434l-15 127q268 43 333 307zM681.5 1712q29.5 -31 29.5 -74t-29.5 -73.5t-74.5 -30.5t-76 30.5t-31 73.5t31 74t76 31t74.5 -31zM1317.5 1711q31.5 -32 31.5 -75t-31.5 -73.5t-76.5 -30.5
q-43 0 -73 30.5t-30 73.5t30 75t73 32q45 0 76.5 -32z" />
    <glyph glyph-name="Jcircumflex" unicode="&#x134;" horiz-adv-x="562" 
d="M-206 -317q367 2 446 325l285 1614h123l-274 -1556q-89 -504 -602 -508zM853 1779l-213 179l-269 -173l-64 82v1l360 223l277 -223q1 -2 1 -4t-1 -4z" />
    <glyph glyph-name="jcircumflex" unicode="&#x135;" horiz-adv-x="622" 
d="M495 1225h121l-216 -1227q-71 -350 -439 -434l-15 127q268 43 333 307zM833 1379l-213 179l-269 -173l-64 82v1l360 223l277 -223q1 -2 1 -4t-1 -4z" />
    <glyph glyph-name="Kcommaaccent" unicode="&#x136;" horiz-adv-x="1374" 
d="M1398 1622l-504 -556l380 -1066h-131l-343 962l-391 -430l-94 -532h-115l286 1622h115l-158 -895l813 895h142zM658 -65q70 -32 81 -101q1 -11 1 -21q0 -18 -3 -34q-8 -47 -43 -90q-65 -82 -158 -88q-13 -2 -23 -2q-69 0 -127 38l61 69q38 -17 69 -17h13q42 4 71 47
q14 18 17 37q1 6 1 11q0 9 -2 17q-6 35 -40 52q-32 16 -49 22l36 60h95z" />
    <glyph glyph-name="kcommaaccent" unicode="&#x137;" horiz-adv-x="1114" 
d="M382 627l-111 -627h-121l286 1622h121l-141 -799l529 576h142l-359 -414l312 -985h-148l-282 862zM558 -65q70 -32 81 -101q1 -11 1 -21q0 -18 -3 -34q-8 -47 -43 -90q-65 -82 -158 -88q-13 -2 -23 -2q-69 0 -127 38l61 69q38 -17 69 -17h13q42 4 71 47q14 18 17 37
q1 6 1 11q0 9 -2 17q-6 35 -40 52q-32 16 -49 22l36 60h95z" />
    <glyph glyph-name="kgreenlandic" unicode="&#x138;" horiz-adv-x="1114" 
d="M488 1228l-72 -405l372 405h151l-211 -243l312 -985h-148l-282 862l-228 -235l-111 -627h-121l217 1228h121z" />
    <glyph glyph-name="Lacute" unicode="&#x139;" horiz-adv-x="999" 
d="M265 1v-1h-115l286 1622h115l-266 -1506h659l-20 -115h-659zM644 1824l159 271h213l-270 -272z" />
    <glyph glyph-name="lacute" unicode="&#x13a;" horiz-adv-x="521" 
d="M321 0h-121l286 1622h121zM544 1824l159 271h213l-270 -272z" />
    <glyph glyph-name="Lcommaaccent" unicode="&#x13b;" horiz-adv-x="999" 
d="M265 1v-1h-115l286 1622h115l-266 -1506h659l-20 -115h-659zM558 -65q70 -32 81 -101q1 -11 1 -21q0 -18 -3 -34q-8 -47 -43 -90q-65 -82 -158 -88q-13 -2 -23 -2q-69 0 -127 38l61 69q38 -17 69 -17h13q42 4 71 47q14 18 17 37q1 6 1 11q0 9 -2 17q-6 35 -40 52
q-32 16 -49 22l36 60h95z" />
    <glyph glyph-name="lcommaaccent" unicode="&#x13c;" horiz-adv-x="521" 
d="M321 0h-121l286 1622h121zM338 -65q70 -32 81 -101q1 -11 1 -21q0 -18 -3 -34q-8 -47 -43 -90q-65 -82 -158 -88q-13 -2 -23 -2q-69 0 -127 38l61 69q38 -17 69 -17h13q42 4 71 47q14 18 17 37q1 6 1 11q0 9 -2 17q-6 35 -40 52q-32 16 -49 22l36 60h95z" />
    <glyph glyph-name="Lcaron" unicode="&#x13d;" horiz-adv-x="999" 
d="M265 1v-1h-115l286 1622h115l-266 -1506h659l-20 -115h-659zM954 1427q-28 8 -46 30q-26 31 -26 74q0 14 3 29q10 55 58.5 97t107.5 42q60 0 94 -42q25 -32 25 -72q0 -12 -2 -25q-10 -58 -63.5 -128.5t-205.5 -203.5l-2 2l-56 78v4q68 59 113 115z" />
    <glyph glyph-name="lcaron" unicode="&#x13e;" horiz-adv-x="644" 
d="M321 0h-121l286 1622h121zM784 1427q-28 8 -46 30q-26 31 -26 74q0 14 3 29q10 55 58.5 97t107.5 42q60 0 94 -42q25 -32 25 -72q0 -12 -2 -25q-10 -58 -63.5 -128.5t-205.5 -203.5l-2 2l-56 78v4q68 59 113 115z" />
    <glyph glyph-name="Ldot" unicode="&#x13f;" horiz-adv-x="999" 
d="M265 1v-1h-115l286 1622h115l-266 -1506h659l-20 -115h-659zM877 902q41 -43 41 -100t-41 -98t-101 -41q-59 0 -100 41t-41 98t41 100t100 43q60 0 101 -43z" />
    <glyph glyph-name="ldot" unicode="&#x140;" horiz-adv-x="681" 
d="M321 0h-121l286 1622h121zM877 902q41 -43 41 -100t-41 -98t-101 -41q-59 0 -100 41t-41 98t41 100t100 43q60 0 101 -43z" />
    <glyph glyph-name="Lslash" unicode="&#x141;" horiz-adv-x="999" 
d="M345 451l-60 -335h659l-20 -115h-659v-1h-115l74 418l-136 -38l20 115l136 38l192 1089h115l-186 -1056l584 162l-20 -115z" />
    <glyph glyph-name="lslash" unicode="&#x142;" horiz-adv-x="521" 
d="M456 710l-125 -710h-121l116 659l-203 -79l20 115l203 79l150 848h121l-141 -797l202 79l-20 -115z" />
    <glyph glyph-name="Nacute" unicode="&#x143;" horiz-adv-x="1333" 
d="M526 1622l611 -1371l242 1371h115l-286 -1622h-94l-629 1389l-245 -1389h-115l286 1622h115zM880 1824l159 271h213l-270 -272z" />
    <glyph glyph-name="nacute" unicode="&#x144;" horiz-adv-x="1090" 
d="M244 0h-119l216 1226h121l-19 -110q122 123 349 123h5q311 0 311 -350q0 -86 -19 -193q-5 -25 -10 -52l-114 -644h-118l109 617q6 31 11 60q17 97 17 174q0 257 -195 279h-18q-275 0 -380 -294zM689 1429l160 271h213l-270 -272z" />
    <glyph glyph-name="Ncommaaccent" unicode="&#x145;" horiz-adv-x="1333" 
d="M526 1622l611 -1371l242 1371h115l-286 -1622h-94l-629 1389l-245 -1389h-115l286 1622h115zM658 -65q70 -32 81 -101q1 -11 1 -21q0 -18 -3 -34q-8 -47 -43 -90q-65 -82 -158 -88q-13 -2 -23 -2q-69 0 -127 38l61 69q38 -17 69 -17h13q42 4 71 47q14 18 17 37q1 6 1 11
q0 9 -2 17q-6 35 -40 52q-32 16 -49 22l36 60h95z" />
    <glyph glyph-name="ncommaaccent" unicode="&#x146;" horiz-adv-x="1090" 
d="M244 0h-119l216 1226h121l-19 -110q122 123 349 123h5q311 0 311 -350q0 -86 -19 -193q-5 -25 -10 -52l-114 -644h-118l109 617q6 31 11 60q17 97 17 174q0 257 -195 279h-18q-275 0 -380 -294zM558 -65q70 -32 81 -101q1 -11 1 -21q0 -18 -3 -34q-8 -47 -43 -90
q-65 -82 -158 -88q-13 -2 -23 -2q-69 0 -127 38l61 69q38 -17 69 -17h13q42 4 71 47q14 18 17 37q1 6 1 11q0 9 -2 17q-6 35 -40 52q-32 16 -49 22l36 60h95z" />
    <glyph glyph-name="Ncaron" unicode="&#x147;" horiz-adv-x="1333" 
d="M526 1622l611 -1371l242 1371h115l-286 -1622h-94l-629 1389l-245 -1389h-115l286 1622h115zM1340 2010q0 -4 -2 -8l-356 -223l-281 223l93 83l208 -173l276 179z" />
    <glyph glyph-name="ncaron" unicode="&#x148;" horiz-adv-x="1090" 
d="M244 0h-119l216 1226h121l-19 -110q122 123 349 123h5q311 0 311 -350q0 -86 -19 -193q-5 -25 -10 -52l-114 -644h-118l109 617q6 31 11 60q17 97 17 174q0 257 -195 279h-18q-275 0 -380 -294zM1149 1615q-1 -4 -3 -8l-356 -223l-281 223l93 83l208 -173l276 179z" />
    <glyph glyph-name="napostrophe" unicode="&#x149;" horiz-adv-x="1231" 
d="M385 0h-119l217 1226h121l-20 -110q123 123 350 123h5q310 0 310 -349q0 -86 -19 -194q-4 -25 -10 -52l-114 -644h-118l109 617q7 31 12 60q17 97 17 174q0 257 -195 279h-18q-275 0 -380 -294zM295 1427q-28 8 -46 30q-25 31 -25 75q0 14 2 28q10 55 58.5 97t107.5 42
q60 0 94 -42q25 -32 25 -72q0 -12 -2 -25q-10 -58 -63.5 -128.5t-205.5 -203.5l-2 2l-56 78l1 4q67 59 112 115z" />
    <glyph glyph-name="Eng" unicode="&#x14a;" horiz-adv-x="1333" 
d="M1095 43l-610 1346l-245 -1389h-115l286 1622h115l609 -1364l244 1364h115l-286 -1624q-71 -350 -440 -434l-14 127q267 43 333 307z" />
    <glyph glyph-name="eng" unicode="&#x14b;" horiz-adv-x="1090" 
d="M956 617q6 31 11 60q17 97 17 174q0 257 -195 279h-18q-275 0 -380 -294l-147 -836h-119l216 1226h121l-19 -110q122 123 349 123h5q311 0 311 -352q0 -85 -18 -191q-5 -25 -10 -52l-112 -646q-71 -350 -440 -434l-14 127q267 43 333 307z" />
    <glyph glyph-name="Omacron" unicode="&#x14c;" horiz-adv-x="1415" 
d="M362 817q-24 -142 -24 -257q0 -462 387 -462q479 0 620 719q22 137 22 248q0 471 -388 471q-482 0 -617 -719zM229 817q176 842 774 842q493 0 493 -575q0 -121 -22 -267q-172 -840 -768 -840q-497 0 -497 581q0 118 20 259zM735 1907l10 6h609l-20 -115h-615q-2 1 -3 2z
" />
    <glyph glyph-name="omacron" unicode="&#x14d;" horiz-adv-x="1092" 
d="M1005 629q11 88 11 161q0 353 -268 353q-324 0 -443 -514q-16 -104 -16 -188q0 -347 274 -347q338 0 442 535zM771 1272q369 0 369 -464q0 -80 -11 -173q-132 -660 -587 -660q-374 0 -374 439q0 99 19 221q150 637 584 637zM504 1512l10 6h609l-20 -115h-615q-2 1 -3 2z
" />
    <glyph glyph-name="Obreve" unicode="&#x14e;" horiz-adv-x="1415" 
d="M362 817q-24 -142 -24 -257q0 -462 387 -462q479 0 620 719q22 137 22 248q0 471 -388 471q-482 0 -617 -719zM229 817q176 842 774 842q493 0 493 -575q0 -121 -22 -267q-172 -840 -768 -840q-497 0 -497 581q0 118 20 259zM852 2016q51 -83 181 -92h27q134 9 216 92
h111q-114 -193 -350 -207h-24q-230 14 -272 207h111z" />
    <glyph glyph-name="obreve" unicode="&#x14f;" horiz-adv-x="1092" 
d="M1005 629q11 88 11 161q0 353 -268 353q-324 0 -443 -514q-16 -104 -16 -188q0 -347 274 -347q338 0 442 535zM771 1272q369 0 369 -464q0 -80 -11 -173q-132 -660 -587 -660q-374 0 -374 439q0 99 19 221q150 637 584 637zM620 1621q52 -83 182 -92h27q134 9 215 92h111
q-113 -193 -349 -207h-24q-230 14 -273 207h111z" />
    <glyph glyph-name="Ohungarumlaut" unicode="&#x150;" horiz-adv-x="1415" 
d="M362 817q-24 -142 -24 -257q0 -462 387 -462q479 0 620 719q22 137 22 248q0 471 -388 471q-482 0 -617 -719zM229 817q176 842 774 842q493 0 493 -575q0 -121 -22 -267q-172 -840 -768 -840q-497 0 -497 581q0 118 20 259zM867 1824l159 271h213l-270 -272z" />
    <glyph glyph-name="ohungarumlaut" unicode="&#x151;" horiz-adv-x="1092" 
d="M1005 629q11 88 11 161q0 353 -268 353q-324 0 -443 -514q-16 -104 -16 -188q0 -347 274 -347q338 0 442 535zM771 1272q369 0 369 -464q0 -80 -11 -173q-132 -660 -587 -660q-374 0 -374 439q0 99 19 221q150 637 584 637zM636 1429l160 271h213l-270 -272z" />
    <glyph glyph-name="OE" unicode="&#x152;" horiz-adv-x="1945" 
d="M362 817q-24 -142 -24 -257q0 -462 387 -462q479 0 620 719q22 137 22 248q0 471 -388 471q-482 0 -617 -719zM903 3q-92 -26 -197 -26q-497 0 -497 581q0 118 20 259q176 842 774 842q125 0 218 -37h852l-21 -119h-662l-1 -8q106 -143 106 -410q0 -88 -11 -188h263
l-21 -119h-260q-97 -439 -316 -637l-4 -22h735l-21 -119h-958z" />
    <glyph glyph-name="oe" unicode="&#x153;" horiz-adv-x="1651" 
d="M1005 629q11 88 11 161q0 353 -268 353q-324 0 -443 -514q-16 -104 -16 -188q0 -347 274 -347q338 0 442 535zM1355 1256q24 0 49 -2q20 -2 39 -5q244 -36 244 -235q0 -19 -2 -40l-2 -11q-33 -191 -538 -191h-5q-3 -64 -11 -137q-65 -324 -208 -489q74 -55 203 -58
q347 39 446 442h100q-136 -547 -615 -553q-148 8 -233 80q-120 -82 -280 -82q-374 0 -374 439q0 99 19 221q150 637 584 637q187 0 280 -120q100 79 224 98v1q36 5 73 5h7zM1421 1128v-1q-10 3 -21 5q-22 3 -48 5q-11 1 -21 1q-120 -1 -227 -85q25 -72 33 -168h241v-3
q175 24 188 94l1 7v11q0 105 -146 134z" />
    <glyph glyph-name="Racute" unicode="&#x154;" horiz-adv-x="1158" 
d="M607 846q432 0 490 328q7 38 7 72q0 259 -396 259h-172l-116 -659h187zM928 0l-252 729q-49 -4 -103 -4h-174l-128 -725h-121l286 1622h303q488 0 488 -344q0 -48 -10 -104q-62 -350 -417 -427l258 -747h-130zM818 1824l159 271h213l-270 -272z" />
    <glyph glyph-name="racute" unicode="&#x155;" horiz-adv-x="679" 
d="M295 0h-120l216 1225h120l-9 -51q46 40 142 62q34 7 74 7q68 0 151 -23l-66 -99q-51 15 -95 15q-57 0 -106 -24q-80 -33 -145 -192zM558 1429l160 271h213l-270 -272z" />
    <glyph glyph-name="Rcommaaccent" unicode="&#x156;" horiz-adv-x="1158" 
d="M607 846q432 0 490 328q7 38 7 72q0 259 -396 259h-172l-116 -659h187zM928 0l-252 729q-49 -4 -103 -4h-174l-128 -725h-121l286 1622h303q488 0 488 -344q0 -48 -10 -104q-62 -350 -417 -427l258 -747h-130zM558 -65q70 -32 81 -101q1 -11 1 -21q0 -18 -3 -34
q-8 -47 -43 -90q-65 -82 -158 -88q-13 -2 -23 -2q-69 0 -127 38l61 69q38 -17 69 -17h13q42 4 71 47q14 18 17 37q1 6 1 11q0 9 -2 17q-6 35 -40 52q-32 16 -49 22l36 60h95z" />
    <glyph glyph-name="rcommaaccent" unicode="&#x157;" horiz-adv-x="679" 
d="M296 0h-120l216 1225h120l-9 -51q46 40 142 62q34 7 74 7q68 0 151 -23l-66 -99q-51 15 -95 15q-57 0 -106 -24q-80 -33 -145 -192zM358 -65q70 -32 81 -101q1 -11 1 -21q0 -18 -3 -34q-8 -47 -43 -90q-65 -82 -158 -88q-13 -2 -23 -2q-69 0 -127 38l61 69q38 -17 69 -17
h13q42 4 71 47q14 18 17 37q1 6 1 11q0 9 -2 17q-6 35 -40 52q-32 16 -49 22l36 60h95z" />
    <glyph glyph-name="Rcaron" unicode="&#x158;" horiz-adv-x="1158" 
d="M607 846q432 0 490 328q7 38 7 72q0 259 -396 259h-172l-116 -659h187zM928 0l-252 729q-49 -4 -103 -4h-174l-128 -725h-121l286 1622h303q488 0 488 -344q0 -48 -10 -104q-62 -350 -417 -427l258 -747h-130zM1277 2010q0 -4 -2 -8l-356 -223l-281 223l93 83l208 -173
l276 179z" />
    <glyph glyph-name="rcaron" unicode="&#x159;" horiz-adv-x="679" 
d="M296 0h-120l216 1225h120l-9 -51q46 40 142 62q34 7 74 7q68 0 151 -23l-66 -99q-51 15 -95 15q-57 0 -106 -24q-80 -33 -145 -192zM1019 1615q-1 -4 -3 -8l-356 -223l-281 223l93 83l208 -173l276 179z" />
    <glyph glyph-name="Sacute" unicode="&#x15a;" horiz-adv-x="1307" 
d="M1094 1334q-20 184 -229 213l-10 1q-19 3 -38 3q-70 0 -142 -34q-95 -52 -129 -154q-3 -10 -4 -19q-4 -21 -4 -40q0 -112 134 -145q164 -42 375.5 -102t263.5 -198q19 -47 19 -112q0 -47 -10 -103q-10 -57 -31 -124l-20 -62q-200 -464 -619 -464q-44 0 -91 5
q-367 54 -367 439q0 85 18 186q6 37 15 77h131q-10 -43 -17 -83q-16 -89 -16 -162q0 -304 271 -344q36 -4 69 -4q330 0 489 362q13 34 24 69q14 47 21 88t7 75q0 37 -8 67q-31 103 -134 143.5t-334.5 94.5t-290.5 142q-35 53 -35 123q0 27 5 57q3 20 9 41q44 141 177 230
q108 72 243 72q28 0 59 -3l17 -3q284 -38 284 -290q0 -20 -2 -42h-100zM866 1824l160 271h213l-270 -272z" />
    <glyph glyph-name="sacute" unicode="&#x15b;" horiz-adv-x="1053" 
d="M860 990q-10 140 -156 164l-7 2q-17 3 -33 3q-46 0 -94 -21q-67 -35 -93 -109q-3 -10 -5 -20q-2 -13 -2 -26q0 -76 92 -103q118 -35 280.5 -86.5t199.5 -164.5q12 -35 12 -80q0 -32 -6 -70q-9 -51 -30 -112l-16 -47q-162 -349 -476 -349q-43 0 -90 7q-279 50 -279 338
q0 62 13 135q5 29 12 59h131q-9 -36 -15 -68q-11 -62 -11 -114q0 -210 184 -244q31 -4 61 -4q229 0 352 258q10 25 20 52q14 41 20 76q5 28 5 51q0 24 -5 43q-20 76 -93 107.5t-249.5 79t-220.5 119.5q-26 41 -26 93q0 21 4 43q3 19 10 40q37 110 145 178q82 52 181 52
q29 0 61 -5l13 -2q217 -37 217 -233q0 -20 -2 -42h-104zM670 1429l160 271h213l-270 -272z" />
    <glyph glyph-name="Scircumflex" unicode="&#x15c;" horiz-adv-x="1307" 
d="M1094 1334q-20 184 -229 213l-10 1q-19 3 -38 3q-70 0 -142 -34q-95 -52 -129 -154q-3 -10 -4 -19q-4 -21 -4 -40q0 -112 134 -145q164 -42 375.5 -102t263.5 -198q19 -47 19 -112q0 -47 -10 -103q-10 -57 -31 -124l-20 -62q-200 -464 -619 -464q-44 0 -91 5
q-367 54 -367 439q0 85 18 186q6 37 15 77h131q-10 -43 -17 -83q-16 -89 -16 -162q0 -304 271 -344q36 -4 69 -4q330 0 489 362q13 34 24 69q14 47 21 88t7 75q0 37 -8 67q-31 103 -134 143.5t-334.5 94.5t-290.5 142q-35 53 -35 123q0 27 5 57q3 20 9 41q44 141 177 230
q108 72 243 72q28 0 59 -3l17 -3q284 -38 284 -290q0 -20 -2 -42h-100zM1209 1779l-212 179l-270 -173l-63 82v1l359 223l278 -223v-8z" />
    <glyph glyph-name="scircumflex" unicode="&#x15d;" horiz-adv-x="1053" 
d="M860 990q-10 140 -156 164l-7 2q-17 3 -33 3q-46 0 -94 -21q-67 -35 -93 -109q-3 -10 -5 -20q-2 -13 -2 -26q0 -76 92 -103q118 -35 280.5 -86.5t199.5 -164.5q12 -35 12 -80q0 -32 -6 -70q-9 -51 -30 -112l-16 -47q-162 -349 -476 -349q-43 0 -90 7q-279 50 -279 338
q0 62 13 135q5 29 12 59h131q-9 -36 -15 -68q-11 -62 -11 -114q0 -210 184 -244q31 -4 61 -4q229 0 352 258q10 25 20 52q14 41 20 76q5 28 5 51q0 24 -5 43q-20 76 -93 107.5t-249.5 79t-220.5 119.5q-26 41 -26 93q0 21 4 43q3 19 10 40q37 110 145 178q82 52 181 52
q29 0 61 -5l13 -2q217 -37 217 -233q0 -20 -2 -42h-104zM1013 1384l-212 179l-270 -173l-63 82v1l359 223l278 -223q0 -4 -1 -8z" />
    <glyph glyph-name="Scedilla" unicode="&#x15e;" horiz-adv-x="1307" 
d="M637 -6q-37 1 -78 5q-367 54 -367 439q0 85 18 186q6 37 15 77h131q-10 -43 -17 -83q-16 -89 -16 -162q0 -304 271 -344q36 -4 69 -4q330 0 489 362q13 34 24 69q14 47 21 88t7 75q0 37 -8 67q-31 103 -134 143.5t-334.5 94.5t-290.5 142q-35 53 -35 123q0 27 5 57
q3 20 9 41q44 141 177 230q108 72 243 72q28 0 59 -3l17 -3q284 -38 284 -290q0 -20 -2 -42h-100q-20 184 -229 213l-10 1q-19 3 -38 3q-70 0 -142 -34q-95 -52 -129 -154q-3 -10 -4 -19q-4 -21 -4 -40q0 -112 134 -145q164 -42 375.5 -102t263.5 -198q19 -47 19 -112
q0 -47 -10 -103q-10 -57 -31 -124l-20 -62q-189 -439 -574 -463l-12 -54q85 -31 96 -107q1 -12 1 -24q0 -16 -2 -31q-9 -47 -43 -90q-66 -82 -159 -88q-12 -2 -22 -2q-69 0 -127 38l61 69q38 -17 69 -17h13q41 4 71 47q13 18 17 37q1 5 1 9q0 10 -3 19q-5 35 -39 52
q-33 16 -50 22z" />
    <glyph glyph-name="scedilla" unicode="&#x15f;" horiz-adv-x="1053" 
d="M498 -28q-31 1 -62 6q-279 50 -279 338q0 62 13 135q5 29 12 59h131q-9 -36 -15 -68q-11 -62 -11 -114q0 -210 184 -244q31 -4 61 -4q229 0 352 258q10 25 20 52q14 41 20 76q5 28 5 51q0 24 -5 43q-20 76 -93 107.5t-249.5 79t-220.5 119.5q-26 41 -26 93q0 21 4 43
q3 19 10 40q37 110 145 178q82 52 181 52q29 0 61 -5l13 -2q217 -37 217 -233q0 -20 -2 -42h-104q-10 140 -156 164l-7 2q-17 3 -33 3q-46 0 -94 -21q-67 -35 -93 -109q-3 -10 -5 -20q-2 -13 -2 -26q0 -76 92 -103q118 -35 280.5 -86.5t199.5 -164.5q12 -35 12 -80
q0 -32 -6 -70q-9 -51 -30 -112l-16 -47q-152 -328 -439 -348l-6 -31q84 -31 96 -107q1 -11 1 -21q0 -18 -3 -34q-8 -47 -43 -90q-65 -82 -158 -88q-13 -2 -23 -2q-69 0 -127 38l61 69q38 -17 69 -17h13q42 4 72 47q13 18 16 37q1 6 1 12q0 8 -2 16q-6 35 -40 52
q-32 16 -49 22z" />
    <glyph glyph-name="Scaron" unicode="&#x160;" horiz-adv-x="1307" 
d="M1094 1334q-20 184 -229 213l-10 1q-19 3 -38 3q-70 0 -142 -34q-95 -52 -129 -154q-3 -10 -4 -19q-4 -21 -4 -40q0 -112 134 -145q164 -42 375.5 -102t263.5 -198q19 -47 19 -112q0 -47 -10 -103q-10 -57 -31 -124l-20 -62q-200 -464 -619 -464q-44 0 -91 5
q-367 54 -367 439q0 85 18 186q6 37 15 77h131q-10 -43 -17 -83q-16 -89 -16 -162q0 -304 271 -344q36 -4 69 -4q330 0 489 362q13 34 24 69q14 47 21 88t7 75q0 37 -8 67q-31 103 -134 143.5t-334.5 94.5t-290.5 142q-35 53 -35 123q0 27 5 57q3 20 9 41q44 141 177 230
q108 72 243 72q28 0 59 -3l17 -3q284 -38 284 -290q0 -20 -2 -42h-100zM1327 2010l-2 -8l-357 -223l-280 223l92 83l209 -173l275 179z" />
    <glyph glyph-name="scaron" unicode="&#x161;" horiz-adv-x="1053" 
d="M860 990q-10 140 -156 164l-7 2q-17 3 -33 3q-46 0 -94 -21q-67 -35 -93 -109q-3 -10 -5 -20q-2 -13 -2 -26q0 -76 92 -103q118 -35 280.5 -86.5t199.5 -164.5q12 -35 12 -80q0 -32 -6 -70q-9 -51 -30 -112l-16 -47q-162 -349 -476 -349q-43 0 -90 7q-279 50 -279 338
q0 62 13 135q5 29 12 59h131q-9 -36 -15 -68q-11 -62 -11 -114q0 -210 184 -244q31 -4 61 -4q229 0 352 258q10 25 20 52q14 41 20 76q5 28 5 51q0 24 -5 43q-20 76 -93 107.5t-249.5 79t-220.5 119.5q-26 41 -26 93q0 21 4 43q3 19 10 40q37 110 145 178q82 52 181 52
q29 0 61 -5l13 -2q217 -37 217 -233q0 -20 -2 -42h-104zM1131 1615q-1 -4 -3 -8l-356 -223l-281 223l93 83l209 -173l275 179z" />
    <glyph glyph-name="Tcommaaccent" unicode="&#x162;" horiz-adv-x="1184" 
d="M579 0h-45l266 1508h-464l20 115h1044l-20 -115h-465l-266 -1508h-14l-13 -59q84 -31 96 -107q1 -11 1 -21q0 -18 -3 -34q-8 -47 -43 -90q-65 -82 -158 -88q-13 -2 -23 -2q-69 0 -127 38l61 69q38 -17 69 -17h13q42 4 72 47q13 18 16 37q1 6 1 12q0 8 -2 16q-6 35 -40 52
q-32 16 -49 22z" />
    <glyph glyph-name="tcommaaccent" unicode="&#x163;" horiz-adv-x="617" 
d="M296 0h-48l195 1106h-198l21 121h198l50 280h119l-50 -280h200l-21 -121h-200l-195 -1106h-15l-13 -59q84 -31 96 -107q1 -11 1 -21q0 -18 -3 -34q-8 -47 -43 -90q-65 -82 -158 -88q-13 -2 -23 -2q-69 0 -127 38l61 69q38 -17 69 -17h13q42 4 71 47q14 18 17 37q1 6 1 11
q0 9 -2 17q-6 35 -40 52q-32 16 -49 22z" />
    <glyph glyph-name="Tcaron" unicode="&#x164;" horiz-adv-x="1184" 
d="M534 0l266 1508h-464l20 115h1044l-20 -115h-465l-266 -1508h-115zM1253 2010q-1 -4 -3 -8l-356 -223l-281 223l93 83l208 -173l276 179z" />
    <glyph glyph-name="tcaron" unicode="&#x165;" horiz-adv-x="806" 
d="M248 0l195 1106h-198l21 121h198l50 280h119l-50 -280h200l-21 -121h-200l-195 -1106h-119zM954 1427q-28 8 -46 30q-26 31 -26 74q0 14 3 29q10 55 58.5 97t107.5 42q60 0 94 -42q25 -32 25 -72q0 -12 -2 -25q-10 -58 -63.5 -128.5t-205.5 -203.5l-2 2l-56 78v4
q68 59 113 115z" />
    <glyph glyph-name="Tbar" unicode="&#x166;" horiz-adv-x="1184" 
d="M798 842l-149 -842h-115l149 842h-318l20 115h318l97 551h-464l20 115h1044l-20 -115h-465l-97 -551h319l-20 -115h-319z" />
    <glyph glyph-name="tbar" unicode="&#x167;" horiz-adv-x="569" 
d="M474 742l-131 -742h-119l131 742h-198l20 115h198l44 249h-198l22 121h198l49 280h119l-49 -280h200l-22 -121h-200l-44 -249h200l-20 -115h-200z" />
    <glyph glyph-name="Utilde" unicode="&#x168;" horiz-adv-x="1361" 
d="M704 121q410 4 485 426l189 1075h119l-194 -1102q-91 -516 -621 -520q-453 3 -453 380q0 65 13 140l194 1102h123l-189 -1075q-12 -65 -12 -121q0 -302 346 -305zM724 1898q103 103 186 103h10q48 -4 120.5 -39.5t112.5 -38.5h4q39 0 106 56l45 -83q-89 -77 -162 -77h-11
q-50 4 -123 40.5t-110 39.5h-8q-65 0 -128 -73h-4z" />
    <glyph glyph-name="utilde" unicode="&#x169;" horiz-adv-x="1140" 
d="M1087 1226h119l-216 -1226h-121l20 110q-123 -123 -350 -123q-308 0 -308 370q0 99 22 225l113 644h118l-108 -617q-24 -134 -24 -233q0 -280 190 -280h18q275 0 380 294zM543 1503q103 103 186 103h10q49 -4 121 -39.5t113 -38.5h4q39 0 106 56l44 -83q-89 -77 -162 -77
h-11q-50 4 -123 40.5t-110 39.5h-8q-65 0 -127 -73h-4z" />
    <glyph glyph-name="Umacron" unicode="&#x16a;" horiz-adv-x="1361" 
d="M704 121q410 4 485 426l189 1075h119l-194 -1102q-91 -516 -621 -520q-453 3 -453 380q0 65 13 140l194 1102h123l-189 -1075q-12 -65 -12 -121q0 -302 346 -305zM709 1907q4 3 10 6h609l-21 -115h-615l-2 2z" />
    <glyph glyph-name="umacron" unicode="&#x16b;" horiz-adv-x="1140" 
d="M1087 1226h119l-216 -1226h-121l20 110q-123 -123 -350 -123q-308 0 -308 370q0 99 22 225l113 644h118l-108 -617q-24 -134 -24 -233q0 -280 190 -280h18q275 0 380 294zM528 1512q4 3 10 6h609l-20 -115h-615q-2 1 -3 2z" />
    <glyph glyph-name="Ubreve" unicode="&#x16c;" horiz-adv-x="1361" 
d="M704 121q410 4 485 426l189 1075h119l-194 -1102q-91 -516 -621 -520q-453 3 -453 380q0 65 13 140l194 1102h123l-189 -1075q-12 -65 -12 -121q0 -302 346 -305zM825 2016q51 -83 182 -92h27q133 9 215 92h111q-113 -193 -350 -207h-24q-229 14 -272 207h111z" />
    <glyph glyph-name="ubreve" unicode="&#x16d;" horiz-adv-x="1140" 
d="M1087 1226h119l-216 -1226h-121l20 110q-123 -123 -350 -123q-308 0 -308 370q0 99 22 225l113 644h118l-108 -617q-24 -134 -24 -233q0 -280 190 -280h18q275 0 380 294zM644 1621q51 -83 182 -92h27q133 9 215 92h111q-113 -193 -349 -207h-24q-230 14 -273 207h111z
" />
    <glyph glyph-name="Uring" unicode="&#x16e;" horiz-adv-x="1361" 
d="M704 121q410 4 485 426l189 1075h119l-194 -1102q-91 -516 -621 -520q-453 3 -453 380q0 65 13 140l194 1102h123l-189 -1075q-12 -65 -12 -121q0 -302 346 -305zM1171.5 2052.5q62.5 -62.5 62.5 -148.5q0 -90 -62.5 -150.5t-150.5 -60.5q-90 0 -150.5 60.5t-60.5 150.5
q0 86 60.5 148.5t150.5 62.5q88 0 150.5 -62.5zM1021 2003q-39 0 -67.5 -30t-28.5 -69q0 -41 28.5 -68.5t67.5 -27.5q41 0 69.5 27.5t28.5 68.5q0 39 -28.5 69t-69.5 30z" />
    <glyph glyph-name="uring" unicode="&#x16f;" horiz-adv-x="1140" 
d="M1087 1226h119l-216 -1226h-121l20 110q-123 -123 -350 -123q-308 0 -308 370q0 99 22 225l113 644h118l-108 -617q-24 -134 -24 -233q0 -280 190 -280h18q275 0 380 294zM991.5 1652.5q62.5 -62.5 62.5 -148.5q0 -90 -62.5 -150.5t-150.5 -60.5q-90 0 -150.5 60.5
t-60.5 150.5q0 86 60.5 148.5t150.5 62.5q88 0 150.5 -62.5zM841 1603q-39 0 -67.5 -30t-28.5 -69q0 -41 28.5 -68.5t67.5 -27.5q41 0 69.5 27.5t28.5 68.5q0 39 -28.5 69t-69.5 30z" />
    <glyph glyph-name="Uhungarumlaut" unicode="&#x170;" horiz-adv-x="1361" 
d="M704 121q410 4 485 426l189 1075h119l-194 -1102q-91 -516 -621 -520q-453 3 -453 380q0 65 13 140l194 1102h123l-189 -1075q-12 -65 -12 -121q0 -302 346 -305zM840 1824l160 271h213l-270 -272z" />
    <glyph glyph-name="uhungarumlaut" unicode="&#x171;" horiz-adv-x="1140" 
d="M1087 1226h119l-216 -1226h-121l20 110q-123 -123 -350 -123q-308 0 -308 370q0 99 22 225l113 644h118l-108 -617q-24 -134 -24 -233q0 -280 190 -280h18q275 0 380 294zM660 1429l160 271h213l-270 -272z" />
    <glyph glyph-name="Uogonek" unicode="&#x172;" horiz-adv-x="1361" 
d="M634 1q-405 23 -405 379q0 64 13 140l194 1102h123l-189 -1075q-12 -66 -12 -121q0 -302 345 -305q411 4 486 426l189 1075h119l-194 -1102q-86 -489 -567 -518q-43 -44 -51 -90q-2 -11 -2 -23q0 -15 3 -30v-1l5 -8h-1v-5q38 -70 136 -70q18 0 37 3l28 -46
q-80 -23 -146 -23q-141 0 -185 91q-2 2 -2 4v5l-1 3q-5 18 -5 36q0 13 3 27q11 65 79 126z" />
    <glyph glyph-name="uogonek" unicode="&#x173;" horiz-adv-x="1140" 
d="M633 -7q-45 -6 -94 -6q-308 0 -308 370q0 99 22 225l113 644h118l-108 -617q-24 -134 -24 -233q0 -280 190 -280h18q275 0 380 294l147 836h119l-216 -1226h-121l20 110q-44 -44 -102 -72q-61 -59 -73 -123q-2 -14 -2 -29q0 -17 3 -35v-2l5 -10h-2v-3q0 -2 1 -3
q40 -84 148 -84q20 0 40 3l30 -55q-88 -28 -161 -28q-154 0 -201 110q-1 2 -3 5l1 6l-1 4q-4 20 -4 40q0 18 3 36q11 63 62 123z" />
    <glyph glyph-name="Wcircumflex" unicode="&#x174;" horiz-adv-x="2017" 
d="M1052 625q-63 287 -63 606q0 190 22 391h129q-16 -184 -16 -354q0 -635 217 -1090q483 578 710 1444h127q-230 -956 -874 -1653q-134 235 -212 500q-170 -264 -388 -500q-315 551 -315 1263q0 189 22 390h129q-16 -184 -16 -354q0 -635 217 -1090q172 205 311 447z
M1564 1779l-212 179l-270 -173l-63 82v1l359 223l278 -223v-8z" />
    <glyph glyph-name="wcircumflex" unicode="&#x175;" horiz-adv-x="1590" 
d="M818 477q-34 166 -34 397q0 164 17 360h119q-18 -163 -18 -312q0 -136 15 -260q13 -93 33 -179q45 -172 119 -321q372 426 508 1072h131q-222 -845 -675 -1277q-112 164 -177 369q-134 -205 -306 -369q-245 351 -245 976q0 143 13 301h119q-19 -162 -19 -310
q0 -443 168 -762q131 151 232 315zM1281 1384l-212 179l-269 -173l-64 82v1l359 223l278 -223v-8z" />
    <glyph glyph-name="Ycircumflex" unicode="&#x176;" horiz-adv-x="1194" 
d="M798 822h1l-145 -822h-115l145 822h1l-6 17l-293 783h131l249 -664l483 664h131l-570 -783zM1153 1779l-213 179l-269 -173l-64 82v1l360 223l277 -223q1 -2 1 -4t-1 -4z" />
    <glyph glyph-name="ycircumflex" unicode="&#x177;" horiz-adv-x="1090" 
d="M849 27l15 83q-123 -123 -350 -123q-308 0 -308 370q0 99 22 225l113 644h118l-108 -617q-24 -134 -24 -233q0 -280 190 -280h18q275 0 380 294l147 836h119l-216 -1226q-133 -372 -511 -381q-151 1 -236 75l111 76q55 -43 143 -44q281 8 374 301h3zM1031 1384l-212 179
l-270 -173l-63 82v1l359 223l278 -223v-8z" />
    <glyph glyph-name="Ydieresis" unicode="&#x178;" horiz-adv-x="1194" 
d="M798 822h1l-145 -822h-115l145 822h1l-6 17l-293 783h131l249 -664l483 664h131l-570 -783zM854 1966q29 -28 29 -67q0 -36 -29 -63t-70 -27q-37 0 -65.5 27t-28.5 63q0 39 28.5 67t65.5 28q41 0 70 -28zM1130.5 1966q28.5 -28 28.5 -67q0 -36 -28.5 -63t-67.5 -27
q-41 0 -69 27t-28 63q0 39 28 67t69 28q39 0 67.5 -28z" />
    <glyph glyph-name="Zacute" unicode="&#x179;" horiz-adv-x="1260" 
d="M1137 1507h-771l20 115h958l-1028 -1507h864l-20 -115h-1052zM844 1824l159 271h213l-270 -272z" />
    <glyph glyph-name="zacute" unicode="&#x17a;" horiz-adv-x="1100" 
d="M327 115h693l-20 -115h-881l759 1112h-582l20 115h769zM694 1429l160 271h213l-270 -272z" />
    <glyph glyph-name="Zdotaccent" unicode="&#x17b;" horiz-adv-x="1260" 
d="M1137 1507h-771l20 115h958l-1028 -1507h864l-20 -115h-1052zM1077 2047q41 -43 41 -100t-41 -98t-101 -41q-59 0 -100 41t-41 98t41 100t100 43q60 0 101 -43z" />
    <glyph glyph-name="zdotaccent" unicode="&#x17c;" horiz-adv-x="1100" 
d="M327 115h693l-20 -115h-881l759 1112h-582l20 115h769zM947 1702q41 -43 41 -100t-41 -98t-101 -41q-59 0 -100 41t-41 98t41 100t100 43q60 0 101 -43z" />
    <glyph glyph-name="Zcaron" unicode="&#x17d;" horiz-adv-x="1260" 
d="M1137 1507h-771l20 115h958l-1028 -1507h864l-20 -115h-1052zM1303 2010q0 -4 -2 -8l-356 -223l-281 223l93 83l208 -173l276 179z" />
    <glyph glyph-name="zcaron" unicode="&#x17e;" horiz-adv-x="1100" 
d="M327 115h693l-20 -115h-881l759 1112h-582l20 115h769zM1154 1615q-1 -4 -3 -8l-356 -223l-281 223l93 83l208 -173l276 179z" />
    <glyph glyph-name="longs" unicode="&#x17f;" horiz-adv-x="757" 
d="M449 1377q74 421 373 443h21q257 0 257 -285v-13l-117 -39v17q0 207 -167 207q-190 -10 -243 -309l-315 -1789h-121z" />
    <glyph glyph-name="florin" unicode="&#x192;" horiz-adv-x="757" 
d="M206 -7h-1l216 1113h-106l23 117h106l30 154q82 421 381 443h21q252 0 252 -275v-23l-118 -39q1 13 1 26q0 198 -164 198q-176 -9 -239 -266h1l-42 -218h301l-23 -117h-301l-204 -1049q-82 -421 -381 -443h-34l22 114q10 -1 20 -1q176 9 239 266z" />
    <glyph glyph-name="Aringacute" unicode="&#x1fa;" horiz-adv-x="1434" 
d="M1013 1687q-36 0 -66.5 -27.5t-37.5 -63.5q-1 -8 -1 -16q0 -27 17 -47q21 -25 57 -25q38 0 68.5 25t36.5 63q2 9 2 17q0 26 -16 47q-22 27 -60 27zM540 488l-264 -488h-126l739 1372h140l255 -1372h-125l-92 488h-527zM1192 1596q-14 -82 -81 -137.5t-148 -55.5
q-82 0 -127 56q-35 42 -35 100q0 18 3 37q14 79 79.5 136t147.5 57q81 0 128 -57q36 -44 36 -101q0 -17 -3 -35zM977 1824l159 271h213l-270 -272zM602 603h443l-115 606z" />
    <glyph glyph-name="aringacute" unicode="&#x1fb;" horiz-adv-x="966" 
d="M274 617q-8 -39 -14 -75q-19 -104 -19 -184q0 -261 198 -261h16q236 0 323 252l108 609q-129 50 -235 50q-291 0 -377 -391zM742 1327q-36 0 -66.5 -27.5t-37.5 -63.5q-1 -8 -1 -16q0 -27 17 -47q21 -25 57 -25q38 0 68.5 25t36.5 63q2 9 2 17q0 26 -16 47q-22 27 -60 27
zM854 1111q30 -8 62 -19h117l-14 -77h2l-124 -708q-2 -21 -2 -41q0 -121 84 -182l-100 -101q-91 72 -106 144q-135 -141 -340 -141q-305 0 -305 343q0 85 19 191q9 51 22 105q98 414 384 491q-23 36 -23 83q0 18 3 37q14 79 80 136q58 50 128 56l-79 1l160 271h213
l-269 -271q77 -2 122 -57q36 -44 36 -101q0 -17 -3 -35q-13 -73 -67 -125z" />
    <glyph glyph-name="AEacute" unicode="&#x1fc;" horiz-adv-x="1813" 
d="M1016 1541l-403 -830h256zM1031 1621v1h785l-21 -119h-662l-107 -606h464l-21 -119h-464l-116 -659h735l-21 -119h-859l105 596h-291l-287 -596h-121l783 1622h97zM1145 1824l159 271h213l-270 -272z" />
    <glyph glyph-name="aeacute" unicode="&#x1fd;" horiz-adv-x="1814" 
d="M272 443q-4 -33 -4 -63q0 -250 270 -250h294l61 346v4q0 290 -273 290q-293 -8 -343 -291q-3 -18 -5 -36zM1051 1429l160 271h213l-270 -272zM1501 1137q-12 1 -23 1q-18 2 -36 2q-194 0 -348 -265q114 -6 207 -6q395 0 414 107l1 7v12q0 128 -215 142zM951 117
q-2 2 -3 4l-21 -121h-401q-382 0 -382 332q0 47 8 102l4 28q74 415 481 415q218 0 300 -114q8 29 16 56l3 16q1 15 1 30q0 272 -268 280q-88 -1 -159 -44l-83 76q111 74 262 75q288 -7 352 -228q186 232 436 232q24 0 49 -2q291 -24 291 -240q0 -19 -2 -40l-2 -11
q-37 -207 -572 -207q-91 0 -196 6q-9 -36 -16 -72l-21 -118q-13 -89 -13 -161q0 -324 252 -324q14 0 30 1q346 39 445 442h100q-135 -547 -614 -553q-197 11 -277 140z" />
    <glyph glyph-name="Oslashacute" unicode="&#x1fe;" horiz-adv-x="1415" 
d="M414 51q-205 133 -205 507q0 117 20 259q176 842 774 842q95 0 171 -21l60 125l119 -38l-65 -137q208 -131 208 -504q0 -121 -22 -267q-172 -840 -768 -840q-98 0 -176 22l-79 -166l-124 35zM1227 1461l-641 -1344q62 -19 139 -19q479 0 620 719q22 138 22 249
q0 282 -140 395zM474 175l643 1343q-62 18 -138 18q-482 0 -617 -719q-24 -142 -24 -256q0 -274 136 -386zM921 1824l160 271h213l-270 -272z" />
    <glyph glyph-name="oslashacute" unicode="&#x1ff;" horiz-adv-x="1092" 
d="M309 42q-141 104 -141 372q0 99 20 222q149 637 583 637q65 0 119 -15l94 196l102 -33l-99 -207q154 -107 154 -407q0 -79 -11 -171q-133 -660 -588 -660q-76 0 -137 18l-95 -199l-105 30zM927 1087l-464 -972q45 -15 101 -15q338 0 442 535q12 89 12 162q0 205 -91 290z
M371 173l462 966q-38 10 -84 10q-324 0 -443 -514q-16 -103 -16 -187q0 -189 81 -275zM690 1429l160 271h213l-270 -272z" />
    <glyph glyph-name="circumflex" unicode="&#x2c6;" horiz-adv-x="738" 
d="M855 1384l-212 179l-269 -173l-64 82v1l359 223l278 -223v-8z" />
    <glyph glyph-name="caron" unicode="&#x2c7;" horiz-adv-x="738" 
d="M972 1615q0 -4 -2 -8l-356 -223l-281 223l93 83l208 -173l276 179z" />
    <glyph glyph-name="uni02C9" unicode="&#x2c9;" horiz-adv-x="718" 
d="M317 1512q4 3 10 6h609l-20 -115h-615q-2 1 -3 2z" />
    <glyph glyph-name="breve" unicode="&#x2d8;" horiz-adv-x="746" 
d="M447 1621q51 -83 182 -92h27q133 9 215 92h111q-113 -193 -349 -207h-24q-230 14 -273 207h111z" />
    <glyph glyph-name="dotaccent" unicode="&#x2d9;" horiz-adv-x="383" 
d="M577 1702q41 -43 41 -100t-41 -98t-101 -41q-59 0 -100 41t-41 98t41 100t100 43q60 0 101 -43z" />
    <glyph glyph-name="ring" unicode="&#x2da;" horiz-adv-x="524" 
d="M711.5 1657.5q62.5 -62.5 62.5 -148.5q0 -90 -62.5 -150.5t-150.5 -60.5q-90 0 -150.5 60.5t-60.5 150.5q0 86 60.5 148.5t150.5 62.5q88 0 150.5 -62.5zM561 1608q-39 0 -67.5 -30t-28.5 -69q0 -41 28.5 -68.5t67.5 -27.5q41 0 69.5 27.5t28.5 68.5q0 39 -28.5 69
t-69.5 30z" />
    <glyph glyph-name="ogonek" unicode="&#x2db;" horiz-adv-x="496" 
d="M382 -363q-88 -28 -161 -28q-154 0 -200 110q-2 2 -3 5l1 6l-2 4q-3 19 -3 38t3 38q27 151 279 284l17 -55q-136 -86 -153 -184q-3 -14 -3 -29q0 -17 4 -35l-1 -2l5 -10h-2q0 -4 1 -6q41 -84 149 -84q20 0 39 3z" />
    <glyph glyph-name="tilde" unicode="&#x2dc;" horiz-adv-x="684" 
d="M315 1503q103 103 186 103h10q48 -4 120.5 -39.5t112.5 -38.5h4q39 0 106 56l45 -83q-89 -77 -162 -77h-11q-50 4 -123 40.5t-110 39.5h-8q-65 0 -128 -73h-4z" />
    <glyph glyph-name="hungarumlaut" unicode="&#x2dd;" horiz-adv-x="1024" 
d="M252 1429l160 271h213l-270 -272zM552 1429l160 271h213l-270 -272z" />
    <glyph glyph-name="tonos" unicode="&#x384;" horiz-adv-x="317" 
d="M302 1429l52 271h213l-168 -272z" />
    <glyph glyph-name="dieresistonos" unicode="&#x385;" horiz-adv-x="769" 
d="M558 1429l51 271h213l-167 -272zM474 1576q29 -28 29 -67q0 -36 -29 -63t-70 -27q-37 0 -65.5 27t-28.5 63q0 39 28.5 67t65.5 28q41 0 70 -28zM950.5 1576q28.5 -28 28.5 -67q0 -36 -28.5 -63t-67.5 -27q-41 0 -69 27t-28 63q0 39 28 67t69 28q39 0 67.5 -28z" />
    <glyph glyph-name="Alphatonos" unicode="&#x386;" horiz-adv-x="1334" 
d="M508 596l-287 -596h-121l783 1622h140l211 -1622h-120l-78 596h-528zM563 711h458l-97 748zM302 1429l52 271h213l-168 -272z" />
    <glyph glyph-name="anoteleia" unicode="&#x387;" horiz-adv-x="293" 
d="M474.5 1576q28.5 -28 28.5 -67q0 -36 -28.5 -63t-67.5 -27q-41 0 -69 27t-28 63q0 39 28 67t69 28q39 0 67.5 -28z" />
    <glyph glyph-name="Epsilontonos" unicode="&#x388;" horiz-adv-x="1108" 
d="M436 1622h785l-21 -119h-662l-107 -606h464l-21 -119h-464l-116 -659h735l-21 -119h-858zM102 1429l52 271h213l-168 -272z" />
    <glyph glyph-name="Etatonos" unicode="&#x389;" horiz-adv-x="1261" 
d="M461 1622h115l-130 -736h681l130 736h115l-286 -1622h-115l136 771h-681l-136 -771h-115zM102 1429l52 271h213l-168 -272z" />
    <glyph glyph-name="Iotatonos" unicode="&#x38a;" horiz-adv-x="515" 
d="M601 1622l-286 -1622h-115l286 1622h115zM102 1429l52 271h213l-168 -272z" />
    <glyph glyph-name="Omicrontonos" unicode="&#x38c;" horiz-adv-x="1415" 
d="M362 817q-24 -142 -24 -257q0 -462 387 -462q479 0 620 719q22 137 22 248q0 471 -388 471q-482 0 -617 -719zM229 817q176 842 774 842q493 0 493 -575q0 -121 -22 -267q-172 -840 -768 -840q-497 0 -497 581q0 118 20 259zM202 1429l52 271h213l-168 -272z" />
    <glyph glyph-name="Upsilontonos" unicode="&#x38e;" horiz-adv-x="1194" 
d="M798 822h1l-145 -822h-115l145 822h1l-6 17l-293 783h131l249 -664l483 664h131l-570 -783zM102 1429l52 271h213l-168 -272z" />
    <glyph glyph-name="Omegatonos" unicode="&#x38f;" horiz-adv-x="1415" 
d="M837 115h25q362 94 481 702q22 137 22 248q0 471 -388 471q-482 0 -617 -719q-24 -143 -24 -257q0 -372 252 -445h59l-20 -115h-593l20 115h285q-130 145 -130 443q0 118 20 259q176 842 774 842q493 0 493 -575q0 -121 -22 -267q-102 -500 -355 -702h282l-20 -115h-564z
M202 1429l52 271h213l-168 -272z" />
    <glyph glyph-name="iotadieresistonos" unicode="&#x390;" horiz-adv-x="817" 
d="M468 -3h-121l217 1228h121zM608 1429l51 271h213l-167 -272zM524 1576q29 -28 29 -67q0 -36 -29 -63t-70 -27q-37 0 -65.5 27t-28.5 63q0 39 28.5 67t65.5 28q41 0 70 -28zM1000.5 1576q28.5 -28 28.5 -67q0 -36 -28.5 -63t-67.5 -27q-41 0 -69 27t-28 63q0 39 28 67
t69 28q39 0 67.5 -28z" />
    <glyph glyph-name="Alpha" unicode="&#x391;" horiz-adv-x="1334" 
d="M508 596l-287 -596h-121l783 1622h140l211 -1622h-120l-78 596h-528zM563 711h458l-97 748z" />
    <glyph glyph-name="Beta" unicode="&#x392;" horiz-adv-x="1205" 
d="M150 0l286 1622l357 -2q373 0 373 -297q0 -29 -4 -61l-4 -19q-38 -217 -198 -305q234 -102 234 -374q0 -47 -7 -99q-97 -465 -639 -465h-398zM444 983h363q201 49 240 272q3 23 3 43q0 192 -254 205h-260zM292 119h299q416 0 481 366q5 38 5 73q0 300 -385 300h-270z" />
    <glyph glyph-name="Gamma" unicode="&#x393;" horiz-adv-x="999" 
d="M1210 1621l-20 -115h-659l-266 -1506h-115l286 1622h115v-1h659z" />
    <glyph glyph-name="uni0394" unicode="&#x394;" horiz-adv-x="1334" 
d="M100 0l783 1622h140l211 -1622h-1134zM276 115h823l-175 1344z" />
    <glyph glyph-name="Epsilon" unicode="&#x395;" horiz-adv-x="1108" 
d="M436 1622h785l-21 -119h-662l-107 -606h464l-21 -119h-464l-116 -659h735l-21 -119h-858z" />
    <glyph glyph-name="Zeta" unicode="&#x396;" horiz-adv-x="1260" 
d="M1137 1507h-771l20 115h958l-1028 -1507h864l-20 -115h-1052z" />
    <glyph glyph-name="Eta" unicode="&#x397;" horiz-adv-x="1261" 
d="M461 1622h115l-130 -736h681l130 736h115l-286 -1622h-115l136 771h-681l-136 -771h-115z" />
    <glyph glyph-name="Theta" unicode="&#x398;" horiz-adv-x="1415" 
d="M360 817q-24 -142 -24 -257q0 -462 387 -462q479 0 620 719q22 137 22 248q0 471 -388 471q-482 0 -617 -719zM229 817q176 842 774 842q493 0 493 -575q0 -121 -22 -267q-172 -840 -768 -840q-497 0 -497 581q0 118 20 259zM1217 771h-746l20 115h746z" />
    <glyph glyph-name="Iota" unicode="&#x399;" horiz-adv-x="515" 
d="M601 1622l-286 -1622h-115l286 1622h115z" />
    <glyph glyph-name="Kappa" unicode="&#x39a;" horiz-adv-x="1374" 
d="M1398 1622l-504 -556l380 -1066h-131l-343 962l-391 -430l-94 -532h-115l286 1622h115l-158 -895l813 895h142z" />
    <glyph glyph-name="Lambda" unicode="&#x39b;" horiz-adv-x="1417" 
d="M1165 0q17 191 17 368q0 626 -217 1076q-479 -578 -711 -1444h-129q232 956 876 1653q314 -549 314 -1257q0 -192 -23 -396h-127z" />
    <glyph glyph-name="Mu" unicode="&#x39c;" horiz-adv-x="1650" 
d="M1670 1616l1 6h115l-286 -1622h-115l247 1400l-634 -791l1 -3h-139l3 3l-352 783l-245 -1388h-115l286 1622h115l398 -909z" />
    <glyph glyph-name="Nu" unicode="&#x39d;" horiz-adv-x="1333" 
d="M526 1622l611 -1371l242 1371h115l-286 -1622h-94l-629 1389l-245 -1389h-115l286 1622h115z" />
    <glyph glyph-name="Xi" unicode="&#x39e;" horiz-adv-x="1064" 
d="M389 1622h859l-21 -119h-859zM360 897h661l-21 -119h-661zM87 119h932l-21 -119h-932z" />
    <glyph glyph-name="Omicron" unicode="&#x39f;" horiz-adv-x="1415" 
d="M362 817q-24 -142 -24 -257q0 -462 387 -462q479 0 620 719q22 137 22 248q0 471 -388 471q-482 0 -617 -719zM229 817q176 842 774 842q493 0 493 -575q0 -121 -22 -267q-172 -840 -768 -840q-497 0 -497 581q0 118 20 259z" />
    <glyph glyph-name="Pi" unicode="&#x3a0;" horiz-adv-x="1274" 
d="M531 1506l-266 -1506h-115l286 1622h115v-1h744v1h115l-286 -1622h-115l266 1506h-744z" />
    <glyph glyph-name="Rho" unicode="&#x3a1;" horiz-adv-x="1110" 
d="M399 725l-128 -725h-121l286 1622h303q488 0 488 -344q0 -48 -10 -104q-79 -449 -644 -449h-174zM536 1505l-116 -659h172q447 0 505 328q7 38 7 72q0 259 -396 259h-172z" />
    <glyph glyph-name="Sigma" unicode="&#x3a3;" horiz-adv-x="899" 
d="M1110 1621l-20 -115h-629l47 -695l-293 -695h629l-20 -115l-774 -1l343 811l-57 811z" />
    <glyph glyph-name="Tau" unicode="&#x3a4;" horiz-adv-x="1184" 
d="M915 1508l-266 -1508h-115l266 1508h-464l20 115h1044l-20 -115h-465z" />
    <glyph glyph-name="Upsilon" unicode="&#x3a5;" horiz-adv-x="1194" 
d="M798 822h1l-145 -822h-115l145 822h1l-6 17l-293 783h131l249 -664l483 664h131l-570 -783z" />
    <glyph glyph-name="Phi" unicode="&#x3a6;" horiz-adv-x="1697" 
d="M1013 1259q-574 -39 -645 -446q-8 -46 -8 -88q0 -324 495 -361zM1128 1259l-158 -895q573 33 647 449q8 48 8 90q0 328 -497 356zM1034 1379l43 243h115l-43 -243q602 -34 602 -448q0 -57 -11 -120q-94 -533 -791 -569l-43 -242h-115l43 243q-602 45 -602 453
q0 54 11 115q91 515 791 568z" />
    <glyph glyph-name="Chi" unicode="&#x3a7;" horiz-adv-x="1196" 
d="M70 0l610 839l-293 783h131l249 -664l483 664h131l-570 -783l315 -839h-131l-270 720l-524 -720h-131z" />
    <glyph glyph-name="Psi" unicode="&#x3a8;" horiz-adv-x="1681" 
d="M883 564l186 1058h115l-186 -1058q567 44 638 449l107 609h124l-107 -611q-91 -514 -784 -568l-78 -443h-115l78 443q-593 48 -593 452q0 55 11 116l107 611h124l-107 -609q-8 -46 -8 -88q0 -322 488 -361z" />
    <glyph glyph-name="uni03A9" unicode="&#x3a9;" horiz-adv-x="1415" 
d="M837 115h25q362 94 481 702q22 137 22 248q0 471 -388 471q-482 0 -617 -719q-24 -143 -24 -257q0 -372 252 -445h59l-20 -115h-593l20 115h285q-130 145 -130 443q0 118 20 259q176 842 774 842q493 0 493 -575q0 -121 -22 -267q-102 -500 -355 -702h282l-20 -115h-564z
" />
    <glyph glyph-name="Iotadieresis" unicode="&#x3aa;" horiz-adv-x="515" 
d="M601 1622l-286 -1622h-115l286 1622h115zM534 1966q29 -28 29 -67q0 -36 -29 -63t-70 -27q-37 0 -65.5 27t-28.5 63q0 39 28.5 67t65.5 28q41 0 70 -28zM810.5 1966q28.5 -28 28.5 -67q0 -36 -28.5 -63t-67.5 -27q-41 0 -69 27t-28 63q0 39 28 67t69 28q39 0 67.5 -28z
" />
    <glyph glyph-name="Upsilondieresis" unicode="&#x3ab;" horiz-adv-x="1194" 
d="M798 822h1l-145 -822h-115l145 822h1l-6 17l-293 783h131l249 -664l483 664h131l-570 -783zM854 1966q29 -28 29 -67q0 -36 -29 -63t-70 -27q-37 0 -65.5 27t-28.5 63q0 39 28.5 67t65.5 28q41 0 70 -28zM1130.5 1966q28.5 -28 28.5 -67q0 -36 -28.5 -63t-67.5 -27
q-41 0 -69 27t-28 63q0 39 28 67t69 28q39 0 67.5 -28z" />
    <glyph glyph-name="alphatonos" unicode="&#x3ac;" horiz-adv-x="1310" 
d="M1057 391q-166 -416 -515 -416q-370 0 -370 463q0 80 11 174q129 660 588 660q358 0 372 -409l207 375l100 -52l-308 -562l109 -563l-118 -52zM1007 642v1q13 92 13 168q0 342 -270 342q-340 0 -447 -535q-10 -83 -10 -152q0 -362 272 -362q320 0 435 500v1q2 6 3 13z
M736 1429l160 271h213l-270 -272z" />
    <glyph glyph-name="epsilontonos" unicode="&#x3ad;" horiz-adv-x="936" 
d="M636 1429l160 271h213l-270 -272zM760 599h-123q-22 -1 -42 -1q-94 -5 -143 -29q-148 -72 -176 -229l-2 -11q-3 -20 -3 -38q0 -135 157 -178q54 -15 112 -15q133 0 287 75l53 -95q-221 -95 -391 -95q-100 0 -178 35q-182 80 -182 251q0 26 4 55l2 13q33 188 206 311
q-109 80 -109 209q0 29 6 60q33 187 238 286q86 41 185 41q139 0 299 -77l-73 -113q-126 74 -238 74q-49 0 -94 -15q-150 -50 -175 -191q-4 -22 -4 -43q0 -107 112 -148q31 -12 92 -14q29 2 95 2q45 0 107 -1h-1z" />
    <glyph glyph-name="etatonos" unicode="&#x3ae;" horiz-adv-x="1090" 
d="M778 -391l178 1008q6 31 11 60q17 97 17 174q0 257 -195 279h-18q-275 0 -380 -294l-147 -836h-119l216 1226h121l-19 -110q122 123 349 123h5q311 0 311 -352q0 -85 -18 -191q-5 -25 -10 -52l-181 -1035h-121zM636 1429l160 271h213l-270 -272z" />
    <glyph glyph-name="iotatonos" unicode="&#x3af;" horiz-adv-x="817" 
d="M468 -3h-121l217 1228h121zM552 1429l159 271h213l-270 -272z" />
    <glyph glyph-name="upsilondieresistonos" unicode="&#x3b0;" horiz-adv-x="1140" 
d="M1087 1226h119l-216 -1226h-121l20 110q-123 -123 -350 -123q-308 0 -308 370q0 99 22 225l113 644h118l-108 -617q-24 -134 -24 -233q0 -280 190 -280h18q275 0 380 294zM758 1429l51 271h213l-167 -272zM674 1576q29 -28 29 -67q0 -36 -29 -63t-70 -27q-37 0 -65.5 27
t-28.5 63q0 39 28.5 67t65.5 28q41 0 70 -28zM1150.5 1576q28.5 -28 28.5 -67q0 -36 -28.5 -63t-67.5 -27q-41 0 -69 27t-28 63q0 39 28 67t69 28q39 0 67.5 -28z" />
    <glyph glyph-name="alpha" unicode="&#x3b1;" horiz-adv-x="1310" 
d="M1057 391q-166 -416 -515 -416q-370 0 -370 463q0 80 11 174q129 660 588 660q358 0 372 -409l207 375l100 -52l-308 -562l109 -563l-118 -52zM1007 642v1q13 92 13 168q0 342 -270 342q-340 0 -447 -535q-10 -83 -10 -152q0 -362 272 -362q320 0 435 500v1q2 6 3 13z
" />
    <glyph glyph-name="beta" unicode="&#x3b2;" horiz-adv-x="1003" 
d="M643 942q80 26 147 84q80 68 108 228q7 40 7 75q0 82 -40 132q-57 71 -155 71q-100 0 -182.5 -71t-108.5 -219l-288 -1633h-110l285 1619q24 134 59 193q36 65 98 119q73 59 150 84q54 16 114 16q145 0 229 -101q60 -74 60 -190q0 -44 -9 -95q-41 -235 -227 -359
q76 -35 134 -102q87 -109 87 -249q0 -43 -8 -89q-43 -247 -251 -381q-138 -88 -314 -88q-92 0 -194 24l66 112q85 -29 163 -29q114 0 215 61q169 101 204 301q6 35 6 67q0 107 -66 191q-68 82 -171 114h-249l20 115h221z" />
    <glyph glyph-name="gamma" unicode="&#x3b3;" horiz-adv-x="1194" 
d="M728 427h1l-144 -818h-115l144 818h1l-6 17l-293 783h131l249 -664l483 664h131l-570 -783z" />
    <glyph glyph-name="delta" unicode="&#x3b4;" horiz-adv-x="1092" 
d="M1007 629q11 88 11 161q0 353 -268 353q-324 0 -443 -514q-16 -104 -16 -188q0 -347 274 -347q338 0 442 535zM804 1271q336 -20 336 -464q0 -79 -11 -172q-132 -660 -587 -660q-374 0 -374 439q0 99 19 221q132 560 483 628l-222 359h769l-20 -115h-532z" />
    <glyph glyph-name="epsilon" unicode="&#x3b5;" horiz-adv-x="936" 
d="M760 599h-123q-22 -1 -42 -1q-94 -5 -143 -29q-148 -72 -176 -229l-2 -11q-3 -20 -3 -38q0 -135 157 -178q54 -15 112 -15q133 0 287 75l53 -95q-221 -95 -391 -95q-100 0 -178 35q-182 80 -182 251q0 26 4 55l2 13q33 188 206 311q-109 80 -109 209q0 29 6 60
q33 187 238 286q86 41 185 41q139 0 299 -77l-73 -113q-126 74 -238 74q-49 0 -94 -15q-150 -50 -175 -191q-4 -22 -4 -43q0 -107 112 -148q31 -12 92 -14q29 2 95 2q45 0 107 -1h-1z" />
    <glyph glyph-name="zeta" unicode="&#x3b6;" horiz-adv-x="974" 
d="M1181 1622q-840 -837 -894 -1142q-4 -23 -4 -42q5 -299 250.5 -303.5t308.5 -60.5q50 -45 66 -121q1 -9 1 -19t-1 -21q-1 -12 -3 -23q-17 -97 -78.5 -166t-161.5 -93q-29 -7 -61 -9l-15 -2q-15 -1 -30 -1l18 104q14 0 29 1h8q17 1 32 5q47 11 92 42q54 44 65 108l2 16v19
q1 5 1 9q0 96 -303 103q-317 7 -331 363v16q0 28 5 59q61 347 747 1043h-532l20 115h769z" />
    <glyph glyph-name="eta" unicode="&#x3b7;" horiz-adv-x="1090" 
d="M778 -391l178 1008q6 31 11 60q17 97 17 174q0 257 -195 279h-18q-275 0 -380 -294l-147 -836h-119l216 1226h121l-19 -110q122 123 349 123h5q311 0 311 -352q0 -85 -18 -191q-5 -25 -10 -52l-181 -1035h-121z" />
    <glyph glyph-name="theta" unicode="&#x3b8;" horiz-adv-x="1297" 
d="M344 754q-14 -109 -14 -199q0 -438 337 -438q408 0 552 637h-875zM364 868h875q16 112 16 205q0 433 -343 433q-414 0 -548 -638zM223 754l20 114q164 762 693 762q443 0 443 -525q0 -108 -19 -237l-20 -114q-176 -761 -693 -761q-438 0 -438 550q0 97 14 211z" />
    <glyph glyph-name="iota" unicode="&#x3b9;" horiz-adv-x="817" 
d="M468 -3h-121l217 1228h121z" />
    <glyph glyph-name="kappa" unicode="&#x3ba;" horiz-adv-x="1114" 
d="M488 1228l-72 -405l372 405h151l-211 -243l312 -985h-148l-282 862l-228 -235l-111 -627h-121l217 1228h121z" />
    <glyph glyph-name="lambda" unicode="&#x3bb;" horiz-adv-x="1196" 
d="M624 1184l-137 438h131l508 -1622h-131l-319 1017l-475 -1017h-131z" />
    <glyph glyph-name="uni03BC" unicode="&#x3bc;" horiz-adv-x="1140" 
d="M360 504q-8 -69 -8 -127q0 -281 190 -281h18q275 0 380 294l147 836h119l-216 -1226h-121l19 110q-122 -123 -349 -123q-173 0 -250 117l-87 -495h-121l285 1617h118l-85 -482l3 2z" />
    <glyph glyph-name="nu" unicode="&#x3bd;" horiz-adv-x="1115" 
d="M1233 1234q-227 -845 -679 -1277q-254 443 -254 981q0 144 18 296l123 -3q-19 -161 -19 -309q0 -441 168 -760q372 426 514 1072h129z" />
    <glyph glyph-name="xi" unicode="&#x3be;" horiz-adv-x="1037" 
d="M568 1185q80 31 176 42l362 1l-22 -121l-331 -1q-314 -13 -407 -426q-10 -59 -10 -111q0 -248 238 -334q288 -105 351 -161q50 -45 56 -121q1 -9 1 -19t-1 -21q-1 -12 -3 -23q-18 -97 -101 -177q-71 -68 -151 -92q-29 -7 -61 -9l-15 -2q-15 -1 -30 -1l20 114q14 0 28 1h8
q17 1 33 5q47 11 92 42q53 44 65 108q1 8 1 16q1 10 1 19l1 4q1 4 1 8q0 90 -323 192q-327 92 -327 414q0 59 11 126l3 15q53 300 220 439q-21 18 -33 37q-30 44 -30 106q0 25 5 53q2 16 8 34q31 119 153 208q109 72 244 72h374l-21 -121h-382q-70 0 -142 -34
q-96 -52 -119 -142q-3 -8 -4 -15q-2 -12 -2 -24q0 -62 63 -101z" />
    <glyph glyph-name="omicron" unicode="&#x3bf;" horiz-adv-x="1092" 
d="M1005 629q11 88 11 161q0 353 -268 353q-324 0 -443 -514q-16 -104 -16 -188q0 -347 274 -347q338 0 442 535zM771 1272q369 0 369 -464q0 -80 -11 -173q-132 -660 -587 -660q-374 0 -374 439q0 99 19 221q150 637 584 637z" />
    <glyph glyph-name="pi" unicode="&#x3c0;" horiz-adv-x="1468" 
d="M688 1107l-196 -1110h-121l196 1110h-352l21 121h1428l-21 -121h-355l-196 -1110h-121l196 1110h-479z" />
    <glyph glyph-name="rho" unicode="&#x3c1;" horiz-adv-x="1120" 
d="M1037 699q9 65 9 120q0 331 -306 331q-262 0 -330 -359l-69 -396v-2q0 -292 274 -292h18q300 0 390 513q7 41 14 85zM296 827q97 446 463 446q391 0 391 -433q0 -62 -8 -133q-8 -61 -18 -118q-105 -595 -526 -595q-227 0 -306 123l-90 -508h-121z" />
    <glyph glyph-name="sigma1" unicode="&#x3c2;" horiz-adv-x="1067" 
d="M321 680q-10 -59 -10 -111q0 -248 238 -334q288 -105 351 -161q50 -45 56 -121q1 -9 1 -19t-1 -21q-1 -12 -3 -23q-18 -97 -101 -177q-71 -68 -151 -92q-29 -7 -61 -9l-15 -2q-15 -1 -30 -1l20 114q14 0 28 1h8q17 1 33 5q47 11 92 42q53 44 65 108q1 8 1 16q1 10 1 19
l1 4q1 4 1 9q0 89 -313 191q-327 92 -327 414q0 59 11 126l2 9q99 561 822 561h41l-22 -121q-665 -14 -738 -427z" />
    <glyph glyph-name="sigma" unicode="&#x3c3;" horiz-adv-x="1310" 
d="M1005 629q11 88 11 161q0 353 -268 353q-324 0 -443 -514q-16 -104 -16 -188q0 -347 274 -347q338 0 442 535zM1080 1107q60 -111 60 -298q0 -80 -11 -174q-132 -660 -587 -660q-374 0 -374 439q0 99 19 221q150 637 584 637q114 0 192 -44h513l-21 -121h-375z" />
    <glyph glyph-name="tau" unicode="&#x3c4;" horiz-adv-x="868" 
d="M688 1107l-196 -1110h-121l196 1110h-352l21 121h828l-21 -121h-355z" />
    <glyph glyph-name="upsilon" unicode="&#x3c5;" horiz-adv-x="1140" 
d="M1087 1226h119l-216 -1226h-121l20 110q-123 -123 -350 -123q-308 0 -308 370q0 99 22 225l113 644h118l-108 -617q-24 -134 -24 -233q0 -280 190 -280h18q275 0 380 294z" />
    <glyph glyph-name="phi" unicode="&#x3c6;" horiz-adv-x="1396" 
d="M316 700q-4 -25 -7 -51q-4 -21 -4 -40q0 -133 167 -207q96 -43 226 -52l76 433q8 65 8 117q0 209 -135 209q-21 0 -44 -5q-219 -45 -287 -404zM675 222q-133 11 -251 58q-236 78 -236 331q0 55 11 119q12 70 38 149l4 25q157 323 441 326h4q223 0 223 -286
q0 -71 -14 -161l-77 -434q79 3 167 17q296 44 347 332q3 18 6 38q3 27 3 51q0 272 -368 281l23 123q468 -13 468 -352q0 -39 -6 -82q-2 -17 -5 -34q-68 -389 -396 -467q-137 -32 -261 -36l-108 -611h-121z" />
    <glyph glyph-name="chi" unicode="&#x3c7;" horiz-adv-x="1196" 
d="M1 -391l609 835l-293 783h131l249 -664l483 664h131l-570 -783l316 -835h-131l-271 716l-523 -716h-131z" />
    <glyph glyph-name="psi" unicode="&#x3c8;" horiz-adv-x="1400" 
d="M827 349q74 4 158 17q294 44 345 332l93 529h118l-88 -504q-69 -389 -397 -467q-131 -31 -252 -36l-108 -611h-130l108 611q-119 5 -240 36q-244 63 -244 332q0 62 13 135l88 504h118l-93 -529q-8 -44 -8 -83q0 -212 237 -249q78 -13 152 -17l154 878h130z" />
    <glyph glyph-name="omega" unicode="&#x3c9;" horiz-adv-x="1761" 
d="M887 406l87 497h130l-87 -497h4v-12q0 -30 4 -57q37 -219 253 -219q215 0 331 219q40 84 60 197q19 105 19 236q0 199 -44 457h128q45 -258 45 -462q0 -133 -19 -244q-30 -170 -105 -286q-170 -244 -437 -244q-250 0 -340 212q-163 -212 -412 -212q-268 0 -352 244
q-19 62 -19 141q0 67 14 145q49 280 274 706h128q-222 -426 -269 -693q-12 -71 -12 -130q0 -35 4 -67q38 -219 254 -219q215 0 330 219q15 32 28 69h3z" />
    <glyph glyph-name="iotadieresis" unicode="&#x3ca;" horiz-adv-x="817" 
d="M468 -3h-121l217 1228h121zM604 1576q29 -28 29 -67q0 -36 -29 -63t-70 -27q-37 0 -65.5 27t-28.5 63q0 39 28.5 67t65.5 28q41 0 70 -28zM880.5 1576q28.5 -28 28.5 -67q0 -36 -28.5 -63t-67.5 -27q-41 0 -69 27t-28 63q0 39 28 67t69 28q39 0 67.5 -28z" />
    <glyph glyph-name="upsilondieresis" unicode="&#x3cb;" horiz-adv-x="1140" 
d="M1087 1226h119l-216 -1226h-121l20 110q-123 -123 -350 -123q-308 0 -308 370q0 99 22 225l113 644h118l-108 -617q-24 -134 -24 -233q0 -280 190 -280h18q275 0 380 294zM764 1576q29 -28 29 -67q0 -36 -29 -63t-70 -27q-37 0 -65.5 27t-28.5 63q0 39 28.5 67t65.5 28
q41 0 70 -28zM1040.5 1576q28.5 -28 28.5 -67q0 -36 -28.5 -63t-67.5 -27q-41 0 -69 27t-28 63q0 39 28 67t69 28q39 0 67.5 -28z" />
    <glyph glyph-name="omicrontonos" unicode="&#x3cc;" horiz-adv-x="1092" 
d="M1005 629q11 88 11 161q0 353 -268 353q-324 0 -443 -514q-16 -104 -16 -188q0 -347 274 -347q338 0 442 535zM771 1272q369 0 369 -464q0 -80 -11 -173q-132 -660 -587 -660q-374 0 -374 439q0 99 19 221q150 637 584 637zM636 1429l160 271h213l-270 -272z" />
    <glyph glyph-name="upsilontonos" unicode="&#x3cd;" horiz-adv-x="1140" 
d="M1087 1226h119l-216 -1226h-121l20 110q-123 -123 -350 -123q-308 0 -308 370q0 99 22 225l113 644h118l-108 -617q-24 -134 -24 -233q0 -280 190 -280h18q275 0 380 294zM660 1429l160 271h213l-270 -272z" />
    <glyph glyph-name="omegatonos" unicode="&#x3ce;" horiz-adv-x="1761" 
d="M887 406l87 497h130l-87 -497h4v-12q0 -30 4 -57q37 -219 253 -219q215 0 331 219q40 84 60 197q19 105 19 236q0 199 -44 457h128q45 -258 45 -462q0 -133 -19 -244q-30 -170 -105 -286q-170 -244 -437 -244q-250 0 -340 212q-163 -212 -412 -212q-268 0 -352 244
q-19 62 -19 141q0 67 14 145q49 280 274 706h128q-222 -426 -269 -693q-12 -71 -12 -130q0 -35 4 -67q38 -219 254 -219q215 0 330 219q15 32 28 69h3zM1030 1429l160 271h213l-270 -272z" />
    <glyph glyph-name="afii10023" unicode="&#x401;" horiz-adv-x="1108" 
d="M436 1622h785l-21 -119h-662l-107 -606h464l-21 -119h-464l-116 -659h735l-21 -119h-858zM854 1966q29 -28 29 -67q0 -36 -29 -63t-70 -27q-37 0 -65.5 27t-28.5 63q0 39 28.5 67t65.5 28q41 0 70 -28zM1130.5 1966q28.5 -28 28.5 -67q0 -36 -28.5 -63t-67.5 -27
q-41 0 -69 27t-28 63q0 39 28 67t69 28q39 0 67.5 -28z" />
    <glyph glyph-name="afii10051" unicode="&#x402;" horiz-adv-x="1436" 
d="M991 109h18q263 28 348 511q21 121 21 214q0 275 -189 296h-18q-263 0 -370 -269l-152 -861h-116l267 1508h-464l20 115h1044l-20 -115h-465l-68 -388q122 119 346 119h5q301 0 301 -375q0 -107 -24 -244q-109 -620 -496 -620h-5q-93 0 -162 21l84 99q42 -11 95 -11z" />
    <glyph glyph-name="afii10052" unicode="&#x403;" horiz-adv-x="999" 
d="M1210 1621l-20 -115h-659l-266 -1506h-115l286 1622h115v-1h659zM780 1824l159 271h213l-270 -272z" />
    <glyph glyph-name="afii10053" unicode="&#x404;" horiz-adv-x="1415" 
d="M353 771q-16 -115 -16 -210q0 -463 386 -463q373 0 541 437h132q-204 -558 -690 -558q-497 0 -497 581q0 118 20 259q176 842 774 842q457 0 490 -496h-133q-38 373 -383 373q-458 0 -603 -650h863l-20 -115h-864z" />
    <glyph glyph-name="afii10054" unicode="&#x405;" horiz-adv-x="1307" 
d="M1094 1334q-20 184 -229 213l-10 1q-19 3 -38 3q-70 0 -142 -34q-95 -52 -129 -154q-3 -10 -4 -19q-4 -21 -4 -40q0 -112 134 -145q164 -42 375.5 -102t263.5 -198q19 -47 19 -112q0 -47 -10 -103q-10 -57 -31 -124l-20 -62q-200 -464 -619 -464q-44 0 -91 5
q-367 54 -367 439q0 85 18 186q6 37 15 77h131q-10 -43 -17 -83q-16 -89 -16 -162q0 -304 271 -344q36 -4 69 -4q330 0 489 362q13 34 24 69q14 47 21 88t7 75q0 37 -8 67q-31 103 -134 143.5t-334.5 94.5t-290.5 142q-35 53 -35 123q0 27 5 57q3 20 9 41q44 141 177 230
q108 72 243 72q28 0 59 -3l17 -3q284 -38 284 -290q0 -20 -2 -42h-100z" />
    <glyph glyph-name="afii10055" unicode="&#x406;" horiz-adv-x="515" 
d="M601 1622l-286 -1622h-115l286 1622h115z" />
    <glyph glyph-name="afii10056" unicode="&#x407;" horiz-adv-x="515" 
d="M601 1622l-286 -1622h-115l286 1622h115zM534 1966q29 -28 29 -67q0 -36 -29 -63t-70 -27q-37 0 -65.5 27t-28.5 63q0 39 28.5 67t65.5 28q41 0 70 -28zM810.5 1966q28.5 -28 28.5 -67q0 -36 -28.5 -63t-67.5 -27q-41 0 -69 27t-28 63q0 39 28 67t69 28q39 0 67.5 -28z
" />
    <glyph glyph-name="afii10057" unicode="&#x408;" horiz-adv-x="562" 
d="M-206 -317q367 2 446 325l285 1614h123l-274 -1556q-89 -504 -602 -508z" />
    <glyph glyph-name="afii10058" unicode="&#x409;" horiz-adv-x="1870" 
d="M1224 117q447 0 505 331q7 38 7 71q0 257 -396 257h-172l-116 -659h172zM1190 897h173q496 0 496 -346q0 -48 -10 -103q-79 -448 -636 -448h-303l266 1506h-608l-187 -1058q-60 -342 -315 -453l-4 130q140 80 186 265l217 1232h123v-1h608v1h122z" />
    <glyph glyph-name="afii10059" unicode="&#x40a;" horiz-adv-x="1845" 
d="M1199 117q447 0 505 331q7 38 7 71q0 257 -396 257h-172l-116 -659h172zM1169 897h169q496 0 496 -346q0 -48 -10 -103q-79 -448 -636 -448h-303l136 771h-670l-136 -771h-115l286 1622h115l-130 -736h670l130 736h126z" />
    <glyph glyph-name="afii10060" unicode="&#x40b;" horiz-adv-x="1436" 
d="M800 1508h-464l20 115h1044l-20 -115h-465l-68 -388q122 119 346 119h5q310 0 310 -349q0 -86 -19 -194q-5 -25 -10 -52l-114 -644h-118l109 617q6 31 11 60q17 97 17 174q0 257 -195 279h-18q-263 0 -370 -269l-152 -861h-116z" />
    <glyph glyph-name="afii10061" unicode="&#x40c;" horiz-adv-x="1374" 
d="M1065 220l-265 742l-391 -430l-94 -532h-115l286 1622h115l-158 -895l626 689l-2 1q205 212 435 213l-22 -125q-175 -1 -318 -143l-268 -296l283 -794q67 -144 210 -145l-22 -125q-209 2 -300 218zM845 1824l159 271h213l-270 -272z" />
    <glyph glyph-name="afii10062" unicode="&#x40e;" horiz-adv-x="1306" 
d="M1459 1622h133l-922 -1402q-167 -216 -378 -218l22 125q145 1 262 145l94 147h-13l-371 1203h134l326 -1085zM796 2016q52 -83 182 -92h27q134 9 215 92h111q-113 -193 -349 -207h-24q-230 14 -273 207h111z" />
    <glyph glyph-name="afii10145" unicode="&#x40f;" horiz-adv-x="1274" 
d="M577 1h-312v-1h-115l286 1622h115l-266 -1506h744l266 1506h115l-286 -1622h-115v1h-311l-69 -392h-121z" />
    <glyph glyph-name="afii10017" unicode="&#x410;" horiz-adv-x="1334" 
d="M508 596l-287 -596h-121l783 1622h140l211 -1622h-120l-78 596h-528zM563 711h458l-97 748z" />
    <glyph glyph-name="afii10018" unicode="&#x411;" horiz-adv-x="1050" 
d="M464 117q447 0 505 331q7 38 7 71q0 257 -396 257h-172l-116 -659h172zM537 1506l-108 -609h174q496 0 496 -346q0 -48 -10 -103q-79 -448 -636 -448h-303l286 1622h121v-1h653l-20 -115h-653z" />
    <glyph glyph-name="afii10019" unicode="&#x412;" horiz-adv-x="1205" 
d="M150 0l286 1622l357 -2q373 0 373 -297q0 -29 -4 -61l-4 -19q-38 -217 -198 -305q234 -102 234 -374q0 -47 -7 -99q-97 -465 -639 -465h-398zM444 983h363q201 49 240 272q3 23 3 43q0 192 -254 205h-260zM292 119h299q416 0 481 366q5 38 5 73q0 300 -385 300h-270z" />
    <glyph glyph-name="afii10020" unicode="&#x413;" horiz-adv-x="999" 
d="M1210 1621l-20 -115h-659l-266 -1506h-115l286 1622h115v-1h659z" />
    <glyph glyph-name="afii10021" unicode="&#x414;" horiz-adv-x="1192" 
d="M243 115h704l245 1391h-615l-186 -1058q-37 -210 -148 -333zM1069 151l2 5l-15 -86h74l-81 -461h-121l69 391h-900l-69 -391h-121l81 461h71l8 45h5v10q140 80 186 265l217 1232h123v-1h615v1h115z" />
    <glyph glyph-name="afii10022" unicode="&#x415;" horiz-adv-x="1108" 
d="M436 1622h785l-21 -119h-662l-107 -606h464l-21 -119h-464l-116 -659h735l-21 -119h-858z" />
    <glyph glyph-name="afii10024" unicode="&#x416;" horiz-adv-x="2295" 
d="M1333 727l625 689l-1 1q205 212 435 213l-22 -125q-175 -1 -318 -143l-268 -296l283 -794q66 -144 210 -145l-22 -125q-210 2 -301 218l-265 742l-391 -430l-93 -532h-115l93 532l-239 430l-527 -742q-167 -216 -377 -218l22 125q144 1 262 145l563 794l-164 296
q-93 142 -268 143l22 125q230 -1 361 -213l-3 -1l383 -689l158 895h115z" />
    <glyph glyph-name="afii10025" unicode="&#x417;" horiz-adv-x="1286" 
d="M940 856q246 89 281 286q6 33 6 62q0 204 -273 262q-76 16 -153 16q-228 0 -434 -135l-37 99q254 163 522 163q101 0 202 -25q306 -74 306 -340q0 -46 -9 -98l-1 -9q-41 -214 -256 -335q144 -101 144 -266q0 -33 -6 -68l-2 -9q-62 -352 -451 -439q-111 -25 -212 -25
q-268 0 -464 163l71 99q160 -135 388 -135q77 0 157 16q336 66 382 325q5 27 5 52q0 150 -168 226h-429l20 115h411z" />
    <glyph glyph-name="afii10026" unicode="&#x418;" horiz-adv-x="1333" 
d="M1494 1622l-286 -1622h-115l245 1389l-1119 -1389h-94l286 1622h115l-242 -1371l1095 1371h115z" />
    <glyph glyph-name="afii10027" unicode="&#x419;" horiz-adv-x="1333" 
d="M1494 1622l-286 -1622h-115l245 1389l-1119 -1389h-94l286 1622h115l-242 -1371l1095 1371h115zM836 2016q52 -83 182 -92h27q134 9 215 92h111q-113 -193 -349 -207h-24q-230 14 -273 207h111z" />
    <glyph glyph-name="afii10028" unicode="&#x41a;" horiz-adv-x="1374" 
d="M1065 220l-265 742l-391 -430l-94 -532h-115l286 1622h115l-158 -895l626 689l-2 1q205 212 435 213l-22 -125q-175 -1 -318 -143l-268 -296l283 -794q67 -144 210 -145l-22 -125q-209 2 -300 218z" />
    <glyph glyph-name="afii10029" unicode="&#x41b;" horiz-adv-x="1192" 
d="M76 -5l-4 130q140 80 186 265l217 1232h123v-1h615v1h115l-286 -1622h-115l266 1506h-615l-187 -1058q-60 -342 -315 -453z" />
    <glyph glyph-name="afii10030" unicode="&#x41c;" horiz-adv-x="1650" 
d="M1670 1616l1 6h115l-286 -1622h-115l247 1400l-634 -791l1 -3h-139l3 3l-352 783l-245 -1388h-115l286 1622h115l398 -909z" />
    <glyph glyph-name="afii10031" unicode="&#x41d;" horiz-adv-x="1261" 
d="M461 1622h115l-130 -736h681l130 736h115l-286 -1622h-115l136 771h-681l-136 -771h-115z" />
    <glyph glyph-name="afii10032" unicode="&#x41e;" horiz-adv-x="1415" 
d="M362 817q-24 -142 -24 -257q0 -462 387 -462q479 0 620 719q22 137 22 248q0 471 -388 471q-482 0 -617 -719zM229 817q176 842 774 842q493 0 493 -575q0 -121 -22 -267q-172 -840 -768 -840q-497 0 -497 581q0 118 20 259z" />
    <glyph glyph-name="afii10033" unicode="&#x41f;" horiz-adv-x="1274" 
d="M531 1506l-266 -1506h-115l286 1622h115v-1h744v1h115l-286 -1622h-115l266 1506h-744z" />
    <glyph glyph-name="afii10034" unicode="&#x420;" horiz-adv-x="1110" 
d="M399 725l-128 -725h-121l286 1622h303q488 0 488 -344q0 -48 -10 -104q-79 -449 -644 -449h-174zM536 1505l-116 -659h172q447 0 505 328q7 38 7 72q0 259 -396 259h-172z" />
    <glyph glyph-name="afii10035" unicode="&#x421;" horiz-adv-x="1323" 
d="M1263 1288q-22 248 -296 248q-489 -16 -611 -708l-2 -11q-26 -152 -26 -272q0 -436 341 -451q472 31 585 553h127q-139 -637 -731 -672q-452 10 -452 536q0 134 30 302l2 6q148 830 761 840q364 0 372 -370z" />
    <glyph glyph-name="afii10036" unicode="&#x422;" horiz-adv-x="1184" 
d="M915 1508l-266 -1508h-115l266 1508h-464l20 115h1044l-20 -115h-465z" />
    <glyph glyph-name="afii10037" unicode="&#x423;" horiz-adv-x="1306" 
d="M1459 1622h133l-922 -1402q-167 -216 -378 -218l22 125q145 1 262 145l94 147h-13l-371 1203h134l326 -1085z" />
    <glyph glyph-name="afii10038" unicode="&#x424;" horiz-adv-x="1697" 
d="M1013 1259q-574 -39 -645 -446q-8 -46 -8 -88q0 -324 495 -361zM1128 1259l-158 -895q573 33 647 449q8 48 8 90q0 328 -497 356zM1034 1379l43 243h115l-43 -243q602 -34 602 -448q0 -57 -11 -120q-94 -533 -791 -569l-43 -242h-115l43 243q-602 45 -602 453
q0 54 11 115q91 515 791 568z" />
    <glyph glyph-name="afii10039" unicode="&#x425;" horiz-adv-x="1196" 
d="M70 0l610 839l-293 783h131l249 -664l483 664h131l-570 -783l315 -839h-131l-270 720l-524 -720h-131z" />
    <glyph glyph-name="afii10040" unicode="&#x426;" horiz-adv-x="1274" 
d="M1127 0h-68v1h-844v-1h-115l286 1622h115l-266 -1506h844l266 1506h115l-274 -1552h74l-81 -461h-121z" />
    <glyph glyph-name="afii10041" unicode="&#x427;" horiz-adv-x="1200" 
d="M1177 1624h119l-286 -1624h-121l90 508q-123 -123 -350 -123q-311 0 -311 326q0 74 16 164l132 749h118l-128 -729q-16 -90 -16 -159q0 -242 192 -242h18q275 0 380 294z" />
    <glyph glyph-name="afii10042" unicode="&#x428;" horiz-adv-x="1834" 
d="M1261 1622l-266 -1506h644l266 1506h115l-286 -1622h-115v1h-644v-1h-116v1h-644v-1h-115l286 1622h115l-266 -1506h644l266 1506h116z" />
    <glyph glyph-name="afii10043" unicode="&#x429;" horiz-adv-x="1834" 
d="M1746 70h74l-81 -461h-121l69 391h-68v1h-644v-1h-116v1h-644v-1h-115l286 1622h115l-266 -1506h644l266 1506h116l-266 -1506h644l266 1506h115z" />
    <glyph glyph-name="afii10044" unicode="&#x42a;" horiz-adv-x="1643" 
d="M997 117q447 0 505 331q7 38 7 71q0 257 -396 257h-172l-116 -659h172zM963 897h174q495 0 495 -345q0 -48 -10 -104q-79 -448 -636 -448h-303l266 1506h-653l20 115h653v1h121z" />
    <glyph glyph-name="afii10045" unicode="&#x42b;" horiz-adv-x="1515" 
d="M603 897q496 0 496 -346q0 -48 -10 -103q-79 -448 -636 -448h-303l286 1622h121l-128 -725h174zM464 117q447 0 505 331q7 38 7 71q0 257 -396 257h-172l-116 -659h172zM1601 1622l-286 -1622h-115l286 1622h115z" />
    <glyph glyph-name="afii10046" unicode="&#x42c;" horiz-adv-x="1110" 
d="M603 897q496 0 496 -346q0 -48 -10 -103q-79 -448 -636 -448h-303l286 1622h121l-128 -725h174zM464 117q447 0 505 331q7 38 7 71q0 257 -396 257h-172l-116 -659h172z" />
    <glyph glyph-name="afii10047" unicode="&#x42d;" horiz-adv-x="1415" 
d="M442 771l20 115h863q13 102 13 188q0 462 -386 462q-345 0 -515 -373h-133q208 496 665 496q497 0 497 -582q0 -118 -20 -260q-175 -840 -773 -840q-486 0 -494 558h132q14 -437 387 -437q466 0 608 673h-864z" />
    <glyph glyph-name="afii10048" unicode="&#x42e;" horiz-adv-x="1950" 
d="M832 817q-24 -142 -24 -257q0 -462 387 -462q479 0 620 719q22 137 22 248q0 471 -388 471q-482 0 -617 -719zM693 771h-267l-136 -771h-115l286 1622h115l-130 -736h268q186 773 759 773q493 0 493 -575q0 -121 -22 -267q-172 -840 -768 -840q-497 0 -497 581
q0 98 14 213z" />
    <glyph glyph-name="afii10049" unicode="&#x42f;" horiz-adv-x="1158" 
d="M1046 846l116 659h-172q-447 0 -505 -331q-7 -39 -7 -73q0 -255 381 -255h187zM110 0l522 747q-277 65 -277 323q0 49 10 104q79 448 636 448h303l-286 -1622h-121l128 725h-174q-54 0 -101 4l-510 -729h-130z" />
    <glyph glyph-name="afii10065" unicode="&#x430;" horiz-adv-x="1062" 
d="M304 699q-8 -44 -16 -85q-21 -118 -21 -209q0 -304 231 -304h18q275 0 377 294l122 696q-152 59 -274 59q-337 0 -437 -451zM884 162q-162 -168 -389 -168q-337 0 -337 381q0 95 21 214q10 57 24 118q135 566 582 566q116 0 251 -46h125l-15 -87h2l-140 -792
q-3 -25 -3 -49q0 -139 92 -205l-99 -100q-95 75 -114 168z" />
    <glyph glyph-name="afii10066" unicode="&#x431;" horiz-adv-x="1092" 
d="M1005 629q11 88 11 161q0 353 -268 353q-324 0 -443 -514q-16 -104 -16 -188q0 -347 274 -347q338 0 442 535zM462 1164q130 108 309 108q369 0 369 -464q0 -80 -11 -173q-132 -660 -587 -660q-374 0 -374 439q0 99 19 221q3 9 5 18h-5q215 964 541 964q9 0 17 -1
q111 -9 198 -9q177 0 251 36l-24 -136q-113 -20 -240 -20q-89 0 -186 10q-5 1 -11 1q-143 0 -271 -334z" />
    <glyph glyph-name="afii10067" unicode="&#x432;" horiz-adv-x="861" 
d="M324 727q224 -1 239 -2q60 2 94 14q145 47 169 183q2 13 2 26q0 88 -108 147q-29 11 -63 14l-1 -2h-265zM300 590l-83 -472h265v-1q9 2 17 4q190 47 223 208l2 11q5 28 5 53q0 112 -97 169q-39 23 -129 28h-203zM653 1227q130 -5 203 -47q92 -81 92 -201q0 -30 -6 -62
q-31 -175 -191 -260q106 -102 106 -244q0 -37 -7 -76l-2 -13q-43 -218 -272 -313q-88 -11 -190 -11h-311l216 1227h362z" />
    <glyph glyph-name="afii10068" unicode="&#x433;" horiz-adv-x="646" 
d="M366 1107l-196 -1110h-121l217 1230l576 1l-21 -121h-455zM458 1429l159 271h213l-270 -272z" />
    <glyph glyph-name="afii10069" unicode="&#x434;" horiz-adv-x="1282" 
d="M487 428l141 799h776l-204 -1157h74l-81 -461h-121l68 388h-74l1 3h-926l-69 -391h-121l81 461h71l8 45q311 49 376 313zM1087 115l175 992h-534l-120 -679q-41 -206 -185 -313h664z" />
    <glyph glyph-name="afii10070" unicode="&#x435;" horiz-adv-x="1124" 
d="M801 1137q-12 1 -23 1q-18 2 -36 2q-194 0 -348 -265q114 -6 207 -6q395 0 414 107l1 7v12q0 128 -215 142zM365 762q-16 -65 -28 -132q-22 -124 -22 -219q0 -324 252 -324q14 0 29 1q347 39 446 442h100q-135 -547 -614 -553q-326 18 -326 396v7q1 159 23 287
q32 181 108 301q180 288 464 288q24 0 49 -2q291 -24 291 -241q0 -19 -2 -39l-2 -11q-37 -207 -572 -207q-91 0 -196 6z" />
    <glyph glyph-name="afii10072" unicode="&#x436;" horiz-adv-x="1807" 
d="M1074 623l335 366q136 201 364 238l15 -127q-142 0 -276 -169l-150 -166l247 -506q66 -131 206 -138l-59 -127q-206 35 -277 225l-212 443l-228 -235l-75 -427h-121l75 427l-146 235l-368 -443q-137 -190 -355 -225l-15 127q142 7 254 138l427 506l-92 166
q-74 169 -216 169l59 127q214 -37 280 -238l207 -366l106 605h121z" />
    <glyph glyph-name="afii10073" unicode="&#x437;" horiz-adv-x="936" 
d="M414 718h-1q62 1 107 1q66 0 94 -2q62 2 98 14q150 49 175 191q4 22 4 41q0 108 -112 150q-40 15 -89 15q-112 0 -264 -74l-33 113q187 77 326 77q99 0 170 -41q143 -83 143 -228q0 -28 -5 -58q-30 -171 -198 -269q103 -97 103 -236q0 -36 -7 -75l-2 -13
q-42 -213 -286 -306q-91 -35 -191 -35q-169 0 -357 95l87 95q127 -75 260 -75q58 0 117 15q195 49 230 216l2 11q5 29 5 55q0 115 -100 174q-40 24 -132 29q-20 0 -42 1h-123z" />
    <glyph glyph-name="afii10074" unicode="&#x438;" horiz-adv-x="1044" 
d="M221 0l-1 -3h-121l217 1228h121l-178 -1006l762 1006h139l-217 -1228h-121l180 1020l-769 -1017h-12z" />
    <glyph glyph-name="afii10075" unicode="&#x439;" horiz-adv-x="1044" 
d="M221 0l-1 -3h-121l217 1228h121l-178 -1006l762 1006h139l-217 -1228h-121l180 1020l-769 -1017h-12zM595 1621q52 -83 182 -92h27q134 9 215 92h111q-113 -193 -349 -207h-24q-230 14 -273 207h111z" />
    <glyph glyph-name="afii10076" unicode="&#x43a;" horiz-adv-x="1114" 
d="M917 259q66 -131 205 -138l-59 -127q-206 35 -276 225l-212 443l-229 -235l-75 -427h-121l217 1228h121l-107 -605l335 366q137 201 364 238l15 -127q-142 0 -276 -169l-138 -156z" />
    <glyph glyph-name="afii10077" unicode="&#x43b;" horiz-adv-x="1140" 
d="M505 1227h776l-217 -1230h-121l196 1110h-534l-120 -679q-71 -350 -439 -434l-15 127q268 43 333 307z" />
    <glyph glyph-name="afii10078" unicode="&#x43c;" horiz-adv-x="1213" 
d="M722 656l468 569h139l-217 -1228h-121l183 1040l-491 -610l-2 -3v1l-1 -1v3l-277 610l-183 -1040h-121l217 1228h139z" />
    <glyph glyph-name="afii10079" unicode="&#x43d;" horiz-adv-x="1026" 
d="M951 0h-121l107 607h-634l-107 -607h-121l216 1227h121l-88 -500h634l88 500h121z" />
    <glyph glyph-name="afii10080" unicode="&#x43e;" horiz-adv-x="1092" 
d="M1005 629q11 88 11 161q0 353 -268 353q-324 0 -443 -514q-16 -104 -16 -188q0 -347 274 -347q338 0 442 535zM771 1272q369 0 369 -464q0 -80 -11 -173q-132 -660 -587 -660q-374 0 -374 439q0 99 19 221q150 637 584 637z" />
    <glyph glyph-name="afii10081" unicode="&#x43f;" horiz-adv-x="1026" 
d="M391 1107l-195 -1107h-121l216 1227h876l-216 -1227h-121l195 1107h-634z" />
    <glyph glyph-name="afii10082" unicode="&#x440;" horiz-adv-x="1120" 
d="M1037 699q9 68 9 126q0 325 -286 325q-122 0 -297 -59l-122 -696v-2q0 -292 274 -292h18q300 0 390 513q7 41 14 85zM366 1227h125q152 46 268 46q391 0 391 -433q0 -62 -8 -133q-8 -61 -18 -118q-105 -595 -526 -595q-227 0 -306 123l-90 -508h-121z" />
    <glyph glyph-name="afii10083" unicode="&#x441;" horiz-adv-x="1172" 
d="M727 1120q-162 0 -283 -206q-77 -131 -108 -306q-17 -100 -20 -214v-14q0 -292 281 -292h17q347 39 428 442l123 -1q-106 -525 -586 -552q-17 -1 -33 -1q-332 0 -356 327q-3 43 -3 85q0 106 18 207q32 180 122 345q159 293 450 293h25q228 0 314 -185l-94 -75
q-69 145 -243 149q-25 0 -52 -2z" />
    <glyph glyph-name="afii10084" unicode="&#x442;" horiz-adv-x="868" 
d="M688 1107l-196 -1110h-121l196 1110h-352l21 121h828l-21 -121h-355z" />
    <glyph glyph-name="afii10085" unicode="&#x443;" horiz-adv-x="1090" 
d="M849 27l15 83q-123 -123 -350 -123q-308 0 -308 370q0 99 22 225l113 644h118l-108 -617q-24 -134 -24 -233q0 -280 190 -280h18q275 0 380 294l147 836h119l-216 -1226q-133 -372 -511 -381q-151 1 -236 75l111 76q55 -43 143 -44q281 8 374 301h3z" />
    <glyph glyph-name="afii10086" unicode="&#x444;" horiz-adv-x="1820" 
d="M1460 1150q-122 0 -297 -59l-122 -696v-2q0 -292 274 -292h18q300 0 390 513q8 41 14 85q9 68 9 126q0 325 -286 325zM329 699q-8 -44 -16 -85q-21 -118 -21 -209q0 -304 231 -304h18q275 0 378 294l122 696q-153 59 -275 59q-337 0 -437 -451zM1191 1227q153 46 269 46
q390 0 390 -431q0 -63 -8 -135q-8 -61 -18 -118q-105 -595 -526 -595q-227 0 -306 123l-90 -508h-122l90 508q-123 -123 -350 -123q-337 0 -337 381q0 95 21 214q10 57 24 118q135 566 582 566q116 0 251 -46h130z" />
    <glyph glyph-name="afii10087" unicode="&#x445;" horiz-adv-x="1038" 
d="M563 613l-297 614h128l250 -517l432 517h128l-513 -614l297 -613h-129l-249 516l-431 -516h-129z" />
    <glyph glyph-name="afii10088" unicode="&#x446;" horiz-adv-x="1051" 
d="M903 0h-828l216 1227h126l-195 -1107h629l195 1107h121l-203 -1151h73l-82 -467h-121z" />
    <glyph glyph-name="afii10089" unicode="&#x447;" horiz-adv-x="1030" 
d="M1146 1226l-216 -1226h-121l90 508q-123 -123 -350 -123q-311 0 -311 326q0 74 16 164l62 351h118l-58 -331q-16 -90 -16 -159q0 -242 192 -242h18q275 0 380 294l77 438h119z" />
    <glyph glyph-name="afii10090" unicode="&#x448;" horiz-adv-x="1576" 
d="M75 0l216 1227h121l-195 -1107h529l195 1107h126l-195 -1107h529l195 1107h121l-216 -1227h-1426z" />
    <glyph glyph-name="afii10091" unicode="&#x449;" horiz-adv-x="1601" 
d="M1453 0h-1378l216 1227h121l-195 -1107h529l195 1107h126l-195 -1107h529l195 1107h121l-203 -1151h73l-82 -467h-121z" />
    <glyph glyph-name="afii10092" unicode="&#x44a;" horiz-adv-x="1241" 
d="M630 590l-83 -472h265l-1 -1q10 2 18 4q189 47 230 248l2 13q4 22 4 42q0 153 -232 166h-203zM600 1107h-355l21 121l476 -1l-88 -500l229 -2q311 -18 311 -269q0 -37 -7 -79l-2 -13q-51 -258 -279 -353q-88 -11 -190 -11h-190l-1 -3h-121z" />
    <glyph glyph-name="afii10093" unicode="&#x44b;" horiz-adv-x="1169" 
d="M324 727l229 -2q311 -18 311 -269q0 -37 -7 -79l-2 -13q-50 -258 -279 -353q-88 -11 -190 -11h-311l216 1227h121zM300 590l-83 -472h265v-1q9 2 17 4q190 47 230 248l2 13q4 22 4 42q0 153 -232 166h-203zM1068 -3h-121l217 1228h121z" />
    <glyph glyph-name="afii10094" unicode="&#x44c;" horiz-adv-x="861" 
d="M324 727l229 -2q311 -18 311 -269q0 -37 -7 -79l-2 -13q-50 -258 -279 -353q-88 -11 -190 -11h-311l216 1227h121zM300 590l-83 -472h265v-1q9 2 17 4q190 47 230 248l2 13q4 22 4 42q0 153 -232 166h-203z" />
    <glyph glyph-name="afii10095" unicode="&#x44d;" horiz-adv-x="1124" 
d="M1071 875q-60 265 -254 265q-18 0 -36 -2q-11 0 -25 -1q-143 -9 -229 -109h-119q128 209 345 226q25 2 49 2q284 0 364 -288q17 -61 17 -138q0 -74 -16 -163q-23 -128 -78 -287q-133 -385 -468 -403q-426 5 -426 442q0 53 6 111h100q-5 -46 -5 -87q0 -320 296 -355
q14 -1 28 -1q326 0 422 543q12 67 20 142h-407l18 103h398z" />
    <glyph glyph-name="afii10096" unicode="&#x44e;" horiz-adv-x="1517" 
d="M1430 629q11 88 11 161q0 353 -268 353q-324 0 -443 -514q-16 -104 -16 -188q0 -347 274 -347q338 0 442 535zM636 727q158 545 559 545q370 0 370 -466q0 -79 -11 -171q-132 -660 -587 -660q-374 0 -374 439q0 87 15 193h-280l-107 -607h-121l216 1227h121l-88 -500h287
z" />
    <glyph glyph-name="afii10097" unicode="&#x44f;" horiz-adv-x="861" 
d="M782 637l84 472h-265v1q-10 -2 -18 -4q-189 -47 -230 -248l-2 -13q-4 -22 -4 -42q0 -153 232 -166h203zM429 516q-211 49 -211 255q0 37 7 79l2 13q51 258 279 353q88 11 190 11h311l-216 -1227h-121l88 501l-197 1l-246 -502h-139z" />
    <glyph glyph-name="afii10071" unicode="&#x451;" horiz-adv-x="1124" 
d="M801 1137q-12 1 -23 1q-18 2 -36 2q-194 0 -348 -265q114 -6 207 -6q395 0 414 107l1 7v12q0 128 -215 142zM365 762q-16 -65 -28 -132q-22 -124 -22 -219q0 -324 252 -324q14 0 29 1q347 39 446 442h100q-135 -547 -614 -553q-326 18 -326 396v7q1 159 23 287
q32 181 108 301q180 288 464 288q24 0 49 -2q291 -24 291 -241q0 -19 -2 -39l-2 -11q-37 -207 -572 -207q-91 0 -196 6zM774 1576q29 -28 29 -67q0 -36 -29 -63t-70 -27q-37 0 -65.5 27t-28.5 63q0 39 28.5 67t65.5 28q41 0 70 -28zM1050.5 1576q28.5 -28 28.5 -67
q0 -36 -28.5 -63t-67.5 -27q-41 0 -69 27t-28 63q0 39 28 67t69 28q39 0 67.5 -28z" />
    <glyph glyph-name="afii10099" unicode="&#x452;" horiz-adv-x="1202" 
d="M897 0h-5l129 729q15 89 15 157q0 244 -192 244h-18q-275 0 -380 -294l-147 -836h-119l237 1342h-147l20 115h147l29 167h121l-29 -167h519l-20 -115h-519l-40 -226q122 123 349 123q311 0 311 -326q0 -74 -16 -164l-128 -751q-71 -350 -436 -434l-14 127q267 43 333 307
v2z" />
    <glyph glyph-name="afii10100" unicode="&#x453;" horiz-adv-x="646" 
d="M366 1107l-196 -1110h-121l217 1230l576 1l-21 -121h-455z" />
    <glyph glyph-name="afii10101" unicode="&#x454;" horiz-adv-x="1124" 
d="M792 875l-18 -103h-407q-18 -75 -30 -142q-22 -124 -22 -219q0 -324 252 -324q14 0 29 1q347 39 446 442h100q-135 -547 -614 -553q-326 18 -326 396v7q1 159 23 287q32 181 108 301q180 288 464 288q24 0 49 -2q211 -17 265 -226h-119q-50 100 -191 109q-12 1 -23 1
q-18 2 -36 2q-194 0 -348 -265h398z" />
    <glyph glyph-name="afii10102" unicode="&#x455;" horiz-adv-x="1053" 
d="M860 990q-10 140 -156 164l-7 2q-17 3 -33 3q-46 0 -94 -21q-67 -35 -93 -109q-3 -10 -5 -20q-2 -13 -2 -26q0 -76 92 -103q118 -35 280.5 -86.5t199.5 -164.5q12 -35 12 -80q0 -32 -6 -70q-9 -51 -30 -112l-16 -47q-162 -349 -476 -349q-43 0 -90 7q-279 50 -279 338
q0 62 13 135q5 29 12 59h131q-9 -36 -15 -68q-11 -62 -11 -114q0 -210 184 -244q31 -4 61 -4q229 0 352 258q10 25 20 52q14 41 20 76q5 28 5 51q0 24 -5 43q-20 76 -93 107.5t-249.5 79t-220.5 119.5q-26 41 -26 93q0 21 4 43q3 19 10 40q37 110 145 178q82 52 181 52
q29 0 61 -5l13 -2q217 -37 217 -233q0 -20 -2 -42h-104z" />
    <glyph glyph-name="afii10103" unicode="&#x456;" horiz-adv-x="611" 
d="M365 -3h-121l217 1228h121zM681.5 1712q29.5 -31 29.5 -74t-29.5 -73.5t-74.5 -30.5t-76 30.5t-31 73.5t31 74t76 31t74.5 -31z" />
    <glyph glyph-name="afii10104" unicode="&#x457;" horiz-adv-x="817" 
d="M468 -3h-121l217 1228h121zM604 1576q29 -28 29 -67q0 -36 -29 -63t-70 -27q-37 0 -65.5 27t-28.5 63q0 39 28.5 67t65.5 28q41 0 70 -28zM880.5 1576q28.5 -28 28.5 -67q0 -36 -28.5 -63t-67.5 -27q-41 0 -69 27t-28 63q0 39 28 67t69 28q39 0 67.5 -28z" />
    <glyph glyph-name="afii10105" unicode="&#x458;" horiz-adv-x="622" 
d="M495 1225h121l-216 -1227q-71 -350 -439 -434l-15 127q268 43 333 307zM701.5 1712q29.5 -31 29.5 -74t-29.5 -73.5t-74.5 -30.5t-76 30.5t-31 73.5t31 74t76 31t74.5 -31z" />
    <glyph glyph-name="afii10106" unicode="&#x459;" horiz-adv-x="1730" 
d="M1169 590l-84 -472h265v-1q10 2 18 4q189 47 230 248l2 13q4 22 4 42q0 153 -232 166h-203zM1139 1107h-534l-120 -679q-71 -350 -439 -434l-15 127q268 43 333 307l141 799h776l-88 -500l229 -2q311 -18 311 -269q0 -37 -7 -79l-2 -13q-51 -258 -279 -353
q-88 -11 -190 -11h-190l-1 -3h-121z" />
    <glyph glyph-name="afii10107" unicode="&#x45a;" horiz-adv-x="1461" 
d="M900 590l-83 -472h265v-1q9 2 17 4q190 47 230 248l2 13q4 22 4 42q0 153 -232 166h-203zM803 727l88 500h121l-88 -500l229 -2q311 -18 311 -269q0 -37 -7 -79l-2 -13q-50 -258 -279 -353q-88 -11 -190 -11h-311l107 607h-454l-107 -607h-121l216 1227h121l-88 -500h454
z" />
    <glyph glyph-name="afii10108" unicode="&#x45b;" horiz-adv-x="1202" 
d="M417 1342h-147l20 115h147l29 167h121l-29 -167h519l-20 -115h-519l-40 -226q122 123 349 123q311 0 311 -326q0 -74 -16 -164l-132 -749h-118l129 729q15 89 15 157q0 244 -192 244h-18q-275 0 -380 -294l-147 -836h-119z" />
    <glyph glyph-name="afii10109" unicode="&#x45c;" horiz-adv-x="1114" 
d="M917 259q66 -131 205 -138l-59 -127q-206 35 -276 225l-212 443l-229 -235l-75 -427h-121l217 1228h121l-107 -605l335 366q137 201 364 238l15 -127q-142 0 -276 -169l-127 -146zM652 1429l160 271h213l-270 -272z" />
    <glyph glyph-name="afii10110" unicode="&#x45e;" horiz-adv-x="1090" 
d="M849 27l15 83q-123 -123 -350 -123q-308 0 -308 370q0 99 22 225l113 644h118l-108 -617q-24 -134 -24 -233q0 -280 190 -280h18q275 0 380 294l147 836h119l-216 -1226q-133 -372 -511 -381q-151 1 -236 75l111 76q55 -43 143 -44q281 8 374 301h3zM653 1621
q51 -83 182 -92h27q133 9 215 92h111q-113 -193 -349 -207h-24q-230 14 -273 207h111z" />
    <glyph glyph-name="afii10193" unicode="&#x45f;" horiz-adv-x="1026" 
d="M453 0h-378l216 1227h121l-195 -1106h634l195 1106h121l-216 -1227h-377l-69 -391h-121z" />
    <glyph glyph-name="afii10050" unicode="&#x490;" horiz-adv-x="999" 
d="M1191 1506h-659l-266 -1506h-115l286 1622h115v-1h544l57 327h115z" />
    <glyph glyph-name="afii10098" unicode="&#x491;" horiz-adv-x="742" 
d="M917 1107h-551l-196 -1110h-121l217 1230l551 1l70 394h121z" />
    <glyph glyph-name="Wgrave" unicode="&#x1e80;" horiz-adv-x="2017" 
d="M1052 625q-63 287 -63 606q0 190 22 391h129q-16 -184 -16 -354q0 -635 217 -1090q483 578 710 1444h127q-230 -956 -874 -1653q-134 235 -212 500q-170 -264 -388 -500q-315 551 -315 1263q0 189 22 390h129q-16 -184 -16 -354q0 -635 217 -1090q172 205 311 447z
M1335 1823l-174 272h213l64 -271z" />
    <glyph glyph-name="wgrave" unicode="&#x1e81;" horiz-adv-x="1590" 
d="M818 477q-34 166 -34 397q0 164 17 360h119q-18 -163 -18 -312q0 -136 15 -260q13 -93 33 -179q45 -172 119 -321q372 426 508 1072h131q-222 -845 -675 -1277q-112 164 -177 369q-134 -205 -306 -369q-245 351 -245 976q0 143 13 301h119q-19 -162 -19 -310
q0 -443 168 -762q131 151 232 315zM1052 1428l-174 272h213l64 -271z" />
    <glyph glyph-name="Wacute" unicode="&#x1e82;" horiz-adv-x="2017" 
d="M1052 625q-63 287 -63 606q0 190 22 391h129q-16 -184 -16 -354q0 -635 217 -1090q483 578 710 1444h127q-230 -956 -874 -1653q-134 235 -212 500q-170 -264 -388 -500q-315 551 -315 1263q0 189 22 390h129q-16 -184 -16 -354q0 -635 217 -1090q172 205 311 447z
M1221 1824l160 271h213l-270 -272z" />
    <glyph glyph-name="wacute" unicode="&#x1e83;" horiz-adv-x="1590" 
d="M818 477q-34 166 -34 397q0 164 17 360h119q-18 -163 -18 -312q0 -136 15 -260q13 -93 33 -179q45 -172 119 -321q372 426 508 1072h131q-222 -845 -675 -1277q-112 164 -177 369q-134 -205 -306 -369q-245 351 -245 976q0 143 13 301h119q-19 -162 -19 -310
q0 -443 168 -762q131 151 232 315zM939 1429l160 271h213l-270 -272z" />
    <glyph glyph-name="Wdieresis" unicode="&#x1e84;" horiz-adv-x="2017" 
d="M1052 625q-63 287 -63 606q0 190 22 391h129q-16 -184 -16 -354q0 -635 217 -1090q483 578 710 1444h127q-230 -956 -874 -1653q-134 235 -212 500q-170 -264 -388 -500q-315 551 -315 1263q0 189 22 390h129q-16 -184 -16 -354q0 -635 217 -1090q172 205 311 447z
M1264 1966q29 -28 29 -67q0 -36 -29 -63t-70 -27q-37 0 -65.5 27t-28.5 63q0 39 28.5 67t65.5 28q41 0 70 -28zM1540.5 1966q28.5 -28 28.5 -67q0 -36 -28.5 -63t-67.5 -27q-41 0 -69 27t-28 63q0 39 28 67t69 28q39 0 67.5 -28z" />
    <glyph glyph-name="wdieresis" unicode="&#x1e85;" horiz-adv-x="1590" 
d="M818 477q-34 166 -34 397q0 164 17 360h119q-18 -163 -18 -312q0 -136 15 -260q13 -93 33 -179q45 -172 119 -321q372 426 508 1072h131q-222 -845 -675 -1277q-112 164 -177 369q-134 -205 -306 -369q-245 351 -245 976q0 143 13 301h119q-19 -162 -19 -310
q0 -443 168 -762q131 151 232 315zM1004 1576q29 -28 29 -67q0 -36 -29 -63t-70 -27q-37 0 -65.5 27t-28.5 63q0 39 28.5 67t65.5 28q41 0 70 -28zM1280.5 1576q28.5 -28 28.5 -67q0 -36 -28.5 -63t-67.5 -27q-41 0 -69 27t-28 63q0 39 28 67t69 28q39 0 67.5 -28z" />
    <glyph glyph-name="Ygrave" unicode="&#x1ef2;" horiz-adv-x="1194" 
d="M798 822h1l-145 -822h-115l145 822h1l-6 17l-293 783h131l249 -664l483 664h131l-570 -783zM923 1823l-174 272h213l65 -271z" />
    <glyph glyph-name="ygrave" unicode="&#x1ef3;" horiz-adv-x="1090" 
d="M849 27l15 83q-123 -123 -350 -123q-308 0 -308 370q0 99 22 225l113 644h118l-108 -617q-24 -134 -24 -233q0 -280 190 -280h18q275 0 380 294l147 836h119l-216 -1226q-133 -372 -511 -381q-151 1 -236 75l111 76q55 -43 143 -44q281 8 374 301h3zM802 1428l-174 272
h213l64 -271z" />
    <glyph glyph-name="endash" unicode="&#x2013;" horiz-adv-x="1050" 
d="M185 756h944l-20 -115h-944z" />
    <glyph glyph-name="emdash" unicode="&#x2014;" horiz-adv-x="1466" 
d="M133 756h1466l-20 -115h-1466z" />
    <glyph glyph-name="afii00208" unicode="&#x2015;" horiz-adv-x="3072" 
d="M133 756h2199l-20 -115h-2199z" />
    <glyph glyph-name="underscoredbl" unicode="&#x2017;" horiz-adv-x="1216" 
d="M-126 -334h1347l-20 -115h-1347zM-75 -47h1347l-20 -115h-1347z" />
    <glyph glyph-name="quoteleft" unicode="&#x2018;" horiz-adv-x="383" 
d="M505 1500q28 -8 46 -30q26 -31 26 -74q0 -14 -3 -29q-10 -55 -58.5 -97t-107.5 -42q-60 0 -93 42q-26 32 -26 72q0 12 2 25q10 58 63.5 128.5t205.5 203.5l2 -2l56 -78l-1 -4q-67 -59 -112 -115z" />
    <glyph glyph-name="quoteright" unicode="&#x2019;" horiz-adv-x="383" 
d="M394 1427q-28 8 -46 30q-25 31 -25 75q0 14 2 28q10 55 58.5 97t107.5 42q60 0 94 -42q25 -32 25 -72q0 -12 -2 -25q-10 -58 -63.5 -128.5t-205.5 -203.5l-2 2l-56 78l1 4q67 59 112 115z" />
    <glyph glyph-name="quotesinglbase" unicode="&#x201a;" horiz-adv-x="383" 
d="M129 -73q-28 8 -46 30q-25 31 -25 75q0 14 2 28q10 55 58.5 97t107.5 42q60 0 94 -42q25 -32 25 -72q0 -12 -2 -25q-10 -58 -63.5 -128.5t-205.5 -203.5l-2 2l-56 78l1 4q67 59 112 115z" />
    <glyph glyph-name="quotereversed" unicode="&#x201b;" horiz-adv-x="2246" 
d="M514 1312v-4l-84 -78l-2 -2q-106 133 -134 204q-22 52 -22 97q0 16 3 31q10 55 58.5 97t108.5 42q59 0 93 -42q25 -32 25 -72q0 -12 -2 -25q-11 -62 -59 -103q-26 -22 -56 -30q25 -56 71 -115z" />
    <glyph glyph-name="quotedblleft" unicode="&#x201c;" horiz-adv-x="723" 
d="M505 1500q28 -8 46 -30q26 -31 26 -74q0 -14 -3 -29q-10 -55 -58.5 -97t-107.5 -42q-60 0 -93 42q-26 32 -26 72q0 12 2 25q10 58 63.5 128.5t205.5 203.5l2 -2l56 -78l-1 -4q-67 -59 -112 -115zM845 1500q28 -8 46 -30q26 -31 26 -74q0 -14 -3 -29q-10 -55 -58.5 -97
t-107.5 -42q-60 0 -93 42q-26 32 -26 72q0 12 2 25q10 58 63.5 128.5t205.5 203.5l2 -2l56 -78l-1 -4q-67 -59 -112 -115z" />
    <glyph glyph-name="quotedblright" unicode="&#x201d;" horiz-adv-x="723" 
d="M734 1427q-28 8 -46 30q-25 31 -25 75q0 14 2 28q10 55 58.5 97t107.5 42q60 0 94 -42q25 -32 25 -72q0 -12 -2 -25q-10 -58 -63.5 -128.5t-205.5 -203.5l-2 2l-56 78l1 4q67 59 112 115zM394 1427q-28 8 -46 30q-25 31 -25 75q0 14 2 28q10 55 58.5 97t107.5 42
q60 0 94 -42q25 -32 25 -72q0 -12 -2 -25q-10 -58 -63.5 -128.5t-205.5 -203.5l-2 2l-56 78l1 4q67 59 112 115z" />
    <glyph glyph-name="quotedblbase" unicode="&#x201e;" horiz-adv-x="723" 
d="M477 -28q-28 8 -46 30q-25 31 -25 75q0 14 2 28q10 55 58.5 97t107.5 42q60 0 94 -42q25 -32 25 -72q0 -12 -2 -25q-10 -58 -63.5 -128.5t-205.5 -203.5l-2 2l-56 78l1 4q67 59 112 115zM137 -28q-28 8 -46 30q-25 31 -25 75q0 14 2 28q10 55 58.5 97t107.5 42
q60 0 94 -42q25 -32 25 -72q0 -12 -2 -25q-10 -58 -63.5 -128.5t-205.5 -203.5l-2 2l-56 78l1 4q67 59 112 115z" />
    <glyph glyph-name="bullet" unicode="&#x2022;" 
d="M816 1191q82 -84 82 -200q0 -118 -82 -200t-202 -82q-118 0 -200 82t-82 200q0 116 82 200t200 84q120 0 202 -84z" />
    <glyph glyph-name="ellipsis" unicode="&#x2026;" horiz-adv-x="2048" 
d="M322 241q41 -42 41 -100q0 -59 -41 -100t-101 -41q-59 0 -100 41t-41 100q0 58 41 100t100 42q60 0 101 -42zM1005 241q41 -42 41 -100q0 -59 -41 -100t-101 -41q-59 0 -100 41t-41 100q0 58 41 100t100 42q60 0 101 -42zM1688 241q41 -42 41 -100q0 -59 -41 -100
t-101 -41q-59 0 -100 41t-41 100q0 58 41 100t100 42q60 0 101 -42z" />
    <glyph glyph-name="perthousand" unicode="&#x2030;" horiz-adv-x="2465" 
d="M1683 1696l78 -70l-1492 -1702l-83 66zM817 1390q63 -77 63 -176q0 -28 -5 -59q-25 -143 -141.5 -238.5t-255.5 -95.5q-144 0 -222 96q-59 72 -59 171q0 32 6 67q24 135 136.5 234.5t256.5 99.5q139 0 221 -99zM573 1382q-90 0 -169 -68.5t-95 -158.5q-4 -22 -4 -43
q0 -68 43 -116q56 -64 146 -64q94 0 171.5 63.5t94.5 159.5q4 20 4 40q0 66 -42 119q-55 68 -149 68zM1684 669q62 -77 62 -175q0 -29 -5 -60q-25 -143 -140.5 -238.5t-256.5 -95.5t-220 96q-61 72 -61 172q0 32 6 66q24 135 138 234.5t255 99.5t222 -99zM1439 662
q-90 0 -168.5 -69t-94.5 -159q-4 -23 -4 -43q0 -68 43 -116q55 -64 145 -64q96 0 173.5 63.5t94.5 159.5q4 20 4 40q0 66 -42 119q-55 69 -151 69zM2484 669q62 -77 62 -175q0 -29 -5 -60q-25 -143 -140.5 -238.5t-256.5 -95.5t-220 96q-61 72 -61 172q0 32 6 66
q24 135 138 234.5t255 99.5t222 -99zM2239 662q-90 0 -168.5 -69t-94.5 -159q-4 -23 -4 -43q0 -68 43 -116q55 -64 145 -64q96 0 173.5 63.5t94.5 159.5q4 20 4 40q0 66 -42 119q-55 69 -151 69z" />
    <glyph glyph-name="minute" unicode="&#x2032;" horiz-adv-x="342" 
d="M50 1620h242l-62 -595h-119z" />
    <glyph glyph-name="second" unicode="&#x2033;" horiz-adv-x="626" 
d="M50 1620h242l-62 -595h-119zM334 1620h242l-62 -595h-119z" />
    <glyph glyph-name="guilsinglleft" unicode="&#x2039;" horiz-adv-x="633" 
d="M583 0h-129l-296 613l513 614h128l-513 -614z" />
    <glyph glyph-name="guilsinglright" unicode="&#x203a;" horiz-adv-x="633" 
d="M563 613l-297 614h128l297 -614l-512 -613h-129z" />
    <glyph glyph-name="exclamdbl" unicode="&#x203c;" horiz-adv-x="766" 
d="M329 440h-121l220 1245h121zM712 440h-121l220 1245h121zM322 241q41 -42 41 -100q0 -59 -41 -100t-101 -41q-59 0 -100 41t-41 100q0 58 41 100t100 42q60 0 101 -42zM705 241q41 -42 41 -100q0 -59 -41 -100t-101 -41q-59 0 -100 41t-41 100q0 58 41 100t100 42
q60 0 101 -42z" />
    <glyph glyph-name="uni203E" unicode="&#x203e;" horiz-adv-x="1216" 
d="M260 1857h1347l-20 -115h-1347z" />
    <glyph glyph-name="fraction" unicode="&#x2044;" horiz-adv-x="600" 
d="M1016 1542l81 -65l-1222 -1389l-85 63z" />
    <glyph glyph-name="franc" unicode="&#x20a3;" 
d="M374 463l205 1159h783l-21 -119h-662l-107 -606h464l-21 -119h-464l-56 -315h322l-20 -115h-322l-61 -348h-121l61 348h-140l20 115h140z" />
    <glyph glyph-name="lira" unicode="&#x20a4;" horiz-adv-x="1049" 
d="M350 658q-18 71 -46 151q-48 133 -48 250q0 47 8 91q31 173 181 305q202 176 390 176q76 0 149 -28q220 -85 220 -330q0 -40 -6 -83h-124q5 37 5 69q0 185 -165 235q-48 14 -95 14q-148 0 -296 -141q-97 -93 -119 -218q-6 -37 -6 -76q0 -95 37 -207q38 -114 59 -208h498
l-20 -115h-457q6 -47 6 -88q0 -25 -2 -47h429l-20 -115h-436q-33 -91 -103 -177h556l-20 -115h-659l-1 -1h-105l26 24h-6l-5 38q86 60 163 181q15 23 25 50h-203l20 115h204q1 12 1 25q0 51 -10 110h-171l20 115h126z" />
    <glyph glyph-name="peseta" unicode="&#x20a7;" horiz-adv-x="2138" 
d="M524 1505l-116 -659h155q402 0 460 328q7 42 7 78q0 253 -351 253h-155zM1116 1106q-104 -381 -572 -381h-157l-128 -725h-109l286 1622h273q432 0 432 -334q0 -29 -3 -61h71l50 280l119 3l-50 -283h200l-1 -5q69 29 151 31h14q265 0 265 -253q0 -11 -1 -23h-100
q-23 163 -192 163h-7q-64 0 -126 -37q-62 -45 -77 -120q-1 -11 -1 -21q0 -96 114 -108q125 -14 298.5 -37t230.5 -125q30 -52 30 -138q0 -52 -11 -117l-8 -48q-121 -410 -517 -419q-349 3 -349 399q0 68 10 147h130q-9 -72 -9 -132q0 -304 236 -307q285 8 376 310
q7 26 12 53q8 45 8 81q0 51 -16 86q-33 69 -112.5 87.5t-266.5 35t-244 78.5q-45 48 -45 123q0 21 3 44q13 72 57 131h-73l-195 -1106h-119l195 1106h-72z" />
    <glyph glyph-name="Euro" unicode="&#x20ac;" 
d="M425 1041q241 610 672 618q308 0 308 -365v-5l-86 -1q-13 248 -245 248q-331 -13 -533 -495h529l-43 -115h-529q-20 -55 -38 -115h523l-43 -115h-509v-2q-22 -127 -22 -227q0 -358 288 -373q402 31 512 553h108q-135 -637 -639 -672q-382 10 -382 464q0 114 24 257h-171
l43 115h154q18 60 37 115h-147l43 115h146z" />
    <glyph glyph-name="trademark" unicode="&#x2122;" horiz-adv-x="1208" 
d="M519 1560h-177v-603h-84v603h-208v78h544l243 -351l237 336v14h84v-681h-84v525l-190 -270h-96l-186 268v-521h-83v602z" />
    <glyph glyph-name="Omega" unicode="&#x2126;" horiz-adv-x="1415" 
d="M817 115h25q345 94 357 702q-14 719 -493 719q-482 0 -490 -719q6 -607 352 -702h59v-115h-593v115h285q-218 203 -234 702q27 842 625 842q596 0 620 -842q-14 -500 -231 -702h282v-115h-564v115z" />
    <glyph glyph-name="oneeighth" unicode="&#x215b;" horiz-adv-x="1538" 
d="M396 1363l-125 -1l309 306l-186 -1060h-131zM1324 1542l81 -65l-1222 -1389l-85 63zM992 350q-3 -26 -3 -49q0 -189 181 -189q203 0 264 238q5 37 5 68q0 181 -183 181q-214 0 -264 -249zM1139 811v-5q0 -80 140 -80q146 0 173 85q1 5 1 11q0 78 -143 78q-151 0 -171 -89
zM1487 661q93 -34 93 -193q0 -54 -11 -122q-89 -350 -419 -350q-300 0 -300 292q0 28 3 58q58 269 197 316q-44 19 -44 120q0 12 1 26q45 202 322 202q254 0 254 -167q0 -17 -3 -35q-34 -126 -93 -147z" />
    <glyph glyph-name="threeeighths" unicode="&#x215c;" horiz-adv-x="1738" 
d="M1556 1542l81 -65l-1222 -1389l-85 63zM588 1275l-90 -94l-86 76l214 254h-220l18 111h364l46 -53l-162 -185q220 0 252 -182q5 -30 5 -62q0 -37 -7 -76q-21 -116 -106 -244q-140 -208 -351 -209q-2 -1 -10 -1q-219 0 -269 273l128 28q49 -182 163 -182h12q127 9 222 156
q63 96 78 180q5 28 5 54q0 23 -4 45q-21 111 -201 111h-1zM1192 350q-3 -26 -3 -49q0 -189 181 -189q203 0 264 238q5 37 5 68q0 181 -183 181q-214 0 -264 -249zM1339 811v-5q0 -80 140 -80q146 0 173 85q1 5 1 11q0 78 -143 78q-151 0 -171 -89zM1687 661q93 -34 93 -193
q0 -54 -11 -122q-89 -350 -419 -350q-300 0 -300 292q0 28 3 58q58 269 197 316q-44 19 -44 120q0 12 1 26q45 202 322 202q254 0 254 -167q0 -17 -3 -35q-34 -126 -93 -147z" />
    <glyph glyph-name="fiveeighths" unicode="&#x215d;" horiz-adv-x="1772" 
d="M1590 1542l81 -65l-1222 -1389l-85 63zM1226 350q-3 -26 -3 -49q0 -189 181 -189q203 0 264 238q5 37 5 68q0 181 -183 181q-214 0 -264 -249zM1373 811v-5q0 -80 140 -80q146 0 173 85q1 5 1 11q0 78 -143 78q-151 0 -171 -89zM1721 661q93 -34 93 -193q0 -54 -11 -122
q-90 -350 -420 -350q-299 0 -299 291q0 28 3 59q58 269 197 316q-44 19 -44 120q0 12 1 26q45 202 322 202q254 0 254 -167q0 -17 -3 -35q-35 -126 -93 -147zM539 1509l-102 -189q491 -21 491 -210v-9q-1 -26 -6 -52q-27 -155 -162 -288q-156 -154 -337 -154h-8
q-192 4 -205 413l138 21v-6q0 -278 93 -300q14 -4 29 -4q82 0 188 97q111 99 129 206q4 21 5 43q0 120 -417 132l-100 61l188 350h441l-19 -111h-346z" />
    <glyph glyph-name="seveneighths" unicode="&#x215e;" horiz-adv-x="1639" 
d="M1457 1542l81 -65l-1222 -1389l-85 63zM1093 350q-3 -26 -3 -49q0 -189 181 -189q203 0 264 238q5 37 5 68q0 181 -183 181q-214 0 -264 -249zM1240 811v-5q0 -80 140 -80q146 0 173 85q1 5 1 11q0 78 -143 78q-151 0 -171 -89zM1588 661q93 -34 93 -193q0 -54 -11 -122
q-89 -350 -419 -350q-300 0 -300 292q0 28 3 58q58 269 197 316q-44 19 -44 120q0 12 1 26q45 202 322 202q254 0 254 -167q0 -17 -3 -35q-34 -126 -93 -147zM799 1511h-501l18 111h633q-4 -62 -11 -103q-28 -160 -277 -461.5t-275 -447.5h-136q31 178 278.5 475.5
t270.5 425.5z" />
    <glyph glyph-name="arrowleft" unicode="&#x2190;" horiz-adv-x="2018" 
d="M216 671h1752v-115h-1753l168 -256h-129l-204 313l205 314h128z" />
    <glyph glyph-name="arrowup" unicode="&#x2191;" horiz-adv-x="727" 
d="M421 1407v-1752h-115v1752l-256 -167v129l313 204l314 -205v-128z" />
    <glyph glyph-name="arrowright" unicode="&#x2192;" horiz-adv-x="2018" 
d="M1635 927h128l205 -314l-204 -313h-129l168 256h-1753v115h1752z" />
    <glyph glyph-name="arrowdown" unicode="&#x2193;" horiz-adv-x="727" 
d="M677 -12v-128l-314 -205l-313 204v129l256 -168v1753h115v-1753z" />
    <glyph glyph-name="arrowboth" unicode="&#x2194;" horiz-adv-x="2018" 
d="M1802 671l-167 256h128l205 -314l-204 -313h-129l168 256h-1588l168 -256h-129l-204 313l205 314h128l-167 -256h1586z" />
    <glyph glyph-name="arrowupdn" unicode="&#x2195;" horiz-adv-x="727" 
d="M421 -180l256 168v-128l-314 -205l-313 204v129l256 -168v1587l-256 -167v129l313 204l314 -205v-128l-256 167v-1587z" />
    <glyph glyph-name="arrowupdnbse" unicode="&#x21a8;" horiz-adv-x="727" 
d="M420 -180l256 168v-128l-314 -205l-313 204v129l256 -168v1587l-256 -167v129l313 204l314 -205v-128l-256 167v-1587zM676 -491h-628v115h628v-115z" />
    <glyph glyph-name="minus" unicode="&#x2212;" 
d="M108 602v115h1013v-115h-1013z" />
    <glyph glyph-name="approxequal" unicode="&#x2248;" 
d="M148 955q103 148 250 148q105 0 234 -77q143 -88 239 -88q94 0 137 93l74 -84q-100 -136 -239 -136q-105 0 -234 79q-143 86 -240 86q-102 0 -144 -108zM148 663q103 148 250 148q105 0 234 -77q143 -88 239 -88q94 0 137 93l74 -84q-100 -136 -239 -136q-105 0 -234 79
q-143 86 -240 86q-102 0 -144 -108z" />
    <glyph glyph-name="lessequal" unicode="&#x2264;" 
d="M36 657l1158 456v-123l-996 -378l996 -375v-123l-1158 457v86zM57 -4v115h1132v-115h-1132z" />
    <glyph glyph-name="greaterequal" unicode="&#x2265;" 
d="M1194 571l-1158 -457v123l996 375l-996 378v123l1158 -456v-86zM41 -4v115h1132v-115h-1132z" />
    <glyph glyph-name="revlogicalnot" unicode="&#x2310;" 
d="M227 156h-119v561h1013v-115h-894v-446z" />
    <glyph glyph-name="uniF001" unicode="&#xf001;" horiz-adv-x="1408" 
d="M285 1106l21 117h106l27 154q74 421 373 443h21q257 0 257 -285v-13l-117 -39v17q0 207 -167 207q-190 -10 -243 -309l-30 -175h303l-21 -117h-303l-264 -1497h-121l264 1497h-106zM1162 -3h-121l217 1228h121zM1481.5 1712q29.5 -31 29.5 -74t-29.5 -73.5t-74.5 -30.5
t-76 30.5t-31 73.5t31 74t76 31t74.5 -31z" />
    <glyph glyph-name="uniF001" unicode="&#xfb01;" horiz-adv-x="1408" 
d="M285 1106l21 117h106l27 154q74 421 373 443h21q257 0 257 -285v-13l-117 -39v17q0 207 -167 207q-190 -10 -243 -309l-30 -175h303l-21 -117h-303l-264 -1497h-121l264 1497h-106zM1162 -3h-121l217 1228h121zM1481.5 1712q29.5 -31 29.5 -74t-29.5 -73.5t-74.5 -30.5
t-76 30.5t-31 73.5t31 74t76 31t74.5 -31z" />
    <glyph glyph-name="uniF002" unicode="&#xf002;" horiz-adv-x="1318" 
d="M285 1106l21 117h106l27 154q74 421 373 443h21q257 0 257 -285v-13l-117 -39v17q0 207 -167 207q-190 -10 -243 -309l-30 -175h303l-21 -117h-303l-264 -1497h-121l264 1497h-106zM1118 0h-121l286 1622h121z" />
    <glyph glyph-name="uniF002" unicode="&#xfb02;" horiz-adv-x="1318" 
d="M285 1106l21 117h106l27 154q74 421 373 443h21q257 0 257 -285v-13l-117 -39v17q0 207 -167 207q-190 -10 -243 -309l-30 -175h303l-21 -117h-303l-264 -1497h-121l264 1497h-106zM1118 0h-121l286 1622h121z" />
    </font>
</defs>
</svg>
