<svg xmlns="http://www.w3.org/2000/svg">
<defs>
<font id="Jolly-Bold" horiz-adv-x="1127" >
  <font-face 
    font-family="Jolly"
    font-weight="700"
    font-stretch="normal"
    units-per-em="2048"
    panose-1="2 11 8 2 2 2 3 2 3 4"
    ascent="1638"
    descent="-410"
    x-height="1247"
    cap-height="1634"
    bbox="-237 -512 2461 2115"
    underline-thickness="150"
    underline-position="-442"
    unicode-range="U+0020-F002"
  />
<missing-glyph horiz-adv-x="1836" 
d="M944 290q0 24 -6 24h-20v-34h18v10h8zM1482 820q0 22 -6 22h-20v-32h18v10h8zM1104 1268q10 0 16 10q10 14 10 38q-2 24 -10 38q-8 10 -18 10t-16 -10q-10 -12 -10 -38q2 -24 10 -36t18 -12zM1458 930q12 0 18 10q8 12 8 38q0 24 -10 38q-6 10 -16 10q-12 0 -18 -10
q-8 -14 -8 -38t10 -38q6 -10 16 -10zM378 558q12 0 18 10q8 14 8 38t-10 38q-6 10 -16 10q-12 0 -18 -10q-8 -12 -8 -38q0 -24 10 -36q6 -12 16 -12zM754 230q10 14 10 38t-8 38q-8 10 -18 10t-18 -10q-8 -14 -8 -38q0 -26 8 -38q6 -10 16 -10t18 10zM402 810q0 22 -6 22
h-20v-32h18v10h8zM960 290v-40h-24v10h-18v-34q0 -8 14 -8v-18h-62v18q12 0 12 4v92q0 4 -12 4v16h100v-44h-10zM1296 316h-8v18h48v-18q-10 0 -12 -6l-28 -52v-36q0 -4 12 -4v-18h-60v18q12 0 12 4v36l-28 52q-4 6 -12 6v18h56v-18h-8l14 -28zM580 1366h-6v18h46v-18
q-8 0 -12 -6l-26 -54v-36q0 -4 12 -4v-16h-62v16q14 0 14 4v36l-30 54q-4 6 -10 6v18h54v-18h-8l16 -28zM396 1196h-8v18h48v-18q-10 0 -12 -6l-28 -52v-36q0 -4 12 -4v-18h-60v18q12 0 12 4v36l-28 52q-4 6 -12 6v18h56v-18h-8l14 -28zM1498 820v-40h-24v8h-18v-32
q0 -8 14 -8v-18h-62v18q12 0 12 4v90q0 4 -12 4v18h100v-44h-10zM1476 486h-8v18h48v-18q-10 0 -12 -6l-28 -52v-36q0 -4 12 -4v-18h-60v18q12 0 12 4v36l-28 52q-4 6 -12 6v18h56v-18h-8l14 -28zM352 1318v-46q0 -4 18 -4v-18h-56v18q10 0 10 4v82q0 12 -10 12v18h30
l58 -70v48q0 4 -16 4v18h56v-18q-10 0 -10 -4v-112h-20zM698 1384l42 -86l36 86h40v-18q-10 0 -10 -12v-82q0 -4 10 -4v-18h-54v18q8 0 8 2v30l-22 -50h-24l-26 52v-30q0 -4 8 -4v-18h-46v18q8 0 8 4v82q0 12 -8 12v18h38zM1168 1316q0 -28 -16 -48t-48 -20q-34 0 -50 20

<glyph glyph-name=".notdef" horiz-adv-x="1836" 
d="M944 290q0 24 -6 24h-20v-34h18v10h8zM1482 820q0 22 -6 22h-20v-32h18v10h8zM1104 1268q10 0 16 10q10 14 10 38q-2 24 -10 38q-8 10 -18 10t-16 -10q-10 -12 -10 -38q2 -24 10 -36t18 -12zM1458 930q12 0 18 10q8 12 8 38q0 24 -10 38q-6 10 -16 10q-12 0 -18 -10
q-8 -14 -8 -38t10 -38q6 -10 16 -10zM378 558q12 0 18 10q8 14 8 38t-10 38q-6 10 -16 10q-12 0 -18 -10q-8 -12 -8 -38q0 -24 10 -36q6 -12 16 -12zM754 230q10 14 10 38t-8 38q-8 10 -18 10t-18 -10q-8 -14 -8 -38q0 -26 8 -38q6 -10 16 -10t18 10zM402 810q0 22 -6 22
h-20v-32h18v10h8zM960 290v-40h-24v10h-18v-34q0 -8 14 -8v-18h-62v18q12 0 12 4v92q0 4 -12 4v16h100v-44h-10zM1296 316h-8v18h48v-18q-10 0 -12 -6l-28 -52v-36q0 -4 12 -4v-18h-60v18q12 0 12 4v36l-28 52q-4 6 -12 6v18h56v-18h-8l14 -28zM580 1366h-6v18h46v-18
q-8 0 -12 -6l-26 -54v-36q0 -4 12 -4v-16h-62v16q14 0 14 4v36l-30 54q-4 6 -10 6v18h54v-18h-8l16 -28zM396 1196h-8v18h48v-18q-10 0 -12 -6l-28 -52v-36q0 -4 12 -4v-18h-60v18q12 0 12 4v36l-28 52q-4 6 -12 6v18h56v-18h-8l14 -28zM1498 820v-40h-24v8h-18v-32
q0 -8 14 -8v-18h-62v18q12 0 12 4v90q0 4 -12 4v18h100v-44h-10zM1476 486h-8v18h48v-18q-10 0 -12 -6l-28 -52v-36q0 -4 12 -4v-18h-60v18q12 0 12 4v36l-28 52q-4 6 -12 6v18h56v-18h-8l14 -28zM352 1318v-46q0 -4 18 -4v-18h-56v18q10 0 10 4v82q0 12 -10 12v18h30
l58 -70v48q0 4 -16 4v18h56v-18q-10 0 -10 -4v-112h-20zM698 1384l42 -86l36 86h40v-18q-10 0 -10 -12v-82q0 -4 10 -4v-18h-54v18q8 0 8 2v30l-22 -50h-24l-26 52v-30q0 -4 8 -4v-18h-46v18q8 0 8 4v82q0 12 -8 12v18h38zM1168 1316q0 -28 -16 -48t-48 -20q-34 0 -50 20
t-16 48q0 30 16 48q16 20 48 20q34 0 50 -20q16 -18 16 -48zM1252 1318v-46q0 -4 18 -4v-18h-56v18q8 0 8 4v82q0 12 -8 12v18h30l58 -70v48q0 4 -16 4v18h54v-18q-8 0 -8 -4v-112h-22zM1512 1384v-44h-26q0 22 -6 22h-4v-90q0 -4 12 -4v-18h-60v18q12 0 12 4v90h-4
q-6 0 -6 -22h-26v44h108zM918 1308v-32q0 -8 14 -8v-18h-62v18q12 0 12 4v90q0 4 -12 4v18h100v-44h-26q0 22 -6 22h-20v-32h18v8h24v-38h-24v8h-18zM1432 268v-46q0 -4 18 -4v-18h-56v18q10 0 10 4v82q0 12 -10 12v18h30l58 -70v48q0 4 -16 4v18h56v-18q-10 0 -10 -4v-112
h-20zM1418 684l42 -86l36 86h40v-18q-8 0 -8 -12v-82q0 -4 8 -4v-18h-54v18q10 0 10 2v28l-24 -48h-24l-26 52v-30q0 -4 8 -4v-18h-46v18q8 0 8 4v82q0 12 -8 12v18h38zM1522 976q0 -28 -14 -46q-16 -20 -50 -20t-48 18q-16 20 -16 48q0 32 14 50q16 20 48 20q36 0 52 -20
q14 -18 14 -50zM1432 1158v-46q0 -4 18 -4v-18h-56v18q10 0 10 4v82q0 12 -10 12v18h30l58 -70v48q0 4 -16 4v18h56v-18q-10 0 -10 -4v-112h-20zM432 336v-44h-26q0 22 -6 22h-4v-90q0 -4 12 -4v-18h-60v18q12 0 12 4v90h-4q-6 0 -6 -22h-26v44h108zM338 1034l42 -84l36 84
h40v-16q-8 0 -8 -14v-82q0 -4 8 -4v-18h-54v18q10 0 10 4v28l-24 -50h-24l-26 52v-30q0 -4 8 -4v-18h-46v18q8 0 8 4v82q0 14 -8 14v16h38zM442 606q0 -30 -14 -48q-16 -20 -50 -20t-48 20q-16 18 -16 48t14 48q16 20 48 20q36 0 52 -20q14 -18 14 -48zM352 428v-46
q0 -4 18 -4v-18h-56v18q10 0 10 4v82q0 12 -10 12v18h30l58 -70v48q0 4 -16 4v18h56v-18q-10 0 -10 -4v-112h-20zM1062 334l42 -84l38 84h38v-16q-8 0 -8 -14v-82q0 -4 8 -4v-18h-52v18q8 0 8 4v28l-22 -50h-24l-26 52v-30q0 -4 8 -4v-18h-46v18q8 0 8 4v82q0 14 -8 14v16
h36zM688 316q16 20 50 20q32 0 50 -20q14 -18 14 -50q0 -28 -16 -48q-16 -18 -50 -18q-32 0 -48 20q-16 18 -16 46q0 32 16 50zM538 268v-46q0 -4 18 -4v-18h-56v18q8 0 8 4v82q0 14 -8 14v16h30l58 -70v50q0 4 -18 4v16h56v-16q-10 0 -10 -4v-114h-20zM418 810v-40h-24v8
h-18v-32q0 -8 14 -8v-18h-62v18q12 0 12 4v90q0 4 -12 4v18h100v-44h-10z" />
    <glyph glyph-name=".null" horiz-adv-x="159" 
 />
    <glyph glyph-name="nonmarkingreturn" horiz-adv-x="1026" 
 />
    <glyph glyph-name="space" unicode=" " horiz-adv-x="800" 
 />
    <glyph glyph-name="space" unicode="&#xa0;" horiz-adv-x="800" 
 />
    <glyph glyph-name="exclam" unicode="!" horiz-adv-x="435" 
d="M337 278q48 -49 48 -115q0 -67 -48 -115t-120 -48q-71 0 -119 48t-48 115q0 66 48 115t119 49q72 0 120 -49zM306 429h-177v1266h177v-1266z" />
    <glyph glyph-name="quotedbl" unicode="&#x22;" horiz-adv-x="719" 
d="M50 1632h300l-66 -632h-169zM370 1632h299l-63 -632h-174z" />
    <glyph glyph-name="numbersign" unicode="#" horiz-adv-x="1272" 
d="M555 1050h248l42 431h171l-42 -431h253l-38 -163h-232l-25 -257h201l-35 -163h-183l-45 -467h-172l46 467h-248l-45 -467h-172l46 467h-280l41 163h256l25 257h-231l44 163h204l42 431h171zM786 887h-248l-25 -257h248z" />
    <glyph glyph-name="dollar" unicode="$" horiz-adv-x="1263" 
d="M546 855v-716h34v716h-34zM720 144q231 30 270 336q2 29 2 60q0 120 -40 185q-49 75 -138 95q-48 11 -94 17v-693zM417 1330q-26 -3 -75 -37q-58 -47 -60 -125q7 -122 135 -136v298zM580 1334h-34v-317h34v317zM720 1233v-237q14 -2 56 -6q212 -28 302 -150
q76 -101 76 -304v-55q-52 -452 -434 -491v-72h-140v70l-34 -2v-68h-129v107q-279 111 -299 632l161 -2q25 -367 138 -442v657q-152 20 -222 85q-83 74 -87 203q0 134 99 233q91 88 210 98v92h129v-92l34 1v91h140v-123q138 -47 138 -224z" />
    <glyph glyph-name="percent" unicode="%" horiz-adv-x="1681" 
d="M1371 1720l134 -103l-1192 -1704l-139 97zM609 1398.5q105 -105.5 105 -246.5q0 -149 -105.5 -250t-253.5 -101q-154 0 -254.5 101.5t-100.5 249.5q0 141 100.5 246.5t254.5 105.5q149 0 254 -105.5zM351 1349q-74 0 -131.5 -59t-57.5 -138q0 -84 57 -138t132 -54
q79 0 135.5 54t56.5 138q0 79 -57 138t-135 59zM1577 695q104 -105 104 -246q0 -149 -104 -250t-254 -101q-151 0 -253 101t-102 250q0 141 102 246t253 105q150 0 254 -105zM1319 646q-74 0 -131 -59t-57 -138q0 -84 56.5 -138t131.5 -54q80 0 136.5 54t56.5 138
q0 79 -56.5 138t-136.5 59z" />
    <glyph glyph-name="ampersand" unicode="&#x26;" horiz-adv-x="1264" 
d="M772 625v-291l-171 4v396q3 54 59 54h471v-163h-37q23 -52 23 -156q0 -201 -143.5 -345t-349.5 -144q-204 0 -348 144t-144 345t143 347q72 69 116 88q2 -1 -29 28q-106 108 -106 259q0 148 107 255.5t261 107.5q64 0 119 -18q78 -26 143 -89q56 -57 82 -125
q25 -61 25 -131q0 -55 -6 -75h84v-157h-223q-67 19 -67 75q0 47 28 71q18 37 18 86q0 84 -60.5 145t-144.5 61q-82 0 -141.5 -61t-59.5 -145q0 -89 60 -150q59 -59 149 -82q34 -36 34 -68q0 -31 -35 -69q-141 -24 -234 -117q-96 -99 -96 -236t96 -232.5t227 -95.5
q135 0 231 95.5t96 232.5q0 89 -56 156h-121z" />
    <glyph glyph-name="quotesingle" unicode="'" horiz-adv-x="399" 
d="M50 1632h300l-66 -632h-169z" />
    <glyph glyph-name="parenleft" unicode="(" horiz-adv-x="613" 
d="M563 -173q-278 12 -395 276q-118 264 -118 711q0 446 116 710q117 265 397 277v-130q-145 -18 -232 -221q-98 -229 -98 -636t98 -636q87 -202 232 -219v-132z" />
    <glyph glyph-name="parenright" unicode=")" horiz-adv-x="613" 
d="M50 -41q145 17 233 219q97 228 97 636q0 407 -97 636q-88 203 -233 221v130q280 -12 397 -277q116 -264 116 -710q0 -447 -118 -711q-117 -264 -395 -276v132z" />
    <glyph glyph-name="asterisk" unicode="*" horiz-adv-x="1067" 
d="M655 981l29 -274h-300l27 274l-236 -142l-125 267l183 63l-183 64l125 267l237 -143l-28 275h300l-29 -275l237 143l125 -267l-183 -64l183 -63l-125 -267z" />
    <glyph glyph-name="plus" unicode="+" horiz-adv-x="1263" 
d="M543 587h-435v163h435v440l174 -3v-437h437v-163h-437v-435h-174v435z" />
    <glyph glyph-name="comma" unicode="," horiz-adv-x="435" 
d="M126 37q-2 1 -27 26q-49 49 -49 119q0 62 48 111.5t119 49.5q72 0 120 -49.5t48 -111.5q0 -63 -42.5 -136t-192.5 -228l-25 26l-75 83v22q60 62 76 88z" />
    <glyph glyph-name="hyphen" unicode="-" horiz-adv-x="761" 
d="M50 625v163h661v-163h-661z" />
    <glyph glyph-name="hyphen" unicode="&#xad;" horiz-adv-x="761" 
d="M50 625v163h661v-163h-661z" />
    <glyph glyph-name="period" unicode="." horiz-adv-x="435" 
d="M337 278q48 -49 48 -115q0 -67 -48 -115t-120 -48q-71 0 -119 48t-48 115q0 66 48 115t119 49q72 0 120 -49z" />
    <glyph glyph-name="slash" unicode="/" horiz-adv-x="655" 
d="M495 1664l160 -49l-491 -1635l-164 44z" />
    <glyph glyph-name="zero" unicode="0" horiz-adv-x="1265" 
d="M947 853q-23 642 -314 642q-288 0 -315 -642q11 -682 315 -682t314 682zM631 1668q453 0 495 -815q-16 -857 -495 -857q-480 0 -492 857q37 815 492 815zM719.5 911.5q36.5 -37.5 36.5 -86.5q0 -52 -36.5 -88.5t-92.5 -36.5q-55 0 -91.5 36.5t-36.5 88.5q0 49 36.5 86.5
t91.5 37.5q56 0 92.5 -37.5z" />
    <glyph glyph-name="one" unicode="1" horiz-adv-x="1307" 
d="M656 1227l-181 -1l357 464v-1690h-176v1227z" />
    <glyph glyph-name="two" unicode="2" horiz-adv-x="1269" 
d="M1081 167v-167h-894q13 525 346 782q285 220 285 446q-25 259 -223 259q-221 -13 -231 -398h-166q-2 49 -2 72q0 469 408 490q350 -7 393 -425q-6 -289 -317 -538q-288 -234 -310 -521h711z" />
    <glyph glyph-name="three" unicode="3" horiz-adv-x="1270" 
d="M601 1083l-108 -148l-135 113l256 419h-335l-1 167h532l76 -81l-198 -307q338 0 431 -290q34 -109 34 -222q0 -188 -93 -393q-153 -336 -466 -338q-2 -1 -12 -1q-321 0 -464 432l167 42q120 -295 317 -295q195 15 301 259q69 157 69 295q0 84 -26 162q-61 186 -339 186
h-6z" />
    <glyph glyph-name="four" unicode="4" horiz-adv-x="1280" 
d="M765 1634h161v-1022h239v-172h-239v-440h-177v440h-634zM749 612v654l-364 -654h364z" />
    <glyph glyph-name="five" unicode="5" horiz-adv-x="1268" 
d="M460 1465l-107 -321q763 -36 797 -349q4 -43 4 -85q0 -251 -165 -464q-190 -248 -456 -248h-13q-281 6 -406 659l182 32q73 -459 225 -496q25 -7 49 -7q127 0 264 161q141 163 141 339q0 35 -5 70q-32 202 -666 221l-158 95l185 560h644l1 -167h-516z" />
    <glyph glyph-name="six" unicode="6" horiz-adv-x="1267" 
d="M456 388q-9 -44 -9 -79q0 -153 154 -153q16 0 34 2q237 20 266 280q3 30 3 58q0 176 -153 176q-13 0 -28 -1q-221 -20 -267 -283zM639 1654l116 -132q-388 -279 -388 -829q0 -28 1 -57q113 204 341 204q19 0 38 -1h2q335 0 335 -328q0 -46 -7 -100q-57 -424 -476 -429
q-4 -2 -11 -2q-407 0 -407 618q0 23 1 48q15 653 455 1008z" />
    <glyph glyph-name="seven" unicode="7" horiz-adv-x="1266" 
d="M915 1467h-752l-1 167h931q10 -95 10 -161q0 -258 -294.5 -749t-294.5 -722h-184q0 281 292.5 764.5t292.5 700.5z" />
    <glyph glyph-name="eight" unicode="8" horiz-adv-x="1263" 
d="M293 563q24 -394 337 -394q314 0 344 395q-11 411 -344 411q-328 0 -337 -412zM390 1313q18 -145 242 -145q228 0 247 145q-9 152 -247 152q-234 0 -242 -152zM942 1069q207 -80 217 -512q-42 -563 -529 -563q-482 0 -526 563q14 432 222 514q-91 39 -114 237
q15 322 420 322q410 0 421 -322q-19 -200 -111 -239z" />
    <glyph glyph-name="nine" unicode="9" horiz-adv-x="1267" 
d="M812 1233q7 44 7 79q0 154 -153 154q-16 0 -33 -2q-239 -21 -267 -281q-3 -30 -3 -57q0 -177 153 -177q13 0 29 2q220 20 267 282zM628 -32l-116 132q408 292 408 949q-97 -244 -392 -265q-2 -1 -11 -1q-334 0 -334 327q0 47 7 102q57 423 481 429h6q407 0 407 -617v-46
q-16 -655 -456 -1010z" />
    <glyph glyph-name="colon" unicode=":" horiz-adv-x="435" 
d="M337 278q48 -49 48 -115q0 -67 -48 -115t-120 -48q-71 0 -119 48t-48 115q0 66 48 115t119 49q72 0 120 -49zM337 1058q48 -48 48 -113q0 -67 -48.5 -114t-119.5 -47t-119 47t-48 114q0 65 48 113t119 48q72 0 120 -48z" />
    <glyph glyph-name="semicolon" unicode=";" horiz-adv-x="435" 
d="M336.5 1075q48.5 -47 48.5 -115q0 -65 -48 -113t-120 -48q-71 0 -119 48t-48 113q0 68 48 115t119 47t119.5 -47zM126 37q-2 1 -27 26q-49 49 -49 119q0 62 48 111.5t119 49.5q72 0 120 -49.5t48 -111.5q0 -63 -42.5 -136t-192.5 -228l-25 26l-75 83v22q60 62 76 88z" />
    <glyph glyph-name="semicolon" unicode="&#x37e;" horiz-adv-x="435" 
d="M336.5 1075q48.5 -47 48.5 -115q0 -65 -48 -113t-120 -48q-71 0 -119 48t-48 113q0 68 48 115t119 47t119.5 -47zM126 37q-2 1 -27 26q-49 49 -49 119q0 62 48 111.5t119 49.5q72 0 120 -49.5t48 -111.5q0 -63 -42.5 -136t-192.5 -228l-25 26l-75 83v22q60 62 76 88z" />
    <glyph glyph-name="less" unicode="&#x3c;" horiz-adv-x="1259" 
d="M36 683l1187 468v-176l-927 -352l927 -350v-176l-1187 469v117z" />
    <glyph glyph-name="equal" unicode="=" horiz-adv-x="1263" 
d="M110 890h1043v-163h-1043v163zM110 570h1043v-162h-1043v162z" />
    <glyph glyph-name="greater" unicode="&#x3e;" horiz-adv-x="1259" 
d="M1223 566l-1187 -469v176l927 350l-927 352v176l1187 -468v-117z" />
    <glyph glyph-name="question" unicode="?" horiz-adv-x="1063" 
d="M565 268q47 -48 47 -111q0 -65 -47 -112t-116 -47t-116 47t-47 112q0 63 47 111t116 48t116 -48zM355 423q-6 28 -6 36v10q0 280 237 446q249 173 249 316q0 53 -11 114q-64 188 -293 188h-31q-251 -13 -282 -338h-156q-8 16 -12 25q19 452 426 478h51q357 0 469 -307
q17 -84 17 -157q0 -217 -272 -417q-213 -153 -213 -352v-42h-173z" />
    <glyph glyph-name="at" unicode="@" horiz-adv-x="1169" 
d="M837 650q62 60 62 195q-43 -71 -264 -71h-22q-170 0 -170 -64q0 -6 3 -16q45 -117 167 -117h4q150 2 220 73zM1113 437q5 -63 5 -97q0 -530 -523 -530h-4q-540 2 -540 913q0 42 2 88q2 821 532 842q449 0 477 -416v-290q2 -42 2 -79q0 -228 -96 -334q-115 -126 -351 -126
h-6q-254 2 -334 265q-3 19 -3 32q0 227 286 227h21l2 -2q220 0 314 53v198q-6 310 -307 310q-347 -11 -356 -694v-56q0 -759 358 -770h18q333 0 333 413v53h170z" />
    <glyph glyph-name="A" unicode="A" horiz-adv-x="1381" 
d="M456 582l-177 -582h-179l500 1634h182l499 -1634h-177l-179 582h-469zM506 745h370l-185 605z" />
    <glyph glyph-name="B" unicode="B" horiz-adv-x="1240" 
d="M150 0v1634l377 -2q427 0 451 -374v-20q0 -224 -112 -293q258 -104 274 -466q-16 -479 -573 -479h-417zM327 1010h320q162 41 162 239q-11 205 -259 218h-223v-457zM327 167h262q376 0 376 331q-15 339 -405 339h-233v-670z" />
    <glyph glyph-name="C" unicode="C" horiz-adv-x="1353" 
d="M1018 1257q-65 242 -308 242q-444 -15 -444 -666v-10q3 -663 401 -680q427 28 447 539h183q-29 -671 -627 -706q-585 13 -585 843v6q2 834 627 845q379 0 461 -412z" />
    <glyph glyph-name="D" unicode="D" horiz-adv-x="1271" 
d="M451 1469h-124v-1302h124q526 0 535 644q-9 658 -535 658zM508 0h-358v1634h358q653 -30 663 -823q-10 -779 -663 -811z" />
    <glyph glyph-name="E" unicode="E" horiz-adv-x="1145" 
d="M150 1634h824v-167h-645v-541h452v-167h-452v-592h716v-167h-895v1634z" />
    <glyph glyph-name="F" unicode="F" horiz-adv-x="1047" 
d="M175 1634h822v-167h-645v-541h452v-167h-452v-759h-177v1634z" />
    <glyph glyph-name="G" unicode="G" horiz-adv-x="1393" 
d="M687 -24q-585 13 -585 843v6q2 834 627 845q379 0 461 -412l-155 -1q-65 242 -308 242q-444 -15 -444 -666v-10q3 -663 401 -680q404 26 440 458h-271v163h460q-42 -754 -626 -788z" />
    <glyph glyph-name="H" unicode="H" horiz-adv-x="1297" 
d="M175 1634h171v-719h605v719h171v-1634h-171v752h-605v-752h-171v1634z" />
    <glyph glyph-name="I" unicode="I" horiz-adv-x="571" 
d="M371 1634v-1634h-171v1634h171z" />
    <glyph glyph-name="J" unicode="J" horiz-adv-x="608" 
d="M-150 -259q359 2 379 293v1600h179v-1544q0 -517 -558 -522v173z" />
    <glyph glyph-name="K" unicode="K" horiz-adv-x="1422" 
d="M1171 1634l-415 -570l566 -1064h-192l-486 911l-273 -374v-537h-171v1634h171v-811l593 811h207z" />
    <glyph glyph-name="L" unicode="L" horiz-adv-x="1038" 
d="M321 1v-1h-171v1634h171v-1470h642v-163h-642z" />
    <glyph glyph-name="M" unicode="M" horiz-adv-x="1674" 
d="M1354 1609v25h170v-1634h-170v1291l-420 -671h-199l-414 663v-1279h-171v1633h159l527 -858z" />
    <glyph glyph-name="N" unicode="N" horiz-adv-x="1364" 
d="M284 1634l784 -1263v1263h171v-1634h-138l-805 1281v-1281h-171v1634h159z" />
    <glyph glyph-name="O" unicode="O" horiz-adv-x="1442" 
d="M273 823q8 -677 449 -677q437 0 451 677q-14 676 -451 676q-441 0 -449 -676zM85 823q27 847 639 847q609 0 633 -847q-24 -845 -633 -845q-612 0 -639 845z" />
    <glyph glyph-name="P" unicode="P" horiz-adv-x="1147" 
d="M327 707v-707h-177v1634h325q572 0 572 -463q0 -464 -580 -464h-140zM327 1469v-593h138q406 0 406 295q0 298 -406 298h-138z" />
    <glyph glyph-name="Q" unicode="Q" horiz-adv-x="1442" 
d="M1029 49q-112 -71 -305 -71q-612 0 -639 845q27 847 639 847q609 0 633 -847q-14 -473 -198 -668l147 -194l-133 -102zM922 191l-145 192l133 102l138 -182q117 137 125 520q-14 676 -451 676q-441 0 -449 -676q8 -677 449 -677q130 0 200 45z" />
    <glyph glyph-name="R" unicode="R" horiz-adv-x="1211" 
d="M480 876q391 0 391 295q0 298 -406 298h-138v-593h153zM919 0l-371 710q-27 -3 -81 -3h-140v-707h-177v1634h325q572 0 572 -463q0 -361 -322 -434l385 -737h-191z" />
    <glyph glyph-name="S" unicode="S" horiz-adv-x="1338" 
d="M846 1302q-52 182 -240 208l-10 1q-18 2 -34 2q-60 0 -117 -29q-72 -43 -86 -131v-16q0 -123 137 -156q168 -41 390.5 -101.5t302.5 -204.5q49 -86 49 -221q0 -57 -9 -124l-9 -62q-121 -474 -553 -474q-44 0 -93 5q-474 68 -474 635q0 37 3 101h187q-4 -68 -4 -107
q0 -423 311 -468q32 -4 63 -4q298 0 386 333q6 32 10 65q6 45 6 83q0 78 -23 130q-43 90 -144.5 127t-340 90.5t-317.5 147.5q-66 78 -66 190q0 21 2 43q20 147 143 241q102 76 244 76q29 0 62 -3l18 -3q329 -43 358 -374h-152z" />
    <glyph glyph-name="T" unicode="T" horiz-adv-x="1216" 
d="M693 1472v-1472h-171v1472h-452v163h1076v-163h-453z" />
    <glyph glyph-name="U" unicode="U" horiz-adv-x="1393" 
d="M698 169q370 3 370 390v1075h175v-1101q0 -529 -545 -533q-548 4 -548 533v1101h179v-1075q0 -387 369 -390z" />
    <glyph glyph-name="V" unicode="V" horiz-adv-x="1448" 
d="M1142 1634h182q-61 -967 -598 -1686q-537 719 -601 1686h184q79 -863 417 -1383q343 520 416 1383z" />
    <glyph glyph-name="W" unicode="W" horiz-adv-x="2033" 
d="M921 635q-174 441 -211 999h184q78 -863 417 -1383q342 520 416 1383h182q-61 -967 -598 -1686q-198 265 -292 467q-95 -201 -293 -467q-537 719 -601 1686h184q79 -863 417 -1384q106 159 195 385z" />
    <glyph glyph-name="X" unicode="X" horiz-adv-x="1263" 
d="M70 0l464 844l-434 790h193l338 -615l338 615h193l-435 -790l465 -844h-193l-368 669l-368 -669h-193z" />
    <glyph glyph-name="Y" unicode="Y" horiz-adv-x="1262" 
d="M716 0h-171l-1 834l-444 800h193l338 -615l338 615h193l-446 -800v-834z" />
    <glyph glyph-name="Z" unicode="Z" horiz-adv-x="1300" 
d="M844 1471h-736v163h1008l-743 -1471h826v-163h-1099z" />
    <glyph glyph-name="bracketleft" unicode="[" horiz-adv-x="662" 
d="M612 1504h-385v-1851h385v-165h-562v2183h562v-167z" />
    <glyph glyph-name="backslash" unicode="\" horiz-adv-x="655" 
d="M655 24l-164 -44l-491 1635l161 49z" />
    <glyph glyph-name="bracketright" unicode="]" horiz-adv-x="662" 
d="M50 1671h562v-2183h-562v165h385v1851h-385v167z" />
    <glyph glyph-name="asciicircum" unicode="^" horiz-adv-x="1301" 
d="M717 1517l399 -732h-194l-273 502l-271 -502h-193l399 732h133z" />
    <glyph glyph-name="underscore" unicode="_" horiz-adv-x="1241" 
d="M-67 -95h1372v-163h-1372v163z" />
    <glyph glyph-name="grave" unicode="`" horiz-adv-x="515" 
d="M308 1393l-258 317h285l130 -315z" />
    <glyph glyph-name="a" unicode="a" horiz-adv-x="1099" 
d="M275 459q17 -281 283 -281h257v310q-44 263 -287 263q-254 -7 -254 -258q0 -17 1 -34zM989 0h-420q-455 0 -469 449v27q0 431 426 431q236 0 289 -118q-34 321 -284 328q-76 -1 -149 -50l-137 107q129 97 287 98q397 -9 457 -404v-868z" />
    <glyph glyph-name="b" unicode="b" horiz-adv-x="1182" 
d="M895 545v82q0 476 -262 476h-18q-243 0 -288 -264l-3 -679h370q191 0 201 385zM150 1635h177v-511q54 136 290 136q440 0 440 -606q0 -56 -3 -116q-25 -539 -307 -539q-12 0 -22 1h-575v1635z" />
    <glyph glyph-name="c" unicode="c" horiz-adv-x="1207" 
d="M550 1093q-139 0 -214 -184q-51 -124 -51 -290q0 -96 17 -206q42 -276 297 -276h15q304 35 314 431l179 -1q-15 -562 -505 -589q-17 -1 -34 -1q-347 0 -431 339q-37 150 -37 290q0 179 61 344q112 304 417 304h24q240 0 373 -210l-121 -112q-103 159 -256 163
q-23 0 -48 -2z" />
    <glyph glyph-name="d" unicode="d" horiz-adv-x="1182" 
d="M287 545q9 -385 201 -385h370l-3 679q-46 264 -288 264h-18q-263 0 -263 -476q0 -39 1 -82zM1032 0h-576q-9 -1 -21 -1q-283 0 -307 539q-3 60 -3 116q0 606 440 606q236 0 290 -126v501h177v-1635z" />
    <glyph glyph-name="e" unicode="e" horiz-adv-x="1161" 
d="M602 1105h-15q-199 0 -280 -200h537q-31 192 -242 200zM285 753q-3 -48 -3 -113q0 -487 289 -487q10 0 21 1q310 18 337 414h157q-42 -584 -536 -590q-349 18 -415 415q-27 157 -27 283q0 182 55 303q134 297 431 297q24 0 50 -2q337 -27 386 -521h-745z" />
    <glyph glyph-name="f" unicode="f" horiz-adv-x="801" 
d="M100 1079v165h103v125q0 434 316 458h22q282 0 334 -332l-164 -59q-34 230 -176 230q-155 -9 -155 -276v-146h295v-165h-295v-1086h-177v1086h-103z" />
    <glyph glyph-name="g" unicode="g" horiz-adv-x="1206" 
d="M287 707q-1 -43 -1 -82q0 -476 263 -476h18q242 0 287 264v660q-135 49 -248 49q-300 0 -319 -415zM1028 33q-60 -395 -457 -405q-159 1 -287 98l137 108q73 -50 148 -51q251 7 285 329q-53 -118 -289 -118q-440 0 -440 606q0 56 3 116q36 577 499 577q118 0 259 -45h145
z" />
    <glyph glyph-name="h" unicode="h" horiz-adv-x="1238" 
d="M355 0h-175v1635h177v-501q54 126 290 126q401 0 401 -504v-756h-174v737q0 366 -211 366h-18q-243 0 -290 -264v-839z" />
    <glyph glyph-name="i" unicode="i" horiz-adv-x="664" 
d="M421 -3h-177v1249h177v-1249zM427.5 1713.5q36.5 -38.5 36.5 -89.5t-36.5 -89t-93.5 -38t-95.5 37.5t-38.5 89.5q0 51 38 89.5t96 38.5q57 0 93.5 -38.5z" />
    <glyph glyph-name="j" unicode="j" horiz-adv-x="676" 
d="M279 1246h176v-1223q-9 -361 -404 -454l-51 175q262 43 279 280v1222zM453.5 1712.5q38.5 -39.5 38.5 -90.5q0 -52 -38.5 -89.5t-95.5 -37.5q-56 0 -93 38t-37 89t37 90.5t93 39.5q57 0 95.5 -39.5z" />
    <glyph glyph-name="k" unicode="k" horiz-adv-x="1165" 
d="M327 629v-629h-177v1634h177v-719l370 501h207l-298 -431l485 -985h-208l-409 814z" />
    <glyph glyph-name="l" unicode="l" horiz-adv-x="577" 
d="M377 0h-177v1634h177v-1634z" />
    <glyph glyph-name="m" unicode="m" horiz-adv-x="1721" 
d="M958 970v-970h-179v878q0 206 -212 215h-15q-207 0 -252 -254v-839h-175v1247h177v-113q54 126 292 126q201 -25 257 -125q104 125 303 125h4q412 0 412 -536q0 -35 -2 -71v-653h-174v628q1 21 1 42q0 377 -172 419q-39 9 -73 9q-126 0 -192 -128z" />
    <glyph glyph-name="n" unicode="n" 
d="M300 0h-175v1247h177v-113q54 126 290 126h5q406 0 406 -555q0 -25 -1 -52v-653h-173v628q1 30 1 58q0 392 -224 417h-16q-243 0 -290 -264v-839z" />
    <glyph glyph-name="o" unicode="o" 
d="M873 639q-22 476 -310 476q-287 0 -313 -476q11 -497 313 -497q301 0 310 497zM563 1292q449 0 489 -647q-16 -669 -489 -669q-476 0 -488 669q38 647 488 647z" />
    <glyph glyph-name="p" unicode="p" horiz-adv-x="1157" 
d="M576 1122q-113 0 -249 -49v-660q45 -264 288 -264h18q262 0 262 476v82q-19 415 -319 415zM150 1248h146q140 45 259 45q463 0 499 -577q3 -60 3 -116q0 -606 -440 -606q-236 0 -290 66v-451h-177v1639z" />
    <glyph glyph-name="q" unicode="q" horiz-adv-x="1182" 
d="M287 707q-1 -43 -1 -82q0 -476 263 -476h18q242 0 287 264v660q-135 49 -248 49q-300 0 -319 -415zM1032 -391h-177v451q-54 -66 -290 -66q-440 0 -440 606q0 56 3 116q36 577 499 577q118 0 259 -45h146v-1639z" />
    <glyph glyph-name="r" unicode="r" horiz-adv-x="686" 
d="M301 0h-176v1246h176v-105q42 91 152 107q37 5 72 5q71 0 136 -21l-71 -144q-73 21 -111 21q-47 0 -85 -21q-60 -27 -93 -167v-921z" />
    <glyph glyph-name="s" unicode="s" horiz-adv-x="1090" 
d="M675 966q-34 140 -163 161l-7 2q-12 2 -25 2q-37 0 -74 -17q-47 -27 -58 -87v-17q0 -77 89 -102q121 -34 294.5 -86t234.5 -173q34 -63 34 -156q0 -52 -10 -113l-8 -47q-104 -361 -433 -361q-44 0 -94 7q-365 64 -365 486q0 29 4 83h187q-5 -61 -5 -91q0 -288 205 -325
q28 -3 56 -3q200 0 269 232q6 23 10 49q7 38 7 70q0 49 -15 83q-28 64 -98 92.5t-254 75.5t-246 125q-50 62 -50 147q0 20 3 42q20 118 122 190q79 57 186 57q31 0 65 -5l13 -2q264 -44 283 -319h-157z" />
    <glyph glyph-name="t" unicode="t" horiz-adv-x="663" 
d="M418 1248h195v-169h-195v-1079h-175v1079h-193v169h193v273h175v-273z" />
    <glyph glyph-name="u" unicode="u" horiz-adv-x="1177" 
d="M853 1247h174v-1247h-176v113q-54 -126 -291 -126q-410 0 -410 606v654h174v-627q0 -476 221 -476h17q243 0 291 264v839z" />
    <glyph glyph-name="v" unicode="v" horiz-adv-x="1154" 
d="M1054 1255q-79 -859 -476 -1316q-438 585 -478 1317l179 -5q39 -644 301 -1018q260 374 288 1022h186z" />
    <glyph glyph-name="w" unicode="w" horiz-adv-x="1618" 
d="M718 491q-105 273 -147 764h175q21 -326 97 -577q28 -90 61 -173q73 -165 144 -272q260 373 282 1022h188q-74 -859 -470 -1314q-163 190 -235 337q-71 -147 -236 -337q-396 455 -477 1314h176q39 -648 301 -1022q75 109 141 258z" />
    <glyph glyph-name="x" unicode="x" horiz-adv-x="1115" 
d="M461 624l-411 624h192l316 -479l315 479h192l-411 -624l411 -624h-193l-314 478l-315 -478h-193z" />
    <glyph glyph-name="y" unicode="y" 
d="M826 113q-54 -126 -291 -126q-410 0 -410 606v654h174v-627q0 -476 221 -476h17q243 0 291 264v839h174v-1224q-70 -385 -461 -395q-159 1 -287 98l137 108q73 -50 148 -51q277 7 287 330z" />
    <glyph glyph-name="z" unicode="z" horiz-adv-x="1136" 
d="M376 163h660v-163h-933l549 1085h-552v163h824z" />
    <glyph glyph-name="braceleft" unicode="{" horiz-adv-x="773" 
d="M723 -479q-24 -9 -36 -14q-377 75 -386 457v284q-21 223 -251 283v147q230 57 251 283v285q9 380 386 455q12 -5 36 -14v-144q-227 -67 -243 -298v-268q-6 -277 -167 -372q161 -95 167 -372v-268q16 -235 243 -298v-146z" />
    <glyph glyph-name="bar" unicode="|" horiz-adv-x="271" 
d="M221 1654v-2088h-171v2088h171z" />
    <glyph glyph-name="braceright" unicode="}" horiz-adv-x="773" 
d="M50 -333q227 63 243 298v268q6 277 167 372q-161 95 -167 372v268q-16 231 -243 298v144q23 9 36 14q377 -75 385 -455v-285q22 -226 252 -283v-147q-230 -60 -252 -283v-284q-8 -382 -385 -457q-13 5 -36 14v146z" />
    <glyph glyph-name="asciitilde" unicode="~" horiz-adv-x="1277" 
d="M148 856q119 172 279 172q111 0 245 -80q132 -81 216 -81q72 0 125 116l116 -132q-117 -159 -268 -159q-112 0 -245 82q-132 79 -217 79q-78 0 -130 -134z" />
    <glyph glyph-name="exclamdown" unicode="&#xa1;" horiz-adv-x="435" 
d="M98 970q-48 49 -48 115q0 67 48 115t120 48q71 0 119 -48t48 -115q0 -66 -48 -115t-119 -49q-72 0 -120 49zM129 819h177v-1266h-177v1266z" />
    <glyph glyph-name="cent" unicode="&#xa2;" horiz-adv-x="1266" 
d="M370 64q-145 69 -211 269q-35 122 -35 249q0 196 88 391q164 309 525 309l62 204l161 -49l-62 -204q82 -39 148 -161l-123 -114q-51 100 -73 113l-271 -903q16 -3 68 -3q304 35 314 431l179 -1q-15 -561 -506 -589q-70 0 -103 7l-63 -211l-164 44zM680 1121
q-144 0 -259 -142q-112 -140 -112 -376q0 -58 5 -121q26 -194 107 -246z" />
    <glyph glyph-name="sterling" unicode="&#xa3;" horiz-adv-x="1085" 
d="M281 530h-174v163h110q-15 34 -56 111q-100 188 -100 344q0 177 131 313q175 181 372 181q80 0 161 -29q283 -103 299 -452h-180q-9 246 -189 298q-44 13 -85 13q-130 0 -241 -128q-73 -84 -73 -197q0 -117 77 -267q57 -112 87 -187h494v-163h-437q18 -58 20 -125v-13
q0 -138 -58 -228h522v-163h-762l-41 93q81 65 133 178q18 39 18 95q0 76 -28 163z" />
    <glyph glyph-name="currency" unicode="&#xa4;" horiz-adv-x="817" 
d="M408 1153q-74 0 -131.5 -58.5t-57.5 -137.5q0 -84 57 -138t132 -54q78 0 134.5 54t56.5 138q0 79 -56.5 137.5t-134.5 58.5zM710 763l86 -87l-117 -118l-92 92q-67 -44 -179 -44q-115 0 -178 42l-90 -90l-118 118l86 86q-55 74 -55 195q0 108 48 180l-79 79l118 118
l77 -77q68 52 191 52q121 0 192 -54l79 79l117 -118l-79 -80q49 -71 49 -179q0 -121 -56 -194z" />
    <glyph glyph-name="yen" unicode="&#xa5;" horiz-adv-x="1262" 
d="M716 440v-440h-171v440h-396v163h396v117h-396v163h363l-412 751h193l338 -615l338 615h193l-414 -751h383v-163h-415v-117h415v-163h-415z" />
    <glyph glyph-name="brokenbar" unicode="&#xa6;" horiz-adv-x="271" 
d="M221 1635v-926h-171v926h171zM221 545v-927h-171v927h171z" />
    <glyph glyph-name="section" unicode="&#xa7;" horiz-adv-x="1305" 
d="M934 224q106 69 158 265q6 32 10 65q6 45 6 83q0 78 -24 130q-43 90 -144 127t-334 89q-162 37 -234 80q-106 -69 -158 -266q-7 -31 -10 -65q-6 -44 -6 -83q0 -77 23 -129q43 -91 144 -128t334 -89q163 -37 235 -79zM248 1182q-31 50 -31 140q0 21 2 43q20 147 143 241
q101 76 244 76q29 0 62 -3l18 -3q329 -43 358 -374h-152q-52 182 -240 208l-10 1q-18 2 -34 2q-60 0 -117 -29q-72 -43 -86 -131q-1 -8 -1 -16q0 -123 138 -156q168 -41 390.5 -101.5t302.5 -204.5q48 -86 48 -221q0 -57 -9 -124l-9 -62q-65 -259 -208 -364q32 -50 32 -140
q0 -21 -3 -43q-19 -147 -142 -241q-102 -76 -245 -76q-28 0 -61 3l-18 3q-329 43 -359 374h153q51 -182 240 -208l10 -1q18 -2 34 -2q60 0 116 29q72 44 86 131q1 9 1 16q0 123 -137 156q-168 41 -391 101.5t-302 205.5q-49 85 -49 220q0 57 9 124l9 62q66 259 208 364z" />
    <glyph glyph-name="dieresis" unicode="&#xa8;" horiz-adv-x="616" 
d="M260.5 1581q36.5 -35 36.5 -83q0 -45 -36.5 -79t-89.5 -34q-49 0 -85 34t-36 79q0 47 36 82.5t85 35.5q53 0 89.5 -35zM530 1580.5q36 -35.5 36 -82.5q0 -45 -36 -79t-87 -34q-53 0 -88.5 34t-35.5 79q0 47 35.5 82.5t88.5 35.5q51 0 87 -35.5z" />
    <glyph glyph-name="copyright" unicode="&#xa9;" horiz-adv-x="1842" 
d="M219 822q12 -682 699 -682q683 0 703 682q-20 682 -703 682q-687 0 -699 -682zM50 821q38 823 873 823q834 0 868 -823q-34 -821 -868 -821q-835 0 -873 821zM878 1205q-109 0 -170 -147q-41 -99 -41 -233q0 -78 14 -167q33 -220 237 -220h10q243 28 250 349h157
q-12 -464 -415 -487q-14 -1 -28 -1q-287 0 -355 278q-31 124 -31 238q0 145 50 281q91 250 343 250h20q198 0 310 -177l-106 -98q-86 134 -208 136q-17 0 -37 -2z" />
    <glyph glyph-name="ordfeminine" unicode="&#xaa;" horiz-adv-x="926" 
d="M322 1138q10 -146 161 -146h144v158q-25 135 -163 135q-143 -4 -143 -130q0 -8 1 -17zM793 834h-303q-324 0 -334 295v17q39 257 262 257q90 0 209 -41q-19 139 -161 143q-43 -1 -100 -36l-134 96q122 83 234 84q285 -5 327 -266v-549zM141 762h716v-163h-716v163z" />
    <glyph glyph-name="guillemotleft" unicode="&#xab;" horiz-adv-x="996" 
d="M946 0h-193l-411 624l412 624h192l-411 -624zM654 0h-194l-410 624l411 624h193l-412 -624z" />
    <glyph glyph-name="logicalnot" unicode="&#xac;" horiz-adv-x="1263" 
d="M979 587h-871v163h1046v-598h-175v435z" />
    <glyph glyph-name="registered" unicode="&#xae;" horiz-adv-x="1841" 
d="M864 802q313 0 313 233q0 238 -325 238h-106v-471h118zM1309 218q299 133 312 604q-20 682 -703 682q-687 0 -699 -682q9 -521 369 -632v1226h269q470 0 470 -381q0 -296 -258 -354zM743 152q68 -12 175 -12q158 0 251 26l-256 490q-19 -1 -62 -1h-108v-503zM50 821
q38 823 873 823q834 0 868 -823q-34 -821 -868 -821q-835 0 -873 821z" />
    <glyph glyph-name="macron" unicode="&#xaf;" horiz-adv-x="753" 
d="M50 1630h623q30 0 30 -27v-110q0 -26 -30 -26h-623v163z" />
    <glyph glyph-name="degree" unicode="&#xb0;" horiz-adv-x="572" 
d="M453 1660q69 -69 69 -162q0 -97 -69 -164t-168 -67q-101 0 -168 67t-67 164q0 93 67 162t168 69q99 0 168 -69zM285 1569q-24 0 -44 -21t-20 -50q0 -31 19.5 -49.5t44.5 -18.5q27 0 46.5 18.5t19.5 49.5q0 29 -20 50t-46 21z" />
    <glyph glyph-name="plusminus" unicode="&#xb1;" horiz-adv-x="1263" 
d="M717 587v-435h-174v435h-435v163h435v440l174 -3v-437h437v-163h-437z" />
    <glyph glyph-name="uni00B2" unicode="&#xb2;" horiz-adv-x="944" 
d="M798 760v-159h-653q10 359 239 521q172 123 172 244q-13 127 -108 127q-111 -5 -116 -238h-177q-3 58 -3 72q0 310 300 324q261 -5 291 -284q-4 -187 -217 -346q-177 -132 -188 -261h460z" />
    <glyph glyph-name="uni00B3" unicode="&#xb3;" horiz-adv-x="949" 
d="M475 1244l-82 -104l-139 107l151 227h-193l-1 160h397l77 -75l-110 -158q184 0 253 -196q23 -69 23 -141q0 -119 -64 -248q-108 -219 -325 -220q-2 -1 -18 -1q-235 0 -346 310l175 40q81 -183 172 -183h11q103 8 163 136q43 90 43 167q0 47 -15 89q-33 90 -172 90z" />
    <glyph glyph-name="acute" unicode="&#xb4;" horiz-adv-x="515" 
d="M50 1395l130 315h285l-258 -317z" />
    <glyph glyph-name="mu" unicode="&#xb5;" horiz-adv-x="1177" 
d="M327 518q23 -374 218 -374h17q243 0 291 264v839h174v-1247h-176v113q-54 -126 -291 -126q-183 0 -233 121v-499h-177v1638h174v-444l3 2v-287z" />
    <glyph glyph-name="paragraph" unicode="&#xb6;" horiz-adv-x="1147" 
d="M819 0h-171v710q-498 20 -498 461q0 463 572 463h325v-1634h-177v1469h-51v-1469z" />
    <glyph glyph-name="periodcentered" unicode="&#xb7;" horiz-adv-x="1282" 
d="M760 1107q48 -49 48 -115t-48 -114.5t-120 -48.5q-71 0 -119 48.5t-48 114.5t48 115t119 49q72 0 120 -49z" />
    <glyph glyph-name="periodcentered" unicode="&#x2219;" horiz-adv-x="1282" 
d="M760 1107q48 -49 48 -115t-48 -114.5t-120 -48.5q-71 0 -119 48.5t-48 114.5t48 115t119 49q72 0 120 -49z" />
    <glyph glyph-name="cedilla" unicode="&#xb8;" horiz-adv-x="487" 
d="M126 -229q58 -24 82 -24h11q21 2 36 31q7 13 7 26q0 9 -4 19q-9 25 -34 37q-32 14 -75 29l80 197l93 -9l-4 -92q82 -29 110 -115q9 -32 9 -60q0 -52 -30 -100q-57 -92 -161 -99q-13 -2 -26 -2q-76 0 -170 55z" />
    <glyph glyph-name="uni00B9" unicode="&#xb9;" horiz-adv-x="980" 
d="M472 1330l-150 -1l337 403v-1139h-187v737z" />
    <glyph glyph-name="ordmasculine" unicode="&#xba;" horiz-adv-x="866" 
d="M627 1231q-12 261 -178 261t-182 -261q7 -272 182 -272q173 0 178 272zM449 1649q320 0 348 -413q-11 -428 -348 -428q-340 0 -348 428q26 413 348 413zM91 762h716v-163h-716v163z" />
    <glyph glyph-name="guillemotright" unicode="&#xbb;" horiz-adv-x="996" 
d="M461 624l-411 624h192l412 -624l-411 -624h-193zM754 624l-412 624h193l411 -624l-410 -624h-194z" />
    <glyph glyph-name="onequarter" unicode="&#xbc;" horiz-adv-x="1304" 
d="M956 1039h161v-613h156v-163h-156v-263h-186v263h-433zM931 426v238l-143 -238h143zM180 1330l-150 -1l337 403v-1139h-187v737zM1076 1568l136 -96l-983 -1398l-140 92z" />
    <glyph glyph-name="onehalf" unicode="&#xbd;" horiz-adv-x="1553" 
d="M1206 1039h161v-613h156v-163h-156v-263h-185v263h-434zM1182 426v238l-144 -238h144zM1326 1568l136 -96l-982 -1398l-141 92zM583 760v-159h-553q10 359 239 521q172 123 172 244q-13 127 -108 127q-111 -5 -116 -238h-177q-3 58 -3 72q0 310 300 324q261 -5 291 -284
q-4 -187 -217 -346q-177 -132 -188 -261h360z" />
    <glyph glyph-name="threequarters" unicode="&#xbe;" horiz-adv-x="1508" 
d="M1161 1039h162v-613h155v-163h-155v-263h-186v263h-434zM1137 426v238l-143 -238h143zM1282 1568l135 -96l-982 -1398l-141 92zM407 1244l-82 -104l-139 107l151 227h-193l-1 160h397l77 -75l-110 -158q184 0 253 -196q23 -69 23 -141q0 -119 -64 -248
q-108 -219 -325 -220q-2 -1 -18 -1q-235 0 -346 310l175 40q81 -183 172 -183h11q103 8 163 136q43 90 43 167q0 47 -15 89q-33 90 -172 90z" />
    <glyph glyph-name="questiondown" unicode="&#xbf;" horiz-adv-x="1063" 
d="M498 978q-47 48 -47 111q0 65 47 112t116 47t116 -47t47 -112q0 -63 -46.5 -111t-116.5 -48q-69 0 -116 48zM708 824q6 -29 6 -37v-10q0 -280 -237 -445q-248 -174 -248 -316q0 -54 11 -115q63 -188 293 -188h31q250 13 282 338h155q8 -16 12 -25q-18 -452 -426 -478h-51
q-356 0 -469 307q-17 84 -17 157q0 217 273 417q212 154 212 352v43h173z" />
    <glyph glyph-name="Agrave" unicode="&#xc0;" horiz-adv-x="1481" 
d="M506 582l-177 -582h-179l500 1634h182l499 -1634h-177l-179 582h-469zM556 745h370l-185 605zM731 1779l-258 316h285l129 -315z" />
    <glyph glyph-name="Aacute" unicode="&#xc1;" horiz-adv-x="1481" 
d="M506 582l-177 -582h-179l500 1634h182l499 -1634h-177l-179 582h-469zM556 745h370l-185 605zM594 1780l130 315h285l-258 -316z" />
    <glyph glyph-name="Acircumflex" unicode="&#xc2;" horiz-adv-x="1481" 
d="M506 582l-177 -582h-179l500 1634h182l499 -1634h-177l-179 582h-469zM556 745h370l-185 605zM980 1725l-241 178l-237 -172l-102 107v22l342 238l335 -236q4 -15 4 -31z" />
    <glyph glyph-name="Atilde" unicode="&#xc3;" horiz-adv-x="1481" 
d="M506 582l-177 -582h-179l500 1634h182l499 -1634h-177l-179 582h-469zM556 745h370l-185 605zM421 1879q103 124 199 124h11q55 -4 131.5 -38.5t109.5 -37.5h2q25 0 98 72l89 -126q-95 -98 -180 -98h-12q-57 4 -134.5 40t-106.5 38h-6q-47 0 -95 -71h-38z" />
    <glyph glyph-name="Adieresis" unicode="&#xc4;" horiz-adv-x="1481" 
d="M506 582l-177 -582h-179l500 1634h182l499 -1634h-177l-179 582h-469zM556 745h370l-185 605zM693.5 1966q36.5 -35 36.5 -83q0 -45 -36.5 -79t-89.5 -34q-49 0 -85 34t-36 79q0 48 36 83t85 35q53 0 89.5 -35zM963 1966q36 -35 36 -83q0 -45 -36 -79t-87 -34
q-53 0 -88.5 34.5t-35.5 78.5q0 48 35.5 83t88.5 35q51 0 87 -35z" />
    <glyph glyph-name="Aring" unicode="&#xc5;" horiz-adv-x="1481" 
d="M506 582l-177 -582h-179l500 1634h182l499 -1634h-177l-179 582h-469zM556 745h370l-185 605zM908 2046q69 -69 69 -163q0 -97 -69 -164t-168 -67q-101 0 -168 67t-67 164q0 93 66.5 162.5t168.5 69.5q99 0 168 -69zM740 1955q-24 0 -44 -21.5t-20 -50.5q0 -30 19.5 -49
t44.5 -19q27 0 46.5 19t19.5 49q0 29 -20 50.5t-46 21.5z" />
    <glyph glyph-name="AE" unicode="&#xc6;" horiz-adv-x="1785" 
d="M738 1335l-182 -590h182v590zM1562 1634v-167h-645v-541h452v-167h-452v-592h717v-167h-896v582h-232l-177 -582h-179l500 1634h912z" />
    <glyph glyph-name="Ccedilla" unicode="&#xc7;" horiz-adv-x="1353" 
d="M627 -23q-542 13 -542 842v6q2 834 627 845q379 0 461 -412l-155 -1q-65 242 -308 242q-444 -15 -444 -666v-10q3 -663 401 -680q427 28 447 539h183q-27 -634 -537 -697q81 -29 110 -115q9 -32 9 -60q0 -52 -30 -100q-58 -92 -162 -99q-12 -2 -25 -2q-76 0 -170 55
l76 107q58 -24 81 -24h11q22 2 37 31q7 13 7 26q0 9 -5 19q-8 25 -33 37q-33 14 -75 29z" />
    <glyph glyph-name="Egrave" unicode="&#xc8;" horiz-adv-x="1145" 
d="M150 1634h824v-167h-645v-541h452v-167h-452v-592h716v-167h-895v1634zM587 1779l-258 316h285l130 -315z" />
    <glyph glyph-name="Eacute" unicode="&#xc9;" horiz-adv-x="1145" 
d="M150 1634h824v-167h-645v-541h452v-167h-452v-592h716v-167h-895v1634zM451 1780l130 315h285l-258 -316z" />
    <glyph glyph-name="Ecircumflex" unicode="&#xca;" horiz-adv-x="1145" 
d="M150 1634h824v-167h-645v-541h452v-167h-452v-592h716v-167h-895v1634zM837 1725l-242 178l-236 -172l-102 107v22l342 238l335 -236q4 -15 4 -31z" />
    <glyph glyph-name="Edieresis" unicode="&#xcb;" horiz-adv-x="1145" 
d="M150 1634h824v-167h-645v-541h452v-167h-452v-592h716v-167h-895v1634zM550.5 1966q36.5 -35 36.5 -83q0 -45 -36.5 -79t-89.5 -34q-49 0 -85 34t-36 79q0 48 36 83t85 35q53 0 89.5 -35zM820 1966q36 -35 36 -83q0 -45 -36 -79t-87 -34q-53 0 -88.5 34.5t-35.5 78.5
q0 48 35.5 83t88.5 35q51 0 87 -35z" />
    <glyph glyph-name="Igrave" unicode="&#xcc;" horiz-adv-x="605" 
d="M394 1634v-1634h-171v1634h171zM299 1779l-258 316h285l130 -315z" />
    <glyph glyph-name="Iacute" unicode="&#xcd;" horiz-adv-x="605" 
d="M382 1634v-1634h-171v1634h171zM149 1780l130 315h285l-258 -316z" />
    <glyph glyph-name="Icircumflex" unicode="&#xce;" horiz-adv-x="558" 
d="M365 1634v-1634h-171v1634h171zM519 1725l-242 178l-236 -172l-102 107v22l341 238l336 -236q4 -15 4 -31z" />
    <glyph glyph-name="Idieresis" unicode="&#xcf;" horiz-adv-x="562" 
d="M366 1634v-1634h-171v1634h171zM233.5 1966q36.5 -35 36.5 -83q0 -45 -36.5 -79t-89.5 -34q-49 0 -85 34t-36 79q0 48 36 83t85 35q53 0 89.5 -35zM503 1966q36 -35 36 -83q0 -45 -36 -79t-87 -34q-53 0 -88.5 34.5t-35.5 78.5q0 48 35.5 83t88.5 35q51 0 87 -35z" />
    <glyph glyph-name="Eth" unicode="&#xd0;" horiz-adv-x="1267" 
d="M146 899v735h358q653 -30 663 -823q-10 -779 -663 -811h-358v736h-136v163h136zM323 899h474v-163h-474v-569h125q525 0 535 644q-10 658 -535 658h-125v-570z" />
    <glyph glyph-name="Ntilde" unicode="&#xd1;" horiz-adv-x="1364" 
d="M284 1634l784 -1263v1263h171v-1634h-138l-805 1281v-1281h-171v1634h159zM363 1879q103 124 199 124h11q55 -4 131.5 -38.5t108.5 -37.5h3q25 0 98 72l89 -126q-95 -98 -180 -98h-12q-57 4 -134.5 40t-106.5 38h-6q-47 0 -96 -71h-37z" />
    <glyph glyph-name="Ograve" unicode="&#xd2;" horiz-adv-x="1442" 
d="M273 823q8 -677 449 -677q437 0 451 677q-14 676 -451 676q-441 0 -449 -676zM85 823q27 847 639 847q609 0 633 -847q-24 -845 -633 -845q-612 0 -639 845zM711 1779l-257 316h284l130 -315z" />
    <glyph glyph-name="Oacute" unicode="&#xd3;" horiz-adv-x="1442" 
d="M273 823q8 -677 449 -677q437 0 451 677q-14 676 -451 676q-441 0 -449 -676zM85 823q27 847 639 847q609 0 633 -847q-24 -845 -633 -845q-612 0 -639 845zM574 1780l130 315h285l-258 -316z" />
    <glyph glyph-name="Ocircumflex" unicode="&#xd4;" horiz-adv-x="1442" 
d="M273 823q8 -677 449 -677q437 0 451 677q-14 676 -451 676q-441 0 -449 -676zM85 823q27 847 639 847q609 0 633 -847q-24 -845 -633 -845q-612 0 -639 845zM961 1725l-242 178l-236 -172l-102 107v22l342 238l335 -236q4 -15 4 -31z" />
    <glyph glyph-name="Otilde" unicode="&#xd5;" horiz-adv-x="1442" 
d="M273 823q8 -677 449 -677q437 0 451 677q-14 676 -451 676q-441 0 -449 -676zM85 823q27 847 639 847q609 0 633 -847q-24 -845 -633 -845q-612 0 -639 845zM402 1879q103 124 199 124h11q55 -4 131.5 -38.5t108.5 -37.5h3q25 0 98 72l89 -126q-95 -98 -180 -98h-12
q-57 4 -134.5 40t-106.5 38h-6q-47 0 -96 -71h-37z" />
    <glyph glyph-name="Odieresis" unicode="&#xd6;" horiz-adv-x="1442" 
d="M273 823q8 -677 449 -677q437 0 451 677q-14 676 -451 676q-441 0 -449 -676zM85 823q27 847 639 847q609 0 633 -847q-24 -845 -633 -845q-612 0 -639 845zM673.5 1966q36.5 -35 36.5 -83q0 -45 -36.5 -79t-89.5 -34q-49 0 -85 34t-36 79q0 48 36 83t85 35
q53 0 89.5 -35zM943 1966q36 -35 36 -83q0 -45 -36 -79t-87 -34q-53 0 -88.5 34.5t-35.5 78.5q0 48 35.5 83t88.5 35q51 0 87 -35z" />
    <glyph glyph-name="multiply" unicode="&#xd7;" horiz-adv-x="1287" 
d="M644 550l-308 -309l-118 119l307 307l-310 311l123 119l308 -309l309 310l117 -118l-308 -310l307 -308l-120 -121z" />
    <glyph glyph-name="Oslash" unicode="&#xd8;" horiz-adv-x="1442" 
d="M393 64q-289 168 -308 759q27 847 639 847q96 0 149 -14l38 123l178 -54l-41 -139q292 -166 309 -763q-24 -845 -633 -845q-100 0 -155 14l-49 -162l-183 50zM993 1406l-375 -1250q33 -10 104 -10q437 0 451 677q-9 462 -180 583zM447 241l376 1249q-32 9 -101 9
q-441 0 -449 -676q5 -460 174 -582z" />
    <glyph glyph-name="Ugrave" unicode="&#xd9;" horiz-adv-x="1393" 
d="M698 169q370 3 370 390v1075h175v-1101q0 -529 -545 -533q-548 4 -548 533v1101h179v-1075q0 -387 369 -390zM687 1779l-258 316h285l130 -315z" />
    <glyph glyph-name="Uacute" unicode="&#xda;" horiz-adv-x="1393" 
d="M698 169q370 3 370 390v1075h175v-1101q0 -529 -545 -533q-548 4 -548 533v1101h179v-1075q0 -387 369 -390zM549 1780l130 315h285l-258 -316z" />
    <glyph glyph-name="Ucircumflex" unicode="&#xdb;" horiz-adv-x="1393" 
d="M698 169q370 3 370 390v1075h175v-1101q0 -529 -545 -533q-548 4 -548 533v1101h179v-1075q0 -387 369 -390zM936 1725l-241 178l-237 -172l-101 107v22l341 238l335 -236q4 -15 4 -31z" />
    <glyph glyph-name="Udieresis" unicode="&#xdc;" horiz-adv-x="1393" 
d="M698 169q370 3 370 390v1075h175v-1101q0 -529 -545 -533q-548 4 -548 533v1101h179v-1075q0 -387 369 -390zM649 1966q36 -35 36 -83q0 -45 -36.5 -79t-89.5 -34q-48 0 -84.5 34t-36.5 79q0 48 36 83t85 35q54 0 90 -35zM918.5 1966q35.5 -35 35.5 -83q0 -45 -36 -79
t-87 -34q-53 0 -88.5 34.5t-35.5 78.5q0 48 35.5 83t88.5 35q52 0 87.5 -35z" />
    <glyph glyph-name="Yacute" unicode="&#xdd;" horiz-adv-x="1262" 
d="M716 0h-171v834l-445 800h193l338 -615l338 615h193l-446 -800v-834zM484 1780l130 315h285l-258 -316z" />
    <glyph glyph-name="Thorn" unicode="&#xde;" horiz-adv-x="1147" 
d="M327 1088v-592h138q406 0 406 294q0 298 -406 298h-138zM322 1253h153q572 0 572 -463t-580 -463h-140v-327h-177v1634h172v-381z" />
    <glyph glyph-name="germandbls" unicode="&#xdf;" horiz-adv-x="1041" 
d="M397 142h70q101 0 181 54q136 91 136 273q0 137 -96 236q-93 93 -234 117q-35 38 -35 69q0 32 34 68q90 23 149.5 83t59.5 207q0 124 -60 185t-141 61q-84 0 -144.5 -61t-60.5 -197v-1233h-166v1220q0 135 25 196q26 68 82 125q65 62 143 89q55 17 119 17q154 0 261 -107
t107 -295q0 -241 -137 -344q46 -20 118 -89q143 -146 143 -347q0 -252 -190 -391q-127 -92 -309 -92h-94z" />
    <glyph glyph-name="agrave" unicode="&#xe0;" horiz-adv-x="1059" 
d="M514 1393l-257 317h284l130 -315zM275 459q17 -281 283 -281h257v310q-44 263 -287 263q-254 -7 -254 -258q0 -17 1 -34zM989 0h-420q-455 0 -469 449v27q0 431 426 431q236 0 289 -118q-34 321 -284 328q-76 -1 -149 -50l-137 107q129 97 287 98q397 -9 457 -404v-868z
" />
    <glyph glyph-name="aacute" unicode="&#xe1;" horiz-adv-x="1059" 
d="M378 1395l130 315h285l-258 -317zM245 459q17 -281 283 -281h257v310q-44 263 -287 263q-254 -7 -254 -258q0 -17 1 -34zM959 0h-420q-455 0 -469 449v27q0 431 426 431q236 0 289 -118q-34 321 -284 328q-76 -1 -149 -50l-137 107q129 97 287 98q397 -9 457 -404v-868z
" />
    <glyph glyph-name="acircumflex" unicode="&#xe2;" horiz-adv-x="1059" 
d="M764 1340l-242 177l-236 -171l-102 107v22l342 238l335 -236q4 -16 4 -31zM245 459q17 -281 283 -281h257v310q-44 263 -287 263q-254 -7 -254 -258q0 -17 1 -34zM959 0h-420q-455 0 -469 449v27q0 431 426 431q236 0 289 -118q-34 321 -284 328q-76 -1 -149 -50
l-137 107q129 97 287 98q397 -9 457 -404v-868z" />
    <glyph glyph-name="atilde" unicode="&#xe3;" horiz-adv-x="1059" 
d="M205 1493q103 125 199 125h11q55 -5 131.5 -39.5t108.5 -36.5h3q25 0 98 72l89 -126q-95 -98 -180 -98h-12q-57 4 -134.5 39.5t-106.5 38.5h-6q-47 0 -96 -72h-37zM245 459q17 -281 283 -281h257v310q-44 263 -287 263q-254 -7 -254 -258q0 -17 1 -34zM959 0h-420
q-455 0 -469 449v27q0 431 426 431q236 0 289 -118q-34 321 -284 328q-76 -1 -149 -50l-137 107q129 97 287 98q397 -9 457 -404v-868z" />
    <glyph glyph-name="adieresis" unicode="&#xe4;" horiz-adv-x="1059" 
d="M477.5 1581q36.5 -35 36.5 -83q0 -45 -36.5 -79t-89.5 -34q-49 0 -85 34t-36 79q0 47 36 82.5t85 35.5q53 0 89.5 -35zM747 1580.5q36 -35.5 36 -82.5q0 -45 -36 -79t-87 -34q-53 0 -88.5 34t-35.5 79q0 47 35.5 82.5t88.5 35.5q51 0 87 -35.5zM245 459q17 -281 283 -281
h257v310q-44 263 -287 263q-254 -7 -254 -258q0 -17 1 -34zM959 0h-420q-455 0 -469 449v27q0 431 426 431q236 0 289 -118q-34 321 -284 328q-76 -1 -149 -50l-137 107q129 97 287 98q397 -9 457 -404v-868z" />
    <glyph glyph-name="aring" unicode="&#xe5;" horiz-adv-x="1059" 
d="M524 1569q-25 0 -45 -21t-20 -50q0 -31 20 -49.5t45 -18.5q26 0 46 18.5t20 49.5q0 29 -20 50t-46 21zM245 459q17 -281 283 -281h257v310q-44 263 -287 263q-254 -7 -254 -258q0 -17 1 -34zM475 1271q-70 13 -119 63q-67 67 -67 164q0 93 66.5 162t168.5 69
q99 0 168 -69t69 -162q0 -97 -69 -164q-58 -56 -136 -65q347 -34 403 -401v-868h-420q-455 0 -469 449v27q0 431 426 431q236 0 289 -118q-34 321 -284 328q-76 -1 -149 -50l-137 107q118 89 260 97z" />
    <glyph glyph-name="ae" unicode="&#xe6;" horiz-adv-x="1832" 
d="M1287 1110h-23q-17 2 -33 2q-168 0 -252 -207h537q-31 192 -229 205zM250 459q17 -281 283 -281h257v310q-44 263 -287 263q-254 -7 -254 -258q0 -17 1 -34zM891 1087q107 189 374 189q25 0 51 -2q337 -27 386 -521h-738v-288q45 -329 278 -329h25q306 36 334 432h156
q-41 -584 -535 -590q-203 10 -258 81v-59h-420q-455 0 -469 449v27q0 431 426 431q227 0 289 -128q-4 331 -284 338q-76 -1 -149 -50l-137 107q129 97 287 98q302 -7 384 -185z" />
    <glyph glyph-name="ccedilla" unicode="&#xe7;" horiz-adv-x="1207" 
d="M674 -16q80 -29 109 -114q8 -32 8 -60q0 -52 -29 -100q-58 -92 -162 -99q-13 -2 -25 -2q-76 0 -170 55l76 107q58 -24 81 -24h11q22 2 36 31q7 13 7 26q0 9 -4 19q-8 25 -33 37q-33 14 -75 29l35 88h29q-347 0 -431 339q-37 150 -37 290q0 179 61 344q112 304 417 304h24
q240 0 373 -210l-121 -112q-103 159 -256 163q-23 0 -48 -2q-139 0 -214 -184q-51 -124 -51 -290q0 -96 17 -206q42 -276 297 -276h15q304 35 314 429l179 1q-14 -535 -433 -583z" />
    <glyph glyph-name="egrave" unicode="&#xe8;" horiz-adv-x="1161" 
d="M586 1393l-258 317h285l130 -315zM602 1105h-15q-199 0 -280 -200h537q-31 192 -242 200zM285 753q-3 -48 -3 -113q0 -487 289 -487q10 0 21 1q310 18 337 414h157q-42 -584 -536 -590q-349 18 -415 415q-27 157 -27 283q0 182 55 303q134 297 431 297q24 0 50 -2
q337 -27 386 -521h-745z" />
    <glyph glyph-name="eacute" unicode="&#xe9;" horiz-adv-x="1161" 
d="M449 1395l130 315h284l-257 -317zM602 1105h-15q-199 0 -280 -200h537q-31 192 -242 200zM285 753q-3 -48 -3 -113q0 -487 289 -487q10 0 21 1q310 18 337 414h157q-42 -584 -536 -590q-349 18 -415 415q-27 157 -27 283q0 182 55 303q134 297 431 297q24 0 50 -2
q337 -27 386 -521h-745z" />
    <glyph glyph-name="ecircumflex" unicode="&#xea;" horiz-adv-x="1161" 
d="M836 1340l-242 177l-236 -171l-102 107v22l341 238l336 -236q4 -16 4 -31zM602 1105h-15q-199 0 -280 -200h537q-31 192 -242 200zM285 753q-3 -48 -3 -113q0 -487 289 -487q10 0 21 1q310 18 337 414h157q-42 -584 -536 -590q-349 18 -415 415q-27 157 -27 283
q0 182 55 303q134 297 431 297q24 0 50 -2q337 -27 386 -521h-745z" />
    <glyph glyph-name="edieresis" unicode="&#xeb;" horiz-adv-x="1161" 
d="M548.5 1581q36.5 -35 36.5 -83q0 -45 -36.5 -79t-89.5 -34q-49 0 -85 34t-36 79q0 47 36 82.5t85 35.5q53 0 89.5 -35zM818 1580.5q36 -35.5 36 -82.5q0 -45 -36 -79t-87 -34q-53 0 -88.5 34t-35.5 79q0 47 35.5 82.5t88.5 35.5q51 0 87 -35.5zM602 1105h-15
q-199 0 -280 -200h537q-31 192 -242 200zM285 753q-3 -48 -3 -113q0 -487 289 -487q10 0 21 1q310 18 337 414h157q-42 -584 -536 -590q-349 18 -415 415q-27 157 -27 283q0 182 55 303q134 297 431 297q24 0 50 -2q337 -27 386 -521h-745z" />
    <glyph glyph-name="igrave" unicode="&#xec;" horiz-adv-x="907" 
d="M548 -3h-177v1249h177v-1249zM450 1393l-258 317h285l130 -315z" />
    <glyph glyph-name="iacute" unicode="&#xed;" horiz-adv-x="907" 
d="M536 -3h-177v1249h177v-1249zM300 1395l130 315h285l-258 -317z" />
    <glyph glyph-name="icircumflex" unicode="&#xee;" horiz-adv-x="860" 
d="M519 -3h-177v1249h177v-1249zM670 1340l-242 177l-236 -171l-102 107v22l341 238l336 -236q4 -16 4 -31z" />
    <glyph glyph-name="idieresis" unicode="&#xef;" horiz-adv-x="864" 
d="M520 -3h-176v1249h176v-1249zM384.5 1581q36.5 -35 36.5 -83q0 -45 -36.5 -79t-89.5 -34q-49 0 -85 34t-36 79q0 47 36 82.5t85 35.5q53 0 89.5 -35zM654 1580.5q36 -35.5 36 -82.5q0 -45 -36 -79t-87 -34q-53 0 -88.5 34t-35.5 79q0 47 35.5 82.5t88.5 35.5
q51 0 87 -35.5z" />
    <glyph glyph-name="eth" unicode="&#xf0;" 
d="M873 639q-22 476 -310 476q-287 0 -313 -476q11 -497 313 -497q301 0 310 497zM608 1578l184 111l90 -134l-139 -83q201 -187 295 -668q9 -74 14 -159q-16 -669 -489 -669q-476 0 -488 669q38 647 488 647q108 0 116 -4q-24 46 -81 97l-174 -102l-89 134l121 70
q-39 36 -232 154l265 -2q56 -23 119 -61z" />
    <glyph glyph-name="ntilde" unicode="&#xf1;" 
d="M244 1493q103 125 199 125h11q55 -5 131.5 -39.5t109.5 -36.5h2q25 0 98 72l89 -126q-95 -98 -180 -98h-12q-57 4 -134.5 39.5t-106.5 38.5h-6q-47 0 -95 -72h-38zM300 0h-175v1247h177v-113q54 126 290 126h5q406 0 406 -555q0 -25 -1 -52v-653h-173v628q1 30 1 58
q0 392 -224 417h-16q-243 0 -290 -264v-839z" />
    <glyph glyph-name="ograve" unicode="&#xf2;" 
d="M873 639q-22 476 -310 476q-287 0 -313 -476q11 -497 313 -497q301 0 310 497zM563 1292q449 0 489 -647q-16 -669 -489 -669q-476 0 -488 669q38 647 488 647zM553 1393l-258 317h285l130 -315z" />
    <glyph glyph-name="oacute" unicode="&#xf3;" 
d="M873 639q-22 476 -310 476q-287 0 -313 -476q11 -497 313 -497q301 0 310 497zM563 1292q449 0 489 -647q-16 -669 -489 -669q-476 0 -488 669q38 647 488 647zM417 1395l130 315h284l-257 -317z" />
    <glyph glyph-name="ocircumflex" unicode="&#xf4;" 
d="M873 639q-22 476 -310 476q-287 0 -313 -476q11 -497 313 -497q301 0 310 497zM563 1292q449 0 489 -647q-16 -669 -489 -669q-476 0 -488 669q38 647 488 647zM803 1340l-242 177l-236 -171l-102 107v22l341 238l336 -236q4 -16 4 -31z" />
    <glyph glyph-name="otilde" unicode="&#xf5;" 
d="M873 639q-22 476 -310 476q-287 0 -313 -476q11 -497 313 -497q301 0 310 497zM563 1292q449 0 489 -647q-16 -669 -489 -669q-476 0 -488 669q38 647 488 647zM244 1493q103 125 199 125h11q55 -5 131 -39.5t109 -36.5h3q25 0 98 72l89 -126q-95 -98 -180 -98h-12
q-57 4 -134.5 39.5t-106.5 38.5h-6q-47 0 -96 -72h-37z" />
    <glyph glyph-name="odieresis" unicode="&#xf6;" 
d="M873 639q-22 476 -310 476q-287 0 -313 -476q11 -497 313 -497q301 0 310 497zM563 1292q449 0 489 -647q-16 -669 -489 -669q-476 0 -488 669q38 647 488 647zM516.5 1581q36.5 -35 36.5 -83q0 -45 -36.5 -79t-89.5 -34q-49 0 -85 34t-36 79q0 47 36 82.5t85 35.5
q53 0 89.5 -35zM786 1580.5q36 -35.5 36 -82.5q0 -45 -36 -79t-87 -34q-53 0 -88.5 34t-35.5 79q0 47 35.5 82.5t88.5 35.5q51 0 87 -35.5z" />
    <glyph glyph-name="divide" unicode="&#xf7;" horiz-adv-x="1263" 
d="M108 586v163h1046v-163h-1046zM750.5 392q47.5 -49 47.5 -115q0 -67 -48 -115t-119 -48t-119 48t-48 115q0 66 47.5 115t119.5 49t119.5 -49zM750 1172q48 -48 48 -113q0 -67 -48 -114t-119 -47t-119 47t-48 114q0 65 48 113t119 48t119 -48z" />
    <glyph glyph-name="oslash" unicode="&#xf8;" 
d="M291 56q-208 137 -216 590q38 647 488 647q68 0 99 -8l57 192l161 -49l-62 -208q207 -128 234 -574q-16 -669 -489 -669q-78 0 -115 10l-59 -194l-164 45zM764 1038l-267 -884q17 -6 66 -6q301 0 310 497q-15 317 -109 393zM347 244l265 875q-8 2 -49 2q-287 0 -313 -476
q7 -319 97 -401z" />
    <glyph glyph-name="ugrave" unicode="&#xf9;" horiz-adv-x="1177" 
d="M579 1393l-258 317h285l129 -315zM853 1247h174v-1247h-176v113q-54 -126 -291 -126q-410 0 -410 606v654h174v-627q0 -476 221 -476h17q243 0 291 264v839z" />
    <glyph glyph-name="uacute" unicode="&#xfa;" horiz-adv-x="1177" 
d="M442 1395l130 315h285l-258 -317zM853 1247h174v-1247h-176v113q-54 -126 -291 -126q-410 0 -410 606v654h174v-627q0 -476 221 -476h17q243 0 291 264v839z" />
    <glyph glyph-name="ucircumflex" unicode="&#xfb;" horiz-adv-x="1177" 
d="M828 1340l-241 177l-237 -171l-102 107v22l342 238l335 -236q4 -16 4 -31zM853 1247h174v-1247h-176v113q-54 -126 -291 -126q-410 0 -410 606v654h174v-627q0 -476 221 -476h17q243 0 291 264v839z" />
    <glyph glyph-name="udieresis" unicode="&#xfc;" horiz-adv-x="1177" 
d="M541.5 1581q36.5 -35 36.5 -83q0 -45 -36.5 -79t-89.5 -34q-49 0 -85 34t-36 79q0 47 36 82.5t85 35.5q53 0 89.5 -35zM811 1580.5q36 -35.5 36 -82.5q0 -45 -36 -79t-87 -34q-53 0 -88.5 34t-35.5 79q0 47 35.5 82.5t88.5 35.5q51 0 87 -35.5zM853 1247h174v-1247h-176
v113q-54 -126 -291 -126q-410 0 -410 606v654h174v-627q0 -476 221 -476h17q243 0 291 264v839z" />
    <glyph glyph-name="yacute" unicode="&#xfd;" 
d="M417 1395l130 315h285l-258 -317zM826 113q-54 -126 -291 -126q-410 0 -410 606v654h174v-627q0 -476 221 -476h17q243 0 291 264v839h174v-1224q-70 -385 -461 -395q-159 1 -287 98l137 108q73 -50 148 -51q277 7 287 330z" />
    <glyph glyph-name="thorn" unicode="&#xfe;" horiz-adv-x="1157" 
d="M576 1122q-113 0 -249 -49v-660q45 -264 288 -264h18q262 0 262 476v82q-19 415 -319 415zM327 -391h-177v2025h177v-386q109 45 228 45q463 0 499 -577q3 -60 3 -116q0 -606 -440 -606q-236 0 -290 66v-451z" />
    <glyph glyph-name="ydieresis" unicode="&#xff;" 
d="M516.5 1581q36.5 -35 36.5 -83q0 -45 -36.5 -79t-89.5 -34q-49 0 -85 34t-36 79q0 47 36 82.5t85 35.5q53 0 89.5 -35zM786 1580.5q36 -35.5 36 -82.5q0 -45 -36 -79t-87 -34q-53 0 -88.5 34t-35.5 79q0 47 35.5 82.5t88.5 35.5q51 0 87 -35.5zM826 113
q-54 -126 -291 -126q-410 0 -410 606v654h174v-627q0 -476 221 -476h17q243 0 291 264v839h174v-1224q-70 -385 -461 -395q-159 1 -287 98l137 108q73 -50 148 -51q277 7 287 330z" />
    <glyph glyph-name="Amacron" unicode="&#x100;" horiz-adv-x="1381" 
d="M456 582l-177 -582h-179l500 1634h182l499 -1634h-177l-179 582h-469zM506 745h370l-185 605zM360 1898q15 11 29 19h632v-162h-636q-13 6 -25 18v125z" />
    <glyph glyph-name="amacron" unicode="&#x101;" horiz-adv-x="1059" 
d="M194 1512q15 12 29 20h632v-163h-636q-14 7 -25 18v125zM245 459q17 -281 283 -281h257v310q-44 263 -287 263q-254 -7 -254 -258q0 -17 1 -34zM959 0h-420q-455 0 -469 449v27q0 431 426 431q236 0 289 -118q-34 321 -284 328q-76 -1 -149 -50l-137 107q129 97 287 98
q397 -9 457 -404v-868z" />
    <glyph glyph-name="Abreve" unicode="&#x102;" horiz-adv-x="1381" 
d="M456 582l-177 -582h-179l500 1634h182l499 -1634h-177l-179 582h-469zM506 745h370l-185 605zM500 2018q65 -82 178 -90h24q114 8 180 90h165q-97 -238 -346 -253h-25q-246 15 -341 253h165z" />
    <glyph glyph-name="abreve" unicode="&#x103;" horiz-adv-x="1059" 
d="M333 1633q66 -82 179 -90h24q114 8 180 90h165q-97 -238 -346 -253h-25q-247 15 -341 253h164zM245 459q17 -281 283 -281h257v310q-44 263 -287 263q-254 -7 -254 -258q0 -17 1 -34zM959 0h-420q-455 0 -469 449v27q0 431 426 431q236 0 289 -118q-34 321 -284 328
q-76 -1 -149 -50l-137 107q129 97 287 98q397 -9 457 -404v-868z" />
    <glyph glyph-name="Aogonek" unicode="&#x104;" horiz-adv-x="1385" 
d="M506 745h370l-185 605zM1071 107l-146 475h-469l-177 -582h-179l500 1634h182l499 -1634h-177l6 -18q-34 -30 -34 -98q0 -27 24.5 -82t123.5 -55q17 0 52 6l68 -94q-119 -41 -195 -41q-168 0 -216 65.5t-48 156.5q0 148 186 267z" />
    <glyph glyph-name="aogonek" unicode="&#x105;" horiz-adv-x="1073" 
d="M255 459q17 -281 283 -281h257v310q-44 263 -287 263q-254 -7 -254 -258q0 -17 1 -34zM582 0h-33q-455 0 -469 449v27q0 431 426 431q236 0 289 -165v97q-34 271 -284 278q-76 -1 -149 -50l-137 107q129 97 287 98q397 -9 457 -404v-868h-200q-62 -71 -62 -133
q0 -40 26 -76q42 -58 103 -58q36 0 79 20l68 -94q-119 -41 -195 -41q-168 0 -216 71t-48 151q0 106 58 160z" />
    <glyph glyph-name="Cacute" unicode="&#x106;" horiz-adv-x="1353" 
d="M1018 1257q-65 242 -308 242q-444 -15 -444 -666v-10q3 -663 401 -680q427 28 447 539h183q-29 -671 -627 -706q-585 13 -585 843v6q2 834 627 845q379 0 461 -412zM544 1780l130 315h284l-257 -316z" />
    <glyph glyph-name="cacute" unicode="&#x107;" horiz-adv-x="1207" 
d="M550 1093q-139 0 -214 -184q-51 -124 -51 -290q0 -96 17 -206q42 -276 297 -276h15q304 35 314 431l179 -1q-15 -562 -505 -589q-17 -1 -34 -1q-347 0 -431 339q-37 150 -37 290q0 179 61 344q112 304 417 304h24q240 0 373 -210l-121 -112q-103 159 -256 163
q-23 0 -48 -2zM456 1395l130 315h285l-258 -317z" />
    <glyph glyph-name="Ccircumflex" unicode="&#x108;" horiz-adv-x="1353" 
d="M1018 1257q-65 242 -308 242q-444 -15 -444 -666v-10q3 -663 401 -680q427 28 447 539h183q-29 -671 -627 -706q-585 13 -585 843v6q2 834 627 845q379 0 461 -412zM930 1725l-242 178l-236 -172l-102 107v22l341 238l336 -236q4 -15 4 -31z" />
    <glyph glyph-name="ccircumflex" unicode="&#x109;" horiz-adv-x="1207" 
d="M550 1093q-139 0 -214 -184q-51 -124 -51 -290q0 -96 17 -206q42 -276 297 -276h15q304 35 314 431l179 -1q-15 -562 -505 -589q-17 -1 -34 -1q-347 0 -431 339q-37 150 -37 290q0 179 61 344q112 304 417 304h24q240 0 373 -210l-121 -112q-103 159 -256 163
q-23 0 -48 -2zM843 1340l-242 177l-237 -171l-101 107v22l341 238l336 -236q3 -16 3 -31z" />
    <glyph glyph-name="Cdotaccent" unicode="&#x10a;" horiz-adv-x="1353" 
d="M1018 1257q-65 242 -308 242q-444 -15 -444 -666v-10q3 -663 401 -680q427 28 447 539h183q-29 -671 -627 -706q-585 13 -585 843v6q2 834 627 845q379 0 461 -412zM810.5 2040q47.5 -50 47.5 -115t-48 -113t-120 -48q-71 0 -118.5 48t-47.5 113t47.5 115t118.5 50
q73 0 120.5 -50z" />
    <glyph glyph-name="cdotaccent" unicode="&#x10b;" horiz-adv-x="1207" 
d="M550 1093q-139 0 -214 -184q-51 -124 -51 -290q0 -96 17 -206q42 -276 297 -276h15q304 35 314 431l179 -1q-15 -562 -505 -589q-17 -1 -34 -1q-347 0 -431 339q-37 150 -37 290q0 179 61 344q112 304 417 304h24q240 0 373 -210l-121 -112q-103 159 -256 163
q-23 0 -48 -2zM723 1703.5q48 -50.5 48 -114.5q0 -65 -48 -113t-120 -48q-71 0 -119 48t-48 113q0 64 48 114.5t119 50.5q72 0 120 -50.5z" />
    <glyph glyph-name="Ccaron" unicode="&#x10c;" horiz-adv-x="1353" 
d="M1018 1257q-65 242 -308 242q-444 -15 -444 -666v-10q3 -663 401 -680q427 28 447 539h183q-29 -671 -627 -706q-585 13 -585 843v6q2 834 627 845q379 0 461 -412zM1031 1996q0 -16 -4 -31l-336 -236l-353 246l114 121l236 -172l242 178z" />
    <glyph glyph-name="ccaron" unicode="&#x10d;" horiz-adv-x="1207" 
d="M550 1093q-139 0 -214 -184q-51 -124 -51 -290q0 -96 17 -206q42 -276 297 -276h15q304 35 314 431l179 -1q-15 -562 -505 -589q-17 -1 -34 -1q-347 0 -431 339q-37 150 -37 290q0 179 61 344q112 304 417 304h24q240 0 373 -210l-121 -112q-103 159 -256 163
q-23 0 -48 -2zM943 1610q0 -15 -3 -30l-336 -237l-353 247l113 120l237 -171l242 177z" />
    <glyph glyph-name="Dcaron" unicode="&#x10e;" horiz-adv-x="1271" 
d="M451 1469h-124v-1302h124q526 0 535 644q-9 658 -535 658zM508 0h-358v1634h358q653 -30 663 -823q-10 -779 -663 -811zM938 1996q0 -16 -4 -31l-335 -236l-354 246l114 121l236 -172l242 178z" />
    <glyph glyph-name="dcaron" unicode="&#x10f;" horiz-adv-x="1341" 
d="M287 545q9 -385 201 -385h370l-3 679q-46 264 -288 264h-18q-263 0 -263 -476q0 -39 1 -82zM1032 0h-576q-9 -1 -21 -1q-283 0 -307 539q-3 60 -3 116q0 606 440 606q236 0 290 -126v501h177v-1635zM1161 1403q-2 1 -28 26q-48 49 -48 119q0 62 48 111.5t119 49.5
q72 0 120 -49.5t48 -111.5q0 -63 -42.5 -135.5t-192.5 -227.5l-25 25l-75 83v22q60 62 76 88z" />
    <glyph glyph-name="Dcroat" unicode="&#x110;" horiz-adv-x="1357" 
d="M236 899v735h358q653 -30 663 -823q-10 -779 -663 -811h-358v736h-136v163h136zM413 899h474v-163h-474v-569h125q525 0 535 644q-10 658 -535 658h-125v-570z" />
    <glyph glyph-name="dcroat" unicode="&#x111;" horiz-adv-x="1178" 
d="M287 545q9 -385 201 -385h370l-3 679q-46 264 -288 264h-18q-263 0 -263 -476q0 -39 1 -82zM1032 1310v-1310h-576q-9 -1 -21 -1q-283 0 -307 539q-3 60 -3 116q0 606 440 606q236 0 290 -66v116h-527v163h527v162h177v-162h121v-163h-121z" />
    <glyph glyph-name="Emacron" unicode="&#x112;" horiz-adv-x="1145" 
d="M150 1634h824v-167h-645v-541h452v-167h-452v-592h716v-167h-895v1634zM267 1898q15 11 29 19h632v-162h-637q-13 6 -24 18v125z" />
    <glyph glyph-name="emacron" unicode="&#x113;" horiz-adv-x="1161" 
d="M266 1512q15 12 29 20h632v-163h-637q-13 7 -24 18v125zM602 1105h-15q-199 0 -280 -200h537q-31 192 -242 200zM285 753q-3 -48 -3 -113q0 -487 289 -487q10 0 21 1q310 18 337 414h157q-42 -584 -536 -590q-349 18 -415 415q-27 157 -27 283q0 182 55 303
q134 297 431 297q24 0 50 -2q337 -27 386 -521h-745z" />
    <glyph glyph-name="Ebreve" unicode="&#x114;" horiz-adv-x="1145" 
d="M150 1634h824v-167h-645v-541h452v-167h-452v-592h716v-167h-895v1634zM406 2018q65 -82 179 -90h24q114 8 180 90h165q-97 -238 -346 -253h-25q-247 15 -341 253h164z" />
    <glyph glyph-name="ebreve" unicode="&#x115;" horiz-adv-x="1161" 
d="M405 1633q65 -82 179 -90h24q114 8 180 90h165q-97 -238 -346 -253h-25q-247 15 -342 253h165zM602 1105h-15q-199 0 -280 -200h537q-31 192 -242 200zM285 753q-3 -48 -3 -113q0 -487 289 -487q10 0 21 1q310 18 337 414h157q-42 -584 -536 -590q-349 18 -415 415
q-27 157 -27 283q0 182 55 303q134 297 431 297q24 0 50 -2q337 -27 386 -521h-745z" />
    <glyph glyph-name="Edotaccent" unicode="&#x116;" horiz-adv-x="1145" 
d="M150 1634h824v-167h-645v-541h452v-167h-452v-592h716v-167h-895v1634zM717.5 2040q47.5 -50 47.5 -115t-48 -113t-120 -48q-70 0 -118 48t-48 113t47.5 115t118.5 50q73 0 120.5 -50z" />
    <glyph glyph-name="edotaccent" unicode="&#x117;" horiz-adv-x="1161" 
d="M715.5 1703.5q47.5 -50.5 47.5 -114.5q0 -65 -48 -113t-120 -48q-70 0 -118 48t-48 113q0 64 47.5 114.5t118.5 50.5q73 0 120.5 -50.5zM602 1105h-15q-199 0 -280 -200h537q-31 192 -242 200zM285 753q-3 -48 -3 -113q0 -487 289 -487q10 0 21 1q310 18 337 414h157
q-42 -584 -536 -590q-349 18 -415 415q-27 157 -27 283q0 182 55 303q134 297 431 297q24 0 50 -2q337 -27 386 -521h-745z" />
    <glyph glyph-name="Eogonek" unicode="&#x118;" horiz-adv-x="1159" 
d="M658 0h-508v1634h824v-167h-645v-541h452v-167h-452v-592h716v-167h-200q-54 -52 -54 -116q0 -27 29.5 -82t118.5 -55q16 0 52 6l68 -94q-119 -41 -195 -41q-168 0 -216 90t-48 132q0 106 58 160z" />
    <glyph glyph-name="eogonek" unicode="&#x119;" horiz-adv-x="1161" 
d="M615 1110h-22q-18 2 -34 2q-168 0 -252 -207h537q-31 192 -229 205zM623 -21q-2 0 -73 -1q-349 18 -415 415q-27 157 -27 283q0 182 55 303q134 297 431 297q24 0 50 -2q337 -27 386 -521h-745q-3 -48 -3 -113q0 -504 288 -504h25q307 36 334 432h157q-27 -386 -240 -514
q-36 -44 -36 -95q0 -26 12 -59v2q48 -80 136 -80q17 0 52 6l69 -94q-119 -40 -196 -40q-168 0 -215.5 89.5t-47.5 131.5q0 58 3 64z" />
    <glyph glyph-name="Ecaron" unicode="&#x11a;" horiz-adv-x="1145" 
d="M150 1634h824v-167h-645v-541h452v-167h-452v-592h716v-167h-895v1634zM938 1996q0 -16 -4 -31l-335 -236l-354 246l114 121l236 -172l242 178z" />
    <glyph glyph-name="ecaron" unicode="&#x11b;" horiz-adv-x="1161" 
d="M937 1610q0 -15 -4 -30l-336 -237l-353 247l114 120l236 -171l242 177zM602 1105h-15q-199 0 -280 -200h537q-31 192 -242 200zM285 753q-3 -48 -3 -113q0 -487 289 -487q10 0 21 1q310 18 337 414h157q-42 -584 -536 -590q-349 18 -415 415q-27 157 -27 283
q0 182 55 303q134 297 431 297q24 0 50 -2q337 -27 386 -521h-745z" />
    <glyph glyph-name="Gcircumflex" unicode="&#x11c;" horiz-adv-x="1393" 
d="M687 -24q-585 13 -585 843v6q2 834 627 845q379 0 461 -412l-155 -1q-65 242 -308 242q-444 -15 -444 -666v-10q3 -663 401 -680q404 26 440 458h-271v163h460q-42 -754 -626 -788zM947 1725l-242 178l-236 -172l-102 107v22l341 238l336 -236q4 -15 4 -31z" />
    <glyph glyph-name="gcircumflex" unicode="&#x11d;" horiz-adv-x="1206" 
d="M818 1340l-242 177l-236 -171l-102 107v22l341 238l336 -236q4 -16 4 -31zM287 707q-1 -43 -1 -82q0 -476 263 -476h18q242 0 287 264v660q-135 49 -248 49q-300 0 -319 -415zM1028 33q-60 -395 -457 -405q-159 1 -287 98l137 108q73 -50 148 -51q251 7 285 329
q-53 -118 -289 -118q-440 0 -440 606q0 56 3 116q36 577 499 577q118 0 259 -45h145z" />
    <glyph glyph-name="Gbreve" unicode="&#x11e;" horiz-adv-x="1393" 
d="M687 -24q-585 13 -585 843v6q2 834 627 845q379 0 461 -412l-155 -1q-65 242 -308 242q-444 -15 -444 -666v-10q3 -663 401 -680q404 26 440 458h-271v163h460q-42 -754 -626 -788zM516 2018q65 -82 179 -90h24q114 8 180 90h165q-98 -238 -346 -253h-25
q-247 15 -342 253h165z" />
    <glyph glyph-name="gbreve" unicode="&#x11f;" horiz-adv-x="1206" 
d="M387 1633q65 -82 179 -90h24q114 8 180 90h165q-98 -238 -346 -253h-25q-247 15 -342 253h165zM287 707q-1 -43 -1 -82q0 -476 263 -476h18q242 0 287 264v660q-135 49 -248 49q-300 0 -319 -415zM1028 33q-60 -395 -457 -405q-159 1 -287 98l137 108q73 -50 148 -51
q251 7 285 329q-53 -118 -289 -118q-440 0 -440 606q0 56 3 116q36 577 499 577q118 0 259 -45h145z" />
    <glyph glyph-name="Gdotaccent" unicode="&#x120;" horiz-adv-x="1393" 
d="M687 -24q-585 13 -585 843v6q2 834 627 845q379 0 461 -412l-155 -1q-65 242 -308 242q-444 -15 -444 -666v-10q3 -663 401 -680q404 26 440 458h-271v163h460q-42 -754 -626 -788zM826.5 2040q47.5 -50 47.5 -115t-48 -113t-120 -48q-70 0 -118 48t-48 113t47.5 115
t118.5 50q73 0 120.5 -50z" />
    <glyph glyph-name="gdotaccent" unicode="&#x121;" horiz-adv-x="1206" 
d="M287 707q-1 -43 -1 -82q0 -476 263 -476h18q242 0 287 264v660q-135 49 -248 49q-300 0 -319 -415zM697.5 1703.5q47.5 -50.5 47.5 -114.5q0 -65 -48 -113t-120 -48q-71 0 -118.5 48t-47.5 113q0 64 47.5 114.5t118.5 50.5q73 0 120.5 -50.5zM1028 33q-60 -395 -457 -405
q-159 1 -287 98l137 108q73 -50 148 -51q251 7 285 329q-53 -118 -289 -118q-440 0 -440 606q0 56 3 116q36 577 499 577q118 0 259 -45h145z" />
    <glyph glyph-name="Gcommaaccent" unicode="&#x122;" horiz-adv-x="1393" 
d="M724 -21q69 -31 95 -109q8 -32 8 -60q0 -52 -29 -100q-58 -92 -162 -99q-13 -2 -25 -2q-76 0 -170 55l76 107q58 -24 81 -24h11q22 2 37 31q7 13 7 26q0 9 -5 19q-8 25 -33 37q-33 14 -75 29l39 96q-477 57 -477 834v6q2 834 627 845q379 0 461 -412l-155 -1
q-65 242 -308 242q-444 -15 -444 -666v-10q3 -663 401 -680q404 26 440 458h-271v163h460q-41 -730 -589 -785z" />
    <glyph glyph-name="gcommaaccent" unicode="&#x123;" horiz-adv-x="1206" 
d="M287 707q-1 -43 -1 -82q0 -476 263 -476h18q242 0 287 264v660q-135 49 -248 49q-300 0 -319 -415zM679 1710q3 -1 28 -26q49 -49 49 -119q0 -63 -48 -112t-119 -49q-72 0 -120 49t-48 112t42.5 135.5t192.5 227.5l25 -25l75 -83v-22q-61 -63 -77 -88zM854 58
q-54 -64 -289 -64q-440 0 -440 606q0 56 3 116q36 577 499 577q118 0 259 -45h145l-3 -1215q-60 -395 -457 -405q-159 1 -287 98l137 108q73 -50 148 -51q249 7 285 275z" />
    <glyph glyph-name="Hcircumflex" unicode="&#x124;" horiz-adv-x="1297" 
d="M175 1634h171v-719h605v719h171v-1634h-171v752h-605v-752h-171v1634zM888 1725l-241 178l-237 -172l-101 107v22l341 238l335 -236q4 -15 4 -31z" />
    <glyph glyph-name="hcircumflex" unicode="&#x125;" horiz-adv-x="1240" 
d="M357 1409v-285q54 136 290 136q401 0 401 -504v-756h-174v737q0 366 -211 366h-18q-243 0 -290 -264v-839h-175v1635h177v-66l263 183l335 -236q4 -15 4 -31l-101 -106l-241 177l-237 -171z" />
    <glyph glyph-name="Hbar" unicode="&#x126;" horiz-adv-x="1290" 
d="M167 1473v161h171v-161h605v161h171v-161h135v-163h-135v-1310h-171v752h-605v-752h-171v1310h-134v163h134zM338 1310v-395h605v395h-605z" />
    <glyph glyph-name="hbar" unicode="&#x127;" horiz-adv-x="1236" 
d="M176 1310h-143v163h143v162h177v-162h506v-163h-506v-186q54 136 290 136q401 0 401 -504v-756h-174v737q0 366 -211 366h-18q-242 0 -290 -264v-839h-175v1310z" />
    <glyph glyph-name="Itilde" unicode="&#x128;" horiz-adv-x="571" 
d="M372 1634v-1634h-171v1634h171zM-34 1879q103 124 199 124h11q55 -4 131.5 -38.5t109.5 -37.5h2q25 0 98 72l89 -126q-95 -98 -180 -98h-12q-57 4 -134.5 40t-106.5 38h-6q-47 0 -96 -71h-37z" />
    <glyph glyph-name="itilde" unicode="&#x129;" horiz-adv-x="873" 
d="M526 -3h-177v1249h177v-1249zM117 1493q103 125 199 125h11q55 -5 131.5 -39.5t109.5 -36.5h2q25 0 98 72l89 -126q-95 -98 -180 -98h-12q-57 4 -134.5 39.5t-106.5 38.5h-6q-47 0 -96 -72h-37z" />
    <glyph glyph-name="Imacron" unicode="&#x12a;" horiz-adv-x="558" 
d="M366 1634v-1634h-171v1634h171zM-51 1898q15 11 29 19h632v-162h-636q-14 6 -25 18v125z" />
    <glyph glyph-name="imacron" unicode="&#x12b;" horiz-adv-x="860" 
d="M519 -3h-176v1249h176v-1249zM100 1512q15 12 29 20h632v-163h-636q-14 7 -25 18v125z" />
    <glyph glyph-name="Ibreve" unicode="&#x12c;" horiz-adv-x="581" 
d="M377 1634v-1634h-171v1634h171zM100 2018q65 -82 178 -90h24q114 8 180 90h165q-97 -238 -345 -253h-26q-246 15 -341 253h165z" />
    <glyph glyph-name="ibreve" unicode="&#x12d;" horiz-adv-x="883" 
d="M531 -3h-177v1249h177v-1249zM251 1633q65 -82 178 -90h24q114 8 180 90h165q-97 -238 -345 -253h-26q-246 15 -341 253h165z" />
    <glyph glyph-name="Iogonek" unicode="&#x12e;" horiz-adv-x="578" 
d="M195 100v1534h171v-1634h-102q-55 -52 -55 -116q0 -27 12 -59v1l2 -8q46 -71 134 -71q17 0 53 6l68 -94q-119 -41 -196 -41q-168 0 -239 119q-1 1 -8 12v8h-1q-15 41 -15 83q0 143 176 260z" />
    <glyph glyph-name="iogonek" unicode="&#x12f;" horiz-adv-x="674" 
d="M424 1713.5q37 -38.5 37 -89.5t-37 -89t-94 -38t-95.5 37.5t-38.5 89.5q0 51 38.5 89.5t95.5 38.5t94 -38.5zM240 113v1133h177v-1249h-130q-52 -50 -52 -113q0 -27 12 -59v1l2 -8q46 -71 134 -71q17 0 53 6l68 -94q-119 -41 -196 -41q-168 0 -239 119q-1 1 -8 12v8h-1
q-15 41 -15 83q0 150 195 273z" />
    <glyph glyph-name="Idotaccent" unicode="&#x130;" horiz-adv-x="567" 
d="M369 1634v-1634h-171v1634h171zM403 2040q48 -50 48 -115t-48 -113t-120 -48q-71 0 -119 48t-48 113t48 115t119 50q72 0 120 -50z" />
    <glyph glyph-name="dotlessi" unicode="&#x131;" horiz-adv-x="873" 
d="M525 -3h-177v1249h177v-1249z" />
    <glyph glyph-name="IJ" unicode="&#x132;" horiz-adv-x="1119" 
d="M371 1634v-1634h-171v1634h171zM361 -259q359 2 379 293v1600h179v-1544q0 -517 -558 -522v173z" />
    <glyph glyph-name="ij" unicode="&#x133;" horiz-adv-x="1270" 
d="M421 -3h-177v1249h177v-1249zM427.5 1713.5q36.5 -38.5 36.5 -89.5t-36.5 -89t-93.5 -38t-95.5 37.5t-38.5 89.5q0 51 38 89.5t96 38.5q57 0 93.5 -38.5zM872 1246h177v-1223q-9 -361 -404 -454l-51 175q261 43 278 280v1222zM1047.5 1712.5q38.5 -39.5 38.5 -90.5
q0 -52 -38.5 -89.5t-95.5 -37.5q-56 0 -93 38t-37 89t37 90.5t93 39.5q57 0 95.5 -39.5z" />
    <glyph glyph-name="Jcircumflex" unicode="&#x134;" horiz-adv-x="601" 
d="M-150 -259q359 2 379 293v1600h179v-1544q0 -517 -558 -522v173zM555 1725l-242 178l-237 -172l-101 107v22l341 238l336 -236q3 -15 3 -31z" />
    <glyph glyph-name="jcircumflex" unicode="&#x135;" horiz-adv-x="671" 
d="M279 1246h176v-1223q-9 -361 -404 -454l-51 175q262 43 279 280v1222zM614 1335l-242 178l-236 -172l-102 107v22l341 238l336 -236q4 -15 4 -31z" />
    <glyph glyph-name="Kcommaaccent" unicode="&#x136;" horiz-adv-x="1422" 
d="M1171 1634l-415 -570l566 -1064h-192l-486 911l-273 -374v-537h-171v1634h171v-811l593 811h207zM693 -13q92 -38 118 -117q9 -32 9 -60q0 -52 -30 -100q-57 -92 -161 -99q-13 -2 -25 -2q-77 0 -171 55l77 107q57 -24 81 -24h11q22 2 36 31q7 13 7 26q0 9 -4 19
q-8 25 -33 37q-33 14 -76 29l41 98h120z" />
    <glyph glyph-name="kcommaaccent" unicode="&#x137;" horiz-adv-x="1165" 
d="M327 629v-629h-177v1634h177v-719l370 501h207l-298 -431l485 -985h-208l-409 814zM594 -13q92 -38 119 -117q8 -32 8 -60q0 -52 -29 -100q-58 -92 -162 -99q-13 -2 -25 -2q-76 0 -170 55l76 107q58 -24 81 -24h11q22 2 37 31q7 13 7 26q0 9 -5 19q-8 25 -33 37
q-33 14 -76 29l41 98h120z" />
    <glyph glyph-name="kgreenlandic" unicode="&#x138;" horiz-adv-x="1165" 
d="M327 1249v-334l247 334h215l-183 -264l485 -985h-208l-409 814l-147 -185v-629h-177v1249h177z" />
    <glyph glyph-name="Lacute" unicode="&#x139;" horiz-adv-x="1038" 
d="M321 1v-1h-171v1634h171v-1470h642v-163h-642zM306 1780l129 315h285l-257 -316z" />
    <glyph glyph-name="lacute" unicode="&#x13a;" horiz-adv-x="598" 
d="M377 0h-177v1634h177v-1634zM209 1780l130 315h285l-258 -316z" />
    <glyph glyph-name="Lcommaaccent" unicode="&#x13b;" horiz-adv-x="1038" 
d="M321 1v-1h-171v1634h171v-1470h642v-163h-642zM594 -13q92 -38 119 -117q8 -32 8 -60q0 -52 -29 -100q-58 -92 -162 -99q-13 -2 -25 -2q-76 0 -170 55l76 107q58 -24 81 -24h11q22 2 37 31q7 13 7 26q0 9 -5 19q-8 25 -33 37q-33 14 -76 29l41 98h120z" />
    <glyph glyph-name="lcommaaccent" unicode="&#x13c;" horiz-adv-x="582" 
d="M385 0h-177v1634h177v-1634zM390 -13q92 -38 118 -117q9 -32 9 -60q0 -52 -30 -100q-57 -92 -161 -99q-13 -2 -26 -2q-76 0 -170 55l76 107q58 -24 82 -24h11q21 2 36 31q7 13 7 26q0 9 -4 19q-9 25 -34 37q-32 14 -75 29l41 98h120z" />
    <glyph glyph-name="Lcaron" unicode="&#x13d;" horiz-adv-x="1038" 
d="M321 1v-1h-171v1634h171v-1470h642v-163h-642zM675 1403q-3 1 -28 26q-49 49 -49 119q0 62 48 111.5t119 49.5q72 0 120 -49.5t48 -111.5q0 -63 -42.5 -135.5t-192.5 -227.5l-25 25l-75 83v22q61 62 77 88z" />
    <glyph glyph-name="lcaron" unicode="&#x13e;" horiz-adv-x="690" 
d="M377 0h-177v1634h177v-1634zM510 1403q-2 1 -28 26q-48 49 -48 119q0 62 48 111.5t119 49.5q72 0 120 -49.5t48 -111.5q0 -63 -42.5 -135.5t-192.5 -227.5l-25 25l-75 83v22q60 62 76 88z" />
    <glyph glyph-name="Ldot" unicode="&#x13f;" horiz-adv-x="1038" 
d="M321 1v-1h-171v1634h171v-1470h642v-163h-642zM767 918q48 -50 48 -115t-48 -113t-120 -48q-71 0 -119 48t-48 113t48 115t119 50q72 0 120 -50z" />
    <glyph glyph-name="ldot" unicode="&#x140;" horiz-adv-x="725" 
d="M377 0h-177v1634h177v-1634zM768.5 918q47.5 -50 47.5 -115t-48 -113t-120 -48q-70 0 -118 48t-48 113t47.5 115t118.5 50q73 0 120.5 -50z" />
    <glyph glyph-name="Lslash" unicode="&#x141;" horiz-adv-x="1035" 
d="M318 447v-283h642v-163h-642v-1h-171v398l-126 -37v166l126 37v1070h171v-1021l541 158v-166z" />
    <glyph glyph-name="lslash" unicode="&#x142;" horiz-adv-x="567" 
d="M382 702v-702h-177v628l-184 -77v168l184 78v837h177v-763l183 77v-169z" />
    <glyph glyph-name="Nacute" unicode="&#x143;" horiz-adv-x="1364" 
d="M284 1634l784 -1263v1263h171v-1634h-138l-805 1281v-1281h-171v1634h159zM535 1780l130 315h285l-258 -316z" />
    <glyph glyph-name="nacute" unicode="&#x144;" 
d="M417 1395l130 315h285l-258 -317zM300 0h-175v1247h177v-113q54 126 290 126h5q406 0 406 -555q0 -25 -1 -52v-653h-173v628q1 30 1 58q0 392 -224 417h-16q-243 0 -290 -264v-839z" />
    <glyph glyph-name="Ncommaaccent" unicode="&#x145;" horiz-adv-x="1364" 
d="M284 1634l784 -1263v1263h171v-1634h-138l-805 1281v-1281h-171v1634h159zM691 -13q92 -38 119 -117q8 -32 8 -60q0 -52 -30 -100q-57 -92 -161 -99q-13 -2 -25 -2q-76 0 -171 55l77 107q57 -24 81 -24h11q22 2 36 31q7 13 7 26q0 9 -4 19q-8 25 -33 37q-33 14 -76 29
l41 98h120z" />
    <glyph glyph-name="ncommaaccent" unicode="&#x146;" 
d="M594 -13q92 -38 118 -117q9 -32 9 -60q0 -52 -30 -100q-57 -92 -161 -99q-13 -2 -26 -2q-76 0 -170 55l76 107q58 -24 82 -24h11q21 2 36 31q7 13 7 26q0 9 -4 19q-9 25 -34 37q-32 14 -75 29l41 98h120zM300 0h-175v1247h177v-113q54 126 290 126h5q406 0 406 -555
q0 -25 -1 -52v-653h-173v628q1 30 1 58q0 392 -224 417h-16q-243 0 -290 -264v-839z" />
    <glyph glyph-name="Ncaron" unicode="&#x147;" horiz-adv-x="1364" 
d="M284 1634l784 -1263v1263h171v-1634h-138l-805 1281v-1281h-171v1634h159zM1023 1996q0 -16 -4 -31l-335 -236l-354 246l114 121l237 -172l241 178z" />
    <glyph glyph-name="ncaron" unicode="&#x148;" 
d="M904 1610q0 -15 -4 -30l-335 -237l-353 247l113 120l237 -171l241 177zM300 0h-175v1247h177v-113q54 126 290 126h5q406 0 406 -555q0 -25 -1 -52v-653h-173v628q1 30 1 58q0 392 -224 417h-16q-243 0 -290 -264v-839z" />
    <glyph glyph-name="napostrophe" unicode="&#x149;" horiz-adv-x="1260" 
d="M27 1403q-2 1 -27 26q-49 49 -49 119q0 62 48 111.5t119 49.5q72 0 120 -49.5t48 -111.5q0 -63 -42.5 -135.5t-192.5 -227.5l-25 25l-75 83v22q60 62 76 88zM440 0h-175v1247h177v-113q54 126 290 126h5q406 0 406 -555q0 -25 -1 -52v-653h-173v628q1 30 1 58
q0 392 -224 417h-16q-243 0 -290 -264v-839z" />
    <glyph glyph-name="Eng" unicode="&#x14a;" horiz-adv-x="1364" 
d="M1062 61l-766 1220v-1281h-171v1634h159l782 -1256l2 1256h171v-1611q-9 -361 -404 -454l-51 175q261 43 278 280v37z" />
    <glyph glyph-name="eng" unicode="&#x14b;" 
d="M829 628q1 30 1 58q0 392 -224 417h-16q-243 0 -290 -264v-839h-175v1247h177v-113q54 126 290 126h5q406 0 407 -555q0 -25 -1 -52l2 -630q-9 -361 -404 -454l-51 175q262 43 279 280v604z" />
    <glyph glyph-name="Omacron" unicode="&#x14c;" horiz-adv-x="1442" 
d="M273 823q8 -677 449 -677q437 0 451 677q-14 676 -451 676q-441 0 -449 -676zM85 823q27 847 639 847q609 0 633 -847q-24 -845 -633 -845q-612 0 -639 845zM391 1898q15 11 29 19h632v-162h-636q-14 6 -25 18v125z" />
    <glyph glyph-name="omacron" unicode="&#x14d;" 
d="M873 639q-22 476 -310 476q-287 0 -313 -476q11 -497 313 -497q301 0 310 497zM563 1292q449 0 489 -647q-16 -669 -489 -669q-476 0 -488 669q38 647 488 647zM233 1512q15 12 29 20h632v-163h-637q-13 7 -24 18v125z" />
    <glyph glyph-name="Obreve" unicode="&#x14e;" horiz-adv-x="1442" 
d="M273 823q8 -677 449 -677q437 0 451 677q-14 676 -451 676q-441 0 -449 -676zM85 823q27 847 639 847q609 0 633 -847q-24 -845 -633 -845q-612 0 -639 845zM530 2018q66 -82 179 -90h24q114 8 180 90h165q-97 -238 -346 -253h-25q-247 15 -341 253h164z" />
    <glyph glyph-name="obreve" unicode="&#x14f;" 
d="M873 639q-22 476 -310 476q-287 0 -313 -476q11 -497 313 -497q301 0 310 497zM563 1292q449 0 489 -647q-16 -669 -489 -669q-476 0 -488 669q38 647 488 647zM372 1633q65 -82 179 -90h24q114 8 180 90h165q-97 -238 -346 -253h-25q-247 15 -342 253h165z" />
    <glyph glyph-name="Ohungarumlaut" unicode="&#x150;" horiz-adv-x="1442" 
d="M273 823q8 -677 449 -677q437 0 451 677q-14 676 -451 676q-441 0 -449 -676zM85 823q27 847 639 847q609 0 633 -847q-24 -845 -633 -845q-612 0 -639 845zM521 1780l130 315h285l-258 -316z" />
    <glyph glyph-name="ohungarumlaut" unicode="&#x151;" 
d="M873 639q-22 476 -310 476q-287 0 -313 -476q11 -497 313 -497q301 0 310 497zM563 1292q449 0 489 -647q-16 -669 -489 -669q-476 0 -488 669q38 647 488 647zM364 1395l130 315h285l-258 -317z" />
    <glyph glyph-name="OE" unicode="&#x152;" horiz-adv-x="1959" 
d="M273 823q8 -677 449 -677q437 0 451 677q-14 676 -451 676q-441 0 -449 -676zM1169 167h705v-167h-993v-7q-50 -15 -157 -15q-612 0 -639 845q27 847 639 847q127 0 225 -36h853v-167h-623q150 -185 173 -541h258v-167h-255q-18 -398 -186 -592z" />
    <glyph glyph-name="oe" unicode="&#x153;" horiz-adv-x="1673" 
d="M873 639q-22 476 -310 476q-287 0 -313 -476q11 -497 313 -497q301 0 310 497zM1011 914h375q-31 182 -229 196h-21q-107 0 -175 -62q30 -57 50 -134zM858 1188q98 88 277 88q25 0 51 -2q337 -27 386 -521h-530q5 -35 10 -108q-8 -323 -110 -471q54 -35 168 -37
q304 35 332 431h156q-41 -584 -535 -590q-157 8 -240 69q-92 -71 -260 -71q-476 0 -488 669q38 647 488 647q197 0 295 -104z" />
    <glyph glyph-name="Racute" unicode="&#x154;" horiz-adv-x="1211" 
d="M480 876q391 0 391 295q0 298 -406 298h-138v-593h153zM919 0l-371 710q-27 -3 -81 -3h-140v-707h-177v1634h325q572 0 572 -463q0 -361 -322 -434l385 -737h-191zM475 1780l130 315h285l-258 -316z" />
    <glyph glyph-name="racute" unicode="&#x155;" horiz-adv-x="736" 
d="M291 1395l130 315h284l-257 -317zM351 0h-176v1246h176v-105q42 91 152 107q37 5 72 5q71 0 136 -21l-71 -144q-73 21 -111 21q-47 0 -85 -21q-60 -27 -93 -167v-921z" />
    <glyph glyph-name="Rcommaaccent" unicode="&#x156;" horiz-adv-x="1211" 
d="M480 876q391 0 391 295q0 298 -406 298h-138v-593h153zM919 0l-371 710q-27 -3 -81 -3h-140v-707h-177v1634h325q572 0 572 -463q0 -361 -322 -434l385 -737h-191zM594 -13q92 -38 119 -117q8 -32 8 -60q0 -52 -29 -100q-58 -92 -162 -99q-13 -2 -25 -2q-76 0 -170 55
l76 107q58 -24 81 -24h11q22 2 37 31q7 13 7 26q0 9 -5 19q-8 25 -33 37q-33 14 -76 29l41 98h120z" />
    <glyph glyph-name="rcommaaccent" unicode="&#x157;" horiz-adv-x="746" 
d="M410 -13q92 -38 118 -117q9 -32 9 -60q0 -52 -30 -100q-57 -92 -161 -99q-13 -2 -26 -2q-76 0 -170 55l76 107q58 -24 82 -24h11q21 2 36 31q7 13 7 26q0 9 -4 19q-9 25 -34 37q-32 14 -75 29l41 98h120zM351 0h-176v1246h176v-105q42 91 152 107q37 5 72 5q71 0 136 -21
l-71 -144q-73 21 -111 21q-47 0 -85 -21q-60 -27 -93 -167v-921z" />
    <glyph glyph-name="Rcaron" unicode="&#x158;" horiz-adv-x="1211" 
d="M480 876q391 0 391 295q0 298 -406 298h-138v-593h153zM919 0l-371 710q-27 -3 -81 -3h-140v-707h-177v1634h325q572 0 572 -463q0 -361 -322 -434l385 -737h-191zM962 1996q0 -16 -4 -31l-335 -236l-353 246l113 121l237 -172l241 178z" />
    <glyph glyph-name="rcaron" unicode="&#x159;" horiz-adv-x="733" 
d="M788 1610q0 -15 -3 -30l-336 -237l-353 247l113 120l237 -171l242 177zM351 0h-176v1246h176v-105q42 91 152 107q37 5 72 5q71 0 136 -21l-71 -144q-73 21 -111 21q-47 0 -85 -21q-60 -27 -93 -167v-921z" />
    <glyph glyph-name="Sacute" unicode="&#x15a;" horiz-adv-x="1338" 
d="M846 1302q-52 182 -240 208l-10 1q-18 2 -34 2q-60 0 -117 -29q-72 -43 -86 -131v-16q0 -123 137 -156q168 -41 390.5 -101.5t302.5 -204.5q49 -86 49 -221q0 -57 -9 -124l-9 -62q-121 -474 -553 -474q-44 0 -93 5q-474 68 -474 635q0 37 3 101h187q-4 -68 -4 -107
q0 -423 311 -468q32 -4 63 -4q298 0 386 333q6 32 10 65q6 45 6 83q0 78 -23 130q-43 90 -144.5 127t-340 90.5t-317.5 147.5q-66 78 -66 190q0 21 2 43q20 147 143 241q102 76 244 76q29 0 62 -3l18 -3q329 -43 358 -374h-152zM522 1780l129 315h285l-257 -316z" />
    <glyph glyph-name="sacute" unicode="&#x15b;" horiz-adv-x="1090" 
d="M675 966q-34 140 -163 161l-7 2q-12 2 -25 2q-37 0 -74 -17q-47 -27 -58 -87v-17q0 -77 89 -102q121 -34 294.5 -86t234.5 -173q34 -63 34 -156q0 -52 -10 -113l-8 -47q-104 -361 -433 -361q-44 0 -94 7q-365 64 -365 486q0 29 4 83h187q-5 -61 -5 -91q0 -288 205 -325
q28 -3 56 -3q200 0 269 232q6 23 10 49q7 38 7 70q0 49 -15 83q-28 64 -98 92.5t-254 75.5t-246 125q-50 62 -50 147q0 20 3 42q20 118 122 190q79 57 186 57q31 0 65 -5l13 -2q264 -44 283 -319h-157zM398 1395l129 315h285l-257 -317z" />
    <glyph glyph-name="Scircumflex" unicode="&#x15c;" horiz-adv-x="1338" 
d="M846 1302q-52 182 -240 208l-10 1q-18 2 -34 2q-60 0 -117 -29q-72 -43 -86 -131v-16q0 -123 137 -156q168 -41 390.5 -101.5t302.5 -204.5q49 -86 49 -221q0 -57 -9 -124l-9 -62q-121 -474 -553 -474q-44 0 -93 5q-474 68 -474 635q0 37 3 101h187q-4 -68 -4 -107
q0 -423 311 -468q32 -4 63 -4q298 0 386 333q6 32 10 65q6 45 6 83q0 78 -23 130q-43 90 -144.5 127t-340 90.5t-317.5 147.5q-66 78 -66 190q0 21 2 43q20 147 143 241q102 76 244 76q29 0 62 -3l18 -3q329 -43 358 -374h-152zM909 1725l-242 178l-236 -172l-102 107v22
l341 238l336 -236q4 -15 4 -31z" />
    <glyph glyph-name="scircumflex" unicode="&#x15d;" horiz-adv-x="1090" 
d="M675 966q-34 140 -163 161l-7 2q-12 2 -25 2q-37 0 -74 -17q-47 -27 -58 -87v-17q0 -77 89 -102q121 -34 294.5 -86t234.5 -173q34 -63 34 -156q0 -52 -10 -113l-8 -47q-104 -361 -433 -361q-44 0 -94 7q-365 64 -365 486q0 29 4 83h187q-5 -61 -5 -91q0 -288 205 -325
q28 -3 56 -3q200 0 269 232q6 23 10 49q7 38 7 70q0 49 -15 83q-28 64 -98 92.5t-254 75.5t-246 125q-50 62 -50 147q0 20 3 42q20 118 122 190q79 57 186 57q31 0 65 -5l13 -2q264 -44 283 -319h-157zM785 1340l-242 177l-236 -171l-102 107v22l341 238l336 -236
q4 -16 4 -31z" />
    <glyph glyph-name="Scedilla" unicode="&#x15e;" horiz-adv-x="1338" 
d="M614 -5q2 0 -40 4q-474 68 -474 635q0 37 3 101h187q-4 -68 -4 -107q0 -423 311 -468q32 -4 63 -4q298 0 386 333q6 32 10 65q6 45 6 83q0 78 -23 130q-43 90 -144.5 127t-340 90.5t-317.5 147.5q-66 78 -66 190q0 21 2 43q20 147 143 241q102 76 244 76q29 0 62 -3
l18 -3q329 -43 358 -374h-152q-52 182 -240 208l-10 1q-18 2 -34 2q-60 0 -117 -29q-72 -43 -86 -131v-16q0 -123 137 -156q168 -41 390.5 -101.5t302.5 -204.5q49 -86 49 -221q0 -57 -9 -124l-9 -62q-114 -448 -481 -471l-1 -12q82 -29 111 -115q9 -32 9 -60
q0 -52 -30 -100q-58 -92 -162 -99q-12 -2 -25 -2q-76 0 -170 55l76 107q58 -24 81 -24h11q22 2 37 31q7 13 7 26q0 9 -5 19q-8 25 -33 37q-33 14 -75 29z" />
    <glyph glyph-name="scedilla" unicode="&#x15f;" horiz-adv-x="1090" 
d="M634 -23q66 -32 91 -107q9 -32 9 -60q0 -52 -30 -100q-58 -92 -162 -99q-12 -2 -25 -2q-76 0 -170 55l76 107q58 -24 81 -24h11q22 2 37 31q7 13 7 26q0 9 -5 19q-8 25 -33 37q-33 14 -75 29l35 85h1q0 1 -27 5q-365 64 -365 486q0 29 4 83h187q-5 -61 -5 -91
q0 -288 205 -325q28 -3 56 -3q200 0 269 232q6 23 10 49q7 38 7 70q0 49 -15 83q-28 64 -98 92.5t-254 75.5t-246 125q-50 62 -50 147q0 20 3 42q20 118 122 190q79 57 186 57q31 0 65 -5l13 -2q264 -44 283 -319h-157q-34 140 -163 161l-7 2q-12 2 -25 2q-37 0 -74 -17
q-47 -27 -58 -87v-17q0 -77 89 -102q121 -34 294.5 -86t234.5 -173q34 -63 34 -156q0 -52 -10 -113l-8 -47q-93 -327 -348 -356z" />
    <glyph glyph-name="Scaron" unicode="&#x160;" horiz-adv-x="1338" 
d="M846 1302q-52 182 -240 208l-10 1q-18 2 -34 2q-60 0 -117 -29q-72 -43 -86 -131v-16q0 -123 137 -156q168 -41 390.5 -101.5t302.5 -204.5q49 -86 49 -221q0 -57 -9 -124l-9 -62q-121 -474 -553 -474q-44 0 -93 5q-474 68 -474 635q0 37 3 101h187q-4 -68 -4 -107
q0 -423 311 -468q32 -4 63 -4q298 0 386 333q6 32 10 65q6 45 6 83q0 78 -23 130q-43 90 -144.5 127t-340 90.5t-317.5 147.5q-66 78 -66 190q0 21 2 43q20 147 143 241q102 76 244 76q29 0 62 -3l18 -3q329 -43 358 -374h-152zM1010 1996q0 -16 -4 -31l-336 -236l-353 246
l113 121l237 -172l242 178z" />
    <glyph glyph-name="scaron" unicode="&#x161;" horiz-adv-x="1090" 
d="M675 966q-34 140 -163 161l-7 2q-12 2 -25 2q-37 0 -74 -17q-47 -27 -58 -87v-17q0 -77 89 -102q121 -34 294.5 -86t234.5 -173q34 -63 34 -156q0 -52 -10 -113l-8 -47q-104 -361 -433 -361q-44 0 -94 7q-365 64 -365 486q0 29 4 83h187q-5 -61 -5 -91q0 -288 205 -325
q28 -3 56 -3q200 0 269 232q6 23 10 49q7 38 7 70q0 49 -15 83q-28 64 -98 92.5t-254 75.5t-246 125q-50 62 -50 147q0 20 3 42q20 118 122 190q79 57 186 57q31 0 65 -5l13 -2q264 -44 283 -319h-157zM886 1610q0 -15 -4 -30l-336 -237l-353 247l113 120l237 -171l242 177z
" />
    <glyph glyph-name="Tcommaaccent" unicode="&#x162;" horiz-adv-x="1216" 
d="M554 0h-32v1472h-452v163h1076v-163h-453v-1472h-15l-1 -15q82 -29 111 -115q8 -32 8 -60q0 -52 -29 -100q-58 -92 -162 -99q-13 -2 -25 -2q-76 0 -170 55l76 107q58 -24 81 -24h11q22 2 36 31q8 13 8 26q0 9 -5 19q-8 25 -33 37q-33 14 -75 29z" />
    <glyph glyph-name="tcommaaccent" unicode="&#x163;" horiz-adv-x="663" 
d="M278 0h-35v1079h-193v169h193v273h175v-273h195v-169h-195v-1079h-16l-1 -15q82 -29 110 -115q9 -32 9 -60q0 -52 -30 -100q-57 -92 -161 -99q-13 -2 -25 -2q-77 0 -171 55l77 107q57 -24 81 -24h11q21 2 36 31q7 13 7 26q0 9 -4 19q-9 25 -34 37q-32 14 -75 29z" />
    <glyph glyph-name="Tcaron" unicode="&#x164;" horiz-adv-x="1216" 
d="M522 0v1472h-452v163h1076v-163h-453v-1472h-171zM936 1996q0 -16 -4 -31l-335 -236l-354 246l114 121l236 -172l242 178z" />
    <glyph glyph-name="tcaron" unicode="&#x165;" horiz-adv-x="843" 
d="M243 0v1079h-193v169h193v273h175v-273h195v-169h-195v-1079h-175zM672 1403q-2 1 -28 26q-48 49 -48 119q0 62 47.5 111.5t119.5 49.5t119.5 -49.5t47.5 -111.5q0 -63 -42 -135.5t-192 -227.5l-25 25l-75 83v22q60 62 76 88z" />
    <glyph glyph-name="Tbar" unicode="&#x166;" horiz-adv-x="1216" 
d="M693 822v-822h-171v822h-310v163h310v487h-452v163h1076v-163h-453v-487h311v-163h-311z" />
    <glyph glyph-name="tbar" unicode="&#x167;" horiz-adv-x="615" 
d="M394 724v-724h-175v724h-193v163h193v192h-193v169h193v273h175v-273h195v-169h-195v-192h195v-163h-195z" />
    <glyph glyph-name="Utilde" unicode="&#x168;" horiz-adv-x="1393" 
d="M698 169q370 3 370 390v1075h175v-1101q0 -529 -545 -533q-548 4 -548 533v1101h179v-1075q0 -387 369 -390zM377 1879q103 124 199 124h11q55 -4 131.5 -38.5t109.5 -37.5h2q25 0 98 72l90 -126q-96 -98 -181 -98h-12q-57 4 -134.5 40t-106.5 38h-6q-47 0 -95 -71h-37z
" />
    <glyph glyph-name="utilde" unicode="&#x169;" horiz-adv-x="1177" 
d="M269 1493q103 125 199 125h11q55 -5 131.5 -39.5t109.5 -36.5h2q25 0 98 72l89 -126q-95 -98 -180 -98h-12q-57 4 -134.5 39.5t-106.5 38.5h-6q-47 0 -95 -72h-38zM853 1247h174v-1247h-176v113q-54 -126 -291 -126q-410 0 -410 606v654h174v-627q0 -476 221 -476h17
q243 0 291 264v839z" />
    <glyph glyph-name="Umacron" unicode="&#x16a;" horiz-adv-x="1393" 
d="M698 169q370 3 370 390v1075h175v-1101q0 -529 -545 -533q-548 4 -548 533v1101h179v-1075q0 -387 369 -390zM366 1898q16 11 29 19h632v-162h-636q-13 6 -25 18v125z" />
    <glyph glyph-name="umacron" unicode="&#x16b;" horiz-adv-x="1177" 
d="M258 1512q15 12 29 20h632v-163h-636q-13 7 -25 18v125zM853 1247h174v-1247h-176v113q-54 -126 -291 -126q-410 0 -410 606v654h174v-627q0 -476 221 -476h17q243 0 291 264v839z" />
    <glyph glyph-name="Ubreve" unicode="&#x16c;" horiz-adv-x="1393" 
d="M698 169q370 3 370 390v1075h175v-1101q0 -529 -545 -533q-548 4 -548 533v1101h179v-1075q0 -387 369 -390zM506 2018q65 -82 178 -90h24q114 8 180 90h165q-97 -238 -345 -253h-26q-246 15 -341 253h165z" />
    <glyph glyph-name="ubreve" unicode="&#x16d;" horiz-adv-x="1177" 
d="M398 1633q65 -82 178 -90h24q114 8 180 90h165q-97 -238 -346 -253h-25q-246 15 -341 253h165zM853 1247h174v-1247h-176v113q-54 -126 -291 -126q-410 0 -410 606v654h174v-627q0 -476 221 -476h17q243 0 291 264v839z" />
    <glyph glyph-name="Uring" unicode="&#x16e;" horiz-adv-x="1393" 
d="M698 169q370 3 370 390v1075h175v-1101q0 -529 -545 -533q-548 4 -548 533v1101h179v-1075q0 -387 369 -390zM864 2046q69 -69 69 -163q0 -97 -69 -164t-168 -67q-101 0 -168 67t-67 164q0 93 67 162.5t168 69.5q99 0 168 -69zM696 1955q-24 0 -44 -21.5t-20 -50.5
q0 -30 19.5 -49t44.5 -19q27 0 46.5 19t19.5 49q0 29 -20 50.5t-46 21.5z" />
    <glyph glyph-name="uring" unicode="&#x16f;" horiz-adv-x="1177" 
d="M756 1660q69 -69 69 -162q0 -97 -69 -164t-168 -67q-101 0 -168 67t-67 164q0 93 66.5 162t168.5 69q99 0 168 -69zM588 1569q-24 0 -44 -21t-20 -50q0 -31 19.5 -49.5t44.5 -18.5q27 0 46.5 18.5t19.5 49.5q0 29 -20 50t-46 21zM853 1247h174v-1247h-176v113
q-54 -126 -291 -126q-410 0 -410 606v654h174v-627q0 -476 221 -476h17q243 0 291 264v839z" />
    <glyph glyph-name="Uhungarumlaut" unicode="&#x170;" horiz-adv-x="1393" 
d="M698 169q370 3 370 390v1075h175v-1101q0 -529 -545 -533q-548 4 -548 533v1101h179v-1075q0 -387 369 -390zM497 1780l129 315h285l-257 -316z" />
    <glyph glyph-name="uhungarumlaut" unicode="&#x171;" horiz-adv-x="1177" 
d="M389 1395l130 315h285l-258 -317zM853 1247h174v-1247h-176v113q-54 -126 -291 -126q-410 0 -410 606v654h174v-627q0 -476 221 -476h17q243 0 291 264v839z" />
    <glyph glyph-name="Uogonek" unicode="&#x172;" horiz-adv-x="1393" 
d="M593 4q-443 25 -443 529v1101h179v-1075q0 -387 369 -390q370 3 370 390v1075h175v-1101q0 -501 -477 -530q-21 -27 -21 -63q0 -21 11 -48v-3q42 -58 121 -58q15 0 49 6l67 -86q-115 -35 -184 -35q-155 0 -220 100q-3 3 -8 13v2q-15 37 -15 72q0 73 27 101z" />
    <glyph glyph-name="uogonek" unicode="&#x173;" horiz-adv-x="1192" 
d="M610 -13q-460 0 -460 606v654h174v-627q0 -476 221 -476h17q243 0 291 264v839h174v-1247h-176v103l-37 -60q-41 -46 -41 -101q0 -26 30 -81t118 -55q17 0 52 5l69 -94q-119 -40 -196 -40q-168 0 -239 119q-1 1 -9 12v8q-15 41 -15 83q0 68 27 88z" />
    <glyph glyph-name="Wcircumflex" unicode="&#x174;" horiz-adv-x="2033" 
d="M921 635q-174 441 -211 999h184q78 -863 417 -1383q342 520 416 1383h182q-61 -967 -598 -1686q-198 265 -292 467q-95 -201 -293 -467q-537 719 -601 1686h184q79 -863 417 -1384q106 159 195 385zM1257 1725l-241 178l-237 -172l-102 107v22l342 238l335 -236
q4 -15 4 -31z" />
    <glyph glyph-name="wcircumflex" unicode="&#x175;" horiz-adv-x="1618" 
d="M718 491q-105 273 -147 764h175q21 -326 97 -577q28 -90 61 -173q73 -165 144 -272q260 373 282 1022h188q-74 -859 -470 -1314q-163 190 -235 337q-71 -147 -236 -337q-396 455 -477 1314h176q39 -648 301 -1022q75 109 141 258zM1049 1340l-242 177l-237 -171l-101 107
v22l341 238l336 -236q4 -16 4 -31z" />
    <glyph glyph-name="Ycircumflex" unicode="&#x176;" horiz-adv-x="1262" 
d="M870 1725l-241 178l-237 -172l-102 107v22l342 238l335 -236q4 -15 4 -31zM716 0h-171v834l-445 800h193l338 -615l338 615h193l-446 -800v-834z" />
    <glyph glyph-name="ycircumflex" unicode="&#x177;" 
d="M803 1340l-241 177l-237 -171l-102 107v22l342 238l335 -236q4 -16 4 -31zM826 113q-54 -126 -291 -126q-410 0 -410 606v654h174v-627q0 -476 221 -476h17q243 0 291 264v839h174v-1224q-70 -385 -461 -395q-159 1 -287 98l137 108q73 -50 148 -51q277 7 287 330z" />
    <glyph glyph-name="Ydieresis" unicode="&#x178;" horiz-adv-x="1262" 
d="M583.5 1966q36.5 -35 36.5 -83q0 -45 -36.5 -79t-89.5 -34q-49 0 -85 34t-36 79q0 48 36 83t85 35q53 0 89.5 -35zM853 1966q36 -35 36 -83q0 -45 -36 -79t-87 -34q-53 0 -88.5 34.5t-35.5 78.5q0 48 35.5 83t88.5 35q51 0 87 -35zM716 0h-171v834l-445 800h193l338 -615
l338 615h193l-446 -800v-834z" />
    <glyph glyph-name="Zacute" unicode="&#x179;" horiz-adv-x="1300" 
d="M844 1471h-736v163h1008l-743 -1471h826v-163h-1099zM507 1780l130 315h285l-258 -316z" />
    <glyph glyph-name="zacute" unicode="&#x17a;" horiz-adv-x="1136" 
d="M376 163h660v-163h-933l549 1085h-552v163h824zM421 1395l130 315h285l-258 -317z" />
    <glyph glyph-name="Zdotaccent" unicode="&#x17b;" horiz-adv-x="1300" 
d="M844 1471h-736v163h1008l-743 -1471h826v-163h-1099zM773.5 2040q47.5 -50 47.5 -115t-48 -113t-119 -48t-119 48t-48 113t47.5 115t119.5 50t119.5 -50z" />
    <glyph glyph-name="zdotaccent" unicode="&#x17c;" horiz-adv-x="1136" 
d="M376 163h660v-163h-933l549 1085h-552v163h824zM688 1703.5q48 -50.5 48 -114.5q0 -65 -48 -113t-120 -48q-71 0 -119 48t-48 113q0 64 48 114.5t119 50.5q72 0 120 -50.5z" />
    <glyph glyph-name="Zcaron" unicode="&#x17d;" horiz-adv-x="1300" 
d="M844 1471h-736v163h1008l-743 -1471h826v-163h-1099zM994 1996q0 -16 -4 -31l-335 -236l-354 246l114 121l237 -172l241 178z" />
    <glyph glyph-name="zcaron" unicode="&#x17e;" horiz-adv-x="1136" 
d="M376 163h660v-163h-933l549 1085h-552v163h824zM908 1610q0 -15 -4 -30l-335 -237l-353 247l113 120l237 -171l242 177z" />
    <glyph glyph-name="longs" unicode="&#x17f;" horiz-adv-x="803" 
d="M206 1369q0 434 316 458h21q282 0 335 -332l-164 -59q-34 230 -177 230q-154 -9 -154 -276v-1397h-177v1376z" />
    <glyph glyph-name="florin" unicode="&#x192;" horiz-adv-x="790" 
d="M197 -7h1l210 1086h-103l32 165h104l25 130q83 430 399 453h21q275 0 275 -294v-40l-176 -58q4 51 4 63q0 168 -130 168q-148 -8 -197 -209h-1l-41 -213h294l-33 -165h-293l-195 -1002q-84 -430 -399 -454h-69l32 165q36 -4 43 -4q148 8 197 209z" />
    <glyph glyph-name="Aringacute" unicode="&#x1fa;" horiz-adv-x="1486" 
d="M742 1646q-22 0 -39.5 -18.5t-17.5 -44.5q0 -28 17.5 -44.5t39.5 -16.5q24 0 41 16.5t17 44.5q0 26 -17.5 44.5t-40.5 18.5zM567 639h352l-176 482zM833 1387l502 -1387h-183l-174 476h-470l-174 -476h-184l502 1386q-37 16 -66 45q-62 62 -62 152q0 86 62 150
q31 31 69 47h-14l130 315h284l-250 -307q52 -15 93 -55q63 -64 63 -150q0 -90 -63 -152q-30 -29 -65 -44z" />
    <glyph glyph-name="aringacute" unicode="&#x1fb;" horiz-adv-x="1116" 
d="M385 404q15 -234 235 -234h214v259q-38 219 -239 219q-211 -6 -211 -215q0 -14 1 -29zM628 1295q-21 0 -38.5 -18.5t-17.5 -45.5t17 -43.5t39 -16.5q24 0 41.5 16.5t17.5 43.5t-18 45.5t-41 18.5zM796 1087q171 -55 212 -324v-771h-378q-409 0 -421 403v24q0 387 383 387
q213 0 242 -122q-29 278 -237 284q-62 -1 -130 -48l-138 109q88 66 116 73q-34 40 -34 129q0 87 61 150q56 56 149 329h285l-217 -266q34 -1 95 -62q64 -64 64 -151q0 -89 -52 -144z" />
    <glyph glyph-name="AEacute" unicode="&#x1fc;" horiz-adv-x="1845" 
d="M803 1780l129 315h285l-258 -316zM738 1335l-182 -590h182v590zM1562 1634v-167h-645v-541h452v-167h-452v-592h717v-167h-896v582h-232l-177 -582h-179l500 1634h912z" />
    <glyph glyph-name="aeacute" unicode="&#x1fd;" horiz-adv-x="1832" 
d="M768 1395l130 315h285l-258 -317zM1287 1110h-23q-17 2 -33 2q-168 0 -252 -207h537q-31 192 -229 205zM250 459q17 -281 283 -281h257v310q-44 263 -287 263q-254 -7 -254 -258q0 -17 1 -34zM891 1087q107 189 374 189q25 0 51 -2q337 -27 386 -521h-738v-288
q45 -329 278 -329h25q306 36 334 432h156q-41 -584 -535 -590q-203 10 -258 81v-59h-420q-455 0 -469 449v27q0 431 426 431q227 0 289 -128q-4 331 -284 338q-76 -1 -149 -50l-137 107q129 97 287 98q302 -7 384 -185z" />
    <glyph glyph-name="Oslashacute" unicode="&#x1fe;" horiz-adv-x="1442" 
d="M393 64q-289 168 -308 759q27 847 639 847q96 0 149 -14l38 123l178 -54l-41 -139q292 -166 309 -763q-24 -845 -633 -845q-100 0 -155 14l-49 -162l-183 50zM993 1406l-375 -1250q33 -10 104 -10q437 0 451 677q-9 462 -180 583zM447 241l376 1249q-32 9 -101 9
q-441 0 -449 -676q5 -460 174 -582zM574 1780l130 315h285l-258 -316z" />
    <glyph glyph-name="oslashacute" unicode="&#x1ff;" 
d="M291 56q-208 137 -216 590q38 647 488 647q68 0 99 -8l57 192l161 -49l-62 -208q207 -128 234 -574q-16 -669 -489 -669q-78 0 -115 10l-59 -194l-164 45zM764 1038l-267 -884q17 -6 66 -6q301 0 310 497q-15 317 -109 393zM347 244l265 875q-8 2 -49 2q-287 0 -313 -476
q7 -319 97 -401zM417 1395l130 315h284l-257 -317z" />
    <glyph glyph-name="circumflex" unicode="&#x2c6;" horiz-adv-x="781" 
d="M630 1340l-242 177l-236 -171l-102 107v22l341 238l336 -236q4 -16 4 -31z" />
    <glyph glyph-name="caron" unicode="&#x2c7;" horiz-adv-x="792" 
d="M742 1610q0 -15 -3 -30l-336 -237l-353 247l113 120l237 -171l242 177z" />
    <glyph glyph-name="uni02C9" unicode="&#x2c9;" horiz-adv-x="761" 
d="M50 1512q15 12 29 20h632v-163h-636q-14 7 -25 18v125z" />
    <glyph glyph-name="breve" unicode="&#x2d8;" horiz-adv-x="812" 
d="M215 1633q65 -82 178 -90h24q114 8 180 90h165q-97 -238 -345 -253h-26q-246 15 -341 253h165z" />
    <glyph glyph-name="dotaccent" unicode="&#x2d9;" horiz-adv-x="435" 
d="M337 1703.5q48 -50.5 48 -114.5q0 -65 -48 -113t-120 -48q-71 0 -119 48t-48 113q0 64 48 114.5t119 50.5q72 0 120 -50.5z" />
    <glyph glyph-name="ring" unicode="&#x2da;" horiz-adv-x="572" 
d="M453 1660q69 -69 69 -162q0 -97 -69 -164t-168 -67q-101 0 -168 67t-67 164q0 93 67 162t168 69q99 0 168 -69zM285 1569q-24 0 -44 -21t-20 -50q0 -31 19.5 -49.5t44.5 -18.5q27 0 46.5 18.5t19.5 49.5q0 29 -20 50t-46 21z" />
    <glyph glyph-name="ogonek" unicode="&#x2db;" horiz-adv-x="559" 
d="M509 -341q-119 -41 -196 -41h-12q-195 0 -222 189q-3 18 -3 37q0 172 240 311l48 -99q-100 -71 -100 -156q0 -21 6 -42q30 -111 118 -111q17 0 53 6z" />
    <glyph glyph-name="tilde" unicode="&#x2dc;" horiz-adv-x="740" 
d="M50 1493q103 125 199 125h11q55 -5 131.5 -39.5t109.5 -36.5h2q25 0 98 72l89 -126q-95 -98 -180 -98h-12q-57 4 -134.5 39.5t-106.5 38.5h-6q-47 0 -96 -72h-37z" />
    <glyph glyph-name="hungarumlaut" unicode="&#x2dd;" horiz-adv-x="715" 
d="M0 1395l130 315h285l-258 -317zM300 1395l130 315h285l-258 -317z" />
    <glyph glyph-name="tonos" unicode="&#x384;" horiz-adv-x="383" 
d="M50 1395l5 315h279l-139 -317z" />
    <glyph glyph-name="dieresistonos" unicode="&#x385;" horiz-adv-x="811" 
d="M250.5 1581q36.5 -35 36.5 -83q0 -45 -36.5 -79t-89.5 -34q-49 0 -85 34t-36 79q0 47 36 82.5t85 35.5q53 0 89.5 -35zM725 1580.5q36 -35.5 36 -82.5q0 -45 -36 -79t-87 -34q-53 0 -88.5 34t-35.5 79q0 47 35 82.5t89 35.5q51 0 87 -35.5zM299 1395l4 315h279l-138 -317
z" />
    <glyph glyph-name="Alphatonos" unicode="&#x386;" horiz-adv-x="1372" 
d="M446 582l-177 -582h-179l500 1634h182l500 -1634h-178l-178 582h-470zM496 745h370l-185 605zM50 1395l5 315h279l-139 -317z" />
    <glyph glyph-name="anoteleia" unicode="&#x387;" horiz-adv-x="347" 
d="M261 1580.5q36 -35.5 36 -82.5q0 -45 -36 -79t-87 -34q-53 0 -88.5 34t-35.5 79q0 47 35.5 82.5t88.5 35.5q51 0 87 -35.5z" />
    <glyph glyph-name="Epsilontonos" unicode="&#x388;" horiz-adv-x="1138" 
d="M143 1634h824v-167h-646v-541h453v-167h-453v-592h717v-167h-895v1634zM-150 1395l5 315h279l-139 -317z" />
    <glyph glyph-name="Etatonos" unicode="&#x389;" horiz-adv-x="1289" 
d="M167 1634h171v-719h605v719h171v-1634h-171v752h-605v-752h-171v1634zM-150 1395l5 315h279l-139 -317z" />
    <glyph glyph-name="Iotatonos" unicode="&#x38a;" horiz-adv-x="561" 
d="M362 1634v-1634h-171v1634h171zM-150 1395l5 315h279l-139 -317z" />
    <glyph glyph-name="Omicrontonos" unicode="&#x38c;" horiz-adv-x="1439" 
d="M270 823q8 -677 448 -677q438 0 451 677q-13 676 -451 676q-440 0 -448 -676zM82 823q27 847 638 847q610 0 634 -847q-24 -845 -634 -845q-611 0 -638 845zM-50 1395l5 315h279l-139 -317z" />
    <glyph glyph-name="Upsilontonos" unicode="&#x38e;" horiz-adv-x="1239" 
d="M-210 1395l5 315h279l-139 -317zM716 0h-171v834l-445 800h193l338 -615l338 615h193l-446 -800v-834z" />
    <glyph glyph-name="Omegatonos" unicode="&#x38f;" horiz-adv-x="1438" 
d="M795 163h50q311 85 323 660q-14 676 -451 676q-441 0 -449 -676q6 -574 319 -660h82v-163h-637v163h340q-274 163 -290 660q27 847 638 847q610 0 634 -847q-14 -498 -287 -660h337v-163h-609v163zM-50 1395l5 315h279l-139 -317z" />
    <glyph glyph-name="iotadieresistonos" unicode="&#x390;" horiz-adv-x="859" 
d="M518 -3h-177v1249h177v-1249zM290.5 1581q36.5 -35 36.5 -83q0 -45 -36.5 -79t-89.5 -34q-49 0 -85 34t-36 79q0 47 36 82.5t85 35.5q53 0 89.5 -35zM765 1580.5q36 -35.5 36 -82.5q0 -45 -36 -79t-87 -34q-53 0 -88.5 34t-35.5 79q0 47 35 82.5t89 35.5q51 0 87 -35.5z
M339 1395l4 315h279l-138 -317z" />
    <glyph glyph-name="Alpha" unicode="&#x391;" horiz-adv-x="1381" 
d="M456 582l-177 -582h-179l500 1634h182l499 -1634h-177l-179 582h-469zM506 745h370l-185 605z" />
    <glyph glyph-name="Beta" unicode="&#x392;" horiz-adv-x="1240" 
d="M150 0v1634l377 -2q427 0 451 -374v-20q0 -224 -112 -293q258 -104 274 -466q-16 -479 -573 -479h-417zM327 1010h320q162 41 162 239q-11 205 -259 218h-223v-457zM327 167h262q376 0 376 331q-15 339 -405 339h-233v-670z" />
    <glyph glyph-name="Gamma" unicode="&#x393;" horiz-adv-x="1038" 
d="M963 1633v-163h-642v-1470h-171v1634h171v-1h642z" />
    <glyph glyph-name="uni0394" unicode="&#x394;" horiz-adv-x="1381" 
d="M100 0l500 1634h182l499 -1634h-1181zM328 163h726l-363 1187z" />
    <glyph glyph-name="Epsilon" unicode="&#x395;" horiz-adv-x="1145" 
d="M150 1634h824v-167h-645v-541h452v-167h-452v-592h716v-167h-895v1634z" />
    <glyph glyph-name="Zeta" unicode="&#x396;" horiz-adv-x="1300" 
d="M844 1471h-736v163h1008l-743 -1471h826v-163h-1099z" />
    <glyph glyph-name="Eta" unicode="&#x397;" horiz-adv-x="1297" 
d="M175 1634h171v-719h605v719h171v-1634h-171v752h-605v-752h-171v1634z" />
    <glyph glyph-name="Theta" unicode="&#x398;" horiz-adv-x="1442" 
d="M272 823q7 -677 448 -677q437 0 451 677q-14 676 -451 676q-441 0 -448 -676zM85 823q27 847 639 847q609 0 633 -847q-24 -845 -633 -845q-612 0 -639 845zM1114 752h-785v163h785v-163z" />
    <glyph glyph-name="Iota" unicode="&#x399;" horiz-adv-x="571" 
d="M371 1634v-1634h-171v1634h171z" />
    <glyph glyph-name="Kappa" unicode="&#x39a;" horiz-adv-x="1422" 
d="M1171 1634l-415 -570l566 -1064h-192l-486 911l-273 -374v-537h-171v1634h171v-811l593 811h207z" />
    <glyph glyph-name="Lambda" unicode="&#x39b;" horiz-adv-x="1448" 
d="M726 1383q-338 -520 -417 -1383h-184q64 966 601 1685q537 -719 598 -1685h-182q-73 863 -416 1383z" />
    <glyph glyph-name="Mu" unicode="&#x39c;" horiz-adv-x="1674" 
d="M1354 1609v25h170v-1634h-170v1291l-420 -671h-199l-414 663v-1279h-171v1633h159l527 -858z" />
    <glyph glyph-name="Nu" unicode="&#x39d;" horiz-adv-x="1364" 
d="M284 1634l784 -1263v1263h171v-1634h-138l-805 1281v-1281h-171v1634h159z" />
    <glyph glyph-name="Xi" unicode="&#x39e;" horiz-adv-x="1099" 
d="M102 1634h896v-167h-896v167zM199 926h703v-167h-703v167zM66 167h967v-167h-967v167z" />
    <glyph glyph-name="Omicron" unicode="&#x39f;" horiz-adv-x="1442" 
d="M273 823q8 -677 449 -677q437 0 451 677q-14 676 -451 676q-441 0 -449 -676zM85 823q27 847 639 847q609 0 633 -847q-24 -845 -633 -845q-612 0 -639 845z" />
    <glyph glyph-name="Pi" unicode="&#x3a0;" horiz-adv-x="1308" 
d="M321 1470v-1470h-171v1634h171v-1h666v1h171v-1634h-171v1470h-666z" />
    <glyph glyph-name="Rho" unicode="&#x3a1;" horiz-adv-x="1147" 
d="M327 707v-707h-177v1634h325q572 0 572 -463q0 -464 -580 -464h-140zM327 1469v-593h138q406 0 406 295q0 298 -406 298h-138z" />
    <glyph glyph-name="Sigma" unicode="&#x3a3;" horiz-adv-x="945" 
d="M870 1633v-163h-606l159 -653l-159 -653h606v-163l-820 -1l201 817l-201 817z" />
    <glyph glyph-name="Tau" unicode="&#x3a4;" horiz-adv-x="1216" 
d="M693 1472v-1472h-171v1472h-452v163h1076v-163h-453z" />
    <glyph glyph-name="Upsilon" unicode="&#x3a5;" horiz-adv-x="1262" 
d="M716 0h-171v834l-445 800h193l338 -615l338 615h193l-446 -800v-834z" />
    <glyph glyph-name="Phi" unicode="&#x3a6;" horiz-adv-x="1718" 
d="M773 1226q-493 -34 -493 -407q0 -374 493 -411v818zM944 1227v-819q494 28 494 411q0 380 -494 408zM773 1394v240h171v-239q674 -38 674 -578q0 -544 -674 -579v-238h-171v239q-673 50 -673 578q0 526 673 577z" />
    <glyph glyph-name="Chi" unicode="&#x3a7;" horiz-adv-x="1263" 
d="M70 0l464 844l-434 790h193l338 -615l338 615h193l-435 -790l465 -844h-193l-368 669l-368 -669h-193z" />
    <glyph glyph-name="Psi" unicode="&#x3a8;" horiz-adv-x="1702" 
d="M766 604v1030h171v-1030q485 38 485 410v620h180v-622q0 -525 -665 -577v-435h-171v435q-666 52 -666 577v622h180v-620q0 -372 486 -410z" />
    <glyph glyph-name="uni03A9" unicode="&#x3a9;" horiz-adv-x="1440" 
d="M797 163h49q312 85 323 660q-13 676 -451 676q-440 0 -448 -676q6 -574 318 -660h83v-163h-637v163h340q-274 163 -290 660q27 847 638 847q610 0 634 -847q-14 -498 -288 -660h338v-163h-609v163z" />
    <glyph glyph-name="Iotadieresis" unicode="&#x3aa;" horiz-adv-x="562" 
d="M366 1634v-1634h-171v1634h171zM233.5 1966q36.5 -35 36.5 -83q0 -45 -36.5 -79t-89.5 -34q-49 0 -85 34t-36 79q0 48 36 83t85 35q53 0 89.5 -35zM503 1966q36 -35 36 -83q0 -45 -36 -79t-87 -34q-53 0 -88.5 34.5t-35.5 78.5q0 48 35.5 83t88.5 35q51 0 87 -35z" />
    <glyph glyph-name="Upsilondieresis" unicode="&#x3ab;" horiz-adv-x="1262" 
d="M583.5 1966q36.5 -35 36.5 -83q0 -45 -36.5 -79t-89.5 -34q-49 0 -85 34t-36 79q0 48 36 83t85 35q53 0 89.5 -35zM853 1966q36 -35 36 -83q0 -45 -36 -79t-87 -34q-53 0 -88.5 34.5t-35.5 78.5q0 48 35.5 83t88.5 35q51 0 87 -35zM716 0h-171v834l-445 800h193l338 -615
l338 615h193l-446 -800v-834z" />
    <glyph glyph-name="alphatonos" unicode="&#x3ac;" horiz-adv-x="1345" 
d="M1001 305q-73 -329 -438 -329q-450 0 -488 646q12 670 488 670q374 0 441 -321l113 300l158 -76l-207 -561l207 -561l-159 -76zM872 651v1q-16 473 -309 473q-302 0 -313 -496q26 -477 313 -477q284 0 309 463v3q1 5 1 10q0 11 -1 23zM462 1395l129 315h285l-258 -317z
" />
    <glyph glyph-name="epsilontonos" unicode="&#x3ad;" horiz-adv-x="987" 
d="M364 1395l130 315h285l-258 -317zM698 585h-311q-116 -89 -116 -228v-10q5 -145 166 -187q51 -14 103 -14q121 0 276 83l101 -137q-234 -109 -406 -109q-104 0 -193 37q-238 98 -243 321v13q0 195 132 302q-131 85 -131 264q0 197 197 301q83 44 188 44q143 0 341 -89
l-74 -160q-157 85 -258 85q-42 0 -79 -13q-119 -42 -119 -163t119 -163l307 -1v-176z" />
    <glyph glyph-name="etatonos" unicode="&#x3ae;" 
d="M829 -391v1019q1 30 1 58q0 392 -224 417h-16q-243 0 -290 -264v-839h-175v1247h177v-113q54 126 290 126h5q406 0 407 -555q0 -25 -1 -52v-1044h-174zM365 1395l130 315h285l-258 -317z" />
    <glyph glyph-name="iotatonos" unicode="&#x3af;" horiz-adv-x="907" 
d="M536 -3h-177v1249h177v-1249zM300 1395l130 315h285l-258 -317z" />
    <glyph glyph-name="upsilondieresistonos" unicode="&#x3b0;" horiz-adv-x="1177" 
d="M853 1247h174v-1247h-176v113q-54 -126 -291 -126q-410 0 -410 606v654h174v-627q0 -476 221 -476h17q243 0 291 264v839zM448 1581q36 -35 36 -83q0 -45 -36.5 -79t-89.5 -34q-48 0 -84.5 34t-36.5 79q0 47 36 82.5t85 35.5q54 0 90 -35zM922.5 1580.5
q35.5 -35.5 35.5 -82.5q0 -45 -36 -79t-87 -34q-53 0 -88.5 34t-35.5 79q0 47 35.5 82.5t88.5 35.5q52 0 87.5 -35.5zM497 1395l3 315h279l-138 -317z" />
    <glyph glyph-name="alpha" unicode="&#x3b1;" horiz-adv-x="1345" 
d="M1001 305q-73 -329 -438 -329q-450 0 -488 646q12 670 488 670q374 0 441 -321l113 300l158 -76l-207 -561l207 -561l-159 -76zM872 651v1q-16 473 -309 473q-302 0 -313 -496q26 -477 313 -477q284 0 309 463v3q1 5 1 10q0 11 -1 23z" />
    <glyph glyph-name="beta" unicode="&#x3b2;" horiz-adv-x="1041" 
d="M491 970q61 21 113 73q58 59 58 206q0 124 -60 185t-141 61q-84 0 -144.5 -61t-60.5 -197v-1628h-166v1615q0 135 25 196q26 68 82 125q65 62 143 89q55 17 119 17q154 0 261 -107t107 -295q0 -241 -137 -344q46 -20 118 -89q143 -146 143 -347q0 -252 -190 -391
q-127 -92 -309 -92q-94 0 -173 32l67 159q51 -35 121 -35q101 0 181 54q136 91 136 273q0 137 -96 236q-75 74 -168 102h-168v163h139z" />
    <glyph glyph-name="gamma" unicode="&#x3b3;" horiz-adv-x="1262" 
d="M716 -391h-171v839l-445 800h193l338 -615l338 615h193l-446 -800v-839z" />
    <glyph glyph-name="delta" unicode="&#x3b4;" 
d="M875 639q-22 476 -310 476q-287 0 -313 -476q11 -497 313 -497q301 0 310 497zM612 1290q402 -24 440 -645q-16 -669 -489 -669q-476 0 -488 669q33 567 343 629l-284 360h834v-163h-493z" />
    <glyph glyph-name="epsilon" unicode="&#x3b5;" horiz-adv-x="987" 
d="M698 585h-311q-116 -89 -116 -228v-10q5 -145 166 -187q51 -14 103 -14q121 0 276 83l101 -137q-234 -109 -406 -109q-104 0 -193 37q-238 98 -243 321v13q0 195 132 302q-131 85 -131 264q0 197 197 301q83 44 188 44q143 0 341 -89l-74 -160q-157 85 -258 85
q-42 0 -79 -13q-119 -42 -119 -163t119 -163l307 -1v-176z" />
    <glyph glyph-name="zeta" unicode="&#x3b6;" horiz-adv-x="1012" 
d="M961 1634q-703 -851 -703 -1140q0 -20 4 -37q51 -271 284.5 -275.5t312.5 -65.5q63 -48 94 -130q6 -21 8 -44q1 -12 1 -24q0 -102 -53 -176.5t-159 -100.5q-29 -8 -62 -10l-13 -2q-17 -1 -63 -1v152q42 0 56 1h8q12 1 24 4q37 9 69 35q36 34 36 87v14q-1 8 -3 18
q-3 80 -311 87t-388 374q-8 37 -8 78q0 347 522 993h-492v163h836z" />
    <glyph glyph-name="eta" unicode="&#x3b7;" 
d="M829 -391v1019q1 30 1 58q0 392 -224 417h-16q-243 0 -290 -264v-839h-175v1247h177v-113q54 126 290 126h5q406 0 407 -555q0 -25 -1 -52v-1044h-174z" />
    <glyph glyph-name="theta" unicode="&#x3b8;" horiz-adv-x="1327" 
d="M268 736q25 -571 393 -571q370 0 398 571h-791zM268 898h792q-22 572 -399 572q-375 0 -393 -572zM90 761v112q29 768 573 768q548 0 574 -768v-112q-42 -768 -574 -768q-530 0 -573 768z" />
    <glyph glyph-name="iota" unicode="&#x3b9;" horiz-adv-x="873" 
d="M525 -3h-177v1249h177v-1249z" />
    <glyph glyph-name="kappa" unicode="&#x3ba;" horiz-adv-x="1165" 
d="M327 1249v-334l247 334h215l-183 -264l485 -985h-208l-409 814l-147 -185v-629h-177v1249h177z" />
    <glyph glyph-name="lambda" unicode="&#x3bb;" horiz-adv-x="1251" 
d="M413 1179l-222 455h192l798 -1634h-191l-459 938l-273 -938h-188z" />
    <glyph glyph-name="uni03BC" unicode="&#x3bc;" horiz-adv-x="1177" 
d="M327 518q23 -374 218 -374h17q243 0 291 264v839h174v-1247h-176v113q-54 -126 -291 -126q-183 0 -233 121v-499h-177v1638h174v-444l3 2v-287z" />
    <glyph glyph-name="nu" unicode="&#x3bd;" horiz-adv-x="1154" 
d="M1054 1255q-79 -859 -476 -1316q-438 585 -478 1317l179 -5q39 -644 301 -1018q260 374 288 1022h186z" />
    <glyph glyph-name="xi" unicode="&#x3be;" horiz-adv-x="1073" 
d="M384 1211q63 26 161 37l383 1v-169l-351 -1q-277 -11 -295 -391q0 -315 292 -414.5t367 -157.5q63 -49 84 -131q5 -20 7 -43q1 -12 1 -24q0 -103 -73 -188q-63 -72 -146 -99q-31 -7 -64 -9l-13 -2q-17 -2 -63 -2v162q42 0 56 1h8q12 1 24 4q37 9 69 35q36 34 36 87
q0 7 -1 14q0 8 -3 18v6q0 73 -327 171q-416 112 -421 551v15q0 302 127 426q-3 3 -21 24q-57 67 -57 170q0 17 2 35q10 125 123 220q103 77 245 77h394v-169h-402q-60 0 -116 -29q-72 -44 -78 -120q-1 -7 -1 -12q0 -64 53 -93z" />
    <glyph glyph-name="omicron" unicode="&#x3bf;" 
d="M873 639q-22 476 -310 476q-287 0 -313 -476q11 -497 313 -497q301 0 310 497zM563 1292q449 0 489 -647q-16 -669 -489 -669q-476 0 -488 669q38 647 488 647z" />
    <glyph glyph-name="pi" unicode="&#x3c0;" horiz-adv-x="1490" 
d="M540 1080v-1083h-177v1083h-343v169h1450v-169h-345v-1083h-177v1083h-408z" />
    <glyph glyph-name="rho" unicode="&#x3c1;" horiz-adv-x="1157" 
d="M557 1122q-227 0 -230 -325v-384q45 -264 288 -264h18q262 0 262 476v82q-19 415 -338 415zM150 833q20 460 405 460q463 0 499 -577q3 -60 3 -116q0 -606 -440 -606q-236 0 -290 66v-442h-177v1215z" />
    <glyph glyph-name="sigma1" unicode="&#x3c2;" horiz-adv-x="1104" 
d="M257 689q0 -316 292 -415.5t367 -157.5q64 -49 84 -131q5 -20 8 -43q1 -12 1 -24q0 -103 -73 -188q-63 -72 -147 -99q-31 -7 -64 -9l-13 -2q-17 -2 -62 -2v162q42 0 55 1h8q12 1 24 4q38 9 69 35q37 34 37 87q0 7 -1 14q-1 8 -3 18v6q0 73 -318 171q-416 112 -421 551v9
q0 573 734 573h69v-168q-646 -14 -646 -392z" />
    <glyph glyph-name="sigma" unicode="&#x3c3;" horiz-adv-x="1339" 
d="M873 639q-22 476 -310 476q-287 0 -313 -476q11 -497 313 -497q301 0 310 497zM946 1080q87 -122 106 -435q-16 -669 -489 -669q-476 0 -488 669q38 647 488 647q120 0 203 -43h522v-169h-342z" />
    <glyph glyph-name="tau" unicode="&#x3c4;" horiz-adv-x="906" 
d="M540 1080v-1083h-177v1083h-343v169h866v-169h-346z" />
    <glyph glyph-name="upsilon" unicode="&#x3c5;" horiz-adv-x="1177" 
d="M853 1247h174v-1247h-176v113q-54 -126 -291 -126q-410 0 -410 606v654h174v-627q0 -476 221 -476h17q243 0 291 264v839z" />
    <glyph glyph-name="phi" unicode="&#x3c6;" horiz-adv-x="1423" 
d="M249 708q0 -23 2 -49q0 -142 184 -218q96 -40 187 -47v395q-14 293 -150 293q-17 0 -36 -4q-184 -39 -187 -370zM622 219q-110 9 -236 56q-316 99 -316 463q0 70 12 147v26q104 337 402 340h4q301 0 310 -461v-398q44 2 126 15q256 40 256 299q0 18 -1 36
q-18 291 -312 301l1 171q469 -15 484 -449q1 -17 1 -34q0 -399 -328 -480q-131 -32 -227 -35v-607h-176v610z" />
    <glyph glyph-name="chi" unicode="&#x3c7;" horiz-adv-x="1262" 
d="M70 -391l464 850l-434 789h193l338 -614l338 614h193l-435 -789l465 -850h-193l-368 675l-368 -675h-193z" />
    <glyph glyph-name="psi" unicode="&#x3c8;" horiz-adv-x="1427" 
d="M806 393q39 2 117 14q255 40 255 299v542h174v-517q0 -399 -327 -480q-126 -31 -219 -35v-607h-185v607q-93 4 -219 35q-327 81 -327 480v517h174v-542q0 -259 255 -299q78 -12 117 -14v855h185v-855z" />
    <glyph glyph-name="omega" unicode="&#x3c9;" horiz-adv-x="1778" 
d="M796 447v485h185v-485q9 -57 19 -86q67 -195 256 -195q187 0 256 195q24 78 24 185q0 257 -153 702h186q154 -437 154 -714q0 -171 -56 -289q-132 -254 -411 -254q-262 0 -367 177q-105 -177 -366 -177q-280 0 -412 254q-56 118 -56 289q0 277 154 714h186
q-153 -445 -153 -702q0 -107 24 -185q68 -195 257 -195q188 0 255 195q9 29 19 86h-1z" />
    <glyph glyph-name="iotadieresis" unicode="&#x3ca;" horiz-adv-x="864" 
d="M520 -3h-176v1249h176v-1249zM384.5 1581q36.5 -35 36.5 -83q0 -45 -36.5 -79t-89.5 -34q-49 0 -85 34t-36 79q0 47 36 82.5t85 35.5q53 0 89.5 -35zM654 1580.5q36 -35.5 36 -82.5q0 -45 -36 -79t-87 -34q-53 0 -88.5 34t-35.5 79q0 47 35.5 82.5t88.5 35.5
q51 0 87 -35.5z" />
    <glyph glyph-name="upsilondieresis" unicode="&#x3cb;" horiz-adv-x="1177" 
d="M853 1247h174v-1247h-176v113q-54 -126 -291 -126q-410 0 -410 606v654h174v-627q0 -476 221 -476h17q243 0 291 264v839zM541.5 1581q36.5 -35 36.5 -83q0 -45 -36.5 -79t-89.5 -34q-49 0 -85 34t-36 79q0 47 36 82.5t85 35.5q53 0 89.5 -35zM811 1580.5
q36 -35.5 36 -82.5q0 -45 -36 -79t-87 -34q-53 0 -88.5 34t-35.5 79q0 47 35.5 82.5t88.5 35.5q51 0 87 -35.5z" />
    <glyph glyph-name="omicrontonos" unicode="&#x3cc;" 
d="M873 639q-22 476 -310 476q-287 0 -313 -476q11 -497 313 -497q301 0 310 497zM563 1292q449 0 489 -647q-16 -669 -489 -669q-476 0 -488 669q38 647 488 647zM364 1395l130 315h285l-258 -317z" />
    <glyph glyph-name="upsilontonos" unicode="&#x3cd;" horiz-adv-x="1177" 
d="M853 1247h174v-1247h-176v113q-54 -126 -291 -126q-410 0 -410 606v654h174v-627q0 -476 221 -476h17q243 0 291 264v839zM389 1395l130 315h285l-258 -317z" />
    <glyph glyph-name="omegatonos" unicode="&#x3ce;" horiz-adv-x="1778" 
d="M796 447v485h185v-485q9 -57 19 -86q67 -195 256 -195q187 0 256 195q24 78 24 185q0 257 -153 702h186q154 -437 154 -714q0 -171 -56 -289q-132 -254 -411 -254q-262 0 -367 177q-105 -177 -366 -177q-280 0 -412 254q-56 118 -56 289q0 277 154 714h186
q-153 -445 -153 -702q0 -107 24 -185q68 -195 257 -195q188 0 255 195q9 29 19 86h-1zM747 1395l130 315h285l-258 -317z" />
    <glyph glyph-name="afii10023" unicode="&#x401;" horiz-adv-x="1145" 
d="M150 1634h824v-167h-645v-541h452v-167h-452v-592h716v-167h-895v1634zM550.5 1966q36.5 -35 36.5 -83q0 -45 -36.5 -79t-89.5 -34q-49 0 -85 34t-36 79q0 48 36 83t85 35q53 0 89.5 -35zM820 1966q36 -35 36 -83q0 -45 -36 -79t-87 -34q-53 0 -88.5 34.5t-35.5 78.5
q0 48 35.5 83t88.5 35q51 0 87 -35z" />
    <glyph glyph-name="afii10051" unicode="&#x402;" horiz-adv-x="1462" 
d="M978 157h16q224 24 224 473q0 448 -224 473h-16q-232 0 -285 -240v-863h-172l1 1472h-452v163h1076v-163h-453v-346q54 134 287 134h5q407 0 407 -630t-407 -630h-5q-95 0 -205 32l95 140q61 -15 108 -15z" />
    <glyph glyph-name="afii10052" unicode="&#x403;" horiz-adv-x="1038" 
d="M963 1633v-163h-642v-1470h-171v1634h171v-1h642zM438 1780l130 315h285l-258 -316z" />
    <glyph glyph-name="afii10053" unicode="&#x404;" horiz-adv-x="1448" 
d="M273 752q21 -606 447 -606q338 0 427 427h188q-113 -595 -611 -595q-612 0 -639 845q27 847 639 847q469 0 599 -535h-189q-101 364 -414 364q-418 0 -445 -584h839v-163h-841z" />
    <glyph glyph-name="afii10054" unicode="&#x405;" horiz-adv-x="1338" 
d="M846 1302q-52 182 -240 208l-10 1q-18 2 -34 2q-60 0 -117 -29q-72 -43 -86 -131v-16q0 -123 137 -156q168 -41 390.5 -101.5t302.5 -204.5q49 -86 49 -221q0 -57 -9 -124l-9 -62q-121 -474 -553 -474q-44 0 -93 5q-474 68 -474 635q0 37 3 101h187q-4 -68 -4 -107
q0 -423 311 -468q32 -4 63 -4q298 0 386 333q6 32 10 65q6 45 6 83q0 78 -23 130q-43 90 -144.5 127t-340 90.5t-317.5 147.5q-66 78 -66 190q0 21 2 43q20 147 143 241q102 76 244 76q29 0 62 -3l18 -3q329 -43 358 -374h-152z" />
    <glyph glyph-name="afii10055" unicode="&#x406;" horiz-adv-x="571" 
d="M371 1634v-1634h-171v1634h171z" />
    <glyph glyph-name="afii10056" unicode="&#x407;" horiz-adv-x="562" 
d="M366 1634v-1634h-171v1634h171zM233.5 1966q36.5 -35 36.5 -83q0 -45 -36.5 -79t-89.5 -34q-49 0 -85 34t-36 79q0 48 36 83t85 35q53 0 89.5 -35zM503 1966q36 -35 36 -83q0 -45 -36 -79t-87 -34q-53 0 -88.5 34.5t-35.5 78.5q0 48 35.5 83t88.5 35q51 0 87 -35z" />
    <glyph glyph-name="afii10057" unicode="&#x408;" horiz-adv-x="608" 
d="M-150 -259q359 2 379 293v1600h179v-1544q0 -517 -558 -522v173z" />
    <glyph glyph-name="afii10058" unicode="&#x409;" horiz-adv-x="1888" 
d="M1206 165q406 0 406 298q0 294 -406 294h-139v-592h139zM1068 926h139q580 0 580 -463t-572 -463h-324v1470h-534v-1007q0 -349 -280 -482l-37 177q126 81 138 249v1227h179v-1h534v1h177v-708z" />
    <glyph glyph-name="afii10059" unicode="&#x40a;" horiz-adv-x="1862" 
d="M1180 165q406 0 406 298q0 294 -406 294h-138v-592h138zM1047 926h135q580 0 580 -463t-572 -463h-325v752h-594v-752h-171v1634h171v-719h594v719h182v-708z" />
    <glyph glyph-name="afii10060" unicode="&#x40b;" horiz-adv-x="1462" 
d="M522 1472h-452v163h1076v-163h-453v-346q54 134 287 134h5q407 0 407 -555q0 -25 -1 -52v-653h-174v628q1 30 1 58q0 392 -224 417h-16q-232 0 -285 -240v-863h-171v1472z" />
    <glyph glyph-name="afii10061" unicode="&#x40c;" horiz-adv-x="1403" 
d="M1008 229l-364 682l-273 -374v-537h-171v1634h171v-811l421 575l-3 2q190 240 459 241v-172q-185 -1 -291 -129l-201 -276l405 -762q81 -126 233 -128v-172q-252 2 -386 227zM503 1780l130 315h284l-257 -316z" />
    <glyph glyph-name="afii10062" unicode="&#x40e;" horiz-adv-x="1361" 
d="M1168 1634h193l-675 -1404q-135 -226 -387 -228v172q153 2 233 128l50 107h11l-593 1225h194l485 -1018zM489 2018q65 -82 179 -90h24q114 8 180 90h165q-97 -238 -346 -253h-25q-247 15 -341 253h164z" />
    <glyph glyph-name="afii10145" unicode="&#x40f;" horiz-adv-x="1308" 
d="M566 1h-245v-1h-171v1634h171v-1470h666v1470h171v-1634h-171v1h-244v-392h-177v392z" />
    <glyph glyph-name="afii10017" unicode="&#x410;" horiz-adv-x="1381" 
d="M456 582l-177 -582h-179l500 1634h182l499 -1634h-177l-179 582h-469zM506 745h370l-185 605z" />
    <glyph glyph-name="afii10018" unicode="&#x411;" horiz-adv-x="1087" 
d="M465 165q406 0 406 298q0 294 -406 294h-138v-592h138zM327 1470v-544h140q580 0 580 -463t-572 -463h-325v1634h177v-1h636v-163h-636z" />
    <glyph glyph-name="afii10019" unicode="&#x412;" horiz-adv-x="1240" 
d="M150 0v1634l377 -2q427 0 451 -374v-20q0 -224 -162 -293q308 -104 324 -466q-16 -479 -573 -479h-417zM327 1010h320q162 41 162 239q-11 205 -259 218h-223v-457zM327 167h262q376 0 376 331q-15 339 -405 339h-233v-670z" />
    <glyph glyph-name="afii10020" unicode="&#x413;" horiz-adv-x="1038" 
d="M963 1633v-163h-642v-1470h-171v1634h171v-1h642z" />
    <glyph glyph-name="afii10021" unicode="&#x414;" horiz-adv-x="1222" 
d="M299 163h604v1307h-541v-1007q0 -213 -63 -300zM1076 119h72v-510h-177v391h-818v-391h-177v510q196 120 208 288v1227h178v-1h541v1h171z" />
    <glyph glyph-name="afii10022" unicode="&#x415;" horiz-adv-x="1145" 
d="M150 1634h824v-167h-645v-541h452v-167h-452v-592h716v-167h-895v1634z" />
    <glyph glyph-name="afii10024" unicode="&#x416;" horiz-adv-x="2297" 
d="M1234 823l421 575l-3 2q190 240 459 241v-172q-185 -1 -290 -129l-202 -276l405 -762q81 -126 233 -128v-172q-252 2 -386 227l-363 682l-274 -374v-537h-171v537l-273 374l-364 -682q-134 -225 -386 -227v172q152 2 233 128l405 762l-201 276q-106 128 -291 129v172
q269 -1 460 -241l-3 -2l420 -575v811h171v-811z" />
    <glyph glyph-name="afii10025" unicode="&#x417;" horiz-adv-x="1324" 
d="M801 886q201 78 201 254q0 231 -293 291q-73 15 -145 15q-211 0 -410 -147l-79 144q245 178 517 178q102 0 209 -25q386 -90 386 -452v-9q-3 -222 -171 -327q168 -105 171 -326v-9q0 -363 -386 -453q-107 -25 -209 -25q-272 0 -517 178l79 144q199 -147 410 -147
q72 0 145 15q293 60 293 292q0 169 -184 246h-441v163h424z" />
    <glyph glyph-name="afii10026" unicode="&#x418;" horiz-adv-x="1364" 
d="M1239 1634v-1634h-171v1281l-804 -1281h-139v1634h171v-1263l784 1263h159z" />
    <glyph glyph-name="afii10027" unicode="&#x419;" horiz-adv-x="1364" 
d="M1239 1634v-1634h-171v1281l-804 -1281h-139v1634h171v-1263l784 1263h159zM517 2018q65 -82 178 -90h24q114 8 180 90h165q-97 -238 -345 -253h-26q-246 15 -341 253h165z" />
    <glyph glyph-name="afii10028" unicode="&#x41a;" horiz-adv-x="1403" 
d="M1008 229l-364 682l-273 -374v-537h-171v1634h171v-811l421 575l-3 2q190 240 459 241v-172q-185 -1 -291 -129l-201 -276l405 -762q81 -126 233 -128v-172q-252 2 -386 227z" />
    <glyph glyph-name="afii10029" unicode="&#x41b;" horiz-adv-x="1228" 
d="M87 -19l-37 177q126 81 138 249v1227h179v-1h540v1h171v-1634h-171v1470h-540v-1007q0 -349 -280 -482z" />
    <glyph glyph-name="afii10030" unicode="&#x41c;" horiz-adv-x="1674" 
d="M1354 1609v25h170v-1634h-170v1291l-420 -671h-199l-414 663v-1279h-171v1633h159l527 -858z" />
    <glyph glyph-name="afii10031" unicode="&#x41d;" horiz-adv-x="1297" 
d="M175 1634h171v-719h605v719h171v-1634h-171v752h-605v-752h-171v1634z" />
    <glyph glyph-name="afii10032" unicode="&#x41e;" horiz-adv-x="1442" 
d="M273 823q8 -677 449 -677q437 0 451 677q-14 676 -451 676q-441 0 -449 -676zM85 823q27 847 639 847q609 0 633 -847q-24 -845 -633 -845q-612 0 -639 845z" />
    <glyph glyph-name="afii10033" unicode="&#x41f;" horiz-adv-x="1308" 
d="M321 1470v-1470h-171v1634h171v-1h666v1h171v-1634h-171v1470h-666z" />
    <glyph glyph-name="afii10034" unicode="&#x420;" horiz-adv-x="1147" 
d="M327 707v-707h-177v1634h325q572 0 572 -463q0 -464 -580 -464h-140zM327 1469v-593h138q406 0 406 295q0 298 -406 298h-138z" />
    <glyph glyph-name="afii10035" unicode="&#x421;" horiz-adv-x="1353" 
d="M1018 1257q-65 242 -308 242q-444 -15 -444 -666v-10q3 -663 401 -680q427 28 447 539h183q-29 -671 -627 -706q-585 13 -585 843v6q2 834 627 845q379 0 461 -412z" />
    <glyph glyph-name="afii10036" unicode="&#x422;" horiz-adv-x="1216" 
d="M693 1472v-1472h-171v1472h-452v163h1076v-163h-453z" />
    <glyph glyph-name="afii10037" unicode="&#x423;" horiz-adv-x="1361" 
d="M1168 1634h193l-675 -1404q-135 -226 -387 -228v172q153 2 233 128l50 107h11l-593 1225h194l485 -1018z" />
    <glyph glyph-name="afii10038" unicode="&#x424;" horiz-adv-x="1718" 
d="M773 1226q-493 -34 -493 -407q0 -374 493 -411v818zM944 1227v-819q494 28 494 411q0 380 -494 408zM773 1394v240h171v-239q674 -38 674 -578q0 -544 -674 -579v-238h-171v239q-673 50 -673 578q0 526 673 577z" />
    <glyph glyph-name="afii10039" unicode="&#x425;" horiz-adv-x="1263" 
d="M70 0l464 844l-434 790h193l338 -615l338 615h193l-435 -790l465 -844h-193l-368 669l-368 -669h-193z" />
    <glyph glyph-name="afii10040" unicode="&#x426;" horiz-adv-x="1304" 
d="M1101 0h-66v1h-764v-1h-171v1634h171v-1470h764v1470h170v-1515h73v-510h-177v391z" />
    <glyph glyph-name="afii10041" unicode="&#x427;" horiz-adv-x="1238" 
d="M873 1635h175v-1635h-177v501q-54 -125 -290 -125q-401 0 -401 503v756h174v-736q0 -366 211 -366h18q242 0 290 263v839z" />
    <glyph glyph-name="afii10042" unicode="&#x428;" horiz-adv-x="1851" 
d="M1012 1634v-1470h568v1470h171v-1634h-171v1h-568v-1h-172v1h-569v-1h-171v1634h171v-1470h569v1470h172z" />
    <glyph glyph-name="afii10043" unicode="&#x429;" horiz-adv-x="1849" 
d="M1751 119h72v-510h-176v391h-67v1h-568v-1h-172v1h-569v-1h-171v1634h171v-1470h569v1470h172v-1470h568v1470h171v-1515z" />
    <glyph glyph-name="afii10044" unicode="&#x42a;" horiz-adv-x="1663" 
d="M981 165q406 0 406 298q0 294 -406 294h-138v-592h138zM843 926h140q580 0 580 -463t-572 -463h-325v1470h-636v163h636v1h177v-708z" />
    <glyph glyph-name="afii10045" unicode="&#x42b;" horiz-adv-x="1544" 
d="M467 926q580 0 580 -463t-572 -463h-325v1634h177v-708h140zM465 165q406 0 406 298q0 294 -406 294h-138v-592h138zM1344 1634v-1634h-171v1634h171z" />
    <glyph glyph-name="afii10046" unicode="&#x42c;" horiz-adv-x="1147" 
d="M467 926q580 0 580 -463t-572 -463h-325v1634h177v-708h140zM465 165q406 0 406 298q0 294 -406 294h-138v-592h138z" />
    <glyph glyph-name="afii10047" unicode="&#x42d;" horiz-adv-x="1448" 
d="M306 752v163h839q-27 584 -445 584q-313 0 -414 -364h-189q130 535 600 535q611 0 638 -847q-27 -845 -638 -845q-499 0 -612 595h188q89 -427 427 -427q426 0 447 606h-841z" />
    <glyph glyph-name="afii10048" unicode="&#x42e;" horiz-adv-x="1967" 
d="M734 823q7 -677 448 -677q438 0 451 677q-13 676 -451 676q-441 0 -448 -676zM549 752h-203v-752h-171v1634h171v-719h204q48 755 634 755q609 0 633 -847q-24 -845 -633 -845q-595 0 -635 774z" />
    <glyph glyph-name="afii10049" unicode="&#x42f;" horiz-adv-x="1211" 
d="M893 876v593h-138q-406 0 -406 -298q0 -295 391 -295h153zM110 0l384 737q-321 73 -321 434q0 463 572 463h325v-1634h-177v707h-140q-54 0 -81 3l-371 -710h-191z" />
    <glyph glyph-name="afii10065" unicode="&#x430;" horiz-adv-x="1099" 
d="M275 459q17 -281 283 -281h257v310q-44 263 -287 263q-254 -7 -254 -258q0 -17 1 -34zM989 0h-420q-455 0 -469 449v27q0 431 426 431q236 0 289 -118q-34 321 -284 328q-76 -1 -149 -50l-137 107q129 97 287 98q397 -9 457 -404v-868z" />
    <glyph glyph-name="afii10066" unicode="&#x431;" horiz-adv-x="1128" 
d="M874 639q-22 476 -309 476q-288 0 -314 -476q11 -497 314 -497q300 0 309 497zM329 1245q48 47 236 47q448 0 488 -647q-16 -669 -488 -669q-477 0 -488 673v-12h-6q46 992 392 992q11 0 21 -1q107 -9 191 -9q164 0 268 55v-199q-134 -24 -261 -24q-88 0 -186 10
q-4 1 -7 1q-115 0 -160 -217z" />
    <glyph glyph-name="afii10067" unicode="&#x432;" horiz-adv-x="902" 
d="M252 760q190 -1 204 -2q51 2 78 12q114 39 114 155q0 88 -138 155h-258v-320zM252 576v-410l236 2h1q156 40 160 179v10q0 134 -114 195q-35 19 -116 24h-167zM458 1248q136 -5 222 -51q141 -107 141 -277q0 -184 -124 -257q135 -111 135 -309v-13q-6 -228 -232 -329
q-91 -12 -192 -12h-333v1248h383z" />
    <glyph glyph-name="afii10068" unicode="&#x433;" horiz-adv-x="690" 
d="M227 1080v-1083h-177v1251l620 1v-169h-443zM190 1395l130 315h285l-258 -317z" />
    <glyph glyph-name="afii10069" unicode="&#x434;" horiz-adv-x="1309" 
d="M402 444v804h815v-1129h72v-510h-177v388h-72v3h-843v-391h-177v510q365 88 382 325zM1040 163v917h-461v-637q-5 -212 -85 -280h546z" />
    <glyph glyph-name="afii10070" unicode="&#x435;" horiz-adv-x="1161" 
d="M615 1110h-22q-18 2 -34 2q-168 0 -252 -207h537q-31 192 -229 205zM285 753q-3 -48 -3 -113q0 -504 288 -504h25q307 36 334 432h157q-42 -584 -536 -590q-349 18 -415 415q-27 157 -27 283q0 182 55 303q134 297 431 297q24 0 50 -2q337 -27 386 -521h-745z" />
    <glyph glyph-name="afii10072" unicode="&#x436;" horiz-adv-x="1836" 
d="M1006 720l209 282q104 207 362 250l52 -179q-159 0 -252 -152l-110 -150l320 -480q79 -116 236 -124l-52 -177q-248 41 -355 238l-259 396l-151 -190v-434h-176v434l-151 190l-259 -396q-107 -197 -356 -238l-51 177q157 8 236 124l319 480l-109 150q-93 152 -252 152
l52 179q258 -43 362 -250l209 -282v529h176v-529z" />
    <glyph glyph-name="afii10073" unicode="&#x437;" horiz-adv-x="987" 
d="M294 761l307 1q119 42 119 163t-119 163q-37 13 -79 13q-101 0 -258 -85l-74 160q198 89 341 89q105 0 188 -44q197 -104 197 -301q0 -179 -131 -264q132 -107 132 -302v-13q-5 -223 -243 -321q-89 -37 -193 -37q-172 0 -406 109l101 137q155 -83 276 -83q52 0 103 14
q161 42 166 187v10q0 139 -116 228h-311v176z" />
    <glyph glyph-name="afii10074" unicode="&#x438;" horiz-adv-x="1081" 
d="M277 -3h-177v1249h177v-899l521 899h183v-1249h-176v913l-528 -910v-3z" />
    <glyph glyph-name="afii10075" unicode="&#x439;" horiz-adv-x="1081" 
d="M277 -3h-177v1249h177v-899l521 899h183v-1249h-176v913l-528 -910v-3zM350 1633q65 -82 178 -90h24q114 8 180 90h165q-97 -238 -346 -253h-25q-247 15 -341 253h165z" />
    <glyph glyph-name="afii10076" unicode="&#x43a;" horiz-adv-x="1156" 
d="M908 290q78 -115 235 -123l-51 -177q-249 41 -356 238l-259 396l-150 -190v-434h-177v1249h177v-529l208 282q104 207 362 250l52 -179q-158 0 -252 -152l-100 -140z" />
    <glyph glyph-name="afii10077" unicode="&#x43b;" horiz-adv-x="1180" 
d="M289 1248h815v-1251h-177v1083h-462v-637q-9 -361 -404 -455l-51 175q262 44 279 281v804z" />
    <glyph glyph-name="afii10078" unicode="&#x43c;" horiz-adv-x="1246" 
d="M623 718l341 528h182v-1249h-177v940l-317 -504h-58l-317 504v-940h-177v1249h182z" />
    <glyph glyph-name="afii10079" unicode="&#x43d;" horiz-adv-x="1063" 
d="M988 0h-177v592h-559v-592h-177v1248h177v-488h559v488h177v-1248z" />
    <glyph glyph-name="afii10080" unicode="&#x43e;" 
d="M873 639q-22 476 -310 476q-287 0 -313 -476q11 -497 313 -497q301 0 310 497zM563 1292q449 0 489 -647q-16 -669 -489 -669q-476 0 -488 669q38 647 488 647z" />
    <glyph glyph-name="afii10081" unicode="&#x43f;" horiz-adv-x="1063" 
d="M252 1080v-1080h-177v1248h913v-1248h-177v1080h-559z" />
    <glyph glyph-name="afii10082" unicode="&#x440;" horiz-adv-x="1157" 
d="M576 1122q-113 0 -249 -49v-660q45 -264 288 -264h18q262 0 262 476v82q-19 415 -319 415zM150 1248h146q140 45 259 45q463 0 499 -577q3 -60 3 -116q0 -606 -440 -606q-236 0 -290 66v-442h-177v1630z" />
    <glyph glyph-name="afii10083" unicode="&#x441;" horiz-adv-x="1207" 
d="M550 1093q-139 0 -214 -184q-51 -124 -51 -290q0 -96 17 -206q42 -276 297 -276h15q304 35 314 431l179 -1q-15 -562 -505 -589q-17 -1 -34 -1q-347 0 -431 339q-37 150 -37 290q0 179 61 344q112 304 417 304h24q240 0 373 -210l-121 -112q-103 159 -256 163
q-23 0 -48 -2z" />
    <glyph glyph-name="afii10084" unicode="&#x442;" horiz-adv-x="906" 
d="M540 1080v-1083h-177v1083h-343v169h866v-169h-346z" />
    <glyph glyph-name="afii10085" unicode="&#x443;" 
d="M826 137q-54 -150 -291 -150q-410 0 -410 606v654h174v-627q0 -476 221 -476h17q243 0 291 264v839h174v-1224q-70 -385 -461 -395q-159 1 -287 98l137 108q73 -50 148 -51q247 7 287 294v60z" />
    <glyph glyph-name="afii10086" unicode="&#x444;" horiz-adv-x="1838" 
d="M1257 1122q-113 0 -249 -49v-660q45 -264 288 -264h17q263 0 263 476q0 39 -1 82q-18 415 -318 415zM262 707q-1 -43 -1 -82q0 -476 263 -476h18q242 0 288 264v660q-136 49 -249 49q-300 0 -319 -415zM977 1248q140 45 258 45q464 0 500 -577q3 -60 3 -116
q0 -606 -440 -606q-237 0 -290 66v-451h-178v451q-54 -66 -290 -66q-440 0 -440 606q0 56 3 116q36 577 499 577q118 0 259 -45h116z" />
    <glyph glyph-name="afii10087" unicode="&#x445;" horiz-adv-x="1115" 
d="M461 624l-411 624h192l316 -479l315 479h192l-411 -624l411 -624h-193l-314 478l-315 -478h-193z" />
    <glyph glyph-name="afii10088" unicode="&#x446;" horiz-adv-x="1086" 
d="M882 0h-807v1248h182v-1080h554v1080h177v-1123h71v-516h-177v391z" />
    <glyph glyph-name="afii10089" unicode="&#x447;" horiz-adv-x="1068" 
d="M968 1247v-1247h-177v501q-54 -125 -290 -125q-401 0 -401 503v368h174v-348q0 -366 211 -366h18q242 0 290 263v451h175z" />
    <glyph glyph-name="afii10090" unicode="&#x448;" horiz-adv-x="1599" 
d="M75 0v1248h177v-1080h456v1080h182v-1080h457v1080h177v-1248h-1449z" />
    <glyph glyph-name="afii10091" unicode="&#x449;" horiz-adv-x="1622" 
d="M1418 0h-1343v1248h177v-1080h456v1080h182v-1080h457v1080h177v-1123h71v-516h-177v391z" />
    <glyph glyph-name="afii10092" unicode="&#x44a;" horiz-adv-x="1273" 
d="M573 576v-410l236 2h1q156 40 160 218v12q0 165 -230 178h-167zM396 1080h-346v169l523 -1v-489l195 -1q379 -22 385 -365v-13q-6 -267 -232 -368q-91 -12 -193 -12h-155v-3h-177v1083z" />
    <glyph glyph-name="afii10093" unicode="&#x44b;" horiz-adv-x="1203" 
d="M252 759l195 -1q379 -22 385 -365v-13q-6 -267 -232 -368q-91 -12 -192 -12h-333v1248h177v-489zM252 576v-410l237 2q156 40 160 218v12q0 165 -230 178h-167zM1103 -3h-177v1249h177v-1249z" />
    <glyph glyph-name="afii10094" unicode="&#x44c;" horiz-adv-x="902" 
d="M252 759l195 -1q379 -22 385 -365v-13q-6 -267 -232 -368q-91 -12 -192 -12h-333v1248h177v-489zM252 576v-410l237 2q156 40 160 218v12q0 165 -230 178h-167z" />
    <glyph glyph-name="afii10095" unicode="&#x44d;" horiz-adv-x="1161" 
d="M886 905q-84 207 -252 207q-15 0 -33 -2h-23q-123 -8 -190 -107h-175q110 253 337 271q26 2 50 2q297 0 431 -297q55 -121 55 -303q0 -126 -27 -283q-67 -397 -415 -415q-494 6 -536 590h156q28 -396 334 -432h26q288 0 288 504q0 65 -3 113h-399v152h376z" />
    <glyph glyph-name="afii10096" unicode="&#x44e;" horiz-adv-x="1542" 
d="M1288 639q-22 476 -310 476q-287 0 -313 -476q11 -497 313 -497q301 0 310 497zM500 760q61 532 478 532q449 0 489 -647q-17 -669 -489 -669q-466 0 -486 616h-215v-592h-177v1248h177v-488h223z" />
    <glyph glyph-name="afii10097" unicode="&#x44f;" horiz-adv-x="902" 
d="M655 672v410h-258v-6q21 5 22 5q0 -1 -1 -1q-156 -40 -160 -218v-12q0 -165 229 -178h168zM325 511q-246 55 -250 344v13q5 267 232 368q91 12 192 12h333v-1248h-177v489l-141 1l-153 -490h-197z" />
    <glyph glyph-name="afii10071" unicode="&#x451;" horiz-adv-x="1161" 
d="M615 1110h-22q-18 2 -34 2q-168 0 -252 -207h537q-31 192 -229 205zM285 753q-3 -48 -3 -113q0 -504 288 -504h25q307 36 334 432h157q-42 -584 -536 -590q-349 18 -415 415q-27 157 -27 283q0 182 55 303q134 297 431 297q24 0 50 -2q337 -27 386 -521h-745zM548.5 1581
q36.5 -35 36.5 -83q0 -45 -36.5 -79t-89.5 -34q-49 0 -85 34t-36 79q0 47 36 82.5t85 35.5q53 0 89.5 -35zM818 1580.5q36 -35.5 36 -82.5q0 -45 -36 -79t-87 -34q-53 0 -88.5 34t-35.5 79q0 47 35.5 82.5t88.5 35.5q51 0 87 -35.5z" />
    <glyph glyph-name="afii10099" unicode="&#x452;" horiz-adv-x="1236" 
d="M870 737q0 366 -211 366h-18q-242 0 -290 -264v-839h-175v1310h-143v163h143v162h177v-162h506v-163h-506v-186q54 136 290 136q401 0 401 -504l2 -733q-9 -360 -399 -454l-51 175q262 43 277 280z" />
    <glyph glyph-name="afii10100" unicode="&#x453;" horiz-adv-x="690" 
d="M227 1080v-1083h-177v1251l620 1v-169h-443z" />
    <glyph glyph-name="afii10101" unicode="&#x454;" horiz-adv-x="1161" 
d="M683 905v-152h-398q-3 -48 -3 -113q0 -504 288 -504h25q307 36 334 432h157q-42 -584 -536 -590q-349 18 -415 415q-27 157 -27 283q0 182 55 303q134 297 431 297q24 0 50 -2q227 -18 337 -271h-175q-67 99 -190 107h-23q-18 2 -34 2q-168 0 -252 -207h376z" />
    <glyph glyph-name="afii10102" unicode="&#x455;" horiz-adv-x="1090" 
d="M675 966q-34 140 -163 161l-7 2q-12 2 -25 2q-37 0 -74 -17q-47 -27 -58 -87v-17q0 -77 89 -102q121 -34 294.5 -86t234.5 -173q34 -63 34 -156q0 -52 -10 -113l-8 -47q-104 -361 -433 -361q-44 0 -94 7q-365 64 -365 486q0 29 4 83h187q-5 -61 -5 -91q0 -288 205 -325
q28 -3 56 -3q200 0 269 232q6 23 10 49q7 38 7 70q0 49 -15 83q-28 64 -98 92.5t-254 75.5t-246 125q-50 62 -50 147q0 20 3 42q20 118 122 190q79 57 186 57q31 0 65 -5l13 -2q264 -44 283 -319h-157z" />
    <glyph glyph-name="afii10103" unicode="&#x456;" horiz-adv-x="664" 
d="M421 -3h-177v1249h177v-1249zM427.5 1713.5q36.5 -38.5 36.5 -89.5t-36.5 -89t-93.5 -38t-95.5 37.5t-38.5 89.5q0 51 38 89.5t96 38.5q57 0 93.5 -38.5z" />
    <glyph glyph-name="afii10104" unicode="&#x457;" horiz-adv-x="864" 
d="M520 -3h-176v1249h176v-1249zM384.5 1581q36.5 -35 36.5 -83q0 -45 -36.5 -79t-89.5 -34q-49 0 -85 34t-36 79q0 47 36 82.5t85 35.5q53 0 89.5 -35zM654 1580.5q36 -35.5 36 -82.5q0 -45 -36 -79t-87 -34q-53 0 -88.5 34t-35.5 79q0 47 35.5 82.5t88.5 35.5
q51 0 87 -35.5z" />
    <glyph glyph-name="afii10105" unicode="&#x458;" horiz-adv-x="676" 
d="M279 1246h176v-1223q-9 -361 -404 -454l-51 175q262 43 279 280v1222zM453.5 1712.5q38.5 -39.5 38.5 -90.5q0 -52 -38.5 -89.5t-95.5 -37.5q-56 0 -93 38t-37 89t37 90.5t93 39.5q57 0 95.5 -39.5z" />
    <glyph glyph-name="afii10106" unicode="&#x459;" horiz-adv-x="1753" 
d="M1104 576v-410l237 2q155 40 160 218v12q0 165 -230 178h-167zM927 1080h-462v-637q-9 -361 -404 -455l-51 175q262 44 279 281v804h815v-489l194 -1q380 -22 385 -365v-13q-5 -267 -231 -368q-91 -12 -193 -12h-155v-3h-177v1083z" />
    <glyph glyph-name="afii10107" unicode="&#x45a;" horiz-adv-x="1487" 
d="M837 576v-410l237 2q156 40 160 218v12q0 165 -229 178h-168zM660 760v488h177v-489l195 -1q380 -22 385 -365v-13q-5 -267 -232 -368q-91 -12 -192 -12h-333v592h-383v-592h-177v1248h177v-488h383z" />
    <glyph glyph-name="afii10108" unicode="&#x45b;" horiz-adv-x="1236" 
d="M176 1310h-143v163h143v162h177v-162h506v-163h-506v-176q54 126 290 126q401 0 401 -504v-756h-174v737q0 366 -211 366h-18q-242 0 -290 -264v-839h-175v1310z" />
    <glyph glyph-name="afii10109" unicode="&#x45c;" horiz-adv-x="1156" 
d="M908 290q78 -115 235 -123l-51 -177q-249 41 -356 238l-259 396l-150 -190v-434h-177v1249h177v-529l208 282q104 207 362 250l52 -179q-158 0 -252 -151l-90 -131zM382 1395l129 315h285l-257 -317z" />
    <glyph glyph-name="afii10110" unicode="&#x45e;" 
d="M826 113q-54 -126 -291 -126q-410 0 -410 606v654h174v-627q0 -476 221 -476h17q243 0 291 264v839h174v-1224q-70 -385 -461 -395q-159 1 -287 98l137 108q73 -50 148 -51q247 7 287 294v36zM406 1633q65 -82 178 -90h24q114 8 180 90h165q-97 -238 -345 -253h-26
q-246 15 -341 253h165z" />
    <glyph glyph-name="afii10193" unicode="&#x45f;" horiz-adv-x="1063" 
d="M443 0h-368v1248h177v-1079h559v1079h177v-1248h-368v-391h-177v391z" />
    <glyph glyph-name="afii10050" unicode="&#x490;" horiz-adv-x="1038" 
d="M964 1470h-642v-1470h-171v1634h171v-1h471v319h171v-482z" />
    <glyph glyph-name="afii10098" unicode="&#x491;" horiz-adv-x="784" 
d="M764 1080h-537v-1083h-177v1251l537 1v385h177v-554z" />
    <glyph glyph-name="Wgrave" unicode="&#x1e80;" horiz-adv-x="2033" 
d="M921 635q-174 441 -211 999h184q78 -863 417 -1383q342 520 416 1383h182q-61 -967 -598 -1686q-198 265 -292 467q-95 -201 -293 -467q-537 719 -601 1686h184q79 -863 417 -1384q106 159 195 385zM1007 1779l-257 316h284l130 -315z" />
    <glyph glyph-name="wgrave" unicode="&#x1e81;" horiz-adv-x="1618" 
d="M718 491q-105 273 -147 764h175q21 -326 97 -577q28 -90 61 -173q73 -165 144 -272q260 373 282 1022h188q-74 -859 -470 -1314q-163 190 -235 337q-71 -147 -236 -337q-396 455 -477 1314h176q39 -648 301 -1022q75 109 141 258zM799 1393l-258 317h285l130 -315z" />
    <glyph glyph-name="Wacute" unicode="&#x1e82;" horiz-adv-x="2033" 
d="M921 635q-174 441 -211 999h184q78 -863 417 -1383q342 520 416 1383h182q-61 -967 -598 -1686q-198 265 -292 467q-95 -201 -293 -467q-537 719 -601 1686h184q79 -863 417 -1384q106 159 195 385zM870 1780l130 315h285l-258 -316z" />
    <glyph glyph-name="wacute" unicode="&#x1e83;" horiz-adv-x="1618" 
d="M718 491q-105 273 -147 764h175q21 -326 97 -577q28 -90 61 -173q73 -165 144 -272q260 373 282 1022h188q-74 -859 -470 -1314q-163 190 -235 337q-71 -147 -236 -337q-396 455 -477 1314h176q39 -648 301 -1022q75 109 141 258zM662 1395l130 315h285l-258 -317z" />
    <glyph glyph-name="Wdieresis" unicode="&#x1e84;" horiz-adv-x="2033" 
d="M921 635q-174 441 -211 999h184q78 -863 417 -1383q342 520 416 1383h182q-61 -967 -598 -1686q-198 265 -292 467q-95 -201 -293 -467q-537 719 -601 1686h184q79 -863 417 -1384q106 159 195 385zM969.5 1966q36.5 -35 36.5 -83q0 -45 -36.5 -79t-89.5 -34
q-49 0 -85 34t-36 79q0 48 36 83t85 35q53 0 89.5 -35zM1239 1966q36 -35 36 -83q0 -45 -36 -79t-87 -34q-53 0 -88.5 34.5t-35.5 78.5q0 48 35.5 83t88.5 35q51 0 87 -35z" />
    <glyph glyph-name="wdieresis" unicode="&#x1e85;" horiz-adv-x="1618" 
d="M718 491q-105 273 -147 764h175q21 -326 97 -577q28 -90 61 -173q73 -165 144 -272q260 373 282 1022h188q-74 -859 -470 -1314q-163 190 -235 337q-71 -147 -236 -337q-396 455 -477 1314h176q39 -648 301 -1022q75 109 141 258zM762.5 1581q36.5 -35 36.5 -83
q0 -45 -37 -79t-89 -34q-49 0 -85 34t-36 79q0 47 35.5 82.5t85.5 35.5q53 0 89.5 -35zM1032 1580.5q36 -35.5 36 -82.5q0 -45 -36 -79t-87 -34q-53 0 -88.5 34t-35.5 79q0 47 35 82.5t89 35.5q51 0 87 -35.5z" />
    <glyph glyph-name="Ygrave" unicode="&#x1ef2;" horiz-adv-x="1262" 
d="M621 1779l-258 316h285l130 -315zM716 0h-171v834l-445 800h193l338 -615l338 615h193l-446 -800v-834z" />
    <glyph glyph-name="ygrave" unicode="&#x1ef3;" 
d="M554 1393l-258 317h285l129 -315zM821 48q-59 -61 -286 -61q-410 0 -410 606v654h174v-627q0 -476 221 -476h17q243 0 291 264v839h174v-1224q-70 -385 -461 -395q-159 1 -287 98l137 108q73 -50 148 -51q234 7 282 265z" />
    <glyph glyph-name="endash" unicode="&#x2013;" horiz-adv-x="1085" 
d="M52 788h979v-163h-979v163z" />
    <glyph glyph-name="emdash" unicode="&#x2014;" horiz-adv-x="1487" 
d="M0 788h1487v-163h-1487v163z" />
    <glyph glyph-name="afii00208" unicode="&#x2015;" horiz-adv-x="3075" 
d="M0 788h2202v-163h-2202v163z" />
    <glyph glyph-name="underscoredbl" unicode="&#x2017;" horiz-adv-x="1241" 
d="M-67 -275h1372v-163h-1372v163zM-67 5h1372v-163h-1372v163z" />
    <glyph glyph-name="quoteleft" unicode="&#x2018;" horiz-adv-x="435" 
d="M308 1504q3 -1 28 -26q49 -49 49 -119q0 -62 -48 -111.5t-119 -49.5q-72 0 -120 49.5t-48 111.5q0 63 42.5 135.5t192.5 227.5l25 -25l75 -83v-22q-61 -62 -77 -88z" />
    <glyph glyph-name="quoteright" unicode="&#x2019;" horiz-adv-x="435" 
d="M126 1403q-2 1 -27 26q-49 49 -49 119q0 62 48 111.5t119 49.5q72 0 120 -49.5t48 -111.5q0 -63 -42.5 -135.5t-192.5 -227.5l-25 25l-75 83v22q60 62 76 88z" />
    <glyph glyph-name="quotesinglbase" unicode="&#x201a;" horiz-adv-x="435" 
d="M126 -61q-2 1 -27 26q-49 49 -49 119q0 63 48 112t119 49q72 0 120 -49t48 -112t-42.5 -135.5t-192.5 -227.5l-25 25l-75 83v22q60 63 76 88z" />
    <glyph glyph-name="quotereversed" unicode="&#x201b;" horiz-adv-x="2298" 
d="M335 1315v-22l-75 -83l-25 -25q-150 155 -192.5 227.5t-42.5 135.5q0 62 48 111.5t120 49.5q71 0 119 -49.5t48 -111.5q0 -70 -49 -119q-25 -25 -28 -26q16 -26 77 -88z" />
    <glyph glyph-name="quotedblleft" unicode="&#x201c;" horiz-adv-x="766" 
d="M383 1334q-8 -47 -46 -86q-48 -50 -119 -50q-72 0 -120 49.5t-48 111.5q0 63 42.5 135.5t192.5 227.5l25 -25l75 -83v-22q-61 -62 -77 -88q3 -1 28 -26q39 -39 47 -91q7 51 41 108q42 72 192 227l25 -25l75 -83v-22q-60 -62 -76 -88q2 -1 27 -26q49 -49 49 -119
q0 -62 -48 -111.5t-119 -49.5q-72 0 -120 50q-38 39 -46 86z" />
    <glyph glyph-name="quotedblright" unicode="&#x201d;" horiz-adv-x="766" 
d="M383 1573q8 47 46 87q48 49 119 49q72 0 120 -49.5t48 -111.5q0 -63 -42.5 -135.5t-192.5 -227.5l-25 25l-75 83v22q61 62 77 88q-3 1 -28 26q-39 39 -47 91q-7 -51 -40 -107q-43 -73 -193 -228l-25 25l-75 83v22q60 62 76 88q-2 1 -27 26q-49 49 -49 119q0 62 48 111.5
t119 49.5q72 0 120 -49q38 -40 46 -87z" />
    <glyph glyph-name="quotedblbase" unicode="&#x201e;" horiz-adv-x="766" 
d="M383 153q8 48 46 87q48 49 119 49q72 0 120 -49t48 -112t-42.5 -135.5t-192.5 -227.5l-25 25l-75 83v22q61 63 77 88q-3 1 -28 26q-39 39 -47 91q-7 -51 -40 -107q-43 -73 -193 -228l-25 25l-75 83v22q60 63 76 88q-2 1 -27 26q-49 49 -49 119q0 63 48 112t119 49
q72 0 120 -49q38 -39 46 -87z" />
    <glyph glyph-name="bullet" unicode="&#x2022;" horiz-adv-x="1274" 
d="M854.5 1205q87.5 -90 87.5 -213q0 -124 -87.5 -212t-218.5 -88q-128 0 -216 88t-88 212q0 123 88 213t216 90q131 0 218.5 -90z" />
    <glyph glyph-name="ellipsis" unicode="&#x2026;" horiz-adv-x="2065" 
d="M337 278q48 -49 48 -115q0 -67 -48 -115t-120 -48q-71 0 -119 48t-48 115q0 66 48 115t119 49q72 0 120 -49zM1002.5 278q47.5 -49 47.5 -115q0 -67 -48 -115t-120 -48q-70 0 -118 48t-48 115q0 66 47.5 115t118.5 49q73 0 120.5 -49zM1668 278q48 -49 48 -115
q0 -67 -48 -115t-120 -48q-71 0 -119 48t-48 115q0 66 48 115t119 49q72 0 120 -49z" />
    <glyph glyph-name="perthousand" unicode="&#x2030;" horiz-adv-x="2461" 
d="M1371 1720l134 -103l-1192 -1704l-139 97zM609 1398.5q105 -105.5 105 -246.5q0 -149 -105.5 -250t-253.5 -101q-154 0 -254.5 101.5t-100.5 249.5q0 141 100.5 246.5t254.5 105.5q149 0 254 -105.5zM351 1349q-74 0 -131.5 -59t-57.5 -138q0 -84 57 -138t132 -54
q79 0 135.5 54t56.5 138q0 79 -57 138t-135 59zM1577 695q104 -105 104 -246q0 -149 -104 -250t-254 -101q-151 0 -253 101t-102 250q0 141 102 246t253 105q150 0 254 -105zM1319 646q-74 0 -131 -59t-57 -138q0 -84 56.5 -138t131.5 -54q80 0 136.5 54t56.5 138
q0 79 -56.5 138t-136.5 59zM2357 695q104 -105 104 -246q0 -149 -104 -250t-255 -101t-253 101t-102 250q0 141 102 246t253 105t255 -105zM2098 646q-74 0 -131 -59t-57 -138q0 -84 57 -138t131 -54q81 0 137.5 54t56.5 138q0 79 -57 138t-137 59z" />
    <glyph glyph-name="minute" unicode="&#x2032;" horiz-adv-x="399" 
d="M50 1632h300l-66 -632h-169z" />
    <glyph glyph-name="second" unicode="&#x2033;" horiz-adv-x="677" 
d="M338 1520l-54 -520h-169l-65 632h577l-66 -632h-170z" />
    <glyph glyph-name="guilsinglleft" unicode="&#x2039;" horiz-adv-x="704" 
d="M654 0h-194l-410 624l411 624h193l-412 -624z" />
    <glyph glyph-name="guilsinglright" unicode="&#x203a;" horiz-adv-x="704" 
d="M461 624l-411 624h192l412 -624l-411 -624h-193z" />
    <glyph glyph-name="exclamdbl" unicode="&#x203c;" horiz-adv-x="808" 
d="M337 278q48 -49 48 -115q0 -67 -48 -115t-120 -48q-71 0 -119 48t-48 115q0 66 48 115t119 49q72 0 120 -49zM306 429h-177v1266h177v-1266zM710 278q48 -49 48 -115q0 -67 -48 -115t-120 -48q-71 0 -119 48t-48 115q0 66 48 115t119 49q72 0 120 -49zM679 429h-177v1266
h177v-1266z" />
    <glyph glyph-name="uni203E" unicode="&#x203e;" horiz-adv-x="1241" 
d="M-67 1863h1372v-163h-1372v163z" />
    <glyph glyph-name="fraction" unicode="&#x2044;" horiz-adv-x="650" 
d="M750 1568l136 -96l-982 -1398l-141 92z" />
    <glyph glyph-name="franc" unicode="&#x20a3;" horiz-adv-x="1265" 
d="M289 503v1131h822v-167h-645v-541h452v-167h-452v-256h314v-163h-314v-340h-177v340h-136v163h136z" />
    <glyph glyph-name="lira" unicode="&#x20a4;" horiz-adv-x="1085" 
d="M217 693q-15 34 -56 111q-100 188 -100 344q0 177 131 313q175 181 372 181q80 0 161 -29q283 -103 299 -452h-180q-9 246 -189 298q-44 13 -85 13q-130 0 -241 -128q-73 -84 -73 -197q0 -117 77 -267q57 -112 87 -187h494v-163h-437q14 -45 17 -81h420v-163h-429
q-14 -72 -46 -122h522v-163h-752l-51 93q81 65 142 192h-193v163h195q-4 29 -21 81h-174v163h110z" />
    <glyph glyph-name="peseta" unicode="&#x20a7;" horiz-adv-x="2149" 
d="M1146 876v-322h173q20 -425 267 -428q251 7 285 279q2 24 2 50q0 99 -33 151q-37 57 -110.5 73.5t-263 33t-263.5 83.5q-37 34 -57 80zM315 1469v-593h122q362 0 362 295q0 298 -362 298h-122zM1146 420v-420h-174v1079h-14q-36 -372 -519 -372h-124v-707h-165v1634h295
q486 0 514 -386h13v273l174 4v-277h195q25 23 112 25h14q295 0 338 -320h-153q-51 159 -193 159h-7q-52 0 -97 -30q-43 -35 -44 -97q6 -91 118.5 -103t292 -35t260.5 -133q67 -88 67 -262v-48q-50 -424 -461 -433q-374 3 -442 449z" />
    <glyph glyph-name="Euro" unicode="&#x20ac;" horiz-adv-x="1265" 
d="M365 679q7 -519 333 -536q358 28 376 539h164q-24 -670 -537 -706q-499 13 -503 703h-172l33 163h148q4 36 8 62h-144l32 163h143q131 594 573 603q328 0 398 -412l-141 -1q-56 242 -257 242q-297 -12 -399 -432h514l-33 -163h-515q-5 -32 -9 -62h512l-32 -163h-492z" />
    <glyph glyph-name="trademark" unicode="&#x2122;" horiz-adv-x="1239" 
d="M507 1522h-114v-588h-140v588h-203v127h576l221 -319l201 286v32h141v-715h-141v447l-139 -198h-127l-135 195v-442h-140v587z" />
    <glyph glyph-name="Omega" unicode="&#x2126;" horiz-adv-x="1440" 
d="M797 163h49q312 85 323 660q-13 676 -451 676q-440 0 -448 -676q6 -574 318 -660h83v-163h-637v163h340q-274 163 -290 660q27 847 638 847q610 0 634 -847q-14 -498 -288 -660h338v-163h-609v163z" />
    <glyph glyph-name="oneeighth" unicode="&#x215b;" horiz-adv-x="1588" 
d="M180 1330l-150 -1l337 403v-1139h-187v737zM1076 1568l136 -96l-983 -1398l-140 92zM994 367q15 -207 185 -207q171 0 187 207q-6 218 -187 218q-179 0 -185 -218zM1059 818q7 -59 121 -59q116 0 125 59q-4 60 -125 60q-119 0 -121 -60zM1369 671q182 -28 189 -309
q-30 -366 -379 -366q-347 0 -378 366q10 281 194 311q-106 2 -124 140q11 223 309 223q301 0 308 -223q-13 -139 -119 -142z" />
    <glyph glyph-name="threeeighths" unicode="&#x215c;" horiz-adv-x="1763" 
d="M1282 1568l135 -96l-982 -1398l-141 92zM407 1244l-82 -104l-139 107l151 227h-193l-1 160h397l77 -75l-110 -158q184 0 253 -196q23 -69 23 -141q0 -119 -64 -248q-108 -219 -325 -220q-2 -1 -18 -1q-235 0 -346 310l175 40q81 -183 172 -183h11q103 8 163 136
q43 90 43 167q0 47 -15 89q-33 90 -172 90zM1169 367q14 -207 184 -207q171 0 187 207q-6 218 -187 218q-179 0 -184 -218zM1233 818q7 -59 121 -59q117 0 125 59q-4 60 -125 60q-118 0 -121 -60zM1543 671q183 -28 189 -309q-29 -366 -379 -366q-346 0 -378 366
q11 281 194 311q-106 2 -124 140q11 223 309 223q301 0 309 -223q-14 -139 -120 -142z" />
    <glyph glyph-name="fiveeighths" unicode="&#x215d;" horiz-adv-x="1793" 
d="M1312 1568l135 -96l-982 -1398l-141 92zM1199 367q14 -207 185 -207q170 0 186 207q-6 218 -186 218t-185 -218zM1263 818q8 -59 122 -59q116 0 124 59q-4 60 -124 60q-119 0 -122 -60zM1573 671q183 -28 189 -309q-29 -366 -378 -366q-347 0 -379 366q11 281 194 311
q-106 2 -124 140q11 223 310 223q300 0 308 -223q-13 -139 -120 -142zM323 1473l-50 -136q482 -21 506 -235q4 -26 4 -53q0 -159 -114 -296q-135 -161 -326 -161h-8q-213 5 -305 449l189 30q50 -287 127 -304q11 -3 21 -3q66 0 144 85q84 90 84 185q0 19 -3 39
q-16 96 -408 107l-134 74l136 378h480l2 -159h-345z" />
    <glyph glyph-name="seveneighths" unicode="&#x215e;" horiz-adv-x="1658" 
d="M1178 1568l135 -96l-982 -1398l-141 92zM1065 367q14 -207 185 -207q170 0 186 207q-6 218 -186 218t-185 -218zM1129 818q8 -59 122 -59q116 0 124 59q-4 60 -124 60q-119 0 -122 -60zM1439 671q183 -28 189 -309q-29 -366 -378 -366q-347 0 -379 366q11 281 194 311
q-106 2 -124 140q11 223 310 223q300 0 308 -223q-14 -139 -120 -142zM519 1474h-488l-1 160h673q10 -85 10 -126q0 -163 -191 -457t-191 -456h-192q0 206 190 496t190 383z" />
    <glyph glyph-name="arrowleft" unicode="&#x2190;" horiz-adv-x="2032" 
d="M296 706h1686v-163h-1687l164 -250h-194l-215 331l216 331h192z" />
    <glyph glyph-name="arrowup" unicode="&#x2191;" horiz-adv-x="770" 
d="M470 1347v-1684h-171v1684l-249 -163v190l334 218l336 -219v-189z" />
    <glyph glyph-name="arrowright" unicode="&#x2192;" horiz-adv-x="2032" 
d="M1574 955h192l216 -331l-215 -331h-193l163 250h-1687v163h1687z" />
    <glyph glyph-name="arrowdown" unicode="&#x2193;" horiz-adv-x="770" 
d="M720 65v-189l-336 -219l-334 218v190l249 -164v1685h171v-1685z" />
    <glyph glyph-name="arrowboth" unicode="&#x2194;" horiz-adv-x="2035" 
d="M1741 706l-163 249h192l216 -331l-215 -331h-193l164 250h-1447l164 -250h-194l-215 331l216 331h192l-162 -249h1445z" />
    <glyph glyph-name="arrowupdn" unicode="&#x2195;" horiz-adv-x="770" 
d="M470 -99l250 164v-189l-336 -219l-334 218v190l249 -164v1446l-249 -163v190l334 218l336 -219v-189l-250 163v-1446z" />
    <glyph glyph-name="arrowupdnbse" unicode="&#x21a8;" horiz-adv-x="770" 
d="M342 -316l-293 191v190l249 -164v1446l-249 -163v190l334 218l336 -219v-189l-250 163v-1446l250 164v-189l-295 -192h295v-163h-671v163h294z" />
    <glyph glyph-name="minus" unicode="&#x2212;" horiz-adv-x="1263" 
d="M108 587v163h1046v-163h-1046z" />
    <glyph glyph-name="approxequal" unicode="&#x2248;" horiz-adv-x="1277" 
d="M148 956q119 171 279 171q111 0 245 -80q132 -81 216 -81q72 0 125 116l116 -131q-117 -160 -268 -160q-112 0 -245 82q-132 79 -217 79q-78 0 -130 -133zM148 671q119 171 279 171q111 0 245 -80q132 -81 216 -81q72 0 125 117l116 -132q-117 -160 -268 -160
q-112 0 -245 82q-132 79 -217 79q-78 0 -130 -133z" />
    <glyph glyph-name="lessequal" unicode="&#x2264;" horiz-adv-x="1259" 
d="M1066 159l-1030 407v117l1187 468v-176l-927 -352l927 -350v-277h-1162v163h1005z" />
    <glyph glyph-name="greaterequal" unicode="&#x2265;" horiz-adv-x="1259" 
d="M36 273l927 350l-927 352v176l1187 -468v-117l-1030 -407h1005v-163h-1162v277z" />
    <glyph glyph-name="revlogicalnot" unicode="&#x2310;" horiz-adv-x="1263" 
d="M283 152h-175v598h1046v-163h-871v-435z" />
    <glyph glyph-name="uniF001" unicode="&#xf001;" horiz-adv-x="1438" 
d="M90 1079v165h103v125q0 434 316 458h22q282 0 334 -332l-164 -59q-34 230 -176 230q-155 -9 -155 -276v-146h295v-165h-295v-1086h-177v1086h-103zM1195 -3h-177v1249h177v-1249zM1201.5 1713.5q36.5 -38.5 36.5 -89.5t-36.5 -89t-93.5 -38q-58 0 -96 37.5t-38 89.5
q0 51 38 89.5t96 38.5q57 0 93.5 -38.5z" />
    <glyph glyph-name="uniF001" unicode="&#xfb01;" horiz-adv-x="1438" 
d="M90 1079v165h103v125q0 434 316 458h22q282 0 334 -332l-164 -59q-34 230 -176 230q-155 -9 -155 -276v-146h295v-165h-295v-1086h-177v1086h-103zM1195 -3h-177v1249h177v-1249zM1201.5 1713.5q36.5 -38.5 36.5 -89.5t-36.5 -89t-93.5 -38q-58 0 -96 37.5t-38 89.5
q0 51 38 89.5t96 38.5q57 0 93.5 -38.5z" />
    <glyph glyph-name="uniF002" unicode="&#xf002;" horiz-adv-x="1351" 
d="M90 1079v165h103v125q0 434 316 458h22q282 0 334 -332l-164 -59q-34 230 -176 230q-155 -9 -155 -276v-146h295v-165h-295v-1086h-177v1086h-103zM1151 0h-177v1634h177v-1634z" />
    <glyph glyph-name="uniF002" unicode="&#xfb02;" horiz-adv-x="1351" 
d="M90 1079v165h103v125q0 434 316 458h22q282 0 334 -332l-164 -59q-34 230 -176 230q-155 -9 -155 -276v-146h295v-165h-295v-1086h-177v1086h-103zM1151 0h-177v1634h177v-1634z" />
    </font>
</defs>
</svg>
