<?xml version="1.0" standalone="no"?>
<!DOCTYPE svg PUBLIC "-//W3C//DTD SVG 1.1//EN" "http://www.w3.org/Graphics/SVG/1.1/DTD/svg11.dtd" >
<svg xmlns="http://www.w3.org/2000/svg" xmlns:xlink="http://www.w3.org/1999/xlink" version="1.1">
<metadata>
Created by FontForge 20170731 at Sun Feb 17 21:31:39 2013
 By Aleksey,,,
Made with yourfonts.com. Copyright (c)ankepanke.nl 2013. All rights reserved.
</metadata>
<defs>
<font id="LieveLetters" horiz-adv-x="973" >
  <font-face 
    font-family="Lieve Letters"
    font-weight="400"
    font-stretch="normal"
    units-per-em="2048"
    panose-1="3 0 6 0 0 0 0 0 0 0"
    ascent="1638"
    descent="-410"
    x-height="1560"
    cap-height="1647"
    bbox="-141 -781 11902 1734"
    underline-thickness="150"
    underline-position="-442"
    unicode-range="U+0020-2122"
  />
<missing-glyph horiz-adv-x="1248" 
d="M60 0v1539h1108v-1539h-1108zM140 80h948v1379h-948v-1379z" />
    <glyph glyph-name=".notdef" horiz-adv-x="1248" 
d="M60 0v1539h1108v-1539h-1108zM140 80h948v1379h-948v-1379z" />
    <glyph glyph-name=".null" horiz-adv-x="0" 
 />
    <glyph glyph-name="nonmarkingreturn" horiz-adv-x="550" 
 />
    <glyph glyph-name="space" unicode=" " horiz-adv-x="863" 
 />
    <glyph glyph-name="space" unicode="&#xa0;" horiz-adv-x="863" 
 />
    <glyph glyph-name="exclam" unicode="!" horiz-adv-x="762" 
d="M332 1560l108 -65q22 -785 22 -1192v-217l-22 -151h-130q-86 35 -86 151v174q0 421 -22 1170q53 130 130 130zM354 -369h43q31 0 65 -65v-65q0 -29 -108 -108q-27 0 -109 130q15 57 109 108z" />
    <glyph glyph-name="quotedbl" unicode="&#x22;" horiz-adv-x="1174" 
d="M356 1582q149 0 174 -195q-37 -347 -304 -347l-21 43l108 196q-65 0 -130 130v65q56 108 173 108zM747 1582h43q29 0 108 -108v-130q-55 -326 -281 -326l-22 44v43q87 123 87 174q-109 55 -109 173v22q56 108 174 108z" />
    <glyph glyph-name="numbersign" unicode="#" horiz-adv-x="1906" 
d="M642 1235q108 -35 108 -130q-21 -273 -21 -325h151l261 22v281q0 117 86 152h22q130 -13 130 -65v-347q434 -21 434 -108v-65q0 -31 -65 -65q-139 22 -369 22q-22 -38 -22 -87v-217h282q217 0 217 -152q-79 -65 -152 -65q-52 0 -325 22l-43 -65v-152q0 -78 21 -195
q-42 -99 -86 -108h-65q-109 55 -109 173v304h-433q-44 -499 -109 -499h-86q-87 45 -87 108q0 88 43 391h-347q-86 0 -86 151q71 44 130 44h325v238l22 44h-369q-30 0 -130 130v21q91 39 499 65q43 85 43 239v152q43 86 130 86zM685 585v-282q7 -43 44 -43h390v108l22 217
h-456z" />
    <glyph glyph-name="dollar" unicode="$" horiz-adv-x="1041" 
d="M504 1734h21q152 0 152 -304q170 -94 195 -151v-109l-152 -21q0 56 -173 86h-87q-136 0 -217 -563q22 -42 22 -65q269 21 282 21q412 -139 412 -650q0 -288 -304 -520q0 -217 -43 -217q-23 0 -65 -22q-116 0 -152 282q-160 43 -260 195q30 109 152 109h65
q135 -131 195 -131q105 0 195 326q-120 411 -173 411h-174q-49 0 -87 -21q-214 0 -303 282q0 564 390 780q28 282 109 282z" />
    <glyph glyph-name="percent" unicode="%" horiz-adv-x="1721" 
d="M367 1539q74 0 347 -174h65q235 0 520 65h22q130 -13 130 -65l-499 -1105q-108 -211 -108 -282q199 65 368 173h152q208 0 325 -303v-109q-84 -411 -368 -411q-339 0 -391 477h-21q-376 -412 -477 -412h-43q-65 21 -65 130q628 1211 780 1669h-130q-109 0 -325 -22v-43
q-71 -369 -282 -369h-87q-303 0 -325 347q75 434 412 434zM302 1322q-109 -108 -109 -282q2 -31 87 -108q130 54 130 195v22q0 117 -108 173zM1277 -65q-86 -201 -86 -239v-22q0 -95 108 -151q173 82 173 216q0 196 -151 196h-44z" />
    <glyph glyph-name="ampersand" unicode="&#x26;" horiz-adv-x="1446" 
d="M565 1604q628 -252 628 -651v-65q0 -306 -650 -823q-239 -257 -239 -326q93 -195 282 -195q325 124 325 239q-173 211 -173 282v65h152q140 -130 151 -130q80 238 217 238q87 -22 87 -130q0 -83 -130 -260v-87l108 -152v-108q-43 -53 -43 -87q-179 152 -260 152
q-212 -195 -477 -195h-43q-434 73 -434 412q82 260 499 607q-456 236 -456 542v21q0 481 304 651h152zM326 932q0 -251 412 -369h22q216 198 216 412q0 285 -411 434h-22q-136 0 -217 -477z" />
    <glyph glyph-name="quotesingle" unicode="'" horiz-adv-x="818" 
d="M382 1604q152 -56 152 -217q-50 -347 -282 -347q-43 0 -43 43q85 167 108 196q-130 65 -130 195q27 76 195 130z" />
    <glyph glyph-name="parenleft" unicode="(" horiz-adv-x="853" 
d="M552 1712h43q116 0 152 -87q-347 -478 -347 -1279q0 -556 217 -932v-21q-14 -65 -131 -109q-303 171 -303 954v239q0 578 282 1170z" />
    <glyph glyph-name="parenright" unicode=")" horiz-adv-x="839" 
d="M206 1669h44q325 -446 325 -976v-216q0 -924 -325 -1149h-109q-43 0 -43 43v22l195 455q43 132 65 802q0 455 -260 932v65z" />
    <glyph glyph-name="asterisk" unicode="*" horiz-adv-x="1198" 
d="M711 1734h65q31 0 65 -65v-22q0 -65 -108 -260q217 0 217 -65v-87q0 -43 -109 -43q130 -110 130 -130v-22q-9 -45 -108 -87q-108 65 -152 65v-21q22 -38 22 -87q-16 -108 -65 -108h-43q-109 56 -109 151h-21q0 -58 -109 -108h-43q-33 0 -65 87q0 15 86 195
q-238 0 -238 65v43q16 87 217 87q-174 184 -174 217q22 42 22 65h65q94 -22 152 -22q42 99 87 108h21q65 0 65 -130q16 0 130 174z" />
    <glyph glyph-name="plus" unicode="+" horiz-adv-x="1170" 
d="M509 910q130 0 130 -152v-173q7 -43 43 -43q192 21 239 21q99 -42 108 -86v-44q-29 -87 -195 -87h-173v-21q43 -369 43 -412l-108 -65q-174 0 -174 477h-217q-173 0 -173 152l65 43h195l109 22v303q0 37 108 65z" />
    <glyph glyph-name="comma" unicode="," horiz-adv-x="822" 
d="M428 173q130 -45 130 -173v-44q-45 -347 -282 -347l-22 44v43q65 69 65 174q-82 82 -108 151q56 152 217 152z" />
    <glyph glyph-name="hyphen" unicode="-" horiz-adv-x="1399" 
d="M396 498q102 0 672 -21q65 -80 65 -152l-65 -44h-87q-227 0 -693 22q0 12 -87 108v44q141 43 195 43z" />
    <glyph glyph-name="period" unicode="." horiz-adv-x="856" 
d="M409 -22h22q152 0 152 -152v-43q-56 -109 -174 -109t-195 152q64 152 195 152z" />
    <glyph glyph-name="slash" unicode="/" horiz-adv-x="978" 
d="M739 1669q108 -37 108 -109q-87 -575 -585 -2211q-23 0 -65 -21q-96 0 -152 130q564 1845 564 2167q71 44 130 44z" />
    <glyph glyph-name="zero" unicode="0" horiz-adv-x="1149" 
d="M630 1582h44q325 0 325 -759q21 -151 21 -758q-94 -672 -325 -672h-65q-385 0 -455 932v260q0 778 217 910q114 87 238 87zM392 346q40 -737 282 -737q130 176 130 434q-28 1279 -130 1279q-38 22 -87 22h-22q-173 -96 -173 -998z" />
    <glyph glyph-name="one" unicode="1" horiz-adv-x="783" 
d="M484 1669h21q65 -22 65 -130v-1258q0 -780 130 -780l22 -108q-22 -65 -130 -65q-455 0 -455 130q21 86 130 86h65v1583h-22q-49 0 -87 -22q-99 42 -108 87q168 477 369 477z" />
    <glyph glyph-name="two" unicode="2" horiz-adv-x="786" 
d="M559 1604q151 -59 151 -239q-238 -1004 -325 -1756l43 -21q49 0 87 21q152 -38 152 -86v-65q0 -31 -65 -65h-347q-130 0 -130 86q173 1332 369 1930q-144 -65 -196 -65h-65q-54 0 -65 86q0 118 391 174z" />
    <glyph glyph-name="three" unicode="3" horiz-adv-x="852" 
d="M276 1604h22q325 0 390 -521v-21q0 -186 -152 -477q239 -281 239 -629q0 -418 -304 -563l-130 -22h-130q-195 0 -195 195q22 87 108 87q152 -87 217 -87q195 0 195 390v22q0 324 -282 607v65q196 189 196 368v109q0 260 -174 260l-87 -22q-98 42 -108 87v22
q76 130 195 130z" />
    <glyph glyph-name="four" unicode="4" horiz-adv-x="886" 
d="M433 1604q216 0 216 -260q22 -292 22 -499q195 -102 195 -217l-87 -65h-108q0 -391 22 -1062q-22 -87 -130 -87h-44q-65 22 -65 130v716q0 368 -108 368q-282 0 -282 152q215 824 325 824h44zM389 1149q-65 -293 -65 -326h130l-21 44v282h-44z" />
    <glyph glyph-name="five" unicode="5" horiz-adv-x="895" 
d="M611 1560q86 -32 86 -65v-21q-7 -64 -216 -130l-44 -867q455 -99 455 -369v-130q0 -431 -390 -585h-152q-303 15 -303 108v43q35 87 152 87q71 -43 130 -43h108q109 0 195 390q-43 260 -108 260q-27 0 -217 -22q-65 14 -108 130q43 983 43 1149q131 65 369 65z" />
    <glyph glyph-name="six" unicode="6" horiz-adv-x="959" 
d="M647 1647h22q31 0 65 -65q0 -102 -173 -195q-66 -149 -109 -715q174 43 282 43q195 -24 195 -195v-239q0 -888 -520 -888q-142 0 -217 498q57 1669 217 1669q130 87 238 87zM430 108v-130q0 -100 44 -347h21q239 177 239 629q-16 260 -65 260q-239 0 -239 -412z" />
    <glyph glyph-name="seven" unicode="7" horiz-adv-x="755" 
d="M225 1560h260q130 0 130 -108q-65 -722 -65 -910q43 -7 43 -44q-86 -151 -86 -737q-29 -325 -109 -325h-87q-44 9 -86 108l86 824q-19 0 -151 87v43q173 110 173 304v542q-260 10 -260 86v44q35 86 152 86z" />
    <glyph glyph-name="eight" unicode="8" horiz-adv-x="982" 
d="M583 1560q304 -81 304 -390v-21q0 -42 -217 -499q152 -492 152 -759v-21q0 -372 -391 -434h-21q-190 0 -217 282v238q0 221 152 672v44q-130 334 -130 411v66q84 411 368 411zM583 1365q-152 -119 -152 -238v-44q0 -165 87 -195q152 195 152 347q-44 130 -87 130z
M410 -347q21 0 21 -22q152 24 152 239v151q0 130 -65 325q-56 0 -108 -693z" />
    <glyph glyph-name="nine" unicode="9" horiz-adv-x="972" 
d="M429 1517h108q238 0 303 -368l-108 -1193q22 -114 22 -217v-130q0 -166 -87 -195h-22q-130 0 -130 109q0 145 44 1127h-22q-16 0 -130 -22q-347 138 -347 499q0 250 369 390zM298 1040q54 -195 109 -195h22q108 0 151 455l-43 22q-178 0 -239 -282z" />
    <glyph glyph-name="colon" unicode=":" horiz-adv-x="665" 
d="M330 1040q130 -51 130 -152q-30 -151 -87 -151h-86q-152 69 -152 195q0 65 195 108zM308 -22h87q34 0 87 -87v-65q0 -152 -174 -152q-86 0 -173 131q0 173 173 173z" />
    <glyph glyph-name="semicolon" unicode=";" horiz-adv-x="648" 
d="M282 975h43q29 0 108 -108v-109q0 -34 -86 -86h-44q-173 0 -173 238q79 65 152 65zM325 173q152 0 152 -217q-45 -347 -282 -347h-22v44q0 39 87 217h-22q-34 0 -108 151q64 152 195 152z" />
    <glyph glyph-name="less" unicode="&#x3c;" horiz-adv-x="802" 
d="M503 910h87q86 -45 86 -108q0 -54 -433 -391q0 -55 347 -260l21 -43v-65q0 -31 -65 -65h-21q-144 0 -499 347v21q0 117 477 564z" />
    <glyph glyph-name="equal" unicode="=" horiz-adv-x="1200" 
d="M340 802h22q672 0 672 -152v-43q-71 -44 -130 -44q-45 0 -390 44q-255 -22 -369 -22l-65 87v43q0 87 260 87zM557 260h325q31 0 65 -65v-65q0 -65 -87 -65q-556 -22 -628 -22l-65 87v43q0 87 390 87z" />
    <glyph glyph-name="greater" unicode="&#x3e;" horiz-adv-x="864" 
d="M176 845q101 0 607 -412v-22q0 -37 -563 -606h-22q-89 29 -130 108v43q2 31 412 455v22q-390 231 -390 347z" />
    <glyph glyph-name="question" unicode="?" horiz-adv-x="1817" 
d="M563 1625h368q626 0 824 -498q0 -66 22 -152q0 -245 -607 -737q-325 -72 -325 -130v-130q0 -78 21 -195q-21 -87 -130 -87q-86 0 -130 87v390q0 156 369 217q195 0 542 520v108q-206 434 -542 434q-152 0 -174 22q-628 -61 -628 -369v-195q-57 -107 -87 -108
q-130 50 -130 86v239q0 421 607 498zM801 -369h44q86 -43 86 -130l-130 -108q-27 0 -108 130v21q1 30 108 87z" />
    <glyph glyph-name="at" unicode="@" horiz-adv-x="2087" 
d="M1085 1539q596 0 759 -304q43 -141 43 -195v-22q-67 -845 -325 -845q0 -22 -65 -22h-22l-217 65q-201 -86 -282 -86q-390 59 -390 368v239q117 368 369 368h21q359 0 499 -542v-173h22q72 0 173 737q0 217 -412 217h-65q-21 0 -21 21l-44 -21h-87q-715 0 -715 -933v-216
q0 -372 347 -499q117 -22 195 -22h108q380 0 759 412q0 87 109 152h21q130 -13 130 -65v-87q-205 -369 -737 -585l-260 -43q-684 0 -910 585q0 35 -22 260q0 1236 1019 1236zM803 650v-217q0 -65 195 -108q161 0 239 325q-60 260 -239 260q-195 -80 -195 -260z" />
    <glyph glyph-name="A" unicode="A" horiz-adv-x="1972" 
d="M973 1647h43q91 0 217 -498q780 -1636 780 -1778q-79 -65 -151 -65q-125 0 -261 520q-173 434 -238 434q-38 21 -87 21h-498q-254 0 -304 -151q-311 -759 -390 -759q-89 30 -130 108l347 824q571 1344 672 1344zM929 1192q0 -34 -260 -672h607q-216 449 -303 672h-44z
" />
    <glyph glyph-name="B" unicode="B" horiz-adv-x="895" 
d="M231 1604q477 -190 477 -737q0 -195 -130 -390v-44q93 0 173 -628v-87q0 -263 -347 -369l-108 -21q-109 32 -109 216v22q0 657 -108 1973q96 65 152 65zM339 1257v-672q130 137 130 303v109q0 170 -108 260h-22zM404 260q22 -463 44 -651q65 14 65 174v130
q-22 321 -109 347z" />
    <glyph glyph-name="C" unicode="C" horiz-adv-x="879" 
d="M533 1604q174 -40 174 -87v-22l-22 -108h-195q-174 -108 -174 -325v-87l22 -130l-22 -43q75 -1279 261 -1279q40 40 130 238q38 22 86 22h22q65 -22 65 -130q-50 -325 -282 -325h-86q-285 0 -369 802q-22 505 -65 932q77 542 455 542z" />
    <glyph glyph-name="D" unicode="D" horiz-adv-x="1072" 
d="M299 1625q181 0 564 -498q43 -151 43 -260v-260q-71 -1069 -607 -1258h-65q-35 0 -86 130q0 49 21 87q-43 1125 -43 1626q0 412 87 412q11 0 86 21zM364 1344v-44q0 -531 22 -1647q282 353 282 889v303q0 329 -304 499z" />
    <glyph glyph-name="E" unicode="E" horiz-adv-x="2198" 
d="M1098 1517q694 0 954 -694q26 -35 43 -216q-26 -304 -217 -304h-498q-204 0 -412 22q-117 -22 -195 -22q-293 22 -434 22v-130q0 -342 434 -499q231 -65 390 -65h43q355 0 586 260h173v-21q0 -330 -650 -434h-174q-997 171 -997 650q-61 124 -65 477v65q0 615 477 781
q419 108 542 108zM317 780v-238q347 -44 1149 -44h326q31 0 65 65v44q0 335 -217 520q-260 195 -607 195q-716 -105 -716 -542z" />
    <glyph glyph-name="F" unicode="F" horiz-adv-x="694" 
d="M225 1647q347 -60 347 -152v-43q-22 -65 -130 -65l-109 22v-22q0 -304 87 -304q239 0 239 -151l-130 -65l-131 21q-21 -42 -21 -65q0 -450 43 -1365q-22 -87 -130 -87h-22q-21 0 -108 108q22 434 22 651v21l-87 1366q0 87 130 130z" />
    <glyph glyph-name="G" unicode="G" horiz-adv-x="1119" 
d="M536 1669q282 0 282 -152q0 -49 -109 -65l-195 22q-119 0 -152 -1236v-22q0 -672 131 -672h86q174 116 174 759v22q-17 0 -239 86v44q56 108 174 108h260q17 0 65 -65q0 -1149 -477 -1149h-87q-325 0 -325 867q0 1409 260 1409q0 37 152 44z" />
    <glyph glyph-name="H" unicode="H" horiz-adv-x="1083" 
d="M177 1539h108q65 0 65 -564v-87q0 -48 22 -86q-22 -38 -22 -87q0 -152 152 -152h130q-22 640 -22 846l130 108h22q35 0 87 -152l-22 -216q0 -495 108 -1626q-52 -130 -130 -130q-130 0 -130 585q-21 169 -21 347l-65 43h-196l22 -217v-672q0 -31 -65 -65h-87
q-108 0 -108 1171l-65 845q42 99 87 109z" />
    <glyph glyph-name="I" unicode="I" horiz-adv-x="590" 
d="M244 1647q86 -32 86 -65v-87q0 -65 -86 -65q-152 0 -152 152q79 65 152 65zM244 1235q108 -30 108 -152q65 -1191 65 -1517v-152q0 -130 -130 -130q-99 42 -108 87v368q0 252 -65 1431q84 65 130 65z" />
    <glyph glyph-name="J" unicode="J" horiz-adv-x="1542" 
d="M1168 1690q54 0 130 -195l-130 -65q-99 42 -108 87v65q0 29 108 108zM1190 1279h86q34 0 87 -87q0 -1648 -195 -1648q-22 -178 -542 -260q-607 78 -607 477v282q0 108 108 152h44q31 0 65 -65v-174q0 -337 260 -433l130 -22h65q412 0 412 585v1041q0 116 87 152z" />
    <glyph glyph-name="K" unicode="K" horiz-adv-x="1036" 
d="M737 1604h22q108 0 130 -87q0 -54 -347 -910q0 -61 325 -759q87 -344 87 -434l-65 -43h-109q-48 0 -173 520q-23 8 -195 434h-22q0 -90 -22 -239q0 -261 109 -715q-109 -65 -174 -65q-151 95 -151 715q-22 0 -22 412v997q14 130 65 130h130q43 -141 43 -195v-585h44
q238 724 282 802z" />
    <glyph glyph-name="L" unicode="L" horiz-adv-x="622" 
d="M216 1625h108q43 -6 43 -43v-2038l44 22q160 0 173 -87q0 -108 -303 -151l-130 65q-22 949 -22 1409v347q0 476 87 476z" />
    <glyph glyph-name="M" unicode="M" horiz-adv-x="1368" 
d="M254 1604q192 0 369 -412h21q38 5 282 390q38 22 87 22h21q34 0 87 -87l65 -1951l22 -87q-43 -70 -43 -108h-131q-86 29 -86 195q0 444 -44 1539q-219 -195 -303 -195q-87 0 -239 282h-21v-22q43 -1577 43 -1712q-30 -109 -152 -109h-43q-43 0 -43 65q0 545 -22 2081
q35 109 130 109z" />
    <glyph glyph-name="N" unicode="N" horiz-adv-x="1403" 
d="M316 1604q232 0 304 -455l325 -998h22v1236q0 152 151 152q34 0 87 -87q-21 -1378 -21 -1756q-29 -303 -152 -303q-184 0 -390 975q-22 0 -239 802h-22v-1647q0 -117 -86 -152h-87q-31 0 -65 65v1821q0 347 173 347z" />
    <glyph glyph-name="O" unicode="O" horiz-adv-x="2179" 
d="M1297 1604q555 0 737 -1062v-44q0 -867 -629 -1105q-147 -65 -238 -65h-174q-694 169 -694 390q-238 367 -238 737v173q0 550 802 954q293 22 434 22zM1036 1365q-86 22 -151 22q-607 -398 -607 -845v-22q0 -740 585 -976q117 -21 195 -21h22q540 0 694 628
q21 143 21 282v130q0 498 -412 824q-42 22 -65 22q-260 -22 -282 -44z" />
    <glyph glyph-name="P" unicode="P" horiz-adv-x="880" 
d="M332 1604q347 0 433 -477v-44q0 -541 -347 -541l-65 -44q22 -555 65 -1019q-32 -86 -65 -86h-108l-65 43q0 190 -65 2038q0 92 217 130zM353 1387l-21 -43v-174q0 -141 21 -433h22q174 0 174 281q0 302 -196 369z" />
    <glyph glyph-name="Q" unicode="Q" horiz-adv-x="1294" 
d="M595 1582h87q412 0 412 -910v-326q0 -206 -65 -585q0 -22 130 -195v-65q0 -31 -65 -65h-22q-65 0 -195 87q-138 -174 -347 -174q-326 0 -455 976q92 929 260 1062q0 108 260 195zM313 433v-87q0 -376 239 -823h22q195 141 195 173q-217 275 -217 347q71 43 130 43
q52 0 173 -86v130q0 124 22 151q-51 1041 -130 1041q-71 43 -130 43q-304 -286 -304 -932z" />
    <glyph glyph-name="R" unicode="R" horiz-adv-x="987" 
d="M310 1582h108q204 0 261 -282q-130 -708 -130 -780q390 -906 390 -1019v-22q0 -112 -65 -130h-65q-98 0 -391 954h-21v-390q0 -173 21 -455q-42 -99 -86 -109h-109q-65 22 -65 130q0 603 -43 1973q0 130 195 130zM375 1387l-22 -43v-477h22q87 233 87 368
q-22 152 -87 152z" />
    <glyph glyph-name="S" unicode="S" horiz-adv-x="906" 
d="M425 1452q199 0 325 -412q0 -34 -87 -87h-65q-38 0 -152 261l-43 21q-109 -124 -109 -217v-65q0 -303 131 -303q325 0 325 -737v-108q-65 -369 -304 -369h-21q-262 0 -304 412v65q0 34 87 87h86q58 0 109 -347l43 -22q87 114 87 239v86q0 521 -260 521q-217 0 -217 498
v22q0 318 369 455z" />
    <glyph glyph-name="T" unicode="T" horiz-adv-x="655" 
d="M171 1560h347q43 -6 43 -43v-65q-173 -173 -173 -195l22 -217v-1019q0 -172 -22 -455q22 -38 22 -87q-42 -99 -87 -108h-130l-22 108v1735l22 151q-152 0 -152 87v43q22 65 130 65z" />
    <glyph glyph-name="U" unicode="U" horiz-adv-x="2128" 
d="M214 1647h22q79 0 130 -65q-22 -293 -22 -433v-434q0 -1192 521 -1192h86q533 0 716 1062q0 975 108 975h87l87 -86q0 -23 -22 -65q-22 -1077 -22 -1474q0 -75 22 -456q-71 -43 -130 -43q-130 108 -130 325h-22q-287 -433 -802 -433h-65q-402 0 -629 715q-43 356 -43 542
q0 202 22 954q42 99 86 108z" />
    <glyph glyph-name="V" unicode="V" horiz-adv-x="966" 
d="M664 1582h65q65 0 65 -87q0 -490 -109 -1560l22 -217q-55 -369 -195 -369h-22q-137 0 -260 932q-195 871 -195 1063v43l22 108h21q147 0 260 -802q59 -106 131 -628h21q65 478 65 1322q0 140 109 195z" />
    <glyph glyph-name="W" unicode="W" horiz-adv-x="1210" 
d="M148 1539h22q130 0 130 -130v-44q0 -238 130 -1582h22q72 217 216 217q96 -87 109 -87v1149q0 412 151 412q0 21 65 21q32 0 65 -65q-65 -487 -65 -953q0 -98 22 -282q0 -802 -152 -802q-128 0 -260 195q-130 -174 -238 -174h-22q-145 0 -195 1128q-65 536 -65 953z" />
    <glyph glyph-name="X" unicode="X" 
d="M99 1582h21q103 0 239 -542q50 -65 65 -65q101 607 303 607q44 -7 44 -43v-44q-109 -412 -195 -932q85 -393 368 -1084l-87 -65h-86q-79 0 -282 672h-43q-196 -607 -326 -607q-42 22 -65 22v65l282 997q-325 803 -325 889q51 130 87 130z" />
    <glyph glyph-name="Y" unicode="Y" horiz-adv-x="1898" 
d="M11 1690q80 0 325 -498q624 -696 737 -911h22q216 398 607 1344l65 44h65q31 0 65 -65q0 -135 -456 -1127q-116 -153 -607 -1128l-65 -43h-86q-31 0 -65 65v22q21 100 325 628v22q0 103 -607 802q-477 651 -477 759q35 86 152 86z" />
    <glyph glyph-name="Z" unicode="Z" horiz-adv-x="715" 
d="M334 1625q260 -55 260 -108q-56 0 -260 -1929v-44q325 -14 325 -108q-45 -130 -173 -130q-356 0 -412 130q43 595 216 1929l-238 87v65q0 80 282 108z" />
    <glyph glyph-name="bracketleft" unicode="[" horiz-adv-x="704" 
d="M255 1604h195q117 0 152 -87v-22q0 -80 -260 -130l-22 -108v-1626l195 22q99 -42 109 -87v-65q0 -87 -326 -87h-86q-152 0 -152 195q0 1973 87 1973z" />
    <glyph glyph-name="backslash" unicode="\" horiz-adv-x="1115" 
d="M190 1604q120 0 195 -390q412 -1219 650 -1735v-65q0 -56 -173 -86q-292 493 -802 2189v22q22 65 130 65z" />
    <glyph glyph-name="bracketright" unicode="]" horiz-adv-x="747" 
d="M537 1604h65q65 0 65 -87q-87 -1029 -87 -1647q22 -271 22 -304q0 -94 -347 -108q-195 48 -195 130l65 86l108 -21l109 21q21 797 87 1713l-217 -22h-22q-87 36 -87 152q304 87 434 87z" />
    <glyph glyph-name="asciicircum" unicode="^" horiz-adv-x="11982" 
d="M834 1734h43q64 -22 64 -129q-56 -106 -86 -108q-150 43 -150 172q21 65 129 65zM4444 1454q344 -80 344 -150v-65q0 -42 -43 -42h-43q-19 0 -172 42h-43q-33 0 -86 -85q0 -99 258 -280q172 -257 258 -1139v-64q-137 -280 -215 -280h-193q-169 0 -237 129v129
q56 0 280 -86h21q49 0 151 322q-188 989 -366 989q-193 110 -193 301q70 279 279 279zM11171 1454q498 0 624 -601q21 -36 107 -323q-52 -43 -86 -43q-153 0 -1440 -21v-22q153 -623 366 -623q226 -172 408 -172h21l581 108h43l21 -108v-21q-188 -151 -516 -151h-21
q-787 0 -1053 731q-27 252 -215 451q70 43 107 43v194q0 558 817 558h236zM167 1411h108q32 0 64 -86q-21 -152 -21 -1805q43 0 43 -21l43 21q88 -43 129 -43v-43q0 -129 -409 -129q-49 108 -64 108l21 107v1290q0 601 86 601zM2188 1411h150q438 0 688 -623q43 -78 43 -172
v-43q-43 0 -43 -21q-462 21 -688 21h-752v-107q0 -558 473 -709q252 -86 408 -86q173 0 473 129h107q43 -7 43 -43v-22q-269 -258 -537 -258q-1160 165 -1160 795q0 329 -151 473v22q163 0 258 301q309 343 688 343zM8635 1411h22q150 0 150 -129q22 -1257 22 -1805
q-17 -150 -108 -150q-148 0 -322 666q-43 38 -344 924h-43q43 -1097 108 -1418q-42 -98 -86 -108q-172 37 -172 172q-43 1363 -43 1612q39 172 86 172q186 0 301 -279q355 -1011 408 -1011q-43 726 -43 1311zM3606 1390q258 -16 258 -65q0 -143 -279 -171v-194
q215 -60 215 -129v-21q-22 -65 -129 -65h-86q0 -43 -22 -43q65 -933 65 -1246l-65 -43h-86q-44 9 -86 107q-21 1088 -21 1698v107q0 65 236 65zM7238 1368q129 0 387 -1117l-21 -43q86 -398 236 -924q0 -49 -107 -65q-167 0 -258 731q-49 212 -108 258l-43 -22h-43l-322 65
q-387 -17 -387 -172q-232 -275 -559 -731h-21q-116 0 -151 86q0 84 409 559q802 1275 924 1375h64zM748 1304h129l21 -107v-409q0 -827 43 -1311q-32 -86 -64 -86h-108q-86 29 -86 194v86q0 305 22 451q-43 674 -43 1010q26 172 86 172zM8979 1304h108q64 -22 64 -129v-408
h22q24 0 430 537h150q32 0 64 -86l-451 -623v-43q0 -49 408 -903q22 -38 22 -86v-64q0 -43 -65 -43q-141 0 -214 301q-295 623 -323 623l86 -903l-43 -21h-129q-104 0 -150 1418q-22 0 -43 323q27 107 64 107zM10355 724q6 -43 43 -43h1182q31 0 64 64q-143 516 -365 516
h-215q-709 0 -709 -344v-193zM1629 767h1182v21q-142 430 -430 430q-35 21 -107 21q-395 0 -624 -386zM7195 1025q-15 -51 -386 -581v-21q57 0 580 -43q-65 191 -172 645h-22z" />
    <glyph glyph-name="underscore" unicode="_" horiz-adv-x="1484" 
d="M60 -412h499q252 0 802 -22l43 -65v-65q-22 -65 -130 -65h-239q-311 0 -845 22q-130 54 -130 195z" />
    <glyph glyph-name="grave" unicode="`" horiz-adv-x="601" 
d="M521 1079h-69l-330 202q-31 20 -46.5 40t-15.5 42q0 31 20.5 51t53.5 20q20 0 40.5 -12t55.5 -47z" />
    <glyph glyph-name="a" unicode="a" horiz-adv-x="1978" 
d="M981 1560h108q493 -1591 867 -1929q130 -197 130 -260v-22l-152 -21h-65q-190 222 -542 888h-43q-248 0 -759 -21q-350 -795 -412 -867q-42 -22 -65 -22q-99 42 -108 87q254 676 889 1929q0 132 152 238zM634 390l108 21h347l152 22l-239 650h-21q-52 0 -347 -693z" />
    <glyph glyph-name="b" unicode="b" horiz-adv-x="1043" 
d="M351 1625q498 -92 498 -476q0 -152 -260 -586q345 -387 347 -520q0 -339 -347 -585q-130 -87 -260 -87h-22q-108 0 -108 607q-22 433 -22 1062q-43 303 -43 390q0 159 217 195zM394 1430v-715h43q174 354 174 455q-22 260 -217 260zM416 368v-238q0 -265 43 -499h22
q217 156 217 434q0 149 -282 303z" />
    <glyph glyph-name="c" unicode="c" horiz-adv-x="989" 
d="M474 1560h87q325 -85 325 -303v-65q-49 0 -87 -22q-29 0 -238 195h-44q-103 0 -152 -520v-65q0 -1149 152 -1149q42 -22 65 -22q57 133 109 391q70 43 108 43q108 -35 108 -130q-59 -520 -346 -520q-412 0 -412 845q0 53 -22 325q43 932 195 932q79 65 152 65z" />
    <glyph glyph-name="d" unicode="d" horiz-adv-x="1040" 
d="M377 1625q396 0 498 -888v-304q0 -464 -412 -997q-108 -65 -151 -65q-109 35 -109 130q-43 1028 -43 1648v390q23 86 217 86zM398 1409v-1604h65q196 397 196 672v86q0 455 -239 846h-22z" />
    <glyph glyph-name="e" unicode="e" horiz-adv-x="2155" 
d="M1052 1625h44q382 0 888 -650q109 -237 109 -325v-43q0 -119 -1431 -174q-369 -51 -369 -87q0 -298 261 -563q372 -174 737 -239q281 0 585 456h65l108 -22v-65q0 -203 -498 -520l-217 -44q-463 65 -954 304q-325 328 -325 802q0 320 412 932q349 238 585 238zM337 607
q114 -22 130 -22q1366 118 1366 173q-266 510 -716 651h-130q-422 0 -650 -802z" />
    <glyph glyph-name="f" unicode="f" horiz-adv-x="757" 
d="M257 1604h195q118 0 174 -109v-21q0 -53 -239 -130v-347q0 -109 22 -325h152q130 -14 130 -65q0 -101 -282 -174q0 -112 65 -910q-32 -87 -65 -87h-108q-130 0 -130 1582q-22 0 -22 174q22 123 22 347z" />
    <glyph glyph-name="g" unicode="g" horiz-adv-x="1059" 
d="M584 1539q195 -28 195 -195l-86 -44q-118 22 -195 22h-22q-65 -139 -109 -412q0 -1279 174 -1279h22q108 65 130 564v216q-56 109 -174 109v43q88 130 217 130h108l87 -65q0 -1149 -238 -1149q0 -39 -195 -65q-326 79 -326 586q0 79 -43 932q0 477 347 607h108z" />
    <glyph glyph-name="h" unicode="h" horiz-adv-x="1065" 
d="M264 1539h22q87 0 87 -304v-585q13 -130 65 -130h130q43 0 43 43q0 100 -43 607q28 369 108 369h22q108 -56 108 -174v-238q0 -268 65 -802q-21 -42 -21 -65q65 -731 65 -846q-80 -65 -152 -65h-22q-86 0 -86 716q-22 260 -87 260h-174v-412q0 -175 22 -412
q-42 -99 -87 -108h-43q-108 0 -108 607q-22 948 -22 1409q30 89 108 130z" />
    <glyph glyph-name="i" unicode="i" horiz-adv-x="604" 
d="M275 1539q109 -65 109 -152l-109 -87h-43q-31 0 -65 65v65q0 29 108 109zM210 1018q195 0 195 -173q0 -450 22 -1366l-87 -86h-86q-31 0 -65 65q-22 948 -22 1409q0 65 43 151z" />
    <glyph glyph-name="j" unicode="j" horiz-adv-x="1543" 
d="M1187 1625q117 0 152 -86v-65q0 -34 -87 -87q-116 0 -151 87v65q0 34 86 86zM1166 1300h43q152 0 152 -693v-434q0 -604 -217 -737q-215 -108 -325 -108q-824 0 -824 867v43q0 130 130 130h22q92 0 108 -520q138 -325 564 -325q303 48 303 303v87q0 739 -43 1257
q44 130 87 130z" />
    <glyph glyph-name="k" unicode="k" horiz-adv-x="987" 
d="M209 1625q174 -93 174 -216l-44 -87q44 -89 44 -130q-22 -205 -22 -390q7 -44 43 -44q259 781 391 781q21 0 21 -22q44 -70 44 -108q0 -117 -217 -651q-56 -10 -108 -195q86 -336 325 -1019v-86q0 -31 -65 -65h-22q-132 0 -369 867h-21v-586q0 -153 43 -238
q-30 -108 -152 -108h-21q-65 0 -65 303q-22 1440 -22 1929q43 0 43 65z" />
    <glyph glyph-name="l" unicode="l" horiz-adv-x="665" 
d="M310 1625q86 -43 86 -130q0 -387 22 -628q-22 -524 -22 -1062v-87q0 -152 217 -195l22 -44v-65q0 -31 -65 -65h-239q-130 0 -130 130v87q-43 1808 -43 1951q30 108 152 108z" />
    <glyph glyph-name="m" unicode="m" horiz-adv-x="1433" 
d="M221 1604h108q32 -4 282 -477h22q252 401 368 455h65q131 -359 196 -1452q0 -432 21 -672q-42 -99 -86 -109h-22q-130 0 -130 195q-44 1252 -130 1518h-65q-216 -195 -239 -195h-21q-87 0 -196 130v-44q0 -208 44 -1365q-27 -217 -87 -217h-87q-32 0 -65 87l-43 2102z
" />
    <glyph glyph-name="n" unicode="n" horiz-adv-x="1353" 
d="M397 1669q138 0 282 -694q22 0 239 -802h21v108q0 306 -21 1301l108 65q130 -22 130 -65q0 -305 -22 -390q22 -477 22 -846v-823q0 -34 -87 -87q-211 0 -390 759q-43 74 -260 867h-22q0 -87 -21 -87q21 -255 21 -368v-477q0 -122 44 -694q-84 -65 -130 -65l-109 65
q-43 1508 -43 1973q54 260 238 260z" />
    <glyph glyph-name="o" unicode="o" horiz-adv-x="2131" 
d="M1167 1604q404 0 585 -390q238 -290 238 -759v-44q0 -769 -563 -975q-195 -65 -325 -65h-66q-671 0 -975 954v152q0 808 954 1127h152zM278 477q0 -523 563 -868q151 -43 261 -43q628 98 628 607q22 0 44 347q0 448 -434 867l-87 22q-64 -36 -390 -65
q-585 -402 -585 -867z" />
    <glyph glyph-name="p" unicode="p" horiz-adv-x="914" 
d="M359 1604q434 -102 434 -434v-282q0 -265 -369 -325v-867q0 -78 22 -195q-44 -135 -109 -152h-65q-44 10 -86 109q-22 1097 -22 1712v239q28 195 195 195zM402 1387v-564l22 -43q136 0 152 217v86q0 197 -152 304h-22z" />
    <glyph glyph-name="q" unicode="q" horiz-adv-x="1212" 
d="M597 1560h152q173 0 173 -238q22 0 65 -650l-65 -759q54 -111 239 -282v-43q-10 -45 -109 -87q-78 0 -195 108q-252 -195 -347 -195q-206 0 -303 369q-87 246 -87 650v130q0 976 390 976q0 21 87 21zM337 672q0 -576 173 -1041h22q108 56 108 174v21l-108 260
q65 109 173 109q44 297 44 650q0 449 -130 499h-44q-178 0 -217 -434q-21 -192 -21 -238z" />
    <glyph glyph-name="r" unicode="r" horiz-adv-x="1014" 
d="M328 1582h44q390 -55 390 -564q-43 -173 -173 -498q368 -917 368 -1106q-22 -65 -130 -65q-113 0 -325 846q-44 0 -44 86h-21v-411q0 -175 21 -412q-35 -109 -130 -109q-130 0 -130 434q-43 1346 -43 1712q91 87 173 87zM393 1365v-86q0 -184 22 -542q109 129 109 346
q0 193 -109 282h-22z" />
    <glyph glyph-name="s" unicode="s" horiz-adv-x="951" 
d="M426 1539h65q260 -22 260 -239v-65q0 -118 -108 -173q-59 15 -152 282q-174 -72 -174 -282v-109q0 -281 326 -346q172 -195 173 -347q0 -846 -412 -846q-238 91 -238 282v109q0 151 151 151h22q31 0 65 -65q-22 -114 -22 -130q44 -70 44 -108h22q130 60 130 520v65
q0 191 -326 304q-173 221 -173 476v87q96 434 347 434z" />
    <glyph glyph-name="t" unicode="t" horiz-adv-x="703" 
d="M349 1560h22q162 -26 173 -86q-86 -238 -86 -260q0 -447 86 -1800l-65 -43h-108q-31 0 -65 65q-65 1259 -65 1929h-22q-86 -21 -152 -21q-99 42 -108 86v44q0 86 390 86z" />
    <glyph glyph-name="u" unicode="u" horiz-adv-x="2098" 
d="M301 1647l65 -87v-1018q61 -933 412 -933q36 -21 109 -21q360 175 542 715q86 380 173 1149l152 65q87 -22 87 -130q0 -270 130 -1908q-72 -43 -130 -43q-152 0 -152 824q-22 0 -22 65h-22q-40 -339 -346 -672q-245 -260 -456 -260q-404 0 -628 542q-65 309 -87 607
q22 554 22 1018q35 87 151 87z" />
    <glyph glyph-name="v" unicode="v" horiz-adv-x="993" 
d="M125 1647h65q174 0 174 -867q108 -543 108 -737h22l130 1561l108 21h44q31 0 65 -65l-152 -1821q-112 -346 -173 -346q-42 -22 -65 -22q-174 46 -174 629q-195 1365 -195 1625z" />
    <glyph glyph-name="w" unicode="w" horiz-adv-x="1254" 
d="M965 1560h65q32 0 65 -65q-85 -2059 -238 -2059q-42 -22 -65 -22q-51 2 -217 195h-21q0 -98 -174 -195h-65q-130 0 -130 954q0 768 -65 1106l65 43q217 0 217 -325v-1279q87 108 152 108q89 0 173 -216h22q130 1236 130 1409v195q0 116 86 151z" />
    <glyph glyph-name="x" unicode="x" horiz-adv-x="985" 
d="M213 1560h22q72 0 238 -650h22q101 585 260 585q58 0 108 -108q-82 -159 -260 -910q152 -681 282 -976q-79 -65 -152 -65q-101 0 -238 607q-37 0 -195 -607q-23 0 -65 -22q-117 0 -152 109l282 954l-282 1040q71 43 130 43z" />
    <glyph glyph-name="y" unicode="y" horiz-adv-x="1880" 
d="M44 1625h22q71 -42 347 -607l520 -737q486 725 845 1323h152v-87q-106 -313 -997 -1626q-272 -542 -304 -542h-108q-31 0 -65 65q0 68 347 672v22q-157 114 -564 802q-325 483 -325 607v43q22 65 130 65z" />
    <glyph glyph-name="z" unicode="z" horiz-adv-x="824" 
d="M709 1625q44 -52 44 -86q-195 -706 -434 -1973h22q268 -22 282 -22v-65q-44 -108 -152 -108h-260q-122 0 -152 108q369 1713 369 1865v43h-131q-117 0 -173 108q0 114 585 130z" />
    <glyph glyph-name="braceleft" unicode="{" horiz-adv-x="942" 
d="M754 1647q108 -30 108 -152q-347 -119 -347 -325v-303q0 -376 -86 -716q102 -101 151 -628q48 -39 195 -65l22 -109q0 -65 -238 -65q-217 0 -282 694q-150 71 -217 173q217 130 217 564q0 802 173 802q88 130 304 130z" />
    <glyph glyph-name="bar" unicode="|" horiz-adv-x="465" 
d="M147 1690h108q108 0 108 -845v-585q0 -334 22 -911l-65 -43h-22q-116 0 -151 87v325q0 1460 -87 1864q42 99 87 108z" />
    <glyph glyph-name="braceright" unicode="}" horiz-adv-x="725" 
d="M255 1669h22q260 0 260 -455l-65 -889q173 -53 173 -109l-86 -325q21 -117 21 -195v-43q0 -325 -347 -325q-173 0 -173 151q303 57 303 195q0 15 -108 304q0 78 87 173q-56 0 -109 174q65 985 65 1105q-173 96 -173 130v44q22 65 130 65z" />
    <glyph glyph-name="asciitilde" unicode="~" horiz-adv-x="1202" 
d="M949 607h108q31 0 65 -65v-131q-42 -303 -260 -303h-87q-117 0 -368 238h-44q-114 -173 -130 -173h-21q-122 0 -152 108q79 282 282 282h43q119 0 347 -238h87q43 0 86 152l-21 43q32 87 65 87z" />
    <glyph glyph-name="cent" unicode="&#xa2;" horiz-adv-x="877" 
d="M385 1647h22q38 0 108 -217q195 -31 195 -86v-44q0 -31 -65 -65q-16 0 -130 22q-173 0 -217 -304q0 -1257 174 -1257h22q108 65 108 174l108 21h22q31 0 65 -65v-65q0 -151 -260 -260q-43 -133 -43 -173h-65q-54 0 -109 238q-190 0 -238 780v499l-22 130q92 390 238 390
v22q0 260 87 260z" />
    <glyph glyph-name="sterling" unicode="&#xa3;" horiz-adv-x="1419" 
d="M819 1669h21q189 0 369 -195v-87l-108 -22q-219 109 -261 109q-303 -159 -303 -607v-22q0 -195 130 -195q325 0 325 -195v-22h-433q-87 -454 -87 -780q331 -130 477 -130q173 58 173 282q23 0 65 21q152 -30 152 -87v-86q0 -228 -369 -325h-21q-95 0 -564 130
q-47 0 -130 -130q-38 -22 -87 -22q-99 42 -108 87v65q173 205 260 888v22q0 50 -173 130q0 34 -44 87q159 65 217 65q0 1019 499 1019z" />
    <glyph glyph-name="currency" unicode="&#xa4;" horiz-adv-x="2243" 
d="M602 1083q89 -29 130 -108v-22q0 -117 -108 -173h-22q-173 0 -173 152v43q55 108 173 108zM1599 1083q174 -15 174 -173v-43q0 -34 -87 -87h-65q-117 0 -152 87v108q41 79 130 108zM2098 390q32 0 65 -87q-244 -564 -911 -564q-1069 90 -1192 521v21q0 32 65 65h43
q410 -411 1041 -411h87q484 0 715 455h87z" />
    <glyph glyph-name="section" unicode="&#xa7;" horiz-adv-x="2048" 
d="M472 1083q152 -42 152 -151q-44 -152 -174 -152q-101 0 -152 130q22 173 174 173zM1512 1083q152 -49 152 -195q-30 -108 -152 -108q-173 16 -173 152q43 151 173 151zM147 542q1821 -557 1821 -629v-65l-87 -65q-1484 477 -1821 607v87q0 54 87 65z" />
    <glyph glyph-name="dieresis" unicode="&#xa8;" horiz-adv-x="721" 
d="M74 1289l71 72q13 12 25 12q11 0 27 -14l69 -73q10 -14 10 -25q0 -13 -12 -27l-69 -75q-17 -17 -25 -17q-14 0 -25 12l-76 86q-9 12 -9 23q0 13 14 26zM439 1289l71 72q13 12 25 12q11 0 27 -13l69 -74q10 -14 10 -25q0 -13 -12 -26l-69 -76q-17 -17 -25 -17
q-14 0 -25 12l-76 87q-9 11 -9 22q0 13 14 26z" />
    <glyph glyph-name="copyright" unicode="&#xa9;" horiz-adv-x="1983" 
d="M1052 1430h174q151 0 520 -433q43 -195 43 -282q0 -794 -628 -1084q-49 0 -87 -22q-573 87 -759 239q-195 228 -195 455q0 694 173 694q307 433 759 433zM337 477q0 -564 368 -564q0 -29 347 -87q295 0 477 651q22 27 22 151v217q0 228 -434 369q0 21 -22 21h-43
q-357 0 -672 -498q-43 -151 -43 -260zM1030 1062q137 0 282 -195v-109q0 -43 -43 -43h-65q-109 62 -109 130h-86q-195 -130 -195 -325v-43q21 -174 173 -174q163 43 195 43q130 -52 130 -130q0 -99 -260 -108q-477 43 -477 434v43q79 477 455 477z" />
    <glyph glyph-name="registered" unicode="&#xae;" horiz-adv-x="1896" 
d="M905 1452q626 0 911 -650v-304q0 -265 -455 -824q-187 -151 -347 -151h-87q-599 0 -824 628q-43 249 -43 347q0 681 737 954h108zM298 498v-65q0 -554 412 -672l217 -43q412 75 412 325q-361 238 -477 238l22 -260q0 -112 -65 -130h-65q-109 65 -109 152q-21 700 -21 954
q30 108 151 108q521 -89 521 -325v-22q-33 -159 -239 -325q22 0 390 -238h22q130 325 130 412v130q0 329 -650 520q-339 -80 -542 -347q-109 -237 -109 -412zM884 888l-22 -43v-217q113 0 173 109q0 151 -151 151z" />
    <glyph glyph-name="degree" unicode="&#xb0;" horiz-adv-x="899" 
d="M298 1604q445 0 521 -304v-21q-74 -456 -369 -456q-390 69 -390 369q0 239 238 412zM298 1214v-87q41 -79 131 -109q173 87 173 239v65q-10 45 -108 87q-196 -28 -196 -195z" />
    <glyph glyph-name="plusminus" unicode="&#xb1;" horiz-adv-x="1224" 
d="M602 1235h22q151 0 151 -260q0 -22 -21 -22q0 -86 281 -108q44 -53 44 -87l-22 -108h-43l-260 22v-174l21 -130q-16 -152 -151 -152q-109 0 -109 434v43q-279 -21 -325 -43q-89 30 -130 108v22q0 101 477 130v260q0 31 65 65zM190 -174h802q117 0 152 -87v-65
q0 -31 -65 -65h-694q-252 0 -303 130q1 30 108 87z" />
    <glyph glyph-name="acute" unicode="&#xb4;" horiz-adv-x="601" 
d="M351 1375q35 35 55.5 47t40.5 12q33 0 53.5 -20t20.5 -51q0 -22 -15.5 -42t-46.5 -40l-330 -203h-69z" />
    <glyph glyph-name="paragraph" unicode="&#xb6;" horiz-adv-x="2221" 
d="M559 1083q113 0 173 -108v-22q0 -117 -108 -173h-87q-108 43 -108 152v43q40 79 130 108zM1447 1018h391q31 0 65 -65v-43q-36 -87 -152 -87h-304q-34 0 -86 87v22q0 34 86 86zM2098 390q43 -7 43 -44v-21q0 -390 -715 -564q-22 -22 -174 -22q-1069 90 -1192 521v21
q0 32 65 65h43q408 -411 1041 -411h87q559 41 693 455h109z" />
    <glyph glyph-name="bullet" unicode="&#xb7;" horiz-adv-x="509" 
d="M277 1495q130 0 152 -173q0 -136 -174 -152q-118 0 -195 152q83 173 217 173z" />
    <glyph glyph-name="bullet" unicode="&#x2219;" horiz-adv-x="509" 
d="M277 1495q130 0 152 -173q0 -136 -174 -152q-118 0 -195 152q83 173 217 173z" />
    <glyph glyph-name="bullet" unicode="&#x2022;" horiz-adv-x="509" 
d="M277 1495q130 0 152 -173q0 -136 -174 -152q-118 0 -195 152q83 173 217 173z" />
    <glyph glyph-name="cedilla" unicode="&#xb8;" horiz-adv-x="548" 
d="M60 -290q85 -52 152 -52q66 0 94.5 21.5t28.5 66.5t-49 64q-40 16 -102 16q-16 0 -34 -2l48 176h63l-37 -104q32 4 62 5q86 0 134 -40.5t48 -113.5q0 -76 -58.5 -120.5t-160.5 -44.5q-109 0 -189 32v96z" />
    <glyph glyph-name="circumflex" unicode="&#x2c6;" horiz-adv-x="722" 
d="M60 1079l232 355h118l232 -355h-58l-233 216l-233 -216h-58z" />
    <glyph glyph-name="caron" unicode="&#x2c7;" horiz-adv-x="722" 
d="M60 1434h58l233 -214l233 214h58l-232 -356h-118z" />
    <glyph glyph-name="breve" unicode="&#x2d8;" horiz-adv-x="724" 
d="M60 1349h51q17 -73 75 -107t167 -34t166 33.5t74 107.5h51q-20 -133 -94 -201.5t-197 -68.5q-122 0 -197 69t-96 201z" />
    <glyph glyph-name="dotaccent" unicode="&#x2d9;" horiz-adv-x="355" 
d="M74 1289l69 72q6 6 13 9t14 3q6 0 12.5 -3t12.5 -9l71 -76q5 -4 7 -10t2 -14q-1 -9 -3 -15t-8 -12l-71 -76q-12 -11 -16 -13.5t-7 -2.5q-10 0 -16.5 2.5t-10.5 8.5l-75 87q-4 4 -6 9.5t-2 13.5q0 6 3 12.5t11 13.5z" />
    <glyph glyph-name="ring" unicode="&#x2da;" horiz-adv-x="495" 
d="M136 1257q0 -42 29 -71t71 -29t71 29t29 71q0 40 -29.5 69.5t-70.5 29.5t-70.5 -29.5t-29.5 -69.5zM60 1257q0 75 51 126t125 51q76 0 127.5 -51.5t51.5 -125.5q0 -75 -51.5 -126.5t-127.5 -51.5q-74 0 -125 51.5t-51 126.5z" />
    <glyph glyph-name="ogonek" unicode="&#x2db;" horiz-adv-x="508" 
d="M331 0q-71 -62 -110.5 -119.5t-39.5 -112.5q0 -47 27 -75t73 -28q40 0 69.5 15.5t49.5 48.5l28 -16q-36 -63 -90.5 -97t-119.5 -34q-70 0 -114 35.5t-44 90.5q0 76 60.5 156.5t161.5 135.5h49z" />
    <glyph glyph-name="tilde" unicode="&#x2dc;" horiz-adv-x="714" 
d="M634 1382q-20 -103 -68.5 -154t-126.5 -51h-4q-50 0 -113 23q-66 24 -114 24q-39 0 -60.5 -20.5t-33.5 -71.5h-54q19 106 68 158.5t129 52.5q46 -1 113 -24q64 -23 112 -23h4q36 0 58 20t36 66h54z" />
    <glyph glyph-name="hungarumlaut" unicode="&#x2dd;" horiz-adv-x="729" 
d="M60 1079l144 273q24 44 45.5 63t46.5 19q28 0 48 -20t20 -47q0 -16 -10.5 -35t-30.5 -41l-205 -212h-58zM345 1079l144 273q24 44 45.5 63t46.5 19q28 0 48 -20t20 -47q0 -16 -10.5 -35t-30.5 -41l-205 -212h-58z" />
    <glyph glyph-name="quoteleft" unicode="&#x2018;" horiz-adv-x="487" 
d="M190 1088q-130 45 -130 173v44q45 347 282 347l22 -44v-43q-65 -69 -65 -174q82 -82 108 -151q-56 -152 -217 -152z" />
    <glyph glyph-name="quoteright" unicode="&#x2019;" horiz-adv-x="487" 
d="M277 1652q130 -45 130 -173v-44q-45 -347 -282 -347l-22 44v43q65 69 65 174q-82 82 -108 151q56 152 217 152z" />
    <glyph glyph-name="quotedblleft" unicode="&#x201c;" 
d="M190 1088q-130 45 -130 173v44q45 347 282 347l22 -44v-43q-65 -69 -65 -174q82 -82 108 -151q-56 -152 -217 -152zM676 1088q-130 45 -130 173v44q45 347 282 347l22 -44v-43q-65 -69 -65 -174q82 -82 108 -151q-56 -152 -217 -152z" />
    <glyph glyph-name="quotedblright" unicode="&#x201d;" 
d="M277 1652q130 -45 130 -173v-44q-45 -347 -282 -347l-22 44v43q65 69 65 174q-82 82 -108 151q56 152 217 152zM763 1652q130 -45 130 -173v-44q-45 -347 -282 -347l-22 44v43q65 69 65 174q-82 82 -108 151q56 152 217 152z" />
    <glyph glyph-name="dagger" unicode="&#x2020;" horiz-adv-x="2243" 
d="M602 1083q89 -29 130 -108v-22q0 -117 -108 -173h-22q-118 0 -173 108v87q55 108 173 108zM1642 1083q131 -44 131 -173v-43q0 -34 -87 -87h-65q-117 0 -152 87v108q56 108 173 108zM905 390h130q743 0 1128 -499q-37 -108 -109 -108l-260 217q-463 216 -824 216
q-511 0 -715 -390q0 -34 -87 -87h-43q-31 0 -65 66q0 391 672 563q22 22 173 22z" />
    <glyph glyph-name="daggerdbl" unicode="&#x2021;" horiz-adv-x="1072" 
d="M450 1582h65l109 -22v-498q303 -22 303 -109v-65l-43 -65q-250 22 -282 44v-629q7 -43 43 -43q90 0 239 21q99 -42 108 -86v-22q-55 -108 -173 -108h-152q-43 -7 -43 -44v-477q0 -31 -65 -65h-65q-109 56 -109 174v347q0 37 -260 86l-22 109v21l109 22h151v217
q0 141 22 433q-325 30 -325 152q107 65 325 87q22 325 22 477q7 43 43 43z" />
    <glyph glyph-name="ellipsis" unicode="&#x2026;" horiz-adv-x="1622" 
d="M306 -48l19 -11q83 -48 83 -118q0 -41 -28 -89l-21 -37q-55 -36 -109 -36q-48 0 -96 28q-94 54 -94 200q0 14 1 29q79 60 152 60q48 0 93 -26zM872 -48l19 -11q84 -48 84 -119q0 -40 -28 -88l-21 -37q-55 -36 -110 -36q-48 0 -96 28q-93 54 -93 200q0 14 1 29
q79 60 151 60q48 0 93 -26zM1439 -48l19 -11q84 -48 84 -119q0 -40 -28 -88l-22 -37q-55 -36 -109 -36q-48 0 -96 28q-94 54 -94 202q0 13 1 27q80 60 152 60q48 0 93 -26z" />
    <glyph glyph-name="Euro" unicode="&#x20ac;" horiz-adv-x="1971" 
d="M1450 1517q520 -65 520 -238l-108 -65q-303 108 -499 108q-484 0 -867 -412q-22 -38 -22 -87q255 -21 369 -21h477q86 -36 86 -152q0 -22 -86 -65q-206 43 -260 43q-469 -43 -651 -43v-108l-21 -44q48 0 86 -22l824 66q130 0 130 -152q-31 0 -65 -65q-434 -22 -650 -22
h-282q100 -520 629 -520h43q226 49 737 260l87 -22v-108q0 -100 -564 -282q-163 -43 -303 -43h-65q-534 0 -803 650q-192 116 -195 152q0 50 174 130q21 117 21 195v22q-183 0 -238 108v65q7 43 43 43h217q68 20 152 239q144 195 845 368q149 22 239 22z" />
    <glyph glyph-name="trademark" unicode="&#x2122;" horiz-adv-x="1766" 
d="M537 1712q368 0 629 -303h21q0 65 217 238h87q102 0 195 -759l-65 -43q-195 0 -195 434v21h-22l-152 -151h-43q-39 0 -195 65v-196q0 -116 -87 -151q-135 43 -152 108v520h-151q-109 -5 -109 -43q44 -447 44 -607l-22 -43q-217 0 -217 281q0 391 -130 391
q-130 34 -130 151q205 87 477 87z" />
  </font>
</defs>
</svg>
