<?xml version="1.0" standalone="no"?>
<!DOCTYPE svg PUBLIC "-//W3C//DTD SVG 1.1//EN" "http://www.w3.org/Graphics/SVG/1.1/DTD/svg11.dtd" >
<svg xmlns="http://www.w3.org/2000/svg" xmlns:xlink="http://www.w3.org/1999/xlink" version="1.1">
<metadata>
Created by FontForge 20170731 at Fri Feb 17 23:50:35 2017
 By Aleksey,,,
Copyright (c) 2015 by Set Sail Studios. All rights reserved.
</metadata>
<defs>
<font id="MadinaCleanOrnaments" horiz-adv-x="706" >
  <font-face 
    font-family="Madina Clean Ornaments"
    font-weight="400"
    font-stretch="normal"
    units-per-em="1000"
    panose-1="0 0 0 0 0 0 0 0 0 0"
    ascent="800"
    descent="-200"
    x-height="465"
    cap-height="361"
    bbox="-113 -673.889 1896.4 1251"
    underline-thickness="50"
    underline-position="-150"
    unicode-range="U+000D-007A"
  />
<missing-glyph 
 />
    <glyph glyph-name=".notdef" 
 />
    <glyph glyph-name=".null" horiz-adv-x="0" 
 />
    <glyph glyph-name="nonmarkingreturn" unicode="&#xd;" 
 />
    <glyph glyph-name="NULL" horiz-adv-x="0" 
 />
    <glyph glyph-name="NULL" horiz-adv-x="0" 
 />
    <glyph glyph-name="space" unicode=" " horiz-adv-x="500" 
 />
    <glyph glyph-name="A" unicode="A" horiz-adv-x="1764" 
d="M1800 220q-4 -12 -13 -20.5t-17 -16.5q-26 -26 -56 -47t-68 -34q-55 -19 -117.5 -18t-123.5 13q-76 15 -144 38.5t-132 51t-126 57.5t-125.5 57.5t-131 51.5t-142.5 39q-57 11 -120.5 16t-130.5 5q-63 0 -123 -12.5t-99 -38.5q-9 -6 -16.5 -13t-12.5 -18
q-4 -7 -4.5 -16.5t-5.5 -17.5q-14 3 -20.5 11.5t-7.5 19.5t2 22.5t9 20.5q18 27 51 45t74.5 28.5t87.5 16t90 7.5q118 5 217.5 -13t184.5 -50t162.5 -70t156.5 -75q40 -19 79.5 -36.5t80.5 -35.5q41 -19 83 -34.5t89 -25.5q24 -5 50.5 -7.5t53.5 -2t52.5 4t47.5 11.5
q33 11 58 28t48 40l11.5 11.5t14 10.5t16 4t17.5 -8z" />
    <glyph glyph-name="B" unicode="B" horiz-adv-x="1324" 
d="M1424 358q-9 -18 -22 -33t-26 -29q-38 -44 -80.5 -83t-92.5 -74q-31 -21 -67.5 -41t-78.5 -34t-89.5 -21.5t-101.5 -4.5q-51 3 -96 12.5t-87 23t-81.5 29.5t-77.5 33q-37 17 -75 33.5t-80 31.5q-39 15 -85 28t-98 9q-28 -2 -52 -10.5t-41 -20.5q-9 -7 -16.5 -16.5
t-16.5 -15.5q2 25 6.5 36.5t15.5 22.5q22 23 64 32.5t85 7.5q47 -2 85.5 -16.5t75.5 -29.5q38 -15 72.5 -31.5t70.5 -32.5q37 -16 74.5 -31.5t77 -28t82.5 -21t90 -9.5q53 -2 97 6t82 22t69.5 35t60.5 42q45 32 89 65t86 71q6 5 13.5 12t16.5 13.5t18 11.5t17 6q5 1 8 0.5
t8 -0.5z" />
    <glyph glyph-name="C" unicode="C" horiz-adv-x="1341" 
d="M1429 379h2q2 -14 -4 -26t-12 -22q-19 -31 -43.5 -58t-48.5 -53q-97 -105 -207 -199.5t-238 -166.5q-42 -24 -87.5 -46.5t-96.5 -40.5t-107 -30t-119 -14q-99 -4 -187 12t-151 54q-9 5 -20 12.5t-21.5 16.5t-18.5 18.5t-12 20.5q-2 5 -4.5 16t-2.5 22.5t3.5 19.5t13.5 7
q6 -1 7.5 -6.5t2 -12.5t0 -14.5t0.5 -11.5q3 -11 10.5 -20t18 -16t22 -12.5t20.5 -9.5q65 -29 152 -42.5t180 -2.5q111 12 207.5 48.5t176.5 83.5q142 83 265.5 185.5t231.5 220.5q7 8 15 16.5t16 16.5t16.5 17.5t19.5 16.5z" />
    <glyph glyph-name="D" unicode="D" horiz-adv-x="977" 
d="M166 -281q-6 -1 -10 3l-7 7q-5 4 -9.5 7t-13.5 3q-13 0 -23 -9t-16.5 -21.5t-9.5 -27.5t-3 -28q0 -23 9.5 -40.5t23.5 -27.5q23 -17 53.5 -27.5t69.5 -10.5q46 0 88.5 9.5t80.5 21.5t70.5 29.5t61.5 37.5q73 49 135 112t115.5 135.5t97.5 153.5t81 167q7 17 14 35t14 37
q4 11 8.5 25t9.5 27t12.5 23.5t17.5 16.5q8 5 9.5 -1t-1 -16t-5.5 -20t-4 -13q-65 -195 -162.5 -363.5t-236.5 -289.5q-39 -34 -79 -63.5t-86 -52.5q-47 -23 -101 -40t-122 -17q-65 0 -116.5 19.5t-75.5 69.5q-12 25 -15.5 57t4.5 62q6 25 22 47.5t40 30.5q16 5 30 1.5
t23 -13.5t11 -24.5t-5 -31.5z" />
    <glyph glyph-name="E" unicode="E" horiz-adv-x="1677" 
d="M1755 372q0 -16 -8.5 -29.5t-16.5 -25.5q-42 -67 -91.5 -129.5t-111.5 -114.5t-138 -88.5t-170 -50.5q-73 -11 -145.5 2t-132.5 35q-57 21 -113.5 47t-116.5 49q-117 45 -252 73t-295 28q-58 0 -110 -10.5t-102 -21.5l-32 -8t-33 -6q2 16 15 24t26 15q46 23 107 34.5
t127 14.5t133 -2.5t127 -17.5q69 -14 131.5 -32t122.5 -39t116 -47t111 -50q58 -26 122.5 -43t145.5 -12q74 4 135 24t113 50.5t96 68t84 78.5q41 41 77 86.5t61 99.5q4 1 10 1.5t8 -3.5z" />
    <glyph glyph-name="F" unicode="F" horiz-adv-x="1594" 
d="M1413 -77q51 11 101 11t89 -23q36 -21 57.5 -58t27.5 -85q8 -58 -7 -98.5t-41 -75.5q-26 -34 -56.5 -59.5t-75.5 -36.5q-19 -5 -39.5 1t-37.5 13q-14 6 -28.5 12.5t-25.5 14.5q-22 17 -37 52.5t-18 72.5q-3 40 3 81.5t14 78.5q-69 -26 -133.5 -57t-127.5 -63t-127 -64
t-132 -61q-66 -28 -140 -50.5t-159 -33.5q-91 -11 -176 0t-144 50q-57 38 -94 98.5t-49 141.5q-7 46 -2 87.5t18.5 77.5t32.5 65.5t41 53.5t50 45t61 36q34 15 73.5 24.5t85.5 3.5q60 -8 100.5 -42t48.5 -96q3 -23 -3 -43q-2 -7 -6 -15.5t-12 -11.5q-5 10 -2.5 21.5
t0.5 22.5q-5 37 -23 65t-47 42q-29 15 -70 15.5t-79 -10.5q-48 -14 -89.5 -40t-72 -64t-49 -86.5t-19.5 -107.5q-1 -40 8 -75.5t23 -67.5q28 -60 80 -96t127 -49q42 -7 83 -6t80 8q38 7 75.5 14t69.5 17q69 20 131 46.5t121 53.5q61 28 116.5 60.5t111.5 64.5t115 60.5
t128 48.5q16 46 38.5 88t48.5 81t54 76.5t56 74.5q8 11 18 23t20 25q4 4 9.5 12t12.5 15t13.5 12.5t11.5 5.5t6 -4t0 -9.5t-3 -10t-3 -5.5q-8 -21 -22 -38t-27 -33q-53 -66 -102 -141t-81 -156zM1395 -439q13 -11 33.5 -18.5t46.5 -3.5q17 2 35 14.5t32 23.5
q20 17 38.5 40.5t32 51.5t20.5 60.5t4 68.5q-3 41 -30 63.5t-73 19.5q-43 -3 -79 -14.5t-71 -25.5q-8 -29 -16 -68.5t-9.5 -79.5t6 -75.5t30.5 -56.5z" />
    <glyph glyph-name="G" unicode="G" horiz-adv-x="866" 
d="M931 344q3 -17 -5.5 -35t-15.5 -32q-24 -48 -55.5 -85.5t-71.5 -69.5q-53 -42 -115 -74.5t-140 -46.5q-36 -46 -84.5 -86t-110.5 -70q-18 -9 -44.5 -15.5t-55.5 -9.5t-58.5 -1.5t-55 8t-44 20t-25.5 34.5q-4 12 -5.5 27t0 30t6 27.5t12.5 18.5q8 -15 8 -32t8 -30
q12 -22 37.5 -33.5t57 -15t64.5 0t60 12.5q48 16 83.5 45t60.5 62q-31 2 -59 11t-49 24.5t-32.5 39.5t-8.5 56q2 28 16.5 54t37.5 45.5t52.5 30.5t61.5 9q17 -1 30.5 -6t26.5 -15q14 -11 27 -28t22 -38t11.5 -45t-5.5 -48q-3 -8 -6 -14.5t-7 -14.5q32 7 59 19t51 27t46 31.5
t45 33.5q35 26 62 54.5t53 64.5q10 14 20 31.5t25 26.5q3 3 10 2zM504 91q5 12 11.5 30.5t2.5 35.5q-3 10 -15.5 18t-20.5 12q-23 11 -46 10.5t-43.5 -9t-36.5 -23t-25 -30.5q-5 -7 -7.5 -17t-1.5 -18q1 -23 15 -36t36.5 -19t49.5 -6.5t53 0.5q8 12 14.5 24.5t13.5 27.5z
" />
    <glyph glyph-name="H" unicode="H" horiz-adv-x="668" 
d="M670 163q-3 -12 -11.5 -35t-13.5 -43q-5 -16 -11 -30.5t-11 -29.5q-5 2 -3 -0.5t2 -5.5q-1 -5 -4.5 -9t-5.5 -5q0 -3 1.5 -2t3.5 1q0 -4 -3 -9t-6 -9.5t-4.5 -7.5t1.5 -1q-1 -5 -2 -5t-4 -2q-1 -2 1 -2t1 -2q-19 -35 -39.5 -65.5t-52.5 -50.5q-7 -17 -14.5 -34t-14.5 -31
q-2 -1 -4.5 -1.5t-1.5 -4.5v0h2q-2 -10 -8 -12.5t-8 -11.5q0 -2 1.5 -1t0.5 3q-2 -10 -9 -17t-13 -15q-3 -2 -7 -8q-4 -10 -15.5 -20.5t-22.5 -18.5q-1 0 -1 -0.5t1 -0.5q-52 -46 -128 -65q-3 -1 -1.5 0.5t-0.5 1.5q-16 -8 -38 -4.5t-39 5.5q2 -2 5.5 -2t5.5 -2
q-34 8 -60.5 26.5t-46 43.5t-33 56t-22.5 65q0 5 2 5q-5 9 -7 23t0 23q-1 0 -1 4q0 1 1 2q0 5 -2 12.5t-2 13.5q0 12 2 24t5 24q1 2 0 4.5t0 4.5t2.5 2.5t1.5 2.5q1 3 0 6t0 6q1 2 2.5 3.5t2.5 3.5t0.5 7t1.5 9q2 5 6.5 10t5.5 12q4 0 4 1v0q-2 0 -2 1q-1 2 4 2q0 2 -1 3.5
t0 3.5q9 11 15.5 24t20.5 20q0 2 -1 3t2 1q3 -2 5.5 0.5t4.5 3.5q-2 2 -5 -0.5t-5 -3.5q4 5 8 9.5t9 1.5q1 3 4 4q-1 2 -2 0.5t-3 -0.5q13 5 24 12.5t28 12.5q1 -2 -0.5 -2t-1.5 -2q-5 0 -6 -2q2 -2 3.5 -0.5l2.5 2.5q5 2 9 3.5t10 1.5q18 2 31 -7.5t18 -20.5q-2 2 -3 -1h-2
q0 -1 1 -1t1 1q3 0 3 1h2q6 -11 7.5 -30t-8.5 -29q-1 5 -1 15q-2 1 -3 4t-5 0q-3 11 -9 16t-12 12q-3 1 -3.5 -0.5t-2.5 -1.5q-27 0 -52 -14t-43.5 -37t-30.5 -52t-14 -60q-5 -76 21 -136t67 -92q0 -4 1 -3t2 -1q0 -1 1 -1q0 -2 1.5 -2t0.5 2q3 0 3 -2q-2 0 -2 -0.5t2 -0.5
q0 -1 1 -1q0 -1 2 -1q0 -2 3 -2q0 -1 2 -1q0 -1 2 -1v0q0 1 -2 1q0 1 -2 1q0 2 -3 2q0 1 -2 1q0 1 -1 1v1q13 -6 30.5 -11t31.5 -3q3 1 3 -1.5t2 -2.5q0 2 -1 2.5t1 0.5q14 1 27 4t22 3h-3q0 -1 1.5 -1t1.5 1q4 0 4 1q14 8 31 20t31 20v0q14 12 28.5 28t29.5 30q-1 2 -0.5 3
t0.5 4q23 29 40 66q0 2 -1.5 1.5t-0.5 1.5q-61 6 -94.5 44t-24.5 102q0 3 1.5 4t2.5 3q-1 3 -0.5 4t-0.5 3q9 16 18.5 31.5t26.5 23.5q5 7 25.5 13t37.5 4q6 -1 11.5 -4t10.5 -1q5 -4 10 -6.5t7 -9.5q7 -2 12.5 -9.5t14.5 -8.5q38 -34 31 -99q1 0 1 1.5t1 -0.5
q7 8 12.5 21.5t13.5 22.5q11 28 21.5 56.5t21.5 53.5q-2 2 -0.5 3.5t-0.5 3.5q6 17 12.5 37.5t11.5 39.5q5 7 7 15.5t4 18.5q25 82 71 148q4 2 6.5 5.5t6.5 5.5q14 0 17.5 -6t2 -15t-6.5 -19t-8 -17q-6 -16 -12.5 -34.5t-12.5 -37t-12 -35.5t-10 -30zM175 97q-3 0 -3 -1
q3 0 3 1v0zM203 97q-3 0 -3 -1q3 0 3 1zM204 94q2 0 3.5 1t-0.5 2q0 -2 -1.5 -1.5t-1.5 -1.5zM218 92q-4 1 -2.5 -0.5t2.5 0.5v0zM217 87h2q0 1 0.5 1t0.5 2h-2q0 -1 -0.5 -1t-0.5 -2zM138 87q3 -1 1.5 0.5t-1.5 -0.5zM368 -3q-18 -14 -24 -35.5t-1.5 -42.5t20.5 -37t42 -19
q14 -2 22 0.5t24 6.5q3 14 7.5 30t7.5 33t4 33.5t-2 31.5q-8 11 -21.5 14.5t-28.5 2t-28.5 -6.5t-21.5 -11v0zM612 0v0v0v0zM558 -14q-2 0 -0.5 -1.5t0.5 1.5v0v0zM46 -31q2 -3 1.5 -0.5t-1.5 0.5zM593 -34q1 -3 1 0t-1 0zM573 -78q0 2 2 4q-2 1 -3 -1t1 -3v0zM552 -107
q0 1 1 1.5t-1 1.5q0 -1 -1 -1.5t1 -1.5v0zM543 -119q0 2 2 2t1 2q-2 0 -3.5 -1.5t0.5 -2.5v0zM538 -122q3 0 3 2q-3 0 -3 -2zM527 -130v0v0zM520 -137q-3 0 -3 -1q3 0 3 1zM468 -230q3 -1 1.5 0.5t-1.5 -0.5v0zM284 -340q-3 1 -1.5 -0.5t1.5 0.5v0v0zM186 -350v-1
q9 -1 15.5 -3.5t15.5 -0.5q0 -2 1.5 -0.5t-1.5 0.5q-8 2 -15.5 3t-15.5 2q-4 2 -9 4t-9 1q5 -1 9 -4t9 -1zM292 -351q-2 0 -2 -1q-2 0 -2 -1v0q2 0 2 1q2 0 2 1q3 0 5 3q-2 0 -5 -3v0zM250 -349q-3 0 -3 -1q3 0 3 1zM269 -359q3 3 6.5 2t5.5 3q-4 0 -8.5 -1.5t-3.5 -3.5v0z
M334 -361q1 -3 1 0t-1 0zM177 -382q2 2 -0.5 2.5t-2.5 -1.5zM181 -384q3 0 4 -1q0 2 1 3q-2 -1 -3 -0.5t-2 -1.5zM670 163zM186 105zM185 104q0 1 1 1q0 -1 -1 -1zM605 -23q0 3 1 4q2 0 1 -2t-2 -2v0zM467 -239q0 -1 -1 -1.5t-1 -1.5q-2 0 -1 2t3 1zM441 -275zM440 -276v1h1
q0 -1 -1 -1v0zM433 -283v0v0zM395 -323v1q1 0 1 -0.5t-1 -0.5zM150 -333q0 3 3 0v-1h-2q0 1 -1 1zM276 -343q-4 -1 -1.5 1.5t1.5 -1.5zM201 -389q2 0 2 -0.5t1 -0.5q0 -2 -2.5 -1.5t-0.5 2.5z" />
    <glyph glyph-name="I" unicode="I" horiz-adv-x="1504" 
d="M297 -224q9 -17 0.5 -34t-18.5 -26q-15 -14 -34.5 -19t-40.5 -3.5t-41 8t-36 17.5q-23 14 -45 39.5t-36.5 57t-16 68t17.5 72.5q20 38 53.5 62t77.5 41q42 16 93.5 23.5t108.5 -0.5q51 -7 95.5 -20.5t86 -30.5t80.5 -36.5t79 -38.5q38 -20 77.5 -39t84.5 -33
q21 -7 46 -11t51 -4t51.5 5.5t47.5 16.5q-5 10 -11 15.5t-10 13.5q-16 30 -15 65t19 64q15 23 39.5 45t50.5 28q16 4 33.5 1t32 -11.5t24.5 -21t12 -26.5t-0.5 -27t-7.5 -25t-11.5 -22.5t-12.5 -17.5q-14 -19 -28.5 -34.5t-28.5 -29.5q45 5 79 25.5t63 44.5q72 60 126 137
t90 175q7 17 15 39.5t20 31.5q7 5 15 -2t10 -12q2 -11 -3 -25t-8 -23q-20 -58 -47 -112.5t-61 -102.5t-75 -88.5t-89 -70.5q-30 -19 -68 -36t-85 -17q-6 0 -13 1.5t-14 0.5q-10 -2 -20 -8.5t-19 -10.5q-29 -13 -68 -19t-81 -1q-52 5 -93 21.5t-79 36.5q-75 40 -154.5 76
t-170.5 59q-51 12 -104 15t-101 -6t-86.5 -30t-60.5 -55q-12 -19 -17.5 -43t-0.5 -50q5 -23 16 -41t23 -35q9 -13 26 -28t38.5 -24.5t45 -10.5t45.5 14q3 2 7.5 5.5t6.5 7.5q3 4 4 9t2.5 9.5t5.5 7.5t12 3zM1202 12q4 9 7.5 26t-3.5 26q-6 7 -18.5 8.5t-24.5 0.5
q-35 -3 -59 -32q-11 -14 -18.5 -33.5t-8 -38.5t7 -35t27.5 -22q27 19 51.5 43.5t38.5 56.5z" />
    <glyph glyph-name="J" unicode="J" horiz-adv-x="746" 
d="M292 -38q3 13 9.5 25.5t11 25t5 26t-6.5 28.5q-9 18 -27 26.5t-39.5 9t-43.5 -5t-39 -14.5q-39 -22 -67 -63t-31 -98q-2 -36 4 -66t21.5 -52.5t40 -35.5t59.5 -14q45 -2 82 11t71 30q68 33 119.5 76.5t99.5 95.5q23 26 46 51.5t43 54.5q31 45 54 92.5t49 98.5q8 16 15 33
t18 31q4 5 13.5 13.5t17.5 6.5q8 -11 3 -25.5t-9 -24.5q-35 -79 -75.5 -154t-89.5 -140q-57 -75 -127.5 -138t-153.5 -105q-19 -10 -43.5 -20.5t-52 -17t-57 -7.5t-58.5 8q-45 14 -76 55t-38 93q-9 68 5.5 118.5t45.5 86.5q13 15 32.5 31t43.5 27t51 13.5t56 -8.5
q11 -5 23.5 -14t23.5 -22t18 -28t7 -31q-1 -14 -7 -27t-12 -24q-7 -11 -15 -20.5t-20 -11.5z" />
    <glyph glyph-name="K" unicode="K" horiz-adv-x="966" 
d="M1056 334h2q-2 -23 -9.5 -45t-14.5 -43q-22 -63 -50.5 -120t-66.5 -105q-26 -32 -56.5 -58t-65 -48t-73 -40.5t-78.5 -36.5q20 -39 27.5 -83.5t-2.5 -90.5q-9 -45 -27 -79t-41 -63q-45 -57 -106.5 -104t-136.5 -73q-41 -14 -89 -18t-89 10q-56 19 -93.5 63.5t-45.5 112.5
q-3 23 2 46t13 42q14 35 39.5 64.5t57.5 48.5q19 11 44 16t48.5 1.5t41.5 -16t23 -35.5q4 -19 -0.5 -38.5t-13.5 -29.5q-5 23 -12 41t-24 30q-8 5 -20 8.5t-25.5 4t-27 -1t-23.5 -6.5q-16 -8 -29.5 -20.5t-22.5 -23.5q-21 -27 -36 -63t-4 -80q9 -38 31 -66t54 -42
t78.5 -15.5t88.5 9.5q73 19 130 62t100 94q21 26 38.5 57t28.5 69q5 18 9 38t4 41t-5 41t-17 37q-21 -5 -46 -11t-51 -8.5t-51.5 -1t-47.5 11.5q-20 9 -27 29q-6 21 -2.5 39t14 32t25.5 22.5t30 10.5q28 3 52.5 -5t44.5 -17q19 -10 37 -23q6 -5 15.5 -15.5t16.5 -11.5
q8 -1 20 5t20 9q122 54 201 146.5t133 216.5q11 25 22.5 48.5t37.5 30.5zM463 -76q-11 -2 -23.5 -7t-20.5 -14q-5 -6 -11 -18.5t-1 -22.5q2 -5 8.5 -8.5t15.5 -5t19 -2t18 -0.5q33 0 62.5 6.5t55.5 12.5q-9 12 -21 23.5t-27 20t-33.5 13t-41.5 2.5zM642 -160z" />
    <glyph glyph-name="L" unicode="L" horiz-adv-x="1180" 
d="M360 557v0q6 -2 15.5 -1t17.5 2q5 -2 4.5 -3t4.5 -3q5 -1 7 1t7 2q9 0 21.5 -4.5t23.5 -9.5q31 -13 52.5 -37.5t27.5 -57.5q4 -23 2.5 -48.5t-12.5 -45.5q-5 -8 -14 -15.5t-17 -13.5q-18 -14 -37 -22t-42 -16q-11 -4 -25 -6.5t-28 3.5q0 14 12.5 16t23.5 5
q35 14 63.5 32.5t39.5 56.5q5 35 -6 57t-26 39q-3 2 -9.5 5.5t-4.5 6.5q-14 4 -31.5 10.5t-34.5 9.5q-70 6 -130 -9t-104 -44q-39 -26 -64.5 -60.5t-37.5 -84.5q-15 -61 2 -106.5t47 -75.5q32 -31 73.5 -51.5t95.5 -24.5q21 -2 43.5 -0.5t46.5 3.5q54 4 107.5 16.5
t104.5 27.5q24 8 46.5 17.5t45.5 17.5q48 19 86 42t81 43q40 19 85.5 34.5t91.5 28.5q23 7 47.5 13.5t48.5 11.5q17 3 35.5 7t36.5 6q13 1 26.5 2t25.5 -0.5t20.5 -6t11.5 -13.5q-45 -6 -87 -14.5t-82 -18.5q-71 -17 -133 -43.5t-119 -57.5q-58 -30 -117 -60.5t-123.5 -54.5
t-135.5 -38.5t-152 -13.5q-51 0 -96.5 12.5t-82.5 36t-63 57t-39 75.5q-14 47 -11.5 93t18.5 94q8 24 22 44t31 37q29 29 66.5 46.5t77.5 33.5q23 6 37.5 8.5t35.5 6.5q13 -2 22.5 0.5t21.5 0.5q0 1 2 -1zM412 550zM520 481zM89 111v0v1q-1 0 -2.5 1t-1.5 -1q2 0 2 -0.5
t2 -0.5zM92 107q-2 -2 0 0t0 0zM94 105q1 -3 1 0t-1 0zM96 101zM123 76zM127 74zM275 17z" />
    <glyph glyph-name="M" unicode="M" horiz-adv-x="1963" 
d="M594 387q2 1 1 1t-1 -1q-55 -1 -106 1t-100 9q8 -50 -7 -87.5t-45 -58.5q-14 -9 -29.5 -14t-33.5 -10q-17 -5 -34.5 -11t-36.5 -2q-5 7 -4.5 13t2.5 12q5 21 14.5 42.5t19.5 41.5q15 29 32.5 52t43.5 37q-20 5 -42.5 16.5t-41.5 16.5q-10 2 -19 1.5t-17 0.5
q-44 5 -72.5 27.5t-45.5 54.5q-5 9 -10 22.5t-8 27.5t-2 28t9 25q6 3 11.5 2t10 -4t8 -7t7.5 -6q14 -8 30 -11t30 -9q43 -18 71.5 -50t39.5 -82q24 -11 52.5 -16.5t57.5 -10.5q-6 15 -8.5 34t-2 39.5t4 40.5t9.5 37q3 8 7 13t6 11q1 4 2.5 12l3 16t4 14t7.5 7t10 -3t9.5 -10
t8 -12t5.5 -10q12 -18 27.5 -41.5t25.5 -50t11 -54t-17 -53.5q63 -2 120.5 4t109.5 17q-38 23 -62.5 63.5t-30.5 99.5q-2 17 -3 39t10 36q8 2 12.5 -3.5t9.5 -8.5q16 -8 31 -13t29 -13q27 -15 48 -39q22 -24 38.5 -59t16.5 -78q51 15 98 33t92 38q-38 13 -63 36.5t-41 58.5
q-7 17 -13 36t-4 40q11 5 21.5 0.5t20.5 -5.5q7 -1 14 0.5t14 0.5q24 -2 48 -14t42 -24q23 -15 42.5 -34.5t19.5 -50.5q48 17 95 38.5t95.5 42t100.5 37.5t110 26q63 10 126 7.5t113 -22.5q35 -14 65 -37.5t53 -49.5q4 -4 9 -8.5t8.5 -10t4 -11.5t-3.5 -13q-17 3 -25 15
t-21 20q-41 38 -98.5 60t-125.5 27q-45 3 -92.5 -10.5t-86.5 -26.5q-60 -20 -119 -44t-116.5 -49t-113.5 -50t-110 -47q16 -21 21.5 -54t3 -67.5t-12.5 -67t-24 -51.5q-3 -4 -9 -10.5t-13.5 -13t-15 -11.5t-13.5 -5q-5 0 -10 6t-8.5 14t-6.5 15.5t-4 12.5q-7 24 -10 50.5
t-2.5 53t5.5 51t14 44.5q-57 -18 -119 -35t-134 -23q14 -12 20 -33t6 -45t-5.5 -47.5t-14.5 -39.5q-8 -14 -18 -26t-23 -20q-14 -9 -27 -19t-27 -15q-11 9 -16 25t-8 32q-3 18 -4.5 38t-0.5 39q1 21 8 37t16.5 28t21.5 21.5t24 19.5v1z" />
    <glyph glyph-name="N" unicode="N" horiz-adv-x="557" 
d="M181 861v0q-14 22 -24.5 43.5t-28.5 40.5q-19 20 -41 36.5t-34 39.5q-5 10 -8 25.5t-2 30t7 26t19 13.5q16 3 29 -6.5t21 -16.5q18 -14 31 -32.5t19 -43.5q4 -14 3.5 -27t1.5 -29q2 -9 9.5 -18.5t12.5 -17.5q6 -10 11 -19t11 -17q8 12 15.5 23.5t19.5 21.5q4 3 11 8
t15.5 9t17 5t15.5 -3q6 -3 9.5 -13t3.5 -18q1 -19 -6.5 -35.5t-18 -30t-22 -25.5t-19.5 -22q37 -79 62 -169q9 18 22.5 30t30.5 21q11 6 25 12t28 4q8 -11 7.5 -25t-5 -29t-11.5 -29t-13 -24q-13 -20 -28.5 -34.5t-37.5 -19.5q6 -45 11 -90.5t5 -96.5q11 6 23 13.5t26 14
t30.5 10t36.5 1.5t29.5 -15t1.5 -34q-7 -18 -23.5 -32.5t-38 -25t-45 -18t-43.5 -11.5q-2 -42 -7.5 -79t-11.5 -75q11 5 24.5 11t28.5 10.5t31.5 7t34.5 0.5q8 -1 15 -3t11 -9q-1 -29 -15 -49t-34 -35q-23 -17 -52.5 -32t-67.5 -9q-9 -33 -18 -66.5t-20 -65.5q14 7 34.5 10
t40.5 1.5t36 -8.5t22 -22q1 -19 -9 -35q-12 -17 -32 -29.5t-44.5 -20.5t-51 -13.5t-51.5 -9.5q-25 -45 -53.5 -85t-64.5 -75q-3 -3 -10 -9.5t-15 -13t-16 -11.5t-13 -5q-8 1 -14 9.5t-6 16.5q0 7 5 13t11.5 11.5t13.5 10t11 8.5q33 33 61.5 69t46.5 78q-17 15 -36 31.5
t-34.5 36t-26.5 43t-11 53.5q0 14 4 28.5t15 16.5q10 2 22.5 -6.5t18.5 -14.5q26 -23 42.5 -52t28.5 -63q22 44 38 92.5t33 97.5q-6 4 -12.5 6.5t-11.5 7.5q-11 10 -23 27t-21 38.5t-13.5 45t-2.5 45.5q1 13 7 19t14 7.5t17.5 -2t17.5 -9.5q20 -15 31.5 -44t17.5 -55
q11 38 18 79t11 86q-18 10 -37 23t-36 33q-14 17 -28.5 40t-12.5 49q1 19 16 25q21 1 34 -10.5t24 -22.5q21 -21 42 -50q-4 51 -11.5 97t-18.5 90q-21 2 -39.5 13t-34.5 24q-20 16 -36 35.5t-18 49.5q10 14 24 14t28.5 -6.5t27.5 -16.5t22 -16q-12 40 -24.5 78t-27.5 74
q-22 0 -44 4t-41.5 11.5t-34.5 19t-22 27.5q-2 6 -3 14t3 15q12 7 27 5.5t30 -7t29.5 -12.5t24.5 -11h1zM-47 365z" />
    <glyph glyph-name="O" unicode="O" horiz-adv-x="1342" 
d="M691 374q-42 16 -85.5 33t-89.5 31q-15 5 -31 7t-28 13q18 10 38.5 7.5t37.5 -6.5q46 -10 85.5 -23.5t81.5 -29.5q8 -3 17.5 -7.5t14.5 -4.5q7 0 18 6t21 11q30 13 61 21t67 16q28 6 61.5 10.5t65.5 3.5t58.5 -9.5t38.5 -28.5q5 -8 9.5 -23.5t-0.5 -28.5q-3 -10 -11 -18
t-18 -14.5t-20 -11t-17 -7.5q-28 -12 -60 -15.5t-64.5 -1t-63.5 9.5t-58 16q-11 3 -22.5 8t-22.5 5q-11 -1 -24 -7.5t-24 -11.5q-35 -17 -68 -33t-65 -35q91 -29 178.5 -54.5t187.5 -41.5q48 -8 94 -5.5t86.5 14t72.5 32.5t50 50q5 8 11.5 20t12.5 13q5 0 8.5 -4t6 -10
t4 -11.5t2.5 -8.5q7 -25 2 -44t-18 -33t-30.5 -23.5t-34.5 -15.5q-23 -8 -46 -15.5t-47 -11.5q-52 -9 -110.5 -3.5t-106.5 16.5q-85 19 -163.5 45t-163.5 48q-11 3 -24.5 7.5t-22.5 4.5q-8 -1 -20 -9.5t-20 -13.5q-48 -32 -97 -61t-109 -47q-25 -8 -52.5 -13.5t-57.5 -5.5
q-23 -1 -45.5 1t-39.5 10q-14 6 -25 22.5t-16.5 37.5t-4 43t12.5 39q12 19 36 32t53.5 22t62.5 13.5t63 6.5q63 3 120 -5.5t109 -19.5q43 23 88 48t90 49zM107 217q-9 -8 -19 -22.5t-8 -31.5q2 -13 11 -21t22.5 -12.5t29.5 -5.5t31 0q46 3 86 14.5t75.5 29t67 37.5t61.5 39
q-39 6 -90 10.5t-102 3t-95.5 -10.5t-69.5 -30zM991 338q16 1 31.5 5t29.5 10q13 5 26 11t15 20q-2 14 -15 17t-27 4q-64 4 -124.5 -10t-105.5 -33q37 -8 80.5 -17.5t89.5 -6.5z" />
    <glyph glyph-name="P" unicode="P" horiz-adv-x="1764" 
d="M1800 220q-4 -12 -13 -20.5t-17 -16.5q-26 -26 -56 -47t-68 -34q-55 -19 -117.5 -18t-123.5 13q-76 15 -144 38.5t-132 51t-126 57.5t-125.5 57.5t-131 51.5t-142.5 39q-57 11 -120.5 16t-130.5 5q-63 0 -123 -12.5t-99 -38.5q-9 -6 -16.5 -13t-12.5 -18
q-4 -7 -4.5 -16.5t-5.5 -17.5q-14 3 -20.5 11.5t-7.5 19.5t2 22.5t9 20.5q18 27 51 45t74.5 28.5t87.5 16t90 7.5q118 5 217.5 -13t184.5 -50t162.5 -70t156.5 -75q40 -19 79.5 -36.5t80.5 -35.5q41 -19 83 -34.5t89 -25.5q24 -5 50.5 -7.5t53.5 -2t52.5 4t47.5 11.5
q33 11 58 28t48 40l11.5 11.5t14 10.5t16 4t17.5 -8z" />
    <glyph glyph-name="Q" unicode="Q" horiz-adv-x="1324" 
d="M1424 358q-9 -18 -22 -33t-26 -29q-38 -44 -80.5 -83t-92.5 -74q-31 -21 -67.5 -41t-78.5 -34t-89.5 -21.5t-101.5 -4.5q-51 3 -96 12.5t-87 23t-81.5 29.5t-77.5 33q-37 17 -75 33.5t-80 31.5q-39 15 -85 28t-98 9q-28 -2 -52 -10.5t-41 -20.5q-9 -7 -16.5 -16.5
t-16.5 -15.5q2 25 6.5 36.5t15.5 22.5q22 23 64 32.5t85 7.5q47 -2 85.5 -16.5t75.5 -29.5q38 -15 72.5 -31.5t70.5 -32.5q37 -16 74.5 -31.5t77 -28t82.5 -21t90 -9.5q53 -2 97 6t82 22t69.5 35t60.5 42q45 32 89 65t86 71q6 5 13.5 12t16.5 13.5t18 11.5t17 6q5 1 8 0.5
t8 -0.5z" />
    <glyph glyph-name="R" unicode="R" horiz-adv-x="1341" 
d="M1429 379h2q2 -14 -4 -26t-12 -22q-19 -31 -43.5 -58t-48.5 -53q-97 -105 -207 -199.5t-238 -166.5q-42 -24 -87.5 -46.5t-96.5 -40.5t-107 -30t-119 -14q-99 -4 -187 12t-151 54q-9 5 -20 12.5t-21.5 16.5t-18.5 18.5t-12 20.5q-2 5 -4.5 16t-2.5 22.5t3.5 19.5t13.5 7
q6 -1 7.5 -6.5t2 -12.5t0 -14.5t0.5 -11.5q3 -11 10.5 -20t18 -16t22 -12.5t20.5 -9.5q65 -29 152 -42.5t180 -2.5q111 12 207.5 48.5t176.5 83.5q142 83 265.5 185.5t231.5 220.5q7 8 15 16.5t16 16.5t16.5 17.5t19.5 16.5z" />
    <glyph glyph-name="S" unicode="S" horiz-adv-x="977" 
d="M166 -281q-6 -1 -10 3l-7 7q-5 4 -9.5 7t-13.5 3q-13 0 -23 -9t-16.5 -21.5t-9.5 -27.5t-3 -28q0 -23 9.5 -40.5t23.5 -27.5q23 -17 53.5 -27.5t69.5 -10.5q46 0 88.5 9.5t80.5 21.5t70.5 29.5t61.5 37.5q73 49 135 112t115.5 135.5t97.5 153.5t81 167q7 17 14 35t14 37
q4 11 8.5 25t9.5 27t12.5 23.5t17.5 16.5q8 5 9.5 -1t-1 -16t-5.5 -20t-4 -13q-65 -195 -162.5 -363.5t-236.5 -289.5q-39 -34 -79 -63.5t-86 -52.5q-47 -23 -101 -40t-122 -17q-65 0 -116.5 19.5t-75.5 69.5q-12 25 -15.5 57t4.5 62q6 25 22 47.5t40 30.5q16 5 30 1.5
t23 -13.5t11 -24.5t-5 -31.5z" />
    <glyph glyph-name="T" unicode="T" horiz-adv-x="1677" 
d="M1755 372q0 -16 -8.5 -29.5t-16.5 -25.5q-42 -67 -91.5 -129.5t-111.5 -114.5t-138 -88.5t-170 -50.5q-73 -11 -145.5 2t-132.5 35q-57 21 -113.5 47t-116.5 49q-117 45 -252 73t-295 28q-58 0 -110 -10.5t-102 -21.5l-32 -8t-33 -6q2 16 15 24t26 15q46 23 107 34.5
t127 14.5t133 -2.5t127 -17.5q69 -14 131.5 -32t122.5 -39t116 -47t111 -50q58 -26 122.5 -43t145.5 -12q74 4 135 24t113 50.5t96 68t84 78.5q41 41 77 86.5t61 99.5q4 1 10 1.5t8 -3.5z" />
    <glyph glyph-name="U" unicode="U" horiz-adv-x="1594" 
d="M1413 -77q51 11 101 11t89 -23q36 -21 57.5 -58t27.5 -85q8 -58 -7 -98.5t-41 -75.5q-26 -34 -56.5 -59.5t-75.5 -36.5q-19 -5 -39.5 1t-37.5 13q-14 6 -28.5 12.5t-25.5 14.5q-22 17 -37 52.5t-18 72.5q-3 40 3 81.5t14 78.5q-69 -26 -133.5 -57t-127.5 -63t-127 -64
t-132 -61q-66 -28 -140 -50.5t-159 -33.5q-91 -11 -176 0t-144 50q-57 38 -94 98.5t-49 141.5q-7 46 -2 87.5t18.5 77.5t32.5 65.5t41 53.5t50 45t61 36q34 15 73.5 24.5t85.5 3.5q60 -8 100.5 -42t48.5 -96q3 -23 -3 -43q-2 -7 -6 -15.5t-12 -11.5q-5 10 -2.5 21.5
t0.5 22.5q-5 37 -23 65t-47 42q-29 15 -70 15.5t-79 -10.5q-48 -14 -89.5 -40t-72 -64t-49 -86.5t-19.5 -107.5q-1 -40 8 -75.5t23 -67.5q28 -60 80 -96t127 -49q42 -7 83 -6t80 8q38 7 75.5 14t69.5 17q69 20 131 46.5t121 53.5q61 28 116.5 60.5t111.5 64.5t115 60.5
t128 48.5q16 46 38.5 88t48.5 81t54 76.5t56 74.5q8 11 18 23t20 25q4 4 9.5 12t12.5 15t13.5 12.5t11.5 5.5t6 -4t0 -9.5t-3 -10t-3 -5.5q-8 -21 -22 -38t-27 -33q-53 -66 -102 -141t-81 -156zM1395 -439q13 -11 33.5 -18.5t46.5 -3.5q17 2 35 14.5t32 23.5
q20 17 38.5 40.5t32 51.5t20.5 60.5t4 68.5q-3 41 -30 63.5t-73 19.5q-43 -3 -79 -14.5t-71 -25.5q-8 -29 -16 -68.5t-9.5 -79.5t6 -75.5t30.5 -56.5z" />
    <glyph glyph-name="V" unicode="V" horiz-adv-x="866" 
d="M931 344q3 -17 -5.5 -35t-15.5 -32q-24 -48 -55.5 -85.5t-71.5 -69.5q-53 -42 -115 -74.5t-140 -46.5q-36 -46 -84.5 -86t-110.5 -70q-18 -9 -44.5 -15.5t-55.5 -9.5t-58.5 -1.5t-55 8t-44 20t-25.5 34.5q-4 12 -5.5 27t0 30t6 27.5t12.5 18.5q8 -15 8 -32t8 -30
q12 -22 37.5 -33.5t57 -15t64.5 0t60 12.5q48 16 83.5 45t60.5 62q-31 2 -59 11t-49 24.5t-32.5 39.5t-8.5 56q2 28 16.5 54t37.5 45.5t52.5 30.5t61.5 9q17 -1 30.5 -6t26.5 -15q14 -11 27 -28t22 -38t11.5 -45t-5.5 -48q-3 -8 -6 -14.5t-7 -14.5q32 7 59 19t51 27t46 31.5
t45 33.5q35 26 62 54.5t53 64.5q10 14 20 31.5t25 26.5q3 3 10 2zM504 91q5 12 11.5 30.5t2.5 35.5q-3 10 -15.5 18t-20.5 12q-23 11 -46 10.5t-43.5 -9t-36.5 -23t-25 -30.5q-5 -7 -7.5 -17t-1.5 -18q1 -23 15 -36t36.5 -19t49.5 -6.5t53 0.5q8 12 14.5 24.5t13.5 27.5z
" />
    <glyph glyph-name="W" unicode="W" horiz-adv-x="668" 
d="M670 163q-3 -12 -11.5 -35t-13.5 -43q-5 -16 -11 -30.5t-11 -29.5q-5 2 -3 -0.5t2 -5.5q-1 -5 -4.5 -9t-5.5 -5q0 -3 1.5 -2t3.5 1q0 -4 -3 -9t-6 -9.5t-4.5 -7.5t1.5 -1q-1 -5 -2 -5t-4 -2q-1 -2 1 -2t1 -2q-19 -35 -39.5 -65.5t-52.5 -50.5q-7 -17 -14.5 -34t-14.5 -31
q-2 -1 -4.5 -1.5t-1.5 -4.5v0h2q-2 -10 -8 -12.5t-8 -11.5q0 -2 1.5 -1t0.5 3q-2 -10 -9 -17t-13 -15q-3 -2 -7 -8q-4 -10 -15.5 -20.5t-22.5 -18.5q-1 0 -1 -0.5t1 -0.5q-52 -46 -128 -65q-3 -1 -1.5 0.5t-0.5 1.5q-16 -8 -38 -4.5t-39 5.5q2 -2 5.5 -2t5.5 -2
q-34 8 -60.5 26.5t-46 43.5t-33 56t-22.5 65q0 5 2 5q-5 9 -7 23t0 23q-1 0 -1 4q0 1 1 2q0 5 -2 12.5t-2 13.5q0 12 2 24t5 24q1 2 0 4.5t0 4.5t2.5 2.5t1.5 2.5q1 3 0 6t0 6q1 2 2.5 3.5t2.5 3.5t0.5 7t1.5 9q2 5 6.5 10t5.5 12q4 0 4 1v0q-2 0 -2 1q-1 2 4 2q0 2 -1 3.5
t0 3.5q9 11 15.5 24t20.5 20q0 2 -1 3t2 1q3 -2 5.5 0.5t4.5 3.5q-2 2 -5 -0.5t-5 -3.5q4 5 8 9.5t9 1.5q1 3 4 4q-1 2 -2 0.5t-3 -0.5q13 5 24 12.5t28 12.5q1 -2 -0.5 -2t-1.5 -2q-5 0 -6 -2q2 -2 3.5 -0.5l2.5 2.5q5 2 9 3.5t10 1.5q18 2 31 -7.5t18 -20.5q-2 2 -3 -1h-2
q0 -1 1 -1t1 1q3 0 3 1h2q6 -11 7.5 -30t-8.5 -29q-1 5 -1 15q-2 1 -3 4t-5 0q-3 11 -9 16t-12 12q-3 1 -3.5 -0.5t-2.5 -1.5q-27 0 -52 -14t-43.5 -37t-30.5 -52t-14 -60q-5 -76 21 -136t67 -92q0 -4 1 -3t2 -1q0 -1 1 -1q0 -2 1.5 -2t0.5 2q3 0 3 -2q-2 0 -2 -0.5t2 -0.5
q0 -1 1 -1q0 -1 2 -1q0 -2 3 -2q0 -1 2 -1q0 -1 2 -1v0q0 1 -2 1q0 1 -2 1q0 2 -3 2q0 1 -2 1q0 1 -1 1v1q13 -6 30.5 -11t31.5 -3q3 1 3 -1.5t2 -2.5q0 2 -1 2.5t1 0.5q14 1 27 4t22 3h-3q0 -1 1.5 -1t1.5 1q4 0 4 1q14 8 31 20t31 20v0q14 12 28.5 28t29.5 30q-1 2 -0.5 3
t0.5 4q23 29 40 66q0 2 -1.5 1.5t-0.5 1.5q-61 6 -94.5 44t-24.5 102q0 3 1.5 4t2.5 3q-1 3 -0.5 4t-0.5 3q9 16 18.5 31.5t26.5 23.5q5 7 25.5 13t37.5 4q6 -1 11.5 -4t10.5 -1q5 -4 10 -6.5t7 -9.5q7 -2 12.5 -9.5t14.5 -8.5q38 -34 31 -99q1 0 1 1.5t1 -0.5
q7 8 12.5 21.5t13.5 22.5q11 28 21.5 56.5t21.5 53.5q-2 2 -0.5 3.5t-0.5 3.5q6 17 12.5 37.5t11.5 39.5q5 7 7 15.5t4 18.5q25 82 71 148q4 2 6.5 5.5t6.5 5.5q14 0 17.5 -6t2 -15t-6.5 -19t-8 -17q-6 -16 -12.5 -34.5t-12.5 -37t-12 -35.5t-10 -30zM175 97q-3 0 -3 -1
q3 0 3 1v0zM203 97q-3 0 -3 -1q3 0 3 1zM204 94q2 0 3.5 1t-0.5 2q0 -2 -1.5 -1.5t-1.5 -1.5zM218 92q-4 1 -2.5 -0.5t2.5 0.5v0zM217 87h2q0 1 0.5 1t0.5 2h-2q0 -1 -0.5 -1t-0.5 -2zM138 87q3 -1 1.5 0.5t-1.5 -0.5zM368 -3q-18 -14 -24 -35.5t-1.5 -42.5t20.5 -37t42 -19
q14 -2 22 0.5t24 6.5q3 14 7.5 30t7.5 33t4 33.5t-2 31.5q-8 11 -21.5 14.5t-28.5 2t-28.5 -6.5t-21.5 -11v0zM612 0v0v0v0zM558 -14q-2 0 -0.5 -1.5t0.5 1.5v0v0zM46 -31q2 -3 1.5 -0.5t-1.5 0.5zM593 -34q1 -3 1 0t-1 0zM573 -78q0 2 2 4q-2 1 -3 -1t1 -3v0zM552 -107
q0 1 1 1.5t-1 1.5q0 -1 -1 -1.5t1 -1.5v0zM543 -119q0 2 2 2t1 2q-2 0 -3.5 -1.5t0.5 -2.5v0zM538 -122q3 0 3 2q-3 0 -3 -2zM527 -130v0v0zM520 -137q-3 0 -3 -1q3 0 3 1zM468 -230q3 -1 1.5 0.5t-1.5 -0.5v0zM284 -340q-3 1 -1.5 -0.5t1.5 0.5v0v0zM186 -350v-1
q9 -1 15.5 -3.5t15.5 -0.5q0 -2 1.5 -0.5t-1.5 0.5q-8 2 -15.5 3t-15.5 2q-4 2 -9 4t-9 1q5 -1 9 -4t9 -1zM292 -351q-2 0 -2 -1q-2 0 -2 -1v0q2 0 2 1q2 0 2 1q3 0 5 3q-2 0 -5 -3v0zM250 -349q-3 0 -3 -1q3 0 3 1zM269 -359q3 3 6.5 2t5.5 3q-4 0 -8.5 -1.5t-3.5 -3.5v0z
M334 -361q1 -3 1 0t-1 0zM177 -382q2 2 -0.5 2.5t-2.5 -1.5zM181 -384q3 0 4 -1q0 2 1 3q-2 -1 -3 -0.5t-2 -1.5zM670 163zM186 105zM185 104q0 1 1 1q0 -1 -1 -1zM605 -23q0 3 1 4q2 0 1 -2t-2 -2v0zM467 -239q0 -1 -1 -1.5t-1 -1.5q-2 0 -1 2t3 1zM441 -275zM440 -276v1h1
q0 -1 -1 -1v0zM433 -283v0v0zM395 -323v1q1 0 1 -0.5t-1 -0.5zM150 -333q0 3 3 0v-1h-2q0 1 -1 1zM276 -343q-4 -1 -1.5 1.5t1.5 -1.5zM201 -389q2 0 2 -0.5t1 -0.5q0 -2 -2.5 -1.5t-0.5 2.5z" />
    <glyph glyph-name="X" unicode="X" horiz-adv-x="1504" 
d="M297 -224q9 -17 0.5 -34t-18.5 -26q-15 -14 -34.5 -19t-40.5 -3.5t-41 8t-36 17.5q-23 14 -45 39.5t-36.5 57t-16 68t17.5 72.5q20 38 53.5 62t77.5 41q42 16 93.5 23.5t108.5 -0.5q51 -7 95.5 -20.5t86 -30.5t80.5 -36.5t79 -38.5q38 -20 77.5 -39t84.5 -33
q21 -7 46 -11t51 -4t51.5 5.5t47.5 16.5q-5 10 -11 15.5t-10 13.5q-16 30 -15 65t19 64q15 23 39.5 45t50.5 28q16 4 33.5 1t32 -11.5t24.5 -21t12 -26.5t-0.5 -27t-7.5 -25t-11.5 -22.5t-12.5 -17.5q-14 -19 -28.5 -34.5t-28.5 -29.5q45 5 79 25.5t63 44.5q72 60 126 137
t90 175q7 17 15 39.5t20 31.5q7 5 15 -2t10 -12q2 -11 -3 -25t-8 -23q-20 -58 -47 -112.5t-61 -102.5t-75 -88.5t-89 -70.5q-30 -19 -68 -36t-85 -17q-6 0 -13 1.5t-14 0.5q-10 -2 -20 -8.5t-19 -10.5q-29 -13 -68 -19t-81 -1q-52 5 -93 21.5t-79 36.5q-75 40 -154.5 76
t-170.5 59q-51 12 -104 15t-101 -6t-86.5 -30t-60.5 -55q-12 -19 -17.5 -43t-0.5 -50q5 -23 16 -41t23 -35q9 -13 26 -28t38.5 -24.5t45 -10.5t45.5 14q3 2 7.5 5.5t6.5 7.5q3 4 4 9t2.5 9.5t5.5 7.5t12 3zM1202 12q4 9 7.5 26t-3.5 26q-6 7 -18.5 8.5t-24.5 0.5
q-35 -3 -59 -32q-11 -14 -18.5 -33.5t-8 -38.5t7 -35t27.5 -22q27 19 51.5 43.5t38.5 56.5z" />
    <glyph glyph-name="Y" unicode="Y" horiz-adv-x="746" 
d="M292 -38q3 13 9.5 25.5t11 25t5 26t-6.5 28.5q-9 18 -27 26.5t-39.5 9t-43.5 -5t-39 -14.5q-39 -22 -67 -63t-31 -98q-2 -36 4 -66t21.5 -52.5t40 -35.5t59.5 -14q45 -2 82 11t71 30q68 33 119.5 76.5t99.5 95.5q23 26 46 51.5t43 54.5q31 45 54 92.5t49 98.5q8 16 15 33
t18 31q4 5 13.5 13.5t17.5 6.5q8 -11 3 -25.5t-9 -24.5q-35 -79 -75.5 -154t-89.5 -140q-57 -75 -127.5 -138t-153.5 -105q-19 -10 -43.5 -20.5t-52 -17t-57 -7.5t-58.5 8q-45 14 -76 55t-38 93q-9 68 5.5 118.5t45.5 86.5q13 15 32.5 31t43.5 27t51 13.5t56 -8.5
q11 -5 23.5 -14t23.5 -22t18 -28t7 -31q-1 -14 -7 -27t-12 -24q-7 -11 -15 -20.5t-20 -11.5z" />
    <glyph glyph-name="Z" unicode="Z" horiz-adv-x="966" 
d="M1056 334h2q-2 -23 -9.5 -45t-14.5 -43q-22 -63 -50.5 -120t-66.5 -105q-26 -32 -56.5 -58t-65 -48t-73 -40.5t-78.5 -36.5q20 -39 27.5 -83.5t-2.5 -90.5q-9 -45 -27 -79t-41 -63q-45 -57 -106.5 -104t-136.5 -73q-41 -14 -89 -18t-89 10q-56 19 -93.5 63.5t-45.5 112.5
q-3 23 2 46t13 42q14 35 39.5 64.5t57.5 48.5q19 11 44 16t48.5 1.5t41.5 -16t23 -35.5q4 -19 -0.5 -38.5t-13.5 -29.5q-5 23 -12 41t-24 30q-8 5 -20 8.5t-25.5 4t-27 -1t-23.5 -6.5q-16 -8 -29.5 -20.5t-22.5 -23.5q-21 -27 -36 -63t-4 -80q9 -38 31 -66t54 -42
t78.5 -15.5t88.5 9.5q73 19 130 62t100 94q21 26 38.5 57t28.5 69q5 18 9 38t4 41t-5 41t-17 37q-21 -5 -46 -11t-51 -8.5t-51.5 -1t-47.5 11.5q-20 9 -27 29q-6 21 -2.5 39t14 32t25.5 22.5t30 10.5q28 3 52.5 -5t44.5 -17q19 -10 37 -23q6 -5 15.5 -15.5t16.5 -11.5
q8 -1 20 5t20 9q122 54 201 146.5t133 216.5q11 25 22.5 48.5t37.5 30.5zM463 -76q-11 -2 -23.5 -7t-20.5 -14q-5 -6 -11 -18.5t-1 -22.5q2 -5 8.5 -8.5t15.5 -5t19 -2t18 -0.5q33 0 62.5 6.5t55.5 12.5q-9 12 -21 23.5t-27 20t-33.5 13t-41.5 2.5zM642 -160z" />
    <glyph glyph-name="a" unicode="a" horiz-adv-x="1776" 
d="M1711 190q12 -3 18.5 -10.5t9 -18t0.5 -21.5t-8 -21q-12 -22 -32.5 -36.5t-46.5 -24.5t-55.5 -16.5t-59.5 -11.5q-63 -10 -133.5 -10.5t-133.5 4.5q-65 6 -122.5 19.5t-110 32t-101 40.5t-95.5 45q-48 23 -95 46t-96 46q-24 11 -49 21.5t-50 21.5t-49.5 21.5t-50.5 19.5
q-25 9 -54.5 16.5t-61 12t-64 4.5t-64.5 -6q-45 -9 -78 -27t-61 -46q-6 -6 -13 -13.5t-15 -13t-17.5 -6t-19.5 8.5q2 8 8.5 14.5t11.5 12.5q42 44 98 75t137 35q54 2 105 -7.5t98 -21.5q78 -20 147 -47t135 -57.5t131.5 -61.5t135 -57.5t146.5 -46.5t166 -28q48 -5 107.5 -4
t111.5 9q24 4 48.5 9.5t46 14t38.5 20t26 28.5q5 8 5.5 17.5t5.5 18.5z" />
    <glyph glyph-name="b" unicode="b" horiz-adv-x="1358" 
d="M1323 388q-1 -30 -15.5 -49.5t-38.5 -31.5t-54.5 -16t-62.5 -2q-44 2 -85.5 17t-77.5 30q-76 31 -146 64t-151 59q-42 13 -86 21.5t-93 8.5q-54 0 -97.5 -8.5t-80.5 -23.5t-67.5 -36.5t-61.5 -43.5q-48 -34 -91 -67.5t-86 -70.5q-14 -12 -29 -23.5t-41 -10.5q8 16 20 30
l24 28q35 41 74.5 77.5t84.5 69.5q28 21 61 41t70 36t78 26.5t86 12.5q64 3 121 -6t108.5 -25t99.5 -36.5t95 -41.5q45 -20 92.5 -39.5t98.5 -35.5q26 -8 55.5 -12t58.5 -3.5t56 7.5t48 22q10 7 16.5 16t16.5 16z" />
    <glyph glyph-name="c" unicode="c" horiz-adv-x="1382" 
d="M-43 163q7 39 31 68.5t47 55.5q71 81 150 154.5t166 139.5q57 44 120 82.5t133 71.5q72 34 149.5 56t174.5 27q99 5 185 -12t148 -55q19 -11 39.5 -28t29.5 -35q3 -7 5.5 -19t2.5 -20q0 -4 -0.5 -9.5t-2.5 -10t-5 -8t-9 -2.5t-7.5 6t-1.5 11.5t0.5 13.5t-0.5 12
q-2 11 -9.5 20t-18 16t-22 12.5t-21.5 10.5q-66 29 -152.5 43t-180.5 3q-112 -13 -209 -49.5t-177 -83.5q-155 -91 -284 -203.5t-247 -239.5q-8 -8 -15.5 -17t-18.5 -11z" />
    <glyph glyph-name="d" unicode="d" horiz-adv-x="1008" 
d="M837 837q5 1 9 -3t8 -7q5 -4 9 -7t13 -3q11 0 19.5 5.5t14 14.5t9.5 19.5t6 20.5q6 28 0.5 48.5t-19 35.5t-32.5 24.5t-40 15.5q-23 6 -49 7t-54 -2q-50 -6 -96 -19t-84 -30q-77 -36 -140.5 -90t-114.5 -112q-187 -214 -291 -510q-7 -20 -15.5 -41t-29.5 -26
q-6 9 -2.5 20t6.5 20q46 146 111.5 274.5t150.5 239.5q45 58 96.5 108.5t112.5 96.5q58 44 132 78.5t167 39.5q74 3 129 -16.5t81 -66.5q13 -25 17.5 -58t-3.5 -65q-3 -12 -9 -25.5t-14 -25t-18.5 -19.5t-23.5 -11q-17 -4 -30 0t-21 14t-10 24.5t5 30.5z" />
    <glyph glyph-name="e" unicode="e" horiz-adv-x="1875" 
d="M1824 447q-2 -17 -15 -25t-26 -14q-47 -23 -108.5 -35t-128 -14.5t-134 3.5t-127.5 18q-69 14 -132 32t-123 40q-61 22 -116.5 48t-112.5 50q-59 25 -125 41t-148 11q-70 -5 -133 -27.5t-114 -52.5t-95.5 -68.5t-82.5 -80.5q-35 -38 -66.5 -77t-55.5 -87q-4 -7 -8 -13
t-16 -1q-4 13 3.5 23.5t13.5 20.5q42 69 90.5 132.5t110.5 114.5q34 28 73.5 55t85 48t96.5 34.5t107 16.5q49 2 92 -4t81.5 -17.5t74 -26.5t68.5 -30q67 -30 138 -58t148.5 -50t162 -36t178.5 -17q96 -4 183 12q21 4 41.5 8t40.5 9t39.5 9.5t39.5 7.5z" />
    <glyph glyph-name="f" unicode="f" horiz-adv-x="1598" 
d="M1047 522q5 -9 3.5 -20t-1.5 -22q2 -36 22 -65.5t46 -43.5q30 -16 72 -15.5t77 10.5q66 18 118 59t79 97q16 32 25 66.5t11 74.5t-7.5 75.5t-23.5 67.5q-26 60 -79 96.5t-127 49.5q-41 8 -82.5 6.5t-80.5 -8.5q-38 -6 -75 -13.5t-70 -17.5q-69 -20 -131 -46t-122 -54
t-116 -60.5t-112 -64t-115.5 -60t-127.5 -49.5q-17 -47 -40 -89.5t-49.5 -82t-55.5 -77t-57 -74.5q-9 -12 -18 -24.5t-20 -25.5q-9 -11 -19.5 -24t-27.5 -16q-2 17 4.5 31t14.5 26t17.5 23t17.5 22q54 66 100.5 137.5t81.5 157.5q-51 -12 -102 -10.5t-90 24.5q-37 23 -57 60
t-26 88q-3 27 -1 52t11 48q16 38 42 73t59 58q16 11 39 22.5t46 11.5q17 0 32 -5.5t29 -11.5q14 -5 28 -11t25 -14q23 -17 38.5 -52t17.5 -73q4 -41 -2.5 -82.5t-14.5 -78.5q83 31 159 69t151 76.5t152.5 75t162.5 64.5q58 20 122 33.5t135 16.5q116 5 194 -25t128 -91
q22 -27 41.5 -65.5t30.5 -82.5t10.5 -93t-18.5 -97q-28 -77 -83 -135t-135 -85q-20 -7 -44 -11t-49 -4.5t-48.5 3t-43.5 12.5q-35 16 -61.5 48t-31.5 78q-1 11 1 22t4 19l6 16t11 10zM197 931q-11 11 -35 19t-47 2q-35 -9 -64.5 -35.5t-50.5 -58.5q-12 -18 -22 -43
t-16 -51.5t-6 -53t8 -48t26 -35.5t48 -16q48 -3 89.5 12t79.5 27q9 28 17 67.5t9.5 80t-6 76.5t-30.5 57z" />
    <glyph glyph-name="g" unicode="g" horiz-adv-x="903" 
d="M854 547q-8 14 -9.5 34t-10.5 33q-13 20 -38.5 31t-56.5 14t-63.5 -1t-59.5 -14q-50 -17 -85.5 -47t-57.5 -60q33 -2 58.5 -8.5t45.5 -22.5q19 -14 33 -36t14 -52q0 -36 -19 -65.5t-45 -50.5q-16 -13 -37.5 -21.5t-44 -11t-45 2.5t-39.5 19q-15 13 -29 35t-21.5 47.5
t-6 52.5t18.5 51q-33 -7 -61.5 -20t-54 -29.5t-49 -35t-47.5 -35.5q-38 -27 -65 -59.5t-53 -71.5q-8 -11 -16.5 -24.5t-25.5 -13.5q-1 19 7 35.5t16 31.5q23 48 55 86t71 69q52 42 114.5 74t140.5 46q26 32 57.5 62.5t69.5 55.5q39 26 83 44.5t101 20.5q27 1 54.5 -1
t51 -9.5t40 -21t22.5 -33.5q3 -12 4.5 -26t0 -28t-5.5 -26.5t-12 -20.5zM444 492q-5 -2 -10 -8.5t-9 -15t-7.5 -16.5t-4.5 -12q-5 -13 -11.5 -33t-2.5 -33q3 -11 13 -16.5t18 -10.5q9 -5 20.5 -9t23.5 -5q18 -1 35.5 4.5t32.5 15t27 22t18 24.5q11 23 5.5 42.5t-21.5 30.5
q-18 14 -51 19t-73 2l-1 -1h-2z" />
    <glyph glyph-name="h" unicode="h" horiz-adv-x="727" 
d="M473 495q5 -14 10.5 -26.5t19.5 -17.5q12 -4 26 -0.5t26.5 10.5t23 15t16.5 14q31 31 44.5 76.5t6.5 96.5q-5 38 -16 75t-32 66t-52.5 45.5t-76.5 12.5q-38 -3 -68 -24t-53 -44q-24 -24 -42.5 -51t-32.5 -62q42 -5 71.5 -24.5t43.5 -52.5q7 -17 7.5 -35.5t-4 -36t-13 -33
t-19.5 -25.5q-16 -14 -45 -22t-58 3q-17 7 -33.5 21.5t-26.5 30.5q-9 15 -11 35t0 42q-25 -30 -41 -71.5t-29.5 -87.5t-27 -93t-32.5 -87q-6 -12 -13 -24t-15 -26q-4 -6 -9 -15t-12 -15.5t-14.5 -8.5t-15.5 6q0 18 7.5 34.5t13.5 33.5q15 41 28.5 84.5t27 86.5t28.5 84.5
t34 79.5q12 24 25.5 43t32.5 35q5 5 12.5 9.5t12.5 10.5q7 8 10.5 21.5t8.5 23.5q15 34 34.5 61t44.5 52q30 30 75.5 55t100.5 28q26 1 47 -4.5t38 -15.5t30.5 -23.5t24.5 -26.5q48 -57 62 -148q8 -51 1.5 -96.5t-25.5 -81.5q-17 -33 -43.5 -62.5t-65.5 -37.5q-20 -4 -37 2
t-27.5 19t-12 30t8.5 36zM242 579q-2 -7 -3.5 -16t-2 -18.5t0.5 -18t5 -14.5q6 -10 17.5 -13t22.5 -3q19 0 36.5 7t28.5 19q14 14 19.5 39.5t-5.5 48.5q-5 11 -16 20t-25.5 13.5t-31 4t-31.5 -7.5q-4 -15 -7.5 -29t-7.5 -32z" />
    <glyph glyph-name="i" unicode="i" horiz-adv-x="1590" 
d="M503 700q4 -8 10.5 -14.5t10.5 -14.5q14 -27 15 -52.5t-6.5 -47.5t-22 -40.5t-30.5 -31.5q-14 -11 -29.5 -21.5t-38.5 -10.5q-16 0 -31 5.5t-27 15t-19 22t-7 27.5q1 24 11 45.5t23.5 39.5t28.5 33.5t26 27.5q-46 -5 -79.5 -26t-62.5 -45q-72 -60 -127.5 -137.5
t-90.5 -177.5q-2 -8 -5.5 -19t-8 -22t-10.5 -19t-13 -9t-13 5t-8 11q-2 8 2.5 22.5t8.5 25.5q21 58 48 112.5t61 102.5t74.5 88.5t88.5 70.5q31 19 69 36t84 17q7 0 13.5 -1.5t13.5 -0.5q8 1 16.5 6.5t16.5 9.5q25 11 55 18t65 7q46 0 85 -10t74 -25.5t68 -33.5t66 -34
q36 -17 70.5 -33t70 -29.5t73.5 -24t80 -15.5q49 -6 94.5 -4.5t84 11.5t69 30t49.5 50q11 16 16.5 36.5t3.5 42.5q-2 21 -11.5 38.5t-17.5 31.5q-17 29 -44 53.5t-73 27.5q-20 2 -38 -6.5t-26 -19.5q-3 -5 -4.5 -10.5t-3.5 -10.5t-5.5 -7.5t-10.5 -0.5q-8 11 -4 24t9 21
q12 20 32 29t43 9t46 -6.5t42 -18.5q23 -14 46 -39t37.5 -56.5t16.5 -68t-17 -72.5q-19 -38 -52.5 -62.5t-77.5 -41.5q-42 -17 -93.5 -24.5t-108.5 0.5q-51 7 -96 20t-86 29.5t-80.5 36.5t-79.5 40q-35 18 -76 38.5t-87 34t-95 14t-101 -21.5zM380 577q-4 -9 -7.5 -25
t3.5 -25q7 -8 19 -9t23 0q20 2 35.5 11.5t24.5 20.5q11 14 18.5 33.5t8 39t-7.5 35t-28 21.5q-24 -17 -49.5 -43.5t-39.5 -58.5z" />
    <glyph glyph-name="j" unicode="j" horiz-adv-x="815" 
d="M526 619q-4 -12 -10.5 -25t-11 -26.5t-4.5 -27t8 -28.5t22.5 -23.5t32.5 -11t37.5 0.5t37.5 10q15 6 29.5 16.5t27 23t22.5 25t16 23.5q15 29 19 64.5t-1.5 69.5t-20.5 61.5t-39 40.5q-19 10 -42.5 13t-48 0.5t-48 -9t-41.5 -14.5q-55 -23 -102 -54t-87 -67
q-60 -54 -113.5 -120t-92.5 -138q-21 -38 -38.5 -77.5t-37.5 -78.5q-6 -11 -16 -22t-25 -12q-6 16 0 30.5t12 28.5q42 92 89.5 177t110.5 158q35 41 75.5 76.5t86.5 67.5q44 31 98 59.5t119 33.5q58 4 93 -15t58 -51t33.5 -77t4.5 -100q-6 -49 -27 -82.5t-50 -59.5
q-14 -12 -33 -23t-40.5 -17.5t-44.5 -6.5t-45 11q-13 6 -27.5 18.5t-24.5 29t-13.5 35.5t5.5 40q7 17 19 33t28 20z" />
    <glyph glyph-name="k" unicode="k" horiz-adv-x="1069" 
d="M778 964q6 -8 6 -18.5t3 -20.5q4 -11 16.5 -22.5t23.5 -16.5q31 -12 57.5 -6.5t47 21.5t35 37t23.5 40q8 16 13.5 33.5t3.5 37.5q-2 48 -28 82t-60 51q-18 9 -41.5 12.5t-48.5 3.5t-50.5 -4t-46.5 -11q-80 -26 -142 -79q-29 -25 -56.5 -54.5t-47.5 -61.5
q-13 -21 -24.5 -50.5t-17 -62t-2.5 -65.5t20 -60q19 5 46 11t55.5 8.5t55 0t45.5 -13.5q14 -8 21 -26.5t1 -44.5q-5 -23 -26 -41t-50 -18q-39 0 -71 13.5t-56 32.5q-7 5 -16 15t-15 11q-8 1 -20 -5t-21 -10q-108 -47 -182 -125.5t-126 -181.5q-8 -17 -17 -37l-18 -40
q-4 -9 -8.5 -18.5t-10.5 -17.5t-14 -13.5t-20 -6.5q43 185 143 312q51 64 121 106t151 77q-23 45 -28.5 96t8.5 102q13 45 37.5 83t51.5 67q29 32 62.5 57t71.5 48q38 22 84.5 41t99.5 19q56 0 91.5 -16.5t62.5 -41.5q25 -23 45 -62t18 -87q-2 -47 -21.5 -82.5t-45.5 -62.5
q-13 -13 -32.5 -26.5t-42 -22t-47.5 -9t-48 11.5q-11 6 -20.5 18.5t-12.5 26.5q-3 18 0.5 36.5t13.5 29.5zM655 673q5 6 11 18t1 23q-2 6 -10.5 9t-19 4.5t-21.5 1.5h-20q-32 -2 -57.5 -6.5t-50.5 -11.5q7 -16 28 -31t46.5 -22.5t50.5 -5t42 20.5v0z" />
    <glyph glyph-name="l" unicode="l" horiz-adv-x="1214" 
d="M821 350q-4 -14 -17 -17.5t-24 -7.5q-16 -6 -33 -14t-31.5 -19.5t-24.5 -27t-12 -35.5q-4 -35 12 -60.5t36 -36.5q26 -16 59 -20.5t67 -2.5t66 10t57 18q54 21 91.5 59t55.5 93q17 53 9.5 97t-31.5 78.5t-59.5 58t-75.5 34.5q-29 8 -64.5 9t-71.5 -2q-70 -6 -131 -19.5
t-116 -33.5q-56 -20 -105.5 -45t-98.5 -50q-75 -38 -158.5 -65t-180.5 -45q-15 -3 -32.5 -5t-34.5 -3q-14 -1 -30 0.5t-23 18.5q69 8 130 22.5t116.5 34t106 43.5t100.5 51q74 39 151.5 75t168.5 58q31 8 65.5 11.5t72.5 5.5q104 4 175 -28.5t112 -88.5q22 -31 34.5 -70
t10.5 -87q-5 -93 -50 -149.5t-117 -86.5q-36 -15 -76.5 -26.5t-88.5 -10.5q-47 0 -86 12.5t-65 38.5q-11 11 -20.5 28.5t-14 38.5t-3 43.5t12.5 43.5q9 17 29.5 30.5t39.5 23.5q20 10 44.5 17.5t52.5 2.5z" />
    <glyph glyph-name="m" unicode="m" horiz-adv-x="1963" 
d="M1354 500v0q55 2 106 -0.5t100 -9.5q-8 51 7 88t45 58q14 10 29.5 14.5t33.5 9.5q17 5 35 11.5t36 1.5q7 -12 2.5 -25.5t-9.5 -25.5q-17 -45 -40 -85.5t-61 -61.5q11 -5 21.5 -7.5t21.5 -7.5q11 -4 21 -10t20 -8q9 -2 18.5 -1t17.5 -1q27 -3 47.5 -12.5t36.5 -23.5
q19 -16 35 -45.5t19 -61.5q1 -11 -0.5 -25t-9.5 -18q-6 -2 -11 -0.5t-9.5 4.5t-8 6.5t-7.5 5.5q-14 8 -29.5 11t-30.5 9q-42 18 -71 50.5t-40 81.5q-24 11 -52.5 16.5t-57.5 10.5q6 -15 9 -34t2.5 -39.5t-4 -41t-10.5 -36.5q-3 -7 -7 -12t-6 -11q-2 -4 -3 -11.5t-2.5 -16
t-4 -15t-7.5 -7.5t-9.5 3t-9 10t-8 12t-6.5 10q-12 19 -27.5 42.5t-25.5 49.5t-10.5 53.5t16.5 53.5q-63 3 -120.5 -3.5t-109.5 -17.5q38 -23 63 -63.5t30 -99.5q1 -9 2 -19t0.5 -20t-2.5 -19.5t-7 -16.5q-7 -1 -11.5 4.5t-10.5 7.5q-16 8 -31 13t-29 13q-27 16 -48 39
q-22 25 -38 60t-17 77q-51 -15 -98 -33t-92 -38q27 -10 48.5 -24.5t37.5 -37.5q15 -21 25.5 -48.5t9.5 -60.5q-11 -5 -21.5 -0.5t-20.5 5.5q-7 1 -14 0t-14 -1q-24 2 -48 14t-42 24q-23 16 -42 35t-20 50q-48 -17 -94.5 -38.5t-95.5 -41.5t-101 -37.5t-110 -26.5
q-63 -10 -126 -7.5t-113 22.5q-35 15 -64.5 38t-53.5 49l-9 9t-8.5 10t-4.5 11t4 13q9 -1 15 -5.5t10.5 -9.5t9.5 -10.5t11 -9.5q41 -38 98.5 -60t125.5 -27q45 -3 92.5 10.5t86.5 26.5q121 41 236 93.5t223 96.5q-16 21 -21.5 54t-3 68t12.5 67t24 51q3 4 9 11t13.5 13.5
t15 11t13.5 4.5t10.5 -6t8.5 -13.5t6.5 -16t3.5 -12.5q7 -24 10 -50.5t2.5 -53t-5.5 -51t-14 -44.5q57 18 119 35.5t134 22.5q-14 12 -20 33t-6 45t5.5 47.5t14.5 39.5q15 28 41 46q14 10 27 19.5t27 14.5q12 -9 16.5 -24.5t7.5 -32.5q8 -38 5 -77q-1 -21 -8 -36.5
t-16.5 -27.5t-21.5 -22l-24 -20v-1z" />
    <glyph glyph-name="n" unicode="n" horiz-adv-x="557" 
d="M343 858q-2 0 -1 -0.5t1 0.5q12 4 25 11t27 12t29.5 7t30.5 -5q4 -7 3 -15t-3 -14q-7 -16 -22 -27.5t-34 -19t-41 -11.5t-44 -4q-17 -35 -28.5 -74t-24.5 -77q7 4 21 14t29 17t29 7.5t23 -14.5q1 -7 0 -12.5t-3 -10.5q-14 -35 -50 -62t-74 -37q-12 -42 -19 -88.5
t-12 -97.5q8 9 16.5 20.5t18.5 22.5t21 21t24 15q15 7 24.5 0t11.5 -22q2 -26 -12 -49t-28 -40q-17 -20 -36 -32.5t-38 -22.5q3 -45 10.5 -86t17.5 -80q5 15 10.5 33t14 33.5t20 27.5t28.5 16t24 -3.5t9 -21.5q2 -23 -3.5 -47t-13.5 -44q-13 -29 -27.5 -48.5t-39.5 -30.5
q15 -50 32 -98t38 -93q13 34 30 62.5t42 51.5q7 6 18.5 15t22.5 7q10 -2 14.5 -16t4.5 -28q0 -30 -10.5 -54t-26.5 -43.5t-35 -35.5t-36 -31q19 -45 47 -80t60 -67q4 -4 11 -9t13.5 -10t12 -11t5.5 -13q0 -8 -5.5 -17t-13.5 -10t-15.5 5.5t-13.5 11.5q-46 37 -81.5 84
t-61.5 98q-67 6 -119 29q-12 6 -24.5 12.5t-22.5 15.5t-16.5 21.5t-6.5 29.5q6 14 22 21.5t35.5 9t40 -1.5t34.5 -10q-9 30 -19 63.5t-17 68.5q-39 -6 -69 9t-53 32q-20 15 -34.5 36t-12.5 50q16 10 35.5 10.5t39.5 -4t38.5 -12t30.5 -14.5q-6 38 -11.5 75t-7.5 79
q-21 5 -44.5 12.5t-45 18.5t-38 25t-22.5 33q-8 22 1.5 34t28.5 14q20 2 36.5 -1.5t30.5 -9.5t26.5 -14t23.5 -15q0 51 4.5 96.5t11.5 90.5q-22 6 -37 20t-28 34q-6 10 -13.5 24t-12 29t-5 29.5t7.5 25.5q14 2 27.5 -4t24.5 -12q17 -9 31 -21t22 -30q14 44 28.5 87t34.5 81
q-15 17 -33.5 37.5t-27.5 46.5q-5 14 -5 34t13 27q11 6 25 0t22 -11q17 -11 27.5 -23.5t18.5 -29.5q12 17 23 35l22 36q-4 45 12 79t42 54q8 7 19 14.5t21 8.5q18 3 26.5 -8t10.5 -26.5t-1.5 -33t-8.5 -27.5q-13 -24 -35 -41.5t-39 -32.5q-14 -20 -28 -40.5t-25 -43.5
q-1 0 -1 -1v-1z" />
    <glyph glyph-name="o" unicode="o" horiz-adv-x="1342" 
d="M678 166q42 -16 85.5 -33t89.5 -31q15 -5 31 -7t28 -13q-18 -10 -38.5 -7.5t-37.5 6.5q-46 10 -85.5 23.5t-81.5 29.5q-8 3 -17.5 7.5t-14.5 4.5q-7 0 -18 -6t-21 -11q-30 -13 -61 -21t-67 -16q-28 -6 -61.5 -10.5t-65.5 -3.5t-58.5 9.5t-38.5 28.5q-5 8 -9.5 23.5
t0.5 28.5q3 10 11 18t18 14.5t19.5 11t17.5 7.5q28 12 60 15.5t64.5 1t63.5 -9.5t58 -16q11 -3 22.5 -8t22.5 -5q11 1 24 7.5t24 11.5q35 17 68 33t65 35q-91 29 -178.5 54.5t-187.5 41.5q-48 7 -94 5t-86.5 -13.5t-72.5 -32.5t-50 -50q-5 -8 -11.5 -20t-12.5 -13
q-5 0 -8.5 4t-6 10t-4 11.5t-2.5 8.5q-8 25 -2.5 44t18.5 33t30.5 23.5t34.5 15.5q23 8 46 15.5t47 11.5q52 9 110.5 3.5t106.5 -16.5q85 -19 163.5 -45t163.5 -48q11 -3 24.5 -7.5t22.5 -4.5q8 1 20 9.5t20 13.5q48 32 97 61t109 47q25 8 52.5 13.5t57.5 5.5q23 1 45.5 -1
t39.5 -10q14 -6 25 -22.5t16.5 -37.5t4 -43t-12.5 -39q-12 -19 -36 -32t-53.5 -22t-62.5 -14t-63 -6q-63 -3 -120 5.5t-109 19.5q-43 -23 -88 -48t-90 -49zM1262 323q9 8 19 22.5t8 31.5q-2 13 -11 21t-22.5 12.5t-29.5 5.5t-31 0q-46 -3 -86 -14.5t-75.5 -29t-67 -37.5
t-61.5 -39q39 -6 90 -10.5t102 -3t95 10.5t70 30zM378 202q-16 -1 -31.5 -5t-29.5 -10q-13 -5 -26 -11t-15 -20q2 -14 15 -17t27 -4q64 -4 124.5 10t105.5 33q-37 8 -80.5 17.5t-89.5 6.5z" />
    <glyph glyph-name="p" unicode="p" horiz-adv-x="1776" 
d="M1711 190q12 -3 18.5 -10.5t9 -18t0.5 -21.5t-8 -21q-12 -22 -32.5 -36.5t-46.5 -24.5t-55.5 -16.5t-59.5 -11.5q-63 -10 -133.5 -10.5t-133.5 4.5q-65 6 -122.5 19.5t-110 32t-101 40.5t-95.5 45q-48 23 -95 46t-96 46q-24 11 -49 21.5t-50 21.5t-49.5 21.5t-50.5 19.5
q-25 9 -54.5 16.5t-61 12t-64 4.5t-64.5 -6q-45 -9 -78 -27t-61 -46q-6 -6 -13 -13.5t-15 -13t-17.5 -6t-19.5 8.5q2 8 8.5 14.5t11.5 12.5q42 44 98 75t137 35q54 2 105 -7.5t98 -21.5q78 -20 147 -47t135 -57.5t131.5 -61.5t135 -57.5t146.5 -46.5t166 -28q48 -5 107.5 -4
t111.5 9q24 4 48.5 9.5t46 14t38.5 20t26 28.5q5 8 5.5 17.5t5.5 18.5z" />
    <glyph glyph-name="q" unicode="q" horiz-adv-x="1358" 
d="M1323 388q-1 -30 -15.5 -49.5t-38.5 -31.5t-54.5 -16t-62.5 -2q-44 2 -85.5 17t-77.5 30q-76 31 -146 64t-151 59q-42 13 -86 21.5t-93 8.5q-54 0 -97.5 -8.5t-80.5 -23.5t-67.5 -36.5t-61.5 -43.5q-48 -34 -91 -67.5t-86 -70.5q-14 -12 -29 -23.5t-41 -10.5q8 16 20 30
l24 28q35 41 74.5 77.5t84.5 69.5q28 21 61 41t70 36t78 26.5t86 12.5q64 3 121 -6t108.5 -25t99.5 -36.5t95 -41.5q45 -20 92.5 -39.5t98.5 -35.5q26 -8 55.5 -12t58.5 -3.5t56 7.5t48 22q10 7 16.5 16t16.5 16z" />
    <glyph glyph-name="r" unicode="r" horiz-adv-x="1382" 
d="M-43 163q7 39 31 68.5t47 55.5q71 81 150 154.5t166 139.5q57 44 120 82.5t133 71.5q72 34 149.5 56t174.5 27q99 5 185 -12t148 -55q19 -11 39.5 -28t29.5 -35q3 -7 5.5 -19t2.5 -20q0 -4 -0.5 -9.5t-2.5 -10t-5 -8t-9 -2.5t-7.5 6t-1.5 11.5t0.5 13.5t-0.5 12
q-2 11 -9.5 20t-18 16t-22 12.5t-21.5 10.5q-66 29 -152.5 43t-180.5 3q-112 -13 -209 -49.5t-177 -83.5q-155 -91 -284 -203.5t-247 -239.5q-8 -8 -15.5 -17t-18.5 -11z" />
    <glyph glyph-name="s" unicode="s" horiz-adv-x="1008" 
d="M837 837q5 1 9 -3t8 -7q5 -4 9 -7t13 -3q11 0 19.5 5.5t14 14.5t9.5 19.5t6 20.5q6 28 0.5 48.5t-19 35.5t-32.5 24.5t-40 15.5q-23 6 -49 7t-54 -2q-50 -6 -96 -19t-84 -30q-77 -36 -140.5 -90t-114.5 -112q-187 -214 -291 -510q-7 -20 -15.5 -41t-29.5 -26
q-6 9 -2.5 20t6.5 20q46 146 111.5 274.5t150.5 239.5q45 58 96.5 108.5t112.5 96.5q58 44 132 78.5t167 39.5q74 3 129 -16.5t81 -66.5q13 -25 17.5 -58t-3.5 -65q-3 -12 -9 -25.5t-14 -25t-18.5 -19.5t-23.5 -11q-17 -4 -30 0t-21 14t-10 24.5t5 30.5z" />
    <glyph glyph-name="t" unicode="t" horiz-adv-x="1875" 
d="M1824 447q-2 -17 -15 -25t-26 -14q-47 -23 -108.5 -35t-128 -14.5t-134 3.5t-127.5 18q-69 14 -132 32t-123 40q-61 22 -116.5 48t-112.5 50q-59 25 -125 41t-148 11q-70 -5 -133 -27.5t-114 -52.5t-95.5 -68.5t-82.5 -80.5q-35 -38 -66.5 -77t-55.5 -87q-4 -7 -8 -13
t-16 -1q-4 13 3.5 23.5t13.5 20.5q42 69 90.5 132.5t110.5 114.5q34 28 73.5 55t85 48t96.5 34.5t107 16.5q49 2 92 -4t81.5 -17.5t74 -26.5t68.5 -30q67 -30 138 -58t148.5 -50t162 -36t178.5 -17q96 -4 183 12q21 4 41.5 8t40.5 9t39.5 9.5t39.5 7.5z" />
    <glyph glyph-name="u" unicode="u" horiz-adv-x="1598" 
d="M1047 522q5 -9 3.5 -20t-1.5 -22q2 -36 22 -65.5t46 -43.5q30 -16 72 -15.5t77 10.5q66 18 118 59t79 97q16 32 25 66.5t11 74.5t-7.5 75.5t-23.5 67.5q-26 60 -79 96.5t-127 49.5q-41 8 -82.5 6.5t-80.5 -8.5q-38 -6 -75 -13.5t-70 -17.5q-69 -20 -131 -46t-122 -54
t-116 -60.5t-112 -64t-115.5 -60t-127.5 -49.5q-17 -47 -40 -89.5t-49.5 -82t-55.5 -77t-57 -74.5q-9 -12 -18 -24.5t-20 -25.5q-9 -11 -19.5 -24t-27.5 -16q-2 17 4.5 31t14.5 26t17.5 23t17.5 22q54 66 100.5 137.5t81.5 157.5q-51 -12 -102 -10.5t-90 24.5q-37 23 -57 60
t-26 88q-3 27 -1 52t11 48q16 38 42 73t59 58q16 11 39 22.5t46 11.5q17 0 32 -5.5t29 -11.5q14 -5 28 -11t25 -14q23 -17 38.5 -52t17.5 -73q4 -41 -2.5 -82.5t-14.5 -78.5q83 31 159 69t151 76.5t152.5 75t162.5 64.5q58 20 122 33.5t135 16.5q116 5 194 -25t128 -91
q22 -27 41.5 -65.5t30.5 -82.5t10.5 -93t-18.5 -97q-28 -77 -83 -135t-135 -85q-20 -7 -44 -11t-49 -4.5t-48.5 3t-43.5 12.5q-35 16 -61.5 48t-31.5 78q-1 11 1 22t4 19l6 16t11 10zM197 931q-11 11 -35 19t-47 2q-35 -9 -64.5 -35.5t-50.5 -58.5q-12 -18 -22 -43
t-16 -51.5t-6 -53t8 -48t26 -35.5t48 -16q48 -3 89.5 12t79.5 27q9 28 17 67.5t9.5 80t-6 76.5t-30.5 57z" />
    <glyph glyph-name="v" unicode="v" horiz-adv-x="903" 
d="M854 547q-8 14 -9.5 34t-10.5 33q-13 20 -38.5 31t-56.5 14t-63.5 -1t-59.5 -14q-50 -17 -85.5 -47t-57.5 -60q33 -2 58.5 -8.5t45.5 -22.5q19 -14 33 -36t14 -52q0 -36 -19 -65.5t-45 -50.5q-16 -13 -37.5 -21.5t-44 -11t-45 2.5t-39.5 19q-15 13 -29 35t-21.5 47.5
t-6 52.5t18.5 51q-33 -7 -61.5 -20t-54 -29.5t-49 -35t-47.5 -35.5q-38 -27 -65 -59.5t-53 -71.5q-8 -11 -16.5 -24.5t-25.5 -13.5q-1 19 7 35.5t16 31.5q23 48 55 86t71 69q52 42 114.5 74t140.5 46q26 32 57.5 62.5t69.5 55.5q39 26 83 44.5t101 20.5q27 1 54.5 -1
t51 -9.5t40 -21t22.5 -33.5q3 -12 4.5 -26t0 -28t-5.5 -26.5t-12 -20.5zM444 492q-5 -2 -10 -8.5t-9 -15t-7.5 -16.5t-4.5 -12q-5 -13 -11.5 -33t-2.5 -33q3 -11 13 -16.5t18 -10.5q9 -5 20.5 -9t23.5 -5q18 -1 35.5 4.5t32.5 15t27 22t18 24.5q11 23 5.5 42.5t-21.5 30.5
q-18 14 -51 19t-73 2l-1 -1h-2z" />
    <glyph glyph-name="w" unicode="w" horiz-adv-x="727" 
d="M473 495q5 -14 10.5 -26.5t19.5 -17.5q12 -4 26 -0.5t26.5 10.5t23 15t16.5 14q31 31 44.5 76.5t6.5 96.5q-5 38 -16 75t-32 66t-52.5 45.5t-76.5 12.5q-38 -3 -68 -24t-53 -44q-24 -24 -42.5 -51t-32.5 -62q42 -5 71.5 -24.5t43.5 -52.5q7 -17 7.5 -35.5t-4 -36t-13 -33
t-19.5 -25.5q-16 -14 -45 -22t-58 3q-17 7 -33.5 21.5t-26.5 30.5q-9 15 -11 35t0 42q-25 -30 -41 -71.5t-29.5 -87.5t-27 -93t-32.5 -87q-6 -12 -13 -24t-15 -26q-4 -6 -9 -15t-12 -15.5t-14.5 -8.5t-15.5 6q0 18 7.5 34.5t13.5 33.5q15 41 28.5 84.5t27 86.5t28.5 84.5
t34 79.5q12 24 25.5 43t32.5 35q5 5 12.5 9.5t12.5 10.5q7 8 10.5 21.5t8.5 23.5q15 34 34.5 61t44.5 52q30 30 75.5 55t100.5 28q26 1 47 -4.5t38 -15.5t30.5 -23.5t24.5 -26.5q48 -57 62 -148q8 -51 1.5 -96.5t-25.5 -81.5q-17 -33 -43.5 -62.5t-65.5 -37.5q-20 -4 -37 2
t-27.5 19t-12 30t8.5 36zM242 579q-2 -7 -3.5 -16t-2 -18.5t0.5 -18t5 -14.5q6 -10 17.5 -13t22.5 -3q19 0 36.5 7t28.5 19q14 14 19.5 39.5t-5.5 48.5q-5 11 -16 20t-25.5 13.5t-31 4t-31.5 -7.5q-4 -15 -7.5 -29t-7.5 -32z" />
    <glyph glyph-name="x" unicode="x" horiz-adv-x="1590" 
d="M503 700q4 -8 10.5 -14.5t10.5 -14.5q14 -27 15 -52.5t-6.5 -47.5t-22 -40.5t-30.5 -31.5q-14 -11 -29.5 -21.5t-38.5 -10.5q-16 0 -31 5.5t-27 15t-19 22t-7 27.5q1 24 11 45.5t23.5 39.5t28.5 33.5t26 27.5q-46 -5 -79.5 -26t-62.5 -45q-72 -60 -127.5 -137.5
t-90.5 -177.5q-2 -8 -5.5 -19t-8 -22t-10.5 -19t-13 -9t-13 5t-8 11q-2 8 2.5 22.5t8.5 25.5q21 58 48 112.5t61 102.5t74.5 88.5t88.5 70.5q31 19 69 36t84 17q7 0 13.5 -1.5t13.5 -0.5q8 1 16.5 6.5t16.5 9.5q25 11 55 18t65 7q46 0 85 -10t74 -25.5t68 -33.5t66 -34
q36 -17 70.5 -33t70 -29.5t73.5 -24t80 -15.5q49 -6 94.5 -4.5t84 11.5t69 30t49.5 50q11 16 16.5 36.5t3.5 42.5q-2 21 -11.5 38.5t-17.5 31.5q-17 29 -44 53.5t-73 27.5q-20 2 -38 -6.5t-26 -19.5q-3 -5 -4.5 -10.5t-3.5 -10.5t-5.5 -7.5t-10.5 -0.5q-8 11 -4 24t9 21
q12 20 32 29t43 9t46 -6.5t42 -18.5q23 -14 46 -39t37.5 -56.5t16.5 -68t-17 -72.5q-19 -38 -52.5 -62.5t-77.5 -41.5q-42 -17 -93.5 -24.5t-108.5 0.5q-51 7 -96 20t-86 29.5t-80.5 36.5t-79.5 40q-35 18 -76 38.5t-87 34t-95 14t-101 -21.5zM380 577q-4 -9 -7.5 -25
t3.5 -25q7 -8 19 -9t23 0q20 2 35.5 11.5t24.5 20.5q11 14 18.5 33.5t8 39t-7.5 35t-28 21.5q-24 -17 -49.5 -43.5t-39.5 -58.5z" />
    <glyph glyph-name="y" unicode="y" horiz-adv-x="815" 
d="M526 619q-4 -12 -10.5 -25t-11 -26.5t-4.5 -27t8 -28.5t22.5 -23.5t32.5 -11t37.5 0.5t37.5 10q15 6 29.5 16.5t27 23t22.5 25t16 23.5q15 29 19 64.5t-1.5 69.5t-20.5 61.5t-39 40.5q-19 10 -42.5 13t-48 0.5t-48 -9t-41.5 -14.5q-55 -23 -102 -54t-87 -67
q-60 -54 -113.5 -120t-92.5 -138q-21 -38 -38.5 -77.5t-37.5 -78.5q-6 -11 -16 -22t-25 -12q-6 16 0 30.5t12 28.5q42 92 89.5 177t110.5 158q35 41 75.5 76.5t86.5 67.5q44 31 98 59.5t119 33.5q58 4 93 -15t58 -51t33.5 -77t4.5 -100q-6 -49 -27 -82.5t-50 -59.5
q-14 -12 -33 -23t-40.5 -17.5t-44.5 -6.5t-45 11q-13 6 -27.5 18.5t-24.5 29t-13.5 35.5t5.5 40q7 17 19 33t28 20z" />
    <glyph glyph-name="z" unicode="z" horiz-adv-x="1069" 
d="M778 964q6 -8 6 -18.5t3 -20.5q4 -11 16.5 -22.5t23.5 -16.5q31 -12 57.5 -6.5t47 21.5t35 37t23.5 40q8 16 13.5 33.5t3.5 37.5q-2 48 -28 82t-60 51q-18 9 -41.5 12.5t-48.5 3.5t-50.5 -4t-46.5 -11q-80 -26 -142 -79q-29 -25 -56.5 -54.5t-47.5 -61.5
q-13 -21 -24.5 -50.5t-17 -62t-2.5 -65.5t20 -60q19 5 46 11t55.5 8.5t55 0t45.5 -13.5q14 -8 21 -26.5t1 -44.5q-5 -23 -26 -41t-50 -18q-39 0 -71 13.5t-56 32.5q-7 5 -16 15t-15 11q-8 1 -20 -5t-21 -10q-108 -47 -182 -125.5t-126 -181.5q-8 -17 -17 -37l-18 -40
q-4 -9 -8.5 -18.5t-10.5 -17.5t-14 -13.5t-20 -6.5q43 185 143 312q51 64 121 106t151 77q-23 45 -28.5 96t8.5 102q13 45 37.5 83t51.5 67q29 32 62.5 57t71.5 48q38 22 84.5 41t99.5 19q56 0 91.5 -16.5t62.5 -41.5q25 -23 45 -62t18 -87q-2 -47 -21.5 -82.5t-45.5 -62.5
q-13 -13 -32.5 -26.5t-42 -22t-47.5 -9t-48 11.5q-11 6 -20.5 18.5t-12.5 26.5q-3 18 0.5 36.5t13.5 29.5zM655 673q5 6 11 18t1 23q-2 6 -10.5 9t-19 4.5t-21.5 1.5h-20q-32 -2 -57.5 -6.5t-50.5 -11.5q7 -16 28 -31t46.5 -22.5t50.5 -5t42 20.5v0z" />
  </font>
</defs>
</svg>
