<?xml version="1.0" standalone="no"?>
<!DOCTYPE svg PUBLIC "-//W3C//DTD SVG 1.1//EN" "http://www.w3.org/Graphics/SVG/1.1/DTD/svg11.dtd" >
<svg xmlns="http://www.w3.org/2000/svg" xmlns:xlink="http://www.w3.org/1999/xlink" version="1.1">
<metadata>
Created by FontForge 20170731 at Wed Jan 18 10:35:47 2017
 By Aleksey,,,
(c) Geert Dijkers
</metadata>
<defs>
<font id="ManeoTRIAL" horiz-adv-x="408" >
  <font-face 
    font-family="Maneo_TRIAL"
    font-weight="400"
    font-stretch="normal"
    units-per-em="1000"
    panose-1="0 0 0 0 0 0 0 0 0 0"
    ascent="750"
    descent="-250"
    x-height="349"
    cap-height="598"
    bbox="-293 -383 868 666"
    underline-thickness="50"
    underline-position="-150"
    unicode-range="U+000D-007A"
  />
<missing-glyph horiz-adv-x="364" 
d="M33 0v666h265v-666h-265zM66 33h199v600h-199v-600z" />
    <glyph glyph-name=".notdef" horiz-adv-x="364" 
d="M33 0v666h265v-666h-265zM66 33h199v600h-199v-600z" />
    <glyph glyph-name=".null" horiz-adv-x="0" 
 />
    <glyph glyph-name="nonmarkingreturn" unicode="&#xd;" horiz-adv-x="200" 
 />
    <glyph glyph-name="NULL.001" horiz-adv-x="0" 
 />
    <glyph glyph-name="NULL.001" horiz-adv-x="0" 
 />
    <glyph glyph-name="space" unicode=" " horiz-adv-x="200" 
 />
    <glyph glyph-name="zero" unicode="0" horiz-adv-x="409" 
d="M384 305q0 -51 -18.5 -99t-53.5 -89q-8 -9 -23 -25t-33.5 -32.5t-38.5 -31t-37 -21.5q-5 -2 -13.5 -4t-16.5 -4t-15 -3t-10 -1q-38 0 -62 25t-38 57.5t-19 65t-5 47.5q0 4 1.5 15.5t2.5 19.5q7 56 29 119.5t67 126.5q5 7 12.5 21t15.5 24q4 5 13 9t14 9q14 12 23.5 20
t18 13t17 7t20.5 2q8 0 19 -5t21.5 -11t19 -12t11.5 -8q1 -1 1.5 -2.5t0.5 -6.5q0 -22 -23 -28q16 -15 34.5 -35.5t32.5 -40.5q5 -7 8 -20.5t8 -23.5q11 -24 13.5 -44t2.5 -34zM274 511v16q-9 9 -18 9q-11 0 -18 -13q6 -2 12.5 -7t11.5 -5h12zM285 332q0 3 -1.5 12.5
t-4.5 22.5t-7 26.5t-8 23.5q-3 8 -9.5 19t-13 20.5t-12.5 16.5t-8 7t-8 -3t-12 -7.5t-11.5 -9t-7.5 -7.5q-17 -26 -34.5 -54.5t-27.5 -51.5q-14 -34 -26 -72.5t-19 -66.5q-2 -8 -4 -18.5t-3 -20.5t-1.5 -18t-0.5 -11q0 -9 1 -21.5t3.5 -25t5.5 -23t8 -14.5q4 -4 11.5 -4
h12.5q34 0 66 29.5t57 72t39.5 91t14.5 87.5z" />
    <glyph glyph-name="one" unicode="1" horiz-adv-x="286" 
d="M253 510q0 -2 -3 -12l-7.5 -25t-9.5 -32t-8 -31q-4 -19 -8 -45.5t-8 -39.5q-2 -11 -5.5 -25.5t-6.5 -27.5q-1 -5 1 -13.5t0 -14.5q-7 -35 -10.5 -68.5t-9.5 -66.5q0 -3 -5.5 -7.5t-6.5 -9.5q-2 -12 -0.5 -25.5t-1.5 -25.5q-3 -14 -13.5 -26.5t-17.5 -25.5q-2 2 -4.5 6
t-4.5 6q-6 30 -10 47.5t-5.5 33t-2 33t-0.5 46.5q0 2 0.5 19t1.5 40t3 48t4 44q3 21 7.5 47t9.5 53v11q-3 -2 -15 -15t-26.5 -27t-27.5 -25.5t-17 -11.5h-7q-8 0 -15 7t-12 16t-7.5 17.5t-2.5 11.5q0 1 11.5 13.5t29.5 30.5t39 38.5t40 38.5t33.5 29.5t19.5 11.5q2 0 10 -1
t18 -3.5t19.5 -5t15.5 -5.5q3 -2 6.5 -8t7.5 -11q1 -2 1 -14z" />
    <glyph glyph-name="two" unicode="2" horiz-adv-x="412" 
d="M418 112q0 -2 -3 -5t-7 -5q-3 -1 -8.5 -0.5t-8.5 -1.5q-8 -2 -14.5 -8t-13.5 -9q-10 -5 -24 -5.5t-30 -5.5q-18 -6 -35.5 -15t-34.5 -17t-33.5 -11.5t-32.5 -9.5q-8 -3 -18.5 -7.5t-20.5 -8.5t-18 -6.5t-11 -2.5h-16q-15 0 -27.5 9t-23 21t-17.5 24t-10 18q-3 5 -5.5 7.5
t-3.5 4t-1.5 4t-0.5 7.5q0 9 6 22.5t14 27.5t16.5 26.5t14.5 19.5q33 40 65 82.5t60 83.5t50.5 80t35.5 73v7l-2 2h-5q-3 0 -12.5 -4.5t-22.5 -11t-27 -14t-25 -13.5q-6 -3 -14 -11t-15 -16q-4 -6 -9 -14t-10.5 -15.5t-9.5 -13t-7 -5.5q-11 0 -18.5 10t-13 22.5t-8 24.5
t-2.5 16q0 11 15 25t34 27t36 22.5t21 11.5q6 3 15 5l18 4t16.5 3t10.5 1q2 0 10 -1t18 -3.5t20.5 -5.5t16.5 -6q7 -4 14 -11.5t13 -15.5t9.5 -16t3.5 -12q0 -20 -15.5 -55.5t-39 -78t-51.5 -87.5t-52.5 -82.5t-42 -63t-20.5 -29.5q8 -4 23 1.5t23 7.5q9 1 26.5 3.5t37.5 4
t39.5 3t32.5 1.5q3 0 17 -0.5t32.5 -1.5t39 -3t36.5 -4z" />
    <glyph glyph-name="three" unicode="3" 
d="M374 518q0 -10 -8.5 -21.5t-20 -22t-23 -18.5t-16.5 -12q-23 -16 -46 -35.5t-46 -39.5t-46.5 -40t-46.5 -36l3 -2q21 -2 56.5 -11.5t70 -25.5t60 -38.5t25.5 -50.5q0 -14 -12 -33t-27 -36t-28.5 -29.5t-16.5 -14.5q-8 -5 -19 -15t-22 -16q-10 -5 -23.5 -10.5t-26.5 -9.5
t-22.5 -6.5t-12.5 -2.5q-7 0 -16.5 3.5t-18 8t-15.5 10t-10 9.5q-4 6 -9.5 16t-5.5 15t4.5 12t1.5 21h23q19 0 52.5 10.5t67.5 26.5t60.5 34.5t32.5 34.5q-23 16 -50.5 24t-55.5 13q-12 2 -29 3.5t-33 2t-27.5 1t-14.5 0.5q-4 0 -18.5 -2t-23.5 -6q-2 -1 -2 -2.5t-5 -1.5
t-10.5 4t-8.5 8q-6 10 -10.5 26.5t-4.5 30.5q0 15 2 28.5t26 30.5q48 34 98.5 65t101.5 65v1q0 -1 -2 3q-29 -8 -63.5 -19.5t-65.5 -24.5q-7 -3 -16.5 -9t-18.5 -12.5t-16 -11.5t-9 -5q-5 0 -13.5 5t-12.5 13q-2 5 -1 13.5t0 14.5q-2 -1 -3 0q-2 2 -2 6q0 16 11.5 20.5
t25.5 12.5q25 13 53 23t55.5 18t52 14t43.5 11q5 1 13 2.5t16.5 2.5t15.5 1.5t10 0.5h15t18 -4q7 -5 15 -8.5t16 -8.5q5 -4 7 -11.5t2 -12.5z" />
    <glyph glyph-name="four" unicode="4" horiz-adv-x="400" 
d="M427 281q-8 -5 -15.5 -16t-18.5 -19q-8 -5 -20 -9.5t-23 -8.5q-7 -3 -11 -6.5t-8 -6t-9 -4.5t-14 -3q-5 -1 -8 -4.5t-7 -5.5q-11 -5 -26 -7t-26 -8q-7 -4 -9 -11t-2.5 -15t-0.5 -15.5t-2 -13.5q0 -2 -2.5 -5.5t-3.5 -8.5q-2 -6 -1 -14t-1 -17q-1 -4 -3 -8.5t-2 -9.5
q0 -7 3 -17t7 -19t9 -16.5t10 -8.5q-2 0 -8 -3.5t-11 -3.5t-14 5.5t-13 10.5q-11 13 -19 29.5t-12 32.5q-5 17 -5 43t-6 49q-6 -2 -21.5 -3t-21.5 -1q-44 0 -68.5 23t-36.5 68l-4.5 13.5t-2.5 12.5q0 27 10.5 63t25.5 73.5t32.5 72.5t31.5 59q2 3 3 10t1 16h12q7 0 18 -3.5
t21 -10t17.5 -15.5t7.5 -20q0 -2 -2 -9t-4.5 -15.5t-5.5 -17.5t-6 -15q-17 -38 -37 -77.5t-36 -77.5q-3 -6 -8 -14t-7 -14q-4 -8 -6.5 -21t-3.5 -18v-8q2 -2 5 -2h8q4 0 18 1.5t30 4t28.5 6t13.5 8.5q17 68 44 144.5t79 146.5h7q12 -19 19 -39t7 -34q0 -26 -5.5 -49.5
t-14.5 -47.5t-19.5 -50t-19.5 -57q16 1 39.5 3.5t46 5t39.5 4.5t20 2q8 0 18 -4z" />
    <glyph glyph-name="five" unicode="5" 
d="M525 510q-36 -10 -73.5 -21t-71.5 -17q-4 -1 -9.5 -5.5t-12.5 -6.5q-36 -9 -74 -14t-73 -16q-11 -4 -17 -7.5t-10.5 -6t-8 -4t-9.5 -1.5q-5 0 -12 3t-12 3t-7 -1.5t-4 -3.5q-9 -21 -24.5 -49t-24.5 -54q12 0 27.5 1.5t20.5 1.5q22 0 46 -4t45.5 -14t39.5 -27t29 -43
q3 -7 3.5 -21t0.5 -20q0 -3 -1.5 -10.5l-3.5 -17.5t-4.5 -20.5t-5.5 -18.5q-5 -14 -11.5 -31t-14.5 -31q0 -1 -7.5 -12t-18 -23.5t-21.5 -23t-18 -10.5q-8 0 -23.5 8t-21.5 14q-3 14 -8.5 30.5t-9.5 33.5l4 24q1 -5 5.5 -18.5t13.5 -15.5q19 18 36.5 40t30.5 45.5t20 47
t5 43.5q-2 2 -7 4.5t-11.5 5t-13 4.5t-10.5 2q-19 0 -39 -5.5t-39 -11.5t-36 -11.5t-30 -5.5q-3 0 -8.5 3.5t-11 8t-10.5 10t-8 10.5q-4 6 -4.5 14t-0.5 15q0 4 -5 8t-5 9q0 2 3 11l7 21t8.5 24t8.5 20q11 27 27.5 61t28.5 63q1 2 0 6t-1 8q2 3 6.5 4t6.5 5q4 10 8 17
t8.5 13t9.5 13t13 18q7 0 17 -4t17.5 -11t11 -15t-2.5 -17q88 -1 178.5 -6.5t168.5 -17.5z" />
    <glyph glyph-name="six" unicode="6" horiz-adv-x="411" 
d="M384 196q0 -25 -13.5 -49t-35 -46t-48 -41t-52.5 -33t-49.5 -22t-37.5 -8q-29 0 -50.5 14.5t-35 37t-19 50.5t-3.5 54q-11 4 -25.5 7t-27.5 9q-3 19 6.5 38t24.5 37t32 34t29 29q1 1 0 5.5t1 8.5q13 28 29.5 62t35.5 60q8 12 25.5 33.5t38.5 42.5t43 36.5t40 15.5
q3 0 10.5 -2.5t17 -7t19 -10.5t15.5 -12q5 -4 6 -14t1 -15t-3.5 -12.5t-6.5 -13.5q-3 0 -9 -1.5t-11 -1.5q-2 8 -4.5 16.5t-6.5 17.5q-19 -5 -39.5 -24t-39 -44.5t-32.5 -53t-20 -47.5q24 -7 57.5 -17.5t54.5 -25.5q15 -10 38.5 -31t40.5 -47q3 -5 3.5 -14t0.5 -15zM310 221
q0 1 -2.5 7.5t-6.5 14t-8.5 15t-8.5 9.5q-10 5 -22.5 8.5t-17.5 3.5q-20 0 -39.5 -11.5t-34.5 -18.5q-6 -3 -14.5 -6.5t-10.5 -9.5q-5 -12 -12 -31.5t-14 -41.5t-12 -44.5t-5 -40.5q0 -6 2 -12t15 -6q5 0 18.5 3.5t19.5 5.5q6 1 20 10t31 22.5t35 30t33 33t24.5 32t9.5 27.5
z" />
    <glyph glyph-name="seven" unicode="7" horiz-adv-x="450" 
d="M462 282q-9 0 -21 -4t-25 -9.5t-24.5 -11t-20.5 -9.5q-12 -5 -30.5 -6.5t-36.5 -14.5q-5 -4 -11.5 -23t-11.5 -32q-7 -14 -19.5 -36.5t-21.5 -42.5q-10 -22 -16 -45.5t-11 -46.5q-1 -1 -3.5 -5.5t-7.5 -4.5q-3 0 -9 3t-12 6.5t-10 7t-4 4.5q-2 10 -4 26t-2 21
q0 17 5.5 38t12.5 42t14.5 40.5t12.5 34.5q-30 5 -45.5 -2t-25.5 -7q-5 0 -3.5 1.5t-3.5 1.5t-19 -3.5t-22 -8.5q-5 -3 -13 -9.5t-13 -6.5q-6 0 -13.5 4t-14.5 9.5t-12 10.5t-6 8q-3 6 -7.5 16t-4.5 16v23q24 9 56 14.5t65 10t64.5 7t54.5 5.5q4 8 14.5 30t20.5 49t18 53.5
t8 43.5q0 14 -7.5 20t-17 8t-19.5 1.5t-15 -0.5q-35 0 -82.5 -13t-92.5 -39q-3 -2 -9.5 -4t-10.5 -4q-9 -4 -13 -15q-2 -2 -3.5 -2.5t-6.5 -0.5q-10 0 -15.5 6t-8 14t-3 15.5t-0.5 10.5q0 5 0.5 10t0.5 10q4 2 7.5 7t6.5 7q10 6 23 11.5t25 10.5q28 10 48 17.5t38.5 12
t38 6.5t45.5 2q12 0 26.5 -4t28.5 -11t26 -16.5t20 -19.5q7 -8 12 -23t10 -25q3 -8 4 -20t1 -17q0 -27 -10.5 -64.5t-20.5 -67.5q26 -2 62 -5.5t70 -5.5v-10z" />
    <glyph glyph-name="eight" unicode="8" horiz-adv-x="370" 
d="M358 428q0 -17 -3.5 -30.5t-9.5 -26.5t-13.5 -26.5t-16.5 -30.5q-3 -6 -11.5 -10t-13.5 -8q-2 -1 -10.5 -9.5t-19 -18t-20.5 -17.5t-14 -8q-5 0 -8.5 4t-8.5 8q-3 24 8 49.5t25 50.5q0 1 7 14.5t15 31.5t14.5 35.5t6.5 27.5q0 5 -1 18.5t-5 23.5q-3 6 -11.5 12
t-19.5 10.5t-22 7.5t-17 3q-24 0 -42 -12.5t-36 -37.5q-1 0 -4.5 -1.5t-5.5 -2.5q-10 -11 -10 -18.5v-16.5q0 -24 5 -41t13.5 -34.5t20.5 -37t26 -47.5q5 -9 13 -18t13 -21q14 -32 27.5 -61t13.5 -52q0 -27 -9.5 -52.5t-26 -45t-40.5 -31t-52 -11.5q-29 0 -50.5 14
t-35.5 34.5t-21 44t-7 42.5t4.5 43t15.5 47t29.5 43t46.5 33q-10 22 -20.5 44.5t-19.5 44.5t-14.5 43.5t-5.5 42.5q0 25 9 45.5t24.5 35.5t36 23.5t43.5 8.5q27 0 63 -11.5t68 -32.5t54.5 -50t22.5 -65zM144 150q0 12 -3.5 27t-8.5 30t-10.5 27.5t-9.5 19.5q-12 -21 -19 -43
t-12 -42q-2 -9 -4 -21t-3.5 -23t-2 -19.5t-0.5 -10.5v-35q7 0 10 -3q21 10 33.5 22t19 25t8.5 25t2 21z" />
    <glyph glyph-name="nine" unicode="9" horiz-adv-x="437" 
d="M398 423q0 -5 -1 -16.5t-3 -20.5q-10 -35 -22.5 -70.5t-25.5 -70.5q-3 -8 -9.5 -21t-8.5 -24q-4 -19 -8 -37t-8 -38t-7.5 -43t-6.5 -51q0 -2 -3 -5.5t-4 -8.5q-1 -6 0.5 -14t-0.5 -16q-2 -4 0 -5t5.5 0l7 2t5.5 2q-6 -14 -12 -25.5t-1 -24.5q-7 0 -15 5t-15.5 12
t-13.5 15t-8 15q-3 11 -5.5 26.5t-4 29.5t-2.5 25t-1 14q0 70 13 137t41 135v7q-9 -4 -17.5 -11.5t-17.5 -16.5l-17.5 -17.5t-15.5 -14.5q-6 -5 -14.5 -14.5t-17.5 -17.5q-20 -17 -42 -35t-45 -33q-5 -3 -15 -4.5t-15 -1.5q-21 0 -34.5 8.5t-21 21t-10 26.5t-2.5 25
q0 19 7 42.5t18.5 47t26.5 45.5t32 40q11 11 26.5 29t31.5 32q1 1 15.5 12t32.5 23.5t35.5 23t24.5 10.5q5 0 14.5 -1.5t32.5 -2.5q3 0 12 -4.5t18 -11.5t16 -15t7 -15q0 -5 -4 -9t-8 -9h-13q-2 4 -4 15.5t-10 11.5t-20.5 -3.5t-25 -9t-23 -11.5t-14.5 -11
q-5 -5 -10.5 -16.5t-10.5 -19.5q-6 -8 -15.5 -17.5l-15.5 -15.5q-21 -21 -38 -45.5t-30.5 -48.5t-23 -45t-16.5 -36l-1 -1q0 -1 5 -1q3 0 13.5 8t24.5 19.5t28.5 23.5t23.5 20q44 38 80 81t64 76q2 2 5 5.5t9 3.5q5 0 11.5 -1.5t11.5 -1.5q7 0 16 -2.5t17 -7.5t13.5 -14
t4.5 -22q0 -5 2 -10t2 -10z" />
    <glyph glyph-name="A" unicode="A" horiz-adv-x="418" 
d="M388 425q0 -2 -1.5 -25.5t-4 -56t-6 -68t-6.5 -61.5l-3 -3q-3 -24 -6 -55.5t-5.5 -60t-4.5 -49.5t-2 -24v-20l-3 2l-7 -7q5 -8 5 -17h-17q-4 0 -7.5 4.5t-6.5 10t-4.5 10.5t-1.5 6q-2 12 -5 25.5t-5 26.5q-8 30 -7.5 55t1.5 57q-27 -2 -50.5 -5t-45 -6.5t-42 -7
t-42.5 -6.5q-2 -6 -5.5 -13t-8.5 -10q0 -1 1 -1q1 -1 3 -1q-5 -3 -9 -10t-7 -16t-5.5 -18t-4.5 -16q-2 -5 -5.5 -12t-5.5 -12t-2 -12t-1 -12q-3 -3 -4 -6q0 -1 1 -2q0 -1 2 -3q-3 -5 -12 -5q-5 0 -4 -1t-4 -1q-11 0 -18.5 7.5t-12 17.5t-6.5 20t-2 15q0 6 3.5 22.5t8 34.5
t8.5 32t5 16q2 3 6 8t4 10t-7.5 10t-9.5 12q2 2 3.5 1.5t6.5 -0.5q9 0 14.5 6t9 14t5.5 16.5t4 13.5q3 8 9 20l13 26t14 28.5t12 27.5q4 9 8 21t11 24q3 5 9 11.5t11 12.5q1 2 -0.5 6t0.5 7q7 14 17 33.5t21.5 40.5l23 42t21.5 39q2 4 2 10q7 -2 15.5 -6t16.5 -8t14.5 -7
t9.5 -3q5 0 3.5 1.5t3.5 1.5q2 0 11 -10.5t26 -14.5q18 -19 29 -34t16.5 -30t7 -31.5t1.5 -37.5zM300 444q1 27 0.5 43t-1 24.5t-1 11t-0.5 3.5q-7 -8 -13.5 -17t-9.5 -16q-5 -8 -8 -20t-8 -21q-5 -13 -14 -24.5t-17 -23.5q-22 -42 -43 -89t-38 -85q34 1 56.5 1h37.5h25.5
t20.5 1q2 54 7.5 106.5t5.5 105.5z" />
    <glyph glyph-name="B" unicode="B" horiz-adv-x="394" 
d="M375 507q0 -22 -23.5 -47.5t-53.5 -49.5t-59 -43.5t-40 -28.5q34 -9 65.5 -18.5t55.5 -24t38.5 -34.5t14.5 -49q0 -17 -6.5 -36.5t-16.5 -38t-22 -34.5t-23 -25q-7 -5 -18 -20.5t-21 -24.5q-7 -5 -20 -16t-26 -17q-9 -5 -22 -10t-26 -11q-7 2 -12.5 1t-10.5 -1t-7 3.5
t-5 5.5q-5 4 -14.5 8.5t-18.5 6.5q-5 10 -8.5 14t-5.5 6.5t-3.5 6t-1.5 12.5v9t1 12q2 1 4 2.5t4 3.5q4 1 7 -3.5t8 -6.5q30 13 60 29t56 39t47 56t33 81q-17 13 -33 15t-33 4q-14 1 -32.5 1h-36t-30 -0.5t-15.5 -0.5q-5 0 -5.5 -1t-2.5 -2q-3 -3 -6 -8t-5 -11
q-5 -12 -10.5 -34t-12.5 -42l-5 -20t-6 -23q-1 -3 0 -7.5t0 -7.5q-5 -16 -3 -33q-5 -11 -6.5 -24.5t-3.5 -27.5h-11l-15 10t-14 14q-3 6 -6 14l-6 16t-5 14t-2 9q0 5 1.5 4.5t2.5 1.5q1 27 5 50t9.5 47.5t13 52t17.5 62.5q5 15 12.5 35t14 39.5t11 33.5t4.5 17q0 5 -8 10
t-17 10q0 7 -6 17.5t-6 16.5q0 8 8.5 14.5t20 12.5t23 10.5t17.5 8.5t11 11.5t9 15.5t7.5 15.5t6.5 12.5q11 -1 24.5 -6t25.5 -10q2 -2 3 -7.5t6 -10.5q13 -1 28 0.5t29 -2.5q16 -4 34.5 -13t37.5 -18q18 -9 24 -22t6 -21zM301 528q-7 1 -15.5 2.5t-13.5 1.5t-16 -1t-22 -3
t-19.5 -4t-9.5 -4q-5 -9 -10 -24t-9.5 -29t-7 -25t-2.5 -14v-8q14 9 32 22t36 27.5t33.5 29.5t23.5 29z" />
    <glyph glyph-name="C" unicode="C" horiz-adv-x="464" 
d="M433 192q3 -6 2 -11.5t-4 -10.5t-6.5 -10.5t-4.5 -11.5q-1 -2 1 -4.5t4 -3.5q-1 -1 -3.5 -4.5t-4.5 -7.5t0 -6.5t1 -5.5q-6 -28 -32 -44q-1 -2 -0.5 -3.5t0.5 -3.5l-2 -6q-2 -2 -9.5 -6.5t-8.5 -13.5q-14 -8 -25.5 -12t-22.5 -13q-6 -5 -19 -6.5t-22 -5.5
q-13 -5 -20.5 -7.5t-13.5 -4t-13 -2t-17 -0.5q-19 0 -46 7.5t-56 24.5q-31 19 -52.5 42.5t-34.5 49t-19 52.5t-6 53q0 48 19 103.5t58 108.5q10 13 26 28t34 29.5t36 26.5t33 18q5 2 17.5 11.5t23.5 14.5q14 7 38.5 12t44.5 5h16.5t15.5 -3.5t18 -11.5t24 -24q1 -2 1 -5
t1 -5q10 -10 15 -25.5t5 -27.5q0 -7 -1 -12.5t-9 -15.5q-4 4 -5 9.5t1 9.5q-8 11 -16 14t-19 3q-2 0 -10.5 -2.5t-18 -5t-18 -5t-10.5 -2.5q-5 0 -3.5 1t-3.5 1t-13.5 -5.5t-15.5 -8.5q-4 -2 -10 -1.5t-11 -2.5q-8 -5 -15.5 -11t-12.5 -11h-5t-5 -1q-19 -14 -38.5 -33
t-36.5 -34q-12 -11 -19 -19.5t-12.5 -15.5t-9.5 -13.5t-10 -14.5q-5 -8 -11.5 -25t-12 -36t-9 -37.5t-3.5 -30.5q0 -2 1.5 -10t3.5 -17.5l4 -19t4 -15.5q6 -16 21 -27t32.5 -18.5t34.5 -11t28 -3.5q5 0 17 1.5t17 1.5t5.5 1t2.5 2q25 2 53.5 13t55.5 29.5t50.5 43.5t40.5 55
z" />
    <glyph glyph-name="D" unicode="D" horiz-adv-x="448" 
d="M448 384q0 -3 -3 -19.5t-6 -27.5q-1 -7 -2 -16t-3 -15q-8 -26 -25 -56t-39.5 -60.5t-49 -59t-53.5 -51.5q-4 -3 -8 -10t-10 -11q-12 -9 -25.5 -17.5t-24.5 -15.5q-10 -6 -30 -16.5t-33 -10.5q-5 0 -11.5 1.5t-11.5 1.5t-5.5 -2.5t-2.5 -4.5q-1 -6 0.5 -12t0.5 -12h-11
q-5 0 -13 8.5t-10 13.5q-5 10 -11.5 25t-13 28.5t-11 24t-4.5 13.5q1 4 2 9.5t1 11.5h8q1 4 1 9v17t0.5 33.5t2.5 56.5q0 7 3 24t7 37.5t9 41.5t10 37q8 26 16.5 54t18.5 55v9q-18 -6 -32.5 -19t-25.5 -29q-2 0 -4.5 -1.5t-7.5 -1.5q-2 0 -7 3t-10 7t-9 8t-4 6q0 5 1.5 4
t3.5 1q-2 10 -1.5 20.5t1.5 20.5q26 17 61.5 31.5t65.5 27.5q6 3 10 17t6 25q2 7 9.5 17t15.5 17q6 2 10 -8q4 -20 7 -30.5t-3 -25.5l4 -4q41 3 85.5 -8.5t80.5 -34.5t58.5 -58t21.5 -79zM376 423q0 4 -0.5 12.5t-2 17.5t-4.5 16.5t-7 9.5q-7 3 -17 7t-20 7.5t-17.5 6
t-8.5 2.5h-24t-28.5 -1t-27 -3.5t-18.5 -6.5q-1 -4 -1 -8t-1 -7q-14 -51 -24 -104t-18 -98q-4 -18 -8.5 -36.5t-9.5 -35.5q-3 -10 -7.5 -29.5t-9 -40.5t-7.5 -40.5t-3 -29.5q34 7 74.5 37t78 74.5t66.5 101t40 116.5q1 6 3 17t2 15z" />
    <glyph glyph-name="E" unicode="E" horiz-adv-x="406" 
d="M499 551q-1 -6 -4 -9t-6 -5.5t-4.5 -5t-0.5 -7.5q-7 1 -21 -4q-8 -3 -18 -8.5t-15 -5.5t-10.5 1.5t-10.5 1.5t-24 -2.5t-36 -4.5q-7 0 -15 -4.5t-13 -5.5q-8 -2 -18.5 -1.5t-19.5 -0.5q-29 -3 -57 -9.5t-57 -11.5q-4 -6 -4.5 -15.5t-5.5 -17.5q-10 -18 -15 -31t-8 -23.5
t-4.5 -20t-3.5 -21.5q0 -2 -2 -5t-2 -8v-10l3 -3t6 -1q2 0 21 1t44.5 2.5t53 3.5t45.5 4q17 2 37.5 7.5t40.5 8.5v-9q0 -4 -1.5 -6.5t-3.5 -5.5q-4 -11 -10.5 -19.5t-13.5 -15.5q-8 -8 -19 -13.5t-26 -12.5q-13 -6 -32.5 -11t-36.5 -8q-2 -1 -5 -4t-7 -5q-10 -3 -24 -6
t-27.5 -6t-23.5 -4.5t-12 -1.5q-5 0 -7 1t-7 1q-4 0 -11 -3t-9 -8q-3 -10 -5.5 -25.5t-5 -30.5t-4 -27t-1.5 -14v-16.5t3 -15.5t10 -11.5t21 -4.5h15q2 0 14 2t26.5 5t29 6.5t21.5 6.5q14 5 32 14.5t36 20.5q6 3 15.5 10.5t18.5 11.5q-1 -6 -4 -12.5t-6 -11.5q1 -3 6 -8
q-14 -4 -16.5 -11.5t-9.5 -21.5q-1 -2 -2 -5.5t-4 -7.5q-2 -3 -8 -6.5t-8 -6.5q-2 -2 -4 -7t-7 -10q-4 -3 -12 -5t-14 -5q-1 0 -4.5 -3t-5.5 -5q-7 -2 -18 -5t-21.5 -5.5t-19 -4.5t-10.5 -2q-47 0 -78 29t-48.5 69.5t-23 83.5t-0.5 72q0 5 1 12.5t1 12.5q0 8 -3.5 18
t-3.5 15v9q2 2 4.5 1t7.5 -1t5.5 2.5t2.5 4.5q5 18 14.5 45.5t19 53.5t16.5 44.5t7 19.5q0 2 -2.5 9.5t-5.5 15.5t-5.5 15.5t-2.5 9.5v18q2 2 3 3.5t6 1.5t3.5 -1t3.5 -1q4 0 7.5 4t8.5 4t5 -3t5 -3q6 0 14 7.5t16 16.5t14.5 18t8.5 12q10 0 18.5 -14.5t5.5 -24.5
q17 0 39.5 0.5t43.5 1t36 1t17 0.5q48 0 95 -6t86 -17z" />
    <glyph glyph-name="F" unicode="F" horiz-adv-x="406" 
d="M524 550q-2 -4 -8.5 -9.5t-2.5 -11.5q-6 1 -12.5 -7t-12.5 -10q-8 -3 -24 -6t-21 -3q-3 0 -10.5 -0.5t-17.5 -1t-21 -1t-20 -1.5q-2 0 -6 -3.5t-9 -3.5q-2 0 -14.5 -0.5t-30 -1t-37.5 -1t-38 -0.5q-5 0 -16 2.5t-16 2.5q-4 0 -16 -2t-20 -4q-5 -2 -11.5 -15.5
t-12.5 -30.5t-10 -34t-4 -25v-11q4 -2 9 -3t9 -1q54 0 91 -1t62.5 -3t43.5 -3.5t35 -1.5h17.5t50.5 2q-9 -11 -17 -19.5t-13 -17.5q-11 -7 -23.5 -15.5t-26.5 -13.5q-24 -9 -55.5 -10.5t-60.5 -5.5q-3 0 -9.5 -3.5t-11.5 -3.5t-14.5 2t-17.5 0q-17 -5 -29.5 -6.5t-23 -1.5
t-21.5 0.5t-24 -1.5q-2 -10 -4 -22.5t-5 -23.5q-1 -2 -3 -5.5t-4 -8.5q-4 -18 -6.5 -41.5t-4.5 -45.5t-3 -38t-1 -19q0 -20 9 -23t20 -3q5 0 14 2t16 4q2 -5 3 -10.5t3 -8.5q-2 0 -5.5 -1.5t-8.5 -3.5q2 -2 5.5 -3t5.5 -3q-2 -2 -5.5 -5t-2.5 -6q-5 -1 -10.5 -7t-10.5 -6
t-12.5 3t-14.5 7t-12.5 9t-8.5 8q-7 8 -15 21.5t-11 23.5t-7 25t-7 28.5t-5 24t-2 13.5v81q0 2 2 16t5 32t6 36.5t5 28.5q5 21 12.5 44t15.5 46q1 4 5 11t7.5 13.5t6.5 12.5t3 9q0 5 -8 14t-14 16q5 11 2 21.5t-8 21.5q15 10 41 14t47 13q7 2 15.5 13t14.5 11q5 0 11 -6.5
t11 -13.5h84q2 0 19.5 -1t42 -3.5t51.5 -5.5t48 -7q3 -1 9 -1.5t11 -1.5q2 -2 3 -6t6 -4t24.5 -2t34.5 -2z" />
    <glyph glyph-name="G" unicode="G" horiz-adv-x="491" 
d="M478 593q2 -7 -9 -9q-57 -11 -108.5 -45t-97.5 -80t-85.5 -99.5t-72.5 -103.5q-5 -7 -10.5 -19t-10.5 -25t-9.5 -25t-7.5 -19l12 -22q17 5 36 16t38 24.5t37 28.5t32 28q13 12 29 27t32 30.5t30 31.5t23 30q7 10 10.5 19.5t8 17.5t11 13t18.5 5q4 0 13.5 -2t20 -5
t19 -7.5t8.5 -9.5q0 -6 -7.5 -19t-9.5 -36q-4 -39 -16.5 -79t-19.5 -78q-4 -23 -9.5 -54t-10.5 -59t-8 -48.5t-3 -23.5q0 -5 0.5 -13.5t2.5 -14.5q3 -5 6.5 -7.5t5.5 -6.5q4 -8 5 -16t1.5 -15t2.5 -13.5t7 -12.5q-4 -4 -11.5 -5.5t-12.5 -1.5q-18 0 -29.5 9.5t-19 24.5
t-12 34t-6.5 38q-1 2 -1.5 3.5t-2.5 3.5q-4 23 -7.5 50.5t-4.5 50.5q-1 12 2.5 29t7 35t6.5 36t1 32q-3 -5 -15.5 -17t-29.5 -27.5t-38 -31.5t-41 -29.5t-38 -22t-29 -8.5h-21q-17 0 -34.5 8.5t-32.5 21t-24.5 28t-10.5 30.5q-2 24 12 58t35.5 70t47 69t48.5 54
q34 33 62.5 57.5t55.5 43.5t54 33.5t57 28.5q3 2 11 3.5t17.5 2t18 1t13.5 0.5q1 0 8 -0.5t16.5 -2t19 -5t14.5 -8.5z" />
    <glyph glyph-name="H" unicode="H" horiz-adv-x="500" 
d="M492 558q0 -2 -1.5 -10t-4 -18.5t-4.5 -22t-3 -20.5q-2 -15 -2.5 -33t-2.5 -35q-3 -25 -9 -50.5t-12 -50.5q5 -3 10.5 -3.5t10 -2.5t7 -6t2.5 -14q0 -4 -5.5 -11.5t-10.5 -13.5q-3 -5 -10 -7.5t-12 -5.5q-8 -5 -11 -21t-5 -25q-1 -5 -3.5 -13t-3.5 -13q-1 -2 -4 -4t-5 -6
q-2 -6 -3.5 -17.5t-3 -25l-3 -27t-1.5 -22.5q-1 -15 -2.5 -30t0.5 -31q-2 -6 -9 -11q0 -2 -0.5 -10t-2 -17t-4.5 -16.5t-9 -7.5t-11 5t-9 11.5t-6.5 12.5t-2.5 8q-5 26 -8 54t-3 57q0 57 2 90.5t2 45.5q-30 3 -70 -2.5t-90 -9.5q-8 -10 -13.5 -23t-6.5 -23q0 -23 -7 -48.5
t-7 -48.5v-23q2 -2 3 -5t3 -5q2 -10 2.5 -17t8.5 -14v-9q-8 -2 -16.5 -2h-13.5q-4 0 -9.5 3.5t-7.5 6.5q-11 14 -23 35.5t-16 41.5q-1 11 -1.5 23.5t-0.5 26.5q0 16 2 38t2 39q-10 -1 -23.5 2.5t-25.5 10.5t-21.5 18t-10.5 26q0 1 1 2q2 2 2 4q5 -2 13 -2h13t23 2t35 3
q2 2 4.5 3t3.5 3q18 86 40 160t46 153q1 2 0 5t-1 5q2 0 3.5 1.5t6.5 1.5t12.5 -2.5t12.5 -6.5q20 -17 26.5 -32t6.5 -30q0 -2 -2 -16t-4.5 -33t-5.5 -39t-6 -35q-2 -9 -6.5 -20.5t-5.5 -22.5q0 -14 -1.5 -23.5t-3.5 -18t-4.5 -17t-5.5 -20.5l2 -2q7 -1 17 0t19.5 2.5
t17.5 2.5t10 1t11 0.5t21.5 1t26 1t24.5 1.5q4 32 12 67t18 70.5t21 69t22 62.5l2 6.5t5.5 14t7.5 14t8 6.5t12 -5.5t16 -10.5q2 -6 5 -13.5l6 -15t5.5 -13.5t2.5 -9z" />
    <glyph glyph-name="I" unicode="I" horiz-adv-x="177" 
d="M164 499q0 -2 -1 -13.5t-2.5 -26.5t-3.5 -31t-4 -29q-8 -68 -26 -136.5t-34 -137.5q-1 -2 -2.5 -4t-3.5 -4q-2 -11 -5 -22.5t-6 -25.5q-2 -9 -1 -20.5t-1 -21.5q0 -4 -3 -7t-3 -8t9 -14t15 -16q-6 -5 -14.5 -7.5t-13.5 -2.5q-13 0 -26 13t-23 27q-4 5 -5 13t-2 13
q-1 9 -2 21t-1.5 23t-1 19.5t-0.5 11.5q1 31 7.5 71.5t15.5 84t19 87.5t19.5 83t17 70.5t10.5 50.5q0 5 0.5 14t-1.5 17q2 2 5.5 4.5t8.5 2.5q9 0 18 -6.5t16 -16.5t12 -20.5t7 -19.5q1 -4 0.5 -9.5t-2.5 -10.5q8 -8 8 -16z" />
    <glyph glyph-name="J" unicode="J" horiz-adv-x="447" 
d="M424 343q0 -20 -1 -35t-4 -32t-8 -38t-13 -53q-1 -3 -5 -13t-9 -22t-11 -24.5t-12 -22.5q-12 -19 -29 -49.5t-39.5 -59t-51 -49t-61.5 -20.5q-40 0 -73.5 22t-57.5 54.5t-37 69.5t-13 67q0 5 3.5 32t10.5 53q2 0 4 1.5t7 1.5q8 0 18.5 -4.5t20 -11t16 -15.5t6.5 -18
q1 -21 -2.5 -47t-1.5 -54q0 -4 5.5 -20t14.5 -34t20 -32t23 -14q7 0 16 5t17.5 12t15.5 15t12 15q40 57 71 116t45 117q8 35 14.5 74t6.5 74q0 5 -1 18.5t-2 25.5q-1 9 -1.5 22t-1 27t-2.5 29t-7 28q-1 2 -5 4.5t-7 7.5q-7 8 -7.5 13t-10.5 5q-8 0 -13 -5q0 2 -1.5 5.5
t-1.5 5.5q4 0 9 4t10 4t11.5 -2.5t12.5 -1.5q2 -1 5.5 -5.5t8.5 -4.5t3 1.5t3 1.5q4 0 4.5 -4t7.5 -9q2 -1 5.5 -2.5t5.5 -2.5q12 -20 27 -50.5t21 -56.5q2 -9 3.5 -27.5t3 -38t2 -35t0.5 -18.5z" />
    <glyph glyph-name="K" unicode="K" horiz-adv-x="477" 
d="M559 156q0 -1 -4.5 -11.5t-11 -25t-14 -29t-13.5 -22.5q-37 -49 -74 -67t-76 -18q-29 0 -61 12t-60 34t-49 51.5t-27 65.5q0 3 -1 13.5t-1.5 24t-0.5 29t2 27.5q-4 -5 -9.5 -18.5t-10.5 -29.5t-10 -31t-7 -22q-2 -6 -5 -17t-7 -23.5t-8 -24.5l-7 -21q-8 -24 -11.5 -36.5
t-19.5 -12.5q-11 0 -13.5 6t-7.5 10q-2 1 -6.5 1.5t-7.5 2.5q-23 16 -24.5 33t-1.5 31q0 21 3.5 50.5t8.5 61.5t11.5 63t11.5 54q20 81 40.5 155t45.5 149q8 2 19.5 4t16.5 2q13 0 26 -6t13 -24q0 -2 -6 -24t-14.5 -53t-17.5 -65.5t-15 -60.5q-6 -23 -15 -59t-18 -73v-1
q0 -3 1 -4q15 21 36.5 45t37.5 47q3 4 7.5 9t7.5 10l10 20t19.5 37t26 44.5t29.5 43t30.5 32.5t29.5 13q4 0 13 -1t18.5 -3.5t16.5 -7.5t7 -13q0 -5 -5.5 -14.5t-12.5 -18.5t-13 -16.5t-7 -8.5q-4 -5 -10 -13.5t-7 -14.5q-1 -2 -4.5 -5.5t-7.5 -4.5q-3 -4 -5.5 -9.5
t-4.5 -8.5q-4 -6 -10.5 -12t-10.5 -13q-3 -6 -7.5 -17t-9 -23.5t-8.5 -24t-5 -17.5q-5 -21 -10.5 -43.5t-7.5 -43.5q-1 -8 -1 -20.5v-17.5q0 -10 2.5 -36.5t9.5 -55t19 -50.5t31 -22q16 0 34.5 6.5t37 16.5t35.5 22.5t30 24.5q12 11 24 26.5l24 31t24 28.5t23 21v-44z" />
    <glyph glyph-name="L" unicode="L" horiz-adv-x="343" 
d="M440 126q-24 -13 -41 -30q-3 -2 -9 -3t-11 -6q-7 -5 -13.5 -13.5t-17.5 -15.5q-5 -2 -10.5 -4t-11.5 -5q-2 -1 -5 -5t-8 -6q-17 -9 -33.5 -14t-32.5 -14q-9 -5 -26 -6t-30 -6q-12 -4 -24 -6.5t-23 -2.5q-36 0 -63 17t-45 42.5t-27.5 56t-9.5 57.5q0 35 10.5 82.5
t25.5 98.5v11q9 29 20.5 58t22.5 58t20.5 58t15.5 59q1 2 -0.5 8t-1.5 12h20q4 0 12 -3.5t16 -8.5t14 -11t7 -10q2 -8 1.5 -19t-0.5 -16q0 -15 -2.5 -34t-6.5 -37.5t-8.5 -35t-7.5 -26.5q-1 -4 0.5 -9.5t0.5 -10.5q-2 -11 -8.5 -23t-10.5 -26t-8.5 -34t-17.5 -37
q-3 -5 -3.5 -15.5t-5.5 -17.5q-6 -11 -11 -28t-9 -35.5t-6 -36.5t-2 -30q0 -13 2 -26.5t7 -21.5q9 0 21.5 0.5t23.5 2.5q9 2 24.5 5.5t34 7.5t38.5 8.5t39 9.5q15 3 34 7.5t40.5 9.5t43.5 10.5t42 11.5q2 1 6.5 0.5t7.5 -2.5z" />
    <glyph glyph-name="M" unicode="M" horiz-adv-x="793" 
d="M868 87q-5 -4 -6.5 -9.5t-4.5 -10.5q-10 -11 -23.5 -22t-22.5 -22q2 -3 2 -7t2 -8q-5 -2 -10 -11.5t-7 -13.5q-8 -5 -15.5 -13.5t-15.5 -17t-16 -16t-15 -9.5q-6 -1 -15.5 -2.5t-12.5 -1.5q-5 0 -10 1t-10 1q-14 0 -29 8.5t-28.5 21t-25.5 26.5t-19 24q-6 7 -12.5 22.5
t-12 33.5t-8.5 36t-3 31q0 2 1.5 21t4 44.5t5 52.5t5.5 46q1 9 4.5 24.5t8.5 34t10.5 38.5t10.5 38l-5 5q-26 -33 -46.5 -65t-39.5 -62.5t-37.5 -60.5t-40.5 -60q-1 -2 -1 -5t-1 -5q-10 -19 -22 -39t-17 -38q-5 -15 -17 -29.5t-25 -28.5q-4 -5 -13.5 -9t-14.5 -4h-14
q-4 0 -10.5 2t-11.5 6q-32 28 -42 52t-10 49q0 1 4 17.5t9.5 40.5t12.5 51.5t12.5 51.5t9.5 40t4 18v6h-2q-26 -50 -54 -105t-48 -106q-1 -3 -5.5 -8t-6.5 -9q-13 -28 -24 -58t-27 -59q-5 -8 -19.5 -12t-23.5 -4q-3 0 -7.5 2.5t-12.5 7.5q-19 10 -29.5 23.5t-16 28
t-6.5 30.5t-1 31q0 65 11 117t16 78q1 2 4 4.5t5 7.5t1 13.5t1 14.5q8 35 18 64.5t18 64.5q-2 2 -2 3t-4 1q-6 0 -2 11t12.5 26.5l17 31t10.5 24.5q10 3 27 3.5t21 0.5q11 0 24.5 -7t13.5 -22q0 -2 -3.5 -11t-8 -21t-9.5 -26.5t-8 -26.5q-5 -24 -11 -48.5t-12 -53.5
q-3 -15 -7 -32.5t-9 -35t-10 -34t-9 -28.5q-2 -5 -3.5 -15t-3 -22t-1.5 -24t1 -19h2q24 50 50 105.5t52.5 109t52.5 100.5t49 80q1 1 4 5.5t7 10t8.5 10t8.5 4.5q5 0 6.5 -1.5l3.5 -3.5q9 -1 20.5 -2.5t22 -6.5t18 -14.5t7.5 -24.5q0 -5 -3 -21t-8 -37.5t-11 -46.5
t-11.5 -48t-9.5 -40.5t-6 -25.5q-1 -3 0.5 -8.5t0.5 -9.5q-5 -18 -11 -41.5t-12 -45.5t-10 -38t-4 -18v-10h2q1 0 1.5 0.5t1.5 0.5q9 10 17 23t17 26q5 9 12.5 19t12.5 15q23 35 47.5 71t46.5 73q13 23 27 46t29 43.5t31.5 37.5t36.5 27q4 2 14 1.5t15 -0.5q4 0 12 -3.5
t16 -5.5q6 -1 10.5 -6.5t7.5 -12.5t4.5 -14.5t1.5 -12.5q0 -2 -4.5 -21.5t-10.5 -46t-11.5 -54.5t-7.5 -47q-3 -26 -6 -60t-5.5 -65.5t-3.5 -54t-1 -24.5q0 -5 2 -25.5t6 -44t11 -42t18 -18.5q18 0 38.5 10.5t41 25t40 30.5t35.5 27q8 5 18.5 11.5t18.5 14.5z" />
    <glyph glyph-name="N" unicode="N" horiz-adv-x="523" 
d="M602 72q-5 -7 -4 -10t2 -9q-3 -1 -9.5 -7.5t-11.5 -9.5q-2 -3 -7.5 -5t-10.5 -4q-1 -2 -2 -5.5t-3 -5.5q-3 -6 -11 -12t-17 -12q-2 -2 -8 -3t-9 -3q-2 -2 -4.5 -8t-7.5 -8q-6 -2 -14 -4t-15.5 -3t-14 -1.5t-8.5 -0.5q-18 0 -40 6t-43.5 17.5t-40 28.5t-28.5 38
q-5 9 -7 22t-4 24q-2 4 -2 13v14q0 4 1 13.5t2 17.5q2 9 1 23.5t1 25.5q5 21 12 49.5t13.5 58.5t12.5 59t11 52t8 38t3 17q0 4 -1 7.5t-6 3.5q-2 0 -11.5 -5t-21 -11.5t-22 -14t-14.5 -12.5q-35 -42 -65.5 -84.5t-45.5 -79.5q-9 -21 -21 -45t-14 -46q-1 -5 -5.5 -12.5
t-9.5 -15.5q0 -2 1 -5.5t0 -5.5q-3 -11 -7.5 -25.5t-8 -28t-6 -24t-2.5 -13.5q0 -16 5.5 -33.5t6.5 -24.5q-3 -2 -6.5 -5t-7.5 -3q-3 0 -9.5 2.5t-13 6t-12 7t-7.5 4.5q-10 8 -19 17t-20 18q-1 1 -1 2q-1 1 -1 2t-1 2v2v3q6 8 6.5 11t-1 3.5t-4 1t-2.5 2.5l4 4q2 2 0.5 3.5
t-3.5 5.5t0.5 10.5t2.5 12.5q1 49 6 94t13 89.5t19 89.5t25 95q1 2 0.5 5t-0.5 5q5 19 13 43t16 43q1 1 2.5 2t1.5 3q11 3 24 5t17 2q5 0 7.5 -1t4.5 -2q2 -5 7.5 -12t5.5 -12q0 -4 -5 -16.5t-6 -20.5q-2 -10 -3.5 -24t-3.5 -25q-2 -12 -6.5 -24t-1.5 -25q22 27 47.5 52
t52 44.5t52 31t48.5 11.5q2 0 9.5 -1t16.5 -2.5t18.5 -3t15.5 -2.5q5 -1 12 -6t13 -9q2 -9 4 -22.5t2 -18.5q0 -15 -5 -40t-11 -49t-11 -42t-5 -19q-2 -28 -8.5 -66t-12.5 -69q-2 -6 0.5 -14t0.5 -16t-3.5 -18t-2.5 -20t-2 -18t-1 -10q0 -23 3.5 -51t11.5 -50q4 -9 14 -15
t18 -6q20 0 44 7.5t49 18.5t48.5 23.5t43.5 22.5z" />
    <glyph glyph-name="O" unicode="O" horiz-adv-x="442" 
d="M429 361q0 -14 -3.5 -27.5t-7.5 -27.5q-19 -75 -65.5 -150.5t-121.5 -136.5q-6 -5 -17 -9.5t-23 -8.5t-23.5 -6t-17.5 -2q-23 0 -46 13t-42 31t-32 37t-16 32q-2 9 -4.5 21.5t-4.5 24.5t-3 21.5t-1 11.5q0 43 11 90t29.5 93.5t44 90t55.5 80.5q3 4 8.5 8.5t10.5 7.5
q7 -2 16.5 -0.5t14.5 1.5q14 0 30 -6t30 -14q0 -2 2 -5t2 -8t-3.5 -13t-8.5 -8t-2.5 1.5t-2.5 1.5q-6 0 -16 -7.5t-20.5 -16.5t-18.5 -16.5t-8 -8.5l-11.5 -23t-11.5 -25q-3 -7 -8.5 -16t-8.5 -19q-2 -4 -1.5 -8t-0.5 -8q-2 -9 -7 -18.5t-9 -18.5q-3 -7 -3 -17t-2 -17
q-2 -9 -6 -20.5t-6 -22.5q-4 -18 -4 -39.5t-2 -48.5q0 -2 -1.5 -3.5t-1.5 -6.5q0 -2 0.5 -9t1 -16t1.5 -18t1 -16q0 -8 7 -20t18 -17q34 2 58 26q31 34 60 72t50.5 78.5t33.5 81.5t9 80q1 2 2.5 3.5t1.5 6.5q0 4 -3 11t-4 11q-3 18 -11.5 43t-21.5 49t-29.5 43t-37.5 26
q-1 1 -1 2.5t-2 2.5q-8 2 -15.5 3t-14.5 1q-5 0 -17.5 -3.5t-21.5 -3.5q2 1 13.5 10t20.5 9q4 0 6.5 -2t7.5 -2t7 2t7 2t9 -3.5t9 -3.5t2 1.5t2 1.5q7 0 23.5 -8t34.5 -17.5t32.5 -18t16.5 -9.5q5 -2 8 -8t6 -9q23 -21 33 -42.5t19 -38.5q4 -7 3.5 -20t3.5 -23q3 -7 5 -10.5
t2.5 -7.5t1 -9t0.5 -15z" />
    <glyph glyph-name="P" unicode="P" horiz-adv-x="409" 
d="M397 441q0 -20 -5 -33t-13 -28q-2 -3 -2 -9t-2 -9q-23 -39 -55.5 -71.5t-69 -59t-75 -46.5t-73.5 -35q-6 -2 -11.5 -4t-10.5 -7q-5 -33 -3.5 -69t-0.5 -62q-2 0 -4.5 -1t-2.5 -6q0 -3 1 -8t3 -10t5 -8.5t6 -3.5q4 0 9.5 4t10.5 6q0 -2 1.5 -6t1.5 -9q-5 -5 -15 -8.5
t-15 -3.5q-8 0 -17 9t-11 14q-23 35 -28 71.5t-6 68.5q0 7 -0.5 17t-1 18.5t-3 15t-6.5 7.5q-2 11 -5 22t-5 22q5 2 10.5 4t10.5 3q5 28 11.5 61.5t13.5 65.5q1 2 0 5.5t0 6.5q20 81 47 162q-5 2 -10 0.5t-10 -1.5t-12.5 5t-13.5 10q6 7 13 18.5t16 16.5q6 3 17 8t24.5 9.5
t26 8t21.5 3.5q5 0 21 -2t25 -4q32 -4 66 -16t62 -32.5t46 -48t18 -61.5zM326 491q0 16 -15 27.5t-35 18.5t-39 10t-27 3q-16 0 -37 -6t-35 -11q2 -8 6 -16t4 -12q0 -3 -1.5 -15.5t-3.5 -29t-4.5 -32t-4.5 -24.5q-3 -16 -8.5 -38t-11.5 -42.5t-10 -35.5t-4 -17v-13
q7 3 26.5 14.5t44.5 28.5t52.5 39t50 46.5t37.5 51.5t15 53z" />
    <glyph glyph-name="Q" unicode="Q" horiz-adv-x="434" 
d="M518 -111q-3 -5 -11.5 -7.5t-15.5 -2.5h-24q-2 0 -9 3t-16 7t-18.5 9t-16.5 10q-39 26 -71.5 66t-57.5 78q-13 -11 -27 -22t-26 -17q-6 -3 -14.5 -5.5t-15.5 -3.5q-8 -2 -9 -5t-11 -3q-5 0 -9 -1t-9 -1q-82 0 -138 94q-2 4 -5 15t-6 23.5t-5 25.5t-2 21q0 40 10.5 89
t27 97t36.5 92t39 75q1 1 1.5 5.5t3.5 7.5q6 6 16.5 18t22.5 16q8 4 20.5 4h17.5t12 -2.5t12 -2.5t9 1t9 1t12.5 1t14.5 -1l5 6q14 -2 29 -4.5t29 -6.5q19 -6 33 -23t23.5 -38t14.5 -42t5 -35q0 -58 -12 -110.5t-26 -93.5t-26 -68t-12 -35q0 -2 10 -17l24 -36t29.5 -44.5
t26.5 -41.5q14 -22 34.5 -48t34.5 -37q5 -3 14 -6t17 -5zM308 433q0 9 -1.5 22t-4.5 27t-6.5 26t-6.5 18q-5 -2 -9 -1t-6 1q-3 -4 -10.5 -4.5t-11.5 -0.5q-5 0 -2.5 0.5t-2.5 0.5q-9 0 -18.5 -12.5t-19.5 -22.5l-6 6q-5 -6 -11.5 -12t-8.5 -11q-12 -16 -19.5 -34.5
t-21.5 -31.5q-8 -7 -15.5 -19t-9.5 -20q-3 -12 -10.5 -36.5t-15 -55t-13.5 -63t-6 -59.5q0 -9 3 -24t8.5 -31.5t13.5 -31t19 -22.5q8 0 18.5 5t13.5 3q3 -1 16.5 10t28 27t26.5 32t12 24q0 3 -8 23t-17 43.5t-17 43.5t-8 22q0 10 10 10q7 0 19.5 -9t24.5 -19.5t21.5 -19.5
t9.5 -10q8 27 17 54.5t13 50.5q2 12 4.5 28.5t4 32t2.5 27t1 13.5z" />
    <glyph glyph-name="R" unicode="R" horiz-adv-x="419" 
d="M445 -15q0 -4 -5.5 -8t-10.5 -6t-12 -4t-12 -2q-20 0 -46 12t-52 29.5t-48.5 36.5t-35.5 33q-14 15 -30.5 34t-34 39t-34.5 39t-30 33q-2 -21 -7.5 -42t-10.5 -43q-2 -9 -2.5 -20.5t-0.5 -22v-19v-10.5q0 -3 0.5 -13t1.5 -20.5t3 -19t5 -8.5q5 0 5 1t2 1q2 -5 2 -13
t-2 -15q-4 2 -10 0t-11 -2q-4 0 -15.5 10.5t-15.5 16.5q-8 12 -13.5 22.5t-9.5 22.5q-2 7 -5 16t-6 20q-2 10 -2 26v21q0 31 4.5 70t13 81t21 84t28.5 80q2 5 2 12.5t3 15.5q5 14 11.5 27t11.5 26q2 4 0 9t0 9q-2 2 -6 8q2 8 2.5 18t0.5 21q0 -1 1 -1q1 -1 7 -1q4 0 11.5 4
t15.5 6q2 3 6 11.5t7 8.5q5 0 12.5 -6.5t15.5 -7.5q16 -3 33 -3.5t36 -3.5q16 -3 36.5 -12t41 -22t37.5 -29.5t27 -32.5q5 -9 8.5 -22.5t3.5 -18.5q0 -24 -16.5 -47.5t-41 -45t-53 -40.5t-53 -33.5t-41 -24t-16.5 -11.5t4 -8t9.5 -13t11 -13.5t9.5 -10.5t13 -14t19.5 -21
t20 -21t14.5 -14q17 -16 32.5 -33.5t29.5 -34.5q5 -5 15.5 -16t20.5 -23q4 -6 11 -14l14 -16t12.5 -13.5t8.5 -5.5t7.5 4t10.5 4q10 0 10 -11zM334 495q0 5 -6 9.5t-10 6.5q-7 4 -18.5 9t-25 9t-28.5 6.5t-29 2.5q-5 0 -22 -3.5t-31 -7.5q0 -4 1 -9.5t1 -8.5
q-12 -48 -22 -92t-23 -81q16 7 30 14t29 15t31.5 18.5t37.5 24.5q4 2 7.5 1.5t5.5 -0.5q2 14 12.5 17t20.5 11q8 6 14 14.5t11 13.5q2 4 0 8q5 6 9.5 11.5t4.5 10.5z" />
    <glyph glyph-name="S" unicode="S" horiz-adv-x="393" 
d="M378 448q0 -4 -3.5 -14t-6.5 -18q-1 -1 1 -5t0 -7q-2 -8 -7 -17.5t-11 -18.5q-2 -3 -10.5 -9t-19 -12t-20 -10.5t-13.5 -4.5q-5 0 -10.5 4.5t-11.5 7.5q-2 3 0.5 10t7 14t11 12.5t12.5 6.5q0 6 0.5 13t-4.5 14q-15 19 -37.5 38.5t-48.5 35t-53 25t-50 9.5q-5 0 -7 -1.5
t-6 -3.5q0 -3 0.5 -8.5t2.5 -10.5q5 -14 15 -29.5t21 -30.5q13 -16 32.5 -39t39.5 -46q20 -24 45 -49.5t46.5 -52t36.5 -53.5t15 -52q0 -45 -31.5 -91t-91.5 -78q-6 -3 -21 -4t-20 -1q-2 0 -9.5 1t-16.5 3t-18 4.5t-15 4.5q-4 2 -9 6.5t-10 7.5q-8 2 -18 5t-18 9
q-8 5 -14 13t-12 13q0 3 -3 7t-7 8.5t-8 8t-5 4.5q2 0 5.5 0.5t7.5 4.5q-3 5 -10.5 10t-11.5 10q-6 6 -9 18t-7 21q52 -37 109.5 -61t108.5 -24q20 0 30 2t14.5 7.5t5 15t0.5 25.5q0 12 -5.5 28t-13.5 36q-3 6 -6 16.5t-6 16.5q-8 14 -20 32t-20 29q-33 44 -70 85t-70 79
q-5 5 -9.5 15.5t-8.5 18.5q-2 6 -6 13t-4 14q0 16 12.5 34.5t29.5 31.5q6 5 13 11.5t15 10.5q20 7 42.5 13.5t44.5 6.5q4 0 14 -3.5t16 -2.5q11 0 38.5 -11.5t56.5 -31t51.5 -43t22.5 -47.5z" />
    <glyph glyph-name="T" unicode="T" horiz-adv-x="494" 
d="M673 549q-9 -3 -20 -10l-10 -8q-5 0 -2.5 1.5t-2.5 1.5q-3 0 -12.5 2t-21.5 -1t-28 -5t-31 -3.5t-26.5 -2t-13.5 -0.5t-15 -0.5t-30.5 -1t-37 -1.5t-33.5 -2q-4 0 -9.5 -2t-10.5 -3l-1 -1q-1 -1 -1 -2q-4 -5 -8 -15.5t-7 -22.5t-5.5 -23t-3.5 -17q-2 -5 -5.5 -14.5
t-5.5 -20.5q-8 -34 -13 -68.5t-10 -68.5q-2 -11 -7.5 -29t-7.5 -32q-2 -25 -5 -51.5t-5 -52.5q-1 -11 -1.5 -26.5t-3.5 -29.5q-3 0 -8.5 -3t-5.5 -8t4.5 -12t4.5 -14q1 -7 1 -16t5 -13q-24 9 -34 25t-16 33q-4 11 -6.5 26t-4 29t-2 24.5t-0.5 12.5v116q0 5 2.5 15t4.5 19
q2 29 5 54.5t7 51.5t9 54t12 63v4q-21 -6 -48.5 -7.5t-47.5 -8.5q-9 -3 -24.5 -6.5t-30.5 -6l-27 -4.5t-14 -2q-17 0 -34.5 6t-22.5 26q1 0 1 1q0 2 1 4q-1 5 -7 8q-1 5 0 8.5t1 7.5q-2 4 -2.5 9.5t-5.5 11.5q2 2 4.5 4t7.5 2q4 0 5 -2.5t6 -2.5q2 0 13 3t25 6.5t28.5 7.5
t23.5 6q28 6 53.5 9.5t48.5 6t45 4t44 3.5q31 0 48 0.5t26 0.5t11.5 0.5t5.5 0.5q5 0 5.5 -1t2.5 -2q14 -2 29.5 -2.5t30.5 -2.5l8 3q23 -4 48.5 -6t45.5 -6q26 -3 54.5 -9t54.5 -9q0 -2 1.5 -6.5t1.5 -6.5z" />
    <glyph glyph-name="U" unicode="U" horiz-adv-x="520" 
d="M568 119q-8 -18 -13 -36.5t-13 -33.5q-7 -13 -20 -25.5t-22 -22.5q-7 -2 -17 -4.5t-19 -4.5t-16.5 -3.5t-10.5 -1.5q-2 0 -9.5 1.5t-17 3.5t-20.5 5.5t-19 6.5q-5 1 -11.5 6.5t-13 13t-12.5 15l-10 12.5q-5 7 -13 13t-13 15q-6 10 -9.5 25.5t-6 34t-3 38t0.5 36.5
q-11 -17 -25 -35t-24 -38q-12 -26 -24.5 -50.5t-27.5 -48.5q-5 -8 -12.5 -19.5t-15.5 -20.5q-3 -4 -13 -5t-15 -1q-21 0 -39.5 10.5t-33.5 27t-25.5 35t-16.5 35.5q-2 3 -2.5 11t-1.5 17t-1 16.5v9.5q0 11 2.5 29t6 36.5t7.5 35.5t7 27q7 23 12 40t7 31q0 4 4 14.5t8.5 23.5
t10 25.5t8.5 20.5q12 31 24 63.5t32 58.5v1l-2 4q1 2 5 5t8 3q10 0 18 -6t13 -14.5t8 -16.5t3 -11l-2 -3q1 -15 -6 -33.5t-11 -33.5q-7 -23 -10 -45.5t-8 -45.5q0 -6 -6.5 -19t-9.5 -24q-6 -26 -11.5 -53t-10.5 -53q-3 -12 -6 -29.5t-6 -34t-5 -29t-2 -15.5q0 -5 2.5 -18
t4.5 -25q8 2 13 10q39 53 75 108.5t72 114.5q17 28 32 57.5t29 58.5q1 2 0.5 7t0.5 8q14 35 30 70.5t33 70.5q9 1 23 2.5t19 1.5t8.5 -4t6.5 -6q4 -2 9 -9t5 -12t-6 -22t-11 -34q-12 -60 -27.5 -119.5t-26.5 -119.5q-2 -14 -4 -35t-3.5 -41t-2 -35t-0.5 -17q0 -5 -1 -16
t1 -20q2 -8 6 -17.5t9 -19.5q2 -2 1 -2t4 0t11.5 -1.5t11.5 -1.5q19 0 42 11t44.5 24.5t39 25.5t26.5 15z" />
    <glyph glyph-name="V" unicode="V" horiz-adv-x="398" 
d="M391 589q-8 -3 -10.5 -10.5t-2.5 -16.5v-19.5t-2 -19.5q7 -7 4.5 -18t-9 -24t-14.5 -27t-12 -27q-1 -4 -1 -9t-2 -8q-16 -32 -33.5 -70.5t-35.5 -78.5t-35.5 -78t-33.5 -69q-7 -13 -16 -26.5t-16 -26.5q-2 -4 -4 -11.5t-4 -15.5t-4.5 -16t-5.5 -13q-2 -4 -8.5 -8.5
t-13.5 -7.5q-6 -3 -11 -3.5t-10 -0.5t-11.5 2.5t-12.5 4.5q-21 7 -34 21t-20 31t-10.5 36t-6.5 36q-2 15 -1.5 33t0.5 35q0 7 -3 16.5t-4 19.5q-1 6 -1 22v35.5t-0.5 39t-0.5 32.5q-1 0 -2 1l-2 2t0 4v233q2 0 4.5 1.5t7.5 1.5t9 -7t11 -11q3 -2 8 -2.5t8 -4.5
q11 -16 16 -38.5t6 -42.5q1 -22 2.5 -43t1.5 -42q0 -8 -2 -19.5t-1 -22.5q0 -21 1.5 -54.5t3 -71t3.5 -74.5t5 -65q31 62 67.5 136.5t75.5 149t80 142.5t82 117q0 -7 0 -5.5t-1 -5.5q-2 -5 -7.5 -15t-5.5 -15q0 -6 4.5 -7.5t9.5 -1.5z" />
    <glyph glyph-name="W" unicode="W" horiz-adv-x="723" 
d="M708 354q0 -29 -6.5 -57t-12.5 -50q-1 -5 -5 -15.5t-10 -23t-12.5 -26t-12.5 -24.5q-11 -21 -27 -46t-29 -45q0 -1 -11.5 -15t-27 -30.5t-30.5 -30.5t-23 -14q-2 0 -7.5 -1t-12 -1.5t-12.5 -1.5t-8 -1q-26 0 -48.5 11.5t-50.5 42.5q-6 8 -13.5 22t-13.5 27q-5 8 -11 22.5
t-8 24.5q-1 4 0.5 8t0.5 8q-9 43 -17.5 92t-10.5 93q0 8 -8 19q-5 -2 -8.5 -7t-7.5 -12q-23 -44 -46.5 -89t-44.5 -91q-2 -3 -1 -7.5t-1 -7.5q-5 -12 -9 -25t-8 -24q-5 -14 -17.5 -34t-26.5 -32q-2 -1 -7 -2t-10 -1t-11 4t-11 4t-3 -1.5t-3 -1.5q-2 0 -8 5t-13.5 12t-14 14
t-10.5 12q-5 7 -11 23t-8 27q1 25 1 39.5v22t-0.5 9.5t-0.5 3q5 38 12 76t18 76v8.5t1 12.5l1 1q1 1 1.5 1t1.5 2q7 43 16 71.5t20 61.5q1 2 -0.5 3.5t-0.5 3.5q5 14 10.5 28.5t11.5 28.5q7 0 17.5 -1.5t17.5 -7.5t6.5 -10t5.5 -14q2 -5 4 -16t2 -16q0 -2 -2 -13.5
t-4.5 -25.5t-5 -27t-3.5 -18q-6 -29 -12 -64t-12 -67q-5 -23 -12.5 -56t-9.5 -59q4 7 11.5 20.5t15.5 28.5t15.5 29t11.5 21q19 33 39.5 67.5t39 69t35.5 67.5t31 62q3 7 4 17t3 19h20q5 1 7.5 -1.5t7.5 -2.5q11 0 27 -4.5t20 -7.5q0 -5 5 -10.5t5 -10.5q0 -3 -2 -12.5
t-4 -20t-4 -20t-2 -11.5v-92q0 -2 2.5 -27t5.5 -58.5t6 -68t5 -56.5q1 -2 2.5 -2.5t1.5 -2.5q5 -25 7 -45t9 -44q1 -5 3.5 -13.5t6 -17t8.5 -15t11 -6.5q5 0 13.5 8t15.5 15q11 11 22 26t19 29q15 26 34 54t33 57q16 34 26 63.5t15.5 57.5t7.5 56t2 59q0 3 -1 15t-2 27
t-3 30t-3 23q-1 5 -6.5 15t-7.5 18q-1 2 -4.5 5.5l-6.5 6.5l2 5l6 -5l7 2q2 -2 5.5 -3.5t7.5 -0.5q4 -2 8.5 -6t6.5 -6q10 -11 14.5 -19.5t7.5 -15t5 -12t7 -11.5q5 -5 9 -16.5t8 -19.5q5 -11 9 -28t6 -33q2 -8 1.5 -21t-0.5 -24q0 -2 2.5 -3.5t2.5 -6.5z" />
    <glyph glyph-name="X" unicode="X" horiz-adv-x="486" 
d="M529 -86q0 -2 -3.5 -3.5t-8.5 -1.5q-18 0 -42.5 12.5t-48 29.5t-42.5 34.5t-27 28.5t-22.5 29t-25.5 34q-9 13 -17.5 27.5t-16.5 31.5q-11 22 -21 46t-24 47l-159 -271q-11 1 -10.5 -1t-2.5 -2q-5 0 -14.5 8t-19 18t-16.5 19t-7 11t4 11t9.5 20.5l11 23t9.5 18.5
q15 29 33 68t30 71q4 -3 5 -9t6 -6q2 0 8.5 10t15.5 24.5t19 32t18 32.5t13.5 25t5.5 11q0 2 -2.5 8.5t-5.5 15.5t-6.5 18t-5.5 15q-4 14 -10 37.5t-12 40.5q-6 18 -15.5 42t-17.5 46t-13.5 38t-5.5 19v11q38 -6 58 -26.5t33 -47.5t24.5 -56.5t32.5 -54.5q7 12 16 29
t18.5 35t19 33t17.5 23q5 5 15 3.5t17 -1.5q3 0 6.5 2t7.5 2q3 0 12.5 -2.5t19.5 -6.5t17.5 -10t7.5 -12q0 -5 -9 -16.5t-15 -19.5q-2 -2 -6.5 -3.5t-6.5 -6.5t-4.5 -11t-5.5 -12q-1 -2 -13 -21.5t-26.5 -44t-26.5 -46.5t-12 -28q0 -2 2.5 -11t5.5 -20.5t6.5 -23.5t5.5 -19
q8 -31 18.5 -63t21.5 -62q-1 -3 -1 -10q6 -14 14.5 -31t18.5 -34.5t21 -34.5t23 -30q11 -11 24 -26.5t30 -29.5q2 -2 6.5 -3.5t7.5 -3.5q2 -1 3 -4.5t6 -5.5q5 -4 11 -5.5t13 -3.5z" />
    <glyph glyph-name="Y" unicode="Y" horiz-adv-x="443" 
d="M430 537q0 -2 -0.5 -10.5t-1.5 -19.5t-2.5 -22.5t-2.5 -19.5q-1 -6 -3 -12t-3 -12q-4 -32 -7 -72t-9 -72q-5 -28 -12 -63t-14 -64q-2 -8 -6.5 -17t-7.5 -19q-2 -11 -4.5 -23.5t-5.5 -26.5q-2 -7 -1.5 -16.5t-0.5 -16.5q-1 -4 -3.5 -8.5t-4.5 -9.5q-1 -4 -1 -11.5v-12.5
q0 -9 2.5 -21.5t7 -25.5t10.5 -25t14 -21q1 -2 -2 -7t-8 -5t-3 2.5t-3 2.5t-3 -2.5t-3 -2.5t-6.5 2.5t-3.5 4.5q-19 5 -34.5 25t-18.5 40q-3 14 -5 22.5t-3.5 17.5t-2 22t-0.5 37q0 2 0.5 13t1 25.5t1.5 29t2 23.5q4 28 11.5 65.5t14.5 71.5t12.5 59t5.5 27v12h-4
q-25 -31 -53.5 -65.5t-51.5 -58.5q-26 -37 -50 -65q-20 -25 -41.5 -45t-34.5 -20t-27.5 6.5t-26.5 18t-19.5 27t-7.5 32.5q0 15 3.5 37.5t8.5 45.5t10.5 43t10.5 31q6 15 15.5 38t20.5 49t22 53.5t22 50.5q11 4 25 6t19 2t16.5 -6t18.5 -12l2 -4t1 -7q0 -2 -4 -7t-9 -11.5
t-9.5 -14t-6.5 -13.5q-6 -15 -16 -35.5t-15 -38.5q-9 -26 -17.5 -54.5t-16.5 -54.5q-8 -23 -12.5 -50t-2.5 -45q25 16 54 52.5t66 81.5q15 18 32 41t31 44q3 5 14.5 24t26 40t28 37.5t20.5 16.5q4 0 10 -2.5t12 -1.5q23 1 31 -7.5t8 -22.5z" />
    <glyph glyph-name="Z" unicode="Z" horiz-adv-x="473" 
d="M540 97q-11 -9 -22.5 -14t-9.5 -13q-2 2 -3 2h-6t-11.5 -5.5t-13.5 -5.5q-6 -1 -11 -1.5t-11 -1t-14 -2t-21 -5.5q-9 -3 -20.5 -2.5t-22.5 -2.5q-6 -1 -16.5 -3.5t-22 -6t-23 -6.5t-20.5 -6q-17 -4 -45 -7t-48 -10q-10 -4 -23 -7.5t-26 -6t-22.5 -4t-11.5 -1.5
q-5 0 -16.5 -1t-16.5 -1h-11.5t-11.5 3q-8 5 -18.5 16.5t-18.5 24.5q-7 10 -15.5 26t-8.5 21q0 1 17 21t44.5 52t62 72.5t68.5 82.5q2 2 2 7q9 10 27 34t39 53t41 59.5t33 54.5q-1 2 -1 3t-5 1q-4 0 -7.5 -2t-6.5 -2q-12 -3 -28 -4.5t-31 -4.5q-22 -5 -54.5 -16t-54.5 -20
q-6 -3 -14 -7.5t-16 -9.5t-14.5 -8.5t-9.5 -3.5q-4 0 -12.5 3.5t-15.5 9.5q-6 5 -7.5 14t-3.5 17q-2 6 -4.5 12.5t-2.5 11.5q0 9 11 13t17 8q22 10 50 19.5t57 17t58 11.5t54 4h20t26 -5q30 -19 48.5 -33t18.5 -40q0 -13 -12.5 -37.5t-28 -49.5t-29 -44.5t-14.5 -21.5
q-20 -30 -45 -62t-51.5 -64t-53 -64.5t-50.5 -64.5q27 1 67.5 3t78 4.5t65.5 4.5t30 2t21.5 -1.5t47 -3.5t57.5 -3.5t52 -2.5z" />
    <glyph glyph-name="a" unicode="a" horiz-adv-x="368" 
d="M432 99q-3 -7 -8 -11t-9 -9q-3 -3 -3 -8t-2 -8l-16.5 -22t-21.5 -27q-3 -3 -11 -7t-18.5 -7.5t-22 -6.5t-20.5 -3q-4 0 -15.5 3.5t-17.5 6.5q-9 3 -19 14.5t-16 20.5q-4 6 -9 16.5t-7 18.5q-5 20 -5 45t2 51q1 10 2.5 23t0.5 16q-1 0 -7 -8.5t-7 -10.5q-10 -16 -23 -40.5
t-28 -56.5q-11 -21 -19 -40.5t-22 -37.5q-5 -8 -10 -11t-16 -5l-10 -2q-4 -1 -12 -0.5t-13 0.5q-4 0 -12 8.5t-15.5 19t-13.5 20t-6 10.5q-2 4 -1.5 7t0.5 8q0 25 15.5 62t39 75.5t50 73.5t48.5 56q3 3 17.5 13t31.5 10q4 0 10 -1t12 -3q5 -2 15.5 -8t12.5 -10v-18
q8 -3 22 -10t19 -7h6t3 2l6 -5q5 -2 10 -10t5 -11q0 -5 -9.5 -27t-14.5 -45q-3 -12 -6 -28t-6 -31t-4.5 -26.5t-1.5 -13.5l-2 -61q5 0 9.5 0.5t9.5 0.5q15 1 29.5 6.5t30 14.5t33 19.5t38.5 21.5q0 -2 1.5 -3.5t0.5 -3.5zM82 97l-2 -9q14 12 31 32t29 35t22.5 29t20 30
t18.5 35t20 44q-31 -23 -52.5 -47t-37.5 -49t-27.5 -50t-21.5 -50z" />
    <glyph glyph-name="b" unicode="b" horiz-adv-x="343" 
d="M324 258q0 -2 -1.5 -11.5t-4 -22t-6 -25.5t-6.5 -22q-6 -16 -18.5 -39t-23.5 -43q-2 -3 -15 -21t-29.5 -38t-32 -36t-22.5 -16h-17q-4 0 -13.5 9t-15.5 20q-3 6 -6 14.5t-6 16.5t-4.5 15t-1.5 10q0 5 6 11.5t10 13.5q0 -14 4 -26l-1 -1q0 -1 5 -1q3 0 10.5 7.5t15 17
l15 19t10.5 14.5q34 46 59.5 81.5t37.5 75.5q-2 2 -3.5 2h-6.5q-22 0 -42.5 -13t-38 -29.5t-31.5 -32t-21 -20.5q-8 -16 -19.5 -34.5t-19.5 -35.5q-1 -2 0.5 -6t0.5 -8t-3 -6.5t-6 -8.5q-2 -4 -4 -13t-5.5 -18t-9 -16t-14.5 -7q-4 0 -10 5t-12 12t-10.5 12.5t-4.5 7.5
q-1 6 -2.5 14.5t-3 16.5t-2.5 14t-1 9q0 17 5.5 42t13.5 53t16.5 56t15.5 50q14 44 32.5 95.5t29.5 101.5q2 8 -0.5 27t-0.5 36h17q14 0 23 -9.5t14.5 -22.5t7.5 -25t2 -16q0 -5 -3 -19t-4 -22q-5 -32 -13.5 -63.5t-16.5 -63.5q-5 -17 -10 -35t-10 -39q32 27 62 44.5
t61 17.5q5 0 17.5 -3.5t20.5 -6.5q20 -9 30 -28.5t10 -37.5z" />
    <glyph glyph-name="c" unicode="c" horiz-adv-x="295" 
d="M341 122q-8 -11 -18 -22.5t-20 -20.5q-2 -3 -7 -7.5t-9 -9.5q-5 -6 -15 -10t-18 -12q-15 -15 -25 -22.5t-16.5 -10.5t-11.5 -4t-10 -3q-14 -5 -31 -8q-4 -1 -8 -1.5t-9 -1.5q-2 -2 -3 -3.5t-6 -1.5t-14 1t-20 -1q-8 5 -17 6.5t-17 6.5q-5 3 -14 9.5t-14 12.5
q-8 10 -14.5 25.5t-11.5 32.5t-8 33.5t-3 30.5q0 16 12 45t28.5 58.5t32.5 52.5t25 29q5 3 11.5 9.5t13.5 13t14.5 11.5t15.5 5q5 0 25.5 -3t36.5 -6q5 -1 13.5 -6.5t17.5 -13t17 -16t11 -15.5q2 -3 3 -10t1 -12t-3 -10t-7 -11q-3 -5 -10.5 -13.5t-16.5 -16t-17.5 -12
t-14.5 -1.5l-8 -8l-20 11q14 17 23.5 41.5t4.5 42.5q-26 -15 -52.5 -42.5t-47.5 -59.5t-34.5 -64.5t-13.5 -58.5v-11t2 -9q2 -5 12 -8t22 -4.5t22.5 -2.5t13.5 -1q27 0 54 7t54 18t52 24.5t47 27.5z" />
    <glyph glyph-name="d" unicode="d" horiz-adv-x="432" 
d="M424 551q0 -6 -8 -24.5t-18 -39t-18.5 -37t-8.5 -19.5q-16 -60 -32.5 -126.5t-20.5 -139.5q-2 -9 -2.5 -25.5t-0.5 -21.5q1 -5 1.5 -19.5t1.5 -30.5q2 -35 9.5 -44t30.5 -9t47.5 11t42.5 22l1 -11q-5 -6 -12.5 -15.5t-16.5 -18.5t-18 -17t-18 -12q-23 -1 -32.5 0.5
t-23.5 6.5q-5 2 -9.5 4t-7.5 5q-27 22 -45 49.5t-22 55.5q-7 45 -5 87.5t0 87.5q-3 -8 -9.5 -19.5t-13 -24.5t-13 -24.5t-10.5 -19.5q-11 -21 -19 -40t-15.5 -38t-15.5 -39t-19 -44l-4.5 -4.5l-4.5 -4.5q1 -4 -2 -6t-6.5 -3.5t-8 -2.5t-6.5 -2t-7.5 -3t-10.5 -2
q-6 0 -14 3.5t-15.5 8t-12.5 9t-6 5.5q-8 11 -19 33t-12 38q-2 31 4 67.5t18.5 72t30.5 66.5t40 52q3 3 13.5 5t23.5 3t25.5 1.5t19.5 0.5q5 0 17 -5.5t22 -11.5q3 -11 -4 -21t-11 -17q-6 -10 -10 -20.5t-7 -21.5q-3 -2 -7 -6t-9 -6q-1 0 -2 1q-2 2 -5 2q2 10 3.5 20
t-1.5 21q-21 -16 -37.5 -41.5t-27.5 -54t-17.5 -56.5t-9.5 -50q-2 -2 -2.5 -5t-2.5 -5l5 -27q5 2 9.5 7t6.5 10q34 59 68.5 114.5t64 104t51 88t29.5 66.5q1 3 4.5 4.5t5.5 5.5q3 9 10.5 30t16 42.5t16 38t11.5 16.5q5 0 20.5 -3t29.5 -1q5 -2 10.5 -12.5t6.5 -13.5z" />
    <glyph glyph-name="e" unicode="e" horiz-adv-x="309" 
d="M331 130q-6 -9 -18 -22t-25.5 -27t-27.5 -26.5t-24 -19.5q-12 -8 -25 -16.5t-28 -15.5q-8 -3 -19.5 -6.5l-23 -7t-20.5 -5.5t-12 -2q-5 -1 -12.5 -2t-12.5 0q-12 2 -23.5 10t-22.5 16q-8 5 -15 19.5t-13 32t-10 34.5t-4 27q-1 5 2 8t4 8q12 45 33.5 100.5t63.5 102.5
q3 4 7.5 5.5t8.5 3.5q3 1 5 6t5 8q5 1 11.5 4t13.5 3q5 0 11 -2t11 -4q13 -5 28.5 -15.5t28.5 -22.5q6 -6 10 -20t4 -19q1 -5 -1 -8t-3 -8q-1 -19 -10 -38t-22 -38.5t-29 -39.5t-31 -41q-6 -7 -15 -16t-19 -15q0 -1 -6.5 -4.5t-14 -8t-13.5 -10t-6 -10.5q0 -12 12 -16t17 -4
t8 0.5t9 0.5q23 2 52 14.5t55 23.5q21 10 50 30t56 33zM173 316q-3 3 -5 3h-3q-11 -6 -21 -22.5t-19 -36.5t-16.5 -40t-12.5 -34q6 7 18.5 23.5t25 36t22.5 38.5t11 32z" />
    <glyph glyph-name="f" unicode="f" horiz-adv-x="362" 
d="M418 323q-5 -14 -10 -20.5t-9.5 -11t-7 -9t-1.5 -12.5q-8 -1 -13 -5.5t-9.5 -10.5t-8.5 -12.5t-10 -10.5q-38 -24 -79.5 -34.5t-76 -15.5t-57 -9t-22.5 -16q0 -4 10.5 -17.5t23.5 -28.5t24.5 -28t13.5 -16q7 -12 12 -29t19 -24q1 -8 2.5 -17.5t2.5 -19t1.5 -17t0.5 -10.5
q0 -22 -4.5 -52t-16 -57.5t-29.5 -46.5t-45 -19q-5 0 -12 1.5t-12 1.5q-6 0 -15.5 6.5t-18.5 15.5t-16.5 18t-10.5 14q-11 21 -17.5 38.5t-9.5 34t-4 33t-1 36.5q0 64 9 108.5t14 85.5q-8 4 -15 10.5t-19 11.5q2 2 3 6t3 6q-4 4 -8 6.5t-6 4.5q10 5 25.5 6.5t28.5 1.5
q17 51 31 103.5t39 100.5l21 42t28 50.5t36 53.5t45 52q3 3 15 3t24 -2q3 0 5 2.5t7 2.5t13 -8t8 -13t-5 -11t-12.5 -12.5l-15 -13t-11.5 -12.5q-16 -20 -23 -33t-18 -35q-8 -16 -13.5 -26.5t-9.5 -18t-6.5 -14t-4.5 -14.5q-14 -45 -31.5 -90t-32.5 -94q2 0 1.5 -1.5
t4.5 -1.5q2 0 20 3.5t43 9t51.5 12t46.5 13.5q26 8 56.5 24t58.5 31zM159 -25q0 16 -3.5 36t-10.5 40t-17 40t-22 36q-2 -14 -6.5 -41t-9.5 -58t-9 -61t-4 -49q0 -3 0.5 -10.5t2 -17t3 -19.5t3.5 -17q2 -8 8.5 -13.5t12.5 -7.5q8 4 17.5 21.5t17 40t12.5 44.5t5 36z" />
    <glyph glyph-name="g" unicode="g" horiz-adv-x="370" 
d="M437 34l-20 -14t-18 -9t-18.5 -3t-18.5 -5q-8 -3 -15 -11t-18 -18q0 -11 -3 -24.5t-6 -24.5q-5 -17 -13.5 -41t-16.5 -43q-9 -21 -26.5 -48.5t-39.5 -55t-46.5 -53.5t-47.5 -44q-9 -8 -25.5 -15.5t-22.5 -7.5q-18 0 -34.5 16t-29 37.5t-20 42.5t-7.5 31q0 14 5 31.5
t12 34t14 29.5t10 19q9 14 26.5 32.5t35.5 31.5q6 5 17 11t23 12.5t24.5 12.5t22.5 11q7 3 22 7t30 9.5t26 13t11 18.5q0 13 -4.5 18.5t-16.5 5.5q-22 0 -45.5 -12t-46.5 -26.5t-44 -26.5t-37 -12q-3 0 -8.5 4t-11 9t-9 9.5t-3.5 6.5q0 7 1.5 16.5t-0.5 17.5q0 1 -1 2
q-2 2 -3 4q-1 -1 -1 0v7q0 5 7 16t12 20q-20 7 -31.5 17.5t-17.5 23t-8 25t-2 23.5q0 5 2 19t2 23q0 14 16.5 39.5t40.5 50t50.5 43t45.5 18.5q5 0 11 -3.5t12 -3.5q5 0 12.5 5t13.5 5q1 0 7.5 -2.5t13 -5.5t12.5 -5.5l6 -2.5q5 0 15 8.5t20 12.5q8 2 20.5 4.5t18.5 2.5
q26 0 47 -10.5t34 -37.5l-2 -2q-2 -2 -2 -5q-15 5 -27 5q-5 0 -14.5 -2t-19.5 -5.5t-18 -8t-9 -10.5q-3 -11 -2.5 -25t-4.5 -25q-9 -22 -26.5 -41t-39 -38t-45 -39t-42.5 -44v-4q7 3 17 6.5t19.5 6.5t18 4.5t11.5 1.5q15 0 33 -6.5t35 -17.5t30 -25.5t16 -31.5q26 2 55 5.5
t54 9.5zM239 300q0 5 -2.5 13t-7 16t-11 13.5t-15.5 5.5h-11q12 -12 5.5 -20t-13.5 -8q-5 0 -4 1.5t-5 1.5q-3 0 -11 -6.5t-18 -16t-19 -20t-14 -17.5q-7 -10 -16.5 -22t-18.5 -25t-16.5 -26.5t-11.5 -25.5q-1 -5 -1 -9.5t-2 -9.5q1 -2 3.5 -2t4.5 -1q3 -1 5 -1q16 4 46 21
t59.5 40.5t51.5 50t22 47.5zM251 -71q-18 -6 -40.5 -19.5t-44.5 -30t-40.5 -35t-28.5 -34.5q-7 -11 -15.5 -29t-16.5 -35.5t-13 -31t-5 -15.5v-14h14q30 25 59 54.5t54.5 61.5t45 64.5t31.5 63.5z" />
    <glyph glyph-name="h" unicode="h" horiz-adv-x="387" 
d="M442 88q-12 -18 -24 -37.5t-25.5 -36t-28 -27t-32.5 -10.5q-26 0 -48.5 15t-39 36.5t-26 45t-10.5 40.5q-2 15 2 39.5t9 48.5t10 42.5t7 21.5v8q-2 2 -5 2h-8t-7.5 -5.5t-6.5 -8.5q-20 -16 -36.5 -39.5t-31 -50.5t-27 -55.5t-23.5 -53.5q-2 -3 -5 -11t-5 -13
q-3 -11 -12 -25.5t-15 -14.5q-5 0 -16.5 5.5t-16.5 13.5q-3 4 -7 11.5t-8 12.5q-8 12 -9 22.5t-1 18.5q-2 19 2 44.5t9 51t10.5 48.5t8.5 39q11 51 27.5 108t42.5 112q9 20 23 41.5t30 42t32.5 37.5t31.5 28q5 4 14.5 4h14.5q6 0 13.5 -2t15 -4.5t13 -6t7.5 -6.5
q2 -4 5 -10.5t5 -12.5q2 -7 -0.5 -21.5t-2.5 -20.5q0 -5 -5 -17t-10 -23q-11 -17 -29.5 -45t-41 -61t-46.5 -66t-45 -59q-19 -20 -23 -49t-11 -57q-1 0 -1 -1q0 -2 2 -3q18 24 35.5 50.5t36 49.5t37.5 40.5t39 24.5q5 2 10.5 1.5t13.5 -0.5q3 0 10 -2t14 -4.5t13 -5.5t7 -5
q8 -10 8.5 -20t0.5 -16q1 -20 -3.5 -47t-11 -56.5t-11.5 -58.5t-3 -52q0 -10 1.5 -20.5t12.5 -25.5q13 -3 33 4.5t41 18t40 22t30 16.5zM267 614q0 6 -2 7t-12 1q-7 0 -18.5 -7t-23 -16.5t-21.5 -21t-15 -20.5q-9 -17 -17.5 -35t-13.5 -36q-2 -4 -2.5 -9.5t-2.5 -10.5
q-8 -23 -15.5 -56.5t-16.5 -63.5q8 12 24 32t34 44.5t37 51.5t34 52.5t23.5 48.5t7.5 39z" />
    <glyph glyph-name="i" unicode="i" horiz-adv-x="199" 
d="M121 294q0 -5 1 -9.5t-1 -8.5q-5 -14 -9 -25.5t-8 -23.5t-7.5 -26t-6.5 -32q-3 -14 -6 -32.5t-5.5 -35.5t-4 -29.5t-1.5 -15.5q0 -5 3.5 -19.5t8.5 -26.5q8 -5 16 -3q0 -2 1 -7t0 -7q-3 -2 -9 -8t-11 -6t-14.5 6.5t-14.5 11.5q-10 11 -18 28t-14 35t-9.5 36t-3.5 31
q-2 60 16.5 118t47.5 115h10q25 -17 32 -34.5t7 -31.5zM175 441q1 -20 -9.5 -25.5t-26.5 -5.5q-29 0 -57 36q-6 7 -7.5 15t-2 16.5t-2 17t-6.5 16.5l6 6q7 -1 16.5 -6.5t18.5 -12t16.5 -12t10.5 -7.5q5 -2 13 -2t13 -4q5 -7 11 -17t6 -15z" />
    <glyph glyph-name="j" unicode="j" horiz-adv-x="168" 
d="M156 451q0 -14 -9 -20t-16 -6q-26 0 -44.5 20.5t-43.5 51.5l4 13h11q5 0 9 -3t9 -5q1 0 13.5 -4.5t27.5 -11t27 -16t12 -19.5zM125 221q0 -42 -7.5 -101.5t-21 -122.5t-32.5 -122.5t-43 -101.5q-4 -6 -10 -14t-11 -14q-1 -1 -1.5 -6t-2.5 -8q-7 -10 -16 -18t-19 -19
l-5 -10q-6 -8 -20 -15.5t-29.5 -14t-30.5 -10.5t-23 -4q-20 0 -34.5 7t-31.5 11q-2 5 -10 11t-13 11q-2 6 0 12q-8 10 -13.5 19t-11.5 17l2.5 2.5t0.5 3.5q-2 3 -7.5 17t-11.5 31.5t-11 34t-5 23.5q0 5 2 14.5t4 16.5h10q-1 0 -1 -1q-1 -1 -1 -6q0 -2 1.5 -11t3.5 -20
t5.5 -22.5t6.5 -18.5q2 -2 3.5 -2.5t3.5 -1.5q8 -26 26.5 -46t38.5 -20h43q17 0 38.5 16.5t40.5 37.5t32.5 39t14.5 21q9 26 19 48t15 45q3 18 10 42t12 46q1 7 6 35t9.5 62.5t8.5 68.5t4 52q0 19 1 40t-13 50q-4 8 -14.5 11t-18.5 5l3 14q18 -5 35 -2q13 -10 27.5 -20
t28.5 -18q6 -24 8.5 -35t3.5 -18t1 -15v-26z" />
    <glyph glyph-name="k" unicode="k" horiz-adv-x="371" 
d="M452 38q-5 -6 -14 -13t-18.5 -13t-19.5 -11.5t-17 -9.5q2 -2 6 -2h6q-17 -6 -36 -16.5t-33 -15.5q-5 -2 -14 -2.5t-17 -1.5q-2 -2 -3.5 -5t-6.5 -3t-15 3t-15 3q-21 0 -43 15.5t-41.5 38t-35.5 48t-25 45.5q-23 -25 -28 -51l-10 -52q-1 -5 -6.5 -9t-10.5 -4q-9 0 -16.5 7
t-14 16t-12 19t-9.5 16q1 5 -0.5 14t-1.5 14q0 2 0.5 10.5t2 20t2.5 23t3 20.5q5 28 14.5 66t19.5 72q8 29 19.5 66.5t27.5 74.5q4 7 5.5 19t5.5 20q5 14 15.5 36t20.5 39t24 36.5t27 38.5q8 -2 18.5 -2t21 -1.5t20.5 -6t17 -14.5q3 -5 5.5 -13.5t5.5 -16.5q1 -2 1 -10.5
v-9.5q0 -23 -15 -52t-38 -60.5t-50 -64.5t-51 -64q-13 -15 -16.5 -36.5t-9.5 -40.5q-1 0 -1 -1q0 -3 2 -4q7 13 30 33.5t51 40t56 33.5t44 14q10 0 22.5 -6.5t15.5 -14.5v-15q-12 -5 -24 -15.5t-26 -23.5q-1 -2 0.5 -5.5t0.5 -5.5q-7 -8 -22.5 -17.5t-27.5 -23.5
q-10 -11 -23 -28t-21 -35q-3 -8 -5 -21t-2 -18q0 -22 10.5 -43t27.5 -37t38.5 -26t44.5 -10h41q3 0 16.5 5t32.5 12t39 15.5t35 16.5zM243 567q-9 -9 -24.5 -35.5t-31.5 -57t-29.5 -60.5t-19.5 -47q18 15 39 38.5t37.5 51t25.5 56.5t3 54z" />
    <glyph glyph-name="l" unicode="l" horiz-adv-x="291" 
d="M337 145q-6 -11 -15.5 -23.5t-19.5 -23.5q-5 -8 -16 -17t-21 -20q-5 -6 -11.5 -15.5t-14 -20t-16 -20t-18.5 -14.5q-4 -2 -12.5 -5t-17.5 -5t-16.5 -3.5t-9.5 -1.5q-5 0 -19 2.5t-25 4.5q-31 7 -49.5 26t-29 42.5t-13.5 49t-3 45.5q0 10 1 23t2 22q0 2 -3 3t-3 6
q0 2 2.5 10.5t5.5 20t6.5 23.5t6.5 22q2 4 0.5 8.5t-0.5 8.5q4 12 6.5 25t6.5 26q2 4 7 9.5t7 10.5q1 4 0.5 8t-0.5 8q0 6 5 14t7 15q18 52 47.5 102t71.5 103q5 1 14 2.5t14 1.5q8 0 28 -11q2 -14 2.5 -19t-0.5 -11q-2 -14 -4 -34t-4 -39q0 -6 -3 -18.5t-6.5 -28t-8 -32
t-7.5 -31.5q-3 -9 -8 -23t-11 -29.5t-12.5 -30.5t-12.5 -27q-17 -33 -44 -76t-53 -85q-5 -7 -5 -19v-17q-1 -4 1 -12t4 -14q0 -4 4.5 -9.5t10 -11t11.5 -9.5t10 -5t16 -1q27 0 54.5 12.5t55 30.5t54.5 39t51 38zM204 538q-8 -14 -24 -50.5t-33.5 -78.5t-31.5 -80t-18 -54
q15 15 35 50t37.5 75t28 78t6.5 60z" />
    <glyph glyph-name="m" unicode="m" horiz-adv-x="553" 
d="M643 122q0 -2 -1 -5l-2 -4l-2 -4q-10 -14 -17 -24t-13.5 -18.5t-12.5 -17.5t-13 -20q-3 -4 -11 -11t-17.5 -13.5t-19 -11t-14.5 -4.5h-28q-5 0 -23 3.5t-29 8.5q-7 3 -14.5 10t-14 15.5t-11.5 17t-6 13.5l-1 1q-2 2 -3 2q-14 37 -14.5 65.5t-2.5 55.5q-1 2 -1 3.5t-1 4.5
l-9.5 -9.5t-6.5 -9.5q-11 -18 -29 -48t-37 -59t-36 -50t-25 -21h-17q-12 0 -20.5 12t-14.5 27.5t-9 29.5t-3 18q0 2 2 18t5 37.5t7 44.5t8 40q2 8 5.5 19t6.5 22t5 20t2 12v10l-4 5q-4 -5 -10 -6.5t-8 -6.5q-5 -10 -12 -23t-12 -21q1 -5 0 -9q-5 -13 -13.5 -27.5
t-15.5 -30.5q-5 -11 -10.5 -26.5t-11.5 -32.5t-12 -33.5t-12 -27.5q-2 -6 -3 -17.5t-3 -18.5t-7.5 -15t-10.5 -14q-20 -2 -31.5 7.5t-18 24t-8.5 30.5t-2 28q0 36 8.5 75.5t21 78.5t26 75.5t22.5 66.5q1 3 -0.5 5t-1.5 7v11q5 2 9 5t9 3t15 -4.5t17 -9.5q8 -5 13 -18t5 -18
q0 -3 -6 -22.5t-15 -45.5t-19 -55.5t-18 -51.5v-8q5 0 7.5 3.5t4.5 5.5q6 9 17 34.5t25 52.5t31 48t37 21q5 0 18 -3t21 -8q15 -8 18 -22t3 -25q0 -16 -3 -35t-7.5 -38.5t-8.5 -37.5t-7 -32l5 -5q19 23 33 50q1 1 11 18.5t24.5 38t30 37t26.5 16.5q2 0 10 -1t18 -3
t20.5 -4.5t17.5 -6.5q12 -8 15 -18t3 -18q0 -3 -2.5 -24t-5.5 -46.5t-5.5 -47t-2.5 -24.5v-19.5t2.5 -22t8.5 -18.5t19 -8q33 0 63.5 13t55.5 28q12 8 26 19z" />
    <glyph glyph-name="n" unicode="n" 
d="M467 70q-6 -11 -16 -21.5t-21.5 -21t-22.5 -20t-19 -17.5q-2 -2 -8 -4l-13.5 -4.5t-13.5 -4t-8 -1.5q-3 0 -10.5 2t-17 5.5t-19 8.5t-16.5 10q-10 8 -16.5 19.5t-12.5 22.5q-5 8 -11 16.5t-11 19.5q-10 21 -12.5 56.5t5.5 68.5q1 0 1 1t-1 3q-10 -11 -20 -25.5t-18 -24.5
q-9 -12 -29.5 -40t-41.5 -57.5t-38 -52t-19 -22.5h-14q-4 0 -6 4t-2.5 9t-0.5 9.5t-1 5.5q-10 14 -15 24.5t-5 21.5q0 26 8.5 66.5t20 81t22 72t13.5 39.5q5 12 14 30.5t15 34.5q17 0 34.5 1t22.5 1q4 0 7.5 -4.5t6 -9.5t3.5 -10.5t1 -6.5q0 -5 -3.5 -12t-7.5 -14
t-8.5 -13.5t-5.5 -9.5q-5 -12 -10 -25.5t-11 -29.5q-7 -17 -8.5 -28.5t-2.5 -29.5q22 25 37.5 46.5t29 37.5t28.5 25t36 9q3 0 9.5 -0.5t14 -1.5t14.5 -3t10 -5q11 -8 13 -19.5t2 -19.5q0 -16 -5 -33.5t-11 -36.5t-11 -38.5t-5 -39.5q0 -16 0.5 -31t4.5 -27t13.5 -19.5
t26.5 -7.5q16 0 34 5t36 11.5t34.5 13t30.5 10.5z" />
    <glyph glyph-name="o" unicode="o" horiz-adv-x="292" 
d="M275 223q0 -15 -5 -32.5t-13 -35t-17.5 -34.5t-17.5 -31q-12 -20 -27.5 -38t-32 -32t-33 -22t-31.5 -8h-17q-21 0 -36 15.5t-25 36t-15 41t-5 31.5q0 28 11 65t26.5 72.5t34 65.5t33.5 44q2 1 9.5 4t16 6t17 5.5t11.5 2.5q5 0 17 -6.5t15 -8.5q3 -4 -2 -9t-7 -9
q7 -8 17 -14.5t20.5 -12t19.5 -11t14 -12.5q14 -20 18 -36.5t4 -36.5zM195 247q0 13 -1 22.5t-3.5 18.5t-7.5 19.5t-13 26.5q-12 -15 -30.5 -49.5t-35.5 -75t-29 -80t-12 -63.5q0 -5 1 -12t3 -12h6q12 4 32.5 29t40.5 57.5t34.5 65t14.5 53.5z" />
    <glyph glyph-name="p" unicode="p" horiz-adv-x="379" 
d="M349 223q0 -10 -2 -22t-4.5 -24t-6 -22.5t-6.5 -16.5q-1 -2 -0.5 -6t-1.5 -8q-1 -3 -9 -21.5t-20.5 -39.5t-28 -38.5t-30.5 -17.5q-5 0 -7 1.5t-4 3.5q-10 1 -21.5 6t-21.5 12.5t-17 17t-7 20.5q0 5 1.5 10t1.5 10q7 -9 15.5 -19t16.5 -15q25 19 38.5 47.5t21.5 56.5
q2 5 6 13t6 16t3.5 18.5t2 20.5t1 18t0.5 11t-0.5 10t-0.5 15t-0.5 16t-0.5 13q1 0 1 1h-1q-1 0 -2 0.5t-2 0.5q-17 0 -37 -22t-37 -50t-29 -53t-13 -32q-2 -12 -6 -29.5t-8 -32.5q-1 -2 0.5 -6t0.5 -8q-18 -75 -39.5 -154.5t-50.5 -153.5q-2 -2 -5.5 -6t-5.5 -6
q-8 0 -19.5 9.5t-23 23t-19.5 29t-8 27.5q0 2 1 8.5t2 14l2 15t1 13.5q3 33 14 69.5t27 75.5t35 80l38 82q4 8 5 21t3 24q5 29 9 50.5t4 26.5q1 21 4 31t6.5 14t7.5 3.5t7 -0.5q5 0 14.5 7.5t15.5 7.5q8 0 12 -3t5.5 -8t1.5 -11t2 -12v-25.5t2 -14.5q4 0 8.5 6t8.5 8
q17 10 38.5 14.5t26.5 4.5q3 0 9 -1.5t13.5 -4t14.5 -6.5t11 -9q8 -9 13.5 -21.5t9.5 -27t5.5 -29.5t1.5 -27zM59 71q-6 -17 -13.5 -36t-12.5 -33q-3 -11 -7 -26t-7 -29.5t-4.5 -25t-1.5 -12.5v-12q5 2 7.5 5.5t4.5 5.5q11 37 18.5 79.5t15.5 83.5z" />
    <glyph glyph-name="q" unicode="q" horiz-adv-x="391" 
d="M416 -132q-4 -8 -5.5 -9.5t-11.5 -4.5l-3 -3t-7 -4l9 -8q-14 -13 -29 -19.5t-30.5 -9.5t-30.5 -4.5t-30 -5.5q-6 -2 -12 -10.5t-11 -8.5t-11 3t-11 3q-3 0 -17 -6t-31 -12.5t-31 -12.5t-17 -6q-5 0 -14 3.5t-17 8.5q-3 11 -9 23.5t-12 25.5q0 1 1 2q2 2 2 4q2 0 5.5 -1
t8.5 -1q2 0 12.5 3t24.5 7.5t29 10t26 9.5q-2 20 -0.5 45.5t5.5 52.5t9.5 55t12.5 52q3 5 -2 13l61 191q0 1 -1 1h-3q-12 -9 -24.5 -22.5t-26 -29t-26 -32t-24.5 -31.5q-5 -7 -10.5 -21t-10.5 -24q-2 -5 -8.5 -10t-9.5 -10q-1 -2 -0.5 -6.5t-1.5 -7.5q-14 -23 -36.5 -36.5
t-41.5 -13.5q-11 0 -18 1t-15 12q-5 6 -9 15t-7 17.5t-5 15.5t-2 10q0 16 12.5 43t32 57t43.5 61t47.5 56t42.5 40.5t30 15.5q5 0 26.5 -2.5t38.5 -7.5q5 -2 6.5 -7.5t4.5 -7.5q7 -4 17 -5.5t20 -2.5t19 -3.5t14 -9.5q1 -8 4 -22.5t3 -19.5t-5 -20.5t-8 -26.5q-3 -9 -11 -36
t-19 -64t-22.5 -78t-21.5 -77t-16.5 -62.5t-6.5 -33.5q0 -13 8 -13.5t13 -0.5q3 0 17 1l35 2.5t45 4t47 5.5zM257 298q-29 -6 -57 -30t-51 -55t-38 -61t-16 -48q51 48 87.5 97t74.5 97z" />
    <glyph glyph-name="r" unicode="r" horiz-adv-x="357" 
d="M394 106q-5 -8 -13.5 -19.5t-16.5 -24.5q-6 -9 -8 -21.5t-6 -22.5q-27 -33 -62 -33q-16 0 -30.5 10.5t-26.5 26t-20 33.5t-11 33q-2 10 -2.5 23.5t-0.5 19.5q0 23 10 56t21 56q1 0 1 1h-1q-1 0 -2 0.5t-2 0.5q-3 0 -11.5 -6.5t-20.5 -14t-26.5 -13.5t-29.5 -6
q-20 0 -31.5 7.5t-18 16.5t-11 16.5t-8.5 7.5q-5 0 -6 -1.5t-6 -1.5q-15 0 -25.5 2t-18 4t-14 4t-15.5 3q8 3 18 4t20 4t19.5 9.5t15.5 19.5q2 2 1 12.5t1 25.5q2 13 9 25t16 21t18.5 14.5t18.5 5.5q16 0 24.5 -12t8.5 -20q0 -5 -0.5 -14.5t-2.5 -15.5q-6 -18 -10.5 -27.5
t-10 -16t-11.5 -13.5t-13 -22l-1 -1h5q8 0 25.5 11.5t37.5 25t38.5 25t29.5 11.5q5 0 23.5 -6.5t35.5 -14.5l5.5 -5.5t4.5 -5.5q3 -6 3.5 -13t0.5 -12q0 -10 -4.5 -24t-11 -28.5l-13 -29t-9.5 -24.5q-3 -8 -6 -20t-6 -24.5t-4.5 -24.5t-1.5 -19q0 -15 0.5 -25t10.5 -29
q12 -5 29 3.5t34.5 22t34 28t29.5 22.5z" />
    <glyph glyph-name="s" unicode="s" horiz-adv-x="257" 
d="M281 342q-4 -8 -11.5 -11.5t-16.5 -5.5t-20 -4t-23 -6q-13 -5 -32 -15.5t-38.5 -22.5t-37 -24t-28.5 -20q7 -8 24.5 -14.5t29.5 -8.5q15 -2 36 -7.5t40.5 -15.5t33.5 -25.5t14 -38.5q0 -15 -9 -34.5t-24 -39t-33.5 -36.5t-37.5 -26q-5 -2 -13 -7.5t-13 -5.5t-7 -1t-7 -1
h-12q-8 0 -17.5 11.5t-11.5 16.5q1 5 -1 12.5t-4.5 15t-4.5 14.5t-2 10q0 5 1.5 4.5t2.5 1.5q1 3 1.5 9.5t2.5 9.5q27 32 62.5 47t67.5 23q0 5 -3 4.5t-5 0.5q-21 7 -50 8t-56 5t-46.5 15.5t-20.5 41.5q0 7 -3.5 21t-3.5 20q0 15 13 29t32 25.5t42 21.5t43.5 17t34.5 10.5
t17 4.5l5 2.5t8 1.5q4 0 16 -3.5t24.5 -9t24 -11t16.5 -9.5zM168 121q-6 -2 -16 -7t-19.5 -10.5t-18 -11.5t-11.5 -10q8 4 16.5 9t16.5 9q-1 -6 -7 -11.5t-13.5 -11t-15 -12.5t-10.5 -17q10 4 23 11.5t26.5 17.5t26.5 23t22 28z" />
    <glyph glyph-name="t" unicode="t" horiz-adv-x="292" 
d="M371 348q-10 -7 -26.5 -14t-26.5 -16q-4 -3 -7.5 -13t-11.5 -15q-7 -5 -22 -9t-31 -8t-29 -6t-16 -2h-9.5t-15 -0.5t-16.5 -1t-12 -1.5q-6 -3 -11.5 -21t-9.5 -41.5t-6.5 -48t-2.5 -39.5q0 -18 3.5 -38t10 -38.5t16 -34.5t21.5 -26q-8 -2 -20.5 -1.5t-17.5 0.5
q-2 0 -8.5 5t-14 12t-14.5 15t-10 14q-9 17 -14 35.5t-10 35.5q-6 29 -8.5 52t-2.5 42t1.5 35.5t2.5 32.5q-3 4 -10 5t-9 5q-11 11 -18 25t-18 25v13q13 2 33.5 3.5t34.5 3.5q1 0 2 1q2 2 3 4q7 30 16 59.5t21 61t28.5 66t39.5 76.5q9 0 18.5 -8.5t17 -19.5t12 -23.5
t4.5 -21.5q0 -5 -5 -12.5t-9 -14.5q-1 -2 -0.5 -6.5t-1.5 -8.5q-11 -31 -25.5 -67.5t-22.5 -74.5q97 -2 148 0t59 4z" />
    <glyph glyph-name="u" unicode="u" horiz-adv-x="423" 
d="M482 98q-1 -2 -4.5 -4t-6.5 -4.5t-5 -5.5t1 -7q-12 -9 -21 -17.5t-18 -17.5t-20 -18.5t-26 -20.5q-11 -8 -14 -9.5l-11 -5.5q-9 -5 -21.5 -8t-17.5 -3q-12 0 -20.5 1.5t-21.5 12.5q-3 1 -9 1q-25 23 -36.5 46.5t-14 49t2 54.5t10.5 63q-8 -10 -17.5 -26t-19.5 -34
t-20 -35.5t-19 -29.5q-2 -2 -1.5 -7.5t-3.5 -9.5q-9 -9 -17 -19.5t-16.5 -20.5t-18 -16.5t-21.5 -6.5q-21 0 -35 12.5t-23 30.5t-13 36.5t-4 30.5q0 2 1.5 11t4.5 20.5t7 24t8 22.5q15 41 34 82t33 79q7 -2 15 -10.5t14.5 -19t10.5 -21.5t4 -18q0 -3 -6.5 -23t-15.5 -48
t-19.5 -58.5t-17.5 -53.5v-8h3q14 11 35 34.5t38 42.5q17 21 35.5 46.5t40.5 51.5q11 13 18.5 27t15 26t16 19.5t22.5 7.5l4.5 -1t9.5 -2.5t9.5 -4t5.5 -4.5q5 -12 8.5 -28.5t3.5 -21.5q0 -2 -3 -15.5t-6.5 -31.5t-8 -36.5t-7.5 -31.5q-5 -28 -8.5 -62.5t-5.5 -69.5
q3 -4 6.5 -4h8.5q12 0 31.5 7.5t39 16.5t35.5 17.5t20 10.5q7 3 21 10.5t21 4.5z" />
    <glyph glyph-name="v" unicode="v" horiz-adv-x="276" 
d="M283 417q-3 -11 -8 -25.5t-9.5 -28.5t-7.5 -24.5t-3 -13.5q0 -5 4 -8t6 -8h3q0 -20 -9.5 -48.5t-18.5 -52.5q-4 -9 -10 -23t-13 -28.5t-14.5 -28.5t-14.5 -24q-11 -15 -20 -36t-19.5 -39.5t-23.5 -32t-32 -13.5q-5 0 -16 1t-18 9q-14 15 -24.5 37.5t-17.5 46.5
t-10.5 48.5t-4.5 44.5q1 34 1.5 53t0.5 28.5t-0.5 12t-1.5 3.5q6 19 6 43.5t6 40.5q7 -2 14.5 -5t11.5 -8q5 -6 10.5 -16t7.5 -20q9 -58 9.5 -115.5t5.5 -114.5h2q11 17 25 43t29.5 55t31.5 59t30 54q17 30 38 67t54 67z" />
    <glyph glyph-name="w" unicode="w" horiz-adv-x="498" 
d="M463 272q4 -21 5.5 -38.5t1.5 -47.5q0 -16 -5.5 -49t-19 -66t-35.5 -57.5t-56 -24.5q-18 0 -34 11.5t-28.5 27.5t-20.5 33t-11 28q-8 27 -5.5 56t2.5 59q-17 -17 -40 -38t-43 -41q-8 -9 -25.5 -31.5t-37.5 -45.5t-39.5 -41t-32.5 -18h-17q-2 0 -5.5 6t-7.5 14t-6.5 15.5
t-2.5 10.5q0 23 10.5 64t25.5 83.5t30.5 80t25.5 54.5q8 19 17 35q8 13 16 24t16 11t13.5 -5.5t8.5 -13t4 -14.5t1 -9q0 -5 -6 -23t-10 -31q-6 -19 -17.5 -48t-23.5 -61.5t-23 -64t-18 -55.5q-1 0 -1 -1q0 -3 2 -6q29 34 60 73.5t55 67.5q10 13 18 27t16.5 25.5t19 19
t26.5 7.5q5 0 11 -2.5t13 -2.5q33 -1 40 -15t7 -35q0 -3 -2 -19.5t-4 -35t-4 -34.5t-2 -19q0 -5 1.5 -20.5t4.5 -26.5q15 14 23.5 32.5t13 38.5t6 40t2.5 37q2 33 0.5 76t-9.5 76q2 2 3 2.5t7 0.5q5 0 15 -6t18 -12l-1 -1q0 -1 4 -1q6 0 4 1t4 1q5 0 7.5 -5.5t8.5 -5.5z" />
    <glyph glyph-name="x" unicode="x" horiz-adv-x="338" 
d="M323 346q0 -12 -9.5 -29.5t-24 -37t-31.5 -39t-31.5 -35.5t-24 -27t-9.5 -13q0 -17 10.5 -42t24 -49.5t27.5 -45t22 -27.5q1 -2 2.5 -6t2.5 -6q7 -8 20 -16.5t19 -17.5q-4 -2 -11 1.5t-12 4.5q-22 3 -44 19t-42.5 38t-38.5 47t-31 46q-20 -23 -43.5 -55t-37.5 -61
q-2 -4 -5.5 -9t-8.5 -5q-8 0 -16 5.5t-14.5 13t-11 15t-4.5 12.5q0 13 7.5 29.5t17 33t18 31t10.5 25.5q5 3 14 12.5t18 20t16 19.5t7 12q0 5 -7.5 27.5t-17.5 48.5t-20 49t-14 31v13l2 2q2 2 2 5q14 -9 32.5 -17.5t30.5 -25.5q14 -19 22.5 -41t17.5 -42q14 11 34.5 30
t32.5 32q2 2 12 13t22 23t23.5 22t16.5 10t11 -4.5t10 -9.5q-2 -7 1 -15.5t3 -14.5z" />
    <glyph glyph-name="y" unicode="y" horiz-adv-x="397" 
d="M363 274q0 -3 -1.5 -14.5t-4.5 -26t-6.5 -29.5t-6.5 -24q-9 -30 -17.5 -55t-17 -49t-17 -49t-17.5 -55q-11 -39 -18 -80.5t-7 -77.5q0 -3 0.5 -11t1.5 -18.5t2 -21.5t3 -19q1 -4 3 -8.5t2 -9.5q0 -6 -5.5 -12.5t-10.5 -10.5l-2 2q-1 1 -2.5 1t-2.5 1q-17 3 -28 23
t-17 46.5t-8.5 53t-2.5 41.5q0 45 11 97t27 104t32.5 100t27.5 85q1 0 1 1l-2 6q-12 -14 -28.5 -38.5t-28.5 -41.5q-8 -11 -24.5 -37.5t-37.5 -54t-45 -48.5t-47 -21q-18 0 -31 12t-20.5 28t-11 33t-3.5 26q0 23 9 55.5t22.5 66.5t30.5 65.5t33 52.5q2 4 9 6.5t13 2.5
q14 0 20 -14.5t6 -23.5q0 -5 -2 -19t-6 -24q-17 -42 -37 -87.5t-37 -88.5v-8q12 6 27.5 15.5t24.5 17.5q25 22 55 54.5t56.5 62t45 50.5t21.5 21q10 0 22 -5t22.5 -12.5t17.5 -17t7 -18.5z" />
    <glyph glyph-name="z" unicode="z" horiz-adv-x="355" 
d="M417 90q-11 -4 -13 -12q-11 0 -23 -4t-24 -10t-24.5 -13.5t-22.5 -14.5q-5 -3 -9 -9.5t-11 -8.5q-31 -8 -63.5 -13.5t-56.5 -9.5q-5 -1 -19 -6t-27 -9q-14 -5 -35.5 -7t-26.5 0q-33 14 -47 31t-14 43q0 5 -0.5 15.5t4.5 17.5q22 29 57.5 61t71 62.5t65 58.5t38.5 49
q-2 2 -2.5 2h-5.5q-3 0 -15 -2t-28 -5.5t-32.5 -8t-27.5 -8.5q-7 -2 -17.5 -10.5t-16.5 -8.5q-9 0 -19 6.5t-17.5 16t-12 19.5t-3.5 17q7 7 24 14.5t38 14t42.5 10.5t37.5 4q28 0 56.5 -10.5t48.5 -19.5q4 -2 8.5 -7t8.5 -11.5t6.5 -12.5t2.5 -8q0 -8 -12 -24.5t-29.5 -36.5
t-38.5 -41t-39 -38t-30 -28l-12 -11q-19 -16 -43 -37t-41 -37q2 -2 3 -1.5t6 0.5q2 0 24 3.5t54 8.5t69 10.5t69 10.5t54 8.5t24 3.5q5 0 20 -2t26 -2z" />
    <glyph glyph-name="NULL" horiz-adv-x="200" 
 />
    </font>
</defs>
</svg>
