<?xml version="1.0" standalone="no"?>
<!DOCTYPE svg PUBLIC "-//W3C//DTD SVG 1.1//EN" "http://www.w3.org/Graphics/SVG/1.1/DTD/svg11.dtd" >
<svg xmlns="http://www.w3.org/2000/svg" xmlns:xlink="http://www.w3.org/1999/xlink" version="1.1">
<metadata>
Created by FontForge 20170731 at Wed Jan 18 12:35:56 2017
 By Aleksey,,,
(c) Geert Dijkers
</metadata>
<defs>
<font id="Maneo_TRIAL" horiz-adv-x="200" >
  <font-face 
    font-family="Maneo_TRIAL"
    font-weight="400"
    font-stretch="normal"
    units-per-em="1000"
    panose-1="0 0 0 0 0 0 0 0 0 0"
    ascent="750"
    descent="-250"
    x-height="349"
    cap-height="598"
    bbox="-293 -383 868 639"
    underline-thickness="50"
    underline-position="-200"
    unicode-range="U+000D-007A"
  />
<missing-glyph horiz-adv-x="500" 
 />
    <glyph glyph-name=".notdef" horiz-adv-x="500" 
 />
    <glyph glyph-name=".null" horiz-adv-x="0" 
 />
    <glyph glyph-name="nonmarkingreturn" horiz-adv-x="333" 
 />
    <glyph glyph-name="NULL" 
 />
    <glyph glyph-name="NULL" 
 />
    <glyph glyph-name="CR" unicode="&#xd;" 
 />
    <glyph glyph-name="space" unicode=" " 
 />
    <glyph glyph-name="zero" unicode="0" horiz-adv-x="409" 
d="M384 305q0 -103 -72 -188q-22 -26 -62 -62t-70 -48q-34 -12 -55 -12q-35 0 -61.5 24t-39 59t-18 64t-5.5 48q0 3 2 16.5t2 18.5q16 135 96 246q3 3 12.5 20.5t15.5 24.5q3 3 13.5 9t13.5 9q31 27 44 34.5t35 7.5q17 0 71 -36q2 -2 2 -9q0 -22 -23 -28q41 -39 67 -76
q3 -5 8 -21.5t8 -22.5q16 -34 16 -78zM262 511h12v16q-9 9 -18 9q-11 0 -18 -13q3 -1 11.5 -6.5t12.5 -5.5zM285 332q0 7 -7 37t-14 48q-6 16 -22 39.5t-21 23.5q-4 0 -19.5 -11t-19.5 -16q-46 -68 -62 -106q-26 -63 -45 -139q-9 -32 -9 -68q0 -21 5 -49t13 -35q4 -4 24 -4
q43 0 85.5 49t67 114t24.5 117z" />
    <glyph glyph-name="one" unicode="1" horiz-adv-x="286" 
d="M253 510q0 -2 -5 -18.5t-12 -41t-11 -40.5q-1 -6 -7 -40.5t-9 -44.5q-5 -22 -12 -53q0 -3 1 -13.5t0 -14.5q-5 -24 -10.5 -69.5t-9.5 -65.5q0 -2 -5.5 -7.5t-6.5 -9.5q-1 -6 -0.5 -25.5t-1.5 -25.5q-2 -11 -15.5 -29.5t-15.5 -22.5q-3 3 -9 12q-13 61 -15.5 82t-2.5 78
q0 76 9 151q2 16 8.5 53t8.5 47v11l-22 -22t-40.5 -39t-23.5 -18h-7q-14 0 -25.5 21t-11.5 31q0 5 80.5 83.5t92.5 78.5q7 0 30 -5t33 -10q2 -1 4 -4.5t5 -8t5 -6.5q1 -2 1 -14z" />
    <glyph glyph-name="two" unicode="2" horiz-adv-x="412" 
d="M418 112q0 -4 -10 -10q-1 0 -8 -0.5t-9 -1.5q-6 -2 -15 -8.5t-13 -8.5q-6 -3 -24.5 -5t-29.5 -6t-23 -9.5t-26 -12.5t-21 -10q-13 -5 -35 -11.5t-31 -9.5q-58 -25 -68 -25h-16q-42 0 -78 72q-3 5 -6.5 8.5t-4 5.5t-0.5 9q0 31 51 96q166 204 211 319v7q-1 2 -7 2
q-14 0 -87 -43q-12 -6 -29 -27q-3 -5 -12 -18.5t-15 -21.5t-9 -8q-18 0 -30 29t-12 44q0 18 43.5 48t62.5 38q28 13 60 13q7 0 30.5 -5t34.5 -11q14 -7 27 -26t13 -29q0 -16 -11.5 -45.5t-30.5 -65t-41 -72.5t-46.5 -75t-42.5 -65.5t-33.5 -49.5t-15.5 -23q8 -2 14 -0.5
t17.5 5t14.5 4.5q72 12 136 12q62 0 125 -9z" />
    <glyph glyph-name="three" unicode="3" horiz-adv-x="408" 
d="M374 518q0 -25 -68 -74q-29 -21 -91 -75t-94 -76l3 -2q34 -3 80.5 -17.5t89 -44.5t42.5 -64q0 -24 -35 -64t-49 -49q-4 -3 -18.5 -14.5t-22.5 -16.5q-18 -10 -48.5 -19.5t-36.5 -9.5q-14 0 -34 11t-26 20q-15 24 -15 31q0 1 4 11.5t2 21.5h23q41 0 121.5 38t91.5 68
q-38 26 -106 37q-39 7 -104 7q-23 0 -42 -8q-1 0 -1 -1.5t-1.5 -2t-4.5 -0.5q-9 0 -19 12q-15 24 -15 57v8v8.5t1 7.5t2.5 8.5l4.5 7.5t8 9.5t12 9.5q37 26 107.5 70.5t92.5 59.5q1 1 -2 4q-60 -15 -129 -44q-8 -3 -22 -12.5t-25 -17.5t-13 -8q-5 0 -14 5.5t-12 12.5
q-1 3 -1 13v15l-4 1q-1 2 -1 5q0 7 3.5 12.5t7.5 8t13 6.5t13 6q64 32 204 66q30 7 55 7t33 -4q5 -3 16 -8.5t15 -8.5q9 -6 9 -24z" />
    <glyph glyph-name="four" unicode="4" horiz-adv-x="400" 
d="M427 281q-5 -3 -16 -16.5t-18 -18.5q-9 -6 -43 -18q-6 -3 -12.5 -8t-12.5 -8t-17 -4q-3 -1 -8 -5t-7 -5q-6 -2 -25 -6.5t-27 -8.5q-11 -7 -12.5 -30.5t-1.5 -24.5t-2.5 -6t-3.5 -8q-1 -4 -1 -14.5t-1 -16.5q0 -1 -2.5 -7.5t-2.5 -10.5q0 -15 10 -36.5t19 -24.5
q-1 0 -8 -3.5t-11 -3.5t-13.5 5.5t-13.5 10.5q-23 28 -31 62q-3 10 -5 43t-6 49q-11 -4 -43 -4q-80 0 -105 91q0 1 -3.5 11.5t-3.5 14.5q0 49 32 128t68 140q4 5 4 26h12q18 0 41 -14.5t23 -34.5q0 -13 -18 -57q-9 -20 -35 -73.5t-38 -81.5q-1 -2 -7 -12.5t-8 -15.5
q-6 -14 -10 -39v-8q2 -2 13 -2q15 0 51.5 6t38.5 14q48 190 123 291h7q26 -41 26 -73q0 -31 -8.5 -61t-25 -72.5t-25.5 -70.5q19 1 54 5t61.5 7t29.5 3q8 0 18 -4z" />
    <glyph glyph-name="five" unicode="5" horiz-adv-x="408" 
d="M525 510q-131 -36 -145 -38q-2 0 -9.5 -5.5t-12.5 -6.5q-21 -5 -71 -13.5t-76 -16.5q-14 -5 -25.5 -12t-19.5 -7q-3 0 -11.5 3t-12.5 3q-6 0 -11 -5q-4 -9 -23 -46.5t-26 -56.5q9 0 27.5 1.5t20.5 1.5q122 0 160 -88q4 -9 4 -41q0 -20 -15 -67q-11 -34 -26 -62
q-2 -7 -27 -38t-38 -31q-7 0 -23 8t-22 14q-2 10 -9 31.5t-9 32.5l4 24q5 -32 19 -34q41 37 68.5 87t23.5 89q-3 4 -19 10t-23 6q-27 0 -78 -17t-66 -17q-6 0 -19 11.5t-19 20.5q-5 8 -5 29q0 2 -5 8t-5 9q0 17 27 76q8 18 28 61.5t28 62.5q1 2 0 7t-1 7q1 2 6.5 4t6.5 5
q4 10 8.5 17.5t7.5 12t10.5 14.5t12.5 17q17 0 35.5 -15.5t7.5 -31.5q204 -2 347 -24z" />
    <glyph glyph-name="six" unicode="6" horiz-adv-x="411" 
d="M384 196q0 -45 -47.5 -93.5t-102.5 -77t-86 -28.5q-54 0 -83.5 49t-24.5 107q-3 1 -23 6t-30 10q-3 17 7.5 38.5t23 35.5t34 35.5t27.5 28.5q1 1 0.5 3t-0.5 5.5t1 5.5q40 87 65 122q27 39 71.5 83.5t75.5 44.5q7 0 29 -10.5t33 -21.5q7 -6 7 -29q0 -6 -10 -26
q-2 0 -9.5 -1.5t-10.5 -1.5q-6 22 -11 34q-35 -8 -76 -65.5t-55 -103.5q85 -24 112 -43q49 -32 79 -78q4 -7 4 -29zM310 221q0 3 -10 22.5t-16 23.5q-22 12 -40 12q-12 0 -25 -5t-28.5 -14t-20.5 -11l-8 -3q-8 -4 -12 -6.5t-5 -6.5q-43 -118 -43 -158q0 -18 17 -18q2 0 38 9
q25 6 89 64.5t64 90.5z" />
    <glyph glyph-name="seven" unicode="7" horiz-adv-x="450" 
d="M462 292v-10q-11 0 -26 -5t-40 -17l-25 -12q-4 -2 -28.5 -6.5t-38.5 -14.5q-1 0 -23 -55q-3 -7 -18.5 -35.5t-22.5 -43.5q-12 -26 -27 -92l-1 -2q-1 -2 -2.5 -3.5t-3.5 -3t-4 -1.5q-6 0 -20.5 9t-14.5 12q-6 39 -6 47q0 20 8 48t21 62.5t16 44.5q-24 4 -47 -2.5t-24 -6.5
q-3 0 -3 1q0 2 -4 2q-19 0 -41 -12q-2 -1 -7.5 -5.5t-10.5 -7.5t-8 -3q-11 0 -27 12.5t-19 19.5q-12 24 -12 32v23q22 8 57.5 14.5t61 9.5t68.5 7.5t53 5.5q15 28 38 87t23 89q0 9 -3.5 15t-8.5 9t-12.5 4.5t-12.5 1.5t-13 -0.5t-9 -0.5q-85 0 -175 -52q-2 -2 -10 -4.5
t-10 -3.5q-9 -4 -13 -15q-3 -3 -10 -3q-27 0 -27 46q0 3 0.5 10t0.5 10q3 2 7.5 7.5t6.5 6.5q6 3 48 22q62 23 92 30.5t78 7.5q24 0 54.5 -15.5t46.5 -35.5q4 -5 8 -13.5t8 -19.5t6 -15q5 -13 5 -37q0 -37 -31 -132q17 -1 63 -5z" />
    <glyph glyph-name="eight" unicode="8" horiz-adv-x="370" 
d="M358 428q0 -16 -4 -31.5t-8.5 -24.5t-15 -28t-15.5 -30q-2 -4 -6.5 -7t-10.5 -6t-8 -5l-14 -14q-15 -14 -30 -26.5t-20 -12.5q-3 0 -17 12q-4 32 33 100l7 15q7 14 15 31t14.5 35.5t6.5 27.5q0 26 -6 42q-5 11 -30.5 22t-39.5 11q-42 0 -78 -50l-2 -1q-2 -1 -4.5 -2
t-3.5 -1q-10 -12 -10 -35q0 -29 6.5 -48.5t27.5 -55t31 -56.5q2 -5 12.5 -17.5t13.5 -21.5q4 -10 13.5 -30t14 -31.5t9 -26t4.5 -25.5q0 -56 -36.5 -98t-91.5 -42q-53 0 -83.5 44.5t-30.5 90.5q0 48 23 95.5t73 70.5q-4 10 -19 43t-21.5 48t-13 40t-6.5 44q0 49 33 81t80 32
q63 0 135.5 -47t72.5 -112zM144 150q0 22 -11 54.5t-21 49.5q-16 -29 -31 -85q-10 -42 -10 -74v-35q7 0 10 -3q63 29 63 93z" />
    <glyph glyph-name="nine" unicode="9" horiz-adv-x="437" 
d="M398 423q0 -21 -4 -37q-11 -38 -48 -141q-1 -2 -8.5 -19t-9.5 -26q-26 -128 -30 -169q0 -1 -3 -6t-4 -8q0 -3 0.5 -14t-0.5 -16q-3 -6 4 -5q7 0 14 4l-6.5 -13t-5.5 -12t-3 -12.5t2 -12.5q-13 1 -30.5 17t-21.5 30q-13 43 -13 95q0 141 54 272v7q-13 -6 -38 -31t-30 -29
q-4 -3 -15.5 -15t-16.5 -17q-54 -46 -87 -68q-9 -6 -30 -6q-37 0 -52.5 25.5t-15.5 55.5q0 38 25 88t59 87q4 4 25 27t33 34q92 69 108 69q2 0 7.5 -1t16 -2t23.5 -1q9 0 31 -17t22 -29q0 -4 -12 -18h-13q0 1 -1.5 6t-2.5 9.5t-4 8t-6 3.5q-16 0 -45.5 -12.5t-37.5 -22.5
q-3 -3 -10.5 -17.5t-10.5 -18.5q-8 -10 -31 -33q-10 -10 -20 -22t-18 -23t-16.5 -25t-14 -23.5t-12.5 -24t-10 -21t-9.5 -20.5t-7.5 -16q4 0 4 -2q5 0 90 71q46 40 144 157q9 9 14 9q4 0 12 -1.5t11 -1.5q18 0 35 -11.5t16 -34.5q0 -3 2 -9.5t2 -10.5z" />
    <glyph glyph-name="A" unicode="A" horiz-adv-x="418" 
d="M388 425q0 -4 -2.5 -40t-7 -88t-8.5 -83l-3 -3q-18 -162 -18 -189v-20l-3 2l-7 -7q5 -8 5 -17h-17q-7 0 -13.5 13.5t-6.5 17.5q-1 5 -4.5 23.5t-5.5 28.5q-8 32 -6 112q-43 -2 -104 -12.5t-76 -12.5q-4 -16 -14 -23q1 -2 4 -2q-5 -3 -9.5 -11t-6.5 -14.5t-5.5 -19
t-4.5 -15.5q-1 -4 -5.5 -13l-5.5 -11q-1 -4 -2 -13.5t-1 -10.5q-3 -3 -4 -6q1 -3 3 -5q-3 -5 -12 -5q-4 0 -4 -1t-4 -1q-20 0 -29.5 21.5t-9.5 38.5q0 11 11 55.5t14 49.5q10 13 10 18q0 3 -7.5 10t-9.5 12q1 1 10 1q8 0 14 6.5t9 13t6 17.5t4 13q3 10 22 46.5t26 55.5
q18 43 19 45q2 4 10 12.5t10 11.5q0 1 -0.5 6t0.5 7q16 35 83 155q2 4 2 10q9 -3 31 -13.5t25 -10.5q4 0 4 2q0 1 3 1q1 0 5.5 -5t13 -11.5t18.5 -8.5q35 -36 44.5 -61.5t9.5 -71.5zM300 444q1 20 1 36t-0.5 24t-1 13t-1.5 7v2q-16 -18 -23 -33q-3 -6 -8 -20.5t-8 -20.5
q-4 -10 -16.5 -27.5t-14.5 -20.5q-33 -62 -81 -174q50 2 94 1.5t46 0.5q1 26 7 99.5t6 112.5z" />
    <glyph glyph-name="B" unicode="B" horiz-adv-x="394" 
d="M375 507q0 -20 -24.5 -48t-51 -48.5t-61 -44.5t-39.5 -28q33 -8 54 -14.5t46.5 -17.5t39.5 -23t24 -30t10 -41q0 -33 -22 -73.5t-46 -60.5q-5 -3 -19 -21t-20 -24l-18 -14q-18 -14 -28 -19q-6 -3 -23 -10t-25 -11h-23q-3 0 -7 4l-5 5q-15 10 -33 15q-4 9 -8 14t-6 6.5
t-3.5 5.5t-1.5 13q0 10 1 21q2 1 4.5 3t3.5 3q3 1 8 -4t7 -6q37 16 61 29.5t53.5 37.5t50 58.5t31.5 79.5q-8 6 -18 10t-14.5 5t-18 2.5t-15.5 1.5h-114q-3 0 -4 -0.5t-2 -1.5t-2 -1q-8 -8 -11 -19q-3 -8 -10.5 -35.5t-12.5 -40.5q-1 -7 -11 -43v-7.5v-7.5q-5 -16 -3 -33
q-2 -5 -10 -52h-11q-24 15 -29 24q-19 43 -19 53q0 3 2 4t2 2q1 12 1.5 22.5t2.5 23t3.5 20t4.5 22t4.5 20.5t6.5 24t6.5 23t7.5 28t8 29q42 117 42 125q0 5 -25 20q0 5 -6 17.5t-6 16.5q0 9 13.5 18t32.5 17t23 11q10 7 21.5 30.5t12.5 24.5q9 -1 50 -16q1 -1 3.5 -8
t5.5 -10q3 0 28 0.5t29 -2.5q15 -4 72 -31q30 -15 30 -43zM301 528q-3 0 -14.5 2t-14.5 2q-12 0 -38.5 -4.5t-28.5 -7.5q-9 -17 -19.5 -51.5t-9.5 -40.5v-8q103 70 125 108z" />
    <glyph glyph-name="C" unicode="C" horiz-adv-x="464" 
d="M433 192q5 -10 -3.5 -25t-9.5 -19q-3 -5 5 -8q-2 -2 -8 -12q-1 -3 0 -6.5t1 -5.5q-6 -28 -32 -44v-7l-2 -6l-5 -3q-5 -3 -9 -7.5t-4 -9.5q-5 -3 -22 -10.5t-26 -14.5q-4 -3 -20 -6.5t-21 -5.5q-40 -14 -64 -14q-48 0 -102 32q-112 69 -112 197q0 108 77 212
q20 26 60 57.5t69 44.5q2 1 17 12t24 14q36 17 83 17h4q13 0 20.5 -1t20.5 -10t29 -28q1 -2 1 -5t1 -5q20 -20 20 -53q0 -15 -10 -28q-8 8 -4 19q-13 17 -35 17q-3 0 -28.5 -7.5t-28.5 -7.5t-3 1t-4 1q-3 0 -8 -2.5t-11.5 -6.5t-9.5 -5q-2 -1 -9.5 -1.5t-11.5 -2.5
q-15 -9 -28 -22q-8 0 -10 -1q-11 -8 -24 -19.5t-29 -27t-22 -20.5q-11 -11 -19.5 -20t-12 -14t-10 -15t-9.5 -14q-11 -17 -23.5 -61.5t-12.5 -67.5t13 -62q11 -28 49 -44t67 -16q3 0 17 1.5t17 1.5q4 0 8 3q53 5 110 44t90 97z" />
    <glyph glyph-name="D" unicode="D" horiz-adv-x="448" 
d="M448 384q0 -13 -9 -47q-3 -25 -5 -31q-16 -51 -64 -116t-103 -111q-2 -1 -7.5 -9.5t-10.5 -11.5q-20 -15 -50 -33q-44 -27 -63 -27q-3 0 -11.5 1.5t-11.5 1.5t-4.5 -1t-2 -3t-1.5 -3q-1 -4 0 -12t1 -12h-11q-4 0 -12.5 8t-10.5 14q-4 10 -15 33t-18 39t-7 19q3 15 3 21h8
q1 4 1 12t0.5 36.5t2.5 67.5q1 17 10 63.5t19 76.5q1 3 14 45.5t21 63.5v9q-33 -11 -58 -48l-4 -2q-4 -1 -8 -1t-17 10t-13 14t3 4q1 0 2 1q-2 14 0 41q20 14 127 59q8 4 16 42q6 19 25 34q6 2 10 -8q1 -7 3.5 -16.5t3.5 -14t0.5 -11.5t-3.5 -14l4 -4q90 6 169.5 -45.5
t76.5 -134.5zM376 423q1 11 -3 31.5t-11 24.5q-49 23 -63 23q-83 0 -98 -11q0 -2 -0.5 -7.5t-1.5 -7.5q-14 -50 -42 -202q-8 -41 -18 -72q-7 -21 -16.5 -70.5t-10.5 -69.5q73 16 155.5 115t103.5 214q0 3 2.5 16t2.5 16z" />
    <glyph glyph-name="E" unicode="E" horiz-adv-x="406" 
d="M499 551q-1 -8 -9 -14t-6 -13q-7 1 -21 -4q-4 -1 -11.5 -5t-13 -6.5t-8.5 -2.5t-10 1.5t-11 1.5q-2 0 -12.5 -1.5t-24.5 -3t-23 -2.5q-5 0 -15 -5t-13 -5q-6 -2 -20.5 -2h-17.5q-22 -2 -61 -10.5t-53 -10.5q-2 -4 -4.5 -15.5t-5.5 -17.5l-12.5 -25t-8.5 -21t-4 -16
t-3 -17.5t-3 -16.5l-2 -4q-2 -5 -2 -9v-10q3 -4 9 -4q74 0 164 11q11 2 38 8t40 8v-9q0 -2 -5 -12q-6 -17 -24 -35q-10 -10 -45 -26q-24 -11 -69 -19l-4 -4q-5 -4 -8 -5q-61 -18 -87 -18q-3 0 -7 1t-7 1q-16 0 -20 -11q-5 -18 -10.5 -54.5t-5.5 -42.5q0 -16 0.5 -23t8.5 -16
t25 -9h15q6 0 42 7.5t49 12.5q26 9 68 35q3 1 15 10t19 12q-1 -8 -10 -24q1 -3 6 -8q-6 -2 -10.5 -5t-6 -6t-4.5 -10.5t-5 -11.5q0 -1 -1 -3t-2 -5t-3 -5q-1 -2 -8 -6.5t-8 -6.5q-1 -1 -2 -4t-3.5 -6.5t-5.5 -6.5q-3 -2 -13 -5t-13 -5l-2 -1q-2 -2 -4.5 -4t-3.5 -3
q-51 -17 -69 -17q-44 0 -77.5 28.5t-49.5 70t-22 83t-1 72.5q0 3 1 12t1 13q0 5 -3.5 18t-3.5 15v9q1 1 2.5 1t4 -0.5t5.5 -0.5t8 7q6 21 20.5 61.5t25.5 70.5t11 31q0 3 -8 25t-8 25v18q7 5 9 5q4 0 4 -1t3 -1q2 0 7.5 4t8.5 4t4.5 -3t5.5 -3q10 0 27.5 20.5t25.5 33.5
q10 0 18.5 -14.5t5.5 -24.5q20 0 52.5 0.5t57.5 1.5t26 1q101 0 181 -23z" />
    <glyph glyph-name="F" unicode="F" horiz-adv-x="406" 
d="M524 550l-5.5 -5.5t-5.5 -7.5t0 -8q-4 1 -13 -7.5t-12 -9.5q-25 -9 -45 -9q-21 0 -69 -4q-1 0 -6 -3.5t-9 -3.5q-2 0 -21.5 -0.5t-49 -1.5t-49.5 -1q-3 0 -16 2.5t-16 2.5q-14 0 -36 -6q-9 -4 -23.5 -45.5t-14.5 -59.5v-11q7 -4 18 -4q86 1 155 -4t77 -5q34 0 68 2
q-28 -32 -30 -37q-45 -27 -50 -29q-14 -5 -33 -8t-45 -4.5t-38 -3.5q-2 0 -9.5 -3.5t-11.5 -3.5q-2 0 -8.5 1t-11.5 1.5t-12 -0.5q-27 -8 -53 -8t-45 -1q-1 -5 -4 -21.5t-5 -24.5l-7 -14q-15 -71 -15 -144q0 -13 5 -19t9.5 -6.5t14.5 -0.5q12 0 30 6q1 -3 2.5 -10t3.5 -9
q-1 0 -3 -1t-5.5 -2t-5.5 -2q1 -1 5.5 -2.5t5.5 -3.5q-9 -6 -8 -11q-3 0 -10 -6.5t-11 -6.5q-10 0 -26 9.5t-22 17.5q-18 21 -26 45q-21 65 -21 91v81q0 5 7 50t11 63q7 33 28 90q2 4 12 23t10 23q0 5 -22 30q7 17 -6 43q11 8 43.5 15t44.5 12q4 1 15 12.5t15 11.5
q9 0 22 -20h84q3 1 30.5 -1.5t66 -6.5t64.5 -9q2 -1 10 -2t10 -1q1 -1 2 -3.5t2.5 -4.5t4.5 -2q2 0 24.5 -2t34.5 -2z" />
    <glyph glyph-name="G" unicode="G" horiz-adv-x="491" 
d="M478 593q2 -7 -9 -9q-54 -11 -107 -43.5t-100.5 -83t-82.5 -96.5t-74 -105q-12 -19 -38 -88l12 -22q55 16 143 97q95 89 114 119q6 8 12.5 24.5t14 23.5t21.5 7q12 0 36 -7.5t25 -16.5q0 -2 -7.5 -19.5t-9.5 -35.5q-3 -29 -17.5 -83t-18.5 -74q-32 -179 -31 -185
q0 -16 3 -28q2 -3 6.5 -7t5.5 -7q4 -9 6 -29t10 -28q-7 -7 -24 -7q-54 0 -67 106q-3 6 -4 7q-11 65 -12 101q-1 14 9.5 62.5t7.5 69.5q-13 -22 -86.5 -79t-104.5 -57h-21q-33 0 -66.5 29.5t-35.5 58.5q-3 45 45 125t98 126q68 65 118 100.5t111 62.5q11 7 60 7q43 0 58 -16z
" />
    <glyph glyph-name="H" unicode="H" horiz-adv-x="500" 
d="M492 558q0 -2 -2.5 -14.5t-6 -29.5t-4.5 -27q-1 -8 -2 -32t-3 -36q-3 -29 -21 -101q4 -2 13 -3.5t13 -6t4 -16.5q0 -7 -16 -25q0 -1 -22 -13q-5 -3 -8 -10.5t-5.5 -21t-2.5 -14.5q-1 -4 -4 -13.5t-3 -12.5q0 -1 -4 -4t-5 -6q-9 -35 -11 -92q-3 -54 -2 -61q-2 -6 -9 -11
q0 -51 -16 -51q-10 0 -19.5 15t-9.5 22q-11 64 -11 111q0 45 2 90t2 46q-18 2 -41.5 0t-59.5 -6t-59 -6q-18 -24 -20 -46q0 -15 -7 -48t-7 -49v-23q1 -1 3 -5t3 -5q0 -3 0.5 -6.5t1 -5.5t1 -5t1.5 -5t2.5 -4.5t4.5 -4.5v-9q-10 -2 -30 -2q-10 0 -17 10q-31 38 -39 77
q-2 28 -2 50q0 10 2 37.5t2 39.5q-24 -2 -51 14t-30 43q3 4 3 6q7 -2 26 -2q2 0 23.5 2t34.5 3q7 5 8 6q21 100 86 313q1 1 0 5t-1 5q1 0 4 1.5t6 1.5q14 0 25 -9q33 -29 33 -62q0 -23 -18 -123q-1 -2 -6 -18.5t-6 -24.5q0 -17 -2 -28t-6.5 -26t-6.5 -25l2 -2q8 -1 22.5 0.5
t27 3.5t14.5 2q27 0 83 4q16 116 73 269q0 4 8 22.5t15 18.5q1 0 28 -16q2 -6 7 -18t8.5 -21t3.5 -12z" />
    <glyph glyph-name="I" unicode="I" horiz-adv-x="177" 
d="M164 499q0 -25 -11 -100q-5 -40 -14.5 -84t-24.5 -105t-21 -85q-1 -1 -3 -4t-3 -4q-1 -8 -5.5 -25.5t-5.5 -22.5q-1 -6 -1 -20.5t-1 -21.5q0 -2 -3 -6.5t-3 -8.5q0 -3 24 -30q-13 -10 -28 -10q-20 0 -49 40q-3 5 -7 26q-5 42 -5 75q3 75 45.5 258.5t43.5 188.5
q0 27 -1 31q7 7 14 7q17 0 33.5 -21.5t19.5 -41.5q2 -11 -2 -20q8 -8 8 -16z" />
    <glyph glyph-name="J" unicode="J" horiz-adv-x="447" 
d="M424 343q0 -38 -4.5 -63.5t-21.5 -94.5q-14 -42 -37 -82q-2 -3 -17.5 -30t-24 -40t-27 -37t-33.5 -37t-36.5 -23.5t-42.5 -10.5q-74 0 -127.5 72.5t-53.5 140.5q0 32 14 85q1 0 4 1.5t7 1.5q18 0 39 -16t22 -33q0 -12 -2.5 -46.5t-1.5 -54.5q2 -17 22.5 -58.5t40.5 -41.5
q13 0 32 15.5t29 31.5q90 127 116 233q21 88 21 148q0 3 -0.5 10t-1.5 17.5t-1 16.5q-1 7 -1.5 28.5t-2.5 41.5t-8 36q0 1 -5 5t-7 7q-3 3 -5 7t-2.5 6t-3 3.5t-7.5 1.5q-8 0 -13 -5q0 1 -1.5 5t-1.5 6q2 0 8.5 4t10.5 4q2 0 11 -2.5t13 -1.5q1 0 5.5 -5t8.5 -5t3 1.5t3 1.5
q2 0 3 -1.5t3 -5t6 -6.5q2 0 5.5 -2t5.5 -3q37 -60 48 -107q9 -41 9 -119z" />
    <glyph glyph-name="K" unicode="K" horiz-adv-x="477" 
d="M559 200v-44q0 -1 -7 -18t-18 -38.5t-18 -31.5q-64 -85 -150 -85q-61 0 -123 47.5t-74 115.5q-6 50 -1 94q-11 -14 -37 -101q-26 -84 -27 -86q-2 -7 -5 -17t-4.5 -14.5t-4 -9.5t-7 -6.5t-10.5 -1.5q-7 0 -10.5 2.5t-6 7t-4.5 6.5l-6 1q-6 1 -8 3q-7 5 -12.5 11.5t-8 10.5
t-4 11.5t-1.5 10v11v9.5q0 74 35 229q40 166 86 304q22 6 36 6q39 0 39 -30q0 -2 -9.5 -37t-23 -85.5t-20.5 -80.5q-13 -51 -33 -132q-1 -2 1 -5q10 13 36.5 44.5t37.5 47.5q14 17 15 19q1 1 13.5 25.5t26.5 49.5t32.5 52.5t38 45t34.5 17.5q9 0 19.5 -1.5t23 -7.5t12.5 -16
q0 -6 -9 -19.5t-19 -25.5t-10 -13q-16 -23 -17 -28q-4 -8 -12 -10q-2 -3 -5.5 -9.5t-4.5 -8.5q-2 -4 -10 -12t-11 -13q-23 -53 -30 -82q-16 -66 -18 -87q-1 -11 -1 -38q0 -21 4 -55t19.5 -71.5t38.5 -37.5q30 0 69.5 21.5t67.5 48.5q12 12 45.5 54t49.5 53z" />
    <glyph glyph-name="L" unicode="L" horiz-adv-x="343" 
d="M440 126q-24 -13 -41 -30q-1 -1 -5 -2t-8 -2.5t-7 -4.5q-3 -2 -13 -13t-18 -16q-3 -1 -10.5 -4t-11.5 -5q-1 0 -5.5 -4.5t-7.5 -6.5q-11 -6 -33 -14t-33 -14q-6 -3 -27 -6t-29 -6q-29 -9 -47 -9q-66 0 -105.5 55.5t-39.5 117.5q0 60 36 181v11q7 22 38.5 104.5
t40.5 128.5q1 2 -0.5 9t-1.5 11h20q9 0 28.5 -12.5t20.5 -20.5q1 -5 1 -35q0 -55 -25 -133q0 -2 1 -9t0 -11q-2 -7 -9.5 -23.5t-9.5 -25.5q-1 -3 -3.5 -15t-5 -19.5t-7 -18t-10.5 -18.5q-2 -3 -4 -15.5t-5 -17.5q-11 -21 -19.5 -62t-8.5 -68q0 -35 9 -48q24 0 45 3
q41 8 136 31q81 17 160 39q5 2 14 -2z" />
    <glyph glyph-name="M" unicode="M" horiz-adv-x="793" 
d="M868 87q-3 -3 -6.5 -10.5t-4.5 -9.5q-5 -6 -22 -21t-24 -23q1 -2 2 -7.5t2 -7.5q-3 -1 -6.5 -5.5t-7 -11.5t-3.5 -8q-8 -5 -29.5 -29t-32.5 -27q-3 0 -9.5 -1t-11.5 -2t-7 -1q-3 0 -10 1t-10 1q-43 0 -102 80q-13 15 -24.5 55.5t-11.5 67.5q0 50 16 164q3 28 34 135l-5 5
q-37 -48 -87.5 -130.5t-76.5 -117.5q0 -1 -0.5 -5t-1.5 -5q-4 -8 -13.5 -24.5t-16 -29t-9.5 -23.5q-6 -18 -42 -58q-3 -5 -13 -9t-15 -4h-14q-11 0 -22 8q-52 46 -52 101q0 3 26 109.5t26 109.5v6h-2q-78 -151 -102 -211q-1 -2 -6 -8.5t-6 -8.5q-5 -11 -22 -53t-29 -64
q-10 -16 -43 -16q-3 0 -20 10q-34 19 -43.5 46t-9.5 67q0 38 5 75.5t13.5 77.5t8.5 42l4 4q4 4 5 8q1 3 1 13.5t1 14.5q5 25 18 66t18 63q-4 4 -6 4q-7 0 1 17.5t21.5 42t15.5 33.5q13 4 48 4q13 0 25.5 -7.5t12.5 -21.5q0 -2 -5.5 -16t-13 -34.5t-10.5 -34.5
q-2 -10 -10 -45t-13 -57q-9 -53 -35 -130q-4 -9 -6.5 -37.5t-0.5 -42.5h2q7 15 32 68t36 76t33.5 69t37 72.5t32.5 57.5t33 52l3 6q4 5 7.5 10t8.5 9.5t9 4.5q3 0 10 -5q68 -6 68 -48q0 -8 -11 -55.5t-23.5 -100.5t-14.5 -63q0 -2 1 -8.5t0 -9.5q-4 -17 -14 -54.5
t-16.5 -61.5t-6.5 -27v-10q3 1 5 1q5 6 10.5 14t12.5 18.5l11 16.5q9 15 25 34q85 130 94 144q54 92 81 121q21 22 43 33q2 1 29 1q2 0 6.5 -1.5t11 -4t10.5 -3.5q11 -2 17.5 -17.5t6.5 -28.5q0 -2 -7 -33.5t-15.5 -72.5t-11.5 -63q-4 -30 -8 -80.5t-6 -84.5t-2 -39
q0 -26 9.5 -78t27.5 -52q21 0 46 13.5t66 45.5t43 34q28 16 37 26z" />
    <glyph glyph-name="N" unicode="N" horiz-adv-x="523" 
d="M602 72q-4 -5 -2 -19q-2 -1 -10.5 -8t-10.5 -9q-3 -4 -18 -9l-2 -5l-3 -6q-4 -8 -28 -24q-2 -1 -8.5 -3t-8.5 -3q-1 -1 -2.5 -4.5t-4 -7t-5.5 -4.5q-22 -9 -52 -9q-39 0 -86 25t-66 65q-7 13 -11 46q-2 5 -2 27q0 1 3 31q1 6 1 23.5t1 25.5q10 40 25 106t25 115t10 53
q0 11 -7 11q-5 0 -33 -16.5t-36 -26.5q-86 -103 -111 -164q-2 -6 -12.5 -27t-16 -36t-6.5 -28q-1 -9 -15 -28q0 -1 1 -5t0 -6q-24 -80 -24 -91q0 -12 6 -34.5t6 -23.5q-1 0 -6 -4t-8 -4q-9 0 -42 20q-7 6 -20.5 18t-18.5 17q-1 4 -3 6q-1 3 0 5q12 11 5 15l-6 3l4 4
q1 1 -3 9q-2 3 0.5 11.5t2.5 11.5q3 150 63 368v10q15 55 29 86q4 4 4 5q24 7 41 7q6 0 12 -3q1 -3 7 -11.5t6 -12.5q0 -2 -5 -16.5t-6 -20.5q-3 -23 -7 -49q0 -3 -5 -21t-3 -28q50 60 103.5 99.5t96.5 39.5q12 0 60 -9q1 0 25 -15q6 -24 6 -41q0 -8 -1.5 -20.5t-4.5 -26
t-6.5 -28t-6.5 -27.5t-6 -23t-5 -18l-2 -7q-4 -47 -21 -135q-1 -4 0.5 -14.5t0.5 -15.5q-9 -45 -9 -66q0 -58 15 -101q4 -9 13.5 -15t18.5 -6q19 0 46.5 9t43.5 16t53.5 26t41.5 21z" />
    <glyph glyph-name="O" unicode="O" horiz-adv-x="442" 
d="M429 361q0 -13 -11 -55q-42 -168 -187 -287q-10 -9 -38.5 -17.5t-42.5 -8.5q-42 0 -85 41t-51 72q-13 50 -13 79q0 85 39.5 181.5t100.5 172.5q6 7 19 16q2 -1 16 0l15 1q27 0 60 -20q0 -1 2 -5.5t2 -7.5q0 -5 -4 -13t-8 -8q-3 0 -2 1q1 2 -3 2q-10 0 -35.5 -22.5
t-27.5 -26.5q-1 -3 -10.5 -21.5t-12.5 -26.5q-1 -2 -8 -14.5t-9 -20.5q-1 -3 -1.5 -8.5t-0.5 -7.5q-2 -7 -8.5 -21t-7.5 -16q-2 -5 -3 -18t-2 -16q-1 -6 -6 -21t-6 -22q-2 -7 -6 -88q0 -1 -1.5 -4t-1.5 -6q0 -2 1 -12.5t2 -25t1 -21.5q0 -8 7.5 -20.5t17.5 -16.5q34 2 58 26
q162 174 153 312q4 8 4 10q0 3 -3.5 11.5t-3.5 10.5q-9 47 -36 98t-64 63v2q-1 2 -3 3q-20 4 -30 4q-2 0 -17 -3.5t-22 -3.5q1 0 7 5t14 9.5t13 4.5q2 0 6 -2t8 -2t7 2t7 2q3 0 8.5 -3.5t9.5 -3.5q2 1 2 2l2 1q19 0 107 -53q4 -1 8.5 -8.5t5.5 -8.5q10 -10 19 -22
t13.5 -19.5t11 -21.5t8.5 -18q3 -5 4 -21t3 -22q9 -21 9 -42z" />
    <glyph glyph-name="P" unicode="P" horiz-adv-x="409" 
d="M397 441q0 -28 -18 -61q-1 -2 -2 -9t-2 -9q-76 -128 -273 -212q-16 -6 -22 -11q-4 -26 -4 -69.5v-61.5q-7 0 -7 -7t4.5 -18.5t10.5 -11.5q3 0 10 4.5t10 5.5q0 -1 1.5 -6t1.5 -9q-12 -12 -30 -12q-7 0 -16 8.5t-12 14.5q-32 50 -34 140q0 4 -0.5 13.5t-0.5 15t-1 13
t-3.5 11.5t-5.5 5q-1 5 -5 20.5t-5 23.5l10.5 3.5l10.5 3.5q5 34 25 127q0 1 -0.5 5.5t0.5 6.5q20 81 47 162q-1 2 -10 0.5t-10 -1.5q-6 0 -26 15q1 1 11.5 16t17.5 19q13 8 43 18.5t46 10.5q10 0 46 -6q72 -8 132 -51.5t60 -106.5zM326 491q0 28 -43.5 43.5t-72.5 15.5
q-28 0 -72 -17q1 -5 5.5 -15.5t4.5 -12.5q0 -6 -5.5 -45.5t-8.5 -55.5q-3 -19 -12 -51t-15.5 -56t-6.5 -26v-13q18 9 48.5 28.5t74 52.5t73.5 74t30 78z" />
    <glyph glyph-name="Q" unicode="Q" horiz-adv-x="434" 
d="M518 -111q-7 -10 -27 -10h-24q-14 0 -60 29q-62 41 -129 144q-33 -29 -53 -39q-15 -7 -30 -9q-4 -1 -8.5 -4.5t-11.5 -3.5q-3 0 -9 -1t-9 -1q-82 0 -138 94q-5 10 -11.5 39.5t-6.5 45.5q0 76 35.5 180t77.5 173l2 6q1 5 3 7q1 1 9 10.5t15.5 15.5t14.5 8q9 4 38 4
q3 0 11.5 -2.5t12.5 -2.5q3 0 8.5 1t9.5 1q2 0 7.5 0.5t10.5 0.5t9 -1l5 6q31 -3 58 -11q34 -11 55 -57t21 -81q0 -68 -19 -139.5t-38 -117t-19 -50.5q0 -2 16 -26l39 -58.5t35 -54.5q38 -61 69 -85q6 -4 31 -11zM308 433q0 18 -6.5 49.5t-12.5 43.5h-15q-4 -5 -22 -5l-2 1
h-3q-5 0 -11.5 -5.5t-14.5 -15.5t-12 -14l-6 6l-20 -23q-6 -8 -18.5 -32.5t-22.5 -33.5q-18 -15 -25 -39q-1 -4 -10 -35.5t-16 -57t-13 -61t-6 -60.5q0 -22 12.5 -58.5t31.5 -50.5q4 0 11.5 2.5t13 4.5t7.5 1q7 -3 45 37.5t38 55.5q0 4 -25 66.5t-25 65.5q0 10 10 10
q8 0 27 -14.5t33 -28t15 -15.5q2 7 14.5 47t15.5 58q12 64 12 101z" />
    <glyph glyph-name="R" unicode="R" horiz-adv-x="419" 
d="M445 -15q0 -7 -16 -14q-12 -6 -24 -6q-36 0 -93 38t-89 73q-16 17 -63 71t-66 74q-1 -12 -4 -26.5t-7.5 -31.5t-6.5 -27q-3 -14 -3 -72q0 -61 10 -61q3 0 4.5 1t2.5 1q4 -10 0 -28q-1 2 -10 0t-11 -2q-4 0 -15.5 10.5t-15.5 16.5q-16 24 -23 45q-1 5 -5 17.5t-6 18.5
q-2 9 -2 47q0 65 18.5 153.5t48.5 161.5q1 2 2 12t3 16q3 9 11.5 27t11.5 26q1 2 0 9t0 9q-2 2 -6 8q3 10 3 39q1 -2 8 -2q3 0 13 4.5t14 5.5q10 20 13 20t13 -6.5t15 -7.5q11 -2 34 -3.5t35 -3.5q34 -5 78.5 -34.5t63.5 -61.5q12 -21 12 -41q0 -42 -55.5 -90t-110.5 -79
t-55 -33q0 -3 13 -20t21 -25q2 -2 30.5 -32.5t36.5 -37.5q24 -22 62 -68q1 -2 14.5 -16t21.5 -23q39 -49 46 -49q1 0 7 4t11 4q10 0 10 -11zM334 495q0 6 -16 16q-43 27 -101 27q-13 0 -53 -11q0 -3 1 -9.5t1 -8.5q-39 -155 -45 -173q52 22 128 72q3 1 13 1q1 8 6 12.5
t14 8.5t13 7q6 5 14.5 15.5t10.5 12.5q2 4 0 8q14 19 14 22z" />
    <glyph glyph-name="S" unicode="S" horiz-adv-x="393" 
d="M378 448q0 -7 -10 -32l1 -5q1 -5 0 -7q-4 -15 -18 -36q-4 -7 -29.5 -21.5t-33.5 -14.5q-3 0 -6.5 2t-8 5.5t-7.5 4.5q-4 7 7.5 24t23.5 19q0 22 -4 27q-31 40 -87.5 74t-101.5 34q-5 0 -13 -5q0 -9 3 -19q9 -24 36 -60q24 -29 72 -85q11 -13 43.5 -48t50 -55.5t33.5 -50
t16 -53.5q0 -45 -32.5 -91.5t-90.5 -77.5q-10 -5 -41 -5q-27 0 -59 13q-3 1 -9.5 6.5t-9.5 7.5q-30 9 -36 14q-5 4 -13.5 13.5t-12.5 12.5q1 4 -23 28q8 0 13 5q-2 4 -11 10.5t-11 9.5q-4 4 -6.5 10.5t-5 15.5t-4.5 13q120 -85 218 -85q20 0 30 1t14.5 9t5 13.5t0.5 26.5
q0 17 -19 64q-2 4 -6 16.5t-6 16.5q-15 26 -40 61q-27 36 -140 164q-2 3 -18 34l-10 27q0 15 12 34t30 32q1 1 11 10t17 12q60 20 87 20q2 0 13.5 -3.5t16.5 -2.5q29 1 99 -45t70 -88z" />
    <glyph glyph-name="T" unicode="T" horiz-adv-x="494" 
d="M673 549q-6 -1 -13.5 -5.5t-11.5 -8.5l-5 -4q-5 2 -5 3q-1 0 -7 1t-12 1.5t-15 -1.5q-50 -11 -99 -11q-53 0 -116 -5q-3 0 -10 -2.5t-10 -2.5q-2 -1 -2 -3q-12 -16 -24 -78q0 -1 -4.5 -14t-6.5 -21q-6 -25 -23 -137q-1 -6 -7.5 -28.5t-7.5 -32.5q-1 -16 -5 -51t-5 -53
q-4 -49 -5 -56q-4 0 -9 -3.5t-5 -7.5q0 -3 4.5 -12t4.5 -14q3 -26 6 -29q-15 6 -25.5 16.5t-15 19t-9.5 22.5q-13 38 -13 92v116q0 3 3 16t4 18q7 90 33 223v4q-13 -4 -47.5 -7.5t-48.5 -8.5q-17 -5 -53.5 -12t-42.5 -7q-50 0 -57 32q1 2 2 5q-1 5 -7 8q-1 3 0 9t1 7
q-1 2 -1.5 6t-2 7.5t-4.5 7.5q9 6 12 6q2 0 5 -2.5t6 -2.5q2 0 19 4.5t39 10.5t32 8q34 8 66 12t71.5 7t53.5 4h40.5t26 0.5t13.5 1t7 0.5h4q3 0 4 -0.5t2 -1.5t2 -1q7 -1 28 -2t32 -3l8 3q14 -2 47 -5.5t47 -6.5q17 -2 54.5 -9t54.5 -9q0 -2 1.5 -7t1.5 -6z" />
    <glyph glyph-name="U" unicode="U" horiz-adv-x="520" 
d="M568 119q-5 -11 -12.5 -35t-13.5 -35q-4 -8 -11 -16t-17.5 -18.5l-13.5 -13.5q-44 -14 -63 -14q-24 0 -66 17q-16 4 -47 47q-2 4 -12.5 12.5t-13.5 15.5q-22 39 -18 134q-4 -7 -15.5 -21.5t-19.5 -27t-14 -24.5q-27 -59 -52 -99q-16 -27 -28 -40q-5 -6 -28 -6
q-38 0 -70 34.5t-45 73.5q-5 11 -5 54q0 53 23 128q16 55 19 71q2 15 31 84q3 7 11.5 30.5t13 34.5t13.5 28t18 29q0 2 -2 5q3 8 13 8q18 0 30 -18.5t12 -29.5l-2 -3q0 -9 -3 -20.5t-7.5 -25.5t-6.5 -21q-4 -13 -7 -28.5t-6 -34t-5 -28.5q0 -4 -7 -20t-9 -23
q-6 -28 -22 -106q-19 -90 -19 -108q0 -6 7 -43q8 2 13 10q57 77 147 223q25 41 61 116q1 1 1 7v8q20 51 63 141q5 0 14.5 1t17 2t10.5 1q2 0 15 -10q4 -2 9 -9.5t5 -11.5q0 -3 -3 -11.5t-7.5 -22t-6.5 -22.5q-7 -33 -26.5 -114.5t-27.5 -124.5q-10 -63 -10 -128v-36
q2 -8 15 -37q2 -2 5 -2t11.5 -1.5t11.5 -1.5q31 0 90 37.5t62 38.5z" />
    <glyph glyph-name="V" unicode="V" horiz-adv-x="398" 
d="M391 589q-9 -4 -11.5 -15.5t-1.5 -24t-2 -26.5q8 -4 4.5 -18t-9 -24.5t-14 -27t-12.5 -26.5q0 -2 -0.5 -5.5t-1 -6.5t-1.5 -5q-18 -37 -66.5 -144t-71.5 -152q-4 -8 -16 -26.5t-16 -26.5q-3 -5 -8.5 -27t-9.5 -29q-5 -8 -22 -16q-8 -4 -21 -4q-3 0 -12.5 3t-11.5 4
q-8 3 -15.5 7t-13 8.5t-10.5 11.5t-8.5 11.5t-6.5 14t-5 13.5t-4 15t-3 14.5t-3 15t-2 13.5q-1 7 -1 68q0 4 -3 16.5t-4 19.5t-1 31.5t-0.5 54.5t-0.5 43l-4 7v233q1 0 4.5 1.5t7.5 1.5q3 0 9.5 -8t10.5 -10q2 -1 8 -2.5t8 -4.5q20 -28 22 -81q0 -10 2 -39.5t2 -45.5
q0 -3 -2 -18.5t-1 -23.5q3 -155 13 -265q9 19 51 103.5t63.5 126.5t58.5 110.5t69 118t63 86.5q0 -2 -1 -11l-7 -14t-6 -16q0 -9 14 -9z" />
    <glyph glyph-name="W" unicode="W" horiz-adv-x="723" 
d="M708 354q0 -38 -19 -107q-5 -23 -40 -89q-7 -14 -56 -91q-1 -3 -19 -24t-41 -43.5t-32 -22.5q-2 0 -19.5 -2.5t-20.5 -2.5q-50 0 -99 54q-10 12 -27 49q-13 20 -19 47q0 2 1 8t0 8q-24 116 -28 185q0 8 -8 19q-7 -3 -16 -19q-59 -111 -91 -180q-1 -2 -1 -7.5t-1 -7.5
q-6 -16 -17 -49q-17 -43 -44 -66q-6 -3 -17 -3q-3 0 -11 4t-11 4t-3 -1.5t-3 -1.5q-10 0 -46 43q-12 16 -19 50q1 19 1 33.5v21.5v11v6l-1 2q13 95 30 152q0 12 1 21q2 1 4 4q8 51 36 133q0 1 -1 3.5t0 3.5q1 2 9 24t13 33q25 0 35 -9q5 -4 6.5 -11t5.5 -13q6 -12 6 -32
q0 -19 -15 -84q-5 -22 -13 -69t-11 -62q-22 -113 -22 -115q6 10 27.5 50.5t26.5 48.5q102 172 145 266q2 5 4 18.5t3 17.5h20q3 1 7.5 -1.5t7.5 -2.5q11 0 27 -4.5t20 -7.5q0 -3 5 -10.5t5 -10.5q0 -4 -6 -32.5t-6 -31.5v-92q0 -2 3.5 -41t8.5 -92t7 -77q0 -1 2 -2t2 -3
q2 -12 4.5 -29t5 -31.5t6.5 -28.5q0 -1 2.5 -10t4.5 -14t5.5 -13t7.5 -11.5t9 -3.5q6 0 29 23q25 25 41 55q4 6 30 47t37 64q30 64 40.5 116t10.5 120q0 46 -9 95q0 4 -6 15.5t-8 17.5q0 2 -11 12l2 5l6 -5l7 2q8 -5 13 -4q12 -7 15 -12q15 -16 22 -34t12 -24q1 -1 17 -36
q10 -24 15 -61q1 -5 1 -45l3 -3q2 -3 2 -7z" />
    <glyph glyph-name="X" unicode="X" horiz-adv-x="486" 
d="M529 -86q0 -5 -12 -5q-33 0 -86.5 39t-73.5 66q-4 6 -22 28.5t-26 34.5q-15 22 -34 59q-44 92 -45 93l-159 -271q-8 1 -10 -1t-3 -2q-9 0 -33 25t-24 31q0 8 34 73q36 69 63 139q2 -2 5 -8.5t6 -6.5q5 0 42.5 65.5t37.5 69.5q0 2 -4 12.5t-9 24t-7 20.5q-20 73 -22 78
q-6 17 -20.5 55t-23 62.5t-8.5 27.5v11q35 -6 58 -27.5t33 -46t25 -58t32 -53.5q5 8 20.5 38t28.5 51.5t22 30.5q3 3 8.5 3.5t13.5 -0.5t10 -1t6.5 2t7.5 2q11 0 34 -10t23 -21q0 -3 -24 -36q-1 -1 -6.5 -4t-6.5 -6t-4.5 -11t-5.5 -12l-13 -21q-13 -21 -27 -44.5t-26 -46.5
t-12 -28q0 -3 4 -16.5t9 -31.5t7 -26q9 -35 40 -125q-1 -3 -1 -10q44 -92 77 -130q2 -2 21 -23.5t33 -32.5l14 -7l2 -5q3 -4 7 -5q7 -5 24 -9z" />
    <glyph glyph-name="Y" unicode="Y" horiz-adv-x="443" 
d="M430 537q0 -33 -7 -72l-3 -12l-3 -12q-1 -5 -6 -61.5t-10 -82.5q-15 -80 -26 -127q-1 -5 -6.5 -17.5t-7.5 -18.5q-1 -6 -4.5 -23t-5.5 -27q-1 -5 -1.5 -17.5t-0.5 -15.5q-1 -3 -4 -9t-4 -9q-1 -5 -1 -24t10 -48t24 -45q1 -3 -2 -7.5t-8 -4.5q-3 0 -3 2.5t-3 2.5t-3 -2.5
t-3 -2.5t-4.5 1t-3 3t-2.5 3q-18 4 -34 24.5t-19 40.5q-2 9 -4.5 21.5t-3.5 18.5t-2 21t-1 38q0 51 5 91q5 32 16 87t19.5 94.5t8.5 41.5v12h-4q-68 -85 -105 -124q-4 -5 -10 -14t-24 -31.5t-33 -39.5t-32 -31t-27 -14q-28 0 -55 25.5t-26 58.5q1 29 12.5 82t20.5 75
q1 3 32 78.5t48 112.5q24 8 44 8q15 0 35 -18q3 -9 3 -11t-13 -19.5t-16 -26.5q-1 -3 -14 -31.5t-17 -42.5q-7 -21 -19.5 -62.5t-14.5 -46.5q-20 -59 -15 -95q9 6 19.5 15.5t23.5 24t22.5 26.5t27 34t27.5 34q29 34 63 85q73 118 89 118q2 0 9.5 -2.5t12.5 -1.5q39 1 39 -30
z" />
    <glyph glyph-name="Z" unicode="Z" horiz-adv-x="473" 
d="M540 97q-5 -4 -14.5 -9t-14 -9t-3.5 -9q-3 2 -9 2q-3 0 -11.5 -5.5t-13.5 -5.5q-5 -1 -13.5 -1.5t-18.5 -2.5t-25 -6q-6 -2 -21 -2.5t-22 -2.5q-23 -4 -82 -22q-6 -1 -42 -6.5t-51 -10.5q-17 -7 -47 -13t-36 -6q-3 0 -16 -1t-17 -1q-18 0 -23 3q-21 13 -37 41
q-24 35 -24 47q0 1 27.5 33t76.5 89.5t88 105.5q2 2 2 7q21 24 68.5 91t71.5 110q-2 4 -6 4q-3 0 -7.5 -2t-6.5 -2q-8 -2 -29 -4.5t-30 -4.5q-53 -13 -109 -36q-6 -3 -18.5 -10.5t-22.5 -13t-13 -5.5q-13 0 -28 13q-6 5 -11 31q-7 19 -7 24t5 9t13 7.5t10 4.5q47 22 109 37
t110 15q37 0 46 -5q3 -2 12.5 -7.5t12.5 -7.5t10 -7t9.5 -7.5t7.5 -7t6.5 -8t4 -8t3.5 -9.5t1 -11q0 -21 -35 -78.5t-49 -74.5q-31 -46 -104 -135.5t-96 -119.5q32 1 91 4.5t104 6.5t46 3t33 -2.5t75.5 -5t69.5 -3.5z" />
    <glyph glyph-name="a" unicode="a" horiz-adv-x="368" 
d="M432 99q-2 -4 -5 -7.5t-6.5 -7l-5.5 -5.5t-3 -8t-2 -8q-25 -34 -38 -49q-6 -6 -30.5 -15t-41.5 -9q-13 0 -33 10q-15 5 -35 35q-14 22 -16 35q-8 36 -3 96l3 39q-4 0 -14 -19q-24 -38 -51 -97q-4 -8 -11.5 -25.5t-14 -29.5t-15.5 -23q-9 -13 -26 -16l-10 -2h-25
q-7 0 -26 26.5t-21 31.5q-1 3 -1 15q0 47 52 133.5t101 133.5q23 23 49 23q6 0 22 -4q23 -10 28 -18v-18q3 -1 13 -6t17.5 -8t10.5 -3q6 0 9 2l6 -5q5 -1 10 -9t5 -12q0 -2 -4.5 -13.5t-10.5 -28.5t-9 -30q-18 -72 -18 -99l-2 -61q3 0 9.5 0.5t9.5 0.5q18 1 37 9.5t47 26
t47 26.5q0 -1 1.5 -3.5t0.5 -3.5zM82 97l-2 -9q22 20 60 67q46 56 81 138q-38 -28 -67 -64.5t-41.5 -62.5t-30.5 -69z" />
    <glyph glyph-name="b" unicode="b" horiz-adv-x="343" 
d="M324 258q0 -6 -6 -35.5t-12 -45.5q-8 -20 -42 -82q-8 -14 -47.5 -62.5t-51.5 -48.5h-17q-4 0 -13.5 9t-15.5 20t-12 30.5t-6 25.5q0 3 3 7t7 9.5t6 8.5q0 -14 4 -26q4 0 4 -2q7 0 51 58q6 8 21.5 28.5t21 28t16.5 24t16.5 26.5t11.5 23.5t10 26.5q-2 2 -10 2
q-26 0 -53.5 -20t-51 -46t-28.5 -29q-4 -7 -18.5 -32.5t-20.5 -37.5q0 -1 1 -6t0 -8q0 -1 -9 -15q-1 -1 -5 -17t-11 -26.5t-17 -10.5q-7 0 -21.5 16t-15.5 21q-1 8 -5 29t-4 25q0 13 3 31t10 43.5t12 42t14.5 47t11.5 37.5q1 2 27 80t35 117q1 4 -1 27.5t0 35.5h17
q24 0 35.5 -27t11.5 -46q0 -3 -3 -19.5t-4 -21.5q-1 -3 -30 -127q-19 -71 -20 -74q74 62 123 62q13 0 38 -10q19 -8 29.5 -27t10.5 -39z" />
    <glyph glyph-name="c" unicode="c" horiz-adv-x="295" 
d="M341 122q-23 -29 -38 -43q-1 -2 -7.5 -8t-8.5 -9q-3 -4 -15.5 -10.5t-17.5 -11.5q-14 -14 -25 -22.5t-16 -10.5t-12.5 -4t-9.5 -3q-14 -5 -31 -8q-5 -1 -17 -3q-5 -5 -9 -5h-34q-5 3 -17 6.5t-17 6.5q-20 11 -28 22q-15 21 -26 58t-11 64q0 31 39.5 101.5t58.5 83.5
q5 3 15.5 13.5t20.5 18t19 7.5q15 0 62 -9q10 -2 31.5 -20t27.5 -31q4 -8 4 -22q0 -5 -10 -21q-8 -14 -28.5 -31t-30.5 -12l-8 -8l-20 11q37 47 28 84q-53 -31 -100.5 -102.5t-47.5 -122.5q0 -16 2 -20q4 -8 30 -12t40 -4q81 0 207 77z" />
    <glyph glyph-name="d" unicode="d" horiz-adv-x="432" 
d="M424 551q1 -10 -26 -64t-27 -56q-2 -8 -10.5 -39.5t-12 -44.5t-10 -41.5t-9.5 -47t-6.5 -44.5t-4.5 -49q-3 -18 -3 -47q1 -5 3 -50q1 -34 9 -43.5t31 -9.5q37 0 90 33l1 -11q-43 -53 -65 -63q-35 -1 -56 7q-12 4 -17 9q-59 48 -67 105q-5 7 -5 87.5v87.5q0 -1 -46 -88
q-16 -30 -36 -81.5t-33 -79.5q-1 -1 -3 -2.5t-3.5 -3.5t-2.5 -3q1 -4 -3 -7t-11.5 -4.5t-8.5 -2.5q-10 -5 -18 -5q-10 0 -27.5 11t-20.5 15q-29 37 -31 71q-4 63 23 140.5t70 117.5q10 10 82 10q11 0 39 -17q2 -7 -0.5 -13.5t-8.5 -15t-6 -9.5q-9 -15 -17 -42q-1 -1 -4 -3.5
l-6 -5t-6 -3.5q-4 3 -7 3q6 27 2 41q-38 -28 -61.5 -87.5t-30.5 -114.5q-1 -1 -2 -4.5t-3 -5.5l5 -27q9 3 16 17q32 55 87 143.5t85.5 142.5t40.5 87q0 2 4.5 4.5t5.5 5.5q41 127 54 127l19 -3q20 -2 31 -1q4 -2 10 -12t7 -14z" />
    <glyph glyph-name="e" unicode="e" horiz-adv-x="309" 
d="M331 130q-14 -19 -45 -50t-50 -45q-47 -29 -53 -32q-53 -21 -75 -21q-18 -3 -25 -2q-15 2 -46 26q-14 10 -27.5 50t-14.5 63q-1 3 2.5 8.5t3.5 7.5q37 137 97 203q3 4 16 9q2 1 5 6.5t5 7.5q3 0 11.5 3.5t13.5 3.5q1 0 22 -6q30 -12 57 -38q5 -5 9.5 -19t4.5 -20
q1 -3 -1.5 -8.5t-2.5 -7.5q-1 -18 -11 -39.5t-20 -36t-31 -42t-30 -39.5q-20 -22 -34 -31l-10 -6q-11 -6 -20.5 -13.5t-9.5 -13.5q0 -7 6 -12t12 -6.5t11 -1.5q3 0 8 0.5t9 0.5q11 1 26 5.5t26 9t29 12.5t26 11q13 6 50 30t56 33zM173 316l-8 3q-28 -16 -69 -133
q74 92 77 130z" />
    <glyph glyph-name="f" unicode="f" horiz-adv-x="362" 
d="M418 323q-6 -18 -17.5 -30t-10.5 -23q-12 -1 -24.5 -18.5t-16.5 -20.5q-43 -28 -103 -40.5t-96 -17.5t-36 -17q0 -5 16.5 -25.5t35 -41t20.5 -23.5q3 -5 7.5 -18t10 -22t13.5 -13q7 -35 7 -64q0 -34 -8 -71.5t-31 -70.5t-56 -33q-3 0 -11.5 1.5t-12.5 1.5q-11 0 -32.5 21
t-28.5 33q-21 39 -26.5 68t-5.5 74q0 52 11.5 122.5t11.5 71.5q-3 2 -14 10.5t-20 11.5q1 1 3 5.5t3 6.5q-3 3 -8 6.5t-6 4.5q17 8 54 8q6 19 19 64t24.5 78.5t26.5 61.5q2 3 13.5 25.5t17 33t18.5 33t23.5 37.5t26 34t31.5 35q7 7 39 1q2 0 5 2.5t7 2.5q5 0 13 -8t8 -13
q0 -6 -8 -14.5t-20 -19t-16 -15.5q-17 -22 -41 -68q-29 -55 -34 -73q-9 -30 -31.5 -91t-32.5 -93q1 0 1.5 -1.5t4.5 -1.5t32 5.5t66.5 15t62.5 17.5q33 11 115 55zM159 -25q0 34 -14.5 77.5t-38.5 74.5q-1 -10 -9 -56t-14 -88t-6 -65q0 -30 9 -64q5 -17 21 -21q16 7 34 60
t18 82z" />
    <glyph glyph-name="g" unicode="g" horiz-adv-x="370" 
d="M437 34q-30 -21 -38 -23q-32 -6 -37 -8q-4 -2 -9 -6t-11.5 -11t-12.5 -12q0 -15 -9 -49q-10 -39 -30 -84q-20 -44 -67.5 -105t-92.5 -96q-9 -7 -25.5 -15t-22.5 -8q-32 0 -61.5 50t-29.5 77q0 24 14.5 59t26.5 55q23 36 62 64q26 20 87 47q2 1 29 9t43.5 17t16.5 22
q0 24 -21 24q-31 0 -92 -38.5t-81 -38.5q-6 0 -19 12.5t-13 16.5q0 1 1 16t0 18t-4 6l-1 4v3q0 3 19 36q-59 20 -59 89q0 3 2 19t2 23q-1 30 58 90.5t95 60.5q3 0 11 -3.5t12 -3.5q3 0 12.5 5t13.5 5q2 0 20 -8l19 -8q3 0 15.5 9t19.5 12q23 7 39 7q58 0 81 -48q-4 -4 -4 -7
q-15 5 -27 5q-13 0 -36 -8t-25 -18q-2 -6 -3 -24t-4 -26q-13 -33 -73 -85t-80 -77v-4q40 19 66 19q32 0 70 -24.5t44 -56.5q74 7 109 15zM239 300q0 13 -10 30.5t-26 17.5h-11q10 -12 5.5 -20t-13.5 -8q-3 0 -4 1.5t-5 1.5q-6 0 -29 -22.5t-33 -37.5q-4 -6 -16 -21.5
t-19.5 -26t-16 -25.5t-11.5 -26v-8q-1 -7 -3 -11l13 -4q40 9 109.5 64.5t69.5 94.5zM251 -71q-37 -13 -86 -50t-68 -69q-13 -21 -32 -64t-18 -47v-14h14q62 51 114.5 117.5t75.5 126.5z" />
    <glyph glyph-name="h" unicode="h" horiz-adv-x="387" 
d="M442 88q-5 -8 -18.5 -29t-21 -31.5t-20 -24.5t-25 -20t-25.5 -6q-47 0 -84.5 48.5t-39.5 88.5q-3 26 10 84.5t18 67.5v8q-2 2 -13 2q-3 0 -8 -6.5t-6 -7.5q-8 -7 -16.5 -15t-16.5 -19.5t-14 -20t-14 -24t-12.5 -23t-12.5 -25.5t-10.5 -23.5t-11.5 -25.5t-10 -23
q-7 -15 -10 -24q-3 -12 -12 -26t-15 -14q-5 0 -16.5 6t-16.5 13q-2 3 -7.5 12t-7.5 12q-10 16 -10 41q-2 23 4 57.5t15 74t11 51.5q31 139 70 220q18 39 52.5 83t64.5 66q6 4 29 4q12 0 29 -6.5t20 -12.5q4 -6 10 -23q2 -5 -0.5 -23t-2.5 -19q0 -8 -15 -40
q-97 -152 -162 -231q-11 -12 -17 -28t-10.5 -43t-6.5 -35q-2 -1 1 -4q8 11 27.5 39.5t30.5 42.5t27.5 34t32 32t30.5 17q3 1 24 1q6 0 24 -6.5t20 -10.5q9 -12 9 -36q2 -25 -14.5 -103.5t-14.5 -110.5q0 -27 14 -46q15 -3 42 8t63 31t39 22zM267 614q0 6 -2 7t-12 1
q-14 0 -41 -23t-37 -42q-22 -41 -31 -71q-1 -2 -2 -9.5t-3 -10.5q-5 -16 -15.5 -58.5t-16.5 -61.5q2 2 38.5 50.5t58.5 79.5t43.5 73.5t19.5 64.5z" />
    <glyph glyph-name="i" unicode="i" horiz-adv-x="199" 
d="M121 294v-18q-23 -67 -31 -107q-19 -100 -17 -113q0 -14 12 -46q8 -5 16 -3q0 -1 1 -6.5t0 -7.5q-1 0 -8.5 -7t-11.5 -7q-14 0 -29 18q-19 21 -31.5 61t-13.5 69q-4 98 64 233h10q39 -27 39 -66zM175 441q1 -18 -8.5 -24.5t-27.5 -6.5q-29 0 -57 36q-8 10 -9.5 32
t-8.5 33l6 6q8 -1 21.5 -9.5t26 -18t14.5 -10.5q1 0 11.5 -1.5t14.5 -4.5q17 -22 17 -32z" />
    <glyph glyph-name="j" unicode="j" horiz-adv-x="168" 
d="M156 451q0 -13 -8 -19.5t-17 -6.5q-7 0 -13.5 1.5t-13.5 6t-11.5 7.5t-12.5 12t-11 12.5t-13 16t-13 16.5l4 13h11q4 0 10 -3.5t8 -4.5l6 -2q7 -2 15.5 -5t19 -8t19 -10.5t14.5 -12t6 -13.5zM125 221q0 -94 -29.5 -232t-74.5 -216q-2 -4 -6 -8.5t-8.5 -10.5t-6.5 -9
l-1 -3q-1 -3 -1.5 -6t-1.5 -5q-5 -8 -18.5 -21t-16.5 -16l-5 -10q-11 -14 -48 -29t-55 -15q-15 0 -38 8.5t-28 9.5q-1 3 -5 7t-10 8.5t-8 6.5q-2 6 0 12q-6 7 -14 19.5t-11 16.5q4 4 3 6q-5 8 -20 51t-15 55q0 13 6 31h10q-2 0 -2 -7t5.5 -33t11.5 -39q0 -1 7 -4
q9 -27 27.5 -46.5t37.5 -19.5h43q29 0 74.5 49.5t51.5 64.5q3 7 16.5 41t17.5 52q2 13 10.5 44t11.5 44q5 24 16.5 105t11.5 113q0 5 0.5 19t0.5 22t-3 21.5t-10 27.5q-5 11 -33 16l3 14q18 -5 35 -2q25 -19 56 -38q2 -9 4.5 -18.5t3.5 -14.5t2 -9.5t1.5 -8t1 -6t0.5 -6.5
v-7v-10.5v-13.5z" />
    <glyph glyph-name="k" unicode="k" horiz-adv-x="371" 
d="M452 38q-11 -13 -69 -47q3 -2 12 -2q-12 -4 -36 -16.5t-33 -15.5q-6 -2 -31 -4l-3 -4q-3 -4 -7 -4q-3 0 -15 3t-15 3q-39 0 -81 48.5t-64 98.5q-7 -8 -13 -17t-9 -16t-6 -18.5t-4 -16.5t-3 -18t-3 -17q-1 -5 -6.5 -9t-10.5 -4q-8 0 -16.5 7.5t-14 15.5t-12.5 20t-9 15
q1 4 -0.5 15t-1.5 13q0 28 8 74t34 138q21 81 47 141q3 5 6 19.5t5 19.5q16 41 36 75q6 10 14.5 22.5t19.5 28.5t17 24q4 -1 23.5 -1.5t32.5 -5t21 -17.5l11 -30q1 -2 1 -20q0 -17 -9 -39t-27.5 -49.5t-34.5 -48t-43.5 -54.5t-39.5 -50q-8 -9 -12 -22t-8 -30t-6 -25
q-2 -2 1 -5q14 28 82 74.5t99 46.5q10 0 22.5 -6.5t15.5 -14.5v-15q-16 -7 -50 -39q-1 -2 0 -6t1 -5q-4 -5 -22.5 -18t-27.5 -23q-32 -35 -44 -63q-7 -18 -7 -39q0 -44 38 -80t83 -36h41q6 0 50.5 17.5t72.5 31.5zM243 567q-18 -18 -55.5 -91t-49.5 -109q44 35 80 94.5
t25 105.5z" />
    <glyph glyph-name="l" unicode="l" horiz-adv-x="291" 
d="M337 145q-9 -17 -35 -47q-4 -5 -17.5 -17.5t-19.5 -19.5q-3 -4 -14.5 -21t-22.5 -30t-23 -19q-8 -4 -29.5 -9.5t-26.5 -5.5q-11 0 -44 7q-38 9 -61 39.5t-29 60.5t-5 63q0 9 3 45q0 1 -3 3t-3 6q0 3 3.5 15.5t9 31.5t8.5 29q1 2 0.5 8.5t-0.5 8.5q3 8 7 25.5t6 25.5
q1 2 6.5 9t7.5 11v5v6v5q0 5 5.5 15.5t6.5 13.5q35 100 119 205l28 4q8 0 28 -11q3 -25 2 -30q-4 -28 -8 -73q0 -2 -25 -110q-14 -50 -44 -110q-14 -29 -97 -161q-5 -7 -5 -36q-1 -3 5 -26q1 -8 14.5 -20.5t21.5 -14.5q4 -1 16 -1q25 0 56 13.5t52.5 28t57 42t49.5 36.5z
M204 538q-16 -28 -58 -130t-49 -133q33 33 74 127.5t33 135.5z" />
    <glyph glyph-name="m" unicode="m" horiz-adv-x="553" 
d="M643 122q-2 -8 -5 -13q-54 -77 -56 -80q-6 -9 -29 -24.5t-33 -15.5h-28q-24 0 -52 12q-13 6 -28 25t-18 31q-2 3 -4 3q-7 17 -10.5 35.5t-4.5 29t-1.5 30t-0.5 26.5l-2 8q-13 -13 -16 -19q-1 -1 -21.5 -34.5t-30.5 -50t-28 -42.5t-29.5 -38.5t-17.5 -12.5h-17
q-20 0 -33.5 35t-13.5 52q0 7 7.5 59t14.5 81q19 67 19 73v10l-4 5q-2 -3 -9 -6.5t-9 -6.5q-11 -23 -24 -44q1 -4 0 -9q-3 -9 -14 -28.5t-15 -29.5q-4 -9 -20.5 -56t-25.5 -64q-2 -4 -3.5 -18t-2.5 -18q-5 -14 -18 -29q-24 -2 -38.5 15t-18 35.5t-3.5 39.5q0 43 12 93
t37 120t29 83q1 2 -0.5 5.5t-1.5 6.5v11q16 8 18 8q14 0 32 -14q7 -4 12.5 -17t5.5 -19q0 -9 -58 -175v-8q3 0 12 9q4 5 22.5 48.5t41.5 75.5t46 32q22 0 39 -11q21 -12 21 -47q0 -19 -4.5 -45t-12 -56.5t-9.5 -41.5l5 -5q19 23 33 50q10 21 41.5 65.5t50.5 44.5
q8 0 31 -4.5t35 -10.5q18 -11 18 -36q0 -3 -8 -70.5t-8 -71.5v-7.5v-9.5v-9.5t1 -10.5t2.5 -9.5t3.5 -8.5t5.5 -6.5t8 -5t9.5 -1.5q51 0 119 41q7 4 54 41z" />
    <glyph glyph-name="n" unicode="n" horiz-adv-x="408" 
d="M467 70q-7 -12 -21 -26.5t-32.5 -30.5t-25.5 -23q-4 -3 -21.5 -8.5t-21.5 -5.5q-7 0 -29 8.5t-34 17.5q-9 7 -29 42q-2 4 -10 16t-12 20q-10 21 -12 56.5t5 68.5q2 1 0 4q-7 -8 -20.5 -26.5t-17.5 -23.5q-10 -12 -41.5 -56.5t-57.5 -80t-29 -35.5h-14q-5 0 -7 6.5
t-2 13.5t-1 8q-20 28 -20 46q0 45 26 137.5t38 121.5q3 8 14 31t15 34q13 0 34 1t23 1q8 0 13 -12.5t5 -18.5q0 -5 -5 -15t-12 -21t-8 -13q-3 -9 -10.5 -28.5t-10.5 -26.5q-10 -23 -11 -58q17 19 37 45.5t30.5 39.5t27 23t36.5 10q37 0 48 -10q15 -11 15 -39q0 -20 -16 -70
t-16 -78q0 -22 0.5 -32t4.5 -25t14 -21.5t26 -6.5q26 0 79 19.5t56 20.5z" />
    <glyph glyph-name="o" unicode="o" horiz-adv-x="292" 
d="M275 223q0 -41 -53 -133q-26 -42 -60.5 -71t-63.5 -29h-17q-36 0 -58.5 46t-22.5 78q0 54 36.5 135t68.5 112q4 3 26 10.5t28 7.5q12 0 32 -15q2 -2 0 -5.5t-5 -7t-4 -5.5q10 -11 37 -26t34 -24q22 -32 22 -73zM195 247q0 26 -4 39.5t-21 47.5q-28 -33 -67.5 -128
t-39.5 -140q0 -15 4 -24h6q25 10 73.5 88t48.5 117z" />
    <glyph glyph-name="p" unicode="p" horiz-adv-x="379" 
d="M349 223q0 -47 -19 -85q0 -1 -0.5 -6t-1.5 -8q-6 -21 -34.5 -69t-53.5 -48q-6 0 -11 5q-22 3 -44.5 19.5t-22.5 36.5q0 3 1.5 10t1.5 10q20 -27 32 -34q38 28 60 104q1 3 6 13t6 16q7 24 7 68q0 3 -1 25t-1 29q-4 0 -4 2q-29 0 -70.5 -66.5t-45.5 -90.5q-5 -24 -14 -62
q0 -1 1 -6t0 -8q-51 -209 -90 -308q-1 -2 -5.5 -6.5l-5.5 -5.5q-16 1 -43 33.5t-27 55.5q0 3 2.5 23l3.5 28q1 14 4 29.5t8.5 33t9.5 31t12.5 35t13.5 33.5t16 36.5t15.5 34.5t17.5 38t17 36q3 6 5 23.5t3 21.5q2 16 5.5 34.5t5.5 29t2 13.5q1 10 2 18t2 13t3 8.5t3.5 5.5
t4 2.5t3.5 0.5h3.5h3.5q3 0 14.5 7.5t15.5 7.5q10 0 14 -4t5 -16t2 -14q0 -38 2 -40q3 0 9 6.5t8 7.5q31 19 65 19q7 0 24 -6t24 -15q30 -33 30 -105zM59 71q-4 -10 -13.5 -34.5t-12.5 -34.5q-7 -22 -14 -55t-6 -38v-12q2 1 12 11q11 38 34 163z" />
    <glyph glyph-name="q" unicode="q" horiz-adv-x="391" 
d="M416 -132q0 -1 -1 -2q-4 -8 -16 -12q-4 -4 -10 -7l9 -8q-17 -16 -36.5 -22.5t-45.5 -10t-38 -6.5q-4 -1 -12 -10t-11 -9t-11 3t-11 3t-48 -18.5t-48 -18.5q-11 0 -31 12q-3 11 -21 49q3 4 3 6q1 0 6 -1t8 -1q10 0 92 30q-8 80 27 205q1 1 0.5 5.5t-2.5 7.5l61 191l-4 1
q-9 -7 -19 -16.5t-22 -23.5t-19.5 -23.5t-22 -28t-18.5 -23.5q-1 -1 -21 -45q-1 -3 -8.5 -9.5t-9.5 -10.5v-6.5t-2 -7.5q-13 -22 -36 -36t-42 -14h-4.5h-4h-4t-3.5 0.5t-3 1t-3.5 1.5t-3.5 2.5t-3.5 3.5t-3.5 4q-8 12 -15.5 32t-7.5 26q0 31 43 98t94 121t71 54q28 0 65 -10
q3 -1 6 -7.5t5 -7.5q7 -4 34.5 -7.5t35.5 -13.5q0 -5 3.5 -21.5t3.5 -20.5q0 -3 -2.5 -11t-6 -19.5t-4.5 -16.5q-15 -48 -56 -190.5t-41 -160.5q0 -4 1.5 -7t2.5 -4.5t4 -2t4.5 -0.5h4.5h4q57 0 144 13zM257 298q-52 -10 -105.5 -81.5t-56.5 -112.5q31 28 57 58.5t60.5 76.5
t44.5 59z" />
    <glyph glyph-name="r" unicode="r" horiz-adv-x="357" 
d="M394 106q-3 -5 -14 -20t-16 -24q-5 -7 -9 -23.5t-5 -20.5q-27 -33 -62 -33q-30 0 -55.5 34t-32.5 69q-3 20 -3 43q0 46 31 112q-4 0 -4 2l-32 -20q-32 -20 -56 -20q-23 0 -37.5 12t-21 24t-10.5 12q-3 0 -4.5 -0.5t-3 -1.5t-4.5 -1q-24 1 -46 6.5t-27 6.5q5 2 23 4.5
t30 9.5t20 23q1 3 0.5 6.5t0 13.5t1.5 18q4 26 24 46t38 20q14 0 23.5 -11t9.5 -21q0 -18 -3 -30q-9 -28 -23.5 -46.5t-21.5 -32.5q4 0 4 -1q10 0 63 36.5t68 36.5q17 0 59 -21q10 -10 10 -11q4 -8 4 -25q0 -16 -18.5 -59t-19.5 -47q-18 -49 -18 -88q0 -33 11 -54
q15 -6 38 8t50.5 38t38.5 30z" />
    <glyph glyph-name="s" unicode="s" horiz-adv-x="257" 
d="M281 342q-5 -9 -15 -13t-27.5 -7t-28.5 -7q-59 -24 -136 -82q12 -15 54 -23q124 -19 124 -87q0 -30 -33.5 -74t-70.5 -62q-1 -1 -11.5 -7t-14.5 -6t-7.5 -1t-6.5 -1h-12q-7 0 -17 11t-12 17q1 7 -5.5 28t-6.5 24q0 4 2 4.5t2 1.5t0.5 5.5t1.5 8t2 5.5q40 47 130 70
q0 3 -1 4t-3.5 1h-3.5q-17 6 -65 8t-77.5 14.5t-30.5 47.5q0 5 -3.5 21t-3.5 20q0 21 26 42t62 35t60.5 21.5t33.5 9.5q12 4 13 4q9 0 40.5 -12.5t40.5 -20.5zM188 128l-20 -7q-14 -5 -36.5 -18t-28.5 -21q4 2 15.5 8.5t17.5 9.5q-1 -8 -21 -23t-25 -29q68 29 98 80z" />
    <glyph glyph-name="t" unicode="t" horiz-adv-x="292" 
d="M371 348q-5 -3 -25.5 -13t-27.5 -17q-2 -1 -7.5 -12.5t-11.5 -15.5q-12 -8 -50.5 -16.5t-47.5 -8.5q-41 0 -53 -3q-12 -5 -21 -59t-9 -91q0 -38 14 -77.5t37 -59.5q-3 -1 -38 -1q-5 0 -23 17t-24 29q-10 19 -24 71q-6 27 -8.5 53.5t-2.5 38.5t2 39t2 31q-2 2 -9.5 4.5
t-9.5 5.5q-7 8 -18 25.5t-18 24.5v13q5 1 31 3t37 4q3 2 5 5q33 134 105 263q18 -1 35 -27t17 -46q0 -2 -14 -27v-6.5t-2 -8.5q-2 -6 -15 -39.5t-20.5 -56.5t-12.5 -46q177 -4 207 4z" />
    <glyph glyph-name="u" unicode="u" horiz-adv-x="423" 
d="M482 98q-1 -2 -6.5 -5.5t-8.5 -7.5t0 -8q-14 -10 -39 -34t-46 -40q-12 -8 -25 -15q-22 -11 -39 -11q-26 0 -42 14q-3 1 -9 1q-32 29 -43 65t-8.5 63t13.5 85q-11 -14 -38 -62t-38 -63q-1 -1 -1.5 -7.5t-3.5 -9.5q-6 -6 -20.5 -25t-26.5 -28.5t-26 -9.5q-36 0 -55.5 38
t-19.5 72q0 6 7 33t14 45q10 28 34 82t33 79q14 -4 29 -28.5t15 -40.5l-59 -183v-8h3q17 13 73 77q9 11 34.5 45t41.5 53q10 12 22 34.5t23 34t27 11.5q3 0 15 -4t14 -8q12 -27 12 -50q0 -9 -25 -115q-11 -57 -14 -132q3 -4 15 -4q11 0 31.5 7.5t38.5 16t36.5 18.5t19.5 10
l12 6q11 6 18.5 8.5t11.5 0.5z" />
    <glyph glyph-name="v" unicode="v" horiz-adv-x="276" 
d="M283 417q-3 -11 -10.5 -33.5t-12.5 -39t-5 -19.5t4.5 -8.5t5.5 -7.5h3q0 -26 -28 -101q-36 -83 -52 -104q-9 -12 -24.5 -46.5t-32 -54.5t-38.5 -20q-25 0 -34 10q-26 28 -40.5 79.5t-16.5 97.5q3 94 0 97q4 12 6 42.5t6 41.5q19 -4 26 -13q14 -19 18 -36q7 -45 10 -128
t5 -102h2q16 24 57.5 103t58.5 108q2 3 17 30.5t22 38.5t22.5 31t30.5 34z" />
    <glyph glyph-name="w" unicode="w" horiz-adv-x="498" 
d="M437 339l26 -67q7 -39 7 -86q0 -20 -6 -49.5t-18 -64.5t-36.5 -59t-55.5 -24q-33 0 -60 35t-34 65q-4 16 -5 34t0.5 44t1.5 37q-11 -11 -40 -38t-43 -41q-2 -2 -34 -42.5t-58.5 -67t-42.5 -26.5h-17q-4 0 -13 20t-9 26q0 43 34.5 143t57.5 139q29 70 49 70q14 0 20.5 -16
t6.5 -26q0 -3 -3 -12t-7 -22.5t-6 -19.5q-3 -10 -37 -100.5t-45 -128.5q-3 -1 1 -7q20 24 60 74t55 67q8 10 22 33.5t26.5 34.5t31.5 11q3 0 11 -2.5t13 -2.5q30 -1 38.5 -13t8.5 -37q0 -4 -6 -54.5t-6 -53.5q0 -24 6 -47q18 17 28.5 48t12.5 47t4 53q4 98 -9 152q5 3 10 3
q8 0 33 -18l-1 -1l4 -1q4 0 4 1t4 1q3 0 7.5 -5.5t8.5 -5.5z" />
    <glyph glyph-name="x" unicode="x" horiz-adv-x="338" 
d="M323 346q0 -21 -32.5 -64t-65 -78.5t-32.5 -38.5q0 -30 32.5 -88t51.5 -76q1 -1 3 -5.5t2 -6.5q4 -4 19.5 -15.5t19.5 -18.5q-3 -1 -12.5 2.5t-10.5 3.5q-65 9 -156 150q-58 -67 -81 -116q-6 -14 -14 -14q-14 0 -30 17.5t-16 28.5q0 20 25.5 64.5t27.5 54.5
q10 7 32.5 32.5t22.5 31.5q0 10 -25 74.5t-34 81.5v13q4 4 4 7q5 -3 20 -10.5t25.5 -15t17.5 -17.5q8 -11 14.5 -24t15 -33.5t10.5 -25.5q40 33 67 62l12 12q11 13 22 24.5t23 21.5t17 10q9 0 21 -14q-1 -5 1.5 -16t2.5 -14z" />
    <glyph glyph-name="y" unicode="y" horiz-adv-x="397" 
d="M363 274q0 -7 -6.5 -42t-12.5 -52q-12 -39 -34.5 -103t-34.5 -105q-25 -87 -25 -158q0 -32 7 -70q0 -1 2.5 -7.5t2.5 -10.5q0 -10 -16 -23q-4 3 -7 4q-30 5 -43 60t-13 104q0 54 16 121t47 158.5t35 106.5q2 1 -1 7q-8 -9 -57 -80q-4 -5 -18 -27.5t-28.5 -42.5t-32.5 -42
t-38 -35.5t-37 -13.5q-32 0 -49 35.5t-17 63.5q0 45 30.5 120t64.5 120q5 9 22 9q12 0 19 -13t7 -25q0 -22 -8 -43q-11 -28 -37 -88t-37 -88v-8q31 16 52 33q29 26 72.5 73.5t73 81t32.5 33.5q21 0 45 -17.5t24 -35.5z" />
    <glyph glyph-name="z" unicode="z" horiz-adv-x="355" 
d="M417 90q-11 -4 -13 -12q-27 1 -94 -42q-3 -2 -9 -9t-11 -9q-48 -12 -120 -23q-3 0 -10.5 -3t-18 -6.5t-17.5 -5.5q-13 -4 -35 -6.5t-27 -0.5q-33 13 -47 30.5t-14 43.5q0 28 4 33q27 36 123 118.5t109 112.5q-2 2 -8 2q-7 0 -45 -8.5t-58 -15.5q-4 -1 -17 -10t-17 -9
q-18 0 -36 22.5t-16 36.5q14 14 62.5 28.5t79.5 14.5q40 0 105 -30q7 -3 16.5 -18.5t9.5 -20.5q0 -15 -40.5 -59.5t-80 -82t-40.5 -37.5q-54 -45 -84 -74q1 -1 9 -1q3 0 147 22.5t147 22.5q2 0 20 -2t26 -2z" />
    <glyph glyph-name="NULL.001" horiz-adv-x="0" 
 />
    <glyph glyph-name="NULL.002" 
 />
    <hker</font>
</defs>
</svg>
