<?xml version="1.0" standalone="no"?>
<!DOCTYPE svg PUBLIC "-//W3C//DTD SVG 1.1//EN" "http://www.w3.org/Graphics/SVG/1.1/DTD/svg11.dtd" >
<svg xmlns="http://www.w3.org/2000/svg" xmlns:xlink="http://www.w3.org/1999/xlink" version="1.1">
<metadata>
Created by FontForge 20170731 at Fri Mar 17 19:06:46 2017
 By Aleksey,,,
Kelly Reed
</metadata>
<defs>
<font id="Melodysta-Regular" horiz-adv-x="362" >
  <font-face 
    font-family="Melodysta"
    font-weight="400"
    font-stretch="normal"
    units-per-em="1000"
    panose-1="0 0 5 0 0 0 0 0 0 0"
    ascent="800"
    descent="-200"
    x-height="251"
    cap-height="785"
    bbox="-212 -800 1764.6 1100"
    underline-thickness="50"
    underline-position="-150"
    unicode-range="U+0020-2212"
  />
<missing-glyph horiz-adv-x="950" 
d="M779 -800h-602v1900h602v-1900zM319 973v-63h124v-70h-126v-63h316v63h-126v70h126v63h-314zM317 728v-198h316v65h-126v133h-190zM443 595h-63v68h63v-68zM317 479v-63h126v-70h-126v-63h190v133h126v63h-316zM570 365v-126h-253v-64h316v190h-63zM443 133v-106h64v43
h63v-89h-190v152h-63v-215h316v215h-190zM317 -196v-215h316v215h-316zM570 -348h-190v89h190v-89zM317 -454v-63h133l-133 -89v-63h316v63h-194l133 89h61v63h-316z" />
    <glyph glyph-name=".notdef" horiz-adv-x="950" 
d="M779 -800h-602v1900h602v-1900zM319 973v-63h124v-70h-126v-63h316v63h-126v70h126v63h-314zM317 728v-198h316v65h-126v133h-190zM443 595h-63v68h63v-68zM317 479v-63h126v-70h-126v-63h190v133h126v63h-316zM570 365v-126h-253v-64h316v190h-63zM443 133v-106h64v43
h63v-89h-190v152h-63v-215h316v215h-190zM317 -196v-215h316v215h-316zM570 -348h-190v89h190v-89zM317 -454v-63h133l-133 -89v-63h316v63h-194l133 89h61v63h-316z" />
    <glyph glyph-name=".null" horiz-adv-x="0" 
 />
    <glyph glyph-name="nonmarkingreturn" horiz-adv-x="333" 
 />
    <glyph glyph-name="space" unicode=" " horiz-adv-x="250" 
 />
    <glyph glyph-name="exclam" unicode="!" horiz-adv-x="230" 
d="M115 112q0 5 3.5 17t3.5 18q2 23 2 75q2 148 2 238q0 28 -2 62l-1 55v98l-1 49q-1 15 -1 43q9 12 18 16q15 -3 19 -14t4.5 -26.5t0.5 -24.5q1 -17 1 -54v-67v-33l1 -111v-51q2 -40 2 -56q0 -19 -2 -59l-1 -34q0 -68 -1 -103q-5 -56 -31 -56q-7 0 -11 2q-6 8 -6 16z
M134.5 -67.5q-6.5 6.5 -10.5 7.5v43q14 17 25 17q9 0 17 -11q3 -4 8.5 -8.5t6.5 -7.5q2 -6 2 -10q0 -13 -11 -25t-23 -12q-8 0 -14.5 6.5z" />
    <glyph glyph-name="quotedbl" unicode="&#x22;" horiz-adv-x="159" 
d="M14 576v3q0 4 2 8q4 4 10 12q7 7 7 14q0 3 2 5q2 5 7 6.5t9 -2.5t5 -6q4 -5 4 -15q0 -9 -6 -15q-8 -8 -13 -11q-5 -5 -17 -5q-7 0 -10 6zM69 563q-3 7 2 10q3 5 10 12q6 8 6 14q0 2 2 6q2 5 7 6t9 -2l6 -7q3 -6 3 -15q0 -8 -6 -14q-4 -6 -12 -12q-7 -4 -17 -4q-7 0 -10 6
z" />
    <glyph glyph-name="dollar" unicode="$" horiz-adv-x="468" 
d="M423 427q6 -16 4 -29q-3 -7 -15 -13q-12 3 -17.5 12t-9.5 24q-6 20 -12 28l-3 4q-14 30 -42 53q-2 4 -2 6l-21 16q-3 2 -18 13.5t-31 18.5q-1 -2 -2 -5.5t1 -4.5q-6 -20 -8 -58l-2 -26q-1 -4 -2 -10.5t-1 -13.5l1 -5q0 -1 -1.5 -2t-1.5 -2l2 -4l-4 -15q0 -1 1 -1t1 -1v-1
q0 -2 -3 -8q0 -4 0.5 -12t-0.5 -14q0 -2 -1 -3.5t-1 -4.5v-3l1 -13q-1 -4 -2.5 -9.5t-1.5 -9.5q0 -1 1 -2.5t1 -2.5q0 -4 -1.5 -8t-1.5 -8q0 -3 0.5 -9t-0.5 -11l-2 -24q0 -3 -1.5 -6.5t-0.5 -4.5q0 -4 8 -15.5t10 -15.5q5 -8 12.5 -18t16.5 -23q10 -16 26 -46l17 -31
q19 -49 19 -87q0 -24 -7 -45q-6 -4 -10 -10.5t-6 -9.5q-5 -3 -11.5 -6t-12.5 -8q-23 -2 -30 -4q-7 2 -22 4t-25 7q-2 -42 -2 -56l1 -44q14 -5 14 -25q0 -15 -9 -37q-8 -8 -20 -8q-9 0 -14 5l-1.5 3t-2.5 4q0 2 -0.5 6t-2.5 6l1 3q0 3 -1.5 6.5t-1.5 6.5q0 4 1.5 7t0.5 6
q-1 1 -2 2.5t-1 3.5q0 3 1 6t1 5t-1 3l-2 2q-1 3 -0.5 10t0.5 10l3 87q-57 25 -82 41q-2 -1 -2.5 1t-1.5 3q-3 1 -6.5 2.5t-6.5 1.5q-1 7 -10 9q-4 4 -4 12q0 12 7 22q3 2 11 2q9 0 15 -4t6 -12q6 -2 20 -11t26 -11q4 -5 11 -8.5t12 -4.5t7 -2l1 24q1 7 1 20q0 10 -1 15
q3 10 3.5 26t1.5 25q0 3 -1 5t-1 4q1 6 2.5 13t1.5 12v21.5t3 31.5q0 1 -1 3t0 4q2 8 2 11l-1 12q0 3 2 11q-25 40 -49 73q-48 68 -68 106q0 1 -1.5 1t-1.5 1q-19 40 -28 84q-1 6 -1 18q0 24 5 42q7 16 20 27q0 2 -0.5 3t0.5 2q6 2 14.5 8.5t14.5 8.5q1 1 1.5 2.5t1.5 1.5
q5 0 7 -1q18 11 48 11q37 0 74 -14l5 22.5t4 22.5q1 5 7 10.5t8 8.5q17 0 24 -9q0 -2 0.5 -5.5t2.5 -6.5q-3 -6 -6 -14.5t-5 -14.5v-4q0 -6 -2 -13t-3 -9q8 -9 42 -25q7 -6 21 -17.5t23 -21.5q4 -2 5 -1q4 -4 9 -11.5t12 -10.5q3 -7 10 -14t11 -12q4 -10 11 -21t11 -19
q1 -7 7 -23zM215.5 554q-0.5 8 0.5 11t3.5 7t0.5 7q-36 12 -60 12q-10 0 -15 -1q-2 1 -7 1q-3 0 -18 -3q-7 -3 -15.5 -7.5t-12.5 -8.5q-2 -3 -3 -6l-2 -6q-1 -1 -2.5 -2t-2.5 -2q-3 -6 -3 -15q-1 -16 2 -30t4 -18q8 -35 27 -67t50 -74q22 -30 31 -44q-1 2 -1 7q0 4 2.5 12
t1.5 12q0 10 1 16v2l-1 9q1 20 5 45q0 2 -0.5 5t0.5 4q0 1 1 2.5t1 2.5q0 5 -0.5 11.5t0.5 9.5q0 2 1 4t1 4q1 2 0 4.5t-1 4.5q2 20 4 32q4 30 4 47q4 4 3.5 12zM224.5 188.5q-2.5 2.5 -0.5 -0.5q-8 -135 -10 -201q24 -10 45 -10q26 0 35 16v3q0 5 1 9.5t2 7.5l-1 9l1 9
q-5 35 -17.5 62t-37.5 67l-13 22q0 1 -1 1t-1 1q0 2 -2.5 4.5zM182 -215z" />
    <glyph glyph-name="percent" unicode="%" horiz-adv-x="534" 
d="M77 -74q5 20 24 57q16 29 20 42l2 2t2 0q-1 2 0 3t0 2q4 3 7.5 13t8.5 12q-2 2 -1 4q4 4 9.5 15t9.5 15q0 2 -1 3.5t0 3.5q5 1 7.5 9.5t6.5 10.5v2t-2 1q1 2 8.5 12.5t8.5 20.5q12 12 8 17q7 8 12.5 18.5t6.5 19.5q6 4 11 18t10 18q2 2 0 2q4 3 6.5 11t5.5 10
q1 2 0.5 3.5t0.5 2.5q4 5 10 19q8 16 13 22q1 2 -0.5 2.5t-0.5 1.5q1 2 4 5.5t2 8.5q4 2 7.5 7.5t2.5 8.5q0 3 2.5 5t3.5 3q1 2 0 3t-1 2q7 8 14 22q5 14 13 22q2 1 0.5 2.5t-0.5 1.5q1 3 5 5q1 7 10 21q8 10 11 21q5 4 9.5 13t7.5 14q0 3 -1 3q1 2 7 6q0 4 6.5 13t5.5 13
l5 5t4 7q0 2 -1.5 5t-0.5 5q1 3 3 6t1 6q7 5 16 5q16 0 22 -11q2 -8 -0.5 -15t-8.5 -18q-8 -15 -9 -20q-6 -4 -11.5 -16t-9.5 -16v-6q-1 -1 -7 -6.5t-6 -15.5q-3 -3 -5.5 -6.5t-6.5 -6.5l1 -3q0 -3 -1.5 -5t-1.5 -5q-9 -6 -14 -22q-1 -3 -5 -9.5t-8 -10.5q1 -1 0.5 -3.5
t-0.5 -4.5q-8 -6 -14 -25q-4 -3 -8 -12.5t-8 -12.5q0 -2 0.5 -2.5t-0.5 -1.5q-3 -5 -8.5 -14.5t-7.5 -20.5q-9 -12 -18 -33l-7.5 -15t-11.5 -19q1 -3 0.5 -5t-0.5 -3q-8 -6 -11 -20q-5 -2 -8 -13.5t-8 -13.5q-1 -5 -6.5 -13.5t-5.5 -15.5q-3 -6 -9 -14.5t-7 -17.5
q-8 -6 -7 -14q-6 -1 -6 -11q-10 -10 -14 -26q3 4 7 7.5t8 7.5q1 2 2 3.5t2 3.5l22 24q3 3 7.5 6.5t8.5 8.5q9 15 29 33q13 10 22 10q8 0 12.5 -6t4.5 -14q0 -11 -6 -17q-7 -2 -14 -10.5t-11 -10.5q-22 -28 -81 -91l-40 -43q-2 -3 -10 -13.5t-17 -17.5t-18 -7q-10 0 -16 5
q-3 10 -5 12zM108 324q-2 1 -4.5 3t-5.5 0q-1 1 -4.5 5t-9.5 5q-15 17 -22 37q-2 16 -2 21q0 11 2 23t3 17q2 4 4 6q7 25 26.5 48t42.5 36q3 2 21 6q8 2 14 2q10 0 19.5 -4t14.5 -12q-1 -2 0 -3t1 -3q1 -1 2 -1t1 -2q-2 -6 1 -9l-6 -13q13 -11 19.5 -20.5t3.5 -24.5
q0 -1 1 -1.5t1 -1.5q-1 -5 -5 -20.5t-12 -25.5q0 -2 1 -2.5t0 -2.5l-6 -4q1 -9 -8.5 -16.5t-9.5 -14.5q-4 -2 -8.5 -6t-8.5 -5q-1 -1 -1 -2.5t-1 -2.5q-14 -6 -16 -11l-7 1q-2 -3 -7 -3h-4.5t-4.5 -3q-11 4 -25 4zM141 362q1 2 3 4q2 1 3 0t3 0q13 12 21 22.5t11 24.5
q5 6 8.5 14t2.5 15q-2 9 -10.5 12t-22.5 4q-2 -1 -2 -4t-1 -3q-8 -2 -17 -2q-13 0 -21 5q-8 -11 -13.5 -26.5t-5.5 -30.5q0 -17 6 -28q14 -12 33 -11zM354 52q0 4 -0.5 16t0.5 20q2 3 2.5 13.5t5.5 13.5q0 2 -1 3t0 2q1 2 8 20q9 24 13 30q3 4 5.5 10t6.5 12q1 1 4 3t4 5
q9 16 22.5 29t27.5 13q10 0 15.5 -7t6.5 -18q0 -10 -7.5 -15.5t-18.5 -6.5q3 -5 5 -19q18 -14 18 -54q0 -3 -2.5 -7t-3.5 -7q0 -2 0.5 -4t-0.5 -4q0 -1 -1 -2l-2 -2v-3q0 -4 -3.5 -7.5t-5.5 -6.5q-1 -2 -2 -5t-3 -5q-1 -2 -3 -4t-3 -4q-1 -1 -1 -3.5t-1 -4.5l-7 -2
q-1 -2 -1.5 -4t-1.5 -4q-3 -3 -10.5 -7t-9.5 -6q-9 0 -12 -5q-12 3 -18 0q-17 11 -26 27zM400.5 71q4.5 6 8.5 7q3 7 9.5 17t9.5 19t3 20q-8 0 -9 -5q-3 0 -7 2.5t-7 3.5q-9 -23 -13.5 -39t-3.5 -32q5 1 9.5 7z" />
    <glyph glyph-name="ampersand" unicode="&#x26;" horiz-adv-x="469" 
d="M71.5 -169q-23.5 30 -28.5 73q-3 25 -3 48q0 40 10 93q3 13 6.5 24.5t6.5 20.5q1 4 2.5 13t4.5 16q1 4 3 8t4 9q1 5 4.5 12t5.5 12q3 7 5.5 15.5t5.5 17.5l25 50q8 13 18 38l2.5 2.5l2.5 2.5v2t1 3q4 4 9.5 15t10.5 15q4 11 16 29q9 14 11 18l2 6q1 2 3.5 5.5t3 7
t-2.5 6.5q0 2 1 2.5t1 1.5q-3 12 -3 27q-2 3 -2 12q0 8 1 11q-3 12 -3 28q0 10 1 13q0 1 -2 5q1 4 1 11v18q0 15 3 23q-1 4 -1 12q0 11 2 26.5t3 22.5l3 21l4 27q1 5 4 11.5t4 11.5t1 13t6 13q-1 1 -1 4q0 5 3.5 13t4.5 12q2 5 3 11t3 11t7 13.5t6 16.5q4 2 6 7.5t4 8.5
q0 1 1.5 1t1.5 1q1 2 1.5 5t1.5 5t3 3.5t4 3.5q12 16 28 31q3 3 8.5 9t9.5 9q5 3 14.5 7.5t14.5 9.5q2 1 3 0.5t2 -1.5q12 7 23 4h5q7 0 14 -4q18 -9 27 -36q7 -22 7 -55q0 -35 -9 -62q-5 -25 -23 -72l-13 -35q-52 -106 -138 -245q3 1 9.5 1.5t12.5 1.5q37 -14 60 -50
q2 -1 4 -2.5t4 -1.5q1 -5 11 -22q8 -15 10 -21q4 -3 6 -12t5 -12q0 -2 -1 -3.5t0 -3.5t2 -3.5t1 -3.5q0 -4 6 -41q4 -22 4 -29q-3 -4 -1.5 -12.5t-0.5 -11.5l1 -8q0 -6 -3 -12q-1 -41 -14 -73q1 -2 1 -6q0 -9 -6 -14q-17 -61 -63 -126q-5 -8 -26 -29q-6 -8 -7 -12
q-9 -3 -17 -17q-7 -4 -19 -14q-11 -11 -21 -16q-2 -1 -4 -5q-6 -3 -19 -9t-24 -9t-23 -3q-39 1 -62.5 31zM245.5 454.5q5.5 9.5 10.5 15.5q1 6 5.5 11.5t6.5 8.5q1 2 2 5.5t2 5.5l18 27l5 13q3 5 8 12.5t10 17.5q4 8 7.5 16t7.5 16l4 5q1 1 0.5 3t0.5 3l12 24q17 36 21 48
q0 2 1 6t2 7q10 30 15 52t5 46q0 26 -6 43q-5 7 -8.5 9t-10.5 -1q-9 -3 -22 -12t-18 -16l-5 -3q-30 -35 -44 -67q-3 -13 -9 -27q-1 -4 -5 -16.5t-6 -25.5q-1 -1 -2 -2.5t-2 -3.5q0 -8 -5 -20l2 -8l-4 -12t-1 -16q-4 -8 -5 -20t-1 -15q0 -5 -1.5 -13.5t-2.5 -13.5
q-2 -24 -2 -35q0 -15 2 -41q-2 -8 -2 -10q0 -6 3 -15q-2 -4 -2 -9q0 -6 3 -9q5 7 10.5 16.5zM135 -160q19 0 42 14q16 11 26 20q2 1 9.5 6t10.5 13q2 0 3 1t3 0q2 4 8 11t8 12q2 0 3 1t3 2q2 7 11 14q2 3 6 10t9 10q0 6 4 6q3 7 6.5 13t5.5 10q12 17 15 30l4 5q1 9 6.5 19.5
t6.5 14.5l-1 5q0 4 5 14q4 15 8 43q1 6 2 15t4 20q-2 32 -1 52q-2 4 -3 15t-4 17q0 13 -5 18v2q0 4 -2.5 7t-3.5 6t-1.5 6t-1.5 6q0 1 -1 1.5t-1 1.5q-1 3 -1 7q-2 3 -4 5t-4 5l-4 8t-7 10q-3 4 -7 8t-7 6q-1 1 -2.5 0t-2.5 0t-1 2.5t-1 2.5q-1 2 -7 4t-7 3q-4 -15 -13 -17
q2 -18 12 -49q0 -2 0.5 -6t2.5 -9q1 -3 3 -5.5t3 -5.5q2 -4 7 -13.5t5 -16.5q0 -5 -3 -11q-6 -3 -11 -3q-15 0 -30 25q-2 6 -8 18.5t-5 22.5q-4 9 -6 23q-2 16 -7 27q-9 -9 -16 -23l-10 -20q-11 -15 -10 -13q-2 -5 -3.5 -9.5t-3.5 -9.5q-2 -3 -5 -6.5t-4 -6.5q-2 -3 -7 -16
l-26 -54q-3 -6 -5 -14.5t-4 -13.5t-8 -20.5t-9 -29.5q-1 -5 -3.5 -10.5t-4.5 -11.5q-2 -9 -4 -23.5t-4 -24.5q-1 -6 -3 -14t-3 -19l-1 -31q0 -64 17 -89q9 -14 18 -18q7 -5 20 -5z" />
    <glyph glyph-name="quotesingle" unicode="'" horiz-adv-x="114" 
d="M24 556v3q0 4 2 8q4 4 10 12q7 7 7 14q0 3 2 5q2 5 7 6.5t9 -2.5t5 -6q4 -5 4 -15q0 -9 -6 -15q-8 -8 -13 -11q-5 -5 -17 -5q-7 0 -10 6z" />
    <glyph glyph-name="parenleft" unicode="(" horiz-adv-x="176" 
d="M158 -224q-2 3 -8.5 11.5t-6.5 19.5q-2 5 -7 16t-6 23q-1 1 -2.5 5t-4.5 5q-1 2 1 7q-3 5 -6.5 17t-6.5 17q-3 22 -10 27v4q0 15 -8 19q0 21 -9 30q1 1 1 3t1 3q-1 4 -5 10q-1 1 0 2.5t1 2.5q0 2 -2 4.5t-3 5.5q-1 4 -2 10.5t-1 9.5q0 18 -6 28q0 11 -4 15q2 6 2 9t-2 11
q0 2 -1.5 4t-1.5 3v1q0 2 1 4.5t0 4.5q0 3 -2 9t0 10q0 3 -3 3q1 2 1 9q0 5 -2 8q0 43 -8 71q1 3 1 9q0 9 -4 23q1 2 1.5 5.5t1.5 5.5q-4 12 -4 34q1 10 -0.5 24t-1.5 23t1 13q0 2 -1.5 2.5t-1.5 1.5q3 3 1.5 11t0.5 11q0 6 -0.5 13.5t0.5 17.5q0 6 -0.5 13.5t0.5 17.5
q0 1 1 2.5t1 2.5q1 5 0.5 17.5t0.5 21.5q2 4 2 6l1 6v8q0 6 2 8v13q0 12 2 16q7 20 9 38q4 28 12 42q0 2 2 12.5t8 16.5q9 29 21 53t34 62q3 6 11.5 12t16.5 6q12 0 15 -17q-2 -3 -5.5 -13.5t-10.5 -12.5q-2 -10 -10 -20q-8 -12 -10 -22q-8 -10 -14 -26q-8 -16 -10 -19
q0 -1 0.5 -2.5t-0.5 -3.5q-2 -1 -3.5 -8t-4.5 -9q0 -2 -1 -9t-6 -10q-2 -12 -6 -28t-8 -24v-10q0 -8 -3 -11q0 -9 -1 -15t-2 -10q-3 -12 -3 -22q0 -7 1 -10q0 -1 -1 -3t-3 -2q1 -7 1 -19q0 -10 -2 -15q0 -27 -1 -40q0 -39 -1 -57l3 -31q3 -33 2 -59q3 -15 5 -47
q1 -5 2.5 -23.5t5.5 -31.5q-2 -4 -2 -6q0 -4 2 -9t0 -9q-1 -2 0.5 -2.5t1.5 -1.5q0 -7 3 -21.5t1 -19.5q4 -13 2 -20l4 -7q-1 -3 -1 -8q0 -11 4.5 -21.5t5.5 -14.5q-1 -5 1.5 -16t6.5 -17v-3q0 -6 4 -14.5t3 -14.5q1 -2 3 -4t3 -4q1 -9 7 -25q1 -3 3 -9.5t3 -12.5
q5 -8 7 -19.5t3 -13.5q5 -2 6 -5t0.5 -8t0.5 -9q1 -3 3.5 -5.5t3.5 -4.5q2 -3 2.5 -5.5t0.5 -3.5q8 -16 8 -26q0 -14 -15 -21q-10 2 -12 1z" />
    <glyph glyph-name="parenright" unicode=")" horiz-adv-x="176" 
d="M-49 -231q1 5 4.5 10.5t4.5 9.5q1 1 3.5 1t3.5 1q4 5 14 17t15 26q3 2 4.5 4t3.5 3v3q0 2 2 3.5t3 3.5q0 1 -0.5 2t0.5 2q0 1 1.5 1.5t1.5 1.5q3 4 5.5 14t6.5 12q8 22 13 33q2 7 8 22.5t9 28.5l2 2l2 2q0 14 7 20v3q0 5 3 12t4 10q1 4 1.5 8t1.5 8q2 5 5.5 12.5
t4.5 13.5q0 2 0.5 9t4.5 12q0 1 -1 2t-1 2q1 2 2.5 6t3.5 6q-1 2 -1 7q0 8 5 13q-1 8 2 20t2 17q4 15 5.5 35.5t2.5 26.5q2 30 4 43q-1 3 -1 11l1 27q0 10 -1 14l1 8q0 7 -1.5 14.5t-1.5 14.5q0 9 -0.5 25t-2.5 27q-1 7 -4.5 19.5t-4.5 23.5q1 2 -0.5 2.5t-2.5 1.5
q1 8 -1 16t-3 10q-5 10 -5 22l-1.5 1.5t-1.5 0.5v2q0 5 -2.5 9t-3.5 6q-1 1 0 2.5t1 2.5q-1 3 -3.5 7t-3.5 7v4q0 9 -7 14l1 3q0 3 -4 9t-3 11q-2 -1 -3 2t-2 4q-6 20 -23 53q-10 19 -17 35q-10 14 -29 43q0 1 -3 1q-6 13 -24 33q-12 14 -18.5 24.5t-9.5 23.5q1 5 2.5 9
t2.5 8q11 8 22 8q9 0 16 -4q4 -5 4 -11q0 -7 -4 -14q1 -2 3 -5.5t3 -6.5q11 -9 20 -23q15 -18 20 -22q3 -13 11 -17q5 -13 16 -28q13 -21 16 -31l3 -3q1 -8 7.5 -19t7.5 -18q2 -4 6.5 -12t5.5 -16q1 -1 2.5 -3.5t2.5 -4.5q1 -12 8 -24q6 -14 7 -22q3 -3 5.5 -15t6.5 -15v-3
q0 -4 2 -9t1 -8q5 -10 9 -38q1 -4 2.5 -13t3.5 -14q-1 -8 1.5 -19t3.5 -18q1 -8 1 -20t3 -19l-1 -26q0 -14 3 -26q-3 -6 -3 -18v-15q0 -13 -3 -19q1 -26 -4 -56q-4 -32 -4 -49l-4 -4l1 -4q0 -3 -2.5 -11t-0.5 -12q-3 -4 -5.5 -17t-6.5 -19q2 -4 1 -7q-5 -6 -7 -22t-7 -22
q-1 -8 -4 -17t-4 -13q-8 -18 -9 -29q-1 -3 -4 -6q-5 -18 -12 -35q-8 -20 -11 -32q-8 -10 -14 -34q-12 -13 -22 -37q0 -2 -3 -3.5t-4 -3.5v-1q0 -6 -6.5 -13.5t-7.5 -11.5q-9 -5 -19 -17q-8 -3 -19 -9q-13 1 -18 16z" />
    <glyph glyph-name="asterisk" unicode="*" horiz-adv-x="127" 
d="M52 535q0 7 3 11v1q0 2 1 4.5t0 4.5l1 2q-1 0 -4 -5q-5 -4 -10 -12l-5 -4h-2.5t-2.5 1h-1q-1 1 -1 4t4 9q4 0 4 4q5 5 8.5 9t6.5 7h-3q-5 0 -9 1t-9 1q-3 -1 -7 -1q-7 0 -10 -1l-4 -2t-5 0t-3 5t3 5.5t4 2.5q12 2 17 2t8 -1q1 3 4 0q2 2 3 0h3l11 -1l-7 30q0 1 -1 1t-1 1
q-2 3 0 8q2 3 5.5 2.5t5.5 -3.5q0 -3 1.5 -4.5t0.5 -3.5q1 -2 1 -4.5t1 -3.5q0 -1 0.5 -1h0.5v-3t2 -3l3 23v0.5t-1 0.5q1 1 3 1q1 4 4 4q2 0 4 -2.5t2 -5.5l-1 -4q0 -12 -3 -20q12 10 16 15l7 1q3 -1 3 -5q0 -3 -2.5 -6t-5.5 -4l-1 -2q-2 0 -3.5 -2.5t-2.5 -2.5l-2 -2
q-2 -1 -4 -4t-4 -4q3 0 6.5 -1.5t5.5 -2.5q3 -2 3 -6t-3 -5h-5q-2 2 -13 5q1 -3 1 -7t1 -6l2 -3v-6q0 -1 -0.5 -1h-0.5q0 -3 -1 -5h-6l-2 1q-2 -9 -7 -12q-5 0 -7 5z" />
    <glyph glyph-name="plus" unicode="+" horiz-adv-x="307" 
d="M139 215q-2 6 -4 10l-1 15q-1 4 -5 4t-9 -3q-4 -4 -10 -1l-7 5q-3 3 -3 7q0 5 4 8q2 3 6 3q7 4 13 5q1 0 2.5 0.5t3.5 2.5q3 1 4 5q0 5 2 17q2 3 4 9q7 7 14 5q9 -2 9 -10q1 -4 0.5 -6.5t-0.5 -3.5l1 -5q3 -1 5 -0.5t4 0.5h5q9 0 14 -1l8 -3q8 -4 8 -14q-2 -11 -10 -12
q-3 -2 -11 -2l-18 -2q-4 0 -5 -1.5t-1 -4.5v-13q0 -4 -2 -12q-3 -7 -10 -8q-8 0 -11 6z" />
    <glyph glyph-name="comma" unicode="," horiz-adv-x="138" 
d="M20 8q-2 8 2 12l11 12q7 7 7 15q0 4 2 6q2 5 7.5 6.5t9.5 -2.5l6 -7q3 -4 3 -16q0 -9 -6 -15q-10 -10 -13 -12q-6 -5 -18 -5q-8 0 -11 6z" />
    <glyph glyph-name="hyphen" unicode="-" horiz-adv-x="358" 
d="M81 180q-6 0 -9 5q-2 4 -2 7q0 5 4 8q14 13 35 16q25 6 54.5 8.5t77.5 6.5l10 1q2 -1 5 -1t7 -2q9 -4 9 -15q-2 -12 -11 -15q-4 -2 -13 -2q-13 0 -17.5 1t-10.5 1q-18 0 -81 -5l-24 -3q-5 -1 -23 -8l-8 -3h-3z" />
    <glyph glyph-name="period" unicode="." horiz-adv-x="111" 
d="M38 -34q-13 0 -18 13l-3 11q-1 2 -1 5q0 8 7 11q6 2 9 2h3q10 0 22 -10q9 -4 5 -17q-3 -12 -13 -13l-9 -2h-2z" />
    <glyph glyph-name="slash" unicode="/" horiz-adv-x="257" 
d="M8 -120q-2 0 -5 2.5t-5 0.5q-2 1 -4.5 5.5t-4.5 5.5q-1 4 -1 12q0 16 6 27q0 1 -0.5 2.5t0.5 2.5q4 6 8 21q0 1 0.5 3.5t-1.5 4.5q6 10 11 28q6 22 13 32v2q0 3 3.5 10.5t1.5 11.5q8 8 5 13q1 2 3 3.5t3 3.5q0 1 -1 2t0 2q4 6 7 17t6 20q4 3 5 9t4 10q1 1 0.5 2t-1.5 1
q4 2 3.5 5.5t2.5 4.5q1 2 0 3.5t-1 2.5q4 5 6.5 15t8.5 15q1 2 -0.5 3.5t-1.5 3.5q1 1 4.5 5t0.5 6q1 3 4.5 7t0.5 8q0 1 1.5 2.5t2.5 0.5q-1 4 4.5 15t3.5 16q13 31 20 54q5 13 9.5 23.5t9.5 17.5q1 1 0 1.5t-1 1.5q4 6 7.5 17t10.5 17q-1 3 -1 7q1 2 2.5 3.5t2.5 3.5
q0 4 6 12.5t5 13.5l2 2t2 1l-1 3q0 4 3 7l5 5v3q0 3 4.5 10.5t3.5 10.5q14 14 13 25q7 10 15 28t15 26q1 2 0 4t-1 3q1 1 6.5 5t2.5 8q6 5 4 9q2 1 2.5 2t2.5 2q2 2 1 2.5t-1 1.5q10 12 19 36q10 10 21 10q6 0 8 -2q7 -3 7 -13l-1 -15q-7 -7 -11 -19q-8 -15 -13 -19
q-4 -10 -14 -28q-1 -2 -8 -15t-9 -26q-1 -1 -3 -2t-3 -3q-2 -5 -9.5 -19t-8.5 -24q0 -3 -3 -3q-3 -7 -18 -37q-21 -42 -31 -70q-12 -24 -27.5 -64.5t-16.5 -55.5q-7 -10 -11 -24t-6 -20q-3 -8 -6.5 -14.5t-5.5 -11.5q-1 -3 -2 -10.5t-5 -13.5l-5 -20q-1 -1 -1.5 -1h-0.5
q-8 -20 -11 -32l-10 -29q0 -2 -1 -3l-2 -2q-2 -7 -4 -16t-5 -14q-1 -4 -4 -9.5t-4 -10.5q-2 -2 0 -7q-3 -4 -13 -31q9 -6 9 -18q0 -13 -10.5 -26t-22.5 -15h-1z" />
    <glyph glyph-name="zero" unicode="0" horiz-adv-x="402" 
d="M137 -145.5q-9 3.5 -12 4.5q-16 8 -34 28q-17 21 -26 36q-45 80 -45 210q0 43 7 101q6 50 18.5 102t28.5 92q1 1 2.5 3.5t2.5 5.5q1 2 4 10q2 5 6 11t4 8t-3 8.5t-5 10.5q-25 52 -25 106q0 27 6 52.5t17 42.5q6 12 11 17q1 2 3 2.5t3 1.5q2 1 3.5 4.5t2.5 4.5
q14 12 39 19q1 -1 1.5 0.5t1.5 1.5h2l8 1q2 0 5 -0.5t5 1.5q3 -2 9.5 -1.5t9.5 -0.5q23 -4 61 -28l20 -22l19 -20q4 -9 14 -25q13 -20 17 -33q2 -1 3.5 -5t4.5 -6v-2q0 -6 2.5 -9t3.5 -4q0 -8 6 -20q1 -2 3 -7.5t2 -12.5q6 -5 8 -19q2 -13 7 -19q0 -3 0.5 -11t4.5 -11
q0 -10 4 -26q5 -16 3 -24q1 -2 2.5 -3.5t1.5 -2.5q-1 -2 -1 -6q0 -5 1.5 -13.5t0.5 -15.5q4 -6 4 -19t2 -19q-2 -12 -2 -19q0 -4 3 -34q-1 -3 -1 -9l1 -12q0 -5 -3 -13q1 -10 -1 -31l-1 -27l-4 -10q-1 -5 -0.5 -11t-0.5 -11l-4 -14q-1 -4 -0.5 -7t0.5 -5q-1 -2 -2.5 -4.5
t-1.5 -4.5l1 -7q-1 -3 -3 -8.5t0 -10.5q-8 -18 -13 -41q-9 -34 -18 -50v-7q-8 -12 -17 -31q-12 -26 -21 -36q-3 -7 -8.5 -15t-8.5 -12q-13 -19 -15 -22q-12 -7 -17 -17q-9 -3 -15.5 -9.5l-8.5 -8.5q-5 -2 -18 -7.5t-25.5 -8t-25.5 -1.5q-5 1 -14 4.5zM186 -107.5
q11 5.5 16 6.5q1 4 8.5 8t8.5 9q8 3 16.5 14t13.5 14q2 7 9.5 17t9.5 17q5 5 8.5 12.5t4.5 9.5q6 16 11 21q1 9 9 21q0 2 -0.5 3.5t0.5 3.5q20 42 25 87q5 12 7 37q2 22 6 34q0 19 4 39q-1 6 -0.5 15.5t0.5 14.5q0 7 -1 10q2 6 2 18l-1 24q0 8 1 12q0 2 -1 2.5t-1 2.5
q1 9 -1 23t-2 21t1 11q-4 5 -4.5 18.5t-3.5 17.5v3q0 3 -2 8t0 9l-2 2t-1 3q0 19 -6 27q-1 9 -7 29q-4 12 -5 19q-2 -1 -2.5 0.5t-0.5 2.5q-3 12 -7 20t-7 22l-6 6q-2 8 -12 24q-8 14 -11 22q-1 1 -2 0t-2 0q-1 4 -5 9.5t-5 9.5q-4 1 -8 7t-7 6q-30 34 -65 34q-8 0 -13 -1
q-13 -4 -22 -11q-17 -13 -25.5 -39t-8.5 -57q0 -21 5 -43q1 -4 4.5 -17t8.5 -22q27 42 51.5 67.5t58.5 31.5q3 -2 6.5 -2.5t6.5 -0.5q3 -6 9 -6q1 -1 5.5 -8t2.5 -15q0 -3 -2 -4t-3 -3t-0.5 -3t-0.5 -2q-4 -4 -9 -4t-17 7q-28 -14 -44.5 -35t-43.5 -66q8 -14 11 -22
q9 -17 19.5 -34.5t21.5 -30.5q-1 -2 0 -4q4 -5 10.5 -12.5t9.5 -14t2 -15.5q-7 -10 -18 -11q-2 1 -5 3t-8 1q-13 12 -23 27t-24 39l-18 29q-28 -63 -39 -129q-7 -25 -10 -50.5t-6 -63.5l-2 -23l2 -8q0 -2 -1 -3.5t-1 -2.5q3 -98 27 -171q4 -4 7 -12t4 -14q12 -12 15 -22
q4 -2 9.5 -9t8.5 -9l2.5 -2.5l2.5 -2.5q5 -4 10.5 -5t7.5 -2q3 -1 7 -3.5t7 -2.5q8 1 19 6.5z" />
    <glyph glyph-name="one" unicode="1" horiz-adv-x="232" 
d="M115.5 -180q-4.5 8 -4.5 21q0 9 1 18.5t1 17.5q0 11 -2 15q2 15 2 55q0 34 -1 49q4 6 2.5 17t0.5 16q-2 67 4 130v3q0 5 -1.5 13.5t0.5 14.5l2 2t1 3v4l-1 15q0 7 2 22t1 24q-1 2 0.5 3l1.5 1q-1 21 5 66l3 25q0 1 -1.5 1.5t-0.5 2.5q2 7 3.5 19.5t2.5 18.5l3 22
q0 4 -3 4q5 9 6 24t2 23l12 79q0 1 1 2t1 3l1 4q0 2 -0.5 6.5t2.5 7.5q-2 2 -2 6q0 3 3.5 11t2.5 13q0 1 -1 2.5t0 2.5q1 6 3.5 14t2.5 13q0 4 -3 4q1 2 3 5t0 8q4 6 5 18.5t3 19.5q-3 -3 -6.5 -11.5t-6.5 -11.5l-5 -3l-2 -7l-2.5 -2.5t-2.5 -4.5l-20 -26q-1 -3 -3.5 -7.5
t-5.5 -7.5q-1 -1 -3 -2l-4 -2q-1 -1 -1 -3t-1 -3q-2 -3 -7 -7.5t-8 -7.5t-4 -5.5t-2 -4.5l-6 -3l-12 -11q-1 -1 -1.5 -3t-1.5 -3q-3 -3 -6 -4.5t-6 -3.5q-2 -2 -5.5 -6.5t-8.5 -8.5q-1 0 -4.5 -1t-2.5 -4q-7 -5 -17 -5t-16.5 5t-7.5 15q3 7 11 13l12 9q33 24 73 75l27 37
q10 14 14 21q1 1 1 3.5t1 3.5q1 2 3.5 4t3.5 3l9 17q3 5 5.5 9t4.5 7q1 1 0.5 2.5t0.5 2.5q2 3 5.5 8t5.5 11q1 2 2.5 6.5t5.5 7.5q2 6 4 10.5t4 10.5q6 2 7 7q4 3 10 3q7 0 17 -6q0 -3 1.5 -4.5l2.5 -2.5v-4q0 -3 -0.5 -8t1.5 -8q-6 -31 -8 -51q-1 -8 -4 -19.5t-3 -20.5
q0 -5 -4 -15.5t-2 -15.5q-1 -4 -2 -10.5t-3 -10.5q-1 -2 0.5 -2.5t1.5 -1.5q-1 -4 -2 -9t-2 -12q-1 -9 -5 -29q0 -1 -3 -20q0 -15 -4 -26q-3 -31 -7 -39q1 -15 -3 -39q-4 -22 -4 -34l-3 -6q-4 -53 -9 -86q1 -2 1 -7q0 -6 -3 -9q1 -3 1 -10t-3 -13q0 -1 1 -2t1 -3
q-3 -10 -3 -32q0 -18 -3 -33q-1 -2 -1 -5l1 -11q0 -5 -1.5 -13t-0.5 -13v-6q0 -11 -3 -15q1 -4 1 -12l-1 -25q0 -7 1 -11l-3 -7q1 -5 1 -15q0 -12 -2 -28l3 -3q-3 -9 -3 -18q0 -5 2 -13q-2 -22 -2 -68q-1 -11 -1 -34q-1 -3 -1 -9q0 -5 1 -10.5t1 -11.5q0 -7 -2 -11
q2 -11 0 -16v-2q0 -4 1.5 -10l2.5 -10q2 -13 -3.5 -22.5t-16.5 -12.5q-12 2 -16.5 10z" />
    <glyph glyph-name="two" unicode="2" horiz-adv-x="510" 
d="M473.5 -136.5q-13.5 2.5 -22.5 7.5h-2q-4 0 -10.5 3.5t-10.5 4.5l-4 -1l-5 4q-3 2 -7.5 3.5l-7.5 2.5q1 0 -30 11q-3 2 -9.5 5.5t-11.5 3.5l-19 14l-38 28q-2 4 -2 7q-6 3 -15.5 12t-13.5 11q-4 5 -14 13t-14 13q-1 1 -2.5 0t-1.5 0q-18 18 -60 39q-3 2 -3 -2
q-1 1 -3.5 2t-2.5 3q-15 -15 -33 -30q-1 -1 -0.5 -2t-0.5 -2q-6 -6 -20 -13q-9 -10 -12 -11q-24 -14 -41 -17q-8 -2 -13 -2q-13 -1 -27.5 6.5t-16.5 19.5v4q0 5 2.5 12.5t3.5 12.5q24 34 54 50l7 6h8q5 1 13.5 4t14.5 4h3q3 0 8 -1t8 0q2 1 4.5 2t6.5 1q2 0 6 -2t6 -1t12 11
q5 6 15.5 21.5t19.5 24.5q17 32 27 43q3 10 13 26q10 18 14 29q2 4 6 10.5t5 14.5q7 7 10.5 18t4.5 14q37 85 49 154q1 5 2.5 9t2.5 8q3 14 4.5 32.5t2.5 25.5q5 38 5 50q0 7 -2 21q2 19 -2.5 42t-12.5 44q-1 2 -2 2.5t-2 0.5q-1 1 -1 2.5t-1 2.5q-8 10 -28 9
q-7 -2 -19.5 -6.5t-21.5 -9t-16 -11.5q-9 -3 -15.5 -8t-14.5 -14q-3 -1 -6 -3t-6 -3q-1 -1 -1.5 -2.5t-0.5 -2.5q-4 -2 -6 -2q-2 -8 -13 -14q-6 -9 -14 -17q-13 -13 -18 -25q-2 0 -3.5 -2t-3.5 -3v-2q0 -3 -3 -5.5t-4 -3.5q-1 -2 0.5 -3t0.5 -1q-14 -18 -15 -29
q-1 0 -2 -1.5t-3 -0.5q-1 -9 -9 -17t-17 -8q-16 0 -16 17q0 9 4 17q2 5 9 14.5t11 17.5q1 2 3.5 8.5t7.5 9.5q2 6 5.5 11.5t5.5 7.5q9 11 11 18q11 4 18 20q12 8 32 26q2 2 16.5 14.5t30.5 20.5l5 5q2 1 13 4t15 12h3q8 0 14 4l47 3q25 -7 42 -33q23 -50 23 -128
q0 -51 -9.5 -98.5t-27.5 -109.5l-6 -24q-1 -1 -2 -3t-2 -3q-1 -17 -17 -44v-7q-32 -69 -60.5 -119.5t-64.5 -93.5q33 -15 50 -27q1 -1 2 -1h3q3 -3 8.5 -7t6.5 -9q4 -1 9.5 -5.5t9.5 -5.5q1 -2 2.5 -4t2.5 -4q9 -5 33 -27q21 -21 39 -30q2 -4 5.5 -7.5t8.5 -2.5
q3 -2 7.5 -7.5t7.5 -7.5q2 0 4 1t4 0q4 -4 11.5 -6t11.5 -3l6 -6q2 -1 4 -0.5t4 -0.5q3 -1 8 -3t11 -3q3 -1 9.5 -4t11.5 -1q12 -9 36 -12l7 -8q-1 -6 -0.5 -9t0.5 -5l-5 -2.5t-3 -5.5q-1 0 -5 -1t-5 -3q-5 1 -18.5 3.5zM51 13.5q4 1.5 7 1.5l3 3q10 2 20 9.5t17 11.5
q1 4 9 8q0 1 3 3.5t1 3.5q-6 -2 -16.5 -4t-13.5 -7q0 1 -2 0t-4 0q0 -3 -1 -3q-10 -3 -17.5 -11.5t-12.5 -12.5q2 -1 1 -2t-1 -2q3 0 7 1.5z" />
    <glyph glyph-name="three" unicode="3" horiz-adv-x="434" 
d="M403 226l1 -19q0 -16 -3 -31q0 -6 -1.5 -17t-0.5 -17q-3 -6 -5 -21q0 -2 -1 -8.5t-4 -11.5q-5 -32 -18 -59v-2q0 -11 -11 -26v-5q-6 -12 -10 -18q-15 -26 -22 -45q-11 -10 -19.5 -23t-11.5 -17q-7 -5 -17 -17q-1 -1 -9 -9.5t-18 -12.5l-6 -7q-8 -2 -20 -10
q-16 -11 -30 -12q-3 -3 -10 -4.5t-11 -3.5q-8 1 -25 2t-26 7h-7q-6 6 -18 13q-17 10 -23 21q-1 2 -2 2t-2 1q-12 22 -17.5 35.5t-5.5 29.5q0 6 2 18q2 8 4 22.5t8 24.5q2 6 8 13.5t8 10.5q2 2 7.5 10t10.5 13q4 4 24 19q18 12 26 21q-2 8 -2 11q0 17 20 17q11 0 20.5 -6
t10.5 -17v-3q0 -7 -4 -12t-5 -7q-7 -8 -33 -29q-27 -22 -43 -40.5t-21 -46.5q-1 -4 -1 -12q0 -25 12.5 -45.5t32.5 -25.5q8 -8 26 -8q7 0 15 2q5 1 11 1.5t11 2.5t7 6q3 -1 4 -0.5t3 0.5q6 5 16.5 11.5t14.5 14.5q5 2 10.5 8t9.5 8q4 8 14 18q1 2 8.5 11t10.5 19q6 2 7.5 8
t2.5 8q3 5 7 10.5t8 12.5q1 2 0.5 5t0.5 5l4 2q1 2 0.5 4t0.5 4t3 4.5t3 4.5l-1 3q1 2 4 6t2 10q2 0 1.5 1t1.5 1l7 29q1 4 3.5 9t3.5 9l-1 10q0 6 4 10l3 24q5 23 5 45q0 13 -1 20v3q0 4 1 8.5t1 8.5q0 5 -1.5 12t-2.5 12q0 2 0.5 6t-0.5 7q0 2 -1 3t-1 3q-1 5 -1 14t-6 15
q-2 29 -30 67q-17 15 -30 22t-32 7q-9 0 -20 -3t-15 -4q-19 -7 -33 -7q-18 0 -28 18q-1 11 2.5 19t11.5 20q12 14 14 25q25 25 42 69q2 1 4 3t4 3q2 9 10 23q9 14 10 23q5 7 6 8q1 3 8 22q9 24 13 39t4 32q0 6 -2 20q-3 5 -7 14t-11 14q-20 15 -61 15q-13 0 -29 -2
q-7 -2 -26.5 -7.5t-30.5 -13.5q-8 0 -16.5 -6t-13.5 -9l-10 -5t-10 -6q-15 -11 -29 -40q-2 -1 -4 -4t-4 -4l-6 -1q-6 0 -11 3.5t-9 5.5l-5 7q0 2 1 4.5t0 5.5q6 8 13.5 20.5t15.5 21.5t19 15q2 4 9 7.5t9 6.5q9 4 35.5 16.5t51.5 18.5t49 5q47 4 88 -25q17 -17 28 -46
q0 -4 0.5 -11.5t2.5 -10.5q-2 -12 -2 -18q0 -5 2 -13q-3 -5 -4 -13t-2 -12q-1 -3 -2.5 -5t-2.5 -5q-2 -5 -4 -13t-4 -13q-2 -6 -6.5 -14t-4.5 -15q-2 -3 -7.5 -11.5t-7.5 -20.5q-6 -6 -14 -22q-3 -7 -6 -13t-8 -9v-2q0 -3 -1.5 -5t-1.5 -5q-6 -5 -17 -23q-10 -16 -16 -22
q1 -1 1 -3t-2 -4t-3 -5q22 6 47 6q26 0 45 -9q12 -5 25 -16q3 -2 6.5 -7t8.5 -6q2 -8 8.5 -15.5t8.5 -10.5q4 -13 10 -17q2 -9 8 -25q8 -24 9 -39q0 -1 1 -3t2 -3q-2 -8 1.5 -22t3.5 -18q-2 -6 -2 -7q0 -6 3 -9q-1 -4 -1 -10zM332 42z" />
    <glyph glyph-name="four" unicode="4" horiz-adv-x="359" 
d="M302.5 -109q-3.5 1 -5.5 1q-7 3 -9.5 14.5t-4.5 16.5q2 6 2 9q0 6 -1.5 14t-2.5 12q2 6 2 13l-1 22q-2 18 -2 26v4v11q0 8 -3 11q2 16 2 26q0 20 -1 30l-1 32q0 15 1 22q0 2 -2 4t-1 4q3 11 3 22l-1 31q0 10 1 15q1 3 1 10t-1 14t-1 14q0 3 1 4.5t2 3.5v5l-1 22v3
q0 5 1 10t1 10q0 3 -1 6t-1 6t1 4.5t1 3.5v3q0 3 -1 7.5t0 6.5q0 4 1.5 10t-1.5 10q3 18 3 21q0 13 -3 17l3 4q1 6 0.5 13.5t0.5 14.5q0 2 -3 2q3 9 3 20t-2 17q4 5 3 20.5t0 20.5q-8 -12 -10 -24q-2 -2 -12 -23q-10 -19 -13 -24q0 -1 -2.5 -9t-8.5 -11q-14 -34 -39 -65
q-8 -19 -23 -34q-13 -24 -32 -41q-8 -14 -23 -26q-22 -21 -45 -22q-2 1 -2 -0.5v-1.5q-7 0 -7 3h-3q-5 0 -10.5 3t-8.5 4q-1 10 -10 12q-1 6 -4 10.5t-4 7.5v8.5t-4 6.5v2.5t1 2.5q-3 2 -3 7q0 3 1 9t-3 8q2 3 2 9q0 5 -1 10t-1 9q0 6 1.5 11.5t1.5 11.5q-2 11 0 17q0 1 1 2
t1 2q1 2 0 4.5t-1 4.5t2.5 10t0.5 16q1 0 1.5 2t2.5 1q2 20 6 36q1 5 3 15.5t2 19.5q5 11 8.5 24t4.5 18q7 30 17 50q1 2 0.5 3.5t0.5 3.5q2 2 3.5 9t3.5 11l2 2l2 2q2 3 3 6.5t2 6.5t9 19t15 22q6 6 13 6t11.5 -5.5t4.5 -14.5q0 -3 -2 -11q-15 -22 -24.5 -46.5t-24.5 -70.5
q-6 -22 -10 -33q-1 -21 -14 -51q2 -13 -1.5 -29t-4.5 -20q2 -16 -4 -53q1 -2 1 -7v-10q0 -7 2 -11q-2 -13 1 -25.5t10 -20.5q13 3 21 10t20 20q7 10 15 17l51 73q1 1 0 2t0 3q24 30 34 59q13 18 28 57l4 5q0 1 -0.5 2t0.5 3q3 7 6.5 14t6.5 15q1 2 0.5 4t0.5 4l5 5q2 5 4 13
t4 13q2 6 5.5 13.5t3.5 13.5q6 10 8.5 28t1.5 30q5 15 5 33q4 11 10.5 19t15.5 8q5 0 12 -5q6 -7 6 -24q0 -13 -5 -36q0 -2 -3 -22q-2 -8 -4.5 -17.5t-5.5 -21.5q1 -9 1 -27q0 -14 -2 -44l-1 -42q0 -2 1 -3l2 -2q-1 -5 -1 -14l1 -30q0 -4 -1.5 -7.5t-1.5 -6.5t1 -9.5
t-2 -10.5q1 -5 1 -14q0 -7 -1 -14.5t-1 -14.5q0 -8 3 -19q-3 -6 -3 -17q0 -5 1 -14t0 -14q0 -3 -1.5 -7t-2.5 -7q0 -2 1 -3.5t1 -4.5v-5q0 -6 -1 -12.5t-1 -15.5v-2q0 -3 1 -8t-2 -8q0 -2 1 -3.5t1 -2.5q-2 -12 -2 -22l1 -35q0 -15 -2 -21q2 -3 1 -11.5t1 -12.5q-1 -3 -1 -9
q0 -5 1 -11.5t0 -10.5q0 -5 -1 -12.5t0 -12.5q0 -2 1 -5t1 -5t-1 -6t0 -7l2 -4q2 -7 0 -15.5t-2 -13.5t3 -10q-2 -4 -2 -6q2 -22 2 -31q0 -19 2 -28q4 -4 6.5 -15t2.5 -22q0 -19 -6 -26q-2 -2 -6.5 -3.5t-5.5 -3.5q-4 0 -7.5 1z" />
    <glyph glyph-name="five" unicode="5" horiz-adv-x="443" 
d="M73 -129q-26 11 -39.5 33.5t-13.5 51.5q0 15 5 33q14 47 41 76q1 1 2.5 2t3.5 3q1 1 1.5 3.5t1.5 3.5q3 0 4 1q2 2 3.5 5.5t3.5 5.5q3 3 6.5 5t6.5 5q2 3 5 8t6 8q5 0 13 11q5 1 10 6q4 0 9 -1t13 -1q0 -2 2.5 -5t2.5 -5v-2q0 -2 -1 -5t0 -5q-3 -4 -6.5 -7.5t-4.5 -6.5
q-3 -1 -8.5 -7t-9.5 -8q-3 -7 -11 -14.5t-12 -11.5q-5 -9 -16 -18q-3 -6 -17 -25q-3 -12 -11 -28q-1 -8 -2.5 -17t-1.5 -15q0 -8 5 -18q7 -15 24.5 -23.5t38.5 -8.5q25 0 45 11q22 6 32 14q7 1 14.5 7t13.5 9q3 3 3 4q17 10 26 23q41 37 57 72q1 0 1.5 1.5t2.5 0.5
q4 7 12 23t13.5 30t8.5 29q2 4 4 5q6 28 9 56l3 22q-2 6 -2 10l1 14q0 6 -2 10q1 2 1 5q0 4 -2 12t-1 12q-1 2 -3 7t0 10l-9 30q-3 5 -10.5 20.5t-17.5 22.5q0 2 -1 3.5t-1 3.5q-5 4 -10 8.5t-11 8.5q-1 0 -2 -1t-2 1q-16 9 -33 9q-12 0 -26.5 -3.5t-20.5 -4.5q-2 -3 -10 -5
t-9 -6h-3q-5 0 -9.5 -3.5t-6.5 -4.5q-4 -2 -9.5 -4t-4.5 -5q-10 -4 -22 -14q-15 -11 -21 -13q-6 -9 -18 -15l-16 -8q-3 3 -7 2t-5 -1q-2 0 -6 4t-7 5q-7 11 -7 24v13q0 9 -1 14q3 12 3 24q0 10 -2 24l2 4q0 2 -1 3.5t-2 2.5q0 2 1.5 4.5t1.5 5.5q1 6 1 19q0 14 -2 38
q3 12 3 18q0 7 -3 10q0 2 1.5 3.5t1.5 2.5q2 32 2 48l1 24q0 12 3 22q0 3 1.5 10.5t0.5 14.5q-1 12 2.5 27.5t8.5 26.5q13 11 25 10q11 0 34 -7q5 -1 11.5 -3t14.5 -3l51 -9q28 -6 46 -8q5 -1 10 -0.5t10 -0.5q38 -6 58 -8l43 -4q33 0 37 -13q1 -2 1 -5t-1 -5.5t-2 -5.5
q-4 -1 -6.5 -5t-3.5 -6q-4 -1 -11 -1q-8 0 -15.5 1t-14.5 1t-10 -1q-7 3 -21.5 3.5t-20.5 1.5q-4 1 -9.5 2.5t-11.5 1.5q-1 0 -9 2l-5 -1q-1 0 -4 3q-5 1 -14 1t-15 1l-21 4q-5 1 -11 2.5t-11 2.5q-2 0 -2 -2q-7 2 -14.5 4t-16.5 4l-24 4q-26 4 -39 7q-2 -14 -3.5 -32.5
t-2.5 -28.5q-1 -20 -5 -60q0 -1 1 -2.5t0 -3.5q-1 -3 0 -9t-1 -10q1 -4 1 -13q0 -10 -1 -19t-1 -17v-3l1 -12q0 -7 -3 -13q2 -3 2 -13l-1 -16q0 -5 2 -9q-2 -2 -2 -5q0 -2 0.5 -5.5t-1.5 -5.5q2 -6 1 -17.5t0 -16.5l32 21q39 28 69 38l4 4h2q4 0 14 5q7 0 21 2.5t23 3.5h4
q6 0 11 -1l10 -2q15 -2 28 -9.5t18 -10.5q3 -3 9 -9.5t13 -10.5l3 -7q10 -7 17 -30q6 -2 9.5 -8.5t2.5 -12.5q3 -3 4 -10.5t5 -10.5v-4q0 -7 4 -11q1 -6 2 -16.5t4 -15.5q2 -28 2 -43q0 -59 -14 -107q-1 -3 -2.5 -5.5t-2.5 -5.5l-8 -20l-9 -25q-4 -8 -8.5 -15.5t-8.5 -16.5
q-6 -12 -20 -30q-2 -2 -3 -5t-2 -5q-1 -1 -2.5 -1t-2.5 -1t-0.5 -2.5t-0.5 -2.5l-7 -6q-4 -4 -6.5 -8.5t-6.5 -8.5q-2 -2 -5.5 -4.5t-5.5 -4.5t-4 -5.5t-4 -5.5q-33 -31 -90 -59q-7 -2 -28.5 -8.5t-41.5 -6.5q-19 0 -52 11z" />
    <glyph glyph-name="six" unicode="6" horiz-adv-x="492" 
d="M68 -48q-5 7 -13 25q-17 41 -26 79q0 5 1 6q-10 51 -10 112q0 31 4 87q0 1 3 13q2 40 15 96q1 3 1 7t1 6q2 7 4.5 19.5t4.5 19.5q2 9 6.5 21t6.5 19q2 6 3.5 13t3.5 13q1 2 3 5.5t3 6.5q3 9 10 28t13 34q8 18 13 27q1 7 5 14t6 11l3 9q3 6 6 10t5 8q1 2 0.5 3.5t0.5 3.5
q1 3 3 5l3 3q6 11 10 21.5t8 18.5q7 9 8 11q3 7 8 14.5t9 16.5q10 18 17 27q5 6 13.5 13.5t12.5 10.5q11 2 22.5 -6.5t5.5 -19.5q-2 -3 -7 -7t-8 -7q-22 -22 -42 -71q-11 -14 -24 -44q-12 -26 -20 -38q0 -4 -4.5 -11.5t-3.5 -12.5q-12 -18 -30 -70q-15 -35 -20 -55
q-18 -58 -29 -125l-2.5 -7.5t-1.5 -8.5q-1 -1 0 -3.5t1 -4.5l-4 -14q0 -6 -1 -18t-2 -20q-3 -54 -3 -57l-1 -16l1 -19q5 -66 9 -89q16 -86 56 -117q25 -19 50 -19q5 0 15 2.5t16 1.5q62 25 95 58l4 2t4 1q4 8 15 17.5t15 13.5q2 2 4 8q3 3 9 8t9 10q2 2 4 5.5t4 5.5
q5 7 18.5 25.5t19.5 36.5q2 -1 2.5 1.5t1.5 1.5q2 8 8 18.5t7 15.5q1 3 1.5 9.5t4.5 9.5q1 8 2.5 20.5t1.5 21.5t-1 14q-1 1 -1.5 2.5t-3.5 0.5q1 9 -8 19t-11 14q-3 0 -11 4.5t-11 2.5q-11 6 -29 6q-19 0 -41 -6t-26 -7q-84 -45 -130 -136q-7 -12 -21 -12q-9 0 -19 8
q-1 3 -1 7l1 14q2 1 4.5 5t4.5 5q39 76 118 130q6 2 18 9q16 8 27 10q12 5 31 8t25 4l10 -2q2 -1 3.5 0.5t2.5 0.5q4 -1 9 -2t12 -2q5 -1 11 -2t12 -3q1 -1 4.5 -4t9.5 -3q2 -2 7.5 -8.5t12.5 -8.5q5 -4 9.5 -13.5t8.5 -13.5q9 -36 9 -55q0 -16 -4 -29q0 -3 1 -4.5t1 -3.5
q-5 -13 -10 -24t-9 -21q-11 -20 -17 -37q-11 -9 -13 -21q-8 -8 -16.5 -21.5t-11.5 -18.5q-2 -1 -3.5 -2t-3.5 -1q-3 -7 -16 -20q-10 -10 -13 -17q-3 -1 -5.5 -4t-5.5 -4l-17 -17q-12 -8 -18 -16q-13 -5 -25 -17q-38 -21 -61 -30.5t-52 -9.5q-12 0 -18 1q-50 6 -87 61z" />
    <glyph glyph-name="seven" unicode="7" horiz-adv-x="506" 
d="M228 -140q-7 0 -15 3q-4 5 -11 17q-2 48 19 116q4 27 15 59q1 6 4.5 21.5t8.5 26.5q5 33 14 57q0 3 -2 4l4 4q3 17 11 49q12 46 14 69q8 20 11 48q-5 2 -12.5 8l-12.5 10q-2 1 -3.5 0.5t-2.5 0.5q-12 11 -46 25q-7 4 -21 10q-5 3 -17.5 9.5t-20 13.5t-12.5 17q1 4 1 10
t-1 9q4 10 17.5 17.5t18.5 11.5q14 2 37 12q5 2 16 5.5t20 5.5q1 1 2 1.5t1 2.5q21 4 47 14q14 5 32 10q4 18 11 42q8 29 12 50q12 26 13 38q11 20 18 45q4 4 8 14t7 14q-6 -2 -32 -10q-5 -1 -18 -4.5t-23 -8.5q-7 0 -37 -6q-4 -1 -6 -2.5t-5 -2.5q-3 0 -8.5 -0.5t-8.5 -3.5
q-17 -1 -41 -5l-30 -4q-2 2 -7 2q-3 0 -7 -1.5t-6 -1.5q-3 0 -8.5 1t-7.5 -1q-5 2 -14 2l-17 -1q-5 0 -13 2q-2 0 -3.5 -1.5t-3.5 -1.5q-2 1 -6 1t-6 2l-22 -1q-16 0 -28 4q-41 0 -56 6q-21 0 -37 8l-2 8q0 10 6 18l14 4h3q5 0 12 -1t11 0q5 -1 16 -4t19 -3q1 0 2.5 1t2.5 1
q3 -1 6.5 -2t6.5 -1q2 0 3 1t3 1q3 0 5 -1l4 -2q6 -1 19 -1q3 0 7 1.5t6 0.5q3 0 4.5 -1t3.5 -2q2 0 3.5 1t2.5 1h3q5 0 10.5 -1.5t10.5 -1.5q71 2 102 9q31 2 88 18l23 6q12 6 19 6q2 2 7.5 3t7.5 4q6 0 13 2t9 3q11 5 21 6q1 1 1 3q7 1 16.5 -3.5t12.5 -9.5q2 -6 2 -10
q0 -14 -15 -35q-12 -18 -12 -27q-2 -2 -3.5 -4t-3.5 -4q-2 -11 -12 -34q-13 -24 -14 -44q-5 -8 -7 -25q-6 -9 -8.5 -23.5t-2.5 -17.5q2 0 3.5 1.5t3.5 2.5q10 -1 15.5 -3t9.5 -8l1 -3q0 -4 -1.5 -8t-2.5 -9q-13 -9 -41 -17q-2 -7 -5.5 -22.5t-4.5 -27.5q-1 0 -1.5 -1.5
t-1.5 0.5q0 -12 -8 -42q-1 -16 -6 -33q-4 -13 -5 -24q16 -16 35 -48q2 -6 4 -13.5t5 -12.5q3 -18 3 -35q0 -31 -7.5 -64.5t-22.5 -80.5l-6 -21q-2 0 -3.5 -5t-4.5 -6q-1 -11 -9 -29q-6 -12 -9 -26q-2 -1 -4 -5.5t-4 -5.5q1 -2 0.5 -3.5t-0.5 -2.5q-3 -5 -10 -18t-10 -26
q-12 -17 -21 -36l-14 -18q-16 -22 -28 -31q-4 -1 -10 -1zM313 387.5q2 6.5 3 10.5q7 23 6 32q0 1 -0.5 1.5l-0.5 0.5q3 5 7 25q2 13 6 26q-6 -2 -14.5 -3t-12.5 -3q-2 -1 -3 -2.5t-3 -2.5q-3 -1 -7 -1.5t-8 -1.5t-8.5 -4.5t-8.5 -0.5q-8 -4 -18.5 -8t-14.5 -5
q-26 -8 -37 -16l34 -17q54 -26 78 -42q0 5 2 11.5zM274 -14q15 31 25 60l5 5q1 1 0 1.5t-1 1.5l8 20q2 5 6.5 18t6.5 23q1 1 2 2.5t3 2.5l-1 3q0 4 4 8q0 5 3.5 15t2.5 16q1 2 2 4.5t3 4.5q-1 7 2.5 19.5t4.5 20.5q1 6 1 19q0 45 -19 68q0 -6 -2.5 -17t-1.5 -16
q-3 -4 -5 -10.5t-1 -11.5q-4 -5 -5.5 -17t-3.5 -18q-3 -7 -4.5 -18t-3.5 -18q-5 -11 -7 -26q-4 -19 -8 -26q1 -2 1 -7q-8 -18 -11 -39q-5 -5 -3 -17q-5 -2 -5.5 -6t0.5 -11q-19 -58 -28 -113q15 28 30 59z" />
    <glyph glyph-name="eight" unicode="8" horiz-adv-x="479" 
d="M121 -179q-55 23 -92 69t-47 111q-2 22 -2 33q0 39 7 79q45 155 179 323q-4 4 -7.5 18t-9.5 20q0 6 1 7q-2 3 -6 9.5t-2 11.5q-4 3 -6.5 14.5t-6.5 14.5q0 7 -5 20t-6 19q0 2 -1 3l-2 2q2 4 2 5q0 3 -3 7.5t-4 6.5l-1 6v10q0 12 -5 17q2 4 2 7t-5 18q2 1 2 2t1 2
q1 2 -0.5 3.5t-1.5 2.5l8 47q3 4 10 15t15.5 17t19.5 8q7 4 19 4q18 0 32 -6q40 -14 71.5 -47t51.5 -75l39 42q21 24 42 45q9 9 23 16q8 0 10 -1q2 3 7 7t10 4q6 0 9 -6q0 -14 -12 -19v-9q-4 -7 -5 -9q-19 -16 -40 -38t-28 -30q-16 -20 -39 -43q1 -7 4.5 -21t3.5 -24
q0 -7 -1 -11q-1 -2 -3 -4.5t-1 -5.5q-8 -4 -14 -4q-10 0 -17 8t-4 21q-18 -15 -43 -46l-19 -21q-5 -5 -10 -12.5t-8 -11.5q-4 -4 -11.5 -12t-12.5 -15l6 -11l1 -8q3 -4 5 -12t4 -14q14 -28 21 -57q4 -12 8 -20q1 -3 2.5 -5t2.5 -4q1 -4 2 -11.5t6 -11.5l10 -37q8 -24 11 -38
l5 -15q2 -16 7 -23q-1 -1 -1 -4t2 -7t3 -7q0 -1 -1 -2t0 -2q1 -2 2.5 -7t1.5 -13q0 -6 3 -13t4 -11q1 -3 0 -6t0 -7q1 -9 3.5 -19.5t2.5 -17.5q0 -4 -2 -12q3 -5 0 -12q2 -4 2 -12q0 -6 -2 -16l-1 -6l1 -14q0 -9 -4 -14q0 -18 -2 -24q-3 -5 -6 -7q0 -7 -4 -14.5t-5 -11.5
q-2 -3 -6 -13.5t-10 -17.5q-8 -14 -15 -21q-7 -8 -19 -14l-12 -11l-7 -2l-2 -2t-3 -1q-8 -4 -23 -5t-22 -2q-18 -3 -57 11zM254 540l45 52q-6 17 -16 34.5t-12 21.5q-18 20 -26 31q-7 5 -16 12t-15 11l-11 2q-2 1 -3 2.5t-3 2.5q-12 5 -23 5t-22 -6q0 -3 -3.5 -8t-2.5 -7
q-1 -3 -4 -4q1 -6 -0.5 -14.5t-1.5 -14.5q0 -7 3 -15q-2 -2 -1.5 -8.5t0.5 -10.5q4 -4 2 -11q3 -5 5 -17t3 -17q3 -1 4 -3.5t-1 -4.5q5 -4 5 -6q1 -11 4 -19.5t7 -17.5q6 -21 7 -23q1 -3 3 -5.5t3 -5.5t1.5 -10t6.5 -10q-2 -5 2 -8zM182 -151q29 0 49 16q1 3 3 5.5t4 1.5
q2 2 11 14t14 25q0 1 -0.5 0.5t-0.5 0.5l4 6l4 6q1 2 0.5 3.5t-0.5 3.5q4 6 6 15.5t2 12.5q2 14 4 20q-2 0 -2 2t1 3.5t2 3.5q2 32 -1 59.5t-4 35.5q1 2 -1 2.5t-2 1.5q1 1 1 3t1 3q-4 5 -5 17.5t-6 17.5q1 2 1 7q0 11 -6 17v3q0 4 -1.5 9.5t-1.5 10.5h-2t-2 2l1 7
q0 1 -1.5 1.5t-2.5 2.5v3.5t2 2.5q-5 1 -5 8t-1 11q-4 2 -6 11t-4 12q1 4 0.5 6.5t-0.5 3.5q-5 1 -5 2v3.5t1 3.5q-2 0 -4 2q1 4 0 8q-2 2 -4 10t-5 11q-1 15 -9 31t-8 26q-3 1 -5 7t-4 7v3q0 4 -2 9.5t-3 10.5q-1 1 -2 1h-1q-2 8 -4 11q-53 -67 -107 -165q0 -2 -1 -3t0 -3
q-24 -41 -39 -87.5t-15 -94.5q0 -15 4 -43q1 -7 7 -23q13 -42 44.5 -74.5t72.5 -44.5q3 -1 6.5 -2.5t6.5 -1.5q8 -1 21 -1z" />
    <glyph glyph-name="nine" unicode="9" horiz-adv-x="453" 
d="M309 -237q-4 2 -6 1q-9 18 -9 34q0 12 5 17q1 2 0 4.5t-1 4.5q2 10 2 14l-1 20q0 7 3 15q-1 3 -1 8q0 7 1.5 14t1.5 14q0 4 -2 10q0 3 2 11.5t-1 12.5q1 2 2 3.5t2 3.5q-1 7 -0.5 15.5t0.5 12.5q0 6 -1 9q2 6 3 13t-2 11q0 1 2 5.5t2 8.5q0 5 -4 8q4 8 4.5 19.5t0.5 16.5
t2 11t1 9q0 3 -1 5.5t-1 5.5q0 2 3 17q-2 6 0.5 13t-1.5 12q5 15 5 31q0 10 -1 14q6 24 2 29q-1 1 0.5 3t2.5 4q-2 2 -2 1q-1 1 -1 3q0 3 1.5 8t0.5 9q3 5 3 12v11q0 8 1 11q0 3 -3 3q4 7 4 20q0 6 -1 8q-1 3 0.5 4.5l2.5 2.5q-1 2 -1 7t2 12.5t-1 13.5q3 4 4 11.5t-2 9.5
q1 2 1 3.5t1 2.5q1 2 -0.5 4t-1.5 3q3 8 4 22.5t2 19.5q0 1 -0.5 2t-2.5 1q4 8 4 35q0 4 1 15.5t3 18.5q0 2 -1 2.5l-1 0.5q4 9 3.5 22.5t-0.5 17.5l1 12q-3 -7 -8.5 -17.5t-7.5 -20.5q-40 -69 -68 -108.5t-68 -67.5q-4 -7 -14 -8q-17 -11 -37 -17t-37 -4q-7 1 -15.5 4.5
t-12.5 4.5q-1 0 -7.5 1t-9.5 9q-8 0 -12 9q-6 2 -10 11t-7 12q0 5 -1 8q0 1 -2 0.5t-2 0.5q-1 3 1 7q-5 9 -5 28q0 16 -2 23q-1 2 1 3.5t2 2.5l-2 4q3 8 4.5 15.5t0.5 14.5q3 8 7.5 20.5t6.5 22.5q1 2 5.5 9.5t3.5 11.5q2 5 7.5 15t6.5 18q6 2 8 4q6 14 23 35q15 20 18 26
q8 3 13.5 10t6.5 8q2 2 8.5 9t14.5 10q7 7 23 17q19 12 22 15q7 0 17 4.5t14 6.5q2 0 3.5 -0.5t3.5 0.5q8 3 16 3q22 0 38.5 -19t16.5 -42q0 -16 -8 -27l-9 -1q-8 0 -17 4q-4 6 -6 21q-2 12 -5 18.5t-11 7.5l-9 -1q-14 -3 -30 -12t-20 -11q-7 -7 -16 -13q-18 -13 -22 -21
q-4 0 -7 -3t-6 -4q-2 -2 -4.5 -7.5t-7.5 -6.5q-2 -10 -11 -13q-16 -27 -23 -36q-1 -2 -0.5 -3.5t-0.5 -3.5l-7 -7q0 -7 -5 -15t-7 -10q0 -1 0.5 -2.5t-0.5 -3.5q-3 -5 -6 -18.5t-7 -19.5q-2 -7 -4 -26q0 -5 -1.5 -10t-1.5 -9v-3q0 -2 3 -14v-8q0 -6 1 -9q6 -16 20 -25.5
t33 -9.5q27 0 46 13.5t48 42.5q24 26 25 28l2 6q1 2 2 2t2 1q5 6 19 29q14 24 17 27q-1 2 -0.5 3t0.5 3q11 13 25 47q11 27 17 36q8 26 20 54l9 29q14 45 18 61q0 1 -0.5 2t-2.5 1q3 7 4.5 20.5t5.5 21.5q0 1 -1 1.5t-1 2.5q1 3 5 10.5t8.5 11.5t10.5 4q7 0 12 -5.5t8 -7.5
q2 -19 -2.5 -39.5t-9.5 -38t-7 -23.5q1 -7 -2 -20t-1 -21q0 -2 -1 -3.5t-2 -2.5q1 -4 1 -11t-2 -21q-3 -12 -3 -22q0 -5 2 -13q-4 -16 -5 -37.5t-1 -27.5q0 -8 -2 -22q-3 -20 -2 -36q-3 -6 -3 -11q0 -3 1 -7.5t1 -10.5q0 -1 -1.5 -2.5t-1.5 -3.5q2 -15 -2 -43q-3 -23 -2 -41
v-2q0 -4 -1 -7.5t-2 -6.5q-2 -16 -2 -25l-3 -34v-4l1 -14q0 -6 -3 -12l1 -8q0 -7 -1.5 -14t-1.5 -15q0 -3 1 -6t1 -6q-1 -6 -3 -13.5t-2 -12.5q0 -2 1.5 -5t1.5 -6q0 -4 -2 -10t0 -10q-3 -8 -3 -19v-14q0 -5 -2.5 -18t-1.5 -20q0 -4 -0.5 -13t0.5 -17q0 -5 -2 -12.5
t-2 -13.5l-1 -19q0 -5 2 -13q-3 -5 -3 -14v-14q-1 -7 -1 -22q0 -18 -2 -26q1 -2 1.5 -5t1.5 -5q-1 -3 -2 -7t-3 -6q1 -4 1 -14q0 -12 -2 -16l1 -17q0 -13 -3 -19q1 -3 2 -4.5t2 -2.5q2 -31 -23 -34q-1 1 -5 3z" />
    <glyph glyph-name="colon" unicode=":" horiz-adv-x="149" 
d="M43 316q-5 8 -5 18q0 8 4 15.5t11 11.5q2 1 7 1q7 0 12 -1t9 -2q7 -6 7 -17q0 -9 -4.5 -18t-11.5 -14h-3h-5.5t-5.5 -2q-11 5 -15 8zM43 31q-6 2 -9.5 9t-3.5 15q0 11 6 18.5t17 6.5q4 5 10 5q9 0 18 -9q3 -6 3 -14q0 -10 -5 -18.5t-13 -11.5q-2 0 -2 -2t-1 -2
q-11 0 -20 3z" />
    <glyph glyph-name="semicolon" unicode=";" horiz-adv-x="192" 
d="M83 331q-6 2 -9.5 9t-3.5 15q0 11 6 18.5t17 6.5q4 5 10 5q9 0 18 -9q3 -6 3 -14q0 -10 -5 -18.5t-13 -11.5q-2 0 -2 -2t-1 -2q-11 0 -20 3zM59 91v4q0 4 2 10q5 4 13 14q8 8 8 17q0 4 3 7q1 4 4 6t7 2q5 0 8 -3q5 -5 6 -8q5 -6 5 -18t-7 -19q-10 -10 -16 -13
q-6 -6 -21 -6q-9 0 -12 7z" />
    <glyph glyph-name="equal" unicode="=" horiz-adv-x="376" 
d="M123 279q-3 5 2 10q4 4 9 5q22 6 37 8l62 15q4 0 11.5 1.5t13.5 0.5l8 -1q5 -1 8 -6t2 -10q0 -4 -3.5 -7.5t-8.5 -4.5t-14 -1q-12 0 -26.5 -2t-20.5 -3q-20 -4 -60 -10q-6 0 -9 -1h-3q-7 2 -8 6zM101 223q-3 5 1 8q7 7 19 9q20 4 30 5l93 9h5q5 0 7 -1q5 -3 5 -9
q-2 -7 -6 -8q-2 -1 -7 -1q-15 0 -43 -2l-22 -1q-15 -2 -45 -4l-14 -2l-12 -4l-5 -2q-4 0 -6 3z" />
    <glyph glyph-name="question" unicode="?" horiz-adv-x="445" 
d="M129 -27q-8 0 -13.5 4.5t-7.5 5.5q0 3 -2 8t-3 10q4 4 9 8t10 3q7 19 9 45q7 12 7 25q2 6 5.5 15.5t4.5 17.5l6 6q0 2 -1 2t0 1q4 8 12 21t12 23q7 6 17 24q4 9 11 17q2 4 6 9.5t6 9.5q7 7 7 12q5 5 5 9q16 16 24 36q7 7 15 23q9 18 15 23q3 10 11 22l5 10t6 16
q1 0 2.5 3t3.5 3l2 8q0 1 1 2t2 1q0 3 2 6t2 5q1 1 2 3.5t3 3.5q3 9 8 21.5t7 20.5q7 9 12 38q11 20 11 37l4 4q2 17 6 33q7 27 6 45q1 2 2 5t1 7v4l-1 15q1 4 2 10t1 14q-1 14 -4 31.5t-4 27.5l-2 2v2q0 5 -3.5 13.5t-3.5 12.5l-4 3q0 11 -7 12v2q0 4 -3.5 7.5t-5.5 6.5
q-1 3 -5 3q-2 6 -10 11t-10 8q-4 0 -5 -1q-1 0 -4 3q-1 0 -2 -1t-2 0q-7 4 -14 4q-6 0 -13.5 -2t-10.5 -3q-3 -2 -11 -5t-12 -6l-8 -3l-34 -23q-17 -21 -26 -28q1 -1 0 -1.5t-1 -1.5q-21 -21 -39 -57q-1 -1 -1 -2t-1 -1q-6 -19 -13 -31v-2q0 -3 -2.5 -10.5t-2.5 -11.5
q-1 -1 -1 -3t-1 -2q-6 -44 -6 -74q0 -55 13 -106q1 -5 3.5 -20.5t9.5 -25.5q1 -5 4.5 -12t3.5 -13q0 -5 -2 -8q-11 -3 -17 -7q-4 2 -6.5 3.5t-6.5 3.5q0 4 -4 8q-2 7 -9.5 25.5t-9.5 35.5l-2 3q-1 9 -3.5 26t-5.5 27q-2 15 -2 49q0 65 12 114q4 14 13 34l11 28
q22 30 35.5 47t31.5 32q10 12 26.5 23l22.5 15q12 3 19 7q18 8 29 9q4 1 12 1q3 0 27 -3q5 -1 13.5 -5.5t13.5 -6.5q3 -3 7.5 -6.5t6.5 -6.5l8 -3q2 -7 10.5 -16t10.5 -13q0 -8 7 -14v-4q14 -22 11 -39q2 -3 5 -5q-1 -6 3 -24q3 -24 3 -26t-1 -7t2 -8q0 -2 -1 -3.5t-2 -3.5
l1 -13q0 -15 -4 -45q-1 -6 -2.5 -11.5t-2.5 -12.5l-1 -10q-1 -2 -2.5 -10.5t-5.5 -14.5q1 -1 1 -5q0 -5 -4 -11v-2q0 -3 -2 -8t-1 -8q-3 -5 -8 -21q-4 -17 -9 -23q1 -1 1 -6q-3 -5 -7.5 -18t-10.5 -19q0 -2 -1 -6.5t-4 -6.5v-2q0 -4 -4 -10t-4 -11q-4 -5 -10 -17
q-5 -13 -12 -20q-1 -6 -5.5 -13.5t-4.5 -11.5l-5 -4q-6 -15 -19 -34l-16 -29q-8 -8 -20 -28q-9 -18 -18 -27q-2 -6 -2 -7q-4 -4 -12 -16t-13 -17q0 -1 -1 -3t-1 -4q-4 -1 -4.5 -5t-1.5 -6h-3q-2 -2 -4 -10q-2 -4 -8 -15.5t-9 -21.5q-8 -24 -11 -36l-7 -24q-1 -1 0.5 -2
t1.5 -2q-2 -6 -5 -19.5t-8 -22t-14 -11.5h-3zM128 -150q-10 0 -18 4q-4 3 -8 10t-5 13v3q0 13 8 25q0 1 -0.5 2t0.5 3q4 1 10.5 5t15.5 3q6 -6 11 -16q7 -1 16 -7q2 -1 3 -6t2 -6q0 -13 -10 -23q-4 -4 -7.5 -6t-9.5 -3q-3 -1 -8 -1z" />
    <glyph glyph-name="at" unicode="@" horiz-adv-x="637" 
d="M335 -96q-45 7 -78 19q-60 14 -114 58q-4 5 -12.5 16t-16.5 19q-5 7 -10 18t-9 17q-18 49 -25 113l2 33q1 31 3 51t8 37q-1 2 -1 5q0 4 2.5 9l3.5 7q1 6 2 15.5t5 12.5q1 2 0 3.5t-1 3.5q4 7 11 27q2 4 6.5 15.5t9.5 17.5q6 20 22 44q12 20 17 31q9 6 13 16q2 2 5 2
q1 4 5 8t4 7q2 0 3.5 1.5t3.5 0.5q4 9 16 19t16 15q9 2 19 16l7 1q9 11 36 20q21 10 27 13q4 2 16 2.5t16 4.5h24q18 0 24 2q11 -5 27 -9q23 -5 33 -14h3.5t3.5 -1q3 -6 11 -7.5t10 -2.5q5 -9 17 -18q2 -2 8 -7.5t9 -12.5q12 -9 21 -26t13 -24q0 -1 1.5 -2t2.5 -2v-3
q0 -7 4 -15t6 -13q1 -2 0.5 -5t0.5 -6q2 -7 6 -24t5 -31q1 -13 0.5 -22.5t-0.5 -16.5q-1 -8 -1 -25q-1 -24 -13 -70q-13 -51 -38.5 -96t-56.5 -71q-30 -18 -52 -18q-20 0 -33.5 10.5t-29.5 29.5q-22 44 -22 91q0 12 1 18q-4 -6 -10 -14t-9 -15l-5 -3q-29 -37 -54.5 -61.5
t-55.5 -32.5h-2q-12 0 -28 7q-3 4 -8.5 11t-7.5 14q-1 3 -1 9q0 9 2 23l-1 5q1 6 3 12t4 13q1 9 6.5 18.5t6.5 12.5l3 10l15 25q2 4 4 6l4 4q1 1 0 2t0 2q1 2 3.5 3.5t3.5 2.5q11 17 13 19q8 10 27 27q4 0 5 1q4 3 11 7t10 7h3q10 0 20 5q11 0 25 -2q3 -3 9.5 -7t9 -10
t0.5 -15q5 6 10 17.5t9 18.5q5 5 12 5q3 0 6.5 -1t5.5 -1q3 -1 5.5 -5.5t4.5 -5.5q2 -11 -3 -27.5t-7 -25.5q-4 -20 -10 -85q4 -39 17 -66q4 -1 10 -10q3 -2 7.5 -4t8.5 -5q15 2 23 6t14 13q7 2 15 13t12 14q1 4 5 9.5t5 9.5q1 0 1.5 1.5t2.5 0.5q1 6 4.5 12.5t4.5 9.5
q9 16 11 30q10 14 13 38q7 10 7 30q6 22 6 62q0 19 1 28q-2 9 -4.5 28t-8.5 29q2 12 -13 32q0 2 0.5 4t-0.5 5q-17 30 -38 45q-1 7 -7 10l-8 4q-4 3 -9.5 8t-11 7t-12.5 2q-4 5 -17 7.5t-17 4.5q-2 0 -3 -1t-3 -1q-3 1 -8.5 2.5t-11.5 0.5q-2 0 -3.5 -1t-2.5 -2
q-4 0 -10.5 0.5t-9.5 -0.5q-3 0 -5.5 -1.5t-5.5 -2.5q-6 -2 -11.5 -3.5t-11.5 -3.5q-31 -14 -40 -27q-8 -1 -14.5 -8t-9.5 -10l-4 -2t-3 -2q-2 -1 -3 -3.5t-3 -4.5l-5 -3l-2 -6q-2 -2 -4.5 -3.5t-4.5 -3.5q-9 -10 -22 -29q-17 -25 -19 -28q-4 -8 -9.5 -19.5t-13.5 -29.5
q-4 -8 -14 -39q-1 -4 -3 -8t-4 -10q-1 -2 -1 -5.5t-1 -6.5q-1 -4 -3 -9t-4 -12v-7q0 -5 -4 -23t-4 -26q-1 -21 -1 -74q1 -2 2 -2.5t1 -1.5q3 -85 62 -144q16 -9 22 -15q23 -12 49 -21.5t53 -17.5q3 0 3 2q1 -1 5 -3.5t9 -0.5q14 -5 42 -9l22 -3q4 -1 12 -1l4 2q3 0 6 -1.5
t6 -1.5q34 2 50 9q-1 12 7 17t18 4q6 -5 10 -12.5t4 -15.5q0 -9 -6 -15.5t-8 -9.5q-23 -15 -63 -15q-41 0 -86 7zM209 132.5q7 4.5 14 11t13 11.5q3 4 9 9.5t8 10.5q5 3 12 12.5t12 12.5q0 2 2 6q1 1 1.5 2.5t3.5 0.5q2 5 8 13t8 13q9 5 13 20q4 3 6.5 9t4.5 9q1 2 5 5.5
t3 7.5q-3 -3 -8 -3.5t-7 -0.5q-2 3 -5.5 6t-5.5 6q-3 0 -3 1q-25 -5 -43.5 -23.5t-39.5 -49.5l1 -3q-6 -7 -11.5 -20t-8.5 -18q-9 -30 -9 -43q0 -8 1 -11q9 1 16 5.5z" />
    <glyph glyph-name="A" unicode="A" horiz-adv-x="577" 
d="M507.5 -40q-8.5 12 -16.5 35q0 2 -1 3.5t-1 2.5q-2 5 -3 13t-4 10l-3 21q-9 47 -9 82l1 20q1 2 0 3l-1 1q2 41 14 182l2 21q2 6 2 8q0 3 -0.5 7.5t0.5 10.5q4 26 4 39q-5 5 -14.5 5t-12.5 2l-7 -1l-15 1q-8 0 -12 -4q0 1 -1.5 0.5t-3.5 0.5l-19 -8q-18 -4 -24 -11h-2
q-4 0 -9.5 -3t-8.5 -3q-2 -2 -10 -5.5t-9 -6.5q-63 -25 -94 -51q1 -4 1 -13q0 -15 3 -20q0 -16 2 -48t2 -49q0 -3 0.5 -6t-0.5 -6q-8 -95 -40 -147l-6 -9t-5 -11q-6 -4 -14 -14.5t-14 -13.5q-6 -10 -20 -18.5t-17 -10.5q-29 -11 -47 -11q-6 0 -16 2q-3 1 -8.5 3.5t-9.5 3.5
t-8.5 4t-7.5 4q-4 4 -5 7q-13 8 -19.5 21.5t-14.5 39.5q-6 42 -6 65q0 33 9 69q5 23 24 82q6 2 11 15q3 6 11 18q12 18 16 29q8 1 11 11q5 1 8.5 6.5t5.5 7.5q4 5 10.5 10t10.5 8q3 3 8 8.5t10 6.5q3 5 17 16q13 7 19 17q5 1 12.5 6.5t11.5 6.5q4 5 4 13q0 7 -2 10q1 3 1 10
q0 8 -1 14t-2 10v30q0 42 4 74q8 50 22 78l12 27t17 31q11 20 40 42q12 10 19 14q16 8 50 10q7 -2 20.5 -4t16.5 -3l9 -4q6 -2 16.5 -8t15.5 -11q11 -3 13 -11q25 -19 38.5 -44.5t31.5 -73.5q0 -15 7 -26q-2 -9 0.5 -21t1.5 -19q2 -3 2 -9q0 -5 2 -8q-1 -11 -0.5 -20
t0.5 -16q1 -8 1 -25q0 -16 -3 -34l2 -2t0 -2q-2 -22 -2 -29q-2 -34 -5 -47q1 -2 2 -2.5t0 -1.5q-2 -4 -2 -13q0 -7 -2 -10q-1 -1 0.5 -1.5t1.5 -2.5q-3 -7 -3 -15.5v-13.5q0 -1 -1 -1.5t-1 -1.5q-2 -8 -2 -25q0 -14 -1 -22q1 -2 -0.5 -2.5t-2.5 -2.5q1 -1 1 -5t-1 -9t0 -7
q1 -3 -0.5 -3.5t-2.5 -1.5q1 -6 0.5 -12t-0.5 -10q0 -6 1 -9q-1 -4 -4 -29q0 -2 3 -2q-2 -10 -2 -30q0 -12 2 -40q2 -20 2 -30q0 -1 0.5 -3.5t2.5 -2.5q5 -50 26 -82q1 -3 1 -7q0 -7 -4.5 -13t-6.5 -9q-17 -3 -25.5 9zM261.5 390.5q8.5 5.5 11.5 6.5q19 11 27 13q3 5 7 5
l35 16q38 18 63 26.5t55 8.5q16 0 34 -3q1 6 1 17q0 7 -0.5 16.5t0.5 22.5q-2 4 -2 6q1 39 -10 81q-3 23 -13 44t-12 27l-27 35q-5 2 -10.5 7.5l-8.5 8.5q-5 1 -8 3.5t-4 3.5h-1q-3 0 -6.5 2t-6.5 5h-2q-3 0 -8 2t-8 1l-6 3q-8 -2 -10 -2l-8 1q-1 0 -3.5 -1.5t-5.5 0.5
q-24 -11 -45 -35q-3 -4 -12.5 -19t-16.5 -30t-10 -29q-18 -50 -18 -116q0 -25 7 -97q2 -13 4 -37q9 2 17.5 7.5zM128 6q5 3 26 21q29 27 41 63q15 28 19.5 64t5.5 88q-2 3 -2 7q0 12 -1.5 26t-2.5 22l1 6q0 5 -1.5 12.5t-2.5 13.5q-1 8 -2 27t-5 31q-6 -4 -12.5 -9.5
t-11.5 -7.5q0 -2 -0.5 -3l-1.5 -3q-3 -2 -13 -6.5t-12 -13.5q-8 -4 -23 -19q-9 -10 -18 -17q0 -4 -1 -6q-2 -1 -4 -2.5t-5 -3.5q0 -4 -1 -6q0 -1 -1.5 -0.5t-1.5 -0.5q-2 -1 -2.5 -3t-0.5 -3q-2 -2 -5.5 -4.5t-1.5 -7.5q0 -1 -1.5 -1.5t-2.5 -1.5q-2 -5 -8.5 -16t-7.5 -20
q-3 -3 -5 -7.5t-1 -9.5q-1 0 -2.5 -1t-1.5 -3q-1 -1 0 -1t1 -1q-6 -10 -10.5 -29.5t-3.5 -31.5q-3 -4 -3 -12q0 -11 -3 -16q-1 -2 0.5 -2.5t0.5 -1.5q-1 -4 0 -10.5t1 -11.5q0 -3 -2 -11q4 -15 7 -38q5 -7 8 -20q25 -31 52 -27z" />
    <glyph glyph-name="B" unicode="B" horiz-adv-x="510" 
d="M265 -179q-8 0 -22.5 -0.5t-21.5 0.5q-5 1 -11 2.5t-11 1.5q-2 1 -4 0t-3 -1q-2 1 -3.5 2t-3.5 1h-3l-11 -1q-1 0 -2.5 1.5t-3.5 -0.5q-7 5 -19 7q-14 2 -20 7h-2l-8 1q-12 4 -18 7q-16 6 -23 12q-5 1 -10.5 5t-9.5 6q-3 2 -5.5 2t-3.5 1q-5 3 -8.5 7.5t-8.5 7.5
q-2 1 -4.5 1.5t-4.5 2.5q-1 2 -2.5 4t-2.5 4q-1 1 -3 1.5t-3 1.5q-4 3 -6 10.5t-3 11.5q1 9 10 15.5t19 6.5q12 0 16 -9q1 -3 0.5 -5t-0.5 -4q0 -5 5 -9.5t10 -7.5t9 -5q11 -6 46 -25q8 0 16 -3.5t13 -4.5l-16 198q-1 9 -2.5 21.5t-1.5 21.5q0 11 -2 31q-3 17 -3 33
q-2 60 -4 90l-3 60q0 8 -2 28l-3 27q0 20 -1 29q0 41 -3 70l-3 27q0 10 -2 26q-2 28 -2 42q0 26 -3 51q0 3 -1.5 5.5t-2.5 5.5l1 15q0 6 -1 9l-2 25q0 15 -1 25q-1 7 -1 18t5 16.5t20 4.5q2 -1 3.5 -3t3.5 -2q11 -29 11 -85q0 -14 3 -29q2 -16 2 -25q0 -7 -1 -10q1 0 1 -2.5
t2 -1.5q-1 -1 -1 -3.5t-1 -3.5q4 -25 5.5 -54.5t2.5 -38.5q2 -48 5 -73q0 -3 1 -5.5t1 -5.5q0 -2 -1 -3t-1 -3l9 -162q6 -94 8 -141l3 -6q0 -21 2 -46.5t3 -35.5q2 -14 4 -40q2 11 4 37q0 25 4 41q-2 4 -2 7q3 6 2.5 16t-0.5 16q4 21 8 75q0 10 2 30q1 9 4 28.5t4 35.5
q-2 1 -9 4t-11 7t-5 10q-1 22 32 30q4 16 2 24q6 14 7.5 32.5t2.5 23.5l22 85q1 6 2.5 18.5t6.5 19.5q0 1 -0.5 2.5t0.5 3.5q1 1 1 2t2 2q1 13 6 24q6 14 7 23q9 11 10 21q1 1 0.5 3.5t-0.5 3.5q2 4 7 9.5t3 10.5q3 5 11 18t12 26q1 0 2.5 2.5t3.5 1.5q5 14 14 26t11 14
q12 16 19 27q23 19 29 25q5 1 18.5 4.5t23.5 2.5q14 -2 27 -12t19 -14q25 -29 30 -84q3 -27 3 -56q0 -25 -3 -46l-10 -40q-1 -7 -4 -15t-5 -12l-7 -21q-1 -3 -5 -8t-3 -9q-4 -3 -6 -8t-3 -8q-6 -11 -24 -33l-18 -24q-12 -8 -18 -19q-24 -15 -39 -28q-55 -29 -103 -41
q8 -1 22 -9q18 -8 23 -9q2 -2 10 -8t17 -9q5 -5 14.5 -11.5t15.5 -11.5q16 -14 33 -34.5t23 -27.5q0 -3 1 -5t1 -4q22 -31 34.5 -70t10.5 -79q1 0 1 -3t2 -2q-5 -99 -83 -153q-15 -5 -20 -12q-6 0 -18 -5.5t-19 -5.5q-5 -3 -6 -4q-22 -2 -40 -7q-6 1 -19 1zM417 439
q25 29 39 77t15 100q0 33 -4.5 56.5t-17.5 38.5q1 2 0 3.5t-1 2.5q-4 1 -9.5 6.5t-10.5 6.5l-5 1q-4 0 -9.5 -1.5t-8.5 -2.5q0 -2 -2 -6h-1q-5 0 -7.5 -4.5t-4.5 -6.5q-1 -2 -3 -2.5t-3 -1.5q-2 -2 -4.5 -8.5t-8.5 -5.5q0 -2 -1 -4.5t0 -3.5q-3 -2 -7 -4q0 -2 0.5 -3
t-0.5 -3q-13 -13 -16 -26q-1 1 -2 0t-2 -1v-1q0 -3 -4.5 -8t-2.5 -9q-8 -8 -14 -29q-4 -1 -6.5 -8.5t-4.5 -9.5q0 -1 1 -1t1 -1q-1 -2 -6.5 -11.5t-4.5 -20.5q-1 1 -2 -0.5t-2 -1.5q-1 -7 -5.5 -19.5t-4.5 -22.5q-7 -14 -7 -27q-3 -1 -4 -4l2 -2q0 -2 -5 -7q2 0 2 -1t1 -2
q-1 -1 -2 -3t-2 -3l2 -2q-4 -5 -4 -9.5v-8.5q-5 -7 -7 -24q0 -2 -1 -8.5t-3 -11.5l1 -4q0 -2 -1.5 -4t-2.5 -5l1 -3q0 -3 -3 -11.5t-4 -14.5q0 -5 -1 -11t0 -10q122 34 167 111zM258 -140q47 0 85.5 18t62.5 48q2 6 2 8q11 14 16.5 35t5.5 45q0 39 -12 64q1 1 1 4
q-8 26 -19.5 45.5t-34.5 51.5q-2 -1 -5 2v4q-7 3 -16 14t-17 13q-23 23 -44 27q-6 8 -16 8q-7 6 -28 10q-1 -7 -1.5 -14.5t-3.5 -18.5q1 -2 1 -6q0 -5 -2 -15t-2 -15q1 -1 1 -5q0 -5 -3 -10q1 -4 1 -11q0 -8 -4 -26q0 -1 1 -1t1 -1q-3 -3 -3 -9q1 -5 0 -17.5t-4 -21.5
q3 -3 2 -5q-3 -15 -3 -34q-2 -25 -6 -48q0 -2 1 -3t1 -2q-2 -8 -3 -18.5t-1 -14.5q0 -18 -4 -33q2 -5 -1.5 -18.5t-3.5 -19.5v-3q0 -4 -1.5 -11t-2.5 -11h2q3 0 8 -1.5t8 0.5q8 -4 18 -4h23z" />
    <glyph glyph-name="C" unicode="C" horiz-adv-x="502" 
d="M141 -56q-12 1 -16 10q-7 3 -15.5 12t-14.5 12q0 3 -2.5 6t-2.5 4q-1 0 -2 1t-3 1q-4 7 -14 22.5t-15 30.5q0 1 -3 1v2q0 4 -3.5 9t-5.5 9l-2 8l-2 8q0 2 -1.5 3t-1.5 3q-2 4 -2.5 12t-4.5 10l1 2q0 5 -5 10l1 2q0 2 -1.5 5.5t-0.5 7.5q-1 2 -2 3.5t-2 3.5l1 4
q0 3 -2.5 7.5t-0.5 7.5q-3 3 -3 8v7q0 6 -3 9q1 2 0 4t-1 3q-2 30 -4 45q-1 8 -2 18.5t-1 25.5q0 7 -1.5 15.5t-2.5 12.5v6q0 5 2 19q-4 5 -2.5 19t-0.5 18q2 12 2 18q0 9 -2 27q0 5 2 12.5t2 12.5q-2 10 -1 15q0 3 1 6t1 7q0 2 -1 6.5t0 7.5q0 6 2 15t0 15q1 1 2 3t2 3
q1 7 2 19t3 18q-2 16 8 43q1 5 2.5 16.5t4.5 20.5q1 3 3.5 8l4.5 9q3 12 6 17q1 3 1.5 7.5t1.5 6.5q6 10 8 15q6 11 12 17q1 1 0.5 2.5t0.5 2.5q4 3 11 12t11 12q4 4 10.5 8t10.5 8q15 2 21 8q2 1 4 0.5t5 -0.5q11 4 26 4q26 0 60 -12q41 -20 70 -50q27 -29 45.5 -59.5
t28.5 -69.5q8 -26 8 -51q0 -12 -1 -19q-2 -1 -4 -3.5t-4 -3.5t-7 -1q-8 0 -15 4.5t-9 12.5q0 43 -13.5 75.5t-38.5 68.5q-5 4 -11 11.5t-11 10.5q-1 1 -0.5 2.5t-0.5 1.5q-10 8 -22 16l-25 18q-6 1 -21.5 6t-25.5 5q-8 0 -17 -3q-2 1 -6 1q-11 0 -16 -8q-8 -1 -13.5 -5
t-12 -12t-10.5 -11q-25 -48 -38 -106q0 -4 2 -4q-6 -13 -7 -26t-1 -16q-1 -4 -4 -7q-2 -30 -4 -46q-1 -9 -3 -37t-1 -54l-1 -54q0 -37 5 -71l-1 -13q0 -7 3 -12q-1 -14 3 -42q4 -20 4 -29q3 -4 3.5 -11.5t0.5 -10.5q3 -13 8 -30t7 -25l10 -24q18 -44 32 -62q2 -2 6 -5.5
t5 -7.5q2 0 3 -1l2 -2q6 -9 14 -14.5t18 -11t16 -9.5q25 -5 43 -5q24 0 43 7t45 21q5 5 15 11t16 11q2 2 5.5 6t8.5 4q14 18 26 25q1 4 8 9l-1 7q9 5 23 17q19 19 27 32q6 4 12 11.5t9 10.5q2 3 8 8.5t8 12.5l15 8q10 12 14 19q2 2 8 9t17 9q1 0 3 -2t5 -1q2 -4 4.5 -8.5
t3 -8.5t-1.5 -10l-4 -5q-6 -11 -25 -31l-15 -15t-14 -15q-23 -26 -46 -55q-12 -14 -37 -36l-28 -27q-2 1 -3 -0.5t-2 -1.5q-61 -49 -112 -60q-4 -1 -10.5 -1.5t-10.5 -2.5q-68 2 -93 24z" />
    <glyph glyph-name="D" unicode="D" horiz-adv-x="615" 
d="M705 320q0 -7 -3 -13q-8 -5 -18 -8q-16 6 -33 9q-24 6 -34 10q-7 0 -19 2.5t-18 3.5q-3 -123 -33 -215.5t-94 -148.5q-7 -4 -21 -13t-29 -13q-18 -6 -36 -6q-34 0 -66 24q-2 4 -5 7.5t-5 3.5q-27 43 -23 80q0 1 -1.5 2t-1.5 2q1 5 0.5 14.5t0.5 16.5q0 2 1 3l2 2
q1 5 0.5 9.5t-0.5 7.5q0 4 1.5 9.5t-0.5 8.5q5 9 6 21q1 3 3.5 12t7.5 16q1 2 0 3.5t0 2.5l5 7q0 3 -2 3q11 14 14 29q8 10 17 25t13 22q4 2 9 9.5t10 9.5q1 1 0.5 2.5t0.5 2.5q13 7 16 16q13 8 27 20q16 13 17 14q33 15 52.5 22t42.5 8q6 1 14.5 1t14.5 1q-5 95 -31 165
q-24 79 -57 125q-23 33 -43 45q-1 1 -3 1t-3 1q-2 2 -5.5 5t-8.5 6q-11 5 -26.5 6t-21.5 2q-32 -7 -48 -18q-6 -6 -10 -7q-5 -9 -17 -18q-1 -1 -1.5 -3.5t-1.5 -3.5q-3 -5 -7 -6q0 -1 0.5 -3.5t-1.5 -2.5q-16 -18 -18 -33q-12 -16 -19 -39t-8 -28q-9 -17 -8 -30
q-4 -4 -5 -11.5t-2 -11.5q0 -2 -1.5 -5t-1.5 -6v-3l1 -10q-1 -4 -3.5 -9.5t-3.5 -9.5q-1 -10 -2 -25.5t-1 -23.5q-1 -7 -2 -16t-1 -22q0 -9 1 -13q0 -2 -1 -3l-2 -2q1 -3 1 -10t-2 -21q0 -4 1 -9t1 -10q0 -7 -1.5 -17t-0.5 -16q3 -6 3 -8l-1 -10q0 -6 1.5 -14t1.5 -14
q0 -5 -1 -11.5t0 -11.5q1 -4 0.5 -7.5t-0.5 -5.5q0 -3 1.5 -6.5t2.5 -6.5v-10q0 -6 1 -10q-2 -4 -2 -6t3 -11q-1 -12 1 -36q2 -18 2 -26q0 -10 -1 -15q5 -10 5 -29q0 -5 -0.5 -16.5t0.5 -21.5q0 -5 1 -12t0 -10v-4l1 -15q0 -3 -1 -6t-1 -5q-1 -6 -1 -14.5t-1.5 -14.5
t-6.5 -11l-8 -7q-16 -2 -23.5 10.5t-12.5 34.5q-6 25 -9 47q-11 58 -19 127l-15 98q-4 22 -7.5 43t-6.5 40l-9 61q-27 141 -58 271q0 1 0.5 2.5t-0.5 3.5l-6 25q-10 38 -9 56q0 8 4.5 11.5t6.5 6.5q17 0 25 -6q1 -3 2.5 -7t2.5 -7q0 -12 3.5 -28t4.5 -24q1 -4 2.5 -12.5
t3.5 -13.5q25 -97 41 -192l15 -84q23 -129 33 -200q0 -3 0.5 -8t2.5 -6v3q0 5 -3 11q1 1 1 5q0 5 -2 11q1 3 1 9t-3 8q3 3 3 7q0 1 -3 13q0 2 1 3.5t1 3.5l-2 18v3q0 8 -2 9q2 16 2 25q0 10 -1 24t0 24q0 3 0.5 8.5t-1.5 8.5q2 7 1 19.5t0 17.5q0 2 1 4.5t1 4.5v2l-1 8
q0 1 1 2t1 3t-1 3t-1 2l3.5 7t-2.5 9q3 4 3 11q0 8 3 11q0 9 2 25t3 22q5 14 5 17l4 25q1 4 4.5 12t2.5 15q1 2 3 4t3 4q1 1 -1 2t-1 1q3 8 11 29.5t17 37.5v2.5t-1 1.5q6 7 16 25l12 21q3 2 5.5 6t3.5 6q2 2 4.5 3.5t4.5 3.5q3 3 5 7t4 6q3 2 8 4t6 7q9 3 12 8q9 2 28 9
t36 7q10 0 15 -1q3 0 4.5 1t4.5 1q9 -5 22.5 -9t22.5 -7q4 -5 12 -9.5t13 -7.5q3 -6 10 -10.5t10 -7.5q8 -14 15 -18q1 -2 1.5 -3.5t0.5 -3.5l5 -3q20 -31 32.5 -55.5t21.5 -52.5q37 -92 43 -210q4 1 15.5 -1.5t17.5 -2.5q1 -1 3.5 -2t3.5 -3q23 -2 63 -14l20 -6q4 -5 4 -13
zM539 327q-58 -2 -100 -22q-1 -3 -3.5 -5t-3.5 -3q-8 -1 -16 -7t-15 -13q-7 -9 -18 -15q-1 -4 -5.5 -8.5t-5.5 -9.5q-22 -21 -31 -47q-2 1 -3 -1.5t-3 -2.5l-22 -55v-4q0 -8 -5 -16q-6 -36 -6 -58q0 -44 19 -74q9 -5 16 -13h2q3 0 7 -2.5t7 -3.5h5l25 1q7 4 16.5 7.5
t14.5 6.5q11 6 21 16q5 5 15 17q2 2 4.5 3.5t4.5 4.5l15 24q8 11 17 31q18 33 31 86q17 69 17 163z" />
    <glyph glyph-name="E" unicode="E" horiz-adv-x="512" 
d="M107 -160.5q-9 7.5 -15 14.5t-12 12v2q0 2 -1.5 4.5t-2.5 4.5q-3 5 -4.5 14.5t-2.5 12.5q-2 19 -5 27q2 6 4 10q-2 4 -2 5q1 29 8 60l2 19q0 1 1 2l2 2q5 27 23 79l12 33q4 3 9 17.5t10 19.5q0 8 11 21v2q0 3 2 6.5t2 6.5q20 32 29 49q7 12 20.5 34.5t24.5 37.5l-32 -15
l-21 -9h-4q-8 0 -12 -4q-5 -1 -12 -2t-17 -1t-21 3q-2 1 -3 2.5t-3 2.5t-4 0.5t-4 0.5q-13 5 -24 17t-15 16q-15 28 -24 37q0 10 -5 12q2 3 0 6q-1 2 -2 3t-2 3q0 5 -3.5 12.5t-4.5 13.5q0 2 -1.5 4.5t-1.5 3.5v2v8q0 7 -3 9l-1 21q-3 24 -2 42l2.5 12.5t0.5 11.5l4 5
q-1 1 -0.5 3t-0.5 2q14 46 46 94q8 7 18 17t15 16q22 17 55.5 27t68.5 10q32 0 56 -8q4 -2 6.5 -4.5t5.5 -3.5q4 -2 12.5 -5t14.5 -7q3 -2 5.5 -5.5t5.5 -5.5q1 -1 2.5 -1t2.5 -1q2 -2 3.5 -4.5t3.5 -4.5q16 -15 23 -27l16 -24l-1 -3q0 -2 2 -4.5t3 -4.5q1 -9 4 -22.5
t3 -22.5q0 -10 -2 -15q-4 -9 -21 -13l-3 3q-2 -1 -5 -1t-5 1l-4 2q0 3 -2 7.5t1 8.5q1 27 -10 50.5t-30 40.5q-23 22 -62 33q-6 -1 -14 0.5t-14 1.5q-8 0 -15 -3q-9 2 -24 -2.5t-21 -4.5q-4 -3 -21 -9q-10 -5 -20 -14t-15 -13q0 -2 -1 -4l-2 -4h-3q-3 -4 -9.5 -11.5
t-7.5 -16.5q-30 -40 -30 -103q0 -10 2 -32q0 -4 1.5 -8.5t4.5 -6.5v-3q0 -11 8 -25l-1 -4q0 -5 6 -12.5t5 -12.5q2 -3 6 -11t10 -10q1 -4 3 -8t5 -3q3 -5 9.5 -9t8.5 -7q4 2 10 -2l7 -1q6 0 15 1.5l15 2.5q1 1 1 2t1 1q18 5 37 14.5t36 19.5q32 19 37 21q2 3 11 7.5t11 8.5
q5 0 14 6.5t15 7.5q2 0 4.5 -1t4.5 1q1 -1 5 -5.5t6 -10t2 -11.5q-5 -5 -5 -8q-2 0 -8 -3q-4 -6 -15 -15q-14 -10 -19 -23q-9 -2 -13 -15q-2 0 -3 -1t-2 -1q-1 -5 -7 -11.5t-7 -12.5q-5 0 -7 -11q-14 -14 -21 -32q-21 -28 -30 -49q-2 -3 -7 -9.5t-6 -14.5q-9 -12 -19 -35
q-7 -20 -15 -30q-4 -16 -12 -34t-11 -26q0 -7 -6 -19q-2 -6 -4 -13t-1 -13l-5 -7l-4 -25q-7 -32 -7 -53q0 -7 2 -21q-1 -3 -1 -9q0 -15 9 -29t11 -17q5 -3 11 -5t10 -5q7 -2 21 -2q15 0 22 2q8 1 16 4.5t12 5.5q10 3 20 10.5t15 11.5q20 13 23 15q6 5 13.5 13t11.5 12
q2 2 5.5 6t6.5 6q1 0 1 2t1 2q8 5 18 13.5t16 11.5q6 12 34 40q23 25 24 27q4 5 23 28t18 25q14 12 25 28t21 31l20 30q2 2 8 9t17 9q1 0 3 -2t5 -1q2 -4 4.5 -8.5t3 -8.5t-1.5 -10q-5 -6 -9.5 -12.5t-9.5 -12.5l-7 -3q-1 -3 -2.5 -5.5t-6.5 -5.5q-88 -119 -160 -197
q-3 0 -4.5 -2.5t-3.5 -2.5q-3 -7 -13.5 -17t-13.5 -16q-5 -1 -8 -5t-5 -6q-31 -25 -63 -46q-11 -2 -14 -6l-10 -2q-3 -2 -3 -3q-28 -8 -51 -8q-24 0 -40 8q-11 4 -20 11.5z" />
    <glyph glyph-name="F" unicode="F" horiz-adv-x="480" 
d="M240 -172q-6 4 -7 13q-1 5 2.5 15.5l5.5 16.5l8 47q1 4 0.5 7.5t0.5 6.5q10 53 18 154l2 26q0 1 1 3t1 4q2 15 2 26.5t1 19.5q1 11 1 33l-1 63q-9 1 -20.5 -1.5t-16.5 -3.5q-1 -1 -2.5 -2t-2.5 -1q-4 -1 -7 0t-7 0q-2 -1 -8 -3t-11 -2q-6 0 -14 6q-1 2 -2 5t-3 4
q1 3 1 6.5t1 5.5q3 2 8.5 6.5t11 6.5t10.5 0q12 4 38 8l23 3q0 48 -6 100t-17 95q-68 -25 -123 -25q-73 0 -107 41q-2 2 -3.5 5.5t-3.5 5.5l-3 3q-3 6 -6 16.5t-5 15.5q0 6 2 20l1 20q3 3 4 3q0 7 3.5 13.5t3.5 10.5q2 0 3.5 1t2.5 0q3 9 11 17l11 11q2 1 7 2t6 5q2 0 3.5 1
t3.5 0q1 0 0.5 1.5t1.5 2.5q6 0 14.5 3.5t15.5 4.5q5 1 15 1q14 0 32 -3.5t25 -4.5q7 -6 29 -14q5 -7 12 -8q6 -9 24 -21q6 -11 13 -19q11 -15 16 -28q5 -4 8 -14t6 -15q16 6 46 20l29 13q0 1 1 2t2 1q81 40 152 88q21 14 65 50q16 14 32 26q8 6 52 42l27 22q2 2 5.5 4
t5.5 4q3 2 4.5 4.5t3.5 4.5q3 2 6.5 4t7.5 5l18 16q3 3 6 6.5t8 6.5q26 0 27 -18v-2q0 -6 -3 -10.5t-7 -7.5t-5 -4q-59 -53 -97 -81q-4 -4 -9.5 -8t-11.5 -9l-20 -17l-28 -23l-22 -17q-12 -8 -18 -13q-3 -3 -13 -9q-4 -2 -6.5 -5.5t-6.5 -5.5l-28 -18q-28 -16 -40 -25
q-1 1 -2 0t-3 -1q-79 -48 -165 -83q24 -98 26 -202q15 0 49 4q42 4 63 4q19 0 37 -3q6 -6 6 -12q0 -7 -7.5 -14t-14.5 -10q-9 1 -26 1q-48 0 -105 -10q0 -110 -8.5 -204.5t-27.5 -198.5q-4 -29 -11 -38q-2 -2 -5.5 -3t-4.5 -4q-12 4 -18 8zM191 608q-15 13 -33 19
q-4 1 -11 5t-12 6h-3q-33 0 -48 -3q-1 -3 -9 -5.5t-8 -6.5q-1 0 -2.5 -1t-2.5 0q-4 -6 -8.5 -10t-7.5 -8q-2 -6 -4 -11t-4 -11q-1 -3 -1 -9q0 -11 9 -31q26 -31 81 -31q47 0 111 22q-12 42 -47 75z" />
    <glyph glyph-name="G" unicode="G" horiz-adv-x="490" 
d="M152 -184q-4 2 -7 2t-4 1q-4 2 -9 7.5t-10 4.5q-3 3 -7.5 8.5t-9.5 6.5q-2 5 -7.5 10.5t-7.5 11.5q-10 10 -17.5 29t-11.5 27q-4 3 -6.5 14.5t-6.5 14.5q-1 5 -3.5 15.5t-7.5 18.5v2q0 3 -1.5 7t-2.5 6l1 6q-1 2 -2.5 4t-1.5 4q-1 4 -1.5 12t-4.5 11q-1 9 -3 29t-8 36
q0 42 -8 61q1 4 1 13l-1 23q-2 24 -1 35q-3 5 -3 12q0 6 1 11t1 10q0 7 -3 10q2 6 2.5 16t1.5 15q0 2 -2 4t-2 4q2 7 2 19q0 11 -1 16q4 4 4 14l-1 22l4 17q2 32 3 36q6 12 5 21q3 1 3 7.5t1 10.5q4 16 9 23v4q0 7 2.5 12.5t3.5 7.5v3q0 2 1.5 5t0.5 7q2 0 2 2t2 1
q1 6 7.5 18t8.5 19q6 2 9 10t5 12q11 9 20 20q14 18 24 24q2 0 2 3q19 12 31 23l23 10q21 12 42 16q1 0 4 3q7 -1 21 1q12 2 20 1q1 1 3 1q3 0 8 -1.5t10 0.5q69 -12 106 -78q10 -25 10 -48q0 -21 -9 -38q-3 -3 -12 -3q-8 0 -12 5h-6q0 2 -2.5 3.5t-2.5 2.5q3 15 3 28
q0 28 -18 52q-11 15 -36 28q-9 5 -12 5q-20 5 -28 5q-5 1 -16 1q-6 0 -14.5 -3t-12.5 -4q-2 -1 -13 -3.5t-18 -7.5q-1 -1 -1.5 -0.5t-0.5 1.5q-4 -3 -21 -13q-9 -5 -17 -11t-13 -14q-22 -10 -27 -30q-9 -7 -14.5 -16.5t-12.5 -26.5q-2 -4 -5 -12t-7 -13v-7q-7 -8 -9 -23.5
t-3 -21.5q-4 -16 -7 -33t-2 -27q-3 -3 -3 -7l1 -12q0 -2 -1.5 -3.5t-2.5 -3.5q-2 -56 -2 -87q0 -37 4 -61q0 -2 -1 -4.5t-2 -4.5q1 -5 2 -12t1 -11q0 -17 4 -28q-1 -2 -1 -9q0 -8 2 -20.5t1 -19.5q3 -7 5 -26q2 -23 9 -35q-1 -2 -1 -4t-1 -3q3 -10 7 -30q8 -34 15 -50
q6 -24 23 -58q0 -2 1.5 -2t1.5 -1q1 -3 7 -14.5t15 -17.5q7 -15 24 -23.5t33 -6.5q2 0 3.5 1t2.5 2q17 2 31 10.5t31 23.5q16 13 17 14q2 6 10 13.5t10 15.5q4 3 8 10t7 9q0 2 -1 3q11 12 18 35t8 27q1 3 3 7t2 6q1 7 2 14.5t2 14.5q3 18 3 36q0 56 -23.5 103.5t-62.5 72.5
l-1.5 1t-0.5 3q-8 5 -23 14.5t-25 19t-15 21.5q-1 10 -1 22q1 2 4.5 6.5t2.5 7.5q20 20 56 29t68 10.5t90 2.5q1 0 2 1t1 2q4 -1 14 -1q12 0 21.5 1t16.5 2q18 3 36 3q10 0 15 -1q5 0 11 -3.5t7 -8.5q1 -2 0.5 -5t2.5 -5q-6 -11 -12 -17t-17 -5q-3 0 -9.5 2t-9.5 2
q-10 1 -26 -0.5t-25 -2.5q-31 -3 -60 -3l-39 -2q-73 -4 -109 -25q9 -11 35 -29q12 -9 21 -16t16 -12q31 -31 50 -65q30 -67 30 -131q0 -23 -8 -65q-1 -4 -2.5 -11t-3.5 -11q0 -1 -1.5 -2t-1.5 -2q-2 -8 -6 -21t-8 -21q-4 -7 -10.5 -17.5t-8.5 -17.5q-2 -2 -6.5 -7t-6.5 -12
q-44 -54 -95 -80q-3 -1 -18 -5t-29 -4q-11 0 -17 2z" />
    <glyph glyph-name="H" unicode="H" horiz-adv-x="506" 
d="M22 -268q-11 0 -21 12q-3 25 9 54l2 15q2 3 3.5 4.5t2.5 3.5q0 1 -0.5 2t0.5 3q0 2 3 8t1 13q5 4 6 12.5t2 12.5q0 2 1.5 4t1.5 3q4 8 8 30q4 18 7 26q0 3 3 11.5t4 14.5q1 4 2.5 12t3.5 13q1 1 0.5 1.5t-1.5 0.5q4 7 6 19t4 20q0 1 1.5 2.5t2.5 1.5q0 2 -0.5 6.5
t0.5 7.5q1 4 3.5 12t3.5 14v14q2 9 4.5 16.5t4.5 12.5v7q0 11 4 15q1 19 7 53q6 28 7 47q5 18 7 36q2 15 6 33q-2 4 -2 6q4 14 6 39q4 29 7 36q-3 6 -3 12q0 5 4 11l-1 5q0 4 1 8.5t2 7.5q1 4 0.5 10.5t0.5 10.5q2 6 2 8q1 3 0 5.5t0 5.5q2 14 4 36q0 12 1 20.5t2 14.5
q0 7 1.5 23.5t0.5 29.5q0 2 1 4t1 3q1 4 1 12.5t1 14.5q2 12 2 21q0 8 -2 13q1 7 3.5 21.5t2.5 25.5q0 8 -1 12q1 7 2.5 16.5t1.5 16.5q0 10 -2 15q1 8 7 12.5t14 4.5q7 0 13 -5t7 -14v-1q0 -1 -2 -4t-2 -5q0 -1 1.5 -3t0.5 -3l-1 -7v-5v-8q0 -6 -1 -11q0 -3 -1.5 -6
t-1.5 -5q0 -3 1 -8.5t-2 -8.5q1 -17 -2 -40q-3 -27 -3 -29t2 -8q-3 -14 -5 -42q0 -5 -1 -14.5t-2 -16.5q0 -2 1 -2.5t1 -1.5q-2 -4 -2 -6t1 -5.5t0 -6.5q-1 0 -1 -2t-2 -1q1 -7 -1 -19.5t-2 -21.5t2 -13q0 -1 -1 -2t-2 -1l-3 -26q-4 -22 -4 -34q0 -2 1 -3t1 -2q0 -3 -3 -9
t-3 -9q-1 -1 0.5 -2.5t1.5 -2.5q1 -6 -2 -19.5t-3 -18.5q0 -4 -2.5 -11.5t0.5 -13.5l-2 -2t-1 -3q1 -8 -2 -21.5t-3 -19.5t1 -9q-3 -5 -4 -12.5t0 -12.5q-5 -6 -5 -16v-15q-1 -3 -2 -4.5t-2 -3.5t-0.5 -6t-0.5 -7q0 -6 -4 -19.5t-2 -21.5q0 -2 -3 -3q0 -14 -4 -29
q-1 -2 -0.5 -6t-0.5 -6v-1q0 -2 -2.5 -7t0.5 -6q-1 -3 -2.5 -4.5l-2.5 -2.5q-2 -20 -8 -48q14 25 27 58q4 1 5.5 7t2.5 9q1 2 4.5 5.5t1.5 4.5l25 40q1 0 0.5 1t-0.5 2q1 0 2 -0.5t1 0.5q3 7 6 12.5t6 10.5q4 3 13 17q10 16 17 21q5 12 13.5 21t9.5 11q11 12 22 28
q4 2 18 17q9 13 19 19q3 7 8.5 11.5t10.5 8.5q2 6 10.5 14.5t9.5 14.5q3 3 13 12.5t13 18.5q11 10 19 24q11 17 13 19q0 23 2 40q-2 4 -2 7q0 5 1 9.5t2 7.5v4q0 4 -1 11.5t0 12.5q1 2 2 3.5t1 4.5q1 4 0 15t0 16q4 23 5 40q6 54 13 74q0 20 2 27q0 2 6 10q1 3 1 8t1 7
q0 1 1 2l2 2q1 2 0.5 3.5t-0.5 2.5q4 9 11.5 17.5t14.5 9.5q35 6 43 -59q1 -3 2 -7.5t1 -10.5q1 -9 0.5 -19t0.5 -19q0 -6 1 -8q-4 -61 -25 -118q0 -16 -17 -44q-2 -5 -3.5 -11t-3.5 -11q-11 -16 -12 -19q-1 -2 -2 -5t-2 -5q-2 -3 -5.5 -9t-4.5 -12t-1 -15q0 -5 0.5 -13
t2.5 -13q-3 -3 -3 -9q0 -5 1 -9.5t1 -9.5q1 -5 0 -11.5t-1 -10.5q0 -7 3 -13q-3 -6 -3 -15q0 -7 4 -19q-3 -3 -3.5 -6.5t-0.5 -5.5q2 -3 2 -8v-6t1 -8v-32q0 -90 11 -217l2 -29q2 -4 3.5 -9t-2.5 -8q5 -19 5 -41q2 -6 2 -19q0 -21 2 -33q2 -6 6 -16t2 -20q-1 -7 -8 -13
t-14 -7q-6 0 -9.5 3t-5.5 8t-4 8q-1 5 -1 15v16q0 10 -1 14l-4 8q0 5 1 10.5t0 9.5t-1 13q0 3 -0.5 10t-5.5 16q2 4 2 10q0 7 -3 12q1 3 1 7q0 5 -2 15q0 4 0.5 8t-0.5 6q0 3 -2.5 9t1.5 11q-2 7 -2 20q0 3 -1 12t-4 18q3 5 1.5 15t-1.5 15q0 4 2 8q-4 8 -4 20q0 9 1 13
q-1 1 -1 4.5t-1 4.5q1 6 1 18q0 26 -5 44q3 9 3 18q0 7 -1 13t-1 13t1 11q-2 17 -2 48v33q-1 5 -2.5 14.5t1.5 13.5q-8 -4 -8 -11q-12 -7 -20 -23q-6 -4 -16 -16q-8 -11 -18 -18q-4 -10 -12 -13q-6 -8 -30 -35q-2 -3 -15.5 -18t-23.5 -33q-4 -3 -7.5 -7t-4.5 -9
q-13 -15 -21 -29q-27 -38 -37 -63q-15 -24 -39 -78l-24 -51q-12 -34 -20 -48q-18 -53 -36 -99q-1 -9 -8 -21q-8 -18 -9 -25q-11 -21 -22 -27h-3zM459 585q8 41 8 77q0 25 -4 41v-2l-1 -1q-1 -7 -5 -20t-4 -23q0 -7 1 -10q-6 -8 -6 -23q0 -2 -1 -9t-4 -12q1 -4 1 -12
q0 -14 -3 -31q-1 -6 -2 -14t-1 -18l1 -10q12 26 20 67z" />
    <glyph glyph-name="I" unicode="I" horiz-adv-x="433" 
d="M508 -170q-1 6 -7 9t-8 5q-1 1 -1 2.5t-1 2.5t-4 1l-9 12q-3 0 -3 -1q-6 8 -16.5 17.5t-14.5 13.5t-10.5 11t-14.5 11q-1 4 -4 7l-10.5 10.5t-12.5 10.5q-4 7 -14 17q-13 13 -16 19q-1 1 -2.5 3t-4.5 2q-1 7 -9.5 17.5t-10.5 18.5h-5q-5 15 -15 31t-13 21q-7 -10 -13 -25
q-14 -28 -24 -39q-1 -6 -8 -14.5t-8 -14.5q-5 -5 -11.5 -12.5t-9.5 -11.5q-8 -10 -17 -20t-19 -16q-18 -21 -45 -35.5t-54 -14.5q-16 0 -31 6q-3 2 -7 6t-8 3q-1 3 -4.5 5t-5.5 4q-1 1 -1.5 3.5t-1.5 3.5l-5 4q-3 4 -6.5 12.5t-5.5 13.5l-3 3q0 5 -1 8l-3 12q0 1 -0.5 0.5
l-0.5 -0.5q-1 0 -1.5 5t-3.5 6q2 6 2 11q0 6 -4 9q2 3 2 10q0 5 -1 11.5t-1 12.5t1 9q-3 3 -3 7q0 3 1 7t1 7q0 6 1 13t0 12q3 5 3 8l-2 8q7 11 5 16q3 8 10 30t17 39q0 6 3 11t7 9q10 10 11 20q3 2 13 8.5t18 6.5q4 0 9 -3q4 -4 4 -9q0 -7 -5.5 -15.5t-6.5 -10.5
q-5 -5 -8 -5v-7q-1 -2 -5 -5t-3 -8q-6 -3 -8 -12.5t-7 -12.5q0 -1 1 -2.5t0 -3.5q-5 -2 -6 -10t-1 -10q-1 -3 -2.5 -4.5l-2.5 -2.5q-2 -5 -2.5 -13.5t-0.5 -13.5q-3 -6 -3 -8q0 -3 -1 -6.5t-2 -6.5q0 -2 1 -5t1 -5q0 -5 -1.5 -9t-1.5 -9t3 -8q-1 -2 -1.5 -6.5t-0.5 -8.5
q0 -2 1 -3.5t1 -2.5q-1 -3 -1 -8q0 -8 6 -24q1 -35 30 -60q12 -2 17 -2q20 0 36 9.5t29.5 21.5t19.5 17l9 9t10 12q16 19 32 43.5t20 31.5q4 10 14 30q11 18 18 39q-3 3 -6 17.5t-9 17.5q0 14 -5 16q-5 23 -19 61l1 4q0 6 -3 11.5t-4 7.5q2 8 -0.5 16t-2.5 10q-4 14 -4 23
q1 2 -1 2t-2 1q0 3 1 8q-3 3 -3.5 10.5t-2.5 9.5q0 10 -3 22t-4 19q3 3 2.5 6.5t-4.5 4.5l1 11q0 9 -4 13q1 2 1 7t-1.5 11.5t-2.5 12.5q0 3 1 5t1 5q-3 5 -3 14q0 12 -3 17q1 5 1 15q0 13 -1 20q0 2 -3 2q2 4 2 5t-1 3.5t2 5.5q-2 6 -2 9t0.5 8.5t-1.5 9.5q2 8 2 23l-1 29
q3 5 4 11.5t-2 9.5q1 1 4 8.5t-1 12.5q1 4 4 10.5t1 9.5q0 3 3.5 11t1.5 11q11 21 14 35l4 4l4 4q4 15 32 34q2 2 6 5t10 4l13 1q18 0 22 -6q43 -11 67 -77q1 -1 2 -4t3 -4v-5q26 -73 26 -165q0 -47 -6 -94q-3 -28 -10.5 -61t-15.5 -63l-8 -33q-3 -9 -6.5 -17t-5.5 -15
q-11 -42 -14 -52q-5 -13 -28 -70q3 -6 6.5 -16.5t9.5 -15.5q1 -4 1 -7q49 -85 98 -126l1 -5q1 -1 41 -38q42 -42 68 -59q1 -2 1 -5t-1 -7.5t0 -8.5q-3 -1 -4 -3.5t-2 -3.5t-5.5 -1t-5.5 -3q-2 1 -23 10zM311 199q6 16 8 24q1 0 0 0.5t0 1.5q1 3 3 6.5t3 5.5l6 27q2 8 5.5 17
t6.5 20q2 13 7 31t7 27q2 6 3 16t2 16q0 1 1 2t1 2q0 12 3 21q2 9 3.5 23.5t2.5 21.5q2 4 2 7q1 9 0.5 15.5t-0.5 11.5t2.5 14t1.5 14q-1 6 -1 16q-4 63 -19 119q-2 5 -4.5 16.5t-8.5 18.5q1 3 -1 7q-22 47 -48 47q-9 0 -16 -4t-11.5 -14t-6.5 -13q-8 -15 -12 -24.5
t-2 -19.5q-5 -3 -5 -10t-1 -11q0 -2 -1.5 -3.5t-2.5 -3.5v-3l1 -12q-1 -4 -2.5 -10.5t-1.5 -11.5l2 -8q-2 -6 -2 -19q0 -8 1 -21.5t0 -21.5q-1 -21 3 -61q1 -7 2 -16.5t1 -22.5q1 -6 2.5 -11.5t2.5 -11.5l2 -25q1 -6 3 -12.5t3 -12.5q1 -5 0.5 -10.5t0.5 -10.5l15 -77l4 -4
q-1 -5 0.5 -10.5t3.5 -10.5q4 -12 4 -21q5 -4 6.5 -17t6.5 -18q0 -9 5 -12q3 13 9 26z" />
    <glyph glyph-name="J" unicode="J" horiz-adv-x="565" 
d="M62.5 -218q-6.5 2 -10.5 3q-21 9 -33.5 32t-15.5 52q-3 17 -2 32q0 5 1 9.5t1 10.5q1 15 9 43q4 21 14 40l8 23l14 21q17 31 34 45q3 8 14.5 18t14.5 15q105 92 216 102q5 7 1 11q4 7 5.5 16t2.5 12q2 18 6 25q-1 2 -1 7q0 10 4 14q0 10 2 20.5t3 14.5q6 28 5 44
q3 6 4 14t1 11q0 11 3 21q-1 1 -1 2t-1 1q4 12 4 33q0 22 2 34q-3 5 -1.5 11t1.5 10q0 5 -2 8q3 5 3 12q0 6 -1 12.5t-1 12.5l1 18q0 12 -5 17q2 12 7 20t13 8q6 0 9 -2q2 -3 5.5 -8t4.5 -11v-3v-9q0 -7 3 -9q-2 -12 -2 -19q0 -6 2 -16q-2 -8 -2 -10q0 -5 1 -10.5t1 -10.5
q0 -8 -2 -12q0 -71 -8 -114q-1 -2 0.5 -3t1.5 -3q-7 -16 -5 -28l-12 -73q-2 -9 -5 -19t-4 -15q0 -2 1 -5t0 -5q-1 -4 -3 -10t-1 -11q60 -1 130 -8l41 -3q4 0 9.5 -2t8.5 -1h5q7 0 10 -3q2 1 6 1q6 0 12 -3.5t10 -4.5q2 -8 7 -12q1 -11 -8.5 -19t-20.5 -8q-13 0 -19 10l-5 -1
q-4 0 -9 1.5t-9 2.5q-27 1 -73 5q-8 1 -22.5 3t-27.5 2h-21q-14 0 -22 1q-2 -2 -4.5 -1.5t-4.5 0.5q-9 -11 -8 -24q-7 -23 -8 -34q-3 -6 -4 -7q1 -7 -4 -20t-5 -19q-11 -23 -13 -38q-6 -8 -10 -24q-7 -21 -13 -27q0 -3 2 -5q-1 -2 -3 -5t-2 -7q-9 -9 -16 -27q-8 -20 -16 -27
q-1 -2 -0.5 -3.5t-0.5 -2.5q-3 -5 -7.5 -15t-11.5 -14q0 -2 -1.5 -3.5t-0.5 -3.5q-5 -3 -11.5 -13.5t-12.5 -13.5q-2 -8 -7 -9q-1 -2 0 -2.5t1 -1.5q-7 -1 -9 -5l-3 -6l-6 -2q-9 -10 -16 -16t-17 -9q-2 -4 -7 -6t-8 -4q-5 -3 -10.5 -4.5t-9.5 -3.5l-6 -4q-10 -5 -41 -5
q-6 0 -12.5 2zM131 -168q4 3 16 10.5t16 15.5q6 2 11 8t9 9q0 1 -0.5 2t0.5 2q18 16 30.5 35t29.5 52q11 21 13 25v8q6 8 8 13q1 0 0 2t0 3q8 8 14 30q7 22 12 29q-1 8 5 22q7 13 5 22q3 4 5 10.5t1 12.5q0 1 2.5 4.5t1.5 10.5q3 3 4.5 7.5t-0.5 7.5q4 3 4 7.5v6.5
q-2 0 -5.5 -1t-7.5 0q-7 -2 -19 -5t-19 -7q-10 -2 -21 -7t-14 -7q-15 -9 -27 -13q-3 -4 -14 -9q-52 -36 -87 -79t-53 -100q-9 -38 -9 -71q0 -23 6 -44q3 -4 6.5 -10t6.5 -9q8 -6 24 -6q9 0 29 4q6 6 17 9z" />
    <glyph glyph-name="K" unicode="K" horiz-adv-x="529" 
d="M32 -323q0 15 9 53q1 4 1 10t1 10q1 5 4 14.5t2 18.5q3 3 4 11.5t3 11.5q1 2 0.5 4t-0.5 3q4 11 8 39q4 24 7 34q-1 36 2 73q0 39 -6 119l1 10q-1 6 -2.5 12t-2.5 13q-1 1 0 2.5t1 2.5q-2 18 -9 46q0 2 0.5 5t-0.5 7q-1 1 -2 2.5t-2 3.5q-2 7 -3.5 17.5t-3.5 16.5
q-1 1 -3 3.5t-1 7.5q-1 1 -2 1t-1 1q-2 10 -7 19t-10 17q-9 12 -14 24q0 3 -4 5q-1 5 -1 11.5t-1 10.5q5 13 16.5 18.5t30.5 9.5q18 4 25 8q6 0 24 2q13 3 32 3q0 9 1.5 19t2.5 18t0 22t-1 19q0 2 1 3t1 3q2 6 2 19l-1 22q0 5 2 17q0 3 -3 3q4 24 4 38q0 10 -2 28q0 1 3 4
q1 5 0 12t-1 12q0 8 3 15q0 2 -3 2q4 4 4 11q0 4 -1 9.5t0 9.5q0 6 2 19t3 20q0 1 -1 2l-1 1q2 8 6.5 13t11.5 5q4 0 10 -3q1 -2 2 -5t4 -4v-4q0 -8 4 -15q0 -2 -1 -7t-3 -7q1 -5 1 -14l-1 -23q-2 -20 -1 -29q-2 -10 -2 -13l1 -16q0 -2 -1.5 -3.5t-1.5 -2.5v-2q0 -3 1 -4.5
t2 -3.5q1 -9 -1 -23.5t-3 -22.5q0 -1 1 -2t1 -3t-1 -3.5t-1 -4.5t1 -4.5t1 -3.5q0 -3 -1.5 -6t-1.5 -5q0 -3 1.5 -9t-3.5 -9l3 -6q-4 -37 -4 -83q33 5 59 16q29 6 88 28l2.5 2.5l2.5 2.5q23 8 42 19q5 3 12 8t15 10q6 2 9 4l8 6q2 1 3 0.5t2 -0.5l10 8l16 8q4 3 9 7t8 6
q7 4 35.5 21t50.5 34q8 2 10 2q9 0 13.5 -4.5t4.5 -11.5q0 -14 -12 -23q-2 -2 -8 -5q-7 -5 -19 -12.5t-16 -12.5q-10 -2 -14 -8q-7 -2 -8 -5q-7 -3 -25 -14q-12 -9 -22 -13q-3 -3 -11.5 -8t-11.5 -9h-6q-20 -14 -47 -27q-1 -2 -6.5 -4.5t-7.5 -5.5q-2 0 -4 -1t-4 0l-6 -6
q-9 -3 -15.5 -5.5t-10.5 -4.5q-25 -11 -44 -14q-6 -3 -22 -8q-17 -4 -22 -8q-2 1 -5.5 0.5t-4.5 -0.5t-1 -1.5t-1 -1.5h-3h-4q-8 0 -10 -5h-3q-6 0 -15 -2.5t-13 -1.5q0 -5 -1 -10t-2 -8q8 2 11 2q21 0 42 -23q26 -30 47.5 -68.5t50.5 -96.5q3 -5 16 -31q9 -18 25 -56
q31 -72 58 -116.5t70 -73.5q7 -3 25.5 -12.5t36 -14.5t34.5 -5q25 0 53 7l36 9q6 4 30 16q4 4 14.5 10.5t14.5 12.5q2 1 4 0q3 5 4 6q21 15 37 34q9 8 27 30l21 24q-1 2 0 3t1 2q7 5 14 16t12 17q16 19 20 29q1 3 3 9.5t8 9.5h4q12 0 18 -8q0 -4 1.5 -6t2.5 -3
q1 -10 -4.5 -20.5t-7.5 -17.5q-8 -9 -22 -29q-6 -11 -13 -19l-6.5 -6.5t-6.5 -9.5q-9 -6 -16.5 -17t-9.5 -14q-5 -2 -8.5 -7.5t-5.5 -7.5q-37 -39 -93 -78q-38 -16 -67 -24t-63 -8q-49 0 -115 36q-7 5 -12.5 9.5t-10.5 8.5q-15 10 -18 13q-1 1 -2 3t-1 3q-1 1 -2.5 1t-2.5 1
q-2 2 -15 17q-10 13 -26 39l-2 2l-2 2q-3 3 -6 10t-4 10q-24 42 -32 67l-41 89l-20 42q-2 2 -4 5.5t-4 5.5q1 2 0 3.5t0 3.5l-18 31q-20 34 -34.5 55.5t-32.5 39.5q-10 -6 -16 -3v-4q0 -6 -1 -10q-1 -5 -0.5 -13.5t-0.5 -13.5q-1 -1 -3 -6t1 -11q-4 -21 -8 -65
q-1 -8 -4.5 -38.5t-10.5 -56.5q1 -1 1 -3t1 -3q-4 -6 -4 -18t-1 -17l-2 -2t-1 -3q0 -1 1 -4t0 -5q0 -1 -1 -2l-2 -2q-4 -38 -7 -57q-2 -9 -5 -26.5t-4 -31.5q0 -15 -1 -25q0 -8 -2 -22t-2 -23q0 -6 -2 -15t-3 -18q0 -8 -4 -24t-6 -23q-9 -36 -17 -60q-2 -2 -6 -4.5t-5 -5.5
q-3 -2 -10.5 -0.5t-8.5 -0.5q-9 9 -9 27zM107 118q1 6 1 12q0 7 -1 10q6 9 6 25q0 6 -1 8q5 14 7 59q1 9 3 21t2 19l-1 7q0 6 2 20t1 19q-5 2 -6 0q-10 1 -19.5 -1.5t-17.5 -2.5q-5 -2 -10 -3.5t-10 0.5q-4 -3 -10 -4.5t-9 -2.5q1 -6 5 -10t5 -6l11 -22q9 -15 13 -27
q10 -29 15 -56t13 -76q0 5 1 11z" />
    <glyph glyph-name="L" unicode="L" horiz-adv-x="543" 
d="M9 -196q-2 3 -5 5q-3 4 -3 13q0 8 5 31q8 15 26 37l13 18q6 4 12.5 10t10.5 14q1 -2 2 0t3 0q8 9 24 19q12 8 18 13h1q3 0 6.5 2t6.5 2q18 15 41 65q31 55 60 118.5t66 153.5q12 26 17 39q6 14 28 70l27 66q2 4 3 8t1 6l21 48q9 30 28 78q19 49 24 65q3 7 5 16t4 13
q9 7 18 7q7 0 11 -5q2 -4 3.5 -10t3.5 -10q-14 -40 -24 -62q0 -2 -3 -11q-3 -14 -11.5 -35t-11.5 -27q-4 -10 -10 -30l-11 -31l-14 -30v-2q0 -7 -8 -20q-2 -6 -5.5 -15.5t-8.5 -18.5q0 -3 -2.5 -6.5t-3.5 -6.5l1 -5q-1 -2 -3 -4t-3 -4q0 -1 1 -2t0 -2q-1 -4 -6 -11t-3 -13
q-8 -13 -15 -34q-9 -23 -14 -31q-7 -13 -13 -34q-3 -8 -11 -24t-11 -24q-2 -3 -3 -8.5t-2 -8.5l-2 -2l-2 -2q-2 -4 -3.5 -10t-4.5 -9q-3 -6 -7.5 -15.5t-6.5 -16.5l-17 -36q0 -4 -4.5 -11t-5.5 -13q-4 -6 -24 -44q-9 -19 -23 -42q1 -2 4 -2t3 -1q3 1 8 1q4 0 11 -1t13 0
q3 0 10 1t13 0q3 -1 6 -2.5t6 -2.5h1q5 0 9 2q1 -1 8 -5t16 -2q9 -5 22 -7.5t17 -3.5q26 -4 40 -10q3 0 5.5 1t4.5 0q7 -4 25 -6q14 0 22 -4h2q2 0 6 1t7 0q2 0 6 -4h2q3 0 9 2l3 -3q2 -2 4 1q2 0 3 -1.5t2 -0.5q3 -1 6 0t5 0q5 0 11.5 -1.5t10.5 2.5q32 -2 50 -2q33 0 54 4
q3 -3 8 -2t9 -1q5 -10 7 -19q-2 -6 -6.5 -9t-10.5 -5t-10 -4q-3 2 -8 2q-10 -3 -34 -3h-22q-13 0 -19 -1q-2 0 -3 1t-3 1q-4 0 -7 -3q-6 3 -7 4q-15 -2 -36 1t-25 3q-2 0 -4 -2q-1 1 -3 1t-3 1q-12 3 -23.5 4.5t-21.5 3.5q-35 5 -63 12q-5 1 -13 3t-12 1q-3 1 -15 5.5
t-25 4.5q-5 5 -13 5l-11 -1q-4 0 -9.5 2t-7.5 0q-10 2 -15 2q-12 0 -26 -4t-21 -5q0 -3 -1 -4.5t-4 -3.5q-12 -23 -35 -52l-21 -31l-14 -15q-18 -16 -29 -31q-8 0 -11 -8q-3 -1 -12.5 -4t-16.5 -3t-10 2q-2 2 -4 5z" />
    <glyph glyph-name="M" unicode="M" horiz-adv-x="1435" 
d="M1129 -73q-3 2 -6.5 5.5t-7.5 6.5q-1 1 -2 0.5t-2 -0.5q-32 27 -62 91q-53 102 -68 315l-2 40q-2 77 -11 118q-7 36 -15 60.5t-23 35.5q-4 4 -13 4q-7 0 -13 -3q-17 -9 -21 -15q-2 0 -3 -1t-2 -1q-4 -5 -15 -13.5t-15 -13.5l-5 -10q-1 -1 -2.5 -1t-2.5 -1l-2 -5
q-12 -10 -14 -12q-4 -5 -10.5 -14t-13.5 -15q0 -2 -5 -10l-7 -12q-2 -2 -5.5 -5t-4.5 -5q-2 -3 -3 -7t-3 -7t-5.5 -5t-5.5 -5q-1 -2 -0.5 -4.5t-0.5 -4.5q-3 -6 -8.5 -12.5t-8.5 -10.5q-2 -7 -7.5 -16.5t-7.5 -17.5q-2 -1 -4.5 -7.5t-5.5 -8.5v-7q-11 -13 -13 -23
q0 -1 -5 -6q-4 -14 -12 -28q-2 -4 -7.5 -17t-7.5 -25q-6 -5 -11.5 -19t-8.5 -19q0 -8 -6.5 -19t-4.5 -18q-5 -3 -8 -11t-4 -11t-3.5 -8t-2.5 -7q-1 -2 -1 -6.5t-1 -6.5l-5 -3q-1 -2 -0.5 -4t-0.5 -4q0 -1 -1.5 -2t-2.5 -2l-2 -9q-7 -18 -16 -37v-7q-14 -25 -20 -43
q-4 -1 -6 -11q-4 -3 -9.5 -8t-11 -8t-12.5 -3t-12.5 5t-8.5 7q-14 52 -14 121q0 32 4 90l1 27q3 78 3 153l1 67q0 59 -9 104t-21 47h-2q-4 0 -8 -3t-8 -3q-3 -4 -17 -21q-18 -18 -23 -31q-9 -5 -15 -17l-7 -14q-14 -14 -24 -37q-15 -15 -20 -34q-11 -16 -16 -33
q-5 -3 -9 -14t-8 -14q-3 -10 -11 -28q-12 -24 -14 -39q-4 -4 -7 -12t-3 -13q-3 -3 -4.5 -8.5t-2.5 -7.5l-7 -14q-1 -2 0 -4.5t1 -4.5q-3 -1 -6 -8.5t-5 -9.5q0 -2 0.5 -5t-0.5 -6q-1 -7 -5.5 -14t-6.5 -11l-2 -16q-1 -3 -4 -9t-2 -12q-3 -9 -9 -26t-7 -30q-4 -4 -5.5 -11.5
t-0.5 -13.5q-5 -7 -11 -31q-4 -16 -7 -24q-4 -27 -14 -57l-9 -32l-9 -8q-2 -1 -4.5 -1t-4.5 -2l-10 1q-8 6 -11 17t-3 28l1 33v139v72q0 14 -1 21l-1 22q0 33 -1 50q0 51 -1 76q-4 87 -21 206q-5 41 -17 77q-1 3 -6.5 17t-14.5 23q-14 1 -21.5 -5.5t-16.5 -21.5
q-2 -3 -6.5 -9.5t-9.5 -10.5h-3q-9 0 -16 7q-2 8 -2 10q0 9 5.5 20t7.5 17q11 5 13 14q7 3 22.5 10t29.5 7q7 0 11 -1q15 -7 23.5 -20t17.5 -37l8 -19q19 -74 27 -166.5t11 -203.5q2 -72 2 -227l6 22q3 18 10 33v2q0 3 1.5 7t0.5 8q4 5 7 18.5t6 18.5l1 9q3 5 6.5 17t7.5 18
v2q0 2 1 5t0 5q4 4 5.5 12.5t2.5 12.5l4 6l4 6q2 6 4 14.5t4 13.5q4 13 11 27q0 8 7 15q1 2 -0.5 3.5t-0.5 1.5q6 10 19 40q9 23 21 42q1 1 0.5 2.5t-1.5 1.5q9 12 17 33q1 1 6 5.5t5 13.5q6 6 10.5 14t5.5 11q12 22 22 30q1 6 8.5 14t8.5 15q3 1 4.5 2.5t1.5 5.5
q3 1 5.5 4.5t4.5 3.5q3 8 13 18.5t13 16.5q11 5 21 15q6 1 12.5 3.5t11.5 3.5q5 -1 15.5 -4t16.5 -6q11 -12 19 -26q1 0 0.5 -2t0.5 -3q21 -47 21 -159l-1 -98v-4q0 -7 -1 -13.5t-1 -13.5q0 -5 1 -10.5t1 -10.5q-1 -8 -1 -26q-2 -32 -2 -50q-4 -68 -4 -103l1 -32l2 -42
q4 0 7 16q5 3 6.5 9.5t1.5 7.5q9 12 11 29l6 7v2q0 3 2 7t2 7q2 2 4 9.5t5 12.5q3 7 10 20.5t8 24.5q2 5 5.5 12.5t4.5 11.5q4 7 6 12.5t3 8.5q5 16 11 25q0 1 1 2.5t-1 2.5q4 4 5 7q1 7 8 18.5t8 19.5q6 8 6 16q0 2 2.5 3.5t2.5 2.5t1 3t-1 3q3 4 7 7q2 8 6 16.5t7 15.5
q11 16 21 38q19 36 31 49q1 2 0.5 3.5t0.5 3.5q2 1 5 5.5t6 5.5q3 9 13 21q1 1 6 7t7 13q22 20 31 37q22 20 38 39q2 0 3.5 1t3.5 1q1 3 2.5 4.5l2.5 2.5q8 4 20 11.5t22 11.5t21 4q8 0 17 -3l21 -12q11 -11 17.5 -22t12.5 -28q10 -23 14 -45q12 -59 18 -169q1 -26 5 -76
l2 -14q9 -68 21 -122t33 -100q24 -50 56 -83q6 -5 16.5 -11.5t16.5 -9.5q2 -2 3.5 -4t3.5 -4q2 -1 4.5 -0.5t5.5 -0.5t6.5 -3.5t7.5 -3.5q4 0 12 -0.5t13 -2.5q2 0 7 1.5t9 -0.5q35 10 62 29q9 10 16 14q20 21 59.5 77t41.5 76q0 2 1 3.5t2 2.5q2 11 4 15q1 4 5.5 13t3.5 16
q2 2 5.5 9t6.5 11t9 5q1 0 3 -2t5 -1q2 -4 4.5 -8.5t3 -8.5t-1.5 -10l-16 -46q-9 -13 -13.5 -27.5t-5.5 -17.5q-7 -13 -52 -76.5t-56 -71.5q-1 -1 -3.5 -1.5t-3.5 -1.5q-4 -3 -10 -9t-10 -8q-2 -1 -5 -1t-5 -1q-5 -3 -8 -5.5t-6 -4.5q-7 -1 -24 -5t-31 -4q-10 0 -15 1
q-39 6 -80 36z" />
    <glyph glyph-name="N" unicode="N" horiz-adv-x="831" 
d="M530 -142q-11 8 -20 11q-3 5 -12 11.5t-11 14.5l-5 1q-1 2 -2 5.5t-3 5.5q-1 2 -2.5 4t-3.5 6q-1 2 -2.5 2.5t-2.5 1.5q-1 2 -1 5t-1 5q-1 3 -3 4t-3 3q-2 5 -5.5 19t-9.5 21q1 1 1 3q0 3 -1.5 7.5t-1.5 7.5q0 1 -1 2t-2 1q0 3 -1.5 8t0.5 8q-5 3 -4.5 9t0.5 8t-3 2
q0 14 -3 27q0 4 -1.5 12t-0.5 12q-2 4 -2 7t1 9.5t-2 7.5q-1 14 -0.5 24.5t0.5 17.5v5l-1 20v2l1 11q0 5 -3 8q4 13 4 32l-1 31q0 9 1 13q2 3 -2 3q3 21 3 39q0 8 -0.5 20.5t0.5 29.5q0 2 -1 3t-1 2q2 5 2 14q0 4 -2 16q2 6 2 12q0 9 -3 27v5v8q0 13 -4 18q0 2 1.5 4t0.5 4
q0 2 -1.5 2.5l-1.5 0.5q0 1 1 2.5t1 3.5q0 5 -2 14.5t0 15.5q1 2 -0.5 2.5t-1.5 1.5v4q0 6 -1.5 13t-0.5 13q-1 2 -4 2q2 6 2 9q0 5 -3.5 16t-1.5 17q-4 5 -7 19.5t-7 17.5q-1 13 -11 29q-8 16 -9 20l-6 3q0 6 -5 6q-3 8 -13.5 14t-13.5 9q-6 1 -16 1q-11 0 -31 -6l-12 -8
l-12 -8q-1 -3 -5 -6.5t-6 -5.5q-11 -12 -22.5 -28.5t-15.5 -22.5q-1 -2 -2 -5t-2 -5q-14 -21 -17 -27l-2 -6t-2 -5q-4 -8 -5 -11q-4 -9 -9.5 -19.5t-10.5 -22.5q-1 -3 -1.5 -6.5t-1.5 -6.5t-2.5 -5.5t-2.5 -4.5l-9 -31q-1 -3 -4 -10.5t-3 -15.5q-11 -31 -18.5 -65t-16.5 -85
q-3 -12 -7 -36q-2 -10 -8 -38l-16 -86l-6 -35q-12 -62 -24 -92q-5 -1 -7 -5q-2 0 -8 -1.5t-10 0.5q-1 0 -1.5 1t-1.5 2t-2 0t-2 0q-4 4 -5.5 12.5t-3.5 11.5q2 2 1 7.5t0 7.5q0 1 -1 1t-2 1v2q0 3 2 7.5t1 7.5l-2 2t-1 3l2 4q0 2 -1 5t2 5q-2 10 -2 13q0 5 3 9q-2 2 -2 6
q0 3 1 8t0 8l-3 3q0 3 2 7t2 7q1 2 -0.5 3t-1.5 2q2 10 -1 14q3 5 3 8q0 4 -1 7.5t-1 6.5q0 5 3 8q0 2 -1.5 3.5t-1.5 2.5q2 10 2 32q0 23 2 32q0 3 -1.5 5t-1.5 3l3 9l-2 4q0 2 1 4.5t1 4.5q0 1 -1 3.5t0 3.5q0 2 1 4.5t1 5.5v2q0 2 -1 5t-1 6v2q0 2 1 5.5t0 5.5v14
q0 12 2 19q0 1 -1.5 2t-1.5 2q4 7 3 16t-1 13q0 6 1 9q1 2 -1 3t-2 2q3 3 3 10q0 5 -3 8q3 7 3 21l-1 23q0 7 1 10q0 1 -1 2t-2 1q1 8 1 22q0 20 1 32q1 2 -2 2q2 4 2 14q0 6 -1 14.5t0 13.5q-3 3 -2 4q3 9 3 13q0 6 -3 10q1 1 1 4t-1 9t2 8q0 1 -1 2l-2 2q1 7 1 22
q0 12 -2 17q5 35 20 35q3 0 9 -2q6 -5 7.5 -20t3.5 -20q-1 -3 -1 -10t2 -9q-2 -6 -2 -15q0 -13 3 -24q-2 -5 -2 -18q0 -12 2 -28q-2 -6 -2 -9q0 -4 2 -14v-2q0 -2 -1 -5.5t-1 -6.5q0 -2 1.5 -3.5t1.5 -4.5q0 -5 -1 -9.5t-1 -8.5q0 -5 3 -10q-3 -4 -3 -10t1 -10t2 -7
q0 -4 -1.5 -7t-1.5 -6q-1 -7 0 -18.5t1 -19.5q0 -9 -1 -14q0 -2 1 -3.5t2 -2.5q-3 -6 -3 -12q0 -5 1 -9t1 -9q0 -4 -1.5 -8t-1.5 -7q0 -1 1 -2t1 -3v-3q0 -8 -1.5 -15t-1.5 -15q0 -5 1 -11.5t1 -13.5q0 -3 -1 -4.5t-2 -3.5q0 -5 2 -11.5t1 -10.5q0 -3 -1.5 -5t-2.5 -5
q0 -4 1.5 -10t0.5 -10q-2 -32 -2 -50q7 27 17 81q9 49 14 71q0 15 15 70q2 7 4.5 21.5t9.5 26.5q1 11 9 35q6 18 8 28q2 3 3.5 9t3.5 10q15 38 45 99q10 10 11 19q8 8 20 26q6 10 14 20q8 5 13 15q17 17 41.5 28.5t49.5 11.5q16 0 28 -4q11 -8 21 -10q10 -11 19 -15l18 -27
l12 -17q0 -2 1 -4.5t0 -4.5q6 -10 11 -21.5t4 -20.5q5 -6 7 -16.5t2 -13.5q1 -3 2.5 -13t5.5 -16q0 -27 5 -60q1 -7 3 -28.5t1 -39.5q0 -2 1 -3l2 -2q-2 -8 -2 -12q0 -6 1 -11t1 -10q0 -4 -2 -10l2 -2t1 -3q-2 -10 -2 -15q0 -10 1.5 -19t1.5 -16q0 -9 -3 -15q1 -5 1 -17v-23
q0 -16 1 -23q0 -1 -1 -4t-2 -4q1 -2 1 -7t-1.5 -13.5t-0.5 -14.5q1 -5 0.5 -13.5t-0.5 -13.5q0 -10 3 -14q-4 -7 -2.5 -16.5t1.5 -13.5q0 -6 -2 -9q5 -19 3 -47q3 -7 5 -26q0 -18 4 -27q0 -5 -1 -6q2 -6 4 -16t6 -15q4 -31 17 -46q3 -17 14 -30t29 -29q16 -8 30 -8
q28 0 59 25q22 16 49 48l14 16q4 10 13 18q1 5 7 12.5t7 12.5q32 44 59 85l35 51l-1 2q1 3 9 12t11 14q10 21 30 16q11 -6 11 -20q0 -11 -9 -17q-12 -22 -30 -46q-26 -40 -30 -46q-1 0 -2 -2.5t-3 -2.5q-6 -11 -32 -49t-32 -49q-5 -4 -10 -10.5t-8 -10.5q-14 -20 -24 -27
q-2 -7 -11 -14.5t-11 -11.5q-10 -6 -20 -14q-22 -15 -38 -23t-38 -8q-21 0 -43 9z" />
    <glyph glyph-name="O" unicode="O" horiz-adv-x="543" 
d="M165 -176q-21 0 -40.5 8t-33.5 24q-30 35 -46 102q-7 31 -11 79q-2 22 -2 66q0 140 36 271q-69 97 -69 185q0 38 15 78q15 41 25 59q7 14 25 36q16 21 45 40q34 23 56 27q4 4 13.5 6.5t14.5 4.5h2q5 0 10.5 2t7.5 3q2 0 6.5 -1t5.5 3q5 -1 17 0t21 1q10 0 14 -1
q22 -1 42 -7q2 0 4 -2.5t4 -2.5q1 0 2 0.5t2 -0.5q10 -2 26 -11q3 -1 7.5 -4t12.5 -6q22 -17 29 -21q15 -18 27 -29q9 -18 19 -27q2 -12 10 -16q-1 -1 -1 -3t2 -4t1 -5q11 -18 18.5 -42t13 -46l7.5 -30l6 -27l-1 -6q0 -7 1 -12.5t2 -9.5q4 -20 4 -31q0 -1 -1 -3t0 -3
q1 -6 1 -19v-3q0 -3 1 -6.5t1 -7.5q1 -3 -0.5 -9t-1.5 -11q0 -6 2 -9q-4 -4 -4 -11l1 -13q0 -9 -4 -27q-4 -26 -3 -37q-6 -7 -6.5 -20t-1.5 -19q-1 -3 -2 -4.5t-2 -2.5q-2 -7 -2 -12t-1 -8q-1 -1 -2.5 -3t-1.5 -3q-1 -5 -2 -11t-2 -11q-1 -4 -5 -11.5t-3 -13.5
q-9 -15 -7 -25q-1 -3 -3.5 -7.5t-1.5 -10.5q-2 0 -3.5 -2.5t-3.5 -3.5q-17 -49 -31 -74q0 -1 1 -2t0 -3q-4 -4 -11 -18q-9 -16 -13 -20q2 -1 1 -4l-1 -3q-2 -1 -3 -4t-1 -4l-4 -1q-7 -9 -14 -22.5t-11 -20.5q-13 -11 -37 -47q-6 -2 -15 -13t-16 -13q-1 -2 -3.5 -4.5
t-3.5 -5.5q-9 -3 -17 -12t-11 -12h-2q-2 0 -3.5 -1t-3.5 -2l-3 -5q-6 -2 -19.5 -10.5t-23.5 -10.5q-21 -12 -47 -12zM201 -129q3 2 8.5 4t9.5 4q2 1 6.5 4.5t8.5 3.5q22 17 78 71q0 5 3.5 8t7.5 5q1 5 7.5 11.5t7.5 12.5l4 3q3 5 12 17t12 24q7 6 12 23q2 3 11.5 18t12.5 30
q7 7 13 26q4 12 8 19l-1 3q0 3 4 8t4 7q1 3 1.5 7.5t3.5 7.5q2 7 6 19t5 21q4 3 5 10.5t2 12.5q0 2 2 5.5t2 5.5q1 3 0.5 6t-0.5 5q1 2 3 5t3 7q1 3 1 10q0 6 1 9q5 26 9 54.5t4 50.5q0 14 -1 21q0 4 2 9.5t1 7.5l-1 3q-2 5 -2 12q0 5 2 15q-3 0 -4 2q1 3 1 10q0 12 -3 25
q-1 5 -2 12.5t-1 16.5q-4 8 -5 15.5t-1 17.5q-1 1 -2.5 1.5t-2.5 2.5l1 3q0 3 -3.5 12t-1.5 14q-8 9 -11.5 24t-4.5 18q-3 5 -12 22q-4 9 -9 17.5t-12 14.5q-7 12 -16.5 20.5t-20 16t-16.5 12.5l-6 1q-31 23 -87 23q-34 0 -64 -8q-42 -12 -74.5 -37.5t-51.5 -61.5
q-32 -73 -32 -118q0 -14 3 -26q15 -67 43 -103l6 21t9 23q31 95 91 177q5 2 11.5 10.5t12.5 10.5q10 13 25 18q12 5 21 -4t6 -23q-2 -2 -3.5 -4t-3.5 -4q-18 -7 -37 -29q-26 -33 -40 -62q-21 -34 -36 -73.5t-34 -101.5q6 -8 15.5 -18t14.5 -18q8 -6 22 -20q13 -15 28 -23
q3 -6 2 -8q11 -7 31 -23q22 -18 34 -25q6 3 10 3q9 0 14.5 -7.5t7.5 -18.5q-7 -14 -12 -18q-6 -3 -12 -3q-17 0 -38 15q-26 18 -51.5 42t-30.5 28q-6 6 -16 17l-10 5q-3 4 -9.5 12t-12.5 13q-13 -52 -23 -134q-5 -39 -5 -92q0 -48 5 -100q2 -4 2 -7q13 -91 53 -130
q3 -2 9.5 -6.5t13.5 -4.5q2 0 4.5 1t3.5 0l4 -2t5 0q22 6 30 10z" />
    <glyph glyph-name="P" unicode="P" horiz-adv-x="430" 
d="M130.5 -156.5q-3.5 8.5 -6.5 11.5q0 14 -1 21q0 4 -0.5 11t0.5 17q-1 15 -1 46q0 45 3 87v2q0 3 -1 5.5t-1 5.5q1 8 2.5 19.5t1.5 19.5q0 15 1 22q0 48 4 95q0 5 1.5 10t1.5 10q0 3 -1 6t-1 7l4 6v4l-1 19q0 3 3 21q1 9 5 44q-94 13 -134 53q-6 5 -8 14t-2 11l3 12
q7 10 22 10q7 0 13 -3t8 -8q-1 -2 -1 -6t-1 -6q17 -15 44.5 -24.5t57.5 -11.5q5 19 9 57q2 31 7 52q0 5 -1 7q3 15 4 25.5t2 18.5q2 29 7 52v3q0 2 0.5 6.5t-2.5 5.5q5 13 7 32q4 56 4 88q0 58 -13 93q-4 -1 -23 -9l-4 -8q-3 0 -8 -4t-8 -6q-2 -2 -2 -5q-12 -5 -15 -17
q-3 0 -5 -3t-4 -4q-5 -12 -14 -25.5t-13 -20.5l-7 -20q-1 -4 -6 -18.5t-7 -27.5q-8 -11 -22 -11q-8 0 -15 3q1 3 -1 4.5t-3 3.5q2 18 7.5 34.5t7.5 21.5q7 16 11 29q2 3 6.5 9t5.5 11q21 31 34 48t32 29q1 0 1 3q8 2 11 8q19 12 39 12q17 0 27 -10q1 -1 5 -9q11 -13 13 -25
l-1 -4q0 -5 2.5 -13t3.5 -14q1 -5 1 -15v-12q0 -16 3 -22q-2 -4 -2 -12q0 -10 1 -16q-4 -4 -4 -10q0 -4 1.5 -10t0.5 -9q0 -3 -2 -8t1 -10q-5 -20 -7 -64q-2 -30 -4 -45q-1 -4 -3 -13t-2 -17q0 -1 -1 -2.5t-1 -2.5q0 -15 -4 -41q-1 -7 -2 -16t-1 -22q-1 -1 -1.5 -2.5
t-1.5 -2.5q1 -14 -2 -27q-2 -16 -2 -24q19 -1 61 6q0 1 0.5 2.5t2.5 1.5q-1 1 -0.5 3t-0.5 2q4 6 6 18.5t5 15.5q1 18 12 37v2q0 5 2 12t5 11v2q0 3 2.5 7.5t3.5 7.5l-1 2q0 2 1.5 4t0.5 6l2.5 2.5t2.5 1.5q1 7 5.5 19t5.5 17q1 1 3.5 4t3.5 11l9 19q10 18 18 38
q1 0 1.5 1.5t2.5 1.5q7 20 25 49q1 2 20 26q2 2 2.5 4.5t2.5 4.5t4.5 3.5t4.5 4.5q2 2 5.5 8t8.5 8l3 6q21 16 39 25.5t39 11.5q38 -1 60 -42q8 -34 10 -41q0 -4 -1 -29t-7 -51q-5 -5 -4 -13q-2 -8 -7 -20t-6 -20q-6 -4 -9.5 -14.5t-5.5 -14.5t-9 -13t-8 -16l-44 -55
q-22 -18 -44 -38q-6 -2 -16 -10.5t-17 -9.5q-8 -7 -24 -14q-14 -5 -24 -13q-3 0 -6.5 -2t-6.5 -1q-6 -4 -17.5 -7.5t-15.5 -6.5l-2 1q-1 0 -3.5 -1.5t-5.5 -0.5l-6 -22q-22 -83 -32 -138q-3 -7 -4 -12.5t-2 -8.5q-1 -11 -6 -22q-1 -22 -12 -64q-7 -24 -12 -54q-1 -3 -0.5 -5
t0.5 -3q-1 -4 -4 -14t-4 -17q-2 -8 -3.5 -20t-3.5 -19v-3q0 -6 -2.5 -13.5t-3.5 -12.5l-3 -20q-6 -39 -17 -61q-10 -8 -18 -8q-4 0 -9 3q-5 2 -8.5 10.5zM430 474q2 2 12 11.5t14 19.5q12 10 22 31l14 21q0 3 1.5 5.5t1.5 5.5q12 17 17.5 36.5t12.5 55.5q-1 2 0.5 11
t-1.5 11q2 3 2 7t-2 5q1 34 -21 47q-10 1 -21.5 -3.5t-17.5 -6.5q-4 -6 -19 -15l-14 -18q-12 -14 -17 -23q-1 1 -1 -0.5t-2 -0.5q-3 -9 -11 -14q-2 -7 -5.5 -13t-5.5 -9q-10 -14 -12 -25q-1 -1 -6 -7t-6 -15q-23 -42 -35 -82q-13 -27 -28 -83q-3 -5 -4 -12t-1 -9
q-3 -2 -4 -6.5t1 -7.5q84 31 136 83zM166 21q6 22 6 33q7 24 13 59l4 20q3 9 4.5 17.5t3.5 15.5q7 33 10 43q1 1 0 2t-1 2q1 1 2 2.5t2 2.5q-1 2 -0.5 4t-0.5 4q4 11 10 37q6 30 11 42v3q0 5 3 13.5t3 14.5q-8 -1 -23.5 -2.5t-29.5 -0.5q-4 -13 -2 -20q-3 -5 -3 -16.5v-17.5
q-5 -25 -7 -81q0 -1 -1.5 -2t-1.5 -3q2 -4 1 -12.5t-1 -13.5t1 -8q-3 -7 -3.5 -18t-0.5 -16l-2 -30q-1 -7 -1 -22l1 -36q0 -9 -2 -25q-2 -11 0 -16q1 6 5 25z" />
    <glyph glyph-name="Q" unicode="Q" horiz-adv-x="540" 
d="M628 -350q-7 0 -15.5 2.5t-13.5 5.5q-15 10 -15 30q0 4 2 12q5 3 8 8q2 1 6 1q7 0 11 -5t6 -7q0 3 -2 8t-1 11q0 1 -1.5 1.5t-2.5 1.5q0 14 -4 23q-1 3 -3.5 6t-3.5 5q-1 4 -1.5 8t-1.5 7q-3 8 -9 16.5t-8 11.5v7l-13 26q-14 30 -24 44v2q0 6 -4.5 11t-6.5 9q-1 1 -0.5 3
l0.5 2q-1 1 -2 1t-2 2q-2 2 -5 10t-6 12q-2 3 -7 10t-5 14q-6 8 -16 26q-16 28 -26 37q1 1 0 3t0 4q-1 2 -4.5 8t-8.5 9q1 2 -0.5 3t-1.5 3q-8 10 -15 23q-2 3 -9.5 14.5t-15.5 18.5q-26 -62 -61 -106t-86 -69q-33 -12 -60 -12q-19 0 -45 6q-5 3 -17.5 7.5t-17.5 11.5h-2
q-4 0 -7 4t-5 6q-3 2 -8.5 5t-8.5 6l-3.5 7t-7.5 6q-7 14 -16 19q-1 5 -7 11q-3 9 -8.5 21t-8.5 20q-2 4 -4.5 6t-3.5 4t-0.5 7t-0.5 8q-2 6 -6 15.5t-5 17.5q-4 16 -7 21q0 1 2 5q-6 17 -7 34q0 2 1 6t0 6q0 2 -1 4.5t-2 5.5v21q0 32 -4 44q4 8 3.5 18.5t-0.5 14.5
q0 8 1.5 16t1.5 16q0 5 -2 13q5 9 5 24q0 13 4 20q1 17 7 48q4 26 5 33q6 13 9 31q6 26 11 34v3l1 10q1 1 1.5 3.5t2.5 2.5q2 17 14 45q5 12 10 26q-21 65 -21 120q0 16 1 24q6 33 20.5 56t38.5 42q27 16 65 16q27 0 47 -9q4 2 16.5 16.5t22.5 16.5l4 1q5 0 10.5 -2.5
t6.5 -6.5v-4q0 -8 -4.5 -16.5t-5.5 -10.5q-4 -1 -9.5 -4t-5.5 -6q1 -2 4.5 -3.5t5.5 -2.5q24 -16 53 -47q2 -1 4 -2.5t4 -2.5q6 -6 22 -30q5 -6 11 -15.5t11 -14.5q26 -52 34 -66q21 -64 26 -86q1 -7 5 -14q1 -1 0 -2.5t-1 -2.5q4 -6 5 -15t2 -13q2 -10 2 -14q2 -6 2 -11
q10 -48 8 -106q0 -7 0.5 -17.5t-0.5 -24.5q-1 -10 -0.5 -19.5t-0.5 -18.5q0 -1 -1 -2.5t-1 -2.5q-1 -2 -1 -7l1 -17q-1 -12 -7 -31q0 -2 0.5 -4t-0.5 -5q-1 -6 -2.5 -12.5t-2.5 -13.5q-1 -9 -9 -39q-2 -7 -6 -17t-4 -15q0 -6 5 -10t7 -8q10 -17 12 -22q2 -4 8.5 -10.5
t7.5 -11.5q3 -2 6.5 -7.5t6.5 -7.5q9 -20 36 -64q2 -4 4 -4q4 -10 19 -36q13 -20 20 -36q23 -40 46 -90q3 -3 6.5 -12.5t8.5 -12.5q3 -15 17 -41q2 -4 4.5 -17t8.5 -17q-1 -7 3.5 -17.5t4.5 -17.5q0 -19 -6 -33.5t-19 -17.5h-2zM161 765q0 2 -0.5 3t0.5 3q6 2 9 8.5t5 11.5
q8 6 14.5 15.5t10.5 14.5q-2 0 -3.5 -1t-3.5 0q-2 2 -2 3h-25q-27 -1 -50 -23q-3 -5 -10.5 -15t-9.5 -18q-1 -1 0.5 -2l1.5 -1q-3 0 -4 -9t-5 -10l-1 -39q0 -13 1 -19q4 -24 9 -31q24 53 63 109zM405 229q2 5 2.5 12.5t0.5 11.5q10 70 10 124q0 28 -2 72q0 8 -2 18
q-6 48 -13 76q-15 55 -34 101q-33 74 -73 113q-5 5 -16.5 16t-20.5 17l-23 16q-6 -10 -12 -18q-13 -17 -15 -24l-8 -7q0 -5 -7 -11t-6 -13q-8 -6 -13.5 -17.5t-6.5 -13.5q-7 -5 -16 -25q-8 -18 -15 -24q-1 -6 -8 -19.5t-8 -22.5l-4 -6v-3q0 -4 3.5 -9t2.5 -8q1 -1 2 -1h1
q0 -7 6 -16t6 -17l5 -4q0 -3 3.5 -9.5t4.5 -11.5h3t1 -1q1 -4 3.5 -8t2.5 -7q2 -1 3 -1t2 -1q0 -2 0.5 -3t-0.5 -3q8 -9 17 -29q5 -3 10 -12.5t9 -12.5q31 -51 55 -76q2 -8 6.5 -13.5t5.5 -6.5q10 -10 12 -18q5 -4 10 -9t6 -12q8 -6 10 -10q5 -8 12.5 -18t11.5 -18
q5 -2 4 -1q7 -12 17 -23q16 -23 21 -32q6 -4 12.5 -14.5t9.5 -13.5q4 10 12 46zM243 -42l34 21q2 1 1 2t0 1q8 6 12 7l1.5 3t0.5 2q7 3 15 14.5t14 14.5q5 11 12 19q12 19 14 26q2 0 3 1.5t2 1.5q1 5 4 11.5t7 10.5q3 13 7 19q4 10 7 22q2 0 2.5 1.5t0.5 2.5q-4 7 -9 10
q0 3 -4.5 9t-5.5 11q-5 3 -14 17t-14 17q0 1 -1 2t0 3q-6 5 -24 28q-12 17 -16 21q-18 31 -34 44q0 2 -4.5 7.5t-4.5 9.5q-10 9 -18 23q-10 16 -17 22q-1 1 -1 4q-5 2 -9.5 10.5t-8.5 11.5q0 2 -1.5 4.5t-1.5 4.5l-4 2l-4 2q-2 5 -9 15.5t-9 17.5q-2 -1 -3 0.5t-3 1.5
q-4 13 -17 31q-2 3 -8 12.5t-9 20.5q-7 5 -12 14t-9 19q-4 11 -11 23q0 -8 -6 -20q-6 -14 -5 -22q0 -1 -2 -1.5t-1 -2.5l-10 -35l-10 -37q2 -2 2 -5q-4 -10 -6 -25q-2 -17 -6 -24q2 0 2 -3q-8 -11 -4 -21q-5 -18 -7 -60q0 -23 -3 -44q2 -2 2 -7q0 -4 -1.5 -10t-0.5 -11
q0 -1 1 -1.5t0 -1.5q-1 -13 3 -46q1 -5 0.5 -10t0.5 -10q1 -3 3 -6.5t1 -7.5q0 -4 2 -13t1 -15q1 -2 2 -6.5t3 -7.5q8 -32 16 -46q0 -1 0.5 -2.5t-0.5 -2.5q15 -34 47 -71q14 -12 42 -26h2q3 0 5 -1.5t3 -2.5l6 1q7 0 12 -4q32 2 55 10z" />
    <glyph glyph-name="R" unicode="R" horiz-adv-x="540" 
d="M459 -319q-12 9 -24.5 23.5t-18.5 20.5q-2 10 -9.5 21.5t-9.5 14.5l-7 19q-10 29 -16 52q0 5 -4 15.5t-2 15.5q-4 9 -8 33q-2 21 -7 34q1 1 1 4q0 2 -2.5 7t-2.5 8q0 5 -1.5 11t-2.5 11q-1 6 -0.5 10.5t0.5 7.5q-1 4 -3.5 10t-3.5 10q0 1 1 3t0 3q-1 2 -1.5 3.5t-0.5 4.5
q-1 2 -2 5t-1 6q-1 5 -1.5 14t-4.5 14q0 13 -6 31q-6 14 -6 28q-2 3 -3.5 7t-3.5 7q-2 15 -9 31l-7 23q-1 2 -4.5 7t-2.5 11l-14 31q-12 30 -22 48q-51 19 -82 71q0 5 -1.5 11.5t-0.5 11.5q7 13 16 20h5q9 0 13 2q29 -11 39 -30q5 -5 8 -6q2 -3 4.5 -7.5t6.5 -9.5
q15 -24 19 -33q8 -3 18 -5t16 0q12 -4 24 -4q11 0 25 3t21 4q-1 2 0.5 2.5t0.5 0.5q1 1 3.5 0.5t3.5 -1.5q16 7 20 8q5 5 13 8t13 6q6 6 31 26l3 8q8 5 16.5 17t13.5 16q4 11 11 23q1 3 7 14t7 24q9 11 9 24q2 1 2.5 3t1.5 3q0 10 6 26q-1 8 0.5 15t1.5 9q3 9 3 20
q-2 3 -2 11l1 16q0 9 -3 15q-1 22 -6.5 41t-17.5 52q-18 32 -40 52q-21 11 -45 11q-49 0 -114 -51l-16 -17q-22 -24 -34 -39t-21 -33q-9 -9 -19 -33q-10 -19 -13 -24l-13 -39l-10 -28q-2 -9 -3 -10q0 -2 -1.5 -4t-2.5 -3q-2 -6 -3.5 -16.5t-3.5 -17.5t-7.5 -23t-7.5 -27
q-1 -5 -2 -13t-3 -13q-1 -3 -9 -35q-2 -8 -4 -15t-4 -15q-2 -9 -3.5 -22.5t-2.5 -20.5q-1 -6 -3 -14t-3 -19q-12 -61 -13 -67q-4 -16 -6.5 -37t-3.5 -30t-3.5 -28t-5.5 -32l-3 -23q-2 -24 -5.5 -38.5t-14.5 -23.5q-2 0 -5.5 -1.5t-6.5 -1.5q-12 0 -17 10.5t-6.5 23.5
t-3.5 20l-2 31q0 2 -1.5 4t-1.5 3v4q0 4 1 10t0 10q0 2 -1 3.5t-2 2.5q-1 3 -1 9l1 19q0 20 -3 38q-1 4 -0.5 12.5t-0.5 13.5q-1 4 -0.5 7.5t0.5 5.5t-1.5 6t-2.5 6q0 3 1 7t1 7q0 26 -2 36v14v2q0 3 -1 6.5t-1 7.5q-2 10 -2 16v3q0 5 1 10t1 10q0 8 -2 20q0 4 -1.5 14.5
t-0.5 17.5q0 9 -1 15t-2 11v22q0 15 -1 21q0 4 -1.5 10t1.5 10q-2 2 -2 7q0 2 0.5 6.5t-1.5 8.5q2 8 2 12q-1 6 -3 14.5t-2 12.5q1 12 1 35t-3 32q1 3 1.5 7t-0.5 6t-3.5 6t-2.5 9q5 12 17 20q7 -1 13 -3l9 -3q5 -7 5 -21l-1 -20q0 -8 2 -28q3 -15 3 -30q0 -10 -1 -15
q-1 -3 2 -3q-1 -6 -1 -17q0 -6 1 -9l3 -73q2 -34 4 -94q3 -6 3 -14q0 -5 -2 -15q4 -12 3.5 -27t-0.5 -20q3 -11 3 -27.5v-25.5q0 -2 1 -5t1 -5q1 -1 0 -3t-1 -3v-2q0 -3 1 -5.5t1 -5.5q0 -2 -1 -3t-1 -3q1 -9 3.5 -23.5t1.5 -25.5q1 4 2 10.5t3 10.5q3 38 10 84
q1 6 4.5 18.5t4.5 21.5q1 2 0.5 5t-0.5 5q1 9 3 15.5t3 11.5q3 11 7 35q0 4 2 10t3 11q1 9 4 15q2 7 4 23q1 3 2.5 14t6.5 18q1 11 7 30q0 9 6 25q6 18 6 26q6 16 8 24q11 32 20 53q4 21 18 41q8 22 19.5 40t30.5 43l18 24q2 0 3.5 1.5t3.5 1.5q14 19 37 36.5t31 23.5
q39 20 52 25q6 0 15 3t16 2q2 -1 2 1t1 2q8 -2 13 -2h12q9 0 13 -3q1 0 2.5 1t3.5 0q10 -5 22 -8q0 -1 2.5 -2t2.5 -3q1 -1 2 -0.5t3 0.5q12 -9 25 -24t23 -29q3 -8 8.5 -19.5t9.5 -20.5q7 -19 15 -61q1 -3 2 -5l2 -4q0 -2 -1 -3t-1 -3q0 -5 1.5 -13t2.5 -12q-1 -2 -1 -6
l1 -9l-2 -8l2 -11q-3 -9 -3.5 -23t-1.5 -20q-3 -19 -13 -48l-6 -22q-5 -5 -4 -13q-9 -7 -9 -20q-10 -6 -11 -19q-5 -3 -10.5 -11.5t-9.5 -11.5q0 -1 0.5 -2t-0.5 -2q-7 -5 -18 -23q-1 -1 -20 -17q-3 -3 -15.5 -13.5t-26.5 -16.5q-1 0 -2.5 -2.5t-3.5 -2.5l-9 -2
q-2 -1 -3 -2.5t-2 -2.5q-2 -1 -6 -2t-7 0q-4 -4 -10 -5.5t-14 -1.5q-7 -1 -16.5 -3.5t-16.5 -3.5q-2 0 -4.5 1t-4.5 0q-2 0 -5 -1.5t-6 -1.5q-2 0 -4.5 1.5t-4.5 1.5t-7.5 -0.5t-9.5 0.5q0 -4 3.5 -10.5t3.5 -10.5q5 -5 9 -21q1 -2 3.5 -9.5t7.5 -12.5l12 -41q18 -53 23 -87
q5 -14 7.5 -31t4.5 -25q0 -1 1 -2t2 -1q0 -19 5 -31q0 -12 6 -38q4 -19 6 -40q0 -1 1.5 -1.5t0.5 -1.5q9 -59 22 -87v-7q0 -2 1.5 -3t1.5 -2q12 -42 35.5 -72.5t59.5 -36.5q4 -1 11 -1t14.5 1t14.5 1q7 3 21 8.5t23 11.5q33 26 81 85q0 3 1 4.5t2 3.5q5 3 10.5 13t9.5 13
q1 2 2.5 5.5t1.5 6.5q2 1 4 5q3 12 8 29q4 2 7 4.5t6 3.5q21 -1 21 -26q0 -22 -13 -44l-11 -17q-16 -25 -26 -33q-15 -25 -43 -51q-4 -4 -8 -9t-10 -10q-21 -19 -53 -32q-33 -13 -59 -13q-17 0 -33 4q-28 10 -40 17z" />
    <glyph glyph-name="S" unicode="S" horiz-adv-x="572" 
d="M612 184q0 -7 -2.5 -11.5t-6 -7.5t-4.5 -4h-3q-4 0 -7.5 -1.5t-7.5 -1.5l-4 2l-25 -3q-18 -2 -41 -8t-31 -8q-19 -6 -39 -15h-5q-79 -30 -114 -59q-12 -4 -19 -14q-9 -4 -28 -19l-16 -12q15 -30 22 -41q6 -12 10 -22.5t7 -18.5l2.5 -2.5l2.5 -2.5q1 -3 1.5 -7.5t1.5 -6.5
q2 -5 4.5 -11.5t4.5 -14.5q2 -5 4 -9t3 -7v-2v-4q0 -7 3 -9q0 -9 1 -16t2 -12q1 -4 3 -17.5t1 -24.5q-6 -35 -12 -50q-1 -1 -2 -3.5t-4 -3.5q0 -1 -1 -2.5t0 -2.5q-4 -4 -9 -12t-10 -11q-1 -1 -1 -4q-3 0 -5 -2q-2 0 -1 -1.5t0 -1.5q-3 -2 -13 -7t-19 -7.5t-16 -0.5
q-3 -1 -8 -1q-7 0 -16 4t-14 5q-3 4 -12 10.5t-12 11.5l-4 1q-54 64 -59 138q-1 14 3.5 33.5t6.5 29.5q10 12 11 24q10 4 14 20q3 3 16 18q11 16 21 22q1 2 2 3.5t1 4.5q4 2 10 7.5t11 7.5q-8 10 -14 20q-18 24 -27 32q-2 8 -11 19q-8 11 -20 24.5t-19 20.5q-28 28 -40 44
l-5 3l-13 19q-31 43 -42 72q-13 36 -16 55q-3 18 -3 36q0 49 23 102q28 42 60 77q6 1 11 8t9 10l14 7q12 9 22 13q13 8 41 17q9 4 24.5 7.5t29.5 5.5h3l10 -1q10 1 29 1q18 0 26 -2q6 0 12 -2q28 -9 63 -33q4 -4 11 -10.5t12 -9.5q1 -1 2 -4t5 -3q0 -7 7 -9q-1 -4 1 -7
q4 -1 6.5 -10.5t6.5 -10.5q1 -2 1.5 -8.5t2.5 -8.5l2 -1q1 -3 1 -7v-6q1 -6 4 -15.5t1 -17.5q0 1 1 1v-15t-1.5 -22.5t-5.5 -20.5q1 -2 1 -3t2 -1q-1 -4 -3.5 -9.5t-1.5 -10.5q-5 -7 -5 -14q0 -1 1 -1.5l1 -0.5q-1 -5 -6 -12.5t-7 -12.5q0 -5 -1 -7q-1 -3 -3.5 -7t-3.5 -6
l-5 -16q-2 -1 -3.5 -2.5l-2.5 -2.5q1 -1 1 -3q-4 -2 -15 -16q-9 -12 -16 -18t-18 -6q-6 0 -9 1q-1 3 -2.5 5t-2.5 4q-1 8 2 13.5t10 12.5q12 10 12 19q2 1 3.5 2t3.5 2q1 3 4.5 7.5t2.5 8.5q6 7 9.5 17t4.5 12q4 16 8 23q-2 2 -1 5t0 5q6 8 8 30q3 29 2 36q0 3 -1.5 6
t-1.5 4q0 3 0.5 6.5t-0.5 8.5q-2 15 -10.5 29.5t-11.5 21.5q-47 54 -122 54q-5 -1 -14 -2.5t-16 -0.5q-1 0 -1 -1.5t-1 -1.5q-5 0 -11 -2t-12 -1q-4 -3 -21 -9q-20 -7 -27 -13q-22 -9 -37.5 -23.5t-27.5 -29.5l-16 -20q-7 -14 -15 -22q-1 -6 -7 -20t-6 -22q0 -1 -3 -4l2 -4
q-3 -3 -3 -8.5v-8.5q-2 -57 15 -87q3 -21 19 -40q2 -10 11 -21t12 -17l30 -34q37 -40 62.5 -70.5t47.5 -64.5h1q1 0 2.5 2.5t2.5 3.5q8 0 12 7t6 9q11 5 18 12l7 1q1 2 5 7t10 6q8 9 25 14q6 8 19 13q12 6 17 11q3 0 4 -1q5 2 16.5 9t21.5 7l2 4q9 1 27 9q4 1 13 4t16 4
q17 8 37.5 12t41.5 6.5t31 3.5q4 1 7 2.5t7 2.5h2q9 0 19 -8q1 -6 4 -8zM255 -60q-6 18 -21 43q-2 9 -7 11q-10 -13 -23 -26q-16 -16 -27 -31q1 -3 0 -5q-1 0 -4 -3q2 -1 1.5 -2t-0.5 -2q-3 -1 -7 -5q-1 -5 -5 -12t-6 -13q0 -1 2 -3q-7 -13 -7 -29q0 -14 4 -33t6 -28
q1 -1 2.5 -0.5t1.5 -0.5q12 -30 28 -45v-5q2 -2 8 -6.5t8 -10.5q6 -2 14 -6.5t15 -4.5q10 0 18.5 6.5t14 12.5t6.5 8q12 23 14 42l1 9q0 13 -4 37q-9 59 -33 102z" />
    <glyph glyph-name="T" unicode="T" horiz-adv-x="290" 
d="M136 -155q0 7 1 15.5t1 17.5q0 5 -1 12.5t0 12.5q3 17 3 51q0 21 1 30l3 36q0 19 1 29q0 31 1 46l1 30q0 10 -1 15q0 2 2 6q-2 27 0 57q1 11 1 32q0 17 -1 24q2 14 2 30.5v21.5v18q-1 8 0 21t1 22q0 14 -2 20q2 30 -13.5 67t-39.5 61q-11 11 -26.5 21t-31.5 19l-23 14
q-14 11 -14 25q0 10 9 19q6 5 13 7q1 1 1.5 2t1.5 2q2 1 5.5 1.5t5.5 1.5q3 1 4.5 2.5l2.5 2.5t3 0.5l2 -0.5q6 4 16 6q10 3 12 6q7 2 21 4q32 6 46 12l-1 3q0 2 1 4t1 4q-1 6 -2.5 12.5t-2.5 13.5q-1 5 -0.5 11.5t0.5 10.5q0 5 -1 10t-1 10q0 10 7 17q6 3 10 3q7 0 12 -5.5
t10 -15.5q-1 -2 -1 -6t1.5 -7.5t1.5 -8.5q0 -3 -2 -9q2 -3 2 -10l-1 -16q0 -6 2 -12q23 5 29 10q6 -1 13 1t9 3q15 5 22 5q3 3 11.5 4t11.5 4q12 0 34 6t34 6q14 5 42 9q16 2 33 6q4 1 8 -1q49 11 92 11q10 0 34 -2q8 -1 13.5 -8t5.5 -16q0 -11 -10 -15q-9 0 -9 -1
q-10 6 -24 6q-9 0 -17 -3q-5 2 -12 1t-10 0q-8 -4 -25 -4q-3 0 -10.5 -1t-12.5 -3q-6 -1 -16.5 -1t-17.5 -3q-1 -1 -6.5 -3.5t-12.5 0.5q-12 -5 -31 -7q-3 0 -15.5 -2t-22.5 -7q-30 -3 -88 -21l-49 -13q1 -6 1 -19q0 -6 -0.5 -15t0.5 -22q0 -6 1.5 -14t2.5 -13
q0 -4 -1.5 -10t-0.5 -10q0 -3 2 -8t-1 -9q1 -5 1 -16l-1 -34q0 -14 2 -21l-1 -21q0 -6 2.5 -15.5t3.5 -16.5l-1 -10q6 -52 6 -134v-44q0 -41 -2 -115q-1 -53 -9 -148l-5 -60q0 -1 -8 -51q-6 -9 -18 -9q-9 0 -17 5q-4 8 -4 20zM147 543l3 8q-4 53 -3 73h-5q-8 0 -27 -7
q-15 -1 -34 -8.5t-27 -10.5q33 -19 56.5 -38t39.5 -44q0 22 -3 27z" />
    <glyph glyph-name="U" unicode="U" horiz-adv-x="488" 
d="M434 -420q-15 0 -21 11q-9 67 -12 133q-13 152 -17 244v28q0 19 -1 29q-1 27 -1 80q0 107 7 181q-4 -2 -8.5 -13t-8.5 -15q-4 -14 -10 -18q-2 -9 -10 -23q-8 -12 -10 -20q-6 -5 -10.5 -15t-8.5 -16q-5 -4 -8 -12t-5 -11q-2 -4 -6 -7t-7 -7t-7.5 -12t-8.5 -14
q-2 -3 -12.5 -18.5t-22.5 -26.5q0 -6 -2 -6q-3 -4 -16 -17q-4 -5 -8.5 -11t-10.5 -12l-5 -3q-16 -16 -21 -19q-2 -1 -9 -5.5t-12 -10.5q-8 -1 -20 -8l-8 -4t-11 -4q-10 -2 -15 -2q-29 0 -50 27q-4 5 -11 20l-3.5 3.5t-2.5 3.5q-3 6 -4.5 12t-3.5 11q-17 43 -28 129
q-2 14 -2 40l-1 21q-2 28 -2 43q0 17 1 25q2 25 4 89q2 4 2 10.5v9.5q2 33 8 64.5t18 78.5q6 4 7 10q3 1 10 1q18 0 23 -11q-1 -10 -9 -43l-4.5 -18t-4.5 -23q-6 -29 -8.5 -68.5t-3.5 -48.5q-2 -27 -2 -90q0 -113 19 -174q12 -40 23 -60q10 -16 15 -20q3 -2 9 -2q5 0 14 3
t13 3q4 3 9 6t11 8q18 13 20 14l16 18q15 18 28 30q1 1 0.5 2.5t0.5 3.5q18 18 40 53l26 37q16 32 34 57q0 10 13 25q1 8 6.5 17.5t7.5 14.5t6 12t5 14q20 37 39 95q7 11 11 28t7 33l8 34q13 43 21 58q7 12 9 13t4.5 1.5t4.5 1.5q1 0 1 1t1 2q3 0 7 -2t8 -3q6 -8 6 -17
q0 -5 -2 -21q-2 -5 -6 -14t-3 -16q-4 -5 -8 -22q-4 -16 -9 -22q-11 -38 -16.5 -80.5t-10.5 -99.5q-8 -102 -8 -199q0 -47 1 -70q2 -30 2 -46l2 -46l2 -29q2 -48 13 -183l6 -77q1 -7 2.5 -16.5t1.5 -15.5q0 -10 -4 -18q-5 -4 -13 -4z" />
    <glyph glyph-name="V" unicode="V" horiz-adv-x="543" 
d="M231 -184q-15 6 -22 8q-1 4 -5.5 5.5l-7.5 2.5l-3 6q-2 2 -4 2t-3 1q-14 12 -28.5 31.5t-26.5 38.5q-4 6 -7 7q-4 10 -21 44q-13 27 -28 64v3q0 5 -6 13q-3 8 -4.5 15.5t-3.5 13.5l-8.5 25.5t-7.5 27.5q0 3 -0.5 9.5t-4.5 11.5q-32 160 -38 273q-2 42 -1 65q3 50 7 83
t15 63q1 15 8.5 32t10.5 23q5 18 13 31q1 1 4.5 5t3.5 9q8 10 14 15t13 5q5 0 11 -3q3 -1 5 -3.5t5 -4.5l1 -6q0 -13 -12 -21q-4 -6 -10 -18l-12 -19q-2 -13 -5 -19l-4 -5q-1 -2 -0.5 -4.5t-0.5 -4.5t-2 -3t-1 -2q-2 -6 -3 -13t-3 -13l-3 -14q-1 -4 -3 -8.5t-3 -7.5l2 -4
q0 -2 -1.5 -4t-1.5 -4q-1 -3 -0.5 -7.5t0.5 -6.5q-1 -3 -2.5 -8.5t-1.5 -8.5q0 -20 -1 -29l-2 -30q0 -2 0.5 -3l0.5 -1q-1 -9 -1 -27q0 -22 4 -66l4 -54l2 -4v-9q0 -7 3 -9q-1 -1 -0.5 -2.5t-1.5 -2.5q5 -21 6 -39l8 -44q2 -11 8 -39l5 -22q1 -4 2.5 -13.5t4.5 -15.5
q5 -23 14 -54q3 -8 10 -28t15 -34q5 -22 17 -37v-5q5 -8 11 -19t10 -17q1 -1 0.5 -1.5t0.5 -1.5q4 -5 7.5 -10.5t6.5 -10.5q9 -13 23 -27q31 -33 59 -33q7 0 11 1q5 1 24 15l2 4q2 2 7.5 5t5.5 8l6 2q4 8 14 22q12 18 15 28q-1 2 1.5 3t3.5 2q2 10 7 14q3 11 11 31
q10 28 12 36q1 0 2 2.5t3 4.5q-1 7 4 18.5t6 15.5t1.5 14t6.5 14v2q0 5 2 11.5t1 12.5q0 1 0.5 2t2.5 0v3q0 3 1.5 7t2.5 6l-1 6q0 2 1.5 3.5t2.5 3.5q1 4 0 12.5t1 12.5q1 1 2.5 1t1.5 1q1 3 0 6.5t0 6.5q1 8 4 24.5t2 28.5q0 1 3 4v6q0 8 1 12q3 13 3 41q0 8 -0.5 20.5
t0.5 29.5q0 2 1 7.5t-2 8.5q2 10 2 16q0 10 -4 24q2 2 2 9q0 6 -1.5 11.5t-1.5 10.5v14q0 14 -4 19l1 10q0 13 -4 17q1 2 1 7q0 2 -3 14q-1 2 -0.5 9t-0.5 10l-4 12q-2 9 -7.5 24t-5.5 24q0 16 16 24q6 0 10 -2t9 -5q2 -11 7 -14q3 -23 9.5 -38t19.5 -26q17 -28 53 -44.5
t77 -16.5q18 0 34 3q23 0 35.5 1.5t20.5 9.5q5 3 10 3t15 -2q3 -7 4 -12.5t2 -9.5q-3 -9 -10 -13t-16 -7l-15 -5l-21 -2q-28 -6 -54 -6q-14 0 -22 1q-16 2 -22 4q-4 1 -9.5 2t-13.5 1q-45 14 -79 44q1 -6 1 -20q0 -19 4 -25q-1 -3 -1 -11q0 -20 5 -30q-2 -4 -2 -14t-1 -13
q1 -2 4 -2q-3 -6 -3 -8q1 -3 1 -8l-1 -16q0 -6 3 -14q-3 -6 -3 -13q0 -6 1 -9q-3 -19 -3 -40q0 -11 -2 -33q-1 -3 -2.5 -7t-1.5 -7l1 -4q-1 -9 -4 -24t-2 -26q-1 0 -1.5 -2t-2.5 -2q1 -2 1 -5q0 -4 -2.5 -11.5t-1.5 -10.5q1 -2 -1 -3.5t-2 -2.5l1 -6q0 -8 -5 -11
q0 -3 -0.5 -4.5t0.5 -3.5q-4 -12 -4 -20q-6 -9 -8 -27q-4 -22 -11 -29q-1 -17 -10 -36q-1 -5 -3 -10t-4 -12q-4 -4 -5 -6q-13 -36 -45 -90q-2 -1 -3.5 -2.5l-2.5 -2.5q-1 -6 -7 -11t-8 -7q-1 -1 -1 -2.5t-1 -2.5l-4 -2l-4 -2q-11 -12 -29.5 -21.5t-34.5 -9.5q-13 0 -28 6z
" />
    <glyph glyph-name="W" unicode="W" horiz-adv-x="714" 
d="M471.5 -124.5q-20.5 17.5 -37.5 45.5q-2 1 -7 10t-9 12q-34 82 -51 131q-26 94 -35 173q-5 -10 -7 -27q-4 -22 -9 -30q-1 -16 -10 -41l-7 -25q-6 -12 -11 -32q-6 -24 -13 -35q-4 -13 -12 -30q-10 -22 -12 -31q-8 -5 -8 -13l-14 -22q-2 -2 -9.5 -14.5t-17.5 -21.5
q-2 0 0 -5q-7 -4 -16.5 -14t-16.5 -16q-34 -25 -63 -25q-13 0 -22.5 5t-25.5 17q-29 36 -40 82.5t-17 115.5l1 17q0 8 -2 24q1 4 1 10t1 10q0 24 3 46q0 2 -1 4.5t0 4.5q4 25 3 29q7 36 12 80q0 2 1.5 3.5l2.5 2.5q0 11 3 21q4 14 3 20q4 6 5 10q15 70 32 114q3 15 10 33
t9 24l9 23q2 2 4 7.5t6 7.5q0 6 6 14.5t6 13.5q3 1 5.5 5t3.5 6q4 1 12 1q13 0 20 -8q0 -2 1 -4.5t0 -4.5q-1 -5 -5.5 -10.5t-6.5 -9.5q-2 -5 -4 -11t-4 -11q-2 -4 -7.5 -13t-8.5 -17q-11 -27 -29 -89q-8 -23 -18 -69q-2 -9 -6.5 -27.5t-8.5 -31.5q-2 -5 -2.5 -13.5
t-1.5 -14.5q-15 -80 -16 -131v-2q0 -2 1 -6t0 -6q-5 -117 33 -203q7 -11 12.5 -17.5t14.5 -11.5q3 0 6.5 0.5t8.5 -0.5q22 10 35 21q3 2 5.5 6t3.5 6q3 1 5.5 1.5t3.5 1.5q3 4 5.5 10t5.5 9q3 4 6.5 6.5t6.5 6.5q5 15 17 28q1 9 10 20q3 11 12 30q4 13 21 51l2 10q1 4 2.5 8
t3.5 12q-1 -5 9 32q9 27 15 54q2 9 8 31.5t8 39.5q3 11 3 21q5 10 4 13q2 14 4 22q4 24 4 33q4 12 4 26q0 10 -2 24q0 46 1 73t6 55q2 2 6 5t5 7q2 1 5.5 2t4.5 3q4 0 9.5 -3t7.5 -4q5 -14 5 -37q0 -10 -1 -23.5t0 -21.5q-3 -6 -3.5 -13.5t-0.5 -10.5q-1 -11 -5 -40
q-1 -16 1 -36t3 -27q2 -47 6 -68q1 -8 2.5 -23.5t3.5 -26.5q2 -16 3 -18l4 -25q7 -50 17 -81q1 -3 2 -10.5t6 -12.5l-1 -3q0 -6 4 -12v-4q3 -8 6 -15.5t5 -13.5q14 -38 22 -56q5 -9 8.5 -17t6.5 -14q14 -23 23 -34.5t21 -18.5q11 -6 22 -6q4 0 12 2q13 7 23.5 18t22.5 29
q3 7 5.5 12.5t4.5 9.5q12 26 14 32q1 4 4 17t7 22q3 15 7 21q12 75 14 124q1 4 0.5 7.5t0.5 7.5q0 4 -1 7l-2 6q0 1 1.5 2.5t0.5 2.5l-3 21q0 4 3 7q-3 4 -3.5 13.5t-2.5 13.5q1 2 1 7q0 10 -5 18q4 9 1 14q-3 7 -5 22q-1 3 -2.5 12t-5.5 16q1 2 0.5 5t0.5 5q-6 8 -9 21.5
t-4 16.5q-7 11 -13 32q0 2 -1 2t-2 1v3q0 2 -2 5.5t-2 6.5q-4 4 -9.5 17t-10.5 17q0 7 -3.5 14l-5.5 11q-6 4 -12 14.5t-10 14.5q-1 8 -10 15l-6 12q-8 6 -17 17t-15 17l-28 9q-20 6 -40 14q-3 1 -4.5 2.5l-2.5 2.5q-4 2 -13.5 6t-16 9t-9.5 13q-1 19 12.5 23t34.5 3
q2 -1 3.5 -2t3.5 -2l3 1q5 0 12.5 -5.5t11.5 -7.5q1 0 3 0.5t3 -1.5q2 -1 3.5 -2.5t3.5 -2.5q4 -2 11 -5t8 -9q6 -2 7 -2q2 -1 2.5 -2.5t1.5 -2.5q31 -9 41 -11q9 -2 38.5 -10.5t56.5 -19.5q10 -10 9 -22q-2 -6 -7.5 -11.5t-12.5 -5.5q-5 0 -27 11q-1 0 -45 14q1 -4 4 -6
t5 -3q0 -2 -0.5 -3.5t0.5 -2.5q18 -21 38 -62l21 -37q1 -1 0.5 -3t0.5 -3l4.5 -9t4.5 -7l12 -38q1 -3 8 -24.5t10 -41.5q5 -7 7.5 -20.5t3.5 -25.5l3 -29q1 -5 1 -13q-1 -2 0.5 -3.5t1.5 -2.5v-9q0 -19 3 -25q-2 -12 -2 -32q0 -18 1 -27q-1 -6 -2 -13.5t-3 -17.5l-2 -21
q0 -24 -4 -39q0 -2 -1 -3t-1 -3q-1 -1 -0.5 -3.5t0.5 -3.5l-4 -5q-1 -4 -0.5 -8.5t-0.5 -8.5t-1.5 -7t-1.5 -7q0 -1 -2 -3t-3 -4q0 -1 1 -2.5t0 -2.5q0 -1 -1.5 -3t-2.5 -3l-6 -20l-9 -26q-2 -6 -4.5 -11.5t-6.5 -8.5q-4 -15 -20 -37l-12 -16q-5 -3 -17 -12t-24 -14t-25 -5
q-29 0 -49.5 17.5z" />
    <glyph glyph-name="X" unicode="X" horiz-adv-x="550" 
d="M717 -345q-16 7 -35 12q-1 2 -3 3t-3 3q-15 5 -33 21q-15 12 -20 15q-1 5 -11 12.5t-12 13.5q-13 12 -20 25l-7 5q-1 1 -4 9q-14 12 -22 32q-6 6 -13.5 18t-11.5 17q-4 12 -14 26t-12 24q-3 2 -5 5q-1 8 -8.5 19.5t-8.5 18.5q-2 1 -4.5 6.5t-5.5 6.5v6l-4 4v3q0 3 -6 9
q-4 17 -17 39q0 11 -6 15q-5 14 -10 25.5t-9 20.5q-16 33 -27 67l-5 5q0 5 -4 11t-3 11q-3 4 -5.5 11t-3.5 11q-7 -4 -10 -13l-16 -19q-48 -58 -73 -86l-62 -58q-1 1 -2 0t-2 -1q-25 -25 -80 -61l-42 -30q-4 -3 -14.5 -10.5t-20.5 -12.5q-7 -6 -16 -10t-15 -1q-11 4 -11 17
l1 14q20 14 31 20q36 24 54 37q39 28 54 39q24 17 53 43q9 7 16 16l15 15q2 3 6.5 6.5t7.5 5.5l7 9l21 22q5 6 9 12t8 11q2 2 5 4t5 5q17 21 25 35q8 6 15.5 17.5t11.5 17.5q-5 15 -10 26t-8 19q-16 33 -21 57q-2 3 -5 7t-3 10q0 2 -2 3.5t-3 3.5q-1 8 -9 22q0 7 -4 16
t-6 16q-1 3 -3 5l-3 3q-1 2 -0.5 4.5t-0.5 4.5q-9 18 -14 23q-4 15 -14 34l-4.5 9t-5.5 12l-18 24q-4 0 -6.5 3t-5.5 4q-1 2 -1 7q0 10 6 17q3 1 6.5 2t5.5 3h1q7 0 14.5 -6t9.5 -7q7 -9 15 -22q5 -11 14 -21q1 -7 9 -21q1 -2 5 -8.5t4 -13.5q7 -8 11.5 -21t5.5 -16
q6 -10 10.5 -23.5t7.5 -19.5q0 -1 1.5 -2t2.5 -2q0 -11 6 -16q0 -17 9 -22q2 -12 7 -24.5t7 -16.5q11 -23 13 -33q17 22 31 47t35 68q32 59 48 108q40 90 74 252q3 14 5 17q4 7 13 7q7 0 13.5 -5.5t8.5 -12.5v-14l-9 -36q-10 -48 -18 -70q-2 -18 -7 -27v-2q0 -3 -2 -7t-1 -7
q-6 -9 -9 -23t-5 -22q-5 -5 -9 -21t-8 -20q-7 -27 -16 -42v-6q-2 -1 -3.5 -3t-2.5 -3q-5 -19 -21 -51q-10 -19 -15 -32l-5 -4q0 -8 -7 -15q-8 -21 -21 -40q-3 -7 -8 -15.5t-10 -19.5q-7 -5 -8 -12q-4 -9 -11 -17l-12 -18q6 -20 17 -45q6 -13 16 -41q4 -4 8.5 -16t8.5 -16v-1
q0 -3 1.5 -7t3.5 -4q3 -10 9 -23q8 -18 9 -24q6 -9 14 -29q9 -22 15 -31q2 -9 10 -23q8 -15 9 -21l2 -2l2 -2q4 -14 12.5 -26.5t10.5 -15.5q11 -24 45 -77l16 -24q2 1 2 0t2 -1q4 -10 12 -18q9 -8 13 -17l19 -17q22 -20 38 -31t35 -13q4 -4 8 -5q42 -5 75 -4q3 0 6 1t5 1h14
q9 0 12 1q8 -1 13 -8t5 -15t-6 -14q-12 -5 -33 -5q-7 0 -17 0.5t-23 -0.5q-28 -2 -61 5z" />
    <glyph glyph-name="Y" unicode="Y" horiz-adv-x="436" 
d="M130 -562q-6 8 -10.5 17.5t-7.5 14.5q-5 33 -5 60q0 19 2 29q1 8 5 22q0 10 5 23q11 38 26 68q2 4 4.5 12t4.5 12q2 3 4 5.5t4 5.5q3 5 7.5 15.5t11.5 16.5q-2 2 -0.5 4t0.5 3q6 4 14 16.5t12 17.5v1q0 2 5 8t6 10q9 3 10 12l15.5 15.5t14.5 18.5q3 1 7 5.5t8 4.5
q0 9 15 15q3 6 13 12.5t12 11.5q1 0 2.5 1.5t3.5 0.5q6 13 6.5 33t0.5 28q3 30 7 92q1 28 5 75q1 24 7 74l2 20q1 25 5 63q-4 -5 -6.5 -9.5t-5.5 -9.5q-2 -4 -6.5 -8.5t-7.5 -8.5q-1 -1 -1 -3t-2 -5q-3 -6 -14 -19q-5 -6 -9 -11.5t-7 -10.5q-8 -9 -20 -26q-10 -14 -15 -23
q-19 -15 -23 -29q-1 -2 -3 -3t-3 -2q-4 -7 -19 -22q-1 -1 -1 -3t-2 -4q-4 0 -4 -1q-1 -1 -1 -2.5t-2 -3.5q-3 -3 -7 -5.5t-8 -6.5q-2 -2 -6.5 -9.5t-12.5 -9.5q-13 -19 -34 -32q0 -2 -1.5 -3.5t-1.5 -3.5q-11 0 -18 -12q-11 -1 -19 -10h-4q-9 0 -19 -6q-6 2 -20 5.5t-21 9.5
q-10 11 -16 28l-5 7q-6 16 -6 47q0 30 8 86q7 45 29 98q10 28 18 43q12 23 27 23q7 0 14 -4q1 -4 3 -12.5t0 -14.5q-2 -3 -4.5 -5t-4.5 -5q-4 -7 -18 -43q-11 -28 -20 -61.5t-11 -63.5v-2q0 -5 -1.5 -10t-1.5 -10q0 -3 0.5 -7t-0.5 -6q1 -6 1 -15t1 -15q1 -7 5.5 -16
t5.5 -13q7 -4 8 -6q13 2 18.5 4t10.5 8h2q3 0 6 2t5 3q1 2 1 3t1 2q7 4 15 11t14 11q2 5 7.5 9.5t7.5 5.5q1 0 1.5 2.5t1.5 1.5q4 3 21 23q18 21 23 25q1 5 7 11t7 11q18 16 46 57q19 21 45 64q2 2 8.5 10t9.5 19q12 12 19 28q2 7 11 18t11 16l-1 4q1 2 4.5 5.5t4.5 6.5
q0 7 6 13t15 6q6 0 10 -2q3 -3 5 -6t4 -5q1 -5 -4 -26q-4 -18 -4 -26q-1 -9 -5 -34q-6 -34 -7 -53q-1 -6 0 -11.5t0 -11.5q0 -1 -3 -23q0 -4 -1.5 -9t-1.5 -7v-2q0 -2 1 -6.5t0 -7.5l-3 -6q0 -2 1 -6.5t0 -7.5q1 -1 -0.5 -2.5t-1.5 -2.5q3 -5 1 -8q0 -4 -1 -7t-1 -7v-13
q0 -14 -2 -20l-2 -21q0 -23 -4 -43q2 -8 2 -22q-3 -13 -5 -44q0 -11 -2 -29q3 2 11.5 5t10.5 8q8 2 10 2q3 4 13 6.5t12 4.5q20 4 30 7q9 4 25 7q5 1 12.5 1t12.5 1q20 3 48 3q12 0 25 -3l10 1q4 0 8 -2t8 -3q13 -2 41 -10l26 -7q4 -4 16 -12q13 -8 19 -14.5t6 -15.5l-2 -9
q-2 0 -4 -2.5t-4 -3.5q-3 -2 -9 -2t-11.5 4.5t-6.5 5.5t-7 6t-15 7q-2 1 -2.5 2.5t-2.5 2.5q-5 0 -10 2t-7 3l-4 -1q-3 1 -5 2.5t-3 2.5q-6 3 -15 4t-14 2q-3 1 -8.5 2.5t-8.5 1.5q-21 -3 -23 -3l-4 2t-3 2q-22 -4 -34 -4l-10 1q-6 -3 -20 -5q-3 -1 -9.5 -2.5t-10.5 -3.5
q-8 1 -20.5 -4.5t-19.5 -6.5l-6 -5q-20 -4 -48 -25q-2 -11 -4 -37l-3 -28q-2 -16 -4 -25q-5 -20 -5 -36q-4 -10 -8 -32q-7 -29 -10 -37q-4 -27 -11.5 -50t-23.5 -61l-12 -30q-3 -6 -14 -26t-22 -35q-30 -39 -49 -50q-9 -5 -18 -8.5t-17 -3.5q-4 0 -12 2q-12 4 -18 12z
M206 -498l6.5 6.5t6.5 8.5q10 16 24 51q41 86 51 151q1 1 2 3l2 4l7 43q10 57 12 80q-4 -5 -14 -14t-14 -15q-7 -3 -11.5 -8.5t-9.5 -15.5q-2 0 -3.5 -2t-3.5 -3q-2 -5 -12 -15q-1 -5 -6.5 -10t-7.5 -8q-3 -5 -9 -17t-13 -17q0 -5 -1 -8q-4 -3 -8 -11t-7 -10q0 -3 -6 -11
q-1 -4 0 -7q-7 -3 -8 -10.5t-2 -10.5q-1 -2 -3.5 -4t-4.5 -6q-2 -3 -3 -10t-3 -12q-1 -2 -3.5 -4.5t-3.5 -5.5l1 -8q-1 -3 -3.5 -8t-3.5 -8q-1 -5 -1.5 -9.5t-1.5 -8.5q-3 -12 -4 -26.5t-2 -22.5q2 -9 2.5 -21.5t3 -21t9.5 -15.5q21 7 46 37z" />
    <glyph glyph-name="Z" unicode="Z" horiz-adv-x="440" 
d="M0 -174q0 6 1 11t2 9q4 16 4 24q7 12 7 27q19 58 32.5 95.5t30.5 72.5q0 3 2 9q2 5 7 13.5t6 15.5q37 77 86 165q-12 4 -50 6q-44 2 -58 8q-12 6 -12 23q12 14 25 15q4 0 7 -1t5 -2q29 -4 48 -5q42 -4 59 -7q5 6 13 20q12 20 19 26q5 13 18 28q11 13 16 24q9 5 14 19
q16 12 22 27q4 2 9.5 9.5t10.5 9.5q6 12 20 24q8 8 16 19q14 11 24 24q24 24 39 33q3 8 13.5 16.5t13.5 12.5q-10 12 -16 16q-7 4 -27 11q-2 1 -4 2.5t-4 1.5q-3 1 -11 1q-36 8 -52 8q-16 1 -27.5 0.5t-20.5 -0.5q-35 1 -77 -7q-7 -1 -14.5 -4t-10.5 -4q-5 -1 -15.5 -3.5
t-18.5 -5.5l-12 -6l-14 -7q-8 -7 -17 -11l-19 -14q-5 -5 -8.5 -9t-6.5 -7q-12 -14 -18 -17q-6 -2 -7 -2q-2 0 -4.5 1t-4.5 2q-4 6 -8 18q1 1 2.5 3.5t-0.5 6.5q2 4 9.5 10.5t9.5 12.5q17 12 36 29q50 28 91 40q52 14 148 14q2 0 7 -1t9 1q58 -8 93 -20q0 -1 2 -1.5t1 -2.5
q14 -5 23.5 -13t17.5 -17.5t11 -13.5q4 -9 4 -22q-4 -7 -16 -16t-16 -14q-1 -2 -4.5 -5.5t-8.5 -4.5q0 -7 -12 -13q-7 -10 -28 -27l-28 -30q-44 -48 -62 -70q-1 -5 -10 -14q-10 -18 -25 -31q-2 -4 -1 -7q-11 -11 -27 -35q-6 -10 -12 -18q18 -4 60 -8q34 -2 61 -7
q1 -3 3.5 -4t3.5 -2l6 -10v-4q0 -5 -3 -14q-10 -6 -18 -6t-26 4t-26 4q-6 1 -10.5 0.5t-7.5 -0.5l-23 3q-33 5 -44 4q-9 -12 -17 -29q-12 -22 -21 -33v-2q0 -4 -3.5 -7.5t-4.5 -5.5q-2 -4 -4 -10.5t-6 -7.5q-1 -7 -7 -16.5t-7 -16.5l-4 -5l-21 -46q-3 -9 -10 -23l-5 -10
t-4 -9q-9 -20 -11 -32q-14 -29 -30 -72l-2 -13l-6 -9l1 -5q0 -2 -2.5 -7t-3.5 -8q-5 -21 -6 -23q-8 -32 -8 -59q0 -20 2 -31q5 1 11 6.5t9 7.5q3 7 12 15t12 13q6 2 10 7t5 7q6 1 13 10q4 2 12.5 7.5t14.5 11.5q1 0 2.5 1t2.5 0q5 6 13.5 11t17.5 9q13 5 23 12q20 4 31 11
q15 3 30 3q48 0 97 -20q5 -2 17 -7.5t22.5 -8.5t22.5 -4h7q12 0 18 1q3 0 7.5 2t8.5 3q3 1 5.5 0.5t4.5 0.5l30 12q15 4 26 14q19 5 26 13q4 1 11 1q18 0 23 -15q-2 -10 -2 -14l-10 -13h-2q-3 0 -6.5 -1t-7.5 0q-32 -16 -92 -39q-42 -3 -50 -3q-14 0 -19 1q-14 4 -25 8
t-19 7q-28 11 -48.5 16.5t-41.5 5.5q-22 0 -43 -7q-14 -5 -42 -21l-9 -6q-62 -43 -86 -75q-5 -2 -14 -9.5t-15.5 -11.5t-15.5 -4q-42 0 -40 86z" />
    <glyph glyph-name="bracketleft" unicode="[" horiz-adv-x="220" 
d="M81 -176q-7 7 -13.5 19.5t-10.5 19.5q0 10 -5 11q0 8 -1 14t-2 11q-4 16 -4 25q0 7 1 10q-3 6 -3 14q0 5 1 12t0 10l2 4q-1 13 1 29t3 21t3 18.5t2 23.5q5 5 5 6q0 9 3.5 21t3.5 18q2 4 4 6q2 9 2.5 16t0.5 11l7 13q1 2 1 6v9q0 5 1 8q1 9 6 23q-2 4 -2 5q0 2 2 6t3 7
q0 9 -1 15q0 7 -2 17.5t-2 18.5q-2 3 -6.5 10.5t-5.5 15.5q-4 2 -5.5 7t-2.5 6q-24 26 -39 40t-35 25q-1 4 -4.5 7t-5.5 5q-1 2 -1 5q0 5 4 10.5t5 8.5q6 2 10 2q9 0 33 -8q3 -1 13.5 -5t18.5 -4q2 0 5 1.5t7 0.5q10 3 17 12.5t9 22.5q0 5 4 13l-2 4q0 3 1 6t2 5
q1 6 -1.5 19t-0.5 19q-7 16 -5 23q-2 1 -3.5 4t-2.5 4q-2 12 -6 24.5t-5 16.5q-8 17 -11 33l-2.5 2.5t-2.5 4.5q-1 13 -9 24v5q0 8 -5 12l1 5q-7 9 -9.5 22t-3.5 35q0 1 1.5 2t0.5 3t-1 5q0 4 2.5 10.5t3.5 10.5q3 2 5.5 7t2.5 9q21 24 45 32q2 -1 6 -1t13 3q37 -1 70 -13.5
t46 -36.5q-2 -3 -2.5 -6.5t-0.5 -5.5q-2 0 -4 -3t-3 -3q-1 -1 -4 -1h-13q-5 0 -12 5q-3 2 -5.5 4.5t-5.5 4.5q-4 3 -14 6.5t-12 5.5h-5.5t-5.5 3l-9 -1q-7 0 -13 3q-9 -1 -17 -3t-15 -3q-17 -16 -17 -42q0 -31 18 -61q0 -12 8 -23q0 -11 5 -19t6 -9q2 -18 9 -27q1 -8 4 -19
t4 -16q11 -33 11 -55l-1 -21q0 -7 1 -10q-2 -4 -3 -11t0 -12q-6 -6 -8 -24q-8 -8 -10 -16q-4 0 -12.5 -9.5t-13.5 -8.5q-1 -3 -7.5 -4.5t-7.5 -4.5q-2 3 -4.5 1.5t-3.5 -1.5q14 -14 23 -29.5t23 -45.5q-2 0 -2 -2q4 -14 6.5 -31.5t3.5 -25.5q-3 -3 -3 -8.5v-7.5q0 -6 -1 -11
t-2 -9q-4 -18 -4 -25q-5 -4 -4.5 -12t0.5 -11q-1 -4 -5 -12t-2 -16q-4 -5 -6.5 -19t-5.5 -19l1 -5q0 -3 -2.5 -9t-0.5 -12q-5 -8 -6.5 -21t-2.5 -16q-2 -21 -5 -30q1 -1 2.5 -3.5t0.5 -5.5q0 -1 -1.5 -1t-0.5 -2q1 -4 1 -12q0 -5 -1 -10.5t-1 -11.5q0 -7 3 -14q-2 0 -2 -2
q2 -8 4 -21t5.5 -22t10.5 -15q4 -11 15.5 -17.5t25.5 -4.5q16 19 16 52t-16 73v2l-1 14q0 7 5 11q4 0 11.5 3t12.5 0q7 -5 9.5 -16t4.5 -16q2 -7 8 -26t5 -32q1 -2 1 -7q0 -25 -6 -49q-5 -10 -5 -17h-1q-3 0 -3.5 -3.5t-1.5 -5.5q-11 -12 -18.5 -17t-18.5 -6q-28 -3 -63 23z
" />
    <glyph glyph-name="backslash" unicode="\" horiz-adv-x="257" 
d="M261.5 -105q-10.5 13 -10.5 26q0 12 9 18q-10 27 -13 31q2 5 0 7q-1 5 -4 10.5t-4 9.5q-3 5 -5 14t-4 16l-2 2t-1 3l-10 29q-3 12 -11 32h-0.5t-1.5 1l-5 20q-4 6 -5 13.5t-2 10.5q-2 5 -5.5 11.5t-6.5 14.5q-2 6 -6 20t-11 24q-1 15 -16.5 55.5t-27.5 64.5
q-10 28 -31 70q-15 30 -18 37q-3 0 -3 3q-1 10 -8.5 24t-9.5 19q-1 2 -3 3t-3 2q-2 13 -9 26t-8 15q-10 18 -14 28q-5 4 -13 19q-4 12 -11 19l-1 15q0 10 7 13q2 2 8 2q11 0 21 -10q9 -24 19 -36q0 -1 -1 -1.5t1 -2.5q2 -1 2.5 -2t2.5 -2v-2q0 -4 4 -7l-1 -2q0 -3 10 -11
q0 -1 -1 -3t0 -4q7 -8 15 -26t15 -28v-1q0 -11 13 -24v-1q0 -3 5 -10.5t3 -12.5q1 -2 5 -5.5t2 -9.5q1 0 2 -1l2 -2v-1q0 -5 5.5 -13t5.5 -12q1 -2 2.5 -3.5t2.5 -3.5q0 -4 -1 -7q7 -6 10.5 -17t7.5 -17q0 -1 -1 -1.5t0 -1.5q5 -7 9.5 -17.5t9.5 -23.5q7 -23 20 -54v-3
q0 -4 4.5 -14t3.5 -14q1 1 2.5 -0.5t1.5 -2.5q-1 -1 -1 -3t2.5 -5.5t3.5 -6.5l-1 -2q0 -3 6 -9q0 -2 -1.5 -3.5t-0.5 -3.5q6 -5 8.5 -15t6.5 -15q1 -1 0 -2.5t-1 -3.5q3 -1 2.5 -4.5t3.5 -5.5q-1 0 -1.5 -1t0.5 -2q3 -4 4 -10t5 -9q3 -9 6 -20t7 -17q1 -1 0 -2t-1 -2
q1 -2 3 -3.5t3 -3.5q-1 -1 -1 -3q0 -4 6 -10q-1 -1 -1 -3q0 -3 4 -10.5t2 -10.5q7 -10 13 -32q5 -18 11 -28q-2 -2 -1.5 -4.5t0.5 -3.5q4 -15 8 -21q1 -1 0.5 -2.5t-0.5 -2.5q6 -11 6 -27q0 -8 -1 -12q-2 -1 -4.5 -5.5t-4.5 -5.5l-2 1q-1 0 -4 -2.5t-5 -1.5q-12 2 -22.5 15z
" />
    <glyph glyph-name="bracketright" unicode="]" horiz-adv-x="215" 
d="M146 -176q-32 0 -59.5 9.5t-41.5 27.5q1 3 1 6.5t1 5.5q2 0 4 3t3 4q2 2 5.5 1.5l3.5 -0.5q12 2 11 2q2 0 8 -3l13 -8q4 -2 14 -4t13 -5q2 0 5.5 0.5t4.5 -1.5q6 2 13 2q3 0 11 -2q6 2 14 5t16 5q12 15 12 35q0 17 -7.5 35.5t-17.5 31.5q-1 10 -11 22q-2 10 -7.5 17.5
t-7.5 9.5q-3 18 -11 25q-4 16 -14 36q-12 30 -16 46q-1 7 -1.5 18t-3.5 18q2 6 2 13l-1 10q4 7 4 25q7 8 8 17q4 1 12 11.5t13 9.5q0 3 6 5.5t8 5.5q1 -3 4 -1t4 2q-16 12 -27.5 27t-28.5 42q3 0 1 2q-7 15 -10 33l-6 22q2 2 2 6l-1 11q0 8 1 17t1 17t-1 11q3 5 3 9l-1 11
q0 4 2.5 14.5t0.5 17.5q4 5 4.5 19t3.5 20q-2 6 -1 13.5t0 12.5q4 11 4 27l-1 28q0 9 1 13q-1 1 -2 3.5t-1 5.5l1 0.5t0 2.5q-2 8 -2 21q0 2 -1 10.5t-5 16.5q2 0 2 2q-2 6 -6 19t-9 22t-12 14q-4 8 -12.5 13t-19.5 5q-7 0 -11 -1q-10 -17 -10 -40q0 -38 25 -84
q1 -3 2.5 -8.5t1.5 -10.5q0 -6 -4 -9q-4 0 -11 -3.5t-13 -1.5q-5 2 -8.5 7.5t-5 11.5t-4.5 11q-2 4 -10.5 22.5t-8.5 33.5q-2 2 -2.5 3.5t-0.5 2.5q-1 11 -1 28q0 13 1 22q4 5 4 17q3 0 3 4t1 6q10 12 17 18.5t17 8.5t14 2q21 0 51 -17q8 -6 16 -17.5t13 -18.5q2 -9 6 -10
q1 -8 7 -24q8 -24 7 -35q3 -6 4 -18.5t3 -16.5q-1 -1 -1 -2t-2 -2q2 -10 2 -30l-1 -41q0 -15 1 -22l-4 -6q1 -9 0 -21.5t-1 -18.5l-4 -6q0 -5 0.5 -12t-0.5 -16q0 -3 -2 -6.5t-2 -6.5q0 -5 0.5 -12t-0.5 -11t-1 -10t-2 -14q2 -2 2 -6q0 -3 -1 -6t-1 -6t2 -15q1 -9 4.5 -19.5
t4.5 -15.5q2 -4 7.5 -10.5t7.5 -14.5q3 -1 5.5 -5t3.5 -6q45 -41 81 -56q2 -3 6 -6t6 -5q1 -2 1 -6q0 -3 -3 -8.5t-4 -9.5q-5 -4 -15 -4q-12 0 -27 5q-4 1 -15 3t-19 1l-5 -2.5t-6 -0.5q-20 -9 -22 -38q0 -5 -2 -13q2 -2 2 -5q0 -2 -1 -5t0 -5q0 -7 4 -19.5t3 -18.5
q8 -12 8 -22q1 0 2.5 -3t3.5 -4q3 -14 16 -38l7 -14t7 -19l7 -6q1 -13 11 -23q0 -11 7 -16v-5q8 -9 12 -21.5t8 -33.5q0 -1 -1.5 -2.5t-0.5 -3.5q2 -4 2 -7q0 -4 -1.5 -9t-1.5 -10q-6 -8 -6 -17q-20 -28 -41 -37l-4 1q-3 0 -15 -6q-6 -1 -20 -1z" />
    <glyph glyph-name="underscore" unicode="_" horiz-adv-x="317" 
d="M172.5 173q-36.5 1 -63.5 0q-11 0 -23 4.5t-16 10.5q0 2 1.5 3.5t0.5 5.5q1 0 3.5 -0.5t3.5 0.5l1.5 2t1.5 0l31 -1l69 1q40 0 58 -3q3 -5 7 -6l-2 -0.5t-2 -4.5q-4 1 -6 -6.5t-3 -8.5q-25 2 -61.5 3z" />
    <glyph glyph-name="a" unicode="a" horiz-adv-x="382" 
d="M218 13q-51 0 -66 51t-13 116q-4 -3 -20 -24q-4 -5 -9 -11.5t-11 -12.5q-16 -16 -27 -24.5t-27 -9.5q-18 -2 -31 9.5t-14 29.5q0 26 15 67q2 5 12 23q3 5 5.5 9t4.5 7q0 1 -0.5 2t0.5 2q3 5 10.5 14.5t9.5 15.5l6 3q-1 2 0 3t1 2q4 3 11.5 11t14.5 10q1 1 0.5 2t0.5 2
q6 3 13 7.5t12.5 6.5t10.5 0q3 3 10 3q5 0 11.5 -3t11.5 -4q1 -2 2.5 -3.5t2.5 -3.5q4 1 8.5 4.5t7.5 4.5q7 -1 11.5 -5.5t7.5 -9.5q-1 -14 -8 -33q-3 -6 -7 -20q-6 -32 -8 -68q0 -61 6 -89q8 -36 28 -46q5 1 14.5 1.5t12.5 -0.5q17 4 27.5 10.5t23.5 18.5l21 16
q-1 2 6.5 10t7.5 9q22 20 30.5 30t27.5 36q2 2 8 9t17 9q1 0 3 -2t5 -1q2 -4 4.5 -8.5t3 -8.5t-1.5 -10l-22 -23l-7 -3q-3 -3 -4.5 -6.5t-5.5 -5.5q-31 -37 -101 -99q-7 -2 -19 -8t-20 -9q-14 -3 -24 -3zM56 142q10 7 20 21q8 10 13 15q2 2 4.5 3.5t4.5 3.5q3 4 6.5 12
t8.5 11q0 8 8 12q1 7 7 16.5t7 16.5q4 3 7.5 11.5t6.5 11.5q-7 11 -9 13q-24 -6 -38.5 -21.5t-25 -33t-15.5 -24.5q-3 -9 -9 -23t-9 -25.5t-3 -24.5q10 1 16 5z" />
    <glyph glyph-name="b" unicode="b" horiz-adv-x="342" 
d="M2.5 -23q-5.5 10 -5.5 18q-1 12 -0.5 21t0.5 15q1 8 1 23l9 75v9q0 19 2 23q6 75 10 114l5 57q-2 -2 -5.5 -5t-5.5 -7q-6 -1 -12.5 -8.5t-11.5 -8.5q-2 -4 -4 -6l1 -1l-2 -1q-4 -4 -7.5 -6.5t-6.5 -4.5l-1 2q-3 -1 -11 -1q-1 1 -2.5 3t-4.5 2q-1 4 -2.5 9t-1.5 8
q0 4 4 11q9 5 16 10l1 4q28 26 34 30l1 5q4 2 10 8.5t10 8.5l2 6q2 -1 4 1q5 26 11 84q3 27 11 81q6 39 14.5 80.5t18.5 76.5q19 68 26 91q2 7 5.5 16.5t5.5 17.5l12 33q3 10 6.5 18t5.5 14q15 40 33 68.5t45 44.5h3l8 1q3 3 3 4l8 -1q4 0 10 2q28 -6 41 -22q2 -1 2.5 -3
t2.5 -3q8 -12 16 -29v-3q0 -9 5 -16q0 -2 3 -26q4 -22 3 -32v-3q0 -2 -0.5 -7.5t1.5 -9.5q-3 -7 -5 -29t-4 -32q-1 -2 -2.5 -4t-1.5 -4q0 -1 1 -3t0 -3q0 -1 -1.5 -2t-1.5 -3v-4.5t-2 -4.5q0 -3 -0.5 -8.5t-3.5 -9.5q0 -5 -5 -15t-3 -17q-6 -9 -10 -21.5t-6 -18.5
q-6 -6 -10 -15t-5 -18q-7 -6 -13 -20t-10 -22q-4 -4 -9.5 -15.5t-12.5 -15.5q-9 -19 -19 -28q-6 -12 -26 -41l-21 -31q-2 -1 -5 -3.5t-7 -5.5q-3 -9 -12 -19t-12 -16q-8 -6 -17 -18q-8 -13 -19 -20q-5 -13 -13 -15q-2 -6 -5 -7q-4 -27 -8 -81q0 -11 -2 -31q0 -6 -1.5 -15
t-2.5 -17q-8 -115 -17 -204q3 1 5.5 5.5t5.5 5.5q17 30 30 44q4 3 9.5 11t8.5 12q1 2 4 4.5t4 3.5q3 4 9.5 12.5t13.5 12.5q9 16 29 32q5 7 15 15t14 12l19 12q25 15 29 17q3 -1 7 -1q5 0 10 1.5t9 1.5q16 -2 25 -15.5t11 -29.5q1 -20 -7.5 -44t-21.5 -44v-1l6 3
q2 3 7.5 8.5t4.5 6.5q22 20 30.5 30t27.5 36q2 2 8 9t17 9q1 0 3 -2t5 -1q2 -4 4.5 -8.5t3 -8.5t-1.5 -10l-22 -23l-7 -3q-3 -3 -4.5 -6.5t-5.5 -5.5q-31 -37 -101 -99l-4 -1l-5 -4q-6 -1 -14 -9q-12 -2 -19 -2q-13 0 -18 8q-3 5 -3 10q0 8 4 15.5t5 9.5q13 11 24 26.5
t20 30t12 18.5q2 8 6.5 22t4.5 23q0 7 -3 13q-14 -3 -25.5 -10t-27.5 -20q-7 -7 -19 -15q-3 -5 -2 -7q-16 -12 -32 -31t-19 -22q-7 -9 -23 -27q-1 -2 0 -3.5t0 -3.5q-14 -12 -22 -30q-8 -5 -18 -23q-6 -11 -13 -19q-4 -2 -10 -8t-11.5 -8.5t-13.5 0.5q-7 1 -12.5 11z
M80.5 449.5q3.5 4.5 6.5 3.5l2 7q5 4 15 17t17 18q0 2 1.5 3.5t0.5 3.5q2 0 3 1t3 2q3 9 13 21t12 19q7 5 12 13.5t7 10.5q7 12 15 20q10 24 27 43q3 11 9.5 21.5t8.5 13.5q1 2 0.5 4t0.5 3q12 19 23 52q1 0 2 2t2 3t0.5 3t-0.5 3q3 5 6 15t7 17v2q0 3 3 12.5t1 13.5
q3 1 3 6t2 7q2 9 4 25q1 5 2.5 15t3.5 17q-2 1 -2.5 4t-0.5 4q1 1 0.5 3t0.5 4q1 1 0 2.5t-1 2.5q2 6 2 7q0 2 -3 11q1 2 2 3.5t2 2.5q-4 3 -4 12q0 10 -4 11q2 4 2 6q0 3 -5 10t-4 13q-1 2 -4.5 5.5t-4.5 7.5q-3 0 -4.5 1t-1.5 3q-3 2 -8 2q-3 0 -7 -1t-8 0
q-21 -14 -33.5 -37t-26.5 -63q-7 -22 -10 -28q-69 -183 -95 -408q2 0 5.5 4.5z" />
    <glyph glyph-name="c" unicode="c" horiz-adv-x="275" 
d="M65 15q-8 4 -14 6q-3 5 -13 11q-5 9 -16 18q-13 26 -21 80q1 7 2.5 34t8.5 44q6 16 15 35t18 29q2 2 4.5 3t4.5 2q1 1 1 3t1 3q10 7 23.5 12t26.5 4t20.5 -7t19.5 -19q8 -22 8 -31q0 -7 -3 -15q0 -6 1 -7q-6 -11 -13 -16.5t-19 -2.5q-6 5 -6 15q0 6 1 12.5t1 12.5
q0 13 -8 16q-4 2 -7 2q-6 0 -13.5 -5t-9.5 -6q-16 -16 -25 -46q-1 -4 -7 -23.5t-6 -37.5q1 -21 5.5 -43t12.5 -32q15 -18 29 -19q2 0 4.5 1t5.5 1q2 0 5 -1t5 -1q2 1 4.5 3t4.5 3q1 1 2 0t2 0q1 0 1 1t1 1q2 1 4 0.5t4 0.5t3 3t3 3q3 3 15.5 8t15.5 12q3 1 7 3.5t7 2.5l8 12
q6 2 10 4q6 7 18.5 18t17.5 24q2 0 2.5 1t2.5 0q4 2 6 11q7 5 14 13.5t9 11.5q1 1 2.5 2t2.5 2t0.5 2t0.5 2l4 2l5.5 5.5t12.5 4.5q7 0 12 -4q1 -2 1.5 -6t3.5 -4q1 -4 -5 -10t-17 -27q-5 -1 -7.5 -6t-4.5 -8q-1 -1 -3.5 -2t-3.5 -3q-1 -1 -0.5 -2.5t-0.5 -2.5
q-1 -2 -4 -3.5t-5 -3.5q-2 -3 -2 -5t-1 -3h-2q-4 0 -6 -4.5t-2 -5.5q-1 -1 -2.5 -1.5t-2.5 -0.5q-4 -3 -9.5 -10t-9.5 -11q-9 -6 -12 -9q-8 -6 -12 -10q-6 -1 -12 -7t-10 -9q-3 -2 -12.5 -6t-11.5 -10q-2 1 -3.5 0t-3.5 -1q-40 -21 -69 -18q-7 1 -15 5z" />
    <glyph glyph-name="d" unicode="d" horiz-adv-x="441" 
d="M264.5 36q-14.5 7 -18.5 15q-1 1 -3 2t-3 1v5q-5 3 -10.5 14.5t-10.5 14.5q-1 6 -14 29q0 8 -5 11q0 1 -1 5.5t-4 6.5q0 6 -4 15t-3 14q-2 2 -4 7.5t-5 7.5v3v4t-2 5l1 3q0 2 -1.5 4.5t-2.5 4.5q-31 -45 -40 -56q-4 -5 -11.5 -11t-10.5 -11q-6 -3 -16 -11.5t-18 -13
t-18 -6.5q-1 0 -1 -1t-1 -1q-9 -3 -18 -3q-19 0 -34 13q-10 14 -10 37q0 20 5 37q4 4 7 15.5t7 14.5v2q0 5 5 12t4 14q5 4 9 12.5t6 11.5q12 11 25 33q3 1 22 13q15 14 30 18q11 3 19 -2t8 -13q0 -5 -5 -12l-8 -4t-7 -7l-3 1q-5 0 -9 -8q-8 -2 -17 -11.5t-15 -12.5
q-4 -10 -9 -12q-2 -13 -14 -25q0 -9 -6 -12q0 -9 -7 -16v-3q0 -3 -5 -13q-1 -2 0 -3.5t0 -3.5q0 -1 -1.5 -2.5t-1.5 -2.5q-1 -1 0 -2t0 -2q-1 -3 -2.5 -8.5t-1.5 -9.5q0 -8 5 -11q16 3 27.5 11t22 18t17.5 16q28 34 43 63q2 4 6.5 10.5t5.5 9.5q0 13 -1 17t-5.5 15.5
t-2.5 19.5q0 1 -1.5 1.5t-2.5 1.5q1 2 1 6t-1 8t-3 5v4q0 9 -5 17v4q0 13 -5 20q1 3 1 11q-2 4 -4 5v9q-2 1 -2.5 6t-3.5 7q2 4 2 6q0 4 -2.5 10t-0.5 11l-2 2l-2 2q-1 3 -1 11q0 17 -5 22q2 9 -1.5 23t-3.5 20q0 5 1 8q-4 6 -4.5 19.5t-1.5 18.5q-4 8 0 13q-1 1 -1.5 3
t-2.5 1q-4 65 -9 88q0 1 1.5 6t-3.5 7q3 3 2 8.5t0 9.5q-2 8 -2 13v10q0 9 -2 13l2 5q-2 6 -2 16l1 23q0 7 -1 11q2 6 2 8q0 5 -1 8.5t-1 7.5q0 5 3 9q-2 6 -2 9q0 4 2.5 14.5t0.5 15.5q0 1 1 2.5t3 1.5q-2 4 -2 7q0 8 6 14q0 10 5.5 23t5.5 19q5 6 8 11t6 9q11 17 13 19
q9 5 19.5 9t20.5 4q11 0 22 -6t16 -8q5 -5 14.5 -16.5t16.5 -21.5v-4q6 -8 15 -30q2 -5 5 -11l6 -12v-7q32 -101 32 -206q0 -18 -2 -50q-6 -88 -27 -166q-1 -3 -2.5 -6t-2.5 -6q-18 -65 -52 -149l-8 -16l-5.5 -11t-2.5 -14q1 -3 2.5 -6t2.5 -7q2 -6 4.5 -18.5t7.5 -17.5
q0 -5 -1 -6q3 -4 6 -14t7 -14q2 -19 8 -25q4 -12 12 -24q2 -12 8 -14q3 -13 17.5 -26.5t36.5 -13.5q17 0 29.5 8.5t29.5 26.5q-1 2 6.5 10t7.5 9q22 20 30.5 30t27.5 36q2 2 8 9t17 9q1 0 3 -2t5 -1q2 -4 4.5 -8.5t3 -8.5t-1.5 -10l-22 -23l-7 -3q-3 -3 -4.5 -6.5t-5.5 -5.5
q-29 -36 -54 -62.5t-47 -36.5q-19 -9 -39 -9q-11 0 -17 1q-6 4 -20.5 11zM243 494l-1 4q1 3 3 7.5t3 8.5q15 99 15 153q0 21 -4 57q0 5 -0.5 16.5t-3.5 15.5l1 5q0 5 -1.5 9.5l-2.5 7.5l-8 48q-2 9 -6.5 21.5t-5.5 19.5l-13 30q-12 25 -22.5 39t-26.5 14q-6 0 -12 -3
q0 -5 -3.5 -7t-5.5 -4q-2 -6 -8 -16q0 -9 -3.5 -14.5t-4.5 -7.5t-0.5 -4t0.5 -5q-2 -6 -6 -17.5t-4 -19.5l-1 -32q0 -16 2 -22q-2 -9 -2 -30l1 -32q2 -26 1 -37q3 -4 2.5 -8t-0.5 -6q0 -5 3 -19t-1 -18q6 -10 2 -19q3 -17 7 -53q6 -54 13 -78q-1 -1 -1 -4t1 -5l2 -4
q0 -3 -0.5 -8t0.5 -8l2 -4t1 -5q1 -4 0.5 -7.5t0.5 -7.5l4 -9q0 -2 -0.5 -4t0.5 -4q1 -4 3 -9.5t3 -8.5q0 -4 0.5 -14t5.5 -18l-1 -3q0 -3 2.5 -6.5t3.5 -5.5q-1 -3 -1 -8q0 -6 2 -12t3 -10q0 -3 0.5 -8t3.5 -8q40 102 58 177z" />
    <glyph glyph-name="e" unicode="e" horiz-adv-x="305" 
d="M69 45q-3 2 -5.5 5t-4.5 4l-6 2q-10 9 -21 27.5t-15 33.5q-1 3 -7 30q-1 9 -1 30q0 16 1 24q1 4 2 12.5t5 14.5q5 39 24 68t51 53q8 2 12 4q4 3 15 6.5t17 1.5t12 -8q6 -4 10 -13.5t6 -13.5l-1 -6q1 -2 1 -6t-2 -10.5t-3 -13.5q-20 -37 -45.5 -59.5t-63.5 -26.5
q-3 -15 -3 -31q0 -42 20.5 -73.5t56.5 -30.5q8 1 18 4t16 5l8 2t7 2q2 1 4 3t4 3l12 5q14 7 48 33q18 14 27 20q1 3 3.5 6t3.5 6q10 6 26 22t27 22q17 -4 17 -19q0 -8 -1 -12q-24 -24 -37 -35q-7 -6 -15 -14.5t-14 -12.5q-6 -5 -13.5 -11.5t-18.5 -14.5q-26 -20 -60 -35.5
t-63 -15.5q-30 0 -54 13zM59 243q4 0 9.5 3.5t9.5 3.5q27 23 38.5 37t11.5 37h-2q-8 0 -12.5 -4t-5.5 -5q-18 -11 -30 -29t-21 -43h2z" />
    <glyph glyph-name="f" unicode="f" horiz-adv-x="414" 
d="M106.5 -145.5q-26.5 43.5 -38.5 103.5q-11 55 -13 159l-1 24q-2 24 -2 35q-4 -1 -17.5 -7.5t-19.5 -8.5q-12 1 -19 15q1 4 3.5 8t3.5 9q8 3 18 9l15 9l19 12q1 105 25 250q3 18 9 38l6 24q16 82 50 159q5 14 14 29l6 12t5 11q3 4 11 17q4 6 8.5 10t7.5 8q5 8 6 12l10 9
q19 20 35 30q8 4 19.5 6.5t19.5 1.5q17 -6 32 -21q3 -7 9 -19.5t9 -23t2 -20.5q2 -5 3 -12t3 -9q0 -1 -0.5 -3.5t-2.5 -3.5q3 -4 3 -11q0 -5 -3 -8q1 -4 1 -13t-1.5 -21t-0.5 -18v-6q0 -8 -4 -12q0 -3 -0.5 -14t-4.5 -17q0 -9 -4 -18v-4q0 -4 -3 -11t-4 -13q0 -4 -4.5 -12.5
t-2.5 -13.5q-10 -17 -15 -40q-1 0 -2 -1.5t-3 -1.5q-4 -14 -12 -28q-11 -23 -14 -34q-5 -3 -6.5 -5.5t-1.5 -7.5q-11 -10 -14 -25q-6 -4 -12.5 -16.5t-11.5 -16.5q-3 -4 -10.5 -16t-15.5 -19l-1 -6q-16 -12 -27 -33q-8 -5 -13.5 -12t-8.5 -10q-19 -22 -55 -53v-38
q0 -146 17 -220q1 -6 5 -20.5t11 -30.5q3 -6 9.5 -18t14.5 -21q15 -15 29 -15q7 0 13 3t13.5 14.5t13.5 14.5q0 3 2.5 7.5t1.5 7.5q1 0 1.5 2.5t2.5 1.5q1 5 5.5 14.5t1.5 17.5q2 2 3 6.5t2 6.5l-2 20q0 16 -2 27v2.5t-3 1.5q2 3 0 8q-12 29 -19 38q-5 7 -17 21
q-11 12 -17.5 21t-9.5 21q2 2 1.5 4.5t-0.5 3.5q4 11 12 11q9 0 27 -21q0 -3 3 -6t7 -5q2 -3 10.5 -15t18.5 -21q2 -8 11 -22q17 8 64 48q6 4 11 9t10 8q-1 2 6.5 10t7.5 9q22 20 30.5 30t27.5 36q2 2 8 9t17 9q1 0 3 -2t5 -1q2 -4 4.5 -8.5t3 -8.5t-1.5 -10l-22 -23l-7 -3
q-3 -3 -4.5 -6.5t-5.5 -5.5q-24 -28 -70 -72t-78 -60q2 -8 1 -13q1 -7 3 -16t2 -15q0 -8 -3 -11q1 -16 -7 -40q-6 -18 -7 -28q-6 -7 -16 -23q-2 -3 -8.5 -13t-13.5 -15q-6 -1 -11 -5.5t-8 -6.5l-14 -2t-14 -1q-37 0 -63.5 43.5zM120 288q10 6 23 23q8 12 18 20q11 18 25 32
q1 6 6.5 12t5.5 10q10 13 24 38l11 19q1 7 7 15t9 13q0 7 2 10q0 2 4.5 7t2.5 10q2 -1 3.5 2t2.5 3q6 19 14 37q6 16 11 32t6 31q5 5 6 19t5 19q-1 2 -1 5l1 9q2 8 2.5 18.5t2.5 20.5q-1 4 -1 12v11q0 15 -3 20q2 12 -1.5 24.5t-11.5 31.5q-3 1 -7 5.5t-12 4.5q-3 -1 -11 -5
t-15 -11q-14 -14 -20 -22q-44 -57 -69 -141q-22 -66 -32 -106l-7 -34q-5 -19 -9 -42l-2 -29q-8 -34 -11 -68.5t-3 -40.5l-3 -44q19 14 27 29z" />
    <glyph glyph-name="g" unicode="g" 
d="M162 -324q-25 0 -44 19q-5 5 -9.5 11.5t-8.5 11.5q-3 14 -10 38q2 18 2 29q0 35 8 51q2 17 16 49q8 16 11 25q5 4 11 15t10 14l1 6l16 23q26 37 45 56q-8 32 -16 60q-18 72 -23 98l-20 -22q-2 -3 -17.5 -19t-32.5 -27q-32 -19 -61 -19q-15 0 -28 6q-20 6 -20 41
q0 15 3 25q3 6 11 18l16 29l17 18q20 22 32 32q18 16 52 30q14 2 20 2q7 0 14 -4q2 -1 2.5 0t1.5 1q3 -1 6 -4.5t5 -5.5q2 5 12 17q3 1 8.5 2.5t10.5 -0.5q7 -7 10 -12t4 -12q0 -8 -6 -21t-7 -20q-1 -3 -1 -10q0 -10 1 -15q3 -41 24 -106l13 -48l5 5h1q14 14 25 20l18 14
q-1 2 6.5 10t7.5 9q22 20 30.5 30t27.5 36q2 2 8 9t17 9q1 0 3 -2t5 -1q2 -4 4.5 -8.5t3 -8.5t-1.5 -10l-22 -23l-7 -3q-3 -3 -4.5 -6.5t-5.5 -5.5q-16 -19 -44 -46q0 -2 -18 -22q-3 -4 -10 -8.5t-12 -9.5l-6 -9q-3 -3 -8.5 -8t-8 -9t-2.5 -10t1 -9l4 -9q13 -55 13 -110
q0 -58 -15 -107.5t-46 -79.5q-6 -2 -19 -13q-15 -6 -29 -6zM94 152q3 2 5.5 5.5t5.5 5.5t7 4.5t6 5.5q1 1 1 3t1 3l8 6q1 1 0.5 2t0.5 2t2.5 1t1.5 1q1 2 2 3.5t2 3.5q1 1 3 2t3 3q2 2 2.5 4.5t1.5 4.5q2 5 9.5 13.5t9.5 13.5q0 3 0.5 6t-0.5 9q-12 5 -22 5q-17 0 -38 -14
q-22 -15 -47 -47q-14 -18 -22 -32.5t-8 -30.5q5 -2 18 -5q29 9 47 22zM213 -234q14 31 18 70q2 28 2 42q0 59 -13 104l-13 -17q-17 -19 -24 -35q-12 -11 -17 -29q-11 -14 -19.5 -33t-10.5 -23q1 -2 1 -5q0 -4 -4 -12.5t-2 -14.5l-4 -3q-2 -24 -2 -33q0 -31 16 -58
q8 -7 19 -7q8 0 16 4q23 19 37 50z" />
    <glyph glyph-name="h" unicode="h" horiz-adv-x="493" 
d="M270 14q-20 17 -28 44t-14 71q-5 32 -9.5 52t-12.5 35q-10 1 -20 -5.5t-14 -14.5q-1 -1 -2.5 -1t-2.5 -1q-11 -10 -23 -24t-17 -20q1 -2 0 -5q-9 -4 -16 -19q-5 -11 -12 -16q-2 -8 -10 -19t-12 -16q0 -1 -0.5 -2.5t1.5 -1.5q-15 -19 -19 -33q-2 -3 -8 -12.5t-13 -15.5
t-15 -6q-16 0 -19.5 13t-3.5 41q2 61 11 132.5t21 128.5q1 11 5 28q9 51 22 98q1 5 2 9.5t2 9.5q0 1 1.5 2t1.5 2q1 1 0 2.5t0 2.5q0 2 1.5 3t1.5 2l6 20q2 5 3.5 11t4.5 12q2 6 6.5 14.5t7.5 13.5q2 4 6.5 14.5t9.5 17.5q1 2 2 5t2 5q6 11 15 22.5t13 16.5q1 1 4 3t3 5
q3 2 17 10t28 8q8 0 15 -4q4 -2 11 -9.5t7 -11.5q0 -1 5 -3v-4q0 -10 4 -14q-1 -7 -0.5 -14t0.5 -12q0 -14 -2 -20q2 -2 1 -4.5t-1 -4.5q-1 -1 0 -1t1 -1q-1 -5 -5.5 -17t-3.5 -19q-5 -13 -4 -22q-7 -7 -13 -27q-1 -3 -3.5 -11.5t-7.5 -14.5q-1 -1 1 -2.5t1 -1.5
q-12 -17 -24 -49q0 -3 -4 -5q-2 -8 -11 -24q-7 -11 -10 -20q-3 -5 -10.5 -15.5t-8.5 -18.5q-12 -7 -11 -17q-1 0 -2.5 -1.5t-3.5 -1.5q-16 -25 -56 -65q-6 -2 -9 -4q-8 -67 -15 -143q5 4 8.5 11.5t4.5 9.5q7 17 16 24q2 6 1 9q23 27 36 50q14 9 18 15q1 1 1 2.5t1 2.5
q2 2 4.5 3.5t4.5 3.5q1 1 0.5 2.5t0.5 2.5t2.5 1.5t2.5 1.5t1.5 3t1.5 3q2 1 4.5 3t5.5 4q2 1 2.5 2.5t1.5 2.5q3 2 8 4t6 6q20 12 33 12q26 0 37.5 -21t15.5 -43.5t6 -29.5l3 -22q3 -32 7.5 -53.5t14.5 -33.5q11 -14 29 -14q16 0 33 10q2 1 3 3.5t4 1.5q20 17 42 30
q8 12 17 15q0 5 3.5 8t7.5 5q0 6 8.5 13t9.5 14q9 5 15 12.5t8 9.5q4 6 9.5 12.5t12.5 9.5q2 5 8.5 11.5t8.5 11.5q3 3 8 3q4 0 16 -7q1 -4 1.5 -8.5t1.5 -5.5q-1 -2 -4 -6.5t-4 -8.5q-6 -4 -12.5 -12t-11.5 -13q-4 -3 -8.5 -9.5t-8.5 -8.5q0 -2 -1.5 -3.5t0.5 -2.5
q-15 -8 -16 -18q-7 -4 -15.5 -14.5t-14.5 -14.5q0 -1 0.5 -2.5t-0.5 -2.5q-6 -1 -10.5 -6t-6.5 -10q-11 -5 -20.5 -13.5t-13.5 -11.5q-5 -3 -43 -24q-11 0 -16 -4q-37 -3 -57 14zM69 275q2 2 3 5t2 5q2 2 4.5 4t4.5 4q1 1 0.5 2.5t-0.5 2.5q1 1 4 3t5 5v4l7 5q0 4 1 6
l3.5 3.5l3.5 3.5q0 1 -0.5 2t0.5 2q1 2 3 3.5t4 3.5q2 3 4.5 10.5t8.5 10.5v3q0 7 8 12q0 2 2.5 11t8.5 12q2 10 9 18v6q21 37 24 62q1 1 3 2.5t3 3.5v2q0 5 1.5 9.5t0.5 8.5q1 1 2.5 1t1.5 2q14 36 12 67q3 3 3 11q0 9 -3.5 17.5t-8.5 9.5q-6 -3 -13 -8.5t-12 -8.5
q-2 -6 -11 -17t-11 -20q-7 -8 -15 -26q-5 -14 -11 -22q-6 -20 -10 -30q-16 -44 -18 -60q-8 -24 -10 -42q-2 -2 -2 -4q-4 -24 -7 -34q1 0 1 -3q-5 -13 -9 -44q-5 -26 -6 -30q4 2 9 6z" />
    <glyph glyph-name="i" unicode="i" horiz-adv-x="259" 
d="M6.5 310.5q-4.5 7.5 -4.5 15.5q0 9 6 15l-1 3q0 2 1.5 5t0.5 5q7 5 14 5q8 0 15 -4t9 -11v-14q0 -8 -1 -11q-3 -8 -12 -15l-4 -1q-2 0 -5.5 0.5t-6.5 -1.5q-7 1 -11.5 8.5zM62 -6q-16 11 -34 31q-2 10 -8.5 23.5t-8.5 17.5l-4 29q-7 35 -7 62q0 13 1 20v4l-1 16q0 3 1 5
l2 4v14t1.5 16.5t6.5 12.5q6 2 8 2q9 0 16 -6.5t8 -14.5q0 -2 -1 -3.5t-1 -4.5q-2 -36 -2 -62q0 -98 41 -135q7 -4 17 -4q7 0 10 1t14.5 7t17.5 15q7 0 11 7t7 10l12 12q8 5 9 7q3 3 5.5 8t6.5 6q0 4 2 8q27 25 42 53q10 8 21 26q9 16 18 24q5 -1 10 2q6 0 10 -5.5t6 -7.5
q1 -13 -5.5 -22.5t-7.5 -10.5q-8 -10 -11 -19l-15 -16q-12 -15 -15 -17v-1q0 -2 -6.5 -8.5t-4.5 -11.5q-5 -1 -9.5 -6.5t-6.5 -7.5v-1q0 -4 -3 -6.5t-7 -3.5q-1 -2 -4 -7.5t-10 -7.5v-3t-1 -3l-20 -18q-15 -12 -24 -22q-18 -5 -28 -13q-2 0 -9 -1t-11 -4q-23 -1 -39 10z" />
    <glyph glyph-name="j" unicode="j" horiz-adv-x="232" 
d="M-27 283.5q-8 9.5 -14 10.5q-1 2 -3.5 9t-1.5 14q2 2 5 6t5 5q6 3 17.5 -1t18.5 -3q12 -9 16 -22q1 -13 -7.5 -22.5t-20.5 -6.5q-7 1 -15 10.5zM-14 -526q-1 -1 -2 -1t-1 -1q-34 7 -59 42q0 2 -1.5 4t-1.5 4q-31 46 -33 131l-1 31q0 7 1.5 14.5t1.5 14.5q0 5 2 17
q1 5 0.5 9.5t-0.5 7.5q1 4 3 11t3 12q0 12 3 17q8 63 41 129q0 2 -1 4t1 3q1 1 2 4.5t5 4.5q24 48 41 67q1 2 0.5 3t0.5 2q10 8 12 15q6 4 12 10t8 13q15 7 22 19l8 1v3q0 11 -5 14q-5 25 -15 43q-3 11 -17 46l-10 25q-2 7 -7 16.5t-5 15.5q0 8 5 14q9 5 21 4q3 -2 5 -5
t5 -4l17 -40q4 -11 17.5 -44t22.5 -61q1 1 7 6t11 5q5 5 12.5 8.5t9.5 4.5q11 3 18 9q15 2 20 8q7 -1 17 5.5t14 8.5q11 7 17.5 13.5t18.5 24.5q2 2 8 9t17 9q1 0 3 -2t5 -1q2 -4 4.5 -8.5t3 -8.5t-1.5 -10l-22 -23l-7 -3q-3 -3 -4.5 -6.5t-5.5 -5.5q-8 -10 -11 -10.5
t-9 -4.5q-2 -2 -9 -5.5t-15 -8.5q-14 -9 -48 -23q-2 0 -1.5 -1l0.5 -1q-11 -4 -21.5 -11t-19.5 -14q9 -29 16 -70l10 -44q1 -16 5 -43q1 -11 3 -26.5t3 -35.5q0 -5 2 -19q1 -4 1 -16q0 -19 -1 -29l-1 -34q0 -13 -1 -23t-2 -17q-8 -88 -29 -134q-3 -5 -4 -9t-2 -6t-2.5 -3
t-2.5 -3t-0.5 -3.5t-0.5 -3.5q-1 0 -2.5 -1.5t-2.5 -3.5l-7 -11q-4 -7 -12.5 -15t-12.5 -13q-15 -7 -26 -15l-35 -5zM42 -467q3 4 11 16.5t13.5 24.5t7.5 25q7 15 10 31t5 32.5t3 25.5l4 20q2 36 2 54q0 74 -11 149l-3 20q-4 38 -11 54q2 20 -10 43q-5 -5 -13 -14.5
t-16 -14.5q-1 -1 -0.5 -3t-0.5 -2q-5 -1 -8.5 -9t-8.5 -9l-12 -21q-5 -7 -13 -21q1 0 1.5 -0.5t-0.5 -1.5q-4 -4 -6 -5q0 -2 -0.5 -3t0.5 -2q-5 -4 -8.5 -14.5t-8.5 -14.5q0 -2 2 -4q-1 -2 -5.5 -7.5t-1.5 -10.5q-1 -2 -3 -5.5t-4 -7.5t-3 -11t-2 -12l-4 -4l1 -5
q-1 -5 -5 -14t-1 -14q-3 -4 -5 -11.5t-4 -11.5q2 -1 2 -3t-3 -8.5t1 -9.5q0 -2 -1.5 -6t0.5 -7q-5 -8 -5 -23t-3 -24q2 -1 2 -3q0 -1 -1 -4.5t2 -4.5q-1 -1 -2 -5t-1 -6q4 -1 2 -4.5t-2 -4.5q2 -1 2 -5q0 -8 -2 -12q-1 -2 1 -3.5t2 -2.5q-1 -18 6 -43q4 -16 5 -25
q3 -1 5 -10.5t7 -11.5q2 -4 1 -7l5 -3q12 -25 38 -28q22 -1 47 22z" />
    <glyph glyph-name="k" unicode="k" horiz-adv-x="353" 
d="M66.5 -66q-3.5 3 -8.5 4q-1 4 -3 9.5t-3 9.5q-1 1 -1.5 0.5t-1.5 -0.5q0 6 -4.5 22.5t-2.5 25.5q-4 8 -5 13t1 11q-1 1 -2 1.5t-1 1.5v4v5q0 11 -5 12q1 2 1.5 4t1.5 3q0 1 -2 1.5t-2 1.5q1 3 1 9q0 5 -2.5 15t-1.5 18q0 1 -0.5 1.5t-1.5 0.5q1 10 -2 22q0 2 -1.5 8.5
t0.5 12.5q-2 3 -3.5 11.5t0.5 11.5q-6 9 -1 17q0 2 -4 5q2 6 2 10q0 6 -2.5 14.5t-3.5 15.5l-1 26q-1 8 -1 23q0 13 -5 19q0 4 0.5 8t1.5 7q1 2 -1 3.5t-1 1.5q0 2 1 6t-2 6v12q0 15 -3 22q2 4 1 9t0 8q-3 4 -3 11t-2 10v1q0 4 1.5 6.5t1.5 4.5q0 1 -1.5 2.5t-1.5 3.5
q0 16 -1 25q0 26 -1 37q0 1 -1.5 4t-1.5 6t2 10t-2 10q3 10 0 17q0 4 1 8.5t-2 7.5l1 15q0 5 -2 11q0 4 3 7q-2 10 -2 28q0 20 2 31q0 1 -2 1.5t-1 2.5q0 3 2 10t-1 13q3 5 3 10v6.5t1 7.5l-2 4q2 5 3 11t-1 8q2 3 2.5 8.5t-2.5 6.5q6 12 6.5 24.5t0.5 16.5q1 4 3 6.5t3 6.5
v4v5.5t1 6.5q1 2 3 4.5t3 4.5q0 1 1 5t3 7q1 2 2 2t2 1q4 5 8.5 12.5t8.5 11.5q6 0 14 6q21 3 26 3q9 0 19 -3q2 -1 5 -4l5 -5q2 -1 3.5 -0.5t2.5 -0.5q3 -2 7.5 -7.5t9.5 -6.5q39 -52 47 -113q6 -45 6 -91q0 -103 -28 -227l-11 -38q-5 -13 -8 -23l-7 -22l-18 -51
q-2 -5 -4.5 -8t-3.5 -6q-15 -31 -24.5 -46.5t-23.5 -28.5q7 -77 19 -139v-5t3 -4v-12q2 9 3 19t1 14q0 17 4 30l-2 4q2 8 4 26q10 62 16 84q3 6 5.5 14t6.5 13q7 19 29 47q30 39 56 39q6 0 14 -3q16 -14 20 -37q-2 -22 -8 -37t-20 -20q-16 3 -19 22q14 18 10 32
q-9 -4 -16 -12.5t-14 -20t-13 -18.5q-14 -34 -19 -53q0 -6 -1 -11l-2 -10q5 2 23 4q15 -6 26.5 -18.5t26.5 -34.5q11 -17 18 -23.5t13 -2.5q14 8 24.5 17.5t18.5 15.5q-1 2 6.5 10t7.5 9q22 20 30.5 30t27.5 36q2 2 8 9t17 9q1 0 3 -2t5 -1q2 -4 4.5 -8.5t3 -8.5t-1.5 -10
l-22 -23l-7 -3q-3 -3 -4.5 -6.5t-5.5 -5.5q-33 -38 -68 -69.5t-47 -35.5q-8 -2 -10 -2q-7 0 -11.5 3.5t-8.5 9t-6 7.5q-24 31 -36 43q-16 19 -24 18q-5 0 -10 -5.5t-8 -6.5q-2 -14 -4 -46q-1 -9 -3.5 -34.5t-6.5 -44.5q-7 -30 -27 -39q-2 0 -6 1.5t-6 -1.5q-1 1 -4.5 4z
M55 247q3 7 6 9q0 6 5.5 14t4.5 14q15 24 28 76q26 72 35 156q7 39 8 82t1 50l-1 15q-1 9 -5 29q0 17 -1 26q-9 41 -24 69q-4 7 -11 14.5t-9 10.5q-16 9 -22 9q-5 0 -10 -3q-2 -1 -4 -4t-4 -5q-8 -14 -13 -36t-9 -42q1 -16 -2 -37q-3 -16 -3 -35q0 -7 1 -13.5t1 -13.5
q0 -4 -2 -12q1 -6 1 -22q0 -22 -1 -32q2 -3 2 -10q0 -6 -1 -9q1 -6 1 -20v-21t4 -32q-2 -6 -1.5 -13t0.5 -10q0 -2 1.5 -5.5t1.5 -5.5l-1 -23q0 -14 4 -23q-2 -6 -2 -11t2.5 -16t1.5 -16q0 -7 1 -12t1 -10l-1 -9q0 -3 1.5 -7t2.5 -7q0 -7 1 -28.5t4 -38.5q4 1 7 8z" />
    <glyph glyph-name="l" unicode="l" horiz-adv-x="259" 
d="M86 -77l-4 4q-2 14 -6 25q-4 10 -10 32q-6 27 -14 39q-2 24 -8 33q-1 10 -5 28t-4 24q-2 4 -4 6q1 13 -4 30q-1 6 -2 13t-2 16q0 3 -1 14t-4 21q-1 3 -1 9l1 20q-1 8 -3.5 21t-2.5 20t1 10q-2 3 -2.5 8t-1.5 9q1 5 1 14t-2 22.5t-2 22.5q0 5 1 10.5t1 10.5q0 6 -3 12
q3 3 3 8l-1 11q0 1 1 2.5t1 2.5q-1 2 -2 3.5t-1 3.5q0 3 1 4.5t2 3.5q0 3 -0.5 6.5t0.5 8.5q0 36 5 68q-1 3 -1 10t2 19.5t3 20.5l-1 13q0 7 4 10q-1 1 -1.5 3.5t-1.5 3.5q1 7 4 19.5t4 24.5q1 2 0.5 5.5t-0.5 5.5q1 3 2.5 5.5t2.5 4.5q6 38 19 67q0 1 0.5 2t-1.5 1
q1 2 2.5 3t2.5 2q5 15 11 26l4 4v4.5t2 5.5q1 1 3 1.5t3 2.5q4 4 8 10t8 9q1 1 2 0.5t2 0.5q3 2 5 4t4 3t22 5q13 0 25 -5q7 -2 15.5 -11t12.5 -12q48 -66 48 -180q0 -43 -7 -103l-4 -16q-2 -10 -4 -19t-4 -19l-5 -20q-6 -24 -8 -33l-5 -7q-2 -9 -6.5 -20.5t-6.5 -18.5
q-1 -2 -2 -3l-2 -2q-5 -18 -13 -29q-3 -6 -9 -19.5t-13 -21.5l-1 -6q-4 -7 -23 -36.5t-39 -53.5q-4 -2 -8.5 -5.5t-8.5 -5.5q5 -39 21 -104l5 -20q3 -5 7 -23q1 -3 3.5 -14.5t7.5 -18.5q0 -14 9 -30q1 -2 4 -10t3 -14q-3 -8 -9 -16q-3 -1 -10 -1t-11 1zM63 228q5 6 6 9
q83 118 110 257q1 5 2 13t1 12q0 8 2 24q6 33 6 70q0 63 -20 109q-1 9 -8.5 20.5t-8.5 16.5q-3 3 -10.5 10t-15.5 7q-6 0 -9 -2q-2 -1 -5 -4.5t-7 -4.5q-3 -7 -10.5 -19t-9.5 -25l-3 -5v-7q-4 -5 -6 -12t-3 -15q-5 -5 -7 -14t-2.5 -17.5t-1.5 -16.5q-1 -7 -5 -18.5t-1 -18.5
q-3 -7 -3 -15l1 -13q-5 -6 -5 -21q0 -11 -1 -16q-1 -2 0.5 -2.5t2.5 -1.5q-4 -4 -4 -10q0 -4 1 -7.5t2 -6.5q-4 -3 -4 -10v-5q0 -6 -2 -8q2 0 2 -3q0 -9 -2 -31t-2 -35q0 -15 3 -30q-1 -1 -3 -9q2 -5 2 -16q0 -17 2 -27q0 -2 -1 -3.5t-1 -3.5q2 -6 4 -9q-2 -12 -2 -18
q0 -10 2 -25.5t3 -24.5q0 -4 0.5 -13.5t4.5 -13.5q1 3 6 9z" />
    <glyph glyph-name="m" unicode="m" horiz-adv-x="761" 
d="M538 3q-2 1 -3 0t-3 -1q-6 5 -25 9q-12 14 -23 16q-4 7 -12 15.5t-12 14.5l-5 3q0 4 -4 8.5t-4 8.5q0 2 -3 2q-1 8 -7.5 18.5t-9.5 15.5q-4 18 -10 29q-12 26 -20 27q-3 1 -11 -4t-13 -9q-20 -17 -24 -23q-1 -2 -6.5 -9.5t-11.5 -11.5q-2 -6 -8.5 -14t-8.5 -14
q-4 -4 -16 -20q-9 -16 -18 -24q-10 -9 -22 -9q-17 0 -30 15q-1 7 -3 12t-3 9q-3 7 -7 21q-1 5 -1.5 10.5t-1.5 10.5l-4 11q-2 7 -3 20.5t-8 20.5q0 21 -12 37q-8 8 -9 8q-8 0 -27 -19q-4 -4 -10.5 -15t-11.5 -15q0 -3 -1.5 -5t-1.5 -5q-15 -20 -29 -57q-14 -34 -24 -49
q-7 -5 -15 -5q-6 0 -18 4q-7 17 -10.5 28.5t-2.5 24.5q-3 4 -3.5 10t0.5 10q-1 2 -2 3.5t-2 3.5q1 1 0.5 5t1.5 6q-2 3 -1.5 7t0.5 6q-1 5 -3 11.5t-2 10.5q0 1 1 2.5t1 2.5q0 2 -3 11q0 4 0.5 13.5t-0.5 16.5q0 4 -1.5 10.5t1.5 9.5q-4 9 -4 22l1 15q-4 6 -3.5 19.5
t-0.5 18.5q-1 3 -3.5 7t-2.5 7q0 8 5.5 14t7.5 8q22 -2 28 -17v-6q0 -5 1.5 -10.5t2.5 -8.5q0 -2 -1.5 -3.5t-0.5 -4.5q-1 -1 0.5 -2l1.5 -1q-2 -8 -2 -13q0 -4 2 -22q4 -8 4 -20q0 -7 -1 -18t0 -18q6 -15 3 -24q0 -4 3 -3q-3 -9 -2 -18q2 -4 3 -13t1 -13v-4v-7t1 -6.5
t3 2.5l4 3q0 1 -0.5 2.5t0.5 3.5q1 3 4 6.5t2 5.5q3 3 7.5 14.5t11.5 15.5q0 1 -0.5 2t0.5 3q3 5 14.5 22.5t26.5 29.5q0 4 6 7.5t9 5.5q13 11 30 11t31 -12q19 -26 29 -70q0 -2 1.5 -3t2.5 -2q-1 -1 -1 -4t2 -7.5t3 -8.5q1 -1 0 -2.5t0 -2.5q0 -2 1.5 -5.5t2.5 -5.5
q1 -8 2.5 -23t7.5 -24q7 7 14 19q10 15 13 18q47 73 99 95q21 1 34.5 -8t21 -21.5t17.5 -37.5q2 -1 4 -5.5t4 -6.5q0 -2 0.5 -4t-0.5 -3q20 -41 49 -69q2 -1 3.5 -1h3.5q19 -14 50 -14q11 0 16 1l5 3q13 1 26.5 9t19.5 10q19 11 44 37t43 50l21 27q9 9 21 26q5 0 8.5 1.5
t4.5 1.5h2q6 0 11 -3.5t9 -8.5l-1 -11q-2 -1 -3.5 -5t-3.5 -6q-3 -3 -12 -10.5t-14 -15.5l-19 -26q-23 -32 -39.5 -50.5t-35.5 -29.5q-2 -1 -5 -4.5t-8 -3.5q-15 -11 -31 -18q-5 -3 -16.5 -5t-20.5 -4q-8 -4 -14 -4q-23 0 -40 5z" />
    <glyph glyph-name="n" unicode="n" horiz-adv-x="420" 
d="M219 76q-24 27 -33 65q-1 1 -2 0.5t-1 0.5q-4 14 -11 27t-11 22q-1 1 -4 3.5t-4 5.5q-1 1 -3 1.5t-3 2.5q-7 -3 -15 -13t-13 -13q-5 -12 -12 -21q0 -1 -1 -2t0 -2q-10 -13 -19 -33t-11 -24q-2 -5 -5.5 -15t-8 -16.5t-11.5 -8.5q-5 -2 -15 -2q-2 1 -4.5 4.5t-6.5 2.5
q-11 21 -11 50q0 15 1 22q-1 0 -2 -2l-1 11h1q-2 14 -2 42v31q0 3 -2 3l1 17q0 14 -4 25q8 11 13.5 15.5t14.5 3.5q13 -8 13 -34q0 -12 -1 -17q3 -11 3 -32v-21.5t3 -34.5q5 9 12.5 24.5t16.5 23.5q4 13 15.5 25t16.5 17q4 2 12.5 8t16.5 7q11 1 20 -4t16 -11t9 -8
q11 -20 20 -33q12 -35 23 -52q6 -23 21.5 -37.5t36.5 -14.5q27 0 49.5 18.5t54.5 52.5q4 5 9.5 11.5t12.5 14.5q4 5 9 13t8 9q6 2 8 2q7 0 13 -6t8 -12q0 -3 -0.5 -6t0.5 -6q-13 -18 -34 -40q-35 -39 -57.5 -58.5t-53.5 -29.5q-18 -4 -29 -4q-8 0 -11 1q-32 4 -56 31z" />
    <glyph glyph-name="o" unicode="o" horiz-adv-x="290" 
d="M62 30q-6 0 -10 -1q-1 1 -5.5 3.5t-9.5 1.5q-20 11 -30 34t-10 51q0 18 5 38q-4 7 -4 14q0 10 7 20.5t19 23.5q11 12 15 19q19 17 45 17q12 0 18 -2t14.5 -8t13.5 -8q2 -5 6.5 -11.5t6.5 -10.5q14 -24 13 -56q7 -1 18 -1q13 0 26 2.5t26 6.5l5 4q3 0 4 -1l20 5
q19 3 35 11q2 2 8 9t17 9q1 0 3 -2t5 -1q2 -4 4.5 -8.5t3 -8.5t-1.5 -10q-3 -4 -10.5 -8t-11.5 -8l-12 -7q-3 -3 -12 -5t-12 -4l-14 -2t-18 -4l-2 -2l-9 -2l-7 -2q-3 -2 -5 -5l-11 -1l-15 -1v1q-16 -4 -25 -4q-8 0 -13 1q-5 -3 -3 -15q-2 -1 -4 -4t-4 -4q-8 -26 -25 -40.5
t-44 -25.5q-3 2 -10 2zM112 188q-7 17 -22 24h-5q-17 0 -15 -14q-14 -12 -22 -34q14 -9 30 -11.5t41 -1.5q0 20 -7 37zM89 78q11 11 15 24l5 5q-1 3 0 4t2 3q-37 -3 -74 12l-1 -10q0 -8 3 -20q4 -14 9.5 -22t16.5 -8q13 1 24 12z" />
    <glyph glyph-name="p" unicode="p" horiz-adv-x="412" 
d="M23.5 -237.5q-2.5 0.5 -3.5 1.5q-6 4 -8.5 15.5t-4.5 14.5q3 9 3 22q0 11 -1 16q3 6 3 14l-1 18q0 5 2 13q1 2 0 2.5t-1 1.5q6 41 5 86q0 5 -1 9t-1 9q0 1 1 1.5t2 1.5l1 4q0 5 -1.5 9.5t-1.5 9.5q0 3 1.5 9.5t-1.5 11.5l1 29q0 16 -3 24q4 8 2 25q0 23 -3 42q-1 3 -1 11
v15q0 13 -3 20l3 5q0 16 -3 31q-2 14 -2 20l1 19q0 6 -1 9l-2.5 7.5t0.5 9.5q0 5 -3 8q0 5 -3 14t-3 13q0 7 5 12q4 4 8.5 4h6.5t5.5 0.5t7.5 -1.5q13 -25 10 -48q7 -12 2 -20q1 -7 3.5 -18.5t2.5 -18.5l-2 -4q0 -5 1 -10t1 -10q1 -4 0 -7t0 -7q2 -7 2 -18.5v-18.5
q2 -14 2 -21t-1 -10q1 -2 1 -8v-6q0 -7 3 -10q-1 -1 -1 -2t-2 -2q2 -7 2 -23q0 -25 2 -38q4 9 7 21.5t5 19.5t6.5 17t6.5 15q1 2 9 16q1 3 3.5 9.5t5.5 10.5q1 2 3.5 4t3.5 3l5 10t6 10t8 8.5t7 9.5q14 14 22 20l19 17q6 2 21.5 9.5t29.5 7.5q15 0 24 -6.5t16.5 -15
t10.5 -11.5q0 -13 5 -17q1 -6 1 -18q0 -41 -23 -73q12 2 40 17q9 5 27 13q1 1 2.5 1.5t2.5 2.5q8 3 16 5t16 5q12 11 19 12q10 0 27 10q16 16 30 18q1 0 3 -2t5 -1q2 -4 4.5 -8.5t3 -8.5t-1.5 -10q-3 -4 -12 -8.5t-13 -8.5l-7 -6q-4 -4 -7.5 -5t-6.5 -3q-13 -7 -35.5 -16.5
t-33.5 -12.5q-5 -2 -13.5 -7t-15.5 -7q-3 -5 -13.5 -8t-13.5 -7h-2q-5 0 -14.5 -3.5t-13.5 -1.5q-3 -3 -10.5 -2.5t-11.5 -0.5q-1 0 -3 1.5t-2 -0.5q-4 2 -8 6.5t-8 7.5q-1 3 -1 10q0 9 4 23q26 21 33 57q0 9 -1 20t-6 18q-3 -1 -7 3q-5 -2 -10 0q-4 -4 -10 -3l-25 -17
q-11 -9 -20 -20l-17 -17l-1 -6q-12 -13 -22 -34.5t-14 -28.5q0 -4 1 -4q-13 -32 -20.5 -64.5t-16.5 -88.5l-11 -61q-1 -1 2 -1q-5 -18 -7 -47q-2 -23 -4.5 -37t-8.5 -25q-2 -2 -8.5 -2.5t-8.5 -2.5q-2 2 -4.5 2.5z" />
    <glyph glyph-name="q" unicode="q" 
d="M202 -188q-21 3 -33.5 19t-22.5 39q-6 8 -5 14l-4 5v8q-4 12 -6.5 27t-3.5 22q0 2 1 4t1 3t-3 4q-1 3 -1 13q0 17 2 29q-1 0 -0.5 3.5t-1.5 3.5q1 0 0.5 2t1.5 2q-2 6 -2 16v12q1 5 2.5 12t1.5 11t-1 7.5t-1 7.5q1 3 2.5 6.5t1.5 5.5q0 1 -1 4t2 5q-2 3 -2 9
q0 7 1.5 12.5t1.5 10.5q-7 -6 -10 -18q-20 -24 -31 -35q-18 -12 -33 -12q-7 0 -16 3q-3 2 -6.5 5t-8.5 6q0 1 -0.5 2.5t0.5 2.5q-5 1 -7.5 8.5t-4.5 8.5l-3 25q-1 2 -2.5 4.5t-1.5 4.5q0 3 1 7t1 8q-2 32 3 59q1 1 1.5 3.5t2.5 3.5q8 35 32 61.5t58 26.5q16 0 29 -5.5
t26 -16.5q2 2 8 2q7 0 14 -5.5t8 -11.5v-3q0 -5 -3 -11.5t-5 -10.5q-1 -2 -0.5 -5t-0.5 -5q-1 -4 -2.5 -9t0.5 -12q-1 -1 -1.5 -2t-2.5 0l1 -4q0 -5 -2 -11t-3 -8q2 -6 2 -8q0 -4 -3 -13t-3 -14v-10q0 -8 -3 -12q2 -2 2 -8q0 -7 -3 -12q-2 -55 -5 -76q2 -4 2 -14l-1 -25
q0 -10 2 -15q0 -1 -1.5 -2t-1.5 -2l3 -22q2 -22 8 -40l-1 -6q5 -8 7 -25q3 -4 8.5 -12.5t9.5 -13.5t12 -7q6 3 9 7t6.5 13t6.5 14l-1 3q0 3 1.5 6.5t2.5 5.5q5 26 5 77q0 6 -2 20q-3 39 -3 43q0 46 26 44q11 4 16 8l10 8q-1 2 11 14.5t12 13.5l15 14q14 12 20 18.5t19 24.5
q2 2 8 9t17 9q1 0 3 -2t5 -1q2 -4 4.5 -8.5t3 -8.5t-1.5 -10l-22 -23l-7 -3q-3 -3 -4.5 -6.5t-5.5 -5.5q-17 -20 -46 -48.5t-46 -38.5q2 -11 5 -29q3 -32 3 -61q0 -38 -5 -65q-1 -4 -3 -8t-3 -9q-3 -13 -9 -24q-1 -2 -2 -5.5t-2 -5.5l-2 -2l-2 -2q-2 -2 -2.5 -4.5t-1.5 -3.5
q-12 -14 -36 -18q-6 2 -8 4zM74 114q16 19 27 41q12 23 13 27q4 3 4 10q1 2 4.5 6t4.5 7q1 1 0 2t-1 2q1 2 4 5.5t4 6.5q1 1 0.5 2t-0.5 2q1 3 4.5 8.5t3.5 8.5q-1 7 -7.5 11t-19.5 9q-2 0 -3 1t-3 1q-19 2 -43 -28q-5 -6 -9 -17t-8 -18q1 -2 1 -6t-2 -11.5t-2 -10.5l2 -8
q-4 -2 -2.5 -5.5t1.5 -4.5q0 -3 -1.5 -6.5t-0.5 -5.5q4 -32 12 -41q12 5 17 12z" />
    <glyph glyph-name="r" unicode="r" horiz-adv-x="303" 
d="M183 -40q-5 0 -9 3.5t-7 5.5q-2 6 -2 10q0 3 0.5 9t-1.5 10v5l1 18q0 7 -2 9q0 2 1 4.5t1 4.5q-2 7 -2 19q0 8 2 28q0 1 -1.5 2t-2.5 1q1 0 1.5 3.5t2.5 3.5q-3 2 -3 5q0 5 2 12.5t-1 10.5q2 4 2.5 9t-2.5 6q4 11 4 27q0 18 5 27q0 1 -1 1.5t0 2.5q2 2 2 7v4q0 6 4 10
q-2 6 -2 7q5 9 7 27q-6 -4 -19.5 -14t-25.5 -17q-14 -9 -35 -14q-3 -1 -18 -4t-29 -2q-5 0 -11 2t-9 1q-6 4 -17 9.5t-14 14.5q-6 5 -10.5 15t-7.5 15q0 1 1 5t-3 6q-1 6 2.5 18t4.5 18q1 2 3.5 5t1.5 7q3 5 11 13.5t10 13.5q24 17 47 22q3 1 8 1q11 0 26 -5q17 -5 27 -22
t10 -38q0 -11 -3 -20q-5 -20 -21 -28q-10 3 -15.5 7.5t-7.5 12.5q1 4 4 15t3 19q0 10 -6 17q-9 3 -17.5 3h-11.5q-1 -2 -5.5 -4t-8.5 -2l-17 -19q0 -8 -5 -14l1 -6q-3 -4 -3 -9q0 -11 11 -21.5t24 -12.5h4l16 1q18 3 31 10t36 23q36 23 55 46q2 0 4.5 2.5t3.5 2.5h5
q10 0 14 -2q3 -4 5 -9t2 -9q0 -5 -3.5 -13.5t-5.5 -15.5l1 -5q-1 -6 -4.5 -14t-3.5 -14l2 -9q-2 -2 -4 -6.5t-3 -5.5q-1 -11 -2.5 -21t-2.5 -18q0 -4 -2 -13t-2 -14q-3 -33 -3 -68q0 -22 2 -68q-1 -3 -1 -8q0 -8 3 -13q0 -38 -19 -39h-2z" />
    <glyph glyph-name="s" unicode="s" horiz-adv-x="342" 
d="M118 -90q-16 0 -33.5 6.5t-27.5 14.5q-4 3 -8.5 8.5t-8.5 7.5q0 5 -6.5 12.5t-5.5 12.5q-4 3 -4 9l1 12q0 4 -1 7t-1 7t1.5 7.5t2.5 6.5q1 4 2 8.5t2 8.5q2 3 4 5.5t4 5.5t4.5 8t6.5 9q13 18 26 27q-6 9 -24 27q-20 21 -31 36.5t-11 36.5q0 5 2 17q2 9 12 20l3 6
q8 10 25.5 18t25.5 13q2 -1 4 -0.5t3 -0.5q6 4 15.5 3.5t12.5 -0.5q6 0 9 1q2 -1 6.5 -2.5t8.5 0.5l20 -9q19 -7 31 -14q1 -3 5.5 -12t3.5 -17q-1 -6 -6 -11.5t-7 -8.5q-2 -1 -7 -1q-11 0 -21 13q0 3 1.5 5t1.5 5q-5 5 -16 7.5t-14 4.5q-8 1 -21 1q-14 0 -27 -5t-22 -14
t-9 -20q0 -7 6 -16l10 -11l9 -12q20 -21 37 -36q35 10 74 12q10 0 26 2q34 5 70.5 20.5t59.5 30.5q2 2 8 9t17 9q1 0 3 -2t5 -1q2 -4 4.5 -8.5t3 -8.5t-1.5 -10q-3 -4 -13 -10t-13 -10l-10 -3q-16 -8 -60 -23.5t-60 -18.5q-26 -4 -33 -5q-35 -4 -54 -13q20 -27 33.5 -52
t13.5 -51q0 -6 -2 -16q-4 -24 -15 -36q-4 -4 -14 -9t-16 -7q-2 -1 -3.5 -2.5t-2.5 -1.5q-8 -2 -14 -2zM110 -51q19 0 29 11q5 10 5 24q0 16 -7.5 31.5t-21.5 33.5l-11 17h-3q-5 -5 -15 -13q-27 -31 -27 -57q0 -8 3 -17q5 -5 10 -12t9 -10q6 1 8 -4q12 -4 21 -4z" />
    <glyph glyph-name="t" unicode="t" horiz-adv-x="373" 
d="M69.5 14.5q-29.5 50.5 -50.5 134.5q-2 18 -4 27l-4 33q-5 42 -7 124q-3 77 -3 153v39q-95 -12 -168 -78q-3 -3 -10 -11.5t-16 -8.5q-2 0 -6 2t-6 0q-3 5 -4.5 12.5t-2.5 10.5q3 7 8.5 12.5l6.5 6.5q11 8 15 16q7 2 11.5 6.5l5.5 5.5q11 7 19 13t15 10l6 1q13 11 49 23
l30 12q8 0 26 4q14 4 23 4q1 5 1 12.5t1 12.5q1 9 2 21t1 19q2 38 7 64q5 18 8 31q1 5 3 13.5t5 13.5q3 1 7.5 4.5t9.5 3.5q3 0 7.5 -3t7.5 -3q1 -2 2 -7t3 -6q-11 -41 -16.5 -80t-8.5 -93l33 1q9 0 14 -1l6 3q6 -1 17 -1q14 0 44 4l26 3q68 8 98 15l6 -1q3 0 8 3q10 0 23 5
t20 5q3 3 9.5 4t9.5 2t8 4.5t9 5.5q2 1 6.5 2.5t7.5 3.5q16 10 24 19.5t10 25.5q-2 8 -2 12q-15 21 -32 21q-8 0 -15 -4q0 -15 -9 -23q-5 -4 -13 -4q-10 0 -18 8t-8 18q0 6 5 13q10 13 26 21l9 5q2 1 4.5 0.5t4.5 0.5q6 3 16 3q12 0 18 -7q23 -7 36.5 -25.5t13.5 -44.5
q0 -11 -3 -23q-13 -29 -39.5 -45.5t-67.5 -29.5l-5 -3q-137 -33 -302 -36v-3v-5.5t2 -6.5q-2 -4 -2 -12v-81v-37q1 -3 1 -9v-7q0 -7 2 -11q-1 -4 -1 -14t2 -32q2 -14 2 -20q1 -6 0.5 -14t-0.5 -12q0 -7 2 -23q1 -2 0 -4.5t-1 -4.5l3 -2q2 -41 5 -57q12 -92 60 -158
q12 -6 18 -16q25 -13 46 -11q6 1 16 6.5t14 6.5q17 10 20 11q16 9 23 14.5t13 16.5l8 10l9 7l14 16q24 24 34 37q8 10 17 24.5t13 20.5q6 13 11 19q3 3 9 12t16 10q1 0 3 -2t5 -1q2 -4 4.5 -8.5t3 -8.5t-1.5 -10q-6 -7 -11.5 -16t-11.5 -16l-7 -3q-3 -3 -4 -8t-5 -7
q-16 -25 -63 -80.5t-69 -63.5q-8 -3 -20 -11q-14 -9 -35 -11.5t-25 -3.5q-61 14 -90.5 64.5z" />
    <glyph glyph-name="u" unicode="u" horiz-adv-x="402" 
d="M439.5 188.5q2.5 -4.5 3 -8.5t-1.5 -10q-4 -5 -6 -8.5t-6 -8.5l-13 -12l-2 -4q0 1 -5 -4q-22 -28 -67 -53l-11 -7q-15 -10 -34.5 -16.5t-37.5 -6.5q-14 0 -25 4q-5 4 -16.5 10.5t-15.5 15.5q-1 2 -3 2h-3q-1 7 -8.5 16.5t-8.5 17.5q-1 0 -2 1t-1 2q-2 6 -7.5 19t-5.5 20
q-1 0 -1.5 1.5t-2.5 2.5l1 4q0 4 -3.5 12t-1.5 13q-2 0 -2.5 4t-1.5 7q-10 -15 -22 -39q-18 -34 -34.5 -53.5t-45.5 -26.5q-2 2 -5.5 2h-5.5q-16 4 -28 31v21q0 35 5 51q1 1 0 1t-1 1q2 4 4.5 16.5t5.5 17.5q0 2 -2 4q9 12 7 18q2 7 8.5 11.5t14.5 4.5t12.5 -5.5t3.5 -16.5
q0 -3 -4.5 -11t-5.5 -13l1 -5q0 -2 -1.5 -4.5t-0.5 -6.5q-8 -9 -6 -30q-4 -8 -4 -20q0 -5 1 -12.5t0 -12.5q12 2 26 25q2 3 8.5 11.5t7.5 15.5q28 43 38 75q4 5 9.5 15t12.5 12q16 4 22.5 -5.5t9 -22l3.5 -17.5q1 -28 12 -52q4 -27 16.5 -51.5t30.5 -37.5q16 -4 23 -4
q22 0 41 11l1 1l39 22l12 11q15 11 26.5 27t15.5 21q2 2 8 9t17 9q1 0 3 -2t5 -1q2 -4 4.5 -8.5z" />
    <glyph glyph-name="v" unicode="v" horiz-adv-x="360" 
d="M67 34q-7 2 -14.5 13t-11.5 14l-5 15t-6 14q-5 30 -12 46q-2 16 -2 24q-5 31 -6 60q2 14 2 23l-1 15q3 5 3 11q0 7 -3 11q0 1 2 3t1 5q7 9 20 9q7 0 11 -4q1 -1 2.5 -4.5t3.5 -4.5q0 -13 -2 -39l-1 -38q2 -8 2 -17q0 -8 -1 -12q2 -2 3 -14.5t5 -16.5q3 -26 9 -44.5
t17 -32.5q12 3 21 14.5t13 15.5q24 46 40 96q1 4 4.5 11l5.5 11q0 3 1 7.5t2 7.5l6 9q1 4 2 9.5t3 8.5q1 2 5 6t5 7q3 1 8 1q10 0 19 -7q3 -8 3 -17.5v-16.5q1 -13 33.5 -29.5t60.5 -21.5q24 -2 28 -2q9 0 17 4q2 2 5.5 6t8.5 6.5t11 3.5q1 0 3 -2t5 -1q2 -4 4.5 -8.5
t3 -8.5t-1.5 -10q-5 -5 -9.5 -9t-9.5 -9l-22 -5q-5 -5 -18 -5q-6 0 -22 2h-9q-20 0 -57.5 16.5t-51.5 30.5q-5 -8 -10 -24q-7 -18 -11 -24q-5 -24 -16.5 -44t-29.5 -45q-15 -12 -35 -24q-20 0 -31 4z" />
    <glyph glyph-name="w" unicode="w" horiz-adv-x="472" 
d="M232 -44q-19 14 -33 32t-29 45q-1 6 -4.5 13.5t-4.5 11.5q-1 3 -5 14t-6 21q-10 -12 -14 -24q-1 -1 -14 -17q1 1 -14 -17q-5 -2 -16 -9.5t-24 -7.5q-22 0 -36.5 17t-19.5 41q-6 44 -6 64q0 34 6 67t7 38q2 8 5.5 20t5.5 17q2 1 8 5t15 2q3 -4 11 -10q2 -4 2 -8
q0 -6 -3.5 -15.5t-5.5 -16.5q-2 -12 -4 -34q-7 -61 -7 -81q0 -21 5 -43q4 -20 19 -24l21 15q5 10 12 18q1 1 6 8t7 16q3 1 4 5t2 6q3 6 7.5 13.5t6.5 12.5q10 25 13 29q6 9 17 9q7 0 14 -4q0 -2 2 -3.5t3 -2.5q1 -13 0.5 -23t-0.5 -17q0 -29 6 -48q10 -34 31 -66
q27 -42 53 -42q12 0 21 8q8 7 15 17.5t13 21.5l11 18q0 5 4 13.5t3 14.5q2 3 3.5 7.5t2.5 6.5q3 18 3 41q0 38 -11 63q-33 -1 -63 11t-30 35q0 9 6 19q11 4 12 8h4q2 0 6 -0.5t7 2.5q1 0 4.5 -1t5.5 1q12 -3 17 -3q5 -1 12 -5t14 -4q0 -4 5 -4q2 -5 12 -11t12 -11
q8 -1 21 -2.5t26 -6.5q3 1 15.5 -3.5t15.5 -8.5l15 -5q16 -9 25 -9q8 0 15 4q1 0 3 -2t5 -1q2 -4 4.5 -8.5t3 -8.5t-1.5 -10q-5 -6 -7.5 -7t-10.5 -2l-10 -1q-20 0 -32.5 7t-14.5 8q-5 2 -21.5 9.5t-35.5 6.5q2 -5 4 -20t5 -20q0 -7 -0.5 -34t-8.5 -44v-5q0 -7 -2.5 -14.5
l-3.5 -10.5q-1 -2 -5 -8t-4 -15q-5 -4 -7.5 -11.5t-3.5 -8.5q-6 -5 -16 -19q-10 -13 -21 -23q-7 -5 -19.5 -10.5t-20.5 -5.5q-25 0 -44 14z" />
    <glyph glyph-name="x" unicode="x" horiz-adv-x="372" 
d="M4 -5q0 5 3.5 12.5t3.5 11.5l26 37q24 34 36 53q2 -1 2.5 0t1.5 1q3 8 12 19t14 18q-2 5 -5 16.5t-7 17.5q-7 27 -14 27q-4 0 -9.5 -7t-6.5 -9q-12 -18 -19 -21q-3 -1 -5.5 -3t-5.5 -3q-2 -1 -6.5 0t-7.5 0q-1 1 -2 3.5t-4 0.5q0 6 -7 16l3 9q9 9 14 16q45 50 61 50
q11 0 21 -12t15.5 -24.5t6.5 -15.5v-2q0 -5 3 -11t3 -10q30 42 46 62l23 31q7 7 13 7q9 0 20 -19q-1 -14 -16 -31q-10 -13 -12 -17q-13 -15 -35 -47l-23 -31q1 -3 3 -8t4 -12l9 -24l4 -4q1 -1 0 -2t0 -3q4 -7 10 -15.5t8 -13.5q20 -20 36 -20q18 0 40 23q2 2 4 5.5t4 4.5
q23 21 31 26q-1 2 6.5 10t7.5 9q22 20 30.5 30t27.5 36q2 2 8 9t17 9q1 0 3 -2t5 -1q2 -4 4.5 -8.5t3 -8.5t-1.5 -10l-22 -23l-7 -3q-3 -3 -4.5 -6.5t-5.5 -5.5q-44 -53 -97 -100l-3 -1q-14 -13 -31.5 -22t-32.5 -8q-55 15 -78 77q-8 17 -10 24q-10 -8 -12 -17l-16 -20
q-19 -24 -31.5 -43t-20.5 -42q-5 -7 -25 -7q-11 8 -11 22z" />
    <glyph glyph-name="y" unicode="y" horiz-adv-x="392" 
d="M189.5 -311.5q-12.5 6.5 -17.5 8.5q-3 6 -8 9.5t-8 5.5q-1 6 -5.5 11t-7.5 7q-3 6 -6.5 14.5t-6.5 12.5q-1 6 -4 20.5t-3 26.5q0 9 1 13q0 3 -4 7q3 4 3 15.5t4 15.5q0 2 -1 2.5t-1 1.5q1 2 2 3.5t2 3.5q-1 13 3 23.5t13 27.5q10 19 12 27q10 8 10 16q8 6 16 18
q2 2 7.5 10t11.5 11q1 5 9.5 13t10.5 13q10 4 17 11.5t9 9.5q14 14 23 19q-51 117 -72 170q-4 -9 -11 -25t-10 -28q-4 -7 -7.5 -12.5t-5.5 -9.5l-20 -37q-1 0 -2.5 -1t-2.5 0q-1 -7 -8 -14t-8 -12q-5 -3 -16 -10.5t-20.5 -12t-19.5 -4.5q-29 0 -37.5 25t-12.5 68l-2 5
q-2 7 -2 21q1 3 1 8t-1 8l-1 19q0 13 5 20q4 1 13 1q14 0 19 -7q4 -8 4 -33q2 -39 4.5 -59t10.5 -36q2 0 6.5 2t6.5 1q2 2 7 6.5t10 6.5q7 7 15 21l12 17q1 6 7.5 16t6.5 17q7 4 11 18t9 19v2q0 4 1.5 8t1.5 7q4 2 5 6.5t3 8.5q0 1 1.5 1.5t1.5 1.5q1 2 0.5 4t0.5 4l5 4
q1 2 0.5 4t0.5 3q8 9 16 9q9 0 17 -6.5t12 -15.5q1 -1 0.5 -3t0.5 -3q3 -8 9 -19.5t9 -18.5l9 -21q14 -35 23 -55q8 -17 10 -25q3 -8 7 -18t9 -20q9 4 17.5 12t13.5 12v1q22 20 30.5 30t27.5 36q2 2 8 9t17 9q1 0 3 -2t5 -1q2 -4 4.5 -8.5t3 -8.5t-1.5 -10l-22 -23l-7 -3
q-3 -3 -4.5 -6.5t-5.5 -5.5l-25 -28q1 -4 -2.5 -9t-8.5 -10l-10 -10q-12 -4 -18 -15q-2 0 -4.5 -2.5t-5.5 -2.5q33 -97 33 -174q0 -45 -12 -85q-25 -81 -91 -112q-6 0 -17 -2.5t-17 -1.5q-12 2 -24.5 8.5zM256.5 -264.5q16.5 16.5 34.5 46.5q14 37 16 64l2 4q0 1 -1 1.5
t-1 1.5q3 18 3 39q0 60 -26 136q-1 -3 -5 -5l-6 -3q-2 -2 -6 -8t-7 -9l-7 -2q-2 -2 -3.5 -5t-3.5 -5q-2 -1 -3.5 -2t-3.5 -2q-1 -1 -6 -8q-3 -3 -10 -9.5t-9 -13.5q-10 -8 -18 -21t-12.5 -21.5t-7.5 -13.5v-3l-1 -8q-5 -3 -7 -15.5t-5 -16.5q-1 -1 0 -2.5t0 -3.5
q-5 -11 -5 -31l1 -25q3 -12 15 -46q3 -4 7 -7t7 -6q1 -1 1.5 -3.5t1.5 -3.5q2 -2 5.5 -3t4.5 -4h3q4 0 10 -4q26 1 42.5 17.5z" />
    <glyph glyph-name="z" unicode="z" horiz-adv-x="530" 
d="M160 -271.5q-8 4.5 -11 4.5q-13 12 -23 40q-2 12 -2 19q0 37 26 81q59 99 179 184q-1 3 -1 8.5t-4 7.5l1 4q0 5 -4 12t-6 11q-6 -1 -4 4q-3 2 -15 9.5t-26 9.5q-6 1 -18 1q-42 0 -86.5 -17t-81.5 -42q-4 -2 -10 -3.5t-9 -3.5q-3 1 -10 -1q-3 1 -6 3t-6 2q-7 6 -7 18
q0 15 9 31q6 6 5 11q0 1 1.5 2t2.5 1q1 7 9 21q9 16 10 25q4 3 9.5 15t8.5 16q0 6 3 10t3 5q4 5 21 34q6 14 15 27q-14 -2 -22 -4q-7 -1 -15.5 -2t-18.5 -2q-11 -6 -22 -5q-10 -5 -23 -3q2 -23 7.5 -42.5t7.5 -26.5q3 -15 3 -17q0 -6 -4 -13q-1 -1 -3.5 -1.5t-3.5 -3.5
q-4 1 -9 2t-8.5 3t-7.5 7l-5 31l2 8q0 4 -2.5 7.5t-1.5 7.5q-3 13 -4 22.5t-3 29.5q-2 2 -2 4l1 12l2 3l2 5l2 -1l7 3q4 -1 13 -1q19 0 41 6l45 6q4 2 12.5 3t13.5 2q25 0 41 -12q1 -4 2 -8.5t1 -9.5q0 -6 -3 -12q-1 -3 -5.5 -8t-6.5 -7q-2 -8 -4 -11q-1 -2 -8 -7
q-1 -2 -0.5 -3.5t-0.5 -3.5q-6 -6 -7 -8t-0.5 -4t-0.5 -3q-5 -2 -5 -3q-1 -1 -1 -3t-1 -3q-1 -2 -2 -2h-1q-1 -1 -1 -4t-2 -6l-5 -5q-10 -25 -20 -43q-1 -3 -4 -7.5l-5 -7.5l-10 -23q8 4 34.5 17.5t52.5 20.5q3 1 6 0.5t7 0.5q40 8 62 8q33 0 59 -13q7 -1 18 -10
q9 -6 16 -17q10 -13 14 -16q0 -6 2 -13.5t3 -15.5l23 13l20 12l11 4q5 2 12.5 7t11.5 8q1 -1 1 -2t1 -1h2q0 2 9 8.5t9 8.5q22 13 32 21t21.5 18.5t15.5 14.5q3 2 10 8t18 6l1.5 -2.5t5.5 -2.5q1 -5 2.5 -9t1.5 -8t-3 -10l-26 -19l-8 -2q-4 -3 -5.5 -5.5t-6.5 -4.5
q-15 -14 -48.5 -36t-39.5 -26q-12 -11 -39 -27l-12.5 -7.5t-16.5 -11.5q1 -4 1 -11t-1 -13t-2 -13q0 -2 2 -6q-3 -9 -7 -35q-7 -35 -9 -41q-1 -3 -8 -22q-2 -6 -4.5 -13t-4.5 -15q-3 -3 -6.5 -11t-6.5 -11q-3 -11 -8.5 -20t-11.5 -17q-8 -18 -28 -34q-12 -10 -17 -16
q-1 0 -2 -1t-2 0q-2 -1 -2.5 -2.5t-0.5 -2.5q-22 -13 -35.5 -19t-29.5 -6l-9 1q-5 1 -13 5.5zM184 -239q8 0 16 4q6 0 15 7q15 7 21 19q3 1 7 1q2 6 5 8q8 4 15 15.5t10 15.5q1 2 3.5 4.5l3.5 3.5q2 4 4 12t8 11q0 3 1.5 6t1.5 6q9 12 15 33t8 39q7 15 10 60
q-85 -60 -124 -126q-5 -1 -7 -6t-3 -6q0 -1 -2 -2.5t-3 -3.5q-2 -2 -3 -6t-3 -7q-1 -3 -2.5 -5t-2.5 -3q-5 -9 -9 -24t-4 -28q0 -22 13 -27q2 -1 6 -1z" />
    <glyph glyph-name="exclamdown" unicode="&#xa1;" horiz-adv-x="245" 
d="M111 673q0 5 3.5 13.5t5.5 13.5q-15 15 -20 25q4 14 12 19q2 0 6 -0.5t6 -4.5q4 2 10 8.5t15 6.5q13 0 23 -12.5t10 -26.5q0 -6 -1 -9t-6.5 -7.5t-8.5 -8.5q-3 -3 -6.5 -8.5t-8.5 -8.5q-3 -7 -10 -13t-15 -6q-3 0 -9 2q-6 9 -6 17zM121 -158q0 29 1 44l1 48v98l1 88
q2 70 2 99q0 90 -2 238q0 52 -2 76q0 6 -3.5 17.5t-3.5 17.5q0 8 6 15q4 2 11 2q26 0 31 -56q1 -34 1 -103l1 -33q2 -40 2 -59q0 -16 -2 -56v-51l1 -84q0 -52 -2 -98q-1 -21 -0.5 -37.5t0.5 -28.5v-34q0 -37 -1 -54q0 -9 -0.5 -26.5t-5.5 -27t-18 -11.5q-11 6 -18 16z" />
    <glyph glyph-name="plusminus" unicode="&#xb1;" horiz-adv-x="342" 
d="M163 237l-3 9l-1 13q-1 3 -5 3l-8 -2q-3 -4 -8 -1t-6 4q-4 3 -3.5 7t3.5 6q2 3 6 3q1 1 11 4q5 2 5 3q3 1 4 4q0 5 2 15l3 8q1 0 4.5 3t7.5 1q8 -2 8 -8q1 -3 0.5 -5.5t-0.5 -3.5l1 -5h8q5 1 9 0.5t8 -0.5l7 -3q7 -4 7 -12q-2 -10 -9 -11q-3 -2 -10 -2q-10 0 -16 -1
q-3 0 -4 -1.5t-1 -4.5v-11q0 -4 -2 -10q-1 -7 -8 -7t-10 5zM110 180q-4 0 -8 4q-2 4 -2 8t4 5q12 12 30 14q9 2 23.5 4t23.5 4l34 6h8q7 0 11 -2q8 -5 8 -13q-2 -12 -10 -13q-3 -2 -11 -2q-21 0 -33.5 -0.5t-27.5 -2.5q-14 -2 -21 -2l-20 -7l-7 -3h-2z" />
    <glyph glyph-name="questiondown" unicode="&#xbf;" horiz-adv-x="443" 
d="M248.5 755.5q-5.5 5.5 -8.5 7.5l1 4q-4 8 -4 16q0 7 3 13q1 6 6.5 11.5t10.5 7.5q2 1 8 1q11 0 18 -3q6 -2 9 -7t5 -7q7 -7 5 -24q-2 -1 -4 -4.5t-4 -5.5q-2 0 -7 -2t-10 -1q-7 -8 -14 -12q-9 0 -14.5 5.5zM197 -177q-10 4 -24 15l-18 12q-4 4 -18 18.5t-21 29.5
q-12 15 -20.5 32.5t-15.5 34.5t-10 24l-4 22q-6 25 -7 43q0 34 8 78.5t19 78.5q11 25 21 50l3 3q5 14 16 30.5t16 24.5q5 3 5 5q9 3 15 4q7 -7 13 -10q1 -2 1 -6q0 -6 -5 -13t-7 -12q-9 -8 -15.5 -21.5t-8.5 -18.5q-21 -41 -34 -91q-5 -17 -9 -56q-2 -8 -4 -26q2 0 1.5 -1.5
t0.5 -1.5q-1 -2 -1 -7q0 -3 0.5 -9t-1.5 -10q4 -10 6 -32l2 -3q9 -41 24 -63q0 -1 0.5 -2t-0.5 -2q7 -7 12 -17t8 -15q20 -22 27 -31q1 -1 3 -2.5t5 -1.5q3 -5 9.5 -9t8.5 -7q3 -2 11.5 -6.5t17.5 -4.5q5 0 8 1q1 1 1.5 0t1.5 -1q2 0 3 1l2 2q1 -3 5 -3q3 2 11.5 5t11.5 8
q1 1 2.5 1t2.5 1q2 2 7.5 5t6.5 9q6 0 8 9q6 4 5 3q0 4 5.5 11.5t6.5 13.5l4 1q6 18 10 27t10 29q2 7 2 23q1 3 3.5 9t2.5 10v11q4 12 4 38q0 27 1 40l-3 4q2 6 2 16q0 9 -4 23v13q0 19 -3 27q0 7 -2 23q-3 18 -3 21q-2 1 -2.5 3.5t-0.5 3.5v1q0 2 -1 4.5t0 5.5l-4 3
q1 4 0 8q-1 0 -1.5 3.5t-2.5 4.5q1 10 -5 28q-1 2 -3 9t-2 14q-5 9 -9 24q-3 16 -10 27q-1 23 -15 40q2 3 0 5.5t-3 3.5l1 4q0 3 -5 10q-1 5 -3.5 11t-3.5 11q-3 8 -7.5 22.5t-9.5 21.5q-2 10 -8 28l-6 20q-1 2 0 2t2 1q-4 4 -4 6v6q0 7 -1 15.5t-2 13.5q1 4 1 11q0 8 -3 14
q4 24 4 34q0 8 -1 12q-7 1 -11 6.5t-5 7.5q1 5 4.5 9.5t4.5 8.5q4 1 10.5 3t14.5 1q9 -7 11 -16.5t2 -21.5t1 -19q-1 -2 -1.5 -2.5t-0.5 -2.5q0 -16 1 -24q0 -24 1 -37q3 -21 9 -39q0 -8 2 -10q0 -1 1 -1.5l1 -0.5q0 -2 0.5 -6t3.5 -5q0 -1 0.5 -3t-0.5 -5q2 -4 9 -19
q2 -7 8 -19q-1 -1 -0.5 -3t0.5 -3q4 -6 7 -15.5t5 -13.5q5 -19 13 -32q3 -17 9 -32q8 -24 10 -37l4 -4v-2q0 -4 3 -11.5t2 -13.5q4 -6 6 -21q2 -11 6 -21v-2q0 -3 2.5 -9.5t0.5 -11.5q2 -2 2 -13q4 -7 5 -21t3 -19q-1 -1 -1 -2.5t-1 -2.5q4 -9 4 -24q0 -11 3 -22
q-1 -2 -1 -5q0 -2 0.5 -6t-1.5 -8q2 -1 2 -7q0 -5 -2 -8q2 -7 2 -15.5v-10.5q0 -7 -1 -10q-1 -6 -0.5 -13t-0.5 -11q-4 -41 -10 -57q0 -2 1 -3.5t0 -3.5q-3 -3 -3.5 -7t-0.5 -6q-1 -6 -4.5 -13.5t-4.5 -11.5q-7 -13 -8 -23q-4 -2 -5 -4q-1 -18 -20 -35l-1 -4q-7 -3 -11 -12
q-3 -3 -12 -10t-13 -13l-9 -1q-2 -3 -7.5 -5.5t-8.5 -4.5q-7 -1 -14.5 -2.5t-13.5 -1.5q-28 0 -39 5z" />
    <glyph glyph-name="multiply" unicode="&#xd7;" horiz-adv-x="297" 
d="M153 200q-4 3 -6.5 6.5t-4.5 5.5q-4 4 -7 1q-4 -3 -6 -8q-3 -7 -10 -7l-10 -1q-5 1 -7.5 5.5t-0.5 9.5t4 7q1 2 9 13q1 1 2 2.5t2 3.5q1 3 0 7l-8 18q-1 4 -1 11q0 10 8 13q2 1 6 1q5 0 10 -5l6 -9l4 -4q5 1 8 5q5 5 19 11q6 2 9 2h3q8 0 13 -8q2 -3 2 -8q0 -6 -4 -10
q-2 -2 -9 -8q-3 -3 -7.5 -6t-8.5 -7q-2 -2 -2 -4t1 -5l8 -13l6 -13v-2q0 -6 -5 -11q-7 -4 -15 -1z" />
    <glyph glyph-name="divide" unicode="&#xf7;" 
d="M153 371q-6 2 -9.5 9t-3.5 15q0 11 6 18.5t17 6.5q4 5 10 5q9 0 18 -9q3 -6 3 -14q0 -10 -5 -18.5t-13 -11.5q-2 0 -2 -2t-1 -2q-11 0 -20 3zM111 260q-6 0 -9 5q-2 4 -2 7q0 5 4 8q14 13 35 16q18 4 31.5 6t22.5 3l38 6l10 1q2 -1 5 -1t7 -2q9 -4 9 -15q-2 -12 -11 -15
q-4 -2 -13 -2q-23 0 -37.5 -0.5t-31.5 -2.5l-24 -3q-5 -1 -23 -8l-8 -3h-3zM153 151q-6 2 -9.5 9t-3.5 15q0 11 6 18.5t17 6.5q4 5 10 5q9 0 18 -9q3 -6 3 -14q0 -10 -5 -18.5t-13 -11.5q-2 0 -2 -2t-1 -2q-11 0 -20 3z" />
    <glyph glyph-name="endash" unicode="&#x2013;" horiz-adv-x="425" 
d="M72 178q-2 4 -2 6q0 5 5 10q4 4 8 5q6 2 16 4l154 23l15 4q9 0 13 -2q11 -5 12 -15q0 -15 -11 -19q-7 -4 -14 -4q-10 1 -23 -1t-21 -3q-25 -4 -73 -10l-39 -5q-6 -1 -17 -1h-10q-9 0 -13 8z" />
    <glyph glyph-name="ellipsis" unicode="&#x2026;" horiz-adv-x="293" 
d="M26 -9q-8 3 -10 17q1 1 1 3.5t1 3.5q8 13 18 16q2 1 6 1q6 0 9 -5l9 -17q1 -2 1 -6q0 -8 -6 -13.5t-14 -4.5q-5 1 -15 5zM116 -9q-8 3 -10 17q1 1 1 3.5t1 3.5q8 13 18 16q2 1 6 1q6 0 9 -5l9 -17q1 -2 1 -6q0 -8 -6 -13.5t-14 -4.5q-5 1 -15 5zM238 -14q-13 0 -18 13
l-3 11q-1 2 -1 5q0 8 7 11q6 2 9 2h3q10 0 22 -10q9 -4 5 -17q-3 -12 -13 -13l-9 -2h-2z" />
    <glyph glyph-name="fraction" unicode="&#x2044;" horiz-adv-x="237" 
d="M12 -57l-2 11q4 24 7 36q3 17 7 29q19 88 36 152q20 81 39 144q12 42 32 101q11 37 29 86q10 31 29 71q5 9 10 16q4 6 11 9q4 2 7 2q6 0 11 -5t4 -12q0 -7 -2 -10q-22 -48 -44 -114q-10 -35 -19 -58q-27 -85 -32 -103q-12 -39 -34 -117l-33 -121l-13 -51q-2 -10 1 -15
q3 -6 0 -13l-12 -35l-3 -6q-5 -7 -14 -7q-12 0 -15 10z" />
    <glyph glyph-name="trademark" unicode="&#x2122;" horiz-adv-x="1725" 
d="M1761.5 188.5q2.5 -4.5 3 -8.5t-1.5 -10l-16 -46q-9 -13 -13.5 -27.5t-5.5 -17.5q-7 -13 -52 -76.5t-56 -71.5q-1 -1 -3.5 -1.5t-3.5 -1.5q-4 -3 -10 -9t-10 -8q-2 -1 -5 -1t-5 -1q-5 -3 -8 -5.5t-6 -4.5q-7 -1 -24 -5t-31 -4q-10 0 -15 1q-39 6 -80 36q-3 2 -6.5 5.5
t-7.5 6.5q-1 1 -2 0.5t-2 -0.5q-32 27 -62 91q-53 102 -68 315l-2 40q-2 77 -11 118q-7 36 -15 60.5t-23 35.5q-4 4 -13 4q-7 0 -13 -3q-17 -9 -21 -15q-2 0 -3 -1t-2 -1q-4 -5 -15 -13.5t-15 -13.5l-5 -10q-1 -1 -2.5 -1t-2.5 -1l-2 -5q-12 -10 -14 -12q-4 -5 -10.5 -14
t-13.5 -15q0 -2 -5 -10l-7 -12q-2 -2 -5.5 -5t-4.5 -5q-2 -3 -3 -7t-3 -7t-5.5 -5t-5.5 -5q-1 -2 -0.5 -4.5t-0.5 -4.5q-3 -6 -8.5 -12.5t-8.5 -10.5q-2 -7 -7.5 -16.5t-7.5 -17.5q-2 -2 -4.5 -8.5t-5.5 -7.5v-7q-11 -13 -13 -23q0 -1 -5 -6q-4 -14 -12 -28q-2 -4 -7.5 -17
t-7.5 -25q-6 -5 -11.5 -19t-8.5 -19q0 -8 -6.5 -19t-4.5 -18q-5 -3 -8 -11t-4 -11t-3.5 -8t-2.5 -7q-1 -2 -1 -6.5t-1 -6.5l-5 -3q-1 -2 -0.5 -4t-0.5 -4q0 -1 -1.5 -2t-2.5 -2l-2 -9q-7 -18 -16 -37v-7q-14 -25 -20 -43q-4 -1 -6 -11q-4 -3 -9.5 -8t-11 -8t-12.5 -3
t-12.5 5t-8.5 7q-14 52 -14 121q0 32 4 90l1 27q3 78 3 153l1 67q0 59 -9 104t-21 47h-2q-4 0 -8 -3t-8 -3q-3 -4 -17 -21q-18 -18 -23 -31q-9 -5 -15 -17l-7 -14q-14 -14 -24 -37q-15 -15 -20 -34q-11 -16 -16 -33q-5 -3 -9 -14t-8 -14q-3 -10 -11 -28q-12 -24 -14 -39
q-4 -4 -7 -12t-3 -13q-3 -3 -4.5 -8.5t-2.5 -7.5l-7 -14q-1 -2 0 -4.5t1 -4.5q-3 -1 -6 -8.5t-5 -9.5q0 -2 0.5 -5t-0.5 -6q-1 -7 -5.5 -14t-6.5 -11l-2 -16q-1 -3 -4 -9t-2 -12q-3 -9 -9 -26t-7 -30q-4 -4 -5.5 -11.5t-0.5 -13.5q-5 -7 -11 -31q-4 -16 -7 -24
q-4 -27 -14 -57l-9 -32l-9 -8q-2 -1 -4.5 -1t-4.5 -2l-10 1q-8 6 -11 17t-3 28l1 33v139v72q0 14 -1 21l-1 22q0 33 -1 50q0 51 -1 76q-4 87 -21 206q-5 41 -17 77l-4 10q-7 -2 -23 -4q-26 -4 -38 -9q-4 0 -6 -1l-4 -3q-7 0 -10 1q-14 -3 -67 -17q-38 -11 -50 -14
q1 -6 1 -19q0 -6 -0.5 -15t0.5 -22q0 -6 1.5 -14t2.5 -13q0 -4 -1.5 -10t-0.5 -10q0 -3 2 -8t-1 -9q1 -5 1 -16l-1 -34q0 -14 2 -21l-1 -21q0 -6 2.5 -15.5t3.5 -16.5l-1 -10q6 -52 6 -134v-44q0 -41 -2 -115q-1 -53 -9 -148l-5 -60q0 -1 -8 -51q-6 -9 -18 -9q-9 0 -17 5
q-4 8 -4 20q0 7 1 15.5t1 17.5q0 5 -1 12.5t0 12.5q3 17 3 51q0 21 1 30l3 36q0 19 1 29q0 31 1 46l1 30q0 10 -1 15q0 2 2 6q-2 27 0 57q1 11 1 32q0 17 -1 24q2 14 2 30.5v21.5v18q-1 8 0 21t1 22q0 14 -2 20q2 30 -13.5 67t-39.5 61q-11 11 -26.5 21t-31.5 19l-23 14
q-14 11 -14 25q0 10 9 19q6 5 13 7q1 1 1.5 2t1.5 2q2 1 5.5 1.5t5.5 1.5q3 1 4.5 2.5l2.5 2.5t3 0.5l2 -0.5q6 4 16 6q10 3 12 6q7 2 21 4q32 6 46 12l-1 3q0 2 1 4t1 4q-1 6 -2.5 12.5t-2.5 13.5q-1 5 -0.5 11.5t0.5 10.5q0 5 -1 10t-1 10q0 10 7 17q6 3 10 3q7 0 12 -5.5
t10 -15.5q-1 -2 -1 -6t1.5 -7.5t1.5 -8.5q0 -3 -2 -9q2 -3 2 -10l-1 -16q0 -6 2 -12q23 5 29 10q6 -1 13 1t9 3q15 5 22 5q3 3 11.5 4t11.5 4q7 0 19 2l7 16q11 5 13 14q7 3 22.5 10t29.5 7q7 0 11 -1q15 -6 26 -24l15 3q4 1 8 -1q49 11 92 11q10 0 34 -2q8 -1 13.5 -8
t5.5 -16q0 -11 -10 -15q-9 0 -9 -1q-10 6 -24 6q-9 0 -17 -3q-5 2 -12 1t-10 0q-8 -4 -25 -4q-3 0 -10.5 -1t-12.5 -3q-5 -1 -10.5 -0.5t-11.5 -0.5q4 -12 7 -18q19 -74 27 -166.5t11 -203.5q2 -72 2 -227l6 22q3 18 10 33v2q0 3 1.5 7t0.5 8q4 5 7 18.5t6 18.5l1 9
q3 5 6.5 17t7.5 18v2q0 2 1 5t0 5q4 4 5.5 12.5t2.5 12.5l4 6l4 6q2 6 4 14.5t4 13.5q4 13 11 27q0 8 7 15q1 2 -0.5 3.5t-0.5 1.5q6 10 19 40q9 23 21 42q1 1 0.5 2.5t-1.5 1.5q9 12 17 33q1 1 6 5.5t5 13.5q6 6 10.5 14t5.5 11q12 22 22 30q1 6 8.5 14t8.5 15q3 1 4.5 2.5
t1.5 5.5q3 1 5.5 4.5t4.5 3.5q3 8 13 18.5t13 16.5q11 5 21 15q6 1 12.5 3.5t11.5 3.5q5 -1 15.5 -4t16.5 -6q11 -12 19 -26q1 0 0.5 -2t0.5 -3q21 -47 21 -159l-1 -98v-4q0 -7 -1 -13.5t-1 -13.5q0 -5 1 -10.5t1 -10.5q-1 -8 -1 -26q-2 -32 -2 -50q-4 -68 -4 -103l1 -32
l2 -42q4 0 7 16q5 3 6.5 9.5t1.5 7.5q9 12 11 29l6 7v2q0 3 2 7t2 7q2 2 4 9.5t5 12.5q3 7 10 20.5t8 24.5q2 5 5.5 12.5t4.5 11.5q4 7 6 12.5t3 8.5q5 16 11 25q0 1 1 2.5t-1 2.5q4 4 5 7q1 7 8 18.5t8 19.5q6 8 6 16q0 2 2.5 3.5t2.5 2.5t1 3t-1 3q3 4 7 7q2 8 6 16.5
t7 15.5q11 16 21 38q19 36 31 49q1 2 0.5 3.5t0.5 3.5q2 1 5 5.5t6 5.5q3 9 13 21q1 1 6 7t7 13q22 20 31 37q22 20 38 39q2 0 3.5 1t3.5 1q1 3 2.5 4.5l2.5 2.5q8 4 20 11.5t22 11.5t21 4q8 0 17 -3l21 -12q11 -11 17.5 -22t12.5 -28q10 -23 14 -45q12 -59 18 -169
q1 -26 5 -76l2 -14q9 -68 21 -122t33 -100q24 -50 56 -83q6 -5 16.5 -11.5t16.5 -9.5q2 -2 3.5 -4t3.5 -4q2 -1 4.5 -0.5t5.5 -0.5t6.5 -3.5t7.5 -3.5q4 0 12 -0.5t13 -2.5q2 0 7 1.5t9 -0.5q35 10 62 29q9 10 16 14q20 21 59.5 77t41.5 76q0 2 1 3.5t2 2.5q2 11 4 15
q1 4 5.5 13t3.5 16q2 2 5.5 9t6.5 11t9 5q1 0 3 -2t5 -1q2 -4 4.5 -8.5zM147 543l3 8q-4 53 -3 73h-5q-8 0 -27 -7q-15 -1 -34 -8.5t-27 -10.5q33 -19 56.5 -38t39.5 -44q0 22 -3 27z" />
    <glyph glyph-name="minus" unicode="&#x2212;" 
d="M111 240q-6 0 -9 5q-2 4 -2 7q0 5 4 8q14 13 35 16q18 4 31.5 6t22.5 3l38 6l10 1q2 -1 5 -1t7 -2q9 -4 9 -15q-2 -12 -11 -15q-4 -2 -13 -2q-29 0 -69 -3l-24 -3q-5 -1 -23 -8l-8 -3h-3z" />
  </font>
</defs>
</svg>
