<svg xmlns="http://www.w3.org/2000/svg">
<defs>
<font id="NewSun_YandiDesigns" horiz-adv-x="451" >
  <font-face 
    font-family="New Sun"
    font-weight="400"
    font-stretch="normal"
    units-per-em="1024"
    panose-1="0 0 0 0 0 0 0 0 0 0"
    ascent="819"
    descent="-205"
    x-height="532"
    cap-height="727"
    bbox="-43 -179 843 901"
    underline-thickness="1"
    underline-position="-2"
    unicode-range="U+000D-20AC"
  />
<missing-glyph horiz-adv-x="819" 
d="M780 737v-739h-572h-168v739h740zM132 468q15 -11 19 -39q5 -28 -3 -48l-2 -2q0 -2 -1 -3q-1 -2 -3 -5q-1 -3 -3 -6q-1 -3 -3 -6t-3 -6l-4 8l-4 8t-4 7q-3 4 -5 7t-5 5t-5 4l-6 2t-6 1q-4 0 -7 -2q-2 -1 -3 -4q-2 -4 -1 -10q2 -5 6 -6v5q-1 4 6 3h3q1 0 3 -1l2 -2t2 -3
q2 -1 3 -3l2 -4q2 -2 3 -4l2 -4q1 -3 2 -5q2 -2 3 -5q1 -2 2 -5t2 -5q-3 -4 -17 -23t-30 -18v0h-1q2 -7 13 -8h3q9 0 15 4q8 6 16 15q7 10 14 22l3 6q2 3 5 6q2 4 4 7q2 4 4 7q1 3 3 6t3 6t3 5q1 3 2 4q1 2 1 4q1 0 1 1v1v0v0q3 -1 5 -3q2 -1 7 -1q-3 2 -5 9q-3 7 -2 10
q4 -4 9 -6q4 -2 12 -2q-4 3 -6 10q-1 6 -8 13q10 -6 16 -8t17 0q-7 4 -10 8q-4 4 -9 15q10 -7 28 -12q19 -5 32 -4q-7 3 -18 10q-12 7 -15 15q9 -6 31 -16q22 -9 41 -8q-6 5 -22 14q-15 9 -20 18q15 -10 43 -22q28 -11 54 -3q-11 4 -26 10q-16 6 -27 18q21 -11 56 -15
q36 -4 58 9q-11 1 -37 5q-25 4 -33 12q38 -7 75 -7q36 0 50 11q-65 10 -120 23q-53 12 -99 12h-3q-29 0 -56 -7q-26 -8 -52 -25zM283 477q-25 -2 -36 -4q-12 -3 -19 -4q4 -2 10 -4t8 -4h-24q-9 0 -18 1q1 -2 4 -4l6 -4q-3 0 -12 1t-13 2q0 -1 2 -3l4 -6q-4 0 -8 1t-7 3
q-1 -2 0 -6q1 -5 2 -9q-2 0 -4 1t-2 3l-1 -4q0 -5 -2 -8q-2 -1 -5 -2q1 3 -1 16t-6 18q14 9 33 15q18 5 38 6h6q10 0 19 -1q13 -1 26 -4zM299 410q-2 -1 -3 -3q-2 -1 -4 -3q-1 -2 -3 -5q-1 -2 -2 -5q-2 -3 -3 -6l-2 -6t-1 -6l-2 -6q0 -3 -1 -6v-7q-2 0 -4 -1t-4 -1l-4 -2
t-4 -3q-2 -1 -3 -3t-3 -4l-2 -4t-2 -3q0 -2 -1 -4t-1 -4q-1 -2 -1 -3v-4v-1q-1 -1 -2 -1h-1v-1q-1 0 -2 -1q0 -1 -1 -1t-1 -1h-2v0h-2q-1 1 -1 2q-1 1 -1 3v3v2v3v2t1 3v3q1 1 1 3v3q0 1 1 2v2v1v2v1v3q0 2 -1 3q-1 2 -2 2q-1 1 -3 1q-1 0 -3 -1q-1 0 -2 -1q-1 0 -2 -1

<glyph glyph-name=".notdef" horiz-adv-x="819" 
d="M780 737v-739h-572h-168v739h740zM132 468q15 -11 19 -39q5 -28 -3 -48l-2 -2q0 -2 -1 -3q-1 -2 -3 -5q-1 -3 -3 -6q-1 -3 -3 -6t-3 -6l-4 8l-4 8t-4 7q-3 4 -5 7t-5 5t-5 4l-6 2t-6 1q-4 0 -7 -2q-2 -1 -3 -4q-2 -4 -1 -10q2 -5 6 -6v5q-1 4 6 3h3q1 0 3 -1l2 -2t2 -3
q2 -1 3 -3l2 -4q2 -2 3 -4l2 -4q1 -3 2 -5q2 -2 3 -5q1 -2 2 -5t2 -5q-3 -4 -17 -23t-30 -18v0h-1q2 -7 13 -8h3q9 0 15 4q8 6 16 15q7 10 14 22l3 6q2 3 5 6q2 4 4 7q2 4 4 7q1 3 3 6t3 6t3 5q1 3 2 4q1 2 1 4q1 0 1 1v1v0v0q3 -1 5 -3q2 -1 7 -1q-3 2 -5 9q-3 7 -2 10
q4 -4 9 -6q4 -2 12 -2q-4 3 -6 10q-1 6 -8 13q10 -6 16 -8t17 0q-7 4 -10 8q-4 4 -9 15q10 -7 28 -12q19 -5 32 -4q-7 3 -18 10q-12 7 -15 15q9 -6 31 -16q22 -9 41 -8q-6 5 -22 14q-15 9 -20 18q15 -10 43 -22q28 -11 54 -3q-11 4 -26 10q-16 6 -27 18q21 -11 56 -15
q36 -4 58 9q-11 1 -37 5q-25 4 -33 12q38 -7 75 -7q36 0 50 11q-65 10 -120 23q-53 12 -99 12h-3q-29 0 -56 -7q-26 -8 -52 -25zM283 477q-25 -2 -36 -4q-12 -3 -19 -4q4 -2 10 -4t8 -4h-24q-9 0 -18 1q1 -2 4 -4l6 -4q-3 0 -12 1t-13 2q0 -1 2 -3l4 -6q-4 0 -8 1t-7 3
q-1 -2 0 -6q1 -5 2 -9q-2 0 -4 1t-2 3l-1 -4q0 -5 -2 -8q-2 -1 -5 -2q1 3 -1 16t-6 18q14 9 33 15q18 5 38 6h6q10 0 19 -1q13 -1 26 -4zM299 410q-2 -1 -3 -3q-2 -1 -4 -3q-1 -2 -3 -5q-1 -2 -2 -5q-2 -3 -3 -6l-2 -6t-1 -6l-2 -6q0 -3 -1 -6v-7q-2 0 -4 -1t-4 -1l-4 -2
t-4 -3q-2 -1 -3 -3t-3 -4l-2 -4t-2 -3q0 -2 -1 -4t-1 -4q-1 -2 -1 -3v-4v-1q-1 -1 -2 -1h-1v-1q-1 0 -2 -1q0 -1 -1 -1t-1 -1h-2v0h-2q-1 1 -1 2q-1 1 -1 3v3v2v3v2t1 3v3q1 1 1 3v3q0 1 1 2v2v1v2v1v3q0 2 -1 3q-1 2 -2 2q-1 1 -3 1q-1 0 -3 -1q-1 0 -2 -1q-1 0 -2 -1
t-2 -3l-1 -1v-1l-1 -1q-1 -1 -1 -2q-1 -1 -1 -2q-1 -1 -1 -2q-1 -1 -1 -2q-1 -1 -1 -3q-1 -1 -1 -2q-1 -1 -1 -2t-1 -1v-1h-1v1v1v1v2q0 2 1 3v1v2v2q1 1 1 2v1v2v1v3q-1 1 -1 2q-1 1 -2 1q-1 1 -3 1q-1 0 -2 -1q-1 0 -2 -1l-2 -2t-1 -2q0 -2 -1 -4v-5q-1 -2 -1 -5
q-1 -3 -1 -5v-3q-1 -1 -1 -3q-1 -1 -2 -3l-3 -3q0 -1 -1 -1q-1 -1 -1 -2q-1 0 -2 -1l-1 -1q-1 0 -1 -1h-2q0 -1 -1 -1h-1h-1l-1 1q-1 1 -1 2v3v3q1 2 1 4q1 3 1 5q1 1 1 3t1 4v3q1 2 1 3v3v2q-1 0 -1 1v1l-1 1v0h-1q0 1 -1 0h-1v0h-1h-1h-1v0q-1 0 -1 1h-1h-1v1v0l-1 1l-1 1
v0q-1 0 -1 1h-1q-2 0 -4 -1q-2 0 -4 -1l-4 -2t-3 -2q-2 -2 -4 -3q-1 -2 -3 -4l-2 -4q-2 -3 -3 -5q-1 -3 -2 -5q-1 -3 -2 -5q0 -2 -1 -4v-5v-3q1 -2 1 -4l2 -2q0 -2 1 -3t3 -2q1 0 2 -1q1 0 3 -1h2h3t3 1q1 0 2 1q1 0 2 1q2 1 3 1l2 2l2 2q1 0 1 1l2 -4t3 -3q1 -1 3 -2h3h3
q2 1 3 1q2 1 3 2q2 1 3 2l2 2q2 1 3 2l-1 -1h1v-2t1 -2q0 -1 1 -2l1 -1q1 0 1 -1h3h1q1 0 2 1q1 0 1 1l2 2l15 30v0v-5q-1 -2 -1 -4v-4v-3v-8q1 -3 2 -5q1 -3 2 -4q2 -1 3 -1h3q2 1 3 1t2 1q1 0 4 1q0 1 3 2q2 1 5 2v0v-1l2 -2q1 -2 3 -2q1 -1 3 -2h3h3t2 1q2 0 3 1q1 0 3 1
l2 2q1 0 2 1q2 1 3 2l2 2q1 -1 2 -3q0 -1 1 -2l2 -2t2 -1q1 -1 2 -1h1q1 -1 2 -1h1h1q1 0 2 1h2q0 1 1 1t2 1q1 0 2 1q1 0 2 1q1 0 1 1q1 0 2 1t2 1v-1v0q1 -1 1 -2q1 -1 1 -2q1 0 2 -1q0 -1 1 -1q1 -1 3 -1h3h3q2 1 3 1l4 2q2 0 4 1q1 1 3 2t3 2q2 1 3 2l2 2q3 2 4 8
q2 3 1 5v4q-1 -1 -5 -4q-3 -4 -4 -5l-2 -2q-2 -1 -3 -2l-2 -2q-2 -1 -3 -2q-1 0 -2 -1h-3h-1l-1 1q0 1 -1 2v3v2q1 2 1 4q0 1 1 3q0 2 1 3q0 2 1 4q0 2 1 4q0 2 1 4q0 2 1 3q0 2 1 3v3q1 1 1 2v1v2q-1 0 -1 1h-1h-2h-2h-1h-2q-1 -1 -2 -1l-1 -1h-1q-1 -1 -1 -2l-1 -1v-3
l-2 -6q-1 -5 -2 -8q-1 -2 -1 -4l-1 -2t-1 -5l-2 -2q-2 -1 -3 -2q-1 0 -1 -1q-1 0 -2 -1h-1q-1 -1 -2 -1q0 -1 -1 -1t-1 -1h-1h-1h-2l-1 1v1l-1 1v1t-1 1v2v2v1v1q1 1 1 2v1v1q0 1 1 1v1v1q1 2 2 6q2 3 4 8q2 4 3 7q2 3 3 7q1 3 3 7q1 3 2 7q1 3 1 7l2 8v2v2v3q-1 2 -1 3
q0 2 -1 3q0 2 -1 3q0 1 -1 2t-1 2q-1 0 -3 1h-2q-2 0 -4 -1q-1 0 -3 -1zM382 402q-2 0 -5 -1q-2 0 -4 -1l-4 -2l-4 -2t-3 -3q-2 -1 -3 -3l-2 -4l-2 -4t-1 -5q-1 -2 -1 -5t1 -5q1 -1 2 -1t2 1l2 2q5 7 12 13q6 7 16 7q3 0 5 1h5t6 -1q3 0 6 -1q12 -5 15 -19q2 -13 -2 -28
q-3 -12 -14 -21t-24 -11q-1 0 -2 1h-2h-1v1l-1 1v1q0 6 7 32q6 25 11 33q-1 2 -3 3t-4 1q-4 0 -6 -1q-1 0 -2 -1q-8 -13 -14 -36q-5 -24 -5 -43q8 -3 19 -3q7 0 16 1q20 4 30 18q3 4 5 7q1 3 3 7q2 3 3 7l2 8q0 5 1 8v8v5q0 3 -1 6q0 2 -1 5l-2 4q-2 2 -3 5l-4 4q-2 1 -4 3
t-5 3q-3 2 -6 3t-7 2q-4 0 -8 1h-9h-5q-2 0 -5 -1zM305 398v-2v-3v-3v-3v-3q-1 -2 -1 -4q0 -1 -1 -3q0 -2 -1 -3q0 -2 -1 -4q0 -2 -1 -3q0 -2 -1 -4q0 -1 -1 -3q-1 -4 -3 -7q-2 -4 -3 -8v1v2v2v2v2v3v2q0 2 1 3v2v3v3q1 2 1 4t1 4v4q1 3 1 5q1 2 1 4q1 1 2 3q0 1 1 2t1 2
q1 1 2 1t1 -1h1zM330 383q-1 -1 -2 -1l-2 -2l-1 -1q0 -1 -1 -2v-1v-2v-3q1 -2 2 -3t3 -2h5h2h3q1 1 2 1q1 1 1 2l1 1q1 1 1 2q1 1 1 2v2v2l-1 1q0 1 -1 2l-1 1q-1 0 -1 1h-2q-1 1 -2 1h-2q-2 0 -3 -1h-2zM547 383q-1 -1 -2 -1q-1 -1 -1 -2q-1 0 -1 -1q-1 -1 -1 -2v-1
q-1 -1 -1 -2q0 -2 1 -3q1 -2 2 -3t3 -2h4h3h2q1 1 2 1l2 2q0 1 1 1q0 1 1 2v2v2v2t-1 1v2q-1 0 -1 1q-1 0 -2 1h-2q-1 1 -2 1h-1q-2 0 -3 -1h-3zM574 353q-2 -2 -4 -5q-2 -2 -4 -5q-1 -3 -3 -7q-1 -3 -3 -8q0 -2 -1 -5v-4l-1 -1v0q-2 -1 -3 -2l-2 -2q-2 0 -3 -1h-2h-2
q0 1 -1 1v2v3v2v4q1 1 1 3q1 2 1 3q1 2 1 4q1 2 1 4q1 2 1 4q1 2 1 3q1 2 1 3q1 2 1 3v2v1v2v1h-2h-2h-1h-2h-1q-1 -1 -2 -1t-1 -1h-2q0 -1 -1 -2v-1q-1 -1 -1 -3q-1 -3 -1 -6q-2 -5 -3 -8q0 -2 -1 -4l-1 -2q0 -3 -1 -6q-1 -1 -2 -1q-1 -1 -2 -1q-1 -1 -3 -2q-1 0 -2 -1
q-1 0 -2 -1t-3 -1q0 2 1 3v4v3v3t-1 2v1t-1 2v1v2q-1 0 -1 1v2v1v1l1 1l2 2l1 1t1 2l1 1q1 1 1 2v1v1v1v1v1q-1 0 -1 1h-2q0 1 -1 1h-3h-2q0 -1 -1 -1h-1q-1 0 -1 -1q-1 0 -2 -1h-1v-2q-1 0 -1 -1l-4 -4q-1 -2 -2 -3q-1 -2 -2 -3l-2 -2t-1 -2l-2 -2q0 -1 -1 -2l-2 -2l-2 -2
l-2 -2t-1 -2q-1 0 -2 -1l-8 -6t-8 -4q-2 -1 -4 -1q-2 -1 -3 -1h-1h-1l-1 1h-1l-1 1l-1 1l-1 1v1l4 2q3 1 5 2t4 3q2 1 3 3q2 1 3 3t3 4q1 3 1 5q1 2 1 3q0 2 -1 4v2q-1 2 -2 3l-2 2t-2 1l-2 2h-3q-2 1 -3 1q-2 0 -4 -1q-2 0 -4 -1q-1 -1 -3 -1l-2 -2l-3 -3q-1 -2 -2 -3
q-1 -2 -2 -3q0 -2 -1 -4q-1 -1 -1 -3l-2 -4v-5q-1 -1 -1 -3t1 -5v-4l2 -4t3 -4l3 -3q1 -1 3 -2t5 -2h5h3q2 0 4 1q1 0 3 1q1 0 3 1q1 1 3 1q1 1 3 2l2 2q2 1 3 2q0 -1 1 -2q0 -1 1 -2q0 -1 1 -2l2 -2q1 0 3 -1q1 0 2 -1h3q2 -1 4 -1t4 1q3 0 5 1q3 0 6 1q2 1 5 2q2 0 5 2
l4 2h1h1v0v-1q0 -1 1 -2q0 -1 1 -2l1 -1t2 -1q1 -1 2 -1h3h3q2 1 4 1l4 2q1 0 3 1t3 2q2 1 3 2q1 -2 2 -3q2 -1 3 -2q2 -2 4 -2q2 -1 4 -1q3 0 6 1q4 2 7 5q-1 -2 -1 -7q-9 -4 -15 -9q-7 -6 -12 -11q4 -1 10 -1h5q3 3 7 6q3 2 5 3v-2q-1 -6 -9 -21t-14 -19q0 -1 -1 -1h-1
q-3 3 -3 6q0 4 1 8h-5h-6q-2 -8 0 -14t9 -10q1 0 2 -1h2h1v0q13 -1 24 21q11 23 13 38q3 2 7 6q4 3 7 6q0 -1 1 -2q1 0 1 -1q1 0 2 -1h2h2t1 1q1 0 2 1q0 1 1 2l15 30h1q-1 -2 -1 -5v-4q-1 -2 -1 -4v-3q0 -4 1 -8q0 -3 1 -5q1 -3 3 -4q1 -1 3 -1h3q1 1 3 1q5 2 8 4t6 5
q1 -2 1 -3l1 -1q0 -1 1 -2l2 -2q1 0 3 -1q1 0 2 -1h3q2 -1 4 -1t5 1q2 0 5 1q2 0 5 1t5 2q9 3 14 8q4 5 4 12v2q-1 -1 -3 -2l-2 -2q-2 0 -3 -1t-3 -1l-2 -2q-2 0 -3 -1q-1 0 -2 -1t-2 -1v3v4v3v3v2l-1 1v2t-1 1v2v1v2l-1 1l1 1q0 1 1 1q0 1 1 2q1 0 1 1l2 2q0 1 1 1q0 1 1 2
v1v1v1q-1 0 -1 1v1q-1 0 -1 1h-1q-1 1 -2 1h-3h-1q-1 -1 -2 -1h-1l-1 -1q-1 0 -1 -1h-1q-1 -1 -1 -2l-1 -1q-2 -2 -3 -4l-3 -3q-1 -2 -2 -3l-2 -2q0 -1 -1 -2l-2 -2q0 -1 -1 -2l-2 -2l-2 -2l-2 -2q0 -1 -1 -1q0 -1 -1 -1q-3 -3 -10 -8q-6 -5 -7 -2q0 1 -1 3v3v2t1 3v2v3v3
q1 1 1 3v3q1 1 1 2v2t1 1v2v1q0 2 -1 3q0 2 -1 3q-1 2 -2 2q-1 1 -2 1q-2 0 -3 -1q-1 0 -3 -1q-1 0 -2 -1t-2 -3v-1q-1 0 -1 -1t-1 -1q0 -1 -1 -2q0 -1 -1 -2q0 -1 -1 -2q0 -1 -1 -2t-1 -3q0 -1 -1 -2q0 -1 -1 -2v-1q-1 0 -1 -1h-1v1v1v1q1 1 1 2v3v1q0 1 1 2v2v2v1v2v1v3
q0 1 -1 2q0 1 -1 1q-2 1 -3 1q-2 0 -3 -1q-1 0 -2 -1t-1 -2q-1 -1 -1 -2q-1 -2 -1 -4q-1 -2 -1 -5q0 -2 -1 -5q0 -3 -1 -5v-6q-1 -3 -1 -5v-1v-2l-6 -6l-6 -6q0 4 1 8v6t1 5q0 3 1 5q0 2 1 4v4q1 5 1 8q-1 3 -1 4v1h-1q0 1 -1 2h-2h-3v0h-1h-1v0v0h-1v0v1h-1v0v1v0h-1v0
l-2 2h-2q-3 0 -7 -1q-3 -2 -7 -5zM278 348v-1v-1v-2v-4q0 -1 1 -3v-3v-3v-2v-2v-1q-1 -1 -1 -3q-1 -1 -2 -3l-1 -1v-1l-1 -1l-1 -1l-1 -1h-1q-1 0 -1 -1h-1h-2t-1 1h-1l-1 1l-1 1v1v1l-1 1q0 2 1 4q0 1 1 3q0 2 1 4l2 4q1 3 2 5t2 3q2 2 4 3q1 1 3 2v0zM587 329q0 -2 -1 -5
q0 -2 -1 -5q-2 -3 -3 -4q-2 -2 -4 -2q-1 0 -2 1q-1 0 -1 2q-2 1 -2 4v2v4q1 2 2 5q2 3 4 8q3 5 6 7t6 2q-1 -6 -4 -19zM171 348q-1 -6 -4 -19v-2q-1 -1 -1 -2q0 -2 -1 -3q0 -1 -1 -3q-1 -1 -1 -2l-2 -2l-2 -2h-2h-1l-1 1h-1v1l-1 1v2v1v2v2v3q1 1 1 3l2 4t1 3q1 2 2 3l2 2
q1 2 1 3q1 1 3 1l2 2q1 0 2 1h2v0zM463 348q1 0 1 -1q1 0 1 -1q1 -1 1 -2v-2v-2q-1 -1 -2 -3l-2 -2l-2 -2l-2 -2q-1 0 -2 -1q-2 -1 -3 -1h-2v1v2t1 2v2q1 2 1 3q1 1 1 2t1 2q0 1 1 1q0 1 1 2q1 0 2 1h1q0 1 1 1h1h1zM505 331v-2v-2v-2v-2v-1v-2v-2v-1t-1 -2l-1 -1
q0 -1 -1 -1q0 -1 -1 -1t-2 -1h-2h-1q-1 1 -2 1t-1 1q-1 0 -1 1q-1 0 -1 1q-1 0 -1 1h-1l-1 1l16 16v-1q1 0 1 -1zM689 331v-2v-2v-2v-2v-1v-2v-2v-1t-1 -2v-1l-1 -1q-1 -1 -2 -1l-1 -1h-2h-2l-1 1q-1 0 -2 1l-1 1l-1 1q-1 0 -1 1h-1v1q5 5 15 16l1 -1v-1zM147 279
q43 3 113 -1q69 -5 147 -9q42 -3 83 -5q40 -1 78 -1h4q1 1 4 7t3 8q-85 1 -164 7q-76 6 -142 6h-5q-34 0 -64 -3q-30 -2 -57 -9zM598 277q-1 -2 -3 -7q-2 -4 -3 -7q46 0 85 5t66 16q-37 -4 -73 -6q-37 -1 -72 -1z" />
    <glyph glyph-name=".null" horiz-adv-x="0" 
 />
    <glyph glyph-name=".null" horiz-adv-x="0" 
 />
    <glyph glyph-name="nonmarkingreturn" unicode="&#xd;" horiz-adv-x="0" 
 />
    <glyph glyph-name="space" unicode=" " horiz-adv-x="276" 
 />
    <glyph glyph-name="exclam" unicode="!" horiz-adv-x="205" 
d="M77 -16q-28 10 -35 37q-2 7 -2 14q0 19 15 36q12 15 29 18q5 1 11 1q11 0 23 -5q11 -5 17 -11t10 -17q5 -12 5 -23q0 -5 -1 -10q-4 -17 -18 -29q-8 -6 -19 -11q-11 -4 -18 -4h-1q-2 0 -7 1q-4 1 -9 3zM76 149q-10 5 -18 14q-7 9 -10 20q-2 7 -3 62t-2 120v31q0 27 1 53
q0 42 1 70q1 35 3 89q2 53 3 92q1 40 3 71q2 32 3 37q3 9 10 19q8 10 17 14q8 5 25 5t25 -4q9 -5 15 -12q7 -8 11 -18q4 -8 4 -23v-5q0 -18 -2 -67q-1 -34 -3 -85q-2 -52 -3 -90q-2 -44 -2 -103q-1 -59 0 -120q1 -28 1 -48v-35q1 -34 0 -43q-2 -10 -5 -17q-6 -15 -18 -22
q-11 -8 -28 -9h-7q-5 0 -10 1q-6 0 -11 3z" />
    <glyph glyph-name="quotedbl" unicode="&#x22;" horiz-adv-x="369" 
d="M63 527q-6 5 -13 15q-6 10 -8 17q-1 4 -1 9q0 6 2 14q3 14 14 36q15 34 18 63t-5 70q-6 35 -1 53q6 19 25 30q12 6 25 6q6 0 11 -1q19 -4 32 -19q12 -13 19 -63q5 -32 5 -59q0 -16 -2 -30q-2 -27 -10 -53q-8 -25 -23 -55q-9 -19 -20 -29q-10 -10 -23 -13q-3 -1 -7 -1
q-7 0 -17 2q-16 3 -21 8zM211 527q-6 5 -12 15q-7 10 -9 17q-1 4 -1 9q1 6 2 14q4 14 14 36q16 34 18 63q3 29 -4 70q-7 35 -1 53q5 19 25 30q12 6 25 6q5 0 11 -1q19 -4 32 -19q12 -13 19 -63q4 -32 4 -59q0 -16 -1 -30q-3 -27 -11 -53q-8 -25 -23 -55q-9 -19 -19 -29
t-23 -13q-4 -1 -8 -1q-7 0 -16 2q-16 3 -22 8z" />
    <glyph glyph-name="numbersign" unicode="#" horiz-adv-x="655" 
d="M489 773q10 -5 19 -16t11 -21q1 -5 -1 -27q-2 -23 -6 -57q-4 -30 -7 -53q-2 -22 -1 -22q1 -1 14 -1h32q23 1 35 0q13 -1 16 -3q8 -4 17 -12q8 -8 12 -15q4 -8 4 -21v-4q-1 -16 -6 -25q-11 -18 -24 -22q-14 -5 -58 -8q-21 -1 -37 -3q-15 -2 -16 -3q-3 -3 -6 -42
q-4 -40 -1 -42q1 -1 11 0q10 0 22 2q28 4 41 2q12 -3 24 -15q15 -15 16 -35q2 -21 -11 -36q-10 -12 -21 -17q-12 -4 -46 -10q-16 -2 -29 -5q-14 -2 -15 -3q-3 -2 -4 -20t-2 -71q0 -30 -1 -89l-9 -12q-9 -13 -21 -19q-11 -6 -26 -6q-12 0 -21 4q-10 4 -18 14q-11 11 -13 26
q-2 14 -2 73v52t-1 23t-51 -12q-49 -12 -52 -15q-2 -2 -3 -23q-2 -20 -2 -69q-1 -37 -2 -65t-1 -30q-2 -8 -12 -19t-19 -14q-9 -4 -22 -4h-1q-13 0 -21 5q-10 5 -16 10q-5 6 -10 15q-4 8 -5 22q-1 13 -1 63v52q-1 22 -2 23q-1 0 -9 -1q-8 -2 -19 -5q-21 -6 -33 -6
q-12 1 -24 9q-17 11 -23 30q-6 18 2 35q7 17 19 25q12 7 47 18q18 6 31 11q14 4 14 6q1 1 2 12q2 10 2 23q1 13 2 27q2 13 2 19q1 10 1 13q-1 2 -6 2q-3 0 -12 -3q-9 -2 -19 -5t-21 -5t-16 -2q-39 0 -52 35q-3 11 -3 20q0 24 22 41q5 4 20 10q16 6 45 14q19 6 56 16
q1 7 3 20q2 8 5 26q4 19 7 38q6 38 11 51t16 22q8 6 24 8q15 3 27 0q7 -2 19 -12q11 -10 14 -19q4 -9 4 -21q-1 -11 -6 -43q-3 -16 -4 -27q-1 -10 0 -11q2 -3 49 6q46 9 50 13q1 1 5 25t8 56q9 70 12 87q4 18 11 27q7 10 19 15q13 5 25 5q6 0 12 -1q5 -1 10 -4zM272 422
q-2 -2 -4 -12q-2 -11 -4 -36q-2 -18 -3 -32v-11v-4q1 -1 3 -1q1 -1 2 -1q2 0 3 1q3 1 18 4q15 4 34 8q18 5 32 9t15 4q1 1 2 12q2 11 3 25t3 27q1 13 1 17q1 3 1 5t-1 3q0 3 -2 4h-1h-1q-11 -1 -54 -10q-42 -9 -47 -12z" />
    <glyph glyph-name="dollar" unicode="$" horiz-adv-x="409" 
d="M222 -82q-11 4 -19 12q-8 7 -12 16q-4 8 -5 18t-1 35v41l-21 12q-24 12 -33 30q-10 18 -3 38q9 28 33 36q24 7 56 -7q21 -10 35 -11q14 0 22 9q7 8 7 17t-7 23q-7 16 -29 36q-21 20 -61 47q-59 40 -88 67t-49 60q-18 29 -24 67q-3 18 -3 34q0 20 5 39q10 47 44 87t82 61
q6 3 19 9v40q0 34 4 46t18 24q8 6 13 7q5 2 19 2q13 0 19 -2q5 -1 12 -7q15 -11 19 -21q4 -11 5 -43q1 -17 3 -29q1 -11 3 -12q1 -2 10 -5t20 -7q32 -10 45 -25t10 -40q-2 -20 -17 -34q-15 -13 -35 -13q-5 0 -16 2q-10 2 -19 5q-40 13 -69 8q-30 -6 -55 -31q-14 -13 -20 -26
q-6 -14 -7 -32q-2 -35 21 -64q24 -29 95 -78q54 -36 83 -66q30 -29 45 -61q15 -35 15 -68q0 -21 -6 -41q-16 -53 -68 -80l-21 -12v-32q0 -28 -3 -41t-13 -24q-11 -13 -27 -17q-7 -2 -14 -2q-9 0 -17 3z" />
    <glyph glyph-name="percent" unicode="%" horiz-adv-x="656" 
d="M189 703q43 -10 72 -36q30 -27 41 -66q3 -9 4 -20q1 -6 1 -14q0 -6 -1 -12q0 -20 -2 -28q-2 -9 -10 -25q-22 -46 -67 -67q-28 -13 -57 -13q-18 0 -36 5q-40 11 -70 43q-31 31 -40 73q-4 14 -4 29q0 7 1 14q2 22 11 43q17 39 56 63q26 16 60 16q19 0 41 -5zM163 600h-3
q-13 0 -22 -11q-6 -6 -6 -16q0 -7 3 -15q5 -11 14 -18t19 -7q5 0 10 2q5 1 8 3q8 5 10 16q1 4 1 8q0 6 -2 11q-4 8 -13 17t-19 10zM149 46q-7 9 -10 20q-2 7 -2 14q0 4 1 8q1 8 22 58q22 51 48 110q18 40 35 77q17 38 29 63q16 32 39 80q24 48 41 83l32 64q15 28 18 31
q6 8 17 14t21 6h2q9 0 23 -6q16 -7 21 -14q6 -8 9 -17t3 -19v-2q0 -8 -7 -23q-6 -14 -30 -64q-15 -31 -38 -77t-40 -81q-20 -39 -44 -93q-25 -53 -49 -109q-11 -26 -19 -45t-14 -32q-13 -30 -18 -39q-5 -8 -11 -13q-12 -11 -25 -13q-4 -1 -8 -1q-10 0 -22 5q-9 3 -15 7t-9 8
zM509 301q43 -9 73 -36t41 -66q3 -9 4 -20v-14v-12q-1 -20 -3 -28q-2 -9 -10 -25q-21 -46 -66 -67q-28 -13 -57 -13q-18 0 -37 5q-40 11 -70 43t-40 73q-3 14 -3 29q0 7 1 14q2 22 11 44q16 38 56 62q25 16 60 16q18 0 40 -5zM483 198h-3q-12 0 -22 -10q-6 -7 -6 -16
q0 -7 3 -16q6 -11 15 -18q9 -6 18 -6q5 0 10 1q6 1 8 3q8 5 11 16q1 4 1 8q0 6 -3 12q-3 7 -12 16q-10 9 -20 10z" />
    <glyph glyph-name="ampersand" unicode="&#x26;" horiz-adv-x="532" 
d="M325 642q3 -8 4 -20q1 -11 1 -30q0 -45 -16 -92q-16 -48 -52 -111q-10 -17 -17 -30t-7 -14q0 -4 14 -23q15 -20 31 -40q14 -16 26 -28q11 -12 14 -13q4 0 29 28q24 29 55 68q14 19 27 25q12 7 30 4q30 -3 43 -28q5 -12 6 -24q0 -14 -8 -27q-7 -11 -32 -44
q-26 -33 -46 -56q-7 -8 -12 -15t-5 -8q-1 -4 7 -11q7 -6 38 -31q30 -24 40 -36q9 -12 11 -26q2 -28 -20 -47q-16 -13 -34 -13q-8 0 -16 2q-9 3 -19 10t-49 39q-17 14 -30 24t-14 10t-8 -4t-16 -11q-72 -49 -141 -51q-69 -1 -109 46q-16 19 -22 37q-5 17 -5 47q0 37 15 77
q15 39 51 96q6 9 18 28q-4 12 -12 35q-15 42 -19 68t-2 67q1 27 3 41t5 26q17 55 54 90q36 36 81 41q3 1 7 1h5h1q32 0 58 -21q25 -21 37 -56zM207 592q-8 -9 -15 -27q-7 -19 -8 -35q-2 -18 -2 -29q0 -12 2 -15l1 -1q4 0 13 21q13 29 19 57q4 18 4 27q0 5 -1 7t-2 2
q0 1 -1 1q-2 0 -4 -2zM170 241q-1 -1 -5 -6q-4 -6 -8 -13q-16 -29 -22 -55q-3 -11 -3 -18q0 -11 5 -15q5 -5 17 -4h8q19 2 38 10q9 4 18 9t13 8q3 2 9 7l-18 21q-8 9 -18 21q-10 11 -16 19q-6 7 -11 11q-5 5 -7 5v0v0z" />
    <glyph glyph-name="quotesingle" unicode="'" horiz-adv-x="226" 
d="M63 527q-6 5 -13 15q-6 10 -8 17q-1 4 -1 9q0 6 2 14q3 14 14 36q15 34 18 63t-5 70q-6 35 -1 53q6 19 25 30q12 6 25 6q6 0 11 -1q19 -4 32 -19q12 -13 19 -63q5 -32 5 -59q0 -16 -2 -30q-2 -27 -10 -53q-8 -25 -23 -55q-9 -19 -20 -29q-10 -10 -23 -13q-3 -1 -7 -1
q-7 0 -17 2q-16 3 -21 8z" />
    <glyph glyph-name="parenleft" unicode="(" horiz-adv-x="328" 
d="M236 -69q-11 3 -22 12q-10 8 -30 30q-60 66 -95 137q-36 70 -50 152q-7 40 -8 73v19q0 27 2 60q8 107 43 194t101 163q29 35 44 44q11 6 25 6q6 0 13 -1q20 -4 34 -23q13 -19 8 -38q-2 -7 -9 -17t-34 -40q-42 -49 -70 -112q-28 -62 -40 -136q-6 -35 -6 -89t6 -85
q13 -73 43 -131q30 -59 83 -116q17 -18 23 -27t8 -19v-8q0 -11 -6 -23q-9 -16 -24 -22q-11 -4 -21 -5h-6q-7 0 -12 2z" />
    <glyph glyph-name="parenright" unicode=")" horiz-adv-x="328" 
d="M62 -68q-15 6 -24 22q-7 12 -7 23q0 4 1 8q2 10 8 19t23 27q53 57 83 116q30 58 43 131q6 31 6 85t-6 89q-12 74 -40 136q-28 63 -70 112q-27 30 -34 40t-9 18q-5 18 8 37t34 23q6 1 13 1q14 0 24 -6q16 -9 45 -44q66 -76 101 -163q34 -87 43 -194q2 -33 2 -60v-19
q-2 -33 -8 -73q-14 -82 -50 -152q-35 -71 -96 -137q-20 -22 -30 -30t-21 -12q-5 -2 -12 -2h-6q-11 1 -21 5z" />
    <glyph glyph-name="asterisk" unicode="*" horiz-adv-x="409" 
d="M177 389q-10 5 -18 17q-9 11 -11 22q-1 7 -5 10q-4 2 -7 -3t-16 -10t-23 -5q-22 0 -37 15q-16 14 -18 35q-1 16 6 29q8 14 27 28q8 6 14 11q7 6 7 7q1 2 -13 7t-20 8q-29 15 -37 38q-4 11 -4 22q0 13 5 25q6 13 21 23t29 9q12 -1 25 -7q13 -5 20 -7q3 -1 4 4v25
q-1 19 0 27q1 7 5 15q12 23 38 29q6 1 12 1q19 0 34 -13q9 -8 14 -19q4 -12 7 -36q1 -12 3 -21t3 -10t8 4t16 12q18 14 31 19q14 5 26 2q11 -2 17 -6q6 -3 14 -11q7 -8 11 -17q3 -9 3 -20q0 -14 -8 -27q-8 -12 -28 -28q-10 -8 -16 -15q-7 -7 -6 -8t7 -5q7 -4 15 -8
q25 -13 34 -28q8 -12 8 -26q0 -5 -1 -10q-3 -19 -19 -32q-16 -14 -35 -14q-6 0 -15 3q-10 3 -20 8t-18 7q-7 3 -8 2t-1 -7v-13q0 -17 -5 -30q-6 -14 -17 -23q-11 -8 -29 -9q-3 -1 -7 -1q-13 0 -22 5z" />
    <glyph glyph-name="plus" unicode="+" 
d="M225 47q-2 0 -5 1l-6 2q-9 1 -20 11t-14 19q-2 4 -5 21q-2 17 -4 37q-2 21 -4 37q-2 17 -2 20q-1 2 -2 7q-16 -1 -49 -3q-35 -1 -44 0q-9 0 -19 5q-25 12 -30 40q-1 5 -1 10q1 21 17 37q10 11 23 14q13 4 41 4q11 0 24 1q13 0 19 1q4 1 14 2q-1 20 -1 61q-1 20 -1 60
q3 5 9 13q8 12 19 18t25 6t24 -4q10 -5 18 -13q9 -11 11 -25q3 -13 5 -55q0 -21 2 -37q1 -16 1 -17q1 -1 20 -1q18 -1 44 0q21 0 62 1q4 -3 11 -9q13 -9 18 -19t5 -25t-5 -26q-6 -11 -18 -20q-10 -7 -19 -8q-9 -2 -50 -4q-23 -1 -41 -2q-17 -2 -19 -3q-1 -1 -1 -11t2 -30
q6 -55 3 -74t-18 -30q-7 -5 -20 -9q-10 -3 -16 -3h-3z" />
    <glyph glyph-name="comma" unicode="," horiz-adv-x="226" 
d="M56 -149q-6 5 -12 15q-7 10 -8 17q-2 4 -2 9l2 14q4 14 14 37q16 33 18 62q3 29 -4 70q-7 35 -1 54q5 18 25 29q12 6 25 6q5 0 11 -1q19 -4 32 -19q12 -13 19 -63q4 -31 4 -59q0 -15 -1 -30q-3 -27 -11 -52q-8 -26 -23 -56q-9 -19 -19 -29q-10 -9 -23 -13q-3 -1 -8 -1
q-7 0 -16 2q-16 3 -22 8z" />
    <glyph glyph-name="hyphen" unicode="-" horiz-adv-x="348" 
d="M58 199q-18 9 -25 23q-7 11 -7 26q0 3 1 7q1 13 8 24t19 18q9 5 24 6q16 2 86 3q40 1 73 1h10h28q25 -4 40 -24q10 -14 10 -30q0 -7 -2 -14q-3 -11 -14 -23t-20 -15q-4 -1 -38 -3q-34 -1 -78 -2q-50 -1 -75 -1q-9 0 -15 1q-20 0 -25 3z" />
    <glyph glyph-name="period" unicode="." horiz-adv-x="185" 
d="M71 -1q-18 9 -26 24q-7 15 -7 42v1q0 14 1 20t7 14q14 21 42 23h6q23 0 39 -16q11 -12 15 -41q1 -8 1 -16q0 -17 -6 -28q-9 -17 -32 -25q-11 -3 -20 -3q-11 0 -20 5z" />
    <glyph glyph-name="slash" unicode="/" 
d="M26 21q-7 9 -9 20q-2 7 -2 13q0 4 1 9q2 8 24 58q23 49 50 108q19 39 37 76t31 63q10 19 33 65l46 94q15 32 28 59t21 41q18 35 33 62q15 28 19 31q6 8 17 14q12 5 22 5v0q9 0 24 -7q16 -7 21 -14q6 -8 8 -18q3 -8 3 -17v-3q-1 -9 -7 -23q-7 -14 -33 -63l-32 -64
q-22 -46 -45 -93q-15 -31 -28 -57l-20 -40q-20 -39 -46 -92t-51 -108q-12 -25 -21 -44q-8 -19 -14 -31q-15 -31 -20 -39t-10 -13q-13 -11 -27 -13h-6q-11 0 -23 5q-9 4 -15 7q-5 4 -9 9z" />
    <glyph glyph-name="zero" unicode="0" horiz-adv-x="430" 
d="M218 588q74 -18 121 -69q47 -50 64 -130q6 -29 7 -73v-4q0 -41 -6 -68q-12 -60 -37 -109q-26 -49 -61 -76q-30 -24 -65 -33q-20 -6 -40 -6q-15 0 -29 3t-34 13q-21 10 -35 21q-47 36 -68 110q-14 46 -13 96q0 31 4 62q8 51 27 96t53 93q8 10 14 22q7 11 8 17q4 13 12 22
q9 9 21 15q5 2 9 4q4 1 9 1h2q5 0 13 -1q9 -2 24 -6zM210 468q-8 -7 -24 -33q-17 -26 -26 -47q-13 -28 -19 -53q-6 -24 -8 -57v-18q0 -33 6 -57q7 -30 25 -50q14 -17 29 -21q4 -1 9 -1q10 0 23 6q28 14 50 61q21 47 24 102q1 9 1 17q0 46 -16 86q-20 46 -54 64q-5 3 -8 4
q-2 1 -4 1h-1q-2 0 -3 -1t-4 -3z" />
    <glyph glyph-name="one" unicode="1" horiz-adv-x="205" 
d="M68 -3q-12 5 -20 17q-9 11 -10 25t2 66q4 51 15 175q12 124 16 193q3 69 -1 74q-1 2 -4 3q-2 1 -4 0q-5 -2 -17 2q-13 4 -20 9q-9 7 -15 19t-6 26q0 19 12 33q11 13 38 27q13 6 20 8q8 2 22 2q19 0 32 -6q12 -6 26 -21q15 -18 20 -39t7 -74v-31v-31q-1 -30 -5 -77
q-2 -25 -5 -57q-2 -33 -6 -75q-4 -45 -9 -96l-6 -75t-4 -46q-3 -20 -4 -23q-3 -9 -11 -16q-7 -8 -17 -12q-12 -6 -23 -6t-23 6z" />
    <glyph glyph-name="two" unicode="2" horiz-adv-x="334" 
d="M143 0q-57 3 -88 18q-31 14 -47 45q-5 9 -6 17t-1 29q0 22 1 32q2 10 8 29q4 11 21 46q16 35 35 74q50 100 68 149t19 85v20q-1 6 -3 7q-2 0 -12 -8t-23 -21q-12 -13 -24 -23q-12 -11 -16 -12q-24 -11 -47 3q-24 14 -28 41v6q0 12 6 24q8 14 32 39q33 35 62 50
q28 16 60 16h1q54 0 83 -46q29 -47 19 -118q-6 -49 -26 -102q-20 -54 -67 -148q-37 -76 -49 -104t-8 -32q3 -3 33 -6q30 -2 78 -2q35 0 47 -1q11 -1 19 -5q10 -5 15 -11q6 -6 11 -17q4 -10 4 -21v-1q0 -11 -4 -20q-4 -10 -15 -19q-11 -10 -22 -13q-9 -3 -51 -3t-85 3z" />
    <glyph glyph-name="three" unicode="3" horiz-adv-x="328" 
d="M32 -9q-23 15 -25 40q-1 3 -1 6q0 22 17 38q7 8 16 12t36 11q54 15 83 33t35 39q1 5 -3 12q-5 6 -27 26q-31 30 -39 46q-9 16 -9 45q0 22 4 37t29 83q20 58 21 102q1 43 -18 47q-7 2 -24 -3q-16 -4 -32 -13q-12 -6 -19 -7q-6 -2 -18 -1q-24 2 -38 16q-13 14 -13 38
q0 20 9 31q10 12 38 25q30 15 52 20q17 4 37 4h11q23 -1 43 -9q19 -7 35 -21q43 -38 47 -111q4 -74 -33 -170q-5 -16 -11 -31q-5 -15 -7 -20q-1 -4 -4 -13q10 -10 30 -29q17 -17 25 -27t14 -21q12 -26 12 -52q0 -34 -20 -68q-36 -61 -116 -93q-26 -11 -62 -20
q-36 -10 -48 -10q-7 0 -14 2q-6 2 -13 6z" />
    <glyph glyph-name="four" unicode="4" horiz-adv-x="348" 
d="M227 0q-11 5 -20 15q-8 10 -10 21q-1 4 -1 24q1 19 2 42q2 23 4 57t3 58q2 24 2 42q1 18 0 19l-7 -3t-17 -8q-23 -12 -42 -17q-20 -4 -41 -3q-22 1 -38 8t-31 22q-11 13 -19 28q-7 16 -10 37q-2 16 -2 36q0 31 6 74q9 68 34 184q13 64 19 79q6 16 20 25q14 10 29 10
q13 0 26 -7q29 -15 29 -46q0 -5 -5 -29q-4 -24 -10 -53q-15 -70 -23 -113t-12 -77q-6 -50 -3 -60q3 -9 23 0q8 4 21 15q12 10 28 25q11 11 33 32q1 10 3 29q3 24 10 36q6 12 20 19q11 6 28 6q16 -1 27 -9q14 -9 20 -22q5 -13 5 -39t-4 -104t-9 -156q-4 -64 -8 -113
q-4 -48 -5 -53q-3 -8 -12 -18q-9 -9 -17 -13q-12 -5 -23 -5t-23 5z" />
    <glyph glyph-name="five" unicode="5" horiz-adv-x="430" 
d="M31 3q-7 4 -15 12t-12 15q-4 8 -4 21v4q1 15 7 26q8 15 22 21q14 5 50 6q50 2 80 13q31 11 55 36q38 38 42 83t-28 77q-5 5 -19 14q-14 10 -28 19q-43 27 -66 53q-23 25 -36 60q-9 23 -12 55q-4 32 -5 87v68q2 4 8 13q3 5 9 10q6 6 11 8q7 3 16 5q8 1 43 1h3h33
q22 0 52 -1h51q21 0 37 -1q35 0 43 -2q9 -1 17 -5q18 -9 27 -28q5 -11 5 -23q0 -8 -3 -16q-3 -10 -15 -21t-22 -13q-4 -1 -33 -1q-30 -1 -67 0t-65 1h-31q-7 -1 -9 -10q-1 -8 2 -37q4 -47 15 -65q10 -19 46 -41q44 -27 66 -47q22 -21 37 -46q32 -53 29 -115t-39 -117
q-20 -31 -46 -54q-27 -24 -62 -40q-33 -16 -57 -21q-25 -6 -72 -7h-26h-16q-14 1 -18 3z" />
    <glyph glyph-name="six" unicode="6" horiz-adv-x="369" 
d="M292 663q-1 -10 -6 -20q-4 -10 -21 -35q-41 -65 -68 -118q-28 -53 -46 -105q-10 -26 -13 -37q-2 -10 0 -10q1 0 8 2q7 3 17 6q15 5 24 6q10 1 29 1q21 -1 29 -3t22 -9q27 -13 47 -38q19 -25 27 -58q2 -7 3 -20t1 -24v-2q-1 -59 -30 -110t-77 -75q-18 -9 -44 -13
q-11 -1 -21 -1q-14 0 -27 3q-16 3 -37 14q-22 11 -36 24q-67 61 -67 177q0 22 3 46q15 150 120 332q20 36 41 67q20 32 28 41t18 13t20 5h3q21 0 38 -16t15 -43zM164 218q-13 -12 -26 -31t-13 -25q0 -2 2 -8q3 -6 7 -13q11 -20 26 -27q7 -3 15 -3q7 -1 15 4q19 9 31 33
q13 24 13 52v2q0 17 -4 27q-4 9 -14 14h-2q-1 1 -2 1h-1q-8 0 -22 -7q-14 -8 -25 -19z" />
    <glyph glyph-name="seven" unicode="7" horiz-adv-x="348" 
d="M88 58l8 26l8 28q11 38 27 92q17 55 28 92q26 84 39 130t18 70q4 23 5 43q1 21 -3 26q-6 6 -53 5q-47 0 -84 1q-27 2 -40 3q-13 2 -18 5q-22 11 -27 38q-1 6 -1 12q-1 20 12 34q12 13 27 17q10 2 32 2h23q58 -3 120 -9t84 -27q23 -22 31 -47q7 -22 7 -54v-13
q-1 -27 -6 -53q-5 -25 -20 -80q-8 -30 -21 -71q-12 -41 -30 -99q-12 -40 -29 -97t-29 -98l-1 -1v-2q-3 -8 -8 -14t-11 -9q-12 -6 -26 -6q-16 0 -36 9q-35 17 -26 47z" />
    <glyph glyph-name="eight" unicode="8" 
d="M304 699q56 -20 88 -71t35 -123v-13q0 -52 -16 -109q-18 -66 -54 -132q-18 -34 -20 -40q-1 -6 7 -19q34 -52 24 -103t-60 -81q-18 -10 -37 -16q-20 -7 -40 -9h-10q-14 0 -35 3q-29 4 -43 9q-53 20 -84 63q-31 42 -32 97q-1 30 11 69q13 38 34 73q5 7 8 13q3 5 3 6l-4 7
q-4 6 -11 13q-36 47 -51 93q-10 31 -10 62q0 15 2 29q4 25 10 42q7 18 19 37q28 46 78 76t105 35q5 1 11 1q4 0 9 -1q11 0 23 -2q11 -1 22 -3q11 -3 18 -6zM123 530q-6 -18 -6 -37q0 -6 1 -13q2 -26 16 -54q9 -17 33 -46t53 -56q20 -19 28 -25q5 -4 8 -4h1q2 2 7 10t9 19
q14 30 22 53q8 24 14 51q7 35 7 66q0 23 -3 43q-10 49 -38 68q-6 5 -13 7t-15 3q-4 1 -9 1q-30 0 -63 -22q-37 -25 -52 -64zM163 234q-6 -1 -12 -18t-10 -42q-4 -21 -4 -28l1 -1q0 -7 5 -20q10 -27 34 -39q16 -8 33 -8q10 0 20 2q12 3 20 10q7 7 9 17v7q0 17 -14 38
q-17 25 -64 70q-5 5 -10 8t-7 4h-1v0z" />
    <glyph glyph-name="nine" unicode="9" 
d="M425 724q4 -8 5 -15v-3q0 -12 -4 -59q-1 -18 -4 -44q-2 -25 -5 -59q-12 -135 -22 -224q-11 -89 -24 -150q-7 -34 -15 -61q-8 -28 -17 -53q-4 -8 -12 -26t-17 -34q-12 -24 -18 -34q-7 -9 -14 -14q-12 -8 -26 -9h-6q-11 -1 -21 4q-17 8 -26 25q-10 17 -7 32q1 4 6 15
q5 12 12 24q18 35 28 64q11 29 21 74q5 24 11 55q5 32 12 75q2 9 -2 9q-4 -1 -19 -10q-25 -17 -57 -27q-31 -10 -56 -10q-49 0 -89 29q-40 28 -55 72q-6 17 -6 45v2q0 27 5 46q18 65 72 117q54 51 127 74q19 5 46 10q28 4 45 4q6 0 12 1t8 1q1 1 3 8q1 6 2 14q2 19 7 30
t14 19q8 7 17 11q9 3 19 3h2q14 0 27 -7q13 -8 21 -24zM158 508q-39 -35 -48 -74q-2 -10 -2 -18q0 -25 21 -34q7 -3 18 -3h8q17 2 31 9q30 15 58 53q27 37 45 88q6 19 6 25v0q0 6 -8 6q-29 0 -68 -16q-38 -15 -61 -36z" />
    <glyph glyph-name="colon" unicode=":" horiz-adv-x="185" 
d="M70 0q-18 9 -25 24q-8 15 -8 42v1q0 15 2 20q1 6 7 14q14 21 42 23h5q24 1 39 -16q12 -12 15 -40q1 -9 1 -16q0 -18 -5 -29q-9 -17 -32 -24q-11 -4 -20 -4q-11 0 -21 5zM66 455q-18 9 -26 24q-7 15 -7 42v1q0 14 1 20q2 6 7 14q14 21 42 23h6q23 0 39 -16q11 -12 15 -41
q1 -8 1 -15q0 -18 -6 -29q-9 -17 -32 -25q-11 -3 -20 -3q-11 0 -20 5z" />
    <glyph glyph-name="semicolon" unicode=";" horiz-adv-x="205" 
d="M42 -169q-6 5 -12 15q-7 10 -8 17q-2 4 -2 9q1 6 3 14q3 14 13 36q16 33 19 62q2 29 -5 71q-7 34 -1 53q5 19 25 29q12 7 25 7q5 0 11 -2q19 -3 32 -18q12 -14 19 -63q4 -32 4 -59q0 -16 -1 -30q-3 -28 -11 -53t-23 -56q-9 -18 -19 -28t-23 -13q-3 -1 -8 -1q-7 0 -16 2
q-16 3 -22 8zM70 451q-18 9 -25 24t-8 41v2q1 14 2 20t7 14q14 20 42 23h5q24 0 40 -16q11 -12 14 -41q1 -8 1 -16q0 -17 -5 -28q-9 -17 -32 -25q-11 -3 -20 -3q-11 0 -21 5z" />
    <glyph glyph-name="less" unicode="&#x3c;" horiz-adv-x="369" 
d="M256 28q-10 5 -37 35q-28 29 -61 68q-18 20 -36 42t-34 42q-14 18 -27 35q-14 16 -20 23q-6 6 -11 13t-7 10q-3 8 -3 19q0 1 1 3q0 13 5 21q2 4 17 22q15 17 35 38q40 43 75 83t68 80q27 33 40 43q12 7 27 7h5q26 -2 40 -23q10 -14 10 -30q0 -7 -2 -15q-3 -13 -44 -63
t-107 -123q-15 -16 -26 -29q-11 -12 -11 -13q-1 -3 20 -30q20 -27 49 -60q15 -19 31 -37t31 -34q34 -37 43 -50q8 -13 8 -28q0 -7 -1 -14t-3 -10q-4 -9 -13 -17t-17 -11t-19 -3h-5q-14 1 -21 6z" />
    <glyph glyph-name="equal" unicode="=" horiz-adv-x="430" 
d="M72 106q-17 9 -25 23q-6 11 -6 26v7q2 13 9 24t19 18q9 5 24 6t86 3q14 0 31 1h35h45h17h31q26 -4 40 -24q10 -14 10 -30q0 -7 -2 -14q-3 -11 -14 -23q-10 -12 -20 -15q-2 -1 -31 -2q-28 -1 -62 -1q-19 -1 -38 -1q-18 0 -33 -1q-51 -1 -75 -1q-10 0 -15 1q-20 0 -26 3z
M72 293q-17 9 -25 23q-6 11 -6 26v7q2 13 9 24t19 18q9 5 24 6t86 3q14 0 31 1h35h45h17q27 0 31 -1q26 -3 40 -23q10 -14 10 -30q0 -7 -2 -14q-3 -11 -14 -23q-10 -12 -20 -15q-2 -1 -31 -2q-28 -1 -62 -1q-19 -1 -38 -1q-18 -1 -33 -1q-51 -1 -75 -1h-15q-20 1 -26 4z" />
    <glyph glyph-name="greater" unicode="&#x3e;" horiz-adv-x="369" 
d="M66 20q-7 3 -16 12q-9 8 -13 16q-2 3 -3 10q-2 8 -2 14q0 15 9 28q8 13 43 51q15 15 31 33q16 19 31 37q28 34 49 60q21 27 20 30q-1 1 -12 14q-11 12 -26 29q-66 72 -106 122q-41 51 -45 64q-2 7 -2 14q0 16 10 30q15 21 40 23q3 1 6 1q15 0 26 -8q14 -9 41 -42
q33 -41 68 -81q35 -39 75 -83q19 -20 35 -38q15 -18 17 -22q4 -8 5 -20v-4q0 -11 -3 -18q-1 -4 -6 -10q-5 -7 -11 -14q-6 -6 -20 -23t-27 -34q-16 -21 -34 -43t-36 -42q-33 -39 -61 -68t-37 -35q-8 -5 -22 -6h-4q-11 0 -20 3z" />
    <glyph glyph-name="question" unicode="?" horiz-adv-x="369" 
d="M94 0q-24 7 -34 31q-5 12 -5 23q0 12 6 23q5 11 11 16q6 6 17 10q11 5 22 5q6 0 11 -1q16 -4 28 -18q16 -17 16 -36q0 -15 -10 -30q-17 -26 -43 -26q-9 0 -19 3zM97 143q-16 7 -26 20q-9 13 -9 32q0 22 24 78q23 56 62 127q13 24 27 51t21 41q25 51 35 95q11 44 6 74
q-6 31 -21 35t-38 -20q-13 -14 -21 -31q-8 -16 -17 -46q-7 -27 -14 -38q-6 -11 -19 -17q-26 -13 -52 0q-26 14 -28 43v4q0 23 16 66q17 48 37 74q30 40 65 59q32 17 69 17h7q26 -1 45 -10t37 -28q23 -24 34 -56q11 -31 11 -73q0 -59 -20 -118q-21 -60 -75 -158
q-31 -57 -44 -85q-14 -28 -27 -63q-6 -18 -12 -32q-6 -15 -8 -19q-7 -14 -27 -21q-11 -4 -21 -4q-9 0 -17 3z" />
    <glyph glyph-name="at" unicode="@" horiz-adv-x="717" 
d="M606 640q29 -30 50 -67q21 -36 32 -78q6 -21 7 -34t1 -49v-1q0 -41 -3 -63t-14 -53q-31 -87 -95 -115t-118 22q-7 7 -14 17q-8 10 -12 18t-8 14q-3 5 -4 5t-6 -4q-6 -5 -13 -12t-17 -14q-11 -8 -20 -12q-14 -7 -22 -9q-7 -1 -29 -1q-23 0 -30 1q-7 2 -20 8q-14 8 -30 23
t-25 29q-8 15 -13 36t-5 42q0 32 9 61q10 29 29 53q39 51 96 60q57 10 109 -25q18 -12 40 -33t27 -30q2 -4 4 -17t4 -27q4 -44 12 -73t16 -29q4 0 13 13t15 27q9 21 12 44q4 24 3 54q-2 31 -6 50q-5 19 -17 42q-20 39 -56 67q-37 29 -83 41q-22 6 -58 6q-37 -1 -59 -7
q-105 -30 -151 -125q-47 -95 -15 -215q11 -41 36 -83t52 -66q6 -4 18 -14l26 -18q26 -19 34 -30q8 -10 8 -29q0 -23 -16 -38q-15 -16 -39 -16q-8 0 -15 3q-7 2 -18 9q-80 48 -129 117q-49 70 -70 165q-4 18 -5 35q-2 17 -2 57v1q0 41 1 56q2 15 6 34q14 54 37 96t58 77
q51 50 114 75q63 26 128 26h4q63 0 124 -24q63 -24 112 -73zM312 321q5 -7 11 -7h1q6 1 16 12q7 9 22 39q15 29 15 34q0 3 -8 7q-8 3 -15 3q-23 0 -39 -33q-9 -19 -9 -33q0 -12 6 -22z" />
    <glyph glyph-name="A" unicode="A" horiz-adv-x="430" 
d="M275 763q14 -4 29 -17t22 -28q11 -24 20 -65q10 -41 20 -109q5 -30 11 -72q5 -41 10 -89q10 -87 17 -178q8 -92 11 -151v-24q0 -19 -2 -26q-3 -10 -19 -21q-6 -4 -12 -6t-16 -2h-5h-9q-8 1 -11 2q-7 2 -16 9t-13 14q-2 4 -4 21t-4 53q-5 83 -7 105q-2 23 -4 28q-2 4 -9 5
h-47h-39q-16 -1 -18 -2q-1 0 -5 -23t-8 -50q-3 -19 -6 -36q-2 -17 -3 -27q-3 -23 -6 -41t-5 -21q-6 -13 -24 -21q-17 -8 -34 -5q-20 3 -33 16q-12 13 -12 30q0 5 1 21q1 15 3 32q2 13 4 29q2 17 3 34q3 24 3 43t-6 18q-1 -1 -5 -1h-8q-30 -1 -39 27q-4 10 -4 19q0 16 10 30
q6 6 15 11q8 5 20 6q17 1 25 2t10 2q1 1 3 10t4 20q5 39 12 79q8 40 16 78q16 72 34 131q19 59 35 89q14 25 33 38q19 14 41 15h3q4 0 8 -1q5 0 10 -1zM192 308q2 -4 9 -4h4q10 0 34 1q18 1 31 1q13 1 14 2v2q0 7 -3 35l-9 81q-4 31 -8 60t-7 50t-6 31q-2 10 -4 10
q-3 -1 -12 -34q-8 -34 -17 -77q-12 -53 -20 -103q-6 -38 -6 -50v-5z" />
    <glyph glyph-name="B" unicode="B" horiz-adv-x="369" 
d="M176 770q55 -21 98 -69q44 -47 64 -107q13 -39 13 -78q0 -26 -6 -51q-15 -63 -63 -108q-9 -9 -23 -19q-13 -10 -23 -16q-9 -5 -16 -10q-7 -4 -7 -5t5 -5t12 -10q18 -13 36 -32q19 -20 30 -38q42 -62 28 -129q-14 -66 -74 -93q-13 -5 -21 -7q-8 -1 -26 -2h-8q-9 0 -16 1
q-9 0 -16 3q-42 13 -71 51t-47 103q-19 69 -30 186q-10 117 -13 286q-1 30 -2 89q0 28 30 46q31 17 69 21q11 2 22 2q9 0 18 -1q21 -2 37 -8zM113 680q-2 -2 -3 -20v-5q0 -20 2 -65q1 -44 3 -90t4 -76q1 -17 2 -27t1 -11q1 -3 4 -3h1q4 1 25 9q22 10 41 25t29 31
q19 31 18 68q0 12 -2 24q-8 52 -45 96q-17 19 -39 33q-21 13 -34 14q-2 0 -4 -1t-3 -2zM142 227v-3q0 -6 3 -21q4 -22 10 -41q8 -24 15 -39q6 -14 14 -23q8 -11 15 -11q6 0 12 11q5 8 5 22v7q-1 20 -9 35q-10 17 -33 40q-22 22 -30 23v0h-1h-1z" />
    <glyph glyph-name="C" unicode="C" horiz-adv-x="410" 
d="M153 -20q-28 8 -54 30t-44 54q-27 50 -42 121q-14 71 -14 160v1q0 136 31 237q31 100 84 138q17 12 35 18q17 6 38 6h1q15 0 22 -2q8 -1 21 -7q29 -12 51 -40t32 -65q6 -21 8 -63t-2 -70q-5 -35 -12 -61t-14 -33q-16 -17 -39 -19t-41 13q-14 12 -16 25t7 53q10 48 8 93
q-2 44 -17 66q-2 4 -6 7q-3 3 -5 3q-4 0 -14 -13t-19 -31q-14 -30 -24 -73t-15 -96q-2 -24 -2 -66q0 -41 1 -79q1 -20 3 -37q1 -17 3 -27q11 -64 32 -108q22 -44 42 -44q17 0 38 24q21 25 41 68q6 13 12 25t9 16q23 27 60 16t37 -45q0 -11 -12 -40q-13 -30 -29 -57
q-21 -34 -50 -60t-59 -36q-18 -6 -43 -7h-6q-21 0 -37 5z" />
    <glyph glyph-name="D" unicode="D" horiz-adv-x="430" 
d="M57 739q23 -1 51 -5q29 -4 51 -10q92 -22 156 -84q63 -61 86 -151q6 -24 8 -60q1 -13 1 -25q0 -21 -3 -37q-12 -90 -71 -173q-59 -82 -155 -146q-48 -32 -73 -42q-16 -6 -28 -6q-9 0 -16 3q-10 3 -18 9t-13 13q-4 7 -5 33q-2 25 -3 117q-1 84 -3 187q-3 102 -5 187
q-1 33 -4 99q-3 5 -10 15q-8 13 -10 23v3q0 8 4 18q7 15 20 23q12 8 30 9q2 1 5 1t5 -1zM130 399q2 -54 3 -110t1 -81q1 -25 1 -43q1 -19 2 -20q0 -1 1 -1q2 0 5 2q4 3 21 16q62 51 98 115q36 65 38 129v7q0 53 -27 104q-28 55 -75 83q-15 9 -38 19q-23 9 -30 9v0
q-3 0 -3 -12q-1 -5 -1 -19q0 -15 1 -39q0 -26 1 -65q1 -38 2 -94z" />
    <glyph glyph-name="E" unicode="E" 
d="M117 -3q-35 8 -60 33q-26 25 -39 62q-10 30 -14 62t-4 87v2q0 72 10 153q9 80 30 191q6 30 10 51t8 35q6 26 10 35q5 9 12 15q9 7 19 10t51 4h42h42h17h62h43q41 -1 51 -5q10 -5 19 -16q6 -6 7 -11q1 -6 1 -19t-1 -18t-7 -12q-9 -10 -17 -14t-42 -5q-15 -1 -36 -1t-51 -1
q-39 0 -118 -1q-1 -6 -4 -17t-6 -31q-4 -19 -8 -39q-5 -31 -9 -57t-4 -27q1 -3 12 -3q10 -1 41 -1q36 0 46 -1q9 -1 18 -5q12 -7 19 -18q7 -12 7 -25t-4 -22q-4 -8 -15 -17q-10 -8 -22 -10q-12 -1 -62 -3q-18 -1 -54 -2q-1 -4 -3 -11q0 -5 -2 -28q-1 -22 -2 -50
q-1 -54 2 -89q3 -34 12 -57q8 -20 15 -24q8 -4 27 2q27 9 59 39q33 31 73 86q11 15 22 22q12 6 28 6q26 0 42 -18t12 -41q-2 -9 -24 -40q-22 -30 -46 -57q-42 -48 -87 -73q-46 -26 -90 -29h-9q-6 0 -12 1q-11 0 -17 2z" />
    <glyph glyph-name="F" unicode="F" horiz-adv-x="389" 
d="M132 -41q-9 4 -17 11t-11 14q-1 3 -9 38q-7 36 -16 80q-6 29 -11 57q-5 29 -9 48q-2 11 -4 26q-2 16 -5 33q-3 26 -6 48q-3 23 -3 27q0 2 -3 5q-3 2 -7 4q-17 8 -25 19t-8 26q0 12 5 21t15 16q16 11 18 15q2 5 2 26q0 42 8 89q9 48 22 84q24 64 66 104q43 41 99 55
q23 5 55 5q15 0 31 -1q51 -3 69 -15q9 -6 15 -17q7 -12 7 -22t-7 -21q-6 -11 -16 -17q-9 -7 -18 -7q-8 -1 -72 1q-25 0 -33 -1t-20 -6q-31 -13 -54 -52q-22 -38 -33 -95q-5 -25 -8 -63q-3 -37 -1 -40q1 -1 22 -1q20 0 54 2q35 1 57 1t26 -1q18 -5 29 -17q11 -13 11 -30
t-11 -29q-10 -13 -28 -17q-4 -1 -28 -3q-24 -1 -53 -2q-31 -1 -51 -3q-21 -1 -22 -3q-5 -4 5 -69q9 -65 32 -178q7 -38 13 -68q5 -30 5 -34q0 -8 -5 -19q-5 -10 -12 -16q-12 -9 -29 -11q-6 -1 -11 -1q-11 0 -20 4z" />
    <glyph glyph-name="G" unicode="G" horiz-adv-x="512" 
d="M195 0q-18 4 -34 11q-15 6 -31 17q-46 31 -76 87q-30 55 -46 141q-2 12 -4 29t-3 37q-1 28 -1 58v16q1 39 4 63q7 50 19 90t32 76q15 28 31 48t38 39q32 28 63 40q30 12 67 12h2q25 0 43 -5q18 -4 39 -16q16 -10 36 -27t23 -25q6 -13 3 -29t-13 -26q-6 -6 -18 -11
q-13 -5 -22 -5q-12 0 -21 4q-10 4 -27 17q-16 13 -25 17q-10 4 -22 4q-13 0 -28 -8q-14 -8 -32 -26q-35 -33 -55 -86q-20 -52 -27 -129q-7 -84 13 -167q19 -83 55 -121q33 -34 83 -23q51 11 84 59q24 34 28 70q4 35 -11 84q-2 8 -5 15t-5 8q-2 2 -14 -1q-11 -2 -45 -14
q-49 -17 -66 -19q-18 -2 -33 8q-12 8 -18 18q-5 11 -5 24q0 12 4 22q5 10 14 17q6 5 47 20q40 15 85 29q36 12 66 20q30 9 38 9q36 0 50 -30q13 -30 -11 -58q-2 -2 -7 -8q3 -8 8 -24q11 -33 15 -54q3 -21 4 -50v-2q0 -28 -4 -48q-4 -21 -16 -47q-20 -47 -60 -85
q-41 -38 -90 -56q-27 -10 -60 -13h-19q-22 0 -40 4z" />
    <glyph glyph-name="H" unicode="H" 
d="M36 -41q-10 4 -17 10q-8 6 -13 14q-6 10 -6 112v32q1 132 10 350q2 42 4 72q2 29 2 58q1 30 3 55q1 25 2 31q4 19 23 31q18 12 38 9q13 -3 24 -10q12 -7 17 -17t5 -20q1 -11 -1 -63q0 -29 -2 -59q-2 -29 -4 -71t-3 -76t-1 -40v-13q12 1 38 2q59 3 99 5q41 2 42 3v40
q1 39 1 93q0 126 3 192q2 66 7 78q11 25 40 30q7 2 13 2q22 -1 38 -16q11 -11 13 -25t0 -68q-1 -23 -2 -56q-1 -32 -1 -70q-1 -69 0 -139q1 -71 3 -106q3 -59 8 -110t13 -108q10 -71 11 -87v-2q0 -15 -6 -24q-16 -24 -47 -25q-30 -1 -46 23q-5 7 -8 18q-3 12 -8 43
q-8 57 -13 93q-4 36 -8 73q-1 19 -3 33t-4 15q-1 2 -22 1q-22 0 -67 -3q-36 -1 -63 -3t-29 -2q-2 -1 -4 -4t-2 -6q-1 -4 -2 -43v-92v-47v-34q-1 -33 -2 -42t-4 -14q-9 -16 -30 -23q-11 -4 -21 -4q-9 0 -18 4z" />
    <glyph glyph-name="I" unicode="I" horiz-adv-x="267" 
d="M161 25q-10 4 -16 9q-6 6 -12 16q-3 6 -4 14t-1 39q0 14 1 33v46q1 49 3 65q2 15 4 55q5 119 4 192t-9 108q-4 18 -7 20q-4 2 -20 -4q-31 -11 -39 -13q-9 -2 -19 0q-7 1 -13 4q-6 2 -12 7q-21 17 -21 39q0 4 1 9q5 26 37 41q27 13 45 17q17 5 44 5h1q22 0 29 -1
q8 -2 18 -7q16 -8 30 -23t22 -34q18 -41 22 -116q2 -30 2 -71q0 -65 -4 -158q-2 -40 -4 -57q-2 -16 -3 -67q0 -51 -2 -90q-1 -39 -2 -44q-3 -10 -12 -20q-10 -11 -20 -15q-9 -4 -20 -4h-1q-12 1 -22 5z" />
    <glyph glyph-name="J" unicode="J" horiz-adv-x="471" 
d="M211 -41q-71 14 -128 70q-57 57 -78 134q-6 25 -7 58v7q0 28 5 48q14 55 54 86t91 26q17 -1 41 -8q24 -8 35 -15q14 -9 20 -27q6 -19 0 -35q-3 -6 -11 -15t-14 -12q-12 -6 -23 -6t-31 6q-25 7 -33 5q-9 -2 -17 -18q-11 -22 -5 -58q5 -37 25 -68q23 -37 61 -58
q39 -22 66 -14q33 9 49 60q17 50 23 163q2 27 3 72q1 46 1 95q1 75 0 139q-1 63 -3 67q-4 7 -16 6q-12 0 -45 -9q-39 -11 -56 -10t-31 16q-8 8 -11 16q-4 9 -4 20q0 20 12 33t40 22q39 12 57 15q17 3 47 3h4q21 0 29 -1q9 -1 18 -5q14 -6 27 -17t20 -23q11 -19 16 -42
q6 -23 8 -69q1 -24 1 -57t-1 -77q-2 -118 -5 -191q-4 -72 -11 -119q-3 -26 -8 -46q-5 -21 -11 -39q-10 -28 -22 -47q-12 -20 -31 -38q-30 -30 -69 -40q-21 -7 -45 -7q-18 0 -37 4z" />
    <glyph glyph-name="K" unicode="K" horiz-adv-x="512" 
d="M94 -61q-12 2 -18 4q-5 3 -13 10q-11 10 -15 21q-3 11 -8 46q-16 136 -26 281q-10 146 -15 304q-1 31 -1 53q-1 22 -1 37v8q0 29 2 38q3 9 10 19q10 12 28 17q8 2 16 2q9 0 18 -3q8 -3 16 -12q9 -8 14 -17q2 -4 4 -14q1 -10 2 -25q0 -12 1 -52q1 -39 3 -83q2 -90 6 -147
q3 -56 5 -59q1 -1 8 10q8 11 17 28q15 28 34 61t38 65q37 60 67 108q31 49 38 54q6 6 18 10q11 4 19 4q7 0 19 -7q12 -6 19 -13q10 -11 13 -26q4 -14 -2 -28q-1 -3 -13 -24q-12 -20 -28 -46q-23 -36 -46 -76q-24 -39 -46 -77q-41 -71 -70 -124q-28 -53 -27 -57q1 -2 19 -4
q17 -1 60 -3q113 -6 154 -10q41 -3 51 -9q18 -10 25 -30q3 -10 3 -19q0 -10 -5 -21q-4 -10 -15 -19q-11 -10 -21 -12h-32q-27 1 -61 3q-115 7 -164 9t-50 0q-1 -1 0 -19q1 -19 4 -44q5 -49 5 -64q-1 -15 -10 -27q-7 -11 -22 -17q-11 -5 -20 -5q-4 0 -7 1z" />
    <glyph glyph-name="L" unicode="L" horiz-adv-x="369" 
d="M119 -19q-44 12 -71 50q-27 39 -40 109q-6 35 -8 133v42q0 77 4 159q2 43 4 93q1 49 2 77q2 55 5 72q4 17 16 28q16 14 35 14q7 0 14 -2q26 -6 38 -34q3 -8 4 -26q0 -18 -2 -84q-2 -40 -3 -85l-3 -69q-5 -87 -5 -139q-1 -52 1 -91q4 -61 13 -97q9 -35 23 -41q12 -6 36 6
q25 11 63 42q27 23 37 28t24 5q16 0 30 -9q15 -10 20 -25q3 -8 3 -18v-6q-1 -13 -6 -23q-5 -9 -31 -31q-26 -23 -49 -39q-41 -27 -81 -38q-22 -5 -41 -5q-17 0 -32 4z" />
    <glyph glyph-name="M" unicode="M" horiz-adv-x="615" 
d="M35 -10q-11 4 -21 15q-9 11 -12 23q-2 5 -2 41q0 13 1 29q0 62 2 144q1 65 3 131q3 66 5 115q1 27 2 46t2 29q5 43 11 77q7 33 13 50q11 24 28 37t40 12q34 -1 58 -35t65 -141q25 -66 38 -97q12 -30 16 -34q3 -3 4 -3q1 -1 3 2q4 6 16 37q11 31 25 72q13 40 24 71
q10 30 18 52q16 42 26 61t21 31q22 22 50 23q29 0 50 -23q25 -27 39 -113t22 -258q4 -78 6 -149q1 -68 1 -113v-5v-42q-1 -16 -2 -20q-7 -22 -30 -33q-22 -10 -44 -1q-9 4 -19 14q-9 10 -11 18q-1 4 -3 30q-1 27 -1 60q-1 93 -5 188t-9 166q-3 40 -4 51q-2 12 -5 9
q-1 -1 -7 -19q-7 -17 -15 -41q-20 -59 -31 -85q-10 -27 -24 -53q-20 -37 -42 -53q-22 -17 -49 -17q-40 1 -70 38q-29 36 -67 134q-10 24 -17 41q-8 18 -9 18q-4 0 -6 -60q-3 -60 -6 -216q-2 -75 -5 -224q-2 -3 -8 -11q-6 -9 -21 -17q-14 -7 -23 -7h-1q-3 0 -9 1q-6 2 -11 4z
" />
    <glyph glyph-name="N" unicode="N" horiz-adv-x="512" 
d="M39 0q-15 9 -20 23q-6 14 -8 50q-3 34 -4 113q-2 75 -2 150v6q0 42 1 79q0 36 1 60q5 102 10 135q6 32 24 48q21 20 48 15t43 -32q9 -15 17 -42q8 -28 31 -116q24 -92 37 -139q14 -47 28 -81q14 -37 37 -69t28 -32q4 0 11 16q6 16 14 45q18 70 28 170q11 100 17 245
q2 61 5 75q2 14 14 26q12 11 28 13q5 1 11 1q10 0 20 -4t20 -15q9 -12 11 -22q2 -8 2 -30q0 -18 -1 -44q-2 -60 -6 -129q-3 -37 -6 -72t-6 -63q-20 -176 -57 -255q-38 -79 -102 -79q-47 0 -97 56q-51 57 -84 154q-5 13 -9 22q-4 10 -5 10q-3 0 -2 -50q0 -50 3 -122
q1 -27 4 -82q-3 -5 -7 -13q-11 -20 -34 -27q-8 -2 -15 -2q-15 0 -28 8z" />
    <glyph glyph-name="O" unicode="O" 
d="M193 694q12 -3 20 -10t16 -20q4 -7 8 -10t16 -5q79 -18 130 -103q52 -85 52 -199q0 -79 -25 -146t-72 -116q-30 -30 -61 -46q-32 -15 -67 -17h-9q-7 0 -15 1q-11 1 -19 3q-23 5 -41 17q-18 11 -38 30q-39 40 -57 95q-17 55 -17 135v2q0 76 16 144q16 67 51 137
q15 31 36 63t30 39q6 4 14 6t16 2h8zM185 540q-9 -5 -25 -47q-16 -41 -25 -82q-12 -55 -12 -106q0 -24 3 -47q8 -72 38 -106q14 -15 30 -19q4 -1 9 -1q11 0 24 6q28 13 52 50q24 36 37 85q7 27 8 55q1 8 1 15q0 21 -3 42q-7 52 -28 94q-22 42 -53 57q-8 3 -18 5t-19 2h-1
q-5 0 -10 -1t-8 -2z" />
    <glyph glyph-name="P" unicode="P" horiz-adv-x="430" 
d="M59 798q135 -6 222 -64q87 -59 118 -165q8 -25 10 -65q1 -13 1 -25q0 -24 -3 -42q-9 -54 -37 -107t-71 -94q-27 -27 -65 -50q-38 -24 -72 -34l-14 -4q-6 -3 -8 -5t-2 -18t2 -68q3 -67 1 -85q-1 -17 -12 -28q-10 -12 -24 -16q-8 -3 -16 -3q-7 0 -13 2q-5 1 -12 4
q-6 3 -10 6q-13 10 -17 26q-4 17 -7 80q-2 41 -4 93q-2 51 -4 107q-3 104 -6 205q-2 101 -2 156q0 31 -1 54q0 23 -1 25t-6 6q-5 3 -11 6q-28 11 -32 41q-1 5 0 10q0 23 19 40q8 7 17 10q8 3 28 3h1h13q8 -1 18 -1zM126 678q-3 -1 -3 -12v-11v-40q1 -25 2 -85q2 -60 3 -119
q2 -60 3 -103t2 -44q1 -2 5 -2q1 0 3 1q6 1 18 7q20 10 37 23t34 31q65 68 69 153q1 6 1 12q0 77 -54 131q-7 7 -19 17q-12 9 -22 14q-16 9 -42 18q-25 9 -34 9h-1h-1h-1z" />
    <glyph glyph-name="Q" unicode="Q" horiz-adv-x="553" 
d="M360 736q68 -30 110 -98q43 -68 53 -162q3 -24 3 -48q0 -70 -22 -142q-29 -98 -88 -170q-7 -9 -13 -16t-7 -9q-3 -4 4 -16q8 -12 27 -35q25 -29 30 -39q6 -9 6 -22q0 -22 -15 -37q-15 -14 -38 -14q-6 0 -13 1t-10 3q-10 4 -34 30t-43 53q-4 5 -6 5t-9 -2q-47 -18 -81 -21
q-33 -4 -68 5q-45 12 -79 45q-35 32 -52 80q-9 25 -12 49q-3 23 -3 63v3q0 47 5 81t19 81q25 85 65 153q41 68 99 124q17 16 26 26q8 10 10 15q2 9 10 18t17 13q5 3 11 4t13 1h1q17 0 39 -6t45 -16zM302 640q-14 -9 -45 -41q-32 -32 -45 -51q-51 -71 -80 -166
q-24 -78 -24 -141q0 -15 2 -29q6 -67 36 -95q20 -18 48 -18q15 0 33 5q21 6 23 10q2 5 -6 23q-16 38 -34 83q-17 46 -17 52q0 10 7 22q6 11 16 18q16 12 40 9t36 -18q2 -3 9 -19t15 -35q17 -43 21 -49q3 -5 9 2q14 17 33 60q19 44 27 80q7 28 8 74q1 10 1 19q0 33 -4 54
q-5 25 -14 51q-10 26 -20 44q-9 15 -27 33t-30 24q-4 2 -6 2q-2 1 -4 1t-3 -1q-2 -1 -5 -3z" />
    <glyph glyph-name="R" unicode="R" 
d="M145 786q89 -22 142 -69q53 -46 67 -113q14 -71 -23 -155t-128 -190q-9 -11 -15 -19q-7 -9 -7 -10t13 -6q12 -5 30 -11q19 -6 41 -14l42 -14q39 -14 69 -25q29 -11 34 -13q20 -13 20 -37v-2q-1 -26 -24 -39q-17 -9 -33 -7q-15 2 -70 21q-100 35 -144 48q-44 14 -47 12
q-1 -1 -1 -18t1 -39q4 -77 4 -103q-1 -26 -6 -34q-7 -12 -25 -21q-13 -6 -22 -6q-3 0 -6 1q-1 0 -5 1q-3 1 -7 2q-8 1 -20 11q-12 9 -14 17q-2 4 -3 21q-2 16 -3 41q-2 48 -3 119q-2 71 -2 147v38q0 59 1 115q1 74 3 123q2 50 4 85t4 59q4 45 11 60q6 16 18 25q7 6 15 9
q7 3 18 3h1q12 0 29 -4q16 -3 41 -9zM120 670q-2 -22 -4 -65t-4 -91q-2 -73 -2 -136q-1 -13 -1 -23q0 -40 2 -40t9 8q8 8 17 20q57 72 84 124q26 53 26 95q0 29 -9 50q-9 20 -30 38q-13 12 -41 26q-28 13 -38 13q-5 0 -6 -3q-2 -2 -3 -16z" />
    <glyph glyph-name="S" unicode="S" horiz-adv-x="471" 
d="M204 -29q-14 1 -36 6q-21 4 -27 7q-29 13 -28 42q0 30 29 42q12 5 22 5q9 1 31 -4q33 -6 57 1q25 7 46 27q28 26 39 62q11 37 -2 58q-3 4 -7 8q-5 3 -12 6q-10 4 -30 6q-19 2 -91 6q-56 4 -90 15t-61 34q-18 15 -28 30q-9 15 -14 36q-4 16 -4 35q0 43 22 96q31 76 97 147
q17 18 43 40t46 34q17 11 46 23t47 16q19 4 49 7q20 2 32 2q6 0 10 -1q38 -4 47 -36t-23 -50q-7 -5 -15 -6q-8 -2 -28 -3q-13 -1 -26 -3q-13 -1 -18 -3q-33 -7 -68 -32q-36 -25 -68 -62q-39 -45 -61 -90q-22 -44 -22 -78q0 -18 7 -27q6 -9 23 -17q14 -6 37 -9q22 -2 88 -6
q57 -3 88 -12q31 -10 56 -31q23 -21 33 -45q11 -24 11 -60q-1 -62 -39 -117q-38 -56 -97 -81q-12 -5 -24 -9t-18 -5q-13 -3 -35 -4q-11 -1 -19 -1q-9 0 -15 1z" />
    <glyph glyph-name="T" unicode="T" horiz-adv-x="430" 
d="M243 -10q-10 3 -19 11t-14 18q-4 8 -8 39q-5 32 -10 79q-9 86 -17 206q-9 120 -11 222q-2 57 -4 75q-1 19 -5 19q-1 0 -15 -5t-31 -11q-38 -15 -54 -17q-16 -1 -30 8q-19 12 -24 34q-1 6 -1 13q0 14 8 28q7 12 26 21t95 38q96 36 207 70q110 35 191 55q27 7 35 8h5
q6 0 12 -2q18 -5 30 -21q12 -15 12 -34q0 -11 -7 -24q-8 -13 -17 -18q-5 -3 -24 -10q-19 -6 -45 -12q-46 -12 -112 -32t-110 -34q-11 -4 -34 -12v-72q1 -67 5 -153t10 -170q4 -46 8 -89t8 -80q8 -69 9 -90q1 -20 -4 -30q-9 -17 -28 -25q-11 -5 -23 -5q-7 0 -14 2z" />
    <glyph glyph-name="U" unicode="U" horiz-adv-x="533" 
d="M236 11q-58 10 -103 47t-74 99q-17 40 -31 94q-13 55 -19 116q-2 17 -4 41q-1 25 -3 50q-1 39 -2 71v17q0 18 1 23q4 18 20 29q15 12 34 12q13 0 22 -5q10 -5 19 -15t11 -22t3 -64q4 -125 20 -203q15 -78 45 -125q29 -46 70 -54q40 -7 77 27q34 32 54 92q21 59 27 148
q2 26 2 68t-1 85q-1 23 -2 45t-2 41q-2 23 -2 34q0 12 2 17q12 38 51 38h1q40 -1 52 -39q4 -14 7 -70q3 -57 4 -119v-24q0 -28 -1 -54q-1 -37 -3 -58q-5 -54 -18 -104q-12 -50 -29 -86q-25 -55 -67 -94q-43 -40 -89 -52q-15 -4 -38 -6h-20h-14z" />
    <glyph glyph-name="V" unicode="V" horiz-adv-x="533" 
d="M208 0q-19 6 -39 26q-20 21 -34 50q-15 32 -29 73t-33 112q-10 38 -22 87q-11 48 -26 111q-22 91 -24 118q-1 6 -1 12q0 19 9 30q12 16 30 20q19 5 36 -3q13 -6 20 -15q6 -9 16 -47q4 -15 10 -39q5 -23 12 -55q13 -54 26 -109q14 -55 20 -79q17 -65 34 -114
q16 -49 21 -49q3 0 19 37q17 38 28 71q21 59 50 157q29 99 61 216q8 34 16 60q7 26 9 29q5 9 16 18t20 10q6 1 11 1q21 1 38 -14q18 -16 18 -37q0 -4 -1 -8q-1 -11 -10 -48q-10 -37 -23 -86q-21 -75 -46 -159q-24 -85 -41 -135q-21 -63 -39 -106q-17 -43 -33 -69
q-14 -23 -33 -41q-18 -18 -33 -23q-12 -4 -27 -5h-5q-13 0 -21 3z" />
    <glyph glyph-name="W" unicode="W" horiz-adv-x="717" 
d="M189 2q-33 10 -56 50q-23 39 -49 146q-15 57 -31 138q-17 80 -38 191l-7 42q-4 18 -6 31q-2 17 -2 27q0 8 1 13q4 10 14 20q8 8 22 14q14 5 21 3q1 0 5 -1t7 -2q9 -2 20 -13q12 -11 15 -20q1 -4 7 -33t13 -66q24 -132 46 -232t34 -141q6 -20 13 -6q7 13 41 106
q28 75 52 104t59 29q22 0 39 -10t34 -33q9 -13 28 -50t49 -102q6 -12 10 -21q5 -8 7 -8q8 0 19 79t21 211q11 139 16 195q6 55 10 65q2 5 7 11q5 7 10 10q7 6 13 7q5 2 19 2q15 0 20 -2q6 -1 13 -7q5 -3 10 -10q5 -6 8 -12q4 -10 4 -20q0 -11 -5 -63q-2 -28 -6 -79
q-5 -50 -8 -92q-13 -183 -29 -271t-44 -127q-25 -38 -63 -41q-39 -4 -70 28q-18 18 -39 54q-21 37 -51 104q-7 14 -12 23t-6 9q-3 -1 -8 -14q-6 -14 -25 -68q-23 -61 -39 -93q-17 -31 -35 -50q-12 -12 -19 -17t-17 -8q-14 -4 -22 -4h-1q-8 0 -19 4z" />
    <glyph glyph-name="X" unicode="X" horiz-adv-x="553" 
d="M154 -41q-1 0 -5 1l-6 2q-14 3 -26 19q-12 17 -12 34q0 5 13 41q14 37 39 99q22 54 38 95q16 40 16 43q1 5 -4 13q-4 9 -19 29q-26 37 -50 72q-25 34 -46 66q-40 57 -65 97q-25 39 -26 46q-1 5 -1 10q0 11 5 22q7 15 22 26q6 4 12 5q5 1 18 1q10 -1 17 -3q6 -2 12 -5
q4 -3 21 -27q18 -24 41 -58q47 -71 82 -119q34 -49 36 -49q1 0 16 29q14 29 34 70q15 29 32 62l34 66q32 60 58 108q27 47 32 53q16 17 38 16h10q28 -5 40 -30q6 -12 6 -22v-3q-1 -11 -17 -44q-7 -14 -18 -34q-10 -19 -25 -46q-45 -85 -80 -153t-62 -129q-7 -16 -22 -49
q1 -3 5 -9q3 -4 23 -31l45 -63q26 -35 46 -63q20 -29 22 -33q16 -34 -11 -62q-28 -27 -62 -10q-7 4 -13 10q-7 6 -25 30q-8 11 -19 26t-26 35q-24 32 -30 39q-6 6 -9 2q-1 -2 -14 -32q-12 -30 -27 -69q-16 -40 -29 -70q-14 -31 -17 -35l-7 -7q-5 -4 -8 -6q-7 -3 -17 -5
q-7 -1 -12 -1h-3z" />
    <glyph glyph-name="Y" unicode="Y" horiz-adv-x="512" 
d="M215 -61q-37 4 -71 15q-33 10 -44 19q-14 13 -18 29q-3 16 4 33q4 11 10 17q5 6 16 11q11 6 25 5q13 -1 39 -9q18 -5 29 -7q12 -2 29 -2q19 -1 27 1q7 1 19 6q36 17 58 58q23 41 34 110q2 15 4 39t3 50q1 39 0 71q0 31 -4 31l-5 -8q-5 -9 -11 -22q-26 -53 -61 -94
q-36 -42 -72 -61q-76 -39 -136 -6q-59 33 -79 125q-11 52 -11 121q0 70 11 160q4 34 7 46q4 12 11 21q8 10 18 15q10 4 24 4q13 0 23 -4q10 -5 18 -15q11 -12 12 -26q1 -13 -4 -57q-3 -18 -5 -42q-1 -24 -2 -49q-2 -46 0 -89q1 -43 5 -59q6 -23 13 -38q8 -15 15 -16
q22 -6 56 28q33 34 59 88q26 55 42 121q17 65 30 168q6 43 8 51t11 18q9 11 18 15t23 4q21 0 34 -11q13 -10 21 -34q5 -14 13 -66q7 -52 14 -115q4 -33 6 -67q3 -33 5 -63q1 -19 2 -43v-48v-1q0 -46 -1 -90q-2 -44 -5 -65q-17 -113 -66 -181t-125 -86q-15 -4 -40 -6
q-14 -1 -24 -1q-8 0 -12 1z" />
    <glyph glyph-name="Z" unicode="Z" horiz-adv-x="471" 
d="M349 -41q-112 9 -172 42t-73 93q-4 20 -4 35t5 40q11 63 49 147q38 83 117 215q37 63 47 80q10 18 10 22t-4 4q-3 1 -18 -1q-32 -3 -90 -16t-119 -30q-30 -9 -45 -9q-14 0 -27 8q-24 15 -25 45v2q0 28 22 43q12 8 63 22q50 14 106 27q30 6 58 11t48 7q18 2 34 2
q26 0 45 -5q32 -8 52 -30q20 -23 20 -56v-1q0 -33 -21 -75q-4 -8 -22 -40q-19 -32 -41 -70q-23 -38 -46 -79q-23 -40 -32 -59q-42 -80 -61 -139q-20 -60 -11 -81q6 -15 43 -26q36 -12 93 -16q40 -4 53 -7t22 -11q22 -20 18 -48q-3 -29 -29 -42q-10 -4 -23 -5q-4 -1 -9 -1
q-13 0 -33 2z" />
    <glyph glyph-name="bracketleft" unicode="[" horiz-adv-x="287" 
d="M82 -125q-10 3 -22 15q-11 11 -14 22q-2 7 -3 37t-1 92q0 95 -2 197q-3 101 -8 206q-2 37 -4 102q-3 65 -4 120q-1 45 -4 134q3 4 7 12q5 11 16 19t29 14q12 3 29 3h5q21 0 80 -7q44 -4 58 -10q14 -7 23 -24q8 -15 6 -32q-3 -17 -14 -29q-13 -14 -28 -16q-14 -3 -53 1
q-20 2 -31 3q-11 0 -12 -1q-2 -2 -1 -43q0 -40 2 -104q1 -35 3 -74q2 -40 4 -82q1 -33 3 -71q1 -37 2 -76q3 -71 4 -136q1 -64 1 -98q-1 -23 0 -41q0 -17 1 -18q0 -1 12 0q11 1 26 3q29 4 40 3t22 -8q25 -15 25 -45v-5q-3 -33 -31 -46q-6 -2 -31 -6q-24 -5 -52 -8
q-15 -2 -28 -3q-14 -2 -24 -2h-9h-9q-9 1 -13 2z" />
    <glyph glyph-name="backslash" unicode="\" 
d="M403 5q-12 -5 -22 -5h-7q-14 2 -26 13q-6 5 -11 13t-20 39q-6 12 -14 31q-9 19 -21 44q-25 55 -51 108t-46 92l-20 40t-28 57q-23 47 -45 93l-32 64q-26 49 -32 63q-7 14 -7 23q-1 1 -1 3q0 9 3 17q2 10 8 18q6 7 21 14t24 7h1q9 0 21 -5q11 -6 18 -14q3 -3 18 -31
q15 -27 33 -62q11 -22 35 -69q23 -48 46 -95q15 -31 28 -57q12 -26 19 -38q13 -26 31 -63t37 -76q28 -59 50 -108q22 -50 24 -58q1 -5 1 -9q0 -6 -2 -13q-2 -11 -9 -20q-4 -5 -9 -9q-6 -3 -15 -7z" />
    <glyph glyph-name="bracketright" unicode="]" horiz-adv-x="307" 
d="M187 -123q-11 1 -24 2q-14 1 -29 3q-27 4 -52 8t-31 7q-28 12 -31 46v4q0 30 25 45q12 7 23 8t40 -3q14 -2 26 -3h12q0 1 1 18v42q-1 18 0 45v62q2 63 4 137q3 75 5 136q4 79 7 146q2 68 3 109v34q0 13 -1 14q-2 1 -13 1t-31 -3q-39 -4 -53 -1t-27 16q-12 13 -14 29
q-3 17 5 32q9 18 23 24q15 6 58 11q60 6 80 7h5q17 0 29 -4q18 -6 29 -14q11 -7 16 -18q2 -5 7 -13q-1 -44 -4 -134q-1 -55 -3 -120q-3 -65 -4 -101q-6 -105 -8 -207q-3 -102 -3 -196q0 -63 -1 -93t-3 -36q-3 -11 -14 -23t-22 -15q-4 -1 -13 -2h-9h-8z" />
    <glyph glyph-name="asciicircum" unicode="^" horiz-adv-x="389" 
d="M296 461q-14 5 -22 14q-8 10 -18 33q-26 54 -43 84t-23 30q-5 0 -23 -25q-17 -26 -39 -65q-13 -24 -27 -33q-14 -10 -33 -8q-22 2 -37 19q-13 15 -13 35q0 2 1 5q0 7 5 18q5 12 12 26q14 27 34 56t37 46q22 22 42 32q20 9 43 9q37 0 68 -26q30 -27 63 -89q18 -35 32 -67
q14 -33 14 -42q0 -17 -12 -32q-11 -15 -27 -21q-9 -3 -16 -3h-1q-7 1 -17 4z" />
    <glyph glyph-name="underscore" unicode="_" horiz-adv-x="471" 
d="M57 -3q-17 9 -25 23q-6 11 -6 25q0 4 1 8q1 13 9 24q7 11 19 18q9 5 49 6t111 1h39h9h37h65q29 0 32 -1q26 -4 40 -24q9 -14 9 -29q0 -7 -2 -15q-3 -11 -14 -23t-20 -15q-3 0 -32 -1q-30 -1 -66 -1h-48q-24 -1 -42 -1h-25q-54 0 -90 1q-44 1 -50 4z" />
    <glyph glyph-name="grave" unicode="`" horiz-adv-x="246" 
d="M157 534q-8 1 -19 6q-10 6 -15 11q-7 6 -11 20t-7 38q-3 37 -16 63q-12 27 -39 58q-24 27 -28 46q-2 5 -2 11q0 13 9 27q10 16 28 23q9 3 19 3q9 0 18 -3q17 -6 49 -45q31 -39 47 -75q12 -25 18 -51t8 -60v-10q0 -14 -2 -24q-4 -14 -14 -23q-5 -6 -21 -12q-11 -4 -18 -4
q-3 0 -4 1z" />
    <glyph glyph-name="a" unicode="a" horiz-adv-x="430" 
d="M333 633q21 -53 39 -147q19 -94 29 -198q3 -30 5 -60q2 -31 3 -59t1 -52q0 -22 -1 -42q-2 -40 -7 -52q-7 -16 -24 -24q-10 -5 -20 -5q-7 0 -14 2q-15 5 -24 16q-9 12 -10 29v20v31q1 20 1 30q-1 10 -2 11q-3 4 -29 3q-26 0 -57 -2q-39 -2 -75 -7q-35 -4 -38 -9
q-2 -1 -3 -12q-2 -11 -3 -24q-2 -29 -4 -40t-7 -18q-9 -14 -27 -19t-33 2q-16 7 -23 20q-7 11 -7 28v4q2 40 7 84q6 45 14 91q14 86 38 172q23 86 51 156q31 76 59 113q28 36 62 41h3q2 1 4 1h4q27 0 48 -20q24 -21 40 -64zM153 366q-3 -13 -7 -29t-7 -31q-7 -29 -11 -52
q-4 -20 -4 -24v-1h6h12q16 1 39 3q34 3 66 4q31 1 52 0q1 0 3 1q1 1 2 3q1 0 1 6q0 12 -4 47q-5 51 -13 102q-11 72 -26 134q-16 62 -22 64h-1v0q-5 -1 -21 -37q-15 -35 -32 -84q-9 -26 -18 -54q-8 -27 -15 -52z" />
    <glyph glyph-name="b" unicode="b" horiz-adv-x="399" 
d="M62 742q36 0 81 -7q44 -7 77 -18q29 -10 48 -21q20 -11 40 -29q30 -27 43 -57q14 -31 13 -70q0 -48 -23 -95q-23 -46 -68 -89q-14 -14 -18 -20q-3 -6 4 -6q2 0 11 -4q9 -3 20 -8q78 -34 87 -110q1 -9 1 -19q1 -65 -57 -121q-33 -33 -81 -55q-48 -21 -104 -29
q-26 -3 -34 -4h-6h-4t-4 1q-4 1 -7 1q-8 2 -19 11q-12 9 -15 17q-4 8 -4 19q0 10 3 19q2 5 1 16q0 11 -4 37q-6 39 -12 102q-6 64 -11 137q-3 39 -6 79q-2 41 -4 80q-4 73 -7 131t-3 67v1q0 10 7 20q6 11 17 18q6 4 12 5q5 1 18 2h1q1 -1 3 -1h4zM116 636q0 -15 1 -46
q0 -14 1 -39q1 -26 2 -54q2 -42 5 -78q2 -37 3 -39q1 -3 4 -3q1 0 3 1q5 2 22 16q34 26 55 50q21 25 33 52q5 13 7 21t2 23q0 11 -2 20q-1 8 -3 13q-6 12 -19 24q-14 12 -29 18q-14 7 -38 13t-38 8h-9v0zM140 240v-6v-5q0 -10 1 -24q4 -37 9 -71q4 -35 5 -38t6 -3q2 0 4 1
q8 1 27 10q34 15 55 39q20 24 20 47q0 18 -10 28q-11 10 -35 17q-14 3 -36 5q-19 2 -32 2h-3h-7q-3 -1 -4 -2z" />
    <glyph glyph-name="c" unicode="c" horiz-adv-x="484" 
d="M159 -17q-39 6 -74 37q-35 30 -54 73q-17 39 -24 83q-7 45 -7 109v2q0 106 18 191q19 86 57 155q42 77 101 108q33 17 65 17q26 0 52 -11q24 -11 41 -28q17 -18 35 -49q8 -14 10 -22q3 -8 3 -16q0 -29 -27 -43t-55 1q-8 4 -14 10q-5 7 -15 24q-7 11 -13 21q-7 9 -10 10
q-5 3 -8 3q-3 -1 -12 -6q-42 -22 -74 -105q-33 -83 -42 -191q-8 -103 7 -176q16 -74 50 -95q26 -16 74 10q47 26 103 87q11 12 22 22q10 9 13 11q22 10 44 3t32 -27q6 -11 6 -21q0 -4 -2 -9q-4 -13 -25 -37q-72 -81 -142 -117q-53 -27 -104 -27q-16 0 -31 3z" />
    <glyph glyph-name="d" unicode="d" horiz-adv-x="410" 
d="M49 740q47 -3 76 -8q30 -6 64 -17q79 -27 131 -82t69 -128q8 -35 8 -81v-13q-1 -54 -13 -96q-25 -99 -76 -168t-134 -118q-22 -13 -28 -19q-7 -5 -8 -11q-3 -9 -13 -18q-11 -10 -21 -13q-7 -3 -16 -3q-3 0 -6 1q-13 1 -22 5q-8 4 -15 11q-6 6 -10 14q-2 5 -3 25
q-2 21 -3 59q0 30 -2 83t-3 96q-4 97 -6 161q-2 63 -3 138q0 32 -1 55q-1 24 -2 25q-13 1 -22 6t-14 13q-10 13 -10 30q-1 11 4 24q12 31 44 32h2q6 -1 14 -1q8 -1 19 -2zM126 626v-30v-7v-20v-41q1 -44 3 -101q1 -57 3 -112q2 -69 4 -122q2 -52 3 -55t3 -3t3 1q5 2 21 15
q29 25 50 53q22 29 37 64q34 80 34 153q1 8 0 15q-4 80 -49 128q-8 8 -18 17q-11 9 -17 14q-12 7 -32 16q-21 9 -35 12q-3 1 -10 3v0z" />
    <glyph glyph-name="e" unicode="e" horiz-adv-x="410" 
d="M97 0q-29 9 -49 31q-20 21 -32 55q-11 29 -14 55q-2 24 -2 92v6q0 53 1 80q1 26 8 88q3 20 6 47t7 62q4 33 12 97q-4 4 -11 10q-22 19 -21 46q2 28 25 44q9 6 64 15q55 10 133 19q35 4 51 4h6q14 -1 27 -12q8 -7 14 -19q6 -13 6 -22q0 -13 -9 -28q-9 -14 -22 -21
q-3 -2 -23 -5q-21 -4 -46 -7q-65 -8 -73 -11q-8 -2 -10 -16q-3 -19 -6 -43q-3 -23 -6 -48l-9 -81q-3 -36 -2 -36t8 2q8 2 18 6q31 8 48 6q18 -2 31 -16q15 -16 14 -39q0 -22 -17 -38q-5 -5 -17 -9q-12 -5 -36 -13q-39 -11 -50 -16q-11 -6 -13 -12q-2 -8 -2 -44q1 -36 3 -57
q3 -22 7 -39t9 -23t17 -5q13 1 32 10q22 11 46 30q24 18 57 51q32 31 45 39q13 7 32 4q9 -2 14 -4q6 -3 13 -11q14 -14 17 -31q1 -4 1 -9q0 -12 -6 -25q-3 -5 -21 -23q-18 -19 -39 -38q-14 -13 -27 -25q-13 -11 -21 -18q-53 -40 -101 -54q-25 -7 -48 -7q-20 0 -39 6z" />
    <glyph glyph-name="f" unicode="f" horiz-adv-x="389" 
d="M56 -56q-10 6 -17 15q-8 10 -10 18q-3 12 -5 43t-3 74q-2 81 -2 187q0 107 4 200q1 34 2 58q1 25 1 42q2 52 -1 57q-3 4 -12 9q-20 10 -28 27q-6 11 -6 24q0 6 2 12q1 9 10 21q9 11 18 16q4 2 20 5q15 2 39 6q44 6 108 13t129 12q47 3 58 3h1q11 0 21 -4q15 -7 23 -18
q7 -12 8 -29q1 -4 1 -8q0 -6 -1 -10q-1 -5 -7 -14q-9 -14 -22 -20q-13 -5 -44 -7q-88 -7 -143 -13q-54 -5 -58 -8q-1 0 -3 -31t-4 -71q-2 -49 -3 -93t0 -46q1 0 10 1q10 1 23 3q37 8 53 6t29 -14q9 -9 13 -18q4 -8 4 -20q0 -13 -3 -22t-11 -17q-9 -9 -18 -12q-8 -3 -46 -11
q-19 -4 -35 -8q-15 -4 -18 -6q-3 -1 -8 -4q1 -31 2 -92q1 -38 3 -83q1 -45 3 -71q1 -25 2 -46q0 -20 -1 -23q-2 -8 -11 -19q-10 -11 -18 -15t-22 -4h-3q-16 0 -24 5z" />
    <glyph glyph-name="g" unicode="g" 
d="M301 712q16 -8 37 -30q21 -21 30 -37q13 -23 1 -49q-13 -26 -39 -31q-17 -4 -31 3q-15 6 -28 24q-10 14 -20 22q-9 7 -17 8q-9 0 -23 -9t-25 -23q-23 -28 -40 -68t-27 -91q-4 -18 -6 -42t-3 -48q-2 -36 0 -64t7 -28q1 0 8 6t15 15q24 27 48 45q25 19 50 29q34 15 63 12
q30 -2 59 -14q16 -9 34 -29q17 -19 24 -35q13 -30 13 -66q0 -9 -1 -19q-4 -48 -28 -86q-16 -27 -43 -51t-54 -35q-26 -12 -63 -15q-12 -1 -23 -1q-21 0 -37 4q-42 11 -76 39q-35 27 -58 65q-31 51 -43 122q-7 43 -7 89q0 30 3 62q10 96 42 174q31 77 78 121q29 27 59 40
q26 11 52 11h7q16 -1 31 -6q16 -5 31 -14zM280 242q-16 -6 -32 -20q-17 -14 -38 -40q-10 -11 -19 -20q-10 -10 -15 -12q-4 -3 -7 -6q-3 -2 -2 -3q0 -2 5 -6q6 -4 14 -9q12 -7 19 -9q6 -2 19 -2h1q9 0 17 2q9 1 16 4q26 11 44 34q17 23 19 50v10v8q-1 6 -4 11q-4 6 -8 9t-9 4
h-3q-3 0 -6 -1q-5 -1 -11 -4z" />
    <glyph glyph-name="h" unicode="h" 
d="M337 -41q-9 3 -17 10q-7 6 -12 15l-6 12q2 40 6 119l6 120h-52q-49 0 -84 -2q-34 -2 -37 -4q-1 -1 -2 -20v-49q1 -46 0 -58q0 -12 -4 -20q-7 -16 -20 -24q-12 -8 -29 -7q-13 0 -22 5q-10 4 -17 14q-7 9 -10 22q-2 14 -2 50q-1 119 -9 238q-8 118 -22 220q-3 16 -4 32
q-2 14 -2 20v1q1 12 7 23q6 10 18 17q18 13 41 6q23 -6 32 -26q2 -5 5 -20q2 -15 6 -37q6 -42 12 -101q7 -59 11 -116q1 -24 3 -42t3 -19l17 -1q17 0 39 1q23 0 49 1q27 1 41 1h34q1 16 3 47q1 20 2 76q2 57 3 116v56q1 24 1 40q1 38 3 46q1 9 4 16q8 13 18 20q11 6 27 7h1
q15 0 25 -5q10 -6 19 -19q3 -4 8 -12v-65q-1 -21 -1 -51q-1 -29 -2 -64q-1 -65 -3 -141q-3 -77 -5 -147q-3 -71 -5 -127q-3 -55 -4 -75q-5 -54 -9 -69q-4 -14 -20 -24q-9 -5 -22 -7q-5 -1 -9 -1q-7 0 -13 2z" />
    <glyph glyph-name="i" unicode="i" horiz-adv-x="164" 
d="M44 30q-15 11 -19 24t-4 54v43q-1 13 -1 27q0 15 1 31v117q1 60 1 94q1 20 2 48q1 27 3 56q2 54 6 102q3 47 5 54q4 18 24 28q13 8 27 8q5 0 11 -1q13 -3 24 -12q10 -9 14 -21q4 -9 4 -28q0 -20 -4 -97q-3 -69 -5 -131t-2 -140q-1 -42 -1 -91q0 -50 1 -110q0 -21 -6 -34
q-7 -14 -20 -23q-12 -7 -28 -8h-3q-17 1 -30 10z" />
    <glyph glyph-name="j" unicode="j" horiz-adv-x="420" 
d="M160 -29q-42 10 -77 46q-35 37 -51 85q-3 10 -5 24t-2 35q-2 35 2 57q4 23 18 55q9 24 17 33q7 10 19 16q23 12 47 2q24 -11 31 -37q2 -10 0 -20t-13 -38q-11 -26 -13 -46t3 -40q10 -40 35 -57t50 -1q24 17 40 52q16 36 23 89q4 25 3 86q0 60 -4 102q-2 21 -5 45l-6 48
q-7 45 -13 81q-7 35 -10 38q-1 1 -18 -1q-17 -1 -46 -6q-25 -5 -54 -9q-29 -5 -45 -7q-28 -4 -35 -4t-17 5q-6 2 -13 7q-6 5 -10 10q-6 7 -8 12q-2 6 -3 18v8q0 6 1 9q1 6 7 15q4 6 9 11q6 6 11 8q4 2 22 6t38 7q54 8 100 16t87 16q20 5 38 8t23 3q22 0 38 -16
q15 -15 15 -38q0 -12 -3 -21q-4 -8 -15 -19q-4 -5 -12 -14q3 -13 8 -41q20 -108 27 -212q5 -56 5 -101q0 -37 -3 -67q-9 -79 -34 -136q-25 -56 -67 -90q-30 -24 -65 -32q-17 -4 -33 -4q-18 0 -37 4z" />
    <glyph glyph-name="k" unicode="k" 
d="M72 -68q-17 8 -24 20q-6 11 -14 47q-10 54 -17 118q-7 65 -11 160q-2 51 -3 112q-1 62 -2 137q-1 77 -1 120v26q0 42 3 48q11 34 46 38h7q30 0 46 -28q4 -7 5 -15q2 -8 2 -40q1 -14 1 -35v-47q1 -76 2 -101t3 -25q4 0 30 23t54 51q32 32 60 67t56 77q30 45 35 52
q6 7 16 12q22 12 46 1q24 -10 31 -35q3 -7 3 -14t-3 -14q-4 -14 -23 -44q-48 -77 -108 -144q-60 -66 -133 -125q-10 -7 -16 -14q-7 -6 -7 -8q0 -4 33 -28q33 -23 76 -50q23 -15 47 -29t44 -25t35 -20t18 -11q6 -6 11 -18q5 -13 6 -22q0 -24 -20 -42q-21 -17 -44 -13
q-10 2 -46 22q-36 19 -76 43q-22 13 -43 26q-20 14 -36 25q-14 9 -25 16t-12 7q-5 0 -3 -34q1 -34 7 -80q2 -25 6 -51q4 -25 9 -48q6 -33 4 -47q-1 -13 -13 -26q-12 -14 -29 -18q-6 -1 -12 -1q-10 0 -21 4z" />
    <glyph glyph-name="l" unicode="l" horiz-adv-x="410" 
d="M112 1q-29 12 -49 32q-20 19 -33 48q-9 19 -15 42q-7 22 -10 51q-5 41 -5 102q0 21 1 44q2 91 12 249q2 36 4 63q2 26 3 45q4 42 8 51q5 10 16 19q15 11 32 11q10 0 21 -5q29 -12 34 -43q1 -7 -1 -34q-1 -28 -4 -64q-2 -34 -6 -91q-3 -56 -6 -100q-5 -114 -4 -176
q2 -62 12 -96q9 -32 23 -41q13 -10 42 -6q19 3 49 13q30 11 61 26q20 9 28 11t18 1q15 -1 25 -7q10 -5 18 -17q4 -7 5 -13q2 -5 2 -14q0 -2 -1 -4q0 -25 -14 -37t-68 -35q-18 -7 -40 -15q-23 -8 -37 -12q-22 -5 -33 -6q-6 -1 -14 -1q-9 0 -22 1q-22 1 -32 2q-10 2 -20 6z
" />
    <glyph glyph-name="m" unicode="m" horiz-adv-x="860" 
d="M751 -73q-18 11 -23 28t-2 58q6 82 7 157q0 74 -4 121q-3 25 -6 40q-4 15 -9 16q-10 3 -47 -53q-38 -56 -74 -128q-38 -76 -58 -97q-20 -22 -52 -20q-22 2 -37 16q-15 15 -22 40q-7 26 -9 78t-1 181q1 63 0 114t-4 81q-1 21 -2 27q-2 6 -5 4q-3 -3 -24 -62t-51 -153
q-24 -71 -42 -124t-33 -91q-27 -70 -47 -99q-19 -29 -43 -41q-13 -6 -27 -7q-13 0 -27 5q-39 15 -60 83t-37 233q-3 27 -7 67q-4 41 -7 71q-5 51 -5 71v7q1 17 13 29q9 10 20 15q10 4 25 3q21 -2 34 -15t16 -35q1 -6 5 -44t8 -85q13 -127 19 -178q7 -51 11 -51q3 -1 17 38
t49 146q40 122 60 176q19 55 34 89q21 49 40 76q18 27 40 40q11 6 17 8q6 1 17 1h2q62 -1 84 -86q23 -85 20 -306v-70q1 -17 3 -17q1 0 8 10t15 24q33 56 67 92t66 49q14 6 22 7t26 0q18 -2 25 -4t17 -9q31 -20 47 -61q17 -42 21 -123q2 -32 2 -71v-29q-1 -56 -5 -129
q-2 -52 -4 -67q-1 -15 -5 -23q-6 -11 -12 -16q-6 -6 -17 -11q-9 -3 -19 -3h-5q-14 1 -25 7z" />
    <glyph glyph-name="n" unicode="n" horiz-adv-x="533" 
d="M429 -47q-10 3 -18 11q-9 7 -13 18q-4 8 -4 18q-1 10 0 37q2 39 1 108q0 70 -1 136q-2 71 -7 138q-4 66 -10 107q-3 22 -6 35q-3 12 -5 12q-4 1 -19 -28q-16 -29 -31 -64q-8 -17 -26 -61t-35 -89q-13 -33 -22 -57q-10 -23 -17 -41q-13 -32 -20 -48q-8 -15 -17 -31
q-17 -30 -34 -42t-42 -11q-10 1 -16 3t-15 8q-18 12 -28 36q-10 23 -16 84q-4 32 -7 79q-3 46 -7 111q-3 52 -5 101l-4 64q-1 17 -1 28q0 12 1 18q2 13 12 24q11 12 26 16t30 0q11 -4 23 -15q11 -11 14 -21q2 -7 6 -71q5 -64 9 -152q3 -57 4 -71q1 -15 4 -15q1 0 9 19
q8 18 18 44q49 128 84 195q34 67 67 99q18 18 34 25q15 7 32 7h4q53 -3 79 -67q26 -65 37 -222q3 -35 5 -81q1 -47 2 -96q1 -32 1 -64q1 -28 1 -54v-6q0 -54 -2 -93q-1 -38 -4 -45q-7 -23 -28 -33q-13 -7 -25 -7q-9 0 -18 4z" />
    <glyph glyph-name="o" unicode="o" horiz-adv-x="410" 
d="M271 510q43 -19 71 -54t39 -85q8 -30 8 -55t-8 -59q-9 -41 -25 -70q-15 -28 -43 -55q-38 -36 -89 -48q-21 -5 -40 -4q-28 0 -54 10q-37 15 -64 49t-38 78q-7 31 -8 57v1q0 26 7 61t17 62q10 28 28 59q30 50 51 65q14 10 31 10q9 0 19 -2q5 -2 18 -3q12 -2 25 -4
q11 -1 18 -2q7 0 13 -2q6 -1 11 -3q6 -2 13 -6zM180 415q-8 -2 -19 -25t-20 -51q-4 -15 -7 -30q-3 -14 -3 -25v-7q0 -45 21 -70q16 -17 36 -17q10 0 21 4q28 11 48 43q20 33 21 70v4q0 30 -11 56q-13 28 -32 38q-4 2 -9 4t-11 3q-11 3 -21 3q-4 1 -7 1q-5 0 -7 -1z" />
    <glyph glyph-name="p" unicode="p" horiz-adv-x="369" 
d="M181 748q44 -12 78 -36t56 -57q18 -30 26 -69q5 -25 5 -49q0 -16 -2 -31q-10 -74 -50 -142t-115 -138q-14 -12 -40 -37q0 -25 2 -76q2 -86 1 -111q0 -25 -5 -33q-10 -18 -30 -26q-10 -5 -20 -5q-9 0 -18 4q-10 4 -18 11t-12 16q-3 7 -5 23q-1 15 -2 62q-1 30 -2 75
q-2 46 -3 98q-3 98 -7 199q-3 101 -5 151q-2 61 -4 79q-2 19 -6 28q-5 12 -5 24t5 23q11 23 37 30q4 1 10 2h10h4q25 -1 59 -5t56 -10zM129 491q2 -55 3 -96t1 -44q0 -8 4 -8h2q5 3 19 19q18 22 34 48q16 25 25 46q18 46 19 83q0 17 -5 33q-13 47 -66 65q-9 3 -19 6
q-10 2 -13 2h-2t-2 1q-3 0 -4 -7q-1 -4 -1 -14t1 -25q0 -18 1 -44q1 -27 3 -65z" />
    <glyph glyph-name="q" unicode="q" horiz-adv-x="492" 
d="M212 668q9 -11 13 -13t19 -3q40 -3 78 -22q39 -19 68 -50q34 -38 55 -91q20 -53 25 -115q1 -8 1 -18q0 -20 -3 -47q-4 -41 -11 -66q-11 -38 -30 -72q-19 -35 -43 -59q-6 -6 -10 -11t-4 -6l10 -25q11 -25 27 -58q15 -34 26 -61q12 -27 12 -31q3 -19 -7 -36q-9 -16 -25 -24
q-9 -3 -20 -3h-6q-15 1 -26 7q-10 6 -17 19q-7 12 -32 68q-11 26 -22 49q-10 23 -14 30q-5 11 -8 13t-10 1h-18q-13 1 -28 2q-23 1 -33 3q-11 2 -24 8q-41 17 -71 49q-30 31 -50 76q-14 34 -20 74q-3 26 -3 56q0 16 1 33q4 76 26 147t62 139q19 32 30 44q12 12 27 15
q4 1 8 1h4h3q11 -1 21 -6q9 -6 19 -17zM176 540q-4 -4 -16 -36t-20 -60q-19 -65 -19 -125v-8q1 -63 23 -102q10 -17 20 -27t25 -18q11 -7 18 -8h4q3 0 4 2q1 1 0 5q-1 3 -2 8q-5 9 -3 24q1 14 6 25q7 11 21 19q14 7 28 6q15 -1 25 -6t19 -18q7 -9 9 -10q3 -2 6 2q5 7 14 28
q9 22 14 39q5 18 7 49q1 15 1 28t-1 23q-7 59 -34 103q-28 43 -66 54q-5 2 -14 3q-8 1 -18 1q-13 1 -26 1h-7q-15 0 -18 -2z" />
    <glyph glyph-name="r" unicode="r" horiz-adv-x="410" 
d="M280 686q26 -19 46 -45q19 -27 29 -57q6 -16 7 -27t2 -38q0 -22 -2 -36q-1 -14 -4 -27q-12 -46 -38 -96q-27 -50 -64 -97q-7 -8 -12 -15l-5 -7q0 -1 21 -22l49 -49q53 -53 66 -70q14 -18 14 -33q0 -16 -10 -31t-24 -20q-9 -4 -24 -3q-14 1 -22 5q-4 2 -26 23
q-23 21 -51 49q-28 27 -49 47t-23 20t-5 -3q-4 -3 -7 -7q-7 -8 -7 -20q-1 -13 3 -79q2 -44 2 -55q-1 -10 -5 -20q-7 -15 -18 -23q-12 -8 -29 -8q-3 -1 -6 -1q-6 0 -11 1q-6 1 -12 5q-11 5 -19 17q-7 11 -9 23q-1 7 -2 25q-1 17 -2 42q-3 48 -5 116q-2 69 -4 142
q-2 61 -3 120t-1 107q-1 25 -1 77q-5 2 -16 4q-15 4 -24 10q-8 6 -15 17q-7 13 -7 26q0 9 3 18q7 23 29 33q5 2 21 5q17 3 38 5q13 2 26 2q12 1 25 1h2q53 0 97 -12q45 -13 82 -39zM131 502q0 -105 2 -155q2 -49 6 -49q1 0 8 7q6 7 14 17q34 41 56 80t31 74q6 21 6 40
q0 13 -2 26q-7 29 -29 49q-14 12 -41 23q-27 10 -44 10h-7v-122z" />
    <glyph glyph-name="s" unicode="s" 
d="M223 -11q-25 5 -45 13q-20 7 -27 15q-16 16 -17 37q0 22 15 38q14 14 27 17q14 2 42 -5q34 -8 54 -6q21 2 39 16q11 8 13 15q3 7 -2 15q-7 15 -31 28q-25 13 -78 31q-82 28 -126 59q-43 32 -67 80q-20 42 -20 90v11q3 54 31 108q30 59 86 107q55 48 116 67q40 12 78 12h2
q39 0 82 -14q25 -8 37 -18q13 -10 17 -25q3 -11 3 -18v-2q-1 -7 -7 -19q-11 -23 -30 -28q-19 -6 -50 4q-25 8 -45 9q-20 2 -40 -3q-30 -7 -59 -25t-55 -46t-41 -59q-14 -31 -14 -60q0 -23 6 -38q6 -14 23 -31q18 -18 38 -28q19 -10 71 -28q45 -16 72 -28t46 -26
q38 -27 56 -63q18 -37 12 -74q-11 -65 -75 -103q-47 -28 -99 -28q-18 0 -38 3z" />
    <glyph glyph-name="t" unicode="t" horiz-adv-x="471" 
d="M150 26q-11 6 -19 16q-8 11 -9 22q-1 5 -1 28v51q1 28 2 84t1 106q0 51 1 105t1 79q1 24 0 43q0 18 -1 19q0 1 -23 2q-23 0 -32 -1q-28 -1 -43 7q-16 8 -23 27q-4 11 -4 21q0 11 4 21q8 20 27 28q4 2 38 4t57 4q58 3 101 6q44 2 105 11q47 7 61 8h6q9 0 16 -2
q17 -7 27 -22q8 -12 8 -28v-6q-1 -17 -9 -28q-8 -12 -22 -18q-7 -3 -52 -9t-87 -11q-15 -1 -26 -3t-13 -3q-3 -3 -5 -49q-1 -46 -2 -185q-1 -67 -1 -115q-1 -47 -1 -80q-1 -76 -3 -89q-2 -14 -7 -23q-11 -19 -32 -25q-8 -2 -15 -2q-13 0 -25 7z" />
    <glyph glyph-name="u" unicode="u" horiz-adv-x="471" 
d="M378 16q-8 3 -17 12q-8 8 -13 16q-2 5 -4 20t-3 45q-2 45 -4 60q-1 15 -4 15q-1 0 -5 -8q-5 -7 -10 -17q-14 -24 -28 -43q-15 -19 -34 -36q-27 -26 -56 -36q-30 -10 -58 -3q-70 17 -103 120q-34 102 -38 311q-1 34 -1 60v5q0 28 1 32q2 8 12 19t19 14q10 5 22 4
q12 0 22 -5q21 -10 26 -26q5 -17 7 -81q3 -100 9 -163q6 -62 19 -112q6 -25 14 -44q8 -18 14 -22q5 -3 14 4q10 7 22 24q41 55 72 158q30 104 54 271q5 40 9 52q4 11 15 21q9 8 20 11q7 2 14 2h11q11 -2 19 -7q8 -6 18 -18q3 -3 9 -11q1 -79 2 -237q1 -101 2 -187
q2 -86 3 -112q2 -33 2 -50v-14q-2 -16 -11 -27q-10 -13 -28 -18q-9 -2 -16 -2q-10 0 -18 3z" />
    <glyph glyph-name="v" unicode="v" horiz-adv-x="471" 
d="M173 20q-40 14 -69 63t-51 141q-11 46 -24 116q-13 71 -29 171v5q0 7 3 16q3 12 9 20q7 9 19 14q11 6 25 5q13 0 22 -4q9 -5 19 -15q8 -9 10 -20q3 -10 14 -81q10 -63 20 -115t18 -84q11 -44 24 -78q13 -35 20 -40q7 -4 26 28t34 73q27 72 44 160q16 87 26 202q2 36 4 46
t7 18q16 24 46 24q29 0 45 -25q6 -9 7 -15q1 -4 1 -16v-13q-1 -34 -7 -97q-7 -64 -15 -110q-17 -99 -45 -183q-28 -85 -61 -135q-13 -19 -33 -38q-20 -18 -36 -26q-15 -8 -37 -10h-11q-14 0 -25 3z" />
    <glyph glyph-name="w" unicode="w" horiz-adv-x="758" 
d="M139 20q-27 6 -55 27q-27 22 -44 51q-27 48 -36 120q-4 31 -4 65q0 43 6 90q5 35 15 79t15 53q16 28 48 27t48 -29q5 -10 4 -26t-10 -56q-6 -30 -8 -48q-3 -19 -5 -68q-2 -59 0 -82q3 -24 16 -55q5 -14 16 -27t18 -13q14 -1 34 18q21 19 37 48q20 35 31 74q11 40 16 95
q3 31 5 41t8 18q14 24 45 25q30 2 46 -21q6 -8 8 -22q3 -14 7 -56q3 -33 9 -60q7 -28 17 -51q13 -32 41 -57q28 -24 50 -25q23 -1 46 15q22 16 38 44q13 25 20 48q6 24 9 59q5 55 -6 104t-45 123q-19 41 -24 54q-4 13 -4 23q1 22 17 37q15 14 35 14h2q26 -1 39 -18
q14 -17 45 -86q27 -60 40 -113q13 -54 13 -109v-6q0 -81 -31 -154q-32 -75 -85 -111q-27 -19 -54 -26q-28 -8 -59 -7q-36 2 -69 18q-33 15 -62 44q-9 10 -17 19q-9 10 -12 15q-2 4 -5 8q-3 3 -5 3q-1 0 -5 -5t-9 -12q-12 -19 -25 -37q-13 -17 -25 -29q-30 -29 -68 -43
q-25 -9 -48 -9q-12 0 -24 2z" />
    <glyph glyph-name="x" unicode="x" horiz-adv-x="471" 
d="M22 34q-11 10 -16 23q-3 8 -3 17v10q2 10 8 21q6 10 30 41q12 17 25 36q14 18 27 37q24 34 42 60t18 29q1 1 -10 24q-10 23 -25 54q-17 35 -38 80q-20 45 -36 80q-8 19 -14 34q-7 15 -9 22q-15 41 20 65q34 24 67 -4q4 -3 9 -12q6 -9 10 -20q5 -10 20 -45q16 -34 33 -73
q28 -60 36 -76q9 -16 12 -14q3 3 20 31q16 27 38 65q12 21 24 43q12 21 23 42q31 58 39 69q7 12 19 18q7 4 13 5h8h9q17 -2 27 -9q10 -6 17 -21q5 -11 6 -21q0 -8 -3 -16q-6 -20 -40 -82q-33 -60 -60 -107q-28 -47 -55 -92q-11 -17 -19 -30q-8 -14 -8 -15q0 -3 12 -25
q12 -23 28 -50l18 -30q10 -15 18 -28q26 -39 33 -52t8 -22q1 -10 0 -14q0 -4 -5 -14q-11 -25 -40 -31q-28 -6 -46 13q-8 7 -29 39q-20 31 -43 67q-9 16 -17 27q-7 11 -8 12q-2 0 -9 -10q-8 -10 -18 -24q-34 -47 -62 -84q-29 -38 -36 -43q-10 -8 -19 -11q-5 -1 -12 -1
q-5 0 -11 1q-8 1 -14 4q-7 3 -12 7z" />
    <glyph glyph-name="y" unicode="y" horiz-adv-x="533" 
d="M135 -41q-14 7 -22 19q-7 13 -7 29q0 11 5 24t26 56q34 71 49 104q14 33 13 36q0 1 -9 14l-21 28q-51 68 -90 134t-75 147q-14 31 -16 45q-1 4 -1 7q1 11 6 22q13 25 40 30q28 4 48 -16q3 -3 12 -20t18 -38l24 -48t24 -47q8 -13 17 -29l20 -32q19 -30 36 -54
q16 -23 19 -24q3 0 24 44q20 45 48 112q15 36 31 76q15 40 31 81q20 53 29 67q8 14 25 20q9 4 19 4q15 0 30 -11q24 -16 24 -44q0 -12 -20 -66t-52 -132q-17 -42 -37 -89t-42 -95q-33 -75 -67 -151q-35 -75 -67 -141q-16 -33 -22 -43t-14 -15q-13 -9 -28 -10h-4q-13 0 -24 6
z" />
    <glyph glyph-name="z" unicode="z" 
d="M59 20q-30 8 -45 29q-14 18 -14 46v5q1 19 7 36t27 53q12 19 29 45q17 27 42 64q52 80 81 127q28 47 44 81q15 30 19 43q5 13 2 17q-2 4 -38 0t-79 -13q-66 -15 -82 -15t-30 12q-11 10 -15 20q-5 10 -5 24q0 16 7 29t19 20q15 9 74 22q58 12 109 17q16 2 30 2
q36 0 61 -10q36 -13 53 -46q6 -12 7 -19q2 -8 2 -32q0 -22 -2 -33q-1 -11 -5 -24q-11 -33 -28 -68t-49 -88q-18 -29 -41 -65q-23 -35 -53 -81q-20 -30 -34 -53q-15 -23 -15 -25t4 -3q4 0 14 1q46 6 99 9q52 3 91 2q21 0 35 -1q15 -1 19 -4q17 -9 25 -21q7 -12 7 -31
q0 -16 -5 -27q-6 -12 -19 -21q-4 -3 -12 -10q-27 0 -82 -2q-35 -1 -75 -3t-66 -5q-47 -6 -73 -6h-9q-20 0 -31 2z" />
    <glyph glyph-name="braceleft" unicode="{" horiz-adv-x="410" 
d="M285 -110q-46 5 -81 30q-35 24 -53 64q-14 28 -18 54t-3 83q1 56 -2 82q-2 25 -11 44q-7 17 -18 29q-10 13 -29 27q-14 11 -27 25q-13 13 -17 22q-2 3 -3 11q-1 7 -1 14v2q1 20 7 33q5 13 18 21q29 19 39 28q10 8 16 19q9 16 14 42q5 27 10 82q4 59 9 90q6 32 15 58
q8 25 17 40t25 31q30 31 71 38q10 1 20 1q32 0 64 -14q24 -11 29 -38q5 -26 -13 -47q-11 -13 -26 -17q-14 -3 -37 2q-16 4 -20 4q-4 -1 -9 -6q-14 -12 -22 -45q-7 -33 -13 -101q-2 -27 -5 -53q-3 -27 -5 -38q-7 -39 -20 -69q-14 -29 -35 -52q-4 -4 -11 -12q6 -7 18 -20
q37 -40 52 -94t10 -129q-3 -50 4 -79q6 -30 23 -41q13 -9 30 -12q17 -2 41 2q15 3 32 -10q16 -13 19 -35v-8q0 -17 -10 -35q-13 -21 -37 -23l-30 -2h-5q-12 0 -22 2z" />
    <glyph glyph-name="bar" unicode="|" horiz-adv-x="185" 
d="M69 -16q-10 5 -18 14q-7 9 -10 19q-2 8 -3 62q-2 55 -3 120v69v16q0 41 1 69q1 22 1 74v104v65v46q2 39 3 71q2 31 3 36q3 10 10 20q8 9 17 14q8 4 25 4h1q16 0 24 -3q8 -5 15 -12q7 -8 11 -18q3 -8 4 -23v-7q0 -19 -2 -65v-41v-63q0 -51 -1 -103v-75q-2 -44 -2 -103
t1 -120q1 -28 2 -49v-34q0 -34 -1 -43q-1 -10 -4 -17q-6 -15 -18 -22q-11 -8 -28 -9h-7h-9q-7 1 -12 4z" />
    <glyph glyph-name="braceright" unicode="}" horiz-adv-x="410" 
d="M67 -110q-23 2 -36 23q-10 18 -11 35q0 4 1 8q3 22 19 35t31 10q24 -4 41 -2q17 3 31 12q16 11 23 41q7 29 4 79q-5 75 10 129t52 94q6 7 18 20q-4 4 -11 12q-22 23 -35 52q-14 30 -20 69q-2 11 -5 38q-3 26 -5 53q-6 68 -14 101t-21 45q-6 5 -9 6q-4 0 -20 -4
q-23 -5 -38 -2q-14 4 -26 17q-17 21 -12 47q5 27 29 38q32 14 63 14q10 0 21 -1q40 -7 71 -38q16 -16 24 -31q9 -15 18 -40q9 -26 14 -58q5 -31 10 -90q5 -55 10 -82q4 -26 13 -42q6 -11 16 -19q10 -9 40 -28q12 -8 18 -21t6 -33v-2q0 -7 -1 -14q-1 -8 -2 -11q-5 -9 -17 -22
q-13 -14 -28 -25q-18 -14 -29 -27q-10 -12 -18 -29q-8 -19 -11 -44q-2 -26 -2 -82q1 -57 -3 -83t-17 -54q-19 -40 -54 -64q-34 -25 -81 -30q-9 -2 -21 -2h-5q-15 1 -31 2z" />
    <glyph glyph-name="asciitilde" unicode="~" horiz-adv-x="512" 
d="M280 171q-12 4 -31 15q-18 11 -46 29q-24 17 -38 16t-41 -20q-18 -13 -29 -18q-10 -4 -23 -3q-18 1 -29 9q-12 9 -19 26q-4 8 -4 18q0 5 1 10q3 15 12 25q9 11 33 27q25 17 42 24q27 11 54 13q28 1 51 -7q7 -3 19 -9q13 -7 24 -14q41 -26 51 -31q10 -6 19 -6q11 -1 27 9
q15 10 35 30l18 18q10 8 15 11q11 5 23 5q7 0 15 -2q21 -5 32 -22q4 -6 5 -13q2 -6 2 -15v-2q0 -17 -6 -27q-5 -10 -30 -35q-43 -45 -90 -61q-23 -8 -46 -8t-46 8z" />
    <glyph glyph-name="sterling" unicode="&#xa3;" horiz-adv-x="430" 
d="M129 -4q-7 3 -16 11t-13 16q-3 7 -4 18q0 12 2 50q1 15 0 37q0 23 -2 47q-1 37 -4 68q-3 30 -6 32q-1 1 -6 2h-10q-22 0 -37 16t-15 39q0 19 14 34q13 16 32 18l10 2q5 2 6 3q2 1 2 9q1 7 0 21q-1 28 2 80q4 53 9 83q15 84 54 138q38 54 103 81q23 10 39 10h3
q16 -1 30 -14q10 -9 14 -19t4 -23q0 -19 -10 -31q-10 -11 -39 -26q-27 -14 -41 -27t-26 -38q-16 -32 -23 -74q-7 -41 -7 -106v-60q13 -1 40 -2q32 -1 41 -4q10 -2 20 -13q18 -19 14 -45q-4 -27 -27 -39q-8 -5 -16 -6q-9 -2 -29 -3q-14 -1 -24 -2t-11 -2q-1 -2 0 -23
q1 -22 3 -50q2 -33 5 -64q2 -30 3 -31h12q10 0 23 1q14 1 37 2h42q32 -1 41 -2q10 -1 19 -7q13 -7 20 -19q7 -13 7 -28q0 -13 -4 -22t-13 -18q-10 -10 -23 -12q-13 -3 -57 -3q-22 0 -46 -1q-23 -1 -34 -2q-32 -3 -67 -4h-15q-21 0 -26 2z" />
    <glyph glyph-name="quoteright" unicode="&#x2019;" horiz-adv-x="226" 
d="M63 527q-6 5 -13 15q-6 10 -8 17q-1 4 -1 9q0 6 2 14q3 14 14 36q15 34 18 63t-5 70q-6 35 -1 53q6 19 25 30q12 6 25 6q6 0 11 -1q19 -4 32 -19q12 -13 19 -63q5 -32 5 -59q0 -16 -2 -30q-2 -27 -10 -53q-8 -25 -23 -55q-9 -19 -20 -29q-10 -10 -23 -13q-3 -1 -7 -1
q-7 0 -17 2q-16 3 -21 8z" />
    <glyph glyph-name="quotedblleft" unicode="&#x201c;" horiz-adv-x="369" 
d="M312 830q6 -6 13 -15q6 -10 8 -17q1 -4 1 -9q0 -7 -2 -15q-3 -14 -14 -36q-15 -33 -18 -62t5 -70q7 -35 1 -54q-5 -18 -25 -29q-12 -6 -25 -6q-6 0 -11 1q-19 4 -32 19q-12 13 -19 63q-5 31 -5 59q0 15 2 30q3 27 10 52q8 26 23 56q10 19 20 28q10 10 23 14q3 1 7 1
q7 0 17 -2q16 -3 21 -8zM164 830q6 -6 12 -15q7 -10 9 -17q1 -4 1 -9q0 -7 -2 -15q-4 -14 -14 -36q-15 -33 -18 -62t4 -70q7 -35 2 -54q-6 -18 -26 -29q-12 -6 -25 -6q-5 0 -11 1q-19 4 -32 19q-11 13 -19 63q-4 31 -4 59q0 15 1 30q3 27 11 52q8 26 23 56q9 19 19 28
q10 10 24 14q3 1 7 1q7 0 16 -2q16 -3 22 -8z" />
    <glyph glyph-name="quotedblright" unicode="&#x201d;" horiz-adv-x="369" 
d="M63 527q-6 5 -13 15q-6 10 -8 17q-1 4 -1 9q0 6 2 14q3 14 14 36q15 34 18 63t-5 70q-6 35 -1 53q6 19 25 30q12 6 25 6q6 0 11 -1q19 -4 32 -19q12 -13 19 -63q5 -32 5 -59q0 -16 -2 -30q-2 -27 -10 -53q-8 -25 -23 -55q-9 -19 -20 -29q-10 -10 -23 -13q-3 -1 -7 -1
q-7 0 -17 2q-16 3 -21 8zM211 527q-6 5 -12 15q-7 10 -9 17q-1 4 -1 9q1 6 2 14q4 14 14 36q16 34 18 63q3 29 -4 70q-7 35 -1 53q5 19 25 30q12 6 25 6q5 0 11 -1q19 -4 32 -19q12 -13 19 -63q4 -32 4 -59q0 -16 -1 -30q-3 -27 -11 -53q-8 -25 -23 -55q-9 -19 -19 -29
t-23 -13q-4 -1 -8 -1q-7 0 -16 2q-16 3 -22 8z" />
    <glyph glyph-name="uni20ac" unicode="&#x20ac;" horiz-adv-x="533" 
d="M314 2q-54 12 -100 60q-45 47 -70 117q-3 10 -6 18l-5 10t-10 3q-8 1 -25 1q-30 0 -42 3q-12 4 -22 15q-7 7 -12 18q-5 12 -5 19t5 18q4 11 9 17q9 11 21 15q11 4 36 5q10 1 30 2v23v22q-10 1 -29 2q-23 1 -31 4t-17 13q-17 17 -15 41q2 23 22 39q8 6 15 8q7 1 33 3
q15 1 26 2l11 1q0 1 4 12q3 10 8 25q22 73 54 122q33 49 78 79q20 13 41 21q22 8 50 14q21 4 34 4q5 0 10 -1q13 -3 27 -17q13 -14 15 -29q3 -15 -5 -32q-7 -13 -20 -21q-12 -7 -39 -13q-12 -2 -25 -6q-13 -5 -20 -8q-15 -7 -33 -27q-19 -19 -30 -40q-12 -20 -22 -47t-8 -32
q1 -3 8 -3q7 -1 29 -1q27 0 36 -3q9 -2 20 -12q9 -9 13 -18q4 -8 4 -22q0 -15 -7 -28q-8 -12 -21 -19q-8 -4 -19 -6q-10 -1 -39 -3q-15 0 -45 -2v-23q-1 -21 4 -23q5 -3 49 -4q34 -1 46 -5q11 -3 22 -17q6 -8 7 -13q1 -6 1 -20t-1 -20q-1 -5 -7 -13q-10 -13 -24 -17
q-13 -5 -42 -5q-20 0 -26 -1t-6 -4q0 -7 13 -30q14 -22 25 -33q26 -27 55 -30q29 -4 71 13q27 11 39 12q13 1 26 -5q12 -6 19 -15t10 -22q2 -7 2 -13q0 -12 -6 -23q-9 -17 -30 -28q-42 -21 -84 -28q-19 -3 -37 -3q-22 0 -43 4z" />
    <glyph glyph-name=".notdef_2" horiz-adv-x="819" 
d="M780 737v-739h-572h-168v739h740zM132 468q15 -11 19 -39q5 -28 -3 -48l-2 -2q0 -2 -1 -3q-1 -2 -3 -5q-1 -3 -3 -6q-1 -3 -3 -6t-3 -6l-4 8l-4 8t-4 7q-3 4 -5 7t-5 5t-5 4l-6 2t-6 1q-4 0 -7 -2q-2 -1 -3 -4q-2 -4 -1 -10q2 -5 6 -6v5q-1 4 6 3h3q1 0 3 -1l2 -2t2 -3
q2 -1 3 -3l2 -4q2 -2 3 -4l2 -4q1 -3 2 -5q2 -2 3 -5q1 -2 2 -5t2 -5q-3 -4 -17 -23t-30 -18v0h-1q2 -7 13 -8h3q9 0 15 4q8 6 16 15q7 10 14 22l3 6q2 3 5 6q2 4 4 7q2 4 4 7q1 3 3 6t3 6t3 5q1 3 2 4q1 2 1 4q1 0 1 1v1v0v0q3 -1 5 -3q2 -1 7 -1q-3 2 -5 9q-3 7 -2 10
q4 -4 9 -6q4 -2 12 -2q-4 3 -6 10q-1 6 -8 13q10 -6 16 -8t17 0q-7 4 -10 8q-4 4 -9 15q10 -7 28 -12q19 -5 32 -4q-7 3 -18 10q-12 7 -15 15q9 -6 31 -16q22 -9 41 -8q-6 5 -22 14q-15 9 -20 18q15 -10 43 -22q28 -11 54 -3q-11 4 -26 10q-16 6 -27 18q21 -11 56 -15
q36 -4 58 9q-11 1 -37 5q-25 4 -33 12q38 -7 75 -7q36 0 50 11q-65 10 -120 23q-53 12 -99 12h-3q-29 0 -56 -7q-26 -8 -52 -25zM283 477q-25 -2 -36 -4q-12 -3 -19 -4q4 -2 10 -4t8 -4h-24q-9 0 -18 1q1 -2 4 -4l6 -4q-3 0 -12 1t-13 2q0 -1 2 -3l4 -6q-4 0 -8 1t-7 3
q-1 -2 0 -6q1 -5 2 -9q-2 0 -4 1t-2 3l-1 -4q0 -5 -2 -8q-2 -1 -5 -2q1 3 -1 16t-6 18q14 9 33 15q18 5 38 6h6q10 0 19 -1q13 -1 26 -4zM299 410q-2 -1 -3 -3q-2 -1 -4 -3q-1 -2 -3 -5q-1 -2 -2 -5q-2 -3 -3 -6l-2 -6t-1 -6l-2 -6q0 -3 -1 -6v-7q-2 0 -4 -1t-4 -1l-4 -2
t-4 -3q-2 -1 -3 -3t-3 -4l-2 -4t-2 -3q0 -2 -1 -4t-1 -4q-1 -2 -1 -3v-4v-1q-1 -1 -2 -1h-1v-1q-1 0 -2 -1q0 -1 -1 -1t-1 -1h-2v0h-2q-1 1 -1 2q-1 1 -1 3v3v2v3v2t1 3v3q1 1 1 3v3q0 1 1 2v2v1v2v1v3q0 2 -1 3q-1 2 -2 2q-1 1 -3 1q-1 0 -3 -1q-1 0 -2 -1q-1 0 -2 -1
t-2 -3l-1 -1v-1l-1 -1q-1 -1 -1 -2q-1 -1 -1 -2q-1 -1 -1 -2q-1 -1 -1 -2q-1 -1 -1 -3q-1 -1 -1 -2q-1 -1 -1 -2t-1 -1v-1h-1v1v1v1v2q0 2 1 3v1v2v2q1 1 1 2v1v2v1v3q-1 1 -1 2q-1 1 -2 1q-1 1 -3 1q-1 0 -2 -1q-1 0 -2 -1l-2 -2t-1 -2q0 -2 -1 -4v-5q-1 -2 -1 -5
q-1 -3 -1 -5v-3q-1 -1 -1 -3q-1 -1 -2 -3l-3 -3q0 -1 -1 -1q-1 -1 -1 -2q-1 0 -2 -1l-1 -1q-1 0 -1 -1h-2q0 -1 -1 -1h-1h-1l-1 1q-1 1 -1 2v3v3q1 2 1 4q1 3 1 5q1 1 1 3t1 4v3q1 2 1 3v3v2q-1 0 -1 1v1l-1 1v0h-1q0 1 -1 0h-1v0h-1h-1h-1v0q-1 0 -1 1h-1h-1v1v0l-1 1l-1 1
v0q-1 0 -1 1h-1q-2 0 -4 -1q-2 0 -4 -1l-4 -2t-3 -2q-2 -2 -4 -3q-1 -2 -3 -4l-2 -4q-2 -3 -3 -5q-1 -3 -2 -5q-1 -3 -2 -5q0 -2 -1 -4v-5v-3q1 -2 1 -4l2 -2q0 -2 1 -3t3 -2q1 0 2 -1q1 0 3 -1h2h3t3 1q1 0 2 1q1 0 2 1q2 1 3 1l2 2l2 2q1 0 1 1l2 -4t3 -3q1 -1 3 -2h3h3
q2 1 3 1q2 1 3 2q2 1 3 2l2 2q2 1 3 2l-1 -1h1v-2t1 -2q0 -1 1 -2l1 -1q1 0 1 -1h3h1q1 0 2 1q1 0 1 1l2 2l15 30v0v-5q-1 -2 -1 -4v-4v-3v-8q1 -3 2 -5q1 -3 2 -4q2 -1 3 -1h3q2 1 3 1t2 1q1 0 4 1q0 1 3 2q2 1 5 2v0v-1l2 -2q1 -2 3 -2q1 -1 3 -2h3h3t2 1q2 0 3 1q1 0 3 1
l2 2q1 0 2 1q2 1 3 2l2 2q1 -1 2 -3q0 -1 1 -2l2 -2t2 -1q1 -1 2 -1h1q1 -1 2 -1h1h1q1 0 2 1h2q0 1 1 1t2 1q1 0 2 1q1 0 2 1q1 0 1 1q1 0 2 1t2 1v-1v0q1 -1 1 -2q1 -1 1 -2q1 0 2 -1q0 -1 1 -1q1 -1 3 -1h3h3q2 1 3 1l4 2q2 0 4 1q1 1 3 2t3 2q2 1 3 2l2 2q3 2 4 8
q2 3 1 5v4q-1 -1 -5 -4q-3 -4 -4 -5l-2 -2q-2 -1 -3 -2l-2 -2q-2 -1 -3 -2q-1 0 -2 -1h-3h-1l-1 1q0 1 -1 2v3v2q1 2 1 4q0 1 1 3q0 2 1 3q0 2 1 4q0 2 1 4q0 2 1 4q0 2 1 3q0 2 1 3v3q1 1 1 2v1v2q-1 0 -1 1h-1h-2h-2h-1h-2q-1 -1 -2 -1l-1 -1h-1q-1 -1 -1 -2l-1 -1v-3
l-2 -6q-1 -5 -2 -8q-1 -2 -1 -4l-1 -2t-1 -5l-2 -2q-2 -1 -3 -2q-1 0 -1 -1q-1 0 -2 -1h-1q-1 -1 -2 -1q0 -1 -1 -1t-1 -1h-1h-1h-2l-1 1v1l-1 1v1t-1 1v2v2v1v1q1 1 1 2v1v1q0 1 1 1v1v1q1 2 2 6q2 3 4 8q2 4 3 7q2 3 3 7q1 3 3 7q1 3 2 7q1 3 1 7l2 8v2v2v3q-1 2 -1 3
q0 2 -1 3q0 2 -1 3q0 1 -1 2t-1 2q-1 0 -3 1h-2q-2 0 -4 -1q-1 0 -3 -1zM382 402q-2 0 -5 -1q-2 0 -4 -1l-4 -2l-4 -2t-3 -3q-2 -1 -3 -3l-2 -4l-2 -4t-1 -5q-1 -2 -1 -5t1 -5q1 -1 2 -1t2 1l2 2q5 7 12 13q6 7 16 7q3 0 5 1h5t6 -1q3 0 6 -1q12 -5 15 -19q2 -13 -2 -28
q-3 -12 -14 -21t-24 -11q-1 0 -2 1h-2h-1v1l-1 1v1q0 6 7 32q6 25 11 33q-1 2 -3 3t-4 1q-4 0 -6 -1q-1 0 -2 -1q-8 -13 -14 -36q-5 -24 -5 -43q8 -3 19 -3q7 0 16 1q20 4 30 18q3 4 5 7q1 3 3 7q2 3 3 7l2 8q0 5 1 8v8v5q0 3 -1 6q0 2 -1 5l-2 4q-2 2 -3 5l-4 4q-2 1 -4 3
t-5 3q-3 2 -6 3t-7 2q-4 0 -8 1h-9h-5q-2 0 -5 -1zM305 398v-2v-3v-3v-3v-3q-1 -2 -1 -4q0 -1 -1 -3q0 -2 -1 -3q0 -2 -1 -4q0 -2 -1 -3q0 -2 -1 -4q0 -1 -1 -3q-1 -4 -3 -7q-2 -4 -3 -8v1v2v2v2v2v3v2q0 2 1 3v2v3v3q1 2 1 4t1 4v4q1 3 1 5q1 2 1 4q1 1 2 3q0 1 1 2t1 2
q1 1 2 1t1 -1h1zM330 383q-1 -1 -2 -1l-2 -2l-1 -1q0 -1 -1 -2v-1v-2v-3q1 -2 2 -3t3 -2h5h2h3q1 1 2 1q1 1 1 2l1 1q1 1 1 2q1 1 1 2v2v2l-1 1q0 1 -1 2l-1 1q-1 0 -1 1h-2q-1 1 -2 1h-2q-2 0 -3 -1h-2zM547 383q-1 -1 -2 -1q-1 -1 -1 -2q-1 0 -1 -1q-1 -1 -1 -2v-1
q-1 -1 -1 -2q0 -2 1 -3q1 -2 2 -3t3 -2h4h3h2q1 1 2 1l2 2q0 1 1 1q0 1 1 2v2v2v2t-1 1v2q-1 0 -1 1q-1 0 -2 1h-2q-1 1 -2 1h-1q-2 0 -3 -1h-3zM574 353q-2 -2 -4 -5q-2 -2 -4 -5q-1 -3 -3 -7q-1 -3 -3 -8q0 -2 -1 -5v-4l-1 -1v0q-2 -1 -3 -2l-2 -2q-2 0 -3 -1h-2h-2
q0 1 -1 1v2v3v2v4q1 1 1 3q1 2 1 3q1 2 1 4q1 2 1 4q1 2 1 4q1 2 1 3q1 2 1 3q1 2 1 3v2v1v2v1h-2h-2h-1h-2h-1q-1 -1 -2 -1t-1 -1h-2q0 -1 -1 -2v-1q-1 -1 -1 -3q-1 -3 -1 -6q-2 -5 -3 -8q0 -2 -1 -4l-1 -2q0 -3 -1 -6q-1 -1 -2 -1q-1 -1 -2 -1q-1 -1 -3 -2q-1 0 -2 -1
q-1 0 -2 -1t-3 -1q0 2 1 3v4v3v3t-1 2v1t-1 2v1v2q-1 0 -1 1v2v1v1l1 1l2 2l1 1t1 2l1 1q1 1 1 2v1v1v1v1v1q-1 0 -1 1h-2q0 1 -1 1h-3h-2q0 -1 -1 -1h-1q-1 0 -1 -1q-1 0 -2 -1h-1v-2q-1 0 -1 -1l-4 -4q-1 -2 -2 -3q-1 -2 -2 -3l-2 -2t-1 -2l-2 -2q0 -1 -1 -2l-2 -2l-2 -2
l-2 -2t-1 -2q-1 0 -2 -1l-8 -6t-8 -4q-2 -1 -4 -1q-2 -1 -3 -1h-1h-1l-1 1h-1l-1 1l-1 1l-1 1v1l4 2q3 1 5 2t4 3q2 1 3 3q2 1 3 3t3 4q1 3 1 5q1 2 1 3q0 2 -1 4v2q-1 2 -2 3l-2 2t-2 1l-2 2h-3q-2 1 -3 1q-2 0 -4 -1q-2 0 -4 -1q-1 -1 -3 -1l-2 -2l-3 -3q-1 -2 -2 -3
q-1 -2 -2 -3q0 -2 -1 -4q-1 -1 -1 -3l-2 -4v-5q-1 -1 -1 -3t1 -5v-4l2 -4t3 -4l3 -3q1 -1 3 -2t5 -2h5h3q2 0 4 1q1 0 3 1q1 0 3 1q1 1 3 1q1 1 3 2l2 2q2 1 3 2q0 -1 1 -2q0 -1 1 -2q0 -1 1 -2l2 -2q1 0 3 -1q1 0 2 -1h3q2 -1 4 -1t4 1q3 0 5 1q3 0 6 1q2 1 5 2q2 0 5 2
l4 2h1h1v0v-1q0 -1 1 -2q0 -1 1 -2l1 -1t2 -1q1 -1 2 -1h3h3q2 1 4 1l4 2q1 0 3 1t3 2q2 1 3 2q1 -2 2 -3q2 -1 3 -2q2 -2 4 -2q2 -1 4 -1q3 0 6 1q4 2 7 5q-1 -2 -1 -7q-9 -4 -15 -9q-7 -6 -12 -11q4 -1 10 -1h5q3 3 7 6q3 2 5 3v-2q-1 -6 -9 -21t-14 -19q0 -1 -1 -1h-1
q-3 3 -3 6q0 4 1 8h-5h-6q-2 -8 0 -14t9 -10q1 0 2 -1h2h1v0q13 -1 24 21q11 23 13 38q3 2 7 6q4 3 7 6q0 -1 1 -2q1 0 1 -1q1 0 2 -1h2h2t1 1q1 0 2 1q0 1 1 2l15 30h1q-1 -2 -1 -5v-4q-1 -2 -1 -4v-3q0 -4 1 -8q0 -3 1 -5q1 -3 3 -4q1 -1 3 -1h3q1 1 3 1q5 2 8 4t6 5
q1 -2 1 -3l1 -1q0 -1 1 -2l2 -2q1 0 3 -1q1 0 2 -1h3q2 -1 4 -1t5 1q2 0 5 1q2 0 5 1t5 2q9 3 14 8q4 5 4 12v2q-1 -1 -3 -2l-2 -2q-2 0 -3 -1t-3 -1l-2 -2q-2 0 -3 -1q-1 0 -2 -1t-2 -1v3v4v3v3v2l-1 1v2t-1 1v2v1v2l-1 1l1 1q0 1 1 1q0 1 1 2q1 0 1 1l2 2q0 1 1 1q0 1 1 2
v1v1v1q-1 0 -1 1v1q-1 0 -1 1h-1q-1 1 -2 1h-3h-1q-1 -1 -2 -1h-1l-1 -1q-1 0 -1 -1h-1q-1 -1 -1 -2l-1 -1q-2 -2 -3 -4l-3 -3q-1 -2 -2 -3l-2 -2q0 -1 -1 -2l-2 -2q0 -1 -1 -2l-2 -2l-2 -2l-2 -2q0 -1 -1 -1q0 -1 -1 -1q-3 -3 -10 -8q-6 -5 -7 -2q0 1 -1 3v3v2t1 3v2v3v3
q1 1 1 3v3q1 1 1 2v2t1 1v2v1q0 2 -1 3q0 2 -1 3q-1 2 -2 2q-1 1 -2 1q-2 0 -3 -1q-1 0 -3 -1q-1 0 -2 -1t-2 -3v-1q-1 0 -1 -1t-1 -1q0 -1 -1 -2q0 -1 -1 -2q0 -1 -1 -2q0 -1 -1 -2t-1 -3q0 -1 -1 -2q0 -1 -1 -2v-1q-1 0 -1 -1h-1v1v1v1q1 1 1 2v3v1q0 1 1 2v2v2v1v2v1v3
q0 1 -1 2q0 1 -1 1q-2 1 -3 1q-2 0 -3 -1q-1 0 -2 -1t-1 -2q-1 -1 -1 -2q-1 -2 -1 -4q-1 -2 -1 -5q0 -2 -1 -5q0 -3 -1 -5v-6q-1 -3 -1 -5v-1v-2l-6 -6l-6 -6q0 4 1 8v6t1 5q0 3 1 5q0 2 1 4v4q1 5 1 8q-1 3 -1 4v1h-1q0 1 -1 2h-2h-3v0h-1h-1v0v0h-1v0v1h-1v0v1v0h-1v0
l-2 2h-2q-3 0 -7 -1q-3 -2 -7 -5zM278 348v-1v-1v-2v-4q0 -1 1 -3v-3v-3v-2v-2v-1q-1 -1 -1 -3q-1 -1 -2 -3l-1 -1v-1l-1 -1l-1 -1l-1 -1h-1q-1 0 -1 -1h-1h-2t-1 1h-1l-1 1l-1 1v1v1l-1 1q0 2 1 4q0 1 1 3q0 2 1 4l2 4q1 3 2 5t2 3q2 2 4 3q1 1 3 2v0zM587 329q0 -2 -1 -5
q0 -2 -1 -5q-2 -3 -3 -4q-2 -2 -4 -2q-1 0 -2 1q-1 0 -1 2q-2 1 -2 4v2v4q1 2 2 5q2 3 4 8q3 5 6 7t6 2q-1 -6 -4 -19zM171 348q-1 -6 -4 -19v-2q-1 -1 -1 -2q0 -2 -1 -3q0 -1 -1 -3q-1 -1 -1 -2l-2 -2l-2 -2h-2h-1l-1 1h-1v1l-1 1v2v1v2v2v3q1 1 1 3l2 4t1 3q1 2 2 3l2 2
q1 2 1 3q1 1 3 1l2 2q1 0 2 1h2v0zM463 348q1 0 1 -1q1 0 1 -1q1 -1 1 -2v-2v-2q-1 -1 -2 -3l-2 -2l-2 -2l-2 -2q-1 0 -2 -1q-2 -1 -3 -1h-2v1v2t1 2v2q1 2 1 3q1 1 1 2t1 2q0 1 1 1q0 1 1 2q1 0 2 1h1q0 1 1 1h1h1zM505 331v-2v-2v-2v-2v-1v-2v-2v-1t-1 -2l-1 -1
q0 -1 -1 -1q0 -1 -1 -1t-2 -1h-2h-1q-1 1 -2 1t-1 1q-1 0 -1 1q-1 0 -1 1q-1 0 -1 1h-1l-1 1l16 16v-1q1 0 1 -1zM689 331v-2v-2v-2v-2v-1v-2v-2v-1t-1 -2v-1l-1 -1q-1 -1 -2 -1l-1 -1h-2h-2l-1 1q-1 0 -2 1l-1 1l-1 1q-1 0 -1 1h-1v1q5 5 15 16l1 -1v-1zM147 279
q43 3 113 -1q69 -5 147 -9q42 -3 83 -5q40 -1 78 -1h4q1 1 4 7t3 8q-85 1 -164 7q-76 6 -142 6h-5q-34 0 -64 -3q-30 -2 -57 -9zM598 277q-1 -2 -3 -7q-2 -4 -3 -7q46 0 85 5t66 16q-37 -4 -73 -6q-37 -1 -72 -1z" />
  </font>
</defs>
</svg>
