<?xml version="1.0" standalone="no"?>
<!DOCTYPE svg PUBLIC "-//W3C//DTD SVG 1.1//EN" "http://www.w3.org/Graphics/SVG/1.1/DTD/svg11.dtd" >
<svg xmlns="http://www.w3.org/2000/svg" xmlns:xlink="http://www.w3.org/1999/xlink" version="1.1">
<metadata>
Created by FontForge 20170731 at Tue May  2 23:58:45 2017
 By Aleksey,,,
 
</metadata>
<defs>
<font id="NIFishTacoRegular" horiz-adv-x="444" >
  <font-face 
    font-family="NI Fish Taco"
    font-weight="500"
    font-stretch="normal"
    units-per-em="1000"
    panose-1="0 0 0 0 0 0 0 0 0 0"
    ascent="968"
    descent="-32"
    x-height="938"
    cap-height="959"
    bbox="0 -78.0455 1415.33 1058"
    underline-thickness="50"
    underline-position="-200"
    unicode-range="U+000D-E957"
  />
<missing-glyph horiz-adv-x="650" 
 />
    <glyph glyph-name=".notdef" horiz-adv-x="650" 
 />
    <glyph glyph-name=".notdef" horiz-adv-x="650" 
 />
    <glyph glyph-name=".null" horiz-adv-x="0" 
 />
    <glyph glyph-name="nonmarkingreturn" horiz-adv-x="333" 
 />
    <glyph glyph-name="controlCR" unicode="&#xd;" horiz-adv-x="222" 
 />
    <glyph glyph-name="space" unicode=" " horiz-adv-x="222" 
 />
    <glyph glyph-name="exclam" unicode="!" horiz-adv-x="201" 
d="M82 11q-25 5 -27 6q-8 3 -18 13q-7 8 -1 20q1 2 3 6.5t4 7.5q3 6 6 7q34 17 65 12q17 -2 20 -14q0 -1 5 -7q7 -9 7 -15t-8 -14q-14 -17 -42 -20h-14v-0.5v-1.5zM11 499q-1 21 -3.5 85.5t-4 108t-2.5 84.5q0 1 -1 67q0 28 27 39q31 12 68 6q15 -2 21.5 -9.5t8.5 -23.5
q2 -29 4 -70q2 -51 5 -146.5t3 -109.5q4 -101 7 -184q0 -22 2.5 -82t3.5 -92q1 -19 -4.5 -26.5t-22.5 -14.5q-39 -14 -75 -6q-15 4 -20.5 10.5t-5.5 22.5q-6 171 -6 180q0 11 -6 161h1z" />
    <glyph glyph-name="quotedbl" unicode="&#x22;" horiz-adv-x="203" 
d="M153 964q-3 -40 -3 -44q-1 -8 -5 -31q-12 -74 -16 -101q-2 -8 -7 -19q-5 -13 -26 -13q-14 0 -15 10q0 3 1 15q6 83 7 92q2 14 5 39.5t4 34.5q1 13 18 18q22 6 37 -1zM72 962q-3 -41 -3 -45q-1 -7 -5 -30q-12 -75 -17 -101q-1 -8 -6 -20q-6 -12 -27 -12q-14 0 -14 10
q0 3 1 15q6 82 7 92q1 14 4.5 39.5t4.5 34.5q1 13 18 18q22 6 37 -1z" />
    <glyph glyph-name="numbersign" unicode="#" horiz-adv-x="572" 
d="M331 347v131l-5 2q-21 0 -59.5 0.5t-49.5 0.5q-9 0 -10 -11q-1 -13 -3 -32t-3.5 -37t-2.5 -32q-1 -8 1 -10.5t10 -2.5l110 -10q1 0 12 1zM91 480h-37q-2 0 -9.5 -0.5t-11.5 -0.5q-10 1 -15 4.5t-7 13.5q-10 43 16 84q8 13 23 13q1 1 27 2q7 0 9 0.5t4.5 2.5t2.5 4v9
q1 21 3 38q1 12 5 17t15 7q41 8 78 -14q15 -9 14 -27v-16v-12q0 -10 9 -11q89 -5 109 -6l4 1q2 6 2 11.5t-0.5 13.5t-0.5 11q-1 4 -1 11v10q-1 18 15 21q52 12 90 -18q9 -6 10 -20q0 -5 1 -19t1 -21q1 -11 2.5 -13t12.5 -4q3 0 13.5 -2t16 -3t13.5 -4q18 -8 16 -25
q-1 -18 -5 -29q-6 -20 -26 -20q-2 0 -31 -3q-9 -1 -11 -3t-3 -11q-2 -22 -4 -59q-2 -41 -3 -60q1 -7 0 -10.5t1.5 -5.5t5 -2.5t9.5 -1.5q20 -2 31 -5q19 -5 20 -24q0 -12 -3 -24q-3 -10 -6.5 -15t-9.5 -7.5t-16 -3.5q-4 -1 -10 -1.5t-11.5 -1t-10.5 -0.5q-11 -1 -12 -12
q-3 -27 -7 -45q-5 -26 -16 -33t-39 0q-24 6 -25 30q0 6 -3 41q-1 6 -2 8t-3 3t-8 1q-70 0 -123 -1q-10 0 -12 -2t-4 -12q0 -3 -1 -10t-2 -12.5t-2 -10.5q-5 -23 -27 -22q-12 1 -33 8q-13 5 -14 19q0 5 -1 13.5t-1 11.5q-1 12 -3.5 14t-14.5 3h-19.5t-19.5 1q-3 0 -10 1
t-11 1q-6 0 -10.5 2.5t-6.5 6.5t-3 9q-8 43 14 78q10 17 29 16q3 -1 35 -1q12 -1 12 10q-1 7 -1.5 47t-0.5 62z" />
    <glyph glyph-name="dollar" unicode="$" horiz-adv-x="465" 
d="M197 177l-4 -5q-10 -41 -22 -91q-1 -2 0 -5q0 -3 3 -4t5 1q6 9 9 17q14 33 9 87zM266 787l-7 1q-26 -3 -41.5 -19t-17.5 -42q-4 -41 5 -89q1 -2 12 -36h3q22 85 46 185zM351 592v103q0 20 -12 40q-1 0 -5 9l-6 -15q-57 -230 -59 -241q-4 -16 3 -32q51 -116 65 -152
q13 -32 21 -66.5t10.5 -73.5t-10.5 -73t-41 -54q-31 -21 -101 -30h-41q-17 0 -21 -2.5t-10 -18.5q-3 -10 -12 -14q-27 -9 -52 1q-7 3 -8.5 6.5t-0.5 11.5q0 2 3 34q-23 10 -24 10q-42 18 -47 67q-1 9 -2 47q-1 17 10 66q2 9 11 13q17 8 36.5 1.5t28.5 -23.5q1 -3 21 -47
q6 17 6 18q35 138 37 143q5 18 -4 39q-51 113 -67 155q-46 116 -25 184q16 50 59.5 77t102.5 35q18 2 45 3q12 0 14 10q0 2 1 5t1.5 5t1 4.5t0.5 4.5q3 16 19 24q2 1 13 8q12 8 29 -4q12 -8 14 -19.5t-3 -24.5q-6 -26 -5.5 -28t21.5 -17q47 -32 47 -85q0 -23 -9 -77
q-3 -20 -11.5 -26t-29.5 -4q-1 0 -14 3z" />
    <glyph glyph-name="percent" unicode="%" horiz-adv-x="706" 
d="M46 28q-26 6 -28 6q-10 4 -13.5 13t1.5 19q1 2 8 12q336 496 484 716q6 8 17 23t13 18q13 19 35 26q35 11 62 4q8 -1 14 -4q20 -10 9 -29q-13 -22 -31 -49q-147 -219 -268 -398q-25 -36 -67 -98.5t-77.5 -114.5t-65.5 -98q-30 -44 -93 -46zM158 628q17 26 9 48
q-10 -31 -9 -48zM64 631q3 48 29 88q13 19 28 25t40 0q32 -7 62 -32q25 -20 30.5 -52.5t-9 -62.5t-43.5 -43q-10 -4 -18 -5q-61 -4 -101 36q-20 20 -18 46zM461 239q-12 -21 -11 -52q17 29 11 52zM356 194q3 48 29 88q13 19 28 25t39 0q37 -7 65 -33q16 -14 24 -35.5
t7 -43.5t-15 -43.5t-39 -34.5q-9 -4 -19 -5q-60 -4 -101 36q-19 19 -18 46z" />
    <glyph glyph-name="ampersand" unicode="&#x26;" horiz-adv-x="630" 
d="M380 100q-65 82 -70 88q-54 67 -78 111q-4 6 -40 59q-1 1 -10 13q-47 -92 -58 -120q-25 -66 -15 -140q6 -41 39.5 -70t79.5 -22q81 13 152 81zM243 533l10 11q50 77 63 98q26 42 39 86q16 46 8 98t-43 88q-40 41 -84 35q-27 -4 -47.5 -25.5t-28.5 -50.5q-16 -58 5 -152
q13 -61 64 -163q1 -1 14 -25zM466 202q21 45 23 48q5 13 12.5 17.5t21.5 2.5q8 -1 10.5 -4.5t1.5 -11.5q-7 -34 -24 -63l-16 -26q41 -56 45 -61q15 -22 27 -43q5 -7 8 -21q7 -23 -14 -34q-11 -5 -25 -8q-35 -7 -68 2q-28 8 -49 40q-1 2 -15 25q-14 -10 -15 -10
q-82 -64 -205 -59q-45 2 -79.5 35.5t-39.5 79.5q-12 93 37 191q3 6 56 108q-16 26 -17 28q-44 71 -44 72q-34 57 -51.5 128t-9 147t49.5 126q30 38 76 56.5t93.5 12t87 -37t58.5 -73.5q40 -92 -31 -215q-51 -88 -92 -140q-1 0 -12 -17q14 -23 15 -25q11 -17 27 -41t31 -47
t27 -41q16 -25 24 -39q18 -32 76 -102z" />
    <glyph glyph-name="quotesingle" unicode="'" horiz-adv-x="122" 
d="M72 955q-3 -40 -3 -44q-1 -8 -5 -31q-12 -74 -17 -100q-1 -9 -6 -20q-6 -13 -27 -13q-14 0 -14 10q0 3 1 15q6 83 7 92q1 14 4.5 39.5t4.5 34.5q1 13 18 18q22 6 37 -1z" />
    <glyph glyph-name="parenleft" unicode="(" horiz-adv-x="307" 
d="M1 360q-1 26 0 52q3 92 22 184.5t57.5 182.5t91.5 161q9 12 16 19q12 12 30.5 13t31.5 -9q8 -7 4 -15q-22 -41 -44 -85q-37 -73 -64.5 -152t-43 -168.5t-14.5 -174t26.5 -168.5t74.5 -151q21 -28 41 -55q13 -19 -9 -25q-23 -6 -47 3.5t-37 29.5q-62 100 -96 183t-40 175z
" />
    <glyph glyph-name="parenright" unicode=")" horiz-adv-x="307" 
d="M256 358q-6 -92 -40 -175t-96 -183q-13 -20 -37 -29.5t-47 -3.5q-22 6 -9 25q20 27 41 55q42 56 66.5 124t31 138.5t1 143.5t-23 145t-41.5 137.5t-55 125.5q-22 44 -44 85q-4 9 4 15q13 10 32 9t30 -13q7 -7 16 -19q79 -106 123 -246t49 -282q0 -26 -1 -52z" />
    <glyph glyph-name="asterisk" unicode="*" horiz-adv-x="361" 
d="M234 742q15 -20 16 -21q15 -22 18 -27q7 -12 -4 -23q-5 -3 -11 -7q-12 -7 -22 3q-6 5 -34 30q-1 0 -12 9q-2 -12 0 -48q0 -3 0.5 -13t0.5 -15q1 -10 -9 -13q-11 -5 -30 -1.5t-27 11.5q-5 6 -6 16q-1 5 -1 10.5t-0.5 12t-0.5 10.5q0 1 -1 20l-14 -13q-3 -4 -9 -10.5
t-9 -9.5q-8 -9 -14 -9.5t-15 7.5q-8 7 -13 15q-12 16 -11.5 25.5t13.5 25.5q1 0 12 14h-32q-11 0 -14.5 3.5t-4.5 13.5q0 11 1 20q3 19 11 26t28 7q6 0 17.5 0.5t15.5 0.5l3 1q-7 9 -7 10q-5 4 -17 15t-18 17q-11 11 -2 24q14 17 36 24q13 3 23 -6q2 -2 28 -25q4 27 5 30
l0.5 6t1.5 9q3 12 7.5 15.5t16.5 2.5q9 -1 14 -3t7.5 -6t3.5 -12q1 -4 5 -50q6 3 11 6.5t11.5 8.5t9.5 7q1 1 10.5 8.5t15.5 10.5q14 9 26 -4q17 -18 1 -37q-5 -6 -11.5 -13.5t-14 -16.5t-12.5 -14q0 -1 -12 -15q53 -7 59 -8q12 -2 21 -4q14 -3 15 -13q2 -19 -8 -29
q-2 -3 -9 -4q-6 0 -40 -3q-1 0 -19 -2z" />
    <glyph glyph-name="plus" unicode="+" horiz-adv-x="571" 
d="M192 450q4 54 4 57q9 77 14 113q4 23 13.5 30t32.5 4q9 -1 19 -5q14 -6 16 -23q6 -41 10 -149q1 -2 3 -34q58 -4 61 -4q76 -10 119 -18q22 -4 28.5 -14.5t1.5 -32.5q-2 -7 -7 -18t-18 -12q-8 -1 -36 -3t-43 -3q-14 -1 -29.5 -1.5t-34.5 -1t-29 -0.5q-1 0 -10 -2l-2 -11
q1 -44 5 -159q0 -1 1 -3v-2q1 -16 -4.5 -23t-21.5 -9q-34 -4 -65 9q-30 12 -30 41q-1 26 -1.5 74.5t-1.5 64.5v20l-19 2q-30 -1 -111 -3h-7.5h-8.5h-7q-16 -1 -22 4t-8 20q-6 38 15 74q10 17 31 17q14 0 30.5 0.5t29.5 0.5h31h30h21z" />
    <glyph glyph-name="comma" unicode="," horiz-adv-x="197" 
d="M59 -5q-24 8 -25 9q-24 8 -29 32q-7 30 18 43q37 17 71 2q23 -9 37 -32t10 -50q-5 -36 -30.5 -57t-62.5 -20q-9 1 -19 5q-4 1 -4.5 4.5t2.5 6.5q6 4 10 9t7 11t5.5 11.5t5 13t4.5 12.5z" />
    <glyph glyph-name="hyphen" unicode="-" horiz-adv-x="571" 
d="M168 354q-75 -2 -113 -4h-23q-14 0 -20 4.5t-8 18.5q-6 38 15 75q9 17 30 17q96 4 171 -1q12 -1 47 -3t55 -3q41 -3 103 -11q32 -4 59 -9q15 -3 22.5 -8.5t9.5 -15t-2 -24.5q-1 -6 -6.5 -17.5t-18.5 -12.5q-6 0 -30.5 -2.5t-37.5 -3.5q-74 -3 -118 -4q-10 0 -135 2v1.5
v0.5z" />
    <glyph glyph-name="period" unicode="." horiz-adv-x="165" 
d="M55 10q-29 7 -31 7q-18 6 -21 25l-3 17q1 12 4.5 20t10 13t17.5 7q34 9 64 -9q18 -11 19 -32q0 -20 -6.5 -29t-26.5 -15q-1 0 -27 -4z" />
    <glyph glyph-name="slash" unicode="/" horiz-adv-x="701" 
d="M416 469q-146 -208 -294 -407q-8 -11 -20 -11t-22 3q-29 9 -52 32q-11 10 -22 29q-9 14 3 29q82 107 256 359t277 380q13 16 35 10q41 -12 65 -46q12 -18 3 -36q-14 -31 -20 -41q-104 -152 -209 -301z" />
    <glyph glyph-name="zero" unicode="0" horiz-adv-x="442" 
d="M238 138q0 -1 1 -1q85 70 100 236q8 96 -5 210q-8 73 -26 113q-26 61 -74 83q-6 2 -10 1q-4 0 -9 -7q-49 -56 -62 -120q-31 -145 -15 -283q17 -148 100 -232zM392 466q-1 -130 -35 -252q-27 -99 -77 -132q-36 -22 -78 -18.5t-77 28.5q-62 43 -94 139q-31 93 -31 232
q1 150 44 238q32 66 91 105.5t126 28.5q11 -2 26 -12q3 -2 10 -6t11.5 -7.5t8.5 -8.5q18 -19 31 -46.5t20 -52t12 -60t6.5 -57t3.5 -56.5q2 -32 2 -63z" />
    <glyph glyph-name="one" unicode="1" horiz-adv-x="197" 
d="M3 436q0 23 -1 74t-1.5 89.5t-0.5 73.5q0 12 3 152q0 2 0.5 5.5t0.5 6.5q0 32 31 42t55 4q22 -6 23 -26q1 -7 3.5 -25.5t2.5 -28.5q11 -173 12 -223q2 -44 9 -311q0 -15 1 -49.5t1 -53.5q2 -66 4 -105q1 -20 -15 -30q-48 -28 -98 -13q-12 3 -15.5 9t-4.5 19
q-4 190 -8 315q0 4 -3 75h1z" />
    <glyph glyph-name="two" unicode="2" horiz-adv-x="406" 
d="M155 98q23 0 54.5 1t62.5 2.5t55 0.5q11 0 21 -5q13 -6 2 -17q-13 -14 -38.5 -18.5t-48 -3t-43.5 -0.5q-49 -3 -98 -8q-7 -1 -20.5 -3t-22 -3t-20.5 -0.5t-21 3.5q-13 4 -16.5 10t-1.5 20q2 16 5 35t6 39.5t5 34.5q20 131 67 267q6 16 21 55t22 60q21 63 40 137
q7 27 13 77q1 16 -2 40q-1 12 -8 16.5t-17 0.5q-20 -9 -37 -24q-28 -23 -47 -62q-22 -44 -31 -85q-3 -15 -18 -22t-28 -1q-12 5 -9 19q5 34 9 45q25 69 61 105q49 49 115 59q42 7 73 -12q23 -15 36 -43t15 -60q3 -38 -5.5 -81.5t-18.5 -73t-28 -75.5q-27 -68 -56 -173
q-21 -76 -47 -243q0 -1 -1 -14z" />
    <glyph glyph-name="three" unicode="3" horiz-adv-x="390" 
d="M197 450q40 -35 42 -37q26 -25 38 -65q44 -150 -6 -239q-17 -30 -46 -50t-62 -25q-38 -5 -72.5 10t-57 46.5t-26.5 71.5q-4 35 1 61q2 10 5 17.5t8 13t12 8.5t16 5q13 2 23 -5v-6q-17 -55 5.5 -104t72.5 -74q30 38 35 76q10 76 -4 145q-5 22 -6 28q-5 43 -43 82
q-11 11 -26 12q-13 1 -23 7q-21 10 -6 29q4 5 10 11q41 35 69 98q44 100 56 174q3 19 3 40q0 14 -11.5 27.5t-24.5 14.5q-6 1 -17 -3q-27 -10 -51 -35.5t-39.5 -57t-19.5 -61.5q-2 -13 -15.5 -19t-24.5 -2q-12 5 -11 16q2 24 5 35q6 19 18 44q31 67 97.5 102t134.5 16
q31 -8 50 -25q36 -33 32 -95q-5 -93 -73 -208q-27 -45 -55 -70q-1 0 -13 -9z" />
    <glyph glyph-name="four" unicode="4" horiz-adv-x="433" 
d="M241 417q2 48 2 50q5 243 24 384q2 17 7 26t14.5 13.5t25.5 5.5q28 2 38 -6t13 -37q2 -20 7 -97q5 -64 6 -128t-1 -168.5t-2 -128.5q0 -11 0.5 -91t-1.5 -91v-6q-5 -102 -34 -116q-35 -16 -71 -8q-29 7 -34 82q-2 42 2 142t4 105v25q-15 2 -16 2q-7 0 -26.5 -0.5
t-30.5 -0.5q-71 0 -124 2q-8 0 -23 6q-14 5 -14 20q0 5 -1.5 16t-1.5 17q-3 225 -4 342q0 6 5 44q3 19 21 28q41 20 83 8q18 -6 20 -27q3 -23 3.5 -47.5t1 -61.5t0.5 -48q0 -20 0.5 -44t1 -42.5t1.5 -44.5t1 -43q0 -8 0.5 -33.5t1.5 -38.5q0 -11 2.5 -13t12.5 -2q8 1 86 5z
" />
    <glyph glyph-name="five" unicode="5" horiz-adv-x="412" 
d="M130 85q17 10 30 31q42 69 54 135q22 117 2 216q-4 22 -29 49q-5 5 -24 6q-11 1 -20 -11q-8 -11 -22 -17q-40 -17 -80 -7q-16 5 -22 12.5t-7 25.5q-3 55 0 134q2 49 17 123q3 18 6 34q3 28 31 34q20 5 36 5q66 1 165 0q9 0 33 -3q5 0 10 -3t5.5 -7.5t-3.5 -7.5
q-10 -6 -19 -8q-15 -3 -33 -4q-20 0 -59.5 -1t-43.5 -1q-1 0 -19 -1q3 -30 4.5 -66t2 -57.5t0.5 -68v-59.5q2 -2 5 -3t5 -1t5.5 0.5t5.5 0.5q49 1 71 -5q74 -20 101 -91q27 -70 20 -159q-2 -27 -10 -69q-12 -63 -55 -137q-26 -44 -76 -65q-57 -23 -118 -11q-29 6 -48 31
q-60 82 -34 187q2 12 7 15.5t17.5 3.5t17.5 -3.5t8 -16.5q2 -8 4 -18t4 -20.5t3 -17.5q13 -61 52 -104z" />
    <glyph glyph-name="six" unicode="6" horiz-adv-x="407" 
d="M294 332q-2 20 -12 36q-8 12 -17 11q-5 -1 -11 -7t-12 -12.5t-10 -12t-9.5 -14.5t-8.5 -13t-9 -15t-7.5 -13.5t-8.5 -15t-7 -14.5q-6 -10 -15 -35q-3 -6 -1 -11q11 -33 29 -52q8 -9 16 -2q26 23 31 30q59 82 52 140zM215 808h-1q-3 -2 -5 -8q-82 -220 -67 -425
q18 13 19 14q72 46 139 21q19 -7 30 -18q16 -16 21 -47q8 -45 -9 -106q-19 -66 -49 -104.5t-87 -43.5q-49 -6 -92 16.5t-67 66.5q-26 48 -35 132q-19 176 19 337q21 89 57 139q24 31 56 50.5t67 20.5q59 2 100 -50q22 -26 26 -56.5t-2 -63.5q-2 -13 -8.5 -18t-20.5 -4
q-16 1 -20 17q-2 7 -5.5 22.5t-6 26.5t-7 25.5t-10 24.5t-14.5 18.5t-20 12.5q-5 1 -8 0z" />
    <glyph glyph-name="seven" unicode="7" horiz-adv-x="452" 
d="M265 822q-17 1 -18 1q-16 0 -56 -0.5t-62 -0.5q-62 0 -87 1q-11 1 -34 8q-2 1 -5 4t-3 5q1 7 8 11q9 5 20 6q87 10 107 11q31 1 88 2t74 1q38 1 80 -15q10 -4 15 -8.5t7 -11.5t-1 -18q-5 -29 -20 -89q-18 -78 -49 -208t-59 -245.5t-49 -208.5q-8 -33 -39 -40
q-37 -8 -70 1q-8 2 -14 5q-12 6 -15 12t1 20q12 52 38.5 163.5t29.5 123.5q22 91 63.5 264t46.5 193q0 1 3 13z" />
    <glyph glyph-name="eight" unicode="8" horiz-adv-x="442" 
d="M302 648q1 24 -3 47q-10 63 -51 93q-9 7 -16 7q-6 0 -14 -7q-49 -40 -68 -133q-11 -58 -5 -100q2 -17 11 -42t26 -45.5t35 -9.5q41 23 52 50q31 78 33 140zM205 72q3 0 8 3q46 26 69 85q18 46 18 112q1 78 -29 118q-14 19 -30 23q-23 6 -42 -14.5t-30.5 -53.5t-18 -62
t-8.5 -49q-3 -45 10 -87t43 -69q5 -6 10 -6zM257 442l21 -4q34 -8 54 -36t25.5 -64.5t3 -73t-10.5 -68.5q-9 -33 -26 -62.5t-42.5 -51.5t-55.5 -33q-28 -9 -63 -10q-52 -1 -85 19q-32 19 -50.5 55.5t-20.5 77.5q-6 97 43 188q4 6 8.5 11.5t12 13.5t9.5 11q1 1 13 11l-11 7
q-29 14 -46.5 41t-23 60t-4.5 64.5t8 63.5q18 90 64 131q35 31 87 38t96 -8q37 -11 56 -28q34 -31 40.5 -88t-5 -108.5t-32.5 -93.5q-13 -28 -46 -50q-1 0 -19 -13z" />
    <glyph glyph-name="nine" unicode="9" horiz-adv-x="461" 
d="M163 543q50 18 84 92q10 22 19.5 48.5t16 60t3 53t-26 44t-38.5 18.5q-6 -2 -13 -9q-39 -37 -57.5 -92.5t-16.5 -117.5q1 -66 29 -97zM255 514q-34 -36 -95 -38q-39 -1 -66 5q-39 11 -61 44q-34 51 -31 115q4 117 111 212q37 33 73 40q69 15 113 -23q11 -10 24 -4
q23 9 54 2q22 -6 25 -28q8 -73 6 -103q-3 -30 -7 -88.5t-6 -85.5q-3 -35 -9 -99.5t-8 -87.5q-2 -22 -4.5 -48t-4.5 -54t-4 -47q-10 -117 -14 -168q-2 -20 -18 -27q-50 -22 -102 0q-17 7 -15 26q0 8 1 17.5t1.5 19.5t1.5 18q4 45 13.5 150.5t10.5 116.5q0 8 11 135z" />
    <glyph glyph-name="colon" unicode=":" horiz-adv-x="171" 
d="M62 237q-30 7 -32 8q-17 5 -21 24l-2 17q1 19 8 28t23 13q34 8 64 -9q19 -11 19 -32q0 -20 -6.5 -29.5t-26.5 -14.5q-1 -1 -26 -5zM55 434q-29 6 -31 7q-18 5 -21 24q-3 17 -3 18q2 18 9 27t23 13q34 9 64 -9q18 -11 19 -32q0 -20 -6.5 -29t-26.5 -15q-1 0 -27 -4z" />
    <glyph glyph-name="semicolon" unicode=";" horiz-adv-x="197" 
d="M63 340q-30 7 -32 8q-17 5 -20 24l-3 17q1 19 8 28t23 13q34 8 64 -9q19 -11 19 -32q0 -20 -6.5 -29.5t-25.5 -14.5q-2 -1 -27 -5zM59 14q-24 9 -25 9q-24 9 -29 33q-7 30 18 42q37 17 71 3q23 -9 37 -32t10 -50q-5 -36 -30.5 -57.5t-62.5 -19.5q-9 1 -19 4
q-4 2 -4.5 5.5t2.5 5.5q7 5 12 12.5t7.5 13.5t6.5 16z" />
    <glyph glyph-name="less" unicode="&#x3c;" horiz-adv-x="697" 
d="M207 410l18 -7q197 -74 334 -133q13 -6 37.5 -18t30.5 -15q21 -10 19 -34q-1 -28 -14 -49q-10 -16 -27 -11q-72 19 -81 22q-164 52 -413 147q-6 2 -13.5 5t-13.5 5.5t-13 5t-13.5 5t-13.5 5t-14 4.5q-12 5 -17 13t-6 20q-1 8 -3 23t-3 19q-1 14 -1 23q0 26 25 36
q344 131 503 181q23 7 69 17q12 3 18 0.5t12 -13.5q14 -23 13 -51q-1 -19 -16 -27q-58 -30 -65 -32q-133 -59 -332 -133q-1 0 -20 -8z" />
    <glyph glyph-name="equal" unicode="=" horiz-adv-x="577" 
d="M183 270h-121q-7 0 -19.5 1.5t-17.5 1.5q-15 0 -19 16q-10 46 16 84q8 12 26 12h47.5h47.5q29 -1 135 -8q47 -3 70 -5q80 -9 132 -16q15 -2 20.5 -9t4.5 -23q0 -11 -4 -22q-7 -20 -27 -21q-16 -1 -53 -3.5t-56 -3.5q-17 -1 -182 -6v2zM174 510q-56 -1 -113 -3
q-22 -1 -23 -1q-14 0 -20 5t-8 19q-6 38 15 74q9 17 30 18q96 4 171 -1q13 -1 32.5 -2t37 -2t32.5 -3q41 -3 103 -10q32 -4 59 -10q22 -4 28.5 -14.5t1.5 -32.5q-1 -7 -6.5 -18t-18.5 -12q-6 -1 -30.5 -3.5t-37.5 -2.5q-74 -4 -118 -4q-10 0 -135 2v1z" />
    <glyph glyph-name="greater" unicode="&#x3e;" horiz-adv-x="697" 
d="M440 410q-19 8 -20 8q-198 74 -332 133q-7 2 -65 32q-15 8 -16 27q0 28 13 51q7 11 13 13.5t18 -0.5q45 -10 68 -17q159 -50 503 -181q25 -10 25 -36q0 -9 -1 -23q-1 -4 -3 -19t-2 -23q-2 -25 -24 -33q-11 -3 -81 -30q-249 -95 -412 -147q-10 -3 -82 -22q-17 -5 -27 11
q-13 21 -14 49q-1 24 19 34q6 3 30.5 15t37.5 18q137 59 334 133q1 0 18 7z" />
    <glyph glyph-name="question" unicode="?" horiz-adv-x="460" 
d="M221 116q32 -7 34 -8q15 -6 18.5 -19.5t-6.5 -26.5q-11 -14 -28 -17q-24 -4 -49 -5q-8 0 -20 5q-13 5 -16.5 19t4.5 25q15 20 44 24q1 0 19 1v0.5v1.5zM233 883q25 0 48 -7q34 -10 62 -33t45.5 -54.5t20.5 -66.5q2 -35 -10 -64q-11 -25 -33.5 -50t-45.5 -45.5t-45.5 -43
t-37 -50t-15.5 -58.5q-1 -14 7 -35t15.5 -38.5t11.5 -34t-5 -27.5t-33 -13q-29 -4 -53 3q-23 6 -33 24q-46 75 -36 142q4 28 19.5 56.5t41.5 55.5t46.5 45t49.5 40q35 27 45 41q27 39 12 89q-12 42 -51 75q-11 9 -19 11q-10 4 -25 0q-51 -13 -85 -66q-5 -8 -9.5 -16.5
t-8.5 -17.5t-7 -17t-6.5 -18.5t-5.5 -17.5t-5.5 -19t-5.5 -18t-4 -30q-1 -9 -2.5 -27t-2.5 -25q-1 -12 -12 -15q-29 -7 -37 22q-19 61 -2 130t63 114q29 29 68.5 44.5t79.5 14.5z" />
    <glyph glyph-name="at" unicode="@" horiz-adv-x="972" 
d="M366 298q43 41 56 68q18 37 33 71q3 7 4 17q2 55 3 110q1 36 18 53q-7 9 -8 9q-13 14 -19.5 14t-19.5 -13q-40 -41 -64 -92q-41 -86 -27 -171q3 -21 7 -37q4 -18 17 -29zM485 274q-24 -16 -25 -17q-20 -12 -44 -19t-49 -7.5t-49 4.5t-45.5 18t-35.5 33q-18 26 -24 69
q-15 103 40 193q41 67 108 103.5t135 12.5q19 -6 39 -32q10 -14 18 -17q9 -4 14 -21q15 -48 21.5 -148t21.5 -149q45 51 64 133q37 162 21 292q-11 97 -72 146q-35 28 -105 47q-52 15 -85 11q-64 -6 -131 -76q-102 -107 -139 -256.5t3 -291.5q36 -125 116 -195
q63 -55 194 -43q55 5 94.5 20.5t76.5 48.5q89 82 129 170q60 129 12 293q-1 5 -3.5 16t-4.5 16q-1 3 -2.5 8t-2.5 8.5t-2.5 7.5t-4.5 7t-7 6q10 10 26 5q18 -5 29 -24q52 -88 56 -200t-40 -214.5t-124 -166.5q-109 -86 -286 -78q-126 5 -208 57q-64 41 -113 119
q-56 88 -75.5 193t-0.5 209q19 110 80 203t153 145q93 54 208.5 48.5t198.5 -71.5q48 -39 64.5 -90.5t15.5 -122.5q-1 -67 -1 -118q1 -16 1.5 -38t1 -43.5t0.5 -38.5q0 -68 -27 -139q-21 -54 -68 -70q-86 -29 -167 44z" />
    <glyph glyph-name="A" unicode="A" 
d="M162 675q-2 -3 -2 -4q-42 -232 -57 -321q-1 -4 -2 -9.5t-2 -8.5t-1.5 -8.5t0.5 -8.5h119q-36 249 -52 354zM222 275q-10 1 -11 1q-47 0 -110 2q-8 0 -10 -2t-3 -11q-4 -16 -13.5 -65t-14.5 -76q-5 -22 -9 -36q-4 -12 -19.5 -16t-25.5 4q-6 5 -4 18q5 48 7 61
q38 228 55 327q22 128 61 344q4 23 21 102q1 6 2.5 10t4.5 6.5t7 3.5t10 1q18 1 27 -5q6 -4 15 -6q22 -5 29 -27q16 -47 31 -116q10 -51 39 -239q1 -9 14 -94t19 -129q7 -45 19 -128.5t15 -99.5q2 -14 4.5 -32t5 -35.5l4.5 -31.5q3 -19 -12 -26q-16 -7 -32 -10q-29 -5 -59 5
q-23 8 -26 30q-2 15 -22 155q-1 5 -6.5 43.5l-8.5 59.5z" />
    <glyph glyph-name="B" unicode="B" horiz-adv-x="403" 
d="M137 70q0 -4 17.5 4t35 18.5t20.5 13.5q32 29 31 79q0 60 -25.5 114.5t-70.5 90.5q0 1 -12 7q2 -278 4 -327zM117 927q9 -58 11.5 -124.5t2 -147.5t1.5 -126l15 9q29 22 52 53q33 44 42 103t-6 113q-7 27 -22.5 55.5t-41.5 49.5t-54 15zM137 27v-19q2 -20 -18 -29
q-30 -13 -66 -7q-10 1 -27 7q-19 7 -18 29q0 35 -1 121q0 88 -2 249.5t-2 224.5q-1 23 -1 60.5t-0.5 69.5t-0.5 60q-1 32 10 150q2 16 18 22q41 14 73 -3q11 -6 27 -5q31 1 40 1q57 -3 102.5 -55.5t59.5 -113.5q17 -74 -8.5 -144.5t-83.5 -120.5q-40 -34 -95 -46
q-1 0 -2 -0.5t-2 -0.5q-6 -5 -7 -6q-2 -7 6 -9q55 -15 123 -90q57 -63 73 -144q8 -45 0 -79q-9 -38 -41.5 -66t-74.5 -42q-38 -13 -70 -12q-1 0 -12 -2z" />
    <glyph glyph-name="C" unicode="C" horiz-adv-x="433" 
d="M208 68q1 0 7 6q4 4 8 9q2 2 15 18q14 18 31 41q4 6 8 11q12 17 32 49.5t28 44.5l2 3.5t3 5.5q4 5 14 7t15 -2q3 -4 3 -10q0 -9 -3 -19q-8 -25 -12 -36q-5 -11 -11 -25.5t-10.5 -25.5t-10 -24.5t-9.5 -25.5l-3 -6q-7 -20 -11.5 -30t-14.5 -23.5t-24 -20.5
q-20 -11 -56 -13q-63 -3 -97 22q-29 21 -50 77q-63 160 -61 417q1 152 25 248q18 77 54 117q26 30 65.5 45t79.5 11q44 -5 84 -33.5t53 -69.5q20 -61 21 -133q0 -13 -5 -28q-3 -10 -13 -14t-20 1q-4 3 -6 10q-11 37 -13 49q-5 26 -8 41t-10.5 40t-16.5 41.5t-24 32.5t-34 24
q-8 3 -14 2q-4 -2 -10 -9q-33 -44 -52 -116q-42 -160 -34 -331q8 -168 64 -325q1 -4 2.5 -9t3.5 -10.5t3 -8.5q3 -8 5 -13q4 -11 6 -12h1z" />
    <glyph glyph-name="D" unicode="D" horiz-adv-x="446" 
d="M112 840v-14q0 -5 0.5 -14.5t1 -17.5t0.5 -15q6 -192 4 -685v-31q72 51 109 131.5t40 174.5q2 53 -3 105.5t-19.5 107.5t-37.5 98q-21 37 -31 59q-19 43 -64 101zM395 374q-6 -114 -65.5 -206t-162.5 -148q-9 -5 -28 -10q-1 -1 -6.5 -2t-7 -1.5t-5 -2.5t-5.5 -4t-4 -6
q-1 -1 -4 -3q-48 -23 -95 1q-10 5 -10 16v8.5v6.5q-2 290 -2 314q1 158 4 363q1 24 7 164q1 20 3 54q1 13 5.5 18.5t17.5 9.5q21 6 46 0q10 -2 15 -6q15 -14 51.5 -38.5t52.5 -41.5q35 -37 89 -127q91 -150 103 -295q3 -32 1 -64z" />
    <glyph glyph-name="E" unicode="E" horiz-adv-x="348" 
d="M110 937h84q31 0 56 -4q14 -1 27 -8q8 -5 8 -11.5t-9 -10.5q-13 -8 -28 -9q-9 -1 -37 0q-12 1 -27.5 2l-31 2t-27.5 1l-12 -1q5 -105 15 -317q62 3 66 3q51 1 69 0q11 0 25 -8q7 -4 7.5 -10.5t-7.5 -9.5q-16 -8 -30 -8q-13 -1 -109 1h-19q-2 -24 0 -66t3 -52q0 -22 1 -62
t2 -56v-37.5t0.5 -42.5t0.5 -37q0 -8 2 -118h12q89 -2 104 -3q13 -1 29 -8q8 -3 10 -12q2 -10 -11 -14q-23 -7 -32 -8q-32 0 -62 4q-18 3 -48 -2q-3 -23 -3 -25q-3 -26 -29 -33q-31 -9 -61 0q-25 7 -28 33q0 1 -1 9.5t-1 12.5q-9 216 -10 256q-3 102 -5 264q-2 140 -3 296
q0 22 3 97q0 9 2.5 15t7.5 10t14 6q25 8 53 1q26 -6 28 -31z" />
    <glyph glyph-name="F" unicode="F" horiz-adv-x="352" 
d="M89 908q2 -60 5 -168.5t4 -141.5l11 -1q1 0 74 2q28 1 39 -6q9 -5 10 -11q2 -8 -10 -12q-17 -5 -26 -5q-1 0 -81 1q-1 0 -18 -1l-1 -15q0 -193 1 -310q0 -6 0.5 -70t-0.5 -98q0 -44 -5 -61q-1 -1 -1 -17q0 -11 -11 -15q-28 -13 -58 0q-8 3 -11 16q-3 21 -5 46.5t-2.5 43
t0 48.5t0.5 44q-4 332 -4 501q0 37 5 220q0 15 4 40q3 24 27 27q8 2 21 1q22 -2 28 -28h20q146 7 157 8q11 0 29 -5q8 -3 10 -11t-11 -12q-14 -4 -24 -5q-16 -1 -56 -2q-12 0 -121 -3z" />
    <glyph glyph-name="G" unicode="G" horiz-adv-x="482" 
d="M276 59q0 -1 1 -2q42 45 61 119q5 22 9.5 49t6.5 45t4.5 52t4.5 47v10q-18 1 -37 -2q-35 -7 -48 -7q-17 -1 -36 8q-10 4 -10 11t10 12q41 20 91 17.5t91 -20.5q9 -4 6 -16q-13 -47 -29.5 -141.5t-28.5 -138.5q-15 -58 -58 -91t-99 -14q-69 24 -108 130q-30 84 -50 249
q0 2 -1 8q-5 41 -7.5 63.5t-6 66t-3.5 71t2 68.5t8 69.5t16.5 64t26 61t38.5 51t52 43.5q48 31 93 17q35 -11 60 -49q16 -25 29.5 -56.5t21 -64t8.5 -63.5q1 -12 -2 -36q-1 -12 -15.5 -17t-25.5 4q-5 3 -7 11q-1 6 -7 36.5t-11 46.5q-26 91 -69 148q-4 5 -8 5q-3 1 -8 -3
q-26 -22 -42 -62q-19 -47 -25 -128q-13 -165 13 -366q7 -52 9 -66t10 -59t15.5 -67.5t22 -55.5t32.5 -58z" />
    <glyph glyph-name="H" unicode="H" horiz-adv-x="452" 
d="M130 444l8 -1q74 2 118 4q10 0 12 2t2 11q-1 167 -2 237v122q2 43 7 105q3 29 35 32q15 2 30 0q32 -3 36 -33q3 -14 7 -56q3 -25 3 -36q2 -37 5 -139q6 -202 6 -226q3 -134 5 -298q1 -49 -1 -124q-1 -9 -3 -26.5t-2 -21.5q-1 -16 -19 -22q-35 -12 -70 0q-17 6 -19 22
q0 6 -4 34.5t-5 44.5q-2 45 -5 150q0 25 -0.5 53t-1 61.5t-1.5 53.5l-1 18q-65 5 -137 -1l-2 -12q2 -175 4 -288v-26.5t0.5 -26.5t0.5 -27v-27q1 -12 -3.5 -18t-16.5 -10q-44 -15 -88 0q-12 4 -16 10t-4 18q-1 18 -1.5 84t-0.5 101q-1 48 -2 145.5t-2 147.5q-1 172 -2 207
q0 96 15 229q2 22 12.5 30.5t35.5 8.5q8 -1 19 -3q19 -4 23 -22q5 -26 6 -39q16 -134 16 -205q1 -33 1.5 -71t1 -80.5t0.5 -71.5v-20z" />
    <glyph glyph-name="I" unicode="I" horiz-adv-x="192" 
d="M65 892q-30 -1 -46 12q-24 19 -3 42q12 12 32 13q25 2 55 -8q21 -7 21 -24q1 -17 -19 -27q-17 -9 -40 -8zM6 363q-4 261 -4 285q-2 107 -2 122q0 1 6 58q2 17 20 24q37 14 74 -1q15 -5 19 -21q8 -29 9 -82q0 -2 2 -144q1 -39 4 -224l2 -72t2 -73q3 -189 3 -211
q1 -29 -29 -38q-36 -10 -71 1q-15 5 -21.5 12.5t-6.5 22.5q-1 44 -2 128.5t-2 126.5q0 15 -0.5 24.5t-1 14t-0.5 9.5t-0.5 14.5t-0.5 23.5z" />
    <glyph glyph-name="J" unicode="J" horiz-adv-x="347" 
d="M124 31q9 8 13 25q14 48 15 90q1 30 1.5 88.5t1.5 85.5q4 154 6 309q0 16 0.5 60.5t1 66t2.5 57t7 65t12 58.5q7 27 32 30q18 3 33 0q16 -3 22.5 -10t8.5 -23q3 -19 4 -51q5 -85 6 -190t0 -166.5t-4.5 -198t-4.5 -174.5q-2 -108 -40 -146q-38 -40 -121 -28q-24 4 -37 11
q-5 4 -10.5 9t-10 10t-9 13t-7.5 13t-7 15t-6 14t-6 14t-5 13q-26 63 -16 140q1 2 1 16q0 8 2.5 11t9.5 5q15 2 30 1q11 -1 14.5 -6t2.5 -17q-3 -21 -4 -35q-5 -64 34 -134q17 -31 28 -41z" />
    <glyph glyph-name="K" unicode="K" horiz-adv-x="458" 
d="M136 291v-20q1 -46 2 -132t1 -105v-8v-8q2 -17 -16 -25q-30 -14 -70 -8q-10 1 -24 7q-19 7 -19 27q0 34 -1 147q0 7 -4 261q-3 228 -3 265q-2 141 -2 168l4 70q1 24 25 30q32 9 65 1q25 -7 27 -30q0 -3 2 -23.5t3 -30.5q2 -91 4 -190q0 -27 3 -39l7 10q109 184 110 187
q36 59 60 95q12 19 34 25.5t43 -1.5q24 -8 13 -30q-7 -16 -15 -35t-16 -37t-16 -34q-93 -184 -198 -357q-7 -11 -2 -21q63 -118 86 -167q48 -96 97 -207q6 -13 15 -61q2 -6 1 -10.5t-4.5 -6.5t-10.5 -3q-18 -3 -40 0q-3 0 -6 1t-5.5 4t-3.5 4t-4.5 5.5l-3.5 4.5
q-33 43 -62 109q-5 13 -67 156q0 1 -5 13q-2 0 -4 -1z" />
    <glyph glyph-name="L" unicode="L" horiz-adv-x="368" 
d="M142 43q66 2 71 2q6 0 17 0.5t19.5 1t16.5 0.5q5 -1 31 -5q4 -1 8 -3q13 -8 13 -16q0 -9 -14 -14q-19 -7 -45 -7q-13 1 -39 1t-38 1q-2 0 -38 1q-3 -12 -12 -18.5t-15.5 -8t-21.5 -3.5q-30 -4 -58 7q-25 10 -24 35q0 25 -2 176v77q-1 14 -2 80.5t-1 102.5q-1 45 -1.5 127
t-0.5 114q-1 18 -3 26t-2 25q-2 109 11 186q1 2 2 7t1 7q3 19 23 23q25 5 46 -1q24 -7 28 -30q11 -71 11 -73q6 -93 7 -117q1 -15 2.5 -34.5t1.5 -38.5l2 -185q0 -63 1 -79q0 -22 0.5 -58t1 -67t0.5 -58q1 -32 1.5 -92.5t0.5 -72.5q0 -1 1 -19z" />
    <glyph glyph-name="M" unicode="M" horiz-adv-x="590" 
d="M437 584q-7 -17 -8 -18q-20 -68 -59 -198.5t-57 -190.5q-4 -14 -9.5 -21t-13.5 -10t-23 -2q-15 0 -33 5q-21 5 -28 28q-4 14 -17.5 56t-19.5 65t-71 267q-3 10 -7 16q-1 -21 -1 -22q0 -37 -0.5 -118.5t-1.5 -143t-2 -118.5q-2 -103 -10 -175q-1 -13 -4.5 -17t-16.5 -6
q-12 -1 -32 4q-17 4 -18 22q0 14 -2 36.5t-2 41.5q-1 90 0 222q1 250 3 495q0 23 3 129q1 4 1.5 11t0.5 10q1 12 13 14q31 8 57 -4q11 -5 13 -18q1 -3 9 -28q44 -129 46 -135q50 -164 113 -416q0 -1 5 -16q6 15 6 16q16 58 148 534q3 10 5 15q4 12 15 16q39 13 75 -8
q13 -7 10 -20q-1 -8 5 -14q4 -5 5 -13q4 -33 4 -47q1 -169 0 -215q-1 -90 -8 -241q-3 -64 -10 -167q-2 -29 -5.5 -60t-5.5 -54q-5 -59 -8 -82q-1 -12 -8 -27q-2 -5 -11 -8q-29 -11 -57 6q-7 5 -10 13q-4 12 -3 24q0 19 -0.5 53.5t0.5 52.5q5 133 8 198q2 31 4 66.5t5 78.5
t5 67q0 3 2 51l1 1v-1z" />
    <glyph glyph-name="N" unicode="N" horiz-adv-x="422" 
d="M92 511v-13.5v-13.5q-1 -326 -1 -389q0 -12 0.5 -32t0.5 -33q0 -15 -11 -20q-28 -13 -57 -1q-13 6 -13 25q0 28 -3 81t-3 82q-2 232 -5 653q0 31 1 81q1 16 5.5 22.5t18.5 10.5q48 14 75 -31q25 -39 41 -102q24 -89 113 -430q5 -20 15 -58.5t14 -52.5q2 -9 7 -15
q1 20 1 21q1 172 3 628v1v3q0 8 1 13.5t4 9.5t7.5 6t12.5 2q19 2 36 -2q10 -2 13.5 -7t3.5 -17q-1 -57 -2 -108q-1 -34 -6 -235q0 -18 -1 -51.5t-1.5 -60.5t-0.5 -51q-1 -20 -2.5 -107t-2.5 -134q-1 -18 -2 -40.5t-2 -46.5t-2 -41q-1 -16 3 -35q2 -12 -0.5 -18.5
t-11.5 -12.5q-8 -4 -18 -7q-34 -10 -70 1q-23 7 -30 34q-16 64 -95 367q-22 84 -29 110q0 1 -4 14h-2h-1z" />
    <glyph glyph-name="O" unicode="O" horiz-adv-x="468" 
d="M255 30q16 20 17 22q80 129 95 376q8 124 -8 239q-10 73 -23 115q-2 8 -5 19.5t-5 21t-5.5 20t-7.5 20t-10 17.5q-12 19 -32.5 27.5t-39.5 0.5q-20 -9 -38 -45q-37 -73 -50 -159t-13 -195q-1 -70 2 -122t12.5 -115.5t32 -118.5t58.5 -100q0 -1 20 -23zM415 487
q-6 -226 -91 -428q-12 -30 -24 -43q-22 -25 -60 -26.5t-68 15.5q-83 42 -126 151q-30 77 -39 202q-12 173 16 305q26 121 87 222q29 47 66 60q36 13 90 0t79 -44q14 -18 25 -57q49 -173 45 -357z" />
    <glyph glyph-name="P" unicode="P" horiz-adv-x="450" 
d="M105 930v-14q17 -165 22 -460q1 -15 5 -21q25 18 26 19q53 43 82.5 107.5t26.5 132.5q-7 148 -142 228q-1 1 -20 8zM129 373v-20v-158.5v-158.5q0 -17 -5 -24t-21 -12q-39 -12 -78 1q-15 5 -20 11.5t-5 23.5q6 548 19 770q1 31 13 113q2 15 11 31q4 8 15 10q19 4 46 6
q52 5 102 -16t86.5 -58t61.5 -85.5t31 -98.5q11 -86 -27 -168.5t-110 -129.5q-27 -17 -55 -24q-5 -1 -64 -13z" />
    <glyph glyph-name="Q" unicode="Q" horiz-adv-x="495" 
d="M336 215q12 71 13 75q10 60 14 90.5t8 80.5t3 92q-6 138 -47 287q-11 41 -24 60q-23 31 -53 28q-37 -4 -64 -75q-29 -76 -37 -116q-13 -55 -14 -166q-4 -61 -1 -130.5t10 -131t30 -125t61 -113.5q13 -17 25 -26q17 24 19 26q7 11 1 24q-30 63 -71 173q-7 19 -8 23
q-6 22 14.5 30t47.5 3q20 -4 30 -26q5 -11 36 -73q0 -1 7 -10zM310 28h-3q-36 -31 -74 -28t-74.5 30t-64 62.5t-42.5 69.5q-20 47 -29.5 101t-12.5 120q-18 319 99 507q46 75 95 73q34 -1 54.5 -3.5t49 -14.5t43.5 -34q11 -15 20 -46q48 -159 49 -328q0 -40 -3.5 -81
t-11 -86t-13.5 -77t-17 -84q-4 -16 -12 -38q-4 -10 2 -21l12 -24t9 -17q51 -101 52 -103q10 -21 -10 -30q-41 -19 -82 0q-8 3 -16 16q-2 3 -20 36z" />
    <glyph glyph-name="R" unicode="R" horiz-adv-x="454" 
d="M132 461q72 48 96 106q2 3 8 15q22 37 34 86q8 35 2 67q-4 26 -35 67q-4 6 -9.5 12t-10 10.5l-11 11t-10.5 10t-12 10t-11 9l-12 10t-11 9.5q-20 15 -52 12q16 -132 34 -435zM141 229v-58q1 -34 1 -104q0 -7 -0.5 -15t-1.5 -17.5t-1.5 -15t-3 -10t-7.5 -6.5
q-43 -21 -87 0q-10 5 -11 17q-1 11 -4.5 36.5t-4.5 43.5q-3 42 -10 157l-4 92q-4 128 -4 170q-3 190 -3 302q0 27 7 119q1 25 26 29q15 2 30 0q22 -3 27 -25l3 -7h21q38 1 75 -8q33 -8 63 -29q2 -2 15.5 -11t17.5 -12t15 -11.5t16.5 -13.5t13.5 -12.5t14 -14.5
q21 -24 40 -51q15 -21 17 -55q4 -64 -31 -134q-7 -14 -32 -61q-18 -32 -48 -56q-28 -23 -53 -42q-30 -23 -65 -32l-8 -4q31 -57 32 -61q29 -60 98 -213q15 -33 28 -65q10 -23 6 -35q0 -1 2 -9q2 -10 0 -14.5t-11 -8.5q-33 -13 -65 1q-7 2 -10 7q-33 47 -41 72q-6 17 -55 152
q0 1 -5 14z" />
    <glyph glyph-name="S" unicode="S" horiz-adv-x="399" 
d="M149 63q8 8 12 30q14 77 1.5 157.5t-41.5 183.5q-32 113 -55 205q-24 98 -14 167q7 43 28.5 80.5t54.5 57.5q31 20 68.5 20.5t68.5 -17.5q27 -17 42.5 -42.5t18 -60t1 -60t-7.5 -63.5q-1 -7 -3 -14q-5 -14 -19 -15q-13 -1 -16 2.5t-3 16.5q0 94 -1 116q-2 56 -50 97
q-10 8 -18 9q-6 0 -14 -4q-28 -15 -33 -57q-9 -68 18 -193q12 -56 45 -170t49.5 -204t12.5 -175q-3 -56 -19 -86q-21 -36 -64 -50t-87 -5q-53 11 -82 44q-48 53 -20 200q2 13 6.5 18.5t13.5 6.5q11 2 20.5 -3t13.5 -14q5 -12 10 -30q1 -3 5 -17t5.5 -18.5t5 -16.5t5.5 -17.5
t6 -15.5t7.5 -16.5t8 -15.5t9.5 -16.5t11 -14.5z" />
    <glyph glyph-name="T" unicode="T" horiz-adv-x="481" 
d="M145 867h-30h-68q-25 1 -39 11q-13 9 0 18q8 6 18 8q14 3 29 4h71h19q1 22 1 24q-2 19 16.5 25t37.5 9q23 3 49 -5q14 -5 19.5 -12t5.5 -23v-17q16 -1 17 -1h39t50 -1q8 0 28 -3q4 -1 10 -4q13 -6 11 -14q-2 -9 -11 -12q-18 -7 -32 -7q-10 -1 -90 -1h-6h-7h-7l-1 -12
q1 -203 2 -390q1 -327 2 -437q0 -11 -4.5 -18t-14.5 -11q-45 -17 -90 0q-19 7 -19 29q0 55 -2 379q0 37 -0.5 127t-1.5 139q0 42 -1 178q0 1 -1 17z" />
    <glyph glyph-name="U" unicode="U" horiz-adv-x="463" 
d="M280 166h-3q-2 -6 -20 -46.5t-30 -59.5q-14 -21 -44.5 -29t-61 -2t-49.5 23q-17 16 -29 49q-20 52 -28 143q-7 82 -8 188.5t0 240.5t1 189q-1 22 20 29q44 17 87 0q20 -7 20 -28q-4 -122 -3 -317t13 -316q10 -99 40 -149q33 36 55 82q31 68 36 86q2 9 3 20.5t1 19.5
t-1 21.5t-1 19.5q0 22 -2 84q-4 124 -5 174q-5 219 8 338q2 18 9 25.5t25 11.5q26 6 52 -2q22 -8 24 -27q8 -61 9 -65q3 -106 5.5 -234.5t4 -293t2.5 -235.5t2 -97q1 -20 -17 -27q-47 -20 -94 0q-18 7 -18 28q0 27 -2 141q0 1 -1 15z" />
    <glyph glyph-name="V" unicode="V" horiz-adv-x="559" 
d="M297 163q8 43 8 45q5 26 13.5 72.5t15.5 85t14 72.5q9 49 34.5 173t32.5 160q6 28 19.5 84t17.5 76q2 7 5 15q4 14 17.5 19t26.5 -2q8 -5 7 -15q-4 -47 -5 -49q-8 -51 -36.5 -189.5t-36.5 -184.5q-28 -159 -51 -282q-17 -93 -39 -201q-3 -15 -14 -45q-3 -6 -11 -10
q-15 -8 -25 -9q-36 -5 -63 3q-25 7 -30 32q-15 65 -42 185t-34 148q-81 362 -88 395q-6 27 -30 175q-2 14 1.5 19.5t15.5 10.5q32 13 67 0q16 -6 20 -23q7 -24 32 -106q10 -34 22.5 -84.5t21.5 -89t22.5 -99t18.5 -80.5q10 -44 21.5 -93.5t25 -110t21.5 -93.5l2 -4h3z" />
    <glyph glyph-name="W" unicode="W" horiz-adv-x="741" 
d="M238 231l3 13l7.5 50t8.5 57t8 50q21 134 27 165q9 47 -4 95q-2 10 -13 61q-3 12 0.5 18.5t15.5 11.5q45 19 92 1q16 -7 21 -27q2 -13 55 -260q10 -43 28 -127.5t27 -125.5q2 -8 5 -15q11 74 12 79q21 135 30 191q11 71 33 203q5 31 19 116t20 124l0.5 3.5t1 4t1 3.5
t1.5 4l2.5 2.5t3.5 2.5l4 2q23 7 39 -3q5 -3 5 -12q-1 -11 -4 -35q-3 -23 -11 -87t-11 -91q-12 -90 -15 -116q-10 -71 -16 -116q-14 -106 -20 -143q-22 -149 -40 -229q-3 -13 -7 -38t-6 -35q-4 -18 -10 -39q-3 -6 -9 -10q-15 -7 -23 -8q-37 -2 -65 7q-21 7 -26 30
q-18 89 -84 396q-3 10 -7 17q-10 -59 -11 -63q-32 -173 -42 -225q-2 -14 -8 -40.5t-8 -33.5q-1 -9 0 -13q3 -16 -15 -26q-21 -11 -47 -10q-21 1 -45 8q-19 5 -23 26q-2 17 -33 201q-22 129 -27 157q-25 157 -40 269q-3 25 -17 119t-18 132q0 1 -0.5 4.5t-0.5 5.5
q-3 15 12 21q37 17 75 0q11 -5 14 -19q8 -37 23.5 -113t32.5 -164t22 -112q6 -30 35 -196q3 -17 6 -36t6.5 -40.5t6.5 -34.5q0 -1 3 -7z" />
    <glyph glyph-name="X" unicode="X" horiz-adv-x="518" 
d="M250 597q9 16 9 17q19 40 53 114t47 102q1 4 3.5 8.5t4 8t3.5 7.5l4 8q6 16 24 21q28 6 52 -2q12 -4 14 -9.5t-3 -17.5q-4 -8 -67 -142q-91 -192 -106 -224q-7 -15 -3 -32q35 -136 98 -390q5 -17 6 -29q3 -18 -14 -25q-13 -5 -34 -9q-22 -4 -52 5q-22 7 -27 28
q-5 20 -14.5 57t-12.5 50q-7 25 -18.5 71.5t-15.5 60.5l-3 10q-6 -2 -9 -11q-9 -19 -20 -41t-19.5 -40t-19.5 -41t-19 -40q-4 -8 -14 -28.5t-16 -32.5q-7 -16 -25 -19q-25 -6 -45 3q-12 6 -7.5 18.5t14.5 34.5q100 218 141 307q8 17 3 34l-48.5 194t-42.5 168
q-14 57 -19 113q-1 16 3.5 23t20.5 11q27 7 56 0q19 -6 27 -25q25 -56 50 -156q5 -21 39 -152z" />
    <glyph glyph-name="Y" unicode="Y" horiz-adv-x="457" 
d="M175 401v-1q20 32 37 71.5t28 76t21.5 82t17 81t15.5 83t16 79.5q4 17 11 35q5 13 19 17.5t24 -3.5q6 -4 7 -12q20 -82 22 -147q14 -348 2 -525q-7 -99 -31 -151q-11 -24 -27 -43t-37.5 -32.5t-44.5 -16.5q-50 -6 -93 31q-36 31 -51.5 78t-8.5 99q1 11 6 15t17 4
q12 1 17.5 -3t7.5 -16q5 -26 7.5 -36.5t9 -32.5t13 -33.5t18.5 -26t28 -24.5q14 34 23.5 72t13.5 74t6.5 75.5t2 76t-0.5 75.5q0 43 -3 64q-5 -19 -6 -20q-2 -8 -41 -124q-5 -16 -21 -22q-28 -14 -68.5 -10t-61.5 29q-15 17 -26 59q-13 50 -20.5 100t-10.5 111.5t-3.5 96.5
t0 113t0.5 102q1 21 18 29q44 21 89 3q23 -9 22 -37q0 -7 -1.5 -50t-1.5 -54t-1 -50.5t-0.5 -54.5t1.5 -50.5t3 -54t5 -50t7 -53.5t10 -48.5t14 -50.5z" />
    <glyph glyph-name="Z" unicode="Z" horiz-adv-x="402" 
d="M144 53q69 7 77 7q4 1 38 3q5 0 14 1t16.5 1t13.5 1q23 2 38 -6q11 -6 11 -15q0 -10 -11 -14q-20 -6 -31 -7h-21h-21q-22 -1 -62.5 -2.5t-55.5 -2.5q-14 -1 -19 -14q-5 -10 -17 -16q-50 -24 -86 -9q-16 7 -20.5 19t0.5 31q7 32 35 156q24 111 70 325.5t70 327.5
q1 2 12 48l-14 2q-44 3 -141 -9q-14 -2 -21 -1q-1 0 -19 8q2 12 15 15q67 13 83 15q4 1 69 4q3 0 10 0.5t11 0.5q22 1 30 20q5 13 21 20q31 12 62 1q24 -9 22 -34q-3 -49 -5 -62q-18 -86 -55 -256q-21 -92 -58.5 -270.5t-58.5 -272.5q0 -1 -2 -15z" />
    <glyph glyph-name="bracketleft" unicode="[" horiz-adv-x="377" 
d="M142 956q-3 -173 -7.5 -498t-6.5 -475q27 4 29 4q32 7 95 6q30 0 56 -16q19 -11 16 -23q-2 -14 -23 -15h-53h-24q-50 -2 -102 -4q-10 0 -16 -1q-40 -9 -85 15q-21 11 -21 37q1 41 5 324q1 43 2 123t2 99q0 17 1 106t2 137q1 82 3 179q0 17 6.5 24.5t22.5 8.5
q12 0 28.5 2.5l33 5t28.5 3.5q29 3 46 2q41 -2 86 -6q13 -1 25 -7q6 -3 6 -8.5t-7 -7.5q-15 -7 -28 -8h-76q-21 0 -44 -7z" />
    <glyph glyph-name="backslash" unicode="\" horiz-adv-x="701" 
d="M235 455q-105 149 -209 301q-6 10 -20 41q-9 19 3 36q24 35 65 46q22 7 35 -10q103 -127 277 -379.5t256 -358.5q12 -15 3 -30q-11 -19 -22 -29q-23 -23 -52 -31q-10 -3 -22 -3t-20 10q-148 200 -294 407z" />
    <glyph glyph-name="bracketright" unicode="]" horiz-adv-x="377" 
d="M185 963q-23 7 -45 7q-60 0 -75 1q-13 0 -29 7q-6 3 -6 8t6 8q12 6 25 8q45 4 86 5q16 1 45 -1q13 -1 29.5 -3.5t32.5 -5t29 -3.5q16 -1 22 -8t6 -24q2 -97 3 -180q1 -47 2.5 -136t1.5 -107q0 -27 1 -70t1.5 -81t0.5 -71q4 -283 5 -324q1 -26 -21 -37q-44 -23 -85 -15
q-5 1 -15 2q-52 2 -102 3h-25h-53q-21 2 -23 15q-2 12 16 23q26 16 57 17q62 0 95 -7q1 0 29 -4q-2 144 -4.5 307.5t-5.5 358.5t-4 307z" />
    <glyph glyph-name="asciicircum" unicode="^" horiz-adv-x="589" 
d="M271 601q-8 -17 -8 -18q-73 -197 -133 -334q-5 -13 -17.5 -37.5t-15.5 -30.5q-10 -20 -34 -19q-27 1 -48 14q-16 10 -12 27q19 72 22 82q52 163 147 412q27 70 31 81q7 22 33 24q8 0 22.5 2t19.5 3q13 1 22 1q27 0 36 -25q131 -344 181 -503q7 -23 18 -68q3 -12 0 -18
t-14 -13q-23 -13 -50 -13q-20 1 -28 16q-29 58 -32 65q-58 134 -132 332q-1 1 -8 20z" />
    <glyph glyph-name="underscore" unicode="_" horiz-adv-x="675" 
d="M201 4q-67 -2 -135 -4h-27q-17 0 -24 4.5t-10 18.5q-7 38 17 75q12 17 37 17q114 4 205 -1q15 -1 38.5 -2t44.5 -2t39 -2q49 -4 124 -11q38 -4 70 -9q27 -5 35 -15.5t2 -32.5q-2 -7 -8 -18t-22 -12q-8 0 -37 -2.5t-45 -3.5q-88 -3 -141 -4q-13 0 -163 2v1v1z" />
    <glyph glyph-name="grave" unicode="`" horiz-adv-x="122" 
d="M72 955q-3 -40 -3 -44q-1 -8 -5 -31q-12 -74 -17 -100q-1 -9 -6 -20q-6 -13 -27 -13q-14 0 -14 10q0 3 1 15q6 83 7 92q1 14 4.5 39.5t4.5 34.5q1 13 18 18q22 6 37 -1z" />
    <glyph glyph-name="a" unicode="a" 
d="M162 675q-2 -3 -2 -4q-42 -232 -57 -321q-1 -4 -2 -9.5t-2 -8.5t-1.5 -8.5t0.5 -8.5h119q-36 249 -52 354zM222 275q-10 1 -11 1q-47 0 -110 2q-8 0 -10 -2t-3 -11q-4 -16 -13.5 -65t-14.5 -76q-5 -22 -9 -36q-4 -12 -19.5 -16t-25.5 4q-6 5 -4 18q5 48 7 61
q38 228 55 327q22 128 61 344q4 23 21 102q1 6 2.5 10t4.5 6.5t7 3.5t10 1q18 1 27 -5q6 -4 15 -6q22 -5 29 -27q16 -47 31 -116q10 -51 39 -239q1 -9 14 -94t19 -129q7 -45 19 -128.5t15 -99.5q2 -14 4.5 -32t5 -35.5l4.5 -31.5q3 -19 -12 -26q-16 -7 -32 -10q-29 -5 -59 5
q-23 8 -26 30q-2 15 -22 155q-1 5 -6.5 43.5l-8.5 59.5z" />
    <glyph glyph-name="b" unicode="b" horiz-adv-x="403" 
d="M137 70q0 -4 17.5 4t35 18.5t20.5 13.5q32 29 31 79q0 60 -25.5 114.5t-70.5 90.5q0 1 -12 7q2 -278 4 -327zM117 927q9 -58 11.5 -124.5t2 -147.5t1.5 -126l15 9q29 22 52 53q33 44 42 103t-6 113q-7 27 -22.5 55.5t-41.5 49.5t-54 15zM137 27v-19q2 -20 -18 -29
q-30 -13 -66 -7q-10 1 -27 7q-19 7 -18 29q0 35 -1 121q0 88 -2 249.5t-2 224.5q-1 23 -1 60.5t-0.5 69.5t-0.5 60q-1 32 10 150q2 16 18 22q41 14 73 -3q11 -6 27 -5q31 1 40 1q57 -3 102.5 -55.5t59.5 -113.5q17 -74 -8.5 -144.5t-83.5 -120.5q-40 -34 -95 -46
q-1 0 -2 -0.5t-2 -0.5q-6 -5 -7 -6q-2 -7 6 -9q55 -15 123 -90q57 -63 73 -144q8 -45 0 -79q-9 -38 -41.5 -66t-74.5 -42q-38 -13 -70 -12q-1 0 -12 -2z" />
    <glyph glyph-name="c" unicode="c" horiz-adv-x="433" 
d="M208 68q1 0 7 6q4 4 8 9q2 2 15 18q14 18 31 41q4 6 8 11q12 17 32 49.5t28 44.5l2 3.5t3 5.5q4 5 14 7t15 -2q3 -4 3 -10q0 -9 -3 -19q-8 -25 -12 -36q-5 -11 -11 -25.5t-10.5 -25.5t-10 -24.5t-9.5 -25.5l-3 -6q-7 -20 -11.5 -30t-14.5 -23.5t-24 -20.5
q-20 -11 -56 -13q-63 -3 -97 22q-29 21 -50 77q-63 160 -61 417q1 152 25 248q18 77 54 117q26 30 65.5 45t79.5 11q44 -5 84 -33.5t53 -69.5q20 -61 21 -133q0 -13 -5 -28q-3 -10 -13 -14t-20 1q-4 3 -6 10q-11 37 -13 49q-5 26 -8 41t-10.5 40t-16.5 41.5t-24 32.5t-34 24
q-8 3 -14 2q-4 -2 -10 -9q-33 -44 -52 -116q-42 -160 -34 -331q8 -168 64 -325q1 -4 2.5 -9t3.5 -10.5t3 -8.5q3 -8 5 -13q4 -11 6 -12h1z" />
    <glyph glyph-name="d" unicode="d" horiz-adv-x="446" 
d="M112 840v-14q0 -5 0.5 -14.5t1 -17.5t0.5 -15q6 -192 4 -685v-31q72 51 109 131.5t40 174.5q2 53 -3 105.5t-19.5 107.5t-37.5 98q-21 37 -31 59q-19 43 -64 101zM395 374q-6 -114 -65.5 -206t-162.5 -148q-9 -5 -28 -10q-1 -1 -6.5 -2t-7 -1.5t-5 -2.5t-5.5 -4t-4 -6
q-1 -1 -4 -3q-48 -23 -95 1q-10 5 -10 16v8.5v6.5q-2 290 -2 314q1 158 4 363q1 24 7 164q1 20 3 54q1 13 5.5 18.5t17.5 9.5q21 6 46 0q10 -2 15 -6q15 -14 51.5 -38.5t52.5 -41.5q35 -37 89 -127q91 -150 103 -295q3 -32 1 -64z" />
    <glyph glyph-name="e" unicode="e" horiz-adv-x="348" 
d="M110 937h84q31 0 56 -4q14 -1 27 -8q8 -5 8 -11.5t-9 -10.5q-13 -8 -28 -9q-9 -1 -37 0q-12 1 -27.5 2l-31 2t-27.5 1l-12 -1q5 -105 15 -317q62 3 66 3q51 1 69 0q11 0 25 -8q7 -4 7.5 -10.5t-7.5 -9.5q-16 -8 -30 -8q-13 -1 -109 1h-19q-2 -24 0 -66t3 -52q0 -22 1 -62
t2 -56v-37.5t0.5 -42.5t0.5 -37q0 -8 2 -118h12q89 -2 104 -3q13 -1 29 -8q8 -3 10 -12q2 -10 -11 -14q-23 -7 -32 -8q-32 0 -62 4q-18 3 -48 -2q-3 -23 -3 -25q-3 -26 -29 -33q-31 -9 -61 0q-25 7 -28 33q0 1 -1 9.5t-1 12.5q-9 216 -10 256q-3 102 -5 264q-2 140 -3 296
q0 22 3 97q0 9 2.5 15t7.5 10t14 6q25 8 53 1q26 -6 28 -31z" />
    <glyph glyph-name="f" unicode="f" horiz-adv-x="352" 
d="M89 908q2 -60 5 -168.5t4 -141.5l11 -1q1 0 74 2q28 1 39 -6q9 -5 10 -11q2 -8 -10 -12q-17 -5 -26 -5q-1 0 -81 1q-1 0 -18 -1l-1 -15q0 -193 1 -310q0 -6 0.5 -70t-0.5 -98q0 -44 -5 -61q-1 -1 -1 -17q0 -11 -11 -15q-28 -13 -58 0q-8 3 -11 16q-3 21 -5 46.5t-2.5 43
t0 48.5t0.5 44q-4 332 -4 501q0 37 5 220q0 15 4 40q3 24 27 27q8 2 21 1q22 -2 28 -28h20q146 7 157 8q11 0 29 -5q8 -3 10 -11t-11 -12q-14 -4 -24 -5q-16 -1 -56 -2q-12 0 -121 -3z" />
    <glyph glyph-name="g" unicode="g" horiz-adv-x="482" 
d="M276 59q0 -1 1 -2q42 45 61 119q5 22 9.5 49t6.5 45t4.5 52t4.5 47v10q-18 1 -37 -2q-35 -7 -48 -7q-17 -1 -36 8q-10 4 -10 11t10 12q41 20 91 17.5t91 -20.5q9 -4 6 -16q-13 -47 -29.5 -141.5t-28.5 -138.5q-15 -58 -58 -91t-99 -14q-69 24 -108 130q-30 84 -50 249
q0 2 -1 8q-5 41 -7.5 63.5t-6 66t-3.5 71t2 68.5t8 69.5t16.5 64t26 61t38.5 51t52 43.5q48 31 93 17q35 -11 60 -49q16 -25 29.5 -56.5t21 -64t8.5 -63.5q1 -12 -2 -36q-1 -12 -15.5 -17t-25.5 4q-5 3 -7 11q-1 6 -7 36.5t-11 46.5q-26 91 -69 148q-4 5 -8 5q-3 1 -8 -3
q-26 -22 -42 -62q-19 -47 -25 -128q-13 -165 13 -366q7 -52 9 -66t10 -59t15.5 -67.5t22 -55.5t32.5 -58z" />
    <glyph glyph-name="h" unicode="h" horiz-adv-x="452" 
d="M130 444l8 -1q74 2 118 4q10 0 12 2t2 11q-1 167 -2 237v122q2 43 7 105q3 29 35 32q15 2 30 0q32 -3 36 -33q3 -14 7 -56q3 -25 3 -36q2 -37 5 -139q6 -202 6 -226q3 -134 5 -298q1 -49 -1 -124q-1 -9 -3 -26.5t-2 -21.5q-1 -16 -19 -22q-35 -12 -70 0q-17 6 -19 22
q0 6 -4 34.5t-5 44.5q-2 45 -5 150q0 25 -0.5 53t-1 61.5t-1.5 53.5l-1 18q-65 5 -137 -1l-2 -12q2 -175 4 -288v-26.5t0.5 -26.5t0.5 -27v-27q1 -12 -3.5 -18t-16.5 -10q-44 -15 -88 0q-12 4 -16 10t-4 18q-1 18 -1.5 84t-0.5 101q-1 48 -2 145.5t-2 147.5q-1 172 -2 207
q0 96 15 229q2 22 12.5 30.5t35.5 8.5q8 -1 19 -3q19 -4 23 -22q5 -26 6 -39q16 -134 16 -205q1 -33 1.5 -71t1 -80.5t0.5 -71.5v-20z" />
    <glyph glyph-name="i" unicode="i" horiz-adv-x="192" 
d="M65 892q-30 -1 -46 12q-24 19 -3 42q12 12 32 13q25 2 55 -8q21 -7 21 -24q1 -17 -19 -27q-17 -9 -40 -8zM6 363q-4 261 -4 285q-2 107 -2 122q0 1 6 58q2 17 20 24q37 14 74 -1q15 -5 19 -21q8 -29 9 -82q0 -2 2 -144q1 -39 4 -224l2 -72t2 -73q3 -189 3 -211
q1 -29 -29 -38q-36 -10 -71 1q-15 5 -21.5 12.5t-6.5 22.5q-1 44 -2 128.5t-2 126.5q0 15 -0.5 24.5t-1 14t-0.5 9.5t-0.5 14.5t-0.5 23.5z" />
    <glyph glyph-name="j" unicode="j" horiz-adv-x="347" 
d="M124 31q9 8 13 25q14 48 15 90q1 30 1.5 88.5t1.5 85.5q4 154 6 309q0 16 0.5 60.5t1 66t2.5 57t7 65t12 58.5q7 27 32 30q18 3 33 0q16 -3 22.5 -10t8.5 -23q3 -19 4 -51q5 -85 6 -190t0 -166.5t-4.5 -198t-4.5 -174.5q-2 -108 -40 -146q-38 -40 -121 -28q-24 4 -37 11
q-5 4 -10.5 9t-10 10t-9 13t-7.5 13t-7 15t-6 14t-6 14t-5 13q-26 63 -16 140q1 2 1 16q0 8 2.5 11t9.5 5q15 2 30 1q11 -1 14.5 -6t2.5 -17q-3 -21 -4 -35q-5 -64 34 -134q17 -31 28 -41z" />
    <glyph glyph-name="k" unicode="k" horiz-adv-x="458" 
d="M136 291v-20q1 -46 2 -132t1 -105v-8v-8q2 -17 -16 -25q-30 -14 -70 -8q-10 1 -24 7q-19 7 -19 27q0 34 -1 147q0 7 -4 261q-3 228 -3 265q-2 141 -2 168l4 70q1 24 25 30q32 9 65 1q25 -7 27 -30q0 -3 2 -23.5t3 -30.5q2 -91 4 -190q0 -27 3 -39l7 10q109 184 110 187
q36 59 60 95q12 19 34 25.5t43 -1.5q24 -8 13 -30q-7 -16 -15 -35t-16 -37t-16 -34q-93 -184 -198 -357q-7 -11 -2 -21q63 -118 86 -167q48 -96 97 -207q6 -13 15 -61q2 -6 1 -10.5t-4.5 -6.5t-10.5 -3q-18 -3 -40 0q-3 0 -6 1t-5.5 4t-3.5 4t-4.5 5.5l-3.5 4.5
q-33 43 -62 109q-5 13 -67 156q0 1 -5 13q-2 0 -4 -1z" />
    <glyph glyph-name="l" unicode="l" horiz-adv-x="368" 
d="M142 43q66 2 71 2q6 0 17 0.5t19.5 1t16.5 0.5q5 -1 31 -5q4 -1 8 -3q13 -8 13 -16q0 -9 -14 -14q-19 -7 -45 -7q-13 1 -39 1t-38 1q-2 0 -38 1q-3 -12 -12 -18.5t-15.5 -8t-21.5 -3.5q-30 -4 -58 7q-25 10 -24 35q0 25 -2 176v77q-1 14 -2 80.5t-1 102.5q-1 45 -1.5 127
t-0.5 114q-1 18 -3 26t-2 25q-2 109 11 186q1 2 2 7t1 7q3 19 23 23q25 5 46 -1q24 -7 28 -30q11 -71 11 -73q6 -93 7 -117q1 -15 2.5 -34.5t1.5 -38.5l2 -185q0 -63 1 -79q0 -22 0.5 -58t1 -67t0.5 -58q1 -32 1.5 -92.5t0.5 -72.5q0 -1 1 -19z" />
    <glyph glyph-name="m" unicode="m" horiz-adv-x="590" 
d="M437 584q-7 -17 -8 -18q-20 -68 -59 -198.5t-57 -190.5q-4 -14 -9.5 -21t-13.5 -10t-23 -2q-15 0 -33 5q-21 5 -28 28q-4 14 -17.5 56t-19.5 65t-71 267q-3 10 -7 16q-1 -21 -1 -22q0 -37 -0.5 -118.5t-1.5 -143t-2 -118.5q-2 -103 -10 -175q-1 -13 -4.5 -17t-16.5 -6
q-12 -1 -32 4q-17 4 -18 22q0 14 -2 36.5t-2 41.5q-1 90 0 222q1 250 3 495q0 23 3 129q1 4 1.5 11t0.5 10q1 12 13 14q31 8 57 -4q11 -5 13 -18q1 -3 9 -28q44 -129 46 -135q50 -164 113 -416q0 -1 5 -16q6 15 6 16q16 58 148 534q3 10 5 15q4 12 15 16q39 13 75 -8
q13 -7 10 -20q-1 -8 5 -14q4 -5 5 -13q4 -33 4 -47q1 -169 0 -215q-1 -90 -8 -241q-3 -64 -10 -167q-2 -29 -5.5 -60t-5.5 -54q-5 -59 -8 -82q-1 -12 -8 -27q-2 -5 -11 -8q-29 -11 -57 6q-7 5 -10 13q-4 12 -3 24q0 19 -0.5 53.5t0.5 52.5q5 133 8 198q2 31 4 66.5t5 78.5
t5 67q0 3 2 51l1 1v-1z" />
    <glyph glyph-name="n" unicode="n" horiz-adv-x="422" 
d="M92 511v-13.5v-13.5q-1 -326 -1 -389q0 -12 0.5 -32t0.5 -33q0 -15 -11 -20q-28 -13 -57 -1q-13 6 -13 25q0 28 -3 81t-3 82q-2 232 -5 653q0 31 1 81q1 16 5.5 22.5t18.5 10.5q48 14 75 -31q25 -39 41 -102q24 -89 113 -430q5 -20 15 -58.5t14 -52.5q2 -9 7 -15
q1 20 1 21q1 172 3 628v1v3q0 8 1 13.5t4 9.5t7.5 6t12.5 2q19 2 36 -2q10 -2 13.5 -7t3.5 -17q-1 -57 -2 -108q-1 -34 -6 -235q0 -18 -1 -51.5t-1.5 -60.5t-0.5 -51q-1 -20 -2.5 -107t-2.5 -134q-1 -18 -2 -40.5t-2 -46.5t-2 -41q-1 -16 3 -35q2 -12 -0.5 -18.5
t-11.5 -12.5q-8 -4 -18 -7q-34 -10 -70 1q-23 7 -30 34q-16 64 -95 367q-22 84 -29 110q0 1 -4 14h-2h-1z" />
    <glyph glyph-name="o" unicode="o" horiz-adv-x="468" 
d="M255 30q16 20 17 22q80 129 95 376q8 124 -8 239q-10 73 -23 115q-2 8 -5 19.5t-5 21t-5.5 20t-7.5 20t-10 17.5q-12 19 -32.5 27.5t-39.5 0.5q-20 -9 -38 -45q-37 -73 -50 -159t-13 -195q-1 -70 2 -122t12.5 -115.5t32 -118.5t58.5 -100q0 -1 20 -23zM415 487
q-6 -226 -91 -428q-12 -30 -24 -43q-22 -25 -60 -26.5t-68 15.5q-83 42 -126 151q-30 77 -39 202q-12 173 16 305q26 121 87 222q29 47 66 60q36 13 90 0t79 -44q14 -18 25 -57q49 -173 45 -357z" />
    <glyph glyph-name="p" unicode="p" horiz-adv-x="450" 
d="M105 930v-14q17 -165 22 -460q1 -15 5 -21q25 18 26 19q53 43 82.5 107.5t26.5 132.5q-7 148 -142 228q-1 1 -20 8zM129 373v-20v-158.5v-158.5q0 -17 -5 -24t-21 -12q-39 -12 -78 1q-15 5 -20 11.5t-5 23.5q6 548 19 770q1 31 13 113q2 15 11 31q4 8 15 10q19 4 46 6
q52 5 102 -16t86.5 -58t61.5 -85.5t31 -98.5q11 -86 -27 -168.5t-110 -129.5q-27 -17 -55 -24q-5 -1 -64 -13z" />
    <glyph glyph-name="q" unicode="q" horiz-adv-x="495" 
d="M336 215q12 71 13 75q10 60 14 90.5t8 80.5t3 92q-6 138 -47 287q-11 41 -24 60q-23 31 -53 28q-37 -4 -64 -75q-29 -76 -37 -116q-13 -55 -14 -166q-4 -61 -1 -130.5t10 -131t30 -125t61 -113.5q13 -17 25 -26q17 24 19 26q7 11 1 24q-30 63 -71 173q-7 19 -8 23
q-6 22 14.5 30t47.5 3q20 -4 30 -26q5 -11 36 -73q0 -1 7 -10zM310 28h-3q-36 -31 -74 -28t-74.5 30t-64 62.5t-42.5 69.5q-20 47 -29.5 101t-12.5 120q-18 319 99 507q46 75 95 73q34 -1 54.5 -3.5t49 -14.5t43.5 -34q11 -15 20 -46q48 -159 49 -328q0 -40 -3.5 -81
t-11 -86t-13.5 -77t-17 -84q-4 -16 -12 -38q-4 -10 2 -21l12 -24t9 -17q51 -101 52 -103q10 -21 -10 -30q-41 -19 -82 0q-8 3 -16 16q-2 3 -20 36z" />
    <glyph glyph-name="r" unicode="r" horiz-adv-x="454" 
d="M132 461q72 48 96 106q2 3 8 15q22 37 34 86q8 35 2 67q-4 26 -35 67q-4 6 -9.5 12t-10 10.5l-11 11t-10.5 10t-12 10t-11 9l-12 10t-11 9.5q-20 15 -52 12q16 -132 34 -435zM141 229v-58q1 -34 1 -104q0 -7 -0.5 -15t-1.5 -17.5t-1.5 -15t-3 -10t-7.5 -6.5
q-43 -21 -87 0q-10 5 -11 17q-1 11 -4.5 36.5t-4.5 43.5q-3 42 -10 157l-4 92q-4 128 -4 170q-3 190 -3 302q0 27 7 119q1 25 26 29q15 2 30 0q22 -3 27 -25l3 -7h21q38 1 75 -8q33 -8 63 -29q2 -2 15.5 -11t17.5 -12t15 -11.5t16.5 -13.5t13.5 -12.5t14 -14.5
q21 -24 40 -51q15 -21 17 -55q4 -64 -31 -134q-7 -14 -32 -61q-18 -32 -48 -56q-28 -23 -53 -42q-30 -23 -65 -32l-8 -4q31 -57 32 -61q29 -60 98 -213q15 -33 28 -65q10 -23 6 -35q0 -1 2 -9q2 -10 0 -14.5t-11 -8.5q-33 -13 -65 1q-7 2 -10 7q-33 47 -41 72q-6 17 -55 152
q0 1 -5 14z" />
    <glyph glyph-name="s" unicode="s" horiz-adv-x="399" 
d="M149 63q8 8 12 30q14 77 1.5 157.5t-41.5 183.5q-32 113 -55 205q-24 98 -14 167q7 43 28.5 80.5t54.5 57.5q31 20 68.5 20.5t68.5 -17.5q27 -17 42.5 -42.5t18 -60t1 -60t-7.5 -63.5q-1 -7 -3 -14q-5 -14 -19 -15q-13 -1 -16 2.5t-3 16.5q0 94 -1 116q-2 56 -50 97
q-10 8 -18 9q-6 0 -14 -4q-28 -15 -33 -57q-9 -68 18 -193q12 -56 45 -170t49.5 -204t12.5 -175q-3 -56 -19 -86q-21 -36 -64 -50t-87 -5q-53 11 -82 44q-48 53 -20 200q2 13 6.5 18.5t13.5 6.5q11 2 20.5 -3t13.5 -14q5 -12 10 -30q1 -3 5 -17t5.5 -18.5t5 -16.5t5.5 -17.5
t6 -15.5t7.5 -16.5t8 -15.5t9.5 -16.5t11 -14.5z" />
    <glyph glyph-name="t" unicode="t" horiz-adv-x="481" 
d="M145 867h-30h-68q-25 1 -39 11q-13 9 0 18q8 6 18 8q14 3 29 4h71h19q1 22 1 24q-2 19 16.5 25t37.5 9q23 3 49 -5q14 -5 19.5 -12t5.5 -23v-17q16 -1 17 -1h39t50 -1q8 0 28 -3q4 -1 10 -4q13 -6 11 -14q-2 -9 -11 -12q-18 -7 -32 -7q-10 -1 -90 -1h-6h-7h-7l-1 -12
q1 -203 2 -390q1 -327 2 -437q0 -11 -4.5 -18t-14.5 -11q-45 -17 -90 0q-19 7 -19 29q0 55 -2 379q0 37 -0.5 127t-1.5 139q0 42 -1 178q0 1 -1 17z" />
    <glyph glyph-name="u" unicode="u" horiz-adv-x="463" 
d="M280 166h-3q-2 -6 -20 -46.5t-30 -59.5q-14 -21 -44.5 -29t-61 -2t-49.5 23q-17 16 -29 49q-20 52 -28 143q-7 82 -8 188.5t0 240.5t1 189q-1 22 20 29q44 17 87 0q20 -7 20 -28q-4 -122 -3 -317t13 -316q10 -99 40 -149q33 36 55 82q31 68 36 86q2 9 3 20.5t1 19.5
t-1 21.5t-1 19.5q0 22 -2 84q-4 124 -5 174q-5 219 8 338q2 18 9 25.5t25 11.5q26 6 52 -2q22 -8 24 -27q8 -61 9 -65q3 -106 5.5 -234.5t4 -293t2.5 -235.5t2 -97q1 -20 -17 -27q-47 -20 -94 0q-18 7 -18 28q0 27 -2 141q0 1 -1 15z" />
    <glyph glyph-name="v" unicode="v" horiz-adv-x="559" 
d="M297 163q8 43 8 45q5 26 13.5 72.5t15.5 85t14 72.5q9 49 34.5 173t32.5 160q6 28 19.5 84t17.5 76q2 7 5 15q4 14 17.5 19t26.5 -2q8 -5 7 -15q-4 -47 -5 -49q-8 -51 -36.5 -189.5t-36.5 -184.5q-28 -159 -51 -282q-17 -93 -39 -201q-3 -15 -14 -45q-3 -6 -11 -10
q-15 -8 -25 -9q-36 -5 -63 3q-25 7 -30 32q-15 65 -42 185t-34 148q-81 362 -88 395q-6 27 -30 175q-2 14 1.5 19.5t15.5 10.5q32 13 67 0q16 -6 20 -23q7 -24 32 -106q10 -34 22.5 -84.5t21.5 -89t22.5 -99t18.5 -80.5q10 -44 21.5 -93.5t25 -110t21.5 -93.5l2 -4h3z" />
    <glyph glyph-name="w" unicode="w" horiz-adv-x="741" 
d="M238 231l3 13l7.5 50t8.5 57t8 50q21 134 27 165q9 47 -4 95q-2 10 -13 61q-3 12 0.5 18.5t15.5 11.5q45 19 92 1q16 -7 21 -27q2 -13 55 -260q10 -43 28 -127.5t27 -125.5q2 -8 5 -15q11 74 12 79q21 135 30 191q11 71 33 203q5 31 19 116t20 124l0.5 3.5t1 4t1 3.5
t1.5 4l2.5 2.5t3.5 2.5l4 2q23 7 39 -3q5 -3 5 -12q-1 -11 -4 -35q-3 -23 -11 -87t-11 -91q-12 -90 -15 -116q-10 -71 -16 -116q-14 -106 -20 -143q-22 -149 -40 -229q-3 -13 -7 -38t-6 -35q-4 -18 -10 -39q-3 -6 -9 -10q-15 -7 -23 -8q-37 -2 -65 7q-21 7 -26 30
q-18 89 -84 396q-3 10 -7 17q-10 -59 -11 -63q-32 -173 -42 -225q-2 -14 -8 -40.5t-8 -33.5q-1 -9 0 -13q3 -16 -15 -26q-21 -11 -47 -10q-21 1 -45 8q-19 5 -23 26q-2 17 -33 201q-22 129 -27 157q-25 157 -40 269q-3 25 -17 119t-18 132q0 1 -0.5 4.5t-0.5 5.5
q-3 15 12 21q37 17 75 0q11 -5 14 -19q8 -37 23.5 -113t32.5 -164t22 -112q6 -30 35 -196q3 -17 6 -36t6.5 -40.5t6.5 -34.5q0 -1 3 -7z" />
    <glyph glyph-name="x" unicode="x" horiz-adv-x="518" 
d="M250 597q9 16 9 17q19 40 53 114t47 102q1 4 3.5 8.5t4 8t3.5 7.5l4 8q6 16 24 21q28 6 52 -2q12 -4 14 -9.5t-3 -17.5q-4 -8 -67 -142q-91 -192 -106 -224q-7 -15 -3 -32q35 -136 98 -390q5 -17 6 -29q3 -18 -14 -25q-13 -5 -34 -9q-22 -4 -52 5q-22 7 -27 28
q-5 20 -14.5 57t-12.5 50q-7 25 -18.5 71.5t-15.5 60.5l-3 10q-6 -2 -9 -11q-9 -19 -20 -41t-19.5 -40t-19.5 -41t-19 -40q-4 -8 -14 -28.5t-16 -32.5q-7 -16 -25 -19q-25 -6 -45 3q-12 6 -7.5 18.5t14.5 34.5q100 218 141 307q8 17 3 34l-48.5 194t-42.5 168
q-14 57 -19 113q-1 16 3.5 23t20.5 11q27 7 56 0q19 -6 27 -25q25 -56 50 -156q5 -21 39 -152z" />
    <glyph glyph-name="y" unicode="y" horiz-adv-x="457" 
d="M175 401v-1q20 32 37 71.5t28 76t21.5 82t17 81t15.5 83t16 79.5q4 17 11 35q5 13 19 17.5t24 -3.5q6 -4 7 -12q20 -82 22 -147q14 -348 2 -525q-7 -99 -31 -151q-11 -24 -27 -43t-37.5 -32.5t-44.5 -16.5q-50 -6 -93 31q-36 31 -51.5 78t-8.5 99q1 11 6 15t17 4
q12 1 17.5 -3t7.5 -16q5 -26 7.5 -36.5t9 -32.5t13 -33.5t18.5 -26t28 -24.5q14 34 23.5 72t13.5 74t6.5 75.5t2 76t-0.5 75.5q0 43 -3 64q-5 -19 -6 -20q-2 -8 -41 -124q-5 -16 -21 -22q-28 -14 -68.5 -10t-61.5 29q-15 17 -26 59q-13 50 -20.5 100t-10.5 111.5t-3.5 96.5
t0 113t0.5 102q1 21 18 29q44 21 89 3q23 -9 22 -37q0 -7 -1.5 -50t-1.5 -54t-1 -50.5t-0.5 -54.5t1.5 -50.5t3 -54t5 -50t7 -53.5t10 -48.5t14 -50.5z" />
    <glyph glyph-name="z" unicode="z" horiz-adv-x="402" 
d="M144 53q69 7 77 7q4 1 38 3q5 0 14 1t16.5 1t13.5 1q23 2 38 -6q11 -6 11 -15q0 -10 -11 -14q-20 -6 -31 -7h-21h-21q-22 -1 -62.5 -2.5t-55.5 -2.5q-14 -1 -19 -14q-5 -10 -17 -16q-50 -24 -86 -9q-16 7 -20.5 19t0.5 31q7 32 35 156q24 111 70 325.5t70 327.5
q1 2 12 48l-14 2q-44 3 -141 -9q-14 -2 -21 -1q-1 0 -19 8q2 12 15 15q67 13 83 15q4 1 69 4q3 0 10 0.5t11 0.5q22 1 30 20q5 13 21 20q31 12 62 1q24 -9 22 -34q-3 -49 -5 -62q-18 -86 -55 -256q-21 -92 -58.5 -270.5t-58.5 -272.5q0 -1 -2 -15z" />
    <glyph glyph-name="braceleft" unicode="{" horiz-adv-x="475" 
d="M184 547q15 -9 16 -9q88 -47 90 -151q1 -23 -4 -128q-1 -15 -2.5 -35t-2.5 -30t-1.5 -30t1.5 -35q4 -54 23 -98q2 -5 9 -17q11 -19 32 -19q27 0 53 -15q9 -5 14 -9q10 -10 8.5 -18.5t-14.5 -12.5q-9 -4 -18 -5q-86 -7 -157 42q-28 18 -44 49q-24 46 -32 111
q-2 15 -2.5 28.5t0 21t1.5 24.5t2 26q1 21 4 64t4 65q3 53 -9 92q-12 34 -38 49q-14 9 -27 10q-41 5 -63 18q-12 7 -20 16q-11 13 4 22q10 6 18 6q36 3 70 35q39 37 48 98q3 13 3 19t-0.5 9t-3 11t-4.5 18q-7 35 -9 54q-10 86 54 135q55 42 122 36q10 -1 19 -4
q44 -13 64 -20q15 -5 14 -16q-1 -8 -20 -5q-16 2 -31 6q-25 5 -48 -9q-45 -27 -54 -70q-7 -37 2 -73q13 -52 17 -77q2 -13 2.5 -20t1.5 -12t-0.5 -11t-2.5 -9t-4.5 -14t-6.5 -17q-15 -46 -60 -81q-5 -5 -18 -15z" />
    <glyph glyph-name="bar" unicode="|" horiz-adv-x="223" 
d="M4 524q0 49 -1 134t-1.5 132t0.5 133q0 14 7 51q4 22 26 30q44 17 88 1q25 -8 26 -32q13 -182 12.5 -502t6.5 -502q1 -21 -16 -29q-23 -10 -39 -12q-35 -6 -67 4q-11 4 -22 12t-12 22q-7 276 -8 558z" />
    <glyph glyph-name="braceright" unicode="}" horiz-adv-x="474" 
d="M240 554q-3 2 -6.5 5t-6.5 5.5t-5 3.5q-45 35 -60 81q-5 12 -10.5 25t-6.5 16t-2.5 16t2.5 26q4 25 17 77q9 37 2 74q-8 43 -54 70q-23 13 -47 8q-16 -3 -31 -6q-20 -3 -20 6q-1 10 13 16q20 7 64 20q9 3 19 4q67 5 122 -37q65 -48 55 -135q-3 -19 -10 -53
q-2 -13 -3 -16.5t-1 -9t0.5 -7t2 -9t2.5 -16.5q10 -61 49 -97q34 -32 69 -35q9 -1 19 -6q15 -9 4 -22q-8 -9 -20 -17q-22 -12 -63 -17q-14 -2 -28 -10q-25 -15 -37 -50q-12 -39 -9 -92q1 -22 4 -64.5t4 -63.5q1 -11 3 -35t1.5 -30t-2.5 -35q-8 -65 -32 -111q-16 -31 -44 -50
q-71 -48 -156 -41q-10 1 -19 4q-13 5 -14.5 13.5t8.5 17.5q5 5 15 10q25 14 52 14q21 0 32 20q7 12 9 17q19 44 23 97q1 34 1 45.5t-3 39.5t-4 45q-5 105 -4 129q2 104 90 150q1 1 16 10z" />
    <glyph glyph-name="asciitilde" unicode="~" horiz-adv-x="470" 
d="M129 538q61 0 124 -40q17 -11 36 -13q21 -2 32 16q1 0 16 23q11 15 31 15q26 -1 39 -8q9 -5 10.5 -10t-4.5 -14q-2 -3 -6.5 -9.5t-6.5 -9.5q-31 -45 -87 -44q-63 1 -127 41q-17 11 -32 18q-26 11 -51 -3q-27 -15 -50 -54q-7 -13 -19.5 -16t-24.5 5q-9 6 -8 18q3 33 26 54
q39 35 102 31z" />
    <glyph glyph-name="nonbreakingspace" unicode="&#xa0;" horiz-adv-x="222" 
 />
    <glyph glyph-name="exclamdown" unicode="&#xa1;" horiz-adv-x="201" 
d="M69 893q25 -5 27 -6q8 -3 18 -13q7 -8 1 -20q-1 -2 -2 -4.5t-2.5 -5t-2.5 -4.5q-3 -6 -6 -7q-34 -17 -65 -13q-17 3 -20 15q-1 0 -5 7q-7 9 -7 15t8 14q14 17 41 20h14q1 0 1 0.5v1.5zM140 405q9 -239 10 -278q0 -1 1 -67q0 -28 -27 -39q-31 -12 -68 -6q-15 2 -21.5 9.5
t-8.5 23.5q-3 29 -4 70q-2 51 -5 146.5t-4 109.5q-3 101 -6 184q-1 22 -3 82t-3 92q-1 19 4.5 26.5t22.5 14.5q38 14 75 6q15 -4 20.5 -10.5t5.5 -22.5q5 -171 6 -180q0 -11 6 -161h-1z" />
    <glyph glyph-name="cent" unicode="&#xa2;" horiz-adv-x="296" 
d="M153 555q-24 -5 -27 -28q-3 -16 -6 -42q-2 -11 0 -36t6 -38q27 140 27 144zM160 580q11 47 12 52q6 23 10 34q3 9 16 11.5t19 -4.5q4 -5 3 -13q-6 -40 -12 -71q-3 -16 8 -25q25 -21 23 -60q0 -8 -3 -11.5t-12 -4.5q-17 -1 -21 11q0 2 -1 5l-1 4l-3 10q-5 -12 -5 -13
q-9 -48 -38 -200v-5q1 -8 2 -8q5 -2 9 1q13 7 25 27q2 5 6.5 13.5t7.5 13.5q4 8 13.5 11t18.5 -1q10 -4 8 -13q-6 -34 -8 -38q-15 -44 -61 -48q-2 0 -28 -2l-12 -60v-4t-1 -5q0 -1 -0.5 -4.5t-1 -5t-1.5 -4t-3 -4t-5 -2.5q-21 -6 -36 3q-5 4 -3 15q3 13 11 62q1 5 2 7
q2 11 -8 15q-43 16 -62 72q-9 24 -9 55.5t8.5 63t23.5 58t40 43.5t55 18z" />
    <glyph glyph-name="sterling" unicode="&#xa3;" horiz-adv-x="551" 
d="M436 697q-16 -3 -23 1t-12 18q-7 21 -20.5 43.5t-29.5 42t-33 32.5q-25 20 -55 21.5t-54 -19.5q-39 -38 -28 -121q3 -30 10 -66.5t12.5 -62.5t15 -67t13.5 -63q3 -11 5 -13.5t12 -2.5l54 -2q17 -2 38 -10q16 -6 13 -19q-2 -11 -19 -10q-8 0 -25 0.5t-26 0.5q-3 0 -41 -1
q-3 -112 -21 -227h7q58 12 131 -42q7 -5 29 -29t41 -38.5t33 -8.5q12 5 29 -8q11 -9 2 -23q-8 -13 -22 -14q-18 -1 -35 5t-33 19t-29 26t-29 30t-27 26q-21 18 -37 24q-14 2 -19.5 2t-19.5 -4t-19 -4q-11 -2 -18 -18q-13 -29 -38 -81q-24 -51 -76 -42q-31 5 -52 24
q-23 21 -6 47q74 104 82 308v22q-21 5 -42 3q-25 -3 -28 -3q-17 2 -33 9q-2 1 -4.5 3t-5 5.5t-3.5 4.5q2 9 13 13q30 9 73 7q1 0 28 1q-3 24 -3 25q-3 12 -8 36.5t-8 37.5q-3 17 -11.5 53.5t-14 65t-7.5 54.5q-6 69 19 117q21 42 63 62.5t88 16.5q116 -11 193 -154
q11 -19 11 -53z" />
    <glyph glyph-name="copyright" unicode="&#xa9;" horiz-adv-x="426" 
d="M191 476q-37 -72 -15 -142q8 9 9 10q7 11 24 36q12 17 30 14q16 -2 39 -10q5 -1 12 -10q8 -8 -2 -13q-4 -2 -7.5 -5t-5 -5t-5 -7.5t-4.5 -6.5q-3 -5 -10.5 -16.5t-11.5 -17.5q-23 -33 -63 -25q-1 0 -4.5 1t-5.5 1q-62 13 -75 75q-13 64 13 126q5 12 21 32q15 19 40 16
q59 -6 81 -45q5 -8 7 -16q6 -20 -14 -23q-7 -1 -14.5 0t-14 3.5t-11.5 7.5t-7 11q-1 0 -6 9zM235 591l-4 3q-5 1 -8 1q-70 2 -111 -33q-19 -15 -35 -33q-46 -50 -51 -125q-4 -65 43 -118q38 -43 83 -49q27 -3 49 -1q95 9 134 94q23 51 22 108q-2 57 -34 100q-16 21 -42 30
q-35 11 -66 1q-9 -4 -14 -4q-7 1 -9 6q-5 8 3 11q13 6 20 7q1 0 20 2zM376 431q-3 -53 -23 -101q-35 -85 -128 -106q-40 -9 -75 -2q-114 24 -137 143q-18 89 47 169q14 17 38 38q44 38 107 38q23 0 44 -3q24 -4 43 -20q3 -4 9 -8t11.5 -8t9.5 -8q32 -30 44 -75q1 -3 10 -57z
" />
    <glyph glyph-name="guillemotleft" unicode="&#xab;" horiz-adv-x="1335" 
d="M683 385q11 -63 57 -143q14 -24 44 -45q16 -11 37 -14q5 -2 8.5 -1t5.5 3t4 7q13 27 15 63q2 25 -5 50q-18 63 -60 98q-47 39 -107 62q-8 -33 1 -80zM165 575q17 -9 18 -9q60 -28 133 -44q61 -14 112 -11q22 1 104 20q38 8 78 13q15 2 23 13q24 36 63 55q1 0 30 15
q167 86 349 -44q77 -56 202 -187q10 -10 0 -22q-8 -11 -23 -14.5t-27 2.5q-13 7 -28 19q-20 16 -50 43.5t-52.5 48t-53.5 44.5t-58.5 40.5t-61 29.5t-65.5 16q-78 8 -129 -20q-20 -12 -32 -47l19 -7q69 -23 122 -59.5t79 -87.5q17 -33 21 -68.5t-3.5 -68t-29 -60.5
t-54.5 -45q-40 -20 -77.5 -20t-65 17t-51 45.5t-37 65t-23 75.5t-8.5 77t7 69q0 1 4 19q-21 6 -44 1q-34 -7 -89 -21q-102 -25 -192 -8q-61 11 -127 34l-4.5 2.5t-5 1.5t-5.5 -2q10 -18 10 -19q17 -38 22 -52q5 -17 -5 -37q-11 -21 -29 -8q-8 6 -15 14q-7 9 -20 26t-15 21
q-36 46 -72 130q-14 34 21 49q13 6 23 8q112 29 155 39q21 5 45 -9t32 -34q5 -14 -10 -19q-3 -2 -15 -4q-16 -4 -94 -22q-1 -2 -1 -4z" />
    <glyph glyph-name="registered" unicode="&#xae;" horiz-adv-x="425" 
d="M139 740q38 15 60 28q8 5 18.5 14t8.5 21q-47 15 -99 3q1 -10 12 -66zM189 701q31 -21 63 -34q13 -5 27 -16q8 -6 5 -13t-12 -7q-13 0 -26 4q-39 12 -77 35q-1 1 -20 12q1 -12 9 -36q6 -16 2 -21t-21 -4t-34 12t-19 28q-4 27 -6 49q-1 24 -5 79v20q1 21 19 25q31 8 33 8
q73 9 140 -22q2 -1 3 -2q47 -27 10 -68q-15 -16 -47 -30q-3 -1 -44 -19zM232 919q14 -8 15 -9q10 -9 25 -24q6 -6 0 -11q-6 -6 -12 -1q-1 1 -2 2.5t-2 2.5q-45 49 -117 33q-46 -10 -77 -53q-59 -82 -36 -181q12 -50 43 -83q30 -30 73 -39t87 11q61 32 97 97q36 63 28 122
q-10 75 -78 120q-21 14 -44 13zM208 939q72 1 123 -59q38 -45 42 -106q3 -35 -12 -76q-36 -98 -120 -143q-38 -21 -72 -20q-39 1 -74 19q-49 27 -73 80q-23 53 -20 104q3 72 44 128q33 45 86 62q6 2 40 7q3 0 36 4z" />
    <glyph glyph-name="degree" unicode="&#xb0;" horiz-adv-x="251" 
d="M84 761q19 13 25 37q7 28 -7 47q-2 3 -5 4.5t-5 2t-6.5 0.5h-5.5q-7 -2 -10 -13q-7 -21 -2 -55q2 -16 16 -23zM94 884q28 0 30 -1q19 0 36 -12q51 -34 22 -90.5t-91 -55.5q-34 0 -53 8q-38 17 -37 58q0 30 10 51q18 42 63 41h20v1z" />
    <glyph glyph-name="guillemotright" unicode="&#xbb;" horiz-adv-x="1335" 
d="M603 484q-60 -23 -107 -63q-42 -34 -60 -97q-7 -25 -5 -50q2 -36 15 -63q3 -8 6 -9.5t12 -0.5q21 4 37 15q30 21 44 45q46 80 57 143q9 47 1 80zM1119 597q-78 19 -94 23q-12 2 -16 4q-14 4 -9 19q7 20 31.5 34t45.5 9q43 -10 155 -39q9 -3 23 -8q35 -15 21 -49
q-36 -84 -72 -131q-3 -3 -15.5 -20t-19.5 -26q-7 -8 -15 -14q-18 -13 -29 7q-11 21 -5 38q5 14 22 52q0 1 10 19q-5 1 -5.5 1.5t-5 -1.5l-4.5 -2q-66 -23 -127 -34q-90 -17 -192 8q-55 14 -89 21q-23 5 -44 -1q4 -18 4 -19q13 -55 2 -126.5t-43.5 -129.5t-86.5 -83.5
t-127 10.5q-44 22 -67 63t-22 88t23 91q26 51 79 87.5t121 59.5q1 0 20 6q-12 36 -32 47q-51 28 -129 21q-39 -4 -77 -19.5t-74.5 -42t-64.5 -50t-66 -58.5t-59 -52q-15 -13 -28 -19q-12 -6 -27 -2.5t-24 14.5q-9 12 1 22q125 131 202 186q182 131 349 45q29 -15 30 -16
q39 -18 63 -54q8 -11 23 -13q40 -5 78 -13q82 -19 104 -20q51 -3 111 10q73 17 134 44q1 1 18 10q0 2 -1 3z" />
    <glyph glyph-name="questiondown" unicode="&#xbf;" horiz-adv-x="460" 
d="M189 801q-32 7 -34 8q-15 6 -18.5 19.5t7.5 26.5q11 14 27 17q24 4 49 5q8 0 20 -5q13 -6 16.5 -19.5t-4.5 -24.5q-15 -20 -43 -24q-1 0 -20 -1v-1.5v-0.5zM177 34q-25 0 -48 7q-51 15 -87.5 58t-39.5 96q-3 35 10 64q11 25 33 50t45.5 45.5t45.5 43t36.5 50t15.5 57.5
q1 11 -3 25.5t-10 27.5t-11.5 26.5t-8 24.5t-1 21t11 16t27.5 8q28 4 52 -3q23 -6 33 -24q46 -75 37 -142q-4 -28 -20 -57t-41.5 -55.5t-46 -44.5t-49.5 -40q-35 -27 -45 -41q-27 -39 -13 -89q12 -42 51 -75q11 -9 19 -12q10 -3 25 1q51 12 86 66l12 22t11.5 27t8 23t8.5 28
t7 24q2 6 4 29q1 10 2.5 28t2.5 25q1 12 12 15q29 6 38 -22q18 -61 1 -130.5t-63 -113.5q-29 -29 -68 -44.5t-80 -14.5z" />
    <glyph glyph-name="Agrave" unicode="&#xc0;" 
d="M271 867q-1 -19 -22 -29q-21 -11 -42 4q-2 2 -8 9q-12 12 -28.5 29.5t-32 33.5t-28.5 30q-15 16 -15 32q0 23 20 35q19 11 38 -1q7 -4 13 -10q12 -13 89 -94q16 -17 16 -39zM217 266l-52 312l-4 9q-8 -37 -8 -39q-41 -199 -54 -267q0 -1 -1 -15h119zM328 -39q-38 6 -41 7
q-21 5 -25 26q-2 14 -22 136q-15 88 -15 90q-1 8 -3.5 10t-11.5 2q-47 1 -109 2q-9 0 -10.5 -1.5t-3.5 -10.5q-3 -12 -6.5 -30t-7.5 -35t-7 -31q-6 -29 -14 -54q-4 -15 -18 -20t-27 3q-7 5 -6 17q7 47 8 54q38 205 54 286q20 103 61 303q5 25 21 93q3 10 7 13.5t14 4.5
q19 2 31 -4q5 -3 15 -5q22 -5 29 -25q16 -42 30 -100q10 -40 42 -228q5 -32 37 -222q10 -56 37 -221q1 -5 1.5 -8.5t1.5 -8.5t1 -9q2 -10 0 -15t-11 -8.5t-38 -8.5q0 -1 -14 -1v-1z" />
    <glyph glyph-name="Aacute" unicode="&#xc1;" horiz-adv-x="442" 
d="M142 811q-22 1 -33 19q-12 20 0 40q3 5 11 14q60 63 87 92q9 9 18 13q25 13 45 -9q8 -9 9.5 -22.5t-5.5 -23.5q-3 -6 -8 -11q-18 -19 -49.5 -52.5t-41.5 -43.5q-15 -15 -33 -16zM214 233q-1 23 -26 161.5t-30 148.5q-10 -51 -31.5 -154t-31.5 -156h119zM88 201
q-4 -19 -5 -20q-2 -10 -11.5 -52t-14.5 -65q-3 -11 -6 -20q-4 -15 -18 -20t-27 2q-6 4 -6 12q0 11 3 26q34 188 40 222q22 108 81 393q5 26 19 80q3 13 7.5 17t17.5 4q6 0 28 -5l9 -3t9 -2q19 -5 25 -23q21 -62 22 -65q19 -69 38 -182q6 -39 73 -426q14 -78 18 -104
q2 -12 -0.5 -17t-13.5 -9q-19 -7 -41 -9q-27 -2 -53 7q-18 7 -21 26q-14 82 -36 210q-1 2 -1 7q-2 10 -4.5 12t-16.5 2h-3q-14 0 -29.5 0.5t-33.5 0.5t-29 1h-20z" />
    <glyph glyph-name="Acircumflex" unicode="&#xc2;" 
d="M193 934q-13 -12 -14 -13l-67 -67q-20 -22 -51 -3q-11 6 -3 17l12 15q54 60 78 86q15 17 28 17q26 -2 40 -14q8 -7 16 -17q14 -17 80 -100q3 -4 4 -4q0 -2 2 -4t2.5 -3.5t1.5 -4t-1 -4.5q-4 -8 -18 -8q-34 2 -52 27t-48 67zM96 270h60.5h59.5q-1 14 -17 107
q-14 86 -18 106q-12 75 -21 105q-43 -211 -64 -318zM0 78q6 32 6 33q4 20 9 46.5t9 48.5t8 45.5t8.5 48t8.5 46.5q31 166 47 242q10 50 48 220q3 15 9 19.5t22 3.5q6 0 10 -1q25 -8 38 -13t19 -22q20 -66 25 -84q14 -51 39 -200q7 -43 20.5 -122t16.5 -99q7 -40 19.5 -114.5
t17.5 -107.5q7 -38 12 -69q1 -10 -1 -15t-10 -8q-51 -22 -104 0q-11 4 -15 24q-3 17 -8 48.5t-7 43.5q-13 81 -21 130q-2 10 -4.5 12t-11.5 2q-49 1 -109 1h-5.5t-3.5 -0.5t-2.5 -2l-1 -3t-1.5 -5.5q-5 -20 -14 -61.5t-14 -61.5q-3 -14 -7 -28q-2 -8 -5.5 -12t-9 -6
t-13.5 -2q-15 0 -24 9v14z" />
    <glyph glyph-name="Atilde" unicode="&#xc3;" horiz-adv-x="449" 
d="M272 802q-76 7 -116 45q-19 18 -44 26q-16 5 -26 -5q-11 -10 -16 -16q-5 -7 -13.5 -19t-11.5 -15q-6 -9 -19.5 -10.5t-20.5 5.5q-5 5 -5 13q2 34 22 54q33 34 70 38q31 5 60 -7q34 -14 54 -33q19 -20 48 -24q20 -3 29 14q12 22 15 30q4 9 14 12q23 6 48 -6q14 -7 9 -22
q-12 -36 -31 -56q-11 -11 -24 -15q-4 -1 -42 -9zM174 536h-2h-2q-3 -16 -3 -17q-47 -227 -58 -279q0 -1 -1 -15h119q-8 46 -53 311zM232 191h-65q-28 0 -53 2q-6 1 -9.5 -0.5t-5 -3.5t-2.5 -9q-3 -12 -10 -44t-11 -49q-7 -30 -14 -54q-4 -13 -19.5 -18t-26.5 3q-6 5 -4 16
q5 43 7 54q39 205 53 275q19 94 62 301q5 26 21 91q3 11 7 14.5t16 5.5h9q37 -12 51 -17q7 -3 14 -20q15 -38 29 -96q9 -38 38 -202q6 -28 34 -197q8 -43 20 -109l20 -110q3 -22 4 -24q2 -17 -11 -23q-16 -6 -32 -9q-29 -3 -56 3q-16 4 -22 10.5t-9 22.5q-6 37 -16 88
t-15 85q-1 1 -4 14z" />
    <glyph glyph-name="Adieresis" unicode="&#xc4;" 
d="M146 870q-17 1 -27 12.5t-9 28.5q0 17 12 27.5t29 9.5q16 -1 26.5 -13t9.5 -29q0 -16 -12 -26.5t-29 -9.5zM242 864q-11 0 -20 5t-14 14t-5 19q-1 16 10.5 27.5t27.5 12.5q17 0 29 -11.5t12 -28.5q-1 -16 -12.5 -27t-27.5 -11zM162 588q-21 -90 -42 -196.5t-20 -117.5
h115q1 12 -23.5 156.5t-29.5 157.5zM223 239q-14 1 -15 1q-102 2 -107 2q-11 0 -13 -10q-10 -46 -28 -124q-1 -5 -8 -29q-4 -15 -21 -15q-7 -1 -10 0q-7 0 -10.5 1t-6 4t-2.5 7t1 10q17 107 24 146q31 162 52 264q11 54 33 155t31 146q5 20 14.5 24.5t32.5 0.5
q5 -1 9.5 -2.5t10 -4t9.5 -3.5q17 -5 23 -23q16 -42 30 -98q10 -40 38 -202q5 -29 11 -61.5t12.5 -72t10.5 -60.5q6 -40 19 -114.5t18 -106.5q8 -45 12 -67q2 -15 -11 -22q-7 -4 -14 -5q-37 -10 -77 -1q-24 6 -28 31q-8 45 -37 216z" />
    <glyph glyph-name="Aring" unicode="&#xc5;" horiz-adv-x="440" 
d="M197 902q-10 -22 -12 -51q18 22 12 51zM165 543q-11 -38 -27 -111.5t-27 -133t-11 -66.5q17 -2 63.5 -0.5t54.5 4.5q-18 102 -53 307zM223 198h-18q-75 1 -103 2q-8 0 -10 -1.5t-4 -9.5q-4 -20 -13.5 -61.5t-14.5 -61.5q-1 -6 -4 -16t-3 -12q-4 -16 -22 -16q-5 -1 -7 -1
q-15 1 -19 6t-2 19q31 173 42 234q27 140 52 262q7 35 47 213q1 1 8 25q-9 5 -10 5q-9 5 -11 6q-47 28 -38 78q8 44 29.5 75t57.5 25q48 -8 77 -39q33 -33 26.5 -80t-51.5 -72q-1 0 -13 -6q4 -2 7.5 -4.5t6.5 -6t5 -5.5t4 -7t2.5 -7t2.5 -8t3 -7q23 -68 43 -180
q15 -83 41 -237q6 -36 13 -74.5t13.5 -76t12.5 -73.5q12 -70 15 -85q3 -14 -9 -21q-8 -4 -16 -6q-37 -9 -77 0q-24 5 -28 31q-7 41 -17 98.5t-15 82.5z" />
    <glyph glyph-name="Egrave" unicode="&#xc8;" horiz-adv-x="347" 
d="M75 1026q13 1 30 -13q9 -8 65 -55q39 -33 43 -36q27 -24 8 -54q-8 -12 -21.5 -15.5t-26.5 2.5q-7 3 -14 9q-44 37 -103 86q-8 7 -12 12q-16 20 -5 41q10 23 36 23zM113 789q2 -49 7 -141.5t7 -134.5h65q3 0 29 0.5t40 0.5q12 -1 28 -9q6 -3 6 -8.5t-6 -7.5
q-18 -8 -30.5 -8t-108.5 1h-20q1 -67 4.5 -205.5t4.5 -210.5q14 1 15 1q83 -2 106 -3q10 -1 25 -7q9 -4 8 -12q0 -8 -9 -11q-23 -7 -36 -7q-27 -1 -58 3q-24 4 -50 -2q-3 -20 -3 -22q-2 -20 -22 -27q-36 -12 -72 0q-21 7 -23 29q0 1 -1 7.5t-1 9.5q-7 156 -8 185
q-6 186 -8 317q-2 68 -2 237q0 10 0.5 22l1 24t0.5 21q1 21 21 27q31 10 63 1q22 -7 23 -33q13 -1 14 -1q114 -3 123 -4q15 0 30 -7q8 -4 8 -10t-8 -10q-14 -7 -27 -7q-5 0 -56 2q-52 1 -72 2q-1 0 -8 -2z" />
    <glyph glyph-name="Eacute" unicode="&#xc9;" horiz-adv-x="347" 
d="M163 997q28 0 39 -24q5 -11 2 -23t-11 -20q-3 -3 -7 -6q-21 -14 -60.5 -41.5t-58.5 -40.5q-16 -11 -32 -8q-22 5 -29.5 26.5t7.5 39.5q3 3 10 8q10 7 117 80q14 10 23 9zM112 778h84q26 0 58 -3q12 -1 22 -7q8 -3 9 -11q1 -2 -2.5 -5t-5.5 -4q-17 -6 -28 -7q-7 0 -44 1
q-11 0 -38.5 1t-41.5 2q-1 0 -10 -2q10 -199 14 -270q14 -1 15 -1q5 0 42.5 1.5t57.5 1.5q16 0 35 -4q5 -1 8 -2t6.5 -4t2.5 -8q0 -9 -17 -12.5t-28 -2.5q-6 0 -99 2h-20q-2 -14 -2 -15q1 -20 3.5 -98.5t3.5 -121.5q1 -15 1 -31t0.5 -31.5t0.5 -30t0.5 -32t0.5 -30.5
q0 -1 1 -16h15q88 -2 105 -3q10 -1 26 -7q6 -3 8 -10q2 -8 -9 -12q-18 -6 -25 -6q-33 0 -70 3q-32 2 -50 -4q-2 -18 -2 -19q-1 -21 -21 -27q-37 -12 -75 0q-20 6 -22 28q-2 23 -3 43q-1 30 -4.5 105.5t-5 130t-2.5 105.5q-1 42 -3 398q0 12 1 25q2 17 17 22q35 11 70 0
q14 -5 18 -20z" />
    <glyph glyph-name="Ecircumflex" unicode="&#xca;" horiz-adv-x="360" 
d="M141 962q-18 -17 -19 -18l-62 -62q-22 -21 -48 -5q-8 5 -9 9t4 12q4 5 12 13q58 66 77 87q15 16 26 16q27 -1 41 -13q9 -7 17 -18q13 -16 81 -100l2 -3q0 -1 3.5 -5t3.5 -5.5t-1 -6.5q-4 -8 -18 -7q-35 2 -52 26l-50 70zM153 21q-3 -24 -3 -25q-3 -19 -20 -25
q-38 -14 -76 0q-18 6 -21 26q-3 17 -3 19q-7 154 -8 186q-5 185 -8 316q-1 69 -1 237q0 12 1 34.5t1 32.5q0 21 21 27q31 11 64 0q20 -6 22 -32q16 -1 17 -1q107 -3 121 -3.5t29 -7.5q8 -3 8 -9.5t-8 -9.5q-15 -7 -29 -8q-6 0 -49 1q-9 1 -24.5 1.5t-28.5 1t-25 0.5l-8 -2
q9 -166 15 -276h66q2 0 34.5 0.5t34.5 0.5q11 -1 25 -8q7 -3 7.5 -9t-7.5 -9q-16 -7 -28 -7t-108 1h-22q5 -210 10 -415h14q86 -2 106 -3q8 -1 22 -6q13 -4 13 -13q-1 -7 -13 -12q-8 -3 -12 -4q-28 -3 -37 -2q-7 0 -16.5 1l-19 2t-17.5 1q-2 1 -39 -1z" />
    <glyph glyph-name="Edieresis" unicode="&#xcb;" horiz-adv-x="348" 
d="M181.5 939q16.5 0 27.5 -11.5t11 -27.5q0 -17 -11.5 -28t-28.5 -11q-16 1 -27.5 12.5t-10.5 27.5q0 16 11.5 27t28 11zM87 869q-17 -1 -30.5 11.5t-13.5 28.5q0 17 11.5 28.5t28.5 11.5q18 1 30.5 -11.5t12.5 -29.5t-11 -28t-28 -11zM140 64h19q81 -1 93 -1q16 -1 34 -8
q9 -4 9 -10.5t-9 -10.5q-18 -7 -34 -7q-13 0 -38 1.5t-32 1.5q-3 0 -41 -1q-3 -22 -4 -23q-2 -20 -20 -26q-37 -13 -75 -1q-20 8 -22 29q0 2 -0.5 4.5t-1 4.5t-0.5 4v4q-7 156 -8 185q-6 173 -8 305q-2 76 -2 223q0 15 1 42t2 36q0 18 18 25q33 11 67 0q19 -6 21 -32h21
q103 -3 123 -4q11 -1 25 -8q6 -4 6 -9t-7 -8q-15 -7 -32 -9q-5 -1 -33 0q-13 1 -42.5 2.5t-45.5 2.5l-11 -1q1 -23 6.5 -122t8.5 -152q62 2 67 2q48 1 67 0q9 0 24 -6q8 -3 8 -10t-8 -10q-19 -6 -29 -6q-9 0 -104 1h-23q1 -68 4.5 -204t5.5 -204z" />
    <glyph glyph-name="Igrave" unicode="&#xcc;" horiz-adv-x="252" 
d="M141 874q-13 -1 -27 11q-63 58 -96 88q-22 21 -11 46q7 17 24 22.5t33 -4.5q4 -3 8 -7q31 -28 93 -83q23 -21 15 -46q-9 -26 -39 -27zM67 399q-4 230 -4 263q-2 99 -1 114q0 1 5 53q2 16 19 22q32 12 70 2q24 -6 26 -29q7 -71 8 -86q0 -27 5 -324q1 -39 2 -111.5t2 -96.5
q2 -130 3 -193q0 -15 -4.5 -22t-18.5 -11q-39 -14 -79 -1q-15 5 -20.5 12t-5.5 23q-1 34 -2 108t-2 113q0 11 -3 164z" />
    <glyph glyph-name="Iacute" unicode="&#xcd;" horiz-adv-x="276" 
d="M226 1013q0 -15 -19 -28q-10 -7 -41 -28q-10 -7 -29 -19.5t-34.5 -23.5t-29.5 -20q-20 -14 -41 -3q-19 9 -21 30t14 35q2 2 19 13q9 7 50.5 35t63.5 43q16 11 30 11q16 -1 27 -13t11 -32zM5 400q-4 292 -5 345q0 25 5 65q2 13 7 18.5t19 7.5q44 6 57 3q31 -6 33 -33
q6 -55 6 -56q2 -60 5 -218q1 -79 3.5 -225.5t3.5 -208.5q0 -12 1 -39t1 -42q0 -14 -5 -21t-18 -12q-40 -13 -81 0q-14 4 -19.5 11.5t-5.5 23.5q-4 209 -5 317v64h-2z" />
    <glyph glyph-name="Icircumflex" unicode="&#xce;" horiz-adv-x="323" 
d="M140 966q-41 -41 -44 -45q-30 -30 -39 -38q-11 -10 -25.5 -10t-25.5 10q-7 7 -2 14q11 14 16 19q12 14 37.5 35.5t37.5 35.5q2 3 7 11t10 13.5t10 5.5q28 -1 43 -15q7 -7 15 -17q17 -21 79 -99q4 -4 6 -7q13 -19 -11 -20q-36 -1 -55 25q-8 11 -23.5 33t-23.5 33
q-1 1 -12 16zM203 383q2 -159 2 -171q1 -36 2 -104t2 -99q0 -13 -4.5 -20t-17.5 -11q-41 -15 -83 -1q-13 5 -18 11.5t-5 21.5q-1 33 -1.5 70t-1 81.5t-1.5 70.5q0 22 -1.5 99t-2.5 119q0 36 -1 103t-2 84q-2 123 -2 136q0 1 6 54q2 15 18 21q33 13 71 3q24 -6 26 -30
q7 -61 7 -79q1 -1 2 -121q1 -31 2 -96.5t2 -99.5v-42h1z" />
    <glyph glyph-name="Idieresis" unicode="&#xcf;" horiz-adv-x="237" 
d="M148 887q-16 0 -27.5 11.5t-12.5 26.5q0 17 12 29t28 12q16 -1 27.5 -12.5t11.5 -27.5q0 -5 -1.5 -10t-4 -9.5t-6 -8t-8 -6t-9.5 -4t-10 -1.5zM41 882q-18 0 -29.5 11.5t-10.5 29.5q0 17 11.5 27.5t29.5 9.5q17 0 28 -11t12 -27q0 -17 -12 -28.5t-29 -11.5zM37 385
q-4 230 -4 257q-2 97 -2 111q0 1 6 52q1 16 17 22q38 14 78 0q17 -6 20 -26q6 -49 7 -69q0 -5 2 -128q1 -54 3 -194q1 -34 3 -84.5t2 -84.5q3 -177 4 -201q1 -16 -5.5 -24t-22.5 -12q-34 -9 -71 0q-3 1 -8 3q-21 8 -21 29q0 19 -1 54.5t-1 47.5q-1 45 -3 122t-3 125z" />
    <glyph glyph-name="Ntilde" unicode="&#xd1;" horiz-adv-x="471" 
d="M131 892q60 -1 122 -41q19 -12 40 -13q17 -1 28 15q2 2 7.5 10t8.5 13q11 17 35 16q27 -1 40 -10q11 -8 5 -17q-25 -37 -37 -46q-28 -23 -66 -22q-63 1 -127 42q-15 9 -31 16q-27 13 -54 -3q-25 -15 -47 -52q-13 -22 -37 -15q-11 4 -14 9t-2 16q4 31 26 51q39 35 103 31z
M115 414v-20q-1 -265 -1 -272q0 -15 -0.5 -43.5t-1.5 -40.5q0 -13 -12 -18q-28 -10 -56 0q-13 5 -13 19q0 10 -0.5 22t-1 22.5t-0.5 22.5t-0.5 22.5t-0.5 22v22.5q-2 171 -5 504q0 19 1 60q1 14 6 19.5t19 8.5q54 10 82 -34q21 -34 34 -71q13 -40 126 -374q12 -36 22 -54
q1 16 1 17q0 129 3 479v1.5v1.5q0 12 2 18t7.5 8.5t17.5 3.5q18 1 36 -3q9 -1 11.5 -5t2.5 -13q1 -10 0 -41q-4 -147 -5 -179q-4 -166 -7 -263q-1 -32 -7 -169q0 -5 -2 -19q-2 -21 2 -33q5 -15 -9 -21q-11 -6 -25 -9q-31 -6 -65 2q-24 6 -31 29q-11 34 -80 237
q-5 15 -13 39.5t-15 45t-13 39.5q-1 0 -6 16h-3z" />
    <glyph glyph-name="Ograve" unicode="&#xd2;" horiz-adv-x="469" 
d="M325 852q-1 -24 -23 -34q-23 -11 -43 6l-21 21q-2 2 -26.5 27.5t-37 38.5t-14.5 25q-3 25 18 39q21 15 44 -1q3 -2 7 -6q13 -14 83 -86q13 -13 13 -30zM260 50h2q6 -5 40.5 63t40.5 87q27 75 32 170q10 201 -59 358q-15 34 -34 44q-17 9 -35.5 5t-33.5 -17
q-21 -19 -37 -63q-66 -178 -35 -402q25 -179 119 -245zM419 427q-7 -188 -91 -351q-16 -31 -31 -43q-27 -22 -74 -17q-52 6 -95.5 39.5t-70.5 82.5q-43 78 -50 206q-12 242 95 395q29 42 60 57q44 22 116 4q26 -6 47 -21.5t35 -34t24.5 -46t16.5 -51t10 -56t5 -53t2 -50.5
q2 -30 1 -61z" />
    <glyph glyph-name="Oacute" unicode="&#xd3;" horiz-adv-x="465" 
d="M213 799q-27 0 -37 21q-12 22 2 41q4 5 11 11q46 39 111 95q9 7 13 10q12 7 26.5 5.5t23.5 -12.5q10 -11 10 -25.5t-9 -25.5q-4 -5 -9 -9q-12 -11 -28 -24.5t-28.5 -24t-28.5 -24t-29 -24.5q-17 -15 -28 -14zM251 22q11 6 23 23q95 134 98 334q2 90 -18 177
q-1 3 -3.5 14.5t-3.5 17t-4 17t-5 18.5t-5.5 18t-6.5 18t-7.5 16.5t-8.5 16t-9.5 13t-10.5 10.5q-20 17 -53 16q-10 0 -16 -2.5t-11.5 -8t-10.5 -15t-8 -15t-8.5 -16.5t-5.5 -13q-21 -44 -33 -94q-18 -78 -16 -199q2 -106 22 -184t78 -141q1 -1 23 -21zM0 353q2 220 99 346
q36 48 75 59q28 8 79 -1q57 -10 81 -29q40 -33 58 -127q18 -101 20 -165q4 -174 -84 -380q-15 -34 -29 -47q-25 -24 -72 -21q-57 3 -105.5 39t-76.5 91q-45 85 -45 227v8z" />
    <glyph glyph-name="Ocircumflex" unicode="&#xd4;" horiz-adv-x="469" 
d="M223 920l-36 -36l-45 -45q-24 -23 -51 -2q-9 7 -3 16l12 15q55 61 78 87q16 18 29 17q28 -3 42 -16q8 -8 14 -16q21 -26 80 -100q4 -4 6 -7q11 -18 -9 -19q-37 -3 -57 25q-10 12 -26.5 35.5t-21.5 29.5q0 1 -12 16zM252 41q5 2 12 10q114 135 113 358q0 100 -25 197
q0 2 -5.5 22t-7.5 27t-7.5 25t-10.5 27t-12.5 22t-16.5 21t-19 12q-27 13 -52 0q-16 -8 -29.5 -27.5t-24 -49t-15.5 -46t-12 -43.5q-25 -97 -18 -208q13 -195 103 -332q11 -17 22 -16q2 0 5 1zM412 418q-8 -144 -65 -303q-28 -77 -80.5 -99.5t-125.5 18.5q-80 49 -115 150
q-28 81 -24 215q9 281 142 382q24 18 51 17q53 -1 68 -4q22 -5 68 -25q16 -7 27 -31q65 -144 54 -320z" />
    <glyph glyph-name="Otilde" unicode="&#xd5;" horiz-adv-x="483" 
d="M304 825q-67 7 -105 35q-15 11 -28 18q-14 8 -32 1q-42 -14 -65 -56q-3 -5 -4 -8q-10 -15 -27 -8q-15 7 -11 25q11 46 53 66q52 25 107 7q14 -5 31 -17q31 -22 63 -24q10 -1 19 2q25 11 42 33q9 12 23 11q27 0 42 -13q10 -9 0 -18q-42 -35 -67 -45q-23 -9 -41 -9zM268 60
q1 0 2 -1q64 79 94.5 203.5t14.5 228.5q-1 8 -5 37t-6 40t-6.5 35.5t-8 39.5t-10 35t-13.5 38q-19 44 -45 54q-31 11 -61 -13q-20 -16 -37 -52q-31 -68 -39.5 -145.5t-4.5 -175.5q4 -114 25 -179q30 -98 100 -145zM430 427q-2 -53 -11 -105q-48 -290 -157 -297
q-54 -3 -103 26q-118 68 -140 243q-16 126 7 248.5t94 206.5q36 43 93.5 51.5t108.5 -20t69 -82.5q44 -129 39 -271z" />
    <glyph glyph-name="Odieresis" unicode="&#xd6;" horiz-adv-x="487" 
d="M176 910q16 0 27.5 -11.5t11.5 -27.5q0 -17 -12 -29t-28 -12q-11 0 -20.5 5.5t-15 14.5t-5.5 20q-1 17 12 28.5t30 11.5zM318 870q0 -16 -11.5 -27.5t-26.5 -12.5q-12 0 -21.5 5t-15.5 14.5t-6 20.5t5 20t14 14.5t19 5.5q12 0 21.5 -5.5t15.5 -14.5t6 -20zM268 49
q10 5 22 22q47 63 72.5 147.5t27.5 171.5t-14.5 174t-50.5 157q-20 41 -66 39q-8 0 -10 1q-11 3 -18 -7q-63 -89 -87 -217.5t1.5 -257.5t99.5 -209q1 -1 23 -21zM431 417q-11 -170 -98 -357q-19 -42 -67 -45q-54 -4 -105 25q-62 37 -98.5 101.5t-46.5 132.5t-2 143
q3 34 10.5 76t23.5 96.5t36.5 97.5t52.5 73.5t70 30.5q45 0 68 -3q29 -4 73 -26q16 -8 27 -33q66 -142 56 -312z" />
    <glyph glyph-name="Ugrave" unicode="&#xd9;" horiz-adv-x="460" 
d="M241 826q0 -26 -20 -36q-21 -11 -42 2q-3 2 -9 8q-11 11 -31 30.5t-36.5 35.5t-31.5 30q-17 16 -13 38q3 22 24 29.5t39 -5.5l10 -10q95 -92 96 -93q14 -14 14 -29zM274 152q-19 -24 -32 -53q-1 -3 -4.5 -11t-5 -12.5t-5 -10.5t-7.5 -11t-8 -9q-31 -25 -86.5 -16.5
t-74.5 43.5q-26 49 -35 112q-6 49 -7 66q-2 31 -3 95q-4 173 -6 277q0 14 0.5 41.5t0.5 41.5q0 21 20 27q44 15 88 1q20 -7 19 -28q0 -4 1 -39q1 -100 3 -325q1 -109 15 -164q1 -4 11 -30t18 -49t6 -25q36 35 73 110q13 27 17 42q7 24 7.5 52.5t-2 67.5t-3.5 53
q0 27 -0.5 58.5t-1 67.5t-0.5 58q-2 111 -2 131q0 5 7 70q2 23 26 29q29 7 58 0q22 -6 27 -29q9 -40 10 -107q1 -37 6 -359q2 -153 3 -208q0 -15 1 -47t1 -48q0 -12 -3 -17t-15 -9q-46 -17 -93 0q-18 6 -18 26q2 101 -4 141q-1 -1 -2 -3z" />
    <glyph glyph-name="Uacute" unicode="&#xda;" horiz-adv-x="460" 
d="M160 804q-27 0 -37 22t4 40q5 6 12 11q77 63 112 92q9 7 20 10q26 7 41 -17q14 -24 -2 -45q-4 -5 -12 -11q-21 -17 -59.5 -49t-49.5 -40q-17 -14 -29 -13zM182 70q15 11 29 32q22 31 51 89q9 16 13 36t4.5 41.5t0 40t-2.5 43t-2 38.5q-2 101 -4 230q-1 56 1 92q0 2 6 54
q2 17 20 22q36 12 71 0q15 -5 19 -23q9 -38 10 -84q2 -119 4 -232q2 -78 7 -430q1 -19 -4 -25.5t-24 -11.5q-39 -9 -76 1q-15 5 -19.5 11t-4.5 21q-2 84 -2 112q0 1 -1 17q-6 -3 -6 -4q-4 -7 -13.5 -27.5t-16.5 -33t-19 -26.5t-26 -19q-43 -15 -100 -1q-31 7 -48 39
q-22 42 -31 97q-6 38 -9 78t-3 87q0 40 -1 86.5t-2.5 100t-2.5 86.5q0 14 1 75q0 15 5 21.5t19 10.5q41 13 81 0q14 -4 18.5 -10.5t4.5 -21.5q1 -10 1 -88.5t1 -119.5q2 -146 7 -225q4 -88 26 -142q1 -2 18 -37z" />
    <glyph glyph-name="Ucircumflex" unicode="&#xdb;" horiz-adv-x="469" 
d="M186 933q-12 -12 -13 -12q-56 -56 -67 -68q-21 -21 -51 -3q-11 6 -3 17q6 8 16 20q45 50 73 82q16 17 28 16q26 -1 41 -14q8 -7 17 -18q14 -17 79 -99q4 -4 4 -5q5 -12 4 -14q-2 -9 -16 -8q-35 1 -53 26q-28 39 -47 66q-1 0 -12 14zM193 66q94 107 93 164q-2 88 -6 347
q-1 107 -1 124q0 10 1.5 22.5t3 26.5t2.5 23q2 24 28 31q28 6 54 -1q24 -6 29 -29q9 -39 10 -105q2 -103 4.5 -294.5t4.5 -274.5q1 -68 2 -95q1 -19 -16 -26q-49 -18 -97 0q-16 7 -16 25q0 22 -1 119q0 1 -1 23l-8 -11q-2 -4 -17 -36.5t-28 -49t-31 -22.5q-27 -10 -63.5 -7
t-59.5 20q-34 24 -47 97q-9 53 -15 108.5t-7.5 118t-1.5 107t0.5 118t0.5 109.5q0 18 17 24q45 18 93 1q18 -6 17 -26q-5 -284 14 -491q9 -97 42 -140z" />
    <glyph glyph-name="Udieresis" unicode="&#xdc;" horiz-adv-x="460" 
d="M272 942q11 0 20 -5t14 -14t5 -20q0 -17 -11 -28t-28 -11q-11 0 -19.5 5t-14 14t-5.5 20q0 17 11.5 28t27.5 11zM119.5 864q-16.5 0 -27.5 11.5t-11 27.5t11.5 27.5t28.5 11.5q16 -1 27.5 -12.5t10.5 -27.5q0 -16 -11.5 -27t-28 -11zM274 173q-3 1 -11.5 -15t-17 -35
t-9.5 -20q-8 -14 -15.5 -22.5t-18.5 -15.5t-26 -9q-37 -7 -73.5 2.5t-52.5 38.5q-26 47 -34 109q-6 49 -7 62q-2 33 -3 97q-4 165 -6 270q0 14 1 81q1 12 5 17.5t15 9.5q43 15 86 1q12 -4 16.5 -10t4.5 -19q0 -7 0.5 -21.5t0.5 -16.5q2 -187 2 -214q2 -115 4 -153
q0 -1 9 -94q4 -44 19 -80q1 -3 18 -38q12 7 25 25q21 31 40 66q2 3 10 19.5t14 24.5q7 9 7 25q-5 272 -6 361q-1 36 2 145q0 2 4 31q3 17 19 23q36 14 73 0q16 -6 18 -21q8 -52 8 -56q4 -93 6 -193.5t3.5 -233.5t2.5 -193q2 -63 3 -83q1 -19 -18 -25q-47 -17 -95 0
q-17 6 -17 25q0 11 -1 115v19q-2 0 -5 1z" />
    <glyph glyph-name="Yacute" unicode="&#xdd;" horiz-adv-x="463" 
d="M378 931q0 24 -22 35q-21 10 -42 -5q-2 -1 -9 -8q-62 -64 -107 -109q-8 -8 -11 -12q-10 -12 -9 -26.5t12 -25.5t26 -11.5t27 9.5l5 5q112 112 116 117q15 14 14 31zM226 18q15 23 25 60q21 79 21 157v130q0 1 -1 16q-41 -102 -46 -116q-16 -40 -98 -31q-38 4 -59 27
q-14 15 -24 49q-8 25 -14 52.5t-10 51t-6.5 54.5t-3.5 51.5t-1 55t0.5 52t1 55t0.5 52.5q1 20 18 26q46 19 91 2q9 -3 13 -7t5.5 -9.5t1.5 -15.5q-1 -49 -1 -102.5t2 -101t9 -100.5t19 -102l6 -19l9 13q40 50 60 127q4 14 9.5 32.5t11 37.5t9.5 33q5 20 14 56.5t13 48.5
q12 50 17.5 64.5t13 19t23.5 2.5q15 -1 18 -15q1 -2 6.5 -26t7.5 -36q4 -22 8 -74q21 -269 -3 -440q-10 -77 -38 -117q-41 -59 -111.5 -57.5t-113.5 57.5q-34 44 -28 108q1 6 2.5 10t4.5 6.5t7 3.5t11 1q12 0 17.5 -4t8.5 -16q9 -39 11 -44q14 -47 54 -73q1 0 9 -5z" />
    <glyph glyph-name="germandbls" unicode="&#xdf;" horiz-adv-x="701" 
d="M110 586q7 -237 0 -562q0 -4 -2 -17q-2 -12 -7.5 -18t-18.5 -8q-9 -2 -17 -2t-14.5 2t-11 4t-8.5 6.5t-6.5 8.5t-4 11t-2.5 11.5t-2 13t-1 13v14.5q-1 10 -1 15q-13 267 -6 503q0 10 1 34q0 27 0.5 41.5t2.5 42t4.5 43.5t8 40.5t12.5 40t18 34t25 30t33 22t42 15.5
q58 14 123 5t116 -41q48 -30 76 -79.5t24 -102.5q-3 -36 -36 -92t-38 -87q-5 -32 18 -62q13 -17 53 -45q56 -40 95.5 -93.5t51.5 -115.5q10 -51 -3.5 -101t-49.5 -83q-29 -27 -69.5 -38.5t-81.5 -6.5q-98 13 -181 105q-10 10 -26 34q-14 21 1 43q14 21 42 17q18 -3 42 -21.5
t49 -42.5t38 -33q35 -22 59 -23q28 -2 51 19t30 51q11 49 -20 112q-38 77 -109 135q-6 4 -22 16.5t-23 18.5t-19.5 18t-19 21t-12 21.5t-7.5 25.5q-3 30 11 62.5t33 56.5t32.5 57t8.5 65q-8 44 -50.5 71.5t-95.5 33.5q-87 10 -122 -37q-21 -28 -20 -97q4 -61 6 -125z" />
    <glyph glyph-name="agrave" unicode="&#xe0;" 
d="M271 867q-1 -19 -22 -29q-21 -11 -42 4q-2 2 -8 9q-12 12 -28.5 29.5t-32 33.5t-28.5 30q-15 16 -15 32q0 23 20 35q19 11 38 -1q7 -4 13 -10q12 -13 89 -94q16 -17 16 -39zM217 266l-52 312l-4 9q-8 -37 -8 -39q-41 -199 -54 -267q0 -1 -1 -15h119zM328 -39q-38 6 -41 7
q-21 5 -25 26q-2 14 -22 136q-15 88 -15 90q-1 8 -3.5 10t-11.5 2q-47 1 -109 2q-9 0 -10.5 -1.5t-3.5 -10.5q-3 -12 -6.5 -30t-7.5 -35t-7 -31q-6 -29 -14 -54q-4 -15 -18 -20t-27 3q-7 5 -6 17q7 47 8 54q38 205 54 286q20 103 61 303q5 25 21 93q3 10 7 13.5t14 4.5
q19 2 31 -4q5 -3 15 -5q22 -5 29 -25q16 -42 30 -100q10 -40 42 -228q5 -32 37 -222q10 -56 37 -221q1 -5 1.5 -8.5t1.5 -8.5t1 -9q2 -10 0 -15t-11 -8.5t-38 -8.5q0 -1 -14 -1v-1z" />
    <glyph glyph-name="aacute" unicode="&#xe1;" horiz-adv-x="442" 
d="M142 811q-22 1 -33 19q-12 20 0 40q3 5 11 14q60 63 87 92q9 9 18 13q25 13 45 -9q8 -9 9.5 -22.5t-5.5 -23.5q-3 -6 -8 -11q-18 -19 -49.5 -52.5t-41.5 -43.5q-15 -15 -33 -16zM214 233q-1 23 -26 161.5t-30 148.5q-10 -51 -31.5 -154t-31.5 -156h119zM88 201
q-4 -19 -5 -20q-2 -10 -11.5 -52t-14.5 -65q-3 -11 -6 -20q-4 -15 -18 -20t-27 2q-6 4 -6 12q0 11 3 26q34 188 40 222q22 108 81 393q5 26 19 80q3 13 7.5 17t17.5 4q6 0 28 -5l9 -3t9 -2q19 -5 25 -23q21 -62 22 -65q19 -69 38 -182q6 -39 73 -426q14 -78 18 -104
q2 -12 -0.5 -17t-13.5 -9q-19 -7 -41 -9q-27 -2 -53 7q-18 7 -21 26q-14 82 -36 210q-1 2 -1 7q-2 10 -4.5 12t-16.5 2h-3q-14 0 -29.5 0.5t-33.5 0.5t-29 1h-20z" />
    <glyph glyph-name="acircumflex" unicode="&#xe2;" 
d="M193 934q-13 -12 -14 -13l-67 -67q-20 -22 -51 -3q-11 6 -3 17l12 15q54 60 78 86q15 17 28 17q26 -2 40 -14q8 -7 16 -17q14 -17 80 -100q3 -4 4 -4q0 -2 2 -4t2.5 -3.5t1.5 -4t-1 -4.5q-4 -8 -18 -8q-34 2 -52 27t-48 67zM96 270h60.5h59.5q-1 14 -17 107
q-14 86 -18 106q-12 75 -21 105q-43 -211 -64 -318zM0 78q6 32 6 33q4 20 9 46.5t9 48.5t8 45.5t8.5 48t8.5 46.5q31 166 47 242q10 50 48 220q3 15 9 19.5t22 3.5q6 0 10 -1q25 -8 38 -13t19 -22q20 -66 25 -84q14 -51 39 -200q7 -43 20.5 -122t16.5 -99q7 -40 19.5 -114.5
t17.5 -107.5q7 -38 12 -69q1 -10 -1 -15t-10 -8q-51 -22 -104 0q-11 4 -15 24q-3 17 -8 48.5t-7 43.5q-13 81 -21 130q-2 10 -4.5 12t-11.5 2q-49 1 -109 1h-5.5t-3.5 -0.5t-2.5 -2l-1 -3t-1.5 -5.5q-5 -20 -14 -61.5t-14 -61.5q-3 -14 -7 -28q-2 -8 -5.5 -12t-9 -6
t-13.5 -2q-15 0 -24 9v14z" />
    <glyph glyph-name="atilde" unicode="&#xe3;" horiz-adv-x="449" 
d="M272 802q-76 7 -116 45q-19 18 -44 26q-16 5 -26 -5q-11 -10 -16 -16q-5 -7 -13.5 -19t-11.5 -15q-6 -9 -19.5 -10.5t-20.5 5.5q-5 5 -5 13q2 34 22 54q33 34 70 38q31 5 60 -7q34 -14 54 -33q19 -20 48 -24q20 -3 29 14q12 22 15 30q4 9 14 12q23 6 48 -6q14 -7 9 -22
q-12 -36 -31 -56q-11 -11 -24 -15q-4 -1 -42 -9zM174 536h-2h-2q-3 -16 -3 -17q-47 -227 -58 -279q0 -1 -1 -15h119q-8 46 -53 311zM232 191h-65q-28 0 -53 2q-6 1 -9.5 -0.5t-5 -3.5t-2.5 -9q-3 -12 -10 -44t-11 -49q-7 -30 -14 -54q-4 -13 -19.5 -18t-26.5 3q-6 5 -4 16
q5 43 7 54q39 205 53 275q19 94 62 301q5 26 21 91q3 11 7 14.5t16 5.5h9q37 -12 51 -17q7 -3 14 -20q15 -38 29 -96q9 -38 38 -202q6 -28 34 -197q8 -43 20 -109l20 -110q3 -22 4 -24q2 -17 -11 -23q-16 -6 -32 -9q-29 -3 -56 3q-16 4 -22 10.5t-9 22.5q-6 37 -16 88
t-15 85q-1 1 -4 14z" />
    <glyph glyph-name="adieresis" unicode="&#xe4;" 
d="M146 870q-17 1 -27 12.5t-9 28.5q0 17 12 27.5t29 9.5q16 -1 26.5 -13t9.5 -29q0 -16 -12 -26.5t-29 -9.5zM242 864q-11 0 -20 5t-14 14t-5 19q-1 16 10.5 27.5t27.5 12.5q17 0 29 -11.5t12 -28.5q-1 -16 -12.5 -27t-27.5 -11zM162 588q-21 -90 -42 -196.5t-20 -117.5
h115q1 12 -23.5 156.5t-29.5 157.5zM223 239q-14 1 -15 1q-102 2 -107 2q-11 0 -13 -10q-10 -46 -28 -124q-1 -5 -8 -29q-4 -15 -21 -15q-7 -1 -10 0q-7 0 -10.5 1t-6 4t-2.5 7t1 10q17 107 24 146q31 162 52 264q11 54 33 155t31 146q5 20 14.5 24.5t32.5 0.5
q5 -1 9.5 -2.5t10 -4t9.5 -3.5q17 -5 23 -23q16 -42 30 -98q10 -40 38 -202q5 -29 11 -61.5t12.5 -72t10.5 -60.5q6 -40 19 -114.5t18 -106.5q8 -45 12 -67q2 -15 -11 -22q-7 -4 -14 -5q-37 -10 -77 -1q-24 6 -28 31q-8 45 -37 216z" />
    <glyph glyph-name="aring" unicode="&#xe5;" horiz-adv-x="440" 
d="M197 902q-10 -22 -12 -51q18 22 12 51zM165 543q-11 -38 -27 -111.5t-27 -133t-11 -66.5q17 -2 63.5 -0.5t54.5 4.5q-18 102 -53 307zM223 198h-18q-75 1 -103 2q-8 0 -10 -1.5t-4 -9.5q-4 -20 -13.5 -61.5t-14.5 -61.5q-1 -6 -4 -16t-3 -12q-4 -16 -22 -16q-5 -1 -7 -1
q-15 1 -19 6t-2 19q31 173 42 234q27 140 52 262q7 35 47 213q1 1 8 25q-9 5 -10 5q-9 5 -11 6q-47 28 -38 78q8 44 29.5 75t57.5 25q48 -8 77 -39q33 -33 26.5 -80t-51.5 -72q-1 0 -13 -6q4 -2 7.5 -4.5t6.5 -6t5 -5.5t4 -7t2.5 -7t2.5 -8t3 -7q23 -68 43 -180
q15 -83 41 -237q6 -36 13 -74.5t13.5 -76t12.5 -73.5q12 -70 15 -85q3 -14 -9 -21q-8 -4 -16 -6q-37 -9 -77 0q-24 5 -28 31q-7 41 -17 98.5t-15 82.5z" />
    <glyph glyph-name="egrave" unicode="&#xe8;" horiz-adv-x="347" 
d="M75 1026q13 1 30 -13q9 -8 65 -55q39 -33 43 -36q27 -24 8 -54q-8 -12 -21.5 -15.5t-26.5 2.5q-7 3 -14 9q-44 37 -103 86q-8 7 -12 12q-16 20 -5 41q10 23 36 23zM113 789q2 -49 7 -141.5t7 -134.5h65q3 0 29 0.5t40 0.5q12 -1 28 -9q6 -3 6 -8.5t-6 -7.5
q-18 -8 -30.5 -8t-108.5 1h-20q1 -67 4.5 -205.5t4.5 -210.5q14 1 15 1q83 -2 106 -3q10 -1 25 -7q9 -4 8 -12q0 -8 -9 -11q-23 -7 -36 -7q-27 -1 -58 3q-24 4 -50 -2q-3 -20 -3 -22q-2 -20 -22 -27q-36 -12 -72 0q-21 7 -23 29q0 1 -1 7.5t-1 9.5q-7 156 -8 185
q-6 186 -8 317q-2 68 -2 237q0 10 0.5 22l1 24t0.5 21q1 21 21 27q31 10 63 1q22 -7 23 -33q13 -1 14 -1q114 -3 123 -4q15 0 30 -7q8 -4 8 -10t-8 -10q-14 -7 -27 -7q-5 0 -56 2q-52 1 -72 2q-1 0 -8 -2z" />
    <glyph glyph-name="eacute" unicode="&#xe9;" horiz-adv-x="347" 
d="M163 997q28 0 39 -24q5 -11 2 -23t-11 -20q-3 -3 -7 -6q-21 -14 -60.5 -41.5t-58.5 -40.5q-16 -11 -32 -8q-22 5 -29.5 26.5t7.5 39.5q3 3 10 8q10 7 117 80q14 10 23 9zM112 778h84q26 0 58 -3q12 -1 22 -7q8 -3 9 -11q1 -2 -2.5 -5t-5.5 -4q-17 -6 -28 -7q-7 0 -44 1
q-11 0 -38.5 1t-41.5 2q-1 0 -10 -2q10 -199 14 -270q14 -1 15 -1q5 0 42.5 1.5t57.5 1.5q16 0 35 -4q5 -1 8 -2t6.5 -4t2.5 -8q0 -9 -17 -12.5t-28 -2.5q-6 0 -99 2h-20q-2 -14 -2 -15q1 -20 3.5 -98.5t3.5 -121.5q1 -15 1 -31t0.5 -31.5t0.5 -30t0.5 -32t0.5 -30.5
q0 -1 1 -16h15q88 -2 105 -3q10 -1 26 -7q6 -3 8 -10q2 -8 -9 -12q-18 -6 -25 -6q-33 0 -70 3q-32 2 -50 -4q-2 -18 -2 -19q-1 -21 -21 -27q-37 -12 -75 0q-20 6 -22 28q-2 23 -3 43q-1 30 -4.5 105.5t-5 130t-2.5 105.5q-1 42 -3 398q0 12 1 25q2 17 17 22q35 11 70 0
q14 -5 18 -20z" />
    <glyph glyph-name="ecircumflex" unicode="&#xea;" horiz-adv-x="360" 
d="M141 962q-18 -17 -19 -18l-62 -62q-22 -21 -48 -5q-8 5 -9 9t4 12q4 5 12 13q58 66 77 87q15 16 26 16q27 -1 41 -13q9 -7 17 -18q13 -16 81 -100l2 -3q0 -1 3.5 -5t3.5 -5.5t-1 -6.5q-4 -8 -18 -7q-35 2 -52 26l-50 70zM153 21q-3 -24 -3 -25q-3 -19 -20 -25
q-38 -14 -76 0q-18 6 -21 26q-3 17 -3 19q-7 154 -8 186q-5 185 -8 316q-1 69 -1 237q0 12 1 34.5t1 32.5q0 21 21 27q31 11 64 0q20 -6 22 -32q16 -1 17 -1q107 -3 121 -3.5t29 -7.5q8 -3 8 -9.5t-8 -9.5q-15 -7 -29 -8q-6 0 -49 1q-9 1 -24.5 1.5t-28.5 1t-25 0.5l-8 -2
q9 -166 15 -276h66q2 0 34.5 0.5t34.5 0.5q11 -1 25 -8q7 -3 7.5 -9t-7.5 -9q-16 -7 -28 -7t-108 1h-22q5 -210 10 -415h14q86 -2 106 -3q8 -1 22 -6q13 -4 13 -13q-1 -7 -13 -12q-8 -3 -12 -4q-28 -3 -37 -2q-7 0 -16.5 1l-19 2t-17.5 1q-2 1 -39 -1z" />
    <glyph glyph-name="edieresis" unicode="&#xeb;" horiz-adv-x="348" 
d="M181.5 939q16.5 0 27.5 -11.5t11 -27.5q0 -17 -11.5 -28t-28.5 -11q-16 1 -27.5 12.5t-10.5 27.5q0 16 11.5 27t28 11zM87 869q-17 -1 -30.5 11.5t-13.5 28.5q0 17 11.5 28.5t28.5 11.5q18 1 30.5 -11.5t12.5 -29.5t-11 -28t-28 -11zM140 64h19q81 -1 93 -1q16 -1 34 -8
q9 -4 9 -10.5t-9 -10.5q-18 -7 -34 -7q-13 0 -38 1.5t-32 1.5q-3 0 -41 -1q-3 -22 -4 -23q-2 -20 -20 -26q-37 -13 -75 -1q-20 8 -22 29q0 2 -0.5 4.5t-1 4.5t-0.5 4v4q-7 156 -8 185q-6 173 -8 305q-2 76 -2 223q0 15 1 42t2 36q0 18 18 25q33 11 67 0q19 -6 21 -32h21
q103 -3 123 -4q11 -1 25 -8q6 -4 6 -9t-7 -8q-15 -7 -32 -9q-5 -1 -33 0q-13 1 -42.5 2.5t-45.5 2.5l-11 -1q1 -23 6.5 -122t8.5 -152q62 2 67 2q48 1 67 0q9 0 24 -6q8 -3 8 -10t-8 -10q-19 -6 -29 -6q-9 0 -104 1h-23q1 -68 4.5 -204t5.5 -204z" />
    <glyph glyph-name="igrave" unicode="&#xec;" horiz-adv-x="252" 
d="M141 874q-13 -1 -27 11q-63 58 -96 88q-22 21 -11 46q7 17 24 22.5t33 -4.5q4 -3 8 -7q31 -28 93 -83q23 -21 15 -46q-9 -26 -39 -27zM67 399q-4 230 -4 263q-2 99 -1 114q0 1 5 53q2 16 19 22q32 12 70 2q24 -6 26 -29q7 -71 8 -86q0 -27 5 -324q1 -39 2 -111.5t2 -96.5
q2 -130 3 -193q0 -15 -4.5 -22t-18.5 -11q-39 -14 -79 -1q-15 5 -20.5 12t-5.5 23q-1 34 -2 108t-2 113q0 11 -3 164z" />
    <glyph glyph-name="iacute" unicode="&#xed;" horiz-adv-x="276" 
d="M226 1013q0 -15 -19 -28q-10 -7 -41 -28q-10 -7 -29 -19.5t-34.5 -23.5t-29.5 -20q-20 -14 -41 -3q-19 9 -21 30t14 35q2 2 19 13q9 7 50.5 35t63.5 43q16 11 30 11q16 -1 27 -13t11 -32zM5 400q-4 292 -5 345q0 25 5 65q2 13 7 18.5t19 7.5q44 6 57 3q31 -6 33 -33
q6 -55 6 -56q2 -60 5 -218q1 -79 3.5 -225.5t3.5 -208.5q0 -12 1 -39t1 -42q0 -14 -5 -21t-18 -12q-40 -13 -81 0q-14 4 -19.5 11.5t-5.5 23.5q-4 209 -5 317v64h-2z" />
    <glyph glyph-name="icircumflex" unicode="&#xee;" horiz-adv-x="323" 
d="M140 966q-41 -41 -44 -45q-30 -30 -39 -38q-11 -10 -25.5 -10t-25.5 10q-7 7 -2 14q11 14 16 19q12 14 37.5 35.5t37.5 35.5q2 3 7 11t10 13.5t10 5.5q28 -1 43 -15q7 -7 15 -17q17 -21 79 -99q4 -4 6 -7q13 -19 -11 -20q-36 -1 -55 25q-8 11 -23.5 33t-23.5 33
q-1 1 -12 16zM203 383q2 -159 2 -171q1 -36 2 -104t2 -99q0 -13 -4.5 -20t-17.5 -11q-41 -15 -83 -1q-13 5 -18 11.5t-5 21.5q-1 33 -1.5 70t-1 81.5t-1.5 70.5q0 22 -1.5 99t-2.5 119q0 36 -1 103t-2 84q-2 123 -2 136q0 1 6 54q2 15 18 21q33 13 71 3q24 -6 26 -30
q7 -61 7 -79q1 -1 2 -121q1 -31 2 -96.5t2 -99.5v-42h1z" />
    <glyph glyph-name="idieresis" unicode="&#xef;" horiz-adv-x="237" 
d="M148 887q-16 0 -27.5 11.5t-12.5 26.5q0 17 12 29t28 12q16 -1 27.5 -12.5t11.5 -27.5q0 -5 -1.5 -10t-4 -9.5t-6 -8t-8 -6t-9.5 -4t-10 -1.5zM41 882q-18 0 -29.5 11.5t-10.5 29.5q0 17 11.5 27.5t29.5 9.5q17 0 28 -11t12 -27q0 -17 -12 -28.5t-29 -11.5zM37 385
q-4 230 -4 257q-2 97 -2 111q0 1 6 52q1 16 17 22q38 14 78 0q17 -6 20 -26q6 -49 7 -69q0 -5 2 -128q1 -54 3 -194q1 -34 3 -84.5t2 -84.5q3 -177 4 -201q1 -16 -5.5 -24t-22.5 -12q-34 -9 -71 0q-3 1 -8 3q-21 8 -21 29q0 19 -1 54.5t-1 47.5q-1 45 -3 122t-3 125z" />
    <glyph glyph-name="ntilde" unicode="&#xf1;" horiz-adv-x="471" 
d="M131 892q60 -1 122 -41q19 -12 40 -13q17 -1 28 15q2 2 7.5 10t8.5 13q11 17 35 16q27 -1 40 -10q11 -8 5 -17q-25 -37 -37 -46q-28 -23 -66 -22q-63 1 -127 42q-15 9 -31 16q-27 13 -54 -3q-25 -15 -47 -52q-13 -22 -37 -15q-11 4 -14 9t-2 16q4 31 26 51q39 35 103 31z
M115 414v-20q-1 -265 -1 -272q0 -15 -0.5 -43.5t-1.5 -40.5q0 -13 -12 -18q-28 -10 -56 0q-13 5 -13 19q0 10 -0.5 22t-1 22.5t-0.5 22.5t-0.5 22.5t-0.5 22v22.5q-2 171 -5 504q0 19 1 60q1 14 6 19.5t19 8.5q54 10 82 -34q21 -34 34 -71q13 -40 126 -374q12 -36 22 -54
q1 16 1 17q0 129 3 479v1.5v1.5q0 12 2 18t7.5 8.5t17.5 3.5q18 1 36 -3q9 -1 11.5 -5t2.5 -13q1 -10 0 -41q-4 -147 -5 -179q-4 -166 -7 -263q-1 -32 -7 -169q0 -5 -2 -19q-2 -21 2 -33q5 -15 -9 -21q-11 -6 -25 -9q-31 -6 -65 2q-24 6 -31 29q-11 34 -80 237
q-5 15 -13 39.5t-15 45t-13 39.5q-1 0 -6 16h-3z" />
    <glyph glyph-name="ograve" unicode="&#xf2;" horiz-adv-x="469" 
d="M325 852q-1 -24 -23 -34q-23 -11 -43 6l-21 21q-2 2 -26.5 27.5t-37 38.5t-14.5 25q-3 25 18 39q21 15 44 -1q3 -2 7 -6q13 -14 83 -86q13 -13 13 -30zM260 50h2q6 -5 40.5 63t40.5 87q27 75 32 170q10 201 -59 358q-15 34 -34 44q-17 9 -35.5 5t-33.5 -17
q-21 -19 -37 -63q-66 -178 -35 -402q25 -179 119 -245zM419 427q-7 -188 -91 -351q-16 -31 -31 -43q-27 -22 -74 -17q-52 6 -95.5 39.5t-70.5 82.5q-43 78 -50 206q-12 242 95 395q29 42 60 57q44 22 116 4q26 -6 47 -21.5t35 -34t24.5 -46t16.5 -51t10 -56t5 -53t2 -50.5
q2 -30 1 -61z" />
    <glyph glyph-name="oacute" unicode="&#xf3;" horiz-adv-x="465" 
d="M213 799q-27 0 -37 21q-12 22 2 41q4 5 11 11q46 39 111 95q9 7 13 10q12 7 26.5 5.5t23.5 -12.5q10 -11 10 -25.5t-9 -25.5q-4 -5 -9 -9q-12 -11 -28 -24.5t-28.5 -24t-28.5 -24t-29 -24.5q-17 -15 -28 -14zM251 22q11 6 23 23q95 134 98 334q2 90 -18 177
q-1 3 -3.5 14.5t-3.5 17t-4 17t-5 18.5t-5.5 18t-6.5 18t-7.5 16.5t-8.5 16t-9.5 13t-10.5 10.5q-20 17 -53 16q-10 0 -16 -2.5t-11.5 -8t-10.5 -15t-8 -15t-8.5 -16.5t-5.5 -13q-21 -44 -33 -94q-18 -78 -16 -199q2 -106 22 -184t78 -141q1 -1 23 -21zM0 353q2 220 99 346
q36 48 75 59q28 8 79 -1q57 -10 81 -29q40 -33 58 -127q18 -101 20 -165q4 -174 -84 -380q-15 -34 -29 -47q-25 -24 -72 -21q-57 3 -105.5 39t-76.5 91q-45 85 -45 227v8z" />
    <glyph glyph-name="ocircumflex" unicode="&#xf4;" horiz-adv-x="469" 
d="M223 920l-36 -36l-45 -45q-24 -23 -51 -2q-9 7 -3 16l12 15q55 61 78 87q16 18 29 17q28 -3 42 -16q8 -8 14 -16q21 -26 80 -100q4 -4 6 -7q11 -18 -9 -19q-37 -3 -57 25q-10 12 -26.5 35.5t-21.5 29.5q0 1 -12 16zM252 41q5 2 12 10q114 135 113 358q0 100 -25 197
q0 2 -5.5 22t-7.5 27t-7.5 25t-10.5 27t-12.5 22t-16.5 21t-19 12q-27 13 -52 0q-16 -8 -29.5 -27.5t-24 -49t-15.5 -46t-12 -43.5q-25 -97 -18 -208q13 -195 103 -332q11 -17 22 -16q2 0 5 1zM412 418q-8 -144 -65 -303q-28 -77 -80.5 -99.5t-125.5 18.5q-80 49 -115 150
q-28 81 -24 215q9 281 142 382q24 18 51 17q53 -1 68 -4q22 -5 68 -25q16 -7 27 -31q65 -144 54 -320z" />
    <glyph glyph-name="otilde" unicode="&#xf5;" horiz-adv-x="483" 
d="M304 825q-67 7 -105 35q-15 11 -28 18q-14 8 -32 1q-42 -14 -65 -56q-3 -5 -4 -8q-10 -15 -27 -8q-15 7 -11 25q11 46 53 66q52 25 107 7q14 -5 31 -17q31 -22 63 -24q10 -1 19 2q25 11 42 33q9 12 23 11q27 0 42 -13q10 -9 0 -18q-42 -35 -67 -45q-23 -9 -41 -9zM268 60
q1 0 2 -1q64 79 94.5 203.5t14.5 228.5q-1 8 -5 37t-6 40t-6.5 35.5t-8 39.5t-10 35t-13.5 38q-19 44 -45 54q-31 11 -61 -13q-20 -16 -37 -52q-31 -68 -39.5 -145.5t-4.5 -175.5q4 -114 25 -179q30 -98 100 -145zM430 427q-2 -53 -11 -105q-48 -290 -157 -297
q-54 -3 -103 26q-118 68 -140 243q-16 126 7 248.5t94 206.5q36 43 93.5 51.5t108.5 -20t69 -82.5q44 -129 39 -271z" />
    <glyph glyph-name="odieresis" unicode="&#xf6;" horiz-adv-x="487" 
d="M176 910q16 0 27.5 -11.5t11.5 -27.5q0 -17 -12 -29t-28 -12q-11 0 -20.5 5.5t-15 14.5t-5.5 20q-1 17 12 28.5t30 11.5zM318 870q0 -16 -11.5 -27.5t-26.5 -12.5q-12 0 -21.5 5t-15.5 14.5t-6 20.5t5 20t14 14.5t19 5.5q12 0 21.5 -5.5t15.5 -14.5t6 -20zM268 49
q10 5 22 22q47 63 72.5 147.5t27.5 171.5t-14.5 174t-50.5 157q-20 41 -66 39q-8 0 -10 1q-11 3 -18 -7q-63 -89 -87 -217.5t1.5 -257.5t99.5 -209q1 -1 23 -21zM431 417q-11 -170 -98 -357q-19 -42 -67 -45q-54 -4 -105 25q-62 37 -98.5 101.5t-46.5 132.5t-2 143
q3 34 10.5 76t23.5 96.5t36.5 97.5t52.5 73.5t70 30.5q45 0 68 -3q29 -4 73 -26q16 -8 27 -33q66 -142 56 -312z" />
    <glyph glyph-name="divide" unicode="&#xf7;" horiz-adv-x="567" 
d="M245 442q156 3 179 3h15t17.5 -0.5t14.5 -0.5q14 0 22 -11q21 -26 23 -56q0 -11 -3 -14.5t-13 -4.5q-15 -2 -32 -2q-63 -1 -179 -3t-152 -3q-63 -1 -86 -1q-17 -1 -28 11q-23 27 -23 60q0 7 2 11t6 6t11 2q11 0 32 0.5t25 0.5q23 0 169 3v-1zM289 597q-24 -10 -28 -11
q-1 -1 -5 -2q15 -1 20.5 1t12.5 12zM264 504q-50 -1 -68 45q-15 38 -8 67q5 22 23 32q32 21 75 23q39 2 52 -36q12 -35 7 -65q-3 -19 -15 -34t-29.5 -23.5t-36.5 -8.5zM236 228q14 -1 21 1.5t14 12.5q-13 -5 -35 -14zM264 316q23 0 35.5 -8t19.5 -26q13 -32 8 -65
q-3 -30 -30 -50.5t-57 -17.5q-47 5 -63 48q-14 36 -8 62q5 24 26 36q33 19 69 21z" />
    <glyph glyph-name="ugrave" unicode="&#xf9;" horiz-adv-x="460" 
d="M241 826q0 -26 -20 -36q-21 -11 -42 2q-3 2 -9 8q-11 11 -31 30.5t-36.5 35.5t-31.5 30q-17 16 -13 38q3 22 24 29.5t39 -5.5l10 -10q95 -92 96 -93q14 -14 14 -29zM274 152q-19 -24 -32 -53q-1 -3 -4.5 -11t-5 -12.5t-5 -10.5t-7.5 -11t-8 -9q-31 -25 -86.5 -16.5
t-74.5 43.5q-26 49 -35 112q-6 49 -7 66q-2 31 -3 95q-4 173 -6 277q0 14 0.5 41.5t0.5 41.5q0 21 20 27q44 15 88 1q20 -7 19 -28q0 -4 1 -39q1 -100 3 -325q1 -109 15 -164q1 -4 11 -30t18 -49t6 -25q36 35 73 110q13 27 17 42q7 24 7.5 52.5t-2 67.5t-3.5 53
q0 27 -0.5 58.5t-1 67.5t-0.5 58q-2 111 -2 131q0 5 7 70q2 23 26 29q29 7 58 0q22 -6 27 -29q9 -40 10 -107q1 -37 6 -359q2 -153 3 -208q0 -15 1 -47t1 -48q0 -12 -3 -17t-15 -9q-46 -17 -93 0q-18 6 -18 26q2 101 -4 141q-1 -1 -2 -3z" />
    <glyph glyph-name="uacute" unicode="&#xfa;" horiz-adv-x="460" 
d="M160 804q-27 0 -37 22t4 40q5 6 12 11q77 63 112 92q9 7 20 10q26 7 41 -17q14 -24 -2 -45q-4 -5 -12 -11q-21 -17 -59.5 -49t-49.5 -40q-17 -14 -29 -13zM182 70q15 11 29 32q22 31 51 89q9 16 13 36t4.5 41.5t0 40t-2.5 43t-2 38.5q-2 101 -4 230q-1 56 1 92q0 2 6 54
q2 17 20 22q36 12 71 0q15 -5 19 -23q9 -38 10 -84q2 -119 4 -232q2 -78 7 -430q1 -19 -4 -25.5t-24 -11.5q-39 -9 -76 1q-15 5 -19.5 11t-4.5 21q-2 84 -2 112q0 1 -1 17q-6 -3 -6 -4q-4 -7 -13.5 -27.5t-16.5 -33t-19 -26.5t-26 -19q-43 -15 -100 -1q-31 7 -48 39
q-22 42 -31 97q-6 38 -9 78t-3 87q0 40 -1 86.5t-2.5 100t-2.5 86.5q0 14 1 75q0 15 5 21.5t19 10.5q41 13 81 0q14 -4 18.5 -10.5t4.5 -21.5q1 -10 1 -88.5t1 -119.5q2 -146 7 -225q4 -88 26 -142q1 -2 18 -37z" />
    <glyph glyph-name="ucircumflex" unicode="&#xfb;" horiz-adv-x="469" 
d="M186 933q-12 -12 -13 -12q-56 -56 -67 -68q-21 -21 -51 -3q-11 6 -3 17q6 8 16 20q45 50 73 82q16 17 28 16q26 -1 41 -14q8 -7 17 -18q14 -17 79 -99q4 -4 4 -5q5 -12 4 -14q-2 -9 -16 -8q-35 1 -53 26q-28 39 -47 66q-1 0 -12 14zM193 66q94 107 93 164q-2 88 -6 347
q-1 107 -1 124q0 10 1.5 22.5t3 26.5t2.5 23q2 24 28 31q28 6 54 -1q24 -6 29 -29q9 -39 10 -105q2 -103 4.5 -294.5t4.5 -274.5q1 -68 2 -95q1 -19 -16 -26q-49 -18 -97 0q-16 7 -16 25q0 22 -1 119q0 1 -1 23l-8 -11q-2 -4 -17 -36.5t-28 -49t-31 -22.5q-27 -10 -63.5 -7
t-59.5 20q-34 24 -47 97q-9 53 -15 108.5t-7.5 118t-1.5 107t0.5 118t0.5 109.5q0 18 17 24q45 18 93 1q18 -6 17 -26q-5 -284 14 -491q9 -97 42 -140z" />
    <glyph glyph-name="udieresis" unicode="&#xfc;" horiz-adv-x="460" 
d="M272 942q11 0 20 -5t14 -14t5 -20q0 -17 -11 -28t-28 -11q-11 0 -19.5 5t-14 14t-5.5 20q0 17 11.5 28t27.5 11zM119.5 864q-16.5 0 -27.5 11.5t-11 27.5t11.5 27.5t28.5 11.5q16 -1 27.5 -12.5t10.5 -27.5q0 -16 -11.5 -27t-28 -11zM274 173q-3 1 -11.5 -15t-17 -35
t-9.5 -20q-8 -14 -15.5 -22.5t-18.5 -15.5t-26 -9q-37 -7 -73.5 2.5t-52.5 38.5q-26 47 -34 109q-6 49 -7 62q-2 33 -3 97q-4 165 -6 270q0 14 1 81q1 12 5 17.5t15 9.5q43 15 86 1q12 -4 16.5 -10t4.5 -19q0 -7 0.5 -21.5t0.5 -16.5q2 -187 2 -214q2 -115 4 -153
q0 -1 9 -94q4 -44 19 -80q1 -3 18 -38q12 7 25 25q21 31 40 66q2 3 10 19.5t14 24.5q7 9 7 25q-5 272 -6 361q-1 36 2 145q0 2 4 31q3 17 19 23q36 14 73 0q16 -6 18 -21q8 -52 8 -56q4 -93 6 -193.5t3.5 -233.5t2.5 -193q2 -63 3 -83q1 -19 -18 -25q-47 -17 -95 0
q-17 6 -17 25q0 11 -1 115v19q-2 0 -5 1z" />
    <glyph glyph-name="yacute" unicode="&#xfd;" horiz-adv-x="463" 
d="M378 931q0 24 -22 35q-21 10 -42 -5q-2 -1 -9 -8q-62 -64 -107 -109q-8 -8 -11 -12q-10 -12 -9 -26.5t12 -25.5t26 -11.5t27 9.5l5 5q112 112 116 117q15 14 14 31zM226 18q15 23 25 60q21 79 21 157v130q0 1 -1 16q-41 -102 -46 -116q-16 -40 -98 -31q-38 4 -59 27
q-14 15 -24 49q-8 25 -14 52.5t-10 51t-6.5 54.5t-3.5 51.5t-1 55t0.5 52t1 55t0.5 52.5q1 20 18 26q46 19 91 2q9 -3 13 -7t5.5 -9.5t1.5 -15.5q-1 -49 -1 -102.5t2 -101t9 -100.5t19 -102l6 -19l9 13q40 50 60 127q4 14 9.5 32.5t11 37.5t9.5 33q5 20 14 56.5t13 48.5
q12 50 17.5 64.5t13 19t23.5 2.5q15 -1 18 -15q1 -2 6.5 -26t7.5 -36q4 -22 8 -74q21 -269 -3 -440q-10 -77 -38 -117q-41 -59 -111.5 -57.5t-113.5 57.5q-34 44 -28 108q1 6 2.5 10t4.5 6.5t7 3.5t11 1q12 0 17.5 -4t8.5 -16q9 -39 11 -44q14 -47 54 -73q1 0 9 -5z" />
    <glyph glyph-name="ydieresis" unicode="&#xff;" horiz-adv-x="446" 
d="M228 923q0 16 11.5 27.5t27.5 11.5q17 0 28.5 -12t10.5 -29q0 -16 -12 -27t-28 -11q-16 1 -27 12.5t-11 27.5zM153 920q0 -16 -11.5 -27.5t-27.5 -11.5q-8 0 -15.5 3t-13 8.5t-9 13.5t-3.5 15q0 17 12 29t29 11q16 0 28 -12.5t11 -28.5zM392 283q-3 -74 -18.5 -128
t-58.5 -93q-24 -22 -66 -24q-95 -6 -141 75q-23 41 -15 90q2 7 3.5 10t5 4.5t10.5 2.5q6 1 12 0q9 -1 12.5 -4t5.5 -12q1 -2 5 -19.5t7 -26.5q16 -50 63 -77q10 19 11 20q15 33 25 88q11 57 11 112q0 52 -1 123v13q1 -14 -14 -48t-28 -56q-15 -24 -40 -34.5t-51.5 -7.5
t-52.5 15q-22 10 -35 40q-5 12 -9 25q-26 98 -29 147q-4 52 -4 139q0 12 3 123q0 15 5 22t19 11q39 11 77 1q10 -3 17.5 -11.5t11 -22.5t6 -27.5t2 -31.5t-1 -30t-1.5 -28t-1 -20q-8 -146 22 -258q0 -1 6 -20q40 43 56 92q5 13 9.5 28.5t9 33t7.5 28.5q4 10 15.5 47.5
t16.5 57.5q5 15 11 43t9 40q5 19 13 38q5 12 18 16t25 -2q7 -4 9 -12q19 -66 22 -121q10 -241 7 -350q-1 -12 -1 -21z" />
    <glyph glyph-name="Ydieresis" unicode="&#x178;" horiz-adv-x="446" 
d="M228 923q0 16 11.5 27.5t27.5 11.5q17 0 28.5 -12t10.5 -29q0 -16 -12 -27t-28 -11q-16 1 -27 12.5t-11 27.5zM153 920q0 -16 -11.5 -27.5t-27.5 -11.5q-8 0 -15.5 3t-13 8.5t-9 13.5t-3.5 15q0 17 12 29t29 11q16 0 28 -12.5t11 -28.5zM392 283q-3 -74 -18.5 -128
t-58.5 -93q-24 -22 -66 -24q-95 -6 -141 75q-23 41 -15 90q2 7 3.5 10t5 4.5t10.5 2.5q6 1 12 0q9 -1 12.5 -4t5.5 -12q1 -2 5 -19.5t7 -26.5q16 -50 63 -77q10 19 11 20q15 33 25 88q11 57 11 112q0 52 -1 123v13q1 -14 -14 -48t-28 -56q-15 -24 -40 -34.5t-51.5 -7.5
t-52.5 15q-22 10 -35 40q-5 12 -9 25q-26 98 -29 147q-4 52 -4 139q0 12 3 123q0 15 5 22t19 11q39 11 77 1q10 -3 17.5 -11.5t11 -22.5t6 -27.5t2 -31.5t-1 -30t-1.5 -28t-1 -20q-8 -146 22 -258q0 -1 6 -20q40 43 56 92q5 13 9.5 28.5t9 33t7.5 28.5q4 10 15.5 47.5
t16.5 57.5q5 15 11 43t9 40q5 19 13 38q5 12 18 16t25 -2q7 -4 9 -12q19 -66 22 -121q10 -241 7 -350q-1 -12 -1 -21z" />
    <glyph glyph-name="endash" unicode="&#x2013;" horiz-adv-x="675" 
d="M201 352q-67 -2 -135 -4h-27q-17 -1 -24 4t-10 19q-7 38 17 75q12 16 37 17q114 4 205 -1q14 -1 56.5 -3t65.5 -3q49 -4 124 -11q38 -4 70 -9q27 -5 35 -15.5t2 -32.5q-2 -7 -8 -18t-22 -12q-8 -1 -37 -3t-45 -3q-88 -3 -141 -4q-13 0 -163 2v0.5v1.5z" />
    <glyph glyph-name="emdash" unicode="&#x2014;" horiz-adv-x="800" 
d="M242 348l-162 -4h-33q-11 0 -17.5 0.5t-11.5 3.5t-7.5 7.5t-4.5 11.5q-9 38 21 75q14 16 44 17q137 4 245 -1q18 -1 68.5 -3t78.5 -3q59 -4 149 -11q46 -4 85 -9q32 -5 41.5 -15.5t1.5 -32.5q-2 -7 -9.5 -18t-25.5 -12q-10 -1 -45 -3t-54 -3q-106 -3 -169 -4
q-15 0 -195 2v2z" />
    <glyph glyph-name="quoteleft" unicode="&#x2018;" horiz-adv-x="197" 
d="M87 867q2 -5 6 -15.5t6.5 -16t8 -13t11.5 -12.5q4 -2 3.5 -5.5t-5.5 -5.5q-10 -4 -18 -4q-37 -2 -62.5 19t-31.5 58q-3 26 11 49t37 33q34 14 70 -3q26 -12 19 -42q-6 -24 -29 -33q-2 -1 -26 -9z" />
    <glyph glyph-name="quoteright" unicode="&#x2019;" horiz-adv-x="197" 
d="M59 876q-24 9 -25 9q-24 9 -29 33q-7 30 18 42q37 17 71 3q14 -6 26 -18t18 -29t3 -35q-5 -36 -30.5 -57t-62.5 -20q-9 1 -19 4q-4 2 -4.5 5.5t2.5 6.5q7 4 12 11.5t7.5 13.5t6.5 16z" />
    <glyph glyph-name="quotedblleft" unicode="&#x201c;" horiz-adv-x="379" 
d="M87 877l6 -15t6.5 -16t8 -13.5t11.5 -12.5q4 -2 3.5 -5.5t-5.5 -5.5q-10 -4 -18 -4q-37 -2 -62.5 19.5t-31.5 57.5q-3 27 11 50t37 32q34 14 70 -3q26 -12 19 -42q-6 -24 -29 -33q-2 0 -26 -9zM269 880q2 -6 6 -16t6.5 -16t8 -13.5t11.5 -11.5q4 -3 3.5 -6.5t-5.5 -4.5
q-10 -4 -18 -5q-37 -1 -62.5 20t-31.5 57q-3 27 11 50t37 32q34 15 70 -3q26 -12 19 -42q-6 -24 -29 -33q-2 0 -26 -8z" />
    <glyph glyph-name="quotedblright" unicode="&#x201d;" horiz-adv-x="379" 
d="M241 877q-24 9 -25 9q-24 9 -29 33q-7 30 19 42q36 17 70 3q11 -5 20.5 -13t16 -18.5t9.5 -24t1 -26.5q-5 -37 -30.5 -58t-62.5 -19q-9 0 -19 4q-4 2 -4.5 5.5t2.5 5.5q7 5 12 12.5t7.5 13t6.5 16t6 15.5zM59 879q-24 9 -25 9q-12 5 -19.5 13t-9.5 20q-7 30 18 42
q37 17 71 3q23 -9 37 -32t10 -50q-5 -36 -30.5 -57.5t-62.5 -19.5q-9 0 -19 4q-4 2 -4.5 5.5t2.5 5.5q7 5 12 12.5t7.5 13.5t6.5 16z" />
    <glyph glyph-name="dagger" unicode="&#x2020;" horiz-adv-x="624" 
d="M194 636q-26 2 -27 2q-83 7 -87 8q-33 3 -54 16q-12 7 -19 16q-5 6 -4 13t9 10q14 7 28 7h106h48q0 19 1 20q2 138 2 146q1 12 2 25t3 29t3 25q2 22 22 26q54 10 96 -23q12 -8 14 -26q6 -54 7 -70q1 -9 4 -135q0 -1 1 -20q41 -3 43 -4q90 -12 124 -18q9 -2 37 -15
q7 -3 13 -11q6 -7 4.5 -14.5t-9.5 -10.5q-16 -7 -30 -7q-40 1 -72 5q-42 5 -107 4q-3 -4 -3 -21q0 -50 0.5 -149t1.5 -147v-137q-1 -52 -4 -104q-1 -22 -6.5 -29t-29.5 -10q-46 -5 -89 22q-18 11 -19 32q0 8 -2.5 64t-3.5 86q0 15 -1 369q0 2 -2 26z" />
    <glyph glyph-name="Euro" unicode="&#x20ac;" horiz-adv-x="589" 
d="M217 544q29 -4 30 -4q21 -5 41 -11q13 -4 22 -21t-7 -21q-14 -4 -27 -3q-1 0 -49 9q-1 0 -19 3q-7 -21 -6 -64q0 -10 10 -10q28 -1 36 -2q38 -5 60 -10q15 -4 26 -14q8 -8 5.5 -18t-12.5 -12q-17 -2 -34 4q-32 10 -70 11q-4 0 -9 -1l-4 -3q7 -38 8 -40q7 -30 13.5 -51.5
t16.5 -49.5t24 -51.5t32 -41.5q23 -24 52 -36t53.5 -13.5t59 -5t59.5 -12.5q8 -3 7 -10t-10 -11q-7 -3 -15 -4q-161 -12 -255 67t-140 238q0 1 -5 20q-57 -9 -63 -10q-19 -3 -30 3q-1 0 -17 15q15 7 30.5 12t40.5 10.5t30 6.5q-4 37 -4 40v42q-24 2 -26 3h-15.5h-17.5
q-24 3 -33 22q6 9 24 12q41 7 59 8q10 1 15 6t8 17q6 24 24 75q15 45 52.5 95.5t87.5 91.5t106 59t109 -1q12 -5 34 -21q4 -3 3 -8t-6 -6q-6 -2 -14 -1q-21 1 -48 -10.5t-43 -23t-42 -30.5q-99 -76 -126 -152q-2 -6 -31 -87z" />
    <glyph glyph-name="uni2116" unicode="&#x2116;" horiz-adv-x="830" 
d="M601 337h128q4 0 28 -3q3 -1 7 -3q16 -7 15.5 -16t-15.5 -15q-7 -3 -13 -4q-20 -3 -28 -4q-85 -1 -195 -3q-32 -1 -55 0q-14 1 -31 4q-9 2 -18 7q-10 6 -10 13.5t11 12.5q7 5 13 6q25 5 33 5h130zM284 363v9q4 133 4 149q1 46 2.5 135.5t2.5 132.5q0 36 3 69
q2 25 20.5 35.5t41.5 0.5q16 -8 18 -22q3 -25 3 -33q0 -26 -1 -105t-1 -123q0 -106 3 -349q0 -60 -7 -153q0 -7 -0.5 -16t-0.5 -19.5v-17.5q-1 -11 -4.5 -15.5t-14.5 -8.5q-45 -13 -81 22q-29 29 -57 87q-4 8 -26 67q-25 65 -29 77q-7 19 -61 182q-1 6 -5 8l-1 -14
q1 -202 1 -251q0 -20 3 -137q0 -15 -3.5 -20t-17.5 -9q-23 -6 -47 1q-10 3 -15 9t-5 16q0 14 -1 43.5t-2 44.5q-1 50 -2 142t-2 128q0 8 -1 59t-1 78q1 108 4 173q1 23 5.5 67t5.5 62q1 7 3.5 12t7 9t9.5 6.5t10 2.5q19 1 33 0q27 -4 37 -24q22 -41 28 -55q8 -21 22 -61
t20 -57q8 -20 14 -41t14.5 -52.5t11.5 -41.5q2 -10 8 -31t9 -32q8 -31 34 -122q0 -1 6 -18q1 0 2 1zM686 583q-2 47 -20 83.5t-52 49.5q-8 3 -13 2q-7 -2 -15 -10q-41 -46 -52.5 -109t11.5 -120q12 -28 28 -39q23 -13 49 -3.5t40 32.5q27 44 24 114zM734 577q1 -27 -4 -52
q-11 -58 -48 -90q-24 -20 -58 -26.5t-64 2.5q-62 18 -100 79q-25 40 -29.5 87.5t13.5 90.5q19 43 60 70t87 26q48 -2 81 -31t47.5 -69t14.5 -87z" />
    <glyph glyph-name="trademark" unicode="&#x2122;" horiz-adv-x="564" 
d="M69 833q-17 1 -18 1h-9.5h-9.5h-6h-6t-5.5 0.5t-4.5 2t-4 4.5q-9 20 1 41q1 3 8 6q6 2 14 2q83 3 116 4q6 0 17 -1.5t14 -1.5q12 -1 14 -13q2 -10 1 -19q-2 -13 -15 -14q-9 -1 -44 -7l-6 -1q3 -116 3 -128q0 -10 1 -30.5t1 -31.5q1 -22 -7 -30t-33 -7q-15 1 -21 6.5
t-6 20.5q-4 90 5 158v38zM443 760q-9 -13 -9 -14q-5 -9 -16 -31.5t-17 -34.5q-12 -23 -40 -25.5t-43 19.5q-4 5 -34 60l-9 17q-1 -15 -1 -16q-1 -32 -1 -93q0 -13 -4 -18t-17 -8q-20 -4 -39 2q-13 5 -13 18q0 8 -1.5 56.5t-0.5 74.5q0 6 10 94q2 19 17 21q27 5 38 -8l2 -4
t2 -3.5t2.5 -4t2.5 -3.5q5 -8 6 -10q36 -43 74 -109q1 -1 6 -7q25 48 26 51q6 10 13.5 24t14.5 27t13 23q11 21 37 18l1 -1q21 -3 25 -7.5t8 -25.5q0 -3 1 -7t2 -7.5t2 -7.5t1 -7q13 -63 11 -146q0 -2 -6 -48q0 -3 -1 -4q-6 -10 -26 -9q-17 1 -20 12q0 2 -2 14l-2 17
q-12 40 -12 105l-1 7l1 1q0 -1 -1 -2z" />
    <glyph glyph-name="heart" unicode="&#x2665;" horiz-adv-x="691" 
d="M317 178q8 11 8 12q7 13 25 46t27 51q40 73 59 136q32 105 36 121q15 57 23 114q7 46 4 97q-3 27 -16 56q-6 13 -14.5 16t-22.5 -3q-34 -16 -48 -40q-20 -36 -27 -55q-5 -14 -20 -73q-4 -14 -10 -15q-24 -5 -37 -5q-15 0 -16 15q-3 27 -20 71q-9 25 -28 59q-14 24 -48 40
q-14 7 -22.5 3.5t-15.5 -17.5q-1 -1 -2 -4l-1 -3q-13 -32 -13 -72q0 -80 16 -140q25 -90 53 -180q11 -38 33 -82q3 -6 54 -103q1 -2 23 -45zM320 764q6 14 7 15q38 74 120 82q43 5 67 0q53 -12 81 -54q30 -43 37 -100q13 -108 -23 -233q-26 -90 -43 -128q-52 -119 -126 -218
q-17 -23 -33 -41q-23 -25 -61 -26q-9 -1 -26 -2t-25 -1q-38 -1 -66 28q-11 13 -16 19q-117 157 -163 298q-31 92 -40 155q-15 93 1 175q10 48 43 86q34 38 88 41q25 1 46 -1q86 -8 124 -84q2 -6 4 -9z" />
    <glyph glyph-name="musicalnote" unicode="&#x266a;" horiz-adv-x="405" 
d="M153 310q2 18 2 19q1 12 5 109t6 148q0 7 6 100q1 8 1 9q4 7 8 8q6 1 13 -4q2 -2 4.5 -6.5t3.5 -4.5q14 -20 39 -20q35 1 42 0q24 -1 38 -24q19 -31 30 -86q4 -15 4 -17q1 -9 -6 -14q-2 -1 -4.5 -1t-3.5 0.5t-3 2t-3 2.5q-3 1 -5 7q-9 18 -37 49q-26 30 -69 33
q-2 0 -36 2q-1 -13 -1 -14q-5 -92 -9 -165q0 -7 -0.5 -21.5t-0.5 -22.5q-1 -14 -3 -47.5t-3 -51.5q-1 -13 1 -24q3 -37 -23 -64q-42 -42 -102 -32q-13 3 -24 10.5t-16.5 19.5t-5.5 26q-1 40 31.5 68.5t72.5 21.5q31 -5 48 -16z" />
    <glyph glyph-name="uni59716" unicode="&#xe944;" horiz-adv-x="821" 
d="M413 190q-29 -11 -32 -12q-9 -4 -10.5 -6t-0.5 -11q1 -40 5 -130l1 -7q7 -1 19 -3.5t18 -3.5v173zM167 396l2 2l1 1q14 5 15 5q59 33 126 56q18 6 32 7q34 4 63 -15q14 -9 8 -23q-5 -15 -14 -24q-68 -76 -104 -114q-70 -73 -122 -141q-1 0 -7 -9h5q5 3 11 6
q126 65 190 89t97 27q28 3 52 -21q11 -11 -4 -17q-1 0 -12 -3q-38 -10 -48 -16q3 -14 5 -29h14q88 7 115 9q32 3 43 4q25 4 40 12q-15 24 -16 25q-29 42 -85 75q-79 46 -111 72q-2 1 -14 6q-1 1 -10 4.5t-14 5.5q-13 7 -11 16q1 7 17 9q107 16 142 22q49 7 80 -3h9l1 -1h1
l-2 1l-2 4q-48 58 -70 77q-25 22 -43.5 40t-52.5 54q-1 1 -75 80q0 1 -2.5 3t-2.5 3q-4 5 -2.5 9t7.5 6q10 2 20 1q70 -8 146 -39q1 -1 15 -6q-16 29 -16 31q-7 13 -17 29.5t-21 34t-18 29.5q-15 28 -44 88t-46 91l-3 7q-9 -11 -9 -12q-135 -189 -154 -217q-4 -6 -63 -100
l-1 -1v1q15 2 16 2q6 2 19.5 7t20.5 7q62 20 91 29q31 8 61 -13q14 -11 1 -24q-5 -5 -25 -22q-56 -47 -84 -79q-3 -3 -116 -130q-1 -1 -21 -25q-1 0 -2 -1.5l-1 -1.5l-1 -1v1zM294 395q-14 -4 -14 -5q-114 -60 -168 -89q-24 -13 -40 -26q-12 -8 -35 -3.5t-32 16.5
q-6 7 -2 14q7 13 12 19q61 80 152 181q8 9 86 97l3 6q-10 -2 -11 -2q-8 -2 -29.5 -7t-33.5 -7q-32 -7 -70 13q-13 6 -14.5 13t6.5 20q81 124 105 158q65 95 133 174q27 31 52 50q23 18 51 6q12 -5 14 -15q1 -6 8 -16q13 -21 32.5 -52t37.5 -59t33 -52q10 -17 28.5 -47.5
t24.5 -39.5q16 -27 47 -77t43 -69q0 -1 2.5 -4t3 -4t1.5 -4.5t-2 -5.5q-3 -8 -19 -8q-35 0 -60 22q-36 34 -102 63q-1 0 -31 11l-2 -4q86 -87 96 -96q6 -6 13.5 -13t13.5 -12t14 -11.5t14 -11.5q42 -37 107 -116q9 -11 6 -17q-3 -9 -17 -9q-19 1 -29 3q-25 7 -63 19
q-18 5 -36 3q-13 -2 -108 -15q12 -12 46 -34q14 -9 28 -16q49 -24 97 -62q38 -30 63 -71q11 -18 8 -27t-24 -16q-39 -13 -86 -15q-112 -5 -126 -5q-17 -1 -29 -4q-2 0 -26 -8v-11q7 -69 9 -82q2 -15 13 -59q2 -7 0.5 -10t-8.5 -5q-18 -5 -46 7q-6 2 -12 7q-19 15 -39 6
q-23 -10 -51 0q-14 5 -19 11.5t-5 22.5v60t-1 51v16q-14 -6 -15 -6q-90 -47 -136 -71q-33 -17 -47 -19q-33 -4 -66 17q-14 9 -7 25q5 9 15 24q30 45 88 114q20 24 72 80q6 7 83 90h1z" />
    <glyph glyph-name="uni59717" unicode="&#xe945;" horiz-adv-x="465" 
d="M204 181q9 -2 11.5 -1.5t6.5 4.5q-2 -1 -8 -1.5t-10 -1.5zM234 242q-8 1 -24 3.5t-24 3.5q0 -8 10 -11l3 -1q20 -8 35 5zM189 214q11 -17 26 -14l3.5 0.5t4.5 1t3.5 2t3.5 3t2 4.5q-12 1 -43 3zM217 516q12 -56 12 -80q30 42 -2 88q-5 -3 -5.5 -3t-4.5 -5zM209 618
q0 -10 5.5 -17t13.5 -8.5t17 3.5q7 3 5 9q-6 17 -16 25q-11 8 -18.5 4.5t-6.5 -16.5zM190 515q9 2 10 2q6 1 3 7q0 1 -1 4l-2 3q-9 18 -36 33q-9 5 -15 2t-6 -12q-1 -10 6 -20q15 -19 41 -19zM259 609q9 17 9 35q-1 15 -12.5 26.5t-25.5 11.5q-15 1 -42 -15q-12 -6 -21 -20
q-8 -14 -2 -27q9 -20 14 -26.5t52 -57.5q19 25 21 55q-26 -7 -44 7q-8 6 -9 18t4 18q5 7 11 6q27 -4 36 -17q0 -1 9 -14zM243 285q-2 36 -2 38q0 17 2 47q2 42 14 63q12 22 34 63q12 22 19.5 37.5t18.5 40t16 43.5t10 42.5t2 43t-9.5 38.5t-22.5 35.5t-40 28.5
q-48 22 -100.5 6t-87.5 -59q-45 -54 -43 -114q2 -27 14.5 -56t28 -50t36 -50t30.5 -51q30 -58 28 -124q-1 -19 3 -26q4 -6 11.5 -7t11.5 4q-24 36 -7 116q5 26 7.5 41.5t0.5 37.5t-11 38l-12 2t-25.5 5t-16.5 5q-33 23 -15 44q10 10 24 4q33 -16 45 -37l6 -9q9 5 9.5 7.5
t-5.5 8.5q-21 23 -36 39q-14 14 -25 37q-2 4 -3 12q-2 17 18 36q7 6 31 17q37 16 66 -15q10 -10 10 -22q0 -22 -8 -34q-9 -17 -9 -29q1 -1 -3 -15q-6 -21 -22 -37q10 -23 11 -24q15 -33 -2 -63q-1 -2 -18 -38q-5 -12 -6 -28v-14q-4 -17 -5 -45q-1 -22 12 -36q11 2 15 3z
M209 844q86 4 142 -39.5t53 -130.5q-3 -81 -69 -209q-12 -23 -20 -46t-12 -50.5t-5.5 -44t-3 -52t-2.5 -49.5q-1 -16 -5 -38q-3 -14 -17 -23q-13 -9 -28 -11q-8 -1 -10 -7q-1 -2 -5 -5q-8 -6 -24 -5.5t-24 5.5q-5 4 -5 10q0 9 -11 14q-14 5 -25 17t-16 29t-2 36
q11 76 -5 137t-60 132q-56 91 -47 153q6 49 36.5 90.5t75.5 63.5q42 20 89 23z" />
    <glyph glyph-name="uni59722" unicode="&#xe94a;" horiz-adv-x="304" 
d="M129 711q-18 -28 -19 -29q-31 -42 -60 -81q-12 -15 -31 -13q-6 1 -12 4q-9 4 -4 13q2 5 7 13q18 29 56 89.5t58 91.5q13 21 18 29q7 12 20 18q29 13 60 6q21 -5 23 -25q3 -32 4 -49q4 -159 4 -206q1 -50 -1 -277q0 -16 -0.5 -49t-1 -65t-0.5 -50q0 -43 1 -68
q1 -21 -18 -30q-45 -21 -90 -7q-12 3 -15.5 8.5t-3.5 18.5q0 44 1 161.5t1 167.5q2 117 3 192q1 19 1.5 40t1.5 46.5t1 40.5v8z" />
    <glyph glyph-name="uni59723" unicode="&#xe94b;" horiz-adv-x="465" 
d="M164 454q-50 1 -53 1q-38 1 -59 18q-6 5 -9 9q-12 15 7 20q34 10 74 8h12t12 0.5t12.5 1t12.5 1.5q7 0 9 10q2 5 6.5 23.5t6.5 28.5q10 38 28 110.5t27 105.5q0 1 2 12q-19 1 -20 1q-174 -1 -178 -1q-15 0 -38 4q-15 3 -16 12q0 10 15 12q38 7 61 9q30 3 64 4t76 1.5
t64 1.5q38 1 78 -13q15 -6 19.5 -13t1.5 -23q-5 -25 -22 -96q-8 -32 -23.5 -92.5t-18.5 -72.5q0 -1 -4 -18q12 -5 34 -2q31 4 58 -24q4 -5 7 -12q7 -16 -11 -17q-86 -5 -88 -5q-12 -1 -14.5 -3.5t-5.5 -13.5q-21 -84 -61 -243q-30 -123 -34 -139q-5 -20 -25 -27
q-42 -13 -84 0q-6 2 -11 6q-13 7 -10 22q2 8 15 58q5 20 36.5 145.5t43.5 172.5q0 1 3 17z" />
    <glyph glyph-name="uni59727" unicode="&#xe94f;" horiz-adv-x="1467" 
d="M145 633h-30q-58 1 -68 1q-25 1 -39 11q-13 9 0 18q8 6 18 8q14 3 29 3q9 0 71 1h19q1 22 1 23q-2 20 16.5 26t37.5 9q23 3 49 -5q10 -4 15 -8t7.5 -10t2.5 -17v-17q16 -1 17 -1q6 0 39 -0.5t50 -0.5q8 0 28 -3q4 -1 10 -4q13 -6 11 -14q-2 -9 -11 -12q-18 -7 -32 -7
q-10 -1 -90 -1h-20q-1 -12 -1 -13l1 -54l1 -55q1 -327 2 -437q1 -22 -19 -29q-45 -17 -90 -1q-19 8 -19 30q0 110 -2 403l-1 -62v50.5t-0.5 50.5t-1 50.5t-0.5 50.5zM1060 391q11 -30 11 -33q4 -12 21 -23q7 -5 13 -1q4 2 12.5 7.5t12.5 8.5q10 6 5 17q-20 44 -24 54
q-3 5 -10 12q-12 11 -23 0q-14 -13 -18 -42zM1116 163q18 24 27 72t1 70q-9 -4 -19.5 -4.5t-24.5 1t-21 1.5q1 -4 4.5 -27t5.5 -31.5l6 -25.5t9 -30t12 -26zM514 428q-22 -35 -23 -81q-1 -61 0 -139q0 -35 8 -61q5 6 5 7q21 34 39 114v4v5q1 56 2 61q2 20 -3 48
q-3 16 -28 42zM1305 422q-15 -36 -9 -64q3 -15 22 -29q28 -23 32 -25q43 -38 60 -112q8 -34 4 -75q-2 -26 -12.5 -44.5t-29 -29t-44.5 -12.5q-41 -3 -76 11q-51 22 -53 77q0 10 1 21q2 15 18 19q9 2 18.5 -1t16 -9.5t8.5 -14.5q2 -12 12 -36q1 -1 13 -18q17 18 19 43
q7 62 -20 122q-13 28 -37 48q-4 4 -11 9t-11.5 8.5t-9.5 8.5t-9.5 10t-7.5 11q-11 -2 -10 -12q1 -2 2 -8.5t1 -10.5q9 -85 -28 -189l-2.5 -5l-2.5 -5q-7 -18 -28 -20q-44 -5 -77 14q-4 3 -45 33q-1 1 -12 10q-9 -15 -9 -16q-20 -38 -62 -41q-81 -7 -141 42q-1 1 -19 15
q-7 -31 -7 -33q-3 -11 -10 -36q-6 -23 -32 -26q-31 -5 -63 5q-59 18 -82 71q-1 1 -9 16q-19 -50 -20 -53q-9 -27 -33 -30q-95 -15 -148 46q-22 26 -29 75q-8 52 4 120q5 25 10 43q19 63 70 94q10 5 36 13q2 1 28 5q46 7 79 -35q2 -2 4 -6q4 -10 16 -8q11 1 30 -2
q23 -4 29 -29q12 -53 42 -174q1 -3 16 -60l7 11q13 40 19 59q3 9 2 20q-6 62 8 130q4 20 23 61q5 11 18 18q33 18 65 12q8 -2 12 -2q46 -4 72 -53q4 -7 4 -18q2 -17 -15 -19q-24 -3 -32 20q-8 21 -29 37q2 -20 2 -21q18 -118 22 -139t16 -60q0 -1 13 -28q12 10 12 11
q8 10 19 25q20 28 16 58q-6 39 6 80q1 6 3 10q14 45 49 45q14 17 16 18q4 5 5 9q11 31 48 32q58 2 82 -46l13 -26q18 8 23 27q6 22 24 41q15 15 34 17q34 5 67 -6.5t53 -42.5q7 -10 10 -22q4 -16 -12 -18q-27 -4 -38 12q-14 18 -29 27z" />
    <glyph glyph-name="uni59728" unicode="&#xe950;" horiz-adv-x="867" 
d="M226 927q-9 1 -10 1q-6 1 -12 7q-4 4 -2 9q3 11 15 13q14 2 28 -4q9 -4 7 -13q-2 -6 -9 -10t-17 -3zM571 802q-2 -3 -7 -3q-7 0 -14 1q-4 0 -6 -2q-8 -6 -15 1q-2 1 -2 4v10q2 47 2 58q2 33 3 49q0 3 3 22q0 5 4 6q5 2 9 -1q1 -2 1 -5q2 -13 1 -18l-1 -37v-4v-3.5
t-0.5 -4t-0.5 -3.5q-1 -30 -1 -37q0 -4 -0.5 -12t-0.5 -11q0 -5 0.5 -6t5.5 -1h11q5 0 8 -3zM602 923q-2 -41 -2 -44q0 -6 -2 -45q-1 -20 -1 -21q0 -9 0.5 -9.5t8.5 -0.5h9q3 -1 5 -2t2 -3q0 -1 -2 -1q-3 -1 -5 -1q-8 0 -15 1q-2 0 -4 -1q-3 -3 -8.5 -2.5t-7.5 2.5
q-2 1 -2 4v7q1 26 1 28q1 8 1.5 23.5t1.5 21.5q1 22 1 35q1 15 3 25q2 6 7 6q7 -1 8 -7q0 -1 1 -16zM463 880q-2 -3 -7 -3h-12h-1h-1h-1h-2v-2q-1 -2 0 -5q0 -11 2 -60q12 -1 14 -1t5 -1q3 0 2.5 -2t-3.5 -3h-6h-5h-4q-3 0 -4 -3q-1 -6 -8 -6t-9 6v5q-1 12 -2 37
q-1 50 -1 58q-1 10 0 32q0 6 5 8q7 2 10 -4q1 -2 4 -2h12q4 0 7 -1q2 -1 2 -2.5t-1 -1.5q-5 -2 -8 -1h-5.5h-5.5q-4 1 -4 -3q1 -18 2 -39q0 -4 4 -4q3 0 7.5 0.5t6.5 0.5q4 0 7 -3zM329 805q12 0 13 1q4 0 9 -1q1 0 4 -2q3 -1 2 -3q-1 -1 -3 -2h-2q-22 -1 -29 -1h-4
q-9 1 -9 10q1 38 1 43q0 10 1 92v3q0 4 4 5q18 2 23 2q2 -1 5 -1h4q3 0 4 -3q-1 -2 -7 -2h-5h-6q-3 0 -3.5 -1t-0.5 -4v-20v-23t-1 -20v-17v-16v-16.5v-16.5v-7zM700 806q1 6 1 7q-1 18 -1.5 53t-1.5 49v12v14q0 7 -7 7h-4.5h-3.5q-2 0 -6 1q-1 0 -1 1.5t1 2t3 0.5
q13 2 32 -1q4 -1 4 -5l1 -3v-64q1 -13 1.5 -37t0.5 -32q1 -12 -11 -12h-5.5h-3.5q-4 0 -11.5 0.5t-8.5 0.5h-3q-3 1 -3 2q0 2 1 3q5 2 8 2h15zM647 807l3 9q4 19 3 44l-1 2q-1 -1 -4 -8q0 -1 -0.5 -2l-0.5 -1q-3 -9 -12 -9q-12 0 -15 12q-5 19 -5 34v17.5v17.5t5 7q3 1 6 1
q7 -1 7 -8v-14v-13q0 -18 4 -35q0 -2 1 -4l1 -1q3 3 3 4q4 8 6 14q2 11 10 45q1 3 2 4q1 3 4 3q3 -1 3 -4q3 -18 3 -20q1 -13 1 -43v-29q-1 -11 -6 -20.5t-15.5 -10t-15.5 6.5q-7 9 -6 20q0 2 2 4q4 2 6 -3q0 -1 1 -4.5t1 -5.5q3 -7 9 -10zM258 682q1 -64 1 -68
q0 -12 2 -110v-4q1 -9 -8 -13q-10 -5 -23 -4q-9 1 -15 4q-9 4 -9 12v9.5v9.5q0 12 -0.5 39.5t-1.5 42.5q0 16 -0.5 34t-1 39.5t-0.5 33.5q-2 88 -2 104q-1 47 -1 67q0 3 3 22q0 5 5 7q18 9 36 1q6 -2 7 -8q2 -14 3 -18q1 -11 1 -24q0 -14 2 -75v-28.5t1 -36.5q0 -2 1 -36z
M62 382h-2.5h-2.5h-30q-8 0 -13.5 1t-9.5 4q-7 4 0 8q4 3 10 4q4 1 10 1h32h1.5h1.5q3 0 3 3v3.5v4.5q0 7 6 10q6 2 10 3q15 3 28 -1q2 0 5 -2q6 -3 6 -10q0 -1 1 -3v-5q0 -2 2 -3h5h39q3 0 11 -1q2 0 5 -2q4 -2 4 -5.5t-4 -5.5q-6 -3 -15 -3h-13h-15t-13 -1h-6v-5
q1 -102 1 -139q0 -13 0.5 -40t0.5 -41q0 -29 1 -133q0 -11 -10 -14q-17 -5 -34 0q-2 1 -5 2q-5 3 -5 9q0 10 -0.5 28.5t-0.5 25.5q0 24 -0.5 69t-0.5 65q-1 26 -1 91q-1 31 -1 77zM795 331v24q-1 26 -23 41q-5 3 -8 3q-4 0 -8 -4q-11 -11 -11 -33q0 -29 7 -56q8 -37 10 -44
q2 -9 7.5 -26.5t5.5 -20.5q15 -52 17 -60q15 -57 9 -95q-4 -29 -24 -42q-11 -8 -28 -9q-39 -3 -58 21q-3 5 -5 10t-3.5 9.5t-1.5 11t-0.5 10.5t0.5 12t1 10.5t1.5 11t1.5 10.5q0 3 4.5 5t10.5 0t7 -6q7 -20 8 -25q7 -29 20 -42q4 -3 6 -2q1 1 1 3q7 25 3 61q-2 21 -7 40
q-2 9 -17 60q-2 9 -7 25.5t-8.5 27t-6.5 25t-4 27.5q-4 43 17 71q12 16 30.5 23t35.5 2t28 -20.5t11 -33.5q-1 -20 -4 -44v-2v-1q-2 -11 -15 -9q-3 0 -3 4v27zM321 203q-2 58 7 115q9 59 36 82q15 13 35 16t38 -5q44 -19 47 -92v-14l-2 -5q-2 -5 -7 -5q-9 -1 -10 6
q-11 49 -22 72q-13 28 -30 21q-7 -3 -13 -14q-18 -37 -22 -107q-8 -131 25 -213q4 -10 10 -11q5 0 10 6q21 22 35 49q3 7 9 17q2 3 6 4t7 -1q2 -1 2 -4t-2 -7q-15 -53 -27 -73q-15 -24 -38 -29q-32 -7 -56 24q-15 20 -24 60q-12 53 -14 108zM495 845l-8 48q-2 -2 -2 -3
q-1 -6 -3.5 -21.5t-3.5 -23.5h17zM477 839q-5 -22 -5 -23q-1 -3 -1 -4q-1 -3 -5 -3q-3 1 -2 4q1 10 2 18q5 27 7 43q3 14 7 39q1 7 4 19q1 6 6 4q7 -2 9 -8q4 -16 7 -35q1 -8 3.5 -22t3.5 -20q1 -7 3 -20t3 -19q0 -1 0.5 -3t0.5 -4v-3q1 -6 -4 -7h-6q-7 0 -8 7q-1 5 -2.5 15
t-2.5 12q0 1 -0.5 3t-0.5 3q0 4 -3 4h-16zM376 868q12 7 18 22q3 10 1 17q-3 9 -17 19q-1 1 -3 1q-5 2 -4 -3q1 -12 4 -49q0 -1 1 -7zM381 857q18 -37 21 -43l3 -11q-8 -7 -14 1q-3 3 -4 6l-2 6t-2.5 6.5t-2.5 5.5q-1 3 -3 5v-3v-7.5t1 -8.5q0 -1 -1 -10q0 -3 -3 -4h-4
q-8 -1 -9 8q-2 10 -2 17q0 9 -2 58q-1 20 -1 22q0 5 0.5 15.5t0.5 11.5q0 4 3 6q5 2 8 -1q2 -3 7 -3q12 -1 19 -6q9 -6 14 -11q10 -10 5 -24q-8 -25 -30 -35zM547 234v-36q3 -102 38 -146q7 -9 14 -9q12 -1 19 18q51 128 21 256q-11 43 -17 54q-11 18 -28 15q-16 -3 -26 -27
q-21 -48 -21 -125zM670 217q-3 -91 -40 -172q-6 -13 -11 -18q-13 -10 -29 -9.5t-31 9.5q-58 35 -67 136q-9 89 19 164q18 48 47 67q26 16 52.5 7t36.5 -37q25 -67 23 -147zM248 124q-15 103 -23 152l-1 2l-1 -1l-26 -150v-3l3 -1q12 0 48 1zM297 -24q-12 1 -20 4q-7 3 -8 10
q-1 6 -6 40l-3.5 21t-3.5 23q-3 19 -4 26q-1 5 -2 6t-7 1h-33q-3 0 -6.5 0.5t-5.5 0.5q-4 0 -5 -4q0 -3 -1.5 -11t-2.5 -12q-4 -21 -7 -35q-1 -8 -4 -18q-2 -6 -6 -8q-7 -2 -13 1q-3 2 -3 6q1 12 2 13q6 43 9 65q4 26 11 68q8 45 12 67q7 46 14 84q2 11 12 63q2 8 10 8.5
t13 -2.5q2 -1 6 -2q9 -2 12 -11q8 -24 12 -42l7 -35t6 -34q2 -14 6 -45q2 -7 4 -23t4 -24q0 -6 2 -17.5t3 -17.5q1 -7 3.5 -23t3.5 -24q1 -7 3.5 -21.5t3.5 -22.5q1 -9 3.5 -26t3.5 -20q0 -1 1 -5.5t1 -7.5q1 -7 -5 -11q-7 -4 -20 -5h-2zM502 487q1 1 3 4q1 2 6 11.5t8 14.5
q19 36 25 51q6 18 13 40q10 35 15 55q9 36 6 70q-1 12 -7 25q-5 9 -14 5q-15 -6 -21 -17q-8 -13 -12 -22q-7 -21 -9 -34q-1 -5 -4 -6q-10 -3 -16 -2q-6 0 -6.5 5.5t-5.5 21.5q-5 17 -14 32q-8 14 -24 20q-8 4 -13 -4q-1 -1 -1 -2q-5 -16 -5 -18q-4 -18 0 -50q2 -16 8 -39
q5 -17 17 -54q9 -29 19 -50q7 -11 29 -53zM501 736l3 5q8 20 29 31q13 7 26 7h6.5t6.5 1q22 0 41 -16q1 -1 4 -5q16 -21 18 -46q2 -26 2 -35q-2 -36 -14 -74q-7 -25 -10 -34q-8 -22 -25 -52q-11 -19 -17 -29q-7 -10 -22 -31q-7 -10 -14 -15q-7 -6 -16 -7q-15 -1 -26 -2
q-16 0 -28 12q-5 5 -21 27q-20 28 -43 72q-10 21 -18 50q-7 22 -10 36q-10 41 -5 81q3 23 15 41q11 18 32 23q20 5 42 -1q30 -8 42 -35z" />
    <glyph glyph-name="uni59735" unicode="&#xe957;" horiz-adv-x="803" 
d="M359 79q-2 -1 -3 -1v1l2 1zM473 616q1 -17 -12 -29.5t-30 -12.5q-16 0 -28.5 12t-12.5 28q0 18 12 29.5t30 11.5t29.5 -11t11.5 -28zM223 615q0 17 12 28.5t29.5 11.5t30.5 -15t12 -34q-1 -16 -12 -27t-27 -10q-22 1 -35 15.5t-10 30.5zM543 432q-10 -16 -24.5 -65
t-22.5 -70q-15 -44 -52 -85q-42 -46 -106 -29q-65 16 -100 77q-31 54 -41 118q-1 7 -1 8q0 16 15 13q13 -3 19.5 -8t8.5 -18q15 -75 54 -127q15 -21 30 -29q13 -8 27 -5q22 5 38 21q39 37 56 76q11 26 27 75q6 18 19 60q2 9 11 9q31 -2 42 -21zM527 852q-16 -6 -30 5
q-37 31 -86 35q-60 6 -114 -24q-66 -36 -114 -95q-88 -108 -120 -227q-12 -42 -13 -87q-3 -79 7 -124q18 -87 62 -150q47 -68 122 -105q74 -35 165 -9q80 24 151 94q93 94 125 221q25 97 5 202q-13 73 -38 136q-35 92 -99 149q-51 46 -119 54q-45 5 -59 7q-13 2 -19 10
q7 9 25 10q44 3 97 -12q110 -32 177 -137q43 -67 70 -167q20 -71 25 -126q10 -124 -34 -222q-62 -136 -171 -206q-122 -79 -247 -48q-201 50 -269 247q-31 88 -19 198q21 187 167 338q42 43 100 70q89 40 178 8q43 -16 61 -32z" />
  </font>
</defs>
</svg>
