<?xml version="1.0" standalone="no"?>
<!DOCTYPE svg PUBLIC "-//W3C//DTD SVG 1.1//EN" "http://www.w3.org/Graphics/SVG/1.1/DTD/svg11.dtd" >
<svg xmlns="http://www.w3.org/2000/svg" xmlns:xlink="http://www.w3.org/1999/xlink" version="1.1">
<metadata>
Created by FontForge 20170731 at Sun Sep 21 01:33:32 2014
 By Aleksey,,,
Copyright (c) 2014 by Maximiliano R. Sproviero. All rights reserved.
</metadata>
<defs>
<font id="SelfieBlack" horiz-adv-x="307" >
  <font-face 
    font-family="Selfie Black"
    font-weight="400"
    font-stretch="normal"
    units-per-em="1000"
    panose-1="0 0 0 0 0 0 0 0 0 0"
    ascent="750"
    descent="-250"
    x-height="382.5"
    cap-height="681"
    bbox="-1443 -512 1660 905.784"
    underline-thickness="50"
    underline-position="-200"
    unicode-range="U+0020-FB02"
  />
<missing-glyph horiz-adv-x="500" 
 />
    <glyph glyph-name="fi" unicode="fi" horiz-adv-x="306" 
d="M213 -12q-83 0 -83 75q0 21 15 56l81 183q11 25 -14 25q-30 0 -67 5l-181 -393q-93 -206 -239 -206q-65 0 -98 31.5t-33 77.5q0 39 30 74t78 36q21 0 29 -13t-1 -26t-28 -13q-25 -2 -39.5 -20t-14.5 -38q0 -24 18.5 -40.5t58.5 -16.5q52 0 102 43t84 119l182 397
q-22 7 -30 13q-16 7 -16.5 21.5t12.5 22.5t30 0q10 -7 26 -11l45 99q43 92 101.5 146.5t131.5 54.5q67 0 98 -31.5t31 -80.5q0 -43 -43 -89t-105 -46q-19 0 -35 4q-30 7 -30 31q0 20 21 24q7 1 16 -1q11 -4 29 -4q41 0 67 28t26 53q0 60 -74 60q-49 0 -97 -41t-81 -112
l-48 -104q28 -2 43 -2q38 0 60 12q20 12 34.5 -3.5t4.5 -32.5l-117 -255q-11 -17 -8 -38.5t28 -21.5q43 0 82 79q12 22 34.5 13.5t13.5 -32.5q-17 -40 -52 -76t-78 -36z" />
    <glyph glyph-name="fl" unicode="fl" 
d="M376 491l-181 -392q-6 -14 -8.5 -26t3.5 -22.5t24 -10.5q16 0 29.5 8t25.5 25t15.5 24t11.5 22q12 22 34.5 13.5t13.5 -32.5q-17 -40 -52 -76t-78 -36q-83 0 -83 75q0 26 15 58l173 372q30 66 70 114q2 2 3 5t-1.5 6t-10.5 2q-48 -5 -96 -49.5t-81 -114.5l-26 -56
q-8 -18 11 -18h24q23 0 24 -20q2 -21 -19 -29q-6 -3 -14 -3h-40q-20 0 -28 -18q-21 -47 -82 -178.5t-89 -194.5q-93 -206 -239 -206q-65 0 -98 31.5t-33 77.5q0 39 30 74t78 36q21 0 29 -13t-1 -26t-28 -13q-25 -2 -39.5 -20t-14.5 -38q0 -24 18.5 -40.5t58.5 -16.5
q52 0 102 43t84 119l167 365q8 18 -12 18h-2q-22 1 -22 21q-1 20 20 29q7 2 14 2h14q21 0 29 18l28 60q45 96 106.5 154t135.5 58q25 0 42 -4t27 4q50 33 104 33q65 0 98 -31.5t33 -77.5q0 -40 -30 -75t-78 -35q-17 0 -23.5 13t0 26t23.5 13q25 0 39.5 19t14.5 39
q0 24 -18.5 40.5t-58.5 16.5q-52 0 -101.5 -43t-84.5 -119z" />
    <glyph glyph-name="f_f" unicode="ff" horiz-adv-x="305" 
d="M136 -22q-85 -208 -282 -235q-68 -73 -156 -79q-62 0 -89.5 20t-27.5 50q0 27 26.5 46.5t87.5 19.5q15 0 48 -3.5t52 -3.5q21 0 31 1q33 41 53 85l108 239q13 28 44 94t46 100q8 18 -11 18h-1q-24 0 -25 20q-1 21 20 29q6 3 14 3h14q21 0 28 18l28 59q45 96 106.5 154
t135.5 58q44 0 75 -18q35 18 79 18q65 0 98 -31.5t33 -77.5q0 -39 -30 -74t-78 -36q-18 0 -25 13t0.5 26t24.5 13q25 2 39.5 20t14.5 38q0 24 -18.5 40.5t-58.5 16.5q-49 0 -100.5 -45t-85.5 -118l-26 -56q-7 -18 12 -18h26q23 0 24 -20q1 -21 -19 -29q-7 -3 -14 -3h-42
q-20 0 -28 -18q-24 -51 -75 -164t-77 -170h1zM-302 -283q33 1 68 23q-11 0 -37 3.5t-39 3.5q-55 0 -55 -13q0 -20 63 -17zM-67 -129q-17 -39 -31 -61q123 41 184 192l144 310q7 18 -12 18h-57q-20 0 -28 -18q-43 -96 -96 -211q-18 -39 -52 -115t-52 -115zM200 455l-26 -55
q-7 -18 12 -18h55q21 0 29 18l28 59q44 94 92 144q6 6 8 8.5t-0.5 5t-11.5 2.5q-48 0 -100 -46t-86 -118z" />
    <glyph glyph-name="T_h" unicode="Th" horiz-adv-x="895" 
d="M451 684q62 0 123 -12t139.5 -36t109.5 -32q96 123 199 123q55 0 84.5 -25t29.5 -62q0 -43 -45.5 -77t-118.5 -34q-55 -1 -132 14q-30 -44 -53 -93l-41 -83q25 21 50 21q35 0 55 -21t20 -56q0 -15 -15 -57l-73 -156q-9 -19 -9 -35q0 -23 29 -23q43 0 82 79
q12 22 34.5 13.5t13.5 -32.5q-17 -40 -52 -76t-78 -36q-83 0 -83 75q0 26 15 58l73 157q9 22 9 33q0 24 -34 24q-25 0 -45 -21t-32 -46v1l-111 -244q-9 -20 -26 -24t-24 8.5t1 35.5l124 271l62 134q24 54 56 105q-52 12 -109 32q-15 4 -24 -8q-53 -68 -111 -200l-67 -145
q-25 -55 -41.5 -87.5t-42 -74.5t-50.5 -66.5t-58 -48t-74 -34t-90 -11.5q-53 0 -94.5 21t-55.5 55q-9 23 -1 37t25.5 11t25.5 -25q7 -19 34.5 -32t64.5 -13q50 0 92 15.5t71 38t57 63.5t45.5 75.5t41.5 90.5l67 149q57 128 101 186q14 18 -7 24q-64 20 -132 20
q-99 0 -179 -31t-127.5 -80.5t-73 -106.5t-25.5 -113q0 -69 36 -126t100 -81q21 -8 24.5 -24.5t-10 -26.5t-34.5 -2q-79 30 -124.5 103t-45.5 156q0 53 17 106.5t54 104.5t89 90t128 63t166 24zM1022 675q-69 0 -144 -83q47 -9 94 -9q48 0 79 17.5t31 39.5q0 14 -15.5 24.5
t-44.5 10.5z" />
    <glyph glyph-name="A_f" unicode="Af" horiz-adv-x="1239" 
d="M1286 330h-40q-20 0 -28 -18q-21 -48 -90 -195.5t-97 -210.5q-93 -206 -239 -206q-65 0 -98 31.5t-33 77.5q0 39 30 74t78 36q21 0 29 -13t-1 -26t-28 -13q-25 -2 -39.5 -20t-14.5 -38q0 -24 18.5 -40.5t58.5 -16.5q52 0 102 43t84 119l183 398q8 18 -12 18h-2
q-22 1 -22 21q-1 20 20 29q7 2 14 2h14q21 0 29 18l35 75q34 73 77 123q10 15 7.5 20.5t-14.5 10.5q-17 7 -35 7q-89 0 -179 -183l-48 -102q-39 -83 -47 -101l-26 -56l-13 -27l-73 -159q-10 -28 -10 -35q0 -10 2 -12q23 -20 10 -44q-10 -19 -28 -9q-3 1 -5 3q-29 19 -29 62
q0 23 15 59l62 135l18 38q7 18 -12 18h-142q-14 0 -23 -4.5t-11.5 -7.5t-8.5 -13q-79 -128 -184.5 -209t-230.5 -81q-120 0 -205 77.5t-85 198.5q0 111 78 193.5t200 82.5q103 0 159 -52t56 -130q0 -68 -52 -113q-15 -13 -30.5 -8.5t-17 19.5t14.5 33q31 28 31 69
q0 56 -42 92t-121 36q-97 0 -159.5 -66t-62.5 -156q0 -95 71.5 -158.5t164.5 -63.5q78 0 157 49t136.5 115.5t104.5 147.5q47 80 101 148.5t122.5 131t152 98.5t171.5 36q74 0 106 -27q12 -9 23 -3q46 29 96 29q65 0 98 -31.5t33 -77.5q0 -39 -30 -74t-78 -36
q-18 0 -24.5 13t1 26t23.5 13q25 2 39.5 20t14.5 38q0 24 -18.5 40.5t-58.5 16.5q-49 0 -100 -45t-86 -119l-33 -71q-8 -18 11 -18h24q23 0 24 -20q2 -21 -19 -29q-6 -3 -14 -3zM1037 457q52 105 96 158q-206 -64 -355 -321q-4 -5 -1.5 -12.5t14.5 -7.5h140q21 0 29 18
l24 52z" />
    <glyph glyph-name="A_g" unicode="Ag" horiz-adv-x="1374" 
d="M1359 674q29 -13 23 -37q-6 -20 -27 -19q-9 0 -18 6q-17 10 -45 12q-53 0 -99.5 -55.5t-79.5 -127.5l-168 -360q-20 -46 -20 -90q0 -56 43 -56q5 0 17 2q21 4 26 -17q5 -23 -16 -34q-5 -2 -10 -3q-12 -2 -20 -2q-2 0 -5.5 0.5t-4.5 0.5q-22 -4 -34.5 -21t-12.5 -36
q0 -55 65 -55q49 0 101.5 51.5t87.5 131.5l17 38q-13 -15 -33 -15q-41 0 -64.5 19.5t-23.5 56.5q0 19 14 56l75 158q49 109 129 109q47 0 64 -31q6 14 21 19.5t24.5 -3t3.5 -28.5l-40 -88l-143 -313q-99 -213 -233 -213q-61 0 -90 30.5t-29 76.5t31 73q7 6 7.5 9t-5.5 15
q-16 25 -16 69q0 55 26 110l44 92q7 18 -12 18h-142q-14 0 -23 -4.5t-11.5 -7.5t-8.5 -13q-79 -128 -184.5 -209t-230.5 -81q-120 0 -205 77.5t-85 198.5q0 111 78 193.5t200 82.5q103 0 159 -52t56 -130q0 -68 -52 -113q-15 -13 -30.5 -8.5t-17 19.5t14.5 33q31 28 31 69
q0 56 -42 92t-121 36q-97 0 -159.5 -66t-62.5 -156q0 -95 71.5 -158.5t164.5 -63.5q78 0 157 49t136.5 115.5t104.5 147.5q38 64 79 120t96 111.5t112.5 94.5t128.5 63.5t144 24.5q39 0 72 -14zM1057 457q52 105 96 158q-206 -64 -355 -321q-4 -5 -1.5 -12.5t14.5 -7.5h140
q21 0 29 18zM1146 40q6 0 12 1.5t10.5 3t10 5.5t8.5 6.5t8 8.5t7 9t6.5 10.5t6 9.5t6 10.5t5.5 9.5v-1l74 163q8 17 8 28q0 31 -32 31q-46 0 -83 -84l-72 -154q-9 -22 -9 -33q0 -24 34 -24zM1281 -12q-16 0 -22 13t1 26t21 13q43 0 82 79q12 22 34.5 13.5t13.5 -32.5
q-17 -40 -52 -76t-78 -36z" />
    <glyph glyph-name="e_r" unicode="er" horiz-adv-x="521" 
d="M94 -12q-49 0 -79 25t-30 72q0 32 22 79l54 114q51 109 125 109q37 0 57 -18t20 -50q0 -22 -8 -43q-45 -119 -141 -119q-9 0 -29 4q-20 6 -27 -12q-16 -41 -16 -59q0 -48 52 -50q42 0 86.5 36t79.5 91t61.5 114.5t41.5 113.5q-25 13 -38 20.5t-31 22t-26 32t-8 39.5
q0 35 22 56t53 21q44 0 68.5 -34.5t24.5 -80.5q0 -11 -6 -49q44 -27 64.5 -59t4.5 -80l-82 -184q-6 -14 -8.5 -26t3.5 -22.5t24 -10.5q16 0 29.5 8t25.5 25t15.5 24t11.5 22q12 22 34.5 13.5t13.5 -32.5q-17 -40 -52 -76t-78 -36q-83 0 -83 75q0 28 15 58l75 168
q16 40 -11 67q-11 10 -14 8.5t-9 -18.5q-20 -61 -50.5 -121t-69.5 -114.5t-88.5 -88.5t-98.5 -34zM197 281q21 50 -11 54q-40 6 -72 -68l-13 -29q-10 -26 20 -26q47 0 76 69zM314 510v-1q0 -25 49 -53q9 -4 11 -1.5t2 14.5q0 26 -10.5 45.5t-30.5 19.5q-8 0 -14.5 -6.5
t-6.5 -17.5z" />
    <glyph glyph-name=".notdef" horiz-adv-x="500" 
 />
    <glyph glyph-name=".null" horiz-adv-x="0" 
 />
    <glyph glyph-name="nonmarkingreturn" horiz-adv-x="333" 
 />
    <glyph glyph-name="space" unicode=" " horiz-adv-x="149" 
 />
    <glyph glyph-name="exclam" unicode="!" horiz-adv-x="257" 
d="M165 34q-3 -19 -19 -32t-35 -13q-20 0 -31.5 15t-8.5 34t18.5 32.5t33.5 13.5q21 0 33.5 -14.5t8.5 -35.5zM392 582l-195 -437q-9 -20 -25 -23.5t-25 9t0 31.5l197 440q7 16 22.5 19t24.5 -8.5t1 -30.5z" />
    <glyph glyph-name="quotedbl" unicode="&#x22;" horiz-adv-x="257" 
d="M207 446q-9 -19 -26 -21.5t-24.5 10t1.5 33.5l54 112q13 28 38 24q20 -4 18 -25q-1 -7 -4 -14zM301 446q-9 -19 -26 -21.5t-24.5 10t1.5 33.5l54 112q13 28 38 24q20 -4 18 -25q-1 -7 -4 -14z" />
    <glyph glyph-name="numbersign" unicode="#" horiz-adv-x="590" 
d="M148 342q-17 0 -23.5 13t0.5 26t23 13h92q20 0 28 18l52 115q12 26 37.5 17t12.5 -39l-42 -93q-8 -18 12 -18h66q20 0 28 18l52 115q12 26 37.5 17t12.5 -39l-42 -93q-8 -18 12 -18h78q17 0 24 -13t0 -26t-24 -13h-101q-20 0 -28 -18l-42 -93h99q17 0 24 -13t0 -26
t-24 -13h-102q-20 0 -28 -18l-41 -93q-9 -17 -25 -20t-25.5 9t-1.5 30l33 74q8 18 -12 18h-66q-20 0 -28 -18l-41 -93q-9 -17 -25 -20t-25.5 9t-1.5 30l33 74q8 18 -12 18h-68q-17 0 -23.5 13t0.5 26t23 13h91q20 0 28 18l42 93h-89zM289 324l-34 -75q-8 -18 12 -18h66
q20 0 28 18l34 75q8 18 -12 18h-66q-20 0 -28 -18z" />
    <glyph glyph-name="dollar" unicode="$" horiz-adv-x="518" 
d="M515 574l-4 -9q44 -25 49 -73q0 -23 -13 -45.5t-37 -32.5q-17 -7 -27.5 1.5t-7.5 23t19 22.5q16 7 16 28q0 18 -18 31l-66 -148l9 -13q53 -76 53 -131q0 -97 -66.5 -154t-153.5 -57h-2l-3 -9q-5 -14 -19 -17t-23.5 6t-3.5 24q-78 16 -129.5 72.5t-51.5 136.5
q0 76 51 130.5t133 54.5q49 0 89.5 -27t41.5 -63l18 41q-32 52 -32 96q0 53 37 85.5t80 32.5h11l5 12q6 15 20.5 17t23 -8.5t1.5 -26.5zM86 228q0 -63 44 -107t107 -52l75 167q21 47 -6.5 88t-85.5 41q-61 0 -97.5 -39.5t-36.5 -97.5zM436 228q0 41 -34 91l-113 -251
q60 10 103.5 53t43.5 107zM388 460q0 -20 7 -37l47 106q-22 -5 -38 -23t-16 -46z" />
    <glyph glyph-name="percent" unicode="%" horiz-adv-x="506" 
d="M535 519l-447 -486q-14 -16 -30 -12t-19.5 18t8.5 30l450 488q13 15 29.5 12t19.5 -18t-11 -32zM122 414q0 38 26 64t64 26t64 -26t26 -64t-26 -64t-64 -26t-64 26t-26 64zM176 414q0 -15 10.5 -25.5t25.5 -10.5t25.5 10.5t10.5 25.5t-10.5 25.5t-25.5 10.5t-25.5 -10.5
t-10.5 -25.5zM314 207q0 37 26 63.5t64 26.5t64 -26.5t26 -63.5t-26 -63.5t-64 -26.5t-64 26.5t-26 63.5zM368 207q0 -15 10.5 -25.5t25.5 -10.5t25.5 10.5t10.5 25.5t-10.5 25.5t-25.5 10.5t-25.5 -10.5t-10.5 -25.5z" />
    <glyph glyph-name="ampersand" unicode="&#x26;" horiz-adv-x="792" 
d="M355 539q13 12 28 8t19 -16t-5 -25t-9 -24q0 -27 23 -44.5t55 -18.5q38 0 62.5 26t24.5 62q0 49 -48 90t-123 41q-82 0 -136 -43t-54 -108q0 -40 32 -73t91 -35h7q13 0 20.5 -7.5t7.5 -18.5t-7.5 -19t-20.5 -8h-9q-80 -3 -139.5 -59.5t-59.5 -129.5q0 -77 64.5 -135.5
t179.5 -59.5q109 0 179 66.5t70 135.5q0 45 -31 78t-77 33q-52 0 -86 -53q-15 -22 -35 -14q-21 10 -13 37q2 7 7 14q19 31 54.5 50.5t72.5 19.5q41 0 114 -37t110 -37q31 0 51.5 20.5t20.5 44.5q0 19 -15 29q-16 11 -16 26.5t13 21.5t31 -2q41 -23 41 -75q0 -45 -35.5 -82
t-90.5 -37q-24 0 -45 6q-15 4 -17.5 1t0.5 -18q2 -16 2 -26q0 -38 -20.5 -81.5t-57.5 -82.5t-97 -65t-130 -26q-142 1 -219 76t-77 172q0 62 38.5 119.5t98.5 90.5q11 6 11 8q-2 4 -10 10q-61 49 -61 123q0 84 70.5 142.5t172.5 58.5q96 0 159 -56t63 -125q0 -57 -38.5 -99
t-99.5 -42q-59 0 -95 31.5t-36 84.5q0 32 20 56z" />
    <glyph glyph-name="quotesingle" unicode="'" horiz-adv-x="184" 
d="M207 446q-9 -21 -26 -24t-24.5 10t1.5 36l54 112q14 29 37 23q20 -5 17 -28l-4 -13z" />
    <glyph glyph-name="parenleft" unicode="(" horiz-adv-x="336" 
d="M200 -127q10 -16 3 -31.5t-21 -15.5t-28 19q-39 65 -39 167q0 86 29.5 182.5t81.5 182.5t130.5 150.5t168.5 83.5q20 4 31 -8t5.5 -27t-24.5 -19q-104 -25 -190.5 -117.5t-132 -207.5t-45.5 -220q0 -91 31 -139z" />
    <glyph glyph-name="parenright" unicode=")" horiz-adv-x="336" 
d="M246 564q-10 15 -2.5 29.5t21.5 14.5t27 -16q39 -67 39 -167q0 -86 -30 -181.5t-82 -180.5t-131 -150t-168 -87q-20 -5 -30 7t-4.5 27.5t23.5 19.5q104 25 190.5 117.5t132 207t45.5 220.5q0 91 -31 139z" />
    <glyph glyph-name="asterisk" unicode="*" horiz-adv-x="460" 
d="M456 434h-119l45 -81q9 -21 3 -35t-23 -13t-27 20l-49 91l-107 -94q-14 -13 -28 -8t-16 18t8 24l86 78h-93q-20 0 -26 14t3 27.5t28 13.5h103l-41 74q-9 16 -1 30t22 13.5t26 -18.5l50 -89l114 103q16 14 31.5 10t16.5 -18t-13 -30l-84 -75h97q26 0 26.5 -22.5
t-20.5 -30.5q-6 -2 -12 -2z" />
    <glyph glyph-name="plus" unicode="+" horiz-adv-x="371" 
d="M224 338q8 17 23 19t23.5 -10t0.5 -30l-21 -49q-9 -18 12 -18h60q17 0 24 -13t0 -26t-24 -13h-83q-19 0 -28 -18l-35 -81q-8 -17 -23.5 -19.5t-24.5 9t0 30.5l26 61q9 18 -12 18h-58q-12 0 -19.5 8t-7.5 18t7.5 18t19.5 8h81q20 0 28 18z" />
    <glyph glyph-name="comma" unicode="," horiz-adv-x="227" 
d="M102 84q20 0 31.5 -12.5t11.5 -31.5q0 -33 -29.5 -64t-65.5 -50q-24 -12 -34 4q-8 14 7 25q1 0 2 1q38 19 59 44q-13 1 -21.5 13t-8.5 25q0 18 14.5 32t33.5 14z" />
    <glyph glyph-name="hyphen" unicode="-" horiz-adv-x="327" 
d="M84 198q-17 0 -24 13t0 26t24 13h179q17 0 23.5 -13t0 -26t-23.5 -13h-179z" />
    <glyph glyph-name="period" unicode="." horiz-adv-x="180" 
d="M121 25q-2 -16 -15 -26.5t-29 -10.5q-18 0 -27.5 12t-6.5 29q2 16 15 27t28 11q17 0 28 -12.5t7 -29.5z" />
    <glyph glyph-name="slash" unicode="/" horiz-adv-x="362" 
d="M455 564l-348 -556q-16 -26 -40 -18q-20 8 -14 30q1 5 5 11l349 558q9 14 26 15t24 -10.5t-2 -29.5z" />
    <glyph glyph-name="zero" unicode="0" horiz-adv-x="564" 
d="M75 309q40 136 144.5 231t214.5 95q93 0 148.5 -62.5t58.5 -165.5t-50.5 -208t-143 -173t-181.5 -68t-148 62.5t-59 163.5q-2 69 16 125zM127 291q-16 -52 -14 -107q2 -76 43.5 -124t108.5 -48q83 0 160.5 63.5t121 155.5t40.5 176q-2 78 -43.5 126t-108.5 48
q-93 0 -183 -84.5t-125 -205.5z" />
    <glyph glyph-name="one" unicode="1" horiz-adv-x="255" 
d="M184 409l57 130q45 100 99 100q18 0 30.5 -13.5t12.5 -35.5q3 -88 -156 -216l-164 -368q-8 -18 -23 -21t-24 9t-1 30q6 14 45 103t91 206q-6 -2 -25 -4q-20 -2 -29 11.5t-1.5 28t26.5 14.5q27 4 62 26zM275 496q-2 -5 0.5 -7t6.5 2q13 12 33 49.5t15 43.5q-9 9 -33 -40
q-10 -20 -22 -48z" />
    <glyph glyph-name="two" unicode="2" horiz-adv-x="535" 
d="M-5 0q-18 0 -27 9t-9 21q1 13 11 22t28 9q94 3 217.5 64t215.5 149.5t96 162.5q2 58 -32.5 96t-99.5 38q-74 0 -124 -47t-52 -104q-3 -51 24 -85q11 -14 3.5 -30t-23 -19t-30.5 10q-41 49 -38 116q5 85 74 152.5t174 67.5q85 0 137 -54.5t48 -137.5q-5 -95 -113 -203.5
t-246 -157.5q-24 -8 -22 -15q1 -3 13 -3h207q19 0 28.5 -9.5t8.5 -23.5q0 -11 -11 -19.5t-29 -8.5h-429z" />
    <glyph glyph-name="three" unicode="3" horiz-adv-x="519" 
d="M230 137q-107 0 -107 65q0 26 26 44t65 18q67 0 122 -47q81 32 129 99t48 133q0 50 -37 92.5t-112 42.5q-78 0 -130 -46.5t-52 -101.5q0 -39 26 -68t69 -29q37 0 67 25.5t30 63.5q0 18 -12 42q-10 19 9 30q21 14 38 -6l4 -6q15 -23 15 -65q0 -50 -45.5 -94t-106.5 -44
q-65 0 -106 44t-41 106q0 79 67 141t168 62q96 0 150 -58.5t54 -130.5q0 -76 -52.5 -154.5t-142.5 -120.5q25 -41 25 -93q0 -81 -59.5 -164t-160 -137.5t-207.5 -54.5q-80 0 -121 18q-29 13 -20.5 36.5t39.5 15.5q55 -14 104 -14q89 0 175.5 45.5t140 115.5t53.5 139
q0 41 -21 71q-51 -15 -91 -15zM210 191q22 0 44 3q17 3 2 8q-25 9 -49 9q-10 0 -18 -1.5t-11.5 -4t-2.5 -5.5q2 -9 35 -9z" />
    <glyph glyph-name="four" unicode="4" horiz-adv-x="478" 
d="M72 61h4h144q20 0 28 18l233 509q8 17 25 19.5t27 -10t2 -30.5l-226 -488q-7 -18 12 -18h44q19 0 28.5 -9.5t8.5 -23.5q0 -11 -11 -19.5t-29 -8.5h-70q-21 0 -28 -18l-77 -167q-9 -18 -24.5 -19.5t-24 12.5t0.5 33l65 141q7 18 -12 18h-222q-29 0 -32 26t25 47
q53 40 107 98.5t104 130t81.5 155t31.5 159.5q0 35 -8 59q-6 19 7.5 30.5t31.5 7t23 -24.5q6 -26 6 -61q0 -75 -25 -155t-67.5 -150t-89 -128.5t-98.5 -109.5q-23 -23 5 -23z" />
    <glyph glyph-name="five" unicode="5" horiz-adv-x="487" 
d="M174 294q-20 -21 -44.5 -8t-5.5 44q40 61 81 144t53 132q4 15 18.5 20t26 -3.5t8.5 -24.5q-3 -6 6 -6h172q18 0 27.5 -9.5t8.5 -23.5q-1 -11 -12 -19.5t-29 -8.5h-173q-18 0 -25 -18q-25 -66 -63 -126q-10 -16 -4 -17q3 -1 31 -1q78 0 132.5 -55t54.5 -142
q0 -81 -43 -166.5t-112.5 -152.5t-163.5 -110t-188 -43q-23 0 -63 6t-63 16q-26 11 -16.5 34.5t38.5 16.5q55 -15 105 -15q99 0 204 61.5t174 158.5t69 192q0 62 -37 101.5t-99 39.5q-51 0 -68 -17z" />
    <glyph glyph-name="six" unicode="6" horiz-adv-x="535" 
d="M204 203q18 -24 -4 -41q-9 -8 -22 -7t-22 11q-17 20 -17 60q0 66 60.5 126.5t144.5 60.5q75 0 125 -49t50 -120q0 -103 -81.5 -189t-207.5 -86q-102 0 -158.5 61t-56.5 155q0 88 45.5 169.5t117 141t158 105.5t170 71t151.5 29q28 0 28 -27q0 -11 -7.5 -19.5t-19.5 -9.5
q-71 -8 -150 -32.5t-156.5 -67t-139.5 -95.5t-100.5 -123t-38.5 -144q0 -67 42 -112t114 -45q97 0 164.5 66.5t67.5 141.5q0 52 -32.5 86.5t-84.5 34.5q-57 0 -102.5 -39.5t-45.5 -89.5q0 -13 8 -23z" />
    <glyph glyph-name="seven" unicode="7" horiz-adv-x="461" 
d="M540 614q10 25 36 20q21 -5 20 -23q0 -6 -4 -13q-15 -26 -46 -44q-122 -83 -251 -245t-159 -303q-3 -16 -17.5 -22t-26.5 2.5t-10 27.5q16 122 119.5 267.5t231.5 251.5q12 12 11.5 14t-15.5 5q-6 1 -29.5 8t-39.5 10t-31 3q-51 0 -63 -17q-14 -19 -30.5 -18.5t-20.5 15
t6 33.5q29 44 109 44q27 0 82.5 -16t83.5 -16q38 0 44 16z" />
    <glyph glyph-name="eight" unicode="8" horiz-adv-x="550" 
d="M478 711h4q54 0 90.5 -34t36.5 -83q0 -57 -44.5 -94t-125.5 -67q34 -37 51 -59t35 -61t18 -79q0 -60 -37 -116q-39 -65 -107.5 -106t-153.5 -41q-98 0 -157.5 54.5t-59.5 142.5q0 49 19.5 91t47 70t73.5 54t83 41.5t91 33.5q-32 50 -32 101q0 63 51 107.5t117 44.5z
M455 142q28 41 28 92q0 32 -14 63.5t-29 50t-43 48.5l-15 16q-137 -48 -186 -77q-110 -64 -110 -167q0 -62 44.5 -102t113.5 -40q67 0 122.5 32.5t88.5 83.5zM554 594q0 27 -21.5 45t-54.5 18q-45 0 -79.5 -28.5t-34.5 -69.5q0 -32 37 -82q75 25 114 51.5t39 65.5z" />
    <glyph glyph-name="nine" unicode="9" horiz-adv-x="544" 
d="M436 409q-18 24 4 41q9 8 22 7t22 -11q17 -20 17 -60q0 -66 -60.5 -126.5t-144.5 -60.5q-75 0 -125 49t-50 120q0 103 81.5 189t207.5 86q102 0 158.5 -61t56.5 -155q0 -88 -45.5 -169.5t-117 -141t-158 -105.5t-170 -71t-151.5 -29q-28 0 -28 27q0 11 7.5 19.5t19.5 9.5
q70 10 148.5 36t156 68.5t140 95t101.5 121.5t39 141q0 67 -42 112t-114 45q-97 0 -164.5 -66.5t-67.5 -141.5q0 -52 32.5 -86.5t84.5 -34.5q57 0 102.5 39.5t45.5 89.5q0 13 -8 23z" />
    <glyph glyph-name="colon" unicode=":" horiz-adv-x="242" 
d="M263 336q-4 -18 -19.5 -31.5t-34.5 -13.5q-21 0 -32 14.5t-8 34.5q3 19 18.5 32.5t33.5 13.5q21 0 33.5 -14.5t8.5 -35.5zM150 34q-4 -18 -19.5 -31.5t-34.5 -13.5q-21 0 -32 14.5t-8 34.5q3 19 18.5 32.5t33.5 13.5q21 0 33.5 -14.5t8.5 -35.5z" />
    <glyph glyph-name="semicolon" unicode=";" horiz-adv-x="237" 
d="M102 84q20 0 31.5 -12.5t11.5 -31.5q0 -33 -29.5 -64t-65.5 -50q-24 -12 -34 4q-8 14 7 25q1 0 2 1q38 19 59 44q-13 1 -21.5 13t-8.5 25q0 18 14.5 32t33.5 14zM258 336q-4 -18 -19.5 -31.5t-34.5 -13.5q-21 0 -32 14.5t-8 34.5q3 19 18.5 32.5t33.5 13.5
q21 0 33.5 -14.5t8.5 -35.5z" />
    <glyph glyph-name="less" unicode="&#x3c;" horiz-adv-x="330" 
d="M90 201q0 19 21 37l82 82q9 6 18 6q21 0 26 -26q4 -18 -11 -28l-59 -59q-8 -8 -8 -12t8 -12l55 -55q15 -12 11 -28q-5 -26 -26 -26q-9 0 -18 6l-78 78q-21 17 -21 37z" />
    <glyph glyph-name="equal" unicode="=" horiz-adv-x="361" 
d="M135 221q-12 0 -19.5 8t-7.5 18t7.5 18t19.5 8h179q17 0 23.5 -13t-0.5 -26t-23 -13h-179zM94 117q-12 0 -19.5 8t-7.5 18t7.5 18t19.5 8h179q17 0 23.5 -13t-0.5 -26t-23 -13h-179z" />
    <glyph glyph-name="greater" unicode="&#x3e;" horiz-adv-x="323" 
d="M261 201q0 -19 -21 -37l-82 -82q-9 -6 -18 -6q-21 0 -26 26q-4 16 11 28l59 59q8 8 8 12t-8 12l-59 59q-15 10 -11 28q5 26 26 26q9 0 18 -6l82 -82q21 -18 21 -37z" />
    <glyph glyph-name="question" unicode="?" horiz-adv-x="325" 
d="M154 34q-4 -18 -19.5 -31.5t-34.5 -13.5q-21 0 -32 14.5t-8 34.5q3 19 18.5 32.5t33.5 13.5q21 0 33.5 -14.5t8.5 -35.5zM237 375q39 0 65 23q12 12 26.5 8.5t17.5 -16.5t-8 -28q-43 -41 -102 -41q-57 0 -92 41.5t-35 100.5q0 69 57 122t144 53q95 0 149.5 -58.5
t54.5 -130.5q0 -37 -14 -69t-32 -53.5t-50.5 -44.5t-55.5 -35t-61 -30t-58 -29t-43 -29t-31 -35q-9 -16 -24 -17t-21 11.5t2 33.5q11 22 37.5 43.5t48 33.5t64.5 33t67.5 34.5t55.5 37t45.5 52t14.5 63.5q0 49 -37.5 92t-111.5 43q-66 0 -107 -37.5t-41 -82.5
q0 -36 19.5 -62.5t55.5 -26.5z" />
    <glyph glyph-name="at" unicode="@" horiz-adv-x="853" 
d="M559 -73q-54 0 -90.5 26.5t-51.5 68.5q-34 -34 -76 -34q-41 0 -64.5 19.5t-23.5 56.5q0 26 14 56l75 158q53 109 129 109q20 0 38.5 -8.5t25.5 -23.5q9 24 32 22q19 -3 19 -22q0 -5 -2 -11l-87 -191l-21 -48q-10 -21 -10 -42q0 -36 27.5 -59.5t65.5 -23.5q72 0 132 71.5
t60 166.5q0 123 -79.5 204t-202.5 81q-96 0 -185 -54t-144 -143t-55 -186q0 -121 80.5 -201.5t204.5 -80.5q96 0 184 50q18 8 29.5 0t9 -23.5t-19.5 -23.5q-101 -57 -207 -57q-145 0 -240.5 95t-95.5 237q0 116 62.5 218.5t165 162.5t215.5 60q145 0 238.5 -96.5
t93.5 -243.5q0 -117 -75.5 -203.5t-170.5 -86.5zM438 153l58 123q7 14 8 27t-7 22.5t-26 9.5q-16 0 -30 -8.5t-25.5 -26.5t-15 -24.5t-12.5 -24.5l-72 -154q-11 -19 -5.5 -38t30.5 -19t45 21.5t31 46.5z" />
    <glyph glyph-name="A" unicode="A" horiz-adv-x="1083" 
d="M1352 667q20 -12 10 -33q-11 -22 -33 -16q-6 2 -12 6q-17 10 -45 12q-53 0 -99.5 -55.5t-79.5 -127.5l-194 -418q-20 -46 -20 -90q0 -56 43 -56q5 0 17 2q21 4 26 -17q5 -23 -16 -34l-10 -3q-12 -2 -20 -2q-48 0 -71 31t-23 79q0 55 26 110l70 150q7 18 -12 18h-142
q-14 0 -23 -4.5t-11.5 -7.5t-8.5 -13q-79 -128 -184.5 -209t-230.5 -81q-120 0 -205 77.5t-85 198.5q0 111 78 193.5t200 82.5q103 0 159 -52t56 -130q0 -68 -52 -113q-15 -13 -30.5 -8.5t-17 19.5t14.5 33q31 28 31 69q0 56 -42 92t-121 36q-97 0 -159.5 -66t-62.5 -156
q0 -95 71.5 -158.5t164.5 -63.5q78 0 157 49t136.5 115.5t104.5 147.5q38 64 79 120t96 111.5t112.5 94.5t128.5 63.5t144 24.5q50 0 85 -21zM1037 457q52 105 96 158q-206 -64 -355 -321q-4 -5 -1.5 -12.5t14.5 -7.5h140q21 0 29 18z" />
    <glyph glyph-name="B" unicode="B" horiz-adv-x="826" 
d="M123 -82q-18 0 -38.5 4t-44 12t-38.5 24.5t-15 39.5q0 27 28 47.5t67 20.5q62 0 178 -57q35 22 68 65t52.5 80t49.5 102l-1 -1q13 32 34 75v-1l34 74q3 6 13.5 29.5t14 31.5t13.5 29t15 30.5t14.5 26.5t16 26t15 21t17 19.5t16.5 13.5q-60 19 -116 19q-86 0 -160 -22
t-124 -58t-85.5 -81.5t-51.5 -92t-16 -90.5q0 -58 27.5 -103t77.5 -66q18 -7 21 -22.5t-9 -25t-31 -3.5q-68 25 -104.5 85t-36.5 136q0 50 18.5 103t59 105t96.5 93.5t138 67t177 25.5q135 0 234 -72t99 -181q0 -61 -30.5 -110t-80.5 -78q39 -45 39 -106q0 -99 -90.5 -181
t-212.5 -82q-85 0 -207 58q-58 -29 -141 -30zM588 215q-32 0 -54.5 16t-22.5 36q0 25 23 40t54 15q55 0 104 -27q44 22 71 62t27 90q0 47 -29 90t-80 72q-30 -12 -59 -64t-67 -139q-2 -5 -3 -8t-3 -7t-3 -7l-67 -146q-32 -68 -50.5 -104.5t-49 -80.5t-63.5 -71
q85 -37 152 -37q103 0 176 64.5t73 143.5q0 51 -31 79q-45 -17 -98 -17zM123 -28q37 0 75 10q-2 1 -11.5 5t-12.5 5.5t-11 5t-12 4.5t-12 3.5t-13.5 3.5t-13 2.5t-14.5 2t-15 0.5q-43 -2 -43 -16q0 -26 83 -26zM559 270q-4 -4 9 -9q10 -4 21 -5q30 -1 53 9
q-14 10 -42.5 12.5t-40.5 -7.5z" />
    <glyph glyph-name="C" unicode="C" horiz-adv-x="718" 
d="M377 -131q-137 0 -220 97.5t-79 234.5q2 77 39.5 160.5t99 154t152.5 116t191 45.5q105 0 165 -52.5t61 -122.5q-2 -63 -49 -112.5t-114 -49.5t-97 34t-28 82q0 27 20 52q14 17 31 17.5t22 -12.5t-5 -31q-14 -19 -14 -32q-1 -23 17.5 -40t56.5 -17q44 0 75 32t32 72
q2 50 -44.5 88.5t-130.5 38.5q-89 0 -169.5 -40.5t-134.5 -103t-86.5 -136.5t-34.5 -142q-3 -108 65.5 -193.5t180.5 -85.5q87 0 148 52.5t69 120.5q6 46 -22 81t-76 35q-41 1 -66.5 -18.5t-27.5 -45.5q-1 -20 -14.5 -28.5t-25.5 0t-11 28.5q2 46 45 82.5t108 35.5
q71 0 112 -53.5t31 -121.5q-13 -86 -89 -154t-183 -68z" />
    <glyph glyph-name="D" unicode="D" horiz-adv-x="974" 
d="M740 658q105 -47 161.5 -131.5t56.5 -182.5q0 -84 -35 -163.5t-95 -139.5t-147 -96t-185 -36q-34 0 -74 9.5t-66.5 19t-71.5 28.5q-67 -39 -161 -40q-18 0 -38.5 4t-44 12t-38.5 24.5t-15 39.5q0 27 28.5 47t69.5 20q75 0 193 -47q31 23 60 63t45.5 71.5t46.5 95.5v-1
l82 182q50 112 94 177q15 22 -6 27q-34 5 -85 5q-86 0 -160 -22t-123.5 -57t-85 -80.5t-51.5 -91.5t-16 -90q0 -56 29 -102.5t79 -67.5q16 -7 18 -21.5t-10 -24.5t-30 -4q-68 25 -104.5 85t-36.5 136q0 50 19 103t59.5 105t96.5 93.5t138.5 67t177.5 25.5q130 0 225 -42z
M902 344q0 87 -52.5 160.5t-150.5 110.5q-11 6 -19.5 4.5t-18.5 -15.5q-36 -48 -100 -186l-82 -179q-73 -157 -136 -228q-8 -9 5 -13q105 -35 148 -35q115 0 209 53.5t145.5 140.5t51.5 187zM197 -12q4 1 6 3t0.5 4t-6.5 4q-69 23 -114 23q-20 0 -31.5 -5t-11.5 -11
q0 -26 83 -26q39 0 74 8z" />
    <glyph glyph-name="E" unicode="E" horiz-adv-x="690" 
d="M335 -148q-73 0 -128.5 22t-86 58t-44.5 77t-13 85q2 88 74.5 165t188.5 98q-38 58 -37 128q2 92 85.5 159.5t192.5 67.5q103 0 166.5 -51.5t64.5 -119.5q0 -64 -46.5 -114.5t-114.5 -50.5q-62 -1 -96.5 33t-32.5 78q0 45 26 68q23 19 40.5 2.5t-1.5 -37.5
q-12 -12 -12 -33q-1 -24 19 -41.5t57 -16.5q44 0 75.5 32.5t31.5 74.5q1 49 -49 86.5t-130 37.5q-88 0 -155 -52t-68 -123q-2 -49 23 -79t75 -31h18q15 0 23 -8.5t8 -20.5t-8 -20t-22 -8h-23q-125 7 -217.5 -63.5t-100.5 -160.5q2 -72 59 -129t159 -57q87 0 146.5 52
t65.5 120q5 45 -24 80t-76 35q-40 1 -65.5 -18.5t-26.5 -44.5q-1 -15 -9 -23.5t-19 -8.5q-25 0 -25 32q1 46 43 83t108 36q71 0 113.5 -54t35.5 -122q-12 -86 -87 -154.5t-181 -68.5z" />
    <glyph glyph-name="F" unicode="F" horiz-adv-x="616" 
d="M480 683q76 -3 204.5 -43t177.5 -40q54 0 84 22t33 48q2 20 16 26.5t26.5 -4t10.5 -31.5q-4 -42 -51 -78t-119 -36q-51 -1 -174 33q-27 6 -38 -9q-49 -63 -106 -192l-12 -26q-8 -18 12 -18h39q23 0 25 -20q2 -21 -19 -30q-7 -3 -15 -3h-55q-20 0 -28 -18l-14 -30
q-25 -55 -41.5 -87.5t-42 -74.5t-50.5 -66.5t-58 -48t-74 -34t-90 -11.5q-53 0 -94.5 21t-55.5 55q-9 23 -1 37t25.5 11t25.5 -25q7 -19 34.5 -32t64.5 -13q50 0 92 15.5t71 38t57 63.5t45.5 75.5t41.5 90.5l7 16q8 18 -12 18h-2q-23 0 -25 20q-1 21 21 29q6 3 14 3h16
q20 0 28 18l20 45q57 128 101 186q14 17 -7 24q-65 17 -108 20q-104 4 -189 -25.5t-135.5 -80t-77.5 -109t-27 -116.5q0 -69 36 -126t100 -81q21 -8 24.5 -24.5t-10 -26.5t-34.5 -2q-79 30 -124.5 103t-45.5 156q0 53 17 106.5t54 104.5t89 90t128 63t166 24q3 0 7 -0.5
t7 -0.5h15z" />
    <glyph glyph-name="G" unicode="G" horiz-adv-x="678" 
d="M481 540q18 20 36.5 7t0.5 -39q-10 -15 -10 -29q1 -20 16.5 -33.5t47.5 -14.5q38 0 63.5 28.5t25.5 66.5q0 41 -43 71t-116 30q-79 0 -151 -37.5t-120 -94.5t-76.5 -123.5t-28.5 -126.5q0 -83 52 -142.5t143 -59.5q52 0 97 19t76.5 50t52 60t35.5 60l20 42q14 28 37 25
q20 -3 17 -24q0 -6 -4 -14l-139 -307q-93 -206 -239 -206q-65 0 -98 31.5t-33 77.5q0 39 30.5 74.5t78.5 35.5q19 0 27 -12.5t0 -25.5t-28 -13q-23 0 -39 -18t-14 -41q4 -57 76 -57q53 0 102.5 42.5t83.5 119.5l30 66q5 9 0.5 9t-9.5 -4q-70 -43 -160 -43q-114 0 -181 76
t-67 179q0 68 32 143.5t86.5 140.5t136.5 107.5t173 42.5q97 0 154.5 -45t58.5 -107q0 -57 -40.5 -102.5t-101.5 -45.5q-55 0 -85 30t-30 70q0 35 24 61z" />
    <glyph glyph-name="H" unicode="H" horiz-adv-x="918" 
d="M146 -28q50 0 91.5 15.5t70.5 38t57 63.5t45.5 75.5t41.5 90.5l6 14q8 18 -12 18h-4q-24 0 -25 20q-2 21 20 29q6 3 14 3h20q20 0 28 18l21 46q59 132 112 209q-101 30 -164 30q-84 0 -155 -32.5t-114 -83.5t-67 -108t-24 -111q0 -67 36 -123.5t100 -83.5q22 -9 22 -28
q0 -10 -8.5 -18t-19.5 -8t-15 3l1 -1q-82 33 -126 103t-44 156q0 62 26.5 128t75.5 125.5t130 98t178 38.5q67 0 210 -37q56 56 111 57q41 0 64 -17t23 -42q0 -34 -26 -54.5t-64 -20.5q-36 0 -94 15q-42 -53 -119 -215l-12 -26q-8 -18 11 -18h268q21 0 28 18l73 157
q98 212 242 212q65 0 98 -31.5t33 -77.5q0 -39 -30 -74t-78 -36q-16 0 -23 13t0 26t23 13q25 2 39.5 20t14.5 38q0 24 -18.5 40.5t-58.5 16.5q-50 0 -101 -44.5t-85 -117.5l-194 -427q-10 -21 -10 -36q0 -14 8 -23q19 -21 2 -37t-36 0q-28 23 -28 60q0 21 15 56l74 164
q8 18 -12 18h-268q-20 0 -28 -18l-14 -30q-22 -49 -35.5 -76.5t-35.5 -66.5t-40 -61t-45 -47.5t-54.5 -38.5t-64.5 -22t-80 -9q-58 0 -101 24.5t-53 64.5q-2 10 2 18t11.5 11t15.5 3t15 -6t10 -16q5 -20 33 -32.5t66 -12.5zM783 638q35 0 35 16q0 11 -32 11q-25 0 -51 -20
q20 -7 48 -7z" />
    <glyph glyph-name="I" unicode="I" horiz-adv-x="580" 
d="M578 681q72 0 128 -20q23 -8 30.5 -22t3.5 -24.5t-12 -18.5q-38 -30 -65.5 -60t-35.5 -44q-19 -31 -94 -193q-68 -149 -101 -200q-92 -145 -226 -167q-26 -4 -54 -4q-53 0 -94.5 21.5t-55.5 56.5q-10 24 0 37.5t26.5 9t23.5 -25.5q6 -20 33.5 -32.5t66.5 -12.5q28 0 54 6
t47 14t42 24.5t35.5 30t32 38t27.5 40t25.5 45t22.5 45t22 47.5t21 45q3 5 30 64.5t40.5 86.5t40 68t49.5 63q9 8 7 13.5t-20 9.5q-24 5 -50 5q-96 0 -160 -66.5t-64 -165.5q0 -35 9 -63q8 -17 -3 -30t-28 -11t-24 23q-13 39 -13 81q0 119 82 202.5t201 83.5z" />
    <glyph glyph-name="J" unicode="J" horiz-adv-x="580" 
d="M578 681q72 0 128 -20q23 -8 30.5 -22t3.5 -24.5t-12 -18.5q-38 -30 -65.5 -60t-35.5 -44q-30 -48 -148 -304q-68 -149 -101 -200q-92 -145 -226 -167q-26 -4 -54 -4q-53 0 -94.5 21.5t-55.5 56.5q-10 24 0 37.5t26.5 9t23.5 -25.5q6 -20 33.5 -32.5t66.5 -12.5
q28 0 54 6t47 14t42 24.5t35.5 30t32 38t27.5 40t25.5 45t22.5 45t22 47.5t21 45q3 7 28.5 62.5t44.5 94t46 91.5t51.5 90t43.5 55q9 8 7 13.5t-20 9.5q-24 5 -50 5q-96 0 -160 -66.5t-64 -165.5q0 -35 9 -63q8 -17 -3 -30t-28 -11t-24 23q-13 39 -13 81q0 119 82 202.5
t201 83.5z" />
    <glyph glyph-name="K" unicode="K" horiz-adv-x="861" 
d="M553 154q-13 24 -4 44.5t34 20.5q33 6 66 27.5t69 63.5t59.5 73t63.5 89q33 47 53 74t51.5 64.5t55.5 57t54.5 34.5t58.5 15t54 -12q18 -9 20 -25t-10.5 -23.5t-33.5 0.5q-14 6 -30 6q-26 0 -53.5 -16.5t-60 -54t-54.5 -66.5t-61 -84q-43 -60 -67.5 -92t-63.5 -76.5
t-76 -70t-74 -35.5q21 -42 66 -149q18 -46 29 -72.5t31 -67.5t36.5 -65t41.5 -53t50 -44.5t59 -26.5t72 -11q67 0 111.5 35t44.5 79q0 45 -35 74q-20 22 -4 39.5t37 5.5q26 -18 41 -50t15 -65q0 -75 -63.5 -123.5t-146.5 -48.5q-46 0 -86.5 12t-71 29.5t-59.5 49.5
t-47.5 58.5t-40.5 71.5t-34 73.5t-31 77.5h1l-13 29q-44 110 -54 128zM524 282l-50 -108q-42 -91 -84.5 -148.5t-101.5 -90.5q53 -26 95 -36q27 -6 22 -29q-5 -19 -24 -23q-8 -1 -17 2q-79 23 -134 59q-39 -9 -92 -11q-52 0 -92 20t-56 53q-14 35 9.5 44.5t38.5 -18.5
q10 -19 36.5 -32t62.5 -13q27 0 34 1q-60 54 -93 124t-33 147q0 127 63.5 232.5t170.5 164.5t231 59q103 0 182 -44q11 -6 16 -11t4 -10t-3.5 -8.5t-10.5 -11.5q-60 -64 -125 -203q-40 -89 -49 -109zM99 223q0 -72 36.5 -139.5t100.5 -114.5q62 23 104 79t85 149l98 215
q50 112 95 170q12 16 -7 24q-44 19 -101 19q-168 0 -289.5 -116t-121.5 -286z" />
    <glyph glyph-name="L" unicode="L" horiz-adv-x="865" 
d="M562 106q18 21 -11 14q-52 -10 -95 -10q-143 0 -243.5 82t-100.5 201q0 98 56 173t137 111t167 36q82 0 175 -37.5t151 -103.5q72 126 143 126q73 0 73 -103q0 -115 -102.5 -244t-249.5 -194q-70 -124 -157 -185l46 -41q65 -58 104 -89.5t101 -72.5t124 -60t128 -19
q88 0 142.5 45.5t54.5 102.5q0 40 -33 65q-19 15 -6 34.5t35 6.5q57 -35 57 -109q0 -76 -68.5 -137.5t-182.5 -61.5q-44 0 -87.5 8.5t-78.5 20.5t-75.5 35t-67 40.5t-66.5 50t-59.5 50.5t-59.5 54q-24 23 -54 48q-107 -60 -233 -62q-92 0 -155 36.5t-63 98.5q0 60 53.5 91.5
t121.5 31.5q121 0 277 -128q56 40 102 95zM762 501q11 18 -6 33q-51 57 -125 91h1q-76 34 -160 34q-54 0 -107.5 -18t-98 -51t-72.5 -84t-28 -111q0 -97 85 -163.5t206 -66.5q82 0 168 35l1 2q28 57 72 158t64 141zM226 -65q93 0 171 39q17 9 0 21q-124 90 -210 90
q-56 0 -89.5 -18t-33.5 -49q0 -37 48.5 -60t113.5 -23zM708 256q-6 -10 -3.5 -12.5t11.5 2.5q106 68 175 167t69 184q0 47 -23 47q-44 0 -105 -121l23 -41q9 -17 0.5 -33t-25.5 -15.5t-29 24.5l-1 2q-5 -12 -32 -72t-60 -132z" />
    <glyph glyph-name="M" unicode="M" horiz-adv-x="849" 
d="M318 427l8 18q22 51 22 98q0 64 -48.5 104.5t-116.5 40.5q-62 0 -112 -41t-50 -103q0 -47 31 -80t79 -33q54 0 72 41q7 19 23 21.5t26 -9.5t4 -29q-14 -37 -48 -56.5t-77 -19.5q-68 0 -115.5 48t-47.5 118q0 81 65.5 138.5t150.5 57.5t151.5 -55t66.5 -141q0 -15 -1 -23
q14 19 34 38q28 28 65.5 44.5t65.5 16.5q39 0 62 -21t29 -55q0 -1 0.5 -2t0.5 -2q2 -9 12 1q34 36 76 57.5t74 21.5q49 0 74 -29.5t25 -71.5q0 -33 -12 -57l-213 -461q-10 -28 -10 -35q0 -10 2 -12q22 -19 7 -42q-13 -20 -31 -12l-7 4q-29 19 -29 62q0 23 15 59
q23 52 88 190.5t116 248.5q12 28 12 48q0 21 -13 34.5t-38 13.5q-45 0 -93.5 -38t-81.5 -108l-189 -410q-12 -23 -34 -23q-16 0 -23.5 11t0.5 30l206 442q14 30 14 47q0 22 -13 35.5t-33 13.5q-48 0 -101.5 -44t-94.5 -128l-8 -17l-167 -367q-12 -23 -34 -23q-15 0 -23 11.5
t0 29.5l170 367z" />
    <glyph glyph-name="N" unicode="N" horiz-adv-x="610" 
d="M149 -30q-15 0 -23 11.5t0 29.5l200 434q22 51 22 98q0 64 -48.5 104.5t-116.5 40.5q-62 0 -112 -41t-50 -103q0 -47 31 -80t79 -33q54 0 72 41q7 19 23 21.5t26 -9.5t4 -29q-14 -37 -48 -56.5t-77 -19.5q-68 0 -115.5 48t-47.5 118q0 81 65.5 138.5t150.5 57.5
t151.5 -55t66.5 -141q0 -7 1 -10.5t4 -2l5 2.5t6 6q70 70 148 70q48 0 73.5 -30.5t25.5 -72.5q0 -33 -12 -57l-205 -461q-10 -28 -10 -35q0 -10 2 -12q23 -20 7 -43q-14 -20 -33 -10l-5 4v-1q-29 19 -29 62q0 23 15 59q14 30 42.5 96.5t66.5 151.5t87 191q12 28 12 48
q0 21 -13 34.5t-38 13.5q-47 0 -96 -40q-61 -49 -106 -149l-167 -367q-11 -23 -34 -23z" />
    <glyph glyph-name="O" unicode="O" horiz-adv-x="833" 
d="M104 308q36 156 164 266t273 110q126 0 204 -83t78 -211q0 -43 -10 -91q-37 -156 -164.5 -265.5t-272.5 -109.5q-126 0 -204.5 83t-78.5 211q0 44 11 90zM157 299q-10 -50 -10 -81q0 -105 63.5 -172.5t165.5 -67.5q122 0 234.5 98.5t148.5 232.5v-1q10 43 10 82
q0 105 -63 172.5t-165 67.5q-126 0 -239 -97.5t-145 -233.5z" />
    <glyph glyph-name="P" unicode="P" horiz-adv-x="812" 
d="M777 695q27 6 34 -15q7 -20 -15 -31q-6 -3 -15 -4q-18 -5 -34 -14q117 -85 117 -219q0 -115 -85.5 -193.5t-191.5 -78.5q-34 0 -65.5 11t-43.5 29q-34 -72 -61 -117t-67.5 -89t-94 -65t-122.5 -22q-51 1 -94.5 25.5t-53.5 60.5q-7 45 26 45q8 0 16 -6.5t11 -17.5
q6 -21 31 -37t60 -16q51 0 94 16.5t72 39.5t58.5 66.5t46.5 77t44 92.5l81 177q64 144 130 214q-76 34 -157 34q-76 0 -141 -20.5t-108.5 -53.5t-74.5 -75t-45 -85.5t-14 -85.5q0 -64 31 -115.5t90 -76.5q21 -11 21 -25q0 -11 -7.5 -18.5t-19.5 -7.5q-8 0 -14 3l1 -1
q-75 31 -115.5 95.5t-40.5 143.5q0 49 16 100t51.5 100.5t85 88t123 62t159.5 23.5q112 0 201 -48q38 27 80 33zM494 215q0 -1 -0.5 -1t-0.5 -1q6 2 10 2q8 0 26 -9q39 -13 58 -13q84 0 153.5 64t69.5 156q0 112 -109 186q-56 -54 -127 -209v1z" />
    <glyph glyph-name="Q" unicode="Q" horiz-adv-x="758" 
d="M481 690q131 1 214.5 -88t78.5 -221q-6 -142 -93.5 -256.5t-217.5 -174.5q-23 -13 -22 -21t18 -23q46 -47 71.5 -72t72 -64t83.5 -59t88.5 -35.5t103.5 -15.5q81 0 138 42.5t64 95.5q6 46 -31 74q-15 15 -10.5 29.5t20 16.5t30.5 -8q21 -18 33.5 -47.5t11.5 -58.5
q-3 -83 -84.5 -140.5t-173.5 -57.5q-63 0 -122.5 17.5t-100.5 39t-92 64.5t-76 68.5t-73 77.5l-23 25q-12 13 -41 6q-66 -18 -129 -18q-96 0 -151 38.5t-53 87.5q1 38 34 66t96 28q60 0 115 -30.5t118 -87.5q16 -13 29 -7q129 58 218.5 166t93.5 234q4 109 -64 182t-176 73
q-145 -1 -233 -90t-90 -200q-3 -76 48.5 -132t131.5 -56q75 0 122.5 41t49.5 101q0 30 -21 55q-19 24 3 41t43 -5q32 -30 30 -93q-3 -75 -66 -134t-162 -60q-102 0 -170.5 70.5t-63.5 168.5q2 64 29.5 125.5t75 111t119.5 80t156 30.5zM144 53q-37 1 -55 -12.5t-19 -31.5
q0 -25 43 -47.5t108 -21.5q26 0 82 8q16 2 18 10.5t-12 19.5q-85 74 -165 75z" />
    <glyph glyph-name="R" unicode="R" horiz-adv-x="932" 
d="M680 394l-119 -249q-102 -214 -304 -217q-58 0 -106.5 27t-48.5 68q0 12 8.5 19.5t19.5 7.5q21 0 27 -23q4 -19 31 -32t64 -13q98 0 165 57t138 211l76 164q52 112 93 173q10 14 9 18.5t-14 10.5q-73 38 -170 38t-172 -30.5t-117 -79t-62.5 -101.5t-20.5 -105
q0 -67 36 -123.5t100 -83.5q22 -9 22 -28q0 -10 -8.5 -18t-19.5 -8q-12 0 -15 3l1 -1q-82 33 -126 103t-44 156q0 63 24 125t72.5 118.5t133.5 91.5t195 35q159 0 267 -87q59 -45 94 -105.5t35 -127.5q0 -110 -63.5 -188.5t-158.5 -103.5q-14 -4 -16 -7.5t4 -15.5
q8 -16 25 -54.5t26 -57.5q20 -44 30 -65.5t30.5 -59.5t36 -58.5t39 -47t47 -39.5t54 -23t64.5 -10q74 0 114.5 37.5t40.5 85.5q0 35 -33 65q-17 12 -5 32q13 22 35 13q3 -2 7 -5q49 -39 49 -108q0 -68 -55 -121t-154 -53q-33 0 -63.5 6.5t-55 16t-48 28t-40.5 34t-35.5 43
t-30 46.5t-28 52t-25 52t-23.5 55l1 -1q-5 9 -29 61t-39 80q-14 26 -7.5 44.5t31.5 19.5q85 7 152.5 78.5t68.5 169.5q0 103 -90 177q-15 11 -19.5 10t-12.5 -14q-38 -56 -88 -168z" />
    <glyph glyph-name="S" unicode="S" horiz-adv-x="761" 
d="M374 -108q-128 0 -215.5 78.5t-92.5 203.5q-5 117 76.5 206t207.5 89q103 0 159 -55t56 -134q0 -35 -22.5 -75.5t-57.5 -60.5q-17 -10 -30.5 -3t-13 21t14.5 25q55 36 55 93t-42.5 96t-120.5 39q-101 0 -167 -72t-61 -169q4 -99 78.5 -163.5t175.5 -64.5q70 0 135 32
t109.5 98t44.5 151q0 45 -30 137q-32 100 -32 156q0 81 55.5 130t120.5 49q53 0 94 -32t41 -89q0 -39 -30 -74t-78 -36q-19 0 -26 13t1 26t25 13q25 2 39.5 20t14.5 38q0 30 -22.5 49.5t-57.5 19.5q-44 0 -83.5 -35t-39.5 -92q0 -46 30 -136q32 -98 32 -157
q0 -77 -30.5 -142.5t-80.5 -106.5t-110 -63.5t-122 -22.5z" />
    <glyph glyph-name="T" unicode="T" horiz-adv-x="585" 
d="M451 684q87 0 222 -42t189 -42t84 22t33 48q2 20 16 26.5t26.5 -4t10.5 -31.5q-4 -42 -51 -78t-119 -36q-55 -1 -200 40q-55 -65 -118 -208l-67 -145q-25 -55 -41.5 -87.5t-42 -74.5t-50.5 -66.5t-58 -48t-74 -34t-90 -11.5q-53 0 -94.5 21t-55.5 55q-9 23 -1 37t25.5 11
t25.5 -25q7 -19 34.5 -32t64.5 -13q50 0 92 15.5t71 38t57 63.5t45.5 75.5t41.5 90.5l67 149q57 128 101 186q6 7 4.5 14.5t-11.5 9.5q-65 17 -108 20q-104 4 -189 -25.5t-135.5 -80t-77.5 -109t-27 -116.5q0 -69 36 -126t100 -81q21 -8 24.5 -24.5t-10 -26.5t-34.5 -2
q-79 30 -124.5 103t-45.5 156q0 53 17 106.5t54 104.5t89 90t128 63t166 24z" />
    <glyph glyph-name="U" unicode="U" horiz-adv-x="743" 
d="M683 -266q-168 0 -168 249q0 7 -0.5 11.5t0.5 11.5q-87 -73 -168 -73q-68 0 -101.5 37.5t-33.5 95.5q0 46 25 101l107 230q51 111 12 191t-147 80q-61 0 -110.5 -42.5t-49.5 -107.5q0 -50 27.5 -84.5t72.5 -34.5q28 0 50.5 12.5t31.5 34.5q8 20 23.5 22.5t25.5 -9.5
t4 -30q-13 -40 -50.5 -61t-84.5 -21q-63 0 -108 50t-45 122q0 83 64.5 142.5t149.5 59.5q134 0 189 -101.5t-9 -244.5l-107 -231q-18 -39 -18 -79q0 -79 82 -79q78 0 174 94q11 89 23 127q49 163 94.5 255.5t94.5 92.5q23 0 37.5 -21.5t14.5 -51.5q0 -88 -62.5 -209.5
t-151.5 -214.5q-3 -30 -3 -65q0 -89 27 -147t89 -58q54 0 81 29t29 64q2 19 -9 33q-12 16 -5.5 30.5t21 15t27.5 -14.5q20 -24 19 -62q-2 -54 -43.5 -101.5t-120.5 -47.5zM596 196q-8 -27 -5 -29t20 22q89 123 115 224q2 5 4.5 17.5t4.5 28.5t0.5 27.5t-8.5 11.5
q-21 0 -57.5 -88.5t-73.5 -213.5z" />
    <glyph glyph-name="V" unicode="V" horiz-adv-x="728" 
d="M752 651q27 -50 27 -125q0 -120 -40 -216q-59 -141 -175.5 -259t-216.5 -118q-68 0 -101.5 37.5t-33.5 95.5q0 44 25 99l131 284q22 47 22 98q0 64 -48.5 104.5t-116.5 40.5q-62 0 -112 -41t-50 -103q0 -47 31 -80t79 -33q54 0 72 41q7 19 23 21.5t26 -9.5t4 -29
q-14 -37 -48 -56.5t-77 -19.5q-68 0 -115.5 48t-47.5 118q0 81 65.5 138.5t150.5 57.5t151.5 -55t66.5 -141q0 -55 -30 -119l-131 -286q-18 -39 -18 -79q0 -79 82 -79q86 0 187 105.5t153 234.5q39 99 39 199q0 63 -18 103q-8 17 -2 29.5t21.5 11.5t24.5 -18z" />
    <glyph glyph-name="W" unicode="W" horiz-adv-x="980" 
d="M231 446q8 23 24.5 27t26.5 -10t2 -34q-14 -37 -48 -56.5t-77 -19.5q-67 0 -115 48t-48 118q0 81 65.5 138.5t150.5 57.5t151.5 -55t66.5 -141q0 -57 -30 -121l-117 -255q-18 -41 -18 -78q0 -79 82 -79q77 0 169 89q-1 10 -1 31q0 104 37 211t84.5 170.5t82.5 63.5
q29 0 45.5 -22.5t16.5 -54.5q1 -85 -60 -204t-148 -208q8 -35 31.5 -55t58.5 -20q57 0 104.5 47t77.5 112l165 358q14 30 32.5 59t54.5 59t72 30q19 0 45 -12q17 -8 18.5 -23.5t-10.5 -23t-32 0.5q-12 5 -21 5q-56 0 -111 -120l-165 -355q-88 -190 -233 -190
q-44 0 -78.5 23.5t-51.5 62.5q-98 -87 -183 -87q-68 0 -101.5 37.5t-33.5 95.5q0 46 25 101l116 252q22 47 22 97q0 64 -47.5 105t-116.5 41q-62 0 -112 -41t-50 -103q0 -47 31 -80t79 -33q57 0 72 41zM719 498q-20 0 -52 -50.5t-61 -133t-37 -158.5q-1 -10 0.5 -13t4 -1
t7.5 8q64 79 107 172t43 157q0 19 -12 19z" />
    <glyph glyph-name="X" unicode="X" horiz-adv-x="667" 
d="M20 -33q113 0 340 220l101 99q-2 187 -49.5 281t-147.5 94q-59 0 -108 -39t-49 -97q0 -50 33 -85.5t84 -35.5q57 0 70 39q6 21 21 24t26 -9t6 -30q-10 -38 -43.5 -57t-77.5 -19q-69 0 -120.5 52.5t-51.5 122.5q0 78 63 132.5t146 54.5q229 0 250 -353q1 -13 5 -14.5
t16 9.5q61 61 127 125t102 98l36 34q14 12 28.5 7t16.5 -18.5t-9 -26.5q-160 -154 -319 -309q0 -151 20 -258.5t66.5 -171t117.5 -63.5q54 0 89 28.5t42 62.5q6 26 -9 41q-15 16 -9.5 32t21 18t31.5 -12q13 -14 18.5 -38t1.5 -45q-10 -52 -60.5 -96.5t-130.5 -44.5
q-122 1 -183 126.5t-69 344.5q0 25 -23 2l-43 -43q-235 -235 -375 -236q-55 0 -97 22.5t-55 59.5q-3 11 -0.5 20.5t9.5 14t15 5.5t16 -5t12 -18q6 -20 33.5 -32.5t65.5 -12.5z" />
    <glyph glyph-name="Y" unicode="Y" horiz-adv-x="719" 
d="M411 375l-78 -173q-18 -39 -18 -79q0 -34 21 -57.5t60 -22.5q76 3 131 53.5t84 112.5l148 322q13 28 37 24q21 -3 19 -25q-1 -7 -4 -14l-259 -562q-94 -205 -239 -205q-54 0 -92.5 27.5t-38.5 80.5q0 40 29.5 74.5t76.5 35.5q17 0 23.5 -12.5t0 -25t-23.5 -12.5
q-23 -1 -37.5 -19t-14.5 -43q0 -23 19 -38.5t58 -15.5q48 0 99 46.5t87 116.5l33 65q9 17 1 14l-13 -8q-57 -42 -123 -45q-67 0 -101 37.5t-34 95.5q0 46 25 101l78 173q50 112 11 191.5t-146 79.5q-61 0 -110.5 -42.5t-49.5 -107.5q0 -50 27.5 -84.5t72.5 -34.5
q28 0 50.5 12.5t31.5 34.5q8 20 23.5 22.5t25.5 -9.5t4 -30q-13 -40 -50.5 -61t-84.5 -21q-63 0 -108 50t-45 122q0 83 64.5 142.5t149.5 59.5q134 0 189 -101.5t-9 -244.5z" />
    <glyph glyph-name="Z" unicode="Z" horiz-adv-x="772" 
d="M495 686q51 0 105.5 -13t85 -24.5t81.5 -33.5q62 -30 105 -39q84 95 156 95q40 0 60.5 -19t20.5 -48q0 -35 -42.5 -66.5t-107.5 -31.5q-33 0 -68 7q-68 -78 -204.5 -232t-204.5 -231q-22 -24 -28 -30q40 -34 100 -90q60 -53 102.5 -86.5t104 -73.5t123.5 -60t124 -20
q81 0 139 44.5t58 93.5q0 46 -33 75q-25 21 -7.5 39t40.5 2q54 -36 54 -111q0 -85 -78.5 -141t-173.5 -56q-72 0 -141.5 22t-135 65t-109.5 78.5t-106 92.5l-36 33q-20 18 -67 56q-105 -84 -218 -84q-79 -1 -132.5 30.5t-53.5 86.5q0 60 55 92t123 31q109 0 225 -87l30 34
l370 422q22 21 -4 33l-39 18q-1 1 -2 1q-48 22 -82.5 35.5t-87 25t-103.5 11.5q-65 0 -118.5 -39.5t-53.5 -104.5q0 -48 30.5 -80.5t79.5 -32.5q54 0 72 41q7 19 22 21.5t25.5 -9.5t5.5 -29q-12 -38 -46.5 -57t-78.5 -19q-67 0 -115 48t-48 118q0 83 69 140t158 57zM194 -47
q75 0 154 51q5 3 8 6t4 4.5t0 4t-2 3.5t-4.5 3.5t-5.5 3.5q-88 56 -161 56q-57 0 -90.5 -18.5t-32.5 -49.5q0 -29 39 -46.5t91 -17.5zM1034 617q-41 0 -92 -49q-8 -8 4 -8q30 0 69.5 10t39.5 34q0 13 -21 13z" />
    <glyph glyph-name="bracketleft" unicode="[" horiz-adv-x="275" 
d="M-1 -113l314 702q7 17 27 17h97q24 0 25 -20q1 -21 -20 -29q-6 -3 -14 -3h-71l-292 -655h64q24 0 25 -20t-19 -29l-16 -3h-97q-13 0 -21 12.5t-2 27.5z" />
    <glyph glyph-name="backslash" unicode="\" horiz-adv-x="362" 
d="M225 13l-99 563q-4 19 7.5 29.5t26 5t17.5 -24.5l100 -561q5 -19 -6.5 -29.5t-26.5 -5.5t-19 23z" />
    <glyph glyph-name="bracketright" unicode="]" horiz-adv-x="275" 
d="M398 566l-314 -702q-7 -17 -27 -17h-97q-24 0 -25 20q-1 21 20 29l14 3h71l292 655h-64q-24 0 -25 20t19 29q8 3 16 3h97q13 0 21 -12.5t2 -27.5z" />
    <glyph glyph-name="asciicircum" unicode="^" horiz-adv-x="409" 
d="M302 371l59 -189q6 -17 -4 -28t-24 -7.5t-19 19.5l-45 147l-142 -162q-13 -16 -28.5 -13t-19 17t6.5 29q29 35 172 193q10 9 24.5 8.5t19.5 -14.5z" />
    <glyph glyph-name="underscore" unicode="_" horiz-adv-x="349" 
d="M67 -29q-17 0 -24 13t0 26t24 13h179q17 0 24.5 -13t0 -26t-24.5 -13h-179z" />
    <glyph glyph-name="grave" unicode="`" horiz-adv-x="330" 
d="M309 464l-101 98q-14 12 -10 27t17.5 18t28.5 -9l97 -96l-1 1q14 -11 11.5 -27t-15 -20t-27.5 8z" />
    <glyph glyph-name="a" unicode="a" 
d="M214 -12q-55 0 -74 35q-33 -35 -77 -35q-41 0 -64.5 19.5t-23.5 56.5q0 26 14 56l75 158q53 109 129 109q20 0 38.5 -8.5t25.5 -23.5q9 24 32 22q19 -3 19 -22q0 -5 -2 -11l-111 -245q-10 -21 -10 -36q0 -23 29 -23q16 0 29.5 8t25.5 25t15.5 24t11.5 22q12 22 34.5 13.5
t13.5 -32.5q-17 -40 -52 -76t-78 -36zM63 40q25 0 45 21.5t31 46.5l79 168q7 14 8 27t-7 22.5t-26 9.5q-16 0 -30 -8.5t-25.5 -26.5t-15 -24.5t-12.5 -24.5l-72 -154q-11 -19 -5.5 -38t30.5 -19z" />
    <glyph glyph-name="b" unicode="b" horiz-adv-x="275" 
d="M69 294l135 295q8 17 25 20t24.5 -8.5t-0.5 -32.5l-96 -195q25 15 49 15q34 0 53.5 -21t19.5 -56q0 -27 -15 -57l-74 -157q-49 -109 -129 -109q-40 0 -63 21t-23 57q0 24 14 54zM109 257l-74 -165q-9 -20 -2.5 -36t28.5 -16q44 0 83 82l72 156q25 57 -21 57
q-28 0 -50.5 -25t-35.5 -53zM182 -12q-15 0 -21.5 13t0 26t21.5 13q16 0 29.5 8t25.5 25t15.5 24t11.5 22q12 22 34.5 13.5t13.5 -32.5q-17 -40 -52 -76t-78 -36z" />
    <glyph glyph-name="c" unicode="c" horiz-adv-x="231" 
d="M185 387q37 0 59.5 -18.5t22.5 -50.5q0 -28 -18 -65q-13 -26 -38 -21q-21 4 -20 25q0 7 5 16q14 28 14 45t-25 17q-19 0 -36 -16t-23.5 -28.5t-18.5 -37.5l-52 -110q-14 -29 -14 -53q0 -50 60 -50q39 0 71.5 26t48.5 55q13 23 34.5 13.5t11.5 -34.5q-19 -45 -65.5 -78.5
t-100.5 -33.5q-52 0 -84.5 25t-32.5 72q0 32 22 79l54 114q51 109 125 109z" />
    <glyph glyph-name="d" unicode="d" 
d="M411 568l-216 -469q-6 -14 -8.5 -26t3.5 -22.5t24 -10.5q16 0 29.5 8t25.5 25t15.5 24t11.5 22q12 22 34.5 13.5t13.5 -32.5q-17 -40 -52 -76t-78 -36q-27 0 -45 9v-1q-9 5 -16 10q-9 7 -13 17q-33 -35 -77 -35q-41 0 -64.5 19.5t-23.5 56.5q0 26 14 56l75 158
q53 109 129 109q45 0 62 -29l107 231q8 17 25 20t24.5 -8.5t-0.5 -32.5zM146 121l66 143l10 22q8 17 1 33t-30 16q-16 0 -30 -8.5t-25.5 -26.5t-15 -24.5t-12.5 -24.5l-72 -154q-11 -19 -5.5 -38t30.5 -19q47 0 83 81z" />
    <glyph glyph-name="e" unicode="e" horiz-adv-x="232" 
d="M186 387q37 0 57 -18t20 -50q0 -22 -8 -43q-45 -119 -141 -119q-9 0 -29 4q-20 6 -27 -12q-16 -41 -16 -59q0 -48 60 -50q39 0 71.5 26t48.5 55q9 17 24 18.5t23 -11t0 -28.5q-22 -45 -68 -78.5t-99 -33.5q-52 0 -84.5 25t-32.5 72q0 32 22 79l54 114q51 109 125 109z
M197 281q21 50 -11 54q-40 6 -72 -68l-13 -29q-10 -26 20 -26q47 0 76 69z" />
    <glyph glyph-name="f" unicode="f" horiz-adv-x="156" 
d="M203 330h-40q-20 0 -28 -18q-21 -47 -82 -178.5t-89 -194.5q-93 -206 -239 -206q-65 0 -98 31.5t-33 77.5q0 39 30 74t78 36q21 0 29 -13t-1 -26t-28 -13q-25 -2 -39.5 -20t-14.5 -38q0 -24 18.5 -40.5t58.5 -16.5q52 0 102 43t84 119l167 365q8 18 -12 18h-2
q-22 1 -22 21q-1 20 20 29q7 2 14 2h14q21 0 29 18l35 75q45 96 106.5 154t135.5 58q65 0 98 -31.5t33 -77.5q0 -39 -30 -74t-78 -36q-18 0 -24.5 13t1 26t23.5 13q25 2 39.5 20t14.5 38q0 24 -18.5 40.5t-58.5 16.5q-49 0 -100 -45t-86 -119l-33 -71q-8 -18 11 -18h24
q23 0 24 -20q2 -21 -19 -29q-6 -3 -14 -3z" />
    <glyph glyph-name="g" unicode="g" horiz-adv-x="291" 
d="M-128 -31q17 0 24 -13t0 -26t-24 -13q-25 -2 -39.5 -20t-14.5 -38q0 -24 18.5 -40.5t58.5 -16.5q51 0 105.5 52.5t89.5 134.5l6 14q-14 -15 -33 -15q-41 0 -64.5 19.5t-23.5 56.5q0 19 14 56l75 158q49 109 129 109q47 0 64 -31q6 14 21 19.5t24.5 -3t3.5 -28.5l-40 -88
l-132 -289q-100 -217 -239 -217q-65 0 -98 31.5t-33 77.5q0 39 30 74t78 36zM63 40q46 0 82 79l72 157q8 17 8 28q0 31 -32 31q-46 0 -83 -84l-72 -154q-9 -22 -9 -33q0 -24 34 -24zM198 -12q-16 0 -22 13t1 26t21 13q16 0 29.5 8t25.5 25t15.5 24t11.5 22q12 22 34.5 13.5
t13.5 -32.5q-17 -40 -52 -76t-78 -36z" />
    <glyph glyph-name="h" unicode="h" horiz-adv-x="305" 
d="M-11 119l216 470q8 17 25 20t24.5 -8.5t-0.5 -32.5l-99 -201q25 21 50 21q35 0 55 -21t20 -56q0 -27 -15 -57l-73 -156q-9 -20 -9 -35q0 -23 29 -23q16 0 29.5 8t25.5 25t15.5 24t11.5 22q12 22 34.5 13.5t13.5 -32.5q-17 -40 -52 -76t-78 -36q-83 0 -83 75q0 26 15 58
l73 157q9 22 9 33q0 24 -34 24q-25 0 -45.5 -21t-31.5 -45l-77 -170q-7 -16 -17.5 -32.5t-27 -35.5t-39.5 -31t-48 -12q-16 0 -22 13t1 26t21 13q46 0 83 79z" />
    <glyph glyph-name="i" unicode="i" horiz-adv-x="150" 
d="M57 -12q-83 0 -83 75q0 23 14 56l111 245q7 16 22.5 18t25.5 -10t2 -28l-112 -244q-11 -17 -8 -38.5t28 -21.5q43 0 82 79q12 22 34.5 13.5t13.5 -32.5q-17 -40 -52 -76t-78 -36zM222 471q-3 -17 -16.5 -28.5t-30.5 -11.5q-19 0 -29.5 13t-7.5 31q3 17 16.5 29t29.5 12
q19 0 30.5 -13.5t7.5 -31.5z" />
    <glyph glyph-name="j" unicode="j" horiz-adv-x="135" 
d="M150 344l-172 -376q-94 -218 -239 -218q-65 0 -98 31.5t-33 77.5q0 39 30 74t78 36q18 0 25 -13t-0.5 -26t-24.5 -13q-25 -2 -39.5 -20t-14.5 -38q0 -24 18.5 -40.5t58.5 -16.5q52 0 101.5 46.5t83.5 127.5l6 14l171 374q7 16 22.5 18.5t25 -9t1.5 -29.5zM42 -12
q-16 0 -22.5 13t0 26t22.5 13t29.5 8t25.5 25t15.5 24t11.5 22q12 22 34.5 13.5t13.5 -32.5q-17 -40 -52 -76t-78 -36zM223 471q-3 -17 -16.5 -28.5t-30.5 -11.5q-19 0 -29.5 13t-7.5 31q3 17 16.5 29t29.5 12q19 0 30.5 -13.5t7.5 -31.5z" />
    <glyph glyph-name="k" unicode="k" horiz-adv-x="289" 
d="M190 -12q-57 0 -82 34.5t-25 84.5q0 26 8 60q4 14 6.5 16.5t13.5 4.5q39 5 81.5 42t42.5 78q0 27 -28 27q-25 0 -51 -17.5t-41 -49.5l-77 -169q-7 -16 -17.5 -32.5t-27 -35.5t-39.5 -31t-48 -12q-16 0 -22 13t1 26t21 13q46 0 83 79l216 470q8 17 25 20t24.5 -8.5
t-0.5 -32.5l-102 -209q36 28 67 28q34 0 54 -20.5t20 -56.5q0 -50 -42.5 -97.5t-96.5 -70.5q-16 -7 -16 -30q0 -72 52 -72q20 0 41 17t31.5 32t17.5 30q12 22 34.5 13.5t13.5 -32.5q-16 -38 -55.5 -75t-82.5 -37z" />
    <glyph glyph-name="l" unicode="l" horiz-adv-x="151" 
d="M255 568l-216 -469q-6 -14 -8.5 -26t3.5 -22.5t24 -10.5q16 0 29.5 8t25.5 25t15.5 24t11.5 22q12 22 34.5 13.5t13.5 -32.5q-17 -40 -52 -76t-78 -36q-83 0 -83 75q0 26 15 58l216 468q8 17 25 20t24.5 -8.5t-0.5 -32.5z" />
    <glyph glyph-name="m" unicode="m" horiz-adv-x="462" 
d="M268 259l-110 -238q-13 -28 -39 -25q-20 2 -20 20q0 6 4 14l115 246q9 22 9 35q0 24 -29 24q-27 0 -50 -22.5t-33 -45.5l-76 -168q-7 -16 -17.5 -32.5t-27 -35.5t-39.5 -31t-48 -12q-15 0 -21 13t0.5 26t20.5 13q45 0 82 80l113 245q8 18 27 18t22 -20q7 9 22.5 16.5
t30.5 7.5q52 0 70 -39q39 39 82 39q38 0 59.5 -20t21.5 -56q0 -27 -15 -57l-72 -155q-10 -21 -10 -36q0 -23 29 -23q43 0 82 79q12 22 34.5 13.5t13.5 -32.5q-17 -40 -52 -76t-78 -36q-83 0 -83 75q0 26 15 58l73 157q9 22 9 33q0 24 -27 24t-50.5 -23.5t-37.5 -52.5z" />
    <glyph glyph-name="n" unicode="n" horiz-adv-x="306" 
d="M145 121l73 157q9 22 9 33q0 24 -29 24q-27 0 -50 -22.5t-33 -45.5l-76 -168q-7 -16 -17.5 -32.5t-27 -35.5t-39.5 -31t-48 -12q-15 0 -21 13t0.5 26t20.5 13q45 0 82 79l113 246q9 18 26 18q21 0 23 -20q6 8 20 15.5t28 8.5q36 3 59 -18t23 -58q0 -27 -15 -57l-72 -155
q-10 -21 -10 -36q0 -23 29 -23q43 0 82 79q12 22 34.5 13.5t13.5 -32.5q-17 -40 -52 -76t-78 -36q-83 0 -83 75q0 26 15 58z" />
    <glyph glyph-name="o" unicode="o" horiz-adv-x="269" 
d="M63 -12q-41 0 -64.5 19.5t-23.5 56.5q0 26 14 56l75 158q53 109 129 109q41 0 64.5 -19.5t23.5 -56.5q0 -27 -15 -57l-74 -157q-53 -109 -129 -109zM29 64q0 -24 34 -24q44 0 83 82l72 156q25 57 -25 57q-16 0 -30 -8.5t-25.5 -26.5t-15 -24.5t-12.5 -24.5l-72 -154
q-9 -18 -9 -33z" />
    <glyph glyph-name="p" unicode="p" horiz-adv-x="276" 
d="M-171 -227l272 591q13 28 35 23q16 -4 13 -22q0 -2 -1 -4t-1 -4q1 -2 4 2q23 28 53 28q76 0 76 -76q0 -15 -15 -57l-74 -157q-49 -109 -129 -109q-41 0 -64 23q-44 -98 -58 -126v1l-59 -133q-9 -19 -25.5 -22.5t-26 9.5t-0.5 33zM196 335q-26 0 -47.5 -22t-34.5 -49v1
l-82 -181q-9 -16 -1.5 -30t31.5 -14q44 0 83 82l72 156q9 22 9 33q0 24 -30 24zM183 -12q-15 0 -21.5 13t0 26t21.5 13q43 0 82 79q12 22 34.5 13.5t13.5 -32.5q-17 -40 -52 -76t-78 -36z" />
    <glyph glyph-name="q" unicode="q" horiz-adv-x="291" 
d="M306 344l-269 -591q-9 -19 -26 -22.5t-26.5 9.5t0.5 33l111 228v2q-14 -15 -33 -15q-41 0 -64.5 19.5t-23.5 56.5q0 19 14 56l75 158q49 109 129 109q47 0 64 -31q6 14 21 19.5t24.5 -3t3.5 -28.5zM63 40q47 0 80 73l74 163q8 17 8 28q0 31 -32 31q-46 0 -83 -84
l-72 -154q-9 -22 -9 -33q0 -24 34 -24zM198 -12q-16 0 -22 13t1 26t21 13q16 0 29.5 8t25.5 25t15.5 24t11.5 22q12 22 34.5 13.5t13.5 -32.5q-17 -40 -52 -76t-78 -36z" />
    <glyph glyph-name="r" unicode="r" horiz-adv-x="283" 
d="M122 121l75 161q9 22 9 33q0 10 -7 15.5t-16 7t-16.5 7.5t-8.5 17l-122 -264q-11 -24 -35 -14.5t-12 35.5l154 330q7 15 22 17t24.5 -8.5t1.5 -26.5q-12 -22 -2.5 -33.5t26 -14t32.5 -17.5t16 -44q0 -16 -15 -58l-77 -165q-6 -14 -8.5 -26t3.5 -22.5t24 -10.5
q16 0 29.5 8t25.5 25t15.5 24t11.5 22q12 22 34.5 13.5t13.5 -32.5q-17 -40 -52 -76t-78 -36q-83 0 -83 75q0 28 15 58z" />
    <glyph glyph-name="s" unicode="s" horiz-adv-x="253" 
d="M-22 -6q-20 8 -39 29q-10 11 -5 25.5t18 18.5t28 -7q8 -10 24 -16q12 -4 25 -4q45 0 76.5 33t35.5 81q3 37 -18 85q-10 19 -11.5 18.5t-10.5 -18.5q-13 -26 -34.5 -75t-29.5 -65q-8 -17 -23.5 -18.5t-24 10.5t-0.5 29q20 39 134 294q8 18 24.5 21t26 -9t1.5 -32l-5 -11
q-9 -22 -11 -39q-3 -27 18 -92q20 -64 18 -99q-5 -67 -53.5 -117t-115.5 -50q-27 0 -48 8zM160 -12q-16 0 -22.5 13t0 26t22.5 13t29.5 8t25.5 25t15.5 24t11.5 22q12 22 34.5 13.5t13.5 -32.5q-17 -40 -52 -76t-78 -36z" />
    <glyph glyph-name="t" unicode="t" horiz-adv-x="159" 
d="M192 330h-29q-20 0 -28 -18l-96 -213q-10 -23 -4 -41t31 -18q16 0 29.5 8t25.5 25t15.5 24t11.5 22q12 22 34.5 13.5t13.5 -32.5q-16 -37 -51.5 -72.5t-78.5 -39.5q-42 -4 -66.5 16.5t-24.5 58.5q0 23 15 56l89 193q7 18 -4 18q-23 0 -24 20q-1 21 19 29q6 3 14 3h4
q21 0 28 18l38 80q8 17 25 20t24.5 -8.5t-0.5 -32.5l-28 -59q-7 -18 12 -18h14q21 0 23 -20q2 -22 -19 -30z" />
    <glyph glyph-name="u" unicode="u" horiz-adv-x="306" 
d="M150 342l-113 -245q-9 -22 -9 -33q0 -24 34 -24q24 0 46 23t33 48l115 253q7 17 22.5 19.5t25 -9.5t1.5 -30l-111 -245q-10 -21 -10 -36q0 -23 29 -23q43 0 82 79q12 22 34.5 13.5t13.5 -32.5q-17 -40 -52 -76t-78 -36q-55 0 -74 35q-33 -35 -77 -35q-41 0 -64.5 19.5
t-23.5 56.5q0 20 15 55l112 245q8 17 23.5 19t24.5 -10.5t1 -30.5z" />
    <glyph glyph-name="v" unicode="v" horiz-adv-x="273" 
d="M209 121q-23 -49 -63 -91t-91 -42q-38 0 -59.5 19.5t-21.5 56.5q0 20 15 55l112 245q13 25 37 19q21 -5 17 -27q-1 -6 -4 -12l-113 -247q-9 -22 -9 -33q0 -24 26 -24q61 0 100 89l37 86q27 64 27 93q0 18 -8 32q-14 23 8 36.5t36 -6.5q17 -25 17 -61q0 -32 -13.5 -70
t-49.5 -118z" />
    <glyph glyph-name="w" unicode="w" horiz-adv-x="427" 
d="M365 121q-18 -47 -60.5 -90t-94.5 -43q-53 0 -72 39q-45 -39 -84 -39q-38 0 -59 19.5t-21 56.5q0 20 15 55l112 245q7 17 22.5 20.5t25 -8t1.5 -32.5l-113 -247q-9 -22 -9 -33q0 -24 26 -24q27 0 51.5 24t37.5 52l113 248q8 17 23.5 19t25 -10.5t1.5 -29.5l-111 -241
q-11 -24 -11 -38q0 -24 26 -24q32 0 61 32t39 57l37 86q27 64 27 93q0 19 -8 32q-10 17 -3 31t21 13.5t26 -14.5q17 -25 17 -61q0 -50 -36 -130z" />
    <glyph glyph-name="x" unicode="x" horiz-adv-x="400" 
d="M225 40q9 0 16.5 2.5t13 6t11.5 10.5t9.5 11.5t7.5 13.5t5.5 13t4.5 12.5t4 9.5q5 15 19 16.5t24 -9t5 -26.5q-13 -42 -46 -77t-78 -35q-59 0 -75 54q-46 -54 -90 -54q-38 0 -60 19.5t-22 56.5q0 22 14 55q9 16 23.5 16.5t23 -11.5t1.5 -26q-8 -18 -8 -34q0 -24 24 -24
q50 0 111 141l12 28q55 130 -8 130q-22 0 -44.5 -28t-19.5 -74q1 -18 -7.5 -28.5t-20.5 -10.5q-13 0 -21.5 11t-8.5 28q0 40 12 66q37 86 110 88q71 1 83 -54q45 54 90 54q37 0 57.5 -19.5t20.5 -56.5q0 -22 -14 -55q-9 -16 -23.5 -16.5t-23 11.5t-1.5 26q8 18 8 34
q0 24 -24 24t-53.5 -36t-55.5 -99l-13 -32q-6 -14 -11 -33.5t-8.5 -43t3 -39.5t23.5 -16z" />
    <glyph glyph-name="y" unicode="y" horiz-adv-x="291" 
d="M-10 119l112 245q7 16 23 18.5t25 -9t1 -29.5l-113 -247q-9 -22 -9 -33q0 -24 34 -24q43 0 83 80v-1l111 245q7 16 23 18.5t25 -9t1 -29.5l-172 -376q-94 -218 -239 -218q-65 0 -98 31.5t-33 77.5q0 39 30 74t78 36q18 0 25 -13t-0.5 -26t-24.5 -13q-25 -2 -39.5 -20
t-14.5 -38q0 -24 18.5 -40.5t58.5 -16.5q52 0 101.5 46.5t83.5 127.5l6 14q-14 -2 -23 -2q-41 0 -64.5 19.5t-23.5 56.5q0 27 15 56v-1zM198 -12q-16 0 -22.5 13t0 26t22.5 13t29.5 8t25.5 25t15.5 24t11.5 22q12 22 34.5 13.5t13.5 -32.5q-17 -40 -52 -76t-78 -36z" />
    <glyph glyph-name="z" unicode="z" horiz-adv-x="299" 
d="M206 -12q-8 0 -14 6q-30 -97 -110.5 -176.5t-169.5 -79.5q-65 0 -98 31.5t-33 77.5q0 39 30 74t78 36q19 0 26.5 -13t-0.5 -26t-26 -13q-25 -2 -39.5 -20t-14.5 -38q0 -24 18.5 -40.5t58.5 -16.5q56 0 112.5 47.5t90.5 112t34 115.5q0 65 -33 65q-10 0 -16 4.5t-4 17
t17 30.5l122 144h-40q-20 0 -42 13q-6 -13 -27 -54.5t-31 -63.5l-60 -126q-16 -26 -39 -16t-7 41l147 306q9 18 25.5 19.5t23.5 -10.5t-1 -32q-5 -13 -1 -19t12 -6l85 2q31 0 37.5 -18.5t-11.5 -35.5q-57 -67 -137 -158q36 -23 36 -101q0 -8 -2 -28q1 0 3 1q16 0 29.5 8
t25.5 25t15.5 24t11.5 22q12 22 34.5 13.5t13.5 -32.5q-17 -40 -52 -76t-78 -36z" />
    <glyph glyph-name="braceleft" unicode="{" horiz-adv-x="309" 
d="M162 -115q12 -2 18.5 -12t5.5 -20t-10.5 -17t-23.5 -5q-32 5 -60.5 50t-25.5 107q6 61 58 159v-1q31 62 32 74q0 16 -16 21q-19 6 -23 22t9 26t34 3q34 -12 62 58q20 48 44.5 90.5t60 84.5t82.5 66.5t100 24.5q33 0 65 -17q17 -8 16.5 -24t-14 -22.5t-30.5 0.5
q-17 9 -39 9q-73 0 -134.5 -65.5t-101.5 -164.5q-27 -64 -67 -81q7 -16 6 -31q-2 -28 -38 -91h1q-49 -89 -53 -139q-2 -42 12 -72t30 -33z" />
    <glyph glyph-name="bar" unicode="|" horiz-adv-x="235" 
d="M341 567l-249 -556q-15 -27 -39 -22q-21 5 -18 27q1 7 5 14l251 559q9 18 26 20.5t24.5 -10t-0.5 -32.5z" />
    <glyph glyph-name="braceright" unicode="}" horiz-adv-x="360" 
d="M223 556q-12 2 -18.5 12t-5.5 20t10.5 17t23.5 5q32 -5 60.5 -50t25.5 -107q-5 -57 -58 -158q-31 -58 -32 -74q0 -16 16 -21q19 -6 23 -22t-9 -26t-34 -3q-34 12 -62 -58q-20 -48 -44.5 -90.5t-60 -84.5t-82.5 -66.5t-100 -24.5q-33 0 -65 17q-17 8 -16.5 24t14 22.5
t30.5 -0.5q17 -9 39 -9q73 0 134.5 65.5t101.5 164.5q27 64 67 81q-7 16 -6 31q2 24 38 91q48 87 52 139q2 42 -12 72t-30 33z" />
    <glyph glyph-name="asciitilde" unicode="~" horiz-adv-x="897" 
d="M144 142q-8 -18 -24 -21.5t-25.5 9t-0.5 33.5q28 64 89 104.5t129 40.5q32 0 64 -12t49.5 -23.5t49.5 -35.5q43 -32 79 -49t79 -17q50 0 93.5 27.5t61.5 69.5q8 18 23.5 20t25 -11t1.5 -32q-26 -54 -85 -91t-119 -37q-92 0 -189 75q-27 20 -43.5 31t-41.5 21t-48 10
q-52 0 -99.5 -31t-68.5 -81z" />
    <glyph glyph-name="exclamdown" unicode="&#xa1;" horiz-adv-x="249" 
d="M175 340q3 19 19 32t35 13q20 0 31.5 -15t8.5 -34t-18.5 -32.5t-33.5 -13.5q-21 0 -33.5 14.5t-8.5 35.5zM-52 -208l195 437q9 20 25 23.5t25 -9t0 -31.5l-197 -440q-7 -16 -22.5 -19t-24.5 8.5t-1 30.5z" />
    <glyph glyph-name="cent" unicode="&#xa2;" horiz-adv-x="581" 
d="M498 570l-8 -17q45 -20 67 -55q15 -24 -2 -43q-16 -18 -33 1q-3 3 -5 7q-18 31 -48 43l-189 -425h9q59 0 114 40q19 12 32 8t13 -20t-17 -29q-67 -51 -142 -51q-14 0 -32 2l-10 -24q-10 -23 -33 -22q-20 2 -21 21q0 8 4 18l11 25q-77 46 -79 156q-2 50 12 98
q33 108 117 185.5t170 77.5h9l10 22q8 15 23 17.5t24.5 -8t3.5 -27.5zM180 205q2 -78 49 -107q30 69 92 207.5t92 207.5q-69 -7 -133 -71.5t-90 -153.5q-10 -33 -10 -83z" />
    <glyph glyph-name="sterling" unicode="&#xa3;" horiz-adv-x="669" 
d="M595 567q-37 0 -70 -19.5t-56 -52t-37.5 -61t-26.5 -59.5q-6 -14 13 -14h22q17 0 24.5 -13t0.5 -26t-25 -13h-45q-19 0 -28 -18l-12 -28q-41 -94 -113 -147q36 -25 56.5 -37.5t55.5 -25.5t69 -13q50 0 81.5 24.5t36.5 56.5q1 25 -18 48q-11 9 -7 21.5t16 17t26 -3.5
q39 -29 34 -87q-6 -50 -51 -88t-119 -38q-42 0 -85 15.5t-66 30t-62 42.5l-16 11q-44 -18 -102 -18q-41 0 -66.5 15t-25.5 44q0 31 27.5 43.5t63.5 11.5q45 0 108 -39q66 34 111 133l5 11q8 18 -12 18h-41q-15 0 -21.5 13t0 26t21.5 13h64q25 0 31 14q13 40 30.5 76t46.5 76
t71 64t91 24q57 0 90.5 -32t34.5 -74q1 -41 -27.5 -72.5t-71.5 -31.5q-56 -1 -79 42q-8 14 -1.5 26t18.5 11t21 -14q9 -17 40 -17q23 0 37.5 16t13.5 38q0 24 -20 42t-56 18zM91 122q23 0 46 3q-32 14 -51 14q-36 0 -36 -7q0 -10 41 -10z" />
    <glyph glyph-name="currency" unicode="&#xa4;" horiz-adv-x="677" 
d="M341 381q44 0 128 -48.5t120 -48.5q46 0 68 31q11 11 21.5 2.5t0.5 -20.5q-31 -41 -90 -41q-46 0 -107 35q-22 13 -49 -8.5t-49 -56.5q13 5 27 5q40 0 64.5 -24t24.5 -62q0 -73 -76.5 -123.5t-177.5 -50.5q-36 0 -70 9q-14 0 -14 15t14 15q4 -1 10 0q18 18 18 55
q0 17 -7.5 57t-7.5 61q0 36 25.5 61t62.5 25q19 0 35 -12t20 -32q1 -8 -3.5 -12.5t-10.5 -3.5t-8 7q-7 23 -33 23q-25 0 -41.5 -16t-16.5 -40q0 -18 6 -58.5t6 -60.5q0 -15 -3 -30q-5 -27 -3 -30t21 -3q90 0 157 41.5t67 102.5q0 26 -16.5 41.5t-44.5 15.5t-45 -14
q-14 -11 -20 5q-5 18 8 40q38 59 73 77q10 7 10 8.5t-9 6.5q-51 28 -85 28q-51 0 -82 -33q-12 -13 -23.5 -4t1.5 22q43 43 104 43z" />
    <glyph glyph-name="yen" unicode="&#xa5;" horiz-adv-x="456" 
d="M127 198q-17 0 -24 13t0 26t24 13l62 2l-47 279q-3 17 9.5 27t27.5 6.5t17 -19.5l36 -243q3 -20 17 -6l231 251q24 23 46 9q20 -13 7 -35l-8 -10l-257 -261h38q17 0 24.5 -13t0.5 -26t-25 -13h-56q-19 0 -28 -18l-4 -11h51q12 0 20 -8t8 -18t-8 -18t-20 -8h-54
q-20 0 -28 -18l-45 -100q-7 -14 -31 -4t-19 26q7 15 19 41.5t16 36.5q8 18 -12 18h-25q-11 0 -18 8t-7 18t7 18t18 8h68l5 11q8 18 -12 18h-24z" />
    <glyph glyph-name="brokenbar" unicode="&#xa6;" horiz-adv-x="235" 
d="M353 597l-115 -259q-9 -20 -25.5 -23.5t-26 9.5t-0.5 33l117 262q9 20 26 23.5t24.5 -9.5t-0.5 -36zM198 249l-115 -259q-9 -21 -26.5 -25t-25.5 9t0 35l117 262q8 18 24 20t25 -11t1 -31z" />
    <glyph glyph-name="section" unicode="&#xa7;" horiz-adv-x="677" 
d="M341 381q44 0 128 -48.5t120 -48.5q46 0 68 31q11 11 21.5 2.5t0.5 -20.5q-31 -41 -90 -41q-46 0 -107 35q-22 13 -49 -8.5t-49 -56.5q13 5 27 5q40 0 64.5 -24t24.5 -62q0 -73 -76.5 -123.5t-177.5 -50.5q-36 0 -70 9q-14 0 -14 15t14 15q4 -1 10 0q18 18 18 55
q0 17 -7.5 57t-7.5 61q0 36 25.5 61t62.5 25q19 0 35 -12t20 -32q1 -8 -3.5 -12.5t-10.5 -3.5t-8 7q-7 23 -33 23q-25 0 -41.5 -16t-16.5 -40q0 -18 6 -58.5t6 -60.5q0 -15 -3 -30q-5 -27 -3 -30t21 -3q90 0 157 41.5t67 102.5q0 26 -16.5 41.5t-44.5 15.5t-45 -14
q-14 -11 -20 5q-5 18 8 40q38 59 73 77q10 7 10 8.5t-9 6.5q-51 28 -85 28q-51 0 -82 -33q-12 -13 -23.5 -4t1.5 22q43 43 104 43z" />
    <glyph glyph-name="dieresis" unicode="&#xa8;" horiz-adv-x="151" 
d="M174 457q-3 -16 -15.5 -26.5t-28.5 -10.5q-18 0 -27.5 12t-6.5 29q2 15 15 26.5t28 11.5q17 0 27.5 -13t7.5 -29zM274 457q-3 -16 -15.5 -26.5t-28.5 -10.5q-18 0 -27.5 12t-6.5 29q2 15 15 26.5t28 11.5q17 0 27.5 -13t7.5 -29z" />
    <glyph glyph-name="copyright" unicode="&#xa9;" horiz-adv-x="506" 
d="M91 292q0 81 57 138t138 57t138 -57t57 -138t-57 -138t-138 -57t-138 57t-57 138zM145 292q0 -58 41.5 -99.5t99.5 -41.5t99.5 41.5t41.5 99.5t-41.5 99.5t-99.5 41.5t-99.5 -41.5t-41.5 -99.5zM186 295q0 49 30 82t74 33q31 0 62 -22q15 -10 13 -26t-14.5 -21.5
t-27.5 3.5q-18 12 -33 12q-21 0 -35.5 -17.5t-14.5 -43.5t14.5 -43.5t35.5 -17.5q18 0 33 12q14 11 28.5 5t15 -20.5t-14.5 -28.5q-27 -22 -62 -22q-44 0 -74 33t-30 82z" />
    <glyph glyph-name="ordfeminine" unicode="&#xaa;" 
d="M274 285q-50 0 -62 37q-20 -32 -57 -37q-34 -4 -54 14t-20 51q0 23 11 46l58 125q9 19 20.5 36.5t35.5 35t51 17.5q29 0 47 -18q14 18 34.5 7.5t10.5 -31.5l-88 -193q-8 -18 -8 -26q0 -14 21 -14q31 0 65 61q7 13 21.5 14.5t22.5 -9t0 -26.5q-16 -33 -45 -61.5t-64 -28.5
zM155 335q30 0 54 50l65 141q6 10 2.5 22t-19.5 12q-31 0 -57 -54l-61 -128q-7 -14 -7 -26q0 -17 23 -17z" />
    <glyph glyph-name="guillemotleft" unicode="&#xab;" horiz-adv-x="498" 
d="M181 201q0 -4 8 -12l54 -54q15 -12 11 -28q-5 -26 -26 -26q-9 0 -18 6l-77 77q-21 17 -21 37q0 19 21 37l82 82q9 6 18 6q21 0 26 -26q4 -18 -11 -28l-59 -59q-8 -8 -8 -12zM319 201q0 -4 8 -12l54 -54q15 -12 11 -28q-5 -26 -26 -26q-9 0 -18 6l-77 77q-21 17 -21 37
q0 19 21 37l82 82q9 6 18 6q21 0 26 -26q4 -18 -11 -28l-59 -59q-8 -8 -8 -12z" />
    <glyph glyph-name="logicalnot" unicode="&#xac;" horiz-adv-x="677" 
d="M341 381q44 0 128 -48.5t120 -48.5q46 0 68 31q11 11 21.5 2.5t0.5 -20.5q-31 -41 -90 -41q-46 0 -107 35q-22 13 -49 -8.5t-49 -56.5q13 5 27 5q40 0 64.5 -24t24.5 -62q0 -73 -76.5 -123.5t-177.5 -50.5q-36 0 -70 9q-14 0 -14 15t14 15q4 -1 10 0q18 18 18 55
q0 17 -7.5 57t-7.5 61q0 36 25.5 61t62.5 25q19 0 35 -12t20 -32q1 -8 -3.5 -12.5t-10.5 -3.5t-8 7q-7 23 -33 23q-25 0 -41.5 -16t-16.5 -40q0 -18 6 -58.5t6 -60.5q0 -15 -3 -30q-5 -27 -3 -30t21 -3q90 0 157 41.5t67 102.5q0 26 -16.5 41.5t-44.5 15.5t-45 -14
q-14 -11 -20 5q-5 18 8 40q38 59 73 77q10 7 10 8.5t-9 6.5q-51 28 -85 28q-51 0 -82 -33q-12 -13 -23.5 -4t1.5 22q43 43 104 43z" />
    <glyph glyph-name="uni00AD" unicode="&#xad;" horiz-adv-x="327" 
d="M84 210q-15 0 -15 14t15 14h179q10 0 14.5 -7t0 -14t-14.5 -7h-179z" />
    <glyph glyph-name="registered" unicode="&#xae;" horiz-adv-x="506" 
d="M103 292q0 76 53.5 129.5t129.5 53.5t129.5 -53.5t53.5 -129.5t-53.5 -129.5t-129.5 -53.5t-129.5 53.5t-53.5 129.5zM133 292q0 -64 44.5 -108.5t108.5 -44.5t108.5 44.5t44.5 108.5t-44.5 108.5t-108.5 44.5t-108.5 -44.5t-44.5 -108.5zM247 208q0 -13 -15 -12.5
t-15 12.5v172q20 20 61 20q37 0 57 -20.5t20 -48.5q0 -23 -13 -40t-37 -23q13 -46 34 -46q8 0 13 3q14 8 18.5 -7.5t-9.5 -20.5q-13 -5 -22 -5q-43 0 -65 74q-4 0 -7 1q-13 0 -12.5 15t12.5 15q5 -1 16 -1q20 0 31 10t11 25q0 16 -12.5 27.5t-34.5 11.5q-18 0 -31 -5v-157z
" />
    <glyph glyph-name="macron" unicode="&#xaf;" horiz-adv-x="272" 
d="M138 436q-16 0 -22.5 13t0 26t22.5 13h174q17 0 23.5 -13t0 -26t-23.5 -13h-174z" />
    <glyph glyph-name="degree" unicode="&#xb0;" horiz-adv-x="267" 
d="M113 501q0 36 29.5 65t68.5 29q27 0 44 -17.5t17 -44.5q0 -37 -30.5 -65.5t-65.5 -28.5q-27 0 -45 18t-18 44zM205 565q-23 0 -41.5 -17.5t-18.5 -42.5q0 -16 10 -26t27 -10q22 0 40.5 17t18.5 40q0 17 -10 28t-26 11z" />
    <glyph glyph-name="plusminus" unicode="&#xb1;" horiz-adv-x="405" 
d="M259 338q8 17 23 19t23.5 -10t0.5 -30l-21 -49q-9 -18 12 -18h60q17 0 24 -13t0 -26t-24 -13h-83q-19 0 -28 -18l-35 -81q-8 -17 -23.5 -19.5t-24.5 9t0 30.5l26 61q9 18 -12 18h-58q-12 0 -19.5 8t-7.5 18t7.5 18t19.5 8h81q20 0 28 18zM47 -19q-17 0 -24 13t0 26t24 13
h226q17 0 24.5 -13t0 -26t-24.5 -13h-226z" />
    <glyph glyph-name="twosuperior" unicode="&#xb2;" horiz-adv-x="493" 
d="M148 256q-18 0 -25.5 13.5t0 27t25.5 13.5h9q61 2 133.5 40t123.5 94t51 104q0 35 -22 57.5t-62 22.5q-46 0 -75.5 -28.5t-29.5 -63.5q0 -26 14 -46q13 -14 8.5 -29.5t-18.5 -18t-28 8.5q-30 35 -30 80q0 58 45 104.5t117 46.5q58 0 96 -37.5t38 -94.5
q0 -61 -55.5 -124.5t-135.5 -104.5q-10 -5 -6 -9q1 -2 5 -2h109q19 0 26.5 -13.5t0 -27t-26.5 -13.5h-287z" />
    <glyph glyph-name="threesuperior" unicode="&#xb3;" horiz-adv-x="412" 
d="M252 509q16 -18 -3 -33q-19 -17 -37 -2l-6 6q-27 30 -27 70q0 55 45.5 96.5t113.5 41.5q65 0 101.5 -40t36.5 -88q0 -57 -39.5 -111t-108.5 -78q2 -2 -2 -2h-4q-3 -1 -3 -2q21 -13 35 -39.5t14 -53.5q0 -80 -80.5 -150t-187.5 -70q-43 0 -75 12q-24 8 -20.5 32.5
t32.5 19.5q42 -10 64 -10q83 0 148 52.5t65 113.5q0 33 -23.5 56t-59.5 25q-17 0 -24 13t0 26t24 13q84 0 138 48.5t54 104.5q0 27 -22 51t-63 24q-46 0 -76.5 -26.5t-30.5 -57.5q0 -23 21 -42z" />
    <glyph glyph-name="acute" unicode="&#xb4;" horiz-adv-x="258" 
d="M215 464q-16 -11 -29.5 -4.5t-13.5 21t14 26.5l139 98q16 12 30 5.5t13.5 -21t-15.5 -27.5h1z" />
    <glyph glyph-name="mu" unicode="&#xb5;" 
d="M150 342l-113 -245q-9 -22 -9 -33q0 -24 34 -24q24 0 46 23t33 48l115 253q7 17 22.5 19.5t25 -9.5t1.5 -30l-111 -245q-10 -21 -10 -36q0 -23 29 -23q43 0 82 79q12 22 34.5 13.5t13.5 -32.5q-17 -40 -52 -76t-78 -36q-55 0 -74 35q-33 -35 -77 -35q-32 0 -54 15
q-10 7 -17 -7l-66 -142q-11 -23 -35 -18q-21 4 -19 23q0 5 3 11l115 249l112 245q8 17 23.5 19t24.5 -10.5t1 -30.5z" />
    <glyph glyph-name="mu" unicode="&#x3bc;" 
d="M150 342l-113 -245q-9 -22 -9 -33q0 -24 34 -24q24 0 46 23t33 48l115 253q7 17 22.5 19.5t25 -9.5t1.5 -30l-111 -245q-10 -21 -10 -36q0 -23 29 -23q43 0 82 79q12 22 34.5 13.5t13.5 -32.5q-17 -40 -52 -76t-78 -36q-55 0 -74 35q-33 -35 -77 -35q-32 0 -54 15
q-10 7 -17 -7l-66 -142q-11 -23 -35 -18q-21 4 -19 23q0 5 3 11l115 249l112 245q8 17 23.5 19t24.5 -10.5t1 -30.5z" />
    <glyph glyph-name="paragraph" unicode="&#xb6;" horiz-adv-x="677" 
d="M341 381q44 0 128 -48.5t120 -48.5q46 0 68 31q11 11 21.5 2.5t0.5 -20.5q-31 -41 -90 -41q-46 0 -107 35q-22 13 -49 -8.5t-49 -56.5q13 5 27 5q40 0 64.5 -24t24.5 -62q0 -73 -76.5 -123.5t-177.5 -50.5q-36 0 -70 9q-14 0 -14 15t14 15q4 -1 10 0q18 18 18 55
q0 17 -7.5 57t-7.5 61q0 36 25.5 61t62.5 25q19 0 35 -12t20 -32q1 -8 -3.5 -12.5t-10.5 -3.5t-8 7q-7 23 -33 23q-25 0 -41.5 -16t-16.5 -40q0 -18 6 -58.5t6 -60.5q0 -15 -3 -30q-5 -27 -3 -30t21 -3q90 0 157 41.5t67 102.5q0 26 -16.5 41.5t-44.5 15.5t-45 -14
q-14 -11 -20 5q-5 18 8 40q38 59 73 77q10 7 10 8.5t-9 6.5q-51 28 -85 28q-51 0 -82 -33q-12 -13 -23.5 -4t1.5 22q43 43 104 43z" />
    <glyph glyph-name="periodcentered" unicode="&#xb7;" horiz-adv-x="193" 
d="M168 211q-3 -16 -15.5 -26.5t-28.5 -10.5q-18 0 -27 12t-7 29q3 15 15.5 26.5t27.5 11.5q17 0 27.5 -13t7.5 -29z" />
    <glyph glyph-name="cedilla" unicode="&#xb8;" horiz-adv-x="232" 
d="M24 21q9 19 27 19q10 0 18.5 -7.5t8.5 -17.5q0 -6 -5.5 -16t-5.5 -16q0 -13 11 -37t11 -39q0 -33 -23.5 -56.5t-56.5 -23.5q-19 0 -37.5 9t-18.5 26q0 11 7 19.5t19 8.5q6 0 16 -4.5t14 -4.5q11 0 18.5 7.5t7.5 18.5q0 13 -11 36.5t-11 37.5q0 16 11 40z" />
    <glyph glyph-name="onesuperior" unicode="&#xb9;" horiz-adv-x="295" 
d="M250 614q29 60 72 60q17 0 28.5 -12.5t11.5 -28.5q0 -27 -30 -64q-28 -37 -78 -72q-15 -33 -47 -101t-47 -101q-8 -11 -23 -11q-11 0 -19 6.5t-8 15.5q0 4 2 10l67 144q-20 -4 -29 -4t-15.5 7.5t-6.5 17.5q0 24 22 28q34 7 61 22z" />
    <glyph glyph-name="ordmasculine" unicode="&#xba;" horiz-adv-x="685" 
d="M48 481q29 79 93.5 135t128.5 56q58 0 90 -37.5t32 -100.5q0 -94 -74.5 -180.5t-163.5 -86.5q-55 0 -87.5 36t-32.5 96q0 44 14 82zM99 463q-10 -29 -10 -64q0 -34 18 -55t48 -21q67 0 124.5 69.5t57.5 138.5q0 38 -18 62t-50 24q-49 0 -98.5 -45t-71.5 -109z" />
    <glyph glyph-name="guillemotright" unicode="&#xbb;" horiz-adv-x="463" 
d="M399 201q0 -19 -21 -37l-82 -82q-9 -6 -18 -6q-21 0 -26 26q-4 16 11 28l59 59q8 8 8 12t-8 12l-59 59q-15 10 -11 28q5 26 26 26q9 0 18 -6l82 -82q21 -18 21 -37zM261 201q0 -19 -21 -37l-82 -82q-9 -6 -18 -6q-21 0 -26 26q-4 16 11 28l59 59q8 8 8 12t-8 12l-59 59
q-15 10 -11 28q5 26 26 26q9 0 18 -6l82 -82q21 -18 21 -37z" />
    <glyph glyph-name="onequarter" unicode="&#xbc;" horiz-adv-x="734" 
d="M531 344q0 -81 -49 -163.5t-111 -136.5h59q21 0 28 18l124 266q8 15 24 17t26 -10t2 -29l-122 -262h17q32 0 32 -30q0 -11 -9 -19t-25 -8h-24q-19 0 -28 -18l-33 -77q-8 -16 -24.5 -17t-24 11t0.5 31l23 52q8 18 -12 18h-104q-25 0 -29 23.5t18 38.5q66 44 125 129
t59 160q0 14 -3 29q-3 12 0.5 21.5t11.5 13.5t16.5 4t17 -7t11.5 -19q3 -9 3 -36zM250 614q29 60 72 60q17 0 28.5 -12.5t11.5 -28.5q0 -27 -30 -64q-28 -37 -78 -72q-15 -33 -47 -101t-47 -101q-8 -11 -23 -11q-11 0 -19 6.5t-8 15.5q0 4 2 10l67 144q-20 -4 -29 -4
t-15.5 7.5t-6.5 17.5q0 24 22 28q34 7 61 22zM506 564l-348 -556q-16 -26 -40 -18q-20 8 -14 30q1 5 5 11l349 558q9 14 26 15t24 -10.5t-2 -29.5z" />
    <glyph glyph-name="onehalf" unicode="&#xbd;" horiz-adv-x="734" 
d="M490 49v-4h70q15 0 24 -9t8 -21q0 -11 -9 -19t-24 -8h-235q-16 0 -24 8.5t-8 20.5q4 28 33 28h19q76 6 165.5 71.5t93.5 123.5q2 24 -15.5 42.5t-44.5 18.5q-36 0 -59.5 -22.5t-25.5 -49.5q-1 -20 11 -40q16 -26 -6 -41.5t-40 6.5q-25 32 -24 71q3 51 44.5 92t103.5 41
q53 0 84.5 -33t28.5 -85q-2 -48 -51.5 -103.5t-118.5 -87.5zM250 614q29 60 72 60q17 0 28.5 -12.5t11.5 -28.5q0 -27 -30 -64q-28 -37 -78 -72q-15 -33 -47 -101t-47 -101q-8 -11 -23 -11q-11 0 -19 6.5t-8 15.5q0 4 2 10l67 144q-20 -4 -29 -4t-15.5 7.5t-6.5 17.5
q0 24 22 28q34 7 61 22zM506 564l-348 -556q-16 -26 -40 -18q-20 8 -14 30q1 5 5 11l349 558q9 14 26 15t24 -10.5t-2 -29.5z" />
    <glyph glyph-name="threequarters" unicode="&#xbe;" horiz-adv-x="853" 
d="M230 452q41 0 71 -19l6 -5q44 18 65.5 55.5t21.5 74.5q0 26 -19.5 49t-58.5 23q-37 0 -61 -21.5t-24 -46.5q0 -16 9 -30q11 -17 2 -32.5t-25 -15.5t-27 19q-14 28 -14 57q0 49 39.5 86.5t100.5 37.5q63 0 99 -39t36 -87t-29.5 -96t-83.5 -76q11 -24 11 -49
q0 -82 -83.5 -154.5t-186.5 -72.5q-46 0 -81 13q-27 14 -17.5 37t40.5 16q27 -8 60 -8q76 0 143 54.5t67 114.5q0 14 -5 27q-25 -5 -50 -5q-28 0 -49.5 12.5t-21.5 39.5q0 17 18 29t47 12zM652 344q0 -81 -49 -163.5t-111 -136.5h59q21 0 28 18l124 266q8 15 24 17t26 -10
t2 -29l-122 -262h17q32 0 32 -30q0 -11 -9 -19t-25 -8h-24q-19 0 -28 -18l-33 -77q-8 -16 -24.5 -17t-24 11t0.5 31l23 52q8 18 -12 18h-104q-25 0 -29 23.5t18 38.5q66 44 125 129t59 160q0 14 -3 29q-3 12 0.5 21.5t11.5 13.5t16.5 4t17 -7t11.5 -19q3 -9 3 -36zM639 564
l-348 -556q-16 -26 -40 -18q-20 8 -14 30q1 5 5 11l349 558q9 14 26 15t24 -10.5t-2 -29.5z" />
    <glyph glyph-name="questiondown" unicode="&#xbf;" horiz-adv-x="400" 
d="M311 341q4 18 19.5 31.5t34.5 13.5q21 0 32 -14.5t8 -34.5q-3 -19 -18.5 -32.5t-33.5 -13.5q-21 0 -33.5 14.5t-8.5 35.5zM228 0q-39 0 -65 -23q-4 -4 -9 -6.5t-9 -2.5t-8.5 1t-8 3.5t-6 5.5t-3.5 7.5t-1 9t2.5 9t6.5 9.5q43 41 102 41q57 0 92 -41.5t35 -100.5
q0 -69 -57 -122t-144 -53q-95 0 -149.5 58.5t-54.5 130.5q0 37 14 69t32 53.5t50.5 44.5t55.5 35t61 30t58 29t43 29t31 35q9 16 24 17t21 -11.5t-2 -33.5q-11 -22 -37.5 -43.5t-48 -33.5t-64.5 -33t-67.5 -34.5t-55.5 -37t-45.5 -52t-14.5 -63.5q0 -49 37.5 -92t111.5 -43
q66 0 107 37.5t41 82.5q0 36 -19.5 62.5t-55.5 26.5z" />
    <glyph glyph-name="Agrave" unicode="&#xc0;" horiz-adv-x="1083" 
d="M1352 667q20 -12 10 -33q-11 -22 -33 -16q-6 2 -12 6q-17 10 -45 12q-53 0 -99.5 -55.5t-79.5 -127.5l-194 -418q-20 -46 -20 -90q0 -56 43 -56q5 0 17 2q21 4 26 -17q5 -23 -16 -34l-10 -3q-12 -2 -20 -2q-48 0 -71 31t-23 79q0 55 26 110l70 150q7 18 -12 18h-142
q-14 0 -23 -4.5t-11.5 -7.5t-8.5 -13q-79 -128 -184.5 -209t-230.5 -81q-120 0 -205 77.5t-85 198.5q0 111 78 193.5t200 82.5q103 0 159 -52t56 -130q0 -68 -52 -113q-15 -13 -30.5 -8.5t-17 19.5t14.5 33q31 28 31 69q0 56 -42 92t-121 36q-97 0 -159.5 -66t-62.5 -156
q0 -95 71.5 -158.5t164.5 -63.5q78 0 157 49t136.5 115.5t104.5 147.5q38 64 79 120t96 111.5t112.5 94.5t128.5 63.5t144 24.5q50 0 85 -21zM1037 457q52 105 96 158q-206 -64 -355 -321q-4 -5 -1.5 -12.5t14.5 -7.5h140q21 0 29 18zM1219 757l-101 98q-14 12 -10 27
t17.5 18t28.5 -9l97 -96l-1 1q14 -11 11.5 -27t-15 -20t-27.5 8z" />
    <glyph glyph-name="Aacute" unicode="&#xc1;" horiz-adv-x="1083" 
d="M1352 667q20 -12 10 -33q-11 -22 -33 -16q-6 2 -12 6q-17 10 -45 12q-53 0 -99.5 -55.5t-79.5 -127.5l-194 -418q-20 -46 -20 -90q0 -56 43 -56q5 0 17 2q21 4 26 -17q5 -23 -16 -34l-10 -3q-12 -2 -20 -2q-48 0 -71 31t-23 79q0 55 26 110l70 150q7 18 -12 18h-142
q-14 0 -23 -4.5t-11.5 -7.5t-8.5 -13q-79 -128 -184.5 -209t-230.5 -81q-120 0 -205 77.5t-85 198.5q0 111 78 193.5t200 82.5q103 0 159 -52t56 -130q0 -68 -52 -113q-15 -13 -30.5 -8.5t-17 19.5t14.5 33q31 28 31 69q0 56 -42 92t-121 36q-97 0 -159.5 -66t-62.5 -156
q0 -95 71.5 -158.5t164.5 -63.5q78 0 157 49t136.5 115.5t104.5 147.5q38 64 79 120t96 111.5t112.5 94.5t128.5 63.5t144 24.5q50 0 85 -21zM1037 457q52 105 96 158q-206 -64 -355 -321q-4 -5 -1.5 -12.5t14.5 -7.5h140q21 0 29 18zM1181 757q-16 -11 -29.5 -4.5t-13.5 21
t14 26.5l139 98q16 12 30 5.5t13.5 -21t-15.5 -27.5h1z" />
    <glyph glyph-name="Acircumflex" unicode="&#xc2;" horiz-adv-x="1083" 
d="M1352 667q20 -12 10 -33q-11 -22 -33 -16q-6 2 -12 6q-17 10 -45 12q-53 0 -99.5 -55.5t-79.5 -127.5l-194 -418q-20 -46 -20 -90q0 -56 43 -56q5 0 17 2q21 4 26 -17q5 -23 -16 -34l-10 -3q-12 -2 -20 -2q-48 0 -71 31t-23 79q0 55 26 110l70 150q7 18 -12 18h-142
q-14 0 -23 -4.5t-11.5 -7.5t-8.5 -13q-79 -128 -184.5 -209t-230.5 -81q-120 0 -205 77.5t-85 198.5q0 111 78 193.5t200 82.5q103 0 159 -52t56 -130q0 -68 -52 -113q-15 -13 -30.5 -8.5t-17 19.5t14.5 33q31 28 31 69q0 56 -42 92t-121 36q-97 0 -159.5 -66t-62.5 -156
q0 -95 71.5 -158.5t164.5 -63.5q78 0 157 49t136.5 115.5t104.5 147.5q38 64 79 120t96 111.5t112.5 94.5t128.5 63.5t144 24.5q50 0 85 -21zM1037 457q52 105 96 158q-206 -64 -355 -321q-4 -5 -1.5 -12.5t14.5 -7.5h140q21 0 29 18zM1296 886l42 -91q11 -25 -9 -38
q-18 -14 -32 6l-3 5l-22 48q-8 17 -25 6l-91 -64q-17 -12 -30.5 -5.5t-12.5 21.5t14 27l128 91q9 8 22 7t19 -13z" />
    <glyph glyph-name="Atilde" unicode="&#xc3;" horiz-adv-x="1083" 
d="M1352 667q20 -12 10 -33q-11 -22 -33 -16q-6 2 -12 6q-17 10 -45 12q-53 0 -99.5 -55.5t-79.5 -127.5l-194 -418q-20 -46 -20 -90q0 -56 43 -56q5 0 17 2q21 4 26 -17q5 -23 -16 -34l-10 -3q-12 -2 -20 -2q-48 0 -71 31t-23 79q0 55 26 110l70 150q7 18 -12 18h-142
q-14 0 -23 -4.5t-11.5 -7.5t-8.5 -13q-79 -128 -184.5 -209t-230.5 -81q-120 0 -205 77.5t-85 198.5q0 111 78 193.5t200 82.5q103 0 159 -52t56 -130q0 -68 -52 -113q-15 -13 -30.5 -8.5t-17 19.5t14.5 33q31 28 31 69q0 56 -42 92t-121 36q-97 0 -159.5 -66t-62.5 -156
q0 -95 71.5 -158.5t164.5 -63.5q78 0 157 49t136.5 115.5t104.5 147.5q38 64 79 120t96 111.5t112.5 94.5t128.5 63.5t144 24.5q50 0 85 -21zM1037 457q52 105 96 158q-206 -64 -355 -321q-4 -5 -1.5 -12.5t14.5 -7.5h140q21 0 29 18zM1242 757q-16 -12 -30 -6.5t-14 19.5
t14 28q24 19 50 19q17 0 45 -13q25 -13 44 -4q24 12 34.5 -9t-11.5 -35t-42 -14q-21 0 -43 12q-31 16 -47 3z" />
    <glyph glyph-name="Adieresis" unicode="&#xc4;" horiz-adv-x="1083" 
d="M1352 667q20 -12 10 -33q-11 -22 -33 -16q-6 2 -12 6q-17 10 -45 12q-53 0 -99.5 -55.5t-79.5 -127.5l-194 -418q-20 -46 -20 -90q0 -56 43 -56q5 0 17 2q21 4 26 -17q5 -23 -16 -34l-10 -3q-12 -2 -20 -2q-48 0 -71 31t-23 79q0 55 26 110l70 150q7 18 -12 18h-142
q-14 0 -23 -4.5t-11.5 -7.5t-8.5 -13q-79 -128 -184.5 -209t-230.5 -81q-120 0 -205 77.5t-85 198.5q0 111 78 193.5t200 82.5q103 0 159 -52t56 -130q0 -68 -52 -113q-15 -13 -30.5 -8.5t-17 19.5t14.5 33q31 28 31 69q0 56 -42 92t-121 36q-97 0 -159.5 -66t-62.5 -156
q0 -95 71.5 -158.5t164.5 -63.5q78 0 157 49t136.5 115.5t104.5 147.5q38 64 79 120t96 111.5t112.5 94.5t128.5 63.5t144 24.5q50 0 85 -21zM1037 457q52 105 96 158q-206 -64 -355 -321q-4 -5 -1.5 -12.5t14.5 -7.5h140q21 0 29 18zM1199 750q-3 -16 -15.5 -26.5
t-28.5 -10.5q-18 0 -27.5 12t-6.5 29q2 15 15 26.5t28 11.5q17 0 27.5 -13t7.5 -29zM1299 750q-3 -16 -15.5 -26.5t-28.5 -10.5q-18 0 -27.5 12t-6.5 29q2 15 15 26.5t28 11.5q17 0 27.5 -13t7.5 -29z" />
    <glyph glyph-name="Aring" unicode="&#xc5;" horiz-adv-x="1083" 
d="M1352 667q20 -12 10 -33q-11 -22 -33 -16q-6 2 -12 6q-17 10 -45 12q-53 0 -99.5 -55.5t-79.5 -127.5l-194 -418q-20 -46 -20 -90q0 -56 43 -56q5 0 17 2q21 4 26 -17q5 -23 -16 -34l-10 -3q-12 -2 -20 -2q-48 0 -71 31t-23 79q0 55 26 110l70 150q7 18 -12 18h-142
q-14 0 -23 -4.5t-11.5 -7.5t-8.5 -13q-79 -128 -184.5 -209t-230.5 -81q-120 0 -205 77.5t-85 198.5q0 111 78 193.5t200 82.5q103 0 159 -52t56 -130q0 -68 -52 -113q-15 -13 -30.5 -8.5t-17 19.5t14.5 33q31 28 31 69q0 56 -42 92t-121 36q-97 0 -159.5 -66t-62.5 -156
q0 -95 71.5 -158.5t164.5 -63.5q78 0 157 49t136.5 115.5t104.5 147.5q38 64 79 120t96 111.5t112.5 94.5t128.5 63.5t144 24.5q50 0 85 -21zM1037 457q52 105 96 158q-206 -64 -355 -321q-4 -5 -1.5 -12.5t14.5 -7.5h140q21 0 29 18zM1187 802q0 39 31.5 70t73.5 31
q30 0 49.5 -20.5t19.5 -50.5q0 -39 -32.5 -70t-70.5 -31q-31 0 -51 20.5t-20 50.5zM1286 851q-17 1 -31.5 -13t-14.5 -33q0 -23 24 -23q17 0 31 13t14 30q0 24 -23 26z" />
    <glyph glyph-name="AE" unicode="&#xc6;" horiz-adv-x="143" 
 />
    <glyph glyph-name="Ccedilla" unicode="&#xc7;" horiz-adv-x="718" 
d="M377 -131q-15 0 -39 2q-1 -2 -1 -7q0 -13 11 -37t11 -39q0 -33 -23.5 -56.5t-56.5 -23.5q-19 0 -37.5 9t-18.5 26q0 11 7 19.5t19 8.5q6 0 16 -4.5t14 -4.5q11 0 18.5 8t7.5 18q0 13 -11 36.5t-11 37.5q0 10 3 20q-99 31 -155 119.5t-53 199.5q2 77 39.5 160.5t99 154
t152.5 116t191 45.5q105 0 165 -52.5t61 -122.5q-2 -63 -49 -112.5t-114 -49.5t-97 34t-28 82q0 27 20 52q14 17 31 17.5t22 -12.5t-5 -31q-14 -19 -14 -32q-1 -23 17.5 -40t56.5 -17q44 0 75 32t32 72q2 50 -44.5 88.5t-130.5 38.5q-89 0 -169.5 -40.5t-134.5 -103
t-86.5 -136.5t-34.5 -142q-3 -108 65.5 -193.5t180.5 -85.5q87 0 148 52.5t69 120.5q6 46 -22 81t-76 35q-41 1 -66.5 -18.5t-27.5 -45.5q-1 -20 -14.5 -28.5t-25.5 0t-11 28.5q2 46 45 82.5t108 35.5q71 0 112 -53.5t31 -121.5q-13 -86 -89 -154t-183 -68z" />
    <glyph glyph-name="Egrave" unicode="&#xc8;" horiz-adv-x="700" 
d="M335 -148q-73 0 -128.5 22t-86 58t-44.5 77t-13 85q2 88 74.5 165t188.5 98q-38 58 -37 128q2 92 85.5 159.5t192.5 67.5q103 0 166.5 -51.5t64.5 -119.5q0 -64 -46.5 -114.5t-114.5 -50.5q-62 -1 -96.5 33t-32.5 78q0 45 26 68q23 19 40.5 2.5t-1.5 -37.5
q-12 -12 -12 -33q-1 -24 19 -41.5t57 -16.5q44 0 75.5 32.5t31.5 74.5q1 49 -49 86.5t-130 37.5q-88 0 -155 -52t-68 -123q-2 -49 23 -79t75 -31h18q15 0 23 -8.5t8 -20.5t-8 -20t-22 -8h-23q-125 7 -217.5 -63.5t-100.5 -160.5q2 -72 59 -129t159 -57q87 0 146.5 52
t65.5 120q5 45 -24 80t-76 35q-40 1 -65.5 -18.5t-26.5 -44.5q-1 -15 -9 -23.5t-19 -8.5q-25 0 -25 32q1 46 43 83t108 36q71 0 113.5 -54t35.5 -122q-12 -86 -87 -154.5t-181 -68.5zM576 757l-101 98q-14 12 -10 27t17.5 18t28.5 -9l97 -96l-1 1q14 -11 11.5 -27t-15 -20
t-27.5 8z" />
    <glyph glyph-name="Eacute" unicode="&#xc9;" horiz-adv-x="700" 
d="M335 -148q-73 0 -128.5 22t-86 58t-44.5 77t-13 85q2 88 74.5 165t188.5 98q-38 58 -37 128q2 92 85.5 159.5t192.5 67.5q103 0 166.5 -51.5t64.5 -119.5q0 -64 -46.5 -114.5t-114.5 -50.5q-62 -1 -96.5 33t-32.5 78q0 45 26 68q23 19 40.5 2.5t-1.5 -37.5
q-12 -12 -12 -33q-1 -24 19 -41.5t57 -16.5q44 0 75.5 32.5t31.5 74.5q1 49 -49 86.5t-130 37.5q-88 0 -155 -52t-68 -123q-2 -49 23 -79t75 -31h18q15 0 23 -8.5t8 -20.5t-8 -20t-22 -8h-23q-125 7 -217.5 -63.5t-100.5 -160.5q2 -72 59 -129t159 -57q87 0 146.5 52
t65.5 120q5 45 -24 80t-76 35q-40 1 -65.5 -18.5t-26.5 -44.5q-1 -15 -9 -23.5t-19 -8.5q-25 0 -25 32q1 46 43 83t108 36q71 0 113.5 -54t35.5 -122q-12 -86 -87 -154.5t-181 -68.5zM573 757q-16 -11 -29.5 -4.5t-13.5 21t14 26.5l139 98q16 12 30 5.5t13.5 -21
t-15.5 -27.5h1z" />
    <glyph glyph-name="Ecircumflex" unicode="&#xca;" horiz-adv-x="700" 
d="M335 -148q-73 0 -128.5 22t-86 58t-44.5 77t-13 85q2 88 74.5 165t188.5 98q-38 58 -37 128q2 92 85.5 159.5t192.5 67.5q103 0 166.5 -51.5t64.5 -119.5q0 -64 -46.5 -114.5t-114.5 -50.5q-62 -1 -96.5 33t-32.5 78q0 45 26 68q23 19 40.5 2.5t-1.5 -37.5
q-12 -12 -12 -33q-1 -24 19 -41.5t57 -16.5q44 0 75.5 32.5t31.5 74.5q1 49 -49 86.5t-130 37.5q-88 0 -155 -52t-68 -123q-2 -49 23 -79t75 -31h18q15 0 23 -8.5t8 -20.5t-8 -20t-22 -8h-23q-125 7 -217.5 -63.5t-100.5 -160.5q2 -72 59 -129t159 -57q87 0 146.5 52
t65.5 120q5 45 -24 80t-76 35q-40 1 -65.5 -18.5t-26.5 -44.5q-1 -15 -9 -23.5t-19 -8.5q-25 0 -25 32q1 46 43 83t108 36q71 0 113.5 -54t35.5 -122q-12 -86 -87 -154.5t-181 -68.5zM708 886l42 -91q11 -25 -9 -38q-18 -14 -32 6q-2 2 -3 5l-22 48q-8 17 -25 6l-91 -64
q-17 -12 -30.5 -5.5t-12.5 21.5t14 27l128 91q9 8 22 7t19 -13z" />
    <glyph glyph-name="Edieresis" unicode="&#xcb;" horiz-adv-x="700" 
d="M335 -148q-73 0 -128.5 22t-86 58t-44.5 77t-13 85q2 88 74.5 165t188.5 98q-38 58 -37 128q2 92 85.5 159.5t192.5 67.5q103 0 166.5 -51.5t64.5 -119.5q0 -64 -46.5 -114.5t-114.5 -50.5q-62 -1 -96.5 33t-32.5 78q0 45 26 68q23 19 40.5 2.5t-1.5 -37.5
q-12 -12 -12 -33q-1 -24 19 -41.5t57 -16.5q44 0 75.5 32.5t31.5 74.5q1 49 -49 86.5t-130 37.5q-88 0 -155 -52t-68 -123q-2 -49 23 -79t75 -31h18q15 0 23 -8.5t8 -20.5t-8 -20t-22 -8h-23q-125 7 -217.5 -63.5t-100.5 -160.5q2 -72 59 -129t159 -57q87 0 146.5 52
t65.5 120q5 45 -24 80t-76 35q-40 1 -65.5 -18.5t-26.5 -44.5q-1 -15 -9 -23.5t-19 -8.5q-25 0 -25 32q1 46 43 83t108 36q71 0 113.5 -54t35.5 -122q-12 -86 -87 -154.5t-181 -68.5zM630 786q-3 -16 -15.5 -26.5t-28.5 -10.5q-18 0 -27.5 12t-6.5 29q2 15 15 26.5t28 11.5
q17 0 27.5 -13t7.5 -29zM730 786q-3 -16 -15.5 -26.5t-28.5 -10.5q-18 0 -27.5 12t-6.5 29q2 15 15 26.5t28 11.5q17 0 27.5 -13t7.5 -29z" />
    <glyph glyph-name="Igrave" unicode="&#xcc;" horiz-adv-x="580" 
d="M578 681q72 0 128 -20q23 -8 30.5 -22t3.5 -24.5t-12 -18.5q-38 -30 -65.5 -60t-35.5 -44q-19 -31 -94 -193q-68 -149 -101 -200q-92 -145 -226 -167q-26 -4 -54 -4q-53 0 -94.5 21.5t-55.5 56.5q-10 24 0 37.5t26.5 9t23.5 -25.5q6 -20 33.5 -32.5t66.5 -12.5q28 0 54 6
t47 14t42 24.5t35.5 30t32 38t27.5 40t25.5 45t22.5 45t22 47.5t21 45q3 5 30 64.5t40.5 86.5t40 68t49.5 63q9 8 7 13.5t-20 9.5q-24 5 -50 5q-96 0 -160 -66.5t-64 -165.5q0 -35 9 -63q8 -17 -3 -30t-28 -11t-24 23q-13 39 -13 81q0 119 82 202.5t201 83.5zM726 757
l-101 98q-14 12 -10 27t17.5 18t28.5 -9l97 -96l-1 1q14 -11 11.5 -27t-15 -20t-27.5 8z" />
    <glyph glyph-name="Iacute" unicode="&#xcd;" horiz-adv-x="580" 
d="M578 681q72 0 128 -20q23 -8 30.5 -22t3.5 -24.5t-12 -18.5q-38 -30 -65.5 -60t-35.5 -44q-19 -31 -94 -193q-68 -149 -101 -200q-92 -145 -226 -167q-26 -4 -54 -4q-53 0 -94.5 21.5t-55.5 56.5q-10 24 0 37.5t26.5 9t23.5 -25.5q6 -20 33.5 -32.5t66.5 -12.5q28 0 54 6
t47 14t42 24.5t35.5 30t32 38t27.5 40t25.5 45t22.5 45t22 47.5t21 45q3 5 30 64.5t40.5 86.5t40 68t49.5 63q9 8 7 13.5t-20 9.5q-24 5 -50 5q-96 0 -160 -66.5t-64 -165.5q0 -35 9 -63q8 -17 -3 -30t-28 -11t-24 23q-13 39 -13 81q0 119 82 202.5t201 83.5zM732 757
q-16 -11 -29.5 -4.5t-13.5 21t14 26.5l139 98q16 12 30 5.5t13.5 -21t-15.5 -27.5h1z" />
    <glyph glyph-name="Icircumflex" unicode="&#xce;" horiz-adv-x="580" 
d="M578 681q72 0 128 -20q23 -8 30.5 -22t3.5 -24.5t-12 -18.5q-38 -30 -65.5 -60t-35.5 -44q-19 -31 -94 -193q-68 -149 -101 -200q-92 -145 -226 -167q-26 -4 -54 -4q-53 0 -94.5 21.5t-55.5 56.5q-10 24 0 37.5t26.5 9t23.5 -25.5q6 -20 33.5 -32.5t66.5 -12.5q28 0 54 6
t47 14t42 24.5t35.5 30t32 38t27.5 40t25.5 45t22.5 45t22 47.5t21 45q3 5 30 64.5t40.5 86.5t40 68t49.5 63q9 8 7 13.5t-20 9.5q-24 5 -50 5q-96 0 -160 -66.5t-64 -165.5q0 -35 9 -63q8 -17 -3 -30t-28 -11t-24 23q-13 39 -13 81q0 119 82 202.5t201 83.5zM786 886
l42 -91q11 -25 -9 -38q-18 -14 -32 6q-2 2 -3 5l-22 48q-8 17 -25 6l-91 -64q-17 -12 -30.5 -5.5t-12.5 21.5t14 27l128 91q9 8 22 7t19 -13z" />
    <glyph glyph-name="Idieresis" unicode="&#xcf;" horiz-adv-x="580" 
d="M578 681q72 0 128 -20q23 -8 30.5 -22t3.5 -24.5t-12 -18.5q-38 -30 -65.5 -60t-35.5 -44q-19 -31 -94 -193q-68 -149 -101 -200q-92 -145 -226 -167q-26 -4 -54 -4q-53 0 -94.5 21.5t-55.5 56.5q-10 24 0 37.5t26.5 9t23.5 -25.5q6 -20 33.5 -32.5t66.5 -12.5q28 0 54 6
t47 14t42 24.5t35.5 30t32 38t27.5 40t25.5 45t22.5 45t22 47.5t21 45q3 5 30 64.5t40.5 86.5t40 68t49.5 63q9 8 7 13.5t-20 9.5q-24 5 -50 5q-96 0 -160 -66.5t-64 -165.5q0 -35 9 -63q8 -17 -3 -30t-28 -11t-24 23q-13 39 -13 81q0 119 82 202.5t201 83.5zM672 750
q-3 -16 -15.5 -26.5t-28.5 -10.5q-18 0 -27.5 12t-6.5 29q2 15 15 26.5t28 11.5q17 0 27.5 -13t7.5 -29zM772 750q-3 -16 -15.5 -26.5t-28.5 -10.5q-18 0 -27.5 12t-6.5 29q2 15 15 26.5t28 11.5q17 0 27.5 -13t7.5 -29z" />
    <glyph glyph-name="Eth" unicode="&#xd0;" horiz-adv-x="974" 
d="M383 268q-18 0 -24.5 13t1 26t23.5 13h56q20 0 28 18l45 99q50 112 94 177q15 22 -6 27q-34 5 -85 5q-86 0 -160 -22t-123.5 -57t-85 -80.5t-51.5 -91.5t-16 -90q0 -56 29 -102.5t79 -67.5q16 -7 18 -21.5t-10 -24.5t-30 -4q-68 25 -104.5 85t-36.5 136q0 50 19 103
t59.5 105t96.5 93.5t138.5 67t177.5 25.5q130 0 225 -42q105 -47 161.5 -131.5t56.5 -182.5q0 -84 -35 -163.5t-95 -139.5t-147 -96t-185 -36q-34 0 -74 9.5t-66.5 19t-71.5 28.5q-67 -39 -161 -40q-18 0 -38.5 4t-44 12t-38.5 24.5t-15 39.5q0 27 28.5 47t69.5 20
q75 0 193 -47q45 33 78.5 86.5t72.5 137.5q8 18 -13 18h-33zM902 344q0 87 -52.5 160.5t-150.5 110.5q-11 6 -19.5 4.5t-18.5 -15.5q-36 -48 -100 -186l-37 -80q-7 -18 12 -18h26q20 0 28 -13t0 -26t-28 -13h-50q-20 0 -28 -18l-5 -11q-73 -157 -136 -228q-8 -9 5 -13
q105 -35 148 -35q115 0 209 53.5t145.5 140.5t51.5 187zM197 -12q4 1 6 3t0.5 4t-6.5 4q-69 23 -114 23q-20 0 -31.5 -5t-11.5 -11q0 -26 83 -26q39 0 74 8z" />
    <glyph glyph-name="Ntilde" unicode="&#xd1;" horiz-adv-x="590" 
d="M131 -30q-15 0 -23 11.5t0 29.5l200 434q22 51 22 98q0 64 -48.5 104.5t-116.5 40.5q-62 0 -112 -41t-50 -103q0 -47 31 -80t79 -33q54 0 72 41q7 19 23 21.5t26 -9.5t4 -29q-14 -37 -48 -56.5t-77 -19.5q-68 0 -115.5 48t-47.5 118q0 81 65.5 138.5t150.5 57.5
t151.5 -55t66.5 -141q0 -7 1 -10.5t4 -2l5 2.5t6 6q70 70 148 70q48 0 73.5 -30.5t25.5 -72.5q0 -33 -12 -57l-205 -461q-10 -28 -10 -35q0 -10 2 -12q23 -20 7 -43q-14 -20 -33 -10l-5 4v-1q-29 19 -29 62q0 23 15 59q14 30 42.5 96.5t66.5 151.5t87 191q12 28 12 48
q0 21 -13 34.5t-38 13.5q-47 0 -96 -40q-61 -49 -106 -149l-167 -367q-11 -23 -34 -23zM555 725q-16 -12 -30 -6.5t-14 19.5t14 28q24 19 50 19q17 0 45 -13q25 -13 44 -4q24 12 34.5 -9t-11.5 -35t-42 -14q-21 0 -43 12q-31 16 -47 3z" />
    <glyph glyph-name="Ograve" unicode="&#xd2;" horiz-adv-x="833" 
d="M104 308q36 156 164 266t273 110q126 0 204 -83t78 -211q0 -43 -10 -91q-37 -156 -164.5 -265.5t-272.5 -109.5q-126 0 -204.5 83t-78.5 211q0 44 11 90zM157 299q-10 -50 -10 -81q0 -105 63.5 -172.5t165.5 -67.5q122 0 234.5 98.5t148.5 232.5v-1q10 43 10 82
q0 105 -63 172.5t-165 67.5q-126 0 -239 -97.5t-145 -233.5zM593 757l-101 98q-14 12 -10 27t17.5 18t28.5 -9l97 -96l-1 1q14 -11 11.5 -27t-15 -20t-27.5 8z" />
    <glyph glyph-name="Oacute" unicode="&#xd3;" horiz-adv-x="833" 
d="M104 308q36 156 164 266t273 110q126 0 204 -83t78 -211q0 -43 -10 -91q-37 -156 -164.5 -265.5t-272.5 -109.5q-126 0 -204.5 83t-78.5 211q0 44 11 90zM157 299q-10 -50 -10 -81q0 -105 63.5 -172.5t165.5 -67.5q122 0 234.5 98.5t148.5 232.5v-1q10 43 10 82
q0 105 -63 172.5t-165 67.5q-126 0 -239 -97.5t-145 -233.5zM600 757q-16 -11 -29.5 -4.5t-13.5 21t14 26.5l139 98q16 12 30 5.5t13.5 -21t-15.5 -27.5h1z" />
    <glyph glyph-name="Ocircumflex" unicode="&#xd4;" horiz-adv-x="833" 
d="M104 308q36 156 164 266t273 110q126 0 204 -83t78 -211q0 -43 -10 -91q-37 -156 -164.5 -265.5t-272.5 -109.5q-126 0 -204.5 83t-78.5 211q0 44 11 90zM157 299q-10 -50 -10 -81q0 -105 63.5 -172.5t165.5 -67.5q122 0 234.5 98.5t148.5 232.5v-1q10 43 10 82
q0 105 -63 172.5t-165 67.5q-126 0 -239 -97.5t-145 -233.5zM683 886l42 -91q11 -25 -9 -38q-18 -14 -32 6q-2 2 -3 5l-22 48q-8 17 -25 6l-91 -64q-17 -12 -30.5 -5.5t-12.5 21.5t14 27l128 91q9 8 22 7t19 -13z" />
    <glyph glyph-name="Otilde" unicode="&#xd5;" horiz-adv-x="833" 
d="M104 308q36 156 164 266t273 110q126 0 204 -83t78 -211q0 -43 -10 -91q-37 -156 -164.5 -265.5t-272.5 -109.5q-126 0 -204.5 83t-78.5 211q0 44 11 90zM157 299q-10 -50 -10 -81q0 -105 63.5 -172.5t165.5 -67.5q122 0 234.5 98.5t148.5 232.5v-1q10 43 10 82
q0 105 -63 172.5t-165 67.5q-126 0 -239 -97.5t-145 -233.5zM567 745q-16 -12 -30 -6.5t-14 19.5t14 28q24 19 50 19q17 0 45 -13q25 -13 44 -4q24 12 34.5 -9t-11.5 -35t-42 -14q-21 0 -43 12q-31 16 -47 3z" />
    <glyph glyph-name="Odieresis" unicode="&#xd6;" horiz-adv-x="833" 
d="M104 308q36 156 164 266t273 110q126 0 204 -83t78 -211q0 -43 -10 -91q-37 -156 -164.5 -265.5t-272.5 -109.5q-126 0 -204.5 83t-78.5 211q0 44 11 90zM157 299q-10 -50 -10 -81q0 -105 63.5 -172.5t165.5 -67.5q122 0 234.5 98.5t148.5 232.5v-1q10 43 10 82
q0 105 -63 172.5t-165 67.5q-126 0 -239 -97.5t-145 -233.5zM596 750q-3 -16 -15.5 -26.5t-28.5 -10.5q-18 0 -27.5 12t-6.5 29q2 15 15 26.5t28 11.5q17 0 27.5 -13t7.5 -29zM696 750q-3 -16 -15.5 -26.5t-28.5 -10.5q-18 0 -27.5 12t-6.5 29q2 15 15 26.5t28 11.5
q17 0 27.5 -13t7.5 -29z" />
    <glyph glyph-name="multiply" unicode="&#xd7;" horiz-adv-x="677" 
d="M341 381q44 0 128 -48.5t120 -48.5q46 0 68 31q11 11 21.5 2.5t0.5 -20.5q-31 -41 -90 -41q-46 0 -107 35q-22 13 -49 -8.5t-49 -56.5q13 5 27 5q40 0 64.5 -24t24.5 -62q0 -73 -76.5 -123.5t-177.5 -50.5q-36 0 -70 9q-14 0 -14 15t14 15q4 -1 10 0q18 18 18 55
q0 17 -7.5 57t-7.5 61q0 36 25.5 61t62.5 25q19 0 35 -12t20 -32q1 -8 -3.5 -12.5t-10.5 -3.5t-8 7q-7 23 -33 23q-25 0 -41.5 -16t-16.5 -40q0 -18 6 -58.5t6 -60.5q0 -15 -3 -30q-5 -27 -3 -30t21 -3q90 0 157 41.5t67 102.5q0 26 -16.5 41.5t-44.5 15.5t-45 -14
q-14 -11 -20 5q-5 18 8 40q38 59 73 77q10 7 10 8.5t-9 6.5q-51 28 -85 28q-51 0 -82 -33q-12 -13 -23.5 -4t1.5 22q43 43 104 43z" />
    <glyph glyph-name="Oslash" unicode="&#xd8;" horiz-adv-x="833" 
d="M104 308q36 156 164 266t273 110q57 0 104 -18l14 22q9 14 25.5 15t23.5 -10.5t-2 -29.5l-13 -20q62 -38 96 -104.5t34 -148.5q0 -43 -10 -91q-37 -156 -164.5 -265.5t-272.5 -109.5q-63 0 -119 24l-17 -28q-15 -25 -39 -16q-21 8 -15 29q2 5 5 10l19 31
q-55 39 -86 102.5t-31 141.5q0 44 11 90zM769 390q0 68 -27.5 122t-77.5 84l-377 -602q43 -16 89 -16q122 0 234.5 98.5t148.5 232.5v-1q10 43 10 82zM157 299q-10 -50 -10 -81q0 -131 92 -198l376 599q-36 11 -74 11q-126 0 -239 -97.5t-145 -233.5z" />
    <glyph glyph-name="Ugrave" unicode="&#xd9;" horiz-adv-x="743" 
d="M683 -266q-168 0 -168 249q0 7 -0.5 11.5t0.5 11.5q-87 -73 -168 -73q-68 0 -101.5 37.5t-33.5 95.5q0 46 25 101l107 230q51 111 12 191t-147 80q-61 0 -110.5 -42.5t-49.5 -107.5q0 -50 27.5 -84.5t72.5 -34.5q28 0 50.5 12.5t31.5 34.5q8 20 23.5 22.5t25.5 -9.5
t4 -30q-13 -40 -50.5 -61t-84.5 -21q-63 0 -108 50t-45 122q0 83 64.5 142.5t149.5 59.5q134 0 189 -101.5t-9 -244.5l-107 -231q-18 -39 -18 -79q0 -79 82 -79q78 0 174 94q11 89 23 127q49 163 94.5 255.5t94.5 92.5q23 0 37.5 -21.5t14.5 -51.5q0 -88 -62.5 -209.5
t-151.5 -214.5q-3 -30 -3 -65q0 -89 27 -147t89 -58q54 0 81 29t29 64q2 19 -9 33q-12 16 -5.5 30.5t21 15t27.5 -14.5q20 -24 19 -62q-2 -54 -43.5 -101.5t-120.5 -47.5zM596 196q-8 -27 -5 -29t20 22q89 123 115 224q2 5 4.5 17.5t4.5 28.5t0.5 27.5t-8.5 11.5
q-21 0 -57.5 -88.5t-73.5 -213.5zM655 757l-101 98q-14 12 -10 27t17.5 18t28.5 -9l97 -96l-1 1q14 -11 11.5 -27t-15 -20t-27.5 8z" />
    <glyph glyph-name="Uacute" unicode="&#xda;" horiz-adv-x="743" 
d="M683 -266q-168 0 -168 249q0 7 -0.5 11.5t0.5 11.5q-87 -73 -168 -73q-68 0 -101.5 37.5t-33.5 95.5q0 46 25 101l107 230q51 111 12 191t-147 80q-61 0 -110.5 -42.5t-49.5 -107.5q0 -50 27.5 -84.5t72.5 -34.5q28 0 50.5 12.5t31.5 34.5q8 20 23.5 22.5t25.5 -9.5
t4 -30q-13 -40 -50.5 -61t-84.5 -21q-63 0 -108 50t-45 122q0 83 64.5 142.5t149.5 59.5q134 0 189 -101.5t-9 -244.5l-107 -231q-18 -39 -18 -79q0 -79 82 -79q78 0 174 94q11 89 23 127q49 163 94.5 255.5t94.5 92.5q23 0 37.5 -21.5t14.5 -51.5q0 -88 -62.5 -209.5
t-151.5 -214.5q-3 -30 -3 -65q0 -89 27 -147t89 -58q54 0 81 29t29 64q2 19 -9 33q-12 16 -5.5 30.5t21 15t27.5 -14.5q20 -24 19 -62q-2 -54 -43.5 -101.5t-120.5 -47.5zM596 196q-8 -27 -5 -29t20 22q89 123 115 224q2 5 4.5 17.5t4.5 28.5t0.5 27.5t-8.5 11.5
q-21 0 -57.5 -88.5t-73.5 -213.5zM649 757q-16 -11 -29.5 -4.5t-13.5 21t14 26.5l139 98q16 12 30 5.5t13.5 -21t-15.5 -27.5h1z" />
    <glyph glyph-name="Ucircumflex" unicode="&#xdb;" horiz-adv-x="743" 
d="M683 -266q-168 0 -168 249q0 7 -0.5 11.5t0.5 11.5q-87 -73 -168 -73q-68 0 -101.5 37.5t-33.5 95.5q0 46 25 101l107 230q51 111 12 191t-147 80q-61 0 -110.5 -42.5t-49.5 -107.5q0 -50 27.5 -84.5t72.5 -34.5q28 0 50.5 12.5t31.5 34.5q8 20 23.5 22.5t25.5 -9.5
t4 -30q-13 -40 -50.5 -61t-84.5 -21q-63 0 -108 50t-45 122q0 83 64.5 142.5t149.5 59.5q134 0 189 -101.5t-9 -244.5l-107 -231q-18 -39 -18 -79q0 -79 82 -79q78 0 174 94q11 89 23 127q49 163 94.5 255.5t94.5 92.5q23 0 37.5 -21.5t14.5 -51.5q0 -88 -62.5 -209.5
t-151.5 -214.5q-3 -30 -3 -65q0 -89 27 -147t89 -58q54 0 81 29t29 64q2 19 -9 33q-12 16 -5.5 30.5t21 15t27.5 -14.5q20 -24 19 -62q-2 -54 -43.5 -101.5t-120.5 -47.5zM596 196q-8 -27 -5 -29t20 22q89 123 115 224q2 5 4.5 17.5t4.5 28.5t0.5 27.5t-8.5 11.5
q-21 0 -57.5 -88.5t-73.5 -213.5zM718 886l42 -91q11 -25 -9 -38q-18 -14 -32 6q-2 2 -3 5l-22 48q-8 17 -25 6l-91 -64q-17 -12 -30.5 -5.5t-12.5 21.5t14 27l128 91q9 8 22 7t19 -13z" />
    <glyph glyph-name="Udieresis" unicode="&#xdc;" horiz-adv-x="743" 
d="M683 -266q-168 0 -168 249q0 7 -0.5 11.5t0.5 11.5q-87 -73 -168 -73q-68 0 -101.5 37.5t-33.5 95.5q0 46 25 101l107 230q51 111 12 191t-147 80q-61 0 -110.5 -42.5t-49.5 -107.5q0 -50 27.5 -84.5t72.5 -34.5q28 0 50.5 12.5t31.5 34.5q8 20 23.5 22.5t25.5 -9.5
t4 -30q-13 -40 -50.5 -61t-84.5 -21q-63 0 -108 50t-45 122q0 83 64.5 142.5t149.5 59.5q134 0 189 -101.5t-9 -244.5l-107 -231q-18 -39 -18 -79q0 -79 82 -79q78 0 174 94q11 89 23 127q49 163 94.5 255.5t94.5 92.5q23 0 37.5 -21.5t14.5 -51.5q0 -88 -62.5 -209.5
t-151.5 -214.5q-3 -30 -3 -65q0 -89 27 -147t89 -58q54 0 81 29t29 64q2 19 -9 33q-12 16 -5.5 30.5t21 15t27.5 -14.5q20 -24 19 -62q-2 -54 -43.5 -101.5t-120.5 -47.5zM596 196q-8 -27 -5 -29t20 22q89 123 115 224q2 5 4.5 17.5t4.5 28.5t0.5 27.5t-8.5 11.5
q-21 0 -57.5 -88.5t-73.5 -213.5zM646 750q-3 -16 -15.5 -26.5t-28.5 -10.5q-18 0 -27.5 12t-6.5 29q2 15 15 26.5t28 11.5q17 0 27.5 -13t7.5 -29zM746 750q-3 -16 -15.5 -26.5t-28.5 -10.5q-18 0 -27.5 12t-6.5 29q2 15 15 26.5t28 11.5q17 0 27.5 -13t7.5 -29z" />
    <glyph glyph-name="Yacute" unicode="&#xdd;" horiz-adv-x="719" 
d="M411 375l-78 -173q-18 -39 -18 -79q0 -34 21 -57.5t60 -22.5q76 3 131 53.5t84 112.5l148 322q13 28 37 24q21 -3 19 -25q-1 -7 -4 -14l-259 -562q-94 -205 -239 -205q-54 0 -92.5 27.5t-38.5 80.5q0 40 29.5 74.5t76.5 35.5q17 0 23.5 -12.5t0 -25t-23.5 -12.5
q-23 -1 -37.5 -19t-14.5 -43q0 -23 19 -38.5t58 -15.5q48 0 99 46.5t87 116.5l33 65q9 17 1 14l-13 -8q-57 -42 -123 -45q-67 0 -101 37.5t-34 95.5q0 46 25 101l78 173q50 112 11 191.5t-146 79.5q-61 0 -110.5 -42.5t-49.5 -107.5q0 -50 27.5 -84.5t72.5 -34.5
q28 0 50.5 12.5t31.5 34.5q8 20 23.5 22.5t25.5 -9.5t4 -30q-13 -40 -50.5 -61t-84.5 -21q-63 0 -108 50t-45 122q0 83 64.5 142.5t149.5 59.5q134 0 189 -101.5t-9 -244.5zM674 757q-16 -11 -29.5 -4.5t-13.5 21t14 26.5l139 98q16 12 30 5.5t13.5 -21t-15.5 -27.5h1z" />
    <glyph glyph-name="Thorn" unicode="&#xde;" horiz-adv-x="923" 
d="M578 681q72 0 128 -20q23 -8 30.5 -22t3.5 -24.5t-12 -18.5q-38 -30 -65.5 -60t-35.5 -44q-2 -3 -60 -119q-10 -20 -8 -20q3 -1 18 9q60 42 123 42q88 0 137 -50t49 -119q0 -99 -90 -181t-213 -82q-75 0 -170 42q-10 3 -13 11q-56 -99 -126 -153.5t-176 -54.5
q-53 0 -94.5 21.5t-55.5 56.5q-10 24 0 37.5t26.5 9t23.5 -25.5q6 -20 33.5 -32.5t66.5 -12.5q28 0 54 6t47 14t42 24.5t35.5 30t32 38t27.5 40t25.5 45t22.5 45t22 47.5t21 45q3 7 28.5 62.5t44.5 94t46 91.5t51.5 90t43.5 55q9 8 7 13.5t-20 9.5q-24 5 -50 5
q-96 0 -160 -66.5t-64 -165.5q0 -35 9 -63q8 -17 -3 -30t-28 -11t-24 23q-13 39 -13 81q0 119 82 202.5t201 83.5zM700 350q-132 0 -247 -218l-33 -70q6 1 18 -2q81 -33 142 -33q102 0 175.5 64.5t73.5 143.5q0 50 -34.5 82.5t-94.5 32.5z" />
    <glyph glyph-name="germandbls" unicode="&#xdf;" horiz-adv-x="328" 
d="M40 99q-57 -111 -133 -111q-17 0 -23.5 13t0.5 26t23 13q43 0 82 80l155 339q44 96 105.5 154t137.5 58q66 0 98.5 -31.5t32.5 -77.5q0 -30 -13 -53.5t-39.5 -40.5t-48 -26t-57.5 -22q-134 -48 -134 -104q0 -24 22 -77.5t22 -78.5q0 -64 -51 -119t-118 -55q-28 0 -49 9
q-11 5 -19 10q-17 10 -15 27t16 22.5t29 -3.5q6 -5 16 -8q11 -3 25 -3q45 0 78.5 36t33.5 85q0 26 -21.5 78t-21.5 80t12.5 50.5t40 40.5t47 27t56.5 24q44 17 66 27t45.5 30.5t23.5 44.5q1 23 -18.5 39.5t-58.5 16.5q-52 0 -101 -43t-84 -120zM234 -12q-16 0 -22.5 13t0 26
t22.5 13t29.5 8t25.5 25t15.5 24t11.5 22q12 22 34.5 13.5t13.5 -32.5q-17 -40 -52 -76t-78 -36z" />
    <glyph glyph-name="agrave" unicode="&#xe0;" 
d="M214 -12q-55 0 -74 35q-33 -35 -77 -35q-41 0 -64.5 19.5t-23.5 56.5q0 26 14 56l75 158q53 109 129 109q20 0 38.5 -8.5t25.5 -23.5q9 24 32 22q19 -3 19 -22q0 -5 -2 -11l-111 -245q-10 -21 -10 -36q0 -23 29 -23q16 0 29.5 8t25.5 25t15.5 24t11.5 22q12 22 34.5 13.5
t13.5 -32.5q-17 -40 -52 -76t-78 -36zM63 40q25 0 45 21.5t31 46.5l79 168q7 14 8 27t-7 22.5t-26 9.5q-16 0 -30 -8.5t-25.5 -26.5t-15 -24.5t-12.5 -24.5l-72 -154q-11 -19 -5.5 -38t30.5 -19zM273 464l-101 98q-14 12 -10 27t17.5 18t28.5 -9l97 -96l-1 1
q14 -11 11.5 -27t-15 -20t-27.5 8z" />
    <glyph glyph-name="aacute" unicode="&#xe1;" 
d="M214 -12q-55 0 -74 35q-33 -35 -77 -35q-41 0 -64.5 19.5t-23.5 56.5q0 26 14 56l75 158q53 109 129 109q20 0 38.5 -8.5t25.5 -23.5q9 24 32 22q19 -3 19 -22q0 -5 -2 -11l-111 -245q-10 -21 -10 -36q0 -23 29 -23q16 0 29.5 8t25.5 25t15.5 24t11.5 22q12 22 34.5 13.5
t13.5 -32.5q-17 -40 -52 -76t-78 -36zM63 40q25 0 45 21.5t31 46.5l79 168q7 14 8 27t-7 22.5t-26 9.5q-16 0 -30 -8.5t-25.5 -26.5t-15 -24.5t-12.5 -24.5l-72 -154q-11 -19 -5.5 -38t30.5 -19zM212 464q-16 -11 -29.5 -4.5t-13.5 21t14 26.5l139 98q16 12 30 5.5t13.5 -21
t-15.5 -27.5h1z" />
    <glyph glyph-name="acircumflex" unicode="&#xe2;" 
d="M214 -12q-55 0 -74 35q-33 -35 -77 -35q-41 0 -64.5 19.5t-23.5 56.5q0 26 14 56l75 158q53 109 129 109q20 0 38.5 -8.5t25.5 -23.5q9 24 32 22q19 -3 19 -22q0 -5 -2 -11l-111 -245q-10 -21 -10 -36q0 -23 29 -23q16 0 29.5 8t25.5 25t15.5 24t11.5 22q12 22 34.5 13.5
t13.5 -32.5q-17 -40 -52 -76t-78 -36zM63 40q25 0 45 21.5t31 46.5l79 168q7 14 8 27t-7 22.5t-26 9.5q-16 0 -30 -8.5t-25.5 -26.5t-15 -24.5t-12.5 -24.5l-72 -154q-11 -19 -5.5 -38t30.5 -19zM321 593l42 -91q11 -25 -9 -38q-18 -14 -32 6q-2 2 -3 5l-22 48q-8 17 -25 6
l-91 -64q-17 -12 -30.5 -5.5t-12.5 21.5t14 27l128 91q9 8 22 7t19 -13z" />
    <glyph glyph-name="atilde" unicode="&#xe3;" 
d="M214 -12q-55 0 -74 35q-33 -35 -77 -35q-41 0 -64.5 19.5t-23.5 56.5q0 26 14 56l75 158q53 109 129 109q20 0 38.5 -8.5t25.5 -23.5q9 24 32 22q19 -3 19 -22q0 -5 -2 -11l-111 -245q-10 -21 -10 -36q0 -23 29 -23q16 0 29.5 8t25.5 25t15.5 24t11.5 22q12 22 34.5 13.5
t13.5 -32.5q-17 -40 -52 -76t-78 -36zM63 40q25 0 45 21.5t31 46.5l79 168q7 14 8 27t-7 22.5t-26 9.5q-16 0 -30 -8.5t-25.5 -26.5t-15 -24.5t-12.5 -24.5l-72 -154q-11 -19 -5.5 -38t30.5 -19zM199 432q-16 -12 -30 -6.5t-14 19.5t14 28q24 19 50 19q17 0 45 -13
q25 -13 44 -4q24 12 34.5 -9t-11.5 -35t-42 -14q-21 0 -43 12q-31 16 -47 3z" />
    <glyph glyph-name="adieresis" unicode="&#xe4;" 
d="M214 -12q-55 0 -74 35q-33 -35 -77 -35q-41 0 -64.5 19.5t-23.5 56.5q0 26 14 56l75 158q53 109 129 109q20 0 38.5 -8.5t25.5 -23.5q9 24 32 22q19 -3 19 -22q0 -5 -2 -11l-111 -245q-10 -21 -10 -36q0 -23 29 -23q16 0 29.5 8t25.5 25t15.5 24t11.5 22q12 22 34.5 13.5
t13.5 -32.5q-17 -40 -52 -76t-78 -36zM63 40q25 0 45 21.5t31 46.5l79 168q7 14 8 27t-7 22.5t-26 9.5q-16 0 -30 -8.5t-25.5 -26.5t-15 -24.5t-12.5 -24.5l-72 -154q-11 -19 -5.5 -38t30.5 -19zM240 457q-3 -16 -15.5 -26.5t-28.5 -10.5q-18 0 -27.5 12t-6.5 29
q2 15 15 26.5t28 11.5q17 0 27.5 -13t7.5 -29zM340 457q-3 -16 -15.5 -26.5t-28.5 -10.5q-18 0 -27.5 12t-6.5 29q2 15 15 26.5t28 11.5q17 0 27.5 -13t7.5 -29z" />
    <glyph glyph-name="aring" unicode="&#xe5;" 
d="M214 -12q-55 0 -74 35q-33 -35 -77 -35q-41 0 -64.5 19.5t-23.5 56.5q0 26 14 56l75 158q53 109 129 109q20 0 38.5 -8.5t25.5 -23.5q9 24 32 22q19 -3 19 -22q0 -5 -2 -11l-111 -245q-10 -21 -10 -36q0 -23 29 -23q16 0 29.5 8t25.5 25t15.5 24t11.5 22q12 22 34.5 13.5
t13.5 -32.5q-17 -40 -52 -76t-78 -36zM63 40q25 0 45 21.5t31 46.5l79 168q7 14 8 27t-7 22.5t-26 9.5q-16 0 -30 -8.5t-25.5 -26.5t-15 -24.5t-12.5 -24.5l-72 -154q-11 -19 -5.5 -38t30.5 -19zM188 490q0 39 31.5 70t73.5 31q30 0 49.5 -20.5t19.5 -50.5q0 -39 -32.5 -70
t-70.5 -31q-31 0 -51 20.5t-20 50.5zM287 539q-17 1 -31.5 -13t-14.5 -33q0 -23 24 -23q17 0 31 13t14 30q0 24 -23 26z" />
    <glyph glyph-name="ae" unicode="&#xe6;" horiz-adv-x="390" 
d="M344 387q37 0 57 -18t20 -50q0 -22 -8 -43q-45 -119 -141 -119q-9 0 -29 4q-20 6 -27 -12q-16 -41 -16 -59q0 -48 60 -50q39 0 71.5 26t48.5 55q9 17 24 18.5t23 -11t0 -28.5q-22 -45 -68 -78.5t-99 -33.5q-84 0 -110 57q-35 -57 -87 -57q-40 0 -64 19.5t-24 56.5
q0 27 14 56l7 15q20 40 55.5 63.5t76.5 23.5q59 0 72 20l17 35q10 22 10 34q0 24 -34 24q-31 0 -51 -34q-14 -23 -35 -15q-22 9 -15 36q1 6 5 13q11 20 40.5 36t55.5 16q55 0 76 -34q36 34 75 34zM46 112l-7 -14q-10 -22 -10 -34q0 -24 34 -24q46 0 82 83l22 47
q-11 -2 -39 -2q-54 0 -82 -56zM355 281q21 50 -11 54q-40 6 -72 -68l-13 -29q-10 -26 20 -26q47 0 76 69z" />
    <glyph glyph-name="ccedilla" unicode="&#xe7;" horiz-adv-x="232" 
d="M186 387q37 0 59.5 -18.5t22.5 -50.5q0 -28 -18 -65q-13 -26 -38 -21q-21 4 -20 25q0 7 5 16q14 28 14 45t-25 17q-19 0 -36 -16t-23.5 -28.5t-18.5 -37.5l-52 -110q-14 -29 -14 -53q0 -50 60 -50q39 0 71.5 26t48.5 55q13 23 34.5 13.5t11.5 -34.5q-19 -45 -65.5 -78.5
t-100.5 -33.5q-23 0 -23 -8q0 -13 11 -36t11 -38q0 -33 -23.5 -56.5t-56.5 -23.5q-19 0 -37.5 9t-18.5 26q0 11 7 19.5t19 8.5q6 0 16 -4.5t14 -4.5q11 0 18.5 8t7.5 18q0 13 -11 36.5t-11 37.5q0 27 -6 32q-34 29 -34 73q0 32 22 79l54 114q51 109 125 109z" />
    <glyph glyph-name="egrave" unicode="&#xe8;" horiz-adv-x="232" 
d="M186 387q37 0 57 -18t20 -50q0 -22 -8 -43q-45 -119 -141 -119q-9 0 -29 4q-20 6 -27 -12q-16 -41 -16 -59q0 -48 60 -50q39 0 71.5 26t48.5 55q9 17 24 18.5t23 -11t0 -28.5q-22 -45 -68 -78.5t-99 -33.5q-52 0 -84.5 25t-32.5 72q0 32 22 79l54 114q51 109 125 109z
M197 281q21 50 -11 54q-40 6 -72 -68l-13 -29q-10 -26 20 -26q47 0 76 69zM256 464l-101 98q-14 12 -10 27t17.5 18t28.5 -9l97 -96l-1 1q14 -11 11.5 -27t-15 -20t-27.5 8z" />
    <glyph glyph-name="eacute" unicode="&#xe9;" horiz-adv-x="232" 
d="M186 387q37 0 57 -18t20 -50q0 -22 -8 -43q-45 -119 -141 -119q-9 0 -29 4q-20 6 -27 -12q-16 -41 -16 -59q0 -48 60 -50q39 0 71.5 26t48.5 55q9 17 24 18.5t23 -11t0 -28.5q-22 -45 -68 -78.5t-99 -33.5q-52 0 -84.5 25t-32.5 72q0 32 22 79l54 114q51 109 125 109z
M197 281q21 50 -11 54q-40 6 -72 -68l-13 -29q-10 -26 20 -26q47 0 76 69zM208 464q-16 -11 -29.5 -4.5t-13.5 21t14 26.5l139 98q16 12 30 5.5t13.5 -21t-15.5 -27.5h1z" />
    <glyph glyph-name="ecircumflex" unicode="&#xea;" horiz-adv-x="232" 
d="M186 387q37 0 57 -18t20 -50q0 -22 -8 -43q-45 -119 -141 -119q-9 0 -29 4q-20 6 -27 -12q-16 -41 -16 -59q0 -48 60 -50q39 0 71.5 26t48.5 55q9 17 24 18.5t23 -11t0 -28.5q-22 -45 -68 -78.5t-99 -33.5q-52 0 -84.5 25t-32.5 72q0 32 22 79l54 114q51 109 125 109z
M197 281q21 50 -11 54q-40 6 -72 -68l-13 -29q-10 -26 20 -26q47 0 76 69zM297 593l42 -91q11 -25 -9 -38q-18 -14 -32 6q-2 2 -3 5l-22 48q-8 17 -25 6l-91 -64q-17 -12 -30.5 -5.5t-12.5 21.5t14 27l128 91q9 8 22 7t19 -13z" />
    <glyph glyph-name="edieresis" unicode="&#xeb;" horiz-adv-x="232" 
d="M186 387q37 0 57 -18t20 -50q0 -22 -8 -43q-45 -119 -141 -119q-9 0 -29 4q-20 6 -27 -12q-16 -41 -16 -59q0 -48 60 -50q39 0 71.5 26t48.5 55q9 17 24 18.5t23 -11t0 -28.5q-22 -45 -68 -78.5t-99 -33.5q-52 0 -84.5 25t-32.5 72q0 32 22 79l54 114q51 109 125 109z
M197 281q21 50 -11 54q-40 6 -72 -68l-13 -29q-10 -26 20 -26q47 0 76 69zM218 457q-3 -16 -15.5 -26.5t-28.5 -10.5q-18 0 -27.5 12t-6.5 29q2 15 15 26.5t28 11.5q17 0 27.5 -13t7.5 -29zM318 457q-3 -16 -15.5 -26.5t-28.5 -10.5q-18 0 -27.5 12t-6.5 29q2 15 15 26.5
t28 11.5q17 0 27.5 -13t7.5 -29z" />
    <glyph glyph-name="igrave" unicode="&#xec;" horiz-adv-x="151" 
d="M58 -12q-83 0 -83 75q0 21 15 56l110 245q7 16 22.5 18t25.5 -10t2 -28l-112 -244q-11 -17 -8 -38.5t28 -21.5q16 0 29.5 8t25.5 25t15.5 24t11.5 22q12 22 34.5 13.5t13.5 -32.5q-17 -40 -52 -76t-78 -36zM183 464l-101 98q-14 12 -10 27t17.5 18t28.5 -9l97 -96l-1 1
q14 -11 11.5 -27t-15 -20t-27.5 8z" />
    <glyph glyph-name="iacute" unicode="&#xed;" horiz-adv-x="151" 
d="M58 -12q-83 0 -83 75q0 21 15 56l110 245q7 16 22.5 18t25.5 -10t2 -28l-112 -244q-11 -17 -8 -38.5t28 -21.5q16 0 29.5 8t25.5 25t15.5 24t11.5 22q12 22 34.5 13.5t13.5 -32.5q-17 -40 -52 -76t-78 -36zM196 464q-16 -11 -29.5 -4.5t-13.5 21t14 26.5l139 98
q16 12 30 5.5t13.5 -21t-15.5 -27.5h1z" />
    <glyph glyph-name="icircumflex" unicode="&#xee;" horiz-adv-x="151" 
d="M58 -12q-83 0 -83 75q0 21 15 56l110 245q7 16 22.5 18t25.5 -10t2 -28l-112 -244q-11 -17 -8 -38.5t28 -21.5q16 0 29.5 8t25.5 25t15.5 24t11.5 22q12 22 34.5 13.5t13.5 -32.5q-17 -40 -52 -76t-78 -36zM232 593l42 -91q11 -25 -9 -38q-18 -14 -32 6l-3 5l-22 48
q-8 17 -25 6l-91 -64q-17 -12 -30.5 -5.5t-12.5 21.5t14 27l128 91q9 8 22 7t19 -13z" />
    <glyph glyph-name="idieresis" unicode="&#xef;" horiz-adv-x="151" 
d="M58 -12q-83 0 -83 75q0 21 15 56l110 245q7 16 22.5 18t25.5 -10t2 -28l-112 -244q-11 -17 -8 -38.5t28 -21.5q16 0 29.5 8t25.5 25t15.5 24t11.5 22q12 22 34.5 13.5t13.5 -32.5q-17 -40 -52 -76t-78 -36zM147 476q-3 -16 -15.5 -26.5t-28.5 -10.5q-18 0 -27.5 12
t-6.5 29q2 15 15 26.5t28 11.5q17 0 27.5 -13t7.5 -29zM247 476q-3 -16 -15.5 -26.5t-28.5 -10.5q-18 0 -27.5 12t-6.5 29q2 15 15 26.5t28 11.5q17 0 27.5 -13t7.5 -29z" />
    <glyph glyph-name="eth" unicode="&#xf0;" horiz-adv-x="269" 
d="M203 438q-16 -11 -30 -4t-13 21t17 27l44 26q-9 12 -26 23q-19 11 -18.5 27t15.5 21.5t34 -3.5q25 -12 43 -39q15 9 48 27q25 13 37 -8.5t-11 -35.5q-47 -27 -53 -31q10 -33 10 -73q0 -93 -40 -176l-67 -143q-51 -109 -130 -109q-40 0 -64 19.5t-24 56.5q0 25 14 56
l74 158q51 109 130 109q26 0 47 -9l4 -4q3 21 3 40q0 25 -5 48zM213 269q12 26 20 59q-10 -4 -15 1q-11 6 -25 6q-42 0 -82 -83l-72 -154q-12 -20 -7.5 -39t31.5 -19q42 0 82 83z" />
    <glyph glyph-name="ntilde" unicode="&#xf1;" horiz-adv-x="306" 
d="M170 432q-16 -12 -30 -6.5t-14 19.5t14 28q24 19 50 19q17 0 45 -13q25 -13 44 -4q24 12 34.5 -9t-11.5 -35t-42 -14q-21 0 -43 12q-31 16 -47 3zM145 121l73 157q9 22 9 33q0 24 -29 24q-27 0 -50 -22.5t-33 -45.5l-76 -168q-7 -16 -17.5 -32.5t-27 -35.5t-39.5 -31
t-48 -12q-15 0 -21 13t0.5 26t20.5 13q45 0 82 79l113 246q9 18 26 18q21 0 23 -20q6 8 20 15.5t28 8.5q36 3 59 -18t23 -58q0 -27 -15 -57l-72 -155q-10 -21 -10 -36q0 -23 29 -23q43 0 82 79q12 22 34.5 13.5t13.5 -32.5q-17 -40 -52 -76t-78 -36q-83 0 -83 75q0 26 15 58
z" />
    <glyph glyph-name="ograve" unicode="&#xf2;" horiz-adv-x="269" 
d="M63 -12q-41 0 -64.5 19.5t-23.5 56.5q0 26 14 56l75 158q53 109 129 109q41 0 64.5 -19.5t23.5 -56.5q0 -27 -15 -57l-74 -157q-53 -109 -129 -109zM29 64q0 -24 34 -24q44 0 83 82l72 156q25 57 -25 57q-16 0 -30 -8.5t-25.5 -26.5t-15 -24.5t-12.5 -24.5l-72 -154
q-9 -18 -9 -33zM273 464l-101 98q-14 12 -10 27t17.5 18t28.5 -9l97 -96l-1 1q14 -11 11.5 -27t-15 -20t-27.5 8z" />
    <glyph glyph-name="oacute" unicode="&#xf3;" horiz-adv-x="269" 
d="M63 -12q-41 0 -64.5 19.5t-23.5 56.5q0 26 14 56l75 158q53 109 129 109q41 0 64.5 -19.5t23.5 -56.5q0 -27 -15 -57l-74 -157q-53 -109 -129 -109zM29 64q0 -24 34 -24q44 0 83 82l72 156q25 57 -25 57q-16 0 -30 -8.5t-25.5 -26.5t-15 -24.5t-12.5 -24.5l-72 -154
q-9 -18 -9 -33zM209 464q-16 -11 -29.5 -4.5t-13.5 21t14 26.5l139 98q16 12 30 5.5t13.5 -21t-15.5 -27.5h1z" />
    <glyph glyph-name="ocircumflex" unicode="&#xf4;" horiz-adv-x="269" 
d="M63 -12q-41 0 -64.5 19.5t-23.5 56.5q0 26 14 56l75 158q53 109 129 109q41 0 64.5 -19.5t23.5 -56.5q0 -27 -15 -57l-74 -157q-53 -109 -129 -109zM29 64q0 -24 34 -24q44 0 83 82l72 156q25 57 -25 57q-16 0 -30 -8.5t-25.5 -26.5t-15 -24.5t-12.5 -24.5l-72 -154
q-9 -18 -9 -33zM334 593l42 -91q11 -25 -9 -38q-18 -14 -32 6q-2 2 -3 5l-22 48q-8 17 -25 6l-91 -64q-17 -12 -30.5 -5.5t-12.5 21.5t14 27l128 91q9 8 22 7t19 -13z" />
    <glyph glyph-name="otilde" unicode="&#xf5;" horiz-adv-x="269" 
d="M63 -12q-41 0 -64.5 19.5t-23.5 56.5q0 26 14 56l75 158q53 109 129 109q41 0 64.5 -19.5t23.5 -56.5q0 -27 -15 -57l-74 -157q-53 -109 -129 -109zM29 64q0 -24 34 -24q44 0 83 82l72 156q25 57 -25 57q-16 0 -30 -8.5t-25.5 -26.5t-15 -24.5t-12.5 -24.5l-72 -154
q-9 -18 -9 -33zM193 432q-16 -12 -30 -6.5t-14 19.5t14 28q24 19 50 19q17 0 45 -13q25 -13 44 -4q24 12 34.5 -9t-11.5 -35t-42 -14q-21 0 -43 12q-31 16 -47 3z" />
    <glyph glyph-name="odieresis" unicode="&#xf6;" horiz-adv-x="269" 
d="M63 -12q-41 0 -64.5 19.5t-23.5 56.5q0 26 14 56l75 158q53 109 129 109q41 0 64.5 -19.5t23.5 -56.5q0 -27 -15 -57l-74 -157q-53 -109 -129 -109zM29 64q0 -24 34 -24q44 0 83 82l72 156q25 57 -25 57q-16 0 -30 -8.5t-25.5 -26.5t-15 -24.5t-12.5 -24.5l-72 -154
q-9 -18 -9 -33zM241 457q-3 -16 -15.5 -26.5t-28.5 -10.5q-18 0 -27.5 12t-6.5 29q2 15 15 26.5t28 11.5q17 0 27.5 -13t7.5 -29zM341 457q-3 -16 -15.5 -26.5t-28.5 -10.5q-18 0 -27.5 12t-6.5 29q2 15 15 26.5t28 11.5q17 0 27.5 -13t7.5 -29z" />
    <glyph glyph-name="divide" unicode="&#xf7;" horiz-adv-x="677" 
d="M341 381q44 0 128 -48.5t120 -48.5q46 0 68 31q11 11 21.5 2.5t0.5 -20.5q-31 -41 -90 -41q-46 0 -107 35q-22 13 -49 -8.5t-49 -56.5q13 5 27 5q40 0 64.5 -24t24.5 -62q0 -73 -76.5 -123.5t-177.5 -50.5q-36 0 -70 9q-14 0 -14 15t14 15q4 -1 10 0q18 18 18 55
q0 17 -7.5 57t-7.5 61q0 36 25.5 61t62.5 25q19 0 35 -12t20 -32q1 -8 -3.5 -12.5t-10.5 -3.5t-8 7q-7 23 -33 23q-25 0 -41.5 -16t-16.5 -40q0 -18 6 -58.5t6 -60.5q0 -15 -3 -30q-5 -27 -3 -30t21 -3q90 0 157 41.5t67 102.5q0 26 -16.5 41.5t-44.5 15.5t-45 -14
q-14 -11 -20 5q-5 18 8 40q38 59 73 77q10 7 10 8.5t-9 6.5q-51 28 -85 28q-51 0 -82 -33q-12 -13 -23.5 -4t1.5 22q43 43 104 43z" />
    <glyph glyph-name="oslash" unicode="&#xf8;" horiz-adv-x="269" 
d="M63 -12q-10 0 -24 2l-11 -18q-17 -29 -41 -22q-21 6 -15 30q1 7 6 14l13 20q-16 19 -16 50q0 26 14 56l75 158q53 109 129 109q14 0 26 -3l20 32q13 21 37 15q23 -6 18 -27q-2 -5 -5 -10l-23 -36q15 -18 15 -47q0 -27 -15 -57l-74 -157q-53 -109 -129 -109zM29 64
q0 -24 34 -24q44 0 83 82l72 156q25 57 -25 57q-16 0 -30 -8.5t-25.5 -26.5t-15 -24.5t-12.5 -24.5l-72 -154q-9 -18 -9 -33z" />
    <glyph glyph-name="ugrave" unicode="&#xf9;" 
d="M151 342l-113 -245q-9 -22 -9 -33q0 -24 34 -24q24 0 46 23t33 48l115 253q7 17 22.5 19.5t25 -9.5t1.5 -30l-111 -245q-10 -21 -10 -36q0 -23 29 -23q16 0 29.5 8t25.5 25t15.5 24t11.5 22q12 22 34.5 13.5t13.5 -32.5q-17 -40 -52 -76t-78 -36q-55 0 -74 35
q-33 -35 -77 -35q-41 0 -64.5 19.5t-23.5 56.5q0 20 15 55l112 245q8 17 23.5 19t24.5 -10.5t1 -30.5zM257 464l-101 98q-14 12 -10 27t17.5 18t28.5 -9l97 -96l-1 1q14 -11 11.5 -27t-15 -20t-27.5 8z" />
    <glyph glyph-name="uacute" unicode="&#xfa;" 
d="M151 342l-113 -245q-9 -22 -9 -33q0 -24 34 -24q24 0 46 23t33 48l115 253q7 17 22.5 19.5t25 -9.5t1.5 -30l-111 -245q-10 -21 -10 -36q0 -23 29 -23q16 0 29.5 8t25.5 25t15.5 24t11.5 22q12 22 34.5 13.5t13.5 -32.5q-17 -40 -52 -76t-78 -36q-55 0 -74 35
q-33 -35 -77 -35q-41 0 -64.5 19.5t-23.5 56.5q0 20 15 55l112 245q8 17 23.5 19t24.5 -10.5t1 -30.5zM214 464q-16 -11 -29.5 -4.5t-13.5 21t14 26.5l139 98q16 12 30 5.5t13.5 -21t-15.5 -27.5h1z" />
    <glyph glyph-name="ucircumflex" unicode="&#xfb;" 
d="M151 342l-113 -245q-9 -22 -9 -33q0 -24 34 -24q24 0 46 23t33 48l115 253q7 17 22.5 19.5t25 -9.5t1.5 -30l-111 -245q-10 -21 -10 -36q0 -23 29 -23q16 0 29.5 8t25.5 25t15.5 24t11.5 22q12 22 34.5 13.5t13.5 -32.5q-17 -40 -52 -76t-78 -36q-55 0 -74 35
q-33 -35 -77 -35q-41 0 -64.5 19.5t-23.5 56.5q0 20 15 55l112 245q8 17 23.5 19t24.5 -10.5t1 -30.5zM309 593l42 -91q11 -25 -9 -38q-18 -14 -32 6q-2 2 -3 5l-22 48q-8 17 -25 6l-91 -64q-17 -12 -30.5 -5.5t-12.5 21.5t14 27l128 91q9 8 22 7t19 -13z" />
    <glyph glyph-name="udieresis" unicode="&#xfc;" 
d="M151 342l-113 -245q-9 -22 -9 -33q0 -24 34 -24q24 0 46 23t33 48l115 253q7 17 22.5 19.5t25 -9.5t1.5 -30l-111 -245q-10 -21 -10 -36q0 -23 29 -23q16 0 29.5 8t25.5 25t15.5 24t11.5 22q12 22 34.5 13.5t13.5 -32.5q-17 -40 -52 -76t-78 -36q-55 0 -74 35
q-33 -35 -77 -35q-41 0 -64.5 19.5t-23.5 56.5q0 20 15 55l112 245q8 17 23.5 19t24.5 -10.5t1 -30.5zM233 457q-3 -16 -15.5 -26.5t-28.5 -10.5q-18 0 -27.5 12t-6.5 29q2 15 15 26.5t28 11.5q17 0 27.5 -13t7.5 -29zM333 457q-3 -16 -15.5 -26.5t-28.5 -10.5
q-18 0 -27.5 12t-6.5 29q2 15 15 26.5t28 11.5q17 0 27.5 -13t7.5 -29z" />
    <glyph glyph-name="yacute" unicode="&#xfd;" horiz-adv-x="291" 
d="M-10 119l112 245q7 16 23 18.5t25 -9t1 -29.5l-113 -247q-9 -22 -9 -33q0 -24 34 -24q43 0 83 80v-1l111 245q7 16 23 18.5t25 -9t1 -29.5l-172 -376q-94 -218 -239 -218q-65 0 -98 31.5t-33 77.5q0 39 30 74t78 36q18 0 25 -13t-0.5 -26t-24.5 -13q-25 -2 -39.5 -20
t-14.5 -38q0 -24 18.5 -40.5t58.5 -16.5q52 0 101.5 46.5t83.5 127.5l6 14q-14 -2 -23 -2q-41 0 -64.5 19.5t-23.5 56.5q0 27 15 56v-1zM198 -12q-16 0 -22.5 13t0 26t22.5 13t29.5 8t25.5 25t15.5 24t11.5 22q12 22 34.5 13.5t13.5 -32.5q-17 -40 -52 -76t-78 -36zM241 464
q-16 -11 -29.5 -4.5t-13.5 21t14 26.5l139 98q16 12 30 5.5t13.5 -21t-15.5 -27.5h1z" />
    <glyph glyph-name="thorn" unicode="&#xfe;" horiz-adv-x="276" 
d="M-171 -227l367 798q13 28 36 23q17 -4 14 -22q0 -2 -1 -4l-96 -209q-1 -3 0.5 -3t3.5 3q23 28 51 28q76 0 76 -76q0 -15 -15 -57l-74 -157q-49 -109 -129 -109q-41 0 -64 23q-44 -98 -58 -126v1l-59 -133q-9 -19 -25.5 -22.5t-26 9.5t-0.5 33zM196 335q-26 0 -47.5 -22
t-34.5 -49v1l-82 -181q-9 -16 -1.5 -30t31.5 -14q44 0 83 82l72 156q9 22 9 33q0 24 -30 24zM183 -12q-15 0 -21.5 13t0 26t21.5 13q43 0 82 79q12 22 34.5 13.5t13.5 -32.5q-17 -40 -52 -76t-78 -36z" />
    <glyph glyph-name="ydieresis" unicode="&#xff;" horiz-adv-x="291" 
d="M-10 119l112 245q7 16 23 18.5t25 -9t1 -29.5l-113 -247q-9 -22 -9 -33q0 -24 34 -24q43 0 83 80v-1l111 245q7 16 23 18.5t25 -9t1 -29.5l-172 -376q-94 -218 -239 -218q-65 0 -98 31.5t-33 77.5q0 39 30 74t78 36q18 0 25 -13t-0.5 -26t-24.5 -13q-25 -2 -39.5 -20
t-14.5 -38q0 -24 18.5 -40.5t58.5 -16.5q52 0 101.5 46.5t83.5 127.5l6 14q-14 -2 -23 -2q-41 0 -64.5 19.5t-23.5 56.5q0 27 15 56v-1zM198 -12q-16 0 -22.5 13t0 26t22.5 13t29.5 8t25.5 25t15.5 24t11.5 22q12 22 34.5 13.5t13.5 -32.5q-17 -40 -52 -76t-78 -36zM230 457
q-3 -16 -15.5 -26.5t-28.5 -10.5q-18 0 -27.5 12t-6.5 29q2 15 15 26.5t28 11.5q17 0 27.5 -13t7.5 -29zM330 457q-3 -16 -15.5 -26.5t-28.5 -10.5q-18 0 -27.5 12t-6.5 29q2 15 15 26.5t28 11.5q17 0 27.5 -13t7.5 -29z" />
    <glyph glyph-name="Amacron" unicode="&#x100;" horiz-adv-x="1083" 
d="M1352 667q20 -12 10 -33q-11 -22 -33 -16q-6 2 -12 6q-17 10 -45 12q-53 0 -99.5 -55.5t-79.5 -127.5l-194 -418q-20 -46 -20 -90q0 -56 43 -56q5 0 17 2q21 4 26 -17q5 -23 -16 -34l-10 -3q-12 -2 -20 -2q-48 0 -71 31t-23 79q0 55 26 110l70 150q7 18 -12 18h-142
q-14 0 -23 -4.5t-11.5 -7.5t-8.5 -13q-79 -128 -184.5 -209t-230.5 -81q-120 0 -205 77.5t-85 198.5q0 111 78 193.5t200 82.5q103 0 159 -52t56 -130q0 -68 -52 -113q-15 -13 -30.5 -8.5t-17 19.5t14.5 33q31 28 31 69q0 56 -42 92t-121 36q-97 0 -159.5 -66t-62.5 -156
q0 -95 71.5 -158.5t164.5 -63.5q78 0 157 49t136.5 115.5t104.5 147.5q38 64 79 120t96 111.5t112.5 94.5t128.5 63.5t144 24.5q50 0 85 -21zM1037 457q52 105 96 158q-206 -64 -355 -321q-4 -5 -1.5 -12.5t14.5 -7.5h140q21 0 29 18zM1140 759q-16 0 -22.5 13t0 26t22.5 13
h174q17 0 23.5 -13t0 -26t-23.5 -13h-174z" />
    <glyph glyph-name="amacron" unicode="&#x101;" 
d="M214 -12q-55 0 -74 35q-33 -35 -77 -35q-41 0 -64.5 19.5t-23.5 56.5q0 26 14 56l75 158q53 109 129 109q20 0 38.5 -8.5t25.5 -23.5q9 24 32 22q19 -3 19 -22q0 -5 -2 -11l-111 -245q-10 -21 -10 -36q0 -23 29 -23q16 0 29.5 8t25.5 25t15.5 24t11.5 22q12 22 34.5 13.5
t13.5 -32.5q-17 -40 -52 -76t-78 -36zM63 40q25 0 45 21.5t31 46.5l79 168q7 14 8 27t-7 22.5t-26 9.5q-16 0 -30 -8.5t-25.5 -26.5t-15 -24.5t-12.5 -24.5l-72 -154q-11 -19 -5.5 -38t30.5 -19zM153 436q-25 0 -25 26t25 26h174q17 0 23.5 -13t0 -26t-23.5 -13h-174z" />
    <glyph glyph-name="Abreve" unicode="&#x102;" horiz-adv-x="1083" 
d="M1352 667q20 -12 10 -33q-11 -22 -33 -16q-6 2 -12 6q-17 10 -45 12q-53 0 -99.5 -55.5t-79.5 -127.5l-194 -418q-20 -46 -20 -90q0 -56 43 -56q5 0 17 2q21 4 26 -17q5 -23 -16 -34l-10 -3q-12 -2 -20 -2q-48 0 -71 31t-23 79q0 55 26 110l70 150q7 18 -12 18h-142
q-14 0 -23 -4.5t-11.5 -7.5t-8.5 -13q-79 -128 -184.5 -209t-230.5 -81q-120 0 -205 77.5t-85 198.5q0 111 78 193.5t200 82.5q103 0 159 -52t56 -130q0 -68 -52 -113q-15 -13 -30.5 -8.5t-17 19.5t14.5 33q31 28 31 69q0 56 -42 92t-121 36q-97 0 -159.5 -66t-62.5 -156
q0 -95 71.5 -158.5t164.5 -63.5q78 0 157 49t136.5 115.5t104.5 147.5q38 64 79 120t96 111.5t112.5 94.5t128.5 63.5t144 24.5q50 0 85 -21zM1037 457q52 105 96 158q-206 -64 -355 -321q-4 -5 -1.5 -12.5t14.5 -7.5h140q21 0 29 18zM1193 805q-9 26 12 38q18 11 29 -7
q0 -2 1 -3q17 -36 54 -36q33 0 69 29q12 10 25 5t14 -17.5t-12 -25.5q-54 -43 -102 -43q-32 0 -56.5 16.5t-33.5 43.5z" />
    <glyph glyph-name="abreve" unicode="&#x103;" 
d="M214 -12q-55 0 -74 35q-33 -35 -77 -35q-41 0 -64.5 19.5t-23.5 56.5q0 26 14 56l75 158q53 109 129 109q20 0 38.5 -8.5t25.5 -23.5q9 24 32 22q19 -3 19 -22q0 -5 -2 -11l-111 -245q-10 -21 -10 -36q0 -23 29 -23q16 0 29.5 8t25.5 25t15.5 24t11.5 22q12 22 34.5 13.5
t13.5 -32.5q-17 -40 -52 -76t-78 -36zM63 40q25 0 45 21.5t31 46.5l79 168q7 14 8 27t-7 22.5t-26 9.5q-16 0 -30 -8.5t-25.5 -26.5t-15 -24.5t-12.5 -24.5l-72 -154q-11 -19 -5.5 -38t30.5 -19zM156 512q-9 26 12 38q18 11 29 -7q0 -2 1 -3q17 -36 54 -36q33 0 69 29
q12 10 25 5t14 -17.5t-12 -25.5q-54 -43 -102 -43q-32 0 -56.5 16.5t-33.5 43.5z" />
    <glyph glyph-name="Aogonek" unicode="&#x104;" horiz-adv-x="1083" 
d="M1352 667q20 -12 10 -33q-11 -22 -33 -16q-6 2 -12 6q-17 10 -45 12q-53 0 -99.5 -55.5t-79.5 -127.5l-194 -418q-20 -46 -20 -90q0 -56 43 -56q5 0 17 2q14 3 21.5 -7t4 -24t-17.5 -20q-41 -23 -41 -48q0 -23 27 -23q19 0 39 17q16 14 30 8.5t14.5 -20t-12.5 -29.5
q-32 -30 -71 -30q-38 0 -59.5 21.5t-21.5 55.5q0 30 20 54q-47 25 -47 99q0 55 26 110l70 150q7 18 -12 18h-142q-14 0 -23 -4.5t-11.5 -7.5t-8.5 -13q-79 -128 -184.5 -209t-230.5 -81q-120 0 -205 77.5t-85 198.5q0 111 78 193.5t200 82.5q103 0 159 -52t56 -130
q0 -68 -52 -113q-15 -13 -30.5 -8.5t-17 19.5t14.5 33q31 28 31 69q0 56 -42 92t-121 36q-97 0 -159.5 -66t-62.5 -156q0 -95 71.5 -158.5t164.5 -63.5q78 0 157 49t136.5 115.5t104.5 147.5q38 64 79 120t96 111.5t112.5 94.5t128.5 63.5t144 24.5q50 0 85 -21zM1037 457
q52 105 96 158q-206 -64 -355 -321q-4 -5 -1.5 -12.5t14.5 -7.5h140q21 0 29 18z" />
    <glyph glyph-name="aogonek" unicode="&#x105;" 
d="M344 100q-31 -71 -85 -100q-42 -23 -42 -48q0 -23 27 -23q19 0 39 17q16 14 30 8.5t14.5 -20t-12.5 -29.5q-32 -30 -71 -30q-38 0 -59.5 21.5t-21.5 55.5q0 21 12 42q-24 8 -35 29q-33 -35 -77 -35q-41 0 -64.5 19.5t-23.5 56.5q0 26 14 56l75 158q53 109 129 109
q20 0 38.5 -8.5t25.5 -23.5q9 24 32 22q19 -3 19 -22q0 -5 -2 -11l-111 -245q-10 -21 -10 -36q0 -23 29 -23q16 0 29.5 8t25.5 25t15.5 24t11.5 22q12 22 34.5 13.5t13.5 -32.5zM63 40q25 0 45 21.5t31 46.5l79 168q7 14 8 27t-7 22.5t-26 9.5q-16 0 -30 -8.5t-25.5 -26.5
t-15 -24.5t-12.5 -24.5l-72 -154q-11 -19 -5.5 -38t30.5 -19z" />
    <glyph glyph-name="Cacute" unicode="&#x106;" horiz-adv-x="718" 
d="M377 -131q-137 0 -220 97.5t-79 234.5q2 77 39.5 160.5t99 154t152.5 116t191 45.5q105 0 165 -52.5t61 -122.5q-2 -63 -49 -112.5t-114 -49.5t-97 34t-28 82q0 27 20 52q14 17 31 17.5t22 -12.5t-5 -31q-14 -19 -14 -32q-1 -23 17.5 -40t56.5 -17q44 0 75 32t32 72
q2 50 -44.5 88.5t-130.5 38.5q-89 0 -169.5 -40.5t-134.5 -103t-86.5 -136.5t-34.5 -142q-3 -108 65.5 -193.5t180.5 -85.5q87 0 148 52.5t69 120.5q6 46 -22 81t-76 35q-41 1 -66.5 -18.5t-27.5 -45.5q-1 -20 -14.5 -28.5t-25.5 0t-11 28.5q2 46 45 82.5t108 35.5
q71 0 112 -53.5t31 -121.5q-13 -86 -89 -154t-183 -68zM644 757q-16 -11 -29.5 -4.5t-13.5 21t14 26.5l139 98q16 12 30 5.5t13.5 -21t-15.5 -27.5h1z" />
    <glyph glyph-name="cacute" unicode="&#x107;" horiz-adv-x="232" 
d="M186 387q37 0 59.5 -18.5t22.5 -50.5q0 -28 -18 -65q-13 -26 -38 -21q-21 4 -20 25q0 7 5 16q14 28 14 45t-25 17q-19 0 -36 -16t-23.5 -28.5t-18.5 -37.5l-52 -110q-14 -29 -14 -53q0 -50 60 -50q39 0 71.5 26t48.5 55q13 23 34.5 13.5t11.5 -34.5q-19 -45 -65.5 -78.5
t-100.5 -33.5q-52 0 -84.5 25t-32.5 72q0 32 22 79l54 114q51 109 125 109zM202 464q-16 -11 -29.5 -4.5t-13.5 21t14 26.5l139 98q16 12 30 5.5t13.5 -21t-15.5 -27.5h1z" />
    <glyph glyph-name="Ccaron" unicode="&#x10c;" horiz-adv-x="718" 
d="M377 -131q-137 0 -220 97.5t-79 234.5q2 77 39.5 160.5t99 154t152.5 116t191 45.5q105 0 165 -52.5t61 -122.5q-2 -63 -49 -112.5t-114 -49.5t-97 34t-28 82q0 27 20 52q14 17 31 17.5t22 -12.5t-5 -31q-14 -19 -14 -32q-1 -23 17.5 -40t56.5 -17q44 0 75 32t32 72
q2 50 -44.5 88.5t-130.5 38.5q-89 0 -169.5 -40.5t-134.5 -103t-86.5 -136.5t-34.5 -142q-3 -108 65.5 -193.5t180.5 -85.5q87 0 148 52.5t69 120.5q6 46 -22 81t-76 35q-41 1 -66.5 -18.5t-27.5 -45.5q-1 -20 -14.5 -28.5t-25.5 0t-11 28.5q2 46 45 82.5t108 35.5
q71 0 112 -53.5t31 -121.5q-13 -86 -89 -154t-183 -68zM604 750l-42 91q-11 25 9 38q18 14 32 -6q2 -2 3 -5l22 -48q8 -17 25 -6l91 64q17 12 30.5 5.5t12.5 -21.5t-14 -27l-128 -91q-9 -8 -22 -7t-19 13z" />
    <glyph glyph-name="ccaron" unicode="&#x10d;" horiz-adv-x="232" 
d="M186 387q37 0 59.5 -18.5t22.5 -50.5q0 -28 -18 -65q-13 -26 -38 -21q-21 4 -20 25q0 7 5 16q14 28 14 45t-25 17q-19 0 -36 -16t-23.5 -28.5t-18.5 -37.5l-52 -110q-14 -29 -14 -53q0 -50 60 -50q39 0 71.5 26t48.5 55q13 23 34.5 13.5t11.5 -34.5q-19 -45 -65.5 -78.5
t-100.5 -33.5q-52 0 -84.5 25t-32.5 72q0 32 22 79l54 114q51 109 125 109zM212 457l-42 91q-11 25 9 38q18 14 32 -6l3 -5l22 -48q8 -17 25 -6l91 64q17 12 30.5 5.5t12.5 -21.5t-14 -27l-128 -91q-9 -8 -22 -7t-19 13z" />
    <glyph glyph-name="Dcaron" unicode="&#x10e;" horiz-adv-x="974" 
d="M740 658q105 -47 161.5 -131.5t56.5 -182.5q0 -84 -35 -163.5t-95 -139.5t-147 -96t-185 -36q-34 0 -74 9.5t-66.5 19t-71.5 28.5q-67 -39 -161 -40q-18 0 -38.5 4t-44 12t-38.5 24.5t-15 39.5q0 27 28.5 47t69.5 20q75 0 193 -47q31 23 60 63t45.5 71.5t46.5 95.5v-1
l82 182q50 112 94 177q15 22 -6 27q-34 5 -85 5q-86 0 -160 -22t-123.5 -57t-85 -80.5t-51.5 -91.5t-16 -90q0 -56 29 -102.5t79 -67.5q16 -7 18 -21.5t-10 -24.5t-30 -4q-68 25 -104.5 85t-36.5 136q0 50 19 103t59.5 105t96.5 93.5t138.5 67t177.5 25.5q130 0 225 -42z
M902 344q0 87 -52.5 160.5t-150.5 110.5q-11 6 -19.5 4.5t-18.5 -15.5q-36 -48 -100 -186l-82 -179q-73 -157 -136 -228q-8 -9 5 -13q105 -35 148 -35q115 0 209 53.5t145.5 140.5t51.5 187zM197 -12q4 1 6 3t0.5 4t-6.5 4q-69 23 -114 23q-20 0 -31.5 -5t-11.5 -11
q0 -26 83 -26q39 0 74 8zM696 750l-42 91q-11 25 9 38q18 14 32 -6q2 -2 3 -5l22 -48q8 -17 25 -6l91 64q17 12 30.5 5.5t12.5 -21.5t-14 -27l-128 -91q-9 -8 -22 -7t-19 13z" />
    <glyph glyph-name="dcaron" unicode="&#x10f;" horiz-adv-x="457" 
d="M411 568l-216 -469q-6 -14 -8.5 -26t3.5 -22.5t24 -10.5q16 0 29.5 8t25.5 25t15.5 24t11.5 22q12 22 34.5 13.5t13.5 -32.5q-17 -40 -52 -76t-78 -36q-27 0 -45 9v-1q-9 5 -16 10q-9 7 -13 17q-33 -35 -77 -35q-41 0 -64.5 19.5t-23.5 56.5q0 26 14 56l75 158
q53 109 129 109q45 0 62 -29l107 231q8 17 25 20t24.5 -8.5t-0.5 -32.5zM146 121l66 143l10 22q8 17 1 33t-30 16q-16 0 -30 -8.5t-25.5 -26.5t-15 -24.5t-12.5 -24.5l-72 -154q-11 -19 -5.5 -38t30.5 -19q47 0 83 81zM546 605q20 0 31.5 -12.5t11.5 -31.5q0 -33 -29.5 -64
t-65.5 -50q-24 -12 -34 4q-8 14 7 25l2 1q38 19 59 44q-13 1 -21.5 13t-8.5 25q0 18 14.5 32t33.5 14z" />
    <glyph glyph-name="Dcroat" unicode="&#x110;" horiz-adv-x="974" 
d="M383 268q-18 0 -24.5 13t1 26t23.5 13h56q20 0 28 18l45 99q50 112 94 177q15 22 -6 27q-34 5 -85 5q-86 0 -160 -22t-123.5 -57t-85 -80.5t-51.5 -91.5t-16 -90q0 -56 29 -102.5t79 -67.5q16 -7 18 -21.5t-10 -24.5t-30 -4q-68 25 -104.5 85t-36.5 136q0 50 19 103
t59.5 105t96.5 93.5t138.5 67t177.5 25.5q130 0 225 -42q105 -47 161.5 -131.5t56.5 -182.5q0 -84 -35 -163.5t-95 -139.5t-147 -96t-185 -36q-34 0 -74 9.5t-66.5 19t-71.5 28.5q-67 -39 -161 -40q-18 0 -38.5 4t-44 12t-38.5 24.5t-15 39.5q0 27 28.5 47t69.5 20
q75 0 193 -47q45 33 78.5 86.5t72.5 137.5q8 18 -13 18h-33zM902 344q0 87 -52.5 160.5t-150.5 110.5q-11 6 -19.5 4.5t-18.5 -15.5q-36 -48 -100 -186l-37 -80q-7 -18 12 -18h26q20 0 28 -13t0 -26t-28 -13h-50q-20 0 -28 -18l-5 -11q-73 -157 -136 -228q-8 -9 5 -13
q105 -35 148 -35q115 0 209 53.5t145.5 140.5t51.5 187zM197 -12q4 1 6 3t0.5 4t-6.5 4q-69 23 -114 23q-20 0 -31.5 -5t-11.5 -11q0 -26 83 -26q39 0 74 8z" />
    <glyph glyph-name="dcroat" unicode="&#x111;" 
d="M411 568l-30 -64h27q23 0 23 -19q1 -20 -22 -28l-15 -3h-36l-163 -355q-6 -14 -8.5 -26t3.5 -22.5t24 -10.5q16 0 29.5 8t25.5 25t15.5 24t11.5 22q12 22 34.5 13.5t13.5 -32.5q-17 -40 -52 -76t-78 -36q-27 0 -45 9v-1q-9 5 -16 10q-9 7 -13 17q-33 -35 -77 -35
q-41 0 -64.5 19.5t-23.5 56.5q0 26 14 56l75 158q53 109 129 109q45 0 62 -29l44 96h-23q-25 0 -25 19t23 28l16 3h32l40 85q8 17 25 20t24.5 -8.5t-0.5 -32.5zM146 121l66 143l10 22q8 17 1 33t-30 16q-16 0 -30 -8.5t-25.5 -26.5t-15 -24.5t-12.5 -24.5l-72 -154
q-11 -19 -5.5 -38t30.5 -19q47 0 83 81z" />
    <glyph glyph-name="Emacron" unicode="&#x112;" horiz-adv-x="700" 
d="M335 -148q-73 0 -128.5 22t-86 58t-44.5 77t-13 85q2 88 74.5 165t188.5 98q-38 58 -37 128q2 92 85.5 159.5t192.5 67.5q103 0 166.5 -51.5t64.5 -119.5q0 -64 -46.5 -114.5t-114.5 -50.5q-62 -1 -96.5 33t-32.5 78q0 45 26 68q23 19 40.5 2.5t-1.5 -37.5
q-12 -12 -12 -33q-1 -24 19 -41.5t57 -16.5q44 0 75.5 32.5t31.5 74.5q1 49 -49 86.5t-130 37.5q-88 0 -155 -52t-68 -123q-2 -49 23 -79t75 -31h18q15 0 23 -8.5t8 -20.5t-8 -20t-22 -8h-23q-125 7 -217.5 -63.5t-100.5 -160.5q2 -72 59 -129t159 -57q87 0 146.5 52
t65.5 120q5 45 -24 80t-76 35q-40 1 -65.5 -18.5t-26.5 -44.5q-1 -15 -9 -23.5t-19 -8.5q-25 0 -25 32q1 46 43 83t108 36q71 0 113.5 -54t35.5 -122q-12 -86 -87 -154.5t-181 -68.5zM490 729q-16 0 -22.5 13t0 26t22.5 13h174q17 0 23.5 -13t0 -26t-23.5 -13h-174z" />
    <glyph glyph-name="emacron" unicode="&#x113;" horiz-adv-x="232" 
d="M186 387q37 0 57 -18t20 -50q0 -22 -8 -43q-45 -119 -141 -119q-9 0 -29 4q-20 6 -27 -12q-16 -41 -16 -59q0 -48 60 -50q39 0 71.5 26t48.5 55q9 17 24 18.5t23 -11t0 -28.5q-22 -45 -68 -78.5t-99 -33.5q-52 0 -84.5 25t-32.5 72q0 32 22 79l54 114q51 109 125 109z
M197 281q21 50 -11 54q-40 6 -72 -68l-13 -29q-10 -26 20 -26q47 0 76 69zM123 436q-25 0 -25 26t25 26h174q17 0 23.5 -13t0 -26t-23.5 -13h-174z" />
    <glyph glyph-name="Edotaccent" unicode="&#x116;" horiz-adv-x="700" 
d="M335 -148q-73 0 -128.5 22t-86 58t-44.5 77t-13 85q2 88 74.5 165t188.5 98q-38 58 -37 128q2 92 85.5 159.5t192.5 67.5q103 0 166.5 -51.5t64.5 -119.5q0 -64 -46.5 -114.5t-114.5 -50.5q-62 -1 -96.5 33t-32.5 78q0 45 26 68q23 19 40.5 2.5t-1.5 -37.5
q-12 -12 -12 -33q-1 -24 19 -41.5t57 -16.5q44 0 75.5 32.5t31.5 74.5q1 49 -49 86.5t-130 37.5q-88 0 -155 -52t-68 -123q-2 -49 23 -79t75 -31h18q15 0 23 -8.5t8 -20.5t-8 -20t-22 -8h-23q-125 7 -217.5 -63.5t-100.5 -160.5q2 -72 59 -129t159 -57q87 0 146.5 52
t65.5 120q5 45 -24 80t-76 35q-40 1 -65.5 -18.5t-26.5 -44.5q-1 -15 -9 -23.5t-19 -8.5q-25 0 -25 32q1 46 43 83t108 36q71 0 113.5 -54t35.5 -122q-12 -86 -87 -154.5t-181 -68.5zM669 790q-3 -16 -15 -26t-27 -10q-17 0 -25.5 11.5t-6.5 27.5q3 15 15 26t26 11
q16 0 26 -12t7 -28z" />
    <glyph glyph-name="edotaccent" unicode="&#x117;" horiz-adv-x="232" 
d="M186 387q37 0 57 -18t20 -50q0 -22 -8 -43q-45 -119 -141 -119q-9 0 -29 4q-20 6 -27 -12q-16 -41 -16 -59q0 -48 60 -50q39 0 71.5 26t48.5 55q9 17 24 18.5t23 -11t0 -28.5q-22 -45 -68 -78.5t-99 -33.5q-52 0 -84.5 25t-32.5 72q0 32 22 79l54 114q51 109 125 109z
M197 281q21 50 -11 54q-40 6 -72 -68l-13 -29q-10 -26 20 -26q47 0 76 69zM253 448q-3 -16 -15 -26t-27 -10q-17 0 -25.5 11.5t-6.5 27.5q3 15 15 26t26 11q16 0 26 -12t7 -28z" />
    <glyph glyph-name="Eogonek" unicode="&#x118;" horiz-adv-x="700" 
d="M335 -148q-73 0 -128.5 22t-86 58t-44.5 77t-13 85q2 88 74.5 165t188.5 98q-38 58 -37 128q2 92 85.5 159.5t192.5 67.5q103 0 166.5 -51.5t64.5 -119.5q0 -64 -46.5 -114.5t-114.5 -50.5q-62 0 -96.5 33.5t-32.5 77.5q0 45 26 68q23 19 40.5 2.5t-1.5 -37.5
q-12 -12 -12 -33q-1 -24 19 -41t57 -17q44 0 75.5 32.5t31.5 74.5q1 49 -49 86.5t-130 37.5q-88 0 -155 -52t-68 -123q-2 -49 23 -79t75 -31h18q15 0 23 -8.5t8 -20.5t-8 -20t-22 -8h-23q-125 7 -217.5 -63.5t-100.5 -160.5q2 -72 59 -129t159 -57q87 0 146.5 52t65.5 120
q5 45 -24 80t-76 35q-40 1 -65.5 -18.5t-26.5 -44.5q-1 -15 -9 -23.5t-19 -8.5q-25 0 -25 32q1 46 43 83t108 36q71 0 113.5 -54t35.5 -122q-9 -57 -46 -109t-95 -83q-29 -20 -29 -40q0 -23 27 -23q19 0 39 17q16 14 30 8.5t14.5 -20t-12.5 -29.5q-32 -30 -71 -30
q-38 0 -59.5 21.5t-21.5 55.5q0 9 1 13q-20 -4 -45 -4z" />
    <glyph glyph-name="eogonek" unicode="&#x119;" horiz-adv-x="232" 
d="M186 387q37 0 57 -18t20 -50q0 -22 -8 -43q-45 -119 -141 -119q-9 0 -29 4q-20 6 -27 -12q-16 -41 -16 -59q0 -48 60 -50q39 0 71.5 26t48.5 55q9 17 24 18.5t23 -11t0 -28.5q-35 -72 -108 -100q-41 -23 -41 -48q0 -23 27 -23q19 0 39 17q16 14 30 8.5t14.5 -20
t-12.5 -29.5q-32 -30 -71 -30q-38 0 -59.5 21.5t-21.5 55.5q0 19 10 38q-42 5 -66.5 29.5t-24.5 65.5q0 32 22 79l54 114q51 109 125 109zM197 281q21 50 -11 54q-40 6 -72 -68l-13 -29q-10 -26 20 -26q47 0 76 69z" />
    <glyph glyph-name="Ecaron" unicode="&#x11a;" horiz-adv-x="700" 
d="M335 -148q-73 0 -128.5 22t-86 58t-44.5 77t-13 85q2 88 74.5 165t188.5 98q-38 58 -37 128q2 92 85.5 159.5t192.5 67.5q103 0 166.5 -51.5t64.5 -119.5q0 -64 -46.5 -114.5t-114.5 -50.5q-62 -1 -96.5 33t-32.5 78q0 45 26 68q23 19 40.5 2.5t-1.5 -37.5
q-12 -12 -12 -33q-1 -24 19 -41.5t57 -16.5q44 0 75.5 32.5t31.5 74.5q1 49 -49 86.5t-130 37.5q-88 0 -155 -52t-68 -123q-2 -49 23 -79t75 -31h18q15 0 23 -8.5t8 -20.5t-8 -20t-22 -8h-23q-125 7 -217.5 -63.5t-100.5 -160.5q2 -72 59 -129t159 -57q87 0 146.5 52
t65.5 120q5 45 -24 80t-76 35q-40 1 -65.5 -18.5t-26.5 -44.5q-1 -15 -9 -23.5t-19 -8.5q-25 0 -25 32q1 46 43 83t108 36q71 0 113.5 -54t35.5 -122q-12 -86 -87 -154.5t-181 -68.5zM536 750l-42 91q-11 25 9 38q18 14 32 -6q2 -2 3 -5l22 -48q8 -17 25 -6l91 64
q17 12 30.5 5.5t12.5 -21.5t-14 -27l-128 -91q-9 -8 -22 -7t-19 13z" />
    <glyph glyph-name="ecaron" unicode="&#x11b;" horiz-adv-x="232" 
d="M186 387q37 0 57 -18t20 -50q0 -22 -8 -43q-45 -119 -141 -119q-9 0 -29 4q-20 6 -27 -12q-16 -41 -16 -59q0 -48 60 -50q39 0 71.5 26t48.5 55q9 17 24 18.5t23 -11t0 -28.5q-22 -45 -68 -78.5t-99 -33.5q-52 0 -84.5 25t-32.5 72q0 32 22 79l54 114q51 109 125 109z
M197 281q21 50 -11 54q-40 6 -72 -68l-13 -29q-10 -26 20 -26q47 0 76 69zM183 457l-42 91q-11 25 9 38q18 14 32 -6l3 -5l22 -48q8 -17 25 -6l91 64q17 12 30.5 5.5t12.5 -21.5t-14 -27l-128 -91q-9 -8 -22 -7t-19 13z" />
    <glyph glyph-name="Gbreve" unicode="&#x11e;" horiz-adv-x="649" 
d="M481 540q18 20 36.5 7t0.5 -39q-10 -15 -10 -29q1 -20 16.5 -33.5t47.5 -14.5q38 0 63.5 28.5t25.5 66.5q0 41 -43 71t-116 30q-79 0 -151 -37.5t-120 -94.5t-76.5 -123.5t-28.5 -126.5q0 -83 52 -142.5t143 -59.5q52 0 97 19t76.5 50t52 60t35.5 60l20 42q14 28 37 25
q20 -3 17 -24q0 -6 -4 -14l-139 -307q-93 -206 -239 -206q-65 0 -98 31.5t-33 77.5q0 39 30.5 74.5t78.5 35.5q19 0 27 -12.5t0 -25.5t-28 -13q-23 0 -39 -18t-14 -41q4 -57 76 -57q53 0 102.5 42.5t83.5 119.5l30 66q5 9 0.5 9t-9.5 -4q-70 -43 -160 -43q-114 0 -181 76
t-67 179q0 68 32 143.5t86.5 140.5t136.5 107.5t173 42.5q97 0 154.5 -45t58.5 -107q0 -57 -40.5 -102.5t-101.5 -45.5q-55 0 -85 30t-30 70q0 35 24 61zM476 805q-9 26 12 38q18 11 29 -7q0 -2 1 -3q17 -36 54 -36q33 0 69 29q12 10 25 5t14 -17.5t-12 -25.5
q-54 -43 -102 -43q-32 0 -56.5 16.5t-33.5 43.5z" />
    <glyph glyph-name="gbreve" unicode="&#x11f;" horiz-adv-x="291" 
d="M-128 -31q17 0 24 -13t0 -26t-24 -13q-25 -2 -39.5 -20t-14.5 -38q0 -24 18.5 -40.5t58.5 -16.5q51 0 105.5 52.5t89.5 134.5l6 14q-14 -15 -33 -15q-41 0 -64.5 19.5t-23.5 56.5q0 19 14 56l75 158q49 109 129 109q47 0 64 -31q6 14 21 19.5t24.5 -3t3.5 -28.5l-40 -88
l-132 -289q-100 -217 -239 -217q-65 0 -98 31.5t-33 77.5q0 39 30 74t78 36zM63 40q46 0 82 79l72 157q8 17 8 28q0 31 -32 31q-46 0 -83 -84l-72 -154q-9 -22 -9 -33q0 -24 34 -24zM198 -12q-16 0 -22 13t1 26t21 13q16 0 29.5 8t25.5 25t15.5 24t11.5 22q12 22 34.5 13.5
t13.5 -32.5q-17 -40 -52 -76t-78 -36zM166 512q-9 26 12 38q18 11 29 -7q0 -2 1 -3q17 -36 54 -36q33 0 69 29q12 10 25 5t14 -17.5t-12 -25.5q-54 -43 -102 -43q-32 0 -56.5 16.5t-33.5 43.5z" />
    <glyph glyph-name="Gcommaaccent" unicode="&#x122;" horiz-adv-x="649" 
d="M224 -282q20 0 31.5 -12.5t11.5 -31.5q0 -33 -29.5 -64t-65.5 -50q-24 -12 -34 4q-8 14 7 25l2 1q38 19 59 44q-13 1 -21.5 13t-8.5 25q0 18 14.5 32t33.5 14zM481 540q18 20 36.5 7t0.5 -39q-10 -15 -10 -29q1 -20 16.5 -33.5t47.5 -14.5q38 0 63.5 28.5t25.5 66.5
q0 41 -43 71t-116 30q-79 0 -151 -37.5t-120 -94.5t-76.5 -123.5t-28.5 -126.5q0 -83 52 -142.5t143 -59.5q52 0 97 19t76.5 50t52 60t35.5 60l20 42q14 28 37 25q20 -3 17 -24q0 -6 -4 -14l-139 -307q-93 -206 -239 -206q-65 0 -98 31.5t-33 77.5q0 39 30.5 74.5t78.5 35.5
q19 0 27 -12.5t0 -25.5t-28 -13q-23 0 -39 -18t-14 -41q4 -57 76 -57q53 0 102.5 42.5t83.5 119.5l30 66q5 9 0.5 9t-9.5 -4q-70 -43 -160 -43q-114 0 -181 76t-67 179q0 68 32 143.5t86.5 140.5t136.5 107.5t173 42.5q97 0 154.5 -45t58.5 -107q0 -57 -40.5 -102.5
t-101.5 -45.5q-55 0 -85 30t-30 70q0 35 24 61z" />
    <glyph glyph-name="gcommaaccent" unicode="&#x123;" horiz-adv-x="291" 
d="M-128 -31q17 0 24 -13t0 -26t-24 -13q-25 -2 -39.5 -20t-14.5 -38q0 -24 18.5 -40.5t58.5 -16.5q51 0 105.5 52.5t89.5 134.5l6 14q-14 -15 -33 -15q-41 0 -64.5 19.5t-23.5 56.5q0 19 14 56l75 158q49 109 129 109q47 0 64 -31q6 14 21 19.5t24.5 -3t3.5 -28.5l-40 -88
l-132 -289q-100 -217 -239 -217q-65 0 -98 31.5t-33 77.5q0 39 30 74t78 36zM63 40q46 0 82 79l72 157q8 17 8 28q0 31 -32 31q-46 0 -83 -84l-72 -154q-9 -22 -9 -33q0 -24 34 -24zM198 -12q-16 0 -22 13t1 26t21 13q16 0 29.5 8t25.5 25t15.5 24t11.5 22q12 22 34.5 13.5
t13.5 -32.5q-17 -40 -52 -76t-78 -36zM246 451q-20 0 -31.5 12.5t-11.5 31.5q0 33 29.5 64t65.5 50q24 12 34 -4q8 -14 -7 -25q-1 0 -2 -1q-38 -19 -59 -44q13 -1 21.5 -13t8.5 -25q0 -18 -14.5 -32t-33.5 -14z" />
    <glyph glyph-name="Imacron" unicode="&#x12a;" horiz-adv-x="580" 
d="M578 681q72 0 128 -20q23 -8 30.5 -22t3.5 -24.5t-12 -18.5q-38 -30 -65.5 -60t-35.5 -44q-19 -31 -94 -193q-68 -149 -101 -200q-92 -145 -226 -167q-26 -4 -54 -4q-53 0 -94.5 21.5t-55.5 56.5q-10 24 0 37.5t26.5 9t23.5 -25.5q6 -20 33.5 -32.5t66.5 -12.5q28 0 54 6
t47 14t42 24.5t35.5 30t32 38t27.5 40t25.5 45t22.5 45t22 47.5t21 45q3 5 30 64.5t40.5 86.5t40 68t49.5 63q9 8 7 13.5t-20 9.5q-24 5 -50 5q-96 0 -160 -66.5t-64 -165.5q0 -35 9 -63q8 -17 -3 -30t-28 -11t-24 23q-13 39 -13 81q0 119 82 202.5t201 83.5zM588 729
q-16 0 -22.5 13t0 26t22.5 13h174q17 0 23.5 -13t0 -26t-23.5 -13h-174z" />
    <glyph glyph-name="imacron" unicode="&#x12b;" horiz-adv-x="151" 
d="M58 -12q-83 0 -83 75q0 21 15 56l110 245q7 16 22.5 18t25.5 -10t2 -28l-112 -244q-11 -17 -8 -38.5t28 -21.5q16 0 29.5 8t25.5 25t15.5 24t11.5 22q12 22 34.5 13.5t13.5 -32.5q-17 -40 -52 -76t-78 -36zM65 436q-25 0 -25 26t25 26h174q17 0 23.5 -13t0 -26t-23.5 -13
h-174z" />
    <glyph glyph-name="Iogonek" unicode="&#x12e;" horiz-adv-x="580" 
d="M578 681q72 0 128 -20q23 -8 30.5 -22t3.5 -24.5t-12 -18.5q-38 -30 -65.5 -60t-35.5 -44q-19 -31 -94 -193q-4 -8 -11 -24q-25 -55 -39 -84.5t-41.5 -76.5t-51.5 -74t-60 -54t-76 -41q-23 -9 -34 -23.5t-11 -27.5q0 -23 27 -23q19 0 39 17q16 14 30 8.5t14.5 -20
t-12.5 -29.5q-32 -30 -71 -30q-38 0 -59.5 21.5t-21.5 55.5q0 19 8 35q-2 0 -6 -0.5t-5 -0.5q-53 0 -94.5 21.5t-55.5 56.5q-10 24 0 37.5t26.5 9t23.5 -25.5q6 -20 33.5 -32.5t66.5 -12.5q28 0 54 6t47 14t42 24.5t35.5 30t32 38t27.5 40t25.5 45t22.5 45t22 47.5t21 45
q3 5 30 64.5t40.5 86.5t40 68t49.5 63q9 8 7 13.5t-20 9.5q-24 5 -50 5q-96 0 -160 -66.5t-64 -165.5q0 -35 9 -63q8 -17 -3 -30t-28 -11t-24 23q-13 39 -13 81q0 119 82 202.5t201 83.5z" />
    <glyph glyph-name="iogonek" unicode="&#x12f;" horiz-adv-x="151" 
d="M58 40q27 0 45.5 21.5t36.5 57.5q12 22 34.5 13.5t13.5 -32.5q-33 -76 -91 -102q-37 -23 -37 -46t27 -23q19 0 39 17q16 14 30 8.5t14.5 -20t-12.5 -29.5q-32 -30 -71 -30q-38 0 -59.5 21.5t-21.5 55.5q0 22 12 42q-43 16 -43 69q0 23 14 56l111 245q7 16 22.5 18
t25.5 -10t2 -28l-112 -244q-11 -17 -8 -38.5t28 -21.5zM223 471q-3 -17 -16.5 -28.5t-30.5 -11.5q-19 0 -29.5 13t-7.5 31q3 17 16.5 29t29.5 12q19 0 30.5 -13.5t7.5 -31.5z" />
    <glyph glyph-name="Idotaccent" unicode="&#x130;" horiz-adv-x="580" 
d="M578 681q72 0 128 -20q23 -8 30.5 -22t3.5 -24.5t-12 -18.5q-38 -30 -65.5 -60t-35.5 -44q-19 -31 -94 -193q-68 -149 -101 -200q-92 -145 -226 -167q-26 -4 -54 -4q-53 0 -94.5 21.5t-55.5 56.5q-10 24 0 37.5t26.5 9t23.5 -25.5q6 -20 33.5 -32.5t66.5 -12.5q28 0 54 6
t47 14t42 24.5t35.5 30t32 38t27.5 40t25.5 45t22.5 45t22 47.5t21 45q3 5 30 64.5t40.5 86.5t40 68t49.5 63q9 8 7 13.5t-20 9.5q-24 5 -50 5q-96 0 -160 -66.5t-64 -165.5q0 -35 9 -63q8 -17 -3 -30t-28 -11t-24 23q-13 39 -13 81q0 119 82 202.5t201 83.5zM719 741
q-3 -16 -15 -26t-27 -10q-17 0 -25.5 11.5t-6.5 27.5q3 15 15 26t26 11q16 0 26 -12t7 -28z" />
    <glyph glyph-name="dotlessi" unicode="&#x131;" horiz-adv-x="151" 
d="M58 -12q-83 0 -83 75q0 21 15 56l110 245q7 16 22.5 18t25.5 -10t2 -28l-112 -244q-11 -17 -8 -38.5t28 -21.5q16 0 29.5 8t25.5 25t15.5 24t11.5 22q12 22 34.5 13.5t13.5 -32.5q-17 -40 -52 -76t-78 -36z" />
    <glyph glyph-name="Kcommaaccent" unicode="&#x136;" horiz-adv-x="861" 
d="M491 -62q20 0 31.5 -12.5t11.5 -31.5q0 -33 -29.5 -64t-65.5 -50q-24 -12 -33 4q-9 14 6 25q1 0 2 1q38 19 59 44q-13 1 -21.5 13t-8.5 25q0 18 14.5 32t33.5 14zM553 154q-13 24 -4 44.5t34 20.5q33 6 66 27.5t69 63.5t59.5 73t63.5 89q33 47 53 74t51.5 64.5t55.5 57
t54.5 34.5t58.5 15t54 -12q18 -9 20 -25t-10.5 -23.5t-33.5 0.5q-14 6 -30 6q-26 0 -53.5 -16.5t-60 -54t-54.5 -66.5t-61 -84q-43 -60 -67.5 -92t-63.5 -76.5t-76 -70t-74 -35.5q21 -42 66 -149q18 -46 29 -72.5t31 -67.5t36.5 -65t41.5 -53t50 -44.5t59 -26.5t72 -11
q67 0 111.5 35t44.5 79q0 45 -35 74q-20 22 -4 39.5t37 5.5q26 -18 41 -50t15 -65q0 -75 -63.5 -123.5t-146.5 -48.5q-46 0 -86.5 12t-71 29.5t-59.5 49.5t-47.5 58.5t-40.5 71.5t-34 73.5t-31 77.5h1l-13 29q-44 110 -54 128zM524 282l-50 -108q-42 -91 -84.5 -148.5
t-101.5 -90.5q53 -26 95 -36q27 -6 22 -29q-5 -19 -24 -23q-8 -1 -17 2q-79 23 -134 59q-39 -9 -92 -11q-52 0 -92 20t-56 53q-14 35 9.5 44.5t38.5 -18.5q10 -19 36.5 -32t62.5 -13q27 0 34 1q-60 54 -93 124t-33 147q0 127 63.5 232.5t170.5 164.5t231 59q103 0 182 -44
q11 -6 16 -11t4 -10t-3.5 -8.5t-10.5 -11.5q-60 -64 -125 -203q-40 -89 -49 -109zM99 223q0 -72 36.5 -139.5t100.5 -114.5q62 23 104 79t85 149l98 215q50 112 95 170q12 16 -7 24q-44 19 -101 19q-168 0 -289.5 -116t-121.5 -286z" />
    <glyph glyph-name="kcommaaccent" unicode="&#x137;" horiz-adv-x="288" 
d="M6 -51q20 0 31.5 -12.5t11.5 -31.5q0 -33 -29.5 -64t-65.5 -50q-24 -12 -34 4q-8 14 7 25q1 0 2 1q38 19 59 44q-13 1 -21.5 13t-8.5 25q0 18 14.5 32t33.5 14zM190 -12q-57 0 -82 34.5t-25 84.5q0 26 8 60q4 14 6.5 16.5t13.5 4.5q39 5 81.5 42t42.5 78q0 27 -28 27
q-25 0 -51 -17.5t-41 -49.5l-77 -169q-7 -16 -17.5 -32.5t-27 -35.5t-39.5 -31t-48 -12q-16 0 -22 13t1 26t21 13q46 0 83 79l216 470q8 17 25 20t24.5 -8.5t-0.5 -32.5l-102 -209q36 28 67 28q34 0 54 -20.5t20 -56.5q0 -50 -42.5 -97.5t-96.5 -70.5q-16 -7 -16 -30
q0 -72 52 -72q20 0 41 17t31.5 32t17.5 30q12 22 34.5 13.5t13.5 -32.5q-16 -38 -55.5 -75t-82.5 -37z" />
    <glyph glyph-name="Lacute" unicode="&#x139;" horiz-adv-x="865" 
d="M562 106q18 21 -11 14q-52 -10 -95 -10q-143 0 -243.5 82t-100.5 201q0 98 56 173t137 111t167 36q82 0 175 -37.5t151 -103.5q72 126 143 126q73 0 73 -103q0 -115 -102.5 -244t-249.5 -194q-70 -124 -157 -185l46 -41q65 -58 104 -89.5t101 -72.5t124 -60t128 -19
q88 0 142.5 45.5t54.5 102.5q0 40 -33 65q-19 15 -6 34.5t35 6.5q57 -35 57 -109q0 -76 -68.5 -137.5t-182.5 -61.5q-44 0 -87.5 8.5t-78.5 20.5t-75.5 35t-67 40.5t-66.5 50t-59.5 50.5t-59.5 54q-24 23 -54 48q-107 -60 -233 -62q-92 0 -155 36.5t-63 98.5q0 60 53.5 91.5
t121.5 31.5q121 0 277 -128q56 40 102 95zM762 501q11 18 -6 33q-51 57 -125 91h1q-76 34 -160 34q-54 0 -107.5 -18t-98 -51t-72.5 -84t-28 -111q0 -97 85 -163.5t206 -66.5q82 0 168 35l1 2q28 57 72 158t64 141zM226 -65q93 0 171 39q17 9 0 21q-124 90 -210 90
q-56 0 -89.5 -18t-33.5 -49q0 -37 48.5 -60t113.5 -23zM708 256q-6 -10 -3.5 -12.5t11.5 2.5q106 68 175 167t69 184q0 47 -23 47q-44 0 -105 -121l23 -41q9 -17 0.5 -33t-25.5 -15.5t-29 24.5l-1 2q-5 -12 -32 -72t-60 -132zM924 757q-16 -11 -29.5 -4.5t-13.5 21t14 26.5
l139 98q16 12 30 5.5t13.5 -21t-15.5 -27.5h1z" />
    <glyph glyph-name="lacute" unicode="&#x13a;" horiz-adv-x="151" 
d="M255 568l-216 -469q-6 -14 -8.5 -26t3.5 -22.5t24 -10.5q16 0 29.5 8t25.5 25t15.5 24t11.5 22q12 22 34.5 13.5t13.5 -32.5q-17 -40 -52 -76t-78 -36q-83 0 -83 75q0 26 15 58l216 468q8 17 25 20t24.5 -8.5t-0.5 -32.5zM280 664q-16 -11 -29.5 -4.5t-13.5 21t14 26.5
l139 98q16 12 30 5.5t13.5 -21t-15.5 -27.5h1z" />
    <glyph glyph-name="Lcommaaccent" unicode="&#x13b;" horiz-adv-x="865" 
d="M446 -142q20 0 31.5 -12.5t11.5 -31.5q0 -33 -29.5 -64t-65.5 -50q-24 -12 -34 4q-8 14 7 25l2 1q38 19 59 44q-13 1 -21.5 13t-8.5 25q0 18 14.5 32t33.5 14zM562 106q18 21 -11 14q-52 -10 -95 -10q-143 0 -243.5 82t-100.5 201q0 98 56 173t137 111t167 36
q82 0 175 -37.5t151 -103.5q72 126 143 126q73 0 73 -103q0 -115 -102.5 -244t-249.5 -194q-70 -124 -157 -185l46 -41q65 -58 104 -89.5t101 -72.5t124 -60t128 -19q88 0 142.5 45.5t54.5 102.5q0 40 -33 65q-19 15 -6 34.5t35 6.5q57 -35 57 -109q0 -76 -68.5 -137.5
t-182.5 -61.5q-44 0 -87.5 8.5t-78.5 20.5t-75.5 35t-67 40.5t-66.5 50t-59.5 50.5t-59.5 54q-24 23 -54 48q-107 -60 -233 -62q-92 0 -155 36.5t-63 98.5q0 60 53.5 91.5t121.5 31.5q121 0 277 -128q56 40 102 95zM762 501q11 18 -6 33q-51 57 -125 91h1q-76 34 -160 34
q-54 0 -107.5 -18t-98 -51t-72.5 -84t-28 -111q0 -97 85 -163.5t206 -66.5q82 0 168 35l1 2q28 57 72 158t64 141zM226 -65q93 0 171 39q17 9 0 21q-124 90 -210 90q-56 0 -89.5 -18t-33.5 -49q0 -37 48.5 -60t113.5 -23zM708 256q-6 -10 -3.5 -12.5t11.5 2.5
q106 68 175 167t69 184q0 47 -23 47q-44 0 -105 -121l23 -41q9 -17 0.5 -33t-25.5 -15.5t-29 24.5l-1 2q-5 -12 -32 -72t-60 -132z" />
    <glyph glyph-name="lcommaaccent" unicode="&#x13c;" horiz-adv-x="151" 
d="M3 -51q20 0 31.5 -12.5t11.5 -31.5q0 -33 -29.5 -64t-65.5 -50q-24 -12 -33 4q-9 14 6 25q1 0 2 1q38 19 59 44q-13 1 -21.5 13t-8.5 25q0 18 14.5 32t33.5 14zM255 568l-216 -469q-6 -14 -8.5 -26t3.5 -22.5t24 -10.5q16 0 29.5 8t25.5 25t15.5 24t11.5 22
q12 22 34.5 13.5t13.5 -32.5q-17 -40 -52 -76t-78 -36q-83 0 -83 75q0 26 15 58l216 468q8 17 25 20t24.5 -8.5t-0.5 -32.5z" />
    <glyph glyph-name="Lcaron" unicode="&#x13d;" horiz-adv-x="865" 
d="M562 106q18 21 -11 14q-52 -10 -95 -10q-143 0 -243.5 82t-100.5 201q0 98 56 173t137 111t167 36q82 0 175 -37.5t151 -103.5q72 126 143 126q73 0 73 -103q0 -115 -102.5 -244t-249.5 -194q-70 -124 -157 -185l46 -41q65 -58 104 -89.5t101 -72.5t124 -60t128 -19
q88 0 142.5 45.5t54.5 102.5q0 40 -33 65q-19 15 -6 34.5t35 6.5q57 -35 57 -109q0 -76 -68.5 -137.5t-182.5 -61.5q-44 0 -87.5 8.5t-78.5 20.5t-75.5 35t-67 40.5t-66.5 50t-59.5 50.5t-59.5 54q-24 23 -54 48q-107 -60 -233 -62q-92 0 -155 36.5t-63 98.5q0 60 53.5 91.5
t121.5 31.5q121 0 277 -128q56 40 102 95zM762 501q11 18 -6 33q-51 57 -125 91h1q-76 34 -160 34q-54 0 -107.5 -18t-98 -51t-72.5 -84t-28 -111q0 -97 85 -163.5t206 -66.5q82 0 168 35l1 2q28 57 72 158t64 141zM226 -65q93 0 171 39q17 9 0 21q-124 90 -210 90
q-56 0 -89.5 -18t-33.5 -49q0 -37 48.5 -60t113.5 -23zM708 256q-6 -10 -3.5 -12.5t11.5 2.5q106 68 175 167t69 184q0 47 -23 47q-44 0 -105 -121l23 -41q9 -17 0.5 -33t-25.5 -15.5t-29 24.5l-1 2q-5 -12 -32 -72t-60 -132zM870 898q20 0 31.5 -12.5t11.5 -31.5
q0 -33 -29.5 -64t-65.5 -50q-24 -12 -34 4q-8 14 7 25q1 0 2 1q38 19 59 44q-13 1 -21.5 13t-8.5 25q0 18 14.5 32t33.5 14z" />
    <glyph glyph-name="lcaron" unicode="&#x13e;" horiz-adv-x="344" 
d="M255 568l-216 -469q-6 -14 -8.5 -26t3.5 -22.5t24 -10.5q16 0 29.5 8t25.5 25t15.5 24t11.5 22q12 22 34.5 13.5t13.5 -32.5q-17 -40 -52 -76t-78 -36q-83 0 -83 75q0 26 15 58l216 468q8 17 25 20t24.5 -8.5t-0.5 -32.5zM390 605q20 0 31.5 -12.5t11.5 -31.5
q0 -33 -29.5 -64t-65.5 -50q-24 -12 -34 4q-8 14 7 25l2 1q38 19 59 44q-13 1 -21.5 13t-8.5 25q0 18 14.5 32t33.5 14z" />
    <glyph glyph-name="Lslash" unicode="&#x141;" horiz-adv-x="640" 
d="M887 662q-76 0 -143.5 -65.5t-113.5 -167.5l-37 -81q-3 -7 1.5 -9.5t10.5 -0.5l63 16q18 5 28 -7t5 -27t-22 -18l-101 -24q-19 -6 -27 -23l-28 -62q-69 -152 -178 -219q15 -11 31.5 -25t37.5 -32t33 -28q55 -47 89 -73.5t88 -60.5t109.5 -49.5t116.5 -15.5q79 0 138 45
t59 98q0 43 -32 71q-22 19 -7 37q15 17 38 4q4 -2 8 -5q47 -41 47 -104q0 -87 -77.5 -143.5t-174.5 -56.5q-56 0 -111.5 14t-94.5 31.5t-90 52.5t-76.5 55.5t-75.5 63.5q-72 63 -115 92q-73 -28 -156 -28q-124 -2 -124 73q0 35 36 52t82 17q78 0 171 -52q109 52 179 206
l12 27q5 9 3.5 12.5t-13.5 0.5l-51 -13q-17 -4 -27 7t-5.5 26t21.5 19l87 21q19 6 28 22l52 115q54 119 132.5 191t173.5 72q85 1 135.5 -44.5t52.5 -105.5q2 -59 -39.5 -105.5t-104.5 -46.5q-59 -1 -91 30.5t-34 74.5q0 45 24 66q14 12 29 8.5t17.5 -15.5t-7.5 -25
q-11 -15 -13 -33q0 -22 19.5 -38.5t54.5 -15.5q40 0 67 29t26 67q0 41 -37 72t-99 31zM130 -29q54 0 97 10q-58 27 -100 27q-67 0 -65 -17q0 -20 68 -20z" />
    <glyph glyph-name="lslash" unicode="&#x142;" horiz-adv-x="151" 
d="M255 568l-118 -256l10 3q10 2 18 -1.5t11 -10.5t3.5 -15t-5.5 -15t-16 -10l-49 -12l-70 -152q-6 -14 -8.5 -26t3.5 -22.5t24 -10.5q16 0 29.5 8t25.5 25t15.5 24t11.5 22q12 22 34.5 13.5t13.5 -32.5q-17 -40 -52 -76t-78 -36q-83 0 -83 75q0 26 15 58l52 115
q-23 1 -24.5 24t23.5 29l29 7l136 293q8 17 25 20t24.5 -8.5t-0.5 -32.5z" />
    <glyph glyph-name="Nacute" unicode="&#x143;" horiz-adv-x="619" 
d="M159 -30q-15 0 -23 11.5t0 29.5l200 434q22 51 22 98q0 64 -48.5 104.5t-116.5 40.5q-62 0 -112 -41t-50 -103q0 -47 31 -80t79 -33q54 0 72 41q7 19 23 21.5t26 -9.5t4 -29q-14 -37 -48 -56.5t-77 -19.5q-68 0 -115.5 48t-47.5 118q0 81 65.5 138.5t150.5 57.5
t151.5 -55t66.5 -141q0 -7 1 -10.5t4 -2l5 2.5t6 6q70 70 148 70q48 0 73.5 -30.5t25.5 -72.5q0 -33 -12 -57l-205 -461q-10 -28 -10 -35q0 -10 2 -12q23 -20 7 -43q-14 -20 -33 -10l-5 4v-1q-29 19 -29 62q0 23 15 59q14 30 42.5 96.5t66.5 151.5t87 191q12 28 12 48
q0 21 -13 34.5t-38 13.5q-47 0 -96 -40q-61 -49 -106 -149l-167 -367q-11 -23 -34 -23zM667 757q-16 -11 -29.5 -4.5t-13.5 21t14 26.5l139 98q16 12 30 5.5t13.5 -21t-15.5 -27.5h1z" />
    <glyph glyph-name="nacute" unicode="&#x144;" horiz-adv-x="306" 
d="M145 121l73 157q9 22 9 33q0 24 -29 24q-27 0 -50 -22.5t-33 -45.5l-76 -168q-7 -16 -17.5 -32.5t-27 -35.5t-39.5 -31t-48 -12q-15 0 -21 13t0.5 26t20.5 13q45 0 82 79l113 246q9 18 26 18q21 0 23 -20q6 8 20 15.5t28 8.5q36 3 59 -18t23 -58q0 -27 -15 -57l-72 -155
q-10 -21 -10 -36q0 -23 29 -23q43 0 82 79q12 22 34.5 13.5t13.5 -32.5q-17 -40 -52 -76t-78 -36q-83 0 -83 75q0 26 15 58zM238 464q-16 -11 -29.5 -4.5t-13.5 21t14 26.5l139 98q16 12 30 5.5t13.5 -21t-15.5 -27.5h1z" />
    <glyph glyph-name="Ncommaaccent" unicode="&#x145;" horiz-adv-x="608" 
d="M264 -51q20 0 31.5 -12.5t11.5 -31.5q0 -33 -29.5 -64t-65.5 -50q-24 -12 -34 4q-8 14 7 25q1 0 2 1q38 19 59 44q-13 1 -21.5 13t-8.5 25q0 18 14.5 32t33.5 14zM149 -30q-15 0 -23 11.5t0 29.5l200 434q22 51 22 98q0 64 -48.5 104.5t-116.5 40.5q-62 0 -112 -41
t-50 -103q0 -47 31 -80t79 -33q54 0 72 41q7 19 23 21.5t26 -9.5t4 -29q-14 -37 -48 -56.5t-77 -19.5q-68 0 -115.5 48t-47.5 118q0 81 65.5 138.5t150.5 57.5t151.5 -55t66.5 -141q0 -7 1 -10.5t4 -2l5 2.5t6 6q70 70 148 70q48 0 73.5 -30.5t25.5 -72.5q0 -33 -12 -57
l-205 -461q-10 -28 -10 -35q0 -10 2 -12q23 -20 7 -43q-14 -20 -33 -10l-5 4v-1q-29 19 -29 62q0 23 15 59q14 30 42.5 96.5t66.5 151.5t87 191q12 28 12 48q0 21 -13 34.5t-38 13.5q-47 0 -96 -40q-61 -49 -106 -149l-167 -367q-11 -23 -34 -23z" />
    <glyph glyph-name="ncommaaccent" unicode="&#x146;" horiz-adv-x="306" 
d="M3 -51q20 0 31.5 -12.5t11.5 -31.5q0 -33 -29.5 -64t-65.5 -50q-24 -12 -33 4q-9 14 6 25q1 0 2 1q38 19 59 44q-13 1 -21.5 13t-8.5 25q0 18 14.5 32t33.5 14zM145 121l73 157q9 22 9 33q0 24 -29 24q-27 0 -50 -22.5t-33 -45.5l-76 -168q-7 -16 -17.5 -32.5t-27 -35.5
t-39.5 -31t-48 -12q-15 0 -21 13t0.5 26t20.5 13q45 0 82 79l113 246q9 18 26 18q21 0 23 -20q6 8 20 15.5t28 8.5q36 3 59 -18t23 -58q0 -27 -15 -57l-72 -155q-10 -21 -10 -36q0 -23 29 -23q43 0 82 79q12 22 34.5 13.5t13.5 -32.5q-17 -40 -52 -76t-78 -36q-83 0 -83 75
q0 26 15 58z" />
    <glyph glyph-name="Ncaron" unicode="&#x147;" horiz-adv-x="613" 
d="M125 -30q-15 0 -23 11.5t0 29.5l200 434q22 51 22 98q0 64 -48.5 104.5t-116.5 40.5q-62 0 -112 -41t-50 -103q0 -47 31 -80t79 -33q54 0 72 41q7 19 23 21.5t26 -9.5t4 -29q-14 -37 -48 -56.5t-77 -19.5q-68 0 -115.5 48t-47.5 118q0 81 65.5 138.5t150.5 57.5
t151.5 -55t66.5 -141q0 -7 1 -10.5t4 -2l5 2.5t6 6q70 70 148 70q48 0 73.5 -30.5t25.5 -72.5q0 -33 -12 -57l-205 -461q-10 -28 -10 -35q0 -10 2 -12q23 -20 7 -43q-14 -20 -33 -10l-5 4v-1q-29 19 -29 62q0 23 15 59q14 30 42.5 96.5t66.5 151.5t87 191q12 28 12 48
q0 21 -13 34.5t-38 13.5q-47 0 -96 -40q-61 -49 -106 -149l-167 -367q-11 -23 -34 -23zM583 750l-42 91q-11 25 9 38q18 14 32 -6q2 -2 3 -5l22 -48q8 -17 25 -6l91 64q17 12 30.5 5.5t12.5 -21.5t-14 -27l-128 -91q-9 -8 -22 -7t-19 13z" />
    <glyph glyph-name="ncaron" unicode="&#x148;" horiz-adv-x="306" 
d="M145 121l73 157q9 22 9 33q0 24 -29 24q-27 0 -50 -22.5t-33 -45.5l-76 -168q-7 -16 -17.5 -32.5t-27 -35.5t-39.5 -31t-48 -12q-15 0 -21 13t0.5 26t20.5 13q45 0 82 79l113 246q9 18 26 18q21 0 23 -20q6 8 20 15.5t28 8.5q36 3 59 -18t23 -58q0 -27 -15 -57l-72 -155
q-10 -21 -10 -36q0 -23 29 -23q43 0 82 79q12 22 34.5 13.5t13.5 -32.5q-17 -40 -52 -76t-78 -36q-83 0 -83 75q0 26 15 58zM214 457l-42 91q-11 25 9 38q18 14 32 -6l3 -5l22 -48q8 -17 25 -6l91 64q17 12 30.5 5.5t12.5 -21.5t-14 -27l-128 -91q-9 -8 -22 -7t-19 13z" />
    <glyph glyph-name="Omacron" unicode="&#x14c;" horiz-adv-x="833" 
d="M104 308q36 156 164 266t273 110q126 0 204 -83t78 -211q0 -43 -10 -91q-37 -156 -164.5 -265.5t-272.5 -109.5q-126 0 -204.5 83t-78.5 211q0 44 11 90zM157 299q-10 -50 -10 -81q0 -105 63.5 -172.5t165.5 -67.5q122 0 234.5 98.5t148.5 232.5v-1q10 43 10 82
q0 105 -63 172.5t-165 67.5q-126 0 -239 -97.5t-145 -233.5zM523 729q-25 0 -25 26t25 26h174q17 0 23.5 -13t0 -26t-23.5 -13h-174z" />
    <glyph glyph-name="omacron" unicode="&#x14d;" horiz-adv-x="269" 
d="M63 -12q-41 0 -64.5 19.5t-23.5 56.5q0 26 14 56l75 158q53 109 129 109q41 0 64.5 -19.5t23.5 -56.5q0 -27 -15 -57l-74 -157q-53 -109 -129 -109zM29 64q0 -24 34 -24q44 0 83 82l72 156q25 57 -25 57q-16 0 -30 -8.5t-25.5 -26.5t-15 -24.5t-12.5 -24.5l-72 -154
q-9 -18 -9 -33zM146 436q-16 0 -22.5 13t0 26t22.5 13h174q17 0 23.5 -13t0 -26t-23.5 -13h-174z" />
    <glyph glyph-name="Ohungarumlaut" unicode="&#x150;" horiz-adv-x="833" 
d="M104 308q36 156 164 266t273 110q126 0 204 -83t78 -211q0 -43 -10 -91q-37 -156 -164.5 -265.5t-272.5 -109.5q-126 0 -204.5 83t-78.5 211q0 44 11 90zM157 299q-10 -50 -10 -81q0 -105 63.5 -172.5t165.5 -67.5q122 0 234.5 98.5t148.5 232.5v-1q10 43 10 82
q0 105 -63 172.5t-165 67.5q-126 0 -239 -97.5t-145 -233.5zM688 739q-15 -10 -28 -4t-13.5 19.5t13.5 25.5l133 94q16 11 29.5 5t13.5 -19.5t-15 -26.5zM557 747q-15 -10 -28 -4t-13.5 19.5t13.5 25.5l133 94q16 11 29.5 5t13.5 -19.5t-15 -26.5z" />
    <glyph glyph-name="ohungarumlaut" unicode="&#x151;" horiz-adv-x="269" 
d="M63 -12q-41 0 -64.5 19.5t-23.5 56.5q0 26 14 56l75 158q53 109 129 109q41 0 64.5 -19.5t23.5 -56.5q0 -27 -15 -57l-74 -157q-53 -109 -129 -109zM29 64q0 -24 34 -24q44 0 83 82l72 156q25 57 -25 57q-16 0 -30 -8.5t-25.5 -26.5t-15 -24.5t-12.5 -24.5l-72 -154
q-9 -18 -9 -33zM316 446q-15 -10 -28 -4t-13.5 19.5t13.5 25.5l133 94q16 11 29.5 5t13.5 -19.5t-15 -26.5zM185 454q-15 -10 -28 -4t-13.5 19.5t13.5 25.5l133 94q16 11 29.5 5t13.5 -19.5t-15 -26.5z" />
    <glyph glyph-name="OE" unicode="&#x152;" horiz-adv-x="297" 
 />
    <glyph glyph-name="oe" unicode="&#x153;" horiz-adv-x="390" 
d="M345 387q37 0 57 -18t20 -50q0 -22 -8 -43q-45 -119 -141 -119q-9 0 -29 4q-20 6 -27 -12q-16 -41 -16 -59q0 -48 60 -50q39 0 71.5 26t48.5 55q9 17 24 18.5t23 -11t0 -28.5q-22 -45 -68 -78.5t-99 -33.5q-77 0 -106 50q-39 -50 -92 -50q-41 0 -64.5 19.5t-23.5 56.5
q0 26 14 56l75 158q53 109 129 109q54 0 77 -34q34 34 75 34zM29 64q0 -24 34 -24q44 0 83 82l72 156q25 57 -25 57q-16 0 -30 -8.5t-25.5 -26.5t-15 -24.5t-12.5 -24.5l-72 -154q-9 -18 -9 -33zM356 281q21 50 -11 54q-40 6 -72 -68l-13 -29q-10 -26 20 -26q48 0 76 69z
" />
    <glyph glyph-name="Racute" unicode="&#x154;" horiz-adv-x="932" 
d="M680 394l-119 -249q-102 -214 -304 -217q-58 0 -106.5 27t-48.5 68q0 12 8.5 19.5t19.5 7.5q21 0 27 -23q4 -19 31 -32t64 -13q98 0 165 57t138 211l76 164q52 112 93 173q10 14 9 18.5t-14 10.5q-73 38 -170 38t-172 -30.5t-117 -79t-62.5 -101.5t-20.5 -105
q0 -67 36 -123.5t100 -83.5q22 -9 22 -28q0 -10 -8.5 -18t-19.5 -8q-12 0 -15 3l1 -1q-82 33 -126 103t-44 156q0 63 24 125t72.5 118.5t133.5 91.5t195 35q159 0 267 -87q59 -45 94 -105.5t35 -127.5q0 -110 -63.5 -188.5t-158.5 -103.5q-14 -4 -16 -7.5t4 -15.5
q8 -16 25 -54.5t26 -57.5q20 -44 30 -65.5t30.5 -59.5t36 -58.5t39 -47t47 -39.5t54 -23t64.5 -10q74 0 114.5 37.5t40.5 85.5q0 35 -33 65q-17 12 -5 32q13 22 35 13q3 -2 7 -5q49 -39 49 -108q0 -68 -55 -121t-154 -53q-33 0 -63.5 6.5t-55 16t-48 28t-40.5 34t-35.5 43
t-30 46.5t-28 52t-25 52t-23.5 55l1 -1q-5 9 -29 61t-39 80q-14 26 -7.5 44.5t31.5 19.5q85 7 152.5 78.5t68.5 169.5q0 103 -90 177q-15 11 -19.5 10t-12.5 -14q-38 -56 -88 -168zM873 757q-16 -11 -29.5 -4.5t-13.5 21t14 26.5l139 98q16 12 30 5.5t13.5 -21t-15.5 -27.5
h1z" />
    <glyph glyph-name="racute" unicode="&#x155;" horiz-adv-x="283" 
d="M122 121l75 161q9 22 9 33q0 10 -7 15.5t-16 7t-16.5 7.5t-8.5 17l-122 -264q-11 -24 -35 -14.5t-12 35.5l154 330q7 15 22 17t24.5 -8.5t1.5 -26.5q-12 -22 -2.5 -33.5t26 -14t32.5 -17.5t16 -44q0 -16 -15 -58l-77 -165q-6 -14 -8.5 -26t3.5 -22.5t24 -10.5
q16 0 29.5 8t25.5 25t15.5 24t11.5 22q12 22 34.5 13.5t13.5 -32.5q-17 -40 -52 -76t-78 -36q-83 0 -83 75q0 28 15 58zM239 464q-16 -11 -29.5 -4.5t-13.5 21t14 26.5l139 98q16 12 30 5.5t13.5 -21t-15.5 -27.5h1z" />
    <glyph glyph-name="Rcommaaccent" unicode="&#x156;" horiz-adv-x="932" 
d="M550 -53q20 0 31.5 -12.5t11.5 -31.5q0 -33 -29.5 -64t-65.5 -50q-24 -12 -34 4q-8 14 7 25q1 0 2 1q38 19 59 44q-13 1 -21.5 13t-8.5 25q0 18 14.5 32t33.5 14zM680 394l-119 -249q-102 -214 -304 -217q-58 0 -106.5 27t-48.5 68q0 12 8.5 19.5t19.5 7.5q21 0 27 -23
q4 -19 31 -32t64 -13q98 0 165 57t138 211l76 164q52 112 93 173q10 14 9 18.5t-14 10.5q-73 38 -170 38t-172 -30.5t-117 -79t-62.5 -101.5t-20.5 -105q0 -67 36 -123.5t100 -83.5q22 -9 22 -28q0 -10 -8.5 -18t-19.5 -8q-12 0 -15 3l1 -1q-82 33 -126 103t-44 156
q0 63 24 125t72.5 118.5t133.5 91.5t195 35q159 0 267 -87q59 -45 94 -105.5t35 -127.5q0 -110 -63.5 -188.5t-158.5 -103.5q-14 -4 -16 -7.5t4 -15.5q8 -16 25 -54.5t26 -57.5q20 -44 30 -65.5t30.5 -59.5t36 -58.5t39 -47t47 -39.5t54 -23t64.5 -10q74 0 114.5 37.5
t40.5 85.5q0 35 -33 65q-17 12 -5 32q13 22 35 13q3 -2 7 -5q49 -39 49 -108q0 -68 -55 -121t-154 -53q-33 0 -63.5 6.5t-55 16t-48 28t-40.5 34t-35.5 43t-30 46.5t-28 52t-25 52t-23.5 55l1 -1q-5 9 -29 61t-39 80q-14 26 -7.5 44.5t31.5 19.5q85 7 152.5 78.5t68.5 169.5
q0 103 -90 177q-15 11 -19.5 10t-12.5 -14q-38 -56 -88 -168z" />
    <glyph glyph-name="rcommaaccent" unicode="&#x157;" horiz-adv-x="283" 
d="M7 -53q20 0 31.5 -12.5t11.5 -31.5q0 -33 -29.5 -64t-65.5 -50q-24 -12 -33 4q-9 14 6 25q1 0 2 1q38 19 59 44q-13 1 -21.5 13t-8.5 25q0 18 14.5 32t33.5 14zM122 121l75 161q9 22 9 33q0 10 -7 15.5t-16 7t-16.5 7.5t-8.5 17l-122 -264q-11 -24 -35 -14.5t-12 35.5
l154 330q7 15 22 17t24.5 -8.5t1.5 -26.5q-12 -22 -2.5 -33.5t26 -14t32.5 -17.5t16 -44q0 -16 -15 -58l-77 -165q-6 -14 -8.5 -26t3.5 -22.5t24 -10.5q16 0 29.5 8t25.5 25t15.5 24t11.5 22q12 22 34.5 13.5t13.5 -32.5q-17 -40 -52 -76t-78 -36q-83 0 -83 75q0 28 15 58z
" />
    <glyph glyph-name="Rcaron" unicode="&#x158;" horiz-adv-x="932" 
d="M680 394l-119 -249q-102 -214 -304 -217q-58 0 -106.5 27t-48.5 68q0 12 8.5 19.5t19.5 7.5q21 0 27 -23q4 -19 31 -32t64 -13q98 0 165 57t138 211l76 164q52 112 93 173q10 14 9 18.5t-14 10.5q-73 38 -170 38t-172 -30.5t-117 -79t-62.5 -101.5t-20.5 -105
q0 -67 36 -123.5t100 -83.5q22 -9 22 -28q0 -10 -8.5 -18t-19.5 -8q-12 0 -15 3l1 -1q-82 33 -126 103t-44 156q0 63 24 125t72.5 118.5t133.5 91.5t195 35q159 0 267 -87q59 -45 94 -105.5t35 -127.5q0 -110 -63.5 -188.5t-158.5 -103.5q-14 -4 -16 -7.5t4 -15.5
q8 -16 25 -54.5t26 -57.5q20 -44 30 -65.5t30.5 -59.5t36 -58.5t39 -47t47 -39.5t54 -23t64.5 -10q74 0 114.5 37.5t40.5 85.5q0 35 -33 65q-17 12 -5 32q13 22 35 13q3 -2 7 -5q49 -39 49 -108q0 -68 -55 -121t-154 -53q-33 0 -63.5 6.5t-55 16t-48 28t-40.5 34t-35.5 43
t-30 46.5t-28 52t-25 52t-23.5 55l1 -1q-5 9 -29 61t-39 80q-14 26 -7.5 44.5t31.5 19.5q85 7 152.5 78.5t68.5 169.5q0 103 -90 177q-15 11 -19.5 10t-12.5 -14q-38 -56 -88 -168zM811 750l-42 91q-11 25 9 38q18 14 32 -6q2 -2 3 -5l22 -48q8 -17 25 -6l91 64
q17 12 30.5 5.5t12.5 -21.5t-14 -27l-128 -91q-9 -8 -22 -7t-19 13z" />
    <glyph glyph-name="rcaron" unicode="&#x159;" horiz-adv-x="283" 
d="M122 121l75 161q9 22 9 33q0 10 -7 15.5t-16 7t-16.5 7.5t-8.5 17l-122 -264q-11 -24 -35 -14.5t-12 35.5l154 330q7 15 22 17t24.5 -8.5t1.5 -26.5q-12 -22 -2.5 -33.5t26 -14t32.5 -17.5t16 -44q0 -16 -15 -58l-77 -165q-6 -14 -8.5 -26t3.5 -22.5t24 -10.5
q16 0 29.5 8t25.5 25t15.5 24t11.5 22q12 22 34.5 13.5t13.5 -32.5q-17 -40 -52 -76t-78 -36q-83 0 -83 75q0 28 15 58zM214 457l-42 91q-11 25 9 38q18 14 32 -6l3 -5l22 -48q8 -17 25 -6l91 64q17 12 30.5 5.5t12.5 -21.5t-14 -27l-128 -91q-9 -8 -22 -7t-19 13z" />
    <glyph glyph-name="Sacute" unicode="&#x15a;" horiz-adv-x="761" 
d="M374 -108q-128 0 -215.5 78.5t-92.5 203.5q-5 117 76.5 206t207.5 89q103 0 159 -55t56 -134q0 -35 -22.5 -75.5t-57.5 -60.5q-17 -10 -30.5 -3t-13 21t14.5 25q55 36 55 93t-42.5 96t-120.5 39q-101 0 -167 -72t-61 -169q4 -99 78.5 -163.5t175.5 -64.5q70 0 135 32
t109.5 98t44.5 151q0 45 -30 137q-32 100 -32 156q0 81 55.5 130t120.5 49q53 0 94 -32t41 -89q0 -39 -30 -74t-78 -36q-19 0 -26 13t1 26t25 13q25 2 39.5 20t14.5 38q0 30 -22.5 49.5t-57.5 19.5q-44 0 -83.5 -35t-39.5 -92q0 -46 30 -136q32 -98 32 -157
q0 -77 -30.5 -142.5t-80.5 -106.5t-110 -63.5t-122 -22.5zM803 757q-16 -11 -29.5 -4.5t-13.5 21t14 26.5l139 98q16 12 30 5.5t13.5 -21t-15.5 -27.5h1z" />
    <glyph glyph-name="sacute" unicode="&#x15b;" horiz-adv-x="254" 
d="M-21 -6q-20 8 -39 29q-10 11 -5 25.5t18 18.5t28 -7q8 -10 24 -16q12 -4 25 -4q45 0 76.5 33t35.5 81q3 37 -18 85q-10 19 -11.5 18.5t-10.5 -18.5q-13 -26 -34.5 -75t-29.5 -65q-8 -17 -23.5 -18.5t-24 10.5t-0.5 29q20 39 134 294q8 18 24.5 21t26 -9t1.5 -32l-5 -11
q-9 -22 -11 -39q-3 -27 18 -92q20 -64 18 -99q-5 -67 -53.5 -117t-115.5 -50q-27 0 -48 8zM161 -12q-16 0 -22.5 13t0 26t22.5 13q43 0 82 79q12 22 34.5 13.5t13.5 -32.5q-17 -40 -52 -76t-78 -36zM167 464q-16 -11 -29.5 -4.5t-13.5 21t14 26.5l139 98q16 12 30 5.5
t13.5 -21t-15.5 -27.5h1z" />
    <glyph glyph-name="Scedilla" unicode="&#x15e;" horiz-adv-x="761" 
d="M374 -108q-12 0 -18 1q0 -5 -5.5 -15t-5.5 -16q0 -13 11 -37t11 -39q0 -33 -23.5 -56.5t-56.5 -23.5q-19 0 -37.5 9t-18.5 26q0 11 7 19.5t19 8.5q6 0 16 -4.5t14 -4.5q11 0 18.5 8t7.5 18q0 13 -11 36.5t-11 37.5q0 16 10 39q-103 22 -169 96t-66 179q0 117 79.5 202.5
t204.5 85.5q103 0 159 -52t56 -130q0 -35 -22.5 -75.5t-57.5 -60.5q-17 -10 -30.5 -3t-13 21t14.5 25q55 36 55 93q0 56 -42 92t-121 36q-101 0 -164.5 -69t-63.5 -165q0 -98 76 -163t178 -65q70 0 135 32t109.5 98t44.5 151q0 45 -30 137q-32 100 -32 156q0 81 55.5 130
t120.5 49q53 0 94 -32t41 -89q0 -39 -30 -74t-78 -36q-19 0 -26 13t1 26t25 13q25 2 39.5 20t14.5 38q0 30 -22.5 49.5t-57.5 19.5q-44 0 -83.5 -35t-39.5 -92q0 -46 30 -136q32 -98 32 -157q0 -77 -30.5 -142.5t-80.5 -106.5t-110 -63.5t-122 -22.5z" />
    <glyph glyph-name="scedilla" unicode="&#x15f;" horiz-adv-x="254" 
d="M-21 -6q-20 8 -39 29q-10 11 -5 25.5t18 18.5t28 -7q8 -10 24 -16q12 -4 25 -4q45 0 76.5 33t35.5 81q3 37 -18 85q-10 19 -11.5 18.5t-10.5 -18.5q-13 -26 -34.5 -75t-29.5 -65q-8 -17 -23.5 -18.5t-24 10.5t-0.5 29q20 39 134 294q8 18 24.5 21t26 -9t1.5 -32l-5 -11
q-9 -22 -11 -39q-3 -27 18 -92q20 -64 18 -99q-5 -60 -45.5 -107.5t-98.5 -56.5q-9 -24 -9 -25q0 -13 11 -37t11 -39q0 -33 -23.5 -56.5t-56.5 -23.5q-19 0 -37.5 9t-18.5 26q0 11 7 19.5t19 8.5q6 0 16 -4.5t14 -4.5q11 0 18.5 8t7.5 18q0 13 -11 36.5t-11 37.5q0 13 6 28
q-10 2 -16 4zM161 -12q-16 0 -22.5 13t0 26t22.5 13q43 0 82 79q12 22 34.5 13.5t13.5 -32.5q-17 -40 -52 -76t-78 -36z" />
    <glyph glyph-name="Scaron" unicode="&#x160;" horiz-adv-x="761" 
d="M374 -108q-128 0 -215.5 78.5t-92.5 203.5q-5 117 76.5 206t207.5 89q103 0 159 -55t56 -134q0 -35 -22.5 -75.5t-57.5 -60.5q-17 -10 -30.5 -3t-13 21t14.5 25q55 36 55 93t-42.5 96t-120.5 39q-101 0 -167 -72t-61 -169q4 -99 78.5 -163.5t175.5 -64.5q70 0 135 32
t109.5 98t44.5 151q0 45 -30 137q-32 100 -32 156q0 81 55.5 130t120.5 49q53 0 94 -32t41 -89q0 -39 -30 -74t-78 -36q-19 0 -26 13t1 26t25 13q25 2 39.5 20t14.5 38q0 30 -22.5 49.5t-57.5 19.5q-44 0 -83.5 -35t-39.5 -92q0 -46 30 -136q32 -98 32 -157
q0 -77 -30.5 -142.5t-80.5 -106.5t-110 -63.5t-122 -22.5zM806 750l-42 91q-11 25 9 38q18 14 32 -6q2 -2 3 -5l22 -48q8 -17 25 -6l91 64q17 12 30.5 5.5t12.5 -21.5t-14 -27l-128 -91q-9 -8 -22 -7t-19 13z" />
    <glyph glyph-name="scaron" unicode="&#x161;" horiz-adv-x="254" 
d="M146 474l-42 91q-11 25 9 38q18 14 32 -6l3 -5l22 -48q8 -17 25 -6l91 64q17 12 30.5 5.5t12.5 -21.5t-14 -27l-128 -91q-9 -8 -22 -7t-19 13zM-21 -6q-20 8 -39 29q-10 11 -5 25.5t18 18.5t28 -7q8 -10 24 -16q12 -4 25 -4q45 0 76.5 33t35.5 81q3 37 -18 85
q-10 19 -11.5 18.5t-10.5 -18.5q-13 -26 -34.5 -75t-29.5 -65q-8 -17 -23.5 -18.5t-24 10.5t-0.5 29q20 39 134 294q8 18 24.5 21t26 -9t1.5 -32l-5 -11q-9 -22 -11 -39q-3 -27 18 -92q20 -64 18 -99q-5 -67 -53.5 -117t-115.5 -50q-27 0 -48 8zM161 -12q-16 0 -22.5 13
t0 26t22.5 13q43 0 82 79q12 22 34.5 13.5t13.5 -32.5q-17 -40 -52 -76t-78 -36z" />
    <glyph glyph-name="Tcommaaccent" unicode="&#x162;" horiz-adv-x="585" 
d="M451 684q87 0 222 -42t189 -42t84 22t33 48q2 20 16 26.5t26.5 -4t10.5 -31.5q-4 -42 -51 -78t-119 -36q-55 -1 -200 40q-55 -65 -118 -208l-67 -145q-25 -55 -41.5 -87.5t-42 -74.5t-50.5 -66.5t-58 -48t-74 -34t-90 -11.5q-53 0 -94.5 21t-55.5 55q-9 23 -1 37t25.5 11
t25.5 -25q7 -19 34.5 -32t64.5 -13q50 0 92 15.5t71 38t57 63.5t45.5 75.5t41.5 90.5l67 149q57 128 101 186q6 7 4.5 14.5t-11.5 9.5q-65 17 -108 20q-104 4 -189 -25.5t-135.5 -80t-77.5 -109t-27 -116.5q0 -69 36 -126t100 -81q21 -8 24.5 -24.5t-10 -26.5t-34.5 -2
q-79 30 -124.5 103t-45.5 156q0 53 17 106.5t54 104.5t89 90t128 63t166 24z" />
    <glyph glyph-name="tcommaaccent" unicode="&#x163;" horiz-adv-x="159" 
d="M7 -53q20 0 31.5 -12.5t11.5 -31.5q0 -33 -29.5 -64t-65.5 -50q-24 -12 -33 4q-9 14 6 25q1 0 2 1q38 19 59 44q-13 1 -21.5 13t-8.5 25q0 18 14.5 32t33.5 14zM192 330h-29q-20 0 -28 -18l-96 -213q-10 -23 -4 -41t31 -18q16 0 29.5 8t25.5 25t15.5 24t11.5 22
q12 22 34.5 13.5t13.5 -32.5q-16 -37 -51.5 -72.5t-78.5 -39.5q-42 -4 -66.5 16.5t-24.5 58.5q0 23 15 56l89 193q7 18 -4 18q-23 0 -24 20q-1 21 19 29q6 3 14 3h4q21 0 28 18l38 80q8 17 25 20t24.5 -8.5t-0.5 -32.5l-28 -59q-7 -18 12 -18h14q21 0 23 -20q2 -22 -19 -30z
" />
    <glyph glyph-name="Tcaron" unicode="&#x164;" horiz-adv-x="585" 
d="M451 684q87 0 222 -42t189 -42t84 22t33 48q2 20 16 26.5t26.5 -4t10.5 -31.5q-4 -42 -51 -78t-119 -36q-55 -1 -200 40q-55 -65 -118 -208l-67 -145q-25 -55 -41.5 -87.5t-42 -74.5t-50.5 -66.5t-58 -48t-74 -34t-90 -11.5q-53 0 -94.5 21t-55.5 55q-9 23 -1 37t25.5 11
t25.5 -25q7 -19 34.5 -32t64.5 -13q50 0 92 15.5t71 38t57 63.5t45.5 75.5t41.5 90.5l67 149q57 128 101 186q6 7 4.5 14.5t-11.5 9.5q-65 17 -108 20q-104 4 -189 -25.5t-135.5 -80t-77.5 -109t-27 -116.5q0 -69 36 -126t100 -81q21 -8 24.5 -24.5t-10 -26.5t-34.5 -2
q-79 30 -124.5 103t-45.5 156q0 53 17 106.5t54 104.5t89 90t128 63t166 24zM680 750l-42 91q-11 25 9 38q18 14 32 -6q2 -2 3 -5l22 -48q8 -17 25 -6l91 64q17 12 30.5 5.5t12.5 -21.5t-14 -27l-128 -91q-9 -8 -22 -7t-19 13z" />
    <glyph glyph-name="tcaron" unicode="&#x165;" horiz-adv-x="264" 
d="M192 330h-29q-20 0 -28 -18l-96 -213q-10 -23 -4 -41t31 -18q16 0 29.5 8t25.5 25t15.5 24t11.5 22q12 22 34.5 13.5t13.5 -32.5q-16 -37 -51.5 -72.5t-78.5 -39.5q-42 -4 -66.5 16.5t-24.5 58.5q0 23 15 56l89 193q7 18 -4 18q-23 0 -24 20q-1 21 19 29q6 3 14 3h4
q21 0 28 18l38 80q8 17 25 20t24.5 -8.5t-0.5 -32.5l-28 -59q-7 -18 12 -18h14q21 0 23 -20q2 -22 -19 -30zM357 605q20 0 31.5 -12.5t11.5 -31.5q0 -33 -29.5 -64t-65.5 -50q-24 -12 -33 4q-9 14 6 25l2 1q38 19 59 44q-13 1 -21.5 13t-8.5 25q0 18 14.5 32t33.5 14z" />
    <glyph glyph-name="Umacron" unicode="&#x16a;" horiz-adv-x="743" 
d="M683 -266q-168 0 -168 249q0 7 -0.5 11.5t0.5 11.5q-87 -73 -168 -73q-68 0 -101.5 37.5t-33.5 95.5q0 46 25 101l107 230q51 111 12 191t-147 80q-61 0 -110.5 -42.5t-49.5 -107.5q0 -50 27.5 -84.5t72.5 -34.5q28 0 50.5 12.5t31.5 34.5q8 20 23.5 22.5t25.5 -9.5
t4 -30q-13 -40 -50.5 -61t-84.5 -21q-63 0 -108 50t-45 122q0 83 64.5 142.5t149.5 59.5q134 0 189 -101.5t-9 -244.5l-107 -231q-18 -39 -18 -79q0 -79 82 -79q78 0 174 94q11 89 23 127q49 163 94.5 255.5t94.5 92.5q23 0 37.5 -21.5t14.5 -51.5q0 -88 -62.5 -209.5
t-151.5 -214.5q-3 -30 -3 -65q0 -89 27 -147t89 -58q54 0 81 29t29 64q2 19 -9 33q-12 16 -5.5 30.5t21 15t27.5 -14.5q20 -24 19 -62q-2 -54 -43.5 -101.5t-120.5 -47.5zM596 196q-8 -27 -5 -29t20 22q89 123 115 224q2 5 4.5 17.5t4.5 28.5t0.5 27.5t-8.5 11.5
q-21 0 -57.5 -88.5t-73.5 -213.5zM532 729q-16 0 -22.5 13t0 26t22.5 13h174q17 0 23.5 -13t0 -26t-23.5 -13h-174z" />
    <glyph glyph-name="umacron" unicode="&#x16b;" 
d="M151 342l-113 -245q-9 -22 -9 -33q0 -24 34 -24q24 0 46 23t33 48l115 253q7 17 22.5 19.5t25 -9.5t1.5 -30l-111 -245q-10 -21 -10 -36q0 -23 29 -23q16 0 29.5 8t25.5 25t15.5 24t11.5 22q12 22 34.5 13.5t13.5 -32.5q-17 -40 -52 -76t-78 -36q-55 0 -74 35
q-33 -35 -77 -35q-41 0 -64.5 19.5t-23.5 56.5q0 20 15 55l112 245q8 17 23.5 19t24.5 -10.5t1 -30.5zM149 436q-25 0 -25 26t25 26h174q17 0 23.5 -13t0 -26t-23.5 -13h-174z" />
    <glyph glyph-name="Uring" unicode="&#x16e;" horiz-adv-x="743" 
d="M683 -266q-168 0 -168 249q0 7 -0.5 11.5t0.5 11.5q-87 -73 -168 -73q-68 0 -101.5 37.5t-33.5 95.5q0 46 25 101l107 230q51 111 12 191t-147 80q-61 0 -110.5 -42.5t-49.5 -107.5q0 -50 27.5 -84.5t72.5 -34.5q28 0 50.5 12.5t31.5 34.5q8 20 23.5 22.5t25.5 -9.5
t4 -30q-13 -40 -50.5 -61t-84.5 -21q-63 0 -108 50t-45 122q0 83 64.5 142.5t149.5 59.5q134 0 189 -101.5t-9 -244.5l-107 -231q-18 -39 -18 -79q0 -79 82 -79q78 0 174 94q11 89 23 127q49 163 94.5 255.5t94.5 92.5q23 0 37.5 -21.5t14.5 -51.5q0 -88 -62.5 -209.5
t-151.5 -214.5q-3 -30 -3 -65q0 -89 27 -147t89 -58q54 0 81 29t29 64q2 19 -9 33q-12 16 -5.5 30.5t21 15t27.5 -14.5q20 -24 19 -62q-2 -54 -43.5 -101.5t-120.5 -47.5zM596 196q-8 -27 -5 -29t20 22q89 123 115 224q2 5 4.5 17.5t4.5 28.5t0.5 27.5t-8.5 11.5
q-21 0 -57.5 -88.5t-73.5 -213.5zM573 783q0 39 31.5 70t73.5 31q30 0 49.5 -20.5t19.5 -50.5q0 -39 -32.5 -70t-70.5 -31q-31 0 -51 20.5t-20 50.5zM672 832q-17 1 -31.5 -13t-14.5 -33q0 -23 24 -23q17 0 31 13t14 30q0 24 -23 26z" />
    <glyph glyph-name="uring" unicode="&#x16f;" 
d="M151 342l-113 -245q-9 -22 -9 -33q0 -24 34 -24q24 0 46 23t33 48l115 253q7 17 22.5 19.5t25 -9.5t1.5 -30l-111 -245q-10 -21 -10 -36q0 -23 29 -23q16 0 29.5 8t25.5 25t15.5 24t11.5 22q12 22 34.5 13.5t13.5 -32.5q-17 -40 -52 -76t-78 -36q-55 0 -74 35
q-33 -35 -77 -35q-41 0 -64.5 19.5t-23.5 56.5q0 20 15 55l112 245q8 17 23.5 19t24.5 -10.5t1 -30.5zM161 490q0 39 31.5 70t73.5 31q30 0 49.5 -20.5t19.5 -50.5q0 -39 -32.5 -70t-70.5 -31q-31 0 -51 20.5t-20 50.5zM260 539q-17 1 -31.5 -13t-14.5 -33q0 -23 24 -23
q17 0 31 13t14 30q0 24 -23 26z" />
    <glyph glyph-name="Uhungarumlaut" unicode="&#x170;" horiz-adv-x="743" 
d="M683 -266q-168 0 -168 249q0 7 -0.5 11.5t0.5 11.5q-87 -73 -168 -73q-68 0 -101.5 37.5t-33.5 95.5q0 46 25 101l107 230q51 111 12 191t-147 80q-61 0 -110.5 -42.5t-49.5 -107.5q0 -50 27.5 -84.5t72.5 -34.5q28 0 50.5 12.5t31.5 34.5q8 20 23.5 22.5t25.5 -9.5
t4 -30q-13 -40 -50.5 -61t-84.5 -21q-63 0 -108 50t-45 122q0 83 64.5 142.5t149.5 59.5q134 0 189 -101.5t-9 -244.5l-107 -231q-18 -39 -18 -79q0 -79 82 -79q78 0 174 94q11 89 23 127q49 163 94.5 255.5t94.5 92.5q23 0 37.5 -21.5t14.5 -51.5q0 -88 -62.5 -209.5
t-151.5 -214.5q-3 -30 -3 -65q0 -89 27 -147t89 -58q54 0 81 29t29 64q2 19 -9 33q-12 16 -5.5 30.5t21 15t27.5 -14.5q20 -24 19 -62q-2 -54 -43.5 -101.5t-120.5 -47.5zM596 196q-8 -27 -5 -29t20 22q89 123 115 224q2 5 4.5 17.5t4.5 28.5t0.5 27.5t-8.5 11.5
q-21 0 -57.5 -88.5t-73.5 -213.5zM760 739q-15 -10 -28 -4t-13.5 19.5t13.5 25.5l133 94q16 11 29.5 5t13.5 -19.5t-15 -26.5zM629 747q-15 -10 -28 -4t-13.5 19.5t13.5 25.5l133 94q16 11 29.5 5t13.5 -19.5t-15 -26.5z" />
    <glyph glyph-name="uhungarumlaut" unicode="&#x171;" 
d="M151 342l-113 -245q-9 -22 -9 -33q0 -24 34 -24q24 0 46 23t33 48l115 253q7 17 22.5 19.5t25 -9.5t1.5 -30l-111 -245q-10 -21 -10 -36q0 -23 29 -23q16 0 29.5 8t25.5 25t15.5 24t11.5 22q12 22 34.5 13.5t13.5 -32.5q-17 -40 -52 -76t-78 -36q-55 0 -74 35
q-33 -35 -77 -35q-41 0 -64.5 19.5t-23.5 56.5q0 20 15 55l112 245q8 17 23.5 19t24.5 -10.5t1 -30.5zM315 446q-15 -10 -28 -4t-13.5 19.5t13.5 25.5l133 94q16 11 29.5 5t13.5 -19.5t-15 -26.5zM184 454q-15 -10 -28 -4t-13.5 19.5t13.5 25.5l133 94q16 11 29.5 5
t13.5 -19.5t-15 -26.5z" />
    <glyph glyph-name="Uogonek" unicode="&#x172;" horiz-adv-x="743" 
d="M683 -266q-168 0 -168 249q0 7 -0.5 11.5t0.5 11.5q-63 -52 -120 -66l-2 -2q-42 -23 -42 -48q0 -23 27 -23q19 0 39 17q16 14 30 8.5t14.5 -20t-12.5 -29.5q-32 -30 -71 -30q-38 0 -59.5 21.5t-21.5 55.5q0 24 15 46q-51 9 -75.5 44.5t-24.5 85.5q0 46 25 101l107 230
q51 111 12 191t-147 80q-61 0 -110.5 -42.5t-49.5 -107.5q0 -50 27.5 -84.5t72.5 -34.5q28 0 50.5 12.5t31.5 34.5q8 20 23.5 22.5t25.5 -9.5t4 -30q-13 -40 -50.5 -61t-84.5 -21q-63 0 -108 50t-45 122q0 83 64.5 142.5t149.5 59.5q134 0 189 -101.5t-9 -244.5l-107 -231
q-18 -39 -18 -79q0 -79 82 -79q78 0 174 94q11 89 23 127q49 163 94.5 255.5t94.5 92.5q23 0 37.5 -21.5t14.5 -51.5q0 -88 -62.5 -209.5t-151.5 -214.5q-3 -30 -3 -65q0 -89 27 -147t89 -58q54 0 81 29t29 64q2 19 -9 33q-12 16 -5.5 30.5t21 15t27.5 -14.5q20 -24 19 -62
q-2 -54 -43.5 -101.5t-120.5 -47.5zM596 196q-8 -27 -5 -29t20 22q89 123 115 224q2 5 4.5 17.5t4.5 28.5t0.5 27.5t-8.5 11.5q-21 0 -57.5 -88.5t-73.5 -213.5z" />
    <glyph glyph-name="uogonek" unicode="&#x173;" 
d="M214 40q15 0 27.5 6.5t22.5 19.5t17 24.5t15 28.5q12 22 34.5 13.5t13.5 -32.5q-33 -76 -91 -102q-37 -23 -37 -46t27 -23q19 0 39 17q16 14 30 8.5t14.5 -20t-12.5 -29.5q-32 -30 -71 -30q-38 0 -59.5 21.5t-21.5 55.5q0 22 12 42q-24 10 -34 29q-33 -35 -77 -35
q-41 0 -64.5 19.5t-23.5 56.5q0 20 15 55l112 245q8 17 23.5 19t24.5 -10.5t1 -30.5l-113 -245q-9 -22 -9 -33q0 -24 34 -24q24 0 46 23t33 48l115 253q7 17 22.5 19.5t25 -9.5t1.5 -30l-111 -245q-10 -21 -10 -36q0 -23 29 -23z" />
    <glyph glyph-name="Ydieresis" unicode="&#x178;" horiz-adv-x="719" 
d="M411 375l-78 -173q-18 -39 -18 -79q0 -34 21 -57.5t60 -22.5q76 3 131 53.5t84 112.5l148 322q13 28 37 24q21 -3 19 -25q-1 -7 -4 -14l-259 -562q-94 -205 -239 -205q-54 0 -92.5 27.5t-38.5 80.5q0 40 29.5 74.5t76.5 35.5q17 0 23.5 -12.5t0 -25t-23.5 -12.5
q-23 -1 -37.5 -19t-14.5 -43q0 -23 19 -38.5t58 -15.5q48 0 99 46.5t87 116.5l33 65q9 17 1 14l-13 -8q-57 -42 -123 -45q-67 0 -101 37.5t-34 95.5q0 46 25 101l78 173q50 112 11 191.5t-146 79.5q-61 0 -110.5 -42.5t-49.5 -107.5q0 -50 27.5 -84.5t72.5 -34.5
q28 0 50.5 12.5t31.5 34.5q8 20 23.5 22.5t25.5 -9.5t4 -30q-13 -40 -50.5 -61t-84.5 -21q-63 0 -108 50t-45 122q0 83 64.5 142.5t149.5 59.5q134 0 189 -101.5t-9 -244.5zM669 750q-3 -16 -15.5 -26.5t-28.5 -10.5q-18 0 -27.5 12t-6.5 29q2 15 15 26.5t28 11.5
q17 0 27.5 -13t7.5 -29zM769 750q-3 -16 -15.5 -26.5t-28.5 -10.5q-18 0 -27.5 12t-6.5 29q2 15 15 26.5t28 11.5q17 0 27.5 -13t7.5 -29z" />
    <glyph glyph-name="Zacute" unicode="&#x179;" horiz-adv-x="772" 
d="M495 686q51 0 105.5 -13t85 -24.5t81.5 -33.5q62 -30 105 -39q84 95 156 95q40 0 60.5 -19t20.5 -48q0 -35 -42.5 -66.5t-107.5 -31.5q-33 0 -68 7q-68 -78 -204.5 -232t-204.5 -231q-22 -24 -28 -30q40 -34 100 -90q60 -53 102.5 -86.5t104 -73.5t123.5 -60t124 -20
q81 0 139 44.5t58 93.5q0 46 -33 75q-25 21 -7.5 39t40.5 2q54 -36 54 -111q0 -85 -78.5 -141t-173.5 -56q-72 0 -141.5 22t-135 65t-109.5 78.5t-106 92.5l-36 33q-20 18 -67 56q-105 -84 -218 -84q-79 -1 -132.5 30.5t-53.5 86.5q0 60 55 92t123 31q109 0 225 -87l30 34
l370 422q22 21 -4 33l-39 18q-1 1 -2 1q-48 22 -82.5 35.5t-87 25t-103.5 11.5q-65 0 -118.5 -39.5t-53.5 -104.5q0 -48 30.5 -80.5t79.5 -32.5q54 0 72 41q7 19 22 21.5t25.5 -9.5t5.5 -29q-12 -38 -46.5 -57t-78.5 -19q-67 0 -115 48t-48 118q0 83 69 140t158 57zM194 -47
q75 0 154 51q5 3 8 6t4 4.5t0 4t-2 3.5t-4.5 3.5t-5.5 3.5q-88 56 -161 56q-57 0 -90.5 -18.5t-32.5 -49.5q0 -29 39 -46.5t91 -17.5zM1034 617q-41 0 -92 -49q-8 -8 4 -8q30 0 69.5 10t39.5 34q0 13 -21 13zM958 757q-16 -11 -29.5 -4.5t-13.5 21t14 26.5l139 98
q16 12 30 5.5t13.5 -21t-15.5 -27.5h1z" />
    <glyph glyph-name="zacute" unicode="&#x17a;" horiz-adv-x="299" 
d="M206 -12q-8 0 -14 6q-30 -97 -110.5 -176.5t-169.5 -79.5q-65 0 -98 31.5t-33 77.5q0 39 30 74t78 36q19 0 26.5 -13t-0.5 -26t-26 -13q-25 -2 -39.5 -20t-14.5 -38q0 -24 18.5 -40.5t58.5 -16.5q56 0 112.5 47.5t90.5 112t34 115.5q0 65 -33 65q-10 0 -16 4.5t-4 17
t17 30.5l122 144h-40q-20 0 -42 13q-6 -13 -27 -54.5t-31 -63.5l-60 -126q-16 -26 -39 -16t-7 41l147 306q9 18 25.5 19.5t23.5 -10.5t-1 -32q-5 -13 -1 -19t12 -6l85 2q31 0 37.5 -18.5t-11.5 -35.5q-57 -67 -137 -158q36 -23 36 -101q0 -8 -2 -28q1 0 3 1q16 0 29.5 8
t25.5 25t15.5 24t11.5 22q12 22 34.5 13.5t13.5 -32.5q-17 -40 -52 -76t-78 -36zM231 464q-16 -11 -29.5 -4.5t-13.5 21t14 26.5l139 98q16 12 30 5.5t13.5 -21t-15.5 -27.5h1z" />
    <glyph glyph-name="Zdotaccent" unicode="&#x17b;" horiz-adv-x="772" 
d="M495 686q51 0 105.5 -13t85 -24.5t81.5 -33.5q62 -30 105 -39q84 95 156 95q40 0 60.5 -19t20.5 -48q0 -35 -42.5 -66.5t-107.5 -31.5q-33 0 -68 7q-68 -78 -204.5 -232t-204.5 -231q-22 -24 -28 -30q40 -34 100 -90q60 -53 102.5 -86.5t104 -73.5t123.5 -60t124 -20
q81 0 139 44.5t58 93.5q0 46 -33 75q-25 21 -7.5 39t40.5 2q54 -36 54 -111q0 -85 -78.5 -141t-173.5 -56q-72 0 -141.5 22t-135 65t-109.5 78.5t-106 92.5l-36 33q-20 18 -67 56q-105 -84 -218 -84q-79 -1 -132.5 30.5t-53.5 86.5q0 60 55 92t123 31q109 0 225 -87l30 34
l370 422q22 21 -4 33l-39 18q-1 1 -2 1q-48 22 -82.5 35.5t-87 25t-103.5 11.5q-65 0 -118.5 -39.5t-53.5 -104.5q0 -48 30.5 -80.5t79.5 -32.5q54 0 72 41q7 19 22 21.5t25.5 -9.5t5.5 -29q-12 -38 -46.5 -57t-78.5 -19q-67 0 -115 48t-48 118q0 83 69 140t158 57zM194 -47
q75 0 154 51q5 3 8 6t4 4.5t0 4t-2 3.5t-4.5 3.5t-5.5 3.5q-88 56 -161 56q-57 0 -90.5 -18.5t-32.5 -49.5q0 -29 39 -46.5t91 -17.5zM1034 617q-41 0 -92 -49q-8 -8 4 -8q30 0 69.5 10t39.5 34q0 13 -21 13zM894 741q-3 -16 -15 -26t-27 -10q-17 0 -25.5 11.5t-6.5 27.5
q3 15 15 26t26 11q16 0 26 -12t7 -28z" />
    <glyph glyph-name="zdotaccent" unicode="&#x17c;" horiz-adv-x="299" 
d="M206 -12q-8 0 -14 6q-30 -97 -110.5 -176.5t-169.5 -79.5q-65 0 -98 31.5t-33 77.5q0 39 30 74t78 36q19 0 26.5 -13t-0.5 -26t-26 -13q-25 -2 -39.5 -20t-14.5 -38q0 -24 18.5 -40.5t58.5 -16.5q56 0 112.5 47.5t90.5 112t34 115.5q0 65 -33 65q-10 0 -16 4.5t-4 17
t17 30.5l122 144h-40q-20 0 -42 13q-6 -13 -27 -54.5t-31 -63.5l-60 -126q-16 -26 -39 -16t-7 41l147 306q9 18 25.5 19.5t23.5 -10.5t-1 -32q-5 -13 -1 -19t12 -6l85 2q31 0 37.5 -18.5t-11.5 -35.5q-57 -67 -137 -158q36 -23 36 -101q0 -8 -2 -28q1 0 3 1q16 0 29.5 8
t25.5 25t15.5 24t11.5 22q12 22 34.5 13.5t13.5 -32.5q-17 -40 -52 -76t-78 -36zM303 448q-3 -16 -15 -26t-27 -10q-17 0 -25.5 11.5t-6.5 27.5q3 15 15 26t26 11q16 0 26 -12t7 -28z" />
    <glyph glyph-name="Zcaron" unicode="&#x17d;" horiz-adv-x="772" 
d="M495 686q51 0 105.5 -13t85 -24.5t81.5 -33.5q62 -30 105 -39q84 95 156 95q40 0 60.5 -19t20.5 -48q0 -35 -42.5 -66.5t-107.5 -31.5q-33 0 -68 7q-68 -78 -204.5 -232t-204.5 -231q-22 -24 -28 -30q40 -34 100 -90q60 -53 102.5 -86.5t104 -73.5t123.5 -60t124 -20
q81 0 139 44.5t58 93.5q0 46 -33 75q-25 21 -7.5 39t40.5 2q54 -36 54 -111q0 -85 -78.5 -141t-173.5 -56q-72 0 -141.5 22t-135 65t-109.5 78.5t-106 92.5l-36 33q-20 18 -67 56q-105 -84 -218 -84q-79 -1 -132.5 30.5t-53.5 86.5q0 60 55 92t123 31q109 0 225 -87l30 34
l370 422q22 21 -4 33l-39 18q-1 1 -2 1q-48 22 -82.5 35.5t-87 25t-103.5 11.5q-65 0 -118.5 -39.5t-53.5 -104.5q0 -48 30.5 -80.5t79.5 -32.5q54 0 72 41q7 19 22 21.5t25.5 -9.5t5.5 -29q-12 -38 -46.5 -57t-78.5 -19q-67 0 -115 48t-48 118q0 83 69 140t158 57zM194 -47
q75 0 154 51q5 3 8 6t4 4.5t0 4t-2 3.5t-4.5 3.5t-5.5 3.5q-88 56 -161 56q-57 0 -90.5 -18.5t-32.5 -49.5q0 -29 39 -46.5t91 -17.5zM1034 617q-41 0 -92 -49q-8 -8 4 -8q30 0 69.5 10t39.5 34q0 13 -21 13zM773 750l-42 91q-11 25 9 38q18 14 32 -6q2 -2 3 -5l22 -48
q8 -17 25 -6l91 64q17 12 30.5 5.5t12.5 -21.5t-14 -27l-128 -91q-9 -8 -22 -7t-19 13z" />
    <glyph glyph-name="zcaron" unicode="&#x17e;" horiz-adv-x="299" 
d="M206 -12q-8 0 -14 6q-30 -97 -110.5 -176.5t-169.5 -79.5q-65 0 -98 31.5t-33 77.5q0 39 30 74t78 36q19 0 26.5 -13t-0.5 -26t-26 -13q-25 -2 -39.5 -20t-14.5 -38q0 -24 18.5 -40.5t58.5 -16.5q56 0 112.5 47.5t90.5 112t34 115.5q0 65 -33 65q-10 0 -16 4.5t-4 17
t17 30.5l122 144h-40q-20 0 -42 13q-6 -13 -27 -54.5t-31 -63.5l-60 -126q-16 -26 -39 -16t-7 41l147 306q9 18 25.5 19.5t23.5 -10.5t-1 -32q-5 -13 -1 -19t12 -6l85 2q31 0 37.5 -18.5t-11.5 -35.5q-57 -67 -137 -158q36 -23 36 -101q0 -8 -2 -28q1 0 3 1q16 0 29.5 8
t25.5 25t15.5 24t11.5 22q12 22 34.5 13.5t13.5 -32.5q-17 -40 -52 -76t-78 -36zM225 457l-42 91q-11 25 9 38q18 14 32 -6l3 -5l22 -48q8 -17 25 -6l91 64q17 12 30.5 5.5t12.5 -21.5t-14 -27l-128 -91q-9 -8 -22 -7t-19 13z" />
    <glyph glyph-name="florin" unicode="&#x192;" horiz-adv-x="156" 
d="M203 330h-40q-20 0 -28 -18q-21 -47 -82 -178.5t-89 -194.5q-93 -206 -239 -206q-65 0 -98 31.5t-33 77.5q0 39 30 74t78 36q21 0 29 -13t-1 -26t-28 -13q-25 -2 -39.5 -20t-14.5 -38q0 -24 18.5 -40.5t58.5 -16.5q52 0 102 43t84 119l167 365q8 18 -12 18h-2
q-22 1 -22 21q-1 20 20 29q7 2 14 2h14q21 0 29 18l35 75q45 96 106.5 154t135.5 58q65 0 98 -31.5t33 -77.5q0 -39 -30 -74t-78 -36q-18 0 -24.5 13t1 26t23.5 13q25 2 39.5 20t14.5 38q0 24 -18.5 40.5t-58.5 16.5q-49 0 -100 -45t-86 -119l-33 -71q-8 -18 11 -18h24
q23 0 24 -20q2 -21 -19 -29q-6 -3 -14 -3z" />
    <glyph glyph-name="Ohorn" unicode="&#x1a0;" horiz-adv-x="833" 
d="M104 308q36 156 164 266t273 110q126 0 204 -83t78 -211q0 -43 -10 -91q-37 -156 -164.5 -265.5t-272.5 -109.5q-126 0 -204.5 83t-78.5 211q0 44 11 90zM157 299q-10 -50 -10 -81q0 -105 63.5 -172.5t165.5 -67.5q122 0 234.5 98.5t148.5 232.5v-1q10 43 10 82
q0 105 -63 172.5t-165 67.5q-126 0 -239 -97.5t-145 -233.5z" />
    <glyph glyph-name="ohorn" unicode="&#x1a1;" horiz-adv-x="269" 
d="M63 -12q-41 0 -64.5 19.5t-23.5 56.5q0 26 14 56l75 158q53 109 129 109q41 0 64.5 -19.5t23.5 -56.5q0 -27 -15 -57l-74 -157q-53 -109 -129 -109zM29 64q0 -24 34 -24q44 0 83 82l72 156q25 57 -25 57q-16 0 -30 -8.5t-25.5 -26.5t-15 -24.5t-12.5 -24.5l-72 -154
q-9 -18 -9 -33z" />
    <glyph glyph-name="Uhorn" unicode="&#x1af;" horiz-adv-x="743" 
d="M683 -266q-168 0 -168 249q0 7 -0.5 11.5t0.5 11.5q-87 -73 -168 -73q-68 0 -101.5 37.5t-33.5 95.5q0 46 25 101l107 230q51 111 12 191t-147 80q-61 0 -110.5 -42.5t-49.5 -107.5q0 -50 27.5 -84.5t72.5 -34.5q28 0 50.5 12.5t31.5 34.5q8 20 23.5 22.5t25.5 -9.5
t4 -30q-13 -40 -50.5 -61t-84.5 -21q-63 0 -108 50t-45 122q0 83 64.5 142.5t149.5 59.5q134 0 189 -101.5t-9 -244.5l-107 -231q-18 -39 -18 -79q0 -79 82 -79q78 0 174 94q11 89 23 127q49 163 94.5 255.5t94.5 92.5q23 0 37.5 -21.5t14.5 -51.5q0 -88 -62.5 -209.5
t-151.5 -214.5q-3 -30 -3 -65q0 -89 27 -147t89 -58q54 0 81 29t29 64q2 19 -9 33q-12 16 -5.5 30.5t21 15t27.5 -14.5q20 -24 19 -62q-2 -54 -43.5 -101.5t-120.5 -47.5zM596 196q-8 -27 -5 -29t20 22q89 123 115 224q2 5 4.5 17.5t4.5 28.5t0.5 27.5t-8.5 11.5
q-21 0 -57.5 -88.5t-73.5 -213.5z" />
    <glyph glyph-name="uhorn" unicode="&#x1b0;" 
d="M151 342l-113 -245q-9 -22 -9 -33q0 -24 34 -24q24 0 46 23t33 48l115 253q7 17 22.5 19.5t25 -9.5t1.5 -30l-111 -245q-10 -21 -10 -36q0 -23 29 -23q16 0 29.5 8t25.5 25t15.5 24t11.5 22q12 22 34.5 13.5t13.5 -32.5q-17 -40 -52 -76t-78 -36q-55 0 -74 35
q-33 -35 -77 -35q-41 0 -64.5 19.5t-23.5 56.5q0 20 15 55l112 245q8 17 23.5 19t24.5 -10.5t1 -30.5z" />
    <glyph glyph-name="Scommaaccent" unicode="&#x218;" horiz-adv-x="761" 
d="M325 -134q20 0 31.5 -12.5t11.5 -31.5q0 -33 -29.5 -64t-65.5 -50q-24 -12 -33 4q-9 14 6 25l2 1q38 19 59 44q-13 1 -21.5 13t-8.5 25q0 18 14.5 32t33.5 14zM374 -108q-128 0 -215.5 78.5t-92.5 203.5q-5 117 76.5 206t207.5 89q103 0 159 -55t56 -134
q0 -35 -22.5 -75.5t-57.5 -60.5q-17 -10 -30.5 -3t-13 21t14.5 25q55 36 55 93t-42.5 96t-120.5 39q-101 0 -167 -72t-61 -169q4 -99 78.5 -163.5t175.5 -64.5q70 0 135 32t109.5 98t44.5 151q0 45 -30 137q-32 100 -32 156q0 81 55.5 130t120.5 49q53 0 94 -32t41 -89
q0 -39 -30 -74t-78 -36q-19 0 -26 13t1 26t25 13q25 2 39.5 20t14.5 38q0 30 -22.5 49.5t-57.5 19.5q-44 0 -83.5 -35t-39.5 -92q0 -46 30 -136q32 -98 32 -157q0 -77 -30.5 -142.5t-80.5 -106.5t-110 -63.5t-122 -22.5z" />
    <glyph glyph-name="scommaaccent" unicode="&#x219;" horiz-adv-x="254" 
d="M4 -53q20 0 31.5 -12.5t11.5 -31.5q0 -33 -29.5 -64t-65.5 -50q-24 -12 -34 4q-8 14 7 25q1 0 2 1q38 19 59 44q-13 1 -21.5 13t-8.5 25q0 18 14.5 32t33.5 14zM-21 -6q-20 8 -39 29q-10 11 -5 25.5t18 18.5t28 -7q8 -10 24 -16q12 -4 25 -4q45 0 76.5 33t35.5 81
q3 37 -18 85q-10 19 -11.5 18.5t-10.5 -18.5q-13 -26 -34.5 -75t-29.5 -65q-8 -17 -23.5 -18.5t-24 10.5t-0.5 29q20 39 134 294q8 18 24.5 21t26 -9t1.5 -32l-5 -11q-9 -22 -11 -39q-3 -27 18 -92q20 -64 18 -99q-5 -67 -53.5 -117t-115.5 -50q-27 0 -48 8zM161 -12
q-16 0 -22.5 13t0 26t22.5 13q43 0 82 79q12 22 34.5 13.5t13.5 -32.5q-17 -40 -52 -76t-78 -36z" />
    <glyph glyph-name="circumflex" unicode="&#x2c6;" horiz-adv-x="328" 
d="M286 593l42 -91q11 -25 -9 -38q-18 -14 -32 6q-2 2 -3 5l-22 48q-8 17 -25 6l-91 -64q-17 -12 -30.5 -5.5t-12.5 21.5t14 27l128 91q9 8 22 7t19 -13z" />
    <glyph glyph-name="caron" unicode="&#x2c7;" horiz-adv-x="290" 
d="M145 457l-42 91q-11 25 9 38q18 14 32 -6l3 -5l22 -48q8 -17 25 -6l91 64q17 12 30.5 5.5t12.5 -21.5t-14 -27l-128 -91q-9 -8 -22 -7t-19 13z" />
    <glyph glyph-name="breve" unicode="&#x2d8;" 
d="M159 512q-9 26 12 38q18 11 29 -7q0 -2 1 -3q17 -36 54 -36q33 0 69 29q12 10 25 5t14 -17.5t-12 -25.5q-54 -43 -102 -43q-32 0 -56.5 16.5t-33.5 43.5z" />
    <glyph glyph-name="dotaccent" unicode="&#x2d9;" horiz-adv-x="151" 
d="M205 448q-3 -16 -15 -26t-27 -10q-17 0 -25.5 11.5t-6.5 27.5q3 15 15 26t26 11q16 0 26 -12t7 -28z" />
    <glyph glyph-name="ring" unicode="&#x2da;" horiz-adv-x="267" 
d="M101 490q0 39 31.5 70t73.5 31q30 0 49.5 -20.5t19.5 -50.5q0 -39 -32.5 -70t-70.5 -31q-31 0 -51 20.5t-20 50.5zM200 539q-17 1 -31.5 -13t-14.5 -33q0 -23 24 -23q17 0 31 13t14 30q0 24 -23 26z" />
    <glyph glyph-name="ogonek" unicode="&#x2db;" 
d="M236 45q13 7 23 -2.5t10 -22t-10 -20.5q-42 -23 -42 -48q0 -23 27 -23q19 0 39 17q16 14 30 8.5t14.5 -20t-12.5 -29.5q-32 -30 -71 -30q-38 0 -59.5 21.5t-21.5 55.5q0 56 73 93z" />
    <glyph glyph-name="tilde" unicode="&#x2dc;" horiz-adv-x="251" 
d="M170 432q-16 -12 -30 -6.5t-14 19.5t14 28q24 19 50 19q17 0 45 -13q25 -13 44 -4q24 12 34.5 -9t-11.5 -35t-42 -14q-21 0 -43 12q-31 16 -47 3z" />
    <glyph glyph-name="hungarumlaut" unicode="&#x2dd;" horiz-adv-x="402" 
d="M337 446q-15 -10 -28 -4t-13.5 19.5t13.5 25.5l133 94q16 11 29.5 5t13.5 -19.5t-15 -26.5zM206 454q-15 -10 -28 -4t-13.5 19.5t13.5 25.5l133 94q16 11 29.5 5t13.5 -19.5t-15 -26.5z" />
    <glyph glyph-name="gravecomb" unicode="&#x300;" horiz-adv-x="330" 
d="M306 467l-98 95q-21 21 -3.5 38.5t38.5 -2.5l96 -92l-1 1q14 -11 11.5 -27.5t-15.5 -20.5t-28 8z" />
    <glyph glyph-name="acutecomb" unicode="&#x301;" horiz-adv-x="258" 
d="M215 464q-16 -11 -29.5 -4.5t-13.5 21t14 26.5l139 98q16 12 30 5.5t13.5 -21t-15.5 -27.5h1z" />
    <glyph glyph-name="tildecomb" unicode="&#x303;" horiz-adv-x="251" 
d="M170 432q-16 -12 -30 -6.5t-14 19.5t14 28q24 19 50 19q17 0 45 -13q25 -13 44 -4q24 12 34.5 -9t-11.5 -35t-42 -14q-21 0 -43 12q-31 16 -47 3z" />
    <glyph glyph-name="hookabovecomb" unicode="&#x309;" horiz-adv-x="833" 
 />
    <glyph glyph-name="dotbelowcomb" unicode="&#x323;" horiz-adv-x="151" 
d="M41 -115q-2 -11 -11.5 -19t-20.5 -8q-12 0 -18 8t-4 19q1 11 10.5 19.5t20.5 8.5t18 -8.5t5 -19.5z" />
    <glyph glyph-name="endash" unicode="&#x2013;" horiz-adv-x="327" 
d="M84 198q-16 0 -22.5 13t0 26t22.5 13h179q17 0 23.5 -13t0 -26t-23.5 -13h-179z" />
    <glyph glyph-name="emdash" unicode="&#x2014;" horiz-adv-x="482" 
d="M140 198q-16 0 -22.5 13t0 26t22.5 13h258q17 0 23.5 -13t0 -26t-23.5 -13h-258z" />
    <glyph glyph-name="quoteleft" unicode="&#x2018;" horiz-adv-x="212" 
d="M196 430q-20 0 -31.5 12.5t-11.5 31.5q0 33 29.5 64t65.5 50q24 12 34 -4q8 -14 -7 -25q-1 0 -2 -1q-38 -19 -59 -44q13 -1 21.5 -13t8.5 -25q0 -18 -14.5 -32t-33.5 -14z" />
    <glyph glyph-name="quoteright" unicode="&#x2019;" horiz-adv-x="193" 
d="M239 605q20 0 31.5 -12.5t11.5 -31.5q0 -33 -29.5 -64t-65.5 -50q-24 -12 -33 4q-9 14 6 25l2 1q38 19 59 44q-13 1 -21.5 13t-8.5 25q0 18 14.5 32t33.5 14z" />
    <glyph glyph-name="quotesinglbase" unicode="&#x201a;" horiz-adv-x="227" 
d="M102 84q20 0 31.5 -12.5t11.5 -31.5q0 -33 -29.5 -64t-65.5 -50q-24 -12 -34 4q-8 14 7 25q1 0 2 1q38 19 59 44q-13 1 -21.5 13t-8.5 25q0 18 14.5 32t33.5 14z" />
    <glyph glyph-name="quotedblleft" unicode="&#x201c;" horiz-adv-x="304" 
d="M293 430q-20 0 -31.5 12.5t-11.5 31.5q0 33 29.5 64t65.5 50q24 12 33 -4q9 -14 -6 -25q-1 0 -2 -1q-38 -19 -59 -44q13 -1 21.5 -13t8.5 -25q0 -18 -14.5 -32t-33.5 -14zM182 430q-20 0 -31.5 12.5t-11.5 31.5q0 33 29.5 64t65.5 50q24 12 34 -4q8 -14 -7 -25
q-1 0 -2 -1q-38 -19 -59 -44q13 -1 21.5 -13t8.5 -25q0 -18 -14.5 -32t-33.5 -14z" />
    <glyph glyph-name="quotedblright" unicode="&#x201d;" horiz-adv-x="304" 
d="M239 605q20 0 31.5 -12.5t11.5 -31.5q0 -33 -29.5 -64t-65.5 -50q-24 -12 -33 4q-9 14 6 25l2 1q38 19 59 44q-13 1 -21.5 13t-8.5 25q0 18 14.5 32t33.5 14zM350 605q20 0 31.5 -12.5t11.5 -31.5q0 -33 -29.5 -64t-65.5 -50q-24 -12 -34 4q-8 14 7 25l2 1q38 19 59 44
q-13 1 -21.5 13t-8.5 25q0 18 14.5 32t33.5 14z" />
    <glyph glyph-name="quotedblbase" unicode="&#x201e;" horiz-adv-x="401" 
d="M115 84q20 0 31.5 -12.5t11.5 -31.5q0 -33 -29.5 -64t-65.5 -50q-24 -12 -34 4q-8 14 7 25q1 0 2 1q38 19 59 44q-13 1 -21.5 13t-8.5 25q0 18 14.5 32t33.5 14zM238 84q20 0 31.5 -12.5t11.5 -31.5q0 -33 -29.5 -64t-65.5 -50q-24 -12 -34 4q-8 14 7 25q1 0 2 1
q38 19 59 44q-13 1 -21.5 13t-8.5 25q0 18 14.5 32t33.5 14z" />
    <glyph glyph-name="dagger" unicode="&#x2020;" horiz-adv-x="398" 
d="M35 397q-20 0 -28 13.5t0 27t28 13.5q80 0 136 -39v122q0 12 8 19.5t19 7.5q10 0 18.5 -7.5t8.5 -19.5v-122q54 39 136 39q20 0 28 -13.5t0 -27t-28 -13.5q-67 1 -101.5 -19t-34.5 -43v-397q0 -18 -8 -28t-19 -10t-19 10t-8 28v397q0 22 -35.5 42.5t-100.5 19.5z" />
    <glyph glyph-name="daggerdbl" unicode="&#x2021;" horiz-adv-x="398" 
d="M225 -62q0 -18 -8 -28t-19 -10t-19 10t-8 28v115q-2 22 -37.5 41.5t-98.5 18.5q-20 0 -28 13.5t0 27t28 13.5q80 0 136 -39v207q0 22 -35.5 42.5t-100.5 19.5q-20 0 -28 13.5t0 27t28 13.5q80 0 136 -39v122q0 12 8 19.5t19 7.5q10 0 18.5 -7.5t8.5 -19.5v-122
q54 39 136 39q20 0 28 -13.5t0 -27t-28 -13.5q-67 1 -101.5 -19t-34.5 -43v-207q54 39 136 39q20 0 28 -13.5t0 -27t-28 -13.5q-66 1 -100 -18t-36 -42v-115z" />
    <glyph glyph-name="bullet" unicode="&#x2022;" horiz-adv-x="275" 
d="M219 199v-1q-5 -25 -26.5 -43t-47.5 -18q-28 0 -43.5 20t-10.5 47q3 26 25 44.5t46 18.5q29 0 46 -20t11 -48z" />
    <glyph glyph-name="ellipsis" unicode="&#x2026;" horiz-adv-x="543" 
d="M145 25q-3 -16 -15.5 -26.5t-28.5 -10.5q-18 0 -27 12t-7 29q3 15 15.5 26.5t27.5 11.5q17 0 27.5 -13t7.5 -29zM283 25q-3 -16 -15.5 -26.5t-28.5 -10.5q-18 0 -27 12t-7 29q3 15 15.5 26.5t27.5 11.5q17 0 27.5 -13t7.5 -29zM421 25q-3 -16 -15.5 -26.5t-28.5 -10.5
q-18 0 -27 12t-7 29q3 15 15.5 26.5t27.5 11.5q17 0 27.5 -13t7.5 -29z" />
    <glyph glyph-name="perthousand" unicode="&#x2030;" horiz-adv-x="694" 
d="M342 207q0 37 26 63.5t64 26.5q37 0 63 -26q26 26 63 26q38 0 64 -26.5t26 -63.5t-26 -63.5t-64 -26.5t-63 25q-25 -25 -63 -25t-64 26.5t-26 63.5zM569 525l-446 -484q-21 -28 -44 -17q-20 10 -11 33q4 9 12 18l449 485q20 22 40.5 5.5t-0.5 -40.5zM150 414q0 38 26 64
t64 26t64 -26t26 -64t-26 -64t-64 -26t-64 26t-26 64zM522 204q1 -14 11.5 -23.5t24.5 -9.5q15 0 25.5 10.5t10.5 25.5t-10.5 25.5t-25.5 10.5q-14 0 -24.5 -9.5t-11.5 -23.5v-6zM204 414q0 -15 10.5 -25.5t25.5 -10.5t25.5 10.5t10.5 25.5t-10.5 25.5t-25.5 10.5
t-25.5 -10.5t-10.5 -25.5zM396 207q0 -15 10.5 -25.5t25.5 -10.5t25.5 10.5t10.5 25.5v3q-2 14 -12 23.5t-24 9.5q-15 0 -25.5 -10.5t-10.5 -25.5z" />
    <glyph glyph-name="guilsinglleft" unicode="&#x2039;" horiz-adv-x="282" 
d="M86 238l151 88q11 6 19 6q26 0 26 -26q0 -18 -18 -28l-116 -65q-17 -10 -7 -28l50 -92q3 -5 3 -15q0 -12 -8 -19.5t-19 -7.5q-17 0 -24 14l-71 130q-4 7 -4 17q0 16 18 26z" />
    <glyph glyph-name="guilsinglright" unicode="&#x203a;" horiz-adv-x="323" 
d="M255 148l-151 -88q-19 -10 -32 -3t-12.5 24t17.5 27l116 65q17 10 7 28l-50 92q-14 25 9.5 38t37.5 -10l72 -131q15 -27 -14 -42z" />
    <glyph glyph-name="fraction" unicode="&#x2044;" horiz-adv-x="362" 
d="M455 565l-348 -557q-15 -25 -39 -16q-21 8 -15 29q2 5 5 10l350 559q9 14 25.5 15t23.5 -10.5t-2 -29.5z" />
    <glyph glyph-name="dong" unicode="&#x20ab;" 
d="M277 443q-21 0 -22 20q-1 22 18 30l12 2h33l44 94q8 17 25 20t24.5 -8.5t-0.5 -32.5l-34 -73h22q21 0 23 -20q1 -22 -19 -30l-12 -2h-38l-158 -344q-6 -14 -8.5 -26t3.5 -22.5t24 -10.5q16 0 29.5 8t25.5 25t15.5 24t11.5 22q12 22 34.5 13.5t13.5 -32.5q-17 -40 -52 -76
t-78 -36q-27 0 -45 9v-1l-7 3.5t-7 4.5l-2 2q-3 2 -5 5q-7 9 -8 12q-33 -35 -77 -35q-41 0 -64.5 19.5t-23.5 56.5q0 26 14 56l75 158q53 109 129 109q45 0 62 -29l39 85h-17zM141 109q1 4 5 12l66 143l10 22q8 17 1 33t-30 16q-16 0 -30 -8.5t-25.5 -26.5t-15 -24.5
t-12.5 -24.5l-72 -154q-11 -19 -5.5 -38t30.5 -19t46 22.5t32 46.5zM-39 -109q-16 0 -21.5 13t2 26t23.5 13h178q17 0 22.5 -13t-2 -26t-24.5 -13h-178z" />
    <glyph glyph-name="Euro" unicode="&#x20ac;" horiz-adv-x="581" 
d="M120 342q-17 0 -23.5 13t0 26t23.5 13h22q22 0 30 17q48 79 119.5 128t143.5 49q88 0 139 -73q17 -24 1 -44q-15 -19 -34 -4q-5 4 -9 11q-35 56 -97 56q-52 0 -106.5 -34.5t-95.5 -91.5q-4 -3 -2.5 -8.5t11.5 -5.5h57q18 0 25.5 -13t0 -26t-25.5 -13h-85q-20 0 -28 -19
q-6 -15 -7 -21q-4 -19 16 -19h51q18 0 26 -13t0 -26t-26 -13h-64q-20 0 -17 -34q2 -60 34 -98t85 -38q58 0 124 46q20 12 34.5 8t14 -21.5t-19.5 -31.5q-73 -55 -153 -55q-76 0 -121.5 52t-52.5 137v19q0 16 -15 16h-28q-16 0 -22.5 13t0 26t22.5 13h36q16 0 19 13l9 30
q6 16 -11 16z" />
    <glyph glyph-name="trademark" unicode="&#x2122;" horiz-adv-x="571" 
d="M376 238l-26 43v-73q0 -14 -8 -22t-19 -8t-19 8t-8 22v152q0 32 29 32q19 0 32 -20l37 -60q10 -17 20 0l37 60q13 20 32 20q29 0 29 -32v-152q0 -14 -8 -22t-19 -8t-19 8t-8 22v73l-26 -43q-28 -45 -56 0zM221 208q0 -12 -8 -21t-18 -9q-11 0 -19.5 9t-8.5 21v128h-38
q-10 0 -17 8t-7 19t7 20t17 9h128q10 0 17 -9t7 -20t-7 -19t-17 -8h-36v-128z" />
    <glyph glyph-name="minus" unicode="&#x2212;" horiz-adv-x="371" 
d="M79 198q-25 0 -25 26t25 26h237q17 0 23.5 -13t0 -26t-23.5 -13h-237z" />
    <glyph glyph-name="heart" unicode="&#x2665;" horiz-adv-x="677" 
d="M341 381q44 0 128 -48.5t120 -48.5q46 0 68 31q11 11 21.5 2.5t0.5 -20.5q-31 -41 -90 -41q-46 0 -107 35q-22 13 -49 -8.5t-49 -56.5q13 5 27 5q40 0 64.5 -24t24.5 -62q0 -73 -76.5 -123.5t-177.5 -50.5q-36 0 -70 9q-14 0 -14 15t14 15q4 -1 10 0q18 18 18 55
q0 17 -7.5 57t-7.5 61q0 36 25.5 61t62.5 25q19 0 35 -12t20 -32q1 -8 -3.5 -12.5t-10.5 -3.5t-8 7q-7 23 -33 23q-25 0 -41.5 -16t-16.5 -40q0 -18 6 -58.5t6 -60.5q0 -15 -3 -30q-5 -27 -3 -30t21 -3q90 0 157 41.5t67 102.5q0 26 -16.5 41.5t-44.5 15.5t-45 -14
q-14 -11 -20 5q-5 18 8 40q38 59 73 77q10 7 10 8.5t-9 6.5q-51 28 -85 28q-51 0 -82 -33q-12 -13 -23.5 -4t1.5 22q43 43 104 43z" />
    <glyph glyph-name="r.55" horiz-adv-x="262" 
d="M100 72l97 210q9 22 9 33q0 10 -7 15.5t-16 7t-16.5 7.5t-8.5 17l-122 -264q-11 -24 -35 -14.5t-12 35.5l154 330q7 15 22 17t24.5 -8.5t1.5 -26.5q-12 -22 -2.5 -33.5t26 -14t32.5 -17.5t16 -44q0 -23 -15 -58l-98 -213q-12 -26 -17 -55t5.5 -53.5t40.5 -24.5q14 0 37 9
q23 10 33 -10q9 -21 -13 -37q-3 -1 -6 -3q-26 -13 -54 -13q-52 0 -78 31.5t-24 78.5t26 98z" />
    <glyph glyph-name="t.5" horiz-adv-x="153" 
d="M135 312l-121 -261q-12 -26 -17 -55t5.5 -53.5t40.5 -24.5q14 0 37 9q23 10 33 -10q9 -21 -13 -37q-3 -1 -6 -3q-26 -13 -54 -13q-52 0 -77 32t-23 78.5t26 97.5l111 240q7 18 -2 18q-23 0 -24 20q-1 21 19 29q6 3 14 3h4q21 0 28 18l34 72q8 17 25 20t25 -8.5t0 -32.5
l-25 -51q-8 -18 12 -18h14q21 0 23 -20q2 -22 -19 -30l-13 -2h-29q-20 0 -28 -18z" />
    <glyph glyph-name="s.999" horiz-adv-x="254" 
d="M-22 -6q-20 8 -39 29q-10 11 -5 25.5t18 18.5t28 -7q8 -10 24 -16q12 -4 25 -4q45 0 76.5 33t35.5 81q3 37 -18 85q-10 19 -11.5 18.5t-10.5 -18.5q-13 -26 -34.5 -75t-29.5 -65q-8 -17 -23.5 -18.5t-24 10.5t-0.5 29q20 39 134 294q8 18 24.5 21t26 -9t1.5 -32l-5 -11
q-9 -22 -11 -39q-3 -27 18 -92q20 -64 18 -99q-5 -67 -53.5 -117t-115.5 -50q-27 0 -48 8z" />
    <glyph glyph-name="e.99" horiz-adv-x="729" 
d="M58 149q-22 -49 -24 -106q1 -102 77.5 -179.5t208.5 -77.5q146 1 235 88.5t89 198.5q0 76 -53.5 132t-133.5 56q-74 0 -120.5 -41t-47.5 -101q1 -25 23 -55q16 -21 -4.5 -38.5t-40.5 2.5q-33 31 -33 93q1 75 62 134t160 60q102 0 172.5 -70.5t70.5 -168.5
q0 -63 -26.5 -124.5t-74 -110.5t-119 -79t-155.5 -30q-148 0 -246 88.5t-98 223.5q0 63 28 122l53 112q51 109 125 109q37 0 57 -18t20 -50q0 -22 -8 -43q-45 -119 -141 -119q-9 0 -29 4q-19 6 -27 -12zM197 281q21 50 -11 54q-40 6 -72 -68l-13 -29q-10 -26 20 -26
q47 0 76 69z" />
    <glyph glyph-name="p.3" horiz-adv-x="276" 
d="M-65 4l166 360q13 28 35 23q16 -4 13 -22q0 -2 -1 -4t-1 -4q1 -2 4 2q23 28 53 28q76 0 76 -76q0 -15 -15 -57l-74 -157q-49 -109 -129 -109q-41 0 -64 23l-13 -30l-6 -13q-94 -218 -239 -218q-65 0 -98 31.5t-33 77.5q0 39 30 74t78 36q18 0 25 -13t-0.5 -26t-24.5 -13
q-25 -2 -39.5 -20t-14.5 -38q0 -24 18.5 -40.5t58.5 -16.5q50 0 100.5 50t82.5 124zM196 335q-26 0 -47.5 -22t-34.5 -49v1l-82 -181q-9 -16 -1.5 -30t31.5 -14q44 0 83 82l72 156q9 22 9 33q0 24 -30 24zM183 -12q-15 0 -21.5 13t0 26t21.5 13q43 0 82 79q12 22 34.5 13.5
t13.5 -32.5q-17 -40 -52 -76t-78 -36z" />
    <glyph glyph-name="a.99" horiz-adv-x="886" 
d="M211 135q-29 -62 -29 -133q-1 -93 77.5 -165t212.5 -72q146 1 235 88.5t89 198.5q0 76 -53.5 132t-133.5 56q-74 0 -121.5 -41t-46.5 -101q0 -24 23 -55q11 -13 4.5 -28t-21.5 -17t-31 13q-30 32 -30 89q1 75 62 134t160 60q102 0 172.5 -70.5t70.5 -168.5
q0 -63 -26.5 -124.5t-74 -110.5t-119 -79t-155.5 -30q-151 0 -251.5 82.5t-100.5 209.5v20q-32 -35 -66 -35q-37 0 -60 19.5t-23 56.5q0 26 14 56l75 158q53 109 129 109q20 0 38.5 -8.5t25.5 -23.5q9 24 32 22q19 -3 19 -22q0 -5 -2 -11zM58 40q19 0 44.5 22t48.5 72
q2 6 4 9l63 133q7 14 8 27t-7 22.5t-26 9.5q-16 0 -30 -8.5t-25.5 -26.5t-15 -24.5t-12.5 -24.5l-72 -154q-11 -21 -7 -39t27 -18z" />
    <glyph glyph-name="z.12323" horiz-adv-x="245" 
 />
    <glyph glyph-name="i.1" horiz-adv-x="151" 
 />
    <glyph glyph-name="i.2" horiz-adv-x="151" 
 />
    <glyph glyph-name="b.3" horiz-adv-x="276" 
d="M169 398l-12 -25q25 15 49 15q34 0 53.5 -21t19.5 -56q0 -27 -15 -57l-74 -157q-49 -109 -129 -109q-40 0 -63 21t-23 57q0 24 14 54l80 174l48 104l27 56q45 94 107.5 153t135.5 59q65 0 98 -31.5t33 -77.5q0 -40 -30 -75t-78 -35q-17 0 -23.5 13t0 26t23.5 13
q25 0 39.5 19t14.5 39q0 24 -18.5 40.5t-58.5 16.5q-52 0 -101.5 -42t-89.5 -120zM109 257l-74 -165q-9 -19 -2.5 -35.5t28.5 -16.5q44 0 83 82l72 156q25 57 -21 57q-28 0 -50.5 -25t-35.5 -53zM182 -12q-15 0 -21.5 13t0 26t21.5 13q16 0 29.5 8t25.5 25t15.5 24t11.5 22
q12 22 34.5 13.5t13.5 -32.5q-17 -40 -52 -76t-78 -36z" />
    <glyph glyph-name="k.3" horiz-adv-x="288" 
d="M190 -12q-57 0 -82 34.5t-25 84.5q0 26 8 60q4 14 6.5 16.5t13.5 4.5q39 5 81.5 42t42.5 78q0 27 -28 27q-24 0 -49 -17.5t-43 -49.5l-77 -169q-7 -16 -17.5 -32.5t-27 -35.5t-39.5 -31t-48 -12q-16 0 -22 13t1 26t21 13q46 0 83 79l90 197l65 138q45 94 107.5 153
t135.5 59q65 0 98 -31.5t33 -77.5q0 -40 -30 -75t-78 -35q-17 0 -23.5 13t0 26t23.5 13q25 0 39.5 19t14.5 39q0 24 -18.5 40.5t-58.5 16.5q-107 0 -189 -162l-48 -95q35 30 69 30t54 -20.5t20 -56.5q0 -50 -42.5 -97.5t-96.5 -70.5q-16 -7 -16 -30q0 -72 52 -72q20 0 41 17
t31.5 32t17.5 30q12 22 34.5 13.5t13.5 -32.5q-16 -38 -55.5 -75t-82.5 -37z" />
    <glyph glyph-name="r.1" horiz-adv-x="283" 
d="M122 121l75 161q9 22 9 33q0 15 -23 22t-25 23l-122 -262q-24 -53 -24 -99q0 -24 8 -42.5t21 -18.5q18 0 26 -13.5t0.5 -27t-26.5 -13.5q-40 0 -61.5 33.5t-21.5 81.5q0 49 31 121l152 333q8 19 24.5 21t25.5 -11t0 -32q-12 -22 -2.5 -33.5t26 -14t32.5 -17.5t16 -44
q0 -16 -15 -58l-77 -165q-6 -14 -8.5 -26t3.5 -22.5t24 -10.5q16 0 29.5 8t25.5 25t15.5 24t11.5 22q12 22 34.5 13.5t13.5 -32.5q-17 -40 -52 -76t-78 -36q-83 0 -83 75q0 28 15 58z" />
    <glyph glyph-name="g.9" horiz-adv-x="524" 
d="M-158 -323q-52 0 -77.5 27t-25.5 60q0 40 21 68t79 49.5t92 30t128 27.5q9 2 13 3q10 21 18 47l6 14q-14 -15 -33 -15q-41 0 -64.5 19.5t-23.5 56.5q0 19 14 56l75 158q49 109 129 109q47 0 64 -31q6 14 21 19.5t24.5 -3t3.5 -28.5l-40 -88l-132 -289q-4 -7 -5 -13h2
q121 26 205 82.5t84 133.5q0 39 -26 62q-22 20 -5.5 40t41.5 1q44 -33 44 -103q0 -96 -100.5 -170t-235.5 -99l-34 -6q-47 -99 -113 -158.5t-146 -59.5h-3zM63 40q6 0 12 1.5t10.5 3t10 5.5t8.5 6.5t8 8.5t7 9t6.5 10.5t6 9.5t6 10.5t5.5 9.5v-1l74 163q8 17 8 28
q0 31 -32 31q-46 0 -83 -84l-72 -154q-9 -22 -9 -33q0 -24 34 -24zM-157 -271h2q51 0 104.5 42.5t93.5 112.5q-123 -23 -186.5 -48.5t-63.5 -67.5q0 -39 50 -39z" />
    <glyph glyph-name="b.6" horiz-adv-x="276" 
d="M69 294l62 138q46 104 89 148q-103 54 -169 54q-53 0 -86 -30.5t-33 -66.5q0 -21 6 -31q13 -20 -6 -33q-19 -14 -37 7q-3 3 -5 6q-12 20 -12 51q0 57 48 104t125 47q81 0 208 -68q84 71 204 75q37 1 74 -7t68 -34t31 -66q0 -49 -37.5 -82t-102.5 -33q-52 0 -103 20
t-123 60q-52 -54 -90 -134l-23 -45q26 14 49 14q34 0 53.5 -21t19.5 -56q0 -27 -15 -57l-74 -157q-49 -109 -129 -109q-40 0 -63 21t-23 57q0 24 14 54zM109 257l-74 -165q-9 -20 -2.5 -36t28.5 -16q44 0 83 82l72 156q25 57 -21 57q-28 0 -50.5 -25t-35.5 -53zM582 588
q0 20 -20 33t-43.5 17t-50.5 4q-81 0 -155 -54q113 -61 183 -61q39 0 62.5 17.5t23.5 43.5zM182 -12q-15 0 -21.5 13t0 26t21.5 13q16 0 29.5 8t25.5 25t15.5 24t11.5 22q12 22 34.5 13.5t13.5 -32.5q-17 -40 -52 -76t-78 -36z" />
    <glyph glyph-name="r.5" horiz-adv-x="283" 
d="M122 121l75 161q9 22 9 33q0 10 -7 15.5t-16 7t-16.5 7.5t-8.5 17l-122 -264q-11 -24 -35 -14.5t-12 35.5l154 330q7 15 22 17t24.5 -8.5t1.5 -26.5q-12 -22 -2.5 -33.5t26 -14t32.5 -17.5t16 -44q0 -16 -15 -58l-77 -165q-6 -14 -8.5 -26t3.5 -22.5t24 -10.5
q16 0 29.5 8t25.5 25t15.5 24t11.5 22q12 22 34.5 13.5t13.5 -32.5q-17 -40 -52 -76t-78 -36q-83 0 -83 75q0 28 15 58z" />
    <glyph glyph-name="g.6" horiz-adv-x="291" 
d="M96 1v2q-14 -15 -33 -15q-41 0 -64.5 19.5t-23.5 56.5q0 19 14 56l75 158q49 109 129 109q47 0 64 -31q6 14 21 19.5t24.5 -3t3.5 -28.5l-40 -88l-120 -262l-20 -43q-29 -63 -67 -103q103 -55 173 -55q53 0 86 30.5t33 66.5q0 21 13.5 31t27 1t13.5 -32q0 -57 -48 -104
t-125 -47q-51 0 -99 18t-113 53q-97 -77 -220 -77q-74 0 -113.5 31t-39.5 75q0 49 37.5 82t102.5 33q35 0 80 -14.5t67.5 -25t79.5 -39.5q46 46 67 93l12 26zM63 40q6 0 12 1.5t10.5 3t10 5.5t8.5 6.5t8 8.5t7 9t6.5 10.5t6 9.5t6 10.5t5.5 9.5v-1l74 163q8 17 8 28
q0 31 -32 31q-46 0 -83 -84l-72 -154q-9 -22 -9 -33q0 -24 34 -24zM-200 -215q90 0 169 54q-116 61 -182 61q-39 0 -62.5 -17.5t-23.5 -43.5q0 -23 25.5 -38t73.5 -16zM198 -12q-16 0 -22 13t1 26t21 13q16 0 29.5 8t25.5 25t15.5 24t11.5 22q12 22 34.5 13.5t13.5 -32.5
q-17 -40 -52 -76t-78 -36z" />
    <glyph glyph-name="z.6" horiz-adv-x="304" 
d="M116 130h-1q-10 0 -16 4.5t-3.5 17t17.5 30.5l122 144h-40q-20 0 -42 13q-6 -13 -27 -54.5t-31 -63.5l-60 -126q-16 -26 -39 -16t-7 41l147 306q9 18 25.5 19.5t23.5 -10.5t-1 -32q-5 -13 -1 -19t12 -6l85 2q31 0 37.5 -18.5t-11.5 -35.5q-57 -67 -137 -158
q29 -19 29 -67q0 -38 -20.5 -91t-42.5 -89q-28 -46 -53 -72q87 -48 150 -48q41 0 70.5 19t41.5 47q7 14 7 31q0 19 13.5 27t27 0t13.5 -27q0 -29 -11 -52q-19 -42 -61.5 -70.5t-100.5 -28.5q-80 0 -193 65q-95 -71 -222 -71q-74 0 -113.5 31t-39.5 75q0 49 37.5 82t102.5 33
q37 0 80 -13.5t72.5 -29t76.5 -42.5q34 32 56 69q54 86 54 149q0 35 -27 35zM-282 -153q0 -23 25.5 -38t73.5 -16q97 0 170 49q-111 66 -183 66q-39 0 -62.5 -17.5t-23.5 -43.5zM211 -12q-13 0 -19 13t-0.5 26t19.5 13q43 0 82 79q12 22 34.5 13.5t13.5 -32.5
q-17 -40 -52 -76t-78 -36z" />
    <glyph glyph-name="h.6" horiz-adv-x="281" 
d="M246 212l-112 -246q-28 -61 -75 -110q103 -55 173 -55q53 0 86 30.5t33 66.5q0 20 -6 32q-6 13 1.5 24.5t22 10.5t24.5 -16q12 -20 12 -51q0 -57 -48 -104t-125 -47q-51 0 -99 18t-113 53q-97 -77 -220 -77q-74 0 -113.5 31t-39.5 75q0 49 37.5 82t102.5 33
q35 0 80 -14.5t67.5 -25t79.5 -39.5q46 46 67 93l106 236l30 66q9 22 9 33q0 24 -34 24q-25 0 -45 -21t-32 -46v1l-77 -170q-7 -16 -17.5 -32.5t-27 -35.5t-39.5 -31t-48 -12q-16 0 -22 13t1 26t21 13q46 0 83 79l90 197l126 273q8 17 25 20t24.5 -8.5t-0.5 -32.5l-99 -201
q25 21 50 21q35 0 55 -21t20 -56q0 -23 -15 -57zM-200 -207q90 0 169 54q-116 61 -182 61q-39 0 -62.5 -17.5t-23.5 -43.5q0 -23 25.5 -38t73.5 -16z" />
    <glyph glyph-name="h.3" horiz-adv-x="306" 
d="M200 452l-35 -74q14 9 27 9q41 0 64.5 -19.5t23.5 -56.5q0 -15 -15 -57l-73 -156l1 1q-10 -25 -10 -36q0 -23 29 -23q16 0 29.5 8t25.5 25t15.5 24t11.5 22q12 22 34.5 13.5t13.5 -32.5q-17 -40 -52 -76t-78 -36q-83 0 -83 75q0 26 15 58l73 157q9 22 9 33q0 24 -34 24
q-25 0 -45 -21t-32 -46v1l-77 -170q-7 -16 -17.5 -32.5t-27 -35.5t-39.5 -31t-48 -12q-16 0 -22 13t1 26t21 13q46 0 83 79l155 335q45 94 107.5 153t135.5 59q65 0 98 -31.5t33 -77.5q0 -40 -30 -75t-78 -35q-17 0 -23.5 13t0 26t23.5 13q25 0 39.5 19t14.5 39
q0 24 -18.5 40.5t-58.5 16.5q-51 0 -99.5 -43t-87.5 -119z" />
    <glyph glyph-name="l.6" horiz-adv-x="151" 
d="M186 419l-147 -320q-6 -14 -8.5 -26t3.5 -22.5t24 -10.5q16 0 29.5 8t25.5 25t15.5 24t11.5 22q12 22 34.5 13.5t13.5 -32.5q-17 -40 -52 -76t-78 -36q-83 0 -83 75q0 26 15 58l142 311q42 99 89 148q-103 54 -169 54q-53 0 -86 -30.5t-33 -66.5q0 -21 6 -31
q13 -20 -6 -33q-19 -14 -37 7q-3 3 -5 6q-12 20 -12 51q0 57 48 104t125 47q81 0 208 -68q84 71 204 75q37 1 74 -7t68 -34t31 -66q0 -49 -37.5 -82t-102.5 -33q-52 0 -103 20t-123 60q-42 -44 -85 -134zM583 588q0 20 -20 33t-43.5 17t-50.5 4q-81 0 -155 -54
q113 -61 183 -61q39 0 62.5 17.5t23.5 43.5z" />
    <glyph glyph-name="h.66" horiz-adv-x="305" 
d="M78 316l53 116q50 108 89 148q-103 54 -169 54q-53 0 -86 -30.5t-33 -66.5q0 -21 6 -31q13 -20 -6 -33q-19 -14 -37 7q-3 3 -5 6q-12 20 -12 51q0 57 48 104t125 47q81 0 208 -68q84 71 204 75q37 1 74 -7t68 -34t31 -66q0 -49 -37.5 -82t-102.5 -33q-52 0 -103 20
t-123 60q-52 -54 -90 -134l-23 -50q22 19 47 19q35 0 55 -21t20 -56q0 -15 -15 -57l-73 -156q-9 -20 -9 -35q0 -23 29 -23q43 0 82 79q12 22 34.5 13.5t13.5 -32.5q-17 -40 -52 -76t-78 -36q-83 0 -83 75q0 26 15 58l73 157q9 22 9 33q0 24 -34 24q-25 0 -45 -21t-32 -46v1
l-77 -170q-7 -16 -17.5 -32.5t-27 -35.5t-39.5 -31t-48 -12q-16 0 -22 13t1 26t21 13q46 0 83 79zM582 588q0 20 -20 33t-43.5 17t-50.5 4q-81 0 -155 -54q113 -61 183 -61q39 0 62.5 17.5t23.5 43.5z" />
    <glyph glyph-name="A_f_f" horiz-adv-x="1292" 
d="M1125 -22q-85 -208 -282 -235q-68 -73 -156 -79q-62 0 -89.5 20t-27.5 50q0 27 26.5 46.5t87.5 19.5q15 0 48 -3.5t52 -3.5q21 0 31 1q15 18 29 41h-1q-48 0 -71 31t-23 79q0 57 26 111v-1l70 150q7 18 -12 18h-142q-14 0 -23 -4.5t-11.5 -7.5t-8.5 -13
q-79 -128 -184.5 -209t-230.5 -81q-120 0 -205 77.5t-85 198.5q0 111 78 193.5t200 82.5q103 0 159 -52t56 -130q0 -68 -52 -113q-15 -13 -30.5 -8.5t-17 19.5t14.5 33q31 28 31 69q0 56 -42 92t-121 36q-97 0 -159.5 -66t-62.5 -156q0 -95 71.5 -158.5t164.5 -63.5
q78 0 157 49t136.5 115.5t104.5 147.5q38 64 79 120t96 111.5t112.5 94.5t128.5 63.5t144 24.5q70 0 104 -36q40 19 80 19q44 0 75 -18q35 18 79 18q65 0 98 -31.5t33 -77.5q0 -39 -30 -74t-78 -36q-18 0 -25 13t0.5 26t24.5 13q25 2 39.5 20t14.5 38q0 24 -18.5 40.5
t-58.5 16.5q-49 0 -100.5 -45t-85.5 -118l-26 -56q-7 -18 12 -18h26q23 0 24 -20q1 -21 -19 -29q-7 -3 -14 -3h-42q-20 0 -28 -18q-24 -51 -75 -164t-77 -170h1zM846 -111q23 0 37 25l93 204q13 28 44 94t46 100q8 18 -11 18h-1q-24 0 -25 20q-1 21 20 29q6 3 14 3h14
q21 0 28 18l28 59q49 105 114 160q-21 16 -51 17q-89 0 -179 -183l-48 -102q-39 -83 -47 -101l-26 -56q-5 -12 -20 -43t-22 -48l-31 -68q-20 -46 -20 -90q0 -56 43 -56zM922 -129q-17 -39 -31 -61q123 41 184 192l144 310q7 18 -12 18h-57q-20 0 -28 -18l-96 -211zM961 457
q52 105 96 158q-206 -64 -355 -321q-4 -5 -1.5 -12.5t14.5 -7.5h140q21 0 29 18l24 52zM1189 455l-26 -55q-7 -18 12 -18h55q21 0 29 18l28 59q44 94 92 144q9 9 9 11.5t-13 4.5q-48 0 -100 -46t-86 -118zM687 -283q33 1 68 23q-11 0 -37 3.5t-39 3.5q-55 0 -55 -13
q0 -20 63 -17z" />
    </font>
</defs>
</svg>
