<?xml version="1.0" standalone="no"?>
<!DOCTYPE svg PUBLIC "-//W3C//DTD SVG 1.1//EN" "http://www.w3.org/Graphics/SVG/1.1/DTD/svg11.dtd" >
<svg xmlns="http://www.w3.org/2000/svg" xmlns:xlink="http://www.w3.org/1999/xlink" version="1.1">
<metadata>
Created by FontForge 20170731 at Sun Dec 11 03:09:04 2016
 By Aleksey,,,
TheSofy Created by Mycandythemes studiofily@gmail.com 2016
</metadata>
<defs>
<font id="TheSofyRegular" horiz-adv-x="323" >
  <font-face 
    font-family="TheSofy"
    font-weight="400"
    font-stretch="normal"
    units-per-em="1000"
    panose-1="2 0 0 0 0 0 0 0 0 0"
    ascent="800"
    descent="-200"
    x-height="343.5"
    cap-height="840"
    bbox="-1400.58 -665.583 2189.55 1196.07"
    underline-thickness="50"
    underline-position="-200"
    unicode-range="U+0020-E0B8"
  />
<missing-glyph horiz-adv-x="123" 
 />
    <glyph glyph-name="uniE0B8" unicode="rr" horiz-adv-x="633" 
d="M668 315q0 -10 -2 -14l-10 -23q-29 -70 -50 -104t-79 -115q-21 -33 -52 -33q-41 0 -57 30q-15 29 -13 86q0 47 11 91v1q7 27 -4 35q-10 7 -36 16q-10 4 -15 4q-3 0 -4 -5q-5 -17 -26 -65l-33 -81q-27 -62 -58 -108q-33 -50 -76 -64q-12 -4 -28 -4q-28 0 -53 18t-40 49
q-8 15 -10 27q-6 22 -7.5 40t-1 26t6 32.5t7.5 36.5q0 2 2.5 12t4 16.5t2.5 16.5t-1 12q-6 14 -23 19h-12q-16 0 -24 8q-11 11 -8 25l1 4q1 3 0 5q-2 5 -14 27q-13 26 -16 35q-17 45 9 82q30 43 85 43q45 0 68 -37q8 -14 9 -29.5t-7 -32.5t-14.5 -27t-18.5 -27
q0 -1 -3.5 -5.5t-7.5 -10t-8 -11.5t-6.5 -10t-2.5 -5q37 -26 50 -39q12 -12 5 -52l-7 -42q-2 -14 -6 -29.5t-5 -22.5t-1.5 -20.5t2.5 -31.5q9 -56 41 -56q36 0 81 65l18 31q40 81 51 106q4 9 10 24.5t11.5 28.5t11.5 25t0 18q-4 4 -22 17t-25 23q-20 27 -26 61
q-11 65 27 112q16 20 45.5 37.5t57.5 17.5q26 0 41 -14q28 -24 21 -72q-3 -31 -34 -106q-1 -2 -7 -16t-11 -27q22 -7 39 -11q41 -9 60 -33q17 -22 1 -78q-6 -19 -11.5 -44.5t-7.5 -56t8 -42.5q6 -10 18.5 2.5t22.5 27.5q50 72 93 146q7 12 16 36l12 32q6 13 19 13
q15 0 16 -16zM304 451q-3 -35 9 -62q1 -4 12 -19q9 -10 13 -12q16 26 40 82q11 26 14 49.5t-6 31.5q-11 8 -23 8q-4 0 -14 -4q-18 -9 -30.5 -31t-14.5 -43zM18 344l21 25q39 43 37 68q0 8 -7 14q-9 8 -22 8q-14 0 -28 -9q-16 -12 -19.5 -34.5t4.5 -39.5z" />
    <glyph glyph-name=".notdef" horiz-adv-x="123" 
 />
    <glyph glyph-name=".null" horiz-adv-x="0" 
 />
    <glyph glyph-name="nonmarkingreturn" horiz-adv-x="333" 
 />
    <glyph glyph-name="space" unicode=" " horiz-adv-x="250" 
 />
    <glyph glyph-name="exclam" unicode="!" horiz-adv-x="207" 
d="M123 49q-14 12 -14 28v152.5t-0.5 153t-2.5 152.5t-6 152q0 4 -1 12.5t-1 13t1 11t5.5 10t11.5 6.5q21 7 41 -11q10 -9 10 -24q3 -213 13 -639q1 -27 -20.5 -30.5t-36.5 13.5zM156 -39q21 -11 27.5 -33t-11.5 -43q-20 -22 -50 4t-19 55q5 15 20.5 20.5t32.5 -3.5z" />
    <glyph glyph-name="quotedbl" unicode="&#x22;" horiz-adv-x="349" 
d="M175 1014q7 -63 -39 -123.5t-109 -67.5q-13 -2 -22 11q-5 5 -3.5 11t8.5 7q39 5 80 62q3 5 1 13q-2 6 -3 8q-11 18 -22 74q-5 26 69 26q20 0 29 -5q9 -3 11 -16zM309 1019q8 -63 -38.5 -124t-108.5 -68q-15 0 -23 11q-5 5 -3.5 11.5t8.5 7.5q39 5 80 61q4 8 1 14
q-1 1 -2 3.5t-1 3.5q-10 17 -21 74q-2 9 6 15.5t20 8t24 2.5t18 0q20 0 29 -4q10 -5 11 -16z" />
    <glyph glyph-name="numbersign" unicode="#" horiz-adv-x="472" 
d="M304 210q-1 -1 -1 -5q-6 -81 -4 -86q5 -10 26 -8q22 0 23 -12q1 -7 -5.5 -11.5t-14.5 -5.5q-21 -2 -26 -9q-6 -9 -6.5 -23t3 -33t3.5 -25q0 -16 -5 -22q-6 -6 -15.5 -4t-14.5 10q-7 9 -7 33v44q0 9 -3 12q-4 3 -43.5 -7t-46.5 -22q-6 -13 -2 -53q4 -36 -20 -45
q-12 -4 -23 5t-16 22q-3 9 -3.5 27t-1.5 25q0 6 -4 9q-4 4 -9 2q-5 0 -13.5 -1t-14 -1.5t-12.5 1t-11 6.5q-4 4 -3 8q1 5 7 7q6 3 19 5.5t22 6.5t14 11q6 7 8 27q7 63 -2 131l-3 9q-4 2 -10 4q-9 1 -26 -0.5t-22 -1.5q-32 2 -39 22q-4 7 1 12q3 2 10 2q23 1 69 1q15 0 19 6
q4 5 4 18q-1 12 -3.5 38.5t-4 46.5t-0.5 38q1 23 20 25.5t32 -17.5q11 -15 13 -56q0 -13 1 -39.5t2 -39.5q0 -12 5 -17q2 -2 13 -5q10 -2 32 -5.5t33 -5.5q11 0 13 1q6 5 6 17q0 22 0.5 66.5t1.5 66.5q0 23 11 29q15 10 28 -11q4 -7 4 -32q-4 -83 -7 -128q0 -12 4 -17
q5 -4 20 -4q23 -2 36 -20q6 -8 3 -13q-3 -4 -11 -4q-2 0 -16 1.5t-24.5 0.5t-12.5 -7zM259 112q0 3 2.5 37.5t2.5 47.5t-2 27q-1 2 -7 4q-32 8 -61 8q-17 0 -21 -3.5t-5 -20.5q-4 -48 0 -117q0 -5 1 -7q4 -3 9 -1q12 2 35.5 6.5t34.5 6.5q6 0 9 4q2 2 2 8z" />
    <glyph glyph-name="dollar" unicode="$" horiz-adv-x="502" 
d="M454 448q-11 0 -13 24q-5 42 -40.5 78t-77.5 44q-14 3 -23.5 -2t-13 -18t-5 -22t-1 -26t0.5 -20q-15 -213 -5 -266q4 -11 11 -12q7 -2 22 -4.5t24 -4.5t21.5 -7t19.5 -11t12 -16.5t4 -23.5q-2 -45 -32 -77q-10 -10 -34 -22t-31 -17q-7 -4 -9 -14v-6q3 -28 7 -98
q0 -11 -7.5 -14.5t-16 -1t-15.5 7.5q-20 12 -21 36q-2 50 -5 64q-2 8 -23 13t-25 9q-18 20 -20 25q-2 8 5 10q2 0 5.5 0.5t5.5 0.5q30 0 40 3q10 4 8 11q-2 46 -4 67q0 3 -3 6t-7 2q-82 -9 -141.5 60.5t-65.5 152.5q-6 92 55.5 172t151.5 101q2 0 5 1t4 1q8 3 8 11q1 9 1 55
q0 8 9 10q8 2 12 1q7 -2 21 -8q13 -7 15 -23q2 -20 3 -29q2 -10 10 -13q61 -22 109 -76.5t62 -116.5q3 -15 -13 -17zM219 241q5 71 9 285q1 16 -1 47q0 4 -3.5 6t-7.5 0q-1 -1 -9.5 -5.5t-13.5 -7.5q-58 -33 -89 -104t-24 -139q5 -51 37.5 -82t80.5 -22q20 2 21 22zM277 169
q-4 -16 3 -57q0 -8 6 -10q14 -4 42 25q34 35 14 48q-4 3 -10 4q-42 6 -52 -5q-1 -1 -3 -5z" />
    <glyph glyph-name="percent" unicode="%" horiz-adv-x="472" 
d="M288 546q5 13 14.5 39t14.5 39q7 20 2 29q-9 16 -41 10q-20 -4 -26 -14q-2 -5 -2 -16q0 -115 -34 -196q-21 -48 -52 -74q-40 -33 -85 -26q-40 8 -61 45q-19 30 -17 83q3 76 44 157q47 91 98 122q41 24 76 7q8 -4 12 -9q11 -18 -18 -44q-58 -54 -93.5 -127t-42.5 -151
q0 -17 8 -20q6 -1 13 4q49 30 77.5 83.5t27.5 112.5q0 46 10 60q7 9 25 18q38 16 78 11q25 -4 37 -18q12 -16 5 -38q-3 -13 -15 -37q-11 -22 -20.5 -50t-15 -49t-13.5 -54.5t-12 -50.5q-15 -58 -50 -162t-43 -129q-10 -35 -6 -54q6 0 15 11q8 11 40.5 69t59.5 81q24 19 34 3
q4 -6 9 -19t10 -20q16 -23 15 -33q0 -2 -1 -6t-1.5 -6.5t-0.5 -6t1.5 -5.5t4.5 -3q18 27 20 65q1 17 -6 25t-24 14q-13 4 -12 14q1 6 9 8.5t15 -0.5q24 -8 39 -32t15 -51q0 -41 -27 -82.5t-65 -22.5q-23 12 -40 50q-5 10 -10 11q-6 1 -14 -7q-15 -18 -33.5 -58t-23.5 -49
q-14 -26 -32 -33q-31 -13 -45.5 18t-12.5 63q3 45 18.5 100.5t25.5 82.5t38 96q37 93 84 222z" />
    <glyph glyph-name="ampersand" unicode="&#x26;" horiz-adv-x="680" 
d="M196 -252q-26 5 -32 28q-3 12 3 18.5t17 -2.5q3 -3 7.5 -9t9 -9.5t11.5 -4.5q15 -3 33 6q32 14 58 41.5t45 65.5t30.5 67.5t24.5 70.5q0 3 -1 5t-7 -2l-4 -4q-41 -39 -91.5 -61t-99.5 -15q-56 8 -96 48t-50 96q-20 122 67 317l33 75q5 11 -2 22q-52 79 -59 157
q-4 48 17 94t61 71q46 29 88 22q34 -7 48.5 -47.5t12.5 -80.5q-3 -36 -17.5 -75.5t-38.5 -89t-33 -71.5q-4 -7 3 -16q6 -7 24.5 -27t28.5 -30t45 -38q6 -6 12 1q7 11 31 44.5t30.5 43t25.5 35.5t31.5 40.5t32.5 38t42 47.5q88 93 133 106q51 14 74 -29t9 -89q-9 -27 -30 -45
t-47 -12q-14 2 -30 18q-8 10 2 17q4 4 7 5q14 11 17 26q7 30 3 52q-2 9 -11 7q-10 -4 -21 -11.5t-16.5 -12.5t-18.5 -18t-16 -15q-43 -43 -72 -77q-37 -43 -121 -155q-2 -2 -1 -5.5t4 -3.5q12 0 18 -1q26 -3 35.5 -9.5t18.5 -28.5q11 -25 11 -59t-4 -55t-13 -59
q-34 -134 -56 -200q-32 -99 -73 -149q-27 -35 -66 -56.5t-77 -12.5zM385 349q-13 -8 -3 -19q1 -1 4.5 -5.5t6.5 -8.5t7.5 -8t8 -6t6.5 -1q3 0 3 4q2 15 -7.5 34t-25.5 10zM153 571q1 -3 5 -10t5 -11q7 -11 13 -11q5 0 12 11q29 59 59 118q37 77 22 117q-7 17 -20 24
q-14 6 -33 -1q-49 -14 -75 -59t-18 -97q6 -33 30 -81zM394 136q17 44 22 78q6 29 -29 62l-6 6l-9.5 9.5t-10.5 9.5t-10 6t-8 0l-8 -8q-4 -5 -12.5 -15.5t-13.5 -15.5q-26 -29 -38 -59q-4 -11 -14 -21q-8 -6 -13 -8q-9 -4 -15 6q-4 6 0 11q38 63 48 76q12 16 34 50q5 7 -2 14
q-60 58 -93 91q-5 0 -6 -1q-6 -8 -8 -12q-2 -6 -7.5 -19.5t-8.5 -20.5q-84 -187 -45 -312q20 -64 71 -78q60 -16 107 30t75 121z" />
    <glyph glyph-name="quotesingle" unicode="'" horiz-adv-x="220" 
d="M177 1009q8 -62 -38.5 -123t-108.5 -68q-14 -2 -23 11q-5 5 -3 11t9 7q38 5 79 62q5 5 1 13q-2 6 -3 8q-10 16 -21 74q-6 26 69 26q19 0 29 -5q8 -3 10 -16z" />
    <glyph glyph-name="parenleft" unicode="(" horiz-adv-x="375" 
d="M199 -98q-112 110 -166 328q-29 125 -31 254.5t25 256t96 238.5t173 186q14 12 26 8q7 -2 10 -11.5t-1 -17.5q-4 -9 -24 -24q-95 -69 -154.5 -173t-79 -222t-14 -235t33.5 -233q54 -223 236 -364q12 -9 11 -22q-2 -17 -18.5 -29t-32.5 -4q-49 23 -90 64z" />
    <glyph glyph-name="parenright" unicode=")" horiz-adv-x="462" 
d="M154 -109q-41 -40 -90 -64q-16 -8 -32.5 4t-18.5 30q-1 13 11 22q182 141 236 364q28 115 33.5 232t-14 235t-79 222.5t-154.5 173.5q-20 16 -24 24q-4 7 -1 16.5t10 12.5q10 3 26 -8q104 -75 173 -187t96 -238t25 -255.5t-31 -254.5q-51 -217 -166 -329z" />
    <glyph glyph-name="asterisk" unicode="*" horiz-adv-x="432" 
d="M107 98q-4 -4 -12.5 -11.5t-12.5 -11.5q-12 -10 -21 -12q-6 -2 -12 1.5t-7 9.5q-1 8 10 17q12 11 37 32.5t37 32.5q3 3 3 4q-2 6 -8 4q-7 0 -20.5 -0.5t-24.5 -1t-21 -1.5q-31 -2 -46 9q-6 6 -4 8q3 3 5 4q18 4 54 5t53 5q-8 10 -24 23t-29 21l-12 8l-14 8q-6 5 -2 10
q8 9 31 -1q13 -5 62 -45l3 -1q3 1 3 5q-1 14 -1 44.5t-1 45.5q0 5 2 8q1 1 5 3q16 4 23 4q18 -2 21 -10q2 -3 2 -20.5v-40t1 -31.5q0 -3 1 -4q4 -3 9 2q20 17 43 42q15 15 20 18q15 7 25 4q12 -5 9 -11q-2 -5 -5 -7q-12 -11 -37 -32.5t-37 -32.5q-1 -1 -1 -2q-1 -2 0 -2.5
t4 -0.5q37 3 101 1q9 0 6 -16q-1 -11 -18 -9q-49 3 -97 -3q-4 0 -3 -3q4 -4 26.5 -22t44 -34.5t22.5 -19.5q4 -5 3 -7q-2 -9 -11 -7q-6 1 -11 6l-82 61l-4 2q-5 -4 -4 -8q1 -7 2.5 -23.5t2.5 -23.5q4 -32 -10 -43q-8 -7 -18.5 -5t-15.5 10q-4 9 -6 21q-1 8 -2 23t-2 22v3
q-3 4 -9 -2q-4 -4 -12.5 -11t-13.5 -11z" />
    <glyph glyph-name="plus" unicode="+" horiz-adv-x="490" 
d="M174 304q0 68 3 91q1 7 1.5 25t2.5 27q4 11 24.5 10t27.5 -8q4 -6 5 -9q2 -10 0 -19q-9 -79 -2 -138q0 -5 10 -5q1 0 23.5 1.5t57 4t52.5 3.5q14 1 22.5 -14t-9.5 -16q-22 -2 -59 -6t-62 -6.5t-26 -2.5q-6 -2 -6 -8q0 -32 2 -96.5t2 -95.5v-10q-2 -11 -13 -13
q-20 -4 -45 26q-1 1 -4 9v17q-1 23 -1 69.5t-1 69.5v17q-1 10 -11 10q-14 0 -60 -5.5t-58 -4.5q-5 0 -11.5 1.5t-12 7.5t-2.5 16q1 2 27 7q13 2 39.5 4.5t39.5 4.5q7 1 17.5 2t13 2t7 2.5t5 5.5t1 9t0.5 15z" />
    <glyph glyph-name="comma" unicode="," horiz-adv-x="197" 
d="M49 -80l2 6q2 7 3.5 15t-1.5 15q-24 2 -34 24q-11 24 8.5 50.5t45.5 31.5q30 4 41 -14t4 -62q-5 -32 -19 -74q-3 -10 -9 -16q-14 -12 -29 1q-12 9 -12 23z" />
    <glyph glyph-name="hyphen" unicode="-" horiz-adv-x="618" 
d="M121 208q-19 1 -46.5 12.5t-22.5 27.5q2 6 12 9t20.5 2.5t24 -1.5t15.5 -1q26 1 78 1q95 2 114 4q10 1 33 3.5t33 2.5t33 -1q28 -3 54 -19q9 -7 10 -12q3 -10 -9 -18q-9 -4 -21 -4q-227 -13 -328 -6z" />
    <glyph glyph-name="period" unicode="." horiz-adv-x="176" 
d="M57 -51q-33 6 -39 31q-7 26 19.5 48.5t51.5 10.5q6 -3 12 -12q7 -17 5 -25q-3 -21 -16 -38.5t-33 -14.5z" />
    <glyph glyph-name="slash" unicode="/" horiz-adv-x="586" 
d="M-67 -100q5 10 17 30q299 546 628 1067q5 7 16 26.5t20 35t12 18.5q6 6 19 3q6 -2 9 -5q28 -26 -27 -109q-2 -3 -3 -4q-112 -169 -242.5 -391t-195.5 -339.5t-222 -403.5q-11 -20 -22 -22q-18 -3 -27 22q-7 26 18 72z" />
    <glyph glyph-name="zero" unicode="0" horiz-adv-x="352" 
d="M481 529q0 -107 -45 -242q-46 -137 -133 -282q-23 -39 -32.5 -54t-34 -40.5t-51.5 -36.5q-36 -15 -78 -10t-73 30q-66 54 -77 89q-38 117 -24 326q11 155 81 328q30 74 81 157q13 21 43 44q11 9 29 12.5t30 -4.5q6 -8 5 -12.5t-6 -13t-5 -14.5q-1 -13 -11 -23l-1 -1
q59 19 119 7q181 -34 183 -260zM429 430q7 49 9.5 80t-3.5 74.5t-25 75.5q-71 118 -252 76q-13 -3 -51 -80q-55 -122 -79 -272q-18 -111 -15 -223q2 -123 16 -173q6 -21 15 -38q14 -27 39 -41.5t53 -10.5q53 8 91 57q75 100 128.5 224.5t73.5 250.5z" />
    <glyph glyph-name="one" unicode="1" horiz-adv-x="262" 
d="M118 136q0 -16 -0.5 -65.5t-1.5 -76.5q0 -6 -3 -11q-4 -12 -23 -15t-28 6q-20 19 -26 30.5t-6 35.5v61q-1 95 12 211.5t25 184t40 206.5q10 49 13 77q7 36 6 50q-1 10 -3.5 14t-10.5 -3q-11 -13 -14 -20q-2 -4 -17.5 -34.5t-29 -60.5t-16.5 -44q-5 -16 -27 -12
q-3 0 -5.5 3.5t-1.5 5.5q1 6 4 13q7 20 41 100q1 2 8 18t9 19.5t8.5 16.5t10.5 18.5t11 14.5t14 15.5t16 12.5q15 12 41 12q16 0 32 -13q8 -7 12 -18t4 -27t-0.5 -26.5t-3 -29t-2.5 -21.5q-6 -59 -22 -142q-43 -215 -48 -254q-14 -99 -18 -252z" />
    <glyph glyph-name="two" unicode="2" horiz-adv-x="575" 
d="M37 -59q-19 2 -28 13t-8 28.5t5.5 37t15 42.5t19.5 40.5t18.5 36t12.5 24.5q62 123 138 237q4 6 25.5 37t27 40t24.5 38t25.5 42t21 39.5t21 44t15 41.5t13 46.5t6.5 45.5q5 51 -23.5 74.5t-83.5 35.5q-46 10 -81.5 2t-64.5 -41t-41.5 -53.5t-38.5 -72.5q-7 -14 -11 -21
l-6 -6q-7 -5 -13 -2q-11 5 -9 14q5 25 6 26q78 192 209 198q47 2 141 -33q38 -14 60 -46t27 -72t1 -78.5t-15 -74.5q-14 -44 -37.5 -86t-65 -103t-51.5 -77q-144 -232 -195 -339q-8 -18 -8 -28q-1 -2 1.5 -5t5.5 -2q257 54 415 79q29 4 36 -12q5 -14 -18 -20q-4 -1 -9 -1
q-12 -2 -36 -8q-79 -17 -237 -47q-16 -3 -63.5 -15t-82.5 -17t-64 -2z" />
    <glyph glyph-name="three" unicode="3" horiz-adv-x="422" 
d="M262 91q15 27 19 52q5 28 -9.5 43.5t-38 16.5t-48.5 -4t-43 -15t-38 -12q-22 -3 -37 18q-14 15 -4 33q8 15 21 31q10 13 27.5 36t32 42t27.5 36q101 134 106 356q2 86 -2 109q-8 35 -42 43q-63 17 -134 -25q-39 -23 -69 -61q-9 -13 -17 -14q-8 0 -11 9.5t0 15.5
q4 9 12 19q47 55 104 81q73 33 138 15q100 -28 104 -194q8 -259 -126 -420q-2 -2 -21.5 -22.5t-26.5 -33.5q-1 -1 -3 -8q0 -5 7 -5h17q45 3 95 -21t58 -64q16 -86 -65 -164t-168 -67q-14 2 -28.5 12t-21 17.5t-19.5 24.5q-8 10 -3 25q2 7 6.5 11.5t8.5 3.5q7 0 15 -12
q15 -26 22 -29q10 -5 28 3q19 7 52 35q55 47 75 83z" />
    <glyph glyph-name="four" unicode="4" horiz-adv-x="483" 
d="M461 465q3 -14 -2 -31q-30 -102 -50.5 -178t-40 -157t-31.5 -128q-4 -18 -16 -22q-21 -6 -36 6q-31 30 -25 58q5 21 19 66t25 82t12 43q1 5 -2 8t-8 2q-146 -29 -187 -30q-22 0 -46.5 -1t-46 8.5t-24.5 30.5t18 241q11 124 31 273q2 17 13 100t19 127q3 19 22 18
q48 -2 58 -25q4 -8 2 -31q-7 -53 -20.5 -157t-19.5 -157q-4 -39 -13 -140.5t-16 -156.5q-9 -60 6 -74q23 -22 98 -5l87 18q6 1 12.5 2.5t14.5 3.5l12 3q6 2 9 8q5 8 10 24l44 176q3 7 5 10q12 18 37.5 12t29.5 -27z" />
    <glyph glyph-name="five" unicode="5" horiz-adv-x="502" 
d="M64 -7q-4 -16 5 -25q18 -22 74 6q90 46 184 179q31 45 41 104.5t-16 109t-90 56.5q-31 3 -61.5 -6t-70 -28.5t-56.5 -25.5q-3 -1 -7 -5t-6 -7.5t-2 -4.5q-12 -21 -32 -9q-26 17 -26 74q-1 87 11 259q10 118 9 178q0 33 17 47q8 6 23.5 8t26.5 1l12 -2q225 23 338 26
q12 2 21 -2q13 -6 11 -17q0 -16 -26 -16q-30 1 -164.5 -15.5t-148.5 -19.5q-9 -3 -12 -13l-2 -27q-2 -28 -5 -71t-6.5 -91t-6 -98.5t-3.5 -83.5q0 -5 -0.5 -15.5t-0.5 -16.5q0 -7 8 -7q1 1 4 1t5 1q53 17 93.5 23t87.5 -5.5t79 -48.5q42 -47 56 -107.5t-5 -120.5
q-24 -69 -82 -133q-4 -4 -23.5 -24.5t-27.5 -28.5t-26.5 -25.5t-31 -26t-30 -20t-34 -17.5t-33.5 -8q-42 -5 -79.5 23.5t-45.5 69.5q-4 18 11.5 46t33.5 19q9 -5 13 -12.5t3 -13.5t-3.5 -17.5t-3.5 -16.5z" />
    <glyph glyph-name="six" unicode="6" horiz-adv-x="736" 
d="M668 300q8 -129 -83 -236q-77 -88 -180 -110q-115 -25 -227 36.5t-153 171.5q-56 147 21 360q72 200 202 315q21 18 47 36q68 42 150 33q61 -8 109 -44t62 -92q7 -36 0 -48q-5 -7 -12.5 -5t-11.5 10q-2 3 -10 38q-2 13 -13 30q-16 32 -43 49q-40 26 -85 17
q-40 -9 -77 -36q-83 -65 -143 -156q-86 -126 -123 -281q-50 -212 51 -321q49 -52 125 -66t142 14q66 26 115 82t72 127q19 60 11 108q-12 63 -60 87q-50 25 -128 -7q-76 -32 -132.5 -94.5t-82.5 -140.5q-14 -42 -23 -53q-10 -12 -24 -16.5t-27 2.5q-26 14 -15 64
q16 76 58.5 141.5t105.5 105.5q66 41 143.5 47.5t146.5 -25.5q41 -19 61 -47q28 -37 31 -96z" />
    <glyph glyph-name="seven" unicode="7" horiz-adv-x="663" 
d="M516 660q-2 -4 -6 -10q-145 -198 -272 -437q-8 -15 -35.5 -64.5t-44 -83.5t-28.5 -68q-3 -11 -9 -21q-3 -9 -14 -9q-27 -4 -50 21q-12 13 -6 33q7 20 39 87q59 119 139 254.5t140.5 228t161.5 242.5q7 10 11 20q2 3 -0.5 6.5t-6.5 3.5q-14 2 -43 -2q-8 -1 -75 -7
t-89.5 -9t-73.5 -11t-87.5 -18.5t-71.5 -25.5q-61 -25 -57 -66q1 -6 4.5 -16.5t4.5 -15.5q4 -23 -13 -28q-8 -2 -16 4.5t-11 16.5q-16 38 2 77q25 52 125 81q30 8 63.5 15.5t60 12.5t66 10.5t61 8t66.5 7.5t62 7q56 6 82 -4q9 -3 15 -9q9 -7 13 -22.5t0 -26.5
q-10 -30 -27 -60t-43 -67.5t-37 -54.5z" />
    <glyph glyph-name="eight" unicode="8" horiz-adv-x="708" 
d="M638 806q9 -44 -2 -99.5t-26 -93.5t-41 -92q-83 -175 -190 -350q-9 -17 -3 -24q3 -3 8 -5q8 -4 24 -9.5t28.5 -11t22.5 -12.5q18 -12 27.5 -31t3.5 -38q-6 -16 -28 -33q-102 -81 -231 -86q-87 -3 -155 33q-60 32 -69 79q-8 43 26 90q11 15 33.5 39t30.5 33q3 3 3 8
q0 3 -6 9q-49 38 -69 70q-31 52 -23 121q5 52 33 120q65 156 161 248q55 53 128.5 93.5t141.5 47.5q52 6 99.5 -16.5t65.5 -66.5q2 -5 7 -23zM374 117q-14 0 -20 -3t-12.5 -15t-12.5 -19q-18 -16 -38.5 -7.5t-32.5 28.5q-8 12 -2 25q1 2 4 7t4 9t0 8q-2 5 -11.5 10t-24 9.5
t-15.5 4.5q-17 8 -35 -13q-3 -3 -16.5 -16t-19 -19t-15 -17.5t-14.5 -22t-8 -21.5q-10 -46 17 -80t75 -33q92 0 171 38q2 1 17 7.5t22.5 10.5t19 11t17.5 15.5t8 17.5q4 27 -23 45.5t-55 19.5zM562 756q9 62 2 83q-10 27 -44 34q-51 10 -109 -10q-64 -23 -125 -67
q-98 -69 -163 -183q-87 -156 -71 -264q9 -63 71 -113q11 -9 24 -12t24 -1.5t26 -0.5q18 -2 22 -12q5 -11 24.5 -20t31.5 -9q6 0 11 4t7 7t6 10.5t5 9.5q11 20 33 58q115 203 146 265q69 142 79 221z" />
    <glyph glyph-name="nine" unicode="9" horiz-adv-x="626" 
d="M586 798q2 -43 -15 -90t-35.5 -77t-56.5 -83t-52 -75q-32 -50 -57 -107q-28 -64 -51.5 -147t-33.5 -136t-28 -155q-4 -21 -12 -30q-13 -12 -32 -6t-27 23q-11 24 -1 71l57 273q-89 -40 -135 -23q-60 21 -88 116q-44 159 16 339q0 1 1 2q44 132 140 247l3 3
q93 111 182 111h1q73 -2 116 -61q24 -34 28 -89q3 -28 -6 -33q-5 -4 -9.5 -2t-4.5 8q0 3 -0.5 10t-1.5 10q-34 137 -126 98q-42 -18 -84 -67q-54 -63 -96 -135q-124 -231 -88 -442q8 -56 39 -68q27 -11 68 15.5t65 55.5q8 10 15 22t12 21t10.5 25.5t8 23.5t8.5 27t7 24
q51 161 149 290q46 61 88 50q14 -3 21 -15q5 -9 5 -24zM552 747q4 7 10 21q7 17 0 24q-3 3 -8 -3q-9 -10 -16 -28q-15 -28 -43 -86q-1 -3 -17.5 -31t-21.5 -43q-2 -7 2 -8l4 2q12 12 41 63q32 52 49 89z" />
    <glyph glyph-name="colon" unicode=":" horiz-adv-x="307" 
d="M105 227q-22 5 -27.5 24t1 38.5t18.5 33.5q13 15 35.5 13.5t30.5 -19.5q6 -11 4 -26q-2 -25 -20 -47.5t-42 -16.5zM97 79q13 15 35.5 13.5t30.5 -19.5q6 -11 4 -26q-2 -25 -20 -47.5t-42 -16.5q-22 5 -27.5 24t1 38.5t18.5 33.5z" />
    <glyph glyph-name="semicolon" unicode=";" horiz-adv-x="315" 
d="M92 230q-22 5 -27.5 24t1 38.5t18.5 33.5q13 15 36 13.5t31 -19.5q4 -11 4 -26q-2 -25 -20.5 -47.5t-42.5 -16.5zM151 94q11 -17 4 -62q-6 -36 -20 -74q-3 -10 -8 -15q-13 -12 -29 0q-12 10 -13 23l2 4q2 5 3.5 10.5t2 11.5t-2.5 10q-25 3 -34 25q-11 24 8.5 50t45.5 31
q29 6 41 -14z" />
    <glyph glyph-name="less" unicode="&#x3c;" horiz-adv-x="521" 
d="M415 1017q0 1 5.5 7.5t6.5 7.5t6 5.5t7.5 4.5t7 1t8.5 -1.5t9 -7.5q8 -8 11 -28t-3 -29q-14 -18 -96 -124q-44 -58 -90.5 -123.5t-106.5 -152.5t-87 -126q-26 -38 -30 -61q-3 -16 5 -38t17.5 -37t27 -40.5t20.5 -30.5q42 -69 104 -160q27 -40 100 -148.5t112 -168.5
q5 -4 13 -15t11 -15q9 -11 5 -26t-14.5 -16t-25.5 18q-60 92 -202.5 300t-214.5 322q-21 36 -19.5 63.5t23.5 64.5q52 86 112.5 173t148.5 205.5t122 165.5q6 9 7 10z" />
    <glyph glyph-name="equal" unicode="=" horiz-adv-x="439" 
d="M346 298q3 -9 -2 -14q-7 -9 -26.5 -12t-49.5 -2t-31 1q-20 -1 -70.5 -0.5t-70.5 0.5h-27q-16 0 -41 20q-22 20 0 21l165 6q11 0 34.5 2.5t37.5 3t33.5 -2t34.5 -10.5q7 -3 13 -13zM346 160q3 -9 -2 -14q-7 -9 -26.5 -12t-49.5 -2t-31 1q-20 -1 -70.5 -0.5t-70.5 0.5h-27
q-16 0 -41 20q-22 20 0 21q24 2 51.5 3t61.5 1.5t52 1.5q11 0 34.5 2.5t37.5 3t33.5 -2t34.5 -10.5q7 -3 13 -13z" />
    <glyph glyph-name="greater" unicode="&#x3e;" horiz-adv-x="567" 
d="M72 1005q2 -2 4 -5.5t4 -4.5q32 -45 121.5 -165t149 -206.5t111.5 -172.5q22 -37 23.5 -64.5t-19.5 -63.5q-72 -114 -214.5 -322t-202.5 -300q-13 -20 -25.5 -18t-14.5 16t6 26q2 3 5.5 8t6 8.5t6 7.5t6.5 6q9 13 212 317q70 106 103 160q4 6 21 30.5t27 40t18 37.5t5 38
q-5 23 -31 61q-27 39 -87 126t-106.5 152.5t-90.5 123.5q-64 82 -95 124q-6 9 -3.5 29t10.5 28q5 5 9 7.5t8.5 1.5t7 -1t7.5 -4.5t6 -5.5t6.5 -7.5t5.5 -7.5z" />
    <glyph glyph-name="question" unicode="?" horiz-adv-x="498" 
d="M433 722q46 -176 -108 -390q-15 -21 -103 -122t-117 -166q-15 -33 -17 -55q0 -4 -2 -12q-5 -16 -21 -16q-27 -1 -43.5 23.5t-9.5 50.5q8 32 26.5 66t34 54.5t46 58.5t41.5 52q100 129 133 186q64 110 71 208q9 133 -57 187q-28 24 -67 22t-75 -18.5t-62 -48t-27 -65.5
q-1 -16 -19 -23q-16 -4 -17 11q4 45 12 62q28 61 90 91q43 22 91.5 24.5t93 -18.5t67.5 -65q27 -53 39 -97zM67 -149q21 -11 27.5 -33t-11.5 -43q-20 -22 -50 4t-19 55q5 15 20.5 20.5t32.5 -3.5z" />
    <glyph glyph-name="at" unicode="@" horiz-adv-x="673" 
d="M501 56q-24 -53 -63 -93t-87 -54q-94 -26 -181 20.5t-114 139.5q-15 50 -15 115q0 26 7 63q12 63 34 121q33 89 124 170q46 40 102 62.5t110 16.5q61 -6 96 -51.5t41 -110.5q9 -86 -16 -163q-7 -25 -21.5 -43t-35.5 -17q-19 0 -53 30q-4 4 -9 4q-7 0 -11 -13
q-4 -15 -6.5 -44.5t-5.5 -41.5q-6 -28 -24.5 -50.5t-44.5 -26.5t-50 11.5t-36 40.5q-20 41 -9 106q9 55 36 99.5t71 62.5q26 10 47 2q27 -12 31 -27q2 -8 3.5 -31.5t5.5 -32.5q8 -26 24 -34q12 -5 25 1t20 18q17 29 21.5 70t-4 79t-28.5 69t-53 39t-77 -11q-67 -32 -122 -97
q-48 -55 -78 -130q-44 -113 -27 -224q13 -72 58 -117q29 -30 67 -37t73 6t66 40q70 61 90 136l12 39q3 7 13 5q0 -1 2 -1q21 -8 14 -51q-8 -35 -22 -65zM382 286q2 8 0 19.5t-6.5 20t-9.5 7.5q-18 -5 -30 -40q-18 -57 -22 -90q-6 -38 6 -46q16 -10 29.5 10t18.5 40
q3 12 4 33t8 36q0 2 1 5t1 5z" />
    <glyph glyph-name="A" unicode="A" horiz-adv-x="560" 
d="M29 381q84 20 129 33q10 3 13 14q10 32 14 48q67 268 80 313q5 16 15 50q2 6 5 13q4 13 17 13q15 0 23 -1q5 0 15 -2q31 -10 22 -40q-4 -10 -10 -32t-9 -32q-4 -14 0 -29q7 -25 15 -73.5t12 -65.5q3 -14 10 -40t12 -44.5t5 -19.5q2 -6 9 -6q4 0 6 1q15 4 74 17t90 21
q19 5 48 -7h1q1 -1 2 -1q10 -7 7 -15q-2 -8 -10 -8q-31 -4 -82.5 -13.5t-89.5 -17.5t-40 -10q-7 -6 -6 -13q6 -29 17.5 -102.5t20.5 -112.5q12 -51 35.5 -146t33.5 -135q2 -10 1 -14q-2 -11 -14.5 -14t-21.5 4q-13 10 -17 40q-4 32 -10.5 64.5t-19 83t-15.5 63.5
q-46 200 -54 245q0 4 -2 12q-4 9 -12 7q-10 -2 -86 -24q-12 -4 -16 -16q-1 -7 -5 -20t-5 -19q-24 -92 -35.5 -141t-23.5 -127t-13 -144q0 -8 -2 -26q-5 -26 -32 -23q-8 1 -24 9q-26 17 -22 44q2 20 4.5 65.5t5.5 68.5q6 46 24 138q4 18 19 71t19 83q1 5 -2.5 8t-8.5 1
q-13 -4 -43 -13t-46 -15q-20 -7 -45 5l-8 8q-6 6 1 10q23 8 25 9zM265 452q0 -7 8 -7q38 8 68 15q9 4 9 16q0 1 -2 13q-5 28 -13.5 82t-13.5 83l-2 1q-5 -2 -5 -3q-1 -1 -1.5 -4t-0.5 -4q-12 -53 -16 -65q-10 -34 -29 -115q-1 -2 -1 -6t-1 -6z" />
    <glyph glyph-name="B" unicode="B" horiz-adv-x="566" 
d="M4 722q-12 12 8 28q26 22 68 29q28 4 95 0q55 -4 81 -19q30 -16 44.5 -49.5t12.5 -70.5q-3 -53 -47 -131q91 -29 171 -125q30 -38 39 -61q15 -35 19 -88q4 -82 -23.5 -159.5t-82.5 -134.5q-38 -38 -130 -96q-21 -14 -36 -17q-24 -5 -48 9q-8 6 -11 10q-6 12 5 25
q7 9 22 16q80 44 134 121t69 167q14 95 -18 165q-18 39 -50 67.5t-72 38.5q-6 1 -19 3.5t-21 4t-17.5 6t-15.5 11.5q-18 21 -13 56q3 16 21 56q16 36 27 70q8 30 4 44q-7 29 -44 38q-23 5 -61 -3q0 -170 1 -263.5t10 -237.5t26 -262q5 -36 -15 -40q-11 -2 -18 9t-9 25
q-71 427 -34 762q-9 1 -25 -4t-19 -6q-19 -3 -28 6z" />
    <glyph glyph-name="C" unicode="C" horiz-adv-x="748" 
d="M669 850q8 -6 11 -9q46 -41 50.5 -106.5t-38.5 -107.5q-4 -4 -7 -5q-7 -2 -13 3t-7 13t6 28q16 43 5 91t-45 79q-14 12 -23 14q-10 2 -28 -4q-58 -20 -126 -87q-135 -131 -245 -346q-105 -209 -103 -363q2 -61 20 -97q24 -52 71 -65q50 -14 124 27q56 30 108.5 68
t129.5 100.5t100 80.5q11 9 19 8q14 -4 10 -21q-2 -10 -14 -22q-118 -117 -256 -205q-75 -49 -136.5 -72.5t-121.5 -6.5q-62 18 -104.5 79t-51.5 133q-14 107 47 265q111 284 308 481q41 41 93.5 64.5t111.5 21t105 -38.5z" />
    <glyph glyph-name="D" unicode="D" horiz-adv-x="630" 
d="M548 538q77 -316 -355 -741q-11 -11 -49 -43.5t-56 -52.5q-10 -11 -24.5 -4t-19 20t3.5 23q14 12 52 44q8 7 21.5 19.5t25.5 23t23 18.5q10 8 11 18q-29 594 -16 857q5 14 -8 19q-3 0 -17 -1.5t-32 -3t-26 -2.5q-34 -3 -60 3q-3 0 -5.5 1.5t-5.5 3.5t-5 3q-5 4 -5 10t4 9
q7 5 80 16t78 14q9 4 16 22q6 17 28.5 19t30.5 -11q3 -5 4 -12.5t3 -12.5q1 0 7 -2t10 -2q103 -7 181.5 -80.5t104.5 -174.5zM497 314q29 101 4 204q-21 89 -86.5 154t-154.5 66q-4 1 -8 -2.5t-5 -8.5v-184q1 -8 4 -291.5t3 -296.5q0 -4 3.5 -9.5t7.5 -1.5q75 76 139.5 175
t92.5 195z" />
    <glyph glyph-name="E" unicode="E" horiz-adv-x="499" 
d="M9 277q-5 2 -8 12q3 5 5 5l48 12q20 7 20 25q2 28 2 42q10 230 21 343q1 22 -19 22q-37 1 -65 29l-6 9q-1 2 1 5.5t4 3.5q7 0 21 0.5t21 0.5q6 1 17 1.5t17 0.5q7 0 11 9l6 18q15 6 46 8q40 2 58 -29q8 -13 25 -15l141 -15q25 -4 36 -12q6 -5 11 -11q3 -5 1 -10
q-2 -6 -7 -8q-12 -1 -59.5 1.5t-89 5.5t-42.5 3q-16 0 -18 -15q-5 -20 -6 -38q-13 -119 -17 -290q0 -6 0.5 -17.5t0.5 -17.5q2 -12 14 -10t18 4l177 48q25 6 46 -2q8 -3 13 -12q6 -12 -5 -16q-8 -2 -12 -2q-17 -3 -89.5 -26.5t-102.5 -36.5q-7 -3 -15.5 -5.5t-19 -5
t-16.5 -4.5q-12 -5 -14 -17q-1 -7 -1 -23q-2 -42 -1 -65q1 -47 -1.5 -156.5t0.5 -156.5q0 -6 4.5 -7.5t9.5 1.5q35 22 98 79.5t102 79.5q3 2 26 22q11 9 25 6q8 -3 17 -8q4 -1 4.5 -6t-1.5 -7q-39 -37 -103 -86q-24 -19 -90 -78.5t-76 -75.5q-19 -28 -53 -18q-45 12 -57 55
q-6 18 -7 26q-6 15 -3.5 134t2.5 134q0 20 -1 59t-2 59q0 5 -2 11q-2 8 -14 13t-27 9t-19 6z" />
    <glyph glyph-name="F" unicode="F" horiz-adv-x="469" 
d="M148 814q-5 0 -5 -7q2 -72 8 -145.5t17 -186t15 -160.5q0 -23 31 -19q84 4 127 7q9 1 23 -1q14 -5 20 -17q5 -12 -8 -16q-31 -4 -92.5 -5.5t-87.5 -4.5q-6 0 -10 -9v-12q-1 -76 9 -214.5t12 -189.5q0 -22 -21 -25q-36 -9 -57 14q-8 6 -10 20q-4 22 -5.5 48t-2 58t-1.5 49
q-1 53 -17 237q-2 14 -14 12h-29q-26 -5 -26 19q0 4 3 6.5t8 4t9.5 2.5t10 2t7.5 1q21 4 25 9.5t4 27.5q-4 110 -35 474q0 5 -4.5 7t-9.5 1t-8 0q-17 -2 -32 14q-2 1 -2 4t2 4q3 1 11 5t13 6q21 7 24.5 12t2.5 27q0 6 -1.5 17.5t-2.5 17.5q-2 9 7 11q29 12 48 8
q14 -1 20.5 -8t8.5 -22l3 -29q2 -6 10 -6q2 0 17 2q33 6 93.5 12t82.5 9l192 18q16 0 21 -4q13 -8 12 -20t-19 -13l-209 -22l-154 -22q-28 -5 -34 -8z" />
    <glyph glyph-name="G" unicode="G" horiz-adv-x="596" 
d="M128 522q-15 -65 -22.5 -100.5t-15 -100t-3 -107.5t23 -92t53.5 -84q28 -28 61 -43.5t71 -12.5t66 32q9 9 23 27q6 8 11 15.5t9.5 16t7.5 15t7 16t6 14.5t6 16t5.5 16t6 17.5t5.5 17.5q19 65 18 103q0 13 -9 13l-81 -6q-22 0 -31 10q-2 1 -2 5t4 6q5 3 16 5q61 11 101 12
q19 2 38.5 -4.5t22.5 -22.5q8 -30 5 -50q-12 -96 -12 -98q-9 -50 -16 -144.5t-14 -139.5q0 -8 -11 -10q-29 -5 -41 3q-7 4 -10 12q-1 3 -1.5 21t-1 42t-1.5 36q0 3 -4 3q-10 -9 -32 -23q-80 -48 -184.5 -17t-147.5 114q-99 195 -13 491q3 12 9.5 34.5t9 30l8 24t10 27
t11.5 26t16 33.5q19 38 44 75t57.5 75t70.5 66t79 45.5t88 16t92 -24.5q78 -44 104 -78q13 -18 16.5 -45t-4.5 -49q-1 -3 -9 -11q-13 -8 -30 -5q-21 5 -23 24q-1 26 -2.5 36.5t-9.5 27t-24 27.5q-88 61 -154 36q-58 -21 -102.5 -57.5t-75 -88t-50 -105t-36.5 -123.5
q-2 -7 -4.5 -20.5t-4.5 -20.5z" />
    <glyph glyph-name="H" unicode="H" horiz-adv-x="790" 
d="M1 251q0 5 5 8q17 6 55 16t73 22q20 5 20 27v41t-1 40q-1 37 -6 151.5t-7 177.5q-2 92 -2 138q0 14 1 21q2 14 16 16q36 8 67 -7q20 -11 24 -32q3 -13 2 -56.5t0 -56.5q1 -36 2.5 -123.5t5 -152t11.5 -122.5q4 -26 31 -23q9 1 32 5q160 24 205 33q12 2 62 19q11 3 11 16
q4 80 -2.5 259t-2.5 248q2 27 28.5 26t31.5 -24q0 -68 5.5 -233t4.5 -253q-2 -9 20 -31q12 -13 11.5 -20t-16.5 -18q-16 -13 -17 -31v-9.5v-12v-10.5q5 -56 5 -165.5t4 -162.5q0 -8 2 -24.5t2 -24.5q1 -14 -11 -30q-12 -13 -30 -5q-17 8 -18 25q-1 14 -3 42.5t-3 42.5
q-11 145 -16 308q0 16 -1 24q0 4 -3.5 7.5t-7.5 3.5q-4 -1 -11.5 -2t-13.5 -2t-11 -2q-20 -5 -248 -43q-26 -6 -32 -13t-6 -33q0 -67 4 -137.5t14 -171.5t13 -137q3 -39 3 -40q0 -25 -25 -28q-43 -8 -78 32q-11 14 -11 30q-3 33 -9 97q-14 149 -25 329q-1 22 -6.5 27.5
t-30.5 -1.5q-36 -15 -67 -18q-29 -5 -46 12q-4 3 -4 11z" />
    <glyph glyph-name="I" unicode="I" horiz-adv-x="361" 
d="M4 766q-3 4 -3 9q0 10 16 12q52 9 155.5 26.5t155.5 26.5q37 6 46 -7q13 -19 -12 -23q-79 -15 -104 -19q-19 -5 -23 -9q-8 -7 -8.5 -48t3.5 -103t4 -66q1 -42 1 -124t1 -124l11 -326q1 -7 1.5 -19t-0.5 -43.5t-4.5 -56t-14 -46t-26.5 -25.5q-37 -8 -77 15
q-18 10 -49.5 47t-24.5 52q8 15 17.5 15.5t16.5 -12.5q14 -30 42 -53q35 -29 44 13q3 13 4 37t0 41l-1 18q-12 282 -17 423q-1 36 -2 112.5t-3.5 135.5t-8.5 113q0 5 -3 8t-7 3q-5 1 -37 -4.5t-54.5 -7t-38.5 8.5z" />
    <glyph glyph-name="J" unicode="J" horiz-adv-x="622" 
d="M502 364q9 -248 -12 -420q-13 -107 -44 -169q-43 -91 -125 -117q-48 -15 -99.5 0t-87.5 52q-73 75 -63 188q0 17 8 26q6 6 13.5 6.5t11.5 -5.5q3 -4 3 -14q-2 -105 42 -167q27 -37 70 -52t84 2q52 25 81 110q25 72 35.5 158t9 163t-4.5 163l-21 531q0 8 -4 12t-15 2
q-84 -16 -225 -78q-18 -8 -54.5 -23.5t-54.5 -23.5q-22 -10 -35 -6q-9 2 -13 11t2 16q4 4 11 6q220 82 331 122q112 42 168 62q6 2 22.5 9.5t29 12t23.5 5.5q13 1 29.5 -6t8.5 -19q-4 -5 -12 -7q-16 -5 -57 -19t-64 -21q-12 -4 -16 -10t-2 -16q3 -81 13 -242.5t13 -241.5z
" />
    <glyph glyph-name="K" unicode="K" horiz-adv-x="525" 
d="M547 248q9 -8 5 -30l-9 -23q-2 -4 -9 -21t-9.5 -22t-9 -20t-10.5 -21.5t-11.5 -19.5t-13.5 -20t-14 -16.5t-17 -17t-19 -13.5q-21 -13 -43 -12q-74 7 -140 82l-24 24q-1 0 -3 2q4 -3 4.5 -21.5t-0.5 -40t-1 -24.5q1 -17 2 -50t2 -49q0 -5 2 -19.5t2 -22.5t-6.5 -15
t-21.5 -7q-13 0 -27 11.5t-15 23.5q-2 12 -2 19v1q-1 19 -3 59q-6 183 -6 185q0 -8 -29.5 -31t-42.5 -29q-47 -24 -70 10q-11 17 -5 35q13 40 32 63q21 25 49 31q5 1 18.5 2t22.5 4t15 11q9 10 7 25q-6 89 3 255.5t9 203.5q2 26 5 41q3 14 17 20q16 8 31 5q17 -3 25 -20
q3 -7 3 -23q-1 -7 -2.5 -21t-2.5 -20q-6 -73 -10 -219q0 -13 -0.5 -40t-1.5 -40q0 -4 1 -20.5t0.5 -30t-4.5 -17.5q118 148 167 253q1 2 11 22.5t12 25.5t10 23t10.5 26.5t7 23.5t6.5 27.5t2 24.5q0 4 2 12q7 22 28 17q25 -6 25 -26q0 -66 -15 -111l-1 -4
q-41 -130 -109 -230q-25 -38 -80 -103t-73 -89q-5 -7 -5 -14q0 -2 -0.5 -9.5t-0.5 -13.5q-1 -12 3 -24t13 -23.5t16 -19t20 -19.5t17 -16q1 -1 8.5 -9t10 -10t9.5 -9t11 -9.5t11 -7.5t12 -7.5t11.5 -5.5t13 -4t13.5 -1q9 0 17 4q25 12 45.5 36t30.5 45.5t24 57t22 50.5
q3 6 11 6q5 0 11 -6zM92 208q-13 0 -28 -11q-18 -11 -18 -35q26 7 46 46z" />
    <glyph glyph-name="L" unicode="L" horiz-adv-x="524" 
d="M67 125q-1 -16 1 -50l3 -45q0 -1 1.5 -2.5t1.5 -2.5h2q4 2 5 3q6 8 14 25t11 22q42 78 117 116q85 42 222 53q47 4 59 28q3 7 5.5 11.5t7 12t10 10.5t10.5 1q12 -5 9.5 -20t-9 -29t-12.5 -20q-7 -7 -17.5 -11t-18.5 -4.5t-22.5 -1t-20.5 -0.5q-50 -3 -101 -12
q-74 -15 -116 -41q-79 -48 -121 -144q-26 -55 -29 -90v-6q-4 -24 -31 -18q-9 1 -17 8q-20 13 -23 35q-6 62 -7 93q-1 37 0 115t2 183t1 115q1 143 0 287v21.5t0.5 46t0.5 39.5q0 32 -2 47q-5 26 7 31q28 13 55 -3q8 -5 9 -13q3 -10 3 -33q-2 -72 -2 -185q1 -15 -3 -281
t-5 -291z" />
    <glyph glyph-name="M" unicode="M" horiz-adv-x="669" 
d="M451 315q1 108 23 272q4 22 10 66q0 28 -6 27q-2 0 -5 -5q-30 -50 -57 -116t-39 -105.5t-36 -124.5q-15 -57 -2 -94q10 -27 -5 -44t-43 -6q-45 18 -61 69q-30 105 -45 215q-2 14 -9 92t-16 119q-4 14 -18 11q-7 -3 -10 -19q-64 -245 -73 -523q-4 -122 -10 -183
q-6 -74 -9 -86q-3 -10 -15.5 -16t-20.5 4q-6 8 4 110q3 35 10.5 124t12 136.5t12.5 120.5t18.5 135.5t23.5 122.5q1 3 6 27.5t8 36t10.5 34t14.5 35t18 24.5t24 16q25 9 39 2t18 -35q9 -49 41 -255q19 -113 25 -137q3 -14 14 -17t15 14q13 63 69 204.5t77 171.5q3 4 14 20.5
t16.5 23t17.5 13t25 5.5q23 -3 30 -24q9 -31 5 -54q-24 -162 -32 -300q-19 -261 44 -497q11 -47 12 -64q2 -12 -11 -18q-26 -11 -49 1t-30 40q-43 205 -52 347q-3 42 -3 84z" />
    <glyph glyph-name="N" unicode="N" horiz-adv-x="571" 
d="M515 814q24 -8 15 -56q-8 -40 -14.5 -80t-12.5 -85t-10.5 -78.5t-9.5 -85.5t-7.5 -79t-7 -86t-6 -79t-6.5 -86t-6 -81q-4 -62 -37 -71q-24 -8 -47 15q-10 11 -18 25.5t-17.5 39.5t-11.5 29q-39 92 -83 193q-44 104 -67 156q-14 31 -45 90q-5 9 -21 29q25 -346 80 -667
q4 -19 -1 -28q-5 -11 -18 -14q-18 -7 -37.5 2.5t-30.5 27.5q-16 24 -22 77q-31 242 -50 471q-12 158 -17 236q-6 120 -6 127q1 20 12 27t36 6q11 0 19 -5q9 -5 18 -31q16 -60 42 -129l14 -34q13 -34 29.5 -75.5t21.5 -53.5q7 -17 36.5 -88t43.5 -111q14 -37 43 -107t33 -80
q12 -20 24 -35q35 512 70 746q2 11 6 14q7 6 32.5 11.5t33.5 2.5z" />
    <glyph glyph-name="O" unicode="O" horiz-adv-x="543" 
d="M7 375q20 115 98 215q22 28 56.5 51t67.5 29q58 15 106 -21q12 1 21.5 -1.5t19 -11.5t14 -14t14.5 -20t12 -17q38 -62 55.5 -115t17.5 -123q0 -150 -79 -288q-53 -80 -122 -116q-66 -34 -137 -5q-133 55 -151 301q-1 13 -1 40q0 55 8 96zM136 487q-49 -88 -49 -237
q0 -74 17 -142q19 -76 67 -113.5t118 1.5q79 62 121 166.5t37 210.5q-2 58 -23 112q-13 34 -47 91t-54 53t-54 -20q-35 -17 -53 -28q-49 -37 -80 -94z" />
    <glyph glyph-name="P" unicode="P" horiz-adv-x="405" 
d="M547 769q20 -52 -8 -123q-24 -63 -72.5 -120.5t-110 -100t-126.5 -74.5t-133 -52q-6 -1 -6 -9q-3 -166 20 -395q8 -74 -30 -79q-17 -3 -33 7t-17 27q-4 64 -7 96q-28 217 -13 600q1 32 2.5 108t3.5 116q0 4 6 98q-2 8 7 8q70 16 74 -33q2 -8 0 -17q0 -1 -3 -93q4 9 9 19
q43 82 126 128q37 21 85.5 22t93 -14.5t81 -47t51.5 -71.5zM484 739q-4 35 -33 73q-29 36 -86 45.5t-94 -14.5q-58 -38 -96 -94t-55 -124.5t-22.5 -130.5t-4.5 -139q0 -13 14 -8q5 2 47 17.5t62 26.5q67 33 129.5 94t102.5 129q43 70 36 125z" />
    <glyph glyph-name="Q" unicode="Q" horiz-adv-x="619" 
d="M598 -77q6 -11 1.5 -29t-20.5 -18q-36 -2 -44 22q-30 79 -57 110q-59 67 -68 57q-20 -25 -71 -76q-33 -33 -50.5 -48.5t-46.5 -30t-59 -14.5q-15 0 -37 5q-148 35 -148 261q0 80 18 172q34 167 144 308q43 55 125 55q62 0 119 -31q79 -41 115 -125t36 -187
q0 -118 -63 -168q-10 -5 -16.5 5t-3.5 21q2 18 19 47q24 44 24 111q0 57 -16 116.5t-50 98.5q-35 39 -81 60.5t-86 -2.5q-33 -21 -72 -76q-99 -150 -124 -294q-17 -106 -17 -154q0 -22 1 -32q3 -28 11.5 -55.5t28 -54.5t46.5 -35q42 -10 78 11.5t79 65.5l69 72
q-10 7 -49 36.5t-61 41.5q-48 34 -23 54q8 6 28.5 -0.5t30.5 -14.5q3 -2 80 -55l28 -19q12 -5 18 0q5 2 10 -1t3 -8q-3 -10 5 -18l48 -44q45 -40 75 -95q20 -32 23 -45z" />
    <glyph glyph-name="R" unicode="R" horiz-adv-x="536" 
d="M2 533q-1 62 3 186q2 28 4 84q0 1 0.5 3t0.5 3q2 8 8 11q18 7 43 3q11 -1 19 -9.5t10 -19.5q2 -7 2 -23v-12.5v-15v-12.5q0 -24 -3 -92.5t-1 -105.5q0 -5 1 -8q1 -1 3.5 -1t3.5 1q4 4 5 6q2 4 11 21t13 26q66 160 171 192q29 8 58 3q39 -8 55 -39q31 -56 32 -105
q5 -170 -108 -298q-4 -5 -9 -9t-9.5 -7t-11.5 -5t-11 -3.5t-12.5 -2.5t-12.5 -1.5t-14 -1t-13 -0.5h-14h-13q-6 0 -17 2t-14 2q-7 1 -9.5 -2.5t-0.5 -10.5l9 -24q64 -144 123 -227q107 -151 189 -130q18 4 27 12q24 20 54 17q5 -1 9 -5t1 -9q-5 -9 -30 -25q-26 -14 -40 -18
q-55 -16 -99 6q-52 25 -95 64.5t-76.5 92.5t-56 97.5t-49.5 108.5q-4 12 -9.5 25t-12.5 28.5t-11 24.5q-1 1 -2 1q-4 2 -4 -2v-24q-1 -82 42 -252q0 -1 1 -4t1 -4q5 -29 35 -117q2 -6 7 -25q6 -22 -24 -26q-19 -2 -28 12q-5 7 -13 23q-3 7 -13 29.5t-15 34.5q-36 92 -51 172
q-3 16 -7.5 45.5t-6.5 38.5q-23 135 -25 301zM102 367q-1 -5 24.5 -15.5t36.5 -12.5q42 -11 76.5 9.5t55.5 59t36 88.5t21 91t7 73q1 20 -4.5 39.5t-18.5 31.5t-35 -8q-35 -31 -68.5 -80.5t-47.5 -77.5t-46 -96q-35 -74 -37 -102z" />
    <glyph glyph-name="S" unicode="S" horiz-adv-x="807" 
d="M845 329q14 0 20 -12q-151 -103 -263 -252q-10 -14 -11 -21q-3 -3 -1 -9.5t1.5 -8t4 -7.5t5.5 -7.5t6.5 -7t6.5 -7.5q43 -53 46 -115q1 -46 -24.5 -88t-66.5 -66q-80 -45 -182 -23q-44 8 -55 34t21 72q124 175 154 218q8 10 7 17q-1 5 -10 14q-48 38 -87 65
q-15 10 -59 39t-63 41.5t-56 39t-60 45.5t-52 44.5t-53 51.5q-5 6 -17 18t-17 18q-36 38 -38.5 105t16.5 113q17 56 73 101t115.5 69t122.5 36q51 10 107 11t117 -9t104 -45.5t50 -92.5q14 -107 -28 -173q-1 -2 -4 -7t-4.5 -7t-5 -7.5t-5.5 -6.5t-6 -5t-6.5 -4t-7.5 -2t-9 1
q-21 4 -38 24q-5 5 -3 11l10.5 37.5t10.5 40t8 44.5t2 41.5t-5.5 40.5t-16.5 33t-28.5 27.5t-43.5 15.5q-84 17 -209 -13q-164 -38 -229 -148q-23 -39 -32.5 -82t0 -88t41.5 -77q90 -91 171 -142q75 -47 150 -97q33 -23 96 -71q12 -10 21 -11q15 -2 35 18q20 19 69.5 71
t87.5 85.5t79 58.5q20 13 38 11zM589 -88q1 7 -6 29.5t-13 33.5q-2 4 -14 26q-2 5 -6.5 5t-6.5 -5q-3 -4 -11 -12.5t-10 -12.5q-4 -6 -50.5 -67t-51.5 -72q-2 -4 -6 -10q-4 -8 -19 -28t-19 -28q-8 -16 -4 -20q26 -21 89 7.5t82 47.5l15 18q28 39 31 88z" />
    <glyph glyph-name="T" unicode="T" horiz-adv-x="825" 
d="M1476 692q8 -10 8 -24.5t-13 -16.5q-10 -2 -17 -2q-376 -11 -697 -63q-140 -20 -188 -31q-14 -5 -14 -20q-2 -22 -1 -32q0 -39 2 -119q5 -213 25 -360q9 -71 16 -112t24.5 -100.5t42.5 -104.5q13 -22 24 24l3 10q6 21 16 65q70 344 91 423q3 11 8.5 32t8.5 32q4 16 10 25
q13 13 24 7q18 -6 8 -40q-45 -160 -76 -333q-29 -160 -39 -198q-1 -3 -4.5 -16t-5.5 -19.5t-6 -19t-8 -19t-9.5 -16t-12 -13t-14.5 -7t-17.5 -2t-20.5 7.5q-34 17 -50 48q-81 159 -109 358.5t-30 445.5q0 2 -0.5 7t-0.5 8q-2 15 -17 15q-28 -3 -29 -3q-19 -3 -60.5 -9.5
t-63.5 -9.5q-117 -15 -164 -23q-23 -4 -70 -4q-20 0 -44 20q-3 3 -5 10q-2 11 6 13q3 0 7 1t7 2q14 2 36.5 6t41.5 7t37 5q53 6 151.5 22t127.5 20q5 1 14.5 3t13.5 3q10 2 10 13q0 56 7.5 168.5t7.5 167.5q0 15 16 18q15 5 37.5 2.5t26.5 -21.5q2 -20 2 -29v-143
q0 -36 2 -104q0 -14 4 -44q0 -8 8 -6q16 3 48 7q54 7 162.5 22t162.5 22q224 28 461 34q13 1 35 0t29 -1t14 -9z" />
    <glyph glyph-name="U" unicode="U" horiz-adv-x="591" 
d="M521 808v-35q11 -427 -55 -710q-23 -103 -98 -177q-33 -30 -74 -41t-83 7q-116 61 -153 150q-20 48 -29 128q-14 112 -16 326.5t-12 313.5q0 21 5 28q6 7 22 9q52 10 77 -9q25 -20 25 -67q-2 -369 22 -577q1 -10 3.5 -36t4.5 -39.5t5.5 -34.5t9 -38.5t13.5 -33.5
q25 -51 73 -64t90 27q63 65 83 176q3 20 12 69.5t13.5 76t9 67t4.5 73.5q0 20 6.5 131t2.5 170q-4 51 -6 102q-2 18 12 21q16 7 28 -5q4 -4 5 -8z" />
    <glyph glyph-name="V" unicode="V" horiz-adv-x="510" 
d="M1 823q0 7 4 9q27 10 49 17q8 3 18 1q22 -1 30 -24q1 -7 3 -17.5t3 -15.5q2 -14 5 -33t5 -33q0 -1 9 -60t21 -143.5t19 -128.5q18 -128 50 -334l18 -120q0 -2 0.5 -4t1.5 -4.5t1 -3.5q1 -3 5 -3q3 0 5 2q1 4 3 14q2 9 13 58t15 75q51 322 136 540q16 41 38 88t39.5 80
t46 86t43.5 81q15 27 28 34q10 6 22.5 1.5t13.5 -15.5q2 -9 -8 -24q-34 -54 -55 -92q-195 -348 -265 -859q-6 -46 -9 -68q-8 -84 -30 -126q-10 -17 -29 -24.5t-38 -0.5q-21 10 -38 21q-5 3 -13 13q-8 12 -13 31q-3 14 -8.5 41t-8.5 41q-54 326 -118 798q-6 45 -12 93v9z" />
    <glyph glyph-name="W" unicode="W" horiz-adv-x="955" 
d="M145 854q8 31 -4 42q-16 15 -44 -4q-1 -1 -8 -6t-10.5 -7t-9.5 -4.5t-10.5 -1t-8.5 6.5q-8 13 -3 21.5t16 13.5q51 25 114 28q39 3 52.5 -20.5t4.5 -61.5q-14 -61 -60.5 -223.5t-66 -278t-10.5 -226.5q7 -70 49 -75q41 -3 71 31q80 81 72 274q-2 29 4 47q9 29 34 31
q27 3 40 -27q7 -15 9 -50q5 -158 27 -272q22 -118 70 -176q42 -51 101.5 -62.5t114.5 24.5q83 58 114 181q26 98 0 195q-23 89 -83 164.5t-144 125.5q-7 4 -25.5 12t-32 16.5t-20.5 20.5q-11 14 -5 25.5t17 19.5t29 13.5t31 8.5t24 4q37 3 107.5 3t100.5 2t84 8.5t73 8.5
q75 6 75 -29q0 -31 -17 -43l-66 -45q-20 -14 -33 -16q-24 -4 -32 15q-9 21 23 43q-89 -4 -267 -14q9 -10 47 -41q127 -101 176 -244q53 -153 -2 -298q-36 -94 -116 -161q-78 -59 -172.5 -48t-165.5 78q-25 23 -45 58t-30 61.5t-24 71.5q-4 10 -8 13q-13 10 -33 -15
q-49 -63 -120 -65.5t-114 66.5q-27 47 -32 123q-6 78 8 170t33.5 158t52.5 170.5t48 159.5z" />
    <glyph glyph-name="X" unicode="X" horiz-adv-x="636" 
d="M512 904q20 -17 20 -49q0 -10 -4 -17l-78 -153q-7 -14 -49.5 -107t-46.5 -102q-21 -47 -13 -72q1 -2 30.5 -86t62.5 -177t41 -112q5 -12 14 -41t16 -44q1 -2 12 -38q4 -16 -7.5 -40t-28.5 -30q-6 -2 -16 0.5t-12 6.5q-16 30 -22 46q-4 8 -34.5 90t-67 181t-46.5 125
q-1 4 -5 4t-5 -4q-17 -45 -37 -82q-31 -62 -87 -203q-7 -17 -36.5 -85t-41.5 -106q-4 -15 -12 -37q-6 -16 -20.5 -20.5t-29.5 6.5q-8 12 -8 16q0 16 10 39q4 9 13.5 33.5t15.5 37.5q96 214 177 430q12 30 18 44q10 16 3 38q-61 198 -162 468q-8 24 -16 40q-7 17 15 27.5
t42 11.5q34 3 48 -25q15 -30 35 -90t28 -80q16 -40 42 -114t34 -96q3 -6 5 -6q5 0 12 13q34 68 97 195.5t77 156.5q8 16 17 7z" />
    <glyph glyph-name="Y" unicode="Y" horiz-adv-x="527" 
d="M470 862q7 -14 8.5 -40.5t0.5 -39.5q-5 -29 -27 -112q-19 -74 -55 -196q-67 -247 -78 -392q-8 -90 -11 -217q0 -6 -2 -17t-2 -17q-2 -8 -4 -12q-10 -19 -28.5 -18t-31.5 18q-12 16 -9 71q11 313 87 598q11 48 25 93q-3 -7 -9 -21.5t-9 -21.5q-12 -30 -27 -59t-38 -63.5
t-52 -53.5t-59 -14q-33 6 -65 24q-23 14 -38.5 36.5t-23.5 57t-11 54.5t-6 60q-1 7 -1 11q-5 68 2 260v38q0 16 21.5 22.5t43 -2t22.5 -28.5v-26q0 -9 -0.5 -26.5t-1 -31.5t-1.5 -26q-8 -209 20 -315q17 -66 60 -71q6 -1 12.5 1t13 6.5t12 9.5t12 13.5t11 14.5t10.5 15.5
t9 15t8.5 15t7.5 12.5q18 30 59 136q18 45 44 101q10 22 32 66q22 43 38 65q19 25 31 6z" />
    <glyph glyph-name="Z" unicode="Z" horiz-adv-x="485" 
d="M401 739q12 19 18 43q1 7 -5 10t-18.5 1.5t-22 -3.5t-22.5 -6l-13 -4q-62 -17 -101 -37q-43 -24 -55 -28q-35 -11 -59 3q-5 3 -6 6q-6 12 15 19q170 68 255 82q32 5 58 -7q25 -10 27 -41.5t-7.5 -59t-22.5 -49.5q-15 -27 -126 -239q-17 -32 -50 -93t-53.5 -99t-48 -91.5
t-49.5 -99.5q-11 -23 -31 -85q-4 -14 -10 -42q-2 -6 0 -11q0 -3 3 -5t5 -1q39 13 44 15q105 43 265 87q27 7 33 -8q6 -14 -18 -24l-11 -3q-91 -19 -253 -90q-26 -12 -39 -19q-19 -9 -42 -9q-25 0 -43 18t-17 43q2 49 26 122q11 34 28.5 75t30.5 66t39 74.5t35 66.5
q84 165 157 280q40 65 84 143z" />
    <glyph glyph-name="bracketleft" unicode="[" horiz-adv-x="293" 
d="M267 1063q14 -6 13.5 -20t-16.5 -24q-29 -20 -92 -16q-5 0 -25 2.5t-38 3.5t-37.5 0t-31 -7t-11.5 -18q16 -783 23 -1163q2 -20 7 -25q7 -8 30 -8q88 4 132 5q31 2 42 -11q8 -11 4.5 -25t-15.5 -23q-16 -10 -54 -12q-25 -1 -75 -2.5t-74 -1.5q-16 -1 -25 10.5t-10.5 31.5
t-1 38.5t2.5 39.5t2 28q0 51 -2 157l-3 306q-2 103 -4.5 310t-3.5 311q0 22 -0.5 44.5t9.5 44t31 29.5q12 4 27 4.5t37.5 -1.5t27.5 -2q78 -2 118 -3q10 -2 13 -3z" />
    <glyph glyph-name="backslash" unicode="\" horiz-adv-x="579" 
d="M499 -168q-123 276 -181.5 406.5t-166 352.5t-203.5 396q-38 68 -32 95q3 11 11 18q5 3 9 3q15 2 20 -4q3 -4 18 -38t20 -43q84 -159 222 -444.5t220.5 -461t99.5 -213.5q20 -47 11 -71q-10 -22 -28 -18q-9 2 -20 22z" />
    <glyph glyph-name="bracketright" unicode="]" horiz-adv-x="392" 
d="M17 -282q-14 6 -13.5 20t16.5 24q29 20 92 16q5 0 25 -2.5t38 -3.5t37.5 0t31 7t11.5 18q-16 783 -23 1163q-2 20 -7 25q-7 8 -30 8q-88 -4 -132 -5q-31 -2 -42 11q-8 11 -4.5 25t15.5 23q16 10 54 12q25 1 75 2.5t74 1.5q16 1 25 -10.5t10.5 -31.5t1 -38.5t-2.5 -39.5
t-2 -28q0 -51 2 -157l3 -306q2 -103 4 -310t4 -311q0 -22 0.5 -44.5t-9.5 -44t-31 -29.5q-12 -4 -27 -4.5t-37.5 1.5t-27.5 2q-78 2 -118 3q-10 2 -13 3z" />
    <glyph glyph-name="asciicircum" unicode="^" horiz-adv-x="286" 
d="M19 925q5 7 21.5 22t22.5 23q21 23 40 24q15 1 27 -8t25.5 -26t22.5 -25q1 -2 5.5 -6.5t5.5 -6.5q4 -7 0 -13t-11 -7q-16 -2 -30 13q-23 27 -41 39q-3 0 -4 -1q-16 -17 -43 -48q-8 -8 -19 -8q-8 0 -17 5t-9 13q0 7 4 10z" />
    <glyph glyph-name="underscore" unicode="_" horiz-adv-x="461" 
d="M94 -13q-17 1 -40.5 12.5t-19.5 27.5q1 5 6.5 8t14 4t15.5 1.5t16 0t10 -0.5q6 0 80 -0.5t88 1.5q9 1 29 3.5t29 2.5t29 -1q24 -3 47 -19q8 -8 9 -12q3 -9 -8 -18q-8 -4 -19 -4q-197 -13 -286 -6z" />
    <glyph glyph-name="grave" unicode="`" horiz-adv-x="233" 
d="M35 966q11 9 18 -1q6 -8 18.5 -23.5t20 -24.5t19.5 -20.5t24 -19.5q16 -13 17 -15q7 -6 3 -19t-14 -11l-9 3q-54 28 -101 88q-6 8 -4.5 21.5t8.5 21.5z" />
    <glyph glyph-name="a" unicode="a" 
d="M328 325q7 6 18 0.5t6 -15.5q-3 -5 -17 -32q-26 -54 -39 -89q-4 -12 -16 -43t-18 -48q-16 -49 -26 -94q-12 -49 -26 -73q-16 -11 -36 -11q-30 1 -35 3.5t-21 26.5t-27 63q-2 9 -4 19.5t-4.5 23.5t-3.5 20l-6 21q-3 9 -11 5q-27 -12 -80 -8q-38 4 -49 74q-9 45 8 77
q24 44 86 100q16 7 40 4t45 -9q3 0 3.5 -4t-1.5 -6q-26 -22 -35 -37q-4 -7 -21.5 -18.5t-20.5 -20.5q-10 -30 -10 -58q0 -14 7 -18q8 -3 15 6q22 25 28 35.5t17 41.5q16 40 28 57q10 14 27 12q5 0 10.5 -1t12 -2.5t10.5 -2.5t6 -6t0 -8q-27 -52 -29 -139q-1 -24 -1 -93
q2 -87 21 -102h10q7 0 10 12q59 193 105 294q10 21 24 43z" />
    <glyph glyph-name="b" unicode="b" horiz-adv-x="344" 
d="M-5 188q1 11 2 32.5t1 32.5q1 31 0 89t-1 84q2 136 1 175q-2 9 0 20q0 10 10 12q16 4 23 4q7 1 17 -1q23 -5 25 -28q1 -13 1 -38q0 -35 -1 -52q0 -15 -2 -61.5t-2 -72.5v-63q1 -12 1 -35q3 -15 6 -16q2 0 5 3t13 12t14 13t12.5 11t14.5 10.5t15 7.5t18 6q33 8 50 -4
q12 -9 18.5 -29.5t4.5 -35.5q-3 -24 -2 -31q0 -4 3.5 -5.5t6.5 0.5q54 36 87 8q10 -7 8.5 -24t-12.5 -22q-16 -7 -26 6q-5 5 -8 6q-11 4 -34 -11q-2 -1 -11.5 -8t-14 -12t-6.5 -11q-1 -4 -8 -24.5t-10 -31.5q-10 -37 -40 -109q-27 -64 -66 -81q-5 -3 -13.5 1t-10.5 10
q-8 23 -4 43q12 74 66 144q2 2 12.5 15.5t15.5 21.5q4 4 10 13.5t10 14.5q4 11 5 14q6 26 8 40q4 37 -8 58q-9 14 -39 3q-10 -4 -20.5 -12t-16.5 -13.5t-17.5 -17.5t-15.5 -16q-21 -21 -21 -46q-3 -74 -3 -146v-11q-1 -9 -9.5 -14t-17.5 -4q-16 3 -32 14t-16 25v50
q2 58 4 87zM176 92q1 3 -2 5q-1 1 -3 -1q-26 -29 -45 -89q-2 -5 -2 -14q0 -10 12 3q2 1 2 2q5 9 12 26t9 20q1 3 17 48z" />
    <glyph glyph-name="c" unicode="c" horiz-adv-x="288" 
d="M121 496q13 -2 21 -10q20 -22 24 -39q3 -9 -5 -15q-5 -3 -11.5 -3t-7.5 4q-10 20 -22 1q-15 -26 -32 -102q-12 -57 -16 -101q-5 -66 4 -116q5 -28 14 -47q6 -14 15.5 -17t20 5t20 17t20 25t15 23t9.5 16q10 19 35.5 66.5t36.5 67.5q5 9 11 20t9.5 18t5.5 9q10 10 21 1
q2 -2 2.5 -7.5t-0.5 -7.5q-15 -40 -38 -84t-41.5 -75.5t-20.5 -35.5q-14 -31 -42.5 -63.5t-55.5 -39.5q-33 -8 -66.5 34.5t-42.5 79.5q-16 71 -15 112q4 157 69 239q11 14 28 20q21 6 35 5z" />
    <glyph glyph-name="d" unicode="d" horiz-adv-x="466" 
d="M8 351q25 43 56 38q48 -8 67 -39q5 -9 12.5 -28.5t7.5 -27.5q3 -17 -15 -22q-25 -5 -29 11q0 2 -0.5 11.5t-1.5 16t-6.5 12.5t-14.5 6q-10 -1 -13 -41.5t-1 -62.5q1 -17 12.5 -33.5t26.5 -22.5t31 20q15 25 27 90.5t15 111.5q5 67 24.5 191.5t22.5 144.5q7 12 13.5 17.5
t22.5 11.5q12 4 25.5 -3.5t14.5 -24.5l-5 -53q-38 -346 -32 -536q1 -34 14 -112.5t17 -95.5q10 -38 45 38q2 4 4 9q10 26 30 76.5t31 76.5q8 20 22 60.5t16 45.5q3 10 9 40.5t10 40.5q17 4 22 -13q-2 -5 -13 -55t-13 -55q-6 -17 -17.5 -52.5t-17.5 -52.5q-3 -6 -28 -75
t-29 -78q-13 -27 -19 -38t-17.5 -19t-28.5 -8q-34 0 -44 23q-35 82 -50 137.5t-20 133.5q-3 37 -1 83q0 13 -1 14q-13 -88 -42 -117q-54 -54 -124 0q-26 20 -30.5 96.5t15.5 108.5z" />
    <glyph glyph-name="e" unicode="e" horiz-adv-x="309" 
d="M103 108q-18 -32 -36 -48q14 -19 29 -19q25 0 49 30q28 30 78 114q81 129 86 133q6 4 9 4q14 0 17 -21t-4 -30l-15 -25l-47 -79q-25 -43 -42 -70t-43.5 -59.5t-51.5 -49.5q-31 -22 -62 -22q-50 0 -81 53q-26 42 -26 111q0 28 6 70q13 104 60 180q38 54 63 68q15 8 29 8
q26 0 44.5 -24.5t20.5 -55.5q4 -68 -30 -156q-4 -8 -22 -49t-31 -63zM47 114q11 8 27 32t20 36q34 72 50 140q5 22 5 36q0 46 -29 46q-24 0 -53 -71q-16 -40 -27 -116q-4 -29 -1.5 -58.5t8.5 -44.5z" />
    <glyph glyph-name="f" unicode="f" horiz-adv-x="287" 
d="M-4 120q-28 4 -26 13q0 4 11 9q2 1 15 1t17 8q1 6 0 12q-2 18 -7.5 54t-8.5 54q-15 128 7.5 252.5t96.5 201.5q32 33 75 48.5t84 5.5q29 -8 36 -25q5 -11 0 -23t-15 -17q-16 -7 -22 5q-2 2 -2.5 8t-1.5 8q-1 8 -9 13t-17 4q-15 -1 -31 -14q-46 -36 -77 -121
q-73 -206 -13 -414q4 -10 8 -12t14 2q76 36 130 101q17 20 27 24q8 4 18 1.5t14 -10.5q5 -15 -14 -34q-69 -72 -166 -116q-16 -9 -17 -14q-2 -5 0 -14q28 -135 92 -250q5 -12 5 -15q0 -18 -24 -22q-45 -8 -85 55q-46 70 -79 196q-2 10 -7 15q-6 8 -28 10z" />
    <glyph glyph-name="g" unicode="g" horiz-adv-x="304" 
d="M285 205q7 0 10 -7t1 -15.5t-9 -11.5q-9 -3 -38 -19q-27 -15 -49 -33q-6 -6 -11 -11.5t-8 -12.5t-4.5 -11.5t-2.5 -14t-1.5 -13.5t-1 -16t-0.5 -16q-5 -125 -41 -212q-44 -110 -129 -169q-28 -19 -51 -24q-41 -8 -74 19q-18 16 -15 46q16 100 81 200q45 70 137 168
q21 19 27 34q1 4 2 9t2 11.5t2 9.5l12 129q2 11 -6 11q-4 0 -9.5 -7t-11.5 -16.5t-7 -10.5q-23 -24 -46 -26q-21 -3 -41 10t-29 33q-16 35 -5 87q15 54 53 98q15 18 39 19q30 0 53 -8q15 -5 20 -13q8 -12 1 -22q-3 -4 -13 -8q-37 -14 -57 -52t-11 -77q33 26 52 47
q21 23 31 27q10 5 22 1t15 -14q1 -3 1 -11q0 -25 0.5 -74t0.5 -73q2 -10 5 -11q7 -3 9 -1q15 11 56 34q26 13 39 17zM97 -30l1 4q1 4 1.5 7.5t1.5 8.5t1 9v7.5t-1 5t-3 0.5q-6 0 -8 -2q-16 -13 -40 -47t-32 -42q-50 -64 -65 -102q-2 -4 -7 -17t-7 -17.5t-7 -18t-6.5 -18
t-5.5 -18t-4 -18.5t-3 -18.5t-1.5 -18.5t0.5 -19q1 -5 4 -7t7 -1.5t9 2.5t9.5 5.5t8 6t5.5 4.5q21 16 48 54q30 44 47 77q21 43 47 173z" />
    <glyph glyph-name="h" unicode="h" horiz-adv-x="390" 
d="M-11 67q-4 13 -5 28.5t0 39t1 25.5q0 59 3 89q3 32 11 96.5t11 96.5q8 70 9 110q5 123 3 249q0 16 4 46q3 23 27 20q25 -4 33 -7q18 -4 21 -29l2 -72q1 -48 1 -72q2 -224 -16 -342q-4 -34 -3 -51q1 -5 5.5 -9t8.5 -3q25 7 50 3q19 -2 28 -16t21 -39t16 -33
q6 -11 19.5 -32.5t19.5 -32.5q8 -13 18 -23q16 -13 31 -3q19 12 37 28q22 17 45 24q21 5 37 -3q6 -3 6 -10t-5 -11q-14 -11 -43 -33.5t-44 -33.5q-43 -34 -89 3q-13 11 -27.5 25.5t-22 24t-24 31t-21.5 27.5l-18 27l-3.5 7t-4 7.5t-4 4.5t-5.5 1t-8 -5q-8 -7 -12.5 -16.5
t-5.5 -17t-2 -20.5t-2 -19q-4 -24 -6.5 -67t-3.5 -55q0 -16 -18 -20q-14 -4 -28 3.5t-21 16t-17 23.5q-6 7 -9 19z" />
    <glyph glyph-name="i" unicode="i" horiz-adv-x="231" 
d="M246 306q7 -4 4 -13q-1 -3 -11.5 -22.5t-11.5 -22.5q-13 -26 -45 -76q-28 -45 -67 -68q-30 -14 -57 -7q-21 6 -33 17.5t-25 34.5q-20 39 -10 125q1 10 6 32q5 16 8 24q2 5 10 8q17 5 34 -1q11 -4 11 -12q0 -1 -3 -21q-6 -47 -5 -67q4 -57 27 -89q11 -17 28 -13
q21 8 49 43q17 23 37 59q31 56 39 66q2 3 6.5 4.5t8.5 -1.5zM66 424q-9 2 -17 9t-5 14q8 19 29 16l10.5 -3.5t11.5 -4.5q1 -1 1.5 -4.5t-0.5 -4.5q-5 -13 -16 -20q-4 -4 -14 -2z" />
    <glyph glyph-name="j" unicode="j" horiz-adv-x="247" 
d="M51 545q-11 -1 -24 5t-16 16q-2 18 19.5 26t35.5 3q11 -8 13 -19q0 -10 -1 -13q-2 -10 -9.5 -15.5t-17.5 -2.5zM266 312q2 -5 1 -9t-1 -4.5t-2.5 -2.5t-4.5 -4q-53 -25 -120 -88q-19 -17 -17 -59q5 -161 -4 -274t-43 -242q-18 -66 -52.5 -120.5t-85.5 -73.5
q-115 -40 -154 71q-27 75 -12 211q17 114 75 213t120 163q82 82 82 87q1 15 -1.5 54.5t-5.5 50.5q-1 2 -5 3t-6 -1l-5.5 -5.5t-5.5 -6t-6 -5t-6 -2t-5 2.5l-12 19q2 14 5 24q3 14 10 40.5t11.5 47.5t5.5 40q-1 18 29 27q7 5 19.5 4t14.5 -9q6 -27 14 -86q15 -120 17 -143
q0 -4 8 -2q42 39 123 86q13 8 19 -7zM47 -277q16 208 5 388q0 11 -11 8q-8 -2 -16 -13q-116 -119 -160.5 -214.5t-55.5 -184.5q-6 -125 8 -176q25 -87 107 -65q31 8 55 37.5t37 71.5t20 76.5t11 71.5z" />
    <glyph glyph-name="k" unicode="k" horiz-adv-x="545" 
d="M54 -4q-4 -8 -10 -24q-5 -10 -7.5 -45.5t-4.5 -75.5t-3 -50q-1 -11 -12 -18t-22 -6q-13 2 -22 10t-10 20q-1 10 -1 25q4 44 8.5 153.5t11.5 168.5q4 36 6 66q42 482 221 767q32 50 54 60q21 11 75 6q51 -6 85 -49q18 -25 -1 -83q-64 -151 -110 -225q-23 -39 -101 -150
q-83 -127 -117 -174q-15 -19 -18 -39q-2 -17 -6.5 -48.5t-8 -57.5t-6.5 -50q-1 -14 -3.5 -41t-4.5 -40q-2 -12 -2 -18q5 9 12 24q18 34 26 51q29 57 71 125q50 80 103 140q39 43 79 38q30 -3 47 -35q8 -17 3 -40q-5 -45 -32 -102q-18 -41 -78 -105q-27 -29 -49 -42
q7 -9 21 -19q72 -58 132 -59q22 1 46.5 20.5t37.5 46.5q27 51 63 141q6 13 11.5 33t6.5 23q7 19 28 17q12 0 16.5 -11t1.5 -22q-6 -20 -37 -95q-32 -69 -51 -108q-17 -47 -70 -79q-17 -11 -36 -15t-39.5 1t-36.5 9.5t-39 18.5t-34.5 21.5t-34.5 24.5t-29 21l-6 4q-1 1 -7 -3
q-20 -10 -58 4h-1l-1 1q-10 -9 -19.5 -25.5t-14 -25.5t-13.5 -34zM160 186q-1 -2 -3 -6.5t-3 -7.5l6 -3q7 -3 13.5 -6.5t7.5 -3.5q9 -1 19 7q37 27 70.5 69.5t46.5 82.5q2 7 6.5 19t7.5 19.5t5.5 19t3.5 22.5q-3 29 -28 6q-102 -118 -152 -218zM119 529q-5 -20 -13 -64
q49 73 54 79q9 14 31.5 53t35.5 58q65 92 131 254q17 45 18 67q1 10 -17 26q-14 9 -31.5 8t-32.5 -8q-8 -3 -13 -11q-2 -3 -5.5 -9.5t-6.5 -11.5t-6 -9q-60 -99 -105 -261q-23 -83 -40 -171z" />
    <glyph glyph-name="l" unicode="l" horiz-adv-x="334" 
d="M14 64q-5 17 -8.5 36.5t-5 42.5t-2.5 37.5t-1 40v32.5q1 125 34 289q16 77 34 126q15 41 48 83q27 34 80 32q20 -1 36.5 -22.5t16.5 -42.5q2 -106 -41 -258q-17 -54 -26.5 -82.5t-29.5 -72t-43 -75.5q-17 -24 -19.5 -32t-0.5 -38q9 -116 32 -147q19 -26 47 -11
q14 7 27 23t20 29.5t18.5 36.5t15.5 30q38 73 88 196q7 16 21 8q14 -5 9 -20q-7 -17 -26.5 -64.5t-29.5 -71.5t-27 -60.5t-34 -66.5q-16 -30 -29.5 -48.5t-39 -32.5t-54.5 -7q-38 9 -67.5 40t-42.5 70zM79 304q0 -19 1 -28q0 -3 3 -4t4 1q13 20 25 49t16.5 44.5t15.5 57.5
t12 47q36 125 49 218q8 57 -12 60q-10 2 -18.5 -6t-15.5 -25t-11 -29t-8 -31l-5 -20q-22 -80 -32 -153q-2 -12 -9 -55t-10.5 -71t-4.5 -55z" />
    <glyph glyph-name="m" unicode="m" horiz-adv-x="623" 
d="M226 341q24 5 42 -3q21 -11 32 -45q13 -39 16 -81q0 -13 7 -14q7 0 11 9q19 39 39 53q33 26 63 9q29 -18 29 -65q0 -8 -1 -23.5t-1 -28t3 -23.5q3 -6 4 -7q20 -4 65 50.5t50 71.5q14 21 38 74q8 7 17 2t6 -15q0 -11 -32 -75q-34 -70 -74.5 -111.5t-64.5 -44.5
q-48 -7 -76 29q-30 37 -16 115q2 10 -3 11q-25 -23 -30 -69q-2 -6 -0.5 -38t1.5 -38q0 -24 -8 -32t-22 -8q-39 0 -61 42q-12 23 -18 75q-2 14 -3.5 43t-2.5 44q-6 51 -16 52q-3 0 -6 -4q-42 -47 -57 -125q-6 -32 -13 -144q-2 -14 -5 -20q-9 -14 -30 -10q-19 3 -34 17.5
t-21 34.5q-9 25 -7 78q2 45 11.5 91.5t10.5 90.5q0 8 -2 10q-6 5 -17 -4q-9 -9 -19.5 -18t-15.5 -14.5t-8 -10.5q-6 -5 -17 0q-7 8 -5 14q12 35 40.5 60t52.5 28q28 3 48 -20q22 -26 22 -57q-1 -34 -8 -67q11 31 30 64q26 39 56 47z" />
    <glyph glyph-name="n" unicode="n" horiz-adv-x="417" 
d="M74 337v-9q0 -8 -5 -43q-3 -16 -13 -129q0 -14 9 -19q3 -1 10 9q11 17 35.5 68.5t38.5 71.5q31 38 82 32q28 -3 39 -30q13 -24 7 -87q-4 -51 -2 -124q1 -17 8.5 -29t17.5 -2q10 8 25 29.5t38.5 74.5t41.5 119q10 39 14 49q2 6 9.5 7t13.5 -8q3 -5 -8 -51
q-18 -72 -48.5 -147t-59.5 -107q-45 -55 -88 -25q-21 14 -35 45q-16 41 -18 97.5t4 106.5q0 25 -7 25q-4 0 -7 -1q-13 -5 -27 -40q-8 -20 -24.5 -59.5t-24.5 -59.5q-16 -34 -26 -44q-17 -15 -36.5 -7t-29.5 32q-19 39 -15 112q0 15 0.5 31.5t1.5 37.5t1 33q2 20 6 27
q5 11 13 21q29 33 47 18q8 -7 12 -25z" />
    <glyph glyph-name="o" unicode="o" horiz-adv-x="371" 
d="M83 609q86 19 149 -21q44 -28 66.5 -74.5t21.5 -101.5q0 -49 -4 -68q-2 -8 8 -10q1 0 7.5 -1t8 -1.5t7.5 -1.5t8.5 -2.5t8 -3.5t9 -4.5t8 -6.5t8.5 -9q7 -7 9.5 -13.5t-1 -12.5t-13.5 -9q-21 -6 -31 2q-5 9 -27 14.5t-32 -0.5q-7 -5 -8 -8q-10 -21 -23.5 -38.5t-33.5 -38
t-31 -33.5q-11 -14 -23.5 -27.5t-30.5 -31t-37 -30t-38.5 -20.5t-39 -6t-35.5 16q-19 15 -30 49q-7 21 1.5 62t19.5 64q2 4 7.5 9.5t8 10.5t0.5 11q-2 7 -8 11t-10 5t-18 5q-69 19 -84 60q-16 44 -2 80.5t51 75.5q69 73 136 93q3 1 8.5 2.5t8.5 2.5zM231 283q1 1 -1.5 3
t-4.5 2q-29 -7 -158 -14q-3 0 -3 -4q0 -2 1 -3q5 -3 13 -11q9 -9 5 -21q-4 -8 -12 -31.5t-12 -32.5q-14 -27 -18 -52q-3 -19 14 -15q22 5 43 24q30 26 43 39q39 37 70 79q17 26 20 37zM179 577q-22 3 -46 -3q-111 -33 -181 -140q-12 -19 -18 -34t-6.5 -30.5t12 -27.5
t38.5 -20q46 -10 116 -10q111 5 151 18q13 5 16 8q13 13 13 49q0 5 0.5 28.5t0 36.5t-2.5 32.5t-8.5 33.5t-16.5 24q-31 29 -68 35z" />
    <glyph glyph-name="p" unicode="p" horiz-adv-x="400" 
d="M422 324q17 -7 3 -26q-55 -84 -132 -105q-52 -14 -66 -29q-30 -33 -41 -39q-42 -25 -102 7q-2 2 -5 0.5t-3 -4.5q2 -47 11 -153t10 -163q2 -101 -9 -202q0 -3 -1.5 -18t-2.5 -21.5t-3.5 -20.5t-6 -21.5t-9.5 -16.5t-14.5 -13t-19.5 -5q-90 -6 -108 83q-27 131 6 305
q31 162 77 279q13 34 7 67q-2 13 -10.5 22.5t-10.5 18.5q-9 23 2 48q10 16 11 17q12 9 26.5 -2.5t22.5 -25.5q2 -4 6.5 -4.5t6.5 2.5l33 36q19 21 53.5 25t57.5 -12q9 -5 16 -10q11 -6 18.5 -15t10 -23t3 -22t0 -27t-0.5 -23q0 -8 1.5 -10t6.5 -1q24 6 44 15.5t35 22.5
t24 21.5t19 21.5t12 15q9 11 22 6zM40 -218q1 35 -1 107q0 42 -1 63q-2 32 -5 46q-1 7 -5.5 5.5t-6.5 -6.5q-11 -37 -27 -136q-16 -82 -23 -153q-9 -65 -6 -114q2 -32 10 -49q8 -15 18 -17q16 -2 24 12q6 10 8 27q15 89 15 215zM192 272q2 26 -6 44q-4 10 -16 3
q-40 -24 -68.5 -69.5t-28.5 -90.5q0 -7 8 -7q5 0 13.5 2t12.5 2q30 3 52 33q29 44 33 83z" />
    <glyph glyph-name="q" unicode="q" horiz-adv-x="397" 
d="M149 -176q-2 64 -4 96q-6 93 11 261v18q-3 -4 -7 -12q-3 -7 -12 -24.5t-13.5 -26.5t-13.5 -22.5t-18 -22.5q-24 -24 -57.5 -12.5t-44.5 43.5q-11 33 -9 97q1 28 18 99q13 55 37 72q29 22 70 15q12 -2 26 -13q25 -25 33 -51q4 -5 5 -5q5 3 6 4l13 26q6 11 24 18
q12 5 25.5 -1.5t16.5 -21.5q3 -12 1 -26q-2 -16 -4 -24q-12 -67 -21 -135q-18 -141 -13 -239q0 -6 7 -6q25 4 92 88q23 28 40 55q24 36 40 104q2 8 8.5 12t13.5 2q8 -1 12.5 -8t2.5 -15q-22 -95 -71 -154q-4 -5 -22 -27t-29 -34.5t-28 -31t-31.5 -29t-25.5 -14.5q3 0 21 -6
q31 -13 36 -75q5 -44 -5 -131q-12 -104 -19 -132l-3 -6q-17 -15 -35.5 -6.5t-28.5 27.5q-5 10 -8 20.5t-6 27.5t-4 21q-22 116 -26 205zM216 -159v-36q2 -36 4 -57q4 -57 15 -114q0 -2 3 -4q1 0 3 2q3 3 5 12q1 16 5 46q5 47 4 81q-4 47 -24 70q-5 5 -8 5q-5 2 -7 -5z
M147 283q6 12 1 26q-8 24 -28 49q-8 10 -15 11q-17 3 -27 -27q-2 -4 -5 -16q-13 -46 -18 -93q-9 -64 1 -91q5 -15 19.5 0t21.5 28q10 19 27.5 60t22.5 53z" />
    <glyph glyph-name="r" unicode="r" horiz-adv-x="341" 
d="M374 321q4 -10 0 -19q-5 -13 -23 -66.5t-32 -87.5q-43 -97 -76 -143q-37 -52 -79 -67q-14 -3 -27 -3q-57 0 -88 63q-27 58 -9 167q2 14 4 23q3 14 7 49q3 11 1 15q-1 3 -12 11q-2 1 -8 5l-9 6q-1 0 -4 0.5t-4 1.5q-9 0 -14 4q-1 1 -8 11q-3 4 -3 13v6q-1 3 -14 26
q-12 23 -14 32q-17 42 8 77q28 41 80 41q43 0 65 -35q6 -11 7 -23.5t-1.5 -22.5t-9.5 -23t-12 -20.5t-14 -19.5q-5 -11 -26 -40q26 -19 28 -21q3 -2 25 -7t25 -9q12 -12 5 -49q-4 -14 -18.5 -55t-23.5 -75t-5 -55q9 -53 38 -53q15 0 30.5 10.5t24.5 21t23 29.5q22 31 44 77
q20 39 54 120q3 7 13 35.5t14 37.5q8 17 13 19q5 3 11 3t14 -10zM53 451q-12 0 -26 -8q-16 -11 -19 -33t5 -37l3 -7q2 -7 5 -14t5 -10q4 8 20 24q36 43 35 64q0 9 -7 13q-9 8 -21 8z" />
    <glyph glyph-name="s" unicode="s" horiz-adv-x="285" 
d="M217 99q16 -12 19 -32q1 -11 -10 -27q-18 -21 -19 -22q-57 -53 -81 -70q-30 -20 -60 -20q-31 0 -41 7l-27 18q-1 1 -4 7q-2 7 4 7q6 1 30.5 -2t29.5 3q30 19 86 63q4 3 11 8.5t11 9t9 9t8 11.5q2 8 0.5 12.5t-13.5 6t-20 1.5t-19 -0.5t-12 -0.5q-10 0 -30.5 -2t-30.5 -2
q-4 0 -37 8q-35 11 -59 45q-18 22 -15 52q1 21 9 42q27 65 76 143q16 24 26 37.5t30 28.5t40 18q3 0 25 2.5t33 3.5q29 1 35 -28q3 -22 0 -43q-3 -23 -9 -43q-5 -18 -24 -16q-4 1 -17 5q-8 4 -6 12q2 11 6 31q4 10 3 24t-15 6q-11 -8 -24 -29q-49 -81 -74 -139
q-27 -58 -27 -84q-1 -17 5 -24.5t23 -12.5q8 -2 18.5 -2.5t18.5 0t18 -0.5q72 -2 100 -21z" />
    <glyph glyph-name="t" unicode="t" horiz-adv-x="270" 
d="M480 680q1 -3 -1.5 -6.5t-5.5 -2.5q-82 -4 -148 -8t-85 -5l-111 -7q-10 -2 -16 -2q-8 -4 -8 -10q-2 -13 -13 -201q-10 -156 -10 -327q0 -81 6 -117q0 -2 2.5 -2.5t3.5 1.5q4 12 33.5 64t30.5 55q14 31 32.5 65t43.5 78t36 63q7 13 10 16q3 4 8 5q5 -1 6 0.5t4 -0.5l3 -2
l3 -3l5 -5q-9 -16 -25 -45t-29 -53t-24 -46q-21 -41 -134 -294q-7 -16 -22.5 -22t-30.5 3q-18 13 -24 22t-10 31q-9 70 -10 122q0 34 -2 102q-3 128 11 489q0 11 -9 11q-12 0 -32 -1.5t-24 -1.5q-26 -1 -135 -7t-173 -7q-23 -1 -42 9q-4 2 -6.5 5.5t-4.5 9.5t-3 8q-4 8 5 10
q46 4 62 5l232 11l121 8q8 2 11 8l14 170q1 4 2 11.5t1 11.5q37 33 75 2q12 -9 12 -23q-3 -27 -6.5 -88.5t-4.5 -77.5q-1 -9 1.5 -10.5t13.5 -1.5q44 0 92 4q40 2 115 3.5t107 2.5q22 1 38 -12q7 -8 9 -18z" />
    <glyph glyph-name="u" unicode="u" horiz-adv-x="399" 
d="M339 152q-44 -58 -90 -43q-8 3 -15 7t-11.5 7.5t-9.5 10.5t-6.5 9.5t-5.5 10t-5 8.5t-3.5 0.5t-3.5 -2.5q0 -1 -1.5 -4.5t-3.5 -8t-3 -9.5q-2 -5 -7 -19t-7 -19.5t-7 -15.5t-10 -18t-12 -16q-29 -31 -73 -19.5t-61 47.5q-9 18 -14.5 39.5t-6.5 43t-0.5 40.5t3.5 39.5
t5 33t5.5 27t3.5 16.5q4 22 33 26.5t40 -12.5q10 -14 5 -44q-25 -115 -2 -175q7 -18 17 -22t19.5 4.5t18 21t14.5 26.5q22 51 23 90q3 48 17 81q14 19 43 19q31 -6 26 -35q-9 -54 -9 -73q-1 -22 10.5 -51t33.5 -19q7 4 25 28.5t42 62.5l25 38q6 7 11 19.5t7 15.5q5 7 13 7.5
t13 -6.5q4 -7 2 -24q-2 -14 -36.5 -67.5t-51.5 -75.5z" />
    <glyph glyph-name="v" unicode="v" horiz-adv-x="400" 
d="M85 417q0 -9 -2.5 -70t-1.5 -72q11 -132 23 -179q1 -3 3 -11q2 -2 5 -2.5t5 1.5q1 1 7 10q37 66 61 124q7 16 24 59t28 65q6 14 18 17q35 11 44 0q6 -8 8 -12q12 -25 35.5 -40.5t43.5 -3.5q3 2 7.5 7.5t6.5 7.5q2 1 6 1q11 -1 14.5 -7.5t1 -14t-7.5 -12.5
q-36 -39 -80 -25q-28 8 -45 30q-4 5 -14 2q-6 -2 -8 -11q-12 -37 -71 -175q-26 -65 -52 -94q-12 -15 -30.5 -19t-34.5 4q-37 17 -45 39q-8 16 -12 33q-46 177 -25 350q3 24 22 26q31 2 45 -3q21 -7 21 -25z" />
    <glyph glyph-name="w" unicode="w" horiz-adv-x="386" 
d="M-39 67q-11 21 -5 59q4 15 9 45.5t6 33.5q14 68 40 163l12 32q28 -4 31 -5q21 -13 20 -29q-4 -58 -18 -117q-3 -13 -7.5 -38.5t-7.5 -38.5q-8 -36 -9 -54q-4 -11 0 -23q3 -3 5 -2q8 7 14 21q4 13 16 41t17 44q2 8 17 37q0 2 4 3.5l8 3t6 2.5q11 4 18.5 4t11 -10.5
t5.5 -18.5t1.5 -21.5t-0.5 -19t-1 -10.5q-2 -49 17 -92q6 -13 18 -22t21 0q19 28 28 67t2.5 83.5t-32.5 78.5q-3 3 0 11t6 10q3 1 18 1q15 -2 21 -5q34 -14 82 -4q20 4 40 14q4 2 7 5l4 2q9 0 11.5 -15t-4.5 -20q-9 -7 -30.5 -16t-33.5 -10q-44 -4 -60 1q-1 0 -7 2
q17 -45 15 -97q0 -34 -16 -82q-5 -18 -14 -34q-17 -26 -39.5 -37.5t-50.5 1.5q-8 5 -15 12t-11.5 12.5t-9 16t-6.5 16t-6.5 18t-5.5 16.5q-2 6 -6 7q-4 -1 -6 -7q-3 -7 -10.5 -20.5t-9.5 -18.5q-5 -11 -20 -23q-13 -8 -28 -5q-51 9 -62 32z" />
    <glyph glyph-name="x" unicode="x" horiz-adv-x="284" 
d="M-25 -103q-16 4 -13 19q22 96 88 223q2 3 4 9t4 9q6 13 1 25q-9 20 -27.5 63t-29.5 65q-3 6 -17.5 28.5t-17.5 34.5q-2 7 0 11.5t9.5 7.5l10 4t11.5 3q33 8 49 -11q8 -9 15 -25q7 -14 20 -42t20 -42q4 -8 7 -12q7 -12 13 -2l30 54l6 12t8 14t13 1.5t12 -7.5q7 -17 0 -31
q-23 -48 -45 -89q-6 -11 0 -29q70 -186 92 -312q1 -9 -4.5 -18t-14.5 -11q-24 -6 -57 27q-3 4 -5.5 11t-4 16t-2.5 12q-27 110 -56 176q-4 10 -8 18q-5 7 -14 -3q-5 -6 -13 -20q-48 -95 -65 -177q-4 -14 -19 -12z" />
    <glyph glyph-name="y" unicode="y" horiz-adv-x="383" 
d="M124 154q9 6 9 18q8 86 9 91q1 6 3 41q-2 -5 -6 -19t-6.5 -21.5t-7 -19t-9.5 -20.5t-12 -16q-15 -19 -37 -30q-33 -15 -69 25v1q-23 29 -2 111q2 8 8 26q7 17 27 17h2q6 0 11.5 -5t5.5 -11l-2 -6q-1 -7 -2.5 -15t-1.5 -11q-5 -47 -3 -59q7 -16 17 -10t20 20q5 7 23 41
q7 14 16.5 38.5t14.5 35.5q14 28 24 39q7 10 19 10q13 0 18 -9q9 -21 10 -37q4 -55 -1 -143q0 -3 -1 -10t-1 -11.5t1 -9.5q3 -9 21 2q101 63 168 9q17 -12 18 -34q0 -22 -15 -25.5t-28 13.5q-2 3 -5 8t-4.5 8t-5 6.5t-7.5 5.5q-43 22 -130 -39q-14 -9 -14 -16t-2.5 -23.5
t-2.5 -20.5q-1 -10 -4.5 -51t-6.5 -62q-74 -474 -329 -611q-20 -11 -30 -15.5t-29.5 -12.5t-33.5 -10.5t-32 -2t-35 6.5q-1 1 -10.5 4.5t-12 4.5t-11 4.5t-12 6t-10.5 7t-10.5 8t-8 9t-7.5 11.5q-4 8 -6 17.5t-3.5 18t-0.5 21t1.5 19.5t3 21.5t3 19t4 20.5t3.5 17
q18 83 60.5 162t104 148t122 123t136.5 111q58 44 84 60zM126 84q0 3 1 11.5t1 11.5q-91 -58 -169 -124t-147 -146t-113.5 -173.5t-56.5 -190.5q-6 -47 21.5 -71.5t75.5 -18.5q94 12 180 109q100 113 152 288q35 120 55 304z" />
    <glyph glyph-name="z" unicode="z" horiz-adv-x="283" 
d="M130 312q15 27 10 44q-1 6 -10 6.5t-20 -3t-19 -7t-13 -5.5q-30 -15 -56 -46q-3 -3 -10 -5q-1 0 -7.5 4t-7.5 4q-8 6 11 25q63 55 113 68q39 10 74 -17q23 -18 24 -48q0 -51 -21 -86q-33 -57 -80 -124q-15 -21 -43 -63q-13 -19 3 -18q5 1 13 2t13 1q39 2 78 9q23 3 39 -6
q7 -4 8 -11q0 -10 -8 -15q-10 -5 -22 -7q-18 -3 -142 -29q-31 -5 -61 15q-11 7 -19 25q-7 19 -7.5 23.5t7.5 23.5q17 37 73 115q31 43 80 125z" />
    <glyph glyph-name="braceleft" unicode="{" horiz-adv-x="425" 
d="M134 76q1 19 7 77t5 100t-12 76q-14 46 -52 59q-5 2 -34.5 7t-40.5 16q-8 6 -5 13q1 6 10 10q5 2 33 12.5t41 19.5q42 31 44 114q2 45 -5 117t-10 116.5t8 116.5q12 55 44 95.5t83 50.5q37 8 66 -9q5 -3 8 -8t0 -10q-4 -5 -19 -1q-24 4 -44 -14.5t-32.5 -51.5t-19 -57.5
t-10.5 -49.5q-8 -62 -5.5 -98.5t9.5 -99.5t7 -100q0 -53 -15 -87q-14 -35 -45.5 -55t-68.5 -16q6 -6 13.5 -10t21.5 -7.5t17 -4.5q31 -11 52.5 -38.5t30.5 -62.5q12 -45 6 -137q-7 -101 -4 -186v-42.5t1 -54t6.5 -42t16.5 -43.5q18 -31 48 -29q5 1 15 3.5t14 2.5
q21 1 21 -14.5t-18 -21.5q-35 -11 -72.5 -2t-62.5 35q-15 16 -26 34.5t-17 44.5t-10 43.5t-4 51v46t2 50t2 41.5z" />
    <glyph glyph-name="bar" unicode="|" horiz-adv-x="249" 
d="M100 1023v-1274q0 -25 -24 -27q-12 0 -20 9.5t-9 21.5l-1 1277q2 23 25 25q27 0 29 -32z" />
    <glyph glyph-name="braceright" unicode="}" horiz-adv-x="435" 
d="M208 68q0 -4 2 -41.5t2 -50v-46t-4 -51t-10 -43.5t-17 -44.5t-26 -34.5q-25 -26 -62.5 -35t-72.5 2q-11 4 -16 13t0 16t18 7q5 0 15 -3t15 -3q30 -2 48 29q11 17 16.5 43.5t6.5 42t1 54v42.5q3 85 -4 186q-6 92 5 137q22 79 84 101q4 1 13.5 3.5t15 4.5t12 5.5t10.5 8.5
q-36 -4 -67.5 16t-45.5 55q-15 34 -15 87q0 37 7 100t9.5 99.5t-5.5 98.5q-4 25 -10.5 49.5t-19 57.5t-32.5 51.5t-44 14.5q-15 -4 -19 1q-3 5 0 10t8 8q29 17 66 9q51 -10 83 -50.5t44 -95.5q11 -72 8 -116.5t-10 -116.5t-5 -117q2 -83 44 -114q13 -9 41 -19.5t33 -12.5
q9 -4 10 -10q1 -7 -5 -13q-11 -11 -40.5 -16t-34.5 -7q-37 -13 -53 -59q-11 -34 -11.5 -75t5.5 -101.5t7 -76.5z" />
    <glyph glyph-name="asciitilde" unicode="~" horiz-adv-x="337" 
d="M78 906q-7 -4 -3 -14q1 -2 3.5 -8t2.5 -10q1 -6 -4 -11t-12 -7q-15 -2 -23 10q-7 9 -7 26q-2 36 24 47q25 10 54 2q22 -6 57 -33q9 -9 16 -4q7 4 0 16q-9 12 -9 15q-1 5 2.5 10t8.5 6q11 3 21 -7q15 -14 15.5 -36t-15.5 -35q-19 -16 -49 -13q-25 4 -46 25l-6 6l-7 7
t-7 5.5t-8 3.5h-6q-1 0 -2 -1z" />
    <glyph glyph-name="nbspace" unicode="&#xa0;" horiz-adv-x="117" 
 />
    <glyph glyph-name="exclamdown" unicode="&#xa1;" horiz-adv-x="325" 
d="M131 638q14 -12 14 -28v-152.5t0.5 -153t2.5 -152.5t6 -152q0 -4 1 -12.5t1 -13t-1 -11t-5.5 -10t-11.5 -6.5q-21 -7 -41 11q-10 9 -10 24q-3 213 -13 639q-1 27 20.5 30.5t36.5 -13.5zM98 726q-21 11 -27.5 33t11.5 43q20 22 50 -4t19 -55q-5 -15 -20.5 -20.5t-32.5 3.5
z" />
    <glyph glyph-name="cent" unicode="&#xa2;" horiz-adv-x="274" 
d="M246 312q-22 8 -34 12q-9 -101 -10 -174q4 0 11 2t12 2.5t10.5 0t9.5 -4.5t7 -11q6 -18 -11 -29q-4 -2 -19 -4.5t-20 -8.5q-3 -4 -4 -13.5t0 -24.5t1 -16v-7.5t-0.5 -10.5t-1 -11t-2 -11.5t-3 -9.5t-4.5 -8t-7 -4.5t-9.5 0t-11.5 5.5q-11 8 -13.5 28t1 50t3.5 34
q-67 1 -106.5 51t-34.5 117q2 36 20.5 64.5t50.5 41.5q11 4 35.5 6t35.5 6q6 2 7.5 3t2.5 4t1 7v6q0 4 0.5 17.5t1 24.5t3 23.5t8.5 20t16 7.5q30 0 24 -58q0 -5 -2.5 -23.5t-0.5 -27.5q1 -8 1 -10q-1 -1 2 -3l4 -4q4 -3 14.5 -7.5t13.5 -6.5q22 -12 20 -29q-4 -20 -22 -16z
M112 182q6 -9 31 -26q10 -7 10 -3q1 29 4.5 88t5.5 90q-57 -12 -64 -81q-4 -44 13 -68z" />
    <glyph glyph-name="sterling" unicode="&#xa3;" horiz-adv-x="389" 
d="M40 35q46 75 58 162q-22 -4 -44.5 6t-5.5 33q7 10 25.5 8.5t28.5 1.5q3 1 4.5 2t2 2.5t1 2.5t1 4.5t0.5 5.5q2 22 5.5 75.5t8.5 93t14 74.5q10 44 38 61q25 14 49 3.5t35 -36.5q5 -12 7.5 -31.5t-3.5 -36.5t-24 -14q-19 4 -19.5 34.5t-6.5 37.5q-8 -3 -13 -14.5t-6.5 -29
t-2.5 -32.5t-1 -33v-21q0 -2 -3 -145q13 1 21 1.5t23 -1t21.5 -9.5t2.5 -22q-2 -7 -7.5 -10.5t-9.5 -4.5t-14.5 -1h-11.5q-32 0 -36 -4q-2 -2 -10 -35q-5 -16 -11 -34.5t-13.5 -41.5t-11.5 -35q15 1 52.5 0.5t62.5 3.5t49 17q29 15 38 -6q9 -22 -14 -41l-6 -4
q-21 -13 -46 -16.5t-64 -2.5t-49 1q-23 -1 -69 -11q-25 -5 -42.5 6.5t-3.5 35.5z" />
    <glyph glyph-name="currency" unicode="&#xa4;" horiz-adv-x="479" 
d="M294 23q-14 0 -26.5 7t-26.5 18t-22 16q-7 4 -15 4.5t-20 -0.5t-17 -1q-24 2 -31 1q-6 -2 -28 -19q-41 -37 -68 -24q-21 10 -22.5 29.5t15.5 32.5q4 4 12 10t11 9q24 16 25 18q0 1 -2 5.5t-5 10t-3 6.5q-1 3 -2.5 8.5t-1.5 7.5q-2 13 0 40q0 3 3.5 15t3.5 17t-2 15
q-2 5 -13 12.5t-13 9.5q-11 13 -16 23q-20 37 3 56q12 14 33.5 9.5t37.5 -15t37.5 -23t33.5 -14.5q26 -4 58 25t55 27q20 -2 36 -13.5t15 -30.5q0 -12 -8.5 -23t-21.5 -22t-18 -18q-4 -4 -6 -8.5t-3.5 -10t-1.5 -8.5t-0.5 -11t-0.5 -11l-6 -39q-4 -17 -2.5 -26t15.5 -17
q42 -26 41 -59q-1 -15 -9.5 -26.5t-23.5 -12.5zM218 220q0 25 -1 26h-22q-7 1 -23 3q-11 2 -18.5 1t-12.5 -10q-11 -16 -11 -54q0 -41 13 -51q17 -13 44 -1q34 13 31 86z" />
    <glyph glyph-name="yen" unicode="&#xa5;" horiz-adv-x="315" 
d="M231 265l-18 -30q4 0 20 0.5t25 0t18.5 -6t10.5 -17.5q1 -11 -4 -17.5t-17 -8.5t-19.5 -2.5t-24.5 0.5l-16 2q2 -96 2 -145q0 -37 -5 -46q-14 -21 -39 -12.5t-28 31.5v41v71q0 3 0.5 12t0.5 16t-0.5 14.5t-2.5 13t-5 6.5q-7 5 -31 2t-32 -1q-23 5 -25 25.5t22 25.5
q3 2 29 0.5t30 -1.5q-23 52 -57 142q-4 11 -6 19t-3.5 20.5t1 20t11 11.5t23.5 1q11 -2 19.5 -10.5t12.5 -15.5t10 -22.5t8 -18.5q22 -49 43 -106q19 35 61 103q2 4 10 18.5t14 24.5t15.5 19t17.5 9q48 3 -2 -75q-1 -3 -2 -4q-43 -65 -67 -110z" />
    <glyph glyph-name="brokenbar" unicode="&#xa6;" horiz-adv-x="220" 
d="M50 485q-11 4 -11 41q-2 57 -3.5 256t-0.5 234q0 37 4 42q7 9 20.5 7.5t19.5 -11.5q4 -7 4 -27q-4 -283 6 -504q0 -24 -5 -33q-3 -4 -11 -7q-13 -5 -23 2zM50 -104q-9 236 -7 487q1 22 27 27q22 -3 23 -19q1 -4 3.5 -239.5t2.5 -248.5q1 -26 -20 -32q-20 -6 -27 13
q-2 6 -2 12z" />
    <glyph glyph-name="section" unicode="&#xa7;" horiz-adv-x="410" 
d="M251 249q0 -36 -31 -73q-11 -14 -11 -16q0 -5 3 -14t3 -13q1 -19 -3 -39q-11 -48 -51.5 -84t-85.5 -21q-10 3 -18 8t-14 14.5t4 19.5q8 10 24 3q21 -9 29 -8q19 1 35.5 14.5t23.5 32.5q15 40 -17 82q-8 10 -55 54.5t-60 77.5q-19 45 -6 87l5 10t5 11q-1 5 -3 7
q-2 4 -10 14t-10 19q-11 39 14.5 79.5t65.5 53.5q16 5 33.5 -2t10.5 -26q-2 -6 -7.5 -8t-13.5 -3t-12 -2q-16 -7 -26 -19q-36 -43 -1 -72q9 -8 76 -52q102 -64 103 -135zM184 197q23 21 19.5 44.5t-20 43.5t-41.5 35q-8 5 -24.5 16t-29.5 19t-26 13q-8 -20 4 -47.5t30 -44.5
q10 -10 41.5 -35.5t46.5 -43.5z" />
    <glyph glyph-name="dieresis" unicode="&#xa8;" horiz-adv-x="297" 
d="M75 955q12 2 19.5 -5t7.5 -20q0 -32 -25 -50q-11 -7 -21 -6q-16 1 -26.5 14.5t-3.5 28.5q16 31 49 38zM195 930q1 -10 -7 -26t-19 -24q-11 -7 -20 -6q-16 1 -27 14.5t-4 28.5q18 32 49 38q25 3 28 -25z" />
    <glyph glyph-name="copyright" unicode="&#xa9;" horiz-adv-x="601" 
d="M481 428q7 -39 -15 -78q-10 -19 -26 -31t-34 -9q-25 3 -27 2q-9 -2 -17 -17q-7 -12 -24 -47.5t-29 -53.5q-19 -25 -45.5 -39t-52.5 -8q-27 6 -44.5 32t-19.5 58q-3 59 43 132q23 39 44 56q33 26 67 20q18 -2 32 -15.5t15 -30.5q1 -7 -2.5 -12.5t-9.5 -4.5q-3 0 -8.5 6.5
t-9.5 7.5q-6 0 -10 -6q-70 -77 -89 -180q-3 -15 6 -15q3 -1 9 3q59 51 101 116q12 21 25 24q3 2 16 0t16 -2q21 2 35 22q30 40 13 91q-14 42 -55 76q-35 27 -61 28q-40 3 -80 -36q-51 -47 -102 -148q-49 -97 -55 -163q-5 -47 12 -84q16 -32 49 -50.5t68 -14.5q42 5 75.5 35
t68.5 80q14 20 25 25q21 11 33 -6q5 -9 -1 -28q-15 -46 -50.5 -81.5t-81.5 -51.5q-98 -33 -187 22q-54 34 -76 88q-29 75 13 192q14 38 31 73.5t44 75.5t57 67t70 40t82 2q52 -13 120 -89q28 -32 35 -49q5 -9 7 -24z" />
    <glyph glyph-name="guillemotleft" unicode="&#xab;" horiz-adv-x="406" 
d="M140 98q1 -1 20 -19.5t26.5 -31t5.5 -25.5q-3 -21 -28 -21q-5 0 -9 1.5t-8 4.5t-6 5.5t-6.5 7t-5.5 6.5q-9 9 -29.5 28.5t-32 31.5t-27 29.5t-27.5 33.5q-28 39 26 92q14 13 28 29t32.5 39t25.5 31q2 2 6 7t6.5 8t7 7.5t8 7t8 4t9.5 1.5q12 1 20.5 -7.5t9.5 -20.5
q0 -12 -6 -23t-22 -28l-17 -18q-15 -18 -43 -54q-2 -2 -18 -19.5t-21 -27.5q-2 -5 1 -12q1 -2 8 -9l16 -16l12 -12zM278 98q1 -1 20 -19.5t26.5 -31t5.5 -25.5q-3 -21 -28 -21q-5 0 -9 1.5t-8 4.5t-6 5.5t-6.5 7t-5.5 6.5q-9 9 -29.5 28.5t-32 31.5t-27 29.5t-27.5 33.5
q-14 15 -10 34t12 30.5t24 27.5q14 13 28 29t32.5 39t25.5 31q2 2 6 7t6.5 8t7 7.5t8 7t8 4t9.5 1.5q12 1 20.5 -7.5t9.5 -20.5q0 -12 -6 -23t-22 -28l-17 -18q-15 -18 -43 -54q-2 -2 -18 -19.5t-21 -27.5q-2 -5 1 -12q1 -2 8 -9l16 -16l12 -12z" />
    <glyph glyph-name="logicalnot" unicode="&#xac;" horiz-adv-x="357" 
d="M303 818q-2 19 -2 40.5t1 48.5t1 41q-25 -1 -75 -1.5t-75 -0.5q-13 0 -19 0.5t-11.5 7.5t-3.5 21q1 4 3 7t5.5 4.5t6 2.5t7 1.5t6.5 0.5h7h7q100 2 153 2q13 0 20.5 -6t10 -18t2.5 -21.5t-1 -24.5t-1 -20v-77q0 -18 -2 -21q-9 -13 -23 -7.5t-17 20.5z" />
    <glyph glyph-name="sfthyphen" unicode="&#xad;" horiz-adv-x="618" 
d="M121 208q-19 1 -46.5 12.5t-22.5 27.5q2 6 12 9t20.5 2.5t24 -1.5t15.5 -1q26 1 78 1q95 2 114 4q10 1 33 3.5t33 2.5t33 -1q28 -3 54 -19q9 -7 10 -12q3 -10 -9 -18q-9 -4 -21 -4q-227 -13 -328 -6z" />
    <glyph glyph-name="registered" unicode="&#xae;" horiz-adv-x="600" 
d="M451 409q13 -50 -7.5 -117t-68.5 -79q-19 -4 -39 2q-36 9 -62 37q-22 22 -6 48q20 32 17 51q-2 14 -16 22t-24 0q-13 -9 -11 -38q5 -59 13 -177q2 -41 -16 -50q-14 -6 -30 3q-30 18 -34 88q-1 38 -3.5 115t-3.5 117q-39 -18 -62 -94q-29 -107 -13 -180q13 -55 54 -98.5
t93 -35.5q31 4 60 30q12 11 32 39.5t34 40.5q12 10 29 13.5t28.5 -4t4.5 -28.5q-14 -40 -69 -87q-40 -35 -88 -44q-75 -13 -138 34q-50 37 -79 73.5t-39 88.5q-14 75 15 181q21 75 81 126t136 50q51 0 113 -23q79 -27 99 -104zM426 370q-3 46 -19 73q-17 29 -49.5 42.5
t-66 11.5t-65.5 -14q-10 -3 -37 -25q-14 -12 -9 -13q3 -1 21 -3.5t26 -11.5q1 -1 7.5 -12t14.5 -12q21 -2 30.5 -3.5t23.5 -8.5t23 -19q31 -38 6 -79q-9 -14 -14 -27q-5 -8 3 -15q49 -35 86 26q21 37 19 90z" />
    <glyph glyph-name="degree" unicode="&#xb0;" horiz-adv-x="270" 
d="M120 876q-48 -16 -75 26q-24 36 -7 71q15 30 54 33q62 4 71 -46q6 -28 -5.5 -52t-37.5 -32zM108 968q-18 4 -29 -9.5t-8.5 -30.5t16.5 -21t26.5 5.5t12.5 28.5q0 22 -18 27z" />
    <glyph glyph-name="plusminus" unicode="&#xb1;" horiz-adv-x="380" 
d="M245 300q-6 -4 -6 -8q0 -18 0.5 -45t1 -53t1 -49.5t1 -38.5t0.5 -16q-2 -11 -13 -13q-20 -4 -45 26q-1 1 -4 9q0 3 -1 86.5t-1 86.5q-1 10 -11 10q-22 0 -118 -12q-33 0 -26 23q3 8 106 15q33 4 38.5 9t5.5 32q0 68 3 91q1 7 1.5 25t2.5 27q4 11 24.5 10t27.5 -8
q4 -6 5 -9q0 -2 -1.5 -33.5t-2.5 -64t2 -59.5q0 -9 10 -9l25 4q25 3 59 7t54 5q15 1 28 -14q7 -12 -6 -13q-15 -1 -36.5 -3t-42.5 -5t-39.5 -6t-30.5 -5zM100 -7q-16 1 -38 13t-18 29q1 6 9.5 9t16.5 2.5t19.5 -1.5t13.5 -1q215 10 250 4q21 -3 34 -13q4 -5 6 -14.5
t-5 -17.5q-8 -4 -17 -4q-193 -13 -271 -6z" />
    <glyph glyph-name="acute" unicode="&#xb4;" horiz-adv-x="269" 
d="M145 957q7 -8 9 -21t-4 -22q-48 -61 -104 -89q-2 -2 -8 -4q-11 -2 -14.5 11t2.5 20q8 8 18 15q16 10 29 23t31.5 37t22.5 29q8 13 18 1z" />
    <glyph glyph-name="paragraph" unicode="&#xb6;" horiz-adv-x="317" 
d="M243 309q8 0 11.5 -7.5t0 -14.5t-12.5 -7h-17v-204q0 -6 -4.5 -10t-10.5 -4q-13 0 -13 14v206q-1 1 -17 0.5t-17 -0.5q-15 0 -23 -1v-111l-1 -97q-8 -21 -26.5 -16t-20.5 26q-1 28 -1 68h-14q-44 0 -63 28q-17 37 -6 65q9 21 31 37.5t50 23.5q26 6 72 6q5 0 13 -0.5
t26.5 -1t42.5 -0.5zM93 278q-1 3 -13 -3t-21 -12q-20 -13 -25 -28q-5 -10 -1 -28t16 -23q18 -6 40 -4q2 1 2 2q0 7 0.5 20.5t0.5 20.5q0 29 1 55z" />
    <glyph glyph-name="periodcentered" unicode="&#xb7;" horiz-adv-x="194" 
d="M59 323q-16 1 -27 15t-4 28q19 37 42 38q19 1 27.5 -8t7.5 -23t-5 -22.5t-7 -11t-14 -10.5q-8 -6 -20 -6z" />
    <glyph glyph-name="cedilla" unicode="&#xb8;" horiz-adv-x="255" 
d="M91 -126q11 8 13.5 26t-6 33t-24.5 13q-3 0 -10.5 -4t-11 -4.5t-10.5 3.5q-6 6 1 33q2 5 4 16.5t4 16t8 9.5t16 5q22 2 24.5 -8t-4 -21.5t2.5 -19.5h7q7 0 17 -1.5t17 -5.5q21 -13 26 -33t-0.5 -44.5t-19.5 -39.5q-17 -18 -47.5 -19.5t-49.5 14.5q-22 22 -1 30
q6 2 22.5 -1t21.5 2z" />
    <glyph glyph-name="guillemotright" unicode="&#xbb;" horiz-adv-x="418" 
d="M213 79q2 2 20 19.5t32 31.5t15 16q3 6 0 12q-4 10 -21 27.5t-18 19.5q-28 36 -43 54q-3 3 -13 14t-15.5 18t-10.5 17.5t-5 19.5q0 12 9 20.5t20 7.5q7 0 14.5 -4t11 -7.5t11 -13t8.5 -10.5q10 -11 27 -32t31.5 -37.5t28.5 -29.5q53 -53 25 -92q-14 -20 -32.5 -40
t-46 -47t-36.5 -36q-2 -2 -7.5 -8t-8.5 -8.5t-8.5 -5.5t-11.5 -3q-23 0 -28 21q-1 10 4.5 21.5t13 19.5t19 19.5zM75 79q2 2 20 19.5t32 31.5t15 16q3 6 0 12q-4 10 -21 27.5t-18 19.5q-28 36 -43 54q-3 3 -13 14t-15.5 18t-10.5 17.5t-5 19.5q0 12 9 20.5t20 7.5
q7 0 14.5 -4t11 -7.5t11 -13t8.5 -10.5q10 -11 27 -32t31.5 -37.5t28.5 -29.5q53 -53 25 -92q-14 -20 -32.5 -40t-46 -47t-36.5 -36q-2 -2 -7.5 -8t-8.5 -8.5t-8.5 -5.5t-11.5 -3q-23 0 -28 21q-2 13 5.5 25.5t27.5 31.5z" />
    <glyph glyph-name="onequarter" unicode="&#xbc;" horiz-adv-x="386" 
d="M196 207q12 13 24 11.5t19.5 -16t1.5 -28.5q16 1 23.5 -8.5t8.5 -26.5q0 -64 2 -95q4 -14 1 -27.5t-20 -15.5q-27 -3 -35 32q-1 4 -0.5 22.5t-2.5 21.5q-2 4 -8 5.5t-14 1.5t-12 1q-48 11 -15 65q4 8 12.5 28t14.5 29zM56 337q-11 -2 -19 8t-6 21q5 21 26 47
q19 21 39 7.5t20 -39.5q-1 -14 -1 -85q0 -3 0.5 -11t0 -13t-1 -12t-3 -12t-6.5 -8q-15 -12 -33 -1q-15 10 -17 40q-1 11 0 31.5t1 26.5zM102 187q67 131 113 213q14 23 30 19q11 -3 15.5 -12.5t1.5 -20.5q-2 -8 -22 -44q-50 -95 -97 -188q-38 -74 -56 -112q0 -1 -4 -8
l-6 -10.5t-6.5 -10.5t-8 -9.5t-8.5 -4.5t-10 0t-10 8q-4 3 -6 7t-2 9v8.5t2.5 10t3.5 8.5t4 10l4 7q11 23 33 64.5t29 55.5z" />
    <glyph glyph-name="onehalf" unicode="&#xbd;" horiz-adv-x="440" 
d="M232 306q-18 -36 -52.5 -101.5t-44.5 -85.5q-11 -22 -33 -65.5t-33 -64.5q0 -1 -3.5 -9t-6 -12.5t-7 -13t-9 -12.5t-10 -7t-11 -1.5t-11.5 8.5q-7 7 -8.5 17t3 22.5t9.5 22.5t12.5 22.5t9.5 17.5q61 121 108 206q5 10 16 29.5t17 29.5q1 2 5.5 11.5t7 14.5t8 11t11.5 8
q22 6 27 -14t-5 -34zM32 280q-15 -3 -21 9.5t-2 25.5q12 37 33 49q11 7 23.5 3t19.5 -16q4 -6 5.5 -26t1 -39t-1 -41.5t-0.5 -25.5q0 -13 -1.5 -21t-8 -14.5t-19.5 -5.5q-12 1 -19 8.5t-9.5 21t-2.5 24.5t1 27t1 21zM208 156q17 -6 29 -23.5t14 -36.5q4 -35 -29 -72
q10 0 11.5 -0.5t4.5 6.5t6 10q12 12 27 3q21 -15 10 -39.5t-34 -26.5q-16 -2 -45.5 5t-43.5 6q-5 0 -16.5 -5t-19 -3.5t-13.5 13.5q-3 10 -3 16t7 12.5t12.5 10t15 8t13.5 7.5q44 29 43 58q-11 -15 -28 -9.5t-16 25.5t19 30.5t36 4.5z" />
    <glyph glyph-name="threequarters" unicode="&#xbe;" horiz-adv-x="390" 
d="M62 178q-21 -1 -39.5 13t-12.5 34q5 15 18 14.5t22 -12.5q11 0 15.5 12.5t1.5 23.5q-1 4 -2 6t-2.5 3t-2.5 1t-4 0.5t-6 1.5q-13 3 -21.5 13t-5.5 22q2 7 27 26q19 16 16 20q-2 2 -14 -5q-2 -1 -7.5 -5t-10 -5.5t-9.5 -1.5q-18 2 -20 21q-2 18 16.5 30.5t37.5 13.5
q25 0 45 -18t16 -43q-1 -5 -10 -24q-3 -4 -4 -6t-1 -4t1 -2.5t3 -3t4 -5.5q14 -20 14 -48q-1 -27 -20 -49t-45 -23zM253 389q10 -4 14.5 -10.5t1.5 -17.5t-5.5 -17t-10.5 -19l-8 -13q-15 -28 -31 -59.5t-35 -70t-30 -59.5q-9 -17 -52 -103q-1 -2 -4.5 -9.5t-6 -12
t-6.5 -11.5t-8 -10.5t-9 -6t-10.5 -1t-11.5 7.5q-3 3 -5 6.5t-2.5 7t-1 6.5t0.5 7.5t1.5 7t2.5 7.5t2.5 6.5t3.5 7t3 6.5q4 9 24 50t30 63q17 38 56 103.5t50 86.5q1 3 4.5 10.5t5.5 11.5t6.5 11.5t8 9.5t10 5t12.5 -1zM295 53q0 -3 3 -20.5t2 -28.5t-10 -17
q-12 -9 -27 -2.5t-18 21.5q-1 5 -1 15t-1 15q0 1 -0.5 13.5t-2.5 14.5t-15 2q-66 6 -41 53q21 39 22 41q2 3 7 16.5t10 18.5q17 16 33.5 -1t7.5 -37q16 1 23.5 -9t7.5 -26q-2 -46 0 -69z" />
    <glyph glyph-name="questiondown" unicode="&#xbf;" horiz-adv-x="498" 
d="M19 20q-46 176 108 390q15 21 103 122t117 166q15 33 17 55q0 4 2 12q5 16 21 16q27 1 43.5 -23.5t9.5 -50.5q-8 -32 -26.5 -66t-34 -54.5t-46 -58.5t-41.5 -52q-100 -129 -133 -186q-65 -109 -71 -208q-9 -133 57 -187q28 -24 67 -22t75 18.5t62 48t27 65.5q1 16 19 23
q16 4 17 -11q-4 -45 -12 -62q-28 -61 -90 -91q-43 -22 -91.5 -24.5t-93 18.5t-67.5 65q-27 53 -39 97zM385 891q-21 11 -27.5 33t11.5 43q20 22 50 -4t19 -55q-5 -15 -20.5 -20.5t-32.5 3.5z" />
    <glyph glyph-name="Agrave" unicode="&#xc0;" horiz-adv-x="560" 
d="M29 381q84 20 129 33q10 3 13 14q10 32 14 48q67 268 80 313q5 16 15 50q2 6 5 13q4 13 17 13q15 0 23 -1q5 0 15 -2q31 -10 22 -40q-4 -10 -10 -32t-9 -32q-4 -14 0 -29q7 -25 15 -73.5t12 -65.5q3 -14 10 -40t12 -44.5t5 -19.5q2 -6 9 -6q4 0 6 1q15 4 74 17t90 21
q19 5 48 -7h1q1 -1 2 -1q10 -7 7 -15q-2 -8 -10 -8q-31 -4 -82.5 -13.5t-89.5 -17.5t-40 -10q-7 -6 -6 -13q6 -29 17.5 -102.5t20.5 -112.5q12 -51 35.5 -146t33.5 -135q2 -10 1 -14q-2 -11 -14.5 -14t-21.5 4q-13 10 -17 40q-4 32 -10.5 64.5t-19 83t-15.5 63.5
q-46 200 -54 245q0 4 -2 12q-4 9 -12 7q-10 -2 -86 -24q-12 -4 -16 -16q-1 -7 -5 -20t-5 -19q-24 -92 -35.5 -141t-23.5 -127t-13 -144q0 -8 -2 -26q-5 -26 -32 -23q-8 1 -24 9q-26 17 -22 44q2 20 4.5 65.5t5.5 68.5q6 46 24 138q4 18 19 71t19 83q1 5 -2.5 8t-8.5 1
q-13 -4 -43 -13t-46 -15q-20 -7 -45 5l-8 8q-6 6 1 10q23 8 25 9zM265 452q0 -7 8 -7q38 8 68 15q9 4 9 16q0 1 -2 13q-5 28 -13.5 82t-13.5 83l-2 1q-5 -2 -5 -3q-1 -1 -1.5 -4t-0.5 -4q-12 -53 -16 -65q-10 -34 -29 -115q-1 -2 -1 -6t-1 -6zM282 1054q11 9 18 -1
q6 -8 18.5 -23.5t20 -24.5t19.5 -20.5t24 -19.5q16 -13 17 -15q7 -6 3 -19t-14 -11l-9 3q-54 28 -101 88q-6 8 -4.5 21.5t8.5 21.5z" />
    <glyph glyph-name="Aacute" unicode="&#xc1;" horiz-adv-x="560" 
d="M29 381q84 20 129 33q10 3 13 14q10 32 14 48q67 268 80 313q5 16 15 50q2 6 5 13q4 13 17 13q15 0 23 -1q5 0 15 -2q31 -10 22 -40q-4 -10 -10 -32t-9 -32q-4 -14 0 -29q7 -25 15 -73.5t12 -65.5q3 -14 10 -40t12 -44.5t5 -19.5q2 -6 9 -6q4 0 6 1q15 4 74 17t90 21
q19 5 48 -7h1q1 -1 2 -1q10 -7 7 -15q-2 -8 -10 -8q-31 -4 -82.5 -13.5t-89.5 -17.5t-40 -10q-7 -6 -6 -13q6 -29 17.5 -102.5t20.5 -112.5q12 -51 35.5 -146t33.5 -135q2 -10 1 -14q-2 -11 -14.5 -14t-21.5 4q-13 10 -17 40q-4 32 -10.5 64.5t-19 83t-15.5 63.5
q-46 200 -54 245q0 4 -2 12q-4 9 -12 7q-10 -2 -86 -24q-12 -4 -16 -16q-1 -7 -5 -20t-5 -19q-24 -92 -35.5 -141t-23.5 -127t-13 -144q0 -8 -2 -26q-5 -26 -32 -23q-8 1 -24 9q-26 17 -22 44q2 20 4.5 65.5t5.5 68.5q6 46 24 138q4 18 19 71t19 83q1 5 -2.5 8t-8.5 1
q-13 -4 -43 -13t-46 -15q-20 -7 -45 5l-8 8q-6 6 1 10q23 8 25 9zM265 452q0 -7 8 -7q38 8 68 15q9 4 9 16q0 1 -2 13q-5 28 -13.5 82t-13.5 83l-2 1q-5 -2 -5 -3q-1 -1 -1.5 -4t-0.5 -4q-12 -53 -16 -65q-10 -34 -29 -115q-1 -2 -1 -6t-1 -6zM386 1036q7 -8 9 -21t-4 -22
q-48 -61 -104 -89q-2 -2 -8 -4q-11 -2 -14.5 11t2.5 20q7 7 18 15q16 10 29 23t31.5 37t22.5 29q8 13 18 1z" />
    <glyph glyph-name="Acircumflex" unicode="&#xc2;" horiz-adv-x="560" 
d="M29 381q84 20 129 33q10 3 13 14q10 32 14 48q67 268 80 313q5 16 15 50q2 6 5 13q4 13 17 13q15 0 23 -1q5 0 15 -2q31 -10 22 -40q-4 -10 -10 -32t-9 -32q-4 -14 0 -29q7 -25 15 -73.5t12 -65.5q3 -14 10 -40t12 -44.5t5 -19.5q2 -6 9 -6q4 0 6 1q15 4 74 17t90 21
q19 5 48 -7h1q1 -1 2 -1q10 -7 7 -15q-2 -8 -10 -8q-31 -4 -82.5 -13.5t-89.5 -17.5t-40 -10q-7 -6 -6 -13q6 -29 17.5 -102.5t20.5 -112.5q12 -51 35.5 -146t33.5 -135q2 -10 1 -14q-2 -11 -14.5 -14t-21.5 4q-13 10 -17 40q-4 32 -10.5 64.5t-19 83t-15.5 63.5
q-46 200 -54 245q0 4 -2 12q-4 9 -12 7q-10 -2 -86 -24q-12 -4 -16 -16q-1 -7 -5 -20t-5 -19q-24 -92 -35.5 -141t-23.5 -127t-13 -144q0 -8 -2 -26q-5 -26 -32 -23q-8 1 -24 9q-26 17 -22 44q2 20 4.5 65.5t5.5 68.5q6 46 24 138q4 18 19 71t19 83q1 5 -2.5 8t-8.5 1
q-13 -4 -43 -13t-46 -15q-20 -7 -45 5l-8 8q-6 6 1 10q23 8 25 9zM265 452q0 -7 8 -7q38 8 68 15q9 4 9 16q0 1 -2 13q-5 28 -13.5 82t-13.5 83l-2 1q-5 -2 -5 -3q-1 -1 -1.5 -4t-0.5 -4q-12 -53 -16 -65q-10 -34 -29 -115q-1 -2 -1 -6t-1 -6zM241 955q6 6 24 20t24 21
q23 21 42 21q15 0 26 -10t22.5 -28.5t20.5 -27.5q0 -1 4.5 -6t5.5 -7q3 -8 -1 -13.5t-11 -5.5q-17 -1 -29 15q-24 32 -38 43q-3 0 -4 -1q-5 -5 -14.5 -14t-17.5 -16.5t-15 -13.5q-7 -7 -19 -7q-8 1 -17 7t-8 14q2 7 5 9z" />
    <glyph glyph-name="Atilde" unicode="&#xc3;" horiz-adv-x="560" 
d="M29 381q84 20 129 33q10 3 13 14q10 32 14 48q67 268 80 313q5 16 15 50q2 6 5 13q4 13 17 13q15 0 23 -1q5 0 15 -2q31 -10 22 -40q-4 -10 -10 -32t-9 -32q-4 -14 0 -29q7 -25 15 -73.5t12 -65.5q3 -14 10 -40t12 -44.5t5 -19.5q2 -6 9 -6q4 0 6 1q15 4 74 17t90 21
q19 5 48 -7h1q1 -1 2 -1q10 -7 7 -15q-2 -8 -10 -8q-31 -4 -82.5 -13.5t-89.5 -17.5t-40 -10q-7 -6 -6 -13q6 -29 17.5 -102.5t20.5 -112.5q12 -51 35.5 -146t33.5 -135q2 -10 1 -14q-2 -11 -14.5 -14t-21.5 4q-13 10 -17 40q-4 32 -10.5 64.5t-19 83t-15.5 63.5
q-46 200 -54 245q0 4 -2 12q-4 9 -12 7q-10 -2 -86 -24q-12 -4 -16 -16q-1 -7 -5 -20t-5 -19q-24 -92 -35.5 -141t-23.5 -127t-13 -144q0 -8 -2 -26q-5 -26 -32 -23q-8 1 -24 9q-26 17 -22 44q2 20 4.5 65.5t5.5 68.5q6 46 24 138q4 18 19 71t19 83q1 5 -2.5 8t-8.5 1
q-13 -4 -43 -13t-46 -15q-20 -7 -45 5l-8 8q-6 6 1 10q23 8 25 9zM265 452q0 -7 8 -7q38 8 68 15q9 4 9 16q0 1 -2 13q-5 28 -13.5 82t-13.5 83l-2 1q-5 -2 -5 -3q-1 -1 -1.5 -4t-0.5 -4q-12 -53 -16 -65q-10 -34 -29 -115q-1 -2 -1 -6t-1 -6zM277 986q-7 -4 -3 -14
q1 -2 3.5 -8t2.5 -10q1 -6 -4 -11t-12 -7q-15 -2 -23 10q-7 9 -7 26q-2 36 24 47q25 10 54 2q22 -6 57 -33q9 -9 16 -4q7 4 0 16q-9 12 -9 15q-1 5 2.5 10t8.5 6q11 3 21 -7q15 -14 15.5 -36t-15.5 -35q-19 -16 -49 -13q-25 4 -46 25l-6 6l-7 7t-7 5.5t-8 3.5h-6q-1 0 -2 -1
z" />
    <glyph glyph-name="Adieresis" unicode="&#xc4;" horiz-adv-x="560" 
d="M29 381q84 20 129 33q10 3 13 14q10 32 14 48q67 268 80 313q5 16 15 50q2 6 5 13q4 13 17 13q15 0 23 -1q5 0 15 -2q31 -10 22 -40q-4 -10 -10 -32t-9 -32q-4 -14 0 -29q7 -25 15 -73.5t12 -65.5q3 -14 10 -40t12 -44.5t5 -19.5q2 -6 9 -6q4 0 6 1q15 4 74 17t90 21
q19 5 48 -7h1q1 -1 2 -1q10 -7 7 -15q-2 -8 -10 -8q-31 -4 -82.5 -13.5t-89.5 -17.5t-40 -10q-7 -6 -6 -13q6 -29 17.5 -102.5t20.5 -112.5q12 -51 35.5 -146t33.5 -135q2 -10 1 -14q-2 -11 -14.5 -14t-21.5 4q-13 10 -17 40q-4 32 -10.5 64.5t-19 83t-15.5 63.5
q-46 200 -54 245q0 4 -2 12q-4 9 -12 7q-10 -2 -86 -24q-12 -4 -16 -16q-1 -7 -5 -20t-5 -19q-24 -92 -35.5 -141t-23.5 -127t-13 -144q0 -8 -2 -26q-5 -26 -32 -23q-8 1 -24 9q-26 17 -22 44q2 20 4.5 65.5t5.5 68.5q6 46 24 138q4 18 19 71t19 83q1 5 -2.5 8t-8.5 1
q-13 -4 -43 -13t-46 -15q-20 -7 -45 5l-8 8q-6 6 1 10q23 8 25 9zM265 452q0 -7 8 -7q38 8 68 15q9 4 9 16q0 1 -2 13q-5 28 -13.5 82t-13.5 83l-2 1q-5 -2 -5 -3q-1 -1 -1.5 -4t-0.5 -4q-12 -53 -16 -65q-10 -34 -29 -115q-1 -2 -1 -6t-1 -6zM301 1008q12 2 19.5 -5
t7.5 -20q0 -32 -25 -50q-11 -7 -21 -6q-16 1 -26.5 14.5t-3.5 28.5q16 31 49 38zM421 983q1 -10 -7 -26t-19 -24q-11 -7 -20 -6q-16 1 -27 14.5t-4 28.5q18 32 49 38q25 3 28 -25z" />
    <glyph glyph-name="Aring" unicode="&#xc5;" horiz-adv-x="560" 
d="M253 886q-13 34 9.5 67t60.5 35q74 5 86 -56q7 -33 -4.5 -60.5t-40.5 -39.5l-2 -10q-4 -10 -10 -32t-9 -32q-4 -14 0 -29q7 -25 15 -73.5t12 -65.5q3 -14 10 -40t12 -44.5t5 -19.5q2 -6 9 -6q4 0 6 1q15 4 74 17t90 21q19 5 48 -7h1q1 -1 2 -1q10 -7 7 -15q-2 -8 -10 -8
q-31 -4 -82.5 -13.5t-89.5 -17.5t-40 -10q-7 -6 -6 -13q6 -29 17.5 -102.5t20.5 -112.5q12 -51 35.5 -146t33.5 -135q2 -10 1 -14q-2 -11 -14.5 -14t-21.5 4q-13 10 -17 40q-4 32 -10.5 64.5t-19 83t-15.5 63.5q-46 200 -54 245q0 4 -2 12q-4 9 -12 7q-19 -3 -22 -4
q-12 -3 -33 -10t-31 -10q-12 -4 -16 -16l-10 -39q-24 -92 -35.5 -141t-23.5 -127t-13 -144q0 -8 -2 -26q-5 -26 -32 -23q-8 1 -24 9q-26 17 -22 44q2 20 4.5 65.5t5.5 68.5q6 46 24 138q4 18 19 71t19 83q1 5 -2.5 8t-8.5 1q-16 -5 -17 -6q-6 -4 -30 -10q-21 -5 -42 -12
q-20 -7 -45 5l-8 8q-6 6 1 10q23 8 25 9q57 13 65 15q3 0 64 18q10 3 13 14q10 32 14 48q67 268 80 313l15 50q0 1 2 7q-20 15 -29 40zM265 452q0 -7 8 -7q1 1 3 1h3l62 14q9 4 9 16q0 1 -2 13q-5 28 -13.5 82t-13.5 83l-2 1q-5 -2 -5 -3l-2 -8q-12 -53 -16 -65
q-10 -34 -29 -115zM301 903q-2 -10 2.5 -21t14.5 -13q15 -3 28.5 11.5t16.5 28.5q2 17 -6 27t-23 4q-29 -12 -33 -36v-1z" />
    <glyph glyph-name="AE" unicode="&#xc6;" horiz-adv-x="859" 
d="M369 277q-5 2 -8 12q3 5 5 5l18 4q-16 74 -22 112q0 4 -2 12q-4 9 -12 7q-13 -2 -26.5 -5.5t-31.5 -9.5t-28 -9q-12 -4 -16 -16l-10 -39q-24 -92 -35.5 -141t-23.5 -127t-13 -144q0 -8 -2 -26q-5 -26 -32 -23q-8 1 -24 9q-26 17 -22 44q2 20 4.5 65.5t5.5 68.5
q6 46 24 138q4 18 19 71t19 83q1 5 -2.5 8t-8.5 1q-16 -5 -17 -6q-6 -4 -30 -10q-21 -5 -42 -12q-20 -7 -45 5l-8 8q-6 6 1 10q23 8 25 9q57 13 65 15q3 0 64 18q10 3 13 14q10 32 14 48q67 268 80 313l15 50q2 6 5 13q4 13 17 13q15 0 23 -1q5 0 15 -2q31 -10 22 -40
q-4 -10 -10 -32t-9 -32q-4 -14 0 -29q7 -25 15 -73.5t12 -65.5q3 -14 10 -40t12 -44.5t5 -19.5q2 -6 9 -6q4 0 35 9q8 152 16 227q1 22 -19 22q-37 1 -65 29l-6 9q-1 2 1 5.5t4 3.5q7 0 21 0.5t21 0.5l34 2q7 0 11 9l6 18q15 6 46 8q40 2 58 -29q8 -13 25 -15l141 -15
q25 -4 36 -12q6 -5 11 -11q3 -5 1 -10q-2 -6 -7 -8q-12 -1 -59.5 1.5t-89 5.5t-42.5 3q-16 0 -18 -15q-5 -20 -6 -38q-13 -119 -17 -290q0 -6 0.5 -17.5t0.5 -17.5q2 -12 14 -10t18 4l177 48q25 6 46 -2q8 -3 13 -12q6 -12 -5 -16q-8 -2 -12 -2q-17 -3 -89.5 -26.5
t-102.5 -36.5l-51 -15q-12 -5 -14 -17q-1 -7 -1 -23q-2 -42 -1 -65q1 -47 -1.5 -156.5t0.5 -156.5q0 -6 4.5 -7.5t9.5 1.5q35 22 98 79.5t102 79.5q3 2 26 22q11 9 25 6q8 -3 17 -8q4 -1 4.5 -6t-1.5 -7q-39 -37 -103 -86q-24 -19 -90 -78.5t-76 -75.5q-19 -28 -53 -18
q-45 12 -57 55q-6 18 -7 26q-4 36 -4.5 73t1.5 93t2 73q-1 5 -8 32.5t-10 41.5l-25 104q-20 7 -22 8zM265 452q0 -7 8 -7q1 0 3.5 0.5t19.5 4.5t45 10q9 4 9 16q0 1 -2 13q-5 28 -13.5 82t-13.5 83l-2 1q-5 -2 -5 -3l-2 -8q-12 -53 -16 -65q-10 -34 -29 -115zM406 434
q8 -40 20 -122q8 6 8 19q2 28 2 42l3 79q-17 -5 -27 -5q-7 -6 -6 -13z" />
    <glyph glyph-name="Ccedilla" unicode="&#xc7;" horiz-adv-x="708" 
d="M213 -274q11 8 13.5 26t-6 33t-24.5 13q-3 0 -10.5 -4t-11 -4.5t-10.5 3.5q-5 5 4 50l-8 2q-62 18 -104.5 79t-51.5 133q-14 107 47 265q111 284 308 481q41 41 93.5 64.5t111.5 21t105 -38.5l11 -9q46 -41 50.5 -106.5t-38.5 -107.5q-4 -4 -7 -5q-7 -2 -13 3t-7 13t6 28
q16 43 5 91t-45 79q-14 12 -23 14q-10 2 -28 -4q-58 -20 -126 -87q-135 -131 -245 -346q-105 -209 -103 -363q2 -61 20 -97q24 -52 71 -65q50 -14 124 27q56 30 108.5 68t129.5 100.5t100 80.5q11 9 19 8q14 -4 10 -21q-2 -10 -14 -22q-118 -117 -256 -205
q-126 -81 -202 -85q-3 -9 4 -15h7q7 0 17 -1.5t17 -5.5q21 -13 26 -33t-0.5 -44.5t-19.5 -39.5q-17 -18 -47.5 -19.5t-49.5 14.5q-22 22 -1 30q6 2 22.5 -1t21.5 2z" />
    <glyph glyph-name="Egrave" unicode="&#xc8;" horiz-adv-x="499" 
d="M9 277q-5 2 -8 12q3 5 5 5l48 12q20 7 20 25q2 28 2 42q10 230 21 343q1 22 -19 22q-37 1 -65 29l-6 9q-1 2 1 5.5t4 3.5q7 0 21 0.5t21 0.5q6 1 17 1.5t17 0.5q7 0 11 9l6 18q15 6 46 8q40 2 58 -29q8 -13 25 -15l141 -15q25 -4 36 -12q6 -5 11 -11q3 -5 1 -10
q-2 -6 -7 -8q-12 -1 -59.5 1.5t-89 5.5t-42.5 3q-16 0 -18 -15q-5 -20 -6 -38q-13 -119 -17 -290q0 -6 0.5 -17.5t0.5 -17.5q2 -12 14 -10t18 4l177 48q25 6 46 -2q8 -3 13 -12q6 -12 -5 -16q-8 -2 -12 -2q-17 -3 -89.5 -26.5t-102.5 -36.5q-7 -3 -15.5 -5.5t-19 -5
t-16.5 -4.5q-12 -5 -14 -17q-1 -7 -1 -23q-2 -42 -1 -65q1 -47 -1.5 -156.5t0.5 -156.5q0 -6 4.5 -7.5t9.5 1.5q35 22 98 79.5t102 79.5q3 2 26 22q11 9 25 6q8 -3 17 -8q4 -1 4.5 -6t-1.5 -7q-39 -37 -103 -86q-24 -19 -90 -78.5t-76 -75.5q-19 -28 -53 -18q-45 12 -57 55
q-6 18 -7 26q-6 15 -3.5 134t2.5 134q0 20 -1 59t-2 59q0 5 -2 11q-2 8 -14 13t-27 9t-19 6zM114 989q11 9 18 -1q6 -8 18.5 -23.5t20 -24.5t19.5 -20.5t24 -19.5q16 -13 17 -15q7 -6 3 -19t-14 -11l-9 3q-54 28 -101 88q-6 8 -4.5 21.5t8.5 21.5z" />
    <glyph glyph-name="Eacute" unicode="&#xc9;" horiz-adv-x="499" 
d="M9 277q-5 2 -8 12q3 5 5 5l48 12q20 7 20 25q2 28 2 42q10 230 21 343q1 22 -19 22q-37 1 -65 29l-6 9q-1 2 1 5.5t4 3.5q7 0 21 0.5t21 0.5q6 1 17 1.5t17 0.5q7 0 11 9l6 18q15 6 46 8q40 2 58 -29q8 -13 25 -15l141 -15q25 -4 36 -12q6 -5 11 -11q3 -5 1 -10
q-2 -6 -7 -8q-12 -1 -59.5 1.5t-89 5.5t-42.5 3q-16 0 -18 -15q-5 -20 -6 -38q-13 -119 -17 -290q0 -6 0.5 -17.5t0.5 -17.5q2 -12 14 -10t18 4l177 48q25 6 46 -2q8 -3 13 -12q6 -12 -5 -16q-8 -2 -12 -2q-17 -3 -89.5 -26.5t-102.5 -36.5q-7 -3 -15.5 -5.5t-19 -5
t-16.5 -4.5q-12 -5 -14 -17q-1 -7 -1 -23q-2 -42 -1 -65q1 -47 -1.5 -156.5t0.5 -156.5q0 -6 4.5 -7.5t9.5 1.5q35 22 98 79.5t102 79.5q3 2 26 22q11 9 25 6q8 -3 17 -8q4 -1 4.5 -6t-1.5 -7q-39 -37 -103 -86q-24 -19 -90 -78.5t-76 -75.5q-19 -28 -53 -18q-45 12 -57 55
q-6 18 -7 26q-6 15 -3.5 134t2.5 134q0 20 -1 59t-2 59q0 5 -2 11q-2 8 -14 13t-27 9t-19 6zM350 956q7 -8 9 -21t-4 -22q-48 -61 -104 -89q-2 -2 -8 -4q-11 -2 -14.5 11t2.5 20q7 7 18 15q16 10 29 23t31.5 37t22.5 29q8 13 18 1z" />
    <glyph glyph-name="Ecircumflex" unicode="&#xca;" horiz-adv-x="499" 
d="M9 277q-5 2 -8 12q3 5 5 5l48 12q20 7 20 25q2 28 2 42q10 230 21 343q1 22 -19 22q-37 1 -65 29l-6 9q-1 2 1 5.5t4 3.5q7 0 21 0.5t21 0.5q6 1 17 1.5t17 0.5q7 0 11 9l6 18q15 6 46 8q40 2 58 -29q8 -13 25 -15l141 -15q25 -4 36 -12q6 -5 11 -11q3 -5 1 -10
q-2 -6 -7 -8q-12 -1 -59.5 1.5t-89 5.5t-42.5 3q-16 0 -18 -15q-5 -20 -6 -38q-13 -119 -17 -290q0 -6 0.5 -17.5t0.5 -17.5q2 -12 14 -10t18 4l177 48q25 6 46 -2q8 -3 13 -12q6 -12 -5 -16q-8 -2 -12 -2q-17 -3 -89.5 -26.5t-102.5 -36.5q-7 -3 -15.5 -5.5t-19 -5
t-16.5 -4.5q-12 -5 -14 -17q-1 -7 -1 -23q-2 -42 -1 -65q1 -47 -1.5 -156.5t0.5 -156.5q0 -6 4.5 -7.5t9.5 1.5q35 22 98 79.5t102 79.5q3 2 26 22q11 9 25 6q8 -3 17 -8q4 -1 4.5 -6t-1.5 -7q-39 -37 -103 -86q-24 -19 -90 -78.5t-76 -75.5q-19 -28 -53 -18q-45 12 -57 55
q-6 18 -7 26q-6 15 -3.5 134t2.5 134q0 20 -1 59t-2 59q0 5 -2 11q-2 8 -14 13t-27 9t-19 6zM70 929q6 6 24 20t24 21q23 21 42 21q15 0 26 -10t22.5 -28.5t20.5 -27.5l5 -5q4 -6 5 -8q3 -8 -1 -13.5t-11 -5.5q-17 -1 -29 15q-24 32 -38 43q-3 0 -4 -1q-5 -5 -14.5 -14
t-17.5 -16.5t-15 -13.5q-7 -7 -19 -7q-8 1 -17 7t-8 14q2 7 5 9z" />
    <glyph glyph-name="Edieresis" unicode="&#xcb;" horiz-adv-x="499" 
d="M9 277q-5 2 -8 12q3 5 5 5l48 12q20 7 20 25q2 28 2 42q10 230 21 343q1 22 -19 22q-37 1 -65 29l-6 9q-1 2 1 5.5t4 3.5q7 0 21 0.5t21 0.5q6 1 17 1.5t17 0.5q7 0 11 9l6 18q15 6 46 8q40 2 58 -29q8 -13 25 -15l141 -15q25 -4 36 -12q6 -5 11 -11q3 -5 1 -10
q-2 -6 -7 -8q-12 -1 -59.5 1.5t-89 5.5t-42.5 3q-16 0 -18 -15q-5 -20 -6 -38q-13 -119 -17 -290q0 -6 0.5 -17.5t0.5 -17.5q2 -12 14 -10t18 4l177 48q25 6 46 -2q8 -3 13 -12q6 -12 -5 -16q-8 -2 -12 -2q-17 -3 -89.5 -26.5t-102.5 -36.5q-7 -3 -15.5 -5.5t-19 -5
t-16.5 -4.5q-12 -5 -14 -17q-1 -7 -1 -23q-2 -42 -1 -65q1 -47 -1.5 -156.5t0.5 -156.5q0 -6 4.5 -7.5t9.5 1.5q35 22 98 79.5t102 79.5q3 2 26 22q11 9 25 6q8 -3 17 -8q4 -1 4.5 -6t-1.5 -7q-39 -37 -103 -86q-24 -19 -90 -78.5t-76 -75.5q-19 -28 -53 -18q-45 12 -57 55
q-6 18 -7 26q-6 15 -3.5 134t2.5 134q0 20 -1 59t-2 59q0 5 -2 11q-2 8 -14 13t-27 9t-19 6zM273 938q12 2 19.5 -5t7.5 -20q0 -32 -25 -50q-11 -7 -21 -6q-16 1 -26.5 14.5t-3.5 28.5q16 31 49 38zM393 913q1 -10 -7 -26t-19 -24q-11 -7 -20 -6q-16 1 -27 14.5t-4 28.5
q18 32 49 38q25 3 28 -25z" />
    <glyph glyph-name="Igrave" unicode="&#xcc;" horiz-adv-x="361" 
d="M4 766q-3 4 -3 9q0 10 16 12q52 9 155.5 26.5t155.5 26.5q37 6 46 -7q13 -19 -12 -23q-79 -15 -104 -19q-19 -5 -23 -9q-8 -7 -8.5 -48t3.5 -103t4 -66q1 -42 1 -124t1 -124l11 -326q1 -7 1.5 -19t-0.5 -43.5t-4.5 -56t-14 -46t-26.5 -25.5q-37 -8 -77 15
q-18 10 -49.5 47t-24.5 52q8 15 17.5 15.5t16.5 -12.5q14 -30 42 -53q35 -29 44 13q3 13 4 37t0 41l-1 18q-12 282 -17 423q-1 36 -2 112.5t-3.5 135.5t-8.5 113q0 5 -3 8t-7 3q-5 1 -37 -4.5t-54.5 -7t-38.5 8.5zM118 996q11 9 18 -1q6 -8 18.5 -23.5t20 -24.5t19.5 -20.5
t24 -19.5q16 -13 17 -15q7 -6 3 -19t-14 -11l-4 1q-3 1 -5 2q-54 28 -101 88q-6 8 -4.5 21.5t8.5 21.5z" />
    <glyph glyph-name="Iacute" unicode="&#xcd;" horiz-adv-x="361" 
d="M4 766q-3 4 -3 9q0 10 16 12q52 9 155.5 26.5t155.5 26.5q37 6 46 -7q13 -19 -12 -23q-79 -15 -104 -19q-19 -5 -23 -9q-8 -7 -8.5 -48t3.5 -103t4 -66q1 -42 1 -124t1 -124l11 -326q1 -7 1.5 -19t-0.5 -43.5t-4.5 -56t-14 -46t-26.5 -25.5q-37 -8 -77 15
q-18 10 -49.5 47t-24.5 52q8 15 17.5 15.5t16.5 -12.5q14 -30 42 -53q35 -29 44 13q3 13 4 37t0 41l-1 18q-12 282 -17 423q-1 36 -2 112.5t-3.5 135.5t-8.5 113q0 5 -3 8t-7 3q-5 1 -37 -4.5t-54.5 -7t-38.5 8.5zM234 993q7 -8 9 -21t-4 -22q-48 -61 -104 -89q-2 -2 -8 -4
q-11 -2 -14.5 11t2.5 20q7 8 18 15q16 10 29 23t31.5 37t22.5 29q8 13 18 1z" />
    <glyph glyph-name="Icircumflex" unicode="&#xce;" horiz-adv-x="361" 
d="M96 874q5 7 20 24t20 25q18 24 38 27q15 3 27.5 -5t27 -24t24.5 -23q2 -2 6.5 -6t6.5 -6q8 -17 -10 -21q-16 -3 -31 10q-17 20 -44 36q-3 0 -4 -2q-34 -45 -38 -51q-7 -9 -19 -10q-8 -1 -17 3.5t-10 12.5q0 8 3 10zM4 766q-3 4 -3 9q0 10 16 12q52 9 155.5 26.5
t155.5 26.5q37 6 46 -7q13 -19 -12 -23q-79 -15 -104 -19q-19 -5 -23 -9q-8 -7 -8.5 -48t3.5 -103t4 -66q1 -42 1 -124t1 -124l11 -326q1 -7 1.5 -19t-0.5 -43.5t-4.5 -56t-14 -46t-26.5 -25.5q-37 -8 -77 15q-18 10 -49.5 47t-24.5 52q8 15 17.5 15.5t16.5 -12.5
q14 -30 42 -53q35 -29 44 13q3 13 4 37t0 41l-1 18q-12 282 -17 423q-1 36 -2 112.5t-3.5 135.5t-8.5 113q0 5 -3 8t-7 3q-5 1 -37 -4.5t-54.5 -7t-38.5 8.5z" />
    <glyph glyph-name="Idieresis" unicode="&#xcf;" horiz-adv-x="361" 
d="M4 766q-3 4 -3 9q0 10 16 12q52 9 155.5 26.5t155.5 26.5q37 6 46 -7q13 -19 -12 -23q-79 -15 -104 -19q-19 -5 -23 -9q-8 -7 -8.5 -48t3.5 -103t4 -66q1 -42 1 -124t1 -124l11 -326q1 -7 1.5 -19t-0.5 -43.5t-4.5 -56t-14 -46t-26.5 -25.5q-37 -8 -77 15
q-18 10 -49.5 47t-24.5 52q8 15 17.5 15.5t16.5 -12.5q14 -30 42 -53q35 -29 44 13q3 13 4 37t0 41l-1 18q-12 282 -17 423q-1 36 -2 112.5t-3.5 135.5t-8.5 113q0 5 -3 8t-7 3q-5 1 -37 -4.5t-54.5 -7t-38.5 8.5zM141 965q12 2 19.5 -5t7.5 -20q0 -32 -25 -50
q-11 -7 -21 -6q-16 1 -26.5 14.5t-3.5 28.5q16 31 49 38zM261 940q1 -10 -7 -26t-19 -24q-11 -7 -20 -6q-16 1 -27 14.5t-4 28.5q18 32 49 38q25 3 28 -25z" />
    <glyph glyph-name="Eth" unicode="&#xd0;" horiz-adv-x="630" 
d="M85 335q-15 1 -35 12.5t-17 27.5q2 6 9.5 9t15 2.5t17.5 -1.5t12 -1q19 1 58 1h18q-3 222 2 335q5 14 -8 19l-75 -7q-34 -3 -60 3q-3 0 -5.5 1.5t-5.5 3.5t-5 3q-5 4 -5 10t4 9q7 5 80 16t78 14q9 4 16 22q6 17 28.5 19t30.5 -11q3 -5 4 -12.5t3 -12.5q1 0 7 -2t10 -2
q103 -7 181.5 -80.5t104.5 -174.5q77 -316 -355 -741q-11 -11 -49 -43.5t-56 -52.5q-10 -11 -24.5 -4t-19 20t3.5 23l52 44q8 7 21.5 19.5t25.5 23t23 18.5q10 8 11 18q-11 206 -17 469q-53 0 -79 3zM497 314q29 101 4 204q-21 89 -86.5 154t-154.5 66q-4 1 -8 -2.5t-5 -8.5
q0 -168 2 -336q43 5 54 3q23 -3 40 -19q7 -7 8 -12q2 -11 -7 -18q-7 -4 -15 -4q-77 -6 -79 -6q4 -336 4 -380q0 -4 3.5 -9.5t7.5 -1.5q75 76 139.5 175t92.5 195z" />
    <glyph glyph-name="Ntilde" unicode="&#xd1;" horiz-adv-x="571" 
d="M515 814q24 -8 15 -56q-8 -40 -14.5 -80t-12.5 -85t-10.5 -78.5t-9.5 -85.5t-7.5 -79t-7 -86t-6 -79t-6.5 -86t-6 -81q-4 -62 -37 -71q-24 -8 -47 15q-10 11 -18 25.5t-17.5 39.5t-11.5 29q-39 92 -83 193q-44 104 -67 156q-14 31 -45 90q-5 9 -21 29q25 -346 80 -667
q4 -19 -1 -28q-5 -11 -18 -14q-18 -7 -37.5 2.5t-30.5 27.5q-16 24 -22 77q-31 242 -50 471q-12 158 -17 236q-6 120 -6 127q1 20 12 27t36 6q11 0 19 -5q9 -5 18 -31q16 -60 42 -129l14 -34q13 -34 29.5 -75.5t21.5 -53.5q7 -17 36.5 -88t43.5 -111q14 -37 43 -107t33 -80
q12 -20 24 -35q35 512 70 746q2 11 6 14q7 6 32.5 11.5t33.5 2.5zM223 852q-7 -4 -3 -14q1 -2 3.5 -8t2.5 -10q1 -6 -4 -11t-12 -7q-15 -2 -23 10q-7 9 -7 26q-2 36 24 47q25 10 54 2q22 -6 57 -33q9 -9 16 -4q7 4 0 16q-9 12 -9 15q-1 5 2.5 10t8.5 6q11 3 21 -7
q15 -14 15.5 -36t-15.5 -35q-19 -16 -49 -13q-25 4 -46 25l-6 6l-7 7t-7 5.5t-8 3.5h-6q-1 0 -2 -1z" />
    <glyph glyph-name="Ograve" unicode="&#xd2;" horiz-adv-x="543" 
d="M7 375q20 115 98 215q22 28 56.5 51t67.5 29q58 15 106 -21q12 1 21.5 -1.5t19 -11.5t14 -14t14.5 -20t12 -17q38 -62 55.5 -115t17.5 -123q0 -150 -79 -288q-53 -80 -122 -116q-66 -34 -137 -5q-133 55 -151 301q-1 13 -1 40q0 55 8 96zM136 487q-49 -88 -49 -237
q0 -74 17 -142q19 -76 67 -113.5t118 1.5q79 62 121 166.5t37 210.5q-2 58 -23 112q-13 34 -47 91t-54 53t-54 -20q-35 -17 -53 -28q-49 -37 -80 -94zM253 818q11 9 18 -1q6 -8 18.5 -23.5t20 -24.5t19.5 -20.5t24 -19.5q16 -13 17 -15q7 -6 3 -19t-14 -11l-3 1q-4 1 -6 2
q-54 28 -101 88q-6 8 -4.5 21.5t8.5 21.5z" />
    <glyph glyph-name="Oacute" unicode="&#xd3;" horiz-adv-x="543" 
d="M7 375q20 115 98 215q22 28 56.5 51t67.5 29q58 15 106 -21q12 1 21.5 -1.5t19 -11.5t14 -14t14.5 -20t12 -17q38 -62 55.5 -115t17.5 -123q0 -150 -79 -288q-53 -80 -122 -116q-66 -34 -137 -5q-133 55 -151 301q-1 13 -1 40q0 55 8 96zM136 487q-49 -88 -49 -237
q0 -74 17 -142q19 -76 67 -113.5t118 1.5q79 62 121 166.5t37 210.5q-2 58 -23 112q-13 34 -47 91t-54 53t-54 -20q-35 -17 -53 -28q-49 -37 -80 -94zM391 856q7 -8 9 -21t-4 -22q-48 -61 -104 -89q-2 -2 -8 -4q-11 -2 -14.5 11t2.5 20q8 7 18 15q16 10 29 23t31.5 37
t22.5 29q8 13 18 1z" />
    <glyph glyph-name="Ocircumflex" unicode="&#xd4;" horiz-adv-x="543" 
d="M7 375q20 115 98 215q22 28 56.5 51t67.5 29q58 15 106 -21q12 1 21.5 -1.5t19 -11.5t14 -14t14.5 -20t12 -17q38 -62 55.5 -115t17.5 -123q0 -150 -79 -288q-53 -80 -122 -116q-66 -34 -137 -5q-133 55 -151 301q-1 13 -1 40q0 55 8 96zM136 487q-49 -88 -49 -237
q0 -74 17 -142q19 -76 67 -113.5t118 1.5q79 62 121 166.5t37 210.5q-2 58 -23 112q-13 34 -47 91t-54 53t-54 -20q-35 -17 -53 -28q-49 -37 -80 -94zM208 771q6 6 24 20t24 21q23 21 42 21q15 0 26 -10t22.5 -28.5t20.5 -27.5q0 -1 4.5 -6t5.5 -7q3 -8 -1 -13.5t-11 -5.5
q-17 -1 -29 15q-24 32 -38 43q-3 0 -4 -1q-5 -5 -14.5 -14t-17.5 -16.5t-15 -13.5q-7 -7 -19 -7q-8 1 -17 7t-8 14q2 7 5 9z" />
    <glyph glyph-name="Otilde" unicode="&#xd5;" horiz-adv-x="543" 
d="M7 375q20 115 98 215q22 28 56.5 51t67.5 29q58 15 106 -21q12 1 21.5 -1.5t19 -11.5t14 -14t14.5 -20t12 -17q38 -62 55.5 -115t17.5 -123q0 -150 -79 -288q-53 -80 -122 -116q-66 -34 -137 -5q-133 55 -151 301q-1 13 -1 40q0 55 8 96zM136 487q-49 -88 -49 -237
q0 -74 17 -142q19 -76 67 -113.5t118 1.5q79 62 121 166.5t37 210.5q-2 58 -23 112q-13 34 -47 91t-54 53t-54 -20q-35 -17 -53 -28q-49 -37 -80 -94zM231 764q-7 -4 -3 -14q1 -2 3.5 -8t2.5 -10q1 -6 -4 -11t-12 -7q-15 -2 -23 10q-7 9 -7 26q-2 36 24 47q25 10 54 2
q22 -6 57 -33q9 -9 16 -4q7 4 0 16q-9 12 -9 15q-1 5 2.5 10t8.5 6q11 3 21 -7q15 -14 15.5 -36t-15.5 -35q-19 -16 -49 -13q-25 4 -46 25l-6 6l-7 7t-7 5.5t-8 3.5h-6q-1 0 -2 -1z" />
    <glyph glyph-name="Odieresis" unicode="&#xd6;" horiz-adv-x="543" 
d="M7 375q20 115 98 215q22 28 56.5 51t67.5 29q58 15 106 -21q12 1 21.5 -1.5t19 -11.5t14 -14t14.5 -20t12 -17q38 -62 55.5 -115t17.5 -123q0 -150 -79 -288q-53 -80 -122 -116q-66 -34 -137 -5q-133 55 -151 301q-1 13 -1 40q0 55 8 96zM136 487q-49 -88 -49 -237
q0 -74 17 -142q19 -76 67 -113.5t118 1.5q79 62 121 166.5t37 210.5q-2 58 -23 112q-13 34 -47 91t-54 53t-54 -20q-35 -17 -53 -28q-49 -37 -80 -94zM269 803q12 2 19.5 -5t7.5 -20q0 -32 -25 -50q-11 -7 -21 -6q-16 1 -26.5 14.5t-3.5 28.5q16 31 49 38zM389 778
q1 -10 -7 -26t-19 -24q-11 -7 -20 -6q-16 1 -27 14.5t-4 28.5q18 32 49 38q25 3 28 -25z" />
    <glyph glyph-name="multiply" unicode="&#xd7;" horiz-adv-x="280" 
d="M228 290l-92 -92l84 -83q5 -6 4 -12t-6 -9q-10 -10 -21 2l-9 9t-24.5 25t-47.5 48l-80 -82q-10 -10 -19 -2q-4 3 -5.5 9t3.5 12q37 36 82 82q-62 61 -72 69q-16 16 -19 25v-1q-4 12 4 19t19 -4q3 -8 87 -88q15 14 44 43.5t43 44.5q9 9 18 2t7 -17z" />
    <glyph glyph-name="Oslash" unicode="&#xd8;" horiz-adv-x="543" 
d="M29 -74l2 4t4 7t7 12t11.5 21t17.5 31q-61 82 -71 238q-1 13 -1 40q0 55 8 96q20 115 98 215q22 28 56.5 51t67.5 29q58 15 106 -21q12 1 21.5 -1.5t19 -11.5t14 -14t14.5 -20t12 -17l15 24q28 48 30 50q4 4 11 1q3 0 6 -3q17 -16 -19 -70l-24 -36q54 -97 54 -204
q0 -150 -79 -288q-53 -80 -122 -116q-66 -34 -137 -5q-29 12 -53 34l-49 -91q-9 -13 -14 -14q-10 -1 -17 14q-4 15 11 45zM411 513q-114 -180 -278 -477q58 -93 156 -40q79 62 121 166.5t37 210.5q-2 60 -36 140zM136 487q-49 -88 -49 -237q0 -74 17 -142q0 -3 9 -31
q146 257 280 472q-48 84 -70 80q-37 -7 -107 -48q-49 -37 -80 -94z" />
    <glyph glyph-name="Ugrave" unicode="&#xd9;" horiz-adv-x="591" 
d="M521 808v-35q11 -427 -55 -710q-23 -103 -98 -177q-33 -30 -74 -41t-83 7q-116 61 -153 150q-20 48 -29 128q-14 112 -16 326.5t-12 313.5q0 21 5 28q6 7 22 9q52 10 77 -9q25 -20 25 -67q-2 -369 22 -577q1 -10 3.5 -36t4.5 -39.5t5.5 -34.5t9 -38.5t13.5 -33.5
q25 -51 73 -64t90 27q63 65 83 176q3 20 12 69.5t13.5 76t9 67t4.5 73.5q0 20 6.5 131t2.5 170q-4 51 -6 102q-2 18 12 21q16 7 28 -5q4 -4 5 -8zM247 963q11 9 18 -1q6 -8 18.5 -23.5t20 -24.5t19.5 -20.5t24 -19.5q16 -13 17 -15q7 -6 3 -19t-14 -11l-3 1q-4 1 -6 2
q-54 28 -101 88q-6 8 -4.5 21.5t8.5 21.5z" />
    <glyph glyph-name="Uacute" unicode="&#xda;" horiz-adv-x="591" 
d="M521 808v-35q11 -427 -55 -710q-23 -103 -98 -177q-33 -30 -74 -41t-83 7q-116 61 -153 150q-20 48 -29 128q-14 112 -16 326.5t-12 313.5q0 21 5 28q6 7 22 9q52 10 77 -9q25 -20 25 -67q-2 -369 22 -577q1 -10 3.5 -36t4.5 -39.5t5.5 -34.5t9 -38.5t13.5 -33.5
q25 -51 73 -64t90 27q63 65 83 176q3 20 12 69.5t13.5 76t9 67t4.5 73.5q0 20 6.5 131t2.5 170q-4 51 -6 102q-2 18 12 21q16 7 28 -5q4 -4 5 -8zM367 993q7 -8 9 -21t-4 -22q-48 -61 -104 -89q-2 -2 -8 -4q-11 -2 -14.5 11t2.5 20q8 8 18 15q16 10 29 23t31.5 37t22.5 29
q8 13 18 1z" />
    <glyph glyph-name="Ucircumflex" unicode="&#xdb;" horiz-adv-x="591" 
d="M521 808v-35q11 -427 -55 -710q-23 -103 -98 -177q-33 -30 -74 -41t-83 7q-116 61 -153 150q-20 48 -29 128q-14 112 -16 326.5t-12 313.5q0 21 5 28q6 7 22 9q52 10 77 -9q25 -20 25 -67q-2 -369 22 -577q1 -10 3.5 -36t4.5 -39.5t5.5 -34.5t9 -38.5t13.5 -33.5
q25 -51 73 -64t90 27q63 65 83 176q3 20 12 69.5t13.5 76t9 67t4.5 73.5q0 20 6.5 131t2.5 170q-4 51 -6 102q-2 18 12 21q16 7 28 -5q4 -4 5 -8zM217 886q6 6 24 20t24 21q23 21 42 21q15 0 26 -10t22.5 -28.5t20.5 -27.5l4 -6q5 -5 6 -7q3 -8 -1 -13.5t-11 -5.5
q-17 -1 -29 15q-24 32 -38 43q-3 0 -4 -1q-5 -5 -14.5 -14t-17.5 -16.5t-15 -13.5q-7 -7 -19 -7q-8 1 -17 7t-8 14q2 7 5 9z" />
    <glyph glyph-name="Udieresis" unicode="&#xdc;" horiz-adv-x="591" 
d="M521 808v-35q11 -427 -55 -710q-23 -103 -98 -177q-33 -30 -74 -41t-83 7q-116 61 -153 150q-20 48 -29 128q-14 112 -16 326.5t-12 313.5q0 21 5 28q6 7 22 9q52 10 77 -9q25 -20 25 -67q-2 -369 22 -577q1 -10 3.5 -36t4.5 -39.5t5.5 -34.5t9 -38.5t13.5 -33.5
q25 -51 73 -64t90 27q63 65 83 176q3 20 12 69.5t13.5 76t9 67t4.5 73.5q0 20 6.5 131t2.5 170q-4 51 -6 102q-2 18 12 21q16 7 28 -5q4 -4 5 -8zM265 935q12 2 19.5 -5t7.5 -20q0 -32 -25 -50q-11 -7 -21 -6q-16 1 -26.5 14.5t-3.5 28.5q16 31 49 38zM385 910q1 -10 -7 -26
t-19 -24q-11 -7 -20 -6q-16 1 -27 14.5t-4 28.5q18 32 49 38q25 3 28 -25z" />
    <glyph glyph-name="Yacute" unicode="&#xdd;" horiz-adv-x="527" 
d="M470 862q7 -14 8.5 -40.5t0.5 -39.5q-5 -29 -27 -112q-19 -74 -55 -196q-67 -247 -78 -392q-8 -90 -11 -217q0 -6 -2 -17t-2 -17q-2 -8 -4 -12q-10 -19 -28.5 -18t-31.5 18q-12 16 -9 71q11 313 87 598q11 48 25 93q-3 -7 -9 -21.5t-9 -21.5q-12 -30 -27 -59t-38 -63.5
t-52 -53.5t-59 -14q-33 6 -65 24q-23 14 -38.5 36.5t-23.5 57t-11 54.5t-6 60q-1 7 -1 11q-5 68 2 260v38q0 16 21.5 22.5t43 -2t22.5 -28.5v-26q0 -9 -0.5 -26.5t-1 -31.5t-1.5 -26q-8 -209 20 -315q17 -66 60 -71q6 -1 12.5 1t13 6.5t12 9.5t12 13.5t11 14.5t10.5 15.5
t9 15t8.5 15t7.5 12.5q18 30 59 136q18 45 44 101q10 22 32 66q22 43 38 65q19 25 31 6zM325 1079q7 -8 9 -21t-4 -22q-48 -61 -104 -89q-2 -2 -8 -4q-11 -2 -14.5 11t2.5 20q8 8 18 15q16 10 29 23t31.5 37t22.5 29q8 13 18 1z" />
    <glyph glyph-name="germandbls" unicode="&#xdf;" horiz-adv-x="396" 
d="M258 622q40 -80 6 -168q-21 -53 -72 -114q-1 -1 -10.5 -11t-13.5 -17.5t-2 -13.5q2 -5 9.5 -8.5t19.5 -6t13 -2.5q60 -19 108.5 -55.5t70.5 -87.5q32 -73 -5 -169.5t-108 -137.5q-11 -6 -24.5 -7t-21 0.5t-25.5 7.5t-22 7q-11 2 -15.5 9t0.5 12.5t17 4.5q5 0 20 -5t22 -4
q9 1 17 6.5t16 16t12 16.5t12 20.5t9 15.5q74 126 34 208q-35 72 -136 115q-8 4 -38.5 11t-43.5 17q-8 6 -3 15q0 1 5 8q11 15 48.5 56t56.5 72.5t25 69.5q10 68 -26 113q-30 38 -62 24q-18 -8 -28 -40q-18 -52 -26 -149q-9 -101 -9 -269q0 -179 3 -359q0 -24 -4 -34
q-8 -21 -26 -21q-19 2 -26 22q-3 8 -3 35q2 87 -3 229.5t-4.5 265t13.5 226.5q12 94 70 125q39 19 83.5 3.5t66.5 -52.5z" />
    <glyph glyph-name="agrave" unicode="&#xe0;" 
d="M328 325q7 6 18 0.5t6 -15.5q-3 -5 -17 -32q-26 -54 -39 -89q-4 -12 -16 -43t-18 -48q-16 -49 -26 -94q-12 -49 -26 -73q-16 -11 -36 -11q-30 1 -35 3.5t-21 26.5t-27 63q-2 9 -4 19.5t-4.5 23.5t-3.5 20l-6 21q-3 9 -11 5q-27 -12 -80 -8q-38 4 -49 74q-9 45 8 77
q24 44 86 100q16 7 40 4t45 -9q3 0 3.5 -4t-1.5 -6q-26 -22 -35 -37q-4 -7 -21.5 -18.5t-20.5 -20.5q-10 -30 -10 -58q0 -14 7 -18q8 -3 15 6q22 25 28 35.5t17 41.5q16 40 28 57q10 14 27 12q5 0 10.5 -1t12 -2.5t10.5 -2.5t6 -6t0 -8q-27 -52 -29 -139q-1 -24 -1 -93
q2 -87 21 -102h10q7 0 10 12q59 193 105 294q10 21 24 43zM90 502q11 9 18 -1q6 -8 18.5 -23.5t20 -24.5t19.5 -20.5t24 -19.5q16 -13 17 -15q7 -6 3 -19t-14 -11l-4 1q-3 1 -5 2q-54 28 -101 88q-6 8 -4.5 21.5t8.5 21.5z" />
    <glyph glyph-name="aacute" unicode="&#xe1;" 
d="M328 325q7 6 18 0.5t6 -15.5q-3 -5 -17 -32q-26 -54 -39 -89q-4 -12 -16 -43t-18 -48q-16 -49 -26 -94q-12 -49 -26 -73q-16 -11 -36 -11q-30 1 -35 3.5t-21 26.5t-27 63q-2 9 -4 19.5t-4.5 23.5t-3.5 20l-6 21q-3 9 -11 5q-27 -12 -80 -8q-38 4 -49 74q-9 45 8 77
q24 44 86 100q16 7 40 4t45 -9q3 0 3.5 -4t-1.5 -6q-26 -22 -35 -37q-4 -7 -21.5 -18.5t-20.5 -20.5q-10 -30 -10 -58q0 -14 7 -18q8 -3 15 6q22 25 28 35.5t17 41.5q16 40 28 57q10 14 27 12q5 0 10.5 -1t12 -2.5t10.5 -2.5t6 -6t0 -8q-27 -52 -29 -139q-1 -24 -1 -93
q2 -87 21 -102h10q7 0 10 12q59 193 105 294q10 21 24 43zM179 520q7 -8 9 -21t-4 -22q-48 -61 -104 -89q-2 -2 -8 -4q-11 -2 -14.5 11t2.5 20q8 7 18 15q16 10 29 23t31.5 37t22.5 29q8 13 18 1z" />
    <glyph glyph-name="acircumflex" unicode="&#xe2;" 
d="M328 325q7 6 18 0.5t6 -15.5q-3 -5 -17 -32q-26 -54 -39 -89q-4 -12 -16 -43t-18 -48q-16 -49 -26 -94q-12 -49 -26 -73q-16 -11 -36 -11q-30 1 -35 3.5t-21 26.5t-27 63q-2 9 -4 19.5t-4.5 23.5t-3.5 20l-6 21q-3 9 -11 5q-27 -12 -80 -8q-38 4 -49 74q-9 45 8 77
q24 44 86 100q16 7 40 4t45 -9q3 0 3.5 -4t-1.5 -6q-26 -22 -35 -37q-4 -7 -21.5 -18.5t-20.5 -20.5q-10 -30 -10 -58q0 -14 7 -18q8 -3 15 6q22 25 28 35.5t17 41.5q16 40 28 57q10 14 27 12q5 0 10.5 -1t12 -2.5t10.5 -2.5t6 -6t0 -8q-27 -52 -29 -139q-1 -24 -1 -93
q2 -87 21 -102h10q7 0 10 12q59 193 105 294q10 21 24 43zM45 415q6 6 24 20t24 21q23 21 42 21q15 0 26 -10t22.5 -28.5t20.5 -27.5l4 -5q5 -6 6 -8q3 -8 -1 -13.5t-11 -5.5q-17 -1 -29 15q-24 32 -38 43q-3 0 -4 -1q-5 -5 -14.5 -14t-17.5 -16.5t-15 -13.5q-7 -7 -19 -7
q-8 1 -17 7t-8 14q2 7 5 9z" />
    <glyph glyph-name="atilde" unicode="&#xe3;" 
d="M328 325q7 6 18 0.5t6 -15.5q-3 -5 -17 -32q-26 -54 -39 -89q-4 -12 -16 -43t-18 -48q-16 -49 -26 -94q-12 -49 -26 -73q-16 -11 -36 -11q-30 1 -35 3.5t-21 26.5t-27 63q-2 9 -4 19.5t-4.5 23.5t-3.5 20l-6 21q-3 9 -11 5q-27 -12 -80 -8q-38 4 -49 74q-9 45 8 77
q24 44 86 100q16 7 40 4t45 -9q3 0 3.5 -4t-1.5 -6q-26 -22 -35 -37q-4 -7 -21.5 -18.5t-20.5 -20.5q-10 -30 -10 -58q0 -14 7 -18q8 -3 15 6q22 25 28 35.5t17 41.5q16 40 28 57q10 14 27 12q5 0 10.5 -1t12 -2.5t10.5 -2.5t6 -6t0 -8q-27 -52 -29 -139q-1 -24 -1 -93
q2 -87 21 -102h10q7 0 10 12q59 193 105 294q10 21 24 43zM76 448q-5 -3 -3 -13q1 -2 3.5 -7.5t2.5 -8.5q2 -13 -15 -17q-12 -2 -21 9q-6 10 -6 24q-2 32 22 43q23 9 49 2q19 -6 52 -30q9 -9 15 -4t0 15q-8 8 -8 13q-2 5 1.5 9.5t8.5 5.5q11 1 19 -7q14 -13 14 -33t-14 -31
q-18 -15 -45 -12q-23 4 -42 23l-7 7t-9.5 8.5t-8.5 4.5h-6q-1 0 -2 -1z" />
    <glyph glyph-name="adieresis" unicode="&#xe4;" 
d="M328 325q7 6 18 0.5t6 -15.5q-3 -5 -17 -32q-26 -54 -39 -89q-4 -12 -16 -43t-18 -48q-16 -49 -26 -94q-12 -49 -26 -73q-16 -11 -36 -11q-30 1 -35 3.5t-21 26.5t-27 63q-2 9 -4 19.5t-4.5 23.5t-3.5 20l-6 21q-3 9 -11 5q-27 -12 -80 -8q-38 4 -49 74q-9 45 8 77
q24 44 86 100q16 7 40 4t45 -9q3 0 3.5 -4t-1.5 -6q-26 -22 -35 -37q-4 -7 -21.5 -18.5t-20.5 -20.5q-10 -30 -10 -58q0 -14 7 -18q8 -3 15 6q22 25 28 35.5t17 41.5q16 40 28 57q10 14 27 12q5 0 10.5 -1t12 -2.5t10.5 -2.5t6 -6t0 -8q-27 -52 -29 -139q-1 -24 -1 -93
q2 -87 21 -102h10q7 0 10 12q59 193 105 294q10 21 24 43zM97 472q12 2 19.5 -5t7.5 -20q0 -32 -25 -50q-11 -7 -21 -6q-16 1 -26.5 14.5t-3.5 28.5q16 31 49 38zM217 447q1 -10 -7 -26t-19 -24q-11 -7 -20 -6q-16 1 -27 14.5t-4 28.5q18 32 49 38q25 3 28 -25z" />
    <glyph glyph-name="aring" unicode="&#xe5;" 
d="M328 325q7 6 18 0.5t6 -15.5q-3 -5 -17 -32q-26 -54 -39 -89q-4 -12 -16 -43t-18 -48q-16 -49 -26 -94q-12 -49 -26 -73q-16 -11 -36 -11q-30 1 -35 3.5t-21 26.5t-27 63q-2 9 -4 19.5t-4.5 23.5t-3.5 20l-6 21q-3 9 -11 5q-27 -12 -80 -8q-38 4 -49 74q-9 45 8 77
q24 44 86 100q16 7 40 4t45 -9q3 0 3.5 -4t-1.5 -6q-26 -22 -35 -37q-4 -7 -21.5 -18.5t-20.5 -20.5q-10 -30 -10 -58q0 -14 7 -18q8 -3 15 6q22 25 28 35.5t17 41.5q16 40 28 57q10 14 27 12q5 0 10.5 -1t12 -2.5t10.5 -2.5t6 -6t0 -8q-27 -52 -29 -139q-1 -24 -1 -93
q2 -87 21 -102h10q7 0 10 12q59 193 105 294q10 21 24 43zM82 434q-9 22 6 43t39 23q48 4 56 -36q5 -23 -4 -41t-29 -25t-40 4t-28 32zM113 445q-2 -6 1.5 -13.5t9.5 -8.5q10 -2 18.5 7.5t10.5 18.5q1 11 -4 17.5t-15 2.5q-18 -8 -21 -23v-1z" />
    <glyph glyph-name="ae" unicode="&#xe6;" horiz-adv-x="435" 
d="M229 108q-18 -32 -36 -48q14 -19 29 -19q25 0 49 30q28 30 78 114q81 129 86 133q6 4 9 4q14 0 17 -21t-4 -30l-62 -104q-25 -43 -42 -70t-43.5 -59.5t-51.5 -49.5q-31 -22 -62 -22q-50 0 -81 53l-3 4q-29 27 -33 53l-6 21q-3 9 -11 5q-27 -12 -80 -8q-38 4 -49 74
q-9 45 8 77q24 44 86 100q16 7 40 4t45 -9q3 0 3.5 -4t-1.5 -6q-26 -22 -35 -37q-4 -7 -21.5 -18.5t-20.5 -20.5q-10 -30 -10 -58q0 -14 7 -18q8 -3 15 6q22 25 28 35.5t17 41.5q16 40 28 57l4 5q11 30 29 57q38 54 63 68q15 8 29 8q26 0 44.5 -24.5t20.5 -55.5
q4 -68 -30 -156q-4 -8 -22 -49t-31 -63zM173 114q11 8 27 32t20 36q34 72 50 140q5 22 5 36q0 46 -29 46q-24 0 -53 -71q-16 -40 -27 -116q-4 -29 -1.5 -58.5t8.5 -44.5z" />
    <glyph glyph-name="ccedilla" unicode="&#xe7;" horiz-adv-x="288" 
d="M126 -103q11 8 13.5 26t-6 33t-24.5 13q-3 0 -10.5 -4t-11 -4.5t-10.5 3.5q-6 6 1 33l3 13q-26 13 -48.5 48t-28.5 62q-16 71 -15 112q4 157 69 239q11 14 28 20q21 6 35 5q13 -2 21 -10q20 -22 24 -39q3 -9 -5 -15q-5 -3 -11.5 -3t-7.5 4q-10 20 -22 1q-15 -26 -32 -102
q-12 -57 -16 -101q-5 -66 4 -116q5 -28 14 -47q6 -14 15.5 -17t20 5t20 17t20 25t15 23t9.5 16l72 134q5 9 11 20t9.5 18t5.5 9q10 10 21 1q2 -2 2.5 -7.5t-0.5 -7.5q-15 -40 -38 -84t-41.5 -75.5t-20.5 -35.5q-12 -26 -35 -54.5t-47 -41.5q-4 -13 4 -18h7q7 0 17 -1.5
t17 -5.5q21 -13 26 -33t-0.5 -44.5t-19.5 -39.5q-17 -18 -47.5 -19.5t-49.5 14.5q-22 22 -1 30q6 2 22.5 -1t21.5 2z" />
    <glyph glyph-name="egrave" unicode="&#xe8;" horiz-adv-x="309" 
d="M103 108q-18 -32 -36 -48q14 -19 29 -19q25 0 49 30q28 30 78 114q81 129 86 133q6 4 9 4q14 0 17 -21t-4 -30l-15 -25l-47 -79q-25 -43 -42 -70t-43.5 -59.5t-51.5 -49.5q-31 -22 -62 -22q-50 0 -81 53q-26 42 -26 111q0 28 6 70q13 104 60 180q38 54 63 68q15 8 29 8
q26 0 44.5 -24.5t20.5 -55.5q4 -68 -30 -156q-4 -8 -22 -49t-31 -63zM47 114q11 8 27 32t20 36q34 72 50 140q5 22 5 36q0 46 -29 46q-24 0 -53 -71q-16 -40 -27 -116q-4 -29 -1.5 -58.5t8.5 -44.5zM39 628q11 9 18 -1q6 -8 18.5 -23.5t20 -24.5t19.5 -20.5t24 -19.5
q16 -13 17 -15q7 -6 3 -19t-14 -11l-9 3q-54 28 -101 88q-6 8 -4.5 21.5t8.5 21.5z" />
    <glyph glyph-name="eacute" unicode="&#xe9;" horiz-adv-x="309" 
d="M103 108q-18 -32 -36 -48q14 -19 29 -19q25 0 49 30q28 30 78 114q81 129 86 133q6 4 9 4q14 0 17 -21t-4 -30l-15 -25l-47 -79q-25 -43 -42 -70t-43.5 -59.5t-51.5 -49.5q-31 -22 -62 -22q-50 0 -81 53q-26 42 -26 111q0 28 6 70q13 104 60 180q38 54 63 68q15 8 29 8
q26 0 44.5 -24.5t20.5 -55.5q4 -68 -30 -156q-4 -8 -22 -49t-31 -63zM47 114q11 8 27 32t20 36q34 72 50 140q5 22 5 36q0 46 -29 46q-24 0 -53 -71q-16 -40 -27 -116q-4 -29 -1.5 -58.5t8.5 -44.5zM167 615q7 -8 9 -21t-4 -22q-48 -61 -104 -89q-2 -2 -8 -4
q-11 -2 -14.5 11t2.5 20q8 8 18 15q16 10 29 23t31.5 37t22.5 29q8 13 18 1z" />
    <glyph glyph-name="ecircumflex" unicode="&#xea;" horiz-adv-x="309" 
d="M103 108q-18 -32 -36 -48q14 -19 29 -19q25 0 49 30q28 30 78 114q81 129 86 133q6 4 9 4q14 0 17 -21t-4 -30l-15 -25l-47 -79q-25 -43 -42 -70t-43.5 -59.5t-51.5 -49.5q-31 -22 -62 -22q-50 0 -81 53q-26 42 -26 111q0 28 6 70q13 104 60 180q38 54 63 68q15 8 29 8
q26 0 44.5 -24.5t20.5 -55.5q4 -68 -30 -156q-4 -8 -22 -49t-31 -63zM47 114q11 8 27 32t20 36q34 72 50 140q5 22 5 36q0 46 -29 46q-24 0 -53 -71q-16 -40 -27 -116q-4 -29 -1.5 -58.5t8.5 -44.5zM31 538q6 6 24 20t24 21q23 21 42 21q15 0 26 -10t22.5 -28.5t20.5 -27.5
l4 -6q5 -5 6 -7q3 -8 -1 -13.5t-11 -5.5q-17 -1 -29 15q-24 32 -38 43q-3 0 -4 -1q-5 -5 -14.5 -14t-17.5 -16.5t-15 -13.5q-7 -7 -19 -7q-8 1 -17 7t-8 14q2 7 5 9z" />
    <glyph glyph-name="edieresis" unicode="&#xeb;" horiz-adv-x="309" 
d="M103 108q-18 -32 -36 -48q14 -19 29 -19q25 0 49 30q28 30 78 114q81 129 86 133q6 4 9 4q14 0 17 -21t-4 -30l-15 -25l-47 -79q-25 -43 -42 -70t-43.5 -59.5t-51.5 -49.5q-31 -22 -62 -22q-50 0 -81 53q-26 42 -26 111q0 28 6 70q13 104 60 180q38 54 63 68q15 8 29 8
q26 0 44.5 -24.5t20.5 -55.5q4 -68 -30 -156q-4 -8 -22 -49t-31 -63zM47 114q11 8 27 32t20 36q34 72 50 140q5 22 5 36q0 46 -29 46q-24 0 -53 -71q-16 -40 -27 -116q-4 -29 -1.5 -58.5t8.5 -44.5zM89 587q12 2 19.5 -5t7.5 -20q0 -32 -25 -50q-11 -7 -21 -6
q-16 1 -26.5 14.5t-3.5 28.5q16 31 49 38zM209 562q1 -10 -7 -26t-19 -24q-11 -7 -20 -6q-16 1 -27 14.5t-4 28.5q18 32 49 38q25 3 28 -25z" />
    <glyph glyph-name="igrave" unicode="&#xec;" horiz-adv-x="231" 
d="M246 306q7 -4 4 -13q-1 -3 -11.5 -22.5t-11.5 -22.5q-13 -26 -45 -76q-28 -45 -67 -68q-30 -14 -57 -7q-21 6 -33 17.5t-25 34.5q-20 39 -10 125q1 10 6 32q5 16 8 24q2 5 10 8q17 5 34 -1q11 -4 11 -12q0 -1 -3 -21q-6 -47 -5 -67q4 -57 27 -89q11 -17 28 -13
q21 8 49 43q17 23 37 59q31 56 39 66q2 3 6.5 4.5t8.5 -1.5zM-9 507q11 9 18 -1q6 -8 18.5 -23.5t20 -24.5t19.5 -20.5t24 -19.5q16 -13 17 -15q7 -6 3 -19t-14 -11l-9 3q-54 28 -101 88q-6 8 -4.5 21.5t8.5 21.5z" />
    <glyph glyph-name="iacute" unicode="&#xed;" horiz-adv-x="231" 
d="M246 306q7 -4 4 -13q-1 -3 -11.5 -22.5t-11.5 -22.5q-13 -26 -45 -76q-28 -45 -67 -68q-30 -14 -57 -7q-21 6 -33 17.5t-25 34.5q-20 39 -10 125q1 10 6 32q5 16 8 24q2 5 10 8q17 5 34 -1q11 -4 11 -12q0 -1 -3 -21q-6 -47 -5 -67q4 -57 27 -89q11 -17 28 -13
q21 8 49 43q17 23 37 59q31 56 39 66q2 3 6.5 4.5t8.5 -1.5zM88 509q7 -8 9 -21t-4 -22q-48 -61 -104 -89q-2 -2 -8 -4q-11 -2 -14.5 11t2.5 20q7 8 18 15q16 10 29 23t31.5 37t22.5 29q8 13 18 1z" />
    <glyph glyph-name="icircumflex" unicode="&#xee;" horiz-adv-x="231" 
d="M246 306q7 -4 4 -13q-1 -3 -11.5 -22.5t-11.5 -22.5q-13 -26 -45 -76q-28 -45 -67 -68q-30 -14 -57 -7q-21 6 -33 17.5t-25 34.5q-20 39 -10 125q1 10 6 32q5 16 8 24q2 5 10 8q17 5 34 -1q11 -4 11 -12q0 -1 -3 -21q-6 -47 -5 -67q4 -57 27 -89q11 -17 28 -13
q21 8 49 43q17 23 37 59q31 56 39 66q2 3 6.5 4.5t8.5 -1.5zM-46 420q6 6 24 20t24 21q23 21 42 21q15 0 26 -10t22.5 -28.5t20.5 -27.5q0 -1 4.5 -6t5.5 -7q3 -8 -1 -13.5t-11 -5.5q-17 -1 -29 15q-24 32 -38 43q-3 0 -4 -1q-5 -5 -14.5 -14t-17.5 -16.5t-15 -13.5
q-7 -7 -19 -7q-8 1 -17 7t-8 14q2 7 5 9z" />
    <glyph glyph-name="idieresis" unicode="&#xef;" horiz-adv-x="231" 
d="M246 306q7 -4 4 -13q-1 -3 -11.5 -22.5t-11.5 -22.5q-13 -26 -45 -76q-28 -45 -67 -68q-30 -14 -57 -7q-21 6 -33 17.5t-25 34.5q-20 39 -10 125q1 10 6 32q5 16 8 24q2 5 10 8q17 5 34 -1q11 -4 11 -12q0 -1 -3 -21q-6 -47 -5 -67q4 -57 27 -89q11 -17 28 -13
q21 8 49 43q17 23 37 59q31 56 39 66q2 3 6.5 4.5t8.5 -1.5zM6 484q12 2 19.5 -5t7.5 -20q0 -32 -25 -50q-11 -7 -21 -6q-16 1 -26.5 14.5t-3.5 28.5q16 31 49 38zM126 459q1 -10 -7 -26t-19 -24q-11 -7 -20 -6q-16 1 -27 14.5t-4 28.5q18 32 49 38q25 3 28 -25z" />
    <glyph glyph-name="eth" unicode="&#xf0;" horiz-adv-x="238" 
d="M124 302q2 4 2 6q1 4 1 13q-6 100 -57 190q-13 -21 -38.5 -64t-38.5 -64q-12 -21 -24 -27q-7 -4 -17 -2t-14 10q-4 11 6 29q16 28 48 83.5t48 83.5q-28 35 -51 29q-25 -5 -29 -45q-3 -25 3 -49q3 -10 2 -18q-4 -13 -14 -8q-2 1 -6 7q-14 25 -13.5 69t23.5 64q24 19 58 15
q3 -1 11 -3.5t18.5 -6t17.5 -7.5t5 -7q15 22 25 34.5t27 26.5t35 20q25 9 31 -7q7 -13 -17 -32q-32 -24 -54 -59q-8 -12 -7 -22q1 -7 8 -15q49 -69 74 -214q21 -128 14 -206q-5 -72 -34 -113q-24 -38 -61 -47q-47 -11 -72 23q-20 26 -12 77q17 116 96 226q4 6 6 10zM135 244
q-9 0 -19 -21q-14 -25 -24 -51q-21 -52 -30 -109q-6 -38 5 -56q15 -21 33 -7q20 17 34 66q26 82 9 165q-3 13 -8 13z" />
    <glyph glyph-name="ntilde" unicode="&#xf1;" horiz-adv-x="417" 
d="M74 337v-9q0 -8 -5 -43q-3 -16 -13 -129q0 -14 9 -19q3 -1 10 9q11 17 35.5 68.5t38.5 71.5q31 38 82 32q28 -3 39 -30q13 -24 7 -87q-4 -51 -2 -124q1 -17 8.5 -29t17.5 -2q10 8 25 29.5t38.5 74.5t41.5 119q10 39 14 49q2 6 9.5 7t13.5 -8q3 -5 -8 -51
q-18 -72 -48.5 -147t-59.5 -107q-45 -55 -88 -25q-21 14 -35 45q-16 41 -18 97.5t4 106.5q0 25 -7 25q-4 0 -7 -1q-13 -5 -27 -40q-8 -20 -24.5 -59.5t-24.5 -59.5q-16 -34 -26 -44q-17 -15 -36.5 -7t-29.5 32q-19 39 -15 112q0 15 0.5 31.5t1.5 37.5t1 33q2 20 6 27
q5 11 13 21q29 33 47 18q8 -7 12 -25zM156 401q-6 -4 -2 -13q5 -15 5 -16q2 -13 -14 -17q-14 -2 -21 9q-6 10 -6 24q-2 32 21 43q23 9 49 2q15 -5 52 -30q7 -9 14 -4q6 5 0 15q-8 8 -8 13q-2 5 1.5 9.5t8.5 5.5q10 2 19 -7q14 -13 14 -33t-14 -31q-18 -15 -45 -12
q-22 4 -41 23l-7 7t-9.5 8.5t-8.5 4.5h-6q-1 0 -2 -1z" />
    <glyph glyph-name="ograve" unicode="&#xf2;" horiz-adv-x="371" 
d="M83 609q86 19 149 -21q44 -28 66.5 -74.5t21.5 -101.5q0 -49 -4 -68q-2 -8 8 -10q1 0 7.5 -1t8 -1.5t7.5 -1.5t8.5 -2.5t8 -3.5t9 -4.5t8 -6.5t8.5 -9q7 -7 9.5 -13.5t-1 -12.5t-13.5 -9q-21 -6 -31 2q-5 9 -27 14.5t-32 -0.5q-7 -5 -8 -8q-10 -21 -23.5 -38.5t-33.5 -38
t-31 -33.5q-11 -14 -23.5 -27.5t-30.5 -31t-37 -30t-38.5 -20.5t-39 -6t-35.5 16q-19 15 -30 49q-7 21 1.5 62t19.5 64q2 4 7.5 9.5t8 10.5t0.5 11q-2 7 -8 11t-10 5t-18 5q-69 19 -84 60q-16 44 -2 80.5t51 75.5q69 73 136 93q3 1 8.5 2.5t8.5 2.5zM231 283q1 1 -1.5 3
t-4.5 2q-29 -7 -158 -14q-3 0 -3 -4q0 -2 1 -3q5 -3 13 -11q9 -9 5 -21q-4 -8 -12 -31.5t-12 -32.5q-14 -27 -18 -52q-3 -19 14 -15q22 5 43 24q30 26 43 39q39 37 70 79q17 26 20 37zM179 577q-22 3 -46 -3q-111 -33 -181 -140q-12 -19 -18 -34t-6.5 -30.5t12 -27.5
t38.5 -20q46 -10 116 -10q111 5 151 18q13 5 16 8q13 13 13 49q0 5 0.5 28.5t0 36.5t-2.5 32.5t-8.5 33.5t-16.5 24q-31 29 -68 35zM101 783q11 9 18 -1q6 -8 18.5 -23.5t20 -24.5t19.5 -20.5t24 -19.5q16 -13 17 -15q7 -6 3 -19t-14 -11l-9 3q-54 28 -101 88
q-6 8 -4.5 21.5t8.5 21.5z" />
    <glyph glyph-name="oacute" unicode="&#xf3;" horiz-adv-x="371" 
d="M83 609q86 19 149 -21q44 -28 66.5 -74.5t21.5 -101.5q0 -49 -4 -68q-2 -8 8 -10q1 0 7.5 -1t8 -1.5t7.5 -1.5t8.5 -2.5t8 -3.5t9 -4.5t8 -6.5t8.5 -9q7 -7 9.5 -13.5t-1 -12.5t-13.5 -9q-21 -6 -31 2q-5 9 -27 14.5t-32 -0.5q-7 -5 -8 -8q-10 -21 -23.5 -38.5t-33.5 -38
t-31 -33.5q-11 -14 -23.5 -27.5t-30.5 -31t-37 -30t-38.5 -20.5t-39 -6t-35.5 16q-19 15 -30 49q-7 21 1.5 62t19.5 64q2 4 7.5 9.5t8 10.5t0.5 11q-2 7 -8 11t-10 5t-18 5q-69 19 -84 60q-16 44 -2 80.5t51 75.5q69 73 136 93q3 1 8.5 2.5t8.5 2.5zM231 283q1 1 -1.5 3
t-4.5 2q-29 -7 -158 -14q-3 0 -3 -4q0 -2 1 -3q5 -3 13 -11q9 -9 5 -21q-4 -8 -12 -31.5t-12 -32.5q-14 -27 -18 -52q-3 -19 14 -15q22 5 43 24q30 26 43 39q39 37 70 79q17 26 20 37zM179 577q-22 3 -46 -3q-111 -33 -181 -140q-12 -19 -18 -34t-6.5 -30.5t12 -27.5
t38.5 -20q46 -10 116 -10q111 5 151 18q13 5 16 8q13 13 13 49q0 5 0.5 28.5t0 36.5t-2.5 32.5t-8.5 33.5t-16.5 24q-31 29 -68 35zM212 777q7 -8 9 -21t-4 -22q-48 -61 -104 -89q-2 -2 -8 -4q-11 -2 -14.5 11t2.5 20q7 8 18 15q16 10 29 23t31.5 37t22.5 29q8 13 18 1z" />
    <glyph glyph-name="ocircumflex" unicode="&#xf4;" horiz-adv-x="371" 
d="M83 609q86 19 149 -21q44 -28 66.5 -74.5t21.5 -101.5q0 -49 -4 -68q-2 -8 8 -10q1 0 7.5 -1t8 -1.5t7.5 -1.5t8.5 -2.5t8 -3.5t9 -4.5t8 -6.5t8.5 -9q7 -7 9.5 -13.5t-1 -12.5t-13.5 -9q-21 -6 -31 2q-5 9 -27 14.5t-32 -0.5q-7 -5 -8 -8q-10 -21 -23.5 -38.5t-33.5 -38
t-31 -33.5q-11 -14 -23.5 -27.5t-30.5 -31t-37 -30t-38.5 -20.5t-39 -6t-35.5 16q-19 15 -30 49q-7 21 1.5 62t19.5 64q2 4 7.5 9.5t8 10.5t0.5 11q-2 7 -8 11t-10 5t-18 5q-69 19 -84 60q-16 44 -2 80.5t51 75.5q69 73 136 93q3 1 8.5 2.5t8.5 2.5zM231 283q1 1 -1.5 3
t-4.5 2q-29 -7 -158 -14q-3 0 -3 -4q0 -2 1 -3q5 -3 13 -11q9 -9 5 -21q-4 -8 -12 -31.5t-12 -32.5q-14 -27 -18 -52q-3 -19 14 -15q22 5 43 24q30 26 43 39q39 37 70 79q17 26 20 37zM179 577q-22 3 -46 -3q-111 -33 -181 -140q-12 -19 -18 -34t-6.5 -30.5t12 -27.5
t38.5 -20q46 -10 116 -10q111 5 151 18q13 5 16 8q13 13 13 49q0 5 0.5 28.5t0 36.5t-2.5 32.5t-8.5 33.5t-16.5 24q-31 29 -68 35zM74 685q6 6 24 20t24 21q23 21 42 21q15 0 26 -10t22.5 -28.5t20.5 -27.5l5 -5q4 -6 5 -8q3 -8 -1 -13.5t-11 -5.5q-17 -1 -29 15
q-24 32 -38 43q-3 0 -4 -1q-5 -5 -14.5 -14t-17.5 -16.5t-15 -13.5q-7 -7 -19 -7q-8 1 -17 7t-8 14q2 7 5 9z" />
    <glyph glyph-name="otilde" unicode="&#xf5;" horiz-adv-x="371" 
d="M83 609q86 19 149 -21q44 -28 66.5 -74.5t21.5 -101.5q0 -49 -4 -68q-2 -8 8 -10q1 0 7.5 -1t8 -1.5t7.5 -1.5t8.5 -2.5t8 -3.5t9 -4.5t8 -6.5t8.5 -9q7 -7 9.5 -13.5t-1 -12.5t-13.5 -9q-21 -6 -31 2q-5 9 -27 14.5t-32 -0.5q-7 -5 -8 -8q-10 -21 -23.5 -38.5t-33.5 -38
t-31 -33.5q-11 -14 -23.5 -27.5t-30.5 -31t-37 -30t-38.5 -20.5t-39 -6t-35.5 16q-19 15 -30 49q-7 21 1.5 62t19.5 64q2 4 7.5 9.5t8 10.5t0.5 11q-2 7 -8 11t-10 5t-18 5q-69 19 -84 60q-16 44 -2 80.5t51 75.5q69 73 136 93q3 1 8.5 2.5t8.5 2.5zM231 283q1 1 -1.5 3
t-4.5 2q-29 -7 -158 -14q-3 0 -3 -4q0 -2 1 -3q5 -3 13 -11q9 -9 5 -21q-4 -8 -12 -31.5t-12 -32.5q-14 -27 -18 -52q-3 -19 14 -15q22 5 43 24q30 26 43 39q39 37 70 79q17 26 20 37zM179 577q-22 3 -46 -3q-111 -33 -181 -140q-12 -19 -18 -34t-6.5 -30.5t12 -27.5
t38.5 -20q46 -10 116 -10q111 5 151 18q13 5 16 8q13 13 13 49q0 5 0.5 28.5t0 36.5t-2.5 32.5t-8.5 33.5t-16.5 24q-31 29 -68 35zM111 699q-7 -4 -3 -14q1 -2 3.5 -8t2.5 -10q1 -6 -4 -11t-12 -7q-15 -2 -23 10q-7 9 -7 26q-2 36 24 47q25 10 54 2q22 -6 57 -33
q9 -9 16 -4q7 4 0 16q-9 12 -9 15q-1 5 2.5 10t8.5 6q11 3 21 -7q15 -14 15.5 -36t-15.5 -35q-19 -16 -49 -13q-25 4 -46 25l-6 6l-7 7t-7 5.5t-8 3.5h-6q-1 0 -2 -1z" />
    <glyph glyph-name="odieresis" unicode="&#xf6;" horiz-adv-x="371" 
d="M83 609q86 19 149 -21q44 -28 66.5 -74.5t21.5 -101.5q0 -49 -4 -68q-2 -8 8 -10q1 0 7.5 -1t8 -1.5t7.5 -1.5t8.5 -2.5t8 -3.5t9 -4.5t8 -6.5t8.5 -9q7 -7 9.5 -13.5t-1 -12.5t-13.5 -9q-21 -6 -31 2q-5 9 -27 14.5t-32 -0.5q-7 -5 -8 -8q-10 -21 -23.5 -38.5t-33.5 -38
t-31 -33.5q-11 -14 -23.5 -27.5t-30.5 -31t-37 -30t-38.5 -20.5t-39 -6t-35.5 16q-19 15 -30 49q-7 21 1.5 62t19.5 64q2 4 7.5 9.5t8 10.5t0.5 11q-2 7 -8 11t-10 5t-18 5q-69 19 -84 60q-16 44 -2 80.5t51 75.5q69 73 136 93q3 1 8.5 2.5t8.5 2.5zM231 283q1 1 -1.5 3
t-4.5 2q-29 -7 -158 -14q-3 0 -3 -4q0 -2 1 -3q5 -3 13 -11q9 -9 5 -21q-4 -8 -12 -31.5t-12 -32.5q-14 -27 -18 -52q-3 -19 14 -15q22 5 43 24q30 26 43 39q39 37 70 79q17 26 20 37zM179 577q-22 3 -46 -3q-111 -33 -181 -140q-12 -19 -18 -34t-6.5 -30.5t12 -27.5
t38.5 -20q46 -10 116 -10q111 5 151 18q13 5 16 8q13 13 13 49q0 5 0.5 28.5t0 36.5t-2.5 32.5t-8.5 33.5t-16.5 24q-31 29 -68 35zM126 738q12 2 19.5 -5t7.5 -20q0 -32 -25 -50q-11 -7 -21 -6q-16 1 -26.5 14.5t-3.5 28.5q16 31 49 38zM246 713q1 -10 -7 -26t-19 -24
q-11 -7 -20 -6q-16 1 -27 14.5t-4 28.5q18 32 49 38q25 3 28 -25z" />
    <glyph glyph-name="divide" unicode="&#xf7;" horiz-adv-x="333" 
d="M126 291q-9 7 -6.5 21t12.5 20q14 8 26 1t10 -22q-1 -17 -14.5 -24.5t-27.5 4.5zM130 154q15 4 25.5 -5t7.5 -21q-10 -29 -29 -25q-20 4 -25 22.5t21 28.5zM24 236h226q13 -3 13.5 -16.5t-13.5 -16.5q-7 -1 -65 -1h-162q-9 0 -12 8t1 16.5t12 9.5z" />
    <glyph glyph-name="oslash" unicode="&#xf8;" horiz-adv-x="371" 
d="M83 609q86 19 149 -21q19 -13 32 -27q24 43 27 46q4 4 18 -1q20 -19 -20 -73q-1 -1 -1 -2q32 -51 32 -119q0 -49 -4 -68q-2 -8 8 -10q1 0 7.5 -1t8 -1.5t7.5 -1.5t8.5 -2.5t8 -3.5t9 -4.5t8 -6.5t8.5 -9q7 -7 9.5 -13.5t-1 -12.5t-13.5 -9q-21 -6 -31 2q-5 9 -27 14.5
t-32 -0.5q-7 -5 -8 -8q-14 -18 -43.5 -54.5t-44.5 -55.5q-36 -46 -84 -84t-89 -30l-20 -37q-6 -13 -14 -14q-11 -3 -18 14q-4 17 17 55q-15 15 -26 46q-7 21 1.5 62t19.5 64q2 4 7.5 9.5t8 10.5t0.5 11q-2 7 -8 11t-10 5t-18 5q-69 19 -84 60q-16 44 -2 80.5t51 75.5
q72 76 153 98zM179 577q-22 3 -46 -3q-111 -33 -181 -140q-12 -19 -18 -34t-6.5 -30.5t12 -27.5t38.5 -20q46 -10 116 -10q17 0 24 1q60 112 132 226l-3 3q-31 29 -68 35zM231 283q1 1 -1.5 3t-4.5 2q-39 -9 -87 -11q-6 -13 -35 -72.5t-51 -101.5q10 1 25 10t21 15
q30 26 43 39q39 37 70 79q17 26 20 37zM268 502q-65 -102 -110 -187q51 3 87 15q13 5 16 8q13 13 13 49q0 6 0.5 25t0.5 31t-2 29t-5 30zM84 246l15 29q-6 0 -16.5 -0.5t-15.5 -0.5q-4 0 -2 -7q12 -6 19 -21z" />
    <glyph glyph-name="ugrave" unicode="&#xf9;" horiz-adv-x="364" 
d="M339 152q-44 -58 -90 -43q-8 3 -15 7t-11.5 7.5t-9.5 10.5t-6.5 9.5t-5.5 10t-5 8.5t-3.5 0.5t-3.5 -2.5q0 -1 -1.5 -4.5t-3.5 -8t-3 -9.5q-2 -5 -7 -19t-7 -19.5t-7 -15.5t-10 -18t-12 -16q-29 -31 -73 -19.5t-61 47.5q-9 18 -14.5 39.5t-6.5 43t-0.5 40.5t3.5 39.5
t5 33t5.5 27t3.5 16.5q4 22 33 26.5t40 -12.5q10 -14 5 -44q-25 -115 -2 -175q7 -18 17 -22t19.5 4.5t18 21t14.5 26.5q22 51 23 90q3 48 17 81q14 19 43 19q31 -6 26 -35q-9 -54 -9 -73q-1 -22 10.5 -51t33.5 -19q7 4 25 28.5t42 62.5l25 38q6 7 11 19.5t7 15.5q5 7 13 7.5
t13 -6.5q4 -7 2 -24q-2 -14 -36.5 -67.5t-51.5 -75.5zM89 611q11 9 18 -1q6 -8 18.5 -23.5t20 -24.5t19.5 -20.5t24 -19.5q16 -13 17 -15q7 -6 3 -19t-14 -11l-9 3q-54 28 -101 88q-6 8 -4.5 21.5t8.5 21.5z" />
    <glyph glyph-name="uacute" unicode="&#xfa;" horiz-adv-x="364" 
d="M339 152q-44 -58 -90 -43q-8 3 -15 7t-11.5 7.5t-9.5 10.5t-6.5 9.5t-5.5 10t-5 8.5t-3.5 0.5t-3.5 -2.5q0 -1 -1.5 -4.5t-3.5 -8t-3 -9.5q-2 -5 -7 -19t-7 -19.5t-7 -15.5t-10 -18t-12 -16q-29 -31 -73 -19.5t-61 47.5q-9 18 -14.5 39.5t-6.5 43t-0.5 40.5t3.5 39.5
t5 33t5.5 27t3.5 16.5q4 22 33 26.5t40 -12.5q10 -14 5 -44q-25 -115 -2 -175q7 -18 17 -22t19.5 4.5t18 21t14.5 26.5q22 51 23 90q3 48 17 81q14 19 43 19q31 -6 26 -35q-9 -54 -9 -73q-1 -22 10.5 -51t33.5 -19q7 4 25 28.5t42 62.5l25 38q6 7 11 19.5t7 15.5q5 7 13 7.5
t13 -6.5q4 -7 2 -24q-2 -14 -36.5 -67.5t-51.5 -75.5zM214 625q7 -8 9 -21t-4 -22q-48 -61 -104 -89q-2 -2 -8 -4q-11 -2 -14.5 11t2.5 20q7 8 18 15q16 10 29 23t31.5 37t22.5 29q8 13 18 1z" />
    <glyph glyph-name="ucircumflex" unicode="&#xfb;" horiz-adv-x="364" 
d="M339 152q-44 -58 -90 -43q-8 3 -15 7t-11.5 7.5t-9.5 10.5t-6.5 9.5t-5.5 10t-5 8.5t-3.5 0.5t-3.5 -2.5q0 -1 -1.5 -4.5t-3.5 -8t-3 -9.5q-2 -5 -7 -19t-7 -19.5t-7 -15.5t-10 -18t-12 -16q-29 -31 -73 -19.5t-61 47.5q-9 18 -14.5 39.5t-6.5 43t-0.5 40.5t3.5 39.5
t5 33t5.5 27t3.5 16.5q4 22 33 26.5t40 -12.5q10 -14 5 -44q-25 -115 -2 -175q7 -18 17 -22t19.5 4.5t18 21t14.5 26.5q22 51 23 90q3 48 17 81q14 19 43 19q31 -6 26 -35q-9 -54 -9 -73q-1 -22 10.5 -51t33.5 -19q7 4 25 28.5t42 62.5l25 38q6 7 11 19.5t7 15.5q5 7 13 7.5
t13 -6.5q4 -7 2 -24q-2 -14 -36.5 -67.5t-51.5 -75.5zM59 542q6 6 24 20t24 21q23 21 42 21q15 0 26 -10t22.5 -28.5t20.5 -27.5l4 -6q5 -5 6 -7q3 -8 -1 -13.5t-11 -5.5q-17 -1 -29 15q-24 32 -38 43q-3 0 -4 -1q-5 -5 -14.5 -14t-17.5 -16.5t-15 -13.5q-7 -7 -19 -7
q-8 1 -17 7t-8 14q2 7 5 9z" />
    <glyph glyph-name="udieresis" unicode="&#xfc;" horiz-adv-x="364" 
d="M339 152q-44 -58 -90 -43q-8 3 -15 7t-11.5 7.5t-9.5 10.5t-6.5 9.5t-5.5 10t-5 8.5t-3.5 0.5t-3.5 -2.5q0 -1 -1.5 -4.5t-3.5 -8t-3 -9.5q-2 -5 -7 -19t-7 -19.5t-7 -15.5t-10 -18t-12 -16q-29 -31 -73 -19.5t-61 47.5q-9 18 -14.5 39.5t-6.5 43t-0.5 40.5t3.5 39.5
t5 33t5.5 27t3.5 16.5q4 22 33 26.5t40 -12.5q10 -14 5 -44q-25 -115 -2 -175q7 -18 17 -22t19.5 4.5t18 21t14.5 26.5q22 51 23 90q3 48 17 81q14 19 43 19q31 -6 26 -35q-9 -54 -9 -73q-1 -22 10.5 -51t33.5 -19q7 4 25 28.5t42 62.5l25 38q6 7 11 19.5t7 15.5q5 7 13 7.5
t13 -6.5q4 -7 2 -24q-2 -14 -36.5 -67.5t-51.5 -75.5zM106 579q12 2 19.5 -5t7.5 -20q0 -32 -25 -50q-11 -7 -21 -6q-16 1 -26.5 14.5t-3.5 28.5q16 31 49 38zM226 554q1 -10 -7 -26t-19 -24q-11 -7 -20 -6q-16 1 -27 14.5t-4 28.5q18 32 49 38q25 3 28 -25z" />
    <glyph glyph-name="yacute" unicode="&#xfd;" horiz-adv-x="430" 
d="M124 154q9 6 9 18q8 86 9 91q1 6 3 41q-2 -5 -6 -19t-6.5 -21.5t-7 -19t-9.5 -20.5t-12 -16q-15 -19 -37 -30q-33 -15 -69 25v1q-23 29 -2 111q2 8 8 26q7 17 27 17h2q6 0 11.5 -5t5.5 -11l-2 -6q-1 -7 -2.5 -15t-1.5 -11q-5 -47 -3 -59q7 -16 17 -10t20 20q5 7 23 41
q7 14 16.5 38.5t14.5 35.5q14 28 24 39q7 10 19 10q13 0 18 -9q9 -21 10 -37q4 -55 -1 -143q0 -3 -1 -10t-1 -11.5t1 -9.5q3 -9 21 2q101 63 168 9q17 -12 18 -34q0 -22 -15 -25.5t-28 13.5q-2 3 -5 8t-4.5 8t-5 6.5t-7.5 5.5q-43 22 -130 -39q-14 -9 -14 -16t-2.5 -23.5
t-2.5 -20.5q-1 -10 -4.5 -51t-6.5 -62q-74 -474 -329 -611q-20 -11 -30 -15.5t-29.5 -12.5t-33 -10.5t-31.5 -2t-34 6.5q-49 17 -68 34q-10 8 -16 21q-4 8 -6 17.5t-3.5 18t-0.5 21t1.5 19.5t3 21.5t3 19t4 20.5t3.5 17q18 83 60.5 162t104 148t122 123t136.5 111
q58 44 84 60zM126 84q0 3 1 11.5t1 11.5q-91 -58 -169 -124t-147 -146t-113.5 -173.5t-56.5 -190.5q-6 -47 21.5 -71.5t75.5 -18.5q94 12 180 109q100 113 152 288q35 120 55 304zM174 557q7 -8 9 -21t-4 -22q-48 -61 -104 -89q-2 -2 -8 -4q-11 -2 -14.5 11t2.5 20
q7 8 18 15q16 10 29 23t31.5 37t22.5 29q8 13 18 1z" />
    <glyph glyph-name="ydieresis" unicode="&#xff;" horiz-adv-x="430" 
d="M124 154q9 6 9 18q8 86 9 91q1 6 3 41q-2 -5 -6 -19t-6.5 -21.5t-7 -19t-9.5 -20.5t-12 -16q-15 -19 -37 -30q-33 -15 -69 25v1q-23 29 -2 111q2 8 8 26q7 17 27 17h2q6 0 11.5 -5t5.5 -11l-2 -6q-1 -7 -2.5 -15t-1.5 -11q-5 -47 -3 -59q7 -16 17 -10t20 20q5 7 23 41
q7 14 16.5 38.5t14.5 35.5q14 28 24 39q7 10 19 10q13 0 18 -9q9 -21 10 -37q4 -55 -1 -143q0 -3 -1 -10t-1 -11.5t1 -9.5q3 -9 21 2q101 63 168 9q17 -12 18 -34q0 -22 -15 -25.5t-28 13.5q-2 3 -5 8t-4.5 8t-5 6.5t-7.5 5.5q-43 22 -130 -39q-14 -9 -14 -16t-2.5 -23.5
t-2.5 -20.5q-1 -10 -4.5 -51t-6.5 -62q-74 -474 -329 -611q-20 -11 -30 -15.5t-29.5 -12.5t-33 -10.5t-31.5 -2t-34 6.5h-2q-48 19 -66 34q-10 8 -16 21q-4 8 -6 17.5t-3.5 18t-0.5 21t1.5 19.5t3 21.5t3 19t4 20.5t3.5 17q18 83 60.5 162t104 148t122 123t136.5 111
q58 44 84 60zM126 84q0 3 1 11.5t1 11.5q-91 -58 -169 -124t-147 -146t-113.5 -173.5t-56.5 -190.5q-6 -47 21.5 -71.5t75.5 -18.5q94 12 180 109q100 113 152 288q35 120 55 304zM94 555q12 2 19.5 -5t7.5 -20q0 -32 -25 -50q-11 -7 -21 -6q-16 1 -26.5 14.5t-3.5 28.5
q16 31 49 38zM214 530q1 -10 -7 -26t-19 -24q-11 -7 -20 -6q-16 1 -27 14.5t-4 28.5q18 32 49 38q25 3 28 -25z" />
    <glyph glyph-name="Abreve" unicode="&#x102;" horiz-adv-x="560" 
d="M29 381q84 20 129 33q10 3 13 14q10 32 14 48q67 268 80 313q5 16 15 50q2 6 5 13q4 13 17 13q15 0 23 -1q5 0 15 -2q31 -10 22 -40q-4 -10 -10 -32t-9 -32q-4 -14 0 -29q7 -25 15 -73.5t12 -65.5q3 -14 10 -40t12 -44.5t5 -19.5q2 -6 9 -6q4 0 6 1q15 4 74 17t90 21
q19 5 48 -7h1q1 -1 2 -1q10 -7 7 -15q-2 -8 -10 -8q-31 -4 -82.5 -13.5t-89.5 -17.5t-40 -10q-7 -6 -6 -13q6 -29 17.5 -102.5t20.5 -112.5q12 -51 35.5 -146t33.5 -135q2 -10 1 -14q-2 -11 -14.5 -14t-21.5 4q-13 10 -17 40q-4 32 -10.5 64.5t-19 83t-15.5 63.5
q-46 200 -54 245q0 4 -2 12q-4 9 -12 7q-10 -2 -86 -24q-12 -4 -16 -16q-1 -7 -5 -20t-5 -19q-24 -92 -35.5 -141t-23.5 -127t-13 -144q0 -8 -2 -26q-5 -26 -32 -23q-8 1 -24 9q-26 17 -22 44q2 20 4.5 65.5t5.5 68.5q6 46 24 138q4 18 19 71t19 83q1 5 -2.5 8t-8.5 1
q-13 -4 -43 -13t-46 -15q-20 -7 -45 5l-8 8q-6 6 1 10q23 8 25 9zM265 452q0 -7 8 -7q38 8 68 15q9 4 9 16q0 1 -2 13q-5 28 -13.5 82t-13.5 83l-2 1q-5 -2 -5 -3q-1 -1 -1.5 -4t-0.5 -4q-12 -53 -16 -65q-10 -34 -29 -115q-1 -2 -1 -6t-1 -6zM258 1020q10 10 24 9
q12 -2 17 -11q5 -11 -9 -32q-12 -21 1 -33q24 -19 78 -2q10 3 16 9q10 14 -5 36q-10 12 -7 18q6 12 17 5q9 -7 13 -15q24 -42 2 -67q-11 -9 -35 -15q-29 -10 -67.5 -2.5t-51.5 36.5q-7 13 -5 33t12 31z" />
    <glyph glyph-name="abreve" unicode="&#x103;" 
d="M328 325q7 6 18 0.5t6 -15.5q-3 -5 -17 -32q-26 -54 -39 -89q-4 -12 -16 -43t-18 -48q-16 -49 -26 -94q-12 -49 -26 -73q-16 -11 -36 -11q-30 1 -35 3.5t-21 26.5t-27 63q-2 9 -4 19.5t-4.5 23.5t-3.5 20l-6 21q-3 9 -11 5q-27 -12 -80 -8q-38 4 -49 74q-9 45 8 77
q24 44 86 100q16 7 40 4t45 -9q3 0 3.5 -4t-1.5 -6q-26 -22 -35 -37q-4 -7 -21.5 -18.5t-20.5 -20.5q-10 -30 -10 -58q0 -14 7 -18q8 -3 15 6q22 25 28 35.5t17 41.5q16 40 28 57q10 14 27 12q5 0 10.5 -1t12 -2.5t10.5 -2.5t6 -6t0 -8q-27 -52 -29 -139q-1 -24 -1 -93
q2 -87 21 -102h10q7 0 10 12q59 193 105 294q10 21 24 43zM48 495q10 10 24 9q12 -2 17 -11q5 -11 -9 -32q-12 -21 1 -33q24 -19 78 -2q10 3 16 9q10 14 -5 36q-10 12 -7 18q6 12 17 5q9 -7 13 -15q24 -42 2 -67q-11 -9 -35 -15q-29 -10 -67.5 -2.5t-51.5 36.5q-7 13 -5 33
t12 31z" />
    <glyph glyph-name="Aogonek" unicode="&#x104;" horiz-adv-x="560" 
d="M458 -204q-42 3 -55 37q-20 49 -1 80q8 13 27 22.5t34 3.5q-2 10 -2 15q-4 32 -10.5 64.5t-19 83t-15.5 63.5q-46 200 -54 245q0 4 -2 12q-4 9 -12 7q-19 -3 -22 -4q-12 -3 -33 -10t-31 -10q-12 -4 -16 -16l-10 -39q-24 -92 -35.5 -141t-23.5 -127t-13 -144
q0 -13 -1.5 -23t-10 -19t-22.5 -7q-8 1 -24 9q-26 17 -22 44q2 20 4.5 65.5t5.5 68.5q6 46 24 138q4 18 19 71t19 83q1 5 -2.5 8t-8.5 1q-16 -5 -17 -6q-6 -4 -30 -10q-21 -5 -42 -12q-20 -7 -45 5l-8 8q-6 6 1 10q23 8 25 9q57 13 65 15q3 0 64 18q10 3 13 14q10 32 14 48
q67 268 80 313l15 50q2 6 5 13q4 13 17 13q15 0 23 -1q5 0 15 -2q31 -10 22 -40q-4 -10 -10 -32t-9 -32q-4 -14 0 -29q7 -25 15 -73.5t12 -65.5q3 -14 10 -40t12 -44.5t5 -19.5q2 -6 9 -6q4 0 6 1q15 4 74 17t90 21q19 5 48 -7h1q1 -1 2 -1q10 -7 7 -15q-2 -8 -10 -8
q-31 -4 -82.5 -13.5t-89.5 -17.5t-40 -10q-7 -6 -6 -13q6 -29 17.5 -102.5t20.5 -112.5q13 -54 37.5 -153t30.5 -126q5 -14 2.5 -26.5t-15.5 -9.5q-24 7 -34 1q-15 -10 -13 -29q2 -25 12 -35q9 -6 18.5 -5.5t18.5 2.5t10 1q4 1 11 -9q6 -10 0 -18q-17 -23 -64 -16zM265 452
q0 -7 8 -7q1 1 3 1h3l62 14q9 4 9 16q0 1 -2 13q-5 28 -13.5 82t-13.5 83l-2 1q-5 -2 -5 -3l-2 -8q-12 -53 -16 -65q-10 -34 -29 -115z" />
    <glyph glyph-name="aogonek" unicode="&#x105;" 
d="M150 -215q-42 3 -55 37q-20 49 -1 80q13 21 39 27q-1 1 -15 21q-16 24 -27 63q-2 9 -4 19.5t-4.5 23.5t-3.5 20l-6 21q-3 9 -11 5q-27 -12 -80 -8q-38 4 -49 74q-9 45 8 77q4 8 44 59q5 7 42 41q15 13 36 11q16 -2 29 -6q3 0 3.5 -4t-1.5 -6q-26 -22 -35 -37
q-13 -22 -22 -49q-10 -30 -10 -58q0 -14 7 -18q8 -3 15 6q22 25 28 35.5t17 41.5q16 40 28 57q10 14 27 12q5 0 10.5 -1t12 -2.5t10.5 -2.5t6 -6t0 -8q-27 -52 -29 -139q-1 -24 -1 -93q2 -87 21 -102h10q7 0 10 12q59 193 105 294q10 21 24 43q7 6 18 0.5t6 -15.5
q-3 -5 -17 -32q-26 -54 -39 -89q-4 -12 -16 -43t-18 -48q-16 -49 -26 -94q-12 -49 -31 -76q5 -12 2.5 -25t-16.5 -10q-24 7 -34 1q-15 -10 -13 -29q2 -25 12 -35q9 -6 18.5 -5.5t18.5 2.5t10 1q4 1 11 -9q6 -10 0 -18q-17 -23 -64 -16z" />
    <glyph glyph-name="Cacute" unicode="&#x106;" horiz-adv-x="708" 
d="M669 850q8 -6 11 -9q46 -41 50.5 -106.5t-38.5 -107.5q-4 -4 -7 -5q-7 -2 -13 3t-7 13t6 28q16 43 5 91t-45 79q-14 12 -23 14q-10 2 -28 -4q-58 -20 -126 -87q-135 -131 -245 -346q-105 -209 -103 -363q2 -61 20 -97q24 -52 71 -65q50 -14 124 27q56 30 108.5 68
t129.5 100.5t100 80.5q11 9 19 8q14 -4 10 -21q-2 -10 -14 -22q-118 -117 -256 -205q-75 -49 -136.5 -72.5t-121.5 -6.5q-62 18 -104.5 79t-51.5 133q-14 107 47 265q111 284 308 481q41 41 93.5 64.5t111.5 21t105 -38.5zM658 1060q7 -8 9 -21t-4 -22q-48 -61 -104 -89
q-2 -2 -8 -4q-11 -2 -14.5 11t2.5 20q7 7 18 15q16 10 29 23t31.5 37t22.5 29q8 13 18 1z" />
    <glyph glyph-name="cacute" unicode="&#x107;" horiz-adv-x="288" 
d="M121 496q13 -2 21 -10q20 -22 24 -39q3 -9 -5 -15q-5 -3 -11.5 -3t-7.5 4q-10 20 -22 1q-15 -26 -32 -102q-12 -57 -16 -101q-5 -66 4 -116q5 -28 14 -47q6 -14 15.5 -17t20 5t20 17t20 25t15 23t9.5 16q10 19 35.5 66.5t36.5 67.5q5 9 11 20t9.5 18t5.5 9q10 10 21 1
q2 -2 2.5 -7.5t-0.5 -7.5q-15 -40 -38 -84t-41.5 -75.5t-20.5 -35.5q-14 -31 -42.5 -63.5t-55.5 -39.5q-33 -8 -66.5 34.5t-42.5 79.5q-16 71 -15 112q4 157 69 239q11 14 28 20q21 6 35 5zM184 650q7 -8 9 -21t-4 -22q-48 -61 -104 -89q-2 -2 -8 -4q-11 -2 -14.5 11t2.5 20
q7 7 18 15q16 10 29 23t31.5 37t22.5 29q8 13 18 1z" />
    <glyph glyph-name="Ccaron" unicode="&#x10c;" horiz-adv-x="708" 
d="M669 850q8 -6 11 -9q46 -41 50.5 -106.5t-38.5 -107.5q-4 -4 -7 -5q-7 -2 -13 3t-7 13t6 28q16 43 5 91t-45 79q-14 12 -23 14q-10 2 -28 -4q-58 -20 -126 -87q-135 -131 -245 -346q-105 -209 -103 -363q2 -61 20 -97q24 -52 71 -65q50 -14 124 27q56 30 108.5 68
t129.5 100.5t100 80.5q11 9 19 8q14 -4 10 -21q-2 -10 -14 -22q-118 -117 -256 -205q-75 -49 -136.5 -72.5t-121.5 -6.5q-62 18 -104.5 79t-51.5 133q-14 107 47 265q111 284 308 481q41 41 93.5 64.5t111.5 21t105 -38.5zM669 991q-24 -28 -37 -42q-11 -15 -21 -16
q-11 -3 -23 6q-2 1 -15 18q-8 11 -24.5 31.5t-18.5 23.5q-1 2 -2.5 4.5t-2.5 4.5q-2 9 4 11.5t15 2.5q8 1 17 -3q4 -2 8 -7l4 -5q9 -16 31 -44q31 33 36 41q10 10 15 12q4 3 16 1q7 0 11 -4q5 -5 5 -13q-1 -1 -2.5 -3.5t-2.5 -3.5q-3 -3 -13 -15z" />
    <glyph glyph-name="ccaron" unicode="&#x10d;" horiz-adv-x="288" 
d="M121 496q13 -2 21 -10q20 -22 24 -39q3 -9 -5 -15q-5 -3 -11.5 -3t-7.5 4q-10 20 -22 1q-15 -26 -32 -102q-12 -57 -16 -101q-5 -66 4 -116q5 -28 14 -47q6 -14 15.5 -17t20 5t20 17t20 25t15 23t9.5 16q10 19 35.5 66.5t36.5 67.5q5 9 11 20t9.5 18t5.5 9q10 10 21 1
q2 -2 2.5 -7.5t-0.5 -7.5q-15 -40 -38 -84t-41.5 -75.5t-20.5 -35.5q-14 -31 -42.5 -63.5t-55.5 -39.5q-33 -8 -66.5 34.5t-42.5 79.5q-16 71 -15 112q4 157 69 239q11 14 28 20q21 6 35 5zM175 584q-24 -28 -37 -42q-11 -15 -21 -16q-11 -3 -23 6q-2 2 -15 18
q-8 11 -24.5 31.5t-18.5 23.5q-1 2 -2.5 4.5t-2.5 4.5q-2 9 4 11.5t15 2.5q8 1 17 -3l12 -12q9 -16 31 -44q31 33 36 41q10 10 15 12q4 3 16 1q7 0 11 -4q5 -5 5 -13q-1 -1 -2.5 -3.5t-2.5 -3.5q-3 -3 -13 -15z" />
    <glyph glyph-name="Dcaron" unicode="&#x10e;" horiz-adv-x="630" 
d="M548 538q77 -316 -355 -741q-11 -11 -49 -43.5t-56 -52.5q-10 -11 -24.5 -4t-19 20t3.5 23q14 12 52 44q8 7 21.5 19.5t25.5 23t23 18.5q10 8 11 18q-29 594 -16 857q5 14 -8 19q-3 0 -17 -1.5t-32 -3t-26 -2.5q-34 -3 -60 3q-3 0 -5.5 1.5t-5.5 3.5t-5 3q-5 4 -5 10t4 9
q7 5 80 16t78 14q9 4 16 22q6 17 28.5 19t30.5 -11q3 -5 4 -12.5t3 -12.5q1 0 7 -2t10 -2q103 -7 181.5 -80.5t104.5 -174.5zM497 314q29 101 4 204q-21 89 -86.5 154t-154.5 66q-4 1 -8 -2.5t-5 -8.5v-184q1 -8 4 -291.5t3 -296.5q0 -4 3.5 -9.5t7.5 -1.5q75 76 139.5 175
t92.5 195zM274 931q-24 -28 -37 -42q-11 -15 -21 -16q-11 -3 -23 6q-2 1 -15 18q-8 11 -24.5 31.5t-18.5 23.5q-1 2 -2.5 4.5t-2.5 4.5q-2 9 4 11.5t15 2.5q8 1 17 -3q3 -2 5 -4t4 -4.5t3 -3.5q9 -16 31 -44q31 33 36 41q10 10 15 12q4 3 16 1q7 0 11 -4q5 -5 5 -13
q-1 -1 -2.5 -3.5t-2.5 -3.5q-3 -3 -13 -15z" />
    <glyph glyph-name="dcaron" unicode="&#x10f;" horiz-adv-x="491" 
d="M8 351q25 43 56 38q48 -8 67 -39q5 -9 12.5 -28.5t7.5 -27.5q3 -17 -15 -22q-25 -5 -29 11q0 2 -0.5 11.5t-1.5 16t-6.5 12.5t-14.5 6q-10 -1 -13 -41.5t-1 -62.5q1 -17 12.5 -33.5t26.5 -22.5t31 20q15 25 27 90.5t15 111.5q5 67 24.5 191.5t22.5 144.5q7 12 13.5 17.5
t22.5 11.5q12 4 25.5 -3.5t14.5 -24.5l-5 -53q-38 -346 -32 -536q1 -34 14 -112.5t17 -95.5q10 -38 45 38q2 4 4 9q10 26 30 76.5t31 76.5q8 20 22 60.5t16 45.5q3 10 9 40.5t10 40.5q17 4 22 -13q-2 -5 -13 -55t-13 -55q-6 -17 -17.5 -52.5t-17.5 -52.5q-3 -6 -28 -75
t-29 -78q-13 -27 -19 -38t-17.5 -19t-28.5 -8q-34 0 -44 23q-35 82 -50 137.5t-20 133.5q-3 37 -1 83q0 13 -1 14q-13 -88 -42 -117q-54 -54 -124 0q-26 20 -30.5 96.5t15.5 108.5zM467 777q6 -46 -28.5 -92t-81.5 -50q-9 -2 -17 8q-3 4 -2 8.5t7 4.5q27 3 59 47q4 4 0 9
q0 4 -2 6q-9 16 -15 56q-5 19 51 19q14 0 22 -4q7 -2 7 -12z" />
    <glyph glyph-name="Dcroat" unicode="&#x110;" horiz-adv-x="630" 
d="M548 538q77 -316 -355 -741q-11 -11 -49 -43.5t-56 -52.5q-10 -11 -24.5 -4t-19 20t3.5 23l52 44q8 7 21.5 19.5t25.5 23t23 18.5q10 8 11 18q-11 234 -16 440q-6 0 -35 -1.5t-35 0.5q-16 1 -37.5 10t-17.5 22q1 4 6 6.5t13 3.5t14.5 1t14.5 -0.5t10 -0.5l66 2
q-5 258 1 374q5 14 -8 19l-75 -7q-34 -3 -60 3q-3 0 -5.5 1.5t-5.5 3.5t-5 3q-5 4 -5 10t4 9q7 5 80 16t78 14q9 4 16 22q6 17 28.5 19t30.5 -11q3 -5 4 -12.5t3 -12.5q1 0 7 -2t10 -2q103 -7 181.5 -80.5t104.5 -174.5zM497 314q29 101 4 204q-21 89 -86.5 154t-154.5 66
q-4 1 -8 -2.5t-5 -8.5v-184q0 -1 0.5 -27.5t1.5 -73.5t1 -93q2 0 46 1.5t49 -0.5q16 -2 32 -12q18 -12 0 -24q-7 -3 -17 -3q-106 -6 -110 -6q4 -324 4 -350q0 -4 3.5 -9.5t7.5 -1.5q75 76 139.5 175t92.5 195z" />
    <glyph glyph-name="dcroat" unicode="&#x111;" horiz-adv-x="491" 
d="M144 615q-15 1 -35.5 10t-17.5 21q2 5 9.5 7t15 1.5t18 -1t12.5 -0.5h59h13l11 74q7 12 13.5 17.5t22.5 11.5q12 4 25.5 -3.5t14.5 -24.5l-5 -53q-2 -12 -2 -19q56 5 68 4q19 -1 41 -14q7 -8 8 -9q1 -8 -7 -14q-9 -3 -16 -3l-99 -6q-32 -296 -25 -475q1 -34 14 -112.5
t17 -95.5q10 -38 45 38q2 4 4 9l64 155q34 80 46 98l33 51q9 0 12.5 -3.5t5.5 -13.5q-3 -5 -14 -24t-14 -23q-9 -14 -15 -28q-8 -19 -40 -97q-4 -8 -25.5 -74t-25.5 -82q-17 -62 -33 -80q-3 -4 -10 -13.5t-11 -13.5t-11.5 -9t-16.5 -7q-34 -6 -42 21q-48 148 -60 331
q-3 37 -1 83q0 13 -1 14q-18 -124 -42 -148q-54 -54 -124 0q-37 29 -30 205q2 49 32 59q47 15 78 -4q9 -5 24.5 -19t18.5 -22q11 -14 -3 -26q-20 -16 -31 -3q0 1 -7 13t-15 17t-19 0q-11 -6 -1 -141q1 -17 12.5 -33.5t26.5 -22.5t31 20q15 25 26.5 102t15.5 131q5 74 29 222
q-45 0 -67 2z" />
    <glyph glyph-name="Eogonek" unicode="&#x118;" horiz-adv-x="499" 
d="M9 277q-5 2 -8 12q3 5 5 5l48 12q20 7 20 25q2 28 2 42q10 230 21 343q1 22 -19 22q-37 1 -65 29l-6 9q-1 2 1 5.5t4 3.5q7 0 21 0.5t21 0.5l34 2q7 0 11 9l6 18q15 6 46 8q40 2 58 -29q8 -13 25 -15l141 -15q25 -4 36 -12q6 -5 11 -11q3 -5 1 -10q-2 -6 -7 -8
q-12 -1 -59.5 1.5t-89 5.5t-42.5 3q-16 0 -18 -15q-5 -20 -6 -38q-13 -119 -17 -290q0 -6 0.5 -17.5t0.5 -17.5q2 -12 14 -10t18 4l177 48q25 6 46 -2q8 -3 13 -12q6 -12 -5 -16q-8 -2 -12 -2q-17 -3 -89.5 -26.5t-102.5 -36.5q-7 -3 -15.5 -5.5t-19 -5t-16.5 -4.5
q-12 -5 -14 -17q-1 -7 -1 -23q-2 -42 -1 -65q1 -47 -1.5 -156.5t0.5 -156.5q0 -6 4.5 -7.5t9.5 1.5q35 22 98 79.5t102 79.5q3 2 26 22q11 9 25 6q8 -3 17 -8q4 -1 4.5 -6t-1.5 -7q-39 -37 -103 -86q-11 -8 -69 -59q7 -6 12 -16t3.5 -19.5t-13.5 -9.5q-24 2 -33 -7
q-12 -14 -5 -31q9 -25 20 -31q10 -4 19 -1t17.5 7t9.5 3q3 2 13 -5q9 -9 4 -18q-5 -14 -22.5 -22t-34.5 -9q-41 -8 -63 22q-18 23 -22 46q-2 -2 -2 -4q-19 -28 -53 -18q-45 12 -57 55q-6 18 -7 26q-6 15 -3.5 134t2.5 134l-3 118q0 5 -2 11q-2 8 -14 13t-27 9t-19 6z" />
    <glyph glyph-name="eogonek" unicode="&#x119;" horiz-adv-x="309" 
d="M73 -163q-42 3 -55 37q-20 49 -1 80q5 9 20 19q-27 11 -48 46q-26 42 -26 111q0 28 6 70q13 104 60 180q38 54 63 68q15 8 29 8q26 0 44.5 -24.5t20.5 -55.5q4 -68 -30 -156q-4 -8 -22 -49t-31 -63q-18 -32 -36 -48q14 -19 29 -19q25 0 49 30q28 30 78 114q81 129 86 133
q6 4 9 4q14 0 17 -21t-4 -30l-15 -25l-47 -79q-25 -43 -42 -70t-43.5 -59.5t-51.5 -49.5q-4 -2 -6 -4q7 -12 5 -27t-17 -12q-24 7 -34 1q-15 -10 -13 -29q2 -25 12 -35q9 -6 18.5 -5.5t18.5 2.5t10 1q4 1 11 -9q6 -10 0 -18q-17 -23 -64 -16zM47 114q11 8 27 32t20 36
q34 72 50 140q5 22 5 36q0 46 -29 46q-24 0 -53 -71q-16 -40 -27 -116q-4 -29 -1.5 -58.5t8.5 -44.5z" />
    <glyph glyph-name="Ecaron" unicode="&#x11a;" horiz-adv-x="499" 
d="M354 881q-26 -32 -36 -44q-12 -14 -21 -15q-11 -5 -22 5q-4 3 -16 18q-8 10 -44 54q-4 6 -5 9q-2 8 4.5 11t14.5 3q10 2 17 -3q5 -4 12 -11q10 -20 32 -43q23 23 35 41q11 11 14 13q3 1 17 1q10 -3 11 -4q5 -5 5 -13q0 -1 -5 -8q-3 -2 -7 -7t-6 -7zM9 277q-5 2 -8 12
q3 5 5 5l48 12q20 7 20 25q2 28 2 42q10 230 21 343q1 22 -19 22q-37 1 -65 29l-6 9q-1 2 1 5.5t4 3.5q7 0 21 0.5t21 0.5q6 1 17 1.5t17 0.5q7 0 11 9l6 18q15 6 46 8q40 2 58 -29q8 -13 25 -15l141 -15q25 -4 36 -12q6 -5 11 -11q3 -5 1 -10q-2 -6 -7 -8q-12 -1 -59.5 1.5
t-89 5.5t-42.5 3q-16 0 -18 -15q-5 -20 -6 -38q-13 -119 -17 -290q0 -6 0.5 -17.5t0.5 -17.5q2 -12 14 -10t18 4l177 48q25 6 46 -2q8 -3 13 -12q6 -12 -5 -16q-8 -2 -12 -2q-17 -3 -89.5 -26.5t-102.5 -36.5q-7 -3 -15.5 -5.5t-19 -5t-16.5 -4.5q-12 -5 -14 -17
q-1 -7 -1 -23q-2 -42 -1 -65q1 -47 -1.5 -156.5t0.5 -156.5q0 -6 4.5 -7.5t9.5 1.5q35 22 98 79.5t102 79.5q3 2 26 22q11 9 25 6q8 -3 17 -8q4 -1 4.5 -6t-1.5 -7q-39 -37 -103 -86q-24 -19 -90 -78.5t-76 -75.5q-19 -28 -53 -18q-45 12 -57 55q-6 18 -7 26q-6 15 -3.5 134
t2.5 134q0 20 -1 59t-2 59q0 5 -2 11q-2 8 -14 13t-27 9t-19 6z" />
    <glyph glyph-name="ecaron" unicode="&#x11b;" horiz-adv-x="309" 
d="M103 108q-18 -32 -36 -48q14 -19 29 -19q25 0 49 30q28 30 78 114q81 129 86 133q6 4 9 4q14 0 17 -21t-4 -30l-15 -25l-47 -79q-25 -43 -42 -70t-43.5 -59.5t-51.5 -49.5q-31 -22 -62 -22q-50 0 -81 53q-26 42 -26 111q0 28 6 70q13 104 60 180q38 54 63 68q15 8 29 8
q26 0 44.5 -24.5t20.5 -55.5q4 -68 -30 -156q-4 -8 -22 -49t-31 -63zM47 114q11 8 27 32t20 36q34 72 50 140q5 22 5 36q0 46 -29 46q-24 0 -53 -71q-16 -40 -27 -116q-4 -29 -1.5 -58.5t8.5 -44.5zM185 549q-24 -28 -37 -42q-11 -15 -21 -16q-11 -3 -23 6q-2 2 -15 18
q-8 11 -24.5 31.5t-18.5 23.5q-1 2 -2.5 4.5t-2.5 4.5q-2 9 4 11.5t15 2.5q8 1 17 -3q3 -2 5 -4t4 -4.5t3 -3.5q9 -16 31 -44q31 33 36 41q10 10 15 12q4 3 16 1q7 0 11 -4q5 -5 5 -13q-1 -1 -2.5 -3.5t-2.5 -3.5q-3 -3 -13 -15z" />
    <glyph glyph-name="Gbreve" unicode="&#x11e;" horiz-adv-x="596" 
d="M128 522q-15 -65 -22.5 -100.5t-15 -100t-3 -107.5t23 -92t53.5 -84q28 -28 61 -43.5t71 -12.5t66 32q9 9 23 27q6 8 11 15.5t9.5 16t7.5 15t7 16t6 14.5t6 16t5.5 16t6 17.5t5.5 17.5q19 65 18 103q0 13 -9 13l-81 -6q-22 0 -31 10q-2 1 -2 5t4 6q5 3 16 5q61 11 101 12
q19 2 38.5 -4.5t22.5 -22.5q8 -30 5 -50q-12 -96 -12 -98q-9 -50 -16 -144.5t-14 -139.5q0 -8 -11 -10q-29 -5 -41 3q-7 4 -10 12q-1 3 -1.5 21t-1 42t-1.5 36q0 3 -4 3q-10 -9 -32 -23q-80 -48 -184.5 -17t-147.5 114q-99 195 -13 491q3 12 9.5 34.5t9 30l8 24t10 27
t11.5 26t16 33.5q19 38 44 75t57.5 75t70.5 66t79 45.5t88 16t92 -24.5q78 -44 104 -78q13 -18 16.5 -45t-4.5 -49q-1 -3 -9 -11q-13 -8 -30 -5q-21 5 -23 24q-1 26 -2.5 36.5t-9.5 27t-24 27.5q-88 61 -154 36q-58 -21 -102.5 -57.5t-75 -88t-50 -105t-36.5 -123.5
q-2 -7 -4.5 -20.5t-4.5 -20.5zM371 1184q13 13 33 12q17 -4 23 -15q7 -14 -12 -44q-6 -10 -6.5 -22.5t7.5 -22.5q24 -12 52 -11t54 9q13 3 21 12q14 19 -6 49q-14 16 -10 24q3 7 10 9t13 -2q12 -9 18 -20q33 -56 2 -91q-16 -13 -47 -21q-30 -5 -61 -6.5t-59.5 12t-40.5 41.5
q-10 18 -7 44.5t16 42.5z" />
    <glyph glyph-name="gbreve" unicode="&#x11f;" horiz-adv-x="304" 
d="M285 205q7 0 10 -7t1 -15.5t-9 -11.5q-9 -3 -38 -19q-27 -15 -49 -33q-6 -6 -11 -11.5t-8 -12.5t-4.5 -11.5t-2.5 -14t-1.5 -13.5t-1 -16t-0.5 -16q-5 -125 -41 -212q-44 -110 -129 -169q-28 -19 -51 -24q-41 -8 -74 19q-18 16 -15 46q16 100 81 200q45 70 137 168
q21 19 27 34q1 4 2 9t2 11.5t2 9.5l12 129q2 11 -6 11q-4 0 -9.5 -7t-11.5 -16.5t-7 -10.5q-23 -24 -46 -26q-21 -3 -41 10t-29 33q-16 35 -5 87q15 54 53 98q15 18 39 19q30 0 53 -8q15 -5 20 -13q8 -12 1 -22q-3 -4 -13 -8q-37 -14 -57 -52t-11 -77q33 26 52 47
q21 23 31 27q10 5 22 1t15 -14q1 -3 1 -11q0 -25 0.5 -74t0.5 -73q2 -10 5 -11q7 -3 9 -1q15 11 56 34q26 13 39 17zM97 -30l1 4q1 4 1.5 7.5t1.5 8.5t1 9v7.5t-1 5t-3 0.5q-6 0 -8 -2q-16 -13 -40 -47t-32 -42q-50 -64 -65 -102q-2 -4 -7 -17t-7 -17.5t-7 -18t-6.5 -18
t-5.5 -18t-4 -18.5t-3 -18.5t-1.5 -18.5t0.5 -19q1 -5 4 -7t7 -1.5t9 2.5t9.5 5.5t8 6t5.5 4.5q21 16 48 54q30 44 47 77q21 43 47 173zM10 583q10 10 24 9q12 -2 17 -11q5 -11 -9 -32q-12 -21 1 -33q24 -19 78 -2q10 3 16 9q10 14 -5 36q-10 12 -7 18q6 12 17 5
q9 -7 13 -15q24 -42 2 -67q-11 -9 -35 -15q-29 -10 -67.5 -2.5t-51.5 36.5q-7 13 -5 33t12 31z" />
    <glyph glyph-name="Idot" unicode="&#x130;" horiz-adv-x="361" 
d="M4 766q-3 4 -3 9q0 10 16 12q52 9 155.5 26.5t155.5 26.5q37 6 46 -7q13 -19 -12 -23q-79 -15 -104 -19q-19 -5 -23 -9q-8 -7 -8.5 -48t3.5 -103t4 -66q1 -42 1 -124t1 -124l11 -326q1 -7 1.5 -19t-0.5 -43.5t-4.5 -56t-14 -46t-26.5 -25.5q-37 -8 -77 15
q-18 10 -49.5 47t-24.5 52q8 15 17.5 15.5t16.5 -12.5q14 -30 42 -53q35 -29 44 13q3 13 4 37t0 41l-1 18q-12 282 -17 423q-1 36 -2 112.5t-3.5 135.5t-8.5 113q0 5 -3 8t-7 3q-5 1 -37 -4.5t-54.5 -7t-38.5 8.5zM222 941v-2q-6 -34 -26 -48q-8 -6 -20 -6q-16 1 -27 15
t-4 28q16 31 50 38q11 2 19 -5t8 -20z" />
    <glyph glyph-name="dotlessi" unicode="&#x131;" horiz-adv-x="231" 
d="M246 306q7 -4 4 -13q-1 -3 -11.5 -22.5t-11.5 -22.5q-13 -26 -45 -76q-28 -45 -67 -68q-30 -14 -57 -7q-21 6 -33 17.5t-25 34.5q-20 39 -10 125q1 10 6 32q5 16 8 24q2 5 10 8q17 5 34 -1q11 -4 11 -12q0 -1 -3 -21q-6 -47 -5 -67q4 -57 27 -89q11 -17 28 -13
q21 8 49 43q17 23 37 59q31 56 39 66q2 3 6.5 4.5t8.5 -1.5z" />
    <glyph glyph-name="Lacute" unicode="&#x139;" horiz-adv-x="524" 
d="M67 125q-1 -16 1 -50l3 -45q0 -1 1.5 -2.5t1.5 -2.5h2q4 2 5 3q6 8 14 25t11 22q42 78 117 116q85 42 222 53q47 4 59 28q3 7 5.5 11.5t7 12t10 10.5t10.5 1q12 -5 9.5 -20t-9 -29t-12.5 -20q-7 -7 -17.5 -11t-18.5 -4.5t-22.5 -1t-20.5 -0.5q-50 -3 -101 -12
q-74 -15 -116 -41q-79 -48 -121 -144q-26 -55 -29 -90v-6q-4 -24 -31 -18q-9 1 -17 8q-20 13 -23 35q-6 62 -7 93q-1 37 0 115t2 183t1 115q1 143 0 287v21.5t0.5 46t0.5 39.5q0 32 -2 47q-5 26 7 31q28 13 55 -3q8 -5 9 -13q3 -10 3 -33q-2 -72 -2 -185q1 -15 -3 -281
t-5 -291zM89 1125q7 -8 9 -21t-4 -22q-48 -61 -104 -89q-2 -2 -8 -4q-11 -2 -14.5 11t2.5 20q8 8 18 15q16 10 29 23t31.5 37t22.5 29q8 13 18 1z" />
    <glyph glyph-name="lacute" unicode="&#x13a;" horiz-adv-x="335" 
d="M14 64q-5 17 -8.5 36.5t-5 42.5t-2.5 37.5t-1 40v32.5q1 125 34 289q16 77 34 126q15 41 48 83q27 34 80 32q20 -1 36.5 -22.5t16.5 -42.5q2 -106 -41 -258q-17 -54 -26.5 -82.5t-29.5 -72t-43 -75.5q-17 -24 -19.5 -32t-0.5 -38q9 -116 32 -147q19 -26 47 -11
q14 7 27 23t20 29.5t18.5 36.5t15.5 30q38 73 88 196q7 16 21 8q14 -5 9 -20q-7 -17 -26.5 -64.5t-29.5 -71.5t-27 -60.5t-34 -66.5q-16 -30 -29.5 -48.5t-39 -32.5t-54.5 -7q-38 9 -67.5 40t-42.5 70zM79 304q0 -19 1 -28q0 -3 3 -4t4 1q13 20 25 49t16.5 44.5t15.5 57.5
t12 47q36 125 49 218q8 57 -12 60q-10 2 -18.5 -6t-15.5 -25t-11 -29t-8 -31l-5 -20q-22 -80 -32 -153q-2 -12 -9 -55t-10.5 -71t-4.5 -55zM308 957q7 -8 9 -21t-4 -22q-48 -61 -104 -89q-2 -2 -8 -4q-11 -2 -14.5 11t2.5 20q7 8 18 15q16 10 29 23t31.5 37t22.5 29
q8 13 18 1z" />
    <glyph glyph-name="Lcaron" unicode="&#x13d;" horiz-adv-x="524" 
d="M67 125q-1 -16 1 -50l3 -45q0 -1 1.5 -2.5t1.5 -2.5h2q4 2 5 3q6 8 14 25t11 22q42 78 117 116q85 42 222 53q47 4 59 28q3 7 5.5 11.5t7 12t10 10.5t10.5 1q12 -5 9.5 -20t-9 -29t-12.5 -20q-7 -7 -17.5 -11t-18.5 -4.5t-22.5 -1t-20.5 -0.5q-50 -3 -101 -12
q-74 -15 -116 -41q-79 -48 -121 -144q-26 -55 -29 -90v-6q-4 -24 -31 -18q-9 1 -17 8q-20 13 -23 35q-6 62 -7 93q-1 37 0 115t2 183t1 115q1 143 0 287v21.5t0.5 46t0.5 39.5q0 32 -2 47q-5 26 7 31q28 13 55 -3q8 -5 9 -13q3 -10 3 -33q-2 -72 -2 -185q1 -15 -3 -281
t-5 -291zM284 953q5 -41 -25 -81t-71 -44q-8 -1 -15 7q-8 10 4 12q27 4 51 41q3 3 1 8q0 1 -0.5 2.5t-1.5 2.5q-4 7 -14 49q-4 17 46 17q12 0 19 -3q4 -3 6 -11z" />
    <glyph glyph-name="lcaron" unicode="&#x13e;" horiz-adv-x="335" 
d="M14 64q-5 17 -8.5 36.5t-5 42.5t-2.5 37.5t-1 40v32.5q1 125 34 289q16 77 34 126q15 41 48 83q27 34 80 32q20 -1 36.5 -22.5t16.5 -42.5q2 -106 -41 -258q-17 -54 -26.5 -82.5t-29.5 -72t-43 -75.5q-17 -24 -19.5 -32t-0.5 -38q9 -116 32 -147q19 -26 47 -11
q14 7 27 23t20 29.5t18.5 36.5t15.5 30q38 73 88 196q7 16 21 8q14 -5 9 -20q-7 -17 -26.5 -64.5t-29.5 -71.5t-27 -60.5t-34 -66.5q-16 -30 -29.5 -48.5t-39 -32.5t-54.5 -7q-38 9 -67.5 40t-42.5 70zM79 304q0 -19 1 -28q0 -3 3 -4t4 1q13 20 25 49t16.5 44.5t15.5 57.5
t12 47q36 125 49 218q8 57 -12 60q-10 2 -18.5 -6t-15.5 -25t-11 -29t-8 -31l-5 -20q-22 -80 -32 -153q-2 -12 -9 -55t-10.5 -71t-4.5 -55zM458 798q6 -48 -30.5 -96.5t-84.5 -53.5q-10 -1 -19 9q-3 4 -2 8.5t7 5.5q30 3 62 49q5 4 1 10q-2 4 -2 6q-8 12 -17 58q-5 21 54 21
q15 0 23 -4q6 -3 8 -13z" />
    <glyph glyph-name="Lslash" unicode="&#x141;" horiz-adv-x="524" 
d="M67 125q-1 -17 4 -95q0 -1 1.5 -2.5t1.5 -2.5h2l5 3q6 8 14 25t11 22q42 78 117 116q85 42 222 53q47 4 59 28q3 7 5.5 11.5t7 12t10 10.5t10.5 1q12 -5 9.5 -20t-9 -29t-12.5 -20q-7 -7 -17.5 -11t-18.5 -4.5t-22.5 -1t-20.5 -0.5q-50 -3 -101 -12q-74 -15 -116 -41
q-79 -48 -121 -144q-26 -55 -29 -90v-6q-4 -24 -31 -18q-9 1 -17 8q-20 13 -23 35q-5 49 -6.5 110t-1.5 94t1.5 124t1.5 113q-31 -12 -67 -22q-8 -5 -33.5 -2.5t-27.5 16.5q-1 6 5.5 11t13.5 8t16.5 6t10.5 4l83 30q1 161 0 301v21.5t0.5 46t0.5 39.5q0 32 -2 47q-5 26 7 31
q28 13 55 -3q8 -5 9 -13q3 -10 3 -33q-2 -72 -2 -185q0 -53 -3 -223q42 20 52 22q21 6 44 -1q17 -5 10 -24q-4 -4 -14 -9q-75 -34 -92 -41q-1 -60 -2 -132t-2 -115.5t-1 -48.5z" />
    <glyph glyph-name="lslash" unicode="&#x142;" horiz-adv-x="335" 
d="M-8 98q-9 39 -5 103q-13 -4 -32 -7q-13 -3 -35 0.5t-22 17.5q-1 5 2.5 8.5t10 6.5t12 4.5t13 3.5t8.5 2l46 14q2 10 4 37q13 123 63 284q23 76 46 122q18 38 56 78q29 30 83 23q20 -2 34 -25.5t12 -44.5q-9 -109 -67 -252q-51 -121 -86 -172l13 3q20 3 42 -4q9 -5 11 -8
q3 -4 -2 -17q-7 -5 -14 -7q-79 -29 -105 -38q-6 -10 -7 -44q-2 -15 -0.5 -45.5t4.5 -61.5t18.5 -49.5t40.5 -8.5q14 6 28.5 21t23 26.5t23 35t17.5 28.5q49 76 107 186q9 14 22 6q15 -7 7 -21q-9 -17 -33 -61.5t-36.5 -67.5t-33.5 -58t-40 -63q-20 -29 -35 -45.5t-41.5 -28
t-54.5 -1.5q-37 12 -63.5 46t-34.5 74zM80 330q-2 -18 -2 -28q0 -3 3 -4t4 1q15 19 29.5 45.5t22 44t20.5 54t17 46.5q48 119 70 212q3 9 4.5 21t0 25t-9.5 15q-10 3 -19.5 -4.5t-18 -23.5t-13.5 -27.5t-12 -30.5l-6 -19q-28 -72 -48 -149q-3 -12 -14.5 -54t-17.5 -69.5
t-10 -54.5z" />
    <glyph glyph-name="Nacute" unicode="&#x143;" horiz-adv-x="571" 
d="M515 814q24 -8 15 -56q-8 -40 -14.5 -80t-12.5 -85t-10.5 -78.5t-9.5 -85.5t-7.5 -79t-7 -86t-6 -79t-6.5 -86t-6 -81q-4 -62 -37 -71q-24 -8 -47 15q-10 11 -18 25.5t-17.5 39.5t-11.5 29q-39 92 -83 193q-44 104 -67 156q-14 31 -45 90q-5 9 -21 29q25 -346 80 -667
q4 -19 -1 -28q-5 -11 -18 -14q-18 -7 -37.5 2.5t-30.5 27.5q-16 24 -22 77q-31 242 -50 471q-12 158 -17 236q-6 120 -6 127q1 20 12 27t36 6q11 0 19 -5q9 -5 18 -31q16 -60 42 -129l14 -34q13 -34 29.5 -75.5t21.5 -53.5q7 -17 36.5 -88t43.5 -111q14 -37 43 -107t33 -80
q12 -20 24 -35q35 512 70 746q2 11 6 14q7 6 32.5 11.5t33.5 2.5zM344 972q7 -8 9 -21t-4 -22q-48 -61 -104 -89q-2 -2 -8 -4q-11 -2 -14.5 11t2.5 20q7 7 18 15q16 10 29 23t31.5 37t22.5 29q8 13 18 1z" />
    <glyph glyph-name="nacute" unicode="&#x144;" horiz-adv-x="417" 
d="M74 337v-9q0 -8 -5 -43q-3 -16 -13 -129q0 -14 9 -19q3 -1 10 9q11 17 35.5 68.5t38.5 71.5q31 38 82 32q28 -3 39 -30q13 -24 7 -87q-4 -51 -2 -124q1 -17 8.5 -29t17.5 -2q10 8 25 29.5t38.5 74.5t41.5 119q10 39 14 49q2 6 9.5 7t13.5 -8q3 -5 -8 -51
q-18 -72 -48.5 -147t-59.5 -107q-45 -55 -88 -25q-21 14 -35 45q-16 41 -18 97.5t4 106.5q0 25 -7 25q-4 0 -7 -1q-13 -5 -27 -40q-8 -20 -24.5 -59.5t-24.5 -59.5q-16 -34 -26 -44q-17 -15 -36.5 -7t-29.5 32q-19 39 -15 112q0 15 0.5 31.5t1.5 37.5t1 33q2 20 6 27
q5 11 13 21q29 33 47 18q8 -7 12 -25zM258 478q7 -8 9 -21t-4 -22q-48 -61 -104 -89q-2 -2 -8 -4q-11 -2 -14.5 11t2.5 20q7 7 18 15q16 10 29 23t31.5 37t22.5 29q8 13 18 1z" />
    <glyph glyph-name="Ncaron" unicode="&#x147;" horiz-adv-x="571" 
d="M515 814q24 -8 15 -56q-8 -40 -14.5 -80t-12.5 -85t-10.5 -78.5t-9.5 -85.5t-7.5 -79t-7 -86t-6 -79t-6.5 -86t-6 -81q-4 -62 -37 -71q-24 -8 -47 15q-10 11 -18 25.5t-17.5 39.5t-11.5 29q-39 92 -83 193q-44 104 -67 156q-14 31 -45 90q-5 9 -21 29q25 -346 80 -667
q4 -19 -1 -28q-5 -11 -18 -14q-18 -7 -37.5 2.5t-30.5 27.5q-16 24 -22 77q-31 242 -50 471q-12 158 -17 236q-6 120 -6 127q1 20 12 27t36 6q11 0 19 -5q9 -5 18 -31q16 -60 42 -129l14 -34q13 -34 29.5 -75.5t21.5 -53.5q7 -17 36.5 -88t43.5 -111q14 -37 43 -107t33 -80
q12 -20 24 -35q35 512 70 746q2 11 6 14q7 6 32.5 11.5t33.5 2.5zM320 936q-24 -28 -37 -42q-11 -15 -21 -16q-11 -3 -23 6q-2 2 -15 18q-8 11 -24.5 31.5t-18.5 23.5q-1 2 -2.5 4.5t-2.5 4.5q-2 9 4 11.5t15 2.5q8 1 17 -3l12 -12q9 -16 31 -44q31 33 36 41q10 10 15 12
q4 3 16 1q7 0 11 -4q5 -5 5 -13q-1 -1 -2.5 -3.5t-2.5 -3.5q-3 -3 -13 -15z" />
    <glyph glyph-name="ncaron" unicode="&#x148;" horiz-adv-x="417" 
d="M285 409q-6 -7 -18.5 -21t-18.5 -21q-14 -14 -22 -14q-11 -3 -22 6q-1 0 -16 19q-7 9 -20.5 27.5t-19.5 28.5q-5 5 -5 8q-2 9 4 11.5t15 2.5q8 2 17 -4q7 -6 11 -12q9 -16 31 -44q28 28 36 40q2 1 7 5.5t8 6.5q5 2 16 0q9 -2 12 -5q6 -6 4 -12q0 -1 -5 -8zM74 337v-9
q0 -8 -5 -43q-3 -16 -13 -129q0 -14 9 -19q3 -1 10 9q11 17 35.5 68.5t38.5 71.5q31 38 82 32q28 -3 39 -30q13 -24 7 -87q-4 -51 -2 -124q1 -17 8.5 -29t17.5 -2q10 8 25 29.5t38.5 74.5t41.5 119q10 39 14 49q2 6 9.5 7t13.5 -8q3 -5 -8 -51q-18 -72 -48.5 -147
t-59.5 -107q-45 -55 -88 -25q-21 14 -35 45q-16 41 -18 97.5t4 106.5q0 25 -7 25q-4 0 -7 -1q-13 -5 -27 -40q-8 -20 -24.5 -59.5t-24.5 -59.5q-16 -34 -26 -44q-17 -15 -36.5 -7t-29.5 32q-19 39 -15 112q0 15 0.5 31.5t1.5 37.5t1 33q2 20 6 27q5 11 13 21q29 33 47 18
q8 -7 12 -25z" />
    <glyph glyph-name="Odblacute" unicode="&#x150;" horiz-adv-x="543" 
d="M7 375q20 115 98 215q22 28 56.5 51t67.5 29q58 15 106 -21q12 1 21.5 -1.5t19 -11.5t14 -14t14.5 -20t12 -17q38 -62 55.5 -115t17.5 -123q0 -150 -79 -288q-53 -80 -122 -116q-66 -34 -137 -5q-133 55 -151 301q-1 13 -1 40q0 55 8 96zM136 487q-49 -88 -49 -237
q0 -74 17 -142q19 -76 67 -113.5t118 1.5q79 62 121 166.5t37 210.5q-2 58 -23 112q-13 34 -47 91t-54 53t-54 -20q-35 -17 -53 -28q-49 -37 -80 -94zM314 845q6 -7 7.5 -18t-3.5 -19q-41 -53 -86 -75q-1 -1 -8 -3q-9 -2 -12 9.5t3 16.5q4 6 14 13q14 8 25 19.5t25.5 31
t19.5 24.5q7 9 15 1zM392 846q6 -7 7.5 -18t-3.5 -19q-40 -52 -87 -75q-1 -1 -7 -3q-8 -2 -11.5 9.5t1.5 16.5q5 6 15 13q14 8 25 19.5t25.5 31t19.5 24.5q7 8 15 1z" />
    <glyph glyph-name="odblacute" unicode="&#x151;" horiz-adv-x="371" 
d="M83 609q86 19 149 -21q44 -28 66.5 -74.5t21.5 -101.5q0 -49 -4 -68q-2 -8 8 -10q1 0 7.5 -1t8 -1.5t7.5 -1.5t8.5 -2.5t8 -3.5t9 -4.5t8 -6.5t8.5 -9q7 -7 9.5 -13.5t-1 -12.5t-13.5 -9q-21 -6 -31 2q-5 9 -27 14.5t-32 -0.5q-7 -5 -8 -8q-10 -21 -23.5 -38.5t-33.5 -38
t-31 -33.5q-11 -14 -23.5 -27.5t-30.5 -31t-37 -30t-38.5 -20.5t-39 -6t-35.5 16q-19 15 -30 49q-7 21 1.5 62t19.5 64q2 4 7.5 9.5t8 10.5t0.5 11q-2 7 -8 11t-10 5t-18 5q-69 19 -84 60q-16 44 -2 80.5t51 75.5q69 73 136 93q3 1 8.5 2.5t8.5 2.5zM231 283q1 1 -1.5 3
t-4.5 2q-29 -7 -158 -14q-3 0 -3 -4q0 -2 1 -3q5 -3 13 -11q9 -9 5 -21q-4 -8 -12 -31.5t-12 -32.5q-14 -27 -18 -52q-3 -19 14 -15q22 5 43 24q30 26 43 39q39 37 70 79q17 26 20 37zM179 577q-22 3 -46 -3q-111 -33 -181 -140q-12 -19 -18 -34t-6.5 -30.5t12 -27.5
t38.5 -20q46 -10 116 -10q111 5 151 18q13 5 16 8q13 13 13 49q0 5 0.5 28.5t0 36.5t-2.5 32.5t-8.5 33.5t-16.5 24q-31 29 -68 35zM190 754q6 -7 7.5 -18t-3.5 -19q-41 -53 -86 -75q-1 -1 -8 -3q-9 -2 -12 9.5t3 16.5q4 6 14 13q14 8 25 19.5t25.5 31t19.5 24.5q7 9 15 1z
M268 755q6 -7 7.5 -18t-3.5 -19q-40 -52 -87 -75q-1 -1 -7 -3q-8 -2 -11.5 9.5t1.5 16.5q5 6 15 13q14 8 25 19.5t25.5 31t19.5 24.5q7 8 15 1z" />
    <glyph glyph-name="OE" unicode="&#x152;" horiz-adv-x="875" 
d="M10 375q20 115 98 215q22 28 56.5 51t67.5 29q58 15 106 -21q12 1 21.5 -1.5t19 -11.5t14 -14t14.5 -20t12 -17q28 -47 39 -73q8 136 15 204q1 22 -19 22q-37 1 -65 29l-6 9q-1 2 1 5.5t4 3.5q7 0 21 0.5t21 0.5l34 2q7 0 11 9l6 18q15 6 46 8q40 2 58 -29q8 -13 25 -15
l141 -15q25 -4 36 -12q6 -5 11 -11q3 -5 1 -10q-2 -6 -7 -8q-12 -1 -59.5 1.5t-89 5.5t-42.5 3q-16 0 -18 -15q-5 -20 -6 -38q-13 -119 -17 -290q0 -6 0.5 -17.5t0.5 -17.5q2 -12 14 -10t18 4l177 48q25 6 46 -2q8 -3 13 -12q6 -12 -5 -16q-8 -2 -12 -2q-17 -3 -89.5 -26.5
t-102.5 -36.5q-7 -3 -15.5 -5.5t-19 -5t-16.5 -4.5q-12 -5 -14 -17q-1 -7 -1 -23q-2 -42 -1 -65q1 -47 -1.5 -156.5t0.5 -156.5q0 -6 4.5 -7.5t9.5 1.5q35 22 98 79.5t102 79.5q3 2 26 22q11 9 25 6q8 -3 17 -8q4 -1 4.5 -6t-1.5 -7q-39 -37 -103 -86q-24 -19 -90 -78.5
t-76 -75.5q-19 -28 -53 -18q-45 12 -57 55q-6 18 -7 26q-6 15 -3.5 134t2.5 134q0 2 -0.5 6.5t-0.5 6.5q-16 -39 -36 -74q-53 -80 -122 -116q-66 -34 -137 -5q-133 55 -151 301q-1 13 -1 40q0 55 8 96zM385 277q-5 2 -8 12q3 5 5 5l48 12q20 7 20 25v2v40q-2 58 -23 112
q-13 34 -47 91t-54 53t-54 -20q-35 -17 -53 -28q-49 -37 -80 -94q-49 -88 -49 -237q0 -74 17 -142q19 -76 67 -113.5t118 1.5q114 90 149 259q-7 7 -30 13.5t-26 8.5z" />
    <glyph glyph-name="oe" unicode="&#x153;" horiz-adv-x="570" 
d="M364 108q-18 -32 -36 -48q14 -19 29 -19q25 0 49 30q28 30 78 114q81 129 86 133q6 4 9 4q14 0 17 -21t-4 -30l-15 -25l-47 -79q-25 -43 -42 -70t-43.5 -59.5t-51.5 -49.5q-31 -22 -62 -22q-50 0 -81 53q-26 42 -26 111q0 28 6 70v2q-1 -1 -13 -14t-19 -21
q-11 -14 -23.5 -27.5t-30.5 -31t-37 -30t-38.5 -20.5t-39 -6t-35.5 16q-19 15 -30 49q-7 21 1.5 62t19.5 64q2 4 7.5 9.5t8 10.5t0.5 11q-2 7 -8 11t-10 5t-18 5q-69 19 -84 60q-16 44 -2 80.5t51 75.5q69 73 136 93l17 5q86 19 149 -21q86 -57 88 -168q32 36 62 36
q26 0 44.5 -24.5t20.5 -55.5q4 -68 -30 -156q-4 -8 -22 -49t-31 -63zM179 577q-22 3 -46 -3q-111 -33 -181 -140q-12 -19 -18 -34t-6.5 -30.5t12 -27.5t38.5 -20q46 -10 116 -10q111 5 151 18q13 5 16 8q13 13 13 49q0 5 0.5 28.5t0 36.5t-2.5 32.5t-8.5 33.5t-16.5 24
q-31 29 -68 35zM308 114q11 8 27 32t20 36q34 72 50 140q5 22 5 36q0 46 -29 46q-24 0 -53 -71q-16 -40 -27 -116q-4 -29 -1.5 -58.5t8.5 -44.5zM231 283q1 1 -1.5 3t-4.5 2q-29 -7 -158 -14q-3 0 -3 -4v-1q1 -1 1 -2q5 -3 13 -11q9 -9 5 -21q-4 -8 -12 -31.5t-12 -32.5
q-14 -27 -18 -52q-3 -19 14 -15q22 5 43 24q30 26 43 39q39 37 70 79q17 26 20 37z" />
    <glyph glyph-name="Racute" unicode="&#x154;" horiz-adv-x="536" 
d="M2 533q-1 62 3 186q2 28 4 84q0 1 0.5 3t0.5 3q2 8 8 11q18 7 43 3q11 -1 19 -9.5t10 -19.5q2 -7 2 -23v-12.5v-15v-12.5q0 -24 -3 -92.5t-1 -105.5q0 -5 1 -8q1 -1 3.5 -1t3.5 1q4 4 5 6q2 4 11 21t13 26q66 160 171 192q29 8 58 3q39 -8 55 -39q31 -56 32 -105
q5 -170 -108 -298q-4 -5 -9 -9t-9.5 -7t-11.5 -5t-11 -3.5t-12.5 -2.5t-12.5 -1.5t-14 -1t-13 -0.5h-14h-13q-6 0 -17 2t-14 2q-7 1 -9.5 -2.5t-0.5 -10.5l9 -24q64 -144 123 -227q107 -151 189 -130q18 4 27 12q24 20 54 17q5 -1 9 -5t1 -9q-5 -9 -30 -25q-26 -14 -40 -18
q-55 -16 -99 6q-52 25 -95 64.5t-76.5 92.5t-56 97.5t-49.5 108.5q-4 12 -9.5 25t-12.5 28.5t-11 24.5q-1 1 -2 1q-4 2 -4 -2v-24q-1 -82 42 -252q0 -1 1 -4t1 -4q5 -29 35 -117q2 -6 7 -25q6 -22 -24 -26q-19 -2 -28 12q-5 7 -13 23q-3 7 -13 29.5t-15 34.5q-36 92 -51 172
q-3 16 -7.5 45.5t-6.5 38.5q-23 135 -25 301zM102 367q-1 -5 24.5 -15.5t36.5 -12.5q42 -11 76.5 9.5t55.5 59t36 88.5t21 91t7 73q1 20 -4.5 39.5t-18.5 31.5t-35 -8q-35 -31 -68.5 -80.5t-47.5 -77.5t-46 -96q-35 -74 -37 -102zM353 928q7 -8 9 -21t-4 -22
q-48 -61 -104 -89q-2 -2 -8 -4q-11 -2 -14.5 11t2.5 20q8 7 18 15q16 10 29 23t31.5 37t22.5 29q8 13 18 1z" />
    <glyph glyph-name="racute" unicode="&#x155;" horiz-adv-x="341" 
d="M374 321q4 -10 0 -19q-5 -13 -23 -66.5t-32 -87.5q-43 -97 -76 -143q-37 -52 -79 -67q-14 -3 -27 -3q-57 0 -88 63q-27 58 -9 167q2 14 4 23q3 14 7 49q3 11 1 15q-1 3 -12 11q-2 1 -8 5l-9 6q-1 0 -4 0.5t-4 1.5q-9 0 -14 4q-1 1 -8 11q-3 4 -3 13v6q-1 3 -14 26
q-12 23 -14 32q-17 42 8 77q28 41 80 41q43 0 65 -35q6 -11 7 -23.5t-1.5 -22.5t-9.5 -23t-12 -20.5t-14 -19.5q-5 -11 -26 -40q26 -19 28 -21q3 -2 25 -7t25 -9q12 -12 5 -49q-4 -14 -18.5 -55t-23.5 -75t-5 -55q9 -53 38 -53q15 0 30.5 10.5t24.5 21t23 29.5q22 31 44 77
q20 39 54 120q3 7 13 35.5t14 37.5q8 17 13 19q5 3 11 3t14 -10zM53 451q-12 0 -26 -8q-16 -11 -19 -33t5 -37l3 -7q2 -7 5 -14t5 -10q4 8 20 24q36 43 35 64q0 9 -7 13q-9 8 -21 8zM111 646q7 -8 9 -21t-4 -22q-48 -61 -104 -89q-2 -2 -8 -4q-11 -2 -14.5 11t2.5 20
q8 7 18 15q16 10 29 23t31.5 37t22.5 29q8 13 18 1z" />
    <glyph glyph-name="Rcaron" unicode="&#x158;" horiz-adv-x="536" 
d="M2 533q-1 62 3 186q2 28 4 84q0 1 0.5 3t0.5 3q2 8 8 11q18 7 43 3q11 -1 19 -9.5t10 -19.5q2 -7 2 -23v-12.5v-15v-12.5q0 -24 -3 -92.5t-1 -105.5q0 -5 1 -8q1 -1 3.5 -1t3.5 1q4 4 5 6q2 4 11 21t13 26q66 160 171 192q29 8 58 3q39 -8 55 -39q31 -56 32 -105
q5 -170 -108 -298q-4 -5 -9 -9t-9.5 -7t-11.5 -5t-11 -3.5t-12.5 -2.5t-12.5 -1.5t-14 -1t-13 -0.5h-14h-13q-6 0 -17 2t-14 2q-7 1 -9.5 -2.5t-0.5 -10.5l9 -24q64 -144 123 -227q107 -151 189 -130q18 4 27 12q24 20 54 17q5 -1 9 -5t1 -9q-5 -9 -30 -25q-26 -14 -40 -18
q-55 -16 -99 6q-52 25 -95 64.5t-76.5 92.5t-56 97.5t-49.5 108.5q-4 12 -9.5 25t-12.5 28.5t-11 24.5q-1 1 -2 1q-4 2 -4 -2v-24q-1 -82 42 -252q0 -1 1 -4t1 -4q5 -29 35 -117q2 -6 7 -25q6 -22 -24 -26q-19 -2 -28 12q-5 7 -13 23q-3 7 -13 29.5t-15 34.5q-36 92 -51 172
q-3 16 -7.5 45.5t-6.5 38.5q-23 135 -25 301zM102 367q-1 -5 24.5 -15.5t36.5 -12.5q42 -11 76.5 9.5t55.5 59t36 88.5t21 91t7 73q1 20 -4.5 39.5t-18.5 31.5t-35 -8q-35 -31 -68.5 -80.5t-47.5 -77.5t-46 -96q-35 -74 -37 -102zM371 866q-24 -28 -37 -42q-11 -15 -21 -16
q-11 -3 -23 6q-2 2 -15 18q-8 11 -24.5 31.5t-18.5 23.5q-1 2 -2.5 4.5t-2.5 4.5q-2 9 4 11.5t15 2.5q8 1 17 -3l12 -12q9 -16 31 -44q31 33 36 41q10 10 15 12q4 3 16 1q7 0 11 -4q5 -5 5 -13q-1 -1 -2.5 -3.5t-2.5 -3.5q-3 -3 -13 -15z" />
    <glyph glyph-name="rcaron" unicode="&#x159;" horiz-adv-x="341" 
d="M374 321q4 -10 0 -19q-5 -13 -23 -66.5t-32 -87.5q-43 -97 -76 -143q-37 -52 -79 -67q-14 -3 -27 -3q-57 0 -88 63q-27 58 -9 167q2 14 4 23q3 14 7 49q3 11 1 15q-1 3 -12 11q-2 1 -8 5l-9 6q-1 0 -4 0.5t-4 1.5q-9 0 -14 4q-1 1 -8 11q-3 4 -3 13v6q-1 3 -14 26
q-12 23 -14 32q-17 42 8 77q28 41 80 41q43 0 65 -35q6 -11 7 -23.5t-1.5 -22.5t-9.5 -23t-12 -20.5t-14 -19.5q-5 -11 -26 -40q26 -19 28 -21q3 -2 25 -7t25 -9q12 -12 5 -49q-4 -14 -18.5 -55t-23.5 -75t-5 -55q9 -53 38 -53q15 0 30.5 10.5t24.5 21t23 29.5q22 31 44 77
q20 39 54 120q3 7 13 35.5t14 37.5q8 17 13 19q5 3 11 3t14 -10zM53 451q-12 0 -26 -8q-16 -11 -19 -33t5 -37l3 -7q2 -7 5 -14t5 -10q4 8 20 24q36 43 35 64q0 9 -7 13q-9 8 -21 8zM131 578q-24 -28 -37 -42q-11 -15 -21 -16q-11 -3 -23 6q-2 1 -15 18q-8 11 -24.5 31.5
t-18.5 23.5q-1 2 -2.5 4.5t-2.5 4.5q-2 9 4 11.5t15 2.5q8 1 17 -3q3 -2 5 -4t4 -4.5t3 -3.5q9 -16 31 -44q31 33 36 41q10 10 15 12q4 3 16 1q7 0 11 -4q5 -5 5 -13q-1 -1 -2.5 -3.5t-2.5 -3.5q-3 -3 -13 -15z" />
    <glyph glyph-name="Sacute" unicode="&#x15a;" horiz-adv-x="807" 
d="M845 329q14 0 20 -12q-151 -103 -263 -252q-10 -14 -11 -21q-3 -3 -1 -9.5t1.5 -8t4 -7.5t5.5 -7.5t6.5 -7t6.5 -7.5q43 -53 46 -115q1 -46 -24.5 -88t-66.5 -66q-80 -45 -182 -23q-44 8 -55 34t21 72q124 175 154 218q8 10 7 17q-1 5 -10 14q-48 38 -87 65
q-15 10 -59 39t-63 41.5t-56 39t-60 45.5t-52 44.5t-53 51.5q-5 6 -17 18t-17 18q-36 38 -38.5 105t16.5 113q17 56 73 101t115.5 69t122.5 36q51 10 107 11t117 -9t104 -45.5t50 -92.5q14 -107 -28 -173q-1 -2 -4 -7t-4.5 -7t-5 -7.5t-5.5 -6.5t-6 -5t-6.5 -4t-7.5 -2t-9 1
q-21 4 -38 24q-5 5 -3 11l10.5 37.5t10.5 40t8 44.5t2 41.5t-5.5 40.5t-16.5 33t-28.5 27.5t-43.5 15.5q-84 17 -209 -13q-164 -38 -229 -148q-23 -39 -32.5 -82t0 -88t41.5 -77q90 -91 171 -142q75 -47 150 -97q33 -23 96 -71q12 -10 21 -11q15 -2 35 18q20 19 69.5 71
t87.5 85.5t79 58.5q20 13 38 11zM589 -88q1 7 -6 29.5t-13 33.5q-2 4 -14 26q-2 5 -6.5 5t-6.5 -5q-3 -4 -11 -12.5t-10 -12.5q-4 -6 -50.5 -67t-51.5 -72q-2 -4 -6 -10q-4 -8 -19 -28t-19 -28q-8 -16 -4 -20q26 -21 89 7.5t82 47.5l15 18q28 39 31 88zM420 1025q7 -8 9 -21
t-4 -22q-48 -61 -104 -89q-2 -2 -8 -4q-11 -2 -14.5 11t2.5 20q7 8 18 15q16 10 29 23t31.5 37t22.5 29q8 13 18 1z" />
    <glyph glyph-name="sacute" unicode="&#x15b;" horiz-adv-x="285" 
d="M217 99q16 -12 19 -32q1 -11 -10 -27q-18 -21 -19 -22q-57 -53 -81 -70q-30 -20 -60 -20q-31 0 -41 7l-27 18q-1 1 -4 7q-2 7 4 7q6 1 30.5 -2t29.5 3q30 19 86 63q4 3 11 8.5t11 9t9 9t8 11.5q2 8 0.5 12.5t-13.5 6t-20 1.5t-19 -0.5t-12 -0.5q-10 0 -30.5 -2t-30.5 -2
q-4 0 -37 8q-35 11 -59 45q-18 22 -15 52q1 21 9 42q27 65 76 143q16 24 26 37.5t30 28.5t40 18q3 0 25 2.5t33 3.5q29 1 35 -28q3 -22 0 -43q-3 -23 -9 -43q-5 -18 -24 -16q-4 1 -17 5q-8 4 -6 12q2 11 6 31q4 10 3 24t-15 6q-11 -8 -24 -29q-49 -81 -74 -139
q-27 -58 -27 -84q-1 -17 5 -24.5t23 -12.5q8 -2 18.5 -2.5t18.5 0t18 -0.5q72 -2 100 -21zM198 633q7 -8 9 -21t-4 -22q-48 -61 -104 -89q-2 -2 -8 -4q-11 -2 -14.5 11t2.5 20q7 8 18 15q16 10 29 23t31.5 37t22.5 29q8 13 18 1z" />
    <glyph glyph-name="Scedilla" unicode="&#x15e;" horiz-adv-x="807" 
d="M472 -418q11 8 13.5 26t-6 33t-24.5 13q-3 0 -10.5 -4t-11 -4.5t-10.5 3.5q-6 6 1 33l3 17q-21 2 -40 6q-44 8 -55 34t21 72l154 218q8 10 7 17q-1 5 -10 14q-48 38 -87 65q-15 10 -59 39t-63 41.5t-56 39t-60 45.5t-52 44.5t-53 51.5l-34 36q-36 38 -38.5 105t16.5 113
q17 56 73 101t115.5 69t122.5 36q51 10 107 11t117 -9t104 -45.5t50 -92.5q14 -107 -28 -173q-1 -2 -4 -7t-4.5 -7t-5 -7.5t-5.5 -6.5t-6 -5t-6.5 -4t-7.5 -2t-9 1q-21 4 -38 24q-5 5 -3 11l10.5 37.5t10.5 40t8 44.5t2 41.5t-5.5 40.5t-16.5 33t-28.5 27.5t-43.5 15.5
q-84 17 -209 -13q-164 -38 -229 -148q-23 -39 -32.5 -82t0 -88t41.5 -77q90 -91 171 -142q75 -47 150 -97q33 -23 96 -71q12 -10 21 -11q15 -2 35 18q20 19 69.5 71t87.5 85.5t79 58.5q20 13 38 11q14 0 20 -12q-151 -103 -263 -252q-10 -14 -11 -21q-3 -3 -1 -9.5t1.5 -8
t4 -7.5t5.5 -7.5t6.5 -7t6.5 -7.5q43 -53 46 -115q1 -46 -24.5 -88t-66.5 -66q-42 -23 -93 -28q-4 -14 3 -20h7q7 0 17 -1.5t17 -5.5q21 -13 26 -33t-0.5 -44.5t-19.5 -39.5q-17 -18 -47.5 -19.5t-49.5 14.5q-22 22 -1 30q6 2 22.5 -1t21.5 2zM589 -88q1 7 -6 29.5t-13 33.5
q-2 4 -14 26q-2 5 -6.5 5t-6.5 -5q-3 -4 -11 -12.5t-10 -12.5q-4 -6 -50.5 -67t-51.5 -72q-8 -14 -24 -36.5t-20 -29.5q-8 -16 -4 -20q26 -21 89 7.5t82 47.5l15 18q28 39 31 88z" />
    <glyph glyph-name="scedilla" unicode="&#x15f;" horiz-adv-x="285" 
d="M146 -160q11 8 13.5 26t-6 33t-24.5 13q-3 0 -10.5 -4t-11 -4.5t-10.5 3.5q-6 6 -1 26q-17 -5 -30 -5q-31 0 -41 7l-27 18q-1 1 -4 7q-2 7 4 7q6 1 30.5 -2t29.5 3q30 19 86 63q4 3 11 8.5t11 9t9 9t8 11.5q2 8 0.5 12.5t-13.5 6t-20 1.5t-19 -0.5t-12 -0.5l-61 -4
q-4 0 -37 8q-35 11 -59 45q-18 22 -15 52q1 21 9 42q27 65 76 143q16 24 26 37.5t30 28.5t40 18q3 0 25 2.5t33 3.5q29 1 35 -28q3 -22 0 -43q-3 -23 -9 -43q-5 -18 -24 -16q-4 1 -17 5q-8 4 -6 12l6 31q4 10 3 24t-15 6q-11 -8 -24 -29q-49 -81 -74 -139q-27 -58 -27 -84
q-1 -17 5 -24.5t23 -12.5q8 -2 18.5 -2.5t18.5 0t18 -0.5q72 -2 100 -21q16 -12 19 -32q1 -11 -10 -27q-18 -21 -19 -22q-26 -25 -53 -47q0 -3 -3 -11.5t-3 -13.5t5 -8h7q7 0 17 -1.5t17 -5.5q21 -13 26 -33t-0.5 -44.5t-19.5 -39.5q-17 -18 -47.5 -19.5t-49.5 14.5
q-22 22 -1 30q6 2 22.5 -1t21.5 2z" />
    <glyph glyph-name="Scaron" unicode="&#x160;" horiz-adv-x="807" 
d="M845 329q14 0 20 -12q-151 -103 -263 -252q-10 -14 -11 -21q-3 -3 -1 -9.5t1.5 -8t4 -7.5t5.5 -7.5t6.5 -7t6.5 -7.5q43 -53 46 -115q1 -46 -24.5 -88t-66.5 -66q-80 -45 -182 -23q-44 8 -55 34t21 72q124 175 154 218q8 10 7 17q-1 5 -10 14q-48 38 -87 65
q-15 10 -59 39t-63 41.5t-56 39t-60 45.5t-52 44.5t-53 51.5q-5 6 -17 18t-17 18q-36 38 -38.5 105t16.5 113q17 56 73 101t115.5 69t122.5 36q51 10 107 11t117 -9t104 -45.5t50 -92.5q14 -107 -28 -173q-1 -2 -4 -7t-4.5 -7t-5 -7.5t-5.5 -6.5t-6 -5t-6.5 -4t-7.5 -2t-9 1
q-21 4 -38 24q-5 5 -3 11l10.5 37.5t10.5 40t8 44.5t2 41.5t-5.5 40.5t-16.5 33t-28.5 27.5t-43.5 15.5q-84 17 -209 -13q-164 -38 -229 -148q-23 -39 -32.5 -82t0 -88t41.5 -77q90 -91 171 -142q75 -47 150 -97q33 -23 96 -71q12 -10 21 -11q15 -2 35 18q20 19 69.5 71
t87.5 85.5t79 58.5q20 13 38 11zM589 -88q1 7 -6 29.5t-13 33.5q-2 4 -14 26q-2 5 -6.5 5t-6.5 -5q-3 -4 -11 -12.5t-10 -12.5q-4 -6 -50.5 -67t-51.5 -72q-2 -4 -6 -10q-4 -8 -19 -28t-19 -28q-8 -16 -4 -20q26 -21 89 7.5t82 47.5l15 18q28 39 31 88zM407 956
q-24 -28 -37 -42q-11 -15 -21 -16q-11 -3 -23 6q-2 2 -15 18q-8 11 -24.5 31.5t-18.5 23.5q-1 2 -2.5 4.5t-2.5 4.5q-2 9 4 11.5t15 2.5q8 1 17 -3l12 -12q9 -16 31 -44q31 33 36 41q10 10 15 12q4 3 16 1q7 0 11 -4q5 -5 5 -13q-1 -1 -2.5 -3.5t-2.5 -3.5q-3 -3 -13 -15z
" />
    <glyph glyph-name="scaron" unicode="&#x161;" horiz-adv-x="285" 
d="M217 99q16 -12 19 -32q1 -11 -10 -27q-18 -21 -19 -22q-57 -53 -81 -70q-30 -20 -60 -20q-31 0 -41 7l-27 18q-1 1 -4 7q-2 7 4 7q6 1 30.5 -2t29.5 3q30 19 86 63q4 3 11 8.5t11 9t9 9t8 11.5q2 8 0.5 12.5t-13.5 6t-20 1.5t-19 -0.5t-12 -0.5q-10 0 -30.5 -2t-30.5 -2
q-4 0 -37 8q-35 11 -59 45q-18 22 -15 52q1 21 9 42q27 65 76 143q16 24 26 37.5t30 28.5t40 18q3 0 25 2.5t33 3.5q29 1 35 -28q3 -22 0 -43q-3 -23 -9 -43q-5 -18 -24 -16q-4 1 -17 5q-8 4 -6 12q2 11 6 31q4 10 3 24t-15 6q-11 -8 -24 -29q-49 -81 -74 -139
q-27 -58 -27 -84q-1 -17 5 -24.5t23 -12.5q8 -2 18.5 -2.5t18.5 0t18 -0.5q72 -2 100 -21zM214 562q-24 -28 -37 -42q-11 -15 -21 -16q-11 -3 -23 6q-2 2 -15 18q-8 11 -24.5 31.5t-18.5 23.5q-1 2 -2.5 4.5t-2.5 4.5q-2 9 4 11.5t15 2.5q8 1 17 -3l12 -12q9 -16 31 -44
q31 33 36 41q10 10 15 12q4 3 16 1q7 0 11 -4q5 -5 5 -13q-1 -1 -2.5 -3.5t-2.5 -3.5q-3 -3 -13 -15z" />
    <glyph glyph-name="Tcedilla" unicode="&#x162;" horiz-adv-x="825" 
d="M688 -467q11 8 13.5 26t-6 33t-24.5 13q-3 0 -10.5 -4t-11 -4.5t-10.5 3.5q-5 5 4 50q-32 16 -49 48q-81 159 -109 358.5t-30 445.5q0 2 -0.5 7t-0.5 8q-2 15 -17 15q-28 -3 -29 -3l-124 -19q-117 -15 -164 -23q-23 -4 -70 -4q-20 0 -44 20q-3 3 -5 10q-2 11 6 13l14 3
q14 2 36.5 6t41.5 7t37 5q53 6 151.5 22t127.5 20l28 6q10 2 10 13q0 56 7.5 168.5t7.5 167.5q0 15 16 18q15 5 37.5 2.5t26.5 -21.5q2 -20 2 -29v-143q0 -36 2 -104q0 -14 4 -44q0 -8 8 -6q16 3 48 7q54 7 162.5 22t162.5 22q224 28 461 34q13 1 35 0t29 -1t14 -9
q8 -10 8 -24.5t-13 -16.5q-10 -2 -17 -2q-376 -11 -697 -63q-140 -20 -188 -31q-14 -5 -14 -20q-2 -22 -1 -32q0 -39 2 -119q5 -213 25 -360q9 -71 16 -112t24.5 -100.5t42.5 -104.5q13 -22 24 24l3 10q6 21 16 65q70 344 91 423l17 64q4 16 10 25q13 13 24 7q18 -6 8 -40
q-45 -160 -76 -333q-29 -160 -39 -198q-1 -2 -4 -14.5t-4.5 -17.5t-5.5 -16.5t-7.5 -18t-8 -15t-10 -14t-11.5 -9.5q-4 -13 4 -18h7q7 0 17 -1.5t17 -5.5q28 -17 29 -55t-23 -62q-17 -18 -47.5 -19.5t-49.5 14.5q-22 22 -1 30q6 2 22.5 -1t21.5 2z" />
    <glyph glyph-name="tcedilla" unicode="&#x163;" horiz-adv-x="270" 
d="M74 -239q11 8 13.5 26t-6 33t-24.5 13q-3 0 -10.5 -4t-11 -4.5t-10.5 3.5q-2 2 -3 5t0 9t1.5 10t3 14.5t3.5 15.5q-15 14 -20 43q-9 70 -10 122q0 34 -2 102q-3 128 11 489q0 11 -9 11q-12 0 -32 -1.5t-24 -1.5q-26 -1 -135 -7t-173 -7q-23 -1 -42 9q-4 2 -6.5 5.5
t-4.5 9.5t-3 8q-4 8 5 10q46 4 62 5l232 11l121 8q8 2 11 8l14 170l3 23q37 33 75 2q12 -9 12 -23q-3 -27 -6.5 -88.5t-4.5 -77.5q-1 -9 1.5 -10.5t13.5 -1.5q44 0 92 4q40 2 115 3.5t107 2.5q22 1 38 -12q7 -8 9 -18q1 -3 -1.5 -6.5t-5.5 -2.5l-233 -13l-111 -7
q-10 -2 -16 -2q-8 -4 -8 -10q-2 -13 -13 -201q-10 -156 -10 -327q0 -81 6 -117q0 -2 2.5 -2.5t3.5 1.5q4 12 33.5 64t30.5 55q14 31 32.5 65t43.5 78t36 63q7 13 10 16q3 4 8 5q5 -1 6 0.5t4 -0.5l3 -2l3 -3l5 -5q-9 -16 -25 -45t-29 -53t-24 -46q-21 -41 -134 -294
q-6 -15 -21 -21q0 -7 5 -11h7q7 0 17 -1.5t17 -5.5q28 -17 29 -55t-23 -62q-17 -18 -47.5 -19.5t-49.5 14.5q-22 22 -1 30q6 2 22.5 -1t21.5 2z" />
    <glyph glyph-name="Tcaron" unicode="&#x164;" horiz-adv-x="825" 
d="M1476 692q8 -10 8 -24.5t-13 -16.5q-10 -2 -17 -2q-376 -11 -697 -63q-140 -20 -188 -31q-14 -5 -14 -20q-2 -22 -1 -32q0 -39 2 -119q5 -213 25 -360q9 -71 16 -112t24.5 -100.5t42.5 -104.5q13 -22 24 24l3 10q6 21 16 65q70 344 91 423q3 11 8.5 32t8.5 32q4 16 10 25
q13 13 24 7q18 -6 8 -40q-45 -160 -76 -333q-29 -160 -39 -198q-1 -3 -4.5 -16t-5.5 -19.5t-6 -19t-8 -19t-9.5 -16t-12 -13t-14.5 -7t-17.5 -2t-20.5 7.5q-34 17 -50 48q-81 159 -109 358.5t-30 445.5q0 2 -0.5 7t-0.5 8q-2 15 -17 15q-28 -3 -29 -3q-19 -3 -60.5 -9.5
t-63.5 -9.5q-117 -15 -164 -23q-23 -4 -70 -4q-20 0 -44 20q-3 3 -5 10q-2 11 6 13q3 0 7 1t7 2q14 2 36.5 6t41.5 7t37 5q53 6 151.5 22t127.5 20q5 1 14.5 3t13.5 3q10 2 10 13q0 56 7.5 168.5t7.5 167.5q0 15 16 18q15 5 37.5 2.5t26.5 -21.5q2 -20 2 -29v-143
q0 -36 2 -104q0 -14 4 -44q0 -8 8 -6q16 3 48 7q54 7 162.5 22t162.5 22q224 28 461 34q13 1 35 0t29 -1t14 -9zM570 1075q-24 -28 -37 -42q-11 -15 -21 -16q-11 -3 -23 6q-2 1 -15 18q-8 11 -24.5 31.5t-18.5 23.5q-1 2 -2.5 4.5t-2.5 4.5q-2 9 4 11.5t15 2.5q8 1 17 -3
q4 -2 8 -7l4 -5q9 -16 31 -44q31 33 36 41q10 10 15 12q4 3 16 1q7 0 11 -4q5 -5 5 -13q-1 -1 -2.5 -3.5t-2.5 -3.5q-3 -3 -13 -15z" />
    <glyph glyph-name="tcaron" unicode="&#x165;" horiz-adv-x="270" 
d="M480 680q1 -3 -1.5 -6.5t-5.5 -2.5q-82 -4 -148 -8t-85 -5l-111 -7q-10 -2 -16 -2q-8 -4 -8 -10q-2 -13 -13 -201q-10 -156 -10 -327q0 -81 6 -117q0 -2 2.5 -2.5t3.5 1.5q4 12 33.5 64t30.5 55q14 31 32.5 65t43.5 78t36 63q7 13 10 16q3 4 8 5q5 -1 6 0.5t4 -0.5l3 -2
l3 -3l5 -5q-9 -16 -25 -45t-29 -53t-24 -46q-21 -41 -134 -294q-7 -16 -22.5 -22t-30.5 3q-18 13 -24 22t-10 31q-9 70 -10 122q0 34 -2 102q-3 128 11 489q0 11 -9 11q-12 0 -32 -1.5t-24 -1.5q-26 -1 -135 -7t-173 -7q-23 -1 -42 9q-4 2 -6.5 5.5t-4.5 9.5t-3 8q-4 8 5 10
q46 4 62 5l232 11l121 8q8 2 11 8l14 170q1 4 2 11.5t1 11.5q37 33 75 2q12 -9 12 -23q-3 -27 -6.5 -88.5t-4.5 -77.5q-1 -9 1.5 -10.5t13.5 -1.5q44 0 92 4q40 2 115 3.5t107 2.5q22 1 38 -12q7 -8 9 -18zM501 902q6 -48 -29.5 -95t-83.5 -52q-10 -1 -18 8q-8 12 5 14
q28 3 61 48q4 4 0 10q0 4 -2 6q-7 11 -16 57q-5 20 53 20q15 0 22 -4q6 -2 8 -12z" />
    <glyph glyph-name="Uring" unicode="&#x16e;" horiz-adv-x="591" 
d="M521 808v-35q11 -427 -55 -710q-23 -103 -98 -177q-33 -30 -74 -41t-83 7q-116 61 -153 150q-20 48 -29 128q-14 112 -16 326.5t-12 313.5q0 21 5 28q6 7 22 9q52 10 77 -9q25 -20 25 -67q-2 -369 22 -577q1 -10 3.5 -36t4.5 -39.5t5.5 -34.5t9 -38.5t13.5 -33.5
q25 -51 73 -64t90 27q63 65 83 176q3 20 12 69.5t13.5 76t9 67t4.5 73.5q0 20 6.5 131t2.5 170q-4 51 -6 102q-2 18 12 21q16 7 28 -5q4 -4 5 -8zM260 876q-9 22 6 43t39 23q48 4 56 -36q5 -23 -4 -41t-29 -25t-40 4t-28 32zM291 887q-2 -6 1.5 -13.5t9.5 -8.5
q10 -2 18.5 7.5t10.5 18.5q1 11 -4 17.5t-15 2.5q-18 -8 -21 -23v-1z" />
    <glyph glyph-name="uring" unicode="&#x16f;" horiz-adv-x="364" 
d="M339 152q-44 -58 -90 -43q-8 3 -15 7t-11.5 7.5t-9.5 10.5t-6.5 9.5t-5.5 10t-5 8.5t-3.5 0.5t-3.5 -2.5q0 -1 -1.5 -4.5t-3.5 -8t-3 -9.5q-2 -5 -7 -19t-7 -19.5t-7 -15.5t-10 -18t-12 -16q-29 -31 -73 -19.5t-61 47.5q-9 18 -14.5 39.5t-6.5 43t-0.5 40.5t3.5 39.5
t5 33t5.5 27t3.5 16.5q4 22 33 26.5t40 -12.5q10 -14 5 -44q-25 -115 -2 -175q7 -18 17 -22t19.5 4.5t18 21t14.5 26.5q22 51 23 90q3 48 17 81q14 19 43 19q31 -6 26 -35q-9 -54 -9 -73q-1 -22 10.5 -51t33.5 -19q7 4 25 28.5t42 62.5l25 38q6 7 11 19.5t7 15.5q5 7 13 7.5
t13 -6.5q4 -7 2 -24q-2 -14 -36.5 -67.5t-51.5 -75.5zM82 526q-9 22 6 43t39 23q48 4 56 -36q5 -23 -4 -41t-29 -25t-40 4t-28 32zM113 537q-2 -6 1.5 -13.5t9.5 -8.5q10 -2 18.5 7.5t10.5 18.5q1 11 -4 17.5t-15 2.5q-18 -8 -21 -23v-1z" />
    <glyph glyph-name="Udblacute" unicode="&#x170;" horiz-adv-x="591" 
d="M521 808v-35q11 -427 -55 -710q-23 -103 -98 -177q-33 -30 -74 -41t-83 7q-116 61 -153 150q-20 48 -29 128q-14 112 -16 326.5t-12 313.5q0 21 5 28q6 7 22 9q52 10 77 -9q25 -20 25 -67q-2 -369 22 -577q1 -10 3.5 -36t4.5 -39.5t5.5 -34.5t9 -38.5t13.5 -33.5
q25 -51 73 -64t90 27q63 65 83 176q3 20 12 69.5t13.5 76t9 67t4.5 73.5q0 20 6.5 131t2.5 170q-4 51 -6 102q-2 18 12 21q16 7 28 -5q4 -4 5 -8zM313 967q6 -7 7.5 -18t-3.5 -19q-41 -53 -86 -75q-1 -1 -8 -3q-9 -2 -12 9.5t3 16.5q4 6 14 13q14 8 25 19.5t25.5 31
t19.5 24.5q7 9 15 1zM391 968q6 -7 7.5 -18t-3.5 -19q-40 -52 -87 -75q-1 -1 -7 -3q-8 -2 -11.5 9.5t1.5 16.5q5 6 15 13q14 8 25 19.5t25.5 31t19.5 24.5q7 8 15 1z" />
    <glyph glyph-name="udblacute" unicode="&#x171;" horiz-adv-x="364" 
d="M339 152q-44 -58 -90 -43q-8 3 -15 7t-11.5 7.5t-9.5 10.5t-6.5 9.5t-5.5 10t-5 8.5t-3.5 0.5t-3.5 -2.5q0 -1 -1.5 -4.5t-3.5 -8t-3 -9.5q-2 -5 -7 -19t-7 -19.5t-7 -15.5t-10 -18t-12 -16q-29 -31 -73 -19.5t-61 47.5q-9 18 -14.5 39.5t-6.5 43t-0.5 40.5t3.5 39.5
t5 33t5.5 27t3.5 16.5q4 22 33 26.5t40 -12.5q10 -14 5 -44q-25 -115 -2 -175q7 -18 17 -22t19.5 4.5t18 21t14.5 26.5q22 51 23 90q3 48 17 81q14 19 43 19q31 -6 26 -35q-9 -54 -9 -73q-1 -22 10.5 -51t33.5 -19q7 4 25 28.5t42 62.5l25 38q6 7 11 19.5t7 15.5q5 7 13 7.5
t13 -6.5q4 -7 2 -24q-2 -14 -36.5 -67.5t-51.5 -75.5zM149 618q6 -7 7.5 -18t-3.5 -19q-41 -53 -86 -75q-1 -1 -8 -3q-9 -2 -12 9.5t3 16.5q4 6 14 13q14 8 25 19.5t25.5 31t19.5 24.5q7 9 15 1zM227 619q6 -7 7.5 -18t-3.5 -19q-40 -52 -87 -75q-1 -1 -7 -3
q-8 -2 -11.5 9.5t1.5 16.5q5 6 15 13q14 8 25 19.5t25.5 31t19.5 24.5q7 8 15 1z" />
    <glyph glyph-name="Ydieresis" unicode="&#x178;" horiz-adv-x="527" 
d="M470 862q7 -14 8.5 -40.5t0.5 -39.5q-5 -29 -27 -112q-19 -74 -55 -196q-67 -247 -78 -392q-8 -90 -11 -217q0 -6 -2 -17t-2 -17q-2 -8 -4 -12q-10 -19 -28.5 -18t-31.5 18q-12 16 -9 71q11 313 87 598q11 48 25 93q-3 -7 -9 -21.5t-9 -21.5q-12 -30 -27 -59t-38 -63.5
t-52 -53.5t-59 -14q-33 6 -65 24q-23 14 -38.5 36.5t-23.5 57t-11 54.5t-6 60q-1 7 -1 11q-5 68 2 260v38q0 16 21.5 22.5t43 -2t22.5 -28.5v-26q0 -9 -0.5 -26.5t-1 -31.5t-1.5 -26q-8 -209 20 -315q17 -66 60 -71q6 -1 12.5 1t13 6.5t12 9.5t12 13.5t11 14.5t10.5 15.5
t9 15t8.5 15t7.5 12.5q18 30 59 136q18 45 44 101q10 22 32 66q22 43 38 65q19 25 31 6zM232 1016q12 2 19.5 -5t7.5 -20q0 -32 -25 -50q-11 -7 -21 -6q-16 1 -26.5 14.5t-3.5 28.5q16 31 49 38zM352 991q1 -10 -7 -26t-19 -24q-11 -7 -20 -6q-16 1 -27 14.5t-4 28.5
q18 32 49 38q25 3 28 -25z" />
    <glyph glyph-name="Zacute" unicode="&#x179;" horiz-adv-x="485" 
d="M401 739q12 19 18 43q1 7 -5 10t-18.5 1.5t-22 -3.5t-22.5 -6l-13 -4q-62 -17 -101 -37q-43 -24 -55 -28q-35 -11 -59 3q-5 3 -6 6q-6 12 15 19q170 68 255 82q32 5 58 -7q25 -10 27 -41.5t-7.5 -59t-22.5 -49.5q-15 -27 -126 -239q-17 -32 -50 -93t-53.5 -99t-48 -91.5
t-49.5 -99.5q-11 -23 -31 -85q-4 -14 -10 -42q-2 -6 0 -11q0 -3 3 -5t5 -1q39 13 44 15q105 43 265 87q27 7 33 -8q6 -14 -18 -24l-11 -3q-91 -19 -253 -90q-26 -12 -39 -19q-19 -9 -42 -9q-25 0 -43 18t-17 43q2 49 26 122q11 34 28.5 75t30.5 66t39 74.5t35 66.5
q84 165 157 280q40 65 84 143zM352 970q7 -8 9 -21t-4 -22q-48 -61 -104 -89q-2 -2 -8 -4q-11 -2 -14.5 11t2.5 20q7 7 18 15q16 10 29 23t31.5 37t22.5 29q8 13 18 1z" />
    <glyph glyph-name="zacute" unicode="&#x17a;" horiz-adv-x="316" 
d="M130 312q15 27 10 44q-1 6 -10 6.5t-20 -3t-19 -7t-13 -5.5q-30 -15 -56 -46q-3 -3 -10 -5q-1 0 -7.5 4t-7.5 4q-8 6 11 25q63 55 113 68q39 10 74 -17q23 -18 24 -48q0 -51 -21 -86q-33 -57 -80 -124q-15 -21 -43 -63q-13 -19 3 -18q5 1 13 2t13 1q39 2 78 9q23 3 39 -6
q7 -4 8 -11q0 -10 -8 -15q-10 -5 -22 -7q-18 -3 -142 -29q-31 -5 -61 15q-11 7 -19 25q-7 19 -7.5 23.5t7.5 23.5q17 37 73 115q31 43 80 125zM175 558q7 -8 9 -21t-4 -22q-48 -61 -104 -89q-2 -2 -8 -4q-11 -2 -14.5 11t2.5 20q8 7 18 15q16 10 29 23t31.5 37t22.5 29
q8 13 18 1z" />
    <glyph glyph-name="Zdot" unicode="&#x17b;" horiz-adv-x="485" 
d="M401 739q12 19 18 43q1 7 -5 10t-18.5 1.5t-22 -3.5t-22.5 -6l-13 -4q-62 -17 -101 -37q-43 -24 -55 -28q-35 -11 -59 3q-5 3 -6 6q-6 12 15 19q170 68 255 82q32 5 58 -7q25 -10 27 -41.5t-7.5 -59t-22.5 -49.5q-15 -27 -126 -239q-17 -32 -50 -93t-53.5 -99t-48 -91.5
t-49.5 -99.5q-11 -23 -31 -85q-4 -14 -10 -42q-2 -6 0 -11q0 -3 3 -5t5 -1q39 13 44 15q105 43 265 87q27 7 33 -8q6 -14 -18 -24l-11 -3q-91 -19 -253 -90q-26 -12 -39 -19q-19 -9 -42 -9q-25 0 -43 18t-17 43q2 49 26 122q11 34 28.5 75t30.5 66t39 74.5t35 66.5
q84 165 157 280q40 65 84 143zM345 906v-2q-6 -34 -26 -48q-7 -6 -20 -6q-16 1 -27 15t-4 28q16 31 50 38q11 2 19 -5t8 -20z" />
    <glyph glyph-name="zdot" unicode="&#x17c;" horiz-adv-x="316" 
d="M130 312q15 27 10 44q-1 6 -10 6.5t-20 -3t-19 -7t-13 -5.5q-30 -15 -56 -46q-3 -3 -10 -5q-1 0 -7.5 4t-7.5 4q-8 6 11 25q63 55 113 68q39 10 74 -17q23 -18 24 -48q0 -51 -21 -86q-33 -57 -80 -124q-15 -21 -43 -63q-13 -19 3 -18q5 1 13 2t13 1q39 2 78 9q23 3 39 -6
q7 -4 8 -11q0 -10 -8 -15q-10 -5 -22 -7q-18 -3 -142 -29q-31 -5 -61 15q-11 7 -19 25q-7 19 -7.5 23.5t7.5 23.5q17 37 73 115q31 43 80 125zM161 487v-2q-6 -34 -26 -48q-7 -6 -20 -6q-16 1 -27 15t-4 28q16 31 50 38q11 2 19 -5t8 -20z" />
    <glyph glyph-name="Zcaron" unicode="&#x17d;" horiz-adv-x="485" 
d="M401 739q12 19 18 43q1 7 -5 10t-18.5 1.5t-22 -3.5t-22.5 -6l-13 -4q-62 -17 -101 -37q-43 -24 -55 -28q-35 -11 -59 3q-5 3 -6 6q-6 12 15 19q170 68 255 82q32 5 58 -7q25 -10 27 -41.5t-7.5 -59t-22.5 -49.5q-15 -27 -126 -239q-17 -32 -50 -93t-53.5 -99t-48 -91.5
t-49.5 -99.5q-11 -23 -31 -85q-4 -14 -10 -42q-2 -6 0 -11q0 -3 3 -5t5 -1q39 13 44 15q105 43 265 87q27 7 33 -8q6 -14 -18 -24l-11 -3q-91 -19 -253 -90q-26 -12 -39 -19q-19 -9 -42 -9q-25 0 -43 18t-17 43q2 49 26 122q11 34 28.5 75t30.5 66t39 74.5t35 66.5
q84 165 157 280q40 65 84 143zM349 895q-24 -28 -37 -42q-11 -15 -21 -16q-11 -3 -23 6q-2 1 -15 18q-8 11 -24.5 31.5t-18.5 23.5q-1 2 -2.5 4.5t-2.5 4.5q-2 9 4 11.5t15 2.5q8 1 17 -3q4 -2 8 -7l4 -5q9 -16 31 -44q31 33 36 41q10 10 15 12q4 3 16 1q7 0 11 -4
q5 -5 5 -13q-1 -1 -2.5 -3.5t-2.5 -3.5q-3 -3 -13 -15z" />
    <glyph glyph-name="zcaron" unicode="&#x17e;" horiz-adv-x="316" 
d="M130 312q15 27 10 44q-1 6 -10 6.5t-20 -3t-19 -7t-13 -5.5q-30 -15 -56 -46q-3 -3 -10 -5q-1 0 -7.5 4t-7.5 4q-8 6 11 25q63 55 113 68q39 10 74 -17q23 -18 24 -48q0 -51 -21 -86q-33 -57 -80 -124q-15 -21 -43 -63q-13 -19 3 -18q5 1 13 2t13 1q39 2 78 9q23 3 39 -6
q7 -4 8 -11q0 -10 -8 -15q-10 -5 -22 -7q-18 -3 -142 -29q-31 -5 -61 15q-11 7 -19 25q-7 19 -7.5 23.5t7.5 23.5q17 37 73 115q31 43 80 125zM175 494q-24 -28 -37 -42q-11 -15 -21 -16q-11 -3 -23 6q-2 2 -15 18q-8 11 -24.5 31.5t-18.5 23.5q-1 2 -2.5 4.5t-2.5 4.5
q-2 9 4 11.5t15 2.5q8 1 17 -3l12 -12q9 -16 31 -44q31 33 36 41q10 10 15 12q4 3 16 1q7 0 11 -4q5 -5 5 -13q-1 -1 -2.5 -3.5t-2.5 -3.5q-3 -3 -13 -15z" />
    <glyph glyph-name="circumflex" unicode="&#x2c6;" horiz-adv-x="286" 
d="M21 928q6 6 24 20t24 21q23 21 42 21q15 0 26 -10t22.5 -28.5t20.5 -27.5l4 -6q5 -5 6 -7q3 -8 -1 -13.5t-11 -5.5q-17 -1 -29 15q-24 32 -38 43q-3 0 -4 -1q-5 -5 -14.5 -14t-17.5 -16.5t-15 -13.5q-7 -7 -19 -7q-8 1 -17 7t-8 14q2 7 5 9z" />
    <glyph glyph-name="caron" unicode="&#x2c7;" horiz-adv-x="286" 
d="M175 943q-24 -28 -37 -42q-11 -15 -21 -16q-11 -3 -23 6q-2 2 -15 18q-8 11 -24.5 31.5t-18.5 23.5q-1 2 -2.5 4.5t-2.5 4.5q-2 9 4 11.5t15 2.5q8 1 17 -3q4 -2 8 -7l4 -5q9 -16 31 -44q31 33 36 41q10 10 15 12q4 3 16 1q7 0 11 -4q5 -5 5 -13q-1 -1 -2.5 -3.5
t-2.5 -3.5q-3 -3 -13 -15z" />
    <glyph glyph-name="breve" unicode="&#x2d8;" horiz-adv-x="299" 
d="M37 943q10 10 24 9q12 -2 17 -11q5 -11 -9 -32q-12 -21 1 -33q24 -19 78 -2q10 3 16 9q10 14 -5 36q-10 12 -7 18q6 12 17 5q9 -7 13 -15q24 -42 2 -67q-11 -9 -35 -15q-29 -10 -67.5 -2.5t-51.5 36.5q-7 13 -5 33t12 31z" />
    <glyph glyph-name="dotaccent" unicode="&#x2d9;" horiz-adv-x="198" 
d="M117 907v-2q-6 -34 -26 -48q-8 -6 -20 -6q-16 1 -27 15t-4 28q16 31 50 38q11 2 19 -5t8 -20z" />
    <glyph glyph-name="ring" unicode="&#x2da;" horiz-adv-x="265" 
d="M37 874q-9 22 6 43t39 23q48 4 56 -36q5 -23 -4 -41t-29 -25t-40 4t-28 32zM68 885q-2 -6 1.5 -13.5t9.5 -8.5q10 -2 18.5 7.5t10.5 18.5q1 11 -4 17.5t-15 2.5q-18 -8 -21 -23v-1z" />
    <glyph glyph-name="ogonek" unicode="&#x2db;" horiz-adv-x="248" 
d="M98 -136q-42 3 -55 37q-20 49 -1 80q9 15 29.5 23.5t37.5 -0.5q-2 15 14 18.5t25 -5.5q5 -7 7.5 -18.5t-1.5 -20.5t-15 -6q-24 7 -34 1q-15 -10 -13 -29q2 -25 12 -35q9 -6 18.5 -5.5t18.5 2.5t10 1q4 1 11 -9q6 -10 0 -18q-17 -23 -64 -16z" />
    <glyph glyph-name="tilde" unicode="&#x2dc;" horiz-adv-x="337" 
d="M78 906q-7 -4 -3 -14q1 -2 3.5 -8t2.5 -10q1 -6 -4 -11t-12 -7q-15 -2 -23 10q-7 9 -7 26q-2 36 24 47q25 10 54 2q22 -6 57 -33q9 -9 16 -4q7 4 0 16q-9 12 -9 15q-1 5 2.5 10t8.5 6q11 3 21 -7q15 -14 15.5 -36t-15.5 -35q-19 -16 -49 -13q-25 4 -46 25l-6 6l-7 7
t-7 5.5t-8 3.5h-6q-1 0 -2 -1z" />
    <glyph glyph-name="hungarumlaut" unicode="&#x2dd;" horiz-adv-x="322" 
d="M130 952q6 -7 7.5 -18t-3.5 -19q-41 -53 -86 -75q-1 -1 -8 -3q-9 -2 -12 9.5t3 16.5q4 6 14 13q14 8 25 19.5t25.5 31t19.5 24.5q7 9 15 1zM208 953q6 -7 7.5 -18t-3.5 -19q-40 -52 -87 -75q-1 -1 -7 -3q-8 -2 -11.5 9.5t1.5 16.5q5 6 15 13q14 8 25 19.5t25.5 31
t19.5 24.5q7 8 15 1z" />
    <glyph glyph-name="endash" unicode="&#x2013;" horiz-adv-x="461" 
d="M94 -13q-17 1 -40.5 12.5t-19.5 27.5q1 5 6.5 8t14 4t15.5 1.5t16 0t10 -0.5q6 0 80 -0.5t88 1.5q9 1 29 3.5t29 2.5t29 -1q24 -3 47 -19q8 -8 9 -12q3 -9 -8 -18q-8 -4 -19 -4q-197 -13 -286 -6z" />
    <glyph glyph-name="emdash" unicode="&#x2014;" horiz-adv-x="564" 
d="M150 -13q-17 1 -40.5 12.5t-19.5 27.5q1 5 6.5 8t14 4t15.5 1.5t16 0t10 -0.5q6 0 80 -0.5t88 1.5q9 1 29 3.5t29 2.5t29 -1q24 -3 47 -19q8 -8 9 -12q3 -9 -8 -18q-8 -4 -19 -4q-197 -13 -286 -6z" />
    <glyph glyph-name="quoteleft" unicode="&#x2018;" horiz-adv-x="220" 
d="M15 844q-8 63 38 124t109 67q13 1 23 -10q4 -6 2.5 -12t-8.5 -7q-36 -4 -80 -62q-3 -5 -1 -13q1 -4 4 -8q10 -18 21 -74q5 -26 -69 -26q-20 0 -29 5q-8 3 -10 16z" />
    <glyph glyph-name="quoteright" unicode="&#x2019;" horiz-adv-x="220" 
d="M177 1009q8 -62 -38.5 -123t-108.5 -68q-14 -2 -23 11q-5 5 -3 11t9 7q38 5 79 62q5 5 1 13q-2 6 -3 8q-10 16 -21 74q-6 26 69 26q19 0 29 -5q8 -3 10 -16z" />
    <glyph glyph-name="quotesinglbase" unicode="&#x201a;" horiz-adv-x="220" 
d="M177 89q8 -62 -38.5 -123t-108.5 -68q-14 -2 -23 11q-5 5 -3 11t9 7q38 5 79 62q5 5 1 13q-2 6 -3 8q-10 16 -21 74q-6 26 69 26q19 0 29 -5q8 -3 10 -16z" />
    <glyph glyph-name="quotedblleft" unicode="&#x201c;" horiz-adv-x="349" 
d="M141 848q-8 63 38.5 124t108.5 68q12 1 23 -11q5 -5 3 -11.5t-9 -7.5q-38 -5 -79 -61q-5 -5 -1 -14q1 -1 2 -3.5t1 -3.5q10 -16 21 -74q6 -26 -69 -26q-19 0 -29 4q-9 5 -10 16zM7 844q-8 63 38 124t109 67q13 1 23 -10q4 -6 2.5 -12t-8.5 -7q-36 -4 -80 -62
q-3 -5 -1 -13q1 -4 4 -8q10 -18 21 -74q5 -26 -69 -26q-20 0 -29 5q-8 3 -10 16z" />
    <glyph glyph-name="quotedblright" unicode="&#x201d;" horiz-adv-x="349" 
d="M175 1014q7 -63 -39 -123.5t-109 -67.5q-13 -2 -22 11q-5 5 -3.5 11t8.5 7q39 5 80 62q3 5 1 13q-2 6 -3 8q-11 18 -22 74q-5 26 69 26q20 0 29 -5q9 -3 11 -16zM309 1019q8 -63 -38.5 -124t-108.5 -68q-15 0 -23 11q-5 5 -3.5 11.5t8.5 7.5q39 5 80 61q4 8 1 14
q-1 1 -2 3.5t-1 3.5q-10 17 -21 74q-2 9 6 15.5t20 8t24 2.5t18 0q20 0 29 -4q10 -5 11 -16z" />
    <glyph glyph-name="quotedblbase" unicode="&#x201e;" horiz-adv-x="349" 
d="M175 94q7 -63 -39 -123.5t-109 -67.5q-13 -2 -22 11q-5 5 -3.5 11t8.5 7q39 5 80 62q3 5 1 13q-2 6 -3 8q-11 18 -22 74q-5 26 69 26q20 0 29 -5q9 -3 11 -16zM309 99q8 -63 -38.5 -124t-108.5 -68q-15 0 -23 11q-5 5 -3.5 11.5t8.5 7.5q39 5 80 61q4 8 1 14q-1 1 -2 3.5
t-1 3.5q-10 17 -21 74q-2 9 6 15.5t20 8t24 2.5t18 0q20 0 29 -4q10 -5 11 -16z" />
    <glyph glyph-name="dagger" unicode="&#x2020;" horiz-adv-x="378" 
d="M169 409q-2 -20 -1 -151t2 -166q0 -3 1 -20t1 -30.5t-2.5 -29t-10 -23t-19.5 -4.5q-11 2 -17 11.5t-7.5 24.5t-1.5 27.5t1 28t1 20.5q0 249 -1 313q-2 0 -41.5 -3t-40.5 2q-16 4 -20 20.5t10 25.5q5 3 38 3q2 0 12.5 -0.5t18 -0.5t15 1.5t9.5 4.5v28v41q0 15 -1 71.5
t-1.5 90.5t1.5 72q2 19 14.5 24.5t25.5 -4t14 -26.5v-21v-25v-21v-232q9 0 26 0.5t26 0.5q2 0 11 0.5t13 0t10.5 -2t10 -5.5t5.5 -10q5 -10 2.5 -16.5t-4.5 -10.5t-10 -5t-13 -1h-13.5h-12.5q-50 0 -51 -3z" />
    <glyph glyph-name="daggerdbl" unicode="&#x2021;" horiz-adv-x="378" 
d="M249 255q15 0 22.5 -15.5t-3.5 -26.5q-4 -4 -8.5 -5t-13 -1.5t-9.5 -0.5q-7 0 -21 -0.5t-21 -0.5q-24 0 -25 -1q-2 -2 -2 -10.5t1 -19t1 -12.5q0 -54 1 -81q0 -3 1 -20t1 -30.5t-2.5 -29t-10 -23t-19.5 -4.5q-11 2 -17 11.5t-7.5 24.5t-1.5 27.5t1 28t1 20.5v117
q-9 0 -26 -0.5t-26 -0.5q-13 -3 -28.5 -0.5t-21.5 16.5q-3 8 -1.5 14.5t6.5 10t12.5 6t16 3t17 0.5h15.5h12q22 0 24 3q2 2 2 8.5t-1 14.5t-1 10q0 127 -1 191q-2 0 -41.5 -2.5t-40.5 1.5q-16 4 -20 20.5t10 25.5q5 3 38 3q2 0 12.5 -0.5t18 -0.5t15 1.5t9.5 4.5v28v41
q0 8 -2 77t1 77q2 19 14.5 24.5t25.5 -4t14 -26.5v-21v-25v-21v-152q8 0 26 0.5t26 0.5q2 0 11 0.5t13 0t10.5 -2t10 -5.5t5.5 -10q4 -12 -0.5 -19.5t-16.5 -10t-22.5 -3.5t-25 -0.5t-17.5 0.5q-18 0 -20 -3t-2 -9.5t1 -15t1 -10.5q0 -127 1 -190q13 1 39 1t39 1z" />
    <glyph glyph-name="bullet" unicode="&#x2022;" horiz-adv-x="296" 
d="M78 302q-17 3 -26.5 22t-3.5 42q7 30 29 44t49 -3q17 -17 14.5 -41.5t-21.5 -46t-41 -17.5z" />
    <glyph glyph-name="ellipsis" unicode="&#x2026;" horiz-adv-x="458" 
d="M20 348q3 21 16.5 34t32.5 9q20 -3 27.5 -19t4.5 -37q-3 -27 -21 -43t-40 -3q-27 16 -20 59zM145 348q3 21 16.5 34t32.5 9q20 -3 28 -19t5 -37q-3 -27 -21 -43t-40 -3q-28 17 -21 59zM266 348q3 21 16.5 34t32.5 9q20 -3 28 -19t5 -37q-3 -27 -21 -43t-40 -3
q-28 17 -21 59z" />
    <glyph glyph-name="perthousand" unicode="&#x2030;" horiz-adv-x="319" 
d="M235 426q5 13 14.5 39t14.5 39q7 20 2 29q-9 16 -41 10q-21 -4 -26 -14q-2 -5 -2 -16q0 -115 -34 -196q-21 -48 -52 -74q-40 -33 -85 -26q-40 8 -61 45q-19 30 -17 83q3 76 44 157q47 91 98 122q41 24 76 7q8 -4 12 -9q11 -18 -18 -44q-58 -54 -93.5 -127t-42.5 -151
q0 -17 8 -20q6 -1 13 4q49 30 77.5 83.5t27.5 112.5q0 46 10 60q7 9 25 18q38 16 78 11q25 -4 37 -18q12 -16 5 -38q-3 -13 -15 -37q-11 -22 -20.5 -50t-15 -49t-13.5 -54.5t-12 -50.5q-15 -58 -50 -162t-43 -129q-10 -35 -6 -54q6 0 15 11q8 11 40.5 69t59.5 81q24 19 34 3
q4 -6 9 -19t10 -20q16 -23 15 -33q0 -2 -1 -6t-1.5 -6.5t-0.5 -6t1.5 -5.5t4.5 -3q18 27 20 65q1 17 -6 25t-24 14q-13 4 -12 14q1 6 9 8.5t15 -0.5q24 -8 39 -32t15 -51q0 -41 -27 -82.5t-65 -22.5q-23 12 -40 50q-5 10 -10 11q-6 1 -14 -7q-15 -18 -33.5 -58t-23.5 -49
q-14 -26 -32 -33q-31 -13 -45.5 18t-12.5 63q3 45 18.5 100.5t25.5 82.5t38 96q37 93 84 222zM511 41q-42 -64 -102 -12q-27 23 -26 65t28 64t51 24q7 0 20.5 -8.5t19.5 -16.5q21 -25 24.5 -56.5t-15.5 -59.5zM434 73q3 -9 12.5 -16.5t17.5 -4.5q12 5 15 26.5t-3 33.5
q-13 37 -29 18q-20 -29 -13 -57z" />
    <glyph glyph-name="guilsinglleft" unicode="&#x2039;" horiz-adv-x="288" 
d="M134 25q-9 9 -36.5 36t-46 47t-32.5 40q-28 39 25 92q12 12 87 100q2 2 9 10.5t10.5 12t11 7.5t14.5 4q11 1 20 -7.5t10 -20.5q0 -9 -5.5 -19.5t-11 -17.5t-15.5 -17.5t-13 -14.5q-15 -18 -43 -54q-3 -4 -12.5 -13.5t-16.5 -17.5t-10 -15t0 -13l20.5 -20.5t42 -42.5
t40.5 -46.5t16 -33.5q-5 -22 -28 -20q-5 0 -9 1.5t-8 4.5t-6 5l-6.5 6.5z" />
    <glyph glyph-name="guilsinglright" unicode="&#x203a;" horiz-adv-x="276" 
d="M40 -11q-21 0 -28 19.5t3 35.5q5 10 22.5 27t21.5 22q13 15 41 47q3 3 12.5 13t16.5 18.5t9 15.5t-5 15l-6.5 6.5l-8 8l-6.5 6.5q-5 5 -15 15.5t-15 15.5q-40 40 -51 53q-25 32 -7 49q10 9 22.5 7t22.5 -10q9 -8 24 -25.5t21 -23.5q8 -9 34 -35.5t39 -41.5q27 -31 18 -58
q-3 -9 -8 -16t-15.5 -18t-12.5 -13q-28 -32 -43 -49q-8 -10 -24 -28t-23 -27q-1 -1 -5 -6t-5.5 -7t-5.5 -6t-7 -5.5t-7.5 -3t-8.5 -1.5z" />
    <glyph glyph-name="Euro" unicode="&#x20ac;" horiz-adv-x="373" 
d="M14 125q20 10 22 12q5 5 2 31q0 61 19 107q28 60 71 69q6 1 12.5 1t12 -0.5t13.5 -3t12 -3.5t13 -5t11.5 -5.5t12 -6.5t10.5 -5q33 -15 38 -23q6 -8 4.5 -19t-11.5 -16t-32 8q-17 9 -53 23q-2 1 -7 3t-7 2.5t-6.5 1.5t-7.5 0.5t-6.5 -2t-6.5 -4.5q-8 -7 -14 -24
q-8 -26 -6 -93q58 24 73 29q34 12 47 8q8 -3 13.5 -12t4.5 -18q-1 -6 -6 -10t-9 -5.5t-12 -3t-11 -2.5q-23 -6 -67 -26l-7 -3q-7 -2 -13.5 -5t-7.5 -5q-4 -8 16 -48q11 -25 25 -28q18 -3 52 28q21 17 57 57q18 20 35 1q15 -16 -3 -40q-34 -45 -78 -74q-53 -35 -102 -13
q-39 18 -67 83q-20 -14 -37 3.5t1 35.5z" />
    <glyph glyph-name="trademark" unicode="&#x2122;" 
d="M209 933q22 26 38 50q3 6 8 6q9 0 13 -1q10 -3 10 -14q0 -2 -2 -58.5t-2 -58.5q-3 -7 -9 -5.5t-10 5.5q-8 8 -8 23q1 16 1 65v12l-2 -3q-3 -2 -6 -6l-2 -3q-2 -2 -6 -7t-6 -7q0 -1 -5.5 -7.5t-10 -9t-9.5 -0.5q-7 3 -11 11q-5 9 -17 25q1 -64 1 -74q0 -6 -2 -16
q0 -6 -7 -6q-10 1 -20 15q-2 3 -2 11v43q0 5 0.5 17t0.5 21.5t-1 17.5q-1 2 -8 2q-5 -1 -15.5 -2.5t-15.5 -2.5q-5 -2 -5 -5q-3 -15 -2 -28q1 -9 3 -45t2 -39t-3 -6q-5 -3 -10 -1q-6 2 -12.5 8.5t-6.5 12.5q0 41 -3 73q-1 9 -1 15q-1 14 -19 10q-15 -3 -29 -3q-9 0 -9 5
q0 6 7 8q5 1 14 2.5t13 2.5q2 1 6.5 1.5t8.5 1.5t7 4q2 2 4 2q7 1 17 -2q12 -2 17 -2t18 3t17 3q6 2 19 2q6 0 17 -16q6 -8 15.5 -26t13.5 -24q1 -2 6 0z" />
    <glyph glyph-name="uniE000" unicode="&#xe000;" horiz-adv-x="375" 
d="M44 155q-26 17 -48 44q-24 32 -16 73q5 31 19 48q13 19 62 32q45 11 90 8q42 -4 63 3q10 2 16 1q24 -4 20 -23q-7 -31 -8 -40q-6 -28 -6 -72q2 -47 27 -54q5 0 7.5 -0.5t7 2.5t6 4.5t6 5.5t5.5 5q16 17 44.5 61t35.5 65q4 8 16 10q7 1 12 -2t4 -11q-6 -30 -44.5 -87
t-65.5 -81q-17 -14 -41 -14q-12 -1 -27 7q-19 11 -40 51q-1 1 -5.5 -5t-10 -13.5t-6.5 -8.5q-32 -41 -67 -36q-25 4 -56 27zM94 238q-5 -19 -3 -38q2 -17 16 -11q6 3 12 10q11 15 21 35q12 24 18 35q4 10 3 14q0 10 -9 10q-10 -1 -27 -15.5t-24 -25.5q-4 -6 -7 -14z" />
    <glyph glyph-name="uniE001" unicode="&#xe001;" horiz-adv-x="450" 
d="M49 775q30 99 81 179q20 31 50 64q26 29 73 32q42 6 51 1q21 -10 32 -25q18 -27 4 -104q-10 -52 -41 -98q-6 -10 -27.5 -42.5t-31.5 -47.5t-28 -40t-35 -44.5t-35 -36.5q-23 -23 -34 -36q-15 -16 -15 -42q0 -22 -5 -49q-5 -34 -5.5 -74.5t1.5 -88.5t2 -75q0 -36 5 -61
q4 -4 7 1q7 20 16 37q3 6 13 25l15 28.5t14.5 23.5t19.5 24q23 23 38 25q27 6 57 -2q13 -4 20.5 -25.5t6.5 -37.5v-4q-1 -5 0 -5q2 -2 5 -2t7 2q12 8 49 22q40 15 91 23q7 1 13.5 -3.5t8.5 -12.5q2 -19 -16 -23q-44 -6 -84 -21q-31 -10 -72 -36q-9 -12 -10 -25
q-9 -61 -27 -116q-29 -86 -47 -104q-20 -22 -53 6q-25 20 -17 71q5 29 23 71q19 42 50 72q41 38 40 62q0 17 -7 40q-2 7 -10 12.5t-14 1.5q-52 -37 -100 -158q-8 -20 -13 -29q-9 -16 -7 -34q0 -6 1 -18.5t2 -18.5q0 -6 -1.5 -9.5t-6 -4.5t-8.5 -1t-11 2l-10.5 3t-9.5 3l-6 3
q-12 5 -19 21q-18 47 -23 69q-29 130 -20 260q2 20 2 61q0 12 -12 0q-134 -132 -151 -245q-1 -7 -5 -14q0 -2 -4 -4q-4 -4 -9.5 -2t-6.5 7q-10 57 44 152q36 59 98 128q13 14 43 40q11 9 12 22q6 40 8 60q11 88 34 165zM235 116q7 18 8 33v11q-2 2 -4 1q-8 -7 -13 -16
q-21 -35 -30 -63q-4 -12 -10 -36q-2 -8 1 -14q5 -10 13 1t12 21q4 16 23 62zM141 781q-14 -39 -28 -94q-6 -26 -4 -39q7 2 10 5q12 12 18 19q77 94 141 202q5 9 13 29q22 58 8 93q-1 2 -5.5 3.5t-7.5 0.5q-1 0 -5 -2q-86 -68 -140 -217z" />
    <glyph glyph-name="uniE002" unicode="&#xe002;" horiz-adv-x="327" 
d="M45 295q-10 -25 -23 -98q-12 -67 1 -103q13 -40 47 -48t57 19q13 16 38.5 50.5t34.5 45.5q111 151 127 157q8 3 15.5 -3t0.5 -18q-4 -7 -47.5 -63.5t-50.5 -67.5q-10 -15 -30 -42t-27 -37q-42 -61 -81 -80q-42 -21 -109 -2q-26 7 -41 29q-23 35 -23 102q0 99 66 183
q20 26 55 30q30 2 53 -2q7 -2 8 -3q4 -2 3.5 -11.5t-5.5 -10.5q-4 -1 -11 1t-10 2q-15 2 -28.5 -7t-19.5 -23z" />
    <glyph glyph-name="uniE003" unicode="&#xe003;" horiz-adv-x="427" 
d="M453 331q3 -7 2 -14q-36 -165 -99 -270q-36 -58 -72 -69q-41 -12 -88 15q-51 31 -79.5 88.5t-33.5 124.5q0 12 -6 17q-3 3 -23 0q-15 -3 -31 5t-24 23q-15 30 -2 65q16 45 62 61q16 7 19 12q3 4 3 14q2 172 52 329q52 164 148 230q52 36 114 44.5t119 -17.5
q56 -26 67 -88q11 -57 -18 -111q-44 -83 -104.5 -157.5t-151.5 -170.5q-30 -31 -142 -130q-1 -1 -5.5 -4.5t-6.5 -6.5q-3 -6 -5 -16q-4 -32 -2.5 -74.5t6.5 -81.5t25.5 -74t53.5 -52q27 -14 58 6q20 13 41 45q51 80 97 244q8 26 22 18q2 -1 4 -5zM73 284q10 15 8 25
q0 4 -1 7v3q0 9 -11 11q-11 0 -18 -8q-13 -17 -19 -53q-1 -9 5 -13q7 -3 14 2q9 5 22 26zM151 500q-6 -58 -3 -118q0 -3 3.5 -5t5.5 0q10 5 12 7q193 169 306 332q60 89 75 148q4 15 -4 37q-11 37 -35.5 55.5t-56 17.5t-61.5 -9.5t-61 -25.5q-47 -25 -67 -61
q-88 -152 -114 -378z" />
    <glyph glyph-name="uniE004" unicode="&#xe004;" horiz-adv-x="399" 
d="M418 204q-33 -47 -84.5 -84t-103.5 -43q-115 -13 -202 66q-68 59 -31 197q20 69 44 78q32 15 59 15q41 0 49 -23q13 -34 -13 -65q-11 -12 -34.5 -32t-29.5 -26q-7 -5 -10 -18q-13 -78 27 -112q32 -28 82 -39q62 -13 126.5 21.5t96.5 84.5q9 14 21 34q6 6 13 5q8 -5 9 -11
q0 -18 -19 -48zM80 344q-1 -5 3 -7t8 1q19 15 23 21q8 11 10 25q2 16 -9 27q-4 4 -12 2.5t-9 -7.5q-4 -9 -14 -62z" />
    <glyph glyph-name="uniE005" unicode="&#xe005;" horiz-adv-x="362" 
d="M0 9q-3 87 0 102t-7 27q-1 1 -13 19q-23 27 -25 55.5t8 49.5t32 52q3 6 5 17q0 49 1 58q14 147 23 184q13 54 28 85q5 11 25 63q3 9 13 10h66q29 -4 37 -32q8 -34 4 -64q-12 -69 -68 -200q-13 -33 -37 -101q-8 -24 -13 -35q-6 -13 -4.5 -19.5t14.5 -13.5q44 -23 56 -39
q5 -6 8.5 -13.5t7.5 -19t5 -15.5q4 -10 12 -3q17 13 55 33q8 3 14 9q7 6 32.5 26.5t41.5 34.5t30 28l3.5 3.5t4 4.5t3.5 3q13 3 20 -7q8 -8 3 -19q-1 -1 -10 -12t-23 -25t-23 -21q-1 -1 -3.5 -3t-3.5 -3q-20 -17 -59.5 -43t-54.5 -37q-3 -3 -10.5 -7.5t-11.5 -7.5
q-7 -5 -7 -15q0 -12 1 -40t0 -43q-2 -23 -13 -82q-13 -64 -37 -127q-4 -10 -19 -36q-8 -14 -25 -12q-5 0 -15.5 2t-15.5 2q-21 3 -28 19q-21 41 -24 80q-1 19 -1.5 40.5t-1 47.5t-0.5 40zM139 104q-2 10 -10 8q-40 -10 -60 -10q-6 0 -8 -8q-1 -6 -2.5 -17.5t-1.5 -17.5
q-3 -39 -1 -148q0 -15 10 -77l4 -8q3 -2 6.5 0t4.5 5q2 3 15 41q8 19 32 103q4 14 14 103q-2 18 -3 26zM62 219q3 -29 -1 -70q-1 -5 2 -6.5t10 -2.5q36 0 53 8q10 6 7 15q-6 26 -20 51q-11 17 -45 28q-3 2 -8 -3q-1 -2 2 -20z" />
    <glyph glyph-name="uniE006" unicode="&#xe006;" horiz-adv-x="414" 
d="M414 349q9 6 17.5 -4t9.5 -22q0 -35 -42 -79q-74 -80 -164 -147q-17 -12 -21 -26q-2 -7 0 -23q9 -100 11 -190t-21 -187t-72 -177q-28 -46 -58 -74.5t-85 -53.5q-32 -15 -71 -12.5t-68 22.5q-49 34 -64 122q-28 166 56 311q10 17 19 31q79 116 274 237q12 8 18 19
q6 10 2 34q-7 49 -13 73q-3 15 -6 14h-1q-1 0 -10.5 -16t-23.5 -34.5t-25 -23.5q-18 -8 -47 7q-40 20 -49.5 65t4.5 89t39 75q12 14 33.5 15.5t37.5 -1.5q20 0 34 -15q4 -4 2.5 -13.5t-6.5 -12.5q-16 0 -30 -16.5t-22 -37.5q-18 -47 -6 -77q2 -5 4 -6.5t4.5 1t4.5 5t5 7
t4 5.5q3 4 18 24.5t23 31.5q16 20 42 12q14 -3 12 -17q0 -2 -1.5 -14.5t-1.5 -19.5q2 -54 15 -108q3 -6 10 -3q125 77 201 200q4 8 8 10zM167 -210q9 100 -3 232q0 3 -2 9q0 1 -2.5 2.5t-4.5 0.5l-18 -9q-65 -46 -117.5 -96t-98 -112t-66 -135t-11.5 -149q3 -23 8 -43.5
t15 -48.5t27 -42.5t39 -11.5q138 23 204 241q22 72 30 162z" />
    <glyph glyph-name="uniE007" unicode="&#xe007;" horiz-adv-x="322" 
d="M243 120q-35 -6 -68 44q-5 8 -25 35q-1 2 -5 2.5t-6 -1.5q-26 -23 -19 -73q1 -7 1 -21q0 -8 -6.5 -14t-14.5 -6q-24 -2 -43 13q-11 8 -15 20q-126 429 30 724q32 60 95 93.5t129 21.5q46 -8 73 -32t15 -68q-12 -47 -39.5 -100t-48 -83.5t-61.5 -88.5q-15 -21 -41.5 -63
t-49.5 -74.5t-48 -59.5q-16 -18 -25 -38q-4 -10 -3 -20v-3q4 -19 10.5 -54.5t9.5 -51.5q1 -4 4.5 -5.5t6.5 1.5q6 7 14 12.5t20.5 11t17.5 8.5q12 7 26.5 -8t19.5 -29q4 -9 15.5 -25t15.5 -24q7 -9 15 -6.5t12 10.5q2 3 33 71q2 3 10 23.5t15 37.5t9 18q10 7 21 -1
q9 -5 9 -16q0 -1 -23 -60.5t-24 -62.5q-28 -51 -62 -58zM62 414q5 -3 21 17q17 26 69 102.5t86 130t64 106.5q44 83 45 119q2 18 -12 27q-33 21 -63 20.5t-59 -21.5t-50 -46.5t-35 -53.5q-75 -150 -70 -391q0 -4 1 -6t3 -4z" />
    <glyph glyph-name="uniE008" unicode="&#xe008;" horiz-adv-x="347" 
d="M376 312q-1 -8 -15 -24q-46 -52 -117 -102q-37 -27 -78.5 -37t-85.5 3q-39 15 -64 58.5t-21 85.5q0 4 3 19q3 12 12 21t33 9q25 0 36 -12q6 -6 8 -36q2 -39 28 -82q15 -25 46 -24q24 2 46 15q71 46 117 89l6.5 6.5l8.5 8.5l8 8q6 6 17 3.5t12 -9.5zM55 455
q-11 3 -22.5 12t-11.5 19q1 16 24 20.5t34 -3.5q10 -6 10 -22q0 -1 -1 -5t-2 -6q-8 -22 -31 -15z" />
    <glyph glyph-name="uniE009" unicode="&#xe009;" horiz-adv-x="259" 
d="M282 324q16 -9 7 -24q-23 -42 -42 -66q-3 -4 -8.5 -11t-8.5 -10q-18 -23 -39 -49q-38 -45 -77 -109q-7 -12 -4 -29q7 -66 18.5 -150t19.5 -150.5t12 -138.5q6 -99 0 -141q-16 -99 -69 -99q-48 -1 -83.5 29.5t-57.5 79.5q-91 211 54 522l18 33q8 16 8 31q-4 81 -6 163
q0 8 -2.5 23.5t-2.5 21.5q0 2 -3 2t-7 0.5t-6 1.5q-6 4 -10 16q-4 16 3 37q6 18 14 40q4 10 25 18q19 7 32.5 -4t19.5 -31q9 -30 14.5 -104.5t7.5 -89.5q3 -12 4 -13q0 -2 3 1q29 41 48 63q6 8 18.5 24t19.5 24q3 4 8.5 11.5t8.5 10.5q21 27 40 61q7 15 23 6zM77 -604
q12 12 11 46q-3 202 -48 473q-2 6 -4 8q-1 1 -2.5 1t-2.5 -1q-3 -3 -5 -7q-4 -10 -12.5 -29.5t-12.5 -29.5q-2 -5 -7 -22q-10 -34 -15 -50q-20 -64 -23 -149q-3 -97 38 -176q15 -30 41.5 -53t41.5 -11zM25 433q-9 1 -18 6.5t-6 13.5q5 21 27 19q17 -3 21 -5q5 -2 3 -8
q-3 -12 -13 -22q-6 -6 -14 -4z" />
    <glyph glyph-name="uniE00A" unicode="&#xe00a;" horiz-adv-x="389" 
d="M-1 299q0 145 28 285q8 41 19 73.5t30 67.5t49.5 57t71.5 27q30 4 54 -11.5t27 -48.5q7 -109 -98 -256q-22 -31 -60.5 -89.5t-51.5 -78.5q-5 -9 -4 -15q0 -7 0.5 -27.5t1.5 -31.5q0 -4 4 -4t4 2q2 2 4 6q1 2 2 3q8 16 20.5 46.5t20.5 49t23.5 42t34.5 41.5q20 18 50 23
q26 3 58 -7q27 -9 31 -49.5t-6 -64.5q-18 -58 -59 -106.5t-94 -61.5q-12 -2 -15 -10q-3 -14 23 -55q14 -24 33.5 -30t43.5 13q29 29 71.5 90.5t62.5 114.5q2 5 6 13t5 11q4 12 13 12.5t16 -8.5l-18 -44q-14 -49 -76 -142q-22 -32 -34 -48.5t-39.5 -34.5t-55.5 -13
q-42 8 -64 40q-16 24 -31 54q-1 3 -8 5q-1 0 -5 -4q-15 -48 -16 -63q-1 -17 -7 -58q-4 -17 -19 -18q-10 -2 -16 1q-10 7 -19 40q-11 42 -14 81t0 99.5t3 81.5zM139 275q-1 -4 -8.5 -19.5t-11.5 -28.5t0 -19q2 -4 6 -5.5t9.5 0.5t11 5t12.5 8t12.5 9.5t12 11l10 10l7.5 7.5
l5 5q38 43 58 109q6 10 5.5 31.5t-10.5 27.5q-15 9 -34.5 -7.5t-38 -50.5t-28.5 -54t-18 -40zM67 413q0 -8 8 0l11 16.5t19 29t13 19.5q35 46 82 129q46 81 46 113q0 14 -2 25.5t-11 20.5t-25 2q-35 -16 -59 -50q-32 -42 -55 -144q-17 -68 -27 -161z" />
    <glyph glyph-name="uniE00B" unicode="&#xe00b;" horiz-adv-x="425" 
d="M179 1125q24 26 49 27q71 6 74 -32q9 -90 -34 -159q-4 -6 -23.5 -35.5t-27 -41t-23.5 -33.5t-30 -38t-29 -31q-20 -20 -29 -30q-6 -7 -13.5 -49.5t-7.5 -51.5q-7 -87 -7 -197t20 -195q35 -160 114 -221q26 -20 50 -24t42.5 5.5t34.5 29.5t27.5 44t21.5 54t16 55t10 50
q1 5 2.5 16.5t3 21.5t3.5 20t5.5 15.5t7.5 4.5q7 1 11.5 -0.5t6 -5.5t2 -6t0.5 -7q0 -13 -13 -97q-16 -97 -53 -160q-23 -39 -61.5 -70.5t-76.5 -31.5q-112 0 -168 96q-87 145 -90 359q-2 157 44 400q5 25 17 77q21 82 43 127q31 61 81 114zM252 1108q-23 -18 -32 -30
q-34 -40 -54 -82q-31 -66 -49 -159l-2 -9l-3 -12q0 -1 2 -1q2 3 8 9l8 8q69 86 119 171q5 8 11 24q19 49 7 79q-1 4 -6.5 4.5t-8.5 -2.5z" />
    <glyph glyph-name="uniE00C" unicode="&#xe00c;" horiz-adv-x="556" 
d="M586 299q0 -2 -31 -54q-18 -30 -39 -71q-17 -33 -44 -69q-2 -3 -6.5 -8.5t-6 -7.5t-5.5 -6.5t-7 -6.5t-7.5 -4.5t-9.5 -4.5t-11 -3q-19 -4 -39 2.5t-26 21.5q-9 19 -8 29q0 18 2 52q0 3 2 15.5t3 24.5t1 24.5t-4 20t-12 7.5q-12 0 -16 -8q-8 -14 -12 -38q-4 -16 -9 -26
q-2 -12 -15 -9q-19 2 -33 11q-5 5 -6 8q-14 33 -16 55l-8 53q-8 24 -30.5 12.5t-31.5 -30.5q-8 -16 -10 -19q-14 -28 -19 -69t11 -68q4 -7 -2 -22q-13 -27 -32 -27q-3 0 -4 1q-9 4 -31 31q-53 72 -71 144q-13 32 -1.5 63.5t45.5 20.5q18 -4 27 -29l8 -20l8 15q12 31 53 64
q27 21 65 21q33 0 47 -31q3 -7 8.5 -29.5t13.5 -32.5q7 -7 16 -3q9 3 25.5 11.5t30.5 14t26 6.5q18 2 37 -9t19 -28q0 -56 -15 -133q-5 -28 14 -28q20 -5 45 39q9 16 27.5 47t30.5 52.5t23 46.5q6 13 24 4q6 -4 6 -23z" />
    <glyph glyph-name="uniE00D" unicode="&#xe00d;" horiz-adv-x="542" 
d="M76 342q-9 -64 -7 -78q2 -11 12 -16q2 -1 7 -1q10 0 14 5q5 5 13 19.5t9 15.5q22 31 37 39q16 8 41 9q22 0 43.5 -12.5t22.5 -33.5q2 -64 6 -82q7 -33 13.5 -46.5t25.5 -28.5q21 -17 69 -4q49 18 102 90.5t58 99.5q7 13 19 12q13 -2 12 -16q-5 -28 -32.5 -71t-51.5 -71
q-46 -53 -75 -67q-70 -34 -129 -11q-13 5 -21.5 14.5t-24.5 34.5q-15 23 -29 82q-1 5 -3 15.5t-4 18.5t-6 15q-10 17 -27 8q-14 -7 -19 -13q-17 -22 -23 -40q-13 -36 -32 -47q-3 -2 -28 -2q-33 0 -51 35q-18 33 -20 99q-3 51 21 53q13 3 36 2q16 -1 20 -7q5 -6 2 -20z" />
    <glyph glyph-name="uniE00E" unicode="&#xe00e;" horiz-adv-x="305" 
d="M129 78q-17 -26 -47 -50q-15 -13 -47 -4q-26 8 -44 36q-1 2 -5.5 7t-5.5 8q-17 23 -19 68q0 30 2 44l12 63l22 72q0 2 3 9.5t4 12.5q4 14 21 17q7 1 13 0t14.5 -3.5t13.5 -3.5q16 -6 25 -21q8 -13 4 -25q-1 -3 -3 -11q0 -5 6 -3q1 0 23.5 -2t44.5 -3.5t37 0.5
q41 2 59.5 7.5t42.5 21.5q12 7 18 5q13 -11 10.5 -24t-9.5 -18q-6 -3 -11 -6.5t-11 -6.5t-17 -6q-22 -6 -59.5 -10.5t-68.5 0.5q16 -14 20 -19q3 -5 5 -11t1.5 -12.5t-1.5 -12t-3 -12.5t-3.5 -11t-4.5 -10.5t-3 -7.5q-14 -39 -39 -78zM94 234q2 19 -11 25q-6 2 -10 -9
q-23 -93 -27 -121v-6q0 -2 2 -4.5t3 -1.5l1 1q1 0 2 0.5t1 1.5q4 6 6 10q25 70 29 84q2 6 4 20z" />
    </font>
</defs>
</svg>
