<?xml version="1.0" standalone="no"?>
<!DOCTYPE svg PUBLIC "-//W3C//DTD SVG 1.1//EN" "http://www.w3.org/Graphics/SVG/1.1/DTD/svg11.dtd" >
<svg xmlns="http://www.w3.org/2000/svg" xmlns:xlink="http://www.w3.org/1999/xlink" version="1.1">
<metadata>
Created by FontForge 20170731 at Tue Jun 23 00:26:29 2015
 By Aleksey,,,
Created with the help of MyScriptFont.com
Copyright belongs to the Creator.
</metadata>
<defs>
<font id="Tigerlily" horiz-adv-x="10" >
  <font-face 
    font-family="Tigerlily"
    font-weight="500"
    font-stretch="normal"
    units-per-em="1000"
    panose-1="2 0 6 3 0 0 0 0 0 0"
    ascent="800"
    descent="-200"
    x-height="491.5"
    cap-height="691.5"
    bbox="8.92308 -48.3704 823.72 697.067"
    underline-thickness="50"
    underline-position="-200"
    unicode-range="U+0020-20AC"
  />
<missing-glyph horiz-adv-x="364" 
d="M33 0v666h265v-666h-265zM66 33h199v600h-199v-600z" />
    <glyph glyph-name=".notdef" horiz-adv-x="364" 
d="M33 0v666h265v-666h-265zM66 33h199v600h-199v-600z" />
    <glyph glyph-name=".null" horiz-adv-x="0" 
 />
    <glyph glyph-name="nonmarkingreturn" horiz-adv-x="333" 
 />
    <glyph glyph-name="space" unicode=" " horiz-adv-x="420" 
 />
    <glyph glyph-name="exclam" unicode="!" horiz-adv-x="117" 
d="M26 668q16 24 39 24t35 -25q10 -25 6 -33q-4 -6 -20 -159q-13 -122 -18.5 -153.5t-15.5 -31.5q-7 0 -13.5 49t-14 138.5t-8.5 94.5q-3 43 -1 62t11 34zM30 200q15 12 24.5 10.5t26.5 -18.5q36 -36 -1 -63q-20 -14 -36 -9t-26 17t-7.5 30.5t19.5 32.5z" />
    <glyph glyph-name="numbersign" unicode="#" horiz-adv-x="464" 
d="M198 641q11 39 23 47t40 -4q11 -4 11 -14.5t-13 -48.5q-19 -62 -20 -84q-2 -18 3.5 -22.5t33.5 -6.5q30 -2 36.5 2.5t15.5 36.5q11 44 20 85q7 34 18 47t32.5 13t22 -22t-18.5 -73q-33 -89 -6 -89q4 0 9 2q5 1 10.5 1t10.5 -1.5t10 -4.5t9 -6t6.5 -6.5t2.5 -7t-2 -7.5
q-6 -11 -50 -11q-27 0 -35.5 -3.5t-8.5 -15.5q0 -18 -14 -53q-18 -42 -13.5 -54t36.5 -12q38 0 44 -14q5 -16 -11 -16q-4 0 -22.5 -2t-27.5 -3q-30 -2 -38.5 -11.5t-25.5 -60.5q-24 -72 -34 -90t-28 -18q-19 0 -20 7q-2 9 22 81q25 77 25 81q0 2 -6.5 3.5t-16.5 2t-23 -0.5
l-45 -3l-19 -63q-17 -53 -27.5 -71t-26.5 -18q-34 0 -8 90q18 57 13 62q-2 3 -19.5 6t-37.5 5t-23 3q-2 0 -2 3t1.5 8t4.5 11q7 12 17 15t37 1q30 -2 37.5 1.5t11.5 20.5q4 19 15 53q11 35 6 44.5t-34 12.5q-37 2 -37 17q0 14 49 20q36 4 43.5 9.5t13.5 34.5q12 54 23 91z
M309 463q0 4 -22 4t-45 -3t-26 -7q-4 -8 -24 -64l-19 -54h47q37 0 48.5 9.5t11.5 37.5q0 16 15 45q14 28 14 32z" />
    <glyph glyph-name="dollar" unicode="$" horiz-adv-x="324" 
d="M145 671q2 13 10 18.5t15 0.5t7 -17q0 -11 6.5 -17t22.5 -10q32 -6 60 -36.5t27 -58.5v-30l-16 24q-47 69 -81 69q-14 0 -16.5 -12.5t-2.5 -71.5v-84l31 -17q27 -14 65 -46q35 -31 40 -72.5t-19 -77t-70 -50.5q-30 -8 -38.5 -16t-10.5 -28q-3 -28 -13 -29t-15 27
q-3 19 -10 25t-29 9q-38 4 -66 18q-22 10 -27 20t-5 43q0 47 10 47q7 0 15 -29q8 -27 31.5 -46.5t51.5 -23.5l24 -3l6 200l-55 41q-63 48 -69.5 94t44.5 87q24 19 49 24t28 28zM147 540q0 64 -12 64q-14 0 -30.5 -18.5t-16.5 -34t20 -45.5t30 -30q9 0 9 64zM215 345
q-22 24 -30 24t-8 -85q0 -62 2.5 -72t19.5 -5q23 7 37 25q17 18 10 52.5t-31 60.5z" />
    <glyph glyph-name="percent" unicode="%" horiz-adv-x="612" 
d="M113 653q41 26 63.5 28t55.5 -18q77 -48 165 -14q42 14 59 26q10 8 21.5 3t11.5 -16q0 -8 -110 -195q-108 -182 -159 -270q-30 -50 -44 -66.5t-27 -16.5q-23 0 -23 7q0 6 82 144q192 322 200 339q1 1 -8 2.5t-24 2t-33 0.5h-68l5 -30q5 -30 -20.5 -91.5t-51.5 -82.5
q-59 -48 -101.5 -45.5t-77.5 55.5q-34 53 -9 124t93 114zM221 638q-18 13 -24.5 13.5t-27.5 -8.5q-19 -7 -55.5 -77t-36.5 -98q0 -42 9.5 -56t38.5 -14q32 0 63.5 28t50.5 73q15 37 9.5 80.5t-27.5 58.5zM484 418q69 16 99 -24t13 -123q-7 -30 -19 -50.5t-38 -48.5
q-33 -34 -47 -41t-46 -7q-46 0 -65 11.5t-33 47.5q-17 40 -9.5 77t39.5 82q27 37 48.5 52.5t57.5 23.5zM568 366q-15 30 -51 27t-64 -37q-41 -49 -51 -107.5t19 -86.5q15 -16 34.5 -14.5t49.5 21.5q36 22 58.5 93t4.5 104z" />
    <glyph glyph-name="ampersand" unicode="&#x26;" horiz-adv-x="570" 
d="M202 644q33 18 67.5 15.5t60.5 -26t26 -55.5q0 -27 -22 -65t-50 -59l-35 -27l35 -61q38 -68 50 -75.5t35 23.5q77 100 21 125q-45 21 3 26q20 2 57 2h84l-36 -37q-29 -30 -80.5 -99t-51.5 -79t43.5 -30t64.5 -20q30 0 53 10q22 8 30 -0.5t-6 -25.5q-8 -9 -34 -22.5
t-55 -24.5q-16 -5 -56.5 9t-68.5 35q-20 15 -27.5 16t-19.5 -9q-16 -13 -37.5 -21.5t-67.5 -19.5q-62 -15 -102 1t-63 64q-10 19 -10 32.5t8 41.5q11 37 46 77t69 54q28 10 21 27q-25 63 -12.5 115.5t60.5 82.5zM303 599q-16 25 -45 25t-45 -25q-11 -17 -11 -29t12 -49
q18 -54 23 -54q8 0 38 28q60 54 28 104zM209 342q-31 56 -33 56q-3 0 -43 -37q-28 -26 -35 -39.5t-7 -43.5q0 -35 13.5 -53.5t48.5 -31.5q24 -9 59.5 -2.5t59.5 24.5q12 9 11 15t-18 27q-26 31 -56 85z" />
    <glyph glyph-name="parenleft" unicode="(" horiz-adv-x="192" 
d="M101 632q48 51 62 50q10 0 -17 -31q-53 -64 -72 -157.5t1.5 -186t75.5 -153.5q31 -34 31 -37t-22 -3q-20 0 -62.5 45t-64.5 90q-15 29 -19 55t-4 89q1 89 19 136.5t72 102.5z" />
    <glyph glyph-name="parenright" unicode=")" horiz-adv-x="191" 
d="M10 675q0 19 39 -8q25 -16 48 -42q51 -54 67.5 -99.5t16.5 -127.5q-1 -83 -18.5 -129t-69.5 -103q-48 -55 -61 -52q-10 2 21 43q36 48 52.5 102.5t16.5 129.5q0 83 -13 118q-40 105 -74 135q-25 26 -25 33z" />
    <glyph glyph-name="asterisk" unicode="*" horiz-adv-x="252" 
d="M111 673q14 22 23 -2q6 -16 5 -46q-2 -50 6 -50q10 0 36 24q21 20 38 21.5t23 -14.5q1 -5 -12 -14.5t-36 -18.5q-28 -12 -35 -18.5t3 -11t43 -12.5q22 -5 30 -17.5t-2 -28.5q-7 -11 -15.5 -7.5t-51.5 36.5l-31 23l3 -53q1 -31 -1 -41.5t-11 -10.5t-11.5 10t-1.5 37
q2 40 -6.5 44.5t-33.5 -22.5q-19 -19 -35.5 -23t-25.5 9q-6 11 6.5 23t40.5 21q23 8 29 14.5t-2 14.5t-32 19q-17 9 -29 18.5t-12 15.5q0 32 38 5q8 -6 17 -14q33 -29 41 -29t3 44q-7 43 -1 54z" />
    <glyph glyph-name="plus" unicode="+" horiz-adv-x="316" 
d="M128 533q23 23 39 7.5t22 -65.5l7 -57h47q41 0 54.5 -11t4.5 -35q-5 -15 -15.5 -19t-41.5 -4h-49l-3 -56q-2 -42 -6 -49.5t-26 -7.5t-26.5 7.5t-8.5 46.5l-4 54l-54 5q-38 4 -46.5 8.5t-10.5 21.5q-2 16 3 22t25 11q34 6 54 6q16 0 20 8t4 44q0 52 11 63z" />
    <glyph glyph-name="comma" unicode="," horiz-adv-x="105" 
d="M20 172q14 19 27 19.5t29 -17.5q24 -26 17.5 -64.5t-38.5 -68.5q-24 -21 -31.5 -13.5t13.5 30.5q24 26 24.5 40t-22.5 20q-47 12 -19 54z" />
    <glyph glyph-name="hyphen" unicode="-" horiz-adv-x="205" 
d="M10 352v57l91 -3q65 -2 78 -6t15 -21q5 -27 -13 -33.5t-87 -0.5z" />
    <glyph glyph-name="period" unicode="." horiz-adv-x="90" 
d="M18.5 177.5q13.5 16.5 32 14t26.5 -20.5q8 -23 -2.5 -35.5t-35.5 -10.5q-21 3 -27.5 19.5t7 33z" />
    <glyph glyph-name="slash" unicode="/" horiz-adv-x="260" 
d="M195 671q10 11 32 11q12 0 17.5 -3.5t5 -15.5t-6 -31t-18.5 -53q-37 -103 -67 -191q-86 -249 -105 -271q-11 -13 -28.5 -3t-14.5 27q3 13 34 103t70 203.5t50 146.5q20 64 31 77z" />
    <glyph glyph-name="zero" unicode="0" horiz-adv-x="395" 
d="M150 677q24 11 59 10t65 -12q49 -20 79.5 -93t31.5 -174q1 -88 -7 -127.5t-37 -81.5q-80 -122 -200 -67q-84 39 -115 136t-2 230q28 139 126 179zM264 617q-27 29 -57 31.5t-55 -22.5q-51 -50 -61 -225q-7 -125 22 -191.5t92 -66.5q48 0 72.5 54t26.5 167
q2 108 -7.5 167.5t-32.5 85.5z" />
    <glyph glyph-name="one" unicode="1" horiz-adv-x="251" 
d="M88 653q50 25 62 23q20 -4 23 -68q2 -38 0 -209l-4 -260l37 -9q43 -10 34 -17q-12 -9 -88 -9q-148 0 -134 21q5 7 31 16l33 12l6 120q7 113 7 226v107l-46 -7q-39 -6 -39 0q0 2 6 9q13 16 72 45z" />
    <glyph glyph-name="two" unicode="2" horiz-adv-x="380" 
d="M102 654q18 12 36.5 15t54.5 2q39 -3 55.5 -8.5t36.5 -24.5q36 -34 45.5 -89.5t-13.5 -102.5q-13 -27 -75 -109.5t-97 -120.5l-28 -31l55 -1q56 0 92 -7q23 -3 36 0.5t33 20.5q55 47 29 -18q-1 -2 -3 -7q-6 -16 -8.5 -22.5t-9.5 -16.5t-9 -13t-13 -7.5t-17 -5t-25 -2
t-32 -1.5h-44h-16q-106 1 -140.5 5t-34.5 15q0 9 98 114q86 91 113 140.5t28 112.5q1 56 -15.5 78t-69.5 35l-50 12q-51 -59 -103 -116l4 33q4 30 29.5 65t57.5 55z" />
    <glyph glyph-name="three" unicode="3" horiz-adv-x="348" 
d="M160 674q7 1 17 3l15 3t6 1q7 3 45.5 -21.5t48.5 -37.5q22 -32 14.5 -78.5t-41.5 -83.5q-19 -23 -15 -26q3 -3 30 -19q43 -28 55 -79.5t-11 -106.5t-73 -91q-28 -19 -48.5 -24.5t-70.5 -7.5q-47 -2 -65 0.5t-31 14.5q-38 31 -21.5 50t61.5 0q8 -3 17 -8q39 -21 77 -23
q25 -1 38.5 5t32.5 26q20 19 25.5 34t5.5 50q1 33 -3.5 48t-19.5 31q-25 26 -46 36.5t-61 16.5l-45 8l56 25q61 28 80 76.5t-15 91.5q-11 16 -23.5 21t-38.5 5t-40.5 -7t-38.5 -32q-37 -40 -47 -40q-15 0 3 40q12 25 27 42q25 26 46 38t54 19z" />
    <glyph glyph-name="four" unicode="4" horiz-adv-x="410" 
d="M257 651q10 22 35 22q14 0 19 -5t5 -17v-186v-18q0 -113 5.5 -131.5t39.5 -16.5q5 1 7 1q26 2 28 -7q0 -7 4 -24q3 -15 -12 -21.5t-44 -2.5l-28 3v-144h-78v68q0 67 -12 71q-14 4 -106 4q-93 -2 -104 9q-13 12 -0.5 51.5t37.5 61.5q2 2 29 39q162 220 175 243zM242 430
q1 57 1.5 88.5t-0.5 36.5q-7 0 -104 -124t-97 -133q7 -2 48.5 -1.5t91.5 2t52 3.5t8 128z" />
    <glyph glyph-name="five" unicode="5" horiz-adv-x="358" 
d="M317 670q30 17 31 -7q1 -13 -9 -35l-17 -34h-82q-82 0 -98 -16q-16 -14 -16 -23q0 -6 -6 -24q-3 -8 1 -11.5t19 -3.5q23 0 66 -16.5t69 -35.5q11 -8 25 -27t22 -36q42 -90 -6 -186q-28 -58 -73.5 -82t-123.5 -24q-46 0 -62.5 4t-30.5 18q-13 13 -15.5 21t3.5 18
q17 27 34.5 28t55.5 -23q47 -32 65 -32q22 0 50 18.5t40 40.5q14 29 13 61.5t-19 81.5q-14 37 -25.5 49.5t-46.5 29.5q-51 23 -84 23q-18 0 -27.5 1t-17 5.5t-8.5 10t1.5 18.5t8.5 27t17 40q38 84 53 96q14 12 94 14q80 0 99 11z" />
    <glyph glyph-name="six" unicode="6" horiz-adv-x="379" 
d="M238 653q57 24 69.5 27t27.5 -4q17 -6 14.5 -14t-23.5 -13q-31 -8 -78 -40t-70 -61q-85 -111 -47 -98q5 2 12 6q37 20 103.5 2t89.5 -54q16 -23 27 -82q8 -43 5.5 -59.5t-23.5 -57.5q-29 -57 -62.5 -80t-85.5 -19q-68 6 -116 54.5t-64 128.5q-12 55 0 98q51 194 221 266z
M235 416q-23 13 -53 9.5t-58 -24t-33 -45.5q-12 -66 11.5 -124.5t73.5 -84.5q48 -25 78 5.5t36 110.5q3 41 0 60t-18 43q-23 38 -37 50z" />
    <glyph glyph-name="seven" unicode="7" horiz-adv-x="378" 
d="M166 675q192 7 201 -21q4 -18 -22 -99q-121 -362 -145 -408q-14 -29 -32 -35q-2 -1 -8 -2q-26 -8 -29 -4t37 121t76 208q18 46 30 82t17 56.5t1 20.5q-1 1 -92 6l-90 6l-38 -35q-60 -56 -62 -26q-1 19 24 69q15 29 26.5 39.5t32.5 15t73 6.5z" />
    <glyph glyph-name="eight" unicode="8" horiz-adv-x="326" 
d="M140 672q61 9 101 -13.5t62 -79.5q11 -28 11 -39.5t-12 -33.5q-14 -29 -51 -64l-34 -31l35 -38q38 -41 52.5 -75t10.5 -72q-7 -61 -50 -93.5t-108 -25.5q-71 9 -110 47.5t-37 98.5q1 34 8.5 49.5t39.5 47.5l48 49l-33 30q-35 33 -51 71.5t-9 71.5q10 44 40 67.5t87 32.5z
M220 615q-24 24 -53.5 27.5t-52 -13.5t-27.5 -49q-6 -30 12 -69.5t46 -57.5q20 -13 28 -10t37 33q37 39 39.5 72.5t-29.5 66.5zM207 316q-16 17 -31 30t-20 13q-20 0 -39.5 -23t-30.5 -61t-10.5 -50t11.5 -29q22 -35 79 -46.5t75 15.5q22 35 14.5 71t-48.5 80z" />
    <glyph glyph-name="nine" unicode="9" horiz-adv-x="364" 
d="M135 682q60 16 111.5 -11.5t83.5 -92.5q15 -30 19.5 -54t3.5 -77q0 -68 -18.5 -122.5t-58.5 -107.5q-33 -43 -124.5 -78t-122.5 -16q-11 5 -11.5 7.5t8.5 5.5q96 27 136.5 54.5t70.5 84.5q33 62 27 69q-6 5 -47 -11q-53 -20 -104.5 -6t-79.5 58q-20 30 -19 107t21 111
q37 63 104 79zM236 629q-23 22 -60 24t-55 -18q-24 -26 -35 -65t-6 -78q22 -170 152 -104q37 19 44.5 46t-4.5 99q-7 43 -14.5 63t-21.5 33z" />
    <glyph glyph-name="colon" unicode=":" horiz-adv-x="98" 
d="M21 465q12 11 27 11q17 0 28.5 -13.5t11 -29.5t-14.5 -21q-21 -8 -39.5 -0.5t-22 22.5t9.5 31zM20 174q5 10 15.5 14t20 1t18 -10t11.5 -17.5t-1 -22.5q-5 -15 -34 -15.5t-35 15.5q-6 15 5 35z" />
    <glyph glyph-name="semicolon" unicode=";" horiz-adv-x="105" 
d="M14 463q6 15 33 12q17 -3 22 -8.5t5 -24.5q0 -20 -4.5 -24.5t-24.5 -4.5q-23 0 -31 13.5t0 36.5zM26 179q20 15 33.5 10t28.5 -33q11 -22 4 -50t-30 -53q-30 -31 -41 -28q-10 3 13 31q24 28 24.5 40.5t-20.5 22t-25 29t13 31.5z" />
    <glyph glyph-name="less" unicode="&#x3c;" horiz-adv-x="391" 
d="M343 572q21 8 31 2t6 -25q-3 -18 -101 -69q-20 -10 -51.5 -26.5t-50 -26t-25.5 -13.5l-27 -16l115 -58q116 -60 128 -70q7 -6 10 -18.5t1 -23.5t-8 -11q-5 0 -188 87q-58 28 -90.5 44.5t-53 28.5t-26 18t-2.5 10q7 8 136 73t196 94z" />
    <glyph glyph-name="equal" unicode="=" horiz-adv-x="283" 
d="M12 452q4 10 28 12t103 1l125 -3v-49l-125 -3q-79 -2 -103 0.5t-28 12.5q-5 14 0 29zM22 325q3 8 28 11t100 3h123v-23q0 -13 -4.5 -19.5t-18.5 -10.5t-40.5 -4h-71.5q-40 1 -63.5 3.5t-38 7t-16.5 12.5t2 20z" />
    <glyph glyph-name="greater" unicode="&#x3e;" horiz-adv-x="401" 
d="M17 569q8 8 22.5 5t59.5 -23q106 -49 199 -97.5t93 -55.5q0 -9 -86 -50q-81 -38 -181 -87q-95 -47 -100 -41q-6 5 -6 25q0 13 24.5 29.5t98.5 54.5q122 65 122 70q0 6 -123 69q-50 25 -88.5 47.5t-40.5 27.5q-5 13 6 26z" />
    <glyph glyph-name="question" unicode="?" horiz-adv-x="313" 
d="M89 689q30 11 85 7t78 -20q48 -31 50.5 -92.5t-42.5 -130.5q-38 -59 -66 -121q-29 -65 -42 -61q-5 1 -5 16q0 16 35 117q54 156 41 213q-8 31 -54.5 42t-76.5 -10q-11 -10 -12.5 -16t6.5 -18q17 -29 9 -59.5t-33 -30.5q-16 0 -34 24.5t-18 45.5q0 26 24 54t55 40z
M132 204q22 15 43 2t21 -43q0 -36 -24 -46t-54 14q-15 12 -16.5 19t6.5 24q12 22 24 30z" />
    <glyph glyph-name="at" unicode="@" horiz-adv-x="636" 
d="M238 665q89 26 176.5 9t141.5 -71q56 -55 66.5 -101t-15.5 -119q-50 -142 -159 -142q-44 0 -62 20q-13 14 -19 14t-27 -15q-27 -20 -66 -26q-25 -3 -36 2t-32 31q-67 81 -17 164q22 39 55.5 67t68.5 37q20 6 32.5 4t33.5 -14q34 -20 44 -10t31 10t32 -10q12 -12 -1 -38
q-13 -22 -36 -97q-17 -57 -12.5 -78.5t34.5 -21.5q52 0 85.5 60t27.5 140q-5 50 -26.5 78t-81.5 62q-33 18 -55.5 23t-69.5 5q-46 0 -69.5 -5.5t-59.5 -22.5q-81 -41 -118 -98t-37 -141q0 -52 15 -85.5t56 -70.5q52 -48 80 -61t86 -18q47 -3 72 1t69 21q58 22 81.5 26
t27.5 -8q3 -7 -38 -26t-96 -35q-39 -13 -95 -12t-101 14q-50 15 -108 57.5t-79 79.5q-19 34 -25 91t5 99q20 73 79 129.5t142 81.5zM384 475q-19 25 -34 29q-19 3 -44 -23.5t-43.5 -67.5t-18.5 -75q0 -26 14 -46.5t32 -20.5q19 0 44 30t43 77l26 70z" />
    <glyph glyph-name="A" unicode="A" horiz-adv-x="603" 
d="M277 661q6 15 13.5 23t14.5 6q24 -5 155 -356q15 -41 23 -61t17 -43t14 -32.5t10.5 -19.5t11 -14.5t10.5 -8t14 -8.5q33 -17 33 -25q0 -6 -52.5 -7.5t-108.5 1t-64 8.5q-10 5 -10 7.5t10 5.5q2 1 6 2q47 17 53.5 23t-0.5 24q-1 2 -1 3q-12 25 -29 72l-17 44l-62 3
q-65 4 -103 -3q-30 -5 -37 -13t-19 -51q-17 -55 -17 -66q0 -8 35 -26q48 -26 27 -33q-19 -6 -105 -2q-61 2 -78 10q-16 5 -7 12q6 5 27 16q39 19 55.5 44.5t50.5 118.5q91 254 130 346zM299 519q0 12 -14 32q-13 16 -14 10q-1 -2 -1 -9q0 -18 -10 -34q-6 -11 -37.5 -89
t-31.5 -83q7 -1 44 -0.5t80 4.5t43 9q0 9 -19.5 61t-29.5 68q-10 17 -10 31z" />
    <glyph glyph-name="B" unicode="B" horiz-adv-x="497" 
d="M57 684q85 8 180 7t124 -10q37 -10 68.5 -46.5t31.5 -70.5q0 -39 -18 -62t-85 -70q-14 -9 -12 -13t26 -15q55 -24 79.5 -57t33.5 -93q4 -24 -0.5 -39t-23.5 -40q-32 -43 -43 -43q-62 -10 -234 -15q-173 -5 -174 9q0 7 41 24l40 16l-6 161q-7 157 -7 240q0 28 -0.5 38.5
t-1 22t-4.5 15t-8.5 6.5t-14.5 7q-60 22 8 28zM310 628q-19 14 -36.5 19.5t-46.5 5.5h-51v-85q0 -88 7 -110q4 -16 12 -18.5t38 1.5q40 5 75.5 26t44.5 44q10 26 -3 61t-40 56zM285 388q-35 0 -67 6q-20 4 -25.5 0t-10.5 -25q-6 -36 -6 -114q0 -43 1.5 -58.5t6.5 -22
t18 -11.5q42 -16 93.5 -3.5t68.5 43.5q14 28 10 71.5t-25 75.5q-17 25 -28 31.5t-36 6.5z" />
    <glyph glyph-name="C" unicode="C" horiz-adv-x="484" 
d="M179 674q47 16 71 16t88 -16q69 -19 86 -8q16 10 21 7q6 -7 7 -91t-5 -94q-10 -17 -25 4q-9 12 -13 32q-6 29 -36 64.5t-60 49.5q-32 15 -64 8.5t-79 -35.5q-26 -17 -36.5 -31.5t-19.5 -48.5q-14 -47 -15.5 -118.5t11.5 -99.5q23 -53 47.5 -78.5t65.5 -41.5
q39 -15 54 -16t51 11q50 16 92 51q43 35 52 25t-24 -57q-42 -62 -109.5 -84t-139.5 0t-128 83q-36 39 -48.5 79.5t-12.5 117.5q0 50 5 75t23 62q27 56 59 86.5t82 47.5z" />
    <glyph glyph-name="D" unicode="D" horiz-adv-x="577" 
d="M22 684q16 11 161 4t190 -21q43 -13 88.5 -42t61.5 -54q14 -21 32 -74q24 -75 3.5 -163t-75.5 -146q-17 -17 -28 -26.5t-31 -19t-38.5 -13.5t-59.5 -8t-83 -6t-120 -5q-91 -2 -100 1q-23 8 -8 23q9 11 30 15l34 6l1 85q0 98 5 238l5 155l-27 11q-60 22 -44 38q2 1 3 2z
M327 624q-53 19 -95 19h-42l-6 -134q-7 -129 -7 -230q0 -30 0.5 -47t4.5 -32.5t8.5 -21.5t16 -11t24 -5.5t35.5 -0.5q73 0 123 49.5t72 145.5q8 33 7.5 53.5t-10.5 64.5q-16 61 -45.5 95t-85.5 55z" />
    <glyph glyph-name="E" unicode="E" horiz-adv-x="502" 
d="M86 684q62 3 219 3h144l6 -56q5 -55 0 -71q-7 -18 -23 -11.5t-30 32.5q-22 42 -37 52t-55 10q-47 0 -86 -6l-38 -7v-205l49 4q77 8 100 65q12 34 23 15q9 -15 8 -58q-2 -63 -2 -104q-1 -43 -11 -45t-25 37q-14 33 -33 42t-64 5l-38 -3l-3 -100q-2 -58 0.5 -81t11.5 -30
q13 -12 92 -17q71 -4 98 9.5t54 66.5q36 72 44 40q1 -5 1 -12q3 -48 0 -90t-8 -47q-9 -9 -114 -11.5t-227 2.5q-75 3 -101 7t-26 12q0 5 10 12.5t24 12.5q23 7 31.5 21t12.5 55.5t-1 118.5q-4 131 -4 195v77l-39 19q-16 8 -27.5 17t-11.5 13q0 8 76 11z" />
    <glyph glyph-name="F" unicode="F" horiz-adv-x="486" 
d="M10 675q0 4 99.5 7.5t206 5.5t107.5 2q10 -1 18 0.5t14 -1.5t10 -3.5t6.5 -6.5t3.5 -10.5t1 -15t-0.5 -20.5t-1.5 -27q-6 -60 -20 -63.5t-48 46.5l-35 54h-175l-1 -41q0 -34 -2 -109l-2 -66h49q35 1 59.5 11t24.5 25q0 8 19 33q26 33 34 -5q6 -27 6 -100q0 -105 -15 -106
q-8 0 -20 27q-19 43 -35.5 54t-63.5 13l-58 3l-3 -106q-1 -58 1.5 -84t11 -37t28.5 -14q8 -1 14.5 -6.5t6.5 -10.5q0 -16 -39 -14q-3 0 -27.5 0.5t-51.5 1t-56 1.5t-47.5 4t-18.5 6.5t11.5 12.5t26.5 16q20 10 28 17t14 38.5t7 72t1 140.5l1 184l-45 31q-44 30 -44 40z" />
    <glyph glyph-name="G" unicode="G" horiz-adv-x="586" 
d="M227 681q42 10 99.5 6t86.5 -18q22 -11 29.5 -11t20.5 12q18 16 28 5q10 -9 7 -99t-13 -92q-3 0 -12.5 12t-18.5 29q-28 55 -46 75.5t-52 34.5q-38 17 -82.5 15t-75.5 -23q-39 -25 -59.5 -122t-6.5 -188q6 -43 36 -88t61 -57q28 -13 80.5 -12.5t82.5 13.5q21 8 25.5 18
t4.5 49q0 50 -8.5 64.5t-48.5 29.5q-41 18 -41 26q0 7 82.5 10t157.5 0q13 -2 12 -5q0 -4 -19 -20q-28 -24 -37 -27q-7 -2 -12 -35t-8.5 -73t-4.5 -42q-4 -23 -62 -40t-123.5 -18t-118.5 14q-91 30 -135.5 95.5t-45.5 169.5q0 107 70 190q37 46 70.5 69t76.5 33z" />
    <glyph glyph-name="H" unicode="H" horiz-adv-x="626" 
d="M31 685q17 4 112 4q110 -1 110 -19q-1 -10 -34 -27l-40 -20l5 -66q0 -8 5 -97v-33h254l3 33q4 31 0 103q-3 54 -7.5 65t-28.5 21q-38 16 -37 23q1 10 105 10q116 0 120 1q8 0 11 -9q2 -5 -6 -11.5t-19 -10.5q-21 -7 -26 -19q-10 -23 -11 -188v-71v-206l39 -18
q11 -5 18.5 -10.5t10 -9.5t0.5 -6q-8 -8 -118 -10.5t-121 5.5q-10 7 21 22q3 1 7 3l40 18v216h-254q-3 -103 -5 -207l37 -19q36 -20 36 -29q0 -6 -61 -7.5t-123 2t-64 9.5q-1 4 12.5 11t32.5 13l47 15l-2 197q-2 213 -10 244q-5 24 -26 34q-3 2 -13 6q-62 28 -20 38z" />
    <glyph glyph-name="I" unicode="I" horiz-adv-x="279" 
d="M13 682q5 8 112 9.5t126 -6.5q25 -10 3 -27q-11 -8 -30 -14l-39 -12l-1 -149q-2 -203 1 -255.5t17 -61.5q16 -13 33 -13q9 0 18.5 -6.5t13 -13.5t-0.5 -12q-5 -7 -132 -7q-46 0 -68.5 0.5t-37 2.5t-17 4.5t-1.5 8.5q3 17 45 26l42 8v470l-45 19q-20 9 -31 17t-8 12z" />
    <glyph glyph-name="J" unicode="J" horiz-adv-x="424" 
d="M177 682q56 15 171 5q72 -6 65 -16q-1 -2 -6 -4q-13 -6 -44 -22l-34 -17v-191q0 -137 -3.5 -169.5t-20.5 -60.5q-31 -55 -81.5 -80.5t-102 -14.5t-85.5 56q-21 26 -25.5 62.5t8 63t35.5 26.5q16 0 40 -12q22 -10 23.5 -33t-17.5 -63q-12 -25 -13 -34t8 -16q11 -10 39 -11
t52 7q33 10 43 101.5t7 341.5q0 21 -7.5 30.5t-33.5 23.5q-34 17 -34 20t16 7z" />
    <glyph glyph-name="K" unicode="K" horiz-adv-x="581" 
d="M13 681q10 7 118 6.5t114 -7.5q8 -7 -0.5 -17t-22.5 -10q-26 0 -36.5 -23.5t-7.5 -74.5q1 -21 2 -59.5t2 -43.5v-39l98 99q111 113 94 128q-4 3 -13 3q-10 1 -24 7.5t-21.5 15t-3.5 12.5q6 6 105 5t109 -7q21 -13 -19 -27q-6 -2 -14 -4q-25 -7 -50 -28t-74 -75
q-80 -86 -87 -102q-3 -9 31 -51t146 -169q50 -57 70 -57t33.5 -9t7.5 -20q-6 -10 -85 -10h-77l-56 71q-55 70 -109.5 131.5t-59.5 61.5q-3 0 -3.5 -15t-0.5 -38t0.5 -45t1 -42t0.5 -23q0 -38 5 -47t31 -20q23 -10 27 -15t-4 -15q-7 -8 -29.5 -10.5t-83.5 -0.5
q-119 2 -117 20q1 8 30 21q39 16 44 24q3 6 3 138.5t-3 260.5q0 29 -6.5 39.5t-34.5 28.5q-32 20 -32 30z" />
    <glyph glyph-name="L" unicode="L" horiz-adv-x="472" 
d="M22 686q14 7 116.5 0.5t110.5 -13.5q4 -5 -3 -11t-23 -14q-26 -10 -31 -20.5t-8 -54.5q-3 -30 -7 -215q0 -33 -0.5 -50.5t0.5 -39.5t1.5 -32t4.5 -23.5t6.5 -18t9.5 -11.5t12.5 -8t18 -3.5t22.5 -2.5h28h7q46 -1 60 8.5t55 68.5q5 6 7 10q34 46 42 38t10.5 -84t-4.5 -84
q-7 -6 -192.5 -5.5t-218.5 7t-33 19.5q-1 11 23 14q20 3 29 9t16 34t9 66.5t4 124.5q3 199 -2 216q-7 22 -44 36q-61 24 -26 39z" />
    <glyph glyph-name="M" unicode="M" horiz-adv-x="705" 
d="M42 685q31 4 97 2.5t69 -5.5q6 -8 40 -98t55 -153q26 -77 43 -120l14 -32l45 101q40 89 77.5 184.5t37.5 107.5q0 8 47 10t93 -6q34 -5 34.5 -14.5t-32.5 -25.5l-34 -16v-456l31 -9q14 -4 24 -11t11 -14q2 -11 -13 -13q-17 -3 -108 -1q-126 3 -129 14q-2 6 5 11t19 7
q5 1 13 3q44 9 51 31.5t7 149.5q-1 25 -1 39q-1 177 -7 177q-2 1 -8 -14q-48 -118 -114.5 -257t-74.5 -139q-6 0 -22 32.5t-34 80.5q-113 296 -120 306q-10 12 -9 -131q1 -62 4 -124l6 -121l45 -22q35 -20 33 -30q-10 -6 -105 -10t-108 2q-34 13 14 34q2 2 5 3q31 13 38 24
q14 22 16 138q0 26 1 135q-1 31 0.5 54.5t-1 42t-2 31t-4 23t-7 16t-10 11t-14 9t-18.5 8.5q-32 13 -32 23q0 7 32 12z" />
    <glyph glyph-name="N" unicode="N" horiz-adv-x="616" 
d="M386 681q4 9 94.5 10t113.5 -7q13 -4 12 -12.5t-14 -8.5q-14 0 -39 -22l-23 -22l-6 -243q-1 -63 -3 -122.5t-4 -93.5t-4 -36q-6 -11 -24 2q-13 9 -48 53t-182 237l-99 131l-5 -161q-4 -160 6 -179t47 -38q10 -5 17.5 -10.5t10.5 -9.5t1 -7q-10 -9 -116.5 -9.5t-110.5 8.5
q-1 5 11 14.5t29 17.5q44 21 48 42q4 19 7 189q3 56 0.5 96.5t-4.5 65t-10.5 41t-19 25t-29.5 16.5q-58 24 -2 32q20 2 52 2h72l86 -114q207 -277 222 -277q4 -1 5 46.5t0 113.5q-2 108 -5.5 138t-16.5 43q-19 21 -34 21q-18 0 -29.5 9.5t-5.5 18.5z" />
    <glyph glyph-name="O" unicode="O" horiz-adv-x="549" 
d="M221 681q43 11 95.5 4t93.5 -27q61 -31 95 -97.5t34 -157.5q0 -186 -145 -256q-59 -27 -113 -31t-94 16q-77 39 -123.5 103.5t-52.5 138.5q-9 111 49.5 197t160.5 110zM366 629q-39 26 -100.5 17t-101.5 -47q-39 -38 -49.5 -140t16.5 -177q16 -43 48 -80.5t60 -44.5
q53 -13 102.5 14.5t75.5 86.5q27 57 26 140t-29 152q-11 27 -25 50.5t-23 28.5z" />
    <glyph glyph-name="P" unicode="P" horiz-adv-x="460" 
d="M23 685q2 3 50.5 3.5t113.5 -2.5q93 -3 137.5 -9t67.5 -19.5t40 -42.5q18 -30 18.5 -78t-15.5 -73q-16 -23 -64 -55q-28 -18 -51.5 -25.5t-63.5 -10.5q-69 -6 -70 -7q-4 -5 -3.5 -90t4.5 -93q7 -10 42 -25q17 -8 24 -14t3 -11q-11 -10 -105 -14.5t-118 4.5q-18 7 -22 15
t6.5 15.5t34.5 14.5l38 10l3 224q3 224 -9 237q-9 13 -39 19q-41 8 -22 27zM311 621q-33 22 -74 22q-31 0 -37 -5t-9 -31q-4 -28 -4 -116l1 -78l48 2q46 1 72.5 20.5t40.5 59.5q26 83 -38 126z" />
    <glyph glyph-name="Q" unicode="Q" horiz-adv-x="557" 
d="M199 679q33 10 66.5 7.5t91.5 -18.5q50 -15 91 -59q44 -47 59 -86t15 -105q1 -78 -15 -126.5t-55 -86.5l-42 -42l33 -30q28 -27 60 -41q27 -9 37 -21q21 -31 -18 -35q-50 -4 -116 31q-28 15 -47 32q-21 20 -35 24.5t-48 1.5q-32 -2 -52.5 3t-56.5 25q-57 30 -88 64
t-51 88q-13 35 -16.5 59t0.5 61q11 108 55 168t132 86zM337 620q-40 16 -73.5 12.5t-70.5 -27.5q-43 -27 -61 -69.5t-18 -117.5q0 -130 44 -190.5t128 -44.5q41 8 60.5 17.5t41.5 32.5q42 45 49 129.5t-21 160t-79 97.5z" />
    <glyph glyph-name="R" unicode="R" horiz-adv-x="589" 
d="M10 684q12 5 86.5 5t169 -5.5t114.5 -11.5q36 -12 57 -49t18.5 -82t-27.5 -79q-28 -35 -58 -50q-33 -17 -35 -20l4.5 -9t14 -23t21.5 -31q13 -20 34 -50.5t22 -31.5q30 -44 55 -62.5t78 -36.5q15 -4 15 -7t-14 -14q-18 -13 -81 -13h-62l-37 47q-10 14 -99 132
q-22 31 -35.5 48.5t-25.5 27.5t-18.5 9.5t-11.5 -12t-7 -30.5t-4 -53q-6 -50 -2.5 -76.5t12 -35t33.5 -13.5q12 -3 19.5 -8t5.5 -10q-3 -12 -123 -15q-107 -1 -115 6q-3 3 -2 9q1 7 11 14t23 11q33 9 41 25q6 10 7 205.5t-5 233.5q0 12 -27 19q-23 5 -37.5 15.5t-14.5 20.5z
M308 632q-25 11 -72 11h-47q-2 -113 -4 -225h31q29 0 61.5 13.5t49.5 33.5q30 34 23.5 92t-42.5 75z" />
    <glyph glyph-name="S" unicode="S" horiz-adv-x="405" 
d="M129 679q33 12 57 11.5t70 -15.5q36 -13 48.5 -13.5t20.5 9.5q14 13 26 7q9 -6 10 -88t-8 -89q-4 -2 -17.5 14t-28.5 40q-32 53 -62.5 71.5t-78.5 13.5q-39 -4 -55 -22t-10 -51q6 -42 32.5 -68t87.5 -51q77 -30 88 -30q14 0 43 -40t37 -69q11 -40 1.5 -69t-43.5 -63
q-41 -40 -88.5 -53t-109.5 0q-59 12 -74 27q-12 10 -15 10t-3 -10q0 -16 -13 -26q-23 -19 -31 29q-4 28 -3 74q3 79 18 81q8 2 14 -24q7 -25 50 -69q29 -28 43.5 -35.5t41.5 -7.5q39 0 74.5 9t43.5 22q8 14 8 43q0 33 -36 65t-118 71q-38 19 -68.5 38.5t-36.5 28.5
q-24 44 -22.5 88.5t31 84t76.5 56.5z" />
    <glyph glyph-name="T" unicode="T" horiz-adv-x="525" 
d="M17 680q11 12 254 12h244v-72q0 -73 -8 -80q-4 -2 -17.5 12.5t-27.5 36.5l-37 54h-106l2 -232l3 -234l48 -22q39 -19 38 -27q0 -3 -2 -4q-14 -9 -141 -5t-137 13q-8 9 27 28q7 4 17 9l54 26l-4 212q-5 217 -9 224q-2 13 -57 11q-44 -2 -64.5 -16.5t-43.5 -59.5
q-17 -33 -27 -23t-12.5 68t6.5 69z" />
    <glyph glyph-name="U" unicode="U" horiz-adv-x="576" 
d="M12 671q8 12 111.5 9.5t108.5 -15.5q1 -6 -6.5 -12t-20.5 -11l-30 -11v-182q0 -67 1 -101.5t3.5 -63.5t10 -43t16.5 -24t27 -22q39 -26 96.5 -19.5t91.5 42.5q17 18 20.5 45t5.5 153q1 41 1 64.5t-1 49.5t-2 37.5t-5.5 26t-8.5 20t-13 13t-17.5 11.5t-23.5 10
q-63 27 -13 31q26 3 86 0q110 -5 115 -11q6 -7 -24 -24q-11 -7 -28 -16q-14 -7 -17.5 -36.5t-7.5 -166.5q-3 -132 -7 -166.5t-18 -53.5q-21 -29 -64 -51.5t-94 -30.5q-109 -19 -159 30q-28 29 -39.5 55t-16.5 71t-6 148l-2 179l-27 22q-26 23 -38 27q-5 1 -6.5 6t1.5 10z
" />
    <glyph glyph-name="V" unicode="V" horiz-adv-x="608" 
d="M10 674q5 7 117 7.5t130 -6.5q17 -7 -3 -22q-14 -10 -35 -15q-28 -7 -28 -13q0 -14 66 -184t72 -170t21 37q3 9 13.5 33.5t28 66.5t28.5 68l55 133l-24 22q-27 22 -46 22q-16 0 -17.5 8.5t15.5 14.5q19 8 104 6.5t91 -9.5q2 -4 -6 -13t-22 -17q-19 -11 -34.5 -33.5
t-37.5 -72.5q-86 -185 -132 -305q-17 -45 -33.5 -79.5t-22.5 -36.5q-8 -3 -15.5 3t-21 33t-30.5 70.5t-48 126.5q-74 197 -93 234.5t-56 57.5q-17 10 -27.5 19.5t-8.5 13.5z" />
    <glyph glyph-name="W" unicode="W" horiz-adv-x="834" 
d="M613 673q0 5 51 8t103.5 1t55.5 -8q3 -3 -6.5 -12.5t-23.5 -19.5q-30 -19 -42.5 -46.5t-56.5 -172.5q0 -1 -2 -5q-56 -183 -75 -235t-30 -57q-18 -7 -37.5 23.5t-43.5 106.5q-32 96 -38 108q-6 11 -6 24q-2 13 -20 62.5t-24 57.5q-2 3 -23 -47t-50 -128
q-76 -203 -100 -217q-6 -3 -12 3q-17 19 -75 250q-50 200 -83 239q-18 20 -43 31q-11 6 -17.5 13t-3.5 11q6 10 118 10q111 0 111 -13q0 -8 -33 -22l-34 -14l13 -42q84 -272 93 -272q8 0 28 57q3 8 18.5 48.5t21.5 56.5q3 8 12.5 32t18.5 47t16 40q10 28 22 50.5t17 25.5
q16 6 34.5 -32t62.5 -168q55 -162 64 -171q3 -3 11 12q9 19 18 52q5 18 13.5 44.5t18 58.5t13.5 46q11 34 15 51.5t6.5 32.5t-2.5 23t-12 13.5t-22 13.5q-16 8 -28 17t-12 13z" />
    <glyph glyph-name="X" unicode="X" horiz-adv-x="595" 
d="M15 674q6 10 129.5 6.5t127.5 -14.5q1 -5 -6.5 -10t-19.5 -8q-33 -7 -35 -20q-3 -16 45 -93q4 -5 8 -11q35 -57 41 -57t62.5 74t53.5 77q-2 2 -36 19q-48 25 -19 31q20 4 87 3q105 -3 105 -19q1 -10 -35 -26q-52 -22 -174 -202q-9 -14 29 -66q89 -123 121.5 -161.5
t56.5 -48.5q56 -24 1 -30q-32 -3 -109 -2q-81 2 -105 5.5t-24 11.5q0 15 34 20q18 3 26 8t7.5 13t-39.5 72.5t-60 91.5q-2 4 -16.5 -14t-65.5 -91l-50 -71l30 -10q13 -4 22 -12t9 -14q0 -8 -16.5 -10.5t-68.5 -0.5q-121 3 -121 27q0 4 10 8.5t23 6.5q22 4 43 25t75 91
q84 111 84 123q0 14 -21 41q-21 26 -71 103q-29 45 -48 65t-48 34q-20 11 -32 20.5t-10 14.5z" />
    <glyph glyph-name="Y" unicode="Y" horiz-adv-x="576" 
d="M36 675q31 5 115 6q90 2 101 -12q7 -9 2.5 -13.5t-27.5 -12.5q-39 -12 -45 -21.5t11 -34.5q12 -17 65 -103q14 -21 23.5 -34.5t16.5 -22t11.5 -10.5t7.5 1q10 8 66.5 99t56.5 99q0 5 -40 21q-36 15 -40 29q-1 5 5 6q2 0 4 1q1 0 88 5q81 7 95 -5q9 -8 12.5 -15t0.5 -11
t-12 -4q-21 0 -51 -36.5t-79 -122.5q-2 -4 -7 -12q-65 -114 -76 -139t-9 -63v-3q0 -63 9 -84.5t37 -31.5q14 -5 23 -11t7 -11t-64.5 -9.5t-125 -4t-62.5 6.5q0 23 57 36l31 7v69q0 71 -13 109.5t-67 125.5q-20 31 -47.5 75t-29.5 48q-6 11 -19.5 24.5t-26.5 21.5
q-15 10 -22 16t-7.5 10.5t5.5 7t20 3.5z" />
    <glyph glyph-name="Z" unicode="Z" horiz-adv-x="497" 
d="M67 675q22 5 206 5q163 2 185 -8q20 -8 0 -37q-6 -7 -19 -23q-34 -44 -56 -82q-20 -32 -106 -154t-121 -166q-28 -36 -28 -39q8 -3 58 -1t112 8.5t70 10.5q18 11 44 39t43 56q18 28 28 18q9 -10 -0.5 -85.5t-21.5 -83.5q-18 -11 -130 -14.5t-216.5 2t-104.5 16.5
q0 10 65 94q44 58 132 188t100 156q8 16 23 37l15 21h-104h-49t-34.5 -3t-25.5 -6t-17.5 -12.5t-16.5 -19t-18 -29.5q-23 -38 -33 -36t-4 44q6 51 6 73q0 27 18 31z" />
    <glyph glyph-name="bracketleft" unicode="[" 
 />
    <glyph glyph-name="backslash" unicode="\" horiz-adv-x="253" 
d="M21 685q19 7 34.5 -13t33.5 -75q18 -60 60 -174q38 -103 66 -187.5t28 -96.5q0 -11 -14.5 -18.5t-24.5 -1.5q-17 10 -128 332q-53 154 -62 190t7 44z" />
    <glyph glyph-name="bracketright" unicode="]" 
 />
    <glyph glyph-name="a" unicode="a" horiz-adv-x="335" 
d="M53 458q19 18 33.5 23t50.5 5q78 0 107.5 -44.5t21.5 -152.5q-4 -66 5.5 -94t36.5 -24q14 2 16 -1t-5 -16q-13 -21 -30 -30q-19 -10 -44.5 0t-31.5 29q-5 18 -10 18q-6 0 -35 -20q-29 -21 -64 -23t-61 15t-32 46q-16 92 144 148q33 12 39.5 20t6.5 38q0 37 -19 54.5
t-49 10.5q-29 -7 -39.5 -19t-10.5 -39q0 -33 -14 -33q-39 0 -44 28t28 61zM174 195q19 15 23 27t2 52l-3 56l-54 -32q-34 -20 -44.5 -32t-12.5 -33q-4 -45 23.5 -57t65.5 19z" />
    <glyph glyph-name="b" unicode="b" horiz-adv-x="399" 
d="M57 666q19 6 30.5 9t21.5 1t14.5 -8t8 -21.5t5 -34.5t1.5 -51q1 -28 2.5 -52t3.5 -38t4 -14q7 0 46 19q35 18 53.5 19t52.5 -14q47 -20 72 -74t14 -117q-7 -43 -20 -66t-53 -59q-33 -30 -54 -37t-79 -7q-32 0 -70.5 14t-38.5 27q-2 19 -4 187q0 21 -1 59
q-2 164 -5.5 191.5t-21.5 29.5q-5 1 -7 1q-38 8 -7 23q11 5 32 13zM261 426q-20 11 -48 10.5t-50 -11.5q-16 -7 -19.5 -23t-3.5 -88q0 -100 -6 -116q-5 -15 27.5 -29t66.5 -10q34 3 51 21.5t33 65.5q19 62 5.5 109.5t-56.5 70.5z" />
    <glyph glyph-name="c" unicode="c" horiz-adv-x="311" 
d="M116 475q47 19 103 4.5t75 -49.5q8 -17 6.5 -23.5t-16.5 -19.5q-19 -15 -39.5 -9t-20.5 27q0 17 -17 34.5t-34 17.5q-29 0 -53.5 -20t-37 -50.5t-14.5 -67t14 -69.5q26 -56 74 -65t101 32q39 28 43.5 23t-21.5 -47q-33 -52 -80 -70t-91 4q-39 21 -64 58t-31 80t2 84.5
t34.5 76t66.5 49.5z" />
    <glyph glyph-name="d" unicode="d" horiz-adv-x="413" 
d="M261 658q24 7 36.5 10.5t24 2t15.5 -6.5t6.5 -20.5t2 -32.5t-2.5 -50q-17 -272 -7 -339q5 -31 10.5 -38t28.5 -9q30 -3 28 -13q-3 -12 -47 -25q-80 -25 -94 1q-6 10 -14.5 9t-34.5 -14q-39 -18 -56 -17.5t-62 22.5q-45 23 -64.5 58t-20.5 94q-1 32 5 53.5t25 54.5
q35 63 88.5 84.5t115.5 -2.5q12 -4 14 11q1 12 -1 55l-3 73l-34 6q-23 3 -23 7q0 6 64 26zM235 445q-29 13 -58 11t-45 -19q-8 -7 -18.5 -29t-16.5 -44q-22 -79 5 -135t88 -56q20 0 31 3t19.5 11t12 26t5 42.5t1.5 66.5q0 83 -3 99t-21 24z" />
    <glyph glyph-name="e" unicode="e" horiz-adv-x="342" 
d="M108 468q53 27 114 10t85 -65q27 -56 3 -71t-129 -8l-102 7v-34q0 -56 35 -95t85 -39q10 0 30.5 10t39.5 24q63 48 63 30q1 -9 -19 -41q-35 -57 -104.5 -75.5t-116.5 17.5q-29 23 -55.5 74.5t-26.5 86.5q1 56 26.5 100t71.5 69zM222 425q-33 27 -71 19.5t-58 -45.5
l-15 -30h79q49 0 65.5 3t19.5 13q7 16 -20 40z" />
    <glyph glyph-name="f" unicode="f" horiz-adv-x="322" 
d="M131 646q22 24 35.5 30t46.5 6q29 0 45 -4.5t32 -18.5q17 -15 20.5 -23t-3.5 -19q-13 -22 -33.5 -20t-43.5 27q-30 29 -42 29q-32 0 -32 -97v-59l46 -3q27 -1 38 -5.5t12 -13.5q2 -12 -6 -15t-40 -3h-50v-152q0 -152 9 -152q11 0 25.5 -5.5t23.5 -12.5t5 -10
q-9 -9 -82 -14t-101 0q-22 4 -23 15.5t22 15.5q11 2 17 4t11.5 9.5t8 16t4 28.5t2 42.5t0.5 62.5v140l-35 6q-33 6 -33 23t33 21q6 1 14 1q10 0 16 12.5t12 44.5q13 58 46 93z" />
    <glyph glyph-name="g" unicode="g" horiz-adv-x="375" 
d="M80 449q26 24 41 30.5t41 6.5q42 0 84.5 -14.5t74.5 -14.5q30 0 42 -13q6 -6 -8 -8l-39 -8q-2 0 -3 -6.5t-1 -18t1 -24.5q5 -59 -33.5 -98.5t-103.5 -39.5q-67 0 -67 -40q0 -28 116 -28q57 0 95.5 -30t31.5 -68q-22 -104 -169 -121q-68 -8 -116.5 11t-55 52t29.5 72
q20 19 22 26.5t-9 18.5q-12 14 -8.5 37t23.5 50q13 16 12.5 25t-17.5 38q-23 41 -23 84q0 28 6.5 42t32.5 39zM221 435q-14 21 -41.5 21.5t-45.5 -19.5q-17 -19 -18 -57.5t13 -71t35 -35.5q17 -3 46 6q19 8 23 18.5t4 54.5q0 62 -16 83zM266 111q-49 12 -100 12
q-38 0 -49.5 -4.5t-25.5 -23.5q-22 -30 -19 -45.5t33 -34.5l36 -22l77 18q63 14 81 26.5t14 38.5q-1 14 -11 21t-36 14z" />
    <glyph glyph-name="h" unicode="h" horiz-adv-x="396" 
d="M69 649q40 12 50 10t13 -107l3 -105l30 16q120 61 170 -47q15 -33 18 -58t0 -96q-4 -78 -1.5 -94.5t18.5 -28.5q42 -28 -26 -30q-17 -1 -41 1q-79 4 -72 15q1 3 9 5q31 11 36.5 47t-5.5 142q-9 86 -32.5 108t-74.5 -6l-30 -18v-125q0 -85 3 -106t17 -29q37 -20 -9 -24
q-20 -2 -53 0q-77 4 -81 4q-8 1 19 23q21 16 25 32.5t5 83.5q2 86 -3 219q0 1 -1 2q-4 93 -8 109.5t-22 21.5q-28 6 -1 19q14 6 44 16z" />
    <glyph glyph-name="i" unicode="i" horiz-adv-x="201" 
d="M61 628q13 21 24 23.5t32 -8.5q27 -15 16.5 -41.5t-42.5 -26.5q-27 0 -35.5 15.5t5.5 37.5zM55 464q2 1 6 2q61 28 70.5 8.5t9.5 -162.5v-14v-144l27 -16q11 -6 17.5 -13t5.5 -10q-3 -5 -73 -5.5t-105 3.5q-7 1 16 16q3 2 7 4q22 14 27 26t6 55q1 34 1 86q0 11 -1 30
q-1 73 -4 85.5t-21 12.5q-4 -1 -6 -1q-62 0 17 37z" />
    <glyph glyph-name="j" unicode="j" horiz-adv-x="231" 
d="M143 627q9 21 26 25t31 -9t14 -36q0 -25 -20 -33t-40 9q-16 12 -17.5 20t6.5 24zM128 460q30 15 61 14l29 -2l2 -167q2 -151 -4 -206.5t-26 -85.5q-20 -29 -59 -44.5t-76 -7.5q-56 10 -42 56q13 38 64 -6q52 -43 67 19q13 52 7 192q-6 156 -6 174q0 20 -4.5 25.5
t-20.5 5.5q-28 0 -21 12q5 8 29 21z" />
    <glyph glyph-name="k" unicode="k" horiz-adv-x="423" 
d="M84 669q48 10 55 5q8 -9 10 -166l3 -159l62 51q52 44 51 52q0 5 -10 9q-20 9 -20 22q0 8 15 10.5t52 1.5q66 0 85 -9q15 -6 15 -7.5t-15 -6.5q-39 -14 -61 -27.5t-61 -49.5l-57 -51l29 -40q27 -37 88 -101t82 -77q13 -8 -6 -10q-15 -1 -65 -1q-107 -1 -97 17q3 4 12 9
q15 8 6 24t-63 76l-47 51l-1 -37q0 -20 -2 -39t-3 -25.5t3 -16.5t14.5 -19t32.5 -26q13 -10 1.5 -12.5t-81.5 -2.5q-62 0 -81.5 3t-19.5 11q0 6 5.5 10.5t13.5 4.5q34 0 41.5 37.5t8.5 217.5v226h-29q-35 0 -36 14q-1 6 8 11q13 7 62 20z" />
    <glyph glyph-name="l" unicode="l" horiz-adv-x="210" 
d="M51 655q41 15 57.5 15.5t21.5 -13.5q6 -18 6 -254v-239q33 -25 64 -50h-90q-90 0 -95 9q-5 8 28 29l33 20l-3 164q-8 241 -13 261q-4 14 -15 14q-8 1 -9 1q-28 3 -26 15q2 13 41 28z" />
    <glyph glyph-name="m" unicode="m" horiz-adv-x="648" 
d="M64 460q55 25 60 25q9 2 17 -11t4 -23q-9 -27 39 1q5 2 9 5q36 21 77 19.5t65 -24.5l23 -24l46 29q36 23 71 27.5t61.5 -9t37 -57t10.5 -141.5v-120l32 -19h1l1 -1q20 -12 20 -16q-1 -5 -88 -9h-1h-1h-1h-1h-1h-1h-1h-1h-1h-1h-1h-2q-90 -5 -67 17q6 6 20 14
q24 13 30.5 49t0.5 117q-6 78 -20.5 99t-55.5 10q-36 -11 -62 -38q-20 -19 -22.5 -35t1.5 -89q5 -73 13.5 -94.5t35.5 -31.5q26 -9 -12 -13q-28 -3 -76 -1l-88 3q33 17 64 35v118q0 83 -3 103.5t-18 33.5q-22 18 -49 17.5t-51 -19.5q-11 -9 -15 -13t-7 -20.5t-3.5 -36
t-0.5 -66.5q0 -80 3 -100t17 -28q44 -23 -19 -28q-18 -1 -45 -1q-82 0 -82 10q0 5 21 14q14 6 19 20.5t11 58.5q6 65 1 133q-5 47 -10 57.5t-27 17.5l-31 9z" />
    <glyph glyph-name="n" unicode="n" horiz-adv-x="408" 
d="M67 472q74 32 84 -5q3 -15 8 -15t30 15q36 23 80 19t65 -32q13 -19 18 -47t7 -113q3 -84 7.5 -110t15.5 -32q41 -24 -26 -28h-36q-78 0 -78 5q0 7 22 24q15 13 18.5 32t3.5 92q-2 111 -8 132q-9 32 -39.5 32.5t-67.5 -31.5q-11 -10 -14 -34.5t-3 -100.5q0 -83 3 -104
t16 -31q8 -5 10 -7l4.5 -4.5t0 -3.5t-5.5 -2t-11 -2q-23 -6 -89 -8t-72 3q-1 1 2.5 5.5t11 10t16.5 11.5q1 1 4 2q25 15 29.5 35t6.5 123v22v64.5t-2.5 36.5t-6 15t-11.5 0q-12 -5 -19 6q-3 4 4.5 11t21.5 14z" />
    <glyph glyph-name="o" unicode="o" horiz-adv-x="382" 
d="M122 482q27 12 69 13.5t71 -9.5q27 -10 59.5 -47.5t41.5 -69.5q24 -88 -11.5 -157t-115.5 -88q-50 -12 -86.5 -4t-71.5 40q-39 34 -53.5 64t-14.5 73q1 60 32 112t80 73zM251 425q-44 42 -99 18q-36 -15 -46.5 -37t-10.5 -81q0 -44 5 -68t19 -52q16 -31 26 -39.5
t33 -10.5q31 -3 63 13t43 40q19 42 8 116.5t-41 100.5z" />
    <glyph glyph-name="p" unicode="p" horiz-adv-x="376" 
d="M60 469q33 16 50 15.5t23 -17.5q4 -14 8.5 -14.5t20.5 10.5q26 16 73 16q33 2 46.5 -3.5t37.5 -28.5q20 -21 29.5 -39t13.5 -49q10 -58 -2.5 -100.5t-50.5 -83.5q-30 -33 -43.5 -40t-45.5 -7q-45 0 -71 8q-16 7 -19 -1q-2 -8 2 -66q2 -55 6.5 -67.5t22.5 -18.5
q52 -17 4 -23q-23 -3 -67 -2q-88 3 -88 9q0 7 25 17q1 1 3 2q17 7 20 32t6 168q1 26 1 40q1 65 1 104.5t-3 61t-8.5 28.5t-16.5 7q-23 0 -13 16q8 12 35 26zM238 408q-46 35 -89 4q-15 -11 -18 -28.5t-3 -86.5v-101l28 -17q59 -33 104 6q39 33 31.5 110t-53.5 113z" />
    <glyph glyph-name="q" unicode="q" horiz-adv-x="414" 
d="M116 477q31 17 74.5 18t71.5 -13q18 -9 26.5 -9t20.5 8q12 9 18.5 9.5t12.5 -7.5q9 -11 9 -240l-1 -228q29 -30 56 -58h-101q-91 0 -91 10q-1 6 31 19l30 12v83q0 83 -7 80q-71 -37 -116 -34.5t-91 44.5q-26 25 -33.5 40.5t-12.5 60.5q-4 38 -2 58t13 40q41 80 92 107z
M252 449q-38 32 -84 13t-61 -72q-9 -30 -1.5 -83t25.5 -82q22 -40 62 -43.5t74 30.5q8 8 8 114q-1 73 -4.5 92.5t-18.5 30.5z" />
    <glyph glyph-name="r" unicode="r" horiz-adv-x="300" 
d="M67 471q45 22 58.5 20.5t16.5 -28.5q2 -19 5 -20t15 13q20 23 53 31t53 -6q39 -26 7 -57q-28 -30 -53 -1q-12 14 -24 13t-32 -20q-16 -15 -19 -35.5t-3 -105.5v-39t0.5 -29.5t2 -23t2.5 -16t4.5 -11.5t6.5 -6.5t9 -4.5t11.5 -1.5t15.5 -0.5q11 0 13.5 -2.5t-3.5 -8.5
q-10 -9 -100 -12t-95 5q-3 3 3 8.5t16 9.5q21 8 30 22.5t12 45.5t1 96l-3 116l-26 -3q-29 -4 -28 9q2 18 51 42z" />
    <glyph glyph-name="s" unicode="s" horiz-adv-x="266" 
d="M63 481q32 15 77 9q49 -6 70 -6q19 0 23 -8t4 -45q0 -55 -15 -52q-10 2 -22 33q-7 19 -18.5 29.5t-34.5 20.5q-29 11 -37 10.5t-23 -14.5q-23 -22 -10.5 -49.5t57.5 -54.5q90 -56 113 -100.5t-16 -90.5q-27 -32 -56 -40.5t-91 -2.5l-72 5v64q0 56 10 59t28 -46
q11 -28 20 -37t33 -14q38 -8 67 6t24 38q-4 20 -4 29q-2 8 -67 50q-56 36 -77.5 56.5t-31.5 47.5q-10 28 4.5 59t44.5 44z" />
    <glyph glyph-name="t" unicode="t" horiz-adv-x="221" 
d="M60 528q50 53 58 55q7 2 14 -43q4 -31 12.5 -39.5t31.5 -6.5q6 2 24 -18q14 -15 7 -17q-4 -2 -35 -2h-46v-128q0 -86 3.5 -109.5t16.5 -37.5q12 -12 19.5 -13.5t19.5 6.5q24 15 26 2q1 -12 -19 -30q-56 -49 -99 -21q-22 14 -28.5 53t-6.5 143q0 46 -1 70.5t-4.5 40.5
t-9 20t-16.5 4q-23 0 -14 17q8 15 47 54z" />
    <glyph glyph-name="u" unicode="u" horiz-adv-x="405" 
d="M16 487q11 8 41 8.5t54 -5.5q15 -4 18 -21t3 -99q0 -131 19.5 -174.5t69.5 -22.5q32 13 45 28t17 42.5t3 90.5l-2 107l-31 22q-31 20 -26 27q9 8 59.5 5.5t59.5 -11.5q12 -11 12 -152q0 -96 3 -119.5t16 -32.5q22 -13 18 -20t-39 -20q-41 -14 -59 -21q-10 -4 -14 -1
t-4 14q0 16 -8 20t-16 -8q-10 -17 -48 -23t-71 3q-21 6 -32.5 13t-20.5 18t-12.5 34t-5 51.5t-1.5 78.5v127l-31 17q-29 14 -21 22z" />
    <glyph glyph-name="v" unicode="v" horiz-adv-x="417" 
d="M41 469l-31 26l74 1q92 0 92 -16q0 -6 -13 -15q-16 -11 -12 -26.5t42 -98.5q50 -107 58 -97q7 12 44 110l38 96q-25 19 -48 37l24 1q27 2 60 -0.5t37 -6.5q2 -1 -1.5 -6t-10.5 -10q-6 -5 -32 -56t-54 -118q-68 -159 -78 -171q-6 -3 -9.5 -4t-11.5 13.5t-17 36.5t-26 66
q-75 195 -125 238z" />
    <glyph glyph-name="w" unicode="w" horiz-adv-x="562" 
d="M72 488q92 4 69 -20q-3 -3 -7 -6q-14 -11 -11 -25.5t32 -79.5q16 -37 30.5 -65t18.5 -29q9 -2 38 58q22 44 24 57t-9 42q-7 16 -18 30.5t-20 19.5q-44 19 17 25q18 1 44 1q78 0 78 -14q0 -8 -18 -20l-24 -16l27 -61q19 -40 45 -99q12 -32 21 -31l2 2q7 6 43 100
q26 66 28 80t-12 23q-28 17 -8 24q9 4 32 7q44 7 54 0t-6 -32q-11 -16 -64.5 -143.5t-69.5 -174.5q-2 -7 -6.5 -12t-8.5 -5q-6 0 -34 56t-46 104q-12 36 -20 36q-5 0 -41 -72t-36 -83q0 -7 -20 -32l-18 -24l-19 44q-18 45 -46 127q-25 76 -49.5 127t-38.5 57q-34 12 5 20
q16 3 42 4z" />
    <glyph glyph-name="x" unicode="x" horiz-adv-x="401" 
d="M15 487q4 8 77.5 4.5t81.5 -11.5q5 -3 -10 -16q-11 -8 -9.5 -16t17.5 -34l26 -39l22 29q21 26 22 36.5t-15 28.5q-11 13 -4 15t48 2q70 0 66 -14q-2 -6 -18 -13t-55.5 -58.5t-39.5 -65.5q0 -6 55 -88q55 -84 84 -94q69 -29 -29 -31q-25 0 -61 2q-48 1 -48 9q0 4 7 13
q7 8 3 23t-21 47q-13 23 -24 37.5t-14 12.5q-7 -3 -45 -59q-27 -39 -30 -48.5t10.5 -19t11.5 -12.5t-24 -8q-47 -10 -79 6q-24 12 4 22q1 1 2 1q7 2 29 27t45 56l56 79l-48 71q-20 29 -41.5 53.5t-32.5 30.5q-11 5 -16.5 11.5t-2.5 10.5z" />
    <glyph glyph-name="y" unicode="y" horiz-adv-x="367" 
d="M27 464q-32 22 -7 29q14 3 42 -1q49 -6 73 -6q22 0 23.5 -2.5t-11.5 -16.5q-14 -16 -11 -29t33 -74q41 -84 50 -84q5 0 37.5 83.5t32.5 97.5q0 8 -17 21q-13 10 -2 12q8 1 37 2q50 0 50 -11q0 -5 -8 -14q-10 -10 -45 -102q-35 -91 -63 -152q-28 -58 -35 -84
q-11 -36 -35 -78t-41 -53q-23 -14 -48.5 -14.5t-46 13.5t-20.5 34q0 33 77 27q23 -2 32 4.5t25 32.5q22 41 22 62q0 24 -44 122q-49 111 -65 140t-35 41z" />
    <glyph glyph-name="z" unicode="z" horiz-adv-x="361" 
d="M35 494q8 2 56.5 1.5t115.5 -2.5t91 -5q41 -4 41 -17q0 -16 -46 -78q-57 -76 -114 -159t-54 -86q4 -4 82 -6l78 -2l27 38q29 38 35 36q7 -3 3 -45t-13 -52q-10 -12 -164.5 -13.5t-162.5 9.5q-5 10 25 43q32 38 114 160l83 126l-47 7q-68 9 -86.5 5.5t-32.5 -27.5
q-27 -48 -35 -16q-5 24 4 83z" />
    <glyph glyph-name="braceleft" unicode="{" 
 />
    <glyph glyph-name="bar" unicode="|" 
 />
    <glyph glyph-name="braceright" unicode="}" 
 />
    <glyph glyph-name="asciitilde" unicode="~" 
 />
    <glyph glyph-name="cent" unicode="&#xa2;" 
 />
    <glyph glyph-name="sterling" unicode="&#xa3;" 
 />
    <glyph glyph-name="section" unicode="&#xa7;" 
 />
    <glyph glyph-name="guillemotleft" unicode="&#xab;" 
 />
    <glyph glyph-name="guillemotright" unicode="&#xbb;" 
 />
    <glyph glyph-name="questiondown" unicode="&#xbf;" 
 />
    <glyph glyph-name="Agrave" unicode="&#xc0;" 
 />
    <glyph glyph-name="Aacute" unicode="&#xc1;" 
 />
    <glyph glyph-name="Acircumflex" unicode="&#xc2;" 
 />
    <glyph glyph-name="Adieresis" unicode="&#xc4;" 
 />
    <glyph glyph-name="Ccedilla" unicode="&#xc7;" 
 />
    <glyph glyph-name="Egrave" unicode="&#xc8;" 
 />
    <glyph glyph-name="Eacute" unicode="&#xc9;" 
 />
    <glyph glyph-name="Ecircumflex" unicode="&#xca;" 
 />
    <glyph glyph-name="Edieresis" unicode="&#xcb;" 
 />
    <glyph glyph-name="Icircumflex" unicode="&#xce;" 
 />
    <glyph glyph-name="Idieresis" unicode="&#xcf;" 
 />
    <glyph glyph-name="Ntilde" unicode="&#xd1;" 
 />
    <glyph glyph-name="Oacute" unicode="&#xd3;" 
 />
    <glyph glyph-name="Ocircumflex" unicode="&#xd4;" 
 />
    <glyph glyph-name="Odieresis" unicode="&#xd6;" 
 />
    <glyph glyph-name="Ugrave" unicode="&#xd9;" 
 />
    <glyph glyph-name="Uacute" unicode="&#xda;" 
 />
    <glyph glyph-name="Ucircumflex" unicode="&#xdb;" 
 />
    <glyph glyph-name="Udieresis" unicode="&#xdc;" 
 />
    <glyph glyph-name="germandbls" unicode="&#xdf;" 
 />
    <glyph glyph-name="agrave" unicode="&#xe0;" 
 />
    <glyph glyph-name="aacute" unicode="&#xe1;" 
 />
    <glyph glyph-name="acircumflex" unicode="&#xe2;" 
 />
    <glyph glyph-name="adieresis" unicode="&#xe4;" 
 />
    <glyph glyph-name="ccedilla" unicode="&#xe7;" 
 />
    <glyph glyph-name="egrave" unicode="&#xe8;" 
 />
    <glyph glyph-name="eacute" unicode="&#xe9;" 
 />
    <glyph glyph-name="ecircumflex" unicode="&#xea;" 
 />
    <glyph glyph-name="edieresis" unicode="&#xeb;" 
 />
    <glyph glyph-name="icircumflex" unicode="&#xee;" 
 />
    <glyph glyph-name="idieresis" unicode="&#xef;" 
 />
    <glyph glyph-name="oacute" unicode="&#xf3;" 
 />
    <glyph glyph-name="ocircumflex" unicode="&#xf4;" 
 />
    <glyph glyph-name="odieresis" unicode="&#xf6;" 
 />
    <glyph glyph-name="ugrave" unicode="&#xf9;" 
 />
    <glyph glyph-name="uacute" unicode="&#xfa;" 
 />
    <glyph glyph-name="ucircumflex" unicode="&#xfb;" 
 />
    <glyph glyph-name="udieresis" unicode="&#xfc;" 
 />
    <glyph glyph-name="eogonek" unicode="&#x119;" 
 />
    <glyph glyph-name="quoteright" unicode="&#x2019;" horiz-adv-x="106" 
d="M24 679q20 15 33.5 10t28.5 -33q13 -26 8.5 -47t-28.5 -49q-32 -36 -47 -35q-13 1 13 31q23 28 24 40.5t-20.5 22t-25 29t13.5 31.5z" />
    <glyph glyph-name="quotedblleft" unicode="&#x201c;" horiz-adv-x="283" 
d="M43 659q39 38 47 32q5 -4 -15 -29q-24 -28 -25 -47t21 -23q19 -2 24.5 -19t-7.5 -33q-22 -26 -50 -5.5t-28 62.5q0 28 33 62zM220 659q34 34 47 33q10 0 -14 -26q-26 -30 -32 -49q-4 -15 -1 -19t19 -4q22 0 30.5 -19t-4.5 -35q-22 -26 -50.5 -5.5t-28.5 62.5q0 28 34 62z
" />
    <glyph glyph-name="quotedblright" unicode="&#x201d;" horiz-adv-x="284" 
d="M25 676q15 16 25 15t28 -18q22 -23 19 -52.5t-30 -60.5q-31 -35 -46 -35q-14 0 5 22l6 6q25 26 25 42t-23 27q-21 9 -23.5 23.5t14.5 30.5zM203 681q17 11 24 11q12 0 29.5 -25.5t17.5 -44.5q0 -23 -29 -60t-47 -37q-15 0 4 22l6 6q25 26 25.5 42t-23.5 27
q-21 9 -23.5 28.5t16.5 30.5z" />
    <glyph glyph-name="bullet" unicode="&#x2022;" 
 />
    <glyph glyph-name="Euro" unicode="&#x20ac;" 
 />
  </font>
</defs>
</svg>
