<?xml version="1.0" standalone="no"?>
<!DOCTYPE svg PUBLIC "-//W3C//DTD SVG 1.1//EN" "http://www.w3.org/Graphics/SVG/1.1/DTD/svg11.dtd" >
<svg xmlns="http://www.w3.org/2000/svg" xmlns:xlink="http://www.w3.org/1999/xlink" version="1.1">
<metadata>
Created by FontForge 20170731 at Mon Feb  1 19:05:00 2016
 By Aleksey,,,
Copyright (c) 2016 by Teela Bigum. All rights reserved.
</metadata>
<defs>
<font id="Tuesday-Script-Regular" horiz-adv-x="0" >
  <font-face 
    font-family="Tuesday-Script"
    font-weight="400"
    font-stretch="normal"
    units-per-em="1000"
    panose-1="0 0 5 0 0 0 0 0 0 0"
    ascent="800"
    descent="-200"
    x-height="305"
    cap-height="690"
    bbox="-376.533 -402 2057 900"
    underline-thickness="50"
    underline-position="-200"
    unicode-range="U+0020-2212"
  />
<missing-glyph horiz-adv-x="640" 
d="M525 900v-1280h-406v1280h406zM426 814h-211v-42h83v-47h-84v-43h212v43h-84v47h84v42zM342 649h-128v-133h212v44h-84v89zM298 606v-46h-42v46h42zM426 481h-212v-42h84v-47h-84v-42h128v89h84v42zM426 405h-42v-85h-170v-43h212v128zM426 248h-128v-71h44v29h42v-60
h-128v102h-42v-144h212v144zM426 27h-212v-145h212v145zM384 -15v-60h-128v60h128zM426 -147h-212v-42h89l-89 -60v-43h212v43h-130l89 60h41v42z" />
    <glyph glyph-name="t_t.liga" unicode="tt" horiz-adv-x="666" 
d="M682 565q13 12 22 15.5t12 1t4 -9.5t0.5 -12t-1.5 -9q-8 -31 -63 -46.5t-106 -15.5h-51q-11 -33 -22 -135.5t-13 -162.5v-86q0 -42 3 -84q2 -28 7 -49q3 -13 6 -15t13 3q35 27 68 79q8 12 12 19l108 180q4 4 9.5 1.5t9.5 -9t2 -10.5q-10 -17 -11 -20l-63 -108
q-7 -15 -18 -32l-38 -68q-64 -101 -101 -104q-19 -1 -34.5 7t-24.5 17t-17.5 29.5t-11 29.5t-8.5 32q-13 46 -13 126q-3 -5 -22 -37q-7 -15 -18 -32l-38 -68q-64 -103 -101 -104q-19 -1 -34.5 7t-24.5 17t-17.5 29.5t-11 29.5t-8.5 32q-7 24 -10 55.5t-3 53t0.5 61t0.5 52.5
q0 38 17 139.5t23 123.5q-45 6 -74 5t-45 -21q-2 -2 -4 -5t-3 -5t-3.5 -3t-5.5 1q-8 3 -13 21q-10 32 28.5 44t82.5 7l44 -4q9 29 19 85t17 70q6 12 12.5 16.5t15 2t15 -6.5t17.5 -11.5t17 -11.5q15 -9 16.5 -18.5t-6.5 -26.5q-10 -26 -22 -100q52 -8 187 1q8 27 16.5 67
t15.5 55q6 12 12 17.5t13 4t12.5 -4t15.5 -10t16 -10.5q27 -16 18 -53q-4 -15 -9 -27t-9 -40q27 -4 86.5 6t84.5 32zM285 58q61 102 78 129v38q0 36 15.5 130t23.5 129q-42 -3 -84.5 -2t-74.5 4l-32 3q-11 -33 -22 -135.5t-13 -162.5v-86q0 -42 3 -84q2 -28 7 -49
q3 -13 6 -15t13 3q35 27 68 79q8 12 12 19z" />
    <glyph glyph-name=".notdef" horiz-adv-x="640" 
d="M525 900v-1280h-406v1280h406zM426 814h-211v-42h83v-47h-84v-43h212v43h-84v47h84v42zM342 649h-128v-133h212v44h-84v89zM298 606v-46h-42v46h42zM426 481h-212v-42h84v-47h-84v-42h128v89h84v42zM426 405h-42v-85h-170v-43h212v128zM426 248h-128v-71h44v29h42v-60
h-128v102h-42v-144h212v144zM426 27h-212v-145h212v145zM384 -15v-60h-128v60h128zM426 -147h-212v-42h89l-89 -60v-43h212v43h-130l89 60h41v42z" />
    <glyph glyph-name=".null" 
 />
    <glyph glyph-name="nonmarkingreturn" horiz-adv-x="333" 
 />
    <glyph glyph-name="space" unicode=" " horiz-adv-x="345" 
 />
    <glyph glyph-name="exclam" unicode="!" horiz-adv-x="168" 
d="M129 132q1 3 18.5 234.5t19.5 240.5q4 19 -4 40q-7 17 -33 27.5t-38 1.5q-7 -5 -9 -20q-5 -62 -9 -217t-3 -199q2 -68 12 -90q5 -10 12 -19q19 -22 31 -6zM83 24q-9 -7 -11 -11q-4 -6 1 -23q1 -2 2.5 -9.5t3 -11.5t5 -8.5t9.5 -6.5t17.5 1t15.5 8q3 4 4 11.5t1 17v12.5
q3 19 -16 22q-17 4 -32 -2z" />
    <glyph glyph-name="quotedbl" unicode="&#x22;" horiz-adv-x="217" 
d="M60 649q-16 -44 -7 -104q2 -15 12 -25q7 -5 15 -3t10 10q2 14 2 22q4 21 2.5 49.5t-15.5 45.5q-9 8 -19 5zM161 518q5 21 4 36q-3 27 2 59q1 12 -6 21q-15 17 -25 15q-16 -44 -7 -98q1 -16 14 -30q7 -6 18 -3z" />
    <glyph glyph-name="numbersign" unicode="#" horiz-adv-x="371" 
d="M110 269q-5 -2 -21.5 -7.5l-25.5 -8.5q-20 -4 -20 -12q0 -3 3 -8q5 -10 26 -4q1 0 10 2.5t16.5 4.5t7.5 0q7 -62 14 -87q0 -1 5 -18.5t10 -24.5q4 -7 25 -4q15 3 17 7t2 21.5t-1 40t-1 27.5q0 22 1 33v18q1 12 50 12q1 0 3 -9t3.5 -19.5t1.5 -11.5q3 -15 19 -53
q8 -21 13 -26q8 -8 28 -1q17 5 17 22q-1 14 -4.5 40.5t-4.5 37.5q-1 13 -1 41h20q15 0 17 3t3 12t-1 12q-2 2 -5.5 2t-8 -1t-6.5 -1t-8.5 -1.5t-9.5 -0.5q-2 45 3 90q0 4 25 10q16 5 17 11q4 11 -7 9q-8 0 -26 -2q-10 -2 -14 -1v1q-2 3 2 70q1 8 1 24q3 17 1 22q-2 6 -15 13
q-22 10 -30 7q-10 -3 -17 -25q-5 -13 -9.5 -53t-4.5 -54v-11.5t-1 -11.5q-5 0 -25.5 -3.5t-20.5 -5.5q0 1 3 40q2 24 5 35q7 27 5 37q-1 6 -4.5 8.5t-8 3t-9.5 0.5h-9q-34 2 -40.5 -5t-8.5 -45v-88q0 -1 -10.5 -3t-22.5 -4t-13 -2q-5 0 -16.5 -1.5t-17.5 -2.5
q-26 -6 -10 -18q6 -5 21 -5h30q1 0 9.5 2t16 3.5t7.5 2.5v-86zM227 294q-35 -7 -43 -9v75l43 13v-79z" />
    <glyph glyph-name="dollar" unicode="$" horiz-adv-x="401" 
d="M235 357l15 -5t33 -13.5t42.5 -22t34 -29t16.5 -35.5q1 -9 0 -18t-9 -30t-24 -38.5t-50 -39.5t-82 -38v-28l3 -103v-20q-6 -10 -22 -5q-22 8 -34 34q-6 14 -13 57q-2 8 -0.5 31.5t1.5 31.5q-41 -8 -75 3t-42 34q-9 28 2 52t34 38t40 21t27 9q6 2 7.5 -1t-0.5 -9
q-4 -17 -8 -21q-1 -1 -21 -9t-34 -23t-8 -36q6 -12 23.5 -11.5t36.5 7.5l18 7q1 5 8 76t8 86l1 28q-92 43 -108 95q-18 64 25.5 121t139.5 41q18 50 25 65q8 14 13 14q6 -1 18 -7.5t15 -7.5q10 -5 11 -12q1 -4 -9.5 -32.5t-10.5 -31.5q32 -18 46 -42.5t11 -46t-15 -38.5
t-28 -22q-9 -3 -12 -3q-7 1 -9 13.5t1 16.5q0 3 2 3.5l4 1t4 2.5q12 9 8.5 29t-28.5 30q-30 -154 -31 -169zM171 377l8 41q8 40 15.5 81t6.5 41q-32 3 -51.5 -20t-25.5 -44q-9 -42 3 -64t44 -35zM309 260q2 9 -1.5 18t-21.5 21t-51 21q-15 -124 -13 -149q78 33 87 89z" />
    <glyph glyph-name="percent" unicode="%" horiz-adv-x="446" 
d="M133 -64q3 2 5 14q2 84 24 129q53 103 134 245q14 27 42.5 73.5t38.5 63.5q7 12 39 79q14 32 -6 44q-37 22 -59 20q-82 -11 -150 -6q-23 2 -31 -13q-3 -7 2 -30q1 -7 1 -39q-1 -24 -20.5 -44.5t-42.5 -12.5q-11 5 -15 14q-13 23 4 60q5 11 12 23t16 26.5t14 22.5
q6 10 -4.5 20t-22.5 13q-16 4 -36 -9q-27 -21 -46 -66q-5 -12 -7 -30t6.5 -44t29.5 -44q38 -32 72 -20q38 13 63 54q21 37 14 71q0 2 -1.5 5.5t-2 7t-0.5 5.5q38 2 57 4q47 2 87 5q-19 -41 -185 -344q-3 -6 -16 -29.5t-17.5 -32t-14.5 -29.5t-15 -34t-11 -31.5t-10 -35.5
q-11 -41 4 -71q6 -12 23 -26t25 -8zM319 125q-27 -12 -51 -49q-6 -10 -10.5 -30t2 -46.5t27.5 -40.5q17 -12 37 -12t36 14q39 39 53 102q9 43 -43 60q-31 10 -46 5q-4 -2 -5 -3zM320 -30q-13 3 -17 18q-7 26 16 62q6 10 17.5 20t24.5 13t20 -13q5 -14 -6 -39q-8 -24 -23 -42
q-17 -24 -32 -19z" />
    <glyph glyph-name="ampersand" unicode="&#x26;" horiz-adv-x="605" 
d="M124 667q-11 -4 -24 -18.5t-22 -35t3.5 -48t50.5 -50.5q-1 0 -1 -14t3 -35t10.5 -43.5t26 -42.5t45.5 -28q-47 -6 -84.5 -33.5t-57.5 -63t-30 -67.5t-9 -52q4 -56 31.5 -98.5t64.5 -63t68 -30t52 -9.5q55 0 101.5 20.5t75 53t43 71t10 78t-26.5 70.5q71 0 104 40.5
t19.5 85.5t-57.5 57q-50 13 -86 -26q-31 -33 -17 -64q10 -20 36 -28q-8 28 2 43.5t26 13.5t27 -6q13 -9 18.5 -25.5t-5 -35.5t-41.5 -30q-5 -2 -10.5 -2.5t-9.5 -1t-10.5 1.5t-9.5 2.5t-10.5 3.5t-9 4t-10.5 5t-10 5q-41 20 -87 9t-71 -51q-18 -26 -16.5 -62t23.5 -60
q21 -23 53 -25.5t50 24.5q-29 -1 -38 27.5t6 49.5q18 31 47 31q35 0 50 -48q18 -61 -14 -121q-42 -80 -146 -80q-38 0 -71.5 33t-48 80t4.5 106.5t75 105.5q19 16 62 25q4 1 18 -0.5t22.5 1.5t9.5 14q1 4 -0.5 14.5t-1.5 14.5q0 21 -8 24q-2 1 -32 1q-88 0 -73 96
q82 -33 140 -0.5t53 91.5q-2 21 -17 41t-34 31q-32 17 -61 16t-53 -14t-42 -28.5t-28 -28.5l-10 -12q-31 7 -35.5 38t32.5 40q1 0 4 1q14 3 6 10q-14 11 -45 2zM221 537q1 3 2 9t7.5 21.5t15 27.5t24 22.5t34.5 12.5q48 5 62 -34q12 -36 -12 -65q-26 -30 -71 -19
q-59 17 -62 25z" />
    <glyph glyph-name="quotesingle" unicode="'" horiz-adv-x="181" 
d="M70 566q-3 -22 9 -49q7 -10 10 -11q5 2 13 17q3 6 3 16q1 27 1 81q0 7 -5 12q-11 19 -23 11z" />
    <glyph glyph-name="parenleft" unicode="(" horiz-adv-x="275" 
d="M250 646q0 -10 -13 -30.5t-13 -21.5l-6 -12q-18 -35 -29.5 -60t-28.5 -84t-20.5 -113.5t6.5 -135t39 -162.5q6 -17 21 -38.5t24.5 -35t6.5 -17.5q-10 -14 -33 -2t-37 26q-56 59 -81.5 146t-20.5 178t29 180t65 161q15 25 34 32q42 17 54 0z" />
    <glyph glyph-name="parenright" unicode=")" horiz-adv-x="260" 
d="M28 657q-3 -5 -3 -11q0 -8 4 -17t12 -20t10 -15l6 -12q18 -35 29.5 -60t28.5 -84t20.5 -113.5t-6.5 -135t-40 -162.5q-6 -17 -21 -38.5t-24 -35t-6 -17.5q10 -14 33.5 -1.5t35.5 25.5q74 78 94 202t-5 244t-80 219q-15 25 -34 32q-43 17 -54 0z" />
    <glyph glyph-name="asterisk" unicode="*" horiz-adv-x="381" 
d="M141 650q-1 -7 -1 -48.5t1 -43.5q-2 1 -13 7t-22.5 11t-17.5 5q-3 0 -21 -4t-17 -5q2 -4 3 -5q3 -2 38.5 -28.5t44.5 -32.5q3 -2 3 -4q0 -4 -1 -4q-63 -52 -85 -75l3 -3q2 -4 4 -5q3 -1 11 -4t12 -4t10 0.5t10 6.5q24 31 44 39q-1 -1 2 -27.5t5 -31.5q7 -26 9 -30
q11 -21 27 -18q2 5 2 28q0 73 4 104q0 -3 58.5 -10.5t68.5 -5.5q8 2 8 10q0 7 -6 10l-13 4q-12 5 -33.5 12t-28.5 9q-22 10 -27 14q2 3 12.5 13.5t22.5 23.5t17 18q9 9 4 16q-2 4 -8 2q-7 -2 -40 -23t-36 -22q0 3 -0.5 9t-0.5 8q-4 44 -4 70q-1 10 -1.5 14t-4.5 9t-12 6
q-27 5 -31 -12v-3z" />
    <glyph glyph-name="plus" unicode="+" horiz-adv-x="465" 
d="M212 465q-6 -5 -8 -22q-2 -9 -4 -31l-13 -91q-13 -3 -50 -8.5t-43 -6.5t-9.5 -2t-8.5 -4.5t0 -9.5q4 -6 20 -9q20 -5 91 4q0 -23 2 -101q0 -2 1.5 -9t5 -18t8.5 -15q17 -16 34 -17q9 -1 19 2q12 2 14 6q4 9 2 29v33v82v16q0 1 20 3t44.5 4.5t30.5 3.5q5 1 8 2t9 4t5 5
t-5 6q-13 8 -49 8l-65 -1q-1 20 2.5 49t3.5 37q1 16 1 25t-5.5 14t-20.5 9q-6 2 -18 4q-15 3 -18 2z" />
    <glyph glyph-name="comma" unicode="," horiz-adv-x="106" 
d="M49 18q-5 -1 -10 -10q-3 -5 -3 -19q0 -4 1.5 -10.5t1.5 -8.5q1 -8 -9 -27l-2 -5q-3 -6 -3 -8q3 -8 13.5 -3t16.5 11t14 20q10 22 12 34q2 18 -7 25q-13 7 -25 1z" />
    <glyph glyph-name="hyphen" unicode="-" horiz-adv-x="319" 
d="M269 311q-1 4 -4.5 5t-11 1t-12.5 1q-14 4 -69.5 2.5t-68.5 -0.5q-36 1 -51 -11q-9 -8 3 -17q17 -14 60 -14q111 3 133 5q11 1 16.5 10t4.5 18z" />
    <glyph glyph-name="period" unicode="." horiz-adv-x="112" 
d="M40 5q-15 -10 -15 -28q0 -32 24 -40q6 -2 17 0.5t15 8.5q13 18 0 47q-6 13 -18 15q-15 2 -23 -3z" />
    <glyph glyph-name="slash" unicode="/" horiz-adv-x="280" 
d="M95 -60q1 2 32 85t70 186.5t55 142.5q7 17 31 75.5t43.5 105.5t23.5 60q6 13 5 28t-17 18q-4 1 -11.5 3t-10 2t-7 -1.5t-8.5 -7.5t-9 -16q-15 -29 -129 -326.5t-122 -321.5q-9 -21 -4 -31q3 -8 17 -12t24 -3q10 3 17 13z" />
    <glyph glyph-name="zero" unicode="0" horiz-adv-x="386" 
d="M45 243q5 -92 7 -103q8 -67 25.5 -110.5t61.5 -75.5q39 -28 64 -24t52 43q59 86 74 187q19 122 8 253q-15 215 -84 253q-19 11 -64 0q-25 -7 -44 -24q-11 -10 -20 -22t-16 -28t-10.5 -25.5t-10.5 -31.5t-9 -28q-8 -25 -13.5 -50t-9 -56.5t-5 -49t-3.5 -57t-3 -51.5z
M238 606q10 3 22 -3q16 -7 21 -33q8 -35 11 -65q20 -196 -6 -348q-14 -85 -45 -146q-5 -10 -12.5 -17.5t-18.5 -11t-20 8.5q-11 12 -21 38q-12 29 -19 83q-19 142 11 316q7 46 23 92q26 79 54 86z" />
    <glyph glyph-name="one" unicode="1" horiz-adv-x="288" 
d="M239 668q-6 6 -15.5 6.5t-25 -3t-16.5 -3.5q-19 -2 -35 -28q-15 -22 -45.5 -60t-39.5 -50q-18 -22 -16 -25q17 -35 41 -11l46 51q1 -14 0.5 -21t-2 -21.5t-1.5 -20.5q-1 -23 -3.5 -70.5t-3.5 -71.5q-9 -228 -6 -319q0 -5 -0.5 -15.5t-0.5 -17t1.5 -15t4.5 -15.5
q7 -15 26 -18q37 -8 48 4q3 3 4 8.5t0.5 10.5t0.5 11q0 12 0.5 37t0.5 38l6 189q1 23 2.5 76.5t3 83.5t4.5 74t8 80q0 3 1 4q3 22 11 66q0 2 2 10t2.5 13t0 11.5t-3.5 10.5v1z" />
    <glyph glyph-name="two" unicode="2" horiz-adv-x="407" 
d="M255 605q20 -4 25 -22.5t-3.5 -45.5t-21 -56t-31 -60t-30.5 -50t-22 -33q-40 -56 -68 -114.5t-40 -103.5t-16.5 -83.5t-2 -60t7.5 -25.5q9 -8 24.5 -9.5t39 1t29.5 2.5q112 0 171 16q1 1 8 2.5t10.5 3.5t4.5 7q1 10 -12 14q-8 2 -40 0q-25 -3 -60.5 -4t-60.5 -1t-30 -2
q0 129 113 316q158 265 92 332q-17 17 -51.5 24.5t-75 1.5t-80 -43.5t-59.5 -102.5q-5 -15 -5 -19.5t10 -7.5q2 -1 5.5 -2.5t4.5 -2t3.5 -0.5t4.5 0.5t5 2.5q2 1 8.5 16.5t17.5 35.5t26.5 39t41.5 29.5t57 4.5z" />
    <glyph glyph-name="three" unicode="3" horiz-adv-x="419" 
d="M309 622q-171 -180 -185 -196q-2 -2 -7.5 -8t-10 -10.5t-5.5 -8.5q-14 -43 1 -57q5 -4 9 -6.5t9 -3t7.5 -1t7.5 1.5t7 3t8.5 5t8.5 5q15 9 42 18t58.5 13.5t40.5 -12.5q35 -60 1 -142t-88 -136q-43 -43 -95 -65q-24 -10 -41 -10q-18 2 -30 15q-1 1 -4.5 8t-6.5 13.5
t-4 6.5q-8 2 -12.5 -4.5t-4.5 -17t1 -20t3 -15.5q6 -22 31.5 -37t49.5 -15q15 0 23 3q163 56 229 186q50 99 24 188q-22 72 -84 88q-41 10 -91 -11q34 43 171 185q14 12 10.5 34t-27.5 28q-26 6 -51.5 8t-42 1t-47 -4t-49.5 -4q-55 -2 -73 -8q-25 -8 -14 -20q7 -8 26 -11
q10 -2 97 5.5t108 7.5z" />
    <glyph glyph-name="four" unicode="4" horiz-adv-x="435" 
d="M108 299q11 0 35 4.5t37 4.5q2 0 28.5 3t51.5 6t25 2v-31.5v-43.5v-32q0 -149 3 -230q1 -21 17 -34t37 -12q25 2 24 25q-2 46 -1.5 128t1.5 162l1 80q42 6 43 19q0 7 -3 11.5t-8.5 6.5t-10 2.5t-11.5 1t-8 0.5q-4 15 -4 134.5t-6 129.5q-5 9 -12.5 15.5t-12 9t-17.5 7.5
t-17 6q-17 6 -36.5 2t-28.5 -17q-14 -22 -41.5 -61.5t-40.5 -59.5q-15 -24 -49.5 -71.5t-46.5 -67.5q-20 -32 -28 -48q-2 -11 -4 -16t4.5 -12t10.5 -10.5t14 -9.5q6 -4 15 -5t22.5 0t16.5 1zM287 365q-8 -1 -45 -8t-71 -11.5t-47 -0.5q-6 1 31.5 56t88 124.5t52.5 72.5
q-3 -29 -5 -121t-4 -112z" />
    <glyph glyph-name="five" unicode="5" horiz-adv-x="371" 
d="M40 353q13 -11 35 -5q22 5 57 25q19 11 30.5 16t33 12t36.5 1t23 -24q8 -19 8 -67q1 -74 -35.5 -168.5t-84.5 -120.5q-32 -18 -60 17q-9 12 -22 48q0 1 -2.5 11.5t-5 17t-6.5 9.5q-13 8 -19 -6q-7 -15 4 -57q9 -29 34 -69q23 -32 50 -46q62 -33 131 58q66 87 91 214
q27 142 -28 201q-19 20 -46 27q-20 5 -44 2q-39 -4 -106 -48q16 73 21 101q1 5 26 97q4 11 21 13q42 2 48 3q11 1 25.5 3.5t29.5 3.5q7 1 21 4.5t17 4.5q7 1 11.5 7.5t-1.5 15.5q-2 3 -8 3.5t-13.5 -0.5t-8.5 -1q-7 0 -11 -0.5t-7 -1t-11 -0.5h-115q-9 0 -22.5 1t-22.5 1
q-21 2 -26 -14q-2 -7 -50 -237q-8 -36 -4 -45q4 -5 6 -7z" />
    <glyph glyph-name="six" unicode="6" horiz-adv-x="373" 
d="M118 652q-3 -5 -6.5 -15.5t-5.5 -13.5q-8 -17 -17 -46q-18 -60 -30 -110q-29 -123 -33 -234q-2 -34 3 -135q2 -51 39 -98q34 -45 110 -49q29 0 55 32q63 80 101 187q28 78 1 140q-28 64 -95 27q-57 -32 -98 -107q-20 -35 -27 -68q0 114 25.5 237.5t42 186t3.5 69.5
q-11 6 -29 8.5t-29 -2.5q-5 -3 -10 -9zM162 6q-1 0 -2.5 -0.5t-2.5 -0.5q-8 4 -9 32.5t6 68t20 79.5t36.5 72.5t52.5 42.5q25 9 21 -34q-6 -68 -58 -173q-40 -80 -64 -87z" />
    <glyph glyph-name="seven" unicode="7" horiz-adv-x="373" 
d="M127 -57q14 0 23 5t13.5 10t6.5 19t2 20v24q0 29 1 58.5t10 105t24.5 140t50 141.5t81.5 131q23 26 -10 49q-33 22 -45 20q-7 -2 -12 -7q-7 -7 -12 -10.5t-9 -4t-8.5 -0.5h-11.5q-12 -1 -77.5 -3t-84.5 -4q-3 0 -11.5 -0.5t-11 -1t-8.5 -2t-7.5 -4.5t-3.5 -8t-2 -13
q0 -21 109 -4q53 8 107 5q-45 -72 -76.5 -152t-45.5 -144.5t-22.5 -127.5t-6 -103t3.5 -69q1 -6 1 -20t1 -22.5t6.5 -17t15.5 -10.5h9z" />
    <glyph glyph-name="eight" unicode="8" horiz-adv-x="376" 
d="M123 317q-46 -48 -70 -97.5t-27 -86.5t4.5 -71.5t17.5 -53t20 -30.5q30 -36 72 -42.5t70.5 3t44.5 23.5q38 30 58 72.5t4 92.5q-6 20 -14.5 39t-24.5 49t-19 36q-5 11 -22.5 40t-19.5 32q24 29 75 107l51 79q10 13 7.5 20.5t-6.5 10t-9 2.5q-6 0 -31 -29.5t-61 -71.5
t-62 -64q-71 102 -47 191q15 56 59 70q51 17 92 -41q3 -5 7 -11q5 -7 18 -4.5t13 10.5q-3 25 -29.5 49t-62 36t-77.5 -6t-72 -69q-27 -57 -28.5 -104t14.5 -84t55 -97zM149 -18q-41 23 -45.5 78.5t16 110.5t51.5 92q39 -53 78 -127q19 -44 11 -84.5t-41 -63t-70 -6.5z" />
    <glyph glyph-name="nine" unicode="9" horiz-adv-x="392" 
d="M331 632q-7 28 -14 36t-27 9q-17 6 -42.5 3t-53.5 -8.5t-56.5 -24t-52 -43t-40 -66t-20.5 -93.5q2 -57 19 -87.5t41 -35t53 5.5t51.5 25.5t41.5 33.5q0 -3 -7 -51t-14 -101t-12 -118.5t-4 -106.5q2 -60 20 -74.5t59 10.5q8 5 7.5 33.5t-1.5 85t3 129.5t25 187.5t60 239.5
q-4 10 -9.5 12t-13.5 0t-13 -1zM296 595q-12 -22 -26.5 -59t-23.5 -62l-8 -26q-6 -23 -48.5 -55.5t-63.5 -25.5q-25 8 -12 83q15 92 60 146q58 68 122 -1z" />
    <glyph glyph-name="colon" unicode=":" horiz-adv-x="237" 
d="M90 405q-15 -10 -15 -28q0 -32 24 -40q6 -2 17 0.5t15 8.5q13 18 0 47q-6 13 -18 15q-15 2 -23 -3zM90 60q-15 -10 -15 -28q0 -32 24 -40q6 -2 17 0.5t15 8.5q13 18 0 47q-6 13 -18 15q-15 2 -23 -3z" />
    <glyph glyph-name="semicolon" unicode=";" horiz-adv-x="237" 
d="M89 350q-14 -10 -14 -28q0 -32 24 -40q6 -2 17 0.5t15 8.5q13 19 -1 47q-6 13 -17 15q-15 2 -24 -3zM102 18q-5 -1 -10 -10q-5 -8 -3 -19q0 -4 1.5 -10.5t1.5 -8.5q1 -8 -9 -27l-3 -5q-2 -6 -2 -8q3 -8 13.5 -3t16.5 11t14 20q10 22 12 34q2 18 -8 25q-11 7 -24 1z" />
    <glyph glyph-name="equal" unicode="=" horiz-adv-x="450" 
d="M410 321q-8 2 -12 2q-56 6 -111 9q-15 1 -45.5 1t-45.5 1q-38 2 -56 1q-11 0 -44 -5t-52 -3q-2 0 -4 -2q0 -19 5.5 -27.5t21.5 -13.5q20 -4 43 -6q8 0 24 -1t24 -1q30 -2 44 -2q62 2 94 4q60 4 95 15q19 6 19 28zM410 180q-8 2 -12 2q-12 1 -35 3t-41.5 3.5t-34.5 2.5
q-15 1 -45.5 1t-45.5 1q-37 2 -56 1q-11 0 -44 -5t-52 -3l-2 -1l-2 -1q0 -19 5.5 -27.5t21.5 -13.5q21 -4 43 -6q8 -1 24 -1t24 -1q30 -2 44 -2q62 2 94 4q54 2 95 15q19 6 19 28z" />
    <glyph glyph-name="question" unicode="?" horiz-adv-x="281" 
d="M192 136v8q-1 5 -10.5 16t-10.5 16q-3 14 -2 26q3 38 38 102q44 80 76 148q7 14 19 39.5t16 34.5q21 39 10 87t-52 65q-70 30 -139 -17q-35 -23 -55 -57q-11 -20 -3 -30q5 -6 10 -7t10.5 2.5t9.5 7.5t9 10t7 8q23 25 60 43q43 20 63 5q18 -14 19 -43t-11 -47
q-103 -184 -105 -187q-4 -9 -16 -31t-18 -34.5t-13 -32t-9 -35.5q-6 -38 12 -71q6 -10 22.5 -20.5t28.5 -12.5q30 -5 34 7zM129 17q-4 -2 -5 -5q-7 -10 -8 -20q0 -20 19 -33q11 -4 18 -5.5t13 5.5t9 13t7 16q5 14 3 19q-5 16 -42 13q-13 -2 -14 -3z" />
    <glyph glyph-name="at" unicode="@" horiz-adv-x="627" 
d="M547 424q11 -51 -1 -89q-18 -50 -71 -89q-40 -28 -80 -25q-38 1 -61 30q-9 12 -14 29q0 1 -2 8.5t-3.5 14t-0.5 7.5q-5 -5 -10.5 -17.5t-8.5 -16.5q-12 -19 -25 -32q-24 -26 -55 -26q-18 0 -31 16t-15 36q-5 40 17 72q26 39 62 58q40 20 86 15q23 -3 26 -10
q7 -14 -3.5 -20t-23.5 -5q-50 5 -74.5 -26.5t-28.5 -61.5q-1 -11 4 -21t18 -5q22 7 41 54q0 1 2.5 12.5t6.5 16.5q5 6 25 8q13 4 27 1t11 -21q-4 -25 1 -54.5t25 -34.5q23 -6 66 29q31 26 41 58q4 18 3 27q-1 29 -13.5 57t-34.5 40q-104 59 -229 -18q-37 -23 -64 -66.5
t-35.5 -89.5t13.5 -89t76 -63q44 -16 117 -2q30 5 54 16q12 4 25 12q2 1 7.5 5t10 6.5t8.5 1.5q7 -4 5.5 -9.5t-7.5 -9.5q-53 -29 -86 -40q-51 -17 -91 -17q-41 0 -72 12q-54 23 -78 55q-41 55 -29 149q3 26 18.5 56t43 62t76 56.5t109.5 32.5q120 17 186 -34q26 -20 36 -61
z" />
    <glyph glyph-name="A" unicode="A" horiz-adv-x="394" 
d="M262 690q6 3 10.5 3h6.5t9.5 -3.5t11.5 -4.5q32 -12 32 -46q0 -23 1.5 -69.5t2.5 -70.5q12 -322 25 -527q0 -1 2 -20.5t1 -33.5t-6 -18q-10 -6 -30.5 -7t-30.5 4q-21 10 -24 64q-8 136 -14 325q-9 -2 -100 -33q-82 -328 -96 -337q-10 -6 -35 -7.5t-28 8.5q-1 5 18.5 68
t42 140t27.5 109q-29 -12 -32 4q-3 15 17 23l18 7q2 2 38 98.5t74.5 198t44.5 112.5q5 8 14 13zM258 318q2 36 1.5 106.5t2.5 156.5l-92 -288z" />
    <glyph glyph-name="B" unicode="B" horiz-adv-x="478" 
d="M215 346q54 70 88 145q15 33 22.5 53.5t8 51.5t-15.5 55q-17 24 -44 32t-47.5 6t-52.5 -9q-6 -1 -9 -2q-4 -1 -17.5 -4t-19.5 -4t-16.5 -0.5t-19.5 4.5q-3 1 -29 1q-17 -2 -22 -14q-2 -5 -2.5 -15t-1.5 -15q-1 -4 -8 -11q-2 -1 -9 -5.5t-11.5 -8.5t-6.5 -8t-1.5 -11
t3.5 -11q6 -6 14 -2.5t13 9.5q-3 -23 -3 -67t-1 -55q-5 -108 -1 -195q1 -16 2 -47.5t2 -47.5q6 -106 14 -147q2 -9 6.5 -40t7.5 -47q7 -27 14 -32q6 -4 14.5 -6t20 -3.5t15.5 -2.5q30 -4 67 6q54 13 99 48.5t72 77.5t46 88t26.5 80.5t7.5 56.5q0 20 -3 38t-10.5 39.5t-24 34
t-40 19t-61.5 -2t-86 -32.5zM270 593q2 -40 -11 -82.5t-33 -74.5t-40.5 -58.5t-35.5 -39.5l-14 -14v271l-1 40q43 27 88 14t47 -56zM146 68q0 27 -4 87t-4 92v25q59 35 107 45t80 -10t36 -73q7 -85 -55 -179.5t-154 -118.5q0 4 -0.5 19.5t-1.5 34t-2 36.5t-2 30v12z" />
    <glyph glyph-name="C" unicode="C" horiz-adv-x="312" 
d="M321 514q-2 -1 -10 -1q-11 2 -12 17q-1 6 -1 17t-1 16q0 1 -1.5 13t-2.5 18.5t-4.5 15t-8.5 12.5q-17 12 -40 -6q-24 -18 -55 -83q-52 -108 -62 -260q-4 -60 0 -150q8 -114 36 -169q9 -13 14 -16q26 -12 47 10q9 9 27 46q1 2 3.5 9t4.5 11.5t5.5 8t8.5 2.5q8 -2 12 -6
t3.5 -10t-2.5 -11t-5.5 -12.5t-4.5 -9.5q-31 -75 -92 -83q-37 -4 -73 17t-61 54q-66 88 -36 354q4 28 12 67.5t33 107t58 111.5q51 68 109 86q39 13 72 -20q16 -16 25 -54t8.5 -69t-6.5 -33z" />
    <glyph glyph-name="D" unicode="D" horiz-adv-x="347" 
d="M114 -91q-21 -12 -57.5 -9.5t-47.5 29.5q-9 25 -9 101v152q2 135 7 242q4 80 7 120q1 18 5 53t5 52q0 8 3 21.5t4 16.5q1 5 28.5 7.5t69.5 -4t86 -23t83 -56.5t55 -97q39 -138 -33 -306q-1 -2 -10.5 -23.5t-16.5 -36.5t-20.5 -42.5t-25.5 -48t-28.5 -46.5t-32.5 -44.5
t-35 -34t-37 -23.5zM107 47q0 -77 1 -93q99 84 159 217.5t60 252.5q0 109 -78 182q-5 5 -10.5 9t-10 7t-11.5 5.5t-10 4t-11.5 3.5t-11 2.5t-12.5 2t-11 1.5t-12.5 1t-12.5 1q-10 1 -16 -1t-8 -9t-2.5 -11.5t0 -17t0.5 -16.5q0 -32 -3 -97.5t-3 -97.5q0 -148 5 -253
q1 -16 -2 -93z" />
    <glyph glyph-name="E" unicode="E" horiz-adv-x="323" 
d="M340 689q10 -21 -23 -25q-18 -2 -52.5 -3.5t-42.5 -1.5q-59 -3 -68 -2q0 -8 -0.5 -17.5t-1.5 -21.5t-1 -18q-1 -9 -2.5 -23.5t-2.5 -27t-1 -23.5q-3 -70 -3 -72q0 -3 18.5 -3.5t42 1t24.5 1.5q27 0 28 -14t-21 -20q-31 -7 -92 -7q-1 -10 -3 -28t-3 -30q-19 -195 -23 -304
q0 -10 -1.5 -31t-1.5 -31q2 0 5 0.5t5 1.5h2q23 4 65 15t50 13q15 4 25.5 -1t-0.5 -19q-5 -7 -33 -18q-14 -5 -40.5 -11t-37.5 -10q-14 -5 -44 -13t-45 -13q-48 -17 -57 10q-3 12 -3 15q-3 24 -1 74q9 253 21 335q3 24 10.5 88t13.5 115t8 62q4 31 20 50q8 10 46 10
q43 0 64 1q100 3 118 4q32 3 38 -8z" />
    <glyph glyph-name="F" unicode="F" horiz-adv-x="213" 
d="M122 446v16t0.5 29t0.5 27q0 26 2 74q2 38 1 57q18 -1 68 6q8 1 42 3t53 5q10 2 14.5 4t9 7.5t-2.5 14.5q-7 12 -38 7q-36 -4 -117 -9q-23 -2 -65 -4q-2 0 -11 -0.5t-13.5 -1t-10.5 -3t-10 -7.5t-6 -12t-2.5 -12t-1 -15t-0.5 -12q-1 -12 -9.5 -122.5t-11.5 -143.5
q-16 -159 -14 -336q0 -1 3 -61q0 -28 13 -39q10 -9 48 -2q18 2 29 22q21 41 18 103q0 127 10 305q1 12 2.5 32t1.5 31q83 2 108 9q22 8 21 21q-2 13 -30 13q-101 -11 -102 -6z" />
    <glyph glyph-name="G" unicode="G" horiz-adv-x="393" 
d="M313 252q4 1 13 3.5t13 4.5q-5 -16 -6 -30q-6 -40 -37 -128q-1 -3 -10 -29.5t-13 -36t-12.5 -29.5t-18.5 -32.5t-22 -22.5q-17 -15 -35.5 -17t-34.5 15q-6 8 -9 21t-4 21t-2 25t-1 21q-2 29 -4 82t-3 74q-9 118 15 244q11 60 28 110q15 50 35 76q26 31 48.5 18t30.5 -48
q1 -3 2 -17.5t2.5 -25.5t7.5 -21t15 -10q5 0 8 3t3.5 9.5t1 12t0 13t-0.5 8.5q-2 95 -64 118q-61 23 -129 -25q-23 -17 -44 -47q-19 -29 -33 -66.5t-19.5 -60t-15.5 -72.5q-11 -51 -16 -117.5t0.5 -141t22.5 -135t55.5 -98t94.5 -32.5q23 2 44.5 14.5t37.5 29.5t31 43
t24.5 47.5t19 51t13.5 46t9.5 39.5t6.5 25q2 9 6.5 23.5t7.5 24.5t6 23t2.5 18.5t-3.5 10.5q-17 17 -83 -0.5t-73 -27.5q-15 -17 8.5 -19t33.5 3q15 3 47 11z" />
    <glyph glyph-name="H" unicode="H" horiz-adv-x="383" 
d="M349 -71q4 3 7 7q3 11 2.5 20.5t-3.5 28.5t-3 22q-1 13 -2.5 39t-2.5 39q-6 104 -6 156l4 135q15 5 24.5 12t8.5 18q-1 9 -5 11.5t-14 1t-12 -1.5q1 12 5.5 73.5t7.5 88.5q1 5 3.5 20t3 24t0 21.5t-6 21.5t-15.5 15q-24 16 -59 10q-9 -2 -14.5 -10t-6.5 -13.5t-2 -18.5
q-10 -118 -14 -178l-5 -78q-18 -6 -64.5 -17t-63.5 -16q0 13 3 109q1 27 3.5 81.5t3.5 81.5q2 26 -21 33q-9 3 -16 8t-18 7q-19 4 -30 -11q-3 -5 -4.5 -20t-1.5 -17q-2 -12 -5.5 -34t-4.5 -31q-4 -27 -14.5 -259.5t-10.5 -302.5q0 -12 3 -35t3 -32q0 -28 16 -40
q9 -7 15.5 -8t16 2t16.5 3q14 1 18.5 6.5t5.5 20.5q0 2 6 104q9 104 9 106q6 178 6 188q19 7 62.5 16t64.5 17q1 -14 0.5 -47t0 -85.5t3.5 -80.5q0 -22 1 -53.5t2 -61t13.5 -55.5t36.5 -37l7 -3.5t7.5 -3.5t6.5 -2t6.5 -1h6.5t8 1.5t8 4.5z" />
    <glyph glyph-name="I" unicode="I" horiz-adv-x="287" 
d="M281 -73q12 0 28 -5.5t13 -18.5q-1 -4 -6.5 -7t-14.5 -3.5t-16.5 -0.5t-15.5 0.5t-9 0.5q-20 0 -97 -2t-97 0q-53 5 -61 13q-18 19 24 24q25 3 45 1q4 0 13 -1t13 -1q-1 35 0 59q2 41 3 115.5t2 98.5l6 148q1 13 1 39.5v39.5q1 25 3 76.5t4 98t2 53.5q-4 0 -21 1t-24 0
q-2 0 -11.5 -1t-16 -0.5t-10.5 4.5q-5 4 -5 12.5t4 13.5q7 9 49 5q17 -1 46 -1h12q7 0 10 -1h5l53 1q52 1 52 -1q12 -1 18.5 -7.5t-1.5 -18.5q-3 -4 -8.5 -5t-14 0.5t-11.5 1.5q-9 0 -19 -1.5t-14 -1.5q1 -2 0.5 -22t-1.5 -41.5t0 -38.5q3 -37 2 -68q-6 -219 -6 -221
q0 -15 -0.5 -91t-1 -143.5t-2.5 -81.5q-1 -4 -1.5 -12t-0.5 -12q69 3 78 2z" />
    <glyph glyph-name="J" unicode="J" horiz-adv-x="336" 
d="M82 -114q58 -43 128 -25q86 25 86 184q0 1 -6 127q-4 58 -11.5 173t-10.5 173q-1 13 -3.5 57t-4.5 68q-1 9 -8.5 20.5t-14.5 15.5q-1 1 -7 3.5t-8 3.5t-7 2.5t-8.5 1.5t-7.5 -1t-8 -3q-12 -8 -12 -43q-1 -11 -1 -100q0 -93 2 -140q6 -110 10 -170q1 -8 4 -39t5 -58.5
t4.5 -65.5t2 -68.5t-2.5 -58t-8.5 -43.5t-17.5 -17q-34 -2 -65 25.5t-46 69t-17.5 84t21 76t68.5 39.5q1 0 7 1t7 1.5t6.5 2.5t4 4t-0.5 7q-2 11 -21 11q-51 -2 -85 -26q-32 -23 -45.5 -60t-10 -74.5t19.5 -74.5q21 -52 62 -83z" />
    <glyph glyph-name="K" unicode="K" horiz-adv-x="332" 
d="M101 275q19 -8 43.5 -47.5t49.5 -90t52 -100.5t59 -83.5t62 -33.5q18 0 27 21q9 19 -4 19q-2 0 -6 -2q-25 -8 -51.5 21.5t-50.5 79.5t-48 102t-54.5 95.5t-61.5 53.5q51 24 89 57.5t111 112.5q28 30 -4 47q-20 8 -26.5 4t-20.5 -28q-33 -54 -80 -93t-77 -52q0 248 -4 279
q-5 31 -41.5 50t-50.5 -4q-13 -20 -13 -174q-1 -47 0 -132t1 -112q0 -26 -1 -76.5t-1 -76.5q0 -161 8 -185q6 -22 32 -28q37 -9 51 2q4 3 5.5 8t2 8.5t1 10.5t0.5 9q2 28 4 88q1 39 1 94t-1.5 105t-2.5 51z" />
    <glyph glyph-name="L" unicode="L" horiz-adv-x="241" 
d="M126 -98q28 9 47 14t30.5 9t37.5 13q43 14 53 1q11 -16 -34 -36q-2 -1 -3 -1q-19 -9 -52 -20q-50 -19 -81 -27q-40 -8 -59 5t-34 68q-8 30 -12 73t-7 109.5t-3 73.5q-9 142 -9 287q0 27 1.5 50.5t5 54.5t5.5 51q0 4 -0.5 18t1 23.5t6.5 16.5q9 12 26 9.5t33 -11.5t24 -18
q15 -17 17 -44t-2 -49q-2 -37 8 -298q1 -27 0 -77t-1 -66v-104t2 -125z" />
    <glyph glyph-name="M" unicode="M" horiz-adv-x="522" 
d="M15 631q-5 -9 -6.5 -76.5t-2 -154t-2.5 -116.5q-8 -153 -2 -304v-15v-14.5t0.5 -12.5t1 -11.5t1 -10t2 -8.5t3.5 -6t4.5 -4t5.5 -1q9 0 15 9t8 27t2.5 30t0 34t-0.5 24q0 17 -1.5 107t-2 149t1.5 109q57 -174 77 -249q40 -141 66 -155q28 -15 53 -6q5 2 8 7t4.5 9t3.5 13
t2 10q9 34 40.5 185t36.5 190l10 38q0 -66 16.5 -237.5t43.5 -240.5q12 -30 20 -45.5t22 -35t34.5 -30.5t49.5 -19q16 -4 33.5 2t18.5 22q1 7 -1 11t-6 6t-7.5 2.5t-10 1t-9.5 0.5q-19 3 -40.5 33.5t-36.5 98.5q-15 67 -20.5 163t-3.5 183t4.5 166t-0.5 127.5t-15 51.5
q-19 7 -37 3t-26 -28q-38 -114 -80.5 -305.5t-61.5 -296.5q-12 52 -45.5 185.5t-58 235.5t-29.5 132q-3 22 -12.5 33t-24.5 9q-3 -1 -9.5 -2t-8.5 -1t-6 -1.5t-6 -3.5t-5.5 -4.5t-7.5 -7.5z" />
    <glyph glyph-name="N" unicode="N" horiz-adv-x="400" 
d="M299 46q-1 0 -9.5 26t-19.5 60t-16 52q-10 32 -29.5 95t-29.5 94q-40 124 -63 185q-43 118 -55 131q-4 4 -51 4q-10 0 -12.5 -18t-3.5 -53v-13q-2 -57 -6 -343.5t-4 -335.5q0 -12 12.5 -17.5t25 1t12.5 24.5q0 48 3.5 277t6.5 248q1 0 6 -13.5t10 -27.5t5 -15l24 -75
q38 -119 74 -208q19 -50 40 -90q0 -1 9 -22.5t18.5 -41.5t25.5 -38t32 -19q12 -1 20 0.5t12 5.5t6 10t2.5 13t0.5 14.5v15.5q0 11 -2.5 300.5t-2.5 361.5v55q-5 7 -17.5 5.5t-17.5 -7.5q-3 -4 -6 -27q0 -10 -0.5 -40.5t-1.5 -47.5q0 -6 0.5 -138t0.5 -260z" />
    <glyph glyph-name="O" unicode="O" horiz-adv-x="374" 
d="M348 339q2 48 -1 86q-2 32 -29 119q-21 75 -58 106q-27 23 -50 30t-58 4q-27 -1 -42 -15q-24 -24 -51 -88q-51 -127 -57 -240q-3 -82 -1 -140q3 -55 15 -113q4 -25 18 -70q32 -110 126 -94q62 9 87 48q43 63 55 102q41 148 46 265zM200 636q19 6 36.5 -10.5t28.5 -38.5
q50 -97 50 -233q0 -85 -37 -218q-49 -183 -101 -159q-26 12 -37 56q-13 44 -17 85q-9 81 -6 185q3 135 34 247q18 68 43 83z" />
    <glyph glyph-name="P" unicode="P" horiz-adv-x="197" 
d="M258 675q80 -49 43 -176q-19 -66 -68 -121q-59 -66 -127 -90q2 -74 4 -112q2 -26 7.5 -79t8 -95t1.5 -79q0 -17 -12 -22q-12 -7 -31 -6.5t-29 11.5q-7 7 -14 55q-7 37 -11 76.5t-7.5 95.5t-5.5 76q-5 50 -11 181.5t-5 169.5q0 7 -0.5 21.5t-0.5 23.5t1.5 21.5t4.5 21.5
q5 15 19 22.5t26 9t33.5 1.5t27.5 1l28 4t32 3.5t28.5 0.5t31.5 -4t26 -11zM106 331q13 6 23 11t39.5 26.5t48.5 45t36 63.5t17 85q0 8 -1 16t-5 20.5t-10.5 22.5t-19 19.5t-29.5 14t-43 3.5t-58 -9q2 -34 2 -318z" />
    <glyph glyph-name="Q" unicode="Q" horiz-adv-x="448" 
d="M463 -89q27 26 25 78h-6q-26 -31 -52 -23.5t-45.5 25t-19.5 24.5q24 74 30 96q18 73 16 153q-3 213 -67 393q-17 47 -63 36q-60 -14 -86 -28q-13 -7 -23 -16t-18.5 -13t-25.5 -4q-21 0 -32 -8.5t-17 -29.5q-5 -19 -25 -86.5t-28 -98t-17 -83t-9 -97.5q-2 -172 94 -294
q76 -95 168 -35q5 3 69 54q1 0 13.5 -10.5t26.5 -22.5t16 -14q41 -20 66 -4q8 6 10 8zM337 62q-50 56 -85 160q-7 2 -14 2.5t-11.5 0.5t-13.5 -3.5t-11 -4t-12 -5.5l-11 -6q-22 -9 -4 -39q16 -26 58.5 -86t61.5 -90q4 -6 -24 -30.5t-38 -29.5q-25 -15 -59 5q-10 7 -18.5 19
t-13.5 22t-9.5 29.5t-6 27.5t-4.5 30t-3 25q-5 35 -5 105v24.5v26v24t0.5 26t1.5 24.5t2 26t2.5 24t3.5 25.5t5 23.5t6 25q28 96 111 191q8 9 34 11.5t32 -8.5q13 -32 19 -60q9 -59 31 -212q9 -64 4 -142t-22 -141q-1 -5 -7 -20z" />
    <glyph glyph-name="R" unicode="R" horiz-adv-x="356" 
d="M156 339q51 4 91 25.5t61 49.5t34 60.5t16.5 56t1.5 38.5q-5 41 -22 66.5t-49.5 37.5t-68 15t-93.5 2q-56 -2 -67 -4q-36 -8 -36 -81q0 -63 -12 -332t-12 -313q0 -38 11 -48q4 -4 10 -7q17 -10 50.5 -9.5t35.5 23.5q2 15 2 66v75.5t1 76.5q8 180 8 188q22 -6 47.5 -69
t47 -138.5t53.5 -149.5t64 -97q26 -20 47.5 -21.5t53.5 13.5q8 4 14.5 10t10 14.5t-4.5 16.5q-4 3 -10.5 -1t-15 -12t-13.5 -10q-30 -14 -58 21t-51 98.5t-44.5 131t-48.5 127.5t-54 80zM286 621q12 -24 14 -57t-9 -68.5t-31.5 -66t-57 -50t-82.5 -19.5q4 164 7 189
q1 14 1.5 55.5t2.5 57.5q0 2 13.5 3.5t33.5 0t41 -5t40 -14t27 -25.5z" />
    <glyph glyph-name="S" unicode="S" horiz-adv-x="345" 
d="M226 445q1 3 5 9.5t5 8.5q10 18 20 44q20 51 -6 94q-15 26 -43 30.5t-52 -14.5q-46 -33 -50 -102q-4 -94 57 -215q32 -68 60 -148q9 0 56.5 20t89.5 35.5t42 8.5q1 -9 -8.5 -19t-28 -19.5t-30.5 -15t-31 -13.5l-79 -30q8 -33 8 -95q0 -56 -28 -103q-26 -41 -104 -55
q-34 -6 -64.5 4.5t-39.5 39.5q-18 56 26 114t105 92q-78 175 -95 237q-45 169 20 275q11 18 38 36q38 24 73 24q17 0 28.5 -2.5t17.5 -5.5t25 -13q56 -29 52 -131q-1 -26 -19 -66q-7 -17 -16 -29q-21 -24 -32 -9q-5 6 -2 13zM41 -59q7 -35 41 -36q23 -1 41 13.5t26 37.5
q11 33 -4 122q-22 -9 -58 -41.5t-44 -69.5q-3 -15 -2 -26z" />
    <glyph glyph-name="T" unicode="T" horiz-adv-x="373" 
d="M210 647q-2 5 -4 6l-33 1q-33 1 -65 3l-33 2q-37 3 -43 8q-8 8 -3.5 14.5t14.5 8.5q16 4 43 4.5t66.5 -1.5t59.5 -2q139 0 178 -4q3 0 14.5 -0.5l23 -1t23 -2.5t19 -6.5t8.5 -10.5t-4.5 -10.5t-15.5 -6.5t-18.5 -3t-19 -1h-12.5t-27.5 2.5t-49.5 4.5t-24 1
q-2 -12 -1 -35.5t0 -36.5q-1 -16 -1 -44v-44q-1 -30 -3.5 -90t-3.5 -90q-1 -15 -4 -75t-3 -92q1 -45 9 -133q4 -67 5 -98q0 -6 2.5 -21t2.5 -23q0 -22 -20 -23q-16 0 -32 20q-9 11 -20 30q-38 81 -43 150q-19 321 13 563q4 22 2 36z" />
    <glyph glyph-name="U" unicode="U" horiz-adv-x="390" 
d="M182 -36q25 0 45.5 29.5t34 75.5t23 102t15.5 107.5t10 93.5q1 17 2 24q4 48 8.5 142t6.5 127q0 5 -0.5 14t0 11.5t4.5 6t13 4.5q21 3 24 -1.5t1 -31.5q-4 -42 -6.5 -138.5t-7.5 -148.5q0 -2 -3 -33.5t-5.5 -54.5t-7.5 -64.5t-12 -73t-16.5 -71t-22.5 -68t-28.5 -54
t-36 -39t-44.5 -13.5q-50 0 -87.5 52t-56.5 130t-28 171t-7.5 175t9.5 141q3 25 3 52q0 4 -1 17t-0.5 19.5t5 14t14.5 9.5q15 3 44 -3t38 -16q9 -9 11 -19q1 -25 4 -86t3 -85t-4 -85q-4 -41 -5 -134.5t13 -196t48 -102.5z" />
    <glyph glyph-name="V" unicode="V" horiz-adv-x="336" 
d="M394 693q-5 9 -26 2q-5 -2 -9.5 -5.5t-8 -9t-6 -9.5t-5 -12t-3 -11.5t-3 -13t-2.5 -11.5l-6 -24q-50 -198 -74 -298t-35 -150l-24 -101q-10 57 -12 71q-6 52 -34 255q-12 85 -34 255q-8 50 -42 60q-13 6 -37.5 3.5t-29.5 -18.5t1 -77q3 -22 52 -275.5t52 -266.5
q14 -47 33 -97q8 -21 17 -33t26 -15q32 -7 51 100q5 42 49.5 225.5t73.5 293.5q22 84 34 126q6 30 2 36z" />
    <glyph glyph-name="W" unicode="W" horiz-adv-x="564" 
d="M607 662q8 0 10.5 -9.5t-0.5 -19.5q-3 -12 -10 -36.5t-10 -38.5q-9 -40 -29 -120q-3 -14 -26 -104t-34 -138q-35 -144 -41 -187q-1 -9 -2 -15t-3 -17t-5 -16.5t-7.5 -14.5t-10 -10.5t-13.5 -4.5t-17 3q-10 4 -17 11t-11.5 19t-7 20.5t-5 23.5t-3.5 20q-1 6 -24 119
q-4 23 -11.5 67t-11.5 64l-9 56q0 2 -2.5 11.5t-4 17t-0.5 11.5q-6 -26 -21 -86.5t-23 -92.5q-52 -230 -54 -237q-5 -22 -17 -39.5t-31 -14.5q-8 1 -14.5 7.5t-9 11.5t-6.5 17.5t-5 14.5q-23 58 -54 225q-9 46 -17 101.5t-13 92.5t-13 106t-11 96q-1 9 -5.5 29t-6.5 36t0 30
q1 14 10.5 19t21.5 2t23 -8t18 -11q24 -21 30 -80q3 -32 34.5 -228.5t38.5 -225.5q2 -8 6.5 -24.5t6.5 -25.5q6 6 16 45.5t22 95t16 70.5q5 24 15.5 72.5t16.5 72.5q4 16 13 61t17 76t19 58q14 33 31 35q9 1 14.5 -3.5t6.5 -9t2.5 -14.5t1.5 -13q1 -8 3.5 -24t3.5 -24l9 -72
q1 -5 7.5 -58t10.5 -81q3 -23 13 -123q15 -151 18 -151q8 38 47 199q11 46 44 182q3 11 10 47.5t14 56.5q2 5 6.5 22.5t10.5 29.5t14 18q10 6 15 5z" />
    <glyph glyph-name="X" unicode="X" horiz-adv-x="373" 
d="M-31 -66q2 -4 11.5 -6.5t20 4t10.5 26.5q0 40 25 90.5t65 109.5t52 83q-1 -3 25 -77.5t65.5 -153.5t68.5 -85q44 -10 59 0q12 6 13.5 13.5t-4.5 19.5q-3 5 -22.5 41t-26 49t-24.5 49.5t-29 62.5t-26.5 66t-28.5 82q73 90 83 105q6 9 32.5 48.5t49 72.5t29.5 43
q25 37 44 81q5 12 -2 28q-6 13 -22 15q-9 0 -16 -17q-16 -36 -63.5 -108t-77.5 -111q-5 -6 -40.5 -47.5t-36.5 -39.5q-31 78 -41 101q-30 66 -70 113q-44 56 -73 58q-18 2 -18 -11q1 -5 10 -26q6 -12 14.5 -35t9.5 -26q5 -14 31.5 -79.5t46.5 -117.5t19 -56
q-2 -6 -32.5 -51.5t-66.5 -105t-48 -97.5q-28 -84 -16 -111z" />
    <glyph glyph-name="Y" unicode="Y" horiz-adv-x="249" 
d="M51 -69q21 -9 34 -5q41 12 61 69q26 71 33 117q7 44 34 159t55 225t29 113q1 2 4.5 15t4.5 18.5t3 18.5t-2 15q-2 5 -9.5 8.5t-14.5 4.5t-17.5 2t-12.5 1q-10 2 -21.5 -14t-21.5 -42.5t-17.5 -51t-14 -50t-7.5 -28.5q-21 -78 -23 -92q-1 1 -4 7q-13 23 -36.5 68.5
t-36.5 67.5q-19 39 -37 64q-10 19 -16 19q-13 0 -22.5 -13t-4.5 -26t12.5 -27t19.5 -32t16 -25q94 -166 98 -172q-21 -160 -25 -182q-3 -18 -6.5 -38.5t-8 -45.5t-6.5 -39q-2 -11 -13.5 -36.5t-20.5 -31.5q-15 -9 -18 -20t12 -21z" />
    <glyph glyph-name="Z" unicode="Z" horiz-adv-x="321" 
d="M36 649q-1 -3 1 -9q5 -13 30 -19q12 -2 26.5 -2t32 1t26.5 1q31 0 84 -1t79 -1q-29 -49 -166 -335t-150 -307q-28 -46 30 -50q64 -2 84.5 -1.5t70.5 3.5t85 4q85 0 106 17q12 10 10 26q0 3 -15 3.5t-38.5 -1t-46.5 -3t-46 -4t-30 -2.5q-69 -5 -91 -2q6 16 115 254.5
t121 262.5q9 19 19 38q6 12 19 34.5t16 27.5q7 13 10 19.5t1.5 16t-12.5 16.5q-15 11 -41 11q-16 0 -117.5 4t-154.5 3q-14 0 -42 -2q-14 0 -16 -3z" />
    <glyph glyph-name="bracketleft" unicode="[" horiz-adv-x="197" 
d="M36 690q-7 -6 -12 -38q-12 -88 -17 -132q-7 -57 -7 -262t6 -282q0 -26 9 -34q10 -10 52 -11.5t79.5 4t37.5 13.5q0 10 -11.5 11t-36 -1.5t-40.5 -0.5q0 63 7.5 384t9.5 336q82 0 82 6q0 5 -5.5 9t-15.5 5.5t-17.5 2.5t-19 1.5t-12.5 0.5q-48 0 -78 -6q-6 -1 -11 -6z" />
    <glyph glyph-name="backslash" unicode="\" horiz-adv-x="245" 
d="M185 -60q-1 2 -32 85t-70 186.5t-55 142.5q-7 17 -31 75.5t-43.5 105.5t-23.5 60q-6 13 -5 28t17 18q4 1 11.5 3t10 2t7 -1.5t8.5 -7.5t9 -16q11 -20 72 -178.5t120 -314.5l60 -155q8 -23 3 -31q-3 -8 -17 -12t-24 -3q-10 3 -17 13z" />
    <glyph glyph-name="bracketright" unicode="]" horiz-adv-x="219" 
d="M184 690q8 -7 12 -38q12 -88 17 -132q7 -57 7 -262t-6 -282q-3 -29 -9 -34q-10 -10 -52 -11.5t-79.5 4t-37.5 13.5q0 10 11.5 11t35.5 -1.5t40 -0.5q1 61 -6.5 382t-9.5 338q-82 0 -82 6q0 5 5.5 9t15.5 5.5t17.5 2.5t19 1.5t12.5 0.5q48 0 78 -6q6 -1 11 -6z" />
    <glyph glyph-name="asciicircum" unicode="^" horiz-adv-x="358" 
d="M243 627q0 1 -4 9l-6 12t-7 10t-9.5 7.5t-11 -0.5t-13.5 -9t-65 -106t-75 -132q-27 -51 -14 -69q10 -14 28 10q5 7 9 16q23 48 65 124.5t47 81.5q7 -19 56 -141q23 -55 29 -65q13 -23 35.5 -19t25.5 29q1 9 -2 21t-10.5 29t-8.5 20q-5 13 -14.5 37.5t-14.5 36.5
q-21 56 -40 98z" />
    <glyph glyph-name="underscore" unicode="_" horiz-adv-x="433" 
d="M393 -58q-3 0 -8.5 2t-8.5 3q-23 3 -48.5 4t-56.5 1t-48 1q-21 1 -63.5 2t-63.5 2q-37 1 -53 -11q-8 -6 3 -14q16 -11 57 -11q87 0 131 1q75 0 132 9q5 1 11 1t8.5 0.5t5 2.5t2.5 7z" />
    <glyph glyph-name="grave" unicode="`" horiz-adv-x="151" 
d="M25 612q-1 -4 3 -11q7 -10 20 -28t18 -26q13 -20 42 -37q8 -4 13.5 0t3.5 13q0 5 -7 14l-54 66q-2 2 -7 5t-6 4q-11 3 -19 3q-7 2 -7 -3z" />
    <glyph glyph-name="a" unicode="a" horiz-adv-x="436" 
d="M480 240q4 8 15 -4q7 -8 5 -14l-12 -27q-13 -27 -30 -63.5t-38.5 -81t-40.5 -81.5t-34.5 -64t-21.5 -30q-32 -16 -60 -2.5t-34 48.5q-3 18 -5 151t-1 143q-11 -19 -29 -56t-30.5 -60t-30 -48.5t-37 -38t-40.5 -12.5q-14 0 -26.5 18.5t-19.5 39.5q-10 35 -10 69
q3 89 56 148q25 29 62 33q24 3 52 -8t48 -31q0 1 4 9t5 9q5 6 22 11q26 4 53 -6q11 -6 11 -12v-9q1 -5 1 -15l1 -62v-124q0 -7 -1 -47t-1 -69t2 -30t42 76t80.5 157t42.5 83zM92 50q11 13 59.5 102t57.5 103q-38 1 -62.5 -16.5t-46.5 -49.5q-23 -30 -31 -72q-14 -76 1 -83
q7 -4 22 16z" />
    <glyph glyph-name="b" unicode="b" horiz-adv-x="418" 
d="M396 239q4 4 9.5 1.5t9.5 -9t2 -10.5l-11 -20l-41 -71q-85 -139 -166 -188q-46 -29 -90 -29q-30 0 -54 12q-17 7 -24 16q-7 7 -14 30q-2 9 -13 67q-3 27 -4 79t6 143t24 173q2 14 16 50.5t37 85.5t59.5 88t74.5 43q66 8 98.5 -43.5t7.5 -96.5q-17 -31 -121 -155.5
t-115 -144.5q-6 -10 -6 -17v-109q33 63 38 72q40 63 93 68q41 4 56 -30q4 -8 7 -20q4 -24 0 -61q0 -2 -0.5 -6t-0.5 -5q-1 -13 -14.5 -63.5t-27.5 -81.5q1 2 6.5 6.5t14.5 14.5t21.5 25.5t33 44.5t43.5 67q41 66 45 74zM241 651q-15 -7 -34.5 -26.5t-46.5 -57.5t-48 -105
t-28 -149q1 1 43.5 47.5t95.5 111t80 112.5q15 26 -7.5 54.5t-54.5 12.5zM123 -62q4 1 12 11q25 37 50.5 115.5t25.5 142.5q0 25 -12 35.5t-32 -10.5q-47 -59 -57 -104q-14 -69 -18 -115q-1 -18 8 -50t23 -25z" />
    <glyph glyph-name="c" unicode="c" horiz-adv-x="302" 
d="M301 222q-1 -4 -28 -49q-4 -6 -6 -10q-6 -10 -17.5 -30t-14.5 -26l-47 -81q-15 -24 -22 -30l-1 -1q-16 -17 -38 -20q-52 -7 -85 18t-40 73q-4 31 -1 69q1 30 24.5 84t62.5 71q24 12 56 4.5t43 -31.5q6 -11 6 -22q-1 -19 -17 0q-4 5 -6 6q-14 11 -29 -1q-30 -25 -42.5 -94
t-8.5 -101q2 -23 13 -34.5t32 4.5q34 36 53 66q0 1 36 61t56 92z" />
    <glyph glyph-name="d" unicode="d" horiz-adv-x="488" 
d="M468 225q3 3 8.5 1t10 -8.5t2.5 -10.5l-5 -11q-5 -11 -12.5 -26l-18.5 -37l-22.5 -45t-25.5 -49t-27.5 -49.5t-28 -46t-27.5 -39.5q-34 -46 -64.5 -44t-42.5 49q-8 26 -8 77q2 91 23 194q-1 -1 -11 -25.5t-22.5 -47t-31 -48t-44 -39t-53.5 -9.5q-69 11 -66 92.5t66 144.5
q57 54 162 4q4 8 32.5 222.5t33.5 225.5q19 37 68 6q17 -10 8 -32q-9 -26 -40 -365t-31 -362q0 -34 166 276zM69 45q25 -12 65.5 46.5t73.5 129.5q-41 5 -82 -36t-58 -86t1 -54z" />
    <glyph glyph-name="e" unicode="e" horiz-adv-x="292" 
d="M335 241q3 3 8.5 1t10 -8.5t2.5 -11.5l-12 -20q-42 -72 -62 -108q-12 -19 -34 -57q-41 -83 -71 -108q-26 -22 -55.5 -19.5t-53 25t-42.5 56t-24 74t3 79.5q10 40 24.5 69.5t30 43t32 21.5t30 6t24.5 -3q25 -7 35 -35.5t-8 -52.5q-11 -15 -43.5 -48.5t-34.5 -36.5
q-7 -10 7 -92t35 -82q12 0 68 93l21 33q101 167 109 181zM142 245q-44 -21 -52 -107q7 5 22.5 21.5t27.5 30.5t13 15q12 16 11 25.5t-8 13.5t-14 1z" />
    <glyph glyph-name="f" unicode="f" horiz-adv-x="358" 
d="M336 227q4 4 9.5 1.5t9.5 -9t2 -10.5q-10 -17 -11 -20q-20 -34 -30 -52q-84 -129 -176 -130q11 -5 35 -22q27 -22 53 -60q35 -55 46 -109q10 -46 -6 -90.5t-58 -59.5q-36 -9 -50.5 -7t-46.5 15q-36 16 -64 69q-31 64 -41 144q-4 38 -6 94.5t-0.5 170.5t22.5 246.5
t61 247.5q20 57 74 92t111 -2q17 -11 19.5 -45.5t-10 -84.5t-36 -107.5t-60.5 -122t-81 -121.5q-6 -24 -5.5 -108t2.5 -110q53 0 94.5 19.5t86.5 77.5q13 17 33 52.5t23 40.5zM197 689q-48 -48 -99 -401q91 141 133.5 264.5t4.5 149.5q-16 10 -39 -13zM220 -270
q19 51 14.5 94t-29 80.5t-48.5 61t-45 34.5q-8 4 -8 -3q0 -8 2 -20q5 -44 23.5 -134t31.5 -116q15 -30 27 -32q5 -1 9 0.5t6.5 3.5t5.5 7t4 7.5t3.5 9t3.5 7.5z" />
    <glyph glyph-name="g" unicode="g" horiz-adv-x="429" 
d="M408 241q4 8 15 -4q7 -8 5 -14q-1 -3 -11 -20l-24 -41q-13 -20 -27 -38t-26 -29.5t-21.5 -20t-16.5 -14.5l-7 -5q-12 -9 -13 -14q19 -274 -2 -340q-11 -34 -38.5 -54.5t-62.5 -19.5h-11.5h-14h-11.5q-68 5 -93 65q-46 104 27 197q35 46 111 132l32 36q0 38 6 156
q-33 -53 -79.5 -89t-75.5 -42q-38 -7 -56 21q-10 13 -14 38q-3 53 24 105.5t77 86.5q47 30 86 23q10 -2 19 -6q27 -11 -10 -30q-1 -1 -2 -1.5t-2 -0.5q-49 -27 -82.5 -69.5t-43 -74t-1.5 -39.5q8 -7 51.5 25t63.5 52q28 26 44.5 51.5t23.5 44.5l7 20q7 11 12 13t17 -1l17 -3
q5 -1 5 -7t-5 -34q-20 -134 -20 -203l7 7q8 6 18.5 15t22.5 20.5t25 26.5t23 29zM206 -296q8 19 11 91t3 135l-1 62q-34 -32 -49 -47t-45.5 -48.5t-45.5 -62t-18 -53.5q-5 -56 34 -103q14 -16 30 -20q25 -5 48 8.5t33 37.5z" />
    <glyph glyph-name="h" unicode="h" horiz-adv-x="423" 
d="M466 241q3 4 8.5 1.5t10 -9t2.5 -10.5l-12 -20q-3 -6 -19.5 -38t-34 -64.5t-37.5 -67.5t-37 -58t-25 -26q-24 -8 -46 0.5t-34 30.5q-25 48 -31 106q-8 75 15 176q1 5 9 33t9 34q0 11 -12 2q-8 -6 -20 -20q-31 -42 -32 -44q-34 -62 -51 -136q-2 -12 0 -24q2 -8 12 -33
q6 -17 20 -49q1 -2 3 -7t2.5 -6.5t0.5 -5t-2.5 -5.5t-6.5 -4q-26 -12 -58 3q-22 12 -42 49q-9 15 -21 49.5t-25.5 93.5t-11.5 140.5t24 162.5q17 62 43 117t45.5 87.5t49 66t37.5 41t27 24.5q35 30 72 44q32 13 58.5 14.5t42 -4.5t26 -16.5t15 -20t4.5 -16.5q0 -18 -7 -43
q-26 -80 -74 -148q-3 -5 -34.5 -52t-48.5 -70q-22 -30 -67 -89t-67 -89q-25 -32 -41 -61q-8 -14 -5 -29q9 -61 14 -75q4 19 16.5 49.5t33 68t52.5 59.5t67 14q14 -3 23 -19t7 -35q-10 -125 -12 -190q-2 -24 7 -89q4 -31 14 -32q1 0 16 24t35.5 58.5t41 68.5t35.5 60t16 28z
M96 341q-1 -2 33 36.5t72 84t47 58.5q28 44 110 162q24 38 43 95q8 25 11 47q5 25 -18 34q-27 12 -62 3t-60 -34q-85 -85 -146 -296q-8 -27 -25 -133q-3 -13 -5 -57z" />
    <glyph glyph-name="i" unicode="i" horiz-adv-x="217" 
d="M97 353q-24 6 -26 33q-1 25 10 51q10 24 21 29q1 0 2 1q12 2 49 -25q24 -16 6 -46q-12 -21 -23 -33q-15 -18 -39 -10zM260 240q4 4 9.5 1.5t9.5 -9t2 -10.5q-8 -14 -12 -20q-20 -36 -62 -108q-4 -8 -7 -11q-22 -34 -51 -59t-46 -27q-38 -5 -54 5q-28 16 -45 86
q-16 64 33 198q8 18 28 11q4 -1 12 -3.5t11.5 -4t8.5 -5t8.5 -9t5.5 -13.5q1 -2 -8 -28q-1 -6 -8 -31q-8 -40 -11 -61q-5 -42 -1 -78q0 -26 9 -32q9 -5 29.5 8.5t27.5 23.5q26 31 28 40l4 5q12 20 32.5 54t32.5 54t14 23z" />
    <glyph glyph-name="j" unicode="j" horiz-adv-x="340" 
d="M189 442q-32 9 -35 26q-6 35 -1 57q7 24 9 26q6 5 12 6q14 3 38 -11q29 -18 33 -33q3 -7 -1 -17q-17 -35 -26 -45q-11 -13 -29 -9zM384 237q4 8 16 -3q8 -9 4 -15q-1 -3 -11 -20q-63 -109 -65 -111q-40 -65 -114 -116q22 -154 0 -222q-13 -38 -51.5 -67.5t-76.5 -32
t-63 26.5q-31 45 -21.5 97.5t44.5 101.5t86 86q-15 143 -16 148q-3 20 -6 69.5t1.5 114.5t21.5 83q3 3 11.5 4t16 0t18 -2.5t12.5 -1.5q22 -2 27 -13q5 -12 -6 -34q-35 -71 -29 -186q0 -10 2 -26q3 -22 11.5 -61.5t10.5 -50.5q63 44 99 102l7 12q59 99 71 117zM142 -276
q9 47 6.5 107.5t-8.5 93.5q-31 -22 -62 -73.5t-40.5 -99.5t24.5 -70q27 -13 48.5 -1t31.5 43z" />
    <glyph glyph-name="k" unicode="k" horiz-adv-x="423" 
d="M410 237q4 4 9.5 1.5t9.5 -9t2 -10.5q-8 -14 -12 -20q-56 -98 -60 -104q-18 -34 -27.5 -49.5t-22.5 -29t-25 -15.5q-6 -2 -13 0q-37 0 -71 39q-10 12 -27 34t-33.5 39t-45.5 40q3 -3 8 -113q0 -1 1.5 -8.5t1.5 -11v-9t-2.5 -9.5t-7.5 -6q-12 -6 -45.5 10.5t-38.5 30.5
q-8 22 -8 44q0 14 -2 47t-1 50q0 3 9 109q2 19 8.5 53.5t8.5 45.5q6 35 16 70.5t34.5 94t71 110.5t108.5 85q37 20 75.5 21.5t75.5 -20.5q19 -13 31 -46q18 -44 -14 -93q-19 -29 -33 -45q-60 -75 -87 -102q-52 -55 -63 -65l-35 -35q-6 -6 -34 -35t-44 -44q-4 -4 -14 -11
t-13 -10q-8 -8 -8 -47q37 -9 84 25q19 14 35 32q5 6 15 32q2 9 17 4q18 -5 14 -19q-5 -21 -37 -51q-31 -28 -90 -52q57 -47 114 -135q8 -12 13 -17l5 -5l2 -2q1 0 1 -0.5t1 -0.5q5 -1 8 -2.5t8 3.5t7.5 8.5t8 12.5t9 16t10 19t11.5 21q20 32 81 134zM120 402
q-17 -62 -17 -106q75 73 127 128q16 14 34 36q10 11 39.5 47.5t46.5 55.5q40 43 66 96q17 36 -15 57q-32 20 -73 17q-10 -2 -17 -6q-73 -51 -132 -164q-26 -49 -59 -161z" />
    <glyph glyph-name="l" unicode="l" horiz-adv-x="333" 
d="M376 237q4 3 9.5 1t9.5 -8.5t2 -11.5q-7 -10 -11 -20q-18 -30 -54 -92l-4 -6q-100 -188 -167 -212q-4 -2 -11 -4l-5 -1q-53 -15 -95 65.5t-49 225.5q-3 61 16 167q26 135 80 239q33 60 63 94q25 28 41 43t44 27t57 6q26 -6 40.5 -25t15.5 -42.5t-3 -48.5q-2 -11 -8 -29
l-8 -24q-5 -16 -36 -75q-45 -81 -58 -101q-47 -77 -129 -198q-13 -20 -15 -46q-2 -126 12 -187q7 -32 12 -39q11 -10 31 -2.5t56.5 50.5t79.5 113zM121 349q-3 -13 -8 -52t-5 -46q8 5 49.5 65.5t53.5 82.5q15 26 41 75.5t33 62.5q28 54 42 101q17 55 0 76q-15 14 -35 10.5
t-34 -16.5q-25 -23 -53 -90q-4 -10 -16 -38.5t-17 -44.5q-33 -113 -51 -186z" />
    <glyph glyph-name="m" unicode="m" horiz-adv-x="553" 
d="M597 240q4 8 15 -3q8 -8 5 -15q-1 -3 -11 -20q-42 -72 -62 -108q-10 -15 -28 -47l-3 -5q-2 -6 -23 -43.5t-52.5 -78.5t-49.5 -41q-17 0 -28.5 18t-14.5 42q-12 96 22 206q8 26 22 76q9 27 5 30q-5 4 -20 -8q-11 -9 -20 -20q-22 -25 -36 -58q-9 -23 -13 -37
q-1 -3 -3.5 -18t-5.5 -21q-8 -15 -60 -8q-6 1 -13 8t-7 12q0 87 1 98l3 27q3 17 15 75.5t15 90.5l-3 -3q-22 -21 -50 -71q-53 -91 -67 -121q-26 -51 -40 -100q-2 -8 0 -55q1 -16 -3.5 -20.5t-20.5 -2.5q-27 2 -38 10.5t-16 32.5q-19 91 -10.5 160t22 107.5t19.5 40.5
q12 4 57 -10q14 -5 9 -33q-8 -50 -13 -75q-8 -60 -7 -70q12 28 26 51q66 114 80 135q24 36 65 69q12 10 32 8t23 -18q1 -28 2 -31t-2.5 -31t-3.5 -31q-10 -86 -10 -133q4 4 11 10.5t12.5 12.5t10.5 11q33 37 88 37q28 0 31 -27q2 -39 -1 -58q-4 -30 -15 -85t-14 -75
q-2 -17 -4 -49.5t1 -38.5q3 0 23.5 37.5t44 80.5t29.5 52q12 20 32.5 54t32.5 54t14 23z" />
    <glyph glyph-name="n" unicode="n" horiz-adv-x="394" 
d="M437 240q4 4 9.5 1.5t9.5 -8.5t2 -11q-10 -17 -11 -20q-20 -33 -41 -70q-9 -16 -20 -38t-20 -42.5t-20 -45t-21 -44.5t-21.5 -40t-22.5 -32.5t-24 -22t-24.5 -8t-26.5 8.5q-44 29 -40 100t30 141t49.5 129.5t17.5 65.5q-9 9 -57 -39.5t-62 -80.5q-38 -91 -44 -126
q-1 -4 -2 -10t-1.5 -9.5t-2.5 -7t-5.5 -6t-9.5 -3.5q-7 -2 -42 -2q-12 0 -23 13q-7 8 -11 27q-6 31 1.5 124t27.5 166q7 24 29 21q3 -1 9 -1t9 -1q22 -4 28 -14t2 -34l-9 -77q-7 -58 -6 -73q77 119 156 148q34 11 55 -11q20 -23 6 -73q-78 -288 -49 -294q4 0 19.5 27
t39.5 73t38 70l59 97z" />
    <glyph glyph-name="o" unicode="o" horiz-adv-x="348" 
d="M377 240q4 8 15 -3q8 -8 5 -15q-2 -3 -5.5 -9.5t-5.5 -10.5q-30 -55 -69.5 -72.5t-72.5 -9.5q-30 -181 -121 -181q-37 0 -64.5 22.5t-39.5 56t-16.5 65t-1.5 55.5q8 54 29.5 92t48 53.5t55 21t50.5 0.5t34 -14q28 -23 34.5 -58t-3.5 -82q66 -11 100 44q25 42 28 45z
M216 163q8 31 2 67t-35 25q-20 -7 -4 -49.5t37 -42.5zM124 -30q24 -2 45 39.5t30 78t9 42.5q-28 11 -43 28.5t-26 63.5q-25 -19 -37.5 -80t-6 -115.5t28.5 -56.5z" />
    <glyph glyph-name="p" unicode="p" horiz-adv-x="368" 
d="M396 241q3 4 8.5 1.5t10 -9t2.5 -10.5q-8 -14 -12 -20l-10 -18q-50 -82 -130 -104q-30 -48 -78 -76t-97 -15q-1 -4 2 -31q0 -6 2 -18t2 -18q4 -49 7 -70q11 -70 27 -137q2 -9 -7.5 -13t-20 -3.5t-17.5 1.5q-30 6 -49 58q-39 122 -36 268q1 32 9 133.5t10 107.5
q1 5 3 16.5t3.5 18t5.5 15t11 14.5q6 5 11.5 6t8.5 0.5t10.5 -4t11.5 -4.5q2 -1 19 -9q24 -13 14 -36q-3 -6 -7 -20l-6 -21l54 40q39 29 93 22q17 -1 29.5 -16t18.5 -34q4 -13 6 -32q0 -22 -3 -40q-3 -21 -15 -56q47 22 82 68q21 36 27 45zM105 193q-9 -20 -16 -130
q4 4 8.5 7.5t10.5 6.5l10 5t12 4.5t12 3.5t13.5 3t12.5 2.5t14.5 2.5t14.5 3q23 34 34 76.5t7.5 72.5t-19.5 34q-21 5 -63.5 -33t-50.5 -58zM96 29q10 2 35 14q22 11 35 23q-49 -8 -70 -37z" />
    <glyph glyph-name="q" unicode="q" horiz-adv-x="434" 
d="M477 240q3 4 8.5 1.5t10 -9t2.5 -10.5l-12 -20l-15 -26q-15 -26 -17 -28q-28 -41 -57 -67.5t-45.5 -35.5t-60.5 -27q-8 -4 -13 -6q51 -32 81 -85.5t34 -108t-8.5 -103.5t-46.5 -78t-79 -24q-38 4 -59.5 40t-26.5 90.5t1 130t18.5 148.5t31.5 156q-1 -2 -9 -15t-19.5 -29
t-17.5 -22q-49 -51 -95 -59q-36 -6 -57.5 26.5t-24.5 73.5q-3 38 9 75q15 44 54.5 69t86.5 21q56 -9 79 -24q8 -6 5 -10q-7 -7 -21.5 -4t-41.5 -5q-36 -14 -60.5 -81.5t-6.5 -85.5q6 -6 29.5 21.5t54 69t39.5 51.5q3 3 7.5 8t6.5 7.5t6 6t6.5 5t6.5 3t8 1.5t9.5 -0.5
t11.5 -2.5q22 -6 25 -25q0 -1 0.5 -3t0.5 -3q0 -12 -2.5 -27t-7 -33t-6.5 -27l-18 -110q92 26 155 124q30 51 40 66zM320 -337q34 53 31 120t-24.5 125t-48.5 85q-9 -20 -11.5 -172.5t3.5 -163.5q7 -17 17 -18q14 -1 33 24z" />
    <glyph glyph-name="r" unicode="r" horiz-adv-x="324" 
d="M353 240q4 8 16 -3q8 -9 4 -15q-1 -3 -11 -20l-57 -98q-5 -10 -31 -58t-26 -49q-1 -1 -5 -8.5t-5.5 -9.5t-6 -8.5t-7 -9.5t-7 -8t-8 -7t-9 -4.5t-10.5 -3.5q-13 -2 -35 3.5t-29 13.5q-14 17 -20 51q-3 18 3.5 91.5t14.5 98.5q-11 6 -35 24q-31 23 -61 52q-22 20 -23 55.5
t15 56.5q13 19 33 23.5t31.5 1t20.5 -8.5q21 -12 32 -53q8 -32 -5 -75q-6 -19 -13 -30l9 -5q10 -5 20 -9.5t11 -5.5q2 -1 10 -4.5t11.5 -6t9.5 -6.5t10 -8.5t6 -9.5q5 -11 -2 -37q-3 -12 -11.5 -69.5t-7.5 -71.5q0 -16 5 -25q4 -8 10 -6q4 1 40 63t73 128t40 71zM99 258
q17 29 16.5 59t-16.5 49t-37 9q-31 -18 -16.5 -54t53.5 -63z" />
    <glyph glyph-name="s" unicode="s" horiz-adv-x="300" 
d="M319 240q4 8 15 -3q8 -8 5 -15q-1 -3 -11 -20q-9 -16 -26 -44.5t-29.5 -51t-14.5 -25.5l-44 -72q3 -5 8.5 -12.5t7.5 -12.5q25 -48 30 -72q16 -90 -45 -127q-75 -44 -117 -19q-16 9 -22.5 32t-2.5 42q3 16 19.5 47t31.5 54l15 23q-66 114 -80 140q-8 16 -16 31t-14 27
t-15 32q-20 43 -14 89.5t25 84t56 56t80 5.5q63 -18 73 -88q8 -54 -10 -95q-23 -43 -40 -35q-3 3 1 11t11 18t8 14q9 24 9 49q2 54 -42 81q-20 13 -43 10q-24 -3 -38 -17.5t-18.5 -41t7 -68.5t39.5 -96q10 -20 22.5 -41t28.5 -46.5t25 -41.5q16 21 40.5 60t50 82t34.5 56z
M196 -163q5 32 -40 99q-3 -3 -22 -27q-14 -19 -24 -40.5t-7.5 -45.5t28.5 -30q8 -2 13 -2q19 0 34 13.5t18 32.5z" />
    <glyph glyph-name="t" unicode="t" horiz-adv-x="378" 
d="M394 565q13 12 22 15.5t12 1t4 -9.5t0.5 -12t-1.5 -9q-8 -31 -63 -46.5t-106 -15.5h-51q-11 -33 -22 -135.5t-13 -162.5v-86q0 -42 3 -84q2 -28 7 -49q3 -13 6 -15t13 3q35 27 68 79q8 12 12 19l108 180q4 4 9.5 1.5t9.5 -9t2 -10.5q-10 -17 -11 -20l-63 -108
q-7 -15 -18 -32l-38 -68q-64 -103 -101 -104q-19 -1 -34.5 7t-24.5 17t-17.5 29.5t-11 29.5t-8.5 32q-7 24 -10 55.5t-3 53t0.5 61t0.5 52.5q0 38 17 139.5t23 123.5q-45 6 -74 5t-45 -21q-2 -2 -4 -5t-3 -5t-3.5 -3t-5.5 1q-8 3 -13 21q-10 32 28.5 44t82.5 7l44 -4
q9 29 19 85t17 70q6 12 12.5 16.5t15 2t15 -6.5t17.5 -11.5t17 -11.5q15 -9 16.5 -18.5t-6.5 -26.5q-10 -26 -22 -100q27 -4 86.5 6t84.5 32z" />
    <glyph glyph-name="u" unicode="u" horiz-adv-x="383" 
d="M421 241q4 3 9.5 1t9.5 -8.5t2 -10.5q-8 -14 -12 -20q-20 -36 -62 -108q-16 -28 -22 -38l-14 -24q0 -1 -1 -2q-26 -42 -42 -55t-37 -13q-64 0 -64 235q-1 -1 -8 -14.5t-16 -28.5t-24 -31.5t-30 -26.5t-35 -9.5t-39 15.5q-33 25 -35 81q-3 50 3 99q1 11 2 36t3 38
q2 11 9.5 17t14 7.5t21.5 2.5q18 1 25 -5t9 -24q1 -4 1 -12q-4 -113 -5 -172q-1 -24 8 -36t27 9q46 67 79 162q9 24 7 44q-1 23 25 28q25 5 53 -5q11 -4 11.5 -49t-5 -123t-5.5 -97q0 -4 -1 -17q-3 -60 4 -60l3 1q7 7 21 29q0 1 2 3q11 19 58.5 98.5t49.5 82.5z" />
    <glyph glyph-name="v" unicode="v" horiz-adv-x="295" 
d="M329 241q3 3 8.5 1t9.5 -8.5t2 -10.5q-4 -10 -11 -20q-10 -18 -16 -27q-26 -42 -63 -42q-19 0 -37 3q-49 -198 -53 -208q-8 -25 -31.5 -41t-49.5 -14q-35 1 -47 37q-8 26 -22.5 164t-15.5 170q-3 42 0 49q7 14 30 14.5t35 -5.5q24 -9 26 -40q22 -328 29 -328t34.5 83.5
t36.5 121.5q7 28 43 22q2 0 6 -1t6 -1q26 -6 48 29q7 12 15 24.5t12 19.5t5 8z" />
    <glyph glyph-name="w" unicode="w" horiz-adv-x="453" 
d="M466 241q4 3 9.5 1t9.5 -8.5t2 -10.5l-11 -20q-22 -37 -80 -23q-2 0 -8.5 2t-10 3t-7.5 0l-25 -227q-1 -19 -11.5 -33t-24.5 -18q-22 -5 -31 0t-22 27q-46 80 -63 190q-4 22 -8 32q-40 -127 -49 -174q-5 -23 -27 -34.5t-42 0.5q-4 3 -18.5 41t-29 88t-14.5 77
q-1 17 -3 47t-2 41.5t2 46.5q3 27 30 30q14 2 30 0q20 -1 22 -28q1 -12 3.5 -24.5t3.5 -22.5t2 -25q5 -85 14 -169q0 1 2.5 7t3.5 10q6 24 21.5 68.5t18.5 54.5q4 12 8.5 34t5.5 28q1 4 3 17t5 21.5t8 14.5q6 8 22.5 9.5t25.5 -2.5q25 -7 30 -45q2 -19 25 -145.5t26 -129.5
q-1 1 7.5 49.5t11.5 59.5q1 7 4 42.5t5 42.5q0 1 1 7t2 9t3 6.5t6 5.5q10 5 23 1q1 0 3 -0.5t3 -1.5q53 -19 67 -2q15 24 18 30z" />
    <glyph glyph-name="x" unicode="x" horiz-adv-x="337" 
d="M365 241q4 3 9.5 1t9.5 -8.5t2 -10.5l-11 -20l-63 -108l-20 -35q-40 -61 -82 -61q-11 -2 -22 0q-3 0 -7 2q-8 3 -26 19q-16 16 -24 25q-14 16 -40 58q-2 -3 -7 -11.5t-7 -11.5q-5 -9 -13.5 -22t-12 -18.5t-9 -18t-4 -20.5t1.5 -27q3 -19 -17 -24q-8 -2 -11 -1t-7 9
q-22 40 56 148l18 33q-6 14 -10.5 35.5t-7 38t-5.5 41.5t-4 35q-7 21 -2.5 44t31.5 26q15 3 33 1q26 -3 29 -26q2 -14 5 -40.5t4 -30.5l7 -47q12 13 40 45q39 47 41 50q4 4 16.5 19.5t19.5 23.5q10 16 22 10q12 -7 -5 -30q-23 -28 -51.5 -61t-46.5 -54q-18 -22 -32 -36
q-4 -6 33 -91q6 -17 20 -33q18 -18 30 -10q7 4 11 11q11 19 58.5 98.5t49.5 82.5z" />
    <glyph glyph-name="y" unicode="y" horiz-adv-x="341" 
d="M369 241q3 3 8.5 1t10 -8.5t2.5 -11.5q-4 -6 -12 -20q-28 -49 -62 -107l-33 -57q1 -13 4.5 -51.5t4.5 -64.5t0 -51q-4 -84 -29 -129q-36 -66 -82 -75q-42 -9 -76 6q-33 15 -35.5 60t10.5 82.5t30 69.5q18 32 75 113q15 22 11 53q-1 12 -1.5 74.5t-0.5 68.5
q-2 -3 -16.5 -25.5t-28 -45l-19.5 -32.5q-23 -38 -74 -24q-56 16 -56 110q0 18 11.5 74.5t20.5 75.5q1 1 5.5 13t6.5 14q18 15 46.5 5.5t22.5 -36.5q-28 -108 -30 -155q0 -25 1 -38q0 -24 6 -25q4 0 13 9q12 12 81 120q27 39 32 90l6 29q2 6 4 14q4 12 11 14q10 4 22 6
q20 4 40 -9q18 -10 12 -30l-9 -42q-10 -32 -19 -125q0 -5 -0.5 -15.5t-1.5 -15.5q-1 -8 -1 -17.5t0.5 -21t0.5 -17.5l34.5 57.5t37.5 62t16 27.5zM178 -288q43 26 43 85q0 172 -6 174q-6 -9 -25 -33.5t-25 -33.5q-33 -49 -43 -92t-4.5 -64t16.5 -33q18 -18 44 -3z" />
    <glyph glyph-name="z" unicode="z" horiz-adv-x="357" 
d="M386 241q3 3 8.5 1t10 -8.5t1.5 -11.5q-1 -3 -11 -20q-42 -72 -62 -108l-36 -61q-1 -2 -4 -7.5t-5 -8.5q10 -24 17 -59q4 -19 4 -44q3 -38 -2 -82q-4 -29 -17.5 -66t-47.5 -77t-77 -45q-32 -4 -58 9.5t-32 44.5q-15 76 65 185l79 105q3 29 -17 58q-14 21 -41 27
q-15 4 -39.5 -4t-29.5 -9q-17 -3 -28.5 9t-9.5 29q0 6 14.5 32t32 55t18.5 31l3 6q-45 -24 -68 -12q-29 14 -45 48q-21 43 6 66q17 15 42.5 8.5t37 -28.5t-2.5 -56q7 -4 24.5 -2t45.5 5.5t37 2.5q19 -2 22 -14v-8q-1 -7 -6 -14.5t-12.5 -15.5t-10.5 -12q-42 -56 -49 -73
q2 4 31.5 -4t39.5 -12q36 -16 57 -50l6 9q7 12 34.5 57t49.5 82.5t25 41.5zM63 246q11 37 -11 53q-15 9 -22 -3q-7 -15 1.5 -27.5t19.5 -18.5t12 -4zM221 -167q9 27 9 61.5t-6 48.5q-3 -2 -62 -88q-35 -50 -45 -76q-20 -48 2 -64q23 -19 49 15q38 50 53 103z" />
    <glyph glyph-name="braceleft" unicode="{" horiz-adv-x="289" 
d="M298 645q7 10 -15 18q-34 13 -90 -3q-52 -14 -78 -30q-52 -33 -44 -74q2 -7 5.5 -14.5t7 -12.5t10.5 -12l10 -10t12 -10.5t11 -9.5q48 -43 34 -80q-5 -14 -18.5 -24t-35 -20t-29.5 -15q-21 -14 -26.5 -32t13.5 -35q6 -4 36.5 -20t40.5 -29q18 -22 -12 -74
q-30 -49 -45 -81q-28 -56 -11 -95q14 -29 46.5 -36.5t59.5 8.5q1 1 13.5 7.5t23.5 13t23.5 14.5t19 15t4.5 12q-1 2 -19 11q-9 3 -42 -15q-37 -22 -52 -25q-35 -7 -31 34q4 40 31 89q40 67 45 91q6 29 -18 51q-7 7 -27 21t-27 22q26 14 36 20t27.5 20.5t23 31.5t3.5 40
q-7 56 -47 93q-33 31 -35 50t24 45q28 25 88 37q3 1 21 2.5t26 5.5q6 3 7 5z" />
    <glyph glyph-name="bar" unicode="|" horiz-adv-x="236" 
d="M100 -52q0 1 0.5 39.5t1 92.5t1 118.5t0.5 115.5v84q0 21 -0.5 87t-0.5 107.5v70.5v3q0 36 14 36q13 -1 15 -6q3 -8 4 -30q1 -15 1 -92t-0.5 -177.5t-1 -197.5t-1 -168t-0.5 -72q0 -26 -3 -31t-12 -4.5t-13 4.5q-3 3 -5 20z" />
    <glyph glyph-name="braceright" unicode="}" horiz-adv-x="324" 
d="M26 645q-6 9 15 18q34 13 91 -3q54 -16 77 -30q53 -34 44 -74q-1 -6 -3.5 -12t-7 -12t-7 -10t-9 -10t-9 -8.5t-10 -9t-9.5 -7.5q-48 -43 -35 -80q5 -14 18.5 -24t35 -20t29.5 -15q21 -13 26.5 -32t-13.5 -35q-6 -4 -36.5 -20t-40.5 -29q-17 -22 13 -74q34 -59 45 -81
q27 -58 10 -95q-14 -29 -46.5 -36.5t-58.5 8.5q-1 0 -6.5 3t-10 5.5t-12.5 7t-13.5 8t-13 8t-12.5 8.5t-9 8t-6 7.5t-1 6.5q0 2 18 11q3 3 11 0.5t11 -4t10.5 -6t9.5 -5.5q41 -23 53 -25q35 -7 31 34q-5 40 -32 89q-39 66 -44 91q-7 29 17 51q8 7 27.5 21t27.5 22
q-26 14 -36.5 20t-27.5 20.5t-22.5 31.5t-3.5 40q5 55 46 93q33 31 35 50q2 21 -24 45q-28 26 -88 37q-3 1 -21 2.5t-26 5.5q-6 3 -7 5z" />
    <glyph glyph-name="asciitilde" unicode="~" horiz-adv-x="377" 
d="M125 311q1 -1 3 -5q3 -4 7.5 -11t8.5 -12.5t8 -9.5q21 -23 47 -33q15 -7 37 -3.5t35 15.5q32 30 47 63q10 26 9 29q-2 6 -9 9t-12 0q-4 -2 -15 -24q-4 -8 -11.5 -18.5t-20 -21.5t-21.5 -9q-11 3 -31 25q-5 6 -13.5 19t-13.5 18q-15 17 -41 15q-27 -1 -52 -19t-34 -44
q-5 -9 -3 -23t16 -11q6 1 10 6t7 15t4 12q10 19 20 24q11 6 18 -6z" />
    <glyph glyph-name="exclamdown" unicode="&#xa1;" horiz-adv-x="141" 
d="M99 423q10 10 11 12q4 6 -1 23q0 1 -2.5 9.5t-3.5 11.5t-5 7.5t-10 6.5t-17.5 -1t-15.5 -8q-2 -4 -3 -11.5t-1 -17v-12.5q-3 -20 17 -22q18 -4 31 2zM55 315q0 -2 -6.5 -118t-13.5 -233.5t-9 -124.5q-3 -20 5 -40q7 -17 33.5 -27t38.5 -1q6 4 8 21q5 61 5.5 225t-1.5 191
q-1 30 -2 43.5t-6.5 32.5t-17.5 32q-19 22 -31 6z" />
    <glyph glyph-name="cent" unicode="&#xa2;" horiz-adv-x="360" 
d="M277 327q17 8 14 23q0 1 -2 13.5t-4 18.5q-12 36 -42 42q-3 1 -17 6l-3 48q-4 30 -27 37q-4 0 -7.5 0.5t-5 -2.5l-2.5 -5t-1.5 -6.5t0 -7.5t0.5 -7.5v-6.5v-52l-8 -2q-8 -2 -17 -4t-21.5 -7.5t-23.5 -12.5t-22 -19t-18 -26q-36 -76 -7 -151q10 -25 24 -40q29 -30 71 -38
q7 -1 21 -5q1 -8 3.5 -27t4.5 -29q2 -14 4 -22q6 -16 21 -17.5t11 19.5q-8 35 -1 79q22 3 45 26q20 22 41 83q9 26 -7 26q-7 -1 -19 -26.5t-28 -51.5t-34 -28q-2 7 2.5 117.5t5.5 113.5q10 0 15.5 -6.5t7 -13.5t2 -16.5t0.5 -10.5q2 -6 10.5 -10.5t13.5 -1.5zM179 375
q2 -6 2.5 -30t0 -47t-2 -54.5t-1.5 -38.5v-16.5v-19.5v-18l-10 6q-27 15 -39 60t0.5 92.5t49.5 65.5z" />
    <glyph glyph-name="sterling" unicode="&#xa3;" horiz-adv-x="503" 
d="M335 414q12 -11 27 -4q9 7 10 10q6 16 7.5 40.5t-3 53t-26.5 48.5t-59 20q-73 3 -115 -33q-67 -56 -63 -142q1 -45 29 -128q-4 -1 -28 -3t-46 -5t-27 -8q-4 -4 4.5 -15t26 -19t35.5 -3q11 0 24.5 2t21.5 1q11 -35 12.5 -65t-3 -50t-16 -39t-20.5 -28t-23 -21t-16 -14
q-1 -1 -5 -12q20 -28 30 -43q12 3 45 22.5t39 18.5q17 -17 44 -30.5t66.5 -21t84.5 17.5t82 84q6 10 10 27q1 10 -3.5 14t-18.5 7q-1 -1 -6.5 -10t-9.5 -13l-8 -10q-8 -10 -14.5 -17.5t-19 -18.5t-25 -18t-30 -12.5t-34.5 -4.5t-38.5 9.5t-43.5 25.5l5 9q5 8 12 26t11.5 42
t1 61t-17.5 76q4 1 18.5 5t27 7.5t25.5 8.5t20 10.5t5 11.5q-6 16 -22.5 18.5t-50.5 -3t-47 -6.5q-3 9 -9.5 31t-10.5 34q-21 67 18 138q18 36 61 45q29 4 45 -10.5t17 -41.5t-0.5 -42.5t-5.5 -32.5z" />
    <glyph glyph-name="yen" unicode="&#xa5;" horiz-adv-x="410" 
d="M160 -32q0 -21 20.5 -30t41 -0.5t20.5 29.5v126q3 0 14.5 -0.5t20.5 0t19 2t16 7t6 14.5t-29 14t-47 3q-1 60 0 90q8 1 33 -1t41 2t20 19q4 18 -16.5 22.5t-43 0.5t-32.5 2q-8 128 1 139q26 31 74 95q28 36 41 54q2 3 10 11.5t11.5 13t6 13t1.5 16.5q-3 14 -30 41
q-4 4 -8.5 4.5t-9.5 -2.5t-10 -6.5t-10 -9.5t-8.5 -10.5t-8 -10t-5.5 -6.5l-50 -66q-53 -72 -65 -90q-4 2 -54 79.5t-65 87.5q-14 9 -23 -6q-8 -16 8 -40q19 -27 55 -88.5t47 -78.5v-142q-2 -1 -37 -1q-1 0 -7 0.5t-10 0.5h-10.5t-11 -0.5t-10 -1.5t-8.5 -3.5t-5 -6t-2 -9
t3 -11.5q3 -7 15.5 -10.5t25.5 -3.5h31h22q5 -85 5 -91q-3 0 -16 0.5t-25.5 0t-25.5 -2.5t-21 -7.5t-8 -15.5q0 -14 56 -14h37q0 -10 5 -60.5t5 -61.5z" />
    <glyph glyph-name="dieresis" unicode="&#xa8;" horiz-adv-x="220" 
d="M48 720q-18 -7 -21 -24q-9 -30 13 -45q6 -3 17 -3t16 4q16 14 12 46q-3 13 -14 19q-15 5 -23 3zM172 647q17 6 21 23q7 32 -13 45q-5 4 -16.5 4t-16.5 -4q-16 -13 -12 -46q5 -14 14 -19q13 -6 23 -3z" />
    <glyph glyph-name="copyright" unicode="&#xa9;" horiz-adv-x="529" 
d="M245 484q-46 1 -94 -18q-56 -23 -85 -91q-15 -34 -16 -64q-2 -77 22 -131q25 -53 46 -71q39 -33 91 -49.5t96 -3.5q85 26 137 96t32 155q-12 50 -73 118q-1 0 -4 2.5t-4 4.5q-55 49 -148 52zM127 400q25 29 56 44q68 36 135 -0.5t103 -107.5q49 -98 -11 -181t-169 -72
q-25 3 -53.5 19t-45.5 36q-49 57 -55.5 129t40.5 133zM319 372q2 3 2 15.5t-5 29.5t-13 24q-15 13 -33 7q-25 -9 -46 -41q-34 -50 -39 -131q-7 -119 25 -158q29 -33 62 -28q28 5 39 39q9 20 -3 22q-2 0 -4 -2t-3.5 -6.5t-1.5 -5.5q-8 -19 -10 -21q-9 -11 -21 -6q-3 1 -7 7
q-14 24 -20 74q-4 31 -4 68q0 67 20 118q14 31 23 39q10 8 18 3q6 -3 9 -26q0 -2 0.5 -7t1.5 -7q1 -7 6 -8q3 0 4 1z" />
    <glyph glyph-name="registered" unicode="&#xae;" horiz-adv-x="529" 
d="M474 307q20 -85 -32 -155t-137 -96q-44 -13 -96 3.5t-91 49.5q-21 18 -46 71q-24 51 -22 131q1 30 16 64q29 68 85 91q48 19 94 18q92 -3 147 -52q2 -2 5 -4t4 -3q61 -68 73 -118zM348 102q63 32 85 96.5t-13 137.5q-35 71 -102 107.5t-135 0.5q-31 -15 -56 -44
q-47 -61 -40.5 -133t55.5 -129q17 -20 45.5 -36t53.5 -19q50 -5 91 12l-6 3q-16 12 -32.5 58.5t-30.5 88t-26 44.5q0 -22 -3 -79v-64q0 -19 -1 -28t-15 -9.5t-21 4.5q-9 4 -9 23q0 18 5 131t5 139q0 31 15 34q6 1 15.5 1.5t12.5 0.5q49 1 71.5 -8.5t26.5 -42.5
q1 -12 -3.5 -31.5t-26 -41t-55.5 -24.5q18 -13 46.5 -99t47.5 -93zM238 303q47 0 66 40.5t4 69.5q-5 10 -22 15t-29 4t-14 -2q0 -4 -0.5 -22t-1.5 -25z" />
    <glyph glyph-name="macron" unicode="&#xaf;" horiz-adv-x="402" 
d="M348 692q-8 2 -13 2q-81 6 -119 7q-17 1 -50 1t-49 1q-8 0 -13.5 -0.5t-14.5 -2t-11.5 -5t-5 -9.5t5.5 -15q3 -4 6.5 -6.5t9 -3.5t9 -1t10.5 0.5t10 0.5l101 3q11 1 33 1t38.5 1t31.5 5q21 4 21 21z" />
    <glyph glyph-name="degree" unicode="&#xb0;" horiz-adv-x="236" 
d="M186 579q3 29 -17 48q-24 23 -49 22q-12 0 -23 -6q-21 -9 -36 -33q-13 -21 -10.5 -47t20.5 -43q19 -15 44 -13.5t43 18.5q25 23 28 54zM94 545q-11 5 -13 22t3 27q4 12 14.5 21t22.5 8q17 -2 25 -13.5t2 -27.5q-5 -14 -20.5 -27.5t-29.5 -10.5z" />
    <glyph glyph-name="acute" unicode="&#xb4;" 
d="M4 573q4 -1 10 2q3 2 56 37q23 13 39 40q4 8 0.5 13.5t-13.5 3.5q-3 1 -14 -6q-50 -39 -67 -51l-10 -13q-4 -9 -4 -19q-2 -4 3 -7z" />
    <glyph glyph-name="cedilla" unicode="&#xb8;" horiz-adv-x="197" 
d="M172 -81q0 16 -6 26.5t-14 14.5t-19 6t-19 1l-16 -2l-8 -1q1 1 5 7t8.5 12.5t9 14t7 13t1.5 6.5q-4 4 -21 8q-17 5 -40 -38t-13 -53l3 -4q4 -3 7.5 -4.5t7.5 -0.5t18.5 7.5t23.5 8.5q17 4 25.5 -8t0.5 -25q-21 -31 -69 -33q-5 -1 -30 2q-8 0 -9 -4q0 -2 0.5 -6t0.5 -6
q2 -10 7 -15q10 -12 61 -8q29 3 53.5 31t24.5 50z" />
    <glyph glyph-name="questiondown" unicode="&#xbf;" horiz-adv-x="406" 
d="M216 474q3 1 4 6q6 12 6 20q-3 20 -23 31q-32 16 -43 -34q-4 -13 -1 -19q7 -17 43 -8q11 2 14 4zM166 349q0 -5 1 -8q1 -5 11.5 -15t12.5 -15q5 -12 5 -25q1 -41 -27 -106q-40 -99 -59 -155q-14 -37 -27 -78q-17 -41 -0.5 -87.5t59.5 -58.5q71 -22 136 32q34 28 48 63
q9 21 0 30q-5 5 -10.5 6t-10.5 -4l-8.5 -8.5t-8 -11t-5.5 -8.5q-19 -26 -55 -49q-40 -25 -62 -12q-20 12 -24 40.5t6 47.5q1 2 40.5 94.5t43.5 103.5l13 32.5t13.5 36t9.5 33.5t5 36q2 40 -20 69q-6 9 -24 18t-30 10q-30 0 -33 -11z" />
    <glyph glyph-name="Agrave" unicode="&#xc0;" horiz-adv-x="394" 
d="M200 800q-1 -4 3 -11q7 -10 20 -28t18 -26q13 -20 42 -37q8 -4 13.5 0t3.5 13q0 5 -7 14l-54 66q-2 2 -7 5t-6 4q-11 3 -19 3q-7 2 -7 -3zM262 690q6 3 10.5 3h6.5t9.5 -3.5t11.5 -4.5q32 -12 32 -46q0 -23 1.5 -69.5t2.5 -70.5q12 -322 25 -527q0 -1 2 -20.5t1 -33.5
t-6 -18q-10 -6 -30.5 -7t-30.5 4q-21 10 -24 64q-8 136 -14 325q-9 -2 -100 -33q-82 -328 -96 -337q-10 -6 -35 -7.5t-28 8.5q-1 5 18.5 68t42 140t27.5 109q-29 -12 -32 4q-3 15 17 23l18 7q2 2 38 98.5t74.5 198t44.5 112.5q5 8 14 13zM258 318q2 36 1.5 106.5t2.5 156.5
l-92 -288z" />
    <glyph glyph-name="Aacute" unicode="&#xc1;" horiz-adv-x="394" 
d="M224 714q4 -1 10 2q4 2 56 37q23 13 39 40q4 8 0.5 13.5t-13.5 3.5q-3 1 -14 -6q-50 -39 -67 -51l-10 -13q-4 -9 -4 -19q-2 -4 3 -7zM262 690q6 3 10.5 3h6.5t9.5 -3.5t11.5 -4.5q32 -12 32 -46q0 -23 1.5 -69.5t2.5 -70.5q12 -322 25 -527q0 -1 2 -20.5t1 -33.5t-6 -18
q-10 -6 -30.5 -7t-30.5 4q-21 10 -24 64q-8 136 -14 325q-9 -2 -100 -33q-82 -328 -96 -337q-10 -6 -35 -7.5t-28 8.5q-1 5 18.5 68t42 140t27.5 109q-29 -12 -32 4q-3 15 17 23l18 7q2 2 38 98.5t74.5 198t44.5 112.5q5 8 14 13zM258 318q2 36 1.5 106.5t2.5 156.5
l-92 -288z" />
    <glyph glyph-name="Acircumflex" unicode="&#xc2;" horiz-adv-x="394" 
d="M282 816q-7 4 -19 -3q-2 -1 -51 -86q-11 -21 -2 -27q8 -5 15 10q25 53 40 75q13 -36 21 -52q1 -1 4 -10.5t6 -12.5q4 -5 10 -5.5t11 2.5t6 9q1 7 -8 25l-10 28q-12 28 -14 35q-5 8 -9 12zM262 690q6 3 10.5 3h6.5t9.5 -3.5t11.5 -4.5q32 -12 32 -46q0 -23 1.5 -69.5
t2.5 -70.5q12 -322 25 -527q0 -1 2 -20.5t1 -33.5t-6 -18q-10 -6 -30.5 -7t-30.5 4q-21 10 -24 64q-8 136 -14 325q-9 -2 -100 -33q-82 -328 -96 -337q-10 -6 -35 -7.5t-28 8.5q-1 5 18.5 68t42 140t27.5 109q-29 -12 -32 4q-3 15 17 23l18 7q2 2 38 98.5t74.5 198
t44.5 112.5q5 8 14 13zM258 318q2 36 1.5 106.5t2.5 156.5l-92 -288z" />
    <glyph glyph-name="Atilde" unicode="&#xc3;" horiz-adv-x="394" 
d="M205 790q1 -1 3 -5l24 -33q21 -23 47 -33q15 -7 37 -3.5t35 15.5q32 30 47 63q10 26 9 29q-2 6 -9 9t-12 0q-4 -2 -15 -24q-4 -8 -11.5 -18.5t-20 -21.5t-21.5 -9q-11 3 -31 25q-5 6 -13.5 19t-13.5 18q-15 17 -41 15q-27 -1 -52 -19t-34 -44q-5 -9 -3 -23t16 -11
q6 1 10 6t7 15t4 12q10 19 20 24q11 6 18 -6zM262 690q6 3 10.5 3h6.5t9.5 -3.5t11.5 -4.5q32 -12 32 -46q0 -23 1.5 -69.5t2.5 -70.5q12 -322 25 -527q0 -1 2 -20.5t1 -33.5t-6 -18q-10 -6 -30.5 -7t-30.5 4q-21 10 -24 64q-8 136 -14 325q-9 -2 -100 -33
q-82 -328 -96 -337q-10 -6 -35 -7.5t-28 8.5q-1 5 18.5 68t42 140t27.5 109q-29 -12 -32 4q-3 15 17 23l18 7q2 2 38 98.5t74.5 198t44.5 112.5q5 8 14 13zM258 318q2 36 1.5 106.5t2.5 156.5l-92 -288z" />
    <glyph glyph-name="Adieresis" unicode="&#xc4;" horiz-adv-x="394" 
d="M201 799q-18 -7 -21 -24q-9 -30 13 -45q6 -3 17 -3t16 4q16 14 12 46q-3 13 -14 19q-15 5 -23 3zM325 726q17 6 21 23q7 32 -13 45q-5 4 -16.5 4t-16.5 -4q-16 -13 -12 -46q5 -14 14 -19q13 -6 23 -3zM262 690q6 3 10.5 3h6.5t9.5 -3.5t11.5 -4.5q32 -12 32 -46
q0 -23 1.5 -69.5t2.5 -70.5q12 -322 25 -527q0 -1 2 -20.5t1 -33.5t-6 -18q-10 -6 -30.5 -7t-30.5 4q-21 10 -24 64q-8 136 -14 325q-9 -2 -100 -33q-82 -328 -96 -337q-10 -6 -35 -7.5t-28 8.5q-1 5 18.5 68t42 140t27.5 109q-29 -12 -32 4q-3 15 17 23l18 7q2 2 38 98.5
t74.5 198t44.5 112.5q5 8 14 13zM258 318q2 36 1.5 106.5t2.5 156.5l-92 -288z" />
    <glyph glyph-name="Aring" unicode="&#xc5;" horiz-adv-x="394" 
d="M349 774q2 23 -14 37q-16 18 -39 18q-10 0 -18 -5q-18 -8 -29 -26q-11 -15 -9 -35.5t17 -33.5q15 -12 35 -10.5t34 14.5q20 17 23 41zM275 748q-8 4 -10 17t2 21q8 24 30 22q14 -1 20 -9.5t1 -21.5q-3 -11 -16 -22t-23 -8zM262 690q6 3 10.5 3h6.5t9.5 -3.5t11.5 -4.5
q32 -12 32 -46q0 -23 1.5 -69.5t2.5 -70.5q12 -322 25 -527q0 -1 2 -20.5t1 -33.5t-6 -18q-10 -6 -30.5 -7t-30.5 4q-21 10 -24 64q-8 136 -14 325q-9 -2 -100 -33q-82 -328 -96 -337q-10 -6 -35 -7.5t-28 8.5q-1 5 18.5 68t42 140t27.5 109q-29 -12 -32 4q-3 15 17 23l18 7
q2 2 38 98.5t74.5 198t44.5 112.5q5 8 14 13zM258 318q2 36 1.5 106.5t2.5 156.5l-92 -288z" />
    <glyph glyph-name="AE" unicode="&#xc6;" horiz-adv-x="580" 
d="M557 659q10 -21 -22 -25q-19 -2 -53 -3.5t-42 -1.5q-61 -3 -69 -2l-3 -57q-5 -38 -6 -74q-4 -71 -3 -73q0 -2 8 -2.5t20 -0.5t23.5 0.5t21.5 1t12 0.5q28 0 29 -14q0 -15 -22 -20t-92 -7q-1 -10 -3 -28t-3 -30q-3 -52 -1 -122t6 -156t4 -89q6 1 12 1q22 4 61 14.5
t55 14.5q15 4 25 -1t0 -19q-6 -7 -34 -18q-14 -5 -40.5 -11t-37.5 -10q-6 -2 -40.5 -16t-44.5 -14q-12 -3 -22 1l-12 3q-27 13 -34 64q-12 101 -5 322q-23 -7 -86 -29q-82 -329 -96 -338q-10 -6 -35 -7.5t-28 8.5q-1 5 18.5 68t42 140.5t27.5 109.5q-1 0 -3 -1q-26 -9 -29 5
q-4 16 17 23q16 6 18 8q2 1 38.5 98t75 198.5t44.5 112.5q5 10 14 13q6 3 10.5 3.5t7 0t9 -3.5t11.5 -4q17 -6 105.5 -16t113.5 -8q32 3 37 -9zM244 321q4 58 11 266l-85 -289z" />
    <glyph glyph-name="Ccedilla" unicode="&#xc7;" horiz-adv-x="312" 
d="M294 670q16 -16 25 -54t8.5 -69t-6.5 -33q-2 -1 -10 -1q-11 2 -12 17q-1 6 -1 17t-1 16q0 1 -1.5 13t-2.5 18.5t-4.5 15t-8.5 12.5q-17 12 -40 -6q-24 -18 -55 -83q-52 -108 -62 -260q-4 -60 0 -150q8 -114 36 -169q9 -13 14 -16q26 -12 47 10q9 9 27 46q1 2 3.5 9
t4.5 11.5t5.5 8t8.5 2.5q8 -2 12 -6t3.5 -10t-2.5 -11t-5.5 -12.5t-4.5 -9.5q-31 -75 -92 -83h-5l-22 -33l8 1l16 2t19 -1t19 -6t14 -14.5t6 -26.5q0 -22 -24.5 -50t-53.5 -31q-51 -4 -61 8q-5 5 -7 15q0 2 -0.5 6t-0.5 6q1 4 9 4q25 -3 30 -2q48 2 69 33q8 13 -0.5 25
t-25.5 8q-9 -2 -23.5 -8.5t-18.5 -7.5t-7.5 0.5t-6.5 4.5l-4 4q-6 6 2 27.5t21 41.5q-50 16 -87 65q-66 88 -36 354q4 28 12 67.5t33 107t58 111.5q51 68 109 86q39 13 72 -20z" />
    <glyph glyph-name="Egrave" unicode="&#xc8;" horiz-adv-x="323" 
d="M85 820q-1 -4 3 -11q7 -10 20 -28t18 -26q13 -20 42 -37q8 -4 13.5 0t3.5 13q0 5 -7 14l-54 66q-2 2 -7 5t-6 4q-11 3 -19 3q-7 2 -7 -3zM340 689q10 -21 -23 -25q-18 -2 -52.5 -3.5t-42.5 -1.5q-59 -3 -68 -2q0 -8 -0.5 -17.5t-1.5 -21.5t-1 -18q-1 -9 -2.5 -23.5
t-2.5 -27t-1 -23.5q-3 -70 -3 -72q0 -3 18.5 -3.5t42 1t24.5 1.5q27 0 28 -14t-21 -20q-31 -7 -92 -7q-1 -10 -3 -28t-3 -30q-19 -195 -23 -304q0 -10 -1.5 -31t-1.5 -31q2 0 5 0.5t5 1.5h2q23 4 65 15t50 13q15 4 25.5 -1t-0.5 -19q-5 -7 -33 -18q-14 -5 -40.5 -11
t-37.5 -10q-14 -5 -44 -13t-45 -13q-48 -17 -57 10q-3 12 -3 15q-3 24 -1 74q9 253 21 335q3 24 10.5 88t13.5 115t8 62q4 31 20 50q8 10 46 10q43 0 64 1q100 3 118 4q32 3 38 -8z" />
    <glyph glyph-name="Eacute" unicode="&#xc9;" horiz-adv-x="323" 
d="M157 717q4 -1 10 2q3 2 56 37q23 13 39 40q4 8 0.5 13.5t-13.5 3.5q-3 1 -14 -6q-50 -39 -67 -51l-10 -13q-4 -9 -4 -19q-2 -4 3 -7zM340 689q10 -21 -23 -25q-18 -2 -52.5 -3.5t-42.5 -1.5q-59 -3 -68 -2q0 -8 -0.5 -17.5t-1.5 -21.5t-1 -18q-1 -9 -2.5 -23.5t-2.5 -27
t-1 -23.5q-3 -70 -3 -72q0 -3 18.5 -3.5t42 1t24.5 1.5q27 0 28 -14t-21 -20q-31 -7 -92 -7q-1 -10 -3 -28t-3 -30q-19 -195 -23 -304q0 -10 -1.5 -31t-1.5 -31q2 0 5 0.5t5 1.5h2q23 4 65 15t50 13q15 4 25.5 -1t-0.5 -19q-5 -7 -33 -18q-14 -5 -40.5 -11t-37.5 -10
q-14 -5 -44 -13t-45 -13q-48 -17 -57 10q-3 12 -3 15q-3 24 -1 74q9 253 21 335q3 24 10.5 88t13.5 115t8 62q4 31 20 50q8 10 46 10q43 0 64 1q100 3 118 4q32 3 38 -8z" />
    <glyph glyph-name="Ecircumflex" unicode="&#xca;" horiz-adv-x="323" 
d="M196 833q-7 4 -19 -3q-2 -1 -51 -86q-11 -21 -2 -27q8 -5 15 10q25 53 40 75q13 -36 21 -52q1 -1 4 -10.5t6 -12.5q4 -5 10 -5.5t11 2.5t6 9q1 7 -8 25l-10 28q-12 28 -14 35q-5 7 -9 12zM340 689q10 -21 -23 -25q-18 -2 -52.5 -3.5t-42.5 -1.5q-59 -3 -68 -2
q0 -8 -0.5 -17.5t-1.5 -21.5t-1 -18q-1 -9 -2.5 -23.5t-2.5 -27t-1 -23.5q-3 -70 -3 -72q0 -3 18.5 -3.5t42 1t24.5 1.5q27 0 28 -14t-21 -20q-31 -7 -92 -7q-1 -10 -3 -28t-3 -30q-19 -195 -23 -304q0 -10 -1.5 -31t-1.5 -31q2 0 5 0.5t5 1.5h2q23 4 65 15t50 13
q15 4 25.5 -1t-0.5 -19q-5 -7 -33 -18q-14 -5 -40.5 -11t-37.5 -10q-14 -5 -44 -13t-45 -13q-48 -17 -57 10q-3 12 -3 15q-3 24 -1 74q9 253 21 335q3 24 10.5 88t13.5 115t8 62q4 31 20 50q8 10 46 10q43 0 64 1q100 3 118 4q32 3 38 -8z" />
    <glyph glyph-name="Edieresis" unicode="&#xcb;" horiz-adv-x="323" 
d="M103 802q-18 -7 -21 -24q-9 -30 13 -45q6 -3 17 -3t16 4q16 14 12 46q-3 13 -14 19q-15 5 -23 3zM227 729q17 6 21 23q7 32 -13 45q-5 4 -16.5 4t-16.5 -4q-16 -13 -12 -46q5 -14 14 -19q13 -6 23 -3zM340 689q10 -21 -23 -25q-18 -2 -52.5 -3.5t-42.5 -1.5
q-59 -3 -68 -2q0 -8 -0.5 -17.5t-1.5 -21.5t-1 -18q-1 -9 -2.5 -23.5t-2.5 -27t-1 -23.5q-3 -70 -3 -72q0 -3 18.5 -3.5t42 1t24.5 1.5q27 0 28 -14t-21 -20q-31 -7 -92 -7q-1 -10 -3 -28t-3 -30q-19 -195 -23 -304q0 -10 -1.5 -31t-1.5 -31q2 0 5 0.5t5 1.5h2q23 4 65 15
t50 13q15 4 25.5 -1t-0.5 -19q-5 -7 -33 -18q-14 -5 -40.5 -11t-37.5 -10q-14 -5 -44 -13t-45 -13q-48 -17 -57 10q-3 12 -3 15q-3 24 -1 74q9 253 21 335q3 24 10.5 88t13.5 115t8 62q4 31 20 50q8 10 46 10q43 0 64 1q100 3 118 4q32 3 38 -8z" />
    <glyph glyph-name="Igrave" unicode="&#xcc;" horiz-adv-x="287" 
d="M60 808q-1 -4 3 -11q7 -10 20 -28t18 -26q13 -20 42 -37q8 -4 13.5 0t3.5 13q0 5 -7 14l-54 66q-2 2 -7 5t-6 4q-11 3 -19 3q-7 2 -7 -3zM281 -73q12 0 28 -5.5t13 -18.5q-1 -4 -6.5 -7t-14.5 -3.5t-16.5 -0.5t-15.5 0.5t-9 0.5q-20 0 -97 -2t-97 0q-53 5 -61 13
q-18 19 24 24q25 3 45 1q4 0 13 -1t13 -1q-1 35 0 59q2 41 3 115.5t2 98.5l6 148q1 13 1 39.5v39.5q1 25 3 76.5t4 98t2 53.5q-4 0 -21 1t-24 0q-2 0 -11.5 -1t-16 -0.5t-10.5 4.5q-5 4 -5 12.5t4 13.5q7 9 49 5q17 -1 46 -1h12q7 0 10 -1h5l53 1q52 1 52 -1
q12 -1 18.5 -7.5t-1.5 -18.5q-3 -4 -8.5 -5t-14 0.5t-11.5 1.5q-9 0 -19 -1.5t-14 -1.5q1 -2 0.5 -22t-1.5 -41.5t0 -38.5q3 -37 2 -68q-6 -219 -6 -221q0 -15 -0.5 -91t-1 -143.5t-2.5 -81.5q-1 -4 -1.5 -12t-0.5 -12q69 3 78 2z" />
    <glyph glyph-name="Iacute" unicode="&#xcd;" horiz-adv-x="287" 
d="M116 711q4 -1 10 2q3 2 56 37q23 13 39 40q4 8 0.5 13.5t-13.5 3.5q-3 1 -14 -6q-50 -39 -67 -51l-10 -13q-4 -9 -4 -19q-2 -4 3 -7zM281 -73q12 0 28 -5.5t13 -18.5q-1 -4 -6.5 -7t-14.5 -3.5t-16.5 -0.5t-15.5 0.5t-9 0.5q-20 0 -97 -2t-97 0q-53 5 -61 13
q-18 19 24 24q25 3 45 1q4 0 13 -1t13 -1q-1 35 0 59q2 41 3 115.5t2 98.5l6 148q1 13 1 39.5v39.5q1 25 3 76.5t4 98t2 53.5q-4 0 -21 1t-24 0q-2 0 -11.5 -1t-16 -0.5t-10.5 4.5q-5 4 -5 12.5t4 13.5q7 9 49 5q17 -1 46 -1h12q7 0 10 -1h5l53 1q52 1 52 -1
q12 -1 18.5 -7.5t-1.5 -18.5q-3 -4 -8.5 -5t-14 0.5t-11.5 1.5q-9 0 -19 -1.5t-14 -1.5q1 -2 0.5 -22t-1.5 -41.5t0 -38.5q3 -37 2 -68q-6 -219 -6 -221q0 -15 -0.5 -91t-1 -143.5t-2.5 -81.5q-1 -4 -1.5 -12t-0.5 -12q69 3 78 2z" />
    <glyph glyph-name="Icircumflex" unicode="&#xce;" horiz-adv-x="287" 
d="M163 825q-7 4 -19 -3q-2 -1 -51 -86q-11 -21 -2 -27q8 -2 15 10q25 53 40 75q13 -36 21 -52q1 -1 4 -10.5t6 -12.5q4 -5 10 -5.5t11 2.5t6 9q1 7 -8 25l-10 28q-12 28 -14 35q-4 7 -9 12zM281 -73q12 0 28 -5.5t13 -18.5q-1 -4 -6.5 -7t-14.5 -3.5t-16.5 -0.5t-15.5 0.5
t-9 0.5q-20 0 -97 -2t-97 0q-53 5 -61 13q-18 19 24 24q25 3 45 1q4 0 13 -1t13 -1q-1 35 0 59q2 41 3 115.5t2 98.5l6 148q1 13 1 39.5v39.5q1 25 3 76.5t4 98t2 53.5q-4 0 -21 1t-24 0q-2 0 -11.5 -1t-16 -0.5t-10.5 4.5q-5 4 -5 12.5t4 13.5q7 9 49 5q17 -1 46 -1h12
q7 0 10 -1h5l53 1q52 1 52 -1q12 -1 18.5 -7.5t-1.5 -18.5q-3 -4 -8.5 -5t-14 0.5t-11.5 1.5q-9 0 -19 -1.5t-14 -1.5q1 -2 0.5 -22t-1.5 -41.5t0 -38.5q3 -37 2 -68q-6 -219 -6 -221q0 -15 -0.5 -91t-1 -143.5t-2.5 -81.5q-1 -4 -1.5 -12t-0.5 -12q69 3 78 2z" />
    <glyph glyph-name="Idieresis" unicode="&#xcf;" horiz-adv-x="287" 
d="M76 797q-18 -7 -21 -24q-9 -30 13 -45q6 -3 17 -3t16 4q16 14 12 46q-3 13 -14 19q-15 5 -23 3zM200 724q17 6 21 23q7 32 -13 45q-5 4 -16.5 4t-16.5 -4q-16 -13 -12 -46q5 -14 14 -19q13 -6 23 -3zM281 -73q12 0 28 -5.5t13 -18.5q-1 -4 -6.5 -7t-14.5 -3.5t-16.5 -0.5
t-15.5 0.5t-9 0.5q-20 0 -97 -2t-97 0q-53 5 -61 13q-18 19 24 24q25 3 45 1q4 0 13 -1t13 -1q-1 35 0 59q2 41 3 115.5t2 98.5l6 148q1 13 1 39.5v39.5q1 25 3 76.5t4 98t2 53.5q-4 0 -21 1t-24 0q-2 0 -11.5 -1t-16 -0.5t-10.5 4.5q-5 4 -5 12.5t4 13.5q7 9 49 5
q17 -1 46 -1h12q7 0 10 -1h5l53 1q52 1 52 -1q12 -1 18.5 -7.5t-1.5 -18.5q-3 -4 -8.5 -5t-14 0.5t-11.5 1.5q-9 0 -19 -1.5t-14 -1.5q1 -2 0.5 -22t-1.5 -41.5t0 -38.5q3 -37 2 -68q-6 -219 -6 -221q0 -15 -0.5 -91t-1 -143.5t-2.5 -81.5q-1 -4 -1.5 -12t-0.5 -12
q69 3 78 2z" />
    <glyph glyph-name="Eth" unicode="&#xd0;" horiz-adv-x="347" 
d="M353 514q39 -138 -33 -306q-1 -2 -10.5 -23.5t-16.5 -36.5t-20.5 -42.5t-25.5 -48t-28.5 -46.5t-32.5 -44.5t-35 -34t-37 -23.5q-21 -12 -57.5 -9.5t-47.5 29.5q-9 25 -9 101v152q0 33 2 101q-22 0 -30 14q-24 38 31 40q1 15 2 44t2 43q4 80 7 120q1 18 5 53t5 52
q0 8 3 21.5t4 16.5q1 5 28.5 7.5t69.5 -4t86 -23t83 -56.5t55 -97zM108 -46q99 84 159 217.5t60 252.5q0 109 -78 182q-5 5 -10.5 9t-10 7t-11.5 5.5t-10 4t-11.5 3.5t-11 2.5t-12.5 2t-11 1.5t-12.5 1t-12.5 1q-10 1 -16 -1t-8 -9t-2.5 -11.5t0 -17t0.5 -16.5
q0 -32 -3 -97.5t-3 -97.5v-57q3 0 11 -0.5t13 -0.5q87 -3 120 -6q6 0 16 -2q0 -22 -26 -28q-35 -8 -99 -11q-6 0 -17.5 -0.5t-16.5 -1.5q0 -48 4 -146q1 -16 -2 -93q0 -77 1 -93z" />
    <glyph glyph-name="Ntilde" unicode="&#xd1;" horiz-adv-x="400" 
d="M126 775q1 -1 3 -5l24 -33q21 -23 47 -33q15 -7 37 -3.5t35 15.5q32 30 47 63q10 26 9 29q-2 6 -9 9t-12 0q-4 -2 -15 -24q-4 -8 -11.5 -18.5t-20 -21.5t-21.5 -9q-11 3 -31 25q-5 6 -13.5 19t-13.5 18q-15 17 -41 15q-27 -1 -52 -19t-34 -44q-5 -9 -3 -23t16 -11
q6 1 10 6t7 15t4 12q10 19 20 24q11 6 18 -6zM299 46q-1 0 -9.5 26t-19.5 60t-16 52q-10 32 -29.5 95t-29.5 94q-40 124 -63 185q-43 118 -55 131q-4 4 -51 4q-10 0 -12.5 -18t-3.5 -53v-13q-2 -57 -6 -343.5t-4 -335.5q0 -12 12.5 -17.5t25 1t12.5 24.5q0 48 3.5 277
t6.5 248q1 0 6 -13.5t10 -27.5t5 -15l24 -75q38 -119 74 -208q19 -50 40 -90q0 -1 9 -22.5t18.5 -41.5t25.5 -38t32 -19q12 -1 20 0.5t12 5.5t6 10t2.5 13t0.5 14.5v15.5q0 11 -2.5 300.5t-2.5 361.5v55q-5 7 -17.5 5.5t-17.5 -7.5q-3 -4 -6 -27q0 -10 -0.5 -40.5
t-1.5 -47.5q0 -6 0.5 -138t0.5 -260z" />
    <glyph glyph-name="Ograve" unicode="&#xd2;" horiz-adv-x="374" 
d="M85 809q-1 -4 3 -11q7 -10 20 -28t18 -26q13 -20 42 -37q8 -4 13.5 0t3.5 13q0 5 -7 14l-54 66q-2 2 -7 5t-6 4q-11 3 -19 3q-7 2 -7 -3zM348 339q2 48 -1 86q-2 32 -29 119q-21 75 -58 106q-27 23 -50 30t-58 4q-27 -1 -42 -15q-24 -24 -51 -88q-51 -127 -57 -240
q-3 -82 -1 -140q3 -55 15 -113q4 -25 18 -70q32 -110 126 -94q62 9 87 48q43 63 55 102q41 148 46 265zM200 636q19 6 36.5 -10.5t28.5 -38.5q50 -97 50 -233q0 -85 -37 -218q-49 -183 -101 -159q-26 12 -37 56q-13 44 -17 85q-9 81 -6 185q3 135 34 247q18 68 43 83z" />
    <glyph glyph-name="Oacute" unicode="&#xd3;" horiz-adv-x="374" 
d="M147 709q4 -1 10 2q4 2 56 37q23 13 39 40q4 8 0.5 13.5t-13.5 3.5q-3 1 -14 -6q-50 -39 -67 -51l-10 -13q-4 -9 -4 -19q-2 -4 3 -7zM348 339q2 48 -1 86q-2 32 -29 119q-21 75 -58 106q-27 23 -50 30t-58 4q-27 -1 -42 -15q-24 -24 -51 -88q-51 -127 -57 -240
q-3 -82 -1 -140q3 -55 15 -113q4 -25 18 -70q32 -110 126 -94q62 9 87 48q43 63 55 102q41 148 46 265zM200 636q19 6 36.5 -10.5t28.5 -38.5q50 -97 50 -233q0 -85 -37 -218q-49 -183 -101 -159q-26 12 -37 56q-13 44 -17 85q-9 81 -6 185q3 135 34 247q18 68 43 83z" />
    <glyph glyph-name="Ocircumflex" unicode="&#xd4;" horiz-adv-x="374" 
d="M184 823q-7 4 -19 -3q-2 -1 -51 -86q-11 -21 -2 -27q8 -2 15 10q25 53 40 75q13 -36 21 -52q1 -1 4 -10.5t6 -12.5q4 -5 10 -5.5t11 2.5t6 9q1 7 -8 25l-10 28q-12 28 -14 35q-5 7 -9 12zM348 339q2 48 -1 86q-2 32 -29 119q-21 75 -58 106q-27 23 -50 30t-58 4
q-27 -1 -42 -15q-24 -24 -51 -88q-51 -127 -57 -240q-3 -82 -1 -140q3 -55 15 -113q4 -25 18 -70q32 -110 126 -94q62 9 87 48q43 63 55 102q41 148 46 265zM200 636q19 6 36.5 -10.5t28.5 -38.5q50 -97 50 -233q0 -85 -37 -218q-49 -183 -101 -159q-26 12 -37 56
q-13 44 -17 85q-9 81 -6 185q3 135 34 247q18 68 43 83z" />
    <glyph glyph-name="Otilde" unicode="&#xd5;" horiz-adv-x="374" 
d="M142 767q1 -1 3 -5q3 -4 7.5 -11t8.5 -12.5t8 -9.5q21 -23 47 -33q15 -7 37 -3.5t35 15.5q32 30 47 63q10 26 9 29q-2 6 -9 9t-12 0q-4 -2 -15 -24q-4 -8 -11.5 -18.5t-20 -21.5t-21.5 -9q-11 3 -31 25q-5 6 -13.5 19t-13.5 18q-15 17 -41 15q-27 -1 -52 -19t-34 -44
q-5 -9 -3 -23t16 -11q6 1 10 6t7 15t4 12q10 19 20 24q11 6 18 -6zM348 339q2 48 -1 86q-2 32 -29 119q-21 75 -58 106q-27 23 -50 30t-58 4q-27 -1 -42 -15q-24 -24 -51 -88q-51 -127 -57 -240q-3 -82 -1 -140q3 -55 15 -113q4 -25 18 -70q32 -110 126 -94q62 9 87 48
q43 63 55 102q41 148 46 265zM200 636q19 6 36.5 -10.5t28.5 -38.5q50 -97 50 -233q0 -85 -37 -218q-49 -183 -101 -159q-26 12 -37 56q-13 44 -17 85q-9 81 -6 185q3 135 34 247q18 68 43 83z" />
    <glyph glyph-name="Odieresis" unicode="&#xd6;" horiz-adv-x="374" 
d="M97 796q-18 -7 -21 -24q-9 -30 13 -45q6 -3 17 -3t16 4q16 14 12 46q-3 13 -14 19q-15 5 -23 3zM221 723q17 6 21 23q7 32 -13 45q-5 4 -16.5 4t-16.5 -4q-16 -13 -12 -46q5 -14 14 -19q13 -6 23 -3zM348 339q2 48 -1 86q-2 32 -29 119q-21 75 -58 106q-27 23 -50 30
t-58 4q-27 -1 -42 -15q-24 -24 -51 -88q-51 -127 -57 -240q-3 -82 -1 -140q3 -55 15 -113q4 -25 18 -70q32 -110 126 -94q62 9 87 48q43 63 55 102q41 148 46 265zM200 636q19 6 36.5 -10.5t28.5 -38.5q50 -97 50 -233q0 -85 -37 -218q-49 -183 -101 -159q-26 12 -37 56
q-13 44 -17 85q-9 81 -6 185q3 135 34 247q18 68 43 83z" />
    <glyph glyph-name="multiply" unicode="&#xd7;" horiz-adv-x="361" 
d="M265 253q1 -2 17 -22.5t21 -28t12 -24t7 -30.5q-32 -11 -54 1.5t-89 85.5q-8 -7 -33 -41t-47 -52.5t-37 -3.5q-4 4 9 26t36 54.5t30 43.5l8 14q3 7 -57 84q-19 32 -24 37q-7 7 16 17q29 11 49 10q23 -2 44.5 -28t35.5 -55q0 1 17 20.5t38 40t30 23.5q5 2 10.5 -2t3.5 -8
q-6 -22 -37 -64.5t-37 -52.5q3 -9 16.5 -26t14.5 -19z" />
    <glyph glyph-name="Oslash" unicode="&#xd8;" horiz-adv-x="374" 
d="M338 641q16 -3 17 -18t-5 -28q-2 -6 -27 -68q21 -62 24 -102q3 -38 1 -86q-5 -117 -46 -265q-12 -39 -55 -102q-25 -39 -87 -48q-38 -7 -69 11q-5 -6 -13 -8q-10 -1 -24 3t-17 12q-5 10 4 31q0 1 5 13q-7 14 -12 32q-14 45 -18 70q-12 58 -15 113q-2 58 1 140
q6 113 57 240q27 64 51 88q15 14 42 15q35 3 58 -4t50 -30q15 -13 29 -35q1 5 3 6q6 13 12 18.5t8 6.5t12.5 -1.5t13.5 -3.5zM117 303q-2 -70 1 -126q119 311 154 396q-1 2 -2 4.5t-2.5 5.5t-2.5 4q-11 22 -28.5 38.5t-36.5 10.5l-6 -3q-25 -15 -43 -83q-31 -112 -34 -247z
M315 354q0 62 -12 123q-45 -108 -51 -123q-36 -90 -116 -306q0 -2 2 -7t2 -8q11 -44 37 -56q18 -8 35.5 7.5t31 48.5t20.5 54t13 45q0 1 0.5 2t0.5 2q37 133 37 218z" />
    <glyph glyph-name="Ugrave" unicode="&#xd9;" horiz-adv-x="390" 
d="M99 813q-1 -4 3 -11q7 -10 20 -28t18 -26q13 -20 42 -37q8 -4 13.5 0t3.5 13q0 5 -7 14l-54 66q-2 2 -7 5t-6 4q-11 3 -19 3q-7 2 -7 -3zM182 -36q25 0 45.5 29.5t34 75.5t23 102t15.5 107.5t10 93.5q1 17 2 24q4 48 8.5 142t6.5 127q0 5 -0.5 14t0 11.5t4.5 6t13 4.5
q21 3 24 -1.5t1 -31.5q-4 -42 -6.5 -138.5t-7.5 -148.5q0 -2 -3 -33.5t-5.5 -54.5t-7.5 -64.5t-12 -73t-16.5 -71t-22.5 -68t-28.5 -54t-36 -39t-44.5 -13.5q-50 0 -87.5 52t-56.5 130t-28 171t-7.5 175t9.5 141q3 25 3 52q0 4 -1 17t-0.5 19.5t5 14t14.5 9.5q15 3 44 -3
t38 -16q9 -9 11 -19q1 -25 4 -86t3 -85t-4 -85q-4 -41 -5 -134.5t13 -196t48 -102.5z" />
    <glyph glyph-name="Uacute" unicode="&#xda;" horiz-adv-x="390" 
d="M162 699q4 -1 10 2q4 2 56 37q23 13 39 40q4 8 0.5 13.5t-13.5 3.5q-3 1 -14 -6q-50 -39 -67 -51l-10 -13q-4 -9 -4 -19q-2 -4 3 -7zM182 -36q25 0 45.5 29.5t34 75.5t23 102t15.5 107.5t10 93.5q1 17 2 24q4 48 8.5 142t6.5 127q0 5 -0.5 14t0 11.5t4.5 6t13 4.5
q21 3 24 -1.5t1 -31.5q-4 -42 -6.5 -138.5t-7.5 -148.5q0 -2 -3 -33.5t-5.5 -54.5t-7.5 -64.5t-12 -73t-16.5 -71t-22.5 -68t-28.5 -54t-36 -39t-44.5 -13.5q-50 0 -87.5 52t-56.5 130t-28 171t-7.5 175t9.5 141q3 25 3 52q0 4 -1 17t-0.5 19.5t5 14t14.5 9.5q15 3 44 -3
t38 -16q9 -9 11 -19q1 -25 4 -86t3 -85t-4 -85q-4 -41 -5 -134.5t13 -196t48 -102.5z" />
    <glyph glyph-name="Ucircumflex" unicode="&#xdb;" horiz-adv-x="390" 
d="M210 817q-7 4 -19 -3q-2 -1 -51 -86q-11 -21 -2 -27q8 -5 15 10q25 53 40 75q13 -36 21 -52q1 -1 4 -10.5t6 -12.5q4 -5 10 -5.5t11 2.5t6 9q1 7 -8 25l-10 28q-12 28 -14 35q-5 7 -9 12zM182 -36q25 0 45.5 29.5t34 75.5t23 102t15.5 107.5t10 93.5q1 17 2 24
q4 48 8.5 142t6.5 127q0 5 -0.5 14t0 11.5t4.5 6t13 4.5q21 3 24 -1.5t1 -31.5q-4 -42 -6.5 -138.5t-7.5 -148.5q0 -2 -3 -33.5t-5.5 -54.5t-7.5 -64.5t-12 -73t-16.5 -71t-22.5 -68t-28.5 -54t-36 -39t-44.5 -13.5q-50 0 -87.5 52t-56.5 130t-28 171t-7.5 175t9.5 141
q3 25 3 52q0 4 -1 17t-0.5 19.5t5 14t14.5 9.5q15 3 44 -3t38 -16q9 -9 11 -19q1 -25 4 -86t3 -85t-4 -85q-4 -41 -5 -134.5t13 -196t48 -102.5z" />
    <glyph glyph-name="Udieresis" unicode="&#xdc;" horiz-adv-x="390" 
d="M116 802q-18 -7 -21 -24q-9 -30 13 -45q6 -3 17 -3t16 4q16 14 12 46q-3 13 -14 19q-15 5 -23 3zM240 729q17 6 21 23q7 32 -13 45q-5 4 -16.5 4t-16.5 -4q-16 -13 -12 -46q5 -14 14 -19q13 -6 23 -3zM182 -36q25 0 45.5 29.5t34 75.5t23 102t15.5 107.5t10 93.5
q1 17 2 24q4 48 8.5 142t6.5 127q0 5 -0.5 14t0 11.5t4.5 6t13 4.5q21 3 24 -1.5t1 -31.5q-4 -42 -6.5 -138.5t-7.5 -148.5q0 -2 -3 -33.5t-5.5 -54.5t-7.5 -64.5t-12 -73t-16.5 -71t-22.5 -68t-28.5 -54t-36 -39t-44.5 -13.5q-50 0 -87.5 52t-56.5 130t-28 171t-7.5 175
t9.5 141q3 25 3 52q0 4 -1 17t-0.5 19.5t5 14t14.5 9.5q15 3 44 -3t38 -16q9 -9 11 -19q1 -25 4 -86t3 -85t-4 -85q-4 -41 -5 -134.5t13 -196t48 -102.5z" />
    <glyph glyph-name="Yacute" unicode="&#xdd;" horiz-adv-x="249" 
d="M64 692q4 -1 10 2q3 2 56 37q23 13 39 40q4 8 0.5 13.5t-13.5 3.5q-3 1 -14 -6q-50 -39 -67 -51l-10 -13q-4 -9 -4 -19q-2 -4 3 -7zM51 -69q21 -9 34 -5q41 12 61 69q26 71 33 117q7 44 34 159t55 225t29 113q1 2 4.5 15t4.5 18.5t3 18.5t-2 15q-2 5 -9.5 8.5t-14.5 4.5
t-17.5 2t-12.5 1q-10 2 -21.5 -14t-21.5 -42.5t-17.5 -51t-14 -50t-7.5 -28.5q-21 -78 -23 -92q-1 1 -4 7q-13 23 -36.5 68.5t-36.5 67.5q-19 39 -37 64q-10 19 -16 19q-13 0 -22.5 -13t-4.5 -26t12.5 -27t19.5 -32t16 -25q94 -166 98 -172q-21 -160 -25 -182
q-3 -18 -6.5 -38.5t-8 -45.5t-6.5 -39q-2 -11 -13.5 -36.5t-20.5 -31.5q-15 -9 -18 -20t12 -21z" />
    <glyph glyph-name="Thorn" unicode="&#xde;" horiz-adv-x="194" 
d="M255 543q80 -49 43 -176q-19 -67 -68 -122q-30 -33 -63 -56q-12 -9 -38 -23q-1 -1 -5 -2.5t-6 -3t-3.5 -4t-1.5 -6.5q0 -33 5 -76q7 -81 5 -134q0 -16 -12 -22q-12 -7 -31 -6.5t-29 12.5q-4 5 -6.5 15t-4.5 23.5t-3 16.5q-7 37 -11 76t-7.5 96t-5.5 77q-5 54 -10 221
t-2 204q4 20 16 26q13 7 34 4.5t31 -16.5q6 -10 10 -67q2 -16 4 -50h12q7 1 28 3.5t32.5 3.5t29 1t31.5 -4t26 -11zM210 277q57 66 57 153q0 8 -1 16t-5 20.5t-10.5 22.5t-19 19.5t-29.5 14t-43.5 3.5t-58.5 -9q1 -23 1.5 -66.5t0.5 -57.5v-100v-49q0 -38 2 -45q5 1 16 8
t12 7l21 12q31 22 57 51z" />
    <glyph glyph-name="germandbls" unicode="&#xdf;" horiz-adv-x="476" 
d="M271 392q35 13 60.5 44t36.5 65.5t10.5 68.5t-13.5 55q-27 42 -56 50q-54 17 -99 -2q-76 -32 -132 -122q-29 -47 -46 -118q-6 -22 -12 -64.5t-8 -50.5q-12 -72 -12 -127q0 -112 2 -167q0 -3 -0.5 -16.5t0 -21.5t2 -19t6.5 -17.5t13 -8.5q13 -4 33 0t29 13q29 29 17 91
q-7 30 -11.5 83t-3 130t13 148.5t44.5 136t84 94.5q31 18 55 -6q34 -36 23.5 -83.5t-38.5 -87t-53 -53.5q-18 -9 -58 -23q-29 -13 -24 -32q3 -13 25 -17t57 -2t36 2q12 -1 28.5 -6.5t38 -17.5t36 -37t14.5 -58q0 -28 -8 -53.5t-21 -43.5t-30.5 -33.5t-34.5 -25.5t-35.5 -18
t-31 -12t-24.5 -7l-11 -3q-7 -4 -9 -12.5t3 -14.5q7 -11 30 -13q12 -1 37 3t63.5 19.5t72 40.5t57.5 72.5t24 108.5q0 45 -23 79.5t-57 52t-58.5 26t-41.5 10.5z" />
    <glyph glyph-name="agrave" unicode="&#xe0;" horiz-adv-x="436" 
d="M73 447q-1 -4 3 -11q7 -10 20 -28t18 -26q13 -20 42 -37q8 -4 13.5 0t3.5 13q0 5 -7 14l-54 66q-2 2 -7 5t-6 4q-11 3 -19 3q-7 2 -7 -3zM480 240q4 8 15 -4q7 -8 5 -14l-12 -27q-13 -27 -30 -63.5t-38.5 -81t-40.5 -81.5t-34.5 -64t-21.5 -30q-32 -16 -60 -2.5t-34 48.5
q-3 18 -5 151t-1 143q-11 -19 -29 -56t-30.5 -60t-30 -48.5t-37 -38t-40.5 -12.5q-14 0 -26.5 18.5t-19.5 39.5q-10 35 -10 69q3 89 56 148q25 29 62 33q24 3 52 -8t48 -31q0 1 4 9t5 9q5 6 22 11q26 4 53 -6q11 -6 11 -12v-9q1 -5 1 -15l1 -62v-124q0 -7 -1 -47t-1 -69
t2 -30t42 76t80.5 157t42.5 83zM92 50q11 13 59.5 102t57.5 103q-38 1 -62.5 -16.5t-46.5 -49.5q-23 -30 -31 -72q-14 -76 1 -83q7 -4 22 16z" />
    <glyph glyph-name="aacute" unicode="&#xe1;" horiz-adv-x="436" 
d="M116 348q4 -1 10 2q3 2 56 37q23 13 39 40q4 8 0.5 13.5t-13.5 3.5q-3 1 -14 -6q-50 -39 -67 -51l-10 -13q-4 -9 -4 -19q-2 -4 3 -7zM480 240q4 8 15 -4q7 -8 5 -14l-12 -27q-13 -27 -30 -63.5t-38.5 -81t-40.5 -81.5t-34.5 -64t-21.5 -30q-32 -16 -60 -2.5t-34 48.5
q-3 18 -5 151t-1 143q-11 -19 -29 -56t-30.5 -60t-30 -48.5t-37 -38t-40.5 -12.5q-14 0 -26.5 18.5t-19.5 39.5q-10 35 -10 69q3 89 56 148q25 29 62 33q24 3 52 -8t48 -31q0 1 4 9t5 9q5 6 22 11q26 4 53 -6q11 -6 11 -12v-9q1 -5 1 -15l1 -62v-124q0 -7 -1 -47t-1 -69
t2 -30t42 76t80.5 157t42.5 83zM92 50q11 13 59.5 102t57.5 103q-38 1 -62.5 -16.5t-46.5 -49.5q-23 -30 -31 -72q-14 -76 1 -83q7 -4 22 16z" />
    <glyph glyph-name="acircumflex" unicode="&#xe2;" horiz-adv-x="436" 
d="M189 468q-7 4 -19 -3q-2 -1 -51 -86q-11 -21 -2 -27q8 -5 15 10q25 53 40 75q13 -36 21 -52q1 -1 4 -10.5t6 -12.5q4 -5 10 -5.5t11 2.5t6 9q1 7 -8 25l-10 28q-12 28 -14 35q-4 8 -9 12zM480 240q4 8 15 -4q7 -8 5 -14l-12 -27q-13 -27 -30 -63.5t-38.5 -81t-40.5 -81.5
t-34.5 -64t-21.5 -30q-32 -16 -60 -2.5t-34 48.5q-3 18 -5 151t-1 143q-11 -19 -29 -56t-30.5 -60t-30 -48.5t-37 -38t-40.5 -12.5q-14 0 -26.5 18.5t-19.5 39.5q-10 35 -10 69q3 89 56 148q25 29 62 33q24 3 52 -8t48 -31q0 1 4 9t5 9q5 6 22 11q26 4 53 -6q11 -6 11 -12
v-9q1 -5 1 -15l1 -62v-124q0 -7 -1 -47t-1 -69t2 -30t42 76t80.5 157t42.5 83zM92 50q11 13 59.5 102t57.5 103q-38 1 -62.5 -16.5t-46.5 -49.5q-23 -30 -31 -72q-14 -76 1 -83q7 -4 22 16z" />
    <glyph glyph-name="atilde" unicode="&#xe3;" horiz-adv-x="436" 
d="M116 474q1 -1 3 -5q3 -4 7.5 -11t8.5 -12.5t8 -9.5q21 -23 47 -33q15 -7 37 -3.5t35 15.5q32 30 47 63q10 26 9 29q-2 6 -9 9t-12 0q-4 -2 -15 -24q-4 -8 -11.5 -18.5t-20 -21.5t-21.5 -9q-11 3 -31 25q-5 6 -13.5 19t-13.5 18q-15 17 -41 15q-27 -1 -52 -19t-34 -44
q-5 -9 -3 -23t16 -11q6 1 10 6t7 15t4 12q10 19 20 24q11 6 18 -6zM480 240q4 8 15 -4q7 -8 5 -14l-12 -27q-13 -27 -30 -63.5t-38.5 -81t-40.5 -81.5t-34.5 -64t-21.5 -30q-32 -16 -60 -2.5t-34 48.5q-3 18 -5 151t-1 143q-11 -19 -29 -56t-30.5 -60t-30 -48.5t-37 -38
t-40.5 -12.5q-14 0 -26.5 18.5t-19.5 39.5q-10 35 -10 69q3 89 56 148q25 29 62 33q24 3 52 -8t48 -31q0 1 4 9t5 9q5 6 22 11q26 4 53 -6q11 -6 11 -12v-9q1 -5 1 -15l1 -62v-124q0 -7 -1 -47t-1 -69t2 -30t42 76t80.5 157t42.5 83zM92 50q11 13 59.5 102t57.5 103
q-38 1 -62.5 -16.5t-46.5 -49.5q-23 -30 -31 -72q-14 -76 1 -83q7 -4 22 16z" />
    <glyph glyph-name="adieresis" unicode="&#xe4;" horiz-adv-x="436" 
d="M122 450q-18 -7 -21 -24q-9 -30 13 -45q6 -3 17 -3t16 4q16 14 12 46q-3 13 -14 19q-15 5 -23 3zM246 377q17 6 21 23q7 32 -13 45q-5 4 -16.5 4t-16.5 -4q-16 -13 -12 -46q5 -14 14 -19q13 -6 23 -3zM480 240q4 8 15 -4q7 -8 5 -14l-12 -27q-13 -27 -30 -63.5t-38.5 -81
t-40.5 -81.5t-34.5 -64t-21.5 -30q-32 -16 -60 -2.5t-34 48.5q-3 18 -5 151t-1 143q-11 -19 -29 -56t-30.5 -60t-30 -48.5t-37 -38t-40.5 -12.5q-14 0 -26.5 18.5t-19.5 39.5q-10 35 -10 69q3 89 56 148q25 29 62 33q24 3 52 -8t48 -31q0 1 4 9t5 9q5 6 22 11q26 4 53 -6
q11 -6 11 -12v-9q1 -5 1 -15l1 -62v-124q0 -7 -1 -47t-1 -69t2 -30t42 76t80.5 157t42.5 83zM92 50q11 13 59.5 102t57.5 103q-38 1 -62.5 -16.5t-46.5 -49.5q-23 -30 -31 -72q-14 -76 1 -83q7 -4 22 16z" />
    <glyph glyph-name="aring" unicode="&#xe5;" horiz-adv-x="436" 
d="M277 427q2 23 -14 37q-16 18 -39 18q-10 0 -18 -5q-18 -8 -29 -26q-11 -15 -9 -35.5t17 -33.5q15 -12 35 -10.5t34 14.5q20 17 23 41zM203 401q-8 4 -10 17t2 21q8 24 30 22q14 -1 20 -9.5t1 -21.5q-3 -11 -16 -22t-23 -8zM480 240q4 8 15 -4q7 -8 5 -14l-12 -27
q-13 -27 -30 -63.5t-38.5 -81t-40.5 -81.5t-34.5 -64t-21.5 -30q-32 -16 -60 -2.5t-34 48.5q-3 18 -5 151t-1 143q-11 -19 -29 -56t-30.5 -60t-30 -48.5t-37 -38t-40.5 -12.5q-14 0 -26.5 18.5t-19.5 39.5q-10 35 -10 69q3 89 56 148q25 29 62 33q24 3 52 -8t48 -31q0 1 4 9
t5 9q5 6 22 11q26 4 53 -6q11 -6 11 -12v-9q1 -5 1 -15l1 -62v-124q0 -7 -1 -47t-1 -69t2 -30t42 76t80.5 157t42.5 83zM92 50q11 13 59.5 102t57.5 103q-38 1 -62.5 -16.5t-46.5 -49.5q-23 -30 -31 -72q-14 -76 1 -83q7 -4 22 16z" />
    <glyph glyph-name="ae" unicode="&#xe6;" horiz-adv-x="517" 
d="M561 256q4 8 15 -4q7 -8 5 -14q-4 -10 -11 -20q-21 -37 -63 -109l-33 -57q-48 -87 -72 -109q-39 -29 -76.5 -14.5t-65.5 61t-34 101.5q-2 8 -2 13q-2 118 0 126q-11 -20 -29.5 -56.5t-31 -59.5t-30 -48.5t-37 -38t-40.5 -12.5q-14 0 -26.5 18t-19.5 39q-12 37 -10 70
q3 89 56 149q23 27 62 33q24 3 52.5 -8t47.5 -31l9 18q8 8 23 10q23 5 53 -5q11 -6 11 -13v-3q27 12 57 4q26 -6 35.5 -35t-8.5 -53q-11 -15 -43.5 -48.5t-34.5 -36.5q-7 -10 7 -92.5t35 -82.5q9 0 69 94q2 4 9.5 15.5t10.5 17.5q107 176 110 181zM92 65q12 13 60 102.5
t57 102.5q-38 1 -62 -16t-47 -50t-31 -72q-14 -76 1 -83q7 -4 22 16zM367 261q-42 -21 -51 -99v-8q7 6 22.5 22t27 29.5t12.5 14.5q12 16 11 26t-8 14t-14 1z" />
    <glyph glyph-name="ccedilla" unicode="&#xe7;" horiz-adv-x="302" 
d="M301 222q-1 -4 -28 -49q-4 -6 -6 -10q-6 -10 -17.5 -30t-14.5 -26l-47 -81q-15 -24 -22 -30l-1 -1q-15 -15 -31 -19q-5 -8 -16 -24.5t-12 -17.5l8 1l16 2t19 -1t19 -6t14 -14.5t6 -26.5q0 -22 -24.5 -50t-53.5 -31q-51 -4 -61 8q-5 5 -7 15q0 2 -0.5 6t-0.5 6q1 4 9 4
q25 -3 30 -2q48 2 69 33q8 13 -0.5 25t-25.5 8q-9 -2 -23.5 -8.5t-18.5 -7.5t-7.5 0.5t-7.5 4.5l-3 4q-6 6 2.5 28.5t21.5 42.5q-35 5 -57.5 29t-27.5 62q-4 31 -1 69q1 30 24.5 84t62.5 71q24 12 56 4.5t43 -31.5q6 -11 6 -22q-1 -19 -17 0q-4 5 -6 6q-14 11 -29 -1
q-30 -25 -42.5 -94t-8.5 -101q2 -23 13 -34.5t32 4.5q34 36 53 66q0 1 36 61t56 92z" />
    <glyph glyph-name="egrave" unicode="&#xe8;" horiz-adv-x="292" 
d="M15 415q-1 -4 3 -11q7 -10 20 -28t18 -26q13 -20 42 -37q8 -4 13.5 0t3.5 13q0 5 -7 14l-54 66q-2 2 -7 5t-6 4q-10 3 -19 3q-7 2 -7 -3zM335 241q3 3 8.5 1t10 -8.5t2.5 -11.5l-12 -20q-42 -72 -62 -108q-12 -19 -34 -57q-41 -83 -71 -108q-26 -22 -55.5 -19.5t-53 25
t-42.5 56t-24 74t3 79.5q10 40 24.5 69.5t30 43t32 21.5t30 6t24.5 -3q25 -7 35 -35.5t-8 -52.5q-11 -15 -43.5 -48.5t-34.5 -36.5q-7 -10 7 -92t35 -82q12 0 68 93l21 33q101 167 109 181zM142 245q-44 -21 -52 -107q7 5 22.5 21.5t27.5 30.5t13 15q12 16 11 25.5t-8 13.5
t-14 1z" />
    <glyph glyph-name="eacute" unicode="&#xe9;" horiz-adv-x="292" 
d="M68 314q4 -1 10 2q4 2 56 37q23 13 39 40q4 8 0.5 13.5t-13.5 3.5q-3 1 -14 -6q-50 -39 -67 -51l-10 -13q-4 -9 -4 -19q-2 -4 3 -7zM335 241q3 3 8.5 1t10 -8.5t2.5 -11.5l-12 -20q-42 -72 -62 -108q-12 -19 -34 -57q-41 -83 -71 -108q-26 -22 -55.5 -19.5t-53 25
t-42.5 56t-24 74t3 79.5q10 40 24.5 69.5t30 43t32 21.5t30 6t24.5 -3q25 -7 35 -35.5t-8 -52.5q-11 -15 -43.5 -48.5t-34.5 -36.5q-7 -10 7 -92t35 -82q12 0 68 93l21 33q101 167 109 181zM142 245q-44 -21 -52 -107q7 5 22.5 21.5t27.5 30.5t13 15q12 16 11 25.5t-8 13.5
t-14 1z" />
    <glyph glyph-name="ecircumflex" unicode="&#xea;" horiz-adv-x="292" 
d="M111 442q-7 4 -19 -3q-2 -1 -51 -86q-11 -21 -2 -27q8 -2 15 10q25 53 40 75q13 -36 21 -52q1 -1 4 -10.5t6 -12.5q4 -5 10 -5.5t11 2.5t6 9q1 7 -8 25l-10 28q-12 28 -14 35q-4 8 -9 12zM335 241q3 3 8.5 1t10 -8.5t2.5 -11.5l-12 -20q-42 -72 -62 -108q-12 -19 -34 -57
q-41 -83 -71 -108q-26 -22 -55.5 -19.5t-53 25t-42.5 56t-24 74t3 79.5q10 40 24.5 69.5t30 43t32 21.5t30 6t24.5 -3q25 -7 35 -35.5t-8 -52.5q-11 -15 -43.5 -48.5t-34.5 -36.5q-7 -10 7 -92t35 -82q12 0 68 93l21 33q101 167 109 181zM142 245q-44 -21 -52 -107
q7 5 22.5 21.5t27.5 30.5t13 15q12 16 11 25.5t-8 13.5t-14 1z" />
    <glyph glyph-name="edieresis" unicode="&#xeb;" horiz-adv-x="292" 
d="M47 422q-18 -7 -21 -24q-9 -30 13 -45q6 -3 17 -3t16 4q16 14 12 46q-3 13 -14 19q-15 5 -23 3zM171 349q17 6 21 23q7 32 -13 45q-5 4 -16.5 4t-16.5 -4q-16 -13 -12 -46q5 -14 14 -19q13 -6 23 -3zM335 241q3 3 8.5 1t10 -8.5t2.5 -11.5l-12 -20q-42 -72 -62 -108
q-12 -19 -34 -57q-41 -83 -71 -108q-26 -22 -55.5 -19.5t-53 25t-42.5 56t-24 74t3 79.5q10 40 24.5 69.5t30 43t32 21.5t30 6t24.5 -3q25 -7 35 -35.5t-8 -52.5q-11 -15 -43.5 -48.5t-34.5 -36.5q-7 -10 7 -92t35 -82q12 0 68 93l21 33q101 167 109 181zM142 245
q-44 -21 -52 -107q7 5 22.5 21.5t27.5 30.5t13 15q12 16 11 25.5t-8 13.5t-14 1z" />
    <glyph glyph-name="igrave" unicode="&#xec;" horiz-adv-x="217" 
d="M78 382q14 -18 42 -28q14 0 15 1t-5 21l-7 12q-3 3 -25.5 24t-34.5 33q-8 5 -13 4q-21 3 -23 -8zM260 240q4 4 9.5 1.5t9.5 -9t2 -10.5q-8 -14 -12 -20q-20 -36 -62 -108q-4 -8 -7 -11q-22 -34 -51 -59t-46 -27q-38 -5 -54 5q-28 16 -45 86q-16 64 33 198q8 18 28 11
q4 -1 12 -3.5t11.5 -4t8.5 -5t8.5 -9t5.5 -13.5q1 -2 -8 -28q-1 -6 -8 -31q-8 -40 -11 -61q-5 -42 -1 -78q0 -26 9 -32q9 -5 29.5 8.5t27.5 23.5q26 31 28 40l4 5q12 20 32.5 54t32.5 54t14 23z" />
    <glyph glyph-name="iacute" unicode="&#xed;" horiz-adv-x="217" 
d="M79 421q-19 -11 -33 -37q-3 -13 -2 -15q2 -2 21 1q2 1 7 3t7 3q11 8 32.5 25t32.5 25q6 6 6 12q7 20 -5 24zM260 240q4 4 9.5 1.5t9.5 -9t2 -10.5q-8 -14 -12 -20q-20 -36 -62 -108q-4 -8 -7 -11q-22 -34 -51 -59t-46 -27q-38 -5 -54 5q-28 16 -45 86q-16 64 33 198
q8 18 28 11q4 -1 12 -3.5t11.5 -4t8.5 -5t8.5 -9t5.5 -13.5q1 -2 -8 -28q-1 -6 -8 -31q-8 -40 -11 -61q-5 -42 -1 -78q0 -26 9 -32q9 -5 29.5 8.5t27.5 23.5q26 31 28 40l4 5q12 20 32.5 54t32.5 54t14 23z" />
    <glyph glyph-name="icircumflex" unicode="&#xee;" horiz-adv-x="217" 
d="M109 479q-7 4 -19 -3q-2 -1 -51 -86q-11 -21 -2 -27q8 -2 15 10q25 53 40 75q13 -36 21 -52q1 -1 4 -10.5t6 -12.5q4 -5 10 -5.5t11 2.5t6 9q1 7 -8 25l-10 28q-12 28 -14 35q-4 7 -9 12zM260 240q4 4 9.5 1.5t9.5 -9t2 -10.5q-8 -14 -12 -20q-20 -36 -62 -108
q-4 -8 -7 -11q-22 -34 -51 -59t-46 -27q-38 -5 -54 5q-28 16 -45 86q-16 64 33 198q8 18 28 11q4 -1 12 -3.5t11.5 -4t8.5 -5t8.5 -9t5.5 -13.5q1 -2 -8 -28q-1 -6 -8 -31q-8 -40 -11 -61q-5 -42 -1 -78q0 -26 9 -32q9 -5 29.5 8.5t27.5 23.5q26 31 28 40l4 5q12 20 32.5 54
t32.5 54t14 23z" />
    <glyph glyph-name="idieresis" unicode="&#xef;" horiz-adv-x="217" 
d="M55 384q-15 3 -17 21q-1 15 6 33q8 15 14 19h1q8 1 32 -16q15 -9 4 -30l-15 -21q-10 -13 -25 -6zM147 356q-15 3 -17 21q-1 15 6 33q8 15 14 19h1q8 1 32 -16q15 -9 4 -30l-15 -21q-10 -13 -25 -6zM260 240q4 4 9.5 1.5t9.5 -9t2 -10.5q-8 -14 -12 -20q-20 -36 -62 -108
q-4 -8 -7 -11q-22 -34 -51 -59t-46 -27q-38 -5 -54 5q-28 16 -45 86q-16 64 33 198q8 18 28 11q4 -1 12 -3.5t11.5 -4t8.5 -5t8.5 -9t5.5 -13.5q1 -2 -8 -28q-1 -6 -8 -31q-8 -40 -11 -61q-5 -42 -1 -78q0 -26 9 -32q9 -5 29.5 8.5t27.5 23.5q26 31 28 40l4 5q12 20 32.5 54
t32.5 54t14 23z" />
    <glyph glyph-name="eth" unicode="&#xf0;" horiz-adv-x="416" 
d="M240 464q17 -22 36.5 -60t30 -63t12.5 -32q-60 20 -116.5 12t-93.5 -36.5t-61.5 -70.5t-22.5 -91.5t25 -98.5q58 -110 147 -99q75 10 133 98q71 108 60 247q-10 126 -92 233q3 3 14 12.5t21 18.5t21.5 21t14 19.5t-0.5 14.5q-8 8 -21 8.5t-26.5 -6t-25.5 -14t-24 -16
t-16 -10.5q-1 -1 -21.5 19t-45.5 41t-34 22q-12 1 -33.5 -12.5t-19.5 -24.5q1 -2 47 -37.5t46 -44.5q-2 -1 -6 -3.5t-14.5 -10t-20.5 -15t-21 -17t-18.5 -18t-11.5 -16.5t-2 -14q12 -14 35 -9t42 16t38.5 23.5t24.5 13.5zM330 243q3 -3 0.5 -34.5t-6.5 -68t-26 -79
t-56 -66.5q-31 -22 -61.5 -8t-51.5 57q-21 42 -12.5 88t39 76.5t76 44t98.5 -9.5z" />
    <glyph glyph-name="ntilde" unicode="&#xf1;" horiz-adv-x="394" 
d="M145 510q1 -1 3 -5q3 -4 7.5 -11t8.5 -12.5t8 -9.5q21 -23 47 -33q15 -7 37 -3.5t35 15.5q32 30 47 63q10 26 9 29q-2 6 -9 9t-12 0q-4 -2 -15 -24q-4 -8 -11.5 -18.5t-20 -21.5t-21.5 -9q-11 3 -31 25q-5 6 -13.5 19t-13.5 18q-15 17 -41 15q-27 -1 -52 -19t-34 -44
q-5 -9 -3 -23t16 -11q6 1 10 6t7 15t4 12q10 19 20 24q11 6 18 -6zM437 240q4 4 9.5 1.5t9.5 -8.5t2 -11q-10 -17 -11 -20q-20 -33 -41 -70q-9 -16 -20 -38t-20 -42.5t-20 -45t-21 -44.5t-21.5 -40t-22.5 -32.5t-24 -22t-24.5 -8t-26.5 8.5q-44 29 -40 100t30 141
t49.5 129.5t17.5 65.5q-9 9 -57 -39.5t-62 -80.5q-38 -91 -44 -126q-1 -4 -2 -10t-1.5 -9.5t-2.5 -7t-5.5 -6t-9.5 -3.5q-7 -2 -42 -2q-12 0 -23 13q-7 8 -11 27q-6 31 1.5 124t27.5 166q7 24 29 21q3 -1 9 -1t9 -1q22 -4 28 -14t2 -34l-9 -77q-7 -58 -6 -73q77 119 156 148
q34 11 55 -11q20 -23 6 -73q-78 -288 -49 -294q4 0 19.5 27t39.5 73t38 70l59 97z" />
    <glyph glyph-name="ograve" unicode="&#xf2;" horiz-adv-x="348" 
d="M104 373q-5 8 -18 26t-20 28q-4 7 -3 11q0 5 7 3q8 0 19 -3q1 -1 6 -4t7 -5l54 -66q7 -9 7 -14q2 -9 -3.5 -13t-13.5 0q-29 17 -42 37zM377 240q4 8 15 -3q8 -8 5 -15q-2 -3 -5.5 -9.5t-5.5 -10.5q-30 -55 -69.5 -72.5t-72.5 -9.5q-30 -181 -121 -181q-37 0 -64.5 22.5
t-39.5 56t-16.5 65t-1.5 55.5q8 54 29.5 92t48 53.5t55 21t50.5 0.5t34 -14q28 -23 34.5 -58t-3.5 -82q66 -11 100 44q25 42 28 45zM216 163q8 31 2 67t-35 25q-20 -7 -4 -49.5t37 -42.5zM124 -30q24 -2 45 39.5t30 78t9 42.5q-28 11 -43 28.5t-26 63.5q-25 -19 -37.5 -80
t-6 -115.5t28.5 -56.5z" />
    <glyph glyph-name="oacute" unicode="&#xf3;" horiz-adv-x="348" 
d="M107 346q-5 3 -3 7q0 10 4 19l10 13q17 12 67 51q11 7 14 6q10 2 13.5 -3.5t-0.5 -13.5q-16 -27 -39 -40q-53 -35 -56 -37q-6 -3 -10 -2zM377 240q4 8 15 -3q8 -8 5 -15q-2 -3 -5.5 -9.5t-5.5 -10.5q-30 -55 -69.5 -72.5t-72.5 -9.5q-30 -181 -121 -181q-37 0 -64.5 22.5
t-39.5 56t-16.5 65t-1.5 55.5q8 54 29.5 92t48 53.5t55 21t50.5 0.5t34 -14q28 -23 34.5 -58t-3.5 -82q66 -11 100 44q25 42 28 45zM216 163q8 31 2 67t-35 25q-20 -7 -4 -49.5t37 -42.5zM124 -30q24 -2 45 39.5t30 78t9 42.5q-28 11 -43 28.5t-26 63.5q-25 -19 -37.5 -80
t-6 -115.5t28.5 -56.5z" />
    <glyph glyph-name="ocircumflex" unicode="&#xf4;" horiz-adv-x="348" 
d="M91 353q-7 -15 -15 -10q-7 7 2 27q49 85 51 86q12 7 19 3q4 -5 9 -12q2 -7 14 -35l10 -28q9 -18 8 -25q-2 -9 -11.5 -11t-15.5 5q-3 3 -6 12.5t-4 10.5q-8 16 -21 52q-15 -22 -40 -75zM377 240q4 8 15 -3q8 -8 5 -15q-2 -3 -5.5 -9.5t-5.5 -10.5q-30 -55 -69.5 -72.5
t-72.5 -9.5q-30 -181 -121 -181q-37 0 -64.5 22.5t-39.5 56t-16.5 65t-1.5 55.5q8 54 29.5 92t48 53.5t55 21t50.5 0.5t34 -14q28 -23 34.5 -58t-3.5 -82q66 -11 100 44q25 42 28 45zM216 163q8 31 2 67t-35 25q-20 -7 -4 -49.5t37 -42.5zM124 -30q24 -2 45 39.5t30 78
t9 42.5q-28 11 -43 28.5t-26 63.5q-25 -19 -37.5 -80t-6 -115.5t28.5 -56.5z" />
    <glyph glyph-name="otilde" unicode="&#xf5;" horiz-adv-x="348" 
d="M41 410q-14 -3 -16 11t3 23q9 26 34 44t52 19q26 2 41 -15q5 -5 13.5 -18t13.5 -19q20 -22 31 -25q13 -3 29 15.5t24 33.5q11 22 15 24q5 3 12 0t9 -9q1 -3 -9 -29q-15 -33 -47 -63q-13 -12 -35 -15.5t-37 3.5q-26 10 -47 33q-4 4 -8 9.5t-8.5 12.5t-7.5 11q-2 4 -3 5
q-7 12 -18 6q-10 -5 -20 -24q-1 -2 -4 -12t-7 -15t-10 -6zM377 240q4 8 15 -3q8 -8 5 -15q-2 -3 -5.5 -9.5t-5.5 -10.5q-30 -55 -69.5 -72.5t-72.5 -9.5q-30 -181 -121 -181q-37 0 -64.5 22.5t-39.5 56t-16.5 65t-1.5 55.5q8 54 29.5 92t48 53.5t55 21t50.5 0.5t34 -14
q28 -23 34.5 -58t-3.5 -82q66 -11 100 44q25 42 28 45zM216 163q8 31 2 67t-35 25q-20 -7 -4 -49.5t37 -42.5zM124 -30q24 -2 45 39.5t30 78t9 42.5q-28 11 -43 28.5t-26 63.5q-25 -19 -37.5 -80t-6 -115.5t28.5 -56.5z" />
    <glyph glyph-name="odieresis" unicode="&#xf6;" horiz-adv-x="348" 
d="M67 367q-22 15 -13 45q3 17 21 24q8 2 23 -3q11 -6 14 -19q4 -32 -12 -46q-5 -4 -16 -4t-17 3zM176 366q-9 5 -14 19q-4 33 12 46q5 4 16.5 4t16.5 -4q20 -13 13 -45q-4 -17 -21 -23q-10 -3 -23 3zM377 240q4 8 15 -3q8 -8 5 -15q-2 -3 -5.5 -9.5t-5.5 -10.5
q-30 -55 -69.5 -72.5t-72.5 -9.5q-30 -181 -121 -181q-37 0 -64.5 22.5t-39.5 56t-16.5 65t-1.5 55.5q8 54 29.5 92t48 53.5t55 21t50.5 0.5t34 -14q28 -23 34.5 -58t-3.5 -82q66 -11 100 44q25 42 28 45zM216 163q8 31 2 67t-35 25q-20 -7 -4 -49.5t37 -42.5zM124 -30
q24 -2 45 39.5t30 78t9 42.5q-28 11 -43 28.5t-26 63.5q-25 -19 -37.5 -80t-6 -115.5t28.5 -56.5z" />
    <glyph glyph-name="divide" unicode="&#xf7;" horiz-adv-x="503" 
d="M233 459q-17 -6 -24.5 -29.5t-4.5 -45.5q4 -25 21.5 -37t43.5 -6q25 6 33 35t-7 51q-17 26 -36 32q-15 5 -26 0zM452 259q5 16 -11 20q-27 7 -58 12q-23 3 -47 4.5t-51.5 1t-45 -1t-51 -2.5t-46.5 -3q-15 -1 -79 -11q-12 -2 -13 -7l3 -6q37 -27 74 -23q17 2 50 2
q22 1 65 1t77 1t65 5q10 2 68 7zM235 196q-35 -15 -36 -44q-4 -38 20 -60q33 -30 69 -3t14 67q-11 19 -27 33t-33 9q-3 0 -7 -2z" />
    <glyph glyph-name="oslash" unicode="&#xf8;" horiz-adv-x="348" 
d="M377 240q4 8 15 -3q8 -8 5 -15q-2 -3 -5.5 -9.5t-5.5 -10.5q-30 -55 -69.5 -72.5t-72.5 -9.5q-30 -181 -121 -181h-8q-47 -124 -50 -131q-7 -10 -17 -13q-10 -1 -24 3t-17 12q-5 10 4 31q0 1 6 16t17.5 45t22.5 61q-34 29 -47.5 82.5t-8.5 92.5q8 56 30.5 94t49 52.5
t56 21t50.5 -1.5q67 169 75 185q6 13 12 18.5t8 6.5t12.5 -1.5t13.5 -3.5q16 -3 17 -18t-5 -28q-5 -14 -80 -197q22 -35 9 -115q66 -11 100 44q25 42 28 45zM139 222q-21 -16 -33 -63.5t-12 -98.5q7 19 24.5 65.5t27.5 71.5q-6 23 -7 25zM216 163q5 37 4 53q-17 -40 -19 -46
q7 -7 15 -7zM126 -30q23 0 43.5 41t29.5 77t9 42q-2 1 -8.5 3.5t-10.5 4.5z" />
    <glyph glyph-name="ugrave" unicode="&#xf9;" horiz-adv-x="383" 
d="M33 520q-1 -4 3 -11q7 -10 20 -28t18 -26q13 -20 42 -37q8 -4 13.5 0t3.5 13q0 5 -7 14l-54 66q-2 2 -7 5t-6 4q-10 3 -19 3q-7 2 -7 -3zM421 241q4 3 9.5 1t9.5 -8.5t2 -10.5q-8 -14 -12 -20q-20 -36 -62 -108q-16 -28 -22 -38l-14 -24q0 -1 -1 -2q-26 -42 -42 -55
t-37 -13q-64 0 -64 235q-1 -1 -8 -14.5t-16 -28.5t-24 -31.5t-30 -26.5t-35 -9.5t-39 15.5q-33 25 -35 81q-3 50 3 99q1 11 2 36t3 38q2 11 9.5 17t14 7.5t21.5 2.5q18 1 25 -5t9 -24q1 -4 1 -12q-4 -113 -5 -172q-1 -24 8 -36t27 9q46 67 79 162q9 24 7 44q-1 23 25 28
q25 5 53 -5q11 -4 11.5 -49t-5 -123t-5.5 -97q0 -4 -1 -17q-3 -60 4 -60l3 1q7 7 21 29q0 1 2 3q11 19 58.5 98.5t49.5 82.5z" />
    <glyph glyph-name="uacute" unicode="&#xfa;" horiz-adv-x="383" 
d="M115 431q4 -1 10 2q3 2 56 37q23 13 39 40q4 8 0.5 13.5t-13.5 3.5q-3 1 -14 -6q-50 -39 -67 -51l-10 -13q-4 -9 -4 -19q-2 -4 3 -7zM421 241q4 3 9.5 1t9.5 -8.5t2 -10.5q-8 -14 -12 -20q-20 -36 -62 -108q-16 -28 -22 -38l-14 -24q0 -1 -1 -2q-26 -42 -42 -55t-37 -13
q-64 0 -64 235q-1 -1 -8 -14.5t-16 -28.5t-24 -31.5t-30 -26.5t-35 -9.5t-39 15.5q-33 25 -35 81q-3 50 3 99q1 11 2 36t3 38q2 11 9.5 17t14 7.5t21.5 2.5q18 1 25 -5t9 -24q1 -4 1 -12q-4 -113 -5 -172q-1 -24 8 -36t27 9q46 67 79 162q9 24 7 44q-1 23 25 28q25 5 53 -5
q11 -4 11.5 -49t-5 -123t-5.5 -97q0 -4 -1 -17q-3 -60 4 -60l3 1q7 7 21 29q0 1 2 3q11 19 58.5 98.5t49.5 82.5z" />
    <glyph glyph-name="ucircumflex" unicode="&#xfb;" horiz-adv-x="383" 
d="M142 551q-7 4 -19 -3q-2 -1 -51 -86q-11 -21 -2 -27q8 -2 15 10q25 53 40 75q13 -36 21 -52q1 -1 4 -10.5t6 -12.5q4 -5 10 -5.5t11 2.5t6 9q1 7 -8 25l-10 28q-12 28 -14 35q-5 7 -9 12zM421 241q4 3 9.5 1t9.5 -8.5t2 -10.5q-8 -14 -12 -20q-20 -36 -62 -108
q-16 -28 -22 -38l-14 -24q0 -1 -1 -2q-26 -42 -42 -55t-37 -13q-64 0 -64 235q-1 -1 -8 -14.5t-16 -28.5t-24 -31.5t-30 -26.5t-35 -9.5t-39 15.5q-33 25 -35 81q-3 50 3 99q1 11 2 36t3 38q2 11 9.5 17t14 7.5t21.5 2.5q18 1 25 -5t9 -24q1 -4 1 -12q-4 -113 -5 -172
q-1 -24 8 -36t27 9q46 67 79 162q9 24 7 44q-1 23 25 28q25 5 53 -5q11 -4 11.5 -49t-5 -123t-5.5 -97q0 -4 -1 -17q-3 -60 4 -60l3 1q7 7 21 29q0 1 2 3q11 19 58.5 98.5t49.5 82.5z" />
    <glyph glyph-name="udieresis" unicode="&#xfc;" horiz-adv-x="383" 
d="M69 529q-18 -7 -21 -24q-9 -30 13 -45q6 -3 17 -3t16 4q16 14 12 46q-3 13 -14 19q-15 5 -23 3zM193 456q17 6 21 23q7 32 -13 45q-5 4 -16.5 4t-16.5 -4q-16 -13 -12 -46q5 -14 14 -19q13 -6 23 -3zM421 241q4 3 9.5 1t9.5 -8.5t2 -10.5q-8 -14 -12 -20
q-20 -36 -62 -108q-16 -28 -22 -38l-14 -24q0 -1 -1 -2q-26 -42 -42 -55t-37 -13q-64 0 -64 235q-1 -1 -8 -14.5t-16 -28.5t-24 -31.5t-30 -26.5t-35 -9.5t-39 15.5q-33 25 -35 81q-3 50 3 99q1 11 2 36t3 38q2 11 9.5 17t14 7.5t21.5 2.5q18 1 25 -5t9 -24q1 -4 1 -12
q-4 -113 -5 -172q-1 -24 8 -36t27 9q46 67 79 162q9 24 7 44q-1 23 25 28q25 5 53 -5q11 -4 11.5 -49t-5 -123t-5.5 -97q0 -4 -1 -17q-3 -60 4 -60l3 1q7 7 21 29q0 1 2 3q11 19 58.5 98.5t49.5 82.5z" />
    <glyph glyph-name="yacute" unicode="&#xfd;" horiz-adv-x="341" 
d="M118 415q4 -1 10 2q4 2 56 37q23 13 39 40q4 8 0.5 13.5t-13.5 3.5q-3 1 -14 -6q-50 -39 -67 -51l-10 -13q-4 -9 -4 -19q-2 -4 3 -7zM369 241q3 3 8.5 1t10 -8.5t2.5 -11.5q-4 -6 -12 -20q-28 -49 -62 -107l-33 -57q1 -13 4.5 -51.5t4.5 -64.5t0 -51q-4 -84 -29 -129
q-36 -66 -82 -75q-42 -9 -76 6q-33 15 -35.5 60t10.5 82.5t30 69.5q18 32 75 113q15 22 11 53q-1 12 -1.5 74.5t-0.5 68.5q-2 -3 -16.5 -25.5t-28 -45l-19.5 -32.5q-23 -38 -74 -24q-56 16 -56 110q0 18 11.5 74.5t20.5 75.5q1 1 5.5 13t6.5 14q18 15 46.5 5.5t22.5 -36.5
q-28 -108 -30 -155q0 -25 1 -38q0 -24 6 -25q4 0 13 9q12 12 81 120q27 39 32 90l6 29q2 6 4 14q4 12 11 14q10 4 22 6q20 4 40 -9q18 -10 12 -30l-9 -42q-10 -32 -19 -125q0 -5 -0.5 -15.5t-1.5 -15.5q-1 -8 -1 -17.5t0.5 -21t0.5 -17.5l34.5 57.5t37.5 62t16 27.5z
M178 -288q43 26 43 85q0 172 -6 174q-6 -9 -25 -33.5t-25 -33.5q-33 -49 -43 -92t-4.5 -64t16.5 -33q18 -18 44 -3z" />
    <glyph glyph-name="thorn" unicode="&#xfe;" horiz-adv-x="368" 
d="M396 241q3 4 8.5 1.5t10 -9t2.5 -10.5q-8 -14 -12 -20l-10 -18q-50 -82 -130 -104q-30 -48 -78 -76t-97 -15q-1 -4 2 -31q0 -6 2 -18t2 -18q4 -49 7 -70q11 -70 27 -137q2 -9 -7.5 -13t-20 -3.5t-17.5 1.5q-30 6 -49 58q-39 122 -36 268q2 89 18 242t42 181q5 5 10.5 6.5
t9 0.5t11 -4.5t11.5 -4.5q2 -1 19 -9q21 -11 14 -36q-31 -104 -31 -159q9 7 22 17t20.5 15.5t18 13t19 11t19.5 6t22.5 2.5t25.5 -3q35 -7 48 -50q4 -13 6 -32q0 -22 -3 -40q-3 -21 -15 -56q47 22 82 68q21 36 27 45zM105 193q-9 -20 -16 -130q4 4 8.5 7.5t10.5 6.5l10 5
t12 4.5t12 3.5t13.5 3t12.5 2.5t14.5 2.5t14.5 3q23 34 34 76.5t7.5 72.5t-19.5 34q-21 5 -63.5 -33t-50.5 -58zM96 29q10 2 35 14q22 11 35 23q-49 -8 -70 -37z" />
    <glyph glyph-name="ydieresis" unicode="&#xff;" horiz-adv-x="341" 
d="M90 530q-18 -7 -21 -24q-9 -30 13 -45q6 -3 17 -3t16 4q16 14 12 46q-3 13 -14 19q-15 5 -23 3zM214 457q17 6 21 23q7 32 -13 45q-5 4 -16.5 4t-16.5 -4q-16 -13 -12 -46q5 -14 14 -19q13 -6 23 -3zM369 241q3 3 8.5 1t10 -8.5t2.5 -11.5q-4 -6 -12 -20
q-28 -49 -62 -107l-33 -57q1 -13 4.5 -51.5t4.5 -64.5t0 -51q-4 -84 -29 -129q-36 -66 -82 -75q-42 -9 -76 6q-33 15 -35.5 60t10.5 82.5t30 69.5q18 32 75 113q15 22 11 53q-1 12 -1.5 74.5t-0.5 68.5q-2 -3 -16.5 -25.5t-28 -45l-19.5 -32.5q-23 -38 -74 -24
q-56 16 -56 110q0 18 11.5 74.5t20.5 75.5q1 1 5.5 13t6.5 14q18 15 46.5 5.5t22.5 -36.5q-28 -108 -30 -155q0 -25 1 -38q0 -24 6 -25q4 0 13 9q12 12 81 120q27 39 32 90l6 29q2 6 4 14q4 12 11 14q10 4 22 6q20 4 40 -9q18 -10 12 -30l-9 -42q-10 -32 -19 -125
q0 -5 -0.5 -15.5t-1.5 -15.5q-1 -8 -1 -17.5t0.5 -21t0.5 -17.5l34.5 57.5t37.5 62t16 27.5zM178 -288q43 26 43 85q0 172 -6 174q-6 -9 -25 -33.5t-25 -33.5q-33 -49 -43 -92t-4.5 -64t16.5 -33q18 -18 44 -3z" />
    <glyph glyph-name="Amacron" unicode="&#x100;" horiz-adv-x="394" 
d="M414 757q-8 2 -13 2q-80 6 -119 7q-17 1 -50 1t-49 1q-8 0 -13.5 -0.5t-14.5 -2t-11.5 -5t-5 -9.5t5.5 -15q3 -4 6.5 -6.5t9 -3.5t9 -1t10.5 0.5t10 0.5l101 3q11 1 33 1t38.5 1t31.5 5q21 4 21 21zM262 690q6 3 10.5 3h6.5t9.5 -3.5t11.5 -4.5q32 -12 32 -46
q0 -23 1.5 -69.5t2.5 -70.5q12 -322 25 -527q0 -1 2 -20.5t1 -33.5t-6 -18q-10 -6 -30.5 -7t-30.5 4q-21 10 -24 64q-8 136 -14 325q-9 -2 -100 -33q-82 -328 -96 -337q-10 -6 -35 -7.5t-28 8.5q-1 5 18.5 68t42 140t27.5 109q-29 -12 -32 4q-3 15 17 23l18 7q2 2 38 98.5
t74.5 198t44.5 112.5q5 8 14 13zM258 318q2 36 1.5 106.5t2.5 156.5l-92 -288z" />
    <glyph glyph-name="amacron" unicode="&#x101;" horiz-adv-x="436" 
d="M334 415q-8 2 -13 2q-81 6 -119 7q-17 1 -50 1t-49 1q-8 0 -13.5 -0.5t-14.5 -2t-11.5 -5t-5 -9.5t5.5 -15q3 -4 6.5 -6.5t9 -3.5t9 -1t10.5 0.5t10 0.5l101 3q11 1 33 1t38.5 1t31.5 5q21 4 21 21zM480 240q4 8 15 -4q7 -8 5 -14l-12 -27q-13 -27 -30 -63.5t-38.5 -81
t-40.5 -81.5t-34.5 -64t-21.5 -30q-32 -16 -60 -2.5t-34 48.5q-3 18 -5 151t-1 143q-11 -19 -29 -56t-30.5 -60t-30 -48.5t-37 -38t-40.5 -12.5q-14 0 -26.5 18.5t-19.5 39.5q-10 35 -10 69q3 89 56 148q25 29 62 33q24 3 52 -8t48 -31q0 1 4 9t5 9q5 6 22 11q26 4 53 -6
q11 -6 11 -12v-9q1 -5 1 -15l1 -62v-124q0 -7 -1 -47t-1 -69t2 -30t42 76t80.5 157t42.5 83zM92 50q11 13 59.5 102t57.5 103q-38 1 -62.5 -16.5t-46.5 -49.5q-23 -30 -31 -72q-14 -76 1 -83q7 -4 22 16z" />
    <glyph glyph-name="Abreve" unicode="&#x102;" horiz-adv-x="394" 
d="M189 805q-6 -5 -4 -13q1 -9 15 -39q14 -31 42 -37t52.5 7t33.5 32q15 35 15 47q0 5 -5.5 7t-12 2t-10.5 -2q-2 -2 -11.5 -30.5t-23.5 -33.5q-26 -7 -38 0q-9 4 -19.5 35t-17.5 32q-12 0 -16 -7zM262 690q6 3 10.5 3h6.5t9.5 -3.5t11.5 -4.5q32 -12 32 -46
q0 -23 1.5 -69.5t2.5 -70.5q12 -322 25 -527q0 -1 2 -20.5t1 -33.5t-6 -18q-10 -6 -30.5 -7t-30.5 4q-21 10 -24 64q-8 136 -14 325q-9 -2 -100 -33q-82 -328 -96 -337q-10 -6 -35 -7.5t-28 8.5q-1 5 18.5 68t42 140t27.5 109q-29 -12 -32 4q-3 15 17 23l18 7q2 2 38 98.5
t74.5 198t44.5 112.5q5 8 14 13zM258 318q2 36 1.5 106.5t2.5 156.5l-92 -288z" />
    <glyph glyph-name="abreve" unicode="&#x103;" horiz-adv-x="436" 
d="M98 461q-6 -5 -4 -13q1 -9 15 -39q14 -31 42 -37t52.5 7t33.5 32q15 35 15 47q0 5 -5.5 7t-12 2t-10.5 -2q-2 -2 -11.5 -30.5t-23.5 -33.5q-26 -7 -38 0q-9 4 -19.5 35t-17.5 32q-12 0 -16 -7zM480 240q4 8 15 -4q7 -8 5 -14l-12 -27q-13 -27 -30 -63.5t-38.5 -81
t-40.5 -81.5t-34.5 -64t-21.5 -30q-32 -16 -60 -2.5t-34 48.5q-3 18 -5 151t-1 143q-11 -19 -29 -56t-30.5 -60t-30 -48.5t-37 -38t-40.5 -12.5q-14 0 -26.5 18.5t-19.5 39.5q-10 35 -10 69q3 89 56 148q25 29 62 33q24 3 52 -8t48 -31q0 1 4 9t5 9q5 6 22 11q26 4 53 -6
q11 -6 11 -12v-9q1 -5 1 -15l1 -62v-124q0 -7 -1 -47t-1 -69t2 -30t42 76t80.5 157t42.5 83zM92 50q11 13 59.5 102t57.5 103q-38 1 -62.5 -16.5t-46.5 -49.5q-23 -30 -31 -72q-14 -76 1 -83q7 -4 22 16z" />
    <glyph glyph-name="Aogonek" unicode="&#x104;" horiz-adv-x="394" 
d="M361 -28q0 -1 2 -20.5t1 -33.5t-6 -18q-16 -10 -48 -6q-23 -29 -29 -42q-13 -26 4 -36q8 -5 29 4q15 8 20 9q5 2 6.5 -1t2.5 -10q3 -17 -7 -26q-7 -7 -36 -12q-26 -3 -45 11q-16 12 -14 42q3 49 40 81q-6 13 -8 47q-8 136 -14 325q-9 -2 -100 -33q-82 -328 -96 -337
q-10 -6 -35 -7.5t-28 8.5q-1 5 18.5 68t42 140t27.5 109q-29 -12 -32 4q-3 15 17 23l18 7q2 2 38 98.5t74.5 198t44.5 112.5q5 8 14 13q6 3 10.5 3h6.5t9.5 -3.5t11.5 -4.5q32 -12 32 -46q0 -23 1.5 -69.5t2.5 -70.5q12 -322 25 -527zM258 318q2 36 1.5 106.5t2.5 156.5
l-92 -288z" />
    <glyph glyph-name="aogonek" unicode="&#x105;" horiz-adv-x="436" 
d="M480 240q4 8 15 -4q7 -8 5 -14l-12 -27q-13 -27 -30 -63.5t-38.5 -81t-40.5 -81.5t-34.5 -64t-21.5 -30q-32 -16 -60 -2.5t-34 48.5q-3 18 -5 151t-1 143q-10 -19 -34 -66t-37.5 -71t-37 -48.5t-47.5 -28.5l-5 -5q-23 -29 -29 -42q-13 -26 4 -36q8 -5 29 4q15 8 20 9
q5 2 6.5 -1t2.5 -10q3 -17 -7 -26q-7 -7 -36 -12q-26 -3 -45 11q-16 12 -14 42q3 49 39 80q-14 17 -22 43q-10 35 -10 69q3 89 56 148q25 29 62 33q24 3 52 -8t48 -31q0 1 4 9t5 9q5 6 22 11q26 4 53 -6q11 -6 11 -12v-9q1 -5 1 -15l1 -62v-124q0 -7 -1 -47t-1 -69t2 -30
t42 76t80.5 157t42.5 83zM92 50q11 13 59.5 102t57.5 103q-38 1 -62.5 -16.5t-46.5 -49.5q-23 -30 -31 -72q-14 -76 1 -83q7 -4 22 16z" />
    <glyph glyph-name="Cacute" unicode="&#x106;" horiz-adv-x="312" 
d="M190 709q4 -1 10 2q4 2 56 37q23 13 39 40q4 8 0.5 13.5t-13.5 3.5q-3 1 -14 -6q-50 -39 -67 -51l-10 -13q-4 -9 -4 -19q-2 -4 3 -7zM321 514q-2 -1 -10 -1q-11 2 -12 17q-1 6 -1 17t-1 16q0 1 -1.5 13t-2.5 18.5t-4.5 15t-8.5 12.5q-17 12 -40 -6q-24 -18 -55 -83
q-52 -108 -62 -260q-4 -60 0 -150q8 -114 36 -169q9 -13 14 -16q26 -12 47 10q9 9 27 46q1 2 3.5 9t4.5 11.5t5.5 8t8.5 2.5q8 -2 12 -6t3.5 -10t-2.5 -11t-5.5 -12.5t-4.5 -9.5q-31 -75 -92 -83q-37 -4 -73 17t-61 54q-66 88 -36 354q4 28 12 67.5t33 107t58 111.5
q51 68 109 86q39 13 72 -20q16 -16 25 -54t8.5 -69t-6.5 -33z" />
    <glyph glyph-name="cacute" unicode="&#x107;" horiz-adv-x="302" 
d="M80 334q4 -1 10 2q3 2 56 37q23 13 39 40q4 8 0.5 13.5t-13.5 3.5q-3 1 -14 -6q-50 -39 -67 -51l-10 -13q-4 -9 -4 -19q-2 -4 3 -7zM301 222q-1 -4 -28 -49q-4 -6 -6 -10q-6 -10 -17.5 -30t-14.5 -26l-47 -81q-15 -24 -22 -30l-1 -1q-16 -17 -38 -20q-52 -7 -85 18
t-40 73q-4 31 -1 69q1 30 24.5 84t62.5 71q24 12 56 4.5t43 -31.5q6 -11 6 -22q-1 -19 -17 0q-4 5 -6 6q-14 11 -29 -1q-30 -25 -42.5 -94t-8.5 -101q2 -23 13 -34.5t32 4.5q34 36 53 66q0 1 36 61t56 92z" />
    <glyph glyph-name="Cdotaccent" unicode="&#x10a;" horiz-adv-x="312" 
d="M179 787q-15 -10 -15 -28q0 -32 24 -40q6 -2 17 0.5t15 8.5q13 18 0 47q-6 13 -18 15q-15 2 -23 -3zM321 514q-2 -1 -10 -1q-11 2 -12 17q-1 6 -1 17t-1 16q0 1 -1.5 13t-2.5 18.5t-4.5 15t-8.5 12.5q-17 12 -40 -6q-24 -18 -55 -83q-52 -108 -62 -260q-4 -60 0 -150
q8 -114 36 -169q9 -13 14 -16q26 -12 47 10q9 9 27 46q1 2 3.5 9t4.5 11.5t5.5 8t8.5 2.5q8 -2 12 -6t3.5 -10t-2.5 -11t-5.5 -12.5t-4.5 -9.5q-31 -75 -92 -83q-37 -4 -73 17t-61 54q-66 88 -36 354q4 28 12 67.5t33 107t58 111.5q51 68 109 86q39 13 72 -20q16 -16 25 -54
t8.5 -69t-6.5 -33z" />
    <glyph glyph-name="cdotaccent" unicode="&#x10b;" horiz-adv-x="302" 
d="M78 407q-15 -10 -15 -28q0 -32 24 -40q6 -2 17 0.5t15 8.5q13 18 0 47q-6 13 -18 15q-15 2 -23 -3zM301 222q-1 -4 -28 -49q-4 -6 -6 -10q-6 -10 -17.5 -30t-14.5 -26l-47 -81q-15 -24 -22 -30l-1 -1q-16 -17 -38 -20q-52 -7 -85 18t-40 73q-4 31 -1 69q1 30 24.5 84
t62.5 71q24 12 56 4.5t43 -31.5q6 -11 6 -22q-1 -19 -17 0q-4 5 -6 6q-14 11 -29 -1q-30 -25 -42.5 -94t-8.5 -101q2 -23 13 -34.5t32 4.5q34 36 53 66q0 1 36 61t56 92z" />
    <glyph glyph-name="Ccaron" unicode="&#x10c;" horiz-adv-x="312" 
d="M180 714q8 -3 18 3q6 4 53 85q12 21 3 27q-8 5 -16 -10q-21 -44 -41 -74q-19 51 -20 53q-1 1 -2 6.5t-3 10t-4 6.5q-6 7 -16 5t-12 -11q-1 -10 9 -25q0 -3 9 -29q1 -3 6 -15.5t7 -19.5q5 -8 9 -12zM321 514q-2 -1 -10 -1q-11 2 -12 17q-1 6 -1 17t-1 16q0 1 -1.5 13
t-2.5 18.5t-4.5 15t-8.5 12.5q-17 12 -40 -6q-24 -18 -55 -83q-52 -108 -62 -260q-4 -60 0 -150q8 -114 36 -169q9 -13 14 -16q26 -12 47 10q9 9 27 46q1 2 3.5 9t4.5 11.5t5.5 8t8.5 2.5q8 -2 12 -6t3.5 -10t-2.5 -11t-5.5 -12.5t-4.5 -9.5q-31 -75 -92 -83q-37 -4 -73 17
t-61 54q-66 88 -36 354q4 28 12 67.5t33 107t58 111.5q51 68 109 86q39 13 72 -20q16 -16 25 -54t8.5 -69t-6.5 -33z" />
    <glyph glyph-name="ccaron" unicode="&#x10d;" horiz-adv-x="302" 
d="M87 347q8 -3 18 3q6 4 53 85q12 21 3 27q-8 5 -16 -10q-21 -44 -41 -74q-19 51 -20 53q-1 1 -2 6.5t-3 10t-4 6.5q-6 7 -16 5t-12 -11q-1 -10 9 -25q0 -3 9 -29q1 -3 6 -15.5t7 -19.5q4 -7 9 -12zM301 222q-1 -4 -28 -49q-4 -6 -6 -10q-6 -10 -17.5 -30t-14.5 -26
l-47 -81q-15 -24 -22 -30l-1 -1q-16 -17 -38 -20q-52 -7 -85 18t-40 73q-4 31 -1 69q1 30 24.5 84t62.5 71q24 12 56 4.5t43 -31.5q6 -11 6 -22q-1 -19 -17 0q-4 5 -6 6q-14 11 -29 -1q-30 -25 -42.5 -94t-8.5 -101q2 -23 13 -34.5t32 4.5q34 36 53 66q0 1 36 61t56 92z" />
    <glyph glyph-name="Dcaron" unicode="&#x10e;" horiz-adv-x="347" 
d="M132 710q8 -3 18 3q6 4 53 85q12 21 3 27q-8 5 -16 -10q-21 -44 -41 -74q-19 51 -20 53q-1 1 -2 6.5t-3 10t-4 6.5q-6 7 -16 5t-12 -11q-1 -10 9 -25q0 -3 9 -29q1 -3 6 -15.5t7 -19.5q5 -8 9 -12zM114 -91q-21 -12 -57.5 -9.5t-47.5 29.5q-9 25 -9 101v152q2 135 7 242
q4 80 7 120q1 18 5 53t5 52q0 8 3 21.5t4 16.5q1 5 28.5 7.5t69.5 -4t86 -23t83 -56.5t55 -97q39 -138 -33 -306q-1 -2 -10.5 -23.5t-16.5 -36.5t-20.5 -42.5t-25.5 -48t-28.5 -46.5t-32.5 -44.5t-35 -34t-37 -23.5zM107 47q0 -77 1 -93q99 84 159 217.5t60 252.5
q0 109 -78 182q-5 5 -10.5 9t-10 7t-11.5 5.5t-10 4t-11.5 3.5t-11 2.5t-12.5 2t-11 1.5t-12.5 1t-12.5 1q-10 1 -16 -1t-8 -9t-2.5 -11.5t0 -17t0.5 -16.5q0 -32 -3 -97.5t-3 -97.5q0 -148 5 -253q1 -16 -2 -93z" />
    <glyph glyph-name="dcaron" unicode="&#x10f;" horiz-adv-x="440" 
d="M468 225q3 3 8.5 1t10 -8.5t2.5 -10.5l-2 -5q-141 -298 -203 -337q-8 -5 -14 -5q-64 0 -63 122v4q2 91 23 194q-1 -1 -11 -25.5t-22.5 -47t-31 -48t-44 -39t-53.5 -9.5q-69 11 -66 92.5t66 144.5q57 54 162 4q4 8 32.5 222.5t33.5 225.5q19 37 68 6q17 -10 8 -32
q-9 -26 -40 -365t-31 -362q0 -34 166 276zM443 697q-36 -62 -39 -67q-12 -19 -12 -48q3 -12 5 -14q5 -1 18 10q4 3 10 13q17 36 34 74q3 8 0 13q-1 9 -4 14.5t-12 4.5zM69 45q25 -12 65.5 46.5t73.5 129.5q-41 5 -82 -36t-58 -86t1 -54z" />
    <glyph glyph-name="Dcroat" unicode="&#x110;" horiz-adv-x="347" 
d="M353 514q39 -138 -33 -306q-1 -2 -10.5 -23.5t-16.5 -36.5t-20.5 -42.5t-25.5 -48t-28.5 -46.5t-32.5 -44.5t-35 -34t-37 -23.5q-21 -12 -57.5 -9.5t-47.5 29.5q-9 25 -9 101v152q0 33 2 101q-22 0 -30 14q-24 38 31 40q1 15 2 44t2 43q4 80 7 120q1 18 5 53t5 52
q0 8 3 21.5t4 16.5q1 5 28.5 7.5t69.5 -4t86 -23t83 -56.5t55 -97zM108 -46q99 84 159 217.5t60 252.5q0 109 -78 182q-5 5 -10.5 9t-10 7t-11.5 5.5t-10 4t-11.5 3.5t-11 2.5t-12.5 2t-11 1.5t-12.5 1t-12.5 1q-10 1 -16 -1t-8 -9t-2.5 -11.5t0 -17t0.5 -16.5
q0 -32 -3 -97.5t-3 -97.5v-57q3 0 11 -0.5t13 -0.5q87 -3 120 -6q6 0 16 -2q0 -22 -26 -28q-35 -8 -99 -11q-6 0 -17.5 -0.5t-16.5 -1.5q0 -48 4 -146q1 -16 -2 -93q0 -77 1 -93z" />
    <glyph glyph-name="dcroat" unicode="&#x111;" horiz-adv-x="488" 
d="M468 225q3 3 8.5 1t10 -8.5t2.5 -10.5l-2 -5q-141 -298 -203 -337q-8 -5 -14 -5q-64 0 -63 122v4q2 91 23 194q-1 -1 -11 -25.5t-22.5 -47t-31 -48t-44 -39t-53.5 -9.5q-69 11 -66 92.5t66 144.5q57 54 162 4q5 9 39 267q-6 0 -20.5 -0.5t-22.5 -0.5q-4 0 -16 -0.5
t-17 -0.5t-12.5 3.5t-11.5 10.5q-16 26 2 33.5t47 6.5q23 -1 57 -1q18 123 21 130q19 37 68 6q17 -10 8 -32q-3 -9 -15 -106q41 -1 88 -5q6 0 16 -2q0 -22 -26 -28q-35 -9 -82 -10q-10 -96 -23 -236t-21 -237t-8 -103q0 -34 166 276zM69 45q25 -12 65.5 46.5t73.5 129.5
q-41 5 -82 -36t-58 -86t1 -54z" />
    <glyph glyph-name="Emacron" unicode="&#x112;" horiz-adv-x="323" 
d="M348 766q-8 2 -13 2q-81 6 -119 7q-17 1 -50 1t-49 1q-8 0 -13.5 -0.5t-14.5 -2t-11.5 -5t-5 -9.5t5.5 -15q3 -4 6.5 -6.5t9 -3.5t9 -1t10.5 0.5t10 0.5l101 3q11 1 33 1t38.5 1t31.5 5q21 4 21 21zM340 689q10 -21 -23 -25q-18 -2 -52.5 -3.5t-42.5 -1.5q-59 -3 -68 -2
q0 -8 -0.5 -17.5t-1.5 -21.5t-1 -18q-1 -9 -2.5 -23.5t-2.5 -27t-1 -23.5q-3 -70 -3 -72q0 -3 18.5 -3.5t42 1t24.5 1.5q27 0 28 -14t-21 -20q-31 -7 -92 -7q-1 -10 -3 -28t-3 -30q-19 -195 -23 -304q0 -10 -1.5 -31t-1.5 -31q2 0 5 0.5t5 1.5h2q23 4 65 15t50 13
q15 4 25.5 -1t-0.5 -19q-5 -7 -33 -18q-14 -5 -40.5 -11t-37.5 -10q-14 -5 -44 -13t-45 -13q-48 -17 -57 10q-3 12 -3 15q-3 24 -1 74q9 253 21 335q3 24 10.5 88t13.5 115t8 62q4 31 20 50q8 10 46 10q43 0 64 1q100 3 118 4q32 3 38 -8z" />
    <glyph glyph-name="emacron" unicode="&#x113;" horiz-adv-x="292" 
d="M273 384q-8 2 -13 2q-80 6 -119 7q-17 1 -50 1t-49 1q-8 0 -13.5 -0.5t-14.5 -2t-11.5 -5t-5 -9.5t5.5 -15q3 -4 6.5 -6.5t9 -3.5t9 -1t10.5 0.5t10 0.5l101 3q11 1 33 1t38.5 1t31.5 5q21 4 21 21zM335 241q3 3 8.5 1t10 -8.5t2.5 -11.5l-12 -20q-42 -72 -62 -108
q-12 -19 -34 -57q-41 -83 -71 -108q-26 -22 -55.5 -19.5t-53 25t-42.5 56t-24 74t3 79.5q10 40 24.5 69.5t30 43t32 21.5t30 6t24.5 -3q25 -7 35 -35.5t-8 -52.5q-11 -15 -43.5 -48.5t-34.5 -36.5q-7 -10 7 -92t35 -82q12 0 68 93l21 33q101 167 109 181zM142 245
q-44 -21 -52 -107q7 5 22.5 21.5t27.5 30.5t13 15q12 16 11 25.5t-8 13.5t-14 1z" />
    <glyph glyph-name="Edotaccent" unicode="&#x116;" horiz-adv-x="323" 
d="M146 786q-15 -10 -15 -28q0 -32 24 -40q6 -2 17 0.5t15 8.5q13 18 0 47q-6 13 -18 15q-15 2 -23 -3zM340 689q10 -21 -23 -25q-18 -2 -52.5 -3.5t-42.5 -1.5q-59 -3 -68 -2q0 -8 -0.5 -17.5t-1.5 -21.5t-1 -18q-1 -9 -2.5 -23.5t-2.5 -27t-1 -23.5q-3 -70 -3 -72
q0 -3 18.5 -3.5t42 1t24.5 1.5q27 0 28 -14t-21 -20q-31 -7 -92 -7q-1 -10 -3 -28t-3 -30q-19 -195 -23 -304q0 -10 -1.5 -31t-1.5 -31q2 0 5 0.5t5 1.5h2q23 4 65 15t50 13q15 4 25.5 -1t-0.5 -19q-5 -7 -33 -18q-14 -5 -40.5 -11t-37.5 -10q-14 -5 -44 -13t-45 -13
q-48 -17 -57 10q-3 12 -3 15q-3 24 -1 74q9 253 21 335q3 24 10.5 88t13.5 115t8 62q4 31 20 50q8 10 46 10q43 0 64 1q100 3 118 4q32 3 38 -8z" />
    <glyph glyph-name="edotaccent" unicode="&#x117;" horiz-adv-x="292" 
d="M71 401q-15 -10 -15 -28q0 -32 24 -40q6 -2 17 0.5t15 8.5q13 18 0 47q-6 13 -18 15q-15 2 -23 -3zM335 241q3 3 8.5 1t10 -8.5t2.5 -11.5l-12 -20q-42 -72 -62 -108q-12 -19 -34 -57q-41 -83 -71 -108q-26 -22 -55.5 -19.5t-53 25t-42.5 56t-24 74t3 79.5
q10 40 24.5 69.5t30 43t32 21.5t30 6t24.5 -3q25 -7 35 -35.5t-8 -52.5q-11 -15 -43.5 -48.5t-34.5 -36.5q-7 -10 7 -92t35 -82q12 0 68 93l21 33q101 167 109 181zM142 245q-44 -21 -52 -107q7 5 22.5 21.5t27.5 30.5t13 15q12 16 11 25.5t-8 13.5t-14 1z" />
    <glyph glyph-name="Eogonek" unicode="&#x118;" horiz-adv-x="323" 
d="M340 689q10 -21 -23 -25q-18 -2 -52.5 -3.5t-42.5 -1.5q-59 -3 -68 -2q0 -8 -0.5 -17.5t-1.5 -21.5t-1 -18q-1 -9 -2.5 -23.5t-2.5 -27t-1 -23.5q-3 -70 -3 -72q0 -3 18.5 -3.5t42 1t24.5 1.5q27 0 28 -14t-21 -20q-31 -7 -92 -7q-1 -10 -3 -28t-3 -30q-19 -195 -23 -304
q0 -10 -1.5 -31t-1.5 -31q2 0 5 0.5t5 1.5h2q23 4 65 15t50 13q15 4 25.5 -1t-0.5 -19q-5 -7 -33 -18q-14 -5 -40.5 -11t-37.5 -10q-4 -2 -7 -2q-1 -3 -6.5 -8t-6.5 -6q-23 -29 -29 -42q-13 -26 4 -36q8 -5 29 4q15 8 20 9q5 2 6.5 -1t2.5 -10q3 -17 -7 -26q-7 -7 -36 -12
q-26 -3 -45 11q-16 12 -14 42q3 33 18 57l-18 -6q-48 -17 -57 10q-3 12 -3 15q-3 24 -1 74q9 253 21 335q3 24 10.5 88t13.5 115t8 62q4 31 20 50q8 10 46 10q43 0 64 1q100 3 118 4q32 3 38 -8z" />
    <glyph glyph-name="eogonek" unicode="&#x119;" horiz-adv-x="292" 
d="M335 241q3 3 8.5 1t10 -8.5t2.5 -11.5l-12 -20q-42 -72 -62 -108q-12 -19 -34 -57q-41 -83 -71 -108q-13 -12 -32 -17q-1 -3 -6 -7t-6 -6q-23 -29 -29 -42q-13 -26 4 -36q8 -5 29 4q15 8 20 9q5 2 6.5 -1t2.5 -10q3 -17 -7 -26q-7 -7 -36 -12q-26 -3 -45 11
q-16 12 -14 42q3 46 36 77q-50 20 -80.5 90.5t-14.5 138.5q10 40 24.5 69.5t30 43t32 21.5t30 6t24.5 -3q25 -7 35 -35.5t-8 -52.5q-11 -15 -43.5 -48.5t-34.5 -36.5q-7 -10 7 -92t35 -82q12 0 68 93l21 33q101 167 109 181zM142 245q-44 -21 -52 -107q7 5 22.5 21.5
t27.5 30.5t13 15q12 16 11 25.5t-8 13.5t-14 1z" />
    <glyph glyph-name="Ecaron" unicode="&#x11a;" horiz-adv-x="323" 
d="M165 706q8 -3 18 3q6 4 53 85q12 21 3 27q-8 5 -16 -10q-21 -44 -41 -74q-19 51 -20 53q-1 1 -2 6.5t-3 10t-4 6.5q-6 7 -16 5t-12 -11q-1 -10 9 -25q0 -3 9 -29q1 -3 6 -15.5t7 -19.5q4 -8 9 -12zM340 689q10 -21 -23 -25q-18 -2 -52.5 -3.5t-42.5 -1.5q-59 -3 -68 -2
q0 -8 -0.5 -17.5t-1.5 -21.5t-1 -18q-1 -9 -2.5 -23.5t-2.5 -27t-1 -23.5q-3 -70 -3 -72q0 -3 18.5 -3.5t42 1t24.5 1.5q27 0 28 -14t-21 -20q-31 -7 -92 -7q-1 -10 -3 -28t-3 -30q-19 -195 -23 -304q0 -10 -1.5 -31t-1.5 -31q2 0 5 0.5t5 1.5h2q23 4 65 15t50 13
q15 4 25.5 -1t-0.5 -19q-5 -7 -33 -18q-14 -5 -40.5 -11t-37.5 -10q-14 -5 -44 -13t-45 -13q-48 -17 -57 10q-3 12 -3 15q-3 24 -1 74q9 253 21 335q3 24 10.5 88t13.5 115t8 62q4 31 20 50q8 10 46 10q43 0 64 1q100 3 118 4q32 3 38 -8z" />
    <glyph glyph-name="ecaron" unicode="&#x11b;" horiz-adv-x="292" 
d="M80 324q8 -3 18 3q6 4 53 85q12 21 3 27q-8 5 -16 -10q-21 -44 -41 -74q-19 51 -20 53q-1 1 -2 6.5t-3 10t-4 6.5q-6 7 -16 5t-12 -11q-1 -10 9 -25q0 -3 9 -29q1 -3 6 -15.5t7 -19.5q5 -8 9 -12zM335 241q3 3 8.5 1t10 -8.5t2.5 -11.5l-12 -20q-42 -72 -62 -108
q-12 -19 -34 -57q-41 -83 -71 -108q-26 -22 -55.5 -19.5t-53 25t-42.5 56t-24 74t3 79.5q10 40 24.5 69.5t30 43t32 21.5t30 6t24.5 -3q25 -7 35 -35.5t-8 -52.5q-11 -15 -43.5 -48.5t-34.5 -36.5q-7 -10 7 -92t35 -82q12 0 68 93l21 33q101 167 109 181zM142 245
q-44 -21 -52 -107q7 5 22.5 21.5t27.5 30.5t13 15q12 16 11 25.5t-8 13.5t-14 1z" />
    <glyph glyph-name="Gbreve" unicode="&#x11e;" horiz-adv-x="393" 
d="M134 808q-6 -5 -4 -13q1 -9 15 -39q14 -31 42 -37t52.5 7t33.5 32q15 35 15 47q0 5 -5.5 7t-12 2t-10.5 -2q-2 -2 -11.5 -30.5t-23.5 -33.5q-26 -7 -38 0q-9 4 -19.5 35t-17.5 32q-12 0 -16 -7zM313 252q4 1 13 3.5t13 4.5q-5 -16 -6 -30q-6 -40 -37 -128
q-1 -3 -10 -29.5t-13 -36t-12.5 -29.5t-18.5 -32.5t-22 -22.5q-17 -15 -35.5 -17t-34.5 15q-6 8 -9 21t-4 21t-2 25t-1 21q-2 29 -4 82t-3 74q-9 118 15 244q11 60 28 110q15 50 35 76q26 31 48.5 18t30.5 -48q1 -3 2 -17.5t2.5 -25.5t7.5 -21t15 -10q5 0 8 3t3.5 9.5t1 12
t0 13t-0.5 8.5q-2 95 -64 118q-61 23 -129 -25q-23 -17 -44 -47q-19 -29 -33 -66.5t-19.5 -60t-15.5 -72.5q-11 -51 -16 -117.5t0.5 -141t22.5 -135t55.5 -98t94.5 -32.5q23 2 44.5 14.5t37.5 29.5t31 43t24.5 47.5t19 51t13.5 46t9.5 39.5t6.5 25q2 9 6.5 23.5t7.5 24.5
t6 23t2.5 18.5t-3.5 10.5q-17 17 -83 -0.5t-73 -27.5q-15 -17 8.5 -19t33.5 3q15 3 47 11z" />
    <glyph glyph-name="gbreve" unicode="&#x11f;" horiz-adv-x="429" 
d="M134 441q-14 30 -15 39q-2 8 4 13q4 7 16 7q7 -1 17.5 -32t19.5 -35q12 -7 38 0q14 5 23.5 33.5t11.5 30.5q4 2 10.5 2t12 -2t5.5 -7q0 -12 -15 -47q-9 -19 -33.5 -32t-52.5 -7t-42 37zM408 241q4 8 15 -4q7 -8 5 -14q-1 -3 -11 -20l-24 -41q-13 -20 -27 -38t-26 -29.5
t-21.5 -20t-16.5 -14.5l-7 -5q-12 -9 -13 -14q19 -274 -2 -340q-11 -34 -38.5 -54.5t-62.5 -19.5h-11.5h-14h-11.5q-68 5 -93 65q-46 104 27 197q35 46 111 132l32 36q0 38 6 156q-33 -53 -79.5 -89t-75.5 -42q-38 -7 -56 21q-10 13 -14 38q-3 53 24 105.5t77 86.5
q47 30 86 23q10 -2 19 -6q27 -11 -10 -30q-1 -1 -2 -1.5t-2 -0.5q-49 -27 -82.5 -69.5t-43 -74t-1.5 -39.5q8 -7 51.5 25t63.5 52q28 26 44.5 51.5t23.5 44.5l7 20q7 11 12 13t17 -1l17 -3q5 -1 5 -7t-5 -34q-20 -134 -20 -203l7 7q8 6 18.5 15t22.5 20.5t25 26.5t23 29z
M206 -296q8 19 11 91t3 135l-1 62q-34 -32 -49 -47t-45.5 -48.5t-45.5 -62t-18 -53.5q-5 -56 34 -103q14 -16 30 -20q25 -5 48 8.5t33 37.5z" />
    <glyph glyph-name="Gdotaccent" unicode="&#x120;" horiz-adv-x="393" 
d="M169 787q-15 -10 -15 -28q0 -32 24 -40q6 -2 17 0.5t15 8.5q13 18 0 47q-6 13 -18 15q-15 2 -23 -3zM313 252q4 1 13 3.5t13 4.5q-5 -16 -6 -30q-6 -40 -37 -128q-1 -3 -10 -29.5t-13 -36t-12.5 -29.5t-18.5 -32.5t-22 -22.5q-17 -15 -35.5 -17t-34.5 15q-6 8 -9 21
t-4 21t-2 25t-1 21q-2 29 -4 82t-3 74q-9 118 15 244q11 60 28 110q15 50 35 76q26 31 48.5 18t30.5 -48q1 -3 2 -17.5t2.5 -25.5t7.5 -21t15 -10q5 0 8 3t3.5 9.5t1 12t0 13t-0.5 8.5q-2 95 -64 118q-61 23 -129 -25q-23 -17 -44 -47q-19 -29 -33 -66.5t-19.5 -60
t-15.5 -72.5q-11 -51 -16 -117.5t0.5 -141t22.5 -135t55.5 -98t94.5 -32.5q23 2 44.5 14.5t37.5 29.5t31 43t24.5 47.5t19 51t13.5 46t9.5 39.5t6.5 25q2 9 6.5 23.5t7.5 24.5t6 23t2.5 18.5t-3.5 10.5q-17 17 -83 -0.5t-73 -27.5q-15 -17 8.5 -19t33.5 3q15 3 47 11z" />
    <glyph glyph-name="gdotaccent" unicode="&#x121;" horiz-adv-x="429" 
d="M169 416q-24 8 -24 40q0 18 15 28q8 5 23 3q12 -2 18 -15q13 -29 0 -47q-4 -6 -15 -8.5t-17 -0.5zM408 241q4 8 15 -4q7 -8 5 -14q-1 -3 -11 -20l-24 -41q-13 -20 -27 -38t-26 -29.5t-21.5 -20t-16.5 -14.5l-7 -5q-12 -9 -13 -14q19 -274 -2 -340q-11 -34 -38.5 -54.5
t-62.5 -19.5h-11.5h-14h-11.5q-68 5 -93 65q-46 104 27 197q35 46 111 132l32 36q0 38 6 156q-33 -53 -79.5 -89t-75.5 -42q-38 -7 -56 21q-10 13 -14 38q-3 53 24 105.5t77 86.5q47 30 86 23q10 -2 19 -6q27 -11 -10 -30q-1 -1 -2 -1.5t-2 -0.5q-49 -27 -82.5 -69.5
t-43 -74t-1.5 -39.5q8 -7 51.5 25t63.5 52q28 26 44.5 51.5t23.5 44.5l7 20q7 11 12 13t17 -1l17 -3q5 -1 5 -7t-5 -34q-20 -134 -20 -203l7 7q8 6 18.5 15t22.5 20.5t25 26.5t23 29zM206 -296q8 19 11 91t3 135l-1 62q-34 -32 -49 -47t-45.5 -48.5t-45.5 -62t-18 -53.5
q-5 -56 34 -103q14 -16 30 -20q25 -5 48 8.5t33 37.5z" />
    <glyph glyph-name="Gcommaaccent" unicode="&#x122;" horiz-adv-x="393" 
d="M313 252q4 1 13 3.5t13 4.5q-5 -16 -6 -30q-6 -40 -37 -128q-1 -3 -10 -29.5t-13 -36t-12.5 -29.5t-18.5 -32.5t-22 -22.5q-17 -15 -35.5 -17t-34.5 15q-6 8 -9 21t-4 21t-2 25t-1 21q-2 29 -4 82t-3 74q-9 118 15 244q11 60 28 110q15 50 35 76q26 31 48.5 18t30.5 -48
q1 -3 2 -17.5t2.5 -25.5t7.5 -21t15 -10q5 0 8 3t3.5 9.5t1 12t0 13t-0.5 8.5q-2 95 -64 118q-61 23 -129 -25q-23 -17 -44 -47q-19 -29 -33 -66.5t-19.5 -60t-15.5 -72.5q-11 -51 -16 -117.5t0.5 -141t22.5 -135t55.5 -98t94.5 -32.5q23 2 44.5 14.5t37.5 29.5t31 43
t24.5 47.5t19 51t13.5 46t9.5 39.5t6.5 25q2 9 6.5 23.5t7.5 24.5t6 23t2.5 18.5t-3.5 10.5q-17 17 -83 -0.5t-73 -27.5q-15 -17 8.5 -19t33.5 3q15 3 47 11zM166 -153q-5 -1 -10 -10q-3 -5 -3 -19q0 -4 1.5 -10.5t1.5 -8.5q1 -7 -9 -27l-3 -6q-2 -5 -2 -7q3 -8 13.5 -3
t16.5 11t14 20q10 22 12 34q2 18 -7 25q-13 7 -25 1z" />
    <glyph glyph-name="gcommaaccent" unicode="&#x123;" horiz-adv-x="379" 
d="M239 433q5 4 7 13q1 7 -3 19q-2 4 -5 9.5t-4 7.5q-3 5 0 29q3 8 1 13q-4 13 -26 -16q-5 -8 -7 -24q-4 -21 -1 -36q4 -17 15 -22q14 -2 23 7zM408 241q4 8 15 -4q7 -8 5 -14q-1 -3 -11 -20l-24 -41q-13 -20 -27 -38t-26 -29.5t-21.5 -20t-16.5 -14.5l-7 -5q-12 -9 -13 -14
q-2 -7 2 -75q1 -19 2.5 -55t1.5 -54q0 -8 1.5 -30t1.5 -33.5t-0.5 -29t-3 -33t-7.5 -30.5q-11 -34 -38.5 -54.5t-62.5 -19.5h-11.5h-14h-11.5q-68 5 -93 65q-46 104 27 197q35 46 111 132q20 21 21 48q1 20 5 70t4 79q-1 -2 -34 -39q-6 -6 -22 -24t-28.5 -30.5t-25.5 -21.5
q-25 -19 -37 -21q-38 -7 -56 21q-10 13 -14 38q-1 14 5.5 48.5t12.5 46.5q18 35 35 55q16 20 48 42q47 30 86 23q10 -2 19 -6q27 -11 -10 -30q-1 -1 -2 -1.5t-2 -0.5q-49 -27 -82.5 -69.5t-43 -74t-1.5 -39.5q8 -7 51.5 25t63.5 52q28 26 44.5 51.5t23.5 44.5l7 20
q7 11 12 13t17 -1l17 -3q5 -1 5 -7t-5 -34q-14 -96 -14 -133l-1 -67q53 40 91 95zM206 -296q13 31 5 163q-1 14 -2 45t-1.5 50.5t-1.5 19.5q-135 -113 -145 -201q-5 -56 34 -103q14 -16 30 -20q25 -5 48 8.5t33 37.5z" />
    <glyph glyph-name="Hbar" unicode="&#x126;" horiz-adv-x="373" 
d="M361 595q-3 -31 -11 -177t-8 -162q0 -52 6 -156q4 -52 5 -78q0 -4 3 -23t3.5 -28.5t-2.5 -20.5q-3 -4 -7 -7q-5 -3 -9.5 -4.5t-7.5 -2t-9 1t-7 2t-8.5 4t-8.5 3.5q-24 11 -36.5 38.5t-14 53t-2 64t-1.5 51.5q-3 47 -3 139q-38 -13 -54 -16q-10 -2 -38 -8t-38 -8l-3 -114
q-1 -18 -4.5 -53.5t-4.5 -53.5q0 -2 -6 -104q-1 -15 -6 -20.5t-19 -6.5q-7 0 -14 -2l-10.5 -3t-10 0.5t-13.5 7.5q-16 12 -16 40q0 10 -3 32.5t-3 35.5q0 152 25 563q1 11 4.5 32.5t5.5 32.5q0 2 1.5 17.5t4.5 20.5q11 15 30 11q11 -2 18.5 -7t16.5 -8q21 -7 21 -33
q-3 -53 -7 -164q0 -15 -1.5 -34t-2.5 -38q15 4 62.5 15t66.5 18q3 22 5 41q8 117 14 179q1 13 2 18.5t6.5 13t14.5 9.5q34 8 60 -9q10 -6 15 -15t5.5 -21.5t0 -21.5t-3 -24.5t-3.5 -20.5zM132 303q11 3 32 8t31 8q24 5 48 12v74q-19 -7 -63 -16t-64 -17q-1 -11 -1.5 -36
t-0.5 -37z" />
    <glyph glyph-name="hbar" unicode="&#x127;" horiz-adv-x="423" 
d="M466 241q3 4 8.5 1.5t10 -9t2.5 -10.5l-12 -20q-3 -6 -19.5 -38t-34 -64.5t-37.5 -67.5t-37 -58t-25 -26q-24 -8 -46 0.5t-34 30.5q-25 48 -31 106q-8 75 15 176q1 5 9 33t9 34q0 11 -12 2q-8 -6 -20 -20q-31 -42 -32 -44q-34 -62 -51 -136q-2 -12 0 -24q2 -8 12 -33
q6 -17 20 -49q1 -2 3 -7t2.5 -6.5t0.5 -5t-2.5 -5.5t-6.5 -4q-26 -12 -58 3q-22 12 -42 49q-9 15 -21 49.5t-25.5 93.5t-11.5 140.5t24 162.5q25 91 69 172q-8 -1 -27 -1q-4 0 -16 -0.5t-17 -0.5t-12.5 3.5t-11.5 10.5q-16 26 2 33.5t47 6.5q27 -1 67 -1q34 51 101 113
q35 30 72 44q32 13 58.5 14.5t42 -4.5t26 -16.5t15 -20t4.5 -16.5q0 -18 -7 -43q-26 -80 -74 -148q-3 -5 -34.5 -52t-48.5 -70q-22 -30 -67 -89t-67 -89q-25 -32 -41 -61q-8 -14 -5 -29q9 -61 14 -75q4 19 16.5 49.5t33 68t52.5 59.5t67 14q14 -3 23 -19t7 -35
q-10 -125 -12 -190q-2 -24 7 -89q4 -31 14 -32q1 0 16 24t35.5 58.5t41 68.5t35.5 60t16 28zM96 341q-1 -2 33 36.5t72 84t47 58.5q28 44 110 162q24 38 43 95q8 25 11 47q5 25 -18 34q-27 12 -62 3t-60 -34q-37 -37 -75 -111q42 -1 88 -5q6 0 16 -2q0 -22 -26 -28
q-35 -8 -99 -11h-1q-28 -66 -49 -139q-8 -27 -25 -133q-3 -13 -5 -57z" />
    <glyph glyph-name="Imacron" unicode="&#x12a;" horiz-adv-x="287" 
d="M299 763q-8 2 -13 2q-80 6 -119 7q-17 1 -50 1t-49 1q-8 0 -13.5 -0.5t-14.5 -2t-11.5 -5t-5 -9.5t5.5 -15q3 -4 6.5 -6.5t9 -3.5t9 -1t10.5 0.5t10 0.5l101 3q11 1 33 1t38.5 1t31.5 5q21 4 21 21zM281 -73q12 0 28 -5.5t13 -18.5q-1 -4 -6.5 -7t-14.5 -3.5t-16.5 -0.5
t-15.5 0.5t-9 0.5q-20 0 -97 -2t-97 0q-53 5 -61 13q-18 19 24 24q25 3 45 1q4 0 13 -1t13 -1q-1 35 0 59q2 41 3 115.5t2 98.5l6 148q1 13 1 39.5v39.5q1 25 3 76.5t4 98t2 53.5q-4 0 -21 1t-24 0q-2 0 -11.5 -1t-16 -0.5t-10.5 4.5q-5 4 -5 12.5t4 13.5q7 9 49 5
q17 -1 46 -1h12q7 0 10 -1h5l53 1q52 1 52 -1q12 -1 18.5 -7.5t-1.5 -18.5q-3 -4 -8.5 -5t-14 0.5t-11.5 1.5q-9 0 -19 -1.5t-14 -1.5q1 -2 0.5 -22t-1.5 -41.5t0 -38.5q3 -37 2 -68q-6 -219 -6 -221q0 -15 -0.5 -91t-1 -143.5t-2.5 -81.5q-1 -4 -1.5 -12t-0.5 -12
q69 3 78 2z" />
    <glyph glyph-name="imacron" unicode="&#x12b;" horiz-adv-x="217" 
d="M145 400q-2 10 -14 13q-14 3 -42 2.5t-42 0.5q-15 1 -27 -5t-5 -19q2 -4 5 -6t7.5 -3t7 -1h8.5h8q56 0 81 1q13 1 13 17zM260 240q4 4 9.5 1.5t9.5 -9t2 -10.5q-8 -14 -12 -20q-20 -36 -62 -108q-4 -8 -7 -11q-22 -34 -51 -59t-46 -27q-38 -5 -54 5q-28 16 -45 86
q-16 64 33 198q8 18 28 11q4 -1 12 -3.5t11.5 -4t8.5 -5t8.5 -9t5.5 -13.5q1 -2 -8 -28q-1 -6 -8 -31q-8 -40 -11 -61q-5 -42 -1 -78q0 -26 9 -32q9 -5 29.5 8.5t27.5 23.5q26 31 28 40l4 5q12 20 32.5 54t32.5 54t14 23z" />
    <glyph glyph-name="Iogonek" unicode="&#x12e;" horiz-adv-x="287" 
d="M281 -73q12 0 28 -5.5t13 -18.5q-1 -4 -6.5 -7t-14.5 -3.5t-16.5 -0.5t-15.5 0.5t-9 0.5q-31 0 -87 -2l-10 -9q-23 -29 -29 -42q-13 -26 4 -36q8 -5 29 4q15 8 20 9q5 2 6.5 -1t2.5 -10q3 -17 -7 -26q-7 -7 -36 -12q-26 -3 -45 11q-16 12 -14 42q3 40 28 69q-37 0 -56 1
q-53 5 -61 13q-18 19 24 24q25 3 45 1q4 0 13 -1t13 -1q-1 35 0 59q2 41 3 115.5t2 98.5l6 148q1 13 1 39.5v39.5q1 25 3 76.5t4 98t2 53.5q-4 0 -21 1t-24 0q-2 0 -11.5 -1t-16 -0.5t-10.5 4.5q-5 4 -5 12.5t4 13.5q7 9 49 5q17 -1 46 -1h12q7 0 10 -1h5l53 1q52 1 52 -1
q12 -1 18.5 -7.5t-1.5 -18.5q-3 -4 -8.5 -5t-14 0.5t-11.5 1.5q-9 0 -19 -1.5t-14 -1.5q1 -2 0.5 -22t-1.5 -41.5t0 -38.5q3 -37 2 -68q-6 -219 -6 -221q0 -15 -0.5 -91t-1 -143.5t-2.5 -81.5q-1 -4 -1.5 -12t-0.5 -12q69 3 78 2z" />
    <glyph glyph-name="iogonek" unicode="&#x12f;" horiz-adv-x="217" 
d="M97 353q-24 6 -26 33q-1 25 10 51q10 24 21 29q1 0 2 1q12 2 49 -25q24 -16 6 -46q-12 -21 -23 -33q-15 -18 -39 -10zM260 240q4 4 9.5 1.5t9.5 -9t2 -10.5q-8 -14 -12 -20q-20 -36 -62 -108q-4 -8 -7 -11q-22 -34 -51 -59t-46 -27h-1q-1 -2 -5.5 -5t-5.5 -5
q-23 -29 -29 -42q-13 -26 4 -36q8 -5 29 4q15 8 20 9q5 2 6.5 -1t2.5 -10q3 -17 -7 -26q-7 -7 -36 -12q-26 -3 -45 11q-16 12 -14 42q3 45 32 73l-5 3q-28 16 -45 86q-16 64 33 198q8 18 28 11q4 -1 12 -3.5t11.5 -4t8.5 -5t8.5 -9t5.5 -13.5q1 -2 -8 -28q-1 -6 -8 -31
q-8 -40 -11 -61q-5 -42 -1 -78q0 -26 9 -32q9 -5 29.5 8.5t27.5 23.5q26 31 28 40l4 5q12 20 32.5 54t32.5 54t14 23z" />
    <glyph glyph-name="Idotaccent" unicode="&#x130;" horiz-adv-x="287" 
d="M128 785q-15 -10 -15 -28q0 -32 24 -40q6 -2 17 0.5t15 8.5q13 18 0 47q-6 13 -18 15q-15 2 -23 -3zM281 -73q12 0 28 -5.5t13 -18.5q-1 -4 -6.5 -7t-14.5 -3.5t-16.5 -0.5t-15.5 0.5t-9 0.5q-20 0 -97 -2t-97 0q-53 5 -61 13q-18 19 24 24q25 3 45 1q4 0 13 -1t13 -1
q-1 35 0 59q2 41 3 115.5t2 98.5l6 148q1 13 1 39.5v39.5q1 25 3 76.5t4 98t2 53.5q-4 0 -21 1t-24 0q-2 0 -11.5 -1t-16 -0.5t-10.5 4.5q-5 4 -5 12.5t4 13.5q7 9 49 5q17 -1 46 -1h12q7 0 10 -1h5l53 1q52 1 52 -1q12 -1 18.5 -7.5t-1.5 -18.5q-3 -4 -8.5 -5t-14 0.5
t-11.5 1.5q-9 0 -19 -1.5t-14 -1.5q1 -2 0.5 -22t-1.5 -41.5t0 -38.5q3 -37 2 -68q-6 -219 -6 -221q0 -15 -0.5 -91t-1 -143.5t-2.5 -81.5q-1 -4 -1.5 -12t-0.5 -12q69 3 78 2z" />
    <glyph glyph-name="dotlessi" unicode="&#x131;" horiz-adv-x="217" 
d="M260 240q4 4 9.5 1.5t9.5 -9t2 -10.5q-8 -14 -12 -20q-20 -36 -62 -108q-4 -8 -7 -11q-22 -34 -51 -59t-46 -27q-38 -5 -54 5q-28 16 -45 86q-16 64 33 198q8 18 28 11q4 -1 12 -3.5t11.5 -4t8.5 -5t8.5 -9t5.5 -13.5q1 -2 -8 -28q-1 -6 -8 -31q-8 -40 -11 -61
q-5 -42 -1 -78q0 -26 9 -32q9 -5 29.5 8.5t27.5 23.5q26 31 28 40l4 5q12 20 32.5 54t32.5 54t14 23z" />
    <glyph glyph-name="Kcommaaccent" unicode="&#x136;" horiz-adv-x="332" 
d="M101 275q19 -8 43.5 -47.5t49.5 -90t52 -100.5t59 -83.5t62 -33.5q18 0 27 21q9 19 -4 19q-2 0 -6 -2q-25 -8 -51.5 21.5t-50.5 79.5t-48 102t-54.5 95.5t-61.5 53.5q51 24 89 57.5t111 112.5q28 30 -4 47q-20 8 -26.5 4t-20.5 -28q-33 -54 -80 -93t-77 -52q0 248 -4 279
q-5 31 -41.5 50t-50.5 -4q-13 -20 -13 -174q-1 -47 0 -132t1 -112q0 -26 -1 -76.5t-1 -76.5q0 -161 8 -185q6 -22 32 -28q37 -9 51 2q4 3 5.5 8t2 8.5t1 10.5t0.5 9q2 28 4 88q1 39 1 94t-1.5 105t-2.5 51zM189 -118q-5 -1 -10 -10q-3 -5 -3 -19q0 -4 1.5 -10.5t1.5 -8.5
q1 -8 -9 -27l-2 -5q-3 -6 -3 -8q3 -8 13.5 -3t16.5 11t14 20q10 22 12 34q2 18 -7 25q-13 7 -25 1z" />
    <glyph glyph-name="kcommaaccent" unicode="&#x137;" horiz-adv-x="423" 
d="M410 237q4 4 9.5 1.5t9.5 -9t2 -10.5q-8 -14 -12 -20q-56 -98 -60 -104q-18 -34 -27.5 -49.5t-22.5 -29t-25 -15.5q-6 -2 -13 0q-37 0 -71 39q-10 12 -27 34t-33.5 39t-45.5 40q3 -3 8 -113q0 -1 1.5 -8.5t1.5 -11v-9t-2.5 -9.5t-7.5 -6q-12 -6 -45.5 10.5t-38.5 30.5
q-8 22 -8 44q0 14 -2 47t-1 50q0 3 9 109q2 19 8.5 53.5t8.5 45.5q6 35 16 70.5t34.5 94t71 110.5t108.5 85q37 20 75.5 21.5t75.5 -20.5q19 -13 31 -46q18 -44 -14 -93q-19 -29 -33 -45q-60 -75 -87 -102q-52 -55 -63 -65l-35 -35q-6 -6 -34 -35t-44 -44q-4 -4 -14 -11
t-13 -10q-8 -8 -8 -47q37 -9 84 25q19 14 35 32q5 6 15 32q2 9 17 4q18 -5 14 -19q-5 -21 -37 -51q-31 -28 -90 -52q57 -47 114 -135q8 -12 13 -17l5 -5l2 -2q1 0 1 -0.5t1 -0.5q5 -1 8 -2.5t8 3.5t7.5 8.5t8 12.5t9 16t10 19t11.5 21q20 32 81 134zM120 402
q-17 -62 -17 -106q75 73 127 128q16 14 34 36q10 11 39.5 47.5t46.5 55.5q40 43 66 96q17 36 -15 57q-32 20 -73 17q-10 -2 -17 -6q-73 -51 -132 -164q-26 -49 -59 -161zM177 -22q9 -7 7 -25q-2 -12 -12 -34q-8 -14 -14 -20t-16.5 -11t-13.5 3q0 2 2 7l3 6q10 19 9 27
q0 2 -1.5 8.5t-1.5 10.5q0 14 3 19q5 9 10 10q12 6 25 -1z" />
    <glyph glyph-name="Lacute" unicode="&#x139;" horiz-adv-x="241" 
d="M52 705q4 -1 10 2q3 2 56 37q23 13 39 40q4 8 0.5 13.5t-13.5 3.5q-3 1 -14 -6q-50 -39 -67 -51l-10 -13q-4 -9 -4 -19q-2 -4 3 -7zM126 -98q28 9 47 14t30.5 9t37.5 13q43 14 53 1q11 -16 -34 -36q-2 -1 -3 -1q-19 -9 -52 -20q-50 -19 -81 -27q-40 -8 -59 5t-34 68
q-8 30 -12 73t-7 109.5t-3 73.5q-9 142 -9 287q0 27 1.5 50.5t5 54.5t5.5 51q0 4 -0.5 18t1 23.5t6.5 16.5q9 12 26 9.5t33 -11.5t24 -18q15 -17 17 -44t-2 -49q-2 -37 8 -298q1 -27 0 -77t-1 -66v-104t2 -125z" />
    <glyph glyph-name="lacute" unicode="&#x13a;" horiz-adv-x="333" 
d="M268 761q4 -1 10 2q3 2 56 37q23 13 39 40q4 8 0.5 13.5t-13.5 3.5q-3 1 -14 -6q-50 -39 -67 -51l-10 -13q-4 -9 -4 -19q-2 -4 3 -7zM376 237q4 3 9.5 1t9.5 -8.5t2 -11.5q-7 -10 -11 -20q-18 -30 -54 -92l-4 -6q-100 -188 -167 -212q-4 -2 -11 -4l-5 -1
q-53 -15 -95 65.5t-49 225.5q-3 61 16 167q26 135 80 239q33 60 63 94q25 28 41 43t44 27t57 6q26 -6 40.5 -25t15.5 -42.5t-3 -48.5q-2 -11 -8 -29l-8 -24q-5 -16 -36 -75q-45 -81 -58 -101q-47 -77 -129 -198q-13 -20 -15 -46q-2 -126 12 -187q7 -32 12 -39
q11 -10 31 -2.5t56.5 50.5t79.5 113zM121 349q-3 -13 -8 -52t-5 -46q8 5 49.5 65.5t53.5 82.5q15 26 41 75.5t33 62.5q28 54 42 101q17 55 0 76q-15 14 -35 10.5t-34 -16.5q-25 -23 -53 -90q-4 -10 -16 -38.5t-17 -44.5q-33 -113 -51 -186z" />
    <glyph glyph-name="Lcommaaccent" unicode="&#x13b;" horiz-adv-x="241" 
d="M126 -98q-2 33 -2 125v104q0 16 1 66t0 77q-10 261 -8 298q4 22 2 49t-17 44q-8 9 -24 18t-33 11.5t-26 -9.5q-5 -7 -6.5 -16.5t-1 -23.5t0.5 -18q-2 -20 -5.5 -51t-5 -54.5t-1.5 -50.5q0 -145 9 -287q0 -7 3 -73.5t7 -109.5t12 -73q15 -55 34 -68t59 -5q31 8 81 27
q33 11 52 20q1 0 3 1q37 16 36 30q0 3 -2 6q-10 13 -53 -1q-26 -9 -37.5 -13t-30.5 -9t-47 -14zM162 -173q-5 -1 -10 -10q-3 -5 -3 -19q0 -4 1.5 -10.5t1.5 -8.5q1 -7 -9 -27l-3 -6q-2 -5 -2 -7q3 -8 13.5 -3t16.5 11t14 20q10 22 12 34q2 18 -7 25q-13 7 -25 1z" />
    <glyph glyph-name="lcommaaccent" unicode="&#x13c;" horiz-adv-x="333" 
d="M376 237q4 3 9.5 1t9.5 -8.5t2 -11.5q-7 -10 -11 -20q-18 -30 -54 -92l-4 -6q-100 -188 -167 -212q-4 -2 -11 -4l-5 -1q-53 -15 -95 65.5t-49 225.5q-3 61 16 167q26 135 80 239q33 60 63 94q25 28 41 43t44 27t57 6q26 -6 40.5 -25t15.5 -42.5t-3 -48.5q-2 -11 -8 -29
l-8 -24q-5 -16 -36 -75q-45 -81 -58 -101q-47 -77 -129 -198q-13 -20 -15 -46q-2 -126 12 -187q7 -32 12 -39q11 -10 31 -2.5t56.5 50.5t79.5 113zM121 349q-3 -13 -8 -52t-5 -46q8 5 49.5 65.5t53.5 82.5q15 26 41 75.5t33 62.5q28 54 42 101q17 55 0 76q-15 14 -35 10.5
t-34 -16.5q-25 -23 -53 -90q-4 -10 -16 -38.5t-17 -44.5q-33 -113 -51 -186zM116 -154q-5 -1 -10 -10q-3 -5 -3 -19q0 -4 1.5 -10.5t1.5 -8.5q1 -8 -9 -27l-3 -5q-2 -6 -2 -8q3 -8 13.5 -3t16.5 11t14 20q10 22 12 34q2 18 -7 25q-13 7 -25 1z" />
    <glyph glyph-name="Lcaron" unicode="&#x13d;" horiz-adv-x="241" 
d="M126 -98q-2 33 -2 125v104q0 16 1 66t0 77q-10 261 -8 298q4 22 2 49t-17 44q-8 9 -24 18t-33 11.5t-26 -9.5q-5 -7 -6.5 -16.5t-1 -23.5t0.5 -18q-2 -20 -5.5 -51t-5 -54.5t-1.5 -50.5q0 -145 9 -287q0 -7 3 -73.5t7 -109.5t12 -73q15 -55 34 -68t59 -5q31 8 81 27
q33 11 52 20q1 0 3 1q37 16 36 30q0 3 -2 6q-10 13 -53 -1q-26 -9 -37.5 -13t-30.5 -9t-47 -14zM210 665q-36 -62 -39 -67q-12 -19 -12 -48q3 -12 5 -14q5 -1 18 10q4 3 10 13q17 36 34 74q3 8 0 13q-1 9 -4 14.5t-12 4.5z" />
    <glyph glyph-name="lcaron" unicode="&#x13e;" horiz-adv-x="333" 
d="M376 237q4 3 9.5 1t9.5 -8.5t2 -11.5q-7 -10 -11 -20q-18 -30 -54 -92l-4 -6q-100 -188 -167 -212q-4 -2 -11 -4l-5 -1q-53 -15 -95 65.5t-49 225.5q-3 61 16 167q26 135 80 239q33 60 63 94q25 28 41 43t44 27t57 6q64 -14 53 -116q-1 -11 -8 -30t-8 -23q-5 -16 -36 -75
q-45 -81 -58 -101q-47 -77 -129 -198q-13 -20 -15 -46q-2 -126 12 -187q7 -32 12 -39q11 -10 31 -2.5t56.5 50.5t79.5 113zM121 349q-3 -13 -8 -52t-5 -46q8 5 49.5 65.5t53.5 82.5q15 26 41 75.5t33 62.5q28 54 42 101q17 55 0 76q-15 14 -35 10.5t-34 -16.5
q-25 -23 -53 -90q-4 -10 -16 -38.5t-17 -44.5q-33 -113 -51 -186zM420 665q-36 -62 -39 -67q-12 -19 -12 -48q3 -12 5 -14q5 -1 18 10q4 3 10 13q17 36 34 74q3 8 0 13q-1 9 -4 14.5t-12 4.5z" />
    <glyph glyph-name="Lslash" unicode="&#x141;" horiz-adv-x="278" 
d="M332 -61q11 -16 -34 -36q-2 -1 -3 -1q-19 -9 -52 -20q-50 -19 -81 -27q-40 -8 -59 5t-34 68q-13 47 -19 179l-29 -39q-8 -10 -20 -8q-9 1 -22 9t-14 16q-2 10 12 29l68 96q-7 120 -7 261q0 27 1.5 50.5t5 54.5t5.5 51q0 4 -0.5 18t1 23.5t6.5 16.5q9 12 26 9.5t33 -11.5
t24 -18q15 -17 17 -44t-2 -49q-1 -29 5 -206q44 60 55 71q6 7 11 11t8 6t7 1t6.5 -2t8 -4.5t9.5 -5.5q23 -11 -2 -47q-10 -16 -100 -137q1 -25 0 -69.5t-1 -58.5v-104t2 -125q28 9 47 14t30.5 9t37.5 13q43 14 53 1z" />
    <glyph glyph-name="lslash" unicode="&#x142;" horiz-adv-x="333" 
d="M376 237q4 3 9.5 1t9.5 -8.5t2 -11.5q-7 -10 -11 -20q-18 -30 -54 -92l-4 -6q-100 -188 -167 -212q-4 -2 -11 -4l-5 -1q-49 -14 -89 55q-25 -35 -26 -35q-6 -7 -14 -7q-7 1 -16.5 7t-10.5 12q-3 9 9 21q1 1 5.5 7t13.5 19.5t17 24.5q-27 77 -33 187q-3 61 16 167
q26 135 80 239q33 60 63 94q25 28 41 43t44 27t57 6q26 -6 40.5 -25t15.5 -42.5t-3 -48.5q-2 -11 -8 -29l-8 -24q-5 -16 -36 -75q-45 -81 -58 -101q-47 -77 -129 -198q-13 -20 -15 -46l-1 -41q0 -40 1 -40q52 72 71 93q5 6 9 9.5t7.5 3.5t5.5 -0.5t7 -4t8 -4.5q15 -8 -2 -34
q-39 -55 -100 -137l6 -32q7 -32 12 -39q11 -10 31 -2.5t56.5 50.5t79.5 113zM121 349q-3 -13 -8 -52t-5 -46q8 5 49.5 65.5t53.5 82.5q15 26 41 75.5t33 62.5q28 54 42 101q17 55 0 76q-15 14 -35 10.5t-34 -16.5q-25 -23 -53 -90q-4 -10 -16 -38.5t-17 -44.5
q-33 -113 -51 -186z" />
    <glyph glyph-name="Nacute" unicode="&#x143;" horiz-adv-x="400" 
d="M143 700q4 -1 10 2q3 2 56 37q23 13 39 40q4 8 0.5 13.5t-13.5 3.5q-3 1 -14 -6q-50 -39 -67 -51l-10 -13q-4 -9 -4 -19q-2 -4 3 -7zM299 46q-1 0 -9.5 26t-19.5 60t-16 52q-10 32 -29.5 95t-29.5 94q-40 124 -63 185q-43 118 -55 131q-4 4 -51 4q-10 0 -12.5 -18
t-3.5 -53v-13q-2 -57 -6 -343.5t-4 -335.5q0 -12 12.5 -17.5t25 1t12.5 24.5q0 48 3.5 277t6.5 248q1 0 6 -13.5t10 -27.5t5 -15l24 -75q38 -119 74 -208q19 -50 40 -90q0 -1 9 -22.5t18.5 -41.5t25.5 -38t32 -19q12 -1 20 0.5t12 5.5t6 10t2.5 13t0.5 14.5v15.5
q0 11 -2.5 300.5t-2.5 361.5v55q-5 7 -17.5 5.5t-17.5 -7.5q-3 -4 -6 -27q0 -10 -0.5 -40.5t-1.5 -47.5q0 -6 0.5 -138t0.5 -260z" />
    <glyph glyph-name="nacute" unicode="&#x144;" horiz-adv-x="394" 
d="M173 376q4 -1 10 2q3 2 56 37q23 13 39 40q4 8 0.5 13.5t-13.5 3.5q-3 1 -14 -6q-50 -39 -67 -51l-10 -13q-4 -9 -4 -19q-2 -4 3 -7zM437 240q4 4 9.5 1.5t9.5 -8.5t2 -11q-10 -17 -11 -20q-20 -33 -41 -70q-9 -16 -20 -38t-20 -42.5t-20 -45t-21 -44.5t-21.5 -40
t-22.5 -32.5t-24 -22t-24.5 -8t-26.5 8.5q-44 29 -40 100t30 141t49.5 129.5t17.5 65.5q-9 9 -57 -39.5t-62 -80.5q-38 -91 -44 -126q-1 -4 -2 -10t-1.5 -9.5t-2.5 -7t-5.5 -6t-9.5 -3.5q-7 -2 -42 -2q-12 0 -23 13q-7 8 -11 27q-6 31 1.5 124t27.5 166q7 24 29 21
q3 -1 9 -1t9 -1q22 -4 28 -14t2 -34l-9 -77q-7 -58 -6 -73q77 119 156 148q34 11 55 -11q20 -23 6 -73q-78 -288 -49 -294q4 0 19.5 27t39.5 73t38 70l59 97z" />
    <glyph glyph-name="Ncommaaccent" unicode="&#x145;" horiz-adv-x="400" 
d="M299 46q-1 0 -9.5 26t-19.5 60t-16 52q-10 32 -29.5 95t-29.5 94q-40 124 -63 185q-43 118 -55 131q-4 4 -51 4q-10 0 -12.5 -18t-3.5 -53v-13q-2 -57 -6 -343.5t-4 -335.5q0 -12 12.5 -17.5t25 1t12.5 24.5q0 48 3.5 277t6.5 248q1 0 6 -13.5t10 -27.5t5 -15l24 -75
q38 -119 74 -208q19 -50 40 -90q0 -1 9 -22.5t18.5 -41.5t25.5 -38t32 -19q12 -1 20 0.5t12 5.5t6 10t2.5 13t0.5 14.5v15.5q0 11 -2.5 300.5t-2.5 361.5v55q-5 7 -17.5 5.5t-17.5 -7.5q-3 -4 -6 -27q0 -10 -0.5 -40.5t-1.5 -47.5q0 -6 0.5 -138t0.5 -260zM163 -105
q-5 -1 -10 -10q-3 -5 -3 -19q0 -4 1.5 -10.5t1.5 -8.5q1 -8 -9 -27l-2 -6q-3 -5 -3 -7q3 -8 13.5 -3t16.5 11t14 20q10 22 12 34q2 18 -7 25q-13 7 -25 1z" />
    <glyph glyph-name="ncommaaccent" unicode="&#x146;" horiz-adv-x="394" 
d="M437 240q4 4 9.5 1.5t9.5 -8.5t2 -11q-10 -17 -11 -20q-20 -33 -41 -70q-9 -16 -20 -38t-20 -42.5t-20 -45t-21 -44.5t-21.5 -40t-22.5 -32.5t-24 -22t-24.5 -8t-26.5 8.5q-44 29 -40 100t30 141t49.5 129.5t17.5 65.5q-9 9 -57 -39.5t-62 -80.5q-38 -91 -44 -126
q-1 -4 -2 -10t-1.5 -9.5t-2.5 -7t-5.5 -6t-9.5 -3.5q-7 -2 -42 -2q-12 0 -23 13q-7 8 -11 27q-6 31 1.5 124t27.5 166q7 24 29 21q3 -1 9 -1t9 -1q22 -4 28 -14t2 -34l-9 -77q-7 -58 -6 -73q77 119 156 148q34 11 55 -11q20 -23 6 -73q-78 -288 -49 -294q4 0 19.5 27
t39.5 73t38 70l59 97zM87 -45q-5 -1 -10 -10q-3 -5 -3 -19q0 -4 1.5 -10.5t1.5 -8.5q1 -7 -9 -27l-2 -6q-3 -5 -3 -7q3 -8 13.5 -3t16.5 11t14 20q10 22 12 34q2 18 -7 25q-13 7 -25 1z" />
    <glyph glyph-name="Ncaron" unicode="&#x147;" horiz-adv-x="400" 
d="M151 702q8 -3 18 3q6 4 53 85q12 21 3 27q-8 5 -16 -10q-21 -44 -41 -74q-19 51 -20 53q-1 1 -2 6.5t-3 10t-4 6.5q-6 7 -16 5t-12 -11q-1 -10 9 -25q0 -3 9 -29q1 -3 6 -15.5t7 -19.5q4 -8 9 -12zM299 46q-1 0 -9.5 26t-19.5 60t-16 52q-10 32 -29.5 95t-29.5 94
q-40 124 -63 185q-43 118 -55 131q-4 4 -51 4q-10 0 -12.5 -18t-3.5 -53v-13q-2 -57 -6 -343.5t-4 -335.5q0 -12 12.5 -17.5t25 1t12.5 24.5q0 48 3.5 277t6.5 248q1 0 6 -13.5t10 -27.5t5 -15l24 -75q38 -119 74 -208q19 -50 40 -90q0 -1 9 -22.5t18.5 -41.5t25.5 -38
t32 -19q12 -1 20 0.5t12 5.5t6 10t2.5 13t0.5 14.5v15.5q0 11 -2.5 300.5t-2.5 361.5v55q-5 7 -17.5 5.5t-17.5 -7.5q-3 -4 -6 -27q0 -10 -0.5 -40.5t-1.5 -47.5q0 -6 0.5 -138t0.5 -260z" />
    <glyph glyph-name="ncaron" unicode="&#x148;" horiz-adv-x="394" 
d="M178 407q8 -3 18 3q6 4 53 85q12 21 3 27q-8 5 -16 -10q-21 -44 -41 -74q-19 51 -20 53q-1 1 -2 6.5t-3 10t-4 6.5q-6 7 -16 5t-12 -11q-1 -10 9 -25q0 -3 9 -29q1 -3 6 -15.5t7 -19.5q5 -7 9 -12zM437 240q4 4 9.5 1.5t9.5 -8.5t2 -11q-10 -17 -11 -20q-20 -33 -41 -70
q-9 -16 -20 -38t-20 -42.5t-20 -45t-21 -44.5t-21.5 -40t-22.5 -32.5t-24 -22t-24.5 -8t-26.5 8.5q-44 29 -40 100t30 141t49.5 129.5t17.5 65.5q-9 9 -57 -39.5t-62 -80.5q-38 -91 -44 -126q-1 -4 -2 -10t-1.5 -9.5t-2.5 -7t-5.5 -6t-9.5 -3.5q-7 -2 -42 -2q-12 0 -23 13
q-7 8 -11 27q-6 31 1.5 124t27.5 166q7 24 29 21q3 -1 9 -1t9 -1q22 -4 28 -14t2 -34l-9 -77q-7 -58 -6 -73q77 119 156 148q34 11 55 -11q20 -23 6 -73q-78 -288 -49 -294q4 0 19.5 27t39.5 73t38 70l59 97z" />
    <glyph glyph-name="Eng" unicode="&#x14a;" horiz-adv-x="401" 
d="M341 647q0 -55 1.5 -241.5t2.5 -352t1 -170.5q0 -161 -87 -185q-69 -20 -127 25q-47 35 -55 68q-4 20 16 23q12 2 21 -6t17.5 -24t12.5 -20q44 -46 83 -44q9 1 15 9t9 21.5t5 28t1.5 33t-1 31.5t-1.5 27t-1 16v15t-1.5 24.5t-4.5 29.5t-10.5 41.5t-18.5 48.5
q-5 11 -19 41.5t-21 47.5q-33 85 -74 209l-24 76q0 1 -5 15t-10 27t-6 13q-3 -19 -6.5 -248t-3.5 -278q0 -18 -12.5 -24.5t-25 -1t-12.5 17.5q0 50 4 337.5t6 343.5q2 71 9 80q3 4 7 4q2 0 11 0.5t16 0.5t14.5 -1t10.5 -4q10 -10 54 -131q24 -61 64 -185q14 -44 58 -190
q43 -139 46 -139v128q-1 129 -1.5 261.5t-0.5 138.5q1 17 1.5 48t0.5 41q3 24 6 27q5 6 17.5 7.5t17.5 -5.5v-55z" />
    <glyph glyph-name="eng" unicode="&#x14b;" horiz-adv-x="395" 
d="M439 255q4 8 16 -3q8 -9 4 -15q-1 -3 -11 -20l-41 -71q-7 -11 -21.5 -39t-29.5 -56t-35.5 -64.5t-41.5 -68t-44.5 -63t-47 -52t-47.5 -32.5t-47.5 -8t-44.5 25q-35 35 -19 109q4 19 24 22q10 1 14.5 -3.5t4 -12.5t-2.5 -16t-4.5 -17.5t-2.5 -13.5q-6 -47 25 -63
q29 -14 55 20.5t34 108.5q5 63 31.5 161t45 163.5t11.5 72.5q-9 9 -57 -39.5t-62 -80.5q-36 -81 -45 -127q0 -3 -1 -9.5t-2 -9t-3 -7t-5.5 -7t-9.5 -3.5q-9 -2 -42 -2q-13 0 -22 13q-8 9 -12 28q-6 30 1.5 123.5t27.5 166.5q7 25 29 21q6 0 18 -2q23 -4 28.5 -13.5
t2.5 -34.5q-4 -25 -10 -77q-7 -54 -6 -73q77 118 156 148q34 13 56 -11q20 -22 6 -73q-78 -289 -49 -295q175 300 176 300z" />
    <glyph glyph-name="Omacron" unicode="&#x14c;" horiz-adv-x="374" 
d="M348 765q-8 2 -13 2q-81 6 -119 7q-17 1 -50 1t-49 1q-8 0 -13.5 -0.5t-14.5 -2t-11.5 -5t-5 -9.5t5.5 -15q3 -4 6.5 -6.5t9 -3.5t9 -1t10.5 0.5t10 0.5l101 3q11 1 33 1t38.5 1t31.5 5q21 4 21 21zM348 339q2 48 -1 86q-2 32 -29 119q-21 75 -58 106q-27 23 -50 30
t-58 4q-27 -1 -42 -15q-24 -24 -51 -88q-51 -127 -57 -240q-3 -82 -1 -140q3 -55 15 -113q4 -25 18 -70q32 -110 126 -94q62 9 87 48q43 63 55 102q41 148 46 265zM200 636q19 6 36.5 -10.5t28.5 -38.5q50 -97 50 -233q0 -85 -37 -218q-49 -183 -101 -159q-26 12 -37 56
q-13 44 -17 85q-9 81 -6 185q3 135 34 247q18 68 43 83z" />
    <glyph glyph-name="omacron" unicode="&#x14d;" horiz-adv-x="348" 
d="M85 380q-3 0 -10 -0.5t-10.5 -0.5t-9 1t-9 3.5t-6.5 6.5q-8 9 -5.5 15t5 9.5t11.5 5t14.5 2t13.5 0.5q16 -1 49 -1t50 -1q39 -1 119 -7q5 0 13 -2q0 -17 -21 -21q-15 -4 -31.5 -5t-38.5 -1t-33 -1zM377 240q4 8 15 -3q8 -8 5 -15q-2 -3 -5.5 -9.5t-5.5 -10.5
q-30 -55 -69.5 -72.5t-72.5 -9.5q-30 -181 -121 -181q-37 0 -64.5 22.5t-39.5 56t-16.5 65t-1.5 55.5q8 54 29.5 92t48 53.5t55 21t50.5 0.5t34 -14q28 -23 34.5 -58t-3.5 -82q66 -11 100 44q25 42 28 45zM216 163q8 31 2 67t-35 25q-20 -7 -4 -49.5t37 -42.5zM124 -30
q24 -2 45 39.5t30 78t9 42.5q-28 11 -43 28.5t-26 63.5q-25 -19 -37.5 -80t-6 -115.5t28.5 -56.5z" />
    <glyph glyph-name="Ohungarumlaut" unicode="&#x150;" horiz-adv-x="374" 
d="M118 703l-1 2l8 16q2 2 5 6.5t6 6.5q22 28 35 51q6 13 20 17q16 7 24 7q4 0 5.5 -2t1 -5.5t-1.5 -6.5t-3.5 -7t-2.5 -5q-16 -32 -46 -62q-15 -15 -32 -20q-15 -6 -18 2zM301 802l-5 -15q-1 -2 -3 -5t-3 -5.5t-2 -5.5q-10 -18 -45 -57q-12 -14 -28 -17q-9 -4 -15.5 0.5
t-2.5 12.5l10 18q1 2 4 6q32 51 61 67l8 4q5 3 12 3t9 -5v-1zM348 339q2 48 -1 86q-2 32 -29 119q-21 75 -58 106q-27 23 -50 30t-58 4q-27 -1 -42 -15q-24 -24 -51 -88q-51 -127 -57 -240q-3 -82 -1 -140q3 -55 15 -113q4 -25 18 -70q32 -110 126 -94q62 9 87 48
q43 63 55 102q41 148 46 265zM200 636q19 6 36.5 -10.5t28.5 -38.5q50 -97 50 -233q0 -85 -37 -218q-49 -183 -101 -159q-26 12 -37 56q-13 44 -17 85q-9 81 -6 185q3 135 34 247q18 68 43 83z" />
    <glyph glyph-name="ohungarumlaut" unicode="&#x151;" horiz-adv-x="348" 
d="M126 357q-15 -6 -18 2l-1 2l8 16q2 2 5 6.5t6 6.5q22 28 35 51q6 13 20 17q16 7 24 7q4 0 5.5 -2t1 -5.5t-1.5 -6.5t-3.5 -7t-2.5 -5q-16 -32 -46 -62q-15 -15 -32 -20zM197 384q32 49 53 65q9 7 20 12q5 3 12 3t9 -5v-1l-5 -15l-8 -16q-10 -18 -45 -57q-12 -14 -28 -17
q-9 -4 -15.5 0.5t-2.5 12.5zM377 240q4 8 15 -3q8 -8 5 -15q-2 -3 -5.5 -9.5t-5.5 -10.5q-30 -55 -69.5 -72.5t-72.5 -9.5q-30 -181 -121 -181q-37 0 -64.5 22.5t-39.5 56t-16.5 65t-1.5 55.5q8 54 29.5 92t48 53.5t55 21t50.5 0.5t34 -14q28 -23 34.5 -58t-3.5 -82
q66 -11 100 44q25 42 28 45zM216 163q8 31 2 67t-35 25q-20 -7 -4 -49.5t37 -42.5zM124 -30q24 -2 45 39.5t30 78t9 42.5q-28 11 -43 28.5t-26 63.5q-25 -19 -37.5 -80t-6 -115.5t28.5 -56.5z" />
    <glyph glyph-name="OE" unicode="&#x152;" horiz-adv-x="565" 
d="M582 690q10 -21 -23 -25q-18 -2 -52.5 -3.5t-42.5 -1.5q-60 -3 -68 -2q0 -19 -4 -57q-4 -51 -5 -74q0 -7 -1.5 -25.5t-2 -32t-0.5 -14.5q1 -2 9 -3t19.5 -1t23 0.5t22 1t12.5 0.5q27 3 28 -14q1 -14 -21 -20q-26 -6 -92 -6q-1 -16 -7 -59q-5 -54 -13.5 -168t-8.5 -137
q0 -7 -2 -28.5t-2 -33.5l13 2q23 4 65 15t50 13q15 4 25.5 -1t-0.5 -19q-6 -8 -34 -18q-14 -5 -40.5 -11.5t-37.5 -9.5q-16 -6 -47 -14.5t-42 -11.5q-48 -17 -57 9q-3 15 -3 16q-1 1 -1 5q-26 -31 -81 -40q-48 -8 -80 18t-47 77q-14 46 -18 70q-13 69 -15 114q-3 58 1 140
q6 113 57 240q26 64 51 89q13 12 42 15q35 3 59 -4t50 -30q17 -14 31 -39q3 15 3 21q6 34 20 50q4 5 10.5 7.5t10 3t13.5 0t12 -0.5q10 0 32 0.5t33 0.5q92 3 118 5q32 3 38 -9zM177 -25q33 -14 65 51v5q9 253 21 337q7 51 21 176q-7 21 -18 43q-32 61 -66 49q-2 0 -6 -2
q-25 -15 -43 -83q-31 -118 -34 -249q-2 -105 6 -185q5 -42 17 -86q13 -45 37 -56z" />
    <glyph glyph-name="oe" unicode="&#x153;" horiz-adv-x="501" 
d="M544 256q4 4 9.5 1.5t9.5 -9t2 -10.5q-8 -14 -12 -20q-20 -37 -62 -109l-34 -57q-8 -18 -30.5 -55.5t-41.5 -53.5q-49 -36 -96 -4t-69 102q-34 -88 -96 -88q-38 0 -65 22.5t-39.5 56t-17 65.5t-1.5 56q8 54 29.5 92t48 53.5t55 21t50.5 0.5t34 -14q26 -21 34 -53
q43 60 103 43q25 -6 34.5 -35t-7.5 -53q-11 -15 -43.5 -48.5t-34.5 -36.5q-7 -10 7 -92.5t34 -82.5q12 0 69 94q17 25 21 33q101 167 109 181zM184 270q-21 -8 -4.5 -50t37.5 -42q8 31 2 66.5t-35 25.5zM351 261q-45 -24 -52 -108q5 4 16 15t20.5 22t18.5 20l8 10
q12 16 11 26t-8 14t-14 1zM124 -16q24 -2 45 38.5t31 81.5l9 41q-29 10 -44 27.5t-25 64.5q-25 -18 -38 -80t-6.5 -116.5t28.5 -56.5z" />
    <glyph glyph-name="Racute" unicode="&#x154;" horiz-adv-x="356" 
d="M139 706q4 -1 10 2q4 2 56 37q23 13 39 40q4 8 0.5 13.5t-13.5 3.5q-3 1 -14 -6q-50 -39 -67 -51l-10 -13q-4 -9 -4 -19q-2 -4 3 -7zM156 339q51 4 91 25.5t61 49.5t34 60.5t16.5 56t1.5 38.5q-5 41 -22 66.5t-49.5 37.5t-68 15t-93.5 2q-56 -2 -67 -4q-36 -8 -36 -81
q0 -63 -12 -332t-12 -313q0 -38 11 -48q4 -4 10 -7q17 -10 50.5 -9.5t35.5 23.5q2 15 2 66v75.5t1 76.5q8 180 8 188q22 -6 47.5 -69t47 -138.5t53.5 -149.5t64 -97q26 -20 47.5 -21.5t53.5 13.5q8 4 14.5 10t10 14.5t-4.5 16.5q-4 3 -10.5 -1t-15 -12t-13.5 -10
q-30 -14 -58 21t-51 98.5t-44.5 131t-48.5 127.5t-54 80zM286 621q12 -24 14 -57t-9 -68.5t-31.5 -66t-57 -50t-82.5 -19.5q4 164 7 189q1 14 1.5 55.5t2.5 57.5q0 2 13.5 3.5t33.5 0t41 -5t40 -14t27 -25.5z" />
    <glyph glyph-name="racute" unicode="&#x155;" horiz-adv-x="324" 
d="M353 240q4 8 16 -3q8 -9 4 -15q-1 -3 -11 -20l-57 -98q-5 -10 -31 -58t-26 -49q-1 -1 -5 -8.5t-5.5 -9.5t-6 -8.5t-7 -9.5t-7 -8t-8 -7t-9 -4.5t-10.5 -3.5q-13 -2 -35 3.5t-29 13.5q-14 17 -20 51q-3 18 3.5 91.5t14.5 98.5q-11 6 -35 24q-31 23 -61 52q-22 20 -23 55.5
t15 56.5q13 19 33 23.5t31.5 1t20.5 -8.5q21 -12 32 -53q8 -32 -5 -75q-6 -19 -13 -30l9 -5q10 -5 20 -9.5t11 -5.5q2 -1 10 -4.5t11.5 -6t9.5 -6.5t10 -8.5t6 -9.5q5 -11 -2 -37q-3 -12 -11.5 -69.5t-7.5 -71.5q0 -16 5 -25q4 -8 10 -6q4 1 40 63t73 128t40 71zM160 305
q-5 3 -3 7q0 10 4 19l10 13q17 12 67 51q11 7 14 6q10 2 13.5 -3.5t-0.5 -13.5q-16 -27 -39 -40q-53 -35 -56 -37q-6 -3 -10 -2zM99 258q17 29 16.5 59t-16.5 49t-37 9q-31 -18 -16.5 -54t53.5 -63z" />
    <glyph glyph-name="Rcommaaccent" unicode="&#x156;" horiz-adv-x="356" 
d="M156 339q51 4 91 25.5t61 49.5t34 60.5t16.5 56t1.5 38.5q-5 41 -22 66.5t-49.5 37.5t-68 15t-93.5 2q-56 -2 -67 -4q-36 -8 -36 -81q0 -63 -12 -332t-12 -313q0 -38 11 -48q4 -4 10 -7q17 -10 50.5 -9.5t35.5 23.5q2 15 2 66v75.5t1 76.5q8 180 8 188q22 -6 47.5 -69
t47 -138.5t53.5 -149.5t64 -97q26 -20 47.5 -21.5t53.5 13.5q8 4 14.5 10t10 14.5t-4.5 16.5q-4 3 -10.5 -1t-15 -12t-13.5 -10q-30 -14 -58 21t-51 98.5t-44.5 131t-48.5 127.5t-54 80zM286 621q12 -24 14 -57t-9 -68.5t-31.5 -66t-57 -50t-82.5 -19.5q4 164 7 189
q1 14 1.5 55.5t2.5 57.5q0 2 13.5 3.5t33.5 0t41 -5t40 -14t27 -25.5zM184 -118q-5 -1 -10 -10q-3 -5 -3 -19q0 -4 1.5 -10.5t1.5 -8.5q1 -8 -9 -27l-3 -5q-2 -6 -2 -8q3 -8 13.5 -3t16.5 11t14 20q10 22 12 34q2 18 -7 25q-13 7 -25 1z" />
    <glyph glyph-name="rcommaaccent" unicode="&#x157;" horiz-adv-x="324" 
d="M353 240q4 8 16 -3q8 -9 4 -15q-1 -3 -11 -20l-57 -98q-5 -10 -31 -58t-26 -49q-1 -1 -5 -8.5t-5.5 -9.5t-6 -8.5t-7 -9.5t-7 -8t-8 -7t-9 -4.5t-10.5 -3.5q-13 -2 -35 3.5t-29 13.5q-14 17 -20 51q-3 18 3.5 91.5t14.5 98.5q-11 6 -35 24q-31 23 -61 52q-22 20 -23 55.5
t15 56.5q13 19 33 23.5t31.5 1t20.5 -8.5q21 -12 32 -53q8 -32 -5 -75q-6 -19 -13 -30l9 -5q10 -5 20 -9.5t11 -5.5q2 -1 10 -4.5t11.5 -6t9.5 -6.5t10 -8.5t6 -9.5q5 -11 -2 -37q-3 -12 -11.5 -69.5t-7.5 -71.5q0 -16 5 -25q4 -8 10 -6q4 1 40 63t73 128t40 71zM99 258
q17 29 16.5 59t-16.5 49t-37 9q-31 -18 -16.5 -54t53.5 -63zM97 -63q9 -7 7 -25q-2 -12 -12 -34q-8 -14 -14 -20t-16.5 -11t-13.5 3q0 2 2 8l3 5q10 19 9 27q0 2 -1.5 8.5t-1.5 10.5q0 14 3 19q5 9 10 10q12 6 25 -1z" />
    <glyph glyph-name="Rcaron" unicode="&#x158;" horiz-adv-x="356" 
d="M155 712q8 -3 18 3q6 4 53 85q12 21 3 27q-8 5 -16 -10q-21 -44 -41 -74q-19 51 -20 53q-1 1 -2 6.5t-3 10t-4 6.5q-6 7 -16 5t-12 -11q-1 -10 9 -25q0 -3 9 -29q1 -3 6 -15.5t7 -19.5q4 -8 9 -12zM156 339q51 4 91 25.5t61 49.5t34 60.5t16.5 56t1.5 38.5
q-5 41 -22 66.5t-49.5 37.5t-68 15t-93.5 2q-56 -2 -67 -4q-36 -8 -36 -81q0 -63 -12 -332t-12 -313q0 -38 11 -48q4 -4 10 -7q17 -10 50.5 -9.5t35.5 23.5q2 15 2 66v75.5t1 76.5q8 180 8 188q22 -6 47.5 -69t47 -138.5t53.5 -149.5t64 -97q26 -20 47.5 -21.5t53.5 13.5
q8 4 14.5 10t10 14.5t-4.5 16.5q-4 3 -10.5 -1t-15 -12t-13.5 -10q-30 -14 -58 21t-51 98.5t-44.5 131t-48.5 127.5t-54 80zM286 621q12 -24 14 -57t-9 -68.5t-31.5 -66t-57 -50t-82.5 -19.5q4 164 7 189q1 14 1.5 55.5t2.5 57.5q0 2 13.5 3.5t33.5 0t41 -5t40 -14t27 -25.5
z" />
    <glyph glyph-name="rcaron" unicode="&#x159;" horiz-adv-x="324" 
d="M122 440q-9 26 -9 29q-10 15 -9 25q2 9 12 11t16 -5q2 -2 4 -6.5t3 -10t2 -6.5q1 -2 20 -53q20 30 41 74q8 15 16 10q9 -6 -3 -27q-47 -81 -53 -85q-10 -6 -18 -3q-4 5 -9 12q-2 7 -7 19.5t-6 15.5zM353 240q4 8 16 -3q8 -9 4 -15q-1 -3 -11 -20l-57 -98q-5 -10 -31 -58
t-26 -49q-1 -1 -5 -8.5t-5.5 -9.5t-6 -8.5t-7 -9.5t-7 -8t-8 -7t-9 -4.5t-10.5 -3.5q-13 -2 -35 3.5t-29 13.5q-14 17 -20 51q-3 18 3.5 91.5t14.5 98.5q-11 6 -35 24q-31 23 -61 52q-22 20 -23 55.5t15 56.5q13 19 33 23.5t31.5 1t20.5 -8.5q21 -12 32 -53q8 -32 -5 -75
q-6 -19 -13 -30l9 -5q10 -5 20 -9.5t11 -5.5q2 -1 10 -4.5t11.5 -6t9.5 -6.5t10 -8.5t6 -9.5q5 -11 -2 -37q-3 -12 -11.5 -69.5t-7.5 -71.5q0 -16 5 -25q4 -8 10 -6q4 1 40 63t73 128t40 71zM99 258q17 29 16.5 59t-16.5 49t-37 9q-31 -18 -16.5 -54t53.5 -63z" />
    <glyph glyph-name="Sacute" unicode="&#x15a;" horiz-adv-x="345" 
d="M127 707q4 -1 10 2q4 2 56 37q23 13 39 40q4 8 0.5 13.5t-13.5 3.5q-3 1 -14 -6q-50 -39 -67 -51l-10 -13q-4 -9 -4 -19q-2 -4 3 -7zM226 445q1 3 5 9.5t5 8.5q10 18 20 44q20 51 -6 94q-15 26 -43 30.5t-52 -14.5q-46 -33 -50 -102q-4 -94 57 -215q32 -68 60 -148
q9 0 56.5 20t89.5 35.5t42 8.5q1 -9 -8.5 -19t-28 -19.5t-30.5 -15t-31 -13.5l-79 -30q8 -33 8 -95q0 -56 -28 -103q-26 -41 -104 -55q-34 -6 -64.5 4.5t-39.5 39.5q-18 56 26 114t105 92q-78 175 -95 237q-45 169 20 275q11 18 38 36q38 24 73 24q17 0 28.5 -2.5t17.5 -5.5
t25 -13q56 -29 52 -131q-1 -26 -19 -66q-7 -17 -16 -29q-21 -24 -32 -9q-5 6 -2 13zM41 -59q7 -35 41 -36q23 -1 41 13.5t26 37.5q11 33 -4 122q-22 -9 -58 -41.5t-44 -69.5q-3 -15 -2 -26z" />
    <glyph glyph-name="sacute" unicode="&#x15b;" horiz-adv-x="300" 
d="M89 470q4 -1 10 2q4 2 56 37q23 13 39 40q4 8 0.5 13.5t-13.5 3.5q-3 1 -14 -6q-50 -39 -67 -51l-10 -13q-4 -9 -4 -19q-2 -4 3 -7zM319 240q4 8 15 -3q8 -8 5 -15q-1 -3 -11 -20q-9 -16 -26 -44.5t-29.5 -51t-14.5 -25.5l-44 -72q3 -5 8.5 -12.5t7.5 -12.5
q25 -48 30 -72q16 -90 -45 -127q-75 -44 -117 -19q-16 9 -22.5 32t-2.5 42q3 16 19.5 47t31.5 54l15 23q-66 114 -80 140q-8 16 -16 31t-14 27t-15 32q-20 43 -14 89.5t25 84t56 56t80 5.5q63 -18 73 -88q8 -54 -10 -95q-23 -43 -40 -35q-3 3 1 11t11 18t8 14q9 24 9 49
q2 54 -42 81q-20 13 -43 10q-24 -3 -38 -17.5t-18.5 -41t7 -68.5t39.5 -96q10 -20 22.5 -41t28.5 -46.5t25 -41.5q16 21 40.5 60t50 82t34.5 56zM196 -163q5 32 -40 99q-3 -3 -22 -27q-14 -19 -24 -40.5t-7.5 -45.5t28.5 -30q8 -2 13 -2q19 0 34 13.5t18 32.5z" />
    <glyph glyph-name="Scedilla" unicode="&#x15e;" horiz-adv-x="345" 
d="M410 216q1 -9 -8.5 -19t-28 -19.5t-30.5 -15t-31 -13.5l-79 -30q8 -33 8 -95q0 -56 -28 -103q-23 -35 -82 -50q-2 -3 -23 -35l8 1l16 2t19 -1t19 -6t14 -14.5t6 -26.5q0 -22 -24.5 -50t-53.5 -31q-51 -4 -61 8q-5 5 -7 15q0 2 -0.5 6t-0.5 6q1 4 9 4q25 -3 30 -2
q48 2 69 33q8 13 -0.5 25t-25.5 8q-9 -2 -23.5 -8.5t-18.5 -7.5t-7.5 0.5t-7.5 4.5l-3 4q-5 4 0 22.5t16 35.5q-63 2 -76 46q-18 56 26 114t105 92q-78 175 -95 237q-45 169 20 275q11 18 38 36q38 24 73 24q17 0 28.5 -2.5t17.5 -5.5t25 -13q56 -29 52 -131q-1 -26 -19 -66
q-7 -17 -16 -29q-21 -24 -32 -9q-5 6 -2 13q1 3 5 9.5t5 8.5q10 18 20 44q20 51 -6 94q-15 26 -43 30.5t-52 -14.5q-46 -33 -50 -102q-4 -94 57 -215q32 -68 60 -148q9 0 56.5 20t89.5 35.5t42 8.5zM149 -44q11 33 -4 122q-22 -9 -58 -41.5t-44 -69.5q-3 -15 -2 -26
q7 -35 41 -36q23 -1 41 13.5t26 37.5z" />
    <glyph glyph-name="scedilla" unicode="&#x15f;" horiz-adv-x="300" 
d="M319 240q4 8 15 -3q8 -8 5 -15q-1 -3 -11 -20q-9 -16 -26 -44.5t-29.5 -51t-14.5 -25.5l-44 -72q3 -5 8.5 -12.5t7.5 -12.5q25 -48 30 -72q16 -90 -45 -127q-16 -9 -37 -17q-5 -9 -16.5 -25.5t-11.5 -17.5l8 1l16 2t19 -1t19 -6t14 -14.5t6 -26.5q0 -22 -24.5 -50
t-53.5 -31q-51 -4 -61 8q-5 5 -7 15q0 2 -0.5 6t-0.5 6q1 4 9 4q25 -2 30 -2q48 2 69 33q8 13 -0.5 25t-25.5 8q-9 -2 -23.5 -8.5t-18.5 -7.5t-7.5 0.5t-7.5 5.5l-3 3q-5 5 1 24.5t18 38.5q-18 2 -28 8q-16 9 -22.5 32t-2.5 42q3 16 19.5 47t31.5 54l15 23q-66 114 -80 140
q-8 16 -16 31t-14 27t-15 32q-20 43 -14 89.5t25 84t56 56t80 5.5q63 -18 73 -88q8 -54 -10 -95q-23 -43 -40 -35q-3 3 1 11t11 18t8 14q9 24 9 49q2 54 -42 81q-20 13 -43 10q-24 -3 -38 -17.5t-18.5 -41t7 -68.5t39.5 -96q10 -20 22.5 -41t28.5 -46.5t25 -41.5
q16 21 40.5 60t50 82t34.5 56zM196 -163q5 32 -40 99q-3 -3 -22 -27q-14 -19 -24 -40.5t-7.5 -45.5t28.5 -30q8 -2 13 -2q19 0 34 13.5t18 32.5z" />
    <glyph glyph-name="Scaron" unicode="&#x160;" horiz-adv-x="345" 
d="M137 703q8 -3 18 3q6 4 53 85q12 21 3 27q-8 5 -16 -10q-21 -44 -41 -74q-19 51 -20 53q-1 1 -2 6.5t-3 10t-4 6.5q-6 7 -16 5t-12 -11q-1 -10 9 -25q0 -3 9 -29q1 -3 6 -15.5t7 -19.5q4 -7 9 -12zM226 445q1 3 5 9.5t5 8.5q10 18 20 44q20 51 -6 94q-15 26 -43 30.5
t-52 -14.5q-46 -33 -50 -102q-4 -94 57 -215q32 -68 60 -148q9 0 56.5 20t89.5 35.5t42 8.5q1 -9 -8.5 -19t-28 -19.5t-30.5 -15t-31 -13.5l-79 -30q8 -33 8 -95q0 -56 -28 -103q-26 -41 -104 -55q-34 -6 -64.5 4.5t-39.5 39.5q-18 56 26 114t105 92q-78 175 -95 237
q-45 169 20 275q11 18 38 36q38 24 73 24q17 0 28.5 -2.5t17.5 -5.5t25 -13q56 -29 52 -131q-1 -26 -19 -66q-7 -17 -16 -29q-21 -24 -32 -9q-5 6 -2 13zM41 -59q7 -35 41 -36q23 -1 41 13.5t26 37.5q11 33 -4 122q-22 -9 -58 -41.5t-44 -69.5q-3 -15 -2 -26z" />
    <glyph glyph-name="scaron" unicode="&#x161;" horiz-adv-x="300" 
d="M96 474q8 -3 18 3q6 4 53 85q12 21 3 27q-8 5 -16 -10q-21 -44 -41 -74q-19 51 -20 53q-1 1 -2 6.5t-3 10t-4 6.5q-6 7 -16 5t-12 -11q-1 -10 9 -25q0 -3 9 -29q1 -3 6 -15.5t7 -19.5q5 -8 9 -12zM319 240q4 8 15 -3q8 -8 5 -15q-1 -3 -11 -20q-9 -16 -26 -44.5
t-29.5 -51t-14.5 -25.5l-44 -72q3 -5 8.5 -12.5t7.5 -12.5q25 -48 30 -72q16 -90 -45 -127q-75 -44 -117 -19q-16 9 -22.5 32t-2.5 42q3 16 19.5 47t31.5 54l15 23q-66 114 -80 140q-8 16 -16 31t-14 27t-15 32q-20 43 -14 89.5t25 84t56 56t80 5.5q63 -18 73 -88
q8 -54 -10 -95q-23 -43 -40 -35q-3 3 1 11t11 18t8 14q9 24 9 49q2 54 -42 81q-20 13 -43 10q-24 -3 -38 -17.5t-18.5 -41t7 -68.5t39.5 -96q10 -20 22.5 -41t28.5 -46.5t25 -41.5q16 21 40.5 60t50 82t34.5 56zM196 -163q5 32 -40 99q-3 -3 -22 -27q-14 -19 -24 -40.5
t-7.5 -45.5t28.5 -30q8 -2 13 -2q19 0 34 13.5t18 32.5z" />
    <glyph glyph-name="uni0162" unicode="&#x162;" horiz-adv-x="373" 
d="M478 666q1 -6 -4.5 -10.5t-15.5 -6.5t-18.5 -3t-19 -1h-12.5t-27.5 2.5t-49.5 4.5t-24 1q-2 -12 -1 -35.5t0 -36.5q-1 -16 -1 -44v-44q-1 -30 -3.5 -90t-3.5 -90q-1 -15 -4 -75t-3 -92q1 -45 9 -133q4 -67 5 -98q0 -6 2.5 -21t2.5 -23q0 -22 -20 -23q-9 0 -19 8l-17 -25
l8 1l16 2t19 -1t19 -6t14 -14.5t6 -26.5q0 -22 -24.5 -50t-53.5 -31q-51 -4 -61 8q-5 5 -7 15q0 2 -0.5 6t-0.5 6q1 4 9 4q25 -2 30 -2q48 2 69 33q8 13 -0.5 25t-25.5 8q-9 -2 -23.5 -8.5t-18.5 -7.5t-7.5 0.5t-7.5 5.5l-3 3q-7 7 6 37.5t29 45.5l-8 14q-38 81 -43 150
q-19 321 13 563q4 22 2 36q-2 5 -4 6l-33 1q-33 1 -65 3l-33 2q-37 3 -43 8q-8 8 -3.5 14.5t14.5 8.5q16 4 43 4.5t66.5 -1.5t59.5 -2q139 0 178 -4q3 0 14.5 -0.5l23 -1t23 -2.5t19 -6.5t8.5 -10.5z" />
    <glyph glyph-name="uni0163" unicode="&#x163;" horiz-adv-x="378" 
d="M394 565q13 12 22 15.5t12 1t4 -9.5t0.5 -12t-1.5 -9q-8 -31 -63 -46.5t-106 -15.5h-51q-11 -33 -22 -135.5t-13 -162.5v-86q0 -42 3 -84q2 -28 7 -49q3 -13 6 -15t13 3q35 27 68 79q8 12 12 19l108 180q4 4 9.5 1.5t9.5 -9t2 -10.5q-10 -17 -11 -20l-63 -108
q-7 -15 -18 -32l-38 -67q-64 -103 -101 -105q-3 -5 -7 -11t-8 -11l-3 -5l8 1l16 2t19 -1t19 -6t14 -14.5t6 -26.5q0 -22 -24.5 -50t-53.5 -31q-51 -4 -61 8q-5 5 -7 15q0 2 -0.5 6t-0.5 6q1 4 9 4q25 -2 30 -2q48 2 69 33q8 13 -0.5 25t-25.5 8q-9 -2 -23.5 -8.5t-18.5 -7.5
t-7.5 0.5t-6.5 5.5l-4 3q-5 5 2 26.5t19 39.5q-16 9 -28.5 30.5t-16 33.5t-11.5 42q-7 24 -10 55.5t-3 53t0.5 61t0.5 52.5q0 38 17 139.5t23 123.5q-45 6 -74 5t-45 -21q-2 -2 -4 -5t-3 -5t-3.5 -3t-5.5 1q-8 3 -13 21q-10 32 28.5 44t82.5 7l44 -4q9 29 19 85t17 70
q6 12 12.5 16.5t15 2t15 -6.5t17.5 -11.5t17 -11.5q15 -9 16.5 -18.5t-6.5 -26.5q-10 -26 -22 -100q27 -4 86.5 6t84.5 32z" />
    <glyph glyph-name="Tcaron" unicode="&#x164;" horiz-adv-x="373" 
d="M218 708q8 -3 18 3q6 4 53 85q12 21 3 27q-8 5 -16 -10q-21 -44 -41 -74q-19 51 -20 53q-1 1 -2 6.5t-3 10t-4 6.5q-6 7 -16 5t-12 -11q-1 -10 9 -25q0 -3 9 -29q1 -3 6 -15.5t7 -19.5q5 -8 9 -12zM210 647q-2 5 -4 6l-33 1q-33 1 -65 3l-33 2q-37 3 -43 8
q-8 8 -3.5 14.5t14.5 8.5q16 4 43 4.5t66.5 -1.5t59.5 -2q139 0 178 -4q3 0 14.5 -0.5l23 -1t23 -2.5t19 -6.5t8.5 -10.5t-4.5 -10.5t-15.5 -6.5t-18.5 -3t-19 -1h-12.5t-27.5 2.5t-49.5 4.5t-24 1q-2 -12 -1 -35.5t0 -36.5q-1 -16 -1 -44v-44q-1 -30 -3.5 -90t-3.5 -90
q-1 -15 -4 -75t-3 -92q1 -45 9 -133q4 -67 5 -98q0 -6 2.5 -21t2.5 -23q0 -22 -20 -23q-16 0 -32 20q-9 11 -20 30q-38 81 -43 150q-19 321 13 563q4 22 2 36z" />
    <glyph glyph-name="tcaron" unicode="&#x165;" horiz-adv-x="378" 
d="M394 565q13 12 22 15.5t12 1t4 -9.5t0.5 -12t-1.5 -9q-8 -31 -63 -46.5t-106 -15.5h-51q-11 -33 -22 -135.5t-13 -162.5v-86q0 -42 3 -84q2 -28 7 -49q3 -13 6 -15t13 3q35 27 68 79q8 12 12 19l108 180q4 4 9.5 1.5t9.5 -9t2 -10.5q-10 -17 -11 -20l-63 -108
q-7 -15 -18 -32l-38 -68q-64 -103 -101 -104q-19 -1 -34.5 7t-24.5 17t-17.5 29.5t-11 29.5t-8.5 32q-7 24 -10 55.5t-3 53t0.5 61t0.5 52.5q0 38 17 139.5t23 123.5q-45 6 -74 5t-45 -21q-2 -2 -4 -5t-3 -5t-3.5 -3t-5.5 1q-8 3 -13 21q-10 32 28.5 44t82.5 7l44 -4
q9 29 19 85t17 70q6 12 12.5 16.5t15 2t15 -6.5t17.5 -11.5t17 -11.5q15 -9 16.5 -18.5t-6.5 -26.5q-10 -26 -22 -100q27 -4 86.5 6t84.5 32zM335 688q-36 -62 -39 -67q-12 -19 -12 -48q3 -13 5 -14q5 -1 18 10q4 3 10 13q17 36 34 74q3 8 0 13q-1 9 -4 14.5t-12 4.5z" />
    <glyph glyph-name="Tbar" unicode="&#x166;" horiz-adv-x="373" 
d="M478 666q1 -6 -4.5 -10.5t-15.5 -6.5t-18.5 -3t-19 -1h-12.5t-27.5 2.5t-49.5 4.5t-24 1q-2 -12 -1 -35.5t0 -36.5q-1 -14 -1 -39.5v-40.5l70 -4q6 0 16 -2q0 -22 -26 -28q-36 -8 -61 -9l-6 -145q-1 -15 -4 -75t-3 -92q1 -45 9 -133q4 -67 5 -98q0 -6 2.5 -21t2.5 -23
q0 -22 -20 -23q-16 0 -32 20q-9 11 -20 30q-38 81 -43 150q-12 209 -1 405q-6 0 -18.5 -0.5t-19.5 -0.5q-4 0 -16 -0.5t-17 -0.5t-12.5 3.5t-11.5 10.5q-16 26 2 33.5t47 6.5q19 -1 49 -1q4 47 11 107q4 22 2 36q-2 5 -4 6l-33 1q-33 1 -65 3l-33 2q-37 3 -43 8
q-8 8 -3.5 14.5t14.5 8.5q16 4 43 4.5t66.5 -1.5t59.5 -2q139 0 178 -4q3 0 14.5 -0.5l23 -1t23 -2.5t19 -6.5t8.5 -10.5z" />
    <glyph glyph-name="tbar" unicode="&#x167;" horiz-adv-x="378" 
d="M394 565q13 12 22 15.5t12 1t4 -9.5t0.5 -12t-1.5 -9q-8 -31 -63 -46.5t-106 -15.5h-51q-12 -34 -23 -146q66 -2 103 -5q6 0 16 -2q0 -22 -26 -28q-35 -8 -98 -11q-4 -48 -7 -106v-86q0 -42 3 -84q2 -28 7 -49q3 -13 6 -15t13 3q35 27 68 79q8 12 12 19l108 180
q4 4 9.5 1.5t9.5 -9t2 -10.5q-10 -17 -11 -20l-63 -108q-7 -15 -18 -32l-38 -68q-64 -103 -101 -104q-19 -1 -34.5 7t-24.5 17t-17.5 29.5t-11 29.5t-8.5 32q-7 24 -10 55.5t-3 53t0.5 61t0.5 52.5q0 26 6 68h-9q-4 0 -16 -0.5t-17 -0.5t-12.5 3.5t-11.5 10.5q-16 26 2 33.5
t47 6.5q5 0 13 -0.5t12 -0.5q17 114 26 143q-45 6 -74 5t-45 -21q-2 -2 -4 -5t-3 -5t-3.5 -3t-5.5 1q-8 3 -13 21q-10 32 28.5 44t82.5 7l44 -4q9 29 19 85t17 70q6 12 12.5 16.5t15 2t15 -6.5t17.5 -11.5t17 -11.5q15 -9 16.5 -18.5t-6.5 -26.5q-10 -26 -22 -100
q27 -4 86.5 6t84.5 32z" />
    <glyph glyph-name="Umacron" unicode="&#x16a;" horiz-adv-x="390" 
d="M348 769q-8 2 -13 2q-81 6 -119 7q-17 1 -50 1t-49 1q-8 0 -13.5 -0.5t-14.5 -2t-11.5 -5t-5 -9.5t5.5 -15q3 -4 6.5 -6.5t9 -3.5t9 -1t10.5 0.5t10 0.5l101 3q11 1 33 1t38.5 1t31.5 5q21 4 21 21zM182 -36q25 0 45.5 29.5t34 75.5t23 102t15.5 107.5t10 93.5q1 17 2 24
q4 48 8.5 142t6.5 127q0 5 -0.5 14t0 11.5t4.5 6t13 4.5q21 3 24 -1.5t1 -31.5q-4 -42 -6.5 -138.5t-7.5 -148.5q0 -2 -3 -33.5t-5.5 -54.5t-7.5 -64.5t-12 -73t-16.5 -71t-22.5 -68t-28.5 -54t-36 -39t-44.5 -13.5q-50 0 -87.5 52t-56.5 130t-28 171t-7.5 175t9.5 141
q3 25 3 52q0 4 -1 17t-0.5 19.5t5 14t14.5 9.5q15 3 44 -3t38 -16q9 -9 11 -19q1 -25 4 -86t3 -85t-4 -85q-4 -41 -5 -134.5t13 -196t48 -102.5z" />
    <glyph glyph-name="umacron" unicode="&#x16b;" horiz-adv-x="383" 
d="M294 486q-8 2 -13 2q-81 6 -119 7q-17 1 -50 1t-49 1q-8 0 -13.5 -0.5t-14.5 -2t-11.5 -5t-5 -9.5t5.5 -15q3 -4 6.5 -6.5t9 -3.5t9 -1t10.5 0.5t10 0.5l101 3q11 1 33 1t38.5 1t31.5 5q21 4 21 21zM421 241q4 3 9.5 1t9.5 -8.5t2 -10.5q-8 -14 -12 -20q-20 -36 -62 -108
q-16 -28 -22 -38l-14 -24q0 -1 -1 -2q-26 -42 -42 -55t-37 -13q-64 0 -64 235q-1 -1 -8 -14.5t-16 -28.5t-24 -31.5t-30 -26.5t-35 -9.5t-39 15.5q-33 25 -35 81q-3 50 3 99q1 11 2 36t3 38q2 11 9.5 17t14 7.5t21.5 2.5q18 1 25 -5t9 -24q1 -4 1 -12q-4 -113 -5 -172
q-1 -24 8 -36t27 9q46 67 79 162q9 24 7 44q-1 23 25 28q25 5 53 -5q11 -4 11.5 -49t-5 -123t-5.5 -97q0 -4 -1 -17q-3 -60 4 -60l3 1q7 7 21 29q0 1 2 3q11 19 58.5 98.5t49.5 82.5z" />
    <glyph glyph-name="Uring" unicode="&#x16e;" horiz-adv-x="390" 
d="M268 749q2 23 -14 37q-16 18 -39 18q-10 0 -18 -5q-18 -8 -29 -26q-11 -15 -9 -35.5t17 -33.5q15 -12 35 -10.5t34 14.5q20 17 23 41zM194 723q-8 4 -10 17t2 21q8 24 30 22q14 -1 20 -9.5t1 -21.5q-3 -11 -16 -22t-23 -8zM182 -36q25 0 45.5 29.5t34 75.5t23 102
t15.5 107.5t10 93.5q1 17 2 24q4 48 8.5 142t6.5 127q0 5 -0.5 14t0 11.5t4.5 6t13 4.5q21 3 24 -1.5t1 -31.5q-4 -42 -6.5 -138.5t-7.5 -148.5q0 -2 -3 -33.5t-5.5 -54.5t-7.5 -64.5t-12 -73t-16.5 -71t-22.5 -68t-28.5 -54t-36 -39t-44.5 -13.5q-50 0 -87.5 52t-56.5 130
t-28 171t-7.5 175t9.5 141q3 25 3 52q0 4 -1 17t-0.5 19.5t5 14t14.5 9.5q15 3 44 -3t38 -16q9 -9 11 -19q1 -25 4 -86t3 -85t-4 -85q-4 -41 -5 -134.5t13 -196t48 -102.5z" />
    <glyph glyph-name="uring" unicode="&#x16f;" horiz-adv-x="383" 
d="M206 477q2 23 -14 37q-16 18 -39 18q-10 0 -18 -5q-18 -8 -29 -26q-11 -15 -9 -35.5t17 -33.5q15 -12 35 -10.5t34 14.5q20 17 23 41zM132 451q-8 4 -10 17t2 21q8 24 30 22q14 -1 20 -9.5t1 -21.5q-3 -11 -16 -22t-23 -8zM421 241q4 3 9.5 1t9.5 -8.5t2 -10.5
q-8 -14 -12 -20q-20 -36 -62 -108q-16 -28 -22 -38l-14 -24q0 -1 -1 -2q-26 -42 -42 -55t-37 -13q-64 0 -64 235q-1 -1 -8 -14.5t-16 -28.5t-24 -31.5t-30 -26.5t-35 -9.5t-39 15.5q-33 25 -35 81q-3 50 3 99q1 11 2 36t3 38q2 11 9.5 17t14 7.5t21.5 2.5q18 1 25 -5t9 -24
q1 -4 1 -12q-4 -113 -5 -172q-1 -24 8 -36t27 9q46 67 79 162q9 24 7 44q-1 23 25 28q25 5 53 -5q11 -4 11.5 -49t-5 -123t-5.5 -97q0 -4 -1 -17q-3 -60 4 -60l3 1q7 7 21 29q0 1 2 3q11 19 58.5 98.5t49.5 82.5z" />
    <glyph glyph-name="Uhungarumlaut" unicode="&#x170;" horiz-adv-x="390" 
d="M132 690l-1 2l8 16q2 2 5 6.5t6 6.5q22 28 35 51q6 13 20 17q16 7 24 7q4 0 5.5 -2t1 -5.5t-1.5 -6.5t-3.5 -7t-2.5 -5q-16 -32 -46 -62q-15 -15 -32 -20q-15 -6 -18 2zM315 789l-5 -15l-8 -16q-10 -18 -45 -57q-12 -14 -28 -17q-9 -4 -15.5 0.5t-2.5 12.5l10 18q1 2 4 6
q32 51 61 67l8 4q5 3 12 3t9 -5v-1zM182 -36q25 0 45.5 29.5t34 75.5t23 102t15.5 107.5t10 93.5q1 17 2 24q4 48 8.5 142t6.5 127q0 5 -0.5 14t0 11.5t4.5 6t13 4.5q21 3 24 -1.5t1 -31.5q-4 -42 -6.5 -138.5t-7.5 -148.5q0 -2 -3 -33.5t-5.5 -54.5t-7.5 -64.5t-12 -73
t-16.5 -71t-22.5 -68t-28.5 -54t-36 -39t-44.5 -13.5q-50 0 -87.5 52t-56.5 130t-28 171t-7.5 175t9.5 141q3 25 3 52q0 4 -1 17t-0.5 19.5t5 14t14.5 9.5q15 3 44 -3t38 -16q9 -9 11 -19q1 -25 4 -86t3 -85t-4 -85q-4 -41 -5 -134.5t13 -196t48 -102.5z" />
    <glyph glyph-name="uhungarumlaut" unicode="&#x171;" horiz-adv-x="383" 
d="M85 435l-1 2l8 16q2 2 5 6.5t6 6.5q22 28 35 51q6 13 20 17q16 7 24 7q4 0 5.5 -2t1 -5.5t-1.5 -6.5t-3.5 -7t-2.5 -5q-16 -32 -46 -62q-15 -15 -32 -20q-15 -6 -18 2zM268 534l-5 -15l-8 -16q-10 -18 -45 -57q-12 -14 -28 -17q-9 -4 -15.5 0.5t-2.5 12.5l10 18
q32 49 53 65q9 7 20 12q5 3 12 3t9 -5v-1zM421 241q4 3 9.5 1t9.5 -8.5t2 -10.5q-8 -14 -12 -20q-20 -36 -62 -108q-16 -28 -22 -38l-14 -24q0 -1 -1 -2q-26 -42 -42 -55t-37 -13q-64 0 -64 235q-1 -1 -8 -14.5t-16 -28.5t-24 -31.5t-30 -26.5t-35 -9.5t-39 15.5
q-33 25 -35 81q-3 50 3 99q1 11 2 36t3 38q2 11 9.5 17t14 7.5t21.5 2.5q18 1 25 -5t9 -24q1 -4 1 -12q-4 -113 -5 -172q-1 -24 8 -36t27 9q46 67 79 162q9 24 7 44q-1 23 25 28q25 5 53 -5q11 -4 11.5 -49t-5 -123t-5.5 -97q0 -4 -1 -17q-3 -60 4 -60l3 1q7 7 21 29
q0 1 2 3q11 19 58.5 98.5t49.5 82.5z" />
    <glyph glyph-name="Uogonek" unicode="&#x172;" horiz-adv-x="390" 
d="M344 701q21 3 24 -1.5t1 -31.5q-4 -42 -6.5 -138.5t-7.5 -148.5q0 -3 -3.5 -37.5t-6 -60.5t-9.5 -71t-14 -80t-19.5 -76t-27 -68.5t-35 -49t-44.5 -26.5l-2 -2q-23 -29 -29 -42q-13 -26 4 -36q8 -5 29 4q15 8 20 9q5 2 6.5 -1t2.5 -10q3 -17 -7 -26q-7 -7 -36 -12
q-26 -3 -45 11q-16 12 -14 42q3 38 25 66q-43 14 -74.5 71.5t-47 133.5t-23 164t-6 164t9.5 131q3 25 3 52q0 4 -1 17t-0.5 19.5t5 14t14.5 9.5q15 3 44 -3t38 -16q9 -9 11 -19q1 -25 4 -86t3 -85t-4 -85q-4 -41 -5 -134.5t13 -196t48 -102.5q25 0 45.5 29.5t34 75.5t23 102
t15.5 107.5t10 93.5q1 17 2 24q4 48 8.5 142t6.5 127q0 5 -0.5 14t0 11.5t4.5 6t13 4.5z" />
    <glyph glyph-name="uogonek" unicode="&#x173;" horiz-adv-x="383" 
d="M421 241q4 3 9.5 1t9.5 -8.5t2 -10.5q-8 -14 -12 -20q-20 -36 -62 -108q-16 -28 -22 -38l-14 -24q0 -1 -1 -2q-26 -42 -42 -55t-37 -13q-64 0 -64 235q-1 -1 -9 -15.5t-17.5 -30t-25.5 -33t-32 -25.5q-23 -29 -29 -42q-13 -26 4 -36q8 -5 29 4q15 8 20 9q5 2 6.5 -1
t2.5 -10q3 -17 -7 -26q-7 -7 -36 -12q-26 -3 -45 11q-16 12 -14 42q3 34 20 59q-10 3 -19 11q-33 25 -35 81q-3 50 3 99q1 11 2 36t3 38q2 11 9.5 17t14 7.5t21.5 2.5q18 1 25 -5t9 -24q1 -4 1 -12q-4 -113 -5 -172q-1 -24 8 -36t27 9q46 67 79 162q9 24 7 44q-1 23 25 28
q25 5 53 -5q11 -4 11.5 -49t-5 -123t-5.5 -97q0 -4 -1 -17q-3 -60 4 -60l3 1q7 7 21 29q0 1 2 3q11 19 58.5 98.5t49.5 82.5z" />
    <glyph glyph-name="Wcircumflex" unicode="&#x174;" horiz-adv-x="564" 
d="M346 815q-7 4 -19 -3q-2 -1 -51 -86q-11 -21 -2 -27q8 -5 15 10q25 53 40 75q13 -36 21 -52q1 -1 4 -10.5t6 -12.5q4 -5 10 -5.5t11 2.5t6 9q1 7 -8 25l-10 28q-12 28 -14 35q-5 7 -9 12zM607 662q8 0 10.5 -9.5t-0.5 -19.5q-3 -12 -10 -36.5t-10 -38.5q-9 -40 -29 -120
q-3 -14 -26 -104t-34 -138q-35 -144 -41 -187q-1 -9 -2 -15t-3 -17t-5 -16.5t-7.5 -14.5t-10 -10.5t-13.5 -4.5t-17 3q-10 4 -17 11t-11.5 19t-7 20.5t-5 23.5t-3.5 20q-1 6 -24 119q-4 23 -11.5 67t-11.5 64l-9 56q0 2 -2.5 11.5t-4 17t-0.5 11.5q-6 -26 -21 -86.5
t-23 -92.5q-52 -230 -54 -237q-5 -22 -17 -39.5t-31 -14.5q-8 1 -14.5 7.5t-9 11.5t-6.5 17.5t-5 14.5q-23 58 -54 225q-9 46 -17 101.5t-13 92.5t-13 106t-11 96q-1 9 -5.5 29t-6.5 36t0 30q1 14 10.5 19t21.5 2t23 -8t18 -11q24 -21 30 -80q3 -32 34.5 -228.5t38.5 -225.5
q2 -8 6.5 -24.5t6.5 -25.5q6 6 16 45.5t22 95t16 70.5q5 24 15.5 72.5t16.5 72.5q4 16 13 61t17 76t19 58q14 33 31 35q9 1 14.5 -3.5t6.5 -9t2.5 -14.5t1.5 -13q1 -8 3.5 -24t3.5 -24l9 -72q1 -5 7.5 -58t10.5 -81q3 -23 13 -123q15 -151 18 -151q8 38 47 199q11 46 44 182
q3 11 10 47.5t14 56.5q2 5 6.5 22.5t10.5 29.5t14 18q10 6 15 5z" />
    <glyph glyph-name="wcircumflex" unicode="&#x175;" horiz-adv-x="453" 
d="M207 466q-7 4 -19 -3q-2 -1 -51 -86q-11 -21 -2 -27q8 -5 15 10q25 53 40 75q13 -36 21 -52q1 -1 4 -10.5t6 -12.5q4 -5 10 -5.5t11 2.5t6 9q1 7 -8 25l-10 28q-12 28 -14 35q-4 8 -9 12zM466 241q4 3 9.5 1t9.5 -8.5t2 -10.5l-11 -20q-22 -37 -80 -23q-2 0 -8.5 2t-10 3
t-7.5 0l-25 -227q-1 -19 -11.5 -33t-24.5 -18q-22 -5 -31 0t-22 27q-46 80 -63 190q-4 22 -8 32q-40 -127 -49 -174q-5 -23 -27 -34.5t-42 0.5q-4 3 -18.5 41t-29 88t-14.5 77q-1 17 -3 47t-2 41.5t2 46.5q3 27 30 30q14 2 30 0q20 -1 22 -28q1 -12 3.5 -24.5t3.5 -22.5
t2 -25q5 -85 14 -169q0 1 2.5 7t3.5 10q6 24 21.5 68.5t18.5 54.5q4 12 8.5 34t5.5 28q1 4 3 17t5 21.5t8 14.5q6 8 22.5 9.5t25.5 -2.5q25 -7 30 -45q2 -19 25 -145.5t26 -129.5q-1 1 7.5 49.5t11.5 59.5q1 7 4 42.5t5 42.5q0 1 1 7t2 9t3 6.5t6 5.5q10 5 23 1q1 0 3 -0.5
t3 -1.5q53 -19 67 -2q15 24 18 30z" />
    <glyph glyph-name="Ycircumflex" unicode="&#x176;" horiz-adv-x="249" 
d="M120 810q-7 4 -19 -3q-2 -1 -51 -86q-11 -21 -2 -27q8 -2 15 10q25 53 40 75q13 -36 21 -52q1 -1 4 -10.5t6 -12.5q4 -5 10 -5.5t11 2.5t6 9q1 7 -8 25l-10 28q-12 28 -14 35q-5 8 -9 12zM51 -69q21 -9 34 -5q41 12 61 69q26 71 33 117q7 44 34 159t55 225t29 113
q1 2 4.5 15t4.5 18.5t3 18.5t-2 15q-2 5 -9.5 8.5t-14.5 4.5t-17.5 2t-12.5 1q-10 2 -21.5 -14t-21.5 -42.5t-17.5 -51t-14 -50t-7.5 -28.5q-21 -78 -23 -92q-1 1 -4 7q-13 23 -36.5 68.5t-36.5 67.5q-19 39 -37 64q-10 19 -16 19q-13 0 -22.5 -13t-4.5 -26t12.5 -27
t19.5 -32t16 -25q94 -166 98 -172q-21 -160 -25 -182q-3 -18 -6.5 -38.5t-8 -45.5t-6.5 -39q-2 -11 -13.5 -36.5t-20.5 -31.5q-15 -9 -18 -20t12 -21z" />
    <glyph glyph-name="ycircumflex" unicode="&#x177;" horiz-adv-x="341" 
d="M160 554q-7 4 -19 -3q-2 -1 -51 -86q-11 -21 -2 -27q8 -2 15 10q25 53 40 75q13 -36 21 -52q1 -1 4 -10.5t6 -12.5q4 -5 10 -5.5t11 2.5t6 9q1 7 -8 25l-10 28q-12 28 -14 35q-5 8 -9 12zM369 241q3 3 8.5 1t10 -8.5t2.5 -11.5q-4 -6 -12 -20q-28 -49 -62 -107l-33 -57
q1 -13 4.5 -51.5t4.5 -64.5t0 -51q-4 -84 -29 -129q-36 -66 -82 -75q-42 -9 -76 6q-33 15 -35.5 60t10.5 82.5t30 69.5q18 32 75 113q15 22 11 53q-1 12 -1.5 74.5t-0.5 68.5q-2 -3 -16.5 -25.5t-28 -45l-19.5 -32.5q-23 -38 -74 -24q-56 16 -56 110q0 18 11.5 74.5
t20.5 75.5q1 1 5.5 13t6.5 14q18 15 46.5 5.5t22.5 -36.5q-28 -108 -30 -155q0 -25 1 -38q0 -24 6 -25q4 0 13 9q12 12 81 120q27 39 32 90l6 29q2 6 4 14q4 12 11 14q10 4 22 6q20 4 40 -9q18 -10 12 -30l-9 -42q-10 -32 -19 -125q0 -5 -0.5 -15.5t-1.5 -15.5
q-1 -8 -1 -17.5t0.5 -21t0.5 -17.5l34.5 57.5t37.5 62t16 27.5zM178 -288q43 26 43 85q0 172 -6 174q-6 -9 -25 -33.5t-25 -33.5q-33 -49 -43 -92t-4.5 -64t16.5 -33q18 -18 44 -3z" />
    <glyph glyph-name="Ydieresis" unicode="&#x178;" horiz-adv-x="249" 
d="M55 799q-18 -7 -21 -24q-9 -30 13 -45q6 -3 17 -3t16 4q16 14 12 46q-3 13 -14 19q-15 5 -23 3zM179 726q17 6 21 23q7 32 -13 45q-5 4 -16.5 4t-16.5 -4q-16 -13 -12 -46q5 -14 14 -19q13 -6 23 -3zM51 -69q21 -9 34 -5q41 12 61 69q26 71 33 117q7 44 34 159t55 225
t29 113q1 2 4.5 15t4.5 18.5t3 18.5t-2 15q-2 5 -9.5 8.5t-14.5 4.5t-17.5 2t-12.5 1q-10 2 -21.5 -14t-21.5 -42.5t-17.5 -51t-14 -50t-7.5 -28.5q-21 -78 -23 -92q-1 1 -4 7q-13 23 -36.5 68.5t-36.5 67.5q-19 39 -37 64q-10 19 -16 19q-13 0 -22.5 -13t-4.5 -26t12.5 -27
t19.5 -32t16 -25q94 -166 98 -172q-21 -160 -25 -182q-3 -18 -6.5 -38.5t-8 -45.5t-6.5 -39q-2 -11 -13.5 -36.5t-20.5 -31.5q-15 -9 -18 -20t12 -21z" />
    <glyph glyph-name="Zacute" unicode="&#x179;" horiz-adv-x="321" 
d="M188 683q4 -1 10 2q4 2 56 37q23 13 39 40q4 8 0.5 13.5t-13.5 3.5q-3 1 -14 -6q-50 -39 -67 -51l-10 -13q-4 -9 -4 -19q-2 -4 3 -7zM36 649q-1 -3 1 -9q5 -13 30 -19q12 -2 26.5 -2t32 1t26.5 1q31 0 84 -1t79 -1q-29 -49 -166 -335t-150 -307q-28 -46 30 -50
q64 -2 84.5 -1.5t70.5 3.5t85 4q85 0 106 17q12 10 10 26q0 3 -15 3.5t-38.5 -1t-46.5 -3t-46 -4t-30 -2.5q-69 -5 -91 -2q6 16 115 254.5t121 262.5q9 19 19 38q6 12 19 34.5t16 27.5q7 13 10 19.5t1.5 16t-12.5 16.5q-15 11 -41 11q-16 0 -117.5 4t-154.5 3q-14 0 -42 -2
q-14 0 -16 -3z" />
    <glyph glyph-name="zacute" unicode="&#x17a;" horiz-adv-x="357" 
d="M120 314q4 -1 10 2q4 2 56 37q23 13 39 40q4 8 0.5 13.5t-13.5 3.5q-3 1 -14 -6q-50 -39 -67 -51l-10 -13q-4 -9 -4 -19q-2 -4 3 -7zM386 241q3 3 8.5 1t10 -8.5t1.5 -11.5q-1 -3 -11 -20q-42 -72 -62 -108l-36 -61q-1 -2 -4 -7.5t-5 -8.5q10 -24 17 -59q4 -19 4 -44
q3 -38 -2 -82q-4 -29 -17.5 -66t-47.5 -77t-77 -45q-32 -4 -58 9.5t-32 44.5q-15 76 65 185l79 105q3 29 -17 58q-14 21 -41 27q-15 4 -39.5 -4t-29.5 -9q-17 -3 -28.5 9t-9.5 29q0 6 14.5 32t32 55t18.5 31l3 6q-45 -24 -68 -12q-29 14 -45 48q-21 43 6 66q17 15 42.5 8.5
t37 -28.5t-2.5 -56q7 -4 24.5 -2t45.5 5.5t37 2.5q19 -2 22 -14v-8q-1 -7 -6 -14.5t-12.5 -15.5t-10.5 -12q-42 -56 -49 -73q2 4 31.5 -4t39.5 -12q36 -16 57 -50l6 9q7 12 34.5 57t49.5 82.5t25 41.5zM63 246q11 37 -11 53q-15 9 -22 -3q-7 -15 1.5 -27.5t19.5 -18.5t12 -4
zM221 -167q9 27 9 61.5t-6 48.5q-3 -2 -62 -88q-35 -50 -45 -76q-20 -48 2 -64q23 -19 49 15q38 50 53 103z" />
    <glyph glyph-name="Zdotaccent" unicode="&#x17b;" horiz-adv-x="321" 
d="M181 764q-15 -10 -15 -28q0 -32 24 -40q6 -2 17 0.5t15 8.5q13 18 0 47q-6 13 -18 15q-15 2 -23 -3zM36 649q-1 -3 1 -9q5 -13 30 -19q12 -2 26.5 -2t32 1t26.5 1q31 0 84 -1t79 -1q-29 -49 -166 -335t-150 -307q-28 -46 30 -50q64 -2 84.5 -1.5t70.5 3.5t85 4
q85 0 106 17q12 10 10 26q0 3 -15 3.5t-38.5 -1t-46.5 -3t-46 -4t-30 -2.5q-69 -5 -91 -2q6 16 115 254.5t121 262.5q9 19 19 38q6 12 19 34.5t16 27.5q7 13 10 19.5t1.5 16t-12.5 16.5q-15 11 -41 11q-16 0 -117.5 4t-154.5 3q-14 0 -42 -2q-14 0 -16 -3z" />
    <glyph glyph-name="zdotaccent" unicode="&#x17c;" horiz-adv-x="357" 
d="M110 413q-15 -10 -15 -28q0 -32 24 -40q6 -2 17 0.5t15 8.5q13 18 0 47q-6 13 -18 15q-15 2 -23 -3zM386 241q3 3 8.5 1t10 -8.5t1.5 -11.5q-1 -3 -11 -20q-42 -72 -62 -108l-36 -61q-1 -2 -4 -7.5t-5 -8.5q10 -24 17 -59q4 -19 4 -44q3 -38 -2 -82q-4 -29 -17.5 -66
t-47.5 -77t-77 -45q-32 -4 -58 9.5t-32 44.5q-15 76 65 185l79 105q3 29 -17 58q-14 21 -41 27q-15 4 -39.5 -4t-29.5 -9q-17 -3 -28.5 9t-9.5 29q0 6 14.5 32t32 55t18.5 31l3 6q-45 -24 -68 -12q-29 14 -45 48q-21 43 6 66q17 15 42.5 8.5t37 -28.5t-2.5 -56q7 -4 24.5 -2
t45.5 5.5t37 2.5q19 -2 22 -14v-8q-1 -7 -6 -14.5t-12.5 -15.5t-10.5 -12q-42 -56 -49 -73q2 4 31.5 -4t39.5 -12q36 -16 57 -50l6 9q7 12 34.5 57t49.5 82.5t25 41.5zM63 246q11 37 -11 53q-15 9 -22 -3q-7 -15 1.5 -27.5t19.5 -18.5t12 -4zM221 -167q9 27 9 61.5t-6 48.5
q-3 -2 -62 -88q-35 -50 -45 -76q-20 -48 2 -64q23 -19 49 15q38 50 53 103z" />
    <glyph glyph-name="Zcaron" unicode="&#x17d;" horiz-adv-x="321" 
d="M193 679q8 -3 18 3q6 4 53 85q12 21 3 27q-8 5 -16 -10q-21 -44 -41 -74q-19 51 -20 53q-1 1 -2 6.5t-3 10t-4 6.5q-6 7 -16 5t-12 -11q-1 -10 9 -25q0 -3 9 -29q1 -3 6 -15.5t7 -19.5q4 -7 9 -12zM36 649q-1 -3 1 -9q5 -13 30 -19q12 -2 26.5 -2t32 1t26.5 1q31 0 84 -1
t79 -1q-29 -49 -166 -335t-150 -307q-28 -46 30 -50q64 -2 84.5 -1.5t70.5 3.5t85 4q85 0 106 17q12 10 10 26q0 3 -15 3.5t-38.5 -1t-46.5 -3t-46 -4t-30 -2.5q-69 -5 -91 -2q6 16 115 254.5t121 262.5q9 19 19 38q6 12 19 34.5t16 27.5q7 13 10 19.5t1.5 16t-12.5 16.5
q-15 11 -41 11q-16 0 -117.5 4t-154.5 3q-14 0 -42 -2q-14 0 -16 -3z" />
    <glyph glyph-name="zcaron" unicode="&#x17e;" horiz-adv-x="357" 
d="M107 345q8 -3 18 3q6 4 53 85q12 21 3 27q-8 5 -16 -10q-21 -44 -41 -74q-19 51 -20 53q-1 1 -2 6.5t-3 10t-4 6.5q-6 7 -16 5t-12 -11q-1 -10 9 -25q0 -3 9 -29q1 -3 6 -15.5t7 -19.5q4 -7 9 -12zM386 241q3 3 8.5 1t10 -8.5t1.5 -11.5q-1 -3 -11 -20q-42 -72 -62 -108
l-36 -61q-1 -2 -4 -7.5t-5 -8.5q10 -24 17 -59q4 -19 4 -44q3 -38 -2 -82q-4 -29 -17.5 -66t-47.5 -77t-77 -45q-32 -4 -58 9.5t-32 44.5q-15 76 65 185l79 105q3 29 -17 58q-14 21 -41 27q-15 4 -39.5 -4t-29.5 -9q-17 -3 -28.5 9t-9.5 29q0 6 14.5 32t32 55t18.5 31l3 6
q-45 -24 -68 -12q-29 14 -45 48q-21 43 6 66q17 15 42.5 8.5t37 -28.5t-2.5 -56q7 -4 24.5 -2t45.5 5.5t37 2.5q19 -2 22 -14v-8q-1 -7 -6 -14.5t-12.5 -15.5t-10.5 -12q-42 -56 -49 -73q2 4 31.5 -4t39.5 -12q36 -16 57 -50l6 9q7 12 34.5 57t49.5 82.5t25 41.5zM63 246
q11 37 -11 53q-15 9 -22 -3q-7 -15 1.5 -27.5t19.5 -18.5t12 -4zM221 -167q9 27 9 61.5t-6 48.5q-3 -2 -62 -88q-35 -50 -45 -76q-20 -48 2 -64q23 -19 49 15q38 50 53 103z" />
    <glyph glyph-name="Scommaaccent" unicode="&#x218;" horiz-adv-x="345" 
d="M226 445q1 3 5 9.5t5 8.5q10 18 20 44q20 51 -6 94q-15 26 -43 30.5t-52 -14.5q-46 -33 -50 -102q-4 -94 57 -215q32 -68 60 -148q9 0 56.5 20t89.5 35.5t42 8.5q1 -9 -8.5 -19t-28 -19.5t-30.5 -15t-31 -13.5l-79 -30q8 -33 8 -95q0 -56 -28 -103q-26 -41 -104 -55
q-34 -6 -64.5 4.5t-39.5 39.5q-18 56 26 114t105 92q-78 175 -95 237q-45 169 20 275q11 18 38 36q38 24 73 24q17 0 28.5 -2.5t17.5 -5.5t25 -13q56 -29 52 -131q-1 -26 -19 -66q-7 -17 -16 -29q-21 -24 -32 -9q-5 6 -2 13zM41 -59q7 -35 41 -36q23 -1 41 13.5t26 37.5
q11 33 -4 122q-22 -9 -58 -41.5t-44 -69.5q-3 -15 -2 -26zM-49 -50q-5 -1 -10 -10q-3 -5 -3 -19q0 -4 1.5 -10.5t1.5 -8.5q1 -8 -9 -27l-2 -5q-3 -6 -3 -8q3 -8 13.5 -3t16.5 11t14 20q10 22 12 34q2 18 -7 25q-13 7 -25 1z" />
    <glyph glyph-name="scommaaccent" unicode="&#x219;" horiz-adv-x="300" 
d="M319 240q4 8 15 -3q8 -8 5 -15q-1 -3 -11 -20q-9 -16 -26 -44.5t-29.5 -51t-14.5 -25.5l-44 -72q3 -5 8.5 -12.5t7.5 -12.5q25 -48 30 -72q16 -90 -45 -127q-75 -44 -117 -19q-16 9 -22.5 32t-2.5 42q3 16 19.5 47t31.5 54l15 23q-66 114 -80 140q-8 16 -16 31t-14 27
t-15 32q-20 43 -14 89.5t25 84t56 56t80 5.5q63 -18 73 -88q8 -54 -10 -95q-23 -43 -40 -35q-3 3 1 11t11 18t8 14q9 24 9 49q2 54 -42 81q-20 13 -43 10q-24 -3 -38 -17.5t-18.5 -41t7 -68.5t39.5 -96q10 -20 22.5 -41t28.5 -46.5t25 -41.5q16 21 40.5 60t50 82t34.5 56z
M196 -163q5 32 -40 99q-3 -3 -22 -27q-14 -19 -24 -40.5t-7.5 -45.5t28.5 -30q8 -2 13 -2q19 0 34 13.5t18 32.5zM31 -107q-5 -1 -10 -10q-3 -5 -3 -19q0 -4 1.5 -10.5t1.5 -8.5q1 -7 -9 -27l-2 -6q-3 -5 -3 -7q3 -8 13.5 -3t16.5 11t14 20q10 22 12 34q2 18 -7 25
q-13 7 -25 1z" />
    <glyph glyph-name="uni021A" unicode="&#x21a;" horiz-adv-x="373" 
d="M210 647q-2 5 -4 6l-33 1q-33 1 -65 3l-33 2q-37 3 -43 8q-8 8 -3.5 14.5t14.5 8.5q16 4 43 4.5t66.5 -1.5t59.5 -2q139 0 178 -4q3 0 14.5 -0.5l23 -1t23 -2.5t19 -6.5t8.5 -10.5t-4.5 -10.5t-15.5 -6.5t-18.5 -3t-19 -1h-12.5t-27.5 2.5t-49.5 4.5t-24 1
q-2 -12 -1 -35.5t0 -36.5q-1 -16 -1 -44v-44q-1 -30 -3.5 -90t-3.5 -90q-1 -15 -4 -75t-3 -92q1 -45 9 -133q4 -67 5 -98q0 -6 2.5 -21t2.5 -23q0 -22 -20 -23q-16 0 -32 20q-9 11 -20 30q-38 81 -43 150q-19 321 13 563q4 22 2 36zM49 -107q-5 -1 -10 -10q-3 -5 -3 -19
q0 -4 1.5 -10.5t1.5 -8.5q1 -7 -9 -27l-2 -6q-3 -5 -3 -7q3 -8 13.5 -3t16.5 11t14 20q10 22 12 34q2 18 -7 25q-13 7 -25 1z" />
    <glyph glyph-name="uni021B" unicode="&#x21b;" horiz-adv-x="378" 
d="M394 565q13 12 22 15.5t12 1t4 -9.5t0.5 -12t-1.5 -9q-8 -31 -63 -46.5t-106 -15.5h-51q-11 -33 -22 -135.5t-13 -162.5v-86q0 -42 3 -84q2 -28 7 -49q3 -13 6 -15t13 3q35 27 68 79q8 12 12 19l108 180q4 4 9.5 1.5t9.5 -9t2 -10.5q-10 -17 -11 -20l-63 -108
q-7 -15 -18 -32l-38 -68q-64 -103 -101 -104q-19 -1 -34.5 7t-24.5 17t-17.5 29.5t-11 29.5t-8.5 32q-7 24 -10 55.5t-3 53t0.5 61t0.5 52.5q0 38 17 139.5t23 123.5q-45 6 -74 5t-45 -21q-2 -2 -4 -5t-3 -5t-3.5 -3t-5.5 1q-8 3 -13 21q-10 32 28.5 44t82.5 7l44 -4
q9 29 19 85t17 70q6 12 12.5 16.5t15 2t15 -6.5t17.5 -11.5t17 -11.5q15 -9 16.5 -18.5t-6.5 -26.5q-10 -26 -22 -100q27 -4 86.5 6t84.5 32zM49 -107q-5 -1 -10 -10q-3 -5 -3 -19q0 -4 1.5 -10.5t1.5 -8.5q1 -7 -9 -27l-2 -6q-3 -5 -3 -7q3 -8 13.5 -3t16.5 11t14 20
q10 22 12 34q2 18 -7 25q-13 7 -25 1z" />
    <glyph glyph-name="circumflex" unicode="&#x2c6;" horiz-adv-x="166" 
d="M100 760q-7 4 -19 -3q-2 -1 -51 -86q-11 -21 -2 -27q8 -5 15 10q25 53 40 75q13 -36 21 -52q1 -1 4 -10.5t6 -12.5q4 -5 10 -5.5t11 2.5t6 9q1 7 -8 25l-10 28q-12 28 -14 35q-5 8 -9 12z" />
    <glyph glyph-name="caron" unicode="&#x2c7;" horiz-adv-x="117" 
d="M40 651q8 -3 18 3q6 4 53 85q12 21 3 27q-8 2 -16 -10q-21 -44 -41 -74q-19 51 -20 53q-1 1 -2 6.5t-3 10t-4 6.5q-6 7 -16 5t-12 -11q-1 -10 9 -25q0 -3 9 -29q1 -3 6 -15.5t7 -19.5q5 -7 9 -12z" />
    <glyph glyph-name="breve" unicode="&#x2d8;" horiz-adv-x="158" 
d="M4 740q-6 -5 -4 -13q1 -9 15 -39q14 -31 42 -37t52.5 7t33.5 32q15 35 15 47q0 5 -5.5 7t-12 2t-10.5 -2q-2 -2 -11.5 -30.5t-23.5 -33.5q-26 -7 -38 0q-9 4 -19.5 35t-17.5 32q-12 0 -16 -7z" />
    <glyph glyph-name="dotaccent" unicode="&#x2d9;" horiz-adv-x="112" 
d="M40 735q-15 -10 -15 -28q0 -32 24 -40q6 -2 17 0.5t15 8.5q13 18 0 47q-6 13 -18 15q-15 2 -23 -3z" />
    <glyph glyph-name="ogonek" unicode="&#x2db;" horiz-adv-x="153" 
d="M108 3q0 -4 -1 -6q-1 -3 -6.5 -8t-6.5 -6q-23 -29 -29 -42q-13 -26 4 -36q8 -5 29 4q15 8 20 9q5 2 6.5 -1t2.5 -10q3 -17 -7 -26q-7 -7 -36 -12q-26 -3 -45 11q-16 12 -14 42q3 60 57 93q11 7 19 -1q6 -6 7 -11z" />
    <glyph glyph-name="tilde" unicode="&#x2dc;" horiz-adv-x="327" 
d="M100 706q1 -1 3 -5l24 -33q21 -23 47 -33q15 -7 37 -3.5t35 15.5q32 30 47 63q10 26 9 29q-2 6 -9 9t-12 0q-4 -2 -15 -24q-4 -8 -11.5 -18.5t-20 -21.5t-21.5 -9q-11 3 -31 25q-5 6 -13.5 19t-13.5 18q-15 17 -41 15q-27 -1 -52 -19t-34 -44q-5 -9 -3 -23t16 -11
q6 1 10 6t7 15t4 12q10 19 20 24q11 6 18 -6z" />
    <glyph glyph-name="hungarumlaut" unicode="&#x2dd;" horiz-adv-x="234" 
d="M26 568l-1 2l8 16q2 2 5 6.5t6 6.5q22 28 35 51q6 13 20 17q16 7 24 7q4 0 5.5 -2t1 -5.5t-1.5 -6.5t-3.5 -7t-2.5 -5q-16 -32 -46 -62q-15 -15 -32 -20q-15 -6 -18 2zM209 667l-5 -15q-1 -2 -3 -5t-3 -5.5t-2 -5.5q-10 -18 -45 -57q-12 -14 -28 -17q-9 -4 -15.5 0.5
t-2.5 12.5l10 18q32 49 53 65q9 7 20 12q5 3 12 3t9 -5v-1z" />
    <glyph glyph-name="gravecomb" unicode="&#x300;" 
d="M0 612q-1 -4 3 -11q7 -10 20 -28t18 -26q13 -20 42 -37q8 -4 13.5 0t3.5 13q0 5 -7 14l-54 66q-2 2 -7 5t-6 4q-10 3 -19 3q-7 2 -7 -3z" />
    <glyph glyph-name="acutecomb" unicode="&#x301;" 
d="M4 573q4 -1 10 2q3 2 56 37q23 13 39 40q4 8 0.5 13.5t-13.5 3.5q-3 1 -14 -6q-50 -39 -67 -51l-10 -13q-4 -9 -4 -19q-2 -4 3 -7z" />
    <glyph glyph-name="uni0302" unicode="&#x302;" 
d="M75 760q-7 4 -19 -3q-2 -1 -51 -86q-11 -21 -2 -27q8 -5 15 10q25 53 40 75q13 -36 21 -52q1 -1 4 -10.5t6 -12.5q4 -5 10 -5.5t11 2.5t6 9q1 7 -8 25l-10 28q-12 28 -14 35q-4 8 -9 12z" />
    <glyph glyph-name="tildecomb" unicode="&#x303;" 
d="M-227 596q1 -1 3 -5l24 -33q21 -23 47 -33q15 -7 37 -3.5t35 15.5q32 30 47 63q10 26 9 29q-2 6 -9 9t-12 0q-4 -2 -15 -24q-4 -8 -11.5 -18.5t-20 -21.5t-21.5 -9q-11 3 -31 25q-5 6 -13.5 19t-13.5 18q-15 17 -41 15q-27 -1 -52 -19t-34 -44q-5 -9 -3 -23t16 -11
q6 1 10 6t7 15t4 12q10 19 20 24q11 6 18 -6z" />
    <glyph glyph-name="uni0304" unicode="&#x304;" 
d="M-25 683q-10 2 -16 2q-77 6 -153 9q-21 1 -63.5 1t-63.5 1q-12 0 -22 -0.5t-21.5 -4.5t-12 -12t6.5 -23q4 -7 11.5 -10.5t12.5 -3.5t17 0.5t16 0.5q88 2 130 4q13 1 41.5 1t50 1.5t40.5 5.5q26 6 26 28z" />
    <glyph glyph-name="uni0306" unicode="&#x306;" 
d="M-154 750q-6 -5 -4 -13q1 -9 15 -39q14 -31 42 -37t52.5 7t33.5 32q15 35 15 47q0 5 -5.5 7t-12 2t-10.5 -2q-2 -2 -11.5 -30.5t-23.5 -33.5q-26 -7 -38 0q-9 4 -19.5 35t-17.5 32q-12 0 -16 -7z" />
    <glyph glyph-name="uni0307" unicode="&#x307;" 
d="M15 743q-15 -10 -15 -28q0 -32 24 -40q6 -2 17 0.5t15 8.5q13 18 0 47q-6 13 -18 15q-15 2 -23 -3z" />
    <glyph glyph-name="uni0308" unicode="&#x308;" 
d="M-147 720q-18 -7 -21 -24q-9 -30 13 -45q6 -3 17 -3t16 4q16 14 12 46q-3 13 -14 19q-15 5 -23 3zM-23 647q17 6 21 23q7 32 -13 45q-5 4 -16.5 4t-16.5 -4q-16 -13 -12 -46q5 -14 14 -19q13 -6 23 -3z" />
    <glyph glyph-name="uni030A" unicode="&#x30a;" 
d="M-25 739q2 23 -14 37q-16 18 -39 18q-10 0 -18 -5q-18 -8 -29 -26q-11 -15 -9 -35.5t17 -33.5q15 -12 35 -10.5t34 14.5q20 17 23 41zM-99 713q-8 4 -10 17t2 21q8 24 30 22q14 -1 20 -9.5t1 -21.5q-3 -11 -16 -22t-23 -8z" />
    <glyph glyph-name="uni030B" unicode="&#x30b;" 
d="M147 646q1 -2 0 -8.5t-1 -7.5l-3 -17q-5 -24 -25 -68q-8 -17 -22 -25q-8 -6 -15 -3.5t-6 10.5q1 3 2 10t2 11q1 2 3 10.5t3 11.5t3.5 11t4 11.5l4.5 10.5t5.5 11t6.5 10t8 10.5t9 8.5q13 13 20 4zM1 518l-1 2q-1 2 3 17q0 1 2 7t4 9q12 29 18 59q3 14 14 22q15 13 21 14
q4 1 6 -0.5t2.5 -5t0.5 -6t-1 -7.5t-1 -6q-5 -31 -25 -73q-10 -18 -25 -29q-13 -10 -18 -3z" />
    <glyph glyph-name="uni030C" unicode="&#x30c;" 
d="M-77 651q8 -3 18 3q6 4 53 85q12 21 3 27q-8 5 -16 -10q-21 -44 -41 -74q-19 51 -20 53q-1 1 -2 6.5t-3 10t-4 6.5q-6 7 -16 5t-12 -11q-1 -10 9 -25q0 -3 9 -29q1 -3 6 -15.5t7 -19.5q4 -7 9 -12z" />
    <glyph glyph-name="uni0312" unicode="&#x312;" 
d="M-34 545q4 2 7 6q1 2 -4 17q-3 9 -8 51q-3 35 12 71q5 12 -6 18q-3 2 -10 4.5t-11 3.5q-9 5 -13 3q-10 -6 -13 -29q-4 -26 -4 -39q0 -38 14 -67q24 -42 36 -39z" />
    <glyph glyph-name="uni0326" unicode="&#x326;" 
d="M-57 -107q-5 -1 -10 -10q-3 -5 -3 -19q0 -4 1.5 -10.5t1.5 -8.5q1 -7 -9 -27l-2 -6q-3 -5 -3 -7q3 -8 13.5 -3t16.5 11t14 20q10 22 12 34q2 18 -7 25q-13 7 -25 1z" />
    <glyph glyph-name="uni0327" unicode="&#x327;" 
d="M-25 -81q0 -22 -24.5 -50t-53.5 -31q-51 -4 -61 8q-5 5 -7 15q0 2 -0.5 6t-0.5 6q1 4 9 4q25 -3 30 -2q48 2 69 33q8 13 -0.5 25t-25.5 8q-9 -2 -23.5 -8.5t-18.5 -7.5t-7.5 0.5t-6.5 4.5l-4 4q-10 10 13 53t40 38q17 -4 21 -8q1 -1 -1.5 -6.5t-7 -13t-9 -14t-8.5 -12.5
t-5 -7l8 1l16 2t19 -1t19 -6t14 -14.5t6 -26.5z" />
    <glyph glyph-name="uni0328" unicode="&#x328;" 
d="M-45 3q-1 5 -7 11q-8 8 -19 1q-54 -33 -57 -93q-2 -30 14 -42q19 -14 45 -11q29 5 36 12q10 9 7 26q-1 7 -2.5 10t-6.5 1q-5 -1 -20 -9q-21 -9 -29 -4q-17 10 -4 36q6 13 29 42q1 1 6.5 6t6.5 8q1 2 1 6z" />
    <glyph glyph-name="uni0335" unicode="&#x335;" 
d="M-25 290q0 -22 -26 -28q-35 -8 -99 -11q-62 -3 -110 -4q-4 0 -16 -0.5t-17 -0.5t-12.5 3.5t-11.5 10.5q-16 26 2 33.5t47 6.5q21 -1 53 -1t54 -1q87 -3 120 -6q6 0 16 -2z" />
    <glyph glyph-name="uni0336" unicode="&#x336;" 
d="M-25 290q0 -22 -26 -28q-35 -8 -99 -11q-62 -3 -110 -4q-4 0 -16 -0.5t-17 -0.5t-12.5 3.5t-11.5 10.5q-16 26 2 33.5t47 6.5q21 -1 53 -1t54 -1q87 -3 120 -6q6 0 16 -2z" />
    <glyph glyph-name="uni0337" unicode="&#x337;" 
d="M-281 89q4 4 117 157t125 171q25 36 2 47q-4 2 -9.5 5.5t-8 4.5t-6.5 2t-7 -1t-8 -6t-11 -11q-23 -25 -115 -152t-123 -171q-14 -19 -12 -29q1 -8 14 -16t22 -9q12 -2 20 8z" />
    <glyph glyph-name="uni0338" unicode="&#x338;" 
d="M-185 -60q1 2 32 85t70 186.5t55 142.5q7 17 31 75.5t43.5 105.5t23.5 60q6 13 5 28t-17 18q-4 1 -11.5 3t-10 2t-7 -1.5t-8.5 -7.5t-9 -16q-15 -29 -129 -326.5t-122 -321.5q-9 -21 -4 -31q3 -8 17 -12t24 -3q10 3 17 13z" />
    <glyph glyph-name="Wgrave" unicode="&#x1e80;" horiz-adv-x="564" 
d="M222 811q-1 -4 3 -11q7 -10 20 -28t18 -26q13 -20 42 -37q8 -4 13.5 0t3.5 13q0 5 -7 14l-54 66q-2 2 -7 5t-6 4q-10 3 -19 3q-7 2 -7 -3zM607 662q8 0 10.5 -9.5t-0.5 -19.5q-3 -12 -10 -36.5t-10 -38.5q-9 -40 -29 -120q-3 -14 -26 -104t-34 -138q-35 -144 -41 -187
q-1 -9 -2 -15t-3 -17t-5 -16.5t-7.5 -14.5t-10 -10.5t-13.5 -4.5t-17 3q-10 4 -17 11t-11.5 19t-7 20.5t-5 23.5t-3.5 20q-1 6 -24 119q-4 23 -11.5 67t-11.5 64l-9 56q0 2 -2.5 11.5t-4 17t-0.5 11.5q-6 -26 -21 -86.5t-23 -92.5q-52 -230 -54 -237q-5 -22 -17 -39.5
t-31 -14.5q-8 1 -14.5 7.5t-9 11.5t-6.5 17.5t-5 14.5q-23 58 -54 225q-9 46 -17 101.5t-13 92.5t-13 106t-11 96q-1 9 -5.5 29t-6.5 36t0 30q1 14 10.5 19t21.5 2t23 -8t18 -11q24 -21 30 -80q3 -32 34.5 -228.5t38.5 -225.5q2 -8 6.5 -24.5t6.5 -25.5q6 6 16 45.5t22 95
t16 70.5q5 24 15.5 72.5t16.5 72.5q4 16 13 61t17 76t19 58q14 33 31 35q9 1 14.5 -3.5t6.5 -9t2.5 -14.5t1.5 -13q1 -8 3.5 -24t3.5 -24l9 -72q1 -5 7.5 -58t10.5 -81q3 -23 13 -123q15 -151 18 -151q8 38 47 199q11 46 44 182q3 11 10 47.5t14 56.5q2 5 6.5 22.5
t10.5 29.5t14 18q10 6 15 5z" />
    <glyph glyph-name="wgrave" unicode="&#x1e81;" horiz-adv-x="453" 
d="M93 470q-1 -4 3 -11q7 -10 20 -28t18 -26q13 -20 42 -37q8 -4 13.5 0t3.5 13q0 5 -7 14l-54 66q-2 2 -7 5t-6 4q-11 3 -19 3q-7 2 -7 -3zM466 241q4 3 9.5 1t9.5 -8.5t2 -10.5l-11 -20q-22 -37 -80 -23q-2 0 -8.5 2t-10 3t-7.5 0l-25 -227q-1 -19 -11.5 -33t-24.5 -18
q-22 -5 -31 0t-22 27q-46 80 -63 190q-4 22 -8 32q-40 -127 -49 -174q-5 -23 -27 -34.5t-42 0.5q-4 3 -18.5 41t-29 88t-14.5 77q-1 17 -3 47t-2 41.5t2 46.5q3 27 30 30q14 2 30 0q20 -1 22 -28q1 -12 3.5 -24.5t3.5 -22.5t2 -25q5 -85 14 -169q0 1 2.5 7t3.5 10
q6 24 21.5 68.5t18.5 54.5q4 12 8.5 34t5.5 28q1 4 3 17t5 21.5t8 14.5q6 8 22.5 9.5t25.5 -2.5q25 -7 30 -45q2 -19 25 -145.5t26 -129.5q-1 1 7.5 49.5t11.5 59.5q1 7 4 42.5t5 42.5q0 1 1 7t2 9t3 6.5t6 5.5q10 5 23 1q1 0 3 -0.5t3 -1.5q53 -19 67 -2q15 24 18 30z" />
    <glyph glyph-name="Wacute" unicode="&#x1e82;" horiz-adv-x="564" 
d="M315 704q4 -1 10 2q4 2 56 37q23 13 39 40q4 8 0.5 13.5t-13.5 3.5q-3 1 -14 -6q-50 -39 -67 -51l-10 -13q-4 -9 -4 -19q-2 -4 3 -7zM607 662q8 0 10.5 -9.5t-0.5 -19.5q-3 -12 -10 -36.5t-10 -38.5q-9 -40 -29 -120q-3 -14 -26 -104t-34 -138q-35 -144 -41 -187
q-1 -9 -2 -15t-3 -17t-5 -16.5t-7.5 -14.5t-10 -10.5t-13.5 -4.5t-17 3q-10 4 -17 11t-11.5 19t-7 20.5t-5 23.5t-3.5 20q-1 6 -24 119q-4 23 -11.5 67t-11.5 64l-9 56q0 2 -2.5 11.5t-4 17t-0.5 11.5q-6 -26 -21 -86.5t-23 -92.5q-52 -230 -54 -237q-5 -22 -17 -39.5
t-31 -14.5q-8 1 -14.5 7.5t-9 11.5t-6.5 17.5t-5 14.5q-23 58 -54 225q-9 46 -17 101.5t-13 92.5t-13 106t-11 96q-1 9 -5.5 29t-6.5 36t0 30q1 14 10.5 19t21.5 2t23 -8t18 -11q24 -21 30 -80q3 -32 34.5 -228.5t38.5 -225.5q2 -8 6.5 -24.5t6.5 -25.5q6 6 16 45.5t22 95
t16 70.5q5 24 15.5 72.5t16.5 72.5q4 16 13 61t17 76t19 58q14 33 31 35q9 1 14.5 -3.5t6.5 -9t2.5 -14.5t1.5 -13q1 -8 3.5 -24t3.5 -24l9 -72q1 -5 7.5 -58t10.5 -81q3 -23 13 -123q15 -151 18 -151q8 38 47 199q11 46 44 182q3 11 10 47.5t14 56.5q2 5 6.5 22.5
t10.5 29.5t14 18q10 6 15 5z" />
    <glyph glyph-name="wacute" unicode="&#x1e83;" horiz-adv-x="453" 
d="M163 366q4 -1 10 2q4 2 56 37q23 13 39 40q4 8 0.5 13.5t-13.5 3.5q-3 1 -14 -6q-50 -39 -67 -51l-10 -13q-4 -9 -4 -19q-2 -4 3 -7zM466 241q4 3 9.5 1t9.5 -8.5t2 -10.5l-11 -20q-22 -37 -80 -23q-2 0 -8.5 2t-10 3t-7.5 0l-25 -227q-1 -19 -11.5 -33t-24.5 -18
q-22 -5 -31 0t-22 27q-46 80 -63 190q-4 22 -8 32q-40 -127 -49 -174q-5 -23 -27 -34.5t-42 0.5q-4 3 -18.5 41t-29 88t-14.5 77q-1 17 -3 47t-2 41.5t2 46.5q3 27 30 30q14 2 30 0q20 -1 22 -28q1 -12 3.5 -24.5t3.5 -22.5t2 -25q5 -85 14 -169q0 1 2.5 7t3.5 10
q6 24 21.5 68.5t18.5 54.5q4 12 8.5 34t5.5 28q1 4 3 17t5 21.5t8 14.5q6 8 22.5 9.5t25.5 -2.5q25 -7 30 -45q2 -19 25 -145.5t26 -129.5q-1 1 7.5 49.5t11.5 59.5q1 7 4 42.5t5 42.5q0 1 1 7t2 9t3 6.5t6 5.5q10 5 23 1q1 0 3 -0.5t3 -1.5q53 -19 67 -2q15 24 18 30z" />
    <glyph glyph-name="Wdieresis" unicode="&#x1e84;" horiz-adv-x="564" 
d="M263 803q-18 -7 -21 -24q-9 -30 13 -45q6 -3 17 -3t16 4q16 14 12 46q-3 13 -14 19q-15 5 -23 3zM387 730q17 6 21 23q7 32 -13 45q-5 4 -16.5 4t-16.5 -4q-16 -13 -12 -46q5 -14 14 -19q13 -6 23 -3zM607 662q8 0 10.5 -9.5t-0.5 -19.5q-3 -12 -10 -36.5t-10 -38.5
q-9 -40 -29 -120q-3 -14 -26 -104t-34 -138q-35 -144 -41 -187q-1 -9 -2 -15t-3 -17t-5 -16.5t-7.5 -14.5t-10 -10.5t-13.5 -4.5t-17 3q-10 4 -17 11t-11.5 19t-7 20.5t-5 23.5t-3.5 20q-1 6 -24 119q-4 23 -11.5 67t-11.5 64l-9 56q0 2 -2.5 11.5t-4 17t-0.5 11.5
q-6 -26 -21 -86.5t-23 -92.5q-52 -230 -54 -237q-5 -22 -17 -39.5t-31 -14.5q-8 1 -14.5 7.5t-9 11.5t-6.5 17.5t-5 14.5q-23 58 -54 225q-9 46 -17 101.5t-13 92.5t-13 106t-11 96q-1 9 -5.5 29t-6.5 36t0 30q1 14 10.5 19t21.5 2t23 -8t18 -11q24 -21 30 -80
q3 -32 34.5 -228.5t38.5 -225.5q2 -8 6.5 -24.5t6.5 -25.5q6 6 16 45.5t22 95t16 70.5q5 24 15.5 72.5t16.5 72.5q4 16 13 61t17 76t19 58q14 33 31 35q9 1 14.5 -3.5t6.5 -9t2.5 -14.5t1.5 -13q1 -8 3.5 -24t3.5 -24l9 -72q1 -5 7.5 -58t10.5 -81q3 -23 13 -123
q15 -151 18 -151q8 38 47 199q11 46 44 182q3 11 10 47.5t14 56.5q2 5 6.5 22.5t10.5 29.5t14 18q10 6 15 5z" />
    <glyph glyph-name="wdieresis" unicode="&#x1e85;" horiz-adv-x="453" 
d="M121 447q-18 -7 -21 -24q-9 -30 13 -45q6 -3 17 -3t16 4q16 14 12 46q-3 13 -14 19q-15 5 -23 3zM245 374q17 6 21 23q7 32 -13 45q-5 4 -16.5 4t-16.5 -4q-16 -13 -12 -46q5 -14 14 -19q13 -6 23 -3zM466 241q4 3 9.5 1t9.5 -8.5t2 -10.5l-11 -20q-22 -37 -80 -23
q-2 0 -8.5 2t-10 3t-7.5 0l-25 -227q-1 -19 -11.5 -33t-24.5 -18q-22 -5 -31 0t-22 27q-46 80 -63 190q-4 22 -8 32q-40 -127 -49 -174q-5 -23 -27 -34.5t-42 0.5q-4 3 -18.5 41t-29 88t-14.5 77q-1 17 -3 47t-2 41.5t2 46.5q3 27 30 30q14 2 30 0q20 -1 22 -28
q1 -12 3.5 -24.5t3.5 -22.5t2 -25q5 -85 14 -169q0 1 2.5 7t3.5 10q6 24 21.5 68.5t18.5 54.5q4 12 8.5 34t5.5 28q1 4 3 17t5 21.5t8 14.5q6 8 22.5 9.5t25.5 -2.5q25 -7 30 -45q2 -19 25 -145.5t26 -129.5q-1 1 7.5 49.5t11.5 59.5q1 7 4 42.5t5 42.5q0 1 1 7t2 9t3 6.5
t6 5.5q10 5 23 1q1 0 3 -0.5t3 -1.5q53 -19 67 -2q15 24 18 30z" />
    <glyph glyph-name="Ygrave" unicode="&#x1ef2;" horiz-adv-x="249" 
d="M0 797q-1 -4 3 -11q7 -10 20 -28t18 -26q13 -20 42 -37q8 -4 13.5 0t3.5 13q0 5 -7 14l-54 66q-2 2 -7 5t-6 4q-10 3 -19 3q-7 2 -7 -3zM51 -69q21 -9 34 -5q41 12 61 69q26 71 33 117q7 44 34 159t55 225t29 113q1 2 4.5 15t4.5 18.5t3 18.5t-2 15q-2 5 -9.5 8.5
t-14.5 4.5t-17.5 2t-12.5 1q-10 2 -21.5 -14t-21.5 -42.5t-17.5 -51t-14 -50t-7.5 -28.5q-21 -78 -23 -92q-1 1 -4 7q-13 23 -36.5 68.5t-36.5 67.5q-19 39 -37 64q-10 19 -16 19q-13 0 -22.5 -13t-4.5 -26t12.5 -27t19.5 -32t16 -25q94 -166 98 -172q-21 -160 -25 -182
q-3 -18 -6.5 -38.5t-8 -45.5t-6.5 -39q-2 -11 -13.5 -36.5t-20.5 -31.5q-15 -9 -18 -20t12 -21z" />
    <glyph glyph-name="ygrave" unicode="&#x1ef3;" horiz-adv-x="341" 
d="M40 527q-1 -4 3 -11q7 -10 20 -28t18 -26q13 -20 42 -37q8 -4 13.5 0t3.5 13q0 5 -7 14l-54 66q-2 2 -7 5t-6 4q-10 3 -19 3q-7 2 -7 -3zM369 241q3 3 8.5 1t10 -8.5t2.5 -11.5q-4 -6 -12 -20q-28 -49 -62 -107l-33 -57q1 -13 4.5 -51.5t4.5 -64.5t0 -51q-4 -84 -29 -129
q-36 -66 -82 -75q-42 -9 -76 6q-33 15 -35.5 60t10.5 82.5t30 69.5q18 32 75 113q15 22 11 53q-1 12 -1.5 74.5t-0.5 68.5q-2 -3 -16.5 -25.5t-28 -45l-19.5 -32.5q-23 -38 -74 -24q-56 16 -56 110q0 18 11.5 74.5t20.5 75.5q1 1 5.5 13t6.5 14q18 15 46.5 5.5t22.5 -36.5
q-28 -108 -30 -155q0 -25 1 -38q0 -24 6 -25q4 0 13 9q12 12 81 120q27 39 32 90l6 29q2 6 4 14q4 12 11 14q10 4 22 6q20 4 40 -9q18 -10 12 -30l-9 -42q-10 -32 -19 -125q0 -5 -0.5 -15.5t-1.5 -15.5q-1 -8 -1 -17.5t0.5 -21t0.5 -17.5l34.5 57.5t37.5 62t16 27.5z
M178 -288q43 26 43 85q0 172 -6 174q-6 -9 -25 -33.5t-25 -33.5q-33 -49 -43 -92t-4.5 -64t16.5 -33q18 -18 44 -3z" />
    <glyph glyph-name="endash" unicode="&#x2013;" horiz-adv-x="423" 
d="M387 321q-10 2 -16 2q-77 6 -153 9q-21 1 -63.5 1t-63.5 1q-27 1 -46.5 -10t-2.5 -37q4 -7 11.5 -10.5t12.5 -3.5t17 0.5t16 0.5q88 2 130 4q83 4 132 15q26 6 26 28z" />
    <glyph glyph-name="emdash" unicode="&#x2014;" horiz-adv-x="592" 
d="M552 299q-12 2 -17 2q-77 6 -153 9q-21 1 -63.5 1t-63.5 1q-50 2 -76 1q-16 0 -62 -5t-71 -3q-2 0 -6 -2q0 -13 4 -19t10 -8t23 -6q30 -4 60 -6q11 0 33 -1t33 -1q40 -2 60 -2q86 2 131 4q82 4 132 15q2 0 5 1q18 4 20 12q1 3 1 7z" />
    <glyph glyph-name="quoteleft" unicode="&#x2018;" horiz-adv-x="174" 
d="M100 473q4 2 7 6q1 2 -4 17q-3 8 -8 51q-3 35 12 71q5 12 -6 18q-3 2 -10 4.5t-11 3.5q-9 5 -13 3q-10 -6 -13 -29q-4 -26 -4 -39q0 -38 14 -67q24 -42 36 -39z" />
    <glyph glyph-name="quoteright" unicode="&#x2019;" horiz-adv-x="174" 
d="M74 473q-2 1 -7 6q-1 2 4 17q3 8 8 51q3 38 -12 71q-5 12 6 18q4 2 11 4.5t10 3.5q9 5 13 3q10 -6 13 -29q4 -26 4 -39q0 -38 -14 -67q-24 -42 -36 -39z" />
    <glyph glyph-name="quotedblleft" unicode="&#x201c;" horiz-adv-x="156" 
d="M117 488q2 1 7 6q1 3 0.5 5t-2 5.5t-1.5 6.5q-5 17 -7 51q-2 38 15 71q6 12 -7 18q-2 1 -9 4t-11 5q-9 4 -12 2q-10 -4 -15 -28q-5 -32 -5 -39q0 -39 12 -66q22 -44 35 -41zM70 478q4 2 5 6t-6 16q-7 15 -16 49q-10 34 0 73q3 13 -10 16q-3 1 -10 2.5t-11 2.5
q-10 2 -13 0q-9 -7 -9 -30q0 -27 3 -40q7 -36 25 -63q27 -38 42 -32z" />
    <glyph glyph-name="quotedblright" unicode="&#x201d;" horiz-adv-x="196" 
d="M64 488q-4 2 -7 6q-1 2 3 17q4 13 6 51q3 37 -14 71q-5 12 6 18q18 8 20 9q9 4 13 2q11 -5 14 -28q5 -20 6 -39q0 -40 -13 -66q-4 -12 -14.5 -27.5t-19.5 -13.5zM111 478q-3 2 -6 6q-1 3 7 16q8 15 16 49q9 37 0 73q-3 13 10 16q4 1 11 2.5t10 2.5q10 2 13 0q9 -7 9 -30
q0 -21 -3 -40q-7 -36 -25 -63q-28 -39 -42 -32z" />
    <glyph glyph-name="bullet" unicode="&#x2022;" horiz-adv-x="262" 
d="M69 398q-33 -23 -42 -66t10 -82.5t59 -53.5q19 -6 51.5 2t43.5 25q33 46 17 111.5t-70 72.5q-46 7 -69 -9z" />
    <glyph glyph-name="ellipsis" unicode="&#x2026;" horiz-adv-x="476" 
d="M87 21q-8 16 -28 21q-10 3 -18 -1q-10 -6 -14 -19q-2 -11 -2 -31q1 -13 17 -20t30 -1q5 2 11 10q5 6 7 20q0 14 -2 18q0 2 -1 3zM232 -31q8 0 16 5q2 1 4.5 4.5t3.5 4.5q2 4 4 12q5 17 -2 32q-7 12 -19 15q-14 3 -26 -6q-6 -4 -9 -12l-3 -7q-3 -15 4 -33q8 -13 25 -15h2z
M400 -32q10 4 17 10q2 2 8 19q3 15 -5 30q-7 10 -21 10q-15 0 -26 -10l-6 -8q-7 -13 -3 -28q6 -16 16 -21q6 -4 17 -2h3z" />
    <glyph glyph-name="guilsinglleft" unicode="&#x2039;" horiz-adv-x="331" 
d="M67 261q-1 9 14 26l33 39q146 175 149 179q18 20 18 30.5t-22 32.5q-15 15 -23.5 14.5t-27.5 -19.5q-27 -26 -144 -173q-26 -31 -45 -58q-23 -27 -18 -54q4 -22 32 -46q42 -36 116.5 -85.5t91.5 -61.5q29 -22 37 -19q6 2 7.5 9.5t-2.5 13.5q-4 5 -9 9.5t-13 10t-11 8.5
q-25 20 -61 47l-82 61q-5 4 -15.5 11.5t-15.5 11.5q-9 6 -9 13z" />
    <glyph glyph-name="guilsinglright" unicode="&#x203a;" horiz-adv-x="393" 
d="M302 324q2 -10 -15 -25q-7 -7 -38.5 -35.5t-74 -67t-66.5 -61.5q-19 -17 -19.5 -29t15.5 -26q14 -13 21 -11.5t27 20.5q13 13 98 90.5t91 83.5q2 2 8 7.5t7.5 7.5t6.5 8.5t4 10t0 11.5q-1 8 -5 15.5t-7 11t-10.5 10.5t-9.5 9q-8 8 -49 49.5t-66 66t-59 56.5t-54 45t-25 8
q-12 -12 -4 -22q5 -7 105 -108.5t109 -109.5q10 -12 10 -15z" />
    <glyph glyph-name="Euro" unicode="&#x20ac;" horiz-adv-x="416" 
d="M7 274q-5 -5 -6.5 -11.5t2 -11.5t10.5 -7q4 -1 34 -1q28 2 42 2v-16.5t1 -16.5q1 -6 4.5 -29.5t6.5 -35.5q8 -23 16 -34q24 -35 53 -51q85 -49 150 10q45 41 45 117q0 3 0.5 8t0 7.5t-1 5.5t-3 4.5t-6.5 2.5q-12 2 -17.5 -5t-3.5 -18q9 -59 -33 -102q-37 -38 -74 -23
q-30 13 -41 63q-8 38 -10 62v30q-4 18 0 21q1 2 5.5 2t9 -0.5t7.5 0.5q1 0 31 3q37 3 36 22q0 19 -33 17q-49 -3 -50 -3q1 4 1.5 13.5t0.5 13.5t1 11.5t1.5 13.5t0.5 11q7 0 23 -0.5t27 0.5t22 5q7 2 12.5 8t4.5 13q-2 11 -22 11q-1 0 -18.5 -1t-30 -1.5t-15.5 0.5
q-1 25 4 59q8 33 19 53q23 46 55 54q13 3 28.5 -0.5t23.5 -13.5q4 -6 6.5 -14t3.5 -19.5t2 -15.5t2 -7.5t3 -9.5t4.5 -8.5t6 -4.5t8.5 1q12 6 8 47q-8 63 -55 77q-45 13 -84 2q-16 -5 -41 -20q-4 -3 -11.5 -10.5l-11.5 -11.5q-23 -20 -36 -47q-16 -30 -23 -72q0 -32 -3 -35
q-4 -1 -39 -1q-34 -3 -39 -5q-17 -8 -13 -24q3 -11 27 -11h26q23 0 34 -1q1 -12 -0.5 -34t-1.5 -29h-19.5t-19.5 -1q-8 -1 -15.5 0t-16.5 -1t-14 -6z" />
    </font>
</defs>
</svg>
