<?xml version="1.0" standalone="no"?>
<!DOCTYPE svg PUBLIC "-//W3C//DTD SVG 1.1//EN" "http://www.w3.org/Graphics/SVG/1.1/DTD/svg11.dtd" >
<svg xmlns="http://www.w3.org/2000/svg" xmlns:xlink="http://www.w3.org/1999/xlink" version="1.1">
<metadata>
Created by FontForge 20170731 at Fri Jan  8 17:10:33 2016
 By Aleksey,,,
(c) Matei Nichitescu. 2014. All Rights Reserved
</metadata>
<defs>
<font id="Typewriter-Bold" horiz-adv-x="1220" >
  <font-face 
    font-family="Typewriter"
    font-weight="700"
    font-stretch="normal"
    units-per-em="2048"
    panose-1="2 0 5 0 0 0 0 0 0 0"
    ascent="1638"
    descent="-410"
    x-height="1043"
    cap-height="1437"
    bbox="65 -443 1529 1476"
    underline-thickness="150"
    underline-position="-442"
    unicode-range="U+001D-2265"
  />
<missing-glyph 
d="M98 0v1434h1024v-1434h-1024zM147 49h926v1336h-926v-1336z" />
    <glyph glyph-name=".notdef" 
d="M98 0v1434h1024v-1434h-1024zM147 49h926v1336h-926v-1336z" />
    <glyph glyph-name=".null" horiz-adv-x="0" 
 />
    <glyph glyph-name=".null" horiz-adv-x="0" 
 />
    <glyph glyph-name="nonmarkingreturn" horiz-adv-x="508" 
 />
    <glyph glyph-name="space" unicode=" " horiz-adv-x="704" 
 />
    <glyph glyph-name="space" unicode="&#xa0;" horiz-adv-x="704" 
 />
    <glyph glyph-name="exclam" unicode="!" horiz-adv-x="601" 
d="M340 1455q158 -48 158 -137q6 0 25 -151q-44 -197 -75 -536q-53 -142 -162 -142q-86 0 -118 155v132q-37 191 -68 450q75 229 240 229zM333 399q79 0 163 -125q33 -92 33 -115q-66 -179 -200 -179q-223 11 -223 84q-31 58 -31 101q83 215 180 215q0 5 78 19z" />
    <glyph glyph-name="quotedbl" unicode="&#x22;" 
d="M98 0v1434h1024v-1434h-1024zM147 49h926v1336h-926v-1336z" />
    <glyph glyph-name="numbersign" unicode="#" 
d="M98 0v1434h1024v-1434h-1024zM147 49h926v1336h-926v-1336z" />
    <glyph glyph-name="dollar" unicode="$" 
d="M98 0v1434h1024v-1434h-1024zM147 49h926v1336h-926v-1336z" />
    <glyph glyph-name="percent" unicode="%" 
d="M98 0v1434h1024v-1434h-1024zM147 49h926v1336h-926v-1336z" />
    <glyph glyph-name="ampersand" unicode="&#x26;" 
d="M98 0v1434h1024v-1434h-1024zM147 49h926v1336h-926v-1336z" />
    <glyph glyph-name="quotesingle" unicode="'" 
d="M98 0v1434h1024v-1434h-1024zM147 49h926v1336h-926v-1336z" />
    <glyph glyph-name="parenleft" unicode="(" 
d="M98 0v1434h1024v-1434h-1024zM147 49h926v1336h-926v-1336z" />
    <glyph glyph-name="parenright" unicode=")" 
d="M98 0v1434h1024v-1434h-1024zM147 49h926v1336h-926v-1336z" />
    <glyph glyph-name="asterisk" unicode="*" 
d="M98 0v1434h1024v-1434h-1024zM147 49h926v1336h-926v-1336z" />
    <glyph glyph-name="plus" unicode="+" 
d="M98 0v1434h1024v-1434h-1024zM147 49h926v1336h-926v-1336z" />
    <glyph glyph-name="comma" unicode="," horiz-adv-x="513" 
d="M208 286h37q149 0 182 -140q9 -122 15 -129q-31 -191 -73 -226q-87 -155 -199 -155q-96 14 -96 88q0 42 102 191v14q0 17 -65 72q-37 82 -37 133q0 126 134 152z" />
    <glyph glyph-name="hyphen" unicode="-" horiz-adv-x="977" 
d="M205 746q133 -16 217 -16h190q6 0 117 12q171 -22 171 -73q15 -12 15 -61v-14q-32 -108 -149 -108q-133 16 -216 32q-90 -20 -365 -32q-114 37 -114 134v10q32 116 134 116z" />
    <glyph glyph-name="hyphen" unicode="&#xad;" horiz-adv-x="977" 
d="M205 746q133 -16 217 -16h190q6 0 117 12q171 -22 171 -73q15 -12 15 -61v-14q-32 -108 -149 -108q-133 16 -216 32q-90 -20 -365 -32q-114 37 -114 134v10q32 116 134 116z" />
    <glyph glyph-name="period" unicode="." horiz-adv-x="604" 
d="M275 391h17q125 0 183 -135l8 -63q0 -183 -236 -213q-97 0 -158 130q-14 50 -14 73v13q0 86 136 183q37 12 64 12z" />
    <glyph glyph-name="slash" unicode="/" horiz-adv-x="1072" 
d="M905 1457h10q59 0 76 -74v-26q0 -88 -106 -238q-128 -241 -169 -302q-56 -57 -115 -203q-71 -89 -94 -185q-50 -33 -150 -240l-65 -127q-52 -92 -150 -92q-67 23 -67 95q0 76 115 257q63 88 143 243q24 13 67 146q47 49 104 173q106 118 129 213q113 148 165 278
q57 82 107 82z" />
    <glyph glyph-name="zero" unicode="0" horiz-adv-x="1269" 
d="M644 1463h5q61 0 248 -78q179 -150 179 -217q84 -131 116 -331q6 -38 6 -44q-6 -112 -6 -131l6 -38q-37 -169 -96 -284q-6 -67 -115 -225q-162 -134 -283 -134q-94 -11 -121 -11q-291 68 -291 123q-127 113 -168 286q-44 60 -44 183q-5 0 -5 51v16q0 336 90 460
q0 88 151 221q19 53 198 131q90 22 130 22zM602 1206q-7 0 -32 5q-133 -26 -133 -121q-90 -167 -90 -187l-16 -127q0 -184 95 -375q0 -59 130 -139l126 -40q164 42 164 111q0 18 74 137v1q0 10 -11 77q48 75 48 207q6 0 6 17v5q0 12 -48 80q0 129 -93 228q-42 116 -113 116
q0 13 -17 16q-70 -11 -90 -11z" />
    <glyph glyph-name="one" unicode="1" horiz-adv-x="1181" 
d="M235 1476q114 -6 182 -6h94q170 0 230 -167v-21q0 -144 -19 -691q7 -103 7 -162q-8 -124 -13 -127q0 -120 174 -120q224 0 224 -95v-6q0 -101 -230 -101h-572q-237 0 -237 113q0 120 257 120q59 -6 107 -6q53 10 53 186q6 39 6 267v403q-19 199 -81 199q0 11 -37 12h-151
q-123 18 -123 95v6q0 74 129 101z" />
    <glyph glyph-name="two" unicode="2" horiz-adv-x="1290" 
d="M624 1460h128q206 0 376 -231q51 -120 51 -228q0 -84 -127 -274q-108 -87 -302 -140q-246 -123 -302 -165q-73 -90 -73 -146q0 -71 206 -71h72q77 6 89 6l108 -18l156 18q188 0 216 -128q0 -75 -107 -101q-294 -6 -461 -6q-23 0 -65 -6q-33 0 -33 3l-35 -3h-13
q-360 0 -360 49q-73 55 -73 161q15 157 132 344q201 211 322 211q274 83 326 151q85 64 85 115q0 116 -198 208l-92 22q-53 0 -246 -120q-53 -14 -69 -14q-120 24 -120 105q0 159 293 252q62 6 116 6z" />
    <glyph glyph-name="three" unicode="3" horiz-adv-x="1099" 
d="M364 1454q267 -10 319 -19q50 9 114 9q108 0 130 -83v-33q-14 -113 -213 -272q-14 -8 -41 -50v-5q0 -3 165 -47q121 -72 177 -155q16 -57 16 -102q0 -213 -117 -328q-69 -173 -314 -281l-198 -97l-180 -21h-25q-122 27 -122 120q0 89 149 104l67 -5q232 69 268 113
q228 167 228 247q35 42 40 68q-24 195 -161 195l-61 8l-152 -43h-21q-113 13 -113 99v10q0 60 116 153q94 100 183 207q0 4 -150 4q-252 0 -264 98v21q0 79 160 85z" />
    <glyph glyph-name="four" unicode="4" horiz-adv-x="1148" 
d="M365 1451h37q73 0 92 -97q0 -247 -57 -389q0 -20 -36 -139q0 -73 -47 -219q0 -42 172 -58q0 -8 21 -8q68 0 95 71q0 18 5 27q-5 105 -5 173q0 153 59 186h65q73 0 87 -97v-16q0 -57 -15 -220v-30q0 -84 58 -84q171 0 171 -82v-16q0 -88 -139 -88q-85 -39 -85 -98
q10 -100 10 -142q0 -134 -95 -155h-55q-77 0 -77 337v6q0 42 -83 42q-103 -5 -141 -5q-317 0 -317 62q-7 0 -10 57q0 61 52 170q0 27 104 337l26 242q42 70 42 191q26 42 66 42z" />
    <glyph glyph-name="five" unicode="5" horiz-adv-x="1063" 
d="M738 1469q181 0 181 -97v-5q0 -77 -141 -77l-268 -31q-25 0 -97 10q-76 0 -76 -109v-20q0 -93 51 -107q67 24 89 24h10q84 -31 175 -31q155 0 296 -202q13 -25 28 -183q0 -82 -144 -277q-68 -49 -166 -176q-85 -63 -316 -185q-96 -33 -151 -33h-57q-60 0 -87 47v40
q0 68 222 132q118 37 214 119q145 102 201 191q74 117 74 161v11q0 139 -167 177q-6 4 -9 4q-85 0 -192 -51l-155 -27h-13q-84 0 -98 174v135q0 35 11 74q0 6 -6 59q0 222 54 222q18 10 49 10q24 0 115 -10q15 0 95 10q93 -5 107 -5z" />
    <glyph glyph-name="six" unicode="6" horiz-adv-x="1006" 
d="M726 1457h5q91 0 113 -112q0 -94 -186 -151q-226 -95 -299 -270q-29 -89 -29 -98q0 -34 26 -34q113 20 135 20h22q243 -31 243 -68q171 -91 171 -353q0 -215 -212 -353q-43 -22 -197 -69q-195 38 -251 96q-95 78 -137 213q-38 0 -55 289v44q0 131 68 344q0 69 167 264
q156 147 286 177q88 61 130 61zM306 454v-14q0 -90 101 -202q55 -42 84 -42h44q99 0 138 120q38 43 38 104q0 97 -114 172q-89 14 -140 14q-94 -30 -129 -86q-22 -47 -22 -66z" />
    <glyph glyph-name="seven" unicode="7" horiz-adv-x="1054" 
d="M360 1466q19 0 123 -16q14 0 85 11q102 -5 135 -5q79 10 86 10q192 0 192 -151q5 0 5 -68q-48 -270 -102 -342q-64 -111 -237 -331q0 -12 -96 -153q-61 -178 -61 -376q-25 -75 -93 -75h-5q-84 0 -98 123v7q0 68 5 289q50 186 188 327q65 84 134 156q100 198 122 305v45
q0 42 -131 42q-77 -5 -162 -5h-31q-117 -11 -117 -76q-42 -190 -134 -190q-77 0 -93 97q26 350 99 350q0 15 186 26z" />
    <glyph glyph-name="eight" unicode="8" horiz-adv-x="1048" 
d="M482 1457q241 0 378 -194q48 -83 48 -169q-44 -227 -84 -227q-45 -65 -45 -73q1 -18 126 -135q67 -136 67 -223v-109q0 -71 -114 -231q-182 -126 -371 -126h-18q-158 30 -253 111q-72 64 -136 228q0 20 -6 30q6 31 6 47v10q0 42 -5 89q0 159 220 287q13 14 13 26v4
l-112 121q-42 109 -42 147v21q15 134 79 218q129 148 249 148zM368 1057q31 -120 60 -120q60 -55 98 -55q83 0 185 152q8 16 8 26q0 110 -51 164q-78 39 -112 39h-35q-89 0 -124 -89q-29 -82 -29 -117zM284 436v-20q0 -142 240 -260q260 64 260 211q0 156 -124 271
q-105 37 -123 40q-154 -42 -154 -84q-99 -112 -99 -158z" />
    <glyph glyph-name="nine" unicode="9" horiz-adv-x="1090" 
d="M444 1460h141q247 0 408 -312q31 -99 31 -142v-71q0 -235 -66 -340q-37 -176 -186 -363q0 -37 -150 -152q-15 -39 -189 -93q-42 -17 -121 -17h-35q-62 0 -81 74v42q0 73 114 90q17 14 199 108q0 15 175 181q43 93 43 109q-5 17 -7 17l-141 -40q-29 0 -109 30
q-70 -5 -97 -5q-56 0 -255 222q-43 80 -43 162q0 231 143 398q154 100 226 102zM317 1012q0 -136 169 -246q32 -8 38 -8h16q32 0 150 50q52 0 68 57q39 81 39 161q0 57 -103 162q-72 35 -109 35h-66q-144 0 -197 -194q0 -8 -5 -17z" />
    <glyph glyph-name="colon" unicode=":" 
d="M98 0v1434h1024v-1434h-1024zM147 49h926v1336h-926v-1336z" />
    <glyph glyph-name="semicolon" unicode=";" 
d="M98 0v1434h1024v-1434h-1024zM147 49h926v1336h-926v-1336z" />
    <glyph glyph-name="semicolon" unicode="&#x37e;" 
d="M98 0v1434h1024v-1434h-1024zM147 49h926v1336h-926v-1336z" />
    <glyph glyph-name="less" unicode="&#x3c;" 
d="M98 0v1434h1024v-1434h-1024zM147 49h926v1336h-926v-1336z" />
    <glyph glyph-name="equal" unicode="=" horiz-adv-x="1014" 
d="M181 918h26q46 0 91 -15q60 5 100 5h27q70 -10 68 -10q70 15 91 15q58 0 95 -10q100 10 140 10q103 0 103 -98v-25q0 -88 -74 -88h-29q-71 24 -79 24h-38q-92 -9 -272 -14q-54 9 -64 9q-111 -14 -149 -14h-29q-92 0 -108 107v16q0 71 101 88zM823 566h12q97 -13 97 -94
v-34q0 -78 -131 -93q-15 0 -110 10q-87 -5 -115 -5q-59 14 -67 14q-85 -19 -106 -19h-68q-27 0 -48 4q-18 -4 -116 -9q-106 20 -106 103q0 85 141 119l120 -25q52 9 77 9h11q107 -9 110 -9z" />
    <glyph glyph-name="greater" unicode="&#x3e;" 
d="M98 0v1434h1024v-1434h-1024zM147 49h926v1336h-926v-1336z" />
    <glyph glyph-name="question" unicode="?" horiz-adv-x="1078" 
d="M602 1460q134 0 310 -173q104 -100 104 -240q0 -224 -259 -337q-34 -18 -106 -194q-51 -59 -80 -67h-31q-84 12 -84 100v6q0 142 92 247q209 143 209 226v25q0 109 -182 158h-1q-166 -15 -166 -103q0 -152 -87 -196q-70 -27 -104 -27q-107 0 -142 181q40 146 146 263
q90 88 215 88q55 30 166 43zM579 397q147 0 191 -190v-27q0 -150 -246 -211q-185 49 -185 168v45q43 191 140 191q43 24 100 24z" />
    <glyph glyph-name="at" unicode="@" horiz-adv-x="1600" 
d="M830 1301h45q128 -25 289 -128q130 -60 147 -75q69 -60 126 -213q81 -119 92 -204v-131l-27 -148v-72q-12 -68 -61 -144q-91 -36 -205 -36q-144 32 -233 117q-6 4 -10 4h-14q-6 0 -75 -56q-134 -39 -176 -39q-214 0 -292 172q-10 37 -10 50q0 174 217 253h18q31 0 57 -4
q86 16 169 58q58 0 58 25v13q0 40 -109 74h-9q-70 0 -108 -83q-45 -51 -94 -51h-16q-121 26 -121 114q0 78 117 148q93 19 185 56h26q153 -23 216 -68q116 -85 116 -253q0 -59 -5 -228q0 -79 64 -103l38 -21q19 0 19 60q58 132 58 140v87q-35 77 -54 215q-12 62 -189 204
q-42 32 -230 71q-29 13 -58 13h-31q-105 0 -248 -107q-119 -82 -149 -182l-44 -182v-143q-9 -32 -9 -34v-26q10 -85 44 -157q16 -81 136 -170q88 -68 147 -104q93 -30 141 -30h49q69 0 162 56l83 34q130 0 130 -49q4 -18 4 -34q0 -98 -241 -180l-45 -10h-154
q-349 66 -349 99q-20 0 -256 228q-33 0 -58 239q0 22 -9 53v60q0 2 -9 34v74q28 149 100 328q45 104 258 247q127 104 304 126zM772 513l-54 4q-43 0 -91 -86l-8 -22q0 -51 106 -58q147 0 208 115q4 21 4 34q-5 31 -25 31h-24q-100 -18 -116 -18z" />
    <glyph glyph-name="A" unicode="A" horiz-adv-x="1465" 
d="M637 1445q222 -22 222 -60q39 0 95 -232q24 0 48 -210q42 -86 83 -305l49 -202q59 -136 153 -178q76 -80 80 -153q0 -97 -139 -114h-9q-121 11 -158 11l-88 -5q-192 0 -192 158q0 30 72 126v17q0 52 -182 52q0 10 -31 11q-47 0 -58 -69q0 -14 71 -120l7 -38v-24
q0 -104 -200 -130q-40 0 -157 11q-76 -5 -99 -5q-66 0 -111 117q-8 13 -8 35v22q0 64 110 122q62 34 122 296l77 330q0 116 129 477q61 60 114 60zM632 740v-33q0 -79 102 -79q58 0 58 84q-40 301 -67 301q-9 6 -13 6q-22 0 -30 -107q-50 -87 -50 -172z" />
    <glyph glyph-name="B" unicode="B" horiz-adv-x="1371" 
d="M221 1456q667 0 763 -57q182 -81 182 -210q48 -125 48 -184q0 -84 -59 -216v-8q0 -18 99 -123q17 -50 50 -200q-48 -355 -193 -391q-64 -54 -128 -61q-102 0 -416 -21h-14q-179 32 -210 32h-101q-27 0 -72 -5q-73 0 -86 93v22q0 109 135 127q56 0 56 86v75l22 425
q0 347 -48 347q0 21 -95 42q-40 0 -65 94q18 133 132 133zM559 1085q6 -172 28 -172q92 -32 134 -32h21q148 0 227 153q3 5 3 19q0 86 -141 135q-179 20 -206 20q-66 -25 -66 -123zM586 526v-43q-16 -146 -16 -159q0 -65 108 -65q5 0 98 -11v0q217 38 217 73q38 31 38 83
q0 137 -92 179q-31 8 -54 8h-73l-117 32h-6q-103 -41 -103 -97z" />
    <glyph glyph-name="C" unicode="C" horiz-adv-x="1196" 
d="M608 1453q95 0 231 -55q3 -2 17 -2l108 26q114 0 142 -153q-26 -117 -46 -271q-34 -104 -118 -104q-97 0 -184 233q0 25 -144 75h-6q-93 0 -165 -133q0 -52 -62 -151l-35 -185q0 -85 51 -232q0 -64 71 -103q72 -116 98 -116q20 -5 31 -5q116 45 264 296q53 32 93 32
q167 -24 167 -154q-8 -113 -139 -269q-234 -192 -348 -192h-31q-91 0 -269 87q-187 203 -187 298q-27 0 -62 389v17q0 129 52 236q16 106 57 152q10 8 112 164q174 120 302 120z" />
    <glyph glyph-name="D" unicode="D" horiz-adv-x="1323" 
d="M333 1443q390 -13 490 -45q226 -81 302 -236q112 -210 112 -352v-155q-39 -225 -118 -353q-121 -176 -193 -194q-44 -54 -203 -79q-23 -11 -79 -11l-110 19q-210 -9 -222 -38q-55 -19 -73 -19q-45 0 -141 96q-13 24 -13 49v4q0 134 135 178q51 0 81 234q-10 116 -10 130
v54q29 130 29 147v5q0 63 -5 242q-25 97 -104 97q-102 28 -102 102q0 92 189 120zM586 1054l8 -54q-4 -192 -12 -243q0 -7 8 -59l-4 -67q0 -20 25 -116v-19q-9 -60 -9 -65q0 -35 103 -41q42 0 125 73q86 144 86 194q29 42 29 118v28q0 86 -83 244q-29 31 -160 84h-24
q-92 -12 -92 -77z" />
    <glyph glyph-name="E" unicode="E" horiz-adv-x="1320" 
d="M628 1447l119 -15l23 5h119q80 0 123 -9q23 4 55 4q117 0 166 -286q5 -103 5 -140q-20 -115 -101 -115h-20q-91 0 -91 181q-26 138 -38 138l-46 10q-6 0 -51 -5q-20 0 -109 5q-227 0 -227 -64q-20 -59 -20 -88q9 -198 26 -198h20q70 0 87 56q36 91 95 91h15q96 0 116 -94
q0 -66 -20 -226q0 -3 10 -84q0 -168 -116 -168q-76 0 -128 146q-22 16 -44 16h-2q-54 -13 -54 -111q7 -213 35 -213q142 -35 208 -35h36q132 0 132 27q68 212 83 231q24 40 73 40q131 0 131 -252q5 -43 5 -67q-32 -217 -217 -217q-21 0 -65 -5q-81 5 -117 5q-31 0 -245 -20
q-86 20 -93 20q-173 -10 -189 -10q-237 21 -237 94q-5 20 -5 37q0 80 173 129q34 29 34 119q6 95 26 193q-10 71 -10 82l15 86q0 16 -10 70q5 40 5 80l-10 97q20 136 20 167q0 73 -128 87q-54 39 -54 75v10q0 88 147 101q80 15 95 15q27 0 76 -5q120 10 174 10z" />
    <glyph glyph-name="F" unicode="F" horiz-adv-x="1371" 
d="M313 1450h10q50 0 184 -16q184 16 239 16q68 0 372 -8q156 -48 156 -219q8 -121 8 -170q-28 -129 -137 -129q-144 0 -144 262q-33 49 -87 49h-287q-63 0 -63 -172q0 -33 -8 -141q15 -46 55 -46q77 0 102 125q0 32 64 74h72q90 -47 90 -148q-8 -84 -8 -134l24 -200v-8
q0 -93 -90 -140h-55q-99 0 -149 180l-38 11q-51 0 -51 -115v-112q0 -172 106 -172q117 -26 117 -107v-24q0 -90 -150 -116q-116 8 -194 8h-144q-232 0 -232 124v8q0 98 199 131q40 0 40 347v192q0 43 -8 112q24 146 24 215q0 72 -161 146q-22 36 -22 54q0 95 166 123z" />
    <glyph glyph-name="G" unicode="G" horiz-adv-x="1281" 
d="M629 1438l209 -62h4q30 0 141 7q98 -36 98 -134q0 -87 -15 -184q7 -64 7 -99q0 -97 -84 -165h-106q-83 31 -97 275q-69 107 -166 107q-150 0 -221 -207q-45 -155 -45 -217v-22q56 -325 89 -325q97 -130 177 -130h15q118 0 166 181q0 62 -165 95q-56 63 -56 94
q0 96 136 120h60l38 -7l13 7q22 0 36 -7q85 7 135 7q198 -39 198 -127q0 -26 -77 -150v-155q15 -168 15 -177q0 -93 -139 -144q-92 32 -116 32q-131 -61 -251 -61q-307 0 -468 311q-85 218 -85 413q0 249 133 490q123 175 314 209z" />
    <glyph glyph-name="H" unicode="H" horiz-adv-x="1371" 
d="M860 1440q52 -10 101 -10h125q126 0 151 -92v-22q0 -50 -111 -114q-29 0 -41 -70q5 -127 5 -141q-15 -103 -11 -103l1 -5v-6q0 -62 16 -162q-6 -55 -6 -61l11 -79q0 -40 -11 -210q0 -98 156 -160q43 -34 43 -69v-5q0 -62 -121 -91q-36 -34 -88 -34l-65 5
q-67 -10 -127 -10h-28q-169 19 -169 140v5q0 65 120 106q24 20 31 48q0 5 -5 59q0 92 15 185q0 68 -109 83q-55 -10 -132 -10h-15q-20 0 -26 4q-96 -19 -96 -52q9 -309 24 -309q175 -84 175 -135v-15q0 -60 -123 -125h-43q-24 0 -92 16h-2q-22 0 -108 -21q-220 22 -220 114
v16q0 89 134 131q13 13 23 94q0 22 -6 50l11 409q-4 6 -16 82q0 14 11 80q-14 240 -45 240q-107 57 -107 115q22 113 151 113h46q207 11 225 11h13q116 -20 116 -104q0 -129 -145 -129q-18 -13 -27 -35q5 -67 5 -102v-42q0 -48 -5 -132q18 -46 59 -46q20 0 97 5
q68 -16 83 -16q139 17 139 33l-5 84q10 53 10 60q-10 49 -10 80q0 14 5 79q0 23 -116 67q-46 45 -46 84q0 88 158 119h17z" />
    <glyph glyph-name="I" unicode="I" horiz-adv-x="1151" 
d="M809 1437h27q168 -25 168 -113q0 -89 -188 -113q-117 0 -117 -107q14 -60 25 -329q11 0 11 -72q0 -29 -5 -47q5 -47 5 -92v-16q0 -34 -5 -67q10 -59 10 -73q-10 -71 -10 -90q33 -70 89 -70h83q169 0 169 -119q0 -54 -76 -88l-58 6q-9 0 -70 -50q-51 -7 -64 -12
q-217 5 -305 21l-142 -26h-59q-121 0 -210 110q-12 31 -12 44q0 93 186 139h10q18 0 100 -24q66 11 66 46v20q0 34 5 78l-15 102q0 6 5 33q-11 199 -22 227q37 106 37 112q-10 46 -10 69q0 34 5 77q-10 40 -10 89v51q0 43 -103 58l-84 -16q-154 26 -154 124v5q0 83 172 108
h23q67 0 158 -16q16 0 89 11q57 -6 87 -6q132 16 189 16z" />
    <glyph glyph-name="J" unicode="J" horiz-adv-x="1238" 
d="M705 1437q98 -20 111 -20h10q26 0 123 10q191 -18 208 -75q12 -18 12 -37v-5q0 -84 -173 -116q-42 -30 -42 -48q0 -13 15 -72q-15 -73 -15 -117v-80q20 -80 20 -89v-10q0 -37 -10 -99q0 -31 20 -183q-43 -272 -91 -318q-58 -97 -180 -139q-78 -59 -142 -59h-18
q-258 26 -258 60q-215 112 -215 313q-5 0 -5 51q0 216 152 281q10 0 21 7q130 -32 185 -93q25 -34 25 -87v-11q0 -55 -62 -157v-17q0 -84 151 -102q101 0 152 173q15 67 21 143l-21 129q15 74 15 91q-10 80 -10 88q0 21 10 128q-10 81 -10 88q5 64 5 76q0 43 -105 76l-27 -4
q-103 10 -103 97q0 96 231 127z" />
    <glyph glyph-name="K" unicode="K" horiz-adv-x="1398" 
d="M387 1430q218 0 265 -72q12 -38 12 -60q0 -57 -117 -125q-12 -24 -17 -41l16 -80q-5 -29 -5 -31q8 -98 18 -98q25 0 108 118q0 30 123 141v17q-69 57 -69 88q0 63 157 132h136q196 -9 216 -65v-40q0 -71 -178 -138q-134 -208 -176 -250q-68 -43 -68 -96q8 -38 80 -158
q0 -12 123 -202q0 -17 115 -157q33 -76 161 -139q34 -47 34 -79q-19 -104 -142 -104q-95 -6 -209 -6h-142q-70 40 -70 90v16q0 36 79 107q1 2 1 10v11q0 14 -83 152l-76 136q-32 103 -72 103q-28 0 -55 -157q0 -15 32 -126q-6 -32 -6 -44q0 -47 81 -116q26 -36 26 -66
q0 -107 -211 -121h-260q-129 24 -129 121q0 47 121 107q29 24 45 67q5 264 10 287q-5 90 -5 175v287q-25 174 -73 174q-98 16 -98 78v11q0 122 302 143z" />
    <glyph glyph-name="L" unicode="L" horiz-adv-x="1389" 
d="M185 1437q108 0 136 -5q115 5 217 5h206q86 -20 86 -79v-16q0 -91 -189 -121q-12 0 -35 -53q5 -96 5 -163v-85q21 -342 21 -449v-134q0 -114 77 -114q22 0 169 27q70 -5 77 -5q44 0 55 146q0 119 80 225q38 30 79 30h26q90 0 90 -137l10 -96v-259q-14 -153 -121 -153
q-46 -16 -69 -16h-86q-52 0 -101 6q-68 -11 -188 -11h-70q-130 11 -143 11q-172 -11 -188 -11h-133q-86 0 -111 126q0 111 243 138q24 19 24 23q0 9 -5 86q5 131 16 182q-11 56 -11 93q11 50 11 78v5q0 15 -16 95q0 39 5 118l-41 224q-72 83 -156 83q-70 42 -70 100v13
q27 93 100 93z" />
    <glyph glyph-name="M" unicode="M" horiz-adv-x="1486" 
d="M384 1433q107 0 185 -204q0 -61 86 -196q0 -155 89 -285h-1q10 0 17 130q26 32 44 165q64 122 102 280q54 105 109 105h118q223 0 223 -106q0 -60 -129 -147q-6 -9 -13 -29q2 -5 14 -75q-7 -75 -10 -80q8 -46 20 -333q0 -8 -5 -18q9 -70 21 -354q9 -41 118 -102
q27 -46 27 -66v-6q0 -105 -216 -132h-190q-137 11 -137 90q0 40 119 230q10 47 10 75v32q0 29 -22 93v41q0 43 6 109q-11 20 -11 62v21q0 7 11 45v3q0 12 -1 13q-21 0 -83 -197q0 -133 -104 -175q-47 -25 -82 -25q-108 0 -158 146q0 69 -49 149q0 130 -63 209h8q8 0 4 -24
v-13q16 -56 26 -277q6 0 17 -131q0 -20 -11 -88q0 -114 129 -194q31 -48 31 -72v-22q0 -76 -113 -100h-324q-90 0 -116 125v7q0 69 86 95q34 0 48 104v208q0 59 6 97q-6 33 -6 91q0 121 16 236q-5 71 -5 103q11 50 11 78v27q0 15 -134 65q-27 48 -27 69v26q0 122 239 122h70
z" />
    <glyph glyph-name="N" unicode="N" horiz-adv-x="1398" 
d="M867 1443q424 -12 424 -70q33 -52 33 -75v-47q-16 -39 -64 -39h-114q-23 0 -35 -46q5 -95 5 -114q0 -16 -4 -24q4 -26 4 -47v-92q0 -86 -7 -86q6 -38 18 -191v-561q-36 -66 -85 -66h-38q-95 0 -155 189q-125 235 -162 368q-100 94 -100 212q-72 132 -114 227
q-22 68 -20 68h16q-12 -64 -12 -82q16 -49 16 -67v-213q0 -95 -5 -196q0 -255 92 -281q120 -32 120 -101v-33q0 -67 -108 -96h-394q-93 18 -93 85v22q0 61 145 125q46 44 46 168q5 0 5 -12q-16 46 -16 68v251q0 24 5 58q-11 27 -11 127v77q0 31 17 170q0 80 -141 148
q-17 28 -17 47v22q0 80 126 96h108q225 -27 225 -98q7 0 15 -121q101 -95 136 -275q97 -168 196 -418q16 -20 9 -20h-16l2 8v42q-16 120 -16 138l16 109v179q0 9 11 86q-36 145 -55 146q-5 15 -103 33q-49 48 -49 100q0 88 144 102z" />
    <glyph glyph-name="O" unicode="O" horiz-adv-x="1262" 
d="M629 1433h5q59 0 241 -76q175 -146 175 -211q81 -128 113 -322q5 -38 5 -43q-5 -109 -5 -127l5 -38q-36 -164 -92 -277q-8 -64 -113 -217q-156 -132 -275 -132q-92 -10 -118 -10q-284 66 -284 120q-124 110 -164 278q-42 59 -42 177q-5 0 -5 51v16q0 326 87 447
q0 86 147 215q19 52 192 127q89 22 128 22zM588 1182q-7 0 -31 4q-129 -24 -129 -116q-87 -163 -87 -182l-16 -123q0 -180 93 -365q0 -58 126 -135l122 -38q159 40 159 107q0 18 72 133v1q0 12 19 79q17 66 17 197q5 0 5 16v6q0 11 -46 77q0 126 -91 222q-41 112 -109 112
q0 13 -17 16q-67 -11 -87 -11z" />
    <glyph glyph-name="P" unicode="P" horiz-adv-x="1377" 
d="M211 1443h196q93 0 202 -5q27 5 109 5q48 -16 59 -16h22q5 0 84 11h29q121 0 292 -152q37 -35 93 -228q-22 -90 -27 -198q-115 -193 -182 -232q-173 -106 -434 -106q-72 0 -72 -39v-20q19 -223 98 -223q106 -38 106 -116q0 -117 -192 -139q-21 -5 -53 -5h-322
q-154 0 -154 111v6q0 149 218 149q18 0 24 34v127q-11 121 -11 130v574q-12 88 -84 88q-136 22 -136 106v21q0 87 135 117zM545 1074q21 -117 21 -150q0 -26 -11 -86q18 -82 77 -82h16q17 0 48 5l153 -16q12 0 105 86q35 0 78 70v5q-18 245 -84 245q-85 42 -253 69h-4
q-136 0 -136 -76q0 -15 -10 -70z" />
    <glyph glyph-name="Q" unicode="Q" horiz-adv-x="1362" 
d="M679 1443q105 0 294 -152q132 -123 132 -211q75 -178 75 -205q-5 -68 -5 -80q0 -41 5 -76q-5 -62 -5 -140v-28q-27 -183 -71 -234q-9 -80 -112 -208q-47 -69 -55 -131q14 -104 13 -104q9 0 172 127l48 8h12q84 0 107 -163q-106 -283 -280 -283h-25q-133 39 -190 100
q-97 99 -97 283q0 15 -220 34q-202 79 -226 148q-24 15 -133 269q0 57 -43 145v22q11 79 11 85v22q0 4 -11 57v149q39 226 99 300q61 169 129 169q153 86 229 86q115 11 147 11zM287 715q0 -68 44 -242q4 -64 -6 -64q134 163 187 163q300 -21 300 -70q37 -76 94 -76
q34 0 57 277q-11 72 -11 157v10q-42 219 -78 219q-55 92 -201 92q-39 16 -75 16h-11q-170 0 -246 -189q-16 -220 -54 -293zM488 207q0 -6 83 -15q20 -15 32 -15h6q115 37 115 107q-25 69 -77 69q-71 0 -154 -131q0 -5 -5 -15z" />
    <glyph glyph-name="R" unicode="R" horiz-adv-x="1395" 
d="M249 1446h116q161 0 316 -16q50 11 83 11h118q89 -23 218 -81q58 0 129 -155q79 -64 79 -114v-175q-50 -162 -96 -208q-61 -107 -118 -107q-18 -17 -18 -55q0 -36 75 -163q13 -120 27 -120q141 -81 141 -133v-19q-32 -126 -122 -126h-44q-186 0 -224 112q-60 107 -60 293
q-68 125 -148 125q-35 -11 -54 -11h-74l-51 15q4 1 4 -4q11 -33 11 -56q0 -32 -5 -128q18 -63 56 -63q92 0 154 -179v-8q0 -73 -157 -101h-390q-140 34 -140 128q0 109 159 137q46 37 46 241v367q0 99 6 247q-29 80 -105 124q-106 30 -106 99v11q0 90 174 112zM530 1158
q11 -38 11 -67v-238q0 -75 208 -93q60 0 238 122q49 82 49 177q0 54 -128 141q-67 -5 -122 -5h-13q-78 11 -79 11q-164 0 -164 -48z" />
    <glyph glyph-name="S" unicode="S" horiz-adv-x="1259" 
d="M642 1443q137 -46 184 -46h8q75 10 84 10h20q163 0 163 -127q0 -76 -10 -113q5 -18 5 -36q-36 -180 -36 -196q-42 -33 -83 -33q-166 79 -166 169q-36 76 -156 76q-26 26 -39 26q-9 0 -75 -72q-43 -23 -43 -127q-11 0 -15 -13q0 -18 137 -58q43 -38 74 -38q46 11 70 11h18
q85 -41 95 -41q72 0 140 -86q94 -31 94 -112q18 -92 72 -186v-22q-10 -48 -10 -74v-51q0 -49 -82 -125q-65 -88 -166 -149q-177 -53 -277 -53q-241 67 -302 106q-2 1 -11 1q-11 0 -86 -61q-37 -20 -62 -20q-84 0 -112 120v12q0 121 51 248q0 49 70 181q31 31 75 31
q140 -18 140 -133q0 -86 209 -190l29 -5q128 0 205 97q18 38 18 124q0 107 -138 107q0 12 -70 31q-57 -5 -99 -5q-54 42 -155 79q-84 43 -172 182q-17 0 -25 188q0 127 144 279q58 45 250 84q0 10 35 10z" />
    <glyph glyph-name="T" unicode="T" horiz-adv-x="1350" 
d="M952 1437h102q124 0 179 -204v-24q0 -29 13 -190h-3l11 -42v-128q-38 -91 -121 -91h-37q-52 0 -97 96q-4 0 -40 46v54q0 18 11 75q-12 144 -26 144l-27 6h-7q-92 0 -92 -50v-42q0 -59 -15 -76q4 -55 4 -84v-107q0 -25 6 -25l-6 12v-189q0 -17 -26 -91q15 -39 15 -53v-59
q-10 -52 -10 -58v-11q0 -66 146 -93q147 -37 147 -79q5 0 16 -78q-18 -116 -95 -116h-534q-226 29 -226 84q0 7 -11 34q0 105 177 140q29 0 71 -10q32 0 56 56l-5 52l16 403q-6 42 -6 129v75q0 30 6 74q-15 162 -90 162q-9 5 -18 5q-93 0 -93 -81q0 -5 -5 -126
q16 -64 16 -79q-35 -162 -166 -162q-113 22 -113 111q5 115 21 208q-16 115 -16 128q0 209 160 249h23q87 -16 109 -16h19q78 10 87 10h303q157 11 171 11z" />
    <glyph glyph-name="U" unicode="U" horiz-adv-x="1269" 
d="M170 1437h318q145 -32 145 -138v-5q0 -52 -97 -141q-6 -5 -15 -127v-122q0 -39 -6 -64q6 -26 6 -65v-128q0 -28 -21 -106q42 -104 42 -135q0 -111 65 -131q67 -30 73 -30q138 27 138 92q0 45 6 71q-12 447 -22 655q-17 152 -67 152q-99 48 -99 106v16q0 100 250 100h108
q190 -17 190 -100v-6q0 -42 -75 -113q-64 -82 -64 -105q16 -134 32 -798q-9 -107 -101 -231q-109 -93 -183 -93q0 -11 -62 -11h-82q-172 27 -310 129q-104 99 -104 467q-5 38 -5 189q0 43 5 192q-20 274 -85 274q-75 50 -75 95v18q22 93 95 93z" />
    <glyph glyph-name="V" unicode="V" horiz-adv-x="1395" 
d="M841 1431h337q131 -21 131 -101q0 -62 -113 -130q-82 -50 -82 -163q-70 -368 -211 -852q-54 -200 -125 -200l-33 -5h-50q-129 0 -215 190q0 21 -54 282q0 66 -43 195q0 77 -97 273q-12 176 -45 192q-45 106 -90 106q-76 47 -76 112v11q0 70 104 85h272q126 0 161 -110
q0 -66 -109 -124l-5 -8v-3q49 -219 60 -293q0 -114 74 -310q43 -125 59 -179l8 -6q10 0 63 219l-6 76q27 111 50 249q64 84 64 225q0 7 -108 147q0 7 -6 37q19 85 85 85z" />
    <glyph glyph-name="W" unicode="W" horiz-adv-x="1356" 
d="M203 1430h142q86 -50 86 -126v-15q-38 -113 -38 -178v-7q0 -21 31 -173l-6 -63q39 -155 31 -155h-5q24 26 24 67v76q13 172 50 298q-25 105 -37 181q21 95 99 95h181q87 0 100 -126q-25 -205 -25 -229q44 -152 44 -190q-6 -77 -6 -79q12 -93 29 -93q9 12 20 85l-6 24
q0 48 12 148q-6 11 -6 24q32 156 32 166q0 20 -33 170q40 100 114 100h100q115 0 143 -105v-25q-68 -141 -74 -263q-30 -138 -51 -341q-68 -267 -68 -415q0 -209 -108 -301h-120q-99 64 -133 207v4l-1 132q-31 188 -31 234l6 25q0 31 -18 47q-19 -9 -19 -67q0 -67 -55 -364
v82q30 111 5 -178q-56 -122 -138 -122h-50q-107 0 -168 211v15q0 21 6 130q-62 484 -62 549l-49 251q-76 130 -76 162v31q0 78 128 101z" />
    <glyph glyph-name="X" unicode="X" horiz-adv-x="1441" 
d="M318 1430h261q77 0 85 -112q0 -45 -71 -121v-5q0 -63 125 -219h-3q24 0 47 134q64 82 64 96v5q-54 68 -54 99v29q27 94 128 94h240q199 0 199 -102v-21q0 -91 -159 -117q-76 -34 -159 -234q-139 -174 -139 -259q0 -73 176 -334q97 -142 134 -142q158 -27 158 -118v-10
q0 -108 -150 -108h-309q-108 29 -108 91v27q0 30 76 126v11q0 26 -82 159q0 41 -47 66q-27 0 -137 -245q0 -16 61 -66q21 -30 21 -67q0 -61 -65 -107h-249q-275 0 -275 113v21q0 88 136 112q58 29 125 133q0 24 198 334q15 38 15 53v5q0 31 -82 136q0 83 -197 288
q-119 27 -177 51q-29 39 -29 64v22q0 118 243 118z" />
    <glyph glyph-name="Y" unicode="Y" horiz-adv-x="1329" 
d="M792 1452h351q86 0 133 -120v-35q0 -69 -182 -114q-47 -56 -177 -445q-70 -79 -68 -169q-27 -43 -27 -50q0 -160 41 -287q15 -14 184 -41q67 -52 67 -113q-34 -87 -119 -87q-46 5 -69 5q-48 -16 -69 -16h-474q-103 24 -103 101q0 110 247 154q29 19 29 51q0 199 -86 454
q-58 106 -90 213q-52 53 -93 203q-38 72 -167 72q-45 48 -45 91q0 122 187 122h330q95 0 95 -90v-22q0 -117 -75 -117l-28 -18v-15q31 -157 84 -197q41 -29 41 -8q29 12 85 195v16q-6 11 -75 53q-4 43 -17 58v67q11 89 90 89z" />
    <glyph glyph-name="Z" unicode="Z" horiz-adv-x="1262" 
d="M433 1443h510q81 0 142 -112l7 -36v-28q0 -71 -198 -311q-48 -62 -94 -180q-131 -159 -176 -199q0 -5 -157 -295q-4 -6 -4 -14q10 -17 40 -17h64q42 0 117 -25l100 37q51 -7 72 -7q30 16 30 66v71q35 320 95 320q28 10 48 10q93 0 138 -63v-403q-19 -256 -92 -256
q0 -15 -131 -21h-135q-53 0 -93 10q-67 -10 -138 -10h-264q-234 10 -234 78l-5 32v8q17 224 66 249l149 195q0 39 191 313q26 6 75 127q115 94 115 164q22 19 22 35q0 -5 -1 -4l-64 -5q-60 22 -72 22q-179 0 -179 -67l-21 -118q5 -53 5 -88q-31 -87 -121 -87h-22
q-76 0 -100 114v298q0 116 123 192q120 5 192 5z" />
    <glyph glyph-name="bracketleft" unicode="[" 
d="M98 0v1434h1024v-1434h-1024zM147 49h926v1336h-926v-1336z" />
    <glyph glyph-name="backslash" unicode="\" horiz-adv-x="1045" 
d="M263 1344q51 -126 162 -269q22 -93 127 -207q56 -120 102 -168q42 -129 66 -142q77 -151 140 -235q113 -176 113 -250q0 -71 -66 -93q-97 0 -147 89l-65 124q-97 201 -147 232q-23 94 -92 180q-58 142 -113 197q-41 59 -166 293q-105 146 -105 232v24q17 73 76 73h9
q49 0 106 -80z" />
    <glyph glyph-name="bracketright" unicode="]" 
d="M98 0v1434h1024v-1434h-1024zM147 49h926v1336h-926v-1336z" />
    <glyph glyph-name="asciicircum" unicode="^" 
d="M98 0v1434h1024v-1434h-1024zM147 49h926v1336h-926v-1336z" />
    <glyph glyph-name="underscore" unicode="_" 
d="M98 0v1434h1024v-1434h-1024zM147 49h926v1336h-926v-1336z" />
    <glyph glyph-name="grave" unicode="`" 
d="M98 0v1434h1024v-1434h-1024zM147 49h926v1336h-926v-1336z" />
    <glyph glyph-name="a" unicode="a" horiz-adv-x="1269" 
d="M551 1060h32q201 -30 283 -89q150 -111 150 -329q0 -79 -6 -303q0 -108 92 -149q80 -24 80 -83v-6q0 -86 -134 -115h-9q-76 0 -202 112q-10 7 -18 7h-18q-12 0 -106 -74q-172 -51 -227 -51q-279 0 -380 223q-13 47 -13 64q0 227 281 329h23q40 0 77 -6q114 22 225 78
q83 0 83 39v18q0 57 -151 104h-14q-98 0 -150 -113q-57 -65 -117 -65h-21q-153 33 -153 145q0 100 151 190q121 25 242 74zM527 426l-72 5q-63 0 -129 -116l-11 -32q0 -74 148 -85q200 0 284 157q5 29 5 48q-7 46 -40 46h-33q-133 -23 -152 -23z" />
    <glyph glyph-name="b" unicode="b" horiz-adv-x="1256" 
d="M236 1440h31q180 0 217 -160q7 -33 7 -41q-13 -92 -13 -154v-23q4 -56 35 -56q276 44 306 44q118 0 287 -242q33 0 79 -360q0 -76 -77 -295q-159 -178 -250 -178q-41 -25 -107 -25h-19q-60 0 -205 68h-24q-3 0 -95 -25q-122 0 -153 162q0 179 24 312q-24 313 -24 390
q13 91 18 101q-6 64 -6 115v50q0 114 -142 135q-50 40 -50 81v23q38 78 161 78zM478 553q33 -206 108 -281q64 -96 220 -96q118 0 152 223q3 0 3 5v37q0 250 -103 363q-60 32 -114 32h-31q-114 0 -235 -280v-3z" />
    <glyph glyph-name="c" unicode="c" horiz-adv-x="1051" 
d="M500 1056q161 0 338 -89q87 -93 87 -184v-42q-22 -102 -161 -102h-5q-82 0 -148 138q-10 36 -106 36h-5q-146 0 -184 -268v-72q0 -111 102 -230q50 -43 132 -43h23q47 0 189 156q51 41 87 41h28q74 0 87 -92v-21q-61 -166 -215 -245q-116 -59 -172 -59q-254 28 -254 69
q-214 205 -214 253q-34 146 -34 189q33 340 90 340q167 225 335 225z" />
    <glyph glyph-name="d" unicode="d" horiz-adv-x="1250" 
d="M817 1452q205 0 205 -250v-80q0 -93 -6 -173q6 -42 6 -69q0 -24 -6 -57q6 -111 13 -428q-13 -65 -13 -99q0 -147 67 -147q80 -30 88 -62v-26q0 -82 -130 -82h-31q-93 0 -180 86h-12q-206 -99 -264 -99q-34 -6 -59 -6q-192 0 -341 299q-69 214 -69 335q0 133 141 309
q125 152 287 152h19q67 0 285 -79q13 4 13 28v66q-46 187 -118 187q-62 0 -93 91q0 104 198 104zM321 551v-62q0 -64 68 -201q0 -46 64 -86q33 -16 85 -16h25q178 0 255 247q12 25 12 74q0 106 -91 209q-40 98 -114 133q-57 24 -101 29q-62 0 -161 -191q-42 -87 -42 -136z
" />
    <glyph glyph-name="e" unicode="e" horiz-adv-x="1148" 
d="M485 1059h186q110 0 294 -132q116 -229 116 -267v-18q0 -121 -158 -195l-221 38l-28 -6h-40q-77 0 -187 6q-91 0 -116 -85q64 -185 123 -185q0 -26 88 -31h51q202 60 202 92q80 82 131 82q93 0 93 -110q-64 -150 -262 -233q-83 -32 -174 -45q-270 57 -328 114
q-120 123 -160 330q-20 51 -20 111q44 271 98 315q150 213 258 213q8 6 54 6zM361 747v-18q0 -54 77 -67q1 0 101 25q149 -13 225 -25q68 8 68 42q0 115 -238 166h-12q-221 -62 -221 -123z" />
    <glyph glyph-name="f" unicode="f" horiz-adv-x="1114" 
d="M694 1446q111 0 293 -125q44 -43 57 -120q-35 -151 -156 -151q-94 0 -184 177q-13 10 -35 10h-6q-91 0 -113 -125v-5q0 -80 141 -80q66 -44 66 -101q0 -102 -180 -102q-45 -28 -45 -67q6 -206 6 -319v-38q0 -63 -6 -151q0 -63 190 -86q72 -37 72 -100q0 -47 -53 -83h-59
q-68 0 -100 6q-40 -6 -84 -6l-173 19q-105 -13 -161 -13q-89 28 -89 89v13q0 67 106 82q37 -6 57 -6h3q97 20 97 85l-13 89q6 54 6 81q0 28 -6 139q19 116 19 149q0 142 -81 142q-157 0 -157 95v19q0 41 98 71l37 -7h22q56 0 56 143q0 117 117 210q174 66 258 66z" />
    <glyph glyph-name="g" unicode="g" horiz-adv-x="1281" 
d="M969 1065h27q126 0 206 -166l7 -41v-20q-14 -116 -122 -116h-12q-93 0 -147 110l1 -1h-6q10 0 7 -11q12 -59 12 -120v-32q-52 -230 -118 -230q-112 -91 -203 -91h-20q-117 18 -123 18q-50 -12 -50 -47v-18q0 -17 206 -34q28 0 89 6q324 0 423 -231q14 -25 20 -122
q0 -165 -231 -285q-91 -32 -235 -44q-451 0 -560 192q-65 63 -65 149q0 98 103 264v27q0 26 -18 107q0 108 78 201v12q0 14 -12 71q0 214 73 246q101 170 316 170h42q41 0 79 -6zM452 694q0 -162 187 -162q74 0 114 140v20q-39 127 -139 127q0 12 -33 12q-129 -27 -129 -131
v-6zM355 -27v-18q0 -53 102 -121q163 -41 273 -41h24q162 0 193 152v15q-24 139 -201 139q-95 12 -125 12h-9q-257 -58 -257 -138z" />
    <glyph glyph-name="h" unicode="h" horiz-adv-x="1293" 
d="M214 1433h41q217 0 217 -188q-12 -145 -12 -184q8 -64 34 -64q152 71 222 71q208 0 285 -124q75 -107 75 -195v-156l-2 -15q-1 0 8 -159q-12 -74 -12 -124q0 -35 107 -94q33 -50 42 -89q0 -95 -120 -142q-408 0 -408 85l-6 42v13q0 35 105 129q20 56 20 79
q-12 98 -12 158q30 111 30 124q0 219 -106 219q-116 0 -232 -170l-30 -379q0 -22 113 -148q0 -16 6 -26q0 -114 -180 -114h-132q-174 0 -174 110q0 48 111 141q14 38 14 86v24q0 26 -11 94q0 32 11 188q0 19 -5 100q0 11 5 72l-5 96q0 33 11 101q-6 39 -6 78v12q0 23 6 55
q0 77 -137 143q0 15 -12 29v30q0 92 139 92z" />
    <glyph glyph-name="i" unicode="i" horiz-adv-x="1136" 
d="M526 1363q147 -35 147 -140v-23q0 -68 -124 -127l-42 -8q-129 63 -129 141v25q42 132 148 132zM329 1038q264 -15 264 -58q69 -55 69 -165q11 0 11 -78l-17 -205q11 -78 11 -142q0 -37 -6 -169h-2q7 -51 50 -51q105 11 233 17q114 -31 114 -111q0 -77 -102 -95h-106
q-34 0 -167 12q-43 0 -120 -6q-49 6 -77 6l-108 -17q-14 0 -93 11q-74 -10 -91 -17q-105 0 -117 118q27 93 94 93q18 0 109 -5q27 0 98 12q24 -7 44 -7h11q32 0 32 112l6 91q-6 414 -37 414q-22 40 -109 40q-45 0 -171 -6q-77 31 -77 83v6q0 117 213 117h41z" />
    <glyph glyph-name="j" unicode="j" horiz-adv-x="879" 
d="M628 1332h20q110 0 144 -147q0 -104 -162 -119q-136 34 -136 144q0 86 134 122zM315 1026q372 0 440 -117q21 -17 26 -516v-274q0 -141 -68 -278q-132 -151 -285 -151q-224 0 -260 93q-93 129 -93 190v22q0 138 118 138q158 -20 158 -149q0 -77 45 -77q118 0 158 109
q32 84 32 285v199q0 95 5 236q-20 88 -52 88q-34 -10 -106 -16q-207 21 -207 112v6q16 100 89 100z" />
    <glyph glyph-name="k" unicode="k" horiz-adv-x="1362" 
d="M234 1455q244 0 244 -190v-232q-19 -240 -19 -273q0 -108 39 -108q64 13 183 119q8 13 8 15q-61 126 -61 144q0 81 183 81q63 0 182 -18q31 6 56 6h37q133 -10 133 -81v-18q0 -82 -173 -104q-197 -120 -197 -170v-10q40 -151 254 -383q44 -30 168 -77q40 -45 40 -77v-35
q-37 -58 -104 -58h-331q-120 16 -120 99q0 44 89 121q2 3 2 9q-130 239 -218 239q-70 0 -163 -160v-20q0 -46 121 -102q37 -58 37 -93v-12q0 -65 -95 -87h-174q-280 0 -280 69v18q0 79 126 144q32 24 32 148v288q18 57 18 71v36q0 41 -18 151q0 42 6 105q0 155 -31 194
q-109 89 -109 148q30 103 135 103z" />
    <glyph glyph-name="l" unicode="l" horiz-adv-x="1166" 
d="M232 1446q111 -6 179 -6h91q167 0 226 -163v-22q0 -141 -18 -676q6 -102 6 -159q-6 -121 -12 -124q0 -118 170 -118q220 0 220 -93v-6q0 -99 -226 -99h-561q-232 0 -232 111q0 118 252 118q58 -6 105 -6q51 10 51 182q6 38 6 261v395q-19 194 -79 194q0 12 -36 13h-148
q-121 17 -121 93v6q0 74 127 99z" />
    <glyph glyph-name="m" unicode="m" horiz-adv-x="1350" 
d="M549 1056h6q62 0 162 -87q12 -8 21 -8q7 0 134 68q55 14 100 14h19q136 0 189 -207v-53q0 -52 -19 -182q19 -88 19 -127v-259q0 -28 88 -127q0 -9 7 -21q0 -87 -183 -87h-103q-93 13 -93 89q0 17 84 116l5 18q-7 84 -7 120q13 72 13 100v7q0 36 -13 145q13 102 13 113
q-13 126 -51 126q-89 0 -170 -225l-7 -113q6 -109 6 -129v-12q0 -9 -19 -128v-5q0 -18 57 -135v-20q-33 -67 -94 -67h-153q-42 20 -62 60v23q0 19 64 126q12 44 12 51q0 11 -6 115q19 79 19 106v63q0 277 -70 277h-6q-44 0 -151 -228l18 -79q-7 -138 -26 -249v-11
q0 -27 89 -153v-41q-19 -38 -62 -60h-180q-111 13 -111 93q94 167 94 199v11q-12 111 -12 115q0 54 6 214q-31 278 -75 278q-26 67 -26 80q25 73 94 73h45q62 0 162 -94q4 0 16 -7q-5 0 84 97q52 17 73 17z" />
    <glyph glyph-name="n" unicode="n" horiz-adv-x="1284" 
d="M196 1052h86q79 0 148 -97h16l150 70q15 8 88 15l42 -6q53 6 129 6q205 -122 205 -298q6 -75 6 -80q-7 -391 -18 -391q0 -36 133 -111q37 -42 37 -91q-43 -89 -110 -89h-298q-111 0 -140 97v14q0 54 153 167q5 53 2 53q-3 8 -3 90v158q0 241 -91 241q0 17 -68 24
q-78 0 -205 -205l-17 -121q39 -326 91 -326q48 -57 48 -87v-6q0 -93 -255 -93h-6q-244 0 -244 111q0 26 100 113q17 39 28 136q-19 272 -19 383v36q0 54 -96 182l-7 42q0 58 115 63z" />
    <glyph glyph-name="o" unicode="o" horiz-adv-x="1117" 
d="M608 1059q67 0 240 -110q66 0 129 -151q72 -130 72 -203v-65q-25 -284 -68 -284q-186 -266 -356 -266h-63q-169 0 -307 98q-157 148 -157 204q-23 172 -23 255q0 113 95 304q204 218 415 218h23zM292 543v-64q0 -17 -5 -27q0 -88 92 -191q106 -91 171 -91h18q45 0 139 81
q77 0 119 225q22 22 22 55v10q-46 181 -46 180q-101 125 -202 125q0 13 -63 23q-86 0 -200 -138q-45 -132 -45 -188z" />
    <glyph glyph-name="p" unicode="p" horiz-adv-x="1296" 
d="M262 1046h78q78 0 174 -68q3 -2 10 -2q141 70 224 70q166 0 313 -103q166 -194 166 -415v-6q0 -348 -236 -496q-109 -41 -198 -41q-109 0 -231 76h-11q-58 0 -71 -108q0 -209 83 -209q147 0 147 -106q-32 -81 -102 -81h-249q-274 0 -274 84v6q0 78 166 90q64 24 64 114
v396q0 78 6 191q-13 88 -13 173q0 13 7 141q0 124 -84 146q-88 16 -88 83q0 60 119 65zM493 491q33 -153 97 -213q100 -132 178 -132q100 0 232 167q17 41 36 216q0 112 -99 225q-62 112 -118 112h-39q-157 -66 -259 -226q-10 -13 -28 -149z" />
    <glyph glyph-name="q" unicode="q" horiz-adv-x="1223" 
d="M534 1054h43q29 0 176 -43h4l111 31q97 0 127 -129q0 -220 -6 -869q0 -23 13 -154l-7 -62q0 -57 120 -87q34 -37 34 -66v-12q0 -94 -191 -94h-252q-117 0 -117 82q0 73 169 126q21 24 21 46q0 170 -61 170v0q-144 -37 -190 -37h-19q-183 0 -259 123q-63 30 -159 281
l-25 239q76 248 140 318q126 137 328 137zM325 457q47 -239 113 -239q63 -43 114 -43q138 0 193 198q25 25 34 89q-17 220 -51 220q-78 117 -151 117q-153 0 -204 -102q-48 -211 -48 -240z" />
    <glyph glyph-name="r" unicode="r" horiz-adv-x="1214" 
d="M315 1059q109 0 239 -64h2q224 47 258 47h12q262 0 321 -215q5 -43 5 -49q0 -150 -140 -190q-153 37 -153 79q-4 2 -34 126q-10 11 -23 11h-5q-58 0 -161 -120q-81 -62 -81 -214v-58q0 -134 61 -173q194 -44 194 -146q0 -89 -127 -113h-546q-56 39 -56 84v24
q22 112 52 112q0 12 137 28q55 35 55 248q0 12 -47 242v71q0 50 -128 50q-75 46 -75 101q0 119 211 119h29z" />
    <glyph glyph-name="s" unicode="s" horiz-adv-x="1111" 
d="M480 1064h23q45 0 325 -40q193 0 213 -181v-12q0 -158 -100 -158h-6q-128 0 -183 118q-71 60 -185 60h-11q-206 -11 -206 -95v-3q48 -132 251 -132q10 0 106 5q175 -31 241 -105q110 -80 110 -232q0 -137 -174 -238q-75 -81 -192 -81q-243 12 -358 43q-37 33 -187 50
q-72 53 -72 106q0 237 42 277q45 36 75 36h23q79 0 121 -166q145 -139 259 -139q160 0 229 106v10q-28 126 -91 126q-52 22 -434 65q-184 85 -184 284q0 108 130 229q148 67 235 67z" />
    <glyph glyph-name="t" unicode="t" horiz-adv-x="1102" 
d="M408 1461h26q122 -27 122 -192q-12 -93 -12 -123v-10q13 -53 40 -53h4q134 18 152 18q200 -32 200 -121v-10q-63 -128 -167 -128q-65 0 -180 24q-46 0 -55 -69l18 -153q-12 -115 -12 -160v-12q0 -156 96 -216h21q48 0 158 123q83 72 120 72h37q58 -34 58 -91v-35
q0 -149 -210 -300q-85 -45 -145 -45q-103 0 -249 100q-119 131 -119 239v331q0 186 -52 186q-135 0 -170 84q-14 23 -14 43v33q61 99 137 99h59q23 0 23 63v23q0 4 -12 117q0 124 126 163z" />
    <glyph glyph-name="u" unicode="u" horiz-adv-x="1241" 
d="M198 1043h156q90 0 146 -197q0 -21 -39 -116q10 -20 10 -65v-386q0 -63 82 -79h9q97 0 248 260q9 17 9 38v29q0 8 -17 137v94q0 58 -96 106q-31 32 -31 61v33q34 68 135 68h37q201 -37 201 -142v-12q-17 -106 -23 -460q18 -112 22 -197q111 -53 111 -98v-35
q0 -100 -146 -100q-96 0 -187 88l-24 4h2q-49 -16 -154 -85q-69 -19 -87 -19h-93q-70 0 -149 138q-89 130 -89 246v288q0 164 -69 208q-87 32 -87 106q29 87 123 87z" />
    <glyph glyph-name="v" unicode="v" horiz-adv-x="1202" 
d="M784 1061h159q193 0 193 -107q0 -71 -123 -141q-24 -27 -81 -193q-87 -274 -114 -454q-28 -105 -122 -170l-71 -26q-124 0 -179 238q-19 26 -58 196q-52 60 -93 229q-42 150 -129 207q-75 40 -91 70v67q53 78 227 78h116q163 0 163 -112q0 -57 -81 -156v-20
q34 -89 108 -368q19 -14 18 -14q25 0 74 228q51 118 51 157q0 38 -84 110q-20 44 -20 63q0 94 137 118z" />
    <glyph glyph-name="w" unicode="w" horiz-adv-x="1323" 
d="M682 1058q97 0 115 -124q-24 -84 -30 -257l51 -192l12 -2h9q6 0 44 139q46 57 46 186v4q-36 123 -36 141q0 65 88 81h126q133 -7 133 -93q0 -27 -112 -125q-70 -163 -70 -363q-56 -126 -73 -346q-57 -125 -152 -125q-115 0 -128 211q-43 147 -60 147h-5q-65 -32 -79 -262
q-36 -108 -122 -108q-146 0 -164 199q-30 90 -49 272q-35 125 -54 279q-29 135 -91 203q0 8 -6 20q0 97 140 97q164 0 164 -123q0 -36 -6 -144q25 -87 31 -252q11 -26 5 -26h24q32 0 72 211v23q0 52 -60 179v33q0 117 212 117h25z" />
    <glyph glyph-name="x" unicode="x" horiz-adv-x="1269" 
d="M176 1059q215 -6 302 -6q120 -30 120 -117q-41 -83 -41 -109q54 -107 85 -107q110 58 110 123l-42 113q24 91 120 91q58 0 294 -6q75 -16 75 -72v-6q0 -79 -147 -135q-35 -18 -150 -175q-112 -89 -112 -128v-3q39 -128 232 -268q106 -76 110 -76q73 -27 73 -87
q-24 -82 -89 -82q-78 0 -140 6q-65 -6 -177 -6q-59 30 -59 73q6 112 6 146q0 61 -86 96h-11q-46 0 -63 -91q18 -90 18 -140v-13q-27 -100 -130 -100h-290q-109 31 -109 96v12q0 70 186 145q107 73 180 199q60 45 60 76v26q-28 80 -221 252q-2 21 -124 67q-69 56 -69 104
q0 63 89 102z" />
    <glyph glyph-name="y" unicode="y" horiz-adv-x="1332" 
d="M259 1047h178q185 0 185 -112v-12q0 -29 -56 -157v-12l49 -145q30 -95 80 -95h18q71 0 141 307q0 1 -72 38q-39 44 -39 76v12q0 94 136 94h326q48 -25 48 -69v-37q0 -67 -153 -160q-133 -196 -147 -359q-87 -215 -142 -444q-107 -160 -155 -265q-100 -147 -215 -147
q-268 43 -268 100q-98 123 -98 204q40 165 166 165q93 0 191 -153l12 -6q41 0 135 223q11 66 11 106q0 50 -139 354q-46 61 -150 239q-159 83 -159 178q39 77 117 77z" />
    <glyph glyph-name="z" unicode="z" horiz-adv-x="1184" 
d="M267 1053h132q120 0 162 -6q64 6 172 6h181q83 -50 83 -127v-36q0 -49 -157 -212q-12 -39 -271 -319q-74 -110 -74 -126v-12q0 -11 156 -28h8q198 23 198 35q42 229 84 243q24 15 49 15h12q82 0 114 -144q0 -362 -168 -362h-764q-88 0 -109 115q0 61 117 167
q83 147 187 223q126 174 166 206q43 21 85 95v32q0 16 -96 28q-164 0 -164 -60q-36 -160 -75 -177l-48 -14h-32q-116 31 -116 133v114q0 140 97 197q55 14 71 14z" />
    <glyph glyph-name="bar" unicode="|" 
d="M98 0v1434h1024v-1434h-1024zM147 49h926v1336h-926v-1336z" />
    <glyph glyph-name="asciitilde" unicode="~" 
d="M98 0v1434h1024v-1434h-1024zM147 49h926v1336h-926v-1336z" />
    <glyph glyph-name="exclamdown" unicode="&#xa1;" 
d="M98 0v1434h1024v-1434h-1024zM147 49h926v1336h-926v-1336z" />
    <glyph glyph-name="cent" unicode="&#xa2;" 
d="M98 0v1434h1024v-1434h-1024zM147 49h926v1336h-926v-1336z" />
    <glyph glyph-name="dieresis" unicode="&#xa8;" 
d="M98 0v1434h1024v-1434h-1024zM147 49h926v1336h-926v-1336z" />
    <glyph glyph-name="copyright" unicode="&#xa9;" 
d="M98 0v1434h1024v-1434h-1024zM147 49h926v1336h-926v-1336z" />
    <glyph glyph-name="ordfeminine" unicode="&#xaa;" 
d="M98 0v1434h1024v-1434h-1024zM147 49h926v1336h-926v-1336z" />
    <glyph glyph-name="registered" unicode="&#xae;" 
d="M98 0v1434h1024v-1434h-1024zM147 49h926v1336h-926v-1336z" />
    <glyph glyph-name="macron" unicode="&#xaf;" 
d="M98 0v1434h1024v-1434h-1024zM147 49h926v1336h-926v-1336z" />
    <glyph glyph-name="degree" unicode="&#xb0;" 
d="M98 0v1434h1024v-1434h-1024zM147 49h926v1336h-926v-1336z" />
    <glyph glyph-name="plusminus" unicode="&#xb1;" 
d="M98 0v1434h1024v-1434h-1024zM147 49h926v1336h-926v-1336z" />
    <glyph glyph-name="uni00B2" unicode="&#xb2;" 
d="M98 0v1434h1024v-1434h-1024zM147 49h926v1336h-926v-1336z" />
    <glyph glyph-name="uni00B3" unicode="&#xb3;" 
d="M98 0v1434h1024v-1434h-1024zM147 49h926v1336h-926v-1336z" />
    <glyph glyph-name="acute" unicode="&#xb4;" 
d="M98 0v1434h1024v-1434h-1024zM147 49h926v1336h-926v-1336z" />
    <glyph glyph-name="mu" unicode="&#xb5;" 
d="M98 0v1434h1024v-1434h-1024zM147 49h926v1336h-926v-1336z" />
    <glyph glyph-name="cedilla" unicode="&#xb8;" 
d="M98 0v1434h1024v-1434h-1024zM147 49h926v1336h-926v-1336z" />
    <glyph glyph-name="onequarter" unicode="&#xbc;" 
d="M98 0v1434h1024v-1434h-1024zM147 49h926v1336h-926v-1336z" />
    <glyph glyph-name="onehalf" unicode="&#xbd;" 
d="M98 0v1434h1024v-1434h-1024zM147 49h926v1336h-926v-1336z" />
    <glyph glyph-name="threequarters" unicode="&#xbe;" 
d="M98 0v1434h1024v-1434h-1024zM147 49h926v1336h-926v-1336z" />
    <glyph glyph-name="questiondown" unicode="&#xbf;" 
d="M98 0v1434h1024v-1434h-1024zM147 49h926v1336h-926v-1336z" />
    <glyph glyph-name="Agrave" unicode="&#xc0;" 
d="M98 0v1434h1024v-1434h-1024zM147 49h926v1336h-926v-1336z" />
    <glyph glyph-name="Aacute" unicode="&#xc1;" 
d="M98 0v1434h1024v-1434h-1024zM147 49h926v1336h-926v-1336z" />
    <glyph glyph-name="Acircumflex" unicode="&#xc2;" 
d="M98 0v1434h1024v-1434h-1024zM147 49h926v1336h-926v-1336z" />
    <glyph glyph-name="Atilde" unicode="&#xc3;" 
d="M98 0v1434h1024v-1434h-1024zM147 49h926v1336h-926v-1336z" />
    <glyph glyph-name="Adieresis" unicode="&#xc4;" 
d="M98 0v1434h1024v-1434h-1024zM147 49h926v1336h-926v-1336z" />
    <glyph glyph-name="Aring" unicode="&#xc5;" 
d="M98 0v1434h1024v-1434h-1024zM147 49h926v1336h-926v-1336z" />
    <glyph glyph-name="AE" unicode="&#xc6;" 
d="M98 0v1434h1024v-1434h-1024zM147 49h926v1336h-926v-1336z" />
    <glyph glyph-name="Ccedilla" unicode="&#xc7;" 
d="M98 0v1434h1024v-1434h-1024zM147 49h926v1336h-926v-1336z" />
    <glyph glyph-name="Egrave" unicode="&#xc8;" 
d="M98 0v1434h1024v-1434h-1024zM147 49h926v1336h-926v-1336z" />
    <glyph glyph-name="Eacute" unicode="&#xc9;" 
d="M98 0v1434h1024v-1434h-1024zM147 49h926v1336h-926v-1336z" />
    <glyph glyph-name="Ecircumflex" unicode="&#xca;" 
d="M98 0v1434h1024v-1434h-1024zM147 49h926v1336h-926v-1336z" />
    <glyph glyph-name="Edieresis" unicode="&#xcb;" 
d="M98 0v1434h1024v-1434h-1024zM147 49h926v1336h-926v-1336z" />
    <glyph glyph-name="Igrave" unicode="&#xcc;" 
d="M98 0v1434h1024v-1434h-1024zM147 49h926v1336h-926v-1336z" />
    <glyph glyph-name="Iacute" unicode="&#xcd;" 
d="M98 0v1434h1024v-1434h-1024zM147 49h926v1336h-926v-1336z" />
    <glyph glyph-name="Icircumflex" unicode="&#xce;" 
d="M98 0v1434h1024v-1434h-1024zM147 49h926v1336h-926v-1336z" />
    <glyph glyph-name="Idieresis" unicode="&#xcf;" 
d="M98 0v1434h1024v-1434h-1024zM147 49h926v1336h-926v-1336z" />
    <glyph glyph-name="Eth" unicode="&#xd0;" 
d="M98 0v1434h1024v-1434h-1024zM147 49h926v1336h-926v-1336z" />
    <glyph glyph-name="Ntilde" unicode="&#xd1;" 
d="M98 0v1434h1024v-1434h-1024zM147 49h926v1336h-926v-1336z" />
    <glyph glyph-name="Ograve" unicode="&#xd2;" 
d="M98 0v1434h1024v-1434h-1024zM147 49h926v1336h-926v-1336z" />
    <glyph glyph-name="Oacute" unicode="&#xd3;" 
d="M98 0v1434h1024v-1434h-1024zM147 49h926v1336h-926v-1336z" />
    <glyph glyph-name="Ocircumflex" unicode="&#xd4;" 
d="M98 0v1434h1024v-1434h-1024zM147 49h926v1336h-926v-1336z" />
    <glyph glyph-name="Otilde" unicode="&#xd5;" 
d="M98 0v1434h1024v-1434h-1024zM147 49h926v1336h-926v-1336z" />
    <glyph glyph-name="Odieresis" unicode="&#xd6;" 
d="M98 0v1434h1024v-1434h-1024zM147 49h926v1336h-926v-1336z" />
    <glyph glyph-name="multiply" unicode="&#xd7;" 
d="M98 0v1434h1024v-1434h-1024zM147 49h926v1336h-926v-1336z" />
    <glyph glyph-name="Oslash" unicode="&#xd8;" 
d="M98 0v1434h1024v-1434h-1024zM147 49h926v1336h-926v-1336z" />
    <glyph glyph-name="Ugrave" unicode="&#xd9;" 
d="M98 0v1434h1024v-1434h-1024zM147 49h926v1336h-926v-1336z" />
    <glyph glyph-name="Uacute" unicode="&#xda;" 
d="M98 0v1434h1024v-1434h-1024zM147 49h926v1336h-926v-1336z" />
    <glyph glyph-name="Ucircumflex" unicode="&#xdb;" 
d="M98 0v1434h1024v-1434h-1024zM147 49h926v1336h-926v-1336z" />
    <glyph glyph-name="Udieresis" unicode="&#xdc;" 
d="M98 0v1434h1024v-1434h-1024zM147 49h926v1336h-926v-1336z" />
    <glyph glyph-name="Yacute" unicode="&#xdd;" 
d="M98 0v1434h1024v-1434h-1024zM147 49h926v1336h-926v-1336z" />
    <glyph glyph-name="agrave" unicode="&#xe0;" 
d="M98 0v1434h1024v-1434h-1024zM147 49h926v1336h-926v-1336z" />
    <glyph glyph-name="aacute" unicode="&#xe1;" 
d="M98 0v1434h1024v-1434h-1024zM147 49h926v1336h-926v-1336z" />
    <glyph glyph-name="acircumflex" unicode="&#xe2;" 
d="M98 0v1434h1024v-1434h-1024zM147 49h926v1336h-926v-1336z" />
    <glyph glyph-name="atilde" unicode="&#xe3;" 
d="M98 0v1434h1024v-1434h-1024zM147 49h926v1336h-926v-1336z" />
    <glyph glyph-name="adieresis" unicode="&#xe4;" 
d="M98 0v1434h1024v-1434h-1024zM147 49h926v1336h-926v-1336z" />
    <glyph glyph-name="aring" unicode="&#xe5;" 
d="M98 0v1434h1024v-1434h-1024zM147 49h926v1336h-926v-1336z" />
    <glyph glyph-name="ae" unicode="&#xe6;" 
d="M98 0v1434h1024v-1434h-1024zM147 49h926v1336h-926v-1336z" />
    <glyph glyph-name="ccedilla" unicode="&#xe7;" 
d="M98 0v1434h1024v-1434h-1024zM147 49h926v1336h-926v-1336z" />
    <glyph glyph-name="egrave" unicode="&#xe8;" 
d="M98 0v1434h1024v-1434h-1024zM147 49h926v1336h-926v-1336z" />
    <glyph glyph-name="eacute" unicode="&#xe9;" 
d="M98 0v1434h1024v-1434h-1024zM147 49h926v1336h-926v-1336z" />
    <glyph glyph-name="ecircumflex" unicode="&#xea;" 
d="M98 0v1434h1024v-1434h-1024zM147 49h926v1336h-926v-1336z" />
    <glyph glyph-name="edieresis" unicode="&#xeb;" 
d="M98 0v1434h1024v-1434h-1024zM147 49h926v1336h-926v-1336z" />
    <glyph glyph-name="igrave" unicode="&#xec;" 
d="M98 0v1434h1024v-1434h-1024zM147 49h926v1336h-926v-1336z" />
    <glyph glyph-name="iacute" unicode="&#xed;" 
d="M98 0v1434h1024v-1434h-1024zM147 49h926v1336h-926v-1336z" />
    <glyph glyph-name="icircumflex" unicode="&#xee;" 
d="M98 0v1434h1024v-1434h-1024zM147 49h926v1336h-926v-1336z" />
    <glyph glyph-name="idieresis" unicode="&#xef;" 
d="M98 0v1434h1024v-1434h-1024zM147 49h926v1336h-926v-1336z" />
    <glyph glyph-name="ntilde" unicode="&#xf1;" 
d="M98 0v1434h1024v-1434h-1024zM147 49h926v1336h-926v-1336z" />
    <glyph glyph-name="ograve" unicode="&#xf2;" 
d="M98 0v1434h1024v-1434h-1024zM147 49h926v1336h-926v-1336z" />
    <glyph glyph-name="oacute" unicode="&#xf3;" 
d="M98 0v1434h1024v-1434h-1024zM147 49h926v1336h-926v-1336z" />
    <glyph glyph-name="ocircumflex" unicode="&#xf4;" 
d="M98 0v1434h1024v-1434h-1024zM147 49h926v1336h-926v-1336z" />
    <glyph glyph-name="otilde" unicode="&#xf5;" 
d="M98 0v1434h1024v-1434h-1024zM147 49h926v1336h-926v-1336z" />
    <glyph glyph-name="odieresis" unicode="&#xf6;" 
d="M98 0v1434h1024v-1434h-1024zM147 49h926v1336h-926v-1336z" />
    <glyph glyph-name="divide" unicode="&#xf7;" 
d="M98 0v1434h1024v-1434h-1024zM147 49h926v1336h-926v-1336z" />
    <glyph glyph-name="oslash" unicode="&#xf8;" 
d="M98 0v1434h1024v-1434h-1024zM147 49h926v1336h-926v-1336z" />
    <glyph glyph-name="ugrave" unicode="&#xf9;" 
d="M98 0v1434h1024v-1434h-1024zM147 49h926v1336h-926v-1336z" />
    <glyph glyph-name="uacute" unicode="&#xfa;" 
d="M98 0v1434h1024v-1434h-1024zM147 49h926v1336h-926v-1336z" />
    <glyph glyph-name="ucircumflex" unicode="&#xfb;" 
d="M98 0v1434h1024v-1434h-1024zM147 49h926v1336h-926v-1336z" />
    <glyph glyph-name="udieresis" unicode="&#xfc;" 
d="M98 0v1434h1024v-1434h-1024zM147 49h926v1336h-926v-1336z" />
    <glyph glyph-name="yacute" unicode="&#xfd;" 
d="M98 0v1434h1024v-1434h-1024zM147 49h926v1336h-926v-1336z" />
    <glyph glyph-name="ydieresis" unicode="&#xff;" 
d="M98 0v1434h1024v-1434h-1024zM147 49h926v1336h-926v-1336z" />
    <glyph glyph-name="caron" unicode="&#x2c7;" 
d="M98 0v1434h1024v-1434h-1024zM147 49h926v1336h-926v-1336z" />
    <glyph glyph-name="tilde" unicode="&#x2dc;" 
d="M98 0v1434h1024v-1434h-1024zM147 49h926v1336h-926v-1336z" />
    <glyph glyph-name="hungarumlaut" unicode="&#x2dd;" 
d="M98 0v1434h1024v-1434h-1024zM147 49h926v1336h-926v-1336z" />
    <glyph glyph-name="quoteleft" unicode="&#x2018;" 
d="M98 0v1434h1024v-1434h-1024zM147 49h926v1336h-926v-1336z" />
    <glyph glyph-name="quoteright" unicode="&#x2019;" 
d="M98 0v1434h1024v-1434h-1024zM147 49h926v1336h-926v-1336z" />
    <glyph glyph-name="quotesinglbase" unicode="&#x201a;" 
d="M98 0v1434h1024v-1434h-1024zM147 49h926v1336h-926v-1336z" />
    <glyph glyph-name="quotedblleft" unicode="&#x201c;" 
d="M98 0v1434h1024v-1434h-1024zM147 49h926v1336h-926v-1336z" />
    <glyph glyph-name="quotedblright" unicode="&#x201d;" 
d="M98 0v1434h1024v-1434h-1024zM147 49h926v1336h-926v-1336z" />
    <glyph glyph-name="quotedblbase" unicode="&#x201e;" 
d="M98 0v1434h1024v-1434h-1024zM147 49h926v1336h-926v-1336z" />
    <glyph glyph-name="bullet" unicode="&#x2022;" 
d="M98 0v1434h1024v-1434h-1024zM147 49h926v1336h-926v-1336z" />
    <glyph glyph-name="Euro" unicode="&#x20ac;" 
d="M98 0v1434h1024v-1434h-1024zM147 49h926v1336h-926v-1336z" />
    <glyph glyph-name="uni2116" unicode="&#x2116;" 
d="M98 0v1434h1024v-1434h-1024zM147 49h926v1336h-926v-1336z" />
    <glyph glyph-name="trademark" unicode="&#x2122;" 
d="M98 0v1434h1024v-1434h-1024zM147 49h926v1336h-926v-1336z" />
    <glyph glyph-name="minus" unicode="&#x2212;" 
d="M98 0v1434h1024v-1434h-1024zM147 49h926v1336h-926v-1336z" />
    <glyph glyph-name="infinity" unicode="&#x221e;" 
d="M98 0v1434h1024v-1434h-1024zM147 49h926v1336h-926v-1336z" />
    <glyph glyph-name="lessequal" unicode="&#x2264;" 
d="M98 0v1434h1024v-1434h-1024zM147 49h926v1336h-926v-1336z" />
    <glyph glyph-name="greaterequal" unicode="&#x2265;" 
d="M98 0v1434h1024v-1434h-1024zM147 49h926v1336h-926v-1336z" />
  </font>
</defs>
</svg>
