<?xml version="1.0" standalone="no"?>
<!DOCTYPE svg PUBLIC "-//W3C//DTD SVG 1.1//EN" "http://www.w3.org/Graphics/SVG/1.1/DTD/svg11.dtd" >
<svg xmlns="http://www.w3.org/2000/svg" xmlns:xlink="http://www.w3.org/1999/xlink" version="1.1">
<metadata>
Created by FontForge 20170731 at Wed Sep 14 18:44:15 2016
 By Aleksey,,,
cookiesintheskybyNina
</metadata>
<defs>
<font id="UnicornFlakes" horiz-adv-x="523" >
  <font-face 
    font-family="UnicornFlakes"
    font-weight="500"
    font-stretch="normal"
    units-per-em="1000"
    panose-1="2 0 6 3 0 0 0 0 0 0"
    ascent="800"
    descent="-200"
    x-height="692"
    cap-height="702"
    bbox="-29.6316 -216.25 602.947 927.941"
    underline-thickness="50"
    underline-position="-200"
    unicode-range="U+0020-3000"
  />
<missing-glyph horiz-adv-x="364" 
d="M66 33h199v600h-199v-600zM33 0v666h265v-666h-265z" />
    <glyph glyph-name=".notdef" horiz-adv-x="364" 
d="M66 33h199v600h-199v-600zM33 0v666h265v-666h-265z" />
    <glyph glyph-name=".null" horiz-adv-x="0" 
 />
    <glyph glyph-name="nonmarkingreturn" horiz-adv-x="333" 
 />
    <glyph glyph-name="space" unicode=" " horiz-adv-x="300" 
 />
    <glyph glyph-name="exclam" unicode="!" horiz-adv-x="208" 
d="M120 47q18 -7 18 -27q0 -6 -1 -11q-1 -8 -6 -15q-12 -16 -31 -13q-11 2 -18 11q-11 11 -14 30q-2 12 5 22.5t19 12.5q17 3 28 -10zM131 710q-10 -58 -7 -293q4 -207 9 -265q1 -12 -6.5 -22t-20 -11t-22 7t-11.5 20q-5 60 -9 270q-3 241 8 304q2 13 12.5 20t22.5 5
t19 -12.5t5 -22.5z" />
    <glyph glyph-name="quotedbl" unicode="&#x22;" horiz-adv-x="296" 
d="M127 708q0 -20 -1 -61q-1 -22 -1 -33v-26q0 -13 -9 -21.5t-21 -8.5t-21 8.5t-9 21v27.5q0 12 1 34q1 39 1 59q0 12 8.5 21t21 9t21.5 -9t9 -21zM222 707q5 -32 5 -83v-16q-1 -17 -1 -26q0 -12 -8.5 -21t-21 -9t-21.5 9t-9 21q0 9 1 27v16q0 46 -4 73q-2 12 5.5 22
t19.5 12t22 -5.5t12 -19.5z" />
    <glyph glyph-name="numbersign" unicode="#" horiz-adv-x="491" 
d="M217 370q0 -18 1 -36v-43q9 0 18 1q18 1 34 2q-1 22 -2 39q-1 20 -2 39h-3q-4 0 -14 -1q-20 -1 -32 -1zM332 581q-9 -65 -8 -146q33 3 59 6q12 2 22 -6t11.5 -20t-6 -22t-20.5 -12q-28 -3 -64 -6q0 -18 2 -39q1 -16 2 -36q35 4 55 9q12 3 22.5 -4t13.5 -19t-4 -22.5
t-19 -13.5q-24 -5 -64 -10q6 -95 6 -152q0 -12 -9 -21t-21.5 -9t-21 9t-8.5 21q0 55 -6 146q-16 -1 -34 -2l-22 -2v-40v-70q0 -12 -9 -21t-21.5 -9t-21 9t-8.5 21v71v36q-45 -2 -75 -2q-12 0 -21 9t-9 21.5t9 21t21 8.5q30 0 75 2v46q-1 17 -1 33q-44 -4 -74 -10
q-12 -3 -22.5 3.5t-13 19t4 23t18.5 12.5q34 8 84 12q-6 79 -18 142q-3 12 4 22.5t19 13t22.5 -4.5t12.5 -19q14 -67 20 -150q13 0 33 1q9 1 13 1h4q-1 86 8 157q2 12 12 19.5t22.5 6t20 -11.5t5.5 -22z" />
    <glyph glyph-name="dollar" unicode="$" horiz-adv-x="426" 
d="M271 538q-23 24 -45 4q-13 -12 -16.5 -32.5t4.5 -44.5q2 -8 13 -19q7 -8 21 -19q0 -1 11.5 -10.5t14.5 -12.5q43 -37 61 -70q29 -49 19 -106q-5 -30 -15 -48q-18 -32 -53 -45q-14 -6 -28 -8v-16v-5q1 -12 -7.5 -21t-21 -9.5t-21.5 8t-10 21.5v4q0 16 -1 24v4q-7 3 -13 6
q-16 10 -30 23q-8 8 -15 17q-8 10 -6.5 22.5t11 20t22 6t19.5 -10.5q14 -17 29 -26q25 -14 50 -5q15 6 22 19q5 9 9 29q6 36 -12 66q-13 24 -48 55q-3 2 -14.5 12t-12.5 10q-15 14 -25 24q-19 21 -26 41q-14 40 -6 77.5t34 61.5q5 5 10 9v11v11v11q-1 13 7 22.5t20 10.5
t21.5 -7t10.5 -20q1 -6 1 -18v-5q33 -3 59 -30q9 -8 9 -20.5t-9 -21.5t-21.5 -9t-21.5 9z" />
    <glyph glyph-name="percent" unicode="%" horiz-adv-x="561" 
d="M386 256q-5 -13 -5 -28q0 -6 1 -10q1 -1 1 -2q16 -10 28 -5t18 21q6 15 0 24q-2 4 -6 6t-11 3q-3 -1 -11 -3q-11 -3 -14 -5zM388 320q7 5 17 5q54 0 77 -40q18 -33 3 -74q-15 -40 -51 -55q-43 -18 -86 12q-15 11 -22 30q-5 13 -5 30q0 27 10 52q8 19 27 30q9 4 27 9v1h3z
M129 490q-5 -13 -5 -28q0 -7 1 -11l1 -1q15 -11 27 -6q13 6 19 22q5 14 0 24q-2 3 -6 5q-4 3 -11 4q-4 -2 -11 -4q-11 -3 -14 -5h-1zM131 554q7 5 16 5q55 0 77 -40q19 -34 4 -75q-15 -40 -51 -55q-43 -18 -86 12q-16 11 -22 30q-5 14 -5 31q0 27 10 51q7 19 27 30
q9 5 26 10h1q2 1 3 1zM362 609q1 -63 -54 -265q-40 -147 -76 -255q-4 -12 -15 -17.5t-22.5 -1.5t-17 15t-2.5 23q36 106 75 252q53 193 52 248q0 12 8.5 21t21 9.5t21.5 -8.5t9 -21z" />
    <glyph glyph-name="ampersand" unicode="&#x26;" horiz-adv-x="480" 
d="M197 327q-36 -42 -52 -72q-24 -46 -11 -84q5 -16 20 -29.5t32 -17.5q29 -8 45 -4q10 3 16 12q7 12 12 35q3 18 6 58q1 6 1 11q-25 32 -34 44q-19 26 -35 47zM328 254q30 -39 31 -40q41 -54 49 -75q5 -11 0 -22.5t-16.5 -16t-23 0.5t-16 16.5t-33.5 49.5q0 -5 -1 -10
q-7 -36 -20 -57q-37 -57 -127 -35q-31 8 -57.5 32.5t-36.5 54.5q-21 62 15 132q14 25 37 55q14 17 34 39q-48 75 -60 125q-11 48 8 80.5t66 43.5q58 13 96 -18q71 -60 35 -140q-12 -27 -40 -61q-10 -13 -25 -30l-5 -5q17 -23 38 -52q7 36 18 65q4 12 15.5 17t23 0.5t17 -16
t0.5 -22.5q-9 -25 -15 -56q-4 -24 -7 -55zM204 425q10 11 17 21q23 28 33 48q8 20 5 34q-3 17 -24 34q-15 13 -45 6q-22 -5 -28 -16q-6 -12 0 -35q8 -36 42 -92z" />
    <glyph glyph-name="quotesingle" unicode="'" horiz-adv-x="196" 
d="M127 708q0 -20 -1 -61q-1 -22 -1 -33v-26q0 -13 -9 -21.5t-21 -8.5t-21 8.5t-9 21v27.5q0 12 1 34q1 39 1 59q0 12 8.5 21t21 9t21.5 -9t9 -21z" />
    <glyph glyph-name="parenleft" unicode="(" horiz-adv-x="300" 
d="M226 712q-37 -53 -61.5 -158.5t-27.5 -223.5q-3 -127 19.5 -225t65.5 -142q9 -8 9 -20.5t-9 -21.5t-21 -9t-21 9q-57 57 -84 176q-22 103 -19 234q4 128 30.5 241t68.5 174q7 10 19.5 12t22.5 -5t12.5 -19t-4.5 -22z" />
    <glyph glyph-name="parenright" unicode=")" horiz-adv-x="301" 
d="M112 -45q32 55 48 162t10 226q-6 126 -36 222t-77 136q-10 8 -11 20.5t7.5 22t20.5 10.5t22 -7q61 -53 96 -169q31 -101 38 -232q6 -128 -11.5 -242.5t-55.5 -178.5q-6 -11 -18 -14t-22.5 3t-14 18t3.5 23z" />
    <glyph glyph-name="asterisk" unicode="*" horiz-adv-x="381" 
d="M74 573q18 7 44 18q4 2 13 5q-27 25 -56 44q-10 7 -12.5 19.5t4.5 22.5t19 12.5t23 -4.5q22 -15 43 -32q3 29 7 52q2 13 12 20t22 5.5t19.5 -11.5t5.5 -23q-4 -27 -9 -73q37 15 62 25q12 4 23.5 -1t15.5 -16.5t-1 -23t-17 -15.5q-22 -9 -52 -21l3 -3q5 -5 27 -28t26 -26
q8 -9 8 -21.5t-9 -21.5t-21 -8.5t-21 9.5q-4 3 -26 26t-27 28l-2 2q-7 -47 -16 -85q-3 -12 -14 -18.5t-23 -3.5t-18.5 14t-3.5 23q8 32 14 71q-24 -10 -40 -17q-12 -4 -23.5 1t-16 16.5t0.5 23t16 15.5z" />
    <glyph glyph-name="plus" unicode="+" horiz-adv-x="444" 
d="M245 548q8 -36 9 -82v-44q46 2 86 7q13 2 22.5 -5.5t11.5 -19.5t-5.5 -22t-19.5 -12q-45 -6 -97 -9q-1 -35 -1 -57q1 -40 6 -69q2 -12 -5 -22.5t-19 -13t-22.5 4.5t-12.5 20q-6 34 -7 79q0 23 1 56h-2h-1q-51 -1 -78 -3q-12 0 -21.5 8t-10.5 20.5t7.5 21.5t20.5 10
q28 2 80 3h1h6v46q-1 40 -8 70q-2 12 4.5 22.5t19 13t23 -4t12.5 -18.5z" />
    <glyph glyph-name="comma" unicode="," horiz-adv-x="190" 
d="M97 63q29 -35 23 -82q-3 -16 -10 -35q-4 -11 -12 -31q-5 -11 -16.5 -16t-23 0t-16 16.5t0.5 23.5q15 35 17 50q3 21 -9 35q-8 10 -7 22t10.5 20t22 7t20.5 -10z" />
    <glyph glyph-name="hyphen" unicode="-" horiz-adv-x="379" 
d="M94 409q21 2 62 3q1 0 1 1q76 2 118 10q12 2 22 -5.5t12.5 -19.5t-5 -22t-19.5 -13q-30 -5 -65 -8q-21 -1 -61 -2q-40 -2 -61 -3q-12 -1 -21.5 7t-10.5 20t7 21.5t21 10.5z" />
    <glyph glyph-name="period" unicode="." horiz-adv-x="184" 
d="M96 47q18 -7 18 -27v-11q-2 -8 -7 -15q-11 -16 -31 -13q-10 2 -18 11q-10 11 -14 30q-2 12 5 22.5t19 12.5q17 3 28 -10z" />
    <glyph glyph-name="slash" unicode="/" horiz-adv-x="394" 
d="M322 688l-20 -54q-16 -44 -30 -79q-42 -112 -76 -202q-5 -10 -8 -20q-94 -242 -127 -311q-5 -11 -16.5 -15t-23 1.5t-15.5 17t1 23.5q32 66 125 305q4 11 8 21q34 89 76 201q13 36 30 79q17 45 20 54q4 12 15.5 17t23 0.5t17 -16t0.5 -22.5z" />
    <glyph glyph-name="zero" unicode="0" horiz-adv-x="440" 
d="M222 70q38 21 63 107q28 95 25 213q-3 119 -38 186q-16 32 -35 43q-18 10 -42 3q-40 -13 -63 -100q-24 -88 -18 -204q7 -117 40 -189q15 -34 34 -49q16 -13 33 -10h1zM223 10q-40 -3 -72 23q-30 24 -52 71q-38 82 -45 210q-7 126 20 224q14 53 37 88q27 41 66 53
q49 16 90 -8q35 -20 59 -67q40 -80 44 -213q4 -127 -27 -231q-37 -123 -106 -148q-7 -3 -14 -2z" />
    <glyph glyph-name="one" unicode="1" horiz-adv-x="203" 
d="M131 645q-7 -44 -5 -301q2 -242 7 -293q1 -13 -7 -22.5t-20 -10.5t-21.5 7t-11.5 20q-4 54 -7 298q-2 263 6 312q2 12 12 19.5t22.5 5.5t19.5 -12t5 -23z" />
    <glyph glyph-name="two" unicode="2" horiz-adv-x="432" 
d="M67 603q6 42 39 65q27 19 57 25q41 8 69 -12q27 -20 38 -61q9 -32 8 -78q-2 -75 -30 -190q-13 -54 -31 -117q-17 -55 -43 -135q-7 -20 -9 -26q20 -2 46 -1q74 1 115 10q12 3 22.5 -4t13 -19t-4 -22.5t-18.5 -13.5q-46 -10 -127 -11q-35 -1 -60 1q-14 2 -23 4q-6 2 -11 4
q-10 5 -16 14q-6 10 -4 22q1 2 2 6q1 5 4 13q2 9 13 42q26 78 42 133q18 62 31 114q26 109 28 178q2 72 -21 88q-7 5 -24 1.5t-32 -14.5q-12 -8 -14 -25q-2 -12 -12 -19.5t-22.5 -5.5t-19.5 11.5t-6 22.5z" />
    <glyph glyph-name="three" unicode="3" horiz-adv-x="415" 
d="M92 665q27 15 66 9q27 -4 57 -17q35 -16 56 -52.5t22 -82.5q3 -73 -39 -117q22 -18 41 -45q9 -13 17 -28q33 -59 33.5 -120.5t-31.5 -110.5q-31 -49 -83.5 -75.5t-114.5 -23.5q-12 0 -20.5 9.5t-8 22t9.5 20.5t21 8q46 -2 84.5 17t60.5 54q23 35 22.5 80t-25.5 90
q-7 12 -14 23q-21 28 -44 44q-7 4 -13 6l-2 2v-1q-23 6 -22.5 30t24.5 29h2q2 1 5 1l2 1h2q16 10 25.5 31.5t8.5 49.5q-2 30 -13.5 52.5t-30.5 30.5q-48 22 -70 10q-11 -5 -22.5 -1.5t-17.5 14.5t-2.5 23t14.5 17z" />
    <glyph glyph-name="four" unicode="4" horiz-adv-x="445" 
d="M130 635q16 -97 13 -177q-1 -6 -2 -29h1l10 1q10 2 13 3q51 7 103 10q-3 123 -10 214q-1 12 7.5 21.5t20.5 10.5t21.5 -7t10.5 -20q7 -93 10 -217h17q12 0 21 -9t9 -21t-9 -21t-21 -9h-16v-25v-191q-1 -77 -1 -112q0 -12 -8.5 -21t-21 -9t-21.5 9t-9 21q0 35 1 112v191
v23q-48 -3 -95 -10q-3 0 -13 -1l-10 -2q-12 -2 -18 -2q-11 -1 -19 0q-14 3 -23 13q-8 9 -10 22q-1 7 0 17q0 2 1 19t1 22q3 73 -13 164q-2 12 5.5 22.5t19.5 12.5t22.5 -5.5t12.5 -19.5z" />
    <glyph glyph-name="five" unicode="5" horiz-adv-x="415" 
d="M231 640q-22 -2 -59 -3q-29 -1 -38 -3q-7 -1 -8 -3t-2 -6q-2 -6 -2 -16q-1 -24 5 -69q2 -10 2 -38q1 -13 1 -19q0 -14 1 -23q63 26 118 -15q46 -35 73 -107q25 -68 23 -138q-2 -78 -38 -124q-18 -23 -51 -32q-23 -6 -55 -5q-18 1 -45 4q-29 3 -35 3q-12 0 -21 9t-9 21.5
t9 21t21 8.5q8 0 20 -1q4 0 11 -1h2q3 -1 5.5 -1t3.5 -1q25 -3 40 -3q45 -1 56 14q24 30 26 88.5t-19 115.5q-21 56 -53 80q-29 21 -62 6q-1 0 -1 -1q-4 -2 -5 -3q-4 -3 -8 -5q-11 -5 -21 -5q-21 0 -32 18q-8 13 -11 36q-2 15 -3 38q0 6 -1 20q0 24 -1 31q-8 54 -6 84.5
t15 49.5q15 21 45 27q14 3 48 4q36 1 55 3q13 1 22.5 -7t10.5 -20.5t-7 -22t-20 -10.5z" />
    <glyph glyph-name="six" unicode="6" horiz-adv-x="427" 
d="M124 313q-4 -66 4 -118q16 -94 62 -104q52 -12 81 36q30 50 26 129.5t-40 122.5q-34 41 -86 20q-15 -6 -29.5 -31t-14.5 -43q0 -6 -3 -12zM298 612q-23 18 -44 14q-20 -4 -42 -31q-39 -47 -65 -141h1q47 18 86.5 8.5t68.5 -45.5q49 -58 54 -157t-35 -165q-25 -39 -62 -56
t-83 -7t-74 56q-24 38 -34 97q-18 107 10 241q28 137 87 207q35 43 76 52q47 10 93 -25q10 -8 11.5 -20t-6 -22t-20 -11.5t-22.5 5.5z" />
    <glyph glyph-name="seven" unicode="7" horiz-adv-x="407" 
d="M107 677q62 12 128 7q45 -3 70 -17q20 -12 28 -30.5t2 -40.5q-2 -6 -19.5 -63.5t-38.5 -127.5t-27 -89q0 -1 -1 -2q-75 -250 -85 -279q-4 -11 -15 -16.5t-23 -1.5t-17.5 15t-1.5 23q10 27 85 276q0 2 1 3q5 18 26 87.5t38.5 127t19.5 64.5l-1 1q-14 8 -45 10
q-59 4 -113 -6q-12 -2 -22 4.5t-12.5 19t4.5 22.5t19 13z" />
    <glyph glyph-name="eight" unicode="8" horiz-adv-x="400" 
d="M233 388q12 -11 18 -20q43 -69 62 -123q26 -77 13 -146q-8 -37 -35 -60.5t-65 -27.5q-23 -2 -49 2q-37 6 -55 23q-35 33 -41 91q-5 45 8 103q19 81 60 148q-46 43 -63 102q-19 71 7 135q13 32 35 53.5t49 27.5q64 14 114 -59q17 -25 16 -72q0 -23 -6 -60q-4 -32 -19 -57
q-11 -19 -32 -41q-10 -10 -17 -19zM196 340q-33 -57 -48 -123q-24 -101 15 -137l1 -1h1q2 -2 5 -3q7 -2 16 -4q19 -3 34 -1q40 4 47 40q10 53 -11 115q-16 47 -56 110zM185 426q4 4 9 10q1 0 2.5 1.5t3.5 2.5l1 2q3 4 6 6q30 33 35 66q5 32 5 52q1 28 -5 37q-16 22 -31 31
q-11 5 -21 3q-25 -5 -41 -44q-19 -46 -5 -97q11 -39 41 -70z" />
    <glyph glyph-name="nine" unicode="9" horiz-adv-x="386" 
d="M293 662q1 -32 5 -100v-1q5 -101 7 -132q4 -86 6 -152q6 -136 6 -228q0 -13 -9 -21.5t-21.5 -8.5t-21 8.5t-8.5 21.5q0 90 -6 226q-1 40 -3 85q-14 -10 -31 -12q-80 -6 -121 59q-34 52 -27 127q6 74 47 119q50 54 120 34q9 9 21 10q16 0 25 -12q11 -9 11 -23zM222 628
q-36 12 -61 -15q-28 -30 -32 -84q-5 -55 17 -90q22 -34 67 -31q2 2 4 6q7 14 11 42q6 46 2 151v20q-4 0 -8 1z" />
    <glyph glyph-name="colon" unicode=":" horiz-adv-x="194" 
d="M106 266q18 -8 18 -28v-10q-2 -9 -6 -16q-12 -16 -32 -12q-10 2 -18 10q-10 11 -14 30q-2 12 5 22.5t20 12.5q16 3 27 -9zM106 477q18 -8 18 -27v-11q-2 -9 -6 -15q-12 -16 -32 -13q-10 2 -18 10q-10 11 -14 31q-2 12 5 22t20 13q16 3 27 -10z" />
    <glyph glyph-name="semicolon" unicode=";" horiz-adv-x="199" 
d="M106 477q18 -8 18 -27v-11q-2 -9 -6 -15q-12 -16 -32 -13q-10 2 -18 10q-10 11 -14 31q-2 12 5 22t20 13q16 3 27 -10zM105 266q29 -35 23 -81q-2 -17 -9 -36q-4 -11 -13 -31q-5 -11 -16.5 -15.5t-23 0t-16 16.5t0.5 23q15 35 18 50q2 21 -10 35q-8 10 -7 22.5t10.5 20
t22 6.5t20.5 -10z" />
    <glyph glyph-name="less" unicode="&#x3c;" horiz-adv-x="465" 
d="M367 541q-25 -32 -90 -85q-12 -9 -26 -20q-19 -16 -47 -37q-1 -1 -10 -8t-18.5 -14t-13 -9.5t-6.5 -4.5q9 -5 21 -11q15 -7 39 -18q4 -2 14 -6t19.5 -8.5t10.5 -4.5q56 -25 86 -41q22 -12 37 -23q10 -7 12 -19t-5 -22.5t-19 -12.5t-22 5q-13 9 -32 19q-27 15 -82 39
q-1 0 -10 4.5t-19 8.5t-14 6q-25 11 -41 19q-46 22 -64 38q-11 11 -10 26q1 7 4 12q2 4 6 8q3 4 10 10q9 7 29 23q3 2 12.5 9.5t19.5 14.5l9 7q28 21 47 37q14 10 25 20q60 49 82 75q7 10 19.5 11.5t22 -6.5t11 -20.5t-6.5 -21.5z" />
    <glyph glyph-name="equal" unicode="=" horiz-adv-x="390" 
d="M104 426q22 2 63 3h1q75 3 117 10q12 3 22 -4.5t12.5 -19.5t-4.5 -22t-20 -13q-30 -5 -65 -8q-21 -1 -60 -3h-1q-40 -1 -61 -3q-12 -1 -21.5 7.5t-10.5 20.5t7 21.5t21 10.5zM104 315q22 1 63 3h1q75 2 117 10q12 2 22 -5t12.5 -19.5t-4.5 -22.5t-20 -12q-30 -6 -65 -8
q-21 -2 -60 -3h-1q-40 -2 -61 -3q-12 -1 -21.5 7t-10.5 20.5t7 22t21 10.5z" />
    <glyph glyph-name="greater" unicode="&#x3e;" horiz-adv-x="440" 
d="M70 222q26 29 92 77q13 10 29 21q21 14 50 34q1 1 10.5 7.5l19 13t13 9t6.5 4.5q-8 5 -19 11q-15 9 -38 21l-14 7l-19 9.5t-10 4.5q-30 16 -50 27q-45 25 -69 44q-10 7 -11.5 19.5t6 22.5t20 11.5t22.5 -6.5q20 -16 61 -39q19 -10 49 -25q1 -1 10 -5.5t18.5 -9.5t13.5 -7
q24 -12 40 -21q44 -25 61 -42q11 -11 9 -26q-1 -7 -5 -12q-2 -4 -6 -8q-4 -3 -11 -8q-9 -8 -30 -22q-4 -3 -14 -9.5t-20 -12.5l-9 -7q-29 -20 -50 -34q-15 -11 -28 -21q-60 -44 -83 -68q-8 -9 -20.5 -10t-21.5 7.5t-9.5 21t7.5 21.5z" />
    <glyph glyph-name="question" unicode="?" horiz-adv-x="439" 
d="M226 41q19 -8 19 -28q0 -6 -1 -10q-2 -9 -6 -16q-12 -16 -31 -12q-11 2 -19 10q-10 11 -13 30q-3 12 4 22.5t20 12.5q16 3 27 -9zM58 626l2 6q9 19 15 28q12 19 30 36q30 28 60.5 39.5t72.5 11.5q40 0 72 -27q26 -23 42 -61q14 -34 16.5 -72t-7.5 -69q-8 -22 -25 -47
q-9 -14 -29 -38l-1 -1q-2 -2 -2 -3l-3 -3q-33 -41 -40 -64q-12 -42 -16 -100q-2 -38 -2 -105q0 -13 -9 -21.5t-21.5 -8.5t-21 8.5t-8.5 21.5q0 69 2 109q5 64 18 112q7 23 22 47q10 15 29 38q2 2 3 4q1 1 2 3l1 1q36 43 44 67q7 19 5 46.5t-12 51.5q-22 51 -59 51
q-31 0 -50.5 -7.5t-42.5 -27.5q-12 -12 -19 -23q-4 -7 -11 -22l-3 -6q-5 -12 -17 -16t-23 1.5t-15.5 17t1.5 22.5z" />
    <glyph glyph-name="at" unicode="@" horiz-adv-x="602" 
d="M324 484q-1 4 -1 10q-35 -2 -52 -36q-18 -37 -10 -88q3 -22 11 -38q6 -13 13 -17q0 -1 1 0q10 4 22 25q16 25 17 78q1 14 0 43v4q-1 9 -1 19zM371 331q-5 -12 -12 -23q-21 -35 -47 -47q-31 -15 -59 3q-40 25 -51 97q-11 70 16 124q34 70 112 70q11 0 19.5 -7.5
t10.5 -18.5q10 -2 16 -10t7 -18v-1q1 -2 1 -4q1 -2 1 -3v-2v-1v-1v-20q2 -22 7 -42q12 -49 37 -71q4 -3 7 -4h1q2 0 4 2q4 4 9 11q23 36 23 99q-1 70 -36 114q-40 51 -120 51q-43 0 -69.5 -7.5t-49.5 -26.5q-44 -37 -61.5 -110.5t-2.5 -152.5q16 -81 59 -131q45 -54 109 -58
q36 -2 69 8q23 7 58 26q3 2 8 4l4 2l4 2q7 4 12 6q11 6 22.5 2.5t17.5 -15t2 -23t-15 -17.5q-4 -2 -11 -6l-4 -2q-1 0 -4 -2l-8 -4q-40 -22 -69 -30q-43 -13 -90 -10q-90 5 -151 78q-53 63 -72 158q-17 92 3 177q22 94 81 144q35 29 77 40q32 8 81 8q109 0 167 -74
q47 -60 49 -150q1 -81 -33 -133q-20 -31 -47 -38q-33 -9 -63 17q-10 9 -19 20z" />
    <glyph glyph-name="A" unicode="A" 
d="M375 109q-1 0 -2 -1q-41 -4 -127 -5q-4 0 -12 -1q-51 -1 -74 -2q-7 -30 -12 -56q-3 -12 -13.5 -19t-22.5 -4.5t-19 13t-4 22.5q12 60 35 152q9 34 21 83q2 7 11 42.5t11 42.5q8 33 15 58q43 171 62 272v1q-2 13 5.5 22.5t19.5 11.5q16 3 26 -9q12 -11 10 -27
q30 -197 104 -491q4 -17 18 -65q6 -25 10 -40q11 -40 16 -69q2 -12 -5 -22t-19.5 -12.5t-22.5 5t-12 19.5q-5 27 -15 64q-1 7 -4 15zM359 167q-4 17 -8 32q-44 176 -79 351q-13 -56 -32 -131q-6 -25 -15 -57q-2 -8 -11 -43.5t-11 -42.5q-12 -49 -21 -82q-4 -18 -8 -33
q19 1 59 1q8 0 12 1q78 1 114 4z" />
    <glyph glyph-name="B" unicode="B" horiz-adv-x="380" 
d="M130 448h1l2 2l4 2q36 18 60.5 59.5t25.5 85.5q0 40 -22 62q-21 21 -62 22q-7 -102 -9 -233zM209 430q6 -2 10 -4q16 -6 22 -12q33 -28 51 -76.5t18.5 -105t-17 -104.5t-48.5 -76q-23 -19 -67 -31q-10 -2 -24 -5q-17 -3 -21 -4q-10 -2 -14 -4q-17 -6 -30 5q-17 8 -17 27
q0 53 -1 160q-1 114 -1 171q0 203 12 345q1 12 10.5 20t21.5 7q5 0 9 -2q77 4 120 -39q40 -40 40 -106q-1 -45 -21 -90t-53 -76zM205 367h-1l-6 3q-7 2 -21 7q-1 1 -3 1q-20 7 -27 9q-7 3 -11 5l-6 3v-24q0 -57 1 -171q0 -88 1 -127l10 2q13 2 21 5q30 7 42 18
q21 18 33 54.5t12 79.5t-12.5 79t-32.5 56z" />
    <glyph glyph-name="C" unicode="C" horiz-adv-x="433" 
d="M325 652q-13 4 -55 -2t-58 -15q-59 -30 -88 -123q-29 -92 -14 -199q15 -110 69 -178q58 -73 146 -73q12 0 21 -9t9 -21t-9 -21t-21 -9q-117 0 -193 96q-65 81 -82 207q-16 120 17 225q36 116 117 159q25 13 78 20q54 8 79 1q12 -3 18.5 -14t3 -23t-14.5 -18t-23 -3z" />
    <glyph glyph-name="D" unicode="D" horiz-adv-x="432" 
d="M143 69q45 24 75 48q52 40 73 137t2 205t-70 172q-40 50 -92 58q-9 -119 0 -316q1 -30 4 -88q7 -150 8 -216zM94 750q104 9 176 -82q61 -76 83 -199q20 -118 -3 -226q-25 -119 -95 -173q-26 -20 -65 -43t-61 -30q-6 -3 -12 -2h-4q-12 0 -21 9t-9 21q0 82 -8 257
q-3 58 -4 88q-9 207 1 333q-5 7 -5 15q-1 12 7 21.5t20 10.5z" />
    <glyph glyph-name="E" unicode="E" horiz-adv-x="375" 
d="M125 711q38 7 73 4q44 -4 75 -25q11 -7 13.5 -19t-4.5 -22.5t-19.5 -13t-22.5 4.5q-29 19 -81 15v-2q-1 -9 -1 -23q-1 -27 -2 -72q-2 -61 -3 -139q8 1 21 2q8 1 11 1q26 3 50 -3q12 -3 18.5 -13.5t4 -22.5t-13 -18.5t-22.5 -3.5q-15 3 -31 1q-3 0 -10 -1q-17 -2 -28 -2
q-1 -6 -1 -12q-1 -125 0 -207q0 -45 1 -70v-9q16 -2 43 -1q23 0 47 2q10 1 17 2q6 0 8 1q12 3 22.5 -3.5t13.5 -19t-3.5 -23t-18.5 -13.5q-23 -5 -85 -6q-31 -1 -51 1q-13 1 -22 4q-6 2 -11 5q-10 6 -15 15q-3 7 -4 21q-1 8 -1 22q-1 26 -1 71q-1 83 0 209q2 118 4 211
q2 100 5 112v3t-1 2q-2 13 5 23t20 12z" />
    <glyph glyph-name="F" unicode="F" horiz-adv-x="403" 
d="M98 17q-14 166 -16 357q-1 128 8 208q4 48 13 79q10 40 29 55q21 17 52 20q21 3 51 -1q10 -1 26 -3q33 -5 42 -5q13 0 21.5 -9t8.5 -21.5t-8.5 -21t-21.5 -8.5q-14 0 -51 5q-15 3 -24 4q-44 5 -57 -6q-1 -1 -3 -5q-4 -8 -7 -20q-7 -26 -12 -69q-4 -42 -6 -101q4 0 13 1
q41 2 65 -1q7 -1 13 -2q12 -3 19 -13t4.5 -22t-12.5 -19t-22 -5q-5 1 -9 1q-20 3 -55 1q-13 -1 -17 -1v-41q2 -188 16 -351q1 -13 -7 -22.5t-20 -10.5t-21.5 7t-11.5 20z" />
    <glyph glyph-name="G" unicode="G" horiz-adv-x="394" 
d="M252 648q-21 25 -37 25q-13 1 -28 -16q-40 -45 -63 -164.5t-16 -241.5q8 -128 46 -189q15 -23 42 -23q14 0 26 15q16 19 26 59q19 74 17 198q-13 4 -34 4h-27q-2 1 -4 1q-20 1 -24 0q-13 -1 -22.5 7t-10.5 20.5t7 22t21 10.5q8 1 32 0q1 0 4 -1h23q46 1 77 -17
q12 -7 15 -20q0 -1 1 -5t1 -5v-5q4 -139 -18 -225q-13 -52 -36 -81q-30 -38 -74 -38q-27 0 -48 10q-27 13 -45 41q-46 74 -55 218q-8 129 17 256q27 136 77 193q34 38 75 36q41 -1 80 -45q9 -9 8 -21.5t-10 -20.5t-21.5 -7.5t-21.5 9.5z" />
    <glyph glyph-name="H" unicode="H" horiz-adv-x="390" 
d="M321 723q0 -89 -4 -332q-1 -35 -1 -75q-1 -15 -2 -82.5t-2 -128t-1 -72.5q-1 -13 -9.5 -21.5t-21 -8.5t-21.5 9t-8 21q0 16 2 117q-42 13 -113 13q5 -85 17 -124q4 -12 -2 -23t-18 -14.5t-23 2.5t-14 17q-27 85 -22 351q1 58 4 147q5 145 5 178q0 13 8.5 21.5t21 8.5
t21.5 -8.5t9 -21.5q0 -34 -5 -180q-3 -88 -4 -146q-2 -84 0 -148q39 0 66 -3q27 -2 50 -8q1 90 2 105q0 40 1 75q4 242 4 331q0 12 8.5 21t21 9t21.5 -9t9 -21z" />
    <glyph glyph-name="I" unicode="I" horiz-adv-x="228" 
d="M147 672q0 -33 -5 -173q-3 -86 -4 -141q-5 -247 19 -320q4 -11 -2 -22t-17.5 -15t-22.5 1.5t-15 17.5q-27 82 -22 339q1 56 4 142q5 139 5 171q0 13 8.5 21.5t21 8.5t21.5 -8.5t9 -21.5z" />
    <glyph glyph-name="J" unicode="J" horiz-adv-x="309" 
d="M220 683q-3 -41 0 -113q2 -42 9 -142q1 -18 2 -28q8 -119 8 -183q1 -96 -14 -145q-7 -24 -25 -41q-13 -11 -34 -21q-61 -28 -103 8q-30 26 -44 83q-10 40 -11 90q-1 39 2 59q3 12 13 19.5t22 5.5t19.5 -12.5t5.5 -22.5q-3 -14 -2 -47q1 -44 9 -78q9 -38 25 -51
q6 -5 13 -6q10 -1 26 6q23 11 27 25q12 41 11 128q0 61 -8 178q-1 11 -2 28q-7 101 -9 144q-4 76 0 121q1 12 10.5 20t22 7t20.5 -10.5t7 -21.5z" />
    <glyph glyph-name="K" unicode="K" horiz-adv-x="511" 
d="M293 707q6 20 28 20q12 0 21 -8.5t9 -21.5q0 -6 -3 -13q-1 -3 -3 -7q-3 -5 -8 -12q-9 -11 -24 -29q-24 -28 -66 -73q12 -74 44 -164q21 -57 68 -167q20 -47 29 -68q33 -79 52 -136q4 -12 -1.5 -23t-17.5 -15t-23 1.5t-15 17.5q-18 55 -50 132q-9 21 -29 67
q-48 112 -69 171q-26 70 -39 130q-27 -28 -59 -62q0 -68 -3 -214q-2 -136 -2 -203q0 -12 -9 -21t-21.5 -9t-21 9t-8.5 21q0 68 2 204q4 190 2 285q-2 104 -9 192q-1 12 7 21.5t20.5 10.5t22 -7t10.5 -20q7 -85 9 -183q39 41 57 60q3 3 6 7q44 47 68 75q14 16 21 26q3 4 5 6z
" />
    <glyph glyph-name="L" unicode="L" horiz-adv-x="348" 
d="M122 716q3 -44 6 -338v-62q1 -139 2 -195q1 -41 1 -63q1 -2 1 -4q17 -2 45 -2q18 0 43 1q2 0 9 0.5t8 0.5h11q13 0 21.5 -9t8.5 -21.5t-8.5 -21t-21.5 -8.5h-10h-7q-7 -1 -10 -1q-25 -1 -44 -1q-32 0 -51 2q-13 2 -22 4q-7 2 -12 5q-9 5 -14 13q-4 6 -5 14q0 3 -1 7v19
q-1 22 -2 64q-1 56 -2 196v61q-3 292 -6 334q-1 12 7 21.5t20.5 10.5t22 -7t10.5 -20z" />
    <glyph glyph-name="M" unicode="M" horiz-adv-x="486" 
d="M70 32q6 78 2 202q0 16 -1 48q-3 77 -3 116q-1 66 2 119v5q2 36 3 53q2 41 2 72q0 22 1 47v15q1 2 1 4v2q0 15 12.5 23t26.5 4q8 -3 15 -10q4 -4 7 -9q5 -8 10 -19q7 -19 16 -53q13 -54 33 -156q6 -36 15 -82q1 -4 4.5 -24.5t8.5 -49.5t9 -50q9 52 22 120q5 29 12 61
q5 27 16 81.5t20.5 98.5t9.5 46q4 21 9 32q3 9 7 14q11 14 27 13.5t26 -13.5q4 -5 7 -12q4 -9 6 -23q9 -46 9 -95v-225q0 -138 8 -245q4 -44 4 -125q0 -13 -9 -21.5t-21.5 -8.5t-21 8.5t-8.5 21.5q0 79 -4 121q-8 109 -8 249v163q-13 -63 -19 -91q-6 -32 -12 -61
q-40 -212 -39 -279q0 -13 -8.5 -21.5t-21.5 -9.5q-8 0 -15 4q-18 5 -22 22q-9 31 -25 118q-2 14 -9 53t-13.5 76t-7.5 41q-9 46 -15 81q-4 21 -8 39v-3v-3.5v-2.5q-3 -50 -2 -114q0 -38 3 -116q1 -31 1 -47q4 -127 -2 -208q-1 -13 -10.5 -21t-22 -7t-20.5 10.5t-7 21.5z" />
    <glyph glyph-name="N" unicode="N" horiz-adv-x="486" 
d="M75 4q0 25 -1 68q-4 169 -4 249q1 92 5 171v5q2 36 3 53q2 41 2 72q0 22 1 47v15q1 2 1 4v2q0 15 12.5 23t26.5 4q13 -4 24 -20q6 -8 14 -23q13 -26 34 -72q35 -81 86 -213q35 -93 69 -187q-3 73 -3 163v113v112v8v3v5v2q1 34 0 55q0 15 -1.5 27.5t6.5 22t20.5 10.5
t22 -7t10.5 -20q1 -14 2 -31q1 -23 0 -58v-3v-4v-3v-7v-112v-113q0 -137 8 -244q4 -45 4 -126q0 -12 -9 -21t-21 -9q-20 0 -28 18q-2 4 -3 8q-26 97 -133 377q-49 128 -84 207q0 -13 -1 -28q-1 -17 -3 -53v-6q-4 -77 -5 -167q0 -80 4 -247q1 -44 1 -68q0 -13 -8.5 -22
t-21 -9t-21.5 8.5t-9 20.5z" />
    <glyph glyph-name="O" unicode="O" horiz-adv-x="504" 
d="M253 47q52 21 87 125q37 109 34 241q-3 135 -46 205q-40 66 -110 38q-52 -22 -82 -121q-29 -99 -22 -223q7 -125 47 -201q19 -37 43 -53q22 -15 49 -11zM255 -13q-46 -5 -85 21q-36 25 -62 75q-46 87 -54 225q-8 135 25 244q37 127 116 159q58 23 105 6.5t79 -68.5
q52 -84 55 -234q3 -143 -37 -262q-47 -138 -130 -165q-6 -2 -12 -1z" />
    <glyph glyph-name="P" unicode="P" horiz-adv-x="365" 
d="M142 392q31 8 48 17q24 14 37 40q13 27 7.5 63t-27.5 72q-30 50 -74 75q7 -118 9 -267zM107 731q42 -7 82.5 -38.5t68.5 -77.5q30 -49 36.5 -98.5t-13.5 -93.5q-21 -43 -62 -66q-26 -15 -76 -27q1 -73 0 -226v-79q0 -12 -8.5 -21t-21 -9t-21.5 9t-9 21v79q1 164 0 247
q-2 197 -13 344q0 7 2 14q3 11 13 17.5t22 4.5z" />
    <glyph glyph-name="Q" unicode="Q" horiz-adv-x="533" 
d="M360 143q9 -7 13 -11q44 -38 82 -76q8 -9 8 -21.5t-9 -21t-21 -8.5t-21 9q-36 36 -78 72q-37 -67 -89 -85q-10 -3 -19 0q-39 -2 -72.5 22t-57.5 72q-43 83 -50 215q-7 129 23 233q35 122 108 153q55 22 99 6t74 -66q47 -81 50 -225q3 -137 -34 -251q-3 -9 -6 -17z
M288 203q7 -6 16 -13q2 -3 6 -6q32 103 30 226q-3 128 -42 195q-18 31 -41 40q-24 10 -56 -4q-47 -20 -74 -114.5t-20.5 -213.5t42.5 -191q18 -35 39 -50q19 -14 42 -10h5q28 16 52 63l-22 18q-9 8 -16 14q-10 8 -11 20.5t7.5 22t20.5 10.5t22 -7z" />
    <glyph glyph-name="R" unicode="R" horiz-adv-x="443" 
d="M132 659q8 -119 10 -267q31 8 48 17q24 14 37 40q13 27 7.5 63t-27.5 72q-30 50 -75 75zM107 731q42 -7 82.5 -38.5t68.5 -77.5q30 -49 36.5 -98.5t-13.5 -93.5q-12 -24 -30 -42q19 -11 34 -30q23 -27 39 -75q11 -32 21 -86q2 -8 4 -20q0 -2 2 -10.5t2 -10.5
q11 -55 19 -80q4 -11 -1.5 -22.5t-17.5 -15t-23 2t-15 17.5q-9 27 -21 87q0 2 -1.5 10.5t-2.5 9.5q-2 12 -4 21q-9 49 -19 78q-12 37 -28 56t-37 22q-24 4 -59 -10q1 -78 0 -239v-82q0 -12 -8.5 -21t-21 -9t-21.5 9t-9 21v82q1 169 0 254q-2 203 -13 354q0 7 2 13
q2 12 12.5 19t22.5 5z" />
    <glyph glyph-name="S" unicode="S" horiz-adv-x="430" 
d="M259 657q-22 25 -44 25q-20 1 -37 -18q-21 -23 -28 -60q-8 -42 5 -87q5 -17 23 -39q11 -13 32 -33q0 -1 16.5 -16.5t21.5 -20.5q59 -59 84 -108q38 -74 25 -159q-7 -46 -20 -72q-22 -46 -69 -66q-38 -17 -77 -11q-31 5 -61 24q-21 14 -40 35q-11 12 -21 26q-7 11 -5 23
t12 19t22.5 5t19.5 -12q21 -29 45 -46q40 -26 81 -8q26 11 39 37q9 19 15 55q10 66 -19 122q-21 42 -73 93q-5 5 -21 20.5t-17 16.5q-23 22 -36 38q-25 31 -34 59q-18 59 -8 114.5t44 91.5q35 38 82 37q49 0 88 -45q9 -10 8 -22t-10.5 -20.5t-22 -7.5t-20.5 10z" />
    <glyph glyph-name="T" unicode="T" horiz-adv-x="430" 
d="M49 707q62 5 144 -2q53 -4 141 -15q12 -2 19.5 -12t6 -22t-11.5 -19.5t-22 -6.5q-72 10 -114 14q-1 -19 -3 -128q-2 -94 -3 -154q-1 -225 17 -302q2 -12 -4.5 -23t-18.5 -13.5t-22.5 4t-13.5 18.5q-19 84 -18 317q1 60 3 154q2 113 3 131q-55 2 -98 -1q-12 -1 -21.5 7
t-10.5 20.5t7 22t20 10.5z" />
    <glyph glyph-name="U" unicode="U" horiz-adv-x="422" 
d="M150 660q-1 -6 -2.5 -25t-3.5 -38t-3.5 -36.5t-1.5 -18.5q-9 -106 -11 -182q-3 -149 20 -227q13 -43 33 -61q18 -18 44 -15q15 2 31 15q21 16 28 42t8 69q1 33 -2 89q0 8 -1 23v3q-1 2 -1 3v6q-1 12 -1 23q-5 111 0 261q0 8 1 34t1 29q0 12 9 20.5t21.5 8t21 -9.5
t8.5 -21q0 -3 -1 -29t-1 -34q-5 -147 0 -256q0 -11 1 -23v-6v-3q1 -1 1 -3q0 -14 1 -22q3 -59 2 -94q-1 -51 -10 -85q-13 -44 -49 -72q-29 -24 -61 -27q-54 -6 -93 30q-31 30 -48 88q-26 87 -23 245q2 79 11 186q0 2 2 19t3.5 36l3 38t2.5 24q1 13 10 21t21.5 7t21 -10
t7.5 -22z" />
    <glyph glyph-name="V" unicode="V" horiz-adv-x="491" 
d="M94 702q2 -6 18 -57.5t20 -64.5q21 -68 36 -117q24 -80 44 -150q17 -57 32 -114l3 -12q3 -12 7.5 -28.5l7.5 -27.5q11 52 21 113q9 50 25 154q6 40 10 62q22 142 44 237q3 12 13.5 18.5t22.5 3.5t18.5 -13.5t3.5 -22.5q-21 -93 -43 -232q-3 -22 -10 -62
q-16 -105 -24 -155q-16 -88 -32 -161q-3 -13 -10 -34q-4 -14 -8 -21q-4 -9 -9 -14q-13 -11 -29 -7t-21 19q-8 22 -20 62q-3 12 -7 25q-2 8 -7 27.5t-9.5 36t-4.5 17.5q-15 56 -31 112q-20 70 -44 150q-15 49 -36 116l-20 65t-18 57q-4 12 2 23t17.5 15t22.5 -2t15 -18z" />
    <glyph glyph-name="W" unicode="W" horiz-adv-x="625" 
d="M95 713q1 -6 15.5 -57.5t18.5 -64.5q19 -68 32 -117q22 -80 40 -150q15 -57 29 -114l2 -8l5 -22.5t6 -23.5q6 31 9 56q4 25 7 60q6 69 27 167q-2 12 4.5 21t17.5 12q12 4 22.5 -2.5t13.5 -18.5q0 -1 1 -1q0 -2 1 -5l31 -117q3 -12 9 -37q1 -4 9.5 -41t10.5 -48
q0 -1 1.5 -7.5t4 -17.5t4.5 -20q7 42 14 90q8 50 21 154q5 40 8 62q19 141 37 236q3 12 13 19t22.5 4.5t19.5 -12.5t4 -22q-18 -93 -36 -233q-3 -22 -8 -62q-14 -105 -21 -155q-13 -88 -27 -160q-3 -14 -8 -35q-4 -13 -7 -20q-3 -9 -8 -14q-4 -4 -9 -7q-11 -5 -23 -1
q-10 3 -16 12q-3 4 -4 8q-7 22 -16 62q-3 11 -6 24q-2 9 -6.5 28.5t-7.5 36.5l-4 16q-3 12 -11.5 49t-9.5 41q-3 14 -5 22q-1 -15 -3 -33q-7 -73 -29 -181q-3 -14 -9 -35q-4 -13 -7 -21t-8 -13q-4 -4 -10 -7q-10 -5 -22 -1q-9 3 -15 11q-3 4 -5 9q-7 22 -17 62q-3 11 -6 24
q-2 9 -7 28t-9 36l-4 17q-13 56 -28 113q-18 69 -40 149q-13 49 -32 117q-3 13 -17.5 64.5t-16.5 57.5q-3 12 3 23t18 14t22.5 -3t14.5 -18z" />
    <glyph glyph-name="X" unicode="X" horiz-adv-x="517" 
d="M103 25q13 29 57 123q52 112 78 170q5 11 10 21q-3 7 -5 14q-27 72 -73 201q-40 113 -52 145q-5 11 0.5 22.5t17 16t22.5 -1t16 -16.5q12 -32 52 -145q38 -104 57 -158q82 185 98 249q3 12 14 18.5t23 3.5t18.5 -13.5t3.5 -22.5q-20 -78 -127 -315l6 -18
q86 -229 124 -295q7 -10 3.5 -22t-14 -18.5t-22.5 -3.5t-18 14q-38 64 -114 265q-20 -42 -64 -137q-43 -92 -56 -121q-5 -12 -16.5 -16.5t-23 0.5t-16 17t0.5 23z" />
    <glyph glyph-name="Y" unicode="Y" horiz-adv-x="476" 
d="M101 707q1 -1 6.5 -16t12 -31.5t8.5 -23.5q15 -39 26 -66q36 -92 67 -159q1 -1 1 -3q9 17 22 45q25 53 35 73q47 102 68 183q3 12 13.5 18.5t22.5 3.5t18.5 -13.5t3.5 -22.5q-22 -87 -72 -194q-9 -21 -35 -74q-23 -47 -36 -76l-10 -22l-1 -1q0 -30 -1 -77q-2 -55 -2 -76
q-1 -73 8 -143q1 -12 -6.5 -22t-20 -11.5t-22.5 6.5t-11 20q-9 74 -8 150q0 23 2 78q1 50 2 82q-13 25 -25 51q-33 68 -69 162q-11 28 -26 67q-2 7 -8.5 23t-12 31.5t-6.5 16.5q-4 12 1 23t16.5 15.5t23 -0.5t15.5 -17z" />
    <glyph glyph-name="Z" unicode="Z" horiz-adv-x="488" 
d="M102 725h89h90q10 0 39 -2q16 -2 25 -3q7 -1 11 -2t7 -2q8 -4 13 -10q6 -8 7 -19q1 -4 0 -9q0 -6 -3 -16q-3 -13 -9 -34q-2 -4 -3 -9l-14 -40q-22 -64 -52 -136q-18 -45 -54 -127q-1 -1 -3 -6t-2 -6q-59 -133 -87 -208q-1 -5 -10 -33q-1 -1 -1 -2h16q34 -1 86 0
q84 2 140 7q12 1 21.5 -7t10.5 -20.5t-7 -22t-21 -10.5q-57 -5 -142 -7q-125 -3 -154 7q-11 5 -16 15.5t-2 21.5q0 1 1 1v3q2 3 3 8q4 13 7 24h1q9 29 11 35q28 77 88 212q0 1 2.5 6t2.5 6q36 81 54 125q29 71 50 133q9 28 14 40q1 5 2 9q3 8 5 16h-3q-11 1 -23 2h-8h-1h-2
h-90h-89q-13 0 -21.5 9t-8.5 21.5t8.5 21t21.5 8.5z" />
    <glyph glyph-name="bracketleft" unicode="[" horiz-adv-x="289" 
d="M186 732q-5 -1 -25 0h-25q-18 -1 -28 -2h-1v-13q0 -6 1 -15v-6l1 -5v-9q0 -38 -1 -113v-21q-1 -56 -1 -92q0 -25 -2 -106q-2 -89 -1 -142q0 -167 22 -241q10 0 24 1q6 0 14 1q22 1 29 1q11 0 18.5 -7.5t7.5 -18.5t-7.5 -19t-18.5 -8q-5 0 -25 -1q-9 -1 -15 -1
q-38 -2 -54 4q-14 5 -19 20q-29 80 -29 268q-1 54 1 145q2 79 2 104q0 36 1 93v21q1 75 1 112v5v5q-1 5 -1 6q-1 10 -1 17q-1 15 0 25q1 8 3 14q3 12 12 18q11 8 33 11q13 1 33 2h27q17 -1 21 0q11 0 19 -7t9 -18t-6.5 -19t-18.5 -9z" />
    <glyph glyph-name="backslash" unicode="\" horiz-adv-x="367" 
d="M28 705q37 -87 53 -126q44 -106 80 -192q4 -9 7 -17q104 -253 128 -328q4 -11 -2 -22.5t-17.5 -15t-22.5 2t-15 17.5q-23 72 -126 323q-4 8 -8 17q-35 86 -79 192l-53 125q-5 12 -0.5 23.5t16 16.5t23 0t16.5 -16z" />
    <glyph glyph-name="bracketright" unicode="]" horiz-adv-x="263" 
d="M49 -38h27q15 -1 24 -1q17 0 27 2h2v3.5v4.5v4q-1 7 -1 17v4q-1 5 -1 6v8l3 114v16q2 60 3 96q0 25 4 114q3 84 3 135q2 167 -18 240q-10 1 -24 0h-15q-21 -1 -28 -1q-11 0 -18.5 8t-7.5 19t8 18.5t19 7.5q5 0 24 1h16q38 2 54 -4q14 -6 19 -21q27 -80 24 -268
q0 -53 -3 -137q-4 -89 -4 -113q-1 -36 -3 -96v-17q-2 -75 -3 -113v-1v-3q0 -1 0.5 -5t0.5 -5q0 -11 1 -18q0 -16 -1 -26q-1 -7 -3 -13q-4 -12 -13 -18q-11 -8 -32 -10q-13 -2 -33 -2q-10 0 -26 1h-22q-11 0 -19.5 7t-9 18t7 19.5t18.5 8.5z" />
    <glyph glyph-name="asciicircum" unicode="^" horiz-adv-x="390" 
d="M74 522q23 66 67 154q4 8 8 14q20 31 49 28q24 -1 44 -26q19 -25 44 -90q2 -3 5 -11t5.5 -15.5t5.5 -13.5l2 -7q9 -23 14 -33q5 -11 1 -23t-15 -17.5t-22.5 -1.5t-17.5 15q-6 13 -16 39l-4 10q-3 10 -7.5 21t-6.5 16q-20 53 -34 71q0 -1 -1 -2q-43 -85 -65 -148
q-4 -11 -15.5 -16.5t-23 -1.5t-17 15.5t-0.5 22.5z" />
    <glyph glyph-name="underscore" unicode="_" horiz-adv-x="457" 
d="M79 53q33 2 94 3h1q116 3 180 10q12 2 22 -5.5t11.5 -20t-6.5 -22.5t-20 -11q-67 -8 -185 -11h-2q-60 -1 -91 -3q-13 0 -22 8t-10 20.5t7.5 21.5t20.5 10z" />
    <glyph glyph-name="grave" unicode="`" horiz-adv-x="235" 
d="M108 702q2 -1 9.5 -8t9.5 -8q24 -22 35 -38q6 -10 3.5 -20.5t-11.5 -16.5t-20 -4t-17 12q-7 11 -26 28q-1 1 -8.5 7.5t-9.5 8.5q-8 7 -8.5 18t6.5 19.5t18 9t19 -7.5z" />
    <glyph glyph-name="a" unicode="a" 
d="M375 109q-1 0 -2 -1q-41 -4 -127 -5q-4 0 -12 -1q-51 -1 -74 -2q-7 -30 -12 -56q-3 -12 -13.5 -19t-22.5 -4.5t-19 13t-4 22.5q12 60 35 152q9 34 21 83q2 7 11 42.5t11 42.5q8 33 15 58q43 171 62 272v1q-2 13 5.5 22.5t19.5 11.5q16 3 26 -9q12 -11 10 -27
q30 -197 104 -491q4 -17 18 -65q6 -25 10 -40q11 -40 16 -69q2 -12 -5 -22t-19.5 -12.5t-22.5 5t-12 19.5q-5 27 -15 64q-1 7 -4 15zM359 167q-4 17 -8 32q-44 176 -79 351q-13 -56 -32 -131q-6 -25 -15 -57q-2 -8 -11 -43.5t-11 -42.5q-12 -49 -21 -82q-4 -18 -8 -33
q19 1 59 1q8 0 12 1q78 1 114 4z" />
    <glyph glyph-name="b" unicode="b" horiz-adv-x="380" 
d="M130 448h1l2 2l4 2q36 18 60.5 59.5t25.5 85.5q0 40 -22 62q-21 21 -62 22q-7 -102 -9 -233zM209 430q6 -2 10 -4q16 -6 22 -12q33 -28 51 -76.5t18.5 -105t-17 -104.5t-48.5 -76q-23 -19 -67 -31q-10 -2 -24 -5q-17 -3 -21 -4q-10 -2 -14 -4q-17 -6 -30 5q-17 8 -17 27
q0 53 -1 160q-1 114 -1 171q0 203 12 345q1 12 10.5 20t21.5 7q5 0 9 -2q77 4 120 -39q40 -40 40 -106q-1 -45 -21 -90t-53 -76zM205 367h-1l-6 3q-7 2 -21 7q-1 1 -3 1q-20 7 -27 9q-7 3 -11 5l-6 3v-24q0 -57 1 -171q0 -88 1 -127l10 2q13 2 21 5q30 7 42 18
q21 18 33 54.5t12 79.5t-12.5 79t-32.5 56z" />
    <glyph glyph-name="c" unicode="c" horiz-adv-x="433" 
d="M325 652q-13 4 -55 -2t-58 -15q-59 -30 -88 -123q-29 -92 -14 -199q15 -110 69 -178q58 -73 146 -73q12 0 21 -9t9 -21t-9 -21t-21 -9q-117 0 -193 96q-65 81 -82 207q-16 120 17 225q36 116 117 159q25 13 78 20q54 8 79 1q12 -3 18.5 -14t3 -23t-14.5 -18t-23 -3z" />
    <glyph glyph-name="d" unicode="d" horiz-adv-x="432" 
d="M143 69q45 24 75 48q52 40 73 137t2 205t-70 172q-40 50 -92 58q-9 -119 0 -316q1 -30 4 -88q7 -150 8 -216zM94 750q104 9 176 -82q61 -76 83 -199q20 -118 -3 -226q-25 -119 -95 -173q-26 -20 -65 -43t-61 -30q-6 -3 -12 -2h-4q-12 0 -21 9t-9 21q0 82 -8 257
q-3 58 -4 88q-9 207 1 333q-5 7 -5 15q-1 12 7 21.5t20 10.5z" />
    <glyph glyph-name="e" unicode="e" horiz-adv-x="375" 
d="M125 711q38 7 73 4q44 -4 75 -25q11 -7 13.5 -19t-4.5 -22.5t-19.5 -13t-22.5 4.5q-29 19 -81 15v-2q-1 -9 -1 -23q-1 -27 -2 -72q-2 -61 -3 -139q8 1 21 2q8 1 11 1q26 3 50 -3q12 -3 18.5 -13.5t4 -22.5t-13 -18.5t-22.5 -3.5q-15 3 -31 1q-3 0 -10 -1q-17 -2 -28 -2
q-1 -6 -1 -12q-1 -125 0 -207q0 -45 1 -70v-9q16 -2 43 -1q23 0 47 2q10 1 17 2q6 0 8 1q12 3 22.5 -3.5t13.5 -19t-3.5 -23t-18.5 -13.5q-23 -5 -85 -6q-31 -1 -51 1q-13 1 -22 4q-6 2 -11 5q-10 6 -15 15q-3 7 -4 21q-1 8 -1 22q-1 26 -1 71q-1 83 0 209q2 118 4 211
q2 100 5 112v3t-1 2q-2 13 5 23t20 12z" />
    <glyph glyph-name="f" unicode="f" horiz-adv-x="403" 
d="M98 17q-14 166 -16 357q-1 128 8 208q4 48 13 79q10 40 29 55q21 17 52 20q21 3 51 -1q10 -1 26 -3q33 -5 42 -5q13 0 21.5 -9t8.5 -21.5t-8.5 -21t-21.5 -8.5q-14 0 -51 5q-15 3 -24 4q-44 5 -57 -6q-1 -1 -3 -5q-4 -8 -7 -20q-7 -26 -12 -69q-4 -42 -6 -101q4 0 13 1
q41 2 65 -1q7 -1 13 -2q12 -3 19 -13t4.5 -22t-12.5 -19t-22 -5q-5 1 -9 1q-20 3 -55 1q-13 -1 -17 -1v-41q2 -188 16 -351q1 -13 -7 -22.5t-20 -10.5t-21.5 7t-11.5 20z" />
    <glyph glyph-name="g" unicode="g" horiz-adv-x="394" 
d="M252 648q-21 25 -37 25q-13 1 -28 -16q-40 -45 -63 -164.5t-16 -241.5q8 -128 46 -189q15 -23 42 -23q14 0 26 15q16 19 26 59q19 74 17 198q-13 4 -34 4h-27q-2 1 -4 1q-20 1 -24 0q-13 -1 -22.5 7t-10.5 20.5t7 22t21 10.5q8 1 32 0q1 0 4 -1h23q46 1 77 -17
q12 -7 15 -20q0 -1 1 -5t1 -5v-5q4 -139 -18 -225q-13 -52 -36 -81q-30 -38 -74 -38q-27 0 -48 10q-27 13 -45 41q-46 74 -55 218q-8 129 17 256q27 136 77 193q34 38 75 36q41 -1 80 -45q9 -9 8 -21.5t-10 -20.5t-21.5 -7.5t-21.5 9.5z" />
    <glyph glyph-name="h" unicode="h" horiz-adv-x="390" 
d="M321 723q0 -89 -4 -332q-1 -35 -1 -75q-1 -15 -2 -82.5t-2 -128t-1 -72.5q-1 -13 -9.5 -21.5t-21 -8.5t-21.5 9t-8 21q0 16 2 117q-42 13 -113 13q5 -85 17 -124q4 -12 -2 -23t-18 -14.5t-23 2.5t-14 17q-27 85 -22 351q1 58 4 147q5 145 5 178q0 13 8.5 21.5t21 8.5
t21.5 -8.5t9 -21.5q0 -34 -5 -180q-3 -88 -4 -146q-2 -84 0 -148q39 0 66 -3q27 -2 50 -8q1 90 2 105q0 40 1 75q4 242 4 331q0 12 8.5 21t21 9t21.5 -9t9 -21z" />
    <glyph glyph-name="i" unicode="i" horiz-adv-x="228" 
d="M147 672q0 -33 -5 -173q-3 -86 -4 -141q-5 -247 19 -320q4 -11 -2 -22t-17.5 -15t-22.5 1.5t-15 17.5q-27 82 -22 339q1 56 4 142q5 139 5 171q0 13 8.5 21.5t21 8.5t21.5 -8.5t9 -21.5z" />
    <glyph glyph-name="j" unicode="j" horiz-adv-x="309" 
d="M220 683q-3 -41 0 -113q2 -42 9 -142q1 -18 2 -28q8 -119 8 -183q1 -96 -14 -145q-7 -24 -25 -41q-13 -11 -34 -21q-61 -28 -103 8q-30 26 -44 83q-10 40 -11 90q-1 39 2 59q3 12 13 19.5t22 5.5t19.5 -12.5t5.5 -22.5q-3 -14 -2 -47q1 -44 9 -78q9 -38 25 -51
q6 -5 13 -6q10 -1 26 6q23 11 27 25q12 41 11 128q0 61 -8 178q-1 11 -2 28q-7 101 -9 144q-4 76 0 121q1 12 10.5 20t22 7t20.5 -10.5t7 -21.5z" />
    <glyph glyph-name="k" unicode="k" horiz-adv-x="511" 
d="M293 707q6 20 28 20q12 0 21 -8.5t9 -21.5q0 -6 -3 -13q-1 -3 -3 -7q-3 -5 -8 -12q-9 -11 -24 -29q-24 -28 -66 -73q12 -74 44 -164q21 -57 68 -167q20 -47 29 -68q33 -79 52 -136q4 -12 -1.5 -23t-17.5 -15t-23 1.5t-15 17.5q-18 55 -50 132q-9 21 -29 67
q-48 112 -69 171q-26 70 -39 130q-27 -28 -59 -62q0 -68 -3 -214q-2 -136 -2 -203q0 -12 -9 -21t-21.5 -9t-21 9t-8.5 21q0 68 2 204q4 190 2 285q-2 104 -9 192q-1 12 7 21.5t20.5 10.5t22 -7t10.5 -20q7 -85 9 -183q39 41 57 60q3 3 6 7q44 47 68 75q14 16 21 26q3 4 5 6z
" />
    <glyph glyph-name="l" unicode="l" horiz-adv-x="348" 
d="M122 716q3 -44 6 -338v-62q1 -139 2 -195q1 -41 1 -63q1 -2 1 -4q17 -2 45 -2q18 0 43 1q2 0 9 0.5t8 0.5h11q13 0 21.5 -9t8.5 -21.5t-8.5 -21t-21.5 -8.5h-10h-7q-7 -1 -10 -1q-25 -1 -44 -1q-32 0 -51 2q-13 2 -22 4q-7 2 -12 5q-9 5 -14 13q-4 6 -5 14q0 3 -1 7v19
q-1 22 -2 64q-1 56 -2 196v61q-3 292 -6 334q-1 12 7 21.5t20.5 10.5t22 -7t10.5 -20z" />
    <glyph glyph-name="m" unicode="m" horiz-adv-x="486" 
d="M70 32q6 78 2 202q0 16 -1 48q-3 77 -3 116q-1 66 2 119v5q2 36 3 53q2 41 2 72q0 22 1 47v15q1 2 1 4v2q0 15 12.5 23t26.5 4q8 -3 15 -10q4 -4 7 -9q5 -8 10 -19q7 -19 16 -53q13 -54 33 -156q6 -36 15 -82q1 -4 4.5 -24.5t8.5 -49.5t9 -50q9 52 22 120q5 29 12 61
q5 27 16 81.5t20.5 98.5t9.5 46q4 21 9 32q3 9 7 14q11 14 27 13.5t26 -13.5q4 -5 7 -12q4 -9 6 -23q9 -46 9 -95v-225q0 -138 8 -245q4 -44 4 -125q0 -13 -9 -21.5t-21.5 -8.5t-21 8.5t-8.5 21.5q0 79 -4 121q-8 109 -8 249v163q-13 -63 -19 -91q-6 -32 -12 -61
q-40 -212 -39 -279q0 -13 -8.5 -21.5t-21.5 -9.5q-8 0 -15 4q-18 5 -22 22q-9 31 -25 118q-2 14 -9 53t-13.5 76t-7.5 41q-9 46 -15 81q-4 21 -8 39v-3v-3.5v-2.5q-3 -50 -2 -114q0 -38 3 -116q1 -31 1 -47q4 -127 -2 -208q-1 -13 -10.5 -21t-22 -7t-20.5 10.5t-7 21.5z" />
    <glyph glyph-name="n" unicode="n" horiz-adv-x="486" 
d="M75 4q0 25 -1 68q-4 169 -4 249q1 92 5 171v5q2 36 3 53q2 41 2 72q0 22 1 47v15q1 2 1 4v2q0 15 12.5 23t26.5 4q13 -4 24 -20q6 -8 14 -23q13 -26 34 -72q35 -81 86 -213q35 -93 69 -187q-3 73 -3 163v113v112v8v3v5v2q1 34 0 55q0 15 -1.5 27.5t6.5 22t20.5 10.5
t22 -7t10.5 -20q1 -14 2 -31q1 -23 0 -58v-3v-4v-3v-7v-112v-113q0 -137 8 -244q4 -45 4 -126q0 -12 -9 -21t-21 -9q-20 0 -28 18q-2 4 -3 8q-26 97 -133 377q-49 128 -84 207q0 -13 -1 -28q-1 -17 -3 -53v-6q-4 -77 -5 -167q0 -80 4 -247q1 -44 1 -68q0 -13 -8.5 -22
t-21 -9t-21.5 8.5t-9 20.5z" />
    <glyph glyph-name="o" unicode="o" horiz-adv-x="504" 
d="M253 47q52 21 87 125q37 109 34 241q-3 135 -46 205q-40 66 -110 38q-52 -22 -82 -121q-29 -99 -22 -223q7 -125 47 -201q19 -37 43 -53q22 -15 49 -11zM255 -13q-46 -5 -85 21q-36 25 -62 75q-46 87 -54 225q-8 135 25 244q37 127 116 159q58 23 105 6.5t79 -68.5
q52 -84 55 -234q3 -143 -37 -262q-47 -138 -130 -165q-6 -2 -12 -1z" />
    <glyph glyph-name="p" unicode="p" horiz-adv-x="365" 
d="M142 392q31 8 48 17q24 14 37 40q13 27 7.5 63t-27.5 72q-30 50 -74 75q7 -118 9 -267zM107 731q42 -7 82.5 -38.5t68.5 -77.5q30 -49 36.5 -98.5t-13.5 -93.5q-21 -43 -62 -66q-26 -15 -76 -27q1 -73 0 -226v-79q0 -12 -8.5 -21t-21 -9t-21.5 9t-9 21v79q1 164 0 247
q-2 197 -13 344q0 7 2 14q3 11 13 17.5t22 4.5z" />
    <glyph glyph-name="q" unicode="q" horiz-adv-x="533" 
d="M226 1q-39 -2 -72.5 22t-57.5 72q-43 83 -50 215q-7 129 23 233q35 122 108 153q55 22 99 6t74 -66q47 -81 50 -225q3 -137 -34 -251q-3 -9 -6 -17q9 -7 13 -11q44 -38 82 -76q8 -9 8 -21.5t-9 -21t-21 -8.5t-21 9q-36 36 -78 72q-37 -67 -89 -85q-10 -3 -19 0zM288 203
q7 -6 16 -13q2 -3 6 -6q32 103 30 226q-3 128 -42 195q-18 31 -41 40q-24 10 -56 -4q-47 -20 -74 -114.5t-20.5 -213.5t42.5 -191q18 -35 39 -50q19 -14 42 -10h5q28 16 52 63l-22 18q-9 8 -16 14q-10 8 -11 20.5t7.5 22t20.5 10.5t22 -7z" />
    <glyph glyph-name="r" unicode="r" horiz-adv-x="443" 
d="M132 659q8 -119 10 -267q31 8 48 17q24 14 37 40q13 27 7.5 63t-27.5 72q-30 50 -75 75zM107 731q42 -7 82.5 -38.5t68.5 -77.5q30 -49 36.5 -98.5t-13.5 -93.5q-12 -24 -30 -42q19 -11 34 -30q23 -27 39 -75q11 -32 21 -86q2 -8 4 -20q0 -2 2 -10.5t2 -10.5
q11 -55 19 -80q4 -11 -1.5 -22.5t-17.5 -15t-23 2t-15 17.5q-9 27 -21 87q0 2 -1.5 10.5t-2.5 9.5q-2 12 -4 21q-9 49 -19 78q-12 37 -28 56t-37 22q-24 4 -59 -10q1 -78 0 -239v-82q0 -12 -8.5 -21t-21 -9t-21.5 9t-9 21v82q1 169 0 254q-2 203 -13 354q0 7 2 13
q2 12 12.5 19t22.5 5z" />
    <glyph glyph-name="s" unicode="s" horiz-adv-x="430" 
d="M259 657q-22 25 -44 25q-20 1 -37 -18q-21 -23 -28 -60q-8 -42 5 -87q5 -17 23 -39q11 -13 32 -33q0 -1 16.5 -16.5t21.5 -20.5q59 -59 84 -108q38 -74 25 -159q-7 -46 -20 -72q-22 -46 -69 -66q-38 -17 -77 -11q-31 5 -61 24q-21 14 -40 35q-11 12 -21 26q-7 11 -5 23
t12 19t22.5 5t19.5 -12q21 -29 45 -46q40 -26 81 -8q26 11 39 37q9 19 15 55q10 66 -19 122q-21 42 -73 93q-5 5 -21 20.5t-17 16.5q-23 22 -36 38q-25 31 -34 59q-18 59 -8 114.5t44 91.5q35 38 82 37q49 0 88 -45q9 -10 8 -22t-10.5 -20.5t-22 -7.5t-20.5 10z" />
    <glyph glyph-name="t" unicode="t" horiz-adv-x="430" 
d="M49 707q62 5 144 -2q53 -4 141 -15q12 -2 19.5 -12t6 -22t-11.5 -19.5t-22 -6.5q-72 10 -114 14q-1 -19 -3 -128q-2 -94 -3 -154q-1 -225 17 -302q2 -12 -4.5 -23t-18.5 -13.5t-22.5 4t-13.5 18.5q-19 84 -18 317q1 60 3 154q2 113 3 131q-55 2 -98 -1q-12 -1 -21.5 7
t-10.5 20.5t7 22t20 10.5z" />
    <glyph glyph-name="u" unicode="u" horiz-adv-x="422" 
d="M150 660q-1 -6 -2.5 -25t-3.5 -38t-3.5 -36.5t-1.5 -18.5q-9 -106 -11 -182q-3 -149 20 -227q13 -43 33 -61q18 -18 44 -15q15 2 31 15q21 16 28 42t8 69q1 33 -2 89q0 8 -1 23v3q-1 2 -1 3v6q-1 12 -1 23q-5 111 0 261q0 8 1 34t1 29q0 12 9 20.5t21.5 8t21 -9.5
t8.5 -21q0 -3 -1 -29t-1 -34q-5 -147 0 -256q0 -11 1 -23v-6v-3q1 -1 1 -3q0 -14 1 -22q3 -59 2 -94q-1 -51 -10 -85q-13 -44 -49 -72q-29 -24 -61 -27q-54 -6 -93 30q-31 30 -48 88q-26 87 -23 245q2 79 11 186q0 2 2 19t3.5 36l3 38t2.5 24q1 13 10 21t21.5 7t21 -10
t7.5 -22z" />
    <glyph glyph-name="v" unicode="v" horiz-adv-x="491" 
d="M94 702q2 -6 18 -57.5t20 -64.5q21 -68 36 -117q24 -80 44 -150q17 -57 32 -114l3 -12q3 -12 7.5 -28.5l7.5 -27.5q11 52 21 113q9 50 25 154q6 40 10 62q22 142 44 237q3 12 13.5 18.5t22.5 3.5t18.5 -13.5t3.5 -22.5q-21 -93 -43 -232q-3 -22 -10 -62
q-16 -105 -24 -155q-16 -88 -32 -161q-3 -13 -10 -34q-4 -14 -8 -21q-4 -9 -9 -14q-13 -11 -29 -7t-21 19q-8 22 -20 62q-3 12 -7 25q-2 8 -7 27.5t-9.5 36t-4.5 17.5q-15 56 -31 112q-20 70 -44 150q-15 49 -36 116l-20 65t-18 57q-4 12 2 23t17.5 15t22.5 -2t15 -18z" />
    <glyph glyph-name="w" unicode="w" horiz-adv-x="625" 
d="M95 713q1 -6 15.5 -57.5t18.5 -64.5q19 -68 32 -117q22 -80 40 -150q15 -57 29 -114l2 -8l5 -22.5t6 -23.5q6 31 9 56q4 25 7 60q6 69 27 167q-2 12 4.5 21t17.5 12q12 4 22.5 -2.5t13.5 -18.5q0 -1 1 -1q0 -2 1 -5l31 -117q3 -12 9 -37q1 -4 9.5 -41t10.5 -48
q0 -1 1.5 -7.5t4 -17.5t4.5 -20q7 42 14 90q8 50 21 154q5 40 8 62q19 141 37 236q3 12 13 19t22.5 4.5t19.5 -12.5t4 -22q-18 -93 -36 -233q-3 -22 -8 -62q-14 -105 -21 -155q-13 -88 -27 -160q-3 -14 -8 -35q-4 -13 -7 -20q-3 -9 -8 -14q-4 -4 -9 -7q-11 -5 -23 -1
q-10 3 -16 12q-3 4 -4 8q-7 22 -16 62q-3 11 -6 24q-2 9 -6.5 28.5t-7.5 36.5l-4 16q-3 12 -11.5 49t-9.5 41q-3 14 -5 22q-1 -15 -3 -33q-7 -73 -29 -181q-3 -14 -9 -35q-4 -13 -7 -21t-8 -13q-4 -4 -10 -7q-10 -5 -22 -1q-9 3 -15 11q-3 4 -5 9q-7 22 -17 62q-3 11 -6 24
q-2 9 -7 28t-9 36l-4 17q-13 56 -28 113q-18 69 -40 149q-13 49 -32 117q-3 13 -17.5 64.5t-16.5 57.5q-3 12 3 23t18 14t22.5 -3t14.5 -18z" />
    <glyph glyph-name="x" unicode="x" horiz-adv-x="517" 
d="M103 25q13 29 57 123q52 112 78 170q5 11 10 21q-3 7 -5 14q-27 72 -73 201q-40 113 -52 145q-5 11 0.5 22.5t17 16t22.5 -1t16 -16.5q12 -32 52 -145q38 -104 57 -158q82 185 98 249q3 12 14 18.5t23 3.5t18.5 -13.5t3.5 -22.5q-20 -78 -127 -315l6 -18
q86 -229 124 -295q7 -10 3.5 -22t-14 -18.5t-22.5 -3.5t-18 14q-38 64 -114 265q-20 -42 -64 -137q-43 -92 -56 -121q-5 -12 -16.5 -16.5t-23 0.5t-16 17t0.5 23z" />
    <glyph glyph-name="y" unicode="y" horiz-adv-x="476" 
d="M101 707q1 -1 6.5 -16t12 -31.5t8.5 -23.5q15 -39 26 -66q36 -92 67 -159q1 -1 1 -3q9 17 22 45q25 53 35 73q47 102 68 183q3 12 13.5 18.5t22.5 3.5t18.5 -13.5t3.5 -22.5q-22 -87 -72 -194q-9 -21 -35 -74q-23 -47 -36 -76l-10 -22l-1 -1q0 -30 -1 -77q-2 -55 -2 -76
q-1 -73 8 -143q1 -12 -6.5 -22t-20 -11.5t-22.5 6.5t-11 20q-9 74 -8 150q0 23 2 78q1 50 2 82q-13 25 -25 51q-33 68 -69 162q-11 28 -26 67q-2 7 -8.5 23t-12 31.5t-6.5 16.5q-4 12 1 23t16.5 15.5t23 -0.5t15.5 -17z" />
    <glyph glyph-name="z" unicode="z" horiz-adv-x="488" 
d="M102 725h89h90q10 0 39 -2q16 -2 25 -3q7 -1 11 -2t7 -2q8 -4 13 -10q6 -8 7 -19q1 -4 0 -9q0 -6 -3 -16q-3 -13 -9 -34q-2 -4 -3 -9l-14 -40q-22 -64 -52 -136q-18 -45 -54 -127q-1 -1 -3 -6t-2 -6q-59 -133 -87 -208q-1 -5 -10 -33q-1 -1 -1 -2h16q34 -1 86 0
q84 2 140 7q12 1 21.5 -7t10.5 -20.5t-7 -22t-21 -10.5q-57 -5 -142 -7q-125 -3 -154 7q-11 5 -16 15.5t-2 21.5q0 1 1 1v3q2 3 3 8q4 13 7 24h1q9 29 11 35q28 77 88 212q0 1 2.5 6t2.5 6q36 81 54 125q29 71 50 133q9 28 14 40q1 5 2 9q3 8 5 16h-3q-11 1 -23 2h-8h-1h-2
h-90h-89q-13 0 -21.5 9t-8.5 21.5t8.5 21t21.5 8.5z" />
    <glyph glyph-name="braceleft" unicode="{" horiz-adv-x="331" 
d="M229 674q-21 2 -31.5 -6.5t-16.5 -29.5q-6 -23 -8 -60q0 -24 1 -75v-3q1 -46 1 -68q-1 -37 -5 -63q-6 -34 -19 -55q15 -20 21 -57q5 -27 5 -72q0 -26 -1 -83q-1 -18 -1 -27q-2 -104 6 -149q6 -28 15 -41q7 -9 17 -10q12 -1 20 -10.5t7 -22t-10.5 -20.5t-21.5 -7
q-38 4 -60 35q-17 24 -25 65q-11 51 -8 161q0 10 1 28q1 56 1 80q0 40 -4 64q-3 21 -9 28q-1 0 -3 -1q-4 -1 -8 -1q-22 0 -29 21q-1 5 -1 9q0 22 22 29q19 5 26 46q4 21 4 54q0 21 -1 65v4q-1 52 -1 79q2 44 10 73q25 87 111 80q12 -2 20 -11.5t7 -21.5t-10.5 -20t-21.5 -7z
" />
    <glyph glyph-name="bar" unicode="|" horiz-adv-x="202" 
d="M132 721v-58q-1 -47 -2 -86q-2 -120 -4 -216q-7 -277 -15 -355q-1 -12 -10.5 -20t-22 -6.5t-20.5 11t-6 22.5q8 75 14 349q2 96 4 216q1 39 2 86v58q1 12 9.5 20.5t21 8.5t21.5 -9t8 -21z" />
    <glyph glyph-name="braceright" unicode="}" horiz-adv-x="304" 
d="M67 -120q21 -2 31.5 6.5t16.5 29.5q7 22 8 59q1 25 0 75v4q-1 45 -1 67q1 38 6 63q6 34 19 55q-15 20 -21 57q-5 28 -5 72q0 26 2 83q1 18 1 27q3 103 -5 148q-6 28 -15 41q-7 10 -16 11q-13 1 -21 10.5t-6.5 22t11 20t21.5 6.5q37 -3 60 -35q17 -24 25 -64q9 -52 6 -162
q0 -9 -1 -27q-2 -56 -2 -81q0 -40 4 -63q3 -21 9 -28q1 0 3 1q4 1 8 1q22 0 29 -22q1 -4 1 -8q0 -23 -22 -29q-19 -6 -26 -46q-4 -21 -5 -54q0 -21 1 -65v-4q1 -52 0 -78q-2 -44 -10 -73q-25 -88 -111 -79q-13 1 -20.5 10.5t-6.5 22t10.5 20t21.5 6.5z" />
    <glyph glyph-name="asciitilde" unicode="~" horiz-adv-x="448" 
d="M72 380q20 37 47 49q28 13 58 -1q16 -7 33 -21q10 -8 27 -25q29 -27 40 -33q3 -2 5 -2l1 -1q0 1 2 2q6 6 14 15q1 2 3 4q1 1 2 3l2 2l8 8q7 8 13 14q9 9 21.5 9t21 -8.5t8.5 -21t-9 -21.5q-5 -5 -11 -12q-3 -3 -7 -8l-2 -2t-1 -2l-4 -4q-10 -11 -17 -18q-33 -34 -78 -10
q-13 7 -28 20q-8 7 -25 23q-30 29 -43 34q-6 3 -9 1q-9 -4 -19 -23q-6 -11 -18 -14.5t-23 2.5t-14.5 18t2.5 23z" />
    <glyph glyph-name="exclamdown" unicode="&#xa1;" horiz-adv-x="216" 
d="M128 557q18 -7 18 -27q0 -6 -1 -11q-1 -8 -6 -15q-12 -16 -31 -13q-11 2 -18 11q-11 11 -14 30q-2 12 5 22.5t19 12.5q17 3 28 -10zM133 396q-10 -58 -7 -293q4 -207 9 -265q1 -12 -6.5 -22t-20 -11t-22 7t-11.5 20q-5 60 -9 270q-3 241 8 304q2 13 12.5 20t22.5 5
t19 -12.5t5 -22.5z" />
    <glyph glyph-name="cent" unicode="&#xa2;" horiz-adv-x="368" 
d="M228 603v-31v-7q20 -6 42 -20q10 -6 13 -18t-3.5 -22.5t-18.5 -13.5t-23 4q-21 13 -38 16h-2q-4 0 -8 1q-3 0 -7 -1q-16 -2 -29 -21q-31 -48 -24 -144t45 -143q15 -18 30 -20q19 -1 44 20q9 8 21.5 7t20.5 -10.5t7 -22t-10 -20.5q-34 -29 -68 -33q-1 -10 -1 -21
q0 -12 -8.5 -21t-21 -9t-21.5 9t-9 21q0 18 1 34q-17 10 -32 29q-50 61 -58 176q-9 116 34 181q25 38 64 47v2v31q0 12 9 21t21.5 9t21 -9t8.5 -21z" />
    <glyph glyph-name="sterling" unicode="&#xa3;" horiz-adv-x="512" 
d="M130 73q10 3 17 14q11 18 14 55q0 8 1 16q-11 1 -22 -2q-1 0 -2 -1q-2 -3 -5 -10q-7 -16 -7 -39q0 -20 4 -33zM305 640q-48 12 -73 -3q-21 -13 -30 -50t-7 -100q1 -30 5 -68h8h28h39q12 0 21 -8.5t9 -21t-9 -21.5t-21 -9h-39h-28v0h-2q2 -12 2 -16q9 -75 11 -108
q2 -17 2 -32q21 -10 49 -28q7 -6 28 -21q38 -27 59 -37q29 -15 56 -15q12 0 21 -9t9 -21.5t-9 -21t-21 -8.5q-41 0 -83 21q-25 13 -67 43q-20 14 -27 19q-8 6 -16 10q-4 -49 -22 -79q-23 -39 -68 -44q-21 -3 -37 11q-11 9 -18 25q-10 25 -9 59t11 60q16 38 46 47q19 5 37 4
q0 6 -1 12q-2 33 -11 106q-1 12 -2 19v5q-16 0 -30 1q-13 1 -21 10.5t-7 22t10.5 20.5t21.5 7q10 -1 19 -1q-3 36 -4 65q-2 71 9 117q16 62 60.5 87.5t114.5 9.5q12 -3 18.5 -13.5t3.5 -22.5t-13.5 -18.5t-22.5 -4.5z" />
    <glyph glyph-name="currency" unicode="&#xa4;" horiz-adv-x="466" 
d="M237 249q39 8 64 46q26 39 24 86q-2 45 -30 68q-31 27 -91 15q-38 -9 -58 -44q-20 -34 -15.5 -77.5t31.5 -69.5q28 -27 74 -24h1zM107 530q7 -6 15 -13q7 -6 16 -15l2 -2q23 16 52 22q77 17 129 -17q4 3 14 10q3 2 5 4l10 6q10 7 22 4.5t19 -12.5t4.5 -22.5t-12.5 -19.5
q-4 -2 -8 -5q-2 -1 -5 -3q-4 -4 -7 -6q20 -34 22 -78q2 -66 -34 -120q-3 -6 -6 -10l14 -14l10 -10l10 -10q8 -9 8 -21.5t-8.5 -21t-21 -8.5t-21.5 9q-2 1 -10 9.5t-9 9.5q-10 9 -16 15v1q-27 -17 -58 -22q-3 -1 -7 -1q-55 -3 -96 25q-15 -15 -25 -27q-8 -9 -20 -10.5
t-22 6.5t-11 20.5t7 21.5q12 15 29 33q-22 34 -27 78q-7 63 23 114q2 4 4 7l-3 3l-13 13l-12 10q-10 7 -11.5 19.5t6 22.5t20 11.5t22.5 -6.5z" />
    <glyph glyph-name="yen" unicode="&#xa5;" horiz-adv-x="462" 
d="M111 687q0 -1 5.5 -15.5t11.5 -30t8 -21.5q14 -37 24 -64q31 -78 57 -135h11q7 15 17 36.5t17 35t9 18.5q43 94 62 169q3 12 14 18.5t23 3.5t18 -14t3 -23q-20 -80 -66 -179q-2 -6 -29 -61q15 2 28 7q11 4 22.5 -1.5t15.5 -17.5t-1.5 -23t-17.5 -15q-29 -10 -66 -13
q-6 0 -11 -1q-4 -9 -7 -14q-4 -8 -7 -16q0 -1 -1 -1v-21h43q13 0 21.5 -8.5t8.5 -21t-8.5 -21.5t-21.5 -9h-45q-1 -29 -1 -47q-1 -62 7 -123q2 -12 -5.5 -22t-19.5 -12t-22 5.5t-12 20.5q-9 65 -8 132q0 18 1 48q-42 1 -79 4q-13 1 -21 10.5t-7 22t10.5 20.5t22.5 7
q36 -3 76 -4v25l-12 26q-33 -1 -55 -4q-12 -3 -22.5 4.5t-12.5 19.5t5.5 22.5t19.5 12.5q17 3 38 4q-22 49 -47 114q-11 26 -25 63q-2 6 -8 22t-11.5 30.5t-5.5 15.5q-5 11 0.5 22.5t17 16t22.5 -1t16 -16.5z" />
    <glyph glyph-name="brokenbar" unicode="&#xa6;" horiz-adv-x="206" 
d="M132 290q0 -42 1 -126q1 -83 1 -125q0 -13 -8.5 -21.5t-21 -8.5t-21.5 8.5t-9 21.5q0 41 -1 125q-1 83 -1 126q0 12 9 21t21.5 9t21 -9t8.5 -21zM136 694v-110v-138q0 -13 -8.5 -21.5t-21 -8.5t-21.5 8.5t-9 21.5v138v110q0 13 9 21.5t21.5 8.5t21 -8.5t8.5 -21.5z" />
    <glyph glyph-name="section" unicode="&#xa7;" horiz-adv-x="416" 
d="M252 650q-18 20 -35 20q-16 1 -30 -15q-17 -18 -23 -49q-7 -35 5 -74q4 -14 19 -32q9 -11 27 -28q0 -1 14.5 -14.5t18.5 -17.5q51 -51 74 -95q33 -65 21 -140q-6 -40 -17 -63q-16 -32 -45 -50q12 -17 21 -35q33 -65 21 -140q-6 -40 -17 -63q-20 -41 -62 -59
q-34 -15 -69 -10q-28 4 -54 22q-19 12 -36 31q-9 10 -18 23q-7 10 -5 22t12 19.5t22.5 5.5t19.5 -13q18 -25 38 -38q33 -22 66 -7q21 9 32 30q7 16 12 46q9 56 -16 104q-18 35 -62 79q-4 4 -18 17.5t-15 14.5q-20 19 -31 33q-23 27 -31 53q-15 52 -5.5 102.5t40.5 85.5
q15 18 33 28q-10 10 -17 19q-23 27 -31 53q-15 52 -6 101t38 80q33 36 76.5 34.5t77.5 -40.5q8 -10 7 -22.5t-10 -20.5t-21.5 -7t-20.5 10zM204 395q-17 -1 -33 -19q-20 -23 -26.5 -58.5t4.5 -73.5q4 -14 19 -32q9 -11 27 -28q0 -1 14.5 -14.5t18.5 -17.5q7 -7 13 -14
q21 10 31 30q7 16 12 46q9 56 -16 104q-17 34 -61 78q-1 0 -3 -1z" />
    <glyph glyph-name="dieresis" unicode="&#xa8;" horiz-adv-x="304" 
d="M100 715q18 -7 18 -27q0 -6 -1 -11q-1 -8 -6 -15q-12 -16 -31 -13q-11 2 -18 11q-11 10 -14 30q-2 12 5 22.5t19 12.5q17 3 28 -10zM216 712q18 -8 18 -28q0 -6 -1 -10q-1 -9 -6 -16q-12 -16 -31 -12q-11 1 -18 10q-11 11 -14 30q-2 12 5 22.5t19 12.5q17 3 28 -9z" />
    <glyph glyph-name="copyright" unicode="&#xa9;" horiz-adv-x="606" 
d="M296 148q83 17 134 99q50 82 47 180q-4 98 -62 150q-66 58 -185 32q-80 -18 -122 -95q-40 -73 -30 -164q9 -92 64 -149q59 -61 152 -53h2zM293 88q-118 -8 -194 72q-69 71 -81 184q-11 110 37 199q55 101 162 124q149 33 237 -45q78 -69 83 -193q4 -117 -56 -213
q-67 -108 -179 -128q-5 -1 -9 0zM313 506q-27 16 -44 14q-13 -2 -22 -17q-27 -40 -21 -121t38 -120q12 -15 23 -16q15 -1 35 16q9 8 21.5 7t20.5 -10.5t7 -22t-11 -20.5q-38 -32 -76 -29.5t-67 37.5q-43 54 -50 154q-8 101 29 158q25 37 63 43q40 6 86 -22q10 -7 13 -19
t-3.5 -22.5t-19 -13.5t-22.5 4z" />
    <glyph glyph-name="ordfeminine" unicode="&#xaa;" horiz-adv-x="266" 
d="M151 422q-18 -2 -53 -3h-6h-28q-1 -8 -4 -21q-2 -8 -9 -12.5t-15 -2.5t-12.5 8.5t-2.5 15.5q5 27 16 68q3 15 9 37q1 3 5 19t5 19q4 15 6 26q19 76 28 120q-1 8 4 14.5t13 8.5q10 1 17 -6t6 -17q14 -88 47 -219q2 -7 8 -29q3 -10 5 -17q4 -18 7 -32q1 -8 -3.5 -14.5
t-13 -8t-15 3t-8.5 12.5q-2 12 -6 28v2zM140 461q-1 2 -2 7q-15 62 -29 128q-4 -14 -8 -30q-3 -11 -6 -26q-16 -61 -21 -81h17h6q29 1 43 2z" />
    <glyph glyph-name="guillemotleft" unicode="&#xab;" horiz-adv-x="512" 
d="M241 465q-14 -18 -49 -46q-7 -6 -14 -11q-11 -9 -26 -20l-6 -5q4 -3 10 -5q2 -1 7.5 -3.5t10.5 -4.5l5 -2q30 -14 47 -23q12 -6 21 -12q10 -7 12 -19.5t-5 -22.5t-19.5 -12.5t-22.5 5.5q-6 4 -15 9q-14 7 -42 20q-1 0 -6 2t-10 4.5l-7 3.5q-14 6 -22 10q-26 13 -37 23
q-12 10 -10 25q0 6 3 12q2 4 6 7q2 3 6 6q5 4 16 13q2 1 7 5l10 8l5 3q14 12 25 20q7 5 13 10q30 25 41 38q7 10 19.5 11t22 -6.5t11 -20t-6.5 -22.5zM425 476q-15 -17 -50 -46q-7 -5 -14 -11q-10 -9 -25 -20l-7 -5q5 -2 11 -5l7 -3.5t10 -4.5l5 -2q31 -14 47 -22
q12 -7 21 -13q10 -7 12 -19.5t-5 -22.5t-19 -12t-22 5q-6 4 -16 9q-14 7 -42 20l-5 2q-5 3 -10.5 5t-7.5 3q-13 6 -22 10q-26 13 -37 23t-10 25q1 7 4 12q2 4 5 7q2 3 6 6q5 5 16 13q2 1 7 5t10 7.5t5 4.5q15 11 25 19q7 5 13 10q31 25 41 38q8 10 20 11t22 -6.5t11 -20
t-6 -22.5z" />
    <glyph glyph-name="logicalnot" unicode="&#xac;" horiz-adv-x="462" 
d="M63 404q114 0 217 -1h59q9 -1 15 -1h2h2h1h1q20 0 27 -19q7 -16 5 -69q-1 -43 -4 -64q-1 -12 -11 -19.5t-22.5 -6t-20 11.5t-5.5 22q2 18 3 57q1 16 0 28h-53q-103 1 -216 1q-13 0 -21.5 9t-8.5 21t8.5 21t21.5 9z" />
    <glyph glyph-name="registered" unicode="&#xae;" horiz-adv-x="606" 
d="M230 533q3 -64 5 -142q18 5 27 11.5t15 18.5q15 31 -11 73q-15 25 -36 39zM293 88q-118 -8 -194 72q-69 71 -81 184q-11 110 37 199q55 101 162 124q149 33 237 -45q78 -69 83 -193q4 -117 -56 -213q-67 -108 -179 -128q-5 -1 -9 0zM212 583q25 -5 48.5 -23t39.5 -45
q38 -61 13 -112q-6 -12 -15 -22q10 -6 17 -15q14 -17 23 -44q6 -19 12 -49q1 -5 2 -12q1 -1 1.5 -5.5t1.5 -6.5q6 -31 10 -45q3 -7 -1 -14.5t-11.5 -10t-15 1t-10.5 11.5q-5 16 -12 50q0 1 -1 6l-1 5q-1 7 -2 12q-11 57 -27 75q-8 10 -18 12q-13 2 -31 -5q1 -44 0 -134v-47
q0 -8 -6 -14q30 -7 65 -4h2q83 17 134 99q50 82 47 180q-4 98 -62 150q-66 58 -185 32q-80 -18 -122 -95q-40 -73 -30 -164q9 -92 64 -149q24 -24 54 -38q-1 2 -1 3v47q1 96 0 144q-1 116 -7 201q0 5 1 9q2 8 8.5 12.5t14.5 3.5z" />
    <glyph glyph-name="macron" unicode="&#xaf;" horiz-adv-x="373" 
d="M39 709q27 2 79 3h1q97 3 151 10q12 2 22 -5.5t11.5 -19.5t-6 -22t-19.5 -12q-57 -8 -157 -11h-2q-50 -1 -77 -3q-12 -1 -21.5 7.5t-10 21t7.5 21.5t21 10z" />
    <glyph glyph-name="degree" unicode="&#xb0;" horiz-adv-x="328" 
d="M150 510q26 6 42 32q18 28 16 62q-1 32 -19 48q-20 18 -59 10q-25 -6 -39 -30q-13 -25 -10 -56t21 -49q18 -19 48 -17zM151 460q-51 -3 -85 32q-30 31 -35 79q-4 47 16 85q25 44 72 54q64 15 103 -20q34 -31 36 -84q2 -49 -23 -90q-29 -47 -79 -55q-2 -1 -5 -1z" />
    <glyph glyph-name="plusminus" unicode="&#xb1;" horiz-adv-x="444" 
d="M107 448q28 2 80 3h1h6v46q-1 40 -8 70q-2 12 4.5 22.5t19 13t23 -4t12.5 -18.5q8 -36 9 -82v-44q46 2 86 7q13 2 22.5 -5.5t11.5 -19.5t-5.5 -22t-19.5 -12q-45 -6 -97 -9q-1 -35 -1 -57q1 -40 6 -69q2 -12 -5 -22.5t-19 -13t-22.5 4.5t-12.5 20q-6 34 -7 79q0 23 1 56
h-2h-1q-51 -1 -78 -3q-12 0 -21.5 8t-10.5 20.5t7.5 21.5t20.5 10zM105 202q28 2 80 3h1q98 3 152 10q13 2 22.5 -5.5t11.5 -19.5t-5.5 -22t-19.5 -12q-58 -8 -159 -11h-1q-51 -1 -78 -3q-12 0 -21.5 8t-10.5 20.5t7.5 21.5t20.5 10z" />
    <glyph glyph-name="uni00B2" unicode="&#xb2;" horiz-adv-x="266" 
d="M37 650q3 24 23 38q14 10 30 13q24 5 41 -7q16 -12 22 -35q5 -16 4 -39q-1 -37 -14 -92q-6 -25 -15 -55q-7 -26 -19 -62h6q34 0 51 4q10 3 19 -2.5t11.5 -15.5t-3 -19t-16.5 -11q-22 -6 -61 -6q-18 0 -29 1q-8 1 -13 2q-4 1 -7 3q-8 3 -12 10q-5 8 -4 18q1 2 1 4
q1 2 2.5 6.5l6.5 19.5q12 37 19 62q9 29 14 53q12 50 13 81q1 16 -2 25q-1 4 -2 6v1q-1 0 -3 -1q-6 -1 -11 -5q-2 -1 -3 -4q-1 -11 -9.5 -17t-18.5 -4.5t-16.5 10t-4.5 18.5z" />
    <glyph glyph-name="uni00B3" unicode="&#xb3;" horiz-adv-x="265" 
d="M56 692q17 9 39 6q14 -2 30 -10q34 -15 43 -58.5t-13 -72.5q7 -8 14 -18q5 -6 9 -14q37 -66 0 -124q-16 -26 -44.5 -40.5t-61.5 -12.5q-10 0 -17 7.5t-6.5 18t8 17.5t17.5 7q42 -2 62 30q21 32 -2 72q-3 6 -6 11q-9 12 -19 19l-4 2q-19 5 -18.5 25t19.5 24h4q11 8 10 30
q-1 25 -15 32q-10 4 -17 5q-4 1 -6 0h-2q-9 -5 -19 -2t-15 12.5t-2 19t12 14.5z" />
    <glyph glyph-name="acute" unicode="&#xb4;" horiz-adv-x="256" 
d="M182 672q-1 -1 -7 -10t-7 -11q-18 -26 -33 -38q-8 -7 -18 -6t-16.5 9t-5.5 18t8 16q10 9 25 29q1 2 7 11t7 10q6 9 16 10.5t18.5 -4.5t10 -16t-4.5 -18z" />
    <glyph glyph-name="periodcentered" unicode="&#xb7;" horiz-adv-x="209" 
d="M121 390q18 -8 18 -28q0 -6 -1 -10q-1 -9 -6 -16q-12 -16 -31 -12q-11 1 -18 10q-11 11 -14 30q-2 12 5 22.5t19 12.5q17 3 28 -9z" />
    <glyph glyph-name="cedilla" unicode="&#xb8;" horiz-adv-x="299" 
d="M167 41v-15v-19v-8q17 -1 28 -11q37 -32 34 -87q-2 -28 -15 -49.5t-36 -30.5q-35 -14 -58 -13q-37 2 -60 36q-6 10 -4 21t11.5 17.5t20.5 4t18 -11.5q7 -11 17 -12q11 0 34 9q16 6 17 32t-13 40q-1 0 -3 1h-10q-10 2 -17 6q-10 6 -14 18q-2 6 -3 13q-2 9 -2 24v21v7v2
q-1 11 6.5 20t18.5 10t20 -6.5t10 -18.5z" />
    <glyph glyph-name="uni00B9" unicode="&#xb9;" horiz-adv-x="180" 
d="M108 658q-2 -3 -3 -14q-1 -12 -1 -31q-1 -35 0 -86q2 -108 6 -130q2 -10 -3.5 -19t-16 -11t-19 4t-10.5 16q-5 26 -7 139q-3 123 7 149q3 10 12.5 14t19 0.5t14 -12.5t1.5 -19z" />
    <glyph glyph-name="ordmasculine" unicode="&#xba;" horiz-adv-x="328" 
d="M150 510q26 6 42 32q18 28 16 62q-1 32 -19 48q-20 18 -59 10q-25 -6 -39 -30q-13 -25 -10 -56t21 -49q18 -19 48 -17zM151 460q-51 -3 -85 32q-30 31 -35 79q-4 47 16 85q25 44 72 54q64 15 103 -20q34 -31 36 -84q2 -49 -23 -90q-29 -47 -79 -55q-2 -1 -5 -1z" />
    <glyph glyph-name="guillemotright" unicode="&#xbb;" horiz-adv-x="513" 
d="M74 320q16 16 51 40q8 5 17 11q12 7 28 17q1 1 8 5q-5 2 -10 6l-7 3.5t-9.5 5.5t-5.5 3q-12 7 -20 12q-29 17 -44 30q-9 8 -10 20t7 21.5t20.5 10.5t21.5 -7q11 -9 36 -24q7 -4 19 -11l5 -3q5 -2 10 -5t7 -4q12 -7 20 -12q25 -15 35 -26q10 -12 7 -27q-1 -6 -5 -11
q-2 -4 -5 -7q-3 -2 -7 -5q-6 -4 -18 -11q-2 -2 -7 -5t-10.5 -6t-5.5 -4q-15 -9 -27 -17q-10 -6 -16 -10q-31 -21 -42 -32q-9 -9 -21.5 -9t-21 9t-8.5 21t8 21zM261 327q15 17 50 43q8 6 16 11q10 8 26 19q1 0 2 1t2.5 2t2.5 2l-10 5l-7 3.5l-10 5t-5 3.5q-18 8 -29 14
q-24 13 -37 24q-10 7 -11.5 19.5t6 22t20 11.5t21.5 -6q10 -7 30 -18q10 -5 27 -14l5 -3q5 -2 10 -4.5l7 -3.5q13 -7 22 -11q25 -14 36 -24q10 -11 8 -26q-1 -7 -4 -12q-2 -4 -6 -7l-6 -6q-5 -4 -17 -12q-2 -1 -7 -4.5l-10 -7t-6 -3.5q-15 -11 -25 -18q-8 -6 -15 -11
q-30 -23 -41 -35q-8 -9 -20.5 -10t-22 7.5t-10 21t7.5 21.5z" />
    <glyph glyph-name="onequarter" unicode="&#xbc;" horiz-adv-x="610" 
d="M385 417q10 -62 8 -113v-11q6 1 8 1q30 5 60 7q-2 75 -6 130q-1 11 5.5 18.5t17 8.5t18.5 -5.5t9 -17.5q4 -56 6 -133h5q10 0 17.5 -7t7.5 -17.5t-7.5 -18t-17.5 -7.5h-2.5h-2.5q1 -37 0 -109v-66q0 -10 -7.5 -17.5t-17.5 -7.5t-17.5 7.5t-7.5 17.5v67q1 71 0 107
q-26 -2 -53 -6q-2 0 -8 -1l-6 -1q-8 -1 -12 -2q-8 0 -14 1q-11 2 -18 10q-6 7 -7 17q-1 5 -1 12q0 1 0.5 11.5t1.5 13.5q1 46 -8 103q-2 10 4 18.5t16.5 10.5t18.5 -4t10 -17zM364 626l-16 -42q-13 -34 -24 -62q-33 -88 -60 -158l-6 -16q-73 -190 -99 -244q-5 -11 -17 -15
t-23 1t-15 17t1 23q25 52 97 239q3 8 6 17q27 69 60 157q11 28 24 62q13 36 15 42q5 12 16.5 17t23 1t16.5 -15.5t1 -23.5zM128 630q-2 -3 -3 -14q-1 -12 -1 -31q-1 -35 0 -86q2 -108 6 -130q2 -10 -3.5 -19t-16 -11t-19 4t-10.5 16q-5 26 -7 139q-3 123 7 149q3 10 12.5 14
t19 0.5t14 -12.5t1.5 -19z" />
    <glyph glyph-name="onehalf" unicode="&#xbd;" horiz-adv-x="561" 
d="M364 626l-16 -42q-13 -34 -24 -62q-33 -88 -60 -158l-6 -16q-73 -190 -99 -244q-5 -11 -17 -15t-23 1t-15 17t1 23q25 52 97 239q3 8 6 17q27 69 60 157q11 28 24 62q13 36 15 42q5 12 16.5 17t23 1t16.5 -15.5t1 -23.5zM128 630q-2 -3 -3 -14q-1 -12 -1 -31
q-1 -35 0 -86q2 -108 6 -130q2 -10 -3.5 -19t-16 -11t-19 4t-10.5 16q-5 26 -7 139q-3 123 7 149q3 10 12.5 14t19 0.5t14 -12.5t1.5 -19zM332 405q3 24 23 38q14 10 30 13q24 5 41 -7q16 -12 22 -35q5 -16 4 -39q-1 -37 -14 -92q-6 -25 -15 -55q-7 -26 -19 -62h6q34 0 51 4
q10 3 19 -2.5t11.5 -15.5t-3 -19t-16.5 -11q-22 -6 -61 -6q-18 0 -29 1q-8 1 -13 2q-4 1 -7 3q-8 3 -12 10q-5 8 -4 18q1 2 1 4q1 2 2.5 6.5l6.5 19.5q12 37 19 62q9 29 14 53q12 50 13 81q1 16 -2 25q-1 4 -2 6v1q-1 0 -3 -1q-6 -1 -11 -5q-2 -1 -3 -4q-1 -11 -9.5 -17
t-18.5 -4.5t-16.5 10t-4.5 18.5z" />
    <glyph glyph-name="threequarters" unicode="&#xbe;" horiz-adv-x="610" 
d="M385 417q10 -62 8 -113v-11q6 1 8 1q30 5 60 7q-2 75 -6 130q-1 11 5.5 18.5t17 8.5t18.5 -5.5t9 -17.5q4 -56 6 -133h5q10 0 17.5 -7t7.5 -17.5t-7.5 -18t-17.5 -7.5h-2.5h-2.5q1 -37 0 -109v-66q0 -10 -7.5 -17.5t-17.5 -7.5t-17.5 7.5t-7.5 17.5v67q1 71 0 107
q-26 -2 -53 -6q-2 0 -8 -1l-6 -1q-8 -1 -12 -2q-8 0 -14 1q-11 2 -18 10q-6 7 -7 17q-1 5 -1 12q0 1 0.5 11.5t1.5 13.5q1 46 -8 103q-2 10 4 18.5t16.5 10.5t18.5 -4t10 -17zM364 626l-16 -42q-13 -34 -24 -62q-33 -88 -60 -158l-6 -16q-73 -190 -99 -244q-5 -11 -17 -15
t-23 1t-15 17t1 23q25 52 97 239q3 8 6 17q27 69 60 157q11 28 24 62q13 36 15 42q5 12 16.5 17t23 1t16.5 -15.5t1 -23.5zM56 692q17 9 39 6q14 -2 30 -10q34 -15 43 -58.5t-13 -72.5q7 -8 14 -18q5 -6 9 -14q37 -66 0 -124q-16 -26 -44.5 -40.5t-61.5 -12.5q-10 0 -17 7.5
t-6.5 18t8 17.5t17.5 7q42 -2 62 30q21 32 -2 72q-3 6 -6 11q-9 12 -19 19l-4 2q-19 5 -18.5 25t19.5 24h4q11 8 10 30q-1 25 -15 32q-10 4 -17 5q-4 1 -6 0h-2q-9 -5 -19 -2t-15 12.5t-2 19t12 14.5z" />
    <glyph glyph-name="questiondown" unicode="&#xbf;" horiz-adv-x="446" 
d="M230 542q18 -7 18 -27q0 -6 -1 -11q-1 -8 -6 -15q-12 -16 -31 -13q-11 2 -18 11q-11 10 -14 30q-2 12 5 22.5t19 12.5q16 3 28 -10zM373 -85q-1 -2 -2 -5q-9 -19 -15 -29q-11 -18 -30 -35q-30 -28 -60.5 -40t-71.5 -12t-73 27q-26 23 -42 61q-14 34 -16.5 72t7.5 69
q8 22 24 47q10 14 30 38l2 2l1 2q2 2 3 4q33 40 39 64q12 41 16 99q3 39 2 106q0 12 9 21t21.5 9t21 -9t8.5 -21q1 -69 -2 -110q-5 -64 -18 -111q-6 -23 -22 -47q-9 -16 -29 -39q-1 -2 -3 -4l-1 -2l-2 -2q-35 -43 -43 -67q-7 -19 -5 -46.5t12 -51.5q22 -51 60 -51
q30 0 50 7.5t42 28.5q12 11 19 23q4 6 11 21q2 4 3 7q5 11 17 15t23 -1t15.5 -17t-1.5 -23z" />
    <glyph glyph-name="Agrave" unicode="&#xc0;" 
d="M375 109q-1 0 -2 -1q-41 -4 -127 -5q-4 0 -12 -1q-51 -1 -74 -2q-7 -30 -12 -56q-3 -12 -13.5 -19t-22.5 -4.5t-19 13t-4 22.5q12 60 35 152q9 34 21 83q2 7 11 42.5t11 42.5q8 33 15 58q43 171 62 272v1q-2 13 5.5 22.5t19.5 11.5q16 3 26 -9q12 -11 10 -27
q30 -197 104 -491q4 -17 18 -65q6 -25 10 -40q11 -40 16 -69q2 -12 -5 -22t-19.5 -12.5t-22.5 5t-12 19.5q-5 27 -15 64q-1 7 -4 15zM359 167q-4 17 -8 32q-44 176 -79 351q-13 -56 -32 -131q-6 -25 -15 -57q-2 -8 -11 -43.5t-11 -42.5q-12 -49 -21 -82q-4 -18 -8 -33
q19 1 59 1q8 0 12 1q78 1 114 4zM244 852q2 -1 9.5 -8t9.5 -8q24 -22 35 -38q6 -10 3.5 -20.5t-11.5 -16.5t-20 -4t-17 12q-7 11 -26 28q-1 1 -8.5 7.5t-9.5 8.5q-8 7 -8.5 18t6.5 19.5t18 9t19 -7.5z" />
    <glyph glyph-name="Aacute" unicode="&#xc1;" 
d="M375 109q-1 0 -2 -1q-41 -4 -127 -5q-4 0 -12 -1q-51 -1 -74 -2q-7 -30 -12 -56q-3 -12 -13.5 -19t-22.5 -4.5t-19 13t-4 22.5q12 60 35 152q9 34 21 83q2 7 11 42.5t11 42.5q8 33 15 58q43 171 62 272v1q-2 13 5.5 22.5t19.5 11.5q16 3 26 -9q12 -11 10 -27
q30 -197 104 -491q4 -17 18 -65q6 -25 10 -40q11 -40 16 -69q2 -12 -5 -22t-19.5 -12.5t-22.5 5t-12 19.5q-5 27 -15 64q-1 7 -4 15zM359 167q-4 17 -8 32q-44 176 -79 351q-13 -56 -32 -131q-6 -25 -15 -57q-2 -8 -11 -43.5t-11 -42.5q-12 -49 -21 -82q-4 -18 -8 -33
q19 1 59 1q8 0 12 1q78 1 114 4zM340 828q-1 -2 -7 -10.5t-8 -10.5q-19 -25 -34 -38q-8 -6 -19 -5t-18 9.5t-6 19.5t10 18q10 8 25 28q1 1 7 10t8 10q6 9 17 11t19.5 -4.5t10.5 -17.5t-5 -20z" />
    <glyph glyph-name="Acircumflex" unicode="&#xc2;" 
d="M375 109q-1 0 -2 -1q-41 -4 -127 -5q-4 0 -12 -1q-51 -1 -74 -2q-7 -30 -12 -56q-3 -12 -13.5 -19t-22.5 -4.5t-19 13t-4 22.5q12 60 35 152q9 34 21 83q2 7 11 42.5t11 42.5q8 33 15 58q43 171 62 272v1q-2 13 5.5 22.5t19.5 11.5q16 3 26 -9q12 -11 10 -27
q30 -197 104 -491q4 -17 18 -65q6 -25 10 -40q11 -40 16 -69q2 -12 -5 -22t-19.5 -12.5t-22.5 5t-12 19.5q-5 27 -15 64q-1 7 -4 15zM359 167q-4 17 -8 32q-44 176 -79 351q-13 -56 -32 -131q-6 -25 -15 -57q-2 -8 -11 -43.5t-11 -42.5q-12 -49 -21 -82q-4 -18 -8 -33
q19 1 59 1q8 0 12 1q78 1 114 4zM197 802q13 34 37 79q2 4 5 8q14 20 36 19q17 -1 31 -17q12 -14 26 -48q0 -2 2 -6t3.5 -8t2.5 -7l1 -3q5 -11 7 -15q5 -10 2 -21t-13.5 -16.5t-21 -2t-16.5 13.5q-3 6 -9 20l-2 5q-2 5 -4 10.5t-3 8.5q-4 9 -7 16q-16 -30 -25 -55
q-4 -11 -14.5 -15.5t-21.5 -0.5t-15.5 14.5t-0.5 20.5z" />
    <glyph glyph-name="Atilde" unicode="&#xc3;" 
d="M375 109q-1 0 -2 -1q-41 -4 -127 -5q-4 0 -12 -1q-51 -1 -74 -2q-7 -30 -12 -56q-3 -12 -13.5 -19t-22.5 -4.5t-19 13t-4 22.5q12 60 35 152q9 34 21 83q2 7 11 42.5t11 42.5q8 33 15 58q43 171 62 272v1q-2 13 5.5 22.5t19.5 11.5q16 3 26 -9q12 -11 10 -27
q30 -197 104 -491q4 -17 18 -65q6 -25 10 -40q11 -40 16 -69q2 -12 -5 -22t-19.5 -12.5t-22.5 5t-12 19.5q-5 27 -15 64q-1 7 -4 15zM359 167q-4 17 -8 32q-44 176 -79 351q-13 -56 -32 -131q-6 -25 -15 -57q-2 -8 -11 -43.5t-11 -42.5q-12 -49 -21 -82q-4 -18 -8 -33
q19 1 59 1q8 0 12 1q78 1 114 4zM149 840q15 28 36 37q21 10 46 0q11 -5 24 -16q7 -6 19 -17q19 -19 26 -22q3 3 7 8l3 3l1 1q1 1 1 2q4 3 6 6q5 6 9 10q8 8 19.5 8t19.5 -8t8 -19.5t-8 -19.5q-3 -3 -7 -8l-5 -5q-1 -1 -1.5 -2t-1.5 -1q-1 -2 -2 -3q-7 -8 -12 -13
q-27 -27 -62 -8q-10 5 -21 15q-6 5 -18 16q-20 19 -27 22l-1 1h-1q-1 -1 -3 -2q-3 -4 -7 -11q-6 -10 -16.5 -13.5t-20.5 2t-13.5 16.5t2.5 21z" />
    <glyph glyph-name="Adieresis" unicode="&#xc4;" 
d="M375 109q-1 0 -2 -1q-41 -4 -127 -5q-4 0 -12 -1q-51 -1 -74 -2q-7 -30 -12 -56q-3 -12 -13.5 -19t-22.5 -4.5t-19 13t-4 22.5q12 60 35 152q9 34 21 83q2 7 11 42.5t11 42.5q8 33 15 58q43 171 62 272v1q-2 13 5.5 22.5t19.5 11.5q16 3 26 -9q12 -11 10 -27
q30 -197 104 -491q4 -17 18 -65q6 -25 10 -40q11 -40 16 -69q2 -12 -5 -22t-19.5 -12.5t-22.5 5t-12 19.5q-5 27 -15 64q-1 7 -4 15zM359 167q-4 17 -8 32q-44 176 -79 351q-13 -56 -32 -131q-6 -25 -15 -57q-2 -8 -11 -43.5t-11 -42.5q-12 -49 -21 -82q-4 -18 -8 -33
q19 1 59 1q8 0 12 1q78 1 114 4zM226 853q18 -8 18 -28q0 -5 -1 -10q-1 -9 -6 -15q-12 -17 -31 -13q-11 2 -18 10q-11 11 -14 31q-2 12 5 22t19 12q16 3 28 -9zM331 857q18 -8 18 -28q0 -6 -1 -10q-1 -9 -6 -16q-11 -16 -31 -12q-10 2 -18 10q-10 11 -14 30q-2 12 5 22.5
t19 12.5q17 3 28 -9z" />
    <glyph glyph-name="Aring" unicode="&#xc5;" 
d="M375 109q-1 0 -2 -1q-41 -4 -127 -5q-4 0 -12 -1q-51 -1 -74 -2q-7 -30 -12 -56q-3 -12 -13.5 -19t-22.5 -4.5t-19 13t-4 22.5q12 60 35 152q9 34 21 83q2 7 11 42.5t11 42.5q8 33 15 58q43 171 62 272v1q-2 13 5.5 22.5t19.5 11.5q16 3 26 -9q12 -11 10 -27
q30 -197 104 -491q4 -17 18 -65q6 -25 10 -40q11 -40 16 -69q2 -12 -5 -22t-19.5 -12.5t-22.5 5t-12 19.5q-5 27 -15 64q-1 7 -4 15zM359 167q-4 17 -8 32q-44 176 -79 351q-13 -56 -32 -131q-6 -25 -15 -57q-2 -8 -11 -43.5t-11 -42.5q-12 -49 -21 -82q-4 -18 -8 -33
q19 1 59 1q8 0 12 1q78 1 114 4zM277 811q10 3 17 15.5t7 27.5q-1 14 -8 20t-24 3q-10 -3 -15 -12q-6 -11 -4 -26q1 -14 9 -22q6 -7 18 -6zM279 761q-34 -2 -56 22q-20 20 -23 51q-4 33 12 59t46 32q42 10 69 -14q22 -20 24 -55q1 -32 -15 -58q-19 -31 -52 -36q-3 -1 -5 -1z
" />
    <glyph glyph-name="AE" unicode="&#xc6;" horiz-adv-x="673" 
d="M359 167q-4 17 -8 32q-44 176 -79 351q-13 -56 -32 -131q-6 -25 -15 -57q-2 -8 -11 -43.5t-11 -42.5q-12 -49 -21 -82q-4 -18 -8 -33q19 1 59 1q8 0 12 1q78 1 114 4zM423 715q38 7 73 4q44 -4 75 -25q11 -7 13.5 -19t-4.5 -22.5t-19.5 -13t-22.5 4.5q-29 19 -81 15v-2
q-1 -9 -1 -23q-1 -27 -2 -72q-2 -61 -3 -139q8 1 21 2q8 1 11 1q26 3 50 -3q12 -3 18.5 -13.5t4 -22.5t-13 -18.5t-22.5 -3.5q-15 3 -31 1q-3 0 -10 -1q-17 -2 -28 -2q-1 -6 -1 -12q-1 -125 0 -207q0 -45 1 -70v-9q16 -2 43 -1q23 0 47 2q10 1 17 2q6 0 8 1q12 3 22.5 -3.5
t13.5 -19t-3.5 -23t-18.5 -13.5q-23 -5 -85 -6q-31 -1 -51 1q-6 1 -11 2l-4 -2q-13 -2 -23 5.5t-12 19.5q-5 27 -15 64q-1 7 -4 15q-1 0 -2 -1q-41 -4 -127 -5q-4 0 -12 -1q-51 -1 -74 -2q-7 -30 -12 -56q-3 -12 -13.5 -19t-22.5 -4.5t-19 13t-4 22.5q12 60 35 152
q9 34 21 83q2 7 11 42.5t11 42.5q8 33 15 58q43 171 62 272v1q-2 13 5.5 22.5t19.5 11.5q16 3 26 -9q12 -11 10 -27q24 -157 85 -412v59q2 119 4 211q2 100 5 112v3t-1 2q-2 13 5 23t20 12z" />
    <glyph glyph-name="Ccedilla" unicode="&#xc7;" horiz-adv-x="433" 
d="M325 652q-13 4 -55 -2t-58 -15q-59 -30 -88 -123q-29 -92 -14 -199q15 -110 69 -178q58 -73 146 -73q12 0 21 -9t9 -21t-9 -21t-21 -9q-34 0 -66 9v-2v-8q17 -1 28 -11q37 -32 34 -87q-2 -28 -15 -49.5t-36 -30.5q-35 -14 -58 -13q-37 2 -60 36q-6 10 -4 21t11.5 17.5
t20.5 4t18 -11.5q7 -11 17 -12q11 0 34 9q16 6 17 32t-13 40q-1 0 -3 1h-10q-10 2 -17 6q-10 6 -14 18q-2 6 -3 13q-2 9 -2 24v21v5q-40 24 -72 64q-65 81 -82 207q-16 120 17 225q36 116 117 159q25 13 78 20q54 8 79 1q12 -3 18.5 -14t3 -23t-14.5 -18t-23 -3z" />
    <glyph glyph-name="Egrave" unicode="&#xc8;" horiz-adv-x="375" 
d="M125 711q38 7 73 4q44 -4 75 -25q11 -7 13.5 -19t-4.5 -22.5t-19.5 -13t-22.5 4.5q-29 19 -81 15v-2q-1 -9 -1 -23q-1 -27 -2 -72q-2 -61 -3 -139q8 1 21 2q8 1 11 1q26 3 50 -3q12 -3 18.5 -13.5t4 -22.5t-13 -18.5t-22.5 -3.5q-15 3 -31 1q-3 0 -10 -1q-17 -2 -28 -2
q-1 -6 -1 -12q-1 -125 0 -207q0 -45 1 -70v-9q16 -2 43 -1q23 0 47 2q10 1 17 2q6 0 8 1q12 3 22.5 -3.5t13.5 -19t-3.5 -23t-18.5 -13.5q-23 -5 -85 -6q-31 -1 -51 1q-13 1 -22 4q-6 2 -11 5q-10 6 -15 15q-3 7 -4 21q-1 8 -1 22q-1 26 -1 71q-1 83 0 209q2 118 4 211
q2 100 5 112v3t-1 2q-2 13 5 23t20 12zM156 829q2 -1 9.5 -8t8.5 -8q24 -22 35 -39q6 -9 4 -19.5t-11.5 -16.5t-20 -4t-16.5 11q-7 11 -26 28q-1 1 -9 8t-10 9q-8 7 -8.5 18t7 19t18.5 8.5t19 -6.5z" />
    <glyph glyph-name="Eacute" unicode="&#xc9;" horiz-adv-x="375" 
d="M125 711q38 7 73 4q44 -4 75 -25q11 -7 13.5 -19t-4.5 -22.5t-19.5 -13t-22.5 4.5q-29 19 -81 15v-2q-1 -9 -1 -23q-1 -27 -2 -72q-2 -61 -3 -139q8 1 21 2q8 1 11 1q26 3 50 -3q12 -3 18.5 -13.5t4 -22.5t-13 -18.5t-22.5 -3.5q-15 3 -31 1q-3 0 -10 -1q-17 -2 -28 -2
q-1 -6 -1 -12q-1 -125 0 -207q0 -45 1 -70v-9q16 -2 43 -1q23 0 47 2q10 1 17 2q6 0 8 1q12 3 22.5 -3.5t13.5 -19t-3.5 -23t-18.5 -13.5q-23 -5 -85 -6q-31 -1 -51 1q-13 1 -22 4q-6 2 -11 5q-10 6 -15 15q-3 7 -4 21q-1 8 -1 22q-1 26 -1 71q-1 83 0 209q2 118 4 211
q2 100 5 112v3t-1 2q-2 13 5 23t20 12zM244 800q-1 -2 -7 -10.5t-8 -10.5q-19 -25 -34 -38q-8 -6 -19 -5t-18 9.5t-6 19.5t10 18q10 8 25 28q1 1 7 10t8 10q6 9 17 11t19.5 -4.5t10.5 -17.5t-5 -20z" />
    <glyph glyph-name="Ecircumflex" unicode="&#xca;" horiz-adv-x="375" 
d="M125 711q38 7 73 4q44 -4 75 -25q11 -7 13.5 -19t-4.5 -22.5t-19.5 -13t-22.5 4.5q-29 19 -81 15v-2q-1 -9 -1 -23q-1 -27 -2 -72q-2 -61 -3 -139q8 1 21 2q8 1 11 1q26 3 50 -3q12 -3 18.5 -13.5t4 -22.5t-13 -18.5t-22.5 -3.5q-15 3 -31 1q-3 0 -10 -1q-17 -2 -28 -2
q-1 -6 -1 -12q-1 -125 0 -207q0 -45 1 -70v-9q16 -2 43 -1q23 0 47 2q10 1 17 2q6 0 8 1q12 3 22.5 -3.5t13.5 -19t-3.5 -23t-18.5 -13.5q-23 -5 -85 -6q-31 -1 -51 1q-13 1 -22 4q-6 2 -11 5q-10 6 -15 15q-3 7 -4 21q-1 8 -1 22q-1 26 -1 71q-1 83 0 209q2 118 4 211
q2 100 5 112v3t-1 2q-2 13 5 23t20 12zM99 786q13 34 37 79q2 4 5 8q14 20 36 19q17 -1 31 -17q12 -14 26 -48q0 -2 2 -6t3.5 -8t2.5 -7l1 -3q5 -11 7 -15q5 -10 2 -21t-13.5 -16.5t-21 -2t-16.5 13.5q-3 6 -9 20l-2 5q-2 5 -4 10.5t-3 8.5q-4 9 -7 16q-16 -30 -25 -55
q-4 -11 -14.5 -15.5t-21.5 -0.5t-15.5 14.5t-0.5 20.5z" />
    <glyph glyph-name="Edieresis" unicode="&#xcb;" horiz-adv-x="375" 
d="M150 815q18 -8 18 -28q0 -5 -1 -10q-1 -9 -6 -15q-12 -17 -31 -13q-11 2 -18 10q-11 11 -14 31q-2 12 5 22t19 12q16 3 28 -9zM254 813q18 -8 18 -28q0 -5 -1 -10q-1 -9 -6 -15q-12 -17 -31 -13q-11 2 -18 10q-11 11 -14 31q-2 12 5 22t19 12q16 3 28 -9zM125 711
q38 7 73 4q44 -4 75 -25q11 -7 13.5 -19t-4.5 -22.5t-19.5 -13t-22.5 4.5q-29 19 -81 15v-2q-1 -9 -1 -23q-1 -27 -2 -72q-2 -61 -3 -139q8 1 21 2q8 1 11 1q26 3 50 -3q12 -3 18.5 -13.5t4 -22.5t-13 -18.5t-22.5 -3.5q-15 3 -31 1q-3 0 -10 -1q-17 -2 -28 -2q-1 -6 -1 -12
q-1 -125 0 -207q0 -45 1 -70v-9q16 -2 43 -1q23 0 47 2q10 1 17 2q6 0 8 1q12 3 22.5 -3.5t13.5 -19t-3.5 -23t-18.5 -13.5q-23 -5 -85 -6q-31 -1 -51 1q-13 1 -22 4q-6 2 -11 5q-10 6 -15 15q-3 7 -4 21q-1 8 -1 22q-1 26 -1 71q-1 83 0 209q2 118 4 211q2 100 5 112v3
t-1 2q-2 13 5 23t20 12z" />
    <glyph glyph-name="Igrave" unicode="&#xcc;" horiz-adv-x="228" 
d="M147 672q0 -33 -5 -173q-3 -86 -4 -141q-5 -247 19 -320q4 -11 -2 -22t-17.5 -15t-22.5 1.5t-15 17.5q-27 82 -22 339q1 56 4 142q5 139 5 171q0 13 8.5 21.5t21 8.5t21.5 -8.5t9 -21.5zM84 834q2 -1 9.5 -8t9.5 -8q24 -22 35 -38q6 -10 3.5 -20.5t-11.5 -16.5t-20 -4
t-17 12q-7 11 -26 28q-1 1 -8.5 7.5t-9.5 8.5q-8 7 -8.5 18t6.5 19.5t18 9t19 -7.5z" />
    <glyph glyph-name="Iacute" unicode="&#xcd;" horiz-adv-x="263" 
d="M147 672q0 -33 -5 -173q-3 -86 -4 -141q-5 -247 19 -320q4 -11 -2 -22t-17.5 -15t-22.5 1.5t-15 17.5q-27 82 -22 339q1 56 4 142q5 139 5 171q0 13 8.5 21.5t21 8.5t21.5 -8.5t9 -21.5zM188 802q-1 -2 -7 -10.5t-8 -10.5q-19 -25 -34 -38q-8 -6 -19 -5t-18 9.5t-6 19.5
t10 18q10 8 25 28q1 1 7 10t8 10q6 9 17 11t19.5 -4.5t10.5 -17.5t-5 -20z" />
    <glyph glyph-name="Icircumflex" unicode="&#xce;" horiz-adv-x="265" 
d="M147 672q0 -33 -5 -173q-3 -86 -4 -141q-5 -247 19 -320q4 -11 -2 -22t-17.5 -15t-22.5 1.5t-15 17.5q-27 82 -22 339q1 56 4 142q5 139 5 171q0 13 8.5 21.5t21 8.5t21.5 -8.5t9 -21.5zM41 766q13 34 37 79q2 4 5 8q14 20 36 19q17 -1 31 -17q12 -14 26 -48q0 -2 2 -6
t3.5 -8t2.5 -7l1 -3q5 -11 7 -15q5 -10 2 -21t-13.5 -16.5t-21 -2t-16.5 13.5q-3 6 -9 20l-2 5q-2 5 -4 10.5t-3 8.5q-4 9 -7 16q-16 -30 -25 -55q-4 -11 -14.5 -15.5t-21.5 -0.5t-15.5 14.5t-0.5 20.5z" />
    <glyph glyph-name="Idieresis" unicode="&#xcf;" horiz-adv-x="273" 
d="M92 807q18 -8 18 -28q0 -5 -1 -10q-1 -9 -6 -15q-12 -17 -31 -13q-11 2 -18 10q-11 11 -14 31q-2 12 5 22t19 12q16 3 28 -9zM186 805q18 -8 18 -28q0 -5 -1 -10q-1 -9 -6 -15q-12 -17 -31 -13q-11 2 -18 10q-11 11 -14 31q-2 12 5 22t19 12q16 3 28 -9zM147 672
q0 -33 -5 -173q-3 -86 -4 -141q-5 -247 19 -320q4 -11 -2 -22t-17.5 -15t-22.5 1.5t-15 17.5q-27 82 -22 339q1 56 4 142q5 139 5 171q0 13 8.5 21.5t21 8.5t21.5 -8.5t9 -21.5z" />
    <glyph glyph-name="Ntilde" unicode="&#xd1;" horiz-adv-x="486" 
d="M75 4q0 25 -1 68q-4 169 -4 249q1 92 5 171v5q2 36 3 53q2 41 2 72q0 22 1 47v15q1 2 1 4v2q0 15 12.5 23t26.5 4q13 -4 24 -20q6 -8 14 -23q13 -26 34 -72q35 -81 86 -213q35 -93 69 -187q-3 73 -3 163v113v112v8v3v5v2q1 34 0 55q0 15 -1.5 27.5t6.5 22t20.5 10.5
t22 -7t10.5 -20q1 -14 2 -31q1 -23 0 -58v-3v-4v-3v-7v-112v-113q0 -137 8 -244q4 -45 4 -126q0 -12 -9 -21t-21 -9q-20 0 -28 18q-2 4 -3 8q-26 97 -133 377q-49 128 -84 207q0 -13 -1 -28q-1 -17 -3 -53v-6q-4 -77 -5 -167q0 -80 4 -247q1 -44 1 -68q0 -13 -8.5 -22
t-21 -9t-21.5 8.5t-9 20.5zM115 827q17 31 39 41q24 11 51 0q12 -6 27 -17q7 -7 21 -20q21 -20 28 -24q4 3 9 9l3 3q0 1 1 2t2 1q3 4 6 7q5 6 10 11q9 9 21.5 9t21 -9t8.5 -21t-9 -21q-3 -4 -8 -9q-2 -2 -5 -6q-1 -1 -1.5 -2t-1.5 -1l-3 -3q-7 -9 -13 -14q-30 -30 -68 -9
q-11 5 -23 16q-6 5 -20 18q-21 21 -30 25h-2h-1l-2 -2q-4 -4 -8 -12q-6 -11 -18 -14.5t-23 2.5t-14.5 17.5t2.5 22.5z" />
    <glyph glyph-name="Ograve" unicode="&#xd2;" horiz-adv-x="504" 
d="M253 47q52 21 87 125q37 109 34 241q-3 135 -46 205q-40 66 -110 38q-52 -22 -82 -121q-29 -99 -22 -223q7 -125 47 -201q19 -37 43 -53q22 -15 49 -11zM255 -13q-46 -5 -85 21q-36 25 -62 75q-46 87 -54 225q-8 135 25 244q37 127 116 159q58 23 105 6.5t79 -68.5
q52 -84 55 -234q3 -143 -37 -262q-47 -138 -130 -165q-6 -2 -12 -1zM224 840q2 -1 9.5 -8t9.5 -8q24 -22 35 -38q6 -10 3.5 -20.5t-11.5 -16.5t-20 -4t-17 12q-7 11 -26 28q-1 1 -8.5 7.5t-9.5 8.5q-8 7 -8.5 18t6.5 19.5t18 9t19 -7.5z" />
    <glyph glyph-name="Oacute" unicode="&#xd3;" horiz-adv-x="504" 
d="M253 47q52 21 87 125q37 109 34 241q-3 135 -46 205q-40 66 -110 38q-52 -22 -82 -121q-29 -99 -22 -223q7 -125 47 -201q19 -37 43 -53q22 -15 49 -11zM255 -13q-46 -5 -85 21q-36 25 -62 75q-46 87 -54 225q-8 135 25 244q37 127 116 159q58 23 105 6.5t79 -68.5
q52 -84 55 -234q3 -143 -37 -262q-47 -138 -130 -165q-6 -2 -12 -1zM310 816q-1 -2 -7 -10.5t-8 -10.5q-19 -25 -34 -38q-8 -6 -19 -5t-18 9.5t-6 19.5t10 18q10 8 25 28q1 1 7 10t8 10q6 9 17 11t19.5 -4.5t10.5 -17.5t-5 -20z" />
    <glyph glyph-name="Ocircumflex" unicode="&#xd4;" horiz-adv-x="504" 
d="M253 47q52 21 87 125q37 109 34 241q-3 135 -46 205q-40 66 -110 38q-52 -22 -82 -121q-29 -99 -22 -223q7 -125 47 -201q19 -37 43 -53q22 -15 49 -11zM255 -13q-46 -5 -85 21q-36 25 -62 75q-46 87 -54 225q-8 135 25 244q37 127 116 159q58 23 105 6.5t79 -68.5
q52 -84 55 -234q3 -143 -37 -262q-47 -138 -130 -165q-6 -2 -12 -1zM167 788q13 34 37 79q2 4 5 8q14 20 36 19q17 -1 31 -17q12 -14 26 -48q0 -2 2 -6t3.5 -8t2.5 -7l1 -3q5 -11 7 -15q5 -10 2 -21t-13.5 -16.5t-21 -2t-16.5 13.5q-3 6 -9 20l-2 5q-2 5 -4 10.5t-3 8.5
q-4 9 -7 16q-16 -30 -25 -55q-4 -11 -14.5 -15.5t-21.5 -0.5t-15.5 14.5t-0.5 20.5z" />
    <glyph glyph-name="Otilde" unicode="&#xd5;" horiz-adv-x="504" 
d="M253 47q52 21 87 125q37 109 34 241q-3 135 -46 205q-40 66 -110 38q-52 -22 -82 -121q-29 -99 -22 -223q7 -125 47 -201q19 -37 43 -53q22 -15 49 -11zM255 -13q-46 -5 -85 21q-36 25 -62 75q-46 87 -54 225q-8 135 25 244q37 127 116 159q58 23 105 6.5t79 -68.5
q52 -84 55 -234q3 -143 -37 -262q-47 -138 -130 -165q-6 -2 -12 -1zM145 820q15 28 36 37q21 10 46 0q11 -5 24 -16q7 -6 19 -17q19 -19 26 -22q3 3 7 8l3 3l1 1q1 1 1 2q4 3 6 6q5 6 9 10q8 8 19.5 8t19.5 -8t8 -19.5t-8 -19.5q-3 -3 -7 -8l-5 -5q-1 -1 -1.5 -2t-1.5 -1
q-1 -2 -2 -3q-7 -8 -12 -13q-27 -27 -62 -8q-10 5 -21 15q-6 5 -18 16q-20 19 -27 22l-1 1h-1q-1 -1 -3 -2q-3 -4 -7 -11q-6 -10 -16.5 -13.5t-20.5 2t-13.5 16.5t2.5 21z" />
    <glyph glyph-name="Odieresis" unicode="&#xd6;" horiz-adv-x="504" 
d="M253 47q52 21 87 125q37 109 34 241q-3 135 -46 205q-40 66 -110 38q-52 -22 -82 -121q-29 -99 -22 -223q7 -125 47 -201q19 -37 43 -53q22 -15 49 -11zM255 -13q-46 -5 -85 21q-36 25 -62 75q-46 87 -54 225q-8 135 25 244q37 127 116 159q58 23 105 6.5t79 -68.5
q52 -84 55 -234q3 -143 -37 -262q-47 -138 -130 -165q-6 -2 -12 -1zM214 829q18 -8 18 -28q0 -5 -1 -10q-1 -9 -6 -15q-12 -17 -31 -13q-11 2 -18 10q-11 11 -14 31q-2 12 5 22t19 12q16 3 28 -9zM321 835q18 -8 18 -28q0 -6 -1 -10q-1 -9 -6 -16q-11 -16 -31 -12
q-10 2 -18 10q-10 11 -14 30q-2 12 5 22.5t19 12.5q17 3 28 -9z" />
    <glyph glyph-name="multiply" unicode="&#xd7;" horiz-adv-x="430" 
d="M130 522q30 -22 63 -56q14 -16 32 -37l2 4q45 57 73 97q7 11 19 13t22.5 -5t13 -19t-4.5 -22q-29 -43 -75 -101q-5 -7 -11 -13q20 -24 35 -39q26 -29 50 -47q10 -7 11.5 -19.5t-6 -22.5t-20 -11.5t-22.5 5.5q-27 21 -57 54q-14 14 -29 32q-10 -13 -27.5 -34.5t-29.5 -36
t-16 -19.5q-7 -9 -19.5 -10.5t-22 6t-11 20t6.5 22.5q4 5 18 22t32.5 40.5t29.5 36.5q-22 26 -38 43q-29 30 -54 48q-10 7 -12 19.5t5.5 22.5t19.5 12t22 -5z" />
    <glyph glyph-name="Oslash" unicode="&#xd8;" horiz-adv-x="518" 
d="M127 212q37 66 88 160q4 8 8 15q46 84 102 189q7 12 13 23q-5 10 -10 19q-40 66 -110 38q-52 -22 -82 -121q-29 -99 -22 -223q3 -53 13 -100zM150 133q5 -12 11 -22q19 -37 43 -53q22 -15 49 -11q52 21 87 125q37 109 34 241q-1 58 -11 106q-47 -88 -87 -161
q-4 -7 -8 -15q-73 -133 -118 -210zM445 672l-27 -50q-7 -14 -14 -26q28 -76 30 -181q3 -143 -37 -262q-47 -138 -130 -165q-6 -2 -12 -1q-46 -5 -85 21q-32 22 -56 63q-9 -14 -15 -24q-7 -10 -19 -12.5t-22.5 4t-13 19t4.5 22.5q13 20 35 58q-25 75 -30 170q-8 135 25 244
q37 127 116 159q55 22 99.5 8.5t76.5 -58.5q18 33 21 40q6 10 18 14t23 -2t14.5 -18t-2.5 -23z" />
    <glyph glyph-name="Ugrave" unicode="&#xd9;" horiz-adv-x="422" 
d="M150 660q-1 -6 -2.5 -25t-3.5 -38t-3.5 -36.5t-1.5 -18.5q-9 -106 -11 -182q-3 -149 20 -227q13 -43 33 -61q18 -18 44 -15q15 2 31 15q21 16 28 42t8 69q1 33 -2 89q0 8 -1 23v3q-1 2 -1 3v6q-1 12 -1 23q-5 111 0 261q0 8 1 34t1 29q0 12 9 20.5t21.5 8t21 -9.5
t8.5 -21q0 -3 -1 -29t-1 -34q-5 -147 0 -256q0 -11 1 -23v-6v-3q1 -1 1 -3q0 -14 1 -22q3 -59 2 -94q-1 -51 -10 -85q-13 -44 -49 -72q-29 -24 -61 -27q-54 -6 -93 30q-31 30 -48 88q-26 87 -23 245q2 79 11 186q0 2 2 19t3.5 36l3 38t2.5 24q1 13 10 21t21.5 7t21 -10
t7.5 -22zM186 812q2 -1 9.5 -8t9.5 -8q24 -22 35 -38q6 -10 3.5 -20.5t-11.5 -16.5t-20 -4t-17 12q-7 11 -26 28q-1 1 -8.5 7.5t-9.5 8.5q-8 7 -8.5 18t6.5 19.5t18 9t19 -7.5z" />
    <glyph glyph-name="Uacute" unicode="&#xda;" horiz-adv-x="422" 
d="M150 660q-1 -6 -2.5 -25t-3.5 -38t-3.5 -36.5t-1.5 -18.5q-9 -106 -11 -182q-3 -149 20 -227q13 -43 33 -61q18 -18 44 -15q15 2 31 15q21 16 28 42t8 69q1 33 -2 89q0 8 -1 23v3q-1 2 -1 3v6q-1 12 -1 23q-5 111 0 261q0 8 1 34t1 29q0 12 9 20.5t21.5 8t21 -9.5
t8.5 -21q0 -3 -1 -29t-1 -34q-5 -147 0 -256q0 -11 1 -23v-6v-3q1 -1 1 -3q0 -14 1 -22q3 -59 2 -94q-1 -51 -10 -85q-13 -44 -49 -72q-29 -24 -61 -27q-54 -6 -93 30q-31 30 -48 88q-26 87 -23 245q2 79 11 186q0 2 2 19t3.5 36l3 38t2.5 24q1 13 10 21t21.5 7t21 -10
t7.5 -22zM296 778q-1 -2 -7 -10.5t-8 -10.5q-19 -25 -34 -38q-8 -6 -19 -5t-18 9.5t-6 19.5t10 18q10 8 25 28q1 1 7 10t8 10q6 9 17 11t19.5 -4.5t10.5 -17.5t-5 -20z" />
    <glyph glyph-name="Ucircumflex" unicode="&#xdb;" horiz-adv-x="422" 
d="M150 660q-1 -6 -2.5 -25t-3.5 -38t-3.5 -36.5t-1.5 -18.5q-9 -106 -11 -182q-3 -149 20 -227q13 -43 33 -61q18 -18 44 -15q15 2 31 15q21 16 28 42t8 69q1 33 -2 89q0 8 -1 23v1q0 1 -0.5 2t-0.5 1.5v1.5v6q-1 12 -1 23q-5 111 0 261q0 8 1 34t1 29q0 12 9 20.5t21.5 8
t21 -9.5t8.5 -21q0 -3 -1 -29t-1 -34q-5 -147 0 -256q0 -11 1 -23v-6v-3q1 -1 1 -3q0 -14 1 -22q3 -59 2 -94q-1 -51 -10 -85q-13 -44 -49 -72q-29 -24 -61 -27q-54 -6 -93 30q-31 30 -48 88q-26 87 -23 245q2 79 11 186q0 2 2 19t3.5 36l3 38t2.5 24q1 13 10 21t21.5 7
t21 -10t7.5 -22zM149 752q13 34 37 79q2 4 5 8q14 20 36 19q17 -1 31 -17q12 -14 26 -48q0 -2 2 -6t3.5 -8t2.5 -7l1 -3q5 -11 7 -15q5 -10 2 -21t-13.5 -16.5t-21 -2t-16.5 13.5q-3 6 -9 20l-2 5q-2 5 -4 10.5t-3 8.5q-4 9 -7 16q-16 -30 -25 -55q-4 -11 -14.5 -15.5
t-21.5 -0.5t-15.5 14.5t-0.5 20.5z" />
    <glyph glyph-name="Udieresis" unicode="&#xdc;" horiz-adv-x="422" 
d="M178 781q18 -8 18 -28q0 -5 -1 -10q-1 -9 -6 -15q-12 -17 -31 -13q-11 2 -18 10q-11 11 -14 31q-2 12 5 22t19 12q16 3 28 -9zM291 781q18 -8 18 -28q0 -6 -1 -10q-1 -9 -6 -16q-11 -16 -31 -12q-10 2 -18 10q-10 11 -14 30q-2 12 5 22.5t19 12.5q17 3 28 -9zM150 660
q-1 -6 -2.5 -25t-3.5 -38t-3.5 -36.5t-1.5 -18.5q-9 -106 -11 -182q-3 -149 20 -227q13 -43 33 -61q18 -18 44 -15q15 2 31 15q21 16 28 42t8 69q1 33 -2 89q0 8 -1 23v3q-1 2 -1 3v6q-1 12 -1 23q-5 111 0 261q0 8 1 34t1 29q0 12 9 20.5t21.5 8t21 -9.5t8.5 -21
q0 -3 -1 -29t-1 -34q-5 -147 0 -256q0 -11 1 -23v-6v-3q1 -1 1 -3q0 -14 1 -22q3 -59 2 -94q-1 -51 -10 -85q-13 -44 -49 -72q-29 -24 -61 -27q-54 -6 -93 30q-31 30 -48 88q-26 87 -23 245q2 79 11 186q0 2 2 19t3.5 36l3 38t2.5 24q1 13 10 21t21.5 7t21 -10t7.5 -22z" />
    <glyph glyph-name="Yacute" unicode="&#xdd;" horiz-adv-x="476" 
d="M101 707q1 -1 6.5 -16t12 -31.5t8.5 -23.5q15 -39 26 -66q36 -92 67 -159q1 -1 1 -3q9 17 22 45q25 53 35 73q47 102 68 183q3 12 13.5 18.5t22.5 3.5t18.5 -13.5t3.5 -22.5q-22 -87 -72 -194q-9 -21 -35 -74q-23 -47 -36 -76l-10 -22l-1 -1q0 -30 -1 -77q-2 -55 -2 -76
q-1 -73 8 -143q1 -12 -6.5 -22t-20 -11.5t-22.5 6.5t-11 20q-9 74 -8 150q0 23 2 78q1 50 2 82q-13 25 -25 51q-33 68 -69 162q-11 28 -26 67q-2 7 -8.5 23t-12 31.5t-6.5 16.5q-4 12 1 23t16.5 15.5t23 -0.5t15.5 -17zM294 794q-1 -2 -7 -10.5t-8 -10.5q-19 -25 -34 -38
q-8 -6 -19 -5t-18 9.5t-6 19.5t10 18q10 8 25 28q1 1 7 10t8 10q6 9 17 11t19.5 -4.5t10.5 -17.5t-5 -20z" />
    <glyph glyph-name="agrave" unicode="&#xe0;" 
d="M375 109q-1 0 -2 -1q-41 -4 -127 -5q-4 0 -12 -1q-51 -1 -74 -2q-7 -30 -12 -56q-3 -12 -13.5 -19t-22.5 -4.5t-19 13t-4 22.5q12 60 35 152q9 34 21 83q2 7 11 42.5t11 42.5q8 33 15 58q43 171 62 272v1q-2 13 5.5 22.5t19.5 11.5q16 3 26 -9q12 -11 10 -27
q30 -197 104 -491q4 -17 18 -65q6 -25 10 -40q11 -40 16 -69q2 -12 -5 -22t-19.5 -12.5t-22.5 5t-12 19.5q-5 27 -15 64q-1 7 -4 15zM359 167q-4 17 -8 32q-44 176 -79 351q-13 -56 -32 -131q-6 -25 -15 -57q-2 -8 -11 -43.5t-11 -42.5q-12 -49 -21 -82q-4 -18 -8 -33
q19 1 59 1q8 0 12 1q78 1 114 4zM244 852q2 -1 9.5 -8t9.5 -8q24 -22 35 -38q6 -10 3.5 -20.5t-11.5 -16.5t-20 -4t-17 12q-7 11 -26 28q-1 1 -8.5 7.5t-9.5 8.5q-8 7 -8.5 18t6.5 19.5t18 9t19 -7.5z" />
    <glyph glyph-name="aacute" unicode="&#xe1;" 
d="M375 109q-1 0 -2 -1q-41 -4 -127 -5q-4 0 -12 -1q-51 -1 -74 -2q-7 -30 -12 -56q-3 -12 -13.5 -19t-22.5 -4.5t-19 13t-4 22.5q12 60 35 152q9 34 21 83q2 7 11 42.5t11 42.5q8 33 15 58q43 171 62 272v1q-2 13 5.5 22.5t19.5 11.5q16 3 26 -9q12 -11 10 -27
q30 -197 104 -491q4 -17 18 -65q6 -25 10 -40q11 -40 16 -69q2 -12 -5 -22t-19.5 -12.5t-22.5 5t-12 19.5q-5 27 -15 64q-1 7 -4 15zM359 167q-4 17 -8 32q-44 176 -79 351q-13 -56 -32 -131q-6 -25 -15 -57q-2 -8 -11 -43.5t-11 -42.5q-12 -49 -21 -82q-4 -18 -8 -33
q19 1 59 1q8 0 12 1q78 1 114 4zM340 828q-1 -2 -7 -10.5t-8 -10.5q-19 -25 -34 -38q-8 -6 -19 -5t-18 9.5t-6 19.5t10 18q10 8 25 28q1 1 7 10t8 10q6 9 17 11t19.5 -4.5t10.5 -17.5t-5 -20z" />
    <glyph glyph-name="acircumflex" unicode="&#xe2;" 
d="M375 109q-1 0 -2 -1q-41 -4 -127 -5q-4 0 -12 -1q-51 -1 -74 -2q-7 -30 -12 -56q-3 -12 -13.5 -19t-22.5 -4.5t-19 13t-4 22.5q12 60 35 152q9 34 21 83q2 7 11 42.5t11 42.5q8 33 15 58q43 171 62 272v1q-2 13 5.5 22.5t19.5 11.5q16 3 26 -9q12 -11 10 -27
q30 -197 104 -491q4 -17 18 -65q6 -25 10 -40q11 -40 16 -69q2 -12 -5 -22t-19.5 -12.5t-22.5 5t-12 19.5q-5 27 -15 64q-1 7 -4 15zM359 167q-4 17 -8 32q-44 176 -79 351q-13 -56 -32 -131q-6 -25 -15 -57q-2 -8 -11 -43.5t-11 -42.5q-12 -49 -21 -82q-4 -18 -8 -33
q19 1 59 1q8 0 12 1q78 1 114 4zM197 802q13 34 37 79q2 4 5 8q14 20 36 19q17 -1 31 -17q12 -14 26 -48q0 -2 2 -6t3.5 -8t2.5 -7l1 -3q5 -11 7 -15q5 -10 2 -21t-13.5 -16.5t-21 -2t-16.5 13.5q-3 6 -9 20l-2 5q-2 5 -4 10.5t-3 8.5q-4 9 -7 16q-16 -30 -25 -55
q-4 -11 -14.5 -15.5t-21.5 -0.5t-15.5 14.5t-0.5 20.5z" />
    <glyph glyph-name="atilde" unicode="&#xe3;" 
d="M375 109q-1 0 -2 -1q-41 -4 -127 -5q-4 0 -12 -1q-51 -1 -74 -2q-7 -30 -12 -56q-3 -12 -13.5 -19t-22.5 -4.5t-19 13t-4 22.5q12 60 35 152q9 34 21 83q2 7 11 42.5t11 42.5q8 33 15 58q43 171 62 272v1q-2 13 5.5 22.5t19.5 11.5q16 3 26 -9q12 -11 10 -27
q30 -197 104 -491q4 -17 18 -65q6 -25 10 -40q11 -40 16 -69q2 -12 -5 -22t-19.5 -12.5t-22.5 5t-12 19.5q-5 27 -15 64q-1 7 -4 15zM359 167q-4 17 -8 32q-44 176 -79 351q-13 -56 -32 -131q-6 -25 -15 -57q-2 -8 -11 -43.5t-11 -42.5q-12 -49 -21 -82q-4 -18 -8 -33
q19 1 59 1q8 0 12 1q78 1 114 4zM149 840q15 28 36 37q21 10 46 0q11 -5 24 -16q7 -6 19 -17q19 -19 26 -22q3 3 7 8l3 3l1 1q1 1 1 2q4 3 6 6q5 6 9 10q8 8 19.5 8t19.5 -8t8 -19.5t-8 -19.5q-3 -3 -7 -8l-5 -5q-1 -1 -1.5 -2t-1.5 -1q-1 -2 -2 -3q-7 -8 -12 -13
q-27 -27 -62 -8q-10 5 -21 15q-6 5 -18 16q-20 19 -27 22l-1 1h-1q-1 -1 -3 -2q-3 -4 -7 -11q-6 -10 -16.5 -13.5t-20.5 2t-13.5 16.5t2.5 21z" />
    <glyph glyph-name="adieresis" unicode="&#xe4;" 
d="M375 109q-1 0 -2 -1q-41 -4 -127 -5q-4 0 -12 -1q-51 -1 -74 -2q-7 -30 -12 -56q-3 -12 -13.5 -19t-22.5 -4.5t-19 13t-4 22.5q12 60 35 152q9 34 21 83q2 7 11 42.5t11 42.5q8 33 15 58q43 171 62 272v1q-2 13 5.5 22.5t19.5 11.5q16 3 26 -9q12 -11 10 -27
q30 -197 104 -491q4 -17 18 -65q6 -25 10 -40q11 -40 16 -69q2 -12 -5 -22t-19.5 -12.5t-22.5 5t-12 19.5q-5 27 -15 64q-1 7 -4 15zM359 167q-4 17 -8 32q-44 176 -79 351q-13 -56 -32 -131q-6 -25 -15 -57q-2 -8 -11 -43.5t-11 -42.5q-12 -49 -21 -82q-4 -18 -8 -33
q19 1 59 1q8 0 12 1q78 1 114 4zM226 853q18 -8 18 -28q0 -5 -1 -10q-1 -9 -6 -15q-12 -17 -31 -13q-11 2 -18 10q-11 11 -14 31q-2 12 5 22t19 12q16 3 28 -9zM331 857q18 -8 18 -28q0 -6 -1 -10q-1 -9 -6 -16q-11 -16 -31 -12q-10 2 -18 10q-10 11 -14 30q-2 12 5 22.5
t19 12.5q17 3 28 -9z" />
    <glyph glyph-name="aring" unicode="&#xe5;" 
d="M375 109q-1 0 -2 -1q-41 -4 -127 -5q-4 0 -12 -1q-51 -1 -74 -2q-7 -30 -12 -56q-3 -12 -13.5 -19t-22.5 -4.5t-19 13t-4 22.5q12 60 35 152q9 34 21 83q2 7 11 42.5t11 42.5q8 33 15 58q43 171 62 272v1q-2 13 5.5 22.5t19.5 11.5q16 3 26 -9q12 -11 10 -27
q30 -197 104 -491q4 -17 18 -65q6 -25 10 -40q11 -40 16 -69q2 -12 -5 -22t-19.5 -12.5t-22.5 5t-12 19.5q-5 27 -15 64q-1 7 -4 15zM359 167q-4 17 -8 32q-44 176 -79 351q-13 -56 -32 -131q-6 -25 -15 -57q-2 -8 -11 -43.5t-11 -42.5q-12 -49 -21 -82q-4 -18 -8 -33
q19 1 59 1q8 0 12 1q78 1 114 4zM277 811q10 3 17 15.5t7 27.5q-1 14 -8 20t-24 3q-10 -3 -15 -12q-6 -11 -4 -26q1 -14 9 -22q6 -7 18 -6zM279 761q-34 -2 -56 22q-20 20 -23 51q-4 33 12 59t46 32q42 10 69 -14q22 -20 24 -55q1 -32 -15 -58q-19 -31 -52 -36q-3 -1 -5 -1z
" />
    <glyph glyph-name="ae" unicode="&#xe6;" horiz-adv-x="673" 
d="M359 167q-4 17 -8 32q-44 176 -79 351q-13 -56 -32 -131q-6 -25 -15 -57q-2 -8 -11 -43.5t-11 -42.5q-12 -49 -21 -82q-4 -18 -8 -33q19 1 59 1q8 0 12 1q78 1 114 4zM423 715q38 7 73 4q44 -4 75 -25q11 -7 13.5 -19t-4.5 -22.5t-19.5 -13t-22.5 4.5q-29 19 -81 15v-2
q-1 -9 -1 -23q-1 -27 -2 -72q-2 -61 -3 -139q8 1 21 2q8 1 11 1q26 3 50 -3q12 -3 18.5 -13.5t4 -22.5t-13 -18.5t-22.5 -3.5q-15 3 -31 1q-3 0 -10 -1q-17 -2 -28 -2q-1 -6 -1 -12q-1 -125 0 -207q0 -45 1 -70v-9q16 -2 43 -1q23 0 47 2q10 1 17 2q6 0 8 1q12 3 22.5 -3.5
t13.5 -19t-3.5 -23t-18.5 -13.5q-23 -5 -85 -6q-31 -1 -51 1q-6 1 -11 2l-4 -2q-13 -2 -23 5.5t-12 19.5q-5 27 -15 64q-1 7 -4 15q-1 0 -2 -1q-41 -4 -127 -5q-4 0 -12 -1q-51 -1 -74 -2q-7 -30 -12 -56q-3 -12 -13.5 -19t-22.5 -4.5t-19 13t-4 22.5q12 60 35 152
q9 34 21 83q2 7 11 42.5t11 42.5q8 33 15 58q43 171 62 272v1q-2 13 5.5 22.5t19.5 11.5q16 3 26 -9q12 -11 10 -27q24 -157 85 -412v59q2 119 4 211q2 100 5 112v3t-1 2q-2 13 5 23t20 12z" />
    <glyph glyph-name="ccedilla" unicode="&#xe7;" horiz-adv-x="433" 
d="M325 652q-13 4 -55 -2t-58 -15q-59 -30 -88 -123q-29 -92 -14 -199q15 -110 69 -178q58 -73 146 -73q12 0 21 -9t9 -21t-9 -21t-21 -9q-34 0 -66 9v-2v-8q17 -1 28 -11q37 -32 34 -87q-2 -28 -15 -49.5t-36 -30.5q-35 -14 -58 -13q-37 2 -60 36q-6 10 -4 21t11.5 17.5
t20.5 4t18 -11.5q7 -11 17 -12q11 0 34 9q16 6 17 32t-13 40q-1 0 -3 1h-10q-10 2 -17 6q-10 6 -14 18q-2 6 -3 13q-2 9 -2 24v21v5q-40 24 -72 64q-65 81 -82 207q-16 120 17 225q36 116 117 159q25 13 78 20q54 8 79 1q12 -3 18.5 -14t3 -23t-14.5 -18t-23 -3z" />
    <glyph glyph-name="egrave" unicode="&#xe8;" horiz-adv-x="375" 
d="M125 711q38 7 73 4q44 -4 75 -25q11 -7 13.5 -19t-4.5 -22.5t-19.5 -13t-22.5 4.5q-29 19 -81 15v-2q-1 -9 -1 -23q-1 -27 -2 -72q-2 -61 -3 -139q8 1 21 2q8 1 11 1q26 3 50 -3q12 -3 18.5 -13.5t4 -22.5t-13 -18.5t-22.5 -3.5q-15 3 -31 1q-3 0 -10 -1q-17 -2 -28 -2
q-1 -6 -1 -12q-1 -125 0 -207q0 -45 1 -70v-9q16 -2 43 -1q23 0 47 2q10 1 17 2q6 0 8 1q12 3 22.5 -3.5t13.5 -19t-3.5 -23t-18.5 -13.5q-23 -5 -85 -6q-31 -1 -51 1q-13 1 -22 4q-6 2 -11 5q-10 6 -15 15q-3 7 -4 21q-1 8 -1 22q-1 26 -1 71q-1 83 0 209q2 118 4 211
q2 100 5 112v3t-1 2q-2 13 5 23t20 12zM156 829q2 -1 9.5 -8t8.5 -8q24 -22 35 -39q6 -9 4 -19.5t-11.5 -16.5t-20 -4t-16.5 11q-7 11 -26 28q-1 1 -9 8t-10 9q-8 7 -8.5 18t7 19t18.5 8.5t19 -6.5z" />
    <glyph glyph-name="eacute" unicode="&#xe9;" horiz-adv-x="375" 
d="M125 711q38 7 73 4q44 -4 75 -25q11 -7 13.5 -19t-4.5 -22.5t-19.5 -13t-22.5 4.5q-29 19 -81 15v-2q-1 -9 -1 -23q-1 -27 -2 -72q-2 -61 -3 -139q8 1 21 2q8 1 11 1q26 3 50 -3q12 -3 18.5 -13.5t4 -22.5t-13 -18.5t-22.5 -3.5q-15 3 -31 1q-3 0 -10 -1q-17 -2 -28 -2
q-1 -6 -1 -12q-1 -125 0 -207q0 -45 1 -70v-9q16 -2 43 -1q23 0 47 2q10 1 17 2q6 0 8 1q12 3 22.5 -3.5t13.5 -19t-3.5 -23t-18.5 -13.5q-23 -5 -85 -6q-31 -1 -51 1q-13 1 -22 4q-6 2 -11 5q-10 6 -15 15q-3 7 -4 21q-1 8 -1 22q-1 26 -1 71q-1 83 0 209q2 118 4 211
q2 100 5 112v3t-1 2q-2 13 5 23t20 12zM244 800q-1 -2 -7 -10.5t-8 -10.5q-19 -25 -34 -38q-8 -6 -19 -5t-18 9.5t-6 19.5t10 18q10 8 25 28q1 1 7 10t8 10q6 9 17 11t19.5 -4.5t10.5 -17.5t-5 -20z" />
    <glyph glyph-name="ecircumflex" unicode="&#xea;" horiz-adv-x="375" 
d="M125 711q38 7 73 4q44 -4 75 -25q11 -7 13.5 -19t-4.5 -22.5t-19.5 -13t-22.5 4.5q-29 19 -81 15v-2q-1 -9 -1 -23q-1 -27 -2 -72q-2 -61 -3 -139q8 1 21 2q8 1 11 1q26 3 50 -3q12 -3 18.5 -13.5t4 -22.5t-13 -18.5t-22.5 -3.5q-15 3 -31 1q-3 0 -10 -1q-17 -2 -28 -2
q-1 -6 -1 -12q-1 -125 0 -207q0 -45 1 -70v-9q16 -2 43 -1q23 0 47 2q10 1 17 2q6 0 8 1q12 3 22.5 -3.5t13.5 -19t-3.5 -23t-18.5 -13.5q-23 -5 -85 -6q-31 -1 -51 1q-13 1 -22 4q-6 2 -11 5q-10 6 -15 15q-3 7 -4 21q-1 8 -1 22q-1 26 -1 71q-1 83 0 209q2 118 4 211
q2 100 5 112v3t-1 2q-2 13 5 23t20 12zM99 786q13 34 37 79q2 4 5 8q14 20 36 19q17 -1 31 -17q12 -14 26 -48q0 -2 2 -6t3.5 -8t2.5 -7l1 -3q5 -11 7 -15q5 -10 2 -21t-13.5 -16.5t-21 -2t-16.5 13.5q-3 6 -9 20l-2 5q-2 5 -4 10.5t-3 8.5q-4 9 -7 16q-16 -30 -25 -55
q-4 -11 -14.5 -15.5t-21.5 -0.5t-15.5 14.5t-0.5 20.5z" />
    <glyph glyph-name="edieresis" unicode="&#xeb;" horiz-adv-x="375" 
d="M150 815q18 -8 18 -28q0 -5 -1 -10q-1 -9 -6 -15q-12 -17 -31 -13q-11 2 -18 10q-11 11 -14 31q-2 12 5 22t19 12q16 3 28 -9zM254 813q18 -8 18 -28q0 -5 -1 -10q-1 -9 -6 -15q-12 -17 -31 -13q-11 2 -18 10q-11 11 -14 31q-2 12 5 22t19 12q16 3 28 -9zM125 711
q38 7 73 4q44 -4 75 -25q11 -7 13.5 -19t-4.5 -22.5t-19.5 -13t-22.5 4.5q-29 19 -81 15v-2q-1 -9 -1 -23q-1 -27 -2 -72q-2 -61 -3 -139q8 1 21 2q8 1 11 1q26 3 50 -3q12 -3 18.5 -13.5t4 -22.5t-13 -18.5t-22.5 -3.5q-15 3 -31 1q-3 0 -10 -1q-17 -2 -28 -2q-1 -6 -1 -12
q-1 -125 0 -207q0 -45 1 -70v-9q16 -2 43 -1q23 0 47 2q10 1 17 2q6 0 8 1q12 3 22.5 -3.5t13.5 -19t-3.5 -23t-18.5 -13.5q-23 -5 -85 -6q-31 -1 -51 1q-13 1 -22 4q-6 2 -11 5q-10 6 -15 15q-3 7 -4 21q-1 8 -1 22q-1 26 -1 71q-1 83 0 209q2 118 4 211q2 100 5 112v3
t-1 2q-2 13 5 23t20 12z" />
    <glyph glyph-name="igrave" unicode="&#xec;" horiz-adv-x="228" 
d="M147 672q0 -33 -5 -173q-3 -86 -4 -141q-5 -247 19 -320q4 -11 -2 -22t-17.5 -15t-22.5 1.5t-15 17.5q-27 82 -22 339q1 56 4 142q5 139 5 171q0 13 8.5 21.5t21 8.5t21.5 -8.5t9 -21.5zM84 834q2 -1 9.5 -8t9.5 -8q24 -22 35 -38q6 -10 3.5 -20.5t-11.5 -16.5t-20 -4
t-17 12q-7 11 -26 28q-1 1 -8.5 7.5t-9.5 8.5q-8 7 -8.5 18t6.5 19.5t18 9t19 -7.5z" />
    <glyph glyph-name="iacute" unicode="&#xed;" horiz-adv-x="263" 
d="M147 672q0 -33 -5 -173q-3 -86 -4 -141q-5 -247 19 -320q4 -11 -2 -22t-17.5 -15t-22.5 1.5t-15 17.5q-27 82 -22 339q1 56 4 142q5 139 5 171q0 13 8.5 21.5t21 8.5t21.5 -8.5t9 -21.5zM188 802q-1 -2 -7 -10.5t-8 -10.5q-19 -25 -34 -38q-8 -6 -19 -5t-18 9.5t-6 19.5
t10 18q10 8 25 28q1 1 7 10t8 10q6 9 17 11t19.5 -4.5t10.5 -17.5t-5 -20z" />
    <glyph glyph-name="icircumflex" unicode="&#xee;" horiz-adv-x="265" 
d="M147 672q0 -33 -5 -173q-3 -86 -4 -141q-5 -247 19 -320q4 -11 -2 -22t-17.5 -15t-22.5 1.5t-15 17.5q-27 82 -22 339q1 56 4 142q5 139 5 171q0 13 8.5 21.5t21 8.5t21.5 -8.5t9 -21.5zM41 766q13 34 37 79q2 4 5 8q14 20 36 19q17 -1 31 -17q12 -14 26 -48q0 -2 2 -6
t3.5 -8t2.5 -7l1 -3q5 -11 7 -15q5 -10 2 -21t-13.5 -16.5t-21 -2t-16.5 13.5q-3 6 -9 20l-2 5q-2 5 -4 10.5t-3 8.5q-4 9 -7 16q-16 -30 -25 -55q-4 -11 -14.5 -15.5t-21.5 -0.5t-15.5 14.5t-0.5 20.5z" />
    <glyph glyph-name="idieresis" unicode="&#xef;" horiz-adv-x="273" 
d="M92 807q18 -8 18 -28q0 -5 -1 -10q-1 -9 -6 -15q-12 -17 -31 -13q-11 2 -18 10q-11 11 -14 31q-2 12 5 22t19 12q16 3 28 -9zM186 805q18 -8 18 -28q0 -5 -1 -10q-1 -9 -6 -15q-12 -17 -31 -13q-11 2 -18 10q-11 11 -14 31q-2 12 5 22t19 12q16 3 28 -9zM147 672
q0 -33 -5 -173q-3 -86 -4 -141q-5 -247 19 -320q4 -11 -2 -22t-17.5 -15t-22.5 1.5t-15 17.5q-27 82 -22 339q1 56 4 142q5 139 5 171q0 13 8.5 21.5t21 8.5t21.5 -8.5t9 -21.5z" />
    <glyph glyph-name="eth" unicode="&#xf0;" horiz-adv-x="504" 
d="M359 443q-4 5 -6 11q-2 9 -5 18q-8 18 -18 31q-41 55 -114 31q-52 -17 -80 -98q-29 -80 -22 -180q7 -101 46 -162q37 -60 93 -52h1q52 17 87 101q36 89 33 196q-1 58 -15 104zM128 699q-32 17 -60 25q-12 4 -18 15t-2 23t15 17.5t22 2.5q42 -13 88 -40q25 23 47 38
q10 7 22.5 4.5t19.5 -13t4.5 -22.5t-13.5 -19q-14 -9 -28 -22q29 -20 55 -44q92 -83 124 -170q28 -64 30 -153q3 -121 -38 -221q-47 -115 -131 -138q-5 -1 -10 -1q-90 -8 -146 80q-47 74 -55 191q-8 113 25 205q39 107 118 134q32 11 62 11q-10 9 -19 17q-28 26 -59 47
q-22 -21 -37 -34q-9 -8 -21.5 -7t-20.5 10.5t-7 22t10 20.5q10 9 23 21z" />
    <glyph glyph-name="ntilde" unicode="&#xf1;" horiz-adv-x="486" 
d="M75 4q0 25 -1 68q-4 169 -4 249q1 92 5 171v5q2 36 3 53q2 41 2 72q0 22 1 47v15q1 2 1 4v2q0 15 12.5 23t26.5 4q13 -4 24 -20q6 -8 14 -23q13 -26 34 -72q35 -81 86 -213q35 -93 69 -187q-3 73 -3 163v113v112v8v3v5v2q1 34 0 55q0 15 -1.5 27.5t6.5 22t20.5 10.5
t22 -7t10.5 -20q1 -14 2 -31q1 -23 0 -58v-3v-4v-3v-7v-112v-113q0 -137 8 -244q4 -45 4 -126q0 -12 -9 -21t-21 -9q-20 0 -28 18q-2 4 -3 8q-26 97 -133 377q-49 128 -84 207q0 -13 -1 -28q-1 -17 -3 -53v-6q-4 -77 -5 -167q0 -80 4 -247q1 -44 1 -68q0 -13 -8.5 -22
t-21 -9t-21.5 8.5t-9 20.5zM115 827q17 31 39 41q24 11 51 0q12 -6 27 -17q7 -7 21 -20q21 -20 28 -24q4 3 9 9l3 3q0 1 1 2t2 1q3 4 6 7q5 6 10 11q9 9 21.5 9t21 -9t8.5 -21t-9 -21q-3 -4 -8 -9q-2 -2 -5 -6q-1 -1 -1.5 -2t-1.5 -1l-3 -3q-7 -9 -13 -14q-30 -30 -68 -9
q-11 5 -23 16q-6 5 -20 18q-21 21 -30 25h-2h-1l-2 -2q-4 -4 -8 -12q-6 -11 -18 -14.5t-23 2.5t-14.5 17.5t2.5 22.5z" />
    <glyph glyph-name="ograve" unicode="&#xf2;" horiz-adv-x="504" 
d="M253 47q52 21 87 125q37 109 34 241q-3 135 -46 205q-40 66 -110 38q-52 -22 -82 -121q-29 -99 -22 -223q7 -125 47 -201q19 -37 43 -53q22 -15 49 -11zM255 -13q-46 -5 -85 21q-36 25 -62 75q-46 87 -54 225q-8 135 25 244q37 127 116 159q58 23 105 6.5t79 -68.5
q52 -84 55 -234q3 -143 -37 -262q-47 -138 -130 -165q-6 -2 -12 -1zM224 840q2 -1 9.5 -8t9.5 -8q24 -22 35 -38q6 -10 3.5 -20.5t-11.5 -16.5t-20 -4t-17 12q-7 11 -26 28q-1 1 -8.5 7.5t-9.5 8.5q-8 7 -8.5 18t6.5 19.5t18 9t19 -7.5z" />
    <glyph glyph-name="oacute" unicode="&#xf3;" horiz-adv-x="504" 
d="M253 47q52 21 87 125q37 109 34 241q-3 135 -46 205q-40 66 -110 38q-52 -22 -82 -121q-29 -99 -22 -223q7 -125 47 -201q19 -37 43 -53q22 -15 49 -11zM255 -13q-46 -5 -85 21q-36 25 -62 75q-46 87 -54 225q-8 135 25 244q37 127 116 159q58 23 105 6.5t79 -68.5
q52 -84 55 -234q3 -143 -37 -262q-47 -138 -130 -165q-6 -2 -12 -1zM310 816q-1 -2 -7 -10.5t-8 -10.5q-19 -25 -34 -38q-8 -6 -19 -5t-18 9.5t-6 19.5t10 18q10 8 25 28q1 1 7 10t8 10q6 9 17 11t19.5 -4.5t10.5 -17.5t-5 -20z" />
    <glyph glyph-name="ocircumflex" unicode="&#xf4;" horiz-adv-x="504" 
d="M253 47q52 21 87 125q37 109 34 241q-3 135 -46 205q-40 66 -110 38q-52 -22 -82 -121q-29 -99 -22 -223q7 -125 47 -201q19 -37 43 -53q22 -15 49 -11zM255 -13q-46 -5 -85 21q-36 25 -62 75q-46 87 -54 225q-8 135 25 244q37 127 116 159q58 23 105 6.5t79 -68.5
q52 -84 55 -234q3 -143 -37 -262q-47 -138 -130 -165q-6 -2 -12 -1zM167 788q13 34 37 79q2 4 5 8q14 20 36 19q17 -1 31 -17q12 -14 26 -48q0 -2 2 -6t3.5 -8t2.5 -7l1 -3q5 -11 7 -15q5 -10 2 -21t-13.5 -16.5t-21 -2t-16.5 13.5q-3 6 -9 20l-2 5q-2 5 -4 10.5t-3 8.5
q-4 9 -7 16q-16 -30 -25 -55q-4 -11 -14.5 -15.5t-21.5 -0.5t-15.5 14.5t-0.5 20.5z" />
    <glyph glyph-name="otilde" unicode="&#xf5;" horiz-adv-x="504" 
d="M253 47q52 21 87 125q37 109 34 241q-3 135 -46 205q-40 66 -110 38q-52 -22 -82 -121q-29 -99 -22 -223q7 -125 47 -201q19 -37 43 -53q22 -15 49 -11zM255 -13q-46 -5 -85 21q-36 25 -62 75q-46 87 -54 225q-8 135 25 244q37 127 116 159q58 23 105 6.5t79 -68.5
q52 -84 55 -234q3 -143 -37 -262q-47 -138 -130 -165q-6 -2 -12 -1zM145 820q15 28 36 37q21 10 46 0q11 -5 24 -16q7 -6 19 -17q19 -19 26 -22q3 3 7 8l3 3l1 1q1 1 1 2q4 3 6 6q5 6 9 10q8 8 19.5 8t19.5 -8t8 -19.5t-8 -19.5q-3 -3 -7 -8l-5 -5q-1 -1 -1.5 -2t-1.5 -1
q-1 -2 -2 -3q-7 -8 -12 -13q-27 -27 -62 -8q-10 5 -21 15q-6 5 -18 16q-20 19 -27 22l-1 1h-1q-1 -1 -3 -2q-3 -4 -7 -11q-6 -10 -16.5 -13.5t-20.5 2t-13.5 16.5t2.5 21z" />
    <glyph glyph-name="odieresis" unicode="&#xf6;" horiz-adv-x="504" 
d="M253 47q52 21 87 125q37 109 34 241q-3 135 -46 205q-40 66 -110 38q-52 -22 -82 -121q-29 -99 -22 -223q7 -125 47 -201q19 -37 43 -53q22 -15 49 -11zM255 -13q-46 -5 -85 21q-36 25 -62 75q-46 87 -54 225q-8 135 25 244q37 127 116 159q58 23 105 6.5t79 -68.5
q52 -84 55 -234q3 -143 -37 -262q-47 -138 -130 -165q-6 -2 -12 -1zM214 829q18 -8 18 -28q0 -5 -1 -10q-1 -9 -6 -15q-12 -17 -31 -13q-11 2 -18 10q-11 11 -14 31q-2 12 5 22t19 12q16 3 28 -9zM321 835q18 -8 18 -28q0 -6 -1 -10q-1 -9 -6 -16q-11 -16 -31 -12
q-10 2 -18 10q-10 11 -14 30q-2 12 5 22.5t19 12.5q17 3 28 -9z" />
    <glyph glyph-name="divide" unicode="&#xf7;" horiz-adv-x="444" 
d="M250 306q20 -9 20 -31q0 -6 -1 -11q-2 -9 -7 -17q-13 -18 -35 -14q-12 2 -20 11q-11 12 -15 33q-3 14 5 25.5t22 13.5q18 4 31 -10zM238 532q20 -9 20 -31q0 -6 -1 -11q-2 -9 -7 -17q-13 -18 -35 -14q-12 2 -20 11q-11 12 -15 33q-3 14 5 25.5t22 13.5q18 4 31 -10z
M107 416q28 2 80 3h1q98 3 152 10q13 2 22.5 -5.5t11.5 -19.5t-5.5 -22t-19.5 -12q-58 -8 -159 -11h-1q-51 -1 -78 -3q-12 0 -21.5 8t-10.5 20.5t7.5 21.5t20.5 10z" />
    <glyph glyph-name="oslash" unicode="&#xf8;" horiz-adv-x="518" 
d="M127 212q37 66 88 160q4 8 8 15q46 84 102 189q7 12 13 23q-5 10 -10 19q-40 66 -110 38q-52 -22 -82 -121q-29 -99 -22 -223q3 -53 13 -100zM150 133q5 -12 11 -22q19 -37 43 -53q22 -15 49 -11q52 21 87 125q37 109 34 241q-1 58 -11 106q-47 -88 -87 -161
q-4 -7 -8 -15q-73 -133 -118 -210zM445 672l-27 -50q-7 -14 -14 -26q28 -76 30 -181q3 -143 -37 -262q-47 -138 -130 -165q-6 -2 -12 -1q-46 -5 -85 21q-32 22 -56 63q-9 -14 -15 -24q-7 -10 -19 -12.5t-22.5 4t-13 19t4.5 22.5q13 20 35 58q-25 75 -30 170q-8 135 25 244
q37 127 116 159q55 22 99.5 8.5t76.5 -58.5q18 33 21 40q6 10 18 14t23 -2t14.5 -18t-2.5 -23z" />
    <glyph glyph-name="ugrave" unicode="&#xf9;" horiz-adv-x="422" 
d="M150 660q-1 -6 -2.5 -25t-3.5 -38t-3.5 -36.5t-1.5 -18.5q-9 -106 -11 -182q-3 -149 20 -227q13 -43 33 -61q18 -18 44 -15q15 2 31 15q21 16 28 42t8 69q1 33 -2 89q0 8 -1 23v3q-1 2 -1 3v6q-1 12 -1 23q-5 111 0 261q0 8 1 34t1 29q0 12 9 20.5t21.5 8t21 -9.5
t8.5 -21q0 -3 -1 -29t-1 -34q-5 -147 0 -256q0 -11 1 -23v-6v-3q1 -1 1 -3q0 -14 1 -22q3 -59 2 -94q-1 -51 -10 -85q-13 -44 -49 -72q-29 -24 -61 -27q-54 -6 -93 30q-31 30 -48 88q-26 87 -23 245q2 79 11 186q0 2 2 19t3.5 36l3 38t2.5 24q1 13 10 21t21.5 7t21 -10
t7.5 -22zM186 812q2 -1 9.5 -8t9.5 -8q24 -22 35 -38q6 -10 3.5 -20.5t-11.5 -16.5t-20 -4t-17 12q-7 11 -26 28q-1 1 -8.5 7.5t-9.5 8.5q-8 7 -8.5 18t6.5 19.5t18 9t19 -7.5z" />
    <glyph glyph-name="uacute" unicode="&#xfa;" horiz-adv-x="422" 
d="M150 660q-1 -6 -2.5 -25t-3.5 -38t-3.5 -36.5t-1.5 -18.5q-9 -106 -11 -182q-3 -149 20 -227q13 -43 33 -61q18 -18 44 -15q15 2 31 15q21 16 28 42t8 69q1 33 -2 89q0 8 -1 23v3q-1 2 -1 3v6q-1 12 -1 23q-5 111 0 261q0 8 1 34t1 29q0 12 9 20.5t21.5 8t21 -9.5
t8.5 -21q0 -3 -1 -29t-1 -34q-5 -147 0 -256q0 -11 1 -23v-6v-3q1 -1 1 -3q0 -14 1 -22q3 -59 2 -94q-1 -51 -10 -85q-13 -44 -49 -72q-29 -24 -61 -27q-54 -6 -93 30q-31 30 -48 88q-26 87 -23 245q2 79 11 186q0 2 2 19t3.5 36l3 38t2.5 24q1 13 10 21t21.5 7t21 -10
t7.5 -22zM296 778q-1 -2 -7 -10.5t-8 -10.5q-19 -25 -34 -38q-8 -6 -19 -5t-18 9.5t-6 19.5t10 18q10 8 25 28q1 1 7 10t8 10q6 9 17 11t19.5 -4.5t10.5 -17.5t-5 -20z" />
    <glyph glyph-name="ucircumflex" unicode="&#xfb;" horiz-adv-x="422" 
d="M150 660q-1 -6 -2.5 -25t-3.5 -38t-3.5 -36.5t-1.5 -18.5q-9 -106 -11 -182q-3 -149 20 -227q13 -43 33 -61q18 -18 44 -15q15 2 31 15q21 16 28 42t8 69q1 33 -2 89q0 8 -1 23v1q0 1 -0.5 2t-0.5 1.5v1.5v6q-1 12 -1 23q-5 111 0 261q0 8 1 34t1 29q0 12 9 20.5t21.5 8
t21 -9.5t8.5 -21q0 -3 -1 -29t-1 -34q-5 -147 0 -256q0 -11 1 -23v-6v-3q1 -1 1 -3q0 -14 1 -22q3 -59 2 -94q-1 -51 -10 -85q-13 -44 -49 -72q-29 -24 -61 -27q-54 -6 -93 30q-31 30 -48 88q-26 87 -23 245q2 79 11 186q0 2 2 19t3.5 36l3 38t2.5 24q1 13 10 21t21.5 7
t21 -10t7.5 -22zM149 752q13 34 37 79q2 4 5 8q14 20 36 19q17 -1 31 -17q12 -14 26 -48q0 -2 2 -6t3.5 -8t2.5 -7l1 -3q5 -11 7 -15q5 -10 2 -21t-13.5 -16.5t-21 -2t-16.5 13.5q-3 6 -9 20l-2 5q-2 5 -4 10.5t-3 8.5q-4 9 -7 16q-16 -30 -25 -55q-4 -11 -14.5 -15.5
t-21.5 -0.5t-15.5 14.5t-0.5 20.5z" />
    <glyph glyph-name="udieresis" unicode="&#xfc;" horiz-adv-x="422" 
d="M178 781q18 -8 18 -28q0 -5 -1 -10q-1 -9 -6 -15q-12 -17 -31 -13q-11 2 -18 10q-11 11 -14 31q-2 12 5 22t19 12q16 3 28 -9zM291 781q18 -8 18 -28q0 -6 -1 -10q-1 -9 -6 -16q-11 -16 -31 -12q-10 2 -18 10q-10 11 -14 30q-2 12 5 22.5t19 12.5q17 3 28 -9zM150 660
q-1 -6 -2.5 -25t-3.5 -38t-3.5 -36.5t-1.5 -18.5q-9 -106 -11 -182q-3 -149 20 -227q13 -43 33 -61q18 -18 44 -15q15 2 31 15q21 16 28 42t8 69q1 33 -2 89q0 8 -1 23v3q-1 2 -1 3v6q-1 12 -1 23q-5 111 0 261q0 8 1 34t1 29q0 12 9 20.5t21.5 8t21 -9.5t8.5 -21
q0 -3 -1 -29t-1 -34q-5 -147 0 -256q0 -11 1 -23v-6v-3q1 -1 1 -3q0 -14 1 -22q3 -59 2 -94q-1 -51 -10 -85q-13 -44 -49 -72q-29 -24 -61 -27q-54 -6 -93 30q-31 30 -48 88q-26 87 -23 245q2 79 11 186q0 2 2 19t3.5 36l3 38t2.5 24q1 13 10 21t21.5 7t21 -10t7.5 -22z" />
    <glyph glyph-name="yacute" unicode="&#xfd;" horiz-adv-x="476" 
d="M101 707q1 -1 6.5 -16t12 -31.5t8.5 -23.5q15 -39 26 -66q36 -92 67 -159q1 -1 1 -3q9 17 22 45q25 53 35 73q47 102 68 183q3 12 13.5 18.5t22.5 3.5t18.5 -13.5t3.5 -22.5q-22 -87 -72 -194q-9 -21 -35 -74q-23 -47 -36 -76l-10 -22l-1 -1q0 -30 -1 -77q-2 -55 -2 -76
q-1 -73 8 -143q1 -12 -6.5 -22t-20 -11.5t-22.5 6.5t-11 20q-9 74 -8 150q0 23 2 78q1 50 2 82q-13 25 -25 51q-33 68 -69 162q-11 28 -26 67q-2 7 -8.5 23t-12 31.5t-6.5 16.5q-4 12 1 23t16.5 15.5t23 -0.5t15.5 -17zM294 794q-1 -2 -7 -10.5t-8 -10.5q-19 -25 -34 -38
q-8 -6 -19 -5t-18 9.5t-6 19.5t10 18q10 8 25 28q1 1 7 10t8 10q6 9 17 11t19.5 -4.5t10.5 -17.5t-5 -20z" />
    <glyph glyph-name="ydieresis" unicode="&#xff;" horiz-adv-x="476" 
d="M300 843q18 -8 18 -28q0 -5 -1 -10q-1 -9 -6 -15q-12 -17 -31 -13q-11 2 -18 10q-11 11 -14 31q-2 12 5 22t19 12q16 3 28 -9zM180 841q18 -8 18 -28q0 -5 -1 -10q-1 -9 -6 -15q-12 -17 -31 -13q-11 2 -18 10q-11 11 -14 31q-2 12 5 22t19 12q16 3 28 -9zM101 707
q1 -1 6.5 -16t12 -31.5t8.5 -23.5q15 -39 26 -66q36 -92 67 -159q1 -1 1 -3q9 17 22 45q25 53 35 73q47 102 68 183q3 12 13.5 18.5t22.5 3.5t18.5 -13.5t3.5 -22.5q-22 -87 -72 -194q-9 -21 -35 -74q-23 -47 -36 -76l-10 -22l-1 -1q0 -30 -1 -77q-2 -55 -2 -76
q-1 -73 8 -143q1 -12 -6.5 -22t-20 -11.5t-22.5 6.5t-11 20q-9 74 -8 150q0 23 2 78q1 50 2 82q-13 25 -25 51q-33 68 -69 162q-11 28 -26 67q-2 7 -8.5 23t-12 31.5t-6.5 16.5q-4 12 1 23t16.5 15.5t23 -0.5t15.5 -17z" />
    <glyph glyph-name="quoteleft" unicode="&#x2018;" horiz-adv-x="187" 
d="M108 686q-3 -44 8 -84q3 -12 -3 -22.5t-18 -14t-22.5 2.5t-14.5 18q-13 50 -9 104q0 13 9.5 21t22 7.5t20.5 -10t7 -22.5z" />
    <glyph glyph-name="quoteright" unicode="&#x2019;" horiz-adv-x="186" 
d="M53 599q7 44 -1 84q-2 13 5 23t19.5 12t22.5 -5t12 -19q9 -51 1 -104q-2 -13 -12 -20t-22 -5.5t-19.5 11.5t-5.5 23z" />
    <glyph glyph-name="quotedblleft" unicode="&#x201c;" horiz-adv-x="316" 
d="M108 686q-3 -44 8 -84q3 -12 -3 -22.5t-18 -14t-22.5 2.5t-14.5 18q-13 50 -9 104q0 13 9.5 21t22 7.5t20.5 -10t7 -22.5zM231 704q2 -31 4 -47q3 -22 9 -40q5 -12 -0.5 -23t-17 -15.5t-23 1t-15.5 16.5q-9 24 -13 54q-2 17 -4 51q-1 12 7.5 21.5t21 10t21.5 -8t10 -20.5
z" />
    <glyph glyph-name="quotedblright" unicode="&#x201d;" horiz-adv-x="312" 
d="M181 608q2 31 1 46q0 23 -5 42q-3 12 3.5 22.5t18.5 13.5t22.5 -3.5t13.5 -18.5q7 -25 7 -54q1 -18 -1 -51q-1 -13 -10 -21t-21.5 -7.5t-21 9.5t-7.5 22zM53 599q7 44 -1 84q-2 13 5 23t19.5 12t22.5 -5t12 -19q9 -51 1 -104q-2 -13 -12 -20t-22 -5.5t-19.5 11.5t-5.5 23
z" />
    <glyph glyph-name="Euro" unicode="&#x20ac;" horiz-adv-x="536" 
d="M427 645q-90 29 -142 -52q-33 -53 -45 -138q54 -2 102 -2q13 0 21.5 -8.5t8.5 -21t-8.5 -21.5t-21.5 -9q-51 0 -107 2v-22q0 -15 1 -30q55 -2 104 -2q13 0 21.5 -8.5t8.5 -21t-8.5 -21.5t-21.5 -9q-47 0 -98 2q13 -79 44 -130q23 -39 53 -53q29 -13 66 1q11 5 22.5 0
t16 -16.5t-0.5 -23t-16 -16.5q-61 -23 -113 1q-46 21 -79 76q-40 65 -54 163q-45 3 -95 6q-12 1 -20.5 10.5t-7.5 22t10.5 20.5t21.5 7q44 -3 86 -5q-1 13 -1 27v25q-42 2 -87 5q-12 1 -20.5 10.5t-7.5 22t10.5 20.5t21.5 7q46 -3 88 -5q13 101 55 167q36 58 90 78t121 -1
q12 -4 17.5 -15t1.5 -23t-15 -17.5t-23 -1.5z" />
    <glyph glyph-name="uni3000" unicode="&#x3000;" horiz-adv-x="1000" 
 />
  </font>
</defs>
</svg>
