<?xml version="1.0" standalone="no"?>
<!DOCTYPE svg PUBLIC "-//W3C//DTD SVG 1.1//EN" "http://www.w3.org/Graphics/SVG/1.1/DTD/svg11.dtd" >
<svg xmlns="http://www.w3.org/2000/svg" xmlns:xlink="http://www.w3.org/1999/xlink" version="1.1">
<metadata>
Created by FontForge 20170731 at Mon Feb  6 20:38:14 2017
 By Aleksey,,,
Copyright (c) 2017 by Alif Devan R. All Rights Reserved
</metadata>
<defs>
<font id="VincentiaRegular" horiz-adv-x="416" >
  <font-face 
    font-family="Vincentia"
    font-weight="500"
    font-stretch="normal"
    units-per-em="1000"
    panose-1="0 0 0 0 0 0 0 0 0 0"
    ascent="800"
    descent="-200"
    x-height="411"
    cap-height="667"
    bbox="-327.22 -422.308 1162.22 829.333"
    underline-thickness="50"
    underline-position="-200"
    unicode-range="U+000D-00A0"
  />
<missing-glyph horiz-adv-x="650" 
 />
    <glyph glyph-name=".notdef" horiz-adv-x="650" 
 />
    <glyph glyph-name=".notdef" horiz-adv-x="650" 
 />
    <glyph glyph-name=".null" horiz-adv-x="0" 
 />
    <glyph glyph-name="nonmarkingreturn" horiz-adv-x="333" 
 />
    <glyph glyph-name="controlCR" unicode="&#xd;" 
 />
    <glyph glyph-name="space" unicode=" " 
 />
    <glyph glyph-name="exclam" unicode="!" horiz-adv-x="205" 
d="M132 77q1 -21 -3 -46q-1 -4 -9 -15q-12 -15 -37 -16q-22 0 -46 13q-1 0 -3 1.5t-3.5 2t-2.5 1.5q-14 6 -17 21q-1 3 -2 7t-2.5 8.5t-2.5 6.5q-5 18 2 38q3 9 11 7q11 -1 33 6q6 2 18 2.5t16 1.5q7 1 15 0q13 -3 19 -6q4 -2 8 -12q0 -2 6 -21h-8h8zM71 341v1l-1 -1h1z
M51 269v1q-1 -1 -1 -2q1 0 1 0.5v0.5zM37 299l-1 1v-1h1zM24 166q-5 26 -5 30q-2 9 -2 10q1 8 1.5 21t1 18.5t1 13t1 14.5t1.5 13q0 8 3 49v3v3q3 22 7 54q0 2 0.5 5.5t1 6.5t0.5 6q0 17 9 56q4 19 7 40q0 2 1 31q3 2 6.5 2t8 -0.5t7.5 -0.5q36 2 45 0q10 -1 18 -3t14 -10
q5 -6 3 -14q-3 -18 -8 -53q-3 -20 -9 -39q-3 -12 -6 -35q-8 -56 -10 -85q-5 -42 -6 -71q0 -4 -0.5 -12t-1.5 -11q0 -1 -1.5 -12t0.5 -12q1 -1 -1 -10q-1 -7 -9 -8h-7l-26 2q-5 0 -13.5 -1.5t-11.5 -1.5q-5 0 -8 1q-7 2 -12 0z" />
    <glyph glyph-name="dollar" unicode="$" horiz-adv-x="392" 
d="M261 189h1l-1 2v-2zM192 299v1l-1 -1v-1zM181 340v-1h1zM212 563q0 -1 0.5 -1t1.5 -1l-1 2h-1zM208 582h1l-1 1v-1zM205 603l1 -1l1 1h-2zM39 167v1l-1 -1v-1q1 0 1 1zM171 218v1q-1 0 -3 -1v-1q1 0 3 1zM159 136l1 2l-1 2l-2 -2zM176 197h3q1 0 2 4l-3 -2zM176 435
q-6 -5 -6 -6q-17 -35 -17 -36q-8 -25 -12 -45q-3 -18 3 -33q1 -2 2.5 -7t2 -7t2 -3.5t3 -2.5t3.5 -2.5t3 -2.5l2 1q2 2 5 7q-2 9 -2 10q-1 12 5 65q4 40 6 62zM201 157q3 -2 4 -7l2 -11q7 9 8 9q15 8 25 33q12 29 4 53q-4 10 -12.5 14t-18.5 0q-2 -7 -2 -8q-3 -35 -5 -70
q-1 -11 -5 -13v-2v2zM39 177q2 6 9 4l2 -1q9 -8 21 -9q2 -1 5 -3l2 -2q6 -4 12 -10.5t12 -14.5t10 -13l4 -4.5t6 -6.5q11 -9 27 1v27q1 4 1 16.5t4 15.5q-3 3 -1 11t1 10q-1 7 5 15l-1 -1l2 -4l1 1q-1 1 -2 4l-2 6q-3 7 2 11l1 -2l-0.5 1t-1.5 1q0 2 2 6.5t1 7.5q-1 1 1 15
q-12 5 -13 6q-3 1 -9 3.5t-10.5 5t-8.5 6.5q-6 0 -26 14q-42 27 -45 82q-1 22 8 46l2 6t1.5 5.5t1.5 6t2 6.5q9 27 21 43q21 27 42 32q5 1 15 4q12 4 20 0q4 -2 22 -1q7 28 12 84q7 5 13 1q3 -2 11 -5.5t12 -6.5q13 -13 11 -27q-1 -7 -1 -11q3 -13 -1 -37q19 -3 21 -3
q8 -1 28 -10q16 -8 10 -27q-3 -8 -10 -10q-2 0 -22 -5q-2 2 -6 7l-6 7.5t-6.5 5t-8.5 3.5q-2 -1 -4 -12q-1 -4 -2 -14q-4 -39 -6 -51q0 -6 -1 -13.5t-1.5 -13t-1 -13t-1.5 -12.5q-1 -6 -2 -17.5t-2 -14.5q-2 -24 -3 -25q-1 -4 -1 -12t-1 -12q-2 -7 6 -8q26 -2 67 -17
q20 -7 38 -32t10 -60q-4 -18 -18.5 -36.5t-27.5 -26.5l-9 -6q-16 -13 -41 -15l-35 -5q-1 0 -5 -2q-2 -10 -3 -39q0 -17 -1 -23q0 -7 -10 -8q-4 -2 -10 -0.5t-7 0.5t-5.5 2t-5 3t-5 4t-5.5 5l-7 4v33q0 1 2.5 1.5t1.5 2.5q-3 6 -3 9t3 11l-6 4q-31 5 -44 14q-6 4 -14 6
q-6 1 -11.5 4.5t-12 7.5t-10.5 7q-23 13 -30 23q-7 1 -12 11t-6 11q3 4 6.5 12.5t8.5 12.5q2 -7 3 -8q6 5 6 6q2 -1 6 -2t6.5 -3t2.5 -6q-1 1 -4 1q1 0 2 -0.5t2 -0.5z" />
    <glyph glyph-name="ampersand" unicode="&#x26;" horiz-adv-x="418" 
d="M19 128l-1 1q-1 0 -3 -1l1 -1zM186 425q-1 0 -1 0.5v0.5l-1 -1l1 -1zM43 394l-1 -2v-1l1 1v2zM83 100v-1l1 1h-1zM225 122q1 9 1 10t1.5 7t1.5 9q0 2 -1.5 7.5l-1.5 5.5v3v2q1 10 -7 11q-11 1 -17 0q-4 0 -12.5 1.5t-13.5 0.5q-8 -1 -11 7q4 2 12 5t14.5 5t13.5 2
q13 1 15 8q1 1 6 2h8.5h8.5q8 1 54 10q6 2 41 3q7 0 15 -1q5 0 10 -2.5t4 -8.5t-7 -6q-5 0 -24 -4q-8 -2 -23.5 -4.5t-22.5 -4.5q-1 0 -5 -4l1 -4q0 -1 1 -2l1 2q-1 1 -3 4q7 -2 10 -4q12 -25 11 -54q0 -5 -2.5 -13.5t-3.5 -12.5q0 -4 -5 -21q-1 -4 -3 -4q-5 1 -5 -6
q-1 -3 -3 -6t-5 -6t-4 -6q-4 -1 -7.5 -4t-7 -7.5t-6.5 -6.5q-19 -17 -34 -23q-11 -4 -29 -7q-35 -7 -73 3q-42 11 -83 43q-26 20 -34 57q0 1 0.5 3t0.5 3q-3 36 5 58q1 4 5 13l2 2l1 3q1 6 3.5 10.5t7.5 10t7 7.5q0 1 13 9q1 0 8 4q-2 4 -5 7t-8 7t-6 5q-18 15 -25 39
q-11 42 11 89q7 15 8 16q0 3 1.5 5.5t4 5.5t3.5 4.5t2.5 4t2.5 4t2.5 3.5t2.5 4q0 1 4 4.5t4 7.5q0 2 1.5 3.5t3.5 3t3 2.5q9 9 22 8q22 -3 74 -2q29 1 49 -7q17 -6 25 -19q11 -17 15 -43q1 -6 -2 -16q-4 -13 -19 -13q-19 0 -29 13v12q0 13 -12 35q-1 1 -3 2q-3 3 -20 15
q-11 -3 -23 -16t-19 -29q-11 -28 -16 -36q-3 -5 -8 -20q-1 -4 -1.5 -8t-1.5 -8t-2 -7q-6 -26 2 -55q0 -1 9 -17q17 -4 19 -4q3 -1 7.5 -2l9 -2t7.5 -2q5 -1 10 -8q-2 -3 -4.5 -4t-6 -1.5t-4.5 -0.5q-16 -6 -21 -14q-1 -1 -2.5 -3t-3.5 -3t-3.5 -3t-2.5 -4q-8 -14 -7 -20
q0 -1 -3 -10q-9 -30 -10 -55q-1 -24 14 -50q7 -11 21 -16q10 -4 23 3q1 1 12.5 6.5t16.5 9.5q34 26 44 61q1 1 5 9v-2v2z" />
    <glyph glyph-name="parenleft" unicode="(" horiz-adv-x="267" 
d="M22 74h1v1zM73 92v-1h0.5h0.5v1h-1zM42 362l1 -1v1h-1zM43 24l1 1v1l-1 1v-3zM23 197h-1l1 -1v1zM63 445v-1v-1v1v1zM23 105l-1 -2l1 -3v5zM23 121v1l-1 -2v-1q1 1 1 2zM41 409q3 3 4 3q0 2 -2 4q0 -1 -2 -7zM22 222l1 1v14l-2 -1zM20 334q4 3 3.5 16t3.5 26q8 33 14 46
q3 5 4 9q1 9 8 24t8 18l2 2v-3v3q0 10 14 36q24 45 45 74q14 18 26 26q31 -6 33 -6q10 -3 29 -17q1 -1 7 -14q-28 -43 -34 -52q-4 -6 -5 -9q-3 -8 -7.5 -17t-9 -16.5t-9 -17t-8.5 -16.5q-1 -3 -3 -7.5t-3.5 -8.5t-2.5 -8q-19 -47 -25 -67q-12 -49 -18 -86q-4 -28 -4 -30
t-2.5 -6t-1.5 -8v-6t-1 -6t-1 -7v-16v-8.5v-8.5q-1 -39 -1 -41q0 -8 3 -35q1 -4 2.5 -13.5t1.5 -14.5q1 -9 3 -19t5 -21.5t4 -18.5l1 -1t1 -2q0 -14 20 -39q5 -7 6 -10q4 -8 10 -13q1 0 5 -8q-4 -4 -5 -4q-25 -3 -38 1q-28 10 -40 26q-1 1 -3 3.5t-3.5 4.5t-3.5 4t-3 4.5
t-1.5 5t-1.5 5.5q0 4 -2 4q-6 0 -10 9q-5 11 -8 24q0 1 -1 19q-3 -4 -3 -5l-2 2q-6 20 -7 26q-2 12 -6 35q-1 8 -1 14.5v14.5t-0.5 14t-0.5 14v15q0 13 2 16q1 2 1 3q-4 3 -3 18t1 18v6v5q-1 8 3 13q-4 4 -1 12q2 7 2 8q-1 6 1 15.5t2 10.5q0 5 1.5 14t2.5 13q0 4 6 9h-1z
" />
    <glyph glyph-name="parenright" unicode=")" horiz-adv-x="234" 
d="M83 -19h-1h1zM136 336l-1 1v-1h1zM176 358l-1 -1h1v1zM176 395l-1 1v-2zM75 153v0.5t-1 0.5q0 -1 -1 -1q0 -1 1 -1zM175 325v-1t-1 -2h2v3h-1zM176 413v2h-1v-2h1zM109 244l2 1h-2h-1q0 -1 0.5 -1h0.5zM66 102l-1 1l-2 1l-1 1l-1 1q3 18 4 19q1 15 4 19v1v2q0 10 2 12
t12 5l-5 1q-2 1 -2 5v4q0 2 3 6.5t-1 6.5q2 14 2 15q3 14 3 15q0 4 4 34q4 27 5 31q2 6 4 25q0 5 1.5 31.5t3.5 40.5q1 15 -3 58q-2 19 -17 70q-10 35 -21 55q-10 19 -22 28q1 2 6 2q26 -1 57 -11q14 -5 24 -18q13 -15 16 -20q6 -10 10 -20q0 -1 10 -33q5 -18 7 -22
q4 -10 6.5 -21.5t5 -27t3.5 -21.5v-9q-6 -3 -8 -3q0 -4 3 -3q2 1 3 0l2 -2q1 -21 1 -27q-1 -11 -3 -40q-1 -5 -2 -5q-6 -3 -2 -6q5 -6 1 -13t-4 -24q-1 -17 -6 -46.5t-6 -41.5q0 -5 -2 -6q-5 -4 -6 -17q-1 -4 -2 -12q-6 -21 -9 -35q-1 -5 -8 0v-2q0 -1 2 -3q2 -3 3 -5
q0 -1 -3 -10q-7 -29 -7 -30q-3 -11 -8 -16q-8 -9 -8 -18q0 -8 -5.5 -21.5t-6.5 -16.5t-4 -8t-3 -7q-1 -3 -3.5 -7.5t-2.5 -8.5q0 -5 -4 -8q-2 -2 -3 -3.5l-2 -3t-2 -3.5t-1.5 -3.5t-2 -3l-2.5 -2.5q-7 -7 -15 -6q-2 1 -7 1t-8.5 1t-6.5 4q0 1 -3 0.5t-5 0.5q-5 2 -8 5
q-1 1 -2 4t-2 4t-4.5 1.5t-4.5 0.5q-1 1 -6 5q1 8 9.5 9t9.5 3q-5 4 -2 13q1 3 2.5 4t4.5 1.5t4 1.5q-1 0 -2.5 1t-2.5 2l3 8q2 4 10 27q1 1 10 34q0 1 0.5 2.5t1.5 1.5q0 2 2 3.5t3.5 3t1.5 3.5q0 1 1 12q5 3 6 3q-7 4 -5 13q3 7 9 7z" />
    <glyph glyph-name="plus" unicode="+" horiz-adv-x="463" 
d="M213 17v1l-1 -1h1zM152 24h-1l1 -1v1zM389 196v-1h2zM213 64l-1 1v-1.5t1 -0.5v1zM355 225q-1 -1 -1 -3l1 1v2zM334 221l1 1q0 1 -1 4v-5zM153 73h-2v-9h1zM151 113h1h1v4l-1 5h-1v-9zM221 153v-85v-31q1 -11 1 -13q2 -3 -1 -17q-7 0 -8 -1q-1 0 -5.5 -2t-5.5 -1.5
t-6 0.5q-3 2 -8 1.5t-8 0.5q-6 2 -18.5 4.5t-19.5 5.5q-7 21 -7 24q-2 6 -1 8q1 5 0 28v16v16q0 1 1.5 3t1.5 3.5t-3 3.5v13t-1 14q-24 -3 -25 -3q-60 -6 -78 -5q-9 0 -16 10q-4 5 -6.5 12t-3.5 13t-2 14q0 2 -2 25l7 2q42 3 61 4q2 0 5.5 0.5t6.5 1t6 1.5t6.5 1.5t5.5 0.5
q3 0 34 3q7 8 5 18q0 1 1 23q1 6 2 14.5l2 17t1 14.5q3 40 4 54q1 1 1 3t0.5 3.5l1 3t0.5 3.5v3t-3 17q31 5 33 5q22 -1 46 -15q14 -8 12 -24q-3 -22 -9 -89q-1 -2 -4 -47q9 -2 10 -2q2 0 13 2t17 1q2 0 13 2t14 -1q7 4 19.5 4t14.5 1q22 4 46 -2q2 -7 3 -12v1q1 6 1 7
q1 6 5 6q3 0 8 -3q1 -1 3 -4q1 -1 3 -9t5 -11q3 -2 5.5 -9t4.5 -10q1 0 3 -12q-9 -1 -10 -1l-8 -1q-7 -5 -26 -4h-5.5h-7.5q-2 0 -4 -0.5l-4 -1t-4 -0.5q-3 0 -21.5 -3t-28.5 -2q-5 0 -10 -3q-6 -5 -11 -1q-2 -4 -12 -4q-5 0 -13.5 0.5t-13.5 -0.5q-1 0 -13 -3z" />
    <glyph glyph-name="comma" unicode="," horiz-adv-x="189" 
d="M92 -17l-1 -1l1 -2l1 2zM125 21h1h-3h2zM12 66l-0.5 0.5t-0.5 1.5q-1 -2 -1 -2.5t1 -1.5zM11 99q41 4 44 5q19 2 30 -9q5 -6 11 -5q5 1 15 -4q1 -1 15 -10q15 -37 7 -67q-1 -4 -2 -12q0 -22 -7 -35q-1 -2 -1.5 -4.5l-1 -5t-0.5 -3.5q-1 -2 -5 -7l-4 3q-1 -6 -1 -7
q-2 -13 -13 -13q-16 -1 -24 5q-1 2 -3.5 3.5t-4.5 3t-4 3.5l-4 4l7 6q6 0 10 9q13 26 12 54q-2 1 -10 0q-17 -2 -44 13q-15 9 -19 13q-17 20 -9 48z" />
    <glyph glyph-name="hyphen" unicode="-" horiz-adv-x="372" 
d="M309 179h-1v-2l1 1v1zM3 224q26 1 27 1q7 0 17 1t17 1.5t16.5 0.5t16.5 1q35 1 44 -2q2 -1 3 0q5 3 13.5 3t13.5 1t9 -2q5 -3 17 -3h28h26q11 1 13.5 0t7.5 1q2 0 2 3v1q2 2 5 2t5 -3q9 -13 16 -25q1 -3 0 -5q-2 -3 1 -4q12 -7 20 -32l-2 -13q-40 5 -47 6q-6 1 -8 0
q-6 -4 -23 -4q-48 0 -70 -1q-3 0 -34 -2q-40 -4 -48 -5q-3 0 -12 -2.5t-14 -1.5q-6 0 -15 -2q-13 -3 -29 13q-6 6 -9 14q-1 5 -7 29q-4 16 0 29z" />
    <glyph glyph-name="period" unicode="." horiz-adv-x="175" 
d="M11 84q26 6 55 4l8 -1q4 -3 29 -12q23 -8 19 -33q-1 -8 -1 -10q0 -5 -6 -15q-2 -2 -8.5 -4.5t-6.5 -6.5q-7 -4 -18 -5q-14 -1 -20 0q-11 2 -17 6q-21 12 -23 13q-10 5 -15 20q-10 25 4 44z" />
    <glyph glyph-name="slash" unicode="/" horiz-adv-x="389" 
d="M34 -48l1 1v1h-1v-2zM56 -26q-1 0 -1 1l-1 -1l1 -1zM55 14l-1 -1l1 -2v1.5v1.5zM116 241v1.5t-1 -0.5v-1h1zM136 283h-1v-2zM175 380h-1l1 -1v1zM53 39l1 -1v2zM116 178q0 1 -0.5 1.5l-0.5 0.5l-1 -1q1 0 2 -2v1zM30 -3l2 -2l4 2l-2 3q-2 -2 -4 -3zM36 -21q-1 0 -2 0.5
l-1 0.5v-8h2q1 4 1 7zM56 60l1 1l1 -1h-3v3l-1 -1zM197 461q-2 25 9 41q4 16 15 44t15 38q12 37 12 47l2 3q32 -5 36 -6q9 -2 17 -6q3 -2 8 -4.5l8 -4t7 -4.5t7.5 -6.5t5.5 -7.5q-7 -26 -18 -51q-2 -4 -4 -13t-4 -12q0 -3 -3 -8t-4 -7q0 -2 -0.5 -4.5t-0.5 -4.5t-0.5 -4
t-1.5 -3q-5 -9 -11 -25.5t-7 -20.5q-3 -6 -7 -18.5t-6 -15.5q-2 -6 -27 -74q-21 -55 -23 -59q-4 -9 -8 -20.5t-8.5 -22.5t-8.5 -20q-2 -5 -5 -15t-5 -15q-5 -12 -12.5 -34.5l-10.5 -31.5q-2 -4 -4.5 -11.5t-5 -13.5t-5.5 -10q-2 -3 -3 -11q-2 -7 -7 -20.5t-6 -20.5
q-5 -23 -15 -34q-4 -6 -4 -13q1 -4 -0.5 -9t-3 -8.5t-3.5 -8.5t-3 -8q-3 -8 -8 -8l-1 -1.5t-1 -2.5q4 -6 -2 -14q-3 -4 -11 -5q-3 0 -12 -5q-7 -4 -12 -2q-25 7 -42 9q-1 0 -15 6q1 3 1 9.5t1.5 11t4.5 8.5q4 2 6 -3l2 1v8q0 23 8 33q2 3 2 5q-2 10 13 19q-3 6 -3 8t3.5 6.5
t4.5 6.5q-5 6 -3 10q2 3 7 17q1 3 4 6.5t4 5.5t1 6.5v6.5q5 16 9 24q0 1 1 4q1 7 6 8q0 1 1.5 3.5t2.5 4t0.5 4t-1.5 4.5q2 5 6 18t7 19q2 4 14 38q1 2 4 11t5 14q8 20 14 43q0 1 1 3t2 3q0 4 9 6l-2 11q1 4 4 12q1 3 7 17l9 21q0 3 1.5 8t3 8.5t4.5 6.5q0 5 3.5 14t4.5 12
q4 18 6 24q0 2 9 25q1 2 10 5z" />
    <glyph glyph-name="zero" unicode="0" horiz-adv-x="292" 
d="M154 377q-6 -18 -11 -25q-2 -3 -8 -20q-3 -8 -8 -23t-8 -23q-1 -3 -3.5 -8.5t-3.5 -8.5q-2 -4 -4 -12t-3 -9q-10 -32 -10 -33q-3 -13 -7 -45q-1 -11 -3 -35q-1 -7 -1.5 -19.5t-0.5 -15.5q0 -6 1 -17t1 -16q0 -9 3 -20q0 -2 7 -15q4 -7 11 -3q13 6 15 12l4 5q12 16 12 17
q26 56 30 97q1 20 6 32q0 2 2.5 6t2.5 6q2 68 1 79q-1 18 -1 26q2 12 -3 24q-2 5 0 6q2 2 3 4t0.5 5.5t-0.5 4.5l-1 3q-2 -6 -2 -7q-2 -4 -1 -4h-3q-2 14 -17 32zM79 403l3 1q32 0 40 2l17 -5q10 -3 11 -3q4 2 15.5 1.5t14.5 -0.5q20 2 34 -18q1 -1 2.5 -3t2.5 -4t3 -4
q12 -14 14 -37q0 -5 1 -16.5t1 -16.5q1 -3 2 -7.5t1 -5.5q1 -6 0 -6q-2 -4 -3 -20q0 -4 -2 -18q-1 -1 -1.5 -4t-1 -4t0.5 -4q3 -9 -5 -20q-1 -2 -1 -4q1 -7 0 -13.5t-4 -15t-3 -12.5q-4 -18 -4 -20q0 -7 -2 -16q-7 -27 -12 -39q-1 -4 -18 -44l-3 -6q-6 -3 -6 -13
q-1 -12 -16 -18q-2 -1 -11 -6q-8 -4 -26 -4q-34 0 -55 11q-34 17 -47 37q-18 25 -20 58q-2 42 4 80q1 6 3 23t4 27q4 20 8 29q4 10 8 29q0 3 2.5 7t4.5 8t2 7q1 5 8 22q3 8 11 23q6 12 11 21q1 2 12 21z" />
    <glyph glyph-name="one" unicode="1" horiz-adv-x="203" 
d="M97 121l-1 1v-2zM96 77l1 1l-1 1v-2zM56 359v-1v-2q1 1 1 1.5t-1 1.5zM138 62h-1v-1zM77 72v1h-3v-1h3zM137 11q0 -7 -10 -10q-2 -1 -12.5 1.5t-12.5 3.5q-6 7 -12 7q-5 0 -10 6q-2 2 -6 4.5t-7 5.5t-4 7q1 7 0 77q0 4 -1 17t0 19q2 70 7 150q1 28 1 32q-3 0 -5.5 -4
t-3.5 -5q-6 -2 -10 -9q-1 -1 -3.5 -6.5t-5 -8.5t-6.5 -5q-1 0 -1 -3t-2 -5l-3 -3t-4.5 -2.5t-4.5 -1.5q-2 2 -8 0t-8 -2l-4 2q-1 3 0.5 6t4 5.5t3 4.5t3 4t4 4t2 5t3.5 7.5t3 6.5q5 11 10 15q1 1 2 4l1 2q2 3 4.5 10.5t5.5 13t8 9.5l4 12q3 9 14 13q27 8 52 3q13 -3 22 -11
q6 -5 6 -12q-1 -8 -1 -25q-1 -47 -3 -81q-1 -5 -2.5 -16t-2 -16t0.5 -16q-2 -7 -2.5 -15.5t-0.5 -17.5t-1 -16q-7 -7 -8 -7q-2 -6 3 -11q2 -2 2 -8q0 -55 1 -57q0 -8 1 -22.5t1 -20.5q1 -12 0 -30q0 -1 -4 -10q0 1 1 3z" />
    <glyph glyph-name="two" unicode="2" horiz-adv-x="289" 
d="M43 104h1h-2h1zM51 351q3 23 11 36q9 14 22 17q31 8 53 8q25 0 51 -10q16 -7 26 -15q27 -19 21 -55q-5 -26 -24 -63q-11 -22 -14 -25q-3 -4 -5 -10q-3 -11 -14 -29q-13 -23 -20 -40q-3 -6 -9 -15t-8 -14q-2 -3 -6.5 -9t-5.5 -11q-1 -4 -5.5 -10.5t-5.5 -9.5q-3 -6 -8 -17
t-5 -12q-6 -13 -13 -29q0 -1 -2 -8q6 -1 20 -1q7 0 23.5 1.5t24.5 1.5q37 1 55 0q15 -1 26 -12q-5 -12 -19 -12h-20h-20q-29 -1 -56 -3q-6 0 -18.5 -1.5t-17.5 -2.5q-34 -2 -56 9q-2 2 -8 4t-8 4q-7 3 -5 9q2 2 -4 6q-8 5 -5 14q0 1 0.5 4t1.5 4q5 8 10 24t9 23q4 6 10 24
q4 11 10 19q2 3 15 27q2 5 6 11t7 11t6.5 11.5t6.5 10.5q2 3 4 8t3 7q7 13 15 27q38 65 45 84q11 26 -1 49q-15 4 -37 -2q-4 -1 -7 -6q-3 -4 -6.5 -9t-7.5 -11.5t-6 -9.5q-6 -9 -7 -10q-12 -8 -12 -14q-3 0 -8.5 -5t-11.5 -3q-9 15 4 30v-2v0v2z" />
    <glyph glyph-name="three" unicode="3" horiz-adv-x="290" 
d="M110 264l1 3l-1 1q-1 -2 -1 -3zM9 78l-0.5 0.5t-0.5 1.5l-1 -1q1 -1 2 -3v2zM46 109l1 -3q4 -2 10 -5.5t11 -6.5l10 -6q7 -4 11 -12t16 -27q7 -11 17 -1q4 3 7.5 8.5t5 9t4 11t3.5 9.5q14 35 8 78q-1 2 -7 28q-20 12 -21 13q-7 3 -15 3q-7 1 -17 5q-11 5 -14 14
q-2 8 -9 9q-2 1 -2 3.5t2 3.5q3 1 9 6.5t11 6t16 16.5t15 25q10 27 17 56q5 19 5 33q0 5 -1 9l-2 8l-8 1q-22 -5 -29 -13l-10 -6q-14 -10 -30 1l-11 9l3 7q17 19 36 21q16 2 26 2q30 2 39 1q20 -1 31 -6q25 -12 35 -42q2 -8 1 -28q-1 -24 -9 -44q-1 0 -5 -16q-7 -28 -26 -60
l2 -4q30 -11 47 -49q8 -18 8 -38q1 -35 1 -37q-3 -14 -4 -17q-1 -1 -4 -17q-3 -17 -7 -22q0 -4 -2.5 -8.5t-6 -9t-5.5 -8.5q-4 -10 -16 -13q-28 -7 -43 -5q-45 8 -61 17q-6 3 -21 8t-22 10q-3 3 -11.5 7t-13.5 8.5t-8 11.5q-1 2 -7 5q-6 4 -6 11q0 23 9 38q2 0 5.5 -0.5
t5 -1t4 -1.5t3.5 -3.5t1 -6.5q13 -1 18 4z" />
    <glyph glyph-name="four" unicode="4" horiz-adv-x="338" 
d="M188 41l1 1h-1v-1zM88 289l-0.5 0.5l-0.5 0.5l-1 -1l1 -2zM76 300l-1 1v-1h1zM197 158v1h-1zM86 358q4 17 8 22q2 4 4 15q1 1 2 14q10 1 11 1q8 1 13 -2q11 -9 13 -11q2 -3 3 -11q3 -16 -5 -36q-7 -22 -9 -27q0 -1 -10 -23q-2 -5 -16 -43l-0.5 -2l-0.5 -2q-7 -11 -15 -33
t-10 -27q-1 -4 -4 -7q-5 -5 -4 -11q0 -11 -6 -15l-1 -1q2 -5 -2.5 -15t-1.5 -16q4 -2 9.5 -3t12.5 -1h10q27 -3 52 1q4 0 26 -3q1 -1 10 0q1 3 1 39q0 23 -2 28q-1 1 0 2q4 2 2 15.5t-2 15.5q0 3 0.5 7.5t0.5 9t1 8.5q0 6 1 36t2 46q0 9 1.5 24.5t2.5 22.5v28q2 1 8.5 3t9 2
h10.5q3 -1 10 0t9 1q17 0 48 -15q11 -5 9 -18q0 -4 -1.5 -18.5t-2.5 -22.5q-1 -13 -4.5 -41t-5.5 -42q-1 -7 -2.5 -23t-2.5 -24v-33q1 -21 0 -28q-1 -5 0 -5q3 -1 2.5 -30t-0.5 -30q1 -8 2 -27.5t2 -29.5q0 -8 -1 -12q-1 -5 -3.5 -7.5t-7.5 -2.5q-23 -2 -43 7q-7 3 -7 8
q0 1 -1.5 2t-2.5 0q-5 -3 -11 4q-5 5 -17 9q0 5 1 37t-2 37h-10q-26 -3 -55 1q-31 4 -39 4q-20 0 -38 2q-12 1 -18 4q-1 1 -14 4q0 1 2 6t0 6q-1 1 -7 11q4 7 4 8q4 7 5 9q7 30 15 40q1 0 3 6q0 1 0.5 3.5t0.5 4t1 3t3 2.5q-2 7 4 16q1 1 4 13q1 3 5 7t4 7.5t4 14.5
q3 9 12.5 33t14.5 37q0 1 6 11v-7h1z" />
    <glyph glyph-name="five" unicode="5" horiz-adv-x="271" 
d="M32 55l-1 1l1 -2v1zM1 55q-1 12 4 19q13 -1 33 -10q3 -1 10 -5t10 -5q3 -2 8.5 -4t8.5 -3q11 -5 20 3q18 14 23 31q17 58 14 99q0 9 -4 30q-1 11 -12 10q-4 0 -11.5 -1t-10.5 -1q-4 -1 -13.5 -2t-14.5 -1.5t-6 -1.5q-6 -5 -15 -3q-25 8 -31 17q-4 5 -4 11v16.5v17
t0.5 16.5t1.5 17q1 2 2 27q2 52 3 65v21q13 7 32 5q33 -2 72 3q5 1 8 0q52 -7 71 -13h1q2 0 2 -1q6 -3 6 -7q0 -5 -7 -6h-2.5h-2.5q-47 -3 -53 -3q-17 -2 -34 2q-5 0 -51 9l-1 -6q8 -33 4 -62q0 -1 -2 -28v-9q-4 -25 -3 -28q1 -1 0 -14t-1 -14t1 -7q43 4 46 4q19 0 40 -4
q24 -6 37 -14q26 -15 33 -39q1 -2 2 -5t2 -5.5t2 -5.5q2 -8 2 -13q0 -47 -10 -89q-6 -24 -14 -34q-2 -4 -5.5 -7t-7.5 -6t-6 -5q-8 -8 -24 -11q-36 -7 -60 2q-39 14 -73 34q-1 0 -20 14z" />
    <glyph glyph-name="six" unicode="6" horiz-adv-x="271" 
d="M150 52l1 -1v2zM171 55q1 1 1 1.5t-1 0.5l-1 -1zM211 167h1h-1zM171 96l1 1l-1 2h-1q0 -1 1 -3zM97 196l-2 -4q-1 -29 -1 -39q0 -6 0.5 -19t0.5 -19q-1 -38 6 -63q1 -4 2.5 -10.5t2.5 -9.5l4 -9q15 8 17 9t4 3q1 2 4.5 6.5t4.5 7.5q1 1 2.5 4t3 4.5t4.5 2.5q4 2 3.5 7
t0.5 8v2q12 24 13 27q4 11 5 19q3 21 0 39q0 1 -0.5 2.5t-0.5 2.5v3q3 12 -9 31q-9 14 -25 12q-19 -3 -40 -17zM101 229q38 9 71 -2q7 -2 26 -12q11 -5 11 -16q0 -8 4 -22.5t5 -18.5q3 -19 1 -30q0 -1 -1 -15v-2.5v-2.5q0 -4 -4.5 -12.5t-4 -14t-3.5 -15t-4 -12.5
q-1 -1 -2 -2.5t-2.5 -2.5t-3.5 -3t-4 -3q0 -1 -1 -6.5t-3 -9.5q-6 -11 -21 -17q-22 -10 -34 -9q-16 1 -24 4q-34 10 -40 13q-30 16 -46 36q-10 12 -12 24q0 5 -2.5 13.5t-3.5 10.5q-3 15 -3 42v88q0 10 1 16q1 14 3 32t3.5 35.5t2.5 31.5q1 4 5 58q7 1 8 1q35 -2 47 -8
q5 0 9.5 -2t8 -4t8 -4.5t8.5 -4.5q13 -5 11 -21q-2 -15 -3 -21q0 -6 -2.5 -22t-3.5 -25q-1 -5 -3 -28q0 -3 -2 -37z" />
    <glyph glyph-name="seven" unicode="7" horiz-adv-x="287" 
d="M58 48zM140 383q-14 -2 -15 -2q-18 -4 -43 -3q-2 0 -17 -2q-18 -2 -25 -2q-10 0 -21 5q-1 1 -18 8q-1 3 4 4q23 9 44 9q15 1 37 8q20 6 28 7q5 1 15 1t15 -0.5t15 -2t15 -2.5q6 -1 26 -11q-1 -6 -2 -8l3 -2l25 -15q12 -6 9 -23q-2 -11 -4 -19q-2 -5 -9 -27t-12 -33
q-1 -5 -3 -10.5t-3.5 -11.5t-3.5 -10q-3 -8 -8.5 -27.5t-10.5 -29.5q-1 -1 -6 -20q-1 -2 -7.5 -25.5t-10.5 -35.5q-2 -7 -2 -11q-1 -8 -4.5 -23t-3.5 -22q-1 -5 -5.5 -20t-4.5 -24q-19 -4 -45 0q-7 1 -20 5t-15 5q-7 2 -10 10q-3 14 1 25q6 12 6 19q0 3 2 6q2 4 3 16
q1 3 6 28l1.5 5.5t2.5 8.5q2 21 9 46q1 3 2 7.5t1.5 8.5t1.5 8.5t3 7.5q3 10 11 34q2 9 4 14q10 41 17 58l17 51q0 1 5 17z" />
    <glyph glyph-name="eight" unicode="8" horiz-adv-x="302" 
d="M26 140v1l-1 1zM25 152h1v1zM212 155h-1v-1zM77 297q10 11 10 12q2 4 7.5 13.5t9.5 14.5q10 17 23 52q4 10 -1 20q-17 7 -39 0q-7 -2 -9 -6q-13 -33 -11 -47q1 -8 3.5 -24t3.5 -22zM202 114q2 8 2 9q-6 5 -6.5 7.5t2.5 8.5q2 4 -1 7q-2 2 -2 8q0 4 -1 8.5t-2.5 9.5
t-2.5 9q0 2 -4 9q-1 0 -2.5 1t-1.5 2l-4 6.5t-8 8.5q0 5 -6 7.5t-7 5.5q0 2 -5 5q-3 2 -5 -1q-3 -5 -7 -14.5t-6 -12.5q-8 -17 -12 -29l-4 -10t-5 -11l-5 -10q-3 -7 -4 -13q-1 -3 -2 -8.5t-1.5 -10.5t-1.5 -9q-5 -21 -3 -27q0 -1 -1 -3q-3 -7 0 -26q2 -2 5 -4t5 -3
q16 4 17 4q21 5 24 6.5t10 7.5t12 7q2 1 2 3q0 3 1.5 6t4.5 6l4 4q11 16 13 35l3 9q1 -2 2.5 -4.5t2.5 -3.5zM29 340l3 6q-1 6 -2 19q-3 27 6 53q30 16 63 13q5 -1 11.5 -2t12 -2t12.5 -2t12 -2q18 -2 36 -16q1 -2 5 -4t6.5 -4t3.5 -5q8 -21 8 -24q4 -22 -4 -53q-1 -6 -5 -8
q-5 -4 -12 -22q-4 -12 -13 -23q0 -1 -7 -14l10 -6q7 -2 15 -11l8 -8t8.5 -9t8.5 -8q4 -4 6 -8q14 -29 18 -36q5 -9 5 -19q0 -1 1 -5q0 -1 2 -4.5t2 -5t-2 -5.5q-1 -3 1.5 -6.5t1.5 -6.5v-4v-4t0.5 -4.5t0.5 -4.5q0 -7 -1 -8q-2 -3 -1.5 -8.5t-1.5 -8.5q0 -1 -5 -14
q-2 -6 -7 -13q-14 -16 -30 -20q-3 -1 -8.5 -4t-7.5 -4q-51 -21 -100 -2q-2 1 -6.5 2t-6.5 2q-5 4 -23.5 13t-27.5 16q-6 5 -15 16q-1 1 -9 14v7q-2 27 4 43q1 5 4 19t6 21l1 2l1 3q12 22 17 43q1 3 2 4q6 6 12 22t9 21q-9 12 -10 13q-1 3 -4.5 6t-4.5 6q-1 2 -3.5 5.5
t-2.5 5.5q-1 9 -4 18q-1 5 2 8q7 7 -1 18v-1z" />
    <glyph glyph-name="nine" unicode="9" horiz-adv-x="357" 
d="M115 264v-1l1 1h-1zM221 121v1l-1 1v-2h1zM193 121q-1 1 -1.5 1h-1.5l1 -1h2zM187 41q-2 1 -2.5 1.5t-1 0l-0.5 -0.5q1 -1 2 -3q1 2 2 2zM187 71q-1 0 -2 2v-1l1 -3q0 1 1 2zM156 304v0h3h3v1zM206 51h-1l1 -10h2zM81 249l7 3q25 15 44 41q1 2 5.5 6t6.5 7q3 7 9 15.5
t11 16.5t8 16q1 5 4 7q3 4 6 8.5t4.5 7.5t3.5 9.5t3 8.5l1 7l-3 2h-3q-33 0 -68 -38q-2 -2 -13.5 -19t-24.5 -42q-7 -14 -7 -43q-1 -9 6 -13zM273 4q-12 -2 -13 -2q-26 -3 -52 15q-1 1 -31 18v12t1 12q2 0 9 2l-8 2q-2 4 0 24q0 10 1.5 28t2.5 26q0 1 -0.5 2.5t-1 3.5
t-0.5 3q0 7 2 8q6 3 2 7q-3 2 -3 3q6 12 5 25q-1 4 0 10t1 7q0 6 2 38v3.5t3 9.5t-1 10q-1 1 1 4l1 4v8l-3 -1q-4 -7 -14 -19t-12 -17q-7 -9 -10 -12q-2 -1 -5.5 -3.5t-5.5 -4t-5.5 -3.5t-7 -2.5t-6.5 -0.5t-5 -3q-4 -5 -8 -6q-22 -3 -31 1q-39 14 -62 35q-8 8 -12 20
q-11 33 3 65q2 4 8.5 16.5t8.5 19.5q4 10 10 18q27 31 31 35q13 12 30 8q6 -2 10 -2q36 1 90 -10q3 0 2.5 5t-0.5 6l3 1q17 -1 20 -1q3 -1 10.5 0.5t10.5 -1.5q6 -4 19 -6q14 -2 26 -7q20 -9 15 -30q-1 -3 -1 -10q-3 -48 -8 -72q-2 -8 -3 -21q-1 -15 -3.5 -44t-3.5 -41
q0 -4 -1 -11t-1 -11q-1 -13 -2.5 -36t-2.5 -31q-3 -53 -5 -65q0 -4 1 -13t0 -13q0 -1 -1 -16z" />
    <glyph glyph-name="colon" unicode=":" horiz-adv-x="167" 
d="M6 153q30 12 54 7q7 3 21 0q9 -2 13 -4t6.5 -6.5t3.5 -13.5v-2t1 -2q5 -13 -5 -30q-5 -8 -15 -13q-18 -10 -43 1q-21 9 -27 14q-12 10 -12 23q-1 19 3 26zM14 372q24 1 26 1q8 0 16 -2q29 -6 37 -9q11 -4 19 -14q6 -6 2 -12q-3 -4 -2 -10q1 -9 -6 -17q-14 -16 -23 -18
q-9 -1 -11 -1q-33 4 -50 20l-6 4q-18 11 -13 33q4 20 11 25z" />
    <glyph glyph-name="semicolon" unicode=";" horiz-adv-x="193" 
d="M10 379q2 0 18 -1q4 6 5 6.5t10 -0.5l12 1t12 -1q3 2 14 0.5t14 -1.5q6 1 11 -3q14 -10 18 -18t1 -21q-5 -21 -14 -30q-2 -1 -2 -4q-4 -10 -20 -18q-12 -6 -32 -1q-1 0 -3 1.5t-3 1.5q-16 2 -37 22q-16 16 -11 42q2 1 2.5 3t0 5t0.5 4q0 1 4 12zM130 32
q-4 -13 -8.5 -15.5t-16.5 0.5q-7 2 -14 7q-1 1 -13 10q8 8 10 12.5t7 22.5q-3 7 -8 4q-4 -2 -19 0q-14 1 -19 5q-3 2 -17 10q-24 15 -20 54q0 1 6 19h5.5h5.5h5t5 0.5t4.5 2t4.5 3.5t6 1q9 -1 21 3q3 -3 10 -1t9 2h5.5t4.5 -1q5 -3 11 -3q10 -1 11 -10q2 -11 9 -18
q7 -9 8 -22q1 -37 -7 -75q-2 -9 -6 -12l-1 3v2q-1 -2 -1 -2.5t2 -1.5z" />
    <glyph glyph-name="equal" unicode="=" horiz-adv-x="379" 
d="M222 255l0.5 0.5t1.5 0.5q-2 1 -2 0.5t-2 -0.5q1 -1 1.5 -1h0.5zM281 237q6 -5 6.5 -7t-1.5 -12q-36 -1 -39 -2q-6 0 -17.5 -1t-16.5 -1q-11 -1 -14 3l-1 -0.5t-2 -0.5q0 -4 -7 -5t-95 -12q-24 -3 -42 -5q-16 -2 -28 4q-18 9 -23 32q0 1 -1 24q10 1 10 2q26 4 27 4
q11 1 15 0q3 -2 7 0.5t6 2.5q3 0 8.5 1t6.5 1q64 7 73 7q1 0 21 2q2 -4 4 -9q1 2 2 8h5q8 -3 20 -1q4 1 27 3h18v9l5 -1q2 -5 9 -12q13 -17 17 -34zM259 126v1l-1 -1h1zM286 135h-1v-1h1l1 1h-1zM254 134q0 1 -1 1h-2v-1h3zM231 135l1 -1q1 0 3 1h-4zM288 152q30 -44 33 -49
q9 -13 6 -25h-42q-8 -1 -18.5 -1t-21.5 -0.5t-18 -0.5q-9 -1 -28 -1.5t-29 -0.5q-7 -1 -55 -7q-3 0 -26.5 -3.5t-36 -5t-26.5 8.5q-5 3 -7 9q-12 29 -9 42q7 2 21.5 5t25.5 4.5t22 2.5q4 0 13.5 1.5t14.5 1.5q4 0 12.5 -1t13.5 -1q15 1 65 5q3 0 6.5 0.5t7.5 1t6 0.5
q5 1 19.5 2t22.5 2q20 2 28 10z" />
    <glyph glyph-name="question" unicode="?" horiz-adv-x="317" 
d="M10 121q21 -4 38 0q9 2 35 -7q3 -1 7 -7q5 -8 14 -11q11 -3 18 -14.5t7 -23.5q1 -26 -16 -40q-1 -1 -4 -6q-8 -12 -26 -11t-43 14q-1 0 -2 1t-2.5 2t-2.5 1q-13 5 -24 27q-10 18 -8 40t9 35zM31 199l-1 -1h2l-0.5 0.5zM115 163q-6 -8 -7 -8q-2 -2 -6 -1l-1.5 1.5t-3.5 1
t-5.5 1t-4.5 1.5q-15 2 -19 3.5t-15 8.5q-12 9 -20 12q-8 4 -10 13q-6 25 -2 42q1 2 1 9t2 10t3 9t3 8q1 2 0 6t-1 5l3 4l4 -2l2 10q0 1 2 10q0 3 5.5 14t8.5 14q9 13 31 34q2 2 7 7.5t8 8t7.5 6t9.5 4.5q4 5 19 18t21 23q8 13 14 30q4 9 6 24q1 13 -2 25q-7 4 -19 1
q-7 -2 -21 -7t-17 -5q-7 -3 -13 -11q-15 -22 -47 -19q-12 1 -15.5 2.5t-14.5 8.5v7l2 4t1.5 4t1.5 4t2 3.5t2 3.5t2.5 3.5l3 3t3.5 3t4 2.5q30 16 48 18q2 1 5 1.5t6 1.5t5 1q10 2 38 -1q2 0 9 -1.5t11 -1.5q27 0 51 -10q26 -11 34 -32l3 -6t2 -6q5 -14 1 -42
q-1 -6 -4.5 -17t-4.5 -13q-2 -9 -13 -24q0 -1 -3 -4.5t-4.5 -6t-13.5 -14.5q-8 -7 -23 -20t-22 -20q-20 -18 -36 -41q-12 -18 -20.5 -47t-7.5 -50q0 -1 4 -25z" />
    <glyph glyph-name="at" unicode="@" horiz-adv-x="552" 
d="M17 214v-2v1v1zM311 545h2v1zM205 505l-2 1v-2h2v1zM448 424h-1l2 -1zM303 243v-1v-1h1v1zM50 344h1v1zM38 180h2q-1 1 -1.5 1h-1.5zM345 52v1q-1 -1 -1 -1.5t1 -1.5v2zM40 322v0.5v1.5q-2 -1 -3 -1v-1h3zM446 409v1h-1zM225 525l-3 1l-2 -1l2 -2zM80 403h4l-1 1z
M175 504v1h-2.5t-2.5 -1h5zM281 262q11 16 12 18q1 1 2 6q0 1 3 10h31q5 -2 27 -12q19 -8 26 -32q8 10 8 11q17 34 26 65q8 25 12 35q2 3 3 10t2 10q1 2 0 3q-4 3 -5 7t-1 7.5t0.5 8t0.5 7.5q-1 18 -10 30q-6 9 -5 15q1 3 -3 5t-5 4q-2 7 -7 13t-12 12.5t-10 10.5
q-6 8 -18 7q-25 -2 -49 -11q-10 -4 -37 -17q-2 -1 -8 -5q-1 0 -5.5 -3.5t-7.5 -5.5q-7 -3 -19 -12t-15 -11q-20 -14 -46 -49q-21 -28 -25 -35q-25 -46 -31 -70q-2 -5 -4 -12t-4.5 -13.5t-3.5 -12.5q-7 -29 -7 -33q-1 -7 -3 -18t-3 -20.5t-1 -17.5q1 -32 2 -38q1 -2 0 -5.5
t0 -4.5q4 -5 6.5 -15t2.5 -12q1 -2 3.5 -5t3.5 -4q11 -19 33 -37q17 -13 39 -15q35 -3 69 3q30 5 69 19q15 6 25 14q8 6 14 15q4 6 7 5q1 0 2 0.5t1 1.5q-1 3 3.5 8t2.5 9q6 16 20 15q13 0 66 -3q1 0 4 -2q7 -19 -3 -32q-4 -5 -11 -15.5t-11 -15.5q-5 -6 -10 -6q-1 0 -2 -1
t-2 -2.5t-2 -2.5q-14 -11 -31 -16q-21 -6 -29 -11q-1 0 -5 -1q-5 -1 -24.5 -5.5t-30.5 -5.5q-38 -3 -76 -1q-30 2 -69 12q-7 2 -18.5 6.5t-14.5 6.5q-37 13 -72 43q-27 24 -38 50q-3 8 -8 33q-1 5 4 6q9 4 9 16q0 1 1 7q-8 1 -16 7q0 2 -0.5 7.5t0 10t3.5 8.5q0 -2 1 -4
l-1 3q1 10 1 12q-5 8 3 12q1 0 1 2.5t-1 3.5q-2 4 0 13q2 1 8 3q-2 7 1.5 19.5t1.5 18.5q6 5 2 15q-1 2 0 4q5 16 8 23q1 0 6 1q-1 8 1 13q13 35 19 44q2 2 6 11t8 14l4.5 0.5t7.5 0.5q-2 1 -4.5 2l-2.5 1q0 1 1.5 4.5t2 5.5t2.5 4t4.5 2.5t6.5 0.5q-5 7 2 14q6 5 13 8
q-6 1 -2 5q3 3 17 13q3 2 2 6q3 1 12 7.5t15 7.5q1 0 4 4t5 4q1 1 4 3t6.5 4t7.5 3.5t6 2.5q3 1 8 5.5t8 5.5q15 8 31 9q1 0 8 -1t9 2q-12 1 -17 -2q6 5 7 5q26 7 36 8q17 2 31 -4q23 -10 60 -14q9 -1 31 -8q24 -8 55 -31q2 -2 4 -3q22 -24 38 -58q0 -5 4 -14.5t4 -15.5
q0 -22 -2 -32q-1 -5 -2 -17t-3 -17q-2 -11 -8 -31q-1 -6 -4.5 -17t-5.5 -17q-2 -9 -6 -20q-9 -25 -33 -49q-17 -17 -43 -13q-27 4 -47 18q-2 2 -35 27q-9 -12 -10 -13q-5 -10 -4 -14q1 -2 -1 -6q-1 -1 -5.5 -5t-4.5 -8q-3 -1 -6.5 -5.5t-5.5 -5.5t-7 -5t-6 -4q-21 -14 -51 0
q-1 1 -17 11q-22 15 -27 45q-1 2 1 25q0 1 1 3t1 3q1 16 19 55q2 6 10 19t11 20q0 1 1 2l1 1q1 2 5 3t5 4q0 5 7 10q19 15 43 15q6 0 13 -0.5t15.5 -1t13.5 -0.5q11 -1 27 -9q1 0 6 -6q-2 -2 -4.5 -4t-5 -1.5t-4 0.5t-5 1t-4.5 1q-8 -1 -34 -15q-14 -8 -21 -21
q-17 -34 -20 -44q-10 -43 -10 -56q0 -1 -2 -20q9 5 13 7l1 -0.5t2 -1.5l1 1h-4v3q4 10 12 9q3 15 19 30q0 -1 2 -2v2z" />
    <glyph glyph-name="A" unicode="A" horiz-adv-x="858" 
d="M636 136v1q-1 -1 -1.5 -1t0.5 -2zM645 202l-1 3q-2 -2 -2 -3q-1 -3 1 -5zM648 231l-1 -2v-4q0 -1 1 -1t2 1v5zM635 155q5 3 5 4q0 4 -1 9q0 1 1 6t-3 6q0 -3 -2 -25zM632 288q12 42 12 44q10 33 12 39q1 6 3.5 13.5t5 14.5t4.5 13q1 5 7 19t8 23l-6 -5q-3 -3 -11 -13.5
t-12 -15.5q-10 -11 -20 -24t-19 -26t-17.5 -24.5t-19 -26t-18.5 -24.5l-3 -6t-3 -5q-6 -10 -11 -14q-3 -3 -10 -11l-3 -5q2 -2 8 0q15 3 41 13.5t37 13.5q0 1 15 7zM411 159q-1 -1 -4.5 -3.5t-4.5 -4.5q-2 -4 -7 -11.5t-6 -9.5q-24 -40 -36 -55q-3 -4 -9 -14q-2 -5 2 -9
q9 8 12 16q3 7 15 25q4 6 10.5 16t12.5 19t11 16t3 16l4 -1q1 0 2 1l1 1h-3zM505 291l6 3q3 2 0 3q0 1 -1 -1q-1 -1 -4 -6q-2 -3 -3 -3l1 -1zM469 239q4 2 5 8q13 5 22 25v1q-3 1 -3 0q-14 -17 -19 -26q-3 -4 -5 -8q0 -2 -1 -3zM306 291q-8 -7 -15 -2q-2 1 -20 11
q-6 3 -14 3q-24 -3 -50 -24q-30 -25 -59 -60q-19 -23 -20 -23q-5 -5 -19 -27q-2 -3 -16 -26q-7 -12 -19 -38q-14 -31 -22 -62q-2 -8 -3 -14q-2 -11 1 -21q2 -5 6 -32q3 -17 12 -37q2 -5 4 -7q7 -4 12 -14q5 -8 15 -10q11 -1 14 -3q10 -5 22 -1q2 1 12 3q25 6 43 18
q3 2 29.5 19t45.5 41q6 7 19 22.5t19 23.5q1 2 20 29q28 42 36 55q2 2 5 6.5t5 6.5q4 6 29 45l-3 2q-35 -5 -47 -5q-8 -3 -16 -3t-20 1t-15 1q-2 0 -6 1t-5 1q-15 2 -25 19q-3 6 -1 12q1 1 4 2q0 1 2 0q14 -8 29 -8q8 -4 34 -4q20 1 51 7q2 0 36 10q10 2 16 11q1 0 54 73
q1 2 2.5 3.5t2.5 3.5t2 3q8 12 10 14q6 8 19.5 24.5t20.5 24.5q1 2 8 12q1 2 6 11q10 16 46 60q19 24 29 38q2 3 35 43q4 5 23.5 26.5t28.5 34.5q14 18 23 26q1 1 17 13q22 -1 24 -1q11 -1 26 -6q6 -3 12 -8q15 -15 8 -36q-14 -39 -34 -65q-1 -1 -1.5 -3t-1.5 -2
q-2 -4 -4 -4q-8 -1 -12 -10q-15 -32 -20 -46q-6 -16 -8 -21q-1 -3 -2 -9t-2 -8.5t-4.5 -6.5t-4 -7t-3 -10t-3 -10t0.5 -10q-7 -24 -8 -26q-4 -14 -3 -22q1 -5 6 -5l28 4q12 1 33 1q8 0 13 -5q3 -3 5 -7q2 -3 0.5 -6.5t-4.5 -3.5q-18 -4 -22 -4q-24 -1 -43 -7q-1 -1 -25 -10
q-5 -12 -5 -13t-2.5 -8.5t-6.5 -9.5q-1 -1 -2 -5v-3q-3 -12 -4 -13q-6 -7 -7 -21q0 -3 -3 -16q-7 -40 -9 -63q-4 -44 -3 -54q0 -4 0.5 -17t1.5 -20q0 -1 5 -17l3 -14q1 -3 -2 -7t-6 -3t-8.5 1.5t-9.5 1.5t-9 2.5t-8 3.5q-22 13 -26 33q-4 22 -4 33q-2 29 1 51q1 7 2 22t2 23
q6 49 12 75q0 1 1 8l-5 1q-5 -2 -25 -9t-31 -11q-10 -3 -42 -12q-11 -3 -15 -4t-9 -4.5t-7.5 -7t-9 -12.5t-8.5 -13q-10 -24 -33 -55q-2 -3 -13.5 -20t-18.5 -25q-2 -6 -13 -21q-15 -21 -17 -28q-28 -41 -33 -47q-5 -5 -10 -11.5t-11 -14l-10 -12.5l-14.5 -14.5t-24.5 -22.5
l-8 -6q-16 -10 -22 -13q-4 -2 -20 -9q-2 0 -6 -1.5t-6 -2.5q-10 -6 -17 -5q-3 0 -4 -1q-4 -2 -9 -3.5t-9 -2t-9.5 -1t-8.5 -1.5q-20 -4 -45 4q-21 6 -53 30q-11 8 -22 19q-12 13 -13 25q0 4 -3 12q-19 40 -16 90q1 12 8 34q13 44 39 84q1 2 28 45q16 27 44 49l5 3
q4 9 16.5 18t15.5 13q4 4 34 29q9 8 19 9q1 0 2.5 0.5t3.5 0.5t3.5 0.5l3 1t3.5 1.5q6 1 8 1q4 -1 11.5 -2t13.5 -2.5t11 -4.5q15 -8 27 -7q6 0 7 -7q0 -1 1 -12z" />
    <glyph glyph-name="B" unicode="B" horiz-adv-x="602" 
d="M155 146v2l-1 1l-1 -2l1 -2q0 1 1 1zM141 236q4 13 4 14q2 6 0 9q-5 -9 -4 -23zM159 174l4 4q3 7 6 16.5t6 19.5t6 17q13 40 25 65q2 3 5.5 10.5t4.5 11.5q10 20 14 26q14 22 16 28q5 6 9 13t9 17.5t6 14.5q3 4 8 11.5l7 10.5q10 16 20 34q6 10 11 14q3 3 5 9q4 13 14 19
q8 4 13 16q3 9 17 25q32 40 48 56q4 5 25 24q2 3 5 5.5t6.5 5.5t5.5 5q26 24 50 31q31 8 51 -12q3 -3 5 -7q13 -34 13 -56q0 -7 2 -12q1 -8 -1 -20q-7 -31 -13 -50q-1 -1 -1 -2.5t-0.5 -3.5t-0.5 -4q-4 -15 -4 -16q-4 -8 -9 -25.5t-8 -24.5q-19 -49 -22 -56q-15 -29 -25 -39
q-3 -3 -12 -17q-10 -15 -35 -35q-2 -2 -8.5 -5.5t-6.5 -4.5q-1 0 -6 -4q1 -4 1 -5q12 -7 19 -23q4 -8 6 -11q14 -27 16 -64v-41q0 -19 -3 -26q-1 -3 -1 -4q1 -18 -11 -50q-1 -3 -2.5 -8t-1.5 -8q-6 -16 -9 -21q-9 -18 -19 -43q-12 -28 -24 -54q-5 -11 -21 -28
q-3 -4 -9.5 -11t-11.5 -12.5t-9 -10.5q-29 -36 -76 -39q-16 -1 -45 -1q-6 1 -19 4q-25 7 -49 21q-16 10 -22 21q-1 2 -11 12q-4 4 -12.5 13t-13.5 13q-1 2 0 5t3 4q18 2 34 -7q4 -1 7 -7q7 -12 15 -17q7 -4 11 -20q7 -5 8 -5q20 -18 60 -8q23 7 44 26q17 16 39 45q2 3 27 44
q2 -1 8 -3l2 2l3 8.5t5 12.5q1 2 4.5 8t4.5 10q2 8 7 15q8 12 7 23q0 6 3 12q6 9 8 25q0 3 1 8.5t1 7.5q5 31 4 41q0 2 0.5 4t1 4.5t0.5 3.5q5 51 -2 76q-6 24 -16 40q-5 7 -14 8q-11 0 -18 1q-20 2 -30 11q-4 3 -12.5 8t-10.5 7q-1 0 -3 4q-1 2 0 4.5t2 2.5l6 1q12 0 17 -1
q22 -6 45 7q27 14 50 39l5 6q1 1 6 1q-4 -9 -4 -11q0 -1 1 -2h1q2 0 2 1q5 4 19 28q1 3 4.5 11.5t7.5 12.5q3 3 3 7q1 6 6 16t6 15q10 18 17 48l0.5 2.5t1.5 3.5q5 11 10.5 32.5t8.5 30.5q1 3 1 8q4 34 7 48q1 3 0 7q0 2 -3 20q-4 1 -10 -3q-27 -22 -30 -24q-2 -1 -5 -4
q-16 -22 -39 -42q-4 -3 -6.5 -7t-6 -8.5t-5.5 -7.5q-7 -9 -11 -12q-11 -8 -23 -25q-16 -22 -24 -39q-3 -7 -8 -12q-11 -13 -21 -32q-8 -15 -16 -25q-6 -8 -14 -24q-21 -45 -31 -63q-2 -2 -7 -15q0 -1 -2.5 -6.5t-3.5 -8.5q-6 -10 -11 -25q-4 -10 -7 -14.5t-8 -20.5
q-10 -29 -22 -44q-7 -9 -9 -20q-3 -12 -10 -27q-12 -23 -11 -37q0 -5 -5 -16l-3 -5q-14 -19 -5 -39q2 -6 2 -7q1 -5 -2 -5q-20 -6 -28 -0.5t-33 21.5q-11 7 -16 32q-2 5 -2 24q0 7 1 10q5 11 1 25q7 10 8 11q0 2 0.5 3.5t0.5 3t0.5 3t0.5 2.5q2 8 3 10q2 8 10 44q1 6 3 13
t3.5 14.5l2.5 12.5q8 33 23 92q6 22 3 30q0 1 1 6q6 18 6 19q6 15 13.5 42.5t9.5 32.5q9 32 15 43q5 11 10 27q3 13 11 31q4 9 2 13l-3 1q-38 -21 -53 -32q-7 -6 -19 -12q-8 -5 -31 -17q-6 -3 -9 -4q-10 -3 -28 -13q-22 -12 -42 -12q-7 0 -13 5q-16 14 -11 30l3 2
q21 0 54 14q29 13 58 32q38 26 60.5 39.5t53.5 20.5q20 5 36 -9l8 -8l8 -8q7 -6 8 -21l-1 -2v-2q-3 -29 -21 -52q-2 -3 -7 -13q-1 -3 -2.5 -6.5t-3 -7.5t-2.5 -7q-16 -35 -22 -62q-1 -4 -13 -39q-9 -25 -32 -108q-3 -10 -6 -24t-6 -27t-7 -23q-1 -4 -4 -20q-1 -4 -6 -37
q-3 -4 -3 -5l1 -3l2 3q0 1 -1 6z" />
    <glyph glyph-name="C" unicode="C" horiz-adv-x="497" 
d="M13 178l-1 1l-1 -1l1 -2zM333 456q12 20 13 21q7 13 7 19q1 4 3 10q10 22 17 64q3 22 -9 48q-3 7 -10 4l-1.5 -1l-1.5 -1q-39 -19 -43 -21q-8 -4 -14 -8q-32 -26 -38 -32q-39 -39 -54 -66q-5 -8 -11 -16q-18 -25 -44 -81q-2 -3 -9 -20q-3 -7 -3 -8q2 -15 -10 -23
q-1 0 -4 -7q-11 -23 -11 -24q-6 -11 -5 -20q1 -10 -4 -13q-5 -4 -9 -16q-5 -13 -11 -38t-8 -29q-2 -10 -3 -12q-5 -21 -6 -26q0 -5 -1.5 -18.5t-3.5 -20.5q-4 -20 -1 -57q2 -19 5 -33q8 -30 23 -57q21 -35 62 -39q21 -2 35 2q1 0 12 2q31 5 61 24q32 19 65 56q9 10 46 56
l9 9.5t12 15.5q3 4 11 17t12 20q8 13 9 22t9 19q2 3 6.5 3t5.5 -3q7 -11 25 -21l4 -4q2 -4 -2 -10q-17 -32 -22 -40q-12 -19 -24 -33q-8 -8 -22.5 -25.5t-26.5 -31t-23 -24.5q-4 -4 -13 -11t-23 -17q-37 -26 -44 -30q-14 -10 -37 -13q-14 -2 -28 -6t-26 0q-5 2 -10 2
q-6 0 -12.5 1t-14 2.5l-12.5 2.5q-15 1 -39 16q-2 1 -6.5 4.5t-8 5.5t-7.5 2q-1 1 -3 2q-31 31 -38 43q-7 13 -17 40q-7 17 -8 36q-1 10 -1 33q0 6 1 10q1 1 1.5 3t1 3.5t0.5 3t0.5 3t1.5 3.5q3 10 -2 15l2 7q-2 2 -3.5 4t-1.5 4.5v4t1 5t1 4.5q6 35 6 37q-1 2 1 6
q5 16 20 73q0 3 1 4q29 76 35 88q3 7 8.5 19t10 22t9.5 19q30 58 41 73q12 23 52 69q32 36 54 50q6 4 15 11.5t26 11.5q11 3 24 5q56 9 91 -35q18 -21 22 -42q2 -12 0 -20q-1 -9 -3 -37q0 -7 -2 -10q-3 -4 -8 -13.5t-9.5 -16.5t-10.5 -12q-5 -5 -13.5 -14.5t-10.5 -11.5
q-5 -6 -13 -4q-13 2 -18 12z" />
    <glyph glyph-name="D" unicode="D" horiz-adv-x="676" 
d="M332 -24l-1 2q-3 0 -3 -2q-1 0 0 -3h1h1zM183 321l1 1q1 1 0 2l-1 2q-1 -1 -1 -2zM165 263q-11 -15 -6 -32q2 15 3 16q1 3 1.5 8.5t1.5 7.5l1 2v1zM172 290q6 8 5 14q-3 -2 -3 -7.5t-2 -7.5q-1 -5 -2 -5q0 -1 0.5 -1.5t1.5 -0.5v2v6zM457 168q6 4 5 11q0 10 5 22
q12 25 23 48q5 12 10 25q12 31 19 50q33 94 40 136q9 50 10 57q3 9 4 14q11 42 14 70q0 3 1.5 9t1.5 7q4 25 1 41q-1 3 -1.5 8.5t-0.5 6.5q-2 18 -14 34l-7 -3q-21 -20 -43 -41q-3 -3 -7 -6.5t-7.5 -7.5t-6.5 -7q-8 -8 -19 -24q-3 -3 -35 -45q-8 -10 -9 -12q-8 -15 -31 -41
q-7 -7 -11 -14q-10 -18 -18 -25q-3 -2 -10 -13q-2 -4 -8 -13.5t-9 -14.5q-10 -14 -22 -44q-5 -11 -18 -39q-2 -4 -4 -7q-9 -11 -11 -24q0 -5 -7 -20q-20 -47 -31 -62q-4 -6 -13 -28q-1 -3 -14 -41q-3 -6 -6 -15t-5.5 -15.5t-5.5 -15t-6 -15.5q-1 -3 -1 -4q-3 -11 -15 -58
q-2 -8 -11 -8q-13 0 -25 8l-3.5 2.5t-4.5 2.5q-20 6 -32 35q-8 22 -8 39q0 3 0.5 10t0.5 12.5t1 9.5q0 9 2.5 25t2.5 18q3 23 13 61q12 46 25 89q2 6 10 34.5t14 43.5q13 35 19 55q6 18 30 83q1 3 3.5 9t3.5 8q3 11 3.5 12t2.5 8.5t1 11.5h-4q-35 -15 -60 -35
q-22 -19 -34 -22q-3 -1 -8.5 -4t-6.5 -4q-50 -24 -75 -33l-16 -4q-1 0 -14 -3q-14 6 -20 14q-2 3 -3 7q-4 8 4 11t11 3q26 3 63 21q55 27 90 53q15 12 51 31q22 12 44 9q4 -1 8 -1q9 1 20 -4q20 -10 26 -17q5 -6 5 -13q1 -21 -9 -35q-19 -30 -37 -80q-16 -47 -20 -56
q-3 -5 -13 -37q-15 -47 -21 -64q-21 -72 -27 -97q-3 -12 -7 -26q-7 -23 -9 -42q0 -7 -2.5 -20.5t-2.5 -16.5q-4 -30 -1 -64q1 -2 3 -2q1 0 2 2q4 10 5 14q5 21 31 96q12 33 32 76q8 17 23 51.5t16 38.5q3 7 25 55q2 4 4 7q5 9 48 86q4 8 33 57q20 32 35 46q2 2 8 11
q4 5 13.5 18.5t14.5 20.5q2 3 8 9q41 43 60 57q7 5 13 4q4 -1 6 -1q27 4 55 -19q11 -10 13 -13q21 -22 25 -55q4 -25 2 -47q-3 -36 -8 -63q-1 -10 -3 -12q-6 -14 -4 -33q0 -8 -2.5 -21.5t-3.5 -18.5q0 -1 -2 -6q0 -1 -4.5 -8t-3.5 -13q0 -2 -0.5 -5.5t-1.5 -7.5t-1 -7
q-2 -15 -6 -21q-1 -1 -3 -10q-15 -51 -30 -90q-2 -4 -24 -61q-1 0 -1.5 -1.5t-0.5 -2.5q-3 -7 -13 -28.5t-17 -32.5q-5 -8 -12.5 -23.5t-10.5 -20.5q-18 -31 -22 -39q-2 -4 -7.5 -11.5t-5.5 -8.5q-36 -54 -63 -82q-11 -11 -28 -30q-10 -12 -32 -26q-37 -24 -91 -31
q-9 -1 -24 2q-31 6 -45 13q-36 17 -54 30q-13 10 -15 19q-1 4 -6 8q-1 1 -13 10q-1 4 3 9.5t9 3.5q12 -7 33 -10q11 -1 22 -10q12 -9 13 -20q0 -5 3 -10q3 -8 11 -9q14 -1 20 0q30 8 51 16q24 10 50 32q1 0 4.5 3.5t5.5 4.5q2 2 11 5q3 1 6 -2t5 -3q2 2 7 5t8 5
q-1 3 -2.5 4.5t-5.5 1l-4 -0.5q-5 9 18 33q2 -1 3 -4q0 -2 1 -2q2 -6 6 -2q6 5 7 7q6 11 11 16q4 3 6 8q3 8 8 14q5 5 6 10q4 10 10 18q2 2 5 8.5t6.5 9t3.5 7.5q0 4 2 8t6 9.5t5 6.5q5 8 5 13q-1 3 0 4.5t4 4l3 2.5h-1z" />
    <glyph glyph-name="E" unicode="E" horiz-adv-x="586" 
d="M561 215q-19 -23 -22 -26l-3 -3q-18 -14 -28 -34q-2 -4 -4 -5q-8 -4 -19 -24q-1 -1 -2.5 -4l-2.5 -5q-18 -20 -29 -31q-3 -3 -23.5 -23t-30.5 -31q-6 -8 -19 -20.5t-18.5 -18.5t-12.5 -10q-30 -20 -46 -27q-5 -2 -14.5 -7t-14.5 -7q-20 -8 -33 -12q-17 -4 -27 -4
q-10 1 -18 -3q-6 -3 -18 -2q-17 2 -18 2q-25 -1 -62 15q-3 2 -10 7q-14 9 -18 10q-8 3 -17 14q-2 3 -7 8l-7 7q-1 1 -4 4.5t-4 5t-3.5 5t-4 5.5t-3.5 4.5t-4 4.5q-1 2 -7 17q-2 6 -2 8q0 6 -2.5 17t-2.5 16q0 6 1 18q3 28 19 67q10 23 24 43q3 4 8 12t8 12q11 14 24 28
l16.5 16.5l14.5 14.5q14 15 27 22q5 3 6 8q-26 16 -29 17q-10 6 -13 10q-25 29 -33 43q-7 10 -6 19v33q1 7 6 17q31 63 33 66q21 33 36 50q10 11 18 25q10 17 37 47l25 25l3 3q35 28 39 30q15 10 32 22q16 13 38 18q39 9 64 3q34 -9 53 -29q14 -15 17 -37q1 -12 -3 -33
q0 -3 -3 -7q-6 -7 -6 -10q0 -10 -10.5 -20t-26.5 -34q-4 -6 -11 -9q-8 -4 -15 -1q-10 4 -12 10q24 36 25 38q21 38 14 84q-1 3 -3 7q0 1 -2 4l-6 -1q-17 -9 -36 -14q-15 -4 -41 -21q-7 -5 -36 -27q-41 -33 -79 -80q-16 -20 -27 -37q-3 -4 -10.5 -15t-11.5 -17q-5 -8 -7 -17
q-5 -16 -15 -26q-12 -13 -16 -29q-4 -17 -7 -21q-6 -26 3 -44q5 -11 18 -11q51 -2 92 18q5 2 10.5 4.5t11 4.5t10.5 4.5t10.5 4.5t10.5 5q1 0 6.5 2.5t8.5 3.5q19 11 39 -3q3 -3 7 -8q3 -3 2 -9l-1 -2q-7 -14 -13.5 -19.5t-21.5 -9.5q-27 -8 -44 -22q-2 -2 -3 -2
q-16 -7 -47 -30q-41 -30 -58 -49q-22 -23 -30 -28q-3 -3 -7 -8q-4 -4 -8 -9.5t-8 -11.5t-8 -10q-22 -30 -37 -75q-10 -30 -7 -61q2 -34 29 -64q2 -2 4 -3.5t3.5 -2.5t4 -2t4.5 -2q19 -13 53 -10q31 3 49 6q26 4 57 17l6 3q2 2 13.5 9t18.5 10q25 15 55 46q28 29 52 52
q3 3 5.5 6t6 6.5l5.5 5.5q11 12 32 33.5t37.5 39.5t30.5 34q2 3 7.5 10t9.5 11q5 7 10 5t6 -10q0 -1 3 -15z" />
    <glyph glyph-name="F" unicode="F" horiz-adv-x="706" 
d="M401 343q1 -1 1 -2.5t1 -2.5q4 2 4 3q2 2 3 7q13 46 23 66q0 1 -1 1l-3 1q-6 -3 -7 -8q-4 -16 -6 -21q-1 -5 -15 -44zM439 442q5 0 6 6q0 2 -1 4q-1 1 -2.5 0t-1.5 -2t-1 -8q-2 -2 -1 -3zM336 153l4 4q0 1 4 13q5 7 12 28q13 36 18 45q0 2 4 14t6 17l-1 4l-2 -1
q-10 -21 -11 -24q-3 -9 -10.5 -28.5t-10.5 -29.5q-6 -14 -4 -26q-6 0 -8 -6q0 -1 -1 -10l-3 -2q-1 -3 2 -3l1 2v3zM221 280q23 2 25 3q19 3 34 5q8 1 22 5q44 15 54 20q10 4 12 15q9 42 23 77q5 12 13 39q8 24 16 38q2 4 4.5 11.5t3.5 9.5q18 45 22 59q1 3 -0.5 4.5
t-3.5 1.5q-27 -4 -28 -4q-34 -8 -76 -25q-7 -3 -15 -7q-23 -12 -43 -21q-7 -3 -9 -4l-10 -7.5t-10.5 -8t-10 -8t-9.5 -8t-9 -8.5t-8 -10q-3 -3 -14 -15q-7 -7 -13 -1q-9 8 -11 12q-4 8 -9 14q-6 8 -4 22q0 3 2 5q0 1 1 2.5t2 2.5l2 2q29 39 75 62q22 12 27 16q3 2 5 3
q8 2 23 9t22 10q5 1 17 5.5t18 6.5q40 13 56 15q4 1 58 13q7 10 10 22q6 20 26 15q14 -4 22 -10q2 -1 17 -12h9q46 8 54 9q2 1 20.5 4t27.5 7q7 -1 20.5 1.5t20.5 1.5q3 0 8 2q25 11 47 15q4 0 14 3q35 11 69 26q10 4 38.5 15.5t43.5 18.5q21 10 32 19q19 16 33 -8
q6 -11 8 -25q2 -16 -10 -26q-5 -5 -12 -8q-66 -29 -70 -30q-18 -6 -36 -15q-12 -6 -35 -13.5t-31 -10.5l-61 -18q-3 -1 -12 -2q-38 -6 -67 -12q-3 -1 -18.5 -4.5t-23.5 -4.5q-7 -2 -14.5 -3t-17 -2t-15.5 -2q-3 0 -9.5 -1.5t-10.5 -2.5q-11 -1 -14 -13l-1 -3q-1 -1 -1 -2
q-3 -6 -8 -3q-2 1 -4 -4q-7 -10 -10 -18q-1 -2 -3 -7.5t-3 -7.5q-8 -18 -27 -71q-11 -31 -17 -42q-3 -7 -4 -12q-1 -11 -10 -31q-4 -8 -1 -14l7 2q4 2 8.5 4.5t10 5.5t8.5 5q36 19 67 27q28 8 54 14q14 3 25 -5l0.5 -0.5t1.5 -0.5q3 -3 3 -7q-1 -5 -6 -6q-5 0 -10 -1.5
t-11.5 -4t-9.5 -3.5q-16 -4 -28 -13q-6 -4 -23 -13q-14 -6 -32 -14q-14 -6 -22 -12l-10 -5l-12 -6t-10 -6q-2 -2 -34 -19q-11 -33 -11 -34q-1 -5 -4 -12q-5 -10 -16 -42q-3 -8 -6.5 -16.5t-7.5 -19t-7 -16.5q-1 -3 -2.5 -6.5t-2.5 -7.5t-3 -7q-18 -48 -49 -108l-2 -4
l-2.5 -5t-1.5 -4l-4 -7q-7 -9 -18.5 -25.5t-13.5 -19.5q-1 -2 -3.5 -4.5l-3.5 -3.5q-7 -14 -27 -25q-14 -7 -25 -7q-4 1 -13 0t-14 0q-41 4 -57 9q-6 2 -12 3q-16 1 -35 11q-26 14 -42 22q-19 10 -26 27q-2 4 -6 11.5t-5 8.5q-9 18 -1 36q2 6 5 12t6 4q5 -3 6 -5l2 -6
t2 -5.5t2 -6t2 -6.5q1 -1 3.5 -8t3.5 -11q3 -7 10 -18q10 -12 10 -17q0 -6 9 -11q7 -5 15 -7q43 -15 85 -7q21 4 34 18q2 3 9.5 9.5t11.5 10.5q11 15 13 21t13 16q2 2 5.5 0t5.5 1q6 7 7 10q4 7 17 35q4 8 4 9q1 6 3 12t5.5 13.5t4.5 11.5q3 7 1 11q-2 3 1 8q1 3 4 8.5
t4 8.5q1 1 1.5 4.5t1.5 6t3.5 4t1.5 5.5q0 8 7 19q3 4 3 7q-1 6 2.5 15t4.5 13q0 1 2.5 6t1.5 8q-4 1 -6 1t-5 -1.5t-5 -1.5q-10 -1 -39 -6t-45 -6q-29 -4 -48 4q-11 4 -16 12q-3 7 -10 25q-2 3 0.5 6t5.5 2l39 -6q9 -1 13 -6h-4h3z" />
    <glyph glyph-name="G" unicode="G" horiz-adv-x="604" 
d="M185 392q-2 -7 -7 -13q-3 -3 -7 -1q-1 1 -2 0.5t-2 -0.5q-3 -5 -17 -26q-1 -2 -1 -8q1 -18 -13 -28q-2 -2 -4 -4.5l-4 -5t-4 -4.5q-3 -2 -9 -13q-3 -5 -4 -7q-9 -9 -9 -20q0 -5 -3 -14q-5 -14 -14.5 -38.5t-12.5 -31.5l-1 -5q-1 -9 -5 -26t-5 -25q0 -5 -1 -11t-1.5 -12.5
t-0.5 -11.5q-1 -9 2 -18q8 -29 26 -48q2 -2 5.5 -6t6 -7t6.5 -5q5 -3 9.5 -4.5t9.5 -2.5q23 -1 36 5q5 2 32 9q28 7 51 29q56 52 96 102q13 15 29 37q8 12 13 24q1 2 13 25q8 16 9 22q-3 4 -7 2q-70 -26 -72 -26q-4 -2 -38 -10q-3 -1 -6 -1q-32 -1 -53 -1q-14 0 -25 10
q-1 1 -1 3q0 4 4 4q5 1 13.5 2t15.5 2l14 2q31 5 71 20q31 12 39 14q17 5 40 19q15 9 20 11q11 5 22 3q17 -5 30 -15q10 -9 9 -21q-1 -17 -3 -25q-7 -31 -24 -87q-11 -34 -17 -62q-4 -16 -8 -29q-4 -15 -7 -28q-2 -9 -8 -32t-8 -36q0 -3 -7 -23.5t-8 -29.5q-2 -8 -9 -23
q-1 -3 -8 -18.5t-9 -23.5q-3 -10 -8.5 -21t-11.5 -22.5t-9 -20.5q-8 -20 -32 -36q-6 -4 -20 -6q-4 -1 -24 -1q-11 -1 -24 5q-28 11 -39 26l-1 6q22 -6 35 -1q22 9 31 22q8 11 27 44q1 3 3 8.5t2 7.5q3 6 9.5 20.5t9.5 22.5q19 45 27 73q16 56 21 82l2 6t2.5 7t2.5 6l-1 6
q-8 -4 -16 -14q-11 -14 -40 -40q-3 -3 -8.5 -8t-8.5 -7q-39 -34 -78 -44q-29 -8 -43 -8q-53 0 -89 32q-6 6 -10 7q-6 2 -15 10q-33 31 -49 71q-4 10 -4 16q-2 46 -1 61q2 10 2 13q18 68 28 92q4 12 16 36q21 43 35 70q9 16 39 58q29 41 38 53q24 32 36 43l3 3q4 6 9.5 12
t13 12.5t11.5 10.5q9 9 11 12q3 4 7 7q11 7 21 19q13 15 28 25q31 20 60 36q15 9 51 21q11 4 22 3q19 -2 29 -2q28 -1 61 -17q12 -6 16 -9q14 -9 20 -16q24 -26 13 -63q-4 -16 -8 -25q-1 -3 -7 -13q-1 -3 -3.5 -7t-5 -7.5t-4.5 -6.5t-5 -13.5t-7 -14.5q-2 -3 -5.5 -7
t-7 -7.5l-6.5 -6.5q0 -1 -23 -27q-3 -4 -9 -3q-12 1 -17 7q-1 1 -3 2.5t-3.5 3.5t-1.5 5q29 28 32 31q9 9 12 21q6 19 15 41q8 18 12 43q4 22 -5 45q-2 4 -7 3h-1h-1q-11 -5 -32 -9.5t-26 -5.5q-41 -12 -74 -31q-7 -4 -19 -12t-15 -11q-6 -3 -7 -7q0 -7 -8 -14q-7 -6 -8 -7
q-11 -8 -28 -27q-9 -11 -23 -23q-26 -23 -52 -61q-6 -7 -22 -27q0 -1 -6 -5q-5 6 -8 0v-3q-3 -3 0 -9v1z" />
    <glyph glyph-name="H" unicode="H" horiz-adv-x="800" 
d="M259 431l-3 1q1 -1 1.5 -1h1.5zM167 112q0 1 0.5 1h0.5l-1 1l-2 -1zM499 -3l-0.5 1l-0.5 1l-1 -1l1 -3q1 1 1 2zM496 45l-2 -1l1 -1l2 1zM261 413l-0.5 1t-1.5 2l-1 -2q-1 -3 1 -4zM217 299q-4 -3 -4 -5l2 -2q2 -1 3 2v2zM494 -28q3 5 3 6l-1 3l-2 -2v-7zM128 -31l-2 -2
v-1.5v-0.5q4 -2 7 -4l1 0.5l1 0.5v4q-1 0 -7 3zM502 30q-3 -7 -4 -8q0 -1 1 -2.5t2 -1.5q2 0 3 2q3 4 -2 10zM506 44l3 -3q3 -2 5 3q0 2 2 9q0 2 0.5 5t0.5 5t0.5 4.5t1 4.5t1.5 4.5t3 4.5l-1 3q0 1 -1 1.5t-2 0.5q-3 -4 -3 -5t-3 -14t-7 -19v-4zM563 213q-11 -2 -11 -8
q1 -2 -2 -5.5t-3 -4.5q-1 -2 -1.5 -7t-0.5 -7q-2 -5 -6 -11q-1 -3 -1 -5q1 -9 -9 -27q-3 -5 -2 -7q1 -10 -7 -23q-5 -2 -3 -8q1 -1 1.5 -3.5t1.5 -3.5q0 -2 3 -2q2 0 4 2q1 1 1 4q1 7 5.5 22t5.5 23q1 6 5 13q9 17 9 27q0 2 2 8q0 2 1.5 5l2.5 5q0 1 4 13zM574 266l5 2
q5 5 8 14q1 3 3 9.5t3 10.5q4 14 4 20q-1 2 0.5 4.5t2.5 4.5t1.5 5t-0.5 5.5t2 5.5t3 5q1 2 8 21q-2 4 2 10.5t3 9.5q4 6 7.5 18.5t4.5 14.5q0 1 -1 2.5t-2 1.5l-16 -4l-1 -1q-1 -3 2 -3q0 -1 5 -2v-4q-1 -3 -4.5 -12.5t-4.5 -15.5q-1 -1 -3.5 -11t-4.5 -14q-2 -3 -3 -7
t-1.5 -7t-1.5 -6.5t-2 -6.5q-7 -18 -9 -32q-2 -9 -8.5 -15.5t-6.5 -8.5t1 -4t2 -5t2 -5zM235 365q1 -2 3.5 -5t4.5 -5q6 14 12 37q1 3 0 6q0 1 -2 4t-5 2q-5 -3 -3 -7q1 0 4 -5l-7 -7q-6 -5 -5 -13l-2 -8v-4v5zM191 202q-11 -9 -17 -8q4 -13 0 -18q-1 -1 -0.5 -2.5t3 -2.5
t4.5 -2q1 4 5.5 15.5t4.5 18.5q4 5 1 7q-4 4 -10 5q5 4 11 3l5 1q1 0 2.5 -1t1.5 0h-4q0 1 -0.5 7t2.5 6l2.5 5.5t4.5 17.5t5 18l-1 1.5l-1 1.5q-3 0 -4 -2q0 -1 -3 -9q-1 -2 -3 -3.5t-3.5 -2.5t-1.5 -3q-8 -7 -6 -17q1 -4 -3 -6q-2 0 -5.5 -6t1.5 -11zM631 443q6 5 6.5 6.5
t0.5 9.5q-3 -7 -6 -16q-3 -3 -3 -4t0.5 -1.5t1.5 0.5q1 0 1 1t-1 4zM138 95q-2 2 -4.5 5.5t-3.5 5.5q-9 -2 -17 -5t-17 -7t-14.5 -6.5t-16 -8.5l-14 -8t-15.5 -9.5t-14 -8.5q-12 5 -20 25q-3 9 4 15q23 22 37 28q5 2 17.5 9t19.5 9q1 1 3.5 2t4.5 1q8 2 25 8.5t26 7.5
q6 2 9 10l3 9l3 9q2 6 3 8t3 3.5t9 5.5l-2 3q-6 6 -2 11q5 7 3 14q-1 2 2 7q1 2 10 18q-1 6 2 20q11 46 14 52q1 3 2 10q1 19 10 44l8 24t10 27.5t9 23.5q2 5 5.5 15t3.5 12q7 20 17.5 56t13.5 45q2 6 2 10q0 9 -2 11q-3 1 -10 -3q-32 -18 -37 -21q-18 -11 -27 -19
q-10 -9 -34 -23q-28 -17 -36 -25q-5 -3 -14.5 -9t-15.5 -9.5t-14.5 -7.5t-16.5 -7q-25 -8 -36 -9q-7 -1 -13 3t-15 17q-1 2 -1 4q-1 1 -1 8q2 2 5 3t5.5 0.5t4.5 0.5q31 6 70 29q8 5 56 39q69 49 83 57q20 12 35 16q29 8 47 -13q3 -3 7 -6t16 -10q8 -5 14 -15q8 -12 3 -25
q-8 -22 -16 -47q-2 -8 -7 -24t-7 -23q-7 -21 -11 -31q-18 -47 -40 -115q-6 -17 -15 -56q-8 -32 -16 -55q-1 -4 -13 -50q0 -1 1 -2.5t2 -1.5q9 1 10 2q7 2 19.5 5t18.5 5q13 3 18 4q46 6 120 29q26 7 52 12q10 2 44 11q2 1 6 2q13 3 15.5 5t5.5 11q2 6 3 10q6 14 14 41.5
t11 36.5q25 75 31 89q15 38 20 59q3 8 12 30q11 25 15 51q2 8 3 10q8 21 16 70q0 3 2 8q2 6 8 6q8 0 12 -1q15 -3 34 -18q2 -2 4 -5q6 -14 8 -21q4 -9 1 -20q-5 -27 -24 -81q-1 -5 -4 -7q-8 -5 -6 -16q1 -13 -9 -26q-5 -6 -6 -8q-27 -74 -36 -99q-4 -12 -26 -80v-7h5
q40 17 42 18q7 4 17 8q8 3 15 -4q5 -7 6 -10q6 -13 -1 -24q-12 -17 -25 -17q-3 -2 -10.5 -3.5t-10.5 -2.5q-5 -2 -19 -9q-18 -9 -30 -12q-9 -3 -12 -11q-11 -36 -22 -75q-1 -3 -1 -10q0 -10 -6 -15q-4 -4 -6 -13q-4 -13 -10 -35.5t-8 -30.5q-4 -14 -7 -27q-3 -9 -3 -12
q0 -9 -4 -18q-5 -13 -2 -26q1 -10 1.5 -14.5t-0.5 -10.5q0 -3 -3.5 -6t-6.5 -2q-30 9 -42 21q-17 17 -11 39q3 11 4 18q0 13 7 19q2 2 3 9q3 21 8 38q2 7 8 9l2 -4v1q0 1 -2 3l4 7q7 -2 9 2q3 6 -3 9q-2 -3 -7 -11q1 4 0 4q-6 12 0 23q3 5 1 10t0.5 13t3.5 11l2 3q1 1 8 9
q2 4 2.5 14t2.5 14q3 7 -3 16q-2 1 -12 -1q-3 -1 -12 -3t-14 -3q-16 -2 -62 -14q-35 -10 -40 -10q-2 0 -4 -1q-25 -8 -66 -15q-5 0 -8 -2q-6 -3 -22 -7q-8 -1 -55 -14q-10 -2 -13 -12q-1 -3 -2 -8q-19 -84 -22 -94q-7 -33 -13 -71q-2 -14 -3 -41q-1 -3 0 -9t1 -8q1 -4 3 -41
q-3 -5 -10 -4q-26 4 -41.5 21t-17.5 43q-1 7 -2 29q0 7 6 10q4 2 3 4q-1 4 5 22q5 15 6 33q0 1 2 9q-7 5 -7 6q-2 1 -1.5 3.5t1.5 3.5q1 0 4 1l5 2q2 1 4 6q1 2 1 3q2 3 7 1l1 -1q1 0 3 -1q7 4 10 6l2 4q0 3 2.5 13t5.5 15q1 4 1 8q-1 5 3 14q0 1 -1 9q0 2 -2 1q-3 0 -3 -1
q-2 -7 -5 -11q-3 -2 -1 -9q1 -4 -2 -5q-8 -4 -10 -15q-1 -8 -6 -13q-2 2 -2 8.5t-4 8.5q-1 0 1 3l1 1t5 4l-1 4q-5 5 0 11l2 3l2 3q1 1 0.5 1.5t-1.5 0.5t0 -2v-3z" />
    <glyph glyph-name="I" unicode="I" horiz-adv-x="523" 
d="M321 435l1 2l-1 1q-1 -1 -1 -2zM265 219v-2q2 -3 2 1q1 1 -1 1h-1zM247 211q-1 -3 -1 -4v-6q1 -6 7 -4q3 2 4 4q2 5 -2 7q-1 0 -8 3zM263 235q4 -4 5 -4q4 -2 5 2q0 2 3 15q1 1 -0.5 2.5t-2.5 0.5q-5 -2 -5 -3q-1 -1 -5 -13zM299 360h4q6 2 6 7q-1 4 0 6q2 2 3.5 5.5
t2 6.5t1.5 6.5t2 6.5l-1 8l-0.5 0.5l-0.5 0.5l-3 -1q-1 -2 -1.5 -5.5t-2.5 -5.5q-9 -9 -10.5 -13t-0.5 -16q0 -1 1 -6zM305 342q-12 8 -15.5 6.5t-4.5 -14.5v-2q1 -2 -0.5 -9.5t0.5 -9.5q-7 -11 -7 -13q-2 -2 -2 -6l3 -3h1q8 5 10 15q2 9 3 10q4 3 12 26zM241 159q6 -3 3 -8
q0 -1 -7 -12q-13 -1 -15 -12l4 -2q1 -2 2 -4.5t1.5 -3l1.5 -1.5q2 -1 6 0.5t4 3.5q0 3 -2 5q-4 3 -3 7q1 0 0 7q1 0 3.5 -0.5t4.5 0t4 1.5q6 9 5 26q-5 2 -6 2q-4 2 -2 5q1 1 3 4t3 4l-1 3q-1 0 -3.5 -0.5t-3.5 -1.5q-1 -2 -2.5 -6t-2.5 -5q2 -7 4 -12h-4q-4 0 -2 -2
q0 -1 2 0zM274 267l5 -1q3 2 5 6q3 4 -2 7l-5 2q-9 -8 -3 -15q-10 -2 -12 -2l-1 -3q0 -1 0.5 -1t0.5 -1q7 -2 10 4zM182 -17q4 -2 5 1q1 2 3 16q-3 1 -5.5 3t-4.5 5.5t-3 4.5q-1 5 5 7q4 1 5 6q4 10 9 13q0 -3 -2.5 -11t-0.5 -13q4 8 5 8q3 5 2 9v1.5t1 0.5q3 1 5.5 7t5.5 7
l9 -13l-6 -1q1 -3 1.5 -3.5t1 -0.5h0.5q1 1 2 6q5 2 3 6q-5 8 -12 6q-3 7 -3 8q-1 2 0 4h2h1q3 -2 9 1q4 -6 4 -7h2l1 3q-1 1 -7 3q-4 9 -3 11q1 0 4.5 -1.5t5.5 -2.5q4 14 5 15q0 6 -7 12q-1 1 0.5 2.5t1.5 2.5q-4 2 -11 6h-1q5 9 3.5 13t-11.5 9q1 9 6 12q10 6 10 25l-4 7
q3 26 15 52q1 3 1 6q-2 6 1 20q23 87 32 121q3 11 10.5 35.5t10.5 37.5q15 55 18 64q1 3 4 22l-1 4q-16 -7 -17 -7q-2 -1 -8 -3t-9 -4q-23 -11 -64 -22q-11 -2 -18.5 -4t-22 -6t-21.5 -6q-18 -5 -38 0q-12 3 -16 13l-3.5 7l-3.5 7q-4 10 2 18q10 -1 11 -1q12 -3 34 2
q10 3 29.5 7.5t28.5 7.5q14 3 56 20q3 1 7.5 3l9 4t7.5 3q7 2 14 5.5t14.5 7t13.5 5.5q5 2 10 10q2 5 10 6h6q9 -2 16 4q1 0 3 1q60 25 76 32q8 3 14 3q9 1 30 8q12 4 34 9q38 9 71 4q8 -1 25 -3q11 -1 20 -9q6 -5 7.5 -14t-2.5 -16q-6 -11 -18 -12q-12 -2 -31 1
q-22 3 -28 2q-39 -3 -53 -7l-42 -12q-12 -4 -34.5 -12.5t-29.5 -10.5q0 -1 -3 -3q-1 -3 -0.5 -6.5t1 -6.5t-0.5 -7q-1 -3 -2.5 -10t-2.5 -10q-1 -2 -8.5 -28.5t-12.5 -40.5q-2 -3 -5 -15q-10 -49 -22 -80l-0.5 -3t-1.5 -4q-6 -9 -11 -27.5t-7 -22.5q-2 -5 -1 -11
q1 -8 -5 -28q-1 -2 -2 -6.5t-2 -7.5q-4 -14 -5 -15q-4 -6 -10 -33q-5 -17 -20 -76q-18 -71 -31 -119q-1 -7 -4.5 -20t-5.5 -18q-2 -9 -2 -17h6q17 4 45 15q49 20 70 23q11 1 32 4.5l27 4.5t10 1q13 -1 18.5 -5.5t9.5 -14.5q1 -4 1 -6q-1 -5 -3 -8q-1 -1 -3 -2.5t-3 -2.5
q-10 -10 -25 -13q-13 -1 -61 -10q-8 -2 -18 -5q-12 -3 -43 -12q-6 -2 -8 -3q-5 -3 -37 -13q-18 -5 -26 -6q-4 0 -18 -5q-7 -2 -7 -9q-1 -5 -7 -6h-4q-14 1 -19.5 0.5t-19 -3t-18.5 -3.5q-45 -6 -51 -6q-30 -1 -47 3q-8 2 -17 8q-3 2 -4 4q-8 14 -14 26q-2 2 0.5 5t6 2.5
t12.5 -2t14 -2.5q27 -4 47 1q4 1 8.5 1.5t9.5 1t8 0.5q3 1 8 2q1 0 5 1.5t7 2.5q16 1 24 19q1 3 3 7.5t2 6.5q3 8 5 11q3 4 9 1q3 1 3 4.5t0.5 4t5.5 9.5q3 -2 2 -6v-1.5v-0.5q-4 -10 -2 -13q3 4 2 13z" />
    <glyph glyph-name="J" unicode="J" horiz-adv-x="608" 
d="M489 436h1v2q-1 0 -1 -0.5v-1.5zM376 37q8 8 6 16q-1 4 0 4.5t5 1.5q15 17 17 25q6 16 9 20q1 2 1.5 4.5t0.5 4.5v4.5v4.5q8 8 9 8q11 21 13 36q4 22 8 32q3 10 5 22q2 14 2 24q0 6 4 15t4 10q9 30 9 44q0 1 1 4q7 20 12 58q1 3 1.5 7.5t1 8t1 7.5t1.5 8q2 8 -2 20
q-5 -20 -6 -21q0 -6 -3 -18l-4 -16q-5 -29 -7 -34q-1 -1 -1 -6q-2 -13 -7.5 -38t-6.5 -34q-1 -5 -3 -8q-4 -6 -5 -17q0 -6 -1.5 -8.5t-2.5 -10t-4 -11.5q-2 -3 -2.5 -10.5t-2.5 -10.5q-3 -4 -3 -10t-5 -21q-2 -4 -5 -11t-3 -8q-1 -2 -2 -6.5t-2.5 -8t-5.5 -5.5v-4
q-1 -6 -3 -12.5t-5.5 -15.5t-5.5 -12q-1 -4 -6 -1q-3 3 -5 1q-1 -1 -2 -4q-3 -6 -3 -7q0 -3 -3.5 -4t-4 -2t-1 -3t-1.5 -3q-2 -4 -1.5 -5.5t6.5 -3.5q3 -4 3 -5q3 -3 4 1zM348 -1q-2 1 -4.5 3.5l-3.5 3.5q3 4 5 9q-6 4 -7 4q-4 3 -7 -1q-1 -1 -2.5 -3t-3 -4.5t-2.5 -3.5
l-1 -0.5l-1 -0.5q-2 2 -2 3q3 6 10 18t10 18q2 4 7 15q1 0 1 2l1 3q5 6 8.5 12.5t7.5 16.5t6 13q16 34 23 55l17 51q0 1 0.5 4.5l0.5 3.5q6 39 15 66q0 5 3.5 13.5t3.5 11.5q1 3 2 12.5t2 14.5q2 5 4.5 20.5t4.5 23.5q3 9 10 40q1 2 1.5 5.5t0.5 4.5q4 26 7 32q1 3 1.5 9
t1.5 7q8 38 23 96q7 23 12 44q2 8 -1 10.5t-11 1.5h-2h-2q-57 -13 -72 -19q-23 -8 -29 -9q-3 0 -6 -2q-14 -9 -27 -10q-1 0 -3 -2q-15 -9 -26 -13q-4 -1 -9 -3t-10.5 -4.5t-8.5 -3.5q-4 -2 -9 -3.5t-10 -3.5t-8 -4q-15 -5 -17 -7q-20 -11 -60 -21q-15 -4 -33 7q-3 2 -6 6
q-11 18 -17 24q-2 2 -1 5t5 4t6 0l14 -4q12 -5 26 0q21 8 34 14q11 5 25.5 11.5t28.5 12.5t25 11q6 3 13 5.5t13 5t13 5.5t13 5.5t13 5.5t13 6q37 15 80 26q32 7 57 3q5 -1 10 -1q18 -1 34 -14q7 -5 10 -10q1 -3 4.5 -9t6 -11t3.5 -10q1 -6 0 -10q-9 -27 -18 -63
q-5 -18 -12 -41q-1 -2 -2 -6t-1.5 -6.5t-2 -5.5t-4.5 -5t-5 -11q-3 -15 -8.5 -37l-10.5 -42t-8 -37q-9 -48 -16 -85q-18 -84 -31 -130q-12 -38 -41 -97q-8 -16 -18 -37q-5 -13 -13 -18q-8 -7 -17 -21q-11 -19 -21 -27l-5 -5l-5 -5t-5 -4t-6 -3q-35 -13 -51 -12q-28 0 -39 5
q-11 1 -23.5 5t-21 7t-23.5 8.5t-22 8.5q-27 9 -60 30q-15 10 -19 13q-5 3 -18 14q-2 1 -6.5 5.5t-7.5 6.5q-7 5 -10 13q-8 20 -26 33q-6 5 -2 13l1 1.5l1 1.5q7 14 17 3q13 -12 24 -16q19 -7 32 -25q10 -15 10 -22q0 -6 7 -12q0 -1 3 -4.5t5 -4.5q43 -36 94 -46
q41 -8 82 11l7 7l4 4l3.5 3.5l3.5 3.5l4 4l7 5q7 -7 7 -8q2 -2 11 -4q1 0 3 -1q3 -2 5 0q4 6 13 9q1 0 1 3q0 1 -1 6l6 1q2 0 2.5 1.5t-0.5 2.5q-2 1 -3 1q-5 -2 -4 -6z" />
    <glyph glyph-name="K" unicode="K" horiz-adv-x="620" 
d="M160 331v-1v-2q1 1 1 1.5t-1 1.5zM123 220l1 2h-1l-1 -1zM417 373q-3 1 -3.5 0.5t-1.5 -2.5q2 -1 2.5 -1t2.5 3zM594 542l-1 -1q0 -1 1 -3l3 1zM186 387v2q-1 4 -4 3q-1 0 -1.5 -1.5l-0.5 -1.5q1 0 5 -4l0.5 0.5t0.5 1.5zM149 282l-2 4l-3 -1l1 -4zM158 317l-1 1
q-1 1 -2 0q-1 -2 -1 -4l1 -3q3 2 3 2.5v3.5zM392 354l-1 1q-12 -1 -23 -12l-1 -3q0 -1 2 -1.5t4 -0.5q8 6 19 14v2zM394 381q-3 -1 -11 -6.5t-14 -6.5q-1 0 -3 -2q-1 -1 0 -2q2 -3 2 -2q6 0 8 1q14 9 18 18zM302 317q11 3 15 7l-0.5 1.5t-1.5 0.5q-6 0 -12 -9h-2q-1 0 -3 -2
q1 -1 2 -1t3 2zM336 338q-8 1 -11 -4q-3 -4 1 -5q3 0 4 1t5 8q6 0 10 6q1 1 0 2l-0.5 0.5t-1.5 -0.5q-2 -2 -7 -8zM546 500l5 6q4 4 7 0q2 -2 3 -2q6 -3 9 2q1 2 2 5t2.5 5.5t3.5 3.5q6 3 3 6q-1 1 -6 0l-6 -2q-2 2 -7 9q-5 -1 -9 -10q-2 -6 -8 -5q-2 0 -5 3v2v2q3 4 5 6
q18 17 21 23q5 4 10 9.5t8.5 10.5t8.5 11.5t8 10.5q0 1 6 11l6 8q9 8 21 33q9 20 13 30q5 13 6 20q2 7 10 22q5 10 2 18q0 3 2.5 5t5.5 2q11 -1 21 -8l3.5 -3.5t4.5 -3.5q9 -4 17 -20q6 -11 1 -19q-3 -5 -6 -20q-2 -12 -11 -30q-3 -7 -10 -20t-9 -17q-11 -22 -20 -31
q-3 -4 -7 -10q-5 -9 -37 -51q-5 -6 -14 -15q-25 -23 -31 -30q-17 -21 -50 -47q-9 -7 -29 -23.5t-31 -25.5q-16 -13 -30 -22q-14 -8 -20 -14q-8 -8 -20 -15t-57 -39q-18 -13 -36 -20q-11 -4 -31 -13t-24 -11q-3 -1 -9.5 -3.5t-9.5 -3.5q-1 0 -7 -5q15 -21 33 -40
q6 -6 14 -14.5l16 -17t14 -14.5l28 -28q30 -29 38 -43q3 -3 8 -7q36 -25 71 -56q3 -3 7.5 -6.5t9.5 -7.5t8 -7q16 -13 18 -17q1 -1 6 -5q14 -9 22 -14q9 -5 20 -5q27 0 49 -3q25 -4 43 8q1 1 19 8q6 3 11 -3q5 -4 11 -12q8 -11 -5 -14q-10 -2 -21 -12q-9 -7 -22 -15
q-11 -6 -21 -9q-44 -13 -89 -3q-12 2 -27 10q-38 21 -69 49l-54 44q-10 9 -16 14q-8 8 -24 24.5t-23 23.5q-5 4 -13.5 12.5l-11.5 11.5q-8 8 -10 11q-7 10 -41 44q-14 14 -18 21q-6 9 -17.5 22.5t-16.5 19.5q-5 7 -11 9q-2 0 -3 -1q-3 -3 -3 -5q-1 -3 -1.5 -7t-0.5 -6
q-4 -15 -8 -20q-3 -3 -2 -6q1 -5 -3 -12q-10 -17 -10 -34q0 -6 -5 -16q-6 -10 -10 -27q-3 -12 -2 -20q2 -16 -5 -26q-4 -5 -1 -14q0 -1 0.5 -2.5l1 -3t0.5 -2.5q1 -4 -2 -7.5t-7 -3.5q-17 3 -22 6q-8 4 -31 19q-2 1 -9 9q-5 5 -2 11q2 5 2 8q4 30 20 82q1 5 21 75v1v1
q21 57 24 64q1 2 7.5 18.5t9.5 25.5q2 6 4.5 13t4.5 12.5t4.5 13.5t4.5 13q15 42 19 52q4 15 8 19q1 2 2 8q2 11 17 55q4 12 9.5 27l11 30t9.5 26q1 5 6 22q5 21 9 27q3 7 3 23l-7 -1q-19 -10 -23 -13q-12 -8 -34 -15q-37 -11 -87 -38q-8 -4 -29 -14q-12 -6 -20 0t-25 18
q-2 2 -1 5.5t4 4.5q10 2 16 2q21 1 41 12q47 25 90 45q15 7 51 18q15 5 53 5q2 0 22 -6q1 0 3 -2q3 -2 3 -3q1 -4 4 -7.5t6.5 -7t4.5 -7.5q0 -1 7 -18q-5 -16 -5 -17q-11 -30 -20 -56q-8 -21 -13 -26q-2 -2 -1 -3q1 -3 0.5 -6.5t-1.5 -6t-2.5 -5.5t-2.5 -6q-6 -23 -17 -50
q0 -1 -11 -31q-1 -2 -3.5 -9t-3.5 -11q0 -1 -4 -6.5t-4 -9.5q-5 -7 -14 -34q-2 -7 -7.5 -22t-9.5 -27t-6 -23q4 -3 10 -1q3 1 19 8q12 5 15 7q11 5 15 7q24 15 42 21q12 4 16 8q2 2 8 4t8 5q0 1 7 4q0 1 2 1l3 2q4 5 28 24q46 36 75 57q24 17 58 50q5 6 7 7q6 3 17 13.5
t18 14.5q4 -1 5 -6q2 -10 7 -12q1 -7 2 -8q0 -2 2.5 -2.5t3.5 1.5q1 1 6 10q-2 3 -10 4z" />
    <glyph glyph-name="L" unicode="L" horiz-adv-x="496" 
d="M220 260l-3 -2q-1 -2 1 -4q1 0 2.5 1t1.5 2zM68 598q48 25 91 58q18 14 26 20q27 19 62 37q5 3 15 6q8 1 23 4q10 1 12 0q5 -1 23 -3.5t27 -6.5q14 -7 24 -21q7 -10 4 -20l-9 -36q-2 -12 -4 -26q-1 -6 -5 -18q-7 -17 -14 -39q-2 -9 -6 -23.5t-7.5 -27.5t-7.5 -24
q-1 -2 -1.5 -8t-1.5 -8q-4 -10 -8 -30.5t-4 -23.5q-11 -43 -15 -62q-2 -10 -4.5 -28t-4.5 -25q-1 -6 -8 -38q-10 -51 -13 -65q-1 -4 -3.5 -13t-3.5 -14q-1 -2 -6 -33q-1 -9 -2 -10q-4 -12 -9 -46q-2 -11 -3 -14q-5 -12 -8 -51q-2 -18 4 -31q13 -4 28 0q57 17 83 30
q5 3 11.5 5.5l13 5t11.5 4.5q12 7 39 18q42 17 86 28q11 3 58 17q44 13 70 16q55 8 57 8q50 1 82 -2q26 -1 54 -15q36 -17 58 -33q4 -3 6 -3q9 0 13 -11q3 -6 7 -10q6 -6 6 -21q0 -2 -3 -4t-5 -1l-6 3q-4 3 -9 8q-15 15 -38 27q-21 11 -47 15q-44 6 -91 3q-1 0 -43 -5
q-17 -3 -35.5 -7t-43 -11t-34.5 -10q-40 -10 -68 -20q-16 -5 -61 -23q-11 -5 -45.5 -20t-53.5 -22q-10 -4 -43 -12q-5 -1 -13 -1q-3 0 -26 -1q-18 -1 -35 3q-33 7 -57 24q-5 4 -7 7q-4 7 -26 27l-1 1l-5 6q-2 2 -1 8q0 6 5 5q15 0 23 -8l20 -15l4 1q-3 20 -4 22q-2 11 0 22
q1 4 2 9t1.5 9.5t1 8.5t1.5 9t2 9q4 17 11 58q4 22 9 39q3 8 14 57q0 2 0.5 6t1.5 7q1 1 7 14q7 3 10 4q-5 12 -8 18q1 3 1.5 9.5t2 11t4.5 8.5q1 1 1 4q0 14 5 38.5t6 30.5q0 3 4 5t4 8q1 9 5 11q3 2 2 5q-2 4 -1 14t0 14q10 50 11 53q9 33 25 87q13 42 15 76v9l-2 4
q-28 -4 -48 -16q-27 -16 -50 -33q-40 -27 -74 -48q-30 -18 -52 -20q-25 -2 -48 9q-5 2 -9 7q-15 17 -20 36q0 1 1 2q2 1 3 1q13 -9 44 -9q12 1 20 -4z" />
    <glyph glyph-name="M" unicode="M" horiz-adv-x="873" 
d="M702 241v0.5v1.5h-1v-1zM541 357v1l-1 -1h1zM450 205l-1 -3q0 -2 0.5 -2t1.5 1v4h-1zM433 191q1 3 1 3.5t-1 2.5l-1 -2q0 -1 1 -4zM739 355q-1 3 -2 3h-1t-1 -3h4zM456 216l-2 2q-2 0 -4 -1.5t-2 -2.5q2 -2 4 -1zM516 398h2q4 2 4 8l-1 1h-1h-1q-5 -3 -4 -8zM132 48
q8 5 9 6q3 4 -1 9q-2 2 -5 3q-1 1 -2 -0.5t-1 -4.5v-13zM458 227q9 11 9 17q0 8 7 17q5 7 5 15q0 2 1 5.5t1 4.5q0 6 -2 7q-10 -9 -8 -16q0 -1 -2 -3q-7 -5 -3 -10q-1 -12 -8 -21q-3 -6 0 -16zM761 414h-1q-11 -28 -16 -39q0 -1 1 -2t2 0q9 4 12 12q1 3 2.5 8t1.5 8
q3 8 9 25.5t9 27.5l-2 5l-3 -3q-3 -9 -15 -42zM635 -31q0 2 1 5.5t1.5 6.5t0.5 5t0.5 5.5l1 7t1.5 5.5q3 16 6 20q3 6 7.5 18t6.5 16q3 6 1 14q-1 10 1 18q1 4 2 12.5t2 11.5l9 23q2 7 3 10q1 18 12 34q5 8 0 20q-1 1 -2 1q-2 0 -2 -1q0 -3 -3.5 -10.5t-2.5 -12.5
q1 -2 -2 -5t-5 -8q-4 -11 -3 -18q1 -6 -2 -10q-7 -9 -11 -28q0 -1 -2.5 -12t-2.5 -16t-6 -15q-4 -6 -3 -9q0 -1 -2 -8q-9 -49 -10 -53q-1 -6 -1 -22zM222 378q-11 -9 -14 -25q-1 -8 -7 -23q-4 -8 -4 -11q-1 -7 -3.5 -14.5t-5 -15.5t-3.5 -14q-1 0 -4 -5h-2h-4.5t-3 -2
t-1.5 -5q3 -1 4 -1q5 -1 5 -4q0 -4 -3 -8l-5 -2q-4 -1 -2 -5q3 -5 2 -7q-3 -4 -2 -7q1 -1 1 -12q-6 -2 -8 -3q7 -7 3 -13q-1 -1 -1 -2q-9 -17 -8 -31q1 -6 -2 -10q-7 -13 -6 -26q0 -5 -1 -8q-3 -6 -4 -17.5t-2 -16.5l1 -1l4 1q2 10 4 24q2 7 5.5 21t5.5 21l5 8q4 0 6 6
q5 14 0 22l2 5q3 1 7 9q6 12 11.5 36t7.5 29q0 1 1.5 10.5t5.5 14.5q0 5 1.5 10t4.5 11t4 9l4 12q0 3 1.5 8.5t3 10.5t2.5 9l5 15t6 17.5t5 15.5q2 10 -1 15q-8 -6 -8 -7q-3 -3 -4 -5q-10 -30 -10 -39h1zM725 319q-7 -1 -8.5 -1t-1.5 -1q-4 -2 -2 -6q6 -9 0 -19q-4 -6 -4 -7
v-9.5t-3.5 -8.5t-3.5 -9l2 -2q9 9 11 14q11 31 9 50h4q2 1 1 3q0 3 -2 2q-2 0 -3 -2zM1 545q16 1 17 1q40 1 74 22q22 14 30 20q12 10 58 36q3 2 9.5 5t9.5 5q15 8 46 14q7 2 11 1q6 -3 20 -3.5t20 -2.5q11 -4 30 -14q3 -2 5 -6q1 -1 2 -4.5t2 -5.5q7 -10 2 -27
q-11 -33 -16 -47q-4 -10 -10 -29.5t-8 -25.5q-5 -16 -16 -46q-3 -7 -5 -9q-5 -6 -13 -26q-5 -13 -12.5 -38.5t-10.5 -33.5q-5 -15 -10 -32.5t-10.5 -38t-9.5 -32.5q-1 -4 -2 -9t-2.5 -10.5t-2.5 -8.5q-9 -34 -10 -38q-3 -8 -13 -52q-3 -11 -6 -25t-5 -25t-5 -25t-5 -25
q-2 -7 0 -28q5 1 5 6q1 4 10 54q4 20 14 54q16 57 38 107q3 6 7 14.5t8.5 17t7.5 14.5q43 96 57 126q14 33 27 58q23 45 51 91q23 36 56 74q19 22 38 34q3 2 7 5t8 5.5t7 4.5q7 5 10 4q7 -2 23 4q14 6 24 1q2 -1 6 -1h4q22 -4 25 -21q8 -15 11 -44q4 -31 -12 -68
q-4 -9 -11.5 -26t-10.5 -25q-2 -5 -3 -8q-1 -10 -6 -19q-3 -7 -4 -14t-6 -23t-6 -25q2 -2 4 2q15 29 25 48q12 23 34 56q3 5 9.5 16t9.5 16q11 16 30 42q11 16 42 45q13 13 26 15q2 1 12 5q21 10 48 8q12 -1 38 -8q9 -2 13 -10q0 -1 2 -4t3 -5q2 -6 1 -10q-2 -23 -5 -34
q-6 -30 -15 -64q-4 -13 -10 -29q-7 -18 -21 -63q-6 -16 -7 -19q-6 -11 -6 -24q0 -6 -2 -12.5t-5 -14.5t-4 -12q0 -1 -1 -2q-3 -2 -5 -5t-3 -5t-1.5 -7.5l-0.5 -5.5q-2 -10 -11 -40q-26 -89 -29 -97l-2.5 -7.5t-3 -9.5t-2.5 -8q-8 -30 -18 -63q0 -1 -1 -2.5l-1 -1.5
q0 -7 -2 -14t-5 -15t-4 -13q-11 -40 -14 -53q-7 -32 7 -56q3 -6 9 -8q21 -4 36 4q40 22 59 48q2 3 6.5 8t6.5 8q3 4 8.5 12t6.5 10q4 5 7 9q1 1 4 1l1 -2q0 -1 -3 -14q-3 -12 2 -17q3 -4 1 -12l-1.5 -3t-1.5 -5q0 -12 -15 -30q-21 -25 -44 -36q-7 -6 -27 -9q-23 -3 -55 7
q-17 6 -52 29q-2 1 -5 6q-13 20 -18 27q-3 6 -3 12q-1 13 0 23q3 13 8 34q4 17 9 33q1 4 15 47l3 8q5 8 12 37q5 24 9 29q1 1 1 4q3 17 10 31q1 2 10 31q7 24 9 38q2 12 5 20q4 6 8.5 18.5t7.5 18.5q2 3 4 10v3t0.5 4t1.5 3q3 5 5.5 12t4.5 12.5t4 13t4 12.5q2 6 5 11
q6 15 7 28q1 6 3 14q3 7 10.5 28.5t11.5 33.5q14 44 19 74q1 2 1 10q1 6 -5 5q-12 -1 -14 -2q-24 -10 -36 -23q-11 -12 -23 -21q-4 -2 -12 -11q-3 -4 -7.5 -11t-6.5 -9q-4 -5 -7 -8q-2 -1 -6 -3.5t-6 -4.5q-2 -1 -3.5 -5t-2.5 -5q-18 -24 -38 -59q-6 -9 -9 -14
q-12 -18 -15 -29q0 -1 -4 -7q-13 -25 -14 -34q-1 -4 -4 -8q-6 -7 -13 -34l-13 -39q0 -1 -1 -2q-5 -6 -16 -37q-1 -4 -3 -8.5t-4.5 -10t-3.5 -8.5q-12 -29 -12 -38q0 -2 -1 -3.5t-2 -3.5t-1 -3q-1 -4 -4.5 -13t-5.5 -14q-2 -11 -11.5 -16t-20.5 -1q-25 9 -40 19q-8 19 2 40
q5 12 5 22q-1 7 2 16q4 16 9 30q7 19 7 25q1 2 2 4.5t2.5 4.5t1.5 4q1 5 4 14.5t4 11.5q11 42 22 72q2 5 6 20q5 17 16 47.5t14 40.5q1 4 26 64q12 28 7 57q-1 3 -3 7q-1 2 -4 2q-1 0 -4 -1q-22 -10 -36 -22q-3 -4 -14.5 -14t-17.5 -15q-16 -17 -25 -28q-1 -2 -6.5 -10
t-9.5 -13t-9 -8q-16 -24 -17 -26q-10 -19 -19 -29q-2 -2 -8 -12t-9 -17q-4 -9 -13.5 -26.5t-16.5 -32t-12 -27.5q-2 -5 -5 -12q-12 -21 -17 -35q-1 -3 -12 -26q-32 -69 -33 -71q-4 -9 -11 -25.5t-9 -19.5q-5 -12 -12.5 -35t-10.5 -31q-6 -16 -6 -28q0 -1 -3 -12
q-10 -40 -10 -50q0 -5 -1 -9q-5 -17 -10 -56q0 -1 -2 -16q-12 -7 -24 -1q-11 5 -23 9q-2 0 -15 6q-7 4 -10 10q-1 2 -4.5 7.5t-4.5 9.5q-7 14 -7 25q1 5 0.5 18.5t-0.5 18.5q1 19 7 41q5 20 15 64q7 34 14 56q3 7 6.5 21t5.5 20q1 4 2.5 11t2.5 11q2 5 3.5 10.5t2.5 11.5
t3 10q2 6 4.5 15t5.5 18t5 16q1 4 4.5 14.5l5.5 16.5q6 20 8 32q2 9 5 16t21 62l12 36l11.5 34.5t20.5 64.5v4q0 3 -1 4h-2h-2q-9 -7 -28 -12q-12 -3 -24 -11q-16 -10 -27 -15q-8 -3 -18 -10q-7 -5 -34 -24q-34 -25 -82 -29q-10 -1 -22 6q-12 8 -21 22z" />
    <glyph glyph-name="N" unicode="N" horiz-adv-x="730" 
d="M542 209q-1 -2 -1 -3l0.5 -0.5l0.5 -0.5l3 2q-2 1 -3 2zM555 251v4v1q-2 0 -2 -1q-2 -1 -2 -3q0 -3 3 -4zM508 15q8 10 10 11v2q-1 2 -2 1q-7 -3 -8 -5v-9zM535 187q-5 -14 -5 -16v-4h2q3 3 3 4v16zM208 340q-6 -11 -5 -20q6 11 5 20zM519 105l-2 -1l-4 -22q0 -1 1.5 -1
t2.5 1q2 10 2 13q1 8 0 10zM237 436q-15 -28 -17.5 -41t-7.5 -32q0 -1 2 -3q1 0 1.5 0.5l0.5 0.5q2 5 3 8q11 40 19 58zM157 183q-5 -2 -8 -11q-5 -14 -7 -23q-4 -19 -5 -26q-1 -2 1.5 -2t3.5 2q4 12 9 22l2 8q5 19 6 21q1 3 -3 9q8 11 9 12q5 8 1 19q0 1 -1 1h-2
q-4 -21 -6 -26v-6zM194 299q-7 -1 -11 -11q-1 -3 -8 -27q2 -2 3 -2q2 -1 3 0q3 2 3 3q2 14 8 25q0 1 1 12q5 4 2 10q0 -4 -1 -10zM173 233q-5 -2 -4 -8q0 -1 1 -1h1q1 2 2 9l2 3q1 1 0.5 1.5t-1.5 0.5t-1 -2v-3zM339 596q-18 -44 -21 -50q-3 -7 -9.5 -23t-9.5 -25
q-3 -7 -6 -10q-4 -4 -5 -13q-6 -30 -16 -45q-3 -3 -4 -9q-2 -15 -7 -23q-2 -4 -4 -14q-8 -42 -19 -69q-1 -4 -2 -6q-5 -5 -10 -20q0 -3 -3 -12t-5 -14l-3 -12q0 -11 -16 -59q-1 -5 -4 -7q-14 -7 -12 -28q1 -10 -3 -22q-5 -18 -8 -21q-3 -2 -3 -5q0 -7 -6 -21q-2 -5 -3 -12
q-6 -33 -4 -47q0 -4 -1 -10q-2 -7 3 -19q8 18 9 19q19 54 30 96q1 2 2.5 6.5t1.5 5.5l7 21l8 24q6 23 20 52q7 15 20 44.5t19 43.5l23 46q14 26 16 33q11 30 41 76q5 8 11 16.5t10.5 15.5t10.5 16t11 15q30 45 55 75q4 5 15 19q8 10 17 11q1 0 9 5q10 7 13 10q14 11 43 18
q10 3 23 2q38 -2 59 -7q25 -6 40 -24q1 -2 3.5 -5l2.5 -3q29 -34 20 -78q0 -4 -1.5 -12t-2.5 -13q-1 -8 -4.5 -16.5t-8.5 -20.5t-7 -16q-2 -5 -11.5 -26t-13.5 -33q-1 -2 -2 -5t-2 -5.5t-2.5 -5.5t-1.5 -5q-5 -15 -3 -20q1 -3 -2 -10q-29 -83 -35 -107q0 -2 -1 -3.5
t-1.5 -3.5t-0.5 -3q-1 -3 -4.5 -9t-4.5 -10q0 -7 -3 -18q-3 -10 -8.5 -29.5t-7.5 -29.5q-2 -5 -6 -26q-8 -36 -10 -43q-8 -43 -9 -52q-3 -38 0 -56q4 -24 4 -26q2 -9 6 -17q4 -7 14 -21q9 -14 25 -10q16 3 25 8q30 14 46 36l1 1l1 1q15 17 16 18t13 18q1 1 6 8l2 -7
q-1 -7 -3 -12q-5 -11 -3 -22q1 -9 -5 -30q-1 -3 -3 -6q-19 -25 -48 -37q-5 -2 -24 -4q-2 0 -7.5 0.5t-7.5 -0.5q-18 -2 -46 13q-4 2 -25 15q-11 7 -22 24q-15 21 -23 46q-9 28 -10 54q0 15 3 21q1 3 0 8q-2 11 3 36q5 24 10 34q5 7 5 11q0 8 4.5 24t4.5 24q0 4 2 6
q4 7 6.5 16t5.5 20t4 17q1 2 11 39v2q0 2 1 2q4 7 7.5 20.5t4.5 16.5q6 15 8 28q0 3 5 13q5 14 7 17t3.5 9t2.5 8q2 4 6 16q3 8 4 13q3 17 10 27q4 5 6 11q1 8 4.5 16.5t8 19t7.5 16.5q1 3 6 15t8 19q11 35 7 61q-1 10 -5.5 17t-12.5 9q-22 5 -43 4q-24 -2 -37 -13
q-3 -2 -7 -5t-8.5 -6t-7.5 -6q-7 -4 -9 -8q-11 -13 -28 -27q-7 -6 -13 -16q-19 -29 -37 -47q-4 -3 -25 -32q-3 -4 -8.5 -11.5t-8.5 -11.5q-9 -12 -26 -44q-14 -26 -28 -43q-17 -21 -24 -36q-3 -6 -11 -23.5t-12 -27.5q-3 -8 -19 -43q-18 -37 -20 -49q-4 -6 -8 -18t-6 -14
q-7 -16 -15 -47q-7 -27 -14 -50l-3.5 -10.5l-3.5 -10.5q-7 -21 -10 -27q-7 -19 -9 -32q-1 -7 -7 -11q-1 -1 -5.5 -9t-11.5 -4q-20 10 -31 13q-7 2 -13 9q-18 24 -20 55q-1 12 -1 21v8q0 1 2.5 16.5t5.5 23.5q1 1 4 14l2 10q8 12 6 21q2 4 3 8.5t1.5 11t0.5 8.5q2 13 5 22
q1 2 5.5 10.5t4.5 13.5q0 2 7 24q2 9 7 26q10 37 11 39q4 14 9 21q8 9 8 25q0 10 5 24q5 15 15 49q3 7 6 10q9 8 8 19q-1 5 3 11t3 11q-3 8 3 18q8 16 13 33q1 4 3 9t5 11l5 10q7 16 14 36q1 0 3 10l-6 2q-27 -5 -36 -10q-7 -2 -18.5 -6.5t-21 -8.5t-17.5 -9
q-23 -14 -29 -16q-14 -5 -37 -20q-10 -6 -31 -16q-9 -5 -18 -7q-15 -3 -24 7q-1 1 -22 19q-4 4 1 7q4 3 5 3q4 1 10 2q24 3 54 19q6 4 18 11q54 34 126 60q15 6 36 7q14 0 34 -9l16 -8q7 -3 21 -13q9 -7 11 -17z" />
    <glyph glyph-name="O" unicode="O" horiz-adv-x="683" 
d="M560 410v-1v1zM156 386l-1 -1v-2l1 2v1zM550 352q0 -1 -2 -3.5t-1 -4.5q0 -1 1 -2l1 1q4 4 1 9zM138 342q9 18 10 22q1 2 -1 3q0 1 -1.5 0.5t-1.5 -1.5q-6 -11 -9 -19zM103 225l5 3q0 4 1.5 9.5t2.5 10t0 9.5q7 8 8 12q0 1 4 15q4 11 4 12q-1 15 7 26v4q0 1 -2 1
q-1 1 -2 0q-3 -4 -3 -7l-9 -20q-4 -6 -6 -15l-1.5 -4.5t-1.5 -6.5q-4 -8 3 -18q-6 1 -7 -2q-1 -1 -6 -15q1 -1 2.5 -4.5t1.5 -4.5t-1 -5q-2 -6 -3 -7l2 -2l1 2v7zM106 165q-8 0 -12 -6l3 -8v-5t3 -4l3 7q0 2 2 16q1 7 1 8t-1 1l-0.5 0.5t-1.5 -0.5q-2 -2 -1 -3q0 -1 4 -6z
M80 579l7 7t2.5 4.5t3 6t4.5 3.5l2 5q1 0 5 11v-1q13 7 21 11q5 11 5 12q2 2 5.5 4t4.5 3q4 4 21 17q3 3 7 3q3 0 4 1q8 10 15 13q1 0 15 10q5 4 7 5q1 0 3.5 1t4 1.5t3.5 1.5t4 1.5t3 2.5q5 3 17 8q15 6 17 6l9 5l5 3q5 -1 9.5 0t9.5 3.5t8 3.5q8 1 15 1q23 0 39 -1
q27 -3 35 -1q2 1 6 1q71 -8 87 -13q2 0 26 -8l3.5 -1.5t5.5 -2.5q51 -16 88 -62q10 -14 13 -28q1 -3 4.5 -16t4.5 -19q2 -8 1 -12.5t-1.5 -11t-0.5 -11v-10.5v-7v-7t-0.5 -6.5t-1.5 -6.5q-1 -1 -1 -6q2 -5 1 -16.5t-1.5 -16t-2.5 -16t-3 -16.5q0 -1 -1 -2q-3 -7 -15 -33
q-3 -2 -5 -5t-2.5 -6t-1.5 -6.5t-2 -6.5q1 -3 0 -10t-2 -9.5t-3.5 -9t-2.5 -8.5q-14 -41 -17 -47q-2 -15 -11 -31q-4 -7 -8 -11q-10 -8 -11.5 -21t-13.5 -27q-13 -14 -18 -27q-5 -12 -5 -18q1 -11 -9 -17q-11 -8 -16 -23q-4 -13 -16 -31q-9 -13 -16 -29q-15 -33 -35 -58
q-6 -7 -43 -47q-2 -3 -7 -7q-2 -1 -3.5 -2.5t-3.5 -2.5t-3 -2q-13 -14 -51 -35q-18 -10 -40 -10q-36 1 -62 12q-1 1 -13 5q-1 1 -3 1l-5 2q-39 24 -43 28q-36 29 -51 69l-0.5 2.5t-1.5 3.5q-10 16 -12 49q-1 10 -2 29t-2 26q-1 13 2 35q5 32 32 140q1 6 4 10q4 6 5 15t2 12
q3 6 7 17t6 16q14 32 18 37q1 2 1 3q2 8 5 15.5t9 18t7 13.5q4 8 13 22.5t12.5 22.5t10 16t13.5 16.5t11 15.5q34 32 50 40q5 3 7 4q28 6 40 8q19 3 33 -2q4 -2 8 -2q14 0 37 -15q8 -5 18 -23q3 -5 -2 -9q-10 -9 -23 -7q-14 1 -17 15q-17 3 -36 -8q-2 -2 -16 -11t-22 -13
q-3 -1 -8 -6q-14 -14 -21 -22q-4 -4 -7 -11q-10 -24 -14 -29q-2 -1 -11 -22q-1 0 -3 -5.5t-4 -7.5q-8 -12 -33 -68q-3 -7 -8.5 -22t-9.5 -22q-7 -17 -25 -84q-1 -3 -13 -59l-2 -5q-6 -10 -5 -30q0 -24 -0.5 -37t2.5 -37t3 -31q1 -16 9 -32q1 -2 2.5 -6t2.5 -7t3 -6.5t4 -6.5
q3 -3 8.5 -10t8.5 -10q1 -1 1.5 -2t1.5 -2.5t2 -2.5q8 -10 22 -13q9 -2 19 1q14 4 58 30q5 2 10 7q14 13 36 34q3 2 5 6q4 5 12.5 17t13.5 18q10 14 15 27q3 7 9 11v-4l1 -3q3 2 3 3t-1 2t-4 1l3 6q11 3 13 14q2 14 15 21q3 2 5 6q7 15 15 20q5 3 2 11l-3 6q14 33 16 35
q6 13 17 33q2 3 5 10t6 12.5t7 9.5q2 3 5 13q2 7 6 11t5 7q19 56 20 60q2 11 7 23q13 29 16 49q1 8 1 10q15 63 15 65q1 6 6 49q2 18 3 26q1 24 -6 49q-3 13 -11 22q-1 1 -12 16q-9 14 -25 19q-29 9 -65 11q-5 0 -10 -3q-12 -7 -32 -8q-6 -1 -23 -2t-26 -2q-4 -1 -24 -5
q-52 -12 -90 -34q-66 -37 -109 -87q-25 -29 -38 -53q-14 -28 -21 -47q-11 -31 3 -53q0 -1 2 -6q0 -1 -1 -2.5t-3 -1.5q-3 -1 -4 0q-4 3 -13.5 7t-13.5 6q-22 13 -34 30q-10 16 -7 36q1 6 5 8q5 3 7 7q1 2 2.5 5.5t3 6t2.5 5.5q6 19 20 36q6 7 7 12q0 2 7 1q5 4 24 30z" />
    <glyph glyph-name="P" unicode="P" horiz-adv-x="769" 
d="M258 677l-3 1q-1 0 -2 -1l4 -2l1 1v1zM272 684l-2 -2l1 -1l2 2zM115 589q-4 3 -9 -1l-1.5 -1.5t-0.5 -1.5q1 -3 3 -2q1 1 8 6zM313 419h1q-1 2 0 4t2 3t3 2.5t3 2.5q-1 3 -8 15q-1 -2 -5.5 -7.5t-5.5 -9.5q-6 -21 -11 -30q-4 -8 -2 -18l-4 -4q-2 -6 -9 -20t-9 -22
q-7 -10 -12 -31.5t-7 -26.5v-8v-5.5t-1 -7.5q-3 -17 -11 -20q-2 0 -4 -6q-4 -9 -7 -10q-2 -1 -1 -5q3 -19 -11 -29q-2 -1 -3 -5q-2 -8 1 -14q2 -3 0 -7q-9 -18 -10 -21q-2 -11 -8 -17q-8 -8 -5 -17q0 -2 -2 -7q-4 -9 -5 -12q-6 -19 -5 -27q-2 -3 -3 -7.5t-1 -7.5v-8.5v-8.5
q-4 -6 -14 -19v-36l2 -1l3 4q4 14 5 16q2 3 3 7t1.5 8.5t2.5 7.5l-3 13q8 -1 8 5q0 7 5 12q6 7 0 13l-0.5 1.5l-0.5 1.5q2 2 3 5t1.5 5.5t1 5.5t2.5 5q4 4 4 9q2 7 6 13q2 3 6 11q0 2 8 23q4 2 4 10q1 19 6 26q1 1 2 5q3 14 12 24q6 7 3 15q-2 5 3 11q9 11 6 23q1 3 1 7.5
t0.5 8.5t1.5 7q1 1 5 20q6 4 7 5.5t1 6.5q-1 7 1 10l9 18l6 1q3 0 1.5 3.5l-1.5 3.5q-1 2 1 14l2 2q5 1 8 1l-8 8q1 5 1 14q7 8 12 6q2 0 4 4v4l1 4q1 1 4 2.5t4 2.5q3 2 7 7q4 4 -2 6zM140 604q3 -1 3 -2l2 1q-3 0 -5 1q8 7 9 8q8 3 19 16q2 2 0 4q-22 -13 -24 -14.5
t-11 -11.5q0 -1 1 -3q1 -1 2 0q1 0 4 1zM628 448q-2 5 2 12q5 8 3 13q5 19 14 24q5 3 9 8q19 32 32 80q1 6 0 10q-2 4 -2 21q0 18 -5 32q-4 9 -11 12q-3 2 -9.5 5.5t-10.5 4.5q-12 6 -28 5q-26 -4 -53 2q-42 8 -115 7q-35 -1 -95 -16q-2 0 -7.5 -1.5t-8.5 -2.5
q-19 -4 -45 -14q-2 -1 -31 -12q-15 -5 -42 -21q-40 -23 -79 -56q-9 -8 -47 -46q-11 -10 -19 -21q-25 -33 -25 -73q0 -44 30 -77q12 -13 19 -33q1 -2 -2 -3q-10 -2 -19 6q-18 16 -30 33q-7 9 -11 12q-9 6 -17 20q-13 23 -23 55q-2 9 -2 17q0 13 1 39q1 4 2 10q1 3 3 7
t3.5 8.5l2.5 7.5q4 12 11 17q15 13 29 34q5 7 15 17q31 29 45 40q21 17 40 28q5 3 16.5 10.5t18.5 11.5q26 14 44 21q41 17 46 18.5t16.5 6t18.5 6.5l18 4.5t22 6t19 5.5h2.5t3 0.5t2.5 0.5q41 5 47 6q15 2 24.5 -3t5.5 -15q6 -6 13 -6q4 0 5.5 1.5t0.5 7.5q5 2 6 2
l10.5 -1.5t11.5 0.5q1 1 20 1l4 1q9 7 29 -1q11 -4 27 -8q20 -5 50 -20q1 0 7 -3l10 -5q34 -16 53 -38q1 -2 5 -5.5t6 -5.5q21 -26 28 -70q2 -11 -3 -31q-10 -36 -23 -62q-4 -8 -14 -26t-15 -28q-5 -11 -15 -19q-9 -7 -19 -15.5t-22.5 -18.5t-19.5 -16q-1 -1 -7 -4
q-12 -7 -42 -25t-46 -28q-12 -7 -18 -9q-8 -2 -19 -8q-41 -22 -108 -47q-43 -15 -77 -13q-5 -2 -7 -9q-3 -10 -9.5 -31t-10.5 -32l-11 -33q-18 -53 -36 -118q-2 -8 -8 -36l-2 -12q-6 -37 12 -61q-13 -9 -23 -3q-17 2 -46 17q-7 3 -9 8q-1 3 -3.5 9t-3.5 8q-5 10 -4 20
q3 31 7 43q1 5 3 16t3 16q4 11 10.5 33.5t10.5 33.5q4 16 11 31q6 12 8 25q1 10 2 12q5 10 10.5 29t9.5 28q2 4 15 53q3 8 18 50q23 62 24 64q4 12 10.5 27.5t13 30.5t11.5 28q14 37 26 62l4 7q1 9 6.5 24.5t6.5 16.5q2 7 8 9q20 4 31 -5q2 -2 7 -4q13 -4 25 -21q5 -9 2 -20
q0 -1 -2 -5q-15 -32 -24 -53q-1 -2 -2 -4.5t-2 -4.5t-2.5 -4.5t-2.5 -4.5q0 -2 -2 -6l-3 -6q-19 -41 -22 -50q-5 -11 -10.5 -23.5t-9.5 -22.5t-9 -24t-9 -24q-2 -5 -13 -41q-1 -4 1 -5q4 -2 6 -1q6 2 18 7t19 7q28 10 80 36q47 23 75 40q7 4 67 43q22 14 43 32q8 8 16 9
q-1 -5 -1 -6t1 -2q1 0 4 3q2 2 -1 3z" />
    <glyph glyph-name="Q" unicode="Q" horiz-adv-x="665" 
d="M116 406l1 -2v2h-1zM46 153l1 1q1 1 0 3l-1 1v-4v-1zM537 509q-3 -7 -4 -8l2 -3l3 2q2 5 -1 9zM42 62q4 5 3 12l-2 4q-3 -4 -3 -5t2 -11zM537 482q-4 -1 -4 -2q-6 -38 -6 -46q-2 -1 -2.5 -3t-1 -4.5t-0.5 -3.5q-1 -2 -2.5 -6.5t-2.5 -6.5q0 -2 2 -4q2 -1 4 0q1 0 9 5
q-7 8 -4 13q0 1 -2 10l3 2q6 11 6 21q-1 13 1 20l-1 5q1 4 2 4q0 1 -0.5 1.5t-1.5 -0.5v-1t1 -4zM445 202q-4 2 -6 -2q-8 -13 -8 -22q7 1 9 7q1 2 5 17l2 3l-1 1zM515 384q-3 -3 -4 -7v-13q-4 -1 -4 -9l-4 -4q-5 -10 -4 -21q-3 -2 -4 -2q0 -1 -0.5 -3t-1 -3.5t-1.5 -3.5
t-2 -3q-2 -4 -4 -8.5t-3.5 -9t-3.5 -9.5t-4 -9l-2 -10q-10 -14 -10 -15q-7 -11 -6 -21q0 -1 3 -2q1 0 1 1q10 21 12 26v12l5 1q1 5 8 18t7 21q6 7 5 21h2q6 13 7 17v7q5 3 3 9q6 0 6 4q0 2 -1 16q0 1 1.5 2.5t1.5 2.5t-2 3q0 -3 -1 -8zM45 128q-3 -2 -3 -3q-3 -10 1 -19
q1 9 2 22q2 8 3 9q0 1 -1 2q-2 2 -2 -2v-9zM121 444l-0.5 3.5t-0.5 5.5q9 2 11 3q1 0 1 1q1 2 0 2q-2 0 -14 2q-1 0 -2 2t0 3q5 8 11 17q2 3 6 8q11 15 12 17q3 2 7.5 6.5t6.5 5.5q29 29 41 38q7 5 13 9q10 8 23 7q9 0 30.5 1.5t33.5 0.5q28 -2 66 -14q16 -5 31 -23l2 -2v-2
q1 -1 0 -3.5t-2 -2.5q-26 -5 -37 5q-2 2 -7 5q-7 4 -14 1q-13 -6 -15 -7q-9 -5 -31 -13q-6 -2 -14 -7q-4 -2 -10.5 -6t-7.5 -4q-32 -19 -62.5 -56t-49.5 -73q-15 -27 -28 -62q-18 -49 -27 -91q-9 -36 -10 -50q-3 -23 -7 -32q-1 -5 -3 -23q-2 -30 4 -65q10 -55 42 -98
q11 -14 28 -21q12 -5 30 -1q31 8 53 17q14 6 24 13q38 28 58 49q6 8 2 15q-2 3 -9.5 17t-12.5 20q-4 7 -14 26q-6 13 -12 19q-7 7 4 11q21 10 44 2q6 -2 16 -8q2 -1 5 -6q1 -1 9 -23l4 -9q0 -1 3 -4q4 3 4 4q17 23 27 39q3 4 8 12.5t9 13.5q8 13 27 53q1 1 8 17t11 23t5 10
q5 17 17 47t15 40q3 7 7.5 23t7.5 24t14 49q1 4 2 10l5 30q5 21 2 37q-4 16 0 30q1 3 0 4q-4 4 -6.5 14.5t-2.5 12.5q-1 1 -1.5 3t-1 3.5t-1.5 3t-1 3.5q-2 1 -1.5 6.5t0.5 7.5q-4 19 -14 32q-2 2 -3.5 5.5t-3.5 7t-4 6.5q-7 10 -12 19q-4 7 -21 28q-15 18 -40 22
q-2 0 -5 0.5t-5 0.5t-4 1q-18 4 -32 -6q-8 -6 -27 -8q-68 -8 -135 -52q-8 -6 -26 -18q-28 -19 -75 -72q-11 -11 -26 -37q-10 -19 -5 -36q1 -2 1 -6q1 -2 -0.5 -4t-3.5 -1q-8 1 -12 0q-14 -5 -36 9q-4 2 -5 7q-7 25 -10 40q-3 16 6 31q15 24 39 53q2 3 30 31q21 21 42 36
q8 6 14 12q19 17 53 33q3 1 12 6.5t15 7.5t18.5 4.5t17.5 4.5q4 1 14 -1q14 -3 18 3q1 2 8 2q29 1 37 0q15 0 37 -4q29 -5 42 -9q67 -18 110 -68q42 -47 57 -116q7 -34 8 -71q1 -25 -3 -45q-2 -7 -3.5 -19t-3.5 -21.5t-5 -18.5l-5 -17q-4 -9 -12 -40q-1 -5 -10 -29
q-1 -2 -4 -9.5t-5 -11.5q-9 -29 -37 -87q-4 -9 -6 -15q-11 -25 -46 -80q-5 -9 -41 -57q-1 -1 -14 -21q-1 -4 4 -10q14 -22 41 -62q8 -12 30 -34q0 -1 23 -16q21 -14 44 -17q13 -2 29 -5q9 -1 18 -4q3 -1 7 -4q1 -2 2 -5q0 -2 -1.5 -4t-3.5 -2q-22 -1 -24 0q-54 9 -94 23
q-30 10 -51 30q-21 19 -39 38l-15 21q-1 1 -8 10l-7 -5q-13 -10 -26 -21q-47 -38 -116 -42q-4 -1 -12 1q-11 2 -28 5q-8 2 -10 3q-4 3 -9.5 5t-9.5 3t-9.5 3t-9.5 4q-22 13 -42 30q-8 8 -18 23q-19 29 -28 54q-9 22 -11 44q-2 30 0 74q2 26 5 39q3 12 4 13q3 5 3 6
q-1 6 -0.5 8.5t2.5 7.5t3 7q3 10 7 22q1 1 15 49v3t0.5 4t0.5 3.5t1 3t3 2.5q-1 8 6 15q2 3 2 6q0 4 1.5 8.5t4.5 10t4 8.5q4 10 12 12q3 0 5 4l4 9t7 13q3 3 6.5 11t5.5 10q1 2 1 6q0 5 1 6.5t6 4.5z" />
    <glyph glyph-name="R" unicode="R" horiz-adv-x="770" 
d="M138 602q1 1 2 1t1 1l-1 1l-3 -1q1 -1 1 -2zM338 707v1l-2 -1h2zM219 655l-1 -1q0 -1 0.5 -1.5l0.5 -0.5q3 1 1 3h-1zM184 -5q2 2 -1 3q-1 1 -1 -1l1 -3zM262 279q0 1 -1 1t-1 -1v-3l1 -1q1 3 1 4zM327 702l-1 1h-2l1 -2h2v1zM200 126l2 1q2 1 2 3.5t-1 3.5h-2
q-5 -2 -2 -7zM276 307l-2 3q0 1 -1.5 0.5l-1.5 -0.5q-2 -3 -3 -6l2 -3h0.5h1.5q4 2 4 6zM728 -9l6 -7q12 -4 25 -8h9q-11 7 -16 9t-24 6zM898 -51q-5 3 -14 4q-5 1 -12 3q-28 7 -48 3q-2 -1 -5 -3q-2 -1 2 -3q2 -1 4 -1q11 -3 65 -8q5 -1 8 5zM278 326q8 1 13 12q0 1 3 11.5
t7 14.5q1 1 -1 4q-2 4 -5 1q0 -1 -1 -1t-1 -1q-12 -15 -12 -27q0 -3 -1 -7.5t-1 -6.5q-3 -4 -3 -5l2 -2l1 2zM246 660q-3 0 -8.5 -2.5t-8.5 -0.5q-2 1 -2.5 -0.5t-0.5 -3.5q-1 0 0 -6q-8 2 -11 -1q-1 0 -1 -1q1 -3 2 -3q8 2 10 5q8 -1 19 8l1 5q8 -2 12 4q1 2 -1 4h-2l-7 -1
q-1 0 -2 -7zM674 554q5 2 5 6v10q5 5 2 17q-1 -10 -2 -17l-5 -17q-1 -4 -1 -5q-1 -1 -0.5 -1.5t1.5 -0.5q1 1 1 2t-1 6zM65 548q5 6 6 6q12 7 13 20q1 12 8 20q1 0 1.5 1.5t1.5 1.5q11 15 12 17q3 2 10 5.5t8 3.5q11 7 40 29q7 5 14 12q5 4 10 3q6 0 13 5q15 13 42 25
q32 14 43 16q8 2 13 6q8 9 26 10h2.5t3.5 1q32 7 73 4q7 -1 35 3q20 3 30 -2q2 -1 6 -1h5q20 -3 46 -7q2 -1 6 -2q43 -16 48 -18q34 -13 74 -41q20 -14 30 -22q26 -22 34 -48q2 -9 2 -16q1 -10 0 -27q-1 -20 -8 -32q-4 -6 -8 -21q-4 -14 -15 -26q-24 -25 -32 -41
q-2 -6 -10 -10q-6 -4 -17.5 -12.5t-15.5 -10.5q-22 -15 -26 -17t-12.5 -8t-13.5 -8q-8 -6 -19.5 -12.5t-23 -12.5t-19.5 -12q-4 -3 -12 -6.5t-10 -4.5q-5 -3 -11 -7t-12.5 -7.5t-11.5 -6.5q-24 -14 -62 -22q-3 -1 -24.5 -6.5t-33.5 -7.5l-6 -3l3 -5q14 -11 20 -15
q54 -35 86 -56q6 -4 82 -52l7 -4q26 -20 107 -69q3 -2 25 -16l1 -1l2 -1q9 -3 24 -11.5t22 -11.5q6 -2 15.5 -6.5t12.5 -6.5q12 -5 18 -3q5 2 14 0q26 -6 40 -8q26 -6 28 -7q3 -1 10 -1q6 -1 22 -2.5t25 -2.5q20 -2 29 1q5 2 12 0q13 -3 22 7q1 1 17 10q0 11 6 15
q7 4 18.5 14t15.5 12q3 2 8 2q15 -1 21 -14q-1 -3 -2 -3q-7 -6 -7 -16q0 -4 1 -6q3 -10 -6 -19q-5 -6 -10 -10q-3 -2 -8 -5.5t-9.5 -6.5t-7.5 -6q-2 -3 -9 -6t-15 -7t-15 -7t-16 -7t-15 -7q-8 -4 -14 -1h-2q-17 0 -49 5q-35 6 -49 8q-28 3 -93 25q-4 2 -11 5q-57 30 -64 34
q-6 3 -13.5 8l-13.5 9t-13.5 8.5t-13.5 8.5q-13 7 -34.5 22.5t-28.5 19.5q-29 19 -37 24q-11 7 -36 21.5t-38 22.5q-7 5 -25 18q-21 14 -42 27q-25 15 -48 35l-2 2.5t-3.5 3.5t-4.5 0q-24 -88 -27 -107q-1 -5 -4 -14.5t-4 -15.5q-1 -4 -3.5 -18t-3.5 -20.5t-2.5 -17.5
t-2 -20.5t-0.5 -18.5q-1 -30 0 -33q1 -11 8 -13q3 -1 5.5 -3t4.5 -4l4.5 -4.5l4.5 -4.5q1 -1 2 -6t-4 -6q-13 -3 -20 0q-2 1 -6.5 3l-4.5 2q-2 1 -8.5 4t-10.5 5q-18 8 -26 23q-3 7 -10 28q-1 1 0 9q1 20 1 24q2 26 3 31t2.5 15t3.5 18t4 15q1 2 1 6q0 8 3.5 23t3.5 17
q1 4 3.5 11t3.5 10t1.5 10t1.5 11t5 13t5 13.5t2 13.5t1 13q2 9 7 17q10 16 6 27q7 24 8 26q6 12 12 27t12.5 32.5t11.5 27.5q7 17 8 27q1 3 3 8q2 6 6 17.5t6 17.5q3 6 13 33.5t17 41.5q2 4 12 30q1 3 2.5 9t2.5 9q4 12 4 20q-1 8 9 9q12 1 20 -4q23 -13 29 -22q4 -6 4 -11
v-9t-1 -10t-1 -9q0 -8 -7 -26q-5 -11 -12 -13q-2 0 -4 -4q-11 -22 -16 -37v-3l1 1q-8 -14 -8 -15q-8 -25 -45 -112q-3 -8 -16 -40q-1 -2 1 -4t4 -2q6 1 8 1q48 12 74 23q6 3 46 24q15 8 42 22.5t34 18.5q0 1 1.5 1.5t2.5 0.5q10 7 34.5 21t37.5 23q28 21 41 37q3 3 6 6.5
t5.5 6t6.5 6t6 6.5q3 3 4 5q3 8 17 25q3 4 0 8q-2 0 -5 -3t-6 -2h1q-2 5 2 12q8 16 12 47q2 18 -8 40q-2 4 -5 6q-22 18 -47 29q-6 2 -10 0q-9 -4 -18 0q-5 3 -10 3q-23 2 -47 7q-5 1 -15.5 1.5t-12.5 1.5q-25 2 -85 0q-4 0 -28 -4q-42 -6 -76 -17q-19 -6 -36 -16l-38 -19
q-9 -4 -14 -12q-4 -6 -21 -12q-2 0 -5 -0.5t-5 -1t-4.5 -1.5t-4 -2t-4 -3t-3.5 -3l-3.5 -3.5l-3.5 -3.5q-13 -11 -17 -14q-7 -6 -14 -15q-4 -6 -19 -22q-7 -7 -13 -16q-8 -13 -17 -20q-23 -19 -34 -55q0 -2 -5 -32q-1 -8 2 -16q7 -17 15 -27q5 -6 9 -12q3 -5 2 -11t-6 -4
q-8 3 -9 4q-14 11 -17 15q-33 42 -40 64q-8 26 2 52q1 4 4.5 10.5t4.5 10.5q2 5 8.5 14t8.5 14q3 6 13 9q11 4 21 19q1 1 -4 4z" />
    <glyph glyph-name="S" unicode="S" horiz-adv-x="698" 
d="M188 533l1 1h-1v-1zM235 598l1 -2q2 -1 2 1q0 1 -1 1h-2zM320 684l2 -1q10 4 14 7q1 0 1 1.5t-0.5 2t-1.5 1l-1 0.5q-3 -2 -14 -11zM368 710q5 2 5.5 2t0.5 3l-1 0.5l-1 0.5q-5 -2 -4 -6l-4 -1l1 -1q0 1 3 2zM345 -55q4 12 15 15q2 0 4 1q7 5 25.5 16.5t27.5 19.5
q40 35 56 62q6 9 6.5 12t1.5 4q4 1 6.5 4t3.5 5t2.5 6.5t2.5 5.5q10 25 18 48q11 34 5 67q-6 29 -29 49q-19 17 -21 19q-5 3 -14.5 6.5t-10.5 4.5q-17 7 -47 20q-8 4 -84 33q-48 18 -70 31q-49 29 -62 43q-1 1 -13 11q-15 11 -25 30q-4 8 -5 24q0 2 1 4t6.5 20t13.5 26
q3 3 0 7q-2 3 0 14q1 3 4 5q23 20 35 45q5 10 14 17q16 11 30 28q17 20 35 31q5 3 8 6q6 6 14 9q10 3 16 12q5 7 20 17q25 15 58 28q18 7 25 13q7 7 18 8q8 1 14 4q11 7 21 5q7 0 16 4q22 10 48 7q2 0 15.5 -1t19.5 -2q49 -10 71 -26q32 -24 31 -64q0 -4 -1 -12
q-1 -11 -8 -19l-8 -14q-5 -8 -13.5 -26t-13.5 -27q-3 -3 -3 -5q-2 -14 -18 -27q-7 -5 -13 -15q-11 -19 -19 -27q0 -1 -8 -12l-6 -2q-28 2 -47 14l2 6q2 2 15 18t22 24q6 5 11 11t6 9q4 14 16 33q6 9 11 19t10.5 23.5t9.5 20.5q1 3 1 4q3 35 -8 54l-3 3q-12 -5 -34.5 -8.5
t-27.5 -4.5q-22 -5 -32 -10q-8 -3 -35 -11q-18 -6 -61 -29q-12 -7 -32 -18q-9 -5 -47 -30q-3 -2 -7.5 -5.5t-8.5 -6.5t-7 -5q-18 -10 -38 -31q-7 -7 -9 -8q-7 -5 -10 -16q-4 -16 -17 -21q-18 -7 -26 -30q-5 -14 -10 -17q-3 -2 -6 -8q-12 -25 -7 -48q1 -6 8 -14q6 -8 23 -20
q32 -21 68 -35q8 -3 25.5 -9t26.5 -10q8 -3 38 -16q2 -1 13 -6t17 -7q48 -18 101 -55q28 -19 48 -48q21 -31 17 -64q0 -6 -4 -28q-1 -2 -2 -5t-1 -5q0 -3 -8 -28q-4 -11 -12 -24q-2 -3 -6 -9.5t-6 -9.5q-17 -26 -35 -43q-45 -40 -64 -54q-42 -32 -83 -46q-1 0 -2 -1
q-19 -10 -55 -14q-57 -5 -100 10q-36 12 -69 27q-38 19 -94 70q-14 12 -15 28q-1 3 -5 9q-20 34 -8 75l5 20q5 13 10 21q6 11 6 12l2 4q3 3 10 12.5t11 14t10 11.5t12.5 12t13.5 9q16 9 33 5q12 -2 30 -17q2 -2 1 -6q-1 -3 -5 -2t-10.5 3t-7.5 2q-11 3 -16 -5t-12 -14
q-6 -6 -9 -18t-13 -28q-5 -8 -11 -24q-2 -6 -5 -18.5t-4 -17.5q-5 -15 0 -30q7 -23 11 -29q9 -17 8 -29q0 -4 3 -8q19 -19 26 -24q33 -26 73 -30q1 0 10.5 -1.5t13.5 -1.5q48 -2 96 14q8 3 15 5q2 1 3 -2q1 0 1 -1.5t-1 -1.5q-7 -6 -10.5 -7t-9.5 -2t-8 -2q-1 0 -5 -3
q-1 -1 -1 -2q1 -1 2 -1q16 4 23 6q1 0 9.5 1.5t12.5 4.5q0 2 6.5 1t7.5 -1z" />
    <glyph glyph-name="T" unicode="T" horiz-adv-x="545" 
d="M243 145l1 1q0 1 -0.5 1.5t-1.5 -0.5zM230 91q-9 -16 -7 -41q6 24 5 31q0 1 2 10q0 1 1 4.5t-1 4.5v-9zM237 126q0 1 0.5 2t1.5 1q-1 -1 -2 -3l-1 -3zM425 603q-7 -15 -9 -27l-6 -19q-3 -9 -10 -31.5t-12 -34.5q-4 -11 -10 -31t-8 -26q-5 -14 -14 -39t-13 -35
q-2 -6 -5.5 -17t-4.5 -14q-31 -95 -35 -105q-10 -28 -30 -98q-5 -19 -16 -73q-2 -10 -5 -39q-2 -15 4 -34q2 -9 11 -19q3 -4 5 -7q3 -3 -1 -7q-6 -5 -14 -3q-5 1 -11 4q-16 8 -19 9q-10 4 -16 13q-15 24 -18 41q-1 6 -1 12q0 23 4 41q3 11 8 40q5 32 15 55q9 21 14 47
q2 14 22 73q3 4 5 9.5t3.5 12.5t2.5 11q22 66 29 81q0 2 1 4.5t1 3.5q35 99 36 103q4 11 11 33t8 26q2 3 5 13q3 7 1 9.5t-10 0.5q-6 -1 -22 -5q-7 -2 -19.5 -5.5t-15.5 -4.5q-1 0 -3 -0.5t-3 -1.5q-68 -25 -77 -29q-32 -13 -56 -26q-7 -4 -8.5 -6t-12.5 -7q-6 -3 -35 -21
q-1 0 -1.5 -0.5l-0.5 -0.5q-5 -2 -9.5 -5t-9.5 -7t-8 -7l-8 -8l-8 -8q-5 -4 -6 -5q-2 -2 -4 -2q-16 1 -21 6q-12 13 -14 24t5 18q18 18 19 18q17 20 54 40q4 2 13 8q2 1 5 3.5t6 4.5t6 3q41 22 51 26q74 28 111 37q7 2 20 6t18 5q32 9 50 10q7 1 10 7q4 7 12 4q15 -7 32 -2
q4 1 17 3q16 1 20 3q5 1 12 1q11 -1 37 4q22 5 79 13q14 2 42 9q5 1 10.5 2.5t10 2.5t10.5 3t11 3q1 0 3.5 0.5t4.5 1.5q11 4 34 11t34 11q57 24 76 36q13 9 26 11q6 2 12 -3q12 -10 9 -30q-2 -14 -14 -19q-7 -3 -19.5 -11t-19.5 -11q-20 -9 -33 -13q-9 -3 -25 -9t-21 -7
q-5 -2 -24 -6q-2 -1 -6 -1.5t-6 -0.5q-10 -3 -66 -18h-1h-1q-11 -6 -46 -11q-2 -1 -72 -14q-5 -1 -37 -5q-2 0 -14 -1.5t-19 -2.5z" />
    <glyph glyph-name="U" unicode="U" horiz-adv-x="784" 
d="M411 209l1 1h-1v-1zM403 197l1 1l-1 1q-1 -1 -1 -1.5t1 -0.5zM54 116q0 2 -1 2l-1 1l-1 -1q0 -1 2 -3q0 1 1 1zM61 133l-3 1l-1 -3q2 -1 2.5 -0.5t1.5 2.5zM642 544l-2 2h-2q-3 -5 -4 -7l1 -3h1q1 2 6 8zM70 174q7 12 15 38q2 4 4 11t3 11.5t3.5 10.5t5.5 11q2 2 3 7.5
t1 6.5q5 15 6 19l6.5 13t6.5 14t6 13t6 13.5t6 13.5q1 1 1.5 2.5t0.5 3.5t1 4q2 8 3 9q2 4 6 13.5t7 14.5q1 4 13.5 31t18.5 42q0 1 2 10l1 2q0 -1 -1 -2l-2 -1q-15 -24 -22 -41q-3 -9 -6 -14q-7 -12 -17 -35q-2 -5 -4.5 -11t-5.5 -12t-5 -11q-2 -6 -7.5 -20t-8.5 -22
q-2 -4 -8.5 -18.5t-9.5 -22.5q-8 -16 -7 -24q0 -7 -5 -17q-7 -15 -9 -28q0 -4 -2 -7q-4 -10 -5 -29q-5 -4 -10 -21l5 -3q1 9 4 25zM207 511q5 4 6 12q-4 -1 -4.5 -3t-0.5 -9q-3 -1 -3 -1.5v-3.5l1 2q1 0 1 3zM578 248q6 4 4 12q11 11 7 26q-5 -8 -5 -10q0 -1 -2 -16
q-2 -1 -2.5 -3t-0.5 -5t-1 -5q-4 -1 -3 -9q-4 0 -6 -4q-4 -8 -3 -16q-11 -15 -12 -30q0 -2 -3 -10q-1 -2 -4 -11.5t-4 -15.5q-1 0 0 -6l5 8q0 7 4.5 19t5.5 16t3 6q7 6 5 24q3 1 5 6q5 9 4 15q4 5 3 9zM639 409l2 1l1 1l-2 -2l-4 -10l-5 -5q-8 -17 -14 -32q-1 -4 -3 -9
t-3.5 -9t-3.5 -9t-4 -9q-1 -5 -6 -13q-4 -6 -4 -18q6 1 8 6t6 13l6.5 13t5 12.5t2.5 14.5q2 9 7 17q9 13 8 29q4 2 3 9zM620 515q-1 0 -3.5 1t-3.5 2q10 20 32 47v-7q1 -1 2.5 -1.5t2.5 0.5q5 4 0 7l-6 1q6 9 13 18.5t13 17t14 18t13 17.5q5 6 13 3q1 0 2.5 -1t2.5 -1
q13 1 24 -11q2 -1 5 -4l4 -4q13 -11 9 -30q-3 -9 -6 -13q-7 -9 -14 -25q-2 -6 -7 -15t-6 -13l-12 -26q-12 -32 -12 -33q-1 -3 -3 -6.5l-4 -7t-3 -6.5q-16 -40 -21 -56q-1 -3 -3.5 -7.5t-5 -8.5t-3.5 -7q-4 -15 -7 -26q-2 -4 -6 -13q0 -2 -2 -4l-2 -6q-2 -6 -7.5 -18
t-5.5 -14q-18 -44 -32 -87q-3 -8 -6 -18t-6 -22t-5 -19q-2 -6 -5.5 -17t-4.5 -15q-3 -9 -3 -11q0 -5 -5 -18q-6 -18 -5 -26t-4 -16q-5 -9 -2 -30q1 -9 5 -13q11 -15 16 -17.5t25 0.5q9 1 12 2q25 5 41 22q3 3 7 6.5t9 7t8 6.5q3 2 9 8l7 7q7 6 8 7q10 3 24 19l9 8l2 -4
q-2 -7 -10 -18q-8 -13 -11 -22q-3 -13 -15 -25q-10 -11 -29 -25q-11 -9 -32 -14q-10 -2 -13 -6q-5 -4 -13 -4q-42 3 -68 22q-7 6 -10 7q-11 4 -28 23q-19 23 -13 50l2 16q2 24 6 33q10 42 23 87q10 33 10 36q0 1 0.5 2t1.5 2.5t2 2.5q3 6 3 7q2 14 10.5 37t10.5 32
q3 8 10 13l6 6q0 14 10 28q3 5 5 20q3 19 13 27q3 2 3 7q0 9 6 17q1 3 2.5 6t2.5 6t2 5q3 3 4.5 9t1.5 8q6 14 7 19v7l-4 -3q-34 -52 -45 -73q-5 -11 -17 -24q-18 -21 -33 -47q0 -1 -7 -10l-4 -5t-5.5 -7.5t-14 -21.5t-19.5 -29q-6 -9 -17.5 -26t-21.5 -30.5t-19 -24.5
q-2 -2 -4 -5.5t-3 -5.5q-12 -16 -16 -21q-28 -34 -31 -39q-5 -8 -13 -15q-15 -13 -25 -28q-1 -2 -2 -3q-11 -10 -28 -30.5t-24 -27.5q-11 -11 -19 -23q-6 -8 -17 -14q-13 -8 -32 -14q-6 -3 -20.5 -8t-21.5 -7q-7 -3 -24 -7q-3 -1 -6 0q-44 12 -56 19q-15 10 -39 31
q-2 3 -4 5q-18 34 -19 54q-2 37 10 77q6 17 7 32q0 19 11 46q5 12 6 18q2 12 9 33.5t9 26.5q2 9 16 40q12 31 32 78q13 33 29 64q15 30 17 39q0 1 4 10q6 12 7 13q1 2 2.5 8t3.5 10l4 8q4 4 8 13t5 11q16 30 31 76v0.5v1.5t-1 2.5t-2 1.5q-3 0 -8 -0.5t-8 -1t-7 -2t-7 -4.5
q-1 0 -2.5 -0.5t-3.5 -1t-3 -1.5q-7 -2 -8 -3q-6 -4 -13.5 -8.5t-17 -9t-14.5 -6.5q-17 -9 -23 -14q-9 -6 -18.5 -9t-28 -8.5t-21.5 -6.5q-12 -4 -22.5 4.5t-20.5 25.5q-2 2 -0.5 5t4.5 3h12q17 -1 36 6q22 8 59 30q40 22 62 32q20 10 42 11q27 1 39 -9q1 -1 5 -2
q14 -4 33 -25q7 -8 7 -25q0 -3 -3 -9l-6 -9t-5 -8q-6 -11 -7 -17t-7 -15q-2 -4 -5.5 -12t-4.5 -10q-2 -4 -10.5 -20.5t-13.5 -25.5q-2 -6 -7.5 -16.5t-9.5 -19.5t-6 -17q-3 -11 -9 -18q-3 -5 -10 -21q-7 -17 -9 -20q-5 -11 -5 -18q0 -9 -8 -14q-6 -3 -7 -11t-8 -24
q-8 -16 -8 -18q-3 -10 -9 -19q-5 -9 -7 -19q-1 -3 -1.5 -6.5t-1.5 -6.5t-1.5 -6t-1.5 -6.5t-1 -6.5q-3 -16 -11 -29t-13 -38q-3 -13 -5 -18q-5 -11 -6 -22q-1 -3 -4.5 -18.5t-3.5 -23.5q0 -3 -1 -6q-5 -19 -6 -63q-1 -23 12 -41q4 -6 13 -13q7 -7 19 -6q30 3 60 15
q16 6 25 17q2 1 12 11q27 24 27 25q7 8 19.5 20.5t22.5 23.5t18 21q10 8 23 26t17 22q33 37 64 80q15 22 15.5 22t5.5 6l1 -4q0 -1 -1.5 -3t-1.5 -3t2 -3q1 0 2 1t2 3t2 3q8 9 22.5 30t22.5 31q2 2 4.5 6t3.5 6q20 29 25 35q25 33 53 78q8 13 12 19q1 1 10 20q3 3 6 7t6 9
t5 8q1 1 12 21q5 6 6 8v0.5v1.5q-2 2 -3 -1q0 -1 -3 -9z" />
    <glyph glyph-name="V" unicode="V" horiz-adv-x="643" 
d="M533 443q1 0 1 0.5t-1 1.5q-1 0 -1 -0.5t1 -1.5zM549 473h1l-1 1v-1zM249 -35q0 14 -1 17q0 1 -3 1l-1 -1q2 -12 5 -17zM257 146q-10 -29 -10 -40q0 -6 -1 -11q-2 -8 -4 -47q0 -5 1 -37l2 -10q1 12 1 13q0 43 5 73q2 16 5 37q0 1 1 22zM699 693q8 -2 11 2l3 3l3 3v2
t-0.5 1.5t-1.5 1t-2 0.5q-2 -3 -13 -13q-3 -4 -3 -5l-4 -4q-1 -3 2 -5q1 0 3 1q2 3 2 13zM675 659q-8 -8 -10 -9q0 -1 1 -4h1q8 6 8 14q6 -2 8 4l1.5 2t1 3t-1.5 4q-3 -5 -9 -14zM585 531q-8 -2 -9 -12l-2 -1q-5 -5 -7 -16q9 11 9 17q7 3 8 12l3 2l-1 3l-1 -2v-3zM601 556
q6 3 8 13q12 13 13 15q1 0 4 9q5 5 6 7v1q-3 1 -3 0q-5 -4 -3 -9q-15 -6 -17 -23q-8 -7 -8 -13l-3 -2v-1t1 -1q3 0 2 4zM651 625q-3 -1 -3.5 -1t-0.5 -1v-2l2 1l2 4q2 2 2 3l-1 1q0 -2 -1 -5zM773 757q7 10 21 13h1l1 -1l-3 1q5 5 26 16q4 2 6 1q10 -4 28.5 1.5t44.5 1.5
q4 -1 9 -2t10.5 -1.5t9.5 -1.5q21 -3 48 -16q16 -7 25 -21q2 -4 5 -8.5t6.5 -9t5.5 -8.5t0 -8q-1 -3 -6.5 -4t-8.5 1q-2 2 -13 10l-11 8q-17 8 -21 18q-2 4 -8 6q-35 8 -45 8q-21 2 -40 -6q-22 -9 -35 -18q-28 -18 -33 -21q-38 -23 -78 -70q-38 -46 -64 -83q-2 -2 -5.5 -7
t-5.5 -8q-6 -8 -9 -11q-12 -9 -23 -26q-3 -7 -15.5 -25.5t-17.5 -29.5q-1 -2 -3 -5.5t-4 -6.5t-3 -5q-18 -36 -28 -48q-2 -3 -4 -7l-6 -12t-5.5 -11.5t-5 -11.5t-5.5 -12t-5 -11q-1 -2 -2.5 -4t-2.5 -3q-6 -11 -7 -13q-3 -10 -11.5 -27t-11.5 -25q-4 -8 -5 -11
q-7 -10 -15 -32q-9 -26 -27 -69q-3 -8 -6.5 -17t-7.5 -19.5t-6 -17.5q-2 -4 -5.5 -11.5t-4.5 -10.5q-5 -11 -10 -28q-4 -10 -10.5 -30.5t-7.5 -23.5q0 -3 -1 -4q-11 -16 -23 -64q-5 -24 -29 -22q-1 0 -5 0.5t-6 0.5q-6 -1 -13 0t-16 3t-13 3q-8 1 -15 10q-14 15 -22 35
q-11 27 -11 46q0 1 -1 12q-4 33 -4 35q1 10 5 49q0 2 3 33l1 6q-1 4 -0.5 10t1.5 10l2.5 10l2.5 10q0 2 1.5 7t1.5 7q1 12 9 49q0 3 0.5 10.5t2.5 11.5l6 24q0 3 1 7t1.5 8t1.5 7q1 4 2.5 11t2.5 11q9 39 9 40q2 5 2 12q0 6 3 12q6 12 4 20q-1 1 0.5 5.5t4.5 19.5t6 22
q1 3 1 4q2 14 20 75q19 64 22 84q1 7 -1 10q-20 -5 -41 -18q-47 -30 -67 -48q-3 -4 -6 -5q-1 -1 -38 -26q-9 -6 -10 -6q-10 -5 -28 -16.5t-22 -13.5q-15 -9 -35 -9q-22 -1 -33 2q-14 4 -31 16q-2 1 -5 6q-1 1 -10 15l3 1q11 -7 28 -7q3 0 10.5 0.5t12.5 0.5q19 0 41 11
q9 5 19.5 12t22 15t19.5 13q2 1 4 3.5t3 3.5q40 36 78 67q24 19 59 29q17 4 35 -1q4 -1 12 -2q24 -5 43 -23q17 -17 12 -41q-4 -17 -8 -33q-3 -12 -11 -41q-2 -7 -3 -8q-5 -4 -7.5 -9.5t-4 -12.5t-2.5 -11q-5 -11 -5 -24q1 -5 0 -8q-8 -33 -13 -54q-3 -10 -6 -14
q-4 -5 -7 -21q-2 -5 -4 -16.5t-3 -17.5q-1 -4 -0.5 -11.5t0.5 -10.5q0 -2 -3 -9.5t-3 -12.5q1 -1 -3 -18q-4 -3 -5.5 -6.5t-2.5 -9.5t-1 -8q-2 -7 -1 -18q1 -8 -3 -23q-8 -38 -14 -83q-1 -9 -6 -24q-8 -28 -3 -42q1 -4 1 -8v-26.5t-2 -26.5q-3 -15 1 -31q5 -18 5 -24
q0 -3 6 -15q1 -1 6 -10q4 -1 5 3q1 5 2 10.5t2.5 12t2.5 9.5q2 7 3 10q22 71 26 81q3 8 7 18.5t7 18.5t7 19t7 19q2 4 4.5 10.5t4 11.5t4 11t4.5 11t5 14.5t6 17t7 14.5q4 13 16 37.5t16 37.5q5 7 12 23.5t12 24.5q2 2 8 15q24 50 38 75q6 11 18 37q11 20 39 63q5 8 18 30
q17 27 51 72q30 40 31 41q31 36 54 57q13 11 50 36q1 0 6 1l2 1l1 -1h-3z" />
    <glyph glyph-name="W" unicode="W" horiz-adv-x="816" 
d="M794 540l-1 1l-1 -1q1 0 2 -1v1zM810 561q0 1 -0.5 1h-1.5l0.5 -0.5t0.5 -1.5zM704 415q-1 0 -1 1t-1 1l-4 -4l4 -1zM796 566q-2 -1 -2 -2v-1l3 1q0 1 -1 2zM776 537q1 0 1 1h-3l-1 -3h2q1 1 1 2zM265 388q-4 -4 -4 -11q5 5 4 11zM251 340q-8 -15 -8 -16
q-1 -3 -5.5 -15.5t-5.5 -19.5q-1 -3 -11 -36q-1 -2 -2 -3q-6 -10 -5.5 -13.5t-2.5 -8t-4 -6.5q0 -5 -2.5 -16.5t-3.5 -17.5q0 -11 -6.5 -31.5t-7.5 -23.5q-1 -4 -5 -9q-4 -4 -5 -11q0 -8 -1 -10q-2 -4 0 -12q3 -10 2 -18q0 -3 -1 -9t-1 -9q0 -1 -7 -17q4 -23 11 -33
q0 9 2.5 25t2.5 24q0 26 5 44q9 35 17 70q1 5 3.5 14t3.5 14q3 13 9 31q0 1 0.5 2.5t1.5 1.5q9 38 9 40q2 4 5.5 19t6.5 22q4 10 5 29q4 0 4 5q0 1 -2 4l-1 -2q-1 -1 -1 -8zM284 456l-3 -2q-4 -8 -5 -11q-8 -32 -12 -42l1 -3q0 -1 1 -1q2 -1 2 0q3 9 8 27.5t8 27.5v4
q6 11 7 12q1 2 0 6q0 1 -2 3l-1 -1q-2 -3 -2.5 -6.5t-0.5 -7.5t-1 -6zM1158 702q4 -16 4 -18q1 -4 -2.5 -7t-7.5 -1q-11 6 -15 8q-14 10 -36 14q-42 6 -73 -3h-1.5h-0.5q-56 -23 -82 -40q-22 -15 -77 -62q-12 -12 -29 -32q-5 -6 -11.5 -14t-11.5 -14.5t-11.5 -15
t-11.5 -14.5q-4 -5 -5 -11q-2 -5 -6 -11q-18 -30 -22 -39q-1 -3 -17 -26q-15 -23 -40 -71q0 -1 -1.5 -3.5t-2.5 -4.5q-27 -40 -60 -117l-1 -2q-8 -12 -14 -26t-13 -33t-10 -27q-1 -1 -2 -4.5t-2 -5.5q-7 -12 -18 -44q-2 -6 -6.5 -18t-5.5 -15q-4 -8 -6 -15q-6 -22 -10 -27
q-1 -1 -2 -7q-7 -24 -7 -28q-3 -14 -20 -20q-16 -5 -17 -6q-2 -2 -8 -1l-20 4q-13 3 -21 14q-23 29 -30 67q-7 34 -6 53q0 3 -1 9t-0.5 10.5t2.5 9.5q-3 7 -1.5 25t0.5 26t1 14q2 5 2 24q1 14 4 29q5 20 9 40q2 9 0 11l-2 -1q-17 -22 -31 -50q-2 -5 -7 -11q-15 -21 -32 -54
q-14 -27 -25 -59q-11 -30 -21 -44q-2 -3 -2 -4q1 -4 -0.5 -7.5t-5 -9l-3.5 -5.5q-13 -24 -16 -36q-1 -5 -4 -11q-10 -18 -11 -42l-1 -11q-4 -3 -9 -7q-5 -16 -5 -18q-3 -7 -11 -8q-17 0 -24 4q-4 3 -13.5 7.5t-13.5 7.5q-32 19 -43 60q-9 35 -6 78l2 20q0 16 4 31q1 2 5 26
q4 22 8 28q1 2 3 8q0 2 3.5 20t6.5 28q1 7 5 19.5t5 17.5q10 35 10 36q1 11 5 15l2 6q2 11 10 37.5t11 41.5q1 9 5.5 23.5t6.5 20.5q1 6 3.5 13t6 15t4.5 12q9 26 15 43q2 6 5 18t5 18q2 9 7 19q2 6 7 27l-4 2q-22 -5 -41 -19q-4 -2 -65 -44q-7 -5 -8 -6q-17 -16 -54 -33
q-4 -1 -10.5 -4t-8.5 -4q-33 -16 -55 -15q-18 1 -32 13q-11 10 -16 25q0 1 1 2l1 1q2 0 10 -3q11 -3 20 -1q2 0 5.5 0.5t5.5 1.5q41 12 73 32q19 12 38 28q14 11 41.5 30t33.5 24q8 5 28 13q2 0 22 7q3 1 4 1h45q29 -11 41 -29q11 -17 4 -36q-2 -5 -4.5 -13t-5.5 -15.5
t-5 -13.5q-10 -26 -14 -39q-5 -19 -14 -25q-1 0 -4 -7v-4q-3 -24 -16 -40q5 -10 1 -22q-1 -1 -13 -46q-3 -7 -4 -9q-5 -6 -11 -29q-3 -8 -8 -26.5t-7 -28.5q-3 -9 -8 -17q-3 -5 -5 -11.5t-4 -14.5t-4 -13q-1 -2 0 -6q1 -9 -4 -18q-10 -18 -9 -35q1 -7 -2 -12
q-11 -19 -10 -62q0 -7 -1 -54q0 -6 -2 -7q-3 -3 -4 -6t-1 -7.5v-6.5q-1 -10 2 -22q2 -7 6 -20t4 -16q2 -6 10 -12q4 6 10 29q10 39 25 83q9 26 22 51q6 13 9 20q8 25 28 64q31 57 62 107q21 33 30 42l1 1q11 16 13 17l5 2.5t7.5 2.5t6.5 1q11 4 20 1q11 -4 24 -11q6 -3 9 -8
q15 -24 8 -43q-5 -12 -12 -36t-10 -34q-2 -4 -3.5 -14.5t-4.5 -15.5q-1 -2 -1 -6q2 -22 -2 -66q-1 -20 0 -43q2 -46 7 -69q2 -5 3 -10v-4v-4t1 -3.5t4 -2.5q2 1 3 3t1.5 5t0.5 4q3 10 8 28t6 22q2 10 5 16q30 79 38 101q15 37 17 45q1 2 6 13t11 24t12.5 27t11.5 24l0.5 1.5
l0.5 1.5q10 16 39 77q0 1 1 3t2 3q7 11 15 24.5t16.5 29t13.5 24.5q48 79 72 108q3 4 6 8.5t7 10t6 8.5q18 24 66 65q2 2 16 12q1 1 7.5 5t9.5 7q22 18 82 43q6 3 10 2q7 -3 20 1q28 9 69 2q26 -4 35 -6q29 -6 46 -18z" />
    <glyph glyph-name="X" unicode="X" horiz-adv-x="842" 
d="M666 515v1v1l-1 -2h1zM513 159l-2 3q-2 3 -3 0v-2l4 -2zM504 279v2q0 2 -1.5 3t-2.5 0q-5 -2 -6 -7v-2q1 -1 2 -1q2 1 8 5zM613 444l4 1q3 6 6 13q1 0 -1 3q-1 0 -2 -1q-4 -2 -8 -12q0 -1 1 -4zM587 414q12 4 12 5q2 1 9 14q0 1 -0.5 1.5l-0.5 0.5q-13 -9 -16 -11
q-5 -4 -4 -10zM580 402q-3 -3 -7.5 -6t-7.5 -6t-4 -7q-1 -5 -8 -11.5t-7 -12.5q0 -3 -5 -8q-9 -9 -14 -15q-4 -4 -6 -8q-2 -5 -7 -19q-1 -1 0.5 -1.5t2.5 -0.5q2 3 9.5 10t10.5 12q6 11 13 15.5t9 11.5q1 3 7 11q5 7 13 21q3 7 1 14zM428 191q-13 -9 -22 -26t-22 -32
q-14 -16 -25 -37q-4 -7 -15 -19q-1 -2 -11 -8v-10q-12 -7 -26 -28q0 -2 -2.5 -5.5t-3.5 -5.5q-6 -8 -10 -13q-1 -1 -3.5 -3t-4 -3.5t-2.5 -3.5q-1 -3 -10 -12q-1 0 -2 -6q12 4 17 12q1 1 21 25q4 6 5 7q6 14 17 22q7 5 5 13q6 1 6 2q1 0 8 9q2 3 8 9.5t9 10t6.5 9.5t5.5 12
q1 2 4 5q4 5 9 11t9.5 13t8.5 11.5t4 7.5q0 4 7 13q5 6 9 14v6q12 0 15 7q2 4 8 7t7 4q-4 14 -5 17t-3 2q-2 0 -3 -2q-3 -12 -15 -28q0 -1 -4 -7zM130 528l7 4q37 8 40 8q4 0 6 2q24 14 30 19l17 14q6 4 16 12.5t14 12.5q22 17 26 20q21 17 44 21q5 1 8 2q21 7 40 -4
q9 -6 19 -7q6 -1 12 -7q16 -19 19 -45q2 -30 4 -58q2 -49 22 -113q4 -11 12 -39q1 -5 1 -8q0 -7 1.5 -14t3 -12.5t4.5 -13t4 -12.5q1 -2 5 -3q2 0 3 3q10 17 42 58q6 8 40 58l47 61q1 1 5.5 6.5t6.5 8.5q8 14 32 40q4 3 10 10t8.5 9.5t7 7.5t5.5 6q12 12 14 15q22 24 45 38
q8 5 21 14.5t17 11.5q22 16 31 21q14 8 46 15q23 5 63 -9q8 -3 15 -16q2 -3 0.5 -6t-4.5 -4q-4 -2 -5 -2q-11 1 -24 -7q-10 -6 -21 -6q-21 0 -39 -12q-10 -6 -45 -29q-5 -3 -6 -5q-5 -8 -24 -22q-8 -6 -15 -13.5t-15.5 -16.5t-13.5 -14q-10 -11 -26.5 -31.5t-24.5 -28.5
l-20 -26q-2 -2 -8 -9t-9 -12q-7 -10 -13 -18q-16 -25 -24 -33l-6 -6q-12 -21 -40 -60q-5 -7 -11 -15t-12.5 -18t-10.5 -16q-2 -3 -6.5 -8.5t-6.5 -7.5q-5 -7 -1 -16q20 -44 26 -60q14 -37 34 -75q25 -47 47 -75q6 -8 7 -10q6 -11 25 -27q16 -12 40 -17q11 -2 21 5q3 2 9 7
t9 7q5 4 10 7q9 4 12 3.5t9 -9.5q2 -3 3 -5q-2 -10 -2 -11q-1 -1 -1 -3v-3t-0.5 -3t-0.5 -3q-3 -10 -14 -14q-20 -8 -38 -4q-32 6 -39 10q-9 1 -18 4.5t-15 6.5t-16 9t-15 8q-8 4 -21 17q-22 21 -37 44q-32 47 -47 79q-5 10 -13.5 29t-12.5 27q-3 7 -6 8q-3 -1 -3 -2
q-5 -5 -17 -21q-2 -3 -7.5 -10t-8.5 -11l-2 -1l-1 -2q-3 -9 -14.5 -23t-15.5 -21q-2 -5 -13 -16q-8 -8 -22 -27q-27 -38 -42 -53q-18 -19 -39 -45q-3 -3 -5 -4q-70 -60 -80 -68q-22 -16 -36 -20q-4 -1 -10 -6q-13 -10 -44 -17q-4 -1 -18 -4t-30 1q-25 6 -55 32q-6 6 -5 10
q4 3 13 1q10 -3 23 0q1 0 14.5 2t19.5 4q24 7 38 16q17 10 39 26q33 24 40 32q2 3 4 4q9 5 30 26q4 5 13 13.5t13 12.5q12 11 17 18q54 64 66 81q8 10 81 107q18 26 24 31l7 11l-4 8q-4 6 -10 20q-16 39 -23 62q-3 12 -4 14q-5 25 -10 36q-1 1 -9 31q-2 5 -6 20q-1 0 -1.5 2
t-0.5 3q-2 9 -10 57q-1 8 -2 8q-3 8 -6 37q0 4 -5 49q-5 1 -6 1q-37 -19 -52 -32q-11 -8 -31 -21.5t-25 -17.5q-7 -5 -28 -18q-14 -9 -36 -12q-3 0 -18 -4q-2 0 -4 -0.5t-3.5 -1t-3.5 -1t-3 -0.5q-34 -7 -51 22q-1 1 -8 17l3 1q10 -4 26 -4h19l4 -3l3 1l-2 2h-6z" />
    <glyph glyph-name="Y" unicode="Y" horiz-adv-x="824" 
d="M211 349l-1 -3l1 -1l1 3zM430 -139l7 -1q2 0 2.5 2t-0.5 3t-3 1q-5 -1 -6 -5zM162 221q-4 -12 -5 -14l1 -2l2 1q4 7 2 15zM482 288l-6 -2q-5 -8 -16 -23q-2 -3 0 -4q12 9 21 29q6 6 7.5 8.5t2.5 10.5q-8 -11 -9 -12v-7zM196 314q4 2 5 3q2 4 6 14l-1 4q-3 -3 -4.5 -6.5
t-3 -8l-2.5 -7.5v-2v-1v4zM171 243q5 0 5 5l-1 2q-2 -1 -3 -1v-6l-2 -3h1v3zM148 172l-4 -3q0 -1 -1 -9q-8 -9 -12 -30v-6.5v-7.5q0 -2 -0.5 -4l-1 -4l-1 -4t-0.5 -4l2 -2l13 54v8l4 4v8q3 2 3 3v1q-2 2 -2 -1v-3zM695 437q0 1 1.5 1.5t0.5 1.5q-1 -1 -2 -3l-1 -3
q-1 -1 -0.5 -1.5t1.5 -0.5v2v3zM593 440q8 4 14 14q4 6 9 13t10.5 14.5t8.5 12.5q15 23 27 49q2 3 9 13q8 11 8 21q5 2 6 2q11 16 20 33q1 2 -1 3q-1 1 -2 1t-1 -1q-18 -24 -21 -39l-5 -3q-2 -2 -5.5 -6.5t-4.5 -6.5h-4v1v1q4 10 5 11q4 5 10 15t9 14q11 16 16 29q1 4 7 12
q5 8 14 4q1 0 9 -3l4 6q3 5 9 4q12 -1 15 -3q24 -13 33 -28l2 -3q4 -24 0 -32q-7 -15 -12 -24q-6 -10 -6 -15t-2 -8q-9 -17 -33 -78q0 -1 -1 -2.5t-2 -3.5t-1 -3q-5 -10 -5 -11q-7 -26 -21 -63q-15 -43 -17 -48q-7 -16 -19 -59q-4 -16 -9 -25q-2 -4 -4.5 -12.5t-2.5 -10.5
q-1 -3 -4 -14.5t-6 -16.5q-2 -4 -2 -10q-1 -11 -8 -19q-1 -1 -4 -9q-1 -2 -5 -14q-4 -8 -4 -9q-3 -17 -17 -46q-20 -44 -29 -61q-3 -7 -3 -8q-2 -7 -8 -19.5t-7 -18.5q-1 -4 -8 -15q-50 -86 -51 -86q-1 -3 -23 -34q-2 -2 -4 -4.5l-4 -5t-4 -5.5q-13 -19 -54 -52q-3 -3 -6 -3
q-52 -21 -65 -24q-31 -6 -72 1q-32 6 -70 23q-33 14 -57 37q-7 6 -7 10q-1 2 -4 6.5t-3 7.5q1 4 2 6q2 3 5 3q11 -3 16 -12q3 -6 10 -10q16 -9 33 -21q20 -15 49 -18q28 -2 67 9q6 2 17 6.5t14 5.5q25 10 47 32q20 21 28 33q6 11 13 14q14 -6 16 -7l12 6q2 -4 -1 -10.5
t-1 -9.5q-8 -3 -11 -11q0 -1 1 -2h1q8 6 8 13q4 1 9 8q12 16 27 44t26 44l12 24q33 70 35 74q16 31 22 53q1 2 16 46l2.5 7.5t2.5 6.5q4 11 5 13q5 10 7 22q1 4 9 29q1 3 6 16q5 16 9 22q6 10 6 19q0 6 3 14q8 23 14 41q1 5 16 45q0 1 1 3.5t2 3.5q1 2 5 19q-1 3 -3 1
q-4 -6 -13 -28q-1 -5 -3.5 -11t-4.5 -13t-3.5 -11t-4.5 -9q-6 -12 -9 -21l-3 -6t-3.5 -7.5t-2.5 -6.5q-1 -2 -2 -5t-2 -5t-2 -4.5t-1.5 -5.5t0 -5.5t-2.5 -5.5q-2 -4 -4 -18q-4 -35 -20 -66q-2 -4 -3 -7q-4 -15 -7 -22q-3 -3 -3 -7q-1 -11 -12 -37q-6 -13 -6 -18
q-1 -9 -7 -17q-4 -5 -9 -17t-6 -14q-3 -6 -8 -17.5t-7 -13.5q0 -1 -11 -23.5t-16 -34.5q-2 -4 -6.5 -10t-5.5 -9q-10 -17 -11 -22q0 -3 -5 -9q-13 -18 -14 -21q0 -1 -1.5 -1.5l-1.5 -0.5q-2 1 -2 4q0 1 1 8q-7 2 -8 2q-3 1 -1 5q3 4 0 9q4 13 20 40q7 11 11 22q6 20 17 35
q3 5 5 9q5 18 11 24q1 0 2 5q8 22 18 40q1 1 10 24v1v1q13 25 21 55q1 3 4.5 10t3.5 11q0 1 8 24q4 14 6 22q1 4 4 10t5 11.5t2 11.5q4 8 8 21t8 25t8 21q7 14 12 29q2 5 4.5 15t3.5 15q7 19 24 65q1 5 4 14.5t4 11.5q2 8 5 15q2 7 12.5 34t16.5 41v6q-6 -2 -9 -9
q-3 -9 -21 -40q-5 -9 -7 -14q-4 -7 -13 -24q-11 -18 -14 -20q-1 -1 -2.5 -4.5t-2.5 -4.5q-5 -7 -14 -20q0 -1 -2.5 -4t-3.5 -4q-1 -3 -11 -22q-4 -2 -15 -17q-7 -9 -8 -14q0 -4 -5 -8q-3 -2 -19 -19q-3 -4 -3 -7q-1 -7 -9 -19q-75 -104 -84 -116q-43 -56 -68 -80
q-2 -2 -5.5 -6t-4.5 -5q-14 -16 -25 -24q-11 -7 -22 -19q-13 -12 -41 -27q-11 -6 -17 -11q-10 -8 -27 -15q-2 -1 -29 -15q-3 -5 -11 -8.5t-10 -4.5q-3 -2 -8 -2q-34 3 -47 12q-29 20 -30 21q-16 13 -21 30q-10 37 -2 65q3 9 6.5 25.5t5.5 24.5q11 40 18 55q9 21 10 31
q0 5 3 12q21 54 26 63q2 3 3 5q1 9 16 40l2 5q1 8 10 25q7 14 12 33q2 6 7 19t7 19q2 8 8 22.5t8 19.5q0 3 28 84q3 11 2 25l-1.5 0.5t-2.5 0.5q-12 -10 -12 -11q-2 -1 -7 -1.5t-7 -0.5q-11 -3 -24 -11q-26 -15 -72 -51q-10 -7 -38 -25q-1 0 -2.5 -0.5l-1.5 -0.5
q-15 -12 -52 -17q-27 -5 -44 17q-7 9 -12 23q0 3 3 5q1 1 6 0l1 -2q3 -8 15 -8q29 0 59 17q5 3 12 8q27 20 46 34q19 15 26 20q17 16 52 33q8 4 33 10q9 3 16 -2q10 -5 24 -3q11 1 24 -6q6 -3 7 -4q22 -11 25 -38q1 -12 -1 -20q-1 -2 -7 -26q-7 -1 -8 -1q-2 -1 -3 -3
q-1 -4 -1 -8q-2 -28 -17 -52q-5 -8 -7 -13q-3 -12 -7 -19q-1 -4 -1 -10q0 -8 -5 -14q-4 -5 -8 -18q-1 -2 -1.5 -3.5t-1.5 -3t-1.5 -3.5t-1.5 -3q-3 -7 -9.5 -21.5t-9.5 -21.5t-2 -12q1 -3 -1 -10q-10 -30 -21 -47q-7 -13 -10 -29q-4 -21 -13 -30q-7 -7 -7 -23q0 -11 -7 -19
q-3 -4 -5 -11q-1 -4 -11 -33q-19 -52 -20 -64l-3 -21q0 -2 0.5 -8.5t-0.5 -9.5q-1 -11 8 -32q4 -7 14 -7q27 2 56 19q1 1 5.5 3.5t6.5 3.5q39 21 77 59q14 15 60 66q6 6 16 21q5 6 18.5 21.5t19.5 24.5q3 5 10 14t8 11q8 10 22 29.5t20 28.5q4 6 8 10q14 17 23 29
q10 15 17 17l-3 -7q-2 -3 -4.5 -6t-5 -6.5t-4.5 -6.5q-8 -11 -8 -16q-5 0 -8 -4q-8 -10 -15 -22l1 -4q10 10 13 14t9 17q4 3 11.5 12t12.5 12q1 1 1.5 2t1.5 2.5t1 2.5q8 10 9 11q10 10 26 36q5 8 7 16z" />
    <glyph glyph-name="Z" unicode="Z" horiz-adv-x="803" 
d="M29 6l-0.5 0.5l-0.5 0.5l-1 -1l1 -2q1 1 1 2zM290 304q1 -1 1.5 -1t0.5 2h-1.5t-0.5 -1zM65 77q3 1 3 2q1 1 -1 3q-1 1 -2.5 0t-1.5 -2t2 -3zM432 399l-4 2q-4 -1 -3 -4q0 -1 1.5 -1.5t2 -0.5t3.5 4zM400 383q-2 -9 -2 -11q0 -1 1 -1.5t2 -0.5q7 2 9 11q1 2 -2 3
q-1 0 -8 -1zM142 175q-12 -4 -13 -13q-13 -3 -18 -20h-1q-9 -5 -10 -6q-4 -4 -3 -9l0.5 -6t2.5 -9l-7 -1q-1 -1 -3 -5q-1 -1 0 -2l1 -1q8 2 9 10l28 16q4 3 4 4q0 4 1.5 6.5t5.5 5.5t5 4q2 2 9.5 9t10.5 11q21 24 46 43q2 1 11 9q0 1 3.5 4t5.5 5q17 11 32 31q1 1 4.5 3.5
t10 6.5t11 6.5t10 6.5t9.5 9q1 1 3 1q5 1 10.5 6t8.5 7q6 2 16 15q8 12 13 15q6 4 14 15q7 0 15 6q4 3 0 7l-5 -3l-10 -10q-4 0 -9.5 -3.5t-8.5 -3.5l-4 -7q-5 -5 -11 -9q-3 -2 -7 2q-1 0 -4 3q-9 -5 -10 -6q-1 0 -3 -5q0 -1 -1.5 -1t-1.5 -1q1 0 1.5 1t1.5 1h6q2 -1 3 -3
t-1 -3q-3 -1 -16 -12q-2 -2 -7.5 -6.5t-7.5 -6.5q-5 -4 -11 -1t-7 2t-4 -7q-12 -2 -13 -13q-6 -4 -13 -8h1q-7 0 -12 -4q-6 -6 -15 -14t-11 -8q-7 -3 -11 -11q-6 -12 -13 -15q-12 -6 -10 -18q0 -2 -1.5 -2.5t-3.5 -0.5l-6 2q-10 -8 -15 -13q-3 -3 -5 -6zM542 632q6 5 34 19
q17 7 22 12q1 0 2.5 1t2.5 2t2.5 1.5t2.5 1.5q16 10 33 0q16 -10 29 -29q7 -11 3 -26q-7 -25 -22 -43l-2 -2l-1 -1q-16 -24 -37 -41q-6 -5 -11 -15q-7 -11 -18 -17q-16 -10 -29 -29q-6 -10 -14 -17q-6 -5 -16.5 -15t-15.5 -14q-3 -2 -25 -21q-21 -18 -25 -22q-3 -2 -9 -6.5
t-9 -7.5q-3 -2 -21 -19q-43 -40 -79 -67q-7 -6 -39 -33q-6 -4 -20.5 -16.5t-22.5 -18.5q-6 -5 -14 -9t-11 -11q-3 -8 -13 -10q-9 -2 -15 -12q-3 -6 -5 -7q-4 -2 -9 -6t-7.5 -6.5t-7.5 -8.5t-7 -8q-3 -4 -4 -5q-14 -8 -24 -22q-1 -1 -1 -2q-12 -4 -22 -23q-8 -8 -20 -24.5
t-17 -22.5q-3 -2 -11 -17q-1 -2 1 -3q1 -2 3 -1q13 6 26 13q6 2 69 27q5 2 11 4.5t12.5 5t11.5 4.5q25 10 34 13q47 16 75 24q8 3 40 10q8 2 16 -1q5 -2 16 0q17 4 79 16q7 2 10 2q10 0 65 7q12 2 21 1q43 -2 79 -9q9 -2 27 -10q58 -26 96 -71q12 -15 16 -32q1 -4 0 -11
q-1 -3 -6 -6.5t-8 -3.5q-4 0 -8 3q-2 2 -7 6t-7 6q-12 10 -47 24q-2 1 -7.5 3t-7.5 3q-25 12 -60 15q-4 1 -8 1.5t-9 1t-8 0.5q-6 1 -8 1q-7 1 -18.5 1.5t-22 1.5t-18.5 1q-28 2 -39 3q-22 3 -35 1q-65 -7 -78 -10q-6 -1 -23.5 -4t-26.5 -6q-6 -2 -13.5 -3.5t-13.5 -3
t-13.5 -3.5t-13.5 -4q-28 -7 -40 -11q-67 -25 -128 -51q-9 -4 -11 -5q-6 -5 -21 -8q-4 0 -12 -0.5t-12 -1.5q-11 -2 -19 6q-5 6 -13 10q-9 5 -12 16q-4 18 -2 41q0 3 1 4q19 46 44 69q3 4 4 5q3 6 8 12t8.5 9t11.5 10t10 9q25 23 30 31q1 2 3 3q7 2 15 12q5 6 12 14
q11 12 18 14q4 1 5 4q3 7 14.5 15t14.5 12q5 6 16.5 15.5t12.5 10.5q10 9 30 26q25 22 64 51l9 7t14 10q4 2 6 6q5 12 19 21q9 5 17.5 12t19 17t15.5 15q2 2 9.5 9t13 11.5t11.5 7.5q4 2 5 4q10 10 30 28.5t28 27.5q10 10 28 29.5t22 24.5l4 4l4 4l4 4l9 11h-7
q-13 -8 -38.5 -18.5t-34.5 -14.5q-27 -14 -55 -22l-6 -1q-27 -11 -62 -16q-15 -2 -27 -2h-39.5h-42.5q-20 0 -29 1q-2 0 -24 -1q-26 -1 -31 -1q-14 1 -33 -10q-1 -1 -3 -2.5t-4 -2.5q-19 -7 -32 -31l-9 -3q-11 -3 -18 7q-3 4 -2 8q2 10 5 15q11 19 28 30h1l1 1q22 17 50 18
q9 0 16 1q25 5 53 1h23q62 -1 88 3q24 3 41 8q35 12 41 17q2 1 5.5 1h4.5q16 6 23 11q18 11 33 9q9 -2 11 6q2 5 9 7q1 1 6 2l-1 -1q-1 -3 -1 -4q1 -2 3 -1q7 3 9 5q4 3 -2 6z" />
    <glyph glyph-name="underscore" unicode="_" horiz-adv-x="632" 
d="M548 -98q0 1 1 1v1l-2 -1zM409 -69l1 -1v1h-1zM487 -47v-2q1 0 1 0.5t-1 1.5zM459 -71l-1 1h-1l1 -1h1zM312 -70l-1 1q-1 0 -3 -1l1 -1q1 0 3 1zM270 -69l-0.5 -1l-0.5 -1l1 -1l2 1zM516 -50v-1h1zM518 -71l1 1l-1 2l-2 -1zM493 -71q1 0 1.5 0.5t1.5 0.5q-2 1 -2 1.5
t-1 -0.5v-2zM309 -50q12 -2 42 0h18q1 0 9 -0.5t12 0.5q3 0 9.5 1.5t9.5 1.5q6 1 15 -1q2 0 6.5 1.5t7.5 0.5t18 1q5 1 6 0t3 -7l2 -3q1 1 2 5t1 7q15 1 20 1q1 0 2.5 3.5t5.5 1.5q0 -1 10 -10q0 2 2 13q7 3 15 1q-4 -3 -6 -4l2 -2q2 1 6 1h7.5h6.5l7 -4l2 10q8 3 10 -4
q5 -13 7 -19q4 -15 9 -21q4 -3 6 -23l-3 -5q-65 -3 -71 -3q-8 -1 -19 -1.5t-22 -0.5t-19 -1t-30.5 -0.5t-29.5 -1.5q-9 -2 -60 -5q-7 0 -19 -1t-22 -1.5t-19 -1.5q-15 -1 -45 -3.5t-46 -3.5q-9 -1 -26.5 -1.5t-20.5 -0.5q-22 -1 -41 -5q-37 -7 -53 -5q-7 1 -13 7
q-14 15 -19 40q-1 1 -4 22q4 1 12.5 2t12.5 3q5 0 32 3t41 3q2 0 85 6q11 1 15 0q3 0 7 1.5t7 1.5h2q3 0 4 -1q2 -4 10 -4q15 1 22 1q46 3 54 3l6 2h-1z" />
    <glyph glyph-name="a" unicode="a" horiz-adv-x="345" 
d="M156 323l4 10q-4 5 -9.5 17t-11.5 20t-15 14q-10 -9 -11 -10q-3 -6 -7.5 -12t-11.5 -13.5t-10 -10.5q-46 -55 -69 -128q-6 -20 -1 -51l4 -4q13 0 25 11q17 15 28 29q29 35 85 128zM353 307h24q-11 -25 -25 -64q-13 -37 -47 -94q-37 -64 -48 -79q-22 -32 -40 -43
q-15 -9 -33 -4q-36 10 -48 47q-11 32 -7 76q2 30 28 108q1 4 20 59l-2 1q-8 -14 -8 -15q-29 -57 -82 -126q-20 -26 -33 -36q-14 -11 -30.5 -10.5t-29.5 11.5q-40 33 -27 88q18 75 56 121q5 5 13.5 15.5t11.5 15.5q11 13 32 24q17 8 39 3.5t34 -18.5q1 -1 24 -29q8 11 8 12
q6 7 7 7q7 -3 15 4.5t14 7.5q23 -2 35 -20t3 -39l-10.5 -21t-10.5 -23q-33 -83 -42 -112q-20 -60 -8 -126l3 -8q16 2 33 20q42 44 79 119q17 34 50 121q1 3 2 7z" />
    <glyph glyph-name="b" unicode="b" horiz-adv-x="382" 
d="M172 154q-62 -12 -128 -64q-1 -14 -1 -16t1 -7q5 -15 20 -12q12 3 20 6q52 25 89 90zM52 124l5 1l24 12l34 17q28 12 70 29q14 6 19 22l6 15t5 15q9 25 -2 49q-23 -9 -24 -9q-20 -9 -53 -40q-35 -34 -84 -107v-4zM67 326l1.5 -1t1.5 -2q15 7 15 8q36 23 46 31
q52 41 101 95q91 100 145 226q4 12 18 52q4 14 -6 21q-16 -20 -57 -43l-3 -2q-57 -42 -93 -89q-6 -8 -16 -22.5t-15 -21.5q-56 -73 -89 -139q-3 -7 -49 -113zM15 91q-33 15 -40 54q-4 22 2 33q3 7 2 15q-5 21 4 42q3 7 9 40q4 16 13 25q3 23 3 24q7 31 32 88q36 86 87 156
q43 59 52 72q13 16 42 47q27 29 41 42q25 22 48 36q36 23 81 12q20 -4 29 -23t1 -39q-7 -17 -23.5 -47t-20.5 -39q-26 -54 -47 -84q-33 -47 -81 -103q-37 -43 -104 -98q-40 -32 -67 -44q-1 0 -22 -8q-29 -81 -31 -154l10 8q3 4 19 27q45 65 96 104q20 15 48 23q2 0 31 8
q21 -9 23 -10q17 -10 20 -37v-8.5t0.5 -11t2.5 -10.5q32 18 34 19q16 10 47 29.5t35 21.5q10 6 16 10q12 6 19.5 3.5t17.5 -13.5l-6 -3q-14 3 -32 -8q-28 -18 -121 -76q-17 -11 -27 -33q-32 -69 -69 -106q-2 -3 -8 -10t-10 -10q-21 -18 -33.5 -24t-40.5 -11q-5 -1 -7 -1
q-47 9 -68 38q-4 5 -5 14q-1 2 -2 20z" />
    <glyph glyph-name="c" unicode="c" horiz-adv-x="239" 
d="M294 309h3.5h3.5v-1h-1q-7 -8 -17.5 -19.5t-20 -22.5t-17.5 -20q-5 -5 -25 -21q-54 -44 -74 -59q-4 -4 -16 -11.5t-18 -12.5q-11 -11 -32 -24q-13 -9 -30 -6q-52 9 -73 65q-7 17 -1 43q5 27 33 89q18 39 65 98q25 31 66 23q28 -5 34 -32q1 -7 1 -10q1 -7 -1.5 -27
t-5.5 -31q-11 -1 -12 -1q-16 2 -15 18q0 4 1 9t2 10.5t2 8.5q2 12 -1 20q-37 -42 -39 -45q-37 -45 -59 -101q-15 -37 -21 -65q-3 -15 6 -39q3 -10 14 -7q24 6 31 10q30 16 47 29q9 7 36 26.5t44.5 34.5t32.5 30q22 22 38 41l1 1l1 1q9 -2 17 -2z" />
    <glyph glyph-name="d" unicode="d" horiz-adv-x="365" 
d="M-8 167q15 0 33 15q3 3 9.5 9t10.5 9q15 12 29.5 25.5t28.5 32t22.5 30t24.5 33.5q10 15 8 30q-3 2 -13 9q-14 -11 -15 -12q-19 -15 -21 -16q-25 -12 -50 -35q-6 -5 -11.5 -12.5t-9 -12.5t-9 -14.5t-8.5 -12.5q-10 -16 -27 -56q0 -1 -2 -22zM237 405q1 -1 2.5 -2l1.5 -1
q43 34 46 37q33 31 59 59q48 52 72 83q29 37 64 101q14 25 11 55q-1 12 -8 15q-18 -14 -19 -15q-13 -5 -26.5 -15.5t-19 -15.5t-21.5 -22q-54 -56 -95 -139q-5 -11 -20 -40.5t-23 -46.5q-2 -3 -24 -53zM140 266q-14 -16 -15 -17q-28 -39 -74 -76q-5 -4 -5 -5
q-2 -5 -4.5 -8.5t-6.5 -6t-6.5 -4.5t-8 -4.5t-7.5 -3.5q-8 -5 -16 -3q-29 6 -46 33t-4 55q25 53 52 91q23 32 62 55q47 28 94 7q1 0 2 -1l4 -1l4 -1q5 4 5.5 4t6.5 5l-1 8q7 29 10 37q21 56 70 147q5 9 9 19q5 11 12.5 22.5t13.5 20t15.5 21t14.5 20.5q20 29 77 83
q16 16 59 19q34 2 56 -27q6 -9 9 -23q5 -30 -20 -73q-39 -65 -84 -117q-58 -68 -114 -119q-22 -20 -67 -54q-20 -16 -25 -38q-19 -89 -21 -112q-6 -55 13 -117q16 -2 32 11q30 26 49 58q10 15 21 34.5t23 40t21 35.5q15 25 26 59q3 9 7 17q6 11 16 11q5 -6 5 -6.5t4 -7.5
q-19 -60 -77 -155q-22 -36 -47 -67.5t-49 -49.5q-13 -10 -31 -5q-23 7 -36 29q-28 43 -28 99q0 6 0.5 12.5t1 11.5t1 12t0.5 11v13z" />
    <glyph glyph-name="e" unicode="e" horiz-adv-x="237" 
d="M87 323q29 19 44.5 33.5t19.5 29.5q-5 -5 -21.5 -18.5t-26 -23.5t-16.5 -21zM27 138q29 -5 54 10q69 40 124 123q14 21 38 53q8 10 13 9.5t13 -12.5l-2 -5q-8 -11 -31.5 -42.5t-40.5 -52t-35 -38.5q-7 -7 -41 -37q-5 -3 -13.5 -10.5t-13.5 -10.5q-28 -25 -63 -12
q-38 13 -53.5 50t-3.5 70q19 52 25 61q15 27 25.5 42.5t28 35.5t35.5 34q4 3 8.5 7t7.5 7t8 6t10 5q28 9 51 -6q16 -11 13 -31q-3 -18 -15 -33q-32 -39 -76 -67q-11 -7 -35 -20q-9 -5 -14 -15q-20 -39 -27 -73q-4 -24 10 -48z" />
    <glyph glyph-name="f" unicode="f" horiz-adv-x="311" 
d="M113 532l-6 -1.5t-2.5 -3t0.5 -5.5q7 8 8 10zM61 428l-1.5 1.5t-1.5 0.5q-2 -4 -5 -8l3 -2zM103 508q-4 5 -5 5t-2.5 -1.5l-1.5 -1.5q2 -3 4 -5zM94 268q-1 3 -1.5 8t-1 9t-1.5 8.5t-3.5 8t-6.5 6.5q-6 -15 14 -40zM-1 -3q10 6 25.5 28.5t24.5 44.5q2 5 7.5 18.5t7.5 19
t6.5 18t7 19t5.5 18t5 20t3.5 18.5t2.5 19q-26 27 -28 29.5t-21 34.5q-22 -48 -39.5 -145.5t-6.5 -141.5zM378 779q-36 -19 -41 -22q-4 -2 -8 -5q-49 -48 -54 -54q-44 -49 -102 -136q-37 -55 -53 -97q-3 -7 -12 -26q-4 -9 -12 -26t-14.5 -31.5t-11.5 -26.5q-7 -15 -5 -22
q11 -1 21 7q38 30 44 36q48 47 92 93q48 50 64 78q0 2 23 30q4 11 4 12q4 6 9 14t8.5 14t8.5 14t9 15q13 22 18 31.5t12 28.5t8 36q2 23 -8 37zM-38 135q-1 -2 -5 -6l-6 -6q-1 35 12 67q1 0 2 -0.5t3 -1t3 -1.5q2 6 4 14l4 16t3 14q-3 4 -3.5 4.5t-4.5 5.5q1 1 4 3t5 4t4 3
q9 27 17 49l-12 -6v8q31 87 36 99q10 23 31 65.5t24 49.5q21 46 51 88q32 46 75 103q11 15 33 37q38 41 49 50q39 32 78 20q28 -8 35 -31q1 -3 7 -18q5 -12 2 -30q-5 -32 -34 -84q-32 -58 -108 -160q-5 -8 -12.5 -16.5t-15.5 -18t-13 -15.5q-13 -15 -30 -32.5t-27.5 -28
t-34 -32t-30.5 -27.5q13 -40 13 -43q2 -5 2.5 -21t4.5 -24q19 -7 52 1q52 12 111 65q13 11 28 27q11 11 22 3q4 -8 -4 -16q-28 -28 -41 -39q-19 -17 -32 -26q-22 -15 -40 -23q-53 -24 -92 -16l-8 -1q-4 -19 -5 -20q-6 -24 -8 -28q-7 -14 -16 -43t-15 -42q-10 -26 -20 -41
q-2 -4 -8.5 -14t-9.5 -15.5t-7 -14t-5 -16.5q-3 -14 -15.5 -18.5t-24.5 3.5q-40 27 -45 72q-4 38 1 72q1 1 4 14q0 -2 2.5 -8.5t4.5 -10.5q1 14 5 37q6 7 0 18v-18z" />
    <glyph glyph-name="g" unicode="g" horiz-adv-x="389" 
d="M154 62q-2 10 5 28t8 28q-30 -26 -31 -28q-68 -60 -79 -68q-18 -15 -36 -36q-2 -2 -23 -24t-30 -36q-3 -5 -16 -25t-19 -31q-3 -5 -30 -63q2 -27 2 -28q1 -19 15 -30t32 -9q2 1 11.5 3.5t14.5 1.5q14 0 35 17q17 13 22 26q3 5 15.5 24t14.5 31q1 3 4 4.5t5 4.5t2.5 5
l1.5 6t2 5q10 31 18 52q1 1 7 6q-2 7 -1 7q1 5 5 18.5t7.5 22.5t8.5 17q4 6 5 12q1 9 7 24.5t7 22.5q0 2 2 4t4.5 4t3.5 4zM149 -33q7 4 3 17q-1 -3 -3.5 -8l-3.5 -7zM138 -72q1 3 3 10t4 10l-3 3q-8 -4 -9 -5q-5 -9 5 -18zM116 -102h9l-4 4q-1 -1 -5 -4zM109 -89q7 9 4 15
h-8q1 -3 2 -8t2 -7zM109 -90q-7 -9 -4 -15q0 3 1 5.5t1.5 5t1.5 4.5zM104 -155l2 4l-2 2l-3 -3zM81 -198q8 2 8 14zM69 -184l1 3q-3 1 -7 2v-3q1 -1 6 -2zM67 -218l1 2q-2 0 -5.5 0.5t-5.5 0.5v-1.5v-1.5h10zM208 324q1 0 8 12q-10 21 -40 44l-5 -3q-24 -22 -39 -31
q-13 -8 -23 -19q-34 -42 -52 -66q-24 -34 -30 -97l4 -4q61 29 87 58q2 1 9 9t11 12q28 28 70 85zM414 317q2 0 7 -1q-3 -3 -7 -5q-39 -26 -71 -54q-28 -25 -65 -49q-20 -13 -29 -38q-24 -62 -29 -78l-18 -49.5t-22 -59.5q-44 -119 -62 -164q-21 -53 -61 -84q-26 -21 -76 -27
q-22 -3 -54 15q-6 4 -16.5 12t-13.5 10q-27 19 -24 55q2 24 11 43q43 89 100 147q44 45 89 80q2 3 5.5 6t7.5 6.5t6 5.5q14 11 38.5 31t35.5 29q10 7 17 15q5 5 6 9q4 9 10 28.5t9 29.5q6 15 16 43.5t12 33.5q3 8 2 15l-7 -7q-62 -82 -120 -138q-13 -12 -27 -20
q-11 -6 -20 -14q-12 -9 -25.5 -11t-26.5 5q-22 13 -30 40q-6 24 5 69q8 31 42 76q26 36 54 61q29 25 69 24q25 -1 53 -23q2 -1 28 -21q27 20 29 22q12 9 24 2q21 -11 26.5 -25t-2.5 -35q-2 -7 -36 -90q14 7 14 8q14 11 40 32t38 31q2 1 16 12q8 -1 38 -4q-1 0 -3 0.5t-3 0.5
z" />
    <glyph glyph-name="h" unicode="h" horiz-adv-x="322" 
d="M40 367l-5 -20q12 9 5 20zM52 399q-1 -3 -3 -8t-3 -8q10 6 6 16zM67 426q0 -1 -1.5 -3.5t-2.5 -4.5q2 0 3 -1q1 1 2 4t2 4zM86 384q0 -1 -8 -25q9 5 29 20q72 57 126 133q72 100 112 167q11 19 15 31q10 28 1 55q-30 -23 -32 -24q-31 -16 -55 -44q-37 -44 -58 -79
q-12 -20 -65 -105q-14 -22 -34.5 -66.5t-30.5 -62.5zM125 539q-2 -2 -5.5 -7.5t-5.5 -8.5t-4 -8t-1 -10q16 28 19 32q-1 0 -3 2zM345 317q9 -5 18 -6q-17 -27 -21 -35q-6 -10 -14 -24t-15.5 -27t-13.5 -23q-34 -56 -56 -91q-7 -12 -21 -27l-47 -47q-9 -9 -23 -6t-25.5 15
t-12.5 26q-6 39 8 64q5 9 10 23q7 21 24 56.5t22 47.5q6 15 18 42.5t17 39.5q1 1 8 24q-39 -13 -59 -36q-6 -7 -15.5 -17.5t-16 -18.5t-14.5 -17.5t-15 -19t-13 -19.5q-2 -5 -6 -10.5t-8 -11.5t-7 -10q-20 -30 -29 -57q0 -1 -12 -20q-38 11 -41 13q-10 3 -12 16v27
q-2 39 22 115q3 12 13.5 38t14.5 40q8 31 33 75q6 9 14 27.5t13 26.5q26 48 63 109q7 11 21 32.5t16 24.5q34 52 74 87q23 20 44 29q25 11 49.5 3t38.5 -31q10 -16 6 -39q-6 -34 -36 -78q-4 -5 -38 -58q0 -1 -0.5 -2.5t-1.5 -1.5q-8 -5 -13.5 -13.5t-11 -19t-10.5 -16.5
q-14 -15 -31 -36.5t-34 -42t-31 -36.5q-29 -32 -80 -75q-17 -13 -37 -27q-17 -13 -23 -36q-6 -22 -13 -50v-14l12 15q38 63 94 115q37 33 73 38q35 5 52 -23q8 -14 1 -35q-14 -45 -32 -77q-3 -5 -25 -53q-35 -74 -48 -118q0 -1 -2 -18q10 1 22 12q37 34 74 96q9 14 21 34
t23.5 38.5t21.5 34.5q9 16 23 39z" />
    <glyph glyph-name="i" unicode="i" horiz-adv-x="188" 
d="M90 445q21 -4 22 -4q17 -3 26.5 2t17.5 21q15 30 25 47q3 6 30 48q10 16 5 27q-10 21 -36 25q-17 3 -28 -18q-41 -75 -52 -97q-12 -22 -10 -51zM185 312q10 -4 22 -4q-31 -47 -57 -76q-34 -37 -93 -84q-3 -2 -15 -9q-32 -18 -58 8q-13 13 -17 18q-11 14 -9 38q3 26 25 76
q9 22 47 98q3 7 9 14q15 14 33 5q2 -1 5.5 -3.5t5.5 -3.5q13 -7 12 -24q-1 -15 -8 -27q-32 -53 -39 -67q-28 -60 -34 -83q-5 -20 -2 -31q15 -1 32 10q85 55 141 145v0z" />
    <glyph glyph-name="j" unicode="j" horiz-adv-x="178" 
d="M103 299l4 8q22 59 49 107q17 31 20 53q5 35 -29 43q-1 0 -22 2q-9 -16 -9 -17q-4 -11 -13.5 -33t-14.5 -34q-6 -14 -17.5 -40.5t-16.5 -39.5q-7 -16 4 -24q14 -11 33 -23zM-12 15q17 19 15 51q-4 -12 -15 -51zM-12 3v11q-3 0 -8.5 0.5t-10 0t-8.5 -4.5h19q-2 -15 -7 -49
l-4 -6t-3 -6t-1.5 -7t-1 -7t-1.5 -7t-2 -7q12 23 13 40q13 36 15 42zM-30 31l-1.5 -0.5t-1.5 -1t2 -4.5q3 1 5 2zM-47 24q1 1 3 12q-7 -6 -18 -13.5t-18 -13t-16.5 -12.5t-17.5 -12q-15 -11 -48 -38t-52 -40q-3 -2 -6 -5q-5 -6 -14.5 -17t-17 -20.5t-13.5 -18.5
q-28 -46 -28 -89q0 -15 -1 -17q-8 -39 23 -71q10 -10 18 -10q23 -1 48 14q11 7 27 32q9 12 28 47q3 7 37 72q13 -1 15.5 0.5t4.5 10.5q-8 -2 -10 -2q-9 6 -2 17q10 15 28 70q3 10 30 104zM-47 -17q0 1 1 4t1 4l-1 0.5l-1 0.5l-2 -9h2zM-60 -147q2 9 6 21q-6 -8 -7 -10.5
t1 -10.5zM-70 -91q1 2 2 4.5t1 3.5q-2 1 -4 1q-1 -6 -1 -8zM206 226h4q-2 -3 -3 -4q-10 -12 -38 -24q-10 -4 -15 -10q-9 -13 -26 -14q-2 -2 -6.5 -9.5t-7.5 -10.5t-9 -6t-13 -3q-2 -7 -3 -9q-1 -1 -7 -3.5t-8.5 -4t-6 -5t-5.5 -8.5q0 -1 -1 -2q-4 -1 -8 -4.5t-6.5 -6
t-4.5 -7.5l-3 -7.5t-3 -9t-3 -7.5q-4 -12 -14 -40.5t-15 -44.5q-4 -9 -20 -58t-25 -75q-22 -61 -50 -109q-3 -5 -8 -16.5t-6 -14.5q-28 -58 -78 -76q-49 -18 -93 13q-5 4 -16 13q-38 33 -35 93q2 55 34 101q35 52 71 81q33 26 121 93q10 8 32 24t33 25q8 6 11 14
q13 32 22 61q8 23 20.5 64.5t18.5 57.5q3 11 9 14t18 0q4 -1 12 -5q33 -13 21 -46q-16 -42 -29 -78q0 -1 -3 -14q32 24 33 26q10 9 21.5 18t27 19.5t23.5 15.5q7 5 8 6q15 -7 29 -7z" />
    <glyph glyph-name="k" unicode="k" horiz-adv-x="325" 
d="M108 266q24 2 37.5 6t31.5 16q18 13 24 18q24 22 37 36q15 17 9 36q-10 2 -13.5 1.5t-8.5 -3.5q-40 -24 -50 -32q-13 -13 -59 -62q-8 -9 -8 -16zM75 411q-2 -5 -20 -56l1 -1q1 0 1 -1q26 18 27 19q68 62 87 82q80 85 129 167q37 62 46 108q1 5 2.5 11t3 12.5t2.5 11.5
q3 13 -2 19l-10 -5q-13 -12 -27 -16q-4 -1 -8 -5q-40 -33 -45 -38t-16.5 -16t-17.5 -17.5t-15 -16.5t-16 -19t-13 -19q-12 -19 -15 -24q-42 -54 -76 -145q-2 -5 -4.5 -12.5t-4.5 -13t-4.5 -13t-4.5 -12.5zM357 311q11 -4 21 -5q-37 -54 -56 -80q-27 -37 -39 -49
q-15 -16 -53 -44q-8 -6 -37 -23q-21 -12 -44 -7.5t-37 24.5q-28 41 -33 74q0 3 -3 15l-3 2q-28 -29 -41 -58q-7 -14 -11.5 -19.5t-14.5 -12.5q-12 2 -13 2q-25 5 -30.5 12t-5.5 33q0 25 10 75q6 32 20 81q8 31 22 69q13 38 33 89q32 83 60 125q6 9 19.5 30t20.5 32
q3 3 20 23q64 71 87 91q8 7 16 10q44 16 80 12q19 -2 29.5 -14.5t7.5 -31.5q-6 -47 -12 -70q-5 -18 -19 -43q-5 -8 -35 -52q-31 -47 -39 -59q-34 -47 -66 -80q-8 -8 -23 -25t-24 -25q-4 -4 -53 -49h-0.5t-1.5 -1q-29 -30 -61 -32q-23 -75 -28 -129q6 6 6 7q1 2 15.5 23
t21.5 31q3 4 6.5 8t7.5 8l7 7q45 56 91 92q27 21 59 23q37 2 59 -28q7 -10 3 -29q-7 -41 -38 -64q-44 -32 -73 -48q-17 -10 -47 -11q-1 0 -24 -1q0 -29 7 -48q3 -10 16 -41q5 -10 19 -9q24 3 65 31q39 26 71 70q4 5 65 89z" />
    <glyph glyph-name="l" unicode="l" horiz-adv-x="274" 
d="M402 715q0 2 1 9t1 12t-3 10q-22 -11 -34.5 -19t-22.5 -15.5t-26 -23.5q-52 -47 -105 -127q-55 -84 -88 -153q-3 -7 -11.5 -24.5t-12.5 -27.5q-1 -1 -13 -29q8 0 12 4q82 72 94 83q88 83 157 180q48 67 51 121zM19 223q1 0 2 6h-2l-3 -6l1 -2q2 1 2 2zM3 224q0 1 1 2
t1.5 2.5t0.5 2.5l-1 0.5t-2 1.5q-2 -7 -3 -8q2 -1 3 -1zM-13 183q0 1 1 3t1.5 3.5t0.5 3.5l-2 1q-1 -2 -2 -5t-1 -5l1 -1h1zM-40 29q1 0 4 1t4 1q0 1 -0.5 2.5t-1.5 1.5l-7 -4zM428 759q8 -19 6 -39q-5 -52 -31 -98q-1 -2 -3 -6.5t-2 -6.5q-7 -12 -9 -14q-6 -6 -13 -14.5
t-12 -14.5t-12 -16t-11 -16q-7 -9 -17 -20q-24 -25 -31 -42q-2 -6 -7 -10q-10 -7 -19 -16.5t-20 -22.5t-17 -19q-42 -46 -87 -80q-5 -3 -24 -21q-19 -16 -37 -19q-16 -3 -22 -21q-4 -13 -11 -31q-2 -6 -6.5 -17t-8 -20t-6.5 -18q-10 -31 -20 -73q-14 -55 -17 -103
q-4 -52 -2 -68q0 -8 6 -26l7 -7q4 3 15.5 9.5t16.5 10t13.5 9.5t14.5 12.5t11 14.5q13 22 31 45q5 6 22 23.5t23 28.5q46 56 115 172q19 -2 34 -1h1.5h0.5q1 0 3 1h1q-20 -43 -78 -116q-1 -2 -6 -7.5t-10.5 -11.5t-10 -11.5t-5.5 -7.5q-4 -14 -14.5 -27.5t-25 -29
t-21.5 -23.5q-9 -11 -28 -41q-18 -29 -29 -36q-4 -3 -8 -7t-8.5 -10t-6.5 -8q-22 -24 -60 -11q-46 16 -59 61q-3 13 -4 22q-1 47 5 68q2 6 2 12q3 52 26 138q3 10 7.5 21.5t10.5 25.5t9 22q1 4 11.5 31t15.5 42q12 28 30 67q21 45 33 69q8 13 35 59q14 23 25 40q41 62 58 87
l6 8t6.5 7.5t6.5 7t6.5 8t6.5 7.5q22 28 59 62q33 31 64 38q28 7 58 -5q12 -4 17 -17z" />
    <glyph glyph-name="m" unicode="m" horiz-adv-x="460" 
d="M464 281q-26 -53 -31 -64q-8 -18 -17 -30t-19.5 -25t-20.5 -29q-22 -38 -35 -54q-12 -15 -41 -39q-9 -8 -25 -2q-25 9 -38.5 36.5t-4.5 52.5l3 4q2 -10 3 -17l4 2q-1 8 0 15t0.5 7t2 6.5t4.5 13.5q5 19 39 89q5 10 14.5 29.5t13.5 28.5q1 1 8 20h-8l-1 1q15 31 23 48
q-13 -1 -25 -16q-1 -2 -9 -13t-12 -16q-35 -38 -60 -71q-6 -8 -24 -37q-7 -11 -19 -32q-4 -8 -5 -11q-2 -14 -15 -17q-20 -6 -29 -1q-4 2 -7 4q-19 10 -19 24q0 20 9 27q1 0 7 15q-3 -1 -6.5 -2t-5.5 -2q4 13 10 29q2 -2 9 -5q1 2 27 55q-1 2 -1.5 4l-1 4t-0.5 4v3.5
t0.5 3.5t1 3.5t1.5 3.5l1.5 3l2 4t2.5 4q5 10 17 36l2 11q-11 -6 -12 -6q-45 -44 -72 -88q-26 -46 -51 -91q-1 -2 -20 -44q-3 -6 -18 -39q-13 -6 -30 2q-2 1 -6.5 3.5t-6.5 3.5q-16 8 -16 28q0 65 22 121q5 15 17 43t17 40q5 13 19 12q24 -1 36 -15q14 -15 5 -34
q-3 -7 -18 -38t-22 -48q-12 -25 -10 -45q35 60 36 64q30 62 84 122q23 26 50 37q27 12 47 -7q22 -20 10 -46q-4 -9 -42 -89q-3 -6 -2 -10q12 15 12 16q53 67 58 73q17 23 50 48q9 7 32 5q11 -1 22.5 -13.5t12.5 -24.5q3 -25 -9 -46q-44 -79 -76 -155q-5 -13 -8 -20.5
t-5.5 -17.5t-3.5 -13t-3.5 -18.5t-4.5 -21.5v-19q21 8 30 20q9 13 19.5 22.5t19 18t16.5 24.5q42 75 54 98q8 18 19 44q12 -4 23 -4z" />
    <glyph glyph-name="n" unicode="n" horiz-adv-x="358" 
d="M166 200q2 1 3 3t1.5 3.5t1 4t0.5 4.5q2 4 8 22t11 27q4 5 2 25q-6 -3 -11 -16q-2 -6 -8.5 -27.5t-11.5 -33.5q-14 -32 -10 -55q1 3 8 15.5t4 22.5q-1 2 2 5zM378 321q6 0 12 1q-42 -75 -62 -109q-10 -17 -56 -86q-2 -3 -6 -3t-7 -3q-13 -13 -21 -29q-8 -17 -28 -25
t-38 -1q-12 5 -19 9q-23 13 -24 39q-2 41 12 80q4 11 7.5 24t8 27.5t7.5 24.5q0 3 2 6t4 6.5t3 6.5q2 7 5.5 20t5.5 19q5 16 15 45t13 40l3 15q-17 -3 -29 -19q-11 -13 -24 -27q-22 -23 -41 -61q-13 -26 -19 -35q-16 -18 -30 -48q-18 -36 -34 -66q0 -1 -15 -21q-17 3 -18 3
q-29 10 -31 36q-3 29 4 64q12 60 31 109l15 45q21 12 49 -7q16 -11 8 -36q-1 -6 -5.5 -17.5t-5.5 -14.5q-13 -34 -31 -86l-1 -9l7 10q52 92 95 147q28 36 57 50q31 15 61 -6q19 -13 14 -37q-13 -53 -25 -82q-45 -104 -60 -168q-4 -16 -5 -62q6 -6 15 -1q6 4 10 8.5t24 23
t29 33.5q5 9 12 19.5t14 21.5t12 19q15 24 35 59q15 25 29 50q1 -1 3 -1h3.5t3 -0.5t3.5 -0.5h3z" />
    <glyph glyph-name="o" unicode="o" horiz-adv-x="259" 
d="M126 234q16 16 34 63t28 95t6 69l-7 -4q-56 -46 -86 -118q-13 -30 -10 -65q3 -33 35 -40zM92 175q20 22 26 37q-35 23 -37.5 25t-33.5 31q-23 -36 -24 -38q-21 -30 -23 -85q-1 -17 11 -27q30 8 45 21q16 13 36 36zM267 299q13 -6 25 -6q-29 -26 -40 -36q-14 -11 -24 -16
q-24 -13 -38 -24q-4 -3 -14 -5q-3 -1 -33 -6q-7 -9 -7 -10q-19 -31 -57 -70q-3 -3 -13.5 -11t-14.5 -15q-6 -8 -21 -7q-36 4 -64 32q-24 24 -22 63q0 13 5 28q12 38 27 62q18 27 25 43q15 30 40 34l7 16q28 61 86 123q11 12 30 13q20 1 34 -5q25 -10 27 -37q4 -44 -15 -106
q0 -1 -1.5 -4t-1.5 -5q-7 -39 -36 -89q-1 -1 -11 -26q31 13 33 13q41 20 74 51z" />
    <glyph glyph-name="p" unicode="p" horiz-adv-x="342" 
d="M213 345q5 18 1 29q-32 -1 -54 -27q-39 -49 -65 -84q-6 -8 -47 -69q-4 -5 -9 -14q-1 -1 -7 -14q17 5 39 18q45 27 58 31q33 11 47 41q30 62 37 89zM114 158q2 1 23 32l-2 2l-1 1l-10 -5q-60 -35 -74 -43q-10 -6 -21 -16q-12 -13 -2 -26q6 -9 22 -3q13 6 21 14
q28 25 44 44zM90 113q11 3 18 22q-5 -2 -7.5 -5.5t-5.5 -9t-5 -7.5zM-19 166l5 15q-1 1 -3 1q-1 -2 -3 -7t-3 -8q2 -1 4 -1zM-48 98q1 2 8 18q-12 -4 -8 -18zM-59 68q8 13 1 18q-4 -6 -4 -8t3 -10zM-73 20q3 10 8 30l-4 6q-50 -136 -71 -240q1 0 4 -2l5 11q5 20 16 55.5
t14 49.5q5 18 16 52.5t12 37.5zM-142 -102l3 -3q7 4 5 12l-4 -4t-4 -5zM-85 96q0 -3 -1 -12t-2 -15q6 5 8 11.5t3.5 15t3.5 13.5q-11 -11 -12 -13zM248 255q-4 -6 -7 -14q-7 -7 -10 -13q-35 -64 -78 -117q-21 -24 -45 -41q-11 -8 -19 -8q-57 -5 -89 35q-1 1 -12 23
q-46 -120 -62 -189q-1 -7 -4.5 -19.5t-4.5 -17.5q-13 -52 -23 -96q-1 -7 -1 -19q-1 -12 -1 -56q0 -12 -6 -18q-22 -2 -44 16q-8 6 -10 20q-5 35 0 68q4 19 7 32q0 1 9 18q-6 20 10 39q-2 3 -1 10.5t1 9.5t2.5 9.5t3.5 9.5q2 10 26 91q1 1 5.5 2.5t6.5 2.5l-8 6q12 42 15 50
q0 1 6 7q3 18 4 19q21 59 27 72t18.5 46t21.5 50q6 11 11 23t10.5 27.5t8.5 23.5q5 12 11 15.5t18 1.5q29 -4 36 -24q4 -12 1 -20q-10 -32 -21 -46q-9 -10 -13 -30q10 13 11 14q55 73 57 76q23 29 57 50q11 8 23 12q26 10 50 -6t27 -43q2 -20 -10 -54q0 -1 -8 -23h1.5h0.5
q-1 -1 -1 -2.5v-2.5q-5 -8 -8 -20z" />
    <glyph glyph-name="q" unicode="q" horiz-adv-x="453" 
d="M245 -12q23 58 19 102q-1 18 -11 27q-1 1 -18 16q-15 -27 -15 -29q-4 -6 -9 -18t-10 -22l-9 -18q-22 -40 -41 -88q-45 -111 -51 -129q-5 -17 -16.5 -47.5t-14.5 -39.5q-4 -12 6 -18q14 9 15 10q23 22 31 33q13 17 31 47q33 56 58 101q19 35 35 73zM54 -202l13 33
q4 6 7 14t5.5 14.5t5.5 15.5t5 14q10 27 13 31q10 11 10 25l4 10q8 20 12 28l3 3h7q2 4 4 15.5t6 18.5t14 10v6q0 3 0.5 10t1.5 11.5t3 7.5q7 9 14 26q5 12 17.5 37.5t18.5 39.5q6 5 12.5 19t10.5 19q0 1 1 10l-6 -4q-3 -7 -13.5 -23.5t-13.5 -26.5q-1 -5 -3 -7
q-5 -4 -7.5 -8.5t-5.5 -12t-4 -10.5q-1 0 -15 -26q-10 -16 -10 -18q-6 -18 -25 -37q-6 -20 -7 -22q-1 -4 -5 -12t-5 -12q-11 -27 -27 -69q-14 -35 -25 -65q-8 -24 -12 -34q-1 -3 -10 -38q4 2 6 7zM470 314q14 -2 30 -3q-14 -13 -16 -15q-1 -2 -4 -5l-2 -3q-25 -30 -29 -35
q-22 -26 -28 -33q-14 -14 -28 -23q-4 -4 -40 -25q-33 -20 -71 -27q-1 0 -17 -4q4 -6 18 -17q13 -11 15 -26q0 -3 1 -11.5t1.5 -12.5t0.5 -11.5t-1.5 -13t-3.5 -11.5q-2 -3 -3 -7.5t-2 -9.5t-1 -8q-5 -17 -16 -26q-8 -8 -8 -15q2 -13 -9 -25q-4 -4 -6 -12q-12 -41 -43 -88
q-11 -17 -48 -82q-14 -26 -33 -42q-10 -8 -18 -18q-9 -11 -22 -9q-39 7 -61 32q-20 22 -11 47q2 7 5.5 17t6 17.5t6.5 16.5t8 16q2 2 2 3q1 22 16.5 58.5t18.5 45.5q0 1 8 10l3 -9q5 10 5 12.5t-5 7.5q9 28 9 31q5 14 17 15v14q0 1 8 5v16q2 -1 7.5 -4t8.5 -4q-10 26 4 49
q4 8 10.5 24t10.5 23q8 15 17.5 33t20.5 39t18 33q2 4 5.5 10t5.5 10l5 10t4.5 10.5t3.5 11t3 12.5q-33 -37 -35 -39q-42 -46 -59 -62q-11 -11 -40 -34q-4 -3 -11 -7t-9 -5q-15 -10 -20 -14q-10 -8 -24.5 -10t-25.5 4q-59 33 -38 95q23 68 51 101q16 19 25 25q6 4 8 6
q28 27 85 20q26 -3 55 -23q13 -9 17 -27q1 -8 -4.5 -12.5t-12.5 -2.5q-1 0 -15 7q-8 19 -8 20q-7 11 -20 5q-1 0 -6 -4q-43 -26 -47 -29q-17 -12 -28 -27q-33 -43 -46 -99q-1 -2 -3 -32l13 2q70 28 133 100q48 54 78 92q10 12 33 25q10 5 22 2.5t20 -11.5q19 -20 10 -41
q-13 -31 -20 -38q-2 -2 -3.5 -4.5t-2.5 -6t-2 -4.5q-5 -9 -17 -29l-18 -30q-12 -20 -31 -55l-1 -7q47 13 77 28q40 20 72.5 50.5t70.5 75.5v1z" />
    <glyph glyph-name="r" unicode="r" horiz-adv-x="309" 
d="M57 169q-1 -3 -3 -7t-2.5 -6t0.5 -7q8 5 5 20zM342 311q2 -1 4 -2.5t4.5 -3.5t4.5 -3q-4 -16 -4 -17q-4 -7 -13 -16q-17 -18 -65 -87q-8 -12 -20 -25q-35 -38 -48 -49q-43 -39 -82 -60q-1 0 -2.5 -1l-3 -2l-3 -2t-2.5 -2q-6 -3 -15 -10t-13 -9.5t-11 -2.5t-14 5
q-1 1 -8.5 5.5t-10.5 7.5q-16 18 -21 40t5 50q2 3 21 51q18 43 19 45q12 33 46 84l-3 3q-11 -4 -51 -7h-9q-45 20 -57 48q-5 13 -1 22q9 23 12 27q9 13 42 59q5 7 17 8t20 -5q2 -2 13 -11q11 -11 11 -23t-12 -23q-34 -30 -49 -60l-1 -5q16 -6 34 -1q4 1 15.5 4.5t17.5 4.5
q2 1 20 4q29 5 51 -20q17 -18 1 -40q-9 -12 -47 -67q-24 -35 -40 -77q-7 -19 -24 -74q-3 -10 -3.5 -12t3.5 -13q12 0 22 8q20 9 31 19q9 4 26 17q54 39 93 86q12 15 24 31.5t27.5 38t22.5 32.5q2 2 7 10t9 12.5t10 7.5z" />
    <glyph glyph-name="s" unicode="s" horiz-adv-x="305" 
d="M-30 -120l1 1l1 1l-5 5l-2 -2zM116 200q-1 0 -1.5 0.5t-0.5 1.5l-5 -6l1.5 -1.5l0.5 -0.5q2 3 5 6zM27 -72q-11 -11 -12 -11.5t-11 -11.5q11 0 14 4q1 2 4.5 5t5 6t-0.5 8zM111 174q-9 -9 -33 -15q-10 -3 -16 -12t-18 -19q-8 -6 -35 -25t-40 -32q-2 -2 -8 -5
q-22 -9 -36 -26q-7 -9 -20 -26.5t-20 -26.5q-14 -16 -26 -56q-2 -8 4 -18q15 -28 41 -25q3 0 14 -0.5t14 0.5q52 18 79 55q18 25 35 32q1 0 7 6q24 29 39 62q25 57 35 92q8 29 -1 50q-18 -4 -28 -7q9 -3 13 -4zM330 331q1 -2 10.5 -10t11.5 -15q-8 -3 -9 -3q-15 -2 -24 -11
q-10 -10 -23 -2q-4 -12 -28 -23q-6 -3 -31 -16t-38 -20q-1 0 -29 -8q-6 -13 -6 -18t6 -19q13 -30 6 -78q-5 -33 -22 -63q-2 -3 -9.5 -18t-11.5 -22q-26 -42 -62 -80q-33 -35 -47 -46q-44 -33 -95 -25q-47 7 -74 32q-32 31 -18 78q6 18 28 46q31 38 40.5 49.5t18.5 19.5
q81 63 144 103q5 3 15.5 9t15.5 9q1 1 17 13q-5 26 -30 37q-27 12 -57 40q-18 16 -20.5 30.5t7.5 31.5q2 4 5 11t6 13t6 10q4 7 21 27q46 50 72 70q10 8 15.5 8t14.5 -8l5 -3.5t7 -5.5q11 -10 11 -23t-12 -23q-5 -4 -21.5 -17t-25.5 -21q-39 -33 -55 -65q0 -1 -10 -27
q64 -45 93 -65q32 16 92.5 49.5t89.5 48.5z" />
    <glyph glyph-name="t" unicode="t" horiz-adv-x="244" 
d="M102 467l-3 3l-5 -5l1.5 -1.5l0.5 -0.5q1 0 3 1.5t3 2.5zM-32 108q3 -6 3.5 -6t5.5 -1v2q-4 3 -9 5zM-42 59h1.5h1.5v10h-1h-1zM27 261l-2.5 2.5l-2.5 2.5q-2 -3 -5 -5q4 -4 5 -4zM64 367q1 4 3.5 11t4.5 12q-8 -5 -9 -11t1 -12zM56 355q-12 -14 -9 -24q4 3 6 12.5
t3 11.5zM76 413q5 3 6.5 4.5t4.5 7t4.5 11t5.5 20.5q-6 -5 -9.5 -12t-6 -16.5t-5.5 -14.5zM-7 172q-15 -2 -22 16q10 51 29 99q1 -2 3 -4.5t3 -3.5q1 1 2 3t2 3.5t2 2.5q-1 1 -3.5 3t-3.5 3q3 3 5 4q-2 13 -2 14q3 15 10 35q15 44 30 86q9 25 14 35q7 11 13.5 34t10.5 33
q3 6 6.5 13.5t6 13.5t6 14.5t6.5 13.5q16 36 23 52q0 1 6 12q8 2 13 -1t10 -9t8 -8q1 3 2 20q-9 4 -35 2q-31 -2 -52 2q-6 1 -38 -2q-10 0 -23 -1t-26.5 -2.5l-22.5 -2.5q-1 0 -11 1q5 3 10 4t10.5 1.5t8.5 1.5q2 0 27 2q-1 4 -3 11q9 0 27.5 1.5t28.5 2.5q1 2 2 6l10 -1
l13 -1q8 3 16.5 4.5t20.5 1.5t16 1l8 1q34 60 37 66q5 8 17 29.5t19 33.5q4 8 8.5 10t13.5 1q17 -3 33 -24q11 -13 -2 -32q-14 -20 -46 -67q0 -1 -9 -14q6 -3 11 -4.5t14 -2.5t10 -1q21 -3 26 -4q15 -4 12 -17q-3 -11 -15 -13t-27 0q-5 0 -15.5 2t-15.5 3h-21
q-10 -17 -11 -18q-41 -83 -49 -101q-5 -12 -26 -69q-34 -90 -43 -116q-2 -6 -28 -87q-11 -34 -11 -35q-30 -108 -34 -125q-14 -59 5 -95l6 -9q12 6 33 22q30 26 65 70q42 52 66 100q5 10 17.5 27.5t15.5 23.5q9 15 25 42.5t19 32.5q1 1 15 25q19 0 28 -11q-12 -18 -13 -19
q-18 -23 -48 -75q-4 -6 -13 -18t-11 -15q-16 -23 -24 -51q-4 -16 -21 -41q-8 -11 -23.5 -29.5t-21.5 -26.5q-39 -51 -74 -76q-23 -16 -44 -7q-4 1 -12.5 5t-12.5 6q-23 9 -33 43q-12 37 -1 84q2 8 5 23t5 20q3 14 9 18q5 -3 1.5 -19.5t-3.5 -19.5q4 -1 10 -2t9 -1
q12 16 7 29l-2 13q9 1 13 13q11 31 9 65q-6 -1 -9 -4.5t-3 -7t-0.5 -8.5t-2.5 -8q-3 -1 -8 -3q2 -3 3 -4q-1 -23 -1 -25v-19z" />
    <glyph glyph-name="u" unicode="u" horiz-adv-x="387" 
d="M419 323h14q-2 -5 -9.5 -18t-11.5 -20q0 -1 -2.5 -4.5t-3.5 -5.5q-22 -53 -77 -138q-24 -37 -41 -51q-34 -30 -75 -11q-22 10 -36 30q-12 17 -12 38q1 52 19 112q13 41 20 77q-20 -27 -22 -29q-3 -6 -7.5 -13.5t-9 -14.5t-8.5 -13q-1 -1 -23 -29q-16 -19 -17 -21
q-18 -28 -65 -65q-15 -10 -24.5 -9t-26.5 12q-35 21 -21 64q2 9 4.5 18.5t5.5 21t4 17.5q6 23 34 91q1 4 15 39q8 24 31 15q21 -7 29 -26q3 -7 1 -13q-4 -15 -10 -26q-42 -83 -59 -159q-2 -7 2 -21q17 4 36 25q42 47 87 111q9 13 26 36.5t23 31.5q1 2 24 35q2 0 8.5 1t10 1
t9 -0.5t10.5 -2.5q14 -7 19.5 -21t-1.5 -29q-12 -23 -38 -97q-18 -50 -27 -119q-1 -4 -1 -26q0 -14 8 -22q22 0 40 19q31 31 47 53q38 50 72 120q6 12 20 36h9z" />
    <glyph glyph-name="v" unicode="v" horiz-adv-x="385" 
d="M400 317h18q-28 -26 -36 -33q-2 -3 -22 -15q-15 -10 -24 -20q-21 -22 -58 -14q-18 5 -50 27q-12 8 -17 24q0 1 -4 12q-7 -6 -16 -20.5t-11 -16.5q-6 -9 -17 -29q-29 -53 -54 -99q-2 -4 -6 -17q-8 -22 -31 -20q-1 1 -4 1.5t-5 0.5q-28 3 -41.5 19t-19.5 45q0 3 -1 32
q0 18 1 38.5t2.5 37.5t3.5 38.5t3 37.5q0 7 -1 19q-1 15 7 22t22 5q24 -4 36 -18q11 -11 10 -25q-3 -26 -5 -40q-1 -5 -12 -57v-2q1 -7 0.5 -15t-1.5 -14.5t-2.5 -14.5t-0.5 -14q0 -7 7 -59l1 -1q81 136 87 147q10 17 23.5 37t23.5 33t27 36t25 33h10q19 -1 24 -11t2 -29
q-1 -5 -9 -19q-18 -29 -25 -51q-5 -21 1 -37q8 -21 27 -16q9 2 31 11q35 15 73 52q7 -1 8 -1z" />
    <glyph glyph-name="w" unicode="w" horiz-adv-x="468" 
d="M493 305q11 -4 22 -2q-10 -11 -16 -17q-5 -4 -11.5 -9.5l-13 -11t-11.5 -10.5q-19 -19 -50.5 -15.5t-43.5 23.5q0 1 -6 8l-7 -11q-24 -58 -70 -122q-7 -10 -27 -27q-15 -13 -36 -5q-29 10 -43 35q-7 13 -7 35q0 5 2 74v18q-14 -18 -35 -51t-40 -59t-41 -45q-25 0 -41 16
t-17 41q-1 43 9 89q7 33 29 120q2 11 8 22q7 13 22 10q2 0 4 -1q25 -7 32.5 -20.5t-1.5 -39.5q-13 -33 -33 -113q-2 -10 -11 -75l1 -14q10 1 17 12q49 74 62 96q8 13 22.5 38t21.5 36q15 24 42 13q27 -12 25 -38q-2 -27 -6 -39q-11 -27 -11 -54q0 -6 -0.5 -13t-1 -13
t-1 -13.5t-0.5 -13.5q-1 -15 6 -30q10 0 17 9q19 21 27 32q28 42 61 114q7 16 9 35q3 26 28 74q4 7 14 13q10 5 19 0t9 -16q1 -22 -7 -34q-12 -17 -22 -61q-2 -9 1 -18q8 -27 33 -19q21 7 45 28q15 12 22 19z" />
    <glyph glyph-name="x" unicode="x" horiz-adv-x="333" 
d="M364 326q7 -2 15 -3q-10 -20 -25 -49q-19 -36 -24 -46q-7 -10 -19.5 -27.5t-16.5 -23.5q-2 -3 -10.5 -17t-14.5 -21q-13 -16 -46 -33q-9 -5 -22 -2q-50 8 -80 33q-18 14 -25 30q-1 1 -9 12q-14 -15 -14 -16q-8 -11 -27.5 -39t-30.5 -43q-27 -38 -58 -65
q-12 -10 -25 -13.5t-29.5 1.5t-31.5 21q26 7 28 8q19 4 38 20q22 19 56 67q11 15 32.5 46.5t32.5 47.5q13 18 8 41q-14 57 -17 139v4v9t1.5 11t6.5 5q20 8 37 1q29 -14 26 -47q0 -5 1 -75q11 9 11 10q5 5 27 27.5t34 34.5q15 15 46 27q11 4 28 3q15 -1 19 -18
q-17 -4 -38 -28q-5 -5 -34 -27q-27 -20 -61 -62q-5 -7 -8 -10q-15 -15 -8 -35q8 -23 12 -43q8 -33 42 -57q43 9 66 39q62 80 78 108q1 1 2 4l4 6q1 2 14 23q1 4 9 22z" />
    <glyph glyph-name="y" unicode="y" horiz-adv-x="403" 
d="M208 95q6 1 6.5 2.5t0.5 6.5q-3 -3 -7 -9zM195 2q2 4 2 6t-1 8t-1 8q2 0 5.5 -0.5t4.5 -0.5q-2 3 -2.5 7t1 10.5t1.5 7.5q-2 1 -5 2t-5 2q-2 -14 -3 -20q-5 -2 -7 -13q-8 -32 -12 -49q-8 -31 -20 -71q-2 -9 -6 -14q-11 -18 -9 -39q4 5 7.5 12t5 12.5t4.5 14t4 13.5
q1 2 3 9t3.5 10t4 8.5t6 9t7.5 6.5q-1 1 -2.5 1.5t-3.5 1t-4 1.5q23 18 13 34l2.5 2.5t3 2t2.5 1.5q0 2 -1 5.5t-0.5 6.5t2.5 5zM138 -155q-5 -8 -4.5 -9.5t7.5 -2.5zM120 -136q2 4 3 11.5t2 10.5q2 7 15 51q5 18 36 122q1 2 8 25q-22 -13 -23 -14q-12 -8 -25 -18.5
t-29 -22.5t-24 -19q-27 -20 -31 -22q-13 -8 -26 -19t-28.5 -26.5t-22.5 -21.5q-25 -23 -58 -82q-4 -9 -10.5 -26t-10.5 -25q-2 -5 -4 -10.5t-2.5 -11.5t-1 -10t0 -11t1 -10t2.5 -11l2.5 -10t3 -11t2.5 -10q1 -2 3 -5q1 -1 6.5 -6t7 -6.5t6.5 -5t8 -4.5t7.5 -2t9.5 -1
q2 0 5 -1t4 -1q17 -1 33 -1q9 -1 10 10q-3 -1 -11 -4t-12 -3.5t-14 2.5q11 5 12 5q49 18 71 54q3 4 6.5 10t6.5 10t6.5 9.5t6.5 10.5q7 12 15 12l3 2q-4 10 -5 14q7 3 9 4q2 20 3 21q4 14 12 30q1 3 5.5 8.5t5.5 8.5zM48 -295q2 4 6 9l-2 2q-4 -5 -7 -10zM1 -330q4 3 13 7
t14 6q-18 2 -27 -13zM458 331h6q-11 -16 -15 -21q-3 -4 -29 -28q-69 -66 -80 -76q-22 -19 -61 -47q-14 -10 -18 -24q-5 -18 -16 -53t-19 -63t-15 -54q-11 -42 -39 -115q-23 -60 -38 -89q-31 -57 -56 -81q-38 -35 -77 -40.5t-81 14.5q-8 3 -30 19q-21 14 -30 49q-4 15 -1 32
q14 72 46 118q30 41 57 66q6 5 19.5 18.5t21.5 20.5q5 4 10.5 8t12 8.5t9.5 7.5q70 52 85 64q40 31 65 47q10 6 13 20q4 12 13.5 46t13.5 53q2 5 18 81q-29 -34 -31 -36q-26 -30 -32 -36q-45 -45 -65 -61q-3 -3 -56 -38l-11 -7q-10 -12 -26 -4q-18 8 -22 12q-20 15 -22 44
q-3 30 9 75q11 39 33 83q7 15 26 59q9 20 27 14q14 -4 24 -11q20 -14 10 -35q-5 -10 -11 -21.5t-12.5 -23.5t-11.5 -21q-20 -40 -23 -50q-4 -14 -22 -90v-12q9 -1 22 7q16 9 23 13q17 8 43 31q46 41 99 106q2 2 11 14t15 18q19 20 27 50q4 17 11.5 21t24.5 -2
q15 -5 21.5 -18t0.5 -28q-22 -57 -35 -115q-2 -9 -6.5 -25t-4.5 -19q-1 -1 -7 -27q47 32 118 103q20 20 50 51h1q8 -1 17 -2z" />
    <glyph glyph-name="z" unicode="z" 
d="M237 67v16q-18 -8 -18 -9q-5 -4 -22 -13.5t-24 -18.5q-1 -1 -7 -4q-22 -12 -31 -17q-8 -6 -28.5 -21.5t-32.5 -22.5q-1 0 -1 -1q-12 -15 -47 -39q-23 -15 -45 -43q-19 -23 -41 -52q-3 -3 -9 -11t-9.5 -12t-9 -11t-8.5 -12t-7.5 -12t-7.5 -12.5t-6.5 -12.5t-6.5 -14
t-5 -14q0 -2 -2 -5q-7 -14 -6 -35q1 -16 1 -17q-4 -22 14 -46q13 -15 31 -16q49 -2 78 22q33 28 42 37q40 41 73 96q29 48 31 53q2 4 23 40q4 6 6 7q1 1 10 3q2 -11 -5 -23q-9 -15 -13 -19q-4 -3 -5.5 -10.5t-3.5 -10.5q-6 -7 -21 -36q-4 -7 -9 -16.5t-9 -17t-9 -16.5
t-9 -17q-3 -5 -9.5 -15t-8.5 -14q-1 0 -3 -9q10 6 23 21t23 29.5t11 21.5q16 14 17 15q3 4 8.5 17t11.5 19l-1 5q9 3 15 13q18 34 19 48l4 5q8 5 7 13q-5 -3 -6 -3q-1 1 -2 1q1 20 2 21q3 11 16 44q8 21 5 31l-8 4l3 7q24 12 18 46q-2 14 4 43zM442 333q3 0 7 1q-1 -4 -3 -8
q-10 -21 -11 -25q-3 -7 -2 -12q4 -23 -15 -45q-9 -9 -10 -12q-10 -17 -45 -51q-30 -31 -52 -45q-11 -7 -12 -25q-1 -31 -9 -68q-20 -94 -52 -162q-8 -17 -45 -81q-19 -32 -38 -62q-4 -5 -11.5 -14.5t-10.5 -14.5q-38 -53 -69 -80q-24 -20 -61 -42q-18 -11 -57 -9
q-55 4 -100 57q-10 12 -14 46q-5 47 23 93q25 40 57 81q28 35 64 73q6 5 13 10.5t15.5 11.5t13.5 10q10 8 24.5 19.5t27.5 22t24 18.5q1 1 19 13q101 65 114 72q23 14 20 38q-6 44 -6 45q-9 36 -44 26q-26 -7 -45 -17q-8 -4 -29.5 -14t-36.5 -17.5t-28 -16.5q-25 -17 -52 1
q-2 10 8 26q66 104 136 180l11 11t9 10l2 6q-9 -4 -27 -15q-3 -2 -6.5 -4l-7 -4t-6.5 -3q-31 -19 -35 -22q-29 -21 -51 -16q-20 5 -30 12q-24 15 -36 43q-4 11 3 31q9 27 34 66q7 11 22 8q22 -5 31 -23q9 -16 -6 -37q-16 -24 -26 -40q-5 -9 -6 -26q11 -8 32 0q72 27 109 48
q7 -2 9.5 -1.5t7.5 4t7 3.5q9 2 18 14q9 11 18 17q17 12 34 -5q7 -8 7.5 -17.5t-6.5 -17.5q-12 -13 -39 -39q-8 -8 -24.5 -23.5t-24.5 -23.5q-40 -39 -70 -78q-1 -1 -24 -34l14 3q8 4 22.5 11.5t21.5 11.5q48 23 103 2q35 -13 51 -54q0 -1 5 -15q14 5 30 21q5 4 46 49
q20 21 30 47q8 19 28 57h12z" />
    <glyph glyph-name="braceleft" unicode="{" horiz-adv-x="268" 
d="M137 419q1 0 1 1h-2zM92 447v1h-1zM71 468v-1l1 1h-1zM137 623l-1 -1h1v1zM51 -27v1l-2 -1l1 -1zM72 380h-2v-3h2v3zM54 15l-2 1l-3 -1l3 -2zM67 360l3 -3q1 -1 2 0v2q-1 0 -5 1zM71 277h1q0 5 -1 9v-9zM218 607q0 -10 -11 -21q-9 -10 -21 -30q-11 -16 -19 -42
q-1 -2 -4.5 -13t-5.5 -17q-4 -9 -9 -46q-2 -19 -2 -37q0 -1 -1.5 -23.5t1.5 -24.5q0 -3 -0.5 -11.5t1.5 -11.5q-1 -4 -1 -22.5t-3 -28.5q0 -1 -3 -19t-17 -40q4 -5 5.5 -12t2.5 -16.5t1 -14.5q5 -23 2 -41q-1 -12 -2.5 -30.5t-3 -35t-4.5 -29.5q-6 -32 -1 -52v-5
q-2 -21 10 -42q3 -2 11 -3t12 -3q2 -1 23 -5q6 -8 2 -12q-1 0 -9 2l-2 -4q-38 -10 -85 6q-4 3 -13.5 8.5t-16.5 10.5t-12 11q-8 12 -11 32q0 4 0.5 14.5t-0.5 15.5q-2 12 0 29q1 2 2 14t2 18q1 5 2 14t1 13q2 9 3.5 26.5t2.5 21.5q3 27 -1 52q-2 9 -11 14q-3 2 -9 4t-8 2
q-1 1 -16 8q4 8 5 9q1 0 5 -2q10 9 11 10t5.5 2t5.5 4q2 3 7 3t7 1q-5 2 -6 2q11 13 11 14q1 2 2 18q4 34 5 35v35q1 6 0 19.5t0 20.5q0 5 0.5 25t2.5 31v3v4q0 16 6 34q5 16 8 30q3 22 10 34q5 7 10 22q2 7 9 16.5t9 14.5q6 5 8 6t8.5 5t9.5 3t11 -1q5 -1 46 -8
q10 -2 22 -14z" />
    <glyph glyph-name="braceright" unicode="}" horiz-adv-x="234" 
d="M95 277v-1h1zM84 337h-2h2zM49 114l2 5q-2 7 0 35v12.5t1 14.5q0 2 0.5 8.5t1 10t2.5 8t5 8.5v1h1q2 12 16 23q15 0 31 -1l-1 4q-13 10 -20 15q-20 14 -22 39q-4 40 -4 45q-1 24 2 33q1 4 2 8.5t1 9.5t1 9q1 6 5.5 33.5t6.5 42.5q7 46 6 55q0 26 -2 44q0 2 -0.5 4.5
t-1.5 5.5t-1 4q-3 10 -14 14q-8 3 -32 14l-5 5q10 3 21 2q41 -6 51 -8q32 -5 56 -31q9 -11 11 -26q3 -26 3 -33q1 -30 -1 -49q-1 -6 -9 -56q-1 -5 -2.5 -15t-2.5 -15t-1 -8q1 -8 -1.5 -21t-2.5 -19q0 -1 -2.5 -4.5t-0.5 -6.5q1 -2 1 -3.5v-4v-4.5q2 -9 1 -43q0 -21 15 -30
q10 -8 11 -8q0 -1 7 -9q-3 -3 -19 -8q-10 -3 -15 -14q-14 -28 -12 -62v-46v-9q2 -7 5 -26.5t5 -29.5q8 -26 7 -46q0 -4 1.5 -12t1.5 -12q-1 -17 -10 -31q-1 -3 -6 -5q-32 -17 -66 -14q-16 2 -34 6q-5 2 -29 13q-1 0 -13 7l5 2q16 0 20 -1q5 -1 9.5 0.5t10 5.5t7.5 5q1 0 5 6
q9 12 6 18q4 14 -2 57q-1 12 -10 73l-2 4l4 1h-4z" />
    <glyph glyph-name="nonbreakingspace" unicode="&#xa0;" 
 />
  </font>
</defs>
</svg>
